<?xml version="1.0" encoding="utf-8"?>
<svg xmlns="http://www.w3.org/2000/svg" xmlns:xlink="http://www.w3.org/1999/xlink" width="600" height="400" viewBox="0 0 2400 1600">
<defs>
  <clipPath id="clip950">
    <rect x="0" y="0" width="2400" height="1600"/>
  </clipPath>
</defs>
<path clip-path="url(#clip950)" d="M0 1600 L2400 1600 L2400 0 L0 0  Z" fill="#ffffff" fill-rule="evenodd" fill-opacity="1"/>
<defs>
  <clipPath id="clip951">
    <rect x="193" y="47" width="2160" height="1440"/>
  </clipPath>
</defs>
<path clip-path="url(#clip950)" d="M193.936 1486.45 L2352.76 1486.45 L2352.76 47.2441 L193.936 47.2441  Z" fill="#ffffff" fill-rule="evenodd" fill-opacity="1"/>
<polyline clip-path="url(#clip951)" style="stroke:#000000; stroke-linecap:round; stroke-linejoin:round; stroke-width:2; stroke-opacity:0.1; fill:none" points="255.035,1486.45 255.035,47.2441 "/>
<polyline clip-path="url(#clip951)" style="stroke:#000000; stroke-linecap:round; stroke-linejoin:round; stroke-width:2; stroke-opacity:0.1; fill:none" points="579.338,1486.45 579.338,47.2441 "/>
<polyline clip-path="url(#clip951)" style="stroke:#000000; stroke-linecap:round; stroke-linejoin:round; stroke-width:2; stroke-opacity:0.1; fill:none" points="903.641,1486.45 903.641,47.2441 "/>
<polyline clip-path="url(#clip951)" style="stroke:#000000; stroke-linecap:round; stroke-linejoin:round; stroke-width:2; stroke-opacity:0.1; fill:none" points="1227.94,1486.45 1227.94,47.2441 "/>
<polyline clip-path="url(#clip951)" style="stroke:#000000; stroke-linecap:round; stroke-linejoin:round; stroke-width:2; stroke-opacity:0.1; fill:none" points="1552.25,1486.45 1552.25,47.2441 "/>
<polyline clip-path="url(#clip951)" style="stroke:#000000; stroke-linecap:round; stroke-linejoin:round; stroke-width:2; stroke-opacity:0.1; fill:none" points="1876.55,1486.45 1876.55,47.2441 "/>
<polyline clip-path="url(#clip951)" style="stroke:#000000; stroke-linecap:round; stroke-linejoin:round; stroke-width:2; stroke-opacity:0.1; fill:none" points="2200.85,1486.45 2200.85,47.2441 "/>
<polyline clip-path="url(#clip951)" style="stroke:#000000; stroke-linecap:round; stroke-linejoin:round; stroke-width:2; stroke-opacity:0.1; fill:none" points="193.936,1310.31 2352.76,1310.31 "/>
<polyline clip-path="url(#clip951)" style="stroke:#000000; stroke-linecap:round; stroke-linejoin:round; stroke-width:2; stroke-opacity:0.1; fill:none" points="193.936,1047.34 2352.76,1047.34 "/>
<polyline clip-path="url(#clip951)" style="stroke:#000000; stroke-linecap:round; stroke-linejoin:round; stroke-width:2; stroke-opacity:0.1; fill:none" points="193.936,784.374 2352.76,784.374 "/>
<polyline clip-path="url(#clip951)" style="stroke:#000000; stroke-linecap:round; stroke-linejoin:round; stroke-width:2; stroke-opacity:0.1; fill:none" points="193.936,521.408 2352.76,521.408 "/>
<polyline clip-path="url(#clip951)" style="stroke:#000000; stroke-linecap:round; stroke-linejoin:round; stroke-width:2; stroke-opacity:0.1; fill:none" points="193.936,258.442 2352.76,258.442 "/>
<polyline clip-path="url(#clip950)" style="stroke:#000000; stroke-linecap:round; stroke-linejoin:round; stroke-width:4; stroke-opacity:1; fill:none" points="193.936,1486.45 2352.76,1486.45 "/>
<polyline clip-path="url(#clip950)" style="stroke:#000000; stroke-linecap:round; stroke-linejoin:round; stroke-width:4; stroke-opacity:1; fill:none" points="255.035,1486.45 255.035,1467.55 "/>
<polyline clip-path="url(#clip950)" style="stroke:#000000; stroke-linecap:round; stroke-linejoin:round; stroke-width:4; stroke-opacity:1; fill:none" points="579.338,1486.45 579.338,1467.55 "/>
<polyline clip-path="url(#clip950)" style="stroke:#000000; stroke-linecap:round; stroke-linejoin:round; stroke-width:4; stroke-opacity:1; fill:none" points="903.641,1486.45 903.641,1467.55 "/>
<polyline clip-path="url(#clip950)" style="stroke:#000000; stroke-linecap:round; stroke-linejoin:round; stroke-width:4; stroke-opacity:1; fill:none" points="1227.94,1486.45 1227.94,1467.55 "/>
<polyline clip-path="url(#clip950)" style="stroke:#000000; stroke-linecap:round; stroke-linejoin:round; stroke-width:4; stroke-opacity:1; fill:none" points="1552.25,1486.45 1552.25,1467.55 "/>
<polyline clip-path="url(#clip950)" style="stroke:#000000; stroke-linecap:round; stroke-linejoin:round; stroke-width:4; stroke-opacity:1; fill:none" points="1876.55,1486.45 1876.55,1467.55 "/>
<polyline clip-path="url(#clip950)" style="stroke:#000000; stroke-linecap:round; stroke-linejoin:round; stroke-width:4; stroke-opacity:1; fill:none" points="2200.85,1486.45 2200.85,1467.55 "/>
<path clip-path="url(#clip950)" d="M255.035 1517.37 Q251.424 1517.37 249.595 1520.93 Q247.789 1524.47 247.789 1531.6 Q247.789 1538.71 249.595 1542.27 Q251.424 1545.82 255.035 1545.82 Q258.669 1545.82 260.474 1542.27 Q262.303 1538.71 262.303 1531.6 Q262.303 1524.47 260.474 1520.93 Q258.669 1517.37 255.035 1517.37 M255.035 1513.66 Q260.845 1513.66 263.9 1518.27 Q266.979 1522.85 266.979 1531.6 Q266.979 1540.33 263.9 1544.94 Q260.845 1549.52 255.035 1549.52 Q249.225 1549.52 246.146 1544.94 Q243.09 1540.33 243.09 1531.6 Q243.09 1522.85 246.146 1518.27 Q249.225 1513.66 255.035 1513.66 Z" fill="#000000" fill-rule="nonzero" fill-opacity="1" /><path clip-path="url(#clip950)" d="M569.72 1544.91 L577.358 1544.91 L577.358 1518.55 L569.048 1520.21 L569.048 1515.95 L577.312 1514.29 L581.988 1514.29 L581.988 1544.91 L589.627 1544.91 L589.627 1548.85 L569.72 1548.85 L569.72 1544.91 Z" fill="#000000" fill-rule="nonzero" fill-opacity="1" /><path clip-path="url(#clip950)" d="M898.293 1544.91 L914.613 1544.91 L914.613 1548.85 L892.668 1548.85 L892.668 1544.91 Q895.33 1542.16 899.914 1537.53 Q904.52 1532.88 905.701 1531.53 Q907.946 1529.01 908.826 1527.27 Q909.729 1525.51 909.729 1523.82 Q909.729 1521.07 907.784 1519.33 Q905.863 1517.6 902.761 1517.6 Q900.562 1517.6 898.108 1518.36 Q895.678 1519.13 892.9 1520.68 L892.9 1515.95 Q895.724 1514.82 898.178 1514.24 Q900.631 1513.66 902.668 1513.66 Q908.039 1513.66 911.233 1516.35 Q914.428 1519.03 914.428 1523.52 Q914.428 1525.65 913.617 1527.57 Q912.83 1529.47 910.724 1532.07 Q910.145 1532.74 907.043 1535.95 Q903.942 1539.15 898.293 1544.91 Z" fill="#000000" fill-rule="nonzero" fill-opacity="1" /><path clip-path="url(#clip950)" d="M1232.19 1530.21 Q1235.55 1530.93 1237.42 1533.2 Q1239.32 1535.47 1239.32 1538.8 Q1239.32 1543.92 1235.8 1546.72 Q1232.28 1549.52 1225.8 1549.52 Q1223.63 1549.52 1221.31 1549.08 Q1219.02 1548.66 1216.57 1547.81 L1216.57 1543.29 Q1218.51 1544.43 1220.83 1545.01 Q1223.14 1545.58 1225.66 1545.58 Q1230.06 1545.58 1232.35 1543.85 Q1234.67 1542.11 1234.67 1538.8 Q1234.67 1535.75 1232.52 1534.03 Q1230.39 1532.3 1226.57 1532.3 L1222.54 1532.3 L1222.54 1528.45 L1226.75 1528.45 Q1230.2 1528.45 1232.03 1527.09 Q1233.86 1525.7 1233.86 1523.11 Q1233.86 1520.45 1231.96 1519.03 Q1230.08 1517.6 1226.57 1517.6 Q1224.64 1517.6 1222.45 1518.01 Q1220.25 1518.43 1217.61 1519.31 L1217.61 1515.14 Q1220.27 1514.4 1222.58 1514.03 Q1224.92 1513.66 1226.98 1513.66 Q1232.31 1513.66 1235.41 1516.09 Q1238.51 1518.5 1238.51 1522.62 Q1238.51 1525.49 1236.87 1527.48 Q1235.22 1529.45 1232.19 1530.21 Z" fill="#000000" fill-rule="nonzero" fill-opacity="1" /><path clip-path="url(#clip950)" d="M1555.26 1518.36 L1543.45 1536.81 L1555.26 1536.81 L1555.26 1518.36 M1554.03 1514.29 L1559.91 1514.29 L1559.91 1536.81 L1564.84 1536.81 L1564.84 1540.7 L1559.91 1540.7 L1559.91 1548.85 L1555.26 1548.85 L1555.26 1540.7 L1539.65 1540.7 L1539.65 1536.19 L1554.03 1514.29 Z" fill="#000000" fill-rule="nonzero" fill-opacity="1" /><path clip-path="url(#clip950)" d="M1866.83 1514.29 L1885.18 1514.29 L1885.18 1518.22 L1871.11 1518.22 L1871.11 1526.7 Q1872.13 1526.35 1873.15 1526.19 Q1874.17 1526 1875.18 1526 Q1880.97 1526 1884.35 1529.17 Q1887.73 1532.34 1887.73 1537.76 Q1887.73 1543.34 1884.26 1546.44 Q1880.79 1549.52 1874.47 1549.52 Q1872.29 1549.52 1870.02 1549.15 Q1867.78 1548.78 1865.37 1548.04 L1865.37 1543.34 Q1867.45 1544.47 1869.67 1545.03 Q1871.9 1545.58 1874.37 1545.58 Q1878.38 1545.58 1880.72 1543.48 Q1883.05 1541.37 1883.05 1537.76 Q1883.05 1534.15 1880.72 1532.04 Q1878.38 1529.94 1874.37 1529.94 Q1872.5 1529.94 1870.62 1530.35 Q1868.77 1530.77 1866.83 1531.65 L1866.83 1514.29 Z" fill="#000000" fill-rule="nonzero" fill-opacity="1" /><path clip-path="url(#clip950)" d="M2201.26 1529.7 Q2198.11 1529.7 2196.26 1531.86 Q2194.43 1534.01 2194.43 1537.76 Q2194.43 1541.49 2196.26 1543.66 Q2198.11 1545.82 2201.26 1545.82 Q2204.41 1545.82 2206.23 1543.66 Q2208.09 1541.49 2208.09 1537.76 Q2208.09 1534.01 2206.23 1531.86 Q2204.41 1529.7 2201.26 1529.7 M2210.54 1515.05 L2210.54 1519.31 Q2208.78 1518.48 2206.98 1518.04 Q2205.19 1517.6 2203.43 1517.6 Q2198.8 1517.6 2196.35 1520.72 Q2193.92 1523.85 2193.57 1530.17 Q2194.94 1528.15 2197 1527.09 Q2199.06 1526 2201.54 1526 Q2206.74 1526 2209.75 1529.17 Q2212.79 1532.32 2212.79 1537.76 Q2212.79 1543.08 2209.64 1546.3 Q2206.49 1549.52 2201.26 1549.52 Q2195.26 1549.52 2192.09 1544.94 Q2188.92 1540.33 2188.92 1531.6 Q2188.92 1523.41 2192.81 1518.55 Q2196.7 1513.66 2203.25 1513.66 Q2205.01 1513.66 2206.79 1514.01 Q2208.6 1514.36 2210.54 1515.05 Z" fill="#000000" fill-rule="nonzero" fill-opacity="1" /><polyline clip-path="url(#clip950)" style="stroke:#000000; stroke-linecap:round; stroke-linejoin:round; stroke-width:4; stroke-opacity:1; fill:none" points="193.936,1486.45 193.936,47.2441 "/>
<polyline clip-path="url(#clip950)" style="stroke:#000000; stroke-linecap:round; stroke-linejoin:round; stroke-width:4; stroke-opacity:1; fill:none" points="193.936,1310.31 212.834,1310.31 "/>
<polyline clip-path="url(#clip950)" style="stroke:#000000; stroke-linecap:round; stroke-linejoin:round; stroke-width:4; stroke-opacity:1; fill:none" points="193.936,1047.34 212.834,1047.34 "/>
<polyline clip-path="url(#clip950)" style="stroke:#000000; stroke-linecap:round; stroke-linejoin:round; stroke-width:4; stroke-opacity:1; fill:none" points="193.936,784.374 212.834,784.374 "/>
<polyline clip-path="url(#clip950)" style="stroke:#000000; stroke-linecap:round; stroke-linejoin:round; stroke-width:4; stroke-opacity:1; fill:none" points="193.936,521.408 212.834,521.408 "/>
<polyline clip-path="url(#clip950)" style="stroke:#000000; stroke-linecap:round; stroke-linejoin:round; stroke-width:4; stroke-opacity:1; fill:none" points="193.936,258.442 212.834,258.442 "/>
<path clip-path="url(#clip950)" d="M50.9921 1310.76 L80.6679 1310.76 L80.6679 1314.69 L50.9921 1314.69 L50.9921 1310.76 Z" fill="#000000" fill-rule="nonzero" fill-opacity="1" /><path clip-path="url(#clip950)" d="M91.5706 1323.65 L99.2095 1323.65 L99.2095 1297.28 L90.8993 1298.95 L90.8993 1294.69 L99.1632 1293.03 L103.839 1293.03 L103.839 1323.65 L111.478 1323.65 L111.478 1327.59 L91.5706 1327.59 L91.5706 1323.65 Z" fill="#000000" fill-rule="nonzero" fill-opacity="1" /><path clip-path="url(#clip950)" d="M120.922 1321.71 L125.807 1321.71 L125.807 1327.59 L120.922 1327.59 L120.922 1321.71 Z" fill="#000000" fill-rule="nonzero" fill-opacity="1" /><path clip-path="url(#clip950)" d="M145.992 1296.1 Q142.381 1296.1 140.552 1299.67 Q138.746 1303.21 138.746 1310.34 Q138.746 1317.45 140.552 1321.01 Q142.381 1324.55 145.992 1324.55 Q149.626 1324.55 151.431 1321.01 Q153.26 1317.45 153.26 1310.34 Q153.26 1303.21 151.431 1299.67 Q149.626 1296.1 145.992 1296.1 M145.992 1292.4 Q151.802 1292.4 154.857 1297.01 Q157.936 1301.59 157.936 1310.34 Q157.936 1319.07 154.857 1323.67 Q151.802 1328.26 145.992 1328.26 Q140.181 1328.26 137.103 1323.67 Q134.047 1319.07 134.047 1310.34 Q134.047 1301.59 137.103 1297.01 Q140.181 1292.4 145.992 1292.4 Z" fill="#000000" fill-rule="nonzero" fill-opacity="1" /><path clip-path="url(#clip950)" d="M51.9875 1047.79 L81.6633 1047.79 L81.6633 1051.73 L51.9875 1051.73 L51.9875 1047.79 Z" fill="#000000" fill-rule="nonzero" fill-opacity="1" /><path clip-path="url(#clip950)" d="M101.756 1033.14 Q98.1447 1033.14 96.316 1036.7 Q94.5104 1040.24 94.5104 1047.37 Q94.5104 1054.48 96.316 1058.05 Q98.1447 1061.59 101.756 1061.59 Q105.39 1061.59 107.196 1058.05 Q109.024 1054.48 109.024 1047.37 Q109.024 1040.24 107.196 1036.7 Q105.39 1033.14 101.756 1033.14 M101.756 1029.43 Q107.566 1029.43 110.621 1034.04 Q113.7 1038.62 113.7 1047.37 Q113.7 1056.1 110.621 1060.71 Q107.566 1065.29 101.756 1065.29 Q95.9456 1065.29 92.8669 1060.71 Q89.8114 1056.1 89.8114 1047.37 Q89.8114 1038.62 92.8669 1034.04 Q95.9456 1029.43 101.756 1029.43 Z" fill="#000000" fill-rule="nonzero" fill-opacity="1" /><path clip-path="url(#clip950)" d="M121.918 1058.74 L126.802 1058.74 L126.802 1064.62 L121.918 1064.62 L121.918 1058.74 Z" fill="#000000" fill-rule="nonzero" fill-opacity="1" /><path clip-path="url(#clip950)" d="M137.033 1030.06 L155.39 1030.06 L155.39 1033.99 L141.316 1033.99 L141.316 1042.47 Q142.334 1042.12 143.353 1041.96 Q144.371 1041.77 145.39 1041.77 Q151.177 1041.77 154.556 1044.94 Q157.936 1048.12 157.936 1053.53 Q157.936 1059.11 154.464 1062.21 Q150.992 1065.29 144.672 1065.29 Q142.496 1065.29 140.228 1064.92 Q137.982 1064.55 135.575 1063.81 L135.575 1059.11 Q137.658 1060.24 139.881 1060.8 Q142.103 1061.36 144.58 1061.36 Q148.584 1061.36 150.922 1059.25 Q153.26 1057.14 153.26 1053.53 Q153.26 1049.92 150.922 1047.81 Q148.584 1045.71 144.58 1045.71 Q142.705 1045.71 140.83 1046.12 Q138.978 1046.54 137.033 1047.42 L137.033 1030.06 Z" fill="#000000" fill-rule="nonzero" fill-opacity="1" /><path clip-path="url(#clip950)" d="M100.76 770.172 Q97.1493 770.172 95.3206 773.737 Q93.515 777.279 93.515 784.408 Q93.515 791.515 95.3206 795.08 Q97.1493 798.621 100.76 798.621 Q104.395 798.621 106.2 795.08 Q108.029 791.515 108.029 784.408 Q108.029 777.279 106.2 773.737 Q104.395 770.172 100.76 770.172 M100.76 766.469 Q106.571 766.469 109.626 771.075 Q112.705 775.658 112.705 784.408 Q112.705 793.135 109.626 797.742 Q106.571 802.325 100.76 802.325 Q94.9502 802.325 91.8715 797.742 Q88.816 793.135 88.816 784.408 Q88.816 775.658 91.8715 771.075 Q94.9502 766.469 100.76 766.469 Z" fill="#000000" fill-rule="nonzero" fill-opacity="1" /><path clip-path="url(#clip950)" d="M120.922 795.774 L125.807 795.774 L125.807 801.654 L120.922 801.654 L120.922 795.774 Z" fill="#000000" fill-rule="nonzero" fill-opacity="1" /><path clip-path="url(#clip950)" d="M145.992 770.172 Q142.381 770.172 140.552 773.737 Q138.746 777.279 138.746 784.408 Q138.746 791.515 140.552 795.08 Q142.381 798.621 145.992 798.621 Q149.626 798.621 151.431 795.08 Q153.26 791.515 153.26 784.408 Q153.26 777.279 151.431 773.737 Q149.626 770.172 145.992 770.172 M145.992 766.469 Q151.802 766.469 154.857 771.075 Q157.936 775.658 157.936 784.408 Q157.936 793.135 154.857 797.742 Q151.802 802.325 145.992 802.325 Q140.181 802.325 137.103 797.742 Q134.047 793.135 134.047 784.408 Q134.047 775.658 137.103 771.075 Q140.181 766.469 145.992 766.469 Z" fill="#000000" fill-rule="nonzero" fill-opacity="1" /><path clip-path="url(#clip950)" d="M101.756 507.206 Q98.1447 507.206 96.316 510.771 Q94.5104 514.313 94.5104 521.442 Q94.5104 528.549 96.316 532.114 Q98.1447 535.655 101.756 535.655 Q105.39 535.655 107.196 532.114 Q109.024 528.549 109.024 521.442 Q109.024 514.313 107.196 510.771 Q105.39 507.206 101.756 507.206 M101.756 503.503 Q107.566 503.503 110.621 508.109 Q113.7 512.692 113.7 521.442 Q113.7 530.169 110.621 534.776 Q107.566 539.359 101.756 539.359 Q95.9456 539.359 92.8669 534.776 Q89.8114 530.169 89.8114 521.442 Q89.8114 512.692 92.8669 508.109 Q95.9456 503.503 101.756 503.503 Z" fill="#000000" fill-rule="nonzero" fill-opacity="1" /><path clip-path="url(#clip950)" d="M121.918 532.808 L126.802 532.808 L126.802 538.688 L121.918 538.688 L121.918 532.808 Z" fill="#000000" fill-rule="nonzero" fill-opacity="1" /><path clip-path="url(#clip950)" d="M137.033 504.128 L155.39 504.128 L155.39 508.063 L141.316 508.063 L141.316 516.535 Q142.334 516.188 143.353 516.026 Q144.371 515.841 145.39 515.841 Q151.177 515.841 154.556 519.012 Q157.936 522.183 157.936 527.6 Q157.936 533.178 154.464 536.28 Q150.992 539.359 144.672 539.359 Q142.496 539.359 140.228 538.989 Q137.982 538.618 135.575 537.877 L135.575 533.178 Q137.658 534.313 139.881 534.868 Q142.103 535.424 144.58 535.424 Q148.584 535.424 150.922 533.317 Q153.26 531.211 153.26 527.6 Q153.26 523.989 150.922 521.882 Q148.584 519.776 144.58 519.776 Q142.705 519.776 140.83 520.192 Q138.978 520.609 137.033 521.489 L137.033 504.128 Z" fill="#000000" fill-rule="nonzero" fill-opacity="1" /><path clip-path="url(#clip950)" d="M91.5706 271.786 L99.2095 271.786 L99.2095 245.421 L90.8993 247.087 L90.8993 242.828 L99.1632 241.162 L103.839 241.162 L103.839 271.786 L111.478 271.786 L111.478 275.722 L91.5706 275.722 L91.5706 271.786 Z" fill="#000000" fill-rule="nonzero" fill-opacity="1" /><path clip-path="url(#clip950)" d="M120.922 269.842 L125.807 269.842 L125.807 275.722 L120.922 275.722 L120.922 269.842 Z" fill="#000000" fill-rule="nonzero" fill-opacity="1" /><path clip-path="url(#clip950)" d="M145.992 244.24 Q142.381 244.24 140.552 247.805 Q138.746 251.347 138.746 258.476 Q138.746 265.583 140.552 269.148 Q142.381 272.689 145.992 272.689 Q149.626 272.689 151.431 269.148 Q153.26 265.583 153.26 258.476 Q153.26 251.347 151.431 247.805 Q149.626 244.24 145.992 244.24 M145.992 240.537 Q151.802 240.537 154.857 245.143 Q157.936 249.726 157.936 258.476 Q157.936 267.203 154.857 271.81 Q151.802 276.393 145.992 276.393 Q140.181 276.393 137.103 271.81 Q134.047 267.203 134.047 258.476 Q134.047 249.726 137.103 245.143 Q140.181 240.537 145.992 240.537 Z" fill="#000000" fill-rule="nonzero" fill-opacity="1" /><polyline clip-path="url(#clip951)" style="stroke:#009af9; stroke-linecap:round; stroke-linejoin:round; stroke-width:4; stroke-opacity:1; fill:none" points="255.035,784.374 258.278,779.114 261.521,773.856 264.764,768.598 268.007,763.342 271.25,758.088 274.493,752.837 277.736,747.588 280.979,742.344 284.222,737.104 287.465,731.868 290.708,726.638 293.951,721.413 297.194,716.195 300.437,710.983 303.68,705.779 306.923,700.583 310.166,695.395 313.409,690.216 316.652,685.047 319.895,679.887 323.138,674.738 326.381,669.6 329.624,664.473 332.867,659.358 336.11,654.256 339.353,649.167 342.596,644.091 345.84,639.029 349.083,633.982 352.326,628.95 355.569,623.934 358.812,618.933 362.055,613.949 365.298,608.982 368.541,604.033 371.784,599.101 375.027,594.188 378.27,589.295 381.513,584.42 384.756,579.566 387.999,574.732 391.242,569.919 394.485,565.128 397.728,560.358 400.971,555.611 404.214,550.887 407.457,546.186 410.7,541.509 413.943,536.856 417.186,532.228 420.429,527.626 423.672,523.048 426.915,518.497 430.158,513.973 433.401,509.476 436.644,505.006 439.887,500.564 443.13,496.15 446.373,491.766 449.616,487.41 452.859,483.084 456.103,478.789 459.346,474.524 462.589,470.289 465.832,466.087 469.075,461.916 472.318,457.777 475.561,453.671 478.804,449.598 482.047,445.559 485.29,441.553 488.533,437.582 491.776,433.646 495.019,429.744 498.262,425.878 501.505,422.048 504.748,418.254 507.991,414.496 511.234,410.776 514.477,407.093 517.72,403.448 520.963,399.841 524.206,396.272 527.449,392.742 530.692,389.251 533.935,385.8 537.178,382.389 540.421,379.017 543.664,375.687 546.907,372.397 550.15,369.148 553.393,365.941 556.636,362.776 559.879,359.653 563.122,356.572 566.366,353.535 569.609,350.54 572.852,347.588 576.095,344.681 579.338,341.817 582.581,338.998 585.824,336.223 589.067,333.493 592.31,330.808 595.553,328.168 598.796,325.574 602.039,323.026 605.282,320.524 608.525,318.068 611.768,315.659 615.011,313.297 618.254,310.982 621.497,308.714 624.74,306.494 627.983,304.322 631.226,302.197 634.469,300.121 637.712,298.094 640.955,296.115 644.198,294.184 647.441,292.303 650.684,290.471 653.927,288.689 657.17,286.955 660.413,285.272 663.656,283.639 666.899,282.055 670.142,280.522 673.385,279.04 676.629,277.607 679.872,276.226 683.115,274.895 686.358,273.616 689.601,272.387 692.844,271.209 696.087,270.083 699.33,269.009 702.573,267.985 705.816,267.014 709.059,266.094 712.302,265.226 715.545,264.41 718.788,263.646 722.031,262.934 725.274,262.274 728.517,261.666 731.76,261.111 735.003,260.608 738.246,260.157 741.489,259.759 744.732,259.413 747.975,259.12 751.218,258.879 754.461,258.691 757.704,258.555 760.947,258.472 764.19,258.442 767.433,258.464 770.676,258.539 773.919,258.666 777.162,258.846 780.405,259.078 783.648,259.363 786.892,259.7 790.135,260.09 793.378,260.533 796.621,261.027 799.864,261.574 803.107,262.174 806.35,262.825 809.593,263.529 812.836,264.285 816.079,265.093 819.322,265.952 822.565,266.864 825.808,267.827 829.051,268.842 832.294,269.909 835.537,271.027 838.78,272.196 842.023,273.416 845.266,274.688 848.509,276.011 851.752,277.384 854.995,278.808 858.238,280.283 861.481,281.808 864.724,283.383 867.967,285.009 871.21,286.684 874.453,288.409 877.696,290.184 880.939,292.008 884.182,293.881 887.425,295.804 890.668,297.775 893.911,299.795 897.155,301.864 900.398,303.98 903.641,306.145 906.884,308.357 910.127,310.618 913.37,312.925 916.613,315.28 919.856,317.681 923.099,320.13 926.342,322.624 929.585,325.165 932.828,327.752 936.071,330.384 939.314,333.062 942.557,335.785 945.8,338.553 949.043,341.365 952.286,344.222 955.529,347.122 958.772,350.067 962.015,353.055 965.258,356.086 968.501,359.159 971.744,362.276 974.987,365.434 978.23,368.635 981.473,371.877 984.716,375.16 987.959,378.484 991.202,381.849 994.445,385.254 997.688,388.699 1000.93,392.183 1004.17,395.707 1007.42,399.27 1010.66,402.871 1013.9,406.51 1017.15,410.187 1020.39,413.901 1023.63,417.653 1026.88,421.441 1030.12,425.266 1033.36,429.126 1036.6,433.022 1039.85,436.953 1043.09,440.919 1046.33,444.919 1049.58,448.953 1052.82,453.02 1056.06,457.121 1059.31,461.255 1062.55,465.42 1065.79,469.618 1069.04,473.847 1072.28,478.107 1075.52,482.398 1078.76,486.719 1082.01,491.07 1085.25,495.45 1088.49,499.859 1091.74,504.296 1094.98,508.762 1098.22,513.255 1101.47,517.775 1104.71,522.322 1107.95,526.895 1111.19,531.494 1114.44,536.118 1117.68,540.766 1120.92,545.44 1124.17,550.137 1127.41,554.857 1130.65,559.601 1133.9,564.367 1137.14,569.155 1140.38,573.964 1143.62,578.795 1146.87,583.646 1150.11,588.517 1153.35,593.408 1156.6,598.318 1159.84,603.246 1163.08,608.193 1166.33,613.157 1169.57,618.138 1172.81,623.136 1176.06,628.15 1179.3,633.18 1182.54,638.225 1185.78,643.284 1189.03,648.357 1192.27,653.445 1195.51,658.545 1198.76,663.658 1202,668.782 1205.24,673.919 1208.49,679.066 1211.73,684.224 1214.97,689.392 1218.21,694.57 1221.46,699.756 1224.7,704.951 1227.94,710.154 1231.19,715.364 1234.43,720.582 1237.67,725.805 1240.92,731.035 1244.16,736.269 1247.4,741.509 1250.64,746.753 1253.89,752.001 1257.13,757.251 1260.37,762.505 1263.62,767.761 1266.86,773.018 1270.1,778.277 1273.35,783.536 1276.59,788.795 1279.83,794.054 1283.08,799.312 1286.32,804.568 1289.56,809.823 1292.8,815.074 1296.05,820.323 1299.29,825.568 1302.53,830.809 1305.78,836.046 1309.02,841.277 1312.26,846.502 1315.51,851.722 1318.75,856.934 1321.99,862.14 1325.23,867.337 1328.48,872.526 1331.72,877.707 1334.96,882.878 1338.21,888.039 1341.45,893.19 1344.69,898.33 1347.94,903.459 1351.18,908.575 1354.42,913.68 1357.66,918.771 1360.91,923.849 1364.15,928.913 1367.39,933.962 1370.64,938.997 1373.88,944.016 1377.12,949.019 1380.37,954.006 1383.61,958.975 1386.85,963.928 1390.1,968.862 1393.34,973.778 1396.58,978.675 1399.82,983.552 1403.07,988.409 1406.31,993.247 1409.55,998.063 1412.8,1002.86 1416.04,1007.63 1419.28,1012.38 1422.53,1017.11 1425.77,1021.81 1429.01,1026.49 1432.25,1031.15 1435.5,1035.78 1438.74,1040.39 1441.98,1044.97 1445.23,1049.53 1448.47,1054.06 1451.71,1058.56 1454.96,1063.03 1458.2,1067.48 1461.44,1071.9 1464.68,1076.29 1467.93,1080.65 1471.17,1084.98 1474.41,1089.28 1477.66,1093.55 1480.9,1097.79 1484.14,1101.99 1487.39,1106.17 1490.63,1110.31 1493.87,1114.42 1497.11,1118.5 1500.36,1122.55 1503.6,1126.56 1506.84,1130.54 1510.09,1134.48 1513.33,1138.38 1516.57,1142.26 1519.82,1146.09 1523.06,1149.89 1526.3,1153.65 1529.55,1157.38 1532.79,1161.07 1536.03,1164.72 1539.27,1168.33 1542.52,1171.91 1545.76,1175.45 1549,1178.94 1552.25,1182.4 1555.49,1185.82 1558.73,1189.2 1561.98,1192.53 1565.22,1195.83 1568.46,1199.08 1571.7,1202.3 1574.95,1205.47 1578.19,1208.6 1581.43,1211.69 1584.68,1214.73 1587.92,1217.73 1591.16,1220.69 1594.41,1223.61 1597.65,1226.48 1600.89,1229.3 1604.13,1232.09 1607.38,1234.82 1610.62,1237.52 1613.86,1240.16 1617.11,1242.76 1620.35,1245.32 1623.59,1247.83 1626.84,1250.29 1630.08,1252.71 1633.32,1255.08 1636.57,1257.4 1639.81,1259.68 1643.05,1261.9 1646.29,1264.08 1649.54,1266.21 1652.78,1268.3 1656.02,1270.33 1659.27,1272.32 1662.51,1274.26 1665.75,1276.15 1669,1277.99 1672.24,1279.78 1675.48,1281.52 1678.72,1283.21 1681.97,1284.85 1685.21,1286.44 1688.45,1287.98 1691.7,1289.47 1694.94,1290.92 1698.18,1292.3 1701.43,1293.64 1704.67,1294.93 1707.91,1296.17 1711.15,1297.35 1714.4,1298.49 1717.64,1299.57 1720.88,1300.6 1724.13,1301.58 1727.37,1302.51 1730.61,1303.39 1733.86,1304.21 1737.1,1304.98 1740.34,1305.7 1743.59,1306.37 1746.83,1306.99 1750.07,1307.55 1753.31,1308.06 1756.56,1308.52 1759.8,1308.93 1763.04,1309.28 1766.29,1309.58 1769.53,1309.83 1772.77,1310.03 1776.02,1310.17 1779.26,1310.27 1782.5,1310.3 1785.74,1310.29 1788.99,1310.22 1792.23,1310.11 1795.47,1309.93 1798.72,1309.71 1801.96,1309.43 1805.2,1309.1 1808.45,1308.72 1811.69,1308.29 1814.93,1307.8 1818.17,1307.26 1821.42,1306.67 1824.66,1306.03 1827.9,1305.33 1831.15,1304.59 1834.39,1303.79 1837.63,1302.94 1840.88,1302.03 1844.12,1301.08 1847.36,1300.07 1850.61,1299.01 1853.85,1297.9 1857.09,1296.74 1860.33,1295.53 1863.58,1294.27 1866.82,1292.95 1870.06,1291.59 1873.31,1290.17 1876.55,1288.7 1879.79,1287.19 1883.04,1285.62 1886.28,1284 1889.52,1282.33 1892.76,1280.62 1896.01,1278.85 1899.25,1277.03 1902.49,1275.17 1905.74,1273.25 1908.98,1271.29 1912.22,1269.28 1915.47,1267.22 1918.71,1265.11 1921.95,1262.95 1925.19,1260.75 1928.44,1258.49 1931.68,1256.19 1934.92,1253.85 1938.17,1251.45 1941.41,1249.01 1944.65,1246.52 1947.9,1243.99 1951.14,1241.41 1954.38,1238.79 1957.63,1236.11 1960.87,1233.4 1964.11,1230.64 1967.35,1227.83 1970.6,1224.98 1973.84,1222.09 1977.08,1219.15 1980.33,1216.17 1983.57,1213.15 1986.81,1210.08 1990.06,1206.97 1993.3,1203.82 1996.54,1200.63 1999.78,1197.39 2003.03,1194.11 2006.27,1190.8 2009.51,1187.44 2012.76,1184.04 2016,1180.6 2019.24,1177.12 2022.49,1173.6 2025.73,1170.05 2028.97,1166.45 2032.21,1162.82 2035.46,1159.15 2038.7,1155.44 2041.94,1151.69 2045.19,1147.91 2048.43,1144.09 2051.67,1140.24 2054.92,1136.35 2058.16,1132.42 2061.4,1128.46 2064.65,1124.47 2067.89,1120.44 2071.13,1116.38 2074.37,1112.28 2077.62,1108.15 2080.86,1103.99 2084.1,1099.8 2087.35,1095.58 2090.59,1091.32 2093.83,1087.03 2097.08,1082.72 2100.32,1078.37 2103.56,1074 2106.8,1069.59 2110.05,1065.16 2113.29,1060.7 2116.53,1056.21 2119.78,1051.69 2123.02,1047.15 2126.26,1042.58 2129.51,1037.99 2132.75,1033.37 2135.99,1028.72 2139.23,1024.05 2142.48,1019.36 2145.72,1014.64 2148.96,1009.9 2152.21,1005.14 2155.45,1000.36 2158.69,995.55 2161.94,990.723 2165.18,985.875 2168.42,981.007 2171.67,976.12 2174.91,971.213 2178.15,966.287 2181.39,961.344 2184.64,956.382 2187.88,951.404 2191.12,946.408 2194.37,941.397 2197.61,936.37 2200.85,931.327 2204.1,926.27 2207.34,921.199 2210.58,916.114 2213.82,911.016 2217.07,905.905 2220.31,900.782 2223.55,895.647 2226.8,890.502 2230.04,885.345 2233.28,880.179 2236.53,875.003 2239.77,869.818 2243.01,864.624 2246.25,859.422 2249.5,854.213 2252.74,848.997 2255.98,843.774 2259.23,838.546 2262.47,833.312 2265.71,828.073 2268.96,822.83 2272.2,817.583 2275.44,812.332 2278.69,807.079 2281.93,801.824 2285.17,796.566 2288.41,791.308 2291.66,786.049 "/>
<circle clip-path="url(#clip951)" cx="1072.28" cy="565.437" r="14.4" fill="#e26f46" fill-rule="evenodd" fill-opacity="1" stroke="#000000" stroke-opacity="1" stroke-width="3.2"/>
<circle clip-path="url(#clip951)" cx="666.899" cy="213.373" r="14.4" fill="#e26f46" fill-rule="evenodd" fill-opacity="1" stroke="#000000" stroke-opacity="1" stroke-width="3.2"/>
<circle clip-path="url(#clip951)" cx="1730.61" cy="1179.01" r="14.4" fill="#e26f46" fill-rule="evenodd" fill-opacity="1" stroke="#000000" stroke-opacity="1" stroke-width="3.2"/>
<circle clip-path="url(#clip951)" cx="2145.72" cy="1050.77" r="14.4" fill="#e26f46" fill-rule="evenodd" fill-opacity="1" stroke="#000000" stroke-opacity="1" stroke-width="3.2"/>
<circle clip-path="url(#clip951)" cx="718.788" cy="300.077" r="14.4" fill="#e26f46" fill-rule="evenodd" fill-opacity="1" stroke="#000000" stroke-opacity="1" stroke-width="3.2"/>
<circle clip-path="url(#clip951)" cx="430.158" cy="534.386" r="14.4" fill="#e26f46" fill-rule="evenodd" fill-opacity="1" stroke="#000000" stroke-opacity="1" stroke-width="3.2"/>
<circle clip-path="url(#clip951)" cx="358.812" cy="536.464" r="14.4" fill="#e26f46" fill-rule="evenodd" fill-opacity="1" stroke="#000000" stroke-opacity="1" stroke-width="3.2"/>
<circle clip-path="url(#clip951)" cx="786.892" cy="130.288" r="14.4" fill="#e26f46" fill-rule="evenodd" fill-opacity="1" stroke="#000000" stroke-opacity="1" stroke-width="3.2"/>
<circle clip-path="url(#clip951)" cx="1416.04" cy="969.607" r="14.4" fill="#e26f46" fill-rule="evenodd" fill-opacity="1" stroke="#000000" stroke-opacity="1" stroke-width="3.2"/>
<circle clip-path="url(#clip951)" cx="1675.48" cy="1357.43" r="14.4" fill="#e26f46" fill-rule="evenodd" fill-opacity="1" stroke="#000000" stroke-opacity="1" stroke-width="3.2"/>
<circle clip-path="url(#clip951)" cx="2285.17" cy="792.184" r="14.4" fill="#e26f46" fill-rule="evenodd" fill-opacity="1" stroke="#000000" stroke-opacity="1" stroke-width="3.2"/>
<circle clip-path="url(#clip951)" cx="413.943" cy="609.907" r="14.4" fill="#e26f46" fill-rule="evenodd" fill-opacity="1" stroke="#000000" stroke-opacity="1" stroke-width="3.2"/>
<circle clip-path="url(#clip951)" cx="660.413" cy="280.251" r="14.4" fill="#e26f46" fill-rule="evenodd" fill-opacity="1" stroke="#000000" stroke-opacity="1" stroke-width="3.2"/>
<circle clip-path="url(#clip951)" cx="306.923" cy="746.276" r="14.4" fill="#e26f46" fill-rule="evenodd" fill-opacity="1" stroke="#000000" stroke-opacity="1" stroke-width="3.2"/>
<circle clip-path="url(#clip951)" cx="1020.39" cy="519.154" r="14.4" fill="#e26f46" fill-rule="evenodd" fill-opacity="1" stroke="#000000" stroke-opacity="1" stroke-width="3.2"/>
<circle clip-path="url(#clip951)" cx="1597.65" cy="1239.8" r="14.4" fill="#e26f46" fill-rule="evenodd" fill-opacity="1" stroke="#000000" stroke-opacity="1" stroke-width="3.2"/>
<circle clip-path="url(#clip951)" cx="978.23" cy="474.423" r="14.4" fill="#e26f46" fill-rule="evenodd" fill-opacity="1" stroke="#000000" stroke-opacity="1" stroke-width="3.2"/>
<circle clip-path="url(#clip951)" cx="426.915" cy="641.7" r="14.4" fill="#e26f46" fill-rule="evenodd" fill-opacity="1" stroke="#000000" stroke-opacity="1" stroke-width="3.2"/>
<circle clip-path="url(#clip951)" cx="2275.44" cy="804.179" r="14.4" fill="#e26f46" fill-rule="evenodd" fill-opacity="1" stroke="#000000" stroke-opacity="1" stroke-width="3.2"/>
<circle clip-path="url(#clip951)" cx="1425.77" cy="1044.01" r="14.4" fill="#e26f46" fill-rule="evenodd" fill-opacity="1" stroke="#000000" stroke-opacity="1" stroke-width="3.2"/>
<path clip-path="url(#clip951)" d="M255.035 968.613 L258.278 962.925 L261.521 957.203 L264.764 951.451 L268.007 945.672 L271.25 939.871 L274.493 934.051 L277.736 928.219 L280.979 922.378 L284.222 916.535 L287.465 910.694 L290.708 904.863 L293.951 899.047 L297.194 893.254 L300.437 887.49 L303.68 881.762 L306.923 876.078 L310.166 870.445 L313.409 864.864 L316.652 859.337 L319.895 853.865 L323.138 848.45 L326.381 843.094 L329.624 837.8 L332.867 832.57 L336.11 827.408 L339.353 822.319 L342.596 817.305 L345.84 812.374 L349.083 807.531 L352.326 802.782 L355.569 798.134 L358.812 793.596 L362.055 789.174 L365.298 784.864 L368.541 780.664 L371.784 776.569 L375.027 772.579 L378.27 768.69 L381.513 764.902 L384.756 761.215 L387.999 757.63 L391.242 754.149 L394.485 750.774 L397.728 747.509 L400.971 744.357 L404.214 741.322 L407.457 738.411 L410.7 735.628 L413.943 732.978 L417.186 730.466 L420.429 728.092 L423.672 725.854 L426.915 723.749 L430.158 721.776 L433.401 719.927 L436.644 718.186 L439.887 716.537 L443.13 714.963 L446.373 713.448 L449.616 711.977 L452.859 710.536 L456.103 709.109 L459.346 707.684 L462.589 706.249 L465.832 704.792 L469.075 703.302 L472.318 701.769 L475.561 700.185 L478.804 698.541 L482.047 696.829 L485.29 695.044 L488.533 693.177 L491.776 691.225 L495.019 689.181 L498.262 687.042 L501.505 684.803 L504.748 682.462 L507.991 680.015 L511.234 677.46 L514.477 674.795 L517.72 672.018 L520.963 669.128 L524.206 666.124 L527.449 663.006 L530.692 659.772 L533.935 656.425 L537.178 652.963 L540.421 649.387 L543.664 645.699 L546.907 641.901 L550.15 637.993 L553.393 633.978 L556.636 629.857 L559.879 625.635 L563.122 621.313 L566.366 616.894 L569.609 612.384 L572.852 607.784 L576.095 603.1 L579.338 598.336 L582.581 593.497 L585.824 588.588 L589.067 583.616 L592.31 578.586 L595.553 573.505 L598.796 568.38 L602.039 563.219 L605.282 558.03 L608.525 552.821 L611.768 547.602 L615.011 542.382 L618.254 537.172 L621.497 531.982 L624.74 526.825 L627.983 521.712 L631.226 516.656 L634.469 511.672 L637.712 506.772 L640.955 501.973 L644.198 497.289 L647.441 492.736 L650.684 488.332 L653.927 484.093 L657.17 480.036 L660.413 476.179 L663.656 472.539 L666.899 469.124 L670.142 465.939 L673.385 462.98 L676.629 460.242 L679.872 457.718 L683.115 455.403 L686.358 453.291 L689.601 451.376 L692.844 449.655 L696.087 448.121 L699.33 446.773 L702.573 445.606 L705.816 444.617 L709.059 443.805 L712.302 443.167 L715.545 442.703 L718.788 442.412 L722.031 442.292 L725.274 442.337 L728.517 442.541 L731.76 442.898 L735.003 443.402 L738.246 444.048 L741.489 444.832 L744.732 445.75 L747.975 446.801 L751.218 447.981 L754.461 449.29 L757.704 450.727 L760.947 452.292 L764.19 453.986 L767.433 455.811 L770.676 457.768 L773.919 459.86 L777.162 462.09 L780.405 464.463 L783.648 466.981 L786.892 469.649 L790.135 472.468 L793.378 475.43 L796.621 478.521 L799.864 481.729 L803.107 485.043 L806.35 488.451 L809.593 491.941 L812.836 495.504 L816.079 499.13 L819.322 502.807 L822.565 506.528 L825.808 510.283 L829.051 514.064 L832.294 517.863 L835.537 521.673 L838.78 525.485 L842.023 529.294 L845.266 533.094 L848.509 536.877 L851.752 540.64 L854.995 544.376 L858.238 548.081 L861.481 551.75 L864.724 555.38 L867.967 558.966 L871.21 562.506 L874.453 565.996 L877.696 569.435 L880.939 572.818 L884.182 576.146 L887.425 579.416 L890.668 582.627 L893.911 585.778 L897.155 588.868 L900.398 591.898 L903.641 594.868 L906.884 597.779 L910.127 600.631 L913.37 603.426 L916.613 606.166 L919.856 608.854 L923.099 611.491 L926.342 614.082 L929.585 616.63 L932.828 619.139 L936.071 621.614 L939.314 624.059 L942.557 626.482 L945.8 628.888 L949.043 631.284 L952.286 633.677 L955.529 636.075 L958.772 638.488 L962.015 640.923 L965.258 643.391 L968.501 645.902 L971.744 648.467 L974.987 651.096 L978.23 653.801 L981.473 656.592 L984.716 659.473 L987.959 662.448 L991.202 665.518 L994.445 668.689 L997.688 671.962 L1000.93 675.343 L1004.17 678.836 L1007.42 682.445 L1010.66 686.175 L1013.9 690.032 L1017.15 694.02 L1020.39 698.145 L1023.63 702.412 L1026.88 706.816 L1030.12 711.356 L1033.36 716.027 L1036.6 720.825 L1039.85 725.748 L1043.09 730.793 L1046.33 735.957 L1049.58 741.237 L1052.82 746.632 L1056.06 752.139 L1059.31 757.758 L1062.55 763.488 L1065.79 769.327 L1069.04 775.276 L1072.28 781.333 L1075.52 787.497 L1078.76 793.758 L1082.01 800.105 L1085.25 806.528 L1088.49 813.016 L1091.74 819.558 L1094.98 826.145 L1098.22 832.768 L1101.47 839.418 L1104.71 846.086 L1107.95 852.764 L1111.19 859.445 L1114.44 866.121 L1117.68 872.786 L1120.92 879.433 L1124.17 886.056 L1127.41 892.65 L1130.65 899.21 L1133.9 905.73 L1137.14 912.206 L1140.38 918.633 L1143.62 925.009 L1146.87 931.328 L1150.11 937.587 L1153.35 943.784 L1156.6 949.915 L1159.84 955.977 L1163.08 961.969 L1166.33 967.886 L1169.57 973.728 L1172.81 979.492 L1176.06 985.177 L1179.3 990.78 L1182.54 996.3 L1185.78 1001.74 L1189.03 1007.08 L1192.27 1012.35 L1195.51 1017.52 L1198.76 1022.61 L1202 1027.6 L1205.24 1032.51 L1208.49 1037.32 L1211.73 1042.04 L1214.97 1046.67 L1218.21 1051.21 L1221.46 1055.65 L1224.7 1060 L1227.94 1064.26 L1231.19 1068.42 L1234.43 1072.49 L1237.67 1076.46 L1240.92 1080.34 L1244.16 1084.13 L1247.4 1087.83 L1250.64 1091.43 L1253.89 1094.94 L1257.13 1098.35 L1260.37 1101.68 L1263.62 1104.91 L1266.86 1108.06 L1270.1 1111.11 L1273.35 1114.08 L1276.59 1116.96 L1279.83 1119.75 L1283.08 1122.46 L1286.32 1125.08 L1289.56 1127.63 L1292.8 1130.09 L1296.05 1132.47 L1299.29 1134.77 L1302.53 1137 L1305.78 1139.16 L1309.02 1141.24 L1312.26 1143.26 L1315.51 1145.21 L1318.75 1147.1 L1321.99 1148.92 L1325.23 1150.69 L1328.48 1152.4 L1331.72 1154.07 L1334.96 1155.69 L1338.21 1157.26 L1341.45 1158.8 L1344.69 1160.31 L1347.94 1161.79 L1351.18 1163.24 L1354.42 1164.68 L1357.66 1166.11 L1360.91 1167.53 L1364.15 1168.96 L1367.39 1170.4 L1370.64 1171.86 L1373.88 1173.35 L1377.12 1174.87 L1380.37 1176.43 L1383.61 1178.05 L1386.85 1179.74 L1390.1 1181.49 L1393.34 1183.34 L1396.58 1185.28 L1399.82 1187.33 L1403.07 1189.49 L1406.31 1191.79 L1409.55 1194.23 L1412.8 1196.82 L1416.04 1199.57 L1419.28 1202.5 L1422.53 1205.6 L1425.77 1208.87 L1429.01 1212.31 L1432.25 1215.9 L1435.5 1219.63 L1438.74 1223.48 L1441.98 1227.46 L1445.23 1231.53 L1448.47 1235.69 L1451.71 1239.93 L1454.96 1244.23 L1458.2 1248.58 L1461.44 1252.96 L1464.68 1257.37 L1467.93 1261.8 L1471.17 1266.22 L1474.41 1270.64 L1477.66 1275.04 L1480.9 1279.42 L1484.14 1283.76 L1487.39 1288.06 L1490.63 1292.31 L1493.87 1296.5 L1497.11 1300.63 L1500.36 1304.69 L1503.6 1308.67 L1506.84 1312.57 L1510.09 1316.39 L1513.33 1320.13 L1516.57 1323.77 L1519.82 1327.32 L1523.06 1330.77 L1526.3 1334.12 L1529.55 1337.37 L1532.79 1340.52 L1536.03 1343.56 L1539.27 1346.51 L1542.52 1349.35 L1545.76 1352.08 L1549 1354.71 L1552.25 1357.25 L1555.49 1359.68 L1558.73 1362.01 L1561.98 1364.25 L1565.22 1366.39 L1568.46 1368.44 L1571.7 1370.41 L1574.95 1372.29 L1578.19 1374.09 L1581.43 1375.81 L1584.68 1377.47 L1587.92 1379.05 L1591.16 1380.58 L1594.41 1382.05 L1597.65 1383.47 L1600.89 1384.84 L1604.13 1386.16 L1607.38 1387.44 L1610.62 1388.66 L1613.86 1389.83 L1617.11 1390.95 L1620.35 1392.02 L1623.59 1393.02 L1626.84 1393.97 L1630.08 1394.87 L1633.32 1395.71 L1636.57 1396.5 L1639.81 1397.24 L1643.05 1397.92 L1646.29 1398.56 L1649.54 1399.15 L1652.78 1399.7 L1656.02 1400.22 L1659.27 1400.7 L1662.51 1401.15 L1665.75 1401.58 L1669 1401.99 L1672.24 1402.38 L1675.48 1402.77 L1678.72 1403.16 L1681.97 1403.55 L1685.21 1403.94 L1688.45 1404.34 L1691.7 1404.76 L1694.94 1405.18 L1698.18 1405.63 L1701.43 1406.1 L1704.67 1406.6 L1707.91 1407.13 L1711.15 1407.69 L1714.4 1408.29 L1717.64 1408.94 L1720.88 1409.64 L1724.13 1410.39 L1727.37 1411.2 L1730.61 1412.08 L1733.86 1413.02 L1737.1 1414.02 L1740.34 1415.08 L1743.59 1416.19 L1746.83 1417.33 L1750.07 1418.51 L1753.31 1419.72 L1756.56 1420.94 L1759.8 1422.18 L1763.04 1423.42 L1766.29 1424.67 L1769.53 1425.91 L1772.77 1427.15 L1776.02 1428.37 L1779.26 1429.58 L1782.5 1430.76 L1785.74 1431.92 L1788.99 1433.04 L1792.23 1434.14 L1795.47 1435.2 L1798.72 1436.22 L1801.96 1437.2 L1805.2 1438.13 L1808.45 1439.02 L1811.69 1439.86 L1814.93 1440.65 L1818.17 1441.39 L1821.42 1442.08 L1824.66 1442.71 L1827.9 1443.28 L1831.15 1443.8 L1834.39 1444.25 L1837.63 1444.65 L1840.88 1444.98 L1844.12 1445.26 L1847.36 1445.47 L1850.61 1445.61 L1853.85 1445.7 L1857.09 1445.72 L1860.33 1445.67 L1863.58 1445.56 L1866.82 1445.38 L1870.06 1445.13 L1873.31 1444.82 L1876.55 1444.44 L1879.79 1444 L1883.04 1443.48 L1886.28 1442.9 L1889.52 1442.25 L1892.76 1441.53 L1896.01 1440.75 L1899.25 1439.89 L1902.49 1438.97 L1905.74 1437.98 L1908.98 1436.91 L1912.22 1435.78 L1915.47 1434.58 L1918.71 1433.32 L1921.95 1431.98 L1925.19 1430.57 L1928.44 1429.09 L1931.68 1427.55 L1934.92 1425.93 L1938.17 1424.24 L1941.41 1422.49 L1944.65 1420.66 L1947.9 1418.77 L1951.14 1416.8 L1954.38 1414.77 L1957.63 1412.67 L1960.87 1410.49 L1964.11 1408.25 L1967.35 1405.94 L1970.6 1403.55 L1973.84 1401.1 L1977.08 1398.58 L1980.33 1395.99 L1983.57 1393.33 L1986.81 1390.6 L1990.06 1387.8 L1993.3 1384.93 L1996.54 1381.99 L1999.78 1378.99 L2003.03 1375.91 L2006.27 1372.77 L2009.51 1369.56 L2012.76 1366.28 L2016 1362.93 L2019.24 1359.52 L2022.49 1356.04 L2025.73 1352.49 L2028.97 1348.88 L2032.21 1345.2 L2035.46 1341.46 L2038.7 1337.66 L2041.94 1333.79 L2045.19 1329.87 L2048.43 1325.88 L2051.67 1321.83 L2054.92 1317.72 L2058.16 1313.56 L2061.4 1309.34 L2064.65 1305.06 L2067.89 1300.74 L2071.13 1296.36 L2074.37 1291.93 L2077.62 1287.46 L2080.86 1282.94 L2084.1 1278.38 L2087.35 1273.78 L2090.59 1269.14 L2093.83 1264.47 L2097.08 1259.77 L2100.32 1255.04 L2103.56 1250.29 L2106.8 1245.51 L2110.05 1240.72 L2113.29 1235.92 L2116.53 1231.1 L2119.78 1226.29 L2123.02 1221.47 L2126.26 1216.66 L2129.51 1211.86 L2132.75 1207.08 L2135.99 1202.31 L2139.23 1197.57 L2142.48 1192.87 L2145.72 1188.2 L2148.96 1183.56 L2152.21 1178.97 L2155.45 1174.42 L2158.69 1169.89 L2161.94 1165.4 L2165.18 1160.94 L2168.42 1156.51 L2171.67 1152.1 L2174.91 1147.72 L2178.15 1143.36 L2181.39 1139.02 L2184.64 1134.7 L2187.88 1130.41 L2191.12 1126.14 L2194.37 1121.88 L2197.61 1117.66 L2200.85 1113.46 L2204.1 1109.29 L2207.34 1105.15 L2210.58 1101.05 L2213.82 1096.99 L2217.07 1092.98 L2220.31 1089.02 L2223.55 1085.13 L2226.8 1081.3 L2230.04 1077.55 L2233.28 1073.89 L2236.53 1070.32 L2239.77 1066.86 L2243.01 1063.53 L2246.25 1060.32 L2249.5 1057.26 L2252.74 1054.36 L2255.98 1051.64 L2259.23 1049.1 L2262.47 1046.76 L2265.71 1044.64 L2268.96 1042.75 L2272.2 1041.11 L2275.44 1039.73 L2278.69 1038.62 L2281.93 1037.78 L2285.17 1037.23 L2288.41 1036.94 L2291.66 1036.92 L2291.66 626.624 L2288.41 630.795 L2285.17 634.822 L2281.93 638.694 L2278.69 642.409 L2275.44 645.966 L2272.2 649.365 L2268.96 652.614 L2265.71 655.721 L2262.47 658.696 L2259.23 661.548 L2255.98 664.286 L2252.74 666.921 L2249.5 669.46 L2246.25 671.913 L2243.01 674.288 L2239.77 676.594 L2236.53 678.837 L2233.28 681.023 L2230.04 683.16 L2226.8 685.252 L2223.55 687.304 L2220.31 689.318 L2217.07 691.299 L2213.82 693.248 L2210.58 695.166 L2207.34 697.055 L2204.1 698.913 L2200.85 700.74 L2197.61 702.534 L2194.37 704.293 L2191.12 706.014 L2187.88 707.693 L2184.64 709.326 L2181.39 710.908 L2178.15 712.433 L2174.91 713.897 L2171.67 715.291 L2168.42 716.611 L2165.18 717.848 L2161.94 718.995 L2158.69 720.044 L2155.45 720.988 L2152.21 721.818 L2148.96 722.527 L2145.72 723.105 L2142.48 723.548 L2139.23 723.861 L2135.99 724.053 L2132.75 724.134 L2129.51 724.111 L2126.26 723.993 L2123.02 723.788 L2119.78 723.505 L2116.53 723.152 L2113.29 722.736 L2110.05 722.265 L2106.8 721.746 L2103.56 721.186 L2100.32 720.591 L2097.08 719.968 L2093.83 719.324 L2090.59 718.663 L2087.35 717.992 L2084.1 717.316 L2080.86 716.641 L2077.62 715.97 L2074.37 715.309 L2071.13 714.662 L2067.89 714.034 L2064.65 713.428 L2061.4 712.849 L2058.16 712.299 L2054.92 711.783 L2051.67 711.303 L2048.43 710.863 L2045.19 710.466 L2041.94 710.114 L2038.7 709.811 L2035.46 709.558 L2032.21 709.358 L2028.97 709.214 L2025.73 709.127 L2022.49 709.1 L2019.24 709.134 L2016 709.232 L2012.76 709.394 L2009.51 709.624 L2006.27 709.921 L2003.03 710.288 L1999.78 710.727 L1996.54 711.237 L1993.3 711.822 L1990.06 712.481 L1986.81 713.215 L1983.57 714.027 L1980.33 714.917 L1977.08 715.885 L1973.84 716.932 L1970.6 718.06 L1967.35 719.269 L1964.11 720.559 L1960.87 721.932 L1957.63 723.387 L1954.38 724.926 L1951.14 726.549 L1947.9 728.255 L1944.65 730.046 L1941.41 731.922 L1938.17 733.883 L1934.92 735.929 L1931.68 738.06 L1928.44 740.277 L1925.19 742.579 L1921.95 744.967 L1918.71 747.44 L1915.47 749.999 L1912.22 752.643 L1908.98 755.371 L1905.74 758.185 L1902.49 761.083 L1899.25 764.065 L1896.01 767.131 L1892.76 770.28 L1889.52 773.511 L1886.28 776.824 L1883.04 780.219 L1879.79 783.694 L1876.55 787.248 L1873.31 790.882 L1870.06 794.593 L1866.82 798.381 L1863.58 802.244 L1860.33 806.181 L1857.09 810.191 L1853.85 814.272 L1850.61 818.424 L1847.36 822.643 L1844.12 826.928 L1840.88 831.278 L1837.63 835.69 L1834.39 840.161 L1831.15 844.691 L1827.9 849.275 L1824.66 853.912 L1821.42 858.598 L1818.17 863.33 L1814.93 868.106 L1811.69 872.921 L1808.45 877.772 L1805.2 882.656 L1801.96 887.566 L1798.72 892.501 L1795.47 897.454 L1792.23 902.42 L1788.99 907.395 L1785.74 912.373 L1782.5 917.347 L1779.26 922.313 L1776.02 927.261 L1772.77 932.187 L1769.53 937.083 L1766.29 941.94 L1763.04 946.75 L1759.8 951.506 L1756.56 956.198 L1753.31 960.816 L1750.07 965.351 L1746.83 969.793 L1743.59 974.131 L1740.34 978.354 L1737.1 982.452 L1733.86 986.412 L1730.61 990.224 L1727.37 993.876 L1724.13 997.367 L1720.88 1000.69 L1717.64 1003.85 L1714.4 1006.84 L1711.15 1009.66 L1707.91 1012.3 L1704.67 1014.77 L1701.43 1017.06 L1698.18 1019.16 L1694.94 1021.07 L1691.7 1022.79 L1688.45 1024.3 L1685.21 1025.62 L1681.97 1026.73 L1678.72 1027.62 L1675.48 1028.29 L1672.24 1028.74 L1669 1028.97 L1665.75 1029 L1662.51 1028.83 L1659.27 1028.47 L1656.02 1027.93 L1652.78 1027.23 L1649.54 1026.37 L1646.29 1025.35 L1643.05 1024.19 L1639.81 1022.88 L1636.57 1021.45 L1633.32 1019.88 L1630.08 1018.19 L1626.84 1016.37 L1623.59 1014.43 L1620.35 1012.38 L1617.11 1010.21 L1613.86 1007.93 L1610.62 1005.54 L1607.38 1003.03 L1604.13 1000.4 L1600.89 997.662 L1597.65 994.808 L1594.41 991.839 L1591.16 988.763 L1587.92 985.593 L1584.68 982.339 L1581.43 979.01 L1578.19 975.618 L1574.95 972.171 L1571.7 968.679 L1568.46 965.15 L1565.22 961.592 L1561.98 958.013 L1558.73 954.42 L1555.49 950.82 L1552.25 947.219 L1549 943.623 L1545.76 940.036 L1542.52 936.464 L1539.27 932.91 L1536.03 929.379 L1532.79 925.873 L1529.55 922.395 L1526.3 918.948 L1523.06 915.532 L1519.82 912.149 L1516.57 908.8 L1513.33 905.485 L1510.09 902.204 L1506.84 898.954 L1503.6 895.736 L1500.36 892.546 L1497.11 889.382 L1493.87 886.241 L1490.63 883.12 L1487.39 880.012 L1484.14 876.915 L1480.9 873.821 L1477.66 870.725 L1474.41 867.62 L1471.17 864.498 L1467.93 861.351 L1464.68 858.17 L1461.44 854.946 L1458.2 851.668 L1454.96 848.327 L1451.71 844.911 L1448.47 841.408 L1445.23 837.807 L1441.98 834.095 L1438.74 830.26 L1435.5 826.289 L1432.25 822.171 L1429.01 817.891 L1425.77 813.439 L1422.53 808.805 L1419.28 803.986 L1416.04 798.985 L1412.8 793.805 L1409.55 788.456 L1406.31 782.949 L1403.07 777.297 L1399.82 771.511 L1396.58 765.603 L1393.34 759.586 L1390.1 753.472 L1386.85 747.271 L1383.61 740.995 L1380.37 734.654 L1377.12 728.26 L1373.88 721.822 L1370.64 715.35 L1367.39 708.852 L1364.15 702.338 L1360.91 695.815 L1357.66 689.291 L1354.42 682.773 L1351.18 676.269 L1347.94 669.784 L1344.69 663.324 L1341.45 656.895 L1338.21 650.503 L1334.96 644.152 L1331.72 637.846 L1328.48 631.591 L1325.23 625.389 L1321.99 619.246 L1318.75 613.163 L1315.51 607.144 L1312.26 601.193 L1309.02 595.311 L1305.78 589.502 L1302.53 583.768 L1299.29 578.111 L1296.05 572.533 L1292.8 567.035 L1289.56 561.62 L1286.32 556.289 L1283.08 551.043 L1279.83 545.884 L1276.59 540.813 L1273.35 535.831 L1270.1 530.938 L1266.86 526.136 L1263.62 521.425 L1260.37 516.807 L1257.13 512.281 L1253.89 507.848 L1250.64 503.508 L1247.4 499.262 L1244.16 495.11 L1240.92 491.052 L1237.67 487.088 L1234.43 483.219 L1231.19 479.443 L1227.94 475.762 L1224.7 472.174 L1221.46 468.68 L1218.21 465.279 L1214.97 461.97 L1211.73 458.754 L1208.49 455.629 L1205.24 452.595 L1202 449.651 L1198.76 446.797 L1195.51 444.031 L1192.27 441.353 L1189.03 438.761 L1185.78 436.254 L1182.54 433.83 L1179.3 431.49 L1176.06 429.23 L1172.81 427.049 L1169.57 424.946 L1166.33 422.918 L1163.08 420.964 L1159.84 419.081 L1156.6 417.267 L1153.35 415.519 L1150.11 413.835 L1146.87 412.211 L1143.62 410.645 L1140.38 409.133 L1137.14 407.671 L1133.9 406.256 L1130.65 404.883 L1127.41 403.549 L1124.17 402.247 L1120.92 400.974 L1117.68 399.724 L1114.44 398.491 L1111.19 397.269 L1107.95 396.052 L1104.71 394.832 L1101.47 393.603 L1098.22 392.358 L1094.98 391.087 L1091.74 389.783 L1088.49 388.436 L1085.25 387.038 L1082.01 385.579 L1078.76 384.049 L1075.52 382.438 L1072.28 380.735 L1069.04 378.931 L1065.79 377.025 L1062.55 375.014 L1059.31 372.898 L1056.06 370.674 L1052.82 368.342 L1049.58 365.898 L1046.33 363.342 L1043.09 360.669 L1039.85 357.878 L1036.6 354.965 L1033.36 351.927 L1030.12 348.761 L1026.88 345.461 L1023.63 342.025 L1020.39 338.449 L1017.15 334.729 L1013.9 330.871 L1010.66 326.878 L1007.42 322.757 L1004.17 318.513 L1000.93 314.151 L997.688 309.674 L994.445 305.089 L991.202 300.399 L987.959 295.609 L984.716 290.722 L981.473 285.741 L978.23 280.67 L974.987 275.515 L971.744 270.285 L968.501 264.995 L965.258 259.656 L962.015 254.281 L958.772 248.881 L955.529 243.468 L952.286 238.053 L949.043 232.646 L945.8 227.257 L942.557 221.895 L939.314 216.569 L936.071 211.288 L932.828 206.059 L929.585 200.89 L926.342 195.788 L923.099 190.76 L919.856 185.811 L916.613 180.948 L913.37 176.176 L910.127 171.499 L906.884 166.924 L903.641 162.454 L900.398 158.094 L897.155 153.847 L893.911 149.716 L890.668 145.706 L887.425 141.819 L884.182 138.058 L880.939 134.426 L877.696 130.924 L874.453 127.556 L871.21 124.322 L867.967 121.224 L864.724 118.264 L861.481 115.443 L858.238 112.762 L854.995 110.221 L851.752 107.822 L848.509 105.564 L845.266 103.448 L842.023 101.473 L838.78 99.6389 L835.537 97.9453 L832.294 96.3912 L829.051 94.9754 L825.808 93.6968 L822.565 92.5536 L819.322 91.544 L816.079 90.6659 L812.836 89.9171 L809.593 89.2948 L806.35 88.7963 L803.107 88.4186 L799.864 88.1583 L796.621 88.0121 L793.378 87.9763 L790.135 88.0472 L786.892 88.2209 L783.648 88.494 L780.405 88.8644 L777.162 89.3304 L773.919 89.89 L770.676 90.5414 L767.433 91.2821 L764.19 92.1097 L760.947 93.0214 L757.704 94.0137 L754.461 95.0832 L751.218 96.2256 L747.975 97.4364 L744.732 98.7105 L741.489 100.042 L738.246 101.425 L735.003 102.854 L731.76 104.319 L728.517 105.815 L725.274 107.333 L722.031 108.863 L718.788 110.398 L715.545 111.93 L712.302 113.458 L709.059 114.981 L705.816 116.499 L702.573 118.013 L699.33 119.521 L696.087 121.021 L692.844 122.513 L689.601 123.995 L686.358 125.464 L683.115 126.918 L679.872 128.354 L676.629 129.77 L673.385 131.162 L670.142 132.528 L666.899 133.864 L663.656 135.17 L660.413 136.446 L657.17 137.696 L653.927 138.929 L650.684 140.155 L647.441 141.384 L644.198 142.625 L640.955 143.889 L637.712 145.184 L634.469 146.521 L631.226 147.906 L627.983 149.348 L624.74 150.855 L621.497 152.434 L618.254 154.09 L615.011 155.831 L611.768 157.66 L608.525 159.585 L605.282 161.608 L602.039 163.734 L598.796 165.966 L595.553 168.308 L592.31 170.763 L589.067 173.334 L585.824 176.021 L582.581 178.828 L579.338 181.755 L576.095 184.804 L572.852 187.976 L569.609 191.27 L566.366 194.689 L563.122 198.231 L559.879 201.897 L556.636 205.686 L553.393 209.597 L550.15 213.631 L546.907 217.784 L543.664 222.057 L540.421 226.448 L537.178 230.954 L533.935 235.574 L530.692 240.306 L527.449 245.146 L524.206 250.092 L520.963 255.142 L517.72 260.291 L514.477 265.536 L511.234 270.873 L507.991 276.297 L504.748 281.804 L501.505 287.389 L498.262 293.046 L495.019 298.77 L491.776 304.553 L488.533 310.39 L485.29 316.272 L482.047 322.191 L478.804 328.14 L475.561 334.108 L472.318 340.086 L469.075 346.064 L465.832 352.029 L462.589 357.97 L459.346 363.874 L456.103 369.726 L452.859 375.513 L449.616 381.218 L446.373 386.826 L443.13 392.319 L439.887 397.679 L436.644 402.89 L433.401 407.93 L430.158 412.783 L426.915 417.429 L423.672 421.857 L420.429 426.065 L417.186 430.052 L413.943 433.819 L410.7 437.367 L407.457 440.705 L404.214 443.841 L400.971 446.787 L397.728 449.551 L394.485 452.141 L391.242 454.567 L387.999 456.836 L384.756 458.954 L381.513 460.928 L378.27 462.762 L375.027 464.462 L371.784 466.031 L368.541 467.472 L365.298 468.785 L362.055 469.973 L358.812 471.037 L355.569 471.976 L352.326 472.792 L349.083 473.489 L345.84 474.068 L342.596 474.529 L339.353 474.874 L336.11 475.102 L332.867 475.212 L329.624 475.204 L326.381 475.074 L323.138 474.821 L319.895 474.441 L316.652 473.932 L313.409 473.289 L310.166 472.508 L306.923 471.584 L303.68 470.517 L300.437 469.312 L297.194 467.979 L293.951 466.527 L290.708 464.965 L287.465 463.301 L284.222 461.544 L280.979 459.701 L277.736 457.779 L274.493 455.786 L271.25 453.729 L268.007 451.613 L264.764 449.444 L261.521 447.228 L258.278 444.971 L255.035 442.678  Z" fill="#3da44d" fill-rule="evenodd" fill-opacity="0.1"/>
<polyline clip-path="url(#clip951)" style="stroke:#3da44d; stroke-linecap:round; stroke-linejoin:round; stroke-width:8; stroke-opacity:1; fill:none" points="255.035,705.645 258.278,703.948 261.521,702.216 264.764,700.447 268.007,698.642 271.25,696.8 274.493,694.919 277.736,692.999 280.979,691.04 284.222,689.039 287.465,686.998 290.708,684.914 293.951,682.787 297.194,680.616 300.437,678.401 303.68,676.139 306.923,673.831 310.166,671.476 313.409,669.076 316.652,666.634 319.895,664.153 323.138,661.636 326.381,659.084 329.624,656.502 332.867,653.891 336.11,651.255 339.353,648.596 342.596,645.917 345.84,643.221 349.083,640.51 352.326,637.787 355.569,635.055 358.812,632.316 362.055,629.573 365.298,626.825 368.541,624.068 371.784,621.3 375.027,618.52 378.27,615.726 381.513,612.915 384.756,610.084 387.999,607.233 391.242,604.358 394.485,601.458 397.728,598.53 400.971,595.572 404.214,592.582 407.457,589.558 410.7,586.497 413.943,583.399 417.186,580.259 420.429,577.078 423.672,573.855 426.915,570.589 430.158,567.28 433.401,563.929 436.644,560.538 439.887,557.108 443.13,553.641 446.373,550.137 449.616,546.598 452.859,543.024 456.103,539.418 459.346,535.779 462.589,532.11 465.832,528.41 469.075,524.683 472.318,520.928 475.561,517.147 478.804,513.34 482.047,509.51 485.29,505.658 488.533,501.783 491.776,497.889 495.019,493.975 498.262,490.044 501.505,486.096 504.748,482.133 507.991,478.156 511.234,474.167 514.477,470.166 517.72,466.155 520.963,462.135 524.206,458.108 527.449,454.076 530.692,450.039 533.935,445.999 537.178,441.958 540.421,437.917 543.664,433.878 546.907,429.842 550.15,425.812 553.393,421.787 556.636,417.772 559.879,413.766 563.122,409.772 566.366,405.792 569.609,401.827 572.852,397.88 576.095,393.952 579.338,390.045 582.581,386.162 585.824,382.305 589.067,378.475 592.31,374.675 595.553,370.907 598.796,367.173 602.039,363.476 605.282,359.819 608.525,356.203 611.768,352.631 615.011,349.106 618.254,345.631 621.497,342.208 624.74,338.84 627.983,335.53 631.226,332.281 634.469,329.096 637.712,325.978 640.955,322.931 644.198,319.957 647.441,317.06 650.684,314.243 653.927,311.511 657.17,308.866 660.413,306.313 663.656,303.854 666.899,301.494 670.142,299.233 673.385,297.071 676.629,295.006 679.872,293.036 683.115,291.161 686.358,289.377 689.601,287.686 692.844,286.084 696.087,284.571 699.33,283.147 702.573,281.809 705.816,280.558 709.059,279.393 712.302,278.312 715.545,277.317 718.788,276.405 722.031,275.577 725.274,274.835 728.517,274.178 731.76,273.609 735.003,273.128 738.246,272.737 741.489,272.437 744.732,272.23 747.975,272.119 751.218,272.103 754.461,272.187 757.704,272.37 760.947,272.657 764.19,273.048 767.433,273.546 770.676,274.155 773.919,274.875 777.162,275.71 780.405,276.664 783.648,277.737 786.892,278.935 790.135,280.258 793.378,281.703 796.621,283.267 799.864,284.944 803.107,286.731 806.35,288.623 809.593,290.618 812.836,292.711 816.079,294.898 819.322,297.176 822.565,299.541 825.808,301.99 829.051,304.52 832.294,307.127 835.537,309.809 838.78,312.562 842.023,315.384 845.266,318.271 848.509,321.221 851.752,324.231 854.995,327.299 858.238,330.421 861.481,333.596 864.724,336.822 867.967,340.095 871.21,343.414 874.453,346.776 877.696,350.18 880.939,353.622 884.182,357.102 887.425,360.618 890.668,364.166 893.911,367.747 897.155,371.357 900.398,374.996 903.641,378.661 906.884,382.352 910.127,386.065 913.37,389.801 916.613,393.557 919.856,397.332 923.099,401.126 926.342,404.935 929.585,408.76 932.828,412.599 936.071,416.451 939.314,420.314 942.557,424.189 945.8,428.073 949.043,431.965 952.286,435.865 955.529,439.772 958.772,443.684 962.015,447.602 965.258,451.524 968.501,455.448 971.744,459.376 974.987,463.305 978.23,467.236 981.473,471.166 984.716,475.097 987.959,479.028 991.202,482.959 994.445,486.889 997.688,490.818 1000.93,494.747 1004.17,498.675 1007.42,502.601 1010.66,506.527 1013.9,510.451 1017.15,514.375 1020.39,518.297 1023.63,522.218 1026.88,526.139 1030.12,530.058 1033.36,533.977 1036.6,537.895 1039.85,541.813 1043.09,545.731 1046.33,549.649 1049.58,553.567 1052.82,557.487 1056.06,561.407 1059.31,565.328 1062.55,569.251 1065.79,573.176 1069.04,577.104 1072.28,581.034 1075.52,584.967 1078.76,588.903 1082.01,592.842 1085.25,596.783 1088.49,600.726 1091.74,604.67 1094.98,608.616 1098.22,612.563 1101.47,616.511 1104.71,620.459 1107.95,624.408 1111.19,628.357 1114.44,632.306 1117.68,636.255 1120.92,640.203 1124.17,644.152 1127.41,648.099 1130.65,652.047 1133.9,655.993 1137.14,659.938 1140.38,663.883 1143.62,667.827 1146.87,671.769 1150.11,675.711 1153.35,679.652 1156.6,683.591 1159.84,687.529 1163.08,691.466 1166.33,695.402 1169.57,699.337 1172.81,703.271 1176.06,707.203 1179.3,711.135 1182.54,715.065 1185.78,718.994 1189.03,722.923 1192.27,726.85 1195.51,730.777 1198.76,734.703 1202,738.628 1205.24,742.552 1208.49,746.476 1211.73,750.399 1214.97,754.322 1218.21,758.244 1221.46,762.166 1224.7,766.088 1227.94,770.01 1231.19,773.932 1234.43,777.854 1237.67,781.776 1240.92,785.698 1244.16,789.621 1247.4,793.544 1250.64,797.467 1253.89,801.392 1257.13,805.316 1260.37,809.242 1263.62,813.169 1266.86,817.096 1270.1,821.025 1273.35,824.955 1276.59,828.886 1279.83,832.818 1283.08,836.752 1286.32,840.687 1289.56,844.623 1292.8,848.562 1296.05,852.501 1299.29,856.443 1302.53,860.386 1305.78,864.331 1309.02,868.278 1312.26,872.227 1315.51,876.177 1318.75,880.129 1321.99,884.084 1325.23,888.04 1328.48,891.998 1331.72,895.958 1334.96,899.92 1338.21,903.883 1341.45,907.849 1344.69,911.816 1347.94,915.785 1351.18,919.755 1354.42,923.727 1357.66,927.7 1360.91,931.675 1364.15,935.651 1367.39,939.628 1370.64,943.606 1373.88,947.584 1377.12,951.563 1380.37,955.543 1383.61,959.523 1386.85,963.503 1390.1,967.483 1393.34,971.462 1396.58,975.44 1399.82,979.418 1403.07,983.394 1406.31,987.369 1409.55,991.341 1412.8,995.312 1416.04,999.28 1419.28,1003.24 1422.53,1007.2 1425.77,1011.16 1429.01,1015.1 1432.25,1019.03 1435.5,1022.96 1438.74,1026.87 1441.98,1030.78 1445.23,1034.67 1448.47,1038.55 1451.71,1042.42 1454.96,1046.28 1458.2,1050.12 1461.44,1053.95 1464.68,1057.77 1467.93,1061.57 1471.17,1065.36 1474.41,1069.13 1477.66,1072.88 1480.9,1076.62 1484.14,1080.34 1487.39,1084.04 1490.63,1087.71 1493.87,1091.37 1497.11,1095 1500.36,1098.62 1503.6,1102.2 1506.84,1105.76 1510.09,1109.3 1513.33,1112.81 1516.57,1116.28 1519.82,1119.73 1523.06,1123.15 1526.3,1126.53 1529.55,1129.88 1532.79,1133.2 1536.03,1136.47 1539.27,1139.71 1542.52,1142.9 1545.76,1146.06 1549,1149.17 1552.25,1152.23 1555.49,1155.25 1558.73,1158.22 1561.98,1161.13 1565.22,1163.99 1568.46,1166.8 1571.7,1169.54 1574.95,1172.23 1578.19,1174.85 1581.43,1177.41 1584.68,1179.9 1587.92,1182.32 1591.16,1184.67 1594.41,1186.94 1597.65,1189.14 1600.89,1191.25 1604.13,1193.28 1607.38,1195.23 1610.62,1197.1 1613.86,1198.88 1617.11,1200.58 1620.35,1202.2 1623.59,1203.73 1626.84,1205.17 1630.08,1206.53 1633.32,1207.8 1636.57,1208.97 1639.81,1210.06 1643.05,1211.05 1646.29,1211.95 1649.54,1212.76 1652.78,1213.47 1656.02,1214.08 1659.27,1214.58 1662.51,1214.99 1665.75,1215.29 1669,1215.48 1672.24,1215.56 1675.48,1215.53 1678.72,1215.39 1681.97,1215.14 1685.21,1214.78 1688.45,1214.32 1691.7,1213.77 1694.94,1213.13 1698.18,1212.39 1701.43,1211.58 1704.67,1210.68 1707.91,1209.72 1711.15,1208.67 1714.4,1207.57 1717.64,1206.4 1720.88,1205.17 1724.13,1203.88 1727.37,1202.54 1730.61,1201.15 1733.86,1199.72 1737.1,1198.24 1740.34,1196.72 1743.59,1195.16 1746.83,1193.56 1750.07,1191.93 1753.31,1190.27 1756.56,1188.57 1759.8,1186.84 1763.04,1185.09 1766.29,1183.3 1769.53,1181.5 1772.77,1179.67 1776.02,1177.82 1779.26,1175.94 1782.5,1174.05 1785.74,1172.14 1788.99,1170.22 1792.23,1168.28 1795.47,1166.33 1798.72,1164.36 1801.96,1162.38 1805.2,1160.39 1808.45,1158.4 1811.69,1156.39 1814.93,1154.38 1818.17,1152.36 1821.42,1150.34 1824.66,1148.31 1827.9,1146.28 1831.15,1144.24 1834.39,1142.21 1837.63,1140.17 1840.88,1138.13 1844.12,1136.09 1847.36,1134.05 1850.61,1132.02 1853.85,1129.98 1857.09,1127.95 1860.33,1125.93 1863.58,1123.9 1866.82,1121.88 1870.06,1119.86 1873.31,1117.85 1876.55,1115.85 1879.79,1113.85 1883.04,1111.85 1886.28,1109.86 1889.52,1107.88 1892.76,1105.91 1896.01,1103.94 1899.25,1101.98 1902.49,1100.03 1905.74,1098.08 1908.98,1096.14 1912.22,1094.21 1915.47,1092.29 1918.71,1090.38 1921.95,1088.47 1925.19,1086.57 1928.44,1084.68 1931.68,1082.8 1934.92,1080.93 1938.17,1079.06 1941.41,1077.2 1944.65,1075.35 1947.9,1073.51 1951.14,1071.68 1954.38,1069.85 1957.63,1068.03 1960.87,1066.21 1964.11,1064.4 1967.35,1062.6 1970.6,1060.81 1973.84,1059.02 1977.08,1057.23 1980.33,1055.45 1983.57,1053.68 1986.81,1051.91 1990.06,1050.14 1993.3,1048.38 1996.54,1046.61 1999.78,1044.86 2003.03,1043.1 2006.27,1041.34 2009.51,1039.59 2012.76,1037.84 2016,1036.08 2019.24,1034.33 2022.49,1032.57 2025.73,1030.81 2028.97,1029.05 2032.21,1027.28 2035.46,1025.51 2038.7,1023.74 2041.94,1021.95 2045.19,1020.17 2048.43,1018.37 2051.67,1016.57 2054.92,1014.75 2058.16,1012.93 2061.4,1011.09 2064.65,1009.25 2067.89,1007.39 2071.13,1005.51 2074.37,1003.62 2077.62,1001.71 2080.86,999.791 2084.1,997.848 2087.35,995.886 2090.59,993.903 2093.83,991.898 2097.08,989.869 2100.32,987.815 2103.56,985.736 2106.8,983.629 2110.05,981.492 2113.29,979.326 2116.53,977.128 2119.78,974.896 2123.02,972.63 2126.26,970.327 2129.51,967.986 2132.75,965.605 2135.99,963.183 2139.23,960.718 2142.48,958.208 2145.72,955.651 2148.96,953.046 2152.21,950.395 2155.45,947.702 2158.69,944.969 2161.94,942.199 2165.18,939.395 2168.42,936.56 2171.67,933.697 2174.91,930.808 2178.15,927.896 2181.39,924.964 2184.64,922.015 2187.88,919.051 2191.12,916.075 2194.37,913.089 2197.61,910.096 2200.85,907.1 2204.1,904.101 2207.34,901.103 2210.58,898.109 2213.82,895.12 2217.07,892.14 2220.31,889.171 2223.55,886.215 2226.8,883.276 2230.04,880.355 2233.28,877.455 2236.53,874.579 2239.77,871.729 2243.01,868.908 2246.25,866.118 2249.5,863.362 2252.74,860.643 2255.98,857.962 2259.23,855.323 2262.47,852.729 2265.71,850.181 2268.96,847.683 2272.2,845.237 2275.44,842.847 2278.69,840.514 2281.93,838.239 2285.17,836.024 2288.41,833.869 2291.66,831.772 "/>
<path clip-path="url(#clip950)" d="M1953.46 302.578 L2280.8 302.578 L2280.8 95.2176 L1953.46 95.2176  Z" fill="#ffffff" fill-rule="evenodd" fill-opacity="1"/>
<polyline clip-path="url(#clip950)" style="stroke:#000000; stroke-linecap:round; stroke-linejoin:round; stroke-width:4; stroke-opacity:1; fill:none" points="1953.46,302.578 2280.8,302.578 2280.8,95.2176 1953.46,95.2176 1953.46,302.578 "/>
<polyline clip-path="url(#clip950)" style="stroke:#009af9; stroke-linecap:round; stroke-linejoin:round; stroke-width:4; stroke-opacity:1; fill:none" points="1977.44,147.058 2121.36,147.058 "/>
<path clip-path="url(#clip950)" d="M2152.76 131.051 L2152.76 138.412 L2161.53 138.412 L2161.53 141.722 L2152.76 141.722 L2152.76 155.796 Q2152.76 158.967 2153.61 159.87 Q2154.49 160.773 2157.16 160.773 L2161.53 160.773 L2161.53 164.338 L2157.16 164.338 Q2152.23 164.338 2150.35 162.509 Q2148.48 160.657 2148.48 155.796 L2148.48 141.722 L2145.35 141.722 L2145.35 138.412 L2148.48 138.412 L2148.48 131.051 L2152.76 131.051 Z" fill="#000000" fill-rule="nonzero" fill-opacity="1" /><path clip-path="url(#clip950)" d="M2182.16 142.393 Q2181.44 141.977 2180.58 141.791 Q2179.75 141.583 2178.73 141.583 Q2175.12 141.583 2173.17 143.944 Q2171.25 146.282 2171.25 150.68 L2171.25 164.338 L2166.97 164.338 L2166.97 138.412 L2171.25 138.412 L2171.25 142.44 Q2172.6 140.078 2174.75 138.944 Q2176.9 137.787 2179.98 137.787 Q2180.42 137.787 2180.95 137.856 Q2181.48 137.903 2182.13 138.018 L2182.16 142.393 Z" fill="#000000" fill-rule="nonzero" fill-opacity="1" /><path clip-path="url(#clip950)" d="M2186.18 154.106 L2186.18 138.412 L2190.44 138.412 L2190.44 153.944 Q2190.44 157.625 2191.88 159.476 Q2193.31 161.305 2196.18 161.305 Q2199.63 161.305 2201.62 159.106 Q2203.64 156.907 2203.64 153.111 L2203.64 138.412 L2207.9 138.412 L2207.9 164.338 L2203.64 164.338 L2203.64 160.356 Q2202.09 162.717 2200.03 163.875 Q2197.99 165.009 2195.28 165.009 Q2190.81 165.009 2188.5 162.231 Q2186.18 159.453 2186.18 154.106 M2196.9 137.787 L2196.9 137.787 Z" fill="#000000" fill-rule="nonzero" fill-opacity="1" /><path clip-path="url(#clip950)" d="M2220.88 131.051 L2220.88 138.412 L2229.66 138.412 L2229.66 141.722 L2220.88 141.722 L2220.88 155.796 Q2220.88 158.967 2221.74 159.87 Q2222.62 160.773 2225.28 160.773 L2229.66 160.773 L2229.66 164.338 L2225.28 164.338 Q2220.35 164.338 2218.48 162.509 Q2216.6 160.657 2216.6 155.796 L2216.6 141.722 L2213.48 141.722 L2213.48 138.412 L2216.6 138.412 L2216.6 131.051 L2220.88 131.051 Z" fill="#000000" fill-rule="nonzero" fill-opacity="1" /><path clip-path="url(#clip950)" d="M2256.81 148.689 L2256.81 164.338 L2252.55 164.338 L2252.55 148.828 Q2252.55 145.148 2251.11 143.319 Q2249.68 141.49 2246.81 141.49 Q2243.36 141.49 2241.37 143.69 Q2239.38 145.889 2239.38 149.685 L2239.38 164.338 L2235.1 164.338 L2235.1 128.319 L2239.38 128.319 L2239.38 142.44 Q2240.91 140.102 2242.97 138.944 Q2245.05 137.787 2247.76 137.787 Q2252.23 137.787 2254.52 140.565 Q2256.81 143.319 2256.81 148.689 Z" fill="#000000" fill-rule="nonzero" fill-opacity="1" /><circle clip-path="url(#clip950)" cx="2049.4" cy="198.898" r="20.48" fill="#e26f46" fill-rule="evenodd" fill-opacity="1" stroke="#000000" stroke-opacity="1" stroke-width="4.55111"/>
<path clip-path="url(#clip950)" d="M2164.26 194.187 L2164.26 180.159 L2168.52 180.159 L2168.52 216.178 L2164.26 216.178 L2164.26 212.289 Q2162.92 214.603 2160.86 215.738 Q2158.82 216.849 2155.95 216.849 Q2151.25 216.849 2148.29 213.099 Q2145.35 209.349 2145.35 203.238 Q2145.35 197.127 2148.29 193.377 Q2151.25 189.627 2155.95 189.627 Q2158.82 189.627 2160.86 190.761 Q2162.92 191.872 2164.26 194.187 M2149.75 203.238 Q2149.75 207.937 2151.67 210.622 Q2153.61 213.284 2156.99 213.284 Q2160.37 213.284 2162.32 210.622 Q2164.26 207.937 2164.26 203.238 Q2164.26 198.539 2162.32 195.877 Q2160.37 193.192 2156.99 193.192 Q2153.61 193.192 2151.67 195.877 Q2149.75 198.539 2149.75 203.238 Z" fill="#000000" fill-rule="nonzero" fill-opacity="1" /><path clip-path="url(#clip950)" d="M2189.08 203.145 Q2183.92 203.145 2181.92 204.326 Q2179.93 205.506 2179.93 208.354 Q2179.93 210.622 2181.42 211.965 Q2182.92 213.284 2185.49 213.284 Q2189.03 213.284 2191.16 210.784 Q2193.31 208.261 2193.31 204.094 L2193.31 203.145 L2189.08 203.145 M2197.57 201.386 L2197.57 216.178 L2193.31 216.178 L2193.31 212.242 Q2191.85 214.603 2189.68 215.738 Q2187.5 216.849 2184.36 216.849 Q2180.37 216.849 2178.01 214.627 Q2175.67 212.381 2175.67 208.631 Q2175.67 204.256 2178.59 202.034 Q2181.53 199.812 2187.34 199.812 L2193.31 199.812 L2193.31 199.395 Q2193.31 196.455 2191.37 194.858 Q2189.45 193.238 2185.95 193.238 Q2183.73 193.238 2181.62 193.77 Q2179.52 194.303 2177.57 195.367 L2177.57 191.432 Q2179.91 190.53 2182.11 190.09 Q2184.31 189.627 2186.39 189.627 Q2192.02 189.627 2194.79 192.543 Q2197.57 195.46 2197.57 201.386 Z" fill="#000000" fill-rule="nonzero" fill-opacity="1" /><path clip-path="url(#clip950)" d="M2210.56 182.891 L2210.56 190.252 L2219.33 190.252 L2219.33 193.562 L2210.56 193.562 L2210.56 207.636 Q2210.56 210.807 2211.42 211.71 Q2212.29 212.613 2214.96 212.613 L2219.33 212.613 L2219.33 216.178 L2214.96 216.178 Q2210.03 216.178 2208.15 214.349 Q2206.28 212.497 2206.28 207.636 L2206.28 193.562 L2203.15 193.562 L2203.15 190.252 L2206.28 190.252 L2206.28 182.891 L2210.56 182.891 Z" fill="#000000" fill-rule="nonzero" fill-opacity="1" /><path clip-path="url(#clip950)" d="M2236.72 203.145 Q2231.55 203.145 2229.56 204.326 Q2227.57 205.506 2227.57 208.354 Q2227.57 210.622 2229.05 211.965 Q2230.56 213.284 2233.13 213.284 Q2236.67 213.284 2238.8 210.784 Q2240.95 208.261 2240.95 204.094 L2240.95 203.145 L2236.72 203.145 M2245.21 201.386 L2245.21 216.178 L2240.95 216.178 L2240.95 212.242 Q2239.49 214.603 2237.32 215.738 Q2235.14 216.849 2231.99 216.849 Q2228.01 216.849 2225.65 214.627 Q2223.31 212.381 2223.31 208.631 Q2223.31 204.256 2226.23 202.034 Q2229.17 199.812 2234.98 199.812 L2240.95 199.812 L2240.95 199.395 Q2240.95 196.455 2239.01 194.858 Q2237.09 193.238 2233.59 193.238 Q2231.37 193.238 2229.26 193.77 Q2227.16 194.303 2225.21 195.367 L2225.21 191.432 Q2227.55 190.53 2229.75 190.09 Q2231.95 189.627 2234.03 189.627 Q2239.66 189.627 2242.43 192.543 Q2245.21 195.46 2245.21 201.386 Z" fill="#000000" fill-rule="nonzero" fill-opacity="1" /><polyline clip-path="url(#clip950)" style="stroke:#3da44d; stroke-linecap:round; stroke-linejoin:round; stroke-width:8; stroke-opacity:1; fill:none" points="1977.44,250.738 2121.36,250.738 "/>
<path clip-path="url(#clip950)" d="M2170.91 263.087 L2170.91 253.805 L2163.27 253.805 L2163.27 249.962 L2175.54 249.962 L2175.54 264.8 Q2172.83 266.721 2169.56 267.717 Q2166.3 268.689 2162.6 268.689 Q2154.49 268.689 2149.91 263.967 Q2145.35 259.221 2145.35 250.772 Q2145.35 242.3 2149.91 237.578 Q2154.49 232.833 2162.6 232.833 Q2165.98 232.833 2169.01 233.666 Q2172.06 234.499 2174.63 236.12 L2174.63 241.096 Q2172.04 238.897 2169.12 237.786 Q2166.21 236.675 2162.99 236.675 Q2156.65 236.675 2153.45 240.217 Q2150.28 243.758 2150.28 250.772 Q2150.28 257.763 2153.45 261.305 Q2156.65 264.846 2162.99 264.846 Q2165.47 264.846 2167.41 264.43 Q2169.36 263.99 2170.91 263.087 Z" fill="#000000" fill-rule="nonzero" fill-opacity="1" /><path clip-path="url(#clip950)" d="M2188.75 237.3 L2188.75 250.286 L2194.63 250.286 Q2197.9 250.286 2199.68 248.596 Q2201.46 246.907 2201.46 243.782 Q2201.46 240.68 2199.68 238.99 Q2197.9 237.3 2194.63 237.3 L2188.75 237.3 M2184.08 233.458 L2194.63 233.458 Q2200.44 233.458 2203.41 236.096 Q2206.39 238.712 2206.39 243.782 Q2206.39 248.897 2203.41 251.513 Q2200.44 254.129 2194.63 254.129 L2188.75 254.129 L2188.75 268.018 L2184.08 268.018 L2184.08 233.458 Z" fill="#000000" fill-rule="nonzero" fill-opacity="1" /></svg>
