<?xml version="1.0" encoding="utf-8"?>
<svg xmlns="http://www.w3.org/2000/svg" xmlns:xlink="http://www.w3.org/1999/xlink" width="600" height="400" viewBox="0 0 2400 1600">
<defs>
  <clipPath id="clip980">
    <rect x="0" y="0" width="2400" height="1600"/>
  </clipPath>
</defs>
<path clip-path="url(#clip980)" d="M0 1600 L2400 1600 L2400 0 L0 0  Z" fill="#ffffff" fill-rule="evenodd" fill-opacity="1"/>
<defs>
  <clipPath id="clip981">
    <rect x="193" y="47" width="2160" height="1440"/>
  </clipPath>
</defs>
<path clip-path="url(#clip980)" d="M193.936 1486.45 L2352.76 1486.45 L2352.76 47.2441 L193.936 47.2441  Z" fill="#ffffff" fill-rule="evenodd" fill-opacity="1"/>
<polyline clip-path="url(#clip981)" style="stroke:#000000; stroke-linecap:round; stroke-linejoin:round; stroke-width:2; stroke-opacity:0.1; fill:none" points="255.035,1486.45 255.035,47.2441 "/>
<polyline clip-path="url(#clip981)" style="stroke:#000000; stroke-linecap:round; stroke-linejoin:round; stroke-width:2; stroke-opacity:0.1; fill:none" points="579.173,1486.45 579.173,47.2441 "/>
<polyline clip-path="url(#clip981)" style="stroke:#000000; stroke-linecap:round; stroke-linejoin:round; stroke-width:2; stroke-opacity:0.1; fill:none" points="903.312,1486.45 903.312,47.2441 "/>
<polyline clip-path="url(#clip981)" style="stroke:#000000; stroke-linecap:round; stroke-linejoin:round; stroke-width:2; stroke-opacity:0.1; fill:none" points="1227.45,1486.45 1227.45,47.2441 "/>
<polyline clip-path="url(#clip981)" style="stroke:#000000; stroke-linecap:round; stroke-linejoin:round; stroke-width:2; stroke-opacity:0.1; fill:none" points="1551.59,1486.45 1551.59,47.2441 "/>
<polyline clip-path="url(#clip981)" style="stroke:#000000; stroke-linecap:round; stroke-linejoin:round; stroke-width:2; stroke-opacity:0.1; fill:none" points="1875.73,1486.45 1875.73,47.2441 "/>
<polyline clip-path="url(#clip981)" style="stroke:#000000; stroke-linecap:round; stroke-linejoin:round; stroke-width:2; stroke-opacity:0.1; fill:none" points="2199.87,1486.45 2199.87,47.2441 "/>
<polyline clip-path="url(#clip981)" style="stroke:#000000; stroke-linecap:round; stroke-linejoin:round; stroke-width:2; stroke-opacity:0.1; fill:none" points="193.936,1310.31 2352.76,1310.31 "/>
<polyline clip-path="url(#clip981)" style="stroke:#000000; stroke-linecap:round; stroke-linejoin:round; stroke-width:2; stroke-opacity:0.1; fill:none" points="193.936,1047.34 2352.76,1047.34 "/>
<polyline clip-path="url(#clip981)" style="stroke:#000000; stroke-linecap:round; stroke-linejoin:round; stroke-width:2; stroke-opacity:0.1; fill:none" points="193.936,784.374 2352.76,784.374 "/>
<polyline clip-path="url(#clip981)" style="stroke:#000000; stroke-linecap:round; stroke-linejoin:round; stroke-width:2; stroke-opacity:0.1; fill:none" points="193.936,521.408 2352.76,521.408 "/>
<polyline clip-path="url(#clip981)" style="stroke:#000000; stroke-linecap:round; stroke-linejoin:round; stroke-width:2; stroke-opacity:0.1; fill:none" points="193.936,258.442 2352.76,258.442 "/>
<polyline clip-path="url(#clip980)" style="stroke:#000000; stroke-linecap:round; stroke-linejoin:round; stroke-width:4; stroke-opacity:1; fill:none" points="193.936,1486.45 2352.76,1486.45 "/>
<polyline clip-path="url(#clip980)" style="stroke:#000000; stroke-linecap:round; stroke-linejoin:round; stroke-width:4; stroke-opacity:1; fill:none" points="255.035,1486.45 255.035,1467.55 "/>
<polyline clip-path="url(#clip980)" style="stroke:#000000; stroke-linecap:round; stroke-linejoin:round; stroke-width:4; stroke-opacity:1; fill:none" points="579.173,1486.45 579.173,1467.55 "/>
<polyline clip-path="url(#clip980)" style="stroke:#000000; stroke-linecap:round; stroke-linejoin:round; stroke-width:4; stroke-opacity:1; fill:none" points="903.312,1486.45 903.312,1467.55 "/>
<polyline clip-path="url(#clip980)" style="stroke:#000000; stroke-linecap:round; stroke-linejoin:round; stroke-width:4; stroke-opacity:1; fill:none" points="1227.45,1486.45 1227.45,1467.55 "/>
<polyline clip-path="url(#clip980)" style="stroke:#000000; stroke-linecap:round; stroke-linejoin:round; stroke-width:4; stroke-opacity:1; fill:none" points="1551.59,1486.45 1551.59,1467.55 "/>
<polyline clip-path="url(#clip980)" style="stroke:#000000; stroke-linecap:round; stroke-linejoin:round; stroke-width:4; stroke-opacity:1; fill:none" points="1875.73,1486.45 1875.73,1467.55 "/>
<polyline clip-path="url(#clip980)" style="stroke:#000000; stroke-linecap:round; stroke-linejoin:round; stroke-width:4; stroke-opacity:1; fill:none" points="2199.87,1486.45 2199.87,1467.55 "/>
<path clip-path="url(#clip980)" d="M255.035 1517.37 Q251.424 1517.37 249.595 1520.93 Q247.789 1524.47 247.789 1531.6 Q247.789 1538.71 249.595 1542.27 Q251.424 1545.82 255.035 1545.82 Q258.669 1545.82 260.474 1542.27 Q262.303 1538.71 262.303 1531.6 Q262.303 1524.47 260.474 1520.93 Q258.669 1517.37 255.035 1517.37 M255.035 1513.66 Q260.845 1513.66 263.9 1518.27 Q266.979 1522.85 266.979 1531.6 Q266.979 1540.33 263.9 1544.94 Q260.845 1549.52 255.035 1549.52 Q249.225 1549.52 246.146 1544.94 Q243.09 1540.33 243.09 1531.6 Q243.09 1522.85 246.146 1518.27 Q249.225 1513.66 255.035 1513.66 Z" fill="#000000" fill-rule="nonzero" fill-opacity="1" /><path clip-path="url(#clip980)" d="M569.555 1544.91 L577.194 1544.91 L577.194 1518.55 L568.884 1520.21 L568.884 1515.95 L577.148 1514.29 L581.824 1514.29 L581.824 1544.91 L589.463 1544.91 L589.463 1548.85 L569.555 1548.85 L569.555 1544.91 Z" fill="#000000" fill-rule="nonzero" fill-opacity="1" /><path clip-path="url(#clip980)" d="M897.965 1544.91 L914.284 1544.91 L914.284 1548.85 L892.34 1548.85 L892.34 1544.91 Q895.002 1542.16 899.585 1537.53 Q904.191 1532.88 905.372 1531.53 Q907.617 1529.01 908.497 1527.27 Q909.4 1525.51 909.4 1523.82 Q909.4 1521.07 907.455 1519.33 Q905.534 1517.6 902.432 1517.6 Q900.233 1517.6 897.779 1518.36 Q895.349 1519.13 892.571 1520.68 L892.571 1515.95 Q895.395 1514.82 897.849 1514.24 Q900.303 1513.66 902.34 1513.66 Q907.71 1513.66 910.904 1516.35 Q914.099 1519.03 914.099 1523.52 Q914.099 1525.65 913.289 1527.57 Q912.502 1529.47 910.395 1532.07 Q909.816 1532.74 906.715 1535.95 Q903.613 1539.15 897.965 1544.91 Z" fill="#000000" fill-rule="nonzero" fill-opacity="1" /><path clip-path="url(#clip980)" d="M1231.7 1530.21 Q1235.05 1530.93 1236.93 1533.2 Q1238.83 1535.47 1238.83 1538.8 Q1238.83 1543.92 1235.31 1546.72 Q1231.79 1549.52 1225.31 1549.52 Q1223.13 1549.52 1220.82 1549.08 Q1218.53 1548.66 1216.07 1547.81 L1216.07 1543.29 Q1218.02 1544.43 1220.33 1545.01 Q1222.65 1545.58 1225.17 1545.58 Q1229.57 1545.58 1231.86 1543.85 Q1234.17 1542.11 1234.17 1538.8 Q1234.17 1535.75 1232.02 1534.03 Q1229.89 1532.3 1226.07 1532.3 L1222.05 1532.3 L1222.05 1528.45 L1226.26 1528.45 Q1229.71 1528.45 1231.54 1527.09 Q1233.36 1525.7 1233.36 1523.11 Q1233.36 1520.45 1231.47 1519.03 Q1229.59 1517.6 1226.07 1517.6 Q1224.15 1517.6 1221.95 1518.01 Q1219.75 1518.43 1217.11 1519.31 L1217.11 1515.14 Q1219.78 1514.4 1222.09 1514.03 Q1224.43 1513.66 1226.49 1513.66 Q1231.81 1513.66 1234.92 1516.09 Q1238.02 1518.5 1238.02 1522.62 Q1238.02 1525.49 1236.37 1527.48 Q1234.73 1529.45 1231.7 1530.21 Z" fill="#000000" fill-rule="nonzero" fill-opacity="1" /><path clip-path="url(#clip980)" d="M1554.6 1518.36 L1542.79 1536.81 L1554.6 1536.81 L1554.6 1518.36 M1553.37 1514.29 L1559.25 1514.29 L1559.25 1536.81 L1564.18 1536.81 L1564.18 1540.7 L1559.25 1540.7 L1559.25 1548.85 L1554.6 1548.85 L1554.6 1540.7 L1539 1540.7 L1539 1536.19 L1553.37 1514.29 Z" fill="#000000" fill-rule="nonzero" fill-opacity="1" /><path clip-path="url(#clip980)" d="M1866.01 1514.29 L1884.36 1514.29 L1884.36 1518.22 L1870.29 1518.22 L1870.29 1526.7 Q1871.31 1526.35 1872.32 1526.19 Q1873.34 1526 1874.36 1526 Q1880.15 1526 1883.53 1529.17 Q1886.91 1532.34 1886.91 1537.76 Q1886.91 1543.34 1883.44 1546.44 Q1879.96 1549.52 1873.64 1549.52 Q1871.47 1549.52 1869.2 1549.15 Q1866.95 1548.78 1864.55 1548.04 L1864.55 1543.34 Q1866.63 1544.47 1868.85 1545.03 Q1871.07 1545.58 1873.55 1545.58 Q1877.56 1545.58 1879.89 1543.48 Q1882.23 1541.37 1882.23 1537.76 Q1882.23 1534.15 1879.89 1532.04 Q1877.56 1529.94 1873.55 1529.94 Q1871.68 1529.94 1869.8 1530.35 Q1867.95 1530.77 1866.01 1531.65 L1866.01 1514.29 Z" fill="#000000" fill-rule="nonzero" fill-opacity="1" /><path clip-path="url(#clip980)" d="M2200.27 1529.7 Q2197.12 1529.7 2195.27 1531.86 Q2193.44 1534.01 2193.44 1537.76 Q2193.44 1541.49 2195.27 1543.66 Q2197.12 1545.82 2200.27 1545.82 Q2203.42 1545.82 2205.25 1543.66 Q2207.1 1541.49 2207.1 1537.76 Q2207.1 1534.01 2205.25 1531.86 Q2203.42 1529.7 2200.27 1529.7 M2209.55 1515.05 L2209.55 1519.31 Q2207.79 1518.48 2205.99 1518.04 Q2204.21 1517.6 2202.45 1517.6 Q2197.82 1517.6 2195.36 1520.72 Q2192.93 1523.85 2192.59 1530.17 Q2193.95 1528.15 2196.01 1527.09 Q2198.07 1526 2200.55 1526 Q2205.76 1526 2208.77 1529.17 Q2211.8 1532.32 2211.8 1537.76 Q2211.8 1543.08 2208.65 1546.3 Q2205.5 1549.52 2200.27 1549.52 Q2194.28 1549.52 2191.1 1544.94 Q2187.93 1540.33 2187.93 1531.6 Q2187.93 1523.41 2191.82 1518.55 Q2195.71 1513.66 2202.26 1513.66 Q2204.02 1513.66 2205.8 1514.01 Q2207.61 1514.36 2209.55 1515.05 Z" fill="#000000" fill-rule="nonzero" fill-opacity="1" /><polyline clip-path="url(#clip980)" style="stroke:#000000; stroke-linecap:round; stroke-linejoin:round; stroke-width:4; stroke-opacity:1; fill:none" points="193.936,1486.45 193.936,47.2441 "/>
<polyline clip-path="url(#clip980)" style="stroke:#000000; stroke-linecap:round; stroke-linejoin:round; stroke-width:4; stroke-opacity:1; fill:none" points="193.936,1310.31 212.834,1310.31 "/>
<polyline clip-path="url(#clip980)" style="stroke:#000000; stroke-linecap:round; stroke-linejoin:round; stroke-width:4; stroke-opacity:1; fill:none" points="193.936,1047.34 212.834,1047.34 "/>
<polyline clip-path="url(#clip980)" style="stroke:#000000; stroke-linecap:round; stroke-linejoin:round; stroke-width:4; stroke-opacity:1; fill:none" points="193.936,784.374 212.834,784.374 "/>
<polyline clip-path="url(#clip980)" style="stroke:#000000; stroke-linecap:round; stroke-linejoin:round; stroke-width:4; stroke-opacity:1; fill:none" points="193.936,521.408 212.834,521.408 "/>
<polyline clip-path="url(#clip980)" style="stroke:#000000; stroke-linecap:round; stroke-linejoin:round; stroke-width:4; stroke-opacity:1; fill:none" points="193.936,258.442 212.834,258.442 "/>
<path clip-path="url(#clip980)" d="M50.9921 1310.76 L80.6679 1310.76 L80.6679 1314.69 L50.9921 1314.69 L50.9921 1310.76 Z" fill="#000000" fill-rule="nonzero" fill-opacity="1" /><path clip-path="url(#clip980)" d="M91.5706 1323.65 L99.2095 1323.65 L99.2095 1297.28 L90.8993 1298.95 L90.8993 1294.69 L99.1632 1293.03 L103.839 1293.03 L103.839 1323.65 L111.478 1323.65 L111.478 1327.59 L91.5706 1327.59 L91.5706 1323.65 Z" fill="#000000" fill-rule="nonzero" fill-opacity="1" /><path clip-path="url(#clip980)" d="M120.922 1321.71 L125.807 1321.71 L125.807 1327.59 L120.922 1327.59 L120.922 1321.71 Z" fill="#000000" fill-rule="nonzero" fill-opacity="1" /><path clip-path="url(#clip980)" d="M145.992 1296.1 Q142.381 1296.1 140.552 1299.67 Q138.746 1303.21 138.746 1310.34 Q138.746 1317.45 140.552 1321.01 Q142.381 1324.55 145.992 1324.55 Q149.626 1324.55 151.431 1321.01 Q153.26 1317.45 153.26 1310.34 Q153.26 1303.21 151.431 1299.67 Q149.626 1296.1 145.992 1296.1 M145.992 1292.4 Q151.802 1292.4 154.857 1297.01 Q157.936 1301.59 157.936 1310.34 Q157.936 1319.07 154.857 1323.67 Q151.802 1328.26 145.992 1328.26 Q140.181 1328.26 137.103 1323.67 Q134.047 1319.07 134.047 1310.34 Q134.047 1301.59 137.103 1297.01 Q140.181 1292.4 145.992 1292.4 Z" fill="#000000" fill-rule="nonzero" fill-opacity="1" /><path clip-path="url(#clip980)" d="M51.9875 1047.79 L81.6633 1047.79 L81.6633 1051.73 L51.9875 1051.73 L51.9875 1047.79 Z" fill="#000000" fill-rule="nonzero" fill-opacity="1" /><path clip-path="url(#clip980)" d="M101.756 1033.14 Q98.1447 1033.14 96.316 1036.7 Q94.5104 1040.24 94.5104 1047.37 Q94.5104 1054.48 96.316 1058.05 Q98.1447 1061.59 101.756 1061.59 Q105.39 1061.59 107.196 1058.05 Q109.024 1054.48 109.024 1047.37 Q109.024 1040.24 107.196 1036.7 Q105.39 1033.14 101.756 1033.14 M101.756 1029.43 Q107.566 1029.43 110.621 1034.04 Q113.7 1038.62 113.7 1047.37 Q113.7 1056.1 110.621 1060.71 Q107.566 1065.29 101.756 1065.29 Q95.9456 1065.29 92.8669 1060.71 Q89.8114 1056.1 89.8114 1047.37 Q89.8114 1038.62 92.8669 1034.04 Q95.9456 1029.43 101.756 1029.43 Z" fill="#000000" fill-rule="nonzero" fill-opacity="1" /><path clip-path="url(#clip980)" d="M121.918 1058.74 L126.802 1058.74 L126.802 1064.62 L121.918 1064.62 L121.918 1058.74 Z" fill="#000000" fill-rule="nonzero" fill-opacity="1" /><path clip-path="url(#clip980)" d="M137.033 1030.06 L155.39 1030.06 L155.39 1033.99 L141.316 1033.99 L141.316 1042.47 Q142.334 1042.12 143.353 1041.96 Q144.371 1041.77 145.39 1041.77 Q151.177 1041.77 154.556 1044.94 Q157.936 1048.12 157.936 1053.53 Q157.936 1059.11 154.464 1062.21 Q150.992 1065.29 144.672 1065.29 Q142.496 1065.29 140.228 1064.92 Q137.982 1064.55 135.575 1063.81 L135.575 1059.11 Q137.658 1060.24 139.881 1060.8 Q142.103 1061.36 144.58 1061.36 Q148.584 1061.36 150.922 1059.25 Q153.26 1057.14 153.26 1053.53 Q153.26 1049.92 150.922 1047.81 Q148.584 1045.71 144.58 1045.71 Q142.705 1045.71 140.83 1046.12 Q138.978 1046.54 137.033 1047.42 L137.033 1030.06 Z" fill="#000000" fill-rule="nonzero" fill-opacity="1" /><path clip-path="url(#clip980)" d="M100.76 770.172 Q97.1493 770.172 95.3206 773.737 Q93.515 777.279 93.515 784.408 Q93.515 791.515 95.3206 795.08 Q97.1493 798.621 100.76 798.621 Q104.395 798.621 106.2 795.08 Q108.029 791.515 108.029 784.408 Q108.029 777.279 106.2 773.737 Q104.395 770.172 100.76 770.172 M100.76 766.469 Q106.571 766.469 109.626 771.075 Q112.705 775.658 112.705 784.408 Q112.705 793.135 109.626 797.742 Q106.571 802.325 100.76 802.325 Q94.9502 802.325 91.8715 797.742 Q88.816 793.135 88.816 784.408 Q88.816 775.658 91.8715 771.075 Q94.9502 766.469 100.76 766.469 Z" fill="#000000" fill-rule="nonzero" fill-opacity="1" /><path clip-path="url(#clip980)" d="M120.922 795.774 L125.807 795.774 L125.807 801.654 L120.922 801.654 L120.922 795.774 Z" fill="#000000" fill-rule="nonzero" fill-opacity="1" /><path clip-path="url(#clip980)" d="M145.992 770.172 Q142.381 770.172 140.552 773.737 Q138.746 777.279 138.746 784.408 Q138.746 791.515 140.552 795.08 Q142.381 798.621 145.992 798.621 Q149.626 798.621 151.431 795.08 Q153.26 791.515 153.26 784.408 Q153.26 777.279 151.431 773.737 Q149.626 770.172 145.992 770.172 M145.992 766.469 Q151.802 766.469 154.857 771.075 Q157.936 775.658 157.936 784.408 Q157.936 793.135 154.857 797.742 Q151.802 802.325 145.992 802.325 Q140.181 802.325 137.103 797.742 Q134.047 793.135 134.047 784.408 Q134.047 775.658 137.103 771.075 Q140.181 766.469 145.992 766.469 Z" fill="#000000" fill-rule="nonzero" fill-opacity="1" /><path clip-path="url(#clip980)" d="M101.756 507.206 Q98.1447 507.206 96.316 510.771 Q94.5104 514.313 94.5104 521.442 Q94.5104 528.549 96.316 532.114 Q98.1447 535.655 101.756 535.655 Q105.39 535.655 107.196 532.114 Q109.024 528.549 109.024 521.442 Q109.024 514.313 107.196 510.771 Q105.39 507.206 101.756 507.206 M101.756 503.503 Q107.566 503.503 110.621 508.109 Q113.7 512.692 113.7 521.442 Q113.7 530.169 110.621 534.776 Q107.566 539.359 101.756 539.359 Q95.9456 539.359 92.8669 534.776 Q89.8114 530.169 89.8114 521.442 Q89.8114 512.692 92.8669 508.109 Q95.9456 503.503 101.756 503.503 Z" fill="#000000" fill-rule="nonzero" fill-opacity="1" /><path clip-path="url(#clip980)" d="M121.918 532.808 L126.802 532.808 L126.802 538.688 L121.918 538.688 L121.918 532.808 Z" fill="#000000" fill-rule="nonzero" fill-opacity="1" /><path clip-path="url(#clip980)" d="M137.033 504.128 L155.39 504.128 L155.39 508.063 L141.316 508.063 L141.316 516.535 Q142.334 516.188 143.353 516.026 Q144.371 515.841 145.39 515.841 Q151.177 515.841 154.556 519.012 Q157.936 522.183 157.936 527.6 Q157.936 533.178 154.464 536.28 Q150.992 539.359 144.672 539.359 Q142.496 539.359 140.228 538.989 Q137.982 538.618 135.575 537.877 L135.575 533.178 Q137.658 534.313 139.881 534.868 Q142.103 535.424 144.58 535.424 Q148.584 535.424 150.922 533.317 Q153.26 531.211 153.26 527.6 Q153.26 523.989 150.922 521.882 Q148.584 519.776 144.58 519.776 Q142.705 519.776 140.83 520.192 Q138.978 520.609 137.033 521.489 L137.033 504.128 Z" fill="#000000" fill-rule="nonzero" fill-opacity="1" /><path clip-path="url(#clip980)" d="M91.5706 271.786 L99.2095 271.786 L99.2095 245.421 L90.8993 247.087 L90.8993 242.828 L99.1632 241.162 L103.839 241.162 L103.839 271.786 L111.478 271.786 L111.478 275.722 L91.5706 275.722 L91.5706 271.786 Z" fill="#000000" fill-rule="nonzero" fill-opacity="1" /><path clip-path="url(#clip980)" d="M120.922 269.842 L125.807 269.842 L125.807 275.722 L120.922 275.722 L120.922 269.842 Z" fill="#000000" fill-rule="nonzero" fill-opacity="1" /><path clip-path="url(#clip980)" d="M145.992 244.24 Q142.381 244.24 140.552 247.805 Q138.746 251.347 138.746 258.476 Q138.746 265.583 140.552 269.148 Q142.381 272.689 145.992 272.689 Q149.626 272.689 151.431 269.148 Q153.26 265.583 153.26 258.476 Q153.26 251.347 151.431 247.805 Q149.626 244.24 145.992 244.24 M145.992 240.537 Q151.802 240.537 154.857 245.143 Q157.936 249.726 157.936 258.476 Q157.936 267.203 154.857 271.81 Q151.802 276.393 145.992 276.393 Q140.181 276.393 137.103 271.81 Q134.047 267.203 134.047 258.476 Q134.047 249.726 137.103 245.143 Q140.181 240.537 145.992 240.537 Z" fill="#000000" fill-rule="nonzero" fill-opacity="1" /><polyline clip-path="url(#clip981)" style="stroke:#009af9; stroke-linecap:round; stroke-linejoin:round; stroke-width:4; stroke-opacity:1; fill:none" points="255.035,784.374 258.276,779.114 261.517,773.856 264.759,768.598 268,763.342 271.242,758.088 274.483,752.837 277.724,747.588 280.966,742.344 284.207,737.104 287.449,731.868 290.69,726.638 293.931,721.413 297.173,716.195 300.414,710.983 303.655,705.779 306.897,700.583 310.138,695.395 313.38,690.216 316.621,685.047 319.862,679.887 323.104,674.738 326.345,669.6 329.587,664.473 332.828,659.358 336.069,654.256 339.311,649.167 342.552,644.091 345.793,639.029 349.035,633.982 352.276,628.95 355.518,623.934 358.759,618.933 362,613.949 365.242,608.982 368.483,604.033 371.725,599.101 374.966,594.188 378.207,589.295 381.449,584.42 384.69,579.566 387.931,574.732 391.173,569.919 394.414,565.128 397.656,560.358 400.897,555.611 404.138,550.887 407.38,546.186 410.621,541.509 413.863,536.856 417.104,532.228 420.345,527.626 423.587,523.048 426.828,518.497 430.069,513.973 433.311,509.476 436.552,505.006 439.794,500.564 443.035,496.15 446.276,491.766 449.518,487.41 452.759,483.084 456.001,478.789 459.242,474.524 462.483,470.289 465.725,466.087 468.966,461.916 472.208,457.777 475.449,453.671 478.69,449.598 481.932,445.559 485.173,441.553 488.414,437.582 491.656,433.646 494.897,429.744 498.139,425.878 501.38,422.048 504.621,418.254 507.863,414.496 511.104,410.776 514.346,407.093 517.587,403.448 520.828,399.841 524.07,396.272 527.311,392.742 530.552,389.251 533.794,385.8 537.035,382.389 540.277,379.017 543.518,375.687 546.759,372.397 550.001,369.148 553.242,365.941 556.484,362.776 559.725,359.653 562.966,356.572 566.208,353.535 569.449,350.54 572.69,347.588 575.932,344.681 579.173,341.817 582.415,338.998 585.656,336.223 588.897,333.493 592.139,330.808 595.38,328.168 598.622,325.574 601.863,323.026 605.104,320.524 608.346,318.068 611.587,315.659 614.828,313.297 618.07,310.982 621.311,308.714 624.553,306.494 627.794,304.322 631.035,302.197 634.277,300.121 637.518,298.094 640.76,296.115 644.001,294.184 647.242,292.303 650.484,290.471 653.725,288.689 656.966,286.955 660.208,285.272 663.449,283.639 666.691,282.055 669.932,280.522 673.173,279.04 676.415,277.607 679.656,276.226 682.898,274.895 686.139,273.616 689.38,272.387 692.622,271.209 695.863,270.083 699.104,269.009 702.346,267.985 705.587,267.014 708.829,266.094 712.07,265.226 715.311,264.41 718.553,263.646 721.794,262.934 725.036,262.274 728.277,261.666 731.518,261.111 734.76,260.608 738.001,260.157 741.242,259.759 744.484,259.413 747.725,259.12 750.967,258.879 754.208,258.691 757.449,258.555 760.691,258.472 763.932,258.442 767.174,258.464 770.415,258.539 773.656,258.666 776.898,258.846 780.139,259.078 783.381,259.363 786.622,259.7 789.863,260.09 793.105,260.533 796.346,261.027 799.587,261.574 802.829,262.174 806.07,262.825 809.312,263.529 812.553,264.285 815.794,265.093 819.036,265.952 822.277,266.864 825.519,267.827 828.76,268.842 832.001,269.909 835.243,271.027 838.484,272.196 841.725,273.416 844.967,274.688 848.208,276.011 851.45,277.384 854.691,278.808 857.932,280.283 861.174,281.808 864.415,283.383 867.657,285.009 870.898,286.684 874.139,288.409 877.381,290.184 880.622,292.008 883.863,293.881 887.105,295.804 890.346,297.775 893.588,299.795 896.829,301.864 900.07,303.98 903.312,306.145 906.553,308.357 909.795,310.618 913.036,312.925 916.277,315.28 919.519,317.681 922.76,320.13 926.001,322.624 929.243,325.165 932.484,327.752 935.726,330.384 938.967,333.062 942.208,335.785 945.45,338.553 948.691,341.365 951.933,344.222 955.174,347.122 958.415,350.067 961.657,353.055 964.898,356.086 968.139,359.159 971.381,362.276 974.622,365.434 977.864,368.635 981.105,371.877 984.346,375.16 987.588,378.484 990.829,381.849 994.071,385.254 997.312,388.699 1000.55,392.183 1003.79,395.707 1007.04,399.27 1010.28,402.871 1013.52,406.51 1016.76,410.187 1020,413.901 1023.24,417.653 1026.48,421.441 1029.73,425.266 1032.97,429.126 1036.21,433.022 1039.45,436.953 1042.69,440.919 1045.93,444.919 1049.17,448.953 1052.42,453.02 1055.66,457.121 1058.9,461.255 1062.14,465.42 1065.38,469.618 1068.62,473.847 1071.86,478.107 1075.11,482.398 1078.35,486.719 1081.59,491.07 1084.83,495.45 1088.07,499.859 1091.31,504.296 1094.55,508.762 1097.79,513.255 1101.04,517.775 1104.28,522.322 1107.52,526.895 1110.76,531.494 1114,536.118 1117.24,540.766 1120.48,545.44 1123.73,550.137 1126.97,554.857 1130.21,559.601 1133.45,564.367 1136.69,569.155 1139.93,573.964 1143.17,578.795 1146.42,583.646 1149.66,588.517 1152.9,593.408 1156.14,598.318 1159.38,603.246 1162.62,608.193 1165.86,613.157 1169.11,618.138 1172.35,623.136 1175.59,628.15 1178.83,633.18 1182.07,638.225 1185.31,643.284 1188.55,648.357 1191.8,653.445 1195.04,658.545 1198.28,663.658 1201.52,668.782 1204.76,673.919 1208,679.066 1211.24,684.224 1214.48,689.392 1217.73,694.57 1220.97,699.756 1224.21,704.951 1227.45,710.154 1230.69,715.364 1233.93,720.582 1237.17,725.805 1240.42,731.035 1243.66,736.269 1246.9,741.509 1250.14,746.753 1253.38,752.001 1256.62,757.251 1259.86,762.505 1263.11,767.761 1266.35,773.018 1269.59,778.277 1272.83,783.536 1276.07,788.795 1279.31,794.054 1282.55,799.312 1285.8,804.568 1289.04,809.823 1292.28,815.074 1295.52,820.323 1298.76,825.568 1302,830.809 1305.24,836.046 1308.48,841.277 1311.73,846.502 1314.97,851.722 1318.21,856.934 1321.45,862.14 1324.69,867.337 1327.93,872.526 1331.17,877.707 1334.42,882.878 1337.66,888.039 1340.9,893.19 1344.14,898.33 1347.38,903.459 1350.62,908.575 1353.86,913.68 1357.11,918.771 1360.35,923.849 1363.59,928.913 1366.83,933.962 1370.07,938.997 1373.31,944.016 1376.55,949.019 1379.8,954.006 1383.04,958.975 1386.28,963.928 1389.52,968.862 1392.76,973.778 1396,978.675 1399.24,983.552 1402.49,988.409 1405.73,993.247 1408.97,998.063 1412.21,1002.86 1415.45,1007.63 1418.69,1012.38 1421.93,1017.11 1425.17,1021.81 1428.42,1026.49 1431.66,1031.15 1434.9,1035.78 1438.14,1040.39 1441.38,1044.97 1444.62,1049.53 1447.86,1054.06 1451.11,1058.56 1454.35,1063.03 1457.59,1067.48 1460.83,1071.9 1464.07,1076.29 1467.31,1080.65 1470.55,1084.98 1473.8,1089.28 1477.04,1093.55 1480.28,1097.79 1483.52,1101.99 1486.76,1106.17 1490,1110.31 1493.24,1114.42 1496.49,1118.5 1499.73,1122.55 1502.97,1126.56 1506.21,1130.54 1509.45,1134.48 1512.69,1138.38 1515.93,1142.26 1519.18,1146.09 1522.42,1149.89 1525.66,1153.65 1528.9,1157.38 1532.14,1161.07 1535.38,1164.72 1538.62,1168.33 1541.86,1171.91 1545.11,1175.45 1548.35,1178.94 1551.59,1182.4 1554.83,1185.82 1558.07,1189.2 1561.31,1192.53 1564.55,1195.83 1567.8,1199.08 1571.04,1202.3 1574.28,1205.47 1577.52,1208.6 1580.76,1211.69 1584,1214.73 1587.24,1217.73 1590.49,1220.69 1593.73,1223.61 1596.97,1226.48 1600.21,1229.3 1603.45,1232.09 1606.69,1234.82 1609.93,1237.52 1613.18,1240.16 1616.42,1242.76 1619.66,1245.32 1622.9,1247.83 1626.14,1250.29 1629.38,1252.71 1632.62,1255.08 1635.86,1257.4 1639.11,1259.68 1642.35,1261.9 1645.59,1264.08 1648.83,1266.21 1652.07,1268.3 1655.31,1270.33 1658.55,1272.32 1661.8,1274.26 1665.04,1276.15 1668.28,1277.99 1671.52,1279.78 1674.76,1281.52 1678,1283.21 1681.24,1284.85 1684.49,1286.44 1687.73,1287.98 1690.97,1289.47 1694.21,1290.92 1697.45,1292.3 1700.69,1293.64 1703.93,1294.93 1707.18,1296.17 1710.42,1297.35 1713.66,1298.49 1716.9,1299.57 1720.14,1300.6 1723.38,1301.58 1726.62,1302.51 1729.87,1303.39 1733.11,1304.21 1736.35,1304.98 1739.59,1305.7 1742.83,1306.37 1746.07,1306.99 1749.31,1307.55 1752.55,1308.06 1755.8,1308.52 1759.04,1308.93 1762.28,1309.28 1765.52,1309.58 1768.76,1309.83 1772,1310.03 1775.24,1310.17 1778.49,1310.27 1781.73,1310.3 1784.97,1310.29 1788.21,1310.22 1791.45,1310.11 1794.69,1309.93 1797.93,1309.71 1801.18,1309.43 1804.42,1309.1 1807.66,1308.72 1810.9,1308.29 1814.14,1307.8 1817.38,1307.26 1820.62,1306.67 1823.87,1306.03 1827.11,1305.33 1830.35,1304.59 1833.59,1303.79 1836.83,1302.94 1840.07,1302.03 1843.31,1301.08 1846.55,1300.07 1849.8,1299.01 1853.04,1297.9 1856.28,1296.74 1859.52,1295.53 1862.76,1294.27 1866,1292.95 1869.24,1291.59 1872.49,1290.17 1875.73,1288.7 1878.97,1287.19 1882.21,1285.62 1885.45,1284 1888.69,1282.33 1891.93,1280.62 1895.18,1278.85 1898.42,1277.03 1901.66,1275.17 1904.9,1273.25 1908.14,1271.29 1911.38,1269.28 1914.62,1267.22 1917.87,1265.11 1921.11,1262.95 1924.35,1260.75 1927.59,1258.49 1930.83,1256.19 1934.07,1253.85 1937.31,1251.45 1940.56,1249.01 1943.8,1246.52 1947.04,1243.99 1950.28,1241.41 1953.52,1238.79 1956.76,1236.11 1960,1233.4 1963.24,1230.64 1966.49,1227.83 1969.73,1224.98 1972.97,1222.09 1976.21,1219.15 1979.45,1216.17 1982.69,1213.15 1985.93,1210.08 1989.18,1206.97 1992.42,1203.82 1995.66,1200.63 1998.9,1197.39 2002.14,1194.11 2005.38,1190.8 2008.62,1187.44 2011.87,1184.04 2015.11,1180.6 2018.35,1177.12 2021.59,1173.6 2024.83,1170.05 2028.07,1166.45 2031.31,1162.82 2034.56,1159.15 2037.8,1155.44 2041.04,1151.69 2044.28,1147.91 2047.52,1144.09 2050.76,1140.24 2054,1136.35 2057.24,1132.42 2060.49,1128.46 2063.73,1124.47 2066.97,1120.44 2070.21,1116.38 2073.45,1112.28 2076.69,1108.15 2079.93,1103.99 2083.18,1099.8 2086.42,1095.58 2089.66,1091.32 2092.9,1087.03 2096.14,1082.72 2099.38,1078.37 2102.62,1074 2105.87,1069.59 2109.11,1065.16 2112.35,1060.7 2115.59,1056.21 2118.83,1051.69 2122.07,1047.15 2125.31,1042.58 2128.56,1037.99 2131.8,1033.37 2135.04,1028.72 2138.28,1024.05 2141.52,1019.36 2144.76,1014.64 2148,1009.9 2151.25,1005.14 2154.49,1000.36 2157.73,995.55 2160.97,990.723 2164.21,985.875 2167.45,981.007 2170.69,976.12 2173.93,971.213 2177.18,966.287 2180.42,961.344 2183.66,956.382 2186.9,951.404 2190.14,946.408 2193.38,941.397 2196.62,936.37 2199.87,931.327 2203.11,926.27 2206.35,921.199 2209.59,916.114 2212.83,911.016 2216.07,905.905 2219.31,900.782 2222.56,895.647 2225.8,890.502 2229.04,885.345 2232.28,880.179 2235.52,875.003 2238.76,869.818 2242,864.624 2245.25,859.422 2248.49,854.213 2251.73,848.997 2254.97,843.774 2258.21,838.546 2261.45,833.312 2264.69,828.073 2267.94,822.83 2271.18,817.583 2274.42,812.332 2277.66,807.079 2280.9,801.824 2284.14,796.566 2287.38,791.308 2290.62,786.049 "/>
<circle clip-path="url(#clip981)" cx="1071.86" cy="565.437" r="14.4" fill="#e26f46" fill-rule="evenodd" fill-opacity="1" stroke="#000000" stroke-opacity="1" stroke-width="3.2"/>
<circle clip-path="url(#clip981)" cx="666.691" cy="213.373" r="14.4" fill="#e26f46" fill-rule="evenodd" fill-opacity="1" stroke="#000000" stroke-opacity="1" stroke-width="3.2"/>
<circle clip-path="url(#clip981)" cx="1729.87" cy="1179.01" r="14.4" fill="#e26f46" fill-rule="evenodd" fill-opacity="1" stroke="#000000" stroke-opacity="1" stroke-width="3.2"/>
<circle clip-path="url(#clip981)" cx="2144.76" cy="1050.77" r="14.4" fill="#e26f46" fill-rule="evenodd" fill-opacity="1" stroke="#000000" stroke-opacity="1" stroke-width="3.2"/>
<circle clip-path="url(#clip981)" cx="718.553" cy="300.077" r="14.4" fill="#e26f46" fill-rule="evenodd" fill-opacity="1" stroke="#000000" stroke-opacity="1" stroke-width="3.2"/>
<circle clip-path="url(#clip981)" cx="430.069" cy="534.386" r="14.4" fill="#e26f46" fill-rule="evenodd" fill-opacity="1" stroke="#000000" stroke-opacity="1" stroke-width="3.2"/>
<circle clip-path="url(#clip981)" cx="358.759" cy="536.464" r="14.4" fill="#e26f46" fill-rule="evenodd" fill-opacity="1" stroke="#000000" stroke-opacity="1" stroke-width="3.2"/>
<circle clip-path="url(#clip981)" cx="786.622" cy="130.288" r="14.4" fill="#e26f46" fill-rule="evenodd" fill-opacity="1" stroke="#000000" stroke-opacity="1" stroke-width="3.2"/>
<circle clip-path="url(#clip981)" cx="1415.45" cy="969.607" r="14.4" fill="#e26f46" fill-rule="evenodd" fill-opacity="1" stroke="#000000" stroke-opacity="1" stroke-width="3.2"/>
<circle clip-path="url(#clip981)" cx="1674.76" cy="1357.43" r="14.4" fill="#e26f46" fill-rule="evenodd" fill-opacity="1" stroke="#000000" stroke-opacity="1" stroke-width="3.2"/>
<circle clip-path="url(#clip981)" cx="2284.14" cy="792.184" r="14.4" fill="#e26f46" fill-rule="evenodd" fill-opacity="1" stroke="#000000" stroke-opacity="1" stroke-width="3.2"/>
<circle clip-path="url(#clip981)" cx="413.863" cy="609.907" r="14.4" fill="#e26f46" fill-rule="evenodd" fill-opacity="1" stroke="#000000" stroke-opacity="1" stroke-width="3.2"/>
<circle clip-path="url(#clip981)" cx="660.208" cy="280.251" r="14.4" fill="#e26f46" fill-rule="evenodd" fill-opacity="1" stroke="#000000" stroke-opacity="1" stroke-width="3.2"/>
<circle clip-path="url(#clip981)" cx="306.897" cy="746.276" r="14.4" fill="#e26f46" fill-rule="evenodd" fill-opacity="1" stroke="#000000" stroke-opacity="1" stroke-width="3.2"/>
<circle clip-path="url(#clip981)" cx="1020" cy="519.154" r="14.4" fill="#e26f46" fill-rule="evenodd" fill-opacity="1" stroke="#000000" stroke-opacity="1" stroke-width="3.2"/>
<circle clip-path="url(#clip981)" cx="1596.97" cy="1239.8" r="14.4" fill="#e26f46" fill-rule="evenodd" fill-opacity="1" stroke="#000000" stroke-opacity="1" stroke-width="3.2"/>
<circle clip-path="url(#clip981)" cx="977.864" cy="474.423" r="14.4" fill="#e26f46" fill-rule="evenodd" fill-opacity="1" stroke="#000000" stroke-opacity="1" stroke-width="3.2"/>
<circle clip-path="url(#clip981)" cx="426.828" cy="641.7" r="14.4" fill="#e26f46" fill-rule="evenodd" fill-opacity="1" stroke="#000000" stroke-opacity="1" stroke-width="3.2"/>
<circle clip-path="url(#clip981)" cx="2274.42" cy="804.179" r="14.4" fill="#e26f46" fill-rule="evenodd" fill-opacity="1" stroke="#000000" stroke-opacity="1" stroke-width="3.2"/>
<circle clip-path="url(#clip981)" cx="1425.17" cy="1044.01" r="14.4" fill="#e26f46" fill-rule="evenodd" fill-opacity="1" stroke="#000000" stroke-opacity="1" stroke-width="3.2"/>
<path clip-path="url(#clip981)" d="M255.035 968.613 L258.276 962.925 L261.517 957.203 L264.759 951.451 L268 945.672 L271.242 939.871 L274.483 934.051 L277.724 928.219 L280.966 922.378 L284.207 916.535 L287.449 910.694 L290.69 904.863 L293.931 899.047 L297.173 893.254 L300.414 887.49 L303.655 881.762 L306.897 876.078 L310.138 870.445 L313.38 864.864 L316.621 859.337 L319.862 853.865 L323.104 848.45 L326.345 843.094 L329.587 837.8 L332.828 832.57 L336.069 827.408 L339.311 822.319 L342.552 817.305 L345.793 812.374 L349.035 807.531 L352.276 802.782 L355.518 798.134 L358.759 793.596 L362 789.174 L365.242 784.864 L368.483 780.664 L371.725 776.569 L374.966 772.579 L378.207 768.69 L381.449 764.902 L384.69 761.215 L387.931 757.63 L391.173 754.149 L394.414 750.774 L397.656 747.509 L400.897 744.357 L404.138 741.322 L407.38 738.411 L410.621 735.628 L413.863 732.978 L417.104 730.466 L420.345 728.092 L423.587 725.854 L426.828 723.749 L430.069 721.776 L433.311 719.927 L436.552 718.186 L439.794 716.537 L443.035 714.963 L446.276 713.448 L449.518 711.977 L452.759 710.536 L456.001 709.109 L459.242 707.684 L462.483 706.249 L465.725 704.792 L468.966 703.302 L472.208 701.769 L475.449 700.185 L478.69 698.541 L481.932 696.829 L485.173 695.044 L488.414 693.177 L491.656 691.225 L494.897 689.181 L498.139 687.042 L501.38 684.803 L504.621 682.462 L507.863 680.015 L511.104 677.46 L514.346 674.795 L517.587 672.018 L520.828 669.128 L524.07 666.124 L527.311 663.006 L530.552 659.772 L533.794 656.425 L537.035 652.963 L540.277 649.387 L543.518 645.699 L546.759 641.901 L550.001 637.993 L553.242 633.978 L556.484 629.857 L559.725 625.635 L562.966 621.313 L566.208 616.894 L569.449 612.384 L572.69 607.784 L575.932 603.1 L579.173 598.336 L582.415 593.497 L585.656 588.588 L588.897 583.616 L592.139 578.586 L595.38 573.505 L598.622 568.38 L601.863 563.219 L605.104 558.03 L608.346 552.821 L611.587 547.602 L614.828 542.382 L618.07 537.172 L621.311 531.982 L624.553 526.825 L627.794 521.712 L631.035 516.656 L634.277 511.672 L637.518 506.772 L640.76 501.973 L644.001 497.289 L647.242 492.736 L650.484 488.332 L653.725 484.093 L656.966 480.036 L660.208 476.179 L663.449 472.539 L666.691 469.124 L669.932 465.939 L673.173 462.98 L676.415 460.242 L679.656 457.718 L682.898 455.403 L686.139 453.291 L689.38 451.376 L692.622 449.655 L695.863 448.121 L699.104 446.773 L702.346 445.606 L705.587 444.617 L708.829 443.805 L712.07 443.167 L715.311 442.703 L718.553 442.412 L721.794 442.292 L725.036 442.337 L728.277 442.541 L731.518 442.898 L734.76 443.402 L738.001 444.048 L741.242 444.832 L744.484 445.75 L747.725 446.801 L750.967 447.981 L754.208 449.29 L757.449 450.727 L760.691 452.292 L763.932 453.986 L767.174 455.811 L770.415 457.768 L773.656 459.86 L776.898 462.09 L780.139 464.463 L783.381 466.981 L786.622 469.649 L789.863 472.468 L793.105 475.43 L796.346 478.521 L799.587 481.729 L802.829 485.043 L806.07 488.451 L809.312 491.941 L812.553 495.504 L815.794 499.13 L819.036 502.807 L822.277 506.528 L825.519 510.283 L828.76 514.064 L832.001 517.863 L835.243 521.673 L838.484 525.485 L841.725 529.294 L844.967 533.094 L848.208 536.877 L851.45 540.64 L854.691 544.376 L857.932 548.081 L861.174 551.75 L864.415 555.38 L867.657 558.966 L870.898 562.506 L874.139 565.996 L877.381 569.435 L880.622 572.818 L883.863 576.146 L887.105 579.416 L890.346 582.627 L893.588 585.778 L896.829 588.868 L900.07 591.898 L903.312 594.868 L906.553 597.779 L909.795 600.631 L913.036 603.426 L916.277 606.166 L919.519 608.854 L922.76 611.491 L926.001 614.082 L929.243 616.63 L932.484 619.139 L935.726 621.614 L938.967 624.059 L942.208 626.482 L945.45 628.888 L948.691 631.284 L951.933 633.677 L955.174 636.075 L958.415 638.488 L961.657 640.923 L964.898 643.391 L968.139 645.902 L971.381 648.467 L974.622 651.096 L977.864 653.801 L981.105 656.592 L984.346 659.473 L987.588 662.448 L990.829 665.518 L994.071 668.689 L997.312 671.962 L1000.55 675.343 L1003.79 678.836 L1007.04 682.445 L1010.28 686.175 L1013.52 690.032 L1016.76 694.02 L1020 698.145 L1023.24 702.412 L1026.48 706.816 L1029.73 711.356 L1032.97 716.027 L1036.21 720.825 L1039.45 725.748 L1042.69 730.793 L1045.93 735.957 L1049.17 741.237 L1052.42 746.632 L1055.66 752.139 L1058.9 757.758 L1062.14 763.488 L1065.38 769.327 L1068.62 775.276 L1071.86 781.333 L1075.11 787.497 L1078.35 793.758 L1081.59 800.105 L1084.83 806.528 L1088.07 813.016 L1091.31 819.558 L1094.55 826.145 L1097.79 832.768 L1101.04 839.418 L1104.28 846.086 L1107.52 852.764 L1110.76 859.445 L1114 866.121 L1117.24 872.786 L1120.48 879.433 L1123.73 886.056 L1126.97 892.65 L1130.21 899.21 L1133.45 905.73 L1136.69 912.206 L1139.93 918.633 L1143.17 925.009 L1146.42 931.328 L1149.66 937.587 L1152.9 943.784 L1156.14 949.915 L1159.38 955.977 L1162.62 961.969 L1165.86 967.886 L1169.11 973.728 L1172.35 979.492 L1175.59 985.177 L1178.83 990.78 L1182.07 996.3 L1185.31 1001.74 L1188.55 1007.08 L1191.8 1012.35 L1195.04 1017.52 L1198.28 1022.61 L1201.52 1027.6 L1204.76 1032.51 L1208 1037.32 L1211.24 1042.04 L1214.48 1046.67 L1217.73 1051.21 L1220.97 1055.65 L1224.21 1060 L1227.45 1064.26 L1230.69 1068.42 L1233.93 1072.49 L1237.17 1076.46 L1240.42 1080.34 L1243.66 1084.13 L1246.9 1087.83 L1250.14 1091.43 L1253.38 1094.94 L1256.62 1098.35 L1259.86 1101.68 L1263.11 1104.91 L1266.35 1108.06 L1269.59 1111.11 L1272.83 1114.08 L1276.07 1116.96 L1279.31 1119.75 L1282.55 1122.46 L1285.8 1125.08 L1289.04 1127.63 L1292.28 1130.09 L1295.52 1132.47 L1298.76 1134.77 L1302 1137 L1305.24 1139.16 L1308.48 1141.24 L1311.73 1143.26 L1314.97 1145.21 L1318.21 1147.1 L1321.45 1148.92 L1324.69 1150.69 L1327.93 1152.4 L1331.17 1154.07 L1334.42 1155.69 L1337.66 1157.26 L1340.9 1158.8 L1344.14 1160.31 L1347.38 1161.79 L1350.62 1163.24 L1353.86 1164.68 L1357.11 1166.11 L1360.35 1167.53 L1363.59 1168.96 L1366.83 1170.4 L1370.07 1171.86 L1373.31 1173.35 L1376.55 1174.87 L1379.8 1176.43 L1383.04 1178.05 L1386.28 1179.74 L1389.52 1181.49 L1392.76 1183.34 L1396 1185.28 L1399.24 1187.33 L1402.49 1189.49 L1405.73 1191.79 L1408.97 1194.23 L1412.21 1196.82 L1415.45 1199.57 L1418.69 1202.5 L1421.93 1205.6 L1425.17 1208.87 L1428.42 1212.31 L1431.66 1215.9 L1434.9 1219.63 L1438.14 1223.48 L1441.38 1227.46 L1444.62 1231.53 L1447.86 1235.69 L1451.11 1239.93 L1454.35 1244.23 L1457.59 1248.58 L1460.83 1252.96 L1464.07 1257.37 L1467.31 1261.8 L1470.55 1266.22 L1473.8 1270.64 L1477.04 1275.04 L1480.28 1279.42 L1483.52 1283.76 L1486.76 1288.06 L1490 1292.31 L1493.24 1296.5 L1496.49 1300.63 L1499.73 1304.69 L1502.97 1308.67 L1506.21 1312.57 L1509.45 1316.39 L1512.69 1320.13 L1515.93 1323.77 L1519.18 1327.32 L1522.42 1330.77 L1525.66 1334.12 L1528.9 1337.37 L1532.14 1340.52 L1535.38 1343.56 L1538.62 1346.51 L1541.86 1349.35 L1545.11 1352.08 L1548.35 1354.71 L1551.59 1357.25 L1554.83 1359.68 L1558.07 1362.01 L1561.31 1364.25 L1564.55 1366.39 L1567.8 1368.44 L1571.04 1370.41 L1574.28 1372.29 L1577.52 1374.09 L1580.76 1375.81 L1584 1377.47 L1587.24 1379.05 L1590.49 1380.58 L1593.73 1382.05 L1596.97 1383.47 L1600.21 1384.84 L1603.45 1386.16 L1606.69 1387.44 L1609.93 1388.66 L1613.18 1389.83 L1616.42 1390.95 L1619.66 1392.02 L1622.9 1393.02 L1626.14 1393.97 L1629.38 1394.87 L1632.62 1395.71 L1635.86 1396.5 L1639.11 1397.24 L1642.35 1397.92 L1645.59 1398.56 L1648.83 1399.15 L1652.07 1399.7 L1655.31 1400.22 L1658.55 1400.7 L1661.8 1401.15 L1665.04 1401.58 L1668.28 1401.99 L1671.52 1402.38 L1674.76 1402.77 L1678 1403.16 L1681.24 1403.55 L1684.49 1403.94 L1687.73 1404.34 L1690.97 1404.76 L1694.21 1405.18 L1697.45 1405.63 L1700.69 1406.1 L1703.93 1406.6 L1707.18 1407.13 L1710.42 1407.69 L1713.66 1408.29 L1716.9 1408.94 L1720.14 1409.64 L1723.38 1410.39 L1726.62 1411.2 L1729.87 1412.08 L1733.11 1413.02 L1736.35 1414.02 L1739.59 1415.08 L1742.83 1416.19 L1746.07 1417.33 L1749.31 1418.51 L1752.55 1419.72 L1755.8 1420.94 L1759.04 1422.18 L1762.28 1423.42 L1765.52 1424.67 L1768.76 1425.91 L1772 1427.15 L1775.24 1428.37 L1778.49 1429.58 L1781.73 1430.76 L1784.97 1431.92 L1788.21 1433.04 L1791.45 1434.14 L1794.69 1435.2 L1797.93 1436.22 L1801.18 1437.2 L1804.42 1438.13 L1807.66 1439.02 L1810.9 1439.86 L1814.14 1440.65 L1817.38 1441.39 L1820.62 1442.08 L1823.87 1442.71 L1827.11 1443.28 L1830.35 1443.8 L1833.59 1444.25 L1836.83 1444.65 L1840.07 1444.98 L1843.31 1445.26 L1846.55 1445.47 L1849.8 1445.61 L1853.04 1445.7 L1856.28 1445.72 L1859.52 1445.67 L1862.76 1445.56 L1866 1445.38 L1869.24 1445.13 L1872.49 1444.82 L1875.73 1444.44 L1878.97 1444 L1882.21 1443.48 L1885.45 1442.9 L1888.69 1442.25 L1891.93 1441.53 L1895.18 1440.75 L1898.42 1439.89 L1901.66 1438.97 L1904.9 1437.98 L1908.14 1436.91 L1911.38 1435.78 L1914.62 1434.58 L1917.87 1433.32 L1921.11 1431.98 L1924.35 1430.57 L1927.59 1429.09 L1930.83 1427.55 L1934.07 1425.93 L1937.31 1424.24 L1940.56 1422.49 L1943.8 1420.66 L1947.04 1418.77 L1950.28 1416.8 L1953.52 1414.77 L1956.76 1412.67 L1960 1410.49 L1963.24 1408.25 L1966.49 1405.94 L1969.73 1403.55 L1972.97 1401.1 L1976.21 1398.58 L1979.45 1395.99 L1982.69 1393.33 L1985.93 1390.6 L1989.18 1387.8 L1992.42 1384.93 L1995.66 1381.99 L1998.9 1378.99 L2002.14 1375.91 L2005.38 1372.77 L2008.62 1369.56 L2011.87 1366.28 L2015.11 1362.93 L2018.35 1359.52 L2021.59 1356.04 L2024.83 1352.49 L2028.07 1348.88 L2031.31 1345.2 L2034.56 1341.46 L2037.8 1337.66 L2041.04 1333.79 L2044.28 1329.87 L2047.52 1325.88 L2050.76 1321.83 L2054 1317.72 L2057.24 1313.56 L2060.49 1309.34 L2063.73 1305.06 L2066.97 1300.74 L2070.21 1296.36 L2073.45 1291.93 L2076.69 1287.46 L2079.93 1282.94 L2083.18 1278.38 L2086.42 1273.78 L2089.66 1269.14 L2092.9 1264.47 L2096.14 1259.77 L2099.38 1255.04 L2102.62 1250.29 L2105.87 1245.51 L2109.11 1240.72 L2112.35 1235.92 L2115.59 1231.1 L2118.83 1226.29 L2122.07 1221.47 L2125.31 1216.66 L2128.56 1211.86 L2131.8 1207.08 L2135.04 1202.31 L2138.28 1197.57 L2141.52 1192.87 L2144.76 1188.2 L2148 1183.56 L2151.25 1178.97 L2154.49 1174.42 L2157.73 1169.89 L2160.97 1165.4 L2164.21 1160.94 L2167.45 1156.51 L2170.69 1152.1 L2173.93 1147.72 L2177.18 1143.36 L2180.42 1139.02 L2183.66 1134.7 L2186.9 1130.41 L2190.14 1126.14 L2193.38 1121.88 L2196.62 1117.66 L2199.87 1113.46 L2203.11 1109.29 L2206.35 1105.15 L2209.59 1101.05 L2212.83 1096.99 L2216.07 1092.98 L2219.31 1089.02 L2222.56 1085.13 L2225.8 1081.3 L2229.04 1077.55 L2232.28 1073.89 L2235.52 1070.32 L2238.76 1066.86 L2242 1063.53 L2245.25 1060.32 L2248.49 1057.26 L2251.73 1054.36 L2254.97 1051.64 L2258.21 1049.1 L2261.45 1046.76 L2264.69 1044.64 L2267.94 1042.75 L2271.18 1041.11 L2274.42 1039.73 L2277.66 1038.62 L2280.9 1037.78 L2284.14 1037.23 L2287.38 1036.94 L2290.62 1036.92 L2290.62 626.624 L2287.38 630.795 L2284.14 634.822 L2280.9 638.694 L2277.66 642.409 L2274.42 645.966 L2271.18 649.365 L2267.94 652.614 L2264.69 655.721 L2261.45 658.696 L2258.21 661.548 L2254.97 664.286 L2251.73 666.921 L2248.49 669.46 L2245.25 671.913 L2242 674.288 L2238.76 676.594 L2235.52 678.837 L2232.28 681.023 L2229.04 683.16 L2225.8 685.252 L2222.56 687.304 L2219.31 689.318 L2216.07 691.299 L2212.83 693.248 L2209.59 695.166 L2206.35 697.055 L2203.11 698.913 L2199.87 700.74 L2196.62 702.534 L2193.38 704.293 L2190.14 706.014 L2186.9 707.693 L2183.66 709.326 L2180.42 710.908 L2177.18 712.433 L2173.93 713.897 L2170.69 715.291 L2167.45 716.611 L2164.21 717.848 L2160.97 718.995 L2157.73 720.044 L2154.49 720.988 L2151.25 721.818 L2148 722.527 L2144.76 723.105 L2141.52 723.548 L2138.28 723.861 L2135.04 724.053 L2131.8 724.134 L2128.56 724.111 L2125.31 723.993 L2122.07 723.788 L2118.83 723.505 L2115.59 723.152 L2112.35 722.736 L2109.11 722.265 L2105.87 721.746 L2102.62 721.186 L2099.38 720.591 L2096.14 719.968 L2092.9 719.324 L2089.66 718.663 L2086.42 717.992 L2083.18 717.316 L2079.93 716.641 L2076.69 715.97 L2073.45 715.309 L2070.21 714.662 L2066.97 714.034 L2063.73 713.428 L2060.49 712.849 L2057.24 712.299 L2054 711.783 L2050.76 711.303 L2047.52 710.863 L2044.28 710.466 L2041.04 710.114 L2037.8 709.811 L2034.56 709.558 L2031.31 709.358 L2028.07 709.214 L2024.83 709.127 L2021.59 709.1 L2018.35 709.134 L2015.11 709.232 L2011.87 709.394 L2008.62 709.624 L2005.38 709.921 L2002.14 710.288 L1998.9 710.727 L1995.66 711.237 L1992.42 711.822 L1989.18 712.481 L1985.93 713.215 L1982.69 714.027 L1979.45 714.917 L1976.21 715.885 L1972.97 716.932 L1969.73 718.06 L1966.49 719.269 L1963.24 720.559 L1960 721.932 L1956.76 723.387 L1953.52 724.926 L1950.28 726.549 L1947.04 728.255 L1943.8 730.046 L1940.56 731.922 L1937.31 733.883 L1934.07 735.929 L1930.83 738.06 L1927.59 740.277 L1924.35 742.579 L1921.11 744.967 L1917.87 747.44 L1914.62 749.999 L1911.38 752.643 L1908.14 755.371 L1904.9 758.185 L1901.66 761.083 L1898.42 764.065 L1895.18 767.131 L1891.93 770.28 L1888.69 773.511 L1885.45 776.824 L1882.21 780.219 L1878.97 783.694 L1875.73 787.248 L1872.49 790.882 L1869.24 794.593 L1866 798.381 L1862.76 802.244 L1859.52 806.181 L1856.28 810.191 L1853.04 814.272 L1849.8 818.424 L1846.55 822.643 L1843.31 826.928 L1840.07 831.278 L1836.83 835.69 L1833.59 840.161 L1830.35 844.691 L1827.11 849.275 L1823.87 853.912 L1820.62 858.598 L1817.38 863.33 L1814.14 868.106 L1810.9 872.921 L1807.66 877.772 L1804.42 882.656 L1801.18 887.566 L1797.93 892.501 L1794.69 897.454 L1791.45 902.42 L1788.21 907.395 L1784.97 912.373 L1781.73 917.347 L1778.49 922.313 L1775.24 927.261 L1772 932.187 L1768.76 937.083 L1765.52 941.94 L1762.28 946.75 L1759.04 951.506 L1755.8 956.198 L1752.55 960.816 L1749.31 965.351 L1746.07 969.793 L1742.83 974.131 L1739.59 978.354 L1736.35 982.452 L1733.11 986.412 L1729.87 990.224 L1726.62 993.876 L1723.38 997.367 L1720.14 1000.69 L1716.9 1003.85 L1713.66 1006.84 L1710.42 1009.66 L1707.18 1012.3 L1703.93 1014.77 L1700.69 1017.06 L1697.45 1019.16 L1694.21 1021.07 L1690.97 1022.79 L1687.73 1024.3 L1684.49 1025.62 L1681.24 1026.73 L1678 1027.62 L1674.76 1028.29 L1671.52 1028.74 L1668.28 1028.97 L1665.04 1029 L1661.8 1028.83 L1658.55 1028.47 L1655.31 1027.93 L1652.07 1027.23 L1648.83 1026.37 L1645.59 1025.35 L1642.35 1024.19 L1639.11 1022.88 L1635.86 1021.45 L1632.62 1019.88 L1629.38 1018.19 L1626.14 1016.37 L1622.9 1014.43 L1619.66 1012.38 L1616.42 1010.21 L1613.18 1007.93 L1609.93 1005.54 L1606.69 1003.03 L1603.45 1000.4 L1600.21 997.662 L1596.97 994.808 L1593.73 991.839 L1590.49 988.763 L1587.24 985.593 L1584 982.339 L1580.76 979.01 L1577.52 975.618 L1574.28 972.171 L1571.04 968.679 L1567.8 965.15 L1564.55 961.592 L1561.31 958.013 L1558.07 954.42 L1554.83 950.82 L1551.59 947.219 L1548.35 943.623 L1545.11 940.036 L1541.86 936.464 L1538.62 932.91 L1535.38 929.379 L1532.14 925.873 L1528.9 922.395 L1525.66 918.948 L1522.42 915.532 L1519.18 912.149 L1515.93 908.8 L1512.69 905.485 L1509.45 902.204 L1506.21 898.954 L1502.97 895.736 L1499.73 892.546 L1496.49 889.382 L1493.24 886.241 L1490 883.12 L1486.76 880.012 L1483.52 876.915 L1480.28 873.821 L1477.04 870.725 L1473.8 867.62 L1470.55 864.498 L1467.31 861.351 L1464.07 858.17 L1460.83 854.946 L1457.59 851.668 L1454.35 848.327 L1451.11 844.911 L1447.86 841.408 L1444.62 837.807 L1441.38 834.095 L1438.14 830.26 L1434.9 826.289 L1431.66 822.171 L1428.42 817.891 L1425.17 813.439 L1421.93 808.805 L1418.69 803.986 L1415.45 798.985 L1412.21 793.805 L1408.97 788.456 L1405.73 782.949 L1402.49 777.297 L1399.24 771.511 L1396 765.603 L1392.76 759.586 L1389.52 753.472 L1386.28 747.271 L1383.04 740.995 L1379.8 734.654 L1376.55 728.26 L1373.31 721.822 L1370.07 715.35 L1366.83 708.852 L1363.59 702.338 L1360.35 695.815 L1357.11 689.291 L1353.86 682.773 L1350.62 676.269 L1347.38 669.784 L1344.14 663.324 L1340.9 656.895 L1337.66 650.503 L1334.42 644.152 L1331.17 637.846 L1327.93 631.591 L1324.69 625.389 L1321.45 619.246 L1318.21 613.163 L1314.97 607.144 L1311.73 601.193 L1308.48 595.311 L1305.24 589.502 L1302 583.768 L1298.76 578.111 L1295.52 572.533 L1292.28 567.035 L1289.04 561.62 L1285.8 556.289 L1282.55 551.043 L1279.31 545.884 L1276.07 540.813 L1272.83 535.831 L1269.59 530.938 L1266.35 526.136 L1263.11 521.425 L1259.86 516.807 L1256.62 512.281 L1253.38 507.848 L1250.14 503.508 L1246.9 499.262 L1243.66 495.11 L1240.42 491.052 L1237.17 487.088 L1233.93 483.219 L1230.69 479.443 L1227.45 475.762 L1224.21 472.174 L1220.97 468.68 L1217.73 465.279 L1214.48 461.97 L1211.24 458.754 L1208 455.629 L1204.76 452.595 L1201.52 449.651 L1198.28 446.797 L1195.04 444.031 L1191.8 441.353 L1188.55 438.761 L1185.31 436.254 L1182.07 433.83 L1178.83 431.49 L1175.59 429.23 L1172.35 427.049 L1169.11 424.946 L1165.86 422.918 L1162.62 420.964 L1159.38 419.081 L1156.14 417.267 L1152.9 415.519 L1149.66 413.835 L1146.42 412.211 L1143.17 410.645 L1139.93 409.133 L1136.69 407.671 L1133.45 406.256 L1130.21 404.883 L1126.97 403.549 L1123.73 402.247 L1120.48 400.974 L1117.24 399.724 L1114 398.491 L1110.76 397.269 L1107.52 396.052 L1104.28 394.832 L1101.04 393.603 L1097.79 392.358 L1094.55 391.087 L1091.31 389.783 L1088.07 388.436 L1084.83 387.038 L1081.59 385.579 L1078.35 384.049 L1075.11 382.438 L1071.86 380.735 L1068.62 378.931 L1065.38 377.025 L1062.14 375.014 L1058.9 372.898 L1055.66 370.674 L1052.42 368.342 L1049.17 365.898 L1045.93 363.342 L1042.69 360.669 L1039.45 357.878 L1036.21 354.965 L1032.97 351.927 L1029.73 348.761 L1026.48 345.461 L1023.24 342.025 L1020 338.449 L1016.76 334.729 L1013.52 330.871 L1010.28 326.878 L1007.04 322.757 L1003.79 318.513 L1000.55 314.151 L997.312 309.674 L994.071 305.089 L990.829 300.399 L987.588 295.609 L984.346 290.722 L981.105 285.741 L977.864 280.67 L974.622 275.515 L971.381 270.285 L968.139 264.995 L964.898 259.656 L961.657 254.281 L958.415 248.881 L955.174 243.468 L951.933 238.053 L948.691 232.646 L945.45 227.257 L942.208 221.895 L938.967 216.569 L935.726 211.288 L932.484 206.059 L929.243 200.89 L926.001 195.788 L922.76 190.76 L919.519 185.811 L916.277 180.948 L913.036 176.176 L909.795 171.499 L906.553 166.924 L903.312 162.454 L900.07 158.094 L896.829 153.847 L893.588 149.716 L890.346 145.706 L887.105 141.819 L883.863 138.058 L880.622 134.426 L877.381 130.924 L874.139 127.556 L870.898 124.322 L867.657 121.224 L864.415 118.264 L861.174 115.443 L857.932 112.762 L854.691 110.221 L851.45 107.822 L848.208 105.564 L844.967 103.448 L841.725 101.473 L838.484 99.6389 L835.243 97.9453 L832.001 96.3912 L828.76 94.9754 L825.519 93.6968 L822.277 92.5536 L819.036 91.544 L815.794 90.6659 L812.553 89.9171 L809.312 89.2948 L806.07 88.7963 L802.829 88.4186 L799.587 88.1583 L796.346 88.0121 L793.105 87.9763 L789.863 88.0472 L786.622 88.2209 L783.381 88.494 L780.139 88.8644 L776.898 89.3304 L773.656 89.89 L770.415 90.5414 L767.174 91.2821 L763.932 92.1097 L760.691 93.0214 L757.449 94.0137 L754.208 95.0832 L750.967 96.2256 L747.725 97.4364 L744.484 98.7105 L741.242 100.042 L738.001 101.425 L734.76 102.854 L731.518 104.319 L728.277 105.815 L725.036 107.333 L721.794 108.863 L718.553 110.398 L715.311 111.93 L712.07 113.458 L708.829 114.981 L705.587 116.499 L702.346 118.013 L699.104 119.521 L695.863 121.021 L692.622 122.513 L689.38 123.995 L686.139 125.464 L682.898 126.918 L679.656 128.354 L676.415 129.77 L673.173 131.162 L669.932 132.528 L666.691 133.864 L663.449 135.17 L660.208 136.446 L656.966 137.696 L653.725 138.929 L650.484 140.155 L647.242 141.384 L644.001 142.625 L640.76 143.889 L637.518 145.184 L634.277 146.521 L631.035 147.906 L627.794 149.348 L624.553 150.855 L621.311 152.434 L618.07 154.09 L614.828 155.831 L611.587 157.66 L608.346 159.585 L605.104 161.608 L601.863 163.734 L598.622 165.966 L595.38 168.308 L592.139 170.763 L588.897 173.334 L585.656 176.021 L582.415 178.828 L579.173 181.755 L575.932 184.804 L572.69 187.976 L569.449 191.27 L566.208 194.689 L562.966 198.231 L559.725 201.897 L556.484 205.686 L553.242 209.597 L550.001 213.631 L546.759 217.784 L543.518 222.057 L540.277 226.448 L537.035 230.954 L533.794 235.574 L530.552 240.306 L527.311 245.146 L524.07 250.092 L520.828 255.142 L517.587 260.291 L514.346 265.536 L511.104 270.873 L507.863 276.297 L504.621 281.804 L501.38 287.389 L498.139 293.046 L494.897 298.77 L491.656 304.553 L488.414 310.39 L485.173 316.272 L481.932 322.191 L478.69 328.14 L475.449 334.108 L472.208 340.086 L468.966 346.064 L465.725 352.029 L462.483 357.97 L459.242 363.874 L456.001 369.726 L452.759 375.513 L449.518 381.218 L446.276 386.826 L443.035 392.319 L439.794 397.679 L436.552 402.89 L433.311 407.93 L430.069 412.783 L426.828 417.429 L423.587 421.857 L420.345 426.065 L417.104 430.052 L413.863 433.819 L410.621 437.367 L407.38 440.705 L404.138 443.841 L400.897 446.787 L397.656 449.551 L394.414 452.141 L391.173 454.567 L387.931 456.836 L384.69 458.954 L381.449 460.928 L378.207 462.762 L374.966 464.462 L371.725 466.031 L368.483 467.472 L365.242 468.785 L362 469.973 L358.759 471.037 L355.518 471.976 L352.276 472.792 L349.035 473.489 L345.793 474.068 L342.552 474.529 L339.311 474.874 L336.069 475.102 L332.828 475.212 L329.587 475.204 L326.345 475.074 L323.104 474.821 L319.862 474.441 L316.621 473.932 L313.38 473.289 L310.138 472.508 L306.897 471.584 L303.655 470.517 L300.414 469.312 L297.173 467.979 L293.931 466.527 L290.69 464.965 L287.449 463.301 L284.207 461.544 L280.966 459.701 L277.724 457.779 L274.483 455.786 L271.242 453.729 L268 451.613 L264.759 449.444 L261.517 447.228 L258.276 444.971 L255.035 442.678  Z" fill="#3da44d" fill-rule="evenodd" fill-opacity="0.1"/>
<polyline clip-path="url(#clip981)" style="stroke:#3da44d; stroke-linecap:round; stroke-linejoin:round; stroke-width:8; stroke-opacity:1; fill:none" points="255.035,705.645 258.276,703.948 261.517,702.216 264.759,700.447 268,698.642 271.242,696.8 274.483,694.919 277.724,692.999 280.966,691.04 284.207,689.039 287.449,686.998 290.69,684.914 293.931,682.787 297.173,680.616 300.414,678.401 303.655,676.139 306.897,673.831 310.138,671.476 313.38,669.076 316.621,666.634 319.862,664.153 323.104,661.636 326.345,659.084 329.587,656.502 332.828,653.891 336.069,651.255 339.311,648.596 342.552,645.917 345.793,643.221 349.035,640.51 352.276,637.787 355.518,635.055 358.759,632.316 362,629.573 365.242,626.825 368.483,624.068 371.725,621.3 374.966,618.52 378.207,615.726 381.449,612.915 384.69,610.084 387.931,607.233 391.173,604.358 394.414,601.458 397.656,598.53 400.897,595.572 404.138,592.582 407.38,589.558 410.621,586.497 413.863,583.399 417.104,580.259 420.345,577.078 423.587,573.855 426.828,570.589 430.069,567.28 433.311,563.929 436.552,560.538 439.794,557.108 443.035,553.641 446.276,550.137 449.518,546.598 452.759,543.024 456.001,539.418 459.242,535.779 462.483,532.11 465.725,528.41 468.966,524.683 472.208,520.928 475.449,517.147 478.69,513.34 481.932,509.51 485.173,505.658 488.414,501.783 491.656,497.889 494.897,493.975 498.139,490.044 501.38,486.096 504.621,482.133 507.863,478.156 511.104,474.167 514.346,470.166 517.587,466.155 520.828,462.135 524.07,458.108 527.311,454.076 530.552,450.039 533.794,445.999 537.035,441.958 540.277,437.917 543.518,433.878 546.759,429.842 550.001,425.812 553.242,421.787 556.484,417.772 559.725,413.766 562.966,409.772 566.208,405.792 569.449,401.827 572.69,397.88 575.932,393.952 579.173,390.045 582.415,386.162 585.656,382.305 588.897,378.475 592.139,374.675 595.38,370.907 598.622,367.173 601.863,363.476 605.104,359.819 608.346,356.203 611.587,352.631 614.828,349.106 618.07,345.631 621.311,342.208 624.553,338.84 627.794,335.53 631.035,332.281 634.277,329.096 637.518,325.978 640.76,322.931 644.001,319.957 647.242,317.06 650.484,314.243 653.725,311.511 656.966,308.866 660.208,306.313 663.449,303.854 666.691,301.494 669.932,299.233 673.173,297.071 676.415,295.006 679.656,293.036 682.898,291.161 686.139,289.377 689.38,287.686 692.622,286.084 695.863,284.571 699.104,283.147 702.346,281.809 705.587,280.558 708.829,279.393 712.07,278.312 715.311,277.317 718.553,276.405 721.794,275.577 725.036,274.835 728.277,274.178 731.518,273.609 734.76,273.128 738.001,272.737 741.242,272.437 744.484,272.23 747.725,272.119 750.967,272.103 754.208,272.187 757.449,272.37 760.691,272.657 763.932,273.048 767.174,273.546 770.415,274.155 773.656,274.875 776.898,275.71 780.139,276.664 783.381,277.737 786.622,278.935 789.863,280.258 793.105,281.703 796.346,283.267 799.587,284.944 802.829,286.731 806.07,288.623 809.312,290.618 812.553,292.711 815.794,294.898 819.036,297.176 822.277,299.541 825.519,301.99 828.76,304.52 832.001,307.127 835.243,309.809 838.484,312.562 841.725,315.384 844.967,318.271 848.208,321.221 851.45,324.231 854.691,327.299 857.932,330.421 861.174,333.596 864.415,336.822 867.657,340.095 870.898,343.414 874.139,346.776 877.381,350.18 880.622,353.622 883.863,357.102 887.105,360.618 890.346,364.166 893.588,367.747 896.829,371.357 900.07,374.996 903.312,378.661 906.553,382.352 909.795,386.065 913.036,389.801 916.277,393.557 919.519,397.332 922.76,401.126 926.001,404.935 929.243,408.76 932.484,412.599 935.726,416.451 938.967,420.314 942.208,424.189 945.45,428.073 948.691,431.965 951.933,435.865 955.174,439.772 958.415,443.684 961.657,447.602 964.898,451.524 968.139,455.448 971.381,459.376 974.622,463.305 977.864,467.236 981.105,471.166 984.346,475.097 987.588,479.028 990.829,482.959 994.071,486.889 997.312,490.818 1000.55,494.747 1003.79,498.675 1007.04,502.601 1010.28,506.527 1013.52,510.451 1016.76,514.375 1020,518.297 1023.24,522.218 1026.48,526.139 1029.73,530.058 1032.97,533.977 1036.21,537.895 1039.45,541.813 1042.69,545.731 1045.93,549.649 1049.17,553.567 1052.42,557.487 1055.66,561.407 1058.9,565.328 1062.14,569.251 1065.38,573.176 1068.62,577.104 1071.86,581.034 1075.11,584.967 1078.35,588.903 1081.59,592.842 1084.83,596.783 1088.07,600.726 1091.31,604.67 1094.55,608.616 1097.79,612.563 1101.04,616.511 1104.28,620.459 1107.52,624.408 1110.76,628.357 1114,632.306 1117.24,636.255 1120.48,640.203 1123.73,644.152 1126.97,648.099 1130.21,652.047 1133.45,655.993 1136.69,659.938 1139.93,663.883 1143.17,667.827 1146.42,671.769 1149.66,675.711 1152.9,679.652 1156.14,683.591 1159.38,687.529 1162.62,691.466 1165.86,695.402 1169.11,699.337 1172.35,703.271 1175.59,707.203 1178.83,711.135 1182.07,715.065 1185.31,718.994 1188.55,722.923 1191.8,726.85 1195.04,730.777 1198.28,734.703 1201.52,738.628 1204.76,742.552 1208,746.476 1211.24,750.399 1214.48,754.322 1217.73,758.244 1220.97,762.166 1224.21,766.088 1227.45,770.01 1230.69,773.932 1233.93,777.854 1237.17,781.776 1240.42,785.698 1243.66,789.621 1246.9,793.544 1250.14,797.467 1253.38,801.392 1256.62,805.316 1259.86,809.242 1263.11,813.169 1266.35,817.096 1269.59,821.025 1272.83,824.955 1276.07,828.886 1279.31,832.818 1282.55,836.752 1285.8,840.687 1289.04,844.623 1292.28,848.562 1295.52,852.501 1298.76,856.443 1302,860.386 1305.24,864.331 1308.48,868.278 1311.73,872.227 1314.97,876.177 1318.21,880.129 1321.45,884.084 1324.69,888.04 1327.93,891.998 1331.17,895.958 1334.42,899.92 1337.66,903.883 1340.9,907.849 1344.14,911.816 1347.38,915.785 1350.62,919.755 1353.86,923.727 1357.11,927.7 1360.35,931.675 1363.59,935.651 1366.83,939.628 1370.07,943.606 1373.31,947.584 1376.55,951.563 1379.8,955.543 1383.04,959.523 1386.28,963.503 1389.52,967.483 1392.76,971.462 1396,975.44 1399.24,979.418 1402.49,983.394 1405.73,987.369 1408.97,991.341 1412.21,995.312 1415.45,999.28 1418.69,1003.24 1421.93,1007.2 1425.17,1011.16 1428.42,1015.1 1431.66,1019.03 1434.9,1022.96 1438.14,1026.87 1441.38,1030.78 1444.62,1034.67 1447.86,1038.55 1451.11,1042.42 1454.35,1046.28 1457.59,1050.12 1460.83,1053.95 1464.07,1057.77 1467.31,1061.57 1470.55,1065.36 1473.8,1069.13 1477.04,1072.88 1480.28,1076.62 1483.52,1080.34 1486.76,1084.04 1490,1087.71 1493.24,1091.37 1496.49,1095 1499.73,1098.62 1502.97,1102.2 1506.21,1105.76 1509.45,1109.3 1512.69,1112.81 1515.93,1116.28 1519.18,1119.73 1522.42,1123.15 1525.66,1126.53 1528.9,1129.88 1532.14,1133.2 1535.38,1136.47 1538.62,1139.71 1541.86,1142.9 1545.11,1146.06 1548.35,1149.17 1551.59,1152.23 1554.83,1155.25 1558.07,1158.22 1561.31,1161.13 1564.55,1163.99 1567.8,1166.8 1571.04,1169.54 1574.28,1172.23 1577.52,1174.85 1580.76,1177.41 1584,1179.9 1587.24,1182.32 1590.49,1184.67 1593.73,1186.94 1596.97,1189.14 1600.21,1191.25 1603.45,1193.28 1606.69,1195.23 1609.93,1197.1 1613.18,1198.88 1616.42,1200.58 1619.66,1202.2 1622.9,1203.73 1626.14,1205.17 1629.38,1206.53 1632.62,1207.8 1635.86,1208.97 1639.11,1210.06 1642.35,1211.05 1645.59,1211.95 1648.83,1212.76 1652.07,1213.47 1655.31,1214.08 1658.55,1214.58 1661.8,1214.99 1665.04,1215.29 1668.28,1215.48 1671.52,1215.56 1674.76,1215.53 1678,1215.39 1681.24,1215.14 1684.49,1214.78 1687.73,1214.32 1690.97,1213.77 1694.21,1213.13 1697.45,1212.39 1700.69,1211.58 1703.93,1210.68 1707.18,1209.72 1710.42,1208.67 1713.66,1207.57 1716.9,1206.4 1720.14,1205.17 1723.38,1203.88 1726.62,1202.54 1729.87,1201.15 1733.11,1199.72 1736.35,1198.24 1739.59,1196.72 1742.83,1195.16 1746.07,1193.56 1749.31,1191.93 1752.55,1190.27 1755.8,1188.57 1759.04,1186.84 1762.28,1185.09 1765.52,1183.3 1768.76,1181.5 1772,1179.67 1775.24,1177.82 1778.49,1175.94 1781.73,1174.05 1784.97,1172.14 1788.21,1170.22 1791.45,1168.28 1794.69,1166.33 1797.93,1164.36 1801.18,1162.38 1804.42,1160.39 1807.66,1158.4 1810.9,1156.39 1814.14,1154.38 1817.38,1152.36 1820.62,1150.34 1823.87,1148.31 1827.11,1146.28 1830.35,1144.24 1833.59,1142.21 1836.83,1140.17 1840.07,1138.13 1843.31,1136.09 1846.55,1134.05 1849.8,1132.02 1853.04,1129.98 1856.28,1127.95 1859.52,1125.93 1862.76,1123.9 1866,1121.88 1869.24,1119.86 1872.49,1117.85 1875.73,1115.85 1878.97,1113.85 1882.21,1111.85 1885.45,1109.86 1888.69,1107.88 1891.93,1105.91 1895.18,1103.94 1898.42,1101.98 1901.66,1100.03 1904.9,1098.08 1908.14,1096.14 1911.38,1094.21 1914.62,1092.29 1917.87,1090.38 1921.11,1088.47 1924.35,1086.57 1927.59,1084.68 1930.83,1082.8 1934.07,1080.93 1937.31,1079.06 1940.56,1077.2 1943.8,1075.35 1947.04,1073.51 1950.28,1071.68 1953.52,1069.85 1956.76,1068.03 1960,1066.21 1963.24,1064.4 1966.49,1062.6 1969.73,1060.81 1972.97,1059.02 1976.21,1057.23 1979.45,1055.45 1982.69,1053.68 1985.93,1051.91 1989.18,1050.14 1992.42,1048.38 1995.66,1046.61 1998.9,1044.86 2002.14,1043.1 2005.38,1041.34 2008.62,1039.59 2011.87,1037.84 2015.11,1036.08 2018.35,1034.33 2021.59,1032.57 2024.83,1030.81 2028.07,1029.05 2031.31,1027.28 2034.56,1025.51 2037.8,1023.74 2041.04,1021.95 2044.28,1020.17 2047.52,1018.37 2050.76,1016.57 2054,1014.75 2057.24,1012.93 2060.49,1011.09 2063.73,1009.25 2066.97,1007.39 2070.21,1005.51 2073.45,1003.62 2076.69,1001.71 2079.93,999.791 2083.18,997.848 2086.42,995.886 2089.66,993.903 2092.9,991.898 2096.14,989.869 2099.38,987.815 2102.62,985.736 2105.87,983.629 2109.11,981.492 2112.35,979.326 2115.59,977.128 2118.83,974.896 2122.07,972.63 2125.31,970.327 2128.56,967.986 2131.8,965.605 2135.04,963.183 2138.28,960.718 2141.52,958.208 2144.76,955.651 2148,953.046 2151.25,950.395 2154.49,947.702 2157.73,944.969 2160.97,942.199 2164.21,939.395 2167.45,936.56 2170.69,933.697 2173.93,930.808 2177.18,927.896 2180.42,924.964 2183.66,922.015 2186.9,919.051 2190.14,916.075 2193.38,913.089 2196.62,910.096 2199.87,907.1 2203.11,904.101 2206.35,901.103 2209.59,898.109 2212.83,895.12 2216.07,892.14 2219.31,889.171 2222.56,886.215 2225.8,883.276 2229.04,880.355 2232.28,877.455 2235.52,874.579 2238.76,871.729 2242,868.908 2245.25,866.118 2248.49,863.362 2251.73,860.643 2254.97,857.962 2258.21,855.323 2261.45,852.729 2264.69,850.181 2267.94,847.683 2271.18,845.237 2274.42,842.847 2277.66,840.514 2280.9,838.239 2284.14,836.024 2287.38,833.869 2290.62,831.772 "/>
<polyline clip-path="url(#clip981)" style="stroke:#c271d2; stroke-linecap:round; stroke-linejoin:round; stroke-width:12; stroke-opacity:1; fill:none" points="255.035,883.015 362.225,736.956 469.416,644.849 576.607,534.09 683.797,401.368 790.988,410.744 898.179,519.415 1005.37,621.986 1112.56,787.438 1219.75,958.523 1326.94,1066.9 1434.13,1154.7 1541.32,1281.66 1648.51,1338.42 1755.7,1345.29 1862.89,1340.82 1970.09,1291.74 2077.28,1193.79 2184.47,1064.51 2291.66,969.96 "/>
<polyline clip-path="url(#clip981)" style="stroke:#ac8d18; stroke-linecap:round; stroke-linejoin:round; stroke-width:12; stroke-opacity:1; fill:none" points="255.035,528.276 362.225,521.809 469.416,403.477 576.607,252.183 683.797,179.945 790.988,150.747 898.179,226.324 1005.37,379.179 1112.56,473.66 1219.75,562.864 1326.94,714.677 1434.13,889.356 1541.32,1003.09 1648.51,1086.95 1755.7,1031.94 1862.89,906.811 1970.09,829.476 2077.28,808.951 2184.47,778.047 2291.66,692.272 "/>
<path clip-path="url(#clip980)" d="M1953.46 406.258 L2280.8 406.258 L2280.8 95.2176 L1953.46 95.2176  Z" fill="#ffffff" fill-rule="evenodd" fill-opacity="1"/>
<polyline clip-path="url(#clip980)" style="stroke:#000000; stroke-linecap:round; stroke-linejoin:round; stroke-width:4; stroke-opacity:1; fill:none" points="1953.46,406.258 2280.8,406.258 2280.8,95.2176 1953.46,95.2176 1953.46,406.258 "/>
<polyline clip-path="url(#clip980)" style="stroke:#009af9; stroke-linecap:round; stroke-linejoin:round; stroke-width:4; stroke-opacity:1; fill:none" points="1977.44,147.058 2121.36,147.058 "/>
<path clip-path="url(#clip980)" d="M2152.76 131.051 L2152.76 138.412 L2161.53 138.412 L2161.53 141.722 L2152.76 141.722 L2152.76 155.796 Q2152.76 158.967 2153.61 159.87 Q2154.49 160.773 2157.16 160.773 L2161.53 160.773 L2161.53 164.338 L2157.16 164.338 Q2152.23 164.338 2150.35 162.509 Q2148.48 160.657 2148.48 155.796 L2148.48 141.722 L2145.35 141.722 L2145.35 138.412 L2148.48 138.412 L2148.48 131.051 L2152.76 131.051 Z" fill="#000000" fill-rule="nonzero" fill-opacity="1" /><path clip-path="url(#clip980)" d="M2182.16 142.393 Q2181.44 141.977 2180.58 141.791 Q2179.75 141.583 2178.73 141.583 Q2175.12 141.583 2173.17 143.944 Q2171.25 146.282 2171.25 150.68 L2171.25 164.338 L2166.97 164.338 L2166.97 138.412 L2171.25 138.412 L2171.25 142.44 Q2172.6 140.078 2174.75 138.944 Q2176.9 137.787 2179.98 137.787 Q2180.42 137.787 2180.95 137.856 Q2181.48 137.903 2182.13 138.018 L2182.16 142.393 Z" fill="#000000" fill-rule="nonzero" fill-opacity="1" /><path clip-path="url(#clip980)" d="M2186.18 154.106 L2186.18 138.412 L2190.44 138.412 L2190.44 153.944 Q2190.44 157.625 2191.88 159.476 Q2193.31 161.305 2196.18 161.305 Q2199.63 161.305 2201.62 159.106 Q2203.64 156.907 2203.64 153.111 L2203.64 138.412 L2207.9 138.412 L2207.9 164.338 L2203.64 164.338 L2203.64 160.356 Q2202.09 162.717 2200.03 163.875 Q2197.99 165.009 2195.28 165.009 Q2190.81 165.009 2188.5 162.231 Q2186.18 159.453 2186.18 154.106 M2196.9 137.787 L2196.9 137.787 Z" fill="#000000" fill-rule="nonzero" fill-opacity="1" /><path clip-path="url(#clip980)" d="M2220.88 131.051 L2220.88 138.412 L2229.66 138.412 L2229.66 141.722 L2220.88 141.722 L2220.88 155.796 Q2220.88 158.967 2221.74 159.87 Q2222.62 160.773 2225.28 160.773 L2229.66 160.773 L2229.66 164.338 L2225.28 164.338 Q2220.35 164.338 2218.48 162.509 Q2216.6 160.657 2216.6 155.796 L2216.6 141.722 L2213.48 141.722 L2213.48 138.412 L2216.6 138.412 L2216.6 131.051 L2220.88 131.051 Z" fill="#000000" fill-rule="nonzero" fill-opacity="1" /><path clip-path="url(#clip980)" d="M2256.81 148.689 L2256.81 164.338 L2252.55 164.338 L2252.55 148.828 Q2252.55 145.148 2251.11 143.319 Q2249.68 141.49 2246.81 141.49 Q2243.36 141.49 2241.37 143.69 Q2239.38 145.889 2239.38 149.685 L2239.38 164.338 L2235.1 164.338 L2235.1 128.319 L2239.38 128.319 L2239.38 142.44 Q2240.91 140.102 2242.97 138.944 Q2245.05 137.787 2247.76 137.787 Q2252.23 137.787 2254.52 140.565 Q2256.81 143.319 2256.81 148.689 Z" fill="#000000" fill-rule="nonzero" fill-opacity="1" /><circle clip-path="url(#clip980)" cx="2049.4" cy="198.898" r="20.48" fill="#e26f46" fill-rule="evenodd" fill-opacity="1" stroke="#000000" stroke-opacity="1" stroke-width="4.55111"/>
<path clip-path="url(#clip980)" d="M2164.26 194.187 L2164.26 180.159 L2168.52 180.159 L2168.52 216.178 L2164.26 216.178 L2164.26 212.289 Q2162.92 214.603 2160.86 215.738 Q2158.82 216.849 2155.95 216.849 Q2151.25 216.849 2148.29 213.099 Q2145.35 209.349 2145.35 203.238 Q2145.35 197.127 2148.29 193.377 Q2151.25 189.627 2155.95 189.627 Q2158.82 189.627 2160.86 190.761 Q2162.92 191.872 2164.26 194.187 M2149.75 203.238 Q2149.75 207.937 2151.67 210.622 Q2153.61 213.284 2156.99 213.284 Q2160.37 213.284 2162.32 210.622 Q2164.26 207.937 2164.26 203.238 Q2164.26 198.539 2162.32 195.877 Q2160.37 193.192 2156.99 193.192 Q2153.61 193.192 2151.67 195.877 Q2149.75 198.539 2149.75 203.238 Z" fill="#000000" fill-rule="nonzero" fill-opacity="1" /><path clip-path="url(#clip980)" d="M2189.08 203.145 Q2183.92 203.145 2181.92 204.326 Q2179.93 205.506 2179.93 208.354 Q2179.93 210.622 2181.42 211.965 Q2182.92 213.284 2185.49 213.284 Q2189.03 213.284 2191.16 210.784 Q2193.31 208.261 2193.31 204.094 L2193.31 203.145 L2189.08 203.145 M2197.57 201.386 L2197.57 216.178 L2193.31 216.178 L2193.31 212.242 Q2191.85 214.603 2189.68 215.738 Q2187.5 216.849 2184.36 216.849 Q2180.37 216.849 2178.01 214.627 Q2175.67 212.381 2175.67 208.631 Q2175.67 204.256 2178.59 202.034 Q2181.53 199.812 2187.34 199.812 L2193.31 199.812 L2193.31 199.395 Q2193.31 196.455 2191.37 194.858 Q2189.45 193.238 2185.95 193.238 Q2183.73 193.238 2181.62 193.77 Q2179.52 194.303 2177.57 195.367 L2177.57 191.432 Q2179.91 190.53 2182.11 190.09 Q2184.31 189.627 2186.39 189.627 Q2192.02 189.627 2194.79 192.543 Q2197.57 195.46 2197.57 201.386 Z" fill="#000000" fill-rule="nonzero" fill-opacity="1" /><path clip-path="url(#clip980)" d="M2210.56 182.891 L2210.56 190.252 L2219.33 190.252 L2219.33 193.562 L2210.56 193.562 L2210.56 207.636 Q2210.56 210.807 2211.42 211.71 Q2212.29 212.613 2214.96 212.613 L2219.33 212.613 L2219.33 216.178 L2214.96 216.178 Q2210.03 216.178 2208.15 214.349 Q2206.28 212.497 2206.28 207.636 L2206.28 193.562 L2203.15 193.562 L2203.15 190.252 L2206.28 190.252 L2206.28 182.891 L2210.56 182.891 Z" fill="#000000" fill-rule="nonzero" fill-opacity="1" /><path clip-path="url(#clip980)" d="M2236.72 203.145 Q2231.55 203.145 2229.56 204.326 Q2227.57 205.506 2227.57 208.354 Q2227.57 210.622 2229.05 211.965 Q2230.56 213.284 2233.13 213.284 Q2236.67 213.284 2238.8 210.784 Q2240.95 208.261 2240.95 204.094 L2240.95 203.145 L2236.72 203.145 M2245.21 201.386 L2245.21 216.178 L2240.95 216.178 L2240.95 212.242 Q2239.49 214.603 2237.32 215.738 Q2235.14 216.849 2231.99 216.849 Q2228.01 216.849 2225.65 214.627 Q2223.31 212.381 2223.31 208.631 Q2223.31 204.256 2226.23 202.034 Q2229.17 199.812 2234.98 199.812 L2240.95 199.812 L2240.95 199.395 Q2240.95 196.455 2239.01 194.858 Q2237.09 193.238 2233.59 193.238 Q2231.37 193.238 2229.26 193.77 Q2227.16 194.303 2225.21 195.367 L2225.21 191.432 Q2227.55 190.53 2229.75 190.09 Q2231.95 189.627 2234.03 189.627 Q2239.66 189.627 2242.43 192.543 Q2245.21 195.46 2245.21 201.386 Z" fill="#000000" fill-rule="nonzero" fill-opacity="1" /><polyline clip-path="url(#clip980)" style="stroke:#3da44d; stroke-linecap:round; stroke-linejoin:round; stroke-width:8; stroke-opacity:1; fill:none" points="1977.44,250.738 2121.36,250.738 "/>
<path clip-path="url(#clip980)" d="M2170.91 263.087 L2170.91 253.805 L2163.27 253.805 L2163.27 249.962 L2175.54 249.962 L2175.54 264.8 Q2172.83 266.721 2169.56 267.717 Q2166.3 268.689 2162.6 268.689 Q2154.49 268.689 2149.91 263.967 Q2145.35 259.221 2145.35 250.772 Q2145.35 242.3 2149.91 237.578 Q2154.49 232.833 2162.6 232.833 Q2165.98 232.833 2169.01 233.666 Q2172.06 234.499 2174.63 236.12 L2174.63 241.096 Q2172.04 238.897 2169.12 237.786 Q2166.21 236.675 2162.99 236.675 Q2156.65 236.675 2153.45 240.217 Q2150.28 243.758 2150.28 250.772 Q2150.28 257.763 2153.45 261.305 Q2156.65 264.846 2162.99 264.846 Q2165.47 264.846 2167.41 264.43 Q2169.36 263.99 2170.91 263.087 Z" fill="#000000" fill-rule="nonzero" fill-opacity="1" /><path clip-path="url(#clip980)" d="M2188.75 237.3 L2188.75 250.286 L2194.63 250.286 Q2197.9 250.286 2199.68 248.596 Q2201.46 246.907 2201.46 243.782 Q2201.46 240.68 2199.68 238.99 Q2197.9 237.3 2194.63 237.3 L2188.75 237.3 M2184.08 233.458 L2194.63 233.458 Q2200.44 233.458 2203.41 236.096 Q2206.39 238.712 2206.39 243.782 Q2206.39 248.897 2203.41 251.513 Q2200.44 254.129 2194.63 254.129 L2188.75 254.129 L2188.75 268.018 L2184.08 268.018 L2184.08 233.458 Z" fill="#000000" fill-rule="nonzero" fill-opacity="1" /><polyline clip-path="url(#clip980)" style="stroke:#c271d2; stroke-linecap:round; stroke-linejoin:round; stroke-width:12; stroke-opacity:1; fill:none" points="1977.44,302.578 2121.36,302.578 "/>
<path clip-path="url(#clip980)" d="M2150.03 289.14 L2150.03 302.126 L2155.91 302.126 Q2159.17 302.126 2160.95 300.436 Q2162.73 298.747 2162.73 295.622 Q2162.73 292.52 2160.95 290.83 Q2159.17 289.14 2155.91 289.14 L2150.03 289.14 M2145.35 285.298 L2155.91 285.298 Q2161.72 285.298 2164.68 287.936 Q2167.67 290.552 2167.67 295.622 Q2167.67 300.737 2164.68 303.353 Q2161.72 305.969 2155.91 305.969 L2150.03 305.969 L2150.03 319.858 L2145.35 319.858 L2145.35 285.298 Z" fill="#000000" fill-rule="nonzero" fill-opacity="1" /><path clip-path="url(#clip980)" d="M2178.38 315.922 L2194.7 315.922 L2194.7 319.858 L2172.76 319.858 L2172.76 315.922 Q2175.42 313.168 2180 308.538 Q2184.61 303.885 2185.79 302.543 Q2188.04 300.02 2188.92 298.284 Q2189.82 296.524 2189.82 294.835 Q2189.82 292.08 2187.87 290.344 Q2185.95 288.608 2182.85 288.608 Q2180.65 288.608 2178.2 289.372 Q2175.77 290.135 2172.99 291.686 L2172.99 286.964 Q2175.81 285.83 2178.27 285.251 Q2180.72 284.673 2182.76 284.673 Q2188.13 284.673 2191.32 287.358 Q2194.52 290.043 2194.52 294.534 Q2194.52 296.663 2193.71 298.585 Q2192.92 300.483 2190.81 303.075 Q2190.23 303.747 2187.13 306.964 Q2184.03 310.159 2178.38 315.922 Z" fill="#000000" fill-rule="nonzero" fill-opacity="1" /><path clip-path="url(#clip980)" d="M2204.56 285.298 L2222.92 285.298 L2222.92 289.233 L2208.85 289.233 L2208.85 297.705 Q2209.86 297.358 2210.88 297.196 Q2211.9 297.01 2212.92 297.01 Q2218.71 297.01 2222.09 300.182 Q2225.47 303.353 2225.47 308.77 Q2225.47 314.348 2221.99 317.45 Q2218.52 320.529 2212.2 320.529 Q2210.03 320.529 2207.76 320.158 Q2205.51 319.788 2203.1 319.047 L2203.1 314.348 Q2205.19 315.483 2207.41 316.038 Q2209.63 316.594 2212.11 316.594 Q2216.11 316.594 2218.45 314.487 Q2220.79 312.381 2220.79 308.77 Q2220.79 305.159 2218.45 303.052 Q2216.11 300.946 2212.11 300.946 Q2210.23 300.946 2208.36 301.362 Q2206.51 301.779 2204.56 302.659 L2204.56 285.298 Z" fill="#000000" fill-rule="nonzero" fill-opacity="1" /><polyline clip-path="url(#clip980)" style="stroke:#ac8d18; stroke-linecap:round; stroke-linejoin:round; stroke-width:12; stroke-opacity:1; fill:none" points="1977.44,354.418 2121.36,354.418 "/>
<path clip-path="url(#clip980)" d="M2150.03 340.98 L2150.03 353.966 L2155.91 353.966 Q2159.17 353.966 2160.95 352.276 Q2162.73 350.587 2162.73 347.462 Q2162.73 344.36 2160.95 342.67 Q2159.17 340.98 2155.91 340.98 L2150.03 340.98 M2145.35 337.138 L2155.91 337.138 Q2161.72 337.138 2164.68 339.776 Q2167.67 342.392 2167.67 347.462 Q2167.67 352.577 2164.68 355.193 Q2161.72 357.809 2155.91 357.809 L2150.03 357.809 L2150.03 371.698 L2145.35 371.698 L2145.35 337.138 Z" fill="#000000" fill-rule="nonzero" fill-opacity="1" /><path clip-path="url(#clip980)" d="M2173.17 337.138 L2195.4 337.138 L2195.4 339.128 L2182.85 371.698 L2177.97 371.698 L2189.77 341.073 L2173.17 341.073 L2173.17 337.138 Z" fill="#000000" fill-rule="nonzero" fill-opacity="1" /><path clip-path="url(#clip980)" d="M2204.56 337.138 L2222.92 337.138 L2222.92 341.073 L2208.85 341.073 L2208.85 349.545 Q2209.86 349.198 2210.88 349.036 Q2211.9 348.85 2212.92 348.85 Q2218.71 348.85 2222.09 352.022 Q2225.47 355.193 2225.47 360.61 Q2225.47 366.188 2221.99 369.29 Q2218.52 372.369 2212.2 372.369 Q2210.03 372.369 2207.76 371.998 Q2205.51 371.628 2203.1 370.887 L2203.1 366.188 Q2205.19 367.323 2207.41 367.878 Q2209.63 368.434 2212.11 368.434 Q2216.11 368.434 2218.45 366.327 Q2220.79 364.221 2220.79 360.61 Q2220.79 356.999 2218.45 354.892 Q2216.11 352.786 2212.11 352.786 Q2210.23 352.786 2208.36 353.202 Q2206.51 353.619 2204.56 354.499 L2204.56 337.138 Z" fill="#000000" fill-rule="nonzero" fill-opacity="1" /></svg>
