<?xml version="1.0" encoding="utf-8"?>
<svg xmlns="http://www.w3.org/2000/svg" xmlns:xlink="http://www.w3.org/1999/xlink" width="600" height="400" viewBox="0 0 2400 1600">
<defs>
  <clipPath id="clip050">
    <rect x="0" y="0" width="2400" height="1600"/>
  </clipPath>
</defs>
<path clip-path="url(#clip050)" d="M0 1600 L2400 1600 L2400 0 L0 0  Z" fill="#ffffff" fill-rule="evenodd" fill-opacity="1"/>
<defs>
  <clipPath id="clip051">
    <rect x="193" y="47" width="2160" height="1440"/>
  </clipPath>
</defs>
<path clip-path="url(#clip050)" d="M193.936 1486.45 L2352.76 1486.45 L2352.76 47.2441 L193.936 47.2441  Z" fill="#ffffff" fill-rule="evenodd" fill-opacity="1"/>
<polyline clip-path="url(#clip051)" style="stroke:#000000; stroke-linecap:round; stroke-linejoin:round; stroke-width:2; stroke-opacity:0.1; fill:none" points="255.035,1486.45 255.035,47.2441 "/>
<polyline clip-path="url(#clip051)" style="stroke:#000000; stroke-linecap:round; stroke-linejoin:round; stroke-width:2; stroke-opacity:0.1; fill:none" points="579.173,1486.45 579.173,47.2441 "/>
<polyline clip-path="url(#clip051)" style="stroke:#000000; stroke-linecap:round; stroke-linejoin:round; stroke-width:2; stroke-opacity:0.1; fill:none" points="903.312,1486.45 903.312,47.2441 "/>
<polyline clip-path="url(#clip051)" style="stroke:#000000; stroke-linecap:round; stroke-linejoin:round; stroke-width:2; stroke-opacity:0.1; fill:none" points="1227.45,1486.45 1227.45,47.2441 "/>
<polyline clip-path="url(#clip051)" style="stroke:#000000; stroke-linecap:round; stroke-linejoin:round; stroke-width:2; stroke-opacity:0.1; fill:none" points="1551.59,1486.45 1551.59,47.2441 "/>
<polyline clip-path="url(#clip051)" style="stroke:#000000; stroke-linecap:round; stroke-linejoin:round; stroke-width:2; stroke-opacity:0.1; fill:none" points="1875.73,1486.45 1875.73,47.2441 "/>
<polyline clip-path="url(#clip051)" style="stroke:#000000; stroke-linecap:round; stroke-linejoin:round; stroke-width:2; stroke-opacity:0.1; fill:none" points="2199.87,1486.45 2199.87,47.2441 "/>
<polyline clip-path="url(#clip051)" style="stroke:#000000; stroke-linecap:round; stroke-linejoin:round; stroke-width:2; stroke-opacity:0.1; fill:none" points="193.936,1273.97 2352.76,1273.97 "/>
<polyline clip-path="url(#clip051)" style="stroke:#000000; stroke-linecap:round; stroke-linejoin:round; stroke-width:2; stroke-opacity:0.1; fill:none" points="193.936,1019.8 2352.76,1019.8 "/>
<polyline clip-path="url(#clip051)" style="stroke:#000000; stroke-linecap:round; stroke-linejoin:round; stroke-width:2; stroke-opacity:0.1; fill:none" points="193.936,765.635 2352.76,765.635 "/>
<polyline clip-path="url(#clip051)" style="stroke:#000000; stroke-linecap:round; stroke-linejoin:round; stroke-width:2; stroke-opacity:0.1; fill:none" points="193.936,511.466 2352.76,511.466 "/>
<polyline clip-path="url(#clip051)" style="stroke:#000000; stroke-linecap:round; stroke-linejoin:round; stroke-width:2; stroke-opacity:0.1; fill:none" points="193.936,257.296 2352.76,257.296 "/>
<polyline clip-path="url(#clip050)" style="stroke:#000000; stroke-linecap:round; stroke-linejoin:round; stroke-width:4; stroke-opacity:1; fill:none" points="193.936,1486.45 2352.76,1486.45 "/>
<polyline clip-path="url(#clip050)" style="stroke:#000000; stroke-linecap:round; stroke-linejoin:round; stroke-width:4; stroke-opacity:1; fill:none" points="255.035,1486.45 255.035,1467.55 "/>
<polyline clip-path="url(#clip050)" style="stroke:#000000; stroke-linecap:round; stroke-linejoin:round; stroke-width:4; stroke-opacity:1; fill:none" points="579.173,1486.45 579.173,1467.55 "/>
<polyline clip-path="url(#clip050)" style="stroke:#000000; stroke-linecap:round; stroke-linejoin:round; stroke-width:4; stroke-opacity:1; fill:none" points="903.312,1486.45 903.312,1467.55 "/>
<polyline clip-path="url(#clip050)" style="stroke:#000000; stroke-linecap:round; stroke-linejoin:round; stroke-width:4; stroke-opacity:1; fill:none" points="1227.45,1486.45 1227.45,1467.55 "/>
<polyline clip-path="url(#clip050)" style="stroke:#000000; stroke-linecap:round; stroke-linejoin:round; stroke-width:4; stroke-opacity:1; fill:none" points="1551.59,1486.45 1551.59,1467.55 "/>
<polyline clip-path="url(#clip050)" style="stroke:#000000; stroke-linecap:round; stroke-linejoin:round; stroke-width:4; stroke-opacity:1; fill:none" points="1875.73,1486.45 1875.73,1467.55 "/>
<polyline clip-path="url(#clip050)" style="stroke:#000000; stroke-linecap:round; stroke-linejoin:round; stroke-width:4; stroke-opacity:1; fill:none" points="2199.87,1486.45 2199.87,1467.55 "/>
<path clip-path="url(#clip050)" d="M255.035 1517.37 Q251.424 1517.37 249.595 1520.93 Q247.789 1524.47 247.789 1531.6 Q247.789 1538.71 249.595 1542.27 Q251.424 1545.82 255.035 1545.82 Q258.669 1545.82 260.474 1542.27 Q262.303 1538.71 262.303 1531.6 Q262.303 1524.47 260.474 1520.93 Q258.669 1517.37 255.035 1517.37 M255.035 1513.66 Q260.845 1513.66 263.9 1518.27 Q266.979 1522.85 266.979 1531.6 Q266.979 1540.33 263.9 1544.94 Q260.845 1549.52 255.035 1549.52 Q249.225 1549.52 246.146 1544.94 Q243.09 1540.33 243.09 1531.6 Q243.09 1522.85 246.146 1518.27 Q249.225 1513.66 255.035 1513.66 Z" fill="#000000" fill-rule="nonzero" fill-opacity="1" /><path clip-path="url(#clip050)" d="M569.555 1544.91 L577.194 1544.91 L577.194 1518.55 L568.884 1520.21 L568.884 1515.95 L577.148 1514.29 L581.824 1514.29 L581.824 1544.91 L589.463 1544.91 L589.463 1548.85 L569.555 1548.85 L569.555 1544.91 Z" fill="#000000" fill-rule="nonzero" fill-opacity="1" /><path clip-path="url(#clip050)" d="M897.965 1544.91 L914.284 1544.91 L914.284 1548.85 L892.34 1548.85 L892.34 1544.91 Q895.002 1542.16 899.585 1537.53 Q904.191 1532.88 905.372 1531.53 Q907.617 1529.01 908.497 1527.27 Q909.4 1525.51 909.4 1523.82 Q909.4 1521.07 907.455 1519.33 Q905.534 1517.6 902.432 1517.6 Q900.233 1517.6 897.779 1518.36 Q895.349 1519.13 892.571 1520.68 L892.571 1515.95 Q895.395 1514.82 897.849 1514.24 Q900.303 1513.66 902.34 1513.66 Q907.71 1513.66 910.904 1516.35 Q914.099 1519.03 914.099 1523.52 Q914.099 1525.65 913.289 1527.57 Q912.502 1529.47 910.395 1532.07 Q909.816 1532.74 906.715 1535.95 Q903.613 1539.15 897.965 1544.91 Z" fill="#000000" fill-rule="nonzero" fill-opacity="1" /><path clip-path="url(#clip050)" d="M1231.7 1530.21 Q1235.05 1530.93 1236.93 1533.2 Q1238.83 1535.47 1238.83 1538.8 Q1238.83 1543.92 1235.31 1546.72 Q1231.79 1549.52 1225.31 1549.52 Q1223.13 1549.52 1220.82 1549.08 Q1218.53 1548.66 1216.07 1547.81 L1216.07 1543.29 Q1218.02 1544.43 1220.33 1545.01 Q1222.65 1545.58 1225.17 1545.58 Q1229.57 1545.58 1231.86 1543.85 Q1234.17 1542.11 1234.17 1538.8 Q1234.17 1535.75 1232.02 1534.03 Q1229.89 1532.3 1226.07 1532.3 L1222.05 1532.3 L1222.05 1528.45 L1226.26 1528.45 Q1229.71 1528.45 1231.54 1527.09 Q1233.36 1525.7 1233.36 1523.11 Q1233.36 1520.45 1231.47 1519.03 Q1229.59 1517.6 1226.07 1517.6 Q1224.15 1517.6 1221.95 1518.01 Q1219.75 1518.43 1217.11 1519.31 L1217.11 1515.14 Q1219.78 1514.4 1222.09 1514.03 Q1224.43 1513.66 1226.49 1513.66 Q1231.81 1513.66 1234.92 1516.09 Q1238.02 1518.5 1238.02 1522.62 Q1238.02 1525.49 1236.37 1527.48 Q1234.73 1529.45 1231.7 1530.21 Z" fill="#000000" fill-rule="nonzero" fill-opacity="1" /><path clip-path="url(#clip050)" d="M1554.6 1518.36 L1542.79 1536.81 L1554.6 1536.81 L1554.6 1518.36 M1553.37 1514.29 L1559.25 1514.29 L1559.25 1536.81 L1564.18 1536.81 L1564.18 1540.7 L1559.25 1540.7 L1559.25 1548.85 L1554.6 1548.85 L1554.6 1540.7 L1539 1540.7 L1539 1536.19 L1553.37 1514.29 Z" fill="#000000" fill-rule="nonzero" fill-opacity="1" /><path clip-path="url(#clip050)" d="M1866.01 1514.29 L1884.36 1514.29 L1884.36 1518.22 L1870.29 1518.22 L1870.29 1526.7 Q1871.31 1526.35 1872.32 1526.19 Q1873.34 1526 1874.36 1526 Q1880.15 1526 1883.53 1529.17 Q1886.91 1532.34 1886.91 1537.76 Q1886.91 1543.34 1883.44 1546.44 Q1879.96 1549.52 1873.64 1549.52 Q1871.47 1549.52 1869.2 1549.15 Q1866.95 1548.78 1864.55 1548.04 L1864.55 1543.34 Q1866.63 1544.47 1868.85 1545.03 Q1871.07 1545.58 1873.55 1545.58 Q1877.56 1545.58 1879.89 1543.48 Q1882.23 1541.37 1882.23 1537.76 Q1882.23 1534.15 1879.89 1532.04 Q1877.56 1529.94 1873.55 1529.94 Q1871.68 1529.94 1869.8 1530.35 Q1867.95 1530.77 1866.01 1531.65 L1866.01 1514.29 Z" fill="#000000" fill-rule="nonzero" fill-opacity="1" /><path clip-path="url(#clip050)" d="M2200.27 1529.7 Q2197.12 1529.7 2195.27 1531.86 Q2193.44 1534.01 2193.44 1537.76 Q2193.44 1541.49 2195.27 1543.66 Q2197.12 1545.82 2200.27 1545.82 Q2203.42 1545.82 2205.25 1543.66 Q2207.1 1541.49 2207.1 1537.76 Q2207.1 1534.01 2205.25 1531.86 Q2203.42 1529.7 2200.27 1529.7 M2209.55 1515.05 L2209.55 1519.31 Q2207.79 1518.48 2205.99 1518.04 Q2204.21 1517.6 2202.45 1517.6 Q2197.82 1517.6 2195.36 1520.72 Q2192.93 1523.85 2192.59 1530.17 Q2193.95 1528.15 2196.01 1527.09 Q2198.07 1526 2200.55 1526 Q2205.76 1526 2208.77 1529.17 Q2211.8 1532.32 2211.8 1537.76 Q2211.8 1543.08 2208.65 1546.3 Q2205.5 1549.52 2200.27 1549.52 Q2194.28 1549.52 2191.1 1544.94 Q2187.93 1540.33 2187.93 1531.6 Q2187.93 1523.41 2191.82 1518.55 Q2195.71 1513.66 2202.26 1513.66 Q2204.02 1513.66 2205.8 1514.01 Q2207.61 1514.36 2209.55 1515.05 Z" fill="#000000" fill-rule="nonzero" fill-opacity="1" /><polyline clip-path="url(#clip050)" style="stroke:#000000; stroke-linecap:round; stroke-linejoin:round; stroke-width:4; stroke-opacity:1; fill:none" points="193.936,1486.45 193.936,47.2441 "/>
<polyline clip-path="url(#clip050)" style="stroke:#000000; stroke-linecap:round; stroke-linejoin:round; stroke-width:4; stroke-opacity:1; fill:none" points="193.936,1273.97 212.834,1273.97 "/>
<polyline clip-path="url(#clip050)" style="stroke:#000000; stroke-linecap:round; stroke-linejoin:round; stroke-width:4; stroke-opacity:1; fill:none" points="193.936,1019.8 212.834,1019.8 "/>
<polyline clip-path="url(#clip050)" style="stroke:#000000; stroke-linecap:round; stroke-linejoin:round; stroke-width:4; stroke-opacity:1; fill:none" points="193.936,765.635 212.834,765.635 "/>
<polyline clip-path="url(#clip050)" style="stroke:#000000; stroke-linecap:round; stroke-linejoin:round; stroke-width:4; stroke-opacity:1; fill:none" points="193.936,511.466 212.834,511.466 "/>
<polyline clip-path="url(#clip050)" style="stroke:#000000; stroke-linecap:round; stroke-linejoin:round; stroke-width:4; stroke-opacity:1; fill:none" points="193.936,257.296 212.834,257.296 "/>
<path clip-path="url(#clip050)" d="M50.9921 1274.42 L80.6679 1274.42 L80.6679 1278.36 L50.9921 1278.36 L50.9921 1274.42 Z" fill="#000000" fill-rule="nonzero" fill-opacity="1" /><path clip-path="url(#clip050)" d="M91.5706 1287.32 L99.2095 1287.32 L99.2095 1260.95 L90.8993 1262.62 L90.8993 1258.36 L99.1632 1256.69 L103.839 1256.69 L103.839 1287.32 L111.478 1287.32 L111.478 1291.25 L91.5706 1291.25 L91.5706 1287.32 Z" fill="#000000" fill-rule="nonzero" fill-opacity="1" /><path clip-path="url(#clip050)" d="M120.922 1285.37 L125.807 1285.37 L125.807 1291.25 L120.922 1291.25 L120.922 1285.37 Z" fill="#000000" fill-rule="nonzero" fill-opacity="1" /><path clip-path="url(#clip050)" d="M145.992 1259.77 Q142.381 1259.77 140.552 1263.34 Q138.746 1266.88 138.746 1274.01 Q138.746 1281.11 140.552 1284.68 Q142.381 1288.22 145.992 1288.22 Q149.626 1288.22 151.431 1284.68 Q153.26 1281.11 153.26 1274.01 Q153.26 1266.88 151.431 1263.34 Q149.626 1259.77 145.992 1259.77 M145.992 1256.07 Q151.802 1256.07 154.857 1260.67 Q157.936 1265.26 157.936 1274.01 Q157.936 1282.73 154.857 1287.34 Q151.802 1291.92 145.992 1291.92 Q140.181 1291.92 137.103 1287.34 Q134.047 1282.73 134.047 1274.01 Q134.047 1265.26 137.103 1260.67 Q140.181 1256.07 145.992 1256.07 Z" fill="#000000" fill-rule="nonzero" fill-opacity="1" /><path clip-path="url(#clip050)" d="M51.9875 1020.26 L81.6633 1020.26 L81.6633 1024.19 L51.9875 1024.19 L51.9875 1020.26 Z" fill="#000000" fill-rule="nonzero" fill-opacity="1" /><path clip-path="url(#clip050)" d="M101.756 1005.6 Q98.1447 1005.6 96.316 1009.17 Q94.5104 1012.71 94.5104 1019.84 Q94.5104 1026.95 96.316 1030.51 Q98.1447 1034.05 101.756 1034.05 Q105.39 1034.05 107.196 1030.51 Q109.024 1026.95 109.024 1019.84 Q109.024 1012.71 107.196 1009.17 Q105.39 1005.6 101.756 1005.6 M101.756 1001.9 Q107.566 1001.9 110.621 1006.51 Q113.7 1011.09 113.7 1019.84 Q113.7 1028.57 110.621 1033.17 Q107.566 1037.76 101.756 1037.76 Q95.9456 1037.76 92.8669 1033.17 Q89.8114 1028.57 89.8114 1019.84 Q89.8114 1011.09 92.8669 1006.51 Q95.9456 1001.9 101.756 1001.9 Z" fill="#000000" fill-rule="nonzero" fill-opacity="1" /><path clip-path="url(#clip050)" d="M121.918 1031.2 L126.802 1031.2 L126.802 1037.08 L121.918 1037.08 L121.918 1031.2 Z" fill="#000000" fill-rule="nonzero" fill-opacity="1" /><path clip-path="url(#clip050)" d="M137.033 1002.52 L155.39 1002.52 L155.39 1006.46 L141.316 1006.46 L141.316 1014.93 Q142.334 1014.58 143.353 1014.42 Q144.371 1014.24 145.39 1014.24 Q151.177 1014.24 154.556 1017.41 Q157.936 1020.58 157.936 1026 Q157.936 1031.57 154.464 1034.68 Q150.992 1037.76 144.672 1037.76 Q142.496 1037.76 140.228 1037.38 Q137.982 1037.01 135.575 1036.27 L135.575 1031.57 Q137.658 1032.71 139.881 1033.26 Q142.103 1033.82 144.58 1033.82 Q148.584 1033.82 150.922 1031.71 Q153.26 1029.61 153.26 1026 Q153.26 1022.38 150.922 1020.28 Q148.584 1018.17 144.58 1018.17 Q142.705 1018.17 140.83 1018.59 Q138.978 1019.01 137.033 1019.88 L137.033 1002.52 Z" fill="#000000" fill-rule="nonzero" fill-opacity="1" /><path clip-path="url(#clip050)" d="M100.76 751.433 Q97.1493 751.433 95.3206 754.998 Q93.515 758.54 93.515 765.669 Q93.515 772.776 95.3206 776.341 Q97.1493 779.882 100.76 779.882 Q104.395 779.882 106.2 776.341 Q108.029 772.776 108.029 765.669 Q108.029 758.54 106.2 754.998 Q104.395 751.433 100.76 751.433 M100.76 747.73 Q106.571 747.73 109.626 752.336 Q112.705 756.919 112.705 765.669 Q112.705 774.396 109.626 779.003 Q106.571 783.586 100.76 783.586 Q94.9502 783.586 91.8715 779.003 Q88.816 774.396 88.816 765.669 Q88.816 756.919 91.8715 752.336 Q94.9502 747.73 100.76 747.73 Z" fill="#000000" fill-rule="nonzero" fill-opacity="1" /><path clip-path="url(#clip050)" d="M120.922 777.035 L125.807 777.035 L125.807 782.915 L120.922 782.915 L120.922 777.035 Z" fill="#000000" fill-rule="nonzero" fill-opacity="1" /><path clip-path="url(#clip050)" d="M145.992 751.433 Q142.381 751.433 140.552 754.998 Q138.746 758.54 138.746 765.669 Q138.746 772.776 140.552 776.341 Q142.381 779.882 145.992 779.882 Q149.626 779.882 151.431 776.341 Q153.26 772.776 153.26 765.669 Q153.26 758.54 151.431 754.998 Q149.626 751.433 145.992 751.433 M145.992 747.73 Q151.802 747.73 154.857 752.336 Q157.936 756.919 157.936 765.669 Q157.936 774.396 154.857 779.003 Q151.802 783.586 145.992 783.586 Q140.181 783.586 137.103 779.003 Q134.047 774.396 134.047 765.669 Q134.047 756.919 137.103 752.336 Q140.181 747.73 145.992 747.73 Z" fill="#000000" fill-rule="nonzero" fill-opacity="1" /><path clip-path="url(#clip050)" d="M101.756 497.264 Q98.1447 497.264 96.316 500.829 Q94.5104 504.371 94.5104 511.5 Q94.5104 518.607 96.316 522.172 Q98.1447 525.713 101.756 525.713 Q105.39 525.713 107.196 522.172 Q109.024 518.607 109.024 511.5 Q109.024 504.371 107.196 500.829 Q105.39 497.264 101.756 497.264 M101.756 493.561 Q107.566 493.561 110.621 498.167 Q113.7 502.75 113.7 511.5 Q113.7 520.227 110.621 524.834 Q107.566 529.417 101.756 529.417 Q95.9456 529.417 92.8669 524.834 Q89.8114 520.227 89.8114 511.5 Q89.8114 502.75 92.8669 498.167 Q95.9456 493.561 101.756 493.561 Z" fill="#000000" fill-rule="nonzero" fill-opacity="1" /><path clip-path="url(#clip050)" d="M121.918 522.866 L126.802 522.866 L126.802 528.746 L121.918 528.746 L121.918 522.866 Z" fill="#000000" fill-rule="nonzero" fill-opacity="1" /><path clip-path="url(#clip050)" d="M137.033 494.186 L155.39 494.186 L155.39 498.121 L141.316 498.121 L141.316 506.593 Q142.334 506.246 143.353 506.084 Q144.371 505.899 145.39 505.899 Q151.177 505.899 154.556 509.07 Q157.936 512.241 157.936 517.658 Q157.936 523.236 154.464 526.338 Q150.992 529.417 144.672 529.417 Q142.496 529.417 140.228 529.047 Q137.982 528.676 135.575 527.935 L135.575 523.236 Q137.658 524.371 139.881 524.926 Q142.103 525.482 144.58 525.482 Q148.584 525.482 150.922 523.375 Q153.26 521.269 153.26 517.658 Q153.26 514.047 150.922 511.94 Q148.584 509.834 144.58 509.834 Q142.705 509.834 140.83 510.25 Q138.978 510.667 137.033 511.547 L137.033 494.186 Z" fill="#000000" fill-rule="nonzero" fill-opacity="1" /><path clip-path="url(#clip050)" d="M91.5706 270.641 L99.2095 270.641 L99.2095 244.276 L90.8993 245.942 L90.8993 241.683 L99.1632 240.016 L103.839 240.016 L103.839 270.641 L111.478 270.641 L111.478 274.576 L91.5706 274.576 L91.5706 270.641 Z" fill="#000000" fill-rule="nonzero" fill-opacity="1" /><path clip-path="url(#clip050)" d="M120.922 268.697 L125.807 268.697 L125.807 274.576 L120.922 274.576 L120.922 268.697 Z" fill="#000000" fill-rule="nonzero" fill-opacity="1" /><path clip-path="url(#clip050)" d="M145.992 243.095 Q142.381 243.095 140.552 246.66 Q138.746 250.202 138.746 257.331 Q138.746 264.438 140.552 268.002 Q142.381 271.544 145.992 271.544 Q149.626 271.544 151.431 268.002 Q153.26 264.438 153.26 257.331 Q153.26 250.202 151.431 246.66 Q149.626 243.095 145.992 243.095 M145.992 239.391 Q151.802 239.391 154.857 243.998 Q157.936 248.581 157.936 257.331 Q157.936 266.058 154.857 270.664 Q151.802 275.248 145.992 275.248 Q140.181 275.248 137.103 270.664 Q134.047 266.058 134.047 257.331 Q134.047 248.581 137.103 243.998 Q140.181 239.391 145.992 239.391 Z" fill="#000000" fill-rule="nonzero" fill-opacity="1" /><polyline clip-path="url(#clip051)" style="stroke:#009af9; stroke-linecap:round; stroke-linejoin:round; stroke-width:4; stroke-opacity:1; fill:none" points="255.035,765.635 258.276,760.551 261.517,755.469 264.759,750.387 268,745.307 271.242,740.228 274.483,735.153 277.724,730.08 280.966,725.011 284.207,719.946 287.449,714.886 290.69,709.83 293.931,704.78 297.173,699.737 300.414,694.7 303.655,689.67 306.897,684.647 310.138,679.633 313.38,674.627 316.621,669.631 319.862,664.644 323.104,659.667 326.345,654.7 329.587,649.745 332.828,644.801 336.069,639.87 339.311,634.951 342.552,630.045 345.793,625.153 349.035,620.274 352.276,615.411 355.518,610.562 358.759,605.729 362,600.911 365.242,596.11 368.483,591.327 371.725,586.56 374.966,581.812 378.207,577.082 381.449,572.37 384.69,567.678 387.931,563.006 391.173,558.354 394.414,553.723 397.656,549.113 400.897,544.525 404.138,539.959 407.38,535.415 410.621,530.895 413.863,526.398 417.104,521.924 420.345,517.476 423.587,513.052 426.828,508.653 430.069,504.28 433.311,499.933 436.552,495.612 439.794,491.319 443.035,487.053 446.276,482.815 449.518,478.605 452.759,474.424 456.001,470.272 459.242,466.15 462.483,462.057 465.725,457.995 468.966,453.964 472.208,449.964 475.449,445.995 478.69,442.059 481.932,438.154 485.173,434.283 488.414,430.444 491.656,426.639 494.897,422.868 498.139,419.132 501.38,415.43 504.621,411.763 507.863,408.131 511.104,404.535 514.346,400.975 517.587,397.452 520.828,393.965 524.07,390.516 527.311,387.104 530.552,383.73 533.794,380.394 537.035,377.097 540.277,373.839 543.518,370.619 546.759,367.44 550.001,364.3 553.242,361.2 556.484,358.141 559.725,355.122 562.966,352.145 566.208,349.208 569.449,346.314 572.69,343.461 575.932,340.651 579.173,337.883 582.415,335.158 585.656,332.476 588.897,329.837 592.139,327.242 595.38,324.69 598.622,322.183 601.863,319.72 605.104,317.302 608.346,314.928 611.587,312.6 614.828,310.317 618.07,308.079 621.311,305.887 624.553,303.742 627.794,301.642 631.035,299.589 634.277,297.582 637.518,295.622 640.76,293.709 644.001,291.844 647.242,290.025 650.484,288.255 653.725,286.532 656.966,284.857 660.208,283.23 663.449,281.651 666.691,280.12 669.932,278.639 673.173,277.206 676.415,275.821 679.656,274.486 682.898,273.2 686.139,271.963 689.38,270.775 692.622,269.637 695.863,268.549 699.104,267.51 702.346,266.521 705.587,265.582 708.829,264.693 712.07,263.854 715.311,263.065 718.553,262.327 721.794,261.639 725.036,261.001 728.277,260.413 731.518,259.877 734.76,259.39 738.001,258.955 741.242,258.57 744.484,258.236 747.725,257.952 750.967,257.719 754.208,257.538 757.449,257.406 760.691,257.326 763.932,257.297 767.174,257.318 770.415,257.39 773.656,257.513 776.898,257.687 780.139,257.912 783.381,258.187 786.622,258.513 789.863,258.89 793.105,259.318 796.346,259.796 799.587,260.325 802.829,260.904 806.07,261.534 809.312,262.214 812.553,262.944 815.794,263.725 819.036,264.556 822.277,265.437 825.519,266.368 828.76,267.349 832.001,268.38 835.243,269.461 838.484,270.591 841.725,271.77 844.967,272.999 848.208,274.278 851.45,275.605 854.691,276.982 857.932,278.407 861.174,279.881 864.415,281.404 867.657,282.975 870.898,284.594 874.139,286.262 877.381,287.977 880.622,289.74 883.863,291.551 887.105,293.409 890.346,295.314 893.588,297.267 896.829,299.266 900.07,301.312 903.312,303.404 906.553,305.543 909.795,307.727 913.036,309.957 916.277,312.233 919.519,314.555 922.76,316.921 926.001,319.332 929.243,321.788 932.484,324.288 935.726,326.832 938.967,329.421 942.208,332.052 945.45,334.728 948.691,337.446 951.933,340.207 955.174,343.011 958.415,345.857 961.657,348.745 964.898,351.674 968.139,354.645 971.381,357.657 974.622,360.71 977.864,363.803 981.105,366.937 984.346,370.11 987.588,373.323 990.829,376.576 994.071,379.867 997.312,383.196 1000.55,386.564 1003.79,389.97 1007.04,393.413 1010.28,396.894 1013.52,400.412 1016.76,403.966 1020,407.556 1023.24,411.182 1026.48,414.843 1029.73,418.54 1032.97,422.271 1036.21,426.037 1039.45,429.836 1042.69,433.669 1045.93,437.535 1049.17,441.435 1052.42,445.366 1055.66,449.33 1058.9,453.325 1062.14,457.351 1065.38,461.408 1068.62,465.496 1071.86,469.614 1075.11,473.761 1078.35,477.938 1081.59,482.143 1084.83,486.376 1088.07,490.638 1091.31,494.927 1094.55,499.243 1097.79,503.586 1101.04,507.955 1104.28,512.349 1107.52,516.769 1110.76,521.214 1114,525.684 1117.24,530.177 1120.48,534.694 1123.73,539.234 1126.97,543.796 1130.21,548.381 1133.45,552.988 1136.69,557.616 1139.93,562.264 1143.17,566.933 1146.42,571.622 1149.66,576.33 1152.9,581.057 1156.14,585.803 1159.38,590.566 1162.62,595.347 1165.86,600.146 1169.11,604.96 1172.35,609.791 1175.59,614.637 1178.83,619.499 1182.07,624.375 1185.31,629.265 1188.55,634.169 1191.8,639.086 1195.04,644.015 1198.28,648.957 1201.52,653.91 1204.76,658.875 1208,663.85 1211.24,668.836 1214.48,673.831 1217.73,678.835 1220.97,683.848 1224.21,688.869 1227.45,693.898 1230.69,698.934 1233.93,703.977 1237.17,709.026 1240.42,714.08 1243.66,719.14 1246.9,724.204 1250.14,729.273 1253.38,734.345 1256.62,739.42 1259.86,744.498 1263.11,749.578 1266.35,754.659 1269.59,759.742 1272.83,764.825 1276.07,769.908 1279.31,774.991 1282.55,780.073 1285.8,785.154 1289.04,790.232 1292.28,795.309 1295.52,800.382 1298.76,805.451 1302,810.517 1305.24,815.578 1308.48,820.634 1311.73,825.685 1314.97,830.73 1318.21,835.768 1321.45,840.799 1324.69,845.823 1327.93,850.839 1331.17,855.846 1334.42,860.844 1337.66,865.832 1340.9,870.811 1344.14,875.779 1347.38,880.736 1350.62,885.682 1353.86,890.615 1357.11,895.536 1360.35,900.444 1363.59,905.339 1366.83,910.219 1370.07,915.085 1373.31,919.936 1376.55,924.772 1379.8,929.592 1383.04,934.395 1386.28,939.182 1389.52,943.951 1392.76,948.703 1396,953.436 1399.24,958.15 1402.49,962.845 1405.73,967.52 1408.97,972.175 1412.21,976.81 1415.45,981.423 1418.69,986.015 1421.93,990.585 1425.17,995.132 1428.42,999.656 1431.66,1004.16 1434.9,1008.63 1438.14,1013.09 1441.38,1017.51 1444.62,1021.92 1447.86,1026.29 1451.11,1030.65 1454.35,1034.97 1457.59,1039.27 1460.83,1043.54 1464.07,1047.78 1467.31,1052 1470.55,1056.18 1473.8,1060.34 1477.04,1064.46 1480.28,1068.56 1483.52,1072.63 1486.76,1076.67 1490,1080.67 1493.24,1084.64 1496.49,1088.59 1499.73,1092.5 1502.97,1096.37 1506.21,1100.22 1509.45,1104.03 1512.69,1107.8 1515.93,1111.54 1519.18,1115.25 1522.42,1118.93 1525.66,1122.56 1528.9,1126.16 1532.14,1129.73 1535.38,1133.26 1538.62,1136.75 1541.86,1140.21 1545.11,1143.62 1548.35,1147 1551.59,1150.35 1554.83,1153.65 1558.07,1156.91 1561.31,1160.14 1564.55,1163.33 1567.8,1166.47 1571.04,1169.58 1574.28,1172.64 1577.52,1175.67 1580.76,1178.65 1584,1181.6 1587.24,1184.5 1590.49,1187.36 1593.73,1190.17 1596.97,1192.95 1600.21,1195.68 1603.45,1198.37 1606.69,1201.02 1609.93,1203.62 1613.18,1206.18 1616.42,1208.69 1619.66,1211.16 1622.9,1213.59 1626.14,1215.97 1629.38,1218.3 1632.62,1220.59 1635.86,1222.84 1639.11,1225.04 1642.35,1227.19 1645.59,1229.3 1648.83,1231.36 1652.07,1233.37 1655.31,1235.34 1658.55,1237.26 1661.8,1239.13 1665.04,1240.96 1668.28,1242.74 1671.52,1244.47 1674.76,1246.15 1678,1247.78 1681.24,1249.37 1684.49,1250.91 1687.73,1252.4 1690.97,1253.84 1694.21,1255.23 1697.45,1256.57 1700.69,1257.87 1703.93,1259.11 1707.18,1260.31 1710.42,1261.45 1713.66,1262.55 1716.9,1263.6 1720.14,1264.59 1723.38,1265.54 1726.62,1266.44 1729.87,1267.29 1733.11,1268.08 1736.35,1268.83 1739.59,1269.52 1742.83,1270.17 1746.07,1270.77 1749.31,1271.31 1752.55,1271.8 1755.8,1272.25 1759.04,1272.64 1762.28,1272.98 1765.52,1273.28 1768.76,1273.52 1772,1273.71 1775.24,1273.85 1778.49,1273.93 1781.73,1273.97 1784.97,1273.96 1788.21,1273.89 1791.45,1273.78 1794.69,1273.61 1797.93,1273.4 1801.18,1273.13 1804.42,1272.81 1807.66,1272.44 1810.9,1272.02 1814.14,1271.55 1817.38,1271.03 1820.62,1270.46 1823.87,1269.84 1827.11,1269.17 1830.35,1268.44 1833.59,1267.67 1836.83,1266.85 1840.07,1265.98 1843.31,1265.05 1846.55,1264.08 1849.8,1263.06 1853.04,1261.98 1856.28,1260.86 1859.52,1259.69 1862.76,1258.47 1866,1257.2 1869.24,1255.88 1872.49,1254.51 1875.73,1253.09 1878.97,1251.63 1882.21,1250.11 1885.45,1248.55 1888.69,1246.94 1891.93,1245.28 1895.18,1243.57 1898.42,1241.81 1901.66,1240.01 1904.9,1238.16 1908.14,1236.26 1911.38,1234.32 1914.62,1232.33 1917.87,1230.29 1921.11,1228.2 1924.35,1226.07 1927.59,1223.89 1930.83,1221.67 1934.07,1219.4 1937.31,1217.09 1940.56,1214.73 1943.8,1212.32 1947.04,1209.88 1950.28,1207.38 1953.52,1204.85 1956.76,1202.26 1960,1199.64 1963.24,1196.97 1966.49,1194.26 1969.73,1191.5 1972.97,1188.71 1976.21,1185.87 1979.45,1182.99 1982.69,1180.06 1985.93,1177.1 1989.18,1174.09 1992.42,1171.05 1995.66,1167.96 1998.9,1164.83 2002.14,1161.67 2005.38,1158.46 2008.62,1155.21 2011.87,1151.93 2015.11,1148.61 2018.35,1145.24 2021.59,1141.84 2024.83,1138.41 2028.07,1134.93 2031.31,1131.42 2034.56,1127.87 2037.8,1124.29 2041.04,1120.67 2044.28,1117.01 2047.52,1113.32 2050.76,1109.6 2054,1105.83 2057.24,1102.04 2060.49,1098.21 2063.73,1094.35 2066.97,1090.46 2070.21,1086.53 2073.45,1082.57 2076.69,1078.58 2079.93,1074.56 2083.18,1070.51 2086.42,1066.43 2089.66,1062.31 2092.9,1058.17 2096.14,1054 2099.38,1049.8 2102.62,1045.57 2105.87,1041.31 2109.11,1037.03 2112.35,1032.72 2115.59,1028.38 2118.83,1024.01 2122.07,1019.62 2125.31,1015.21 2128.56,1010.76 2131.8,1006.3 2135.04,1001.81 2138.28,997.297 2141.52,992.76 2144.76,988.201 2148,983.62 2151.25,979.017 2154.49,974.392 2157.73,969.747 2160.97,965.081 2164.21,960.396 2167.45,955.691 2170.69,950.966 2173.93,946.224 2177.18,941.463 2180.42,936.685 2183.66,931.889 2186.9,927.077 2190.14,922.249 2193.38,917.405 2196.62,912.546 2199.87,907.672 2203.11,902.784 2206.35,897.883 2209.59,892.968 2212.83,888.04 2216.07,883.1 2219.31,878.149 2222.56,873.186 2225.8,868.212 2229.04,863.229 2232.28,858.235 2235.52,853.232 2238.76,848.22 2242,843.2 2245.25,838.173 2248.49,833.138 2251.73,828.096 2254.97,823.048 2258.21,817.995 2261.45,812.936 2264.69,807.872 2267.94,802.804 2271.18,797.733 2274.42,792.658 2277.66,787.581 2280.9,782.501 2284.14,777.42 2287.38,772.337 2290.62,767.254 "/>
<circle clip-path="url(#clip051)" cx="1872.49" cy="1227.65" r="14.4" fill="#e26f46" fill-rule="evenodd" fill-opacity="1" stroke="#000000" stroke-opacity="1" stroke-width="3.2"/>
<circle clip-path="url(#clip051)" cx="2031.31" cy="1063.26" r="14.4" fill="#e26f46" fill-rule="evenodd" fill-opacity="1" stroke="#000000" stroke-opacity="1" stroke-width="3.2"/>
<circle clip-path="url(#clip051)" cx="809.312" cy="227.025" r="14.4" fill="#e26f46" fill-rule="evenodd" fill-opacity="1" stroke="#000000" stroke-opacity="1" stroke-width="3.2"/>
<circle clip-path="url(#clip051)" cx="255.035" cy="886.82" r="14.4" fill="#e26f46" fill-rule="evenodd" fill-opacity="1" stroke="#000000" stroke-opacity="1" stroke-width="3.2"/>
<circle clip-path="url(#clip051)" cx="1519.18" cy="1102.23" r="14.4" fill="#e26f46" fill-rule="evenodd" fill-opacity="1" stroke="#000000" stroke-opacity="1" stroke-width="3.2"/>
<circle clip-path="url(#clip051)" cx="1094.55" cy="621.198" r="14.4" fill="#e26f46" fill-rule="evenodd" fill-opacity="1" stroke="#000000" stroke-opacity="1" stroke-width="3.2"/>
<circle clip-path="url(#clip051)" cx="1350.62" cy="782.266" r="14.4" fill="#e26f46" fill-rule="evenodd" fill-opacity="1" stroke="#000000" stroke-opacity="1" stroke-width="3.2"/>
<circle clip-path="url(#clip051)" cx="1383.04" cy="1004.3" r="14.4" fill="#e26f46" fill-rule="evenodd" fill-opacity="1" stroke="#000000" stroke-opacity="1" stroke-width="3.2"/>
<circle clip-path="url(#clip051)" cx="877.381" cy="344.973" r="14.4" fill="#e26f46" fill-rule="evenodd" fill-opacity="1" stroke="#000000" stroke-opacity="1" stroke-width="3.2"/>
<circle clip-path="url(#clip051)" cx="1969.73" cy="1234.05" r="14.4" fill="#e26f46" fill-rule="evenodd" fill-opacity="1" stroke="#000000" stroke-opacity="1" stroke-width="3.2"/>
<circle clip-path="url(#clip051)" cx="1178.83" cy="588.642" r="14.4" fill="#e26f46" fill-rule="evenodd" fill-opacity="1" stroke="#000000" stroke-opacity="1" stroke-width="3.2"/>
<circle clip-path="url(#clip051)" cx="1749.31" cy="1350.13" r="14.4" fill="#e26f46" fill-rule="evenodd" fill-opacity="1" stroke="#000000" stroke-opacity="1" stroke-width="3.2"/>
<circle clip-path="url(#clip051)" cx="1684.49" cy="1301.98" r="14.4" fill="#e26f46" fill-rule="evenodd" fill-opacity="1" stroke="#000000" stroke-opacity="1" stroke-width="3.2"/>
<circle clip-path="url(#clip051)" cx="663.449" cy="207.625" r="14.4" fill="#e26f46" fill-rule="evenodd" fill-opacity="1" stroke="#000000" stroke-opacity="1" stroke-width="3.2"/>
<circle clip-path="url(#clip051)" cx="2212.83" cy="928.572" r="14.4" fill="#e26f46" fill-rule="evenodd" fill-opacity="1" stroke="#000000" stroke-opacity="1" stroke-width="3.2"/>
<circle clip-path="url(#clip051)" cx="1956.76" cy="1141.72" r="14.4" fill="#e26f46" fill-rule="evenodd" fill-opacity="1" stroke="#000000" stroke-opacity="1" stroke-width="3.2"/>
<circle clip-path="url(#clip051)" cx="1253.38" cy="752.975" r="14.4" fill="#e26f46" fill-rule="evenodd" fill-opacity="1" stroke="#000000" stroke-opacity="1" stroke-width="3.2"/>
<circle clip-path="url(#clip051)" cx="2254.97" cy="861.953" r="14.4" fill="#e26f46" fill-rule="evenodd" fill-opacity="1" stroke="#000000" stroke-opacity="1" stroke-width="3.2"/>
<circle clip-path="url(#clip051)" cx="984.346" cy="442.386" r="14.4" fill="#e26f46" fill-rule="evenodd" fill-opacity="1" stroke="#000000" stroke-opacity="1" stroke-width="3.2"/>
<circle clip-path="url(#clip051)" cx="1246.9" cy="769.333" r="14.4" fill="#e26f46" fill-rule="evenodd" fill-opacity="1" stroke="#000000" stroke-opacity="1" stroke-width="3.2"/>
<path clip-path="url(#clip051)" d="M255.035 1074.21 L258.276 1071.97 L261.517 1069.84 L264.759 1067.8 L268 1065.85 L271.242 1063.97 L274.483 1062.17 L277.724 1060.43 L280.966 1058.75 L284.207 1057.12 L287.449 1055.54 L290.69 1053.99 L293.931 1052.47 L297.173 1050.98 L300.414 1049.5 L303.655 1048.04 L306.897 1046.58 L310.138 1045.12 L313.38 1043.65 L316.621 1042.17 L319.862 1040.67 L323.104 1039.14 L326.345 1037.59 L329.587 1036.01 L332.828 1034.39 L336.069 1032.73 L339.311 1031.03 L342.552 1029.28 L345.793 1027.48 L349.035 1025.63 L352.276 1023.72 L355.518 1021.74 L358.759 1019.71 L362 1017.62 L365.242 1015.45 L368.483 1013.22 L371.725 1010.92 L374.966 1008.55 L378.207 1006.11 L381.449 1003.59 L384.69 1001 L387.931 998.326 L391.173 995.578 L394.414 992.752 L397.656 989.847 L400.897 986.861 L404.138 983.796 L407.38 980.649 L410.621 977.421 L413.863 974.112 L417.104 970.721 L420.345 967.248 L423.587 963.693 L426.828 960.055 L430.069 956.336 L433.311 952.535 L436.552 948.653 L439.794 944.689 L443.035 940.644 L446.276 936.518 L449.518 932.312 L452.759 928.026 L456.001 923.66 L459.242 919.216 L462.483 914.694 L465.725 910.094 L468.966 905.418 L472.208 900.667 L475.449 895.84 L478.69 890.939 L481.932 885.965 L485.173 880.92 L488.414 875.804 L491.656 870.618 L494.897 865.363 L498.139 860.042 L501.38 854.655 L504.621 849.204 L507.863 843.69 L511.104 838.115 L514.346 832.481 L517.587 826.79 L520.828 821.042 L524.07 815.242 L527.311 809.389 L530.552 803.487 L533.794 797.538 L537.035 791.543 L540.277 785.507 L543.518 779.431 L546.759 773.318 L550.001 767.17 L553.242 760.992 L556.484 754.786 L559.725 748.555 L562.966 742.302 L566.208 736.033 L569.449 729.749 L572.69 723.456 L575.932 717.157 L579.173 710.857 L582.415 704.56 L585.656 698.271 L588.897 691.995 L592.139 685.737 L595.38 679.503 L598.622 673.299 L601.863 667.13 L605.104 661.002 L608.346 654.923 L611.587 648.898 L614.828 642.935 L618.07 637.041 L621.311 631.223 L624.553 625.49 L627.794 619.849 L631.035 614.31 L634.277 608.879 L637.518 603.567 L640.76 598.382 L644.001 593.334 L647.242 588.432 L650.484 583.686 L653.725 579.105 L656.966 574.7 L660.208 570.481 L663.449 566.456 L666.691 562.634 L669.932 559.008 L673.173 555.57 L676.415 552.31 L679.656 549.22 L682.898 546.29 L686.139 543.513 L689.38 540.88 L692.622 538.382 L695.863 536.011 L699.104 533.761 L702.346 531.623 L705.587 529.591 L708.829 527.657 L712.07 525.817 L715.311 524.063 L718.553 522.391 L721.794 520.796 L725.036 519.274 L728.277 517.82 L731.518 516.431 L734.76 515.104 L738.001 513.836 L741.242 512.627 L744.484 511.474 L747.725 510.376 L750.967 509.334 L754.208 508.347 L757.449 507.416 L760.691 506.543 L763.932 505.728 L767.174 504.975 L770.415 504.286 L773.656 503.665 L776.898 503.116 L780.139 502.642 L783.381 502.25 L786.622 501.944 L789.863 501.73 L793.105 501.616 L796.346 501.606 L799.587 501.71 L802.829 501.933 L806.07 502.285 L809.312 502.773 L812.553 503.403 L815.794 504.172 L819.036 505.075 L822.277 506.104 L825.519 507.257 L828.76 508.527 L832.001 509.91 L835.243 511.403 L838.484 513.001 L841.725 514.701 L844.967 516.5 L848.208 518.397 L851.45 520.388 L854.691 522.473 L857.932 524.651 L861.174 526.92 L864.415 529.281 L867.657 531.734 L870.898 534.278 L874.139 536.915 L877.381 539.646 L880.622 542.47 L883.863 545.38 L887.105 548.368 L890.346 551.424 L893.588 554.542 L896.829 557.713 L900.07 560.931 L903.312 564.188 L906.553 567.477 L909.795 570.794 L913.036 574.133 L916.277 577.489 L919.519 580.857 L922.76 584.234 L926.001 587.617 L929.243 591.002 L932.484 594.388 L935.726 597.773 L938.967 601.155 L942.208 604.534 L945.45 607.91 L948.691 611.283 L951.933 614.654 L955.174 618.024 L958.415 621.394 L961.657 624.768 L964.898 628.146 L968.139 631.533 L971.381 634.931 L974.622 638.344 L977.864 641.775 L981.105 645.229 L984.346 648.709 L987.588 652.218 L990.829 655.751 L994.071 659.302 L997.312 662.865 L1000.55 666.433 L1003.79 670.001 L1007.04 673.563 L1010.28 677.114 L1013.52 680.65 L1016.76 684.165 L1020 687.656 L1023.24 691.119 L1026.48 694.55 L1029.73 697.947 L1032.97 701.307 L1036.21 704.627 L1039.45 707.907 L1042.69 711.144 L1045.93 714.339 L1049.17 717.49 L1052.42 720.598 L1055.66 723.663 L1058.9 726.686 L1062.14 729.669 L1065.38 732.612 L1068.62 735.519 L1071.86 738.391 L1075.11 741.232 L1078.35 744.045 L1081.59 746.832 L1084.83 749.599 L1088.07 752.349 L1091.31 755.086 L1094.55 757.815 L1097.79 760.54 L1101.04 763.258 L1104.28 765.968 L1107.52 768.668 L1110.76 771.355 L1114 774.028 L1117.24 776.687 L1120.48 779.329 L1123.73 781.954 L1126.97 784.563 L1130.21 787.155 L1133.45 789.732 L1136.69 792.294 L1139.93 794.844 L1143.17 797.384 L1146.42 799.916 L1149.66 802.444 L1152.9 804.971 L1156.14 807.504 L1159.38 810.045 L1162.62 812.601 L1165.86 815.178 L1169.11 817.782 L1172.35 820.42 L1175.59 823.1 L1178.83 825.829 L1182.07 828.613 L1185.31 831.452 L1188.55 834.34 L1191.8 837.276 L1195.04 840.256 L1198.28 843.278 L1201.52 846.34 L1204.76 849.442 L1208 852.583 L1211.24 855.764 L1214.48 858.984 L1217.73 862.246 L1220.97 865.552 L1224.21 868.904 L1227.45 872.305 L1230.69 875.759 L1233.93 879.271 L1237.17 882.845 L1240.42 886.487 L1243.66 890.201 L1246.9 893.994 L1250.14 897.869 L1253.38 901.828 L1256.62 905.867 L1259.86 909.981 L1263.11 914.159 L1266.35 918.395 L1269.59 922.679 L1272.83 927.005 L1276.07 931.366 L1279.31 935.755 L1282.55 940.166 L1285.8 944.594 L1289.04 949.035 L1292.28 953.485 L1295.52 957.942 L1298.76 962.403 L1302 966.866 L1305.24 971.332 L1308.48 975.8 L1311.73 980.272 L1314.97 984.749 L1318.21 989.233 L1321.45 993.728 L1324.69 998.238 L1327.93 1002.77 L1331.17 1007.32 L1334.42 1011.91 L1337.66 1016.53 L1340.9 1021.19 L1344.14 1025.91 L1347.38 1030.68 L1350.62 1035.53 L1353.86 1040.44 L1357.11 1045.43 L1360.35 1050.48 L1363.59 1055.59 L1366.83 1060.76 L1370.07 1065.98 L1373.31 1071.25 L1376.55 1076.57 L1379.8 1081.93 L1383.04 1087.32 L1386.28 1092.75 L1389.52 1098.21 L1392.76 1103.68 L1396 1109.17 L1399.24 1114.66 L1402.49 1120.15 L1405.73 1125.63 L1408.97 1131.1 L1412.21 1136.54 L1415.45 1141.96 L1418.69 1147.35 L1421.93 1152.71 L1425.17 1158.02 L1428.42 1163.29 L1431.66 1168.51 L1434.9 1173.69 L1438.14 1178.81 L1441.38 1183.88 L1444.62 1188.9 L1447.86 1193.86 L1451.11 1198.76 L1454.35 1203.61 L1457.59 1208.4 L1460.83 1213.14 L1464.07 1217.82 L1467.31 1222.45 L1470.55 1227.02 L1473.8 1231.55 L1477.04 1236.03 L1480.28 1240.46 L1483.52 1244.85 L1486.76 1249.21 L1490 1253.52 L1493.24 1257.81 L1496.49 1262.07 L1499.73 1266.31 L1502.97 1270.52 L1506.21 1274.72 L1509.45 1278.92 L1512.69 1283.1 L1515.93 1287.29 L1519.18 1291.48 L1522.42 1295.68 L1525.66 1299.88 L1528.9 1304.07 L1532.14 1308.26 L1535.38 1312.44 L1538.62 1316.59 L1541.86 1320.72 L1545.11 1324.82 L1548.35 1328.88 L1551.59 1332.91 L1554.83 1336.89 L1558.07 1340.81 L1561.31 1344.69 L1564.55 1348.5 L1567.8 1352.25 L1571.04 1355.94 L1574.28 1359.55 L1577.52 1363.09 L1580.76 1366.56 L1584 1369.94 L1587.24 1373.24 L1590.49 1376.46 L1593.73 1379.6 L1596.97 1382.64 L1600.21 1385.59 L1603.45 1388.46 L1606.69 1391.23 L1609.93 1393.91 L1613.18 1396.49 L1616.42 1398.99 L1619.66 1401.39 L1622.9 1403.7 L1626.14 1405.91 L1629.38 1408.04 L1632.62 1410.08 L1635.86 1412.03 L1639.11 1413.89 L1642.35 1415.67 L1645.59 1417.37 L1648.83 1418.99 L1652.07 1420.54 L1655.31 1422.01 L1658.55 1423.42 L1661.8 1424.76 L1665.04 1426.04 L1668.28 1427.27 L1671.52 1428.44 L1674.76 1429.57 L1678 1430.66 L1681.24 1431.71 L1684.49 1432.73 L1687.73 1433.72 L1690.97 1434.69 L1694.21 1435.62 L1697.45 1436.52 L1700.69 1437.39 L1703.93 1438.22 L1707.18 1439.02 L1710.42 1439.77 L1713.66 1440.48 L1716.9 1441.15 L1720.14 1441.78 L1723.38 1442.36 L1726.62 1442.9 L1729.87 1443.39 L1733.11 1443.84 L1736.35 1444.24 L1739.59 1444.59 L1742.83 1444.9 L1746.07 1445.16 L1749.31 1445.37 L1752.55 1445.54 L1755.8 1445.66 L1759.04 1445.72 L1762.28 1445.72 L1765.52 1445.65 L1768.76 1445.51 L1772 1445.3 L1775.24 1445.02 L1778.49 1444.65 L1781.73 1444.19 L1784.97 1443.65 L1788.21 1443.01 L1791.45 1442.28 L1794.69 1441.46 L1797.93 1440.54 L1801.18 1439.52 L1804.42 1438.39 L1807.66 1437.17 L1810.9 1435.85 L1814.14 1434.43 L1817.38 1432.91 L1820.62 1431.29 L1823.87 1429.58 L1827.11 1427.76 L1830.35 1425.86 L1833.59 1423.87 L1836.83 1421.79 L1840.07 1419.62 L1843.31 1417.38 L1846.55 1415.06 L1849.8 1412.67 L1853.04 1410.21 L1856.28 1407.69 L1859.52 1405.11 L1862.76 1402.49 L1866 1399.82 L1869.24 1397.11 L1872.49 1394.38 L1875.73 1391.61 L1878.97 1388.82 L1882.21 1386 L1885.45 1383.15 L1888.69 1380.27 L1891.93 1377.36 L1895.18 1374.42 L1898.42 1371.44 L1901.66 1368.43 L1904.9 1365.39 L1908.14 1362.32 L1911.38 1359.22 L1914.62 1356.09 L1917.87 1352.94 L1921.11 1349.77 L1924.35 1346.58 L1927.59 1343.39 L1930.83 1340.19 L1934.07 1336.99 L1937.31 1333.8 L1940.56 1330.63 L1943.8 1327.47 L1947.04 1324.35 L1950.28 1321.27 L1953.52 1318.24 L1956.76 1315.27 L1960 1312.36 L1963.24 1309.51 L1966.49 1306.74 L1969.73 1304.03 L1972.97 1301.38 L1976.21 1298.8 L1979.45 1296.28 L1982.69 1293.81 L1985.93 1291.38 L1989.18 1289.01 L1992.42 1286.68 L1995.66 1284.39 L1998.9 1282.14 L2002.14 1279.92 L2005.38 1277.74 L2008.62 1275.59 L2011.87 1273.47 L2015.11 1271.39 L2018.35 1269.34 L2021.59 1267.32 L2024.83 1265.34 L2028.07 1263.4 L2031.31 1261.49 L2034.56 1259.62 L2037.8 1257.78 L2041.04 1255.97 L2044.28 1254.16 L2047.52 1252.37 L2050.76 1250.58 L2054 1248.78 L2057.24 1246.96 L2060.49 1245.13 L2063.73 1243.27 L2066.97 1241.38 L2070.21 1239.46 L2073.45 1237.5 L2076.69 1235.49 L2079.93 1233.43 L2083.18 1231.33 L2086.42 1229.17 L2089.66 1226.95 L2092.9 1224.68 L2096.14 1222.34 L2099.38 1219.95 L2102.62 1217.49 L2105.87 1214.96 L2109.11 1212.38 L2112.35 1209.72 L2115.59 1207.01 L2118.83 1204.23 L2122.07 1201.38 L2125.31 1198.48 L2128.56 1195.52 L2131.8 1192.5 L2135.04 1189.43 L2138.28 1186.3 L2141.52 1183.13 L2144.76 1179.91 L2148 1176.65 L2151.25 1173.36 L2154.49 1170.03 L2157.73 1166.68 L2160.97 1163.32 L2164.21 1159.94 L2167.45 1156.55 L2170.69 1153.17 L2173.93 1149.8 L2177.18 1146.45 L2180.42 1143.13 L2183.66 1139.85 L2186.9 1136.61 L2190.14 1133.44 L2193.38 1130.34 L2196.62 1127.32 L2199.87 1124.4 L2203.11 1121.58 L2206.35 1118.89 L2209.59 1116.33 L2212.83 1113.91 L2216.07 1111.66 L2219.31 1109.57 L2222.56 1107.64 L2225.8 1105.89 L2229.04 1104.3 L2232.28 1102.9 L2235.52 1101.67 L2238.76 1100.62 L2242 1099.76 L2245.25 1099.08 L2248.49 1098.6 L2251.73 1098.3 L2254.97 1098.2 L2258.21 1098.29 L2261.45 1098.57 L2264.69 1099.03 L2267.94 1099.64 L2271.18 1100.42 L2274.42 1101.33 L2277.66 1102.38 L2280.9 1103.56 L2284.14 1104.85 L2287.38 1106.24 L2290.62 1107.74 L2290.62 628.525 L2287.38 633.471 L2284.14 638.377 L2280.9 643.237 L2277.66 648.042 L2274.42 652.784 L2271.18 657.453 L2267.94 662.042 L2264.69 666.541 L2261.45 670.94 L2258.21 675.231 L2254.97 679.404 L2251.73 683.451 L2248.49 687.37 L2245.25 691.164 L2242 694.832 L2238.76 698.375 L2235.52 701.795 L2232.28 705.093 L2229.04 708.269 L2225.8 711.325 L2222.56 714.263 L2219.31 717.084 L2216.07 719.79 L2212.83 722.383 L2209.59 724.865 L2206.35 727.249 L2203.11 729.546 L2199.87 731.769 L2196.62 733.93 L2193.38 736.042 L2190.14 738.117 L2186.9 740.166 L2183.66 742.199 L2180.42 744.227 L2177.18 746.26 L2173.93 748.308 L2170.69 750.379 L2167.45 752.482 L2164.21 754.623 L2160.97 756.812 L2157.73 759.053 L2154.49 761.354 L2151.25 763.719 L2148 766.155 L2144.76 768.665 L2141.52 771.253 L2138.28 773.924 L2135.04 776.681 L2131.8 779.525 L2128.56 782.461 L2125.31 785.488 L2122.07 788.61 L2118.83 791.826 L2115.59 795.139 L2112.35 798.547 L2109.11 802.052 L2105.87 805.652 L2102.62 809.346 L2099.38 813.135 L2096.14 817.015 L2092.9 820.984 L2089.66 825.042 L2086.42 829.184 L2083.18 833.407 L2079.93 837.709 L2076.69 842.084 L2073.45 846.529 L2070.21 851.039 L2066.97 855.609 L2063.73 860.232 L2060.49 864.903 L2057.24 869.615 L2054 874.362 L2050.76 879.135 L2047.52 883.927 L2044.28 888.729 L2041.04 893.534 L2037.8 898.331 L2034.56 903.111 L2031.31 907.865 L2028.07 912.584 L2024.83 917.264 L2021.59 921.903 L2018.35 926.498 L2015.11 931.046 L2011.87 935.543 L2008.62 939.985 L2005.38 944.368 L2002.14 948.687 L1998.9 952.936 L1995.66 957.109 L1992.42 961.2 L1989.18 965.2 L1985.93 969.103 L1982.69 972.901 L1979.45 976.584 L1976.21 980.144 L1972.97 983.571 L1969.73 986.856 L1966.49 989.991 L1963.24 992.979 L1960 995.821 L1956.76 998.521 L1953.52 1001.08 L1950.28 1003.52 L1947.04 1005.83 L1943.8 1008.04 L1940.56 1010.15 L1937.31 1012.18 L1934.07 1014.12 L1930.83 1015.99 L1927.59 1017.8 L1924.35 1019.54 L1921.11 1021.24 L1917.87 1022.89 L1914.62 1024.5 L1911.38 1026.07 L1908.14 1027.61 L1904.9 1029.11 L1901.66 1030.59 L1898.42 1032.03 L1895.18 1033.44 L1891.93 1034.83 L1888.69 1036.18 L1885.45 1037.51 L1882.21 1038.79 L1878.97 1040.05 L1875.73 1041.26 L1872.49 1042.44 L1869.24 1043.57 L1866 1044.66 L1862.76 1045.72 L1859.52 1046.76 L1856.28 1047.77 L1853.04 1048.76 L1849.8 1049.74 L1846.55 1050.72 L1843.31 1051.68 L1840.07 1052.65 L1836.83 1053.62 L1833.59 1054.58 L1830.35 1055.55 L1827.11 1056.53 L1823.87 1057.51 L1820.62 1058.5 L1817.38 1059.48 L1814.14 1060.48 L1810.9 1061.47 L1807.66 1062.47 L1804.42 1063.46 L1801.18 1064.44 L1797.93 1065.41 L1794.69 1066.37 L1791.45 1067.31 L1788.21 1068.22 L1784.97 1069.1 L1781.73 1069.94 L1778.49 1070.74 L1775.24 1071.49 L1772 1072.17 L1768.76 1072.78 L1765.52 1073.32 L1762.28 1073.77 L1759.04 1074.12 L1755.8 1074.36 L1752.55 1074.49 L1749.31 1074.48 L1746.07 1074.34 L1742.83 1074.06 L1739.59 1073.64 L1736.35 1073.1 L1733.11 1072.42 L1729.87 1071.62 L1726.62 1070.69 L1723.38 1069.64 L1720.14 1068.47 L1716.9 1067.18 L1713.66 1065.76 L1710.42 1064.22 L1707.18 1062.56 L1703.93 1060.78 L1700.69 1058.88 L1697.45 1056.85 L1694.21 1054.7 L1690.97 1052.41 L1687.73 1050 L1684.49 1047.45 L1681.24 1044.77 L1678 1041.97 L1674.76 1039.05 L1671.52 1036.03 L1668.28 1032.91 L1665.04 1029.71 L1661.8 1026.44 L1658.55 1023.1 L1655.31 1019.7 L1652.07 1016.26 L1648.83 1012.77 L1645.59 1009.25 L1642.35 1005.71 L1639.11 1002.15 L1635.86 998.573 L1632.62 994.99 L1629.38 991.406 L1626.14 987.824 L1622.9 984.25 L1619.66 980.687 L1616.42 977.139 L1613.18 973.609 L1609.93 970.101 L1606.69 966.616 L1603.45 963.156 L1600.21 959.723 L1596.97 956.319 L1593.73 952.943 L1590.49 949.598 L1587.24 946.281 L1584 942.995 L1580.76 939.737 L1577.52 936.506 L1574.28 933.302 L1571.04 930.123 L1567.8 926.966 L1564.55 923.829 L1561.31 920.71 L1558.07 917.605 L1554.83 914.511 L1551.59 911.424 L1548.35 908.34 L1545.11 905.255 L1541.86 902.164 L1538.62 899.063 L1535.38 895.946 L1532.14 892.808 L1528.9 889.644 L1525.66 886.449 L1522.42 883.215 L1519.18 879.939 L1515.93 876.616 L1512.69 873.25 L1509.45 869.848 L1506.21 866.414 L1502.97 862.956 L1499.73 859.478 L1496.49 855.986 L1493.24 852.486 L1490 848.982 L1486.76 845.48 L1483.52 841.983 L1480.28 838.497 L1477.04 835.024 L1473.8 831.569 L1470.55 828.134 L1467.31 824.723 L1464.07 821.338 L1460.83 817.981 L1457.59 814.653 L1454.35 811.355 L1451.11 808.089 L1447.86 804.854 L1444.62 801.65 L1441.38 798.477 L1438.14 795.333 L1434.9 792.218 L1431.66 789.128 L1428.42 786.061 L1425.17 783.015 L1421.93 779.986 L1418.69 776.969 L1415.45 773.961 L1412.21 770.956 L1408.97 767.948 L1405.73 764.933 L1402.49 761.902 L1399.24 758.851 L1396 755.77 L1392.76 752.652 L1389.52 749.491 L1386.28 746.276 L1383.04 743 L1379.8 739.655 L1376.55 736.246 L1373.31 732.775 L1370.07 729.249 L1366.83 725.67 L1363.59 722.044 L1360.35 718.374 L1357.11 714.663 L1353.86 710.916 L1350.62 707.136 L1347.38 703.327 L1344.14 699.494 L1340.9 695.646 L1337.66 691.788 L1334.42 687.926 L1331.17 684.067 L1327.93 680.215 L1324.69 676.376 L1321.45 672.553 L1318.21 668.749 L1314.97 664.968 L1311.73 661.211 L1308.48 657.481 L1305.24 653.777 L1302 650.099 L1298.76 646.446 L1295.52 642.818 L1292.28 639.211 L1289.04 635.622 L1285.8 632.047 L1282.55 628.482 L1279.31 624.92 L1276.07 621.357 L1272.83 617.785 L1269.59 614.196 L1266.35 610.583 L1263.11 606.937 L1259.86 603.249 L1256.62 599.51 L1253.38 595.711 L1250.14 591.843 L1246.9 587.904 L1243.66 583.894 L1240.42 579.818 L1237.17 575.687 L1233.93 571.506 L1230.69 567.285 L1227.45 563.029 L1224.21 558.747 L1220.97 554.444 L1217.73 550.126 L1214.48 545.798 L1211.24 541.466 L1208 537.133 L1204.76 532.803 L1201.52 528.479 L1198.28 524.163 L1195.04 519.856 L1191.8 515.561 L1188.55 511.278 L1185.31 507.007 L1182.07 502.749 L1178.83 498.502 L1175.59 494.267 L1172.35 490.047 L1169.11 485.845 L1165.86 481.664 L1162.62 477.507 L1159.38 473.377 L1156.14 469.275 L1152.9 465.202 L1149.66 461.16 L1146.42 457.149 L1143.17 453.168 L1139.93 449.217 L1136.69 445.296 L1133.45 441.402 L1130.21 437.534 L1126.97 433.689 L1123.73 429.864 L1120.48 426.055 L1117.24 422.259 L1114 418.472 L1110.76 414.689 L1107.52 410.905 L1104.28 407.115 L1101.04 403.314 L1097.79 399.495 L1094.55 395.653 L1091.31 391.784 L1088.07 387.892 L1084.83 383.982 L1081.59 380.059 L1078.35 376.13 L1075.11 372.198 L1071.86 368.27 L1068.62 364.348 L1065.38 360.437 L1062.14 356.541 L1058.9 352.664 L1055.66 348.807 L1052.42 344.975 L1049.17 341.169 L1045.93 337.391 L1042.69 333.643 L1039.45 329.925 L1036.21 326.239 L1032.97 322.584 L1029.73 318.961 L1026.48 315.369 L1023.24 311.807 L1020 308.275 L1016.76 304.769 L1013.52 301.289 L1010.28 297.833 L1007.04 294.396 L1003.79 290.978 L1000.55 287.574 L997.312 284.181 L994.071 280.796 L990.829 277.414 L987.588 274.032 L984.346 270.645 L981.105 267.252 L977.864 263.855 L974.622 260.459 L971.381 257.069 L968.139 253.69 L964.898 250.326 L961.657 246.981 L958.415 243.659 L955.174 240.364 L951.933 237.099 L948.691 233.867 L945.45 230.671 L942.208 227.513 L938.967 224.395 L935.726 221.318 L932.484 218.283 L929.243 215.292 L926.001 212.344 L922.76 209.439 L919.519 206.576 L916.277 203.755 L913.036 200.973 L909.795 198.23 L906.553 195.522 L903.312 192.847 L900.07 190.202 L896.829 187.582 L893.588 184.985 L890.346 182.406 L887.105 179.841 L883.863 177.284 L880.622 174.731 L877.381 172.177 L874.139 169.618 L870.898 167.056 L867.657 164.495 L864.415 161.94 L861.174 159.392 L857.932 156.855 L854.691 154.334 L851.45 151.829 L848.208 149.344 L844.967 146.88 L841.725 144.441 L838.484 142.027 L835.243 139.639 L832.001 137.28 L828.76 134.949 L825.519 132.647 L822.277 130.375 L819.036 128.132 L815.794 125.92 L812.553 123.736 L809.312 121.583 L806.07 119.459 L802.829 117.37 L799.587 115.322 L796.346 113.318 L793.105 111.365 L789.863 109.467 L786.622 107.63 L783.381 105.857 L780.139 104.153 L776.898 102.521 L773.656 100.966 L770.415 99.4902 L767.174 98.097 L763.932 96.7888 L760.691 95.5679 L757.449 94.4359 L754.208 93.3946 L750.967 92.4448 L747.725 91.5875 L744.484 90.8229 L741.242 90.1511 L738.001 89.5718 L734.76 89.0843 L731.518 88.6876 L728.277 88.3803 L725.036 88.1607 L721.794 88.0268 L718.553 87.9763 L715.311 88.0065 L712.07 88.1145 L708.829 88.2971 L705.587 88.5509 L702.346 88.8721 L699.104 89.2568 L695.863 89.7008 L692.622 90.1999 L689.38 90.7496 L686.139 91.3454 L682.898 91.9826 L679.656 92.6565 L676.415 93.3626 L673.173 94.0962 L669.932 94.8528 L666.691 95.628 L663.449 96.4178 L660.208 97.2192 L656.966 98.0334 L653.725 98.8629 L650.484 99.7104 L647.242 100.579 L644.001 101.47 L640.76 102.389 L637.518 103.337 L634.277 104.317 L631.035 105.333 L627.794 106.387 L624.553 107.482 L621.311 108.621 L618.07 109.806 L614.828 111.039 L611.587 112.324 L608.346 113.661 L605.104 115.054 L601.863 116.503 L598.622 118.011 L595.38 119.58 L592.139 121.21 L588.897 122.904 L585.656 124.662 L582.415 126.485 L579.173 128.375 L575.932 130.332 L572.69 132.358 L569.449 134.452 L566.208 136.616 L562.966 138.85 L559.725 141.154 L556.484 143.528 L553.242 145.974 L550.001 148.491 L546.759 151.079 L543.518 153.738 L540.277 156.468 L537.035 159.27 L533.794 162.142 L530.552 165.086 L527.311 168.099 L524.07 171.184 L520.828 174.338 L517.587 177.562 L514.346 180.855 L511.104 184.216 L507.863 187.647 L504.621 191.144 L501.38 194.71 L498.139 198.342 L494.897 202.04 L491.656 205.803 L488.414 209.632 L485.173 213.524 L481.932 217.48 L478.69 221.499 L475.449 225.579 L472.208 229.721 L468.966 233.923 L465.725 238.184 L462.483 242.503 L459.242 246.881 L456.001 251.315 L452.759 255.804 L449.518 260.348 L446.276 264.945 L443.035 269.595 L439.794 274.296 L436.552 279.046 L433.311 283.846 L430.069 288.692 L426.828 293.585 L423.587 298.522 L420.345 303.502 L417.104 308.524 L413.863 313.585 L410.621 318.685 L407.38 323.821 L404.138 328.991 L400.897 334.194 L397.656 339.428 L394.414 344.689 L391.173 349.977 L387.931 355.288 L384.69 360.62 L381.449 365.971 L378.207 371.337 L374.966 376.717 L371.725 382.106 L368.483 387.501 L365.242 392.9 L362 398.298 L358.759 403.692 L355.518 409.078 L352.276 414.451 L349.035 419.808 L345.793 425.143 L342.552 430.453 L339.311 435.73 L336.069 440.972 L332.828 446.17 L329.587 451.321 L326.345 456.417 L323.104 461.453 L319.862 466.42 L316.621 471.313 L313.38 476.124 L310.138 480.844 L306.897 485.467 L303.655 489.983 L300.414 494.385 L297.173 498.662 L293.931 502.807 L290.69 506.809 L287.449 510.658 L284.207 514.345 L280.966 517.86 L277.724 521.193 L274.483 524.332 L271.242 527.268 L268 529.991 L264.759 532.489 L261.517 534.752 L258.276 536.771 L255.035 538.536  Z" fill="#3da44d" fill-rule="evenodd" fill-opacity="0.1"/>
<polyline clip-path="url(#clip051)" style="stroke:#3da44d; stroke-linecap:round; stroke-linejoin:round; stroke-width:8; stroke-opacity:1; fill:none" points="255.035,806.371 258.276,804.373 261.517,802.297 264.759,800.145 268,797.918 271.242,795.619 274.483,793.249 277.724,790.811 280.966,788.305 284.207,785.733 287.449,783.097 290.69,780.399 293.931,777.64 297.173,774.821 300.414,771.945 303.655,769.011 306.897,766.023 310.138,762.981 313.38,759.886 316.621,756.739 319.862,753.543 323.104,750.298 326.345,747.005 329.587,743.666 332.828,740.281 336.069,736.853 339.311,733.381 342.552,729.867 345.793,726.312 349.035,722.717 352.276,719.083 355.518,715.411 358.759,711.702 362,707.957 365.242,704.177 368.483,700.363 371.725,696.515 374.966,692.635 378.207,688.723 381.449,684.781 384.69,680.809 387.931,676.807 391.173,672.778 394.414,668.721 397.656,664.637 400.897,660.528 404.138,656.393 407.38,652.235 410.621,648.053 413.863,643.849 417.104,639.622 420.345,635.375 423.587,631.107 426.828,626.82 430.069,622.514 433.311,618.191 436.552,613.85 439.794,609.492 443.035,605.119 446.276,600.731 449.518,596.33 452.759,591.915 456.001,587.487 459.242,583.048 462.483,578.599 465.725,574.139 468.966,569.67 472.208,565.194 475.449,560.709 478.69,556.219 481.932,551.723 485.173,547.222 488.414,542.718 491.656,538.21 494.897,533.702 498.139,529.192 501.38,524.682 504.621,520.174 507.863,515.668 511.104,511.166 514.346,506.668 517.587,502.176 520.828,497.69 524.07,493.213 527.311,488.744 530.552,484.286 533.794,479.84 537.035,475.407 540.277,470.988 543.518,466.584 546.759,462.198 550.001,457.831 553.242,453.483 556.484,449.157 559.725,444.854 562.966,440.576 566.208,436.324 569.449,432.101 572.69,427.907 575.932,423.745 579.173,419.616 582.415,415.522 585.656,411.466 588.897,407.449 592.139,403.474 595.38,399.542 598.622,395.655 601.863,391.817 605.104,388.028 608.346,384.292 611.587,380.611 614.828,376.987 618.07,373.423 621.311,369.922 624.553,366.486 627.794,363.118 631.035,359.821 634.277,356.598 637.518,353.452 640.76,350.385 644.001,347.402 647.242,344.505 650.484,341.698 653.725,338.984 656.966,336.367 660.208,333.85 663.449,331.437 666.691,329.131 669.932,326.93 673.173,324.833 676.415,322.836 679.656,320.938 682.898,319.136 686.139,317.429 689.38,315.815 692.622,314.291 695.863,312.856 699.104,311.509 702.346,310.248 705.587,309.071 708.829,307.977 712.07,306.966 715.311,306.035 718.553,305.184 721.794,304.412 725.036,303.717 728.277,303.1 731.518,302.559 734.76,302.094 738.001,301.704 741.242,301.389 744.484,301.148 747.725,300.982 750.967,300.889 754.208,300.871 757.449,300.926 760.691,301.055 763.932,301.258 767.174,301.536 770.415,301.888 773.656,302.316 776.898,302.818 780.139,303.397 783.381,304.053 786.622,304.787 789.863,305.599 793.105,306.49 796.346,307.462 799.587,308.516 802.829,309.652 806.07,310.872 809.312,312.178 812.553,313.57 815.794,315.046 819.036,316.603 822.277,318.24 825.519,319.952 828.76,321.738 832.001,323.595 835.243,325.521 838.484,327.514 841.725,329.571 844.967,331.69 848.208,333.87 851.45,336.109 854.691,338.403 857.932,340.753 861.174,343.156 864.415,345.61 867.657,348.115 870.898,350.667 874.139,353.267 877.381,355.911 880.622,358.601 883.863,361.332 887.105,364.104 890.346,366.915 893.588,369.764 896.829,372.648 900.07,375.566 903.312,378.517 906.553,381.5 909.795,384.512 913.036,387.553 916.277,390.622 919.519,393.717 922.76,396.836 926.001,399.98 929.243,403.147 932.484,406.336 935.726,409.545 938.967,412.775 942.208,416.023 945.45,419.291 948.691,422.575 951.933,425.877 955.174,429.194 958.415,432.527 961.657,435.874 964.898,439.236 968.139,442.612 971.381,446 974.622,449.402 977.864,452.815 981.105,456.24 984.346,459.677 987.588,463.125 990.829,466.582 994.071,470.049 997.312,473.523 1000.55,477.003 1003.79,480.489 1007.04,483.98 1010.28,487.474 1013.52,490.97 1016.76,494.467 1020,497.966 1023.24,501.463 1026.48,504.96 1029.73,508.454 1032.97,511.945 1036.21,515.433 1039.45,518.916 1042.69,522.394 1045.93,525.865 1049.17,529.33 1052.42,532.787 1055.66,536.235 1058.9,539.675 1062.14,543.105 1065.38,546.525 1068.62,549.933 1071.86,553.33 1075.11,556.715 1078.35,560.087 1081.59,563.446 1084.83,566.79 1088.07,570.12 1091.31,573.435 1094.55,576.734 1097.79,580.017 1101.04,583.286 1104.28,586.542 1107.52,589.786 1110.76,593.022 1114,596.25 1117.24,599.473 1120.48,602.692 1123.73,605.909 1126.97,609.126 1130.21,612.345 1133.45,615.567 1136.69,618.795 1139.93,622.031 1143.17,625.276 1146.42,628.532 1149.66,631.802 1152.9,635.087 1156.14,638.389 1159.38,641.711 1162.62,645.054 1165.86,648.421 1169.11,651.813 1172.35,655.233 1175.59,658.683 1178.83,662.165 1182.07,665.681 1185.31,669.23 1188.55,672.809 1191.8,676.418 1195.04,680.056 1198.28,683.72 1201.52,687.409 1204.76,691.123 1208,694.858 1211.24,698.615 1214.48,702.391 1217.73,706.186 1220.97,709.998 1224.21,713.825 1227.45,717.667 1230.69,721.522 1233.93,725.389 1237.17,729.266 1240.42,733.153 1243.66,737.047 1246.9,740.949 1250.14,744.856 1253.38,748.77 1256.62,752.689 1259.86,756.615 1263.11,760.548 1266.35,764.489 1269.59,768.438 1272.83,772.395 1276.07,776.361 1279.31,780.337 1282.55,784.324 1285.8,788.32 1289.04,792.328 1292.28,796.348 1295.52,800.38 1298.76,804.425 1302,808.482 1305.24,812.554 1308.48,816.64 1311.73,820.742 1314.97,824.858 1318.21,828.991 1321.45,833.14 1324.69,837.307 1327.93,841.492 1331.17,845.694 1334.42,849.916 1337.66,854.158 1340.9,858.419 1344.14,862.702 1347.38,867.005 1350.62,871.331 1353.86,875.679 1357.11,880.045 1360.35,884.426 1363.59,888.817 1366.83,893.215 1370.07,897.615 1373.31,902.014 1376.55,906.407 1379.8,910.79 1383.04,915.16 1386.28,919.513 1389.52,923.849 1392.76,928.167 1396,932.47 1399.24,936.756 1402.49,941.027 1405.73,945.283 1408.97,949.524 1412.21,953.75 1415.45,957.962 1418.69,962.161 1421.93,966.346 1425.17,970.517 1428.42,974.675 1431.66,978.821 1434.9,982.953 1438.14,987.073 1441.38,991.18 1444.62,995.275 1447.86,999.357 1451.11,1003.43 1454.35,1007.48 1457.59,1011.53 1460.83,1015.56 1464.07,1019.58 1467.31,1023.59 1470.55,1027.58 1473.8,1031.56 1477.04,1035.53 1480.28,1039.48 1483.52,1043.42 1486.76,1047.34 1490,1051.25 1493.24,1055.15 1496.49,1059.03 1499.73,1062.89 1502.97,1066.74 1506.21,1070.57 1509.45,1074.38 1512.69,1078.18 1515.93,1081.95 1519.18,1085.71 1522.42,1089.45 1525.66,1093.16 1528.9,1096.86 1532.14,1100.53 1535.38,1104.19 1538.62,1107.83 1541.86,1111.44 1545.11,1115.04 1548.35,1118.61 1551.59,1122.17 1554.83,1125.7 1558.07,1129.21 1561.31,1132.7 1564.55,1136.17 1567.8,1139.61 1571.04,1143.03 1574.28,1146.43 1577.52,1149.8 1580.76,1153.15 1584,1156.47 1587.24,1159.76 1590.49,1163.03 1593.73,1166.27 1596.97,1169.48 1600.21,1172.66 1603.45,1175.81 1606.69,1178.92 1609.93,1182 1613.18,1185.05 1616.42,1188.06 1619.66,1191.04 1622.9,1193.97 1626.14,1196.87 1629.38,1199.72 1632.62,1202.53 1635.86,1205.3 1639.11,1208.02 1642.35,1210.69 1645.59,1213.31 1648.83,1215.88 1652.07,1218.4 1655.31,1220.85 1658.55,1223.26 1661.8,1225.6 1665.04,1227.87 1668.28,1230.09 1671.52,1232.23 1674.76,1234.31 1678,1236.31 1681.24,1238.24 1684.49,1240.09 1687.73,1241.86 1690.97,1243.55 1694.21,1245.16 1697.45,1246.69 1700.69,1248.14 1703.93,1249.5 1707.18,1250.79 1710.42,1252 1713.66,1253.12 1716.9,1254.16 1720.14,1255.13 1723.38,1256 1726.62,1256.8 1729.87,1257.51 1733.11,1258.13 1736.35,1258.67 1739.59,1259.12 1742.83,1259.48 1746.07,1259.75 1749.31,1259.93 1752.55,1260.01 1755.8,1260.01 1759.04,1259.92 1762.28,1259.74 1765.52,1259.49 1768.76,1259.15 1772,1258.74 1775.24,1258.25 1778.49,1257.69 1781.73,1257.07 1784.97,1256.37 1788.21,1255.62 1791.45,1254.8 1794.69,1253.91 1797.93,1252.97 1801.18,1251.98 1804.42,1250.93 1807.66,1249.82 1810.9,1248.66 1814.14,1247.45 1817.38,1246.2 1820.62,1244.89 1823.87,1243.54 1827.11,1242.15 1830.35,1240.71 1833.59,1239.23 1836.83,1237.7 1840.07,1236.14 1843.31,1234.53 1846.55,1232.89 1849.8,1231.21 1853.04,1229.49 1856.28,1227.73 1859.52,1225.94 1862.76,1224.11 1866,1222.24 1869.24,1220.34 1872.49,1218.41 1875.73,1216.44 1878.97,1214.44 1882.21,1212.4 1885.45,1210.33 1888.69,1208.23 1891.93,1206.1 1895.18,1203.93 1898.42,1201.73 1901.66,1199.51 1904.9,1197.25 1908.14,1194.96 1911.38,1192.64 1914.62,1190.29 1917.87,1187.92 1921.11,1185.51 1924.35,1183.06 1927.59,1180.59 1930.83,1178.09 1934.07,1175.56 1937.31,1172.99 1940.56,1170.39 1943.8,1167.76 1947.04,1165.09 1950.28,1162.4 1953.52,1159.66 1956.76,1156.89 1960,1154.09 1963.24,1151.25 1966.49,1148.36 1969.73,1145.44 1972.97,1142.48 1976.21,1139.47 1979.45,1136.43 1982.69,1133.35 1985.93,1130.24 1989.18,1127.11 1992.42,1123.94 1995.66,1120.75 1998.9,1117.54 2002.14,1114.3 2005.38,1111.05 2008.62,1107.79 2011.87,1104.51 2015.11,1101.22 2018.35,1097.92 2021.59,1094.61 2024.83,1091.3 2028.07,1087.99 2031.31,1084.68 2034.56,1081.37 2037.8,1078.06 2041.04,1074.75 2044.28,1071.45 2047.52,1068.15 2050.76,1064.86 2054,1061.57 2057.24,1058.29 2060.49,1055.02 2063.73,1051.75 2066.97,1048.5 2070.21,1045.25 2073.45,1042.01 2076.69,1038.79 2079.93,1035.57 2083.18,1032.37 2086.42,1029.18 2089.66,1026 2092.9,1022.83 2096.14,1019.68 2099.38,1016.54 2102.62,1013.42 2105.87,1010.31 2109.11,1007.21 2112.35,1004.14 2115.59,1001.07 2118.83,998.027 2122.07,994.997 2125.31,991.985 2128.56,988.99 2131.8,986.013 2135.04,983.053 2138.28,980.112 2141.52,977.19 2144.76,974.287 2148,971.403 2151.25,968.538 2154.49,965.694 2157.73,962.869 2160.97,960.064 2164.21,957.281 2167.45,954.518 2170.69,951.776 2173.93,949.055 2177.18,946.355 2180.42,943.678 2183.66,941.022 2186.9,938.389 2190.14,935.778 2193.38,933.19 2196.62,930.624 2199.87,928.082 2203.11,925.563 2206.35,923.067 2209.59,920.596 2212.83,918.148 2216.07,915.724 2219.31,913.325 2222.56,910.952 2225.8,908.605 2229.04,906.286 2232.28,903.994 2235.52,901.732 2238.76,899.498 2242,897.295 2245.25,895.123 2248.49,892.983 2251.73,890.876 2254.97,888.802 2258.21,886.762 2261.45,884.756 2264.69,882.783 2267.94,880.843 2271.18,878.935 2274.42,877.058 2277.66,875.212 2280.9,873.397 2284.14,871.612 2287.38,869.857 2290.62,868.13 "/>
<path clip-path="url(#clip050)" d="M1953.46 406.258 L2280.8 406.258 L2280.8 95.2176 L1953.46 95.2176  Z" fill="#ffffff" fill-rule="evenodd" fill-opacity="1"/>
<polyline clip-path="url(#clip050)" style="stroke:#000000; stroke-linecap:round; stroke-linejoin:round; stroke-width:4; stroke-opacity:1; fill:none" points="1953.46,406.258 2280.8,406.258 2280.8,95.2176 1953.46,95.2176 1953.46,406.258 "/>
<polyline clip-path="url(#clip050)" style="stroke:#009af9; stroke-linecap:round; stroke-linejoin:round; stroke-width:4; stroke-opacity:1; fill:none" points="1977.44,147.058 2121.36,147.058 "/>
<path clip-path="url(#clip050)" d="M2152.76 131.051 L2152.76 138.412 L2161.53 138.412 L2161.53 141.722 L2152.76 141.722 L2152.76 155.796 Q2152.76 158.967 2153.61 159.87 Q2154.49 160.773 2157.16 160.773 L2161.53 160.773 L2161.53 164.338 L2157.16 164.338 Q2152.23 164.338 2150.35 162.509 Q2148.48 160.657 2148.48 155.796 L2148.48 141.722 L2145.35 141.722 L2145.35 138.412 L2148.48 138.412 L2148.48 131.051 L2152.76 131.051 Z" fill="#000000" fill-rule="nonzero" fill-opacity="1" /><path clip-path="url(#clip050)" d="M2182.16 142.393 Q2181.44 141.977 2180.58 141.791 Q2179.75 141.583 2178.73 141.583 Q2175.12 141.583 2173.17 143.944 Q2171.25 146.282 2171.25 150.68 L2171.25 164.338 L2166.97 164.338 L2166.97 138.412 L2171.25 138.412 L2171.25 142.44 Q2172.6 140.078 2174.75 138.944 Q2176.9 137.787 2179.98 137.787 Q2180.42 137.787 2180.95 137.856 Q2181.48 137.903 2182.13 138.018 L2182.16 142.393 Z" fill="#000000" fill-rule="nonzero" fill-opacity="1" /><path clip-path="url(#clip050)" d="M2186.18 154.106 L2186.18 138.412 L2190.44 138.412 L2190.44 153.944 Q2190.44 157.625 2191.88 159.476 Q2193.31 161.305 2196.18 161.305 Q2199.63 161.305 2201.62 159.106 Q2203.64 156.907 2203.64 153.111 L2203.64 138.412 L2207.9 138.412 L2207.9 164.338 L2203.64 164.338 L2203.64 160.356 Q2202.09 162.717 2200.03 163.875 Q2197.99 165.009 2195.28 165.009 Q2190.81 165.009 2188.5 162.231 Q2186.18 159.453 2186.18 154.106 M2196.9 137.787 L2196.9 137.787 Z" fill="#000000" fill-rule="nonzero" fill-opacity="1" /><path clip-path="url(#clip050)" d="M2220.88 131.051 L2220.88 138.412 L2229.66 138.412 L2229.66 141.722 L2220.88 141.722 L2220.88 155.796 Q2220.88 158.967 2221.74 159.87 Q2222.62 160.773 2225.28 160.773 L2229.66 160.773 L2229.66 164.338 L2225.28 164.338 Q2220.35 164.338 2218.48 162.509 Q2216.6 160.657 2216.6 155.796 L2216.6 141.722 L2213.48 141.722 L2213.48 138.412 L2216.6 138.412 L2216.6 131.051 L2220.88 131.051 Z" fill="#000000" fill-rule="nonzero" fill-opacity="1" /><path clip-path="url(#clip050)" d="M2256.81 148.689 L2256.81 164.338 L2252.55 164.338 L2252.55 148.828 Q2252.55 145.148 2251.11 143.319 Q2249.68 141.49 2246.81 141.49 Q2243.36 141.49 2241.37 143.69 Q2239.38 145.889 2239.38 149.685 L2239.38 164.338 L2235.1 164.338 L2235.1 128.319 L2239.38 128.319 L2239.38 142.44 Q2240.91 140.102 2242.97 138.944 Q2245.05 137.787 2247.76 137.787 Q2252.23 137.787 2254.52 140.565 Q2256.81 143.319 2256.81 148.689 Z" fill="#000000" fill-rule="nonzero" fill-opacity="1" /><circle clip-path="url(#clip050)" cx="2049.4" cy="198.898" r="20.48" fill="#e26f46" fill-rule="evenodd" fill-opacity="1" stroke="#000000" stroke-opacity="1" stroke-width="4.55111"/>
<path clip-path="url(#clip050)" d="M2164.26 194.187 L2164.26 180.159 L2168.52 180.159 L2168.52 216.178 L2164.26 216.178 L2164.26 212.289 Q2162.92 214.603 2160.86 215.738 Q2158.82 216.849 2155.95 216.849 Q2151.25 216.849 2148.29 213.099 Q2145.35 209.349 2145.35 203.238 Q2145.35 197.127 2148.29 193.377 Q2151.25 189.627 2155.95 189.627 Q2158.82 189.627 2160.86 190.761 Q2162.92 191.872 2164.26 194.187 M2149.75 203.238 Q2149.75 207.937 2151.67 210.622 Q2153.61 213.284 2156.99 213.284 Q2160.37 213.284 2162.32 210.622 Q2164.26 207.937 2164.26 203.238 Q2164.26 198.539 2162.32 195.877 Q2160.37 193.192 2156.99 193.192 Q2153.61 193.192 2151.67 195.877 Q2149.75 198.539 2149.75 203.238 Z" fill="#000000" fill-rule="nonzero" fill-opacity="1" /><path clip-path="url(#clip050)" d="M2189.08 203.145 Q2183.92 203.145 2181.92 204.326 Q2179.93 205.506 2179.93 208.354 Q2179.93 210.622 2181.42 211.965 Q2182.92 213.284 2185.49 213.284 Q2189.03 213.284 2191.16 210.784 Q2193.31 208.261 2193.31 204.094 L2193.31 203.145 L2189.08 203.145 M2197.57 201.386 L2197.57 216.178 L2193.31 216.178 L2193.31 212.242 Q2191.85 214.603 2189.68 215.738 Q2187.5 216.849 2184.36 216.849 Q2180.37 216.849 2178.01 214.627 Q2175.67 212.381 2175.67 208.631 Q2175.67 204.256 2178.59 202.034 Q2181.53 199.812 2187.34 199.812 L2193.31 199.812 L2193.31 199.395 Q2193.31 196.455 2191.37 194.858 Q2189.45 193.238 2185.95 193.238 Q2183.73 193.238 2181.62 193.77 Q2179.52 194.303 2177.57 195.367 L2177.57 191.432 Q2179.91 190.53 2182.11 190.09 Q2184.31 189.627 2186.39 189.627 Q2192.02 189.627 2194.79 192.543 Q2197.57 195.46 2197.57 201.386 Z" fill="#000000" fill-rule="nonzero" fill-opacity="1" /><path clip-path="url(#clip050)" d="M2210.56 182.891 L2210.56 190.252 L2219.33 190.252 L2219.33 193.562 L2210.56 193.562 L2210.56 207.636 Q2210.56 210.807 2211.42 211.71 Q2212.29 212.613 2214.96 212.613 L2219.33 212.613 L2219.33 216.178 L2214.96 216.178 Q2210.03 216.178 2208.15 214.349 Q2206.28 212.497 2206.28 207.636 L2206.28 193.562 L2203.15 193.562 L2203.15 190.252 L2206.28 190.252 L2206.28 182.891 L2210.56 182.891 Z" fill="#000000" fill-rule="nonzero" fill-opacity="1" /><path clip-path="url(#clip050)" d="M2236.72 203.145 Q2231.55 203.145 2229.56 204.326 Q2227.57 205.506 2227.57 208.354 Q2227.57 210.622 2229.05 211.965 Q2230.56 213.284 2233.13 213.284 Q2236.67 213.284 2238.8 210.784 Q2240.95 208.261 2240.95 204.094 L2240.95 203.145 L2236.72 203.145 M2245.21 201.386 L2245.21 216.178 L2240.95 216.178 L2240.95 212.242 Q2239.49 214.603 2237.32 215.738 Q2235.14 216.849 2231.99 216.849 Q2228.01 216.849 2225.65 214.627 Q2223.31 212.381 2223.31 208.631 Q2223.31 204.256 2226.23 202.034 Q2229.17 199.812 2234.98 199.812 L2240.95 199.812 L2240.95 199.395 Q2240.95 196.455 2239.01 194.858 Q2237.09 193.238 2233.59 193.238 Q2231.37 193.238 2229.26 193.77 Q2227.16 194.303 2225.21 195.367 L2225.21 191.432 Q2227.55 190.53 2229.75 190.09 Q2231.95 189.627 2234.03 189.627 Q2239.66 189.627 2242.43 192.543 Q2245.21 195.46 2245.21 201.386 Z" fill="#000000" fill-rule="nonzero" fill-opacity="1" /><polyline clip-path="url(#clip050)" style="stroke:#3da44d; stroke-linecap:round; stroke-linejoin:round; stroke-width:8; stroke-opacity:1; fill:none" points="1977.44,250.738 2121.36,250.738 "/>
<path clip-path="url(#clip050)" d="M2170.91 263.087 L2170.91 253.805 L2163.27 253.805 L2163.27 249.962 L2175.54 249.962 L2175.54 264.8 Q2172.83 266.721 2169.56 267.717 Q2166.3 268.689 2162.6 268.689 Q2154.49 268.689 2149.91 263.967 Q2145.35 259.221 2145.35 250.772 Q2145.35 242.3 2149.91 237.578 Q2154.49 232.833 2162.6 232.833 Q2165.98 232.833 2169.01 233.666 Q2172.06 234.499 2174.63 236.12 L2174.63 241.096 Q2172.04 238.897 2169.12 237.786 Q2166.21 236.675 2162.99 236.675 Q2156.65 236.675 2153.45 240.217 Q2150.28 243.758 2150.28 250.772 Q2150.28 257.763 2153.45 261.305 Q2156.65 264.846 2162.99 264.846 Q2165.47 264.846 2167.41 264.43 Q2169.36 263.99 2170.91 263.087 Z" fill="#000000" fill-rule="nonzero" fill-opacity="1" /><path clip-path="url(#clip050)" d="M2188.75 237.3 L2188.75 250.286 L2194.63 250.286 Q2197.9 250.286 2199.68 248.596 Q2201.46 246.907 2201.46 243.782 Q2201.46 240.68 2199.68 238.99 Q2197.9 237.3 2194.63 237.3 L2188.75 237.3 M2184.08 233.458 L2194.63 233.458 Q2200.44 233.458 2203.41 236.096 Q2206.39 238.712 2206.39 243.782 Q2206.39 248.897 2203.41 251.513 Q2200.44 254.129 2194.63 254.129 L2188.75 254.129 L2188.75 268.018 L2184.08 268.018 L2184.08 233.458 Z" fill="#000000" fill-rule="nonzero" fill-opacity="1" /><polyline clip-path="url(#clip050)" style="stroke:#c271d2; stroke-linecap:round; stroke-linejoin:round; stroke-width:12; stroke-opacity:1; fill:none" points="1977.44,302.578 2121.36,302.578 "/>
<path clip-path="url(#clip050)" d="M2150.03 289.14 L2150.03 302.126 L2155.91 302.126 Q2159.17 302.126 2160.95 300.436 Q2162.73 298.747 2162.73 295.622 Q2162.73 292.52 2160.95 290.83 Q2159.17 289.14 2155.91 289.14 L2150.03 289.14 M2145.35 285.298 L2155.91 285.298 Q2161.72 285.298 2164.68 287.936 Q2167.67 290.552 2167.67 295.622 Q2167.67 300.737 2164.68 303.353 Q2161.72 305.969 2155.91 305.969 L2150.03 305.969 L2150.03 319.858 L2145.35 319.858 L2145.35 285.298 Z" fill="#000000" fill-rule="nonzero" fill-opacity="1" /><path clip-path="url(#clip050)" d="M2178.38 315.922 L2194.7 315.922 L2194.7 319.858 L2172.76 319.858 L2172.76 315.922 Q2175.42 313.168 2180 308.538 Q2184.61 303.885 2185.79 302.543 Q2188.04 300.02 2188.92 298.284 Q2189.82 296.524 2189.82 294.835 Q2189.82 292.08 2187.87 290.344 Q2185.95 288.608 2182.85 288.608 Q2180.65 288.608 2178.2 289.372 Q2175.77 290.135 2172.99 291.686 L2172.99 286.964 Q2175.81 285.83 2178.27 285.251 Q2180.72 284.673 2182.76 284.673 Q2188.13 284.673 2191.32 287.358 Q2194.52 290.043 2194.52 294.534 Q2194.52 296.663 2193.71 298.585 Q2192.92 300.483 2190.81 303.075 Q2190.23 303.747 2187.13 306.964 Q2184.03 310.159 2178.38 315.922 Z" fill="#000000" fill-rule="nonzero" fill-opacity="1" /><path clip-path="url(#clip050)" d="M2204.56 285.298 L2222.92 285.298 L2222.92 289.233 L2208.85 289.233 L2208.85 297.705 Q2209.86 297.358 2210.88 297.196 Q2211.9 297.01 2212.92 297.01 Q2218.71 297.01 2222.09 300.182 Q2225.47 303.353 2225.47 308.77 Q2225.47 314.348 2221.99 317.45 Q2218.52 320.529 2212.2 320.529 Q2210.03 320.529 2207.76 320.158 Q2205.51 319.788 2203.1 319.047 L2203.1 314.348 Q2205.19 315.483 2207.41 316.038 Q2209.63 316.594 2212.11 316.594 Q2216.11 316.594 2218.45 314.487 Q2220.79 312.381 2220.79 308.77 Q2220.79 305.159 2218.45 303.052 Q2216.11 300.946 2212.11 300.946 Q2210.23 300.946 2208.36 301.362 Q2206.51 301.779 2204.56 302.659 L2204.56 285.298 Z" fill="#000000" fill-rule="nonzero" fill-opacity="1" /><polyline clip-path="url(#clip050)" style="stroke:#ac8d18; stroke-linecap:round; stroke-linejoin:round; stroke-width:12; stroke-opacity:1; fill:none" points="1977.44,354.418 2121.36,354.418 "/>
<path clip-path="url(#clip050)" d="M2150.03 340.98 L2150.03 353.966 L2155.91 353.966 Q2159.17 353.966 2160.95 352.276 Q2162.73 350.587 2162.73 347.462 Q2162.73 344.36 2160.95 342.67 Q2159.17 340.98 2155.91 340.98 L2150.03 340.98 M2145.35 337.138 L2155.91 337.138 Q2161.72 337.138 2164.68 339.776 Q2167.67 342.392 2167.67 347.462 Q2167.67 352.577 2164.68 355.193 Q2161.72 357.809 2155.91 357.809 L2150.03 357.809 L2150.03 371.698 L2145.35 371.698 L2145.35 337.138 Z" fill="#000000" fill-rule="nonzero" fill-opacity="1" /><path clip-path="url(#clip050)" d="M2173.17 337.138 L2195.4 337.138 L2195.4 339.128 L2182.85 371.698 L2177.97 371.698 L2189.77 341.073 L2173.17 341.073 L2173.17 337.138 Z" fill="#000000" fill-rule="nonzero" fill-opacity="1" /><path clip-path="url(#clip050)" d="M2204.56 337.138 L2222.92 337.138 L2222.92 341.073 L2208.85 341.073 L2208.85 349.545 Q2209.86 349.198 2210.88 349.036 Q2211.9 348.85 2212.92 348.85 Q2218.71 348.85 2222.09 352.022 Q2225.47 355.193 2225.47 360.61 Q2225.47 366.188 2221.99 369.29 Q2218.52 372.369 2212.2 372.369 Q2210.03 372.369 2207.76 371.998 Q2205.51 371.628 2203.1 370.887 L2203.1 366.188 Q2205.19 367.323 2207.41 367.878 Q2209.63 368.434 2212.11 368.434 Q2216.11 368.434 2218.45 366.327 Q2220.79 364.221 2220.79 360.61 Q2220.79 356.999 2218.45 354.892 Q2216.11 352.786 2212.11 352.786 Q2210.23 352.786 2208.36 353.202 Q2206.51 353.619 2204.56 354.499 L2204.56 337.138 Z" fill="#000000" fill-rule="nonzero" fill-opacity="1" /></svg>
