<?xml version="1.0" encoding="utf-8"?>
<svg xmlns="http://www.w3.org/2000/svg" xmlns:xlink="http://www.w3.org/1999/xlink" width="600" height="400" viewBox="0 0 2400 1600">
<defs>
  <clipPath id="clip990">
    <rect x="0" y="0" width="2400" height="1600"/>
  </clipPath>
</defs>
<path clip-path="url(#clip990)" d="M0 1600 L2400 1600 L2400 0 L0 0  Z" fill="#ffffff" fill-rule="evenodd" fill-opacity="1"/>
<defs>
  <clipPath id="clip991">
    <rect x="193" y="47" width="2160" height="1440"/>
  </clipPath>
</defs>
<path clip-path="url(#clip990)" d="M193.936 1486.45 L2352.76 1486.45 L2352.76 47.2441 L193.936 47.2441  Z" fill="#ffffff" fill-rule="evenodd" fill-opacity="1"/>
<polyline clip-path="url(#clip991)" style="stroke:#000000; stroke-linecap:round; stroke-linejoin:round; stroke-width:2; stroke-opacity:0.1; fill:none" points="255.035,1486.45 255.035,47.2441 "/>
<polyline clip-path="url(#clip991)" style="stroke:#000000; stroke-linecap:round; stroke-linejoin:round; stroke-width:2; stroke-opacity:0.1; fill:none" points="579.338,1486.45 579.338,47.2441 "/>
<polyline clip-path="url(#clip991)" style="stroke:#000000; stroke-linecap:round; stroke-linejoin:round; stroke-width:2; stroke-opacity:0.1; fill:none" points="903.641,1486.45 903.641,47.2441 "/>
<polyline clip-path="url(#clip991)" style="stroke:#000000; stroke-linecap:round; stroke-linejoin:round; stroke-width:2; stroke-opacity:0.1; fill:none" points="1227.94,1486.45 1227.94,47.2441 "/>
<polyline clip-path="url(#clip991)" style="stroke:#000000; stroke-linecap:round; stroke-linejoin:round; stroke-width:2; stroke-opacity:0.1; fill:none" points="1552.25,1486.45 1552.25,47.2441 "/>
<polyline clip-path="url(#clip991)" style="stroke:#000000; stroke-linecap:round; stroke-linejoin:round; stroke-width:2; stroke-opacity:0.1; fill:none" points="1876.55,1486.45 1876.55,47.2441 "/>
<polyline clip-path="url(#clip991)" style="stroke:#000000; stroke-linecap:round; stroke-linejoin:round; stroke-width:2; stroke-opacity:0.1; fill:none" points="2200.85,1486.45 2200.85,47.2441 "/>
<polyline clip-path="url(#clip991)" style="stroke:#000000; stroke-linecap:round; stroke-linejoin:round; stroke-width:2; stroke-opacity:0.1; fill:none" points="193.936,1355.21 2352.76,1355.21 "/>
<polyline clip-path="url(#clip991)" style="stroke:#000000; stroke-linecap:round; stroke-linejoin:round; stroke-width:2; stroke-opacity:0.1; fill:none" points="193.936,1053.16 2352.76,1053.16 "/>
<polyline clip-path="url(#clip991)" style="stroke:#000000; stroke-linecap:round; stroke-linejoin:round; stroke-width:2; stroke-opacity:0.1; fill:none" points="193.936,751.106 2352.76,751.106 "/>
<polyline clip-path="url(#clip991)" style="stroke:#000000; stroke-linecap:round; stroke-linejoin:round; stroke-width:2; stroke-opacity:0.1; fill:none" points="193.936,449.056 2352.76,449.056 "/>
<polyline clip-path="url(#clip991)" style="stroke:#000000; stroke-linecap:round; stroke-linejoin:round; stroke-width:2; stroke-opacity:0.1; fill:none" points="193.936,147.005 2352.76,147.005 "/>
<polyline clip-path="url(#clip990)" style="stroke:#000000; stroke-linecap:round; stroke-linejoin:round; stroke-width:4; stroke-opacity:1; fill:none" points="193.936,1486.45 2352.76,1486.45 "/>
<polyline clip-path="url(#clip990)" style="stroke:#000000; stroke-linecap:round; stroke-linejoin:round; stroke-width:4; stroke-opacity:1; fill:none" points="255.035,1486.45 255.035,1467.55 "/>
<polyline clip-path="url(#clip990)" style="stroke:#000000; stroke-linecap:round; stroke-linejoin:round; stroke-width:4; stroke-opacity:1; fill:none" points="579.338,1486.45 579.338,1467.55 "/>
<polyline clip-path="url(#clip990)" style="stroke:#000000; stroke-linecap:round; stroke-linejoin:round; stroke-width:4; stroke-opacity:1; fill:none" points="903.641,1486.45 903.641,1467.55 "/>
<polyline clip-path="url(#clip990)" style="stroke:#000000; stroke-linecap:round; stroke-linejoin:round; stroke-width:4; stroke-opacity:1; fill:none" points="1227.94,1486.45 1227.94,1467.55 "/>
<polyline clip-path="url(#clip990)" style="stroke:#000000; stroke-linecap:round; stroke-linejoin:round; stroke-width:4; stroke-opacity:1; fill:none" points="1552.25,1486.45 1552.25,1467.55 "/>
<polyline clip-path="url(#clip990)" style="stroke:#000000; stroke-linecap:round; stroke-linejoin:round; stroke-width:4; stroke-opacity:1; fill:none" points="1876.55,1486.45 1876.55,1467.55 "/>
<polyline clip-path="url(#clip990)" style="stroke:#000000; stroke-linecap:round; stroke-linejoin:round; stroke-width:4; stroke-opacity:1; fill:none" points="2200.85,1486.45 2200.85,1467.55 "/>
<path clip-path="url(#clip990)" d="M255.035 1517.37 Q251.424 1517.37 249.595 1520.93 Q247.789 1524.47 247.789 1531.6 Q247.789 1538.71 249.595 1542.27 Q251.424 1545.82 255.035 1545.82 Q258.669 1545.82 260.474 1542.27 Q262.303 1538.71 262.303 1531.6 Q262.303 1524.47 260.474 1520.93 Q258.669 1517.37 255.035 1517.37 M255.035 1513.66 Q260.845 1513.66 263.9 1518.27 Q266.979 1522.85 266.979 1531.6 Q266.979 1540.33 263.9 1544.94 Q260.845 1549.52 255.035 1549.52 Q249.225 1549.52 246.146 1544.94 Q243.09 1540.33 243.09 1531.6 Q243.09 1522.85 246.146 1518.27 Q249.225 1513.66 255.035 1513.66 Z" fill="#000000" fill-rule="nonzero" fill-opacity="1" /><path clip-path="url(#clip990)" d="M569.72 1544.91 L577.358 1544.91 L577.358 1518.55 L569.048 1520.21 L569.048 1515.95 L577.312 1514.29 L581.988 1514.29 L581.988 1544.91 L589.627 1544.91 L589.627 1548.85 L569.72 1548.85 L569.72 1544.91 Z" fill="#000000" fill-rule="nonzero" fill-opacity="1" /><path clip-path="url(#clip990)" d="M898.293 1544.91 L914.613 1544.91 L914.613 1548.85 L892.668 1548.85 L892.668 1544.91 Q895.33 1542.16 899.914 1537.53 Q904.52 1532.88 905.701 1531.53 Q907.946 1529.01 908.826 1527.27 Q909.729 1525.51 909.729 1523.82 Q909.729 1521.07 907.784 1519.33 Q905.863 1517.6 902.761 1517.6 Q900.562 1517.6 898.108 1518.36 Q895.678 1519.13 892.9 1520.68 L892.9 1515.95 Q895.724 1514.82 898.178 1514.24 Q900.631 1513.66 902.668 1513.66 Q908.039 1513.66 911.233 1516.35 Q914.428 1519.03 914.428 1523.52 Q914.428 1525.65 913.617 1527.57 Q912.83 1529.47 910.724 1532.07 Q910.145 1532.74 907.043 1535.95 Q903.942 1539.15 898.293 1544.91 Z" fill="#000000" fill-rule="nonzero" fill-opacity="1" /><path clip-path="url(#clip990)" d="M1232.19 1530.21 Q1235.55 1530.93 1237.42 1533.2 Q1239.32 1535.47 1239.32 1538.8 Q1239.32 1543.92 1235.8 1546.72 Q1232.28 1549.52 1225.8 1549.52 Q1223.63 1549.52 1221.31 1549.08 Q1219.02 1548.66 1216.57 1547.81 L1216.57 1543.29 Q1218.51 1544.43 1220.83 1545.01 Q1223.14 1545.58 1225.66 1545.58 Q1230.06 1545.58 1232.35 1543.85 Q1234.67 1542.11 1234.67 1538.8 Q1234.67 1535.75 1232.52 1534.03 Q1230.39 1532.3 1226.57 1532.3 L1222.54 1532.3 L1222.54 1528.45 L1226.75 1528.45 Q1230.2 1528.45 1232.03 1527.09 Q1233.86 1525.7 1233.86 1523.11 Q1233.86 1520.45 1231.96 1519.03 Q1230.08 1517.6 1226.57 1517.6 Q1224.64 1517.6 1222.45 1518.01 Q1220.25 1518.43 1217.61 1519.31 L1217.61 1515.14 Q1220.27 1514.4 1222.58 1514.03 Q1224.92 1513.66 1226.98 1513.66 Q1232.31 1513.66 1235.41 1516.09 Q1238.51 1518.5 1238.51 1522.62 Q1238.51 1525.49 1236.87 1527.48 Q1235.22 1529.45 1232.19 1530.21 Z" fill="#000000" fill-rule="nonzero" fill-opacity="1" /><path clip-path="url(#clip990)" d="M1555.26 1518.36 L1543.45 1536.81 L1555.26 1536.81 L1555.26 1518.36 M1554.03 1514.29 L1559.91 1514.29 L1559.91 1536.81 L1564.84 1536.81 L1564.84 1540.7 L1559.91 1540.7 L1559.91 1548.85 L1555.26 1548.85 L1555.26 1540.7 L1539.65 1540.7 L1539.65 1536.19 L1554.03 1514.29 Z" fill="#000000" fill-rule="nonzero" fill-opacity="1" /><path clip-path="url(#clip990)" d="M1866.83 1514.29 L1885.18 1514.29 L1885.18 1518.22 L1871.11 1518.22 L1871.11 1526.7 Q1872.13 1526.35 1873.15 1526.19 Q1874.17 1526 1875.18 1526 Q1880.97 1526 1884.35 1529.17 Q1887.73 1532.34 1887.73 1537.76 Q1887.73 1543.34 1884.26 1546.44 Q1880.79 1549.52 1874.47 1549.52 Q1872.29 1549.52 1870.02 1549.15 Q1867.78 1548.78 1865.37 1548.04 L1865.37 1543.34 Q1867.45 1544.47 1869.67 1545.03 Q1871.9 1545.58 1874.37 1545.58 Q1878.38 1545.58 1880.72 1543.48 Q1883.05 1541.37 1883.05 1537.76 Q1883.05 1534.15 1880.72 1532.04 Q1878.38 1529.94 1874.37 1529.94 Q1872.5 1529.94 1870.62 1530.35 Q1868.77 1530.77 1866.83 1531.65 L1866.83 1514.29 Z" fill="#000000" fill-rule="nonzero" fill-opacity="1" /><path clip-path="url(#clip990)" d="M2201.26 1529.7 Q2198.11 1529.7 2196.26 1531.86 Q2194.43 1534.01 2194.43 1537.76 Q2194.43 1541.49 2196.26 1543.66 Q2198.11 1545.82 2201.26 1545.82 Q2204.41 1545.82 2206.23 1543.66 Q2208.09 1541.49 2208.09 1537.76 Q2208.09 1534.01 2206.23 1531.86 Q2204.41 1529.7 2201.26 1529.7 M2210.54 1515.05 L2210.54 1519.31 Q2208.78 1518.48 2206.98 1518.04 Q2205.19 1517.6 2203.43 1517.6 Q2198.8 1517.6 2196.35 1520.72 Q2193.92 1523.85 2193.57 1530.17 Q2194.94 1528.15 2197 1527.09 Q2199.06 1526 2201.54 1526 Q2206.74 1526 2209.75 1529.17 Q2212.79 1532.32 2212.79 1537.76 Q2212.79 1543.08 2209.64 1546.3 Q2206.49 1549.52 2201.26 1549.52 Q2195.26 1549.52 2192.09 1544.94 Q2188.92 1540.33 2188.92 1531.6 Q2188.92 1523.41 2192.81 1518.55 Q2196.7 1513.66 2203.25 1513.66 Q2205.01 1513.66 2206.79 1514.01 Q2208.6 1514.36 2210.54 1515.05 Z" fill="#000000" fill-rule="nonzero" fill-opacity="1" /><polyline clip-path="url(#clip990)" style="stroke:#000000; stroke-linecap:round; stroke-linejoin:round; stroke-width:4; stroke-opacity:1; fill:none" points="193.936,1486.45 193.936,47.2441 "/>
<polyline clip-path="url(#clip990)" style="stroke:#000000; stroke-linecap:round; stroke-linejoin:round; stroke-width:4; stroke-opacity:1; fill:none" points="193.936,1355.21 212.834,1355.21 "/>
<polyline clip-path="url(#clip990)" style="stroke:#000000; stroke-linecap:round; stroke-linejoin:round; stroke-width:4; stroke-opacity:1; fill:none" points="193.936,1053.16 212.834,1053.16 "/>
<polyline clip-path="url(#clip990)" style="stroke:#000000; stroke-linecap:round; stroke-linejoin:round; stroke-width:4; stroke-opacity:1; fill:none" points="193.936,751.106 212.834,751.106 "/>
<polyline clip-path="url(#clip990)" style="stroke:#000000; stroke-linecap:round; stroke-linejoin:round; stroke-width:4; stroke-opacity:1; fill:none" points="193.936,449.056 212.834,449.056 "/>
<polyline clip-path="url(#clip990)" style="stroke:#000000; stroke-linecap:round; stroke-linejoin:round; stroke-width:4; stroke-opacity:1; fill:none" points="193.936,147.005 212.834,147.005 "/>
<path clip-path="url(#clip990)" d="M50.9921 1355.66 L80.6679 1355.66 L80.6679 1359.59 L50.9921 1359.59 L50.9921 1355.66 Z" fill="#000000" fill-rule="nonzero" fill-opacity="1" /><path clip-path="url(#clip990)" d="M91.5706 1368.55 L99.2095 1368.55 L99.2095 1342.19 L90.8993 1343.85 L90.8993 1339.59 L99.1632 1337.93 L103.839 1337.93 L103.839 1368.55 L111.478 1368.55 L111.478 1372.49 L91.5706 1372.49 L91.5706 1368.55 Z" fill="#000000" fill-rule="nonzero" fill-opacity="1" /><path clip-path="url(#clip990)" d="M120.922 1366.61 L125.807 1366.61 L125.807 1372.49 L120.922 1372.49 L120.922 1366.61 Z" fill="#000000" fill-rule="nonzero" fill-opacity="1" /><path clip-path="url(#clip990)" d="M145.992 1341.01 Q142.381 1341.01 140.552 1344.57 Q138.746 1348.11 138.746 1355.24 Q138.746 1362.35 140.552 1365.91 Q142.381 1369.45 145.992 1369.45 Q149.626 1369.45 151.431 1365.91 Q153.26 1362.35 153.26 1355.24 Q153.26 1348.11 151.431 1344.57 Q149.626 1341.01 145.992 1341.01 M145.992 1337.3 Q151.802 1337.3 154.857 1341.91 Q157.936 1346.49 157.936 1355.24 Q157.936 1363.97 154.857 1368.57 Q151.802 1373.16 145.992 1373.16 Q140.181 1373.16 137.103 1368.57 Q134.047 1363.97 134.047 1355.24 Q134.047 1346.49 137.103 1341.91 Q140.181 1337.3 145.992 1337.3 Z" fill="#000000" fill-rule="nonzero" fill-opacity="1" /><path clip-path="url(#clip990)" d="M51.9875 1053.61 L81.6633 1053.61 L81.6633 1057.54 L51.9875 1057.54 L51.9875 1053.61 Z" fill="#000000" fill-rule="nonzero" fill-opacity="1" /><path clip-path="url(#clip990)" d="M101.756 1038.95 Q98.1447 1038.95 96.316 1042.52 Q94.5104 1046.06 94.5104 1053.19 Q94.5104 1060.3 96.316 1063.86 Q98.1447 1067.4 101.756 1067.4 Q105.39 1067.4 107.196 1063.86 Q109.024 1060.3 109.024 1053.19 Q109.024 1046.06 107.196 1042.52 Q105.39 1038.95 101.756 1038.95 M101.756 1035.25 Q107.566 1035.25 110.621 1039.86 Q113.7 1044.44 113.7 1053.19 Q113.7 1061.92 110.621 1066.52 Q107.566 1071.11 101.756 1071.11 Q95.9456 1071.11 92.8669 1066.52 Q89.8114 1061.92 89.8114 1053.19 Q89.8114 1044.44 92.8669 1039.86 Q95.9456 1035.25 101.756 1035.25 Z" fill="#000000" fill-rule="nonzero" fill-opacity="1" /><path clip-path="url(#clip990)" d="M121.918 1064.56 L126.802 1064.56 L126.802 1070.44 L121.918 1070.44 L121.918 1064.56 Z" fill="#000000" fill-rule="nonzero" fill-opacity="1" /><path clip-path="url(#clip990)" d="M137.033 1035.88 L155.39 1035.88 L155.39 1039.81 L141.316 1039.81 L141.316 1048.28 Q142.334 1047.94 143.353 1047.77 Q144.371 1047.59 145.39 1047.59 Q151.177 1047.59 154.556 1050.76 Q157.936 1053.93 157.936 1059.35 Q157.936 1064.93 154.464 1068.03 Q150.992 1071.11 144.672 1071.11 Q142.496 1071.11 140.228 1070.74 Q137.982 1070.37 135.575 1069.63 L135.575 1064.93 Q137.658 1066.06 139.881 1066.62 Q142.103 1067.17 144.58 1067.17 Q148.584 1067.17 150.922 1065.07 Q153.26 1062.96 153.26 1059.35 Q153.26 1055.74 150.922 1053.63 Q148.584 1051.52 144.58 1051.52 Q142.705 1051.52 140.83 1051.94 Q138.978 1052.36 137.033 1053.24 L137.033 1035.88 Z" fill="#000000" fill-rule="nonzero" fill-opacity="1" /><path clip-path="url(#clip990)" d="M100.76 736.905 Q97.1493 736.905 95.3206 740.469 Q93.515 744.011 93.515 751.141 Q93.515 758.247 95.3206 761.812 Q97.1493 765.354 100.76 765.354 Q104.395 765.354 106.2 761.812 Q108.029 758.247 108.029 751.141 Q108.029 744.011 106.2 740.469 Q104.395 736.905 100.76 736.905 M100.76 733.201 Q106.571 733.201 109.626 737.807 Q112.705 742.391 112.705 751.141 Q112.705 759.868 109.626 764.474 Q106.571 769.057 100.76 769.057 Q94.9502 769.057 91.8715 764.474 Q88.816 759.868 88.816 751.141 Q88.816 742.391 91.8715 737.807 Q94.9502 733.201 100.76 733.201 Z" fill="#000000" fill-rule="nonzero" fill-opacity="1" /><path clip-path="url(#clip990)" d="M120.922 762.506 L125.807 762.506 L125.807 768.386 L120.922 768.386 L120.922 762.506 Z" fill="#000000" fill-rule="nonzero" fill-opacity="1" /><path clip-path="url(#clip990)" d="M145.992 736.905 Q142.381 736.905 140.552 740.469 Q138.746 744.011 138.746 751.141 Q138.746 758.247 140.552 761.812 Q142.381 765.354 145.992 765.354 Q149.626 765.354 151.431 761.812 Q153.26 758.247 153.26 751.141 Q153.26 744.011 151.431 740.469 Q149.626 736.905 145.992 736.905 M145.992 733.201 Q151.802 733.201 154.857 737.807 Q157.936 742.391 157.936 751.141 Q157.936 759.868 154.857 764.474 Q151.802 769.057 145.992 769.057 Q140.181 769.057 137.103 764.474 Q134.047 759.868 134.047 751.141 Q134.047 742.391 137.103 737.807 Q140.181 733.201 145.992 733.201 Z" fill="#000000" fill-rule="nonzero" fill-opacity="1" /><path clip-path="url(#clip990)" d="M101.756 434.854 Q98.1447 434.854 96.316 438.419 Q94.5104 441.961 94.5104 449.09 Q94.5104 456.197 96.316 459.762 Q98.1447 463.303 101.756 463.303 Q105.39 463.303 107.196 459.762 Q109.024 456.197 109.024 449.09 Q109.024 441.961 107.196 438.419 Q105.39 434.854 101.756 434.854 M101.756 431.151 Q107.566 431.151 110.621 435.757 Q113.7 440.34 113.7 449.09 Q113.7 457.817 110.621 462.424 Q107.566 467.007 101.756 467.007 Q95.9456 467.007 92.8669 462.424 Q89.8114 457.817 89.8114 449.09 Q89.8114 440.34 92.8669 435.757 Q95.9456 431.151 101.756 431.151 Z" fill="#000000" fill-rule="nonzero" fill-opacity="1" /><path clip-path="url(#clip990)" d="M121.918 460.456 L126.802 460.456 L126.802 466.336 L121.918 466.336 L121.918 460.456 Z" fill="#000000" fill-rule="nonzero" fill-opacity="1" /><path clip-path="url(#clip990)" d="M137.033 431.776 L155.39 431.776 L155.39 435.711 L141.316 435.711 L141.316 444.183 Q142.334 443.836 143.353 443.674 Q144.371 443.489 145.39 443.489 Q151.177 443.489 154.556 446.66 Q157.936 449.831 157.936 455.248 Q157.936 460.826 154.464 463.928 Q150.992 467.007 144.672 467.007 Q142.496 467.007 140.228 466.637 Q137.982 466.266 135.575 465.526 L135.575 460.826 Q137.658 461.961 139.881 462.516 Q142.103 463.072 144.58 463.072 Q148.584 463.072 150.922 460.965 Q153.26 458.859 153.26 455.248 Q153.26 451.637 150.922 449.53 Q148.584 447.424 144.58 447.424 Q142.705 447.424 140.83 447.84 Q138.978 448.257 137.033 449.137 L137.033 431.776 Z" fill="#000000" fill-rule="nonzero" fill-opacity="1" /><path clip-path="url(#clip990)" d="M91.5706 160.35 L99.2095 160.35 L99.2095 133.985 L90.8993 135.651 L90.8993 131.392 L99.1632 129.725 L103.839 129.725 L103.839 160.35 L111.478 160.35 L111.478 164.285 L91.5706 164.285 L91.5706 160.35 Z" fill="#000000" fill-rule="nonzero" fill-opacity="1" /><path clip-path="url(#clip990)" d="M120.922 158.406 L125.807 158.406 L125.807 164.285 L120.922 164.285 L120.922 158.406 Z" fill="#000000" fill-rule="nonzero" fill-opacity="1" /><path clip-path="url(#clip990)" d="M145.992 132.804 Q142.381 132.804 140.552 136.369 Q138.746 139.911 138.746 147.04 Q138.746 154.147 140.552 157.711 Q142.381 161.253 145.992 161.253 Q149.626 161.253 151.431 157.711 Q153.26 154.147 153.26 147.04 Q153.26 139.911 151.431 136.369 Q149.626 132.804 145.992 132.804 M145.992 129.1 Q151.802 129.1 154.857 133.707 Q157.936 138.29 157.936 147.04 Q157.936 155.767 154.857 160.373 Q151.802 164.957 145.992 164.957 Q140.181 164.957 137.103 160.373 Q134.047 155.767 134.047 147.04 Q134.047 138.29 137.103 133.707 Q140.181 129.1 145.992 129.1 Z" fill="#000000" fill-rule="nonzero" fill-opacity="1" /><polyline clip-path="url(#clip991)" style="stroke:#009af9; stroke-linecap:round; stroke-linejoin:round; stroke-width:4; stroke-opacity:1; fill:none" points="255.035,751.106 258.278,745.065 261.521,739.025 264.764,732.986 268.007,726.948 271.25,720.914 274.493,714.882 277.736,708.853 280.979,702.829 284.222,696.81 287.465,690.797 290.708,684.789 293.951,678.788 297.194,672.794 300.437,666.808 303.68,660.83 306.923,654.862 310.166,648.903 313.409,642.954 316.652,637.016 319.895,631.09 323.138,625.175 326.381,619.273 329.624,613.385 332.867,607.51 336.11,601.649 339.353,595.803 342.596,589.973 345.84,584.159 349.083,578.362 352.326,572.582 355.569,566.82 358.812,561.076 362.055,555.351 365.298,549.646 368.541,543.961 371.784,538.297 375.027,532.654 378.27,527.033 381.513,521.434 384.756,515.858 387.999,510.306 391.242,504.778 394.485,499.274 397.728,493.796 400.971,488.343 404.214,482.917 407.457,477.517 410.7,472.145 413.943,466.801 417.186,461.485 420.429,456.198 423.672,450.94 426.915,445.713 430.158,440.516 433.401,435.35 436.644,430.216 439.887,425.114 443.13,420.044 446.373,415.008 449.616,410.005 452.859,405.036 456.103,400.102 459.346,395.203 462.589,390.34 465.832,385.513 469.075,380.722 472.318,375.968 475.561,371.252 478.804,366.574 482.047,361.934 485.29,357.333 488.533,352.771 491.776,348.25 495.019,343.768 498.262,339.328 501.505,334.928 504.748,330.57 507.991,326.255 511.234,321.981 514.477,317.751 517.72,313.564 520.963,309.42 524.206,305.321 527.449,301.267 530.692,297.257 533.935,293.293 537.178,289.374 540.421,285.502 543.664,281.677 546.907,277.898 550.15,274.166 553.393,270.483 556.636,266.847 559.879,263.26 563.122,259.721 566.366,256.232 569.609,252.792 572.852,249.402 576.095,246.062 579.338,242.773 582.581,239.534 585.824,236.347 589.067,233.211 592.31,230.127 595.553,227.095 598.796,224.116 602.039,221.189 605.282,218.315 608.525,215.494 611.768,212.727 615.011,210.014 618.254,207.355 621.497,204.75 624.74,202.2 627.983,199.705 631.226,197.265 634.469,194.88 637.712,192.551 640.955,190.278 644.198,188.061 647.441,185.9 650.684,183.796 653.927,181.748 657.17,179.757 660.413,177.824 663.656,175.948 666.899,174.129 670.142,172.368 673.385,170.665 676.629,169.02 679.872,167.433 683.115,165.905 686.358,164.435 689.601,163.023 692.844,161.671 696.087,160.377 699.33,159.143 702.573,157.968 705.816,156.852 709.059,155.795 712.302,154.798 715.545,153.861 718.788,152.983 722.031,152.165 725.274,151.408 728.517,150.71 731.76,150.072 735.003,149.494 738.246,148.976 741.489,148.519 744.732,148.122 747.975,147.785 751.218,147.508 754.461,147.292 757.704,147.136 760.947,147.041 764.19,147.006 767.433,147.031 770.676,147.117 773.919,147.263 777.162,147.47 780.405,147.737 783.648,148.064 786.892,148.451 790.135,148.899 793.378,149.407 796.621,149.976 799.864,150.604 803.107,151.292 806.35,152.041 809.593,152.849 812.836,153.717 816.079,154.645 819.322,155.633 822.565,156.68 825.808,157.786 829.051,158.952 832.294,160.177 835.537,161.461 838.78,162.804 842.023,164.206 845.266,165.667 848.509,167.186 851.752,168.763 854.995,170.399 858.238,172.093 861.481,173.845 864.724,175.654 867.967,177.521 871.21,179.446 874.453,181.427 877.696,183.466 880.939,185.561 884.182,187.713 887.425,189.921 890.668,192.185 893.911,194.505 897.155,196.881 900.398,199.312 903.641,201.799 906.884,204.34 910.127,206.936 913.37,209.587 916.613,212.291 919.856,215.05 923.099,217.862 926.342,220.727 929.585,223.646 932.828,226.617 936.071,229.641 939.314,232.717 942.557,235.844 945.8,239.023 949.043,242.254 952.286,245.535 955.529,248.867 958.772,252.249 962.015,255.681 965.258,259.162 968.501,262.693 971.744,266.272 974.987,269.9 978.23,273.576 981.473,277.3 984.716,281.072 987.959,284.89 991.202,288.755 994.445,292.666 997.688,296.623 1000.93,300.625 1004.17,304.673 1007.42,308.765 1010.66,312.901 1013.9,317.081 1017.15,321.305 1020.39,325.571 1023.63,329.88 1026.88,334.231 1030.12,338.624 1033.36,343.058 1036.6,347.533 1039.85,352.049 1043.09,356.604 1046.33,361.198 1049.58,365.832 1052.82,370.504 1056.06,375.214 1059.31,379.962 1062.55,384.747 1065.79,389.569 1069.04,394.426 1072.28,399.32 1075.52,404.248 1078.76,409.212 1082.01,414.209 1085.25,419.24 1088.49,424.304 1091.74,429.401 1094.98,434.531 1098.22,439.691 1101.47,444.883 1104.71,450.106 1107.95,455.359 1111.19,460.641 1114.44,465.952 1117.68,471.292 1120.92,476.66 1124.17,482.055 1127.41,487.477 1130.65,492.926 1133.9,498.4 1137.14,503.899 1140.38,509.424 1143.62,514.972 1146.87,520.544 1150.11,526.14 1153.35,531.757 1156.6,537.397 1159.84,543.058 1163.08,548.739 1166.33,554.441 1169.57,560.163 1172.81,565.904 1176.06,571.663 1179.3,577.44 1182.54,583.235 1185.78,589.046 1189.03,594.874 1192.27,600.717 1195.51,606.575 1198.76,612.448 1202,618.335 1205.24,624.234 1208.49,630.147 1211.73,636.072 1214.97,642.008 1218.21,647.955 1221.46,653.912 1224.7,659.879 1227.94,665.855 1231.19,671.84 1234.43,677.833 1237.67,683.833 1240.92,689.839 1244.16,695.852 1247.4,701.87 1250.64,707.894 1253.89,713.921 1257.13,719.953 1260.37,725.987 1263.62,732.024 1266.86,738.063 1270.1,744.103 1273.35,750.144 1276.59,756.185 1279.83,762.225 1283.08,768.265 1286.32,774.302 1289.56,780.337 1292.8,786.37 1296.05,792.399 1299.29,798.423 1302.53,804.443 1305.78,810.458 1309.02,816.467 1312.26,822.469 1315.51,828.464 1318.75,834.451 1321.99,840.43 1325.23,846.4 1328.48,852.361 1331.72,858.311 1334.96,864.251 1338.21,870.179 1341.45,876.096 1344.69,882 1347.94,887.89 1351.18,893.768 1354.42,899.63 1357.66,905.478 1360.91,911.311 1364.15,917.128 1367.39,922.928 1370.64,928.711 1373.88,934.476 1377.12,940.222 1380.37,945.95 1383.61,951.658 1386.85,957.347 1390.1,963.014 1393.34,968.661 1396.58,974.285 1399.82,979.888 1403.07,985.467 1406.31,991.023 1409.55,996.555 1412.8,1002.06 1416.04,1007.55 1419.28,1013 1422.53,1018.43 1425.77,1023.84 1429.01,1029.21 1432.25,1034.56 1435.5,1039.88 1438.74,1045.17 1441.98,1050.44 1445.23,1055.67 1448.47,1060.87 1451.71,1066.04 1454.96,1071.18 1458.2,1076.29 1461.44,1081.36 1464.68,1086.4 1467.93,1091.41 1471.17,1096.39 1474.41,1101.33 1477.66,1106.23 1480.9,1111.1 1484.14,1115.93 1487.39,1120.73 1490.63,1125.49 1493.87,1130.21 1497.11,1134.9 1500.36,1139.54 1503.6,1144.15 1506.84,1148.72 1510.09,1153.24 1513.33,1157.73 1516.57,1162.18 1519.82,1166.59 1523.06,1170.95 1526.3,1175.27 1529.55,1179.55 1532.79,1183.79 1536.03,1187.98 1539.27,1192.13 1542.52,1196.24 1545.76,1200.3 1549,1204.32 1552.25,1208.29 1555.49,1212.22 1558.73,1216.1 1561.98,1219.93 1565.22,1223.72 1568.46,1227.45 1571.7,1231.15 1574.95,1234.79 1578.19,1238.38 1581.43,1241.93 1584.68,1245.43 1587.92,1248.88 1591.16,1252.27 1594.41,1255.62 1597.65,1258.92 1600.89,1262.17 1604.13,1265.36 1607.38,1268.5 1610.62,1271.6 1613.86,1274.64 1617.11,1277.63 1620.35,1280.56 1623.59,1283.44 1626.84,1286.27 1630.08,1289.05 1633.32,1291.77 1636.57,1294.44 1639.81,1297.05 1643.05,1299.61 1646.29,1302.11 1649.54,1304.56 1652.78,1306.96 1656.02,1309.29 1659.27,1311.58 1662.51,1313.8 1665.75,1315.97 1669,1318.09 1672.24,1320.14 1675.48,1322.14 1678.72,1324.08 1681.97,1325.97 1685.21,1327.8 1688.45,1329.57 1691.7,1331.28 1694.94,1332.93 1698.18,1334.53 1701.43,1336.07 1704.67,1337.55 1707.91,1338.97 1711.15,1340.33 1714.4,1341.63 1717.64,1342.88 1720.88,1344.06 1724.13,1345.19 1727.37,1346.25 1730.61,1347.26 1733.86,1348.21 1737.1,1349.09 1740.34,1349.92 1743.59,1350.69 1746.83,1351.4 1750.07,1352.04 1753.31,1352.63 1756.56,1353.16 1759.8,1353.62 1763.04,1354.03 1766.29,1354.38 1769.53,1354.66 1772.77,1354.89 1776.02,1355.06 1779.26,1355.16 1782.5,1355.2 1785.74,1355.19 1788.99,1355.11 1792.23,1354.98 1795.47,1354.78 1798.72,1354.52 1801.96,1354.2 1805.2,1353.83 1808.45,1353.39 1811.69,1352.89 1814.93,1352.33 1818.17,1351.71 1821.42,1351.03 1824.66,1350.29 1827.9,1349.5 1831.15,1348.64 1834.39,1347.72 1837.63,1346.74 1840.88,1345.7 1844.12,1344.61 1847.36,1343.45 1850.61,1342.23 1853.85,1340.96 1857.09,1339.63 1860.33,1338.23 1863.58,1336.78 1866.82,1335.27 1870.06,1333.7 1873.31,1332.08 1876.55,1330.39 1879.79,1328.65 1883.04,1326.85 1886.28,1324.99 1889.52,1323.08 1892.76,1321.1 1896.01,1319.07 1899.25,1316.99 1902.49,1314.85 1905.74,1312.65 1908.98,1310.39 1912.22,1308.08 1915.47,1305.71 1918.71,1303.29 1921.95,1300.81 1925.19,1298.28 1928.44,1295.69 1931.68,1293.05 1934.92,1290.35 1938.17,1287.6 1941.41,1284.8 1944.65,1281.94 1947.9,1279.03 1951.14,1276.07 1954.38,1273.06 1957.63,1269.99 1960.87,1266.87 1964.11,1263.7 1967.35,1260.48 1970.6,1257.2 1973.84,1253.88 1977.08,1250.51 1980.33,1247.08 1983.57,1243.61 1986.81,1240.08 1990.06,1236.51 1993.3,1232.89 1996.54,1229.22 1999.78,1225.51 2003.03,1221.74 2006.27,1217.93 2009.51,1214.08 2012.76,1210.17 2016,1206.22 2019.24,1202.23 2022.49,1198.19 2025.73,1194.1 2028.97,1189.97 2032.21,1185.8 2035.46,1181.58 2038.7,1177.32 2041.94,1173.02 2045.19,1168.68 2048.43,1164.29 2051.67,1159.86 2054.92,1155.39 2058.16,1150.89 2061.4,1146.34 2064.65,1141.75 2067.89,1137.12 2071.13,1132.45 2074.37,1127.75 2077.62,1123.01 2080.86,1118.23 2084.1,1113.41 2087.35,1108.56 2090.59,1103.67 2093.83,1098.75 2097.08,1093.79 2100.32,1088.8 2103.56,1083.78 2106.8,1078.72 2110.05,1073.62 2113.29,1068.5 2116.53,1063.34 2119.78,1058.16 2123.02,1052.94 2126.26,1047.69 2129.51,1042.41 2132.75,1037.11 2135.99,1031.77 2139.23,1026.41 2142.48,1021.02 2145.72,1015.6 2148.96,1010.16 2152.21,1004.69 2155.45,999.19 2158.69,993.67 2161.94,988.125 2165.18,982.557 2168.42,976.965 2171.67,971.351 2174.91,965.715 2178.15,960.057 2181.39,954.379 2184.64,948.68 2187.88,942.961 2191.12,937.224 2194.37,931.467 2197.61,925.693 2200.85,919.901 2204.1,914.092 2207.34,908.267 2210.58,902.427 2213.82,896.571 2217.07,890.7 2220.31,884.816 2223.55,878.918 2226.8,873.008 2230.04,867.085 2233.28,861.15 2236.53,855.205 2239.77,849.249 2243.01,843.284 2246.25,837.309 2249.5,831.326 2252.74,825.334 2255.98,819.335 2259.23,813.33 2262.47,807.318 2265.71,801.3 2268.96,795.278 2272.2,789.251 2275.44,783.22 2278.69,777.186 2281.93,771.15 2285.17,765.111 2288.41,759.071 2291.66,753.03 "/>
<circle clip-path="url(#clip991)" cx="1873.31" cy="1300.16" r="14.4" fill="#e26f46" fill-rule="evenodd" fill-opacity="1" stroke="#000000" stroke-opacity="1" stroke-width="3.2"/>
<circle clip-path="url(#clip991)" cx="2032.21" cy="1104.8" r="14.4" fill="#e26f46" fill-rule="evenodd" fill-opacity="1" stroke="#000000" stroke-opacity="1" stroke-width="3.2"/>
<circle clip-path="url(#clip991)" cx="809.593" cy="111.031" r="14.4" fill="#e26f46" fill-rule="evenodd" fill-opacity="1" stroke="#000000" stroke-opacity="1" stroke-width="3.2"/>
<circle clip-path="url(#clip991)" cx="255.035" cy="895.121" r="14.4" fill="#e26f46" fill-rule="evenodd" fill-opacity="1" stroke="#000000" stroke-opacity="1" stroke-width="3.2"/>
<circle clip-path="url(#clip991)" cx="1519.82" cy="1151.11" r="14.4" fill="#e26f46" fill-rule="evenodd" fill-opacity="1" stroke="#000000" stroke-opacity="1" stroke-width="3.2"/>
<circle clip-path="url(#clip991)" cx="1094.98" cy="579.46" r="14.4" fill="#e26f46" fill-rule="evenodd" fill-opacity="1" stroke="#000000" stroke-opacity="1" stroke-width="3.2"/>
<circle clip-path="url(#clip991)" cx="1351.18" cy="770.87" r="14.4" fill="#e26f46" fill-rule="evenodd" fill-opacity="1" stroke="#000000" stroke-opacity="1" stroke-width="3.2"/>
<circle clip-path="url(#clip991)" cx="1383.61" cy="1034.74" r="14.4" fill="#e26f46" fill-rule="evenodd" fill-opacity="1" stroke="#000000" stroke-opacity="1" stroke-width="3.2"/>
<circle clip-path="url(#clip991)" cx="877.696" cy="251.198" r="14.4" fill="#e26f46" fill-rule="evenodd" fill-opacity="1" stroke="#000000" stroke-opacity="1" stroke-width="3.2"/>
<circle clip-path="url(#clip991)" cx="1970.6" cy="1307.76" r="14.4" fill="#e26f46" fill-rule="evenodd" fill-opacity="1" stroke="#000000" stroke-opacity="1" stroke-width="3.2"/>
<circle clip-path="url(#clip991)" cx="1179.3" cy="540.771" r="14.4" fill="#e26f46" fill-rule="evenodd" fill-opacity="1" stroke="#000000" stroke-opacity="1" stroke-width="3.2"/>
<circle clip-path="url(#clip991)" cx="1750.07" cy="1445.72" r="14.4" fill="#e26f46" fill-rule="evenodd" fill-opacity="1" stroke="#000000" stroke-opacity="1" stroke-width="3.2"/>
<circle clip-path="url(#clip991)" cx="1685.21" cy="1388.49" r="14.4" fill="#e26f46" fill-rule="evenodd" fill-opacity="1" stroke="#000000" stroke-opacity="1" stroke-width="3.2"/>
<circle clip-path="url(#clip991)" cx="663.656" cy="87.9763" r="14.4" fill="#e26f46" fill-rule="evenodd" fill-opacity="1" stroke="#000000" stroke-opacity="1" stroke-width="3.2"/>
<circle clip-path="url(#clip991)" cx="2213.82" cy="944.737" r="14.4" fill="#e26f46" fill-rule="evenodd" fill-opacity="1" stroke="#000000" stroke-opacity="1" stroke-width="3.2"/>
<circle clip-path="url(#clip991)" cx="1957.63" cy="1198.03" r="14.4" fill="#e26f46" fill-rule="evenodd" fill-opacity="1" stroke="#000000" stroke-opacity="1" stroke-width="3.2"/>
<circle clip-path="url(#clip991)" cx="1253.89" cy="736.061" r="14.4" fill="#e26f46" fill-rule="evenodd" fill-opacity="1" stroke="#000000" stroke-opacity="1" stroke-width="3.2"/>
<circle clip-path="url(#clip991)" cx="2255.98" cy="865.568" r="14.4" fill="#e26f46" fill-rule="evenodd" fill-opacity="1" stroke="#000000" stroke-opacity="1" stroke-width="3.2"/>
<circle clip-path="url(#clip991)" cx="984.716" cy="366.962" r="14.4" fill="#e26f46" fill-rule="evenodd" fill-opacity="1" stroke="#000000" stroke-opacity="1" stroke-width="3.2"/>
<circle clip-path="url(#clip991)" cx="1247.4" cy="755.501" r="14.4" fill="#e26f46" fill-rule="evenodd" fill-opacity="1" stroke="#000000" stroke-opacity="1" stroke-width="3.2"/>
<path clip-path="url(#clip990)" d="M1953.46 250.738 L2280.8 250.738 L2280.8 95.2176 L1953.46 95.2176  Z" fill="#ffffff" fill-rule="evenodd" fill-opacity="1"/>
<polyline clip-path="url(#clip990)" style="stroke:#000000; stroke-linecap:round; stroke-linejoin:round; stroke-width:4; stroke-opacity:1; fill:none" points="1953.46,250.738 2280.8,250.738 2280.8,95.2176 1953.46,95.2176 1953.46,250.738 "/>
<polyline clip-path="url(#clip990)" style="stroke:#009af9; stroke-linecap:round; stroke-linejoin:round; stroke-width:4; stroke-opacity:1; fill:none" points="1977.44,147.058 2121.36,147.058 "/>
<path clip-path="url(#clip990)" d="M2152.76 131.051 L2152.76 138.412 L2161.53 138.412 L2161.53 141.722 L2152.76 141.722 L2152.76 155.796 Q2152.76 158.967 2153.61 159.87 Q2154.49 160.773 2157.16 160.773 L2161.53 160.773 L2161.53 164.338 L2157.16 164.338 Q2152.23 164.338 2150.35 162.509 Q2148.48 160.657 2148.48 155.796 L2148.48 141.722 L2145.35 141.722 L2145.35 138.412 L2148.48 138.412 L2148.48 131.051 L2152.76 131.051 Z" fill="#000000" fill-rule="nonzero" fill-opacity="1" /><path clip-path="url(#clip990)" d="M2182.16 142.393 Q2181.44 141.977 2180.58 141.791 Q2179.75 141.583 2178.73 141.583 Q2175.12 141.583 2173.17 143.944 Q2171.25 146.282 2171.25 150.68 L2171.25 164.338 L2166.97 164.338 L2166.97 138.412 L2171.25 138.412 L2171.25 142.44 Q2172.6 140.078 2174.75 138.944 Q2176.9 137.787 2179.98 137.787 Q2180.42 137.787 2180.95 137.856 Q2181.48 137.903 2182.13 138.018 L2182.16 142.393 Z" fill="#000000" fill-rule="nonzero" fill-opacity="1" /><path clip-path="url(#clip990)" d="M2186.18 154.106 L2186.18 138.412 L2190.44 138.412 L2190.44 153.944 Q2190.44 157.625 2191.88 159.476 Q2193.31 161.305 2196.18 161.305 Q2199.63 161.305 2201.62 159.106 Q2203.64 156.907 2203.64 153.111 L2203.64 138.412 L2207.9 138.412 L2207.9 164.338 L2203.64 164.338 L2203.64 160.356 Q2202.09 162.717 2200.03 163.875 Q2197.99 165.009 2195.28 165.009 Q2190.81 165.009 2188.5 162.231 Q2186.18 159.453 2186.18 154.106 M2196.9 137.787 L2196.9 137.787 Z" fill="#000000" fill-rule="nonzero" fill-opacity="1" /><path clip-path="url(#clip990)" d="M2220.88 131.051 L2220.88 138.412 L2229.66 138.412 L2229.66 141.722 L2220.88 141.722 L2220.88 155.796 Q2220.88 158.967 2221.74 159.87 Q2222.62 160.773 2225.28 160.773 L2229.66 160.773 L2229.66 164.338 L2225.28 164.338 Q2220.35 164.338 2218.48 162.509 Q2216.6 160.657 2216.6 155.796 L2216.6 141.722 L2213.48 141.722 L2213.48 138.412 L2216.6 138.412 L2216.6 131.051 L2220.88 131.051 Z" fill="#000000" fill-rule="nonzero" fill-opacity="1" /><path clip-path="url(#clip990)" d="M2256.81 148.689 L2256.81 164.338 L2252.55 164.338 L2252.55 148.828 Q2252.55 145.148 2251.11 143.319 Q2249.68 141.49 2246.81 141.49 Q2243.36 141.49 2241.37 143.69 Q2239.38 145.889 2239.38 149.685 L2239.38 164.338 L2235.1 164.338 L2235.1 128.319 L2239.38 128.319 L2239.38 142.44 Q2240.91 140.102 2242.97 138.944 Q2245.05 137.787 2247.76 137.787 Q2252.23 137.787 2254.52 140.565 Q2256.81 143.319 2256.81 148.689 Z" fill="#000000" fill-rule="nonzero" fill-opacity="1" /><circle clip-path="url(#clip990)" cx="2049.4" cy="198.898" r="20.48" fill="#e26f46" fill-rule="evenodd" fill-opacity="1" stroke="#000000" stroke-opacity="1" stroke-width="4.55111"/>
<path clip-path="url(#clip990)" d="M2164.26 194.187 L2164.26 180.159 L2168.52 180.159 L2168.52 216.178 L2164.26 216.178 L2164.26 212.289 Q2162.92 214.603 2160.86 215.738 Q2158.82 216.849 2155.95 216.849 Q2151.25 216.849 2148.29 213.099 Q2145.35 209.349 2145.35 203.238 Q2145.35 197.127 2148.29 193.377 Q2151.25 189.627 2155.95 189.627 Q2158.82 189.627 2160.86 190.761 Q2162.92 191.872 2164.26 194.187 M2149.75 203.238 Q2149.75 207.937 2151.67 210.622 Q2153.61 213.284 2156.99 213.284 Q2160.37 213.284 2162.32 210.622 Q2164.26 207.937 2164.26 203.238 Q2164.26 198.539 2162.32 195.877 Q2160.37 193.192 2156.99 193.192 Q2153.61 193.192 2151.67 195.877 Q2149.75 198.539 2149.75 203.238 Z" fill="#000000" fill-rule="nonzero" fill-opacity="1" /><path clip-path="url(#clip990)" d="M2189.08 203.145 Q2183.92 203.145 2181.92 204.326 Q2179.93 205.506 2179.93 208.354 Q2179.93 210.622 2181.42 211.965 Q2182.92 213.284 2185.49 213.284 Q2189.03 213.284 2191.16 210.784 Q2193.31 208.261 2193.31 204.094 L2193.31 203.145 L2189.08 203.145 M2197.57 201.386 L2197.57 216.178 L2193.31 216.178 L2193.31 212.242 Q2191.85 214.603 2189.68 215.738 Q2187.5 216.849 2184.36 216.849 Q2180.37 216.849 2178.01 214.627 Q2175.67 212.381 2175.67 208.631 Q2175.67 204.256 2178.59 202.034 Q2181.53 199.812 2187.34 199.812 L2193.31 199.812 L2193.31 199.395 Q2193.31 196.455 2191.37 194.858 Q2189.45 193.238 2185.95 193.238 Q2183.73 193.238 2181.62 193.77 Q2179.52 194.303 2177.57 195.367 L2177.57 191.432 Q2179.91 190.53 2182.11 190.09 Q2184.31 189.627 2186.39 189.627 Q2192.02 189.627 2194.79 192.543 Q2197.57 195.46 2197.57 201.386 Z" fill="#000000" fill-rule="nonzero" fill-opacity="1" /><path clip-path="url(#clip990)" d="M2210.56 182.891 L2210.56 190.252 L2219.33 190.252 L2219.33 193.562 L2210.56 193.562 L2210.56 207.636 Q2210.56 210.807 2211.42 211.71 Q2212.29 212.613 2214.96 212.613 L2219.33 212.613 L2219.33 216.178 L2214.96 216.178 Q2210.03 216.178 2208.15 214.349 Q2206.28 212.497 2206.28 207.636 L2206.28 193.562 L2203.15 193.562 L2203.15 190.252 L2206.28 190.252 L2206.28 182.891 L2210.56 182.891 Z" fill="#000000" fill-rule="nonzero" fill-opacity="1" /><path clip-path="url(#clip990)" d="M2236.72 203.145 Q2231.55 203.145 2229.56 204.326 Q2227.57 205.506 2227.57 208.354 Q2227.57 210.622 2229.05 211.965 Q2230.56 213.284 2233.13 213.284 Q2236.67 213.284 2238.8 210.784 Q2240.95 208.261 2240.95 204.094 L2240.95 203.145 L2236.72 203.145 M2245.21 201.386 L2245.21 216.178 L2240.95 216.178 L2240.95 212.242 Q2239.49 214.603 2237.32 215.738 Q2235.14 216.849 2231.99 216.849 Q2228.01 216.849 2225.65 214.627 Q2223.31 212.381 2223.31 208.631 Q2223.31 204.256 2226.23 202.034 Q2229.17 199.812 2234.98 199.812 L2240.95 199.812 L2240.95 199.395 Q2240.95 196.455 2239.01 194.858 Q2237.09 193.238 2233.59 193.238 Q2231.37 193.238 2229.26 193.77 Q2227.16 194.303 2225.21 195.367 L2225.21 191.432 Q2227.55 190.53 2229.75 190.09 Q2231.95 189.627 2234.03 189.627 Q2239.66 189.627 2242.43 192.543 Q2245.21 195.46 2245.21 201.386 Z" fill="#000000" fill-rule="nonzero" fill-opacity="1" /></svg>
