<?xml version="1.0" encoding="utf-8"?>
<svg xmlns="http://www.w3.org/2000/svg" xmlns:xlink="http://www.w3.org/1999/xlink" width="600" height="400" viewBox="0 0 2400 1600">
<defs>
  <clipPath id="clip920">
    <rect x="0" y="0" width="2400" height="1600"/>
  </clipPath>
</defs>
<path clip-path="url(#clip920)" d="M0 1600 L2400 1600 L2400 0 L0 0  Z" fill="#ffffff" fill-rule="evenodd" fill-opacity="1"/>
<defs>
  <clipPath id="clip921">
    <rect x="193" y="47" width="2160" height="1440"/>
  </clipPath>
</defs>
<path clip-path="url(#clip920)" d="M193.936 1486.45 L2352.76 1486.45 L2352.76 47.2441 L193.936 47.2441  Z" fill="#ffffff" fill-rule="evenodd" fill-opacity="1"/>
<polyline clip-path="url(#clip921)" style="stroke:#000000; stroke-linecap:round; stroke-linejoin:round; stroke-width:2; stroke-opacity:0.1; fill:none" points="255.035,1486.45 255.035,47.2441 "/>
<polyline clip-path="url(#clip921)" style="stroke:#000000; stroke-linecap:round; stroke-linejoin:round; stroke-width:2; stroke-opacity:0.1; fill:none" points="579.173,1486.45 579.173,47.2441 "/>
<polyline clip-path="url(#clip921)" style="stroke:#000000; stroke-linecap:round; stroke-linejoin:round; stroke-width:2; stroke-opacity:0.1; fill:none" points="903.312,1486.45 903.312,47.2441 "/>
<polyline clip-path="url(#clip921)" style="stroke:#000000; stroke-linecap:round; stroke-linejoin:round; stroke-width:2; stroke-opacity:0.1; fill:none" points="1227.45,1486.45 1227.45,47.2441 "/>
<polyline clip-path="url(#clip921)" style="stroke:#000000; stroke-linecap:round; stroke-linejoin:round; stroke-width:2; stroke-opacity:0.1; fill:none" points="1551.59,1486.45 1551.59,47.2441 "/>
<polyline clip-path="url(#clip921)" style="stroke:#000000; stroke-linecap:round; stroke-linejoin:round; stroke-width:2; stroke-opacity:0.1; fill:none" points="1875.73,1486.45 1875.73,47.2441 "/>
<polyline clip-path="url(#clip921)" style="stroke:#000000; stroke-linecap:round; stroke-linejoin:round; stroke-width:2; stroke-opacity:0.1; fill:none" points="2199.87,1486.45 2199.87,47.2441 "/>
<polyline clip-path="url(#clip921)" style="stroke:#000000; stroke-linecap:round; stroke-linejoin:round; stroke-width:2; stroke-opacity:0.1; fill:none" points="193.936,1256.59 2352.76,1256.59 "/>
<polyline clip-path="url(#clip921)" style="stroke:#000000; stroke-linecap:round; stroke-linejoin:round; stroke-width:2; stroke-opacity:0.1; fill:none" points="193.936,1000.79 2352.76,1000.79 "/>
<polyline clip-path="url(#clip921)" style="stroke:#000000; stroke-linecap:round; stroke-linejoin:round; stroke-width:2; stroke-opacity:0.1; fill:none" points="193.936,744.996 2352.76,744.996 "/>
<polyline clip-path="url(#clip921)" style="stroke:#000000; stroke-linecap:round; stroke-linejoin:round; stroke-width:2; stroke-opacity:0.1; fill:none" points="193.936,489.199 2352.76,489.199 "/>
<polyline clip-path="url(#clip921)" style="stroke:#000000; stroke-linecap:round; stroke-linejoin:round; stroke-width:2; stroke-opacity:0.1; fill:none" points="193.936,233.402 2352.76,233.402 "/>
<polyline clip-path="url(#clip920)" style="stroke:#000000; stroke-linecap:round; stroke-linejoin:round; stroke-width:4; stroke-opacity:1; fill:none" points="193.936,1486.45 2352.76,1486.45 "/>
<polyline clip-path="url(#clip920)" style="stroke:#000000; stroke-linecap:round; stroke-linejoin:round; stroke-width:4; stroke-opacity:1; fill:none" points="255.035,1486.45 255.035,1467.55 "/>
<polyline clip-path="url(#clip920)" style="stroke:#000000; stroke-linecap:round; stroke-linejoin:round; stroke-width:4; stroke-opacity:1; fill:none" points="579.173,1486.45 579.173,1467.55 "/>
<polyline clip-path="url(#clip920)" style="stroke:#000000; stroke-linecap:round; stroke-linejoin:round; stroke-width:4; stroke-opacity:1; fill:none" points="903.312,1486.45 903.312,1467.55 "/>
<polyline clip-path="url(#clip920)" style="stroke:#000000; stroke-linecap:round; stroke-linejoin:round; stroke-width:4; stroke-opacity:1; fill:none" points="1227.45,1486.45 1227.45,1467.55 "/>
<polyline clip-path="url(#clip920)" style="stroke:#000000; stroke-linecap:round; stroke-linejoin:round; stroke-width:4; stroke-opacity:1; fill:none" points="1551.59,1486.45 1551.59,1467.55 "/>
<polyline clip-path="url(#clip920)" style="stroke:#000000; stroke-linecap:round; stroke-linejoin:round; stroke-width:4; stroke-opacity:1; fill:none" points="1875.73,1486.45 1875.73,1467.55 "/>
<polyline clip-path="url(#clip920)" style="stroke:#000000; stroke-linecap:round; stroke-linejoin:round; stroke-width:4; stroke-opacity:1; fill:none" points="2199.87,1486.45 2199.87,1467.55 "/>
<path clip-path="url(#clip920)" d="M255.035 1517.37 Q251.424 1517.37 249.595 1520.93 Q247.789 1524.47 247.789 1531.6 Q247.789 1538.71 249.595 1542.27 Q251.424 1545.82 255.035 1545.82 Q258.669 1545.82 260.474 1542.27 Q262.303 1538.71 262.303 1531.6 Q262.303 1524.47 260.474 1520.93 Q258.669 1517.37 255.035 1517.37 M255.035 1513.66 Q260.845 1513.66 263.9 1518.27 Q266.979 1522.85 266.979 1531.6 Q266.979 1540.33 263.9 1544.94 Q260.845 1549.52 255.035 1549.52 Q249.225 1549.52 246.146 1544.94 Q243.09 1540.33 243.09 1531.6 Q243.09 1522.85 246.146 1518.27 Q249.225 1513.66 255.035 1513.66 Z" fill="#000000" fill-rule="nonzero" fill-opacity="1" /><path clip-path="url(#clip920)" d="M569.555 1544.91 L577.194 1544.91 L577.194 1518.55 L568.884 1520.21 L568.884 1515.95 L577.148 1514.29 L581.824 1514.29 L581.824 1544.91 L589.463 1544.91 L589.463 1548.85 L569.555 1548.85 L569.555 1544.91 Z" fill="#000000" fill-rule="nonzero" fill-opacity="1" /><path clip-path="url(#clip920)" d="M897.965 1544.91 L914.284 1544.91 L914.284 1548.85 L892.34 1548.85 L892.34 1544.91 Q895.002 1542.16 899.585 1537.53 Q904.191 1532.88 905.372 1531.53 Q907.617 1529.01 908.497 1527.27 Q909.4 1525.51 909.4 1523.82 Q909.4 1521.07 907.455 1519.33 Q905.534 1517.6 902.432 1517.6 Q900.233 1517.6 897.779 1518.36 Q895.349 1519.13 892.571 1520.68 L892.571 1515.95 Q895.395 1514.82 897.849 1514.24 Q900.303 1513.66 902.34 1513.66 Q907.71 1513.66 910.904 1516.35 Q914.099 1519.03 914.099 1523.52 Q914.099 1525.65 913.289 1527.57 Q912.502 1529.47 910.395 1532.07 Q909.816 1532.74 906.715 1535.95 Q903.613 1539.15 897.965 1544.91 Z" fill="#000000" fill-rule="nonzero" fill-opacity="1" /><path clip-path="url(#clip920)" d="M1231.7 1530.21 Q1235.05 1530.93 1236.93 1533.2 Q1238.83 1535.47 1238.83 1538.8 Q1238.83 1543.92 1235.31 1546.72 Q1231.79 1549.52 1225.31 1549.52 Q1223.13 1549.52 1220.82 1549.08 Q1218.53 1548.66 1216.07 1547.81 L1216.07 1543.29 Q1218.02 1544.43 1220.33 1545.01 Q1222.65 1545.58 1225.17 1545.58 Q1229.57 1545.58 1231.86 1543.85 Q1234.17 1542.11 1234.17 1538.8 Q1234.17 1535.75 1232.02 1534.03 Q1229.89 1532.3 1226.07 1532.3 L1222.05 1532.3 L1222.05 1528.45 L1226.26 1528.45 Q1229.71 1528.45 1231.54 1527.09 Q1233.36 1525.7 1233.36 1523.11 Q1233.36 1520.45 1231.47 1519.03 Q1229.59 1517.6 1226.07 1517.6 Q1224.15 1517.6 1221.95 1518.01 Q1219.75 1518.43 1217.11 1519.31 L1217.11 1515.14 Q1219.78 1514.4 1222.09 1514.03 Q1224.43 1513.66 1226.49 1513.66 Q1231.81 1513.66 1234.92 1516.09 Q1238.02 1518.5 1238.02 1522.62 Q1238.02 1525.49 1236.37 1527.48 Q1234.73 1529.45 1231.7 1530.21 Z" fill="#000000" fill-rule="nonzero" fill-opacity="1" /><path clip-path="url(#clip920)" d="M1554.6 1518.36 L1542.79 1536.81 L1554.6 1536.81 L1554.6 1518.36 M1553.37 1514.29 L1559.25 1514.29 L1559.25 1536.81 L1564.18 1536.81 L1564.18 1540.7 L1559.25 1540.7 L1559.25 1548.85 L1554.6 1548.85 L1554.6 1540.7 L1539 1540.7 L1539 1536.19 L1553.37 1514.29 Z" fill="#000000" fill-rule="nonzero" fill-opacity="1" /><path clip-path="url(#clip920)" d="M1866.01 1514.29 L1884.36 1514.29 L1884.36 1518.22 L1870.29 1518.22 L1870.29 1526.7 Q1871.31 1526.35 1872.32 1526.19 Q1873.34 1526 1874.36 1526 Q1880.15 1526 1883.53 1529.17 Q1886.91 1532.34 1886.91 1537.76 Q1886.91 1543.34 1883.44 1546.44 Q1879.96 1549.52 1873.64 1549.52 Q1871.47 1549.52 1869.2 1549.15 Q1866.95 1548.78 1864.55 1548.04 L1864.55 1543.34 Q1866.63 1544.47 1868.85 1545.03 Q1871.07 1545.58 1873.55 1545.58 Q1877.56 1545.58 1879.89 1543.48 Q1882.23 1541.37 1882.23 1537.76 Q1882.23 1534.15 1879.89 1532.04 Q1877.56 1529.94 1873.55 1529.94 Q1871.68 1529.94 1869.8 1530.35 Q1867.95 1530.77 1866.01 1531.65 L1866.01 1514.29 Z" fill="#000000" fill-rule="nonzero" fill-opacity="1" /><path clip-path="url(#clip920)" d="M2200.27 1529.7 Q2197.12 1529.7 2195.27 1531.86 Q2193.44 1534.01 2193.44 1537.76 Q2193.44 1541.49 2195.27 1543.66 Q2197.12 1545.82 2200.27 1545.82 Q2203.42 1545.82 2205.25 1543.66 Q2207.1 1541.49 2207.1 1537.76 Q2207.1 1534.01 2205.25 1531.86 Q2203.42 1529.7 2200.27 1529.7 M2209.55 1515.05 L2209.55 1519.31 Q2207.79 1518.48 2205.99 1518.04 Q2204.21 1517.6 2202.45 1517.6 Q2197.82 1517.6 2195.36 1520.72 Q2192.93 1523.85 2192.59 1530.17 Q2193.95 1528.15 2196.01 1527.09 Q2198.07 1526 2200.55 1526 Q2205.76 1526 2208.77 1529.17 Q2211.8 1532.32 2211.8 1537.76 Q2211.8 1543.08 2208.65 1546.3 Q2205.5 1549.52 2200.27 1549.52 Q2194.28 1549.52 2191.1 1544.94 Q2187.93 1540.33 2187.93 1531.6 Q2187.93 1523.41 2191.82 1518.55 Q2195.71 1513.66 2202.26 1513.66 Q2204.02 1513.66 2205.8 1514.01 Q2207.61 1514.36 2209.55 1515.05 Z" fill="#000000" fill-rule="nonzero" fill-opacity="1" /><polyline clip-path="url(#clip920)" style="stroke:#000000; stroke-linecap:round; stroke-linejoin:round; stroke-width:4; stroke-opacity:1; fill:none" points="193.936,1486.45 193.936,47.2441 "/>
<polyline clip-path="url(#clip920)" style="stroke:#000000; stroke-linecap:round; stroke-linejoin:round; stroke-width:4; stroke-opacity:1; fill:none" points="193.936,1256.59 212.834,1256.59 "/>
<polyline clip-path="url(#clip920)" style="stroke:#000000; stroke-linecap:round; stroke-linejoin:round; stroke-width:4; stroke-opacity:1; fill:none" points="193.936,1000.79 212.834,1000.79 "/>
<polyline clip-path="url(#clip920)" style="stroke:#000000; stroke-linecap:round; stroke-linejoin:round; stroke-width:4; stroke-opacity:1; fill:none" points="193.936,744.996 212.834,744.996 "/>
<polyline clip-path="url(#clip920)" style="stroke:#000000; stroke-linecap:round; stroke-linejoin:round; stroke-width:4; stroke-opacity:1; fill:none" points="193.936,489.199 212.834,489.199 "/>
<polyline clip-path="url(#clip920)" style="stroke:#000000; stroke-linecap:round; stroke-linejoin:round; stroke-width:4; stroke-opacity:1; fill:none" points="193.936,233.402 212.834,233.402 "/>
<path clip-path="url(#clip920)" d="M50.9921 1257.04 L80.6679 1257.04 L80.6679 1260.98 L50.9921 1260.98 L50.9921 1257.04 Z" fill="#000000" fill-rule="nonzero" fill-opacity="1" /><path clip-path="url(#clip920)" d="M91.5706 1269.93 L99.2095 1269.93 L99.2095 1243.57 L90.8993 1245.24 L90.8993 1240.98 L99.1632 1239.31 L103.839 1239.31 L103.839 1269.93 L111.478 1269.93 L111.478 1273.87 L91.5706 1273.87 L91.5706 1269.93 Z" fill="#000000" fill-rule="nonzero" fill-opacity="1" /><path clip-path="url(#clip920)" d="M120.922 1267.99 L125.807 1267.99 L125.807 1273.87 L120.922 1273.87 L120.922 1267.99 Z" fill="#000000" fill-rule="nonzero" fill-opacity="1" /><path clip-path="url(#clip920)" d="M145.992 1242.39 Q142.381 1242.39 140.552 1245.95 Q138.746 1249.49 138.746 1256.62 Q138.746 1263.73 140.552 1267.3 Q142.381 1270.84 145.992 1270.84 Q149.626 1270.84 151.431 1267.3 Q153.26 1263.73 153.26 1256.62 Q153.26 1249.49 151.431 1245.95 Q149.626 1242.39 145.992 1242.39 M145.992 1238.68 Q151.802 1238.68 154.857 1243.29 Q157.936 1247.87 157.936 1256.62 Q157.936 1265.35 154.857 1269.96 Q151.802 1274.54 145.992 1274.54 Q140.181 1274.54 137.103 1269.96 Q134.047 1265.35 134.047 1256.62 Q134.047 1247.87 137.103 1243.29 Q140.181 1238.68 145.992 1238.68 Z" fill="#000000" fill-rule="nonzero" fill-opacity="1" /><path clip-path="url(#clip920)" d="M51.9875 1001.24 L81.6633 1001.24 L81.6633 1005.18 L51.9875 1005.18 L51.9875 1001.24 Z" fill="#000000" fill-rule="nonzero" fill-opacity="1" /><path clip-path="url(#clip920)" d="M101.756 986.591 Q98.1447 986.591 96.316 990.156 Q94.5104 993.698 94.5104 1000.83 Q94.5104 1007.93 96.316 1011.5 Q98.1447 1015.04 101.756 1015.04 Q105.39 1015.04 107.196 1011.5 Q109.024 1007.93 109.024 1000.83 Q109.024 993.698 107.196 990.156 Q105.39 986.591 101.756 986.591 M101.756 982.888 Q107.566 982.888 110.621 987.494 Q113.7 992.077 113.7 1000.83 Q113.7 1009.55 110.621 1014.16 Q107.566 1018.74 101.756 1018.74 Q95.9456 1018.74 92.8669 1014.16 Q89.8114 1009.55 89.8114 1000.83 Q89.8114 992.077 92.8669 987.494 Q95.9456 982.888 101.756 982.888 Z" fill="#000000" fill-rule="nonzero" fill-opacity="1" /><path clip-path="url(#clip920)" d="M121.918 1012.19 L126.802 1012.19 L126.802 1018.07 L121.918 1018.07 L121.918 1012.19 Z" fill="#000000" fill-rule="nonzero" fill-opacity="1" /><path clip-path="url(#clip920)" d="M137.033 983.513 L155.39 983.513 L155.39 987.448 L141.316 987.448 L141.316 995.92 Q142.334 995.573 143.353 995.411 Q144.371 995.226 145.39 995.226 Q151.177 995.226 154.556 998.397 Q157.936 1001.57 157.936 1006.98 Q157.936 1012.56 154.464 1015.67 Q150.992 1018.74 144.672 1018.74 Q142.496 1018.74 140.228 1018.37 Q137.982 1018 135.575 1017.26 L135.575 1012.56 Q137.658 1013.7 139.881 1014.25 Q142.103 1014.81 144.58 1014.81 Q148.584 1014.81 150.922 1012.7 Q153.26 1010.6 153.26 1006.98 Q153.26 1003.37 150.922 1001.27 Q148.584 999.161 144.58 999.161 Q142.705 999.161 140.83 999.577 Q138.978 999.994 137.033 1000.87 L137.033 983.513 Z" fill="#000000" fill-rule="nonzero" fill-opacity="1" /><path clip-path="url(#clip920)" d="M100.76 730.794 Q97.1493 730.794 95.3206 734.359 Q93.515 737.901 93.515 745.03 Q93.515 752.137 95.3206 755.702 Q97.1493 759.243 100.76 759.243 Q104.395 759.243 106.2 755.702 Q108.029 752.137 108.029 745.03 Q108.029 737.901 106.2 734.359 Q104.395 730.794 100.76 730.794 M100.76 727.091 Q106.571 727.091 109.626 731.697 Q112.705 736.28 112.705 745.03 Q112.705 753.757 109.626 758.364 Q106.571 762.947 100.76 762.947 Q94.9502 762.947 91.8715 758.364 Q88.816 753.757 88.816 745.03 Q88.816 736.28 91.8715 731.697 Q94.9502 727.091 100.76 727.091 Z" fill="#000000" fill-rule="nonzero" fill-opacity="1" /><path clip-path="url(#clip920)" d="M120.922 756.396 L125.807 756.396 L125.807 762.276 L120.922 762.276 L120.922 756.396 Z" fill="#000000" fill-rule="nonzero" fill-opacity="1" /><path clip-path="url(#clip920)" d="M145.992 730.794 Q142.381 730.794 140.552 734.359 Q138.746 737.901 138.746 745.03 Q138.746 752.137 140.552 755.702 Q142.381 759.243 145.992 759.243 Q149.626 759.243 151.431 755.702 Q153.26 752.137 153.26 745.03 Q153.26 737.901 151.431 734.359 Q149.626 730.794 145.992 730.794 M145.992 727.091 Q151.802 727.091 154.857 731.697 Q157.936 736.28 157.936 745.03 Q157.936 753.757 154.857 758.364 Q151.802 762.947 145.992 762.947 Q140.181 762.947 137.103 758.364 Q134.047 753.757 134.047 745.03 Q134.047 736.28 137.103 731.697 Q140.181 727.091 145.992 727.091 Z" fill="#000000" fill-rule="nonzero" fill-opacity="1" /><path clip-path="url(#clip920)" d="M101.756 474.997 Q98.1447 474.997 96.316 478.562 Q94.5104 482.104 94.5104 489.233 Q94.5104 496.34 96.316 499.905 Q98.1447 503.446 101.756 503.446 Q105.39 503.446 107.196 499.905 Q109.024 496.34 109.024 489.233 Q109.024 482.104 107.196 478.562 Q105.39 474.997 101.756 474.997 M101.756 471.294 Q107.566 471.294 110.621 475.9 Q113.7 480.483 113.7 489.233 Q113.7 497.96 110.621 502.567 Q107.566 507.15 101.756 507.15 Q95.9456 507.15 92.8669 502.567 Q89.8114 497.96 89.8114 489.233 Q89.8114 480.483 92.8669 475.9 Q95.9456 471.294 101.756 471.294 Z" fill="#000000" fill-rule="nonzero" fill-opacity="1" /><path clip-path="url(#clip920)" d="M121.918 500.599 L126.802 500.599 L126.802 506.479 L121.918 506.479 L121.918 500.599 Z" fill="#000000" fill-rule="nonzero" fill-opacity="1" /><path clip-path="url(#clip920)" d="M137.033 471.919 L155.39 471.919 L155.39 475.854 L141.316 475.854 L141.316 484.326 Q142.334 483.979 143.353 483.817 Q144.371 483.632 145.39 483.632 Q151.177 483.632 154.556 486.803 Q157.936 489.974 157.936 495.391 Q157.936 500.969 154.464 504.071 Q150.992 507.15 144.672 507.15 Q142.496 507.15 140.228 506.78 Q137.982 506.409 135.575 505.668 L135.575 500.969 Q137.658 502.104 139.881 502.659 Q142.103 503.215 144.58 503.215 Q148.584 503.215 150.922 501.108 Q153.26 499.002 153.26 495.391 Q153.26 491.78 150.922 489.673 Q148.584 487.567 144.58 487.567 Q142.705 487.567 140.83 487.983 Q138.978 488.4 137.033 489.28 L137.033 471.919 Z" fill="#000000" fill-rule="nonzero" fill-opacity="1" /><path clip-path="url(#clip920)" d="M91.5706 246.746 L99.2095 246.746 L99.2095 220.381 L90.8993 222.048 L90.8993 217.788 L99.1632 216.122 L103.839 216.122 L103.839 246.746 L111.478 246.746 L111.478 250.682 L91.5706 250.682 L91.5706 246.746 Z" fill="#000000" fill-rule="nonzero" fill-opacity="1" /><path clip-path="url(#clip920)" d="M120.922 244.802 L125.807 244.802 L125.807 250.682 L120.922 250.682 L120.922 244.802 Z" fill="#000000" fill-rule="nonzero" fill-opacity="1" /><path clip-path="url(#clip920)" d="M145.992 219.2 Q142.381 219.2 140.552 222.765 Q138.746 226.307 138.746 233.436 Q138.746 240.543 140.552 244.108 Q142.381 247.649 145.992 247.649 Q149.626 247.649 151.431 244.108 Q153.26 240.543 153.26 233.436 Q153.26 226.307 151.431 222.765 Q149.626 219.2 145.992 219.2 M145.992 215.497 Q151.802 215.497 154.857 220.103 Q157.936 224.686 157.936 233.436 Q157.936 242.163 154.857 246.77 Q151.802 251.353 145.992 251.353 Q140.181 251.353 137.103 246.77 Q134.047 242.163 134.047 233.436 Q134.047 224.686 137.103 220.103 Q140.181 215.497 145.992 215.497 Z" fill="#000000" fill-rule="nonzero" fill-opacity="1" /><polyline clip-path="url(#clip921)" style="stroke:#009af9; stroke-linecap:round; stroke-linejoin:round; stroke-width:4; stroke-opacity:1; fill:none" points="255.035,744.996 258.276,739.88 261.517,734.764 264.759,729.65 268,724.537 271.242,719.427 274.483,714.318 277.724,709.213 280.966,704.112 284.207,699.014 287.449,693.921 290.69,688.834 293.931,683.752 297.173,678.676 300.414,673.606 303.655,668.544 306.897,663.489 310.138,658.443 313.38,653.405 316.621,648.377 319.862,643.358 323.104,638.349 326.345,633.351 329.587,628.364 332.828,623.388 336.069,618.425 339.311,613.475 342.552,608.537 345.793,603.614 349.035,598.704 352.276,593.809 355.518,588.929 358.759,584.065 362,579.217 365.242,574.386 368.483,569.571 371.725,564.774 374.966,559.995 378.207,555.235 381.449,550.494 384.69,545.772 387.931,541.07 391.173,536.388 394.414,531.727 397.656,527.088 400.897,522.47 404.138,517.874 407.38,513.302 410.621,508.752 413.863,504.226 417.104,499.724 420.345,495.247 423.587,490.795 426.828,486.368 430.069,481.967 433.311,477.592 436.552,473.244 439.794,468.923 443.035,464.63 446.276,460.365 449.518,456.128 452.759,451.92 456.001,447.742 459.242,443.593 462.483,439.474 465.725,435.386 468.966,431.329 472.208,427.303 475.449,423.309 478.69,419.347 481.932,415.418 485.173,411.521 488.414,407.658 491.656,403.829 494.897,400.034 498.139,396.273 501.38,392.548 504.621,388.857 507.863,385.202 511.104,381.583 514.346,378.001 517.587,374.455 520.828,370.946 524.07,367.474 527.311,364.041 530.552,360.645 533.794,357.288 537.035,353.97 540.277,350.69 543.518,347.45 546.759,344.25 550.001,341.09 553.242,337.971 556.484,334.892 559.725,331.854 562.966,328.857 566.208,325.902 569.449,322.989 572.69,320.118 575.932,317.29 579.173,314.504 582.415,311.762 585.656,309.062 588.897,306.407 592.139,303.795 595.38,301.227 598.622,298.704 601.863,296.225 605.104,293.791 608.346,291.403 611.587,289.059 614.828,286.762 618.07,284.51 621.311,282.304 624.553,280.144 627.794,278.031 631.035,275.965 634.277,273.945 637.518,271.973 640.76,270.048 644.001,268.17 647.242,266.34 650.484,264.558 653.725,262.824 656.966,261.138 660.208,259.501 663.449,257.912 666.691,256.372 669.932,254.88 673.173,253.438 676.415,252.045 679.656,250.701 682.898,249.407 686.139,248.162 689.38,246.967 692.622,245.821 695.863,244.726 699.104,243.681 702.346,242.685 705.587,241.74 708.829,240.845 712.07,240.001 715.311,239.207 718.553,238.464 721.794,237.771 725.036,237.13 728.277,236.539 731.518,235.998 734.76,235.509 738.001,235.071 741.242,234.683 744.484,234.347 747.725,234.061 750.967,233.827 754.208,233.644 757.449,233.512 760.691,233.431 763.932,233.402 767.174,233.423 770.415,233.496 773.656,233.62 776.898,233.795 780.139,234.021 783.381,234.298 786.622,234.626 789.863,235.005 793.105,235.436 796.346,235.917 799.587,236.449 802.829,237.032 806.07,237.666 809.312,238.35 812.553,239.086 815.794,239.871 819.036,240.708 822.277,241.594 825.519,242.531 828.76,243.519 832.001,244.556 835.243,245.644 838.484,246.781 841.725,247.968 844.967,249.205 848.208,250.492 851.45,251.828 854.691,253.213 857.932,254.647 861.174,256.131 864.415,257.663 867.657,259.244 870.898,260.874 874.139,262.552 877.381,264.279 880.622,266.053 883.863,267.875 887.105,269.745 890.346,271.663 893.588,273.628 896.829,275.64 900.07,277.699 903.312,279.805 906.553,281.957 909.795,284.155 913.036,286.4 916.277,288.69 919.519,291.026 922.76,293.408 926.001,295.834 929.243,298.306 932.484,300.822 935.726,303.383 938.967,305.988 942.208,308.636 945.45,311.329 948.691,314.064 951.933,316.843 955.174,319.665 958.415,322.529 961.657,325.435 964.898,328.384 968.139,331.374 971.381,334.405 974.622,337.478 977.864,340.591 981.105,343.744 984.346,346.938 987.588,350.172 990.829,353.445 994.071,356.757 997.312,360.108 1000.55,363.497 1003.79,366.925 1007.04,370.39 1010.28,373.893 1013.52,377.433 1016.76,381.01 1020,384.623 1023.24,388.273 1026.48,391.957 1029.73,395.678 1032.97,399.433 1036.21,403.222 1039.45,407.046 1042.69,410.904 1045.93,414.795 1049.17,418.719 1052.42,422.676 1055.66,426.665 1058.9,430.685 1062.14,434.738 1065.38,438.821 1068.62,442.935 1071.86,447.079 1075.11,451.253 1078.35,455.456 1081.59,459.688 1084.83,463.949 1088.07,468.237 1091.31,472.554 1094.55,476.898 1097.79,481.268 1101.04,485.665 1104.28,490.088 1107.52,494.536 1110.76,499.01 1114,503.508 1117.24,508.03 1120.48,512.576 1123.73,517.145 1126.97,521.736 1130.21,526.351 1133.45,530.987 1136.69,535.644 1139.93,540.323 1143.17,545.021 1146.42,549.74 1149.66,554.479 1152.9,559.236 1156.14,564.012 1159.38,568.806 1162.62,573.618 1165.86,578.447 1169.11,583.292 1172.35,588.154 1175.59,593.031 1178.83,597.924 1182.07,602.831 1185.31,607.752 1188.55,612.688 1191.8,617.636 1195.04,622.597 1198.28,627.571 1201.52,632.556 1204.76,637.552 1208,642.559 1211.24,647.577 1214.48,652.604 1217.73,657.64 1220.97,662.685 1224.21,667.738 1227.45,672.8 1230.69,677.868 1233.93,682.943 1237.17,688.024 1240.42,693.111 1243.66,698.203 1246.9,703.3 1250.14,708.401 1253.38,713.505 1256.62,718.613 1259.86,723.723 1263.11,728.836 1266.35,733.95 1269.59,739.065 1272.83,744.181 1276.07,749.297 1279.31,754.412 1282.55,759.527 1285.8,764.64 1289.04,769.751 1292.28,774.86 1295.52,779.965 1298.76,785.067 1302,790.165 1305.24,795.259 1308.48,800.348 1311.73,805.431 1314.97,810.508 1318.21,815.578 1321.45,820.642 1324.69,825.697 1327.93,830.745 1331.17,835.784 1334.42,840.815 1337.66,845.835 1340.9,850.845 1344.14,855.845 1347.38,860.834 1350.62,865.811 1353.86,870.776 1357.11,875.729 1360.35,880.668 1363.59,885.594 1366.83,890.506 1370.07,895.403 1373.31,900.286 1376.55,905.152 1379.8,910.003 1383.04,914.837 1386.28,919.655 1389.52,924.454 1392.76,929.236 1396,933.999 1399.24,938.744 1402.49,943.469 1405.73,948.174 1408.97,952.859 1412.21,957.523 1415.45,962.166 1418.69,966.788 1421.93,971.387 1425.17,975.963 1428.42,980.516 1431.66,985.046 1434.9,989.552 1438.14,994.033 1441.38,998.489 1444.62,1002.92 1447.86,1007.33 1451.11,1011.7 1454.35,1016.06 1457.59,1020.38 1460.83,1024.68 1464.07,1028.95 1467.31,1033.19 1470.55,1037.4 1473.8,1041.59 1477.04,1045.74 1480.28,1049.86 1483.52,1053.96 1486.76,1058.02 1490,1062.05 1493.24,1066.05 1496.49,1070.02 1499.73,1073.95 1502.97,1077.85 1506.21,1081.72 1509.45,1085.55 1512.69,1089.36 1515.93,1093.12 1519.18,1096.85 1522.42,1100.55 1525.66,1104.21 1528.9,1107.83 1532.14,1111.42 1535.38,1114.97 1538.62,1118.49 1541.86,1121.97 1545.11,1125.41 1548.35,1128.81 1551.59,1132.17 1554.83,1135.5 1558.07,1138.78 1561.31,1142.03 1564.55,1145.23 1567.8,1148.4 1571.04,1151.53 1574.28,1154.61 1577.52,1157.66 1580.76,1160.66 1584,1163.62 1587.24,1166.54 1590.49,1169.42 1593.73,1172.25 1596.97,1175.05 1600.21,1177.8 1603.45,1180.5 1606.69,1183.16 1609.93,1185.78 1613.18,1188.36 1616.42,1190.89 1619.66,1193.37 1622.9,1195.82 1626.14,1198.21 1629.38,1200.56 1632.62,1202.87 1635.86,1205.13 1639.11,1207.34 1642.35,1209.51 1645.59,1211.63 1648.83,1213.7 1652.07,1215.73 1655.31,1217.71 1658.55,1219.64 1661.8,1221.53 1665.04,1223.36 1668.28,1225.15 1671.52,1226.89 1674.76,1228.59 1678,1230.23 1681.24,1231.83 1684.49,1233.38 1687.73,1234.88 1690.97,1236.33 1694.21,1237.73 1697.45,1239.08 1700.69,1240.38 1703.93,1241.63 1707.18,1242.84 1710.42,1243.99 1713.66,1245.09 1716.9,1246.15 1720.14,1247.15 1723.38,1248.1 1726.62,1249.01 1729.87,1249.86 1733.11,1250.66 1736.35,1251.41 1739.59,1252.11 1742.83,1252.76 1746.07,1253.36 1749.31,1253.91 1752.55,1254.41 1755.8,1254.85 1759.04,1255.25 1762.28,1255.59 1765.52,1255.89 1768.76,1256.13 1772,1256.32 1775.24,1256.46 1778.49,1256.55 1781.73,1256.59 1784.97,1256.57 1788.21,1256.51 1791.45,1256.39 1794.69,1256.23 1797.93,1256.01 1801.18,1255.74 1804.42,1255.42 1807.66,1255.05 1810.9,1254.63 1814.14,1254.15 1817.38,1253.63 1820.62,1253.06 1823.87,1252.43 1827.11,1251.75 1830.35,1251.03 1833.59,1250.25 1836.83,1249.42 1840.07,1248.54 1843.31,1247.61 1846.55,1246.63 1849.8,1245.6 1853.04,1244.52 1856.28,1243.39 1859.52,1242.22 1862.76,1240.99 1866,1239.71 1869.24,1238.38 1872.49,1237 1875.73,1235.58 1878.97,1234.1 1882.21,1232.58 1885.45,1231 1888.69,1229.38 1891.93,1227.71 1895.18,1225.99 1898.42,1224.22 1901.66,1222.41 1904.9,1220.55 1908.14,1218.64 1911.38,1216.68 1914.62,1214.68 1917.87,1212.62 1921.11,1210.53 1924.35,1208.38 1927.59,1206.19 1930.83,1203.95 1934.07,1201.67 1937.31,1199.34 1940.56,1196.97 1943.8,1194.55 1947.04,1192.08 1950.28,1189.57 1953.52,1187.02 1956.76,1184.42 1960,1181.78 1963.24,1179.09 1966.49,1176.37 1969.73,1173.59 1972.97,1170.78 1976.21,1167.92 1979.45,1165.02 1982.69,1162.08 1985.93,1159.1 1989.18,1156.07 1992.42,1153.01 1995.66,1149.9 1998.9,1146.75 2002.14,1143.56 2005.38,1140.34 2008.62,1137.07 2011.87,1133.76 2015.11,1130.42 2018.35,1127.04 2021.59,1123.61 2024.83,1120.16 2028.07,1116.66 2031.31,1113.12 2034.56,1109.55 2037.8,1105.95 2041.04,1102.3 2044.28,1098.62 2047.52,1094.91 2050.76,1091.16 2054,1087.37 2057.24,1083.56 2060.49,1079.7 2063.73,1075.82 2066.97,1071.9 2070.21,1067.95 2073.45,1063.96 2076.69,1059.95 2079.93,1055.9 2083.18,1051.82 2086.42,1047.71 2089.66,1043.57 2092.9,1039.41 2096.14,1035.21 2099.38,1030.98 2102.62,1026.72 2105.87,1022.44 2109.11,1018.13 2112.35,1013.79 2115.59,1009.42 2118.83,1005.03 2122.07,1000.61 2125.31,996.165 2128.56,991.696 2131.8,987.202 2135.04,982.683 2138.28,978.141 2141.52,973.576 2144.76,968.988 2148,964.377 2151.25,959.744 2154.49,955.09 2157.73,950.415 2160.97,945.72 2164.21,941.004 2167.45,936.269 2170.69,931.514 2173.93,926.741 2177.18,921.95 2180.42,917.141 2183.66,912.315 2186.9,907.472 2190.14,902.613 2193.38,897.738 2196.62,892.848 2199.87,887.943 2203.11,883.024 2206.35,878.091 2209.59,873.144 2212.83,868.185 2216.07,863.214 2219.31,858.23 2222.56,853.236 2225.8,848.23 2229.04,843.215 2232.28,838.189 2235.52,833.154 2238.76,828.11 2242,823.058 2245.25,817.998 2248.49,812.931 2251.73,807.857 2254.97,802.777 2258.21,797.691 2261.45,792.6 2264.69,787.504 2267.94,782.403 2271.18,777.299 2274.42,772.192 2277.66,767.082 2280.9,761.97 2284.14,756.856 2287.38,751.741 2290.62,746.625 "/>
<circle clip-path="url(#clip921)" cx="1950.28" cy="1248.62" r="14.4" fill="#e26f46" fill-rule="evenodd" fill-opacity="1" stroke="#000000" stroke-opacity="1" stroke-width="3.2"/>
<circle clip-path="url(#clip921)" cx="1554.83" cy="1180.31" r="14.4" fill="#e26f46" fill-rule="evenodd" fill-opacity="1" stroke="#000000" stroke-opacity="1" stroke-width="3.2"/>
<circle clip-path="url(#clip921)" cx="2060.49" cy="1148.8" r="14.4" fill="#e26f46" fill-rule="evenodd" fill-opacity="1" stroke="#000000" stroke-opacity="1" stroke-width="3.2"/>
<circle clip-path="url(#clip921)" cx="1457.59" cy="1130.15" r="14.4" fill="#e26f46" fill-rule="evenodd" fill-opacity="1" stroke="#000000" stroke-opacity="1" stroke-width="3.2"/>
<circle clip-path="url(#clip921)" cx="533.794" cy="244.514" r="14.4" fill="#e26f46" fill-rule="evenodd" fill-opacity="1" stroke="#000000" stroke-opacity="1" stroke-width="3.2"/>
<circle clip-path="url(#clip921)" cx="903.312" cy="317.203" r="14.4" fill="#e26f46" fill-rule="evenodd" fill-opacity="1" stroke="#000000" stroke-opacity="1" stroke-width="3.2"/>
<circle clip-path="url(#clip921)" cx="1742.83" cy="1278.53" r="14.4" fill="#e26f46" fill-rule="evenodd" fill-opacity="1" stroke="#000000" stroke-opacity="1" stroke-width="3.2"/>
<circle clip-path="url(#clip921)" cx="417.104" cy="471.459" r="14.4" fill="#e26f46" fill-rule="evenodd" fill-opacity="1" stroke="#000000" stroke-opacity="1" stroke-width="3.2"/>
<circle clip-path="url(#clip921)" cx="961.657" cy="395.814" r="14.4" fill="#e26f46" fill-rule="evenodd" fill-opacity="1" stroke="#000000" stroke-opacity="1" stroke-width="3.2"/>
<circle clip-path="url(#clip921)" cx="2122.07" cy="873.013" r="14.4" fill="#e26f46" fill-rule="evenodd" fill-opacity="1" stroke="#000000" stroke-opacity="1" stroke-width="3.2"/>
<circle clip-path="url(#clip921)" cx="951.933" cy="312.131" r="14.4" fill="#e26f46" fill-rule="evenodd" fill-opacity="1" stroke="#000000" stroke-opacity="1" stroke-width="3.2"/>
<circle clip-path="url(#clip921)" cx="2063.73" cy="1190.83" r="14.4" fill="#e26f46" fill-rule="evenodd" fill-opacity="1" stroke="#000000" stroke-opacity="1" stroke-width="3.2"/>
<circle clip-path="url(#clip921)" cx="1101.04" cy="512.041" r="14.4" fill="#e26f46" fill-rule="evenodd" fill-opacity="1" stroke="#000000" stroke-opacity="1" stroke-width="3.2"/>
<circle clip-path="url(#clip921)" cx="1726.62" cy="1263.25" r="14.4" fill="#e26f46" fill-rule="evenodd" fill-opacity="1" stroke="#000000" stroke-opacity="1" stroke-width="3.2"/>
<circle clip-path="url(#clip921)" cx="1370.07" cy="1008.97" r="14.4" fill="#e26f46" fill-rule="evenodd" fill-opacity="1" stroke="#000000" stroke-opacity="1" stroke-width="3.2"/>
<circle clip-path="url(#clip921)" cx="1149.66" cy="526.971" r="14.4" fill="#e26f46" fill-rule="evenodd" fill-opacity="1" stroke="#000000" stroke-opacity="1" stroke-width="3.2"/>
<circle clip-path="url(#clip921)" cx="725.036" cy="328.452" r="14.4" fill="#e26f46" fill-rule="evenodd" fill-opacity="1" stroke="#000000" stroke-opacity="1" stroke-width="3.2"/>
<circle clip-path="url(#clip921)" cx="1185.31" cy="647.838" r="14.4" fill="#e26f46" fill-rule="evenodd" fill-opacity="1" stroke="#000000" stroke-opacity="1" stroke-width="3.2"/>
<circle clip-path="url(#clip921)" cx="2054" cy="1090.38" r="14.4" fill="#e26f46" fill-rule="evenodd" fill-opacity="1" stroke="#000000" stroke-opacity="1" stroke-width="3.2"/>
<circle clip-path="url(#clip921)" cx="744.484" cy="181.62" r="14.4" fill="#e26f46" fill-rule="evenodd" fill-opacity="1" stroke="#000000" stroke-opacity="1" stroke-width="3.2"/>
<path clip-path="url(#clip921)" d="M255.035 955.151 L258.276 950.557 L261.517 945.91 L264.759 941.209 L268 936.454 L271.242 931.645 L274.483 926.784 L277.724 921.87 L280.966 916.905 L284.207 911.887 L287.449 906.819 L290.69 901.701 L293.931 896.533 L297.173 891.317 L300.414 886.053 L303.655 880.743 L306.897 875.387 L310.138 869.988 L313.38 864.546 L316.621 859.064 L319.862 853.542 L323.104 847.983 L326.345 842.389 L329.587 836.761 L332.828 831.103 L336.069 825.416 L339.311 819.704 L342.552 813.968 L345.793 808.213 L349.035 802.442 L352.276 796.657 L355.518 790.864 L358.759 785.065 L362 779.265 L365.242 773.468 L368.483 767.679 L371.725 761.904 L374.966 756.146 L378.207 750.412 L381.449 744.708 L384.69 739.039 L387.931 733.411 L391.173 727.832 L394.414 722.307 L397.656 716.844 L400.897 711.449 L404.138 706.13 L407.38 700.894 L410.621 695.748 L413.863 690.7 L417.104 685.757 L420.345 680.924 L423.587 676.199 L426.828 671.578 L430.069 667.057 L433.311 662.631 L436.552 658.295 L439.794 654.047 L443.035 649.882 L446.276 645.795 L449.518 641.784 L452.759 637.845 L456.001 633.976 L459.242 630.173 L462.483 626.434 L465.725 622.757 L468.966 619.141 L472.208 615.585 L475.449 612.089 L478.69 608.651 L481.932 605.273 L485.173 601.956 L488.414 598.7 L491.656 595.507 L494.897 592.38 L498.139 589.321 L501.38 586.333 L504.621 583.421 L507.863 580.587 L511.104 577.837 L514.346 575.175 L517.587 572.606 L520.828 570.135 L524.07 567.769 L527.311 565.512 L530.552 563.371 L533.794 561.353 L537.035 559.46 L540.277 557.685 L543.518 556.018 L546.759 554.449 L550.001 552.968 L553.242 551.566 L556.484 550.234 L559.725 548.961 L562.966 547.74 L566.208 546.563 L569.449 545.42 L572.69 544.306 L575.932 543.211 L579.173 542.13 L582.415 541.056 L585.656 539.983 L588.897 538.905 L592.139 537.817 L595.38 536.714 L598.622 535.592 L601.863 534.446 L605.104 533.274 L608.346 532.071 L611.587 530.834 L614.828 529.562 L618.07 528.252 L621.311 526.902 L624.553 525.511 L627.794 524.078 L631.035 522.603 L634.277 521.085 L637.518 519.525 L640.76 517.923 L644.001 516.281 L647.242 514.599 L650.484 512.88 L653.725 511.127 L656.966 509.341 L660.208 507.526 L663.449 505.686 L666.691 503.824 L669.932 501.946 L673.173 500.057 L676.415 498.162 L679.656 496.267 L682.898 494.38 L686.139 492.506 L689.38 490.653 L692.622 488.83 L695.863 487.046 L699.104 485.308 L702.346 483.628 L705.587 482.014 L708.829 480.477 L712.07 479.027 L715.311 477.677 L718.553 476.436 L721.794 475.315 L725.036 474.327 L728.277 473.482 L731.518 472.783 L734.76 472.234 L738.001 471.838 L741.242 471.599 L744.484 471.518 L747.725 471.596 L750.967 471.824 L754.208 472.188 L757.449 472.675 L760.691 473.274 L763.932 473.971 L767.174 474.756 L770.415 475.616 L773.656 476.54 L776.898 477.519 L780.139 478.54 L783.381 479.596 L786.622 480.677 L789.863 481.774 L793.105 482.88 L796.346 483.987 L799.587 485.089 L802.829 486.179 L806.07 487.252 L809.312 488.304 L812.553 489.328 L815.794 490.322 L819.036 491.283 L822.277 492.208 L825.519 493.094 L828.76 493.94 L832.001 494.746 L835.243 495.51 L838.484 496.232 L841.725 496.914 L844.967 497.556 L848.208 498.16 L851.45 498.728 L854.691 499.264 L857.932 499.77 L861.174 500.251 L864.415 500.71 L867.657 501.155 L870.898 501.589 L874.139 502.02 L877.381 502.454 L880.622 502.898 L883.863 503.362 L887.105 503.854 L890.346 504.383 L893.588 504.959 L896.829 505.591 L900.07 506.292 L903.312 507.073 L906.553 507.942 L909.795 508.905 L913.036 509.962 L916.277 511.118 L919.519 512.374 L922.76 513.735 L926.001 515.204 L929.243 516.785 L932.484 518.483 L935.726 520.304 L938.967 522.251 L942.208 524.331 L945.45 526.55 L948.691 528.914 L951.933 531.428 L955.174 534.096 L958.415 536.916 L961.657 539.88 L964.898 542.983 L968.139 546.211 L971.381 549.553 L974.622 552.994 L977.864 556.522 L981.105 560.124 L984.346 563.79 L987.588 567.507 L990.829 571.265 L994.071 575.053 L997.312 578.864 L1000.55 582.687 L1003.79 586.515 L1007.04 590.34 L1010.28 594.157 L1013.52 597.96 L1016.76 601.742 L1020 605.5 L1023.24 609.23 L1026.48 612.929 L1029.73 616.594 L1032.97 620.224 L1036.21 623.817 L1039.45 627.373 L1042.69 630.892 L1045.93 634.375 L1049.17 637.823 L1052.42 641.239 L1055.66 644.624 L1058.9 647.982 L1062.14 651.317 L1065.38 654.634 L1068.62 657.937 L1071.86 661.233 L1075.11 664.528 L1078.35 667.828 L1081.59 671.141 L1084.83 674.476 L1088.07 677.841 L1091.31 681.245 L1094.55 684.699 L1097.79 688.212 L1101.04 691.795 L1104.28 695.458 L1107.52 699.204 L1110.76 703.035 L1114 706.954 L1117.24 710.963 L1120.48 715.068 L1123.73 719.27 L1126.97 723.575 L1130.21 727.987 L1133.45 732.512 L1136.69 737.155 L1139.93 741.922 L1143.17 746.819 L1146.42 751.853 L1149.66 757.031 L1152.9 762.358 L1156.14 767.83 L1159.38 773.443 L1162.62 779.192 L1165.86 785.072 L1169.11 791.08 L1172.35 797.21 L1175.59 803.46 L1178.83 809.825 L1182.07 816.303 L1185.31 822.889 L1188.55 829.579 L1191.8 836.362 L1195.04 843.226 L1198.28 850.16 L1201.52 857.153 L1204.76 864.193 L1208 871.27 L1211.24 878.373 L1214.48 885.493 L1217.73 892.622 L1220.97 899.749 L1224.21 906.867 L1227.45 913.968 L1230.69 921.045 L1233.93 928.091 L1237.17 935.099 L1240.42 942.064 L1243.66 948.98 L1246.9 955.841 L1250.14 962.644 L1253.38 969.384 L1256.62 976.056 L1259.86 982.657 L1263.11 989.185 L1266.35 995.635 L1269.59 1002.01 L1272.83 1008.29 L1276.07 1014.5 L1279.31 1020.62 L1282.55 1026.65 L1285.8 1032.6 L1289.04 1038.45 L1292.28 1044.22 L1295.52 1049.9 L1298.76 1055.48 L1302 1060.98 L1305.24 1066.39 L1308.48 1071.72 L1311.73 1076.96 L1314.97 1082.11 L1318.21 1087.18 L1321.45 1092.17 L1324.69 1097.08 L1327.93 1101.92 L1331.17 1106.69 L1334.42 1111.38 L1337.66 1116.01 L1340.9 1120.58 L1344.14 1125.09 L1347.38 1129.55 L1350.62 1133.96 L1353.86 1138.33 L1357.11 1142.65 L1360.35 1146.95 L1363.59 1151.21 L1366.83 1155.45 L1370.07 1159.67 L1373.31 1163.88 L1376.55 1168.08 L1379.8 1172.25 L1383.04 1176.41 L1386.28 1180.54 L1389.52 1184.65 L1392.76 1188.73 L1396 1192.78 L1399.24 1196.79 L1402.49 1200.78 L1405.73 1204.73 L1408.97 1208.64 L1412.21 1212.52 L1415.45 1216.37 L1418.69 1220.17 L1421.93 1223.94 L1425.17 1227.68 L1428.42 1231.38 L1431.66 1235.04 L1434.9 1238.68 L1438.14 1242.29 L1441.38 1245.87 L1444.62 1249.42 L1447.86 1252.96 L1451.11 1256.47 L1454.35 1259.97 L1457.59 1263.46 L1460.83 1266.94 L1464.07 1270.4 L1467.31 1273.85 L1470.55 1277.28 L1473.8 1280.68 L1477.04 1284.06 L1480.28 1287.41 L1483.52 1290.73 L1486.76 1294.01 L1490 1297.25 L1493.24 1300.46 L1496.49 1303.63 L1499.73 1306.75 L1502.97 1309.83 L1506.21 1312.88 L1509.45 1315.88 L1512.69 1318.84 L1515.93 1321.76 L1519.18 1324.64 L1522.42 1327.48 L1525.66 1330.29 L1528.9 1333.06 L1532.14 1335.81 L1535.38 1338.53 L1538.62 1341.22 L1541.86 1343.89 L1545.11 1346.54 L1548.35 1349.18 L1551.59 1351.8 L1554.83 1354.42 L1558.07 1357.03 L1561.31 1359.64 L1564.55 1362.22 L1567.8 1364.79 L1571.04 1367.33 L1574.28 1369.84 L1577.52 1372.32 L1580.76 1374.75 L1584 1377.14 L1587.24 1379.47 L1590.49 1381.75 L1593.73 1383.97 L1596.97 1386.13 L1600.21 1388.22 L1603.45 1390.24 L1606.69 1392.18 L1609.93 1394.06 L1613.18 1395.85 L1616.42 1397.57 L1619.66 1399.2 L1622.9 1400.75 L1626.14 1402.22 L1629.38 1403.6 L1632.62 1404.9 L1635.86 1406.12 L1639.11 1407.25 L1642.35 1408.3 L1645.59 1409.26 L1648.83 1410.14 L1652.07 1410.95 L1655.31 1411.68 L1658.55 1412.33 L1661.8 1412.91 L1665.04 1413.43 L1668.28 1413.88 L1671.52 1414.27 L1674.76 1414.6 L1678 1414.89 L1681.24 1415.13 L1684.49 1415.34 L1687.73 1415.51 L1690.97 1415.66 L1694.21 1415.79 L1697.45 1415.91 L1700.69 1416.03 L1703.93 1416.15 L1707.18 1416.3 L1710.42 1416.47 L1713.66 1416.67 L1716.9 1416.92 L1720.14 1417.22 L1723.38 1417.58 L1726.62 1418.02 L1729.87 1418.53 L1733.11 1419.13 L1736.35 1419.8 L1739.59 1420.56 L1742.83 1421.4 L1746.07 1422.32 L1749.31 1423.31 L1752.55 1424.35 L1755.8 1425.45 L1759.04 1426.59 L1762.28 1427.76 L1765.52 1428.96 L1768.76 1430.16 L1772 1431.38 L1775.24 1432.58 L1778.49 1433.78 L1781.73 1434.95 L1784.97 1436.09 L1788.21 1437.2 L1791.45 1438.26 L1794.69 1439.28 L1797.93 1440.24 L1801.18 1441.14 L1804.42 1441.97 L1807.66 1442.72 L1810.9 1443.41 L1814.14 1444.01 L1817.38 1444.52 L1820.62 1444.95 L1823.87 1445.29 L1827.11 1445.53 L1830.35 1445.67 L1833.59 1445.72 L1836.83 1445.66 L1840.07 1445.49 L1843.31 1445.22 L1846.55 1444.84 L1849.8 1444.35 L1853.04 1443.76 L1856.28 1443.05 L1859.52 1442.22 L1862.76 1441.29 L1866 1440.24 L1869.24 1439.08 L1872.49 1437.81 L1875.73 1436.42 L1878.97 1434.92 L1882.21 1433.31 L1885.45 1431.59 L1888.69 1429.76 L1891.93 1427.82 L1895.18 1425.77 L1898.42 1423.62 L1901.66 1421.36 L1904.9 1419.01 L1908.14 1416.55 L1911.38 1413.99 L1914.62 1411.34 L1917.87 1408.6 L1921.11 1405.77 L1924.35 1402.86 L1927.59 1399.86 L1930.83 1396.78 L1934.07 1393.63 L1937.31 1390.41 L1940.56 1387.12 L1943.8 1383.77 L1947.04 1380.36 L1950.28 1376.9 L1953.52 1373.38 L1956.76 1369.82 L1960 1366.2 L1963.24 1362.52 L1966.49 1358.79 L1969.73 1355 L1972.97 1351.14 L1976.21 1347.22 L1979.45 1343.24 L1982.69 1339.2 L1985.93 1335.09 L1989.18 1330.92 L1992.42 1326.69 L1995.66 1322.4 L1998.9 1318.06 L2002.14 1313.66 L2005.38 1309.22 L2008.62 1304.73 L2011.87 1300.21 L2015.11 1295.65 L2018.35 1291.08 L2021.59 1286.5 L2024.83 1281.92 L2028.07 1277.35 L2031.31 1272.8 L2034.56 1268.29 L2037.8 1263.84 L2041.04 1259.45 L2044.28 1255.14 L2047.52 1250.93 L2050.76 1246.84 L2054 1242.88 L2057.24 1239.07 L2060.49 1235.42 L2063.73 1231.94 L2066.97 1228.62 L2070.21 1225.46 L2073.45 1222.48 L2076.69 1219.65 L2079.93 1216.99 L2083.18 1214.48 L2086.42 1212.13 L2089.66 1209.93 L2092.9 1207.89 L2096.14 1206 L2099.38 1204.26 L2102.62 1202.67 L2105.87 1201.24 L2109.11 1199.96 L2112.35 1198.84 L2115.59 1197.89 L2118.83 1197.09 L2122.07 1196.47 L2125.31 1196.01 L2128.56 1195.71 L2131.8 1195.57 L2135.04 1195.56 L2138.28 1195.68 L2141.52 1195.91 L2144.76 1196.25 L2148 1196.69 L2151.25 1197.22 L2154.49 1197.84 L2157.73 1198.52 L2160.97 1199.28 L2164.21 1200.1 L2167.45 1200.97 L2170.69 1201.89 L2173.93 1202.85 L2177.18 1203.86 L2180.42 1204.9 L2183.66 1205.97 L2186.9 1207.06 L2190.14 1208.18 L2193.38 1209.32 L2196.62 1210.47 L2199.87 1211.64 L2203.11 1212.82 L2206.35 1214.01 L2209.59 1215.2 L2212.83 1216.39 L2216.07 1217.59 L2219.31 1218.79 L2222.56 1219.98 L2225.8 1221.18 L2229.04 1222.36 L2232.28 1223.54 L2235.52 1224.72 L2238.76 1225.88 L2242 1227.04 L2245.25 1228.18 L2248.49 1229.31 L2251.73 1230.43 L2254.97 1231.54 L2258.21 1232.63 L2261.45 1233.71 L2264.69 1234.78 L2267.94 1235.83 L2271.18 1236.86 L2274.42 1237.88 L2277.66 1238.88 L2280.9 1239.86 L2284.14 1240.83 L2287.38 1241.78 L2290.62 1242.71 L2290.62 493.804 L2287.38 498.462 L2284.14 503.192 L2280.9 507.995 L2277.66 512.871 L2274.42 517.821 L2271.18 522.846 L2267.94 527.946 L2264.69 533.121 L2261.45 538.372 L2258.21 543.7 L2254.97 549.104 L2251.73 554.584 L2248.49 560.143 L2245.25 565.778 L2242 571.491 L2238.76 577.281 L2235.52 583.149 L2232.28 589.094 L2229.04 595.117 L2225.8 601.216 L2222.56 607.392 L2219.31 613.645 L2216.07 619.973 L2212.83 626.376 L2209.59 632.853 L2206.35 639.404 L2203.11 646.027 L2199.87 652.72 L2196.62 659.484 L2193.38 666.315 L2190.14 673.212 L2186.9 680.173 L2183.66 687.196 L2180.42 694.279 L2177.18 701.418 L2173.93 708.611 L2170.69 715.853 L2167.45 723.143 L2164.21 730.475 L2160.97 737.845 L2157.73 745.248 L2154.49 752.68 L2151.25 760.134 L2148 767.604 L2144.76 775.084 L2141.52 782.567 L2138.28 790.045 L2135.04 797.51 L2131.8 804.954 L2128.56 812.366 L2125.31 819.738 L2122.07 827.06 L2118.83 834.32 L2115.59 841.511 L2112.35 848.624 L2109.11 855.648 L2105.87 862.574 L2102.62 869.391 L2099.38 876.089 L2096.14 882.654 L2092.9 889.075 L2089.66 895.339 L2086.42 901.43 L2083.18 907.336 L2079.93 913.041 L2076.69 918.53 L2073.45 923.786 L2070.21 928.795 L2066.97 933.54 L2063.73 938.007 L2060.49 942.182 L2057.24 946.064 L2054 949.662 L2050.76 952.988 L2047.52 956.059 L2044.28 958.895 L2041.04 961.513 L2037.8 963.932 L2034.56 966.171 L2031.31 968.244 L2028.07 970.17 L2024.83 971.962 L2021.59 973.633 L2018.35 975.197 L2015.11 976.665 L2011.87 978.047 L2008.62 979.352 L2005.38 980.587 L2002.14 981.759 L1998.9 982.874 L1995.66 983.936 L1992.42 984.949 L1989.18 985.916 L1985.93 986.838 L1982.69 987.716 L1979.45 988.551 L1976.21 989.342 L1972.97 990.087 L1969.73 990.786 L1966.49 991.434 L1963.24 992.031 L1960 992.572 L1956.76 993.054 L1953.52 993.473 L1950.28 993.825 L1947.04 994.107 L1943.8 994.326 L1940.56 994.491 L1937.31 994.609 L1934.07 994.689 L1930.83 994.74 L1927.59 994.767 L1924.35 994.779 L1921.11 994.782 L1917.87 994.783 L1914.62 994.788 L1911.38 994.804 L1908.14 994.835 L1904.9 994.887 L1901.66 994.965 L1898.42 995.074 L1895.18 995.217 L1891.93 995.399 L1888.69 995.624 L1885.45 995.894 L1882.21 996.213 L1878.97 996.583 L1875.73 997.006 L1872.49 997.485 L1869.24 998.022 L1866 998.617 L1862.76 999.273 L1859.52 999.989 L1856.28 1000.77 L1853.04 1001.6 L1849.8 1002.51 L1846.55 1003.47 L1843.31 1004.49 L1840.07 1005.57 L1836.83 1006.7 L1833.59 1007.9 L1830.35 1009.14 L1827.11 1010.44 L1823.87 1011.79 L1820.62 1013.18 L1817.38 1014.61 L1814.14 1016.08 L1810.9 1017.58 L1807.66 1019.11 L1804.42 1020.67 L1801.18 1022.24 L1797.93 1023.82 L1794.69 1025.4 L1791.45 1026.98 L1788.21 1028.55 L1784.97 1030.09 L1781.73 1031.61 L1778.49 1033.1 L1775.24 1034.53 L1772 1035.9 L1768.76 1037.21 L1765.52 1038.44 L1762.28 1039.57 L1759.04 1040.6 L1755.8 1041.51 L1752.55 1042.3 L1749.31 1042.94 L1746.07 1043.42 L1742.83 1043.74 L1739.59 1043.88 L1736.35 1043.84 L1733.11 1043.62 L1729.87 1043.22 L1726.62 1042.63 L1723.38 1041.87 L1720.14 1040.94 L1716.9 1039.86 L1713.66 1038.64 L1710.42 1037.29 L1707.18 1035.82 L1703.93 1034.25 L1700.69 1032.59 L1697.45 1030.84 L1694.21 1029.03 L1690.97 1027.16 L1687.73 1025.24 L1684.49 1023.28 L1681.24 1021.29 L1678 1019.28 L1674.76 1017.25 L1671.52 1015.22 L1668.28 1013.19 L1665.04 1011.16 L1661.8 1009.15 L1658.55 1007.15 L1655.31 1005.18 L1652.07 1003.23 L1648.83 1001.31 L1645.59 999.418 L1642.35 997.565 L1639.11 995.748 L1635.86 993.968 L1632.62 992.228 L1629.38 990.528 L1626.14 988.867 L1622.9 987.245 L1619.66 985.662 L1616.42 984.117 L1613.18 982.607 L1609.93 981.131 L1606.69 979.686 L1603.45 978.269 L1600.21 976.876 L1596.97 975.505 L1593.73 974.151 L1590.49 972.809 L1587.24 971.475 L1584 970.142 L1580.76 968.805 L1577.52 967.459 L1574.28 966.096 L1571.04 964.711 L1567.8 963.295 L1564.55 961.842 L1561.31 960.343 L1558.07 958.792 L1554.83 957.181 L1551.59 955.503 L1548.35 953.76 L1545.11 951.956 L1541.86 950.093 L1538.62 948.175 L1535.38 946.206 L1532.14 944.187 L1528.9 942.121 L1525.66 940.009 L1522.42 937.855 L1519.18 935.657 L1515.93 933.419 L1512.69 931.138 L1509.45 928.817 L1506.21 926.453 L1502.97 924.046 L1499.73 921.594 L1496.49 919.096 L1493.24 916.548 L1490 913.947 L1486.76 911.29 L1483.52 908.573 L1480.28 905.79 L1477.04 902.938 L1473.8 900.011 L1470.55 897.003 L1467.31 893.908 L1464.07 890.718 L1460.83 887.429 L1457.59 884.032 L1454.35 880.522 L1451.11 876.903 L1447.86 873.18 L1444.62 869.358 L1441.38 865.442 L1438.14 861.437 L1434.9 857.346 L1431.66 853.173 L1428.42 848.922 L1425.17 844.596 L1421.93 840.197 L1418.69 835.727 L1415.45 831.187 L1412.21 826.579 L1408.97 821.904 L1405.73 817.162 L1402.49 812.352 L1399.24 807.473 L1396 802.525 L1392.76 797.507 L1389.52 792.416 L1386.28 787.25 L1383.04 782.007 L1379.8 776.684 L1376.55 771.278 L1373.31 765.786 L1370.07 760.205 L1366.83 754.533 L1363.59 748.779 L1360.35 742.951 L1357.11 737.059 L1353.86 731.112 L1350.62 725.119 L1347.38 719.088 L1344.14 713.03 L1340.9 706.95 L1337.66 700.859 L1334.42 694.762 L1331.17 688.667 L1327.93 682.582 L1324.69 676.512 L1321.45 670.465 L1318.21 664.445 L1314.97 658.458 L1311.73 652.51 L1308.48 646.606 L1305.24 640.749 L1302 634.945 L1298.76 629.197 L1295.52 623.508 L1292.28 617.882 L1289.04 612.322 L1285.8 606.83 L1282.55 601.409 L1279.31 596.06 L1276.07 590.786 L1272.83 585.587 L1269.59 580.464 L1266.35 575.419 L1263.11 570.451 L1259.86 565.56 L1256.62 560.747 L1253.38 556.01 L1250.14 551.349 L1246.9 546.762 L1243.66 542.247 L1240.42 537.802 L1237.17 533.426 L1233.93 529.114 L1230.69 524.863 L1227.45 520.671 L1224.21 516.532 L1220.97 512.442 L1217.73 508.397 L1214.48 504.39 L1211.24 500.415 L1208 496.467 L1204.76 492.539 L1201.52 488.623 L1198.28 484.711 L1195.04 480.796 L1191.8 476.87 L1188.55 472.923 L1185.31 468.947 L1182.07 464.935 L1178.83 460.885 L1175.59 456.798 L1172.35 452.673 L1169.11 448.511 L1165.86 444.311 L1162.62 440.073 L1159.38 435.797 L1156.14 431.482 L1152.9 427.127 L1149.66 422.732 L1146.42 418.296 L1143.17 413.824 L1139.93 409.32 L1136.69 404.789 L1133.45 400.235 L1130.21 395.662 L1126.97 391.073 L1123.73 386.474 L1120.48 381.865 L1117.24 377.252 L1114 372.635 L1110.76 368.017 L1107.52 363.4 L1104.28 358.785 L1101.04 354.174 L1097.79 349.569 L1094.55 344.977 L1091.31 340.407 L1088.07 335.868 L1084.83 331.368 L1081.59 326.914 L1078.35 322.514 L1075.11 318.174 L1071.86 313.9 L1068.62 309.699 L1065.38 305.574 L1062.14 301.532 L1058.9 297.576 L1055.66 293.709 L1052.42 289.936 L1049.17 286.257 L1045.93 282.676 L1042.69 279.193 L1039.45 275.809 L1036.21 272.526 L1032.97 269.343 L1029.73 266.258 L1026.48 263.271 L1023.24 260.38 L1020 257.583 L1016.76 254.876 L1013.52 252.257 L1010.28 249.72 L1007.04 247.262 L1003.79 244.877 L1000.55 242.559 L997.312 240.301 L994.071 238.097 L990.829 235.939 L987.588 233.819 L984.346 231.727 L981.105 229.654 L977.864 227.59 L974.622 225.526 L971.381 223.449 L968.139 221.35 L964.898 219.217 L961.657 217.038 L958.415 214.804 L955.174 212.511 L951.933 210.157 L948.691 207.743 L945.45 205.271 L942.208 202.746 L938.967 200.172 L935.726 197.553 L932.484 194.894 L929.243 192.199 L926.001 189.471 L922.76 186.714 L919.519 183.932 L916.277 181.128 L913.036 178.305 L909.795 175.465 L906.553 172.61 L903.312 169.743 L900.07 166.867 L896.829 163.99 L893.588 161.12 L890.346 158.268 L887.105 155.442 L883.863 152.648 L880.622 149.897 L877.381 147.194 L874.139 144.546 L870.898 141.96 L867.657 139.441 L864.415 136.995 L861.174 134.627 L857.932 132.341 L854.691 130.141 L851.45 128.031 L848.208 126.012 L844.967 124.089 L841.725 122.262 L838.484 120.534 L835.243 118.906 L832.001 117.378 L828.76 115.951 L825.519 114.624 L822.277 113.398 L819.036 112.27 L815.794 111.24 L812.553 110.306 L809.312 109.465 L806.07 108.715 L802.829 108.052 L799.587 107.472 L796.346 106.973 L793.105 106.548 L789.863 106.193 L786.622 105.903 L783.381 105.671 L780.139 105.491 L776.898 105.356 L773.656 105.259 L770.415 105.191 L767.174 105.146 L763.932 105.115 L760.691 105.088 L757.449 105.056 L754.208 105.012 L750.967 104.945 L747.725 104.846 L744.484 104.706 L741.242 104.517 L738.001 104.274 L734.76 103.971 L731.518 103.606 L728.277 103.174 L725.036 102.673 L721.794 102.1 L718.553 101.462 L715.311 100.77 L712.07 100.032 L708.829 99.2567 L705.587 98.4541 L702.346 97.6328 L699.104 96.8016 L695.863 95.9689 L692.622 95.1429 L689.38 94.3315 L686.139 93.542 L682.898 92.7817 L679.656 92.0571 L676.415 91.3746 L673.173 90.7401 L669.932 90.1592 L666.691 89.6369 L663.449 89.1781 L660.208 88.7871 L656.966 88.4679 L653.725 88.2242 L650.484 88.0594 L647.242 87.9763 L644.001 87.9776 L640.76 88.0657 L637.518 88.2425 L634.277 88.5097 L631.035 88.8689 L627.794 89.3209 L624.553 89.8667 L621.311 90.5068 L618.07 91.2414 L614.828 92.0705 L611.587 92.9937 L608.346 94.0106 L605.104 95.1201 L601.863 96.3212 L598.622 97.6124 L595.38 98.992 L592.139 100.458 L588.897 102.008 L585.656 103.64 L582.415 105.351 L579.173 107.137 L575.932 108.995 L572.69 110.922 L569.449 112.914 L566.208 114.967 L562.966 117.075 L559.725 119.235 L556.484 121.441 L553.242 123.688 L550.001 125.972 L546.759 128.286 L543.518 130.624 L540.277 132.982 L537.035 135.354 L533.794 137.734 L530.552 140.116 L527.311 142.501 L524.07 144.888 L520.828 147.278 L517.587 149.67 L514.346 152.064 L511.104 154.461 L507.863 156.86 L504.621 159.26 L501.38 161.661 L498.139 164.062 L494.897 166.461 L491.656 168.856 L488.414 171.246 L485.173 173.628 L481.932 175.999 L478.69 178.357 L475.449 180.697 L472.208 183.017 L468.966 185.311 L465.725 187.575 L462.483 189.803 L459.242 191.992 L456.001 194.134 L452.759 196.224 L449.518 198.256 L446.276 200.222 L443.035 202.116 L439.794 203.931 L436.552 205.66 L433.311 207.295 L430.069 208.829 L426.828 210.254 L423.587 211.562 L420.345 212.747 L417.104 213.8 L413.863 214.717 L410.621 215.502 L407.38 216.161 L404.138 216.702 L400.897 217.13 L397.656 217.452 L394.414 217.674 L391.173 217.804 L387.931 217.847 L384.69 217.809 L381.449 217.697 L378.207 217.516 L374.966 217.271 L371.725 216.968 L368.483 216.612 L365.242 216.207 L362 215.759 L358.759 215.271 L355.518 214.748 L352.276 214.193 L349.035 213.61 L345.793 213.003 L342.552 212.375 L339.311 211.728 L336.069 211.067 L332.828 210.393 L329.587 209.708 L326.345 209.017 L323.104 208.319 L319.862 207.618 L316.621 206.915 L313.38 206.213 L310.138 205.512 L306.897 204.814 L303.655 204.122 L300.414 203.435 L297.173 202.755 L293.931 202.083 L290.69 201.42 L287.449 200.768 L284.207 200.126 L280.966 199.496 L277.724 198.878 L274.483 198.273 L271.242 197.682 L268 197.104 L264.759 196.541 L261.517 195.993 L258.276 195.459 L255.035 194.941  Z" fill="#3da44d" fill-rule="evenodd" fill-opacity="0.1"/>
<polyline clip-path="url(#clip921)" style="stroke:#3da44d; stroke-linecap:round; stroke-linejoin:round; stroke-width:8; stroke-opacity:1; fill:none" points="255.035,575.046 258.276,573.008 261.517,570.951 264.759,568.875 268,566.779 271.242,564.664 274.483,562.529 277.724,560.374 280.966,558.2 284.207,556.007 287.449,553.793 290.69,551.56 293.931,549.308 297.173,547.036 300.414,544.744 303.655,542.432 306.897,540.101 310.138,537.75 313.38,535.38 316.621,532.99 319.862,530.58 323.104,528.151 326.345,525.703 329.587,523.235 332.828,520.748 336.069,518.241 339.311,515.716 342.552,513.172 345.793,510.608 349.035,508.026 352.276,505.425 355.518,502.806 358.759,500.168 362,497.512 365.242,494.838 368.483,492.146 371.725,489.436 374.966,486.709 378.207,483.964 381.449,481.203 384.69,478.424 387.931,475.629 391.173,472.818 394.414,469.991 397.656,467.148 400.897,464.289 404.138,461.416 407.38,458.528 410.621,455.625 413.863,452.709 417.104,449.778 420.345,446.835 423.587,443.881 426.828,440.916 430.069,437.943 433.311,434.963 436.552,431.978 439.794,428.989 443.035,425.999 446.276,423.009 449.518,420.02 452.759,417.035 456.001,414.055 459.242,411.082 462.483,408.118 465.725,405.166 468.966,402.226 472.208,399.301 475.449,396.393 478.69,393.504 481.932,390.636 485.173,387.792 488.414,384.973 491.656,382.181 494.897,379.42 498.139,376.691 501.38,373.997 504.621,371.341 507.863,368.724 511.104,366.149 514.346,363.62 517.587,361.138 520.828,358.707 524.07,356.328 527.311,354.007 530.552,351.744 533.794,349.543 537.035,347.407 540.277,345.334 543.518,343.321 546.759,341.367 550.001,339.47 553.242,337.627 556.484,335.837 559.725,334.098 562.966,332.408 566.208,330.765 569.449,329.167 572.69,327.614 575.932,326.103 579.173,324.633 582.415,323.203 585.656,321.811 588.897,320.457 592.139,319.138 595.38,317.853 598.622,316.602 601.863,315.384 605.104,314.197 608.346,313.041 611.587,311.914 614.828,310.816 618.07,309.746 621.311,308.704 624.553,307.689 627.794,306.7 631.035,305.736 634.277,304.797 637.518,303.884 640.76,302.994 644.001,302.129 647.242,301.288 650.484,300.47 653.725,299.675 656.966,298.904 660.208,298.156 663.449,297.432 666.691,296.731 669.932,296.053 673.173,295.399 676.415,294.768 679.656,294.162 682.898,293.581 686.139,293.024 689.38,292.492 692.622,291.987 695.863,291.507 699.104,291.055 702.346,290.63 705.587,290.234 708.829,289.867 712.07,289.53 715.311,289.223 718.553,288.949 721.794,288.708 725.036,288.5 728.277,288.328 731.518,288.194 734.76,288.103 738.001,288.056 741.242,288.058 744.484,288.112 747.725,288.221 750.967,288.384 754.208,288.6 757.449,288.866 760.691,289.181 763.932,289.543 767.174,289.951 770.415,290.404 773.656,290.9 776.898,291.437 780.139,292.016 783.381,292.634 786.622,293.29 789.863,293.984 793.105,294.714 796.346,295.48 799.587,296.281 802.829,297.115 806.07,297.983 809.312,298.884 812.553,299.817 815.794,300.781 819.036,301.777 822.277,302.803 825.519,303.859 828.76,304.946 832.001,306.062 835.243,307.208 838.484,308.383 841.725,309.588 844.967,310.822 848.208,312.086 851.45,313.379 854.691,314.702 857.932,316.056 861.174,317.439 864.415,318.853 867.657,320.298 870.898,321.774 874.139,323.283 877.381,324.824 880.622,326.398 883.863,328.005 887.105,329.648 890.346,331.326 893.588,333.039 896.829,334.791 900.07,336.58 903.312,338.408 906.553,340.276 909.795,342.185 913.036,344.134 916.277,346.123 919.519,348.153 922.76,350.225 926.001,352.337 929.243,354.492 932.484,356.689 935.726,358.929 938.967,361.212 942.208,363.539 945.45,365.911 948.691,368.329 951.933,370.793 955.174,373.304 958.415,375.86 961.657,378.459 964.898,381.1 968.139,383.781 971.381,386.501 974.622,389.26 977.864,392.056 981.105,394.889 984.346,397.758 987.588,400.663 990.829,403.602 994.071,406.575 997.312,409.582 1000.55,412.623 1003.79,415.696 1007.04,418.801 1010.28,421.939 1013.52,425.108 1016.76,428.309 1020,431.541 1023.24,434.805 1026.48,438.1 1029.73,441.426 1032.97,444.783 1036.21,448.171 1039.45,451.591 1042.69,455.042 1045.93,458.525 1049.17,462.04 1052.42,465.587 1055.66,469.167 1058.9,472.779 1062.14,476.425 1065.38,480.104 1068.62,483.818 1071.86,487.567 1075.11,491.351 1078.35,495.171 1081.59,499.028 1084.83,502.922 1088.07,506.855 1091.31,510.826 1094.55,514.838 1097.79,518.89 1101.04,522.985 1104.28,527.122 1107.52,531.302 1110.76,535.526 1114,539.794 1117.24,544.108 1120.48,548.467 1123.73,552.872 1126.97,557.324 1130.21,561.824 1133.45,566.373 1136.69,570.972 1139.93,575.621 1143.17,580.322 1146.42,585.075 1149.66,589.881 1152.9,594.742 1156.14,599.656 1159.38,604.62 1162.62,609.632 1165.86,614.691 1169.11,619.795 1172.35,624.942 1175.59,630.129 1178.83,635.355 1182.07,640.619 1185.31,645.918 1188.55,651.251 1191.8,656.616 1195.04,662.011 1198.28,667.436 1201.52,672.888 1204.76,678.366 1208,683.869 1211.24,689.394 1214.48,694.942 1217.73,700.509 1220.97,706.096 1224.21,711.7 1227.45,717.319 1230.69,722.954 1233.93,728.602 1237.17,734.262 1240.42,739.933 1243.66,745.613 1246.9,751.301 1250.14,756.996 1253.38,762.697 1256.62,768.401 1259.86,774.109 1263.11,779.818 1266.35,785.527 1269.59,791.235 1272.83,796.941 1276.07,802.643 1279.31,808.34 1282.55,814.03 1285.8,819.713 1289.04,825.387 1292.28,831.05 1295.52,836.702 1298.76,842.34 1302,847.964 1305.24,853.572 1308.48,859.162 1311.73,864.733 1314.97,870.284 1318.21,875.812 1321.45,881.318 1324.69,886.798 1327.93,892.251 1331.17,897.677 1334.42,903.072 1337.66,908.436 1340.9,913.766 1344.14,919.062 1347.38,924.32 1350.62,929.54 1353.86,934.719 1357.11,939.856 1360.35,944.949 1363.59,949.995 1366.83,954.992 1370.07,959.94 1373.31,964.835 1376.55,969.677 1379.8,974.468 1383.04,979.207 1386.28,983.895 1389.52,988.531 1392.76,993.116 1396,997.65 1399.24,1002.13 1402.49,1006.56 1405.73,1010.95 1408.97,1015.27 1412.21,1019.55 1415.45,1023.78 1418.69,1027.95 1421.93,1032.07 1425.17,1036.14 1428.42,1040.15 1431.66,1044.11 1434.9,1048.01 1438.14,1051.86 1441.38,1055.66 1444.62,1059.39 1447.86,1063.07 1451.11,1066.69 1454.35,1070.25 1457.59,1073.75 1460.83,1077.18 1464.07,1080.56 1467.31,1083.88 1470.55,1087.14 1473.8,1090.35 1477.04,1093.5 1480.28,1096.6 1483.52,1099.65 1486.76,1102.65 1490,1105.6 1493.24,1108.5 1496.49,1111.36 1499.73,1114.17 1502.97,1116.94 1506.21,1119.67 1509.45,1122.35 1512.69,1124.99 1515.93,1127.59 1519.18,1130.15 1522.42,1132.67 1525.66,1135.15 1528.9,1137.59 1532.14,1140 1535.38,1142.37 1538.62,1144.7 1541.86,1146.99 1545.11,1149.25 1548.35,1151.47 1551.59,1153.65 1554.83,1155.8 1558.07,1157.91 1561.31,1159.99 1564.55,1162.03 1567.8,1164.04 1571.04,1166.02 1574.28,1167.97 1577.52,1169.89 1580.76,1171.78 1584,1173.64 1587.24,1175.47 1590.49,1177.28 1593.73,1179.06 1596.97,1180.82 1600.21,1182.55 1603.45,1184.25 1606.69,1185.94 1609.93,1187.59 1613.18,1189.23 1616.42,1190.84 1619.66,1192.43 1622.9,1194 1626.14,1195.54 1629.38,1197.07 1632.62,1198.57 1635.86,1200.04 1639.11,1201.5 1642.35,1202.93 1645.59,1204.34 1648.83,1205.73 1652.07,1207.09 1655.31,1208.43 1658.55,1209.74 1661.8,1211.03 1665.04,1212.29 1668.28,1213.53 1671.52,1214.74 1674.76,1215.93 1678,1217.08 1681.24,1218.21 1684.49,1219.31 1687.73,1220.37 1690.97,1221.41 1694.21,1222.41 1697.45,1223.38 1700.69,1224.31 1703.93,1225.2 1707.18,1226.06 1710.42,1226.88 1713.66,1227.65 1716.9,1228.39 1720.14,1229.08 1723.38,1229.73 1726.62,1230.32 1729.87,1230.87 1733.11,1231.37 1736.35,1231.82 1739.59,1232.22 1742.83,1232.57 1746.07,1232.87 1749.31,1233.12 1752.55,1233.32 1755.8,1233.48 1759.04,1233.6 1762.28,1233.67 1765.52,1233.7 1768.76,1233.69 1772,1233.64 1775.24,1233.56 1778.49,1233.44 1781.73,1233.28 1784.97,1233.09 1788.21,1232.87 1791.45,1232.62 1794.69,1232.34 1797.93,1232.03 1801.18,1231.69 1804.42,1231.32 1807.66,1230.92 1810.9,1230.5 1814.14,1230.04 1817.38,1229.57 1820.62,1229.07 1823.87,1228.54 1827.11,1227.99 1830.35,1227.41 1833.59,1226.81 1836.83,1226.18 1840.07,1225.53 1843.31,1224.85 1846.55,1224.15 1849.8,1223.43 1853.04,1222.68 1856.28,1221.91 1859.52,1221.11 1862.76,1220.28 1866,1219.43 1869.24,1218.55 1872.49,1217.65 1875.73,1216.71 1878.97,1215.75 1882.21,1214.76 1885.45,1213.74 1888.69,1212.69 1891.93,1211.61 1895.18,1210.5 1898.42,1209.35 1901.66,1208.16 1904.9,1206.95 1908.14,1205.69 1911.38,1204.4 1914.62,1203.07 1917.87,1201.69 1921.11,1200.28 1924.35,1198.82 1927.59,1197.31 1930.83,1195.76 1934.07,1194.16 1937.31,1192.51 1940.56,1190.81 1943.8,1189.05 1947.04,1187.23 1950.28,1185.36 1953.52,1183.43 1956.76,1181.44 1960,1179.39 1963.24,1177.28 1966.49,1175.11 1969.73,1172.89 1972.97,1170.61 1976.21,1168.28 1979.45,1165.9 1982.69,1163.46 1985.93,1160.96 1989.18,1158.42 1992.42,1155.82 1995.66,1153.17 1998.9,1150.47 2002.14,1147.71 2005.38,1144.9 2008.62,1142.04 2011.87,1139.13 2015.11,1136.16 2018.35,1133.14 2021.59,1130.07 2024.83,1126.94 2028.07,1123.76 2031.31,1120.52 2034.56,1117.23 2037.8,1113.88 2041.04,1110.48 2044.28,1107.02 2047.52,1103.5 2050.76,1099.91 2054,1096.27 2057.24,1092.57 2060.49,1088.8 2063.73,1084.97 2066.97,1081.08 2070.21,1077.13 2073.45,1073.13 2076.69,1069.09 2079.93,1065.01 2083.18,1060.91 2086.42,1056.78 2089.66,1052.63 2092.9,1048.48 2096.14,1044.33 2099.38,1040.17 2102.62,1036.03 2105.87,1031.91 2109.11,1027.81 2112.35,1023.73 2115.59,1019.7 2118.83,1015.71 2122.07,1011.76 2125.31,1007.87 2128.56,1004.04 2131.8,1000.26 2135.04,996.534 2138.28,992.861 2141.52,989.239 2144.76,985.669 2148,982.149 2151.25,978.679 2154.49,975.258 2157.73,971.886 2160.97,968.562 2164.21,965.285 2167.45,962.055 2170.69,958.871 2173.93,955.732 2177.18,952.638 2180.42,949.588 2183.66,946.581 2186.9,943.618 2190.14,940.696 2193.38,937.817 2196.62,934.979 2199.87,932.181 2203.11,929.423 2206.35,926.705 2209.59,924.026 2212.83,921.385 2216.07,918.783 2219.31,916.217 2222.56,913.689 2225.8,911.196 2229.04,908.74 2232.28,906.319 2235.52,903.933 2238.76,901.581 2242,899.263 2245.25,896.979 2248.49,894.727 2251.73,892.508 2254.97,890.321 2258.21,888.166 2261.45,886.042 2264.69,883.949 2267.94,881.885 2271.18,879.852 2274.42,877.848 2277.66,875.874 2280.9,873.928 2284.14,872.01 2287.38,870.12 2290.62,868.257 "/>
<polyline clip-path="url(#clip921)" style="stroke:#c271d2; stroke-linecap:round; stroke-linejoin:round; stroke-width:12; stroke-opacity:1; fill:none" points="255.035,831.423 362.225,687.22 469.416,548.066 576.607,472.288 683.797,428.615 790.988,420.987 898.179,450.426 1005.37,532.656 1112.56,650.739 1219.75,834.225 1326.94,1032.14 1434.13,1175.74 1541.32,1279.37 1648.51,1343.5 1755.7,1362.94 1862.89,1369.31 1970.09,1295.35 2077.28,1170.07 2184.47,1121.48 2291.66,1120.83 "/>
<polyline clip-path="url(#clip921)" style="stroke:#ac8d18; stroke-linecap:round; stroke-linejoin:round; stroke-width:12; stroke-opacity:1; fill:none" points="255.035,318.669 362.225,307.434 469.416,255.572 576.607,179.3 683.797,158.232 790.988,167.48 898.179,220.635 1005.37,301.745 1112.56,425.041 1219.75,573.767 1326.94,749.035 1434.13,918.449 1541.32,1013.85 1648.51,1067.68 1755.7,1104.02 1862.89,1071.18 1970.09,1049.93 2077.28,966.646 2184.47,770.203 2291.66,614.51 "/>
<path clip-path="url(#clip920)" d="M1953.46 406.258 L2280.8 406.258 L2280.8 95.2176 L1953.46 95.2176  Z" fill="#ffffff" fill-rule="evenodd" fill-opacity="1"/>
<polyline clip-path="url(#clip920)" style="stroke:#000000; stroke-linecap:round; stroke-linejoin:round; stroke-width:4; stroke-opacity:1; fill:none" points="1953.46,406.258 2280.8,406.258 2280.8,95.2176 1953.46,95.2176 1953.46,406.258 "/>
<polyline clip-path="url(#clip920)" style="stroke:#009af9; stroke-linecap:round; stroke-linejoin:round; stroke-width:4; stroke-opacity:1; fill:none" points="1977.44,147.058 2121.36,147.058 "/>
<path clip-path="url(#clip920)" d="M2152.76 131.051 L2152.76 138.412 L2161.53 138.412 L2161.53 141.722 L2152.76 141.722 L2152.76 155.796 Q2152.76 158.967 2153.61 159.87 Q2154.49 160.773 2157.16 160.773 L2161.53 160.773 L2161.53 164.338 L2157.16 164.338 Q2152.23 164.338 2150.35 162.509 Q2148.48 160.657 2148.48 155.796 L2148.48 141.722 L2145.35 141.722 L2145.35 138.412 L2148.48 138.412 L2148.48 131.051 L2152.76 131.051 Z" fill="#000000" fill-rule="nonzero" fill-opacity="1" /><path clip-path="url(#clip920)" d="M2182.16 142.393 Q2181.44 141.977 2180.58 141.791 Q2179.75 141.583 2178.73 141.583 Q2175.12 141.583 2173.17 143.944 Q2171.25 146.282 2171.25 150.68 L2171.25 164.338 L2166.97 164.338 L2166.97 138.412 L2171.25 138.412 L2171.25 142.44 Q2172.6 140.078 2174.75 138.944 Q2176.9 137.787 2179.98 137.787 Q2180.42 137.787 2180.95 137.856 Q2181.48 137.903 2182.13 138.018 L2182.16 142.393 Z" fill="#000000" fill-rule="nonzero" fill-opacity="1" /><path clip-path="url(#clip920)" d="M2186.18 154.106 L2186.18 138.412 L2190.44 138.412 L2190.44 153.944 Q2190.44 157.625 2191.88 159.476 Q2193.31 161.305 2196.18 161.305 Q2199.63 161.305 2201.62 159.106 Q2203.64 156.907 2203.64 153.111 L2203.64 138.412 L2207.9 138.412 L2207.9 164.338 L2203.64 164.338 L2203.64 160.356 Q2202.09 162.717 2200.03 163.875 Q2197.99 165.009 2195.28 165.009 Q2190.81 165.009 2188.5 162.231 Q2186.18 159.453 2186.18 154.106 M2196.9 137.787 L2196.9 137.787 Z" fill="#000000" fill-rule="nonzero" fill-opacity="1" /><path clip-path="url(#clip920)" d="M2220.88 131.051 L2220.88 138.412 L2229.66 138.412 L2229.66 141.722 L2220.88 141.722 L2220.88 155.796 Q2220.88 158.967 2221.74 159.87 Q2222.62 160.773 2225.28 160.773 L2229.66 160.773 L2229.66 164.338 L2225.28 164.338 Q2220.35 164.338 2218.48 162.509 Q2216.6 160.657 2216.6 155.796 L2216.6 141.722 L2213.48 141.722 L2213.48 138.412 L2216.6 138.412 L2216.6 131.051 L2220.88 131.051 Z" fill="#000000" fill-rule="nonzero" fill-opacity="1" /><path clip-path="url(#clip920)" d="M2256.81 148.689 L2256.81 164.338 L2252.55 164.338 L2252.55 148.828 Q2252.55 145.148 2251.11 143.319 Q2249.68 141.49 2246.81 141.49 Q2243.36 141.49 2241.37 143.69 Q2239.38 145.889 2239.38 149.685 L2239.38 164.338 L2235.1 164.338 L2235.1 128.319 L2239.38 128.319 L2239.38 142.44 Q2240.91 140.102 2242.97 138.944 Q2245.05 137.787 2247.76 137.787 Q2252.23 137.787 2254.52 140.565 Q2256.81 143.319 2256.81 148.689 Z" fill="#000000" fill-rule="nonzero" fill-opacity="1" /><circle clip-path="url(#clip920)" cx="2049.4" cy="198.898" r="20.48" fill="#e26f46" fill-rule="evenodd" fill-opacity="1" stroke="#000000" stroke-opacity="1" stroke-width="4.55111"/>
<path clip-path="url(#clip920)" d="M2164.26 194.187 L2164.26 180.159 L2168.52 180.159 L2168.52 216.178 L2164.26 216.178 L2164.26 212.289 Q2162.92 214.603 2160.86 215.738 Q2158.82 216.849 2155.95 216.849 Q2151.25 216.849 2148.29 213.099 Q2145.35 209.349 2145.35 203.238 Q2145.35 197.127 2148.29 193.377 Q2151.25 189.627 2155.95 189.627 Q2158.82 189.627 2160.86 190.761 Q2162.92 191.872 2164.26 194.187 M2149.75 203.238 Q2149.75 207.937 2151.67 210.622 Q2153.61 213.284 2156.99 213.284 Q2160.37 213.284 2162.32 210.622 Q2164.26 207.937 2164.26 203.238 Q2164.26 198.539 2162.32 195.877 Q2160.37 193.192 2156.99 193.192 Q2153.61 193.192 2151.67 195.877 Q2149.75 198.539 2149.75 203.238 Z" fill="#000000" fill-rule="nonzero" fill-opacity="1" /><path clip-path="url(#clip920)" d="M2189.08 203.145 Q2183.92 203.145 2181.92 204.326 Q2179.93 205.506 2179.93 208.354 Q2179.93 210.622 2181.42 211.965 Q2182.92 213.284 2185.49 213.284 Q2189.03 213.284 2191.16 210.784 Q2193.31 208.261 2193.31 204.094 L2193.31 203.145 L2189.08 203.145 M2197.57 201.386 L2197.57 216.178 L2193.31 216.178 L2193.31 212.242 Q2191.85 214.603 2189.68 215.738 Q2187.5 216.849 2184.36 216.849 Q2180.37 216.849 2178.01 214.627 Q2175.67 212.381 2175.67 208.631 Q2175.67 204.256 2178.59 202.034 Q2181.53 199.812 2187.34 199.812 L2193.31 199.812 L2193.31 199.395 Q2193.31 196.455 2191.37 194.858 Q2189.45 193.238 2185.95 193.238 Q2183.73 193.238 2181.62 193.77 Q2179.52 194.303 2177.57 195.367 L2177.57 191.432 Q2179.91 190.53 2182.11 190.09 Q2184.31 189.627 2186.39 189.627 Q2192.02 189.627 2194.79 192.543 Q2197.57 195.46 2197.57 201.386 Z" fill="#000000" fill-rule="nonzero" fill-opacity="1" /><path clip-path="url(#clip920)" d="M2210.56 182.891 L2210.56 190.252 L2219.33 190.252 L2219.33 193.562 L2210.56 193.562 L2210.56 207.636 Q2210.56 210.807 2211.42 211.71 Q2212.29 212.613 2214.96 212.613 L2219.33 212.613 L2219.33 216.178 L2214.96 216.178 Q2210.03 216.178 2208.15 214.349 Q2206.28 212.497 2206.28 207.636 L2206.28 193.562 L2203.15 193.562 L2203.15 190.252 L2206.28 190.252 L2206.28 182.891 L2210.56 182.891 Z" fill="#000000" fill-rule="nonzero" fill-opacity="1" /><path clip-path="url(#clip920)" d="M2236.72 203.145 Q2231.55 203.145 2229.56 204.326 Q2227.57 205.506 2227.57 208.354 Q2227.57 210.622 2229.05 211.965 Q2230.56 213.284 2233.13 213.284 Q2236.67 213.284 2238.8 210.784 Q2240.95 208.261 2240.95 204.094 L2240.95 203.145 L2236.72 203.145 M2245.21 201.386 L2245.21 216.178 L2240.95 216.178 L2240.95 212.242 Q2239.49 214.603 2237.32 215.738 Q2235.14 216.849 2231.99 216.849 Q2228.01 216.849 2225.65 214.627 Q2223.31 212.381 2223.31 208.631 Q2223.31 204.256 2226.23 202.034 Q2229.17 199.812 2234.98 199.812 L2240.95 199.812 L2240.95 199.395 Q2240.95 196.455 2239.01 194.858 Q2237.09 193.238 2233.59 193.238 Q2231.37 193.238 2229.26 193.77 Q2227.16 194.303 2225.21 195.367 L2225.21 191.432 Q2227.55 190.53 2229.75 190.09 Q2231.95 189.627 2234.03 189.627 Q2239.66 189.627 2242.43 192.543 Q2245.21 195.46 2245.21 201.386 Z" fill="#000000" fill-rule="nonzero" fill-opacity="1" /><polyline clip-path="url(#clip920)" style="stroke:#3da44d; stroke-linecap:round; stroke-linejoin:round; stroke-width:8; stroke-opacity:1; fill:none" points="1977.44,250.738 2121.36,250.738 "/>
<path clip-path="url(#clip920)" d="M2170.91 263.087 L2170.91 253.805 L2163.27 253.805 L2163.27 249.962 L2175.54 249.962 L2175.54 264.8 Q2172.83 266.721 2169.56 267.717 Q2166.3 268.689 2162.6 268.689 Q2154.49 268.689 2149.91 263.967 Q2145.35 259.221 2145.35 250.772 Q2145.35 242.3 2149.91 237.578 Q2154.49 232.833 2162.6 232.833 Q2165.98 232.833 2169.01 233.666 Q2172.06 234.499 2174.63 236.12 L2174.63 241.096 Q2172.04 238.897 2169.12 237.786 Q2166.21 236.675 2162.99 236.675 Q2156.65 236.675 2153.45 240.217 Q2150.28 243.758 2150.28 250.772 Q2150.28 257.763 2153.45 261.305 Q2156.65 264.846 2162.99 264.846 Q2165.47 264.846 2167.41 264.43 Q2169.36 263.99 2170.91 263.087 Z" fill="#000000" fill-rule="nonzero" fill-opacity="1" /><path clip-path="url(#clip920)" d="M2188.75 237.3 L2188.75 250.286 L2194.63 250.286 Q2197.9 250.286 2199.68 248.596 Q2201.46 246.907 2201.46 243.782 Q2201.46 240.68 2199.68 238.99 Q2197.9 237.3 2194.63 237.3 L2188.75 237.3 M2184.08 233.458 L2194.63 233.458 Q2200.44 233.458 2203.41 236.096 Q2206.39 238.712 2206.39 243.782 Q2206.39 248.897 2203.41 251.513 Q2200.44 254.129 2194.63 254.129 L2188.75 254.129 L2188.75 268.018 L2184.08 268.018 L2184.08 233.458 Z" fill="#000000" fill-rule="nonzero" fill-opacity="1" /><polyline clip-path="url(#clip920)" style="stroke:#c271d2; stroke-linecap:round; stroke-linejoin:round; stroke-width:12; stroke-opacity:1; fill:none" points="1977.44,302.578 2121.36,302.578 "/>
<path clip-path="url(#clip920)" d="M2150.03 289.14 L2150.03 302.126 L2155.91 302.126 Q2159.17 302.126 2160.95 300.436 Q2162.73 298.747 2162.73 295.622 Q2162.73 292.52 2160.95 290.83 Q2159.17 289.14 2155.91 289.14 L2150.03 289.14 M2145.35 285.298 L2155.91 285.298 Q2161.72 285.298 2164.68 287.936 Q2167.67 290.552 2167.67 295.622 Q2167.67 300.737 2164.68 303.353 Q2161.72 305.969 2155.91 305.969 L2150.03 305.969 L2150.03 319.858 L2145.35 319.858 L2145.35 285.298 Z" fill="#000000" fill-rule="nonzero" fill-opacity="1" /><path clip-path="url(#clip920)" d="M2178.38 315.922 L2194.7 315.922 L2194.7 319.858 L2172.76 319.858 L2172.76 315.922 Q2175.42 313.168 2180 308.538 Q2184.61 303.885 2185.79 302.543 Q2188.04 300.02 2188.92 298.284 Q2189.82 296.524 2189.82 294.835 Q2189.82 292.08 2187.87 290.344 Q2185.95 288.608 2182.85 288.608 Q2180.65 288.608 2178.2 289.372 Q2175.77 290.135 2172.99 291.686 L2172.99 286.964 Q2175.81 285.83 2178.27 285.251 Q2180.72 284.673 2182.76 284.673 Q2188.13 284.673 2191.32 287.358 Q2194.52 290.043 2194.52 294.534 Q2194.52 296.663 2193.71 298.585 Q2192.92 300.483 2190.81 303.075 Q2190.23 303.747 2187.13 306.964 Q2184.03 310.159 2178.38 315.922 Z" fill="#000000" fill-rule="nonzero" fill-opacity="1" /><path clip-path="url(#clip920)" d="M2204.56 285.298 L2222.92 285.298 L2222.92 289.233 L2208.85 289.233 L2208.85 297.705 Q2209.86 297.358 2210.88 297.196 Q2211.9 297.01 2212.92 297.01 Q2218.71 297.01 2222.09 300.182 Q2225.47 303.353 2225.47 308.77 Q2225.47 314.348 2221.99 317.45 Q2218.52 320.529 2212.2 320.529 Q2210.03 320.529 2207.76 320.158 Q2205.51 319.788 2203.1 319.047 L2203.1 314.348 Q2205.19 315.483 2207.41 316.038 Q2209.63 316.594 2212.11 316.594 Q2216.11 316.594 2218.45 314.487 Q2220.79 312.381 2220.79 308.77 Q2220.79 305.159 2218.45 303.052 Q2216.11 300.946 2212.11 300.946 Q2210.23 300.946 2208.36 301.362 Q2206.51 301.779 2204.56 302.659 L2204.56 285.298 Z" fill="#000000" fill-rule="nonzero" fill-opacity="1" /><polyline clip-path="url(#clip920)" style="stroke:#ac8d18; stroke-linecap:round; stroke-linejoin:round; stroke-width:12; stroke-opacity:1; fill:none" points="1977.44,354.418 2121.36,354.418 "/>
<path clip-path="url(#clip920)" d="M2150.03 340.98 L2150.03 353.966 L2155.91 353.966 Q2159.17 353.966 2160.95 352.276 Q2162.73 350.587 2162.73 347.462 Q2162.73 344.36 2160.95 342.67 Q2159.17 340.98 2155.91 340.98 L2150.03 340.98 M2145.35 337.138 L2155.91 337.138 Q2161.72 337.138 2164.68 339.776 Q2167.67 342.392 2167.67 347.462 Q2167.67 352.577 2164.68 355.193 Q2161.72 357.809 2155.91 357.809 L2150.03 357.809 L2150.03 371.698 L2145.35 371.698 L2145.35 337.138 Z" fill="#000000" fill-rule="nonzero" fill-opacity="1" /><path clip-path="url(#clip920)" d="M2173.17 337.138 L2195.4 337.138 L2195.4 339.128 L2182.85 371.698 L2177.97 371.698 L2189.77 341.073 L2173.17 341.073 L2173.17 337.138 Z" fill="#000000" fill-rule="nonzero" fill-opacity="1" /><path clip-path="url(#clip920)" d="M2204.56 337.138 L2222.92 337.138 L2222.92 341.073 L2208.85 341.073 L2208.85 349.545 Q2209.86 349.198 2210.88 349.036 Q2211.9 348.85 2212.92 348.85 Q2218.71 348.85 2222.09 352.022 Q2225.47 355.193 2225.47 360.61 Q2225.47 366.188 2221.99 369.29 Q2218.52 372.369 2212.2 372.369 Q2210.03 372.369 2207.76 371.998 Q2205.51 371.628 2203.1 370.887 L2203.1 366.188 Q2205.19 367.323 2207.41 367.878 Q2209.63 368.434 2212.11 368.434 Q2216.11 368.434 2218.45 366.327 Q2220.79 364.221 2220.79 360.61 Q2220.79 356.999 2218.45 354.892 Q2216.11 352.786 2212.11 352.786 Q2210.23 352.786 2208.36 353.202 Q2206.51 353.619 2204.56 354.499 L2204.56 337.138 Z" fill="#000000" fill-rule="nonzero" fill-opacity="1" /></svg>
