<?xml version="1.0" encoding="utf-8"?>
<svg xmlns="http://www.w3.org/2000/svg" xmlns:xlink="http://www.w3.org/1999/xlink" width="600" height="400" viewBox="0 0 2400 1600">
<defs>
  <clipPath id="clip890">
    <rect x="0" y="0" width="2400" height="1600"/>
  </clipPath>
</defs>
<path clip-path="url(#clip890)" d="M0 1600 L2400 1600 L2400 0 L0 0  Z" fill="#ffffff" fill-rule="evenodd" fill-opacity="1"/>
<defs>
  <clipPath id="clip891">
    <rect x="193" y="47" width="2160" height="1440"/>
  </clipPath>
</defs>
<path clip-path="url(#clip890)" d="M193.936 1486.45 L2352.76 1486.45 L2352.76 47.2441 L193.936 47.2441  Z" fill="#ffffff" fill-rule="evenodd" fill-opacity="1"/>
<polyline clip-path="url(#clip891)" style="stroke:#000000; stroke-linecap:round; stroke-linejoin:round; stroke-width:2; stroke-opacity:0.1; fill:none" points="255.035,1486.45 255.035,47.2441 "/>
<polyline clip-path="url(#clip891)" style="stroke:#000000; stroke-linecap:round; stroke-linejoin:round; stroke-width:2; stroke-opacity:0.1; fill:none" points="579.338,1486.45 579.338,47.2441 "/>
<polyline clip-path="url(#clip891)" style="stroke:#000000; stroke-linecap:round; stroke-linejoin:round; stroke-width:2; stroke-opacity:0.1; fill:none" points="903.641,1486.45 903.641,47.2441 "/>
<polyline clip-path="url(#clip891)" style="stroke:#000000; stroke-linecap:round; stroke-linejoin:round; stroke-width:2; stroke-opacity:0.1; fill:none" points="1227.94,1486.45 1227.94,47.2441 "/>
<polyline clip-path="url(#clip891)" style="stroke:#000000; stroke-linecap:round; stroke-linejoin:round; stroke-width:2; stroke-opacity:0.1; fill:none" points="1552.25,1486.45 1552.25,47.2441 "/>
<polyline clip-path="url(#clip891)" style="stroke:#000000; stroke-linecap:round; stroke-linejoin:round; stroke-width:2; stroke-opacity:0.1; fill:none" points="1876.55,1486.45 1876.55,47.2441 "/>
<polyline clip-path="url(#clip891)" style="stroke:#000000; stroke-linecap:round; stroke-linejoin:round; stroke-width:2; stroke-opacity:0.1; fill:none" points="2200.85,1486.45 2200.85,47.2441 "/>
<polyline clip-path="url(#clip891)" style="stroke:#000000; stroke-linecap:round; stroke-linejoin:round; stroke-width:2; stroke-opacity:0.1; fill:none" points="193.936,1256.59 2352.76,1256.59 "/>
<polyline clip-path="url(#clip891)" style="stroke:#000000; stroke-linecap:round; stroke-linejoin:round; stroke-width:2; stroke-opacity:0.1; fill:none" points="193.936,1000.79 2352.76,1000.79 "/>
<polyline clip-path="url(#clip891)" style="stroke:#000000; stroke-linecap:round; stroke-linejoin:round; stroke-width:2; stroke-opacity:0.1; fill:none" points="193.936,744.996 2352.76,744.996 "/>
<polyline clip-path="url(#clip891)" style="stroke:#000000; stroke-linecap:round; stroke-linejoin:round; stroke-width:2; stroke-opacity:0.1; fill:none" points="193.936,489.199 2352.76,489.199 "/>
<polyline clip-path="url(#clip891)" style="stroke:#000000; stroke-linecap:round; stroke-linejoin:round; stroke-width:2; stroke-opacity:0.1; fill:none" points="193.936,233.402 2352.76,233.402 "/>
<polyline clip-path="url(#clip890)" style="stroke:#000000; stroke-linecap:round; stroke-linejoin:round; stroke-width:4; stroke-opacity:1; fill:none" points="193.936,1486.45 2352.76,1486.45 "/>
<polyline clip-path="url(#clip890)" style="stroke:#000000; stroke-linecap:round; stroke-linejoin:round; stroke-width:4; stroke-opacity:1; fill:none" points="255.035,1486.45 255.035,1467.55 "/>
<polyline clip-path="url(#clip890)" style="stroke:#000000; stroke-linecap:round; stroke-linejoin:round; stroke-width:4; stroke-opacity:1; fill:none" points="579.338,1486.45 579.338,1467.55 "/>
<polyline clip-path="url(#clip890)" style="stroke:#000000; stroke-linecap:round; stroke-linejoin:round; stroke-width:4; stroke-opacity:1; fill:none" points="903.641,1486.45 903.641,1467.55 "/>
<polyline clip-path="url(#clip890)" style="stroke:#000000; stroke-linecap:round; stroke-linejoin:round; stroke-width:4; stroke-opacity:1; fill:none" points="1227.94,1486.45 1227.94,1467.55 "/>
<polyline clip-path="url(#clip890)" style="stroke:#000000; stroke-linecap:round; stroke-linejoin:round; stroke-width:4; stroke-opacity:1; fill:none" points="1552.25,1486.45 1552.25,1467.55 "/>
<polyline clip-path="url(#clip890)" style="stroke:#000000; stroke-linecap:round; stroke-linejoin:round; stroke-width:4; stroke-opacity:1; fill:none" points="1876.55,1486.45 1876.55,1467.55 "/>
<polyline clip-path="url(#clip890)" style="stroke:#000000; stroke-linecap:round; stroke-linejoin:round; stroke-width:4; stroke-opacity:1; fill:none" points="2200.85,1486.45 2200.85,1467.55 "/>
<path clip-path="url(#clip890)" d="M255.035 1517.37 Q251.424 1517.37 249.595 1520.93 Q247.789 1524.47 247.789 1531.6 Q247.789 1538.71 249.595 1542.27 Q251.424 1545.82 255.035 1545.82 Q258.669 1545.82 260.474 1542.27 Q262.303 1538.71 262.303 1531.6 Q262.303 1524.47 260.474 1520.93 Q258.669 1517.37 255.035 1517.37 M255.035 1513.66 Q260.845 1513.66 263.9 1518.27 Q266.979 1522.85 266.979 1531.6 Q266.979 1540.33 263.9 1544.94 Q260.845 1549.52 255.035 1549.52 Q249.225 1549.52 246.146 1544.94 Q243.09 1540.33 243.09 1531.6 Q243.09 1522.85 246.146 1518.27 Q249.225 1513.66 255.035 1513.66 Z" fill="#000000" fill-rule="nonzero" fill-opacity="1" /><path clip-path="url(#clip890)" d="M569.72 1544.91 L577.358 1544.91 L577.358 1518.55 L569.048 1520.21 L569.048 1515.95 L577.312 1514.29 L581.988 1514.29 L581.988 1544.91 L589.627 1544.91 L589.627 1548.85 L569.72 1548.85 L569.72 1544.91 Z" fill="#000000" fill-rule="nonzero" fill-opacity="1" /><path clip-path="url(#clip890)" d="M898.293 1544.91 L914.613 1544.91 L914.613 1548.85 L892.668 1548.85 L892.668 1544.91 Q895.33 1542.16 899.914 1537.53 Q904.52 1532.88 905.701 1531.53 Q907.946 1529.01 908.826 1527.27 Q909.729 1525.51 909.729 1523.82 Q909.729 1521.07 907.784 1519.33 Q905.863 1517.6 902.761 1517.6 Q900.562 1517.6 898.108 1518.36 Q895.678 1519.13 892.9 1520.68 L892.9 1515.95 Q895.724 1514.82 898.178 1514.24 Q900.631 1513.66 902.668 1513.66 Q908.039 1513.66 911.233 1516.35 Q914.428 1519.03 914.428 1523.52 Q914.428 1525.65 913.617 1527.57 Q912.83 1529.47 910.724 1532.07 Q910.145 1532.74 907.043 1535.95 Q903.942 1539.15 898.293 1544.91 Z" fill="#000000" fill-rule="nonzero" fill-opacity="1" /><path clip-path="url(#clip890)" d="M1232.19 1530.21 Q1235.55 1530.93 1237.42 1533.2 Q1239.32 1535.47 1239.32 1538.8 Q1239.32 1543.92 1235.8 1546.72 Q1232.28 1549.52 1225.8 1549.52 Q1223.63 1549.52 1221.31 1549.08 Q1219.02 1548.66 1216.57 1547.81 L1216.57 1543.29 Q1218.51 1544.43 1220.83 1545.01 Q1223.14 1545.58 1225.66 1545.58 Q1230.06 1545.58 1232.35 1543.85 Q1234.67 1542.11 1234.67 1538.8 Q1234.67 1535.75 1232.52 1534.03 Q1230.39 1532.3 1226.57 1532.3 L1222.54 1532.3 L1222.54 1528.45 L1226.75 1528.45 Q1230.2 1528.45 1232.03 1527.09 Q1233.86 1525.7 1233.86 1523.11 Q1233.86 1520.45 1231.96 1519.03 Q1230.08 1517.6 1226.57 1517.6 Q1224.64 1517.6 1222.45 1518.01 Q1220.25 1518.43 1217.61 1519.31 L1217.61 1515.14 Q1220.27 1514.4 1222.58 1514.03 Q1224.92 1513.66 1226.98 1513.66 Q1232.31 1513.66 1235.41 1516.09 Q1238.51 1518.5 1238.51 1522.62 Q1238.51 1525.49 1236.87 1527.48 Q1235.22 1529.45 1232.19 1530.21 Z" fill="#000000" fill-rule="nonzero" fill-opacity="1" /><path clip-path="url(#clip890)" d="M1555.26 1518.36 L1543.45 1536.81 L1555.26 1536.81 L1555.26 1518.36 M1554.03 1514.29 L1559.91 1514.29 L1559.91 1536.81 L1564.84 1536.81 L1564.84 1540.7 L1559.91 1540.7 L1559.91 1548.85 L1555.26 1548.85 L1555.26 1540.7 L1539.65 1540.7 L1539.65 1536.19 L1554.03 1514.29 Z" fill="#000000" fill-rule="nonzero" fill-opacity="1" /><path clip-path="url(#clip890)" d="M1866.83 1514.29 L1885.18 1514.29 L1885.18 1518.22 L1871.11 1518.22 L1871.11 1526.7 Q1872.13 1526.35 1873.15 1526.19 Q1874.17 1526 1875.18 1526 Q1880.97 1526 1884.35 1529.17 Q1887.73 1532.34 1887.73 1537.76 Q1887.73 1543.34 1884.26 1546.44 Q1880.79 1549.52 1874.47 1549.52 Q1872.29 1549.52 1870.02 1549.15 Q1867.78 1548.78 1865.37 1548.04 L1865.37 1543.34 Q1867.45 1544.47 1869.67 1545.03 Q1871.9 1545.58 1874.37 1545.58 Q1878.38 1545.58 1880.72 1543.48 Q1883.05 1541.37 1883.05 1537.76 Q1883.05 1534.15 1880.72 1532.04 Q1878.38 1529.94 1874.37 1529.94 Q1872.5 1529.94 1870.62 1530.35 Q1868.77 1530.77 1866.83 1531.65 L1866.83 1514.29 Z" fill="#000000" fill-rule="nonzero" fill-opacity="1" /><path clip-path="url(#clip890)" d="M2201.26 1529.7 Q2198.11 1529.7 2196.26 1531.86 Q2194.43 1534.01 2194.43 1537.76 Q2194.43 1541.49 2196.26 1543.66 Q2198.11 1545.82 2201.26 1545.82 Q2204.41 1545.82 2206.23 1543.66 Q2208.09 1541.49 2208.09 1537.76 Q2208.09 1534.01 2206.23 1531.86 Q2204.41 1529.7 2201.26 1529.7 M2210.54 1515.05 L2210.54 1519.31 Q2208.78 1518.48 2206.98 1518.04 Q2205.19 1517.6 2203.43 1517.6 Q2198.8 1517.6 2196.35 1520.72 Q2193.92 1523.85 2193.57 1530.17 Q2194.94 1528.15 2197 1527.09 Q2199.06 1526 2201.54 1526 Q2206.74 1526 2209.75 1529.17 Q2212.79 1532.32 2212.79 1537.76 Q2212.79 1543.08 2209.64 1546.3 Q2206.49 1549.52 2201.26 1549.52 Q2195.26 1549.52 2192.09 1544.94 Q2188.92 1540.33 2188.92 1531.6 Q2188.92 1523.41 2192.81 1518.55 Q2196.7 1513.66 2203.25 1513.66 Q2205.01 1513.66 2206.79 1514.01 Q2208.6 1514.36 2210.54 1515.05 Z" fill="#000000" fill-rule="nonzero" fill-opacity="1" /><polyline clip-path="url(#clip890)" style="stroke:#000000; stroke-linecap:round; stroke-linejoin:round; stroke-width:4; stroke-opacity:1; fill:none" points="193.936,1486.45 193.936,47.2441 "/>
<polyline clip-path="url(#clip890)" style="stroke:#000000; stroke-linecap:round; stroke-linejoin:round; stroke-width:4; stroke-opacity:1; fill:none" points="193.936,1256.59 212.834,1256.59 "/>
<polyline clip-path="url(#clip890)" style="stroke:#000000; stroke-linecap:round; stroke-linejoin:round; stroke-width:4; stroke-opacity:1; fill:none" points="193.936,1000.79 212.834,1000.79 "/>
<polyline clip-path="url(#clip890)" style="stroke:#000000; stroke-linecap:round; stroke-linejoin:round; stroke-width:4; stroke-opacity:1; fill:none" points="193.936,744.996 212.834,744.996 "/>
<polyline clip-path="url(#clip890)" style="stroke:#000000; stroke-linecap:round; stroke-linejoin:round; stroke-width:4; stroke-opacity:1; fill:none" points="193.936,489.199 212.834,489.199 "/>
<polyline clip-path="url(#clip890)" style="stroke:#000000; stroke-linecap:round; stroke-linejoin:round; stroke-width:4; stroke-opacity:1; fill:none" points="193.936,233.402 212.834,233.402 "/>
<path clip-path="url(#clip890)" d="M50.9921 1257.04 L80.6679 1257.04 L80.6679 1260.98 L50.9921 1260.98 L50.9921 1257.04 Z" fill="#000000" fill-rule="nonzero" fill-opacity="1" /><path clip-path="url(#clip890)" d="M91.5706 1269.93 L99.2095 1269.93 L99.2095 1243.57 L90.8993 1245.24 L90.8993 1240.98 L99.1632 1239.31 L103.839 1239.31 L103.839 1269.93 L111.478 1269.93 L111.478 1273.87 L91.5706 1273.87 L91.5706 1269.93 Z" fill="#000000" fill-rule="nonzero" fill-opacity="1" /><path clip-path="url(#clip890)" d="M120.922 1267.99 L125.807 1267.99 L125.807 1273.87 L120.922 1273.87 L120.922 1267.99 Z" fill="#000000" fill-rule="nonzero" fill-opacity="1" /><path clip-path="url(#clip890)" d="M145.992 1242.39 Q142.381 1242.39 140.552 1245.95 Q138.746 1249.49 138.746 1256.62 Q138.746 1263.73 140.552 1267.3 Q142.381 1270.84 145.992 1270.84 Q149.626 1270.84 151.431 1267.3 Q153.26 1263.73 153.26 1256.62 Q153.26 1249.49 151.431 1245.95 Q149.626 1242.39 145.992 1242.39 M145.992 1238.68 Q151.802 1238.68 154.857 1243.29 Q157.936 1247.87 157.936 1256.62 Q157.936 1265.35 154.857 1269.96 Q151.802 1274.54 145.992 1274.54 Q140.181 1274.54 137.103 1269.96 Q134.047 1265.35 134.047 1256.62 Q134.047 1247.87 137.103 1243.29 Q140.181 1238.68 145.992 1238.68 Z" fill="#000000" fill-rule="nonzero" fill-opacity="1" /><path clip-path="url(#clip890)" d="M51.9875 1001.24 L81.6633 1001.24 L81.6633 1005.18 L51.9875 1005.18 L51.9875 1001.24 Z" fill="#000000" fill-rule="nonzero" fill-opacity="1" /><path clip-path="url(#clip890)" d="M101.756 986.591 Q98.1447 986.591 96.316 990.156 Q94.5104 993.698 94.5104 1000.83 Q94.5104 1007.93 96.316 1011.5 Q98.1447 1015.04 101.756 1015.04 Q105.39 1015.04 107.196 1011.5 Q109.024 1007.93 109.024 1000.83 Q109.024 993.698 107.196 990.156 Q105.39 986.591 101.756 986.591 M101.756 982.888 Q107.566 982.888 110.621 987.494 Q113.7 992.077 113.7 1000.83 Q113.7 1009.55 110.621 1014.16 Q107.566 1018.74 101.756 1018.74 Q95.9456 1018.74 92.8669 1014.16 Q89.8114 1009.55 89.8114 1000.83 Q89.8114 992.077 92.8669 987.494 Q95.9456 982.888 101.756 982.888 Z" fill="#000000" fill-rule="nonzero" fill-opacity="1" /><path clip-path="url(#clip890)" d="M121.918 1012.19 L126.802 1012.19 L126.802 1018.07 L121.918 1018.07 L121.918 1012.19 Z" fill="#000000" fill-rule="nonzero" fill-opacity="1" /><path clip-path="url(#clip890)" d="M137.033 983.513 L155.39 983.513 L155.39 987.448 L141.316 987.448 L141.316 995.92 Q142.334 995.573 143.353 995.411 Q144.371 995.226 145.39 995.226 Q151.177 995.226 154.556 998.397 Q157.936 1001.57 157.936 1006.98 Q157.936 1012.56 154.464 1015.67 Q150.992 1018.74 144.672 1018.74 Q142.496 1018.74 140.228 1018.37 Q137.982 1018 135.575 1017.26 L135.575 1012.56 Q137.658 1013.7 139.881 1014.25 Q142.103 1014.81 144.58 1014.81 Q148.584 1014.81 150.922 1012.7 Q153.26 1010.6 153.26 1006.98 Q153.26 1003.37 150.922 1001.27 Q148.584 999.161 144.58 999.161 Q142.705 999.161 140.83 999.577 Q138.978 999.994 137.033 1000.87 L137.033 983.513 Z" fill="#000000" fill-rule="nonzero" fill-opacity="1" /><path clip-path="url(#clip890)" d="M100.76 730.794 Q97.1493 730.794 95.3206 734.359 Q93.515 737.901 93.515 745.03 Q93.515 752.137 95.3206 755.702 Q97.1493 759.243 100.76 759.243 Q104.395 759.243 106.2 755.702 Q108.029 752.137 108.029 745.03 Q108.029 737.901 106.2 734.359 Q104.395 730.794 100.76 730.794 M100.76 727.091 Q106.571 727.091 109.626 731.697 Q112.705 736.28 112.705 745.03 Q112.705 753.757 109.626 758.364 Q106.571 762.947 100.76 762.947 Q94.9502 762.947 91.8715 758.364 Q88.816 753.757 88.816 745.03 Q88.816 736.28 91.8715 731.697 Q94.9502 727.091 100.76 727.091 Z" fill="#000000" fill-rule="nonzero" fill-opacity="1" /><path clip-path="url(#clip890)" d="M120.922 756.396 L125.807 756.396 L125.807 762.276 L120.922 762.276 L120.922 756.396 Z" fill="#000000" fill-rule="nonzero" fill-opacity="1" /><path clip-path="url(#clip890)" d="M145.992 730.794 Q142.381 730.794 140.552 734.359 Q138.746 737.901 138.746 745.03 Q138.746 752.137 140.552 755.702 Q142.381 759.243 145.992 759.243 Q149.626 759.243 151.431 755.702 Q153.26 752.137 153.26 745.03 Q153.26 737.901 151.431 734.359 Q149.626 730.794 145.992 730.794 M145.992 727.091 Q151.802 727.091 154.857 731.697 Q157.936 736.28 157.936 745.03 Q157.936 753.757 154.857 758.364 Q151.802 762.947 145.992 762.947 Q140.181 762.947 137.103 758.364 Q134.047 753.757 134.047 745.03 Q134.047 736.28 137.103 731.697 Q140.181 727.091 145.992 727.091 Z" fill="#000000" fill-rule="nonzero" fill-opacity="1" /><path clip-path="url(#clip890)" d="M101.756 474.997 Q98.1447 474.997 96.316 478.562 Q94.5104 482.104 94.5104 489.233 Q94.5104 496.34 96.316 499.905 Q98.1447 503.446 101.756 503.446 Q105.39 503.446 107.196 499.905 Q109.024 496.34 109.024 489.233 Q109.024 482.104 107.196 478.562 Q105.39 474.997 101.756 474.997 M101.756 471.294 Q107.566 471.294 110.621 475.9 Q113.7 480.483 113.7 489.233 Q113.7 497.96 110.621 502.567 Q107.566 507.15 101.756 507.15 Q95.9456 507.15 92.8669 502.567 Q89.8114 497.96 89.8114 489.233 Q89.8114 480.483 92.8669 475.9 Q95.9456 471.294 101.756 471.294 Z" fill="#000000" fill-rule="nonzero" fill-opacity="1" /><path clip-path="url(#clip890)" d="M121.918 500.599 L126.802 500.599 L126.802 506.479 L121.918 506.479 L121.918 500.599 Z" fill="#000000" fill-rule="nonzero" fill-opacity="1" /><path clip-path="url(#clip890)" d="M137.033 471.919 L155.39 471.919 L155.39 475.854 L141.316 475.854 L141.316 484.326 Q142.334 483.979 143.353 483.817 Q144.371 483.632 145.39 483.632 Q151.177 483.632 154.556 486.803 Q157.936 489.974 157.936 495.391 Q157.936 500.969 154.464 504.071 Q150.992 507.15 144.672 507.15 Q142.496 507.15 140.228 506.78 Q137.982 506.409 135.575 505.668 L135.575 500.969 Q137.658 502.104 139.881 502.659 Q142.103 503.215 144.58 503.215 Q148.584 503.215 150.922 501.108 Q153.26 499.002 153.26 495.391 Q153.26 491.78 150.922 489.673 Q148.584 487.567 144.58 487.567 Q142.705 487.567 140.83 487.983 Q138.978 488.4 137.033 489.28 L137.033 471.919 Z" fill="#000000" fill-rule="nonzero" fill-opacity="1" /><path clip-path="url(#clip890)" d="M91.5706 246.746 L99.2095 246.746 L99.2095 220.381 L90.8993 222.048 L90.8993 217.788 L99.1632 216.122 L103.839 216.122 L103.839 246.746 L111.478 246.746 L111.478 250.682 L91.5706 250.682 L91.5706 246.746 Z" fill="#000000" fill-rule="nonzero" fill-opacity="1" /><path clip-path="url(#clip890)" d="M120.922 244.802 L125.807 244.802 L125.807 250.682 L120.922 250.682 L120.922 244.802 Z" fill="#000000" fill-rule="nonzero" fill-opacity="1" /><path clip-path="url(#clip890)" d="M145.992 219.2 Q142.381 219.2 140.552 222.765 Q138.746 226.307 138.746 233.436 Q138.746 240.543 140.552 244.108 Q142.381 247.649 145.992 247.649 Q149.626 247.649 151.431 244.108 Q153.26 240.543 153.26 233.436 Q153.26 226.307 151.431 222.765 Q149.626 219.2 145.992 219.2 M145.992 215.497 Q151.802 215.497 154.857 220.103 Q157.936 224.686 157.936 233.436 Q157.936 242.163 154.857 246.77 Q151.802 251.353 145.992 251.353 Q140.181 251.353 137.103 246.77 Q134.047 242.163 134.047 233.436 Q134.047 224.686 137.103 220.103 Q140.181 215.497 145.992 215.497 Z" fill="#000000" fill-rule="nonzero" fill-opacity="1" /><polyline clip-path="url(#clip891)" style="stroke:#009af9; stroke-linecap:round; stroke-linejoin:round; stroke-width:4; stroke-opacity:1; fill:none" points="255.035,744.996 258.278,739.88 261.521,734.764 264.764,729.65 268.007,724.537 271.25,719.427 274.493,714.318 277.736,709.213 280.979,704.112 284.222,699.014 287.465,693.921 290.708,688.834 293.951,683.752 297.194,678.676 300.437,673.606 303.68,668.544 306.923,663.489 310.166,658.443 313.409,653.405 316.652,648.377 319.895,643.358 323.138,638.349 326.381,633.351 329.624,628.364 332.867,623.388 336.11,618.425 339.353,613.475 342.596,608.537 345.84,603.614 349.083,598.704 352.326,593.809 355.569,588.929 358.812,584.065 362.055,579.217 365.298,574.386 368.541,569.571 371.784,564.774 375.027,559.995 378.27,555.235 381.513,550.494 384.756,545.772 387.999,541.07 391.242,536.388 394.485,531.727 397.728,527.088 400.971,522.47 404.214,517.874 407.457,513.302 410.7,508.752 413.943,504.226 417.186,499.724 420.429,495.247 423.672,490.795 426.915,486.368 430.158,481.967 433.401,477.592 436.644,473.244 439.887,468.923 443.13,464.63 446.373,460.365 449.616,456.128 452.859,451.92 456.103,447.742 459.346,443.593 462.589,439.474 465.832,435.386 469.075,431.329 472.318,427.303 475.561,423.309 478.804,419.347 482.047,415.418 485.29,411.521 488.533,407.658 491.776,403.829 495.019,400.034 498.262,396.273 501.505,392.548 504.748,388.857 507.991,385.202 511.234,381.583 514.477,378.001 517.72,374.455 520.963,370.946 524.206,367.474 527.449,364.041 530.692,360.645 533.935,357.288 537.178,353.97 540.421,350.69 543.664,347.45 546.907,344.25 550.15,341.09 553.393,337.971 556.636,334.892 559.879,331.854 563.122,328.857 566.366,325.902 569.609,322.989 572.852,320.118 576.095,317.29 579.338,314.504 582.581,311.762 585.824,309.062 589.067,306.407 592.31,303.795 595.553,301.227 598.796,298.704 602.039,296.225 605.282,293.791 608.525,291.403 611.768,289.059 615.011,286.762 618.254,284.51 621.497,282.304 624.74,280.144 627.983,278.031 631.226,275.965 634.469,273.945 637.712,271.973 640.955,270.048 644.198,268.17 647.441,266.34 650.684,264.558 653.927,262.824 657.17,261.138 660.413,259.501 663.656,257.912 666.899,256.372 670.142,254.88 673.385,253.438 676.629,252.045 679.872,250.701 683.115,249.407 686.358,248.162 689.601,246.967 692.844,245.821 696.087,244.726 699.33,243.681 702.573,242.685 705.816,241.74 709.059,240.845 712.302,240.001 715.545,239.207 718.788,238.464 722.031,237.771 725.274,237.13 728.517,236.539 731.76,235.998 735.003,235.509 738.246,235.071 741.489,234.683 744.732,234.347 747.975,234.061 751.218,233.827 754.461,233.644 757.704,233.512 760.947,233.431 764.19,233.402 767.433,233.423 770.676,233.496 773.919,233.62 777.162,233.795 780.405,234.021 783.648,234.298 786.892,234.626 790.135,235.005 793.378,235.436 796.621,235.917 799.864,236.449 803.107,237.032 806.35,237.666 809.593,238.35 812.836,239.086 816.079,239.871 819.322,240.708 822.565,241.594 825.808,242.531 829.051,243.519 832.294,244.556 835.537,245.644 838.78,246.781 842.023,247.968 845.266,249.205 848.509,250.492 851.752,251.828 854.995,253.213 858.238,254.647 861.481,256.131 864.724,257.663 867.967,259.244 871.21,260.874 874.453,262.552 877.696,264.279 880.939,266.053 884.182,267.875 887.425,269.745 890.668,271.663 893.911,273.628 897.155,275.64 900.398,277.699 903.641,279.805 906.884,281.957 910.127,284.155 913.37,286.4 916.613,288.69 919.856,291.026 923.099,293.408 926.342,295.834 929.585,298.306 932.828,300.822 936.071,303.383 939.314,305.988 942.557,308.636 945.8,311.329 949.043,314.064 952.286,316.843 955.529,319.665 958.772,322.529 962.015,325.435 965.258,328.384 968.501,331.374 971.744,334.405 974.987,337.478 978.23,340.591 981.473,343.744 984.716,346.938 987.959,350.172 991.202,353.445 994.445,356.757 997.688,360.108 1000.93,363.497 1004.17,366.925 1007.42,370.39 1010.66,373.893 1013.9,377.433 1017.15,381.01 1020.39,384.623 1023.63,388.273 1026.88,391.957 1030.12,395.678 1033.36,399.433 1036.6,403.222 1039.85,407.046 1043.09,410.904 1046.33,414.795 1049.58,418.719 1052.82,422.676 1056.06,426.665 1059.31,430.685 1062.55,434.738 1065.79,438.821 1069.04,442.935 1072.28,447.079 1075.52,451.253 1078.76,455.456 1082.01,459.688 1085.25,463.949 1088.49,468.237 1091.74,472.554 1094.98,476.898 1098.22,481.268 1101.47,485.665 1104.71,490.088 1107.95,494.536 1111.19,499.01 1114.44,503.508 1117.68,508.03 1120.92,512.576 1124.17,517.145 1127.41,521.736 1130.65,526.351 1133.9,530.987 1137.14,535.644 1140.38,540.323 1143.62,545.021 1146.87,549.74 1150.11,554.479 1153.35,559.236 1156.6,564.012 1159.84,568.806 1163.08,573.618 1166.33,578.447 1169.57,583.292 1172.81,588.154 1176.06,593.031 1179.3,597.924 1182.54,602.831 1185.78,607.752 1189.03,612.688 1192.27,617.636 1195.51,622.597 1198.76,627.571 1202,632.556 1205.24,637.552 1208.49,642.559 1211.73,647.577 1214.97,652.604 1218.21,657.64 1221.46,662.685 1224.7,667.738 1227.94,672.8 1231.19,677.868 1234.43,682.943 1237.67,688.024 1240.92,693.111 1244.16,698.203 1247.4,703.3 1250.64,708.401 1253.89,713.505 1257.13,718.613 1260.37,723.723 1263.62,728.836 1266.86,733.95 1270.1,739.065 1273.35,744.181 1276.59,749.297 1279.83,754.412 1283.08,759.527 1286.32,764.64 1289.56,769.751 1292.8,774.86 1296.05,779.965 1299.29,785.067 1302.53,790.165 1305.78,795.259 1309.02,800.348 1312.26,805.431 1315.51,810.508 1318.75,815.578 1321.99,820.642 1325.23,825.697 1328.48,830.745 1331.72,835.784 1334.96,840.815 1338.21,845.835 1341.45,850.845 1344.69,855.845 1347.94,860.834 1351.18,865.811 1354.42,870.776 1357.66,875.729 1360.91,880.668 1364.15,885.594 1367.39,890.506 1370.64,895.403 1373.88,900.286 1377.12,905.152 1380.37,910.003 1383.61,914.837 1386.85,919.655 1390.1,924.454 1393.34,929.236 1396.58,933.999 1399.82,938.744 1403.07,943.469 1406.31,948.174 1409.55,952.859 1412.8,957.523 1416.04,962.166 1419.28,966.788 1422.53,971.387 1425.77,975.963 1429.01,980.516 1432.25,985.046 1435.5,989.552 1438.74,994.033 1441.98,998.489 1445.23,1002.92 1448.47,1007.33 1451.71,1011.7 1454.96,1016.06 1458.2,1020.38 1461.44,1024.68 1464.68,1028.95 1467.93,1033.19 1471.17,1037.4 1474.41,1041.59 1477.66,1045.74 1480.9,1049.86 1484.14,1053.96 1487.39,1058.02 1490.63,1062.05 1493.87,1066.05 1497.11,1070.02 1500.36,1073.95 1503.6,1077.85 1506.84,1081.72 1510.09,1085.55 1513.33,1089.36 1516.57,1093.12 1519.82,1096.85 1523.06,1100.55 1526.3,1104.21 1529.55,1107.83 1532.79,1111.42 1536.03,1114.97 1539.27,1118.49 1542.52,1121.97 1545.76,1125.41 1549,1128.81 1552.25,1132.17 1555.49,1135.5 1558.73,1138.78 1561.98,1142.03 1565.22,1145.23 1568.46,1148.4 1571.7,1151.53 1574.95,1154.61 1578.19,1157.66 1581.43,1160.66 1584.68,1163.62 1587.92,1166.54 1591.16,1169.42 1594.41,1172.25 1597.65,1175.05 1600.89,1177.8 1604.13,1180.5 1607.38,1183.16 1610.62,1185.78 1613.86,1188.36 1617.11,1190.89 1620.35,1193.37 1623.59,1195.82 1626.84,1198.21 1630.08,1200.56 1633.32,1202.87 1636.57,1205.13 1639.81,1207.34 1643.05,1209.51 1646.29,1211.63 1649.54,1213.7 1652.78,1215.73 1656.02,1217.71 1659.27,1219.64 1662.51,1221.53 1665.75,1223.36 1669,1225.15 1672.24,1226.89 1675.48,1228.59 1678.72,1230.23 1681.97,1231.83 1685.21,1233.38 1688.45,1234.88 1691.7,1236.33 1694.94,1237.73 1698.18,1239.08 1701.43,1240.38 1704.67,1241.63 1707.91,1242.84 1711.15,1243.99 1714.4,1245.09 1717.64,1246.15 1720.88,1247.15 1724.13,1248.1 1727.37,1249.01 1730.61,1249.86 1733.86,1250.66 1737.1,1251.41 1740.34,1252.11 1743.59,1252.76 1746.83,1253.36 1750.07,1253.91 1753.31,1254.41 1756.56,1254.85 1759.8,1255.25 1763.04,1255.59 1766.29,1255.89 1769.53,1256.13 1772.77,1256.32 1776.02,1256.46 1779.26,1256.55 1782.5,1256.59 1785.74,1256.57 1788.99,1256.51 1792.23,1256.39 1795.47,1256.23 1798.72,1256.01 1801.96,1255.74 1805.2,1255.42 1808.45,1255.05 1811.69,1254.63 1814.93,1254.15 1818.17,1253.63 1821.42,1253.06 1824.66,1252.43 1827.9,1251.75 1831.15,1251.03 1834.39,1250.25 1837.63,1249.42 1840.88,1248.54 1844.12,1247.61 1847.36,1246.63 1850.61,1245.6 1853.85,1244.52 1857.09,1243.39 1860.33,1242.22 1863.58,1240.99 1866.82,1239.71 1870.06,1238.38 1873.31,1237 1876.55,1235.58 1879.79,1234.1 1883.04,1232.58 1886.28,1231 1889.52,1229.38 1892.76,1227.71 1896.01,1225.99 1899.25,1224.22 1902.49,1222.41 1905.74,1220.55 1908.98,1218.64 1912.22,1216.68 1915.47,1214.68 1918.71,1212.62 1921.95,1210.53 1925.19,1208.38 1928.44,1206.19 1931.68,1203.95 1934.92,1201.67 1938.17,1199.34 1941.41,1196.97 1944.65,1194.55 1947.9,1192.08 1951.14,1189.57 1954.38,1187.02 1957.63,1184.42 1960.87,1181.78 1964.11,1179.09 1967.35,1176.37 1970.6,1173.59 1973.84,1170.78 1977.08,1167.92 1980.33,1165.02 1983.57,1162.08 1986.81,1159.1 1990.06,1156.07 1993.3,1153.01 1996.54,1149.9 1999.78,1146.75 2003.03,1143.56 2006.27,1140.34 2009.51,1137.07 2012.76,1133.76 2016,1130.42 2019.24,1127.04 2022.49,1123.61 2025.73,1120.16 2028.97,1116.66 2032.21,1113.12 2035.46,1109.55 2038.7,1105.95 2041.94,1102.3 2045.19,1098.62 2048.43,1094.91 2051.67,1091.16 2054.92,1087.37 2058.16,1083.56 2061.4,1079.7 2064.65,1075.82 2067.89,1071.9 2071.13,1067.95 2074.37,1063.96 2077.62,1059.95 2080.86,1055.9 2084.1,1051.82 2087.35,1047.71 2090.59,1043.57 2093.83,1039.41 2097.08,1035.21 2100.32,1030.98 2103.56,1026.72 2106.8,1022.44 2110.05,1018.13 2113.29,1013.79 2116.53,1009.42 2119.78,1005.03 2123.02,1000.61 2126.26,996.165 2129.51,991.696 2132.75,987.202 2135.99,982.683 2139.23,978.141 2142.48,973.576 2145.72,968.988 2148.96,964.377 2152.21,959.744 2155.45,955.09 2158.69,950.415 2161.94,945.72 2165.18,941.004 2168.42,936.269 2171.67,931.514 2174.91,926.741 2178.15,921.95 2181.39,917.141 2184.64,912.315 2187.88,907.472 2191.12,902.613 2194.37,897.738 2197.61,892.848 2200.85,887.943 2204.1,883.024 2207.34,878.091 2210.58,873.144 2213.82,868.185 2217.07,863.214 2220.31,858.23 2223.55,853.236 2226.8,848.23 2230.04,843.215 2233.28,838.189 2236.53,833.154 2239.77,828.11 2243.01,823.058 2246.25,817.998 2249.5,812.931 2252.74,807.857 2255.98,802.777 2259.23,797.691 2262.47,792.6 2265.71,787.504 2268.96,782.403 2272.2,777.299 2275.44,772.192 2278.69,767.082 2281.93,761.97 2285.17,756.856 2288.41,751.741 2291.66,746.625 "/>
<circle clip-path="url(#clip891)" cx="1951.14" cy="1248.62" r="14.4" fill="#e26f46" fill-rule="evenodd" fill-opacity="1" stroke="#000000" stroke-opacity="1" stroke-width="3.2"/>
<circle clip-path="url(#clip891)" cx="1555.49" cy="1180.31" r="14.4" fill="#e26f46" fill-rule="evenodd" fill-opacity="1" stroke="#000000" stroke-opacity="1" stroke-width="3.2"/>
<circle clip-path="url(#clip891)" cx="2061.4" cy="1148.8" r="14.4" fill="#e26f46" fill-rule="evenodd" fill-opacity="1" stroke="#000000" stroke-opacity="1" stroke-width="3.2"/>
<circle clip-path="url(#clip891)" cx="1458.2" cy="1130.15" r="14.4" fill="#e26f46" fill-rule="evenodd" fill-opacity="1" stroke="#000000" stroke-opacity="1" stroke-width="3.2"/>
<circle clip-path="url(#clip891)" cx="533.935" cy="244.514" r="14.4" fill="#e26f46" fill-rule="evenodd" fill-opacity="1" stroke="#000000" stroke-opacity="1" stroke-width="3.2"/>
<circle clip-path="url(#clip891)" cx="903.641" cy="317.203" r="14.4" fill="#e26f46" fill-rule="evenodd" fill-opacity="1" stroke="#000000" stroke-opacity="1" stroke-width="3.2"/>
<circle clip-path="url(#clip891)" cx="1743.59" cy="1278.53" r="14.4" fill="#e26f46" fill-rule="evenodd" fill-opacity="1" stroke="#000000" stroke-opacity="1" stroke-width="3.2"/>
<circle clip-path="url(#clip891)" cx="417.186" cy="471.459" r="14.4" fill="#e26f46" fill-rule="evenodd" fill-opacity="1" stroke="#000000" stroke-opacity="1" stroke-width="3.2"/>
<circle clip-path="url(#clip891)" cx="962.015" cy="395.814" r="14.4" fill="#e26f46" fill-rule="evenodd" fill-opacity="1" stroke="#000000" stroke-opacity="1" stroke-width="3.2"/>
<circle clip-path="url(#clip891)" cx="2123.02" cy="873.013" r="14.4" fill="#e26f46" fill-rule="evenodd" fill-opacity="1" stroke="#000000" stroke-opacity="1" stroke-width="3.2"/>
<circle clip-path="url(#clip891)" cx="952.286" cy="312.131" r="14.4" fill="#e26f46" fill-rule="evenodd" fill-opacity="1" stroke="#000000" stroke-opacity="1" stroke-width="3.2"/>
<circle clip-path="url(#clip891)" cx="2064.65" cy="1190.83" r="14.4" fill="#e26f46" fill-rule="evenodd" fill-opacity="1" stroke="#000000" stroke-opacity="1" stroke-width="3.2"/>
<circle clip-path="url(#clip891)" cx="1101.47" cy="512.041" r="14.4" fill="#e26f46" fill-rule="evenodd" fill-opacity="1" stroke="#000000" stroke-opacity="1" stroke-width="3.2"/>
<circle clip-path="url(#clip891)" cx="1727.37" cy="1263.25" r="14.4" fill="#e26f46" fill-rule="evenodd" fill-opacity="1" stroke="#000000" stroke-opacity="1" stroke-width="3.2"/>
<circle clip-path="url(#clip891)" cx="1370.64" cy="1008.97" r="14.4" fill="#e26f46" fill-rule="evenodd" fill-opacity="1" stroke="#000000" stroke-opacity="1" stroke-width="3.2"/>
<circle clip-path="url(#clip891)" cx="1150.11" cy="526.971" r="14.4" fill="#e26f46" fill-rule="evenodd" fill-opacity="1" stroke="#000000" stroke-opacity="1" stroke-width="3.2"/>
<circle clip-path="url(#clip891)" cx="725.274" cy="328.452" r="14.4" fill="#e26f46" fill-rule="evenodd" fill-opacity="1" stroke="#000000" stroke-opacity="1" stroke-width="3.2"/>
<circle clip-path="url(#clip891)" cx="1185.78" cy="647.838" r="14.4" fill="#e26f46" fill-rule="evenodd" fill-opacity="1" stroke="#000000" stroke-opacity="1" stroke-width="3.2"/>
<circle clip-path="url(#clip891)" cx="2054.92" cy="1090.38" r="14.4" fill="#e26f46" fill-rule="evenodd" fill-opacity="1" stroke="#000000" stroke-opacity="1" stroke-width="3.2"/>
<circle clip-path="url(#clip891)" cx="744.732" cy="181.62" r="14.4" fill="#e26f46" fill-rule="evenodd" fill-opacity="1" stroke="#000000" stroke-opacity="1" stroke-width="3.2"/>
<path clip-path="url(#clip891)" d="M255.035 955.151 L258.278 950.557 L261.521 945.91 L264.764 941.209 L268.007 936.454 L271.25 931.645 L274.493 926.784 L277.736 921.87 L280.979 916.905 L284.222 911.887 L287.465 906.819 L290.708 901.701 L293.951 896.533 L297.194 891.317 L300.437 886.053 L303.68 880.743 L306.923 875.387 L310.166 869.988 L313.409 864.546 L316.652 859.064 L319.895 853.542 L323.138 847.983 L326.381 842.389 L329.624 836.761 L332.867 831.103 L336.11 825.416 L339.353 819.704 L342.596 813.968 L345.84 808.213 L349.083 802.442 L352.326 796.657 L355.569 790.864 L358.812 785.065 L362.055 779.265 L365.298 773.468 L368.541 767.679 L371.784 761.904 L375.027 756.146 L378.27 750.412 L381.513 744.708 L384.756 739.039 L387.999 733.411 L391.242 727.832 L394.485 722.307 L397.728 716.844 L400.971 711.449 L404.214 706.13 L407.457 700.894 L410.7 695.748 L413.943 690.7 L417.186 685.757 L420.429 680.924 L423.672 676.199 L426.915 671.578 L430.158 667.057 L433.401 662.631 L436.644 658.295 L439.887 654.047 L443.13 649.882 L446.373 645.795 L449.616 641.784 L452.859 637.845 L456.103 633.976 L459.346 630.173 L462.589 626.434 L465.832 622.757 L469.075 619.141 L472.318 615.585 L475.561 612.089 L478.804 608.651 L482.047 605.273 L485.29 601.956 L488.533 598.7 L491.776 595.507 L495.019 592.38 L498.262 589.321 L501.505 586.333 L504.748 583.421 L507.991 580.587 L511.234 577.837 L514.477 575.175 L517.72 572.606 L520.963 570.135 L524.206 567.769 L527.449 565.512 L530.692 563.371 L533.935 561.353 L537.178 559.46 L540.421 557.685 L543.664 556.018 L546.907 554.449 L550.15 552.968 L553.393 551.566 L556.636 550.234 L559.879 548.961 L563.122 547.74 L566.366 546.563 L569.609 545.42 L572.852 544.306 L576.095 543.211 L579.338 542.13 L582.581 541.056 L585.824 539.983 L589.067 538.905 L592.31 537.817 L595.553 536.714 L598.796 535.592 L602.039 534.446 L605.282 533.274 L608.525 532.071 L611.768 530.834 L615.011 529.562 L618.254 528.252 L621.497 526.902 L624.74 525.511 L627.983 524.078 L631.226 522.603 L634.469 521.085 L637.712 519.525 L640.955 517.923 L644.198 516.281 L647.441 514.599 L650.684 512.88 L653.927 511.127 L657.17 509.341 L660.413 507.526 L663.656 505.686 L666.899 503.824 L670.142 501.946 L673.385 500.057 L676.629 498.162 L679.872 496.267 L683.115 494.38 L686.358 492.506 L689.601 490.653 L692.844 488.83 L696.087 487.046 L699.33 485.308 L702.573 483.628 L705.816 482.014 L709.059 480.477 L712.302 479.027 L715.545 477.677 L718.788 476.436 L722.031 475.315 L725.274 474.327 L728.517 473.482 L731.76 472.783 L735.003 472.234 L738.246 471.838 L741.489 471.599 L744.732 471.518 L747.975 471.596 L751.218 471.824 L754.461 472.188 L757.704 472.675 L760.947 473.274 L764.19 473.971 L767.433 474.756 L770.676 475.616 L773.919 476.54 L777.162 477.519 L780.405 478.54 L783.648 479.596 L786.892 480.677 L790.135 481.774 L793.378 482.88 L796.621 483.987 L799.864 485.089 L803.107 486.179 L806.35 487.252 L809.593 488.304 L812.836 489.328 L816.079 490.322 L819.322 491.283 L822.565 492.208 L825.808 493.094 L829.051 493.94 L832.294 494.746 L835.537 495.51 L838.78 496.232 L842.023 496.914 L845.266 497.556 L848.509 498.16 L851.752 498.728 L854.995 499.264 L858.238 499.77 L861.481 500.251 L864.724 500.71 L867.967 501.155 L871.21 501.589 L874.453 502.02 L877.696 502.454 L880.939 502.898 L884.182 503.362 L887.425 503.854 L890.668 504.383 L893.911 504.959 L897.155 505.591 L900.398 506.292 L903.641 507.073 L906.884 507.942 L910.127 508.905 L913.37 509.962 L916.613 511.118 L919.856 512.374 L923.099 513.735 L926.342 515.204 L929.585 516.785 L932.828 518.483 L936.071 520.304 L939.314 522.251 L942.557 524.331 L945.8 526.55 L949.043 528.914 L952.286 531.428 L955.529 534.096 L958.772 536.916 L962.015 539.88 L965.258 542.983 L968.501 546.211 L971.744 549.553 L974.987 552.994 L978.23 556.522 L981.473 560.124 L984.716 563.79 L987.959 567.507 L991.202 571.265 L994.445 575.053 L997.688 578.864 L1000.93 582.687 L1004.17 586.515 L1007.42 590.34 L1010.66 594.157 L1013.9 597.96 L1017.15 601.742 L1020.39 605.5 L1023.63 609.23 L1026.88 612.929 L1030.12 616.594 L1033.36 620.224 L1036.6 623.817 L1039.85 627.373 L1043.09 630.892 L1046.33 634.375 L1049.58 637.823 L1052.82 641.239 L1056.06 644.624 L1059.31 647.982 L1062.55 651.317 L1065.79 654.634 L1069.04 657.937 L1072.28 661.233 L1075.52 664.528 L1078.76 667.828 L1082.01 671.141 L1085.25 674.476 L1088.49 677.841 L1091.74 681.245 L1094.98 684.699 L1098.22 688.212 L1101.47 691.795 L1104.71 695.458 L1107.95 699.204 L1111.19 703.035 L1114.44 706.954 L1117.68 710.963 L1120.92 715.068 L1124.17 719.27 L1127.41 723.575 L1130.65 727.987 L1133.9 732.512 L1137.14 737.155 L1140.38 741.922 L1143.62 746.819 L1146.87 751.853 L1150.11 757.031 L1153.35 762.358 L1156.6 767.83 L1159.84 773.443 L1163.08 779.192 L1166.33 785.072 L1169.57 791.08 L1172.81 797.21 L1176.06 803.46 L1179.3 809.825 L1182.54 816.303 L1185.78 822.889 L1189.03 829.579 L1192.27 836.362 L1195.51 843.226 L1198.76 850.16 L1202 857.153 L1205.24 864.193 L1208.49 871.27 L1211.73 878.373 L1214.97 885.493 L1218.21 892.622 L1221.46 899.749 L1224.7 906.867 L1227.94 913.968 L1231.19 921.045 L1234.43 928.091 L1237.67 935.099 L1240.92 942.064 L1244.16 948.98 L1247.4 955.841 L1250.64 962.644 L1253.89 969.384 L1257.13 976.056 L1260.37 982.657 L1263.62 989.185 L1266.86 995.635 L1270.1 1002.01 L1273.35 1008.29 L1276.59 1014.5 L1279.83 1020.62 L1283.08 1026.65 L1286.32 1032.6 L1289.56 1038.45 L1292.8 1044.22 L1296.05 1049.9 L1299.29 1055.48 L1302.53 1060.98 L1305.78 1066.39 L1309.02 1071.72 L1312.26 1076.96 L1315.51 1082.11 L1318.75 1087.18 L1321.99 1092.17 L1325.23 1097.08 L1328.48 1101.92 L1331.72 1106.69 L1334.96 1111.38 L1338.21 1116.01 L1341.45 1120.58 L1344.69 1125.09 L1347.94 1129.55 L1351.18 1133.96 L1354.42 1138.33 L1357.66 1142.65 L1360.91 1146.95 L1364.15 1151.21 L1367.39 1155.45 L1370.64 1159.67 L1373.88 1163.88 L1377.12 1168.08 L1380.37 1172.25 L1383.61 1176.41 L1386.85 1180.54 L1390.1 1184.65 L1393.34 1188.73 L1396.58 1192.78 L1399.82 1196.79 L1403.07 1200.78 L1406.31 1204.73 L1409.55 1208.64 L1412.8 1212.52 L1416.04 1216.37 L1419.28 1220.17 L1422.53 1223.94 L1425.77 1227.68 L1429.01 1231.38 L1432.25 1235.04 L1435.5 1238.68 L1438.74 1242.29 L1441.98 1245.87 L1445.23 1249.42 L1448.47 1252.96 L1451.71 1256.47 L1454.96 1259.97 L1458.2 1263.46 L1461.44 1266.94 L1464.68 1270.4 L1467.93 1273.85 L1471.17 1277.28 L1474.41 1280.68 L1477.66 1284.06 L1480.9 1287.41 L1484.14 1290.73 L1487.39 1294.01 L1490.63 1297.25 L1493.87 1300.46 L1497.11 1303.63 L1500.36 1306.75 L1503.6 1309.83 L1506.84 1312.88 L1510.09 1315.88 L1513.33 1318.84 L1516.57 1321.76 L1519.82 1324.64 L1523.06 1327.48 L1526.3 1330.29 L1529.55 1333.06 L1532.79 1335.81 L1536.03 1338.53 L1539.27 1341.22 L1542.52 1343.89 L1545.76 1346.54 L1549 1349.18 L1552.25 1351.8 L1555.49 1354.42 L1558.73 1357.03 L1561.98 1359.64 L1565.22 1362.22 L1568.46 1364.79 L1571.7 1367.33 L1574.95 1369.84 L1578.19 1372.32 L1581.43 1374.75 L1584.68 1377.14 L1587.92 1379.47 L1591.16 1381.75 L1594.41 1383.97 L1597.65 1386.13 L1600.89 1388.22 L1604.13 1390.24 L1607.38 1392.18 L1610.62 1394.06 L1613.86 1395.85 L1617.11 1397.57 L1620.35 1399.2 L1623.59 1400.75 L1626.84 1402.22 L1630.08 1403.6 L1633.32 1404.9 L1636.57 1406.12 L1639.81 1407.25 L1643.05 1408.3 L1646.29 1409.26 L1649.54 1410.14 L1652.78 1410.95 L1656.02 1411.68 L1659.27 1412.33 L1662.51 1412.91 L1665.75 1413.43 L1669 1413.88 L1672.24 1414.27 L1675.48 1414.6 L1678.72 1414.89 L1681.97 1415.13 L1685.21 1415.34 L1688.45 1415.51 L1691.7 1415.66 L1694.94 1415.79 L1698.18 1415.91 L1701.43 1416.03 L1704.67 1416.15 L1707.91 1416.3 L1711.15 1416.47 L1714.4 1416.67 L1717.64 1416.92 L1720.88 1417.22 L1724.13 1417.58 L1727.37 1418.02 L1730.61 1418.53 L1733.86 1419.13 L1737.1 1419.8 L1740.34 1420.56 L1743.59 1421.4 L1746.83 1422.32 L1750.07 1423.31 L1753.31 1424.35 L1756.56 1425.45 L1759.8 1426.59 L1763.04 1427.76 L1766.29 1428.96 L1769.53 1430.16 L1772.77 1431.38 L1776.02 1432.58 L1779.26 1433.78 L1782.5 1434.95 L1785.74 1436.09 L1788.99 1437.2 L1792.23 1438.26 L1795.47 1439.28 L1798.72 1440.24 L1801.96 1441.14 L1805.2 1441.97 L1808.45 1442.72 L1811.69 1443.41 L1814.93 1444.01 L1818.17 1444.52 L1821.42 1444.95 L1824.66 1445.29 L1827.9 1445.53 L1831.15 1445.67 L1834.39 1445.72 L1837.63 1445.66 L1840.88 1445.49 L1844.12 1445.22 L1847.36 1444.84 L1850.61 1444.35 L1853.85 1443.76 L1857.09 1443.05 L1860.33 1442.22 L1863.58 1441.29 L1866.82 1440.24 L1870.06 1439.08 L1873.31 1437.81 L1876.55 1436.42 L1879.79 1434.92 L1883.04 1433.31 L1886.28 1431.59 L1889.52 1429.76 L1892.76 1427.82 L1896.01 1425.77 L1899.25 1423.62 L1902.49 1421.36 L1905.74 1419.01 L1908.98 1416.55 L1912.22 1413.99 L1915.47 1411.34 L1918.71 1408.6 L1921.95 1405.77 L1925.19 1402.86 L1928.44 1399.86 L1931.68 1396.78 L1934.92 1393.63 L1938.17 1390.41 L1941.41 1387.12 L1944.65 1383.77 L1947.9 1380.36 L1951.14 1376.9 L1954.38 1373.38 L1957.63 1369.82 L1960.87 1366.2 L1964.11 1362.52 L1967.35 1358.79 L1970.6 1355 L1973.84 1351.14 L1977.08 1347.22 L1980.33 1343.24 L1983.57 1339.2 L1986.81 1335.09 L1990.06 1330.92 L1993.3 1326.69 L1996.54 1322.4 L1999.78 1318.06 L2003.03 1313.66 L2006.27 1309.22 L2009.51 1304.73 L2012.76 1300.21 L2016 1295.65 L2019.24 1291.08 L2022.49 1286.5 L2025.73 1281.92 L2028.97 1277.35 L2032.21 1272.8 L2035.46 1268.29 L2038.7 1263.84 L2041.94 1259.45 L2045.19 1255.14 L2048.43 1250.93 L2051.67 1246.84 L2054.92 1242.88 L2058.16 1239.07 L2061.4 1235.42 L2064.65 1231.94 L2067.89 1228.62 L2071.13 1225.46 L2074.37 1222.48 L2077.62 1219.65 L2080.86 1216.99 L2084.1 1214.48 L2087.35 1212.13 L2090.59 1209.93 L2093.83 1207.89 L2097.08 1206 L2100.32 1204.26 L2103.56 1202.67 L2106.8 1201.24 L2110.05 1199.96 L2113.29 1198.84 L2116.53 1197.89 L2119.78 1197.09 L2123.02 1196.47 L2126.26 1196.01 L2129.51 1195.71 L2132.75 1195.57 L2135.99 1195.56 L2139.23 1195.68 L2142.48 1195.91 L2145.72 1196.25 L2148.96 1196.69 L2152.21 1197.22 L2155.45 1197.84 L2158.69 1198.52 L2161.94 1199.28 L2165.18 1200.1 L2168.42 1200.97 L2171.67 1201.89 L2174.91 1202.85 L2178.15 1203.86 L2181.39 1204.9 L2184.64 1205.97 L2187.88 1207.06 L2191.12 1208.18 L2194.37 1209.32 L2197.61 1210.47 L2200.85 1211.64 L2204.1 1212.82 L2207.34 1214.01 L2210.58 1215.2 L2213.82 1216.39 L2217.07 1217.59 L2220.31 1218.79 L2223.55 1219.98 L2226.8 1221.18 L2230.04 1222.36 L2233.28 1223.54 L2236.53 1224.72 L2239.77 1225.88 L2243.01 1227.04 L2246.25 1228.18 L2249.5 1229.31 L2252.74 1230.43 L2255.98 1231.54 L2259.23 1232.63 L2262.47 1233.71 L2265.71 1234.78 L2268.96 1235.83 L2272.2 1236.86 L2275.44 1237.88 L2278.69 1238.88 L2281.93 1239.86 L2285.17 1240.83 L2288.41 1241.78 L2291.66 1242.71 L2291.66 493.804 L2288.41 498.462 L2285.17 503.192 L2281.93 507.995 L2278.69 512.871 L2275.44 517.821 L2272.2 522.846 L2268.96 527.946 L2265.71 533.121 L2262.47 538.372 L2259.23 543.7 L2255.98 549.104 L2252.74 554.584 L2249.5 560.143 L2246.25 565.778 L2243.01 571.491 L2239.77 577.281 L2236.53 583.149 L2233.28 589.094 L2230.04 595.117 L2226.8 601.216 L2223.55 607.392 L2220.31 613.645 L2217.07 619.973 L2213.82 626.376 L2210.58 632.853 L2207.34 639.404 L2204.1 646.027 L2200.85 652.72 L2197.61 659.484 L2194.37 666.315 L2191.12 673.212 L2187.88 680.173 L2184.64 687.196 L2181.39 694.279 L2178.15 701.418 L2174.91 708.611 L2171.67 715.853 L2168.42 723.143 L2165.18 730.475 L2161.94 737.845 L2158.69 745.248 L2155.45 752.68 L2152.21 760.134 L2148.96 767.604 L2145.72 775.084 L2142.48 782.567 L2139.23 790.045 L2135.99 797.51 L2132.75 804.954 L2129.51 812.366 L2126.26 819.738 L2123.02 827.06 L2119.78 834.32 L2116.53 841.511 L2113.29 848.624 L2110.05 855.648 L2106.8 862.574 L2103.56 869.391 L2100.32 876.089 L2097.08 882.654 L2093.83 889.075 L2090.59 895.339 L2087.35 901.43 L2084.1 907.336 L2080.86 913.041 L2077.62 918.53 L2074.37 923.786 L2071.13 928.795 L2067.89 933.54 L2064.65 938.007 L2061.4 942.182 L2058.16 946.064 L2054.92 949.662 L2051.67 952.988 L2048.43 956.059 L2045.19 958.895 L2041.94 961.513 L2038.7 963.932 L2035.46 966.171 L2032.21 968.244 L2028.97 970.17 L2025.73 971.962 L2022.49 973.633 L2019.24 975.197 L2016 976.665 L2012.76 978.047 L2009.51 979.352 L2006.27 980.587 L2003.03 981.759 L1999.78 982.874 L1996.54 983.936 L1993.3 984.949 L1990.06 985.916 L1986.81 986.838 L1983.57 987.716 L1980.33 988.551 L1977.08 989.342 L1973.84 990.087 L1970.6 990.786 L1967.35 991.434 L1964.11 992.031 L1960.87 992.572 L1957.63 993.054 L1954.38 993.473 L1951.14 993.825 L1947.9 994.107 L1944.65 994.326 L1941.41 994.491 L1938.17 994.609 L1934.92 994.689 L1931.68 994.74 L1928.44 994.767 L1925.19 994.779 L1921.95 994.782 L1918.71 994.783 L1915.47 994.788 L1912.22 994.804 L1908.98 994.835 L1905.74 994.887 L1902.49 994.965 L1899.25 995.074 L1896.01 995.217 L1892.76 995.399 L1889.52 995.624 L1886.28 995.894 L1883.04 996.213 L1879.79 996.583 L1876.55 997.006 L1873.31 997.485 L1870.06 998.022 L1866.82 998.617 L1863.58 999.273 L1860.33 999.989 L1857.09 1000.77 L1853.85 1001.6 L1850.61 1002.51 L1847.36 1003.47 L1844.12 1004.49 L1840.88 1005.57 L1837.63 1006.7 L1834.39 1007.9 L1831.15 1009.14 L1827.9 1010.44 L1824.66 1011.79 L1821.42 1013.18 L1818.17 1014.61 L1814.93 1016.08 L1811.69 1017.58 L1808.45 1019.11 L1805.2 1020.67 L1801.96 1022.24 L1798.72 1023.82 L1795.47 1025.4 L1792.23 1026.98 L1788.99 1028.55 L1785.74 1030.09 L1782.5 1031.61 L1779.26 1033.1 L1776.02 1034.53 L1772.77 1035.9 L1769.53 1037.21 L1766.29 1038.44 L1763.04 1039.57 L1759.8 1040.6 L1756.56 1041.51 L1753.31 1042.3 L1750.07 1042.94 L1746.83 1043.42 L1743.59 1043.74 L1740.34 1043.88 L1737.1 1043.84 L1733.86 1043.62 L1730.61 1043.22 L1727.37 1042.63 L1724.13 1041.87 L1720.88 1040.94 L1717.64 1039.86 L1714.4 1038.64 L1711.15 1037.29 L1707.91 1035.82 L1704.67 1034.25 L1701.43 1032.59 L1698.18 1030.84 L1694.94 1029.03 L1691.7 1027.16 L1688.45 1025.24 L1685.21 1023.28 L1681.97 1021.29 L1678.72 1019.28 L1675.48 1017.25 L1672.24 1015.22 L1669 1013.19 L1665.75 1011.16 L1662.51 1009.15 L1659.27 1007.15 L1656.02 1005.18 L1652.78 1003.23 L1649.54 1001.31 L1646.29 999.418 L1643.05 997.565 L1639.81 995.748 L1636.57 993.968 L1633.32 992.228 L1630.08 990.528 L1626.84 988.867 L1623.59 987.245 L1620.35 985.662 L1617.11 984.117 L1613.86 982.607 L1610.62 981.131 L1607.38 979.686 L1604.13 978.269 L1600.89 976.876 L1597.65 975.505 L1594.41 974.151 L1591.16 972.809 L1587.92 971.475 L1584.68 970.142 L1581.43 968.805 L1578.19 967.459 L1574.95 966.096 L1571.7 964.711 L1568.46 963.295 L1565.22 961.842 L1561.98 960.343 L1558.73 958.792 L1555.49 957.181 L1552.25 955.503 L1549 953.76 L1545.76 951.956 L1542.52 950.093 L1539.27 948.175 L1536.03 946.206 L1532.79 944.187 L1529.55 942.121 L1526.3 940.009 L1523.06 937.855 L1519.82 935.657 L1516.57 933.419 L1513.33 931.138 L1510.09 928.817 L1506.84 926.453 L1503.6 924.046 L1500.36 921.594 L1497.11 919.096 L1493.87 916.548 L1490.63 913.947 L1487.39 911.29 L1484.14 908.573 L1480.9 905.79 L1477.66 902.938 L1474.41 900.011 L1471.17 897.003 L1467.93 893.908 L1464.68 890.718 L1461.44 887.429 L1458.2 884.032 L1454.96 880.522 L1451.71 876.903 L1448.47 873.18 L1445.23 869.358 L1441.98 865.442 L1438.74 861.437 L1435.5 857.346 L1432.25 853.173 L1429.01 848.922 L1425.77 844.596 L1422.53 840.197 L1419.28 835.727 L1416.04 831.187 L1412.8 826.579 L1409.55 821.904 L1406.31 817.162 L1403.07 812.352 L1399.82 807.473 L1396.58 802.525 L1393.34 797.507 L1390.1 792.416 L1386.85 787.25 L1383.61 782.007 L1380.37 776.684 L1377.12 771.278 L1373.88 765.786 L1370.64 760.205 L1367.39 754.533 L1364.15 748.779 L1360.91 742.951 L1357.66 737.059 L1354.42 731.112 L1351.18 725.119 L1347.94 719.088 L1344.69 713.03 L1341.45 706.95 L1338.21 700.859 L1334.96 694.762 L1331.72 688.667 L1328.48 682.582 L1325.23 676.512 L1321.99 670.465 L1318.75 664.445 L1315.51 658.458 L1312.26 652.51 L1309.02 646.606 L1305.78 640.749 L1302.53 634.945 L1299.29 629.197 L1296.05 623.508 L1292.8 617.882 L1289.56 612.322 L1286.32 606.83 L1283.08 601.409 L1279.83 596.06 L1276.59 590.786 L1273.35 585.587 L1270.1 580.464 L1266.86 575.419 L1263.62 570.451 L1260.37 565.56 L1257.13 560.747 L1253.89 556.01 L1250.64 551.349 L1247.4 546.762 L1244.16 542.247 L1240.92 537.802 L1237.67 533.426 L1234.43 529.114 L1231.19 524.863 L1227.94 520.671 L1224.7 516.532 L1221.46 512.442 L1218.21 508.397 L1214.97 504.39 L1211.73 500.415 L1208.49 496.467 L1205.24 492.539 L1202 488.623 L1198.76 484.711 L1195.51 480.796 L1192.27 476.87 L1189.03 472.923 L1185.78 468.947 L1182.54 464.935 L1179.3 460.885 L1176.06 456.798 L1172.81 452.673 L1169.57 448.511 L1166.33 444.311 L1163.08 440.073 L1159.84 435.797 L1156.6 431.482 L1153.35 427.127 L1150.11 422.732 L1146.87 418.296 L1143.62 413.824 L1140.38 409.32 L1137.14 404.789 L1133.9 400.235 L1130.65 395.662 L1127.41 391.073 L1124.17 386.474 L1120.92 381.865 L1117.68 377.252 L1114.44 372.635 L1111.19 368.017 L1107.95 363.4 L1104.71 358.785 L1101.47 354.174 L1098.22 349.569 L1094.98 344.977 L1091.74 340.407 L1088.49 335.868 L1085.25 331.368 L1082.01 326.914 L1078.76 322.514 L1075.52 318.174 L1072.28 313.9 L1069.04 309.699 L1065.79 305.574 L1062.55 301.532 L1059.31 297.576 L1056.06 293.709 L1052.82 289.936 L1049.58 286.257 L1046.33 282.676 L1043.09 279.193 L1039.85 275.809 L1036.6 272.526 L1033.36 269.343 L1030.12 266.258 L1026.88 263.271 L1023.63 260.38 L1020.39 257.583 L1017.15 254.876 L1013.9 252.257 L1010.66 249.72 L1007.42 247.262 L1004.17 244.877 L1000.93 242.559 L997.688 240.301 L994.445 238.097 L991.202 235.939 L987.959 233.819 L984.716 231.727 L981.473 229.654 L978.23 227.59 L974.987 225.526 L971.744 223.449 L968.501 221.35 L965.258 219.217 L962.015 217.038 L958.772 214.804 L955.529 212.511 L952.286 210.157 L949.043 207.743 L945.8 205.271 L942.557 202.746 L939.314 200.172 L936.071 197.553 L932.828 194.894 L929.585 192.199 L926.342 189.471 L923.099 186.714 L919.856 183.932 L916.613 181.128 L913.37 178.305 L910.127 175.465 L906.884 172.61 L903.641 169.743 L900.398 166.867 L897.155 163.99 L893.911 161.12 L890.668 158.268 L887.425 155.442 L884.182 152.648 L880.939 149.897 L877.696 147.194 L874.453 144.546 L871.21 141.96 L867.967 139.441 L864.724 136.995 L861.481 134.627 L858.238 132.341 L854.995 130.141 L851.752 128.031 L848.509 126.012 L845.266 124.089 L842.023 122.262 L838.78 120.534 L835.537 118.906 L832.294 117.378 L829.051 115.951 L825.808 114.624 L822.565 113.398 L819.322 112.27 L816.079 111.24 L812.836 110.306 L809.593 109.465 L806.35 108.715 L803.107 108.052 L799.864 107.472 L796.621 106.973 L793.378 106.548 L790.135 106.193 L786.892 105.903 L783.648 105.671 L780.405 105.491 L777.162 105.356 L773.919 105.259 L770.676 105.191 L767.433 105.146 L764.19 105.115 L760.947 105.088 L757.704 105.056 L754.461 105.012 L751.218 104.945 L747.975 104.846 L744.732 104.706 L741.489 104.517 L738.246 104.274 L735.003 103.971 L731.76 103.606 L728.517 103.174 L725.274 102.673 L722.031 102.1 L718.788 101.462 L715.545 100.77 L712.302 100.032 L709.059 99.2567 L705.816 98.4541 L702.573 97.6328 L699.33 96.8016 L696.087 95.9689 L692.844 95.1429 L689.601 94.3315 L686.358 93.542 L683.115 92.7817 L679.872 92.0571 L676.629 91.3746 L673.385 90.7401 L670.142 90.1592 L666.899 89.6369 L663.656 89.1781 L660.413 88.7871 L657.17 88.4679 L653.927 88.2242 L650.684 88.0594 L647.441 87.9763 L644.198 87.9776 L640.955 88.0657 L637.712 88.2425 L634.469 88.5097 L631.226 88.8689 L627.983 89.3209 L624.74 89.8667 L621.497 90.5068 L618.254 91.2414 L615.011 92.0705 L611.768 92.9937 L608.525 94.0106 L605.282 95.1201 L602.039 96.3212 L598.796 97.6124 L595.553 98.992 L592.31 100.458 L589.067 102.008 L585.824 103.64 L582.581 105.351 L579.338 107.137 L576.095 108.995 L572.852 110.922 L569.609 112.914 L566.366 114.967 L563.122 117.075 L559.879 119.235 L556.636 121.441 L553.393 123.688 L550.15 125.972 L546.907 128.286 L543.664 130.624 L540.421 132.982 L537.178 135.354 L533.935 137.734 L530.692 140.116 L527.449 142.501 L524.206 144.888 L520.963 147.278 L517.72 149.67 L514.477 152.064 L511.234 154.461 L507.991 156.86 L504.748 159.26 L501.505 161.661 L498.262 164.062 L495.019 166.461 L491.776 168.856 L488.533 171.246 L485.29 173.628 L482.047 175.999 L478.804 178.357 L475.561 180.697 L472.318 183.017 L469.075 185.311 L465.832 187.575 L462.589 189.803 L459.346 191.992 L456.103 194.134 L452.859 196.224 L449.616 198.256 L446.373 200.222 L443.13 202.116 L439.887 203.931 L436.644 205.66 L433.401 207.295 L430.158 208.829 L426.915 210.254 L423.672 211.562 L420.429 212.747 L417.186 213.8 L413.943 214.717 L410.7 215.502 L407.457 216.161 L404.214 216.702 L400.971 217.13 L397.728 217.452 L394.485 217.674 L391.242 217.804 L387.999 217.847 L384.756 217.809 L381.513 217.697 L378.27 217.516 L375.027 217.271 L371.784 216.968 L368.541 216.612 L365.298 216.207 L362.055 215.759 L358.812 215.271 L355.569 214.748 L352.326 214.193 L349.083 213.61 L345.84 213.003 L342.596 212.375 L339.353 211.728 L336.11 211.067 L332.867 210.393 L329.624 209.708 L326.381 209.017 L323.138 208.319 L319.895 207.618 L316.652 206.915 L313.409 206.213 L310.166 205.512 L306.923 204.814 L303.68 204.122 L300.437 203.435 L297.194 202.755 L293.951 202.083 L290.708 201.42 L287.465 200.768 L284.222 200.126 L280.979 199.496 L277.736 198.878 L274.493 198.273 L271.25 197.682 L268.007 197.104 L264.764 196.541 L261.521 195.993 L258.278 195.459 L255.035 194.941  Z" fill="#3da44d" fill-rule="evenodd" fill-opacity="0.1"/>
<polyline clip-path="url(#clip891)" style="stroke:#3da44d; stroke-linecap:round; stroke-linejoin:round; stroke-width:8; stroke-opacity:1; fill:none" points="255.035,575.046 258.278,573.008 261.521,570.951 264.764,568.875 268.007,566.779 271.25,564.664 274.493,562.529 277.736,560.374 280.979,558.2 284.222,556.007 287.465,553.793 290.708,551.56 293.951,549.308 297.194,547.036 300.437,544.744 303.68,542.432 306.923,540.101 310.166,537.75 313.409,535.38 316.652,532.99 319.895,530.58 323.138,528.151 326.381,525.703 329.624,523.235 332.867,520.748 336.11,518.241 339.353,515.716 342.596,513.172 345.84,510.608 349.083,508.026 352.326,505.425 355.569,502.806 358.812,500.168 362.055,497.512 365.298,494.838 368.541,492.146 371.784,489.436 375.027,486.709 378.27,483.964 381.513,481.203 384.756,478.424 387.999,475.629 391.242,472.818 394.485,469.991 397.728,467.148 400.971,464.289 404.214,461.416 407.457,458.528 410.7,455.625 413.943,452.709 417.186,449.778 420.429,446.835 423.672,443.881 426.915,440.916 430.158,437.943 433.401,434.963 436.644,431.978 439.887,428.989 443.13,425.999 446.373,423.009 449.616,420.02 452.859,417.035 456.103,414.055 459.346,411.082 462.589,408.118 465.832,405.166 469.075,402.226 472.318,399.301 475.561,396.393 478.804,393.504 482.047,390.636 485.29,387.792 488.533,384.973 491.776,382.181 495.019,379.42 498.262,376.691 501.505,373.997 504.748,371.341 507.991,368.724 511.234,366.149 514.477,363.62 517.72,361.138 520.963,358.707 524.206,356.328 527.449,354.007 530.692,351.744 533.935,349.543 537.178,347.407 540.421,345.334 543.664,343.321 546.907,341.367 550.15,339.47 553.393,337.627 556.636,335.837 559.879,334.098 563.122,332.408 566.366,330.765 569.609,329.167 572.852,327.614 576.095,326.103 579.338,324.633 582.581,323.203 585.824,321.811 589.067,320.457 592.31,319.138 595.553,317.853 598.796,316.602 602.039,315.384 605.282,314.197 608.525,313.041 611.768,311.914 615.011,310.816 618.254,309.746 621.497,308.704 624.74,307.689 627.983,306.7 631.226,305.736 634.469,304.797 637.712,303.884 640.955,302.994 644.198,302.129 647.441,301.288 650.684,300.47 653.927,299.675 657.17,298.904 660.413,298.156 663.656,297.432 666.899,296.731 670.142,296.053 673.385,295.399 676.629,294.768 679.872,294.162 683.115,293.581 686.358,293.024 689.601,292.492 692.844,291.987 696.087,291.507 699.33,291.055 702.573,290.63 705.816,290.234 709.059,289.867 712.302,289.53 715.545,289.223 718.788,288.949 722.031,288.708 725.274,288.5 728.517,288.328 731.76,288.194 735.003,288.103 738.246,288.056 741.489,288.058 744.732,288.112 747.975,288.221 751.218,288.384 754.461,288.6 757.704,288.866 760.947,289.181 764.19,289.543 767.433,289.951 770.676,290.404 773.919,290.9 777.162,291.437 780.405,292.016 783.648,292.634 786.892,293.29 790.135,293.984 793.378,294.714 796.621,295.48 799.864,296.281 803.107,297.115 806.35,297.983 809.593,298.884 812.836,299.817 816.079,300.781 819.322,301.777 822.565,302.803 825.808,303.859 829.051,304.946 832.294,306.062 835.537,307.208 838.78,308.383 842.023,309.588 845.266,310.822 848.509,312.086 851.752,313.379 854.995,314.702 858.238,316.056 861.481,317.439 864.724,318.853 867.967,320.298 871.21,321.774 874.453,323.283 877.696,324.824 880.939,326.398 884.182,328.005 887.425,329.648 890.668,331.326 893.911,333.039 897.155,334.791 900.398,336.58 903.641,338.408 906.884,340.276 910.127,342.185 913.37,344.134 916.613,346.123 919.856,348.153 923.099,350.225 926.342,352.337 929.585,354.492 932.828,356.689 936.071,358.929 939.314,361.212 942.557,363.539 945.8,365.911 949.043,368.329 952.286,370.793 955.529,373.304 958.772,375.86 962.015,378.459 965.258,381.1 968.501,383.781 971.744,386.501 974.987,389.26 978.23,392.056 981.473,394.889 984.716,397.758 987.959,400.663 991.202,403.602 994.445,406.575 997.688,409.582 1000.93,412.623 1004.17,415.696 1007.42,418.801 1010.66,421.939 1013.9,425.108 1017.15,428.309 1020.39,431.541 1023.63,434.805 1026.88,438.1 1030.12,441.426 1033.36,444.783 1036.6,448.171 1039.85,451.591 1043.09,455.042 1046.33,458.525 1049.58,462.04 1052.82,465.587 1056.06,469.167 1059.31,472.779 1062.55,476.425 1065.79,480.104 1069.04,483.818 1072.28,487.567 1075.52,491.351 1078.76,495.171 1082.01,499.028 1085.25,502.922 1088.49,506.855 1091.74,510.826 1094.98,514.838 1098.22,518.89 1101.47,522.985 1104.71,527.122 1107.95,531.302 1111.19,535.526 1114.44,539.794 1117.68,544.108 1120.92,548.467 1124.17,552.872 1127.41,557.324 1130.65,561.824 1133.9,566.373 1137.14,570.972 1140.38,575.621 1143.62,580.322 1146.87,585.075 1150.11,589.881 1153.35,594.742 1156.6,599.656 1159.84,604.62 1163.08,609.632 1166.33,614.691 1169.57,619.795 1172.81,624.942 1176.06,630.129 1179.3,635.355 1182.54,640.619 1185.78,645.918 1189.03,651.251 1192.27,656.616 1195.51,662.011 1198.76,667.436 1202,672.888 1205.24,678.366 1208.49,683.869 1211.73,689.394 1214.97,694.942 1218.21,700.509 1221.46,706.096 1224.7,711.7 1227.94,717.319 1231.19,722.954 1234.43,728.602 1237.67,734.262 1240.92,739.933 1244.16,745.613 1247.4,751.301 1250.64,756.996 1253.89,762.697 1257.13,768.401 1260.37,774.109 1263.62,779.818 1266.86,785.527 1270.1,791.235 1273.35,796.941 1276.59,802.643 1279.83,808.34 1283.08,814.03 1286.32,819.713 1289.56,825.387 1292.8,831.05 1296.05,836.702 1299.29,842.34 1302.53,847.964 1305.78,853.572 1309.02,859.162 1312.26,864.733 1315.51,870.284 1318.75,875.812 1321.99,881.318 1325.23,886.798 1328.48,892.251 1331.72,897.677 1334.96,903.072 1338.21,908.436 1341.45,913.766 1344.69,919.062 1347.94,924.32 1351.18,929.54 1354.42,934.719 1357.66,939.856 1360.91,944.949 1364.15,949.995 1367.39,954.992 1370.64,959.94 1373.88,964.835 1377.12,969.677 1380.37,974.468 1383.61,979.207 1386.85,983.895 1390.1,988.531 1393.34,993.116 1396.58,997.65 1399.82,1002.13 1403.07,1006.56 1406.31,1010.95 1409.55,1015.27 1412.8,1019.55 1416.04,1023.78 1419.28,1027.95 1422.53,1032.07 1425.77,1036.14 1429.01,1040.15 1432.25,1044.11 1435.5,1048.01 1438.74,1051.86 1441.98,1055.66 1445.23,1059.39 1448.47,1063.07 1451.71,1066.69 1454.96,1070.25 1458.2,1073.75 1461.44,1077.18 1464.68,1080.56 1467.93,1083.88 1471.17,1087.14 1474.41,1090.35 1477.66,1093.5 1480.9,1096.6 1484.14,1099.65 1487.39,1102.65 1490.63,1105.6 1493.87,1108.5 1497.11,1111.36 1500.36,1114.17 1503.6,1116.94 1506.84,1119.67 1510.09,1122.35 1513.33,1124.99 1516.57,1127.59 1519.82,1130.15 1523.06,1132.67 1526.3,1135.15 1529.55,1137.59 1532.79,1140 1536.03,1142.37 1539.27,1144.7 1542.52,1146.99 1545.76,1149.25 1549,1151.47 1552.25,1153.65 1555.49,1155.8 1558.73,1157.91 1561.98,1159.99 1565.22,1162.03 1568.46,1164.04 1571.7,1166.02 1574.95,1167.97 1578.19,1169.89 1581.43,1171.78 1584.68,1173.64 1587.92,1175.47 1591.16,1177.28 1594.41,1179.06 1597.65,1180.82 1600.89,1182.55 1604.13,1184.25 1607.38,1185.94 1610.62,1187.59 1613.86,1189.23 1617.11,1190.84 1620.35,1192.43 1623.59,1194 1626.84,1195.54 1630.08,1197.07 1633.32,1198.57 1636.57,1200.04 1639.81,1201.5 1643.05,1202.93 1646.29,1204.34 1649.54,1205.73 1652.78,1207.09 1656.02,1208.43 1659.27,1209.74 1662.51,1211.03 1665.75,1212.29 1669,1213.53 1672.24,1214.74 1675.48,1215.93 1678.72,1217.08 1681.97,1218.21 1685.21,1219.31 1688.45,1220.37 1691.7,1221.41 1694.94,1222.41 1698.18,1223.38 1701.43,1224.31 1704.67,1225.2 1707.91,1226.06 1711.15,1226.88 1714.4,1227.65 1717.64,1228.39 1720.88,1229.08 1724.13,1229.73 1727.37,1230.32 1730.61,1230.87 1733.86,1231.37 1737.1,1231.82 1740.34,1232.22 1743.59,1232.57 1746.83,1232.87 1750.07,1233.12 1753.31,1233.32 1756.56,1233.48 1759.8,1233.6 1763.04,1233.67 1766.29,1233.7 1769.53,1233.69 1772.77,1233.64 1776.02,1233.56 1779.26,1233.44 1782.5,1233.28 1785.74,1233.09 1788.99,1232.87 1792.23,1232.62 1795.47,1232.34 1798.72,1232.03 1801.96,1231.69 1805.2,1231.32 1808.45,1230.92 1811.69,1230.5 1814.93,1230.04 1818.17,1229.57 1821.42,1229.07 1824.66,1228.54 1827.9,1227.99 1831.15,1227.41 1834.39,1226.81 1837.63,1226.18 1840.88,1225.53 1844.12,1224.85 1847.36,1224.15 1850.61,1223.43 1853.85,1222.68 1857.09,1221.91 1860.33,1221.11 1863.58,1220.28 1866.82,1219.43 1870.06,1218.55 1873.31,1217.65 1876.55,1216.71 1879.79,1215.75 1883.04,1214.76 1886.28,1213.74 1889.52,1212.69 1892.76,1211.61 1896.01,1210.5 1899.25,1209.35 1902.49,1208.16 1905.74,1206.95 1908.98,1205.69 1912.22,1204.4 1915.47,1203.07 1918.71,1201.69 1921.95,1200.28 1925.19,1198.82 1928.44,1197.31 1931.68,1195.76 1934.92,1194.16 1938.17,1192.51 1941.41,1190.81 1944.65,1189.05 1947.9,1187.23 1951.14,1185.36 1954.38,1183.43 1957.63,1181.44 1960.87,1179.39 1964.11,1177.28 1967.35,1175.11 1970.6,1172.89 1973.84,1170.61 1977.08,1168.28 1980.33,1165.9 1983.57,1163.46 1986.81,1160.96 1990.06,1158.42 1993.3,1155.82 1996.54,1153.17 1999.78,1150.47 2003.03,1147.71 2006.27,1144.9 2009.51,1142.04 2012.76,1139.13 2016,1136.16 2019.24,1133.14 2022.49,1130.07 2025.73,1126.94 2028.97,1123.76 2032.21,1120.52 2035.46,1117.23 2038.7,1113.88 2041.94,1110.48 2045.19,1107.02 2048.43,1103.5 2051.67,1099.91 2054.92,1096.27 2058.16,1092.57 2061.4,1088.8 2064.65,1084.97 2067.89,1081.08 2071.13,1077.13 2074.37,1073.13 2077.62,1069.09 2080.86,1065.01 2084.1,1060.91 2087.35,1056.78 2090.59,1052.63 2093.83,1048.48 2097.08,1044.33 2100.32,1040.17 2103.56,1036.03 2106.8,1031.91 2110.05,1027.81 2113.29,1023.73 2116.53,1019.7 2119.78,1015.71 2123.02,1011.76 2126.26,1007.87 2129.51,1004.04 2132.75,1000.26 2135.99,996.534 2139.23,992.861 2142.48,989.239 2145.72,985.669 2148.96,982.149 2152.21,978.679 2155.45,975.258 2158.69,971.886 2161.94,968.562 2165.18,965.285 2168.42,962.055 2171.67,958.871 2174.91,955.732 2178.15,952.638 2181.39,949.588 2184.64,946.581 2187.88,943.618 2191.12,940.696 2194.37,937.817 2197.61,934.979 2200.85,932.181 2204.1,929.423 2207.34,926.705 2210.58,924.026 2213.82,921.385 2217.07,918.783 2220.31,916.217 2223.55,913.689 2226.8,911.196 2230.04,908.74 2233.28,906.319 2236.53,903.933 2239.77,901.581 2243.01,899.263 2246.25,896.979 2249.5,894.727 2252.74,892.508 2255.98,890.321 2259.23,888.166 2262.47,886.042 2265.71,883.949 2268.96,881.885 2272.2,879.852 2275.44,877.848 2278.69,875.874 2281.93,873.928 2285.17,872.01 2288.41,870.12 2291.66,868.257 "/>
<path clip-path="url(#clip890)" d="M1953.46 302.578 L2280.8 302.578 L2280.8 95.2176 L1953.46 95.2176  Z" fill="#ffffff" fill-rule="evenodd" fill-opacity="1"/>
<polyline clip-path="url(#clip890)" style="stroke:#000000; stroke-linecap:round; stroke-linejoin:round; stroke-width:4; stroke-opacity:1; fill:none" points="1953.46,302.578 2280.8,302.578 2280.8,95.2176 1953.46,95.2176 1953.46,302.578 "/>
<polyline clip-path="url(#clip890)" style="stroke:#009af9; stroke-linecap:round; stroke-linejoin:round; stroke-width:4; stroke-opacity:1; fill:none" points="1977.44,147.058 2121.36,147.058 "/>
<path clip-path="url(#clip890)" d="M2152.76 131.051 L2152.76 138.412 L2161.53 138.412 L2161.53 141.722 L2152.76 141.722 L2152.76 155.796 Q2152.76 158.967 2153.61 159.87 Q2154.49 160.773 2157.16 160.773 L2161.53 160.773 L2161.53 164.338 L2157.16 164.338 Q2152.23 164.338 2150.35 162.509 Q2148.48 160.657 2148.48 155.796 L2148.48 141.722 L2145.35 141.722 L2145.35 138.412 L2148.48 138.412 L2148.48 131.051 L2152.76 131.051 Z" fill="#000000" fill-rule="nonzero" fill-opacity="1" /><path clip-path="url(#clip890)" d="M2182.16 142.393 Q2181.44 141.977 2180.58 141.791 Q2179.75 141.583 2178.73 141.583 Q2175.12 141.583 2173.17 143.944 Q2171.25 146.282 2171.25 150.68 L2171.25 164.338 L2166.97 164.338 L2166.97 138.412 L2171.25 138.412 L2171.25 142.44 Q2172.6 140.078 2174.75 138.944 Q2176.9 137.787 2179.98 137.787 Q2180.42 137.787 2180.95 137.856 Q2181.48 137.903 2182.13 138.018 L2182.16 142.393 Z" fill="#000000" fill-rule="nonzero" fill-opacity="1" /><path clip-path="url(#clip890)" d="M2186.18 154.106 L2186.18 138.412 L2190.44 138.412 L2190.44 153.944 Q2190.44 157.625 2191.88 159.476 Q2193.31 161.305 2196.18 161.305 Q2199.63 161.305 2201.62 159.106 Q2203.64 156.907 2203.64 153.111 L2203.64 138.412 L2207.9 138.412 L2207.9 164.338 L2203.64 164.338 L2203.64 160.356 Q2202.09 162.717 2200.03 163.875 Q2197.99 165.009 2195.28 165.009 Q2190.81 165.009 2188.5 162.231 Q2186.18 159.453 2186.18 154.106 M2196.9 137.787 L2196.9 137.787 Z" fill="#000000" fill-rule="nonzero" fill-opacity="1" /><path clip-path="url(#clip890)" d="M2220.88 131.051 L2220.88 138.412 L2229.66 138.412 L2229.66 141.722 L2220.88 141.722 L2220.88 155.796 Q2220.88 158.967 2221.74 159.87 Q2222.62 160.773 2225.28 160.773 L2229.66 160.773 L2229.66 164.338 L2225.28 164.338 Q2220.35 164.338 2218.48 162.509 Q2216.6 160.657 2216.6 155.796 L2216.6 141.722 L2213.48 141.722 L2213.48 138.412 L2216.6 138.412 L2216.6 131.051 L2220.88 131.051 Z" fill="#000000" fill-rule="nonzero" fill-opacity="1" /><path clip-path="url(#clip890)" d="M2256.81 148.689 L2256.81 164.338 L2252.55 164.338 L2252.55 148.828 Q2252.55 145.148 2251.11 143.319 Q2249.68 141.49 2246.81 141.49 Q2243.36 141.49 2241.37 143.69 Q2239.38 145.889 2239.38 149.685 L2239.38 164.338 L2235.1 164.338 L2235.1 128.319 L2239.38 128.319 L2239.38 142.44 Q2240.91 140.102 2242.97 138.944 Q2245.05 137.787 2247.76 137.787 Q2252.23 137.787 2254.52 140.565 Q2256.81 143.319 2256.81 148.689 Z" fill="#000000" fill-rule="nonzero" fill-opacity="1" /><circle clip-path="url(#clip890)" cx="2049.4" cy="198.898" r="20.48" fill="#e26f46" fill-rule="evenodd" fill-opacity="1" stroke="#000000" stroke-opacity="1" stroke-width="4.55111"/>
<path clip-path="url(#clip890)" d="M2164.26 194.187 L2164.26 180.159 L2168.52 180.159 L2168.52 216.178 L2164.26 216.178 L2164.26 212.289 Q2162.92 214.603 2160.86 215.738 Q2158.82 216.849 2155.95 216.849 Q2151.25 216.849 2148.29 213.099 Q2145.35 209.349 2145.35 203.238 Q2145.35 197.127 2148.29 193.377 Q2151.25 189.627 2155.95 189.627 Q2158.82 189.627 2160.86 190.761 Q2162.92 191.872 2164.26 194.187 M2149.75 203.238 Q2149.75 207.937 2151.67 210.622 Q2153.61 213.284 2156.99 213.284 Q2160.37 213.284 2162.32 210.622 Q2164.26 207.937 2164.26 203.238 Q2164.26 198.539 2162.32 195.877 Q2160.37 193.192 2156.99 193.192 Q2153.61 193.192 2151.67 195.877 Q2149.75 198.539 2149.75 203.238 Z" fill="#000000" fill-rule="nonzero" fill-opacity="1" /><path clip-path="url(#clip890)" d="M2189.08 203.145 Q2183.92 203.145 2181.92 204.326 Q2179.93 205.506 2179.93 208.354 Q2179.93 210.622 2181.42 211.965 Q2182.92 213.284 2185.49 213.284 Q2189.03 213.284 2191.16 210.784 Q2193.31 208.261 2193.31 204.094 L2193.31 203.145 L2189.08 203.145 M2197.57 201.386 L2197.57 216.178 L2193.31 216.178 L2193.31 212.242 Q2191.85 214.603 2189.68 215.738 Q2187.5 216.849 2184.36 216.849 Q2180.37 216.849 2178.01 214.627 Q2175.67 212.381 2175.67 208.631 Q2175.67 204.256 2178.59 202.034 Q2181.53 199.812 2187.34 199.812 L2193.31 199.812 L2193.31 199.395 Q2193.31 196.455 2191.37 194.858 Q2189.45 193.238 2185.95 193.238 Q2183.73 193.238 2181.62 193.77 Q2179.52 194.303 2177.57 195.367 L2177.57 191.432 Q2179.91 190.53 2182.11 190.09 Q2184.31 189.627 2186.39 189.627 Q2192.02 189.627 2194.79 192.543 Q2197.57 195.46 2197.57 201.386 Z" fill="#000000" fill-rule="nonzero" fill-opacity="1" /><path clip-path="url(#clip890)" d="M2210.56 182.891 L2210.56 190.252 L2219.33 190.252 L2219.33 193.562 L2210.56 193.562 L2210.56 207.636 Q2210.56 210.807 2211.42 211.71 Q2212.29 212.613 2214.96 212.613 L2219.33 212.613 L2219.33 216.178 L2214.96 216.178 Q2210.03 216.178 2208.15 214.349 Q2206.28 212.497 2206.28 207.636 L2206.28 193.562 L2203.15 193.562 L2203.15 190.252 L2206.28 190.252 L2206.28 182.891 L2210.56 182.891 Z" fill="#000000" fill-rule="nonzero" fill-opacity="1" /><path clip-path="url(#clip890)" d="M2236.72 203.145 Q2231.55 203.145 2229.56 204.326 Q2227.57 205.506 2227.57 208.354 Q2227.57 210.622 2229.05 211.965 Q2230.56 213.284 2233.13 213.284 Q2236.67 213.284 2238.8 210.784 Q2240.95 208.261 2240.95 204.094 L2240.95 203.145 L2236.72 203.145 M2245.21 201.386 L2245.21 216.178 L2240.95 216.178 L2240.95 212.242 Q2239.49 214.603 2237.32 215.738 Q2235.14 216.849 2231.99 216.849 Q2228.01 216.849 2225.65 214.627 Q2223.31 212.381 2223.31 208.631 Q2223.31 204.256 2226.23 202.034 Q2229.17 199.812 2234.98 199.812 L2240.95 199.812 L2240.95 199.395 Q2240.95 196.455 2239.01 194.858 Q2237.09 193.238 2233.59 193.238 Q2231.37 193.238 2229.26 193.77 Q2227.16 194.303 2225.21 195.367 L2225.21 191.432 Q2227.55 190.53 2229.75 190.09 Q2231.95 189.627 2234.03 189.627 Q2239.66 189.627 2242.43 192.543 Q2245.21 195.46 2245.21 201.386 Z" fill="#000000" fill-rule="nonzero" fill-opacity="1" /><polyline clip-path="url(#clip890)" style="stroke:#3da44d; stroke-linecap:round; stroke-linejoin:round; stroke-width:8; stroke-opacity:1; fill:none" points="1977.44,250.738 2121.36,250.738 "/>
<path clip-path="url(#clip890)" d="M2170.91 263.087 L2170.91 253.805 L2163.27 253.805 L2163.27 249.962 L2175.54 249.962 L2175.54 264.8 Q2172.83 266.721 2169.56 267.717 Q2166.3 268.689 2162.6 268.689 Q2154.49 268.689 2149.91 263.967 Q2145.35 259.221 2145.35 250.772 Q2145.35 242.3 2149.91 237.578 Q2154.49 232.833 2162.6 232.833 Q2165.98 232.833 2169.01 233.666 Q2172.06 234.499 2174.63 236.12 L2174.63 241.096 Q2172.04 238.897 2169.12 237.786 Q2166.21 236.675 2162.99 236.675 Q2156.65 236.675 2153.45 240.217 Q2150.28 243.758 2150.28 250.772 Q2150.28 257.763 2153.45 261.305 Q2156.65 264.846 2162.99 264.846 Q2165.47 264.846 2167.41 264.43 Q2169.36 263.99 2170.91 263.087 Z" fill="#000000" fill-rule="nonzero" fill-opacity="1" /><path clip-path="url(#clip890)" d="M2188.75 237.3 L2188.75 250.286 L2194.63 250.286 Q2197.9 250.286 2199.68 248.596 Q2201.46 246.907 2201.46 243.782 Q2201.46 240.68 2199.68 238.99 Q2197.9 237.3 2194.63 237.3 L2188.75 237.3 M2184.08 233.458 L2194.63 233.458 Q2200.44 233.458 2203.41 236.096 Q2206.39 238.712 2206.39 243.782 Q2206.39 248.897 2203.41 251.513 Q2200.44 254.129 2194.63 254.129 L2188.75 254.129 L2188.75 268.018 L2184.08 268.018 L2184.08 233.458 Z" fill="#000000" fill-rule="nonzero" fill-opacity="1" /></svg>
