<?xml version="1.0" encoding="utf-8"?>
<svg xmlns="http://www.w3.org/2000/svg" xmlns:xlink="http://www.w3.org/1999/xlink" width="600" height="400" viewBox="0 0 2400 1600">
<defs>
  <clipPath id="clip880">
    <rect x="0" y="0" width="2400" height="1600"/>
  </clipPath>
</defs>
<path clip-path="url(#clip880)" d="M0 1600 L2400 1600 L2400 0 L0 0  Z" fill="#ffffff" fill-rule="evenodd" fill-opacity="1"/>
<defs>
  <clipPath id="clip881">
    <rect x="193" y="47" width="2160" height="1440"/>
  </clipPath>
</defs>
<path clip-path="url(#clip880)" d="M193.936 1486.45 L2352.76 1486.45 L2352.76 47.2441 L193.936 47.2441  Z" fill="#ffffff" fill-rule="evenodd" fill-opacity="1"/>
<polyline clip-path="url(#clip881)" style="stroke:#000000; stroke-linecap:round; stroke-linejoin:round; stroke-width:2; stroke-opacity:0.1; fill:none" points="255.035,1486.45 255.035,47.2441 "/>
<polyline clip-path="url(#clip881)" style="stroke:#000000; stroke-linecap:round; stroke-linejoin:round; stroke-width:2; stroke-opacity:0.1; fill:none" points="579.338,1486.45 579.338,47.2441 "/>
<polyline clip-path="url(#clip881)" style="stroke:#000000; stroke-linecap:round; stroke-linejoin:round; stroke-width:2; stroke-opacity:0.1; fill:none" points="903.641,1486.45 903.641,47.2441 "/>
<polyline clip-path="url(#clip881)" style="stroke:#000000; stroke-linecap:round; stroke-linejoin:round; stroke-width:2; stroke-opacity:0.1; fill:none" points="1227.94,1486.45 1227.94,47.2441 "/>
<polyline clip-path="url(#clip881)" style="stroke:#000000; stroke-linecap:round; stroke-linejoin:round; stroke-width:2; stroke-opacity:0.1; fill:none" points="1552.25,1486.45 1552.25,47.2441 "/>
<polyline clip-path="url(#clip881)" style="stroke:#000000; stroke-linecap:round; stroke-linejoin:round; stroke-width:2; stroke-opacity:0.1; fill:none" points="1876.55,1486.45 1876.55,47.2441 "/>
<polyline clip-path="url(#clip881)" style="stroke:#000000; stroke-linecap:round; stroke-linejoin:round; stroke-width:2; stroke-opacity:0.1; fill:none" points="2200.85,1486.45 2200.85,47.2441 "/>
<polyline clip-path="url(#clip881)" style="stroke:#000000; stroke-linecap:round; stroke-linejoin:round; stroke-width:2; stroke-opacity:0.1; fill:none" points="193.936,1445.72 2352.76,1445.72 "/>
<polyline clip-path="url(#clip881)" style="stroke:#000000; stroke-linecap:round; stroke-linejoin:round; stroke-width:2; stroke-opacity:0.1; fill:none" points="193.936,1114.82 2352.76,1114.82 "/>
<polyline clip-path="url(#clip881)" style="stroke:#000000; stroke-linecap:round; stroke-linejoin:round; stroke-width:2; stroke-opacity:0.1; fill:none" points="193.936,783.93 2352.76,783.93 "/>
<polyline clip-path="url(#clip881)" style="stroke:#000000; stroke-linecap:round; stroke-linejoin:round; stroke-width:2; stroke-opacity:0.1; fill:none" points="193.936,453.036 2352.76,453.036 "/>
<polyline clip-path="url(#clip881)" style="stroke:#000000; stroke-linecap:round; stroke-linejoin:round; stroke-width:2; stroke-opacity:0.1; fill:none" points="193.936,122.143 2352.76,122.143 "/>
<polyline clip-path="url(#clip880)" style="stroke:#000000; stroke-linecap:round; stroke-linejoin:round; stroke-width:4; stroke-opacity:1; fill:none" points="193.936,1486.45 2352.76,1486.45 "/>
<polyline clip-path="url(#clip880)" style="stroke:#000000; stroke-linecap:round; stroke-linejoin:round; stroke-width:4; stroke-opacity:1; fill:none" points="255.035,1486.45 255.035,1467.55 "/>
<polyline clip-path="url(#clip880)" style="stroke:#000000; stroke-linecap:round; stroke-linejoin:round; stroke-width:4; stroke-opacity:1; fill:none" points="579.338,1486.45 579.338,1467.55 "/>
<polyline clip-path="url(#clip880)" style="stroke:#000000; stroke-linecap:round; stroke-linejoin:round; stroke-width:4; stroke-opacity:1; fill:none" points="903.641,1486.45 903.641,1467.55 "/>
<polyline clip-path="url(#clip880)" style="stroke:#000000; stroke-linecap:round; stroke-linejoin:round; stroke-width:4; stroke-opacity:1; fill:none" points="1227.94,1486.45 1227.94,1467.55 "/>
<polyline clip-path="url(#clip880)" style="stroke:#000000; stroke-linecap:round; stroke-linejoin:round; stroke-width:4; stroke-opacity:1; fill:none" points="1552.25,1486.45 1552.25,1467.55 "/>
<polyline clip-path="url(#clip880)" style="stroke:#000000; stroke-linecap:round; stroke-linejoin:round; stroke-width:4; stroke-opacity:1; fill:none" points="1876.55,1486.45 1876.55,1467.55 "/>
<polyline clip-path="url(#clip880)" style="stroke:#000000; stroke-linecap:round; stroke-linejoin:round; stroke-width:4; stroke-opacity:1; fill:none" points="2200.85,1486.45 2200.85,1467.55 "/>
<path clip-path="url(#clip880)" d="M255.035 1517.37 Q251.424 1517.37 249.595 1520.93 Q247.789 1524.47 247.789 1531.6 Q247.789 1538.71 249.595 1542.27 Q251.424 1545.82 255.035 1545.82 Q258.669 1545.82 260.474 1542.27 Q262.303 1538.71 262.303 1531.6 Q262.303 1524.47 260.474 1520.93 Q258.669 1517.37 255.035 1517.37 M255.035 1513.66 Q260.845 1513.66 263.9 1518.27 Q266.979 1522.85 266.979 1531.6 Q266.979 1540.33 263.9 1544.94 Q260.845 1549.52 255.035 1549.52 Q249.225 1549.52 246.146 1544.94 Q243.09 1540.33 243.09 1531.6 Q243.09 1522.85 246.146 1518.27 Q249.225 1513.66 255.035 1513.66 Z" fill="#000000" fill-rule="nonzero" fill-opacity="1" /><path clip-path="url(#clip880)" d="M569.72 1544.91 L577.358 1544.91 L577.358 1518.55 L569.048 1520.21 L569.048 1515.95 L577.312 1514.29 L581.988 1514.29 L581.988 1544.91 L589.627 1544.91 L589.627 1548.85 L569.72 1548.85 L569.72 1544.91 Z" fill="#000000" fill-rule="nonzero" fill-opacity="1" /><path clip-path="url(#clip880)" d="M898.293 1544.91 L914.613 1544.91 L914.613 1548.85 L892.668 1548.85 L892.668 1544.91 Q895.33 1542.16 899.914 1537.53 Q904.52 1532.88 905.701 1531.53 Q907.946 1529.01 908.826 1527.27 Q909.729 1525.51 909.729 1523.82 Q909.729 1521.07 907.784 1519.33 Q905.863 1517.6 902.761 1517.6 Q900.562 1517.6 898.108 1518.36 Q895.678 1519.13 892.9 1520.68 L892.9 1515.95 Q895.724 1514.82 898.178 1514.24 Q900.631 1513.66 902.668 1513.66 Q908.039 1513.66 911.233 1516.35 Q914.428 1519.03 914.428 1523.52 Q914.428 1525.65 913.617 1527.57 Q912.83 1529.47 910.724 1532.07 Q910.145 1532.74 907.043 1535.95 Q903.942 1539.15 898.293 1544.91 Z" fill="#000000" fill-rule="nonzero" fill-opacity="1" /><path clip-path="url(#clip880)" d="M1232.19 1530.21 Q1235.55 1530.93 1237.42 1533.2 Q1239.32 1535.47 1239.32 1538.8 Q1239.32 1543.92 1235.8 1546.72 Q1232.28 1549.52 1225.8 1549.52 Q1223.63 1549.52 1221.31 1549.08 Q1219.02 1548.66 1216.57 1547.81 L1216.57 1543.29 Q1218.51 1544.43 1220.83 1545.01 Q1223.14 1545.58 1225.66 1545.58 Q1230.06 1545.58 1232.35 1543.85 Q1234.67 1542.11 1234.67 1538.8 Q1234.67 1535.75 1232.52 1534.03 Q1230.39 1532.3 1226.57 1532.3 L1222.54 1532.3 L1222.54 1528.45 L1226.75 1528.45 Q1230.2 1528.45 1232.03 1527.09 Q1233.86 1525.7 1233.86 1523.11 Q1233.86 1520.45 1231.96 1519.03 Q1230.08 1517.6 1226.57 1517.6 Q1224.64 1517.6 1222.45 1518.01 Q1220.25 1518.43 1217.61 1519.31 L1217.61 1515.14 Q1220.27 1514.4 1222.58 1514.03 Q1224.92 1513.66 1226.98 1513.66 Q1232.31 1513.66 1235.41 1516.09 Q1238.51 1518.5 1238.51 1522.62 Q1238.51 1525.49 1236.87 1527.48 Q1235.22 1529.45 1232.19 1530.21 Z" fill="#000000" fill-rule="nonzero" fill-opacity="1" /><path clip-path="url(#clip880)" d="M1555.26 1518.36 L1543.45 1536.81 L1555.26 1536.81 L1555.26 1518.36 M1554.03 1514.29 L1559.91 1514.29 L1559.91 1536.81 L1564.84 1536.81 L1564.84 1540.7 L1559.91 1540.7 L1559.91 1548.85 L1555.26 1548.85 L1555.26 1540.7 L1539.65 1540.7 L1539.65 1536.19 L1554.03 1514.29 Z" fill="#000000" fill-rule="nonzero" fill-opacity="1" /><path clip-path="url(#clip880)" d="M1866.83 1514.29 L1885.18 1514.29 L1885.18 1518.22 L1871.11 1518.22 L1871.11 1526.7 Q1872.13 1526.35 1873.15 1526.19 Q1874.17 1526 1875.18 1526 Q1880.97 1526 1884.35 1529.17 Q1887.73 1532.34 1887.73 1537.76 Q1887.73 1543.34 1884.26 1546.44 Q1880.79 1549.52 1874.47 1549.52 Q1872.29 1549.52 1870.02 1549.15 Q1867.78 1548.78 1865.37 1548.04 L1865.37 1543.34 Q1867.45 1544.47 1869.67 1545.03 Q1871.9 1545.58 1874.37 1545.58 Q1878.38 1545.58 1880.72 1543.48 Q1883.05 1541.37 1883.05 1537.76 Q1883.05 1534.15 1880.72 1532.04 Q1878.38 1529.94 1874.37 1529.94 Q1872.5 1529.94 1870.62 1530.35 Q1868.77 1530.77 1866.83 1531.65 L1866.83 1514.29 Z" fill="#000000" fill-rule="nonzero" fill-opacity="1" /><path clip-path="url(#clip880)" d="M2201.26 1529.7 Q2198.11 1529.7 2196.26 1531.86 Q2194.43 1534.01 2194.43 1537.76 Q2194.43 1541.49 2196.26 1543.66 Q2198.11 1545.82 2201.26 1545.82 Q2204.41 1545.82 2206.23 1543.66 Q2208.09 1541.49 2208.09 1537.76 Q2208.09 1534.01 2206.23 1531.86 Q2204.41 1529.7 2201.26 1529.7 M2210.54 1515.05 L2210.54 1519.31 Q2208.78 1518.48 2206.98 1518.04 Q2205.19 1517.6 2203.43 1517.6 Q2198.8 1517.6 2196.35 1520.72 Q2193.92 1523.85 2193.57 1530.17 Q2194.94 1528.15 2197 1527.09 Q2199.06 1526 2201.54 1526 Q2206.74 1526 2209.75 1529.17 Q2212.79 1532.32 2212.79 1537.76 Q2212.79 1543.08 2209.64 1546.3 Q2206.49 1549.52 2201.26 1549.52 Q2195.26 1549.52 2192.09 1544.94 Q2188.92 1540.33 2188.92 1531.6 Q2188.92 1523.41 2192.81 1518.55 Q2196.7 1513.66 2203.25 1513.66 Q2205.01 1513.66 2206.79 1514.01 Q2208.6 1514.36 2210.54 1515.05 Z" fill="#000000" fill-rule="nonzero" fill-opacity="1" /><polyline clip-path="url(#clip880)" style="stroke:#000000; stroke-linecap:round; stroke-linejoin:round; stroke-width:4; stroke-opacity:1; fill:none" points="193.936,1486.45 193.936,47.2441 "/>
<polyline clip-path="url(#clip880)" style="stroke:#000000; stroke-linecap:round; stroke-linejoin:round; stroke-width:4; stroke-opacity:1; fill:none" points="193.936,1445.72 212.834,1445.72 "/>
<polyline clip-path="url(#clip880)" style="stroke:#000000; stroke-linecap:round; stroke-linejoin:round; stroke-width:4; stroke-opacity:1; fill:none" points="193.936,1114.82 212.834,1114.82 "/>
<polyline clip-path="url(#clip880)" style="stroke:#000000; stroke-linecap:round; stroke-linejoin:round; stroke-width:4; stroke-opacity:1; fill:none" points="193.936,783.93 212.834,783.93 "/>
<polyline clip-path="url(#clip880)" style="stroke:#000000; stroke-linecap:round; stroke-linejoin:round; stroke-width:4; stroke-opacity:1; fill:none" points="193.936,453.036 212.834,453.036 "/>
<polyline clip-path="url(#clip880)" style="stroke:#000000; stroke-linecap:round; stroke-linejoin:round; stroke-width:4; stroke-opacity:1; fill:none" points="193.936,122.143 212.834,122.143 "/>
<path clip-path="url(#clip880)" d="M50.9921 1446.17 L80.6679 1446.17 L80.6679 1450.1 L50.9921 1450.1 L50.9921 1446.17 Z" fill="#000000" fill-rule="nonzero" fill-opacity="1" /><path clip-path="url(#clip880)" d="M91.5706 1459.06 L99.2095 1459.06 L99.2095 1432.7 L90.8993 1434.36 L90.8993 1430.1 L99.1632 1428.44 L103.839 1428.44 L103.839 1459.06 L111.478 1459.06 L111.478 1463 L91.5706 1463 L91.5706 1459.06 Z" fill="#000000" fill-rule="nonzero" fill-opacity="1" /><path clip-path="url(#clip880)" d="M120.922 1457.12 L125.807 1457.12 L125.807 1463 L120.922 1463 L120.922 1457.12 Z" fill="#000000" fill-rule="nonzero" fill-opacity="1" /><path clip-path="url(#clip880)" d="M145.992 1431.52 Q142.381 1431.52 140.552 1435.08 Q138.746 1438.62 138.746 1445.75 Q138.746 1452.86 140.552 1456.42 Q142.381 1459.97 145.992 1459.97 Q149.626 1459.97 151.431 1456.42 Q153.26 1452.86 153.26 1445.75 Q153.26 1438.62 151.431 1435.08 Q149.626 1431.52 145.992 1431.52 M145.992 1427.81 Q151.802 1427.81 154.857 1432.42 Q157.936 1437 157.936 1445.75 Q157.936 1454.48 154.857 1459.09 Q151.802 1463.67 145.992 1463.67 Q140.181 1463.67 137.103 1459.09 Q134.047 1454.48 134.047 1445.75 Q134.047 1437 137.103 1432.42 Q140.181 1427.81 145.992 1427.81 Z" fill="#000000" fill-rule="nonzero" fill-opacity="1" /><path clip-path="url(#clip880)" d="M51.9875 1115.28 L81.6633 1115.28 L81.6633 1119.21 L51.9875 1119.21 L51.9875 1115.28 Z" fill="#000000" fill-rule="nonzero" fill-opacity="1" /><path clip-path="url(#clip880)" d="M101.756 1100.62 Q98.1447 1100.62 96.316 1104.19 Q94.5104 1107.73 94.5104 1114.86 Q94.5104 1121.97 96.316 1125.53 Q98.1447 1129.07 101.756 1129.07 Q105.39 1129.07 107.196 1125.53 Q109.024 1121.97 109.024 1114.86 Q109.024 1107.73 107.196 1104.19 Q105.39 1100.62 101.756 1100.62 M101.756 1096.92 Q107.566 1096.92 110.621 1101.53 Q113.7 1106.11 113.7 1114.86 Q113.7 1123.59 110.621 1128.19 Q107.566 1132.78 101.756 1132.78 Q95.9456 1132.78 92.8669 1128.19 Q89.8114 1123.59 89.8114 1114.86 Q89.8114 1106.11 92.8669 1101.53 Q95.9456 1096.92 101.756 1096.92 Z" fill="#000000" fill-rule="nonzero" fill-opacity="1" /><path clip-path="url(#clip880)" d="M121.918 1126.22 L126.802 1126.22 L126.802 1132.1 L121.918 1132.1 L121.918 1126.22 Z" fill="#000000" fill-rule="nonzero" fill-opacity="1" /><path clip-path="url(#clip880)" d="M137.033 1097.54 L155.39 1097.54 L155.39 1101.48 L141.316 1101.48 L141.316 1109.95 Q142.334 1109.6 143.353 1109.44 Q144.371 1109.26 145.39 1109.26 Q151.177 1109.26 154.556 1112.43 Q157.936 1115.6 157.936 1121.02 Q157.936 1126.59 154.464 1129.7 Q150.992 1132.78 144.672 1132.78 Q142.496 1132.78 140.228 1132.4 Q137.982 1132.03 135.575 1131.29 L135.575 1126.59 Q137.658 1127.73 139.881 1128.28 Q142.103 1128.84 144.58 1128.84 Q148.584 1128.84 150.922 1126.73 Q153.26 1124.63 153.26 1121.02 Q153.26 1117.4 150.922 1115.3 Q148.584 1113.19 144.58 1113.19 Q142.705 1113.19 140.83 1113.61 Q138.978 1114.03 137.033 1114.9 L137.033 1097.54 Z" fill="#000000" fill-rule="nonzero" fill-opacity="1" /><path clip-path="url(#clip880)" d="M100.76 769.729 Q97.1493 769.729 95.3206 773.294 Q93.515 776.835 93.515 783.965 Q93.515 791.071 95.3206 794.636 Q97.1493 798.178 100.76 798.178 Q104.395 798.178 106.2 794.636 Q108.029 791.071 108.029 783.965 Q108.029 776.835 106.2 773.294 Q104.395 769.729 100.76 769.729 M100.76 766.025 Q106.571 766.025 109.626 770.632 Q112.705 775.215 112.705 783.965 Q112.705 792.692 109.626 797.298 Q106.571 801.881 100.76 801.881 Q94.9502 801.881 91.8715 797.298 Q88.816 792.692 88.816 783.965 Q88.816 775.215 91.8715 770.632 Q94.9502 766.025 100.76 766.025 Z" fill="#000000" fill-rule="nonzero" fill-opacity="1" /><path clip-path="url(#clip880)" d="M120.922 795.331 L125.807 795.331 L125.807 801.21 L120.922 801.21 L120.922 795.331 Z" fill="#000000" fill-rule="nonzero" fill-opacity="1" /><path clip-path="url(#clip880)" d="M145.992 769.729 Q142.381 769.729 140.552 773.294 Q138.746 776.835 138.746 783.965 Q138.746 791.071 140.552 794.636 Q142.381 798.178 145.992 798.178 Q149.626 798.178 151.431 794.636 Q153.26 791.071 153.26 783.965 Q153.26 776.835 151.431 773.294 Q149.626 769.729 145.992 769.729 M145.992 766.025 Q151.802 766.025 154.857 770.632 Q157.936 775.215 157.936 783.965 Q157.936 792.692 154.857 797.298 Q151.802 801.881 145.992 801.881 Q140.181 801.881 137.103 797.298 Q134.047 792.692 134.047 783.965 Q134.047 775.215 137.103 770.632 Q140.181 766.025 145.992 766.025 Z" fill="#000000" fill-rule="nonzero" fill-opacity="1" /><path clip-path="url(#clip880)" d="M101.756 438.835 Q98.1447 438.835 96.316 442.4 Q94.5104 445.942 94.5104 453.071 Q94.5104 460.178 96.316 463.742 Q98.1447 467.284 101.756 467.284 Q105.39 467.284 107.196 463.742 Q109.024 460.178 109.024 453.071 Q109.024 445.942 107.196 442.4 Q105.39 438.835 101.756 438.835 M101.756 435.131 Q107.566 435.131 110.621 439.738 Q113.7 444.321 113.7 453.071 Q113.7 461.798 110.621 466.404 Q107.566 470.988 101.756 470.988 Q95.9456 470.988 92.8669 466.404 Q89.8114 461.798 89.8114 453.071 Q89.8114 444.321 92.8669 439.738 Q95.9456 435.131 101.756 435.131 Z" fill="#000000" fill-rule="nonzero" fill-opacity="1" /><path clip-path="url(#clip880)" d="M121.918 464.437 L126.802 464.437 L126.802 470.316 L121.918 470.316 L121.918 464.437 Z" fill="#000000" fill-rule="nonzero" fill-opacity="1" /><path clip-path="url(#clip880)" d="M137.033 435.756 L155.39 435.756 L155.39 439.692 L141.316 439.692 L141.316 448.164 Q142.334 447.817 143.353 447.655 Q144.371 447.469 145.39 447.469 Q151.177 447.469 154.556 450.641 Q157.936 453.812 157.936 459.229 Q157.936 464.807 154.464 467.909 Q150.992 470.988 144.672 470.988 Q142.496 470.988 140.228 470.617 Q137.982 470.247 135.575 469.506 L135.575 464.807 Q137.658 465.941 139.881 466.497 Q142.103 467.053 144.58 467.053 Q148.584 467.053 150.922 464.946 Q153.26 462.84 153.26 459.229 Q153.26 455.617 150.922 453.511 Q148.584 451.405 144.58 451.405 Q142.705 451.405 140.83 451.821 Q138.978 452.238 137.033 453.117 L137.033 435.756 Z" fill="#000000" fill-rule="nonzero" fill-opacity="1" /><path clip-path="url(#clip880)" d="M91.5706 135.488 L99.2095 135.488 L99.2095 109.122 L90.8993 110.789 L90.8993 106.529 L99.1632 104.863 L103.839 104.863 L103.839 135.488 L111.478 135.488 L111.478 139.423 L91.5706 139.423 L91.5706 135.488 Z" fill="#000000" fill-rule="nonzero" fill-opacity="1" /><path clip-path="url(#clip880)" d="M120.922 133.543 L125.807 133.543 L125.807 139.423 L120.922 139.423 L120.922 133.543 Z" fill="#000000" fill-rule="nonzero" fill-opacity="1" /><path clip-path="url(#clip880)" d="M145.992 107.941 Q142.381 107.941 140.552 111.506 Q138.746 115.048 138.746 122.177 Q138.746 129.284 140.552 132.849 Q142.381 136.39 145.992 136.39 Q149.626 136.39 151.431 132.849 Q153.26 129.284 153.26 122.177 Q153.26 115.048 151.431 111.506 Q149.626 107.941 145.992 107.941 M145.992 104.238 Q151.802 104.238 154.857 108.844 Q157.936 113.427 157.936 122.177 Q157.936 130.904 154.857 135.511 Q151.802 140.094 145.992 140.094 Q140.181 140.094 137.103 135.511 Q134.047 130.904 134.047 122.177 Q134.047 113.427 137.103 108.844 Q140.181 104.238 145.992 104.238 Z" fill="#000000" fill-rule="nonzero" fill-opacity="1" /><polyline clip-path="url(#clip881)" style="stroke:#009af9; stroke-linecap:round; stroke-linejoin:round; stroke-width:4; stroke-opacity:1; fill:none" points="255.035,783.93 258.278,777.312 261.521,770.695 264.764,764.08 268.007,757.466 271.25,750.855 274.493,744.247 277.736,737.643 280.979,731.044 284.222,724.45 287.465,717.862 290.708,711.28 293.951,704.706 297.194,698.14 300.437,691.582 303.68,685.034 306.923,678.495 310.166,671.967 313.409,665.451 316.652,658.946 319.895,652.453 323.138,645.974 326.381,639.509 329.624,633.057 332.867,626.622 336.11,620.201 339.353,613.797 342.596,607.411 345.84,601.041 349.083,594.691 352.326,588.359 355.569,582.046 358.812,575.754 362.055,569.483 365.298,563.233 368.541,557.005 371.784,550.799 375.027,544.618 378.27,538.46 381.513,532.326 384.756,526.218 387.999,520.136 391.242,514.079 394.485,508.05 397.728,502.049 400.971,496.075 404.214,490.131 407.457,484.216 410.7,478.331 413.943,472.476 417.186,466.652 420.429,460.861 423.672,455.101 426.915,449.375 430.158,443.681 433.401,438.022 436.644,432.398 439.887,426.808 443.13,421.255 446.373,415.737 449.616,410.257 452.859,404.814 456.103,399.408 459.346,394.042 462.589,388.714 465.832,383.425 469.075,378.177 472.318,372.969 475.561,367.803 478.804,362.678 482.047,357.595 485.29,352.555 488.533,347.558 491.776,342.604 495.019,337.695 498.262,332.83 501.505,328.011 504.748,323.237 507.991,318.509 511.234,313.827 514.477,309.193 517.72,304.606 520.963,300.067 524.206,295.576 527.449,291.135 530.692,286.742 533.935,282.399 537.178,278.107 540.421,273.865 543.664,269.674 546.907,265.534 550.15,261.447 553.393,257.411 556.636,253.428 559.879,249.498 563.122,245.622 566.366,241.799 569.609,238.031 572.852,234.317 576.095,230.659 579.338,227.055 582.581,223.507 585.824,220.016 589.067,216.58 592.31,213.202 595.553,209.88 598.796,206.616 602.039,203.41 605.282,200.262 608.525,197.172 611.768,194.14 615.011,191.168 618.254,188.255 621.497,185.402 624.74,182.608 627.983,179.874 631.226,177.201 634.469,174.589 637.712,172.038 640.955,169.547 644.198,167.118 647.441,164.751 650.684,162.446 653.927,160.203 657.17,158.022 660.413,155.904 663.656,153.849 666.899,151.856 670.142,149.927 673.385,148.062 676.629,146.259 679.872,144.521 683.115,142.847 686.358,141.236 689.601,139.69 692.844,138.209 696.087,136.792 699.33,135.439 702.573,134.152 705.816,132.929 709.059,131.772 712.302,130.68 715.545,129.653 718.788,128.691 722.031,127.795 725.274,126.965 728.517,126.201 731.76,125.502 735.003,124.869 738.246,124.302 741.489,123.801 744.732,123.365 747.975,122.996 751.218,122.693 754.461,122.457 757.704,122.286 760.947,122.181 764.19,122.143 767.433,122.171 770.676,122.265 773.919,122.425 777.162,122.651 780.405,122.944 783.648,123.302 786.892,123.727 790.135,124.217 793.378,124.774 796.621,125.397 799.864,126.085 803.107,126.839 806.35,127.659 809.593,128.544 812.836,129.495 816.079,130.512 819.322,131.594 822.565,132.741 825.808,133.953 829.051,135.23 832.294,136.572 835.537,137.979 838.78,139.45 842.023,140.986 845.266,142.586 848.509,144.25 851.752,145.978 854.995,147.77 858.238,149.626 861.481,151.545 864.724,153.527 867.967,155.573 871.21,157.681 874.453,159.851 877.696,162.085 880.939,164.38 884.182,166.737 887.425,169.156 890.668,171.637 893.911,174.179 897.155,176.781 900.398,179.445 903.641,182.169 906.884,184.953 910.127,187.797 913.37,190.7 916.613,193.663 919.856,196.685 923.099,199.766 926.342,202.905 929.585,206.102 932.828,209.357 936.071,212.669 939.314,216.039 942.557,219.465 945.8,222.948 949.043,226.486 952.286,230.081 955.529,233.731 958.772,237.436 962.015,241.196 965.258,245.01 968.501,248.877 971.744,252.799 974.987,256.773 978.23,260.8 981.473,264.88 984.716,269.011 987.959,273.194 991.202,277.428 994.445,281.712 997.688,286.047 1000.93,290.432 1004.17,294.866 1007.42,299.349 1010.66,303.88 1013.9,308.459 1017.15,313.086 1020.39,317.76 1023.63,322.481 1026.88,327.247 1030.12,332.06 1033.36,336.917 1036.6,341.819 1039.85,346.766 1043.09,351.756 1046.33,356.789 1049.58,361.865 1052.82,366.984 1056.06,372.144 1059.31,377.345 1062.55,382.587 1065.79,387.869 1069.04,393.19 1072.28,398.551 1075.52,403.95 1078.76,409.387 1082.01,414.862 1085.25,420.374 1088.49,425.922 1091.74,431.505 1094.98,437.124 1098.22,442.778 1101.47,448.466 1104.71,454.187 1107.95,459.941 1111.19,465.728 1114.44,471.546 1117.68,477.396 1120.92,483.276 1124.17,489.187 1127.41,495.127 1130.65,501.096 1133.9,507.093 1137.14,513.117 1140.38,519.169 1143.62,525.248 1146.87,531.352 1150.11,537.481 1153.35,543.635 1156.6,549.813 1159.84,556.015 1163.08,562.239 1166.33,568.486 1169.57,574.754 1172.81,581.043 1176.06,587.352 1179.3,593.681 1182.54,600.029 1185.78,606.395 1189.03,612.779 1192.27,619.18 1195.51,625.598 1198.76,632.031 1202,638.48 1205.24,644.943 1208.49,651.42 1211.73,657.911 1214.97,664.414 1218.21,670.929 1221.46,677.455 1224.7,683.992 1227.94,690.539 1231.19,697.095 1234.43,703.66 1237.67,710.233 1240.92,716.813 1244.16,723.4 1247.4,729.993 1250.64,736.591 1253.89,743.195 1257.13,749.802 1260.37,756.413 1263.62,763.026 1266.86,769.642 1270.1,776.258 1273.35,782.876 1276.59,789.494 1279.83,796.111 1283.08,802.727 1286.32,809.341 1289.56,815.953 1292.8,822.561 1296.05,829.166 1299.29,835.766 1302.53,842.361 1305.78,848.95 1309.02,855.532 1312.26,862.108 1315.51,868.675 1318.75,875.234 1321.99,881.784 1325.23,888.324 1328.48,894.854 1331.72,901.373 1334.96,907.879 1338.21,914.374 1341.45,920.855 1344.69,927.323 1347.94,933.776 1351.18,940.215 1354.42,946.638 1357.66,953.044 1360.91,959.434 1364.15,965.806 1367.39,972.16 1370.64,978.495 1373.88,984.81 1377.12,991.106 1380.37,997.38 1383.61,1003.63 1386.85,1009.87 1390.1,1016.07 1393.34,1022.26 1396.58,1028.42 1399.82,1034.56 1403.07,1040.67 1406.31,1046.76 1409.55,1052.82 1412.8,1058.85 1416.04,1064.86 1419.28,1070.84 1422.53,1076.78 1425.77,1082.7 1429.01,1088.59 1432.25,1094.45 1435.5,1100.28 1438.74,1106.08 1441.98,1111.84 1445.23,1117.58 1448.47,1123.27 1451.71,1128.94 1454.96,1134.57 1458.2,1140.16 1461.44,1145.72 1464.68,1151.25 1467.93,1156.73 1471.17,1162.18 1474.41,1167.59 1477.66,1172.97 1480.9,1178.3 1484.14,1183.6 1487.39,1188.85 1490.63,1194.06 1493.87,1199.24 1497.11,1204.37 1500.36,1209.46 1503.6,1214.51 1506.84,1219.51 1510.09,1224.47 1513.33,1229.39 1516.57,1234.26 1519.82,1239.09 1523.06,1243.87 1526.3,1248.6 1529.55,1253.29 1532.79,1257.93 1536.03,1262.53 1539.27,1267.07 1542.52,1271.57 1545.76,1276.02 1549,1280.42 1552.25,1284.77 1555.49,1289.07 1558.73,1293.32 1561.98,1297.52 1565.22,1301.67 1568.46,1305.77 1571.7,1309.81 1574.95,1313.8 1578.19,1317.74 1581.43,1321.62 1584.68,1325.46 1587.92,1329.23 1591.16,1332.96 1594.41,1336.62 1597.65,1340.23 1600.89,1343.79 1604.13,1347.29 1607.38,1350.74 1610.62,1354.12 1613.86,1357.45 1617.11,1360.73 1620.35,1363.94 1623.59,1367.1 1626.84,1370.2 1630.08,1373.24 1633.32,1376.22 1636.57,1379.15 1639.81,1382.01 1643.05,1384.81 1646.29,1387.55 1649.54,1390.24 1652.78,1392.86 1656.02,1395.42 1659.27,1397.92 1662.51,1400.36 1665.75,1402.74 1669,1405.05 1672.24,1407.3 1675.48,1409.49 1678.72,1411.62 1681.97,1413.69 1685.21,1415.69 1688.45,1417.63 1691.7,1419.51 1694.94,1421.32 1698.18,1423.07 1701.43,1424.75 1704.67,1426.37 1707.91,1427.93 1711.15,1429.42 1714.4,1430.85 1717.64,1432.21 1720.88,1433.51 1724.13,1434.74 1727.37,1435.91 1730.61,1437.01 1733.86,1438.05 1737.1,1439.02 1740.34,1439.93 1743.59,1440.77 1746.83,1441.54 1750.07,1442.25 1753.31,1442.9 1756.56,1443.47 1759.8,1443.98 1763.04,1444.43 1766.29,1444.81 1769.53,1445.12 1772.77,1445.37 1776.02,1445.55 1779.26,1445.67 1782.5,1445.72 1785.74,1445.7 1788.99,1445.61 1792.23,1445.47 1795.47,1445.25 1798.72,1444.97 1801.96,1444.62 1805.2,1444.21 1808.45,1443.73 1811.69,1443.18 1814.93,1442.57 1818.17,1441.89 1821.42,1441.15 1824.66,1440.34 1827.9,1439.46 1831.15,1438.52 1834.39,1437.51 1837.63,1436.44 1840.88,1435.31 1844.12,1434.1 1847.36,1432.84 1850.61,1431.51 1853.85,1430.11 1857.09,1428.65 1860.33,1427.12 1863.58,1425.53 1866.82,1423.88 1870.06,1422.16 1873.31,1420.38 1876.55,1418.53 1879.79,1416.63 1883.04,1414.65 1886.28,1412.62 1889.52,1410.52 1892.76,1408.36 1896.01,1406.14 1899.25,1403.85 1902.49,1401.5 1905.74,1399.09 1908.98,1396.62 1912.22,1394.09 1915.47,1391.5 1918.71,1388.84 1921.95,1386.13 1925.19,1383.36 1928.44,1380.52 1931.68,1377.63 1934.92,1374.67 1938.17,1371.66 1941.41,1368.59 1944.65,1365.46 1947.9,1362.27 1951.14,1359.03 1954.38,1355.72 1957.63,1352.36 1960.87,1348.94 1964.11,1345.47 1967.35,1341.94 1970.6,1338.36 1973.84,1334.71 1977.08,1331.02 1980.33,1327.27 1983.57,1323.46 1986.81,1319.6 1990.06,1315.69 1993.3,1311.72 1996.54,1307.7 1999.78,1303.63 2003.03,1299.51 2006.27,1295.34 2009.51,1291.11 2012.76,1286.83 2016,1282.51 2019.24,1278.13 2022.49,1273.7 2025.73,1269.23 2028.97,1264.71 2032.21,1260.13 2035.46,1255.51 2038.7,1250.85 2041.94,1246.13 2045.19,1241.38 2048.43,1236.57 2051.67,1231.72 2054.92,1226.82 2058.16,1221.89 2061.4,1216.9 2064.65,1211.88 2067.89,1206.81 2071.13,1201.69 2074.37,1196.54 2077.62,1191.35 2080.86,1186.11 2084.1,1180.84 2087.35,1175.52 2090.59,1170.17 2093.83,1164.77 2097.08,1159.34 2100.32,1153.87 2103.56,1148.37 2106.8,1142.82 2110.05,1137.25 2113.29,1131.63 2116.53,1125.99 2119.78,1120.3 2123.02,1114.59 2126.26,1108.84 2129.51,1103.06 2132.75,1097.24 2135.99,1091.4 2139.23,1085.52 2142.48,1079.62 2145.72,1073.68 2148.96,1067.72 2152.21,1061.72 2155.45,1055.7 2158.69,1049.66 2161.94,1043.58 2165.18,1037.48 2168.42,1031.36 2171.67,1025.21 2174.91,1019.03 2178.15,1012.83 2181.39,1006.61 2184.64,1000.37 2187.88,994.106 2191.12,987.821 2194.37,981.515 2197.61,975.189 2200.85,968.844 2204.1,962.48 2207.34,956.099 2210.58,949.701 2213.82,943.286 2217.07,936.855 2220.31,930.408 2223.55,923.947 2226.8,917.472 2230.04,910.984 2233.28,904.483 2236.53,897.97 2239.77,891.445 2243.01,884.91 2246.25,878.365 2249.5,871.81 2252.74,865.247 2255.98,858.675 2259.23,852.096 2262.47,845.51 2265.71,838.918 2268.96,832.32 2272.2,825.718 2275.44,819.111 2278.69,812.501 2281.93,805.888 2285.17,799.273 2288.41,792.656 2291.66,786.038 "/>
<circle clip-path="url(#clip881)" cx="1912.22" cy="1424.08" r="14.4" fill="#e26f46" fill-rule="evenodd" fill-opacity="1" stroke="#000000" stroke-opacity="1" stroke-width="3.2"/>
<circle clip-path="url(#clip881)" cx="400.971" cy="640.093" r="14.4" fill="#e26f46" fill-rule="evenodd" fill-opacity="1" stroke="#000000" stroke-opacity="1" stroke-width="3.2"/>
<circle clip-path="url(#clip881)" cx="2119.78" cy="1118.15" r="14.4" fill="#e26f46" fill-rule="evenodd" fill-opacity="1" stroke="#000000" stroke-opacity="1" stroke-width="3.2"/>
<circle clip-path="url(#clip881)" cx="378.27" cy="526.125" r="14.4" fill="#e26f46" fill-rule="evenodd" fill-opacity="1" stroke="#000000" stroke-opacity="1" stroke-width="3.2"/>
<circle clip-path="url(#clip881)" cx="832.294" cy="87.9763" r="14.4" fill="#e26f46" fill-rule="evenodd" fill-opacity="1" stroke="#000000" stroke-opacity="1" stroke-width="3.2"/>
<circle clip-path="url(#clip881)" cx="631.226" cy="295.96" r="14.4" fill="#e26f46" fill-rule="evenodd" fill-opacity="1" stroke="#000000" stroke-opacity="1" stroke-width="3.2"/>
<circle clip-path="url(#clip881)" cx="585.824" cy="250.476" r="14.4" fill="#e26f46" fill-rule="evenodd" fill-opacity="1" stroke="#000000" stroke-opacity="1" stroke-width="3.2"/>
<circle clip-path="url(#clip881)" cx="2158.69" cy="1087.15" r="14.4" fill="#e26f46" fill-rule="evenodd" fill-opacity="1" stroke="#000000" stroke-opacity="1" stroke-width="3.2"/>
<circle clip-path="url(#clip881)" cx="1409.55" cy="1181.93" r="14.4" fill="#e26f46" fill-rule="evenodd" fill-opacity="1" stroke="#000000" stroke-opacity="1" stroke-width="3.2"/>
<circle clip-path="url(#clip881)" cx="2110.05" cy="1160.26" r="14.4" fill="#e26f46" fill-rule="evenodd" fill-opacity="1" stroke="#000000" stroke-opacity="1" stroke-width="3.2"/>
<circle clip-path="url(#clip881)" cx="1662.51" cy="1408.23" r="14.4" fill="#e26f46" fill-rule="evenodd" fill-opacity="1" stroke="#000000" stroke-opacity="1" stroke-width="3.2"/>
<circle clip-path="url(#clip881)" cx="433.401" cy="323.615" r="14.4" fill="#e26f46" fill-rule="evenodd" fill-opacity="1" stroke="#000000" stroke-opacity="1" stroke-width="3.2"/>
<circle clip-path="url(#clip881)" cx="280.979" cy="590.144" r="14.4" fill="#e26f46" fill-rule="evenodd" fill-opacity="1" stroke="#000000" stroke-opacity="1" stroke-width="3.2"/>
<circle clip-path="url(#clip881)" cx="1133.9" cy="585.797" r="14.4" fill="#e26f46" fill-rule="evenodd" fill-opacity="1" stroke="#000000" stroke-opacity="1" stroke-width="3.2"/>
<circle clip-path="url(#clip881)" cx="1036.6" cy="327.072" r="14.4" fill="#e26f46" fill-rule="evenodd" fill-opacity="1" stroke="#000000" stroke-opacity="1" stroke-width="3.2"/>
<circle clip-path="url(#clip881)" cx="2178.15" cy="1150.49" r="14.4" fill="#e26f46" fill-rule="evenodd" fill-opacity="1" stroke="#000000" stroke-opacity="1" stroke-width="3.2"/>
<circle clip-path="url(#clip881)" cx="1117.68" cy="352.422" r="14.4" fill="#e26f46" fill-rule="evenodd" fill-opacity="1" stroke="#000000" stroke-opacity="1" stroke-width="3.2"/>
<circle clip-path="url(#clip881)" cx="968.501" cy="241.201" r="14.4" fill="#e26f46" fill-rule="evenodd" fill-opacity="1" stroke="#000000" stroke-opacity="1" stroke-width="3.2"/>
<circle clip-path="url(#clip881)" cx="1312.26" cy="857.341" r="14.4" fill="#e26f46" fill-rule="evenodd" fill-opacity="1" stroke="#000000" stroke-opacity="1" stroke-width="3.2"/>
<circle clip-path="url(#clip881)" cx="1480.9" cy="1298.8" r="14.4" fill="#e26f46" fill-rule="evenodd" fill-opacity="1" stroke="#000000" stroke-opacity="1" stroke-width="3.2"/>
<path clip-path="url(#clip880)" d="M1953.46 250.738 L2280.8 250.738 L2280.8 95.2176 L1953.46 95.2176  Z" fill="#ffffff" fill-rule="evenodd" fill-opacity="1"/>
<polyline clip-path="url(#clip880)" style="stroke:#000000; stroke-linecap:round; stroke-linejoin:round; stroke-width:4; stroke-opacity:1; fill:none" points="1953.46,250.738 2280.8,250.738 2280.8,95.2176 1953.46,95.2176 1953.46,250.738 "/>
<polyline clip-path="url(#clip880)" style="stroke:#009af9; stroke-linecap:round; stroke-linejoin:round; stroke-width:4; stroke-opacity:1; fill:none" points="1977.44,147.058 2121.36,147.058 "/>
<path clip-path="url(#clip880)" d="M2152.76 131.051 L2152.76 138.412 L2161.53 138.412 L2161.53 141.722 L2152.76 141.722 L2152.76 155.796 Q2152.76 158.967 2153.61 159.87 Q2154.49 160.773 2157.16 160.773 L2161.53 160.773 L2161.53 164.338 L2157.16 164.338 Q2152.23 164.338 2150.35 162.509 Q2148.48 160.657 2148.48 155.796 L2148.48 141.722 L2145.35 141.722 L2145.35 138.412 L2148.48 138.412 L2148.48 131.051 L2152.76 131.051 Z" fill="#000000" fill-rule="nonzero" fill-opacity="1" /><path clip-path="url(#clip880)" d="M2182.16 142.393 Q2181.44 141.977 2180.58 141.791 Q2179.75 141.583 2178.73 141.583 Q2175.12 141.583 2173.17 143.944 Q2171.25 146.282 2171.25 150.68 L2171.25 164.338 L2166.97 164.338 L2166.97 138.412 L2171.25 138.412 L2171.25 142.44 Q2172.6 140.078 2174.75 138.944 Q2176.9 137.787 2179.98 137.787 Q2180.42 137.787 2180.95 137.856 Q2181.48 137.903 2182.13 138.018 L2182.16 142.393 Z" fill="#000000" fill-rule="nonzero" fill-opacity="1" /><path clip-path="url(#clip880)" d="M2186.18 154.106 L2186.18 138.412 L2190.44 138.412 L2190.44 153.944 Q2190.44 157.625 2191.88 159.476 Q2193.31 161.305 2196.18 161.305 Q2199.63 161.305 2201.62 159.106 Q2203.64 156.907 2203.64 153.111 L2203.64 138.412 L2207.9 138.412 L2207.9 164.338 L2203.64 164.338 L2203.64 160.356 Q2202.09 162.717 2200.03 163.875 Q2197.99 165.009 2195.28 165.009 Q2190.81 165.009 2188.5 162.231 Q2186.18 159.453 2186.18 154.106 M2196.9 137.787 L2196.9 137.787 Z" fill="#000000" fill-rule="nonzero" fill-opacity="1" /><path clip-path="url(#clip880)" d="M2220.88 131.051 L2220.88 138.412 L2229.66 138.412 L2229.66 141.722 L2220.88 141.722 L2220.88 155.796 Q2220.88 158.967 2221.74 159.87 Q2222.62 160.773 2225.28 160.773 L2229.66 160.773 L2229.66 164.338 L2225.28 164.338 Q2220.35 164.338 2218.48 162.509 Q2216.6 160.657 2216.6 155.796 L2216.6 141.722 L2213.48 141.722 L2213.48 138.412 L2216.6 138.412 L2216.6 131.051 L2220.88 131.051 Z" fill="#000000" fill-rule="nonzero" fill-opacity="1" /><path clip-path="url(#clip880)" d="M2256.81 148.689 L2256.81 164.338 L2252.55 164.338 L2252.55 148.828 Q2252.55 145.148 2251.11 143.319 Q2249.68 141.49 2246.81 141.49 Q2243.36 141.49 2241.37 143.69 Q2239.38 145.889 2239.38 149.685 L2239.38 164.338 L2235.1 164.338 L2235.1 128.319 L2239.38 128.319 L2239.38 142.44 Q2240.91 140.102 2242.97 138.944 Q2245.05 137.787 2247.76 137.787 Q2252.23 137.787 2254.52 140.565 Q2256.81 143.319 2256.81 148.689 Z" fill="#000000" fill-rule="nonzero" fill-opacity="1" /><circle clip-path="url(#clip880)" cx="2049.4" cy="198.898" r="20.48" fill="#e26f46" fill-rule="evenodd" fill-opacity="1" stroke="#000000" stroke-opacity="1" stroke-width="4.55111"/>
<path clip-path="url(#clip880)" d="M2164.26 194.187 L2164.26 180.159 L2168.52 180.159 L2168.52 216.178 L2164.26 216.178 L2164.26 212.289 Q2162.92 214.603 2160.86 215.738 Q2158.82 216.849 2155.95 216.849 Q2151.25 216.849 2148.29 213.099 Q2145.35 209.349 2145.35 203.238 Q2145.35 197.127 2148.29 193.377 Q2151.25 189.627 2155.95 189.627 Q2158.82 189.627 2160.86 190.761 Q2162.92 191.872 2164.26 194.187 M2149.75 203.238 Q2149.75 207.937 2151.67 210.622 Q2153.61 213.284 2156.99 213.284 Q2160.37 213.284 2162.32 210.622 Q2164.26 207.937 2164.26 203.238 Q2164.26 198.539 2162.32 195.877 Q2160.37 193.192 2156.99 193.192 Q2153.61 193.192 2151.67 195.877 Q2149.75 198.539 2149.75 203.238 Z" fill="#000000" fill-rule="nonzero" fill-opacity="1" /><path clip-path="url(#clip880)" d="M2189.08 203.145 Q2183.92 203.145 2181.92 204.326 Q2179.93 205.506 2179.93 208.354 Q2179.93 210.622 2181.42 211.965 Q2182.92 213.284 2185.49 213.284 Q2189.03 213.284 2191.16 210.784 Q2193.31 208.261 2193.31 204.094 L2193.31 203.145 L2189.08 203.145 M2197.57 201.386 L2197.57 216.178 L2193.31 216.178 L2193.31 212.242 Q2191.85 214.603 2189.68 215.738 Q2187.5 216.849 2184.36 216.849 Q2180.37 216.849 2178.01 214.627 Q2175.67 212.381 2175.67 208.631 Q2175.67 204.256 2178.59 202.034 Q2181.53 199.812 2187.34 199.812 L2193.31 199.812 L2193.31 199.395 Q2193.31 196.455 2191.37 194.858 Q2189.45 193.238 2185.95 193.238 Q2183.73 193.238 2181.62 193.77 Q2179.52 194.303 2177.57 195.367 L2177.57 191.432 Q2179.91 190.53 2182.11 190.09 Q2184.31 189.627 2186.39 189.627 Q2192.02 189.627 2194.79 192.543 Q2197.57 195.46 2197.57 201.386 Z" fill="#000000" fill-rule="nonzero" fill-opacity="1" /><path clip-path="url(#clip880)" d="M2210.56 182.891 L2210.56 190.252 L2219.33 190.252 L2219.33 193.562 L2210.56 193.562 L2210.56 207.636 Q2210.56 210.807 2211.42 211.71 Q2212.29 212.613 2214.96 212.613 L2219.33 212.613 L2219.33 216.178 L2214.96 216.178 Q2210.03 216.178 2208.15 214.349 Q2206.28 212.497 2206.28 207.636 L2206.28 193.562 L2203.15 193.562 L2203.15 190.252 L2206.28 190.252 L2206.28 182.891 L2210.56 182.891 Z" fill="#000000" fill-rule="nonzero" fill-opacity="1" /><path clip-path="url(#clip880)" d="M2236.72 203.145 Q2231.55 203.145 2229.56 204.326 Q2227.57 205.506 2227.57 208.354 Q2227.57 210.622 2229.05 211.965 Q2230.56 213.284 2233.13 213.284 Q2236.67 213.284 2238.8 210.784 Q2240.95 208.261 2240.95 204.094 L2240.95 203.145 L2236.72 203.145 M2245.21 201.386 L2245.21 216.178 L2240.95 216.178 L2240.95 212.242 Q2239.49 214.603 2237.32 215.738 Q2235.14 216.849 2231.99 216.849 Q2228.01 216.849 2225.65 214.627 Q2223.31 212.381 2223.31 208.631 Q2223.31 204.256 2226.23 202.034 Q2229.17 199.812 2234.98 199.812 L2240.95 199.812 L2240.95 199.395 Q2240.95 196.455 2239.01 194.858 Q2237.09 193.238 2233.59 193.238 Q2231.37 193.238 2229.26 193.77 Q2227.16 194.303 2225.21 195.367 L2225.21 191.432 Q2227.55 190.53 2229.75 190.09 Q2231.95 189.627 2234.03 189.627 Q2239.66 189.627 2242.43 192.543 Q2245.21 195.46 2245.21 201.386 Z" fill="#000000" fill-rule="nonzero" fill-opacity="1" /></svg>
