<?xml version="1.0" encoding="utf-8"?>
<svg xmlns="http://www.w3.org/2000/svg" xmlns:xlink="http://www.w3.org/1999/xlink" width="600" height="400" viewBox="0 0 2400 1600">
<defs>
  <clipPath id="clip580">
    <rect x="0" y="0" width="2400" height="1600"/>
  </clipPath>
</defs>
<path clip-path="url(#clip580)" d="M0 1600 L2400 1600 L2400 0 L0 0  Z" fill="#ffffff" fill-rule="evenodd" fill-opacity="1"/>
<defs>
  <clipPath id="clip581">
    <rect x="480" y="0" width="1681" height="1600"/>
  </clipPath>
</defs>
<path clip-path="url(#clip580)" d="M193.936 1486.45 L2352.76 1486.45 L2352.76 47.2441 L193.936 47.2441  Z" fill="#ffffff" fill-rule="evenodd" fill-opacity="1"/>
<defs>
  <clipPath id="clip582">
    <rect x="193" y="47" width="2160" height="1440"/>
  </clipPath>
</defs>
<polyline clip-path="url(#clip582)" style="stroke:#000000; stroke-linecap:round; stroke-linejoin:round; stroke-width:2; stroke-opacity:0.1; fill:none" points="255.035,1486.45 255.035,47.2441 "/>
<polyline clip-path="url(#clip582)" style="stroke:#000000; stroke-linecap:round; stroke-linejoin:round; stroke-width:2; stroke-opacity:0.1; fill:none" points="579.338,1486.45 579.338,47.2441 "/>
<polyline clip-path="url(#clip582)" style="stroke:#000000; stroke-linecap:round; stroke-linejoin:round; stroke-width:2; stroke-opacity:0.1; fill:none" points="903.641,1486.45 903.641,47.2441 "/>
<polyline clip-path="url(#clip582)" style="stroke:#000000; stroke-linecap:round; stroke-linejoin:round; stroke-width:2; stroke-opacity:0.1; fill:none" points="1227.94,1486.45 1227.94,47.2441 "/>
<polyline clip-path="url(#clip582)" style="stroke:#000000; stroke-linecap:round; stroke-linejoin:round; stroke-width:2; stroke-opacity:0.1; fill:none" points="1552.25,1486.45 1552.25,47.2441 "/>
<polyline clip-path="url(#clip582)" style="stroke:#000000; stroke-linecap:round; stroke-linejoin:round; stroke-width:2; stroke-opacity:0.1; fill:none" points="1876.55,1486.45 1876.55,47.2441 "/>
<polyline clip-path="url(#clip582)" style="stroke:#000000; stroke-linecap:round; stroke-linejoin:round; stroke-width:2; stroke-opacity:0.1; fill:none" points="2200.85,1486.45 2200.85,47.2441 "/>
<polyline clip-path="url(#clip582)" style="stroke:#000000; stroke-linecap:round; stroke-linejoin:round; stroke-width:2; stroke-opacity:0.1; fill:none" points="193.936,1327.78 2352.76,1327.78 "/>
<polyline clip-path="url(#clip582)" style="stroke:#000000; stroke-linecap:round; stroke-linejoin:round; stroke-width:2; stroke-opacity:0.1; fill:none" points="193.936,1017.83 2352.76,1017.83 "/>
<polyline clip-path="url(#clip582)" style="stroke:#000000; stroke-linecap:round; stroke-linejoin:round; stroke-width:2; stroke-opacity:0.1; fill:none" points="193.936,707.877 2352.76,707.877 "/>
<polyline clip-path="url(#clip582)" style="stroke:#000000; stroke-linecap:round; stroke-linejoin:round; stroke-width:2; stroke-opacity:0.1; fill:none" points="193.936,397.926 2352.76,397.926 "/>
<polyline clip-path="url(#clip582)" style="stroke:#000000; stroke-linecap:round; stroke-linejoin:round; stroke-width:2; stroke-opacity:0.1; fill:none" points="193.936,87.9761 2352.76,87.9761 "/>
<polyline clip-path="url(#clip580)" style="stroke:#000000; stroke-linecap:round; stroke-linejoin:round; stroke-width:4; stroke-opacity:1; fill:none" points="193.936,1486.45 2352.76,1486.45 "/>
<polyline clip-path="url(#clip580)" style="stroke:#000000; stroke-linecap:round; stroke-linejoin:round; stroke-width:4; stroke-opacity:1; fill:none" points="255.035,1486.45 255.035,1467.55 "/>
<polyline clip-path="url(#clip580)" style="stroke:#000000; stroke-linecap:round; stroke-linejoin:round; stroke-width:4; stroke-opacity:1; fill:none" points="579.338,1486.45 579.338,1467.55 "/>
<polyline clip-path="url(#clip580)" style="stroke:#000000; stroke-linecap:round; stroke-linejoin:round; stroke-width:4; stroke-opacity:1; fill:none" points="903.641,1486.45 903.641,1467.55 "/>
<polyline clip-path="url(#clip580)" style="stroke:#000000; stroke-linecap:round; stroke-linejoin:round; stroke-width:4; stroke-opacity:1; fill:none" points="1227.94,1486.45 1227.94,1467.55 "/>
<polyline clip-path="url(#clip580)" style="stroke:#000000; stroke-linecap:round; stroke-linejoin:round; stroke-width:4; stroke-opacity:1; fill:none" points="1552.25,1486.45 1552.25,1467.55 "/>
<polyline clip-path="url(#clip580)" style="stroke:#000000; stroke-linecap:round; stroke-linejoin:round; stroke-width:4; stroke-opacity:1; fill:none" points="1876.55,1486.45 1876.55,1467.55 "/>
<polyline clip-path="url(#clip580)" style="stroke:#000000; stroke-linecap:round; stroke-linejoin:round; stroke-width:4; stroke-opacity:1; fill:none" points="2200.85,1486.45 2200.85,1467.55 "/>
<path clip-path="url(#clip580)" d="M255.035 1517.37 Q251.424 1517.37 249.595 1520.93 Q247.789 1524.47 247.789 1531.6 Q247.789 1538.71 249.595 1542.27 Q251.424 1545.82 255.035 1545.82 Q258.669 1545.82 260.474 1542.27 Q262.303 1538.71 262.303 1531.6 Q262.303 1524.47 260.474 1520.93 Q258.669 1517.37 255.035 1517.37 M255.035 1513.66 Q260.845 1513.66 263.9 1518.27 Q266.979 1522.85 266.979 1531.6 Q266.979 1540.33 263.9 1544.94 Q260.845 1549.52 255.035 1549.52 Q249.225 1549.52 246.146 1544.94 Q243.09 1540.33 243.09 1531.6 Q243.09 1522.85 246.146 1518.27 Q249.225 1513.66 255.035 1513.66 Z" fill="#000000" fill-rule="nonzero" fill-opacity="1" /><path clip-path="url(#clip580)" d="M569.72 1544.91 L577.358 1544.91 L577.358 1518.55 L569.048 1520.21 L569.048 1515.95 L577.312 1514.29 L581.988 1514.29 L581.988 1544.91 L589.627 1544.91 L589.627 1548.85 L569.72 1548.85 L569.72 1544.91 Z" fill="#000000" fill-rule="nonzero" fill-opacity="1" /><path clip-path="url(#clip580)" d="M898.293 1544.91 L914.613 1544.91 L914.613 1548.85 L892.668 1548.85 L892.668 1544.91 Q895.33 1542.16 899.914 1537.53 Q904.52 1532.88 905.701 1531.53 Q907.946 1529.01 908.826 1527.27 Q909.729 1525.51 909.729 1523.82 Q909.729 1521.07 907.784 1519.33 Q905.863 1517.6 902.761 1517.6 Q900.562 1517.6 898.108 1518.36 Q895.678 1519.13 892.9 1520.68 L892.9 1515.95 Q895.724 1514.82 898.178 1514.24 Q900.631 1513.66 902.668 1513.66 Q908.039 1513.66 911.233 1516.35 Q914.428 1519.03 914.428 1523.52 Q914.428 1525.65 913.617 1527.57 Q912.83 1529.47 910.724 1532.07 Q910.145 1532.74 907.043 1535.95 Q903.942 1539.15 898.293 1544.91 Z" fill="#000000" fill-rule="nonzero" fill-opacity="1" /><path clip-path="url(#clip580)" d="M1232.19 1530.21 Q1235.55 1530.93 1237.42 1533.2 Q1239.32 1535.47 1239.32 1538.8 Q1239.32 1543.92 1235.8 1546.72 Q1232.28 1549.52 1225.8 1549.52 Q1223.63 1549.52 1221.31 1549.08 Q1219.02 1548.66 1216.57 1547.81 L1216.57 1543.29 Q1218.51 1544.43 1220.83 1545.01 Q1223.14 1545.58 1225.66 1545.58 Q1230.06 1545.58 1232.35 1543.85 Q1234.67 1542.11 1234.67 1538.8 Q1234.67 1535.75 1232.52 1534.03 Q1230.39 1532.3 1226.57 1532.3 L1222.54 1532.3 L1222.54 1528.45 L1226.75 1528.45 Q1230.2 1528.45 1232.03 1527.09 Q1233.86 1525.7 1233.86 1523.11 Q1233.86 1520.45 1231.96 1519.03 Q1230.08 1517.6 1226.57 1517.6 Q1224.64 1517.6 1222.45 1518.01 Q1220.25 1518.43 1217.61 1519.31 L1217.61 1515.14 Q1220.27 1514.4 1222.58 1514.03 Q1224.92 1513.66 1226.98 1513.66 Q1232.31 1513.66 1235.41 1516.09 Q1238.51 1518.5 1238.51 1522.62 Q1238.51 1525.49 1236.87 1527.48 Q1235.22 1529.45 1232.19 1530.21 Z" fill="#000000" fill-rule="nonzero" fill-opacity="1" /><path clip-path="url(#clip580)" d="M1555.26 1518.36 L1543.45 1536.81 L1555.26 1536.81 L1555.26 1518.36 M1554.03 1514.29 L1559.91 1514.29 L1559.91 1536.81 L1564.84 1536.81 L1564.84 1540.7 L1559.91 1540.7 L1559.91 1548.85 L1555.26 1548.85 L1555.26 1540.7 L1539.65 1540.7 L1539.65 1536.19 L1554.03 1514.29 Z" fill="#000000" fill-rule="nonzero" fill-opacity="1" /><path clip-path="url(#clip580)" d="M1866.83 1514.29 L1885.18 1514.29 L1885.18 1518.22 L1871.11 1518.22 L1871.11 1526.7 Q1872.13 1526.35 1873.15 1526.19 Q1874.17 1526 1875.18 1526 Q1880.97 1526 1884.35 1529.17 Q1887.73 1532.34 1887.73 1537.76 Q1887.73 1543.34 1884.26 1546.44 Q1880.79 1549.52 1874.47 1549.52 Q1872.29 1549.52 1870.02 1549.15 Q1867.78 1548.78 1865.37 1548.04 L1865.37 1543.34 Q1867.45 1544.47 1869.67 1545.03 Q1871.9 1545.58 1874.37 1545.58 Q1878.38 1545.58 1880.72 1543.48 Q1883.05 1541.37 1883.05 1537.76 Q1883.05 1534.15 1880.72 1532.04 Q1878.38 1529.94 1874.37 1529.94 Q1872.5 1529.94 1870.62 1530.35 Q1868.77 1530.77 1866.83 1531.65 L1866.83 1514.29 Z" fill="#000000" fill-rule="nonzero" fill-opacity="1" /><path clip-path="url(#clip580)" d="M2201.26 1529.7 Q2198.11 1529.7 2196.26 1531.86 Q2194.43 1534.01 2194.43 1537.76 Q2194.43 1541.49 2196.26 1543.66 Q2198.11 1545.82 2201.26 1545.82 Q2204.41 1545.82 2206.23 1543.66 Q2208.09 1541.49 2208.09 1537.76 Q2208.09 1534.01 2206.23 1531.86 Q2204.41 1529.7 2201.26 1529.7 M2210.54 1515.05 L2210.54 1519.31 Q2208.78 1518.48 2206.98 1518.04 Q2205.19 1517.6 2203.43 1517.6 Q2198.8 1517.6 2196.35 1520.72 Q2193.92 1523.85 2193.57 1530.17 Q2194.94 1528.15 2197 1527.09 Q2199.06 1526 2201.54 1526 Q2206.74 1526 2209.75 1529.17 Q2212.79 1532.32 2212.79 1537.76 Q2212.79 1543.08 2209.64 1546.3 Q2206.49 1549.52 2201.26 1549.52 Q2195.26 1549.52 2192.09 1544.94 Q2188.92 1540.33 2188.92 1531.6 Q2188.92 1523.41 2192.81 1518.55 Q2196.7 1513.66 2203.25 1513.66 Q2205.01 1513.66 2206.79 1514.01 Q2208.6 1514.36 2210.54 1515.05 Z" fill="#000000" fill-rule="nonzero" fill-opacity="1" /><polyline clip-path="url(#clip580)" style="stroke:#000000; stroke-linecap:round; stroke-linejoin:round; stroke-width:4; stroke-opacity:1; fill:none" points="193.936,1486.45 193.936,47.2441 "/>
<polyline clip-path="url(#clip580)" style="stroke:#000000; stroke-linecap:round; stroke-linejoin:round; stroke-width:4; stroke-opacity:1; fill:none" points="193.936,1327.78 212.834,1327.78 "/>
<polyline clip-path="url(#clip580)" style="stroke:#000000; stroke-linecap:round; stroke-linejoin:round; stroke-width:4; stroke-opacity:1; fill:none" points="193.936,1017.83 212.834,1017.83 "/>
<polyline clip-path="url(#clip580)" style="stroke:#000000; stroke-linecap:round; stroke-linejoin:round; stroke-width:4; stroke-opacity:1; fill:none" points="193.936,707.877 212.834,707.877 "/>
<polyline clip-path="url(#clip580)" style="stroke:#000000; stroke-linecap:round; stroke-linejoin:round; stroke-width:4; stroke-opacity:1; fill:none" points="193.936,397.926 212.834,397.926 "/>
<polyline clip-path="url(#clip580)" style="stroke:#000000; stroke-linecap:round; stroke-linejoin:round; stroke-width:4; stroke-opacity:1; fill:none" points="193.936,87.9761 212.834,87.9761 "/>
<path clip-path="url(#clip580)" d="M50.9921 1328.23 L80.6679 1328.23 L80.6679 1332.16 L50.9921 1332.16 L50.9921 1328.23 Z" fill="#000000" fill-rule="nonzero" fill-opacity="1" /><path clip-path="url(#clip580)" d="M91.5706 1341.12 L99.2095 1341.12 L99.2095 1314.76 L90.8993 1316.42 L90.8993 1312.16 L99.1632 1310.5 L103.839 1310.5 L103.839 1341.12 L111.478 1341.12 L111.478 1345.06 L91.5706 1345.06 L91.5706 1341.12 Z" fill="#000000" fill-rule="nonzero" fill-opacity="1" /><path clip-path="url(#clip580)" d="M120.922 1339.18 L125.807 1339.18 L125.807 1345.06 L120.922 1345.06 L120.922 1339.18 Z" fill="#000000" fill-rule="nonzero" fill-opacity="1" /><path clip-path="url(#clip580)" d="M145.992 1313.58 Q142.381 1313.58 140.552 1317.14 Q138.746 1320.68 138.746 1327.81 Q138.746 1334.92 140.552 1338.48 Q142.381 1342.02 145.992 1342.02 Q149.626 1342.02 151.431 1338.48 Q153.26 1334.92 153.26 1327.81 Q153.26 1320.68 151.431 1317.14 Q149.626 1313.58 145.992 1313.58 M145.992 1309.87 Q151.802 1309.87 154.857 1314.48 Q157.936 1319.06 157.936 1327.81 Q157.936 1336.54 154.857 1341.15 Q151.802 1345.73 145.992 1345.73 Q140.181 1345.73 137.103 1341.15 Q134.047 1336.54 134.047 1327.81 Q134.047 1319.06 137.103 1314.48 Q140.181 1309.87 145.992 1309.87 Z" fill="#000000" fill-rule="nonzero" fill-opacity="1" /><path clip-path="url(#clip580)" d="M51.9875 1018.28 L81.6633 1018.28 L81.6633 1022.21 L51.9875 1022.21 L51.9875 1018.28 Z" fill="#000000" fill-rule="nonzero" fill-opacity="1" /><path clip-path="url(#clip580)" d="M101.756 1003.63 Q98.1447 1003.63 96.316 1007.19 Q94.5104 1010.73 94.5104 1017.86 Q94.5104 1024.97 96.316 1028.53 Q98.1447 1032.07 101.756 1032.07 Q105.39 1032.07 107.196 1028.53 Q109.024 1024.97 109.024 1017.86 Q109.024 1010.73 107.196 1007.19 Q105.39 1003.63 101.756 1003.63 M101.756 999.922 Q107.566 999.922 110.621 1004.53 Q113.7 1009.11 113.7 1017.86 Q113.7 1026.59 110.621 1031.19 Q107.566 1035.78 101.756 1035.78 Q95.9456 1035.78 92.8669 1031.19 Q89.8114 1026.59 89.8114 1017.86 Q89.8114 1009.11 92.8669 1004.53 Q95.9456 999.922 101.756 999.922 Z" fill="#000000" fill-rule="nonzero" fill-opacity="1" /><path clip-path="url(#clip580)" d="M121.918 1029.23 L126.802 1029.23 L126.802 1035.11 L121.918 1035.11 L121.918 1029.23 Z" fill="#000000" fill-rule="nonzero" fill-opacity="1" /><path clip-path="url(#clip580)" d="M137.033 1000.55 L155.39 1000.55 L155.39 1004.48 L141.316 1004.48 L141.316 1012.95 Q142.334 1012.61 143.353 1012.45 Q144.371 1012.26 145.39 1012.26 Q151.177 1012.26 154.556 1015.43 Q157.936 1018.6 157.936 1024.02 Q157.936 1029.6 154.464 1032.7 Q150.992 1035.78 144.672 1035.78 Q142.496 1035.78 140.228 1035.41 Q137.982 1035.04 135.575 1034.3 L135.575 1029.6 Q137.658 1030.73 139.881 1031.29 Q142.103 1031.84 144.58 1031.84 Q148.584 1031.84 150.922 1029.74 Q153.26 1027.63 153.26 1024.02 Q153.26 1020.41 150.922 1018.3 Q148.584 1016.2 144.58 1016.2 Q142.705 1016.2 140.83 1016.61 Q138.978 1017.03 137.033 1017.91 L137.033 1000.55 Z" fill="#000000" fill-rule="nonzero" fill-opacity="1" /><path clip-path="url(#clip580)" d="M100.76 693.675 Q97.1493 693.675 95.3206 697.24 Q93.515 700.782 93.515 707.911 Q93.515 715.018 95.3206 718.583 Q97.1493 722.124 100.76 722.124 Q104.395 722.124 106.2 718.583 Q108.029 715.018 108.029 707.911 Q108.029 700.782 106.2 697.24 Q104.395 693.675 100.76 693.675 M100.76 689.972 Q106.571 689.972 109.626 694.578 Q112.705 699.161 112.705 707.911 Q112.705 716.638 109.626 721.245 Q106.571 725.828 100.76 725.828 Q94.9502 725.828 91.8715 721.245 Q88.816 716.638 88.816 707.911 Q88.816 699.161 91.8715 694.578 Q94.9502 689.972 100.76 689.972 Z" fill="#000000" fill-rule="nonzero" fill-opacity="1" /><path clip-path="url(#clip580)" d="M120.922 719.277 L125.807 719.277 L125.807 725.157 L120.922 725.157 L120.922 719.277 Z" fill="#000000" fill-rule="nonzero" fill-opacity="1" /><path clip-path="url(#clip580)" d="M145.992 693.675 Q142.381 693.675 140.552 697.24 Q138.746 700.782 138.746 707.911 Q138.746 715.018 140.552 718.583 Q142.381 722.124 145.992 722.124 Q149.626 722.124 151.431 718.583 Q153.26 715.018 153.26 707.911 Q153.26 700.782 151.431 697.24 Q149.626 693.675 145.992 693.675 M145.992 689.972 Q151.802 689.972 154.857 694.578 Q157.936 699.161 157.936 707.911 Q157.936 716.638 154.857 721.245 Q151.802 725.828 145.992 725.828 Q140.181 725.828 137.103 721.245 Q134.047 716.638 134.047 707.911 Q134.047 699.161 137.103 694.578 Q140.181 689.972 145.992 689.972 Z" fill="#000000" fill-rule="nonzero" fill-opacity="1" /><path clip-path="url(#clip580)" d="M101.756 383.725 Q98.1447 383.725 96.316 387.29 Q94.5104 390.831 94.5104 397.961 Q94.5104 405.068 96.316 408.632 Q98.1447 412.174 101.756 412.174 Q105.39 412.174 107.196 408.632 Q109.024 405.068 109.024 397.961 Q109.024 390.831 107.196 387.29 Q105.39 383.725 101.756 383.725 M101.756 380.021 Q107.566 380.021 110.621 384.628 Q113.7 389.211 113.7 397.961 Q113.7 406.688 110.621 411.294 Q107.566 415.878 101.756 415.878 Q95.9456 415.878 92.8669 411.294 Q89.8114 406.688 89.8114 397.961 Q89.8114 389.211 92.8669 384.628 Q95.9456 380.021 101.756 380.021 Z" fill="#000000" fill-rule="nonzero" fill-opacity="1" /><path clip-path="url(#clip580)" d="M121.918 409.327 L126.802 409.327 L126.802 415.206 L121.918 415.206 L121.918 409.327 Z" fill="#000000" fill-rule="nonzero" fill-opacity="1" /><path clip-path="url(#clip580)" d="M137.033 380.646 L155.39 380.646 L155.39 384.582 L141.316 384.582 L141.316 393.054 Q142.334 392.706 143.353 392.544 Q144.371 392.359 145.39 392.359 Q151.177 392.359 154.556 395.531 Q157.936 398.702 157.936 404.118 Q157.936 409.697 154.464 412.799 Q150.992 415.878 144.672 415.878 Q142.496 415.878 140.228 415.507 Q137.982 415.137 135.575 414.396 L135.575 409.697 Q137.658 410.831 139.881 411.387 Q142.103 411.942 144.58 411.942 Q148.584 411.942 150.922 409.836 Q153.26 407.73 153.26 404.118 Q153.26 400.507 150.922 398.401 Q148.584 396.294 144.58 396.294 Q142.705 396.294 140.83 396.711 Q138.978 397.128 137.033 398.007 L137.033 380.646 Z" fill="#000000" fill-rule="nonzero" fill-opacity="1" /><path clip-path="url(#clip580)" d="M91.5706 101.321 L99.2095 101.321 L99.2095 74.9553 L90.8993 76.622 L90.8993 72.3627 L99.1632 70.6961 L103.839 70.6961 L103.839 101.321 L111.478 101.321 L111.478 105.256 L91.5706 105.256 L91.5706 101.321 Z" fill="#000000" fill-rule="nonzero" fill-opacity="1" /><path clip-path="url(#clip580)" d="M120.922 99.3765 L125.807 99.3765 L125.807 105.256 L120.922 105.256 L120.922 99.3765 Z" fill="#000000" fill-rule="nonzero" fill-opacity="1" /><path clip-path="url(#clip580)" d="M145.992 73.7748 Q142.381 73.7748 140.552 77.3396 Q138.746 80.8812 138.746 88.0108 Q138.746 95.1172 140.552 98.682 Q142.381 102.224 145.992 102.224 Q149.626 102.224 151.431 98.682 Q153.26 95.1172 153.26 88.0108 Q153.26 80.8812 151.431 77.3396 Q149.626 73.7748 145.992 73.7748 M145.992 70.0711 Q151.802 70.0711 154.857 74.6775 Q157.936 79.2608 157.936 88.0108 Q157.936 96.7376 154.857 101.344 Q151.802 105.927 145.992 105.927 Q140.181 105.927 137.103 101.344 Q134.047 96.7376 134.047 88.0108 Q134.047 79.2608 137.103 74.6775 Q140.181 70.0711 145.992 70.0711 Z" fill="#000000" fill-rule="nonzero" fill-opacity="1" /><polyline clip-path="url(#clip582)" style="stroke:#009af9; stroke-linecap:round; stroke-linejoin:round; stroke-width:4; stroke-opacity:1; fill:none" points="255.035,707.877 258.278,701.678 261.521,695.479 264.764,689.282 268.007,683.087 271.25,676.895 274.493,670.705 277.736,664.519 280.979,658.337 284.222,652.161 287.465,645.99 290.708,639.825 293.951,633.667 297.194,627.516 300.437,621.374 303.68,615.24 306.923,609.115 310.166,603 313.409,596.896 316.652,590.803 319.895,584.721 323.138,578.652 326.381,572.596 329.624,566.553 332.867,560.525 336.11,554.511 339.353,548.512 342.596,542.53 345.84,536.564 349.083,530.615 352.326,524.684 355.569,518.771 358.812,512.877 362.055,507.002 365.298,501.148 368.541,495.314 371.784,489.502 375.027,483.711 378.27,477.943 381.513,472.198 384.756,466.476 387.999,460.779 391.242,455.106 394.485,449.458 397.728,443.837 400.971,438.241 404.214,432.673 407.457,427.132 410.7,421.619 413.943,416.135 417.186,410.68 420.429,405.255 423.672,399.86 426.915,394.496 430.158,389.163 433.401,383.863 436.644,378.594 439.887,373.358 443.13,368.156 446.373,362.988 449.616,357.854 452.859,352.756 456.103,347.693 459.346,342.665 462.589,337.675 465.832,332.721 469.075,327.805 472.318,322.927 475.561,318.087 478.804,313.287 482.047,308.526 485.29,303.805 488.533,299.124 491.776,294.484 495.019,289.885 498.262,285.328 501.505,280.814 504.748,276.342 507.991,271.913 511.234,267.528 514.477,263.187 517.72,258.891 520.963,254.639 524.206,250.433 527.449,246.272 530.692,242.157 533.935,238.09 537.178,234.069 540.421,230.095 543.664,226.169 546.907,222.292 550.15,218.463 553.393,214.683 556.636,210.952 559.879,207.271 563.122,203.64 566.366,200.059 569.609,196.53 572.852,193.051 576.095,189.624 579.338,186.248 582.581,182.925 585.824,179.654 589.067,176.437 592.31,173.272 595.553,170.16 598.796,167.103 602.039,164.1 605.282,161.151 608.525,158.256 611.768,155.417 615.011,152.633 618.254,149.904 621.497,147.231 624.74,144.614 627.983,142.054 631.226,139.55 634.469,137.103 637.712,134.713 640.955,132.38 644.198,130.105 647.441,127.888 650.684,125.728 653.927,123.627 657.17,121.585 660.413,119.601 663.656,117.675 666.899,115.809 670.142,114.002 673.385,112.254 676.629,110.566 679.872,108.938 683.115,107.37 686.358,105.861 689.601,104.413 692.844,103.025 696.087,101.698 699.33,100.431 702.573,99.2251 705.816,98.08 709.059,96.9958 712.302,95.9727 715.545,95.0109 718.788,94.1103 722.031,93.2711 725.274,92.4933 728.517,91.7771 731.76,91.1225 735.003,90.5295 738.246,89.9983 741.489,89.5289 744.732,89.1214 747.975,88.7757 751.218,88.4919 754.461,88.27 757.704,88.1101 760.947,88.0122 764.19,87.9763 767.433,88.0023 770.676,88.0904 773.919,88.2404 777.162,88.4524 780.405,88.7263 783.648,89.0622 786.892,89.4599 790.135,89.9195 793.378,90.4408 796.621,91.0239 799.864,91.6687 803.107,92.3751 806.35,93.1431 809.593,93.9725 812.836,94.8633 816.079,95.8154 819.322,96.8288 822.565,97.9032 825.808,99.0386 829.051,100.235 832.294,101.492 835.537,102.81 838.78,104.188 842.023,105.627 845.266,107.125 848.509,108.684 851.752,110.303 854.995,111.982 858.238,113.72 861.481,115.517 864.724,117.374 867.967,119.29 871.21,121.265 874.453,123.298 877.696,125.39 880.939,127.54 884.182,129.748 887.425,132.014 890.668,134.338 893.911,136.718 897.155,139.156 900.398,141.651 903.641,144.203 906.884,146.81 910.127,149.474 913.37,152.194 916.613,154.97 919.856,157.8 923.099,160.686 926.342,163.626 929.585,166.621 932.828,169.67 936.071,172.773 939.314,175.929 942.557,179.138 945.8,182.401 949.043,185.716 952.286,189.083 955.529,192.502 958.772,195.972 962.015,199.494 965.258,203.066 968.501,206.689 971.744,210.362 974.987,214.085 978.23,217.858 981.473,221.679 984.716,225.549 987.959,229.467 991.202,233.433 994.445,237.446 997.688,241.506 1000.93,245.614 1004.17,249.767 1007.42,253.966 1010.66,258.21 1013.9,262.5 1017.15,266.834 1020.39,271.212 1023.63,275.634 1026.88,280.099 1030.12,284.607 1033.36,289.157 1036.6,293.749 1039.85,298.382 1043.09,303.056 1046.33,307.771 1049.58,312.526 1052.82,317.32 1056.06,322.154 1059.31,327.026 1062.55,331.936 1065.79,336.883 1069.04,341.868 1072.28,346.89 1075.52,351.947 1078.76,357.04 1082.01,362.168 1085.25,367.331 1088.49,372.528 1091.74,377.758 1094.98,383.021 1098.22,388.317 1101.47,393.645 1104.71,399.004 1107.95,404.394 1111.19,409.814 1114.44,415.265 1117.68,420.744 1120.92,426.252 1124.17,431.789 1127.41,437.353 1130.65,442.944 1133.9,448.561 1137.14,454.205 1140.38,459.873 1143.62,465.567 1146.87,471.285 1150.11,477.026 1153.35,482.791 1156.6,488.578 1159.84,494.387 1163.08,500.217 1166.33,506.068 1169.57,511.94 1172.81,517.831 1176.06,523.741 1179.3,529.669 1182.54,535.615 1185.78,541.578 1189.03,547.558 1192.27,553.554 1195.51,559.566 1198.76,565.592 1202,571.633 1205.24,577.687 1208.49,583.754 1211.73,589.834 1214.97,595.925 1218.21,602.027 1221.46,608.141 1224.7,614.264 1227.94,620.396 1231.19,626.538 1234.43,632.687 1237.67,638.844 1240.92,645.008 1244.16,651.178 1247.4,657.353 1250.64,663.534 1253.89,669.719 1257.13,675.909 1260.37,682.101 1263.62,688.296 1266.86,694.492 1270.1,700.691 1273.35,706.889 1276.59,713.088 1279.83,719.287 1283.08,725.484 1286.32,731.68 1289.56,737.873 1292.8,744.063 1296.05,750.249 1299.29,756.432 1302.53,762.609 1305.78,768.781 1309.02,774.947 1312.26,781.106 1315.51,787.258 1318.75,793.402 1321.99,799.537 1325.23,805.663 1328.48,811.78 1331.72,817.886 1334.96,823.981 1338.21,830.064 1341.45,836.135 1344.69,842.194 1347.94,848.239 1351.18,854.269 1354.42,860.286 1357.66,866.287 1360.91,872.272 1364.15,878.241 1367.39,884.192 1370.64,890.126 1373.88,896.042 1377.12,901.939 1380.37,907.817 1383.61,913.674 1386.85,919.512 1390.1,925.327 1393.34,931.122 1396.58,936.893 1399.82,942.642 1403.07,948.368 1406.31,954.069 1409.55,959.746 1412.8,965.397 1416.04,971.023 1419.28,976.623 1422.53,982.195 1425.77,987.741 1429.01,993.258 1432.25,998.746 1435.5,1004.21 1438.74,1009.64 1441.98,1015.04 1445.23,1020.4 1448.47,1025.74 1451.71,1031.05 1454.96,1036.32 1458.2,1041.56 1461.44,1046.77 1464.68,1051.94 1467.93,1057.08 1471.17,1062.19 1474.41,1067.26 1477.66,1072.29 1480.9,1077.29 1484.14,1082.25 1487.39,1087.17 1490.63,1092.05 1493.87,1096.9 1497.11,1101.7 1500.36,1106.47 1503.6,1111.2 1506.84,1115.89 1510.09,1120.53 1513.33,1125.14 1516.57,1129.7 1519.82,1134.22 1523.06,1138.7 1526.3,1143.14 1529.55,1147.53 1532.79,1151.88 1536.03,1156.18 1539.27,1160.44 1542.52,1164.65 1545.76,1168.82 1549,1172.94 1552.25,1177.02 1555.49,1181.05 1558.73,1185.03 1561.98,1188.96 1565.22,1192.85 1568.46,1196.68 1571.7,1200.47 1574.95,1204.21 1578.19,1207.9 1581.43,1211.54 1584.68,1215.13 1587.92,1218.67 1591.16,1222.15 1594.41,1225.59 1597.65,1228.97 1600.89,1232.3 1604.13,1235.58 1607.38,1238.81 1610.62,1241.98 1613.86,1245.1 1617.11,1248.17 1620.35,1251.18 1623.59,1254.14 1626.84,1257.04 1630.08,1259.89 1633.32,1262.68 1636.57,1265.42 1639.81,1268.1 1643.05,1270.73 1646.29,1273.3 1649.54,1275.81 1652.78,1278.26 1656.02,1280.66 1659.27,1283.01 1662.51,1285.29 1665.75,1287.52 1669,1289.68 1672.24,1291.8 1675.48,1293.85 1678.72,1295.84 1681.97,1297.78 1685.21,1299.65 1688.45,1301.47 1691.7,1303.22 1694.94,1304.92 1698.18,1306.56 1701.43,1308.14 1704.67,1309.66 1707.91,1311.11 1711.15,1312.51 1714.4,1313.85 1717.64,1315.12 1720.88,1316.34 1724.13,1317.5 1727.37,1318.59 1730.61,1319.62 1733.86,1320.59 1737.1,1321.5 1740.34,1322.35 1743.59,1323.14 1746.83,1323.87 1750.07,1324.53 1753.31,1325.13 1756.56,1325.67 1759.8,1326.15 1763.04,1326.57 1766.29,1326.93 1769.53,1327.22 1772.77,1327.45 1776.02,1327.62 1779.26,1327.73 1782.5,1327.78 1785.74,1327.76 1788.99,1327.68 1792.23,1327.54 1795.47,1327.34 1798.72,1327.07 1801.96,1326.75 1805.2,1326.36 1808.45,1325.91 1811.69,1325.4 1814.93,1324.83 1818.17,1324.19 1821.42,1323.49 1824.66,1322.74 1827.9,1321.92 1831.15,1321.04 1834.39,1320.09 1837.63,1319.09 1840.88,1318.03 1844.12,1316.9 1847.36,1315.71 1850.61,1314.47 1853.85,1313.16 1857.09,1311.79 1860.33,1310.36 1863.58,1308.87 1866.82,1307.32 1870.06,1305.71 1873.31,1304.04 1876.55,1302.31 1879.79,1300.53 1883.04,1298.68 1886.28,1296.77 1889.52,1294.81 1892.76,1292.78 1896.01,1290.7 1899.25,1288.56 1902.49,1286.36 1905.74,1284.1 1908.98,1281.79 1912.22,1279.42 1915.47,1276.99 1918.71,1274.5 1921.95,1271.96 1925.19,1269.36 1928.44,1266.71 1931.68,1264 1934.92,1261.23 1938.17,1258.41 1941.41,1255.53 1944.65,1252.6 1947.9,1249.61 1951.14,1246.57 1954.38,1243.48 1957.63,1240.33 1960.87,1237.13 1964.11,1233.88 1967.35,1230.57 1970.6,1227.21 1973.84,1223.8 1977.08,1220.34 1980.33,1216.82 1983.57,1213.26 1986.81,1209.64 1990.06,1205.98 1993.3,1202.26 1996.54,1198.5 1999.78,1194.69 2003.03,1190.82 2006.27,1186.91 2009.51,1182.96 2012.76,1178.95 2016,1174.9 2019.24,1170.8 2022.49,1166.65 2025.73,1162.46 2028.97,1158.22 2032.21,1153.94 2035.46,1149.61 2038.7,1145.24 2041.94,1140.83 2045.19,1136.37 2048.43,1131.87 2051.67,1127.32 2054.92,1122.74 2058.16,1118.11 2061.4,1113.44 2064.65,1108.74 2067.89,1103.99 2071.13,1099.2 2074.37,1094.37 2077.62,1089.51 2080.86,1084.6 2084.1,1079.66 2087.35,1074.68 2090.59,1069.67 2093.83,1064.61 2097.08,1059.53 2100.32,1054.4 2103.56,1049.25 2106.8,1044.06 2110.05,1038.83 2113.29,1033.57 2116.53,1028.28 2119.78,1022.96 2123.02,1017.6 2126.26,1012.22 2129.51,1006.8 2132.75,1001.36 2135.99,995.884 2139.23,990.38 2142.48,984.848 2145.72,979.289 2148.96,973.702 2152.21,968.089 2155.45,962.449 2158.69,956.784 2161.94,951.095 2165.18,945.381 2168.42,939.643 2171.67,933.882 2174.91,928.099 2178.15,922.293 2181.39,916.466 2184.64,910.618 2187.88,904.75 2191.12,898.862 2194.37,892.955 2197.61,887.03 2200.85,881.086 2204.1,875.126 2207.34,869.148 2210.58,863.155 2213.82,857.146 2217.07,851.122 2220.31,845.084 2223.55,839.032 2226.8,832.966 2230.04,826.889 2233.28,820.799 2236.53,814.698 2239.77,808.587 2243.01,802.465 2246.25,796.334 2249.5,790.194 2252.74,784.046 2255.98,777.891 2259.23,771.728 2262.47,765.559 2265.71,759.384 2268.96,753.204 2272.2,747.019 2275.44,740.831 2278.69,734.639 2281.93,728.444 2285.17,722.248 2288.41,716.05 2291.66,709.851 "/>
<circle clip-path="url(#clip582)" cx="1633.32" cy="1200.52" r="14.4" fill="#e26f46" fill-rule="evenodd" fill-opacity="1" stroke="#000000" stroke-opacity="1" stroke-width="3.2"/>
<circle clip-path="url(#clip582)" cx="1140.38" cy="322.992" r="14.4" fill="#e26f46" fill-rule="evenodd" fill-opacity="1" stroke="#000000" stroke-opacity="1" stroke-width="3.2"/>
<circle clip-path="url(#clip582)" cx="1130.65" cy="454.021" r="14.4" fill="#e26f46" fill-rule="evenodd" fill-opacity="1" stroke="#000000" stroke-opacity="1" stroke-width="3.2"/>
<circle clip-path="url(#clip582)" cx="1107.95" cy="488.063" r="14.4" fill="#e26f46" fill-rule="evenodd" fill-opacity="1" stroke="#000000" stroke-opacity="1" stroke-width="3.2"/>
<circle clip-path="url(#clip582)" cx="2255.98" cy="689.593" r="14.4" fill="#e26f46" fill-rule="evenodd" fill-opacity="1" stroke="#000000" stroke-opacity="1" stroke-width="3.2"/>
<circle clip-path="url(#clip582)" cx="1870.06" cy="1445.72" r="14.4" fill="#e26f46" fill-rule="evenodd" fill-opacity="1" stroke="#000000" stroke-opacity="1" stroke-width="3.2"/>
<circle clip-path="url(#clip582)" cx="1954.38" cy="1113.57" r="14.4" fill="#e26f46" fill-rule="evenodd" fill-opacity="1" stroke="#000000" stroke-opacity="1" stroke-width="3.2"/>
<circle clip-path="url(#clip582)" cx="1743.59" cy="1280.81" r="14.4" fill="#e26f46" fill-rule="evenodd" fill-opacity="1" stroke="#000000" stroke-opacity="1" stroke-width="3.2"/>
<circle clip-path="url(#clip582)" cx="1247.4" cy="798.992" r="14.4" fill="#e26f46" fill-rule="evenodd" fill-opacity="1" stroke="#000000" stroke-opacity="1" stroke-width="3.2"/>
<circle clip-path="url(#clip582)" cx="290.708" cy="780.455" r="14.4" fill="#e26f46" fill-rule="evenodd" fill-opacity="1" stroke="#000000" stroke-opacity="1" stroke-width="3.2"/>
<circle clip-path="url(#clip582)" cx="1652.78" cy="1271.43" r="14.4" fill="#e26f46" fill-rule="evenodd" fill-opacity="1" stroke="#000000" stroke-opacity="1" stroke-width="3.2"/>
<circle clip-path="url(#clip582)" cx="1296.05" cy="610.693" r="14.4" fill="#e26f46" fill-rule="evenodd" fill-opacity="1" stroke="#000000" stroke-opacity="1" stroke-width="3.2"/>
<circle clip-path="url(#clip582)" cx="1441.98" cy="940.142" r="14.4" fill="#e26f46" fill-rule="evenodd" fill-opacity="1" stroke="#000000" stroke-opacity="1" stroke-width="3.2"/>
<circle clip-path="url(#clip582)" cx="2041.94" cy="1005.68" r="14.4" fill="#e26f46" fill-rule="evenodd" fill-opacity="1" stroke="#000000" stroke-opacity="1" stroke-width="3.2"/>
<circle clip-path="url(#clip582)" cx="2181.39" cy="989.259" r="14.4" fill="#e26f46" fill-rule="evenodd" fill-opacity="1" stroke="#000000" stroke-opacity="1" stroke-width="3.2"/>
<circle clip-path="url(#clip582)" cx="1643.05" cy="1379.29" r="14.4" fill="#e26f46" fill-rule="evenodd" fill-opacity="1" stroke="#000000" stroke-opacity="1" stroke-width="3.2"/>
<circle clip-path="url(#clip582)" cx="842.023" cy="197.217" r="14.4" fill="#e26f46" fill-rule="evenodd" fill-opacity="1" stroke="#000000" stroke-opacity="1" stroke-width="3.2"/>
<circle clip-path="url(#clip582)" cx="326.381" cy="426.234" r="14.4" fill="#e26f46" fill-rule="evenodd" fill-opacity="1" stroke="#000000" stroke-opacity="1" stroke-width="3.2"/>
<circle clip-path="url(#clip582)" cx="1581.43" cy="1176.49" r="14.4" fill="#e26f46" fill-rule="evenodd" fill-opacity="1" stroke="#000000" stroke-opacity="1" stroke-width="3.2"/>
<circle clip-path="url(#clip582)" cx="1782.5" cy="1228.62" r="14.4" fill="#e26f46" fill-rule="evenodd" fill-opacity="1" stroke="#000000" stroke-opacity="1" stroke-width="3.2"/>
<path clip-path="url(#clip580)" d="M1953.46 250.738 L2280.8 250.738 L2280.8 95.2176 L1953.46 95.2176  Z" fill="#ffffff" fill-rule="evenodd" fill-opacity="1"/>
<polyline clip-path="url(#clip580)" style="stroke:#000000; stroke-linecap:round; stroke-linejoin:round; stroke-width:4; stroke-opacity:1; fill:none" points="1953.46,250.738 2280.8,250.738 2280.8,95.2176 1953.46,95.2176 1953.46,250.738 "/>
<polyline clip-path="url(#clip580)" style="stroke:#009af9; stroke-linecap:round; stroke-linejoin:round; stroke-width:4; stroke-opacity:1; fill:none" points="1977.44,147.058 2121.36,147.058 "/>
<path clip-path="url(#clip580)" d="M2152.76 131.051 L2152.76 138.412 L2161.53 138.412 L2161.53 141.722 L2152.76 141.722 L2152.76 155.796 Q2152.76 158.967 2153.61 159.87 Q2154.49 160.773 2157.16 160.773 L2161.53 160.773 L2161.53 164.338 L2157.16 164.338 Q2152.23 164.338 2150.35 162.509 Q2148.48 160.657 2148.48 155.796 L2148.48 141.722 L2145.35 141.722 L2145.35 138.412 L2148.48 138.412 L2148.48 131.051 L2152.76 131.051 Z" fill="#000000" fill-rule="nonzero" fill-opacity="1" /><path clip-path="url(#clip580)" d="M2182.16 142.393 Q2181.44 141.977 2180.58 141.791 Q2179.75 141.583 2178.73 141.583 Q2175.12 141.583 2173.17 143.944 Q2171.25 146.282 2171.25 150.68 L2171.25 164.338 L2166.97 164.338 L2166.97 138.412 L2171.25 138.412 L2171.25 142.44 Q2172.6 140.078 2174.75 138.944 Q2176.9 137.787 2179.98 137.787 Q2180.42 137.787 2180.95 137.856 Q2181.48 137.903 2182.13 138.018 L2182.16 142.393 Z" fill="#000000" fill-rule="nonzero" fill-opacity="1" /><path clip-path="url(#clip580)" d="M2186.18 154.106 L2186.18 138.412 L2190.44 138.412 L2190.44 153.944 Q2190.44 157.625 2191.88 159.476 Q2193.31 161.305 2196.18 161.305 Q2199.63 161.305 2201.62 159.106 Q2203.64 156.907 2203.64 153.111 L2203.64 138.412 L2207.9 138.412 L2207.9 164.338 L2203.64 164.338 L2203.64 160.356 Q2202.09 162.717 2200.03 163.875 Q2197.99 165.009 2195.28 165.009 Q2190.81 165.009 2188.5 162.231 Q2186.18 159.453 2186.18 154.106 M2196.9 137.787 L2196.9 137.787 Z" fill="#000000" fill-rule="nonzero" fill-opacity="1" /><path clip-path="url(#clip580)" d="M2220.88 131.051 L2220.88 138.412 L2229.66 138.412 L2229.66 141.722 L2220.88 141.722 L2220.88 155.796 Q2220.88 158.967 2221.74 159.87 Q2222.62 160.773 2225.28 160.773 L2229.66 160.773 L2229.66 164.338 L2225.28 164.338 Q2220.35 164.338 2218.48 162.509 Q2216.6 160.657 2216.6 155.796 L2216.6 141.722 L2213.48 141.722 L2213.48 138.412 L2216.6 138.412 L2216.6 131.051 L2220.88 131.051 Z" fill="#000000" fill-rule="nonzero" fill-opacity="1" /><path clip-path="url(#clip580)" d="M2256.81 148.689 L2256.81 164.338 L2252.55 164.338 L2252.55 148.828 Q2252.55 145.148 2251.11 143.319 Q2249.68 141.49 2246.81 141.49 Q2243.36 141.49 2241.37 143.69 Q2239.38 145.889 2239.38 149.685 L2239.38 164.338 L2235.1 164.338 L2235.1 128.319 L2239.38 128.319 L2239.38 142.44 Q2240.91 140.102 2242.97 138.944 Q2245.05 137.787 2247.76 137.787 Q2252.23 137.787 2254.52 140.565 Q2256.81 143.319 2256.81 148.689 Z" fill="#000000" fill-rule="nonzero" fill-opacity="1" /><circle clip-path="url(#clip580)" cx="2049.4" cy="198.898" r="20.48" fill="#e26f46" fill-rule="evenodd" fill-opacity="1" stroke="#000000" stroke-opacity="1" stroke-width="4.55111"/>
<path clip-path="url(#clip580)" d="M2164.26 194.187 L2164.26 180.159 L2168.52 180.159 L2168.52 216.178 L2164.26 216.178 L2164.26 212.289 Q2162.92 214.603 2160.86 215.738 Q2158.82 216.849 2155.95 216.849 Q2151.25 216.849 2148.29 213.099 Q2145.35 209.349 2145.35 203.238 Q2145.35 197.127 2148.29 193.377 Q2151.25 189.627 2155.95 189.627 Q2158.82 189.627 2160.86 190.761 Q2162.92 191.872 2164.26 194.187 M2149.75 203.238 Q2149.75 207.937 2151.67 210.622 Q2153.61 213.284 2156.99 213.284 Q2160.37 213.284 2162.32 210.622 Q2164.26 207.937 2164.26 203.238 Q2164.26 198.539 2162.32 195.877 Q2160.37 193.192 2156.99 193.192 Q2153.61 193.192 2151.67 195.877 Q2149.75 198.539 2149.75 203.238 Z" fill="#000000" fill-rule="nonzero" fill-opacity="1" /><path clip-path="url(#clip580)" d="M2189.08 203.145 Q2183.92 203.145 2181.92 204.326 Q2179.93 205.506 2179.93 208.354 Q2179.93 210.622 2181.42 211.965 Q2182.92 213.284 2185.49 213.284 Q2189.03 213.284 2191.16 210.784 Q2193.31 208.261 2193.31 204.094 L2193.31 203.145 L2189.08 203.145 M2197.57 201.386 L2197.57 216.178 L2193.31 216.178 L2193.31 212.242 Q2191.85 214.603 2189.68 215.738 Q2187.5 216.849 2184.36 216.849 Q2180.37 216.849 2178.01 214.627 Q2175.67 212.381 2175.67 208.631 Q2175.67 204.256 2178.59 202.034 Q2181.53 199.812 2187.34 199.812 L2193.31 199.812 L2193.31 199.395 Q2193.31 196.455 2191.37 194.858 Q2189.45 193.238 2185.95 193.238 Q2183.73 193.238 2181.62 193.77 Q2179.52 194.303 2177.57 195.367 L2177.57 191.432 Q2179.91 190.53 2182.11 190.09 Q2184.31 189.627 2186.39 189.627 Q2192.02 189.627 2194.79 192.543 Q2197.57 195.46 2197.57 201.386 Z" fill="#000000" fill-rule="nonzero" fill-opacity="1" /><path clip-path="url(#clip580)" d="M2210.56 182.891 L2210.56 190.252 L2219.33 190.252 L2219.33 193.562 L2210.56 193.562 L2210.56 207.636 Q2210.56 210.807 2211.42 211.71 Q2212.29 212.613 2214.96 212.613 L2219.33 212.613 L2219.33 216.178 L2214.96 216.178 Q2210.03 216.178 2208.15 214.349 Q2206.28 212.497 2206.28 207.636 L2206.28 193.562 L2203.15 193.562 L2203.15 190.252 L2206.28 190.252 L2206.28 182.891 L2210.56 182.891 Z" fill="#000000" fill-rule="nonzero" fill-opacity="1" /><path clip-path="url(#clip580)" d="M2236.72 203.145 Q2231.55 203.145 2229.56 204.326 Q2227.57 205.506 2227.57 208.354 Q2227.57 210.622 2229.05 211.965 Q2230.56 213.284 2233.13 213.284 Q2236.67 213.284 2238.8 210.784 Q2240.95 208.261 2240.95 204.094 L2240.95 203.145 L2236.72 203.145 M2245.21 201.386 L2245.21 216.178 L2240.95 216.178 L2240.95 212.242 Q2239.49 214.603 2237.32 215.738 Q2235.14 216.849 2231.99 216.849 Q2228.01 216.849 2225.65 214.627 Q2223.31 212.381 2223.31 208.631 Q2223.31 204.256 2226.23 202.034 Q2229.17 199.812 2234.98 199.812 L2240.95 199.812 L2240.95 199.395 Q2240.95 196.455 2239.01 194.858 Q2237.09 193.238 2233.59 193.238 Q2231.37 193.238 2229.26 193.77 Q2227.16 194.303 2225.21 195.367 L2225.21 191.432 Q2227.55 190.53 2229.75 190.09 Q2231.95 189.627 2234.03 189.627 Q2239.66 189.627 2242.43 192.543 Q2245.21 195.46 2245.21 201.386 Z" fill="#000000" fill-rule="nonzero" fill-opacity="1" /></svg>
