<?xml version="1.0" encoding="utf-8"?>
<svg xmlns="http://www.w3.org/2000/svg" xmlns:xlink="http://www.w3.org/1999/xlink" width="600" height="400" viewBox="0 0 2400 1600">
<defs>
  <clipPath id="clip230">
    <rect x="0" y="0" width="2400" height="1600"/>
  </clipPath>
</defs>
<path clip-path="url(#clip230)" d="M0 1600 L2400 1600 L2400 0 L0 0  Z" fill="#ffffff" fill-rule="evenodd" fill-opacity="1"/>
<defs>
  <clipPath id="clip231">
    <rect x="480" y="0" width="1681" height="1600"/>
  </clipPath>
</defs>
<path clip-path="url(#clip230)" d="M193.936 1486.45 L2352.76 1486.45 L2352.76 47.2441 L193.936 47.2441  Z" fill="#ffffff" fill-rule="evenodd" fill-opacity="1"/>
<defs>
  <clipPath id="clip232">
    <rect x="193" y="47" width="2160" height="1440"/>
  </clipPath>
</defs>
<polyline clip-path="url(#clip232)" style="stroke:#000000; stroke-linecap:round; stroke-linejoin:round; stroke-width:2; stroke-opacity:0.1; fill:none" points="255.035,1486.45 255.035,47.2441 "/>
<polyline clip-path="url(#clip232)" style="stroke:#000000; stroke-linecap:round; stroke-linejoin:round; stroke-width:2; stroke-opacity:0.1; fill:none" points="579.173,1486.45 579.173,47.2441 "/>
<polyline clip-path="url(#clip232)" style="stroke:#000000; stroke-linecap:round; stroke-linejoin:round; stroke-width:2; stroke-opacity:0.1; fill:none" points="903.312,1486.45 903.312,47.2441 "/>
<polyline clip-path="url(#clip232)" style="stroke:#000000; stroke-linecap:round; stroke-linejoin:round; stroke-width:2; stroke-opacity:0.1; fill:none" points="1227.45,1486.45 1227.45,47.2441 "/>
<polyline clip-path="url(#clip232)" style="stroke:#000000; stroke-linecap:round; stroke-linejoin:round; stroke-width:2; stroke-opacity:0.1; fill:none" points="1551.59,1486.45 1551.59,47.2441 "/>
<polyline clip-path="url(#clip232)" style="stroke:#000000; stroke-linecap:round; stroke-linejoin:round; stroke-width:2; stroke-opacity:0.1; fill:none" points="1875.73,1486.45 1875.73,47.2441 "/>
<polyline clip-path="url(#clip232)" style="stroke:#000000; stroke-linecap:round; stroke-linejoin:round; stroke-width:2; stroke-opacity:0.1; fill:none" points="2199.87,1486.45 2199.87,47.2441 "/>
<polyline clip-path="url(#clip232)" style="stroke:#000000; stroke-linecap:round; stroke-linejoin:round; stroke-width:2; stroke-opacity:0.1; fill:none" points="193.936,1254.05 2352.76,1254.05 "/>
<polyline clip-path="url(#clip232)" style="stroke:#000000; stroke-linecap:round; stroke-linejoin:round; stroke-width:2; stroke-opacity:0.1; fill:none" points="193.936,997.42 2352.76,997.42 "/>
<polyline clip-path="url(#clip232)" style="stroke:#000000; stroke-linecap:round; stroke-linejoin:round; stroke-width:2; stroke-opacity:0.1; fill:none" points="193.936,740.787 2352.76,740.787 "/>
<polyline clip-path="url(#clip232)" style="stroke:#000000; stroke-linecap:round; stroke-linejoin:round; stroke-width:2; stroke-opacity:0.1; fill:none" points="193.936,484.155 2352.76,484.155 "/>
<polyline clip-path="url(#clip232)" style="stroke:#000000; stroke-linecap:round; stroke-linejoin:round; stroke-width:2; stroke-opacity:0.1; fill:none" points="193.936,227.523 2352.76,227.523 "/>
<polyline clip-path="url(#clip230)" style="stroke:#000000; stroke-linecap:round; stroke-linejoin:round; stroke-width:4; stroke-opacity:1; fill:none" points="193.936,1486.45 2352.76,1486.45 "/>
<polyline clip-path="url(#clip230)" style="stroke:#000000; stroke-linecap:round; stroke-linejoin:round; stroke-width:4; stroke-opacity:1; fill:none" points="255.035,1486.45 255.035,1467.55 "/>
<polyline clip-path="url(#clip230)" style="stroke:#000000; stroke-linecap:round; stroke-linejoin:round; stroke-width:4; stroke-opacity:1; fill:none" points="579.173,1486.45 579.173,1467.55 "/>
<polyline clip-path="url(#clip230)" style="stroke:#000000; stroke-linecap:round; stroke-linejoin:round; stroke-width:4; stroke-opacity:1; fill:none" points="903.312,1486.45 903.312,1467.55 "/>
<polyline clip-path="url(#clip230)" style="stroke:#000000; stroke-linecap:round; stroke-linejoin:round; stroke-width:4; stroke-opacity:1; fill:none" points="1227.45,1486.45 1227.45,1467.55 "/>
<polyline clip-path="url(#clip230)" style="stroke:#000000; stroke-linecap:round; stroke-linejoin:round; stroke-width:4; stroke-opacity:1; fill:none" points="1551.59,1486.45 1551.59,1467.55 "/>
<polyline clip-path="url(#clip230)" style="stroke:#000000; stroke-linecap:round; stroke-linejoin:round; stroke-width:4; stroke-opacity:1; fill:none" points="1875.73,1486.45 1875.73,1467.55 "/>
<polyline clip-path="url(#clip230)" style="stroke:#000000; stroke-linecap:round; stroke-linejoin:round; stroke-width:4; stroke-opacity:1; fill:none" points="2199.87,1486.45 2199.87,1467.55 "/>
<path clip-path="url(#clip230)" d="M255.035 1517.37 Q251.424 1517.37 249.595 1520.93 Q247.789 1524.47 247.789 1531.6 Q247.789 1538.71 249.595 1542.27 Q251.424 1545.82 255.035 1545.82 Q258.669 1545.82 260.474 1542.27 Q262.303 1538.71 262.303 1531.6 Q262.303 1524.47 260.474 1520.93 Q258.669 1517.37 255.035 1517.37 M255.035 1513.66 Q260.845 1513.66 263.9 1518.27 Q266.979 1522.85 266.979 1531.6 Q266.979 1540.33 263.9 1544.94 Q260.845 1549.52 255.035 1549.52 Q249.225 1549.52 246.146 1544.94 Q243.09 1540.33 243.09 1531.6 Q243.09 1522.85 246.146 1518.27 Q249.225 1513.66 255.035 1513.66 Z" fill="#000000" fill-rule="nonzero" fill-opacity="1" /><path clip-path="url(#clip230)" d="M569.555 1544.91 L577.194 1544.91 L577.194 1518.55 L568.884 1520.21 L568.884 1515.95 L577.148 1514.29 L581.824 1514.29 L581.824 1544.91 L589.463 1544.91 L589.463 1548.85 L569.555 1548.85 L569.555 1544.91 Z" fill="#000000" fill-rule="nonzero" fill-opacity="1" /><path clip-path="url(#clip230)" d="M897.965 1544.91 L914.284 1544.91 L914.284 1548.85 L892.34 1548.85 L892.34 1544.91 Q895.002 1542.16 899.585 1537.53 Q904.191 1532.88 905.372 1531.53 Q907.617 1529.01 908.497 1527.27 Q909.4 1525.51 909.4 1523.82 Q909.4 1521.07 907.455 1519.33 Q905.534 1517.6 902.432 1517.6 Q900.233 1517.6 897.779 1518.36 Q895.349 1519.13 892.571 1520.68 L892.571 1515.95 Q895.395 1514.82 897.849 1514.24 Q900.303 1513.66 902.34 1513.66 Q907.71 1513.66 910.904 1516.35 Q914.099 1519.03 914.099 1523.52 Q914.099 1525.65 913.289 1527.57 Q912.502 1529.47 910.395 1532.07 Q909.816 1532.74 906.715 1535.95 Q903.613 1539.15 897.965 1544.91 Z" fill="#000000" fill-rule="nonzero" fill-opacity="1" /><path clip-path="url(#clip230)" d="M1231.7 1530.21 Q1235.05 1530.93 1236.93 1533.2 Q1238.83 1535.47 1238.83 1538.8 Q1238.83 1543.92 1235.31 1546.72 Q1231.79 1549.52 1225.31 1549.52 Q1223.13 1549.52 1220.82 1549.08 Q1218.53 1548.66 1216.07 1547.81 L1216.07 1543.29 Q1218.02 1544.43 1220.33 1545.01 Q1222.65 1545.58 1225.17 1545.58 Q1229.57 1545.58 1231.86 1543.85 Q1234.17 1542.11 1234.17 1538.8 Q1234.17 1535.75 1232.02 1534.03 Q1229.89 1532.3 1226.07 1532.3 L1222.05 1532.3 L1222.05 1528.45 L1226.26 1528.45 Q1229.71 1528.45 1231.54 1527.09 Q1233.36 1525.7 1233.36 1523.11 Q1233.36 1520.45 1231.47 1519.03 Q1229.59 1517.6 1226.07 1517.6 Q1224.15 1517.6 1221.95 1518.01 Q1219.75 1518.43 1217.11 1519.31 L1217.11 1515.14 Q1219.78 1514.4 1222.09 1514.03 Q1224.43 1513.66 1226.49 1513.66 Q1231.81 1513.66 1234.92 1516.09 Q1238.02 1518.5 1238.02 1522.62 Q1238.02 1525.49 1236.37 1527.48 Q1234.73 1529.45 1231.7 1530.21 Z" fill="#000000" fill-rule="nonzero" fill-opacity="1" /><path clip-path="url(#clip230)" d="M1554.6 1518.36 L1542.79 1536.81 L1554.6 1536.81 L1554.6 1518.36 M1553.37 1514.29 L1559.25 1514.29 L1559.25 1536.81 L1564.18 1536.81 L1564.18 1540.7 L1559.25 1540.7 L1559.25 1548.85 L1554.6 1548.85 L1554.6 1540.7 L1539 1540.7 L1539 1536.19 L1553.37 1514.29 Z" fill="#000000" fill-rule="nonzero" fill-opacity="1" /><path clip-path="url(#clip230)" d="M1866.01 1514.29 L1884.36 1514.29 L1884.36 1518.22 L1870.29 1518.22 L1870.29 1526.7 Q1871.31 1526.35 1872.32 1526.19 Q1873.34 1526 1874.36 1526 Q1880.15 1526 1883.53 1529.17 Q1886.91 1532.34 1886.91 1537.76 Q1886.91 1543.34 1883.44 1546.44 Q1879.96 1549.52 1873.64 1549.52 Q1871.47 1549.52 1869.2 1549.15 Q1866.95 1548.78 1864.55 1548.04 L1864.55 1543.34 Q1866.63 1544.47 1868.85 1545.03 Q1871.07 1545.58 1873.55 1545.58 Q1877.56 1545.58 1879.89 1543.48 Q1882.23 1541.37 1882.23 1537.76 Q1882.23 1534.15 1879.89 1532.04 Q1877.56 1529.94 1873.55 1529.94 Q1871.68 1529.94 1869.8 1530.35 Q1867.95 1530.77 1866.01 1531.65 L1866.01 1514.29 Z" fill="#000000" fill-rule="nonzero" fill-opacity="1" /><path clip-path="url(#clip230)" d="M2200.27 1529.7 Q2197.12 1529.7 2195.27 1531.86 Q2193.44 1534.01 2193.44 1537.76 Q2193.44 1541.49 2195.27 1543.66 Q2197.12 1545.82 2200.27 1545.82 Q2203.42 1545.82 2205.25 1543.66 Q2207.1 1541.49 2207.1 1537.76 Q2207.1 1534.01 2205.25 1531.86 Q2203.42 1529.7 2200.27 1529.7 M2209.55 1515.05 L2209.55 1519.31 Q2207.79 1518.48 2205.99 1518.04 Q2204.21 1517.6 2202.45 1517.6 Q2197.82 1517.6 2195.36 1520.72 Q2192.93 1523.85 2192.59 1530.17 Q2193.95 1528.15 2196.01 1527.09 Q2198.07 1526 2200.55 1526 Q2205.76 1526 2208.77 1529.17 Q2211.8 1532.32 2211.8 1537.76 Q2211.8 1543.08 2208.65 1546.3 Q2205.5 1549.52 2200.27 1549.52 Q2194.28 1549.52 2191.1 1544.94 Q2187.93 1540.33 2187.93 1531.6 Q2187.93 1523.41 2191.82 1518.55 Q2195.71 1513.66 2202.26 1513.66 Q2204.02 1513.66 2205.8 1514.01 Q2207.61 1514.36 2209.55 1515.05 Z" fill="#000000" fill-rule="nonzero" fill-opacity="1" /><polyline clip-path="url(#clip230)" style="stroke:#000000; stroke-linecap:round; stroke-linejoin:round; stroke-width:4; stroke-opacity:1; fill:none" points="193.936,1486.45 193.936,47.2441 "/>
<polyline clip-path="url(#clip230)" style="stroke:#000000; stroke-linecap:round; stroke-linejoin:round; stroke-width:4; stroke-opacity:1; fill:none" points="193.936,1254.05 212.834,1254.05 "/>
<polyline clip-path="url(#clip230)" style="stroke:#000000; stroke-linecap:round; stroke-linejoin:round; stroke-width:4; stroke-opacity:1; fill:none" points="193.936,997.42 212.834,997.42 "/>
<polyline clip-path="url(#clip230)" style="stroke:#000000; stroke-linecap:round; stroke-linejoin:round; stroke-width:4; stroke-opacity:1; fill:none" points="193.936,740.787 212.834,740.787 "/>
<polyline clip-path="url(#clip230)" style="stroke:#000000; stroke-linecap:round; stroke-linejoin:round; stroke-width:4; stroke-opacity:1; fill:none" points="193.936,484.155 212.834,484.155 "/>
<polyline clip-path="url(#clip230)" style="stroke:#000000; stroke-linecap:round; stroke-linejoin:round; stroke-width:4; stroke-opacity:1; fill:none" points="193.936,227.523 212.834,227.523 "/>
<path clip-path="url(#clip230)" d="M50.9921 1254.5 L80.6679 1254.5 L80.6679 1258.44 L50.9921 1258.44 L50.9921 1254.5 Z" fill="#000000" fill-rule="nonzero" fill-opacity="1" /><path clip-path="url(#clip230)" d="M91.5706 1267.4 L99.2095 1267.4 L99.2095 1241.03 L90.8993 1242.7 L90.8993 1238.44 L99.1632 1236.77 L103.839 1236.77 L103.839 1267.4 L111.478 1267.4 L111.478 1271.33 L91.5706 1271.33 L91.5706 1267.4 Z" fill="#000000" fill-rule="nonzero" fill-opacity="1" /><path clip-path="url(#clip230)" d="M120.922 1265.45 L125.807 1265.45 L125.807 1271.33 L120.922 1271.33 L120.922 1265.45 Z" fill="#000000" fill-rule="nonzero" fill-opacity="1" /><path clip-path="url(#clip230)" d="M145.992 1239.85 Q142.381 1239.85 140.552 1243.42 Q138.746 1246.96 138.746 1254.09 Q138.746 1261.19 140.552 1264.76 Q142.381 1268.3 145.992 1268.3 Q149.626 1268.3 151.431 1264.76 Q153.26 1261.19 153.26 1254.09 Q153.26 1246.96 151.431 1243.42 Q149.626 1239.85 145.992 1239.85 M145.992 1236.15 Q151.802 1236.15 154.857 1240.75 Q157.936 1245.34 157.936 1254.09 Q157.936 1262.81 154.857 1267.42 Q151.802 1272 145.992 1272 Q140.181 1272 137.103 1267.42 Q134.047 1262.81 134.047 1254.09 Q134.047 1245.34 137.103 1240.75 Q140.181 1236.15 145.992 1236.15 Z" fill="#000000" fill-rule="nonzero" fill-opacity="1" /><path clip-path="url(#clip230)" d="M51.9875 997.871 L81.6633 997.871 L81.6633 1001.81 L51.9875 1001.81 L51.9875 997.871 Z" fill="#000000" fill-rule="nonzero" fill-opacity="1" /><path clip-path="url(#clip230)" d="M101.756 983.218 Q98.1447 983.218 96.316 986.783 Q94.5104 990.325 94.5104 997.454 Q94.5104 1004.56 96.316 1008.13 Q98.1447 1011.67 101.756 1011.67 Q105.39 1011.67 107.196 1008.13 Q109.024 1004.56 109.024 997.454 Q109.024 990.325 107.196 986.783 Q105.39 983.218 101.756 983.218 M101.756 979.515 Q107.566 979.515 110.621 984.121 Q113.7 988.704 113.7 997.454 Q113.7 1006.18 110.621 1010.79 Q107.566 1015.37 101.756 1015.37 Q95.9456 1015.37 92.8669 1010.79 Q89.8114 1006.18 89.8114 997.454 Q89.8114 988.704 92.8669 984.121 Q95.9456 979.515 101.756 979.515 Z" fill="#000000" fill-rule="nonzero" fill-opacity="1" /><path clip-path="url(#clip230)" d="M121.918 1008.82 L126.802 1008.82 L126.802 1014.7 L121.918 1014.7 L121.918 1008.82 Z" fill="#000000" fill-rule="nonzero" fill-opacity="1" /><path clip-path="url(#clip230)" d="M137.033 980.14 L155.39 980.14 L155.39 984.075 L141.316 984.075 L141.316 992.547 Q142.334 992.2 143.353 992.038 Q144.371 991.852 145.39 991.852 Q151.177 991.852 154.556 995.024 Q157.936 998.195 157.936 1003.61 Q157.936 1009.19 154.464 1012.29 Q150.992 1015.37 144.672 1015.37 Q142.496 1015.37 140.228 1015 Q137.982 1014.63 135.575 1013.89 L135.575 1009.19 Q137.658 1010.32 139.881 1010.88 Q142.103 1011.44 144.58 1011.44 Q148.584 1011.44 150.922 1009.33 Q153.26 1007.22 153.26 1003.61 Q153.26 1000 150.922 997.894 Q148.584 995.788 144.58 995.788 Q142.705 995.788 140.83 996.204 Q138.978 996.621 137.033 997.501 L137.033 980.14 Z" fill="#000000" fill-rule="nonzero" fill-opacity="1" /><path clip-path="url(#clip230)" d="M100.76 726.586 Q97.1493 726.586 95.3206 730.151 Q93.515 733.692 93.515 740.822 Q93.515 747.928 95.3206 751.493 Q97.1493 755.035 100.76 755.035 Q104.395 755.035 106.2 751.493 Q108.029 747.928 108.029 740.822 Q108.029 733.692 106.2 730.151 Q104.395 726.586 100.76 726.586 M100.76 722.882 Q106.571 722.882 109.626 727.489 Q112.705 732.072 112.705 740.822 Q112.705 749.549 109.626 754.155 Q106.571 758.739 100.76 758.739 Q94.9502 758.739 91.8715 754.155 Q88.816 749.549 88.816 740.822 Q88.816 732.072 91.8715 727.489 Q94.9502 722.882 100.76 722.882 Z" fill="#000000" fill-rule="nonzero" fill-opacity="1" /><path clip-path="url(#clip230)" d="M120.922 752.188 L125.807 752.188 L125.807 758.067 L120.922 758.067 L120.922 752.188 Z" fill="#000000" fill-rule="nonzero" fill-opacity="1" /><path clip-path="url(#clip230)" d="M145.992 726.586 Q142.381 726.586 140.552 730.151 Q138.746 733.692 138.746 740.822 Q138.746 747.928 140.552 751.493 Q142.381 755.035 145.992 755.035 Q149.626 755.035 151.431 751.493 Q153.26 747.928 153.26 740.822 Q153.26 733.692 151.431 730.151 Q149.626 726.586 145.992 726.586 M145.992 722.882 Q151.802 722.882 154.857 727.489 Q157.936 732.072 157.936 740.822 Q157.936 749.549 154.857 754.155 Q151.802 758.739 145.992 758.739 Q140.181 758.739 137.103 754.155 Q134.047 749.549 134.047 740.822 Q134.047 732.072 137.103 727.489 Q140.181 722.882 145.992 722.882 Z" fill="#000000" fill-rule="nonzero" fill-opacity="1" /><path clip-path="url(#clip230)" d="M101.756 469.954 Q98.1447 469.954 96.316 473.518 Q94.5104 477.06 94.5104 484.19 Q94.5104 491.296 96.316 494.861 Q98.1447 498.403 101.756 498.403 Q105.39 498.403 107.196 494.861 Q109.024 491.296 109.024 484.19 Q109.024 477.06 107.196 473.518 Q105.39 469.954 101.756 469.954 M101.756 466.25 Q107.566 466.25 110.621 470.856 Q113.7 475.44 113.7 484.19 Q113.7 492.916 110.621 497.523 Q107.566 502.106 101.756 502.106 Q95.9456 502.106 92.8669 497.523 Q89.8114 492.916 89.8114 484.19 Q89.8114 475.44 92.8669 470.856 Q95.9456 466.25 101.756 466.25 Z" fill="#000000" fill-rule="nonzero" fill-opacity="1" /><path clip-path="url(#clip230)" d="M121.918 495.555 L126.802 495.555 L126.802 501.435 L121.918 501.435 L121.918 495.555 Z" fill="#000000" fill-rule="nonzero" fill-opacity="1" /><path clip-path="url(#clip230)" d="M137.033 466.875 L155.39 466.875 L155.39 470.81 L141.316 470.81 L141.316 479.282 Q142.334 478.935 143.353 478.773 Q144.371 478.588 145.39 478.588 Q151.177 478.588 154.556 481.759 Q157.936 484.93 157.936 490.347 Q157.936 495.926 154.464 499.028 Q150.992 502.106 144.672 502.106 Q142.496 502.106 140.228 501.736 Q137.982 501.365 135.575 500.625 L135.575 495.926 Q137.658 497.06 139.881 497.616 Q142.103 498.171 144.58 498.171 Q148.584 498.171 150.922 496.065 Q153.26 493.958 153.26 490.347 Q153.26 486.736 150.922 484.629 Q148.584 482.523 144.58 482.523 Q142.705 482.523 140.83 482.94 Q138.978 483.356 137.033 484.236 L137.033 466.875 Z" fill="#000000" fill-rule="nonzero" fill-opacity="1" /><path clip-path="url(#clip230)" d="M91.5706 240.867 L99.2095 240.867 L99.2095 214.502 L90.8993 216.169 L90.8993 211.909 L99.1632 210.243 L103.839 210.243 L103.839 240.867 L111.478 240.867 L111.478 244.803 L91.5706 244.803 L91.5706 240.867 Z" fill="#000000" fill-rule="nonzero" fill-opacity="1" /><path clip-path="url(#clip230)" d="M120.922 238.923 L125.807 238.923 L125.807 244.803 L120.922 244.803 L120.922 238.923 Z" fill="#000000" fill-rule="nonzero" fill-opacity="1" /><path clip-path="url(#clip230)" d="M145.992 213.321 Q142.381 213.321 140.552 216.886 Q138.746 220.428 138.746 227.557 Q138.746 234.664 140.552 238.229 Q142.381 241.77 145.992 241.77 Q149.626 241.77 151.431 238.229 Q153.26 234.664 153.26 227.557 Q153.26 220.428 151.431 216.886 Q149.626 213.321 145.992 213.321 M145.992 209.618 Q151.802 209.618 154.857 214.224 Q157.936 218.807 157.936 227.557 Q157.936 236.284 154.857 240.891 Q151.802 245.474 145.992 245.474 Q140.181 245.474 137.103 240.891 Q134.047 236.284 134.047 227.557 Q134.047 218.807 137.103 214.224 Q140.181 209.618 145.992 209.618 Z" fill="#000000" fill-rule="nonzero" fill-opacity="1" /><polyline clip-path="url(#clip232)" style="stroke:#009af9; stroke-linecap:round; stroke-linejoin:round; stroke-width:4; stroke-opacity:1; fill:none" points="255.035,740.787 258.276,735.655 261.517,730.523 264.759,725.392 268,720.262 271.242,715.135 274.483,710.01 277.724,704.888 280.966,699.77 284.207,694.656 287.449,689.546 290.69,684.442 293.931,679.343 297.173,674.251 300.414,669.165 303.655,664.086 306.897,659.015 310.138,653.952 313.38,648.898 316.621,643.853 319.862,638.817 323.104,633.792 326.345,628.778 329.587,623.774 332.828,618.783 336.069,613.804 339.311,608.837 342.552,603.883 345.793,598.944 349.035,594.018 352.276,589.107 355.518,584.211 358.759,579.331 362,574.467 365.242,569.62 368.483,564.79 371.725,559.977 374.966,555.183 378.207,550.407 381.449,545.65 384.69,540.913 387.931,536.195 391.173,531.498 394.414,526.822 397.656,522.168 400.897,517.535 404.138,512.924 407.38,508.337 410.621,503.772 413.863,499.232 417.104,494.715 420.345,490.223 423.587,485.756 426.828,481.315 430.069,476.899 433.311,472.51 436.552,468.148 439.794,463.813 443.035,459.506 446.276,455.227 449.518,450.976 452.759,446.755 456.001,442.562 459.242,438.4 462.483,434.268 465.725,430.166 468.966,426.096 472.208,422.057 475.449,418.05 478.69,414.075 481.932,410.133 485.173,406.224 488.414,402.348 491.656,398.507 494.897,394.699 498.139,390.926 501.38,387.188 504.621,383.486 507.863,379.819 511.104,376.188 514.346,372.594 517.587,369.036 520.828,365.516 524.07,362.033 527.311,358.588 530.552,355.182 533.794,351.813 537.035,348.484 540.277,345.194 543.518,341.944 546.759,338.733 550.001,335.563 553.242,332.433 556.484,329.344 559.725,326.296 562.966,323.29 566.208,320.325 569.449,317.403 572.69,314.522 575.932,311.685 579.173,308.89 582.415,306.138 585.656,303.43 588.897,300.766 592.139,298.146 595.38,295.57 598.622,293.038 601.863,290.551 605.104,288.109 608.346,285.713 611.587,283.362 614.828,281.057 618.07,278.798 621.311,276.584 624.553,274.418 627.794,272.298 631.035,270.225 634.277,268.199 637.518,266.22 640.76,264.288 644.001,262.405 647.242,260.569 650.484,258.781 653.725,257.041 656.966,255.35 660.208,253.707 663.449,252.113 666.691,250.568 669.932,249.072 673.173,247.625 676.415,246.227 679.656,244.879 682.898,243.58 686.139,242.331 689.38,241.132 692.622,239.983 695.863,238.884 699.104,237.835 702.346,236.837 705.587,235.888 708.829,234.991 712.07,234.144 715.311,233.347 718.553,232.602 721.794,231.907 725.036,231.263 728.277,230.67 731.518,230.128 734.76,229.637 738.001,229.197 741.242,228.808 744.484,228.471 747.725,228.185 750.967,227.95 754.208,227.766 757.449,227.634 760.691,227.553 763.932,227.523 767.174,227.544 770.415,227.617 773.656,227.741 776.898,227.917 780.139,228.144 783.381,228.422 786.622,228.751 789.863,229.132 793.105,229.563 796.346,230.046 799.587,230.58 802.829,231.165 806.07,231.801 809.312,232.488 812.553,233.225 815.794,234.013 819.036,234.852 822.277,235.742 825.519,236.682 828.76,237.673 832.001,238.714 835.243,239.805 838.484,240.946 841.725,242.137 844.967,243.378 848.208,244.669 851.45,246.009 854.691,247.399 857.932,248.838 861.174,250.326 864.415,251.864 867.657,253.45 870.898,255.085 874.139,256.768 877.381,258.5 880.622,260.281 883.863,262.109 887.105,263.985 890.346,265.909 893.588,267.88 896.829,269.899 900.07,271.964 903.312,274.077 906.553,276.236 909.795,278.442 913.036,280.694 916.277,282.992 919.519,285.336 922.76,287.725 926.001,290.159 929.243,292.639 932.484,295.163 935.726,297.732 938.967,300.346 942.208,303.003 945.45,305.704 948.691,308.449 951.933,311.237 955.174,314.068 958.415,316.941 961.657,319.857 964.898,322.815 968.139,325.815 971.381,328.856 974.622,331.938 977.864,335.062 981.105,338.226 984.346,341.43 987.588,344.674 990.829,347.958 994.071,351.281 997.312,354.643 1000.55,358.043 1003.79,361.482 1007.04,364.959 1010.28,368.473 1013.52,372.025 1016.76,375.613 1020,379.238 1023.24,382.899 1026.48,386.596 1029.73,390.329 1032.97,394.096 1036.21,397.898 1039.45,401.734 1042.69,405.605 1045.93,409.508 1049.17,413.445 1052.42,417.415 1055.66,421.417 1058.9,425.451 1062.14,429.516 1065.38,433.613 1068.62,437.74 1071.86,441.898 1075.11,446.085 1078.35,450.302 1081.59,454.548 1084.83,458.823 1088.07,463.125 1091.31,467.456 1094.55,471.814 1097.79,476.199 1101.04,480.61 1104.28,485.047 1107.52,489.51 1110.76,493.998 1114,498.511 1117.24,503.048 1120.48,507.608 1123.73,512.192 1126.97,516.799 1130.21,521.428 1133.45,526.079 1136.69,530.752 1139.93,535.446 1143.17,540.16 1146.42,544.894 1149.66,549.648 1152.9,554.421 1156.14,559.213 1159.38,564.022 1162.62,568.85 1165.86,573.694 1169.11,578.556 1172.35,583.433 1175.59,588.326 1178.83,593.235 1182.07,598.158 1185.31,603.096 1188.55,608.047 1191.8,613.012 1195.04,617.989 1198.28,622.979 1201.52,627.98 1204.76,632.993 1208,638.016 1211.24,643.05 1214.48,648.094 1217.73,653.146 1220.97,658.208 1224.21,663.278 1227.45,668.355 1230.69,673.44 1233.93,678.532 1237.17,683.629 1240.42,688.733 1243.66,693.842 1246.9,698.955 1250.14,704.073 1253.38,709.194 1256.62,714.318 1259.86,719.445 1263.11,724.575 1266.35,729.705 1269.59,734.837 1272.83,739.97 1276.07,745.102 1279.31,750.235 1282.55,755.366 1285.8,760.496 1289.04,765.623 1292.28,770.749 1295.52,775.871 1298.76,780.99 1302,786.105 1305.24,791.215 1308.48,796.32 1311.73,801.42 1314.97,806.513 1318.21,811.6 1321.45,816.68 1324.69,821.753 1327.93,826.817 1331.17,831.872 1334.42,836.919 1337.66,841.956 1340.9,846.983 1344.14,851.999 1347.38,857.004 1350.62,861.997 1353.86,866.979 1357.11,871.947 1360.35,876.903 1363.59,881.845 1366.83,886.773 1370.07,891.686 1373.31,896.584 1376.55,901.467 1379.8,906.334 1383.04,911.183 1386.28,916.016 1389.52,920.832 1392.76,925.629 1396,930.408 1399.24,935.168 1402.49,939.909 1405.73,944.629 1408.97,949.33 1412.21,954.009 1415.45,958.667 1418.69,963.303 1421.93,967.917 1425.17,972.509 1428.42,977.077 1431.66,981.621 1434.9,986.142 1438.14,990.638 1441.38,995.109 1444.62,999.554 1447.86,1003.97 1451.11,1008.37 1454.35,1012.73 1457.59,1017.07 1460.83,1021.38 1464.07,1025.67 1467.31,1029.92 1470.55,1034.15 1473.8,1038.35 1477.04,1042.51 1480.28,1046.65 1483.52,1050.76 1486.76,1054.83 1490,1058.88 1493.24,1062.89 1496.49,1066.87 1499.73,1070.82 1502.97,1074.73 1506.21,1078.61 1509.45,1082.46 1512.69,1086.27 1515.93,1090.05 1519.18,1093.79 1522.42,1097.5 1525.66,1101.17 1528.9,1104.81 1532.14,1108.41 1535.38,1111.97 1538.62,1115.5 1541.86,1118.99 1545.11,1122.44 1548.35,1125.85 1551.59,1129.23 1554.83,1132.56 1558.07,1135.86 1561.31,1139.12 1564.55,1142.33 1567.8,1145.51 1571.04,1148.65 1574.28,1151.74 1577.52,1154.8 1580.76,1157.81 1584,1160.78 1587.24,1163.71 1590.49,1166.6 1593.73,1169.44 1596.97,1172.24 1600.21,1175 1603.45,1177.72 1606.69,1180.39 1609.93,1183.01 1613.18,1185.6 1616.42,1188.14 1619.66,1190.63 1622.9,1193.08 1626.14,1195.48 1629.38,1197.84 1632.62,1200.15 1635.86,1202.42 1639.11,1204.64 1642.35,1206.81 1645.59,1208.94 1648.83,1211.02 1652.07,1213.06 1655.31,1215.04 1658.55,1216.98 1661.8,1218.87 1665.04,1220.72 1668.28,1222.51 1671.52,1224.26 1674.76,1225.96 1678,1227.61 1681.24,1229.21 1684.49,1230.76 1687.73,1232.27 1690.97,1233.72 1694.21,1235.13 1697.45,1236.48 1700.69,1237.79 1703.93,1239.05 1707.18,1240.25 1710.42,1241.41 1713.66,1242.52 1716.9,1243.58 1720.14,1244.58 1723.38,1245.54 1726.62,1246.44 1729.87,1247.3 1733.11,1248.1 1736.35,1248.86 1739.59,1249.56 1742.83,1250.21 1746.07,1250.81 1749.31,1251.36 1752.55,1251.86 1755.8,1252.31 1759.04,1252.71 1762.28,1253.05 1765.52,1253.35 1768.76,1253.59 1772,1253.78 1775.24,1253.92 1778.49,1254.01 1781.73,1254.05 1784.97,1254.04 1788.21,1253.97 1791.45,1253.86 1794.69,1253.69 1797.93,1253.47 1801.18,1253.2 1804.42,1252.88 1807.66,1252.51 1810.9,1252.08 1814.14,1251.61 1817.38,1251.08 1820.62,1250.51 1823.87,1249.88 1827.11,1249.2 1830.35,1248.47 1833.59,1247.69 1836.83,1246.86 1840.07,1245.98 1843.31,1245.05 1846.55,1244.06 1849.8,1243.03 1853.04,1241.95 1856.28,1240.81 1859.52,1239.63 1862.76,1238.4 1866,1237.11 1869.24,1235.78 1872.49,1234.4 1875.73,1232.97 1878.97,1231.49 1882.21,1229.96 1885.45,1228.38 1888.69,1226.75 1891.93,1225.08 1895.18,1223.35 1898.42,1221.58 1901.66,1219.76 1904.9,1217.89 1908.14,1215.98 1911.38,1214.01 1914.62,1212 1917.87,1209.94 1921.11,1207.84 1924.35,1205.69 1927.59,1203.49 1930.83,1201.24 1934.07,1198.95 1937.31,1196.62 1940.56,1194.23 1943.8,1191.81 1947.04,1189.33 1950.28,1186.82 1953.52,1184.25 1956.76,1181.65 1960,1179 1963.24,1176.3 1966.49,1173.57 1969.73,1170.78 1972.97,1167.96 1976.21,1165.09 1979.45,1162.18 1982.69,1159.23 1985.93,1156.24 1989.18,1153.21 1992.42,1150.13 1995.66,1147.01 1998.9,1143.86 2002.14,1140.66 2005.38,1137.42 2008.62,1134.14 2011.87,1130.83 2015.11,1127.47 2018.35,1124.08 2021.59,1120.64 2024.83,1117.17 2028.07,1113.66 2031.31,1110.12 2034.56,1106.54 2037.8,1102.92 2041.04,1099.26 2044.28,1095.57 2047.52,1091.84 2050.76,1088.08 2054,1084.28 2057.24,1080.45 2060.49,1076.59 2063.73,1072.69 2066.97,1068.76 2070.21,1064.79 2073.45,1060.8 2076.69,1056.77 2079.93,1052.71 2083.18,1048.62 2086.42,1044.49 2089.66,1040.34 2092.9,1036.16 2096.14,1031.95 2099.38,1027.7 2102.62,1023.43 2105.87,1019.14 2109.11,1014.81 2112.35,1010.46 2115.59,1006.08 2118.83,1001.67 2122.07,997.236 2125.31,992.777 2128.56,988.293 2131.8,983.784 2135.04,979.251 2138.28,974.694 2141.52,970.114 2144.76,965.511 2148,960.885 2151.25,956.237 2154.49,951.568 2157.73,946.878 2160.97,942.167 2164.21,937.436 2167.45,932.685 2170.69,927.915 2173.93,923.126 2177.18,918.319 2180.42,913.495 2183.66,908.653 2186.9,903.794 2190.14,898.919 2193.38,894.028 2196.62,889.122 2199.87,884.201 2203.11,879.266 2206.35,874.317 2209.59,869.354 2212.83,864.379 2216.07,859.391 2219.31,854.392 2222.56,849.381 2225.8,844.359 2229.04,839.327 2232.28,834.285 2235.52,829.233 2238.76,824.173 2242,819.105 2245.25,814.028 2248.49,808.945 2251.73,803.854 2254.97,798.757 2258.21,793.655 2261.45,788.547 2264.69,783.434 2267.94,778.317 2271.18,773.196 2274.42,768.073 2277.66,762.946 2280.9,757.817 2284.14,752.686 2287.38,747.555 2290.62,742.422 "/>
<circle clip-path="url(#clip232)" cx="601.863" cy="177.84" r="14.4" fill="#e26f46" fill-rule="evenodd" fill-opacity="1" stroke="#000000" stroke-opacity="1" stroke-width="3.2"/>
<circle clip-path="url(#clip232)" cx="864.415" cy="352.853" r="14.4" fill="#e26f46" fill-rule="evenodd" fill-opacity="1" stroke="#000000" stroke-opacity="1" stroke-width="3.2"/>
<circle clip-path="url(#clip232)" cx="378.207" cy="453.063" r="14.4" fill="#e26f46" fill-rule="evenodd" fill-opacity="1" stroke="#000000" stroke-opacity="1" stroke-width="3.2"/>
<circle clip-path="url(#clip232)" cx="1551.59" cy="1143.79" r="14.4" fill="#e26f46" fill-rule="evenodd" fill-opacity="1" stroke="#000000" stroke-opacity="1" stroke-width="3.2"/>
<circle clip-path="url(#clip232)" cx="1814.14" cy="1336.83" r="14.4" fill="#e26f46" fill-rule="evenodd" fill-opacity="1" stroke="#000000" stroke-opacity="1" stroke-width="3.2"/>
<circle clip-path="url(#clip232)" cx="1522.42" cy="1178.74" r="14.4" fill="#e26f46" fill-rule="evenodd" fill-opacity="1" stroke="#000000" stroke-opacity="1" stroke-width="3.2"/>
<circle clip-path="url(#clip232)" cx="673.173" cy="300.779" r="14.4" fill="#e26f46" fill-rule="evenodd" fill-opacity="1" stroke="#000000" stroke-opacity="1" stroke-width="3.2"/>
<circle clip-path="url(#clip232)" cx="922.76" cy="244.614" r="14.4" fill="#e26f46" fill-rule="evenodd" fill-opacity="1" stroke="#000000" stroke-opacity="1" stroke-width="3.2"/>
<circle clip-path="url(#clip232)" cx="754.208" cy="134.977" r="14.4" fill="#e26f46" fill-rule="evenodd" fill-opacity="1" stroke="#000000" stroke-opacity="1" stroke-width="3.2"/>
<circle clip-path="url(#clip232)" cx="1765.52" cy="1179.76" r="14.4" fill="#e26f46" fill-rule="evenodd" fill-opacity="1" stroke="#000000" stroke-opacity="1" stroke-width="3.2"/>
<circle clip-path="url(#clip232)" cx="1726.62" cy="1224.55" r="14.4" fill="#e26f46" fill-rule="evenodd" fill-opacity="1" stroke="#000000" stroke-opacity="1" stroke-width="3.2"/>
<circle clip-path="url(#clip232)" cx="1483.52" cy="1114.16" r="14.4" fill="#e26f46" fill-rule="evenodd" fill-opacity="1" stroke="#000000" stroke-opacity="1" stroke-width="3.2"/>
<circle clip-path="url(#clip232)" cx="1289.04" cy="677.312" r="14.4" fill="#e26f46" fill-rule="evenodd" fill-opacity="1" stroke="#000000" stroke-opacity="1" stroke-width="3.2"/>
<circle clip-path="url(#clip232)" cx="1843.31" cy="1258.87" r="14.4" fill="#e26f46" fill-rule="evenodd" fill-opacity="1" stroke="#000000" stroke-opacity="1" stroke-width="3.2"/>
<circle clip-path="url(#clip232)" cx="1071.86" cy="388.9" r="14.4" fill="#e26f46" fill-rule="evenodd" fill-opacity="1" stroke="#000000" stroke-opacity="1" stroke-width="3.2"/>
<circle clip-path="url(#clip232)" cx="1606.69" cy="1054.26" r="14.4" fill="#e26f46" fill-rule="evenodd" fill-opacity="1" stroke="#000000" stroke-opacity="1" stroke-width="3.2"/>
<circle clip-path="url(#clip232)" cx="332.828" cy="508.459" r="14.4" fill="#e26f46" fill-rule="evenodd" fill-opacity="1" stroke="#000000" stroke-opacity="1" stroke-width="3.2"/>
<circle clip-path="url(#clip232)" cx="828.76" cy="326.148" r="14.4" fill="#e26f46" fill-rule="evenodd" fill-opacity="1" stroke="#000000" stroke-opacity="1" stroke-width="3.2"/>
<circle clip-path="url(#clip232)" cx="511.104" cy="334.902" r="14.4" fill="#e26f46" fill-rule="evenodd" fill-opacity="1" stroke="#000000" stroke-opacity="1" stroke-width="3.2"/>
<circle clip-path="url(#clip232)" cx="485.173" cy="405.778" r="14.4" fill="#e26f46" fill-rule="evenodd" fill-opacity="1" stroke="#000000" stroke-opacity="1" stroke-width="3.2"/>
<path clip-path="url(#clip232)" d="M255.035 847.554 L258.276 841.84 L261.517 836.097 L264.759 830.328 L268 824.536 L271.242 818.724 L274.483 812.896 L277.724 807.057 L280.966 801.211 L284.207 795.362 L287.449 789.515 L290.69 783.676 L293.931 777.849 L297.173 772.043 L300.414 766.261 L303.655 760.512 L306.897 754.801 L310.138 749.137 L313.38 743.527 L316.621 737.979 L319.862 732.502 L323.104 727.103 L326.345 721.791 L329.587 716.575 L332.828 711.465 L336.069 706.467 L339.311 701.581 L342.552 696.806 L345.793 692.14 L349.035 687.581 L352.276 683.127 L355.518 678.778 L358.759 674.531 L362 670.385 L365.242 666.339 L368.483 662.393 L371.725 658.545 L374.966 654.794 L378.207 651.139 L381.449 647.58 L384.69 644.105 L387.931 640.706 L391.173 637.371 L394.414 634.091 L397.656 630.855 L400.897 627.656 L404.138 624.484 L407.38 621.331 L410.621 618.19 L413.863 615.055 L417.104 611.919 L420.345 608.778 L423.587 605.627 L426.828 602.462 L430.069 599.28 L433.311 596.08 L436.552 592.86 L439.794 589.619 L443.035 586.358 L446.276 583.077 L449.518 579.779 L452.759 576.465 L456.001 573.14 L459.242 569.806 L462.483 566.468 L465.725 563.132 L468.966 559.804 L472.208 556.489 L475.449 553.196 L478.69 549.93 L481.932 546.701 L485.173 543.516 L488.414 540.383 L491.656 537.304 L494.897 534.281 L498.139 531.316 L501.38 528.41 L504.621 525.566 L507.863 522.786 L511.104 520.073 L514.346 517.428 L517.587 514.846 L520.828 512.32 L524.07 509.845 L527.311 507.415 L530.552 505.024 L533.794 502.667 L537.035 500.34 L540.277 498.04 L543.518 495.763 L546.759 493.508 L550.001 491.272 L553.242 489.054 L556.484 486.853 L559.725 484.671 L562.966 482.507 L566.208 480.363 L569.449 478.243 L572.69 476.147 L575.932 474.081 L579.173 472.047 L582.415 470.051 L585.656 468.098 L588.897 466.194 L592.139 464.345 L595.38 462.557 L598.622 460.839 L601.863 459.196 L605.104 457.636 L608.346 456.153 L611.587 454.742 L614.828 453.396 L618.07 452.111 L621.311 450.88 L624.553 449.701 L627.794 448.568 L631.035 447.477 L634.277 446.427 L637.518 445.413 L640.76 444.435 L644.001 443.491 L647.242 442.579 L650.484 441.699 L653.725 440.852 L656.966 440.037 L660.208 439.255 L663.449 438.509 L666.691 437.8 L669.932 437.129 L673.173 436.5 L676.415 435.913 L679.656 435.367 L682.898 434.856 L686.139 434.378 L689.38 433.929 L692.622 433.506 L695.863 433.108 L699.104 432.731 L702.346 432.376 L705.587 432.04 L708.829 431.724 L712.07 431.428 L715.311 431.152 L718.553 430.899 L721.794 430.669 L725.036 430.467 L728.277 430.294 L731.518 430.154 L734.76 430.052 L738.001 429.993 L741.242 429.981 L744.484 430.024 L747.725 430.126 L750.967 430.296 L754.208 430.54 L757.449 430.862 L760.691 431.259 L763.932 431.723 L767.174 432.247 L770.415 432.826 L773.656 433.452 L776.898 434.122 L780.139 434.831 L783.381 435.574 L786.622 436.349 L789.863 437.152 L793.105 437.982 L796.346 438.837 L799.587 439.718 L802.829 440.623 L806.07 441.555 L809.312 442.514 L812.553 443.502 L815.794 444.523 L819.036 445.579 L822.277 446.676 L825.519 447.817 L828.76 449.007 L832.001 450.251 L835.243 451.549 L838.484 452.901 L841.725 454.305 L844.967 455.764 L848.208 457.277 L851.45 458.846 L854.691 460.472 L857.932 462.158 L861.174 463.904 L864.415 465.714 L867.657 467.59 L870.898 469.53 L874.139 471.531 L877.381 473.591 L880.622 475.709 L883.863 477.882 L887.105 480.111 L890.346 482.395 L893.588 484.733 L896.829 487.128 L900.07 489.579 L903.312 492.089 L906.553 494.661 L909.795 497.296 L913.036 499.998 L916.277 502.771 L919.519 505.618 L922.76 508.545 L926.001 511.552 L929.243 514.634 L932.484 517.782 L935.726 520.987 L938.967 524.242 L942.208 527.539 L945.45 530.871 L948.691 534.231 L951.933 537.612 L955.174 541.01 L958.415 544.419 L961.657 547.833 L964.898 551.25 L968.139 554.664 L971.381 558.073 L974.622 561.474 L977.864 564.865 L981.105 568.243 L984.346 571.608 L987.588 574.958 L990.829 578.293 L994.071 581.612 L997.312 584.918 L1000.55 588.209 L1003.79 591.488 L1007.04 594.756 L1010.28 598.016 L1013.52 601.269 L1016.76 604.52 L1020 607.771 L1023.24 611.026 L1026.48 614.29 L1029.73 617.566 L1032.97 620.86 L1036.21 624.178 L1039.45 627.524 L1042.69 630.904 L1045.93 634.325 L1049.17 637.794 L1052.42 641.316 L1055.66 644.898 L1058.9 648.548 L1062.14 652.273 L1065.38 656.08 L1068.62 659.977 L1071.86 663.969 L1075.11 668.064 L1078.35 672.254 L1081.59 676.535 L1084.83 680.897 L1088.07 685.334 L1091.31 689.839 L1094.55 694.404 L1097.79 699.024 L1101.04 703.69 L1104.28 708.398 L1107.52 713.139 L1110.76 717.909 L1114 722.702 L1117.24 727.511 L1120.48 732.332 L1123.73 737.16 L1126.97 741.99 L1130.21 746.817 L1133.45 751.638 L1136.69 756.448 L1139.93 761.244 L1143.17 766.023 L1146.42 770.782 L1149.66 775.517 L1152.9 780.226 L1156.14 784.908 L1159.38 789.56 L1162.62 794.18 L1165.86 798.767 L1169.11 803.321 L1172.35 807.839 L1175.59 812.322 L1178.83 816.769 L1182.07 821.18 L1185.31 825.554 L1188.55 829.894 L1191.8 834.198 L1195.04 838.469 L1198.28 842.707 L1201.52 846.913 L1204.76 851.09 L1208 855.239 L1211.24 859.363 L1214.48 863.464 L1217.73 867.544 L1220.97 871.607 L1224.21 875.657 L1227.45 879.696 L1230.69 883.728 L1233.93 887.758 L1237.17 891.79 L1240.42 895.828 L1243.66 899.877 L1246.9 903.944 L1250.14 908.032 L1253.38 912.147 L1256.62 916.296 L1259.86 920.484 L1263.11 924.718 L1266.35 929.004 L1269.59 933.348 L1272.83 937.758 L1276.07 942.24 L1279.31 946.801 L1282.55 951.448 L1285.8 956.187 L1289.04 961.025 L1292.28 965.967 L1295.52 971.007 L1298.76 976.135 L1302 981.344 L1305.24 986.625 L1308.48 991.97 L1311.73 997.369 L1314.97 1002.81 L1318.21 1008.3 L1321.45 1013.81 L1324.69 1019.35 L1327.93 1024.9 L1331.17 1030.45 L1334.42 1036.01 L1337.66 1041.56 L1340.9 1047.09 L1344.14 1052.6 L1347.38 1058.08 L1350.62 1063.53 L1353.86 1068.94 L1357.11 1074.3 L1360.35 1079.61 L1363.59 1084.87 L1366.83 1090.06 L1370.07 1095.19 L1373.31 1100.25 L1376.55 1105.23 L1379.8 1110.14 L1383.04 1114.97 L1386.28 1119.71 L1389.52 1124.37 L1392.76 1128.94 L1396 1133.41 L1399.24 1137.79 L1402.49 1142.08 L1405.73 1146.26 L1408.97 1150.35 L1412.21 1154.34 L1415.45 1158.23 L1418.69 1162.01 L1421.93 1165.7 L1425.17 1169.29 L1428.42 1172.77 L1431.66 1176.16 L1434.9 1179.44 L1438.14 1182.63 L1441.38 1185.73 L1444.62 1188.74 L1447.86 1191.65 L1451.11 1194.48 L1454.35 1197.23 L1457.59 1199.89 L1460.83 1202.49 L1464.07 1205.01 L1467.31 1207.48 L1470.55 1209.88 L1473.8 1212.23 L1477.04 1214.54 L1480.28 1216.8 L1483.52 1219.04 L1486.76 1221.25 L1490 1223.44 L1493.24 1225.6 L1496.49 1227.75 L1499.73 1229.88 L1502.97 1232.01 L1506.21 1234.12 L1509.45 1236.22 L1512.69 1238.32 L1515.93 1240.42 L1519.18 1242.53 L1522.42 1244.65 L1525.66 1246.77 L1528.9 1248.92 L1532.14 1251.07 L1535.38 1253.24 L1538.62 1255.43 L1541.86 1257.64 L1545.11 1259.86 L1548.35 1262.1 L1551.59 1264.37 L1554.83 1266.66 L1558.07 1268.97 L1561.31 1271.3 L1564.55 1273.64 L1567.8 1275.98 L1571.04 1278.34 L1574.28 1280.7 L1577.52 1283.06 L1580.76 1285.42 L1584 1287.79 L1587.24 1290.16 L1590.49 1292.53 L1593.73 1294.9 L1596.97 1297.28 L1600.21 1299.67 L1603.45 1302.07 L1606.69 1304.48 L1609.93 1306.91 L1613.18 1309.35 L1616.42 1311.78 L1619.66 1314.21 L1622.9 1316.61 L1626.14 1318.99 L1629.38 1321.34 L1632.62 1323.65 L1635.86 1325.92 L1639.11 1328.13 L1642.35 1330.28 L1645.59 1332.37 L1648.83 1334.4 L1652.07 1336.36 L1655.31 1338.24 L1658.55 1340.05 L1661.8 1341.77 L1665.04 1343.42 L1668.28 1344.99 L1671.52 1346.47 L1674.76 1347.87 L1678 1349.19 L1681.24 1350.43 L1684.49 1351.59 L1687.73 1352.66 L1690.97 1353.67 L1694.21 1354.6 L1697.45 1355.45 L1700.69 1356.25 L1703.93 1356.98 L1707.18 1357.66 L1710.42 1358.28 L1713.66 1358.86 L1716.9 1359.41 L1720.14 1359.92 L1723.38 1360.41 L1726.62 1360.89 L1729.87 1361.36 L1733.11 1361.82 L1736.35 1362.29 L1739.59 1362.75 L1742.83 1363.22 L1746.07 1363.69 L1749.31 1364.18 L1752.55 1364.67 L1755.8 1365.2 L1759.04 1365.74 L1762.28 1366.32 L1765.52 1366.94 L1768.76 1367.59 L1772 1368.3 L1775.24 1369.04 L1778.49 1369.82 L1781.73 1370.64 L1784.97 1371.49 L1788.21 1372.38 L1791.45 1373.3 L1794.69 1374.26 L1797.93 1375.26 L1801.18 1376.29 L1804.42 1377.36 L1807.66 1378.48 L1810.9 1379.64 L1814.14 1380.84 L1817.38 1382.09 L1820.62 1383.39 L1823.87 1384.74 L1827.11 1386.13 L1830.35 1387.57 L1833.59 1389.05 L1836.83 1390.58 L1840.07 1392.16 L1843.31 1393.78 L1846.55 1395.44 L1849.8 1397.14 L1853.04 1398.87 L1856.28 1400.62 L1859.52 1402.39 L1862.76 1404.16 L1866 1405.94 L1869.24 1407.72 L1872.49 1409.48 L1875.73 1411.23 L1878.97 1412.97 L1882.21 1414.68 L1885.45 1416.36 L1888.69 1418.02 L1891.93 1419.64 L1895.18 1421.22 L1898.42 1422.76 L1901.66 1424.26 L1904.9 1425.72 L1908.14 1427.13 L1911.38 1428.49 L1914.62 1429.8 L1917.87 1431.06 L1921.11 1432.28 L1924.35 1433.43 L1927.59 1434.54 L1930.83 1435.6 L1934.07 1436.6 L1937.31 1437.54 L1940.56 1438.44 L1943.8 1439.28 L1947.04 1440.06 L1950.28 1440.79 L1953.52 1441.47 L1956.76 1442.1 L1960 1442.68 L1963.24 1443.2 L1966.49 1443.67 L1969.73 1444.09 L1972.97 1444.46 L1976.21 1444.78 L1979.45 1445.05 L1982.69 1445.28 L1985.93 1445.46 L1989.18 1445.59 L1992.42 1445.67 L1995.66 1445.72 L1998.9 1445.71 L2002.14 1445.67 L2005.38 1445.58 L2008.62 1445.45 L2011.87 1445.28 L2015.11 1445.08 L2018.35 1444.83 L2021.59 1444.54 L2024.83 1444.22 L2028.07 1443.87 L2031.31 1443.48 L2034.56 1443.05 L2037.8 1442.59 L2041.04 1442.1 L2044.28 1441.58 L2047.52 1441.03 L2050.76 1440.45 L2054 1439.84 L2057.24 1439.2 L2060.49 1438.54 L2063.73 1437.85 L2066.97 1437.13 L2070.21 1436.39 L2073.45 1435.63 L2076.69 1434.84 L2079.93 1434.03 L2083.18 1433.2 L2086.42 1432.35 L2089.66 1431.48 L2092.9 1430.59 L2096.14 1429.69 L2099.38 1428.76 L2102.62 1427.82 L2105.87 1426.86 L2109.11 1425.89 L2112.35 1424.9 L2115.59 1423.9 L2118.83 1422.88 L2122.07 1421.85 L2125.31 1420.81 L2128.56 1419.76 L2131.8 1418.7 L2135.04 1417.62 L2138.28 1416.54 L2141.52 1415.44 L2144.76 1414.34 L2148 1413.23 L2151.25 1412.11 L2154.49 1410.99 L2157.73 1409.85 L2160.97 1408.72 L2164.21 1407.57 L2167.45 1406.42 L2170.69 1405.27 L2173.93 1404.11 L2177.18 1402.94 L2180.42 1401.78 L2183.66 1400.61 L2186.9 1399.43 L2190.14 1398.26 L2193.38 1397.08 L2196.62 1395.9 L2199.87 1394.72 L2203.11 1393.54 L2206.35 1392.36 L2209.59 1391.17 L2212.83 1389.99 L2216.07 1388.81 L2219.31 1387.63 L2222.56 1386.45 L2225.8 1385.27 L2229.04 1384.09 L2232.28 1382.91 L2235.52 1381.74 L2238.76 1380.57 L2242 1379.4 L2245.25 1378.23 L2248.49 1377.07 L2251.73 1375.91 L2254.97 1374.75 L2258.21 1373.6 L2261.45 1372.45 L2264.69 1371.3 L2267.94 1370.16 L2271.18 1369.02 L2274.42 1367.89 L2277.66 1366.76 L2280.9 1365.64 L2284.14 1364.52 L2287.38 1363.41 L2290.62 1362.3 L2290.62 375.625 L2287.38 377.735 L2284.14 379.874 L2280.9 382.043 L2277.66 384.241 L2274.42 386.469 L2271.18 388.728 L2267.94 391.017 L2264.69 393.337 L2261.45 395.689 L2258.21 398.072 L2254.97 400.488 L2251.73 402.936 L2248.49 405.417 L2245.25 407.931 L2242 410.479 L2238.76 413.061 L2235.52 415.678 L2232.28 418.329 L2229.04 421.016 L2225.8 423.739 L2222.56 426.497 L2219.31 429.292 L2216.07 432.124 L2212.83 434.993 L2209.59 437.899 L2206.35 440.844 L2203.11 443.827 L2199.87 446.849 L2196.62 449.911 L2193.38 453.012 L2190.14 456.153 L2186.9 459.334 L2183.66 462.556 L2180.42 465.82 L2177.18 469.125 L2173.93 472.472 L2170.69 475.862 L2167.45 479.295 L2164.21 482.771 L2160.97 486.29 L2157.73 489.854 L2154.49 493.462 L2151.25 497.115 L2148 500.813 L2144.76 504.556 L2141.52 508.346 L2138.28 512.181 L2135.04 516.064 L2131.8 519.993 L2128.56 523.97 L2125.31 527.994 L2122.07 532.066 L2118.83 536.187 L2115.59 540.356 L2112.35 544.575 L2109.11 548.842 L2105.87 553.159 L2102.62 557.526 L2099.38 561.943 L2096.14 566.41 L2092.9 570.928 L2089.66 575.497 L2086.42 580.116 L2083.18 584.787 L2079.93 589.509 L2076.69 594.283 L2073.45 599.108 L2070.21 603.985 L2066.97 608.914 L2063.73 613.894 L2060.49 618.927 L2057.24 624.012 L2054 629.149 L2050.76 634.337 L2047.52 639.578 L2044.28 644.87 L2041.04 650.215 L2037.8 655.61 L2034.56 661.057 L2031.31 666.555 L2028.07 672.104 L2024.83 677.704 L2021.59 683.354 L2018.35 689.053 L2015.11 694.802 L2011.87 700.599 L2008.62 706.445 L2005.38 712.338 L2002.14 718.279 L1998.9 724.265 L1995.66 730.297 L1992.42 736.373 L1989.18 742.493 L1985.93 748.656 L1982.69 754.86 L1979.45 761.104 L1976.21 767.386 L1972.97 773.707 L1969.73 780.063 L1966.49 786.453 L1963.24 792.877 L1960 799.33 L1956.76 805.813 L1953.52 812.322 L1950.28 818.856 L1947.04 825.412 L1943.8 831.986 L1940.56 838.578 L1937.31 845.183 L1934.07 851.799 L1930.83 858.422 L1927.59 865.048 L1924.35 871.674 L1921.11 878.296 L1917.87 884.91 L1914.62 891.51 L1911.38 898.092 L1908.14 904.651 L1904.9 911.182 L1901.66 917.678 L1898.42 924.133 L1895.18 930.541 L1891.93 936.895 L1888.69 943.186 L1885.45 949.408 L1882.21 955.552 L1878.97 961.609 L1875.73 967.57 L1872.49 973.424 L1869.24 979.162 L1866 984.772 L1862.76 990.243 L1859.52 995.563 L1856.28 1000.72 L1853.04 1005.7 L1849.8 1010.49 L1846.55 1015.07 L1843.31 1019.44 L1840.07 1023.57 L1836.83 1027.47 L1833.59 1031.13 L1830.35 1034.55 L1827.11 1037.72 L1823.87 1040.65 L1820.62 1043.33 L1817.38 1045.75 L1814.14 1047.92 L1810.9 1049.82 L1807.66 1051.48 L1804.42 1052.89 L1801.18 1054.07 L1797.93 1055.04 L1794.69 1055.79 L1791.45 1056.34 L1788.21 1056.71 L1784.97 1056.88 L1781.73 1056.88 L1778.49 1056.71 L1775.24 1056.38 L1772 1055.88 L1768.76 1055.23 L1765.52 1054.44 L1762.28 1053.49 L1759.04 1052.42 L1755.8 1051.21 L1752.55 1049.89 L1749.31 1048.45 L1746.07 1046.92 L1742.83 1045.28 L1739.59 1043.56 L1736.35 1041.76 L1733.11 1039.87 L1729.87 1037.91 L1726.62 1035.88 L1723.38 1033.78 L1720.14 1031.63 L1716.9 1029.43 L1713.66 1027.21 L1710.42 1024.96 L1707.18 1022.7 L1703.93 1020.45 L1700.69 1018.2 L1697.45 1015.97 L1694.21 1013.76 L1690.97 1011.59 L1687.73 1009.45 L1684.49 1007.36 L1681.24 1005.32 L1678 1003.33 L1674.76 1001.4 L1671.52 999.532 L1668.28 997.727 L1665.04 995.989 L1661.8 994.318 L1658.55 992.716 L1655.31 991.182 L1652.07 989.717 L1648.83 988.32 L1645.59 986.988 L1642.35 985.72 L1639.11 984.514 L1635.86 983.366 L1632.62 982.272 L1629.38 981.229 L1626.14 980.23 L1622.9 979.271 L1619.66 978.346 L1616.42 977.447 L1613.18 976.569 L1609.93 975.703 L1606.69 974.841 L1603.45 973.977 L1600.21 973.104 L1596.97 972.217 L1593.73 971.312 L1590.49 970.381 L1587.24 969.42 L1584 968.42 L1580.76 967.374 L1577.52 966.273 L1574.28 965.108 L1571.04 963.87 L1567.8 962.548 L1564.55 961.131 L1561.31 959.607 L1558.07 957.963 L1554.83 956.187 L1551.59 954.265 L1548.35 952.186 L1545.11 949.942 L1541.86 947.53 L1538.62 944.944 L1535.38 942.18 L1532.14 939.231 L1528.9 936.091 L1525.66 932.754 L1522.42 929.214 L1519.18 925.466 L1515.93 921.514 L1512.69 917.362 L1509.45 913.017 L1506.21 908.484 L1502.97 903.768 L1499.73 898.872 L1496.49 893.8 L1493.24 888.556 L1490 883.142 L1486.76 877.562 L1483.52 871.817 L1480.28 865.911 L1477.04 859.856 L1473.8 853.667 L1470.55 847.356 L1467.31 840.936 L1464.07 834.42 L1460.83 827.819 L1457.59 821.145 L1454.35 814.408 L1451.11 807.619 L1447.86 800.787 L1444.62 793.921 L1441.38 787.031 L1438.14 780.123 L1434.9 773.205 L1431.66 766.285 L1428.42 759.369 L1425.17 752.463 L1421.93 745.572 L1418.69 738.702 L1415.45 731.858 L1412.21 725.043 L1408.97 718.263 L1405.73 711.52 L1402.49 704.818 L1399.24 698.159 L1396 691.547 L1392.76 684.983 L1389.52 678.469 L1386.28 672.007 L1383.04 665.598 L1379.8 659.243 L1376.55 652.942 L1373.31 646.696 L1370.07 640.505 L1366.83 634.368 L1363.59 628.285 L1360.35 622.255 L1357.11 616.276 L1353.86 610.347 L1350.62 604.467 L1347.38 598.632 L1344.14 592.842 L1340.9 587.093 L1337.66 581.382 L1334.42 575.706 L1331.17 570.062 L1327.93 564.446 L1324.69 558.854 L1321.45 553.282 L1318.21 547.726 L1314.97 542.181 L1311.73 536.643 L1308.48 531.106 L1305.24 525.566 L1302 520.019 L1298.76 514.458 L1295.52 508.88 L1292.28 503.279 L1289.04 497.65 L1285.8 491.992 L1282.55 486.307 L1279.31 480.6 L1276.07 474.876 L1272.83 469.142 L1269.59 463.403 L1266.35 457.664 L1263.11 451.93 L1259.86 446.207 L1256.62 440.5 L1253.38 434.815 L1250.14 429.155 L1246.9 423.526 L1243.66 417.933 L1240.42 412.38 L1237.17 406.871 L1233.93 401.411 L1230.69 396.002 L1227.45 390.649 L1224.21 385.356 L1220.97 380.124 L1217.73 374.958 L1214.48 369.859 L1211.24 364.832 L1208 359.876 L1204.76 354.996 L1201.52 350.193 L1198.28 345.467 L1195.04 340.822 L1191.8 336.258 L1188.55 331.776 L1185.31 327.377 L1182.07 323.062 L1178.83 318.831 L1175.59 314.685 L1172.35 310.623 L1169.11 306.646 L1165.86 302.752 L1162.62 298.942 L1159.38 295.215 L1156.14 291.57 L1152.9 288.006 L1149.66 284.521 L1146.42 281.114 L1143.17 277.783 L1139.93 274.527 L1136.69 271.343 L1133.45 268.228 L1130.21 265.181 L1126.97 262.199 L1123.73 259.278 L1120.48 256.416 L1117.24 253.608 L1114 250.853 L1110.76 248.145 L1107.52 245.481 L1104.28 242.857 L1101.04 240.268 L1097.79 237.71 L1094.55 235.179 L1091.31 232.67 L1088.07 230.179 L1084.83 227.699 L1081.59 225.228 L1078.35 222.759 L1075.11 220.289 L1071.86 217.812 L1068.62 215.326 L1065.38 212.834 L1062.14 210.341 L1058.9 207.851 L1055.66 205.371 L1052.42 202.904 L1049.17 200.456 L1045.93 198.032 L1042.69 195.637 L1039.45 193.275 L1036.21 190.952 L1032.97 188.67 L1029.73 186.436 L1026.48 184.252 L1023.24 182.123 L1020 180.052 L1016.76 178.042 L1013.52 176.096 L1010.28 174.216 L1007.04 172.406 L1003.79 170.667 L1000.55 169 L997.312 167.408 L994.071 165.891 L990.829 164.45 L987.588 163.086 L984.346 161.798 L981.105 160.586 L977.864 159.45 L974.622 158.388 L971.381 157.399 L968.139 156.482 L964.898 155.634 L961.657 154.853 L958.415 154.136 L955.174 153.479 L951.933 152.879 L948.691 152.333 L945.45 151.835 L942.208 151.38 L938.967 150.965 L935.726 150.583 L932.484 150.228 L929.243 149.895 L926.001 149.576 L922.76 149.267 L919.519 148.961 L916.277 148.654 L913.036 148.347 L909.795 148.035 L906.553 147.718 L903.312 147.391 L900.07 147.053 L896.829 146.7 L893.588 146.327 L890.346 145.932 L887.105 145.509 L883.863 145.053 L880.622 144.559 L877.381 144.021 L874.139 143.432 L870.898 142.786 L867.657 142.075 L864.415 141.294 L861.174 140.435 L857.932 139.5 L854.691 138.493 L851.45 137.416 L848.208 136.272 L844.967 135.063 L841.725 133.792 L838.484 132.46 L835.243 131.068 L832.001 129.617 L828.76 128.109 L825.519 126.545 L822.277 124.934 L819.036 123.287 L815.794 121.613 L812.553 119.922 L809.312 118.224 L806.07 116.526 L802.829 114.837 L799.587 113.163 L796.346 111.513 L793.105 109.892 L789.863 108.306 L786.622 106.759 L783.381 105.258 L780.139 103.804 L776.898 102.403 L773.656 101.057 L770.415 99.7674 L767.174 98.5375 L763.932 97.3685 L760.691 96.2617 L757.449 95.218 L754.208 94.238 L750.967 93.3227 L747.725 92.4741 L744.484 91.6945 L741.242 90.9858 L738.001 90.35 L734.76 89.7883 L731.518 89.3019 L728.277 88.8915 L725.036 88.5575 L721.794 88.2997 L718.553 88.1176 L715.311 88.0102 L712.07 87.9763 L708.829 88.0139 L705.587 88.1208 L702.346 88.2944 L699.104 88.5314 L695.863 88.8285 L692.622 89.1817 L689.38 89.5866 L686.139 90.0388 L682.898 90.5333 L679.656 91.0648 L676.415 91.628 L673.173 92.2171 L669.932 92.8282 L666.691 93.4646 L663.449 94.131 L660.208 94.832 L656.966 95.5723 L653.725 96.3558 L650.484 97.1866 L647.242 98.0681 L644.001 99.0037 L640.76 99.996 L637.518 101.048 L634.277 102.161 L631.035 103.337 L627.794 104.578 L624.553 105.884 L621.311 107.256 L618.07 108.694 L614.828 110.198 L611.587 111.768 L608.346 113.403 L605.104 115.103 L601.863 116.866 L598.622 118.691 L595.38 120.579 L592.139 122.534 L588.897 124.555 L585.656 126.645 L582.415 128.804 L579.173 131.032 L575.932 133.331 L572.69 135.699 L569.449 138.137 L566.208 140.642 L562.966 143.214 L559.725 145.85 L556.484 148.547 L553.242 151.303 L550.001 154.113 L546.759 156.974 L543.518 159.879 L540.277 162.825 L537.035 165.805 L533.794 168.812 L530.552 171.839 L527.311 174.88 L524.07 177.925 L520.828 180.968 L517.587 183.998 L514.346 187.008 L511.104 189.988 L507.863 192.929 L504.621 195.829 L501.38 198.687 L498.139 201.499 L494.897 204.263 L491.656 206.978 L488.414 209.641 L485.173 212.248 L481.932 214.801 L478.69 217.302 L475.449 219.761 L472.208 222.184 L468.966 224.577 L465.725 226.946 L462.483 229.296 L459.242 231.634 L456.001 233.963 L452.759 236.288 L449.518 238.61 L446.276 240.934 L443.035 243.261 L439.794 245.593 L436.552 247.929 L433.311 250.269 L430.069 252.613 L426.828 254.96 L423.587 257.305 L420.345 259.648 L417.104 261.983 L413.863 264.306 L410.621 266.613 L407.38 268.896 L404.138 271.15 L400.897 273.367 L397.656 275.539 L394.414 277.658 L391.173 279.716 L387.931 281.702 L384.69 283.607 L381.449 285.421 L378.207 287.134 L374.966 288.737 L371.725 290.226 L368.483 291.601 L365.242 292.857 L362 293.995 L358.759 295.011 L355.518 295.904 L352.276 296.671 L349.035 297.31 L345.793 297.817 L342.552 298.192 L339.311 298.43 L336.069 298.53 L332.828 298.488 L329.587 298.304 L326.345 297.986 L323.104 297.54 L319.862 296.976 L316.621 296.302 L313.38 295.527 L310.138 294.657 L306.897 293.701 L303.655 292.666 L300.414 291.559 L297.173 290.387 L293.931 289.156 L290.69 287.872 L287.449 286.541 L284.207 285.169 L280.966 283.761 L277.724 282.321 L274.483 280.853 L271.242 279.363 L268 277.854 L264.759 276.33 L261.517 274.794 L258.276 273.25 L255.035 271.7  Z" fill="#3da44d" fill-rule="evenodd" fill-opacity="0.1"/>
<polyline clip-path="url(#clip232)" style="stroke:#3da44d; stroke-linecap:round; stroke-linejoin:round; stroke-width:8; stroke-opacity:1; fill:none" points="255.035,559.627 258.276,557.545 261.517,555.446 264.759,553.329 268,551.195 271.242,549.044 274.483,546.875 277.724,544.689 280.966,542.486 284.207,540.265 287.449,538.028 290.69,535.774 293.931,533.503 297.173,531.215 300.414,528.91 303.655,526.589 306.897,524.251 310.138,521.897 313.38,519.527 316.621,517.141 319.862,514.739 323.104,512.321 326.345,509.888 329.587,507.44 332.828,504.976 336.069,502.498 339.311,500.006 342.552,497.499 345.793,494.979 349.035,492.445 352.276,489.899 355.518,487.341 358.759,484.771 362,482.19 365.242,479.598 368.483,476.997 371.725,474.385 374.966,471.765 378.207,469.137 381.449,466.501 384.69,463.856 387.931,461.204 391.173,458.543 394.414,455.875 397.656,453.197 400.897,450.511 404.138,447.817 407.38,445.113 410.621,442.401 413.863,439.681 417.104,436.951 420.345,434.213 423.587,431.466 426.828,428.711 430.069,425.947 433.311,423.175 436.552,420.394 439.794,417.606 443.035,414.81 446.276,412.006 449.518,409.195 452.759,406.376 456.001,403.551 459.242,400.72 462.483,397.882 465.725,395.039 468.966,392.19 472.208,389.337 475.449,386.478 478.69,383.616 481.932,380.751 485.173,377.882 488.414,375.012 491.656,372.141 494.897,369.272 498.139,366.407 501.38,363.548 504.621,360.698 507.863,357.857 511.104,355.03 514.346,352.218 517.587,349.422 520.828,346.644 524.07,343.885 527.311,341.147 530.552,338.431 533.794,335.739 537.035,333.072 540.277,330.433 543.518,327.821 546.759,325.241 550.001,322.692 553.242,320.178 556.484,317.7 559.725,315.26 562.966,312.86 566.208,310.503 569.449,308.19 572.69,305.923 575.932,303.706 579.173,301.54 582.415,299.428 585.656,297.372 588.897,295.375 592.139,293.439 595.38,291.568 598.622,289.765 601.863,288.031 605.104,286.369 608.346,284.778 611.587,283.255 614.828,281.797 618.07,280.402 621.311,279.068 624.553,277.792 627.794,276.573 631.035,275.407 634.277,274.294 637.518,273.231 640.76,272.216 644.001,271.247 647.242,270.323 650.484,269.443 653.725,268.604 656.966,267.804 660.208,267.044 663.449,266.32 666.691,265.632 669.932,264.979 673.173,264.358 676.415,263.771 679.656,263.216 682.898,262.695 686.139,262.208 689.38,261.758 692.622,261.344 695.863,260.968 699.104,260.631 702.346,260.335 705.587,260.08 708.829,259.869 712.07,259.702 715.311,259.581 718.553,259.508 721.794,259.485 725.036,259.512 728.277,259.593 731.518,259.728 734.76,259.92 738.001,260.171 741.242,260.484 744.484,260.859 747.725,261.3 750.967,261.809 754.208,262.389 757.449,263.04 760.691,263.76 763.932,264.546 767.174,265.392 770.415,266.296 773.656,267.254 776.898,268.263 780.139,269.318 783.381,270.416 786.622,271.554 789.863,272.729 793.105,273.937 796.346,275.175 799.587,276.441 802.829,277.73 806.07,279.04 809.312,280.369 812.553,281.712 815.794,283.068 819.036,284.433 822.277,285.805 825.519,287.181 828.76,288.558 832.001,289.934 835.243,291.308 838.484,292.68 841.725,294.049 844.967,295.414 848.208,296.775 851.45,298.131 854.691,299.483 857.932,300.829 861.174,302.169 864.415,303.504 867.657,304.833 870.898,306.158 874.139,307.481 877.381,308.806 880.622,310.134 883.863,311.468 887.105,312.81 890.346,314.163 893.588,315.53 896.829,316.914 900.07,318.316 903.312,319.74 906.553,321.189 909.795,322.665 913.036,324.172 916.277,325.713 919.519,327.289 922.76,328.906 926.001,330.564 929.243,332.264 932.484,334.005 935.726,335.785 938.967,337.604 942.208,339.46 945.45,341.353 948.691,343.282 951.933,345.246 955.174,347.244 958.415,349.277 961.657,351.343 964.898,353.442 968.139,355.573 971.381,357.736 974.622,359.931 977.864,362.157 981.105,364.415 984.346,366.703 987.588,369.022 990.829,371.371 994.071,373.752 997.312,376.163 1000.55,378.605 1003.79,381.077 1007.04,383.581 1010.28,386.116 1013.52,388.682 1016.76,391.281 1020,393.911 1023.24,396.575 1026.48,399.271 1029.73,402.001 1032.97,404.765 1036.21,407.565 1039.45,410.399 1042.69,413.271 1045.93,416.179 1049.17,419.125 1052.42,422.11 1055.66,425.134 1058.9,428.2 1062.14,431.307 1065.38,434.457 1068.62,437.651 1071.86,440.891 1075.11,444.176 1078.35,447.507 1081.59,450.881 1084.83,454.298 1088.07,457.756 1091.31,461.255 1094.55,464.792 1097.79,468.367 1101.04,471.979 1104.28,475.627 1107.52,479.31 1110.76,483.027 1114,486.777 1117.24,490.56 1120.48,494.374 1123.73,498.219 1126.97,502.094 1130.21,505.999 1133.45,509.933 1136.69,513.895 1139.93,517.886 1143.17,521.903 1146.42,525.948 1149.66,530.019 1152.9,534.116 1156.14,538.239 1159.38,542.387 1162.62,546.561 1165.86,550.76 1169.11,554.983 1172.35,559.231 1175.59,563.503 1178.83,567.8 1182.07,572.121 1185.31,576.466 1188.55,580.835 1191.8,585.228 1195.04,589.646 1198.28,594.087 1201.52,598.553 1204.76,603.043 1208,607.558 1211.24,612.097 1214.48,616.661 1217.73,621.251 1220.97,625.866 1224.21,630.506 1227.45,635.172 1230.69,639.865 1233.93,644.584 1237.17,649.33 1240.42,654.104 1243.66,658.905 1246.9,663.735 1250.14,668.593 1253.38,673.481 1256.62,678.398 1259.86,683.346 1263.11,688.324 1266.35,693.334 1269.59,698.376 1272.83,703.45 1276.07,708.558 1279.31,713.7 1282.55,718.877 1285.8,724.089 1289.04,729.338 1292.28,734.623 1295.52,739.943 1298.76,745.297 1302,750.681 1305.24,756.096 1308.48,761.538 1311.73,767.006 1314.97,772.498 1318.21,778.012 1321.45,783.547 1324.69,789.101 1327.93,794.672 1331.17,800.258 1334.42,805.857 1337.66,811.469 1340.9,817.09 1344.14,822.72 1347.38,828.356 1350.62,833.998 1353.86,839.642 1357.11,845.287 1360.35,850.932 1363.59,856.575 1366.83,862.214 1370.07,867.847 1373.31,873.472 1376.55,879.088 1379.8,884.692 1383.04,890.284 1386.28,895.86 1389.52,901.419 1392.76,906.959 1396,912.479 1399.24,917.975 1402.49,923.447 1405.73,928.891 1408.97,934.307 1412.21,939.691 1415.45,945.043 1418.69,950.358 1421.93,955.636 1425.17,960.874 1428.42,966.069 1431.66,971.22 1434.9,976.324 1438.14,981.378 1441.38,986.381 1444.62,991.328 1447.86,996.219 1451.11,1001.05 1454.35,1005.82 1457.59,1010.52 1460.83,1015.15 1464.07,1019.72 1467.31,1024.21 1470.55,1028.62 1473.8,1032.95 1477.04,1037.2 1480.28,1041.36 1483.52,1045.43 1486.76,1049.4 1490,1053.29 1493.24,1057.08 1496.49,1060.78 1499.73,1064.38 1502.97,1067.89 1506.21,1071.3 1509.45,1074.62 1512.69,1077.84 1515.93,1080.97 1519.18,1084 1522.42,1086.93 1525.66,1089.76 1528.9,1092.5 1532.14,1095.15 1535.38,1097.71 1538.62,1100.19 1541.86,1102.58 1545.11,1104.9 1548.35,1107.14 1551.59,1109.32 1554.83,1111.42 1558.07,1113.47 1561.31,1115.45 1564.55,1117.38 1567.8,1119.27 1571.04,1121.1 1574.28,1122.9 1577.52,1124.67 1580.76,1126.4 1584,1128.11 1587.24,1129.79 1590.49,1131.46 1593.73,1133.11 1596.97,1134.75 1600.21,1136.39 1603.45,1138.02 1606.69,1139.66 1609.93,1141.31 1613.18,1142.96 1616.42,1144.61 1619.66,1146.28 1622.9,1147.94 1626.14,1149.61 1629.38,1151.29 1632.62,1152.96 1635.86,1154.64 1639.11,1156.32 1642.35,1158 1645.59,1159.68 1648.83,1161.36 1652.07,1163.04 1655.31,1164.71 1658.55,1166.38 1661.8,1168.05 1665.04,1169.71 1668.28,1171.36 1671.52,1173 1674.76,1174.64 1678,1176.26 1681.24,1177.87 1684.49,1179.47 1687.73,1181.06 1690.97,1182.63 1694.21,1184.18 1697.45,1185.71 1700.69,1187.22 1703.93,1188.71 1707.18,1190.18 1710.42,1191.62 1713.66,1193.04 1716.9,1194.42 1720.14,1195.78 1723.38,1197.1 1726.62,1198.38 1729.87,1199.63 1733.11,1200.85 1736.35,1202.02 1739.59,1203.16 1742.83,1204.25 1746.07,1205.3 1749.31,1206.31 1752.55,1207.28 1755.8,1208.2 1759.04,1209.08 1762.28,1209.91 1765.52,1210.69 1768.76,1211.41 1772,1212.09 1775.24,1212.71 1778.49,1213.26 1781.73,1213.76 1784.97,1214.19 1788.21,1214.54 1791.45,1214.82 1794.69,1215.03 1797.93,1215.15 1801.18,1215.18 1804.42,1215.13 1807.66,1214.98 1810.9,1214.73 1814.14,1214.38 1817.38,1213.92 1820.62,1213.36 1823.87,1212.69 1827.11,1211.93 1830.35,1211.06 1833.59,1210.09 1836.83,1209.03 1840.07,1207.86 1843.31,1206.61 1846.55,1205.26 1849.8,1203.81 1853.04,1202.28 1856.28,1200.67 1859.52,1198.97 1862.76,1197.2 1866,1195.36 1869.24,1193.44 1872.49,1191.45 1875.73,1189.4 1878.97,1187.29 1882.21,1185.12 1885.45,1182.89 1888.69,1180.6 1891.93,1178.27 1895.18,1175.88 1898.42,1173.45 1901.66,1170.97 1904.9,1168.45 1908.14,1165.89 1911.38,1163.29 1914.62,1160.66 1917.87,1157.99 1921.11,1155.29 1924.35,1152.55 1927.59,1149.79 1930.83,1147.01 1934.07,1144.2 1937.31,1141.36 1940.56,1138.51 1943.8,1135.63 1947.04,1132.74 1950.28,1129.83 1953.52,1126.9 1956.76,1123.96 1960,1121 1963.24,1118.04 1966.49,1115.06 1969.73,1112.08 1972.97,1109.08 1976.21,1106.08 1979.45,1103.08 1982.69,1100.07 1985.93,1097.06 1989.18,1094.04 1992.42,1091.02 1995.66,1088.01 1998.9,1084.99 2002.14,1081.97 2005.38,1078.96 2008.62,1075.95 2011.87,1072.94 2015.11,1069.94 2018.35,1066.94 2021.59,1063.95 2024.83,1060.96 2028.07,1057.99 2031.31,1055.02 2034.56,1052.05 2037.8,1049.1 2041.04,1046.16 2044.28,1043.23 2047.52,1040.3 2050.76,1037.39 2054,1034.49 2057.24,1031.61 2060.49,1028.73 2063.73,1025.87 2066.97,1023.02 2070.21,1020.19 2073.45,1017.37 2076.69,1014.56 2079.93,1011.77 2083.18,1008.99 2086.42,1006.23 2089.66,1003.49 2092.9,1000.76 2096.14,998.048 2099.38,995.352 2102.62,992.673 2105.87,990.011 2109.11,987.365 2112.35,984.738 2115.59,982.127 2118.83,979.535 2122.07,976.96 2125.31,974.403 2128.56,971.865 2131.8,969.345 2135.04,966.843 2138.28,964.36 2141.52,961.895 2144.76,959.449 2148,957.022 2151.25,954.614 2154.49,952.224 2157.73,949.854 2160.97,947.503 2164.21,945.171 2167.45,942.858 2170.69,940.564 2173.93,938.289 2177.18,936.034 2180.42,933.798 2183.66,931.581 2186.9,929.383 2190.14,927.205 2193.38,925.045 2196.62,922.905 2199.87,920.784 2203.11,918.683 2206.35,916.6 2209.59,914.536 2212.83,912.492 2216.07,910.466 2219.31,908.459 2222.56,906.472 2225.8,904.503 2229.04,902.552 2232.28,900.621 2235.52,898.708 2238.76,896.814 2242,894.938 2245.25,893.081 2248.49,891.242 2251.73,889.421 2254.97,887.618 2258.21,885.834 2261.45,884.067 2264.69,882.318 2267.94,880.588 2271.18,878.874 2274.42,877.179 2277.66,875.501 2280.9,873.84 2284.14,872.197 2287.38,870.571 2290.62,868.962 "/>
<polyline clip-path="url(#clip232)" style="stroke:#c271d2; stroke-linecap:round; stroke-linejoin:round; stroke-width:12; stroke-opacity:1; fill:none" points="255.035,753.831 362.225,608.876 469.416,504.805 576.607,418.187 683.797,378.68 790.988,383.959 898.179,432.595 1005.37,524.464 1112.56,643.922 1219.75,790.024 1326.94,948.255 1434.13,1112.42 1541.32,1206.79 1648.51,1277.89 1755.7,1314.07 1862.89,1336.82 1970.09,1335.94 2077.28,1297.78 2184.47,1247.56 2291.66,1201.31 "/>
<polyline clip-path="url(#clip232)" style="stroke:#ac8d18; stroke-linecap:round; stroke-linejoin:round; stroke-width:12; stroke-opacity:1; fill:none" points="255.035,365.423 362.225,355.145 469.416,278.784 576.607,188.314 683.797,146.433 790.988,162.33 898.179,202.395 1005.37,240.115 1112.56,326.288 1219.75,458.237 1326.94,637.675 1434.13,837.826 1541.32,997.589 1648.51,1044.5 1755.7,1102.28 1862.89,1057.44 1970.09,887.555 2077.28,730.343 2184.47,614.506 2291.66,535.596 "/>
<path clip-path="url(#clip230)" d="M1953.46 406.258 L2280.8 406.258 L2280.8 95.2176 L1953.46 95.2176  Z" fill="#ffffff" fill-rule="evenodd" fill-opacity="1"/>
<polyline clip-path="url(#clip230)" style="stroke:#000000; stroke-linecap:round; stroke-linejoin:round; stroke-width:4; stroke-opacity:1; fill:none" points="1953.46,406.258 2280.8,406.258 2280.8,95.2176 1953.46,95.2176 1953.46,406.258 "/>
<polyline clip-path="url(#clip230)" style="stroke:#009af9; stroke-linecap:round; stroke-linejoin:round; stroke-width:4; stroke-opacity:1; fill:none" points="1977.44,147.058 2121.36,147.058 "/>
<path clip-path="url(#clip230)" d="M2152.76 131.051 L2152.76 138.412 L2161.53 138.412 L2161.53 141.722 L2152.76 141.722 L2152.76 155.796 Q2152.76 158.967 2153.61 159.87 Q2154.49 160.773 2157.16 160.773 L2161.53 160.773 L2161.53 164.338 L2157.16 164.338 Q2152.23 164.338 2150.35 162.509 Q2148.48 160.657 2148.48 155.796 L2148.48 141.722 L2145.35 141.722 L2145.35 138.412 L2148.48 138.412 L2148.48 131.051 L2152.76 131.051 Z" fill="#000000" fill-rule="nonzero" fill-opacity="1" /><path clip-path="url(#clip230)" d="M2182.16 142.393 Q2181.44 141.977 2180.58 141.791 Q2179.75 141.583 2178.73 141.583 Q2175.12 141.583 2173.17 143.944 Q2171.25 146.282 2171.25 150.68 L2171.25 164.338 L2166.97 164.338 L2166.97 138.412 L2171.25 138.412 L2171.25 142.44 Q2172.6 140.078 2174.75 138.944 Q2176.9 137.787 2179.98 137.787 Q2180.42 137.787 2180.95 137.856 Q2181.48 137.903 2182.13 138.018 L2182.16 142.393 Z" fill="#000000" fill-rule="nonzero" fill-opacity="1" /><path clip-path="url(#clip230)" d="M2186.18 154.106 L2186.18 138.412 L2190.44 138.412 L2190.44 153.944 Q2190.44 157.625 2191.88 159.476 Q2193.31 161.305 2196.18 161.305 Q2199.63 161.305 2201.62 159.106 Q2203.64 156.907 2203.64 153.111 L2203.64 138.412 L2207.9 138.412 L2207.9 164.338 L2203.64 164.338 L2203.64 160.356 Q2202.09 162.717 2200.03 163.875 Q2197.99 165.009 2195.28 165.009 Q2190.81 165.009 2188.5 162.231 Q2186.18 159.453 2186.18 154.106 M2196.9 137.787 L2196.9 137.787 Z" fill="#000000" fill-rule="nonzero" fill-opacity="1" /><path clip-path="url(#clip230)" d="M2220.88 131.051 L2220.88 138.412 L2229.66 138.412 L2229.66 141.722 L2220.88 141.722 L2220.88 155.796 Q2220.88 158.967 2221.74 159.87 Q2222.62 160.773 2225.28 160.773 L2229.66 160.773 L2229.66 164.338 L2225.28 164.338 Q2220.35 164.338 2218.48 162.509 Q2216.6 160.657 2216.6 155.796 L2216.6 141.722 L2213.48 141.722 L2213.48 138.412 L2216.6 138.412 L2216.6 131.051 L2220.88 131.051 Z" fill="#000000" fill-rule="nonzero" fill-opacity="1" /><path clip-path="url(#clip230)" d="M2256.81 148.689 L2256.81 164.338 L2252.55 164.338 L2252.55 148.828 Q2252.55 145.148 2251.11 143.319 Q2249.68 141.49 2246.81 141.49 Q2243.36 141.49 2241.37 143.69 Q2239.38 145.889 2239.38 149.685 L2239.38 164.338 L2235.1 164.338 L2235.1 128.319 L2239.38 128.319 L2239.38 142.44 Q2240.91 140.102 2242.97 138.944 Q2245.05 137.787 2247.76 137.787 Q2252.23 137.787 2254.52 140.565 Q2256.81 143.319 2256.81 148.689 Z" fill="#000000" fill-rule="nonzero" fill-opacity="1" /><circle clip-path="url(#clip230)" cx="2049.4" cy="198.898" r="20.48" fill="#e26f46" fill-rule="evenodd" fill-opacity="1" stroke="#000000" stroke-opacity="1" stroke-width="4.55111"/>
<path clip-path="url(#clip230)" d="M2164.26 194.187 L2164.26 180.159 L2168.52 180.159 L2168.52 216.178 L2164.26 216.178 L2164.26 212.289 Q2162.92 214.603 2160.86 215.738 Q2158.82 216.849 2155.95 216.849 Q2151.25 216.849 2148.29 213.099 Q2145.35 209.349 2145.35 203.238 Q2145.35 197.127 2148.29 193.377 Q2151.25 189.627 2155.95 189.627 Q2158.82 189.627 2160.86 190.761 Q2162.92 191.872 2164.26 194.187 M2149.75 203.238 Q2149.75 207.937 2151.67 210.622 Q2153.61 213.284 2156.99 213.284 Q2160.37 213.284 2162.32 210.622 Q2164.26 207.937 2164.26 203.238 Q2164.26 198.539 2162.32 195.877 Q2160.37 193.192 2156.99 193.192 Q2153.61 193.192 2151.67 195.877 Q2149.75 198.539 2149.75 203.238 Z" fill="#000000" fill-rule="nonzero" fill-opacity="1" /><path clip-path="url(#clip230)" d="M2189.08 203.145 Q2183.92 203.145 2181.92 204.326 Q2179.93 205.506 2179.93 208.354 Q2179.93 210.622 2181.42 211.965 Q2182.92 213.284 2185.49 213.284 Q2189.03 213.284 2191.16 210.784 Q2193.31 208.261 2193.31 204.094 L2193.31 203.145 L2189.08 203.145 M2197.57 201.386 L2197.57 216.178 L2193.31 216.178 L2193.31 212.242 Q2191.85 214.603 2189.68 215.738 Q2187.5 216.849 2184.36 216.849 Q2180.37 216.849 2178.01 214.627 Q2175.67 212.381 2175.67 208.631 Q2175.67 204.256 2178.59 202.034 Q2181.53 199.812 2187.34 199.812 L2193.31 199.812 L2193.31 199.395 Q2193.31 196.455 2191.37 194.858 Q2189.45 193.238 2185.95 193.238 Q2183.73 193.238 2181.62 193.77 Q2179.52 194.303 2177.57 195.367 L2177.57 191.432 Q2179.91 190.53 2182.11 190.09 Q2184.31 189.627 2186.39 189.627 Q2192.02 189.627 2194.79 192.543 Q2197.57 195.46 2197.57 201.386 Z" fill="#000000" fill-rule="nonzero" fill-opacity="1" /><path clip-path="url(#clip230)" d="M2210.56 182.891 L2210.56 190.252 L2219.33 190.252 L2219.33 193.562 L2210.56 193.562 L2210.56 207.636 Q2210.56 210.807 2211.42 211.71 Q2212.29 212.613 2214.96 212.613 L2219.33 212.613 L2219.33 216.178 L2214.96 216.178 Q2210.03 216.178 2208.15 214.349 Q2206.28 212.497 2206.28 207.636 L2206.28 193.562 L2203.15 193.562 L2203.15 190.252 L2206.28 190.252 L2206.28 182.891 L2210.56 182.891 Z" fill="#000000" fill-rule="nonzero" fill-opacity="1" /><path clip-path="url(#clip230)" d="M2236.72 203.145 Q2231.55 203.145 2229.56 204.326 Q2227.57 205.506 2227.57 208.354 Q2227.57 210.622 2229.05 211.965 Q2230.56 213.284 2233.13 213.284 Q2236.67 213.284 2238.8 210.784 Q2240.95 208.261 2240.95 204.094 L2240.95 203.145 L2236.72 203.145 M2245.21 201.386 L2245.21 216.178 L2240.95 216.178 L2240.95 212.242 Q2239.49 214.603 2237.32 215.738 Q2235.14 216.849 2231.99 216.849 Q2228.01 216.849 2225.65 214.627 Q2223.31 212.381 2223.31 208.631 Q2223.31 204.256 2226.23 202.034 Q2229.17 199.812 2234.98 199.812 L2240.95 199.812 L2240.95 199.395 Q2240.95 196.455 2239.01 194.858 Q2237.09 193.238 2233.59 193.238 Q2231.37 193.238 2229.26 193.77 Q2227.16 194.303 2225.21 195.367 L2225.21 191.432 Q2227.55 190.53 2229.75 190.09 Q2231.95 189.627 2234.03 189.627 Q2239.66 189.627 2242.43 192.543 Q2245.21 195.46 2245.21 201.386 Z" fill="#000000" fill-rule="nonzero" fill-opacity="1" /><polyline clip-path="url(#clip230)" style="stroke:#3da44d; stroke-linecap:round; stroke-linejoin:round; stroke-width:8; stroke-opacity:1; fill:none" points="1977.44,250.738 2121.36,250.738 "/>
<path clip-path="url(#clip230)" d="M2170.91 263.087 L2170.91 253.805 L2163.27 253.805 L2163.27 249.962 L2175.54 249.962 L2175.54 264.8 Q2172.83 266.721 2169.56 267.717 Q2166.3 268.689 2162.6 268.689 Q2154.49 268.689 2149.91 263.967 Q2145.35 259.221 2145.35 250.772 Q2145.35 242.3 2149.91 237.578 Q2154.49 232.833 2162.6 232.833 Q2165.98 232.833 2169.01 233.666 Q2172.06 234.499 2174.63 236.12 L2174.63 241.096 Q2172.04 238.897 2169.12 237.786 Q2166.21 236.675 2162.99 236.675 Q2156.65 236.675 2153.45 240.217 Q2150.28 243.758 2150.28 250.772 Q2150.28 257.763 2153.45 261.305 Q2156.65 264.846 2162.99 264.846 Q2165.47 264.846 2167.41 264.43 Q2169.36 263.99 2170.91 263.087 Z" fill="#000000" fill-rule="nonzero" fill-opacity="1" /><path clip-path="url(#clip230)" d="M2188.75 237.3 L2188.75 250.286 L2194.63 250.286 Q2197.9 250.286 2199.68 248.596 Q2201.46 246.907 2201.46 243.782 Q2201.46 240.68 2199.68 238.99 Q2197.9 237.3 2194.63 237.3 L2188.75 237.3 M2184.08 233.458 L2194.63 233.458 Q2200.44 233.458 2203.41 236.096 Q2206.39 238.712 2206.39 243.782 Q2206.39 248.897 2203.41 251.513 Q2200.44 254.129 2194.63 254.129 L2188.75 254.129 L2188.75 268.018 L2184.08 268.018 L2184.08 233.458 Z" fill="#000000" fill-rule="nonzero" fill-opacity="1" /><polyline clip-path="url(#clip230)" style="stroke:#c271d2; stroke-linecap:round; stroke-linejoin:round; stroke-width:12; stroke-opacity:1; fill:none" points="1977.44,302.578 2121.36,302.578 "/>
<path clip-path="url(#clip230)" d="M2150.03 289.14 L2150.03 302.126 L2155.91 302.126 Q2159.17 302.126 2160.95 300.436 Q2162.73 298.747 2162.73 295.622 Q2162.73 292.52 2160.95 290.83 Q2159.17 289.14 2155.91 289.14 L2150.03 289.14 M2145.35 285.298 L2155.91 285.298 Q2161.72 285.298 2164.68 287.936 Q2167.67 290.552 2167.67 295.622 Q2167.67 300.737 2164.68 303.353 Q2161.72 305.969 2155.91 305.969 L2150.03 305.969 L2150.03 319.858 L2145.35 319.858 L2145.35 285.298 Z" fill="#000000" fill-rule="nonzero" fill-opacity="1" /><path clip-path="url(#clip230)" d="M2178.38 315.922 L2194.7 315.922 L2194.7 319.858 L2172.76 319.858 L2172.76 315.922 Q2175.42 313.168 2180 308.538 Q2184.61 303.885 2185.79 302.543 Q2188.04 300.02 2188.92 298.284 Q2189.82 296.524 2189.82 294.835 Q2189.82 292.08 2187.87 290.344 Q2185.95 288.608 2182.85 288.608 Q2180.65 288.608 2178.2 289.372 Q2175.77 290.135 2172.99 291.686 L2172.99 286.964 Q2175.81 285.83 2178.27 285.251 Q2180.72 284.673 2182.76 284.673 Q2188.13 284.673 2191.32 287.358 Q2194.52 290.043 2194.52 294.534 Q2194.52 296.663 2193.71 298.585 Q2192.92 300.483 2190.81 303.075 Q2190.23 303.747 2187.13 306.964 Q2184.03 310.159 2178.38 315.922 Z" fill="#000000" fill-rule="nonzero" fill-opacity="1" /><path clip-path="url(#clip230)" d="M2204.56 285.298 L2222.92 285.298 L2222.92 289.233 L2208.85 289.233 L2208.85 297.705 Q2209.86 297.358 2210.88 297.196 Q2211.9 297.01 2212.92 297.01 Q2218.71 297.01 2222.09 300.182 Q2225.47 303.353 2225.47 308.77 Q2225.47 314.348 2221.99 317.45 Q2218.52 320.529 2212.2 320.529 Q2210.03 320.529 2207.76 320.158 Q2205.51 319.788 2203.1 319.047 L2203.1 314.348 Q2205.19 315.483 2207.41 316.038 Q2209.63 316.594 2212.11 316.594 Q2216.11 316.594 2218.45 314.487 Q2220.79 312.381 2220.79 308.77 Q2220.79 305.159 2218.45 303.052 Q2216.11 300.946 2212.11 300.946 Q2210.23 300.946 2208.36 301.362 Q2206.51 301.779 2204.56 302.659 L2204.56 285.298 Z" fill="#000000" fill-rule="nonzero" fill-opacity="1" /><polyline clip-path="url(#clip230)" style="stroke:#ac8d18; stroke-linecap:round; stroke-linejoin:round; stroke-width:12; stroke-opacity:1; fill:none" points="1977.44,354.418 2121.36,354.418 "/>
<path clip-path="url(#clip230)" d="M2150.03 340.98 L2150.03 353.966 L2155.91 353.966 Q2159.17 353.966 2160.95 352.276 Q2162.73 350.587 2162.73 347.462 Q2162.73 344.36 2160.95 342.67 Q2159.17 340.98 2155.91 340.98 L2150.03 340.98 M2145.35 337.138 L2155.91 337.138 Q2161.72 337.138 2164.68 339.776 Q2167.67 342.392 2167.67 347.462 Q2167.67 352.577 2164.68 355.193 Q2161.72 357.809 2155.91 357.809 L2150.03 357.809 L2150.03 371.698 L2145.35 371.698 L2145.35 337.138 Z" fill="#000000" fill-rule="nonzero" fill-opacity="1" /><path clip-path="url(#clip230)" d="M2173.17 337.138 L2195.4 337.138 L2195.4 339.128 L2182.85 371.698 L2177.97 371.698 L2189.77 341.073 L2173.17 341.073 L2173.17 337.138 Z" fill="#000000" fill-rule="nonzero" fill-opacity="1" /><path clip-path="url(#clip230)" d="M2204.56 337.138 L2222.92 337.138 L2222.92 341.073 L2208.85 341.073 L2208.85 349.545 Q2209.86 349.198 2210.88 349.036 Q2211.9 348.85 2212.92 348.85 Q2218.71 348.85 2222.09 352.022 Q2225.47 355.193 2225.47 360.61 Q2225.47 366.188 2221.99 369.29 Q2218.52 372.369 2212.2 372.369 Q2210.03 372.369 2207.76 371.998 Q2205.51 371.628 2203.1 370.887 L2203.1 366.188 Q2205.19 367.323 2207.41 367.878 Q2209.63 368.434 2212.11 368.434 Q2216.11 368.434 2218.45 366.327 Q2220.79 364.221 2220.79 360.61 Q2220.79 356.999 2218.45 354.892 Q2216.11 352.786 2212.11 352.786 Q2210.23 352.786 2208.36 353.202 Q2206.51 353.619 2204.56 354.499 L2204.56 337.138 Z" fill="#000000" fill-rule="nonzero" fill-opacity="1" /></svg>
