<?xml version="1.0" encoding="utf-8"?>
<svg xmlns="http://www.w3.org/2000/svg" xmlns:xlink="http://www.w3.org/1999/xlink" width="600" height="400" viewBox="0 0 2400 1600">
<defs>
  <clipPath id="clip390">
    <rect x="0" y="0" width="2400" height="1600"/>
  </clipPath>
</defs>
<path clip-path="url(#clip390)" d="M0 1600 L2400 1600 L2400 0 L0 0  Z" fill="#ffffff" fill-rule="evenodd" fill-opacity="1"/>
<defs>
  <clipPath id="clip391">
    <rect x="480" y="0" width="1681" height="1600"/>
  </clipPath>
</defs>
<path clip-path="url(#clip390)" d="M193.936 1486.45 L2352.76 1486.45 L2352.76 47.2441 L193.936 47.2441  Z" fill="#ffffff" fill-rule="evenodd" fill-opacity="1"/>
<defs>
  <clipPath id="clip392">
    <rect x="193" y="47" width="2160" height="1440"/>
  </clipPath>
</defs>
<polyline clip-path="url(#clip392)" style="stroke:#000000; stroke-linecap:round; stroke-linejoin:round; stroke-width:2; stroke-opacity:0.1; fill:none" points="255.035,1486.45 255.035,47.2441 "/>
<polyline clip-path="url(#clip392)" style="stroke:#000000; stroke-linecap:round; stroke-linejoin:round; stroke-width:2; stroke-opacity:0.1; fill:none" points="579.338,1486.45 579.338,47.2441 "/>
<polyline clip-path="url(#clip392)" style="stroke:#000000; stroke-linecap:round; stroke-linejoin:round; stroke-width:2; stroke-opacity:0.1; fill:none" points="903.641,1486.45 903.641,47.2441 "/>
<polyline clip-path="url(#clip392)" style="stroke:#000000; stroke-linecap:round; stroke-linejoin:round; stroke-width:2; stroke-opacity:0.1; fill:none" points="1227.94,1486.45 1227.94,47.2441 "/>
<polyline clip-path="url(#clip392)" style="stroke:#000000; stroke-linecap:round; stroke-linejoin:round; stroke-width:2; stroke-opacity:0.1; fill:none" points="1552.25,1486.45 1552.25,47.2441 "/>
<polyline clip-path="url(#clip392)" style="stroke:#000000; stroke-linecap:round; stroke-linejoin:round; stroke-width:2; stroke-opacity:0.1; fill:none" points="1876.55,1486.45 1876.55,47.2441 "/>
<polyline clip-path="url(#clip392)" style="stroke:#000000; stroke-linecap:round; stroke-linejoin:round; stroke-width:2; stroke-opacity:0.1; fill:none" points="2200.85,1486.45 2200.85,47.2441 "/>
<polyline clip-path="url(#clip392)" style="stroke:#000000; stroke-linecap:round; stroke-linejoin:round; stroke-width:2; stroke-opacity:0.1; fill:none" points="193.936,1363.2 2352.76,1363.2 "/>
<polyline clip-path="url(#clip392)" style="stroke:#000000; stroke-linecap:round; stroke-linejoin:round; stroke-width:2; stroke-opacity:0.1; fill:none" points="193.936,1044.39 2352.76,1044.39 "/>
<polyline clip-path="url(#clip392)" style="stroke:#000000; stroke-linecap:round; stroke-linejoin:round; stroke-width:2; stroke-opacity:0.1; fill:none" points="193.936,725.588 2352.76,725.588 "/>
<polyline clip-path="url(#clip392)" style="stroke:#000000; stroke-linecap:round; stroke-linejoin:round; stroke-width:2; stroke-opacity:0.1; fill:none" points="193.936,406.782 2352.76,406.782 "/>
<polyline clip-path="url(#clip392)" style="stroke:#000000; stroke-linecap:round; stroke-linejoin:round; stroke-width:2; stroke-opacity:0.1; fill:none" points="193.936,87.9761 2352.76,87.9761 "/>
<polyline clip-path="url(#clip390)" style="stroke:#000000; stroke-linecap:round; stroke-linejoin:round; stroke-width:4; stroke-opacity:1; fill:none" points="193.936,1486.45 2352.76,1486.45 "/>
<polyline clip-path="url(#clip390)" style="stroke:#000000; stroke-linecap:round; stroke-linejoin:round; stroke-width:4; stroke-opacity:1; fill:none" points="255.035,1486.45 255.035,1467.55 "/>
<polyline clip-path="url(#clip390)" style="stroke:#000000; stroke-linecap:round; stroke-linejoin:round; stroke-width:4; stroke-opacity:1; fill:none" points="579.338,1486.45 579.338,1467.55 "/>
<polyline clip-path="url(#clip390)" style="stroke:#000000; stroke-linecap:round; stroke-linejoin:round; stroke-width:4; stroke-opacity:1; fill:none" points="903.641,1486.45 903.641,1467.55 "/>
<polyline clip-path="url(#clip390)" style="stroke:#000000; stroke-linecap:round; stroke-linejoin:round; stroke-width:4; stroke-opacity:1; fill:none" points="1227.94,1486.45 1227.94,1467.55 "/>
<polyline clip-path="url(#clip390)" style="stroke:#000000; stroke-linecap:round; stroke-linejoin:round; stroke-width:4; stroke-opacity:1; fill:none" points="1552.25,1486.45 1552.25,1467.55 "/>
<polyline clip-path="url(#clip390)" style="stroke:#000000; stroke-linecap:round; stroke-linejoin:round; stroke-width:4; stroke-opacity:1; fill:none" points="1876.55,1486.45 1876.55,1467.55 "/>
<polyline clip-path="url(#clip390)" style="stroke:#000000; stroke-linecap:round; stroke-linejoin:round; stroke-width:4; stroke-opacity:1; fill:none" points="2200.85,1486.45 2200.85,1467.55 "/>
<path clip-path="url(#clip390)" d="M255.035 1517.37 Q251.424 1517.37 249.595 1520.93 Q247.789 1524.47 247.789 1531.6 Q247.789 1538.71 249.595 1542.27 Q251.424 1545.82 255.035 1545.82 Q258.669 1545.82 260.474 1542.27 Q262.303 1538.71 262.303 1531.6 Q262.303 1524.47 260.474 1520.93 Q258.669 1517.37 255.035 1517.37 M255.035 1513.66 Q260.845 1513.66 263.9 1518.27 Q266.979 1522.85 266.979 1531.6 Q266.979 1540.33 263.9 1544.94 Q260.845 1549.52 255.035 1549.52 Q249.225 1549.52 246.146 1544.94 Q243.09 1540.33 243.09 1531.6 Q243.09 1522.85 246.146 1518.27 Q249.225 1513.66 255.035 1513.66 Z" fill="#000000" fill-rule="nonzero" fill-opacity="1" /><path clip-path="url(#clip390)" d="M569.72 1544.91 L577.358 1544.91 L577.358 1518.55 L569.048 1520.21 L569.048 1515.95 L577.312 1514.29 L581.988 1514.29 L581.988 1544.91 L589.627 1544.91 L589.627 1548.85 L569.72 1548.85 L569.72 1544.91 Z" fill="#000000" fill-rule="nonzero" fill-opacity="1" /><path clip-path="url(#clip390)" d="M898.293 1544.91 L914.613 1544.91 L914.613 1548.85 L892.668 1548.85 L892.668 1544.91 Q895.33 1542.16 899.914 1537.53 Q904.52 1532.88 905.701 1531.53 Q907.946 1529.01 908.826 1527.27 Q909.729 1525.51 909.729 1523.82 Q909.729 1521.07 907.784 1519.33 Q905.863 1517.6 902.761 1517.6 Q900.562 1517.6 898.108 1518.36 Q895.678 1519.13 892.9 1520.68 L892.9 1515.95 Q895.724 1514.82 898.178 1514.24 Q900.631 1513.66 902.668 1513.66 Q908.039 1513.66 911.233 1516.35 Q914.428 1519.03 914.428 1523.52 Q914.428 1525.65 913.617 1527.57 Q912.83 1529.47 910.724 1532.07 Q910.145 1532.74 907.043 1535.95 Q903.942 1539.15 898.293 1544.91 Z" fill="#000000" fill-rule="nonzero" fill-opacity="1" /><path clip-path="url(#clip390)" d="M1232.19 1530.21 Q1235.55 1530.93 1237.42 1533.2 Q1239.32 1535.47 1239.32 1538.8 Q1239.32 1543.92 1235.8 1546.72 Q1232.28 1549.52 1225.8 1549.52 Q1223.63 1549.52 1221.31 1549.08 Q1219.02 1548.66 1216.57 1547.81 L1216.57 1543.29 Q1218.51 1544.43 1220.83 1545.01 Q1223.14 1545.58 1225.66 1545.58 Q1230.06 1545.58 1232.35 1543.85 Q1234.67 1542.11 1234.67 1538.8 Q1234.67 1535.75 1232.52 1534.03 Q1230.39 1532.3 1226.57 1532.3 L1222.54 1532.3 L1222.54 1528.45 L1226.75 1528.45 Q1230.2 1528.45 1232.03 1527.09 Q1233.86 1525.7 1233.86 1523.11 Q1233.86 1520.45 1231.96 1519.03 Q1230.08 1517.6 1226.57 1517.6 Q1224.64 1517.6 1222.45 1518.01 Q1220.25 1518.43 1217.61 1519.31 L1217.61 1515.14 Q1220.27 1514.4 1222.58 1514.03 Q1224.92 1513.66 1226.98 1513.66 Q1232.31 1513.66 1235.41 1516.09 Q1238.51 1518.5 1238.51 1522.62 Q1238.51 1525.49 1236.87 1527.48 Q1235.22 1529.45 1232.19 1530.21 Z" fill="#000000" fill-rule="nonzero" fill-opacity="1" /><path clip-path="url(#clip390)" d="M1555.26 1518.36 L1543.45 1536.81 L1555.26 1536.81 L1555.26 1518.36 M1554.03 1514.29 L1559.91 1514.29 L1559.91 1536.81 L1564.84 1536.81 L1564.84 1540.7 L1559.91 1540.7 L1559.91 1548.85 L1555.26 1548.85 L1555.26 1540.7 L1539.65 1540.7 L1539.65 1536.19 L1554.03 1514.29 Z" fill="#000000" fill-rule="nonzero" fill-opacity="1" /><path clip-path="url(#clip390)" d="M1866.83 1514.29 L1885.18 1514.29 L1885.18 1518.22 L1871.11 1518.22 L1871.11 1526.7 Q1872.13 1526.35 1873.15 1526.19 Q1874.17 1526 1875.18 1526 Q1880.97 1526 1884.35 1529.17 Q1887.73 1532.34 1887.73 1537.76 Q1887.73 1543.34 1884.26 1546.44 Q1880.79 1549.52 1874.47 1549.52 Q1872.29 1549.52 1870.02 1549.15 Q1867.78 1548.78 1865.37 1548.04 L1865.37 1543.34 Q1867.45 1544.47 1869.67 1545.03 Q1871.9 1545.58 1874.37 1545.58 Q1878.38 1545.58 1880.72 1543.48 Q1883.05 1541.37 1883.05 1537.76 Q1883.05 1534.15 1880.72 1532.04 Q1878.38 1529.94 1874.37 1529.94 Q1872.5 1529.94 1870.62 1530.35 Q1868.77 1530.77 1866.83 1531.65 L1866.83 1514.29 Z" fill="#000000" fill-rule="nonzero" fill-opacity="1" /><path clip-path="url(#clip390)" d="M2201.26 1529.7 Q2198.11 1529.7 2196.26 1531.86 Q2194.43 1534.01 2194.43 1537.76 Q2194.43 1541.49 2196.26 1543.66 Q2198.11 1545.82 2201.26 1545.82 Q2204.41 1545.82 2206.23 1543.66 Q2208.09 1541.49 2208.09 1537.76 Q2208.09 1534.01 2206.23 1531.86 Q2204.41 1529.7 2201.26 1529.7 M2210.54 1515.05 L2210.54 1519.31 Q2208.78 1518.48 2206.98 1518.04 Q2205.19 1517.6 2203.43 1517.6 Q2198.8 1517.6 2196.35 1520.72 Q2193.92 1523.85 2193.57 1530.17 Q2194.94 1528.15 2197 1527.09 Q2199.06 1526 2201.54 1526 Q2206.74 1526 2209.75 1529.17 Q2212.79 1532.32 2212.79 1537.76 Q2212.79 1543.08 2209.64 1546.3 Q2206.49 1549.52 2201.26 1549.52 Q2195.26 1549.52 2192.09 1544.94 Q2188.92 1540.33 2188.92 1531.6 Q2188.92 1523.41 2192.81 1518.55 Q2196.7 1513.66 2203.25 1513.66 Q2205.01 1513.66 2206.79 1514.01 Q2208.6 1514.36 2210.54 1515.05 Z" fill="#000000" fill-rule="nonzero" fill-opacity="1" /><polyline clip-path="url(#clip390)" style="stroke:#000000; stroke-linecap:round; stroke-linejoin:round; stroke-width:4; stroke-opacity:1; fill:none" points="193.936,1486.45 193.936,47.2441 "/>
<polyline clip-path="url(#clip390)" style="stroke:#000000; stroke-linecap:round; stroke-linejoin:round; stroke-width:4; stroke-opacity:1; fill:none" points="193.936,1363.2 212.834,1363.2 "/>
<polyline clip-path="url(#clip390)" style="stroke:#000000; stroke-linecap:round; stroke-linejoin:round; stroke-width:4; stroke-opacity:1; fill:none" points="193.936,1044.39 212.834,1044.39 "/>
<polyline clip-path="url(#clip390)" style="stroke:#000000; stroke-linecap:round; stroke-linejoin:round; stroke-width:4; stroke-opacity:1; fill:none" points="193.936,725.588 212.834,725.588 "/>
<polyline clip-path="url(#clip390)" style="stroke:#000000; stroke-linecap:round; stroke-linejoin:round; stroke-width:4; stroke-opacity:1; fill:none" points="193.936,406.782 212.834,406.782 "/>
<polyline clip-path="url(#clip390)" style="stroke:#000000; stroke-linecap:round; stroke-linejoin:round; stroke-width:4; stroke-opacity:1; fill:none" points="193.936,87.9761 212.834,87.9761 "/>
<path clip-path="url(#clip390)" d="M50.9921 1363.65 L80.6679 1363.65 L80.6679 1367.59 L50.9921 1367.59 L50.9921 1363.65 Z" fill="#000000" fill-rule="nonzero" fill-opacity="1" /><path clip-path="url(#clip390)" d="M91.5706 1376.55 L99.2095 1376.55 L99.2095 1350.18 L90.8993 1351.85 L90.8993 1347.59 L99.1632 1345.92 L103.839 1345.92 L103.839 1376.55 L111.478 1376.55 L111.478 1380.48 L91.5706 1380.48 L91.5706 1376.55 Z" fill="#000000" fill-rule="nonzero" fill-opacity="1" /><path clip-path="url(#clip390)" d="M120.922 1374.6 L125.807 1374.6 L125.807 1380.48 L120.922 1380.48 L120.922 1374.6 Z" fill="#000000" fill-rule="nonzero" fill-opacity="1" /><path clip-path="url(#clip390)" d="M145.992 1349 Q142.381 1349 140.552 1352.56 Q138.746 1356.11 138.746 1363.24 Q138.746 1370.34 140.552 1373.91 Q142.381 1377.45 145.992 1377.45 Q149.626 1377.45 151.431 1373.91 Q153.26 1370.34 153.26 1363.24 Q153.26 1356.11 151.431 1352.56 Q149.626 1349 145.992 1349 M145.992 1345.3 Q151.802 1345.3 154.857 1349.9 Q157.936 1354.49 157.936 1363.24 Q157.936 1371.96 154.857 1376.57 Q151.802 1381.15 145.992 1381.15 Q140.181 1381.15 137.103 1376.57 Q134.047 1371.96 134.047 1363.24 Q134.047 1354.49 137.103 1349.9 Q140.181 1345.3 145.992 1345.3 Z" fill="#000000" fill-rule="nonzero" fill-opacity="1" /><path clip-path="url(#clip390)" d="M51.9875 1044.85 L81.6633 1044.85 L81.6633 1048.78 L51.9875 1048.78 L51.9875 1044.85 Z" fill="#000000" fill-rule="nonzero" fill-opacity="1" /><path clip-path="url(#clip390)" d="M101.756 1030.19 Q98.1447 1030.19 96.316 1033.76 Q94.5104 1037.3 94.5104 1044.43 Q94.5104 1051.54 96.316 1055.1 Q98.1447 1058.64 101.756 1058.64 Q105.39 1058.64 107.196 1055.1 Q109.024 1051.54 109.024 1044.43 Q109.024 1037.3 107.196 1033.76 Q105.39 1030.19 101.756 1030.19 M101.756 1026.49 Q107.566 1026.49 110.621 1031.1 Q113.7 1035.68 113.7 1044.43 Q113.7 1053.16 110.621 1057.76 Q107.566 1062.35 101.756 1062.35 Q95.9456 1062.35 92.8669 1057.76 Q89.8114 1053.16 89.8114 1044.43 Q89.8114 1035.68 92.8669 1031.1 Q95.9456 1026.49 101.756 1026.49 Z" fill="#000000" fill-rule="nonzero" fill-opacity="1" /><path clip-path="url(#clip390)" d="M121.918 1055.79 L126.802 1055.79 L126.802 1061.67 L121.918 1061.67 L121.918 1055.79 Z" fill="#000000" fill-rule="nonzero" fill-opacity="1" /><path clip-path="url(#clip390)" d="M137.033 1027.11 L155.39 1027.11 L155.39 1031.05 L141.316 1031.05 L141.316 1039.52 Q142.334 1039.17 143.353 1039.01 Q144.371 1038.83 145.39 1038.83 Q151.177 1038.83 154.556 1042 Q157.936 1045.17 157.936 1050.59 Q157.936 1056.17 154.464 1059.27 Q150.992 1062.35 144.672 1062.35 Q142.496 1062.35 140.228 1061.98 Q137.982 1061.61 135.575 1060.86 L135.575 1056.17 Q137.658 1057.3 139.881 1057.86 Q142.103 1058.41 144.58 1058.41 Q148.584 1058.41 150.922 1056.3 Q153.26 1054.2 153.26 1050.59 Q153.26 1046.98 150.922 1044.87 Q148.584 1042.76 144.58 1042.76 Q142.705 1042.76 140.83 1043.18 Q138.978 1043.6 137.033 1044.48 L137.033 1027.11 Z" fill="#000000" fill-rule="nonzero" fill-opacity="1" /><path clip-path="url(#clip390)" d="M100.76 711.387 Q97.1493 711.387 95.3206 714.952 Q93.515 718.493 93.515 725.623 Q93.515 732.729 95.3206 736.294 Q97.1493 739.836 100.76 739.836 Q104.395 739.836 106.2 736.294 Q108.029 732.729 108.029 725.623 Q108.029 718.493 106.2 714.952 Q104.395 711.387 100.76 711.387 M100.76 707.683 Q106.571 707.683 109.626 712.29 Q112.705 716.873 112.705 725.623 Q112.705 734.35 109.626 738.956 Q106.571 743.54 100.76 743.54 Q94.9502 743.54 91.8715 738.956 Q88.816 734.35 88.816 725.623 Q88.816 716.873 91.8715 712.29 Q94.9502 707.683 100.76 707.683 Z" fill="#000000" fill-rule="nonzero" fill-opacity="1" /><path clip-path="url(#clip390)" d="M120.922 736.989 L125.807 736.989 L125.807 742.868 L120.922 742.868 L120.922 736.989 Z" fill="#000000" fill-rule="nonzero" fill-opacity="1" /><path clip-path="url(#clip390)" d="M145.992 711.387 Q142.381 711.387 140.552 714.952 Q138.746 718.493 138.746 725.623 Q138.746 732.729 140.552 736.294 Q142.381 739.836 145.992 739.836 Q149.626 739.836 151.431 736.294 Q153.26 732.729 153.26 725.623 Q153.26 718.493 151.431 714.952 Q149.626 711.387 145.992 711.387 M145.992 707.683 Q151.802 707.683 154.857 712.29 Q157.936 716.873 157.936 725.623 Q157.936 734.35 154.857 738.956 Q151.802 743.54 145.992 743.54 Q140.181 743.54 137.103 738.956 Q134.047 734.35 134.047 725.623 Q134.047 716.873 137.103 712.29 Q140.181 707.683 145.992 707.683 Z" fill="#000000" fill-rule="nonzero" fill-opacity="1" /><path clip-path="url(#clip390)" d="M101.756 392.581 Q98.1447 392.581 96.316 396.146 Q94.5104 399.687 94.5104 406.817 Q94.5104 413.923 96.316 417.488 Q98.1447 421.03 101.756 421.03 Q105.39 421.03 107.196 417.488 Q109.024 413.923 109.024 406.817 Q109.024 399.687 107.196 396.146 Q105.39 392.581 101.756 392.581 M101.756 388.877 Q107.566 388.877 110.621 393.484 Q113.7 398.067 113.7 406.817 Q113.7 415.544 110.621 420.15 Q107.566 424.733 101.756 424.733 Q95.9456 424.733 92.8669 420.15 Q89.8114 415.544 89.8114 406.817 Q89.8114 398.067 92.8669 393.484 Q95.9456 388.877 101.756 388.877 Z" fill="#000000" fill-rule="nonzero" fill-opacity="1" /><path clip-path="url(#clip390)" d="M121.918 418.183 L126.802 418.183 L126.802 424.062 L121.918 424.062 L121.918 418.183 Z" fill="#000000" fill-rule="nonzero" fill-opacity="1" /><path clip-path="url(#clip390)" d="M137.033 389.502 L155.39 389.502 L155.39 393.437 L141.316 393.437 L141.316 401.91 Q142.334 401.562 143.353 401.4 Q144.371 401.215 145.39 401.215 Q151.177 401.215 154.556 404.386 Q157.936 407.558 157.936 412.974 Q157.936 418.553 154.464 421.655 Q150.992 424.733 144.672 424.733 Q142.496 424.733 140.228 424.363 Q137.982 423.993 135.575 423.252 L135.575 418.553 Q137.658 419.687 139.881 420.243 Q142.103 420.798 144.58 420.798 Q148.584 420.798 150.922 418.692 Q153.26 416.585 153.26 412.974 Q153.26 409.363 150.922 407.257 Q148.584 405.15 144.58 405.15 Q142.705 405.15 140.83 405.567 Q138.978 405.984 137.033 406.863 L137.033 389.502 Z" fill="#000000" fill-rule="nonzero" fill-opacity="1" /><path clip-path="url(#clip390)" d="M91.5706 101.321 L99.2095 101.321 L99.2095 74.9553 L90.8993 76.622 L90.8993 72.3627 L99.1632 70.6961 L103.839 70.6961 L103.839 101.321 L111.478 101.321 L111.478 105.256 L91.5706 105.256 L91.5706 101.321 Z" fill="#000000" fill-rule="nonzero" fill-opacity="1" /><path clip-path="url(#clip390)" d="M120.922 99.3765 L125.807 99.3765 L125.807 105.256 L120.922 105.256 L120.922 99.3765 Z" fill="#000000" fill-rule="nonzero" fill-opacity="1" /><path clip-path="url(#clip390)" d="M145.992 73.7748 Q142.381 73.7748 140.552 77.3396 Q138.746 80.8812 138.746 88.0108 Q138.746 95.1172 140.552 98.682 Q142.381 102.224 145.992 102.224 Q149.626 102.224 151.431 98.682 Q153.26 95.1172 153.26 88.0108 Q153.26 80.8812 151.431 77.3396 Q149.626 73.7748 145.992 73.7748 M145.992 70.0711 Q151.802 70.0711 154.857 74.6775 Q157.936 79.2608 157.936 88.0108 Q157.936 96.7376 154.857 101.344 Q151.802 105.927 145.992 105.927 Q140.181 105.927 137.103 101.344 Q134.047 96.7376 134.047 88.0108 Q134.047 79.2608 137.103 74.6775 Q140.181 70.0711 145.992 70.0711 Z" fill="#000000" fill-rule="nonzero" fill-opacity="1" /><polyline clip-path="url(#clip392)" style="stroke:#009af9; stroke-linecap:round; stroke-linejoin:round; stroke-width:4; stroke-opacity:1; fill:none" points="255.035,725.588 258.278,719.212 261.521,712.837 264.764,706.463 268.007,700.091 271.25,693.721 274.493,687.355 277.736,680.992 280.979,674.634 284.222,668.281 287.465,661.933 290.708,655.592 293.951,649.258 297.194,642.932 300.437,636.614 303.68,630.305 306.923,624.005 310.166,617.716 313.409,611.437 316.652,605.17 319.895,598.914 323.138,592.672 326.381,586.442 329.624,580.227 332.867,574.026 336.11,567.841 339.353,561.671 342.596,555.517 345.84,549.381 349.083,543.262 352.326,537.161 355.569,531.079 358.812,525.017 362.055,518.975 365.298,512.953 368.541,506.952 371.784,500.974 375.027,495.018 378.27,489.085 381.513,483.176 384.756,477.29 387.999,471.43 391.242,465.595 394.485,459.786 397.728,454.004 400.971,448.249 404.214,442.522 407.457,436.822 410.7,431.152 413.943,425.511 417.186,419.901 420.429,414.321 423.672,408.771 426.915,403.254 430.158,397.769 433.401,392.317 436.644,386.897 439.887,381.512 443.13,376.162 446.373,370.846 449.616,365.565 452.859,360.321 456.103,355.113 459.346,349.942 462.589,344.809 465.832,339.714 469.075,334.658 472.318,329.64 475.561,324.662 478.804,319.724 482.047,314.827 485.29,309.971 488.533,305.157 491.776,300.384 495.019,295.654 498.262,290.967 501.505,286.324 504.748,281.724 507.991,277.169 511.234,272.658 514.477,268.193 517.72,263.774 520.963,259.401 524.206,255.074 527.449,250.795 530.692,246.563 533.935,242.379 537.178,238.243 540.421,234.156 543.664,230.118 546.907,226.129 550.15,222.191 553.393,218.303 556.636,214.466 559.879,210.679 563.122,206.945 566.366,203.262 569.609,199.631 572.852,196.053 576.095,192.528 579.338,189.056 582.581,185.638 585.824,182.274 589.067,178.964 592.31,175.709 595.553,172.509 598.796,169.364 602.039,166.275 605.282,163.241 608.525,160.264 611.768,157.344 615.011,154.48 618.254,151.673 621.497,148.924 624.74,146.232 627.983,143.599 631.226,141.023 634.469,138.506 637.712,136.048 640.955,133.649 644.198,131.309 647.441,129.028 650.684,126.807 653.927,124.646 657.17,122.545 660.413,120.504 663.656,118.524 666.899,116.604 670.142,114.746 673.385,112.948 676.629,111.212 679.872,109.537 683.115,107.924 686.358,106.372 689.601,104.883 692.844,103.455 696.087,102.09 699.33,100.787 702.573,99.5465 705.816,98.3686 709.059,97.2535 712.302,96.2012 715.545,95.2118 718.788,94.2855 722.031,93.4223 725.274,92.6224 728.517,91.8857 731.76,91.2124 735.003,90.6025 738.246,90.0561 741.489,89.5733 744.732,89.1541 747.975,88.7985 751.218,88.5066 754.461,88.2784 757.704,88.1139 760.947,88.0132 764.19,87.9763 767.433,88.0031 770.676,88.0936 773.919,88.248 777.162,88.466 780.405,88.7477 783.648,89.0932 786.892,89.5023 790.135,89.975 793.378,90.5112 796.621,91.111 799.864,91.7742 803.107,92.5008 806.35,93.2907 809.593,94.1438 812.836,95.0601 816.079,96.0394 819.322,97.0817 822.565,98.1868 825.808,99.3547 829.051,100.585 832.294,101.878 835.537,103.234 838.78,104.651 842.023,106.131 845.266,107.672 848.509,109.276 851.752,110.941 854.995,112.667 858.238,114.455 861.481,116.304 864.724,118.214 867.967,120.185 871.21,122.216 874.453,124.307 877.696,126.459 880.939,128.67 884.182,130.942 887.425,133.272 890.668,135.662 893.911,138.111 897.155,140.619 900.398,143.185 903.641,145.809 906.884,148.491 910.127,151.232 913.37,154.029 916.613,156.884 919.856,159.795 923.099,162.763 926.342,165.788 929.585,168.868 932.828,172.004 936.071,175.195 939.314,178.442 942.557,181.743 945.8,185.099 949.043,188.508 952.286,191.971 955.529,195.488 958.772,199.058 962.015,202.68 965.258,206.355 968.501,210.081 971.744,213.859 974.987,217.688 978.23,221.568 981.473,225.499 984.716,229.479 987.959,233.509 991.202,237.589 994.445,241.717 997.688,245.893 1000.93,250.118 1004.17,254.39 1007.42,258.709 1010.66,263.074 1013.9,267.486 1017.15,271.944 1020.39,276.447 1023.63,280.995 1026.88,285.588 1030.12,290.225 1033.36,294.905 1036.6,299.628 1039.85,304.394 1043.09,309.202 1046.33,314.051 1049.58,318.942 1052.82,323.873 1056.06,328.845 1059.31,333.856 1062.55,338.906 1065.79,343.995 1069.04,349.122 1072.28,354.287 1075.52,359.489 1078.76,364.728 1082.01,370.002 1085.25,375.313 1088.49,380.658 1091.74,386.038 1094.98,391.451 1098.22,396.898 1101.47,402.378 1104.71,407.891 1107.95,413.435 1111.19,419.01 1114.44,424.616 1117.68,430.252 1120.92,435.917 1124.17,441.612 1127.41,447.335 1130.65,453.086 1133.9,458.864 1137.14,464.668 1140.38,470.499 1143.62,476.355 1146.87,482.237 1150.11,488.142 1153.35,494.071 1156.6,500.024 1159.84,505.999 1163.08,511.996 1166.33,518.014 1169.57,524.053 1172.81,530.112 1176.06,536.191 1179.3,542.289 1182.54,548.405 1185.78,554.539 1189.03,560.689 1192.27,566.857 1195.51,573.04 1198.76,579.238 1202,585.452 1205.24,591.679 1208.49,597.919 1211.73,604.173 1214.97,610.438 1218.21,616.715 1221.46,623.003 1224.7,629.301 1227.94,635.608 1231.19,641.925 1234.43,648.25 1237.67,654.583 1240.92,660.923 1244.16,667.269 1247.4,673.622 1250.64,679.979 1253.89,686.341 1257.13,692.707 1260.37,699.076 1263.62,705.448 1266.86,711.822 1270.1,718.197 1273.35,724.573 1276.59,730.949 1279.83,737.324 1283.08,743.699 1286.32,750.071 1289.56,756.441 1292.8,762.808 1296.05,769.172 1299.29,775.531 1302.53,781.885 1305.78,788.233 1309.02,794.575 1312.26,800.91 1315.51,807.238 1318.75,813.557 1321.99,819.868 1325.23,826.169 1328.48,832.46 1331.72,838.741 1334.96,845.01 1338.21,851.267 1341.45,857.512 1344.69,863.743 1347.94,869.961 1351.18,876.164 1354.42,882.352 1357.66,888.524 1360.91,894.681 1364.15,900.82 1367.39,906.942 1370.64,913.045 1373.88,919.13 1377.12,925.196 1380.37,931.241 1383.61,937.266 1386.85,943.27 1390.1,949.252 1393.34,955.212 1396.58,961.148 1399.82,967.062 1403.07,972.951 1406.31,978.815 1409.55,984.654 1412.8,990.467 1416.04,996.253 1419.28,1002.01 1422.53,1007.74 1425.77,1013.45 1429.01,1019.12 1432.25,1024.77 1435.5,1030.38 1438.74,1035.97 1441.98,1041.52 1445.23,1047.05 1448.47,1052.54 1451.71,1057.99 1454.96,1063.42 1458.2,1068.81 1461.44,1074.17 1464.68,1079.49 1467.93,1084.77 1471.17,1090.02 1474.41,1095.24 1477.66,1100.41 1480.9,1105.55 1484.14,1110.65 1487.39,1115.72 1490.63,1120.74 1493.87,1125.72 1497.11,1130.67 1500.36,1135.57 1503.6,1140.43 1506.84,1145.26 1510.09,1150.04 1513.33,1154.77 1516.57,1159.47 1519.82,1164.12 1523.06,1168.72 1526.3,1173.29 1529.55,1177.8 1532.79,1182.28 1536.03,1186.7 1539.27,1191.08 1542.52,1195.42 1545.76,1199.7 1549,1203.94 1552.25,1208.13 1555.49,1212.28 1558.73,1216.37 1561.98,1220.42 1565.22,1224.42 1568.46,1228.36 1571.7,1232.26 1574.95,1236.1 1578.19,1239.9 1581.43,1243.64 1584.68,1247.33 1587.92,1250.97 1591.16,1254.56 1594.41,1258.09 1597.65,1261.57 1600.89,1265 1604.13,1268.37 1607.38,1271.69 1610.62,1274.95 1613.86,1278.16 1617.11,1281.32 1620.35,1284.41 1623.59,1287.46 1626.84,1290.44 1630.08,1293.37 1633.32,1296.24 1636.57,1299.06 1639.81,1301.82 1643.05,1304.52 1646.29,1307.16 1649.54,1309.75 1652.78,1312.27 1656.02,1314.74 1659.27,1317.15 1662.51,1319.5 1665.75,1321.79 1669,1324.02 1672.24,1326.19 1675.48,1328.3 1678.72,1330.35 1681.97,1332.34 1685.21,1334.27 1688.45,1336.14 1691.7,1337.95 1694.94,1339.69 1698.18,1341.38 1701.43,1343 1704.67,1344.56 1707.91,1346.06 1711.15,1347.5 1714.4,1348.87 1717.64,1350.19 1720.88,1351.44 1724.13,1352.62 1727.37,1353.75 1730.61,1354.81 1733.86,1355.81 1737.1,1356.75 1740.34,1357.62 1743.59,1358.43 1746.83,1359.18 1750.07,1359.86 1753.31,1360.48 1756.56,1361.04 1759.8,1361.53 1763.04,1361.96 1766.29,1362.33 1769.53,1362.63 1772.77,1362.87 1776.02,1363.04 1779.26,1363.15 1782.5,1363.2 1785.74,1363.18 1788.99,1363.1 1792.23,1362.96 1795.47,1362.75 1798.72,1362.48 1801.96,1362.14 1805.2,1361.74 1808.45,1361.28 1811.69,1360.76 1814.93,1360.17 1818.17,1359.51 1821.42,1358.8 1824.66,1358.02 1827.9,1357.17 1831.15,1356.27 1834.39,1355.3 1837.63,1354.27 1840.88,1353.17 1844.12,1352.01 1847.36,1350.79 1850.61,1349.51 1853.85,1348.16 1857.09,1346.76 1860.33,1345.29 1863.58,1343.75 1866.82,1342.16 1870.06,1340.51 1873.31,1338.79 1876.55,1337.01 1879.79,1335.17 1883.04,1333.27 1886.28,1331.31 1889.52,1329.29 1892.76,1327.21 1896.01,1325.06 1899.25,1322.86 1902.49,1320.6 1905.74,1318.28 1908.98,1315.9 1912.22,1313.46 1915.47,1310.96 1918.71,1308.4 1921.95,1305.79 1925.19,1303.12 1928.44,1300.39 1931.68,1297.6 1934.92,1294.75 1938.17,1291.85 1941.41,1288.89 1944.65,1285.87 1947.9,1282.8 1951.14,1279.68 1954.38,1276.49 1957.63,1273.26 1960.87,1269.96 1964.11,1266.62 1967.35,1263.22 1970.6,1259.76 1973.84,1256.25 1977.08,1252.69 1980.33,1249.08 1983.57,1245.41 1986.81,1241.69 1990.06,1237.92 1993.3,1234.1 1996.54,1230.23 1999.78,1226.31 2003.03,1222.33 2006.27,1218.31 2009.51,1214.24 2012.76,1210.12 2016,1205.95 2019.24,1201.74 2022.49,1197.47 2025.73,1193.16 2028.97,1188.8 2032.21,1184.4 2035.46,1179.95 2038.7,1175.45 2041.94,1170.91 2045.19,1166.32 2048.43,1161.69 2051.67,1157.02 2054.92,1152.3 2058.16,1147.54 2061.4,1142.74 2064.65,1137.9 2067.89,1133.02 2071.13,1128.09 2074.37,1123.13 2077.62,1118.12 2080.86,1113.08 2084.1,1107.99 2087.35,1102.87 2090.59,1097.71 2093.83,1092.52 2097.08,1087.29 2100.32,1082.02 2103.56,1076.71 2106.8,1071.37 2110.05,1066 2113.29,1060.59 2116.53,1055.15 2119.78,1049.67 2123.02,1044.17 2126.26,1038.63 2129.51,1033.06 2132.75,1027.46 2135.99,1021.82 2139.23,1016.16 2142.48,1010.47 2145.72,1004.76 2148.96,999.009 2152.21,993.235 2155.45,987.435 2158.69,981.608 2161.94,975.756 2165.18,969.878 2168.42,963.977 2171.67,958.051 2174.91,952.102 2178.15,946.131 2181.39,940.137 2184.64,934.122 2187.88,928.087 2191.12,922.031 2194.37,915.955 2197.61,909.86 2200.85,903.747 2204.1,897.616 2207.34,891.468 2210.58,885.303 2213.82,879.122 2217.07,872.926 2220.31,866.716 2223.55,860.491 2226.8,854.252 2230.04,848.001 2233.28,841.737 2236.53,835.462 2239.77,829.176 2243.01,822.88 2246.25,816.573 2249.5,810.258 2252.74,803.934 2255.98,797.603 2259.23,791.264 2262.47,784.918 2265.71,778.567 2268.96,772.211 2272.2,765.849 2275.44,759.484 2278.69,753.115 2281.93,746.744 2285.17,740.37 2288.41,733.995 2291.66,727.619 "/>
<circle clip-path="url(#clip392)" cx="2281.93" cy="638.082" r="14.4" fill="#e26f46" fill-rule="evenodd" fill-opacity="1" stroke="#000000" stroke-opacity="1" stroke-width="3.2"/>
<circle clip-path="url(#clip392)" cx="2181.39" cy="995.151" r="14.4" fill="#e26f46" fill-rule="evenodd" fill-opacity="1" stroke="#000000" stroke-opacity="1" stroke-width="3.2"/>
<circle clip-path="url(#clip392)" cx="2223.55" cy="798.362" r="14.4" fill="#e26f46" fill-rule="evenodd" fill-opacity="1" stroke="#000000" stroke-opacity="1" stroke-width="3.2"/>
<circle clip-path="url(#clip392)" cx="2204.1" cy="841.255" r="14.4" fill="#e26f46" fill-rule="evenodd" fill-opacity="1" stroke="#000000" stroke-opacity="1" stroke-width="3.2"/>
<circle clip-path="url(#clip392)" cx="1610.62" cy="1161.48" r="14.4" fill="#e26f46" fill-rule="evenodd" fill-opacity="1" stroke="#000000" stroke-opacity="1" stroke-width="3.2"/>
<circle clip-path="url(#clip392)" cx="1056.06" cy="346.288" r="14.4" fill="#e26f46" fill-rule="evenodd" fill-opacity="1" stroke="#000000" stroke-opacity="1" stroke-width="3.2"/>
<circle clip-path="url(#clip392)" cx="767.433" cy="161.009" r="14.4" fill="#e26f46" fill-rule="evenodd" fill-opacity="1" stroke="#000000" stroke-opacity="1" stroke-width="3.2"/>
<circle clip-path="url(#clip392)" cx="1283.08" cy="743.665" r="14.4" fill="#e26f46" fill-rule="evenodd" fill-opacity="1" stroke="#000000" stroke-opacity="1" stroke-width="3.2"/>
<circle clip-path="url(#clip392)" cx="1879.79" cy="1433.44" r="14.4" fill="#e26f46" fill-rule="evenodd" fill-opacity="1" stroke="#000000" stroke-opacity="1" stroke-width="3.2"/>
<circle clip-path="url(#clip392)" cx="1377.12" cy="965.083" r="14.4" fill="#e26f46" fill-rule="evenodd" fill-opacity="1" stroke="#000000" stroke-opacity="1" stroke-width="3.2"/>
<circle clip-path="url(#clip392)" cx="576.095" cy="128.272" r="14.4" fill="#e26f46" fill-rule="evenodd" fill-opacity="1" stroke="#000000" stroke-opacity="1" stroke-width="3.2"/>
<circle clip-path="url(#clip392)" cx="621.497" cy="238.706" r="14.4" fill="#e26f46" fill-rule="evenodd" fill-opacity="1" stroke="#000000" stroke-opacity="1" stroke-width="3.2"/>
<circle clip-path="url(#clip392)" cx="1266.86" cy="771.366" r="14.4" fill="#e26f46" fill-rule="evenodd" fill-opacity="1" stroke="#000000" stroke-opacity="1" stroke-width="3.2"/>
<circle clip-path="url(#clip392)" cx="770.676" cy="245.326" r="14.4" fill="#e26f46" fill-rule="evenodd" fill-opacity="1" stroke="#000000" stroke-opacity="1" stroke-width="3.2"/>
<circle clip-path="url(#clip392)" cx="1977.08" cy="1411.17" r="14.4" fill="#e26f46" fill-rule="evenodd" fill-opacity="1" stroke="#000000" stroke-opacity="1" stroke-width="3.2"/>
<circle clip-path="url(#clip392)" cx="2032.21" cy="1176.66" r="14.4" fill="#e26f46" fill-rule="evenodd" fill-opacity="1" stroke="#000000" stroke-opacity="1" stroke-width="3.2"/>
<circle clip-path="url(#clip392)" cx="469.075" cy="348.277" r="14.4" fill="#e26f46" fill-rule="evenodd" fill-opacity="1" stroke="#000000" stroke-opacity="1" stroke-width="3.2"/>
<circle clip-path="url(#clip392)" cx="268.007" cy="820.43" r="14.4" fill="#e26f46" fill-rule="evenodd" fill-opacity="1" stroke="#000000" stroke-opacity="1" stroke-width="3.2"/>
<circle clip-path="url(#clip392)" cx="1685.21" cy="1445.72" r="14.4" fill="#e26f46" fill-rule="evenodd" fill-opacity="1" stroke="#000000" stroke-opacity="1" stroke-width="3.2"/>
<circle clip-path="url(#clip392)" cx="1604.13" cy="1368.25" r="14.4" fill="#e26f46" fill-rule="evenodd" fill-opacity="1" stroke="#000000" stroke-opacity="1" stroke-width="3.2"/>
<path clip-path="url(#clip390)" d="M1953.46 250.738 L2280.8 250.738 L2280.8 95.2176 L1953.46 95.2176  Z" fill="#ffffff" fill-rule="evenodd" fill-opacity="1"/>
<polyline clip-path="url(#clip390)" style="stroke:#000000; stroke-linecap:round; stroke-linejoin:round; stroke-width:4; stroke-opacity:1; fill:none" points="1953.46,250.738 2280.8,250.738 2280.8,95.2176 1953.46,95.2176 1953.46,250.738 "/>
<polyline clip-path="url(#clip390)" style="stroke:#009af9; stroke-linecap:round; stroke-linejoin:round; stroke-width:4; stroke-opacity:1; fill:none" points="1977.44,147.058 2121.36,147.058 "/>
<path clip-path="url(#clip390)" d="M2152.76 131.051 L2152.76 138.412 L2161.53 138.412 L2161.53 141.722 L2152.76 141.722 L2152.76 155.796 Q2152.76 158.967 2153.61 159.87 Q2154.49 160.773 2157.16 160.773 L2161.53 160.773 L2161.53 164.338 L2157.16 164.338 Q2152.23 164.338 2150.35 162.509 Q2148.48 160.657 2148.48 155.796 L2148.48 141.722 L2145.35 141.722 L2145.35 138.412 L2148.48 138.412 L2148.48 131.051 L2152.76 131.051 Z" fill="#000000" fill-rule="nonzero" fill-opacity="1" /><path clip-path="url(#clip390)" d="M2182.16 142.393 Q2181.44 141.977 2180.58 141.791 Q2179.75 141.583 2178.73 141.583 Q2175.12 141.583 2173.17 143.944 Q2171.25 146.282 2171.25 150.68 L2171.25 164.338 L2166.97 164.338 L2166.97 138.412 L2171.25 138.412 L2171.25 142.44 Q2172.6 140.078 2174.75 138.944 Q2176.9 137.787 2179.98 137.787 Q2180.42 137.787 2180.95 137.856 Q2181.48 137.903 2182.13 138.018 L2182.16 142.393 Z" fill="#000000" fill-rule="nonzero" fill-opacity="1" /><path clip-path="url(#clip390)" d="M2186.18 154.106 L2186.18 138.412 L2190.44 138.412 L2190.44 153.944 Q2190.44 157.625 2191.88 159.476 Q2193.31 161.305 2196.18 161.305 Q2199.63 161.305 2201.62 159.106 Q2203.64 156.907 2203.64 153.111 L2203.64 138.412 L2207.9 138.412 L2207.9 164.338 L2203.64 164.338 L2203.64 160.356 Q2202.09 162.717 2200.03 163.875 Q2197.99 165.009 2195.28 165.009 Q2190.81 165.009 2188.5 162.231 Q2186.18 159.453 2186.18 154.106 M2196.9 137.787 L2196.9 137.787 Z" fill="#000000" fill-rule="nonzero" fill-opacity="1" /><path clip-path="url(#clip390)" d="M2220.88 131.051 L2220.88 138.412 L2229.66 138.412 L2229.66 141.722 L2220.88 141.722 L2220.88 155.796 Q2220.88 158.967 2221.74 159.87 Q2222.62 160.773 2225.28 160.773 L2229.66 160.773 L2229.66 164.338 L2225.28 164.338 Q2220.35 164.338 2218.48 162.509 Q2216.6 160.657 2216.6 155.796 L2216.6 141.722 L2213.48 141.722 L2213.48 138.412 L2216.6 138.412 L2216.6 131.051 L2220.88 131.051 Z" fill="#000000" fill-rule="nonzero" fill-opacity="1" /><path clip-path="url(#clip390)" d="M2256.81 148.689 L2256.81 164.338 L2252.55 164.338 L2252.55 148.828 Q2252.55 145.148 2251.11 143.319 Q2249.68 141.49 2246.81 141.49 Q2243.36 141.49 2241.37 143.69 Q2239.38 145.889 2239.38 149.685 L2239.38 164.338 L2235.1 164.338 L2235.1 128.319 L2239.38 128.319 L2239.38 142.44 Q2240.91 140.102 2242.97 138.944 Q2245.05 137.787 2247.76 137.787 Q2252.23 137.787 2254.52 140.565 Q2256.81 143.319 2256.81 148.689 Z" fill="#000000" fill-rule="nonzero" fill-opacity="1" /><circle clip-path="url(#clip390)" cx="2049.4" cy="198.898" r="20.48" fill="#e26f46" fill-rule="evenodd" fill-opacity="1" stroke="#000000" stroke-opacity="1" stroke-width="4.55111"/>
<path clip-path="url(#clip390)" d="M2164.26 194.187 L2164.26 180.159 L2168.52 180.159 L2168.52 216.178 L2164.26 216.178 L2164.26 212.289 Q2162.92 214.603 2160.86 215.738 Q2158.82 216.849 2155.95 216.849 Q2151.25 216.849 2148.29 213.099 Q2145.35 209.349 2145.35 203.238 Q2145.35 197.127 2148.29 193.377 Q2151.25 189.627 2155.95 189.627 Q2158.82 189.627 2160.86 190.761 Q2162.92 191.872 2164.26 194.187 M2149.75 203.238 Q2149.75 207.937 2151.67 210.622 Q2153.61 213.284 2156.99 213.284 Q2160.37 213.284 2162.32 210.622 Q2164.26 207.937 2164.26 203.238 Q2164.26 198.539 2162.32 195.877 Q2160.37 193.192 2156.99 193.192 Q2153.61 193.192 2151.67 195.877 Q2149.75 198.539 2149.75 203.238 Z" fill="#000000" fill-rule="nonzero" fill-opacity="1" /><path clip-path="url(#clip390)" d="M2189.08 203.145 Q2183.92 203.145 2181.92 204.326 Q2179.93 205.506 2179.93 208.354 Q2179.93 210.622 2181.42 211.965 Q2182.92 213.284 2185.49 213.284 Q2189.03 213.284 2191.16 210.784 Q2193.31 208.261 2193.31 204.094 L2193.31 203.145 L2189.08 203.145 M2197.57 201.386 L2197.57 216.178 L2193.31 216.178 L2193.31 212.242 Q2191.85 214.603 2189.68 215.738 Q2187.5 216.849 2184.36 216.849 Q2180.37 216.849 2178.01 214.627 Q2175.67 212.381 2175.67 208.631 Q2175.67 204.256 2178.59 202.034 Q2181.53 199.812 2187.34 199.812 L2193.31 199.812 L2193.31 199.395 Q2193.31 196.455 2191.37 194.858 Q2189.45 193.238 2185.95 193.238 Q2183.73 193.238 2181.62 193.77 Q2179.52 194.303 2177.57 195.367 L2177.57 191.432 Q2179.91 190.53 2182.11 190.09 Q2184.31 189.627 2186.39 189.627 Q2192.02 189.627 2194.79 192.543 Q2197.57 195.46 2197.57 201.386 Z" fill="#000000" fill-rule="nonzero" fill-opacity="1" /><path clip-path="url(#clip390)" d="M2210.56 182.891 L2210.56 190.252 L2219.33 190.252 L2219.33 193.562 L2210.56 193.562 L2210.56 207.636 Q2210.56 210.807 2211.42 211.71 Q2212.29 212.613 2214.96 212.613 L2219.33 212.613 L2219.33 216.178 L2214.96 216.178 Q2210.03 216.178 2208.15 214.349 Q2206.28 212.497 2206.28 207.636 L2206.28 193.562 L2203.15 193.562 L2203.15 190.252 L2206.28 190.252 L2206.28 182.891 L2210.56 182.891 Z" fill="#000000" fill-rule="nonzero" fill-opacity="1" /><path clip-path="url(#clip390)" d="M2236.72 203.145 Q2231.55 203.145 2229.56 204.326 Q2227.57 205.506 2227.57 208.354 Q2227.57 210.622 2229.05 211.965 Q2230.56 213.284 2233.13 213.284 Q2236.67 213.284 2238.8 210.784 Q2240.95 208.261 2240.95 204.094 L2240.95 203.145 L2236.72 203.145 M2245.21 201.386 L2245.21 216.178 L2240.95 216.178 L2240.95 212.242 Q2239.49 214.603 2237.32 215.738 Q2235.14 216.849 2231.99 216.849 Q2228.01 216.849 2225.65 214.627 Q2223.31 212.381 2223.31 208.631 Q2223.31 204.256 2226.23 202.034 Q2229.17 199.812 2234.98 199.812 L2240.95 199.812 L2240.95 199.395 Q2240.95 196.455 2239.01 194.858 Q2237.09 193.238 2233.59 193.238 Q2231.37 193.238 2229.26 193.77 Q2227.16 194.303 2225.21 195.367 L2225.21 191.432 Q2227.55 190.53 2229.75 190.09 Q2231.95 189.627 2234.03 189.627 Q2239.66 189.627 2242.43 192.543 Q2245.21 195.46 2245.21 201.386 Z" fill="#000000" fill-rule="nonzero" fill-opacity="1" /></svg>
