<?xml version="1.0" encoding="utf-8"?>
<svg xmlns="http://www.w3.org/2000/svg" xmlns:xlink="http://www.w3.org/1999/xlink" width="600" height="400" viewBox="0 0 2400 1600">
<defs>
  <clipPath id="clip700">
    <rect x="0" y="0" width="2400" height="1600"/>
  </clipPath>
</defs>
<path clip-path="url(#clip700)" d="M0 1600 L2400 1600 L2400 0 L0 0  Z" fill="#ffffff" fill-rule="evenodd" fill-opacity="1"/>
<defs>
  <clipPath id="clip701">
    <rect x="480" y="0" width="1681" height="1600"/>
  </clipPath>
</defs>
<path clip-path="url(#clip700)" d="M193.936 1486.45 L2352.76 1486.45 L2352.76 47.2441 L193.936 47.2441  Z" fill="#ffffff" fill-rule="evenodd" fill-opacity="1"/>
<defs>
  <clipPath id="clip702">
    <rect x="193" y="47" width="2160" height="1440"/>
  </clipPath>
</defs>
<polyline clip-path="url(#clip702)" style="stroke:#000000; stroke-linecap:round; stroke-linejoin:round; stroke-width:2; stroke-opacity:0.1; fill:none" points="255.035,1486.45 255.035,47.2441 "/>
<polyline clip-path="url(#clip702)" style="stroke:#000000; stroke-linecap:round; stroke-linejoin:round; stroke-width:2; stroke-opacity:0.1; fill:none" points="579.338,1486.45 579.338,47.2441 "/>
<polyline clip-path="url(#clip702)" style="stroke:#000000; stroke-linecap:round; stroke-linejoin:round; stroke-width:2; stroke-opacity:0.1; fill:none" points="903.641,1486.45 903.641,47.2441 "/>
<polyline clip-path="url(#clip702)" style="stroke:#000000; stroke-linecap:round; stroke-linejoin:round; stroke-width:2; stroke-opacity:0.1; fill:none" points="1227.94,1486.45 1227.94,47.2441 "/>
<polyline clip-path="url(#clip702)" style="stroke:#000000; stroke-linecap:round; stroke-linejoin:round; stroke-width:2; stroke-opacity:0.1; fill:none" points="1552.25,1486.45 1552.25,47.2441 "/>
<polyline clip-path="url(#clip702)" style="stroke:#000000; stroke-linecap:round; stroke-linejoin:round; stroke-width:2; stroke-opacity:0.1; fill:none" points="1876.55,1486.45 1876.55,47.2441 "/>
<polyline clip-path="url(#clip702)" style="stroke:#000000; stroke-linecap:round; stroke-linejoin:round; stroke-width:2; stroke-opacity:0.1; fill:none" points="2200.85,1486.45 2200.85,47.2441 "/>
<polyline clip-path="url(#clip702)" style="stroke:#000000; stroke-linecap:round; stroke-linejoin:round; stroke-width:2; stroke-opacity:0.1; fill:none" points="193.936,1292.69 2352.76,1292.69 "/>
<polyline clip-path="url(#clip702)" style="stroke:#000000; stroke-linecap:round; stroke-linejoin:round; stroke-width:2; stroke-opacity:0.1; fill:none" points="193.936,1022.68 2352.76,1022.68 "/>
<polyline clip-path="url(#clip702)" style="stroke:#000000; stroke-linecap:round; stroke-linejoin:round; stroke-width:2; stroke-opacity:0.1; fill:none" points="193.936,752.666 2352.76,752.666 "/>
<polyline clip-path="url(#clip702)" style="stroke:#000000; stroke-linecap:round; stroke-linejoin:round; stroke-width:2; stroke-opacity:0.1; fill:none" points="193.936,482.652 2352.76,482.652 "/>
<polyline clip-path="url(#clip702)" style="stroke:#000000; stroke-linecap:round; stroke-linejoin:round; stroke-width:2; stroke-opacity:0.1; fill:none" points="193.936,212.639 2352.76,212.639 "/>
<polyline clip-path="url(#clip700)" style="stroke:#000000; stroke-linecap:round; stroke-linejoin:round; stroke-width:4; stroke-opacity:1; fill:none" points="193.936,1486.45 2352.76,1486.45 "/>
<polyline clip-path="url(#clip700)" style="stroke:#000000; stroke-linecap:round; stroke-linejoin:round; stroke-width:4; stroke-opacity:1; fill:none" points="255.035,1486.45 255.035,1467.55 "/>
<polyline clip-path="url(#clip700)" style="stroke:#000000; stroke-linecap:round; stroke-linejoin:round; stroke-width:4; stroke-opacity:1; fill:none" points="579.338,1486.45 579.338,1467.55 "/>
<polyline clip-path="url(#clip700)" style="stroke:#000000; stroke-linecap:round; stroke-linejoin:round; stroke-width:4; stroke-opacity:1; fill:none" points="903.641,1486.45 903.641,1467.55 "/>
<polyline clip-path="url(#clip700)" style="stroke:#000000; stroke-linecap:round; stroke-linejoin:round; stroke-width:4; stroke-opacity:1; fill:none" points="1227.94,1486.45 1227.94,1467.55 "/>
<polyline clip-path="url(#clip700)" style="stroke:#000000; stroke-linecap:round; stroke-linejoin:round; stroke-width:4; stroke-opacity:1; fill:none" points="1552.25,1486.45 1552.25,1467.55 "/>
<polyline clip-path="url(#clip700)" style="stroke:#000000; stroke-linecap:round; stroke-linejoin:round; stroke-width:4; stroke-opacity:1; fill:none" points="1876.55,1486.45 1876.55,1467.55 "/>
<polyline clip-path="url(#clip700)" style="stroke:#000000; stroke-linecap:round; stroke-linejoin:round; stroke-width:4; stroke-opacity:1; fill:none" points="2200.85,1486.45 2200.85,1467.55 "/>
<path clip-path="url(#clip700)" d="M255.035 1517.37 Q251.424 1517.37 249.595 1520.93 Q247.789 1524.47 247.789 1531.6 Q247.789 1538.71 249.595 1542.27 Q251.424 1545.82 255.035 1545.82 Q258.669 1545.82 260.474 1542.27 Q262.303 1538.71 262.303 1531.6 Q262.303 1524.47 260.474 1520.93 Q258.669 1517.37 255.035 1517.37 M255.035 1513.66 Q260.845 1513.66 263.9 1518.27 Q266.979 1522.85 266.979 1531.6 Q266.979 1540.33 263.9 1544.94 Q260.845 1549.52 255.035 1549.52 Q249.225 1549.52 246.146 1544.94 Q243.09 1540.33 243.09 1531.6 Q243.09 1522.85 246.146 1518.27 Q249.225 1513.66 255.035 1513.66 Z" fill="#000000" fill-rule="nonzero" fill-opacity="1" /><path clip-path="url(#clip700)" d="M569.72 1544.91 L577.358 1544.91 L577.358 1518.55 L569.048 1520.21 L569.048 1515.95 L577.312 1514.29 L581.988 1514.29 L581.988 1544.91 L589.627 1544.91 L589.627 1548.85 L569.72 1548.85 L569.72 1544.91 Z" fill="#000000" fill-rule="nonzero" fill-opacity="1" /><path clip-path="url(#clip700)" d="M898.293 1544.91 L914.613 1544.91 L914.613 1548.85 L892.668 1548.85 L892.668 1544.91 Q895.33 1542.16 899.914 1537.53 Q904.52 1532.88 905.701 1531.53 Q907.946 1529.01 908.826 1527.27 Q909.729 1525.51 909.729 1523.82 Q909.729 1521.07 907.784 1519.33 Q905.863 1517.6 902.761 1517.6 Q900.562 1517.6 898.108 1518.36 Q895.678 1519.13 892.9 1520.68 L892.9 1515.95 Q895.724 1514.82 898.178 1514.24 Q900.631 1513.66 902.668 1513.66 Q908.039 1513.66 911.233 1516.35 Q914.428 1519.03 914.428 1523.52 Q914.428 1525.65 913.617 1527.57 Q912.83 1529.47 910.724 1532.07 Q910.145 1532.74 907.043 1535.95 Q903.942 1539.15 898.293 1544.91 Z" fill="#000000" fill-rule="nonzero" fill-opacity="1" /><path clip-path="url(#clip700)" d="M1232.19 1530.21 Q1235.55 1530.93 1237.42 1533.2 Q1239.32 1535.47 1239.32 1538.8 Q1239.32 1543.92 1235.8 1546.72 Q1232.28 1549.52 1225.8 1549.52 Q1223.63 1549.52 1221.31 1549.08 Q1219.02 1548.66 1216.57 1547.81 L1216.57 1543.29 Q1218.51 1544.43 1220.83 1545.01 Q1223.14 1545.58 1225.66 1545.58 Q1230.06 1545.58 1232.35 1543.85 Q1234.67 1542.11 1234.67 1538.8 Q1234.67 1535.75 1232.52 1534.03 Q1230.39 1532.3 1226.57 1532.3 L1222.54 1532.3 L1222.54 1528.45 L1226.75 1528.45 Q1230.2 1528.45 1232.03 1527.09 Q1233.86 1525.7 1233.86 1523.11 Q1233.86 1520.45 1231.96 1519.03 Q1230.08 1517.6 1226.57 1517.6 Q1224.64 1517.6 1222.45 1518.01 Q1220.25 1518.43 1217.61 1519.31 L1217.61 1515.14 Q1220.27 1514.4 1222.58 1514.03 Q1224.92 1513.66 1226.98 1513.66 Q1232.31 1513.66 1235.41 1516.09 Q1238.51 1518.5 1238.51 1522.62 Q1238.51 1525.49 1236.87 1527.48 Q1235.22 1529.45 1232.19 1530.21 Z" fill="#000000" fill-rule="nonzero" fill-opacity="1" /><path clip-path="url(#clip700)" d="M1555.26 1518.36 L1543.45 1536.81 L1555.26 1536.81 L1555.26 1518.36 M1554.03 1514.29 L1559.91 1514.29 L1559.91 1536.81 L1564.84 1536.81 L1564.84 1540.7 L1559.91 1540.7 L1559.91 1548.85 L1555.26 1548.85 L1555.26 1540.7 L1539.65 1540.7 L1539.65 1536.19 L1554.03 1514.29 Z" fill="#000000" fill-rule="nonzero" fill-opacity="1" /><path clip-path="url(#clip700)" d="M1866.83 1514.29 L1885.18 1514.29 L1885.18 1518.22 L1871.11 1518.22 L1871.11 1526.7 Q1872.13 1526.35 1873.15 1526.19 Q1874.17 1526 1875.18 1526 Q1880.97 1526 1884.35 1529.17 Q1887.73 1532.34 1887.73 1537.76 Q1887.73 1543.34 1884.26 1546.44 Q1880.79 1549.52 1874.47 1549.52 Q1872.29 1549.52 1870.02 1549.15 Q1867.78 1548.78 1865.37 1548.04 L1865.37 1543.34 Q1867.45 1544.47 1869.67 1545.03 Q1871.9 1545.58 1874.37 1545.58 Q1878.38 1545.58 1880.72 1543.48 Q1883.05 1541.37 1883.05 1537.76 Q1883.05 1534.15 1880.72 1532.04 Q1878.38 1529.94 1874.37 1529.94 Q1872.5 1529.94 1870.62 1530.35 Q1868.77 1530.77 1866.83 1531.65 L1866.83 1514.29 Z" fill="#000000" fill-rule="nonzero" fill-opacity="1" /><path clip-path="url(#clip700)" d="M2201.26 1529.7 Q2198.11 1529.7 2196.26 1531.86 Q2194.43 1534.01 2194.43 1537.76 Q2194.43 1541.49 2196.26 1543.66 Q2198.11 1545.82 2201.26 1545.82 Q2204.41 1545.82 2206.23 1543.66 Q2208.09 1541.49 2208.09 1537.76 Q2208.09 1534.01 2206.23 1531.86 Q2204.41 1529.7 2201.26 1529.7 M2210.54 1515.05 L2210.54 1519.31 Q2208.78 1518.48 2206.98 1518.04 Q2205.19 1517.6 2203.43 1517.6 Q2198.8 1517.6 2196.35 1520.72 Q2193.92 1523.85 2193.57 1530.17 Q2194.94 1528.15 2197 1527.09 Q2199.06 1526 2201.54 1526 Q2206.74 1526 2209.75 1529.17 Q2212.79 1532.32 2212.79 1537.76 Q2212.79 1543.08 2209.64 1546.3 Q2206.49 1549.52 2201.26 1549.52 Q2195.26 1549.52 2192.09 1544.94 Q2188.92 1540.33 2188.92 1531.6 Q2188.92 1523.41 2192.81 1518.55 Q2196.7 1513.66 2203.25 1513.66 Q2205.01 1513.66 2206.79 1514.01 Q2208.6 1514.36 2210.54 1515.05 Z" fill="#000000" fill-rule="nonzero" fill-opacity="1" /><polyline clip-path="url(#clip700)" style="stroke:#000000; stroke-linecap:round; stroke-linejoin:round; stroke-width:4; stroke-opacity:1; fill:none" points="193.936,1486.45 193.936,47.2441 "/>
<polyline clip-path="url(#clip700)" style="stroke:#000000; stroke-linecap:round; stroke-linejoin:round; stroke-width:4; stroke-opacity:1; fill:none" points="193.936,1292.69 212.834,1292.69 "/>
<polyline clip-path="url(#clip700)" style="stroke:#000000; stroke-linecap:round; stroke-linejoin:round; stroke-width:4; stroke-opacity:1; fill:none" points="193.936,1022.68 212.834,1022.68 "/>
<polyline clip-path="url(#clip700)" style="stroke:#000000; stroke-linecap:round; stroke-linejoin:round; stroke-width:4; stroke-opacity:1; fill:none" points="193.936,752.666 212.834,752.666 "/>
<polyline clip-path="url(#clip700)" style="stroke:#000000; stroke-linecap:round; stroke-linejoin:round; stroke-width:4; stroke-opacity:1; fill:none" points="193.936,482.652 212.834,482.652 "/>
<polyline clip-path="url(#clip700)" style="stroke:#000000; stroke-linecap:round; stroke-linejoin:round; stroke-width:4; stroke-opacity:1; fill:none" points="193.936,212.639 212.834,212.639 "/>
<path clip-path="url(#clip700)" d="M50.9921 1293.14 L80.6679 1293.14 L80.6679 1297.08 L50.9921 1297.08 L50.9921 1293.14 Z" fill="#000000" fill-rule="nonzero" fill-opacity="1" /><path clip-path="url(#clip700)" d="M91.5706 1306.04 L99.2095 1306.04 L99.2095 1279.67 L90.8993 1281.34 L90.8993 1277.08 L99.1632 1275.41 L103.839 1275.41 L103.839 1306.04 L111.478 1306.04 L111.478 1309.97 L91.5706 1309.97 L91.5706 1306.04 Z" fill="#000000" fill-rule="nonzero" fill-opacity="1" /><path clip-path="url(#clip700)" d="M120.922 1304.09 L125.807 1304.09 L125.807 1309.97 L120.922 1309.97 L120.922 1304.09 Z" fill="#000000" fill-rule="nonzero" fill-opacity="1" /><path clip-path="url(#clip700)" d="M145.992 1278.49 Q142.381 1278.49 140.552 1282.06 Q138.746 1285.6 138.746 1292.73 Q138.746 1299.83 140.552 1303.4 Q142.381 1306.94 145.992 1306.94 Q149.626 1306.94 151.431 1303.4 Q153.26 1299.83 153.26 1292.73 Q153.26 1285.6 151.431 1282.06 Q149.626 1278.49 145.992 1278.49 M145.992 1274.79 Q151.802 1274.79 154.857 1279.39 Q157.936 1283.98 157.936 1292.73 Q157.936 1301.45 154.857 1306.06 Q151.802 1310.64 145.992 1310.64 Q140.181 1310.64 137.103 1306.06 Q134.047 1301.45 134.047 1292.73 Q134.047 1283.98 137.103 1279.39 Q140.181 1274.79 145.992 1274.79 Z" fill="#000000" fill-rule="nonzero" fill-opacity="1" /><path clip-path="url(#clip700)" d="M51.9875 1023.13 L81.6633 1023.13 L81.6633 1027.07 L51.9875 1027.07 L51.9875 1023.13 Z" fill="#000000" fill-rule="nonzero" fill-opacity="1" /><path clip-path="url(#clip700)" d="M101.756 1008.48 Q98.1447 1008.48 96.316 1012.04 Q94.5104 1015.58 94.5104 1022.71 Q94.5104 1029.82 96.316 1033.39 Q98.1447 1036.93 101.756 1036.93 Q105.39 1036.93 107.196 1033.39 Q109.024 1029.82 109.024 1022.71 Q109.024 1015.58 107.196 1012.04 Q105.39 1008.48 101.756 1008.48 M101.756 1004.77 Q107.566 1004.77 110.621 1009.38 Q113.7 1013.96 113.7 1022.71 Q113.7 1031.44 110.621 1036.05 Q107.566 1040.63 101.756 1040.63 Q95.9456 1040.63 92.8669 1036.05 Q89.8114 1031.44 89.8114 1022.71 Q89.8114 1013.96 92.8669 1009.38 Q95.9456 1004.77 101.756 1004.77 Z" fill="#000000" fill-rule="nonzero" fill-opacity="1" /><path clip-path="url(#clip700)" d="M121.918 1034.08 L126.802 1034.08 L126.802 1039.96 L121.918 1039.96 L121.918 1034.08 Z" fill="#000000" fill-rule="nonzero" fill-opacity="1" /><path clip-path="url(#clip700)" d="M137.033 1005.4 L155.39 1005.4 L155.39 1009.33 L141.316 1009.33 L141.316 1017.81 Q142.334 1017.46 143.353 1017.3 Q144.371 1017.11 145.39 1017.11 Q151.177 1017.11 154.556 1020.28 Q157.936 1023.45 157.936 1028.87 Q157.936 1034.45 154.464 1037.55 Q150.992 1040.63 144.672 1040.63 Q142.496 1040.63 140.228 1040.26 Q137.982 1039.89 135.575 1039.15 L135.575 1034.45 Q137.658 1035.58 139.881 1036.14 Q142.103 1036.7 144.58 1036.7 Q148.584 1036.7 150.922 1034.59 Q153.26 1032.48 153.26 1028.87 Q153.26 1025.26 150.922 1023.15 Q148.584 1021.05 144.58 1021.05 Q142.705 1021.05 140.83 1021.46 Q138.978 1021.88 137.033 1022.76 L137.033 1005.4 Z" fill="#000000" fill-rule="nonzero" fill-opacity="1" /><path clip-path="url(#clip700)" d="M100.76 738.465 Q97.1493 738.465 95.3206 742.029 Q93.515 745.571 93.515 752.701 Q93.515 759.807 95.3206 763.372 Q97.1493 766.914 100.76 766.914 Q104.395 766.914 106.2 763.372 Q108.029 759.807 108.029 752.701 Q108.029 745.571 106.2 742.029 Q104.395 738.465 100.76 738.465 M100.76 734.761 Q106.571 734.761 109.626 739.367 Q112.705 743.951 112.705 752.701 Q112.705 761.427 109.626 766.034 Q106.571 770.617 100.76 770.617 Q94.9502 770.617 91.8715 766.034 Q88.816 761.427 88.816 752.701 Q88.816 743.951 91.8715 739.367 Q94.9502 734.761 100.76 734.761 Z" fill="#000000" fill-rule="nonzero" fill-opacity="1" /><path clip-path="url(#clip700)" d="M120.922 764.066 L125.807 764.066 L125.807 769.946 L120.922 769.946 L120.922 764.066 Z" fill="#000000" fill-rule="nonzero" fill-opacity="1" /><path clip-path="url(#clip700)" d="M145.992 738.465 Q142.381 738.465 140.552 742.029 Q138.746 745.571 138.746 752.701 Q138.746 759.807 140.552 763.372 Q142.381 766.914 145.992 766.914 Q149.626 766.914 151.431 763.372 Q153.26 759.807 153.26 752.701 Q153.26 745.571 151.431 742.029 Q149.626 738.465 145.992 738.465 M145.992 734.761 Q151.802 734.761 154.857 739.367 Q157.936 743.951 157.936 752.701 Q157.936 761.427 154.857 766.034 Q151.802 770.617 145.992 770.617 Q140.181 770.617 137.103 766.034 Q134.047 761.427 134.047 752.701 Q134.047 743.951 137.103 739.367 Q140.181 734.761 145.992 734.761 Z" fill="#000000" fill-rule="nonzero" fill-opacity="1" /><path clip-path="url(#clip700)" d="M101.756 468.451 Q98.1447 468.451 96.316 472.016 Q94.5104 475.557 94.5104 482.687 Q94.5104 489.793 96.316 493.358 Q98.1447 496.9 101.756 496.9 Q105.39 496.9 107.196 493.358 Q109.024 489.793 109.024 482.687 Q109.024 475.557 107.196 472.016 Q105.39 468.451 101.756 468.451 M101.756 464.747 Q107.566 464.747 110.621 469.354 Q113.7 473.937 113.7 482.687 Q113.7 491.414 110.621 496.02 Q107.566 500.604 101.756 500.604 Q95.9456 500.604 92.8669 496.02 Q89.8114 491.414 89.8114 482.687 Q89.8114 473.937 92.8669 469.354 Q95.9456 464.747 101.756 464.747 Z" fill="#000000" fill-rule="nonzero" fill-opacity="1" /><path clip-path="url(#clip700)" d="M121.918 494.053 L126.802 494.053 L126.802 499.932 L121.918 499.932 L121.918 494.053 Z" fill="#000000" fill-rule="nonzero" fill-opacity="1" /><path clip-path="url(#clip700)" d="M137.033 465.372 L155.39 465.372 L155.39 469.307 L141.316 469.307 L141.316 477.78 Q142.334 477.432 143.353 477.27 Q144.371 477.085 145.39 477.085 Q151.177 477.085 154.556 480.256 Q157.936 483.428 157.936 488.844 Q157.936 494.423 154.464 497.525 Q150.992 500.604 144.672 500.604 Q142.496 500.604 140.228 500.233 Q137.982 499.863 135.575 499.122 L135.575 494.423 Q137.658 495.557 139.881 496.113 Q142.103 496.668 144.58 496.668 Q148.584 496.668 150.922 494.562 Q153.26 492.455 153.26 488.844 Q153.26 485.233 150.922 483.127 Q148.584 481.02 144.58 481.02 Q142.705 481.02 140.83 481.437 Q138.978 481.854 137.033 482.733 L137.033 465.372 Z" fill="#000000" fill-rule="nonzero" fill-opacity="1" /><path clip-path="url(#clip700)" d="M91.5706 225.984 L99.2095 225.984 L99.2095 199.618 L90.8993 201.285 L90.8993 197.025 L99.1632 195.359 L103.839 195.359 L103.839 225.984 L111.478 225.984 L111.478 229.919 L91.5706 229.919 L91.5706 225.984 Z" fill="#000000" fill-rule="nonzero" fill-opacity="1" /><path clip-path="url(#clip700)" d="M120.922 224.039 L125.807 224.039 L125.807 229.919 L120.922 229.919 L120.922 224.039 Z" fill="#000000" fill-rule="nonzero" fill-opacity="1" /><path clip-path="url(#clip700)" d="M145.992 198.437 Q142.381 198.437 140.552 202.002 Q138.746 205.544 138.746 212.673 Q138.746 219.78 140.552 223.345 Q142.381 226.886 145.992 226.886 Q149.626 226.886 151.431 223.345 Q153.26 219.78 153.26 212.673 Q153.26 205.544 151.431 202.002 Q149.626 198.437 145.992 198.437 M145.992 194.734 Q151.802 194.734 154.857 199.34 Q157.936 203.923 157.936 212.673 Q157.936 221.4 154.857 226.007 Q151.802 230.59 145.992 230.59 Q140.181 230.59 137.103 226.007 Q134.047 221.4 134.047 212.673 Q134.047 203.923 137.103 199.34 Q140.181 194.734 145.992 194.734 Z" fill="#000000" fill-rule="nonzero" fill-opacity="1" /><polyline clip-path="url(#clip702)" style="stroke:#009af9; stroke-linecap:round; stroke-linejoin:round; stroke-width:4; stroke-opacity:1; fill:none" points="255.035,752.666 258.278,747.266 261.521,741.866 264.764,736.468 268.007,731.071 271.25,725.676 274.493,720.284 277.736,714.895 280.979,709.51 284.222,704.129 287.465,698.753 290.708,693.383 293.951,688.018 297.194,682.66 300.437,677.309 303.68,671.965 306.923,666.63 310.166,661.303 313.409,655.985 316.652,650.677 319.895,645.379 323.138,640.092 326.381,634.816 329.624,629.552 332.867,624.3 336.11,619.061 339.353,613.835 342.596,608.624 345.84,603.426 349.083,598.244 352.326,593.077 355.569,587.926 358.812,582.791 362.055,577.674 365.298,572.574 368.541,567.492 371.784,562.428 375.027,557.384 378.27,552.359 381.513,547.354 384.756,542.369 387.999,537.406 391.242,532.464 394.485,527.544 397.728,522.647 400.971,517.773 404.214,512.922 407.457,508.095 410.7,503.293 413.943,498.515 417.186,493.763 420.429,489.037 423.672,484.337 426.915,479.664 430.158,475.018 433.401,470.401 436.644,465.811 439.887,461.25 443.13,456.718 446.373,452.216 449.616,447.744 452.859,443.302 456.103,438.891 459.346,434.512 462.589,430.164 465.832,425.849 469.075,421.566 472.318,417.317 475.561,413.101 478.804,408.919 482.047,404.771 485.29,400.658 488.533,396.58 491.776,392.538 495.019,388.532 498.262,384.562 501.505,380.63 504.748,376.734 507.991,372.876 511.234,369.056 514.477,365.274 517.72,361.531 520.963,357.827 524.206,354.163 527.449,350.538 530.692,346.954 533.935,343.41 537.178,339.907 540.421,336.446 543.664,333.026 546.907,329.648 550.15,326.312 553.393,323.019 556.636,319.769 559.879,316.563 563.122,313.399 566.366,310.28 569.609,307.205 572.852,304.175 576.095,301.189 579.338,298.249 582.581,295.354 585.824,292.504 589.067,289.701 592.31,286.944 595.553,284.234 598.796,281.57 602.039,278.954 605.282,276.385 608.525,273.863 611.768,271.39 615.011,268.964 618.254,266.587 621.497,264.259 624.74,261.979 627.983,259.749 631.226,257.567 634.469,255.436 637.712,253.354 640.955,251.321 644.198,249.339 647.441,247.408 650.684,245.527 653.927,243.696 657.17,241.917 660.413,240.188 663.656,238.511 666.899,236.885 670.142,235.311 673.385,233.789 676.629,232.318 679.872,230.9 683.115,229.533 686.358,228.219 689.601,226.958 692.844,225.749 696.087,224.592 699.33,223.489 702.573,222.438 705.816,221.441 709.059,220.496 712.302,219.605 715.545,218.767 718.788,217.983 722.031,217.251 725.274,216.574 728.517,215.95 731.76,215.38 735.003,214.863 738.246,214.4 741.489,213.991 744.732,213.636 747.975,213.335 751.218,213.088 754.461,212.895 757.704,212.755 760.947,212.67 764.19,212.639 767.433,212.662 770.676,212.738 773.919,212.869 777.162,213.054 780.405,213.292 783.648,213.585 786.892,213.931 790.135,214.332 793.378,214.786 796.621,215.294 799.864,215.856 803.107,216.471 806.35,217.14 809.593,217.862 812.836,218.639 816.079,219.468 819.322,220.351 822.565,221.287 825.808,222.276 829.051,223.318 832.294,224.413 835.537,225.561 838.78,226.762 842.023,228.015 845.266,229.321 848.509,230.679 851.752,232.089 854.995,233.551 858.238,235.065 861.481,236.631 864.724,238.249 867.967,239.918 871.21,241.638 874.453,243.409 877.696,245.232 880.939,247.105 884.182,249.028 887.425,251.002 890.668,253.027 893.911,255.101 897.155,257.224 900.398,259.398 903.641,261.621 906.884,263.892 910.127,266.213 913.37,268.582 916.613,271 919.856,273.466 923.099,275.98 926.342,278.541 929.585,281.15 932.828,283.806 936.071,286.509 939.314,289.259 942.557,292.055 945.8,294.897 949.043,297.785 952.286,300.718 955.529,303.696 958.772,306.72 962.015,309.787 965.258,312.9 968.501,316.056 971.744,319.256 974.987,322.499 978.23,325.785 981.473,329.114 984.716,332.485 987.959,335.898 991.202,339.353 994.445,342.85 997.688,346.387 1000.93,349.965 1004.17,353.583 1007.42,357.241 1010.66,360.939 1013.9,364.675 1017.15,368.451 1020.39,372.265 1023.63,376.117 1026.88,380.007 1030.12,383.934 1033.36,387.897 1036.6,391.898 1039.85,395.934 1043.09,400.006 1046.33,404.113 1049.58,408.256 1052.82,412.432 1056.06,416.643 1059.31,420.887 1062.55,425.165 1065.79,429.475 1069.04,433.817 1072.28,438.192 1075.52,442.597 1078.76,447.034 1082.01,451.502 1085.25,455.999 1088.49,460.526 1091.74,465.083 1094.98,469.668 1098.22,474.281 1101.47,478.922 1104.71,483.591 1107.95,488.287 1111.19,493.009 1114.44,497.757 1117.68,502.53 1120.92,507.328 1124.17,512.151 1127.41,516.999 1130.65,521.869 1133.9,526.763 1137.14,531.679 1140.38,536.617 1143.62,541.577 1146.87,546.559 1150.11,551.56 1153.35,556.582 1156.6,561.624 1159.84,566.684 1163.08,571.763 1166.33,576.86 1169.57,581.975 1172.81,587.107 1176.06,592.255 1179.3,597.42 1182.54,602.6 1185.78,607.795 1189.03,613.004 1192.27,618.228 1195.51,623.465 1198.76,628.715 1202,633.977 1205.24,639.251 1208.49,644.536 1211.73,649.832 1214.97,655.139 1218.21,660.455 1221.46,665.781 1224.7,671.115 1227.94,676.457 1231.19,681.807 1234.43,687.164 1237.67,692.528 1240.92,697.897 1244.16,703.272 1247.4,708.653 1250.64,714.037 1253.89,719.425 1257.13,724.817 1260.37,730.211 1263.62,735.608 1266.86,741.006 1270.1,746.406 1273.35,751.806 1276.59,757.206 1279.83,762.606 1283.08,768.005 1286.32,773.402 1289.56,778.797 1292.8,784.19 1296.05,789.579 1299.29,794.965 1302.53,800.346 1305.78,805.723 1309.02,811.094 1312.26,816.46 1315.51,821.819 1318.75,827.171 1321.99,832.516 1325.23,837.853 1328.48,843.181 1331.72,848.5 1334.96,853.81 1338.21,859.11 1341.45,864.399 1344.69,869.676 1347.94,874.942 1351.18,880.196 1354.42,885.437 1357.66,890.665 1360.91,895.879 1364.15,901.079 1367.39,906.264 1370.64,911.433 1373.88,916.587 1377.12,921.724 1380.37,926.844 1383.61,931.947 1386.85,937.032 1390.1,942.098 1393.34,947.146 1396.58,952.174 1399.82,957.182 1403.07,962.17 1406.31,967.137 1409.55,972.082 1412.8,977.005 1416.04,981.906 1419.28,986.784 1422.53,991.639 1425.77,996.47 1429.01,1001.28 1432.25,1006.06 1435.5,1010.81 1438.74,1015.54 1441.98,1020.25 1445.23,1024.93 1448.47,1029.58 1451.71,1034.2 1454.96,1038.79 1458.2,1043.36 1461.44,1047.89 1464.68,1052.4 1467.93,1056.88 1471.17,1061.32 1474.41,1065.74 1477.66,1070.12 1480.9,1074.48 1484.14,1078.8 1487.39,1083.09 1490.63,1087.34 1493.87,1091.56 1497.11,1095.75 1500.36,1099.9 1503.6,1104.02 1506.84,1108.1 1510.09,1112.15 1513.33,1116.16 1516.57,1120.14 1519.82,1124.08 1523.06,1127.98 1526.3,1131.84 1529.55,1135.67 1532.79,1139.46 1536.03,1143.21 1539.27,1146.92 1542.52,1150.59 1545.76,1154.22 1549,1157.81 1552.25,1161.36 1555.49,1164.87 1558.73,1168.34 1561.98,1171.76 1565.22,1175.15 1568.46,1178.49 1571.7,1181.79 1574.95,1185.05 1578.19,1188.26 1581.43,1191.43 1584.68,1194.56 1587.92,1197.64 1591.16,1200.68 1594.41,1203.67 1597.65,1206.62 1600.89,1209.52 1604.13,1212.38 1607.38,1215.19 1610.62,1217.95 1613.86,1220.67 1617.11,1223.34 1620.35,1225.96 1623.59,1228.54 1626.84,1231.07 1630.08,1233.55 1633.32,1235.98 1636.57,1238.37 1639.81,1240.71 1643.05,1242.99 1646.29,1245.23 1649.54,1247.42 1652.78,1249.56 1656.02,1251.65 1659.27,1253.69 1662.51,1255.68 1665.75,1257.62 1669,1259.51 1672.24,1261.35 1675.48,1263.13 1678.72,1264.87 1681.97,1266.56 1685.21,1268.19 1688.45,1269.77 1691.7,1271.3 1694.94,1272.78 1698.18,1274.21 1701.43,1275.58 1704.67,1276.91 1707.91,1278.18 1711.15,1279.39 1714.4,1280.56 1717.64,1281.67 1720.88,1282.73 1724.13,1283.74 1727.37,1284.69 1730.61,1285.59 1733.86,1286.43 1737.1,1287.23 1740.34,1287.97 1743.59,1288.65 1746.83,1289.29 1750.07,1289.86 1753.31,1290.39 1756.56,1290.86 1759.8,1291.28 1763.04,1291.64 1766.29,1291.95 1769.53,1292.21 1772.77,1292.41 1776.02,1292.56 1779.26,1292.65 1782.5,1292.69 1785.74,1292.68 1788.99,1292.61 1792.23,1292.49 1795.47,1292.31 1798.72,1292.08 1801.96,1291.8 1805.2,1291.46 1808.45,1291.07 1811.69,1290.62 1814.93,1290.12 1818.17,1289.57 1821.42,1288.96 1824.66,1288.3 1827.9,1287.59 1831.15,1286.82 1834.39,1286 1837.63,1285.13 1840.88,1284.2 1844.12,1283.22 1847.36,1282.18 1850.61,1281.1 1853.85,1279.96 1857.09,1278.76 1860.33,1277.52 1863.58,1276.22 1866.82,1274.87 1870.06,1273.47 1873.31,1272.02 1876.55,1270.51 1879.79,1268.95 1883.04,1267.34 1886.28,1265.68 1889.52,1263.97 1892.76,1262.21 1896.01,1260.39 1899.25,1258.53 1902.49,1256.61 1905.74,1254.65 1908.98,1252.63 1912.22,1250.56 1915.47,1248.45 1918.71,1246.28 1921.95,1244.07 1925.19,1241.8 1928.44,1239.49 1931.68,1237.13 1934.92,1234.72 1938.17,1232.26 1941.41,1229.76 1944.65,1227.2 1947.9,1224.6 1951.14,1221.95 1954.38,1219.26 1957.63,1216.51 1960.87,1213.73 1964.11,1210.89 1967.35,1208.01 1970.6,1205.08 1973.84,1202.11 1977.08,1199.1 1980.33,1196.04 1983.57,1192.93 1986.81,1189.78 1990.06,1186.59 1993.3,1183.35 1996.54,1180.07 1999.78,1176.75 2003.03,1173.39 2006.27,1169.98 2009.51,1166.53 2012.76,1163.04 2016,1159.51 2019.24,1155.94 2022.49,1152.33 2025.73,1148.68 2028.97,1144.98 2032.21,1141.25 2035.46,1137.48 2038.7,1133.68 2041.94,1129.83 2045.19,1125.95 2048.43,1122.03 2051.67,1118.07 2054.92,1114.07 2058.16,1110.04 2061.4,1105.98 2064.65,1101.87 2067.89,1097.74 2071.13,1093.57 2074.37,1089.36 2077.62,1085.12 2080.86,1080.85 2084.1,1076.55 2087.35,1072.21 2090.59,1067.84 2093.83,1063.44 2097.08,1059.01 2100.32,1054.54 2103.56,1050.05 2106.8,1045.53 2110.05,1040.98 2113.29,1036.4 2116.53,1031.79 2119.78,1027.15 2123.02,1022.49 2126.26,1017.79 2129.51,1013.08 2132.75,1008.33 2135.99,1003.56 2139.23,998.769 2142.48,993.95 2145.72,989.107 2148.96,984.24 2152.21,979.35 2155.45,974.437 2158.69,969.502 2161.94,964.546 2165.18,959.568 2168.42,954.569 2171.67,949.551 2174.91,944.512 2178.15,939.455 2181.39,934.379 2184.64,929.284 2187.88,924.172 2191.12,919.043 2194.37,913.897 2197.61,908.735 2200.85,903.558 2204.1,898.365 2207.34,893.158 2210.58,887.937 2213.82,882.702 2217.07,877.454 2220.31,872.194 2223.55,866.922 2226.8,861.638 2230.04,856.344 2233.28,851.039 2236.53,845.724 2239.77,840.4 2243.01,835.067 2246.25,829.726 2249.5,824.377 2252.74,819.021 2255.98,813.659 2259.23,808.29 2262.47,802.916 2265.71,797.536 2268.96,792.153 2272.2,786.765 2275.44,781.374 2278.69,775.98 2281.93,770.584 2285.17,765.185 2288.41,759.786 2291.66,754.386 "/>
<circle clip-path="url(#clip702)" cx="559.879" cy="406.408" r="14.4" fill="#e26f46" fill-rule="evenodd" fill-opacity="1" stroke="#000000" stroke-opacity="1" stroke-width="3.2"/>
<circle clip-path="url(#clip702)" cx="949.043" cy="302.671" r="14.4" fill="#e26f46" fill-rule="evenodd" fill-opacity="1" stroke="#000000" stroke-opacity="1" stroke-width="3.2"/>
<circle clip-path="url(#clip702)" cx="1905.74" cy="1327.21" r="14.4" fill="#e26f46" fill-rule="evenodd" fill-opacity="1" stroke="#000000" stroke-opacity="1" stroke-width="3.2"/>
<circle clip-path="url(#clip702)" cx="812.836" cy="291.482" r="14.4" fill="#e26f46" fill-rule="evenodd" fill-opacity="1" stroke="#000000" stroke-opacity="1" stroke-width="3.2"/>
<circle clip-path="url(#clip702)" cx="323.138" cy="618.705" r="14.4" fill="#e26f46" fill-rule="evenodd" fill-opacity="1" stroke="#000000" stroke-opacity="1" stroke-width="3.2"/>
<circle clip-path="url(#clip702)" cx="2129.51" cy="964.415" r="14.4" fill="#e26f46" fill-rule="evenodd" fill-opacity="1" stroke="#000000" stroke-opacity="1" stroke-width="3.2"/>
<circle clip-path="url(#clip702)" cx="845.266" cy="270.956" r="14.4" fill="#e26f46" fill-rule="evenodd" fill-opacity="1" stroke="#000000" stroke-opacity="1" stroke-width="3.2"/>
<circle clip-path="url(#clip702)" cx="1321.99" cy="953.265" r="14.4" fill="#e26f46" fill-rule="evenodd" fill-opacity="1" stroke="#000000" stroke-opacity="1" stroke-width="3.2"/>
<circle clip-path="url(#clip702)" cx="1214.97" cy="734.994" r="14.4" fill="#e26f46" fill-rule="evenodd" fill-opacity="1" stroke="#000000" stroke-opacity="1" stroke-width="3.2"/>
<circle clip-path="url(#clip702)" cx="728.517" cy="216.487" r="14.4" fill="#e26f46" fill-rule="evenodd" fill-opacity="1" stroke="#000000" stroke-opacity="1" stroke-width="3.2"/>
<circle clip-path="url(#clip702)" cx="1779.26" cy="1321.02" r="14.4" fill="#e26f46" fill-rule="evenodd" fill-opacity="1" stroke="#000000" stroke-opacity="1" stroke-width="3.2"/>
<circle clip-path="url(#clip702)" cx="666.899" cy="168.823" r="14.4" fill="#e26f46" fill-rule="evenodd" fill-opacity="1" stroke="#000000" stroke-opacity="1" stroke-width="3.2"/>
<circle clip-path="url(#clip702)" cx="1383.61" cy="991.521" r="14.4" fill="#e26f46" fill-rule="evenodd" fill-opacity="1" stroke="#000000" stroke-opacity="1" stroke-width="3.2"/>
<circle clip-path="url(#clip702)" cx="1438.74" cy="1061.15" r="14.4" fill="#e26f46" fill-rule="evenodd" fill-opacity="1" stroke="#000000" stroke-opacity="1" stroke-width="3.2"/>
<circle clip-path="url(#clip702)" cx="1403.07" cy="1091.36" r="14.4" fill="#e26f46" fill-rule="evenodd" fill-opacity="1" stroke="#000000" stroke-opacity="1" stroke-width="3.2"/>
<circle clip-path="url(#clip702)" cx="1840.88" cy="1211.57" r="14.4" fill="#e26f46" fill-rule="evenodd" fill-opacity="1" stroke="#000000" stroke-opacity="1" stroke-width="3.2"/>
<circle clip-path="url(#clip702)" cx="809.593" cy="348.49" r="14.4" fill="#e26f46" fill-rule="evenodd" fill-opacity="1" stroke="#000000" stroke-opacity="1" stroke-width="3.2"/>
<circle clip-path="url(#clip702)" cx="1636.57" cy="1213.75" r="14.4" fill="#e26f46" fill-rule="evenodd" fill-opacity="1" stroke="#000000" stroke-opacity="1" stroke-width="3.2"/>
<circle clip-path="url(#clip702)" cx="559.879" cy="213.037" r="14.4" fill="#e26f46" fill-rule="evenodd" fill-opacity="1" stroke="#000000" stroke-opacity="1" stroke-width="3.2"/>
<circle clip-path="url(#clip702)" cx="1542.52" cy="1205.39" r="14.4" fill="#e26f46" fill-rule="evenodd" fill-opacity="1" stroke="#000000" stroke-opacity="1" stroke-width="3.2"/>
<path clip-path="url(#clip702)" d="M255.035 954.204 L258.278 949.272 L261.521 944.333 L264.764 939.391 L268.007 934.45 L271.25 929.514 L274.493 924.589 L277.736 919.679 L280.979 914.789 L284.222 909.924 L287.465 905.09 L290.708 900.292 L293.951 895.535 L297.194 890.827 L300.437 886.173 L303.68 881.578 L306.923 877.05 L310.166 872.593 L313.409 868.215 L316.652 863.921 L319.895 859.716 L323.138 855.608 L326.381 851.597 L329.624 847.681 L332.867 843.85 L336.11 840.097 L339.353 836.415 L342.596 832.794 L345.84 829.227 L349.083 825.706 L352.326 822.223 L355.569 818.769 L358.812 815.338 L362.055 811.92 L365.298 808.51 L368.541 805.099 L371.784 801.682 L375.027 798.25 L378.27 794.798 L381.513 791.319 L384.756 787.809 L387.999 784.261 L391.242 780.67 L394.485 777.032 L397.728 773.342 L400.971 769.597 L404.214 765.792 L407.457 761.923 L410.7 757.989 L413.943 753.985 L417.186 749.91 L420.429 745.762 L423.672 741.538 L426.915 737.237 L430.158 732.858 L433.401 728.401 L436.644 723.863 L439.887 719.246 L443.13 714.55 L446.373 709.774 L449.616 704.919 L452.859 699.987 L456.103 694.979 L459.346 689.897 L462.589 684.741 L465.832 679.516 L469.075 674.223 L472.318 668.866 L475.561 663.447 L478.804 657.971 L482.047 652.443 L485.29 646.866 L488.533 641.245 L491.776 635.586 L495.019 629.895 L498.262 624.178 L501.505 618.442 L504.748 612.695 L507.991 606.943 L511.234 601.195 L514.477 595.461 L517.72 589.748 L520.963 584.068 L524.206 578.431 L527.449 572.846 L530.692 567.326 L533.935 561.883 L537.178 556.529 L540.421 551.276 L543.664 546.137 L546.907 541.126 L550.15 536.256 L553.393 531.54 L556.636 526.992 L559.879 522.626 L563.122 518.45 L566.366 514.458 L569.609 510.642 L572.852 506.989 L576.095 503.491 L579.338 500.137 L582.581 496.917 L585.824 493.821 L589.067 490.84 L592.31 487.965 L595.553 485.187 L598.796 482.499 L602.039 479.894 L605.282 477.365 L608.525 474.906 L611.768 472.512 L615.011 470.18 L618.254 467.904 L621.497 465.684 L624.74 463.517 L627.983 461.401 L631.226 459.337 L634.469 457.325 L637.712 455.366 L640.955 453.462 L644.198 451.616 L647.441 449.831 L650.684 448.111 L653.927 446.461 L657.17 444.886 L660.413 443.393 L663.656 441.986 L666.899 440.675 L670.142 439.462 L673.385 438.344 L676.629 437.316 L679.872 436.371 L683.115 435.504 L686.358 434.711 L689.601 433.987 L692.844 433.33 L696.087 432.736 L699.33 432.203 L702.573 431.73 L705.816 431.316 L709.059 430.96 L712.302 430.663 L715.545 430.426 L718.788 430.251 L722.031 430.139 L725.274 430.094 L728.517 430.119 L731.76 430.216 L735.003 430.38 L738.246 430.604 L741.489 430.884 L744.732 431.213 L747.975 431.588 L751.218 432.005 L754.461 432.461 L757.704 432.954 L760.947 433.483 L764.19 434.048 L767.433 434.649 L770.676 435.288 L773.919 435.968 L777.162 436.692 L780.405 437.466 L783.648 438.294 L786.892 439.182 L790.135 440.14 L793.378 441.173 L796.621 442.293 L799.864 443.507 L803.107 444.827 L806.35 446.262 L809.593 447.825 L812.836 449.524 L816.079 451.365 L819.322 453.347 L822.565 455.468 L825.808 457.724 L829.051 460.113 L832.294 462.634 L835.537 465.285 L838.78 468.063 L842.023 470.969 L845.266 474 L848.509 477.156 L851.752 480.427 L854.995 483.802 L858.238 487.274 L861.481 490.831 L864.724 494.467 L867.967 498.174 L871.21 501.944 L874.453 505.773 L877.696 509.655 L880.939 513.585 L884.182 517.56 L887.425 521.577 L890.668 525.635 L893.911 529.732 L897.155 533.868 L900.398 538.042 L903.641 542.257 L906.884 546.513 L910.127 550.813 L913.37 555.159 L916.613 559.556 L919.856 564.006 L923.099 568.515 L926.342 573.087 L929.585 577.728 L932.828 582.443 L936.071 587.238 L939.314 592.12 L942.557 597.095 L945.8 602.17 L949.043 607.351 L952.286 612.642 L955.529 618.039 L958.772 623.53 L962.015 629.108 L965.258 634.765 L968.501 640.49 L971.744 646.277 L974.987 652.116 L978.23 658.001 L981.473 663.924 L984.716 669.877 L987.959 675.853 L991.202 681.846 L994.445 687.848 L997.688 693.855 L1000.93 699.86 L1004.17 705.858 L1007.42 711.842 L1010.66 717.809 L1013.9 723.753 L1017.15 729.669 L1020.39 735.554 L1023.63 741.404 L1026.88 747.214 L1030.12 752.981 L1033.36 758.701 L1036.6 764.372 L1039.85 769.991 L1043.09 775.555 L1046.33 781.06 L1049.58 786.506 L1052.82 791.889 L1056.06 797.209 L1059.31 802.462 L1062.55 807.648 L1065.79 812.764 L1069.04 817.811 L1072.28 822.785 L1075.52 827.688 L1078.76 832.517 L1082.01 837.272 L1085.25 841.954 L1088.49 846.56 L1091.74 851.092 L1094.98 855.549 L1098.22 859.931 L1101.47 864.239 L1104.71 868.473 L1107.95 872.634 L1111.19 876.723 L1114.44 880.74 L1117.68 884.686 L1120.92 888.564 L1124.17 892.374 L1127.41 896.118 L1130.65 899.799 L1133.9 903.417 L1137.14 906.975 L1140.38 910.476 L1143.62 913.923 L1146.87 917.317 L1150.11 920.663 L1153.35 923.963 L1156.6 927.221 L1159.84 930.44 L1163.08 933.625 L1166.33 936.78 L1169.57 939.908 L1172.81 943.016 L1176.06 946.107 L1179.3 949.187 L1182.54 952.261 L1185.78 955.334 L1189.03 958.413 L1192.27 961.504 L1195.51 964.612 L1198.76 967.744 L1202 970.906 L1205.24 974.105 L1208.49 977.348 L1211.73 980.642 L1214.97 983.992 L1218.21 987.404 L1221.46 990.874 L1224.7 994.394 L1227.94 997.958 L1231.19 1001.56 L1234.43 1005.19 L1237.67 1008.85 L1240.92 1012.53 L1244.16 1016.22 L1247.4 1019.92 L1250.64 1023.63 L1253.89 1027.33 L1257.13 1031.02 L1260.37 1034.7 L1263.62 1038.37 L1266.86 1042.01 L1270.1 1045.64 L1273.35 1049.25 L1276.59 1052.82 L1279.83 1056.37 L1283.08 1059.9 L1286.32 1063.39 L1289.56 1066.86 L1292.8 1070.29 L1296.05 1073.7 L1299.29 1077.09 L1302.53 1080.45 L1305.78 1083.79 L1309.02 1087.12 L1312.26 1090.43 L1315.51 1093.73 L1318.75 1097.02 L1321.99 1100.32 L1325.23 1103.62 L1328.48 1106.92 L1331.72 1110.23 L1334.96 1113.54 L1338.21 1116.84 L1341.45 1120.14 L1344.69 1123.45 L1347.94 1126.75 L1351.18 1130.05 L1354.42 1133.36 L1357.66 1136.67 L1360.91 1140 L1364.15 1143.34 L1367.39 1146.69 L1370.64 1150.08 L1373.88 1153.49 L1377.12 1156.94 L1380.37 1160.44 L1383.61 1163.98 L1386.85 1167.59 L1390.1 1171.26 L1393.34 1174.98 L1396.58 1178.77 L1399.82 1182.61 L1403.07 1186.51 L1406.31 1190.46 L1409.55 1194.47 L1412.8 1198.52 L1416.04 1202.62 L1419.28 1206.75 L1422.53 1210.93 L1425.77 1215.13 L1429.01 1219.36 L1432.25 1223.61 L1435.5 1227.89 L1438.74 1232.18 L1441.98 1236.5 L1445.23 1240.82 L1448.47 1245.15 L1451.71 1249.46 L1454.96 1253.76 L1458.2 1258.03 L1461.44 1262.27 L1464.68 1266.46 L1467.93 1270.61 L1471.17 1274.71 L1474.41 1278.75 L1477.66 1282.73 L1480.9 1286.64 L1484.14 1290.49 L1487.39 1294.26 L1490.63 1297.97 L1493.87 1301.6 L1497.11 1305.16 L1500.36 1308.64 L1503.6 1312.05 L1506.84 1315.4 L1510.09 1318.67 L1513.33 1321.87 L1516.57 1325.01 L1519.82 1328.08 L1523.06 1331.1 L1526.3 1334.06 L1529.55 1336.97 L1532.79 1339.83 L1536.03 1342.65 L1539.27 1345.43 L1542.52 1348.18 L1545.76 1350.91 L1549 1353.6 L1552.25 1356.26 L1555.49 1358.88 L1558.73 1361.47 L1561.98 1364.01 L1565.22 1366.52 L1568.46 1368.99 L1571.7 1371.41 L1574.95 1373.79 L1578.19 1376.12 L1581.43 1378.41 L1584.68 1380.65 L1587.92 1382.85 L1591.16 1385.01 L1594.41 1387.13 L1597.65 1389.2 L1600.89 1391.24 L1604.13 1393.24 L1607.38 1395.21 L1610.62 1397.15 L1613.86 1399.06 L1617.11 1400.94 L1620.35 1402.81 L1623.59 1404.66 L1626.84 1406.49 L1630.08 1408.32 L1633.32 1410.14 L1636.57 1411.97 L1639.81 1413.79 L1643.05 1415.61 L1646.29 1417.43 L1649.54 1419.23 L1652.78 1421.01 L1656.02 1422.76 L1659.27 1424.48 L1662.51 1426.16 L1665.75 1427.8 L1669 1429.39 L1672.24 1430.92 L1675.48 1432.4 L1678.72 1433.82 L1681.97 1435.16 L1685.21 1436.44 L1688.45 1437.65 L1691.7 1438.77 L1694.94 1439.82 L1698.18 1440.79 L1701.43 1441.67 L1704.67 1442.47 L1707.91 1443.18 L1711.15 1443.81 L1714.4 1444.34 L1717.64 1444.79 L1720.88 1445.15 L1724.13 1445.42 L1727.37 1445.6 L1730.61 1445.7 L1733.86 1445.72 L1737.1 1445.65 L1740.34 1445.5 L1743.59 1445.28 L1746.83 1444.99 L1750.07 1444.63 L1753.31 1444.2 L1756.56 1443.71 L1759.8 1443.16 L1763.04 1442.57 L1766.29 1441.93 L1769.53 1441.25 L1772.77 1440.54 L1776.02 1439.8 L1779.26 1439.04 L1782.5 1438.26 L1785.74 1437.48 L1788.99 1436.68 L1792.23 1435.87 L1795.47 1435.05 L1798.72 1434.22 L1801.96 1433.38 L1805.2 1432.53 L1808.45 1431.69 L1811.69 1430.84 L1814.93 1429.99 L1818.17 1429.16 L1821.42 1428.32 L1824.66 1427.51 L1827.9 1426.71 L1831.15 1425.93 L1834.39 1425.19 L1837.63 1424.47 L1840.88 1423.8 L1844.12 1423.16 L1847.36 1422.57 L1850.61 1422.01 L1853.85 1421.48 L1857.09 1420.97 L1860.33 1420.48 L1863.58 1420.01 L1866.82 1419.54 L1870.06 1419.09 L1873.31 1418.64 L1876.55 1418.19 L1879.79 1417.73 L1883.04 1417.28 L1886.28 1416.82 L1889.52 1416.35 L1892.76 1415.87 L1896.01 1415.38 L1899.25 1414.87 L1902.49 1414.36 L1905.74 1413.83 L1908.98 1413.29 L1912.22 1412.72 L1915.47 1412.13 L1918.71 1411.51 L1921.95 1410.86 L1925.19 1410.16 L1928.44 1409.42 L1931.68 1408.62 L1934.92 1407.77 L1938.17 1406.87 L1941.41 1405.89 L1944.65 1404.86 L1947.9 1403.75 L1951.14 1402.57 L1954.38 1401.31 L1957.63 1399.98 L1960.87 1398.57 L1964.11 1397.08 L1967.35 1395.5 L1970.6 1393.84 L1973.84 1392.1 L1977.08 1390.27 L1980.33 1388.36 L1983.57 1386.36 L1986.81 1384.28 L1990.06 1382.11 L1993.3 1379.86 L1996.54 1377.52 L1999.78 1375.11 L2003.03 1372.61 L2006.27 1370.03 L2009.51 1367.38 L2012.76 1364.65 L2016 1361.85 L2019.24 1358.98 L2022.49 1356.04 L2025.73 1353.04 L2028.97 1349.98 L2032.21 1346.86 L2035.46 1343.69 L2038.7 1340.47 L2041.94 1337.2 L2045.19 1333.9 L2048.43 1330.56 L2051.67 1327.19 L2054.92 1323.8 L2058.16 1320.39 L2061.4 1316.96 L2064.65 1313.53 L2067.89 1310.11 L2071.13 1306.69 L2074.37 1303.28 L2077.62 1299.9 L2080.86 1296.56 L2084.1 1293.25 L2087.35 1289.98 L2090.59 1286.78 L2093.83 1283.64 L2097.08 1280.58 L2100.32 1277.6 L2103.56 1274.72 L2106.8 1271.93 L2110.05 1269.27 L2113.29 1266.73 L2116.53 1264.32 L2119.78 1262.05 L2123.02 1259.94 L2126.26 1257.99 L2129.51 1256.21 L2132.75 1254.61 L2135.99 1253.19 L2139.23 1251.94 L2142.48 1250.84 L2145.72 1249.9 L2148.96 1249.11 L2152.21 1248.46 L2155.45 1247.94 L2158.69 1247.55 L2161.94 1247.28 L2165.18 1247.12 L2168.42 1247.07 L2171.67 1247.11 L2174.91 1247.25 L2178.15 1247.47 L2181.39 1247.78 L2184.64 1248.16 L2187.88 1248.6 L2191.12 1249.12 L2194.37 1249.69 L2197.61 1250.31 L2200.85 1250.99 L2204.1 1251.71 L2207.34 1252.47 L2210.58 1253.27 L2213.82 1254.1 L2217.07 1254.96 L2220.31 1255.85 L2223.55 1256.76 L2226.8 1257.69 L2230.04 1258.64 L2233.28 1259.6 L2236.53 1260.58 L2239.77 1261.57 L2243.01 1262.56 L2246.25 1263.56 L2249.5 1264.57 L2252.74 1265.58 L2255.98 1266.58 L2259.23 1267.59 L2262.47 1268.6 L2265.71 1269.6 L2268.96 1270.6 L2272.2 1271.59 L2275.44 1272.57 L2278.69 1273.55 L2281.93 1274.52 L2285.17 1275.48 L2288.41 1276.43 L2291.66 1277.36 L2291.66 469.631 L2288.41 473.866 L2285.17 478.154 L2281.93 482.493 L2278.69 486.885 L2275.44 491.328 L2272.2 495.822 L2268.96 500.367 L2265.71 504.962 L2262.47 509.606 L2259.23 514.299 L2255.98 519.039 L2252.74 523.826 L2249.5 528.659 L2246.25 533.536 L2243.01 538.456 L2239.77 543.418 L2236.53 548.421 L2233.28 553.462 L2230.04 558.54 L2226.8 563.652 L2223.55 568.797 L2220.31 573.973 L2217.07 579.176 L2213.82 584.405 L2210.58 589.656 L2207.34 594.927 L2204.1 600.213 L2200.85 605.513 L2197.61 610.821 L2194.37 616.135 L2191.12 621.45 L2187.88 626.761 L2184.64 632.065 L2181.39 637.356 L2178.15 642.63 L2174.91 647.881 L2171.67 653.104 L2168.42 658.292 L2165.18 663.441 L2161.94 668.544 L2158.69 673.596 L2155.45 678.588 L2152.21 683.516 L2148.96 688.372 L2145.72 693.15 L2142.48 697.843 L2139.23 702.444 L2135.99 706.948 L2132.75 711.348 L2129.51 715.637 L2126.26 719.812 L2123.02 723.878 L2119.78 727.842 L2116.53 731.714 L2113.29 735.499 L2110.05 739.208 L2106.8 742.847 L2103.56 746.424 L2100.32 749.949 L2097.08 753.428 L2093.83 756.87 L2090.59 760.282 L2087.35 763.672 L2084.1 767.046 L2080.86 770.411 L2077.62 773.775 L2074.37 777.143 L2071.13 780.521 L2067.89 783.914 L2064.65 787.329 L2061.4 790.77 L2058.16 794.241 L2054.92 797.748 L2051.67 801.293 L2048.43 804.88 L2045.19 808.513 L2041.94 812.194 L2038.7 815.926 L2035.46 819.711 L2032.21 823.552 L2028.97 827.448 L2025.73 831.403 L2022.49 835.417 L2019.24 839.489 L2016 843.621 L2012.76 847.813 L2009.51 852.064 L2006.27 856.373 L2003.03 860.74 L1999.78 865.163 L1996.54 869.641 L1993.3 874.171 L1990.06 878.752 L1986.81 883.381 L1983.57 888.054 L1980.33 892.769 L1977.08 897.522 L1973.84 902.309 L1970.6 907.125 L1967.35 911.967 L1964.11 916.829 L1960.87 921.705 L1957.63 926.589 L1954.38 931.477 L1951.14 936.36 L1947.9 941.231 L1944.65 946.084 L1941.41 950.91 L1938.17 955.701 L1934.92 960.448 L1931.68 965.142 L1928.44 969.773 L1925.19 974.331 L1921.95 978.806 L1918.71 983.186 L1915.47 987.46 L1912.22 991.617 L1908.98 995.645 L1905.74 999.531 L1902.49 1003.27 L1899.25 1006.85 L1896.01 1010.29 L1892.76 1013.59 L1889.52 1016.75 L1886.28 1019.78 L1883.04 1022.68 L1879.79 1025.45 L1876.55 1028.09 L1873.31 1030.61 L1870.06 1033 L1866.82 1035.28 L1863.58 1037.43 L1860.33 1039.46 L1857.09 1041.36 L1853.85 1043.15 L1850.61 1044.8 L1847.36 1046.33 L1844.12 1047.73 L1840.88 1049 L1837.63 1050.13 L1834.39 1051.13 L1831.15 1052 L1827.9 1052.76 L1824.66 1053.39 L1821.42 1053.92 L1818.17 1054.34 L1814.93 1054.64 L1811.69 1054.85 L1808.45 1054.95 L1805.2 1054.96 L1801.96 1054.86 L1798.72 1054.67 L1795.47 1054.37 L1792.23 1053.97 L1788.99 1053.48 L1785.74 1052.88 L1782.5 1052.18 L1779.26 1051.37 L1776.02 1050.45 L1772.77 1049.43 L1769.53 1048.33 L1766.29 1047.15 L1763.04 1045.91 L1759.8 1044.61 L1756.56 1043.26 L1753.31 1041.88 L1750.07 1040.47 L1746.83 1039.03 L1743.59 1037.59 L1740.34 1036.13 L1737.1 1034.68 L1733.86 1033.23 L1730.61 1031.79 L1727.37 1030.37 L1724.13 1028.97 L1720.88 1027.59 L1717.64 1026.24 L1714.4 1024.92 L1711.15 1023.63 L1707.91 1022.38 L1704.67 1021.16 L1701.43 1019.98 L1698.18 1018.83 L1694.94 1017.72 L1691.7 1016.64 L1688.45 1015.6 L1685.21 1014.59 L1681.97 1013.61 L1678.72 1012.65 L1675.48 1011.73 L1672.24 1010.82 L1669 1009.94 L1665.75 1009.07 L1662.51 1008.2 L1659.27 1007.34 L1656.02 1006.48 L1652.78 1005.62 L1649.54 1004.74 L1646.29 1003.85 L1643.05 1002.92 L1639.81 1001.97 L1636.57 1000.98 L1633.32 999.949 L1630.08 998.875 L1626.84 997.765 L1623.59 996.623 L1620.35 995.452 L1617.11 994.256 L1613.86 993.039 L1610.62 991.802 L1607.38 990.551 L1604.13 989.285 L1600.89 988.008 L1597.65 986.722 L1594.41 985.426 L1591.16 984.122 L1587.92 982.811 L1584.68 981.491 L1581.43 980.163 L1578.19 978.825 L1574.95 977.475 L1571.7 976.112 L1568.46 974.734 L1565.22 973.336 L1561.98 971.916 L1558.73 970.47 L1555.49 968.995 L1552.25 967.485 L1549 965.935 L1545.76 964.342 L1542.52 962.698 L1539.27 961.002 L1536.03 959.258 L1532.79 957.473 L1529.55 955.653 L1526.3 953.804 L1523.06 951.933 L1519.82 950.045 L1516.57 948.145 L1513.33 946.238 L1510.09 944.327 L1506.84 942.417 L1503.6 940.51 L1500.36 938.609 L1497.11 936.716 L1493.87 934.831 L1490.63 932.955 L1487.39 931.089 L1484.14 929.231 L1480.9 927.38 L1477.66 925.533 L1474.41 923.689 L1471.17 921.842 L1467.93 919.989 L1464.68 918.124 L1461.44 916.242 L1458.2 914.335 L1454.96 912.397 L1451.71 910.419 L1448.47 908.392 L1445.23 906.307 L1441.98 904.153 L1438.74 901.92 L1435.5 899.597 L1432.25 897.18 L1429.01 894.665 L1425.77 892.048 L1422.53 889.323 L1419.28 886.485 L1416.04 883.528 L1412.8 880.446 L1409.55 877.231 L1406.31 873.876 L1403.07 870.374 L1399.82 866.718 L1396.58 862.91 L1393.34 858.952 L1390.1 854.848 L1386.85 850.601 L1383.61 846.212 L1380.37 841.684 L1377.12 837.027 L1373.88 832.248 L1370.64 827.357 L1367.39 822.361 L1364.15 817.268 L1360.91 812.083 L1357.66 806.814 L1354.42 801.464 L1351.18 796.039 L1347.94 790.542 L1344.69 784.975 L1341.45 779.341 L1338.21 773.641 L1334.96 767.875 L1331.72 762.044 L1328.48 756.147 L1325.23 750.182 L1321.99 744.148 L1318.75 738.045 L1315.51 731.879 L1312.26 725.658 L1309.02 719.391 L1305.78 713.083 L1302.53 706.742 L1299.29 700.374 L1296.05 693.983 L1292.8 687.576 L1289.56 681.156 L1286.32 674.727 L1283.08 668.293 L1279.83 661.855 L1276.59 655.416 L1273.35 648.978 L1270.1 642.541 L1266.86 636.106 L1263.62 629.673 L1260.37 623.241 L1257.13 616.809 L1253.89 610.377 L1250.64 603.94 L1247.4 597.499 L1244.16 591.049 L1240.92 584.588 L1237.67 578.113 L1234.43 571.62 L1231.19 565.104 L1227.94 558.563 L1224.7 551.992 L1221.46 545.386 L1218.21 538.742 L1214.97 532.056 L1211.73 525.324 L1208.49 518.551 L1205.24 511.745 L1202 504.911 L1198.76 498.056 L1195.51 491.187 L1192.27 484.311 L1189.03 477.432 L1185.78 470.558 L1182.54 463.694 L1179.3 456.847 L1176.06 450.021 L1172.81 443.222 L1169.57 436.456 L1166.33 429.726 L1163.08 423.038 L1159.84 416.397 L1156.6 409.806 L1153.35 403.27 L1150.11 396.792 L1146.87 390.376 L1143.62 384.026 L1140.38 377.745 L1137.14 371.537 L1133.9 365.403 L1130.65 359.346 L1127.41 353.37 L1124.17 347.477 L1120.92 341.669 L1117.68 335.947 L1114.44 330.315 L1111.19 324.774 L1107.95 319.325 L1104.71 313.971 L1101.47 308.712 L1098.22 303.551 L1094.98 298.487 L1091.74 293.523 L1088.49 288.659 L1085.25 283.897 L1082.01 279.236 L1078.76 274.678 L1075.52 270.223 L1072.28 265.872 L1069.04 261.625 L1065.79 257.482 L1062.55 253.443 L1059.31 249.509 L1056.06 245.679 L1052.82 241.953 L1049.58 238.332 L1046.33 234.813 L1043.09 231.398 L1039.85 228.085 L1036.6 224.874 L1033.36 221.763 L1030.12 218.752 L1026.88 215.839 L1023.63 213.024 L1020.39 210.305 L1017.15 207.68 L1013.9 205.148 L1010.66 202.706 L1007.42 200.354 L1004.17 198.087 L1000.93 195.905 L997.688 193.804 L994.445 191.783 L991.202 189.837 L987.959 187.965 L984.716 186.162 L981.473 184.425 L978.23 182.751 L974.987 181.136 L971.744 179.577 L968.501 178.068 L965.258 176.606 L962.015 175.187 L958.772 173.806 L955.529 172.459 L952.286 171.141 L949.043 169.849 L945.8 168.578 L942.557 167.331 L939.314 166.111 L936.071 164.92 L932.828 163.761 L929.585 162.638 L926.342 161.551 L923.099 160.506 L919.856 159.502 L916.613 158.543 L913.37 157.629 L910.127 156.763 L906.884 155.944 L903.641 155.174 L900.398 154.453 L897.155 153.778 L893.911 153.151 L890.668 152.568 L887.425 152.029 L884.182 151.528 L880.939 151.065 L877.696 150.633 L874.453 150.228 L871.21 149.846 L867.967 149.478 L864.724 149.12 L861.481 148.762 L858.238 148.397 L854.995 148.016 L851.752 147.61 L848.509 147.168 L845.266 146.681 L842.023 146.138 L838.78 145.534 L835.537 144.864 L832.294 144.124 L829.051 143.308 L825.808 142.411 L822.565 141.426 L819.322 140.349 L816.079 139.174 L812.836 137.894 L809.593 136.506 L806.35 135.012 L803.107 133.425 L799.864 131.757 L796.621 130.024 L793.378 128.237 L790.135 126.409 L786.892 124.554 L783.648 122.682 L780.405 120.805 L777.162 118.931 L773.919 117.072 L770.676 115.235 L767.433 113.427 L764.19 111.657 L760.947 109.928 L757.704 108.247 L754.461 106.619 L751.218 105.045 L747.975 103.53 L744.732 102.076 L741.489 100.683 L738.246 99.3534 L735.003 98.0866 L731.76 96.8828 L728.517 95.7414 L725.274 94.6625 L722.031 93.6502 L718.788 92.7092 L715.545 91.8439 L712.302 91.0582 L709.059 90.3559 L705.816 89.74 L702.573 89.2132 L699.33 88.7777 L696.087 88.4352 L692.844 88.187 L689.601 88.0339 L686.358 87.9763 L683.115 88.014 L679.872 88.1467 L676.629 88.3733 L673.385 88.6928 L670.142 89.1036 L666.899 89.604 L663.656 90.1927 L660.413 90.871 L657.17 91.6406 L653.927 92.5032 L650.684 93.4597 L647.441 94.5112 L644.198 95.6578 L640.955 96.8996 L637.712 98.2358 L634.469 99.6655 L631.226 101.187 L627.983 102.798 L624.74 104.496 L621.497 106.276 L618.254 108.136 L615.011 110.071 L611.768 112.075 L608.525 114.142 L605.282 116.265 L602.039 118.438 L598.796 120.653 L595.553 122.902 L592.31 125.175 L589.067 127.463 L585.824 129.757 L582.581 132.046 L579.338 134.32 L576.095 136.568 L572.852 138.779 L569.609 140.943 L566.366 143.048 L563.122 145.084 L559.879 147.042 L556.636 148.913 L553.393 150.703 L550.15 152.421 L546.907 154.074 L543.664 155.671 L540.421 157.222 L537.178 158.735 L533.935 160.218 L530.692 161.679 L527.449 163.128 L524.206 164.57 L520.963 166.015 L517.72 167.468 L514.477 168.937 L511.234 170.428 L507.991 171.945 L504.748 173.495 L501.505 175.082 L498.262 176.711 L495.019 178.385 L491.776 180.109 L488.533 181.886 L485.29 183.717 L482.047 185.607 L478.804 187.556 L475.561 189.567 L472.318 191.642 L469.075 193.78 L465.832 195.984 L462.589 198.253 L459.346 200.587 L456.103 202.987 L452.859 205.452 L449.616 207.982 L446.373 210.575 L443.13 213.23 L439.887 215.946 L436.644 218.72 L433.401 221.551 L430.158 224.437 L426.915 227.374 L423.672 230.361 L420.429 233.392 L417.186 236.466 L413.943 239.579 L410.7 242.725 L407.457 245.901 L404.214 249.103 L400.971 252.325 L397.728 255.562 L394.485 258.808 L391.242 262.058 L387.999 265.305 L384.756 268.543 L381.513 271.764 L378.27 274.962 L375.027 278.129 L371.784 281.257 L368.541 284.338 L365.298 287.365 L362.055 290.327 L358.812 293.216 L355.569 296.022 L352.326 298.738 L349.083 301.352 L345.84 303.855 L342.596 306.237 L339.353 308.489 L336.11 310.6 L332.867 312.561 L329.624 314.361 L326.381 315.992 L323.138 317.442 L319.895 318.707 L316.652 319.789 L313.409 320.697 L310.166 321.436 L306.923 322.015 L303.68 322.441 L300.437 322.721 L297.194 322.862 L293.951 322.873 L290.708 322.759 L287.465 322.529 L284.222 322.189 L280.979 321.745 L277.736 321.205 L274.493 320.575 L271.25 319.861 L268.007 319.069 L264.764 318.205 L261.521 317.273 L258.278 316.28 L255.035 315.23  Z" fill="#3da44d" fill-rule="evenodd" fill-opacity="0.1"/>
<polyline clip-path="url(#clip702)" style="stroke:#3da44d; stroke-linecap:round; stroke-linejoin:round; stroke-width:8; stroke-opacity:1; fill:none" points="255.035,634.717 258.278,632.776 261.521,630.803 264.764,628.798 268.007,626.759 271.25,624.688 274.493,622.582 277.736,620.442 280.979,618.267 284.222,616.056 287.465,613.809 290.708,611.525 293.951,609.204 297.194,606.845 300.437,604.447 303.68,602.01 306.923,599.533 310.166,597.015 313.409,594.456 316.652,591.855 319.895,589.212 323.138,586.525 326.381,583.795 329.624,581.021 332.867,578.206 336.11,575.349 339.353,572.452 342.596,569.516 345.84,566.541 349.083,563.529 352.326,560.48 355.569,557.396 358.812,554.277 362.055,551.124 365.298,547.937 368.541,544.719 371.784,541.469 375.027,538.189 378.27,534.88 381.513,531.542 384.756,528.176 387.999,524.783 391.242,521.364 394.485,517.92 397.728,514.452 400.971,510.961 404.214,507.447 407.457,503.912 410.7,500.357 413.943,496.782 417.186,493.188 420.429,489.577 423.672,485.949 426.915,482.306 430.158,478.648 433.401,474.976 436.644,471.292 439.887,467.596 443.13,463.89 446.373,460.174 449.616,456.451 452.859,452.72 456.103,448.983 459.346,445.242 462.589,441.497 465.832,437.75 469.075,434.002 472.318,430.254 475.561,426.507 478.804,422.764 482.047,419.025 485.29,415.291 488.533,411.565 491.776,407.848 495.019,404.14 498.262,400.445 501.505,396.762 504.748,393.095 507.991,389.444 511.234,385.811 514.477,382.199 517.72,378.608 520.963,375.042 524.206,371.5 527.449,367.987 530.692,364.503 533.935,361.05 537.178,357.632 540.421,354.249 543.664,350.904 546.907,347.6 550.15,344.338 553.393,341.122 556.636,337.953 559.879,334.834 563.122,331.767 566.366,328.753 569.609,325.792 572.852,322.884 576.095,320.029 579.338,317.228 582.581,314.481 585.824,311.789 589.067,309.152 592.31,306.57 595.553,304.045 598.796,301.576 602.039,299.166 605.282,296.815 608.525,294.524 611.768,292.293 615.011,290.125 618.254,288.02 621.497,285.98 624.74,284.006 627.983,282.1 631.226,280.262 634.469,278.495 637.712,276.801 640.955,275.181 644.198,273.637 647.441,272.171 650.684,270.785 653.927,269.482 657.17,268.264 660.413,267.132 663.656,266.09 666.899,265.139 670.142,264.283 673.385,263.519 676.629,262.845 679.872,262.259 683.115,261.759 686.358,261.344 689.601,261.011 692.844,260.759 696.087,260.586 699.33,260.491 702.573,260.472 705.816,260.528 709.059,260.658 712.302,260.861 715.545,261.135 718.788,261.48 722.031,261.895 725.274,262.378 728.517,262.93 731.76,263.549 735.003,264.233 738.246,264.979 741.489,265.784 744.732,266.645 747.975,267.559 751.218,268.525 754.461,269.54 757.704,270.601 760.947,271.706 764.19,272.852 767.433,274.038 770.676,275.261 773.919,276.52 777.162,277.812 780.405,279.135 783.648,280.488 786.892,281.868 790.135,283.275 793.378,284.705 796.621,286.158 799.864,287.632 803.107,289.126 806.35,290.637 809.593,292.165 812.836,293.709 816.079,295.269 819.322,296.848 822.565,298.447 825.808,300.067 829.051,301.711 832.294,303.379 835.537,305.075 838.78,306.799 842.023,308.553 845.266,310.341 848.509,312.162 851.752,314.018 854.995,315.909 858.238,317.835 861.481,319.797 864.724,321.793 867.967,323.826 871.21,325.895 874.453,328.001 877.696,330.144 880.939,332.325 884.182,334.544 887.425,336.803 890.668,339.102 893.911,341.442 897.155,343.823 900.398,346.247 903.641,348.716 906.884,351.229 910.127,353.788 913.37,356.394 916.613,359.049 919.856,361.754 923.099,364.51 926.342,367.319 929.585,370.183 932.828,373.102 936.071,376.079 939.314,379.115 942.557,382.213 945.8,385.374 949.043,388.6 952.286,391.892 955.529,395.249 958.772,398.668 962.015,402.148 965.258,405.685 968.501,409.279 971.744,412.927 974.987,416.626 978.23,420.376 981.473,424.175 984.716,428.019 987.959,431.909 991.202,435.841 994.445,439.816 997.688,443.83 1000.93,447.883 1004.17,451.972 1007.42,456.098 1010.66,460.258 1013.9,464.45 1017.15,468.675 1020.39,472.93 1023.63,477.214 1026.88,481.527 1030.12,485.866 1033.36,490.232 1036.6,494.623 1039.85,499.038 1043.09,503.476 1046.33,507.937 1049.58,512.419 1052.82,516.921 1056.06,521.444 1059.31,525.985 1062.55,530.545 1065.79,535.123 1069.04,539.718 1072.28,544.329 1075.52,548.955 1078.76,553.598 1082.01,558.254 1085.25,562.925 1088.49,567.61 1091.74,572.307 1094.98,577.018 1098.22,581.741 1101.47,586.476 1104.71,591.222 1107.95,595.98 1111.19,600.748 1114.44,605.527 1117.68,610.317 1120.92,615.116 1124.17,619.926 1127.41,624.744 1130.65,629.572 1133.9,634.41 1137.14,639.256 1140.38,644.111 1143.62,648.975 1146.87,653.847 1150.11,658.727 1153.35,663.616 1156.6,668.513 1159.84,673.418 1163.08,678.332 1166.33,683.253 1169.57,688.182 1172.81,693.119 1176.06,698.064 1179.3,703.017 1182.54,707.978 1185.78,712.946 1189.03,717.923 1192.27,722.907 1195.51,727.9 1198.76,732.9 1202,737.908 1205.24,742.925 1208.49,747.95 1211.73,752.983 1214.97,758.024 1218.21,763.073 1221.46,768.13 1224.7,773.193 1227.94,778.261 1231.19,783.332 1234.43,788.407 1237.67,793.483 1240.92,798.56 1244.16,803.636 1247.4,808.711 1250.64,813.783 1253.89,818.851 1257.13,823.914 1260.37,828.97 1263.62,834.02 1266.86,839.061 1270.1,844.092 1273.35,849.112 1276.59,854.12 1279.83,859.114 1283.08,864.095 1286.32,869.059 1289.56,874.006 1292.8,878.934 1296.05,883.843 1299.29,888.731 1302.53,893.596 1305.78,898.437 1309.02,903.253 1312.26,908.043 1315.51,912.803 1318.75,917.535 1321.99,922.234 1325.23,926.901 1328.48,931.536 1331.72,936.137 1334.96,940.705 1338.21,945.24 1341.45,949.742 1344.69,954.21 1347.94,958.645 1351.18,963.045 1354.42,967.412 1357.66,971.744 1360.91,976.04 1364.15,980.302 1367.39,984.527 1370.64,988.716 1373.88,992.869 1377.12,996.983 1380.37,1001.06 1383.61,1005.1 1386.85,1009.1 1390.1,1013.05 1393.34,1016.97 1396.58,1020.84 1399.82,1024.66 1403.07,1028.44 1406.31,1032.17 1409.55,1035.85 1412.8,1039.48 1416.04,1043.07 1419.28,1046.62 1422.53,1050.12 1425.77,1053.59 1429.01,1057.01 1432.25,1060.39 1435.5,1063.74 1438.74,1067.05 1441.98,1070.33 1445.23,1073.57 1448.47,1076.77 1451.71,1079.94 1454.96,1083.08 1458.2,1086.18 1461.44,1089.25 1464.68,1092.29 1467.93,1095.3 1471.17,1098.28 1474.41,1101.22 1477.66,1104.13 1480.9,1107.01 1484.14,1109.86 1487.39,1112.68 1490.63,1115.46 1493.87,1118.22 1497.11,1120.94 1500.36,1123.63 1503.6,1126.28 1506.84,1128.91 1510.09,1131.5 1513.33,1134.05 1516.57,1136.58 1519.82,1139.06 1523.06,1141.52 1526.3,1143.93 1529.55,1146.31 1532.79,1148.65 1536.03,1150.95 1539.27,1153.22 1542.52,1155.44 1545.76,1157.62 1549,1159.77 1552.25,1161.87 1555.49,1163.94 1558.73,1165.97 1561.98,1167.96 1565.22,1169.93 1568.46,1171.86 1571.7,1173.76 1574.95,1175.63 1578.19,1177.47 1581.43,1179.29 1584.68,1181.07 1587.92,1182.83 1591.16,1184.57 1594.41,1186.28 1597.65,1187.96 1600.89,1189.63 1604.13,1191.26 1607.38,1192.88 1610.62,1194.48 1613.86,1196.05 1617.11,1197.6 1620.35,1199.13 1623.59,1200.64 1626.84,1202.13 1630.08,1203.6 1633.32,1205.05 1636.57,1206.47 1639.81,1207.88 1643.05,1209.27 1646.29,1210.64 1649.54,1211.98 1652.78,1213.31 1656.02,1214.62 1659.27,1215.91 1662.51,1217.18 1665.75,1218.43 1669,1219.66 1672.24,1220.87 1675.48,1222.06 1678.72,1223.24 1681.97,1224.39 1685.21,1225.51 1688.45,1226.62 1691.7,1227.71 1694.94,1228.77 1698.18,1229.81 1701.43,1230.82 1704.67,1231.82 1707.91,1232.78 1711.15,1233.72 1714.4,1234.63 1717.64,1235.52 1720.88,1236.37 1724.13,1237.19 1727.37,1237.99 1730.61,1238.75 1733.86,1239.47 1737.1,1240.16 1740.34,1240.82 1743.59,1241.44 1746.83,1242.01 1750.07,1242.55 1753.31,1243.04 1756.56,1243.49 1759.8,1243.89 1763.04,1244.24 1766.29,1244.54 1769.53,1244.79 1772.77,1244.98 1776.02,1245.12 1779.26,1245.2 1782.5,1245.22 1785.74,1245.18 1788.99,1245.08 1792.23,1244.92 1795.47,1244.71 1798.72,1244.44 1801.96,1244.12 1805.2,1243.75 1808.45,1243.32 1811.69,1242.85 1814.93,1242.32 1818.17,1241.75 1821.42,1241.12 1824.66,1240.45 1827.9,1239.73 1831.15,1238.97 1834.39,1238.16 1837.63,1237.3 1840.88,1236.4 1844.12,1235.45 1847.36,1234.45 1850.61,1233.41 1853.85,1232.31 1857.09,1231.17 1860.33,1229.97 1863.58,1228.72 1866.82,1227.41 1870.06,1226.05 1873.31,1224.62 1876.55,1223.14 1879.79,1221.59 1883.04,1219.98 1886.28,1218.3 1889.52,1216.55 1892.76,1214.73 1896.01,1212.83 1899.25,1210.86 1902.49,1208.81 1905.74,1206.68 1908.98,1204.47 1912.22,1202.17 1915.47,1199.8 1918.71,1197.35 1921.95,1194.83 1925.19,1192.25 1928.44,1189.6 1931.68,1186.88 1934.92,1184.11 1938.17,1181.28 1941.41,1178.4 1944.65,1175.47 1947.9,1172.49 1951.14,1169.46 1954.38,1166.4 1957.63,1163.29 1960.87,1160.14 1964.11,1156.95 1967.35,1153.73 1970.6,1150.48 1973.84,1147.21 1977.08,1143.9 1980.33,1140.56 1983.57,1137.21 1986.81,1133.83 1990.06,1130.43 1993.3,1127.01 1996.54,1123.58 1999.78,1120.13 2003.03,1116.67 2006.27,1113.2 2009.51,1109.72 2012.76,1106.23 2016,1102.74 2019.24,1099.23 2022.49,1095.73 2025.73,1092.22 2028.97,1088.71 2032.21,1085.21 2035.46,1081.7 2038.7,1078.2 2041.94,1074.7 2045.19,1071.21 2048.43,1067.72 2051.67,1064.24 2054.92,1060.77 2058.16,1057.31 2061.4,1053.87 2064.65,1050.43 2067.89,1047.01 2071.13,1043.6 2074.37,1040.21 2077.62,1036.84 2080.86,1033.48 2084.1,1030.15 2087.35,1026.83 2090.59,1023.53 2093.83,1020.26 2097.08,1017 2100.32,1013.77 2103.56,1010.57 2106.8,1007.39 2110.05,1004.24 2113.29,1001.11 2116.53,998.015 2119.78,994.946 2123.02,991.908 2126.26,988.9 2129.51,985.924 2132.75,982.98 2135.99,980.069 2139.23,977.19 2142.48,974.342 2145.72,971.526 2148.96,968.742 2152.21,965.989 2155.45,963.266 2158.69,960.574 2161.94,957.912 2165.18,955.281 2168.42,952.679 2171.67,950.107 2174.91,947.565 2178.15,945.051 2181.39,942.566 2184.64,940.11 2187.88,937.682 2191.12,935.283 2194.37,932.911 2197.61,930.567 2200.85,928.25 2204.1,925.96 2207.34,923.697 2210.58,921.461 2213.82,919.251 2217.07,917.067 2220.31,914.909 2223.55,912.777 2226.8,910.67 2230.04,908.589 2233.28,906.532 2236.53,904.5 2239.77,902.492 2243.01,900.508 2246.25,898.549 2249.5,896.613 2252.74,894.701 2255.98,892.811 2259.23,890.945 2262.47,889.102 2265.71,887.281 2268.96,885.482 2272.2,883.706 2275.44,881.951 2278.69,880.218 2281.93,878.506 2285.17,876.816 2288.41,875.146 2291.66,873.498 "/>
<path clip-path="url(#clip700)" d="M1953.46 302.578 L2280.8 302.578 L2280.8 95.2176 L1953.46 95.2176  Z" fill="#ffffff" fill-rule="evenodd" fill-opacity="1"/>
<polyline clip-path="url(#clip700)" style="stroke:#000000; stroke-linecap:round; stroke-linejoin:round; stroke-width:4; stroke-opacity:1; fill:none" points="1953.46,302.578 2280.8,302.578 2280.8,95.2176 1953.46,95.2176 1953.46,302.578 "/>
<polyline clip-path="url(#clip700)" style="stroke:#009af9; stroke-linecap:round; stroke-linejoin:round; stroke-width:4; stroke-opacity:1; fill:none" points="1977.44,147.058 2121.36,147.058 "/>
<path clip-path="url(#clip700)" d="M2152.76 131.051 L2152.76 138.412 L2161.53 138.412 L2161.53 141.722 L2152.76 141.722 L2152.76 155.796 Q2152.76 158.967 2153.61 159.87 Q2154.49 160.773 2157.16 160.773 L2161.53 160.773 L2161.53 164.338 L2157.16 164.338 Q2152.23 164.338 2150.35 162.509 Q2148.48 160.657 2148.48 155.796 L2148.48 141.722 L2145.35 141.722 L2145.35 138.412 L2148.48 138.412 L2148.48 131.051 L2152.76 131.051 Z" fill="#000000" fill-rule="nonzero" fill-opacity="1" /><path clip-path="url(#clip700)" d="M2182.16 142.393 Q2181.44 141.977 2180.58 141.791 Q2179.75 141.583 2178.73 141.583 Q2175.12 141.583 2173.17 143.944 Q2171.25 146.282 2171.25 150.68 L2171.25 164.338 L2166.97 164.338 L2166.97 138.412 L2171.25 138.412 L2171.25 142.44 Q2172.6 140.078 2174.75 138.944 Q2176.9 137.787 2179.98 137.787 Q2180.42 137.787 2180.95 137.856 Q2181.48 137.903 2182.13 138.018 L2182.16 142.393 Z" fill="#000000" fill-rule="nonzero" fill-opacity="1" /><path clip-path="url(#clip700)" d="M2186.18 154.106 L2186.18 138.412 L2190.44 138.412 L2190.44 153.944 Q2190.44 157.625 2191.88 159.476 Q2193.31 161.305 2196.18 161.305 Q2199.63 161.305 2201.62 159.106 Q2203.64 156.907 2203.64 153.111 L2203.64 138.412 L2207.9 138.412 L2207.9 164.338 L2203.64 164.338 L2203.64 160.356 Q2202.09 162.717 2200.03 163.875 Q2197.99 165.009 2195.28 165.009 Q2190.81 165.009 2188.5 162.231 Q2186.18 159.453 2186.18 154.106 M2196.9 137.787 L2196.9 137.787 Z" fill="#000000" fill-rule="nonzero" fill-opacity="1" /><path clip-path="url(#clip700)" d="M2220.88 131.051 L2220.88 138.412 L2229.66 138.412 L2229.66 141.722 L2220.88 141.722 L2220.88 155.796 Q2220.88 158.967 2221.74 159.87 Q2222.62 160.773 2225.28 160.773 L2229.66 160.773 L2229.66 164.338 L2225.28 164.338 Q2220.35 164.338 2218.48 162.509 Q2216.6 160.657 2216.6 155.796 L2216.6 141.722 L2213.48 141.722 L2213.48 138.412 L2216.6 138.412 L2216.6 131.051 L2220.88 131.051 Z" fill="#000000" fill-rule="nonzero" fill-opacity="1" /><path clip-path="url(#clip700)" d="M2256.81 148.689 L2256.81 164.338 L2252.55 164.338 L2252.55 148.828 Q2252.55 145.148 2251.11 143.319 Q2249.68 141.49 2246.81 141.49 Q2243.36 141.49 2241.37 143.69 Q2239.38 145.889 2239.38 149.685 L2239.38 164.338 L2235.1 164.338 L2235.1 128.319 L2239.38 128.319 L2239.38 142.44 Q2240.91 140.102 2242.97 138.944 Q2245.05 137.787 2247.76 137.787 Q2252.23 137.787 2254.52 140.565 Q2256.81 143.319 2256.81 148.689 Z" fill="#000000" fill-rule="nonzero" fill-opacity="1" /><circle clip-path="url(#clip700)" cx="2049.4" cy="198.898" r="20.48" fill="#e26f46" fill-rule="evenodd" fill-opacity="1" stroke="#000000" stroke-opacity="1" stroke-width="4.55111"/>
<path clip-path="url(#clip700)" d="M2164.26 194.187 L2164.26 180.159 L2168.52 180.159 L2168.52 216.178 L2164.26 216.178 L2164.26 212.289 Q2162.92 214.603 2160.86 215.738 Q2158.82 216.849 2155.95 216.849 Q2151.25 216.849 2148.29 213.099 Q2145.35 209.349 2145.35 203.238 Q2145.35 197.127 2148.29 193.377 Q2151.25 189.627 2155.95 189.627 Q2158.82 189.627 2160.86 190.761 Q2162.92 191.872 2164.26 194.187 M2149.75 203.238 Q2149.75 207.937 2151.67 210.622 Q2153.61 213.284 2156.99 213.284 Q2160.37 213.284 2162.32 210.622 Q2164.26 207.937 2164.26 203.238 Q2164.26 198.539 2162.32 195.877 Q2160.37 193.192 2156.99 193.192 Q2153.61 193.192 2151.67 195.877 Q2149.75 198.539 2149.75 203.238 Z" fill="#000000" fill-rule="nonzero" fill-opacity="1" /><path clip-path="url(#clip700)" d="M2189.08 203.145 Q2183.92 203.145 2181.92 204.326 Q2179.93 205.506 2179.93 208.354 Q2179.93 210.622 2181.42 211.965 Q2182.92 213.284 2185.49 213.284 Q2189.03 213.284 2191.16 210.784 Q2193.31 208.261 2193.31 204.094 L2193.31 203.145 L2189.08 203.145 M2197.57 201.386 L2197.57 216.178 L2193.31 216.178 L2193.31 212.242 Q2191.85 214.603 2189.68 215.738 Q2187.5 216.849 2184.36 216.849 Q2180.37 216.849 2178.01 214.627 Q2175.67 212.381 2175.67 208.631 Q2175.67 204.256 2178.59 202.034 Q2181.53 199.812 2187.34 199.812 L2193.31 199.812 L2193.31 199.395 Q2193.31 196.455 2191.37 194.858 Q2189.45 193.238 2185.95 193.238 Q2183.73 193.238 2181.62 193.77 Q2179.52 194.303 2177.57 195.367 L2177.57 191.432 Q2179.91 190.53 2182.11 190.09 Q2184.31 189.627 2186.39 189.627 Q2192.02 189.627 2194.79 192.543 Q2197.57 195.46 2197.57 201.386 Z" fill="#000000" fill-rule="nonzero" fill-opacity="1" /><path clip-path="url(#clip700)" d="M2210.56 182.891 L2210.56 190.252 L2219.33 190.252 L2219.33 193.562 L2210.56 193.562 L2210.56 207.636 Q2210.56 210.807 2211.42 211.71 Q2212.29 212.613 2214.96 212.613 L2219.33 212.613 L2219.33 216.178 L2214.96 216.178 Q2210.03 216.178 2208.15 214.349 Q2206.28 212.497 2206.28 207.636 L2206.28 193.562 L2203.15 193.562 L2203.15 190.252 L2206.28 190.252 L2206.28 182.891 L2210.56 182.891 Z" fill="#000000" fill-rule="nonzero" fill-opacity="1" /><path clip-path="url(#clip700)" d="M2236.72 203.145 Q2231.55 203.145 2229.56 204.326 Q2227.57 205.506 2227.57 208.354 Q2227.57 210.622 2229.05 211.965 Q2230.56 213.284 2233.13 213.284 Q2236.67 213.284 2238.8 210.784 Q2240.95 208.261 2240.95 204.094 L2240.95 203.145 L2236.72 203.145 M2245.21 201.386 L2245.21 216.178 L2240.95 216.178 L2240.95 212.242 Q2239.49 214.603 2237.32 215.738 Q2235.14 216.849 2231.99 216.849 Q2228.01 216.849 2225.65 214.627 Q2223.31 212.381 2223.31 208.631 Q2223.31 204.256 2226.23 202.034 Q2229.17 199.812 2234.98 199.812 L2240.95 199.812 L2240.95 199.395 Q2240.95 196.455 2239.01 194.858 Q2237.09 193.238 2233.59 193.238 Q2231.37 193.238 2229.26 193.77 Q2227.16 194.303 2225.21 195.367 L2225.21 191.432 Q2227.55 190.53 2229.75 190.09 Q2231.95 189.627 2234.03 189.627 Q2239.66 189.627 2242.43 192.543 Q2245.21 195.46 2245.21 201.386 Z" fill="#000000" fill-rule="nonzero" fill-opacity="1" /><polyline clip-path="url(#clip700)" style="stroke:#3da44d; stroke-linecap:round; stroke-linejoin:round; stroke-width:8; stroke-opacity:1; fill:none" points="1977.44,250.738 2121.36,250.738 "/>
<path clip-path="url(#clip700)" d="M2170.91 263.087 L2170.91 253.805 L2163.27 253.805 L2163.27 249.962 L2175.54 249.962 L2175.54 264.8 Q2172.83 266.721 2169.56 267.717 Q2166.3 268.689 2162.6 268.689 Q2154.49 268.689 2149.91 263.967 Q2145.35 259.221 2145.35 250.772 Q2145.35 242.3 2149.91 237.578 Q2154.49 232.833 2162.6 232.833 Q2165.98 232.833 2169.01 233.666 Q2172.06 234.499 2174.63 236.12 L2174.63 241.096 Q2172.04 238.897 2169.12 237.786 Q2166.21 236.675 2162.99 236.675 Q2156.65 236.675 2153.45 240.217 Q2150.28 243.758 2150.28 250.772 Q2150.28 257.763 2153.45 261.305 Q2156.65 264.846 2162.99 264.846 Q2165.47 264.846 2167.41 264.43 Q2169.36 263.99 2170.91 263.087 Z" fill="#000000" fill-rule="nonzero" fill-opacity="1" /><path clip-path="url(#clip700)" d="M2188.75 237.3 L2188.75 250.286 L2194.63 250.286 Q2197.9 250.286 2199.68 248.596 Q2201.46 246.907 2201.46 243.782 Q2201.46 240.68 2199.68 238.99 Q2197.9 237.3 2194.63 237.3 L2188.75 237.3 M2184.08 233.458 L2194.63 233.458 Q2200.44 233.458 2203.41 236.096 Q2206.39 238.712 2206.39 243.782 Q2206.39 248.897 2203.41 251.513 Q2200.44 254.129 2194.63 254.129 L2188.75 254.129 L2188.75 268.018 L2184.08 268.018 L2184.08 233.458 Z" fill="#000000" fill-rule="nonzero" fill-opacity="1" /></svg>
