<?xml version="1.0" encoding="utf-8"?>
<svg xmlns="http://www.w3.org/2000/svg" xmlns:xlink="http://www.w3.org/1999/xlink" width="600" height="400" viewBox="0 0 2400 1600">
<defs>
  <clipPath id="clip010">
    <rect x="0" y="0" width="2400" height="1600"/>
  </clipPath>
</defs>
<path clip-path="url(#clip010)" d="M0 1600 L2400 1600 L2400 0 L0 0  Z" fill="#ffffff" fill-rule="evenodd" fill-opacity="1"/>
<defs>
  <clipPath id="clip011">
    <rect x="480" y="0" width="1681" height="1600"/>
  </clipPath>
</defs>
<path clip-path="url(#clip010)" d="M193.936 1486.45 L2352.76 1486.45 L2352.76 47.2441 L193.936 47.2441  Z" fill="#ffffff" fill-rule="evenodd" fill-opacity="1"/>
<defs>
  <clipPath id="clip012">
    <rect x="193" y="47" width="2160" height="1440"/>
  </clipPath>
</defs>
<polyline clip-path="url(#clip012)" style="stroke:#000000; stroke-linecap:round; stroke-linejoin:round; stroke-width:2; stroke-opacity:0.1; fill:none" points="255.035,1486.45 255.035,47.2441 "/>
<polyline clip-path="url(#clip012)" style="stroke:#000000; stroke-linecap:round; stroke-linejoin:round; stroke-width:2; stroke-opacity:0.1; fill:none" points="579.338,1486.45 579.338,47.2441 "/>
<polyline clip-path="url(#clip012)" style="stroke:#000000; stroke-linecap:round; stroke-linejoin:round; stroke-width:2; stroke-opacity:0.1; fill:none" points="903.641,1486.45 903.641,47.2441 "/>
<polyline clip-path="url(#clip012)" style="stroke:#000000; stroke-linecap:round; stroke-linejoin:round; stroke-width:2; stroke-opacity:0.1; fill:none" points="1227.94,1486.45 1227.94,47.2441 "/>
<polyline clip-path="url(#clip012)" style="stroke:#000000; stroke-linecap:round; stroke-linejoin:round; stroke-width:2; stroke-opacity:0.1; fill:none" points="1552.25,1486.45 1552.25,47.2441 "/>
<polyline clip-path="url(#clip012)" style="stroke:#000000; stroke-linecap:round; stroke-linejoin:round; stroke-width:2; stroke-opacity:0.1; fill:none" points="1876.55,1486.45 1876.55,47.2441 "/>
<polyline clip-path="url(#clip012)" style="stroke:#000000; stroke-linecap:round; stroke-linejoin:round; stroke-width:2; stroke-opacity:0.1; fill:none" points="2200.85,1486.45 2200.85,47.2441 "/>
<polyline clip-path="url(#clip012)" style="stroke:#000000; stroke-linecap:round; stroke-linejoin:round; stroke-width:2; stroke-opacity:0.1; fill:none" points="193.936,1271.77 2352.76,1271.77 "/>
<polyline clip-path="url(#clip012)" style="stroke:#000000; stroke-linecap:round; stroke-linejoin:round; stroke-width:2; stroke-opacity:0.1; fill:none" points="193.936,1005.95 2352.76,1005.95 "/>
<polyline clip-path="url(#clip012)" style="stroke:#000000; stroke-linecap:round; stroke-linejoin:round; stroke-width:2; stroke-opacity:0.1; fill:none" points="193.936,740.127 2352.76,740.127 "/>
<polyline clip-path="url(#clip012)" style="stroke:#000000; stroke-linecap:round; stroke-linejoin:round; stroke-width:2; stroke-opacity:0.1; fill:none" points="193.936,474.304 2352.76,474.304 "/>
<polyline clip-path="url(#clip012)" style="stroke:#000000; stroke-linecap:round; stroke-linejoin:round; stroke-width:2; stroke-opacity:0.1; fill:none" points="193.936,208.481 2352.76,208.481 "/>
<polyline clip-path="url(#clip010)" style="stroke:#000000; stroke-linecap:round; stroke-linejoin:round; stroke-width:4; stroke-opacity:1; fill:none" points="193.936,1486.45 2352.76,1486.45 "/>
<polyline clip-path="url(#clip010)" style="stroke:#000000; stroke-linecap:round; stroke-linejoin:round; stroke-width:4; stroke-opacity:1; fill:none" points="255.035,1486.45 255.035,1467.55 "/>
<polyline clip-path="url(#clip010)" style="stroke:#000000; stroke-linecap:round; stroke-linejoin:round; stroke-width:4; stroke-opacity:1; fill:none" points="579.338,1486.45 579.338,1467.55 "/>
<polyline clip-path="url(#clip010)" style="stroke:#000000; stroke-linecap:round; stroke-linejoin:round; stroke-width:4; stroke-opacity:1; fill:none" points="903.641,1486.45 903.641,1467.55 "/>
<polyline clip-path="url(#clip010)" style="stroke:#000000; stroke-linecap:round; stroke-linejoin:round; stroke-width:4; stroke-opacity:1; fill:none" points="1227.94,1486.45 1227.94,1467.55 "/>
<polyline clip-path="url(#clip010)" style="stroke:#000000; stroke-linecap:round; stroke-linejoin:round; stroke-width:4; stroke-opacity:1; fill:none" points="1552.25,1486.45 1552.25,1467.55 "/>
<polyline clip-path="url(#clip010)" style="stroke:#000000; stroke-linecap:round; stroke-linejoin:round; stroke-width:4; stroke-opacity:1; fill:none" points="1876.55,1486.45 1876.55,1467.55 "/>
<polyline clip-path="url(#clip010)" style="stroke:#000000; stroke-linecap:round; stroke-linejoin:round; stroke-width:4; stroke-opacity:1; fill:none" points="2200.85,1486.45 2200.85,1467.55 "/>
<path clip-path="url(#clip010)" d="M255.035 1517.37 Q251.424 1517.37 249.595 1520.93 Q247.789 1524.47 247.789 1531.6 Q247.789 1538.71 249.595 1542.27 Q251.424 1545.82 255.035 1545.82 Q258.669 1545.82 260.474 1542.27 Q262.303 1538.71 262.303 1531.6 Q262.303 1524.47 260.474 1520.93 Q258.669 1517.37 255.035 1517.37 M255.035 1513.66 Q260.845 1513.66 263.9 1518.27 Q266.979 1522.85 266.979 1531.6 Q266.979 1540.33 263.9 1544.94 Q260.845 1549.52 255.035 1549.52 Q249.225 1549.52 246.146 1544.94 Q243.09 1540.33 243.09 1531.6 Q243.09 1522.85 246.146 1518.27 Q249.225 1513.66 255.035 1513.66 Z" fill="#000000" fill-rule="nonzero" fill-opacity="1" /><path clip-path="url(#clip010)" d="M569.72 1544.91 L577.358 1544.91 L577.358 1518.55 L569.048 1520.21 L569.048 1515.95 L577.312 1514.29 L581.988 1514.29 L581.988 1544.91 L589.627 1544.91 L589.627 1548.85 L569.72 1548.85 L569.72 1544.91 Z" fill="#000000" fill-rule="nonzero" fill-opacity="1" /><path clip-path="url(#clip010)" d="M898.293 1544.91 L914.613 1544.91 L914.613 1548.85 L892.668 1548.85 L892.668 1544.91 Q895.33 1542.16 899.914 1537.53 Q904.52 1532.88 905.701 1531.53 Q907.946 1529.01 908.826 1527.27 Q909.729 1525.51 909.729 1523.82 Q909.729 1521.07 907.784 1519.33 Q905.863 1517.6 902.761 1517.6 Q900.562 1517.6 898.108 1518.36 Q895.678 1519.13 892.9 1520.68 L892.9 1515.95 Q895.724 1514.82 898.178 1514.24 Q900.631 1513.66 902.668 1513.66 Q908.039 1513.66 911.233 1516.35 Q914.428 1519.03 914.428 1523.52 Q914.428 1525.65 913.617 1527.57 Q912.83 1529.47 910.724 1532.07 Q910.145 1532.74 907.043 1535.95 Q903.942 1539.15 898.293 1544.91 Z" fill="#000000" fill-rule="nonzero" fill-opacity="1" /><path clip-path="url(#clip010)" d="M1232.19 1530.21 Q1235.55 1530.93 1237.42 1533.2 Q1239.32 1535.47 1239.32 1538.8 Q1239.32 1543.92 1235.8 1546.72 Q1232.28 1549.52 1225.8 1549.52 Q1223.63 1549.52 1221.31 1549.08 Q1219.02 1548.66 1216.57 1547.81 L1216.57 1543.29 Q1218.51 1544.43 1220.83 1545.01 Q1223.14 1545.58 1225.66 1545.58 Q1230.06 1545.58 1232.35 1543.85 Q1234.67 1542.11 1234.67 1538.8 Q1234.67 1535.75 1232.52 1534.03 Q1230.39 1532.3 1226.57 1532.3 L1222.54 1532.3 L1222.54 1528.45 L1226.75 1528.45 Q1230.2 1528.45 1232.03 1527.09 Q1233.86 1525.7 1233.86 1523.11 Q1233.86 1520.45 1231.96 1519.03 Q1230.08 1517.6 1226.57 1517.6 Q1224.64 1517.6 1222.45 1518.01 Q1220.25 1518.43 1217.61 1519.31 L1217.61 1515.14 Q1220.27 1514.4 1222.58 1514.03 Q1224.92 1513.66 1226.98 1513.66 Q1232.31 1513.66 1235.41 1516.09 Q1238.51 1518.5 1238.51 1522.62 Q1238.51 1525.49 1236.87 1527.48 Q1235.22 1529.45 1232.19 1530.21 Z" fill="#000000" fill-rule="nonzero" fill-opacity="1" /><path clip-path="url(#clip010)" d="M1555.26 1518.36 L1543.45 1536.81 L1555.26 1536.81 L1555.26 1518.36 M1554.03 1514.29 L1559.91 1514.29 L1559.91 1536.81 L1564.84 1536.81 L1564.84 1540.7 L1559.91 1540.7 L1559.91 1548.85 L1555.26 1548.85 L1555.26 1540.7 L1539.65 1540.7 L1539.65 1536.19 L1554.03 1514.29 Z" fill="#000000" fill-rule="nonzero" fill-opacity="1" /><path clip-path="url(#clip010)" d="M1866.83 1514.29 L1885.18 1514.29 L1885.18 1518.22 L1871.11 1518.22 L1871.11 1526.7 Q1872.13 1526.35 1873.15 1526.19 Q1874.17 1526 1875.18 1526 Q1880.97 1526 1884.35 1529.17 Q1887.73 1532.34 1887.73 1537.76 Q1887.73 1543.34 1884.26 1546.44 Q1880.79 1549.52 1874.47 1549.52 Q1872.29 1549.52 1870.02 1549.15 Q1867.78 1548.78 1865.37 1548.04 L1865.37 1543.34 Q1867.45 1544.47 1869.67 1545.03 Q1871.9 1545.58 1874.37 1545.58 Q1878.38 1545.58 1880.72 1543.48 Q1883.05 1541.37 1883.05 1537.76 Q1883.05 1534.15 1880.72 1532.04 Q1878.38 1529.94 1874.37 1529.94 Q1872.5 1529.94 1870.62 1530.35 Q1868.77 1530.77 1866.83 1531.65 L1866.83 1514.29 Z" fill="#000000" fill-rule="nonzero" fill-opacity="1" /><path clip-path="url(#clip010)" d="M2201.26 1529.7 Q2198.11 1529.7 2196.26 1531.86 Q2194.43 1534.01 2194.43 1537.76 Q2194.43 1541.49 2196.26 1543.66 Q2198.11 1545.82 2201.26 1545.82 Q2204.41 1545.82 2206.23 1543.66 Q2208.09 1541.49 2208.09 1537.76 Q2208.09 1534.01 2206.23 1531.86 Q2204.41 1529.7 2201.26 1529.7 M2210.54 1515.05 L2210.54 1519.31 Q2208.78 1518.48 2206.98 1518.04 Q2205.19 1517.6 2203.43 1517.6 Q2198.8 1517.6 2196.35 1520.72 Q2193.92 1523.85 2193.57 1530.17 Q2194.94 1528.15 2197 1527.09 Q2199.06 1526 2201.54 1526 Q2206.74 1526 2209.75 1529.17 Q2212.79 1532.32 2212.79 1537.76 Q2212.79 1543.08 2209.64 1546.3 Q2206.49 1549.52 2201.26 1549.52 Q2195.26 1549.52 2192.09 1544.94 Q2188.92 1540.33 2188.92 1531.6 Q2188.92 1523.41 2192.81 1518.55 Q2196.7 1513.66 2203.25 1513.66 Q2205.01 1513.66 2206.79 1514.01 Q2208.6 1514.36 2210.54 1515.05 Z" fill="#000000" fill-rule="nonzero" fill-opacity="1" /><polyline clip-path="url(#clip010)" style="stroke:#000000; stroke-linecap:round; stroke-linejoin:round; stroke-width:4; stroke-opacity:1; fill:none" points="193.936,1486.45 193.936,47.2441 "/>
<polyline clip-path="url(#clip010)" style="stroke:#000000; stroke-linecap:round; stroke-linejoin:round; stroke-width:4; stroke-opacity:1; fill:none" points="193.936,1271.77 212.834,1271.77 "/>
<polyline clip-path="url(#clip010)" style="stroke:#000000; stroke-linecap:round; stroke-linejoin:round; stroke-width:4; stroke-opacity:1; fill:none" points="193.936,1005.95 212.834,1005.95 "/>
<polyline clip-path="url(#clip010)" style="stroke:#000000; stroke-linecap:round; stroke-linejoin:round; stroke-width:4; stroke-opacity:1; fill:none" points="193.936,740.127 212.834,740.127 "/>
<polyline clip-path="url(#clip010)" style="stroke:#000000; stroke-linecap:round; stroke-linejoin:round; stroke-width:4; stroke-opacity:1; fill:none" points="193.936,474.304 212.834,474.304 "/>
<polyline clip-path="url(#clip010)" style="stroke:#000000; stroke-linecap:round; stroke-linejoin:round; stroke-width:4; stroke-opacity:1; fill:none" points="193.936,208.481 212.834,208.481 "/>
<path clip-path="url(#clip010)" d="M50.9921 1272.22 L80.6679 1272.22 L80.6679 1276.16 L50.9921 1276.16 L50.9921 1272.22 Z" fill="#000000" fill-rule="nonzero" fill-opacity="1" /><path clip-path="url(#clip010)" d="M91.5706 1285.12 L99.2095 1285.12 L99.2095 1258.75 L90.8993 1260.42 L90.8993 1256.16 L99.1632 1254.49 L103.839 1254.49 L103.839 1285.12 L111.478 1285.12 L111.478 1289.05 L91.5706 1289.05 L91.5706 1285.12 Z" fill="#000000" fill-rule="nonzero" fill-opacity="1" /><path clip-path="url(#clip010)" d="M120.922 1283.17 L125.807 1283.17 L125.807 1289.05 L120.922 1289.05 L120.922 1283.17 Z" fill="#000000" fill-rule="nonzero" fill-opacity="1" /><path clip-path="url(#clip010)" d="M145.992 1257.57 Q142.381 1257.57 140.552 1261.14 Q138.746 1264.68 138.746 1271.81 Q138.746 1278.91 140.552 1282.48 Q142.381 1286.02 145.992 1286.02 Q149.626 1286.02 151.431 1282.48 Q153.26 1278.91 153.26 1271.81 Q153.26 1264.68 151.431 1261.14 Q149.626 1257.57 145.992 1257.57 M145.992 1253.87 Q151.802 1253.87 154.857 1258.47 Q157.936 1263.06 157.936 1271.81 Q157.936 1280.53 154.857 1285.14 Q151.802 1289.72 145.992 1289.72 Q140.181 1289.72 137.103 1285.14 Q134.047 1280.53 134.047 1271.81 Q134.047 1263.06 137.103 1258.47 Q140.181 1253.87 145.992 1253.87 Z" fill="#000000" fill-rule="nonzero" fill-opacity="1" /><path clip-path="url(#clip010)" d="M51.9875 1006.4 L81.6633 1006.4 L81.6633 1010.34 L51.9875 1010.34 L51.9875 1006.4 Z" fill="#000000" fill-rule="nonzero" fill-opacity="1" /><path clip-path="url(#clip010)" d="M101.756 991.748 Q98.1447 991.748 96.316 995.313 Q94.5104 998.855 94.5104 1005.98 Q94.5104 1013.09 96.316 1016.66 Q98.1447 1020.2 101.756 1020.2 Q105.39 1020.2 107.196 1016.66 Q109.024 1013.09 109.024 1005.98 Q109.024 998.855 107.196 995.313 Q105.39 991.748 101.756 991.748 M101.756 988.045 Q107.566 988.045 110.621 992.651 Q113.7 997.234 113.7 1005.98 Q113.7 1014.71 110.621 1019.32 Q107.566 1023.9 101.756 1023.9 Q95.9456 1023.9 92.8669 1019.32 Q89.8114 1014.71 89.8114 1005.98 Q89.8114 997.234 92.8669 992.651 Q95.9456 988.045 101.756 988.045 Z" fill="#000000" fill-rule="nonzero" fill-opacity="1" /><path clip-path="url(#clip010)" d="M121.918 1017.35 L126.802 1017.35 L126.802 1023.23 L121.918 1023.23 L121.918 1017.35 Z" fill="#000000" fill-rule="nonzero" fill-opacity="1" /><path clip-path="url(#clip010)" d="M137.033 988.67 L155.39 988.67 L155.39 992.605 L141.316 992.605 L141.316 1001.08 Q142.334 1000.73 143.353 1000.57 Q144.371 1000.38 145.39 1000.38 Q151.177 1000.38 154.556 1003.55 Q157.936 1006.73 157.936 1012.14 Q157.936 1017.72 154.464 1020.82 Q150.992 1023.9 144.672 1023.9 Q142.496 1023.9 140.228 1023.53 Q137.982 1023.16 135.575 1022.42 L135.575 1017.72 Q137.658 1018.85 139.881 1019.41 Q142.103 1019.97 144.58 1019.97 Q148.584 1019.97 150.922 1017.86 Q153.26 1015.75 153.26 1012.14 Q153.26 1008.53 150.922 1006.42 Q148.584 1004.32 144.58 1004.32 Q142.705 1004.32 140.83 1004.73 Q138.978 1005.15 137.033 1006.03 L137.033 988.67 Z" fill="#000000" fill-rule="nonzero" fill-opacity="1" /><path clip-path="url(#clip010)" d="M100.76 725.925 Q97.1493 725.925 95.3206 729.49 Q93.515 733.032 93.515 740.161 Q93.515 747.268 95.3206 750.833 Q97.1493 754.374 100.76 754.374 Q104.395 754.374 106.2 750.833 Q108.029 747.268 108.029 740.161 Q108.029 733.032 106.2 729.49 Q104.395 725.925 100.76 725.925 M100.76 722.222 Q106.571 722.222 109.626 726.828 Q112.705 731.411 112.705 740.161 Q112.705 748.888 109.626 753.495 Q106.571 758.078 100.76 758.078 Q94.9502 758.078 91.8715 753.495 Q88.816 748.888 88.816 740.161 Q88.816 731.411 91.8715 726.828 Q94.9502 722.222 100.76 722.222 Z" fill="#000000" fill-rule="nonzero" fill-opacity="1" /><path clip-path="url(#clip010)" d="M120.922 751.527 L125.807 751.527 L125.807 757.407 L120.922 757.407 L120.922 751.527 Z" fill="#000000" fill-rule="nonzero" fill-opacity="1" /><path clip-path="url(#clip010)" d="M145.992 725.925 Q142.381 725.925 140.552 729.49 Q138.746 733.032 138.746 740.161 Q138.746 747.268 140.552 750.833 Q142.381 754.374 145.992 754.374 Q149.626 754.374 151.431 750.833 Q153.26 747.268 153.26 740.161 Q153.26 733.032 151.431 729.49 Q149.626 725.925 145.992 725.925 M145.992 722.222 Q151.802 722.222 154.857 726.828 Q157.936 731.411 157.936 740.161 Q157.936 748.888 154.857 753.495 Q151.802 758.078 145.992 758.078 Q140.181 758.078 137.103 753.495 Q134.047 748.888 134.047 740.161 Q134.047 731.411 137.103 726.828 Q140.181 722.222 145.992 722.222 Z" fill="#000000" fill-rule="nonzero" fill-opacity="1" /><path clip-path="url(#clip010)" d="M101.756 460.102 Q98.1447 460.102 96.316 463.667 Q94.5104 467.209 94.5104 474.338 Q94.5104 481.445 96.316 485.01 Q98.1447 488.551 101.756 488.551 Q105.39 488.551 107.196 485.01 Q109.024 481.445 109.024 474.338 Q109.024 467.209 107.196 463.667 Q105.39 460.102 101.756 460.102 M101.756 456.399 Q107.566 456.399 110.621 461.005 Q113.7 465.588 113.7 474.338 Q113.7 483.065 110.621 487.672 Q107.566 492.255 101.756 492.255 Q95.9456 492.255 92.8669 487.672 Q89.8114 483.065 89.8114 474.338 Q89.8114 465.588 92.8669 461.005 Q95.9456 456.399 101.756 456.399 Z" fill="#000000" fill-rule="nonzero" fill-opacity="1" /><path clip-path="url(#clip010)" d="M121.918 485.704 L126.802 485.704 L126.802 491.584 L121.918 491.584 L121.918 485.704 Z" fill="#000000" fill-rule="nonzero" fill-opacity="1" /><path clip-path="url(#clip010)" d="M137.033 457.024 L155.39 457.024 L155.39 460.959 L141.316 460.959 L141.316 469.431 Q142.334 469.084 143.353 468.922 Q144.371 468.737 145.39 468.737 Q151.177 468.737 154.556 471.908 Q157.936 475.079 157.936 480.496 Q157.936 486.074 154.464 489.176 Q150.992 492.255 144.672 492.255 Q142.496 492.255 140.228 491.885 Q137.982 491.514 135.575 490.774 L135.575 486.074 Q137.658 487.209 139.881 487.764 Q142.103 488.32 144.58 488.32 Q148.584 488.32 150.922 486.213 Q153.26 484.107 153.26 480.496 Q153.26 476.885 150.922 474.778 Q148.584 472.672 144.58 472.672 Q142.705 472.672 140.83 473.088 Q138.978 473.505 137.033 474.385 L137.033 457.024 Z" fill="#000000" fill-rule="nonzero" fill-opacity="1" /><path clip-path="url(#clip010)" d="M91.5706 221.826 L99.2095 221.826 L99.2095 195.46 L90.8993 197.127 L90.8993 192.867 L99.1632 191.201 L103.839 191.201 L103.839 221.826 L111.478 221.826 L111.478 225.761 L91.5706 225.761 L91.5706 221.826 Z" fill="#000000" fill-rule="nonzero" fill-opacity="1" /><path clip-path="url(#clip010)" d="M120.922 219.881 L125.807 219.881 L125.807 225.761 L120.922 225.761 L120.922 219.881 Z" fill="#000000" fill-rule="nonzero" fill-opacity="1" /><path clip-path="url(#clip010)" d="M145.992 194.279 Q142.381 194.279 140.552 197.844 Q138.746 201.386 138.746 208.515 Q138.746 215.622 140.552 219.187 Q142.381 222.728 145.992 222.728 Q149.626 222.728 151.431 219.187 Q153.26 215.622 153.26 208.515 Q153.26 201.386 151.431 197.844 Q149.626 194.279 145.992 194.279 M145.992 190.576 Q151.802 190.576 154.857 195.182 Q157.936 199.766 157.936 208.515 Q157.936 217.242 154.857 221.849 Q151.802 226.432 145.992 226.432 Q140.181 226.432 137.103 221.849 Q134.047 217.242 134.047 208.515 Q134.047 199.766 137.103 195.182 Q140.181 190.576 145.992 190.576 Z" fill="#000000" fill-rule="nonzero" fill-opacity="1" /><polyline clip-path="url(#clip012)" style="stroke:#009af9; stroke-linecap:round; stroke-linejoin:round; stroke-width:4; stroke-opacity:1; fill:none" points="255.035,740.127 258.278,734.81 261.521,729.494 264.764,724.18 268.007,718.866 271.25,713.555 274.493,708.247 277.736,702.942 280.979,697.64 284.222,692.343 287.465,687.051 290.708,681.763 293.951,676.482 297.194,671.207 300.437,665.939 303.68,660.678 306.923,655.426 310.166,650.182 313.409,644.946 316.652,639.721 319.895,634.505 323.138,629.3 326.381,624.106 329.624,618.923 332.867,613.753 336.11,608.595 339.353,603.451 342.596,598.32 345.84,593.203 349.083,588.101 352.326,583.015 355.569,577.943 358.812,572.889 362.055,567.85 365.298,562.83 368.541,557.826 371.784,552.841 375.027,547.875 378.27,542.928 381.513,538.001 384.756,533.094 387.999,528.208 391.242,523.342 394.485,518.499 397.728,513.678 400.971,508.879 404.214,504.103 407.457,499.352 410.7,494.624 413.943,489.92 417.186,485.242 420.429,480.589 423.672,475.962 426.915,471.362 430.158,466.788 433.401,462.242 436.644,457.724 439.887,453.233 443.13,448.772 446.373,444.34 449.616,439.937 452.859,435.564 456.103,431.222 459.346,426.91 462.589,422.63 465.832,418.382 469.075,414.166 472.318,409.982 475.561,405.831 478.804,401.714 482.047,397.631 485.29,393.582 488.533,389.567 491.776,385.588 495.019,381.644 498.262,377.736 501.505,373.864 504.748,370.029 507.991,366.231 511.234,362.47 514.477,358.747 517.72,355.062 520.963,351.416 524.206,347.808 527.449,344.24 530.692,340.712 533.935,337.223 537.178,333.774 540.421,330.366 543.664,327 546.907,323.674 550.15,320.39 553.393,317.148 556.636,313.949 559.879,310.792 563.122,307.678 566.366,304.607 569.609,301.58 572.852,298.596 576.095,295.657 579.338,292.762 582.581,289.912 585.824,287.107 589.067,284.347 592.31,281.633 595.553,278.965 598.796,276.342 602.039,273.767 605.282,271.237 608.525,268.755 611.768,266.32 615.011,263.932 618.254,261.592 621.497,259.3 624.74,257.055 627.983,254.859 631.226,252.712 634.469,250.613 637.712,248.564 640.955,246.563 644.198,244.612 647.441,242.71 650.684,240.858 653.927,239.056 657.17,237.304 660.413,235.603 663.656,233.952 666.899,232.351 670.142,230.801 673.385,229.303 676.629,227.855 679.872,226.458 683.115,225.113 686.358,223.82 689.601,222.578 692.844,221.387 696.087,220.249 699.33,219.163 702.573,218.128 705.816,217.146 709.059,216.216 712.302,215.339 715.545,214.514 718.788,213.742 722.031,213.022 725.274,212.355 728.517,211.741 731.76,211.179 735.003,210.671 738.246,210.215 741.489,209.813 744.732,209.463 747.975,209.167 751.218,208.923 754.461,208.733 757.704,208.596 760.947,208.512 764.19,208.481 767.433,208.503 770.676,208.579 773.919,208.707 777.162,208.889 780.405,209.124 783.648,209.412 786.892,209.753 790.135,210.147 793.378,210.595 796.621,211.095 799.864,211.648 803.107,212.254 806.35,212.912 809.593,213.623 812.836,214.387 816.079,215.204 819.322,216.073 822.565,216.995 825.808,217.968 829.051,218.994 832.294,220.072 835.537,221.203 838.78,222.385 842.023,223.618 845.266,224.904 848.509,226.241 851.752,227.629 854.995,229.069 858.238,230.559 861.481,232.101 864.724,233.693 867.967,235.337 871.21,237.03 874.453,238.774 877.696,240.568 880.939,242.412 884.182,244.306 887.425,246.249 890.668,248.242 893.911,250.284 897.155,252.375 900.398,254.514 903.641,256.702 906.884,258.939 910.127,261.224 913.37,263.556 916.613,265.936 919.856,268.364 923.099,270.839 926.342,273.361 929.585,275.929 932.828,278.544 936.071,281.205 939.314,283.912 942.557,286.664 945.8,289.462 949.043,292.305 952.286,295.193 955.529,298.125 958.772,301.101 962.015,304.122 965.258,307.186 968.501,310.293 971.744,313.443 974.987,316.636 978.23,319.871 981.473,323.148 984.716,326.467 987.959,329.828 991.202,333.229 994.445,336.671 997.688,340.153 1000.93,343.676 1004.17,347.238 1007.42,350.839 1010.66,354.479 1013.9,358.158 1017.15,361.875 1020.39,365.63 1023.63,369.422 1026.88,373.251 1030.12,377.117 1033.36,381.019 1036.6,384.958 1039.85,388.931 1043.09,392.94 1046.33,396.984 1049.58,401.062 1052.82,405.173 1056.06,409.319 1059.31,413.497 1062.55,417.708 1065.79,421.951 1069.04,426.226 1072.28,430.533 1075.52,434.87 1078.76,439.238 1082.01,443.636 1085.25,448.064 1088.49,452.521 1091.74,457.007 1094.98,461.521 1098.22,466.062 1101.47,470.632 1104.71,475.228 1107.95,479.851 1111.19,484.499 1114.44,489.174 1117.68,493.873 1120.92,498.597 1124.17,503.345 1127.41,508.117 1130.65,512.912 1133.9,517.73 1137.14,522.57 1140.38,527.431 1143.62,532.314 1146.87,537.218 1150.11,542.142 1153.35,547.086 1156.6,552.049 1159.84,557.031 1163.08,562.032 1166.33,567.05 1169.57,572.085 1172.81,577.137 1176.06,582.206 1179.3,587.29 1182.54,592.39 1185.78,597.504 1189.03,602.633 1192.27,607.775 1195.51,612.931 1198.76,618.099 1202,623.28 1205.24,628.472 1208.49,633.675 1211.73,638.889 1214.97,644.113 1218.21,649.347 1221.46,654.59 1224.7,659.841 1227.94,665.101 1231.19,670.368 1234.43,675.642 1237.67,680.922 1240.92,686.208 1244.16,691.5 1247.4,696.796 1250.64,702.097 1253.89,707.402 1257.13,712.71 1260.37,718.02 1263.62,723.333 1266.86,728.648 1270.1,733.964 1273.35,739.28 1276.59,744.596 1279.83,749.912 1283.08,755.227 1286.32,760.541 1289.56,765.852 1292.8,771.161 1296.05,776.467 1299.29,781.769 1302.53,787.067 1305.78,792.36 1309.02,797.648 1312.26,802.93 1315.51,808.206 1318.75,813.476 1321.99,818.737 1325.23,823.991 1328.48,829.237 1331.72,834.474 1334.96,839.701 1338.21,844.918 1341.45,850.125 1344.69,855.321 1347.94,860.505 1351.18,865.678 1354.42,870.837 1357.66,875.984 1360.91,881.117 1364.15,886.236 1367.39,891.34 1370.64,896.43 1373.88,901.503 1377.12,906.561 1380.37,911.601 1383.61,916.625 1386.85,921.631 1390.1,926.619 1393.34,931.588 1396.58,936.538 1399.82,941.469 1403.07,946.379 1406.31,951.269 1409.55,956.137 1412.8,960.984 1416.04,965.809 1419.28,970.612 1422.53,975.391 1425.77,980.147 1429.01,984.878 1432.25,989.586 1435.5,994.268 1438.74,998.925 1441.98,1003.56 1445.23,1008.16 1448.47,1012.74 1451.71,1017.29 1454.96,1021.81 1458.2,1026.31 1461.44,1030.77 1464.68,1035.21 1467.93,1039.62 1471.17,1043.99 1474.41,1048.34 1477.66,1052.66 1480.9,1056.94 1484.14,1061.2 1487.39,1065.42 1490.63,1069.61 1493.87,1073.76 1497.11,1077.89 1500.36,1081.97 1503.6,1086.03 1506.84,1090.05 1510.09,1094.03 1513.33,1097.98 1516.57,1101.9 1519.82,1105.77 1523.06,1109.62 1526.3,1113.42 1529.55,1117.19 1532.79,1120.92 1536.03,1124.61 1539.27,1128.26 1542.52,1131.87 1545.76,1135.45 1549,1138.98 1552.25,1142.48 1555.49,1145.93 1558.73,1149.35 1561.98,1152.72 1565.22,1156.05 1568.46,1159.34 1571.7,1162.59 1574.95,1165.8 1578.19,1168.96 1581.43,1172.08 1584.68,1175.16 1587.92,1178.19 1591.16,1181.18 1594.41,1184.13 1597.65,1187.03 1600.89,1189.89 1604.13,1192.7 1607.38,1195.47 1610.62,1198.19 1613.86,1200.87 1617.11,1203.5 1620.35,1206.08 1623.59,1208.62 1626.84,1211.11 1630.08,1213.55 1633.32,1215.94 1636.57,1218.29 1639.81,1220.59 1643.05,1222.84 1646.29,1225.05 1649.54,1227.2 1652.78,1229.31 1656.02,1231.37 1659.27,1233.37 1662.51,1235.33 1665.75,1237.24 1669,1239.1 1672.24,1240.91 1675.48,1242.67 1678.72,1244.38 1681.97,1246.04 1685.21,1247.65 1688.45,1249.21 1691.7,1250.72 1694.94,1252.17 1698.18,1253.58 1701.43,1254.93 1704.67,1256.23 1707.91,1257.48 1711.15,1258.68 1714.4,1259.83 1717.64,1260.92 1720.88,1261.96 1724.13,1262.95 1727.37,1263.89 1730.61,1264.78 1733.86,1265.61 1737.1,1266.39 1740.34,1267.12 1743.59,1267.8 1746.83,1268.42 1750.07,1268.99 1753.31,1269.51 1756.56,1269.97 1759.8,1270.38 1763.04,1270.74 1766.29,1271.04 1769.53,1271.29 1772.77,1271.49 1776.02,1271.64 1779.26,1271.73 1782.5,1271.77 1785.74,1271.76 1788.99,1271.69 1792.23,1271.57 1795.47,1271.4 1798.72,1271.17 1801.96,1270.89 1805.2,1270.56 1808.45,1270.17 1811.69,1269.73 1814.93,1269.24 1818.17,1268.7 1821.42,1268.1 1824.66,1267.45 1827.9,1266.75 1831.15,1265.99 1834.39,1265.18 1837.63,1264.32 1840.88,1263.41 1844.12,1262.44 1847.36,1261.43 1850.61,1260.36 1853.85,1259.23 1857.09,1258.06 1860.33,1256.83 1863.58,1255.56 1866.82,1254.23 1870.06,1252.85 1873.31,1251.42 1876.55,1249.93 1879.79,1248.4 1883.04,1246.82 1886.28,1245.18 1889.52,1243.5 1892.76,1241.76 1896.01,1239.97 1899.25,1238.14 1902.49,1236.25 1905.74,1234.32 1908.98,1232.33 1912.22,1230.3 1915.47,1228.21 1918.71,1226.08 1921.95,1223.9 1925.19,1221.67 1928.44,1219.4 1931.68,1217.07 1934.92,1214.7 1938.17,1212.28 1941.41,1209.81 1944.65,1207.3 1947.9,1204.74 1951.14,1202.13 1954.38,1199.48 1957.63,1196.78 1960.87,1194.03 1964.11,1191.24 1967.35,1188.4 1970.6,1185.52 1973.84,1182.6 1977.08,1179.63 1980.33,1176.62 1983.57,1173.56 1986.81,1170.46 1990.06,1167.31 1993.3,1164.13 1996.54,1160.9 1999.78,1157.63 2003.03,1154.32 2006.27,1150.96 2009.51,1147.57 2012.76,1144.13 2016,1140.66 2019.24,1137.14 2022.49,1133.59 2025.73,1129.99 2028.97,1126.36 2032.21,1122.68 2035.46,1118.97 2038.7,1115.22 2041.94,1111.44 2045.19,1107.61 2048.43,1103.75 2051.67,1099.86 2054.92,1095.93 2058.16,1091.96 2061.4,1087.95 2064.65,1083.92 2067.89,1079.84 2071.13,1075.74 2074.37,1071.6 2077.62,1067.42 2080.86,1063.22 2084.1,1058.98 2087.35,1054.71 2090.59,1050.41 2093.83,1046.08 2097.08,1041.71 2100.32,1037.32 2103.56,1032.9 2106.8,1028.44 2110.05,1023.96 2113.29,1019.45 2116.53,1014.92 2119.78,1010.35 2123.02,1005.76 2126.26,1001.14 2129.51,996.496 2132.75,991.826 2135.99,987.13 2139.23,982.41 2142.48,977.666 2145.72,972.898 2148.96,968.107 2152.21,963.292 2155.45,958.456 2158.69,953.598 2161.94,948.718 2165.18,943.817 2168.42,938.897 2171.67,933.956 2174.91,928.996 2178.15,924.017 2181.39,919.019 2184.64,914.004 2187.88,908.971 2191.12,903.922 2194.37,898.856 2197.61,893.774 2200.85,888.677 2204.1,883.565 2207.34,878.438 2210.58,873.298 2213.82,868.145 2217.07,862.978 2220.31,857.8 2223.55,852.609 2226.8,847.408 2230.04,842.195 2233.28,836.973 2236.53,831.74 2239.77,826.499 2243.01,821.249 2246.25,815.991 2249.5,810.725 2252.74,805.452 2255.98,800.173 2259.23,794.887 2262.47,789.597 2265.71,784.301 2268.96,779.001 2272.2,773.696 2275.44,768.389 2278.69,763.079 2281.93,757.766 2285.17,752.452 2288.41,747.136 2291.66,741.82 "/>
<circle clip-path="url(#clip012)" cx="1467.93" cy="1005.79" r="14.4" fill="#e26f46" fill-rule="evenodd" fill-opacity="1" stroke="#000000" stroke-opacity="1" stroke-width="3.2"/>
<circle clip-path="url(#clip012)" cx="1594.41" cy="1065.45" r="14.4" fill="#e26f46" fill-rule="evenodd" fill-opacity="1" stroke="#000000" stroke-opacity="1" stroke-width="3.2"/>
<circle clip-path="url(#clip012)" cx="1302.53" cy="788.582" r="14.4" fill="#e26f46" fill-rule="evenodd" fill-opacity="1" stroke="#000000" stroke-opacity="1" stroke-width="3.2"/>
<circle clip-path="url(#clip012)" cx="495.019" cy="314.88" r="14.4" fill="#e26f46" fill-rule="evenodd" fill-opacity="1" stroke="#000000" stroke-opacity="1" stroke-width="3.2"/>
<circle clip-path="url(#clip012)" cx="420.429" cy="402.339" r="14.4" fill="#e26f46" fill-rule="evenodd" fill-opacity="1" stroke="#000000" stroke-opacity="1" stroke-width="3.2"/>
<circle clip-path="url(#clip012)" cx="2288.41" cy="851.538" r="14.4" fill="#e26f46" fill-rule="evenodd" fill-opacity="1" stroke="#000000" stroke-opacity="1" stroke-width="3.2"/>
<circle clip-path="url(#clip012)" cx="715.545" cy="308.088" r="14.4" fill="#e26f46" fill-rule="evenodd" fill-opacity="1" stroke="#000000" stroke-opacity="1" stroke-width="3.2"/>
<circle clip-path="url(#clip012)" cx="1441.98" cy="1081.18" r="14.4" fill="#e26f46" fill-rule="evenodd" fill-opacity="1" stroke="#000000" stroke-opacity="1" stroke-width="3.2"/>
<circle clip-path="url(#clip012)" cx="1753.31" cy="1283.65" r="14.4" fill="#e26f46" fill-rule="evenodd" fill-opacity="1" stroke="#000000" stroke-opacity="1" stroke-width="3.2"/>
<circle clip-path="url(#clip012)" cx="1179.3" cy="699.221" r="14.4" fill="#e26f46" fill-rule="evenodd" fill-opacity="1" stroke="#000000" stroke-opacity="1" stroke-width="3.2"/>
<circle clip-path="url(#clip012)" cx="1568.46" cy="1161.86" r="14.4" fill="#e26f46" fill-rule="evenodd" fill-opacity="1" stroke="#000000" stroke-opacity="1" stroke-width="3.2"/>
<circle clip-path="url(#clip012)" cx="799.864" cy="269.296" r="14.4" fill="#e26f46" fill-rule="evenodd" fill-opacity="1" stroke="#000000" stroke-opacity="1" stroke-width="3.2"/>
<circle clip-path="url(#clip012)" cx="2025.73" cy="1193.11" r="14.4" fill="#e26f46" fill-rule="evenodd" fill-opacity="1" stroke="#000000" stroke-opacity="1" stroke-width="3.2"/>
<circle clip-path="url(#clip012)" cx="1805.2" cy="1287.29" r="14.4" fill="#e26f46" fill-rule="evenodd" fill-opacity="1" stroke="#000000" stroke-opacity="1" stroke-width="3.2"/>
<circle clip-path="url(#clip012)" cx="712.302" cy="115.812" r="14.4" fill="#e26f46" fill-rule="evenodd" fill-opacity="1" stroke="#000000" stroke-opacity="1" stroke-width="3.2"/>
<circle clip-path="url(#clip012)" cx="631.226" cy="270.232" r="14.4" fill="#e26f46" fill-rule="evenodd" fill-opacity="1" stroke="#000000" stroke-opacity="1" stroke-width="3.2"/>
<circle clip-path="url(#clip012)" cx="2028.97" cy="1212.72" r="14.4" fill="#e26f46" fill-rule="evenodd" fill-opacity="1" stroke="#000000" stroke-opacity="1" stroke-width="3.2"/>
<circle clip-path="url(#clip012)" cx="2058.16" cy="1104.26" r="14.4" fill="#e26f46" fill-rule="evenodd" fill-opacity="1" stroke="#000000" stroke-opacity="1" stroke-width="3.2"/>
<circle clip-path="url(#clip012)" cx="1321.99" cy="844.53" r="14.4" fill="#e26f46" fill-rule="evenodd" fill-opacity="1" stroke="#000000" stroke-opacity="1" stroke-width="3.2"/>
<circle clip-path="url(#clip012)" cx="511.234" cy="242.735" r="14.4" fill="#e26f46" fill-rule="evenodd" fill-opacity="1" stroke="#000000" stroke-opacity="1" stroke-width="3.2"/>
<path clip-path="url(#clip012)" d="M255.035 924.026 L258.278 918.887 L261.521 913.687 L264.764 908.426 L268.007 903.105 L271.25 897.724 L274.493 892.282 L277.736 886.781 L280.979 881.22 L284.222 875.599 L287.465 869.92 L290.708 864.182 L293.951 858.387 L297.194 852.535 L300.437 846.626 L303.68 840.662 L306.923 834.643 L310.166 828.57 L313.409 822.445 L316.652 816.269 L319.895 810.043 L323.138 803.769 L326.381 797.448 L329.624 791.082 L332.867 784.673 L336.11 778.223 L339.353 771.734 L342.596 765.21 L345.84 758.651 L349.083 752.063 L352.326 745.446 L355.569 738.806 L358.812 732.144 L362.055 725.466 L365.298 718.775 L368.541 712.075 L371.784 705.371 L375.027 698.668 L378.27 691.972 L381.513 685.287 L384.756 678.62 L387.999 671.976 L391.242 665.364 L394.485 658.788 L397.728 652.258 L400.971 645.78 L404.214 639.362 L407.457 633.012 L410.7 626.74 L413.943 620.554 L417.186 614.463 L420.429 608.476 L423.672 602.601 L426.915 596.838 L430.158 591.187 L433.401 585.646 L436.644 580.215 L439.887 574.893 L443.13 569.679 L446.373 564.575 L449.616 559.581 L452.859 554.698 L456.103 549.928 L459.346 545.272 L462.589 540.734 L465.832 536.317 L469.075 532.024 L472.318 527.86 L475.561 523.83 L478.804 519.939 L482.047 516.192 L485.29 512.597 L488.533 509.16 L491.776 505.887 L495.019 502.786 L498.262 499.863 L501.505 497.115 L504.748 494.541 L507.991 492.138 L511.234 489.903 L514.477 487.832 L517.72 485.912 L520.963 484.128 L524.206 482.465 L527.449 480.909 L530.692 479.447 L533.935 478.065 L537.178 476.752 L540.421 475.496 L543.664 474.286 L546.907 473.112 L550.15 471.966 L553.393 470.837 L556.636 469.72 L559.879 468.607 L563.122 467.492 L566.366 466.37 L569.609 465.237 L572.852 464.089 L576.095 462.923 L579.338 461.737 L582.581 460.529 L585.824 459.299 L589.067 458.047 L592.31 456.773 L595.553 455.479 L598.796 454.167 L602.039 452.839 L605.282 451.498 L608.525 450.149 L611.768 448.796 L615.011 447.444 L618.254 446.099 L621.497 444.767 L624.74 443.454 L627.983 442.168 L631.226 440.917 L634.469 439.707 L637.712 438.538 L640.955 437.412 L644.198 436.327 L647.441 435.286 L650.684 434.289 L653.927 433.338 L657.17 432.437 L660.413 431.588 L663.656 430.797 L666.899 430.067 L670.142 429.404 L673.385 428.815 L676.629 428.308 L679.872 427.89 L683.115 427.571 L686.358 427.36 L689.601 427.268 L692.844 427.307 L696.087 427.487 L699.33 427.822 L702.573 428.325 L705.816 429.009 L709.059 429.889 L712.302 430.977 L715.545 432.286 L718.788 433.814 L722.031 435.554 L725.274 437.497 L728.517 439.633 L731.76 441.954 L735.003 444.451 L738.246 447.117 L741.489 449.945 L744.732 452.926 L747.975 456.056 L751.218 459.329 L754.461 462.739 L757.704 466.283 L760.947 469.957 L764.19 473.759 L767.433 477.685 L770.676 481.735 L773.919 485.908 L777.162 490.204 L780.405 494.622 L783.648 499.163 L786.892 503.829 L790.135 508.621 L793.378 513.541 L796.621 518.591 L799.864 523.774 L803.107 529.09 L806.35 534.53 L809.593 540.084 L812.836 545.743 L816.079 551.495 L819.322 557.332 L822.565 563.244 L825.808 569.222 L829.051 575.257 L832.294 581.341 L835.537 587.466 L838.78 593.625 L842.023 599.81 L845.266 606.014 L848.509 612.23 L851.752 618.453 L854.995 624.677 L858.238 630.894 L861.481 637.102 L864.724 643.293 L867.967 649.464 L871.21 655.609 L874.453 661.725 L877.696 667.808 L880.939 673.853 L884.182 679.857 L887.425 685.816 L890.668 691.728 L893.911 697.589 L897.155 703.396 L900.398 709.146 L903.641 714.838 L906.884 720.469 L910.127 726.035 L913.37 731.536 L916.613 736.969 L919.856 742.333 L923.099 747.625 L926.342 752.844 L929.585 757.988 L932.828 763.057 L936.071 768.048 L939.314 772.96 L942.557 777.793 L945.8 782.544 L949.043 787.214 L952.286 791.801 L955.529 796.305 L958.772 800.724 L962.015 805.058 L965.258 809.307 L968.501 813.469 L971.744 817.545 L974.987 821.534 L978.23 825.435 L981.473 829.248 L984.716 832.974 L987.959 836.611 L991.202 840.16 L994.445 843.62 L997.688 846.992 L1000.93 850.276 L1004.17 853.471 L1007.42 856.579 L1010.66 859.599 L1013.9 862.531 L1017.15 865.376 L1020.39 868.134 L1023.63 870.805 L1026.88 873.391 L1030.12 875.892 L1033.36 878.309 L1036.6 880.641 L1039.85 882.891 L1043.09 885.058 L1046.33 887.144 L1049.58 889.15 L1052.82 891.077 L1056.06 892.927 L1059.31 894.7 L1062.55 896.398 L1065.79 898.022 L1069.04 899.574 L1072.28 901.056 L1075.52 902.469 L1078.76 903.816 L1082.01 905.098 L1085.25 906.318 L1088.49 907.478 L1091.74 908.58 L1094.98 909.628 L1098.22 910.623 L1101.47 911.569 L1104.71 912.469 L1107.95 913.326 L1111.19 914.143 L1114.44 914.925 L1117.68 915.674 L1120.92 916.396 L1124.17 917.094 L1127.41 917.772 L1130.65 918.437 L1133.9 919.091 L1137.14 919.74 L1140.38 920.391 L1143.62 921.048 L1146.87 921.716 L1150.11 922.403 L1153.35 923.114 L1156.6 923.856 L1159.84 924.635 L1163.08 925.457 L1166.33 926.331 L1169.57 927.262 L1172.81 928.257 L1176.06 929.325 L1179.3 930.471 L1182.54 931.701 L1185.78 933.011 L1189.03 934.396 L1192.27 935.851 L1195.51 937.37 L1198.76 938.948 L1202 940.58 L1205.24 942.262 L1208.49 943.988 L1211.73 945.753 L1214.97 947.555 L1218.21 949.388 L1221.46 951.251 L1224.7 953.138 L1227.94 955.048 L1231.19 956.98 L1234.43 958.93 L1237.67 960.898 L1240.92 962.884 L1244.16 964.886 L1247.4 966.907 L1250.64 968.946 L1253.89 971.006 L1257.13 973.088 L1260.37 975.195 L1263.62 977.332 L1266.86 979.501 L1270.1 981.708 L1273.35 983.957 L1276.59 986.254 L1279.83 988.607 L1283.08 991.021 L1286.32 993.503 L1289.56 996.062 L1292.8 998.706 L1296.05 1001.44 L1299.29 1004.28 L1302.53 1007.23 L1305.78 1010.3 L1309.02 1013.48 L1312.26 1016.78 L1315.51 1020.19 L1318.75 1023.71 L1321.99 1027.34 L1325.23 1031.07 L1328.48 1034.89 L1331.72 1038.79 L1334.96 1042.76 L1338.21 1046.78 L1341.45 1050.85 L1344.69 1054.96 L1347.94 1059.08 L1351.18 1063.22 L1354.42 1067.36 L1357.66 1071.5 L1360.91 1075.63 L1364.15 1079.73 L1367.39 1083.81 L1370.64 1087.86 L1373.88 1091.86 L1377.12 1095.83 L1380.37 1099.74 L1383.61 1103.61 L1386.85 1107.42 L1390.1 1111.17 L1393.34 1114.87 L1396.58 1118.5 L1399.82 1122.08 L1403.07 1125.61 L1406.31 1129.07 L1409.55 1132.48 L1412.8 1135.84 L1416.04 1139.14 L1419.28 1142.4 L1422.53 1145.62 L1425.77 1148.8 L1429.01 1151.95 L1432.25 1155.07 L1435.5 1158.16 L1438.74 1161.25 L1441.98 1164.32 L1445.23 1167.39 L1448.47 1170.46 L1451.71 1173.53 L1454.96 1176.61 L1458.2 1179.69 L1461.44 1182.78 L1464.68 1185.88 L1467.93 1189 L1471.17 1192.13 L1474.41 1195.27 L1477.66 1198.42 L1480.9 1201.57 L1484.14 1204.71 L1487.39 1207.83 L1490.63 1210.94 L1493.87 1214.03 L1497.11 1217.09 L1500.36 1220.11 L1503.6 1223.11 L1506.84 1226.07 L1510.09 1228.99 L1513.33 1231.87 L1516.57 1234.72 L1519.82 1237.53 L1523.06 1240.3 L1526.3 1243.04 L1529.55 1245.74 L1532.79 1248.42 L1536.03 1251.07 L1539.27 1253.7 L1542.52 1256.31 L1545.76 1258.91 L1549 1261.5 L1552.25 1264.1 L1555.49 1266.7 L1558.73 1269.33 L1561.98 1271.97 L1565.22 1274.65 L1568.46 1277.37 L1571.7 1280.13 L1574.95 1282.94 L1578.19 1285.81 L1581.43 1288.73 L1584.68 1291.71 L1587.92 1294.74 L1591.16 1297.84 L1594.41 1301 L1597.65 1304.22 L1600.89 1307.5 L1604.13 1310.82 L1607.38 1314.18 L1610.62 1317.56 L1613.86 1320.96 L1617.11 1324.36 L1620.35 1327.77 L1623.59 1331.16 L1626.84 1334.53 L1630.08 1337.88 L1633.32 1341.19 L1636.57 1344.46 L1639.81 1347.69 L1643.05 1350.87 L1646.29 1353.99 L1649.54 1357.04 L1652.78 1360.03 L1656.02 1362.95 L1659.27 1365.8 L1662.51 1368.57 L1665.75 1371.25 L1669 1373.86 L1672.24 1376.38 L1675.48 1378.82 L1678.72 1381.17 L1681.97 1383.43 L1685.21 1385.61 L1688.45 1387.7 L1691.7 1389.7 L1694.94 1391.62 L1698.18 1393.45 L1701.43 1395.2 L1704.67 1396.88 L1707.91 1398.47 L1711.15 1399.99 L1714.4 1401.44 L1717.64 1402.82 L1720.88 1404.14 L1724.13 1405.41 L1727.37 1406.62 L1730.61 1407.78 L1733.86 1408.9 L1737.1 1409.99 L1740.34 1411.04 L1743.59 1412.08 L1746.83 1413.1 L1750.07 1414.1 L1753.31 1415.11 L1756.56 1416.12 L1759.8 1417.14 L1763.04 1418.16 L1766.29 1419.18 L1769.53 1420.21 L1772.77 1421.25 L1776.02 1422.28 L1779.26 1423.33 L1782.5 1424.37 L1785.74 1425.42 L1788.99 1426.48 L1792.23 1427.54 L1795.47 1428.61 L1798.72 1429.68 L1801.96 1430.76 L1805.2 1431.85 L1808.45 1432.94 L1811.69 1434.03 L1814.93 1435.11 L1818.17 1436.17 L1821.42 1437.22 L1824.66 1438.23 L1827.9 1439.2 L1831.15 1440.13 L1834.39 1441.01 L1837.63 1441.83 L1840.88 1442.59 L1844.12 1443.28 L1847.36 1443.89 L1850.61 1444.42 L1853.85 1444.87 L1857.09 1445.22 L1860.33 1445.49 L1863.58 1445.65 L1866.82 1445.72 L1870.06 1445.67 L1873.31 1445.52 L1876.55 1445.26 L1879.79 1444.89 L1883.04 1444.39 L1886.28 1443.78 L1889.52 1443.05 L1892.76 1442.2 L1896.01 1441.23 L1899.25 1440.13 L1902.49 1438.9 L1905.74 1437.55 L1908.98 1436.08 L1912.22 1434.47 L1915.47 1432.74 L1918.71 1430.89 L1921.95 1428.91 L1925.19 1426.81 L1928.44 1424.58 L1931.68 1422.23 L1934.92 1419.76 L1938.17 1417.17 L1941.41 1414.47 L1944.65 1411.65 L1947.9 1408.72 L1951.14 1405.69 L1954.38 1402.55 L1957.63 1399.32 L1960.87 1395.99 L1964.11 1392.57 L1967.35 1389.07 L1970.6 1385.5 L1973.84 1381.86 L1977.08 1378.15 L1980.33 1374.39 L1983.57 1370.59 L1986.81 1366.75 L1990.06 1362.89 L1993.3 1359.01 L1996.54 1355.13 L1999.78 1351.26 L2003.03 1347.42 L2006.27 1343.61 L2009.51 1339.85 L2012.76 1336.16 L2016 1332.55 L2019.24 1329.03 L2022.49 1325.63 L2025.73 1322.35 L2028.97 1319.2 L2032.21 1316.21 L2035.46 1313.35 L2038.7 1310.65 L2041.94 1308.08 L2045.19 1305.66 L2048.43 1303.38 L2051.67 1301.23 L2054.92 1299.22 L2058.16 1297.34 L2061.4 1295.59 L2064.65 1293.95 L2067.89 1292.41 L2071.13 1290.95 L2074.37 1289.57 L2077.62 1288.25 L2080.86 1286.98 L2084.1 1285.75 L2087.35 1284.54 L2090.59 1283.35 L2093.83 1282.17 L2097.08 1280.98 L2100.32 1279.78 L2103.56 1278.57 L2106.8 1277.32 L2110.05 1276.05 L2113.29 1274.74 L2116.53 1273.39 L2119.78 1271.99 L2123.02 1270.54 L2126.26 1269.04 L2129.51 1267.48 L2132.75 1265.86 L2135.99 1264.18 L2139.23 1262.43 L2142.48 1260.62 L2145.72 1258.75 L2148.96 1256.8 L2152.21 1254.79 L2155.45 1252.71 L2158.69 1250.56 L2161.94 1248.35 L2165.18 1246.07 L2168.42 1243.73 L2171.67 1241.32 L2174.91 1238.86 L2178.15 1236.33 L2181.39 1233.75 L2184.64 1231.11 L2187.88 1228.42 L2191.12 1225.68 L2194.37 1222.9 L2197.61 1220.08 L2200.85 1217.22 L2204.1 1214.33 L2207.34 1211.41 L2210.58 1208.47 L2213.82 1205.51 L2217.07 1202.54 L2220.31 1199.56 L2223.55 1196.58 L2226.8 1193.61 L2230.04 1190.65 L2233.28 1187.72 L2236.53 1184.81 L2239.77 1181.93 L2243.01 1179.1 L2246.25 1176.33 L2249.5 1173.61 L2252.74 1170.96 L2255.98 1168.39 L2259.23 1165.91 L2262.47 1163.53 L2265.71 1161.26 L2268.96 1159.1 L2272.2 1157.07 L2275.44 1155.17 L2278.69 1153.42 L2281.93 1151.83 L2285.17 1150.41 L2288.41 1149.16 L2291.66 1148.09 L2291.66 615.486 L2288.41 619.392 L2285.17 623.203 L2281.93 626.924 L2278.69 630.563 L2275.44 634.127 L2272.2 637.625 L2268.96 641.064 L2265.71 644.453 L2262.47 647.799 L2259.23 651.111 L2255.98 654.397 L2252.74 657.665 L2249.5 660.921 L2246.25 664.174 L2243.01 667.431 L2239.77 670.698 L2236.53 673.983 L2233.28 677.292 L2230.04 680.63 L2226.8 684.004 L2223.55 687.419 L2220.31 690.881 L2217.07 694.394 L2213.82 697.962 L2210.58 701.591 L2207.34 705.283 L2204.1 709.043 L2200.85 712.873 L2197.61 716.777 L2194.37 720.757 L2191.12 724.815 L2187.88 728.954 L2184.64 733.175 L2181.39 737.479 L2178.15 741.868 L2174.91 746.342 L2171.67 750.902 L2168.42 755.547 L2165.18 760.279 L2161.94 765.095 L2158.69 769.996 L2155.45 774.979 L2152.21 780.045 L2148.96 785.19 L2145.72 790.412 L2142.48 795.709 L2139.23 801.079 L2135.99 806.517 L2132.75 812.019 L2129.51 817.582 L2126.26 823.202 L2123.02 828.871 L2119.78 834.586 L2116.53 840.34 L2113.29 846.125 L2110.05 851.935 L2106.8 857.762 L2103.56 863.598 L2100.32 869.432 L2097.08 875.255 L2093.83 881.056 L2090.59 886.824 L2087.35 892.547 L2084.1 898.211 L2080.86 903.803 L2077.62 909.309 L2074.37 914.713 L2071.13 919.999 L2067.89 925.151 L2064.65 930.151 L2061.4 934.983 L2058.16 939.628 L2054.92 944.07 L2051.67 948.298 L2048.43 952.303 L2045.19 956.075 L2041.94 959.606 L2038.7 962.887 L2035.46 965.91 L2032.21 968.666 L2028.97 971.148 L2025.73 973.352 L2022.49 975.285 L2019.24 976.961 L2016 978.402 L2012.76 979.625 L2009.51 980.649 L2006.27 981.493 L2003.03 982.176 L1999.78 982.715 L1996.54 983.127 L1993.3 983.428 L1990.06 983.634 L1986.81 983.76 L1983.57 983.819 L1980.33 983.824 L1977.08 983.788 L1973.84 983.723 L1970.6 983.637 L1967.35 983.543 L1964.11 983.447 L1960.87 983.36 L1957.63 983.288 L1954.38 983.238 L1951.14 983.218 L1947.9 983.232 L1944.65 983.285 L1941.41 983.384 L1938.17 983.531 L1934.92 983.731 L1931.68 983.986 L1928.44 984.3 L1925.19 984.675 L1921.95 985.113 L1918.71 985.615 L1915.47 986.182 L1912.22 986.815 L1908.98 987.515 L1905.74 988.281 L1902.49 989.114 L1899.25 990.012 L1896.01 990.974 L1892.76 991.999 L1889.52 993.085 L1886.28 994.23 L1883.04 995.431 L1879.79 996.686 L1876.55 997.991 L1873.31 999.342 L1870.06 1000.74 L1866.82 1002.17 L1863.58 1003.63 L1860.33 1005.12 L1857.09 1006.64 L1853.85 1008.17 L1850.61 1009.71 L1847.36 1011.25 L1844.12 1012.79 L1840.88 1014.31 L1837.63 1015.82 L1834.39 1017.29 L1831.15 1018.73 L1827.9 1020.11 L1824.66 1021.44 L1821.42 1022.7 L1818.17 1023.88 L1814.93 1024.97 L1811.69 1025.95 L1808.45 1026.83 L1805.2 1027.57 L1801.96 1028.18 L1798.72 1028.66 L1795.47 1029 L1792.23 1029.2 L1788.99 1029.28 L1785.74 1029.22 L1782.5 1029.03 L1779.26 1028.72 L1776.02 1028.27 L1772.77 1027.69 L1769.53 1026.99 L1766.29 1026.15 L1763.04 1025.19 L1759.8 1024.09 L1756.56 1022.87 L1753.31 1021.51 L1750.07 1020.01 L1746.83 1018.4 L1743.59 1016.68 L1740.34 1014.86 L1737.1 1012.95 L1733.86 1010.98 L1730.61 1008.93 L1727.37 1006.84 L1724.13 1004.7 L1720.88 1002.54 L1717.64 1000.35 L1714.4 998.142 L1711.15 995.932 L1707.91 993.724 L1704.67 991.525 L1701.43 989.341 L1698.18 987.18 L1694.94 985.046 L1691.7 982.944 L1688.45 980.88 L1685.21 978.856 L1681.97 976.878 L1678.72 974.946 L1675.48 973.066 L1672.24 971.237 L1669 969.461 L1665.75 967.741 L1662.51 966.075 L1659.27 964.464 L1656.02 962.908 L1652.78 961.405 L1649.54 959.953 L1646.29 958.551 L1643.05 957.196 L1639.81 955.885 L1636.57 954.614 L1633.32 953.378 L1630.08 952.174 L1626.84 950.995 L1623.59 949.836 L1620.35 948.69 L1617.11 947.552 L1613.86 946.412 L1610.62 945.264 L1607.38 944.099 L1604.13 942.909 L1600.89 941.684 L1597.65 940.416 L1594.41 939.094 L1591.16 937.711 L1587.92 936.263 L1584.68 934.745 L1581.43 933.156 L1578.19 931.492 L1574.95 929.749 L1571.7 927.925 L1568.46 926.015 L1565.22 924.018 L1561.98 921.94 L1558.73 919.791 L1555.49 917.578 L1552.25 915.309 L1549 912.991 L1545.76 910.633 L1542.52 908.239 L1539.27 905.816 L1536.03 903.37 L1532.79 900.904 L1529.55 898.423 L1526.3 895.93 L1523.06 893.428 L1519.82 890.917 L1516.57 888.4 L1513.33 885.876 L1510.09 883.345 L1506.84 880.805 L1503.6 878.255 L1500.36 875.691 L1497.11 873.111 L1493.87 870.51 L1490.63 867.882 L1487.39 865.223 L1484.14 862.527 L1480.9 859.786 L1477.66 856.993 L1474.41 854.14 L1471.17 851.22 L1467.93 848.224 L1464.68 845.144 L1461.44 841.978 L1458.2 838.726 L1454.96 835.387 L1451.71 831.958 L1448.47 828.439 L1445.23 824.828 L1441.98 821.123 L1438.74 817.325 L1435.5 813.442 L1432.25 809.485 L1429.01 805.465 L1425.77 801.393 L1422.53 797.278 L1419.28 793.13 L1416.04 788.958 L1412.8 784.769 L1409.55 780.572 L1406.31 776.373 L1403.07 772.178 L1399.82 767.994 L1396.58 763.826 L1393.34 759.677 L1390.1 755.551 L1386.85 751.451 L1383.61 747.379 L1380.37 743.336 L1377.12 739.324 L1373.88 735.343 L1370.64 731.39 L1367.39 727.466 L1364.15 723.568 L1360.91 719.693 L1357.66 715.838 L1354.42 711.998 L1351.18 708.168 L1347.94 704.344 L1344.69 700.518 L1341.45 696.684 L1338.21 692.835 L1334.96 688.963 L1331.72 685.06 L1328.48 681.117 L1325.23 677.125 L1321.99 673.075 L1318.75 668.96 L1315.51 664.779 L1312.26 660.53 L1309.02 656.214 L1305.78 651.83 L1302.53 647.38 L1299.29 642.864 L1296.05 638.288 L1292.8 633.659 L1289.56 628.986 L1286.32 624.275 L1283.08 619.532 L1279.83 614.765 L1276.59 609.979 L1273.35 605.179 L1270.1 600.372 L1266.86 595.56 L1263.62 590.748 L1260.37 585.939 L1257.13 581.137 L1253.89 576.343 L1250.64 571.558 L1247.4 566.784 L1244.16 562.022 L1240.92 557.27 L1237.67 552.529 L1234.43 547.796 L1231.19 543.071 L1227.94 538.351 L1224.7 533.633 L1221.46 528.914 L1218.21 524.19 L1214.97 519.457 L1211.73 514.711 L1208.49 509.946 L1205.24 505.158 L1202 500.341 L1198.76 495.489 L1195.51 490.596 L1192.27 485.656 L1189.03 480.663 L1185.78 475.611 L1182.54 470.493 L1179.3 465.302 L1176.06 460.036 L1172.81 454.697 L1169.57 449.293 L1166.33 443.829 L1163.08 438.311 L1159.84 432.746 L1156.6 427.14 L1153.35 421.499 L1150.11 415.828 L1146.87 410.134 L1143.62 404.421 L1140.38 398.696 L1137.14 392.963 L1133.9 387.227 L1130.65 381.493 L1127.41 375.766 L1124.17 370.049 L1120.92 364.347 L1117.68 358.663 L1114.44 353.002 L1111.19 347.366 L1107.95 341.76 L1104.71 336.186 L1101.47 330.646 L1098.22 325.145 L1094.98 319.684 L1091.74 314.267 L1088.49 308.894 L1085.25 303.569 L1082.01 298.294 L1078.76 293.07 L1075.52 287.9 L1072.28 282.784 L1069.04 277.725 L1065.79 272.725 L1062.55 267.784 L1059.31 262.903 L1056.06 258.085 L1052.82 253.331 L1049.58 248.64 L1046.33 244.016 L1043.09 239.457 L1039.85 234.966 L1036.6 230.543 L1033.36 226.189 L1030.12 221.905 L1026.88 217.691 L1023.63 213.548 L1020.39 209.477 L1017.15 205.478 L1013.9 201.552 L1010.66 197.699 L1007.42 193.92 L1004.17 190.215 L1000.93 186.585 L997.688 183.03 L994.445 179.55 L991.202 176.146 L987.959 172.818 L984.716 169.567 L981.473 166.392 L978.23 163.294 L974.987 160.273 L971.744 157.329 L968.501 154.463 L965.258 151.674 L962.015 148.963 L958.772 146.33 L955.529 143.775 L952.286 141.297 L949.043 138.898 L945.8 136.577 L942.557 134.334 L939.314 132.169 L936.071 130.082 L932.828 128.072 L929.585 126.14 L926.342 124.286 L923.099 122.508 L919.856 120.808 L916.613 119.184 L913.37 117.636 L910.127 116.164 L906.884 114.767 L903.641 113.445 L900.398 112.196 L897.155 111.021 L893.911 109.918 L890.668 108.887 L887.425 107.926 L884.182 107.034 L880.939 106.211 L877.696 105.455 L874.453 104.764 L871.21 104.137 L867.967 103.572 L864.724 103.067 L861.481 102.621 L858.238 102.23 L854.995 101.893 L851.752 101.607 L848.509 101.37 L845.266 101.177 L842.023 101.027 L838.78 100.916 L835.537 100.839 L832.294 100.794 L829.051 100.776 L825.808 100.78 L822.565 100.803 L819.322 100.839 L816.079 100.883 L812.836 100.93 L809.593 100.975 L806.35 101.011 L803.107 101.034 L799.864 101.038 L796.621 101.018 L793.378 100.976 L790.135 100.915 L786.892 100.837 L783.648 100.746 L780.405 100.643 L777.162 100.532 L773.919 100.415 L770.676 100.292 L767.433 100.166 L764.19 100.037 L760.947 99.9055 L757.704 99.7716 L754.461 99.6347 L751.218 99.4936 L747.975 99.3467 L744.732 99.1919 L741.489 99.0265 L738.246 98.8473 L735.003 98.6508 L731.76 98.4328 L728.517 98.1891 L725.274 97.915 L722.031 97.6058 L718.788 97.2565 L715.545 96.8625 L712.302 96.4209 L709.059 95.9367 L705.816 95.4177 L702.573 94.8722 L699.33 94.3082 L696.087 93.7339 L692.844 93.1571 L689.601 92.5852 L686.358 92.0253 L683.115 91.4839 L679.872 90.9671 L676.629 90.4801 L673.385 90.0278 L670.142 89.6143 L666.899 89.243 L663.656 88.9165 L660.413 88.6372 L657.17 88.4063 L653.927 88.2248 L650.684 88.0929 L647.441 88.0104 L644.198 87.9763 L640.955 87.9894 L637.712 88.0479 L634.469 88.1497 L631.226 88.2924 L627.983 88.4749 L624.74 88.7021 L621.497 88.9803 L618.254 89.3154 L615.011 89.7132 L611.768 90.1789 L608.525 90.7172 L605.282 91.3327 L602.039 92.0293 L598.796 92.8104 L595.553 93.679 L592.31 94.6376 L589.067 95.6881 L585.824 96.8319 L582.581 98.0699 L579.338 99.4024 L576.095 100.829 L572.852 102.349 L569.609 103.961 L566.366 105.663 L563.122 107.452 L559.879 109.325 L556.636 111.277 L553.393 113.305 L550.15 115.403 L546.907 117.565 L543.664 119.784 L540.421 122.053 L537.178 124.364 L533.935 126.709 L530.692 129.078 L527.449 131.461 L524.206 133.848 L520.963 136.227 L517.72 138.589 L514.477 140.921 L511.234 143.21 L507.991 145.447 L504.748 147.624 L501.505 149.733 L498.262 151.768 L495.019 153.724 L491.776 155.594 L488.533 157.379 L485.29 159.082 L482.047 160.705 L478.804 162.249 L475.561 163.717 L472.318 165.109 L469.075 166.427 L465.832 167.672 L462.589 168.844 L459.346 169.942 L456.103 170.966 L452.859 171.914 L449.616 172.786 L446.373 173.579 L443.13 174.291 L439.887 174.919 L436.644 175.46 L433.401 175.91 L430.158 176.266 L426.915 176.524 L423.672 176.68 L420.429 176.729 L417.186 176.67 L413.943 176.508 L410.7 176.251 L407.457 175.905 L404.214 175.479 L400.971 174.978 L397.728 174.41 L394.485 173.781 L391.242 173.098 L387.999 172.365 L384.756 171.59 L381.513 170.776 L378.27 169.93 L375.027 169.055 L371.784 168.157 L368.541 167.239 L365.298 166.305 L362.055 165.359 L358.812 164.404 L355.569 163.443 L352.326 162.479 L349.083 161.515 L345.84 160.553 L342.596 159.595 L339.353 158.644 L336.11 157.702 L332.867 156.77 L329.624 155.85 L326.381 154.943 L323.138 154.051 L319.895 153.175 L316.652 152.316 L313.409 151.474 L310.166 150.652 L306.923 149.849 L303.68 149.067 L300.437 148.306 L297.194 147.566 L293.951 146.848 L290.708 146.152 L287.465 145.479 L284.222 144.829 L280.979 144.203 L277.736 143.599 L274.493 143.019 L271.25 142.463 L268.007 141.93 L264.764 141.421 L261.521 140.935 L258.278 140.473 L255.035 140.034  Z" fill="#3da44d" fill-rule="evenodd" fill-opacity="0.1"/>
<polyline clip-path="url(#clip012)" style="stroke:#3da44d; stroke-linecap:round; stroke-linejoin:round; stroke-width:8; stroke-opacity:1; fill:none" points="255.035,532.03 258.278,529.68 261.521,527.311 264.764,524.923 268.007,522.518 271.25,520.093 274.493,517.651 277.736,515.19 280.979,512.711 284.222,510.214 287.465,507.7 290.708,505.167 293.951,502.617 297.194,500.05 300.437,497.466 303.68,494.864 306.923,492.246 310.166,489.611 313.409,486.96 316.652,484.292 319.895,481.609 323.138,478.91 326.381,476.195 329.624,473.466 332.867,470.721 336.11,467.962 339.353,465.189 342.596,462.402 345.84,459.602 349.083,456.789 352.326,453.962 355.569,451.124 358.812,448.274 362.055,445.412 365.298,442.54 368.541,439.657 371.784,436.764 375.027,433.862 378.27,430.951 381.513,428.032 384.756,425.105 387.999,422.171 391.242,419.231 394.485,416.285 397.728,413.334 400.971,410.379 404.214,407.42 407.457,404.459 410.7,401.495 413.943,398.531 417.186,395.566 420.429,392.603 423.672,389.64 426.915,386.681 430.158,383.727 433.401,380.778 436.644,377.837 439.887,374.906 443.13,371.985 446.373,369.077 449.616,366.184 452.859,363.306 456.103,360.447 459.346,357.607 462.589,354.789 465.832,351.995 469.075,349.226 472.318,346.485 475.561,343.773 478.804,341.094 482.047,338.449 485.29,335.84 488.533,333.27 491.776,330.74 495.019,328.255 498.262,325.816 501.505,323.424 504.748,321.082 507.991,318.792 511.234,316.557 514.477,314.376 517.72,312.25 520.963,310.178 524.206,308.156 527.449,306.185 530.692,304.262 533.935,302.387 537.178,300.558 540.421,298.775 543.664,297.035 546.907,295.339 550.15,293.684 553.393,292.071 556.636,290.499 559.879,288.966 563.122,287.472 566.366,286.016 569.609,284.599 572.852,283.219 576.095,281.876 579.338,280.57 582.581,279.299 585.824,278.066 589.067,276.868 592.31,275.705 595.553,274.579 598.796,273.489 602.039,272.434 605.282,271.415 608.525,270.433 611.768,269.488 615.011,268.579 618.254,267.707 621.497,266.874 624.74,266.078 627.983,265.322 631.226,264.605 634.469,263.928 637.712,263.293 640.955,262.701 644.198,262.152 647.441,261.648 650.684,261.191 653.927,260.782 657.17,260.422 660.413,260.113 663.656,259.857 666.899,259.655 670.142,259.509 673.385,259.422 676.629,259.394 679.872,259.429 683.115,259.528 686.358,259.693 689.601,259.927 692.844,260.232 696.087,260.61 699.33,261.065 702.573,261.599 705.816,262.213 709.059,262.913 712.302,263.699 715.545,264.574 718.788,265.535 722.031,266.58 725.274,267.706 728.517,268.911 731.76,270.193 735.003,271.551 738.246,272.982 741.489,274.486 744.732,276.059 747.975,277.701 751.218,279.411 754.461,281.187 757.704,283.027 760.947,284.931 764.19,286.898 767.433,288.926 770.676,291.014 773.919,293.161 777.162,295.368 780.405,297.633 783.648,299.954 786.892,302.333 790.135,304.768 793.378,307.259 796.621,309.805 799.864,312.406 803.107,315.062 806.35,317.771 809.593,320.529 812.836,323.336 816.079,326.189 819.322,329.085 822.565,332.023 825.808,335.001 829.051,338.016 832.294,341.067 835.537,344.153 838.78,347.27 842.023,350.419 845.266,353.596 848.509,356.8 851.752,360.03 854.995,363.285 858.238,366.562 861.481,369.861 864.724,373.18 867.967,376.518 871.21,379.873 874.453,383.245 877.696,386.631 880.939,390.032 884.182,393.446 887.425,396.871 890.668,400.307 893.911,403.753 897.155,407.208 900.398,410.671 903.641,414.141 906.884,417.618 910.127,421.1 913.37,424.586 916.613,428.077 919.856,431.57 923.099,435.067 926.342,438.565 929.585,442.064 932.828,445.564 936.071,449.065 939.314,452.564 942.557,456.063 945.8,459.561 949.043,463.056 952.286,466.549 955.529,470.04 958.772,473.527 962.015,477.011 965.258,480.49 968.501,483.966 971.744,487.437 974.987,490.903 978.23,494.364 981.473,497.82 984.716,501.27 987.959,504.715 991.202,508.153 994.445,511.585 997.688,515.011 1000.93,518.431 1004.17,521.843 1007.42,525.249 1010.66,528.649 1013.9,532.041 1017.15,535.427 1020.39,538.805 1023.63,542.177 1026.88,545.541 1030.12,548.899 1033.36,552.249 1036.6,555.592 1039.85,558.928 1043.09,562.258 1046.33,565.58 1049.58,568.895 1052.82,572.204 1056.06,575.506 1059.31,578.802 1062.55,582.091 1065.79,585.373 1069.04,588.65 1072.28,591.92 1075.52,595.184 1078.76,598.443 1082.01,601.696 1085.25,604.944 1088.49,608.186 1091.74,611.423 1094.98,614.656 1098.22,617.884 1101.47,621.108 1104.71,624.327 1107.95,627.543 1111.19,630.755 1114.44,633.963 1117.68,637.169 1120.92,640.371 1124.17,643.571 1127.41,646.769 1130.65,649.965 1133.9,653.159 1137.14,656.352 1140.38,659.543 1143.62,662.734 1146.87,665.925 1150.11,669.116 1153.35,672.306 1156.6,675.498 1159.84,678.69 1163.08,681.884 1166.33,685.08 1169.57,688.277 1172.81,691.477 1176.06,694.68 1179.3,697.887 1182.54,701.097 1185.78,704.311 1189.03,707.529 1192.27,710.753 1195.51,713.983 1198.76,717.218 1202,720.461 1205.24,723.71 1208.49,726.967 1211.73,730.232 1214.97,733.506 1218.21,736.789 1221.46,740.082 1224.7,743.386 1227.94,746.7 1231.19,750.025 1234.43,753.363 1237.67,756.713 1240.92,760.077 1244.16,763.454 1247.4,766.845 1250.64,770.252 1253.89,773.674 1257.13,777.112 1260.37,780.567 1263.62,784.04 1266.86,787.53 1270.1,791.04 1273.35,794.568 1276.59,798.117 1279.83,801.686 1283.08,805.277 1286.32,808.889 1289.56,812.524 1292.8,816.183 1296.05,819.866 1299.29,823.573 1302.53,827.306 1305.78,831.065 1309.02,834.849 1312.26,838.656 1315.51,842.486 1318.75,846.337 1321.99,850.208 1325.23,854.097 1328.48,858.003 1331.72,861.925 1334.96,865.861 1338.21,869.809 1341.45,873.768 1344.69,877.737 1347.94,881.712 1351.18,885.694 1354.42,889.681 1357.66,893.67 1360.91,897.661 1364.15,901.651 1367.39,905.639 1370.64,909.624 1373.88,913.603 1377.12,917.576 1380.37,921.539 1383.61,925.493 1386.85,929.433 1390.1,933.36 1393.34,937.272 1396.58,941.165 1399.82,945.039 1403.07,948.892 1406.31,952.721 1409.55,956.525 1412.8,960.302 1416.04,964.05 1419.28,967.766 1422.53,971.449 1425.77,975.097 1429.01,978.706 1432.25,982.276 1435.5,985.803 1438.74,989.286 1441.98,992.722 1445.23,996.109 1448.47,999.449 1451.71,1002.74 1454.96,1006 1458.2,1009.21 1461.44,1012.38 1464.68,1015.51 1467.93,1018.61 1471.17,1021.68 1474.41,1024.71 1477.66,1027.71 1480.9,1030.68 1484.14,1033.62 1487.39,1036.53 1490.63,1039.41 1493.87,1042.27 1497.11,1045.1 1500.36,1047.9 1503.6,1050.68 1506.84,1053.44 1510.09,1056.17 1513.33,1058.88 1516.57,1061.56 1519.82,1064.22 1523.06,1066.86 1526.3,1069.48 1529.55,1072.08 1532.79,1074.66 1536.03,1077.22 1539.27,1079.76 1542.52,1082.27 1545.76,1084.77 1549,1087.25 1552.25,1089.7 1555.49,1092.14 1558.73,1094.56 1561.98,1096.96 1565.22,1099.33 1568.46,1101.69 1571.7,1104.03 1574.95,1106.35 1578.19,1108.65 1581.43,1110.94 1584.68,1113.23 1587.92,1115.5 1591.16,1117.78 1594.41,1120.05 1597.65,1122.32 1600.89,1124.59 1604.13,1126.86 1607.38,1129.14 1610.62,1131.41 1613.86,1133.68 1617.11,1135.96 1620.35,1138.23 1623.59,1140.5 1626.84,1142.76 1630.08,1145.03 1633.32,1147.28 1636.57,1149.54 1639.81,1151.79 1643.05,1154.03 1646.29,1156.27 1649.54,1158.5 1652.78,1160.72 1656.02,1162.93 1659.27,1165.13 1662.51,1167.32 1665.75,1169.5 1669,1171.66 1672.24,1173.81 1675.48,1175.94 1678.72,1178.06 1681.97,1180.16 1685.21,1182.23 1688.45,1184.29 1691.7,1186.32 1694.94,1188.33 1698.18,1190.32 1701.43,1192.27 1704.67,1194.2 1707.91,1196.1 1711.15,1197.96 1714.4,1199.79 1717.64,1201.59 1720.88,1203.34 1724.13,1205.06 1727.37,1206.73 1730.61,1208.36 1733.86,1209.94 1737.1,1211.47 1740.34,1212.95 1743.59,1214.38 1746.83,1215.75 1750.07,1217.06 1753.31,1218.31 1756.56,1219.49 1759.8,1220.62 1763.04,1221.67 1766.29,1222.67 1769.53,1223.6 1772.77,1224.47 1776.02,1225.28 1779.26,1226.02 1782.5,1226.7 1785.74,1227.32 1788.99,1227.88 1792.23,1228.37 1795.47,1228.8 1798.72,1229.17 1801.96,1229.47 1805.2,1229.71 1808.45,1229.88 1811.69,1229.99 1814.93,1230.04 1818.17,1230.03 1821.42,1229.96 1824.66,1229.84 1827.9,1229.66 1831.15,1229.43 1834.39,1229.15 1837.63,1228.82 1840.88,1228.45 1844.12,1228.03 1847.36,1227.57 1850.61,1227.06 1853.85,1226.52 1857.09,1225.93 1860.33,1225.31 1863.58,1224.64 1866.82,1223.94 1870.06,1223.2 1873.31,1222.43 1876.55,1221.63 1879.79,1220.79 1883.04,1219.91 1886.28,1219.01 1889.52,1218.07 1892.76,1217.1 1896.01,1216.1 1899.25,1215.07 1902.49,1214.01 1905.74,1212.92 1908.98,1211.8 1912.22,1210.64 1915.47,1209.46 1918.71,1208.25 1921.95,1207.01 1925.19,1205.74 1928.44,1204.44 1931.68,1203.11 1934.92,1201.74 1938.17,1200.35 1941.41,1198.92 1944.65,1197.47 1947.9,1195.98 1951.14,1194.45 1954.38,1192.9 1957.63,1191.3 1960.87,1189.67 1964.11,1188.01 1967.35,1186.31 1970.6,1184.57 1973.84,1182.79 1977.08,1180.97 1980.33,1179.11 1983.57,1177.2 1986.81,1175.25 1990.06,1173.26 1993.3,1171.22 1996.54,1169.13 1999.78,1166.99 2003.03,1164.8 2006.27,1162.55 2009.51,1160.25 2012.76,1157.89 2016,1155.48 2019.24,1153 2022.49,1150.46 2025.73,1147.85 2028.97,1145.18 2032.21,1142.44 2035.46,1139.63 2038.7,1136.77 2041.94,1133.84 2045.19,1130.87 2048.43,1127.84 2051.67,1124.77 2054.92,1121.65 2058.16,1118.49 2061.4,1115.29 2064.65,1112.05 2067.89,1108.78 2071.13,1105.48 2074.37,1102.14 2077.62,1098.78 2080.86,1095.39 2084.1,1091.98 2087.35,1088.54 2090.59,1085.09 2093.83,1081.61 2097.08,1078.12 2100.32,1074.61 2103.56,1071.08 2106.8,1067.54 2110.05,1063.99 2113.29,1060.43 2116.53,1056.87 2119.78,1053.29 2123.02,1049.71 2126.26,1046.12 2129.51,1042.53 2132.75,1038.94 2135.99,1035.35 2139.23,1031.76 2142.48,1028.17 2145.72,1024.58 2148.96,1021 2152.21,1017.42 2155.45,1013.84 2158.69,1010.28 2161.94,1006.72 2165.18,1003.18 2168.42,999.639 2171.67,996.113 2174.91,992.599 2178.15,989.099 2181.39,985.613 2184.64,982.142 2187.88,978.688 2191.12,975.25 2194.37,971.83 2197.61,968.429 2200.85,965.048 2204.1,961.687 2207.34,958.347 2210.58,955.03 2213.82,951.736 2217.07,948.466 2220.31,945.221 2223.55,942.001 2226.8,938.808 2230.04,935.642 2233.28,932.504 2236.53,929.395 2239.77,926.316 2243.01,923.267 2246.25,920.25 2249.5,917.265 2252.74,914.313 2255.98,911.396 2259.23,908.513 2262.47,905.665 2265.71,902.854 2268.96,900.081 2272.2,897.346 2275.44,894.65 2278.69,891.993 2281.93,889.378 2285.17,886.805 2288.41,884.274 2291.66,881.787 "/>
<path clip-path="url(#clip010)" d="M1953.46 302.578 L2280.8 302.578 L2280.8 95.2176 L1953.46 95.2176  Z" fill="#ffffff" fill-rule="evenodd" fill-opacity="1"/>
<polyline clip-path="url(#clip010)" style="stroke:#000000; stroke-linecap:round; stroke-linejoin:round; stroke-width:4; stroke-opacity:1; fill:none" points="1953.46,302.578 2280.8,302.578 2280.8,95.2176 1953.46,95.2176 1953.46,302.578 "/>
<polyline clip-path="url(#clip010)" style="stroke:#009af9; stroke-linecap:round; stroke-linejoin:round; stroke-width:4; stroke-opacity:1; fill:none" points="1977.44,147.058 2121.36,147.058 "/>
<path clip-path="url(#clip010)" d="M2152.76 131.051 L2152.76 138.412 L2161.53 138.412 L2161.53 141.722 L2152.76 141.722 L2152.76 155.796 Q2152.76 158.967 2153.61 159.87 Q2154.49 160.773 2157.16 160.773 L2161.53 160.773 L2161.53 164.338 L2157.16 164.338 Q2152.23 164.338 2150.35 162.509 Q2148.48 160.657 2148.48 155.796 L2148.48 141.722 L2145.35 141.722 L2145.35 138.412 L2148.48 138.412 L2148.48 131.051 L2152.76 131.051 Z" fill="#000000" fill-rule="nonzero" fill-opacity="1" /><path clip-path="url(#clip010)" d="M2182.16 142.393 Q2181.44 141.977 2180.58 141.791 Q2179.75 141.583 2178.73 141.583 Q2175.12 141.583 2173.17 143.944 Q2171.25 146.282 2171.25 150.68 L2171.25 164.338 L2166.97 164.338 L2166.97 138.412 L2171.25 138.412 L2171.25 142.44 Q2172.6 140.078 2174.75 138.944 Q2176.9 137.787 2179.98 137.787 Q2180.42 137.787 2180.95 137.856 Q2181.48 137.903 2182.13 138.018 L2182.16 142.393 Z" fill="#000000" fill-rule="nonzero" fill-opacity="1" /><path clip-path="url(#clip010)" d="M2186.18 154.106 L2186.18 138.412 L2190.44 138.412 L2190.44 153.944 Q2190.44 157.625 2191.88 159.476 Q2193.31 161.305 2196.18 161.305 Q2199.63 161.305 2201.62 159.106 Q2203.64 156.907 2203.64 153.111 L2203.64 138.412 L2207.9 138.412 L2207.9 164.338 L2203.64 164.338 L2203.64 160.356 Q2202.09 162.717 2200.03 163.875 Q2197.99 165.009 2195.28 165.009 Q2190.81 165.009 2188.5 162.231 Q2186.18 159.453 2186.18 154.106 M2196.9 137.787 L2196.9 137.787 Z" fill="#000000" fill-rule="nonzero" fill-opacity="1" /><path clip-path="url(#clip010)" d="M2220.88 131.051 L2220.88 138.412 L2229.66 138.412 L2229.66 141.722 L2220.88 141.722 L2220.88 155.796 Q2220.88 158.967 2221.74 159.87 Q2222.62 160.773 2225.28 160.773 L2229.66 160.773 L2229.66 164.338 L2225.28 164.338 Q2220.35 164.338 2218.48 162.509 Q2216.6 160.657 2216.6 155.796 L2216.6 141.722 L2213.48 141.722 L2213.48 138.412 L2216.6 138.412 L2216.6 131.051 L2220.88 131.051 Z" fill="#000000" fill-rule="nonzero" fill-opacity="1" /><path clip-path="url(#clip010)" d="M2256.81 148.689 L2256.81 164.338 L2252.55 164.338 L2252.55 148.828 Q2252.55 145.148 2251.11 143.319 Q2249.68 141.49 2246.81 141.49 Q2243.36 141.49 2241.37 143.69 Q2239.38 145.889 2239.38 149.685 L2239.38 164.338 L2235.1 164.338 L2235.1 128.319 L2239.38 128.319 L2239.38 142.44 Q2240.91 140.102 2242.97 138.944 Q2245.05 137.787 2247.76 137.787 Q2252.23 137.787 2254.52 140.565 Q2256.81 143.319 2256.81 148.689 Z" fill="#000000" fill-rule="nonzero" fill-opacity="1" /><circle clip-path="url(#clip010)" cx="2049.4" cy="198.898" r="20.48" fill="#e26f46" fill-rule="evenodd" fill-opacity="1" stroke="#000000" stroke-opacity="1" stroke-width="4.55111"/>
<path clip-path="url(#clip010)" d="M2164.26 194.187 L2164.26 180.159 L2168.52 180.159 L2168.52 216.178 L2164.26 216.178 L2164.26 212.289 Q2162.92 214.603 2160.86 215.738 Q2158.82 216.849 2155.95 216.849 Q2151.25 216.849 2148.29 213.099 Q2145.35 209.349 2145.35 203.238 Q2145.35 197.127 2148.29 193.377 Q2151.25 189.627 2155.95 189.627 Q2158.82 189.627 2160.86 190.761 Q2162.92 191.872 2164.26 194.187 M2149.75 203.238 Q2149.75 207.937 2151.67 210.622 Q2153.61 213.284 2156.99 213.284 Q2160.37 213.284 2162.32 210.622 Q2164.26 207.937 2164.26 203.238 Q2164.26 198.539 2162.32 195.877 Q2160.37 193.192 2156.99 193.192 Q2153.61 193.192 2151.67 195.877 Q2149.75 198.539 2149.75 203.238 Z" fill="#000000" fill-rule="nonzero" fill-opacity="1" /><path clip-path="url(#clip010)" d="M2189.08 203.145 Q2183.92 203.145 2181.92 204.326 Q2179.93 205.506 2179.93 208.354 Q2179.93 210.622 2181.42 211.965 Q2182.92 213.284 2185.49 213.284 Q2189.03 213.284 2191.16 210.784 Q2193.31 208.261 2193.31 204.094 L2193.31 203.145 L2189.08 203.145 M2197.57 201.386 L2197.57 216.178 L2193.31 216.178 L2193.31 212.242 Q2191.85 214.603 2189.68 215.738 Q2187.5 216.849 2184.36 216.849 Q2180.37 216.849 2178.01 214.627 Q2175.67 212.381 2175.67 208.631 Q2175.67 204.256 2178.59 202.034 Q2181.53 199.812 2187.34 199.812 L2193.31 199.812 L2193.31 199.395 Q2193.31 196.455 2191.37 194.858 Q2189.45 193.238 2185.95 193.238 Q2183.73 193.238 2181.62 193.77 Q2179.52 194.303 2177.57 195.367 L2177.57 191.432 Q2179.91 190.53 2182.11 190.09 Q2184.31 189.627 2186.39 189.627 Q2192.02 189.627 2194.79 192.543 Q2197.57 195.46 2197.57 201.386 Z" fill="#000000" fill-rule="nonzero" fill-opacity="1" /><path clip-path="url(#clip010)" d="M2210.56 182.891 L2210.56 190.252 L2219.33 190.252 L2219.33 193.562 L2210.56 193.562 L2210.56 207.636 Q2210.56 210.807 2211.42 211.71 Q2212.29 212.613 2214.96 212.613 L2219.33 212.613 L2219.33 216.178 L2214.96 216.178 Q2210.03 216.178 2208.15 214.349 Q2206.28 212.497 2206.28 207.636 L2206.28 193.562 L2203.15 193.562 L2203.15 190.252 L2206.28 190.252 L2206.28 182.891 L2210.56 182.891 Z" fill="#000000" fill-rule="nonzero" fill-opacity="1" /><path clip-path="url(#clip010)" d="M2236.72 203.145 Q2231.55 203.145 2229.56 204.326 Q2227.57 205.506 2227.57 208.354 Q2227.57 210.622 2229.05 211.965 Q2230.56 213.284 2233.13 213.284 Q2236.67 213.284 2238.8 210.784 Q2240.95 208.261 2240.95 204.094 L2240.95 203.145 L2236.72 203.145 M2245.21 201.386 L2245.21 216.178 L2240.95 216.178 L2240.95 212.242 Q2239.49 214.603 2237.32 215.738 Q2235.14 216.849 2231.99 216.849 Q2228.01 216.849 2225.65 214.627 Q2223.31 212.381 2223.31 208.631 Q2223.31 204.256 2226.23 202.034 Q2229.17 199.812 2234.98 199.812 L2240.95 199.812 L2240.95 199.395 Q2240.95 196.455 2239.01 194.858 Q2237.09 193.238 2233.59 193.238 Q2231.37 193.238 2229.26 193.77 Q2227.16 194.303 2225.21 195.367 L2225.21 191.432 Q2227.55 190.53 2229.75 190.09 Q2231.95 189.627 2234.03 189.627 Q2239.66 189.627 2242.43 192.543 Q2245.21 195.46 2245.21 201.386 Z" fill="#000000" fill-rule="nonzero" fill-opacity="1" /><polyline clip-path="url(#clip010)" style="stroke:#3da44d; stroke-linecap:round; stroke-linejoin:round; stroke-width:8; stroke-opacity:1; fill:none" points="1977.44,250.738 2121.36,250.738 "/>
<path clip-path="url(#clip010)" d="M2170.91 263.087 L2170.91 253.805 L2163.27 253.805 L2163.27 249.962 L2175.54 249.962 L2175.54 264.8 Q2172.83 266.721 2169.56 267.717 Q2166.3 268.689 2162.6 268.689 Q2154.49 268.689 2149.91 263.967 Q2145.35 259.221 2145.35 250.772 Q2145.35 242.3 2149.91 237.578 Q2154.49 232.833 2162.6 232.833 Q2165.98 232.833 2169.01 233.666 Q2172.06 234.499 2174.63 236.12 L2174.63 241.096 Q2172.04 238.897 2169.12 237.786 Q2166.21 236.675 2162.99 236.675 Q2156.65 236.675 2153.45 240.217 Q2150.28 243.758 2150.28 250.772 Q2150.28 257.763 2153.45 261.305 Q2156.65 264.846 2162.99 264.846 Q2165.47 264.846 2167.41 264.43 Q2169.36 263.99 2170.91 263.087 Z" fill="#000000" fill-rule="nonzero" fill-opacity="1" /><path clip-path="url(#clip010)" d="M2188.75 237.3 L2188.75 250.286 L2194.63 250.286 Q2197.9 250.286 2199.68 248.596 Q2201.46 246.907 2201.46 243.782 Q2201.46 240.68 2199.68 238.99 Q2197.9 237.3 2194.63 237.3 L2188.75 237.3 M2184.08 233.458 L2194.63 233.458 Q2200.44 233.458 2203.41 236.096 Q2206.39 238.712 2206.39 243.782 Q2206.39 248.897 2203.41 251.513 Q2200.44 254.129 2194.63 254.129 L2188.75 254.129 L2188.75 268.018 L2184.08 268.018 L2184.08 233.458 Z" fill="#000000" fill-rule="nonzero" fill-opacity="1" /></svg>
