<?xml version="1.0" encoding="utf-8"?>
<svg xmlns="http://www.w3.org/2000/svg" xmlns:xlink="http://www.w3.org/1999/xlink" width="600" height="400" viewBox="0 0 2400 1600">
<defs>
  <clipPath id="clip940">
    <rect x="0" y="0" width="2400" height="1600"/>
  </clipPath>
</defs>
<path clip-path="url(#clip940)" d="M0 1600 L2400 1600 L2400 0 L0 0  Z" fill="#ffffff" fill-rule="evenodd" fill-opacity="1"/>
<defs>
  <clipPath id="clip941">
    <rect x="193" y="47" width="2160" height="1440"/>
  </clipPath>
</defs>
<path clip-path="url(#clip940)" d="M193.936 1486.45 L2352.76 1486.45 L2352.76 47.2441 L193.936 47.2441  Z" fill="#ffffff" fill-rule="evenodd" fill-opacity="1"/>
<polyline clip-path="url(#clip941)" style="stroke:#000000; stroke-linecap:round; stroke-linejoin:round; stroke-width:2; stroke-opacity:0.1; fill:none" points="255.035,1486.45 255.035,47.2441 "/>
<polyline clip-path="url(#clip941)" style="stroke:#000000; stroke-linecap:round; stroke-linejoin:round; stroke-width:2; stroke-opacity:0.1; fill:none" points="579.173,1486.45 579.173,47.2441 "/>
<polyline clip-path="url(#clip941)" style="stroke:#000000; stroke-linecap:round; stroke-linejoin:round; stroke-width:2; stroke-opacity:0.1; fill:none" points="903.312,1486.45 903.312,47.2441 "/>
<polyline clip-path="url(#clip941)" style="stroke:#000000; stroke-linecap:round; stroke-linejoin:round; stroke-width:2; stroke-opacity:0.1; fill:none" points="1227.45,1486.45 1227.45,47.2441 "/>
<polyline clip-path="url(#clip941)" style="stroke:#000000; stroke-linecap:round; stroke-linejoin:round; stroke-width:2; stroke-opacity:0.1; fill:none" points="1551.59,1486.45 1551.59,47.2441 "/>
<polyline clip-path="url(#clip941)" style="stroke:#000000; stroke-linecap:round; stroke-linejoin:round; stroke-width:2; stroke-opacity:0.1; fill:none" points="1875.73,1486.45 1875.73,47.2441 "/>
<polyline clip-path="url(#clip941)" style="stroke:#000000; stroke-linecap:round; stroke-linejoin:round; stroke-width:2; stroke-opacity:0.1; fill:none" points="2199.87,1486.45 2199.87,47.2441 "/>
<polyline clip-path="url(#clip941)" style="stroke:#000000; stroke-linecap:round; stroke-linejoin:round; stroke-width:2; stroke-opacity:0.1; fill:none" points="193.936,1263.84 2352.76,1263.84 "/>
<polyline clip-path="url(#clip941)" style="stroke:#000000; stroke-linecap:round; stroke-linejoin:round; stroke-width:2; stroke-opacity:0.1; fill:none" points="193.936,1008.39 2352.76,1008.39 "/>
<polyline clip-path="url(#clip941)" style="stroke:#000000; stroke-linecap:round; stroke-linejoin:round; stroke-width:2; stroke-opacity:0.1; fill:none" points="193.936,752.952 2352.76,752.952 "/>
<polyline clip-path="url(#clip941)" style="stroke:#000000; stroke-linecap:round; stroke-linejoin:round; stroke-width:2; stroke-opacity:0.1; fill:none" points="193.936,497.51 2352.76,497.51 "/>
<polyline clip-path="url(#clip941)" style="stroke:#000000; stroke-linecap:round; stroke-linejoin:round; stroke-width:2; stroke-opacity:0.1; fill:none" points="193.936,242.068 2352.76,242.068 "/>
<polyline clip-path="url(#clip940)" style="stroke:#000000; stroke-linecap:round; stroke-linejoin:round; stroke-width:4; stroke-opacity:1; fill:none" points="193.936,1486.45 2352.76,1486.45 "/>
<polyline clip-path="url(#clip940)" style="stroke:#000000; stroke-linecap:round; stroke-linejoin:round; stroke-width:4; stroke-opacity:1; fill:none" points="255.035,1486.45 255.035,1467.55 "/>
<polyline clip-path="url(#clip940)" style="stroke:#000000; stroke-linecap:round; stroke-linejoin:round; stroke-width:4; stroke-opacity:1; fill:none" points="579.173,1486.45 579.173,1467.55 "/>
<polyline clip-path="url(#clip940)" style="stroke:#000000; stroke-linecap:round; stroke-linejoin:round; stroke-width:4; stroke-opacity:1; fill:none" points="903.312,1486.45 903.312,1467.55 "/>
<polyline clip-path="url(#clip940)" style="stroke:#000000; stroke-linecap:round; stroke-linejoin:round; stroke-width:4; stroke-opacity:1; fill:none" points="1227.45,1486.45 1227.45,1467.55 "/>
<polyline clip-path="url(#clip940)" style="stroke:#000000; stroke-linecap:round; stroke-linejoin:round; stroke-width:4; stroke-opacity:1; fill:none" points="1551.59,1486.45 1551.59,1467.55 "/>
<polyline clip-path="url(#clip940)" style="stroke:#000000; stroke-linecap:round; stroke-linejoin:round; stroke-width:4; stroke-opacity:1; fill:none" points="1875.73,1486.45 1875.73,1467.55 "/>
<polyline clip-path="url(#clip940)" style="stroke:#000000; stroke-linecap:round; stroke-linejoin:round; stroke-width:4; stroke-opacity:1; fill:none" points="2199.87,1486.45 2199.87,1467.55 "/>
<path clip-path="url(#clip940)" d="M255.035 1517.37 Q251.424 1517.37 249.595 1520.93 Q247.789 1524.47 247.789 1531.6 Q247.789 1538.71 249.595 1542.27 Q251.424 1545.82 255.035 1545.82 Q258.669 1545.82 260.474 1542.27 Q262.303 1538.71 262.303 1531.6 Q262.303 1524.47 260.474 1520.93 Q258.669 1517.37 255.035 1517.37 M255.035 1513.66 Q260.845 1513.66 263.9 1518.27 Q266.979 1522.85 266.979 1531.6 Q266.979 1540.33 263.9 1544.94 Q260.845 1549.52 255.035 1549.52 Q249.225 1549.52 246.146 1544.94 Q243.09 1540.33 243.09 1531.6 Q243.09 1522.85 246.146 1518.27 Q249.225 1513.66 255.035 1513.66 Z" fill="#000000" fill-rule="nonzero" fill-opacity="1" /><path clip-path="url(#clip940)" d="M569.555 1544.91 L577.194 1544.91 L577.194 1518.55 L568.884 1520.21 L568.884 1515.95 L577.148 1514.29 L581.824 1514.29 L581.824 1544.91 L589.463 1544.91 L589.463 1548.85 L569.555 1548.85 L569.555 1544.91 Z" fill="#000000" fill-rule="nonzero" fill-opacity="1" /><path clip-path="url(#clip940)" d="M897.965 1544.91 L914.284 1544.91 L914.284 1548.85 L892.34 1548.85 L892.34 1544.91 Q895.002 1542.16 899.585 1537.53 Q904.191 1532.88 905.372 1531.53 Q907.617 1529.01 908.497 1527.27 Q909.4 1525.51 909.4 1523.82 Q909.4 1521.07 907.455 1519.33 Q905.534 1517.6 902.432 1517.6 Q900.233 1517.6 897.779 1518.36 Q895.349 1519.13 892.571 1520.68 L892.571 1515.95 Q895.395 1514.82 897.849 1514.24 Q900.303 1513.66 902.34 1513.66 Q907.71 1513.66 910.904 1516.35 Q914.099 1519.03 914.099 1523.52 Q914.099 1525.65 913.289 1527.57 Q912.502 1529.47 910.395 1532.07 Q909.816 1532.74 906.715 1535.95 Q903.613 1539.15 897.965 1544.91 Z" fill="#000000" fill-rule="nonzero" fill-opacity="1" /><path clip-path="url(#clip940)" d="M1231.7 1530.21 Q1235.05 1530.93 1236.93 1533.2 Q1238.83 1535.47 1238.83 1538.8 Q1238.83 1543.92 1235.31 1546.72 Q1231.79 1549.52 1225.31 1549.52 Q1223.13 1549.52 1220.82 1549.08 Q1218.53 1548.66 1216.07 1547.81 L1216.07 1543.29 Q1218.02 1544.43 1220.33 1545.01 Q1222.65 1545.58 1225.17 1545.58 Q1229.57 1545.58 1231.86 1543.85 Q1234.17 1542.11 1234.17 1538.8 Q1234.17 1535.75 1232.02 1534.03 Q1229.89 1532.3 1226.07 1532.3 L1222.05 1532.3 L1222.05 1528.45 L1226.26 1528.45 Q1229.71 1528.45 1231.54 1527.09 Q1233.36 1525.7 1233.36 1523.11 Q1233.36 1520.45 1231.47 1519.03 Q1229.59 1517.6 1226.07 1517.6 Q1224.15 1517.6 1221.95 1518.01 Q1219.75 1518.43 1217.11 1519.31 L1217.11 1515.14 Q1219.78 1514.4 1222.09 1514.03 Q1224.43 1513.66 1226.49 1513.66 Q1231.81 1513.66 1234.92 1516.09 Q1238.02 1518.5 1238.02 1522.62 Q1238.02 1525.49 1236.37 1527.48 Q1234.73 1529.45 1231.7 1530.21 Z" fill="#000000" fill-rule="nonzero" fill-opacity="1" /><path clip-path="url(#clip940)" d="M1554.6 1518.36 L1542.79 1536.81 L1554.6 1536.81 L1554.6 1518.36 M1553.37 1514.29 L1559.25 1514.29 L1559.25 1536.81 L1564.18 1536.81 L1564.18 1540.7 L1559.25 1540.7 L1559.25 1548.85 L1554.6 1548.85 L1554.6 1540.7 L1539 1540.7 L1539 1536.19 L1553.37 1514.29 Z" fill="#000000" fill-rule="nonzero" fill-opacity="1" /><path clip-path="url(#clip940)" d="M1866.01 1514.29 L1884.36 1514.29 L1884.36 1518.22 L1870.29 1518.22 L1870.29 1526.7 Q1871.31 1526.35 1872.32 1526.19 Q1873.34 1526 1874.36 1526 Q1880.15 1526 1883.53 1529.17 Q1886.91 1532.34 1886.91 1537.76 Q1886.91 1543.34 1883.44 1546.44 Q1879.96 1549.52 1873.64 1549.52 Q1871.47 1549.52 1869.2 1549.15 Q1866.95 1548.78 1864.55 1548.04 L1864.55 1543.34 Q1866.63 1544.47 1868.85 1545.03 Q1871.07 1545.58 1873.55 1545.58 Q1877.56 1545.58 1879.89 1543.48 Q1882.23 1541.37 1882.23 1537.76 Q1882.23 1534.15 1879.89 1532.04 Q1877.56 1529.94 1873.55 1529.94 Q1871.68 1529.94 1869.8 1530.35 Q1867.95 1530.77 1866.01 1531.65 L1866.01 1514.29 Z" fill="#000000" fill-rule="nonzero" fill-opacity="1" /><path clip-path="url(#clip940)" d="M2200.27 1529.7 Q2197.12 1529.7 2195.27 1531.86 Q2193.44 1534.01 2193.44 1537.76 Q2193.44 1541.49 2195.27 1543.66 Q2197.12 1545.82 2200.27 1545.82 Q2203.42 1545.82 2205.25 1543.66 Q2207.1 1541.49 2207.1 1537.76 Q2207.1 1534.01 2205.25 1531.86 Q2203.42 1529.7 2200.27 1529.7 M2209.55 1515.05 L2209.55 1519.31 Q2207.79 1518.48 2205.99 1518.04 Q2204.21 1517.6 2202.45 1517.6 Q2197.82 1517.6 2195.36 1520.72 Q2192.93 1523.85 2192.59 1530.17 Q2193.95 1528.15 2196.01 1527.09 Q2198.07 1526 2200.55 1526 Q2205.76 1526 2208.77 1529.17 Q2211.8 1532.32 2211.8 1537.76 Q2211.8 1543.08 2208.65 1546.3 Q2205.5 1549.52 2200.27 1549.52 Q2194.28 1549.52 2191.1 1544.94 Q2187.93 1540.33 2187.93 1531.6 Q2187.93 1523.41 2191.82 1518.55 Q2195.71 1513.66 2202.26 1513.66 Q2204.02 1513.66 2205.8 1514.01 Q2207.61 1514.36 2209.55 1515.05 Z" fill="#000000" fill-rule="nonzero" fill-opacity="1" /><polyline clip-path="url(#clip940)" style="stroke:#000000; stroke-linecap:round; stroke-linejoin:round; stroke-width:4; stroke-opacity:1; fill:none" points="193.936,1486.45 193.936,47.2441 "/>
<polyline clip-path="url(#clip940)" style="stroke:#000000; stroke-linecap:round; stroke-linejoin:round; stroke-width:4; stroke-opacity:1; fill:none" points="193.936,1263.84 212.834,1263.84 "/>
<polyline clip-path="url(#clip940)" style="stroke:#000000; stroke-linecap:round; stroke-linejoin:round; stroke-width:4; stroke-opacity:1; fill:none" points="193.936,1008.39 212.834,1008.39 "/>
<polyline clip-path="url(#clip940)" style="stroke:#000000; stroke-linecap:round; stroke-linejoin:round; stroke-width:4; stroke-opacity:1; fill:none" points="193.936,752.952 212.834,752.952 "/>
<polyline clip-path="url(#clip940)" style="stroke:#000000; stroke-linecap:round; stroke-linejoin:round; stroke-width:4; stroke-opacity:1; fill:none" points="193.936,497.51 212.834,497.51 "/>
<polyline clip-path="url(#clip940)" style="stroke:#000000; stroke-linecap:round; stroke-linejoin:round; stroke-width:4; stroke-opacity:1; fill:none" points="193.936,242.068 212.834,242.068 "/>
<path clip-path="url(#clip940)" d="M50.9921 1264.29 L80.6679 1264.29 L80.6679 1268.22 L50.9921 1268.22 L50.9921 1264.29 Z" fill="#000000" fill-rule="nonzero" fill-opacity="1" /><path clip-path="url(#clip940)" d="M91.5706 1277.18 L99.2095 1277.18 L99.2095 1250.81 L90.8993 1252.48 L90.8993 1248.22 L99.1632 1246.56 L103.839 1246.56 L103.839 1277.18 L111.478 1277.18 L111.478 1281.12 L91.5706 1281.12 L91.5706 1277.18 Z" fill="#000000" fill-rule="nonzero" fill-opacity="1" /><path clip-path="url(#clip940)" d="M120.922 1275.24 L125.807 1275.24 L125.807 1281.12 L120.922 1281.12 L120.922 1275.24 Z" fill="#000000" fill-rule="nonzero" fill-opacity="1" /><path clip-path="url(#clip940)" d="M145.992 1249.63 Q142.381 1249.63 140.552 1253.2 Q138.746 1256.74 138.746 1263.87 Q138.746 1270.98 140.552 1274.54 Q142.381 1278.08 145.992 1278.08 Q149.626 1278.08 151.431 1274.54 Q153.26 1270.98 153.26 1263.87 Q153.26 1256.74 151.431 1253.2 Q149.626 1249.63 145.992 1249.63 M145.992 1245.93 Q151.802 1245.93 154.857 1250.54 Q157.936 1255.12 157.936 1263.87 Q157.936 1272.6 154.857 1277.2 Q151.802 1281.79 145.992 1281.79 Q140.181 1281.79 137.103 1277.2 Q134.047 1272.6 134.047 1263.87 Q134.047 1255.12 137.103 1250.54 Q140.181 1245.93 145.992 1245.93 Z" fill="#000000" fill-rule="nonzero" fill-opacity="1" /><path clip-path="url(#clip940)" d="M51.9875 1008.85 L81.6633 1008.85 L81.6633 1012.78 L51.9875 1012.78 L51.9875 1008.85 Z" fill="#000000" fill-rule="nonzero" fill-opacity="1" /><path clip-path="url(#clip940)" d="M101.756 994.193 Q98.1447 994.193 96.316 997.757 Q94.5104 1001.3 94.5104 1008.43 Q94.5104 1015.54 96.316 1019.1 Q98.1447 1022.64 101.756 1022.64 Q105.39 1022.64 107.196 1019.1 Q109.024 1015.54 109.024 1008.43 Q109.024 1001.3 107.196 997.757 Q105.39 994.193 101.756 994.193 M101.756 990.489 Q107.566 990.489 110.621 995.095 Q113.7 999.679 113.7 1008.43 Q113.7 1017.16 110.621 1021.76 Q107.566 1026.35 101.756 1026.35 Q95.9456 1026.35 92.8669 1021.76 Q89.8114 1017.16 89.8114 1008.43 Q89.8114 999.679 92.8669 995.095 Q95.9456 990.489 101.756 990.489 Z" fill="#000000" fill-rule="nonzero" fill-opacity="1" /><path clip-path="url(#clip940)" d="M121.918 1019.79 L126.802 1019.79 L126.802 1025.67 L121.918 1025.67 L121.918 1019.79 Z" fill="#000000" fill-rule="nonzero" fill-opacity="1" /><path clip-path="url(#clip940)" d="M137.033 991.114 L155.39 991.114 L155.39 995.049 L141.316 995.049 L141.316 1003.52 Q142.334 1003.17 143.353 1003.01 Q144.371 1002.83 145.39 1002.83 Q151.177 1002.83 154.556 1006 Q157.936 1009.17 157.936 1014.59 Q157.936 1020.16 154.464 1023.27 Q150.992 1026.35 144.672 1026.35 Q142.496 1026.35 140.228 1025.97 Q137.982 1025.6 135.575 1024.86 L135.575 1020.16 Q137.658 1021.3 139.881 1021.85 Q142.103 1022.41 144.58 1022.41 Q148.584 1022.41 150.922 1020.3 Q153.26 1018.2 153.26 1014.59 Q153.26 1010.97 150.922 1008.87 Q148.584 1006.76 144.58 1006.76 Q142.705 1006.76 140.83 1007.18 Q138.978 1007.6 137.033 1008.47 L137.033 991.114 Z" fill="#000000" fill-rule="nonzero" fill-opacity="1" /><path clip-path="url(#clip940)" d="M100.76 738.751 Q97.1493 738.751 95.3206 742.316 Q93.515 745.857 93.515 752.987 Q93.515 760.093 95.3206 763.658 Q97.1493 767.2 100.76 767.2 Q104.395 767.2 106.2 763.658 Q108.029 760.093 108.029 752.987 Q108.029 745.857 106.2 742.316 Q104.395 738.751 100.76 738.751 M100.76 735.047 Q106.571 735.047 109.626 739.654 Q112.705 744.237 112.705 752.987 Q112.705 761.714 109.626 766.32 Q106.571 770.903 100.76 770.903 Q94.9502 770.903 91.8715 766.32 Q88.816 761.714 88.816 752.987 Q88.816 744.237 91.8715 739.654 Q94.9502 735.047 100.76 735.047 Z" fill="#000000" fill-rule="nonzero" fill-opacity="1" /><path clip-path="url(#clip940)" d="M120.922 764.352 L125.807 764.352 L125.807 770.232 L120.922 770.232 L120.922 764.352 Z" fill="#000000" fill-rule="nonzero" fill-opacity="1" /><path clip-path="url(#clip940)" d="M145.992 738.751 Q142.381 738.751 140.552 742.316 Q138.746 745.857 138.746 752.987 Q138.746 760.093 140.552 763.658 Q142.381 767.2 145.992 767.2 Q149.626 767.2 151.431 763.658 Q153.26 760.093 153.26 752.987 Q153.26 745.857 151.431 742.316 Q149.626 738.751 145.992 738.751 M145.992 735.047 Q151.802 735.047 154.857 739.654 Q157.936 744.237 157.936 752.987 Q157.936 761.714 154.857 766.32 Q151.802 770.903 145.992 770.903 Q140.181 770.903 137.103 766.32 Q134.047 761.714 134.047 752.987 Q134.047 744.237 137.103 739.654 Q140.181 735.047 145.992 735.047 Z" fill="#000000" fill-rule="nonzero" fill-opacity="1" /><path clip-path="url(#clip940)" d="M101.756 483.309 Q98.1447 483.309 96.316 486.874 Q94.5104 490.415 94.5104 497.545 Q94.5104 504.651 96.316 508.216 Q98.1447 511.758 101.756 511.758 Q105.39 511.758 107.196 508.216 Q109.024 504.651 109.024 497.545 Q109.024 490.415 107.196 486.874 Q105.39 483.309 101.756 483.309 M101.756 479.605 Q107.566 479.605 110.621 484.212 Q113.7 488.795 113.7 497.545 Q113.7 506.272 110.621 510.878 Q107.566 515.462 101.756 515.462 Q95.9456 515.462 92.8669 510.878 Q89.8114 506.272 89.8114 497.545 Q89.8114 488.795 92.8669 484.212 Q95.9456 479.605 101.756 479.605 Z" fill="#000000" fill-rule="nonzero" fill-opacity="1" /><path clip-path="url(#clip940)" d="M121.918 508.911 L126.802 508.911 L126.802 514.79 L121.918 514.79 L121.918 508.911 Z" fill="#000000" fill-rule="nonzero" fill-opacity="1" /><path clip-path="url(#clip940)" d="M137.033 480.23 L155.39 480.23 L155.39 484.165 L141.316 484.165 L141.316 492.638 Q142.334 492.29 143.353 492.128 Q144.371 491.943 145.39 491.943 Q151.177 491.943 154.556 495.114 Q157.936 498.286 157.936 503.702 Q157.936 509.281 154.464 512.383 Q150.992 515.462 144.672 515.462 Q142.496 515.462 140.228 515.091 Q137.982 514.721 135.575 513.98 L135.575 509.281 Q137.658 510.415 139.881 510.971 Q142.103 511.526 144.58 511.526 Q148.584 511.526 150.922 509.42 Q153.26 507.313 153.26 503.702 Q153.26 500.091 150.922 497.985 Q148.584 495.878 144.58 495.878 Q142.705 495.878 140.83 496.295 Q138.978 496.712 137.033 497.591 L137.033 480.23 Z" fill="#000000" fill-rule="nonzero" fill-opacity="1" /><path clip-path="url(#clip940)" d="M91.5706 255.413 L99.2095 255.413 L99.2095 229.048 L90.8993 230.714 L90.8993 226.455 L99.1632 224.788 L103.839 224.788 L103.839 255.413 L111.478 255.413 L111.478 259.348 L91.5706 259.348 L91.5706 255.413 Z" fill="#000000" fill-rule="nonzero" fill-opacity="1" /><path clip-path="url(#clip940)" d="M120.922 253.469 L125.807 253.469 L125.807 259.348 L120.922 259.348 L120.922 253.469 Z" fill="#000000" fill-rule="nonzero" fill-opacity="1" /><path clip-path="url(#clip940)" d="M145.992 227.867 Q142.381 227.867 140.552 231.432 Q138.746 234.974 138.746 242.103 Q138.746 249.21 140.552 252.774 Q142.381 256.316 145.992 256.316 Q149.626 256.316 151.431 252.774 Q153.26 249.21 153.26 242.103 Q153.26 234.974 151.431 231.432 Q149.626 227.867 145.992 227.867 M145.992 224.163 Q151.802 224.163 154.857 228.77 Q157.936 233.353 157.936 242.103 Q157.936 250.83 154.857 255.436 Q151.802 260.02 145.992 260.02 Q140.181 260.02 137.103 255.436 Q134.047 250.83 134.047 242.103 Q134.047 233.353 137.103 228.77 Q140.181 224.163 145.992 224.163 Z" fill="#000000" fill-rule="nonzero" fill-opacity="1" /><polyline clip-path="url(#clip941)" style="stroke:#009af9; stroke-linecap:round; stroke-linejoin:round; stroke-width:4; stroke-opacity:1; fill:none" points="255.035,752.952 258.276,747.843 261.517,742.735 264.759,737.628 268,732.522 271.242,727.419 274.483,722.317 277.724,717.219 280.966,712.125 284.207,707.035 287.449,701.949 290.69,696.868 293.931,691.793 297.173,686.724 300.414,681.662 303.655,676.607 306.897,671.559 310.138,666.52 313.38,661.489 316.621,656.467 319.862,651.455 323.104,646.453 326.345,641.462 329.587,636.482 332.828,631.514 336.069,626.557 339.311,621.614 342.552,616.683 345.793,611.766 349.035,606.864 352.276,601.976 355.518,597.103 358.759,592.245 362,587.404 365.242,582.579 368.483,577.771 371.725,572.981 374.966,568.209 378.207,563.455 381.449,558.72 384.69,554.005 387.931,549.309 391.173,544.634 394.414,539.98 397.656,535.347 400.897,530.735 404.138,526.146 407.38,521.58 410.621,517.037 413.863,512.517 417.104,508.021 420.345,503.55 423.587,499.104 426.828,494.683 430.069,490.288 433.311,485.92 436.552,481.578 439.794,477.263 443.035,472.976 446.276,468.716 449.518,464.485 452.759,460.283 456.001,456.111 459.242,451.968 462.483,447.855 465.725,443.772 468.966,439.721 472.208,435.701 475.449,431.712 478.69,427.756 481.932,423.832 485.173,419.941 488.414,416.083 491.656,412.259 494.897,408.469 498.139,404.714 501.38,400.993 504.621,397.308 507.863,393.658 511.104,390.044 514.346,386.467 517.587,382.926 520.828,379.422 524.07,375.955 527.311,372.526 530.552,369.135 533.794,365.783 537.035,362.469 540.277,359.194 543.518,355.959 546.759,352.763 550.001,349.608 553.242,346.492 556.484,343.418 559.725,340.384 562.966,337.391 566.208,334.441 569.449,331.531 572.69,328.665 575.932,325.84 579.173,323.058 582.415,320.32 585.656,317.624 588.897,314.972 592.139,312.364 595.38,309.8 598.622,307.28 601.863,304.805 605.104,302.374 608.346,299.989 611.587,297.649 614.828,295.354 618.07,293.106 621.311,290.903 624.553,288.746 627.794,286.636 631.035,284.572 634.277,282.556 637.518,280.586 640.76,278.664 644.001,276.789 647.242,274.961 650.484,273.182 653.725,271.45 656.966,269.767 660.208,268.131 663.449,266.545 666.691,265.007 669.932,263.517 673.173,262.077 676.415,260.686 679.656,259.344 682.898,258.051 686.139,256.808 689.38,255.615 692.622,254.471 695.863,253.377 699.104,252.333 702.346,251.339 705.587,250.395 708.829,249.502 712.07,248.659 715.311,247.866 718.553,247.124 721.794,246.432 725.036,245.791 728.277,245.201 731.518,244.662 734.76,244.173 738.001,243.735 741.242,243.348 744.484,243.012 747.725,242.727 750.967,242.494 754.208,242.311 757.449,242.179 760.691,242.098 763.932,242.069 767.174,242.09 770.415,242.163 773.656,242.286 776.898,242.461 780.139,242.687 783.381,242.964 786.622,243.291 789.863,243.67 793.105,244.1 796.346,244.58 799.587,245.112 802.829,245.694 806.07,246.327 809.312,247.01 812.553,247.744 815.794,248.529 819.036,249.364 822.277,250.25 825.519,251.186 828.76,252.171 832.001,253.207 835.243,254.293 838.484,255.429 841.725,256.615 844.967,257.85 848.208,259.135 851.45,260.469 854.691,261.852 857.932,263.285 861.174,264.766 864.415,266.296 867.657,267.875 870.898,269.503 874.139,271.179 877.381,272.903 880.622,274.675 883.863,276.494 887.105,278.362 890.346,280.277 893.588,282.239 896.829,284.248 900.07,286.304 903.312,288.407 906.553,290.556 909.795,292.752 913.036,294.993 916.277,297.28 919.519,299.613 922.76,301.991 926.001,304.415 929.243,306.883 932.484,309.395 935.726,311.953 938.967,314.554 942.208,317.199 945.45,319.887 948.691,322.619 951.933,325.394 955.174,328.212 958.415,331.072 961.657,333.974 964.898,336.919 968.139,339.905 971.381,342.932 974.622,346 977.864,349.109 981.105,352.258 984.346,355.447 987.588,358.676 990.829,361.945 994.071,365.252 997.312,368.599 1000.55,371.983 1003.79,375.406 1007.04,378.867 1010.28,382.365 1013.52,385.9 1016.76,389.472 1020,393.08 1023.24,396.724 1026.48,400.404 1029.73,404.119 1032.97,407.869 1036.21,411.653 1039.45,415.472 1042.69,419.324 1045.93,423.21 1049.17,427.129 1052.42,431.08 1055.66,435.063 1058.9,439.078 1062.14,443.125 1065.38,447.202 1068.62,451.311 1071.86,455.449 1075.11,459.617 1078.35,463.814 1081.59,468.041 1084.83,472.295 1088.07,476.578 1091.31,480.889 1094.55,485.226 1097.79,489.591 1101.04,493.982 1104.28,498.398 1107.52,502.841 1110.76,507.308 1114,511.799 1117.24,516.315 1120.48,520.855 1123.73,525.417 1126.97,530.003 1130.21,534.611 1133.45,539.24 1136.69,543.891 1139.93,548.563 1143.17,553.255 1146.42,557.968 1149.66,562.7 1152.9,567.45 1156.14,572.22 1159.38,577.007 1162.62,581.812 1165.86,586.634 1169.11,591.473 1172.35,596.328 1175.59,601.199 1178.83,606.084 1182.07,610.985 1185.31,615.899 1188.55,620.828 1191.8,625.769 1195.04,630.724 1198.28,635.69 1201.52,640.668 1204.76,645.658 1208,650.658 1211.24,655.668 1214.48,660.688 1217.73,665.718 1220.97,670.756 1224.21,675.802 1227.45,680.856 1230.69,685.917 1233.93,690.985 1237.17,696.059 1240.42,701.139 1243.66,706.224 1246.9,711.314 1250.14,716.408 1253.38,721.505 1256.62,726.606 1259.86,731.709 1263.11,736.815 1266.35,741.922 1269.59,747.03 1272.83,752.138 1276.07,757.247 1279.31,762.356 1282.55,767.463 1285.8,772.569 1289.04,777.673 1292.28,782.774 1295.52,787.873 1298.76,792.968 1302,798.059 1305.24,803.146 1308.48,808.227 1311.73,813.303 1314.97,818.373 1318.21,823.437 1321.45,828.493 1324.69,833.542 1327.93,838.583 1331.17,843.615 1334.42,848.638 1337.66,853.651 1340.9,858.655 1344.14,863.648 1347.38,868.63 1350.62,873.6 1353.86,878.558 1357.11,883.504 1360.35,888.436 1363.59,893.355 1366.83,898.261 1370.07,903.151 1373.31,908.026 1376.55,912.886 1379.8,917.73 1383.04,922.558 1386.28,927.368 1389.52,932.161 1392.76,936.937 1396,941.693 1399.24,946.431 1402.49,951.15 1405.73,955.849 1408.97,960.527 1412.21,965.185 1415.45,969.821 1418.69,974.436 1421.93,979.029 1425.17,983.599 1428.42,988.145 1431.66,992.669 1434.9,997.168 1438.14,1001.64 1441.38,1006.09 1444.62,1010.52 1447.86,1014.92 1451.11,1019.29 1454.35,1023.64 1457.59,1027.96 1460.83,1032.25 1464.07,1036.51 1467.31,1040.75 1470.55,1044.95 1473.8,1049.13 1477.04,1053.28 1480.28,1057.4 1483.52,1061.48 1486.76,1065.54 1490,1069.57 1493.24,1073.56 1496.49,1077.52 1499.73,1081.45 1502.97,1085.35 1506.21,1089.21 1509.45,1093.04 1512.69,1096.83 1515.93,1100.59 1519.18,1104.32 1522.42,1108.01 1525.66,1111.67 1528.9,1115.29 1532.14,1118.87 1535.38,1122.42 1538.62,1125.93 1541.86,1129.4 1545.11,1132.83 1548.35,1136.23 1551.59,1139.59 1554.83,1142.91 1558.07,1146.19 1561.31,1149.43 1564.55,1152.63 1567.8,1155.8 1571.04,1158.92 1574.28,1162 1577.52,1165.04 1580.76,1168.04 1584,1171 1587.24,1173.91 1590.49,1176.79 1593.73,1179.62 1596.97,1182.41 1600.21,1185.15 1603.45,1187.85 1606.69,1190.51 1609.93,1193.13 1613.18,1195.7 1616.42,1198.23 1619.66,1200.71 1622.9,1203.15 1626.14,1205.54 1629.38,1207.89 1632.62,1210.19 1635.86,1212.44 1639.11,1214.65 1642.35,1216.82 1645.59,1218.94 1648.83,1221.01 1652.07,1223.03 1655.31,1225.01 1658.55,1226.94 1661.8,1228.82 1665.04,1230.66 1668.28,1232.44 1671.52,1234.18 1674.76,1235.87 1678,1237.52 1681.24,1239.11 1684.49,1240.66 1687.73,1242.15 1690.97,1243.6 1694.21,1245 1697.45,1246.35 1700.69,1247.65 1703.93,1248.9 1707.18,1250.1 1710.42,1251.25 1713.66,1252.36 1716.9,1253.41 1720.14,1254.41 1723.38,1255.36 1726.62,1256.26 1729.87,1257.11 1733.11,1257.92 1736.35,1258.67 1739.59,1259.37 1742.83,1260.01 1746.07,1260.61 1749.31,1261.16 1752.55,1261.66 1755.8,1262.1 1759.04,1262.5 1762.28,1262.84 1765.52,1263.13 1768.76,1263.38 1772,1263.57 1775.24,1263.71 1778.49,1263.8 1781.73,1263.83 1784.97,1263.82 1788.21,1263.76 1791.45,1263.64 1794.69,1263.47 1797.93,1263.26 1801.18,1262.99 1804.42,1262.67 1807.66,1262.3 1810.9,1261.88 1814.14,1261.4 1817.38,1260.88 1820.62,1260.31 1823.87,1259.68 1827.11,1259.01 1830.35,1258.28 1833.59,1257.5 1836.83,1256.68 1840.07,1255.8 1843.31,1254.87 1846.55,1253.89 1849.8,1252.87 1853.04,1251.79 1856.28,1250.66 1859.52,1249.48 1862.76,1248.25 1866,1246.98 1869.24,1245.65 1872.49,1244.28 1875.73,1242.85 1878.97,1241.38 1882.21,1239.85 1885.45,1238.28 1888.69,1236.66 1891.93,1235 1895.18,1233.28 1898.42,1231.52 1901.66,1229.7 1904.9,1227.84 1908.14,1225.94 1911.38,1223.98 1914.62,1221.98 1917.87,1219.93 1921.11,1217.84 1924.35,1215.69 1927.59,1213.51 1930.83,1211.27 1934.07,1208.99 1937.31,1206.67 1940.56,1204.29 1943.8,1201.88 1947.04,1199.42 1950.28,1196.91 1953.52,1194.36 1956.76,1191.77 1960,1189.13 1963.24,1186.45 1966.49,1183.72 1969.73,1180.95 1972.97,1178.14 1976.21,1175.29 1979.45,1172.39 1982.69,1169.46 1985.93,1166.48 1989.18,1163.46 1992.42,1160.4 1995.66,1157.29 1998.9,1154.15 2002.14,1150.97 2005.38,1147.74 2008.62,1144.48 2011.87,1141.18 2015.11,1137.84 2018.35,1134.46 2021.59,1131.05 2024.83,1127.59 2028.07,1124.1 2031.31,1120.57 2034.56,1117 2037.8,1113.4 2041.04,1109.76 2044.28,1106.09 2047.52,1102.38 2050.76,1098.63 2054,1094.86 2057.24,1091.04 2060.49,1087.2 2063.73,1083.32 2066.97,1079.4 2070.21,1075.46 2073.45,1071.48 2076.69,1067.47 2079.93,1063.43 2083.18,1059.35 2086.42,1055.25 2089.66,1051.12 2092.9,1046.95 2096.14,1042.76 2099.38,1038.54 2102.62,1034.29 2105.87,1030.01 2109.11,1025.7 2112.35,1021.37 2115.59,1017.01 2118.83,1012.62 2122.07,1008.21 2125.31,1003.77 2128.56,999.31 2131.8,994.822 2135.04,990.31 2138.28,985.774 2141.52,981.215 2144.76,976.633 2148,972.029 2151.25,967.403 2154.49,962.755 2157.73,958.086 2160.97,953.397 2164.21,948.688 2167.45,943.96 2170.69,939.212 2173.93,934.445 2177.18,929.661 2180.42,924.858 2183.66,920.039 2186.9,915.203 2190.14,910.35 2193.38,905.482 2196.62,900.599 2199.87,895.701 2203.11,890.788 2206.35,885.862 2209.59,880.923 2212.83,875.971 2216.07,871.006 2219.31,866.03 2222.56,861.042 2225.8,856.043 2229.04,851.035 2232.28,846.016 2235.52,840.988 2238.76,835.951 2242,830.906 2245.25,825.853 2248.49,820.793 2251.73,815.726 2254.97,810.653 2258.21,805.574 2261.45,800.49 2264.69,795.401 2267.94,790.308 2271.18,785.211 2274.42,780.111 2277.66,775.008 2280.9,769.903 2284.14,764.796 2287.38,759.688 2290.62,754.579 "/>
<circle clip-path="url(#clip941)" cx="1911.38" cy="1247.13" r="14.4" fill="#e26f46" fill-rule="evenodd" fill-opacity="1" stroke="#000000" stroke-opacity="1" stroke-width="3.2"/>
<circle clip-path="url(#clip941)" cx="400.897" cy="641.914" r="14.4" fill="#e26f46" fill-rule="evenodd" fill-opacity="1" stroke="#000000" stroke-opacity="1" stroke-width="3.2"/>
<circle clip-path="url(#clip941)" cx="2118.83" cy="1010.96" r="14.4" fill="#e26f46" fill-rule="evenodd" fill-opacity="1" stroke="#000000" stroke-opacity="1" stroke-width="3.2"/>
<circle clip-path="url(#clip941)" cx="378.207" cy="553.933" r="14.4" fill="#e26f46" fill-rule="evenodd" fill-opacity="1" stroke="#000000" stroke-opacity="1" stroke-width="3.2"/>
<circle clip-path="url(#clip941)" cx="832.001" cy="215.693" r="14.4" fill="#e26f46" fill-rule="evenodd" fill-opacity="1" stroke="#000000" stroke-opacity="1" stroke-width="3.2"/>
<circle clip-path="url(#clip941)" cx="631.035" cy="376.251" r="14.4" fill="#e26f46" fill-rule="evenodd" fill-opacity="1" stroke="#000000" stroke-opacity="1" stroke-width="3.2"/>
<circle clip-path="url(#clip941)" cx="585.656" cy="341.139" r="14.4" fill="#e26f46" fill-rule="evenodd" fill-opacity="1" stroke="#000000" stroke-opacity="1" stroke-width="3.2"/>
<circle clip-path="url(#clip941)" cx="2157.73" cy="987.034" r="14.4" fill="#e26f46" fill-rule="evenodd" fill-opacity="1" stroke="#000000" stroke-opacity="1" stroke-width="3.2"/>
<circle clip-path="url(#clip941)" cx="1408.97" cy="1060.2" r="14.4" fill="#e26f46" fill-rule="evenodd" fill-opacity="1" stroke="#000000" stroke-opacity="1" stroke-width="3.2"/>
<circle clip-path="url(#clip941)" cx="2109.11" cy="1043.47" r="14.4" fill="#e26f46" fill-rule="evenodd" fill-opacity="1" stroke="#000000" stroke-opacity="1" stroke-width="3.2"/>
<circle clip-path="url(#clip941)" cx="1661.8" cy="1234.89" r="14.4" fill="#e26f46" fill-rule="evenodd" fill-opacity="1" stroke="#000000" stroke-opacity="1" stroke-width="3.2"/>
<circle clip-path="url(#clip941)" cx="433.311" cy="397.6" r="14.4" fill="#e26f46" fill-rule="evenodd" fill-opacity="1" stroke="#000000" stroke-opacity="1" stroke-width="3.2"/>
<circle clip-path="url(#clip941)" cx="280.966" cy="603.354" r="14.4" fill="#e26f46" fill-rule="evenodd" fill-opacity="1" stroke="#000000" stroke-opacity="1" stroke-width="3.2"/>
<circle clip-path="url(#clip941)" cx="1133.45" cy="599.998" r="14.4" fill="#e26f46" fill-rule="evenodd" fill-opacity="1" stroke="#000000" stroke-opacity="1" stroke-width="3.2"/>
<circle clip-path="url(#clip941)" cx="1036.21" cy="400.269" r="14.4" fill="#e26f46" fill-rule="evenodd" fill-opacity="1" stroke="#000000" stroke-opacity="1" stroke-width="3.2"/>
<circle clip-path="url(#clip941)" cx="2177.18" cy="1035.93" r="14.4" fill="#e26f46" fill-rule="evenodd" fill-opacity="1" stroke="#000000" stroke-opacity="1" stroke-width="3.2"/>
<circle clip-path="url(#clip941)" cx="1117.24" cy="419.838" r="14.4" fill="#e26f46" fill-rule="evenodd" fill-opacity="1" stroke="#000000" stroke-opacity="1" stroke-width="3.2"/>
<circle clip-path="url(#clip941)" cx="968.139" cy="333.978" r="14.4" fill="#e26f46" fill-rule="evenodd" fill-opacity="1" stroke="#000000" stroke-opacity="1" stroke-width="3.2"/>
<circle clip-path="url(#clip941)" cx="1311.73" cy="809.624" r="14.4" fill="#e26f46" fill-rule="evenodd" fill-opacity="1" stroke="#000000" stroke-opacity="1" stroke-width="3.2"/>
<circle clip-path="url(#clip941)" cx="1480.28" cy="1150.42" r="14.4" fill="#e26f46" fill-rule="evenodd" fill-opacity="1" stroke="#000000" stroke-opacity="1" stroke-width="3.2"/>
<path clip-path="url(#clip941)" d="M255.035 867.724 L258.276 862.855 L261.517 858.019 L264.759 853.22 L268 848.464 L271.242 843.759 L274.483 839.11 L277.724 834.523 L280.966 830.005 L284.207 825.56 L287.449 821.185 L290.69 816.874 L293.931 812.621 L297.173 808.422 L300.414 804.271 L303.655 800.164 L306.897 796.095 L310.138 792.061 L313.38 788.058 L316.621 784.082 L319.862 780.13 L323.104 776.2 L326.345 772.29 L329.587 768.399 L332.828 764.525 L336.069 760.67 L339.311 756.833 L342.552 753.016 L345.793 749.221 L349.035 745.452 L352.276 741.711 L355.518 738.003 L358.759 734.333 L362 730.707 L365.242 727.132 L368.483 723.613 L371.725 720.16 L374.966 716.78 L378.207 713.481 L381.449 710.27 L384.69 707.151 L387.931 704.122 L391.173 701.186 L394.414 698.343 L397.656 695.594 L400.897 692.94 L404.138 690.382 L407.38 687.918 L410.621 685.548 L413.863 683.27 L417.104 681.083 L420.345 678.986 L423.587 676.978 L426.828 675.059 L430.069 673.229 L433.311 671.49 L436.552 669.839 L439.794 668.265 L443.035 666.756 L446.276 665.3 L449.518 663.886 L452.759 662.501 L456.001 661.137 L459.242 659.782 L462.483 658.429 L465.725 657.068 L468.966 655.692 L472.208 654.295 L475.449 652.87 L478.69 651.411 L481.932 649.913 L485.173 648.372 L488.414 646.785 L491.656 645.147 L494.897 643.457 L498.139 641.713 L501.38 639.913 L504.621 638.056 L507.863 636.142 L511.104 634.172 L514.346 632.146 L517.587 630.066 L520.828 627.933 L524.07 625.751 L527.311 623.521 L530.552 621.247 L533.794 618.934 L537.035 616.586 L540.277 614.208 L543.518 611.806 L546.759 609.386 L550.001 606.954 L553.242 604.518 L556.484 602.086 L559.725 599.666 L562.966 597.266 L566.208 594.896 L569.449 592.566 L572.69 590.285 L575.932 588.064 L579.173 585.914 L582.415 583.845 L585.656 581.869 L588.897 579.996 L592.139 578.225 L595.38 576.556 L598.622 574.988 L601.863 573.519 L605.104 572.15 L608.346 570.879 L611.587 569.706 L614.828 568.63 L618.07 567.652 L621.311 566.771 L624.553 565.987 L627.794 565.3 L631.035 564.71 L634.277 564.217 L637.518 563.811 L640.76 563.483 L644.001 563.224 L647.242 563.024 L650.484 562.875 L653.725 562.767 L656.966 562.692 L660.208 562.642 L663.449 562.61 L666.691 562.588 L669.932 562.569 L673.173 562.546 L676.415 562.514 L679.656 562.468 L682.898 562.401 L686.139 562.309 L689.38 562.187 L692.622 562.033 L695.863 561.841 L699.104 561.609 L702.346 561.334 L705.587 561.014 L708.829 560.646 L712.07 560.229 L715.311 559.761 L718.553 559.242 L721.794 558.67 L725.036 558.046 L728.277 557.369 L731.518 556.639 L734.76 555.858 L738.001 555.025 L741.242 554.143 L744.484 553.213 L747.725 552.237 L750.967 551.216 L754.208 550.154 L757.449 549.053 L760.691 547.916 L763.932 546.747 L767.174 545.55 L770.415 544.328 L773.656 543.087 L776.898 541.83 L780.139 540.562 L783.381 539.29 L786.622 538.019 L789.863 536.754 L793.105 535.502 L796.346 534.27 L799.587 533.064 L802.829 531.892 L806.07 530.761 L809.312 529.679 L812.553 528.654 L815.794 527.694 L819.036 526.807 L822.277 526.002 L825.519 525.287 L828.76 524.673 L832.001 524.166 L835.243 523.773 L838.484 523.49 L841.725 523.31 L844.967 523.225 L848.208 523.228 L851.45 523.312 L854.691 523.47 L857.932 523.696 L861.174 523.983 L864.415 524.326 L867.657 524.718 L870.898 525.154 L874.139 525.628 L877.381 526.137 L880.622 526.676 L883.863 527.241 L887.105 527.828 L890.346 528.434 L893.588 529.056 L896.829 529.692 L900.07 530.341 L903.312 531.001 L906.553 531.67 L909.795 532.349 L913.036 533.038 L916.277 533.736 L919.519 534.445 L922.76 535.167 L926.001 535.902 L929.243 536.654 L932.484 537.424 L935.726 538.218 L938.967 539.037 L942.208 539.887 L945.45 540.772 L948.691 541.696 L951.933 542.667 L955.174 543.689 L958.415 544.768 L961.657 545.912 L964.898 547.127 L968.139 548.42 L971.381 549.797 L974.622 551.256 L977.864 552.793 L981.105 554.406 L984.346 556.091 L987.588 557.846 L990.829 559.669 L994.071 561.558 L997.312 563.511 L1000.55 565.529 L1003.79 567.609 L1007.04 569.754 L1010.28 571.963 L1013.52 574.238 L1016.76 576.581 L1020 578.994 L1023.24 581.48 L1026.48 584.042 L1029.73 586.684 L1032.97 589.411 L1036.21 592.226 L1039.45 595.135 L1042.69 598.133 L1045.93 601.216 L1049.17 604.382 L1052.42 607.625 L1055.66 610.945 L1058.9 614.338 L1062.14 617.802 L1065.38 621.339 L1068.62 624.946 L1071.86 628.625 L1075.11 632.376 L1078.35 636.203 L1081.59 640.106 L1084.83 644.091 L1088.07 648.161 L1091.31 652.32 L1094.55 656.575 L1097.79 660.931 L1101.04 665.394 L1104.28 669.973 L1107.52 674.674 L1110.76 679.505 L1114 684.474 L1117.24 689.589 L1120.48 694.857 L1123.73 700.274 L1126.97 705.834 L1130.21 711.531 L1133.45 717.359 L1136.69 723.312 L1139.93 729.378 L1143.17 735.546 L1146.42 741.803 L1149.66 748.138 L1152.9 754.539 L1156.14 760.997 L1159.38 767.499 L1162.62 774.037 L1165.86 780.6 L1169.11 787.18 L1172.35 793.768 L1175.59 800.357 L1178.83 806.938 L1182.07 813.505 L1185.31 820.051 L1188.55 826.57 L1191.8 833.057 L1195.04 839.506 L1198.28 845.914 L1201.52 852.276 L1204.76 858.588 L1208 864.847 L1211.24 871.051 L1214.48 877.196 L1217.73 883.28 L1220.97 889.303 L1224.21 895.262 L1227.45 901.157 L1230.69 906.987 L1233.93 912.751 L1237.17 918.451 L1240.42 924.086 L1243.66 929.656 L1246.9 935.164 L1250.14 940.611 L1253.38 945.997 L1256.62 951.327 L1259.86 956.601 L1263.11 961.822 L1266.35 966.995 L1269.59 972.122 L1272.83 977.206 L1276.07 982.253 L1279.31 987.266 L1282.55 992.249 L1285.8 997.209 L1289.04 1002.15 L1292.28 1007.08 L1295.52 1012 L1298.76 1016.92 L1302 1021.84 L1305.24 1026.77 L1308.48 1031.72 L1311.73 1036.7 L1314.97 1041.7 L1318.21 1046.73 L1321.45 1051.78 L1324.69 1056.84 L1327.93 1061.91 L1331.17 1066.98 L1334.42 1072.06 L1337.66 1077.13 L1340.9 1082.19 L1344.14 1087.24 L1347.38 1092.28 L1350.62 1097.29 L1353.86 1102.28 L1357.11 1107.25 L1360.35 1112.19 L1363.59 1117.11 L1366.83 1121.99 L1370.07 1126.85 L1373.31 1131.67 L1376.55 1136.46 L1379.8 1141.23 L1383.04 1145.97 L1386.28 1150.68 L1389.52 1155.36 L1392.76 1160.02 L1396 1164.67 L1399.24 1169.29 L1402.49 1173.9 L1405.73 1178.5 L1408.97 1183.09 L1412.21 1187.68 L1415.45 1192.26 L1418.69 1196.83 L1421.93 1201.39 L1425.17 1205.93 L1428.42 1210.46 L1431.66 1214.96 L1434.9 1219.45 L1438.14 1223.91 L1441.38 1228.35 L1444.62 1232.76 L1447.86 1237.15 L1451.11 1241.51 L1454.35 1245.85 L1457.59 1250.16 L1460.83 1254.44 L1464.07 1258.7 L1467.31 1262.94 L1470.55 1267.15 L1473.8 1271.35 L1477.04 1275.52 L1480.28 1279.68 L1483.52 1283.81 L1486.76 1287.93 L1490 1292.01 L1493.24 1296.06 L1496.49 1300.08 L1499.73 1304.05 L1502.97 1307.97 L1506.21 1311.84 L1509.45 1315.65 L1512.69 1319.39 L1515.93 1323.08 L1519.18 1326.69 L1522.42 1330.23 L1525.66 1333.69 L1528.9 1337.07 L1532.14 1340.37 L1535.38 1343.59 L1538.62 1346.73 L1541.86 1349.77 L1545.11 1352.73 L1548.35 1355.6 L1551.59 1358.38 L1554.83 1361.07 L1558.07 1363.67 L1561.31 1366.18 L1564.55 1368.6 L1567.8 1370.93 L1571.04 1373.17 L1574.28 1375.33 L1577.52 1377.4 L1580.76 1379.39 L1584 1381.29 L1587.24 1383.12 L1590.49 1384.87 L1593.73 1386.55 L1596.97 1388.16 L1600.21 1389.7 L1603.45 1391.17 L1606.69 1392.59 L1609.93 1393.95 L1613.18 1395.27 L1616.42 1396.53 L1619.66 1397.75 L1622.9 1398.94 L1626.14 1400.09 L1629.38 1401.22 L1632.62 1402.33 L1635.86 1403.42 L1639.11 1404.5 L1642.35 1405.58 L1645.59 1406.67 L1648.83 1407.76 L1652.07 1408.86 L1655.31 1409.98 L1658.55 1411.13 L1661.8 1412.32 L1665.04 1413.53 L1668.28 1414.78 L1671.52 1416.05 L1674.76 1417.35 L1678 1418.67 L1681.24 1420 L1684.49 1421.33 L1687.73 1422.67 L1690.97 1424.01 L1694.21 1425.35 L1697.45 1426.67 L1700.69 1427.98 L1703.93 1429.27 L1707.18 1430.53 L1710.42 1431.77 L1713.66 1432.97 L1716.9 1434.14 L1720.14 1435.27 L1723.38 1436.35 L1726.62 1437.39 L1729.87 1438.38 L1733.11 1439.32 L1736.35 1440.2 L1739.59 1441.02 L1742.83 1441.79 L1746.07 1442.49 L1749.31 1443.13 L1752.55 1443.7 L1755.8 1444.2 L1759.04 1444.64 L1762.28 1445 L1765.52 1445.29 L1768.76 1445.51 L1772 1445.65 L1775.24 1445.72 L1778.49 1445.71 L1781.73 1445.62 L1784.97 1445.46 L1788.21 1445.22 L1791.45 1444.9 L1794.69 1444.51 L1797.93 1444.03 L1801.18 1443.48 L1804.42 1442.86 L1807.66 1442.15 L1810.9 1441.37 L1814.14 1440.52 L1817.38 1439.59 L1820.62 1438.59 L1823.87 1437.52 L1827.11 1436.37 L1830.35 1435.16 L1833.59 1433.88 L1836.83 1432.53 L1840.07 1431.12 L1843.31 1429.65 L1846.55 1428.12 L1849.8 1426.54 L1853.04 1424.9 L1856.28 1423.21 L1859.52 1421.47 L1862.76 1419.68 L1866 1417.86 L1869.24 1415.99 L1872.49 1414.09 L1875.73 1412.16 L1878.97 1410.21 L1882.21 1408.22 L1885.45 1406.22 L1888.69 1404.21 L1891.93 1402.18 L1895.18 1400.15 L1898.42 1398.11 L1901.66 1396.08 L1904.9 1394.05 L1908.14 1392.03 L1911.38 1390.02 L1914.62 1388.03 L1917.87 1386.06 L1921.11 1384.08 L1924.35 1382.12 L1927.59 1380.15 L1930.83 1378.18 L1934.07 1376.19 L1937.31 1374.19 L1940.56 1372.17 L1943.8 1370.12 L1947.04 1368.04 L1950.28 1365.92 L1953.52 1363.77 L1956.76 1361.58 L1960 1359.33 L1963.24 1357.04 L1966.49 1354.68 L1969.73 1352.28 L1972.97 1349.8 L1976.21 1347.27 L1979.45 1344.67 L1982.69 1341.99 L1985.93 1339.25 L1989.18 1336.43 L1992.42 1333.53 L1995.66 1330.56 L1998.9 1327.51 L2002.14 1324.38 L2005.38 1321.17 L2008.62 1317.88 L2011.87 1314.5 L2015.11 1311.05 L2018.35 1307.52 L2021.59 1303.91 L2024.83 1300.23 L2028.07 1296.47 L2031.31 1292.63 L2034.56 1288.72 L2037.8 1284.75 L2041.04 1280.71 L2044.28 1276.6 L2047.52 1272.44 L2050.76 1268.23 L2054 1263.97 L2057.24 1259.66 L2060.49 1255.32 L2063.73 1250.96 L2066.97 1246.57 L2070.21 1242.17 L2073.45 1237.76 L2076.69 1233.37 L2079.93 1228.99 L2083.18 1224.64 L2086.42 1220.33 L2089.66 1216.08 L2092.9 1211.9 L2096.14 1207.8 L2099.38 1203.81 L2102.62 1199.94 L2105.87 1196.21 L2109.11 1192.63 L2112.35 1189.23 L2115.59 1186.01 L2118.83 1182.99 L2122.07 1180.17 L2125.31 1177.57 L2128.56 1175.17 L2131.8 1173 L2135.04 1171.03 L2138.28 1169.29 L2141.52 1167.77 L2144.76 1166.47 L2148 1165.39 L2151.25 1164.53 L2154.49 1163.91 L2157.73 1163.51 L2160.97 1163.33 L2164.21 1163.38 L2167.45 1163.64 L2170.69 1164.1 L2173.93 1164.76 L2177.18 1165.6 L2180.42 1166.62 L2183.66 1167.8 L2186.9 1169.13 L2190.14 1170.59 L2193.38 1172.18 L2196.62 1173.87 L2199.87 1175.66 L2203.11 1177.54 L2206.35 1179.49 L2209.59 1181.5 L2212.83 1183.57 L2216.07 1185.68 L2219.31 1187.84 L2222.56 1190.02 L2225.8 1192.24 L2229.04 1194.47 L2232.28 1196.71 L2235.52 1198.96 L2238.76 1201.22 L2242 1203.47 L2245.25 1205.72 L2248.49 1207.96 L2251.73 1210.19 L2254.97 1212.41 L2258.21 1214.61 L2261.45 1216.79 L2264.69 1218.94 L2267.94 1221.08 L2271.18 1223.19 L2274.42 1225.27 L2277.66 1227.32 L2280.9 1229.35 L2284.14 1231.34 L2287.38 1233.31 L2290.62 1235.24 L2290.62 615.142 L2287.38 620.662 L2284.14 626.234 L2280.9 631.858 L2277.66 637.531 L2274.42 643.253 L2271.18 649.021 L2267.94 654.834 L2264.69 660.69 L2261.45 666.587 L2258.21 672.521 L2254.97 678.491 L2251.73 684.494 L2248.49 690.525 L2245.25 696.582 L2242 702.661 L2238.76 708.757 L2235.52 714.867 L2232.28 720.983 L2229.04 727.103 L2225.8 733.219 L2222.56 739.324 L2219.31 745.413 L2216.07 751.477 L2212.83 757.509 L2209.59 763.499 L2206.35 769.437 L2203.11 775.315 L2199.87 781.12 L2196.62 786.841 L2193.38 792.465 L2190.14 797.98 L2186.9 803.371 L2183.66 808.623 L2180.42 813.722 L2177.18 818.651 L2173.93 823.396 L2170.69 827.95 L2167.45 832.307 L2164.21 836.463 L2160.97 840.411 L2157.73 844.145 L2154.49 847.662 L2151.25 850.961 L2148 854.047 L2144.76 856.92 L2141.52 859.583 L2138.28 862.04 L2135.04 864.292 L2131.8 866.343 L2128.56 868.194 L2125.31 869.848 L2122.07 871.309 L2118.83 872.578 L2115.59 873.661 L2112.35 874.565 L2109.11 875.301 L2105.87 875.88 L2102.62 876.319 L2099.38 876.636 L2096.14 876.849 L2092.9 876.975 L2089.66 877.029 L2086.42 877.026 L2083.18 876.981 L2079.93 876.906 L2076.69 876.815 L2073.45 876.717 L2070.21 876.623 L2066.97 876.543 L2063.73 876.484 L2060.49 876.455 L2057.24 876.463 L2054 876.513 L2050.76 876.611 L2047.52 876.761 L2044.28 876.968 L2041.04 877.235 L2037.8 877.565 L2034.56 877.961 L2031.31 878.423 L2028.07 878.954 L2024.83 879.555 L2021.59 880.226 L2018.35 880.966 L2015.11 881.776 L2011.87 882.654 L2008.62 883.6 L2005.38 884.612 L2002.14 885.688 L1998.9 886.825 L1995.66 888.021 L1992.42 889.273 L1989.18 890.578 L1985.93 891.931 L1982.69 893.328 L1979.45 894.766 L1976.21 896.239 L1972.97 897.742 L1969.73 899.269 L1966.49 900.816 L1963.24 902.375 L1960 903.941 L1956.76 905.506 L1953.52 907.064 L1950.28 908.607 L1947.04 910.127 L1943.8 911.617 L1940.56 913.068 L1937.31 914.472 L1934.07 915.82 L1930.83 917.103 L1927.59 918.313 L1924.35 919.44 L1921.11 920.475 L1917.87 921.409 L1914.62 922.233 L1911.38 922.936 L1908.14 923.514 L1904.9 923.972 L1901.66 924.316 L1898.42 924.556 L1895.18 924.699 L1891.93 924.753 L1888.69 924.726 L1885.45 924.627 L1882.21 924.462 L1878.97 924.239 L1875.73 923.966 L1872.49 923.649 L1869.24 923.295 L1866 922.912 L1862.76 922.504 L1859.52 922.08 L1856.28 921.643 L1853.04 921.201 L1849.8 920.757 L1846.55 920.318 L1843.31 919.888 L1840.07 919.471 L1836.83 919.072 L1833.59 918.694 L1830.35 918.342 L1827.11 918.019 L1823.87 917.727 L1820.62 917.471 L1817.38 917.251 L1814.14 917.072 L1810.9 916.935 L1807.66 916.843 L1804.42 916.796 L1801.18 916.796 L1797.93 916.845 L1794.69 916.944 L1791.45 917.092 L1788.21 917.292 L1784.97 917.544 L1781.73 917.846 L1778.49 918.2 L1775.24 918.605 L1772 919.06 L1768.76 919.565 L1765.52 920.118 L1762.28 920.718 L1759.04 921.364 L1755.8 922.054 L1752.55 922.786 L1749.31 923.558 L1746.07 924.367 L1742.83 925.211 L1739.59 926.086 L1736.35 926.989 L1733.11 927.917 L1729.87 928.866 L1726.62 929.831 L1723.38 930.809 L1720.14 931.795 L1716.9 932.784 L1713.66 933.771 L1710.42 934.75 L1707.18 935.716 L1703.93 936.662 L1700.69 937.583 L1697.45 938.472 L1694.21 939.321 L1690.97 940.124 L1687.73 940.874 L1684.49 941.564 L1681.24 942.185 L1678 942.729 L1674.76 943.19 L1671.52 943.559 L1668.28 943.827 L1665.04 943.988 L1661.8 944.032 L1658.55 943.955 L1655.31 943.761 L1652.07 943.458 L1648.83 943.053 L1645.59 942.554 L1642.35 941.969 L1639.11 941.304 L1635.86 940.567 L1632.62 939.764 L1629.38 938.904 L1626.14 937.992 L1622.9 937.035 L1619.66 936.04 L1616.42 935.01 L1613.18 933.954 L1609.93 932.874 L1606.69 931.777 L1603.45 930.668 L1600.21 929.549 L1596.97 928.425 L1593.73 927.299 L1590.49 926.175 L1587.24 925.055 L1584 923.942 L1580.76 922.837 L1577.52 921.742 L1574.28 920.658 L1571.04 919.587 L1567.8 918.528 L1564.55 917.482 L1561.31 916.449 L1558.07 915.427 L1554.83 914.416 L1551.59 913.414 L1548.35 912.419 L1545.11 911.43 L1541.86 910.443 L1538.62 909.455 L1535.38 908.463 L1532.14 907.462 L1528.9 906.45 L1525.66 905.42 L1522.42 904.368 L1519.18 903.288 L1515.93 902.173 L1512.69 901.018 L1509.45 899.816 L1506.21 898.559 L1502.97 897.239 L1499.73 895.849 L1496.49 894.379 L1493.24 892.822 L1490 891.167 L1486.76 889.405 L1483.52 887.527 L1480.28 885.523 L1477.04 883.384 L1473.8 881.112 L1470.55 878.711 L1467.31 876.184 L1464.07 873.533 L1460.83 870.762 L1457.59 867.873 L1454.35 864.867 L1451.11 861.748 L1447.86 858.516 L1444.62 855.172 L1441.38 851.716 L1438.14 848.148 L1434.9 844.469 L1431.66 840.677 L1428.42 836.772 L1425.17 832.75 L1421.93 828.611 L1418.69 824.352 L1415.45 819.969 L1412.21 815.461 L1408.97 810.824 L1405.73 806.056 L1402.49 801.165 L1399.24 796.159 L1396 791.049 L1392.76 785.841 L1389.52 780.545 L1386.28 775.167 L1383.04 769.717 L1379.8 764.199 L1376.55 758.622 L1373.31 752.99 L1370.07 747.31 L1366.83 741.585 L1363.59 735.821 L1360.35 730.021 L1357.11 724.189 L1353.86 718.328 L1350.62 712.439 L1347.38 706.526 L1344.14 700.588 L1340.9 694.629 L1337.66 688.647 L1334.42 682.644 L1331.17 676.618 L1327.93 670.571 L1324.69 664.5 L1321.45 658.406 L1318.21 652.287 L1314.97 646.141 L1311.73 639.967 L1308.48 633.766 L1305.24 627.544 L1302 621.307 L1298.76 615.062 L1295.52 608.818 L1292.28 602.581 L1289.04 596.357 L1285.8 590.154 L1282.55 583.978 L1279.31 577.834 L1276.07 571.729 L1272.83 565.668 L1269.59 559.655 L1266.35 553.697 L1263.11 547.797 L1259.86 541.96 L1256.62 536.189 L1253.38 530.489 L1250.14 524.862 L1246.9 519.312 L1243.66 513.841 L1240.42 508.451 L1237.17 503.145 L1233.93 497.924 L1230.69 492.789 L1227.45 487.742 L1224.21 482.783 L1220.97 477.913 L1217.73 473.132 L1214.48 468.44 L1211.24 463.835 L1208 459.317 L1204.76 454.885 L1201.52 450.537 L1198.28 446.271 L1195.04 442.084 L1191.8 437.974 L1188.55 433.937 L1185.31 429.971 L1182.07 426.07 L1178.83 422.23 L1175.59 418.446 L1172.35 414.714 L1169.11 411.026 L1165.86 407.378 L1162.62 403.761 L1159.38 400.169 L1156.14 396.594 L1152.9 393.028 L1149.66 389.463 L1146.42 385.889 L1143.17 382.298 L1139.93 378.68 L1136.69 375.025 L1133.45 371.324 L1130.21 367.57 L1126.97 363.762 L1123.73 359.902 L1120.48 355.995 L1117.24 352.042 L1114 348.046 L1110.76 344.014 L1107.52 339.953 L1104.28 335.868 L1101.04 331.767 L1097.79 327.655 L1094.55 323.539 L1091.31 319.423 L1088.07 315.314 L1084.83 311.214 L1081.59 307.129 L1078.35 303.063 L1075.11 299.016 L1071.86 294.993 L1068.62 290.995 L1065.38 287.022 L1062.14 283.076 L1058.9 279.156 L1055.66 275.26 L1052.42 271.389 L1049.17 267.541 L1045.93 263.712 L1042.69 259.901 L1039.45 256.103 L1036.21 252.317 L1032.97 248.539 L1029.73 244.773 L1026.48 241.021 L1023.24 237.287 L1020 233.574 L1016.76 229.885 L1013.52 226.222 L1010.28 222.587 L1007.04 218.981 L1003.79 215.405 L1000.55 211.86 L997.312 208.346 L994.071 204.863 L990.829 201.411 L987.588 197.988 L984.346 194.593 L981.105 191.224 L977.864 187.881 L974.622 184.56 L971.381 181.26 L968.139 177.977 L964.898 174.712 L961.657 171.469 L958.415 168.252 L955.174 165.068 L951.933 161.922 L948.691 158.819 L945.45 155.763 L942.208 152.76 L938.967 149.814 L935.726 146.928 L932.484 144.107 L929.243 141.354 L926.001 138.671 L922.76 136.062 L919.519 133.528 L916.277 131.073 L913.036 128.697 L909.795 126.401 L906.553 124.188 L903.312 122.057 L900.07 120.008 L896.829 118.042 L893.588 116.159 L890.346 114.357 L887.105 112.636 L883.863 110.994 L880.622 109.431 L877.381 107.943 L874.139 106.53 L870.898 105.188 L867.657 103.915 L864.415 102.709 L861.174 101.565 L857.932 100.482 L854.691 99.4561 L851.45 98.4831 L848.208 97.5598 L844.967 96.6826 L841.725 95.848 L838.484 95.0522 L835.243 94.2917 L832.001 93.5632 L828.76 92.8643 L825.519 92.1974 L822.277 91.5658 L819.036 90.9731 L815.794 90.4231 L812.553 89.9193 L809.312 89.4654 L806.07 89.065 L802.829 88.7217 L799.587 88.4389 L796.346 88.2198 L793.105 88.0677 L789.863 87.9856 L786.622 87.9763 L783.381 88.0425 L780.139 88.1867 L776.898 88.4113 L773.656 88.7183 L770.415 89.1096 L767.174 89.5871 L763.932 90.1521 L760.691 90.806 L757.449 91.5499 L754.208 92.3848 L750.967 93.3113 L747.725 94.33 L744.484 95.4411 L741.242 96.6447 L738.001 97.9407 L734.76 99.3288 L731.518 100.808 L728.277 102.379 L725.036 104.039 L721.794 105.788 L718.553 107.624 L715.311 109.546 L712.07 111.551 L708.829 113.638 L705.587 115.804 L702.346 118.046 L699.104 120.362 L695.863 122.748 L692.622 125.202 L689.38 127.718 L686.139 130.294 L682.898 132.924 L679.656 135.605 L676.415 138.331 L673.173 141.096 L669.932 143.896 L666.691 146.724 L663.449 149.574 L660.208 152.439 L656.966 155.312 L653.725 158.187 L650.484 161.054 L647.242 163.908 L644.001 166.738 L640.76 169.538 L637.518 172.299 L634.277 175.012 L631.035 177.668 L627.794 180.261 L624.553 182.791 L621.311 185.26 L618.07 187.67 L614.828 190.022 L611.587 192.319 L608.346 194.563 L605.104 196.755 L601.863 198.898 L598.622 200.993 L595.38 203.043 L592.139 205.047 L588.897 207.01 L585.656 208.931 L582.415 210.815 L579.173 212.668 L575.932 214.5 L572.69 216.318 L569.449 218.132 L566.208 219.95 L562.966 221.779 L559.725 223.627 L556.484 225.502 L553.242 227.411 L550.001 229.36 L546.759 231.354 L543.518 233.401 L540.277 235.505 L537.035 237.67 L533.794 239.902 L530.552 242.204 L527.311 244.579 L524.07 247.031 L520.828 249.562 L517.587 252.174 L514.346 254.868 L511.104 257.647 L507.863 260.509 L504.621 263.457 L501.38 266.488 L498.139 269.604 L494.897 272.801 L491.656 276.08 L488.414 279.436 L485.173 282.869 L481.932 286.374 L478.69 289.948 L475.449 293.586 L472.208 297.283 L468.966 301.035 L465.725 304.834 L462.483 308.674 L459.242 312.549 L456.001 316.449 L452.759 320.366 L449.518 324.292 L446.276 328.216 L443.035 332.128 L439.794 336.018 L436.552 339.873 L433.311 343.682 L430.069 347.433 L426.828 351.117 L423.587 354.723 L420.345 358.241 L417.104 361.66 L413.863 364.97 L410.621 368.16 L407.38 371.218 L404.138 374.133 L400.897 376.893 L397.656 379.488 L394.414 381.919 L391.173 384.187 L387.931 386.295 L384.69 388.243 L381.449 390.035 L378.207 391.671 L374.966 393.155 L371.725 394.494 L368.483 395.698 L365.242 396.777 L362 397.738 L358.759 398.591 L355.518 399.341 L352.276 399.998 L349.035 400.565 L345.793 401.049 L342.552 401.455 L339.311 401.786 L336.069 402.046 L332.828 402.236 L329.587 402.359 L326.345 402.416 L323.104 402.407 L319.862 402.331 L316.621 402.189 L313.38 401.978 L310.138 401.697 L306.897 401.343 L303.655 400.913 L300.414 400.405 L297.173 399.814 L293.931 399.137 L290.69 398.37 L287.449 397.509 L284.207 396.549 L280.966 395.485 L277.724 394.316 L274.483 393.046 L271.242 391.682 L268 390.229 L264.759 388.694 L261.517 387.084 L258.276 385.404 L255.035 383.661  Z" fill="#3da44d" fill-rule="evenodd" fill-opacity="0.1"/>
<polyline clip-path="url(#clip941)" style="stroke:#3da44d; stroke-linecap:round; stroke-linejoin:round; stroke-width:8; stroke-opacity:1; fill:none" points="255.035,625.692 258.276,624.13 261.517,622.551 264.759,620.957 268,619.347 271.242,617.72 274.483,616.078 277.724,614.42 280.966,612.745 284.207,611.054 287.449,609.347 290.69,607.622 293.931,605.879 297.173,604.118 300.414,602.338 303.655,600.538 306.897,598.719 310.138,596.879 313.38,595.018 316.621,593.135 319.862,591.231 323.104,589.303 326.345,587.353 329.587,585.379 332.828,583.381 336.069,581.358 339.311,579.309 342.552,577.236 345.793,575.135 349.035,573.008 352.276,570.854 355.518,568.672 358.759,566.462 362,564.223 365.242,561.954 368.483,559.656 371.725,557.327 374.966,554.967 378.207,552.576 381.449,550.153 384.69,547.697 387.931,545.208 391.173,542.687 394.414,540.131 397.656,537.541 400.897,534.916 404.138,532.257 407.38,529.568 410.621,526.854 413.863,524.12 417.104,521.371 420.345,518.613 423.587,515.85 426.828,513.088 430.069,510.331 433.311,507.586 436.552,504.856 439.794,502.141 443.035,499.442 446.276,496.758 449.518,494.089 452.759,491.434 456.001,488.793 459.242,486.165 462.483,483.551 465.725,480.951 468.966,478.364 472.208,475.789 475.449,473.228 478.69,470.679 481.932,468.143 485.173,465.621 488.414,463.11 491.656,460.613 494.897,458.129 498.139,455.658 501.38,453.2 504.621,450.756 507.863,448.326 511.104,445.909 514.346,443.507 517.587,441.12 520.828,438.748 524.07,436.391 527.311,434.05 530.552,431.726 533.794,429.418 537.035,427.128 540.277,424.857 543.518,422.604 546.759,420.37 550.001,418.157 553.242,415.965 556.484,413.794 559.725,411.647 562.966,409.522 566.208,407.423 569.449,405.349 572.69,403.302 575.932,401.282 579.173,399.291 582.415,397.33 585.656,395.4 588.897,393.503 592.139,391.636 595.38,389.799 598.622,387.991 601.863,386.209 605.104,384.453 608.346,382.721 611.587,381.013 614.828,379.326 618.07,377.661 621.311,376.016 624.553,374.389 627.794,372.781 631.035,371.189 634.277,369.614 637.518,368.055 640.76,366.511 644.001,364.981 647.242,363.466 650.484,361.964 653.725,360.477 656.966,359.002 660.208,357.541 663.449,356.092 666.691,354.656 669.932,353.232 673.173,351.821 676.415,350.423 679.656,349.036 682.898,347.662 686.139,346.301 689.38,344.953 692.622,343.617 695.863,342.295 699.104,340.985 702.346,339.69 705.587,338.409 708.829,337.142 712.07,335.89 715.311,334.653 718.553,333.433 721.794,332.229 725.036,331.043 728.277,329.874 731.518,328.724 734.76,327.593 738.001,326.483 741.242,325.394 744.484,324.327 747.725,323.283 750.967,322.264 754.208,321.269 757.449,320.301 760.691,319.361 763.932,318.45 767.174,317.569 770.415,316.719 773.656,315.902 776.898,315.12 780.139,314.374 783.381,313.666 786.622,312.997 789.863,312.37 793.105,311.785 796.346,311.245 799.587,310.751 802.829,310.307 806.07,309.913 809.312,309.572 812.553,309.287 815.794,309.058 819.036,308.89 822.277,308.784 825.519,308.742 828.76,308.768 832.001,308.864 835.243,309.032 838.484,309.271 841.725,309.579 844.967,309.954 848.208,310.394 851.45,310.897 854.691,311.463 857.932,312.089 861.174,312.774 864.415,313.517 867.657,314.316 870.898,315.171 874.139,316.079 877.381,317.04 880.622,318.053 883.863,319.118 887.105,320.232 890.346,321.395 893.588,322.607 896.829,323.867 900.07,325.175 903.312,326.529 906.553,327.929 909.795,329.375 913.036,330.867 916.277,332.404 919.519,333.987 922.76,335.614 926.001,337.286 929.243,339.004 932.484,340.766 935.726,342.573 938.967,344.425 942.208,346.324 945.45,348.267 948.691,350.258 951.933,352.294 955.174,354.378 958.415,356.51 961.657,358.69 964.898,360.92 968.139,363.199 971.381,365.528 974.622,367.908 977.864,370.337 981.105,372.815 984.346,375.342 987.588,377.917 990.829,380.54 994.071,383.211 997.312,385.929 1000.55,388.694 1003.79,391.507 1007.04,394.367 1010.28,397.275 1013.52,400.23 1016.76,403.233 1020,406.284 1023.24,409.383 1026.48,412.531 1029.73,415.728 1032.97,418.975 1036.21,422.272 1039.45,425.619 1042.69,429.017 1045.93,432.464 1049.17,435.961 1052.42,439.507 1055.66,443.103 1058.9,446.747 1062.14,450.439 1065.38,454.181 1068.62,457.97 1071.86,461.809 1075.11,465.696 1078.35,469.633 1081.59,473.618 1084.83,477.653 1088.07,481.737 1091.31,485.872 1094.55,490.057 1097.79,494.293 1101.04,498.581 1104.28,502.921 1107.52,507.313 1110.76,511.759 1114,516.26 1117.24,520.815 1120.48,525.426 1123.73,530.088 1126.97,534.798 1130.21,539.55 1133.45,544.342 1136.69,549.169 1139.93,554.029 1143.17,558.922 1146.42,563.846 1149.66,568.8 1152.9,573.784 1156.14,578.795 1159.38,583.834 1162.62,588.899 1165.86,593.989 1169.11,599.103 1172.35,604.241 1175.59,609.402 1178.83,614.584 1182.07,619.787 1185.31,625.011 1188.55,630.254 1191.8,635.515 1195.04,640.795 1198.28,646.092 1201.52,651.406 1204.76,656.737 1208,662.082 1211.24,667.443 1214.48,672.818 1217.73,678.206 1220.97,683.608 1224.21,689.023 1227.45,694.45 1230.69,699.888 1233.93,705.337 1237.17,710.798 1240.42,716.268 1243.66,721.748 1246.9,727.238 1250.14,732.736 1253.38,738.243 1256.62,743.758 1259.86,749.28 1263.11,754.81 1266.35,760.346 1269.59,765.888 1272.83,771.437 1276.07,776.991 1279.31,782.55 1282.55,788.114 1285.8,793.682 1289.04,799.254 1292.28,804.829 1295.52,810.408 1298.76,815.989 1302,821.572 1305.24,827.158 1308.48,832.745 1311.73,838.332 1314.97,843.92 1318.21,849.507 1321.45,855.091 1324.69,860.669 1327.93,866.24 1331.17,871.802 1334.42,877.352 1337.66,882.889 1340.9,888.411 1344.14,893.916 1347.38,899.402 1350.62,904.866 1353.86,910.306 1357.11,915.721 1360.35,921.107 1363.59,926.464 1366.83,931.788 1370.07,937.077 1373.31,942.33 1376.55,947.543 1379.8,952.714 1383.04,957.842 1386.28,962.922 1389.52,967.953 1392.76,972.933 1396,977.858 1399.24,982.726 1402.49,987.534 1405.73,992.279 1408.97,996.959 1412.21,1001.57 1415.45,1006.12 1418.69,1010.59 1421.93,1015 1425.17,1019.34 1428.42,1023.61 1431.66,1027.82 1434.9,1031.96 1438.14,1036.03 1441.38,1040.03 1444.62,1043.97 1447.86,1047.83 1451.11,1051.63 1454.35,1055.36 1457.59,1059.01 1460.83,1062.6 1464.07,1066.12 1467.31,1069.56 1470.55,1072.93 1473.8,1076.23 1477.04,1079.45 1480.28,1082.6 1483.52,1085.67 1486.76,1088.67 1490,1091.59 1493.24,1094.44 1496.49,1097.23 1499.73,1099.95 1502.97,1102.6 1506.21,1105.2 1509.45,1107.73 1512.69,1110.21 1515.93,1112.62 1519.18,1114.99 1522.42,1117.3 1525.66,1119.55 1528.9,1121.76 1532.14,1123.92 1535.38,1126.03 1538.62,1128.09 1541.86,1130.11 1545.11,1132.08 1548.35,1134.01 1551.59,1135.9 1554.83,1137.74 1558.07,1139.55 1561.31,1141.31 1564.55,1143.04 1567.8,1144.73 1571.04,1146.38 1574.28,1147.99 1577.52,1149.57 1580.76,1151.11 1584,1152.62 1587.24,1154.09 1590.49,1155.52 1593.73,1156.92 1596.97,1158.29 1600.21,1159.62 1603.45,1160.92 1606.69,1162.18 1609.93,1163.41 1613.18,1164.61 1616.42,1165.77 1619.66,1166.9 1622.9,1167.99 1626.14,1169.04 1629.38,1170.06 1632.62,1171.05 1635.86,1171.99 1639.11,1172.9 1642.35,1173.78 1645.59,1174.61 1648.83,1175.4 1652.07,1176.16 1655.31,1176.87 1658.55,1177.54 1661.8,1178.17 1665.04,1178.76 1668.28,1179.3 1671.52,1179.81 1674.76,1180.27 1678,1180.7 1681.24,1181.09 1684.49,1181.45 1687.73,1181.77 1690.97,1182.07 1694.21,1182.33 1697.45,1182.57 1700.69,1182.78 1703.93,1182.96 1707.18,1183.12 1710.42,1183.26 1713.66,1183.37 1716.9,1183.46 1720.14,1183.53 1723.38,1183.58 1726.62,1183.61 1729.87,1183.62 1733.11,1183.62 1736.35,1183.59 1739.59,1183.55 1742.83,1183.5 1746.07,1183.43 1749.31,1183.34 1752.55,1183.24 1755.8,1183.13 1759.04,1183 1762.28,1182.86 1765.52,1182.7 1768.76,1182.54 1772,1182.35 1775.24,1182.16 1778.49,1181.95 1781.73,1181.73 1784.97,1181.5 1788.21,1181.26 1791.45,1181 1794.69,1180.72 1797.93,1180.44 1801.18,1180.14 1804.42,1179.83 1807.66,1179.5 1810.9,1179.15 1814.14,1178.8 1817.38,1178.42 1820.62,1178.03 1823.87,1177.62 1827.11,1177.2 1830.35,1176.75 1833.59,1176.29 1836.83,1175.8 1840.07,1175.3 1843.31,1174.77 1846.55,1174.22 1849.8,1173.65 1853.04,1173.05 1856.28,1172.43 1859.52,1171.77 1862.76,1171.09 1866,1170.38 1869.24,1169.64 1872.49,1168.87 1875.73,1168.06 1878.97,1167.22 1882.21,1166.34 1885.45,1165.43 1888.69,1164.47 1891.93,1163.47 1895.18,1162.42 1898.42,1161.33 1901.66,1160.2 1904.9,1159.01 1908.14,1157.77 1911.38,1156.48 1914.62,1155.13 1917.87,1153.73 1921.11,1152.28 1924.35,1150.78 1927.59,1149.23 1930.83,1147.64 1934.07,1146 1937.31,1144.33 1940.56,1142.62 1943.8,1140.87 1947.04,1139.08 1950.28,1137.27 1953.52,1135.42 1956.76,1133.54 1960,1131.64 1963.24,1129.71 1966.49,1127.75 1969.73,1125.77 1972.97,1123.77 1976.21,1121.75 1979.45,1119.72 1982.69,1117.66 1985.93,1115.59 1989.18,1113.5 1992.42,1111.4 1995.66,1109.29 1998.9,1107.17 2002.14,1105.03 2005.38,1102.89 2008.62,1100.74 2011.87,1098.58 2015.11,1096.41 2018.35,1094.24 2021.59,1092.07 2024.83,1089.89 2028.07,1087.71 2031.31,1085.53 2034.56,1083.34 2037.8,1081.16 2041.04,1078.97 2044.28,1076.79 2047.52,1074.6 2050.76,1072.42 2054,1070.24 2057.24,1068.06 2060.49,1065.89 2063.73,1063.72 2066.97,1061.56 2070.21,1059.39 2073.45,1057.24 2076.69,1055.09 2079.93,1052.95 2083.18,1050.81 2086.42,1048.68 2089.66,1046.55 2092.9,1044.44 2096.14,1042.33 2099.38,1040.22 2102.62,1038.13 2105.87,1036.04 2109.11,1033.97 2112.35,1031.9 2115.59,1029.83 2118.83,1027.78 2122.07,1025.74 2125.31,1023.71 2128.56,1021.68 2131.8,1019.67 2135.04,1017.66 2138.28,1015.67 2141.52,1013.68 2144.76,1011.69 2148,1009.72 2151.25,1007.75 2154.49,1005.78 2157.73,1003.83 2160.97,1001.87 2164.21,999.922 2167.45,997.973 2170.69,996.025 2173.93,994.076 2177.18,992.125 2180.42,990.169 2183.66,988.211 2186.9,986.249 2190.14,984.286 2193.38,982.321 2196.62,980.356 2199.87,978.39 2203.11,976.425 2206.35,974.461 2209.59,972.499 2212.83,970.538 2216.07,968.58 2219.31,966.626 2222.56,964.674 2225.8,962.727 2229.04,960.784 2232.28,958.847 2235.52,956.914 2238.76,954.987 2242,953.066 2245.25,951.151 2248.49,949.244 2251.73,947.343 2254.97,945.45 2258.21,943.564 2261.45,941.686 2264.69,939.817 2267.94,937.956 2271.18,936.104 2274.42,934.261 2277.66,932.428 2280.9,930.604 2284.14,928.789 2287.38,926.985 2290.62,925.191 "/>
<polyline clip-path="url(#clip941)" style="stroke:#c271d2; stroke-linecap:round; stroke-linejoin:round; stroke-width:12; stroke-opacity:1; fill:none" points="255.035,788.941 362.225,676.296 469.416,597.724 576.607,526.823 683.797,492.363 790.988,463.353 898.179,463.051 1005.37,511.434 1112.56,627.562 1219.75,820.167 1326.94,996.615 1434.13,1157.39 1541.32,1277.82 1648.51,1332.03 1755.7,1359.21 1862.89,1338.71 1970.09,1278.29 2077.28,1174.68 2184.47,1109.4 2291.66,1134.54 "/>
<polyline clip-path="url(#clip941)" style="stroke:#ac8d18; stroke-linecap:round; stroke-linejoin:round; stroke-width:12; stroke-opacity:1; fill:none" points="255.035,462.444 362.225,451.837 469.416,358.287 576.607,274.907 683.797,202.204 790.988,160.971 898.179,185.761 1005.37,274.347 1112.56,400.94 1219.75,542.99 1326.94,732.457 1434.13,904.583 1541.32,981.725 1648.51,1018.63 1755.7,1007.05 1862.89,1003.42 1970.09,972.812 2077.28,934.731 2184.47,866.048 2291.66,714.702 "/>
<path clip-path="url(#clip940)" d="M1953.46 406.258 L2280.8 406.258 L2280.8 95.2176 L1953.46 95.2176  Z" fill="#ffffff" fill-rule="evenodd" fill-opacity="1"/>
<polyline clip-path="url(#clip940)" style="stroke:#000000; stroke-linecap:round; stroke-linejoin:round; stroke-width:4; stroke-opacity:1; fill:none" points="1953.46,406.258 2280.8,406.258 2280.8,95.2176 1953.46,95.2176 1953.46,406.258 "/>
<polyline clip-path="url(#clip940)" style="stroke:#009af9; stroke-linecap:round; stroke-linejoin:round; stroke-width:4; stroke-opacity:1; fill:none" points="1977.44,147.058 2121.36,147.058 "/>
<path clip-path="url(#clip940)" d="M2152.76 131.051 L2152.76 138.412 L2161.53 138.412 L2161.53 141.722 L2152.76 141.722 L2152.76 155.796 Q2152.76 158.967 2153.61 159.87 Q2154.49 160.773 2157.16 160.773 L2161.53 160.773 L2161.53 164.338 L2157.16 164.338 Q2152.23 164.338 2150.35 162.509 Q2148.48 160.657 2148.48 155.796 L2148.48 141.722 L2145.35 141.722 L2145.35 138.412 L2148.48 138.412 L2148.48 131.051 L2152.76 131.051 Z" fill="#000000" fill-rule="nonzero" fill-opacity="1" /><path clip-path="url(#clip940)" d="M2182.16 142.393 Q2181.44 141.977 2180.58 141.791 Q2179.75 141.583 2178.73 141.583 Q2175.12 141.583 2173.17 143.944 Q2171.25 146.282 2171.25 150.68 L2171.25 164.338 L2166.97 164.338 L2166.97 138.412 L2171.25 138.412 L2171.25 142.44 Q2172.6 140.078 2174.75 138.944 Q2176.9 137.787 2179.98 137.787 Q2180.42 137.787 2180.95 137.856 Q2181.48 137.903 2182.13 138.018 L2182.16 142.393 Z" fill="#000000" fill-rule="nonzero" fill-opacity="1" /><path clip-path="url(#clip940)" d="M2186.18 154.106 L2186.18 138.412 L2190.44 138.412 L2190.44 153.944 Q2190.44 157.625 2191.88 159.476 Q2193.31 161.305 2196.18 161.305 Q2199.63 161.305 2201.62 159.106 Q2203.64 156.907 2203.64 153.111 L2203.64 138.412 L2207.9 138.412 L2207.9 164.338 L2203.64 164.338 L2203.64 160.356 Q2202.09 162.717 2200.03 163.875 Q2197.99 165.009 2195.28 165.009 Q2190.81 165.009 2188.5 162.231 Q2186.18 159.453 2186.18 154.106 M2196.9 137.787 L2196.9 137.787 Z" fill="#000000" fill-rule="nonzero" fill-opacity="1" /><path clip-path="url(#clip940)" d="M2220.88 131.051 L2220.88 138.412 L2229.66 138.412 L2229.66 141.722 L2220.88 141.722 L2220.88 155.796 Q2220.88 158.967 2221.74 159.87 Q2222.62 160.773 2225.28 160.773 L2229.66 160.773 L2229.66 164.338 L2225.28 164.338 Q2220.35 164.338 2218.48 162.509 Q2216.6 160.657 2216.6 155.796 L2216.6 141.722 L2213.48 141.722 L2213.48 138.412 L2216.6 138.412 L2216.6 131.051 L2220.88 131.051 Z" fill="#000000" fill-rule="nonzero" fill-opacity="1" /><path clip-path="url(#clip940)" d="M2256.81 148.689 L2256.81 164.338 L2252.55 164.338 L2252.55 148.828 Q2252.55 145.148 2251.11 143.319 Q2249.68 141.49 2246.81 141.49 Q2243.36 141.49 2241.37 143.69 Q2239.38 145.889 2239.38 149.685 L2239.38 164.338 L2235.1 164.338 L2235.1 128.319 L2239.38 128.319 L2239.38 142.44 Q2240.91 140.102 2242.97 138.944 Q2245.05 137.787 2247.76 137.787 Q2252.23 137.787 2254.52 140.565 Q2256.81 143.319 2256.81 148.689 Z" fill="#000000" fill-rule="nonzero" fill-opacity="1" /><circle clip-path="url(#clip940)" cx="2049.4" cy="198.898" r="20.48" fill="#e26f46" fill-rule="evenodd" fill-opacity="1" stroke="#000000" stroke-opacity="1" stroke-width="4.55111"/>
<path clip-path="url(#clip940)" d="M2164.26 194.187 L2164.26 180.159 L2168.52 180.159 L2168.52 216.178 L2164.26 216.178 L2164.26 212.289 Q2162.92 214.603 2160.86 215.738 Q2158.82 216.849 2155.95 216.849 Q2151.25 216.849 2148.29 213.099 Q2145.35 209.349 2145.35 203.238 Q2145.35 197.127 2148.29 193.377 Q2151.25 189.627 2155.95 189.627 Q2158.82 189.627 2160.86 190.761 Q2162.92 191.872 2164.26 194.187 M2149.75 203.238 Q2149.75 207.937 2151.67 210.622 Q2153.61 213.284 2156.99 213.284 Q2160.37 213.284 2162.32 210.622 Q2164.26 207.937 2164.26 203.238 Q2164.26 198.539 2162.32 195.877 Q2160.37 193.192 2156.99 193.192 Q2153.61 193.192 2151.67 195.877 Q2149.75 198.539 2149.75 203.238 Z" fill="#000000" fill-rule="nonzero" fill-opacity="1" /><path clip-path="url(#clip940)" d="M2189.08 203.145 Q2183.92 203.145 2181.92 204.326 Q2179.93 205.506 2179.93 208.354 Q2179.93 210.622 2181.42 211.965 Q2182.92 213.284 2185.49 213.284 Q2189.03 213.284 2191.16 210.784 Q2193.31 208.261 2193.31 204.094 L2193.31 203.145 L2189.08 203.145 M2197.57 201.386 L2197.57 216.178 L2193.31 216.178 L2193.31 212.242 Q2191.85 214.603 2189.68 215.738 Q2187.5 216.849 2184.36 216.849 Q2180.37 216.849 2178.01 214.627 Q2175.67 212.381 2175.67 208.631 Q2175.67 204.256 2178.59 202.034 Q2181.53 199.812 2187.34 199.812 L2193.31 199.812 L2193.31 199.395 Q2193.31 196.455 2191.37 194.858 Q2189.45 193.238 2185.95 193.238 Q2183.73 193.238 2181.62 193.77 Q2179.52 194.303 2177.57 195.367 L2177.57 191.432 Q2179.91 190.53 2182.11 190.09 Q2184.31 189.627 2186.39 189.627 Q2192.02 189.627 2194.79 192.543 Q2197.57 195.46 2197.57 201.386 Z" fill="#000000" fill-rule="nonzero" fill-opacity="1" /><path clip-path="url(#clip940)" d="M2210.56 182.891 L2210.56 190.252 L2219.33 190.252 L2219.33 193.562 L2210.56 193.562 L2210.56 207.636 Q2210.56 210.807 2211.42 211.71 Q2212.29 212.613 2214.96 212.613 L2219.33 212.613 L2219.33 216.178 L2214.96 216.178 Q2210.03 216.178 2208.15 214.349 Q2206.28 212.497 2206.28 207.636 L2206.28 193.562 L2203.15 193.562 L2203.15 190.252 L2206.28 190.252 L2206.28 182.891 L2210.56 182.891 Z" fill="#000000" fill-rule="nonzero" fill-opacity="1" /><path clip-path="url(#clip940)" d="M2236.72 203.145 Q2231.55 203.145 2229.56 204.326 Q2227.57 205.506 2227.57 208.354 Q2227.57 210.622 2229.05 211.965 Q2230.56 213.284 2233.13 213.284 Q2236.67 213.284 2238.8 210.784 Q2240.95 208.261 2240.95 204.094 L2240.95 203.145 L2236.72 203.145 M2245.21 201.386 L2245.21 216.178 L2240.95 216.178 L2240.95 212.242 Q2239.49 214.603 2237.32 215.738 Q2235.14 216.849 2231.99 216.849 Q2228.01 216.849 2225.65 214.627 Q2223.31 212.381 2223.31 208.631 Q2223.31 204.256 2226.23 202.034 Q2229.17 199.812 2234.98 199.812 L2240.95 199.812 L2240.95 199.395 Q2240.95 196.455 2239.01 194.858 Q2237.09 193.238 2233.59 193.238 Q2231.37 193.238 2229.26 193.77 Q2227.16 194.303 2225.21 195.367 L2225.21 191.432 Q2227.55 190.53 2229.75 190.09 Q2231.95 189.627 2234.03 189.627 Q2239.66 189.627 2242.43 192.543 Q2245.21 195.46 2245.21 201.386 Z" fill="#000000" fill-rule="nonzero" fill-opacity="1" /><polyline clip-path="url(#clip940)" style="stroke:#3da44d; stroke-linecap:round; stroke-linejoin:round; stroke-width:8; stroke-opacity:1; fill:none" points="1977.44,250.738 2121.36,250.738 "/>
<path clip-path="url(#clip940)" d="M2170.91 263.087 L2170.91 253.805 L2163.27 253.805 L2163.27 249.962 L2175.54 249.962 L2175.54 264.8 Q2172.83 266.721 2169.56 267.717 Q2166.3 268.689 2162.6 268.689 Q2154.49 268.689 2149.91 263.967 Q2145.35 259.221 2145.35 250.772 Q2145.35 242.3 2149.91 237.578 Q2154.49 232.833 2162.6 232.833 Q2165.98 232.833 2169.01 233.666 Q2172.06 234.499 2174.63 236.12 L2174.63 241.096 Q2172.04 238.897 2169.12 237.786 Q2166.21 236.675 2162.99 236.675 Q2156.65 236.675 2153.45 240.217 Q2150.28 243.758 2150.28 250.772 Q2150.28 257.763 2153.45 261.305 Q2156.65 264.846 2162.99 264.846 Q2165.47 264.846 2167.41 264.43 Q2169.36 263.99 2170.91 263.087 Z" fill="#000000" fill-rule="nonzero" fill-opacity="1" /><path clip-path="url(#clip940)" d="M2188.75 237.3 L2188.75 250.286 L2194.63 250.286 Q2197.9 250.286 2199.68 248.596 Q2201.46 246.907 2201.46 243.782 Q2201.46 240.68 2199.68 238.99 Q2197.9 237.3 2194.63 237.3 L2188.75 237.3 M2184.08 233.458 L2194.63 233.458 Q2200.44 233.458 2203.41 236.096 Q2206.39 238.712 2206.39 243.782 Q2206.39 248.897 2203.41 251.513 Q2200.44 254.129 2194.63 254.129 L2188.75 254.129 L2188.75 268.018 L2184.08 268.018 L2184.08 233.458 Z" fill="#000000" fill-rule="nonzero" fill-opacity="1" /><polyline clip-path="url(#clip940)" style="stroke:#c271d2; stroke-linecap:round; stroke-linejoin:round; stroke-width:12; stroke-opacity:1; fill:none" points="1977.44,302.578 2121.36,302.578 "/>
<path clip-path="url(#clip940)" d="M2150.03 289.14 L2150.03 302.126 L2155.91 302.126 Q2159.17 302.126 2160.95 300.436 Q2162.73 298.747 2162.73 295.622 Q2162.73 292.52 2160.95 290.83 Q2159.17 289.14 2155.91 289.14 L2150.03 289.14 M2145.35 285.298 L2155.91 285.298 Q2161.72 285.298 2164.68 287.936 Q2167.67 290.552 2167.67 295.622 Q2167.67 300.737 2164.68 303.353 Q2161.72 305.969 2155.91 305.969 L2150.03 305.969 L2150.03 319.858 L2145.35 319.858 L2145.35 285.298 Z" fill="#000000" fill-rule="nonzero" fill-opacity="1" /><path clip-path="url(#clip940)" d="M2178.38 315.922 L2194.7 315.922 L2194.7 319.858 L2172.76 319.858 L2172.76 315.922 Q2175.42 313.168 2180 308.538 Q2184.61 303.885 2185.79 302.543 Q2188.04 300.02 2188.92 298.284 Q2189.82 296.524 2189.82 294.835 Q2189.82 292.08 2187.87 290.344 Q2185.95 288.608 2182.85 288.608 Q2180.65 288.608 2178.2 289.372 Q2175.77 290.135 2172.99 291.686 L2172.99 286.964 Q2175.81 285.83 2178.27 285.251 Q2180.72 284.673 2182.76 284.673 Q2188.13 284.673 2191.32 287.358 Q2194.52 290.043 2194.52 294.534 Q2194.52 296.663 2193.71 298.585 Q2192.92 300.483 2190.81 303.075 Q2190.23 303.747 2187.13 306.964 Q2184.03 310.159 2178.38 315.922 Z" fill="#000000" fill-rule="nonzero" fill-opacity="1" /><path clip-path="url(#clip940)" d="M2204.56 285.298 L2222.92 285.298 L2222.92 289.233 L2208.85 289.233 L2208.85 297.705 Q2209.86 297.358 2210.88 297.196 Q2211.9 297.01 2212.92 297.01 Q2218.71 297.01 2222.09 300.182 Q2225.47 303.353 2225.47 308.77 Q2225.47 314.348 2221.99 317.45 Q2218.52 320.529 2212.2 320.529 Q2210.03 320.529 2207.76 320.158 Q2205.51 319.788 2203.1 319.047 L2203.1 314.348 Q2205.19 315.483 2207.41 316.038 Q2209.63 316.594 2212.11 316.594 Q2216.11 316.594 2218.45 314.487 Q2220.79 312.381 2220.79 308.77 Q2220.79 305.159 2218.45 303.052 Q2216.11 300.946 2212.11 300.946 Q2210.23 300.946 2208.36 301.362 Q2206.51 301.779 2204.56 302.659 L2204.56 285.298 Z" fill="#000000" fill-rule="nonzero" fill-opacity="1" /><polyline clip-path="url(#clip940)" style="stroke:#ac8d18; stroke-linecap:round; stroke-linejoin:round; stroke-width:12; stroke-opacity:1; fill:none" points="1977.44,354.418 2121.36,354.418 "/>
<path clip-path="url(#clip940)" d="M2150.03 340.98 L2150.03 353.966 L2155.91 353.966 Q2159.17 353.966 2160.95 352.276 Q2162.73 350.587 2162.73 347.462 Q2162.73 344.36 2160.95 342.67 Q2159.17 340.98 2155.91 340.98 L2150.03 340.98 M2145.35 337.138 L2155.91 337.138 Q2161.72 337.138 2164.68 339.776 Q2167.67 342.392 2167.67 347.462 Q2167.67 352.577 2164.68 355.193 Q2161.72 357.809 2155.91 357.809 L2150.03 357.809 L2150.03 371.698 L2145.35 371.698 L2145.35 337.138 Z" fill="#000000" fill-rule="nonzero" fill-opacity="1" /><path clip-path="url(#clip940)" d="M2173.17 337.138 L2195.4 337.138 L2195.4 339.128 L2182.85 371.698 L2177.97 371.698 L2189.77 341.073 L2173.17 341.073 L2173.17 337.138 Z" fill="#000000" fill-rule="nonzero" fill-opacity="1" /><path clip-path="url(#clip940)" d="M2204.56 337.138 L2222.92 337.138 L2222.92 341.073 L2208.85 341.073 L2208.85 349.545 Q2209.86 349.198 2210.88 349.036 Q2211.9 348.85 2212.92 348.85 Q2218.71 348.85 2222.09 352.022 Q2225.47 355.193 2225.47 360.61 Q2225.47 366.188 2221.99 369.29 Q2218.52 372.369 2212.2 372.369 Q2210.03 372.369 2207.76 371.998 Q2205.51 371.628 2203.1 370.887 L2203.1 366.188 Q2205.19 367.323 2207.41 367.878 Q2209.63 368.434 2212.11 368.434 Q2216.11 368.434 2218.45 366.327 Q2220.79 364.221 2220.79 360.61 Q2220.79 356.999 2218.45 354.892 Q2216.11 352.786 2212.11 352.786 Q2210.23 352.786 2208.36 353.202 Q2206.51 353.619 2204.56 354.499 L2204.56 337.138 Z" fill="#000000" fill-rule="nonzero" fill-opacity="1" /></svg>
