<?xml version="1.0" encoding="utf-8"?>
<svg xmlns="http://www.w3.org/2000/svg" xmlns:xlink="http://www.w3.org/1999/xlink" width="600" height="400" viewBox="0 0 2400 1600">
<defs>
  <clipPath id="clip800">
    <rect x="0" y="0" width="2400" height="1600"/>
  </clipPath>
</defs>
<path clip-path="url(#clip800)" d="M0 1600 L2400 1600 L2400 0 L0 0  Z" fill="#ffffff" fill-rule="evenodd" fill-opacity="1"/>
<defs>
  <clipPath id="clip801">
    <rect x="480" y="0" width="1681" height="1600"/>
  </clipPath>
</defs>
<path clip-path="url(#clip800)" d="M193.936 1486.45 L2352.76 1486.45 L2352.76 47.2441 L193.936 47.2441  Z" fill="#ffffff" fill-rule="evenodd" fill-opacity="1"/>
<defs>
  <clipPath id="clip802">
    <rect x="193" y="47" width="2160" height="1440"/>
  </clipPath>
</defs>
<polyline clip-path="url(#clip802)" style="stroke:#000000; stroke-linecap:round; stroke-linejoin:round; stroke-width:2; stroke-opacity:0.1; fill:none" points="255.035,1486.45 255.035,47.2441 "/>
<polyline clip-path="url(#clip802)" style="stroke:#000000; stroke-linecap:round; stroke-linejoin:round; stroke-width:2; stroke-opacity:0.1; fill:none" points="579.173,1486.45 579.173,47.2441 "/>
<polyline clip-path="url(#clip802)" style="stroke:#000000; stroke-linecap:round; stroke-linejoin:round; stroke-width:2; stroke-opacity:0.1; fill:none" points="903.312,1486.45 903.312,47.2441 "/>
<polyline clip-path="url(#clip802)" style="stroke:#000000; stroke-linecap:round; stroke-linejoin:round; stroke-width:2; stroke-opacity:0.1; fill:none" points="1227.45,1486.45 1227.45,47.2441 "/>
<polyline clip-path="url(#clip802)" style="stroke:#000000; stroke-linecap:round; stroke-linejoin:round; stroke-width:2; stroke-opacity:0.1; fill:none" points="1551.59,1486.45 1551.59,47.2441 "/>
<polyline clip-path="url(#clip802)" style="stroke:#000000; stroke-linecap:round; stroke-linejoin:round; stroke-width:2; stroke-opacity:0.1; fill:none" points="1875.73,1486.45 1875.73,47.2441 "/>
<polyline clip-path="url(#clip802)" style="stroke:#000000; stroke-linecap:round; stroke-linejoin:round; stroke-width:2; stroke-opacity:0.1; fill:none" points="2199.87,1486.45 2199.87,47.2441 "/>
<polyline clip-path="url(#clip802)" style="stroke:#000000; stroke-linecap:round; stroke-linejoin:round; stroke-width:2; stroke-opacity:0.1; fill:none" points="193.936,1281.44 2352.76,1281.44 "/>
<polyline clip-path="url(#clip802)" style="stroke:#000000; stroke-linecap:round; stroke-linejoin:round; stroke-width:2; stroke-opacity:0.1; fill:none" points="193.936,1030.33 2352.76,1030.33 "/>
<polyline clip-path="url(#clip802)" style="stroke:#000000; stroke-linecap:round; stroke-linejoin:round; stroke-width:2; stroke-opacity:0.1; fill:none" points="193.936,779.226 2352.76,779.226 "/>
<polyline clip-path="url(#clip802)" style="stroke:#000000; stroke-linecap:round; stroke-linejoin:round; stroke-width:2; stroke-opacity:0.1; fill:none" points="193.936,528.121 2352.76,528.121 "/>
<polyline clip-path="url(#clip802)" style="stroke:#000000; stroke-linecap:round; stroke-linejoin:round; stroke-width:2; stroke-opacity:0.1; fill:none" points="193.936,277.017 2352.76,277.017 "/>
<polyline clip-path="url(#clip800)" style="stroke:#000000; stroke-linecap:round; stroke-linejoin:round; stroke-width:4; stroke-opacity:1; fill:none" points="193.936,1486.45 2352.76,1486.45 "/>
<polyline clip-path="url(#clip800)" style="stroke:#000000; stroke-linecap:round; stroke-linejoin:round; stroke-width:4; stroke-opacity:1; fill:none" points="255.035,1486.45 255.035,1467.55 "/>
<polyline clip-path="url(#clip800)" style="stroke:#000000; stroke-linecap:round; stroke-linejoin:round; stroke-width:4; stroke-opacity:1; fill:none" points="579.173,1486.45 579.173,1467.55 "/>
<polyline clip-path="url(#clip800)" style="stroke:#000000; stroke-linecap:round; stroke-linejoin:round; stroke-width:4; stroke-opacity:1; fill:none" points="903.312,1486.45 903.312,1467.55 "/>
<polyline clip-path="url(#clip800)" style="stroke:#000000; stroke-linecap:round; stroke-linejoin:round; stroke-width:4; stroke-opacity:1; fill:none" points="1227.45,1486.45 1227.45,1467.55 "/>
<polyline clip-path="url(#clip800)" style="stroke:#000000; stroke-linecap:round; stroke-linejoin:round; stroke-width:4; stroke-opacity:1; fill:none" points="1551.59,1486.45 1551.59,1467.55 "/>
<polyline clip-path="url(#clip800)" style="stroke:#000000; stroke-linecap:round; stroke-linejoin:round; stroke-width:4; stroke-opacity:1; fill:none" points="1875.73,1486.45 1875.73,1467.55 "/>
<polyline clip-path="url(#clip800)" style="stroke:#000000; stroke-linecap:round; stroke-linejoin:round; stroke-width:4; stroke-opacity:1; fill:none" points="2199.87,1486.45 2199.87,1467.55 "/>
<path clip-path="url(#clip800)" d="M255.035 1517.37 Q251.424 1517.37 249.595 1520.93 Q247.789 1524.47 247.789 1531.6 Q247.789 1538.71 249.595 1542.27 Q251.424 1545.82 255.035 1545.82 Q258.669 1545.82 260.474 1542.27 Q262.303 1538.71 262.303 1531.6 Q262.303 1524.47 260.474 1520.93 Q258.669 1517.37 255.035 1517.37 M255.035 1513.66 Q260.845 1513.66 263.9 1518.27 Q266.979 1522.85 266.979 1531.6 Q266.979 1540.33 263.9 1544.94 Q260.845 1549.52 255.035 1549.52 Q249.225 1549.52 246.146 1544.94 Q243.09 1540.33 243.09 1531.6 Q243.09 1522.85 246.146 1518.27 Q249.225 1513.66 255.035 1513.66 Z" fill="#000000" fill-rule="nonzero" fill-opacity="1" /><path clip-path="url(#clip800)" d="M569.555 1544.91 L577.194 1544.91 L577.194 1518.55 L568.884 1520.21 L568.884 1515.95 L577.148 1514.29 L581.824 1514.29 L581.824 1544.91 L589.463 1544.91 L589.463 1548.85 L569.555 1548.85 L569.555 1544.91 Z" fill="#000000" fill-rule="nonzero" fill-opacity="1" /><path clip-path="url(#clip800)" d="M897.965 1544.91 L914.284 1544.91 L914.284 1548.85 L892.34 1548.85 L892.34 1544.91 Q895.002 1542.16 899.585 1537.53 Q904.191 1532.88 905.372 1531.53 Q907.617 1529.01 908.497 1527.27 Q909.4 1525.51 909.4 1523.82 Q909.4 1521.07 907.455 1519.33 Q905.534 1517.6 902.432 1517.6 Q900.233 1517.6 897.779 1518.36 Q895.349 1519.13 892.571 1520.68 L892.571 1515.95 Q895.395 1514.82 897.849 1514.24 Q900.303 1513.66 902.34 1513.66 Q907.71 1513.66 910.904 1516.35 Q914.099 1519.03 914.099 1523.52 Q914.099 1525.65 913.289 1527.57 Q912.502 1529.47 910.395 1532.07 Q909.816 1532.74 906.715 1535.95 Q903.613 1539.15 897.965 1544.91 Z" fill="#000000" fill-rule="nonzero" fill-opacity="1" /><path clip-path="url(#clip800)" d="M1231.7 1530.21 Q1235.05 1530.93 1236.93 1533.2 Q1238.83 1535.47 1238.83 1538.8 Q1238.83 1543.92 1235.31 1546.72 Q1231.79 1549.52 1225.31 1549.52 Q1223.13 1549.52 1220.82 1549.08 Q1218.53 1548.66 1216.07 1547.81 L1216.07 1543.29 Q1218.02 1544.43 1220.33 1545.01 Q1222.65 1545.58 1225.17 1545.58 Q1229.57 1545.58 1231.86 1543.85 Q1234.17 1542.11 1234.17 1538.8 Q1234.17 1535.75 1232.02 1534.03 Q1229.89 1532.3 1226.07 1532.3 L1222.05 1532.3 L1222.05 1528.45 L1226.26 1528.45 Q1229.71 1528.45 1231.54 1527.09 Q1233.36 1525.7 1233.36 1523.11 Q1233.36 1520.45 1231.47 1519.03 Q1229.59 1517.6 1226.07 1517.6 Q1224.15 1517.6 1221.95 1518.01 Q1219.75 1518.43 1217.11 1519.31 L1217.11 1515.14 Q1219.78 1514.4 1222.09 1514.03 Q1224.43 1513.66 1226.49 1513.66 Q1231.81 1513.66 1234.92 1516.09 Q1238.02 1518.5 1238.02 1522.62 Q1238.02 1525.49 1236.37 1527.48 Q1234.73 1529.45 1231.7 1530.21 Z" fill="#000000" fill-rule="nonzero" fill-opacity="1" /><path clip-path="url(#clip800)" d="M1554.6 1518.36 L1542.79 1536.81 L1554.6 1536.81 L1554.6 1518.36 M1553.37 1514.29 L1559.25 1514.29 L1559.25 1536.81 L1564.18 1536.81 L1564.18 1540.7 L1559.25 1540.7 L1559.25 1548.85 L1554.6 1548.85 L1554.6 1540.7 L1539 1540.7 L1539 1536.19 L1553.37 1514.29 Z" fill="#000000" fill-rule="nonzero" fill-opacity="1" /><path clip-path="url(#clip800)" d="M1866.01 1514.29 L1884.36 1514.29 L1884.36 1518.22 L1870.29 1518.22 L1870.29 1526.7 Q1871.31 1526.35 1872.32 1526.19 Q1873.34 1526 1874.36 1526 Q1880.15 1526 1883.53 1529.17 Q1886.91 1532.34 1886.91 1537.76 Q1886.91 1543.34 1883.44 1546.44 Q1879.96 1549.52 1873.64 1549.52 Q1871.47 1549.52 1869.2 1549.15 Q1866.95 1548.78 1864.55 1548.04 L1864.55 1543.34 Q1866.63 1544.47 1868.85 1545.03 Q1871.07 1545.58 1873.55 1545.58 Q1877.56 1545.58 1879.89 1543.48 Q1882.23 1541.37 1882.23 1537.76 Q1882.23 1534.15 1879.89 1532.04 Q1877.56 1529.94 1873.55 1529.94 Q1871.68 1529.94 1869.8 1530.35 Q1867.95 1530.77 1866.01 1531.65 L1866.01 1514.29 Z" fill="#000000" fill-rule="nonzero" fill-opacity="1" /><path clip-path="url(#clip800)" d="M2200.27 1529.7 Q2197.12 1529.7 2195.27 1531.86 Q2193.44 1534.01 2193.44 1537.76 Q2193.44 1541.49 2195.27 1543.66 Q2197.12 1545.82 2200.27 1545.82 Q2203.42 1545.82 2205.25 1543.66 Q2207.1 1541.49 2207.1 1537.76 Q2207.1 1534.01 2205.25 1531.86 Q2203.42 1529.7 2200.27 1529.7 M2209.55 1515.05 L2209.55 1519.31 Q2207.79 1518.48 2205.99 1518.04 Q2204.21 1517.6 2202.45 1517.6 Q2197.82 1517.6 2195.36 1520.72 Q2192.93 1523.85 2192.59 1530.17 Q2193.95 1528.15 2196.01 1527.09 Q2198.07 1526 2200.55 1526 Q2205.76 1526 2208.77 1529.17 Q2211.8 1532.32 2211.8 1537.76 Q2211.8 1543.08 2208.65 1546.3 Q2205.5 1549.52 2200.27 1549.52 Q2194.28 1549.52 2191.1 1544.94 Q2187.93 1540.33 2187.93 1531.6 Q2187.93 1523.41 2191.82 1518.55 Q2195.71 1513.66 2202.26 1513.66 Q2204.02 1513.66 2205.8 1514.01 Q2207.61 1514.36 2209.55 1515.05 Z" fill="#000000" fill-rule="nonzero" fill-opacity="1" /><polyline clip-path="url(#clip800)" style="stroke:#000000; stroke-linecap:round; stroke-linejoin:round; stroke-width:4; stroke-opacity:1; fill:none" points="193.936,1486.45 193.936,47.2441 "/>
<polyline clip-path="url(#clip800)" style="stroke:#000000; stroke-linecap:round; stroke-linejoin:round; stroke-width:4; stroke-opacity:1; fill:none" points="193.936,1281.44 212.834,1281.44 "/>
<polyline clip-path="url(#clip800)" style="stroke:#000000; stroke-linecap:round; stroke-linejoin:round; stroke-width:4; stroke-opacity:1; fill:none" points="193.936,1030.33 212.834,1030.33 "/>
<polyline clip-path="url(#clip800)" style="stroke:#000000; stroke-linecap:round; stroke-linejoin:round; stroke-width:4; stroke-opacity:1; fill:none" points="193.936,779.226 212.834,779.226 "/>
<polyline clip-path="url(#clip800)" style="stroke:#000000; stroke-linecap:round; stroke-linejoin:round; stroke-width:4; stroke-opacity:1; fill:none" points="193.936,528.121 212.834,528.121 "/>
<polyline clip-path="url(#clip800)" style="stroke:#000000; stroke-linecap:round; stroke-linejoin:round; stroke-width:4; stroke-opacity:1; fill:none" points="193.936,277.017 212.834,277.017 "/>
<path clip-path="url(#clip800)" d="M50.9921 1281.89 L80.6679 1281.89 L80.6679 1285.82 L50.9921 1285.82 L50.9921 1281.89 Z" fill="#000000" fill-rule="nonzero" fill-opacity="1" /><path clip-path="url(#clip800)" d="M91.5706 1294.78 L99.2095 1294.78 L99.2095 1268.41 L90.8993 1270.08 L90.8993 1265.82 L99.1632 1264.16 L103.839 1264.16 L103.839 1294.78 L111.478 1294.78 L111.478 1298.72 L91.5706 1298.72 L91.5706 1294.78 Z" fill="#000000" fill-rule="nonzero" fill-opacity="1" /><path clip-path="url(#clip800)" d="M120.922 1292.84 L125.807 1292.84 L125.807 1298.72 L120.922 1298.72 L120.922 1292.84 Z" fill="#000000" fill-rule="nonzero" fill-opacity="1" /><path clip-path="url(#clip800)" d="M145.992 1267.23 Q142.381 1267.23 140.552 1270.8 Q138.746 1274.34 138.746 1281.47 Q138.746 1288.58 140.552 1292.14 Q142.381 1295.68 145.992 1295.68 Q149.626 1295.68 151.431 1292.14 Q153.26 1288.58 153.26 1281.47 Q153.26 1274.34 151.431 1270.8 Q149.626 1267.23 145.992 1267.23 M145.992 1263.53 Q151.802 1263.53 154.857 1268.14 Q157.936 1272.72 157.936 1281.47 Q157.936 1290.2 154.857 1294.8 Q151.802 1299.39 145.992 1299.39 Q140.181 1299.39 137.103 1294.8 Q134.047 1290.2 134.047 1281.47 Q134.047 1272.72 137.103 1268.14 Q140.181 1263.53 145.992 1263.53 Z" fill="#000000" fill-rule="nonzero" fill-opacity="1" /><path clip-path="url(#clip800)" d="M51.9875 1030.78 L81.6633 1030.78 L81.6633 1034.72 L51.9875 1034.72 L51.9875 1030.78 Z" fill="#000000" fill-rule="nonzero" fill-opacity="1" /><path clip-path="url(#clip800)" d="M101.756 1016.13 Q98.1447 1016.13 96.316 1019.69 Q94.5104 1023.24 94.5104 1030.37 Q94.5104 1037.47 96.316 1041.04 Q98.1447 1044.58 101.756 1044.58 Q105.39 1044.58 107.196 1041.04 Q109.024 1037.47 109.024 1030.37 Q109.024 1023.24 107.196 1019.69 Q105.39 1016.13 101.756 1016.13 M101.756 1012.43 Q107.566 1012.43 110.621 1017.03 Q113.7 1021.62 113.7 1030.37 Q113.7 1039.09 110.621 1043.7 Q107.566 1048.28 101.756 1048.28 Q95.9456 1048.28 92.8669 1043.7 Q89.8114 1039.09 89.8114 1030.37 Q89.8114 1021.62 92.8669 1017.03 Q95.9456 1012.43 101.756 1012.43 Z" fill="#000000" fill-rule="nonzero" fill-opacity="1" /><path clip-path="url(#clip800)" d="M121.918 1041.73 L126.802 1041.73 L126.802 1047.61 L121.918 1047.61 L121.918 1041.73 Z" fill="#000000" fill-rule="nonzero" fill-opacity="1" /><path clip-path="url(#clip800)" d="M137.033 1013.05 L155.39 1013.05 L155.39 1016.99 L141.316 1016.99 L141.316 1025.46 Q142.334 1025.11 143.353 1024.95 Q144.371 1024.76 145.39 1024.76 Q151.177 1024.76 154.556 1027.93 Q157.936 1031.11 157.936 1036.52 Q157.936 1042.1 154.464 1045.2 Q150.992 1048.28 144.672 1048.28 Q142.496 1048.28 140.228 1047.91 Q137.982 1047.54 135.575 1046.8 L135.575 1042.1 Q137.658 1043.24 139.881 1043.79 Q142.103 1044.35 144.58 1044.35 Q148.584 1044.35 150.922 1042.24 Q153.26 1040.13 153.26 1036.52 Q153.26 1032.91 150.922 1030.81 Q148.584 1028.7 144.58 1028.7 Q142.705 1028.7 140.83 1029.12 Q138.978 1029.53 137.033 1030.41 L137.033 1013.05 Z" fill="#000000" fill-rule="nonzero" fill-opacity="1" /><path clip-path="url(#clip800)" d="M100.76 765.025 Q97.1493 765.025 95.3206 768.59 Q93.515 772.131 93.515 779.261 Q93.515 786.367 95.3206 789.932 Q97.1493 793.474 100.76 793.474 Q104.395 793.474 106.2 789.932 Q108.029 786.367 108.029 779.261 Q108.029 772.131 106.2 768.59 Q104.395 765.025 100.76 765.025 M100.76 761.321 Q106.571 761.321 109.626 765.928 Q112.705 770.511 112.705 779.261 Q112.705 787.988 109.626 792.594 Q106.571 797.177 100.76 797.177 Q94.9502 797.177 91.8715 792.594 Q88.816 787.988 88.816 779.261 Q88.816 770.511 91.8715 765.928 Q94.9502 761.321 100.76 761.321 Z" fill="#000000" fill-rule="nonzero" fill-opacity="1" /><path clip-path="url(#clip800)" d="M120.922 790.626 L125.807 790.626 L125.807 796.506 L120.922 796.506 L120.922 790.626 Z" fill="#000000" fill-rule="nonzero" fill-opacity="1" /><path clip-path="url(#clip800)" d="M145.992 765.025 Q142.381 765.025 140.552 768.59 Q138.746 772.131 138.746 779.261 Q138.746 786.367 140.552 789.932 Q142.381 793.474 145.992 793.474 Q149.626 793.474 151.431 789.932 Q153.26 786.367 153.26 779.261 Q153.26 772.131 151.431 768.59 Q149.626 765.025 145.992 765.025 M145.992 761.321 Q151.802 761.321 154.857 765.928 Q157.936 770.511 157.936 779.261 Q157.936 787.988 154.857 792.594 Q151.802 797.177 145.992 797.177 Q140.181 797.177 137.103 792.594 Q134.047 787.988 134.047 779.261 Q134.047 770.511 137.103 765.928 Q140.181 761.321 145.992 761.321 Z" fill="#000000" fill-rule="nonzero" fill-opacity="1" /><path clip-path="url(#clip800)" d="M101.756 513.92 Q98.1447 513.92 96.316 517.485 Q94.5104 521.027 94.5104 528.156 Q94.5104 535.263 96.316 538.827 Q98.1447 542.369 101.756 542.369 Q105.39 542.369 107.196 538.827 Q109.024 535.263 109.024 528.156 Q109.024 521.027 107.196 517.485 Q105.39 513.92 101.756 513.92 M101.756 510.216 Q107.566 510.216 110.621 514.823 Q113.7 519.406 113.7 528.156 Q113.7 536.883 110.621 541.489 Q107.566 546.073 101.756 546.073 Q95.9456 546.073 92.8669 541.489 Q89.8114 536.883 89.8114 528.156 Q89.8114 519.406 92.8669 514.823 Q95.9456 510.216 101.756 510.216 Z" fill="#000000" fill-rule="nonzero" fill-opacity="1" /><path clip-path="url(#clip800)" d="M121.918 539.522 L126.802 539.522 L126.802 545.401 L121.918 545.401 L121.918 539.522 Z" fill="#000000" fill-rule="nonzero" fill-opacity="1" /><path clip-path="url(#clip800)" d="M137.033 510.841 L155.39 510.841 L155.39 514.777 L141.316 514.777 L141.316 523.249 Q142.334 522.901 143.353 522.739 Q144.371 522.554 145.39 522.554 Q151.177 522.554 154.556 525.726 Q157.936 528.897 157.936 534.313 Q157.936 539.892 154.464 542.994 Q150.992 546.073 144.672 546.073 Q142.496 546.073 140.228 545.702 Q137.982 545.332 135.575 544.591 L135.575 539.892 Q137.658 541.026 139.881 541.582 Q142.103 542.138 144.58 542.138 Q148.584 542.138 150.922 540.031 Q153.26 537.925 153.26 534.313 Q153.26 530.702 150.922 528.596 Q148.584 526.489 144.58 526.489 Q142.705 526.489 140.83 526.906 Q138.978 527.323 137.033 528.202 L137.033 510.841 Z" fill="#000000" fill-rule="nonzero" fill-opacity="1" /><path clip-path="url(#clip800)" d="M91.5706 290.362 L99.2095 290.362 L99.2095 263.996 L90.8993 265.663 L90.8993 261.403 L99.1632 259.737 L103.839 259.737 L103.839 290.362 L111.478 290.362 L111.478 294.297 L91.5706 294.297 L91.5706 290.362 Z" fill="#000000" fill-rule="nonzero" fill-opacity="1" /><path clip-path="url(#clip800)" d="M120.922 288.417 L125.807 288.417 L125.807 294.297 L120.922 294.297 L120.922 288.417 Z" fill="#000000" fill-rule="nonzero" fill-opacity="1" /><path clip-path="url(#clip800)" d="M145.992 262.815 Q142.381 262.815 140.552 266.38 Q138.746 269.922 138.746 277.051 Q138.746 284.158 140.552 287.723 Q142.381 291.264 145.992 291.264 Q149.626 291.264 151.431 287.723 Q153.26 284.158 153.26 277.051 Q153.26 269.922 151.431 266.38 Q149.626 262.815 145.992 262.815 M145.992 259.112 Q151.802 259.112 154.857 263.718 Q157.936 268.301 157.936 277.051 Q157.936 285.778 154.857 290.385 Q151.802 294.968 145.992 294.968 Q140.181 294.968 137.103 290.385 Q134.047 285.778 134.047 277.051 Q134.047 268.301 137.103 263.718 Q140.181 259.112 145.992 259.112 Z" fill="#000000" fill-rule="nonzero" fill-opacity="1" /><polyline clip-path="url(#clip802)" style="stroke:#009af9; stroke-linecap:round; stroke-linejoin:round; stroke-width:4; stroke-opacity:1; fill:none" points="255.035,779.226 258.276,774.204 261.517,769.183 264.759,764.162 268,759.143 271.242,754.126 274.483,749.112 277.724,744.1 280.966,739.092 284.207,734.088 287.449,729.089 290.69,724.094 293.931,719.105 297.173,714.123 300.414,709.146 303.655,704.177 306.897,699.215 310.138,694.261 313.38,689.316 316.621,684.379 319.862,679.452 323.104,674.536 326.345,669.629 329.587,664.734 332.828,659.85 336.069,654.977 339.311,650.118 342.552,645.271 345.793,640.438 349.035,635.618 352.276,630.813 355.518,626.023 358.759,621.248 362,616.489 365.242,611.746 368.483,607.02 371.725,602.311 374.966,597.619 378.207,592.946 381.449,588.292 384.69,583.657 387.931,579.041 391.173,574.445 394.414,569.87 397.656,565.315 400.897,560.782 404.138,556.271 407.38,551.782 410.621,547.316 413.863,542.873 417.104,538.454 420.345,534.059 423.587,529.688 426.828,525.342 430.069,521.022 433.311,516.728 436.552,512.459 439.794,508.218 443.035,504.003 446.276,499.816 449.518,495.657 452.759,491.527 456.001,487.425 459.242,483.352 462.483,479.309 465.725,475.296 468.966,471.313 472.208,467.361 475.449,463.44 478.69,459.551 481.932,455.694 485.173,451.869 488.414,448.077 491.656,444.318 494.897,440.592 498.139,436.901 501.38,433.243 504.621,429.62 507.863,426.033 511.104,422.48 514.346,418.963 517.587,415.482 520.828,412.038 524.07,408.63 527.311,405.259 530.552,401.926 533.794,398.63 537.035,395.373 540.277,392.154 543.518,388.973 546.759,385.832 550.001,382.73 553.242,379.667 556.484,376.645 559.725,373.663 562.966,370.721 566.208,367.82 569.449,364.961 572.69,362.143 575.932,359.366 579.173,356.631 582.415,353.939 585.656,351.289 588.897,348.682 592.139,346.119 595.38,343.598 598.622,341.121 601.863,338.688 605.104,336.299 608.346,333.954 611.587,331.653 614.828,329.398 618.07,327.187 621.311,325.022 624.553,322.902 627.794,320.827 631.035,318.799 634.277,316.816 637.518,314.88 640.76,312.99 644.001,311.147 647.242,309.351 650.484,307.602 653.725,305.899 656.966,304.244 660.208,302.637 663.449,301.077 666.691,299.565 669.932,298.102 673.173,296.686 676.415,295.318 679.656,293.999 682.898,292.728 686.139,291.506 689.38,290.333 692.622,289.209 695.863,288.133 699.104,287.107 702.346,286.13 705.587,285.202 708.829,284.324 712.07,283.495 715.311,282.716 718.553,281.986 721.794,281.306 725.036,280.676 728.277,280.096 731.518,279.566 734.76,279.085 738.001,278.655 741.242,278.275 744.484,277.945 747.725,277.664 750.967,277.435 754.208,277.255 757.449,277.125 760.691,277.046 763.932,277.017 767.174,277.038 770.415,277.109 773.656,277.231 776.898,277.403 780.139,277.625 783.381,277.897 786.622,278.219 789.863,278.591 793.105,279.013 796.346,279.486 799.587,280.008 802.829,280.581 806.07,281.203 809.312,281.875 812.553,282.596 815.794,283.368 819.036,284.189 822.277,285.059 825.519,285.979 828.76,286.948 832.001,287.967 835.243,289.034 838.484,290.151 841.725,291.316 844.967,292.53 848.208,293.793 851.45,295.105 854.691,296.465 857.932,297.873 861.174,299.329 864.415,300.833 867.657,302.385 870.898,303.985 874.139,305.633 877.381,307.327 880.622,309.069 883.863,310.858 887.105,312.694 890.346,314.576 893.588,316.505 896.829,318.48 900.07,320.501 903.312,322.568 906.553,324.681 909.795,326.839 913.036,329.043 916.277,331.291 919.519,333.584 922.76,335.922 926.001,338.304 929.243,340.731 932.484,343.201 935.726,345.714 938.967,348.271 942.208,350.871 945.45,353.514 948.691,356.2 951.933,358.928 955.174,361.698 958.415,364.509 961.657,367.362 964.898,370.256 968.139,373.192 971.381,376.167 974.622,379.183 977.864,382.239 981.105,385.335 984.346,388.47 987.588,391.645 990.829,394.858 994.071,398.109 997.312,401.399 1000.55,404.726 1003.79,408.091 1007.04,411.493 1010.28,414.931 1013.52,418.406 1016.76,421.917 1020,425.464 1023.24,429.047 1026.48,432.664 1029.73,436.316 1032.97,440.002 1036.21,443.722 1039.45,447.476 1042.69,451.263 1045.93,455.083 1049.17,458.935 1052.42,462.819 1055.66,466.735 1058.9,470.682 1062.14,474.659 1065.38,478.668 1068.62,482.706 1071.86,486.774 1075.11,490.871 1078.35,494.998 1081.59,499.152 1084.83,503.335 1088.07,507.545 1091.31,511.782 1094.55,516.046 1097.79,520.336 1101.04,524.653 1104.28,528.994 1107.52,533.361 1110.76,537.752 1114,542.168 1117.24,546.607 1120.48,551.069 1123.73,555.555 1126.97,560.062 1130.21,564.592 1133.45,569.143 1136.69,573.715 1139.93,578.307 1143.17,582.92 1146.42,587.552 1149.66,592.204 1152.9,596.874 1156.14,601.562 1159.38,606.268 1162.62,610.992 1165.86,615.732 1169.11,620.489 1172.35,625.261 1175.59,630.049 1178.83,634.852 1182.07,639.669 1185.31,644.5 1188.55,649.345 1191.8,654.203 1195.04,659.073 1198.28,663.955 1201.52,668.849 1204.76,673.753 1208,678.669 1211.24,683.594 1214.48,688.529 1217.73,693.473 1220.97,698.425 1224.21,703.386 1227.45,708.354 1230.69,713.33 1233.93,718.311 1237.17,723.299 1240.42,728.293 1243.66,733.292 1246.9,738.295 1250.14,743.302 1253.38,748.313 1256.62,753.327 1259.86,758.344 1263.11,763.363 1266.35,768.383 1269.59,773.404 1272.83,778.426 1276.07,783.448 1279.31,788.47 1282.55,793.491 1285.8,798.51 1289.04,803.527 1292.28,808.542 1295.52,813.554 1298.76,818.563 1302,823.567 1305.24,828.567 1308.48,833.563 1311.73,838.552 1314.97,843.536 1318.21,848.514 1321.45,853.484 1324.69,858.447 1327.93,863.403 1331.17,868.349 1334.42,873.287 1337.66,878.216 1340.9,883.134 1344.14,888.042 1347.38,892.94 1350.62,897.825 1353.86,902.699 1357.11,907.561 1360.35,912.41 1363.59,917.246 1366.83,922.067 1370.07,926.875 1373.31,931.667 1376.55,936.445 1379.8,941.207 1383.04,945.952 1386.28,950.681 1389.52,955.393 1392.76,960.087 1396,964.763 1399.24,969.42 1402.49,974.059 1405.73,978.678 1408.97,983.277 1412.21,987.855 1415.45,992.413 1418.69,996.949 1421.93,1001.46 1425.17,1005.96 1428.42,1010.43 1431.66,1014.87 1434.9,1019.3 1438.14,1023.69 1441.38,1028.07 1444.62,1032.42 1447.86,1036.74 1451.11,1041.04 1454.35,1045.31 1457.59,1049.56 1460.83,1053.78 1464.07,1057.97 1467.31,1062.13 1470.55,1066.27 1473.8,1070.38 1477.04,1074.45 1480.28,1078.5 1483.52,1082.52 1486.76,1086.51 1490,1090.46 1493.24,1094.39 1496.49,1098.28 1499.73,1102.15 1502.97,1105.98 1506.21,1109.77 1509.45,1113.54 1512.69,1117.27 1515.93,1120.97 1519.18,1124.63 1522.42,1128.26 1525.66,1131.85 1528.9,1135.41 1532.14,1138.93 1535.38,1142.42 1538.62,1145.87 1541.86,1149.28 1545.11,1152.66 1548.35,1156 1551.59,1159.3 1554.83,1162.56 1558.07,1165.79 1561.31,1168.97 1564.55,1172.12 1567.8,1175.23 1571.04,1178.3 1574.28,1181.33 1577.52,1184.32 1580.76,1187.27 1584,1190.17 1587.24,1193.04 1590.49,1195.86 1593.73,1198.65 1596.97,1201.39 1600.21,1204.09 1603.45,1206.74 1606.69,1209.36 1609.93,1211.93 1613.18,1214.46 1616.42,1216.94 1619.66,1219.38 1622.9,1221.78 1626.14,1224.13 1629.38,1226.44 1632.62,1228.7 1635.86,1230.92 1639.11,1233.09 1642.35,1235.22 1645.59,1237.3 1648.83,1239.33 1652.07,1241.32 1655.31,1243.27 1658.55,1245.16 1661.8,1247.01 1665.04,1248.82 1668.28,1250.58 1671.52,1252.28 1674.76,1253.95 1678,1255.56 1681.24,1257.13 1684.49,1258.65 1687.73,1260.12 1690.97,1261.54 1694.21,1262.92 1697.45,1264.25 1700.69,1265.52 1703.93,1266.75 1707.18,1267.94 1710.42,1269.07 1713.66,1270.15 1716.9,1271.18 1720.14,1272.17 1723.38,1273.11 1726.62,1273.99 1729.87,1274.83 1733.11,1275.62 1736.35,1276.35 1739.59,1277.04 1742.83,1277.68 1746.07,1278.27 1749.31,1278.81 1752.55,1279.29 1755.8,1279.73 1759.04,1280.12 1762.28,1280.46 1765.52,1280.75 1768.76,1280.98 1772,1281.17 1775.24,1281.31 1778.49,1281.4 1781.73,1281.43 1784.97,1281.42 1788.21,1281.36 1791.45,1281.24 1794.69,1281.08 1797.93,1280.87 1801.18,1280.6 1804.42,1280.29 1807.66,1279.92 1810.9,1279.51 1814.14,1279.04 1817.38,1278.53 1820.62,1277.97 1823.87,1277.35 1827.11,1276.69 1830.35,1275.97 1833.59,1275.21 1836.83,1274.4 1840.07,1273.53 1843.31,1272.62 1846.55,1271.66 1849.8,1270.65 1853.04,1269.59 1856.28,1268.48 1859.52,1267.32 1862.76,1266.12 1866,1264.86 1869.24,1263.56 1872.49,1262.21 1875.73,1260.81 1878.97,1259.36 1882.21,1257.86 1885.45,1256.32 1888.69,1254.72 1891.93,1253.09 1895.18,1251.4 1898.42,1249.66 1901.66,1247.88 1904.9,1246.05 1908.14,1244.18 1911.38,1242.26 1914.62,1240.29 1917.87,1238.28 1921.11,1236.22 1924.35,1234.11 1927.59,1231.96 1930.83,1229.76 1934.07,1227.52 1937.31,1225.24 1940.56,1222.91 1943.8,1220.53 1947.04,1218.11 1950.28,1215.65 1953.52,1213.14 1956.76,1210.59 1960,1208 1963.24,1205.36 1966.49,1202.68 1969.73,1199.96 1972.97,1197.2 1976.21,1194.39 1979.45,1191.55 1982.69,1188.66 1985.93,1185.73 1989.18,1182.76 1992.42,1179.75 1995.66,1176.7 1998.9,1173.61 2002.14,1170.48 2005.38,1167.32 2008.62,1164.11 2011.87,1160.86 2015.11,1157.58 2018.35,1154.26 2021.59,1150.9 2024.83,1147.5 2028.07,1144.07 2031.31,1140.6 2034.56,1137.1 2037.8,1133.55 2041.04,1129.98 2044.28,1126.37 2047.52,1122.72 2050.76,1119.04 2054,1115.32 2057.24,1111.58 2060.49,1107.79 2063.73,1103.98 2066.97,1100.13 2070.21,1096.25 2073.45,1092.34 2076.69,1088.4 2079.93,1084.43 2083.18,1080.42 2086.42,1076.39 2089.66,1072.33 2092.9,1068.24 2096.14,1064.11 2099.38,1059.96 2102.62,1055.79 2105.87,1051.58 2109.11,1047.35 2112.35,1043.09 2115.59,1038.8 2118.83,1034.49 2122.07,1030.15 2125.31,1025.79 2128.56,1021.4 2131.8,1016.99 2135.04,1012.55 2138.28,1008.09 2141.52,1003.61 2144.76,999.109 2148,994.583 2151.25,990.035 2154.49,985.467 2157.73,980.877 2160.97,976.268 2164.21,971.639 2167.45,966.99 2170.69,962.323 2173.93,957.638 2177.18,952.934 2180.42,948.214 2183.66,943.476 2186.9,938.722 2190.14,933.952 2193.38,929.167 2196.62,924.366 2199.87,919.551 2203.11,914.722 2206.35,909.88 2209.59,905.024 2212.83,900.156 2216.07,895.275 2219.31,890.384 2222.56,885.481 2225.8,880.567 2229.04,875.643 2232.28,870.71 2235.52,865.767 2238.76,860.816 2242,855.857 2245.25,850.89 2248.49,845.915 2251.73,840.935 2254.97,835.947 2258.21,830.955 2261.45,825.957 2264.69,820.954 2267.94,815.948 2271.18,810.937 2274.42,805.924 2277.66,800.907 2280.9,795.889 2284.14,790.869 2287.38,785.848 2290.62,780.826 "/>
<circle clip-path="url(#clip802)" cx="1353.86" cy="996.902" r="14.4" fill="#e26f46" fill-rule="evenodd" fill-opacity="1" stroke="#000000" stroke-opacity="1" stroke-width="3.2"/>
<circle clip-path="url(#clip802)" cx="1888.69" cy="1188.52" r="14.4" fill="#e26f46" fill-rule="evenodd" fill-opacity="1" stroke="#000000" stroke-opacity="1" stroke-width="3.2"/>
<circle clip-path="url(#clip802)" cx="2063.73" cy="1027.82" r="14.4" fill="#e26f46" fill-rule="evenodd" fill-opacity="1" stroke="#000000" stroke-opacity="1" stroke-width="3.2"/>
<circle clip-path="url(#clip802)" cx="2099.38" cy="1091.76" r="14.4" fill="#e26f46" fill-rule="evenodd" fill-opacity="1" stroke="#000000" stroke-opacity="1" stroke-width="3.2"/>
<circle clip-path="url(#clip802)" cx="1460.83" cy="1113.61" r="14.4" fill="#e26f46" fill-rule="evenodd" fill-opacity="1" stroke="#000000" stroke-opacity="1" stroke-width="3.2"/>
<circle clip-path="url(#clip802)" cx="1878.97" cy="1354.39" r="14.4" fill="#e26f46" fill-rule="evenodd" fill-opacity="1" stroke="#000000" stroke-opacity="1" stroke-width="3.2"/>
<circle clip-path="url(#clip802)" cx="666.691" cy="227.531" r="14.4" fill="#e26f46" fill-rule="evenodd" fill-opacity="1" stroke="#000000" stroke-opacity="1" stroke-width="3.2"/>
<circle clip-path="url(#clip802)" cx="1490" cy="990.629" r="14.4" fill="#e26f46" fill-rule="evenodd" fill-opacity="1" stroke="#000000" stroke-opacity="1" stroke-width="3.2"/>
<circle clip-path="url(#clip802)" cx="2193.38" cy="896.906" r="14.4" fill="#e26f46" fill-rule="evenodd" fill-opacity="1" stroke="#000000" stroke-opacity="1" stroke-width="3.2"/>
<circle clip-path="url(#clip802)" cx="1532.14" cy="1029.29" r="14.4" fill="#e26f46" fill-rule="evenodd" fill-opacity="1" stroke="#000000" stroke-opacity="1" stroke-width="3.2"/>
<circle clip-path="url(#clip802)" cx="1827.11" cy="1362.49" r="14.4" fill="#e26f46" fill-rule="evenodd" fill-opacity="1" stroke="#000000" stroke-opacity="1" stroke-width="3.2"/>
<circle clip-path="url(#clip802)" cx="1444.62" cy="1061.22" r="14.4" fill="#e26f46" fill-rule="evenodd" fill-opacity="1" stroke="#000000" stroke-opacity="1" stroke-width="3.2"/>
<circle clip-path="url(#clip802)" cx="938.967" cy="297.489" r="14.4" fill="#e26f46" fill-rule="evenodd" fill-opacity="1" stroke="#000000" stroke-opacity="1" stroke-width="3.2"/>
<circle clip-path="url(#clip802)" cx="1250.14" cy="733.822" r="14.4" fill="#e26f46" fill-rule="evenodd" fill-opacity="1" stroke="#000000" stroke-opacity="1" stroke-width="3.2"/>
<circle clip-path="url(#clip802)" cx="1678" cy="1355.91" r="14.4" fill="#e26f46" fill-rule="evenodd" fill-opacity="1" stroke="#000000" stroke-opacity="1" stroke-width="3.2"/>
<circle clip-path="url(#clip802)" cx="2284.14" cy="867.501" r="14.4" fill="#e26f46" fill-rule="evenodd" fill-opacity="1" stroke="#000000" stroke-opacity="1" stroke-width="3.2"/>
<circle clip-path="url(#clip802)" cx="1878.97" cy="1378.19" r="14.4" fill="#e26f46" fill-rule="evenodd" fill-opacity="1" stroke="#000000" stroke-opacity="1" stroke-width="3.2"/>
<circle clip-path="url(#clip802)" cx="1263.11" cy="802.452" r="14.4" fill="#e26f46" fill-rule="evenodd" fill-opacity="1" stroke="#000000" stroke-opacity="1" stroke-width="3.2"/>
<circle clip-path="url(#clip802)" cx="1797.93" cy="1205.23" r="14.4" fill="#e26f46" fill-rule="evenodd" fill-opacity="1" stroke="#000000" stroke-opacity="1" stroke-width="3.2"/>
<circle clip-path="url(#clip802)" cx="877.381" cy="344.889" r="14.4" fill="#e26f46" fill-rule="evenodd" fill-opacity="1" stroke="#000000" stroke-opacity="1" stroke-width="3.2"/>
<path clip-path="url(#clip802)" d="M255.035 1123.38 L258.276 1121.14 L261.517 1118.88 L264.759 1116.59 L268 1114.27 L271.242 1111.91 L274.483 1109.53 L277.724 1107.11 L280.966 1104.67 L284.207 1102.18 L287.449 1099.67 L290.69 1097.13 L293.931 1094.55 L297.173 1091.94 L300.414 1089.29 L303.655 1086.61 L306.897 1083.89 L310.138 1081.14 L313.38 1078.36 L316.621 1075.54 L319.862 1072.68 L323.104 1069.79 L326.345 1066.86 L329.587 1063.89 L332.828 1060.89 L336.069 1057.84 L339.311 1054.76 L342.552 1051.65 L345.793 1048.49 L349.035 1045.29 L352.276 1042.06 L355.518 1038.78 L358.759 1035.47 L362 1032.12 L365.242 1028.72 L368.483 1025.29 L371.725 1021.81 L374.966 1018.29 L378.207 1014.73 L381.449 1011.13 L384.69 1007.49 L387.931 1003.8 L391.173 1000.08 L394.414 996.305 L397.656 992.492 L400.897 988.636 L404.138 984.736 L407.38 980.793 L410.621 976.807 L413.863 972.776 L417.104 968.703 L420.345 964.585 L423.587 960.423 L426.828 956.217 L430.069 951.968 L433.311 947.674 L436.552 943.336 L439.794 938.954 L443.035 934.529 L446.276 930.059 L449.518 925.546 L452.759 920.989 L456.001 916.389 L459.242 911.745 L462.483 907.059 L465.725 902.33 L468.966 897.559 L472.208 892.746 L475.449 887.891 L478.69 882.996 L481.932 878.06 L485.173 873.083 L488.414 868.068 L491.656 863.014 L494.897 857.922 L498.139 852.792 L501.38 847.627 L504.621 842.426 L507.863 837.191 L511.104 831.922 L514.346 826.621 L517.587 821.29 L520.828 815.929 L524.07 810.539 L527.311 805.123 L530.552 799.682 L533.794 794.218 L537.035 788.732 L540.277 783.227 L543.518 777.705 L546.759 772.167 L550.001 766.616 L553.242 761.055 L556.484 755.486 L559.725 749.912 L562.966 744.337 L566.208 738.762 L569.449 733.192 L572.69 727.629 L575.932 722.079 L579.173 716.544 L582.415 711.028 L585.656 705.536 L588.897 700.073 L592.139 694.643 L595.38 689.251 L598.622 683.902 L601.863 678.603 L605.104 673.358 L608.346 668.174 L611.587 663.057 L614.828 658.014 L618.07 653.051 L621.311 648.175 L624.553 643.395 L627.794 638.717 L631.035 634.15 L634.277 629.701 L637.518 625.379 L640.76 621.193 L644.001 617.151 L647.242 613.262 L650.484 609.535 L653.725 605.98 L656.966 602.605 L660.208 599.42 L663.449 596.434 L666.691 593.656 L669.932 591.091 L673.173 588.733 L676.415 586.571 L679.656 584.595 L682.898 582.794 L686.139 581.157 L689.38 579.673 L692.622 578.333 L695.863 577.126 L699.104 576.042 L702.346 575.071 L705.587 574.203 L708.829 573.429 L712.07 572.74 L715.311 572.127 L718.553 571.582 L721.794 571.096 L725.036 570.663 L728.277 570.274 L731.518 569.923 L734.76 569.604 L738.001 569.309 L741.242 569.034 L744.484 568.773 L747.725 568.521 L750.967 568.273 L754.208 568.026 L757.449 567.775 L760.691 567.517 L763.932 567.249 L767.174 566.969 L770.415 566.673 L773.656 566.361 L776.898 566.031 L780.139 565.681 L783.381 565.311 L786.622 564.92 L789.863 564.509 L793.105 564.078 L796.346 563.627 L799.587 563.159 L802.829 562.674 L806.07 562.174 L809.312 561.662 L812.553 561.141 L815.794 560.615 L819.036 560.086 L822.277 559.559 L825.519 559.039 L828.76 558.53 L832.001 558.039 L835.243 557.572 L838.484 557.135 L841.725 556.734 L844.967 556.378 L848.208 556.075 L851.45 555.833 L854.691 555.661 L857.932 555.568 L861.174 555.565 L864.415 555.661 L867.657 555.867 L870.898 556.193 L874.139 556.651 L877.381 557.253 L880.622 558.007 L883.863 558.915 L887.105 559.979 L890.346 561.198 L893.588 562.574 L896.829 564.106 L900.07 565.796 L903.312 567.645 L906.553 569.655 L909.795 571.827 L913.036 574.162 L916.277 576.663 L919.519 579.333 L922.76 582.173 L926.001 585.186 L929.243 588.375 L932.484 591.743 L935.726 595.293 L938.967 599.029 L942.208 602.95 L945.45 607.047 L948.691 611.308 L951.933 615.72 L955.174 620.272 L958.415 624.951 L961.657 629.746 L964.898 634.645 L968.139 639.639 L971.381 644.717 L974.622 649.868 L977.864 655.084 L981.105 660.355 L984.346 665.672 L987.588 671.027 L990.829 676.413 L994.071 681.821 L997.312 687.244 L1000.55 692.676 L1003.79 698.111 L1007.04 703.542 L1010.28 708.963 L1013.52 714.37 L1016.76 719.757 L1020 725.119 L1023.24 730.452 L1026.48 735.751 L1029.73 741.013 L1032.97 746.234 L1036.21 751.409 L1039.45 756.537 L1042.69 761.613 L1045.93 766.636 L1049.17 771.602 L1052.42 776.508 L1055.66 781.353 L1058.9 786.134 L1062.14 790.849 L1065.38 795.496 L1068.62 800.075 L1071.86 804.582 L1075.11 809.017 L1078.35 813.379 L1081.59 817.666 L1084.83 821.877 L1088.07 826.012 L1091.31 830.07 L1094.55 834.05 L1097.79 837.951 L1101.04 841.774 L1104.28 845.519 L1107.52 849.184 L1110.76 852.77 L1114 856.278 L1117.24 859.707 L1120.48 863.058 L1123.73 866.331 L1126.97 869.528 L1130.21 872.649 L1133.45 875.694 L1136.69 878.666 L1139.93 881.565 L1143.17 884.393 L1146.42 887.152 L1149.66 889.842 L1152.9 892.467 L1156.14 895.029 L1159.38 897.529 L1162.62 899.97 L1165.86 902.356 L1169.11 904.688 L1172.35 906.971 L1175.59 909.209 L1178.83 911.404 L1182.07 913.56 L1185.31 915.684 L1188.55 917.778 L1191.8 919.848 L1195.04 921.9 L1198.28 923.939 L1201.52 925.972 L1204.76 928.005 L1208 930.044 L1211.24 932.098 L1214.48 934.173 L1217.73 936.279 L1220.97 938.424 L1224.21 940.616 L1227.45 942.865 L1230.69 945.181 L1233.93 947.574 L1237.17 950.054 L1240.42 952.631 L1243.66 955.318 L1246.9 958.123 L1250.14 961.059 L1253.38 964.134 L1256.62 967.348 L1259.86 970.699 L1263.11 974.186 L1266.35 977.805 L1269.59 981.546 L1272.83 985.397 L1276.07 989.346 L1279.31 993.381 L1282.55 997.492 L1285.8 1001.67 L1289.04 1005.89 L1292.28 1010.16 L1295.52 1014.46 L1298.76 1018.78 L1302 1023.11 L1305.24 1027.45 L1308.48 1031.79 L1311.73 1036.11 L1314.97 1040.41 L1318.21 1044.69 L1321.45 1048.94 L1324.69 1053.15 L1327.93 1057.32 L1331.17 1061.45 L1334.42 1065.54 L1337.66 1069.57 L1340.9 1073.55 L1344.14 1077.49 L1347.38 1081.36 L1350.62 1085.19 L1353.86 1088.96 L1357.11 1092.67 L1360.35 1096.33 L1363.59 1099.92 L1366.83 1103.44 L1370.07 1106.9 L1373.31 1110.28 L1376.55 1113.58 L1379.8 1116.81 L1383.04 1119.96 L1386.28 1123.02 L1389.52 1126.01 L1392.76 1128.91 L1396 1131.74 L1399.24 1134.49 L1402.49 1137.17 L1405.73 1139.77 L1408.97 1142.31 L1412.21 1144.78 L1415.45 1147.19 L1418.69 1149.56 L1421.93 1151.88 L1425.17 1154.16 L1428.42 1156.42 L1431.66 1158.65 L1434.9 1160.88 L1438.14 1163.11 L1441.38 1165.35 L1444.62 1167.62 L1447.86 1169.92 L1451.11 1172.26 L1454.35 1174.66 L1457.59 1177.11 L1460.83 1179.62 L1464.07 1182.2 L1467.31 1184.86 L1470.55 1187.59 L1473.8 1190.41 L1477.04 1193.32 L1480.28 1196.31 L1483.52 1199.4 L1486.76 1202.6 L1490 1205.9 L1493.24 1209.31 L1496.49 1212.82 L1499.73 1216.44 L1502.97 1220.16 L1506.21 1223.97 L1509.45 1227.86 L1512.69 1231.85 L1515.93 1235.91 L1519.18 1240.06 L1522.42 1244.28 L1525.66 1248.58 L1528.9 1252.96 L1532.14 1257.41 L1535.38 1261.93 L1538.62 1266.52 L1541.86 1271.16 L1545.11 1275.84 L1548.35 1280.56 L1551.59 1285.29 L1554.83 1290.03 L1558.07 1294.77 L1561.31 1299.51 L1564.55 1304.23 L1567.8 1308.93 L1571.04 1313.59 L1574.28 1318.22 L1577.52 1322.81 L1580.76 1327.35 L1584 1331.83 L1587.24 1336.25 L1590.49 1340.6 L1593.73 1344.89 L1596.97 1349.11 L1600.21 1353.24 L1603.45 1357.3 L1606.69 1361.28 L1609.93 1365.17 L1613.18 1368.97 L1616.42 1372.68 L1619.66 1376.3 L1622.9 1379.83 L1626.14 1383.27 L1629.38 1386.61 L1632.62 1389.86 L1635.86 1393.02 L1639.11 1396.07 L1642.35 1399.04 L1645.59 1401.91 L1648.83 1404.69 L1652.07 1407.37 L1655.31 1409.96 L1658.55 1412.46 L1661.8 1414.88 L1665.04 1417.2 L1668.28 1419.44 L1671.52 1421.6 L1674.76 1423.67 L1678 1425.66 L1681.24 1427.57 L1684.49 1429.39 L1687.73 1431.14 L1690.97 1432.79 L1694.21 1434.35 L1697.45 1435.82 L1700.69 1437.2 L1703.93 1438.48 L1707.18 1439.66 L1710.42 1440.74 L1713.66 1441.71 L1716.9 1442.59 L1720.14 1443.35 L1723.38 1444.01 L1726.62 1444.56 L1729.87 1445.01 L1733.11 1445.34 L1736.35 1445.57 L1739.59 1445.7 L1742.83 1445.72 L1746.07 1445.63 L1749.31 1445.44 L1752.55 1445.15 L1755.8 1444.77 L1759.04 1444.29 L1762.28 1443.72 L1765.52 1443.07 L1768.76 1442.33 L1772 1441.52 L1775.24 1440.64 L1778.49 1439.69 L1781.73 1438.69 L1784.97 1437.64 L1788.21 1436.55 L1791.45 1435.42 L1794.69 1434.27 L1797.93 1433.1 L1801.18 1431.93 L1804.42 1430.75 L1807.66 1429.57 L1810.9 1428.37 L1814.14 1427.17 L1817.38 1425.95 L1820.62 1424.73 L1823.87 1423.5 L1827.11 1422.27 L1830.35 1421.03 L1833.59 1419.79 L1836.83 1418.54 L1840.07 1417.29 L1843.31 1416.03 L1846.55 1414.77 L1849.8 1413.51 L1853.04 1412.25 L1856.28 1411 L1859.52 1409.76 L1862.76 1408.52 L1866 1407.31 L1869.24 1406.11 L1872.49 1404.94 L1875.73 1403.81 L1878.97 1402.7 L1882.21 1401.63 L1885.45 1400.6 L1888.69 1399.61 L1891.93 1398.65 L1895.18 1397.72 L1898.42 1396.79 L1901.66 1395.87 L1904.9 1394.93 L1908.14 1393.96 L1911.38 1392.96 L1914.62 1391.92 L1917.87 1390.82 L1921.11 1389.65 L1924.35 1388.42 L1927.59 1387.11 L1930.83 1385.71 L1934.07 1384.22 L1937.31 1382.63 L1940.56 1380.94 L1943.8 1379.15 L1947.04 1377.26 L1950.28 1375.25 L1953.52 1373.13 L1956.76 1370.89 L1960 1368.54 L1963.24 1366.07 L1966.49 1363.49 L1969.73 1360.78 L1972.97 1357.97 L1976.21 1355.04 L1979.45 1351.99 L1982.69 1348.83 L1985.93 1345.57 L1989.18 1342.19 L1992.42 1338.71 L1995.66 1335.13 L1998.9 1331.46 L2002.14 1327.69 L2005.38 1323.82 L2008.62 1319.88 L2011.87 1315.85 L2015.11 1311.75 L2018.35 1307.59 L2021.59 1303.36 L2024.83 1299.07 L2028.07 1294.74 L2031.31 1290.37 L2034.56 1285.96 L2037.8 1281.53 L2041.04 1277.08 L2044.28 1272.63 L2047.52 1268.18 L2050.76 1263.75 L2054 1259.33 L2057.24 1254.95 L2060.49 1250.61 L2063.73 1246.33 L2066.97 1242.11 L2070.21 1237.96 L2073.45 1233.87 L2076.69 1229.85 L2079.93 1225.89 L2083.18 1222 L2086.42 1218.17 L2089.66 1214.4 L2092.9 1210.7 L2096.14 1207.07 L2099.38 1203.5 L2102.62 1200 L2105.87 1196.56 L2109.11 1193.18 L2112.35 1189.84 L2115.59 1186.56 L2118.83 1183.32 L2122.07 1180.12 L2125.31 1176.95 L2128.56 1173.82 L2131.8 1170.72 L2135.04 1167.65 L2138.28 1164.6 L2141.52 1161.59 L2144.76 1158.6 L2148 1155.63 L2151.25 1152.7 L2154.49 1149.8 L2157.73 1146.92 L2160.97 1144.09 L2164.21 1141.29 L2167.45 1138.54 L2170.69 1135.83 L2173.93 1133.18 L2177.18 1130.59 L2180.42 1128.06 L2183.66 1125.6 L2186.9 1123.22 L2190.14 1120.93 L2193.38 1118.73 L2196.62 1116.64 L2199.87 1114.63 L2203.11 1112.73 L2206.35 1110.91 L2209.59 1109.19 L2212.83 1107.55 L2216.07 1106 L2219.31 1104.53 L2222.56 1103.14 L2225.8 1101.83 L2229.04 1100.61 L2232.28 1099.47 L2235.52 1098.41 L2238.76 1097.43 L2242 1096.54 L2245.25 1095.74 L2248.49 1095.02 L2251.73 1094.4 L2254.97 1093.88 L2258.21 1093.45 L2261.45 1093.13 L2264.69 1092.91 L2267.94 1092.81 L2271.18 1092.82 L2274.42 1092.95 L2277.66 1093.21 L2280.9 1093.6 L2284.14 1094.13 L2287.38 1094.79 L2290.62 1095.59 L2290.62 644.915 L2287.38 649.15 L2284.14 653.317 L2280.9 657.412 L2277.66 661.438 L2274.42 665.4 L2271.18 669.304 L2267.94 673.156 L2264.69 676.96 L2261.45 680.722 L2258.21 684.447 L2254.97 688.14 L2251.73 691.806 L2248.49 695.448 L2245.25 699.071 L2242 702.678 L2238.76 706.274 L2235.52 709.86 L2232.28 713.439 L2229.04 717.014 L2225.8 720.586 L2222.56 724.156 L2219.31 727.725 L2216.07 731.294 L2212.83 734.862 L2209.59 738.429 L2206.35 741.994 L2203.11 745.557 L2199.87 749.115 L2196.62 752.666 L2193.38 756.21 L2190.14 759.744 L2186.9 763.272 L2183.66 766.799 L2180.42 770.33 L2177.18 773.868 L2173.93 777.417 L2170.69 780.982 L2167.45 784.563 L2164.21 788.165 L2160.97 791.788 L2157.73 795.434 L2154.49 799.103 L2151.25 802.797 L2148 806.513 L2144.76 810.252 L2141.52 814.011 L2138.28 817.789 L2135.04 821.581 L2131.8 825.386 L2128.56 829.197 L2125.31 833.012 L2122.07 836.824 L2118.83 840.627 L2115.59 844.416 L2112.35 848.183 L2109.11 851.922 L2105.87 855.624 L2102.62 859.282 L2099.38 862.887 L2096.14 866.434 L2092.9 869.923 L2089.66 873.359 L2086.42 876.744 L2083.18 880.082 L2079.93 883.375 L2076.69 886.627 L2073.45 889.84 L2070.21 893.016 L2066.97 896.159 L2063.73 899.269 L2060.49 902.35 L2057.24 905.41 L2054 908.457 L2050.76 911.5 L2047.52 914.548 L2044.28 917.606 L2041.04 920.684 L2037.8 923.788 L2034.56 926.925 L2031.31 930.101 L2028.07 933.321 L2024.83 936.592 L2021.59 939.918 L2018.35 943.303 L2015.11 946.751 L2011.87 950.265 L2008.62 953.85 L2005.38 957.506 L2002.14 961.236 L1998.9 965.042 L1995.66 968.925 L1992.42 972.886 L1989.18 976.924 L1985.93 981.04 L1982.69 985.232 L1979.45 989.5 L1976.21 993.843 L1972.97 998.257 L1969.73 1002.74 L1966.49 1007.29 L1963.24 1011.9 L1960 1016.58 L1956.76 1021.3 L1953.52 1026.08 L1950.28 1030.9 L1947.04 1035.75 L1943.8 1040.64 L1940.56 1045.54 L1937.31 1050.47 L1934.07 1055.39 L1930.83 1060.32 L1927.59 1065.22 L1924.35 1070.1 L1921.11 1074.94 L1917.87 1079.73 L1914.62 1084.46 L1911.38 1089.1 L1908.14 1093.65 L1904.9 1098.08 L1901.66 1102.38 L1898.42 1106.54 L1895.18 1110.52 L1891.93 1114.32 L1888.69 1117.91 L1885.45 1121.28 L1882.21 1124.4 L1878.97 1127.27 L1875.73 1129.86 L1872.49 1132.18 L1869.24 1134.25 L1866 1136.07 L1862.76 1137.65 L1859.52 1139 L1856.28 1140.13 L1853.04 1141.05 L1849.8 1141.76 L1846.55 1142.27 L1843.31 1142.58 L1840.07 1142.71 L1836.83 1142.65 L1833.59 1142.41 L1830.35 1141.99 L1827.11 1141.4 L1823.87 1140.63 L1820.62 1139.69 L1817.38 1138.61 L1814.14 1137.39 L1810.9 1136.03 L1807.66 1134.56 L1804.42 1132.97 L1801.18 1131.28 L1797.93 1129.5 L1794.69 1127.63 L1791.45 1125.68 L1788.21 1123.66 L1784.97 1121.59 L1781.73 1119.46 L1778.49 1117.3 L1775.24 1115.1 L1772 1112.88 L1768.76 1110.63 L1765.52 1108.38 L1762.28 1106.11 L1759.04 1103.84 L1755.8 1101.56 L1752.55 1099.29 L1749.31 1097.01 L1746.07 1094.75 L1742.83 1092.48 L1739.59 1090.23 L1736.35 1087.98 L1733.11 1085.73 L1729.87 1083.49 L1726.62 1081.25 L1723.38 1079.01 L1720.14 1076.77 L1716.9 1074.52 L1713.66 1072.26 L1710.42 1069.99 L1707.18 1067.7 L1703.93 1065.39 L1700.69 1063.05 L1697.45 1060.68 L1694.21 1058.27 L1690.97 1055.81 L1687.73 1053.3 L1684.49 1050.73 L1681.24 1048.09 L1678 1045.39 L1674.76 1042.61 L1671.52 1039.75 L1668.28 1036.84 L1665.04 1033.87 L1661.8 1030.86 L1658.55 1027.81 L1655.31 1024.74 L1652.07 1021.65 L1648.83 1018.55 L1645.59 1015.44 L1642.35 1012.34 L1639.11 1009.25 L1635.86 1006.18 L1632.62 1003.13 L1629.38 1000.1 L1626.14 997.118 L1622.9 994.17 L1619.66 991.267 L1616.42 988.412 L1613.18 985.611 L1609.93 982.865 L1606.69 980.179 L1603.45 977.554 L1600.21 974.995 L1596.97 972.502 L1593.73 970.077 L1590.49 967.721 L1587.24 965.436 L1584 963.22 L1580.76 961.075 L1577.52 958.999 L1574.28 956.992 L1571.04 955.051 L1567.8 953.175 L1564.55 951.361 L1561.31 949.606 L1558.07 947.906 L1554.83 946.258 L1551.59 944.657 L1548.35 943.097 L1545.11 941.573 L1541.86 940.079 L1538.62 938.608 L1535.38 937.153 L1532.14 935.707 L1528.9 934.261 L1525.66 932.813 L1522.42 931.359 L1519.18 929.894 L1515.93 928.414 L1512.69 926.914 L1509.45 925.388 L1506.21 923.831 L1502.97 922.235 L1499.73 920.595 L1496.49 918.901 L1493.24 917.146 L1490 915.321 L1486.76 913.42 L1483.52 911.435 L1480.28 909.361 L1477.04 907.193 L1473.8 904.926 L1470.55 902.551 L1467.31 900.064 L1464.07 897.457 L1460.83 894.724 L1457.59 891.857 L1454.35 888.861 L1451.11 885.738 L1447.86 882.492 L1444.62 879.126 L1441.38 875.646 L1438.14 872.06 L1434.9 868.381 L1431.66 864.621 L1428.42 860.788 L1425.17 856.894 L1421.93 852.948 L1418.69 848.956 L1415.45 844.928 L1412.21 840.869 L1408.97 836.785 L1405.73 832.681 L1402.49 828.56 L1399.24 824.426 L1396 820.282 L1392.76 816.127 L1389.52 811.965 L1386.28 807.793 L1383.04 803.612 L1379.8 799.419 L1376.55 795.214 L1373.31 790.991 L1370.07 786.749 L1366.83 782.482 L1363.59 778.186 L1360.35 773.855 L1357.11 769.485 L1353.86 765.068 L1350.62 760.599 L1347.38 756.082 L1344.14 751.522 L1340.9 746.922 L1337.66 742.286 L1334.42 737.617 L1331.17 732.919 L1327.93 728.192 L1324.69 723.438 L1321.45 718.659 L1318.21 713.853 L1314.97 709.021 L1311.73 704.161 L1308.48 699.271 L1305.24 694.348 L1302 689.39 L1298.76 684.392 L1295.52 679.349 L1292.28 674.257 L1289.04 669.109 L1285.8 663.899 L1282.55 658.621 L1279.31 653.267 L1276.07 647.83 L1272.83 642.301 L1269.59 636.674 L1266.35 630.94 L1263.11 625.091 L1259.86 619.121 L1256.62 613.031 L1253.38 606.822 L1250.14 600.497 L1246.9 594.061 L1243.66 587.521 L1240.42 580.888 L1237.17 574.173 L1233.93 567.384 L1230.69 560.533 L1227.45 553.628 L1224.21 546.68 L1220.97 539.697 L1217.73 532.689 L1214.48 525.664 L1211.24 518.63 L1208 511.594 L1204.76 504.564 L1201.52 497.548 L1198.28 490.55 L1195.04 483.578 L1191.8 476.638 L1188.55 469.734 L1185.31 462.872 L1182.07 456.057 L1178.83 449.293 L1175.59 442.584 L1172.35 435.934 L1169.11 429.347 L1165.86 422.826 L1162.62 416.375 L1159.38 409.996 L1156.14 403.692 L1152.9 397.466 L1149.66 391.32 L1146.42 385.256 L1143.17 379.277 L1139.93 373.384 L1136.69 367.579 L1133.45 361.864 L1130.21 356.24 L1126.97 350.708 L1123.73 345.271 L1120.48 339.928 L1117.24 334.682 L1114 329.533 L1110.76 324.482 L1107.52 319.53 L1104.28 314.677 L1101.04 309.925 L1097.79 305.274 L1094.55 300.724 L1091.31 296.276 L1088.07 291.93 L1084.83 287.686 L1081.59 283.545 L1078.35 279.507 L1075.11 275.572 L1071.86 271.739 L1068.62 268.009 L1065.38 264.382 L1062.14 260.857 L1058.9 257.434 L1055.66 254.113 L1052.42 250.892 L1049.17 247.773 L1045.93 244.753 L1042.69 241.831 L1039.45 239.008 L1036.21 236.282 L1032.97 233.652 L1029.73 231.116 L1026.48 228.673 L1023.24 226.322 L1020 224.061 L1016.76 221.888 L1013.52 219.8 L1010.28 217.796 L1007.04 215.873 L1003.79 214.028 L1000.55 212.259 L997.312 210.563 L994.071 208.935 L990.829 207.373 L987.588 205.872 L984.346 204.429 L981.105 203.039 L977.864 201.697 L974.622 200.398 L971.381 199.136 L968.139 197.908 L964.898 196.705 L961.657 195.523 L958.415 194.355 L955.174 193.193 L951.933 192.033 L948.691 190.865 L945.45 189.684 L942.208 188.482 L938.967 187.251 L935.726 185.986 L932.484 184.685 L929.243 183.346 L926.001 181.969 L922.76 180.552 L919.519 179.095 L916.277 177.596 L913.036 176.054 L909.795 174.469 L906.553 172.84 L903.312 171.164 L900.07 169.441 L896.829 167.67 L893.588 165.849 L890.346 163.976 L887.105 162.05 L883.863 160.069 L880.622 158.031 L877.381 155.936 L874.139 153.783 L870.898 151.579 L867.657 149.333 L864.415 147.053 L861.174 144.747 L857.932 142.424 L854.691 140.091 L851.45 137.756 L848.208 135.427 L844.967 133.111 L841.725 130.814 L838.484 128.543 L835.243 126.303 L832.001 124.101 L828.76 121.942 L825.519 119.83 L822.277 117.771 L819.036 115.768 L815.794 113.826 L812.553 111.947 L809.312 110.135 L806.07 108.394 L802.829 106.724 L799.587 105.13 L796.346 103.612 L793.105 102.172 L789.863 100.812 L786.622 99.5323 L783.381 98.3342 L780.139 97.2181 L776.898 96.1842 L773.656 95.2324 L770.415 94.3626 L767.174 93.5741 L763.932 92.8662 L760.691 92.2378 L757.449 91.6875 L754.208 91.2139 L750.967 90.8149 L747.725 90.4886 L744.484 90.2325 L741.242 90.044 L738.001 89.9203 L734.76 89.8581 L731.518 89.854 L728.277 89.9044 L725.036 90.0053 L721.794 90.1526 L718.553 90.3417 L715.311 90.5681 L712.07 90.8267 L708.829 91.1126 L705.587 91.4203 L702.346 91.7444 L699.104 92.0792 L695.863 92.419 L692.622 92.7577 L689.38 93.0896 L686.139 93.4086 L682.898 93.7087 L679.656 93.984 L676.415 94.2287 L673.173 94.4372 L669.932 94.604 L666.691 94.724 L663.449 94.7935 L660.208 94.8137 L656.966 94.7876 L653.725 94.718 L650.484 94.6082 L647.242 94.4617 L644.001 94.2819 L640.76 94.0724 L637.518 93.8367 L634.277 93.5785 L631.035 93.3012 L627.794 93.0083 L624.553 92.7032 L621.311 92.3891 L618.07 92.0692 L614.828 91.7464 L611.587 91.4236 L608.346 91.1036 L605.104 90.7888 L601.863 90.4816 L598.622 90.1844 L595.38 89.8992 L592.139 89.6279 L588.897 89.3724 L585.656 89.1342 L582.415 88.9149 L579.173 88.7158 L575.932 88.5383 L572.69 88.3833 L569.449 88.2519 L566.208 88.1451 L562.966 88.0634 L559.725 88.0077 L556.484 87.9785 L553.242 87.9763 L550.001 88.0014 L546.759 88.0543 L543.518 88.1351 L540.277 88.2441 L537.035 88.3813 L533.794 88.5467 L530.552 88.7405 L527.311 88.9624 L524.07 89.2125 L520.828 89.4905 L517.587 89.7962 L514.346 90.1294 L511.104 90.4899 L507.863 90.8773 L504.621 91.2913 L501.38 91.7315 L498.139 92.1975 L494.897 92.689 L491.656 93.2055 L488.414 93.7466 L485.173 94.3117 L481.932 94.9005 L478.69 95.5124 L475.449 96.1469 L472.208 96.8036 L468.966 97.4818 L465.725 98.1811 L462.483 98.901 L459.242 99.6408 L456.001 100.4 L452.759 101.178 L449.518 101.975 L446.276 102.789 L443.035 103.621 L439.794 104.47 L436.552 105.334 L433.311 106.215 L430.069 107.11 L426.828 108.02 L423.587 108.945 L420.345 109.882 L417.104 110.833 L413.863 111.796 L410.621 112.772 L407.38 113.758 L404.138 114.756 L400.897 115.764 L397.656 116.783 L394.414 117.81 L391.173 118.847 L387.931 119.893 L384.69 120.946 L381.449 122.007 L378.207 123.076 L374.966 124.151 L371.725 125.233 L368.483 126.321 L365.242 127.414 L362 128.512 L358.759 129.615 L355.518 130.723 L352.276 131.834 L349.035 132.949 L345.793 134.067 L342.552 135.189 L339.311 136.312 L336.069 137.438 L332.828 138.566 L329.587 139.695 L326.345 140.826 L323.104 141.957 L319.862 143.089 L316.621 144.221 L313.38 145.353 L310.138 146.485 L306.897 147.617 L303.655 148.747 L300.414 149.877 L297.173 151.005 L293.931 152.131 L290.69 153.256 L287.449 154.379 L284.207 155.499 L280.966 156.617 L277.724 157.733 L274.483 158.845 L271.242 159.954 L268 161.06 L264.759 162.162 L261.517 163.261 L258.276 164.356 L255.035 165.447  Z" fill="#3da44d" fill-rule="evenodd" fill-opacity="0.1"/>
<polyline clip-path="url(#clip802)" style="stroke:#3da44d; stroke-linecap:round; stroke-linejoin:round; stroke-width:8; stroke-opacity:1; fill:none" points="255.035,644.412 258.276,642.75 261.517,641.072 264.759,639.376 268,637.664 271.242,635.934 274.483,634.187 277.724,632.423 280.966,630.641 284.207,628.842 287.449,627.025 290.69,625.191 293.931,623.339 297.173,621.47 300.414,619.583 303.655,617.678 306.897,615.755 310.138,613.814 313.38,611.855 316.621,609.879 319.862,607.884 323.104,605.872 326.345,603.841 329.587,601.792 332.828,599.726 336.069,597.641 339.311,595.538 342.552,593.417 345.793,591.278 349.035,589.121 352.276,586.946 355.518,584.754 358.759,582.543 362,580.314 365.242,578.067 368.483,575.803 371.725,573.521 374.966,571.221 378.207,568.904 381.449,566.569 384.69,564.217 387.931,561.848 391.173,559.461 394.414,557.058 397.656,554.637 400.897,552.2 404.138,549.746 407.38,547.276 410.621,544.789 413.863,542.286 417.104,539.768 420.345,537.234 423.587,534.684 426.828,532.119 430.069,529.539 433.311,526.944 436.552,524.335 439.794,521.712 443.035,519.075 446.276,516.424 449.518,513.76 452.759,511.084 456.001,508.394 459.242,505.693 462.483,502.98 465.725,500.256 468.966,497.52 472.208,494.775 475.449,492.019 478.69,489.254 481.932,486.48 485.173,483.698 488.414,480.907 491.656,478.11 494.897,475.305 498.139,472.495 501.38,469.679 504.621,466.859 507.863,464.034 511.104,461.206 514.346,458.375 517.587,455.543 520.828,452.71 524.07,449.876 527.311,447.043 530.552,444.211 533.794,441.382 537.035,438.557 540.277,435.736 543.518,432.92 546.759,430.111 550.001,427.309 553.242,424.516 556.484,421.732 559.725,418.96 562.966,416.2 566.208,413.453 569.449,410.722 572.69,408.006 575.932,405.308 579.173,402.63 582.415,399.971 585.656,397.335 588.897,394.723 592.139,392.135 595.38,389.575 598.622,387.043 601.863,384.542 605.104,382.073 608.346,379.639 611.587,377.24 614.828,374.88 618.07,372.56 621.311,370.282 624.553,368.049 627.794,365.863 631.035,363.725 634.277,361.64 637.518,359.608 640.76,357.632 644.001,355.716 647.242,353.862 650.484,352.072 653.725,350.349 656.966,348.696 660.208,347.117 663.449,345.614 666.691,344.19 669.932,342.848 673.173,341.585 676.415,340.4 679.656,339.29 682.898,338.251 686.139,337.283 689.38,336.381 692.622,335.545 695.863,334.773 699.104,334.061 702.346,333.408 705.587,332.812 708.829,332.271 712.07,331.783 715.311,331.348 718.553,330.962 721.794,330.624 725.036,330.334 728.277,330.089 731.518,329.889 734.76,329.731 738.001,329.615 741.242,329.539 744.484,329.503 747.725,329.505 750.967,329.544 754.208,329.62 757.449,329.731 760.691,329.877 763.932,330.058 767.174,330.271 770.415,330.518 773.656,330.797 776.898,331.108 780.139,331.45 783.381,331.823 786.622,332.226 789.863,332.661 793.105,333.125 796.346,333.62 799.587,334.144 802.829,334.699 806.07,335.284 809.312,335.899 812.553,336.544 815.794,337.22 819.036,337.927 822.277,338.665 825.519,339.435 828.76,340.236 832.001,341.07 835.243,341.938 838.484,342.839 841.725,343.774 844.967,344.745 848.208,345.751 851.45,346.795 854.691,347.876 857.932,348.996 861.174,350.156 864.415,351.357 867.657,352.6 870.898,353.886 874.139,355.217 877.381,356.595 880.622,358.019 883.863,359.492 887.105,361.014 890.346,362.587 893.588,364.211 896.829,365.888 900.07,367.619 903.312,369.405 906.553,371.247 909.795,373.148 913.036,375.108 916.277,377.129 919.519,379.214 922.76,381.362 926.001,383.577 929.243,385.861 932.484,388.214 935.726,390.64 938.967,393.14 942.208,395.716 945.45,398.366 948.691,401.087 951.933,403.877 955.174,406.733 958.415,409.653 961.657,412.634 964.898,415.675 968.139,418.773 971.381,421.927 974.622,425.133 977.864,428.39 981.105,431.697 984.346,435.051 987.588,438.45 990.829,441.893 994.071,445.378 997.312,448.903 1000.55,452.468 1003.79,456.07 1007.04,459.707 1010.28,463.38 1013.52,467.085 1016.76,470.822 1020,474.59 1023.24,478.387 1026.48,482.212 1029.73,486.064 1032.97,489.943 1036.21,493.846 1039.45,497.773 1042.69,501.722 1045.93,505.694 1049.17,509.687 1052.42,513.7 1055.66,517.733 1058.9,521.784 1062.14,525.853 1065.38,529.939 1068.62,534.042 1071.86,538.161 1075.11,542.294 1078.35,546.443 1081.59,550.606 1084.83,554.782 1088.07,558.971 1091.31,563.173 1094.55,567.387 1097.79,571.613 1101.04,575.85 1104.28,580.098 1107.52,584.357 1110.76,588.626 1114,592.905 1117.24,597.194 1120.48,601.493 1123.73,605.801 1126.97,610.118 1130.21,614.444 1133.45,618.779 1136.69,623.123 1139.93,627.475 1143.17,631.835 1146.42,636.204 1149.66,640.581 1152.9,644.967 1156.14,649.36 1159.38,653.762 1162.62,658.173 1165.86,662.591 1169.11,667.018 1172.35,671.453 1175.59,675.896 1178.83,680.348 1182.07,684.809 1185.31,689.278 1188.55,693.756 1191.8,698.243 1195.04,702.739 1198.28,707.245 1201.52,711.76 1204.76,716.285 1208,720.819 1211.24,725.364 1214.48,729.919 1217.73,734.484 1220.97,739.06 1224.21,743.648 1227.45,748.246 1230.69,752.857 1233.93,757.479 1237.17,762.113 1240.42,766.76 1243.66,771.419 1246.9,776.092 1250.14,780.778 1253.38,785.478 1256.62,790.189 1259.86,794.91 1263.11,799.638 1266.35,804.372 1269.59,809.11 1272.83,813.849 1276.07,818.588 1279.31,823.324 1282.55,828.056 1285.8,832.783 1289.04,837.501 1292.28,842.209 1295.52,846.905 1298.76,851.587 1302,856.252 1305.24,860.9 1308.48,865.528 1311.73,870.134 1314.97,874.715 1318.21,879.27 1321.45,883.797 1324.69,888.293 1327.93,892.757 1331.17,897.185 1334.42,901.576 1337.66,905.928 1340.9,910.238 1344.14,914.504 1347.38,918.723 1350.62,922.893 1353.86,927.012 1357.11,931.078 1360.35,935.091 1363.59,939.052 1366.83,942.963 1370.07,946.823 1373.31,950.635 1376.55,954.398 1379.8,958.114 1383.04,961.784 1386.28,965.408 1389.52,968.987 1392.76,972.521 1396,976.012 1399.24,979.459 1402.49,982.863 1405.73,986.225 1408.97,989.545 1412.21,992.823 1415.45,996.061 1418.69,999.257 1421.93,1002.41 1425.17,1005.53 1428.42,1008.6 1431.66,1011.64 1434.9,1014.63 1438.14,1017.58 1441.38,1020.5 1444.62,1023.37 1447.86,1026.21 1451.11,1029 1454.35,1031.76 1457.59,1034.48 1460.83,1037.17 1464.07,1039.83 1467.31,1042.46 1470.55,1045.07 1473.8,1047.67 1477.04,1050.25 1480.28,1052.84 1483.52,1055.42 1486.76,1058.01 1490,1060.61 1493.24,1063.23 1496.49,1065.86 1499.73,1068.52 1502.97,1071.2 1506.21,1073.9 1509.45,1076.63 1512.69,1079.38 1515.93,1082.16 1519.18,1084.98 1522.42,1087.82 1525.66,1090.7 1528.9,1093.61 1532.14,1096.56 1535.38,1099.54 1538.62,1102.57 1541.86,1105.62 1545.11,1108.71 1548.35,1111.83 1551.59,1114.97 1554.83,1118.14 1558.07,1121.34 1561.31,1124.56 1564.55,1127.8 1567.8,1131.05 1571.04,1134.32 1574.28,1137.61 1577.52,1140.9 1580.76,1144.21 1584,1147.52 1587.24,1150.84 1590.49,1154.16 1593.73,1157.48 1596.97,1160.8 1600.21,1164.12 1603.45,1167.43 1606.69,1170.73 1609.93,1174.02 1613.18,1177.29 1616.42,1180.55 1619.66,1183.79 1622.9,1187 1626.14,1190.19 1629.38,1193.36 1632.62,1196.49 1635.86,1199.6 1639.11,1202.66 1642.35,1205.69 1645.59,1208.68 1648.83,1211.62 1652.07,1214.51 1655.31,1217.35 1658.55,1220.14 1661.8,1222.87 1665.04,1225.54 1668.28,1228.14 1671.52,1230.67 1674.76,1233.14 1678,1235.52 1681.24,1237.83 1684.49,1240.06 1687.73,1242.22 1690.97,1244.3 1694.21,1246.31 1697.45,1248.25 1700.69,1250.13 1703.93,1251.94 1707.18,1253.68 1710.42,1255.37 1713.66,1256.99 1716.9,1258.55 1720.14,1260.06 1723.38,1261.51 1726.62,1262.91 1729.87,1264.25 1733.11,1265.54 1736.35,1266.78 1739.59,1267.96 1742.83,1269.1 1746.07,1270.19 1749.31,1271.23 1752.55,1272.22 1755.8,1273.16 1759.04,1274.06 1762.28,1274.92 1765.52,1275.72 1768.76,1276.48 1772,1277.2 1775.24,1277.87 1778.49,1278.5 1781.73,1279.08 1784.97,1279.61 1788.21,1280.1 1791.45,1280.55 1794.69,1280.95 1797.93,1281.3 1801.18,1281.61 1804.42,1281.86 1807.66,1282.06 1810.9,1282.2 1814.14,1282.28 1817.38,1282.28 1820.62,1282.21 1823.87,1282.06 1827.11,1281.83 1830.35,1281.51 1833.59,1281.1 1836.83,1280.59 1840.07,1280 1843.31,1279.31 1846.55,1278.52 1849.8,1277.63 1853.04,1276.65 1856.28,1275.57 1859.52,1274.38 1862.76,1273.09 1866,1271.69 1869.24,1270.18 1872.49,1268.56 1875.73,1266.83 1878.97,1264.98 1882.21,1263.02 1885.45,1260.94 1888.69,1258.76 1891.93,1256.49 1895.18,1254.12 1898.42,1251.66 1901.66,1249.12 1904.9,1246.5 1908.14,1243.8 1911.38,1241.03 1914.62,1238.19 1917.87,1235.28 1921.11,1232.3 1924.35,1229.26 1927.59,1226.16 1930.83,1223.01 1934.07,1219.81 1937.31,1216.55 1940.56,1213.24 1943.8,1209.9 1947.04,1206.5 1950.28,1203.07 1953.52,1199.6 1956.76,1196.1 1960,1192.56 1963.24,1188.99 1966.49,1185.39 1969.73,1181.76 1972.97,1178.11 1976.21,1174.44 1979.45,1170.75 1982.69,1167.03 1985.93,1163.3 1989.18,1159.56 1992.42,1155.8 1995.66,1152.03 1998.9,1148.25 2002.14,1144.46 2005.38,1140.67 2008.62,1136.86 2011.87,1133.06 2015.11,1129.25 2018.35,1125.45 2021.59,1121.64 2024.83,1117.83 2028.07,1114.03 2031.31,1110.23 2034.56,1106.44 2037.8,1102.66 2041.04,1098.88 2044.28,1095.12 2047.52,1091.36 2050.76,1087.62 2054,1083.89 2057.24,1080.18 2060.49,1076.48 2063.73,1072.8 2066.97,1069.14 2070.21,1065.49 2073.45,1061.86 2076.69,1058.24 2079.93,1054.63 2083.18,1051.04 2086.42,1047.46 2089.66,1043.88 2092.9,1040.31 2096.14,1036.75 2099.38,1033.19 2102.62,1029.64 2105.87,1026.09 2109.11,1022.55 2112.35,1019.01 2115.59,1015.49 2118.83,1011.97 2122.07,1008.47 2125.31,1004.98 2128.56,1001.51 2131.8,998.053 2135.04,994.615 2138.28,991.197 2141.52,987.8 2144.76,984.425 2148,981.074 2151.25,977.748 2154.49,974.45 2157.73,971.179 2160.97,967.938 2164.21,964.729 2167.45,961.551 2170.69,958.408 2173.93,955.299 2177.18,952.228 2180.42,949.195 2183.66,946.201 2186.9,943.248 2190.14,940.338 2193.38,937.472 2196.62,934.651 2199.87,931.875 2203.11,929.143 2206.35,926.454 2209.59,923.809 2212.83,921.206 2216.07,918.646 2219.31,916.126 2222.56,913.648 2225.8,911.21 2229.04,908.812 2232.28,906.453 2235.52,904.134 2238.76,901.852 2242,899.609 2245.25,897.404 2248.49,895.235 2251.73,893.103 2254.97,891.008 2258.21,888.949 2261.45,886.925 2264.69,884.936 2267.94,882.982 2271.18,881.063 2274.42,879.177 2277.66,877.326 2280.9,875.508 2284.14,873.723 2287.38,871.971 2290.62,870.252 "/>
<polyline clip-path="url(#clip802)" style="stroke:#c271d2; stroke-linecap:round; stroke-linejoin:round; stroke-width:12; stroke-opacity:1; fill:none" points="255.035,967.469 362.225,884.841 469.416,766.77 576.607,618.007 683.797,502.786 790.988,488.992 898.179,500.279 1005.37,621.678 1112.56,768.882 1219.75,872.423 1326.94,1002.45 1434.13,1112.69 1541.32,1216.58 1648.51,1341.57 1755.7,1388.91 1862.89,1364.39 1970.09,1302.18 2077.28,1173.29 2184.47,1066.56 2291.66,1022.25 "/>
<polyline clip-path="url(#clip802)" style="stroke:#ac8d18; stroke-linecap:round; stroke-linejoin:round; stroke-width:12; stroke-opacity:1; fill:none" points="255.035,321.355 362.225,275.476 469.416,227.51 576.607,191.492 683.797,173.165 790.988,176.644 898.179,232.926 1005.37,293.987 1112.56,413.119 1219.75,602.259 1326.94,780.336 1434.13,915.161 1541.32,993.63 1648.51,1081.1 1755.7,1157.37 1862.89,1181.68 1970.09,1060.55 2077.28,941.884 2184.47,824.362 2291.66,717.169 "/>
<path clip-path="url(#clip800)" d="M1953.46 406.258 L2280.8 406.258 L2280.8 95.2176 L1953.46 95.2176  Z" fill="#ffffff" fill-rule="evenodd" fill-opacity="1"/>
<polyline clip-path="url(#clip800)" style="stroke:#000000; stroke-linecap:round; stroke-linejoin:round; stroke-width:4; stroke-opacity:1; fill:none" points="1953.46,406.258 2280.8,406.258 2280.8,95.2176 1953.46,95.2176 1953.46,406.258 "/>
<polyline clip-path="url(#clip800)" style="stroke:#009af9; stroke-linecap:round; stroke-linejoin:round; stroke-width:4; stroke-opacity:1; fill:none" points="1977.44,147.058 2121.36,147.058 "/>
<path clip-path="url(#clip800)" d="M2152.76 131.051 L2152.76 138.412 L2161.53 138.412 L2161.53 141.722 L2152.76 141.722 L2152.76 155.796 Q2152.76 158.967 2153.61 159.87 Q2154.49 160.773 2157.16 160.773 L2161.53 160.773 L2161.53 164.338 L2157.16 164.338 Q2152.23 164.338 2150.35 162.509 Q2148.48 160.657 2148.48 155.796 L2148.48 141.722 L2145.35 141.722 L2145.35 138.412 L2148.48 138.412 L2148.48 131.051 L2152.76 131.051 Z" fill="#000000" fill-rule="nonzero" fill-opacity="1" /><path clip-path="url(#clip800)" d="M2182.16 142.393 Q2181.44 141.977 2180.58 141.791 Q2179.75 141.583 2178.73 141.583 Q2175.12 141.583 2173.17 143.944 Q2171.25 146.282 2171.25 150.68 L2171.25 164.338 L2166.97 164.338 L2166.97 138.412 L2171.25 138.412 L2171.25 142.44 Q2172.6 140.078 2174.75 138.944 Q2176.9 137.787 2179.98 137.787 Q2180.42 137.787 2180.95 137.856 Q2181.48 137.903 2182.13 138.018 L2182.16 142.393 Z" fill="#000000" fill-rule="nonzero" fill-opacity="1" /><path clip-path="url(#clip800)" d="M2186.18 154.106 L2186.18 138.412 L2190.44 138.412 L2190.44 153.944 Q2190.44 157.625 2191.88 159.476 Q2193.31 161.305 2196.18 161.305 Q2199.63 161.305 2201.62 159.106 Q2203.64 156.907 2203.64 153.111 L2203.64 138.412 L2207.9 138.412 L2207.9 164.338 L2203.64 164.338 L2203.64 160.356 Q2202.09 162.717 2200.03 163.875 Q2197.99 165.009 2195.28 165.009 Q2190.81 165.009 2188.5 162.231 Q2186.18 159.453 2186.18 154.106 M2196.9 137.787 L2196.9 137.787 Z" fill="#000000" fill-rule="nonzero" fill-opacity="1" /><path clip-path="url(#clip800)" d="M2220.88 131.051 L2220.88 138.412 L2229.66 138.412 L2229.66 141.722 L2220.88 141.722 L2220.88 155.796 Q2220.88 158.967 2221.74 159.87 Q2222.62 160.773 2225.28 160.773 L2229.66 160.773 L2229.66 164.338 L2225.28 164.338 Q2220.35 164.338 2218.48 162.509 Q2216.6 160.657 2216.6 155.796 L2216.6 141.722 L2213.48 141.722 L2213.48 138.412 L2216.6 138.412 L2216.6 131.051 L2220.88 131.051 Z" fill="#000000" fill-rule="nonzero" fill-opacity="1" /><path clip-path="url(#clip800)" d="M2256.81 148.689 L2256.81 164.338 L2252.55 164.338 L2252.55 148.828 Q2252.55 145.148 2251.11 143.319 Q2249.68 141.49 2246.81 141.49 Q2243.36 141.49 2241.37 143.69 Q2239.38 145.889 2239.38 149.685 L2239.38 164.338 L2235.1 164.338 L2235.1 128.319 L2239.38 128.319 L2239.38 142.44 Q2240.91 140.102 2242.97 138.944 Q2245.05 137.787 2247.76 137.787 Q2252.23 137.787 2254.52 140.565 Q2256.81 143.319 2256.81 148.689 Z" fill="#000000" fill-rule="nonzero" fill-opacity="1" /><circle clip-path="url(#clip800)" cx="2049.4" cy="198.898" r="20.48" fill="#e26f46" fill-rule="evenodd" fill-opacity="1" stroke="#000000" stroke-opacity="1" stroke-width="4.55111"/>
<path clip-path="url(#clip800)" d="M2164.26 194.187 L2164.26 180.159 L2168.52 180.159 L2168.52 216.178 L2164.26 216.178 L2164.26 212.289 Q2162.92 214.603 2160.86 215.738 Q2158.82 216.849 2155.95 216.849 Q2151.25 216.849 2148.29 213.099 Q2145.35 209.349 2145.35 203.238 Q2145.35 197.127 2148.29 193.377 Q2151.25 189.627 2155.95 189.627 Q2158.82 189.627 2160.86 190.761 Q2162.92 191.872 2164.26 194.187 M2149.75 203.238 Q2149.75 207.937 2151.67 210.622 Q2153.61 213.284 2156.99 213.284 Q2160.37 213.284 2162.32 210.622 Q2164.26 207.937 2164.26 203.238 Q2164.26 198.539 2162.32 195.877 Q2160.37 193.192 2156.99 193.192 Q2153.61 193.192 2151.67 195.877 Q2149.75 198.539 2149.75 203.238 Z" fill="#000000" fill-rule="nonzero" fill-opacity="1" /><path clip-path="url(#clip800)" d="M2189.08 203.145 Q2183.92 203.145 2181.92 204.326 Q2179.93 205.506 2179.93 208.354 Q2179.93 210.622 2181.42 211.965 Q2182.92 213.284 2185.49 213.284 Q2189.03 213.284 2191.16 210.784 Q2193.31 208.261 2193.31 204.094 L2193.31 203.145 L2189.08 203.145 M2197.57 201.386 L2197.57 216.178 L2193.31 216.178 L2193.31 212.242 Q2191.85 214.603 2189.68 215.738 Q2187.5 216.849 2184.36 216.849 Q2180.37 216.849 2178.01 214.627 Q2175.67 212.381 2175.67 208.631 Q2175.67 204.256 2178.59 202.034 Q2181.53 199.812 2187.34 199.812 L2193.31 199.812 L2193.31 199.395 Q2193.31 196.455 2191.37 194.858 Q2189.45 193.238 2185.95 193.238 Q2183.73 193.238 2181.62 193.77 Q2179.52 194.303 2177.57 195.367 L2177.57 191.432 Q2179.91 190.53 2182.11 190.09 Q2184.31 189.627 2186.39 189.627 Q2192.02 189.627 2194.79 192.543 Q2197.57 195.46 2197.57 201.386 Z" fill="#000000" fill-rule="nonzero" fill-opacity="1" /><path clip-path="url(#clip800)" d="M2210.56 182.891 L2210.56 190.252 L2219.33 190.252 L2219.33 193.562 L2210.56 193.562 L2210.56 207.636 Q2210.56 210.807 2211.42 211.71 Q2212.29 212.613 2214.96 212.613 L2219.33 212.613 L2219.33 216.178 L2214.96 216.178 Q2210.03 216.178 2208.15 214.349 Q2206.28 212.497 2206.28 207.636 L2206.28 193.562 L2203.15 193.562 L2203.15 190.252 L2206.28 190.252 L2206.28 182.891 L2210.56 182.891 Z" fill="#000000" fill-rule="nonzero" fill-opacity="1" /><path clip-path="url(#clip800)" d="M2236.72 203.145 Q2231.55 203.145 2229.56 204.326 Q2227.57 205.506 2227.57 208.354 Q2227.57 210.622 2229.05 211.965 Q2230.56 213.284 2233.13 213.284 Q2236.67 213.284 2238.8 210.784 Q2240.95 208.261 2240.95 204.094 L2240.95 203.145 L2236.72 203.145 M2245.21 201.386 L2245.21 216.178 L2240.95 216.178 L2240.95 212.242 Q2239.49 214.603 2237.32 215.738 Q2235.14 216.849 2231.99 216.849 Q2228.01 216.849 2225.65 214.627 Q2223.31 212.381 2223.31 208.631 Q2223.31 204.256 2226.23 202.034 Q2229.17 199.812 2234.98 199.812 L2240.95 199.812 L2240.95 199.395 Q2240.95 196.455 2239.01 194.858 Q2237.09 193.238 2233.59 193.238 Q2231.37 193.238 2229.26 193.77 Q2227.16 194.303 2225.21 195.367 L2225.21 191.432 Q2227.55 190.53 2229.75 190.09 Q2231.95 189.627 2234.03 189.627 Q2239.66 189.627 2242.43 192.543 Q2245.21 195.46 2245.21 201.386 Z" fill="#000000" fill-rule="nonzero" fill-opacity="1" /><polyline clip-path="url(#clip800)" style="stroke:#3da44d; stroke-linecap:round; stroke-linejoin:round; stroke-width:8; stroke-opacity:1; fill:none" points="1977.44,250.738 2121.36,250.738 "/>
<path clip-path="url(#clip800)" d="M2170.91 263.087 L2170.91 253.805 L2163.27 253.805 L2163.27 249.962 L2175.54 249.962 L2175.54 264.8 Q2172.83 266.721 2169.56 267.717 Q2166.3 268.689 2162.6 268.689 Q2154.49 268.689 2149.91 263.967 Q2145.35 259.221 2145.35 250.772 Q2145.35 242.3 2149.91 237.578 Q2154.49 232.833 2162.6 232.833 Q2165.98 232.833 2169.01 233.666 Q2172.06 234.499 2174.63 236.12 L2174.63 241.096 Q2172.04 238.897 2169.12 237.786 Q2166.21 236.675 2162.99 236.675 Q2156.65 236.675 2153.45 240.217 Q2150.28 243.758 2150.28 250.772 Q2150.28 257.763 2153.45 261.305 Q2156.65 264.846 2162.99 264.846 Q2165.47 264.846 2167.41 264.43 Q2169.36 263.99 2170.91 263.087 Z" fill="#000000" fill-rule="nonzero" fill-opacity="1" /><path clip-path="url(#clip800)" d="M2188.75 237.3 L2188.75 250.286 L2194.63 250.286 Q2197.9 250.286 2199.68 248.596 Q2201.46 246.907 2201.46 243.782 Q2201.46 240.68 2199.68 238.99 Q2197.9 237.3 2194.63 237.3 L2188.75 237.3 M2184.08 233.458 L2194.63 233.458 Q2200.44 233.458 2203.41 236.096 Q2206.39 238.712 2206.39 243.782 Q2206.39 248.897 2203.41 251.513 Q2200.44 254.129 2194.63 254.129 L2188.75 254.129 L2188.75 268.018 L2184.08 268.018 L2184.08 233.458 Z" fill="#000000" fill-rule="nonzero" fill-opacity="1" /><polyline clip-path="url(#clip800)" style="stroke:#c271d2; stroke-linecap:round; stroke-linejoin:round; stroke-width:12; stroke-opacity:1; fill:none" points="1977.44,302.578 2121.36,302.578 "/>
<path clip-path="url(#clip800)" d="M2150.03 289.14 L2150.03 302.126 L2155.91 302.126 Q2159.17 302.126 2160.95 300.436 Q2162.73 298.747 2162.73 295.622 Q2162.73 292.52 2160.95 290.83 Q2159.17 289.14 2155.91 289.14 L2150.03 289.14 M2145.35 285.298 L2155.91 285.298 Q2161.72 285.298 2164.68 287.936 Q2167.67 290.552 2167.67 295.622 Q2167.67 300.737 2164.68 303.353 Q2161.72 305.969 2155.91 305.969 L2150.03 305.969 L2150.03 319.858 L2145.35 319.858 L2145.35 285.298 Z" fill="#000000" fill-rule="nonzero" fill-opacity="1" /><path clip-path="url(#clip800)" d="M2178.38 315.922 L2194.7 315.922 L2194.7 319.858 L2172.76 319.858 L2172.76 315.922 Q2175.42 313.168 2180 308.538 Q2184.61 303.885 2185.79 302.543 Q2188.04 300.02 2188.92 298.284 Q2189.82 296.524 2189.82 294.835 Q2189.82 292.08 2187.87 290.344 Q2185.95 288.608 2182.85 288.608 Q2180.65 288.608 2178.2 289.372 Q2175.77 290.135 2172.99 291.686 L2172.99 286.964 Q2175.81 285.83 2178.27 285.251 Q2180.72 284.673 2182.76 284.673 Q2188.13 284.673 2191.32 287.358 Q2194.52 290.043 2194.52 294.534 Q2194.52 296.663 2193.71 298.585 Q2192.92 300.483 2190.81 303.075 Q2190.23 303.747 2187.13 306.964 Q2184.03 310.159 2178.38 315.922 Z" fill="#000000" fill-rule="nonzero" fill-opacity="1" /><path clip-path="url(#clip800)" d="M2204.56 285.298 L2222.92 285.298 L2222.92 289.233 L2208.85 289.233 L2208.85 297.705 Q2209.86 297.358 2210.88 297.196 Q2211.9 297.01 2212.92 297.01 Q2218.71 297.01 2222.09 300.182 Q2225.47 303.353 2225.47 308.77 Q2225.47 314.348 2221.99 317.45 Q2218.52 320.529 2212.2 320.529 Q2210.03 320.529 2207.76 320.158 Q2205.51 319.788 2203.1 319.047 L2203.1 314.348 Q2205.19 315.483 2207.41 316.038 Q2209.63 316.594 2212.11 316.594 Q2216.11 316.594 2218.45 314.487 Q2220.79 312.381 2220.79 308.77 Q2220.79 305.159 2218.45 303.052 Q2216.11 300.946 2212.11 300.946 Q2210.23 300.946 2208.36 301.362 Q2206.51 301.779 2204.56 302.659 L2204.56 285.298 Z" fill="#000000" fill-rule="nonzero" fill-opacity="1" /><polyline clip-path="url(#clip800)" style="stroke:#ac8d18; stroke-linecap:round; stroke-linejoin:round; stroke-width:12; stroke-opacity:1; fill:none" points="1977.44,354.418 2121.36,354.418 "/>
<path clip-path="url(#clip800)" d="M2150.03 340.98 L2150.03 353.966 L2155.91 353.966 Q2159.17 353.966 2160.95 352.276 Q2162.73 350.587 2162.73 347.462 Q2162.73 344.36 2160.95 342.67 Q2159.17 340.98 2155.91 340.98 L2150.03 340.98 M2145.35 337.138 L2155.91 337.138 Q2161.72 337.138 2164.68 339.776 Q2167.67 342.392 2167.67 347.462 Q2167.67 352.577 2164.68 355.193 Q2161.72 357.809 2155.91 357.809 L2150.03 357.809 L2150.03 371.698 L2145.35 371.698 L2145.35 337.138 Z" fill="#000000" fill-rule="nonzero" fill-opacity="1" /><path clip-path="url(#clip800)" d="M2173.17 337.138 L2195.4 337.138 L2195.4 339.128 L2182.85 371.698 L2177.97 371.698 L2189.77 341.073 L2173.17 341.073 L2173.17 337.138 Z" fill="#000000" fill-rule="nonzero" fill-opacity="1" /><path clip-path="url(#clip800)" d="M2204.56 337.138 L2222.92 337.138 L2222.92 341.073 L2208.85 341.073 L2208.85 349.545 Q2209.86 349.198 2210.88 349.036 Q2211.9 348.85 2212.92 348.85 Q2218.71 348.85 2222.09 352.022 Q2225.47 355.193 2225.47 360.61 Q2225.47 366.188 2221.99 369.29 Q2218.52 372.369 2212.2 372.369 Q2210.03 372.369 2207.76 371.998 Q2205.51 371.628 2203.1 370.887 L2203.1 366.188 Q2205.19 367.323 2207.41 367.878 Q2209.63 368.434 2212.11 368.434 Q2216.11 368.434 2218.45 366.327 Q2220.79 364.221 2220.79 360.61 Q2220.79 356.999 2218.45 354.892 Q2216.11 352.786 2212.11 352.786 Q2210.23 352.786 2208.36 353.202 Q2206.51 353.619 2204.56 354.499 L2204.56 337.138 Z" fill="#000000" fill-rule="nonzero" fill-opacity="1" /></svg>
