<?xml version="1.0" encoding="utf-8"?>
<svg xmlns="http://www.w3.org/2000/svg" xmlns:xlink="http://www.w3.org/1999/xlink" width="600" height="400" viewBox="0 0 2400 1600">
<defs>
  <clipPath id="clip200">
    <rect x="0" y="0" width="2400" height="1600"/>
  </clipPath>
</defs>
<path clip-path="url(#clip200)" d="M0 1600 L2400 1600 L2400 0 L0 0  Z" fill="#ffffff" fill-rule="evenodd" fill-opacity="1"/>
<defs>
  <clipPath id="clip201">
    <rect x="480" y="0" width="1681" height="1600"/>
  </clipPath>
</defs>
<path clip-path="url(#clip200)" d="M193.936 1486.45 L2352.76 1486.45 L2352.76 47.2441 L193.936 47.2441  Z" fill="#ffffff" fill-rule="evenodd" fill-opacity="1"/>
<defs>
  <clipPath id="clip202">
    <rect x="193" y="47" width="2160" height="1440"/>
  </clipPath>
</defs>
<polyline clip-path="url(#clip202)" style="stroke:#000000; stroke-linecap:round; stroke-linejoin:round; stroke-width:2; stroke-opacity:0.1; fill:none" points="255.035,1486.45 255.035,47.2441 "/>
<polyline clip-path="url(#clip202)" style="stroke:#000000; stroke-linecap:round; stroke-linejoin:round; stroke-width:2; stroke-opacity:0.1; fill:none" points="579.338,1486.45 579.338,47.2441 "/>
<polyline clip-path="url(#clip202)" style="stroke:#000000; stroke-linecap:round; stroke-linejoin:round; stroke-width:2; stroke-opacity:0.1; fill:none" points="903.641,1486.45 903.641,47.2441 "/>
<polyline clip-path="url(#clip202)" style="stroke:#000000; stroke-linecap:round; stroke-linejoin:round; stroke-width:2; stroke-opacity:0.1; fill:none" points="1227.94,1486.45 1227.94,47.2441 "/>
<polyline clip-path="url(#clip202)" style="stroke:#000000; stroke-linecap:round; stroke-linejoin:round; stroke-width:2; stroke-opacity:0.1; fill:none" points="1552.25,1486.45 1552.25,47.2441 "/>
<polyline clip-path="url(#clip202)" style="stroke:#000000; stroke-linecap:round; stroke-linejoin:round; stroke-width:2; stroke-opacity:0.1; fill:none" points="1876.55,1486.45 1876.55,47.2441 "/>
<polyline clip-path="url(#clip202)" style="stroke:#000000; stroke-linecap:round; stroke-linejoin:round; stroke-width:2; stroke-opacity:0.1; fill:none" points="2200.85,1486.45 2200.85,47.2441 "/>
<polyline clip-path="url(#clip202)" style="stroke:#000000; stroke-linecap:round; stroke-linejoin:round; stroke-width:2; stroke-opacity:0.1; fill:none" points="193.936,1254.05 2352.76,1254.05 "/>
<polyline clip-path="url(#clip202)" style="stroke:#000000; stroke-linecap:round; stroke-linejoin:round; stroke-width:2; stroke-opacity:0.1; fill:none" points="193.936,997.42 2352.76,997.42 "/>
<polyline clip-path="url(#clip202)" style="stroke:#000000; stroke-linecap:round; stroke-linejoin:round; stroke-width:2; stroke-opacity:0.1; fill:none" points="193.936,740.787 2352.76,740.787 "/>
<polyline clip-path="url(#clip202)" style="stroke:#000000; stroke-linecap:round; stroke-linejoin:round; stroke-width:2; stroke-opacity:0.1; fill:none" points="193.936,484.155 2352.76,484.155 "/>
<polyline clip-path="url(#clip202)" style="stroke:#000000; stroke-linecap:round; stroke-linejoin:round; stroke-width:2; stroke-opacity:0.1; fill:none" points="193.936,227.523 2352.76,227.523 "/>
<polyline clip-path="url(#clip200)" style="stroke:#000000; stroke-linecap:round; stroke-linejoin:round; stroke-width:4; stroke-opacity:1; fill:none" points="193.936,1486.45 2352.76,1486.45 "/>
<polyline clip-path="url(#clip200)" style="stroke:#000000; stroke-linecap:round; stroke-linejoin:round; stroke-width:4; stroke-opacity:1; fill:none" points="255.035,1486.45 255.035,1467.55 "/>
<polyline clip-path="url(#clip200)" style="stroke:#000000; stroke-linecap:round; stroke-linejoin:round; stroke-width:4; stroke-opacity:1; fill:none" points="579.338,1486.45 579.338,1467.55 "/>
<polyline clip-path="url(#clip200)" style="stroke:#000000; stroke-linecap:round; stroke-linejoin:round; stroke-width:4; stroke-opacity:1; fill:none" points="903.641,1486.45 903.641,1467.55 "/>
<polyline clip-path="url(#clip200)" style="stroke:#000000; stroke-linecap:round; stroke-linejoin:round; stroke-width:4; stroke-opacity:1; fill:none" points="1227.94,1486.45 1227.94,1467.55 "/>
<polyline clip-path="url(#clip200)" style="stroke:#000000; stroke-linecap:round; stroke-linejoin:round; stroke-width:4; stroke-opacity:1; fill:none" points="1552.25,1486.45 1552.25,1467.55 "/>
<polyline clip-path="url(#clip200)" style="stroke:#000000; stroke-linecap:round; stroke-linejoin:round; stroke-width:4; stroke-opacity:1; fill:none" points="1876.55,1486.45 1876.55,1467.55 "/>
<polyline clip-path="url(#clip200)" style="stroke:#000000; stroke-linecap:round; stroke-linejoin:round; stroke-width:4; stroke-opacity:1; fill:none" points="2200.85,1486.45 2200.85,1467.55 "/>
<path clip-path="url(#clip200)" d="M255.035 1517.37 Q251.424 1517.37 249.595 1520.93 Q247.789 1524.47 247.789 1531.6 Q247.789 1538.71 249.595 1542.27 Q251.424 1545.82 255.035 1545.82 Q258.669 1545.82 260.474 1542.27 Q262.303 1538.71 262.303 1531.6 Q262.303 1524.47 260.474 1520.93 Q258.669 1517.37 255.035 1517.37 M255.035 1513.66 Q260.845 1513.66 263.9 1518.27 Q266.979 1522.85 266.979 1531.6 Q266.979 1540.33 263.9 1544.94 Q260.845 1549.52 255.035 1549.52 Q249.225 1549.52 246.146 1544.94 Q243.09 1540.33 243.09 1531.6 Q243.09 1522.85 246.146 1518.27 Q249.225 1513.66 255.035 1513.66 Z" fill="#000000" fill-rule="nonzero" fill-opacity="1" /><path clip-path="url(#clip200)" d="M569.72 1544.91 L577.358 1544.91 L577.358 1518.55 L569.048 1520.21 L569.048 1515.95 L577.312 1514.29 L581.988 1514.29 L581.988 1544.91 L589.627 1544.91 L589.627 1548.85 L569.72 1548.85 L569.72 1544.91 Z" fill="#000000" fill-rule="nonzero" fill-opacity="1" /><path clip-path="url(#clip200)" d="M898.293 1544.91 L914.613 1544.91 L914.613 1548.85 L892.668 1548.85 L892.668 1544.91 Q895.33 1542.16 899.914 1537.53 Q904.52 1532.88 905.701 1531.53 Q907.946 1529.01 908.826 1527.27 Q909.729 1525.51 909.729 1523.82 Q909.729 1521.07 907.784 1519.33 Q905.863 1517.6 902.761 1517.6 Q900.562 1517.6 898.108 1518.36 Q895.678 1519.13 892.9 1520.68 L892.9 1515.95 Q895.724 1514.82 898.178 1514.24 Q900.631 1513.66 902.668 1513.66 Q908.039 1513.66 911.233 1516.35 Q914.428 1519.03 914.428 1523.52 Q914.428 1525.65 913.617 1527.57 Q912.83 1529.47 910.724 1532.07 Q910.145 1532.74 907.043 1535.95 Q903.942 1539.15 898.293 1544.91 Z" fill="#000000" fill-rule="nonzero" fill-opacity="1" /><path clip-path="url(#clip200)" d="M1232.19 1530.21 Q1235.55 1530.93 1237.42 1533.2 Q1239.32 1535.47 1239.32 1538.8 Q1239.32 1543.92 1235.8 1546.72 Q1232.28 1549.52 1225.8 1549.52 Q1223.63 1549.52 1221.31 1549.08 Q1219.02 1548.66 1216.57 1547.81 L1216.57 1543.29 Q1218.51 1544.43 1220.83 1545.01 Q1223.14 1545.58 1225.66 1545.58 Q1230.06 1545.58 1232.35 1543.85 Q1234.67 1542.11 1234.67 1538.8 Q1234.67 1535.75 1232.52 1534.03 Q1230.39 1532.3 1226.57 1532.3 L1222.54 1532.3 L1222.54 1528.45 L1226.75 1528.45 Q1230.2 1528.45 1232.03 1527.09 Q1233.86 1525.7 1233.86 1523.11 Q1233.86 1520.45 1231.96 1519.03 Q1230.08 1517.6 1226.57 1517.6 Q1224.64 1517.6 1222.45 1518.01 Q1220.25 1518.43 1217.61 1519.31 L1217.61 1515.14 Q1220.27 1514.4 1222.58 1514.03 Q1224.92 1513.66 1226.98 1513.66 Q1232.31 1513.66 1235.41 1516.09 Q1238.51 1518.5 1238.51 1522.62 Q1238.51 1525.49 1236.87 1527.48 Q1235.22 1529.45 1232.19 1530.21 Z" fill="#000000" fill-rule="nonzero" fill-opacity="1" /><path clip-path="url(#clip200)" d="M1555.26 1518.36 L1543.45 1536.81 L1555.26 1536.81 L1555.26 1518.36 M1554.03 1514.29 L1559.91 1514.29 L1559.91 1536.81 L1564.84 1536.81 L1564.84 1540.7 L1559.91 1540.7 L1559.91 1548.85 L1555.26 1548.85 L1555.26 1540.7 L1539.65 1540.7 L1539.65 1536.19 L1554.03 1514.29 Z" fill="#000000" fill-rule="nonzero" fill-opacity="1" /><path clip-path="url(#clip200)" d="M1866.83 1514.29 L1885.18 1514.29 L1885.18 1518.22 L1871.11 1518.22 L1871.11 1526.7 Q1872.13 1526.35 1873.15 1526.19 Q1874.17 1526 1875.18 1526 Q1880.97 1526 1884.35 1529.17 Q1887.73 1532.34 1887.73 1537.76 Q1887.73 1543.34 1884.26 1546.44 Q1880.79 1549.52 1874.47 1549.52 Q1872.29 1549.52 1870.02 1549.15 Q1867.78 1548.78 1865.37 1548.04 L1865.37 1543.34 Q1867.45 1544.47 1869.67 1545.03 Q1871.9 1545.58 1874.37 1545.58 Q1878.38 1545.58 1880.72 1543.48 Q1883.05 1541.37 1883.05 1537.76 Q1883.05 1534.15 1880.72 1532.04 Q1878.38 1529.94 1874.37 1529.94 Q1872.5 1529.94 1870.62 1530.35 Q1868.77 1530.77 1866.83 1531.65 L1866.83 1514.29 Z" fill="#000000" fill-rule="nonzero" fill-opacity="1" /><path clip-path="url(#clip200)" d="M2201.26 1529.7 Q2198.11 1529.7 2196.26 1531.86 Q2194.43 1534.01 2194.43 1537.76 Q2194.43 1541.49 2196.26 1543.66 Q2198.11 1545.82 2201.26 1545.82 Q2204.41 1545.82 2206.23 1543.66 Q2208.09 1541.49 2208.09 1537.76 Q2208.09 1534.01 2206.23 1531.86 Q2204.41 1529.7 2201.26 1529.7 M2210.54 1515.05 L2210.54 1519.31 Q2208.78 1518.48 2206.98 1518.04 Q2205.19 1517.6 2203.43 1517.6 Q2198.8 1517.6 2196.35 1520.72 Q2193.92 1523.85 2193.57 1530.17 Q2194.94 1528.15 2197 1527.09 Q2199.06 1526 2201.54 1526 Q2206.74 1526 2209.75 1529.17 Q2212.79 1532.32 2212.79 1537.76 Q2212.79 1543.08 2209.64 1546.3 Q2206.49 1549.52 2201.26 1549.52 Q2195.26 1549.52 2192.09 1544.94 Q2188.92 1540.33 2188.92 1531.6 Q2188.92 1523.41 2192.81 1518.55 Q2196.7 1513.66 2203.25 1513.66 Q2205.01 1513.66 2206.79 1514.01 Q2208.6 1514.36 2210.54 1515.05 Z" fill="#000000" fill-rule="nonzero" fill-opacity="1" /><polyline clip-path="url(#clip200)" style="stroke:#000000; stroke-linecap:round; stroke-linejoin:round; stroke-width:4; stroke-opacity:1; fill:none" points="193.936,1486.45 193.936,47.2441 "/>
<polyline clip-path="url(#clip200)" style="stroke:#000000; stroke-linecap:round; stroke-linejoin:round; stroke-width:4; stroke-opacity:1; fill:none" points="193.936,1254.05 212.834,1254.05 "/>
<polyline clip-path="url(#clip200)" style="stroke:#000000; stroke-linecap:round; stroke-linejoin:round; stroke-width:4; stroke-opacity:1; fill:none" points="193.936,997.42 212.834,997.42 "/>
<polyline clip-path="url(#clip200)" style="stroke:#000000; stroke-linecap:round; stroke-linejoin:round; stroke-width:4; stroke-opacity:1; fill:none" points="193.936,740.787 212.834,740.787 "/>
<polyline clip-path="url(#clip200)" style="stroke:#000000; stroke-linecap:round; stroke-linejoin:round; stroke-width:4; stroke-opacity:1; fill:none" points="193.936,484.155 212.834,484.155 "/>
<polyline clip-path="url(#clip200)" style="stroke:#000000; stroke-linecap:round; stroke-linejoin:round; stroke-width:4; stroke-opacity:1; fill:none" points="193.936,227.523 212.834,227.523 "/>
<path clip-path="url(#clip200)" d="M50.9921 1254.5 L80.6679 1254.5 L80.6679 1258.44 L50.9921 1258.44 L50.9921 1254.5 Z" fill="#000000" fill-rule="nonzero" fill-opacity="1" /><path clip-path="url(#clip200)" d="M91.5706 1267.4 L99.2095 1267.4 L99.2095 1241.03 L90.8993 1242.7 L90.8993 1238.44 L99.1632 1236.77 L103.839 1236.77 L103.839 1267.4 L111.478 1267.4 L111.478 1271.33 L91.5706 1271.33 L91.5706 1267.4 Z" fill="#000000" fill-rule="nonzero" fill-opacity="1" /><path clip-path="url(#clip200)" d="M120.922 1265.45 L125.807 1265.45 L125.807 1271.33 L120.922 1271.33 L120.922 1265.45 Z" fill="#000000" fill-rule="nonzero" fill-opacity="1" /><path clip-path="url(#clip200)" d="M145.992 1239.85 Q142.381 1239.85 140.552 1243.42 Q138.746 1246.96 138.746 1254.09 Q138.746 1261.19 140.552 1264.76 Q142.381 1268.3 145.992 1268.3 Q149.626 1268.3 151.431 1264.76 Q153.26 1261.19 153.26 1254.09 Q153.26 1246.96 151.431 1243.42 Q149.626 1239.85 145.992 1239.85 M145.992 1236.15 Q151.802 1236.15 154.857 1240.75 Q157.936 1245.34 157.936 1254.09 Q157.936 1262.81 154.857 1267.42 Q151.802 1272 145.992 1272 Q140.181 1272 137.103 1267.42 Q134.047 1262.81 134.047 1254.09 Q134.047 1245.34 137.103 1240.75 Q140.181 1236.15 145.992 1236.15 Z" fill="#000000" fill-rule="nonzero" fill-opacity="1" /><path clip-path="url(#clip200)" d="M51.9875 997.871 L81.6633 997.871 L81.6633 1001.81 L51.9875 1001.81 L51.9875 997.871 Z" fill="#000000" fill-rule="nonzero" fill-opacity="1" /><path clip-path="url(#clip200)" d="M101.756 983.218 Q98.1447 983.218 96.316 986.783 Q94.5104 990.325 94.5104 997.454 Q94.5104 1004.56 96.316 1008.13 Q98.1447 1011.67 101.756 1011.67 Q105.39 1011.67 107.196 1008.13 Q109.024 1004.56 109.024 997.454 Q109.024 990.325 107.196 986.783 Q105.39 983.218 101.756 983.218 M101.756 979.515 Q107.566 979.515 110.621 984.121 Q113.7 988.704 113.7 997.454 Q113.7 1006.18 110.621 1010.79 Q107.566 1015.37 101.756 1015.37 Q95.9456 1015.37 92.8669 1010.79 Q89.8114 1006.18 89.8114 997.454 Q89.8114 988.704 92.8669 984.121 Q95.9456 979.515 101.756 979.515 Z" fill="#000000" fill-rule="nonzero" fill-opacity="1" /><path clip-path="url(#clip200)" d="M121.918 1008.82 L126.802 1008.82 L126.802 1014.7 L121.918 1014.7 L121.918 1008.82 Z" fill="#000000" fill-rule="nonzero" fill-opacity="1" /><path clip-path="url(#clip200)" d="M137.033 980.14 L155.39 980.14 L155.39 984.075 L141.316 984.075 L141.316 992.547 Q142.334 992.2 143.353 992.038 Q144.371 991.852 145.39 991.852 Q151.177 991.852 154.556 995.024 Q157.936 998.195 157.936 1003.61 Q157.936 1009.19 154.464 1012.29 Q150.992 1015.37 144.672 1015.37 Q142.496 1015.37 140.228 1015 Q137.982 1014.63 135.575 1013.89 L135.575 1009.19 Q137.658 1010.32 139.881 1010.88 Q142.103 1011.44 144.58 1011.44 Q148.584 1011.44 150.922 1009.33 Q153.26 1007.22 153.26 1003.61 Q153.26 1000 150.922 997.894 Q148.584 995.788 144.58 995.788 Q142.705 995.788 140.83 996.204 Q138.978 996.621 137.033 997.501 L137.033 980.14 Z" fill="#000000" fill-rule="nonzero" fill-opacity="1" /><path clip-path="url(#clip200)" d="M100.76 726.586 Q97.1493 726.586 95.3206 730.151 Q93.515 733.692 93.515 740.822 Q93.515 747.928 95.3206 751.493 Q97.1493 755.035 100.76 755.035 Q104.395 755.035 106.2 751.493 Q108.029 747.928 108.029 740.822 Q108.029 733.692 106.2 730.151 Q104.395 726.586 100.76 726.586 M100.76 722.882 Q106.571 722.882 109.626 727.489 Q112.705 732.072 112.705 740.822 Q112.705 749.549 109.626 754.155 Q106.571 758.739 100.76 758.739 Q94.9502 758.739 91.8715 754.155 Q88.816 749.549 88.816 740.822 Q88.816 732.072 91.8715 727.489 Q94.9502 722.882 100.76 722.882 Z" fill="#000000" fill-rule="nonzero" fill-opacity="1" /><path clip-path="url(#clip200)" d="M120.922 752.188 L125.807 752.188 L125.807 758.067 L120.922 758.067 L120.922 752.188 Z" fill="#000000" fill-rule="nonzero" fill-opacity="1" /><path clip-path="url(#clip200)" d="M145.992 726.586 Q142.381 726.586 140.552 730.151 Q138.746 733.692 138.746 740.822 Q138.746 747.928 140.552 751.493 Q142.381 755.035 145.992 755.035 Q149.626 755.035 151.431 751.493 Q153.26 747.928 153.26 740.822 Q153.26 733.692 151.431 730.151 Q149.626 726.586 145.992 726.586 M145.992 722.882 Q151.802 722.882 154.857 727.489 Q157.936 732.072 157.936 740.822 Q157.936 749.549 154.857 754.155 Q151.802 758.739 145.992 758.739 Q140.181 758.739 137.103 754.155 Q134.047 749.549 134.047 740.822 Q134.047 732.072 137.103 727.489 Q140.181 722.882 145.992 722.882 Z" fill="#000000" fill-rule="nonzero" fill-opacity="1" /><path clip-path="url(#clip200)" d="M101.756 469.954 Q98.1447 469.954 96.316 473.518 Q94.5104 477.06 94.5104 484.19 Q94.5104 491.296 96.316 494.861 Q98.1447 498.403 101.756 498.403 Q105.39 498.403 107.196 494.861 Q109.024 491.296 109.024 484.19 Q109.024 477.06 107.196 473.518 Q105.39 469.954 101.756 469.954 M101.756 466.25 Q107.566 466.25 110.621 470.856 Q113.7 475.44 113.7 484.19 Q113.7 492.916 110.621 497.523 Q107.566 502.106 101.756 502.106 Q95.9456 502.106 92.8669 497.523 Q89.8114 492.916 89.8114 484.19 Q89.8114 475.44 92.8669 470.856 Q95.9456 466.25 101.756 466.25 Z" fill="#000000" fill-rule="nonzero" fill-opacity="1" /><path clip-path="url(#clip200)" d="M121.918 495.555 L126.802 495.555 L126.802 501.435 L121.918 501.435 L121.918 495.555 Z" fill="#000000" fill-rule="nonzero" fill-opacity="1" /><path clip-path="url(#clip200)" d="M137.033 466.875 L155.39 466.875 L155.39 470.81 L141.316 470.81 L141.316 479.282 Q142.334 478.935 143.353 478.773 Q144.371 478.588 145.39 478.588 Q151.177 478.588 154.556 481.759 Q157.936 484.93 157.936 490.347 Q157.936 495.926 154.464 499.028 Q150.992 502.106 144.672 502.106 Q142.496 502.106 140.228 501.736 Q137.982 501.365 135.575 500.625 L135.575 495.926 Q137.658 497.06 139.881 497.616 Q142.103 498.171 144.58 498.171 Q148.584 498.171 150.922 496.065 Q153.26 493.958 153.26 490.347 Q153.26 486.736 150.922 484.629 Q148.584 482.523 144.58 482.523 Q142.705 482.523 140.83 482.94 Q138.978 483.356 137.033 484.236 L137.033 466.875 Z" fill="#000000" fill-rule="nonzero" fill-opacity="1" /><path clip-path="url(#clip200)" d="M91.5706 240.867 L99.2095 240.867 L99.2095 214.502 L90.8993 216.169 L90.8993 211.909 L99.1632 210.243 L103.839 210.243 L103.839 240.867 L111.478 240.867 L111.478 244.803 L91.5706 244.803 L91.5706 240.867 Z" fill="#000000" fill-rule="nonzero" fill-opacity="1" /><path clip-path="url(#clip200)" d="M120.922 238.923 L125.807 238.923 L125.807 244.803 L120.922 244.803 L120.922 238.923 Z" fill="#000000" fill-rule="nonzero" fill-opacity="1" /><path clip-path="url(#clip200)" d="M145.992 213.321 Q142.381 213.321 140.552 216.886 Q138.746 220.428 138.746 227.557 Q138.746 234.664 140.552 238.229 Q142.381 241.77 145.992 241.77 Q149.626 241.77 151.431 238.229 Q153.26 234.664 153.26 227.557 Q153.26 220.428 151.431 216.886 Q149.626 213.321 145.992 213.321 M145.992 209.618 Q151.802 209.618 154.857 214.224 Q157.936 218.807 157.936 227.557 Q157.936 236.284 154.857 240.891 Q151.802 245.474 145.992 245.474 Q140.181 245.474 137.103 240.891 Q134.047 236.284 134.047 227.557 Q134.047 218.807 137.103 214.224 Q140.181 209.618 145.992 209.618 Z" fill="#000000" fill-rule="nonzero" fill-opacity="1" /><polyline clip-path="url(#clip202)" style="stroke:#009af9; stroke-linecap:round; stroke-linejoin:round; stroke-width:4; stroke-opacity:1; fill:none" points="255.035,740.787 258.278,735.655 261.521,730.523 264.764,725.392 268.007,720.262 271.25,715.135 274.493,710.01 277.736,704.888 280.979,699.77 284.222,694.656 287.465,689.546 290.708,684.442 293.951,679.343 297.194,674.251 300.437,669.165 303.68,664.086 306.923,659.015 310.166,653.952 313.409,648.898 316.652,643.853 319.895,638.817 323.138,633.792 326.381,628.778 329.624,623.774 332.867,618.783 336.11,613.804 339.353,608.837 342.596,603.883 345.84,598.944 349.083,594.018 352.326,589.107 355.569,584.211 358.812,579.331 362.055,574.467 365.298,569.62 368.541,564.79 371.784,559.977 375.027,555.183 378.27,550.407 381.513,545.65 384.756,540.913 387.999,536.195 391.242,531.498 394.485,526.822 397.728,522.168 400.971,517.535 404.214,512.924 407.457,508.337 410.7,503.772 413.943,499.232 417.186,494.715 420.429,490.223 423.672,485.756 426.915,481.315 430.158,476.899 433.401,472.51 436.644,468.148 439.887,463.813 443.13,459.506 446.373,455.227 449.616,450.976 452.859,446.755 456.103,442.562 459.346,438.4 462.589,434.268 465.832,430.166 469.075,426.096 472.318,422.057 475.561,418.05 478.804,414.075 482.047,410.133 485.29,406.224 488.533,402.348 491.776,398.507 495.019,394.699 498.262,390.926 501.505,387.188 504.748,383.486 507.991,379.819 511.234,376.188 514.477,372.594 517.72,369.036 520.963,365.516 524.206,362.033 527.449,358.588 530.692,355.182 533.935,351.813 537.178,348.484 540.421,345.194 543.664,341.944 546.907,338.733 550.15,335.563 553.393,332.433 556.636,329.344 559.879,326.296 563.122,323.29 566.366,320.325 569.609,317.403 572.852,314.522 576.095,311.685 579.338,308.89 582.581,306.138 585.824,303.43 589.067,300.766 592.31,298.146 595.553,295.57 598.796,293.038 602.039,290.551 605.282,288.109 608.525,285.713 611.768,283.362 615.011,281.057 618.254,278.798 621.497,276.584 624.74,274.418 627.983,272.298 631.226,270.225 634.469,268.199 637.712,266.22 640.955,264.288 644.198,262.405 647.441,260.569 650.684,258.781 653.927,257.041 657.17,255.35 660.413,253.707 663.656,252.113 666.899,250.568 670.142,249.072 673.385,247.625 676.629,246.227 679.872,244.879 683.115,243.58 686.358,242.331 689.601,241.132 692.844,239.983 696.087,238.884 699.33,237.835 702.573,236.837 705.816,235.888 709.059,234.991 712.302,234.144 715.545,233.347 718.788,232.602 722.031,231.907 725.274,231.263 728.517,230.67 731.76,230.128 735.003,229.637 738.246,229.197 741.489,228.808 744.732,228.471 747.975,228.185 751.218,227.95 754.461,227.766 757.704,227.634 760.947,227.553 764.19,227.523 767.433,227.544 770.676,227.617 773.919,227.741 777.162,227.917 780.405,228.144 783.648,228.422 786.892,228.751 790.135,229.132 793.378,229.563 796.621,230.046 799.864,230.58 803.107,231.165 806.35,231.801 809.593,232.488 812.836,233.225 816.079,234.013 819.322,234.852 822.565,235.742 825.808,236.682 829.051,237.673 832.294,238.714 835.537,239.805 838.78,240.946 842.023,242.137 845.266,243.378 848.509,244.669 851.752,246.009 854.995,247.399 858.238,248.838 861.481,250.326 864.724,251.864 867.967,253.45 871.21,255.085 874.453,256.768 877.696,258.5 880.939,260.281 884.182,262.109 887.425,263.985 890.668,265.909 893.911,267.88 897.155,269.899 900.398,271.964 903.641,274.077 906.884,276.236 910.127,278.442 913.37,280.694 916.613,282.992 919.856,285.336 923.099,287.725 926.342,290.159 929.585,292.639 932.828,295.163 936.071,297.732 939.314,300.346 942.557,303.003 945.8,305.704 949.043,308.449 952.286,311.237 955.529,314.068 958.772,316.941 962.015,319.857 965.258,322.815 968.501,325.815 971.744,328.856 974.987,331.938 978.23,335.062 981.473,338.226 984.716,341.43 987.959,344.674 991.202,347.958 994.445,351.281 997.688,354.643 1000.93,358.043 1004.17,361.482 1007.42,364.959 1010.66,368.473 1013.9,372.025 1017.15,375.613 1020.39,379.238 1023.63,382.899 1026.88,386.596 1030.12,390.329 1033.36,394.096 1036.6,397.898 1039.85,401.734 1043.09,405.605 1046.33,409.508 1049.58,413.445 1052.82,417.415 1056.06,421.417 1059.31,425.451 1062.55,429.516 1065.79,433.613 1069.04,437.74 1072.28,441.898 1075.52,446.085 1078.76,450.302 1082.01,454.548 1085.25,458.823 1088.49,463.125 1091.74,467.456 1094.98,471.814 1098.22,476.199 1101.47,480.61 1104.71,485.047 1107.95,489.51 1111.19,493.998 1114.44,498.511 1117.68,503.048 1120.92,507.608 1124.17,512.192 1127.41,516.799 1130.65,521.428 1133.9,526.079 1137.14,530.752 1140.38,535.446 1143.62,540.16 1146.87,544.894 1150.11,549.648 1153.35,554.421 1156.6,559.213 1159.84,564.022 1163.08,568.85 1166.33,573.694 1169.57,578.556 1172.81,583.433 1176.06,588.326 1179.3,593.235 1182.54,598.158 1185.78,603.096 1189.03,608.047 1192.27,613.012 1195.51,617.989 1198.76,622.979 1202,627.98 1205.24,632.993 1208.49,638.016 1211.73,643.05 1214.97,648.094 1218.21,653.146 1221.46,658.208 1224.7,663.278 1227.94,668.355 1231.19,673.44 1234.43,678.532 1237.67,683.629 1240.92,688.733 1244.16,693.842 1247.4,698.955 1250.64,704.073 1253.89,709.194 1257.13,714.318 1260.37,719.445 1263.62,724.575 1266.86,729.705 1270.1,734.837 1273.35,739.97 1276.59,745.102 1279.83,750.235 1283.08,755.366 1286.32,760.496 1289.56,765.623 1292.8,770.749 1296.05,775.871 1299.29,780.99 1302.53,786.105 1305.78,791.215 1309.02,796.32 1312.26,801.42 1315.51,806.513 1318.75,811.6 1321.99,816.68 1325.23,821.753 1328.48,826.817 1331.72,831.872 1334.96,836.919 1338.21,841.956 1341.45,846.983 1344.69,851.999 1347.94,857.004 1351.18,861.997 1354.42,866.979 1357.66,871.947 1360.91,876.903 1364.15,881.845 1367.39,886.773 1370.64,891.686 1373.88,896.584 1377.12,901.467 1380.37,906.334 1383.61,911.183 1386.85,916.016 1390.1,920.832 1393.34,925.629 1396.58,930.408 1399.82,935.168 1403.07,939.909 1406.31,944.629 1409.55,949.33 1412.8,954.009 1416.04,958.667 1419.28,963.303 1422.53,967.917 1425.77,972.509 1429.01,977.077 1432.25,981.621 1435.5,986.142 1438.74,990.638 1441.98,995.109 1445.23,999.554 1448.47,1003.97 1451.71,1008.37 1454.96,1012.73 1458.2,1017.07 1461.44,1021.38 1464.68,1025.67 1467.93,1029.92 1471.17,1034.15 1474.41,1038.35 1477.66,1042.51 1480.9,1046.65 1484.14,1050.76 1487.39,1054.83 1490.63,1058.88 1493.87,1062.89 1497.11,1066.87 1500.36,1070.82 1503.6,1074.73 1506.84,1078.61 1510.09,1082.46 1513.33,1086.27 1516.57,1090.05 1519.82,1093.79 1523.06,1097.5 1526.3,1101.17 1529.55,1104.81 1532.79,1108.41 1536.03,1111.97 1539.27,1115.5 1542.52,1118.99 1545.76,1122.44 1549,1125.85 1552.25,1129.23 1555.49,1132.56 1558.73,1135.86 1561.98,1139.12 1565.22,1142.33 1568.46,1145.51 1571.7,1148.65 1574.95,1151.74 1578.19,1154.8 1581.43,1157.81 1584.68,1160.78 1587.92,1163.71 1591.16,1166.6 1594.41,1169.44 1597.65,1172.24 1600.89,1175 1604.13,1177.72 1607.38,1180.39 1610.62,1183.01 1613.86,1185.6 1617.11,1188.14 1620.35,1190.63 1623.59,1193.08 1626.84,1195.48 1630.08,1197.84 1633.32,1200.15 1636.57,1202.42 1639.81,1204.64 1643.05,1206.81 1646.29,1208.94 1649.54,1211.02 1652.78,1213.06 1656.02,1215.04 1659.27,1216.98 1662.51,1218.87 1665.75,1220.72 1669,1222.51 1672.24,1224.26 1675.48,1225.96 1678.72,1227.61 1681.97,1229.21 1685.21,1230.76 1688.45,1232.27 1691.7,1233.72 1694.94,1235.13 1698.18,1236.48 1701.43,1237.79 1704.67,1239.05 1707.91,1240.25 1711.15,1241.41 1714.4,1242.52 1717.64,1243.58 1720.88,1244.58 1724.13,1245.54 1727.37,1246.44 1730.61,1247.3 1733.86,1248.1 1737.1,1248.86 1740.34,1249.56 1743.59,1250.21 1746.83,1250.81 1750.07,1251.36 1753.31,1251.86 1756.56,1252.31 1759.8,1252.71 1763.04,1253.05 1766.29,1253.35 1769.53,1253.59 1772.77,1253.78 1776.02,1253.92 1779.26,1254.01 1782.5,1254.05 1785.74,1254.04 1788.99,1253.97 1792.23,1253.86 1795.47,1253.69 1798.72,1253.47 1801.96,1253.2 1805.2,1252.88 1808.45,1252.51 1811.69,1252.08 1814.93,1251.61 1818.17,1251.08 1821.42,1250.51 1824.66,1249.88 1827.9,1249.2 1831.15,1248.47 1834.39,1247.69 1837.63,1246.86 1840.88,1245.98 1844.12,1245.05 1847.36,1244.06 1850.61,1243.03 1853.85,1241.95 1857.09,1240.81 1860.33,1239.63 1863.58,1238.4 1866.82,1237.11 1870.06,1235.78 1873.31,1234.4 1876.55,1232.97 1879.79,1231.49 1883.04,1229.96 1886.28,1228.38 1889.52,1226.75 1892.76,1225.08 1896.01,1223.35 1899.25,1221.58 1902.49,1219.76 1905.74,1217.89 1908.98,1215.98 1912.22,1214.01 1915.47,1212 1918.71,1209.94 1921.95,1207.84 1925.19,1205.69 1928.44,1203.49 1931.68,1201.24 1934.92,1198.95 1938.17,1196.62 1941.41,1194.23 1944.65,1191.81 1947.9,1189.33 1951.14,1186.82 1954.38,1184.25 1957.63,1181.65 1960.87,1179 1964.11,1176.3 1967.35,1173.57 1970.6,1170.78 1973.84,1167.96 1977.08,1165.09 1980.33,1162.18 1983.57,1159.23 1986.81,1156.24 1990.06,1153.21 1993.3,1150.13 1996.54,1147.01 1999.78,1143.86 2003.03,1140.66 2006.27,1137.42 2009.51,1134.14 2012.76,1130.83 2016,1127.47 2019.24,1124.08 2022.49,1120.64 2025.73,1117.17 2028.97,1113.66 2032.21,1110.12 2035.46,1106.54 2038.7,1102.92 2041.94,1099.26 2045.19,1095.57 2048.43,1091.84 2051.67,1088.08 2054.92,1084.28 2058.16,1080.45 2061.4,1076.59 2064.65,1072.69 2067.89,1068.76 2071.13,1064.79 2074.37,1060.8 2077.62,1056.77 2080.86,1052.71 2084.1,1048.62 2087.35,1044.49 2090.59,1040.34 2093.83,1036.16 2097.08,1031.95 2100.32,1027.7 2103.56,1023.43 2106.8,1019.14 2110.05,1014.81 2113.29,1010.46 2116.53,1006.08 2119.78,1001.67 2123.02,997.236 2126.26,992.777 2129.51,988.293 2132.75,983.784 2135.99,979.251 2139.23,974.694 2142.48,970.114 2145.72,965.511 2148.96,960.885 2152.21,956.237 2155.45,951.568 2158.69,946.878 2161.94,942.167 2165.18,937.436 2168.42,932.685 2171.67,927.915 2174.91,923.126 2178.15,918.319 2181.39,913.495 2184.64,908.653 2187.88,903.794 2191.12,898.919 2194.37,894.028 2197.61,889.122 2200.85,884.201 2204.1,879.266 2207.34,874.317 2210.58,869.354 2213.82,864.379 2217.07,859.391 2220.31,854.392 2223.55,849.381 2226.8,844.359 2230.04,839.327 2233.28,834.285 2236.53,829.233 2239.77,824.173 2243.01,819.105 2246.25,814.028 2249.5,808.945 2252.74,803.854 2255.98,798.757 2259.23,793.655 2262.47,788.547 2265.71,783.434 2268.96,778.317 2272.2,773.196 2275.44,768.073 2278.69,762.946 2281.93,757.817 2285.17,752.686 2288.41,747.555 2291.66,742.422 "/>
<circle clip-path="url(#clip202)" cx="602.039" cy="177.84" r="14.4" fill="#e26f46" fill-rule="evenodd" fill-opacity="1" stroke="#000000" stroke-opacity="1" stroke-width="3.2"/>
<circle clip-path="url(#clip202)" cx="864.724" cy="352.853" r="14.4" fill="#e26f46" fill-rule="evenodd" fill-opacity="1" stroke="#000000" stroke-opacity="1" stroke-width="3.2"/>
<circle clip-path="url(#clip202)" cx="378.27" cy="453.063" r="14.4" fill="#e26f46" fill-rule="evenodd" fill-opacity="1" stroke="#000000" stroke-opacity="1" stroke-width="3.2"/>
<circle clip-path="url(#clip202)" cx="1552.25" cy="1143.79" r="14.4" fill="#e26f46" fill-rule="evenodd" fill-opacity="1" stroke="#000000" stroke-opacity="1" stroke-width="3.2"/>
<circle clip-path="url(#clip202)" cx="1814.93" cy="1336.83" r="14.4" fill="#e26f46" fill-rule="evenodd" fill-opacity="1" stroke="#000000" stroke-opacity="1" stroke-width="3.2"/>
<circle clip-path="url(#clip202)" cx="1523.06" cy="1178.74" r="14.4" fill="#e26f46" fill-rule="evenodd" fill-opacity="1" stroke="#000000" stroke-opacity="1" stroke-width="3.2"/>
<circle clip-path="url(#clip202)" cx="673.385" cy="300.779" r="14.4" fill="#e26f46" fill-rule="evenodd" fill-opacity="1" stroke="#000000" stroke-opacity="1" stroke-width="3.2"/>
<circle clip-path="url(#clip202)" cx="923.099" cy="244.614" r="14.4" fill="#e26f46" fill-rule="evenodd" fill-opacity="1" stroke="#000000" stroke-opacity="1" stroke-width="3.2"/>
<circle clip-path="url(#clip202)" cx="754.461" cy="134.977" r="14.4" fill="#e26f46" fill-rule="evenodd" fill-opacity="1" stroke="#000000" stroke-opacity="1" stroke-width="3.2"/>
<circle clip-path="url(#clip202)" cx="1766.29" cy="1179.76" r="14.4" fill="#e26f46" fill-rule="evenodd" fill-opacity="1" stroke="#000000" stroke-opacity="1" stroke-width="3.2"/>
<circle clip-path="url(#clip202)" cx="1727.37" cy="1224.55" r="14.4" fill="#e26f46" fill-rule="evenodd" fill-opacity="1" stroke="#000000" stroke-opacity="1" stroke-width="3.2"/>
<circle clip-path="url(#clip202)" cx="1484.14" cy="1114.16" r="14.4" fill="#e26f46" fill-rule="evenodd" fill-opacity="1" stroke="#000000" stroke-opacity="1" stroke-width="3.2"/>
<circle clip-path="url(#clip202)" cx="1289.56" cy="677.312" r="14.4" fill="#e26f46" fill-rule="evenodd" fill-opacity="1" stroke="#000000" stroke-opacity="1" stroke-width="3.2"/>
<circle clip-path="url(#clip202)" cx="1844.12" cy="1258.87" r="14.4" fill="#e26f46" fill-rule="evenodd" fill-opacity="1" stroke="#000000" stroke-opacity="1" stroke-width="3.2"/>
<circle clip-path="url(#clip202)" cx="1072.28" cy="388.9" r="14.4" fill="#e26f46" fill-rule="evenodd" fill-opacity="1" stroke="#000000" stroke-opacity="1" stroke-width="3.2"/>
<circle clip-path="url(#clip202)" cx="1607.38" cy="1054.26" r="14.4" fill="#e26f46" fill-rule="evenodd" fill-opacity="1" stroke="#000000" stroke-opacity="1" stroke-width="3.2"/>
<circle clip-path="url(#clip202)" cx="332.867" cy="508.459" r="14.4" fill="#e26f46" fill-rule="evenodd" fill-opacity="1" stroke="#000000" stroke-opacity="1" stroke-width="3.2"/>
<circle clip-path="url(#clip202)" cx="829.051" cy="326.148" r="14.4" fill="#e26f46" fill-rule="evenodd" fill-opacity="1" stroke="#000000" stroke-opacity="1" stroke-width="3.2"/>
<circle clip-path="url(#clip202)" cx="511.234" cy="334.902" r="14.4" fill="#e26f46" fill-rule="evenodd" fill-opacity="1" stroke="#000000" stroke-opacity="1" stroke-width="3.2"/>
<circle clip-path="url(#clip202)" cx="485.29" cy="405.778" r="14.4" fill="#e26f46" fill-rule="evenodd" fill-opacity="1" stroke="#000000" stroke-opacity="1" stroke-width="3.2"/>
<path clip-path="url(#clip202)" d="M255.035 847.554 L258.278 841.84 L261.521 836.097 L264.764 830.328 L268.007 824.536 L271.25 818.724 L274.493 812.896 L277.736 807.057 L280.979 801.211 L284.222 795.362 L287.465 789.515 L290.708 783.676 L293.951 777.849 L297.194 772.043 L300.437 766.261 L303.68 760.512 L306.923 754.801 L310.166 749.137 L313.409 743.527 L316.652 737.979 L319.895 732.502 L323.138 727.103 L326.381 721.791 L329.624 716.575 L332.867 711.465 L336.11 706.467 L339.353 701.581 L342.596 696.806 L345.84 692.14 L349.083 687.581 L352.326 683.127 L355.569 678.778 L358.812 674.531 L362.055 670.385 L365.298 666.339 L368.541 662.393 L371.784 658.545 L375.027 654.794 L378.27 651.139 L381.513 647.58 L384.756 644.105 L387.999 640.706 L391.242 637.371 L394.485 634.091 L397.728 630.855 L400.971 627.656 L404.214 624.484 L407.457 621.331 L410.7 618.19 L413.943 615.055 L417.186 611.919 L420.429 608.778 L423.672 605.627 L426.915 602.462 L430.158 599.28 L433.401 596.08 L436.644 592.86 L439.887 589.619 L443.13 586.358 L446.373 583.077 L449.616 579.779 L452.859 576.465 L456.103 573.14 L459.346 569.806 L462.589 566.468 L465.832 563.132 L469.075 559.804 L472.318 556.489 L475.561 553.196 L478.804 549.93 L482.047 546.701 L485.29 543.516 L488.533 540.383 L491.776 537.304 L495.019 534.281 L498.262 531.316 L501.505 528.41 L504.748 525.566 L507.991 522.786 L511.234 520.073 L514.477 517.428 L517.72 514.846 L520.963 512.32 L524.206 509.845 L527.449 507.415 L530.692 505.024 L533.935 502.667 L537.178 500.34 L540.421 498.04 L543.664 495.763 L546.907 493.508 L550.15 491.272 L553.393 489.054 L556.636 486.853 L559.879 484.671 L563.122 482.507 L566.366 480.363 L569.609 478.243 L572.852 476.147 L576.095 474.081 L579.338 472.047 L582.581 470.051 L585.824 468.098 L589.067 466.194 L592.31 464.345 L595.553 462.557 L598.796 460.839 L602.039 459.196 L605.282 457.636 L608.525 456.153 L611.768 454.742 L615.011 453.396 L618.254 452.111 L621.497 450.88 L624.74 449.701 L627.983 448.568 L631.226 447.477 L634.469 446.427 L637.712 445.413 L640.955 444.435 L644.198 443.491 L647.441 442.579 L650.684 441.699 L653.927 440.852 L657.17 440.037 L660.413 439.255 L663.656 438.509 L666.899 437.8 L670.142 437.129 L673.385 436.5 L676.629 435.913 L679.872 435.367 L683.115 434.856 L686.358 434.378 L689.601 433.929 L692.844 433.506 L696.087 433.108 L699.33 432.731 L702.573 432.376 L705.816 432.04 L709.059 431.724 L712.302 431.428 L715.545 431.152 L718.788 430.899 L722.031 430.669 L725.274 430.467 L728.517 430.294 L731.76 430.154 L735.003 430.052 L738.246 429.993 L741.489 429.981 L744.732 430.024 L747.975 430.126 L751.218 430.296 L754.461 430.54 L757.704 430.862 L760.947 431.259 L764.19 431.723 L767.433 432.247 L770.676 432.826 L773.919 433.452 L777.162 434.122 L780.405 434.831 L783.648 435.574 L786.892 436.349 L790.135 437.152 L793.378 437.982 L796.621 438.837 L799.864 439.718 L803.107 440.623 L806.35 441.555 L809.593 442.514 L812.836 443.502 L816.079 444.523 L819.322 445.579 L822.565 446.676 L825.808 447.817 L829.051 449.007 L832.294 450.251 L835.537 451.549 L838.78 452.901 L842.023 454.305 L845.266 455.764 L848.509 457.277 L851.752 458.846 L854.995 460.472 L858.238 462.158 L861.481 463.904 L864.724 465.714 L867.967 467.59 L871.21 469.53 L874.453 471.531 L877.696 473.591 L880.939 475.709 L884.182 477.882 L887.425 480.111 L890.668 482.395 L893.911 484.733 L897.155 487.128 L900.398 489.579 L903.641 492.089 L906.884 494.661 L910.127 497.296 L913.37 499.998 L916.613 502.771 L919.856 505.618 L923.099 508.545 L926.342 511.552 L929.585 514.634 L932.828 517.782 L936.071 520.987 L939.314 524.242 L942.557 527.539 L945.8 530.871 L949.043 534.231 L952.286 537.612 L955.529 541.01 L958.772 544.419 L962.015 547.833 L965.258 551.25 L968.501 554.664 L971.744 558.073 L974.987 561.474 L978.23 564.865 L981.473 568.243 L984.716 571.608 L987.959 574.958 L991.202 578.293 L994.445 581.612 L997.688 584.918 L1000.93 588.209 L1004.17 591.488 L1007.42 594.756 L1010.66 598.016 L1013.9 601.269 L1017.15 604.52 L1020.39 607.771 L1023.63 611.026 L1026.88 614.29 L1030.12 617.566 L1033.36 620.86 L1036.6 624.178 L1039.85 627.524 L1043.09 630.904 L1046.33 634.325 L1049.58 637.794 L1052.82 641.316 L1056.06 644.898 L1059.31 648.548 L1062.55 652.273 L1065.79 656.08 L1069.04 659.977 L1072.28 663.969 L1075.52 668.064 L1078.76 672.254 L1082.01 676.535 L1085.25 680.897 L1088.49 685.334 L1091.74 689.839 L1094.98 694.404 L1098.22 699.024 L1101.47 703.69 L1104.71 708.398 L1107.95 713.139 L1111.19 717.909 L1114.44 722.702 L1117.68 727.511 L1120.92 732.332 L1124.17 737.16 L1127.41 741.99 L1130.65 746.817 L1133.9 751.638 L1137.14 756.448 L1140.38 761.244 L1143.62 766.023 L1146.87 770.782 L1150.11 775.517 L1153.35 780.226 L1156.6 784.908 L1159.84 789.56 L1163.08 794.18 L1166.33 798.767 L1169.57 803.321 L1172.81 807.839 L1176.06 812.322 L1179.3 816.769 L1182.54 821.18 L1185.78 825.554 L1189.03 829.894 L1192.27 834.198 L1195.51 838.469 L1198.76 842.707 L1202 846.913 L1205.24 851.09 L1208.49 855.239 L1211.73 859.363 L1214.97 863.464 L1218.21 867.544 L1221.46 871.607 L1224.7 875.657 L1227.94 879.696 L1231.19 883.728 L1234.43 887.758 L1237.67 891.79 L1240.92 895.828 L1244.16 899.877 L1247.4 903.944 L1250.64 908.032 L1253.89 912.147 L1257.13 916.296 L1260.37 920.484 L1263.62 924.718 L1266.86 929.004 L1270.1 933.348 L1273.35 937.758 L1276.59 942.24 L1279.83 946.801 L1283.08 951.448 L1286.32 956.187 L1289.56 961.025 L1292.8 965.967 L1296.05 971.007 L1299.29 976.135 L1302.53 981.344 L1305.78 986.625 L1309.02 991.97 L1312.26 997.369 L1315.51 1002.81 L1318.75 1008.3 L1321.99 1013.81 L1325.23 1019.35 L1328.48 1024.9 L1331.72 1030.45 L1334.96 1036.01 L1338.21 1041.56 L1341.45 1047.09 L1344.69 1052.6 L1347.94 1058.08 L1351.18 1063.53 L1354.42 1068.94 L1357.66 1074.3 L1360.91 1079.61 L1364.15 1084.87 L1367.39 1090.06 L1370.64 1095.19 L1373.88 1100.25 L1377.12 1105.23 L1380.37 1110.14 L1383.61 1114.97 L1386.85 1119.71 L1390.1 1124.37 L1393.34 1128.94 L1396.58 1133.41 L1399.82 1137.79 L1403.07 1142.08 L1406.31 1146.26 L1409.55 1150.35 L1412.8 1154.34 L1416.04 1158.23 L1419.28 1162.01 L1422.53 1165.7 L1425.77 1169.29 L1429.01 1172.77 L1432.25 1176.16 L1435.5 1179.44 L1438.74 1182.63 L1441.98 1185.73 L1445.23 1188.74 L1448.47 1191.65 L1451.71 1194.48 L1454.96 1197.23 L1458.2 1199.89 L1461.44 1202.49 L1464.68 1205.01 L1467.93 1207.48 L1471.17 1209.88 L1474.41 1212.23 L1477.66 1214.54 L1480.9 1216.8 L1484.14 1219.04 L1487.39 1221.25 L1490.63 1223.44 L1493.87 1225.6 L1497.11 1227.75 L1500.36 1229.88 L1503.6 1232.01 L1506.84 1234.12 L1510.09 1236.22 L1513.33 1238.32 L1516.57 1240.42 L1519.82 1242.53 L1523.06 1244.65 L1526.3 1246.77 L1529.55 1248.92 L1532.79 1251.07 L1536.03 1253.24 L1539.27 1255.43 L1542.52 1257.64 L1545.76 1259.86 L1549 1262.1 L1552.25 1264.37 L1555.49 1266.66 L1558.73 1268.97 L1561.98 1271.3 L1565.22 1273.64 L1568.46 1275.98 L1571.7 1278.34 L1574.95 1280.7 L1578.19 1283.06 L1581.43 1285.42 L1584.68 1287.79 L1587.92 1290.16 L1591.16 1292.53 L1594.41 1294.9 L1597.65 1297.28 L1600.89 1299.67 L1604.13 1302.07 L1607.38 1304.48 L1610.62 1306.91 L1613.86 1309.35 L1617.11 1311.78 L1620.35 1314.21 L1623.59 1316.61 L1626.84 1318.99 L1630.08 1321.34 L1633.32 1323.65 L1636.57 1325.92 L1639.81 1328.13 L1643.05 1330.28 L1646.29 1332.37 L1649.54 1334.4 L1652.78 1336.36 L1656.02 1338.24 L1659.27 1340.05 L1662.51 1341.77 L1665.75 1343.42 L1669 1344.99 L1672.24 1346.47 L1675.48 1347.87 L1678.72 1349.19 L1681.97 1350.43 L1685.21 1351.59 L1688.45 1352.66 L1691.7 1353.67 L1694.94 1354.6 L1698.18 1355.45 L1701.43 1356.25 L1704.67 1356.98 L1707.91 1357.66 L1711.15 1358.28 L1714.4 1358.86 L1717.64 1359.41 L1720.88 1359.92 L1724.13 1360.41 L1727.37 1360.89 L1730.61 1361.36 L1733.86 1361.82 L1737.1 1362.29 L1740.34 1362.75 L1743.59 1363.22 L1746.83 1363.69 L1750.07 1364.18 L1753.31 1364.67 L1756.56 1365.2 L1759.8 1365.74 L1763.04 1366.32 L1766.29 1366.94 L1769.53 1367.59 L1772.77 1368.3 L1776.02 1369.04 L1779.26 1369.82 L1782.5 1370.64 L1785.74 1371.49 L1788.99 1372.38 L1792.23 1373.3 L1795.47 1374.26 L1798.72 1375.26 L1801.96 1376.29 L1805.2 1377.36 L1808.45 1378.48 L1811.69 1379.64 L1814.93 1380.84 L1818.17 1382.09 L1821.42 1383.39 L1824.66 1384.74 L1827.9 1386.13 L1831.15 1387.57 L1834.39 1389.05 L1837.63 1390.58 L1840.88 1392.16 L1844.12 1393.78 L1847.36 1395.44 L1850.61 1397.14 L1853.85 1398.87 L1857.09 1400.62 L1860.33 1402.39 L1863.58 1404.16 L1866.82 1405.94 L1870.06 1407.72 L1873.31 1409.48 L1876.55 1411.23 L1879.79 1412.97 L1883.04 1414.68 L1886.28 1416.36 L1889.52 1418.02 L1892.76 1419.64 L1896.01 1421.22 L1899.25 1422.76 L1902.49 1424.26 L1905.74 1425.72 L1908.98 1427.13 L1912.22 1428.49 L1915.47 1429.8 L1918.71 1431.06 L1921.95 1432.28 L1925.19 1433.43 L1928.44 1434.54 L1931.68 1435.6 L1934.92 1436.6 L1938.17 1437.54 L1941.41 1438.44 L1944.65 1439.28 L1947.9 1440.06 L1951.14 1440.79 L1954.38 1441.47 L1957.63 1442.1 L1960.87 1442.68 L1964.11 1443.2 L1967.35 1443.67 L1970.6 1444.09 L1973.84 1444.46 L1977.08 1444.78 L1980.33 1445.05 L1983.57 1445.28 L1986.81 1445.46 L1990.06 1445.59 L1993.3 1445.67 L1996.54 1445.72 L1999.78 1445.71 L2003.03 1445.67 L2006.27 1445.58 L2009.51 1445.45 L2012.76 1445.28 L2016 1445.08 L2019.24 1444.83 L2022.49 1444.54 L2025.73 1444.22 L2028.97 1443.87 L2032.21 1443.48 L2035.46 1443.05 L2038.7 1442.59 L2041.94 1442.1 L2045.19 1441.58 L2048.43 1441.03 L2051.67 1440.45 L2054.92 1439.84 L2058.16 1439.2 L2061.4 1438.54 L2064.65 1437.85 L2067.89 1437.13 L2071.13 1436.39 L2074.37 1435.63 L2077.62 1434.84 L2080.86 1434.03 L2084.1 1433.2 L2087.35 1432.35 L2090.59 1431.48 L2093.83 1430.59 L2097.08 1429.69 L2100.32 1428.76 L2103.56 1427.82 L2106.8 1426.86 L2110.05 1425.89 L2113.29 1424.9 L2116.53 1423.9 L2119.78 1422.88 L2123.02 1421.85 L2126.26 1420.81 L2129.51 1419.76 L2132.75 1418.7 L2135.99 1417.62 L2139.23 1416.54 L2142.48 1415.44 L2145.72 1414.34 L2148.96 1413.23 L2152.21 1412.11 L2155.45 1410.99 L2158.69 1409.85 L2161.94 1408.72 L2165.18 1407.57 L2168.42 1406.42 L2171.67 1405.27 L2174.91 1404.11 L2178.15 1402.94 L2181.39 1401.78 L2184.64 1400.61 L2187.88 1399.43 L2191.12 1398.26 L2194.37 1397.08 L2197.61 1395.9 L2200.85 1394.72 L2204.1 1393.54 L2207.34 1392.36 L2210.58 1391.17 L2213.82 1389.99 L2217.07 1388.81 L2220.31 1387.63 L2223.55 1386.45 L2226.8 1385.27 L2230.04 1384.09 L2233.28 1382.91 L2236.53 1381.74 L2239.77 1380.57 L2243.01 1379.4 L2246.25 1378.23 L2249.5 1377.07 L2252.74 1375.91 L2255.98 1374.75 L2259.23 1373.6 L2262.47 1372.45 L2265.71 1371.3 L2268.96 1370.16 L2272.2 1369.02 L2275.44 1367.89 L2278.69 1366.76 L2281.93 1365.64 L2285.17 1364.52 L2288.41 1363.41 L2291.66 1362.3 L2291.66 375.625 L2288.41 377.735 L2285.17 379.874 L2281.93 382.043 L2278.69 384.241 L2275.44 386.469 L2272.2 388.728 L2268.96 391.017 L2265.71 393.337 L2262.47 395.689 L2259.23 398.072 L2255.98 400.488 L2252.74 402.936 L2249.5 405.417 L2246.25 407.931 L2243.01 410.479 L2239.77 413.061 L2236.53 415.678 L2233.28 418.329 L2230.04 421.016 L2226.8 423.739 L2223.55 426.497 L2220.31 429.292 L2217.07 432.124 L2213.82 434.993 L2210.58 437.899 L2207.34 440.844 L2204.1 443.827 L2200.85 446.849 L2197.61 449.911 L2194.37 453.012 L2191.12 456.153 L2187.88 459.334 L2184.64 462.556 L2181.39 465.82 L2178.15 469.125 L2174.91 472.472 L2171.67 475.862 L2168.42 479.295 L2165.18 482.771 L2161.94 486.29 L2158.69 489.854 L2155.45 493.462 L2152.21 497.115 L2148.96 500.813 L2145.72 504.556 L2142.48 508.346 L2139.23 512.181 L2135.99 516.064 L2132.75 519.993 L2129.51 523.97 L2126.26 527.994 L2123.02 532.066 L2119.78 536.187 L2116.53 540.356 L2113.29 544.575 L2110.05 548.842 L2106.8 553.159 L2103.56 557.526 L2100.32 561.943 L2097.08 566.41 L2093.83 570.928 L2090.59 575.497 L2087.35 580.116 L2084.1 584.787 L2080.86 589.509 L2077.62 594.283 L2074.37 599.108 L2071.13 603.985 L2067.89 608.914 L2064.65 613.894 L2061.4 618.927 L2058.16 624.012 L2054.92 629.149 L2051.67 634.337 L2048.43 639.578 L2045.19 644.87 L2041.94 650.215 L2038.7 655.61 L2035.46 661.057 L2032.21 666.555 L2028.97 672.104 L2025.73 677.704 L2022.49 683.354 L2019.24 689.053 L2016 694.802 L2012.76 700.599 L2009.51 706.445 L2006.27 712.338 L2003.03 718.279 L1999.78 724.265 L1996.54 730.297 L1993.3 736.373 L1990.06 742.493 L1986.81 748.656 L1983.57 754.86 L1980.33 761.104 L1977.08 767.386 L1973.84 773.707 L1970.6 780.063 L1967.35 786.453 L1964.11 792.877 L1960.87 799.33 L1957.63 805.813 L1954.38 812.322 L1951.14 818.856 L1947.9 825.412 L1944.65 831.986 L1941.41 838.578 L1938.17 845.183 L1934.92 851.799 L1931.68 858.422 L1928.44 865.048 L1925.19 871.674 L1921.95 878.296 L1918.71 884.91 L1915.47 891.51 L1912.22 898.092 L1908.98 904.651 L1905.74 911.182 L1902.49 917.678 L1899.25 924.133 L1896.01 930.541 L1892.76 936.895 L1889.52 943.186 L1886.28 949.408 L1883.04 955.552 L1879.79 961.609 L1876.55 967.57 L1873.31 973.424 L1870.06 979.162 L1866.82 984.772 L1863.58 990.243 L1860.33 995.563 L1857.09 1000.72 L1853.85 1005.7 L1850.61 1010.49 L1847.36 1015.07 L1844.12 1019.44 L1840.88 1023.57 L1837.63 1027.47 L1834.39 1031.13 L1831.15 1034.55 L1827.9 1037.72 L1824.66 1040.65 L1821.42 1043.33 L1818.17 1045.75 L1814.93 1047.92 L1811.69 1049.82 L1808.45 1051.48 L1805.2 1052.89 L1801.96 1054.07 L1798.72 1055.04 L1795.47 1055.79 L1792.23 1056.34 L1788.99 1056.71 L1785.74 1056.88 L1782.5 1056.88 L1779.26 1056.71 L1776.02 1056.38 L1772.77 1055.88 L1769.53 1055.23 L1766.29 1054.44 L1763.04 1053.49 L1759.8 1052.42 L1756.56 1051.21 L1753.31 1049.89 L1750.07 1048.45 L1746.83 1046.92 L1743.59 1045.28 L1740.34 1043.56 L1737.1 1041.76 L1733.86 1039.87 L1730.61 1037.91 L1727.37 1035.88 L1724.13 1033.78 L1720.88 1031.63 L1717.64 1029.43 L1714.4 1027.21 L1711.15 1024.96 L1707.91 1022.7 L1704.67 1020.45 L1701.43 1018.2 L1698.18 1015.97 L1694.94 1013.76 L1691.7 1011.59 L1688.45 1009.45 L1685.21 1007.36 L1681.97 1005.32 L1678.72 1003.33 L1675.48 1001.4 L1672.24 999.532 L1669 997.727 L1665.75 995.989 L1662.51 994.318 L1659.27 992.716 L1656.02 991.182 L1652.78 989.717 L1649.54 988.32 L1646.29 986.988 L1643.05 985.72 L1639.81 984.514 L1636.57 983.366 L1633.32 982.272 L1630.08 981.229 L1626.84 980.23 L1623.59 979.271 L1620.35 978.346 L1617.11 977.447 L1613.86 976.569 L1610.62 975.703 L1607.38 974.841 L1604.13 973.977 L1600.89 973.104 L1597.65 972.217 L1594.41 971.312 L1591.16 970.381 L1587.92 969.42 L1584.68 968.42 L1581.43 967.374 L1578.19 966.273 L1574.95 965.108 L1571.7 963.87 L1568.46 962.548 L1565.22 961.131 L1561.98 959.607 L1558.73 957.963 L1555.49 956.187 L1552.25 954.265 L1549 952.186 L1545.76 949.942 L1542.52 947.53 L1539.27 944.944 L1536.03 942.18 L1532.79 939.231 L1529.55 936.091 L1526.3 932.754 L1523.06 929.214 L1519.82 925.466 L1516.57 921.514 L1513.33 917.362 L1510.09 913.017 L1506.84 908.484 L1503.6 903.768 L1500.36 898.872 L1497.11 893.8 L1493.87 888.556 L1490.63 883.142 L1487.39 877.562 L1484.14 871.817 L1480.9 865.911 L1477.66 859.856 L1474.41 853.667 L1471.17 847.356 L1467.93 840.936 L1464.68 834.42 L1461.44 827.819 L1458.2 821.145 L1454.96 814.408 L1451.71 807.619 L1448.47 800.787 L1445.23 793.921 L1441.98 787.031 L1438.74 780.123 L1435.5 773.205 L1432.25 766.285 L1429.01 759.369 L1425.77 752.463 L1422.53 745.572 L1419.28 738.702 L1416.04 731.858 L1412.8 725.043 L1409.55 718.263 L1406.31 711.52 L1403.07 704.818 L1399.82 698.159 L1396.58 691.547 L1393.34 684.983 L1390.1 678.469 L1386.85 672.007 L1383.61 665.598 L1380.37 659.243 L1377.12 652.942 L1373.88 646.696 L1370.64 640.505 L1367.39 634.368 L1364.15 628.285 L1360.91 622.255 L1357.66 616.276 L1354.42 610.347 L1351.18 604.467 L1347.94 598.632 L1344.69 592.842 L1341.45 587.093 L1338.21 581.382 L1334.96 575.706 L1331.72 570.062 L1328.48 564.446 L1325.23 558.854 L1321.99 553.282 L1318.75 547.726 L1315.51 542.181 L1312.26 536.643 L1309.02 531.106 L1305.78 525.566 L1302.53 520.019 L1299.29 514.458 L1296.05 508.88 L1292.8 503.279 L1289.56 497.65 L1286.32 491.992 L1283.08 486.307 L1279.83 480.6 L1276.59 474.876 L1273.35 469.142 L1270.1 463.403 L1266.86 457.664 L1263.62 451.93 L1260.37 446.207 L1257.13 440.5 L1253.89 434.815 L1250.64 429.155 L1247.4 423.526 L1244.16 417.933 L1240.92 412.38 L1237.67 406.871 L1234.43 401.411 L1231.19 396.002 L1227.94 390.649 L1224.7 385.356 L1221.46 380.124 L1218.21 374.958 L1214.97 369.859 L1211.73 364.832 L1208.49 359.876 L1205.24 354.996 L1202 350.193 L1198.76 345.467 L1195.51 340.822 L1192.27 336.258 L1189.03 331.776 L1185.78 327.377 L1182.54 323.062 L1179.3 318.831 L1176.06 314.685 L1172.81 310.623 L1169.57 306.646 L1166.33 302.752 L1163.08 298.942 L1159.84 295.215 L1156.6 291.57 L1153.35 288.006 L1150.11 284.521 L1146.87 281.114 L1143.62 277.783 L1140.38 274.527 L1137.14 271.343 L1133.9 268.228 L1130.65 265.181 L1127.41 262.199 L1124.17 259.278 L1120.92 256.416 L1117.68 253.608 L1114.44 250.853 L1111.19 248.145 L1107.95 245.481 L1104.71 242.857 L1101.47 240.268 L1098.22 237.71 L1094.98 235.179 L1091.74 232.67 L1088.49 230.179 L1085.25 227.699 L1082.01 225.228 L1078.76 222.759 L1075.52 220.289 L1072.28 217.812 L1069.04 215.326 L1065.79 212.834 L1062.55 210.341 L1059.31 207.851 L1056.06 205.371 L1052.82 202.904 L1049.58 200.456 L1046.33 198.032 L1043.09 195.637 L1039.85 193.275 L1036.6 190.952 L1033.36 188.67 L1030.12 186.436 L1026.88 184.252 L1023.63 182.123 L1020.39 180.052 L1017.15 178.042 L1013.9 176.096 L1010.66 174.216 L1007.42 172.406 L1004.17 170.667 L1000.93 169 L997.688 167.408 L994.445 165.891 L991.202 164.45 L987.959 163.086 L984.716 161.798 L981.473 160.586 L978.23 159.45 L974.987 158.388 L971.744 157.399 L968.501 156.482 L965.258 155.634 L962.015 154.853 L958.772 154.136 L955.529 153.479 L952.286 152.879 L949.043 152.333 L945.8 151.835 L942.557 151.38 L939.314 150.965 L936.071 150.583 L932.828 150.228 L929.585 149.895 L926.342 149.576 L923.099 149.267 L919.856 148.961 L916.613 148.654 L913.37 148.347 L910.127 148.035 L906.884 147.718 L903.641 147.391 L900.398 147.053 L897.155 146.7 L893.911 146.327 L890.668 145.932 L887.425 145.509 L884.182 145.053 L880.939 144.559 L877.696 144.021 L874.453 143.432 L871.21 142.786 L867.967 142.075 L864.724 141.294 L861.481 140.435 L858.238 139.5 L854.995 138.493 L851.752 137.416 L848.509 136.272 L845.266 135.063 L842.023 133.792 L838.78 132.46 L835.537 131.068 L832.294 129.617 L829.051 128.109 L825.808 126.545 L822.565 124.934 L819.322 123.287 L816.079 121.613 L812.836 119.922 L809.593 118.224 L806.35 116.526 L803.107 114.837 L799.864 113.163 L796.621 111.513 L793.378 109.892 L790.135 108.306 L786.892 106.759 L783.648 105.258 L780.405 103.804 L777.162 102.403 L773.919 101.057 L770.676 99.7674 L767.433 98.5375 L764.19 97.3685 L760.947 96.2617 L757.704 95.218 L754.461 94.238 L751.218 93.3227 L747.975 92.4741 L744.732 91.6945 L741.489 90.9858 L738.246 90.35 L735.003 89.7883 L731.76 89.3019 L728.517 88.8915 L725.274 88.5575 L722.031 88.2997 L718.788 88.1176 L715.545 88.0102 L712.302 87.9763 L709.059 88.0139 L705.816 88.1208 L702.573 88.2944 L699.33 88.5314 L696.087 88.8285 L692.844 89.1817 L689.601 89.5866 L686.358 90.0388 L683.115 90.5333 L679.872 91.0648 L676.629 91.628 L673.385 92.2171 L670.142 92.8282 L666.899 93.4646 L663.656 94.131 L660.413 94.832 L657.17 95.5723 L653.927 96.3558 L650.684 97.1866 L647.441 98.0681 L644.198 99.0037 L640.955 99.996 L637.712 101.048 L634.469 102.161 L631.226 103.337 L627.983 104.578 L624.74 105.884 L621.497 107.256 L618.254 108.694 L615.011 110.198 L611.768 111.768 L608.525 113.403 L605.282 115.103 L602.039 116.866 L598.796 118.691 L595.553 120.579 L592.31 122.534 L589.067 124.555 L585.824 126.645 L582.581 128.804 L579.338 131.032 L576.095 133.331 L572.852 135.699 L569.609 138.137 L566.366 140.642 L563.122 143.214 L559.879 145.85 L556.636 148.547 L553.393 151.303 L550.15 154.113 L546.907 156.974 L543.664 159.879 L540.421 162.825 L537.178 165.805 L533.935 168.812 L530.692 171.839 L527.449 174.88 L524.206 177.925 L520.963 180.968 L517.72 183.998 L514.477 187.008 L511.234 189.988 L507.991 192.929 L504.748 195.829 L501.505 198.687 L498.262 201.499 L495.019 204.263 L491.776 206.978 L488.533 209.641 L485.29 212.248 L482.047 214.801 L478.804 217.302 L475.561 219.761 L472.318 222.184 L469.075 224.577 L465.832 226.946 L462.589 229.296 L459.346 231.634 L456.103 233.963 L452.859 236.288 L449.616 238.61 L446.373 240.934 L443.13 243.261 L439.887 245.593 L436.644 247.929 L433.401 250.269 L430.158 252.613 L426.915 254.96 L423.672 257.305 L420.429 259.648 L417.186 261.983 L413.943 264.306 L410.7 266.613 L407.457 268.896 L404.214 271.15 L400.971 273.367 L397.728 275.539 L394.485 277.658 L391.242 279.716 L387.999 281.702 L384.756 283.607 L381.513 285.421 L378.27 287.134 L375.027 288.737 L371.784 290.226 L368.541 291.601 L365.298 292.857 L362.055 293.995 L358.812 295.011 L355.569 295.904 L352.326 296.671 L349.083 297.31 L345.84 297.817 L342.596 298.192 L339.353 298.43 L336.11 298.53 L332.867 298.488 L329.624 298.304 L326.381 297.986 L323.138 297.54 L319.895 296.976 L316.652 296.302 L313.409 295.527 L310.166 294.657 L306.923 293.701 L303.68 292.666 L300.437 291.559 L297.194 290.387 L293.951 289.156 L290.708 287.872 L287.465 286.541 L284.222 285.169 L280.979 283.761 L277.736 282.321 L274.493 280.853 L271.25 279.363 L268.007 277.854 L264.764 276.33 L261.521 274.794 L258.278 273.25 L255.035 271.7  Z" fill="#3da44d" fill-rule="evenodd" fill-opacity="0.1"/>
<polyline clip-path="url(#clip202)" style="stroke:#3da44d; stroke-linecap:round; stroke-linejoin:round; stroke-width:8; stroke-opacity:1; fill:none" points="255.035,559.627 258.278,557.545 261.521,555.446 264.764,553.329 268.007,551.195 271.25,549.044 274.493,546.875 277.736,544.689 280.979,542.486 284.222,540.265 287.465,538.028 290.708,535.774 293.951,533.503 297.194,531.215 300.437,528.91 303.68,526.589 306.923,524.251 310.166,521.897 313.409,519.527 316.652,517.141 319.895,514.739 323.138,512.321 326.381,509.888 329.624,507.44 332.867,504.976 336.11,502.498 339.353,500.006 342.596,497.499 345.84,494.979 349.083,492.445 352.326,489.899 355.569,487.341 358.812,484.771 362.055,482.19 365.298,479.598 368.541,476.997 371.784,474.385 375.027,471.765 378.27,469.137 381.513,466.501 384.756,463.856 387.999,461.204 391.242,458.543 394.485,455.875 397.728,453.197 400.971,450.511 404.214,447.817 407.457,445.113 410.7,442.401 413.943,439.681 417.186,436.951 420.429,434.213 423.672,431.466 426.915,428.711 430.158,425.947 433.401,423.175 436.644,420.394 439.887,417.606 443.13,414.81 446.373,412.006 449.616,409.195 452.859,406.376 456.103,403.551 459.346,400.72 462.589,397.882 465.832,395.039 469.075,392.19 472.318,389.337 475.561,386.478 478.804,383.616 482.047,380.751 485.29,377.882 488.533,375.012 491.776,372.141 495.019,369.272 498.262,366.407 501.505,363.548 504.748,360.698 507.991,357.857 511.234,355.03 514.477,352.218 517.72,349.422 520.963,346.644 524.206,343.885 527.449,341.147 530.692,338.431 533.935,335.739 537.178,333.072 540.421,330.433 543.664,327.821 546.907,325.241 550.15,322.692 553.393,320.178 556.636,317.7 559.879,315.26 563.122,312.86 566.366,310.503 569.609,308.19 572.852,305.923 576.095,303.706 579.338,301.54 582.581,299.428 585.824,297.372 589.067,295.375 592.31,293.439 595.553,291.568 598.796,289.765 602.039,288.031 605.282,286.369 608.525,284.778 611.768,283.255 615.011,281.797 618.254,280.402 621.497,279.068 624.74,277.792 627.983,276.573 631.226,275.407 634.469,274.294 637.712,273.231 640.955,272.216 644.198,271.247 647.441,270.323 650.684,269.443 653.927,268.604 657.17,267.804 660.413,267.044 663.656,266.32 666.899,265.632 670.142,264.979 673.385,264.358 676.629,263.771 679.872,263.216 683.115,262.695 686.358,262.208 689.601,261.758 692.844,261.344 696.087,260.968 699.33,260.631 702.573,260.335 705.816,260.08 709.059,259.869 712.302,259.702 715.545,259.581 718.788,259.508 722.031,259.485 725.274,259.512 728.517,259.593 731.76,259.728 735.003,259.92 738.246,260.171 741.489,260.484 744.732,260.859 747.975,261.3 751.218,261.809 754.461,262.389 757.704,263.04 760.947,263.76 764.19,264.546 767.433,265.392 770.676,266.296 773.919,267.254 777.162,268.263 780.405,269.318 783.648,270.416 786.892,271.554 790.135,272.729 793.378,273.937 796.621,275.175 799.864,276.441 803.107,277.73 806.35,279.04 809.593,280.369 812.836,281.712 816.079,283.068 819.322,284.433 822.565,285.805 825.808,287.181 829.051,288.558 832.294,289.934 835.537,291.308 838.78,292.68 842.023,294.049 845.266,295.414 848.509,296.775 851.752,298.131 854.995,299.483 858.238,300.829 861.481,302.169 864.724,303.504 867.967,304.833 871.21,306.158 874.453,307.481 877.696,308.806 880.939,310.134 884.182,311.468 887.425,312.81 890.668,314.163 893.911,315.53 897.155,316.914 900.398,318.316 903.641,319.74 906.884,321.189 910.127,322.665 913.37,324.172 916.613,325.713 919.856,327.289 923.099,328.906 926.342,330.564 929.585,332.264 932.828,334.005 936.071,335.785 939.314,337.604 942.557,339.46 945.8,341.353 949.043,343.282 952.286,345.246 955.529,347.244 958.772,349.277 962.015,351.343 965.258,353.442 968.501,355.573 971.744,357.736 974.987,359.931 978.23,362.157 981.473,364.415 984.716,366.703 987.959,369.022 991.202,371.371 994.445,373.752 997.688,376.163 1000.93,378.605 1004.17,381.077 1007.42,383.581 1010.66,386.116 1013.9,388.682 1017.15,391.281 1020.39,393.911 1023.63,396.575 1026.88,399.271 1030.12,402.001 1033.36,404.765 1036.6,407.565 1039.85,410.399 1043.09,413.271 1046.33,416.179 1049.58,419.125 1052.82,422.11 1056.06,425.134 1059.31,428.2 1062.55,431.307 1065.79,434.457 1069.04,437.651 1072.28,440.891 1075.52,444.176 1078.76,447.507 1082.01,450.881 1085.25,454.298 1088.49,457.756 1091.74,461.255 1094.98,464.792 1098.22,468.367 1101.47,471.979 1104.71,475.627 1107.95,479.31 1111.19,483.027 1114.44,486.777 1117.68,490.56 1120.92,494.374 1124.17,498.219 1127.41,502.094 1130.65,505.999 1133.9,509.933 1137.14,513.895 1140.38,517.886 1143.62,521.903 1146.87,525.948 1150.11,530.019 1153.35,534.116 1156.6,538.239 1159.84,542.387 1163.08,546.561 1166.33,550.76 1169.57,554.983 1172.81,559.231 1176.06,563.503 1179.3,567.8 1182.54,572.121 1185.78,576.466 1189.03,580.835 1192.27,585.228 1195.51,589.646 1198.76,594.087 1202,598.553 1205.24,603.043 1208.49,607.558 1211.73,612.097 1214.97,616.661 1218.21,621.251 1221.46,625.866 1224.7,630.506 1227.94,635.172 1231.19,639.865 1234.43,644.584 1237.67,649.33 1240.92,654.104 1244.16,658.905 1247.4,663.735 1250.64,668.593 1253.89,673.481 1257.13,678.398 1260.37,683.346 1263.62,688.324 1266.86,693.334 1270.1,698.376 1273.35,703.45 1276.59,708.558 1279.83,713.7 1283.08,718.877 1286.32,724.089 1289.56,729.338 1292.8,734.623 1296.05,739.943 1299.29,745.297 1302.53,750.681 1305.78,756.096 1309.02,761.538 1312.26,767.006 1315.51,772.498 1318.75,778.012 1321.99,783.547 1325.23,789.101 1328.48,794.672 1331.72,800.258 1334.96,805.857 1338.21,811.469 1341.45,817.09 1344.69,822.72 1347.94,828.356 1351.18,833.998 1354.42,839.642 1357.66,845.287 1360.91,850.932 1364.15,856.575 1367.39,862.214 1370.64,867.847 1373.88,873.472 1377.12,879.088 1380.37,884.692 1383.61,890.284 1386.85,895.86 1390.1,901.419 1393.34,906.959 1396.58,912.479 1399.82,917.975 1403.07,923.447 1406.31,928.891 1409.55,934.307 1412.8,939.691 1416.04,945.043 1419.28,950.358 1422.53,955.636 1425.77,960.874 1429.01,966.069 1432.25,971.22 1435.5,976.324 1438.74,981.378 1441.98,986.381 1445.23,991.328 1448.47,996.219 1451.71,1001.05 1454.96,1005.82 1458.2,1010.52 1461.44,1015.15 1464.68,1019.72 1467.93,1024.21 1471.17,1028.62 1474.41,1032.95 1477.66,1037.2 1480.9,1041.36 1484.14,1045.43 1487.39,1049.4 1490.63,1053.29 1493.87,1057.08 1497.11,1060.78 1500.36,1064.38 1503.6,1067.89 1506.84,1071.3 1510.09,1074.62 1513.33,1077.84 1516.57,1080.97 1519.82,1084 1523.06,1086.93 1526.3,1089.76 1529.55,1092.5 1532.79,1095.15 1536.03,1097.71 1539.27,1100.19 1542.52,1102.58 1545.76,1104.9 1549,1107.14 1552.25,1109.32 1555.49,1111.42 1558.73,1113.47 1561.98,1115.45 1565.22,1117.38 1568.46,1119.27 1571.7,1121.1 1574.95,1122.9 1578.19,1124.67 1581.43,1126.4 1584.68,1128.11 1587.92,1129.79 1591.16,1131.46 1594.41,1133.11 1597.65,1134.75 1600.89,1136.39 1604.13,1138.02 1607.38,1139.66 1610.62,1141.31 1613.86,1142.96 1617.11,1144.61 1620.35,1146.28 1623.59,1147.94 1626.84,1149.61 1630.08,1151.29 1633.32,1152.96 1636.57,1154.64 1639.81,1156.32 1643.05,1158 1646.29,1159.68 1649.54,1161.36 1652.78,1163.04 1656.02,1164.71 1659.27,1166.38 1662.51,1168.05 1665.75,1169.71 1669,1171.36 1672.24,1173 1675.48,1174.64 1678.72,1176.26 1681.97,1177.87 1685.21,1179.47 1688.45,1181.06 1691.7,1182.63 1694.94,1184.18 1698.18,1185.71 1701.43,1187.22 1704.67,1188.71 1707.91,1190.18 1711.15,1191.62 1714.4,1193.04 1717.64,1194.42 1720.88,1195.78 1724.13,1197.1 1727.37,1198.38 1730.61,1199.63 1733.86,1200.85 1737.1,1202.02 1740.34,1203.16 1743.59,1204.25 1746.83,1205.3 1750.07,1206.31 1753.31,1207.28 1756.56,1208.2 1759.8,1209.08 1763.04,1209.91 1766.29,1210.69 1769.53,1211.41 1772.77,1212.09 1776.02,1212.71 1779.26,1213.26 1782.5,1213.76 1785.74,1214.19 1788.99,1214.54 1792.23,1214.82 1795.47,1215.03 1798.72,1215.15 1801.96,1215.18 1805.2,1215.13 1808.45,1214.98 1811.69,1214.73 1814.93,1214.38 1818.17,1213.92 1821.42,1213.36 1824.66,1212.69 1827.9,1211.93 1831.15,1211.06 1834.39,1210.09 1837.63,1209.03 1840.88,1207.86 1844.12,1206.61 1847.36,1205.26 1850.61,1203.81 1853.85,1202.28 1857.09,1200.67 1860.33,1198.97 1863.58,1197.2 1866.82,1195.36 1870.06,1193.44 1873.31,1191.45 1876.55,1189.4 1879.79,1187.29 1883.04,1185.12 1886.28,1182.89 1889.52,1180.6 1892.76,1178.27 1896.01,1175.88 1899.25,1173.45 1902.49,1170.97 1905.74,1168.45 1908.98,1165.89 1912.22,1163.29 1915.47,1160.66 1918.71,1157.99 1921.95,1155.29 1925.19,1152.55 1928.44,1149.79 1931.68,1147.01 1934.92,1144.2 1938.17,1141.36 1941.41,1138.51 1944.65,1135.63 1947.9,1132.74 1951.14,1129.83 1954.38,1126.9 1957.63,1123.96 1960.87,1121 1964.11,1118.04 1967.35,1115.06 1970.6,1112.08 1973.84,1109.08 1977.08,1106.08 1980.33,1103.08 1983.57,1100.07 1986.81,1097.06 1990.06,1094.04 1993.3,1091.02 1996.54,1088.01 1999.78,1084.99 2003.03,1081.97 2006.27,1078.96 2009.51,1075.95 2012.76,1072.94 2016,1069.94 2019.24,1066.94 2022.49,1063.95 2025.73,1060.96 2028.97,1057.99 2032.21,1055.02 2035.46,1052.05 2038.7,1049.1 2041.94,1046.16 2045.19,1043.23 2048.43,1040.3 2051.67,1037.39 2054.92,1034.49 2058.16,1031.61 2061.4,1028.73 2064.65,1025.87 2067.89,1023.02 2071.13,1020.19 2074.37,1017.37 2077.62,1014.56 2080.86,1011.77 2084.1,1008.99 2087.35,1006.23 2090.59,1003.49 2093.83,1000.76 2097.08,998.048 2100.32,995.352 2103.56,992.673 2106.8,990.011 2110.05,987.365 2113.29,984.738 2116.53,982.127 2119.78,979.535 2123.02,976.96 2126.26,974.403 2129.51,971.865 2132.75,969.345 2135.99,966.843 2139.23,964.36 2142.48,961.895 2145.72,959.449 2148.96,957.022 2152.21,954.614 2155.45,952.224 2158.69,949.854 2161.94,947.503 2165.18,945.171 2168.42,942.858 2171.67,940.564 2174.91,938.289 2178.15,936.034 2181.39,933.798 2184.64,931.581 2187.88,929.383 2191.12,927.205 2194.37,925.045 2197.61,922.905 2200.85,920.784 2204.1,918.683 2207.34,916.6 2210.58,914.536 2213.82,912.492 2217.07,910.466 2220.31,908.459 2223.55,906.472 2226.8,904.503 2230.04,902.552 2233.28,900.621 2236.53,898.708 2239.77,896.814 2243.01,894.938 2246.25,893.081 2249.5,891.242 2252.74,889.421 2255.98,887.618 2259.23,885.834 2262.47,884.067 2265.71,882.318 2268.96,880.588 2272.2,878.874 2275.44,877.179 2278.69,875.501 2281.93,873.84 2285.17,872.197 2288.41,870.571 2291.66,868.962 "/>
<path clip-path="url(#clip200)" d="M1953.46 302.578 L2280.8 302.578 L2280.8 95.2176 L1953.46 95.2176  Z" fill="#ffffff" fill-rule="evenodd" fill-opacity="1"/>
<polyline clip-path="url(#clip200)" style="stroke:#000000; stroke-linecap:round; stroke-linejoin:round; stroke-width:4; stroke-opacity:1; fill:none" points="1953.46,302.578 2280.8,302.578 2280.8,95.2176 1953.46,95.2176 1953.46,302.578 "/>
<polyline clip-path="url(#clip200)" style="stroke:#009af9; stroke-linecap:round; stroke-linejoin:round; stroke-width:4; stroke-opacity:1; fill:none" points="1977.44,147.058 2121.36,147.058 "/>
<path clip-path="url(#clip200)" d="M2152.76 131.051 L2152.76 138.412 L2161.53 138.412 L2161.53 141.722 L2152.76 141.722 L2152.76 155.796 Q2152.76 158.967 2153.61 159.87 Q2154.49 160.773 2157.16 160.773 L2161.53 160.773 L2161.53 164.338 L2157.16 164.338 Q2152.23 164.338 2150.35 162.509 Q2148.48 160.657 2148.48 155.796 L2148.48 141.722 L2145.35 141.722 L2145.35 138.412 L2148.48 138.412 L2148.48 131.051 L2152.76 131.051 Z" fill="#000000" fill-rule="nonzero" fill-opacity="1" /><path clip-path="url(#clip200)" d="M2182.16 142.393 Q2181.44 141.977 2180.58 141.791 Q2179.75 141.583 2178.73 141.583 Q2175.12 141.583 2173.17 143.944 Q2171.25 146.282 2171.25 150.68 L2171.25 164.338 L2166.97 164.338 L2166.97 138.412 L2171.25 138.412 L2171.25 142.44 Q2172.6 140.078 2174.75 138.944 Q2176.9 137.787 2179.98 137.787 Q2180.42 137.787 2180.95 137.856 Q2181.48 137.903 2182.13 138.018 L2182.16 142.393 Z" fill="#000000" fill-rule="nonzero" fill-opacity="1" /><path clip-path="url(#clip200)" d="M2186.18 154.106 L2186.18 138.412 L2190.44 138.412 L2190.44 153.944 Q2190.44 157.625 2191.88 159.476 Q2193.31 161.305 2196.18 161.305 Q2199.63 161.305 2201.62 159.106 Q2203.64 156.907 2203.64 153.111 L2203.64 138.412 L2207.9 138.412 L2207.9 164.338 L2203.64 164.338 L2203.64 160.356 Q2202.09 162.717 2200.03 163.875 Q2197.99 165.009 2195.28 165.009 Q2190.81 165.009 2188.5 162.231 Q2186.18 159.453 2186.18 154.106 M2196.9 137.787 L2196.9 137.787 Z" fill="#000000" fill-rule="nonzero" fill-opacity="1" /><path clip-path="url(#clip200)" d="M2220.88 131.051 L2220.88 138.412 L2229.66 138.412 L2229.66 141.722 L2220.88 141.722 L2220.88 155.796 Q2220.88 158.967 2221.74 159.87 Q2222.62 160.773 2225.28 160.773 L2229.66 160.773 L2229.66 164.338 L2225.28 164.338 Q2220.35 164.338 2218.48 162.509 Q2216.6 160.657 2216.6 155.796 L2216.6 141.722 L2213.48 141.722 L2213.48 138.412 L2216.6 138.412 L2216.6 131.051 L2220.88 131.051 Z" fill="#000000" fill-rule="nonzero" fill-opacity="1" /><path clip-path="url(#clip200)" d="M2256.81 148.689 L2256.81 164.338 L2252.55 164.338 L2252.55 148.828 Q2252.55 145.148 2251.11 143.319 Q2249.68 141.49 2246.81 141.49 Q2243.36 141.49 2241.37 143.69 Q2239.38 145.889 2239.38 149.685 L2239.38 164.338 L2235.1 164.338 L2235.1 128.319 L2239.38 128.319 L2239.38 142.44 Q2240.91 140.102 2242.97 138.944 Q2245.05 137.787 2247.76 137.787 Q2252.23 137.787 2254.52 140.565 Q2256.81 143.319 2256.81 148.689 Z" fill="#000000" fill-rule="nonzero" fill-opacity="1" /><circle clip-path="url(#clip200)" cx="2049.4" cy="198.898" r="20.48" fill="#e26f46" fill-rule="evenodd" fill-opacity="1" stroke="#000000" stroke-opacity="1" stroke-width="4.55111"/>
<path clip-path="url(#clip200)" d="M2164.26 194.187 L2164.26 180.159 L2168.52 180.159 L2168.52 216.178 L2164.26 216.178 L2164.26 212.289 Q2162.92 214.603 2160.86 215.738 Q2158.82 216.849 2155.95 216.849 Q2151.25 216.849 2148.29 213.099 Q2145.35 209.349 2145.35 203.238 Q2145.35 197.127 2148.29 193.377 Q2151.25 189.627 2155.95 189.627 Q2158.82 189.627 2160.86 190.761 Q2162.92 191.872 2164.26 194.187 M2149.75 203.238 Q2149.75 207.937 2151.67 210.622 Q2153.61 213.284 2156.99 213.284 Q2160.37 213.284 2162.32 210.622 Q2164.26 207.937 2164.26 203.238 Q2164.26 198.539 2162.32 195.877 Q2160.37 193.192 2156.99 193.192 Q2153.61 193.192 2151.67 195.877 Q2149.75 198.539 2149.75 203.238 Z" fill="#000000" fill-rule="nonzero" fill-opacity="1" /><path clip-path="url(#clip200)" d="M2189.08 203.145 Q2183.92 203.145 2181.92 204.326 Q2179.93 205.506 2179.93 208.354 Q2179.93 210.622 2181.42 211.965 Q2182.92 213.284 2185.49 213.284 Q2189.03 213.284 2191.16 210.784 Q2193.31 208.261 2193.31 204.094 L2193.31 203.145 L2189.08 203.145 M2197.57 201.386 L2197.57 216.178 L2193.31 216.178 L2193.31 212.242 Q2191.85 214.603 2189.68 215.738 Q2187.5 216.849 2184.36 216.849 Q2180.37 216.849 2178.01 214.627 Q2175.67 212.381 2175.67 208.631 Q2175.67 204.256 2178.59 202.034 Q2181.53 199.812 2187.34 199.812 L2193.31 199.812 L2193.31 199.395 Q2193.31 196.455 2191.37 194.858 Q2189.45 193.238 2185.95 193.238 Q2183.73 193.238 2181.62 193.77 Q2179.52 194.303 2177.57 195.367 L2177.57 191.432 Q2179.91 190.53 2182.11 190.09 Q2184.31 189.627 2186.39 189.627 Q2192.02 189.627 2194.79 192.543 Q2197.57 195.46 2197.57 201.386 Z" fill="#000000" fill-rule="nonzero" fill-opacity="1" /><path clip-path="url(#clip200)" d="M2210.56 182.891 L2210.56 190.252 L2219.33 190.252 L2219.33 193.562 L2210.56 193.562 L2210.56 207.636 Q2210.56 210.807 2211.42 211.71 Q2212.29 212.613 2214.96 212.613 L2219.33 212.613 L2219.33 216.178 L2214.96 216.178 Q2210.03 216.178 2208.15 214.349 Q2206.28 212.497 2206.28 207.636 L2206.28 193.562 L2203.15 193.562 L2203.15 190.252 L2206.28 190.252 L2206.28 182.891 L2210.56 182.891 Z" fill="#000000" fill-rule="nonzero" fill-opacity="1" /><path clip-path="url(#clip200)" d="M2236.72 203.145 Q2231.55 203.145 2229.56 204.326 Q2227.57 205.506 2227.57 208.354 Q2227.57 210.622 2229.05 211.965 Q2230.56 213.284 2233.13 213.284 Q2236.67 213.284 2238.8 210.784 Q2240.95 208.261 2240.95 204.094 L2240.95 203.145 L2236.72 203.145 M2245.21 201.386 L2245.21 216.178 L2240.95 216.178 L2240.95 212.242 Q2239.49 214.603 2237.32 215.738 Q2235.14 216.849 2231.99 216.849 Q2228.01 216.849 2225.65 214.627 Q2223.31 212.381 2223.31 208.631 Q2223.31 204.256 2226.23 202.034 Q2229.17 199.812 2234.98 199.812 L2240.95 199.812 L2240.95 199.395 Q2240.95 196.455 2239.01 194.858 Q2237.09 193.238 2233.59 193.238 Q2231.37 193.238 2229.26 193.77 Q2227.16 194.303 2225.21 195.367 L2225.21 191.432 Q2227.55 190.53 2229.75 190.09 Q2231.95 189.627 2234.03 189.627 Q2239.66 189.627 2242.43 192.543 Q2245.21 195.46 2245.21 201.386 Z" fill="#000000" fill-rule="nonzero" fill-opacity="1" /><polyline clip-path="url(#clip200)" style="stroke:#3da44d; stroke-linecap:round; stroke-linejoin:round; stroke-width:8; stroke-opacity:1; fill:none" points="1977.44,250.738 2121.36,250.738 "/>
<path clip-path="url(#clip200)" d="M2170.91 263.087 L2170.91 253.805 L2163.27 253.805 L2163.27 249.962 L2175.54 249.962 L2175.54 264.8 Q2172.83 266.721 2169.56 267.717 Q2166.3 268.689 2162.6 268.689 Q2154.49 268.689 2149.91 263.967 Q2145.35 259.221 2145.35 250.772 Q2145.35 242.3 2149.91 237.578 Q2154.49 232.833 2162.6 232.833 Q2165.98 232.833 2169.01 233.666 Q2172.06 234.499 2174.63 236.12 L2174.63 241.096 Q2172.04 238.897 2169.12 237.786 Q2166.21 236.675 2162.99 236.675 Q2156.65 236.675 2153.45 240.217 Q2150.28 243.758 2150.28 250.772 Q2150.28 257.763 2153.45 261.305 Q2156.65 264.846 2162.99 264.846 Q2165.47 264.846 2167.41 264.43 Q2169.36 263.99 2170.91 263.087 Z" fill="#000000" fill-rule="nonzero" fill-opacity="1" /><path clip-path="url(#clip200)" d="M2188.75 237.3 L2188.75 250.286 L2194.63 250.286 Q2197.9 250.286 2199.68 248.596 Q2201.46 246.907 2201.46 243.782 Q2201.46 240.68 2199.68 238.99 Q2197.9 237.3 2194.63 237.3 L2188.75 237.3 M2184.08 233.458 L2194.63 233.458 Q2200.44 233.458 2203.41 236.096 Q2206.39 238.712 2206.39 243.782 Q2206.39 248.897 2203.41 251.513 Q2200.44 254.129 2194.63 254.129 L2188.75 254.129 L2188.75 268.018 L2184.08 268.018 L2184.08 233.458 Z" fill="#000000" fill-rule="nonzero" fill-opacity="1" /></svg>
