<?xml version="1.0" encoding="utf-8"?>
<svg xmlns="http://www.w3.org/2000/svg" xmlns:xlink="http://www.w3.org/1999/xlink" width="600" height="400" viewBox="0 0 2400 1600">
<defs>
  <clipPath id="clip390">
    <rect x="0" y="0" width="2400" height="1600"/>
  </clipPath>
</defs>
<path clip-path="url(#clip390)" d="M0 1600 L2400 1600 L2400 0 L0 0  Z" fill="#ffffff" fill-rule="evenodd" fill-opacity="1"/>
<defs>
  <clipPath id="clip391">
    <rect x="480" y="0" width="1681" height="1600"/>
  </clipPath>
</defs>
<path clip-path="url(#clip390)" d="M193.936 1486.45 L2352.76 1486.45 L2352.76 47.2441 L193.936 47.2441  Z" fill="#ffffff" fill-rule="evenodd" fill-opacity="1"/>
<defs>
  <clipPath id="clip392">
    <rect x="193" y="47" width="2160" height="1440"/>
  </clipPath>
</defs>
<polyline clip-path="url(#clip392)" style="stroke:#000000; stroke-linecap:round; stroke-linejoin:round; stroke-width:2; stroke-opacity:0.1; fill:none" points="255.035,1486.45 255.035,47.2441 "/>
<polyline clip-path="url(#clip392)" style="stroke:#000000; stroke-linecap:round; stroke-linejoin:round; stroke-width:2; stroke-opacity:0.1; fill:none" points="579.173,1486.45 579.173,47.2441 "/>
<polyline clip-path="url(#clip392)" style="stroke:#000000; stroke-linecap:round; stroke-linejoin:round; stroke-width:2; stroke-opacity:0.1; fill:none" points="903.312,1486.45 903.312,47.2441 "/>
<polyline clip-path="url(#clip392)" style="stroke:#000000; stroke-linecap:round; stroke-linejoin:round; stroke-width:2; stroke-opacity:0.1; fill:none" points="1227.45,1486.45 1227.45,47.2441 "/>
<polyline clip-path="url(#clip392)" style="stroke:#000000; stroke-linecap:round; stroke-linejoin:round; stroke-width:2; stroke-opacity:0.1; fill:none" points="1551.59,1486.45 1551.59,47.2441 "/>
<polyline clip-path="url(#clip392)" style="stroke:#000000; stroke-linecap:round; stroke-linejoin:round; stroke-width:2; stroke-opacity:0.1; fill:none" points="1875.73,1486.45 1875.73,47.2441 "/>
<polyline clip-path="url(#clip392)" style="stroke:#000000; stroke-linecap:round; stroke-linejoin:round; stroke-width:2; stroke-opacity:0.1; fill:none" points="2199.87,1486.45 2199.87,47.2441 "/>
<polyline clip-path="url(#clip392)" style="stroke:#000000; stroke-linecap:round; stroke-linejoin:round; stroke-width:2; stroke-opacity:0.1; fill:none" points="193.936,1356.05 2352.76,1356.05 "/>
<polyline clip-path="url(#clip392)" style="stroke:#000000; stroke-linecap:round; stroke-linejoin:round; stroke-width:2; stroke-opacity:0.1; fill:none" points="193.936,1086.42 2352.76,1086.42 "/>
<polyline clip-path="url(#clip392)" style="stroke:#000000; stroke-linecap:round; stroke-linejoin:round; stroke-width:2; stroke-opacity:0.1; fill:none" points="193.936,816.798 2352.76,816.798 "/>
<polyline clip-path="url(#clip392)" style="stroke:#000000; stroke-linecap:round; stroke-linejoin:round; stroke-width:2; stroke-opacity:0.1; fill:none" points="193.936,547.173 2352.76,547.173 "/>
<polyline clip-path="url(#clip392)" style="stroke:#000000; stroke-linecap:round; stroke-linejoin:round; stroke-width:2; stroke-opacity:0.1; fill:none" points="193.936,277.548 2352.76,277.548 "/>
<polyline clip-path="url(#clip390)" style="stroke:#000000; stroke-linecap:round; stroke-linejoin:round; stroke-width:4; stroke-opacity:1; fill:none" points="193.936,1486.45 2352.76,1486.45 "/>
<polyline clip-path="url(#clip390)" style="stroke:#000000; stroke-linecap:round; stroke-linejoin:round; stroke-width:4; stroke-opacity:1; fill:none" points="255.035,1486.45 255.035,1467.55 "/>
<polyline clip-path="url(#clip390)" style="stroke:#000000; stroke-linecap:round; stroke-linejoin:round; stroke-width:4; stroke-opacity:1; fill:none" points="579.173,1486.45 579.173,1467.55 "/>
<polyline clip-path="url(#clip390)" style="stroke:#000000; stroke-linecap:round; stroke-linejoin:round; stroke-width:4; stroke-opacity:1; fill:none" points="903.312,1486.45 903.312,1467.55 "/>
<polyline clip-path="url(#clip390)" style="stroke:#000000; stroke-linecap:round; stroke-linejoin:round; stroke-width:4; stroke-opacity:1; fill:none" points="1227.45,1486.45 1227.45,1467.55 "/>
<polyline clip-path="url(#clip390)" style="stroke:#000000; stroke-linecap:round; stroke-linejoin:round; stroke-width:4; stroke-opacity:1; fill:none" points="1551.59,1486.45 1551.59,1467.55 "/>
<polyline clip-path="url(#clip390)" style="stroke:#000000; stroke-linecap:round; stroke-linejoin:round; stroke-width:4; stroke-opacity:1; fill:none" points="1875.73,1486.45 1875.73,1467.55 "/>
<polyline clip-path="url(#clip390)" style="stroke:#000000; stroke-linecap:round; stroke-linejoin:round; stroke-width:4; stroke-opacity:1; fill:none" points="2199.87,1486.45 2199.87,1467.55 "/>
<path clip-path="url(#clip390)" d="M255.035 1517.37 Q251.424 1517.37 249.595 1520.93 Q247.789 1524.47 247.789 1531.6 Q247.789 1538.71 249.595 1542.27 Q251.424 1545.82 255.035 1545.82 Q258.669 1545.82 260.474 1542.27 Q262.303 1538.71 262.303 1531.6 Q262.303 1524.47 260.474 1520.93 Q258.669 1517.37 255.035 1517.37 M255.035 1513.66 Q260.845 1513.66 263.9 1518.27 Q266.979 1522.85 266.979 1531.6 Q266.979 1540.33 263.9 1544.94 Q260.845 1549.52 255.035 1549.52 Q249.225 1549.52 246.146 1544.94 Q243.09 1540.33 243.09 1531.6 Q243.09 1522.85 246.146 1518.27 Q249.225 1513.66 255.035 1513.66 Z" fill="#000000" fill-rule="nonzero" fill-opacity="1" /><path clip-path="url(#clip390)" d="M569.555 1544.91 L577.194 1544.91 L577.194 1518.55 L568.884 1520.21 L568.884 1515.95 L577.148 1514.29 L581.824 1514.29 L581.824 1544.91 L589.463 1544.91 L589.463 1548.85 L569.555 1548.85 L569.555 1544.91 Z" fill="#000000" fill-rule="nonzero" fill-opacity="1" /><path clip-path="url(#clip390)" d="M897.965 1544.91 L914.284 1544.91 L914.284 1548.85 L892.34 1548.85 L892.34 1544.91 Q895.002 1542.16 899.585 1537.53 Q904.191 1532.88 905.372 1531.53 Q907.617 1529.01 908.497 1527.27 Q909.4 1525.51 909.4 1523.82 Q909.4 1521.07 907.455 1519.33 Q905.534 1517.6 902.432 1517.6 Q900.233 1517.6 897.779 1518.36 Q895.349 1519.13 892.571 1520.68 L892.571 1515.95 Q895.395 1514.82 897.849 1514.24 Q900.303 1513.66 902.34 1513.66 Q907.71 1513.66 910.904 1516.35 Q914.099 1519.03 914.099 1523.52 Q914.099 1525.65 913.289 1527.57 Q912.502 1529.47 910.395 1532.07 Q909.816 1532.74 906.715 1535.95 Q903.613 1539.15 897.965 1544.91 Z" fill="#000000" fill-rule="nonzero" fill-opacity="1" /><path clip-path="url(#clip390)" d="M1231.7 1530.21 Q1235.05 1530.93 1236.93 1533.2 Q1238.83 1535.47 1238.83 1538.8 Q1238.83 1543.92 1235.31 1546.72 Q1231.79 1549.52 1225.31 1549.52 Q1223.13 1549.52 1220.82 1549.08 Q1218.53 1548.66 1216.07 1547.81 L1216.07 1543.29 Q1218.02 1544.43 1220.33 1545.01 Q1222.65 1545.58 1225.17 1545.58 Q1229.57 1545.58 1231.86 1543.85 Q1234.17 1542.11 1234.17 1538.8 Q1234.17 1535.75 1232.02 1534.03 Q1229.89 1532.3 1226.07 1532.3 L1222.05 1532.3 L1222.05 1528.45 L1226.26 1528.45 Q1229.71 1528.45 1231.54 1527.09 Q1233.36 1525.7 1233.36 1523.11 Q1233.36 1520.45 1231.47 1519.03 Q1229.59 1517.6 1226.07 1517.6 Q1224.15 1517.6 1221.95 1518.01 Q1219.75 1518.43 1217.11 1519.31 L1217.11 1515.14 Q1219.78 1514.4 1222.09 1514.03 Q1224.43 1513.66 1226.49 1513.66 Q1231.81 1513.66 1234.92 1516.09 Q1238.02 1518.5 1238.02 1522.62 Q1238.02 1525.49 1236.37 1527.48 Q1234.73 1529.45 1231.7 1530.21 Z" fill="#000000" fill-rule="nonzero" fill-opacity="1" /><path clip-path="url(#clip390)" d="M1554.6 1518.36 L1542.79 1536.81 L1554.6 1536.81 L1554.6 1518.36 M1553.37 1514.29 L1559.25 1514.29 L1559.25 1536.81 L1564.18 1536.81 L1564.18 1540.7 L1559.25 1540.7 L1559.25 1548.85 L1554.6 1548.85 L1554.6 1540.7 L1539 1540.7 L1539 1536.19 L1553.37 1514.29 Z" fill="#000000" fill-rule="nonzero" fill-opacity="1" /><path clip-path="url(#clip390)" d="M1866.01 1514.29 L1884.36 1514.29 L1884.36 1518.22 L1870.29 1518.22 L1870.29 1526.7 Q1871.31 1526.35 1872.32 1526.19 Q1873.34 1526 1874.36 1526 Q1880.15 1526 1883.53 1529.17 Q1886.91 1532.34 1886.91 1537.76 Q1886.91 1543.34 1883.44 1546.44 Q1879.96 1549.52 1873.64 1549.52 Q1871.47 1549.52 1869.2 1549.15 Q1866.95 1548.78 1864.55 1548.04 L1864.55 1543.34 Q1866.63 1544.47 1868.85 1545.03 Q1871.07 1545.58 1873.55 1545.58 Q1877.56 1545.58 1879.89 1543.48 Q1882.23 1541.37 1882.23 1537.76 Q1882.23 1534.15 1879.89 1532.04 Q1877.56 1529.94 1873.55 1529.94 Q1871.68 1529.94 1869.8 1530.35 Q1867.95 1530.77 1866.01 1531.65 L1866.01 1514.29 Z" fill="#000000" fill-rule="nonzero" fill-opacity="1" /><path clip-path="url(#clip390)" d="M2200.27 1529.7 Q2197.12 1529.7 2195.27 1531.86 Q2193.44 1534.01 2193.44 1537.76 Q2193.44 1541.49 2195.27 1543.66 Q2197.12 1545.82 2200.27 1545.82 Q2203.42 1545.82 2205.25 1543.66 Q2207.1 1541.49 2207.1 1537.76 Q2207.1 1534.01 2205.25 1531.86 Q2203.42 1529.7 2200.27 1529.7 M2209.55 1515.05 L2209.55 1519.31 Q2207.79 1518.48 2205.99 1518.04 Q2204.21 1517.6 2202.45 1517.6 Q2197.82 1517.6 2195.36 1520.72 Q2192.93 1523.85 2192.59 1530.17 Q2193.95 1528.15 2196.01 1527.09 Q2198.07 1526 2200.55 1526 Q2205.76 1526 2208.77 1529.17 Q2211.8 1532.32 2211.8 1537.76 Q2211.8 1543.08 2208.65 1546.3 Q2205.5 1549.52 2200.27 1549.52 Q2194.28 1549.52 2191.1 1544.94 Q2187.93 1540.33 2187.93 1531.6 Q2187.93 1523.41 2191.82 1518.55 Q2195.71 1513.66 2202.26 1513.66 Q2204.02 1513.66 2205.8 1514.01 Q2207.61 1514.36 2209.55 1515.05 Z" fill="#000000" fill-rule="nonzero" fill-opacity="1" /><polyline clip-path="url(#clip390)" style="stroke:#000000; stroke-linecap:round; stroke-linejoin:round; stroke-width:4; stroke-opacity:1; fill:none" points="193.936,1486.45 193.936,47.2441 "/>
<polyline clip-path="url(#clip390)" style="stroke:#000000; stroke-linecap:round; stroke-linejoin:round; stroke-width:4; stroke-opacity:1; fill:none" points="193.936,1356.05 212.834,1356.05 "/>
<polyline clip-path="url(#clip390)" style="stroke:#000000; stroke-linecap:round; stroke-linejoin:round; stroke-width:4; stroke-opacity:1; fill:none" points="193.936,1086.42 212.834,1086.42 "/>
<polyline clip-path="url(#clip390)" style="stroke:#000000; stroke-linecap:round; stroke-linejoin:round; stroke-width:4; stroke-opacity:1; fill:none" points="193.936,816.798 212.834,816.798 "/>
<polyline clip-path="url(#clip390)" style="stroke:#000000; stroke-linecap:round; stroke-linejoin:round; stroke-width:4; stroke-opacity:1; fill:none" points="193.936,547.173 212.834,547.173 "/>
<polyline clip-path="url(#clip390)" style="stroke:#000000; stroke-linecap:round; stroke-linejoin:round; stroke-width:4; stroke-opacity:1; fill:none" points="193.936,277.548 212.834,277.548 "/>
<path clip-path="url(#clip390)" d="M50.9921 1356.5 L80.6679 1356.5 L80.6679 1360.44 L50.9921 1360.44 L50.9921 1356.5 Z" fill="#000000" fill-rule="nonzero" fill-opacity="1" /><path clip-path="url(#clip390)" d="M91.5706 1369.39 L99.2095 1369.39 L99.2095 1343.03 L90.8993 1344.69 L90.8993 1340.44 L99.1632 1338.77 L103.839 1338.77 L103.839 1369.39 L111.478 1369.39 L111.478 1373.33 L91.5706 1373.33 L91.5706 1369.39 Z" fill="#000000" fill-rule="nonzero" fill-opacity="1" /><path clip-path="url(#clip390)" d="M120.922 1367.45 L125.807 1367.45 L125.807 1373.33 L120.922 1373.33 L120.922 1367.45 Z" fill="#000000" fill-rule="nonzero" fill-opacity="1" /><path clip-path="url(#clip390)" d="M145.992 1341.85 Q142.381 1341.85 140.552 1345.41 Q138.746 1348.95 138.746 1356.08 Q138.746 1363.19 140.552 1366.75 Q142.381 1370.3 145.992 1370.3 Q149.626 1370.3 151.431 1366.75 Q153.26 1363.19 153.26 1356.08 Q153.26 1348.95 151.431 1345.41 Q149.626 1341.85 145.992 1341.85 M145.992 1338.14 Q151.802 1338.14 154.857 1342.75 Q157.936 1347.33 157.936 1356.08 Q157.936 1364.81 154.857 1369.42 Q151.802 1374 145.992 1374 Q140.181 1374 137.103 1369.42 Q134.047 1364.81 134.047 1356.08 Q134.047 1347.33 137.103 1342.75 Q140.181 1338.14 145.992 1338.14 Z" fill="#000000" fill-rule="nonzero" fill-opacity="1" /><path clip-path="url(#clip390)" d="M51.9875 1086.87 L81.6633 1086.87 L81.6633 1090.81 L51.9875 1090.81 L51.9875 1086.87 Z" fill="#000000" fill-rule="nonzero" fill-opacity="1" /><path clip-path="url(#clip390)" d="M101.756 1072.22 Q98.1447 1072.22 96.316 1075.79 Q94.5104 1079.33 94.5104 1086.46 Q94.5104 1093.56 96.316 1097.13 Q98.1447 1100.67 101.756 1100.67 Q105.39 1100.67 107.196 1097.13 Q109.024 1093.56 109.024 1086.46 Q109.024 1079.33 107.196 1075.79 Q105.39 1072.22 101.756 1072.22 M101.756 1068.52 Q107.566 1068.52 110.621 1073.12 Q113.7 1077.71 113.7 1086.46 Q113.7 1095.19 110.621 1099.79 Q107.566 1104.37 101.756 1104.37 Q95.9456 1104.37 92.8669 1099.79 Q89.8114 1095.19 89.8114 1086.46 Q89.8114 1077.71 92.8669 1073.12 Q95.9456 1068.52 101.756 1068.52 Z" fill="#000000" fill-rule="nonzero" fill-opacity="1" /><path clip-path="url(#clip390)" d="M121.918 1097.82 L126.802 1097.82 L126.802 1103.7 L121.918 1103.7 L121.918 1097.82 Z" fill="#000000" fill-rule="nonzero" fill-opacity="1" /><path clip-path="url(#clip390)" d="M137.033 1069.14 L155.39 1069.14 L155.39 1073.08 L141.316 1073.08 L141.316 1081.55 Q142.334 1081.2 143.353 1081.04 Q144.371 1080.86 145.39 1080.86 Q151.177 1080.86 154.556 1084.03 Q157.936 1087.2 157.936 1092.62 Q157.936 1098.19 154.464 1101.3 Q150.992 1104.37 144.672 1104.37 Q142.496 1104.37 140.228 1104 Q137.982 1103.63 135.575 1102.89 L135.575 1098.19 Q137.658 1099.33 139.881 1099.88 Q142.103 1100.44 144.58 1100.44 Q148.584 1100.44 150.922 1098.33 Q153.26 1096.23 153.26 1092.62 Q153.26 1089 150.922 1086.9 Q148.584 1084.79 144.58 1084.79 Q142.705 1084.79 140.83 1085.21 Q138.978 1085.62 137.033 1086.5 L137.033 1069.14 Z" fill="#000000" fill-rule="nonzero" fill-opacity="1" /><path clip-path="url(#clip390)" d="M100.76 802.597 Q97.1493 802.597 95.3206 806.162 Q93.515 809.703 93.515 816.833 Q93.515 823.939 95.3206 827.504 Q97.1493 831.046 100.76 831.046 Q104.395 831.046 106.2 827.504 Q108.029 823.939 108.029 816.833 Q108.029 809.703 106.2 806.162 Q104.395 802.597 100.76 802.597 M100.76 798.893 Q106.571 798.893 109.626 803.5 Q112.705 808.083 112.705 816.833 Q112.705 825.56 109.626 830.166 Q106.571 834.75 100.76 834.75 Q94.9502 834.75 91.8715 830.166 Q88.816 825.56 88.816 816.833 Q88.816 808.083 91.8715 803.5 Q94.9502 798.893 100.76 798.893 Z" fill="#000000" fill-rule="nonzero" fill-opacity="1" /><path clip-path="url(#clip390)" d="M120.922 828.199 L125.807 828.199 L125.807 834.078 L120.922 834.078 L120.922 828.199 Z" fill="#000000" fill-rule="nonzero" fill-opacity="1" /><path clip-path="url(#clip390)" d="M145.992 802.597 Q142.381 802.597 140.552 806.162 Q138.746 809.703 138.746 816.833 Q138.746 823.939 140.552 827.504 Q142.381 831.046 145.992 831.046 Q149.626 831.046 151.431 827.504 Q153.26 823.939 153.26 816.833 Q153.26 809.703 151.431 806.162 Q149.626 802.597 145.992 802.597 M145.992 798.893 Q151.802 798.893 154.857 803.5 Q157.936 808.083 157.936 816.833 Q157.936 825.56 154.857 830.166 Q151.802 834.75 145.992 834.75 Q140.181 834.75 137.103 830.166 Q134.047 825.56 134.047 816.833 Q134.047 808.083 137.103 803.5 Q140.181 798.893 145.992 798.893 Z" fill="#000000" fill-rule="nonzero" fill-opacity="1" /><path clip-path="url(#clip390)" d="M101.756 532.972 Q98.1447 532.972 96.316 536.537 Q94.5104 540.078 94.5104 547.208 Q94.5104 554.314 96.316 557.879 Q98.1447 561.421 101.756 561.421 Q105.39 561.421 107.196 557.879 Q109.024 554.314 109.024 547.208 Q109.024 540.078 107.196 536.537 Q105.39 532.972 101.756 532.972 M101.756 529.268 Q107.566 529.268 110.621 533.875 Q113.7 538.458 113.7 547.208 Q113.7 555.935 110.621 560.541 Q107.566 565.124 101.756 565.124 Q95.9456 565.124 92.8669 560.541 Q89.8114 555.935 89.8114 547.208 Q89.8114 538.458 92.8669 533.875 Q95.9456 529.268 101.756 529.268 Z" fill="#000000" fill-rule="nonzero" fill-opacity="1" /><path clip-path="url(#clip390)" d="M121.918 558.573 L126.802 558.573 L126.802 564.453 L121.918 564.453 L121.918 558.573 Z" fill="#000000" fill-rule="nonzero" fill-opacity="1" /><path clip-path="url(#clip390)" d="M137.033 529.893 L155.39 529.893 L155.39 533.828 L141.316 533.828 L141.316 542.3 Q142.334 541.953 143.353 541.791 Q144.371 541.606 145.39 541.606 Q151.177 541.606 154.556 544.777 Q157.936 547.948 157.936 553.365 Q157.936 558.944 154.464 562.046 Q150.992 565.124 144.672 565.124 Q142.496 565.124 140.228 564.754 Q137.982 564.384 135.575 563.643 L135.575 558.944 Q137.658 560.078 139.881 560.634 Q142.103 561.189 144.58 561.189 Q148.584 561.189 150.922 559.083 Q153.26 556.976 153.26 553.365 Q153.26 549.754 150.922 547.648 Q148.584 545.541 144.58 545.541 Q142.705 545.541 140.83 545.958 Q138.978 546.374 137.033 547.254 L137.033 529.893 Z" fill="#000000" fill-rule="nonzero" fill-opacity="1" /><path clip-path="url(#clip390)" d="M91.5706 290.893 L99.2095 290.893 L99.2095 264.527 L90.8993 266.194 L90.8993 261.934 L99.1632 260.268 L103.839 260.268 L103.839 290.893 L111.478 290.893 L111.478 294.828 L91.5706 294.828 L91.5706 290.893 Z" fill="#000000" fill-rule="nonzero" fill-opacity="1" /><path clip-path="url(#clip390)" d="M120.922 288.948 L125.807 288.948 L125.807 294.828 L120.922 294.828 L120.922 288.948 Z" fill="#000000" fill-rule="nonzero" fill-opacity="1" /><path clip-path="url(#clip390)" d="M145.992 263.346 Q142.381 263.346 140.552 266.911 Q138.746 270.453 138.746 277.583 Q138.746 284.689 140.552 288.254 Q142.381 291.795 145.992 291.795 Q149.626 291.795 151.431 288.254 Q153.26 284.689 153.26 277.583 Q153.26 270.453 151.431 266.911 Q149.626 263.346 145.992 263.346 M145.992 259.643 Q151.802 259.643 154.857 264.249 Q157.936 268.833 157.936 277.583 Q157.936 286.309 154.857 290.916 Q151.802 295.499 145.992 295.499 Q140.181 295.499 137.103 290.916 Q134.047 286.309 134.047 277.583 Q134.047 268.833 137.103 264.249 Q140.181 259.643 145.992 259.643 Z" fill="#000000" fill-rule="nonzero" fill-opacity="1" /><polyline clip-path="url(#clip392)" style="stroke:#009af9; stroke-linecap:round; stroke-linejoin:round; stroke-width:4; stroke-opacity:1; fill:none" points="255.035,816.798 258.276,811.406 261.517,806.014 264.759,800.623 268,795.234 271.242,789.847 274.483,784.463 277.724,779.082 280.966,773.704 284.207,768.331 287.449,762.963 290.69,757.6 293.931,752.243 297.173,746.893 300.414,741.55 303.655,736.214 306.897,730.886 310.138,725.567 313.38,720.256 316.621,714.956 319.862,709.666 323.104,704.386 326.345,699.118 329.587,693.861 332.828,688.617 336.069,683.386 339.311,678.167 342.552,672.963 345.793,667.773 349.035,662.598 352.276,657.439 355.518,652.295 358.759,647.168 362,642.058 365.242,636.965 368.483,631.89 371.725,626.834 374.966,621.797 378.207,616.779 381.449,611.781 384.69,606.804 387.931,601.848 391.173,596.913 394.414,592.001 397.656,587.11 400.897,582.243 404.138,577.399 407.38,572.579 410.621,567.784 413.863,563.013 417.104,558.268 420.345,553.548 423.587,548.855 426.828,544.189 430.069,539.55 433.311,534.939 436.552,530.356 439.794,525.801 443.035,521.276 446.276,516.78 449.518,512.315 452.759,507.879 456.001,503.475 459.242,499.102 462.483,494.76 465.725,490.451 468.966,486.175 472.208,481.931 475.449,477.721 478.69,473.545 481.932,469.404 485.173,465.297 488.414,461.225 491.656,457.189 494.897,453.188 498.139,449.224 501.38,445.297 504.621,441.407 507.863,437.555 511.104,433.74 514.346,429.964 517.587,426.226 520.828,422.528 524.07,418.868 527.311,415.249 530.552,411.67 533.794,408.131 537.035,404.634 540.277,401.177 543.518,397.762 546.759,394.389 550.001,391.058 553.242,387.77 556.484,384.524 559.725,381.322 562.966,378.164 566.208,375.049 569.449,371.978 572.69,368.952 575.932,365.971 579.173,363.035 582.415,360.144 585.656,357.299 588.897,354.499 592.139,351.746 595.38,349.04 598.622,346.38 601.863,343.767 605.104,341.202 608.346,338.684 611.587,336.214 614.828,333.792 618.07,331.419 621.311,329.094 624.553,326.817 627.794,324.59 631.035,322.412 634.277,320.283 637.518,318.204 640.76,316.175 644.001,314.196 647.242,312.267 650.484,310.389 653.725,308.561 656.966,306.784 660.208,305.058 663.449,303.383 666.691,301.76 669.932,300.188 673.173,298.668 676.415,297.199 679.656,295.783 682.898,294.418 686.139,293.106 689.38,291.846 692.622,290.639 695.863,289.484 699.104,288.382 702.346,287.333 705.587,286.337 708.829,285.394 712.07,284.504 715.311,283.667 718.553,282.884 721.794,282.154 725.036,281.477 728.277,280.854 731.518,280.285 734.76,279.769 738.001,279.307 741.242,278.899 744.484,278.544 747.725,278.243 750.967,277.996 754.208,277.803 757.449,277.664 760.691,277.579 763.932,277.548 767.174,277.571 770.415,277.647 773.656,277.778 776.898,277.962 780.139,278.2 783.381,278.493 786.622,278.839 789.863,279.238 793.105,279.692 796.346,280.199 799.587,280.76 802.829,281.375 806.07,282.043 809.312,282.764 812.553,283.539 815.794,284.367 819.036,285.249 822.277,286.183 825.519,287.171 828.76,288.212 832.001,289.305 835.243,290.452 838.484,291.65 841.725,292.902 844.967,294.206 848.208,295.562 851.45,296.97 854.691,298.43 857.932,299.942 861.174,301.506 864.415,303.121 867.657,304.788 870.898,306.506 874.139,308.274 877.381,310.094 880.622,311.964 883.863,313.885 887.105,315.856 890.346,317.878 893.588,319.949 896.829,322.069 900.07,324.24 903.312,326.459 906.553,328.728 909.795,331.045 913.036,333.411 916.277,335.825 919.519,338.288 922.76,340.798 926.001,343.356 929.243,345.961 932.484,348.613 935.726,351.312 938.967,354.058 942.208,356.85 945.45,359.688 948.691,362.571 951.933,365.5 955.174,368.474 958.415,371.493 961.657,374.557 964.898,377.665 968.139,380.816 971.381,384.011 974.622,387.25 977.864,390.531 981.105,393.856 984.346,397.222 987.588,400.63 990.829,404.08 994.071,407.571 997.312,411.104 1000.55,414.676 1003.79,418.289 1007.04,421.942 1010.28,425.634 1013.52,429.366 1016.76,433.136 1020,436.944 1023.24,440.791 1026.48,444.675 1029.73,448.596 1032.97,452.554 1036.21,456.549 1039.45,460.58 1042.69,464.646 1045.93,468.747 1049.17,472.883 1052.42,477.054 1055.66,481.259 1058.9,485.497 1062.14,489.768 1065.38,494.072 1068.62,498.408 1071.86,502.776 1075.11,507.176 1078.35,511.606 1081.59,516.067 1084.83,520.558 1088.07,525.079 1091.31,529.629 1094.55,534.207 1097.79,538.814 1101.04,543.449 1104.28,548.11 1107.52,552.799 1110.76,557.514 1114,562.256 1117.24,567.022 1120.48,571.814 1123.73,576.63 1126.97,581.47 1130.21,586.333 1133.45,591.22 1136.69,596.129 1139.93,601.061 1143.17,606.013 1146.42,610.987 1149.66,615.982 1152.9,620.997 1156.14,626.031 1159.38,631.084 1162.62,636.156 1165.86,641.246 1169.11,646.353 1172.35,651.478 1175.59,656.619 1178.83,661.776 1182.07,666.948 1185.31,672.136 1188.55,677.338 1191.8,682.554 1195.04,687.783 1198.28,693.025 1201.52,698.28 1204.76,703.546 1208,708.824 1211.24,714.113 1214.48,719.412 1217.73,724.72 1220.97,730.038 1224.21,735.365 1227.45,740.699 1230.69,746.042 1233.93,751.391 1237.17,756.747 1240.42,762.109 1243.66,767.476 1246.9,772.848 1250.14,778.225 1253.38,783.605 1256.62,788.989 1259.86,794.376 1263.11,799.765 1266.35,805.155 1269.59,810.547 1272.83,815.939 1276.07,821.332 1279.31,826.724 1282.55,832.115 1285.8,837.504 1289.04,842.892 1292.28,848.277 1295.52,853.658 1298.76,859.036 1302,864.41 1305.24,869.779 1308.48,875.143 1311.73,880.5 1314.97,885.852 1318.21,891.196 1321.45,896.534 1324.69,901.863 1327.93,907.183 1331.17,912.495 1334.42,917.797 1337.66,923.089 1340.9,928.37 1344.14,933.64 1347.38,938.899 1350.62,944.145 1353.86,949.379 1357.11,954.599 1360.35,959.805 1363.59,964.998 1366.83,970.175 1370.07,975.337 1373.31,980.483 1376.55,985.613 1379.8,990.726 1383.04,995.821 1386.28,1000.9 1389.52,1005.96 1392.76,1011 1396,1016.02 1399.24,1021.02 1402.49,1026 1405.73,1030.96 1408.97,1035.9 1412.21,1040.82 1415.45,1045.71 1418.69,1050.58 1421.93,1055.43 1425.17,1060.25 1428.42,1065.05 1431.66,1069.83 1434.9,1074.57 1438.14,1079.3 1441.38,1084 1444.62,1088.67 1447.86,1093.31 1451.11,1097.93 1454.35,1102.51 1457.59,1107.07 1460.83,1111.6 1464.07,1116.1 1467.31,1120.57 1470.55,1125.01 1473.8,1129.42 1477.04,1133.8 1480.28,1138.15 1483.52,1142.46 1486.76,1146.74 1490,1150.99 1493.24,1155.21 1496.49,1159.39 1499.73,1163.54 1502.97,1167.65 1506.21,1171.73 1509.45,1175.77 1512.69,1179.77 1515.93,1183.74 1519.18,1187.68 1522.42,1191.57 1525.66,1195.43 1528.9,1199.25 1532.14,1203.03 1535.38,1206.78 1538.62,1210.48 1541.86,1214.15 1545.11,1217.77 1548.35,1221.36 1551.59,1224.9 1554.83,1228.41 1558.07,1231.87 1561.31,1235.29 1564.55,1238.67 1567.8,1242.01 1571.04,1245.31 1574.28,1248.56 1577.52,1251.77 1580.76,1254.93 1584,1258.05 1587.24,1261.13 1590.49,1264.17 1593.73,1267.15 1596.97,1270.1 1600.21,1273 1603.45,1275.85 1606.69,1278.65 1609.93,1281.41 1613.18,1284.13 1616.42,1286.8 1619.66,1289.42 1622.9,1291.99 1626.14,1294.51 1629.38,1296.99 1632.62,1299.42 1635.86,1301.8 1639.11,1304.14 1642.35,1306.42 1645.59,1308.66 1648.83,1310.84 1652.07,1312.98 1655.31,1315.06 1658.55,1317.1 1661.8,1319.09 1665.04,1321.03 1668.28,1322.91 1671.52,1324.75 1674.76,1326.53 1678,1328.27 1681.24,1329.95 1684.49,1331.58 1687.73,1333.16 1690.97,1334.69 1694.21,1336.17 1697.45,1337.59 1700.69,1338.96 1703.93,1340.29 1707.18,1341.55 1710.42,1342.77 1713.66,1343.93 1716.9,1345.04 1720.14,1346.1 1723.38,1347.1 1726.62,1348.06 1729.87,1348.95 1733.11,1349.8 1736.35,1350.59 1739.59,1351.33 1742.83,1352.02 1746.07,1352.65 1749.31,1353.22 1752.55,1353.75 1755.8,1354.22 1759.04,1354.64 1762.28,1355 1765.52,1355.31 1768.76,1355.56 1772,1355.77 1775.24,1355.91 1778.49,1356.01 1781.73,1356.05 1784.97,1356.03 1788.21,1355.97 1791.45,1355.84 1794.69,1355.67 1797.93,1355.44 1801.18,1355.15 1804.42,1354.82 1807.66,1354.43 1810.9,1353.98 1814.14,1353.48 1817.38,1352.93 1820.62,1352.32 1823.87,1351.66 1827.11,1350.95 1830.35,1350.18 1833.59,1349.36 1836.83,1348.49 1840.07,1347.57 1843.31,1346.59 1846.55,1345.55 1849.8,1344.47 1853.04,1343.33 1856.28,1342.14 1859.52,1340.9 1862.76,1339.6 1866,1338.25 1869.24,1336.85 1872.49,1335.4 1875.73,1333.9 1878.97,1332.34 1882.21,1330.74 1885.45,1329.08 1888.69,1327.37 1891.93,1325.61 1895.18,1323.8 1898.42,1321.93 1901.66,1320.02 1904.9,1318.06 1908.14,1316.04 1911.38,1313.98 1914.62,1311.87 1917.87,1309.71 1921.11,1307.49 1924.35,1305.23 1927.59,1302.92 1930.83,1300.57 1934.07,1298.16 1937.31,1295.7 1940.56,1293.2 1943.8,1290.65 1947.04,1288.05 1950.28,1285.41 1953.52,1282.72 1956.76,1279.98 1960,1277.19 1963.24,1274.36 1966.49,1271.49 1969.73,1268.57 1972.97,1265.6 1976.21,1262.59 1979.45,1259.53 1982.69,1256.43 1985.93,1253.29 1989.18,1250.1 1992.42,1246.87 1995.66,1243.59 1998.9,1240.27 2002.14,1236.91 2005.38,1233.51 2008.62,1230.07 2011.87,1226.58 2015.11,1223.06 2018.35,1219.49 2021.59,1215.89 2024.83,1212.24 2028.07,1208.55 2031.31,1204.83 2034.56,1201.06 2037.8,1197.26 2041.04,1193.42 2044.28,1189.54 2047.52,1185.63 2050.76,1181.67 2054,1177.69 2057.24,1173.66 2060.49,1169.6 2063.73,1165.5 2066.97,1161.37 2070.21,1157.21 2073.45,1153.01 2076.69,1148.78 2079.93,1144.51 2083.18,1140.21 2086.42,1135.88 2089.66,1131.52 2092.9,1127.12 2096.14,1122.7 2099.38,1118.24 2102.62,1113.76 2105.87,1109.24 2109.11,1104.69 2112.35,1100.12 2115.59,1095.52 2118.83,1090.89 2122.07,1086.23 2125.31,1081.55 2128.56,1076.83 2131.8,1072.1 2135.04,1067.34 2138.28,1062.55 2141.52,1057.74 2144.76,1052.9 2148,1048.04 2151.25,1043.16 2154.49,1038.25 2157.73,1033.32 2160.97,1028.37 2164.21,1023.4 2167.45,1018.41 2170.69,1013.4 2173.93,1008.37 2177.18,1003.32 2180.42,998.25 2183.66,993.163 2186.9,988.058 2190.14,982.936 2193.38,977.798 2196.62,972.643 2199.87,967.473 2203.11,962.288 2206.35,957.088 2209.59,951.875 2212.83,946.647 2216.07,941.407 2219.31,936.154 2222.56,930.89 2225.8,925.614 2229.04,920.327 2232.28,915.029 2235.52,909.722 2238.76,904.406 2242,899.081 2245.25,893.747 2248.49,888.406 2251.73,883.058 2254.97,877.703 2258.21,872.342 2261.45,866.976 2264.69,861.604 2267.94,856.228 2271.18,850.848 2274.42,845.465 2277.66,840.079 2280.9,834.69 2284.14,829.3 2287.38,823.908 2290.62,818.516 "/>
<circle clip-path="url(#clip392)" cx="1875.73" cy="1296.94" r="14.4" fill="#e26f46" fill-rule="evenodd" fill-opacity="1" stroke="#000000" stroke-opacity="1" stroke-width="3.2"/>
<circle clip-path="url(#clip392)" cx="582.415" cy="357.275" r="14.4" fill="#e26f46" fill-rule="evenodd" fill-opacity="1" stroke="#000000" stroke-opacity="1" stroke-width="3.2"/>
<circle clip-path="url(#clip392)" cx="1960" cy="1281.01" r="14.4" fill="#e26f46" fill-rule="evenodd" fill-opacity="1" stroke="#000000" stroke-opacity="1" stroke-width="3.2"/>
<circle clip-path="url(#clip392)" cx="1830.35" cy="1275.86" r="14.4" fill="#e26f46" fill-rule="evenodd" fill-opacity="1" stroke="#000000" stroke-opacity="1" stroke-width="3.2"/>
<circle clip-path="url(#clip392)" cx="1606.69" cy="1154.79" r="14.4" fill="#e26f46" fill-rule="evenodd" fill-opacity="1" stroke="#000000" stroke-opacity="1" stroke-width="3.2"/>
<circle clip-path="url(#clip392)" cx="2151.25" cy="1145.24" r="14.4" fill="#e26f46" fill-rule="evenodd" fill-opacity="1" stroke="#000000" stroke-opacity="1" stroke-width="3.2"/>
<circle clip-path="url(#clip392)" cx="1609.93" cy="1226.3" r="14.4" fill="#e26f46" fill-rule="evenodd" fill-opacity="1" stroke="#000000" stroke-opacity="1" stroke-width="3.2"/>
<circle clip-path="url(#clip392)" cx="488.414" cy="473.49" r="14.4" fill="#e26f46" fill-rule="evenodd" fill-opacity="1" stroke="#000000" stroke-opacity="1" stroke-width="3.2"/>
<circle clip-path="url(#clip392)" cx="475.449" cy="436.142" r="14.4" fill="#e26f46" fill-rule="evenodd" fill-opacity="1" stroke="#000000" stroke-opacity="1" stroke-width="3.2"/>
<circle clip-path="url(#clip392)" cx="1165.86" cy="539.481" r="14.4" fill="#e26f46" fill-rule="evenodd" fill-opacity="1" stroke="#000000" stroke-opacity="1" stroke-width="3.2"/>
<circle clip-path="url(#clip392)" cx="1794.69" cy="1252.1" r="14.4" fill="#e26f46" fill-rule="evenodd" fill-opacity="1" stroke="#000000" stroke-opacity="1" stroke-width="3.2"/>
<circle clip-path="url(#clip392)" cx="2199.87" cy="935.471" r="14.4" fill="#e26f46" fill-rule="evenodd" fill-opacity="1" stroke="#000000" stroke-opacity="1" stroke-width="3.2"/>
<circle clip-path="url(#clip392)" cx="1541.86" cy="1233.81" r="14.4" fill="#e26f46" fill-rule="evenodd" fill-opacity="1" stroke="#000000" stroke-opacity="1" stroke-width="3.2"/>
<circle clip-path="url(#clip392)" cx="2212.83" cy="878.735" r="14.4" fill="#e26f46" fill-rule="evenodd" fill-opacity="1" stroke="#000000" stroke-opacity="1" stroke-width="3.2"/>
<circle clip-path="url(#clip392)" cx="1331.17" cy="853.294" r="14.4" fill="#e26f46" fill-rule="evenodd" fill-opacity="1" stroke="#000000" stroke-opacity="1" stroke-width="3.2"/>
<circle clip-path="url(#clip392)" cx="1898.42" cy="1331.58" r="14.4" fill="#e26f46" fill-rule="evenodd" fill-opacity="1" stroke="#000000" stroke-opacity="1" stroke-width="3.2"/>
<circle clip-path="url(#clip392)" cx="1506.21" cy="1231.25" r="14.4" fill="#e26f46" fill-rule="evenodd" fill-opacity="1" stroke="#000000" stroke-opacity="1" stroke-width="3.2"/>
<circle clip-path="url(#clip392)" cx="417.104" cy="550.889" r="14.4" fill="#e26f46" fill-rule="evenodd" fill-opacity="1" stroke="#000000" stroke-opacity="1" stroke-width="3.2"/>
<circle clip-path="url(#clip392)" cx="994.071" cy="376.146" r="14.4" fill="#e26f46" fill-rule="evenodd" fill-opacity="1" stroke="#000000" stroke-opacity="1" stroke-width="3.2"/>
<circle clip-path="url(#clip392)" cx="1272.83" cy="763.185" r="14.4" fill="#e26f46" fill-rule="evenodd" fill-opacity="1" stroke="#000000" stroke-opacity="1" stroke-width="3.2"/>
<path clip-path="url(#clip392)" d="M255.035 1035.61 L258.276 1030.69 L261.517 1025.71 L264.759 1020.68 L268 1015.58 L271.242 1010.42 L274.483 1005.2 L277.724 999.921 L280.966 994.581 L284.207 989.182 L287.449 983.723 L290.69 978.205 L293.931 972.628 L297.173 966.994 L300.414 961.302 L303.655 955.554 L306.897 949.751 L310.138 943.893 L313.38 937.982 L316.621 932.019 L319.862 926.005 L323.104 919.942 L326.345 913.831 L329.587 907.675 L332.828 901.475 L336.069 895.234 L339.311 888.954 L342.552 882.637 L345.793 876.286 L349.035 869.905 L352.276 863.497 L355.518 857.065 L358.759 850.613 L362 844.146 L365.242 837.667 L368.483 831.183 L371.725 824.697 L374.966 818.215 L378.207 811.744 L381.449 805.289 L384.69 798.858 L387.931 792.458 L391.173 786.097 L394.414 779.782 L397.656 773.523 L400.897 767.329 L404.138 761.208 L407.38 755.172 L410.621 749.231 L413.863 743.396 L417.104 737.678 L420.345 732.088 L423.587 726.628 L426.828 721.301 L430.069 716.111 L433.311 711.059 L436.552 706.151 L439.794 701.39 L443.035 696.78 L446.276 692.326 L449.518 688.035 L452.759 683.912 L456.001 679.964 L459.242 676.199 L462.483 672.623 L465.725 669.246 L468.966 666.075 L472.208 663.119 L475.449 660.386 L478.69 657.884 L481.932 655.612 L485.173 653.566 L488.414 651.743 L491.656 650.138 L494.897 648.74 L498.139 647.538 L501.38 646.519 L504.621 645.671 L507.863 644.985 L511.104 644.449 L514.346 644.054 L517.587 643.792 L520.828 643.655 L524.07 643.636 L527.311 643.731 L530.552 643.933 L533.794 644.24 L537.035 644.648 L540.277 645.155 L543.518 645.76 L546.759 646.463 L550.001 647.264 L553.242 648.164 L556.484 649.166 L559.725 650.272 L562.966 651.485 L566.208 652.808 L569.449 654.246 L572.69 655.803 L575.932 657.485 L579.173 659.295 L582.415 661.24 L585.656 663.322 L588.897 665.535 L592.139 667.866 L595.38 670.308 L598.622 672.85 L601.863 675.483 L605.104 678.197 L608.346 680.985 L611.587 683.836 L614.828 686.744 L618.07 689.7 L621.311 692.697 L624.553 695.727 L627.794 698.784 L631.035 701.861 L634.277 704.951 L637.518 708.049 L640.76 711.15 L644.001 714.247 L647.242 717.335 L650.484 720.41 L653.725 723.467 L656.966 726.502 L660.208 729.51 L663.449 732.488 L666.691 735.431 L669.932 738.337 L673.173 741.201 L676.415 744.021 L679.656 746.794 L682.898 749.517 L686.139 752.187 L689.38 754.802 L692.622 757.36 L695.863 759.857 L699.104 762.293 L702.346 764.665 L705.587 766.971 L708.829 769.21 L712.07 771.379 L715.311 773.478 L718.553 775.505 L721.794 777.459 L725.036 779.338 L728.277 781.141 L731.518 782.868 L734.76 784.516 L738.001 786.087 L741.242 787.578 L744.484 788.988 L747.725 790.318 L750.967 791.567 L754.208 792.733 L757.449 793.817 L760.691 794.819 L763.932 795.737 L767.174 796.572 L770.415 797.323 L773.656 797.991 L776.898 798.575 L780.139 799.075 L783.381 799.491 L786.622 799.824 L789.863 800.073 L793.105 800.24 L796.346 800.323 L799.587 800.324 L802.829 800.242 L806.07 800.079 L809.312 799.835 L812.553 799.511 L815.794 799.107 L819.036 798.624 L822.277 798.062 L825.519 797.423 L828.76 796.709 L832.001 795.918 L835.243 795.054 L838.484 794.117 L841.725 793.108 L844.967 792.029 L848.208 790.881 L851.45 789.667 L854.691 788.387 L857.932 787.043 L861.174 785.637 L864.415 784.172 L867.657 782.649 L870.898 781.071 L874.139 779.44 L877.381 777.758 L880.622 776.029 L883.863 774.254 L887.105 772.438 L890.346 770.582 L893.588 768.691 L896.829 766.768 L900.07 764.817 L903.312 762.84 L906.553 760.843 L909.795 758.83 L913.036 756.804 L916.277 754.771 L919.519 752.736 L922.76 750.704 L926.001 748.679 L929.243 746.668 L932.484 744.677 L935.726 742.711 L938.967 740.777 L942.208 738.882 L945.45 737.033 L948.691 735.236 L951.933 733.5 L955.174 731.832 L958.415 730.24 L961.657 728.732 L964.898 727.317 L968.139 726.004 L971.381 724.801 L974.622 723.718 L977.864 722.763 L981.105 721.947 L984.346 721.278 L987.588 720.766 L990.829 720.421 L994.071 720.251 L997.312 720.264 L1000.55 720.452 L1003.79 720.808 L1007.04 721.323 L1010.28 721.986 L1013.52 722.789 L1016.76 723.723 L1020 724.78 L1023.24 725.95 L1026.48 727.225 L1029.73 728.598 L1032.97 730.058 L1036.21 731.601 L1039.45 733.216 L1042.69 734.899 L1045.93 736.642 L1049.17 738.439 L1052.42 740.284 L1055.66 742.171 L1058.9 744.096 L1062.14 746.054 L1065.38 748.041 L1068.62 750.052 L1071.86 752.085 L1075.11 754.137 L1078.35 756.204 L1081.59 758.286 L1084.83 760.379 L1088.07 762.484 L1091.31 764.6 L1094.55 766.725 L1097.79 768.86 L1101.04 771.006 L1104.28 773.164 L1107.52 775.334 L1110.76 777.519 L1114 779.722 L1117.24 781.943 L1120.48 784.188 L1123.73 786.459 L1126.97 788.76 L1130.21 791.095 L1133.45 793.47 L1136.69 795.889 L1139.93 798.358 L1143.17 800.882 L1146.42 803.469 L1149.66 806.124 L1152.9 808.854 L1156.14 811.667 L1159.38 814.569 L1162.62 817.568 L1165.86 820.672 L1169.11 823.887 L1172.35 827.206 L1175.59 830.625 L1178.83 834.135 L1182.07 837.732 L1185.31 841.407 L1188.55 845.157 L1191.8 848.973 L1195.04 852.853 L1198.28 856.79 L1201.52 860.78 L1204.76 864.82 L1208 868.905 L1211.24 873.033 L1214.48 877.2 L1217.73 881.406 L1220.97 885.648 L1224.21 889.926 L1227.45 894.239 L1230.69 898.588 L1233.93 902.973 L1237.17 907.396 L1240.42 911.858 L1243.66 916.362 L1246.9 920.91 L1250.14 925.508 L1253.38 930.157 L1256.62 934.864 L1259.86 939.632 L1263.11 944.468 L1266.35 949.376 L1269.59 954.362 L1272.83 959.434 L1276.07 964.595 L1279.31 969.843 L1282.55 975.175 L1285.8 980.587 L1289.04 986.076 L1292.28 991.639 L1295.52 997.273 L1298.76 1002.98 L1302 1008.74 L1305.24 1014.58 L1308.48 1020.47 L1311.73 1026.43 L1314.97 1032.45 L1318.21 1038.53 L1321.45 1044.67 L1324.69 1050.87 L1327.93 1057.12 L1331.17 1063.44 L1334.42 1069.81 L1337.66 1076.24 L1340.9 1082.7 L1344.14 1089.19 L1347.38 1095.69 L1350.62 1102.21 L1353.86 1108.72 L1357.11 1115.22 L1360.35 1121.7 L1363.59 1128.15 L1366.83 1134.56 L1370.07 1140.92 L1373.31 1147.24 L1376.55 1153.49 L1379.8 1159.67 L1383.04 1165.78 L1386.28 1171.81 L1389.52 1177.76 L1392.76 1183.61 L1396 1189.37 L1399.24 1195.03 L1402.49 1200.58 L1405.73 1206.02 L1408.97 1211.36 L1412.21 1216.57 L1415.45 1221.67 L1418.69 1226.65 L1421.93 1231.51 L1425.17 1236.24 L1428.42 1240.84 L1431.66 1245.32 L1434.9 1249.67 L1438.14 1253.89 L1441.38 1257.97 L1444.62 1261.93 L1447.86 1265.76 L1451.11 1269.46 L1454.35 1273.04 L1457.59 1276.49 L1460.83 1279.81 L1464.07 1283.01 L1467.31 1286.09 L1470.55 1289.06 L1473.8 1291.92 L1477.04 1294.66 L1480.28 1297.3 L1483.52 1299.84 L1486.76 1302.29 L1490 1304.65 L1493.24 1306.92 L1496.49 1309.12 L1499.73 1311.25 L1502.97 1313.31 L1506.21 1315.33 L1509.45 1317.29 L1512.69 1319.2 L1515.93 1321.08 L1519.18 1322.92 L1522.42 1324.72 L1525.66 1326.49 L1528.9 1328.24 L1532.14 1329.97 L1535.38 1331.68 L1538.62 1333.38 L1541.86 1335.08 L1545.11 1336.77 L1548.35 1338.47 L1551.59 1340.16 L1554.83 1341.86 L1558.07 1343.57 L1561.31 1345.28 L1564.55 1346.99 L1567.8 1348.72 L1571.04 1350.46 L1574.28 1352.22 L1577.52 1354.01 L1580.76 1355.82 L1584 1357.67 L1587.24 1359.55 L1590.49 1361.48 L1593.73 1363.47 L1596.97 1365.52 L1600.21 1367.63 L1603.45 1369.82 L1606.69 1372.09 L1609.93 1374.45 L1613.18 1376.89 L1616.42 1379.41 L1619.66 1381.99 L1622.9 1384.62 L1626.14 1387.29 L1629.38 1389.98 L1632.62 1392.69 L1635.86 1395.4 L1639.11 1398.1 L1642.35 1400.79 L1645.59 1403.45 L1648.83 1406.08 L1652.07 1408.67 L1655.31 1411.2 L1658.55 1413.68 L1661.8 1416.09 L1665.04 1418.44 L1668.28 1420.71 L1671.52 1422.9 L1674.76 1425 L1678 1427.01 L1681.24 1428.94 L1684.49 1430.76 L1687.73 1432.49 L1690.97 1434.12 L1694.21 1435.64 L1697.45 1437.06 L1700.69 1438.37 L1703.93 1439.57 L1707.18 1440.66 L1710.42 1441.65 L1713.66 1442.53 L1716.9 1443.29 L1720.14 1443.95 L1723.38 1444.51 L1726.62 1444.95 L1729.87 1445.29 L1733.11 1445.53 L1736.35 1445.67 L1739.59 1445.72 L1742.83 1445.66 L1746.07 1445.52 L1749.31 1445.29 L1752.55 1444.97 L1755.8 1444.58 L1759.04 1444.11 L1762.28 1443.58 L1765.52 1442.98 L1768.76 1442.32 L1772 1441.62 L1775.24 1440.87 L1778.49 1440.09 L1781.73 1439.28 L1784.97 1438.46 L1788.21 1437.62 L1791.45 1436.78 L1794.69 1435.96 L1797.93 1435.15 L1801.18 1434.36 L1804.42 1433.59 L1807.66 1432.84 L1810.9 1432.12 L1814.14 1431.42 L1817.38 1430.74 L1820.62 1430.1 L1823.87 1429.49 L1827.11 1428.91 L1830.35 1428.38 L1833.59 1427.88 L1836.83 1427.43 L1840.07 1427.01 L1843.31 1426.63 L1846.55 1426.27 L1849.8 1425.95 L1853.04 1425.65 L1856.28 1425.38 L1859.52 1425.14 L1862.76 1424.92 L1866 1424.73 L1869.24 1424.57 L1872.49 1424.44 L1875.73 1424.34 L1878.97 1424.28 L1882.21 1424.24 L1885.45 1424.24 L1888.69 1424.26 L1891.93 1424.29 L1895.18 1424.35 L1898.42 1424.42 L1901.66 1424.51 L1904.9 1424.59 L1908.14 1424.68 L1911.38 1424.76 L1914.62 1424.82 L1917.87 1424.87 L1921.11 1424.89 L1924.35 1424.88 L1927.59 1424.84 L1930.83 1424.76 L1934.07 1424.64 L1937.31 1424.49 L1940.56 1424.29 L1943.8 1424.05 L1947.04 1423.76 L1950.28 1423.43 L1953.52 1423.05 L1956.76 1422.63 L1960 1422.17 L1963.24 1421.66 L1966.49 1421.1 L1969.73 1420.49 L1972.97 1419.81 L1976.21 1419.07 L1979.45 1418.25 L1982.69 1417.35 L1985.93 1416.36 L1989.18 1415.29 L1992.42 1414.12 L1995.66 1412.86 L1998.9 1411.49 L2002.14 1410.01 L2005.38 1408.43 L2008.62 1406.73 L2011.87 1404.92 L2015.11 1402.99 L2018.35 1400.94 L2021.59 1398.77 L2024.83 1396.47 L2028.07 1394.05 L2031.31 1391.5 L2034.56 1388.83 L2037.8 1386.03 L2041.04 1383.1 L2044.28 1380.04 L2047.52 1376.86 L2050.76 1373.55 L2054 1370.11 L2057.24 1366.54 L2060.49 1362.85 L2063.73 1359.04 L2066.97 1355.1 L2070.21 1351.05 L2073.45 1346.88 L2076.69 1342.59 L2079.93 1338.19 L2083.18 1333.69 L2086.42 1329.08 L2089.66 1324.37 L2092.9 1319.56 L2096.14 1314.66 L2099.38 1309.68 L2102.62 1304.62 L2105.87 1299.48 L2109.11 1294.28 L2112.35 1289.01 L2115.59 1283.7 L2118.83 1278.34 L2122.07 1272.95 L2125.31 1267.53 L2128.56 1262.11 L2131.8 1256.68 L2135.04 1251.26 L2138.28 1245.86 L2141.52 1240.5 L2144.76 1235.19 L2148 1229.94 L2151.25 1224.78 L2154.49 1219.7 L2157.73 1214.73 L2160.97 1209.89 L2164.21 1205.17 L2167.45 1200.59 L2170.69 1196.17 L2173.93 1191.92 L2177.18 1187.85 L2180.42 1183.98 L2183.66 1180.32 L2186.9 1176.89 L2190.14 1173.69 L2193.38 1170.75 L2196.62 1168.07 L2199.87 1165.67 L2203.11 1163.56 L2206.35 1161.75 L2209.59 1160.22 L2212.83 1158.99 L2216.07 1158.05 L2219.31 1157.38 L2222.56 1156.97 L2225.8 1156.81 L2229.04 1156.87 L2232.28 1157.14 L2235.52 1157.61 L2238.76 1158.26 L2242 1159.09 L2245.25 1160.06 L2248.49 1161.18 L2251.73 1162.44 L2254.97 1163.81 L2258.21 1165.29 L2261.45 1166.87 L2264.69 1168.54 L2267.94 1170.3 L2271.18 1172.12 L2274.42 1174.02 L2277.66 1175.97 L2280.9 1177.98 L2284.14 1180.03 L2287.38 1182.12 L2290.62 1184.25 L2290.62 620.424 L2287.38 626.608 L2284.14 632.845 L2280.9 639.132 L2277.66 645.466 L2274.42 651.843 L2271.18 658.257 L2267.94 664.705 L2264.69 671.18 L2261.45 677.677 L2258.21 684.188 L2254.97 690.708 L2251.73 697.229 L2248.49 703.741 L2245.25 710.238 L2242 716.708 L2238.76 723.142 L2235.52 729.53 L2232.28 735.86 L2229.04 742.121 L2225.8 748.3 L2222.56 754.384 L2219.31 760.361 L2216.07 766.217 L2212.83 771.939 L2209.59 777.516 L2206.35 782.938 L2203.11 788.201 L2199.87 793.297 L2196.62 798.222 L2193.38 802.978 L2190.14 807.568 L2186.9 811.994 L2183.66 816.26 L2180.42 820.371 L2177.18 824.33 L2173.93 828.14 L2170.69 831.806 L2167.45 835.329 L2164.21 838.714 L2160.97 841.964 L2157.73 845.079 L2154.49 848.062 L2151.25 850.915 L2148 853.641 L2144.76 856.254 L2141.52 858.769 L2138.28 861.201 L2135.04 863.564 L2131.8 865.872 L2128.56 868.137 L2125.31 870.373 L2122.07 872.59 L2118.83 874.799 L2115.59 877.01 L2112.35 879.232 L2109.11 881.474 L2105.87 883.743 L2102.62 886.046 L2099.38 888.391 L2096.14 890.783 L2092.9 893.228 L2089.66 895.729 L2086.42 898.293 L2083.18 900.921 L2079.93 903.619 L2076.69 906.388 L2073.45 909.231 L2070.21 912.15 L2066.97 915.146 L2063.73 918.221 L2060.49 921.376 L2057.24 924.611 L2054 927.926 L2050.76 931.321 L2047.52 934.795 L2044.28 938.347 L2041.04 941.976 L2037.8 945.68 L2034.56 949.458 L2031.31 953.306 L2028.07 957.222 L2024.83 961.203 L2021.59 965.246 L2018.35 969.346 L2015.11 973.5 L2011.87 977.703 L2008.62 981.951 L2005.38 986.237 L2002.14 990.556 L1998.9 994.902 L1995.66 999.268 L1992.42 1003.65 L1989.18 1008.03 L1985.93 1012.42 L1982.69 1016.79 L1979.45 1021.15 L1976.21 1025.47 L1972.97 1029.76 L1969.73 1034.01 L1966.49 1038.19 L1963.24 1042.3 L1960 1046.34 L1956.76 1050.29 L1953.52 1054.14 L1950.28 1057.91 L1947.04 1061.58 L1943.8 1065.16 L1940.56 1068.65 L1937.31 1072.05 L1934.07 1075.35 L1930.83 1078.55 L1927.59 1081.65 L1924.35 1084.64 L1921.11 1087.52 L1917.87 1090.28 L1914.62 1092.92 L1911.38 1095.42 L1908.14 1097.79 L1904.9 1100.01 L1901.66 1102.07 L1898.42 1103.97 L1895.18 1105.69 L1891.93 1107.24 L1888.69 1108.61 L1885.45 1109.81 L1882.21 1110.83 L1878.97 1111.68 L1875.73 1112.35 L1872.49 1112.85 L1869.24 1113.17 L1866 1113.34 L1862.76 1113.35 L1859.52 1113.21 L1856.28 1112.93 L1853.04 1112.51 L1849.8 1111.96 L1846.55 1111.28 L1843.31 1110.47 L1840.07 1109.54 L1836.83 1108.48 L1833.59 1107.3 L1830.35 1106 L1827.11 1104.58 L1823.87 1103.04 L1820.62 1101.4 L1817.38 1099.66 L1814.14 1097.83 L1810.9 1095.92 L1807.66 1093.92 L1804.42 1091.85 L1801.18 1089.71 L1797.93 1087.51 L1794.69 1085.25 L1791.45 1082.93 L1788.21 1080.57 L1784.97 1078.18 L1781.73 1075.76 L1778.49 1073.34 L1775.24 1070.91 L1772 1068.49 L1768.76 1066.1 L1765.52 1063.73 L1762.28 1061.39 L1759.04 1059.1 L1755.8 1056.86 L1752.55 1054.68 L1749.31 1052.56 L1746.07 1050.51 L1742.83 1048.54 L1739.59 1046.64 L1736.35 1044.83 L1733.11 1043.1 L1729.87 1041.46 L1726.62 1039.91 L1723.38 1038.46 L1720.14 1037.11 L1716.9 1035.85 L1713.66 1034.69 L1710.42 1033.64 L1707.18 1032.68 L1703.93 1031.82 L1700.69 1031.07 L1697.45 1030.41 L1694.21 1029.85 L1690.97 1029.38 L1687.73 1029.01 L1684.49 1028.73 L1681.24 1028.53 L1678 1028.42 L1674.76 1028.39 L1671.52 1028.44 L1668.28 1028.55 L1665.04 1028.73 L1661.8 1028.97 L1658.55 1029.26 L1655.31 1029.6 L1652.07 1029.97 L1648.83 1030.37 L1645.59 1030.79 L1642.35 1031.22 L1639.11 1031.65 L1635.86 1032.06 L1632.62 1032.45 L1629.38 1032.81 L1626.14 1033.11 L1622.9 1033.35 L1619.66 1033.52 L1616.42 1033.6 L1613.18 1033.57 L1609.93 1033.42 L1606.69 1033.13 L1603.45 1032.71 L1600.21 1032.16 L1596.97 1031.46 L1593.73 1030.63 L1590.49 1029.67 L1587.24 1028.58 L1584 1027.36 L1580.76 1026.01 L1577.52 1024.53 L1574.28 1022.92 L1571.04 1021.17 L1567.8 1019.3 L1564.55 1017.28 L1561.31 1015.13 L1558.07 1012.83 L1554.83 1010.38 L1551.59 1007.78 L1548.35 1005.01 L1545.11 1002.08 L1541.86 998.973 L1538.62 995.686 L1535.38 992.221 L1532.14 988.582 L1528.9 984.774 L1525.66 980.798 L1522.42 976.658 L1519.18 972.355 L1515.93 967.893 L1512.69 963.271 L1509.45 958.492 L1506.21 953.555 L1502.97 948.464 L1499.73 943.23 L1496.49 937.867 L1493.24 932.388 L1490 926.808 L1486.76 921.138 L1483.52 915.391 L1480.28 909.578 L1477.04 903.71 L1473.8 897.798 L1470.55 891.85 L1467.31 885.877 L1464.07 879.888 L1460.83 873.889 L1457.59 867.89 L1454.35 861.896 L1451.11 855.915 L1447.86 849.953 L1444.62 844.015 L1441.38 838.106 L1438.14 832.231 L1434.9 826.395 L1431.66 820.601 L1428.42 814.852 L1425.17 809.151 L1421.93 803.502 L1418.69 797.906 L1415.45 792.364 L1412.21 786.879 L1408.97 781.45 L1405.73 776.08 L1402.49 770.767 L1399.24 765.512 L1396 760.313 L1392.76 755.171 L1389.52 750.083 L1386.28 745.047 L1383.04 740.062 L1379.8 735.124 L1376.55 730.231 L1373.31 725.38 L1370.07 720.565 L1366.83 715.783 L1363.59 711.029 L1360.35 706.298 L1357.11 701.584 L1353.86 696.882 L1350.62 692.184 L1347.38 687.485 L1344.14 682.776 L1340.9 678.052 L1337.66 673.303 L1334.42 668.523 L1331.17 663.703 L1327.93 658.836 L1324.69 653.924 L1321.45 648.966 L1318.21 643.966 L1314.97 638.923 L1311.73 633.84 L1308.48 628.717 L1305.24 623.554 L1302 618.353 L1298.76 613.113 L1295.52 607.834 L1292.28 602.515 L1289.04 597.155 L1285.8 591.754 L1282.55 586.311 L1279.31 580.822 L1276.07 575.288 L1272.83 569.705 L1269.59 564.074 L1266.35 558.401 L1263.11 552.694 L1259.86 546.96 L1256.62 541.208 L1253.38 535.443 L1250.14 529.674 L1246.9 523.906 L1243.66 518.145 L1240.42 512.397 L1237.17 506.668 L1233.93 500.961 L1230.69 495.281 L1227.45 489.631 L1224.21 484.015 L1220.97 478.435 L1217.73 472.893 L1214.48 467.391 L1211.24 461.93 L1208 456.51 L1204.76 451.133 L1201.52 445.797 L1198.28 440.502 L1195.04 435.247 L1191.8 430.031 L1188.55 424.851 L1185.31 419.707 L1182.07 414.595 L1178.83 409.514 L1175.59 404.46 L1172.35 399.43 L1169.11 394.422 L1165.86 389.433 L1162.62 384.462 L1159.38 379.511 L1156.14 374.586 L1152.9 369.692 L1149.66 364.834 L1146.42 360.017 L1143.17 355.245 L1139.93 350.523 L1136.69 345.855 L1133.45 341.246 L1130.21 336.698 L1126.97 332.216 L1123.73 327.803 L1120.48 323.461 L1117.24 319.193 L1114 315.003 L1110.76 310.891 L1107.52 306.859 L1104.28 302.91 L1101.04 299.043 L1097.79 295.259 L1094.55 291.56 L1091.31 287.945 L1088.07 284.414 L1084.83 280.967 L1081.59 277.602 L1078.35 274.318 L1075.11 271.114 L1071.86 267.988 L1068.62 264.938 L1065.38 261.961 L1062.14 259.055 L1058.9 256.217 L1055.66 253.442 L1052.42 250.728 L1049.17 248.07 L1045.93 245.464 L1042.69 242.906 L1039.45 240.39 L1036.21 237.912 L1032.97 235.465 L1029.73 233.045 L1026.48 230.646 L1023.24 228.261 L1020 225.885 L1016.76 223.511 L1013.52 221.134 L1010.28 218.746 L1007.04 216.341 L1003.79 213.914 L1000.55 211.458 L997.312 208.967 L994.071 206.435 L990.829 203.858 L987.588 201.239 L984.346 198.582 L981.105 195.89 L977.864 193.168 L974.622 190.421 L971.381 187.653 L968.139 184.868 L964.898 182.071 L961.657 179.266 L958.415 176.458 L955.174 173.651 L951.933 170.849 L948.691 168.056 L945.45 165.276 L942.208 162.513 L938.967 159.769 L935.726 157.05 L932.484 154.357 L929.243 151.693 L926.001 149.063 L922.76 146.467 L919.519 143.91 L916.277 141.392 L913.036 138.917 L909.795 136.487 L906.553 134.103 L903.312 131.767 L900.07 129.481 L896.829 127.247 L893.588 125.066 L890.346 122.939 L887.105 120.868 L883.863 118.854 L880.622 116.897 L877.381 114.999 L874.139 113.161 L870.898 111.383 L867.657 109.667 L864.415 108.012 L861.174 106.42 L857.932 104.892 L854.691 103.427 L851.45 102.026 L848.208 100.69 L844.967 99.4188 L841.725 98.2132 L838.484 97.0733 L835.243 95.9995 L832.001 94.9921 L828.76 94.0514 L825.519 93.1775 L822.277 92.3707 L819.036 91.6313 L815.794 90.9593 L812.553 90.355 L809.312 89.8186 L806.07 89.3502 L802.829 88.95 L799.587 88.6181 L796.346 88.3547 L793.105 88.1598 L789.863 88.0336 L786.622 87.9763 L783.381 87.9879 L780.139 88.0686 L776.898 88.2184 L773.656 88.4376 L770.415 88.7262 L767.174 89.0842 L763.932 89.5119 L760.691 90.0093 L757.449 90.5765 L754.208 91.2136 L750.967 91.9206 L747.725 92.6978 L744.484 93.545 L741.242 94.4624 L738.001 95.4501 L734.76 96.5081 L731.518 97.6363 L728.277 98.8349 L725.036 100.104 L721.794 101.443 L718.553 102.852 L715.311 104.332 L712.07 105.882 L708.829 107.502 L705.587 109.191 L702.346 110.95 L699.104 112.779 L695.863 114.676 L692.622 116.643 L689.38 118.677 L686.139 120.78 L682.898 122.95 L679.656 125.187 L676.415 127.49 L673.173 129.859 L669.932 132.292 L666.691 134.789 L663.449 137.349 L660.208 139.971 L656.966 142.653 L653.725 145.394 L650.484 148.192 L647.242 151.047 L644.001 153.956 L640.76 156.917 L637.518 159.928 L634.277 162.988 L631.035 166.092 L627.794 169.24 L624.553 172.427 L621.311 175.652 L618.07 178.91 L614.828 182.199 L611.587 185.514 L608.346 188.852 L605.104 192.208 L601.863 195.579 L598.622 198.96 L595.38 202.346 L592.139 205.732 L588.897 209.114 L585.656 212.486 L582.415 215.844 L579.173 219.183 L575.932 222.505 L572.69 225.811 L569.449 229.105 L566.208 232.389 L562.966 235.663 L559.725 238.93 L556.484 242.191 L553.242 245.447 L550.001 248.698 L546.759 251.944 L543.518 255.185 L540.277 258.418 L537.035 261.644 L533.794 264.857 L530.552 268.056 L527.311 271.236 L524.07 274.392 L520.828 277.518 L517.587 280.607 L514.346 283.653 L511.104 286.646 L507.863 289.578 L504.621 292.438 L501.38 295.217 L498.139 297.903 L494.897 300.485 L491.656 302.95 L488.414 305.286 L485.173 307.483 L481.932 309.535 L478.69 311.439 L475.449 313.193 L472.208 314.793 L468.966 316.244 L465.725 317.547 L462.483 318.708 L459.242 319.73 L456.001 320.616 L452.759 321.369 L449.518 321.992 L446.276 322.488 L443.035 322.857 L439.794 323.102 L436.552 323.224 L433.311 323.222 L430.069 323.097 L426.828 322.848 L423.587 322.475 L420.345 321.977 L417.104 321.351 L413.863 320.6 L410.621 319.73 L407.38 318.751 L404.138 317.674 L400.897 316.507 L397.656 315.259 L394.414 313.939 L391.173 312.554 L387.931 311.113 L384.69 309.621 L381.449 308.087 L378.207 306.515 L374.966 304.913 L371.725 303.285 L368.483 301.636 L365.242 299.971 L362 298.295 L358.759 296.611 L355.518 294.924 L352.276 293.236 L349.035 291.551 L345.793 289.871 L342.552 288.2 L339.311 286.54 L336.069 284.892 L332.828 283.26 L329.587 281.645 L326.345 280.048 L323.104 278.471 L319.862 276.915 L316.621 275.382 L313.38 273.873 L310.138 272.389 L306.897 270.931 L303.655 269.498 L300.414 268.093 L297.173 266.716 L293.931 265.367 L290.69 264.046 L287.449 262.754 L284.207 261.492 L280.966 260.259 L277.724 259.056 L274.483 257.882 L271.242 256.738 L268 255.625 L264.759 254.541 L261.517 253.486 L258.276 252.462 L255.035 251.467  Z" fill="#3da44d" fill-rule="evenodd" fill-opacity="0.1"/>
<polyline clip-path="url(#clip392)" style="stroke:#3da44d; stroke-linecap:round; stroke-linejoin:round; stroke-width:8; stroke-opacity:1; fill:none" points="255.035,643.536 258.276,641.576 261.517,639.6 264.759,637.609 268,635.602 271.242,633.579 274.483,631.541 277.724,629.488 280.966,627.42 284.207,625.337 287.449,623.239 290.69,621.125 293.931,618.997 297.173,616.855 300.414,614.698 303.655,612.526 306.897,610.341 310.138,608.141 313.38,605.928 316.621,603.701 319.862,601.46 323.104,599.206 326.345,596.939 329.587,594.66 332.828,592.368 336.069,590.063 339.311,587.747 342.552,585.419 345.793,583.079 349.035,580.728 352.276,578.367 355.518,575.995 358.759,573.612 362,571.221 365.242,568.819 368.483,566.409 371.725,563.991 374.966,561.564 378.207,559.13 381.449,556.688 384.69,554.24 387.931,551.786 391.173,549.326 394.414,546.861 397.656,544.391 400.897,541.918 404.138,539.441 407.38,536.962 410.621,534.48 413.863,531.998 417.104,529.515 420.345,527.032 423.587,524.551 426.828,522.075 430.069,519.604 433.311,517.141 436.552,514.687 439.794,512.246 443.035,509.818 446.276,507.407 449.518,505.014 452.759,502.641 456.001,500.29 459.242,497.964 462.483,495.666 465.725,493.397 468.966,491.159 472.208,488.956 475.449,486.79 478.69,484.662 481.932,482.573 485.173,480.524 488.414,478.514 491.656,476.544 494.897,474.613 498.139,472.721 501.38,470.868 504.621,469.055 507.863,467.281 511.104,465.547 514.346,463.853 517.587,462.199 520.828,460.586 524.07,459.014 527.311,457.483 530.552,455.995 533.794,454.549 537.035,453.146 540.277,451.787 543.518,450.472 546.759,449.203 550.001,447.981 553.242,446.806 556.484,445.679 559.725,444.601 562.966,443.574 566.208,442.598 569.449,441.676 572.69,440.807 575.932,439.995 579.173,439.239 582.415,438.542 585.656,437.904 588.897,437.324 592.139,436.799 595.38,436.327 598.622,435.905 601.863,435.531 605.104,435.203 608.346,434.918 611.587,434.675 614.828,434.471 618.07,434.305 621.311,434.174 624.553,434.077 627.794,434.012 631.035,433.977 634.277,433.969 637.518,433.989 640.76,434.033 644.001,434.101 647.242,434.191 650.484,434.301 653.725,434.431 656.966,434.577 660.208,434.74 663.449,434.918 666.691,435.11 669.932,435.314 673.173,435.53 676.415,435.756 679.656,435.991 682.898,436.234 686.139,436.484 689.38,436.74 692.622,437.001 695.863,437.267 699.104,437.536 702.346,437.807 705.587,438.081 708.829,438.356 712.07,438.63 715.311,438.905 718.553,439.179 721.794,439.451 725.036,439.721 728.277,439.988 731.518,440.252 734.76,440.512 738.001,440.768 741.242,441.02 744.484,441.267 747.725,441.508 750.967,441.744 754.208,441.973 757.449,442.197 760.691,442.414 763.932,442.624 767.174,442.828 770.415,443.025 773.656,443.214 776.898,443.397 780.139,443.572 783.381,443.74 786.622,443.9 789.863,444.054 793.105,444.2 796.346,444.339 799.587,444.471 802.829,444.596 806.07,444.715 809.312,444.827 812.553,444.933 815.794,445.033 819.036,445.127 822.277,445.216 825.519,445.3 828.76,445.38 832.001,445.455 835.243,445.527 838.484,445.595 841.725,445.661 844.967,445.724 848.208,445.786 851.45,445.846 854.691,445.907 857.932,445.967 861.174,446.029 864.415,446.092 867.657,446.158 870.898,446.227 874.139,446.3 877.381,446.379 880.622,446.463 883.863,446.554 887.105,446.653 890.346,446.761 893.588,446.879 896.829,447.008 900.07,447.149 903.312,447.304 906.553,447.473 909.795,447.658 913.036,447.861 916.277,448.082 919.519,448.323 922.76,448.585 926.001,448.871 929.243,449.181 932.484,449.517 935.726,449.88 938.967,450.273 942.208,450.697 945.45,451.154 948.691,451.646 951.933,452.174 955.174,452.741 958.415,453.349 961.657,453.999 964.898,454.694 968.139,455.436 971.381,456.227 974.622,457.069 977.864,457.966 981.105,458.919 984.346,459.93 987.588,461.003 990.829,462.14 994.071,463.343 997.312,464.615 1000.55,465.955 1003.79,467.361 1007.04,468.832 1010.28,470.366 1013.52,471.961 1016.76,473.617 1020,475.333 1023.24,477.106 1026.48,478.936 1029.73,480.821 1032.97,482.762 1036.21,484.756 1039.45,486.803 1042.69,488.903 1045.93,491.053 1049.17,493.255 1052.42,495.506 1055.66,497.807 1058.9,500.157 1062.14,502.555 1065.38,505.001 1068.62,507.495 1071.86,510.037 1075.11,512.625 1078.35,515.261 1081.59,517.944 1084.83,520.673 1088.07,523.449 1091.31,526.272 1094.55,529.143 1097.79,532.06 1101.04,535.024 1104.28,538.037 1107.52,541.097 1110.76,544.205 1114,547.362 1117.24,550.568 1120.48,553.824 1123.73,557.131 1126.97,560.488 1130.21,563.897 1133.45,567.358 1136.69,570.872 1139.93,574.44 1143.17,578.064 1146.42,581.743 1149.66,585.479 1152.9,589.273 1156.14,593.126 1159.38,597.04 1162.62,601.015 1165.86,605.053 1169.11,609.154 1172.35,613.318 1175.59,617.542 1178.83,621.825 1182.07,626.163 1185.31,630.557 1188.55,635.004 1191.8,639.502 1195.04,644.05 1198.28,648.646 1201.52,653.289 1204.76,657.976 1208,662.708 1211.24,667.481 1214.48,672.296 1217.73,677.149 1220.97,682.041 1224.21,686.971 1227.45,691.935 1230.69,696.934 1233.93,701.967 1237.17,707.032 1240.42,712.127 1243.66,717.253 1246.9,722.408 1250.14,727.591 1253.38,732.8 1256.62,738.036 1259.86,743.296 1263.11,748.581 1266.35,753.888 1269.59,759.218 1272.83,764.57 1276.07,769.941 1279.31,775.333 1282.55,780.743 1285.8,786.171 1289.04,791.616 1292.28,797.077 1295.52,802.553 1298.76,808.044 1302,813.549 1305.24,819.066 1308.48,824.595 1311.73,830.136 1314.97,835.687 1318.21,841.248 1321.45,846.817 1324.69,852.395 1327.93,857.98 1331.17,863.571 1334.42,869.169 1337.66,874.771 1340.9,880.376 1344.14,885.982 1347.38,891.59 1350.62,897.196 1353.86,902.801 1357.11,908.402 1360.35,913.998 1363.59,919.588 1366.83,925.171 1370.07,930.744 1373.31,936.308 1376.55,941.859 1379.8,947.398 1383.04,952.922 1386.28,958.429 1389.52,963.919 1392.76,969.39 1396,974.841 1399.24,980.269 1402.49,985.673 1405.73,991.052 1408.97,996.404 1412.21,1001.73 1415.45,1007.02 1418.69,1012.28 1421.93,1017.51 1425.17,1022.7 1428.42,1027.85 1431.66,1032.96 1434.9,1038.03 1438.14,1043.06 1441.38,1048.04 1444.62,1052.97 1447.86,1057.86 1451.11,1062.69 1454.35,1067.47 1457.59,1072.19 1460.83,1076.85 1464.07,1081.45 1467.31,1085.99 1470.55,1090.46 1473.8,1094.86 1477.04,1099.19 1480.28,1103.44 1483.52,1107.62 1486.76,1111.71 1490,1115.73 1493.24,1119.66 1496.49,1123.49 1499.73,1127.24 1502.97,1130.89 1506.21,1134.44 1509.45,1137.89 1512.69,1141.24 1515.93,1144.49 1519.18,1147.64 1522.42,1150.69 1525.66,1153.65 1528.9,1156.51 1532.14,1159.28 1535.38,1161.95 1538.62,1164.53 1541.86,1167.03 1545.11,1169.43 1548.35,1171.74 1551.59,1173.97 1554.83,1176.12 1558.07,1178.2 1561.31,1180.2 1564.55,1182.14 1567.8,1184.01 1571.04,1185.82 1574.28,1187.57 1577.52,1189.27 1580.76,1190.92 1584,1192.51 1587.24,1194.07 1590.49,1195.58 1593.73,1197.05 1596.97,1198.49 1600.21,1199.89 1603.45,1201.27 1606.69,1202.61 1609.93,1203.93 1613.18,1205.23 1616.42,1206.5 1619.66,1207.76 1622.9,1208.99 1626.14,1210.2 1629.38,1211.39 1632.62,1212.57 1635.86,1213.73 1639.11,1214.87 1642.35,1216 1645.59,1217.12 1648.83,1218.23 1652.07,1219.32 1655.31,1220.4 1658.55,1221.47 1661.8,1222.53 1665.04,1223.59 1668.28,1224.63 1671.52,1225.67 1674.76,1226.7 1678,1227.72 1681.24,1228.74 1684.49,1229.75 1687.73,1230.75 1690.97,1231.75 1694.21,1232.74 1697.45,1233.73 1700.69,1234.72 1703.93,1235.7 1707.18,1236.67 1710.42,1237.64 1713.66,1238.61 1716.9,1239.57 1720.14,1240.53 1723.38,1241.48 1726.62,1242.43 1729.87,1243.38 1733.11,1244.32 1736.35,1245.25 1739.59,1246.18 1742.83,1247.1 1746.07,1248.02 1749.31,1248.93 1752.55,1249.83 1755.8,1250.72 1759.04,1251.61 1762.28,1252.49 1765.52,1253.35 1768.76,1254.21 1772,1255.06 1775.24,1255.89 1778.49,1256.71 1781.73,1257.52 1784.97,1258.32 1788.21,1259.1 1791.45,1259.86 1794.69,1260.6 1797.93,1261.33 1801.18,1262.04 1804.42,1262.72 1807.66,1263.38 1810.9,1264.02 1814.14,1264.62 1817.38,1265.2 1820.62,1265.75 1823.87,1266.27 1827.11,1266.75 1830.35,1267.19 1833.59,1267.59 1836.83,1267.96 1840.07,1268.28 1843.31,1268.55 1846.55,1268.78 1849.8,1268.96 1853.04,1269.08 1856.28,1269.16 1859.52,1269.17 1862.76,1269.13 1866,1269.03 1869.24,1268.87 1872.49,1268.64 1875.73,1268.34 1878.97,1267.98 1882.21,1267.54 1885.45,1267.02 1888.69,1266.43 1891.93,1265.77 1895.18,1265.02 1898.42,1264.2 1901.66,1263.29 1904.9,1262.3 1908.14,1261.23 1911.38,1260.09 1914.62,1258.87 1917.87,1257.57 1921.11,1256.2 1924.35,1254.76 1927.59,1253.24 1930.83,1251.65 1934.07,1250 1937.31,1248.27 1940.56,1246.47 1943.8,1244.6 1947.04,1242.67 1950.28,1240.67 1953.52,1238.6 1956.76,1236.46 1960,1234.25 1963.24,1231.98 1966.49,1229.65 1969.73,1227.25 1972.97,1224.79 1976.21,1222.27 1979.45,1219.7 1982.69,1217.07 1985.93,1214.39 1989.18,1211.66 1992.42,1208.89 1995.66,1206.06 1998.9,1203.2 2002.14,1200.28 2005.38,1197.33 2008.62,1194.34 2011.87,1191.31 2015.11,1188.25 2018.35,1185.14 2021.59,1182.01 2024.83,1178.84 2028.07,1175.64 2031.31,1172.41 2034.56,1169.14 2037.8,1165.85 2041.04,1162.54 2044.28,1159.19 2047.52,1155.83 2050.76,1152.43 2054,1149.02 2057.24,1145.58 2060.49,1142.11 2063.73,1138.63 2066.97,1135.12 2070.21,1131.6 2073.45,1128.05 2076.69,1124.49 2079.93,1120.91 2083.18,1117.31 2086.42,1113.69 2089.66,1110.05 2092.9,1106.39 2096.14,1102.72 2099.38,1099.04 2102.62,1095.33 2105.87,1091.61 2109.11,1087.87 2112.35,1084.12 2115.59,1080.35 2118.83,1076.57 2122.07,1072.77 2125.31,1068.95 2128.56,1065.12 2131.8,1061.27 2135.04,1057.41 2138.28,1053.53 2141.52,1049.63 2144.76,1045.72 2148,1041.79 2151.25,1037.85 2154.49,1033.88 2157.73,1029.91 2160.97,1025.92 2164.21,1021.94 2167.45,1017.96 2170.69,1013.99 2173.93,1010.03 2177.18,1006.09 2180.42,1002.18 2183.66,998.292 2186.9,994.441 2190.14,990.629 2193.38,986.862 2196.62,983.145 2199.87,979.483 2203.11,975.881 2206.35,972.342 2209.59,968.869 2212.83,965.465 2216.07,962.133 2219.31,958.871 2222.56,955.678 2225.8,952.553 2229.04,949.495 2232.28,946.501 2235.52,943.571 2238.76,940.704 2242,937.897 2245.25,935.151 2248.49,932.463 2251.73,929.832 2254.97,927.258 2258.21,924.738 2261.45,922.273 2264.69,919.861 2267.94,917.5 2271.18,915.19 2274.42,912.93 2277.66,910.718 2280.9,908.554 2284.14,906.436 2287.38,904.364 2290.62,902.337 "/>
<polyline clip-path="url(#clip392)" style="stroke:#c271d2; stroke-linecap:round; stroke-linejoin:round; stroke-width:12; stroke-opacity:1; fill:none" points="255.035,907.983 362.225,754.949 469.416,608.753 576.607,586.884 683.797,648.066 790.988,684.248 898.179,662.156 1005.37,638.695 1112.56,702.965 1219.75,817.696 1326.94,990.448 1434.13,1179.7 1541.32,1280.05 1648.51,1344.73 1755.7,1381.48 1862.89,1374.2 1970.09,1357.45 2077.28,1270.86 2184.47,1120.17 2291.66,1092.74 "/>
<polyline clip-path="url(#clip392)" style="stroke:#ac8d18; stroke-linecap:round; stroke-linejoin:round; stroke-width:12; stroke-opacity:1; fill:none" points="255.035,379.089 362.225,387.159 469.416,372.95 576.607,292.781 683.797,224.538 790.988,203.963 898.179,231.974 1005.37,297.441 1112.56,388.938 1219.75,542.705 1326.94,722.092 1434.13,893.967 1541.32,1053.18 1648.51,1091.51 1755.7,1119.92 1862.89,1164.06 1970.09,1096.51 2077.28,976.833 2184.47,874.493 2291.66,710.662 "/>
<path clip-path="url(#clip390)" d="M1953.46 406.258 L2280.8 406.258 L2280.8 95.2176 L1953.46 95.2176  Z" fill="#ffffff" fill-rule="evenodd" fill-opacity="1"/>
<polyline clip-path="url(#clip390)" style="stroke:#000000; stroke-linecap:round; stroke-linejoin:round; stroke-width:4; stroke-opacity:1; fill:none" points="1953.46,406.258 2280.8,406.258 2280.8,95.2176 1953.46,95.2176 1953.46,406.258 "/>
<polyline clip-path="url(#clip390)" style="stroke:#009af9; stroke-linecap:round; stroke-linejoin:round; stroke-width:4; stroke-opacity:1; fill:none" points="1977.44,147.058 2121.36,147.058 "/>
<path clip-path="url(#clip390)" d="M2152.76 131.051 L2152.76 138.412 L2161.53 138.412 L2161.53 141.722 L2152.76 141.722 L2152.76 155.796 Q2152.76 158.967 2153.61 159.87 Q2154.49 160.773 2157.16 160.773 L2161.53 160.773 L2161.53 164.338 L2157.16 164.338 Q2152.23 164.338 2150.35 162.509 Q2148.48 160.657 2148.48 155.796 L2148.48 141.722 L2145.35 141.722 L2145.35 138.412 L2148.48 138.412 L2148.48 131.051 L2152.76 131.051 Z" fill="#000000" fill-rule="nonzero" fill-opacity="1" /><path clip-path="url(#clip390)" d="M2182.16 142.393 Q2181.44 141.977 2180.58 141.791 Q2179.75 141.583 2178.73 141.583 Q2175.12 141.583 2173.17 143.944 Q2171.25 146.282 2171.25 150.68 L2171.25 164.338 L2166.97 164.338 L2166.97 138.412 L2171.25 138.412 L2171.25 142.44 Q2172.6 140.078 2174.75 138.944 Q2176.9 137.787 2179.98 137.787 Q2180.42 137.787 2180.95 137.856 Q2181.48 137.903 2182.13 138.018 L2182.16 142.393 Z" fill="#000000" fill-rule="nonzero" fill-opacity="1" /><path clip-path="url(#clip390)" d="M2186.18 154.106 L2186.18 138.412 L2190.44 138.412 L2190.44 153.944 Q2190.44 157.625 2191.88 159.476 Q2193.31 161.305 2196.18 161.305 Q2199.63 161.305 2201.62 159.106 Q2203.64 156.907 2203.64 153.111 L2203.64 138.412 L2207.9 138.412 L2207.9 164.338 L2203.64 164.338 L2203.64 160.356 Q2202.09 162.717 2200.03 163.875 Q2197.99 165.009 2195.28 165.009 Q2190.81 165.009 2188.5 162.231 Q2186.18 159.453 2186.18 154.106 M2196.9 137.787 L2196.9 137.787 Z" fill="#000000" fill-rule="nonzero" fill-opacity="1" /><path clip-path="url(#clip390)" d="M2220.88 131.051 L2220.88 138.412 L2229.66 138.412 L2229.66 141.722 L2220.88 141.722 L2220.88 155.796 Q2220.88 158.967 2221.74 159.87 Q2222.62 160.773 2225.28 160.773 L2229.66 160.773 L2229.66 164.338 L2225.28 164.338 Q2220.35 164.338 2218.48 162.509 Q2216.6 160.657 2216.6 155.796 L2216.6 141.722 L2213.48 141.722 L2213.48 138.412 L2216.6 138.412 L2216.6 131.051 L2220.88 131.051 Z" fill="#000000" fill-rule="nonzero" fill-opacity="1" /><path clip-path="url(#clip390)" d="M2256.81 148.689 L2256.81 164.338 L2252.55 164.338 L2252.55 148.828 Q2252.55 145.148 2251.11 143.319 Q2249.68 141.49 2246.81 141.49 Q2243.36 141.49 2241.37 143.69 Q2239.38 145.889 2239.38 149.685 L2239.38 164.338 L2235.1 164.338 L2235.1 128.319 L2239.38 128.319 L2239.38 142.44 Q2240.91 140.102 2242.97 138.944 Q2245.05 137.787 2247.76 137.787 Q2252.23 137.787 2254.52 140.565 Q2256.81 143.319 2256.81 148.689 Z" fill="#000000" fill-rule="nonzero" fill-opacity="1" /><circle clip-path="url(#clip390)" cx="2049.4" cy="198.898" r="20.48" fill="#e26f46" fill-rule="evenodd" fill-opacity="1" stroke="#000000" stroke-opacity="1" stroke-width="4.55111"/>
<path clip-path="url(#clip390)" d="M2164.26 194.187 L2164.26 180.159 L2168.52 180.159 L2168.52 216.178 L2164.26 216.178 L2164.26 212.289 Q2162.92 214.603 2160.86 215.738 Q2158.82 216.849 2155.95 216.849 Q2151.25 216.849 2148.29 213.099 Q2145.35 209.349 2145.35 203.238 Q2145.35 197.127 2148.29 193.377 Q2151.25 189.627 2155.95 189.627 Q2158.82 189.627 2160.86 190.761 Q2162.92 191.872 2164.26 194.187 M2149.75 203.238 Q2149.75 207.937 2151.67 210.622 Q2153.61 213.284 2156.99 213.284 Q2160.37 213.284 2162.32 210.622 Q2164.26 207.937 2164.26 203.238 Q2164.26 198.539 2162.32 195.877 Q2160.37 193.192 2156.99 193.192 Q2153.61 193.192 2151.67 195.877 Q2149.75 198.539 2149.75 203.238 Z" fill="#000000" fill-rule="nonzero" fill-opacity="1" /><path clip-path="url(#clip390)" d="M2189.08 203.145 Q2183.92 203.145 2181.92 204.326 Q2179.93 205.506 2179.93 208.354 Q2179.93 210.622 2181.42 211.965 Q2182.92 213.284 2185.49 213.284 Q2189.03 213.284 2191.16 210.784 Q2193.31 208.261 2193.31 204.094 L2193.31 203.145 L2189.08 203.145 M2197.57 201.386 L2197.57 216.178 L2193.31 216.178 L2193.31 212.242 Q2191.85 214.603 2189.68 215.738 Q2187.5 216.849 2184.36 216.849 Q2180.37 216.849 2178.01 214.627 Q2175.67 212.381 2175.67 208.631 Q2175.67 204.256 2178.59 202.034 Q2181.53 199.812 2187.34 199.812 L2193.31 199.812 L2193.31 199.395 Q2193.31 196.455 2191.37 194.858 Q2189.45 193.238 2185.95 193.238 Q2183.73 193.238 2181.62 193.77 Q2179.52 194.303 2177.57 195.367 L2177.57 191.432 Q2179.91 190.53 2182.11 190.09 Q2184.31 189.627 2186.39 189.627 Q2192.02 189.627 2194.79 192.543 Q2197.57 195.46 2197.57 201.386 Z" fill="#000000" fill-rule="nonzero" fill-opacity="1" /><path clip-path="url(#clip390)" d="M2210.56 182.891 L2210.56 190.252 L2219.33 190.252 L2219.33 193.562 L2210.56 193.562 L2210.56 207.636 Q2210.56 210.807 2211.42 211.71 Q2212.29 212.613 2214.96 212.613 L2219.33 212.613 L2219.33 216.178 L2214.96 216.178 Q2210.03 216.178 2208.15 214.349 Q2206.28 212.497 2206.28 207.636 L2206.28 193.562 L2203.15 193.562 L2203.15 190.252 L2206.28 190.252 L2206.28 182.891 L2210.56 182.891 Z" fill="#000000" fill-rule="nonzero" fill-opacity="1" /><path clip-path="url(#clip390)" d="M2236.72 203.145 Q2231.55 203.145 2229.56 204.326 Q2227.57 205.506 2227.57 208.354 Q2227.57 210.622 2229.05 211.965 Q2230.56 213.284 2233.13 213.284 Q2236.67 213.284 2238.8 210.784 Q2240.95 208.261 2240.95 204.094 L2240.95 203.145 L2236.72 203.145 M2245.21 201.386 L2245.21 216.178 L2240.95 216.178 L2240.95 212.242 Q2239.49 214.603 2237.32 215.738 Q2235.14 216.849 2231.99 216.849 Q2228.01 216.849 2225.65 214.627 Q2223.31 212.381 2223.31 208.631 Q2223.31 204.256 2226.23 202.034 Q2229.17 199.812 2234.98 199.812 L2240.95 199.812 L2240.95 199.395 Q2240.95 196.455 2239.01 194.858 Q2237.09 193.238 2233.59 193.238 Q2231.37 193.238 2229.26 193.77 Q2227.16 194.303 2225.21 195.367 L2225.21 191.432 Q2227.55 190.53 2229.75 190.09 Q2231.95 189.627 2234.03 189.627 Q2239.66 189.627 2242.43 192.543 Q2245.21 195.46 2245.21 201.386 Z" fill="#000000" fill-rule="nonzero" fill-opacity="1" /><polyline clip-path="url(#clip390)" style="stroke:#3da44d; stroke-linecap:round; stroke-linejoin:round; stroke-width:8; stroke-opacity:1; fill:none" points="1977.44,250.738 2121.36,250.738 "/>
<path clip-path="url(#clip390)" d="M2170.91 263.087 L2170.91 253.805 L2163.27 253.805 L2163.27 249.962 L2175.54 249.962 L2175.54 264.8 Q2172.83 266.721 2169.56 267.717 Q2166.3 268.689 2162.6 268.689 Q2154.49 268.689 2149.91 263.967 Q2145.35 259.221 2145.35 250.772 Q2145.35 242.3 2149.91 237.578 Q2154.49 232.833 2162.6 232.833 Q2165.98 232.833 2169.01 233.666 Q2172.06 234.499 2174.63 236.12 L2174.63 241.096 Q2172.04 238.897 2169.12 237.786 Q2166.21 236.675 2162.99 236.675 Q2156.65 236.675 2153.45 240.217 Q2150.28 243.758 2150.28 250.772 Q2150.28 257.763 2153.45 261.305 Q2156.65 264.846 2162.99 264.846 Q2165.47 264.846 2167.41 264.43 Q2169.36 263.99 2170.91 263.087 Z" fill="#000000" fill-rule="nonzero" fill-opacity="1" /><path clip-path="url(#clip390)" d="M2188.75 237.3 L2188.75 250.286 L2194.63 250.286 Q2197.9 250.286 2199.68 248.596 Q2201.46 246.907 2201.46 243.782 Q2201.46 240.68 2199.68 238.99 Q2197.9 237.3 2194.63 237.3 L2188.75 237.3 M2184.08 233.458 L2194.63 233.458 Q2200.44 233.458 2203.41 236.096 Q2206.39 238.712 2206.39 243.782 Q2206.39 248.897 2203.41 251.513 Q2200.44 254.129 2194.63 254.129 L2188.75 254.129 L2188.75 268.018 L2184.08 268.018 L2184.08 233.458 Z" fill="#000000" fill-rule="nonzero" fill-opacity="1" /><polyline clip-path="url(#clip390)" style="stroke:#c271d2; stroke-linecap:round; stroke-linejoin:round; stroke-width:12; stroke-opacity:1; fill:none" points="1977.44,302.578 2121.36,302.578 "/>
<path clip-path="url(#clip390)" d="M2150.03 289.14 L2150.03 302.126 L2155.91 302.126 Q2159.17 302.126 2160.95 300.436 Q2162.73 298.747 2162.73 295.622 Q2162.73 292.52 2160.95 290.83 Q2159.17 289.14 2155.91 289.14 L2150.03 289.14 M2145.35 285.298 L2155.91 285.298 Q2161.72 285.298 2164.68 287.936 Q2167.67 290.552 2167.67 295.622 Q2167.67 300.737 2164.68 303.353 Q2161.72 305.969 2155.91 305.969 L2150.03 305.969 L2150.03 319.858 L2145.35 319.858 L2145.35 285.298 Z" fill="#000000" fill-rule="nonzero" fill-opacity="1" /><path clip-path="url(#clip390)" d="M2178.38 315.922 L2194.7 315.922 L2194.7 319.858 L2172.76 319.858 L2172.76 315.922 Q2175.42 313.168 2180 308.538 Q2184.61 303.885 2185.79 302.543 Q2188.04 300.02 2188.92 298.284 Q2189.82 296.524 2189.82 294.835 Q2189.82 292.08 2187.87 290.344 Q2185.95 288.608 2182.85 288.608 Q2180.65 288.608 2178.2 289.372 Q2175.77 290.135 2172.99 291.686 L2172.99 286.964 Q2175.81 285.83 2178.27 285.251 Q2180.72 284.673 2182.76 284.673 Q2188.13 284.673 2191.32 287.358 Q2194.52 290.043 2194.52 294.534 Q2194.52 296.663 2193.71 298.585 Q2192.92 300.483 2190.81 303.075 Q2190.23 303.747 2187.13 306.964 Q2184.03 310.159 2178.38 315.922 Z" fill="#000000" fill-rule="nonzero" fill-opacity="1" /><path clip-path="url(#clip390)" d="M2204.56 285.298 L2222.92 285.298 L2222.92 289.233 L2208.85 289.233 L2208.85 297.705 Q2209.86 297.358 2210.88 297.196 Q2211.9 297.01 2212.92 297.01 Q2218.71 297.01 2222.09 300.182 Q2225.47 303.353 2225.47 308.77 Q2225.47 314.348 2221.99 317.45 Q2218.52 320.529 2212.2 320.529 Q2210.03 320.529 2207.76 320.158 Q2205.51 319.788 2203.1 319.047 L2203.1 314.348 Q2205.19 315.483 2207.41 316.038 Q2209.63 316.594 2212.11 316.594 Q2216.11 316.594 2218.45 314.487 Q2220.79 312.381 2220.79 308.77 Q2220.79 305.159 2218.45 303.052 Q2216.11 300.946 2212.11 300.946 Q2210.23 300.946 2208.36 301.362 Q2206.51 301.779 2204.56 302.659 L2204.56 285.298 Z" fill="#000000" fill-rule="nonzero" fill-opacity="1" /><polyline clip-path="url(#clip390)" style="stroke:#ac8d18; stroke-linecap:round; stroke-linejoin:round; stroke-width:12; stroke-opacity:1; fill:none" points="1977.44,354.418 2121.36,354.418 "/>
<path clip-path="url(#clip390)" d="M2150.03 340.98 L2150.03 353.966 L2155.91 353.966 Q2159.17 353.966 2160.95 352.276 Q2162.73 350.587 2162.73 347.462 Q2162.73 344.36 2160.95 342.67 Q2159.17 340.98 2155.91 340.98 L2150.03 340.98 M2145.35 337.138 L2155.91 337.138 Q2161.72 337.138 2164.68 339.776 Q2167.67 342.392 2167.67 347.462 Q2167.67 352.577 2164.68 355.193 Q2161.72 357.809 2155.91 357.809 L2150.03 357.809 L2150.03 371.698 L2145.35 371.698 L2145.35 337.138 Z" fill="#000000" fill-rule="nonzero" fill-opacity="1" /><path clip-path="url(#clip390)" d="M2173.17 337.138 L2195.4 337.138 L2195.4 339.128 L2182.85 371.698 L2177.97 371.698 L2189.77 341.073 L2173.17 341.073 L2173.17 337.138 Z" fill="#000000" fill-rule="nonzero" fill-opacity="1" /><path clip-path="url(#clip390)" d="M2204.56 337.138 L2222.92 337.138 L2222.92 341.073 L2208.85 341.073 L2208.85 349.545 Q2209.86 349.198 2210.88 349.036 Q2211.9 348.85 2212.92 348.85 Q2218.71 348.85 2222.09 352.022 Q2225.47 355.193 2225.47 360.61 Q2225.47 366.188 2221.99 369.29 Q2218.52 372.369 2212.2 372.369 Q2210.03 372.369 2207.76 371.998 Q2205.51 371.628 2203.1 370.887 L2203.1 366.188 Q2205.19 367.323 2207.41 367.878 Q2209.63 368.434 2212.11 368.434 Q2216.11 368.434 2218.45 366.327 Q2220.79 364.221 2220.79 360.61 Q2220.79 356.999 2218.45 354.892 Q2216.11 352.786 2212.11 352.786 Q2210.23 352.786 2208.36 353.202 Q2206.51 353.619 2204.56 354.499 L2204.56 337.138 Z" fill="#000000" fill-rule="nonzero" fill-opacity="1" /></svg>
