<?xml version="1.0" encoding="utf-8"?>
<svg xmlns="http://www.w3.org/2000/svg" xmlns:xlink="http://www.w3.org/1999/xlink" width="600" height="400" viewBox="0 0 2400 1600">
<defs>
  <clipPath id="clip010">
    <rect x="0" y="0" width="2400" height="1600"/>
  </clipPath>
</defs>
<path clip-path="url(#clip010)" d="M0 1600 L2400 1600 L2400 0 L0 0  Z" fill="#ffffff" fill-rule="evenodd" fill-opacity="1"/>
<defs>
  <clipPath id="clip011">
    <rect x="480" y="0" width="1681" height="1600"/>
  </clipPath>
</defs>
<path clip-path="url(#clip010)" d="M193.936 1486.45 L2352.76 1486.45 L2352.76 47.2441 L193.936 47.2441  Z" fill="#ffffff" fill-rule="evenodd" fill-opacity="1"/>
<defs>
  <clipPath id="clip012">
    <rect x="193" y="47" width="2160" height="1440"/>
  </clipPath>
</defs>
<polyline clip-path="url(#clip012)" style="stroke:#000000; stroke-linecap:round; stroke-linejoin:round; stroke-width:2; stroke-opacity:0.1; fill:none" points="255.035,1486.45 255.035,47.2441 "/>
<polyline clip-path="url(#clip012)" style="stroke:#000000; stroke-linecap:round; stroke-linejoin:round; stroke-width:2; stroke-opacity:0.1; fill:none" points="579.338,1486.45 579.338,47.2441 "/>
<polyline clip-path="url(#clip012)" style="stroke:#000000; stroke-linecap:round; stroke-linejoin:round; stroke-width:2; stroke-opacity:0.1; fill:none" points="903.641,1486.45 903.641,47.2441 "/>
<polyline clip-path="url(#clip012)" style="stroke:#000000; stroke-linecap:round; stroke-linejoin:round; stroke-width:2; stroke-opacity:0.1; fill:none" points="1227.94,1486.45 1227.94,47.2441 "/>
<polyline clip-path="url(#clip012)" style="stroke:#000000; stroke-linecap:round; stroke-linejoin:round; stroke-width:2; stroke-opacity:0.1; fill:none" points="1552.25,1486.45 1552.25,47.2441 "/>
<polyline clip-path="url(#clip012)" style="stroke:#000000; stroke-linecap:round; stroke-linejoin:round; stroke-width:2; stroke-opacity:0.1; fill:none" points="1876.55,1486.45 1876.55,47.2441 "/>
<polyline clip-path="url(#clip012)" style="stroke:#000000; stroke-linecap:round; stroke-linejoin:round; stroke-width:2; stroke-opacity:0.1; fill:none" points="2200.85,1486.45 2200.85,47.2441 "/>
<polyline clip-path="url(#clip012)" style="stroke:#000000; stroke-linecap:round; stroke-linejoin:round; stroke-width:2; stroke-opacity:0.1; fill:none" points="193.936,1332.61 2352.76,1332.61 "/>
<polyline clip-path="url(#clip012)" style="stroke:#000000; stroke-linecap:round; stroke-linejoin:round; stroke-width:2; stroke-opacity:0.1; fill:none" points="193.936,1075.42 2352.76,1075.42 "/>
<polyline clip-path="url(#clip012)" style="stroke:#000000; stroke-linecap:round; stroke-linejoin:round; stroke-width:2; stroke-opacity:0.1; fill:none" points="193.936,818.244 2352.76,818.244 "/>
<polyline clip-path="url(#clip012)" style="stroke:#000000; stroke-linecap:round; stroke-linejoin:round; stroke-width:2; stroke-opacity:0.1; fill:none" points="193.936,561.063 2352.76,561.063 "/>
<polyline clip-path="url(#clip012)" style="stroke:#000000; stroke-linecap:round; stroke-linejoin:round; stroke-width:2; stroke-opacity:0.1; fill:none" points="193.936,303.882 2352.76,303.882 "/>
<polyline clip-path="url(#clip010)" style="stroke:#000000; stroke-linecap:round; stroke-linejoin:round; stroke-width:4; stroke-opacity:1; fill:none" points="193.936,1486.45 2352.76,1486.45 "/>
<polyline clip-path="url(#clip010)" style="stroke:#000000; stroke-linecap:round; stroke-linejoin:round; stroke-width:4; stroke-opacity:1; fill:none" points="255.035,1486.45 255.035,1467.55 "/>
<polyline clip-path="url(#clip010)" style="stroke:#000000; stroke-linecap:round; stroke-linejoin:round; stroke-width:4; stroke-opacity:1; fill:none" points="579.338,1486.45 579.338,1467.55 "/>
<polyline clip-path="url(#clip010)" style="stroke:#000000; stroke-linecap:round; stroke-linejoin:round; stroke-width:4; stroke-opacity:1; fill:none" points="903.641,1486.45 903.641,1467.55 "/>
<polyline clip-path="url(#clip010)" style="stroke:#000000; stroke-linecap:round; stroke-linejoin:round; stroke-width:4; stroke-opacity:1; fill:none" points="1227.94,1486.45 1227.94,1467.55 "/>
<polyline clip-path="url(#clip010)" style="stroke:#000000; stroke-linecap:round; stroke-linejoin:round; stroke-width:4; stroke-opacity:1; fill:none" points="1552.25,1486.45 1552.25,1467.55 "/>
<polyline clip-path="url(#clip010)" style="stroke:#000000; stroke-linecap:round; stroke-linejoin:round; stroke-width:4; stroke-opacity:1; fill:none" points="1876.55,1486.45 1876.55,1467.55 "/>
<polyline clip-path="url(#clip010)" style="stroke:#000000; stroke-linecap:round; stroke-linejoin:round; stroke-width:4; stroke-opacity:1; fill:none" points="2200.85,1486.45 2200.85,1467.55 "/>
<path clip-path="url(#clip010)" d="M255.035 1517.37 Q251.424 1517.37 249.595 1520.93 Q247.789 1524.47 247.789 1531.6 Q247.789 1538.71 249.595 1542.27 Q251.424 1545.82 255.035 1545.82 Q258.669 1545.82 260.474 1542.27 Q262.303 1538.71 262.303 1531.6 Q262.303 1524.47 260.474 1520.93 Q258.669 1517.37 255.035 1517.37 M255.035 1513.66 Q260.845 1513.66 263.9 1518.27 Q266.979 1522.85 266.979 1531.6 Q266.979 1540.33 263.9 1544.94 Q260.845 1549.52 255.035 1549.52 Q249.225 1549.52 246.146 1544.94 Q243.09 1540.33 243.09 1531.6 Q243.09 1522.85 246.146 1518.27 Q249.225 1513.66 255.035 1513.66 Z" fill="#000000" fill-rule="nonzero" fill-opacity="1" /><path clip-path="url(#clip010)" d="M569.72 1544.91 L577.358 1544.91 L577.358 1518.55 L569.048 1520.21 L569.048 1515.95 L577.312 1514.29 L581.988 1514.29 L581.988 1544.91 L589.627 1544.91 L589.627 1548.85 L569.72 1548.85 L569.72 1544.91 Z" fill="#000000" fill-rule="nonzero" fill-opacity="1" /><path clip-path="url(#clip010)" d="M898.293 1544.91 L914.613 1544.91 L914.613 1548.85 L892.668 1548.85 L892.668 1544.91 Q895.33 1542.16 899.914 1537.53 Q904.52 1532.88 905.701 1531.53 Q907.946 1529.01 908.826 1527.27 Q909.729 1525.51 909.729 1523.82 Q909.729 1521.07 907.784 1519.33 Q905.863 1517.6 902.761 1517.6 Q900.562 1517.6 898.108 1518.36 Q895.678 1519.13 892.9 1520.68 L892.9 1515.95 Q895.724 1514.82 898.178 1514.24 Q900.631 1513.66 902.668 1513.66 Q908.039 1513.66 911.233 1516.35 Q914.428 1519.03 914.428 1523.52 Q914.428 1525.65 913.617 1527.57 Q912.83 1529.47 910.724 1532.07 Q910.145 1532.74 907.043 1535.95 Q903.942 1539.15 898.293 1544.91 Z" fill="#000000" fill-rule="nonzero" fill-opacity="1" /><path clip-path="url(#clip010)" d="M1232.19 1530.21 Q1235.55 1530.93 1237.42 1533.2 Q1239.32 1535.47 1239.32 1538.8 Q1239.32 1543.92 1235.8 1546.72 Q1232.28 1549.52 1225.8 1549.52 Q1223.63 1549.52 1221.31 1549.08 Q1219.02 1548.66 1216.57 1547.81 L1216.57 1543.29 Q1218.51 1544.43 1220.83 1545.01 Q1223.14 1545.58 1225.66 1545.58 Q1230.06 1545.58 1232.35 1543.85 Q1234.67 1542.11 1234.67 1538.8 Q1234.67 1535.75 1232.52 1534.03 Q1230.39 1532.3 1226.57 1532.3 L1222.54 1532.3 L1222.54 1528.45 L1226.75 1528.45 Q1230.2 1528.45 1232.03 1527.09 Q1233.86 1525.7 1233.86 1523.11 Q1233.86 1520.45 1231.96 1519.03 Q1230.08 1517.6 1226.57 1517.6 Q1224.64 1517.6 1222.45 1518.01 Q1220.25 1518.43 1217.61 1519.31 L1217.61 1515.14 Q1220.27 1514.4 1222.58 1514.03 Q1224.92 1513.66 1226.98 1513.66 Q1232.31 1513.66 1235.41 1516.09 Q1238.51 1518.5 1238.51 1522.62 Q1238.51 1525.49 1236.87 1527.48 Q1235.22 1529.45 1232.19 1530.21 Z" fill="#000000" fill-rule="nonzero" fill-opacity="1" /><path clip-path="url(#clip010)" d="M1555.26 1518.36 L1543.45 1536.81 L1555.26 1536.81 L1555.26 1518.36 M1554.03 1514.29 L1559.91 1514.29 L1559.91 1536.81 L1564.84 1536.81 L1564.84 1540.7 L1559.91 1540.7 L1559.91 1548.85 L1555.26 1548.85 L1555.26 1540.7 L1539.65 1540.7 L1539.65 1536.19 L1554.03 1514.29 Z" fill="#000000" fill-rule="nonzero" fill-opacity="1" /><path clip-path="url(#clip010)" d="M1866.83 1514.29 L1885.18 1514.29 L1885.18 1518.22 L1871.11 1518.22 L1871.11 1526.7 Q1872.13 1526.35 1873.15 1526.19 Q1874.17 1526 1875.18 1526 Q1880.97 1526 1884.35 1529.17 Q1887.73 1532.34 1887.73 1537.76 Q1887.73 1543.34 1884.26 1546.44 Q1880.79 1549.52 1874.47 1549.52 Q1872.29 1549.52 1870.02 1549.15 Q1867.78 1548.78 1865.37 1548.04 L1865.37 1543.34 Q1867.45 1544.47 1869.67 1545.03 Q1871.9 1545.58 1874.37 1545.58 Q1878.38 1545.58 1880.72 1543.48 Q1883.05 1541.37 1883.05 1537.76 Q1883.05 1534.15 1880.72 1532.04 Q1878.38 1529.94 1874.37 1529.94 Q1872.5 1529.94 1870.62 1530.35 Q1868.77 1530.77 1866.83 1531.65 L1866.83 1514.29 Z" fill="#000000" fill-rule="nonzero" fill-opacity="1" /><path clip-path="url(#clip010)" d="M2201.26 1529.7 Q2198.11 1529.7 2196.26 1531.86 Q2194.43 1534.01 2194.43 1537.76 Q2194.43 1541.49 2196.26 1543.66 Q2198.11 1545.82 2201.26 1545.82 Q2204.41 1545.82 2206.23 1543.66 Q2208.09 1541.49 2208.09 1537.76 Q2208.09 1534.01 2206.23 1531.86 Q2204.41 1529.7 2201.26 1529.7 M2210.54 1515.05 L2210.54 1519.31 Q2208.78 1518.48 2206.98 1518.04 Q2205.19 1517.6 2203.43 1517.6 Q2198.8 1517.6 2196.35 1520.72 Q2193.92 1523.85 2193.57 1530.17 Q2194.94 1528.15 2197 1527.09 Q2199.06 1526 2201.54 1526 Q2206.74 1526 2209.75 1529.17 Q2212.79 1532.32 2212.79 1537.76 Q2212.79 1543.08 2209.64 1546.3 Q2206.49 1549.52 2201.26 1549.52 Q2195.26 1549.52 2192.09 1544.94 Q2188.92 1540.33 2188.92 1531.6 Q2188.92 1523.41 2192.81 1518.55 Q2196.7 1513.66 2203.25 1513.66 Q2205.01 1513.66 2206.79 1514.01 Q2208.6 1514.36 2210.54 1515.05 Z" fill="#000000" fill-rule="nonzero" fill-opacity="1" /><polyline clip-path="url(#clip010)" style="stroke:#000000; stroke-linecap:round; stroke-linejoin:round; stroke-width:4; stroke-opacity:1; fill:none" points="193.936,1486.45 193.936,47.2441 "/>
<polyline clip-path="url(#clip010)" style="stroke:#000000; stroke-linecap:round; stroke-linejoin:round; stroke-width:4; stroke-opacity:1; fill:none" points="193.936,1332.61 212.834,1332.61 "/>
<polyline clip-path="url(#clip010)" style="stroke:#000000; stroke-linecap:round; stroke-linejoin:round; stroke-width:4; stroke-opacity:1; fill:none" points="193.936,1075.42 212.834,1075.42 "/>
<polyline clip-path="url(#clip010)" style="stroke:#000000; stroke-linecap:round; stroke-linejoin:round; stroke-width:4; stroke-opacity:1; fill:none" points="193.936,818.244 212.834,818.244 "/>
<polyline clip-path="url(#clip010)" style="stroke:#000000; stroke-linecap:round; stroke-linejoin:round; stroke-width:4; stroke-opacity:1; fill:none" points="193.936,561.063 212.834,561.063 "/>
<polyline clip-path="url(#clip010)" style="stroke:#000000; stroke-linecap:round; stroke-linejoin:round; stroke-width:4; stroke-opacity:1; fill:none" points="193.936,303.882 212.834,303.882 "/>
<path clip-path="url(#clip010)" d="M50.9921 1333.06 L80.6679 1333.06 L80.6679 1336.99 L50.9921 1336.99 L50.9921 1333.06 Z" fill="#000000" fill-rule="nonzero" fill-opacity="1" /><path clip-path="url(#clip010)" d="M91.5706 1345.95 L99.2095 1345.95 L99.2095 1319.58 L90.8993 1321.25 L90.8993 1316.99 L99.1632 1315.33 L103.839 1315.33 L103.839 1345.95 L111.478 1345.95 L111.478 1349.89 L91.5706 1349.89 L91.5706 1345.95 Z" fill="#000000" fill-rule="nonzero" fill-opacity="1" /><path clip-path="url(#clip010)" d="M120.922 1344.01 L125.807 1344.01 L125.807 1349.89 L120.922 1349.89 L120.922 1344.01 Z" fill="#000000" fill-rule="nonzero" fill-opacity="1" /><path clip-path="url(#clip010)" d="M145.992 1318.4 Q142.381 1318.4 140.552 1321.97 Q138.746 1325.51 138.746 1332.64 Q138.746 1339.75 140.552 1343.31 Q142.381 1346.85 145.992 1346.85 Q149.626 1346.85 151.431 1343.31 Q153.26 1339.75 153.26 1332.64 Q153.26 1325.51 151.431 1321.97 Q149.626 1318.4 145.992 1318.4 M145.992 1314.7 Q151.802 1314.7 154.857 1319.31 Q157.936 1323.89 157.936 1332.64 Q157.936 1341.37 154.857 1345.97 Q151.802 1350.56 145.992 1350.56 Q140.181 1350.56 137.103 1345.97 Q134.047 1341.37 134.047 1332.64 Q134.047 1323.89 137.103 1319.31 Q140.181 1314.7 145.992 1314.7 Z" fill="#000000" fill-rule="nonzero" fill-opacity="1" /><path clip-path="url(#clip010)" d="M51.9875 1075.88 L81.6633 1075.88 L81.6633 1079.81 L51.9875 1079.81 L51.9875 1075.88 Z" fill="#000000" fill-rule="nonzero" fill-opacity="1" /><path clip-path="url(#clip010)" d="M101.756 1061.22 Q98.1447 1061.22 96.316 1064.79 Q94.5104 1068.33 94.5104 1075.46 Q94.5104 1082.57 96.316 1086.13 Q98.1447 1089.67 101.756 1089.67 Q105.39 1089.67 107.196 1086.13 Q109.024 1082.57 109.024 1075.46 Q109.024 1068.33 107.196 1064.79 Q105.39 1061.22 101.756 1061.22 M101.756 1057.52 Q107.566 1057.52 110.621 1062.13 Q113.7 1066.71 113.7 1075.46 Q113.7 1084.19 110.621 1088.79 Q107.566 1093.38 101.756 1093.38 Q95.9456 1093.38 92.8669 1088.79 Q89.8114 1084.19 89.8114 1075.46 Q89.8114 1066.71 92.8669 1062.13 Q95.9456 1057.52 101.756 1057.52 Z" fill="#000000" fill-rule="nonzero" fill-opacity="1" /><path clip-path="url(#clip010)" d="M121.918 1086.83 L126.802 1086.83 L126.802 1092.7 L121.918 1092.7 L121.918 1086.83 Z" fill="#000000" fill-rule="nonzero" fill-opacity="1" /><path clip-path="url(#clip010)" d="M137.033 1058.14 L155.39 1058.14 L155.39 1062.08 L141.316 1062.08 L141.316 1070.55 Q142.334 1070.2 143.353 1070.04 Q144.371 1069.86 145.39 1069.86 Q151.177 1069.86 154.556 1073.03 Q157.936 1076.2 157.936 1081.62 Q157.936 1087.2 154.464 1090.3 Q150.992 1093.38 144.672 1093.38 Q142.496 1093.38 140.228 1093.01 Q137.982 1092.64 135.575 1091.89 L135.575 1087.2 Q137.658 1088.33 139.881 1088.89 Q142.103 1089.44 144.58 1089.44 Q148.584 1089.44 150.922 1087.33 Q153.26 1085.23 153.26 1081.62 Q153.26 1078.01 150.922 1075.9 Q148.584 1073.79 144.58 1073.79 Q142.705 1073.79 140.83 1074.21 Q138.978 1074.63 137.033 1075.51 L137.033 1058.14 Z" fill="#000000" fill-rule="nonzero" fill-opacity="1" /><path clip-path="url(#clip010)" d="M100.76 804.042 Q97.1493 804.042 95.3206 807.607 Q93.515 811.149 93.515 818.278 Q93.515 825.385 95.3206 828.95 Q97.1493 832.491 100.76 832.491 Q104.395 832.491 106.2 828.95 Q108.029 825.385 108.029 818.278 Q108.029 811.149 106.2 807.607 Q104.395 804.042 100.76 804.042 M100.76 800.339 Q106.571 800.339 109.626 804.945 Q112.705 809.528 112.705 818.278 Q112.705 827.005 109.626 831.612 Q106.571 836.195 100.76 836.195 Q94.9502 836.195 91.8715 831.612 Q88.816 827.005 88.816 818.278 Q88.816 809.528 91.8715 804.945 Q94.9502 800.339 100.76 800.339 Z" fill="#000000" fill-rule="nonzero" fill-opacity="1" /><path clip-path="url(#clip010)" d="M120.922 829.644 L125.807 829.644 L125.807 835.524 L120.922 835.524 L120.922 829.644 Z" fill="#000000" fill-rule="nonzero" fill-opacity="1" /><path clip-path="url(#clip010)" d="M145.992 804.042 Q142.381 804.042 140.552 807.607 Q138.746 811.149 138.746 818.278 Q138.746 825.385 140.552 828.95 Q142.381 832.491 145.992 832.491 Q149.626 832.491 151.431 828.95 Q153.26 825.385 153.26 818.278 Q153.26 811.149 151.431 807.607 Q149.626 804.042 145.992 804.042 M145.992 800.339 Q151.802 800.339 154.857 804.945 Q157.936 809.528 157.936 818.278 Q157.936 827.005 154.857 831.612 Q151.802 836.195 145.992 836.195 Q140.181 836.195 137.103 831.612 Q134.047 827.005 134.047 818.278 Q134.047 809.528 137.103 804.945 Q140.181 800.339 145.992 800.339 Z" fill="#000000" fill-rule="nonzero" fill-opacity="1" /><path clip-path="url(#clip010)" d="M101.756 546.861 Q98.1447 546.861 96.316 550.426 Q94.5104 553.968 94.5104 561.097 Q94.5104 568.204 96.316 571.769 Q98.1447 575.31 101.756 575.31 Q105.39 575.31 107.196 571.769 Q109.024 568.204 109.024 561.097 Q109.024 553.968 107.196 550.426 Q105.39 546.861 101.756 546.861 M101.756 543.158 Q107.566 543.158 110.621 547.764 Q113.7 552.347 113.7 561.097 Q113.7 569.824 110.621 574.431 Q107.566 579.014 101.756 579.014 Q95.9456 579.014 92.8669 574.431 Q89.8114 569.824 89.8114 561.097 Q89.8114 552.347 92.8669 547.764 Q95.9456 543.158 101.756 543.158 Z" fill="#000000" fill-rule="nonzero" fill-opacity="1" /><path clip-path="url(#clip010)" d="M121.918 572.463 L126.802 572.463 L126.802 578.343 L121.918 578.343 L121.918 572.463 Z" fill="#000000" fill-rule="nonzero" fill-opacity="1" /><path clip-path="url(#clip010)" d="M137.033 543.783 L155.39 543.783 L155.39 547.718 L141.316 547.718 L141.316 556.19 Q142.334 555.843 143.353 555.681 Q144.371 555.496 145.39 555.496 Q151.177 555.496 154.556 558.667 Q157.936 561.838 157.936 567.255 Q157.936 572.833 154.464 575.935 Q150.992 579.014 144.672 579.014 Q142.496 579.014 140.228 578.644 Q137.982 578.273 135.575 577.532 L135.575 572.833 Q137.658 573.968 139.881 574.523 Q142.103 575.079 144.58 575.079 Q148.584 575.079 150.922 572.972 Q153.26 570.866 153.26 567.255 Q153.26 563.644 150.922 561.537 Q148.584 559.431 144.58 559.431 Q142.705 559.431 140.83 559.847 Q138.978 560.264 137.033 561.144 L137.033 543.783 Z" fill="#000000" fill-rule="nonzero" fill-opacity="1" /><path clip-path="url(#clip010)" d="M91.5706 317.226 L99.2095 317.226 L99.2095 290.861 L90.8993 292.527 L90.8993 288.268 L99.1632 286.602 L103.839 286.602 L103.839 317.226 L111.478 317.226 L111.478 321.162 L91.5706 321.162 L91.5706 317.226 Z" fill="#000000" fill-rule="nonzero" fill-opacity="1" /><path clip-path="url(#clip010)" d="M120.922 315.282 L125.807 315.282 L125.807 321.162 L120.922 321.162 L120.922 315.282 Z" fill="#000000" fill-rule="nonzero" fill-opacity="1" /><path clip-path="url(#clip010)" d="M145.992 289.68 Q142.381 289.68 140.552 293.245 Q138.746 296.787 138.746 303.916 Q138.746 311.023 140.552 314.588 Q142.381 318.129 145.992 318.129 Q149.626 318.129 151.431 314.588 Q153.26 311.023 153.26 303.916 Q153.26 296.787 151.431 293.245 Q149.626 289.68 145.992 289.68 M145.992 285.977 Q151.802 285.977 154.857 290.583 Q157.936 295.166 157.936 303.916 Q157.936 312.643 154.857 317.25 Q151.802 321.833 145.992 321.833 Q140.181 321.833 137.103 317.25 Q134.047 312.643 134.047 303.916 Q134.047 295.166 137.103 290.583 Q140.181 285.977 145.992 285.977 Z" fill="#000000" fill-rule="nonzero" fill-opacity="1" /><polyline clip-path="url(#clip012)" style="stroke:#009af9; stroke-linecap:round; stroke-linejoin:round; stroke-width:4; stroke-opacity:1; fill:none" points="255.035,818.244 258.278,813.1 261.521,807.957 264.764,802.815 268.007,797.675 271.25,792.536 274.493,787.4 277.736,782.268 280.979,777.139 284.222,772.014 287.465,766.893 290.708,761.778 293.951,756.668 297.194,751.565 300.437,746.468 303.68,741.378 306.923,736.296 310.166,731.223 313.409,726.158 316.652,721.102 319.895,716.056 323.138,711.02 326.381,705.995 329.624,700.981 332.867,695.978 336.11,690.988 339.353,686.011 342.596,681.047 345.84,676.097 349.083,671.161 352.326,666.239 355.569,661.333 358.812,656.443 362.055,651.568 365.298,646.711 368.541,641.87 371.784,637.047 375.027,632.242 378.27,627.456 381.513,622.689 384.756,617.942 387.999,613.214 391.242,608.507 394.485,603.821 397.728,599.157 400.971,594.514 404.214,589.894 407.457,585.296 410.7,580.722 413.943,576.172 417.186,571.645 420.429,567.144 423.672,562.667 426.915,558.216 430.158,553.792 433.401,549.393 436.644,545.022 439.887,540.677 443.13,536.361 446.373,532.073 449.616,527.813 452.859,523.582 456.103,519.381 459.346,515.21 462.589,511.069 465.832,506.959 469.075,502.88 472.318,498.832 475.561,494.816 478.804,490.833 482.047,486.883 485.29,482.965 488.533,479.081 491.776,475.231 495.019,471.416 498.262,467.635 501.505,463.889 504.748,460.178 507.991,456.503 511.234,452.865 514.477,449.263 517.72,445.698 520.963,442.17 524.206,438.68 527.449,435.227 530.692,431.814 533.935,428.438 537.178,425.102 540.421,421.805 543.664,418.547 546.907,415.33 550.15,412.153 553.393,409.016 556.636,405.921 559.879,402.866 563.122,399.854 566.366,396.883 569.609,393.954 572.852,391.067 576.095,388.224 579.338,385.423 582.581,382.665 585.824,379.952 589.067,377.282 592.31,374.656 595.553,372.074 598.796,369.537 602.039,367.045 605.282,364.598 608.525,362.196 611.768,359.84 615.011,357.53 618.254,355.266 621.497,353.048 624.74,350.877 627.983,348.753 631.226,346.675 634.469,344.644 637.712,342.661 640.955,340.726 644.198,338.838 647.441,336.998 650.684,335.207 653.927,333.463 657.17,331.768 660.413,330.122 663.656,328.525 666.899,326.976 670.142,325.477 673.385,324.027 676.629,322.626 679.872,321.275 683.115,319.973 686.358,318.722 689.601,317.52 692.844,316.369 696.087,315.267 699.33,314.216 702.573,313.215 705.816,312.265 709.059,311.366 712.302,310.517 715.545,309.719 718.788,308.971 722.031,308.275 725.274,307.63 728.517,307.035 731.76,306.492 735.003,306 738.246,305.56 741.489,305.17 744.732,304.832 747.975,304.545 751.218,304.31 754.461,304.125 757.704,303.993 760.947,303.912 764.19,303.882 767.433,303.903 770.676,303.976 773.919,304.101 777.162,304.277 780.405,304.504 783.648,304.783 786.892,305.113 790.135,305.494 793.378,305.927 796.621,306.411 799.864,306.946 803.107,307.532 806.35,308.169 809.593,308.857 812.836,309.596 816.079,310.386 819.322,311.227 822.565,312.119 825.808,313.061 829.051,314.053 832.294,315.096 835.537,316.19 838.78,317.333 842.023,318.527 845.266,319.771 848.509,321.064 851.752,322.407 854.995,323.8 858.238,325.242 861.481,326.734 864.724,328.275 867.967,329.864 871.21,331.503 874.453,333.19 877.696,334.926 880.939,336.71 884.182,338.542 887.425,340.422 890.668,342.35 893.911,344.325 897.155,346.348 900.398,348.418 903.641,350.536 906.884,352.699 910.127,354.91 913.37,357.167 916.613,359.469 919.856,361.818 923.099,364.212 926.342,366.652 929.585,369.137 932.828,371.667 936.071,374.242 939.314,376.86 942.557,379.523 945.8,382.23 949.043,384.981 952.286,387.775 955.529,390.612 958.772,393.491 962.015,396.413 965.258,399.378 968.501,402.384 971.744,405.432 974.987,408.521 978.23,411.651 981.473,414.821 984.716,418.032 987.959,421.283 991.202,424.574 994.445,427.904 997.688,431.273 1000.93,434.681 1004.17,438.127 1007.42,441.612 1010.66,445.133 1013.9,448.693 1017.15,452.289 1020.39,455.921 1023.63,459.59 1026.88,463.295 1030.12,467.036 1033.36,470.811 1036.6,474.621 1039.85,478.466 1043.09,482.344 1046.33,486.256 1049.58,490.202 1052.82,494.18 1056.06,498.19 1059.31,502.233 1062.55,506.307 1065.79,510.412 1069.04,514.548 1072.28,518.715 1075.52,522.911 1078.76,527.137 1082.01,531.392 1085.25,535.676 1088.49,539.988 1091.74,544.328 1094.98,548.695 1098.22,553.089 1101.47,557.51 1104.71,561.957 1107.95,566.429 1111.19,570.927 1114.44,575.449 1117.68,579.996 1120.92,584.566 1124.17,589.16 1127.41,593.777 1130.65,598.416 1133.9,603.077 1137.14,607.759 1140.38,612.463 1143.62,617.187 1146.87,621.932 1150.11,626.696 1153.35,631.479 1156.6,636.281 1159.84,641.101 1163.08,645.938 1166.33,650.793 1169.57,655.665 1172.81,660.553 1176.06,665.457 1179.3,670.376 1182.54,675.31 1185.78,680.258 1189.03,685.22 1192.27,690.195 1195.51,695.183 1198.76,700.183 1202,705.195 1205.24,710.219 1208.49,715.253 1211.73,720.297 1214.97,725.352 1218.21,730.415 1221.46,735.488 1224.7,740.568 1227.94,745.657 1231.19,750.753 1234.43,755.855 1237.67,760.964 1240.92,766.078 1244.16,771.198 1247.4,776.322 1250.64,781.451 1253.89,786.583 1257.13,791.718 1260.37,796.856 1263.62,801.996 1266.86,807.138 1270.1,812.281 1273.35,817.424 1276.59,822.568 1279.83,827.711 1283.08,832.853 1286.32,837.994 1289.56,843.133 1292.8,848.269 1296.05,853.402 1299.29,858.532 1302.53,863.658 1305.78,868.779 1309.02,873.895 1312.26,879.006 1315.51,884.11 1318.75,889.208 1321.99,894.299 1325.23,899.382 1328.48,904.457 1331.72,909.524 1334.96,914.581 1338.21,919.629 1341.45,924.666 1344.69,929.693 1347.94,934.709 1351.18,939.713 1354.42,944.705 1357.66,949.684 1360.91,954.65 1364.15,959.603 1367.39,964.541 1370.64,969.465 1373.88,974.374 1377.12,979.267 1380.37,984.144 1383.61,989.004 1386.85,993.847 1390.1,998.673 1393.34,1003.48 1396.58,1008.27 1399.82,1013.04 1403.07,1017.79 1406.31,1022.52 1409.55,1027.23 1412.8,1031.92 1416.04,1036.59 1419.28,1041.24 1422.53,1045.86 1425.77,1050.46 1429.01,1055.04 1432.25,1059.59 1435.5,1064.12 1438.74,1068.63 1441.98,1073.11 1445.23,1077.56 1448.47,1081.99 1451.71,1086.4 1454.96,1090.77 1458.2,1095.12 1461.44,1099.44 1464.68,1103.73 1467.93,1108 1471.17,1112.23 1474.41,1116.44 1477.66,1120.62 1480.9,1124.76 1484.14,1128.88 1487.39,1132.96 1490.63,1137.01 1493.87,1141.03 1497.11,1145.02 1500.36,1148.98 1503.6,1152.9 1506.84,1156.79 1510.09,1160.65 1513.33,1164.47 1516.57,1168.25 1519.82,1172 1523.06,1175.72 1526.3,1179.4 1529.55,1183.05 1532.79,1186.65 1536.03,1190.22 1539.27,1193.76 1542.52,1197.25 1545.76,1200.71 1549,1204.13 1552.25,1207.51 1555.49,1210.86 1558.73,1214.16 1561.98,1217.42 1565.22,1220.65 1568.46,1223.83 1571.7,1226.97 1574.95,1230.08 1578.19,1233.14 1581.43,1236.16 1584.68,1239.13 1587.92,1242.07 1591.16,1244.96 1594.41,1247.81 1597.65,1250.62 1600.89,1253.39 1604.13,1256.11 1607.38,1258.78 1610.62,1261.42 1613.86,1264.01 1617.11,1266.55 1620.35,1269.05 1623.59,1271.5 1626.84,1273.91 1630.08,1276.27 1633.32,1278.59 1636.57,1280.86 1639.81,1283.09 1643.05,1285.27 1646.29,1287.4 1649.54,1289.48 1652.78,1291.52 1656.02,1293.51 1659.27,1295.46 1662.51,1297.35 1665.75,1299.2 1669,1301 1672.24,1302.75 1675.48,1304.45 1678.72,1306.11 1681.97,1307.71 1685.21,1309.27 1688.45,1310.78 1691.7,1312.23 1694.94,1313.64 1698.18,1315 1701.43,1316.31 1704.67,1317.57 1707.91,1318.78 1711.15,1319.94 1714.4,1321.05 1717.64,1322.11 1720.88,1323.12 1724.13,1324.07 1727.37,1324.98 1730.61,1325.84 1733.86,1326.64 1737.1,1327.4 1740.34,1328.1 1743.59,1328.76 1746.83,1329.36 1750.07,1329.91 1753.31,1330.41 1756.56,1330.86 1759.8,1331.26 1763.04,1331.6 1766.29,1331.9 1769.53,1332.14 1772.77,1332.34 1776.02,1332.48 1779.26,1332.57 1782.5,1332.6 1785.74,1332.59 1788.99,1332.53 1792.23,1332.41 1795.47,1332.24 1798.72,1332.02 1801.96,1331.75 1805.2,1331.43 1808.45,1331.06 1811.69,1330.63 1814.93,1330.16 1818.17,1329.63 1821.42,1329.05 1824.66,1328.42 1827.9,1327.74 1831.15,1327.01 1834.39,1326.23 1837.63,1325.4 1840.88,1324.51 1844.12,1323.58 1847.36,1322.6 1850.61,1321.56 1853.85,1320.47 1857.09,1319.34 1860.33,1318.15 1863.58,1316.92 1866.82,1315.63 1870.06,1314.3 1873.31,1312.91 1876.55,1311.48 1879.79,1309.99 1883.04,1308.46 1886.28,1306.88 1889.52,1305.25 1892.76,1303.57 1896.01,1301.84 1899.25,1300.06 1902.49,1298.24 1905.74,1296.37 1908.98,1294.45 1912.22,1292.48 1915.47,1290.46 1918.71,1288.4 1921.95,1286.29 1925.19,1284.14 1928.44,1281.93 1931.68,1279.68 1934.92,1277.39 1938.17,1275.05 1941.41,1272.66 1944.65,1270.23 1947.9,1267.75 1951.14,1265.23 1954.38,1262.66 1957.63,1260.05 1960.87,1257.39 1964.11,1254.69 1967.35,1251.95 1970.6,1249.16 1973.84,1246.33 1977.08,1243.46 1980.33,1240.54 1983.57,1237.58 1986.81,1234.59 1990.06,1231.54 1993.3,1228.46 1996.54,1225.34 1999.78,1222.17 2003.03,1218.97 2006.27,1215.72 2009.51,1212.44 2012.76,1209.12 2016,1205.75 2019.24,1202.35 2022.49,1198.91 2025.73,1195.43 2028.97,1191.92 2032.21,1188.36 2035.46,1184.77 2038.7,1181.15 2041.94,1177.48 2045.19,1173.78 2048.43,1170.05 2051.67,1166.28 2054.92,1162.48 2058.16,1158.64 2061.4,1154.76 2064.65,1150.86 2067.89,1146.92 2071.13,1142.94 2074.37,1138.94 2077.62,1134.9 2080.86,1130.83 2084.1,1126.73 2087.35,1122.6 2090.59,1118.44 2093.83,1114.25 2097.08,1110.03 2100.32,1105.77 2103.56,1101.5 2106.8,1097.19 2110.05,1092.85 2113.29,1088.49 2116.53,1084.1 2119.78,1079.68 2123.02,1075.24 2126.26,1070.77 2129.51,1066.28 2132.75,1061.76 2135.99,1057.22 2139.23,1052.65 2142.48,1048.06 2145.72,1043.45 2148.96,1038.81 2152.21,1034.15 2155.45,1029.48 2158.69,1024.77 2161.94,1020.05 2165.18,1015.31 2168.42,1010.55 2171.67,1005.77 2174.91,1000.97 2178.15,996.155 2181.39,991.32 2184.64,986.468 2187.88,981.599 2191.12,976.714 2194.37,971.812 2197.61,966.896 2200.85,961.964 2204.1,957.018 2207.34,952.059 2210.58,947.086 2213.82,942.1 2217.07,937.101 2220.31,932.091 2223.55,927.069 2226.8,922.037 2230.04,916.994 2233.28,911.941 2236.53,906.879 2239.77,901.808 2243.01,896.729 2246.25,891.641 2249.5,886.547 2252.74,881.445 2255.98,876.338 2259.23,871.224 2262.47,866.105 2265.71,860.982 2268.96,855.854 2272.2,850.722 2275.44,845.587 2278.69,840.45 2281.93,835.31 2285.17,830.168 2288.41,825.025 2291.66,819.882 "/>
<circle clip-path="url(#clip012)" cx="319.895" cy="802.329" r="14.4" fill="#e26f46" fill-rule="evenodd" fill-opacity="1" stroke="#000000" stroke-opacity="1" stroke-width="3.2"/>
<circle clip-path="url(#clip012)" cx="2061.4" cy="1164.88" r="14.4" fill="#e26f46" fill-rule="evenodd" fill-opacity="1" stroke="#000000" stroke-opacity="1" stroke-width="3.2"/>
<circle clip-path="url(#clip012)" cx="1571.7" cy="1342.37" r="14.4" fill="#e26f46" fill-rule="evenodd" fill-opacity="1" stroke="#000000" stroke-opacity="1" stroke-width="3.2"/>
<circle clip-path="url(#clip012)" cx="1065.79" cy="513.449" r="14.4" fill="#e26f46" fill-rule="evenodd" fill-opacity="1" stroke="#000000" stroke-opacity="1" stroke-width="3.2"/>
<circle clip-path="url(#clip012)" cx="2035.46" cy="1177.21" r="14.4" fill="#e26f46" fill-rule="evenodd" fill-opacity="1" stroke="#000000" stroke-opacity="1" stroke-width="3.2"/>
<circle clip-path="url(#clip012)" cx="1857.09" cy="1260.12" r="14.4" fill="#e26f46" fill-rule="evenodd" fill-opacity="1" stroke="#000000" stroke-opacity="1" stroke-width="3.2"/>
<circle clip-path="url(#clip012)" cx="452.859" cy="566.345" r="14.4" fill="#e26f46" fill-rule="evenodd" fill-opacity="1" stroke="#000000" stroke-opacity="1" stroke-width="3.2"/>
<circle clip-path="url(#clip012)" cx="1977.08" cy="1173.06" r="14.4" fill="#e26f46" fill-rule="evenodd" fill-opacity="1" stroke="#000000" stroke-opacity="1" stroke-width="3.2"/>
<circle clip-path="url(#clip012)" cx="1309.02" cy="820.303" r="14.4" fill="#e26f46" fill-rule="evenodd" fill-opacity="1" stroke="#000000" stroke-opacity="1" stroke-width="3.2"/>
<circle clip-path="url(#clip012)" cx="1662.51" cy="1199.28" r="14.4" fill="#e26f46" fill-rule="evenodd" fill-opacity="1" stroke="#000000" stroke-opacity="1" stroke-width="3.2"/>
<circle clip-path="url(#clip012)" cx="686.358" cy="272.444" r="14.4" fill="#e26f46" fill-rule="evenodd" fill-opacity="1" stroke="#000000" stroke-opacity="1" stroke-width="3.2"/>
<circle clip-path="url(#clip012)" cx="1873.31" cy="1332.69" r="14.4" fill="#e26f46" fill-rule="evenodd" fill-opacity="1" stroke="#000000" stroke-opacity="1" stroke-width="3.2"/>
<circle clip-path="url(#clip012)" cx="890.668" cy="227.044" r="14.4" fill="#e26f46" fill-rule="evenodd" fill-opacity="1" stroke="#000000" stroke-opacity="1" stroke-width="3.2"/>
<circle clip-path="url(#clip012)" cx="1814.93" cy="1249.82" r="14.4" fill="#e26f46" fill-rule="evenodd" fill-opacity="1" stroke="#000000" stroke-opacity="1" stroke-width="3.2"/>
<circle clip-path="url(#clip012)" cx="1091.74" cy="611.564" r="14.4" fill="#e26f46" fill-rule="evenodd" fill-opacity="1" stroke="#000000" stroke-opacity="1" stroke-width="3.2"/>
<circle clip-path="url(#clip012)" cx="1146.87" cy="532.83" r="14.4" fill="#e26f46" fill-rule="evenodd" fill-opacity="1" stroke="#000000" stroke-opacity="1" stroke-width="3.2"/>
<circle clip-path="url(#clip012)" cx="1153.35" cy="668.929" r="14.4" fill="#e26f46" fill-rule="evenodd" fill-opacity="1" stroke="#000000" stroke-opacity="1" stroke-width="3.2"/>
<circle clip-path="url(#clip012)" cx="1925.19" cy="1361.11" r="14.4" fill="#e26f46" fill-rule="evenodd" fill-opacity="1" stroke="#000000" stroke-opacity="1" stroke-width="3.2"/>
<circle clip-path="url(#clip012)" cx="2174.91" cy="1040.5" r="14.4" fill="#e26f46" fill-rule="evenodd" fill-opacity="1" stroke="#000000" stroke-opacity="1" stroke-width="3.2"/>
<circle clip-path="url(#clip012)" cx="2187.88" cy="1073.89" r="14.4" fill="#e26f46" fill-rule="evenodd" fill-opacity="1" stroke="#000000" stroke-opacity="1" stroke-width="3.2"/>
<path clip-path="url(#clip012)" d="M255.035 1072.83 L258.278 1068.21 L261.521 1063.57 L264.764 1058.9 L268.007 1054.22 L271.25 1049.52 L274.493 1044.81 L277.736 1040.1 L280.979 1035.39 L284.222 1030.68 L287.465 1025.97 L290.708 1021.29 L293.951 1016.61 L297.194 1011.97 L300.437 1007.35 L303.68 1002.77 L306.923 998.222 L310.166 993.724 L313.409 989.278 L316.652 984.89 L319.895 980.564 L323.138 976.305 L326.381 972.11 L329.624 967.974 L332.867 963.894 L336.11 959.865 L339.353 955.882 L342.596 951.941 L345.84 948.037 L349.083 944.167 L352.326 940.325 L355.569 936.509 L358.812 932.715 L362.055 928.938 L365.298 925.177 L368.541 921.428 L371.784 917.69 L375.027 913.96 L378.27 910.238 L381.513 906.521 L384.756 902.809 L387.999 899.103 L391.242 895.402 L394.485 891.707 L397.728 888.019 L400.971 884.34 L404.214 880.672 L407.457 877.018 L410.7 873.38 L413.943 869.761 L417.186 866.166 L420.429 862.598 L423.672 859.062 L426.915 855.563 L430.158 852.105 L433.401 848.695 L436.644 845.337 L439.887 842.038 L443.13 838.803 L446.373 835.639 L449.616 832.551 L452.859 829.546 L456.103 826.627 L459.346 823.789 L462.589 821.025 L465.832 818.326 L469.075 815.686 L472.318 813.095 L475.561 810.548 L478.804 808.037 L482.047 805.554 L485.29 803.094 L488.533 800.649 L491.776 798.214 L495.019 795.783 L498.262 793.349 L501.505 790.908 L504.748 788.455 L507.991 785.984 L511.234 783.493 L514.477 780.975 L517.72 778.429 L520.963 775.85 L524.206 773.235 L527.449 770.582 L530.692 767.887 L533.935 765.148 L537.178 762.365 L540.421 759.534 L543.664 756.654 L546.907 753.725 L550.15 750.745 L553.393 747.714 L556.636 744.631 L559.879 741.496 L563.122 738.31 L566.366 735.073 L569.609 731.785 L572.852 728.448 L576.095 725.063 L579.338 721.63 L582.581 718.153 L585.824 714.632 L589.067 711.071 L592.31 707.471 L595.553 703.835 L598.796 700.168 L602.039 696.47 L605.282 692.748 L608.525 689.003 L611.768 685.241 L615.011 681.466 L618.254 677.683 L621.497 673.896 L624.74 670.112 L627.983 666.336 L631.226 662.573 L634.469 658.831 L637.712 655.116 L640.955 651.434 L644.198 647.793 L647.441 644.2 L650.684 640.664 L653.927 637.191 L657.17 633.792 L660.413 630.473 L663.656 627.244 L666.899 624.114 L670.142 621.091 L673.385 618.186 L676.629 615.408 L679.872 612.765 L683.115 610.268 L686.358 607.925 L689.601 605.744 L692.844 603.718 L696.087 601.84 L699.33 600.1 L702.573 598.492 L705.816 597.005 L709.059 595.633 L712.302 594.366 L715.545 593.197 L718.788 592.119 L722.031 591.123 L725.274 590.203 L728.517 589.352 L731.76 588.562 L735.003 587.828 L738.246 587.144 L741.489 586.503 L744.732 585.902 L747.975 585.333 L751.218 584.794 L754.461 584.279 L757.704 583.785 L760.947 583.307 L764.19 582.844 L767.433 582.391 L770.676 581.947 L773.919 581.509 L777.162 581.075 L780.405 580.644 L783.648 580.214 L786.892 579.786 L790.135 579.357 L793.378 578.929 L796.621 578.501 L799.864 578.075 L803.107 577.65 L806.35 577.228 L809.593 576.811 L812.836 576.4 L816.079 575.999 L819.322 575.609 L822.565 575.233 L825.808 574.875 L829.051 574.539 L832.294 574.227 L835.537 573.946 L838.78 573.699 L842.023 573.491 L845.266 573.328 L848.509 573.215 L851.752 573.159 L854.995 573.165 L858.238 573.24 L861.481 573.392 L864.724 573.627 L867.967 573.953 L871.21 574.377 L874.453 574.908 L877.696 575.553 L880.939 576.321 L884.182 577.22 L887.425 578.259 L890.668 579.445 L893.911 580.784 L897.155 582.27 L900.398 583.892 L903.641 585.64 L906.884 587.505 L910.127 589.476 L913.37 591.544 L916.613 593.7 L919.856 595.934 L923.099 598.237 L926.342 600.601 L929.585 603.017 L932.828 605.476 L936.071 607.972 L939.314 610.496 L942.557 613.042 L945.8 615.603 L949.043 618.171 L952.286 620.743 L955.529 623.31 L958.772 625.87 L962.015 628.415 L965.258 630.943 L968.501 633.448 L971.744 635.927 L974.987 638.377 L978.23 640.795 L981.473 643.178 L984.716 645.524 L987.959 647.832 L991.202 650.099 L994.445 652.326 L997.688 654.511 L1000.93 656.656 L1004.17 658.759 L1007.42 660.823 L1010.66 662.848 L1013.9 664.837 L1017.15 666.792 L1020.39 668.715 L1023.63 670.611 L1026.88 672.483 L1030.12 674.336 L1033.36 676.175 L1036.6 678.006 L1039.85 679.835 L1043.09 681.669 L1046.33 683.516 L1049.58 685.384 L1052.82 687.282 L1056.06 689.219 L1059.31 691.206 L1062.55 693.252 L1065.79 695.368 L1069.04 697.564 L1072.28 699.845 L1075.52 702.211 L1078.76 704.667 L1082.01 707.214 L1085.25 709.856 L1088.49 712.598 L1091.74 715.442 L1094.98 718.393 L1098.22 721.45 L1101.47 724.612 L1104.71 727.88 L1107.95 731.252 L1111.19 734.731 L1114.44 738.317 L1117.68 742.011 L1120.92 745.816 L1124.17 749.735 L1127.41 753.77 L1130.65 757.927 L1133.9 762.209 L1137.14 766.621 L1140.38 771.169 L1143.62 775.857 L1146.87 780.691 L1150.11 785.675 L1153.35 790.803 L1156.6 796.068 L1159.84 801.456 L1163.08 806.955 L1166.33 812.551 L1169.57 818.232 L1172.81 823.986 L1176.06 829.8 L1179.3 835.665 L1182.54 841.569 L1185.78 847.504 L1189.03 853.46 L1192.27 859.429 L1195.51 865.404 L1198.76 871.379 L1202 877.347 L1205.24 883.302 L1208.49 889.241 L1211.73 895.159 L1214.97 901.053 L1218.21 906.919 L1221.46 912.756 L1224.7 918.562 L1227.94 924.336 L1231.19 930.077 L1234.43 935.786 L1237.67 941.461 L1240.92 947.105 L1244.16 952.719 L1247.4 958.304 L1250.64 963.862 L1253.89 969.397 L1257.13 974.912 L1260.37 980.409 L1263.62 985.892 L1266.86 991.366 L1270.1 996.836 L1273.35 1002.31 L1276.59 1007.78 L1279.83 1013.27 L1283.08 1018.77 L1286.32 1024.29 L1289.56 1029.84 L1292.8 1035.43 L1296.05 1041.06 L1299.29 1046.73 L1302.53 1052.46 L1305.78 1058.25 L1309.02 1064.11 L1312.26 1070.04 L1315.51 1076.03 L1318.75 1082.08 L1321.99 1088.19 L1325.23 1094.35 L1328.48 1100.54 L1331.72 1106.76 L1334.96 1113.02 L1338.21 1119.29 L1341.45 1125.58 L1344.69 1131.87 L1347.94 1138.17 L1351.18 1144.46 L1354.42 1150.74 L1357.66 1157.01 L1360.91 1163.25 L1364.15 1169.47 L1367.39 1175.66 L1370.64 1181.82 L1373.88 1187.93 L1377.12 1194 L1380.37 1200.03 L1383.61 1206 L1386.85 1211.91 L1390.1 1217.77 L1393.34 1223.56 L1396.58 1229.29 L1399.82 1234.95 L1403.07 1240.53 L1406.31 1246.04 L1409.55 1251.48 L1412.8 1256.83 L1416.04 1262.1 L1419.28 1267.29 L1422.53 1272.39 L1425.77 1277.41 L1429.01 1282.33 L1432.25 1287.16 L1435.5 1291.9 L1438.74 1296.55 L1441.98 1301.1 L1445.23 1305.55 L1448.47 1309.9 L1451.71 1314.15 L1454.96 1318.3 L1458.2 1322.36 L1461.44 1326.31 L1464.68 1330.15 L1467.93 1333.9 L1471.17 1337.54 L1474.41 1341.08 L1477.66 1344.52 L1480.9 1347.85 L1484.14 1351.09 L1487.39 1354.22 L1490.63 1357.24 L1493.87 1360.17 L1497.11 1363 L1500.36 1365.72 L1503.6 1368.35 L1506.84 1370.89 L1510.09 1373.33 L1513.33 1375.67 L1516.57 1377.93 L1519.82 1380.09 L1523.06 1382.17 L1526.3 1384.16 L1529.55 1386.07 L1532.79 1387.91 L1536.03 1389.66 L1539.27 1391.35 L1542.52 1392.96 L1545.76 1394.52 L1549 1396 L1552.25 1397.44 L1555.49 1398.81 L1558.73 1400.14 L1561.98 1401.43 L1565.22 1402.67 L1568.46 1403.88 L1571.7 1405.05 L1574.95 1406.2 L1578.19 1407.31 L1581.43 1408.4 L1584.68 1409.47 L1587.92 1410.5 L1591.16 1411.51 L1594.41 1412.49 L1597.65 1413.45 L1600.89 1414.38 L1604.13 1415.29 L1607.38 1416.18 L1610.62 1417.04 L1613.86 1417.88 L1617.11 1418.7 L1620.35 1419.5 L1623.59 1420.29 L1626.84 1421.06 L1630.08 1421.83 L1633.32 1422.58 L1636.57 1423.33 L1639.81 1424.09 L1643.05 1424.84 L1646.29 1425.6 L1649.54 1426.37 L1652.78 1427.16 L1656.02 1427.97 L1659.27 1428.8 L1662.51 1429.67 L1665.75 1430.56 L1669 1431.48 L1672.24 1432.42 L1675.48 1433.38 L1678.72 1434.33 L1681.97 1435.29 L1685.21 1436.23 L1688.45 1437.16 L1691.7 1438.07 L1694.94 1438.95 L1698.18 1439.8 L1701.43 1440.6 L1704.67 1441.37 L1707.91 1442.08 L1711.15 1442.74 L1714.4 1443.34 L1717.64 1443.88 L1720.88 1444.36 L1724.13 1444.77 L1727.37 1445.11 L1730.61 1445.37 L1733.86 1445.56 L1737.1 1445.68 L1740.34 1445.72 L1743.59 1445.68 L1746.83 1445.56 L1750.07 1445.36 L1753.31 1445.08 L1756.56 1444.73 L1759.8 1444.3 L1763.04 1443.8 L1766.29 1443.22 L1769.53 1442.57 L1772.77 1441.86 L1776.02 1441.08 L1779.26 1440.23 L1782.5 1439.33 L1785.74 1438.38 L1788.99 1437.38 L1792.23 1436.34 L1795.47 1435.26 L1798.72 1434.15 L1801.96 1433.01 L1805.2 1431.86 L1808.45 1430.71 L1811.69 1429.55 L1814.93 1428.39 L1818.17 1427.26 L1821.42 1426.14 L1824.66 1425.03 L1827.9 1423.94 L1831.15 1422.86 L1834.39 1421.81 L1837.63 1420.77 L1840.88 1419.75 L1844.12 1418.75 L1847.36 1417.77 L1850.61 1416.82 L1853.85 1415.9 L1857.09 1415.01 L1860.33 1414.15 L1863.58 1413.32 L1866.82 1412.52 L1870.06 1411.74 L1873.31 1410.98 L1876.55 1410.23 L1879.79 1409.48 L1883.04 1408.72 L1886.28 1407.95 L1889.52 1407.17 L1892.76 1406.35 L1896.01 1405.5 L1899.25 1404.62 L1902.49 1403.68 L1905.74 1402.7 L1908.98 1401.67 L1912.22 1400.58 L1915.47 1399.44 L1918.71 1398.23 L1921.95 1396.97 L1925.19 1395.64 L1928.44 1394.26 L1931.68 1392.81 L1934.92 1391.29 L1938.17 1389.71 L1941.41 1388.07 L1944.65 1386.37 L1947.9 1384.61 L1951.14 1382.78 L1954.38 1380.9 L1957.63 1378.97 L1960.87 1376.98 L1964.11 1374.96 L1967.35 1372.89 L1970.6 1370.79 L1973.84 1368.67 L1977.08 1366.53 L1980.33 1364.37 L1983.57 1362.2 L1986.81 1360.01 L1990.06 1357.8 L1993.3 1355.58 L1996.54 1353.34 L1999.78 1351.08 L2003.03 1348.8 L2006.27 1346.51 L2009.51 1344.2 L2012.76 1341.88 L2016 1339.56 L2019.24 1337.23 L2022.49 1334.91 L2025.73 1332.59 L2028.97 1330.28 L2032.21 1328 L2035.46 1325.73 L2038.7 1323.5 L2041.94 1321.3 L2045.19 1319.12 L2048.43 1316.98 L2051.67 1314.86 L2054.92 1312.78 L2058.16 1310.72 L2061.4 1308.69 L2064.65 1306.69 L2067.89 1304.72 L2071.13 1302.76 L2074.37 1300.82 L2077.62 1298.88 L2080.86 1296.95 L2084.1 1295.01 L2087.35 1293.07 L2090.59 1291.12 L2093.83 1289.16 L2097.08 1287.18 L2100.32 1285.19 L2103.56 1283.19 L2106.8 1281.18 L2110.05 1279.15 L2113.29 1277.12 L2116.53 1275.08 L2119.78 1273.03 L2123.02 1270.99 L2126.26 1268.96 L2129.51 1266.94 L2132.75 1264.94 L2135.99 1262.96 L2139.23 1261.03 L2142.48 1259.14 L2145.72 1257.3 L2148.96 1255.53 L2152.21 1253.84 L2155.45 1252.23 L2158.69 1250.73 L2161.94 1249.33 L2165.18 1248.06 L2168.42 1246.93 L2171.67 1245.95 L2174.91 1245.12 L2178.15 1244.47 L2181.39 1244 L2184.64 1243.69 L2187.88 1243.57 L2191.12 1243.62 L2194.37 1243.83 L2197.61 1244.2 L2200.85 1244.71 L2204.1 1245.37 L2207.34 1246.15 L2210.58 1247.04 L2213.82 1248.05 L2217.07 1249.15 L2220.31 1250.35 L2223.55 1251.63 L2226.8 1252.98 L2230.04 1254.4 L2233.28 1255.88 L2236.53 1257.42 L2239.77 1259 L2243.01 1260.62 L2246.25 1262.28 L2249.5 1263.97 L2252.74 1265.68 L2255.98 1267.42 L2259.23 1269.17 L2262.47 1270.94 L2265.71 1272.71 L2268.96 1274.49 L2272.2 1276.28 L2275.44 1278.06 L2278.69 1279.84 L2281.93 1281.61 L2285.17 1283.38 L2288.41 1285.14 L2291.66 1286.89 L2291.66 679.47 L2288.41 685.006 L2285.17 690.586 L2281.93 696.207 L2278.69 701.867 L2275.44 707.564 L2272.2 713.295 L2268.96 719.057 L2265.71 724.848 L2262.47 730.664 L2259.23 736.502 L2255.98 742.358 L2252.74 748.227 L2249.5 754.106 L2246.25 759.99 L2243.01 765.873 L2239.77 771.75 L2236.53 777.616 L2233.28 783.464 L2230.04 789.288 L2226.8 795.08 L2223.55 800.833 L2220.31 806.54 L2217.07 812.192 L2213.82 817.78 L2210.58 823.296 L2207.34 828.73 L2204.1 834.072 L2200.85 839.313 L2197.61 844.443 L2194.37 849.451 L2191.12 854.326 L2187.88 859.06 L2184.64 863.643 L2181.39 868.075 L2178.15 872.359 L2174.91 876.496 L2171.67 880.491 L2168.42 884.353 L2165.18 888.095 L2161.94 891.728 L2158.69 895.264 L2155.45 898.715 L2152.21 902.093 L2148.96 905.408 L2145.72 908.671 L2142.48 911.893 L2139.23 915.083 L2135.99 918.25 L2132.75 921.402 L2129.51 924.547 L2126.26 927.691 L2123.02 930.841 L2119.78 934.001 L2116.53 937.177 L2113.29 940.37 L2110.05 943.585 L2106.8 946.822 L2103.56 950.083 L2100.32 953.369 L2097.08 956.677 L2093.83 960.007 L2090.59 963.357 L2087.35 966.723 L2084.1 970.102 L2080.86 973.489 L2077.62 976.879 L2074.37 980.266 L2071.13 983.644 L2067.89 987.005 L2064.65 990.342 L2061.4 993.647 L2058.16 996.913 L2054.92 1000.14 L2051.67 1003.32 L2048.43 1006.47 L2045.19 1009.57 L2041.94 1012.63 L2038.7 1015.65 L2035.46 1018.62 L2032.21 1021.54 L2028.97 1024.42 L2025.73 1027.27 L2022.49 1030.08 L2019.24 1032.87 L2016 1035.63 L2012.76 1038.38 L2009.51 1041.11 L2006.27 1043.83 L2003.03 1046.54 L1999.78 1049.23 L1996.54 1051.91 L1993.3 1054.58 L1990.06 1057.24 L1986.81 1059.89 L1983.57 1062.52 L1980.33 1065.12 L1977.08 1067.7 L1973.84 1070.26 L1970.6 1072.79 L1967.35 1075.28 L1964.11 1077.75 L1960.87 1080.2 L1957.63 1082.61 L1954.38 1084.98 L1951.14 1087.32 L1947.9 1089.62 L1944.65 1091.87 L1941.41 1094.07 L1938.17 1096.21 L1934.92 1098.29 L1931.68 1100.29 L1928.44 1102.21 L1925.19 1104.04 L1921.95 1105.77 L1918.71 1107.4 L1915.47 1108.93 L1912.22 1110.36 L1908.98 1111.7 L1905.74 1112.94 L1902.49 1114.09 L1899.25 1115.13 L1896.01 1116.08 L1892.76 1116.91 L1889.52 1117.64 L1886.28 1118.24 L1883.04 1118.73 L1879.79 1119.08 L1876.55 1119.3 L1873.31 1119.37 L1870.06 1119.3 L1866.82 1119.07 L1863.58 1118.69 L1860.33 1118.17 L1857.09 1117.5 L1853.85 1116.69 L1850.61 1115.75 L1847.36 1114.68 L1844.12 1113.49 L1840.88 1112.19 L1837.63 1110.79 L1834.39 1109.29 L1831.15 1107.7 L1827.9 1106.03 L1824.66 1104.28 L1821.42 1102.45 L1818.17 1100.56 L1814.93 1098.6 L1811.69 1096.57 L1808.45 1094.5 L1805.2 1092.39 L1801.96 1090.24 L1798.72 1088.08 L1795.47 1085.9 L1792.23 1083.72 L1788.99 1081.55 L1785.74 1079.39 L1782.5 1077.25 L1779.26 1075.14 L1776.02 1073.06 L1772.77 1071.02 L1769.53 1069.02 L1766.29 1067.08 L1763.04 1065.18 L1759.8 1063.34 L1756.56 1061.55 L1753.31 1059.83 L1750.07 1058.17 L1746.83 1056.57 L1743.59 1055.04 L1740.34 1053.57 L1737.1 1052.16 L1733.86 1050.83 L1730.61 1049.55 L1727.37 1048.34 L1724.13 1047.18 L1720.88 1046.09 L1717.64 1045.05 L1714.4 1044.06 L1711.15 1043.13 L1707.91 1042.23 L1704.67 1041.38 L1701.43 1040.56 L1698.18 1039.77 L1694.94 1039.01 L1691.7 1038.26 L1688.45 1037.53 L1685.21 1036.8 L1681.97 1036.07 L1678.72 1035.33 L1675.48 1034.56 L1672.24 1033.78 L1669 1032.95 L1665.75 1032.09 L1662.51 1031.17 L1659.27 1030.19 L1656.02 1029.14 L1652.78 1028.04 L1649.54 1026.87 L1646.29 1025.64 L1643.05 1024.34 L1639.81 1022.98 L1636.57 1021.55 L1633.32 1020.04 L1630.08 1018.47 L1626.84 1016.83 L1623.59 1015.1 L1620.35 1013.3 L1617.11 1011.41 L1613.86 1009.43 L1610.62 1007.35 L1607.38 1005.18 L1604.13 1002.91 L1600.89 1000.52 L1597.65 998.021 L1594.41 995.397 L1591.16 992.643 L1587.92 989.752 L1584.68 986.717 L1581.43 983.53 L1578.19 980.183 L1574.95 976.668 L1571.7 972.978 L1568.46 969.107 L1565.22 965.063 L1561.98 960.857 L1558.73 956.5 L1555.49 952.004 L1552.25 947.378 L1549 942.633 L1545.76 937.779 L1542.52 932.826 L1539.27 927.783 L1536.03 922.66 L1532.79 917.465 L1529.55 912.207 L1526.3 906.895 L1523.06 901.535 L1519.82 896.136 L1516.57 890.705 L1513.33 885.249 L1510.09 879.773 L1506.84 874.285 L1503.6 868.791 L1500.36 863.295 L1497.11 857.803 L1493.87 852.321 L1490.63 846.853 L1487.39 841.403 L1484.14 835.977 L1480.9 830.577 L1477.66 825.207 L1474.41 819.872 L1471.17 814.574 L1467.93 809.316 L1464.68 804.102 L1461.44 798.934 L1458.2 793.814 L1454.96 788.745 L1451.71 783.729 L1448.47 778.767 L1445.23 773.862 L1441.98 769.014 L1438.74 764.226 L1435.5 759.497 L1432.25 754.83 L1429.01 750.225 L1425.77 745.683 L1422.53 741.204 L1419.28 736.788 L1416.04 732.436 L1412.8 728.147 L1409.55 723.921 L1406.31 719.759 L1403.07 715.658 L1399.82 711.618 L1396.58 707.639 L1393.34 703.719 L1390.1 699.858 L1386.85 696.052 L1383.61 692.301 L1380.37 688.603 L1377.12 684.955 L1373.88 681.356 L1370.64 677.802 L1367.39 674.291 L1364.15 670.82 L1360.91 667.386 L1357.66 663.986 L1354.42 660.615 L1351.18 657.271 L1347.94 653.948 L1344.69 650.643 L1341.45 647.352 L1338.21 644.07 L1334.96 640.792 L1331.72 637.513 L1328.48 634.228 L1325.23 630.933 L1321.99 627.622 L1318.75 624.289 L1315.51 620.929 L1312.26 617.538 L1309.02 614.11 L1305.78 610.642 L1302.53 607.137 L1299.29 603.602 L1296.05 600.043 L1292.8 596.466 L1289.56 592.877 L1286.32 589.283 L1283.08 585.688 L1279.83 582.099 L1276.59 578.521 L1273.35 574.96 L1270.1 571.42 L1266.86 567.908 L1263.62 564.427 L1260.37 560.981 L1257.13 557.576 L1253.89 554.213 L1250.64 550.898 L1247.4 547.632 L1244.16 544.418 L1240.92 541.258 L1237.67 538.155 L1234.43 535.109 L1231.19 532.122 L1227.94 529.193 L1224.7 526.323 L1221.46 523.512 L1218.21 520.758 L1214.97 518.059 L1211.73 515.415 L1208.49 512.822 L1205.24 510.277 L1202 507.776 L1198.76 505.316 L1195.51 502.891 L1192.27 500.495 L1189.03 498.123 L1185.78 495.768 L1182.54 493.422 L1179.3 491.077 L1176.06 488.724 L1172.81 486.353 L1169.57 483.955 L1166.33 481.519 L1163.08 479.033 L1159.84 476.485 L1156.6 473.865 L1153.35 471.158 L1150.11 468.356 L1146.87 465.452 L1143.62 462.447 L1140.38 459.341 L1137.14 456.136 L1133.9 452.833 L1130.65 449.432 L1127.41 445.935 L1124.17 442.343 L1120.92 438.656 L1117.68 434.872 L1114.44 430.992 L1111.19 427.014 L1107.95 422.935 L1104.71 418.754 L1101.47 414.467 L1098.22 410.072 L1094.98 405.564 L1091.74 400.939 L1088.49 396.195 L1085.25 391.337 L1082.01 386.37 L1078.76 381.301 L1075.52 376.135 L1072.28 370.879 L1069.04 365.536 L1065.79 360.113 L1062.55 354.614 L1059.31 349.052 L1056.06 343.437 L1052.82 337.782 L1049.58 332.099 L1046.33 326.397 L1043.09 320.687 L1039.85 314.979 L1036.6 309.281 L1033.36 303.604 L1030.12 297.954 L1026.88 292.339 L1023.63 286.766 L1020.39 281.242 L1017.15 275.773 L1013.9 270.364 L1010.66 265.02 L1007.42 259.746 L1004.17 254.547 L1000.93 249.425 L997.688 244.386 L994.445 239.43 L991.202 234.562 L987.959 229.783 L984.716 225.096 L981.473 220.502 L978.23 216.003 L974.987 211.599 L971.744 207.292 L968.501 203.081 L965.258 198.968 L962.015 194.951 L958.772 191.031 L955.529 187.206 L952.286 183.477 L949.043 179.841 L945.8 176.297 L942.557 172.844 L939.314 169.479 L936.071 166.201 L932.828 163.007 L929.585 159.895 L926.342 156.862 L923.099 153.905 L919.856 151.02 L916.613 148.206 L913.37 145.458 L910.127 142.773 L906.884 140.147 L903.641 137.578 L900.398 135.062 L897.155 132.595 L893.911 130.175 L890.668 127.798 L887.425 125.462 L884.182 123.169 L880.939 120.922 L877.696 118.724 L874.453 116.578 L871.21 114.487 L867.967 112.455 L864.724 110.484 L861.481 108.578 L858.238 106.741 L854.995 104.975 L851.752 103.282 L848.509 101.667 L845.266 100.132 L842.023 98.6786 L838.78 97.3102 L835.537 96.0287 L832.294 94.8363 L829.051 93.7348 L825.808 92.7259 L822.565 91.8113 L819.322 90.9921 L816.079 90.2696 L812.836 89.6448 L809.593 89.1184 L806.35 88.691 L803.107 88.363 L799.864 88.1345 L796.621 88.0057 L793.378 87.9763 L790.135 88.0459 L786.892 88.214 L783.648 88.4798 L780.405 88.8423 L777.162 89.3003 L773.919 89.8526 L770.676 90.4975 L767.433 91.2333 L764.19 92.0581 L760.947 92.9695 L757.704 93.9653 L754.461 95.0429 L751.218 96.1995 L747.975 97.4321 L744.732 98.7374 L741.489 100.112 L738.246 101.553 L735.003 103.055 L731.76 104.615 L728.517 106.23 L725.274 107.893 L722.031 109.602 L718.788 111.351 L715.545 113.135 L712.302 114.95 L709.059 116.791 L705.816 118.652 L702.573 120.529 L699.33 122.417 L696.087 124.31 L692.844 126.204 L689.601 128.095 L686.358 129.977 L683.115 131.848 L679.872 133.71 L676.629 135.567 L673.385 137.423 L670.142 139.281 L666.899 141.147 L663.656 143.024 L660.413 144.917 L657.17 146.83 L653.927 148.766 L650.684 150.732 L647.441 152.729 L644.198 154.763 L640.955 156.837 L637.712 158.955 L634.469 161.119 L631.226 163.334 L627.983 165.603 L624.74 167.928 L621.497 170.312 L618.254 172.758 L615.011 175.267 L611.768 177.843 L608.525 180.487 L605.282 183.2 L602.039 185.985 L598.796 188.842 L595.553 191.773 L592.31 194.78 L589.067 197.861 L585.824 201.019 L582.581 204.253 L579.338 207.565 L576.095 210.953 L572.852 214.418 L569.609 217.96 L566.366 221.578 L563.122 225.272 L559.879 229.04 L556.636 232.881 L553.393 236.795 L550.15 240.781 L546.907 244.835 L543.664 248.958 L540.421 253.146 L537.178 257.397 L533.935 261.71 L530.692 266.081 L527.449 270.509 L524.206 274.988 L520.963 279.518 L517.72 284.093 L514.477 288.711 L511.234 293.366 L507.991 298.056 L504.748 302.775 L501.505 307.52 L498.262 312.284 L495.019 317.062 L491.776 321.85 L488.533 326.64 L485.29 331.429 L482.047 336.208 L478.804 340.971 L475.561 345.713 L472.318 350.425 L469.075 355.102 L465.832 359.735 L462.589 364.317 L459.346 368.842 L456.103 373.301 L452.859 377.688 L449.616 381.996 L446.373 386.227 L443.13 390.383 L439.887 394.468 L436.644 398.483 L433.401 402.432 L430.158 406.318 L426.915 410.141 L423.672 413.906 L420.429 417.613 L417.186 421.264 L413.943 424.861 L410.7 428.405 L407.457 431.895 L404.214 435.333 L400.971 438.719 L397.728 442.051 L394.485 445.328 L391.242 448.55 L387.999 451.714 L384.756 454.818 L381.513 457.859 L378.27 460.834 L375.027 463.739 L371.784 466.57 L368.541 469.322 L365.298 471.991 L362.055 474.57 L358.812 477.054 L355.569 479.437 L352.326 481.712 L349.083 483.872 L345.84 485.911 L342.596 487.82 L339.353 489.592 L336.11 491.219 L332.867 492.693 L329.624 494.006 L326.381 495.15 L323.138 496.117 L319.895 496.899 L316.652 497.491 L313.409 497.897 L310.166 498.128 L306.923 498.19 L303.68 498.092 L300.437 497.842 L297.194 497.449 L293.951 496.921 L290.708 496.265 L287.465 495.49 L284.222 494.602 L280.979 493.609 L277.736 492.517 L274.493 491.334 L271.25 490.067 L268.007 488.72 L264.764 487.301 L261.521 485.814 L258.278 484.265 L255.035 482.66  Z" fill="#3da44d" fill-rule="evenodd" fill-opacity="0.1"/>
<polyline clip-path="url(#clip012)" style="stroke:#3da44d; stroke-linecap:round; stroke-linejoin:round; stroke-width:8; stroke-opacity:1; fill:none" points="255.035,777.746 258.278,776.238 261.521,774.69 264.764,773.1 268.007,771.468 271.25,769.793 274.493,768.073 277.736,766.309 280.979,764.498 284.222,762.639 287.465,760.732 290.708,758.775 293.951,756.768 297.194,754.708 300.437,752.596 303.68,750.429 306.923,748.206 310.166,745.926 313.409,743.588 316.652,741.19 319.895,738.731 323.138,736.211 326.381,733.63 329.624,730.99 332.867,728.293 336.11,725.542 339.353,722.737 342.596,719.88 345.84,716.974 349.083,714.02 352.326,711.019 355.569,707.973 358.812,704.884 362.055,701.754 365.298,698.584 368.541,695.375 371.784,692.13 375.027,688.85 378.27,685.536 381.513,682.19 384.756,678.814 387.999,675.409 391.242,671.976 394.485,668.518 397.728,665.035 400.971,661.53 404.214,658.003 407.457,654.457 410.7,650.892 413.943,647.311 417.186,643.715 420.429,640.105 423.672,636.484 426.915,632.852 430.158,629.212 433.401,625.564 436.644,621.91 439.887,618.253 443.13,614.593 446.373,610.933 449.616,607.273 452.859,603.617 456.103,599.964 459.346,596.316 462.589,592.671 465.832,589.031 469.075,585.394 472.318,581.76 475.561,578.13 478.804,574.504 482.047,570.881 485.29,567.261 488.533,563.645 491.776,560.032 495.019,556.422 498.262,552.816 501.505,549.214 504.748,545.615 507.991,542.02 511.234,538.429 514.477,534.843 517.72,531.261 520.963,527.684 524.206,524.112 527.449,520.545 530.692,516.984 533.935,513.429 537.178,509.881 540.421,506.34 543.664,502.806 546.907,499.28 550.15,495.763 553.393,492.255 556.636,488.756 559.879,485.268 563.122,481.791 566.366,478.326 569.609,474.873 572.852,471.433 576.095,468.008 579.338,464.598 582.581,461.203 585.824,457.826 589.067,454.466 592.31,451.125 595.553,447.804 598.796,444.505 602.039,441.228 605.282,437.974 608.525,434.745 611.768,431.542 615.011,428.367 618.254,425.22 621.497,422.104 624.74,419.02 627.983,415.969 631.226,412.954 634.469,409.975 637.712,407.035 640.955,404.135 644.198,401.278 647.441,398.465 650.684,395.698 653.927,392.979 657.17,390.311 660.413,387.695 663.656,385.134 666.899,382.63 670.142,380.186 673.385,377.805 676.629,375.487 679.872,373.238 683.115,371.058 686.358,368.951 689.601,366.919 692.844,364.961 696.087,363.075 699.33,361.258 702.573,359.51 705.816,357.828 709.059,356.212 712.302,354.658 715.545,353.166 718.788,351.735 722.031,350.362 725.274,349.048 728.517,347.791 731.76,346.589 735.003,345.442 738.246,344.348 741.489,343.308 744.732,342.32 747.975,341.383 751.218,340.497 754.461,339.661 757.704,338.875 760.947,338.138 764.19,337.451 767.433,336.812 770.676,336.222 773.919,335.681 777.162,335.188 780.405,334.743 783.648,334.347 786.892,334 790.135,333.702 793.378,333.453 796.621,333.254 799.864,333.105 803.107,333.006 806.35,332.959 809.593,332.965 812.836,333.023 816.079,333.134 819.322,333.3 822.565,333.522 825.808,333.801 829.051,334.137 832.294,334.532 835.537,334.987 838.78,335.504 842.023,336.085 845.266,336.73 848.509,337.441 851.752,338.221 854.995,339.07 858.238,339.991 861.481,340.985 864.724,342.056 867.967,343.204 871.21,344.432 874.453,345.743 877.696,347.139 880.939,348.622 884.182,350.195 887.425,351.86 890.668,353.621 893.911,355.48 897.155,357.433 900.398,359.477 903.641,361.609 906.884,363.826 910.127,366.124 913.37,368.501 916.613,370.953 919.856,373.477 923.099,376.071 926.342,378.731 929.585,381.456 932.828,384.242 936.071,387.086 939.314,389.988 942.557,392.943 945.8,395.95 949.043,399.006 952.286,402.11 955.529,405.258 958.772,408.45 962.015,411.683 965.258,414.955 968.501,418.265 971.744,421.61 974.987,424.988 978.23,428.399 981.473,431.84 984.716,435.31 987.959,438.807 991.202,442.331 994.445,445.878 997.688,449.448 1000.93,453.041 1004.17,456.653 1007.42,460.285 1010.66,463.934 1013.9,467.6 1017.15,471.282 1020.39,474.978 1023.63,478.688 1026.88,482.411 1030.12,486.145 1033.36,489.889 1036.6,493.643 1039.85,497.407 1043.09,501.178 1046.33,504.956 1049.58,508.741 1052.82,512.532 1056.06,516.328 1059.31,520.129 1062.55,523.933 1065.79,527.74 1069.04,531.55 1072.28,535.362 1075.52,539.173 1078.76,542.984 1082.01,546.792 1085.25,550.597 1088.49,554.397 1091.74,558.191 1094.98,561.978 1098.22,565.761 1101.47,569.54 1104.71,573.317 1107.95,577.094 1111.19,580.872 1114.44,584.654 1117.68,588.442 1120.92,592.236 1124.17,596.039 1127.41,599.853 1130.65,603.68 1133.9,607.521 1137.14,611.379 1140.38,615.255 1143.62,619.152 1146.87,623.072 1150.11,627.015 1153.35,630.981 1156.6,634.966 1159.84,638.971 1163.08,642.994 1166.33,647.035 1169.57,651.094 1172.81,655.169 1176.06,659.262 1179.3,663.371 1182.54,667.495 1185.78,671.636 1189.03,675.791 1192.27,679.962 1195.51,684.147 1198.76,688.347 1202,692.561 1205.24,696.789 1208.49,701.031 1211.73,705.287 1214.97,709.556 1218.21,713.838 1221.46,718.134 1224.7,722.443 1227.94,726.765 1231.19,731.1 1234.43,735.447 1237.67,739.808 1240.92,744.182 1244.16,748.568 1247.4,752.968 1250.64,757.38 1253.89,761.805 1257.13,766.244 1260.37,770.695 1263.62,775.159 1266.86,779.637 1270.1,784.128 1273.35,788.632 1276.59,793.15 1279.83,797.682 1283.08,802.228 1286.32,806.787 1289.56,811.361 1292.8,815.949 1296.05,820.551 1299.29,825.168 1302.53,829.8 1305.78,834.447 1309.02,839.11 1312.26,843.788 1315.51,848.48 1318.75,853.187 1321.99,857.907 1325.23,862.639 1328.48,867.383 1331.72,872.139 1334.96,876.905 1338.21,881.68 1341.45,886.465 1344.69,891.258 1347.94,896.058 1351.18,900.865 1354.42,905.678 1357.66,910.497 1360.91,915.32 1364.15,920.147 1367.39,924.977 1370.64,929.81 1373.88,934.644 1377.12,939.479 1380.37,944.315 1383.61,949.149 1386.85,953.982 1390.1,958.812 1393.34,963.64 1396.58,968.463 1399.82,973.282 1403.07,978.095 1406.31,982.901 1409.55,987.699 1412.8,992.49 1416.04,997.27 1419.28,1002.04 1422.53,1006.8 1425.77,1011.55 1429.01,1016.28 1432.25,1021 1435.5,1025.7 1438.74,1030.39 1441.98,1035.05 1445.23,1039.7 1448.47,1044.33 1451.71,1048.94 1454.96,1053.52 1458.2,1058.09 1461.44,1062.62 1464.68,1067.13 1467.93,1071.61 1471.17,1076.06 1474.41,1080.48 1477.66,1084.86 1480.9,1089.22 1484.14,1093.53 1487.39,1097.81 1490.63,1102.05 1493.87,1106.25 1497.11,1110.4 1500.36,1114.51 1503.6,1118.57 1506.84,1122.59 1510.09,1126.55 1513.33,1130.46 1516.57,1134.32 1519.82,1138.11 1523.06,1141.85 1526.3,1145.53 1529.55,1149.14 1532.79,1152.69 1536.03,1156.16 1539.27,1159.57 1542.52,1162.9 1545.76,1166.15 1549,1169.32 1552.25,1172.41 1555.49,1175.41 1558.73,1178.32 1561.98,1181.14 1565.22,1183.87 1568.46,1186.49 1571.7,1189.01 1574.95,1191.43 1578.19,1193.75 1581.43,1195.97 1584.68,1198.09 1587.92,1200.13 1591.16,1202.08 1594.41,1203.95 1597.65,1205.74 1600.89,1207.45 1604.13,1209.1 1607.38,1210.68 1610.62,1212.2 1613.86,1213.65 1617.11,1215.05 1620.35,1216.4 1623.59,1217.69 1626.84,1218.94 1630.08,1220.15 1633.32,1221.31 1636.57,1222.44 1639.81,1223.53 1643.05,1224.59 1646.29,1225.62 1649.54,1226.62 1652.78,1227.6 1656.02,1228.56 1659.27,1229.49 1662.51,1230.42 1665.75,1231.32 1669,1232.22 1672.24,1233.1 1675.48,1233.97 1678.72,1234.83 1681.97,1235.68 1685.21,1236.52 1688.45,1237.35 1691.7,1238.17 1694.94,1238.98 1698.18,1239.79 1701.43,1240.58 1704.67,1241.37 1707.91,1242.16 1711.15,1242.93 1714.4,1243.7 1717.64,1244.47 1720.88,1245.22 1724.13,1245.98 1727.37,1246.72 1730.61,1247.46 1733.86,1248.19 1737.1,1248.92 1740.34,1249.64 1743.59,1250.36 1746.83,1251.06 1750.07,1251.76 1753.31,1252.46 1756.56,1253.14 1759.8,1253.82 1763.04,1254.49 1766.29,1255.15 1769.53,1255.8 1772.77,1256.44 1776.02,1257.07 1779.26,1257.69 1782.5,1258.29 1785.74,1258.89 1788.99,1259.46 1792.23,1260.03 1795.47,1260.58 1798.72,1261.11 1801.96,1261.63 1805.2,1262.13 1808.45,1262.6 1811.69,1263.06 1814.93,1263.5 1818.17,1263.91 1821.42,1264.29 1824.66,1264.65 1827.9,1264.98 1831.15,1265.28 1834.39,1265.55 1837.63,1265.78 1840.88,1265.97 1844.12,1266.12 1847.36,1266.22 1850.61,1266.28 1853.85,1266.29 1857.09,1266.25 1860.33,1266.16 1863.58,1266.01 1866.82,1265.8 1870.06,1265.52 1873.31,1265.18 1876.55,1264.76 1879.79,1264.28 1883.04,1263.72 1886.28,1263.1 1889.52,1262.4 1892.76,1261.63 1896.01,1260.79 1899.25,1259.87 1902.49,1258.89 1905.74,1257.82 1908.98,1256.69 1912.22,1255.47 1915.47,1254.18 1918.71,1252.82 1921.95,1251.37 1925.19,1249.84 1928.44,1248.23 1931.68,1246.55 1934.92,1244.79 1938.17,1242.96 1941.41,1241.07 1944.65,1239.12 1947.9,1237.11 1951.14,1235.05 1954.38,1232.94 1957.63,1230.79 1960.87,1228.59 1964.11,1226.36 1967.35,1224.09 1970.6,1221.79 1973.84,1219.46 1977.08,1217.11 1980.33,1214.74 1983.57,1212.36 1986.81,1209.95 1990.06,1207.52 1993.3,1205.08 1996.54,1202.62 1999.78,1200.15 2003.03,1197.67 2006.27,1195.17 2009.51,1192.66 2012.76,1190.13 2016,1187.6 2019.24,1185.05 2022.49,1182.5 2025.73,1179.93 2028.97,1177.35 2032.21,1174.77 2035.46,1172.18 2038.7,1169.57 2041.94,1166.96 2045.19,1164.35 2048.43,1161.72 2051.67,1159.09 2054.92,1156.46 2058.16,1153.82 2061.4,1151.17 2064.65,1148.52 2067.89,1145.86 2071.13,1143.2 2074.37,1140.54 2077.62,1137.88 2080.86,1135.22 2084.1,1132.56 2087.35,1129.9 2090.59,1127.24 2093.83,1124.58 2097.08,1121.93 2100.32,1119.28 2103.56,1116.64 2106.8,1114 2110.05,1111.37 2113.29,1108.74 2116.53,1106.13 2119.78,1103.52 2123.02,1100.92 2126.26,1098.32 2129.51,1095.74 2132.75,1093.17 2135.99,1090.61 2139.23,1088.05 2142.48,1085.51 2145.72,1082.99 2148.96,1080.47 2152.21,1077.96 2155.45,1075.47 2158.69,1072.99 2161.94,1070.53 2165.18,1068.08 2168.42,1065.64 2171.67,1063.22 2174.91,1060.81 2178.15,1058.42 2181.39,1056.04 2184.64,1053.67 2187.88,1051.31 2191.12,1048.97 2194.37,1046.64 2197.61,1044.32 2200.85,1042.01 2204.1,1039.72 2207.34,1037.44 2210.58,1035.17 2213.82,1032.91 2217.07,1030.67 2220.31,1028.44 2223.55,1026.23 2226.8,1024.03 2230.04,1021.85 2233.28,1019.67 2236.53,1017.52 2239.77,1015.37 2243.01,1013.25 2246.25,1011.13 2249.5,1009.04 2252.74,1006.96 2255.98,1004.89 2259.23,1002.84 2262.47,1000.8 2265.71,998.78 2268.96,996.774 2272.2,994.785 2275.44,992.811 2278.69,990.853 2281.93,988.911 2285.17,986.984 2288.41,985.073 2291.66,983.179 "/>
<path clip-path="url(#clip010)" d="M1953.46 302.578 L2280.8 302.578 L2280.8 95.2176 L1953.46 95.2176  Z" fill="#ffffff" fill-rule="evenodd" fill-opacity="1"/>
<polyline clip-path="url(#clip010)" style="stroke:#000000; stroke-linecap:round; stroke-linejoin:round; stroke-width:4; stroke-opacity:1; fill:none" points="1953.46,302.578 2280.8,302.578 2280.8,95.2176 1953.46,95.2176 1953.46,302.578 "/>
<polyline clip-path="url(#clip010)" style="stroke:#009af9; stroke-linecap:round; stroke-linejoin:round; stroke-width:4; stroke-opacity:1; fill:none" points="1977.44,147.058 2121.36,147.058 "/>
<path clip-path="url(#clip010)" d="M2152.76 131.051 L2152.76 138.412 L2161.53 138.412 L2161.53 141.722 L2152.76 141.722 L2152.76 155.796 Q2152.76 158.967 2153.61 159.87 Q2154.49 160.773 2157.16 160.773 L2161.53 160.773 L2161.53 164.338 L2157.16 164.338 Q2152.23 164.338 2150.35 162.509 Q2148.48 160.657 2148.48 155.796 L2148.48 141.722 L2145.35 141.722 L2145.35 138.412 L2148.48 138.412 L2148.48 131.051 L2152.76 131.051 Z" fill="#000000" fill-rule="nonzero" fill-opacity="1" /><path clip-path="url(#clip010)" d="M2182.16 142.393 Q2181.44 141.977 2180.58 141.791 Q2179.75 141.583 2178.73 141.583 Q2175.12 141.583 2173.17 143.944 Q2171.25 146.282 2171.25 150.68 L2171.25 164.338 L2166.97 164.338 L2166.97 138.412 L2171.25 138.412 L2171.25 142.44 Q2172.6 140.078 2174.75 138.944 Q2176.9 137.787 2179.98 137.787 Q2180.42 137.787 2180.95 137.856 Q2181.48 137.903 2182.13 138.018 L2182.16 142.393 Z" fill="#000000" fill-rule="nonzero" fill-opacity="1" /><path clip-path="url(#clip010)" d="M2186.18 154.106 L2186.18 138.412 L2190.44 138.412 L2190.44 153.944 Q2190.44 157.625 2191.88 159.476 Q2193.31 161.305 2196.18 161.305 Q2199.63 161.305 2201.62 159.106 Q2203.64 156.907 2203.64 153.111 L2203.64 138.412 L2207.9 138.412 L2207.9 164.338 L2203.64 164.338 L2203.64 160.356 Q2202.09 162.717 2200.03 163.875 Q2197.99 165.009 2195.28 165.009 Q2190.81 165.009 2188.5 162.231 Q2186.18 159.453 2186.18 154.106 M2196.9 137.787 L2196.9 137.787 Z" fill="#000000" fill-rule="nonzero" fill-opacity="1" /><path clip-path="url(#clip010)" d="M2220.88 131.051 L2220.88 138.412 L2229.66 138.412 L2229.66 141.722 L2220.88 141.722 L2220.88 155.796 Q2220.88 158.967 2221.74 159.87 Q2222.62 160.773 2225.28 160.773 L2229.66 160.773 L2229.66 164.338 L2225.28 164.338 Q2220.35 164.338 2218.48 162.509 Q2216.6 160.657 2216.6 155.796 L2216.6 141.722 L2213.48 141.722 L2213.48 138.412 L2216.6 138.412 L2216.6 131.051 L2220.88 131.051 Z" fill="#000000" fill-rule="nonzero" fill-opacity="1" /><path clip-path="url(#clip010)" d="M2256.81 148.689 L2256.81 164.338 L2252.55 164.338 L2252.55 148.828 Q2252.55 145.148 2251.11 143.319 Q2249.68 141.49 2246.81 141.49 Q2243.36 141.49 2241.37 143.69 Q2239.38 145.889 2239.38 149.685 L2239.38 164.338 L2235.1 164.338 L2235.1 128.319 L2239.38 128.319 L2239.38 142.44 Q2240.91 140.102 2242.97 138.944 Q2245.05 137.787 2247.76 137.787 Q2252.23 137.787 2254.52 140.565 Q2256.81 143.319 2256.81 148.689 Z" fill="#000000" fill-rule="nonzero" fill-opacity="1" /><circle clip-path="url(#clip010)" cx="2049.4" cy="198.898" r="20.48" fill="#e26f46" fill-rule="evenodd" fill-opacity="1" stroke="#000000" stroke-opacity="1" stroke-width="4.55111"/>
<path clip-path="url(#clip010)" d="M2164.26 194.187 L2164.26 180.159 L2168.52 180.159 L2168.52 216.178 L2164.26 216.178 L2164.26 212.289 Q2162.92 214.603 2160.86 215.738 Q2158.82 216.849 2155.95 216.849 Q2151.25 216.849 2148.29 213.099 Q2145.35 209.349 2145.35 203.238 Q2145.35 197.127 2148.29 193.377 Q2151.25 189.627 2155.95 189.627 Q2158.82 189.627 2160.86 190.761 Q2162.92 191.872 2164.26 194.187 M2149.75 203.238 Q2149.75 207.937 2151.67 210.622 Q2153.61 213.284 2156.99 213.284 Q2160.37 213.284 2162.32 210.622 Q2164.26 207.937 2164.26 203.238 Q2164.26 198.539 2162.32 195.877 Q2160.37 193.192 2156.99 193.192 Q2153.61 193.192 2151.67 195.877 Q2149.75 198.539 2149.75 203.238 Z" fill="#000000" fill-rule="nonzero" fill-opacity="1" /><path clip-path="url(#clip010)" d="M2189.08 203.145 Q2183.92 203.145 2181.92 204.326 Q2179.93 205.506 2179.93 208.354 Q2179.93 210.622 2181.42 211.965 Q2182.92 213.284 2185.49 213.284 Q2189.03 213.284 2191.16 210.784 Q2193.31 208.261 2193.31 204.094 L2193.31 203.145 L2189.08 203.145 M2197.57 201.386 L2197.57 216.178 L2193.31 216.178 L2193.31 212.242 Q2191.85 214.603 2189.68 215.738 Q2187.5 216.849 2184.36 216.849 Q2180.37 216.849 2178.01 214.627 Q2175.67 212.381 2175.67 208.631 Q2175.67 204.256 2178.59 202.034 Q2181.53 199.812 2187.34 199.812 L2193.31 199.812 L2193.31 199.395 Q2193.31 196.455 2191.37 194.858 Q2189.45 193.238 2185.95 193.238 Q2183.73 193.238 2181.62 193.77 Q2179.52 194.303 2177.57 195.367 L2177.57 191.432 Q2179.91 190.53 2182.11 190.09 Q2184.31 189.627 2186.39 189.627 Q2192.02 189.627 2194.79 192.543 Q2197.57 195.46 2197.57 201.386 Z" fill="#000000" fill-rule="nonzero" fill-opacity="1" /><path clip-path="url(#clip010)" d="M2210.56 182.891 L2210.56 190.252 L2219.33 190.252 L2219.33 193.562 L2210.56 193.562 L2210.56 207.636 Q2210.56 210.807 2211.42 211.71 Q2212.29 212.613 2214.96 212.613 L2219.33 212.613 L2219.33 216.178 L2214.96 216.178 Q2210.03 216.178 2208.15 214.349 Q2206.28 212.497 2206.28 207.636 L2206.28 193.562 L2203.15 193.562 L2203.15 190.252 L2206.28 190.252 L2206.28 182.891 L2210.56 182.891 Z" fill="#000000" fill-rule="nonzero" fill-opacity="1" /><path clip-path="url(#clip010)" d="M2236.72 203.145 Q2231.55 203.145 2229.56 204.326 Q2227.57 205.506 2227.57 208.354 Q2227.57 210.622 2229.05 211.965 Q2230.56 213.284 2233.13 213.284 Q2236.67 213.284 2238.8 210.784 Q2240.95 208.261 2240.95 204.094 L2240.95 203.145 L2236.72 203.145 M2245.21 201.386 L2245.21 216.178 L2240.95 216.178 L2240.95 212.242 Q2239.49 214.603 2237.32 215.738 Q2235.14 216.849 2231.99 216.849 Q2228.01 216.849 2225.65 214.627 Q2223.31 212.381 2223.31 208.631 Q2223.31 204.256 2226.23 202.034 Q2229.17 199.812 2234.98 199.812 L2240.95 199.812 L2240.95 199.395 Q2240.95 196.455 2239.01 194.858 Q2237.09 193.238 2233.59 193.238 Q2231.37 193.238 2229.26 193.77 Q2227.16 194.303 2225.21 195.367 L2225.21 191.432 Q2227.55 190.53 2229.75 190.09 Q2231.95 189.627 2234.03 189.627 Q2239.66 189.627 2242.43 192.543 Q2245.21 195.46 2245.21 201.386 Z" fill="#000000" fill-rule="nonzero" fill-opacity="1" /><polyline clip-path="url(#clip010)" style="stroke:#3da44d; stroke-linecap:round; stroke-linejoin:round; stroke-width:8; stroke-opacity:1; fill:none" points="1977.44,250.738 2121.36,250.738 "/>
<path clip-path="url(#clip010)" d="M2170.91 263.087 L2170.91 253.805 L2163.27 253.805 L2163.27 249.962 L2175.54 249.962 L2175.54 264.8 Q2172.83 266.721 2169.56 267.717 Q2166.3 268.689 2162.6 268.689 Q2154.49 268.689 2149.91 263.967 Q2145.35 259.221 2145.35 250.772 Q2145.35 242.3 2149.91 237.578 Q2154.49 232.833 2162.6 232.833 Q2165.98 232.833 2169.01 233.666 Q2172.06 234.499 2174.63 236.12 L2174.63 241.096 Q2172.04 238.897 2169.12 237.786 Q2166.21 236.675 2162.99 236.675 Q2156.65 236.675 2153.45 240.217 Q2150.28 243.758 2150.28 250.772 Q2150.28 257.763 2153.45 261.305 Q2156.65 264.846 2162.99 264.846 Q2165.47 264.846 2167.41 264.43 Q2169.36 263.99 2170.91 263.087 Z" fill="#000000" fill-rule="nonzero" fill-opacity="1" /><path clip-path="url(#clip010)" d="M2188.75 237.3 L2188.75 250.286 L2194.63 250.286 Q2197.9 250.286 2199.68 248.596 Q2201.46 246.907 2201.46 243.782 Q2201.46 240.68 2199.68 238.99 Q2197.9 237.3 2194.63 237.3 L2188.75 237.3 M2184.08 233.458 L2194.63 233.458 Q2200.44 233.458 2203.41 236.096 Q2206.39 238.712 2206.39 243.782 Q2206.39 248.897 2203.41 251.513 Q2200.44 254.129 2194.63 254.129 L2188.75 254.129 L2188.75 268.018 L2184.08 268.018 L2184.08 233.458 Z" fill="#000000" fill-rule="nonzero" fill-opacity="1" /></svg>
