<?xml version="1.0" encoding="utf-8"?>
<svg xmlns="http://www.w3.org/2000/svg" xmlns:xlink="http://www.w3.org/1999/xlink" width="600" height="400" viewBox="0 0 2400 1600">
<defs>
  <clipPath id="clip950">
    <rect x="0" y="0" width="2400" height="1600"/>
  </clipPath>
</defs>
<path clip-path="url(#clip950)" d="M0 1600 L2400 1600 L2400 0 L0 0  Z" fill="#ffffff" fill-rule="evenodd" fill-opacity="1"/>
<defs>
  <clipPath id="clip951">
    <rect x="480" y="0" width="1681" height="1600"/>
  </clipPath>
</defs>
<path clip-path="url(#clip950)" d="M193.936 1486.45 L2352.76 1486.45 L2352.76 47.2441 L193.936 47.2441  Z" fill="#ffffff" fill-rule="evenodd" fill-opacity="1"/>
<defs>
  <clipPath id="clip952">
    <rect x="193" y="47" width="2160" height="1440"/>
  </clipPath>
</defs>
<polyline clip-path="url(#clip952)" style="stroke:#000000; stroke-linecap:round; stroke-linejoin:round; stroke-width:2; stroke-opacity:0.1; fill:none" points="255.035,1486.45 255.035,47.2441 "/>
<polyline clip-path="url(#clip952)" style="stroke:#000000; stroke-linecap:round; stroke-linejoin:round; stroke-width:2; stroke-opacity:0.1; fill:none" points="579.338,1486.45 579.338,47.2441 "/>
<polyline clip-path="url(#clip952)" style="stroke:#000000; stroke-linecap:round; stroke-linejoin:round; stroke-width:2; stroke-opacity:0.1; fill:none" points="903.641,1486.45 903.641,47.2441 "/>
<polyline clip-path="url(#clip952)" style="stroke:#000000; stroke-linecap:round; stroke-linejoin:round; stroke-width:2; stroke-opacity:0.1; fill:none" points="1227.94,1486.45 1227.94,47.2441 "/>
<polyline clip-path="url(#clip952)" style="stroke:#000000; stroke-linecap:round; stroke-linejoin:round; stroke-width:2; stroke-opacity:0.1; fill:none" points="1552.25,1486.45 1552.25,47.2441 "/>
<polyline clip-path="url(#clip952)" style="stroke:#000000; stroke-linecap:round; stroke-linejoin:round; stroke-width:2; stroke-opacity:0.1; fill:none" points="1876.55,1486.45 1876.55,47.2441 "/>
<polyline clip-path="url(#clip952)" style="stroke:#000000; stroke-linecap:round; stroke-linejoin:round; stroke-width:2; stroke-opacity:0.1; fill:none" points="2200.85,1486.45 2200.85,47.2441 "/>
<polyline clip-path="url(#clip952)" style="stroke:#000000; stroke-linecap:round; stroke-linejoin:round; stroke-width:2; stroke-opacity:0.1; fill:none" points="193.936,1411.59 2352.76,1411.59 "/>
<polyline clip-path="url(#clip952)" style="stroke:#000000; stroke-linecap:round; stroke-linejoin:round; stroke-width:2; stroke-opacity:0.1; fill:none" points="193.936,1103.69 2352.76,1103.69 "/>
<polyline clip-path="url(#clip952)" style="stroke:#000000; stroke-linecap:round; stroke-linejoin:round; stroke-width:2; stroke-opacity:0.1; fill:none" points="193.936,795.781 2352.76,795.781 "/>
<polyline clip-path="url(#clip952)" style="stroke:#000000; stroke-linecap:round; stroke-linejoin:round; stroke-width:2; stroke-opacity:0.1; fill:none" points="193.936,487.875 2352.76,487.875 "/>
<polyline clip-path="url(#clip952)" style="stroke:#000000; stroke-linecap:round; stroke-linejoin:round; stroke-width:2; stroke-opacity:0.1; fill:none" points="193.936,179.969 2352.76,179.969 "/>
<polyline clip-path="url(#clip950)" style="stroke:#000000; stroke-linecap:round; stroke-linejoin:round; stroke-width:4; stroke-opacity:1; fill:none" points="193.936,1486.45 2352.76,1486.45 "/>
<polyline clip-path="url(#clip950)" style="stroke:#000000; stroke-linecap:round; stroke-linejoin:round; stroke-width:4; stroke-opacity:1; fill:none" points="255.035,1486.45 255.035,1467.55 "/>
<polyline clip-path="url(#clip950)" style="stroke:#000000; stroke-linecap:round; stroke-linejoin:round; stroke-width:4; stroke-opacity:1; fill:none" points="579.338,1486.45 579.338,1467.55 "/>
<polyline clip-path="url(#clip950)" style="stroke:#000000; stroke-linecap:round; stroke-linejoin:round; stroke-width:4; stroke-opacity:1; fill:none" points="903.641,1486.45 903.641,1467.55 "/>
<polyline clip-path="url(#clip950)" style="stroke:#000000; stroke-linecap:round; stroke-linejoin:round; stroke-width:4; stroke-opacity:1; fill:none" points="1227.94,1486.45 1227.94,1467.55 "/>
<polyline clip-path="url(#clip950)" style="stroke:#000000; stroke-linecap:round; stroke-linejoin:round; stroke-width:4; stroke-opacity:1; fill:none" points="1552.25,1486.45 1552.25,1467.55 "/>
<polyline clip-path="url(#clip950)" style="stroke:#000000; stroke-linecap:round; stroke-linejoin:round; stroke-width:4; stroke-opacity:1; fill:none" points="1876.55,1486.45 1876.55,1467.55 "/>
<polyline clip-path="url(#clip950)" style="stroke:#000000; stroke-linecap:round; stroke-linejoin:round; stroke-width:4; stroke-opacity:1; fill:none" points="2200.85,1486.45 2200.85,1467.55 "/>
<path clip-path="url(#clip950)" d="M255.035 1517.37 Q251.424 1517.37 249.595 1520.93 Q247.789 1524.47 247.789 1531.6 Q247.789 1538.71 249.595 1542.27 Q251.424 1545.82 255.035 1545.82 Q258.669 1545.82 260.474 1542.27 Q262.303 1538.71 262.303 1531.6 Q262.303 1524.47 260.474 1520.93 Q258.669 1517.37 255.035 1517.37 M255.035 1513.66 Q260.845 1513.66 263.9 1518.27 Q266.979 1522.85 266.979 1531.6 Q266.979 1540.33 263.9 1544.94 Q260.845 1549.52 255.035 1549.52 Q249.225 1549.52 246.146 1544.94 Q243.09 1540.33 243.09 1531.6 Q243.09 1522.85 246.146 1518.27 Q249.225 1513.66 255.035 1513.66 Z" fill="#000000" fill-rule="nonzero" fill-opacity="1" /><path clip-path="url(#clip950)" d="M569.72 1544.91 L577.358 1544.91 L577.358 1518.55 L569.048 1520.21 L569.048 1515.95 L577.312 1514.29 L581.988 1514.29 L581.988 1544.91 L589.627 1544.91 L589.627 1548.85 L569.72 1548.85 L569.72 1544.91 Z" fill="#000000" fill-rule="nonzero" fill-opacity="1" /><path clip-path="url(#clip950)" d="M898.293 1544.91 L914.613 1544.91 L914.613 1548.85 L892.668 1548.85 L892.668 1544.91 Q895.33 1542.16 899.914 1537.53 Q904.52 1532.88 905.701 1531.53 Q907.946 1529.01 908.826 1527.27 Q909.729 1525.51 909.729 1523.82 Q909.729 1521.07 907.784 1519.33 Q905.863 1517.6 902.761 1517.6 Q900.562 1517.6 898.108 1518.36 Q895.678 1519.13 892.9 1520.68 L892.9 1515.95 Q895.724 1514.82 898.178 1514.24 Q900.631 1513.66 902.668 1513.66 Q908.039 1513.66 911.233 1516.35 Q914.428 1519.03 914.428 1523.52 Q914.428 1525.65 913.617 1527.57 Q912.83 1529.47 910.724 1532.07 Q910.145 1532.74 907.043 1535.95 Q903.942 1539.15 898.293 1544.91 Z" fill="#000000" fill-rule="nonzero" fill-opacity="1" /><path clip-path="url(#clip950)" d="M1232.19 1530.21 Q1235.55 1530.93 1237.42 1533.2 Q1239.32 1535.47 1239.32 1538.8 Q1239.32 1543.92 1235.8 1546.72 Q1232.28 1549.52 1225.8 1549.52 Q1223.63 1549.52 1221.31 1549.08 Q1219.02 1548.66 1216.57 1547.81 L1216.57 1543.29 Q1218.51 1544.43 1220.83 1545.01 Q1223.14 1545.58 1225.66 1545.58 Q1230.06 1545.58 1232.35 1543.85 Q1234.67 1542.11 1234.67 1538.8 Q1234.67 1535.75 1232.52 1534.03 Q1230.39 1532.3 1226.57 1532.3 L1222.54 1532.3 L1222.54 1528.45 L1226.75 1528.45 Q1230.2 1528.45 1232.03 1527.09 Q1233.86 1525.7 1233.86 1523.11 Q1233.86 1520.45 1231.96 1519.03 Q1230.08 1517.6 1226.57 1517.6 Q1224.64 1517.6 1222.45 1518.01 Q1220.25 1518.43 1217.61 1519.31 L1217.61 1515.14 Q1220.27 1514.4 1222.58 1514.03 Q1224.92 1513.66 1226.98 1513.66 Q1232.31 1513.66 1235.41 1516.09 Q1238.51 1518.5 1238.51 1522.62 Q1238.51 1525.49 1236.87 1527.48 Q1235.22 1529.45 1232.19 1530.21 Z" fill="#000000" fill-rule="nonzero" fill-opacity="1" /><path clip-path="url(#clip950)" d="M1555.26 1518.36 L1543.45 1536.81 L1555.26 1536.81 L1555.26 1518.36 M1554.03 1514.29 L1559.91 1514.29 L1559.91 1536.81 L1564.84 1536.81 L1564.84 1540.7 L1559.91 1540.7 L1559.91 1548.85 L1555.26 1548.85 L1555.26 1540.7 L1539.65 1540.7 L1539.65 1536.19 L1554.03 1514.29 Z" fill="#000000" fill-rule="nonzero" fill-opacity="1" /><path clip-path="url(#clip950)" d="M1866.83 1514.29 L1885.18 1514.29 L1885.18 1518.22 L1871.11 1518.22 L1871.11 1526.7 Q1872.13 1526.35 1873.15 1526.19 Q1874.17 1526 1875.18 1526 Q1880.97 1526 1884.35 1529.17 Q1887.73 1532.34 1887.73 1537.76 Q1887.73 1543.34 1884.26 1546.44 Q1880.79 1549.52 1874.47 1549.52 Q1872.29 1549.52 1870.02 1549.15 Q1867.78 1548.78 1865.37 1548.04 L1865.37 1543.34 Q1867.45 1544.47 1869.67 1545.03 Q1871.9 1545.58 1874.37 1545.58 Q1878.38 1545.58 1880.72 1543.48 Q1883.05 1541.37 1883.05 1537.76 Q1883.05 1534.15 1880.72 1532.04 Q1878.38 1529.94 1874.37 1529.94 Q1872.5 1529.94 1870.62 1530.35 Q1868.77 1530.77 1866.83 1531.65 L1866.83 1514.29 Z" fill="#000000" fill-rule="nonzero" fill-opacity="1" /><path clip-path="url(#clip950)" d="M2201.26 1529.7 Q2198.11 1529.7 2196.26 1531.86 Q2194.43 1534.01 2194.43 1537.76 Q2194.43 1541.49 2196.26 1543.66 Q2198.11 1545.82 2201.26 1545.82 Q2204.41 1545.82 2206.23 1543.66 Q2208.09 1541.49 2208.09 1537.76 Q2208.09 1534.01 2206.23 1531.86 Q2204.41 1529.7 2201.26 1529.7 M2210.54 1515.05 L2210.54 1519.31 Q2208.78 1518.48 2206.98 1518.04 Q2205.19 1517.6 2203.43 1517.6 Q2198.8 1517.6 2196.35 1520.72 Q2193.92 1523.85 2193.57 1530.17 Q2194.94 1528.15 2197 1527.09 Q2199.06 1526 2201.54 1526 Q2206.74 1526 2209.75 1529.17 Q2212.79 1532.32 2212.79 1537.76 Q2212.79 1543.08 2209.64 1546.3 Q2206.49 1549.52 2201.26 1549.52 Q2195.26 1549.52 2192.09 1544.94 Q2188.92 1540.33 2188.92 1531.6 Q2188.92 1523.41 2192.81 1518.55 Q2196.7 1513.66 2203.25 1513.66 Q2205.01 1513.66 2206.79 1514.01 Q2208.6 1514.36 2210.54 1515.05 Z" fill="#000000" fill-rule="nonzero" fill-opacity="1" /><polyline clip-path="url(#clip950)" style="stroke:#000000; stroke-linecap:round; stroke-linejoin:round; stroke-width:4; stroke-opacity:1; fill:none" points="193.936,1486.45 193.936,47.2441 "/>
<polyline clip-path="url(#clip950)" style="stroke:#000000; stroke-linecap:round; stroke-linejoin:round; stroke-width:4; stroke-opacity:1; fill:none" points="193.936,1411.59 212.834,1411.59 "/>
<polyline clip-path="url(#clip950)" style="stroke:#000000; stroke-linecap:round; stroke-linejoin:round; stroke-width:4; stroke-opacity:1; fill:none" points="193.936,1103.69 212.834,1103.69 "/>
<polyline clip-path="url(#clip950)" style="stroke:#000000; stroke-linecap:round; stroke-linejoin:round; stroke-width:4; stroke-opacity:1; fill:none" points="193.936,795.781 212.834,795.781 "/>
<polyline clip-path="url(#clip950)" style="stroke:#000000; stroke-linecap:round; stroke-linejoin:round; stroke-width:4; stroke-opacity:1; fill:none" points="193.936,487.875 212.834,487.875 "/>
<polyline clip-path="url(#clip950)" style="stroke:#000000; stroke-linecap:round; stroke-linejoin:round; stroke-width:4; stroke-opacity:1; fill:none" points="193.936,179.969 212.834,179.969 "/>
<path clip-path="url(#clip950)" d="M50.9921 1412.04 L80.6679 1412.04 L80.6679 1415.98 L50.9921 1415.98 L50.9921 1412.04 Z" fill="#000000" fill-rule="nonzero" fill-opacity="1" /><path clip-path="url(#clip950)" d="M91.5706 1424.94 L99.2095 1424.94 L99.2095 1398.57 L90.8993 1400.24 L90.8993 1395.98 L99.1632 1394.31 L103.839 1394.31 L103.839 1424.94 L111.478 1424.94 L111.478 1428.87 L91.5706 1428.87 L91.5706 1424.94 Z" fill="#000000" fill-rule="nonzero" fill-opacity="1" /><path clip-path="url(#clip950)" d="M120.922 1422.99 L125.807 1422.99 L125.807 1428.87 L120.922 1428.87 L120.922 1422.99 Z" fill="#000000" fill-rule="nonzero" fill-opacity="1" /><path clip-path="url(#clip950)" d="M145.992 1397.39 Q142.381 1397.39 140.552 1400.96 Q138.746 1404.5 138.746 1411.63 Q138.746 1418.73 140.552 1422.3 Q142.381 1425.84 145.992 1425.84 Q149.626 1425.84 151.431 1422.3 Q153.26 1418.73 153.26 1411.63 Q153.26 1404.5 151.431 1400.96 Q149.626 1397.39 145.992 1397.39 M145.992 1393.69 Q151.802 1393.69 154.857 1398.29 Q157.936 1402.88 157.936 1411.63 Q157.936 1420.35 154.857 1424.96 Q151.802 1429.54 145.992 1429.54 Q140.181 1429.54 137.103 1424.96 Q134.047 1420.35 134.047 1411.63 Q134.047 1402.88 137.103 1398.29 Q140.181 1393.69 145.992 1393.69 Z" fill="#000000" fill-rule="nonzero" fill-opacity="1" /><path clip-path="url(#clip950)" d="M51.9875 1104.14 L81.6633 1104.14 L81.6633 1108.07 L51.9875 1108.07 L51.9875 1104.14 Z" fill="#000000" fill-rule="nonzero" fill-opacity="1" /><path clip-path="url(#clip950)" d="M101.756 1089.49 Q98.1447 1089.49 96.316 1093.05 Q94.5104 1096.59 94.5104 1103.72 Q94.5104 1110.83 96.316 1114.39 Q98.1447 1117.93 101.756 1117.93 Q105.39 1117.93 107.196 1114.39 Q109.024 1110.83 109.024 1103.72 Q109.024 1096.59 107.196 1093.05 Q105.39 1089.49 101.756 1089.49 M101.756 1085.78 Q107.566 1085.78 110.621 1090.39 Q113.7 1094.97 113.7 1103.72 Q113.7 1112.45 110.621 1117.05 Q107.566 1121.64 101.756 1121.64 Q95.9456 1121.64 92.8669 1117.05 Q89.8114 1112.45 89.8114 1103.72 Q89.8114 1094.97 92.8669 1090.39 Q95.9456 1085.78 101.756 1085.78 Z" fill="#000000" fill-rule="nonzero" fill-opacity="1" /><path clip-path="url(#clip950)" d="M121.918 1115.09 L126.802 1115.09 L126.802 1120.97 L121.918 1120.97 L121.918 1115.09 Z" fill="#000000" fill-rule="nonzero" fill-opacity="1" /><path clip-path="url(#clip950)" d="M137.033 1086.41 L155.39 1086.41 L155.39 1090.34 L141.316 1090.34 L141.316 1098.81 Q142.334 1098.47 143.353 1098.3 Q144.371 1098.12 145.39 1098.12 Q151.177 1098.12 154.556 1101.29 Q157.936 1104.46 157.936 1109.88 Q157.936 1115.46 154.464 1118.56 Q150.992 1121.64 144.672 1121.64 Q142.496 1121.64 140.228 1121.27 Q137.982 1120.9 135.575 1120.16 L135.575 1115.46 Q137.658 1116.59 139.881 1117.15 Q142.103 1117.7 144.58 1117.7 Q148.584 1117.7 150.922 1115.6 Q153.26 1113.49 153.26 1109.88 Q153.26 1106.27 150.922 1104.16 Q148.584 1102.05 144.58 1102.05 Q142.705 1102.05 140.83 1102.47 Q138.978 1102.89 137.033 1103.77 L137.033 1086.41 Z" fill="#000000" fill-rule="nonzero" fill-opacity="1" /><path clip-path="url(#clip950)" d="M100.76 781.579 Q97.1493 781.579 95.3206 785.144 Q93.515 788.686 93.515 795.815 Q93.515 802.922 95.3206 806.487 Q97.1493 810.028 100.76 810.028 Q104.395 810.028 106.2 806.487 Q108.029 802.922 108.029 795.815 Q108.029 788.686 106.2 785.144 Q104.395 781.579 100.76 781.579 M100.76 777.876 Q106.571 777.876 109.626 782.482 Q112.705 787.066 112.705 795.815 Q112.705 804.542 109.626 809.149 Q106.571 813.732 100.76 813.732 Q94.9502 813.732 91.8715 809.149 Q88.816 804.542 88.816 795.815 Q88.816 787.066 91.8715 782.482 Q94.9502 777.876 100.76 777.876 Z" fill="#000000" fill-rule="nonzero" fill-opacity="1" /><path clip-path="url(#clip950)" d="M120.922 807.181 L125.807 807.181 L125.807 813.061 L120.922 813.061 L120.922 807.181 Z" fill="#000000" fill-rule="nonzero" fill-opacity="1" /><path clip-path="url(#clip950)" d="M145.992 781.579 Q142.381 781.579 140.552 785.144 Q138.746 788.686 138.746 795.815 Q138.746 802.922 140.552 806.487 Q142.381 810.028 145.992 810.028 Q149.626 810.028 151.431 806.487 Q153.26 802.922 153.26 795.815 Q153.26 788.686 151.431 785.144 Q149.626 781.579 145.992 781.579 M145.992 777.876 Q151.802 777.876 154.857 782.482 Q157.936 787.066 157.936 795.815 Q157.936 804.542 154.857 809.149 Q151.802 813.732 145.992 813.732 Q140.181 813.732 137.103 809.149 Q134.047 804.542 134.047 795.815 Q134.047 787.066 137.103 782.482 Q140.181 777.876 145.992 777.876 Z" fill="#000000" fill-rule="nonzero" fill-opacity="1" /><path clip-path="url(#clip950)" d="M101.756 473.674 Q98.1447 473.674 96.316 477.238 Q94.5104 480.78 94.5104 487.91 Q94.5104 495.016 96.316 498.581 Q98.1447 502.122 101.756 502.122 Q105.39 502.122 107.196 498.581 Q109.024 495.016 109.024 487.91 Q109.024 480.78 107.196 477.238 Q105.39 473.674 101.756 473.674 M101.756 469.97 Q107.566 469.97 110.621 474.576 Q113.7 479.16 113.7 487.91 Q113.7 496.636 110.621 501.243 Q107.566 505.826 101.756 505.826 Q95.9456 505.826 92.8669 501.243 Q89.8114 496.636 89.8114 487.91 Q89.8114 479.16 92.8669 474.576 Q95.9456 469.97 101.756 469.97 Z" fill="#000000" fill-rule="nonzero" fill-opacity="1" /><path clip-path="url(#clip950)" d="M121.918 499.275 L126.802 499.275 L126.802 505.155 L121.918 505.155 L121.918 499.275 Z" fill="#000000" fill-rule="nonzero" fill-opacity="1" /><path clip-path="url(#clip950)" d="M137.033 470.595 L155.39 470.595 L155.39 474.53 L141.316 474.53 L141.316 483.002 Q142.334 482.655 143.353 482.493 Q144.371 482.308 145.39 482.308 Q151.177 482.308 154.556 485.479 Q157.936 488.65 157.936 494.067 Q157.936 499.646 154.464 502.747 Q150.992 505.826 144.672 505.826 Q142.496 505.826 140.228 505.456 Q137.982 505.085 135.575 504.345 L135.575 499.646 Q137.658 500.78 139.881 501.335 Q142.103 501.891 144.58 501.891 Q148.584 501.891 150.922 499.785 Q153.26 497.678 153.26 494.067 Q153.26 490.456 150.922 488.349 Q148.584 486.243 144.58 486.243 Q142.705 486.243 140.83 486.66 Q138.978 487.076 137.033 487.956 L137.033 470.595 Z" fill="#000000" fill-rule="nonzero" fill-opacity="1" /><path clip-path="url(#clip950)" d="M91.5706 193.314 L99.2095 193.314 L99.2095 166.948 L90.8993 168.615 L90.8993 164.356 L99.1632 162.689 L103.839 162.689 L103.839 193.314 L111.478 193.314 L111.478 197.249 L91.5706 197.249 L91.5706 193.314 Z" fill="#000000" fill-rule="nonzero" fill-opacity="1" /><path clip-path="url(#clip950)" d="M120.922 191.369 L125.807 191.369 L125.807 197.249 L120.922 197.249 L120.922 191.369 Z" fill="#000000" fill-rule="nonzero" fill-opacity="1" /><path clip-path="url(#clip950)" d="M145.992 165.768 Q142.381 165.768 140.552 169.332 Q138.746 172.874 138.746 180.004 Q138.746 187.11 140.552 190.675 Q142.381 194.217 145.992 194.217 Q149.626 194.217 151.431 190.675 Q153.26 187.11 153.26 180.004 Q153.26 172.874 151.431 169.332 Q149.626 165.768 145.992 165.768 M145.992 162.064 Q151.802 162.064 154.857 166.67 Q157.936 171.254 157.936 180.004 Q157.936 188.73 154.857 193.337 Q151.802 197.92 145.992 197.92 Q140.181 197.92 137.103 193.337 Q134.047 188.73 134.047 180.004 Q134.047 171.254 137.103 166.67 Q140.181 162.064 145.992 162.064 Z" fill="#000000" fill-rule="nonzero" fill-opacity="1" /><polyline clip-path="url(#clip952)" style="stroke:#009af9; stroke-linecap:round; stroke-linejoin:round; stroke-width:4; stroke-opacity:1; fill:none" points="255.035,795.781 258.278,789.623 261.521,783.465 264.764,777.309 268.007,771.155 271.25,765.003 274.493,758.854 277.736,752.709 280.979,746.568 284.222,740.432 287.465,734.302 290.708,728.178 293.951,722.061 297.194,715.951 300.437,709.848 303.68,703.755 306.923,697.671 310.166,691.596 313.409,685.532 316.652,679.479 319.895,673.438 323.138,667.409 326.381,661.392 329.624,655.39 332.867,649.401 336.11,643.426 339.353,637.468 342.596,631.524 345.84,625.598 349.083,619.688 352.326,613.796 355.569,607.922 358.812,602.067 362.055,596.231 365.298,590.415 368.541,584.62 371.784,578.846 375.027,573.094 378.27,567.364 381.513,561.656 384.756,555.972 387.999,550.312 391.242,544.677 394.485,539.067 397.728,533.482 400.971,527.924 404.214,522.392 407.457,516.888 410.7,511.412 413.943,505.964 417.186,500.545 420.429,495.155 423.672,489.796 426.915,484.467 430.158,479.17 433.401,473.904 436.644,468.67 439.887,463.469 443.13,458.301 446.373,453.167 449.616,448.067 452.859,443.002 456.103,437.972 459.346,432.978 462.589,428.021 465.832,423.1 469.075,418.216 472.318,413.37 475.561,408.563 478.804,403.794 482.047,399.064 485.29,394.374 488.533,389.724 491.776,385.115 495.019,380.546 498.262,376.02 501.505,371.535 504.748,367.092 507.991,362.693 511.234,358.337 514.477,354.024 517.72,349.756 520.963,345.533 524.206,341.354 527.449,337.221 530.692,333.133 533.935,329.092 537.178,325.098 540.421,321.151 543.664,317.251 546.907,313.399 550.15,309.595 553.393,305.84 556.636,302.134 559.879,298.477 563.122,294.87 566.366,291.313 569.609,287.806 572.852,284.351 576.095,280.946 579.338,277.593 582.581,274.292 585.824,271.043 589.067,267.846 592.31,264.702 595.553,261.611 598.796,258.574 602.039,255.59 605.282,252.661 608.525,249.785 611.768,246.965 615.011,244.199 618.254,241.488 621.497,238.833 624.74,236.233 627.983,233.69 631.226,231.203 634.469,228.772 637.712,226.397 640.955,224.08 644.198,221.82 647.441,219.617 650.684,217.472 653.927,215.385 657.17,213.356 660.413,211.385 663.656,209.472 666.899,207.618 670.142,205.823 673.385,204.087 676.629,202.41 679.872,200.793 683.115,199.235 686.358,197.736 689.601,196.297 692.844,194.919 696.087,193.6 699.33,192.342 702.573,191.144 705.816,190.006 709.059,188.929 712.302,187.913 715.545,186.957 718.788,186.063 722.031,185.229 725.274,184.456 728.517,183.745 731.76,183.095 735.003,182.506 738.246,181.978 741.489,181.512 744.732,181.107 747.975,180.763 751.218,180.481 754.461,180.261 757.704,180.102 760.947,180.005 764.19,179.969 767.433,179.995 770.676,180.082 773.919,180.232 777.162,180.442 780.405,180.714 783.648,181.048 786.892,181.443 790.135,181.899 793.378,182.417 796.621,182.997 799.864,183.637 803.107,184.339 806.35,185.102 809.593,185.926 812.836,186.811 816.079,187.757 819.322,188.763 822.565,189.831 825.808,190.959 829.051,192.147 832.294,193.396 835.537,194.705 838.78,196.074 842.023,197.503 845.266,198.992 848.509,200.54 851.752,202.149 854.995,203.816 858.238,205.543 861.481,207.329 864.724,209.173 867.967,211.076 871.21,213.038 874.453,215.058 877.696,217.136 880.939,219.272 884.182,221.465 887.425,223.716 890.668,226.025 893.911,228.39 897.155,230.812 900.398,233.29 903.641,235.825 906.884,238.415 910.127,241.062 913.37,243.763 916.613,246.521 919.856,249.333 923.099,252.199 926.342,255.12 929.585,258.095 932.828,261.124 936.071,264.206 939.314,267.342 942.557,270.53 945.8,273.771 949.043,277.064 952.286,280.409 955.529,283.805 958.772,287.253 962.015,290.751 965.258,294.3 968.501,297.899 971.744,301.548 974.987,305.246 978.23,308.994 981.473,312.79 984.716,316.634 987.959,320.526 991.202,324.466 994.445,328.453 997.688,332.487 1000.93,336.567 1004.17,340.693 1007.42,344.864 1010.66,349.08 1013.9,353.342 1017.15,357.647 1020.39,361.996 1023.63,366.389 1026.88,370.824 1030.12,375.302 1033.36,379.823 1036.6,384.384 1039.85,388.987 1043.09,393.631 1046.33,398.314 1049.58,403.038 1052.82,407.8 1056.06,412.602 1059.31,417.442 1062.55,422.32 1065.79,427.235 1069.04,432.186 1072.28,437.175 1075.52,442.199 1078.76,447.258 1082.01,452.353 1085.25,457.481 1088.49,462.644 1091.74,467.839 1094.98,473.068 1098.22,478.329 1101.47,483.622 1104.71,488.945 1107.95,494.3 1111.19,499.685 1114.44,505.099 1117.68,510.542 1120.92,516.014 1124.17,521.514 1127.41,527.041 1130.65,532.595 1133.9,538.176 1137.14,543.782 1140.38,549.413 1143.62,555.069 1146.87,560.749 1150.11,566.453 1153.35,572.18 1156.6,577.928 1159.84,583.699 1163.08,589.491 1166.33,595.304 1169.57,601.136 1172.81,606.988 1176.06,612.859 1179.3,618.748 1182.54,624.655 1185.78,630.579 1189.03,636.52 1192.27,642.476 1195.51,648.448 1198.76,654.435 1202,660.435 1205.24,666.45 1208.49,672.477 1211.73,678.516 1214.97,684.567 1218.21,690.63 1221.46,696.703 1224.7,702.785 1227.94,708.877 1231.19,714.978 1234.43,721.087 1237.67,727.203 1240.92,733.326 1244.16,739.456 1247.4,745.591 1250.64,751.731 1253.89,757.875 1257.13,764.023 1260.37,770.175 1263.62,776.329 1266.86,782.485 1270.1,788.642 1273.35,794.8 1276.59,800.958 1279.83,807.116 1283.08,813.272 1286.32,819.427 1289.56,825.579 1292.8,831.728 1296.05,837.874 1299.29,844.015 1302.53,850.152 1305.78,856.283 1309.02,862.409 1312.26,868.527 1315.51,874.638 1318.75,880.742 1321.99,886.837 1325.23,892.922 1328.48,898.998 1331.72,905.064 1334.96,911.119 1338.21,917.162 1341.45,923.193 1344.69,929.212 1347.94,935.217 1351.18,941.208 1354.42,947.185 1357.66,953.146 1360.91,959.092 1364.15,965.021 1367.39,970.933 1370.64,976.828 1373.88,982.705 1377.12,988.563 1380.37,994.402 1383.61,1000.22 1386.85,1006.02 1390.1,1011.8 1393.34,1017.55 1396.58,1023.29 1399.82,1029 1403.07,1034.69 1406.31,1040.35 1409.55,1045.99 1412.8,1051.6 1416.04,1057.19 1419.28,1062.75 1422.53,1068.29 1425.77,1073.8 1429.01,1079.28 1432.25,1084.73 1435.5,1090.16 1438.74,1095.55 1441.98,1100.91 1445.23,1106.25 1448.47,1111.55 1451.71,1116.82 1454.96,1122.06 1458.2,1127.27 1461.44,1132.44 1464.68,1137.58 1467.93,1142.68 1471.17,1147.75 1474.41,1152.79 1477.66,1157.79 1480.9,1162.75 1484.14,1167.68 1487.39,1172.57 1490.63,1177.42 1493.87,1182.24 1497.11,1187.01 1500.36,1191.75 1503.6,1196.44 1506.84,1201.1 1510.09,1205.72 1513.33,1210.29 1516.57,1214.82 1519.82,1219.32 1523.06,1223.76 1526.3,1228.17 1529.55,1232.53 1532.79,1236.85 1536.03,1241.13 1539.27,1245.36 1542.52,1249.55 1545.76,1253.69 1549,1257.78 1552.25,1261.83 1555.49,1265.83 1558.73,1269.79 1561.98,1273.69 1565.22,1277.55 1568.46,1281.36 1571.7,1285.13 1574.95,1288.84 1578.19,1292.51 1581.43,1296.12 1584.68,1299.69 1587.92,1303.2 1591.16,1306.66 1594.41,1310.08 1597.65,1313.44 1600.89,1316.75 1604.13,1320.01 1607.38,1323.21 1610.62,1326.36 1613.86,1329.46 1617.11,1332.51 1620.35,1335.5 1623.59,1338.44 1626.84,1341.32 1630.08,1344.15 1633.32,1346.93 1636.57,1349.65 1639.81,1352.31 1643.05,1354.92 1646.29,1357.47 1649.54,1359.97 1652.78,1362.41 1656.02,1364.79 1659.27,1367.12 1662.51,1369.39 1665.75,1371.6 1669,1373.75 1672.24,1375.85 1675.48,1377.89 1678.72,1379.87 1681.97,1381.79 1685.21,1383.65 1688.45,1385.46 1691.7,1387.2 1694.94,1388.89 1698.18,1390.52 1701.43,1392.08 1704.67,1393.59 1707.91,1395.04 1711.15,1396.43 1714.4,1397.76 1717.64,1399.02 1720.88,1400.23 1724.13,1401.38 1727.37,1402.46 1730.61,1403.49 1733.86,1404.46 1737.1,1405.36 1740.34,1406.2 1743.59,1406.99 1746.83,1407.71 1750.07,1408.37 1753.31,1408.97 1756.56,1409.5 1759.8,1409.98 1763.04,1410.39 1766.29,1410.75 1769.53,1411.04 1772.77,1411.27 1776.02,1411.44 1779.26,1411.55 1782.5,1411.59 1785.74,1411.57 1788.99,1411.5 1792.23,1411.36 1795.47,1411.16 1798.72,1410.89 1801.96,1410.57 1805.2,1410.19 1808.45,1409.74 1811.69,1409.23 1814.93,1408.66 1818.17,1408.03 1821.42,1407.34 1824.66,1406.59 1827.9,1405.77 1831.15,1404.9 1834.39,1403.96 1837.63,1402.96 1840.88,1401.91 1844.12,1400.79 1847.36,1399.61 1850.61,1398.37 1853.85,1397.07 1857.09,1395.71 1860.33,1394.29 1863.58,1392.81 1866.82,1391.27 1870.06,1389.67 1873.31,1388.01 1876.55,1386.3 1879.79,1384.52 1883.04,1382.69 1886.28,1380.79 1889.52,1378.84 1892.76,1376.83 1896.01,1374.76 1899.25,1372.63 1902.49,1370.45 1905.74,1368.21 1908.98,1365.91 1912.22,1363.55 1915.47,1361.14 1918.71,1358.67 1921.95,1356.14 1925.19,1353.56 1928.44,1350.93 1931.68,1348.23 1934.92,1345.48 1938.17,1342.68 1941.41,1339.82 1944.65,1336.91 1947.9,1333.94 1951.14,1330.92 1954.38,1327.85 1957.63,1324.72 1960.87,1321.54 1964.11,1318.31 1967.35,1315.03 1970.6,1311.69 1973.84,1308.3 1977.08,1304.86 1980.33,1301.37 1983.57,1297.83 1986.81,1294.24 1990.06,1290.6 1993.3,1286.91 1996.54,1283.17 1999.78,1279.38 2003.03,1275.54 2006.27,1271.66 2009.51,1267.73 2012.76,1263.75 2016,1259.72 2019.24,1255.65 2022.49,1251.53 2025.73,1247.36 2028.97,1243.16 2032.21,1238.9 2035.46,1234.6 2038.7,1230.26 2041.94,1225.88 2045.19,1221.45 2048.43,1216.98 2051.67,1212.46 2054.92,1207.91 2058.16,1203.31 2061.4,1198.67 2064.65,1194 2067.89,1189.28 2071.13,1184.52 2074.37,1179.73 2077.62,1174.89 2080.86,1170.02 2084.1,1165.11 2087.35,1160.17 2090.59,1155.18 2093.83,1150.17 2097.08,1145.11 2100.32,1140.02 2103.56,1134.9 2106.8,1129.74 2110.05,1124.55 2113.29,1119.33 2116.53,1114.07 2119.78,1108.79 2123.02,1103.47 2126.26,1098.12 2129.51,1092.74 2132.75,1087.33 2135.99,1081.89 2139.23,1076.42 2142.48,1070.93 2145.72,1065.4 2148.96,1059.85 2152.21,1054.28 2155.45,1048.67 2158.69,1043.05 2161.94,1037.39 2165.18,1031.72 2168.42,1026.02 2171.67,1020.3 2174.91,1014.55 2178.15,1008.78 2181.39,1002.99 2184.64,997.185 2187.88,991.356 2191.12,985.507 2194.37,979.639 2197.61,973.752 2200.85,967.848 2204.1,961.927 2207.34,955.989 2210.58,950.035 2213.82,944.065 2217.07,938.081 2220.31,932.083 2223.55,926.071 2226.8,920.046 2230.04,914.008 2233.28,907.959 2236.53,901.898 2239.77,895.827 2243.01,889.746 2246.25,883.655 2249.5,877.556 2252.74,871.448 2255.98,865.333 2259.23,859.211 2262.47,853.082 2265.71,846.948 2268.96,840.809 2272.2,834.665 2275.44,828.517 2278.69,822.367 2281.93,816.213 2285.17,810.057 2288.41,803.9 2291.66,797.742 "/>
<circle clip-path="url(#clip952)" cx="319.895" cy="776.728" r="14.4" fill="#e26f46" fill-rule="evenodd" fill-opacity="1" stroke="#000000" stroke-opacity="1" stroke-width="3.2"/>
<circle clip-path="url(#clip952)" cx="2061.4" cy="1210.78" r="14.4" fill="#e26f46" fill-rule="evenodd" fill-opacity="1" stroke="#000000" stroke-opacity="1" stroke-width="3.2"/>
<circle clip-path="url(#clip952)" cx="1571.7" cy="1423.28" r="14.4" fill="#e26f46" fill-rule="evenodd" fill-opacity="1" stroke="#000000" stroke-opacity="1" stroke-width="3.2"/>
<circle clip-path="url(#clip952)" cx="1065.79" cy="430.87" r="14.4" fill="#e26f46" fill-rule="evenodd" fill-opacity="1" stroke="#000000" stroke-opacity="1" stroke-width="3.2"/>
<circle clip-path="url(#clip952)" cx="2035.46" cy="1225.54" r="14.4" fill="#e26f46" fill-rule="evenodd" fill-opacity="1" stroke="#000000" stroke-opacity="1" stroke-width="3.2"/>
<circle clip-path="url(#clip952)" cx="1857.09" cy="1324.81" r="14.4" fill="#e26f46" fill-rule="evenodd" fill-opacity="1" stroke="#000000" stroke-opacity="1" stroke-width="3.2"/>
<circle clip-path="url(#clip952)" cx="452.859" cy="494.199" r="14.4" fill="#e26f46" fill-rule="evenodd" fill-opacity="1" stroke="#000000" stroke-opacity="1" stroke-width="3.2"/>
<circle clip-path="url(#clip952)" cx="1977.08" cy="1220.57" r="14.4" fill="#e26f46" fill-rule="evenodd" fill-opacity="1" stroke="#000000" stroke-opacity="1" stroke-width="3.2"/>
<circle clip-path="url(#clip952)" cx="1309.02" cy="798.246" r="14.4" fill="#e26f46" fill-rule="evenodd" fill-opacity="1" stroke="#000000" stroke-opacity="1" stroke-width="3.2"/>
<circle clip-path="url(#clip952)" cx="1662.51" cy="1251.98" r="14.4" fill="#e26f46" fill-rule="evenodd" fill-opacity="1" stroke="#000000" stroke-opacity="1" stroke-width="3.2"/>
<circle clip-path="url(#clip952)" cx="686.358" cy="142.33" r="14.4" fill="#e26f46" fill-rule="evenodd" fill-opacity="1" stroke="#000000" stroke-opacity="1" stroke-width="3.2"/>
<circle clip-path="url(#clip952)" cx="1873.31" cy="1411.7" r="14.4" fill="#e26f46" fill-rule="evenodd" fill-opacity="1" stroke="#000000" stroke-opacity="1" stroke-width="3.2"/>
<circle clip-path="url(#clip952)" cx="890.668" cy="87.9763" r="14.4" fill="#e26f46" fill-rule="evenodd" fill-opacity="1" stroke="#000000" stroke-opacity="1" stroke-width="3.2"/>
<circle clip-path="url(#clip952)" cx="1814.93" cy="1312.48" r="14.4" fill="#e26f46" fill-rule="evenodd" fill-opacity="1" stroke="#000000" stroke-opacity="1" stroke-width="3.2"/>
<circle clip-path="url(#clip952)" cx="1091.74" cy="548.337" r="14.4" fill="#e26f46" fill-rule="evenodd" fill-opacity="1" stroke="#000000" stroke-opacity="1" stroke-width="3.2"/>
<circle clip-path="url(#clip952)" cx="1146.87" cy="454.074" r="14.4" fill="#e26f46" fill-rule="evenodd" fill-opacity="1" stroke="#000000" stroke-opacity="1" stroke-width="3.2"/>
<circle clip-path="url(#clip952)" cx="1153.35" cy="617.017" r="14.4" fill="#e26f46" fill-rule="evenodd" fill-opacity="1" stroke="#000000" stroke-opacity="1" stroke-width="3.2"/>
<circle clip-path="url(#clip952)" cx="1925.19" cy="1445.72" r="14.4" fill="#e26f46" fill-rule="evenodd" fill-opacity="1" stroke="#000000" stroke-opacity="1" stroke-width="3.2"/>
<circle clip-path="url(#clip952)" cx="2174.91" cy="1061.88" r="14.4" fill="#e26f46" fill-rule="evenodd" fill-opacity="1" stroke="#000000" stroke-opacity="1" stroke-width="3.2"/>
<circle clip-path="url(#clip952)" cx="2187.88" cy="1101.85" r="14.4" fill="#e26f46" fill-rule="evenodd" fill-opacity="1" stroke="#000000" stroke-opacity="1" stroke-width="3.2"/>
<path clip-path="url(#clip950)" d="M1953.46 250.738 L2280.8 250.738 L2280.8 95.2176 L1953.46 95.2176  Z" fill="#ffffff" fill-rule="evenodd" fill-opacity="1"/>
<polyline clip-path="url(#clip950)" style="stroke:#000000; stroke-linecap:round; stroke-linejoin:round; stroke-width:4; stroke-opacity:1; fill:none" points="1953.46,250.738 2280.8,250.738 2280.8,95.2176 1953.46,95.2176 1953.46,250.738 "/>
<polyline clip-path="url(#clip950)" style="stroke:#009af9; stroke-linecap:round; stroke-linejoin:round; stroke-width:4; stroke-opacity:1; fill:none" points="1977.44,147.058 2121.36,147.058 "/>
<path clip-path="url(#clip950)" d="M2152.76 131.051 L2152.76 138.412 L2161.53 138.412 L2161.53 141.722 L2152.76 141.722 L2152.76 155.796 Q2152.76 158.967 2153.61 159.87 Q2154.49 160.773 2157.16 160.773 L2161.53 160.773 L2161.53 164.338 L2157.16 164.338 Q2152.23 164.338 2150.35 162.509 Q2148.48 160.657 2148.48 155.796 L2148.48 141.722 L2145.35 141.722 L2145.35 138.412 L2148.48 138.412 L2148.48 131.051 L2152.76 131.051 Z" fill="#000000" fill-rule="nonzero" fill-opacity="1" /><path clip-path="url(#clip950)" d="M2182.16 142.393 Q2181.44 141.977 2180.58 141.791 Q2179.75 141.583 2178.73 141.583 Q2175.12 141.583 2173.17 143.944 Q2171.25 146.282 2171.25 150.68 L2171.25 164.338 L2166.97 164.338 L2166.97 138.412 L2171.25 138.412 L2171.25 142.44 Q2172.6 140.078 2174.75 138.944 Q2176.9 137.787 2179.98 137.787 Q2180.42 137.787 2180.95 137.856 Q2181.48 137.903 2182.13 138.018 L2182.16 142.393 Z" fill="#000000" fill-rule="nonzero" fill-opacity="1" /><path clip-path="url(#clip950)" d="M2186.18 154.106 L2186.18 138.412 L2190.44 138.412 L2190.44 153.944 Q2190.44 157.625 2191.88 159.476 Q2193.31 161.305 2196.18 161.305 Q2199.63 161.305 2201.62 159.106 Q2203.64 156.907 2203.64 153.111 L2203.64 138.412 L2207.9 138.412 L2207.9 164.338 L2203.64 164.338 L2203.64 160.356 Q2202.09 162.717 2200.03 163.875 Q2197.99 165.009 2195.28 165.009 Q2190.81 165.009 2188.5 162.231 Q2186.18 159.453 2186.18 154.106 M2196.9 137.787 L2196.9 137.787 Z" fill="#000000" fill-rule="nonzero" fill-opacity="1" /><path clip-path="url(#clip950)" d="M2220.88 131.051 L2220.88 138.412 L2229.66 138.412 L2229.66 141.722 L2220.88 141.722 L2220.88 155.796 Q2220.88 158.967 2221.74 159.87 Q2222.62 160.773 2225.28 160.773 L2229.66 160.773 L2229.66 164.338 L2225.28 164.338 Q2220.35 164.338 2218.48 162.509 Q2216.6 160.657 2216.6 155.796 L2216.6 141.722 L2213.48 141.722 L2213.48 138.412 L2216.6 138.412 L2216.6 131.051 L2220.88 131.051 Z" fill="#000000" fill-rule="nonzero" fill-opacity="1" /><path clip-path="url(#clip950)" d="M2256.81 148.689 L2256.81 164.338 L2252.55 164.338 L2252.55 148.828 Q2252.55 145.148 2251.11 143.319 Q2249.68 141.49 2246.81 141.49 Q2243.36 141.49 2241.37 143.69 Q2239.38 145.889 2239.38 149.685 L2239.38 164.338 L2235.1 164.338 L2235.1 128.319 L2239.38 128.319 L2239.38 142.44 Q2240.91 140.102 2242.97 138.944 Q2245.05 137.787 2247.76 137.787 Q2252.23 137.787 2254.52 140.565 Q2256.81 143.319 2256.81 148.689 Z" fill="#000000" fill-rule="nonzero" fill-opacity="1" /><circle clip-path="url(#clip950)" cx="2049.4" cy="198.898" r="20.48" fill="#e26f46" fill-rule="evenodd" fill-opacity="1" stroke="#000000" stroke-opacity="1" stroke-width="4.55111"/>
<path clip-path="url(#clip950)" d="M2164.26 194.187 L2164.26 180.159 L2168.52 180.159 L2168.52 216.178 L2164.26 216.178 L2164.26 212.289 Q2162.92 214.603 2160.86 215.738 Q2158.82 216.849 2155.95 216.849 Q2151.25 216.849 2148.29 213.099 Q2145.35 209.349 2145.35 203.238 Q2145.35 197.127 2148.29 193.377 Q2151.25 189.627 2155.95 189.627 Q2158.82 189.627 2160.86 190.761 Q2162.92 191.872 2164.26 194.187 M2149.75 203.238 Q2149.75 207.937 2151.67 210.622 Q2153.61 213.284 2156.99 213.284 Q2160.37 213.284 2162.32 210.622 Q2164.26 207.937 2164.26 203.238 Q2164.26 198.539 2162.32 195.877 Q2160.37 193.192 2156.99 193.192 Q2153.61 193.192 2151.67 195.877 Q2149.75 198.539 2149.75 203.238 Z" fill="#000000" fill-rule="nonzero" fill-opacity="1" /><path clip-path="url(#clip950)" d="M2189.08 203.145 Q2183.92 203.145 2181.92 204.326 Q2179.93 205.506 2179.93 208.354 Q2179.93 210.622 2181.42 211.965 Q2182.92 213.284 2185.49 213.284 Q2189.03 213.284 2191.16 210.784 Q2193.31 208.261 2193.31 204.094 L2193.31 203.145 L2189.08 203.145 M2197.57 201.386 L2197.57 216.178 L2193.31 216.178 L2193.31 212.242 Q2191.85 214.603 2189.68 215.738 Q2187.5 216.849 2184.36 216.849 Q2180.37 216.849 2178.01 214.627 Q2175.67 212.381 2175.67 208.631 Q2175.67 204.256 2178.59 202.034 Q2181.53 199.812 2187.34 199.812 L2193.31 199.812 L2193.31 199.395 Q2193.31 196.455 2191.37 194.858 Q2189.45 193.238 2185.95 193.238 Q2183.73 193.238 2181.62 193.77 Q2179.52 194.303 2177.57 195.367 L2177.57 191.432 Q2179.91 190.53 2182.11 190.09 Q2184.31 189.627 2186.39 189.627 Q2192.02 189.627 2194.79 192.543 Q2197.57 195.46 2197.57 201.386 Z" fill="#000000" fill-rule="nonzero" fill-opacity="1" /><path clip-path="url(#clip950)" d="M2210.56 182.891 L2210.56 190.252 L2219.33 190.252 L2219.33 193.562 L2210.56 193.562 L2210.56 207.636 Q2210.56 210.807 2211.42 211.71 Q2212.29 212.613 2214.96 212.613 L2219.33 212.613 L2219.33 216.178 L2214.96 216.178 Q2210.03 216.178 2208.15 214.349 Q2206.28 212.497 2206.28 207.636 L2206.28 193.562 L2203.15 193.562 L2203.15 190.252 L2206.28 190.252 L2206.28 182.891 L2210.56 182.891 Z" fill="#000000" fill-rule="nonzero" fill-opacity="1" /><path clip-path="url(#clip950)" d="M2236.72 203.145 Q2231.55 203.145 2229.56 204.326 Q2227.57 205.506 2227.57 208.354 Q2227.57 210.622 2229.05 211.965 Q2230.56 213.284 2233.13 213.284 Q2236.67 213.284 2238.8 210.784 Q2240.95 208.261 2240.95 204.094 L2240.95 203.145 L2236.72 203.145 M2245.21 201.386 L2245.21 216.178 L2240.95 216.178 L2240.95 212.242 Q2239.49 214.603 2237.32 215.738 Q2235.14 216.849 2231.99 216.849 Q2228.01 216.849 2225.65 214.627 Q2223.31 212.381 2223.31 208.631 Q2223.31 204.256 2226.23 202.034 Q2229.17 199.812 2234.98 199.812 L2240.95 199.812 L2240.95 199.395 Q2240.95 196.455 2239.01 194.858 Q2237.09 193.238 2233.59 193.238 Q2231.37 193.238 2229.26 193.77 Q2227.16 194.303 2225.21 195.367 L2225.21 191.432 Q2227.55 190.53 2229.75 190.09 Q2231.95 189.627 2234.03 189.627 Q2239.66 189.627 2242.43 192.543 Q2245.21 195.46 2245.21 201.386 Z" fill="#000000" fill-rule="nonzero" fill-opacity="1" /></svg>
