<?xml version="1.0" encoding="utf-8"?>
<svg xmlns="http://www.w3.org/2000/svg" xmlns:xlink="http://www.w3.org/1999/xlink" width="600" height="400" viewBox="0 0 2400 1600">
<defs>
  <clipPath id="clip620">
    <rect x="0" y="0" width="2400" height="1600"/>
  </clipPath>
</defs>
<path clip-path="url(#clip620)" d="M0 1600 L2400 1600 L2400 0 L0 0  Z" fill="#ffffff" fill-rule="evenodd" fill-opacity="1"/>
<defs>
  <clipPath id="clip621">
    <rect x="480" y="0" width="1681" height="1600"/>
  </clipPath>
</defs>
<path clip-path="url(#clip620)" d="M193.936 1486.45 L2352.76 1486.45 L2352.76 47.2441 L193.936 47.2441  Z" fill="#ffffff" fill-rule="evenodd" fill-opacity="1"/>
<defs>
  <clipPath id="clip622">
    <rect x="193" y="47" width="2160" height="1440"/>
  </clipPath>
</defs>
<polyline clip-path="url(#clip622)" style="stroke:#000000; stroke-linecap:round; stroke-linejoin:round; stroke-width:2; stroke-opacity:0.1; fill:none" points="255.035,1486.45 255.035,47.2441 "/>
<polyline clip-path="url(#clip622)" style="stroke:#000000; stroke-linecap:round; stroke-linejoin:round; stroke-width:2; stroke-opacity:0.1; fill:none" points="579.338,1486.45 579.338,47.2441 "/>
<polyline clip-path="url(#clip622)" style="stroke:#000000; stroke-linecap:round; stroke-linejoin:round; stroke-width:2; stroke-opacity:0.1; fill:none" points="903.641,1486.45 903.641,47.2441 "/>
<polyline clip-path="url(#clip622)" style="stroke:#000000; stroke-linecap:round; stroke-linejoin:round; stroke-width:2; stroke-opacity:0.1; fill:none" points="1227.94,1486.45 1227.94,47.2441 "/>
<polyline clip-path="url(#clip622)" style="stroke:#000000; stroke-linecap:round; stroke-linejoin:round; stroke-width:2; stroke-opacity:0.1; fill:none" points="1552.25,1486.45 1552.25,47.2441 "/>
<polyline clip-path="url(#clip622)" style="stroke:#000000; stroke-linecap:round; stroke-linejoin:round; stroke-width:2; stroke-opacity:0.1; fill:none" points="1876.55,1486.45 1876.55,47.2441 "/>
<polyline clip-path="url(#clip622)" style="stroke:#000000; stroke-linecap:round; stroke-linejoin:round; stroke-width:2; stroke-opacity:0.1; fill:none" points="2200.85,1486.45 2200.85,47.2441 "/>
<polyline clip-path="url(#clip622)" style="stroke:#000000; stroke-linecap:round; stroke-linejoin:round; stroke-width:2; stroke-opacity:0.1; fill:none" points="193.936,1311.31 2352.76,1311.31 "/>
<polyline clip-path="url(#clip622)" style="stroke:#000000; stroke-linecap:round; stroke-linejoin:round; stroke-width:2; stroke-opacity:0.1; fill:none" points="193.936,1053.62 2352.76,1053.62 "/>
<polyline clip-path="url(#clip622)" style="stroke:#000000; stroke-linecap:round; stroke-linejoin:round; stroke-width:2; stroke-opacity:0.1; fill:none" points="193.936,795.943 2352.76,795.943 "/>
<polyline clip-path="url(#clip622)" style="stroke:#000000; stroke-linecap:round; stroke-linejoin:round; stroke-width:2; stroke-opacity:0.1; fill:none" points="193.936,538.261 2352.76,538.261 "/>
<polyline clip-path="url(#clip622)" style="stroke:#000000; stroke-linecap:round; stroke-linejoin:round; stroke-width:2; stroke-opacity:0.1; fill:none" points="193.936,280.58 2352.76,280.58 "/>
<polyline clip-path="url(#clip620)" style="stroke:#000000; stroke-linecap:round; stroke-linejoin:round; stroke-width:4; stroke-opacity:1; fill:none" points="193.936,1486.45 2352.76,1486.45 "/>
<polyline clip-path="url(#clip620)" style="stroke:#000000; stroke-linecap:round; stroke-linejoin:round; stroke-width:4; stroke-opacity:1; fill:none" points="255.035,1486.45 255.035,1467.55 "/>
<polyline clip-path="url(#clip620)" style="stroke:#000000; stroke-linecap:round; stroke-linejoin:round; stroke-width:4; stroke-opacity:1; fill:none" points="579.338,1486.45 579.338,1467.55 "/>
<polyline clip-path="url(#clip620)" style="stroke:#000000; stroke-linecap:round; stroke-linejoin:round; stroke-width:4; stroke-opacity:1; fill:none" points="903.641,1486.45 903.641,1467.55 "/>
<polyline clip-path="url(#clip620)" style="stroke:#000000; stroke-linecap:round; stroke-linejoin:round; stroke-width:4; stroke-opacity:1; fill:none" points="1227.94,1486.45 1227.94,1467.55 "/>
<polyline clip-path="url(#clip620)" style="stroke:#000000; stroke-linecap:round; stroke-linejoin:round; stroke-width:4; stroke-opacity:1; fill:none" points="1552.25,1486.45 1552.25,1467.55 "/>
<polyline clip-path="url(#clip620)" style="stroke:#000000; stroke-linecap:round; stroke-linejoin:round; stroke-width:4; stroke-opacity:1; fill:none" points="1876.55,1486.45 1876.55,1467.55 "/>
<polyline clip-path="url(#clip620)" style="stroke:#000000; stroke-linecap:round; stroke-linejoin:round; stroke-width:4; stroke-opacity:1; fill:none" points="2200.85,1486.45 2200.85,1467.55 "/>
<path clip-path="url(#clip620)" d="M255.035 1517.37 Q251.424 1517.37 249.595 1520.93 Q247.789 1524.47 247.789 1531.6 Q247.789 1538.71 249.595 1542.27 Q251.424 1545.82 255.035 1545.82 Q258.669 1545.82 260.474 1542.27 Q262.303 1538.71 262.303 1531.6 Q262.303 1524.47 260.474 1520.93 Q258.669 1517.37 255.035 1517.37 M255.035 1513.66 Q260.845 1513.66 263.9 1518.27 Q266.979 1522.85 266.979 1531.6 Q266.979 1540.33 263.9 1544.94 Q260.845 1549.52 255.035 1549.52 Q249.225 1549.52 246.146 1544.94 Q243.09 1540.33 243.09 1531.6 Q243.09 1522.85 246.146 1518.27 Q249.225 1513.66 255.035 1513.66 Z" fill="#000000" fill-rule="nonzero" fill-opacity="1" /><path clip-path="url(#clip620)" d="M569.72 1544.91 L577.358 1544.91 L577.358 1518.55 L569.048 1520.21 L569.048 1515.95 L577.312 1514.29 L581.988 1514.29 L581.988 1544.91 L589.627 1544.91 L589.627 1548.85 L569.72 1548.85 L569.72 1544.91 Z" fill="#000000" fill-rule="nonzero" fill-opacity="1" /><path clip-path="url(#clip620)" d="M898.293 1544.91 L914.613 1544.91 L914.613 1548.85 L892.668 1548.85 L892.668 1544.91 Q895.33 1542.16 899.914 1537.53 Q904.52 1532.88 905.701 1531.53 Q907.946 1529.01 908.826 1527.27 Q909.729 1525.51 909.729 1523.82 Q909.729 1521.07 907.784 1519.33 Q905.863 1517.6 902.761 1517.6 Q900.562 1517.6 898.108 1518.36 Q895.678 1519.13 892.9 1520.68 L892.9 1515.95 Q895.724 1514.82 898.178 1514.24 Q900.631 1513.66 902.668 1513.66 Q908.039 1513.66 911.233 1516.35 Q914.428 1519.03 914.428 1523.52 Q914.428 1525.65 913.617 1527.57 Q912.83 1529.47 910.724 1532.07 Q910.145 1532.74 907.043 1535.95 Q903.942 1539.15 898.293 1544.91 Z" fill="#000000" fill-rule="nonzero" fill-opacity="1" /><path clip-path="url(#clip620)" d="M1232.19 1530.21 Q1235.55 1530.93 1237.42 1533.2 Q1239.32 1535.47 1239.32 1538.8 Q1239.32 1543.92 1235.8 1546.72 Q1232.28 1549.52 1225.8 1549.52 Q1223.63 1549.52 1221.31 1549.08 Q1219.02 1548.66 1216.57 1547.81 L1216.57 1543.29 Q1218.51 1544.43 1220.83 1545.01 Q1223.14 1545.58 1225.66 1545.58 Q1230.06 1545.58 1232.35 1543.85 Q1234.67 1542.11 1234.67 1538.8 Q1234.67 1535.75 1232.52 1534.03 Q1230.39 1532.3 1226.57 1532.3 L1222.54 1532.3 L1222.54 1528.45 L1226.75 1528.45 Q1230.2 1528.45 1232.03 1527.09 Q1233.86 1525.7 1233.86 1523.11 Q1233.86 1520.45 1231.96 1519.03 Q1230.08 1517.6 1226.57 1517.6 Q1224.64 1517.6 1222.45 1518.01 Q1220.25 1518.43 1217.61 1519.31 L1217.61 1515.14 Q1220.27 1514.4 1222.58 1514.03 Q1224.92 1513.66 1226.98 1513.66 Q1232.31 1513.66 1235.41 1516.09 Q1238.51 1518.5 1238.51 1522.62 Q1238.51 1525.49 1236.87 1527.48 Q1235.22 1529.45 1232.19 1530.21 Z" fill="#000000" fill-rule="nonzero" fill-opacity="1" /><path clip-path="url(#clip620)" d="M1555.26 1518.36 L1543.45 1536.81 L1555.26 1536.81 L1555.26 1518.36 M1554.03 1514.29 L1559.91 1514.29 L1559.91 1536.81 L1564.84 1536.81 L1564.84 1540.7 L1559.91 1540.7 L1559.91 1548.85 L1555.26 1548.85 L1555.26 1540.7 L1539.65 1540.7 L1539.65 1536.19 L1554.03 1514.29 Z" fill="#000000" fill-rule="nonzero" fill-opacity="1" /><path clip-path="url(#clip620)" d="M1866.83 1514.29 L1885.18 1514.29 L1885.18 1518.22 L1871.11 1518.22 L1871.11 1526.7 Q1872.13 1526.35 1873.15 1526.19 Q1874.17 1526 1875.18 1526 Q1880.97 1526 1884.35 1529.17 Q1887.73 1532.34 1887.73 1537.76 Q1887.73 1543.34 1884.26 1546.44 Q1880.79 1549.52 1874.47 1549.52 Q1872.29 1549.52 1870.02 1549.15 Q1867.78 1548.78 1865.37 1548.04 L1865.37 1543.34 Q1867.45 1544.47 1869.67 1545.03 Q1871.9 1545.58 1874.37 1545.58 Q1878.38 1545.58 1880.72 1543.48 Q1883.05 1541.37 1883.05 1537.76 Q1883.05 1534.15 1880.72 1532.04 Q1878.38 1529.94 1874.37 1529.94 Q1872.5 1529.94 1870.62 1530.35 Q1868.77 1530.77 1866.83 1531.65 L1866.83 1514.29 Z" fill="#000000" fill-rule="nonzero" fill-opacity="1" /><path clip-path="url(#clip620)" d="M2201.26 1529.7 Q2198.11 1529.7 2196.26 1531.86 Q2194.43 1534.01 2194.43 1537.76 Q2194.43 1541.49 2196.26 1543.66 Q2198.11 1545.82 2201.26 1545.82 Q2204.41 1545.82 2206.23 1543.66 Q2208.09 1541.49 2208.09 1537.76 Q2208.09 1534.01 2206.23 1531.86 Q2204.41 1529.7 2201.26 1529.7 M2210.54 1515.05 L2210.54 1519.31 Q2208.78 1518.48 2206.98 1518.04 Q2205.19 1517.6 2203.43 1517.6 Q2198.8 1517.6 2196.35 1520.72 Q2193.92 1523.85 2193.57 1530.17 Q2194.94 1528.15 2197 1527.09 Q2199.06 1526 2201.54 1526 Q2206.74 1526 2209.75 1529.17 Q2212.79 1532.32 2212.79 1537.76 Q2212.79 1543.08 2209.64 1546.3 Q2206.49 1549.52 2201.26 1549.52 Q2195.26 1549.52 2192.09 1544.94 Q2188.92 1540.33 2188.92 1531.6 Q2188.92 1523.41 2192.81 1518.55 Q2196.7 1513.66 2203.25 1513.66 Q2205.01 1513.66 2206.79 1514.01 Q2208.6 1514.36 2210.54 1515.05 Z" fill="#000000" fill-rule="nonzero" fill-opacity="1" /><polyline clip-path="url(#clip620)" style="stroke:#000000; stroke-linecap:round; stroke-linejoin:round; stroke-width:4; stroke-opacity:1; fill:none" points="193.936,1486.45 193.936,47.2441 "/>
<polyline clip-path="url(#clip620)" style="stroke:#000000; stroke-linecap:round; stroke-linejoin:round; stroke-width:4; stroke-opacity:1; fill:none" points="193.936,1311.31 212.834,1311.31 "/>
<polyline clip-path="url(#clip620)" style="stroke:#000000; stroke-linecap:round; stroke-linejoin:round; stroke-width:4; stroke-opacity:1; fill:none" points="193.936,1053.62 212.834,1053.62 "/>
<polyline clip-path="url(#clip620)" style="stroke:#000000; stroke-linecap:round; stroke-linejoin:round; stroke-width:4; stroke-opacity:1; fill:none" points="193.936,795.943 212.834,795.943 "/>
<polyline clip-path="url(#clip620)" style="stroke:#000000; stroke-linecap:round; stroke-linejoin:round; stroke-width:4; stroke-opacity:1; fill:none" points="193.936,538.261 212.834,538.261 "/>
<polyline clip-path="url(#clip620)" style="stroke:#000000; stroke-linecap:round; stroke-linejoin:round; stroke-width:4; stroke-opacity:1; fill:none" points="193.936,280.58 212.834,280.58 "/>
<path clip-path="url(#clip620)" d="M50.9921 1311.76 L80.6679 1311.76 L80.6679 1315.69 L50.9921 1315.69 L50.9921 1311.76 Z" fill="#000000" fill-rule="nonzero" fill-opacity="1" /><path clip-path="url(#clip620)" d="M91.5706 1324.65 L99.2095 1324.65 L99.2095 1298.28 L90.8993 1299.95 L90.8993 1295.69 L99.1632 1294.03 L103.839 1294.03 L103.839 1324.65 L111.478 1324.65 L111.478 1328.59 L91.5706 1328.59 L91.5706 1324.65 Z" fill="#000000" fill-rule="nonzero" fill-opacity="1" /><path clip-path="url(#clip620)" d="M120.922 1322.71 L125.807 1322.71 L125.807 1328.59 L120.922 1328.59 L120.922 1322.71 Z" fill="#000000" fill-rule="nonzero" fill-opacity="1" /><path clip-path="url(#clip620)" d="M145.992 1297.1 Q142.381 1297.1 140.552 1300.67 Q138.746 1304.21 138.746 1311.34 Q138.746 1318.45 140.552 1322.01 Q142.381 1325.55 145.992 1325.55 Q149.626 1325.55 151.431 1322.01 Q153.26 1318.45 153.26 1311.34 Q153.26 1304.21 151.431 1300.67 Q149.626 1297.1 145.992 1297.1 M145.992 1293.4 Q151.802 1293.4 154.857 1298.01 Q157.936 1302.59 157.936 1311.34 Q157.936 1320.07 154.857 1324.67 Q151.802 1329.26 145.992 1329.26 Q140.181 1329.26 137.103 1324.67 Q134.047 1320.07 134.047 1311.34 Q134.047 1302.59 137.103 1298.01 Q140.181 1293.4 145.992 1293.4 Z" fill="#000000" fill-rule="nonzero" fill-opacity="1" /><path clip-path="url(#clip620)" d="M51.9875 1054.08 L81.6633 1054.08 L81.6633 1058.01 L51.9875 1058.01 L51.9875 1054.08 Z" fill="#000000" fill-rule="nonzero" fill-opacity="1" /><path clip-path="url(#clip620)" d="M101.756 1039.42 Q98.1447 1039.42 96.316 1042.99 Q94.5104 1046.53 94.5104 1053.66 Q94.5104 1060.77 96.316 1064.33 Q98.1447 1067.87 101.756 1067.87 Q105.39 1067.87 107.196 1064.33 Q109.024 1060.77 109.024 1053.66 Q109.024 1046.53 107.196 1042.99 Q105.39 1039.42 101.756 1039.42 M101.756 1035.72 Q107.566 1035.72 110.621 1040.33 Q113.7 1044.91 113.7 1053.66 Q113.7 1062.39 110.621 1066.99 Q107.566 1071.58 101.756 1071.58 Q95.9456 1071.58 92.8669 1066.99 Q89.8114 1062.39 89.8114 1053.66 Q89.8114 1044.91 92.8669 1040.33 Q95.9456 1035.72 101.756 1035.72 Z" fill="#000000" fill-rule="nonzero" fill-opacity="1" /><path clip-path="url(#clip620)" d="M121.918 1065.02 L126.802 1065.02 L126.802 1070.9 L121.918 1070.9 L121.918 1065.02 Z" fill="#000000" fill-rule="nonzero" fill-opacity="1" /><path clip-path="url(#clip620)" d="M137.033 1036.34 L155.39 1036.34 L155.39 1040.28 L141.316 1040.28 L141.316 1048.75 Q142.334 1048.4 143.353 1048.24 Q144.371 1048.06 145.39 1048.06 Q151.177 1048.06 154.556 1051.23 Q157.936 1054.4 157.936 1059.82 Q157.936 1065.39 154.464 1068.5 Q150.992 1071.58 144.672 1071.58 Q142.496 1071.58 140.228 1071.21 Q137.982 1070.83 135.575 1070.09 L135.575 1065.39 Q137.658 1066.53 139.881 1067.08 Q142.103 1067.64 144.58 1067.64 Q148.584 1067.64 150.922 1065.53 Q153.26 1063.43 153.26 1059.82 Q153.26 1056.21 150.922 1054.1 Q148.584 1051.99 144.58 1051.99 Q142.705 1051.99 140.83 1052.41 Q138.978 1052.83 137.033 1053.71 L137.033 1036.34 Z" fill="#000000" fill-rule="nonzero" fill-opacity="1" /><path clip-path="url(#clip620)" d="M100.76 781.741 Q97.1493 781.741 95.3206 785.306 Q93.515 788.848 93.515 795.977 Q93.515 803.084 95.3206 806.649 Q97.1493 810.19 100.76 810.19 Q104.395 810.19 106.2 806.649 Q108.029 803.084 108.029 795.977 Q108.029 788.848 106.2 785.306 Q104.395 781.741 100.76 781.741 M100.76 778.038 Q106.571 778.038 109.626 782.644 Q112.705 787.227 112.705 795.977 Q112.705 804.704 109.626 809.311 Q106.571 813.894 100.76 813.894 Q94.9502 813.894 91.8715 809.311 Q88.816 804.704 88.816 795.977 Q88.816 787.227 91.8715 782.644 Q94.9502 778.038 100.76 778.038 Z" fill="#000000" fill-rule="nonzero" fill-opacity="1" /><path clip-path="url(#clip620)" d="M120.922 807.343 L125.807 807.343 L125.807 813.223 L120.922 813.223 L120.922 807.343 Z" fill="#000000" fill-rule="nonzero" fill-opacity="1" /><path clip-path="url(#clip620)" d="M145.992 781.741 Q142.381 781.741 140.552 785.306 Q138.746 788.848 138.746 795.977 Q138.746 803.084 140.552 806.649 Q142.381 810.19 145.992 810.19 Q149.626 810.19 151.431 806.649 Q153.26 803.084 153.26 795.977 Q153.26 788.848 151.431 785.306 Q149.626 781.741 145.992 781.741 M145.992 778.038 Q151.802 778.038 154.857 782.644 Q157.936 787.227 157.936 795.977 Q157.936 804.704 154.857 809.311 Q151.802 813.894 145.992 813.894 Q140.181 813.894 137.103 809.311 Q134.047 804.704 134.047 795.977 Q134.047 787.227 137.103 782.644 Q140.181 778.038 145.992 778.038 Z" fill="#000000" fill-rule="nonzero" fill-opacity="1" /><path clip-path="url(#clip620)" d="M101.756 524.06 Q98.1447 524.06 96.316 527.625 Q94.5104 531.166 94.5104 538.296 Q94.5104 545.402 96.316 548.967 Q98.1447 552.509 101.756 552.509 Q105.39 552.509 107.196 548.967 Q109.024 545.402 109.024 538.296 Q109.024 531.166 107.196 527.625 Q105.39 524.06 101.756 524.06 M101.756 520.356 Q107.566 520.356 110.621 524.963 Q113.7 529.546 113.7 538.296 Q113.7 547.023 110.621 551.629 Q107.566 556.213 101.756 556.213 Q95.9456 556.213 92.8669 551.629 Q89.8114 547.023 89.8114 538.296 Q89.8114 529.546 92.8669 524.963 Q95.9456 520.356 101.756 520.356 Z" fill="#000000" fill-rule="nonzero" fill-opacity="1" /><path clip-path="url(#clip620)" d="M121.918 549.662 L126.802 549.662 L126.802 555.541 L121.918 555.541 L121.918 549.662 Z" fill="#000000" fill-rule="nonzero" fill-opacity="1" /><path clip-path="url(#clip620)" d="M137.033 520.981 L155.39 520.981 L155.39 524.916 L141.316 524.916 L141.316 533.389 Q142.334 533.041 143.353 532.879 Q144.371 532.694 145.39 532.694 Q151.177 532.694 154.556 535.865 Q157.936 539.037 157.936 544.453 Q157.936 550.032 154.464 553.134 Q150.992 556.213 144.672 556.213 Q142.496 556.213 140.228 555.842 Q137.982 555.472 135.575 554.731 L135.575 550.032 Q137.658 551.166 139.881 551.722 Q142.103 552.277 144.58 552.277 Q148.584 552.277 150.922 550.171 Q153.26 548.064 153.26 544.453 Q153.26 540.842 150.922 538.736 Q148.584 536.629 144.58 536.629 Q142.705 536.629 140.83 537.046 Q138.978 537.463 137.033 538.342 L137.033 520.981 Z" fill="#000000" fill-rule="nonzero" fill-opacity="1" /><path clip-path="url(#clip620)" d="M91.5706 293.925 L99.2095 293.925 L99.2095 267.559 L90.8993 269.226 L90.8993 264.967 L99.1632 263.3 L103.839 263.3 L103.839 293.925 L111.478 293.925 L111.478 297.86 L91.5706 297.86 L91.5706 293.925 Z" fill="#000000" fill-rule="nonzero" fill-opacity="1" /><path clip-path="url(#clip620)" d="M120.922 291.98 L125.807 291.98 L125.807 297.86 L120.922 297.86 L120.922 291.98 Z" fill="#000000" fill-rule="nonzero" fill-opacity="1" /><path clip-path="url(#clip620)" d="M145.992 266.379 Q142.381 266.379 140.552 269.943 Q138.746 273.485 138.746 280.615 Q138.746 287.721 140.552 291.286 Q142.381 294.827 145.992 294.827 Q149.626 294.827 151.431 291.286 Q153.26 287.721 153.26 280.615 Q153.26 273.485 151.431 269.943 Q149.626 266.379 145.992 266.379 M145.992 262.675 Q151.802 262.675 154.857 267.281 Q157.936 271.865 157.936 280.615 Q157.936 289.341 154.857 293.948 Q151.802 298.531 145.992 298.531 Q140.181 298.531 137.103 293.948 Q134.047 289.341 134.047 280.615 Q134.047 271.865 137.103 267.281 Q140.181 262.675 145.992 262.675 Z" fill="#000000" fill-rule="nonzero" fill-opacity="1" /><polyline clip-path="url(#clip622)" style="stroke:#009af9; stroke-linecap:round; stroke-linejoin:round; stroke-width:4; stroke-opacity:1; fill:none" points="255.035,795.943 258.278,790.789 261.521,785.636 264.764,780.484 268.007,775.334 271.25,770.185 274.493,765.039 277.736,759.897 280.979,754.758 284.222,749.623 287.465,744.492 290.708,739.367 293.951,734.247 297.194,729.134 300.437,724.027 303.68,718.928 306.923,713.836 310.166,708.752 313.409,703.678 316.652,698.612 319.895,693.556 323.138,688.51 326.381,683.475 329.624,678.452 332.867,673.44 336.11,668.44 339.353,663.453 342.596,658.479 345.84,653.519 349.083,648.574 352.326,643.643 355.569,638.727 358.812,633.827 362.055,628.943 365.298,624.076 368.541,619.226 371.784,614.394 375.027,609.58 378.27,604.784 381.513,600.008 384.756,595.251 387.999,590.514 391.242,585.798 394.485,581.103 397.728,576.429 400.971,571.778 404.214,567.148 407.457,562.542 410.7,557.959 413.943,553.4 417.186,548.865 420.429,544.354 423.672,539.869 426.915,535.41 430.158,530.976 433.401,526.569 436.644,522.189 439.887,517.836 443.13,513.512 446.373,509.215 449.616,504.947 452.859,500.708 456.103,496.499 459.346,492.319 462.589,488.17 465.832,484.052 469.075,479.965 472.318,475.91 475.561,471.886 478.804,467.895 482.047,463.937 485.29,460.012 488.533,456.12 491.776,452.263 495.019,448.44 498.262,444.651 501.505,440.898 504.748,437.18 507.991,433.499 511.234,429.853 514.477,426.244 517.72,422.672 520.963,419.137 524.206,415.64 527.449,412.181 530.692,408.761 533.935,405.379 537.178,402.036 540.421,398.733 543.664,395.469 546.907,392.245 550.15,389.062 553.393,385.919 556.636,382.818 559.879,379.757 563.122,376.739 566.366,373.762 569.609,370.827 572.852,367.935 576.095,365.086 579.338,362.28 582.581,359.517 585.824,356.798 589.067,354.123 592.31,351.492 595.553,348.905 598.796,346.363 602.039,343.866 605.282,341.414 608.525,339.008 611.768,336.648 615.011,334.333 618.254,332.064 621.497,329.842 624.74,327.667 627.983,325.538 631.226,323.456 634.469,321.422 637.712,319.435 640.955,317.496 644.198,315.604 647.441,313.761 650.684,311.966 653.927,310.219 657.17,308.521 660.413,306.871 663.656,305.271 666.899,303.719 670.142,302.217 673.385,300.764 676.629,299.361 679.872,298.007 683.115,296.703 686.358,295.449 689.601,294.245 692.844,293.091 696.087,291.988 699.33,290.934 702.573,289.932 705.816,288.98 709.059,288.079 712.302,287.228 715.545,286.428 718.788,285.68 722.031,284.982 725.274,284.335 728.517,283.74 731.76,283.196 735.003,282.703 738.246,282.261 741.489,281.871 744.732,281.532 747.975,281.245 751.218,281.009 754.461,280.824 757.704,280.691 760.947,280.61 764.19,280.58 767.433,280.602 770.676,280.675 773.919,280.8 777.162,280.976 780.405,281.204 783.648,281.483 786.892,281.813 790.135,282.196 793.378,282.629 796.621,283.114 799.864,283.65 803.107,284.237 806.35,284.876 809.593,285.565 812.836,286.306 816.079,287.097 819.322,287.94 822.565,288.833 825.808,289.777 829.051,290.771 832.294,291.817 835.537,292.912 838.78,294.058 842.023,295.254 845.266,296.5 848.509,297.796 851.752,299.142 854.995,300.537 858.238,301.982 861.481,303.477 864.724,305.02 867.967,306.613 871.21,308.255 874.453,309.945 877.696,311.684 880.939,313.472 884.182,315.308 887.425,317.191 890.668,319.123 893.911,321.102 897.155,323.129 900.398,325.203 903.641,327.325 906.884,329.493 910.127,331.707 913.37,333.968 916.613,336.276 919.856,338.629 923.099,341.028 926.342,343.473 929.585,345.962 932.828,348.497 936.071,351.077 939.314,353.701 942.557,356.369 945.8,359.081 949.043,361.837 952.286,364.636 955.529,367.479 958.772,370.364 962.015,373.292 965.258,376.262 968.501,379.274 971.744,382.327 974.987,385.422 978.23,388.559 981.473,391.735 984.716,394.953 987.959,398.21 991.202,401.507 994.445,404.844 997.688,408.219 1000.93,411.634 1004.17,415.087 1007.42,418.578 1010.66,422.107 1013.9,425.673 1017.15,429.276 1020.39,432.916 1023.63,436.592 1026.88,440.304 1030.12,444.051 1033.36,447.834 1036.6,451.652 1039.85,455.504 1043.09,459.39 1046.33,463.309 1049.58,467.262 1052.82,471.248 1056.06,475.267 1059.31,479.317 1062.55,483.399 1065.79,487.512 1069.04,491.657 1072.28,495.831 1075.52,500.036 1078.76,504.27 1082.01,508.533 1085.25,512.825 1088.49,517.146 1091.74,521.494 1094.98,525.87 1098.22,530.272 1101.47,534.702 1104.71,539.157 1107.95,543.638 1111.19,548.145 1114.44,552.676 1117.68,557.231 1120.92,561.81 1124.17,566.413 1127.41,571.039 1130.65,575.687 1133.9,580.357 1137.14,585.049 1140.38,589.762 1143.62,594.495 1146.87,599.249 1150.11,604.022 1153.35,608.815 1156.6,613.626 1159.84,618.455 1163.08,623.302 1166.33,628.167 1169.57,633.048 1172.81,637.945 1176.06,642.859 1179.3,647.787 1182.54,652.731 1185.78,657.688 1189.03,662.66 1192.27,667.645 1195.51,672.642 1198.76,677.653 1202,682.674 1205.24,687.708 1208.49,692.752 1211.73,697.806 1214.97,702.87 1218.21,707.944 1221.46,713.026 1224.7,718.116 1227.94,723.215 1231.19,728.32 1234.43,733.433 1237.67,738.551 1240.92,743.676 1244.16,748.805 1247.4,753.94 1250.64,759.078 1253.89,764.22 1257.13,769.366 1260.37,774.514 1263.62,779.664 1266.86,784.816 1270.1,789.968 1273.35,795.122 1276.59,800.275 1279.83,805.429 1283.08,810.581 1286.32,815.732 1289.56,820.88 1292.8,826.027 1296.05,831.17 1299.29,836.31 1302.53,841.445 1305.78,846.576 1309.02,851.702 1312.26,856.823 1315.51,861.937 1318.75,867.045 1321.99,872.146 1325.23,877.239 1328.48,882.324 1331.72,887.4 1334.96,892.467 1338.21,897.525 1341.45,902.572 1344.69,907.609 1347.94,912.635 1351.18,917.648 1354.42,922.65 1357.66,927.639 1360.91,932.615 1364.15,937.577 1367.39,942.525 1370.64,947.459 1373.88,952.377 1377.12,957.279 1380.37,962.166 1383.61,967.036 1386.85,971.888 1390.1,976.723 1393.34,981.54 1396.58,986.339 1399.82,991.118 1403.07,995.878 1406.31,1000.62 1409.55,1005.34 1412.8,1010.04 1416.04,1014.71 1419.28,1019.37 1422.53,1024 1425.77,1028.61 1429.01,1033.2 1432.25,1037.76 1435.5,1042.3 1438.74,1046.81 1441.98,1051.3 1445.23,1055.77 1448.47,1060.2 1451.71,1064.62 1454.96,1069 1458.2,1073.36 1461.44,1077.69 1464.68,1081.99 1467.93,1086.26 1471.17,1090.5 1474.41,1094.72 1477.66,1098.9 1480.9,1103.06 1484.14,1107.18 1487.39,1111.27 1490.63,1115.33 1493.87,1119.36 1497.11,1123.36 1500.36,1127.32 1503.6,1131.25 1506.84,1135.15 1510.09,1139.01 1513.33,1142.84 1516.57,1146.63 1519.82,1150.39 1523.06,1154.12 1526.3,1157.8 1529.55,1161.45 1532.79,1165.07 1536.03,1168.65 1539.27,1172.19 1542.52,1175.69 1545.76,1179.16 1549,1182.58 1552.25,1185.97 1555.49,1189.32 1558.73,1192.63 1561.98,1195.9 1565.22,1199.13 1568.46,1202.32 1571.7,1205.47 1574.95,1208.58 1578.19,1211.64 1581.43,1214.67 1584.68,1217.65 1587.92,1220.59 1591.16,1223.49 1594.41,1226.35 1597.65,1229.16 1600.89,1231.93 1604.13,1234.66 1607.38,1237.34 1610.62,1239.98 1613.86,1242.57 1617.11,1245.12 1620.35,1247.62 1623.59,1250.08 1626.84,1252.5 1630.08,1254.86 1633.32,1257.19 1636.57,1259.46 1639.81,1261.69 1643.05,1263.88 1646.29,1266.01 1649.54,1268.1 1652.78,1270.14 1656.02,1272.14 1659.27,1274.08 1662.51,1275.98 1665.75,1277.83 1669,1279.64 1672.24,1281.39 1675.48,1283.1 1678.72,1284.75 1681.97,1286.36 1685.21,1287.92 1688.45,1289.43 1691.7,1290.89 1694.94,1292.3 1698.18,1293.67 1701.43,1294.98 1704.67,1296.24 1707.91,1297.45 1711.15,1298.61 1714.4,1299.73 1717.64,1300.79 1720.88,1301.8 1724.13,1302.76 1727.37,1303.67 1730.61,1304.53 1733.86,1305.33 1737.1,1306.09 1740.34,1306.8 1743.59,1307.45 1746.83,1308.05 1750.07,1308.61 1753.31,1309.11 1756.56,1309.56 1759.8,1309.96 1763.04,1310.3 1766.29,1310.6 1769.53,1310.84 1772.77,1311.04 1776.02,1311.18 1779.26,1311.27 1782.5,1311.3 1785.74,1311.29 1788.99,1311.23 1792.23,1311.11 1795.47,1310.94 1798.72,1310.72 1801.96,1310.45 1805.2,1310.13 1808.45,1309.75 1811.69,1309.33 1814.93,1308.85 1818.17,1308.32 1821.42,1307.75 1824.66,1307.11 1827.9,1306.43 1831.15,1305.7 1834.39,1304.92 1837.63,1304.08 1840.88,1303.2 1844.12,1302.26 1847.36,1301.28 1850.61,1300.24 1853.85,1299.15 1857.09,1298.01 1860.33,1296.83 1863.58,1295.59 1866.82,1294.3 1870.06,1292.96 1873.31,1291.57 1876.55,1290.14 1879.79,1288.65 1883.04,1287.11 1886.28,1285.53 1889.52,1283.9 1892.76,1282.21 1896.01,1280.48 1899.25,1278.7 1902.49,1276.87 1905.74,1275 1908.98,1273.07 1912.22,1271.1 1915.47,1269.08 1918.71,1267.02 1921.95,1264.9 1925.19,1262.74 1928.44,1260.53 1931.68,1258.28 1934.92,1255.98 1938.17,1253.63 1941.41,1251.24 1944.65,1248.81 1947.9,1246.32 1951.14,1243.79 1954.38,1241.22 1957.63,1238.61 1960.87,1235.94 1964.11,1233.24 1967.35,1230.49 1970.6,1227.7 1973.84,1224.86 1977.08,1221.98 1980.33,1219.06 1983.57,1216.1 1986.81,1213.09 1990.06,1210.05 1993.3,1206.96 1996.54,1203.83 1999.78,1200.66 2003.03,1197.45 2006.27,1194.2 2009.51,1190.91 2012.76,1187.58 2016,1184.21 2019.24,1180.8 2022.49,1177.35 2025.73,1173.87 2028.97,1170.34 2032.21,1166.78 2035.46,1163.19 2038.7,1159.55 2041.94,1155.88 2045.19,1152.18 2048.43,1148.43 2051.67,1144.66 2054.92,1140.84 2058.16,1137 2061.4,1133.12 2064.65,1129.2 2067.89,1125.25 2071.13,1121.27 2074.37,1117.26 2077.62,1113.22 2080.86,1109.14 2084.1,1105.03 2087.35,1100.89 2090.59,1096.72 2093.83,1092.52 2097.08,1088.29 2100.32,1084.03 2103.56,1079.75 2106.8,1075.43 2110.05,1071.09 2113.29,1066.71 2116.53,1062.32 2119.78,1057.89 2123.02,1053.44 2126.26,1048.96 2129.51,1044.46 2132.75,1039.93 2135.99,1035.38 2139.23,1030.81 2142.48,1026.21 2145.72,1021.58 2148.96,1016.94 2152.21,1012.27 2155.45,1007.59 2158.69,1002.88 2161.94,998.145 2165.18,993.395 2168.42,988.625 2171.67,983.835 2174.91,979.027 2178.15,974.201 2181.39,969.356 2184.64,964.495 2187.88,959.616 2191.12,954.721 2194.37,949.81 2197.61,944.884 2200.85,939.943 2204.1,934.988 2207.34,930.018 2210.58,925.035 2213.82,920.04 2217.07,915.032 2220.31,910.012 2223.55,904.98 2226.8,899.938 2230.04,894.885 2233.28,889.822 2236.53,884.75 2239.77,879.67 2243.01,874.58 2246.25,869.483 2249.5,864.379 2252.74,859.267 2255.98,854.15 2259.23,849.026 2262.47,843.897 2265.71,838.764 2268.96,833.626 2272.2,828.484 2275.44,823.34 2278.69,818.192 2281.93,813.042 2285.17,807.89 2288.41,802.738 2291.66,797.584 "/>
<circle clip-path="url(#clip622)" cx="472.318" cy="420.883" r="14.4" fill="#e26f46" fill-rule="evenodd" fill-opacity="1" stroke="#000000" stroke-opacity="1" stroke-width="3.2"/>
<circle clip-path="url(#clip622)" cx="754.461" cy="302.197" r="14.4" fill="#e26f46" fill-rule="evenodd" fill-opacity="1" stroke="#000000" stroke-opacity="1" stroke-width="3.2"/>
<circle clip-path="url(#clip622)" cx="1182.54" cy="659.954" r="14.4" fill="#e26f46" fill-rule="evenodd" fill-opacity="1" stroke="#000000" stroke-opacity="1" stroke-width="3.2"/>
<circle clip-path="url(#clip622)" cx="1620.35" cy="1322.1" r="14.4" fill="#e26f46" fill-rule="evenodd" fill-opacity="1" stroke="#000000" stroke-opacity="1" stroke-width="3.2"/>
<circle clip-path="url(#clip622)" cx="1688.45" cy="1258.44" r="14.4" fill="#e26f46" fill-rule="evenodd" fill-opacity="1" stroke="#000000" stroke-opacity="1" stroke-width="3.2"/>
<circle clip-path="url(#clip622)" cx="1451.71" cy="1119.2" r="14.4" fill="#e26f46" fill-rule="evenodd" fill-opacity="1" stroke="#000000" stroke-opacity="1" stroke-width="3.2"/>
<circle clip-path="url(#clip622)" cx="345.84" cy="571.344" r="14.4" fill="#e26f46" fill-rule="evenodd" fill-opacity="1" stroke="#000000" stroke-opacity="1" stroke-width="3.2"/>
<circle clip-path="url(#clip622)" cx="563.122" cy="377.281" r="14.4" fill="#e26f46" fill-rule="evenodd" fill-opacity="1" stroke="#000000" stroke-opacity="1" stroke-width="3.2"/>
<circle clip-path="url(#clip622)" cx="1772.77" cy="1360.26" r="14.4" fill="#e26f46" fill-rule="evenodd" fill-opacity="1" stroke="#000000" stroke-opacity="1" stroke-width="3.2"/>
<circle clip-path="url(#clip622)" cx="2097.08" cy="1146.08" r="14.4" fill="#e26f46" fill-rule="evenodd" fill-opacity="1" stroke="#000000" stroke-opacity="1" stroke-width="3.2"/>
<circle clip-path="url(#clip622)" cx="2012.76" cy="1132.32" r="14.4" fill="#e26f46" fill-rule="evenodd" fill-opacity="1" stroke="#000000" stroke-opacity="1" stroke-width="3.2"/>
<circle clip-path="url(#clip622)" cx="2051.67" cy="1036.88" r="14.4" fill="#e26f46" fill-rule="evenodd" fill-opacity="1" stroke="#000000" stroke-opacity="1" stroke-width="3.2"/>
<circle clip-path="url(#clip622)" cx="978.23" cy="263.585" r="14.4" fill="#e26f46" fill-rule="evenodd" fill-opacity="1" stroke="#000000" stroke-opacity="1" stroke-width="3.2"/>
<circle clip-path="url(#clip622)" cx="1908.98" cy="1159.89" r="14.4" fill="#e26f46" fill-rule="evenodd" fill-opacity="1" stroke="#000000" stroke-opacity="1" stroke-width="3.2"/>
<circle clip-path="url(#clip622)" cx="1763.04" cy="1332.48" r="14.4" fill="#e26f46" fill-rule="evenodd" fill-opacity="1" stroke="#000000" stroke-opacity="1" stroke-width="3.2"/>
<circle clip-path="url(#clip622)" cx="1059.31" cy="565.761" r="14.4" fill="#e26f46" fill-rule="evenodd" fill-opacity="1" stroke="#000000" stroke-opacity="1" stroke-width="3.2"/>
<circle clip-path="url(#clip622)" cx="537.178" cy="306.609" r="14.4" fill="#e26f46" fill-rule="evenodd" fill-opacity="1" stroke="#000000" stroke-opacity="1" stroke-width="3.2"/>
<circle clip-path="url(#clip622)" cx="1289.56" cy="812.441" r="14.4" fill="#e26f46" fill-rule="evenodd" fill-opacity="1" stroke="#000000" stroke-opacity="1" stroke-width="3.2"/>
<circle clip-path="url(#clip622)" cx="978.23" cy="272.838" r="14.4" fill="#e26f46" fill-rule="evenodd" fill-opacity="1" stroke="#000000" stroke-opacity="1" stroke-width="3.2"/>
<circle clip-path="url(#clip622)" cx="306.923" cy="668.228" r="14.4" fill="#e26f46" fill-rule="evenodd" fill-opacity="1" stroke="#000000" stroke-opacity="1" stroke-width="3.2"/>
<path clip-path="url(#clip622)" d="M255.035 917.18 L258.278 911.355 L261.521 905.521 L264.764 899.682 L268.007 893.845 L271.25 888.014 L274.493 882.197 L277.736 876.4 L280.979 870.631 L284.222 864.895 L287.465 859.202 L290.708 853.559 L293.951 847.974 L297.194 842.455 L300.437 837.012 L303.68 831.653 L306.923 826.386 L310.166 821.22 L313.409 816.155 L316.652 811.192 L319.895 806.331 L323.138 801.572 L326.381 796.914 L329.624 792.358 L332.867 787.903 L336.11 783.549 L339.353 779.296 L342.596 775.143 L345.84 771.09 L349.083 767.134 L352.326 763.268 L355.569 759.479 L358.812 755.758 L362.055 752.093 L365.298 748.475 L368.541 744.893 L371.784 741.34 L375.027 737.805 L378.27 734.281 L381.513 730.761 L384.756 727.237 L387.999 723.703 L391.242 720.153 L394.485 716.583 L397.728 712.989 L400.971 709.367 L404.214 705.714 L407.457 702.028 L410.7 698.307 L413.943 694.552 L417.186 690.762 L420.429 686.937 L423.672 683.078 L426.915 679.189 L430.158 675.271 L433.401 671.327 L436.644 667.362 L439.887 663.381 L443.13 659.387 L446.373 655.388 L449.616 651.39 L452.859 647.4 L456.103 643.425 L459.346 639.474 L462.589 635.556 L465.832 631.679 L469.075 627.855 L472.318 624.092 L475.561 620.4 L478.804 616.781 L482.047 613.235 L485.29 609.765 L488.533 606.371 L491.776 603.055 L495.019 599.82 L498.262 596.67 L501.505 593.608 L504.748 590.639 L507.991 587.767 L511.234 584.999 L514.477 582.341 L517.72 579.798 L520.963 577.38 L524.206 575.092 L527.449 572.945 L530.692 570.946 L533.935 569.104 L537.178 567.428 L540.421 565.926 L543.664 564.596 L546.907 563.432 L550.15 562.432 L553.393 561.591 L556.636 560.905 L559.879 560.371 L563.122 559.984 L566.366 559.74 L569.609 559.627 L572.852 559.632 L576.095 559.743 L579.338 559.947 L582.581 560.233 L585.824 560.589 L589.067 561.004 L592.31 561.468 L595.553 561.97 L598.796 562.502 L602.039 563.055 L605.282 563.621 L608.525 564.191 L611.768 564.759 L615.011 565.317 L618.254 565.861 L621.497 566.384 L624.74 566.881 L627.983 567.347 L631.226 567.779 L634.469 568.172 L637.712 568.523 L640.955 568.83 L644.198 569.09 L647.441 569.3 L650.684 569.459 L653.927 569.567 L657.17 569.621 L660.413 569.622 L663.656 569.569 L666.899 569.463 L670.142 569.304 L673.385 569.093 L676.629 568.831 L679.872 568.52 L683.115 568.161 L686.358 567.758 L689.601 567.313 L692.844 566.828 L696.087 566.308 L699.33 565.755 L702.573 565.173 L705.816 564.568 L709.059 563.943 L712.302 563.303 L715.545 562.653 L718.788 562 L722.031 561.348 L725.274 560.704 L728.517 560.073 L731.76 559.463 L735.003 558.88 L738.246 558.33 L741.489 557.821 L744.732 557.36 L747.975 556.953 L751.218 556.608 L754.461 556.331 L757.704 556.128 L760.947 555.994 L764.19 555.923 L767.433 555.908 L770.676 555.942 L773.919 556.02 L777.162 556.135 L780.405 556.28 L783.648 556.449 L786.892 556.637 L790.135 556.837 L793.378 557.045 L796.621 557.255 L799.864 557.462 L803.107 557.662 L806.35 557.849 L809.593 558.02 L812.836 558.171 L816.079 558.299 L819.322 558.399 L822.565 558.47 L825.808 558.508 L829.051 558.511 L832.294 558.477 L835.537 558.405 L838.78 558.293 L842.023 558.139 L845.266 557.943 L848.509 557.705 L851.752 557.424 L854.995 557.1 L858.238 556.734 L861.481 556.327 L864.724 555.879 L867.967 555.392 L871.21 554.868 L874.453 554.308 L877.696 553.716 L880.939 553.093 L884.182 552.443 L887.425 551.769 L890.668 551.076 L893.911 550.367 L897.155 549.647 L900.398 548.922 L903.641 548.196 L906.884 547.476 L910.127 546.768 L913.37 546.079 L916.613 545.416 L919.856 544.788 L923.099 544.202 L926.342 543.669 L929.585 543.197 L932.828 542.797 L936.071 542.48 L939.314 542.257 L942.557 542.14 L945.8 542.141 L949.043 542.275 L952.286 542.555 L955.529 542.995 L958.772 543.61 L962.015 544.416 L965.258 545.428 L968.501 546.663 L971.744 548.137 L974.987 549.865 L978.23 551.866 L981.473 554.149 L984.716 556.706 L987.959 559.523 L991.202 562.586 L994.445 565.881 L997.688 569.393 L1000.93 573.11 L1004.17 577.017 L1007.42 581.101 L1010.66 585.35 L1013.9 589.752 L1017.15 594.295 L1020.39 598.968 L1023.63 603.76 L1026.88 608.662 L1030.12 613.664 L1033.36 618.759 L1036.6 623.938 L1039.85 629.195 L1043.09 634.522 L1046.33 639.914 L1049.58 645.365 L1052.82 650.87 L1056.06 656.425 L1059.31 662.025 L1062.55 667.666 L1065.79 673.34 L1069.04 679.038 L1072.28 684.753 L1075.52 690.477 L1078.76 696.203 L1082.01 701.925 L1085.25 707.635 L1088.49 713.33 L1091.74 719.002 L1094.98 724.649 L1098.22 730.265 L1101.47 735.847 L1104.71 741.392 L1107.95 746.897 L1111.19 752.362 L1114.44 757.783 L1117.68 763.16 L1120.92 768.493 L1124.17 773.781 L1127.41 779.025 L1130.65 784.227 L1133.9 789.387 L1137.14 794.507 L1140.38 799.591 L1143.62 804.64 L1146.87 809.657 L1150.11 814.648 L1153.35 819.615 L1156.6 824.564 L1159.84 829.499 L1163.08 834.425 L1166.33 839.348 L1169.57 844.273 L1172.81 849.207 L1176.06 854.156 L1179.3 859.127 L1182.54 864.125 L1185.78 869.156 L1189.03 874.218 L1192.27 879.307 L1195.51 884.418 L1198.76 889.548 L1202 894.695 L1205.24 899.853 L1208.49 905.022 L1211.73 910.197 L1214.97 915.377 L1218.21 920.56 L1221.46 925.744 L1224.7 930.928 L1227.94 936.11 L1231.19 941.291 L1234.43 946.471 L1237.67 951.649 L1240.92 956.827 L1244.16 962.005 L1247.4 967.186 L1250.64 972.37 L1253.89 977.561 L1257.13 982.761 L1260.37 987.973 L1263.62 993.2 L1266.86 998.446 L1270.1 1003.71 L1273.35 1009.01 L1276.59 1014.34 L1279.83 1019.7 L1283.08 1025.1 L1286.32 1030.55 L1289.56 1036.05 L1292.8 1041.6 L1296.05 1047.2 L1299.29 1052.84 L1302.53 1058.52 L1305.78 1064.22 L1309.02 1069.95 L1312.26 1075.68 L1315.51 1081.43 L1318.75 1087.18 L1321.99 1092.92 L1325.23 1098.66 L1328.48 1104.38 L1331.72 1110.08 L1334.96 1115.76 L1338.21 1121.41 L1341.45 1127.02 L1344.69 1132.6 L1347.94 1138.14 L1351.18 1143.64 L1354.42 1149.09 L1357.66 1154.5 L1360.91 1159.86 L1364.15 1165.16 L1367.39 1170.41 L1370.64 1175.61 L1373.88 1180.75 L1377.12 1185.84 L1380.37 1190.87 L1383.61 1195.84 L1386.85 1200.77 L1390.1 1205.63 L1393.34 1210.45 L1396.58 1215.21 L1399.82 1219.92 L1403.07 1224.59 L1406.31 1229.2 L1409.55 1233.78 L1412.8 1238.31 L1416.04 1242.81 L1419.28 1247.27 L1422.53 1251.7 L1425.77 1256.1 L1429.01 1260.47 L1432.25 1264.83 L1435.5 1269.17 L1438.74 1273.5 L1441.98 1277.82 L1445.23 1282.14 L1448.47 1286.45 L1451.71 1290.77 L1454.96 1295.1 L1458.2 1299.43 L1461.44 1303.76 L1464.68 1308.08 L1467.93 1312.38 L1471.17 1316.67 L1474.41 1320.93 L1477.66 1325.16 L1480.9 1329.35 L1484.14 1333.51 L1487.39 1337.62 L1490.63 1341.68 L1493.87 1345.68 L1497.11 1349.62 L1500.36 1353.5 L1503.6 1357.32 L1506.84 1361.06 L1510.09 1364.72 L1513.33 1368.3 L1516.57 1371.81 L1519.82 1375.23 L1523.06 1378.56 L1526.3 1381.8 L1529.55 1384.95 L1532.79 1388.01 L1536.03 1390.97 L1539.27 1393.84 L1542.52 1396.6 L1545.76 1399.27 L1549 1401.85 L1552.25 1404.32 L1555.49 1406.7 L1558.73 1408.97 L1561.98 1411.15 L1565.22 1413.23 L1568.46 1415.22 L1571.7 1417.11 L1574.95 1418.91 L1578.19 1420.62 L1581.43 1422.24 L1584.68 1423.78 L1587.92 1425.23 L1591.16 1426.6 L1594.41 1427.9 L1597.65 1429.12 L1600.89 1430.28 L1604.13 1431.37 L1607.38 1432.4 L1610.62 1433.37 L1613.86 1434.3 L1617.11 1435.18 L1620.35 1436.01 L1623.59 1436.82 L1626.84 1437.58 L1630.08 1438.3 L1633.32 1438.99 L1636.57 1439.64 L1639.81 1440.24 L1643.05 1440.81 L1646.29 1441.34 L1649.54 1441.82 L1652.78 1442.27 L1656.02 1442.67 L1659.27 1443.04 L1662.51 1443.37 L1665.75 1443.67 L1669 1443.93 L1672.24 1444.17 L1675.48 1444.38 L1678.72 1444.57 L1681.97 1444.74 L1685.21 1444.9 L1688.45 1445.05 L1691.7 1445.19 L1694.94 1445.33 L1698.18 1445.45 L1701.43 1445.55 L1704.67 1445.63 L1707.91 1445.69 L1711.15 1445.72 L1714.4 1445.72 L1717.64 1445.68 L1720.88 1445.62 L1724.13 1445.52 L1727.37 1445.39 L1730.61 1445.23 L1733.86 1445.03 L1737.1 1444.8 L1740.34 1444.55 L1743.59 1444.27 L1746.83 1443.96 L1750.07 1443.64 L1753.31 1443.3 L1756.56 1442.95 L1759.8 1442.59 L1763.04 1442.23 L1766.29 1441.86 L1769.53 1441.49 L1772.77 1441.12 L1776.02 1440.74 L1779.26 1440.34 L1782.5 1439.92 L1785.74 1439.48 L1788.99 1438.99 L1792.23 1438.47 L1795.47 1437.9 L1798.72 1437.27 L1801.96 1436.59 L1805.2 1435.84 L1808.45 1435.02 L1811.69 1434.13 L1814.93 1433.16 L1818.17 1432.11 L1821.42 1430.97 L1824.66 1429.76 L1827.9 1428.45 L1831.15 1427.06 L1834.39 1425.58 L1837.63 1424.02 L1840.88 1422.36 L1844.12 1420.62 L1847.36 1418.79 L1850.61 1416.87 L1853.85 1414.88 L1857.09 1412.8 L1860.33 1410.65 L1863.58 1408.42 L1866.82 1406.12 L1870.06 1403.75 L1873.31 1401.33 L1876.55 1398.84 L1879.79 1396.31 L1883.04 1393.72 L1886.28 1391.1 L1889.52 1388.44 L1892.76 1385.75 L1896.01 1383.04 L1899.25 1380.31 L1902.49 1377.57 L1905.74 1374.83 L1908.98 1372.1 L1912.22 1369.38 L1915.47 1366.66 L1918.71 1363.96 L1921.95 1361.25 L1925.19 1358.54 L1928.44 1355.83 L1931.68 1353.11 L1934.92 1350.38 L1938.17 1347.64 L1941.41 1344.88 L1944.65 1342.1 L1947.9 1339.32 L1951.14 1336.51 L1954.38 1333.68 L1957.63 1330.84 L1960.87 1327.99 L1964.11 1325.12 L1967.35 1322.23 L1970.6 1319.34 L1973.84 1316.45 L1977.08 1313.55 L1980.33 1310.66 L1983.57 1307.77 L1986.81 1304.9 L1990.06 1302.05 L1993.3 1299.24 L1996.54 1296.45 L1999.78 1293.72 L2003.03 1291.04 L2006.27 1288.43 L2009.51 1285.9 L2012.76 1283.45 L2016 1281.1 L2019.24 1278.85 L2022.49 1276.71 L2025.73 1274.69 L2028.97 1272.77 L2032.21 1270.99 L2035.46 1269.32 L2038.7 1267.8 L2041.94 1266.41 L2045.19 1265.17 L2048.43 1264.08 L2051.67 1263.15 L2054.92 1262.39 L2058.16 1261.79 L2061.4 1261.35 L2064.65 1261.06 L2067.89 1260.92 L2071.13 1260.92 L2074.37 1261.06 L2077.62 1261.34 L2080.86 1261.74 L2084.1 1262.28 L2087.35 1262.94 L2090.59 1263.72 L2093.83 1264.62 L2097.08 1265.64 L2100.32 1266.77 L2103.56 1268 L2106.8 1269.32 L2110.05 1270.73 L2113.29 1272.22 L2116.53 1273.78 L2119.78 1275.4 L2123.02 1277.07 L2126.26 1278.79 L2129.51 1280.55 L2132.75 1282.35 L2135.99 1284.17 L2139.23 1286.01 L2142.48 1287.87 L2145.72 1289.74 L2148.96 1291.63 L2152.21 1293.51 L2155.45 1295.4 L2158.69 1297.28 L2161.94 1299.15 L2165.18 1301.02 L2168.42 1302.87 L2171.67 1304.71 L2174.91 1306.53 L2178.15 1308.33 L2181.39 1310.11 L2184.64 1311.86 L2187.88 1313.59 L2191.12 1315.3 L2194.37 1316.98 L2197.61 1318.63 L2200.85 1320.25 L2204.1 1321.84 L2207.34 1323.4 L2210.58 1324.93 L2213.82 1326.43 L2217.07 1327.9 L2220.31 1329.33 L2223.55 1330.73 L2226.8 1332.1 L2230.04 1333.43 L2233.28 1334.73 L2236.53 1335.99 L2239.77 1337.23 L2243.01 1338.42 L2246.25 1339.59 L2249.5 1340.72 L2252.74 1341.82 L2255.98 1342.88 L2259.23 1343.92 L2262.47 1344.92 L2265.71 1345.88 L2268.96 1346.82 L2272.2 1347.72 L2275.44 1348.6 L2278.69 1349.44 L2281.93 1350.25 L2285.17 1351.03 L2288.41 1351.78 L2291.66 1352.5 L2291.66 555.093 L2288.41 559.233 L2285.17 563.425 L2281.93 567.67 L2278.69 571.968 L2275.44 576.319 L2272.2 580.722 L2268.96 585.179 L2265.71 589.689 L2262.47 594.252 L2259.23 598.867 L2255.98 603.536 L2252.74 608.258 L2249.5 613.032 L2246.25 617.858 L2243.01 622.737 L2239.77 627.667 L2236.53 632.648 L2233.28 637.681 L2230.04 642.763 L2226.8 647.895 L2223.55 653.076 L2220.31 658.305 L2217.07 663.582 L2213.82 668.904 L2210.58 674.272 L2207.34 679.684 L2204.1 685.138 L2200.85 690.634 L2197.61 696.169 L2194.37 701.742 L2191.12 707.352 L2187.88 712.995 L2184.64 718.671 L2181.39 724.376 L2178.15 730.108 L2174.91 735.864 L2171.67 741.641 L2168.42 747.437 L2165.18 753.247 L2161.94 759.068 L2158.69 764.896 L2155.45 770.727 L2152.21 776.556 L2148.96 782.377 L2145.72 788.187 L2142.48 793.979 L2139.23 799.747 L2135.99 805.484 L2132.75 811.185 L2129.51 816.842 L2126.26 822.446 L2123.02 827.991 L2119.78 833.467 L2116.53 838.865 L2113.29 844.176 L2110.05 849.39 L2106.8 854.497 L2103.56 859.486 L2100.32 864.346 L2097.08 869.066 L2093.83 873.637 L2090.59 878.059 L2087.35 882.335 L2084.1 886.468 L2080.86 890.459 L2077.62 894.311 L2074.37 898.025 L2071.13 901.604 L2067.89 905.049 L2064.65 908.36 L2061.4 911.538 L2058.16 914.584 L2054.92 917.498 L2051.67 920.282 L2048.43 922.934 L2045.19 925.462 L2041.94 927.872 L2038.7 930.168 L2035.46 932.357 L2032.21 934.445 L2028.97 936.436 L2025.73 938.336 L2022.49 940.148 L2019.24 941.876 L2016 943.525 L2012.76 945.098 L2009.51 946.598 L2006.27 948.036 L2003.03 949.424 L1999.78 950.774 L1996.54 952.096 L1993.3 953.4 L1990.06 954.696 L1986.81 955.992 L1983.57 957.296 L1980.33 958.615 L1977.08 959.956 L1973.84 961.326 L1970.6 962.728 L1967.35 964.167 L1964.11 965.647 L1960.87 967.171 L1957.63 968.741 L1954.38 970.359 L1951.14 972.027 L1947.9 973.743 L1944.65 975.51 L1941.41 977.325 L1938.17 979.188 L1934.92 981.097 L1931.68 983.05 L1928.44 985.045 L1925.19 987.078 L1921.95 989.147 L1918.71 991.247 L1915.47 993.376 L1912.22 995.528 L1908.98 997.7 L1905.74 999.888 L1902.49 1002.1 L1899.25 1004.33 L1896.01 1006.58 L1892.76 1008.87 L1889.52 1011.19 L1886.28 1013.55 L1883.04 1015.95 L1879.79 1018.38 L1876.55 1020.86 L1873.31 1023.39 L1870.06 1025.96 L1866.82 1028.57 L1863.58 1031.23 L1860.33 1033.94 L1857.09 1036.7 L1853.85 1039.49 L1850.61 1042.33 L1847.36 1045.22 L1844.12 1048.13 L1840.88 1051.09 L1837.63 1054.07 L1834.39 1057.08 L1831.15 1060.11 L1827.9 1063.16 L1824.66 1066.22 L1821.42 1069.28 L1818.17 1072.34 L1814.93 1075.38 L1811.69 1078.41 L1808.45 1081.4 L1805.2 1084.36 L1801.96 1087.27 L1798.72 1090.11 L1795.47 1092.88 L1792.23 1095.57 L1788.99 1098.16 L1785.74 1100.64 L1782.5 1102.99 L1779.26 1105.2 L1776.02 1107.26 L1772.77 1109.15 L1769.53 1110.85 L1766.29 1112.37 L1763.04 1113.7 L1759.8 1114.85 L1756.56 1115.81 L1753.31 1116.59 L1750.07 1117.22 L1746.83 1117.69 L1743.59 1118.02 L1740.34 1118.21 L1737.1 1118.27 L1733.86 1118.2 L1730.61 1118.02 L1727.37 1117.72 L1724.13 1117.32 L1720.88 1116.82 L1717.64 1116.21 L1714.4 1115.51 L1711.15 1114.71 L1707.91 1113.82 L1704.67 1112.83 L1701.43 1111.75 L1698.18 1110.57 L1694.94 1109.3 L1691.7 1107.93 L1688.45 1106.45 L1685.21 1104.88 L1681.97 1103.2 L1678.72 1101.43 L1675.48 1099.57 L1672.24 1097.62 L1669 1095.59 L1665.75 1093.47 L1662.51 1091.27 L1659.27 1089 L1656.02 1086.64 L1652.78 1084.2 L1649.54 1081.69 L1646.29 1079.09 L1643.05 1076.41 L1639.81 1073.65 L1636.57 1070.81 L1633.32 1067.87 L1630.08 1064.84 L1626.84 1061.72 L1623.59 1058.49 L1620.35 1055.17 L1617.11 1051.73 L1613.86 1048.2 L1610.62 1044.58 L1607.38 1040.88 L1604.13 1037.11 L1600.89 1033.27 L1597.65 1029.38 L1594.41 1025.44 L1591.16 1021.46 L1587.92 1017.45 L1584.68 1013.42 L1581.43 1009.36 L1578.19 1005.29 L1574.95 1001.2 L1571.7 997.118 L1568.46 993.032 L1565.22 988.95 L1561.98 984.876 L1558.73 980.813 L1555.49 976.763 L1552.25 972.729 L1549 968.714 L1545.76 964.718 L1542.52 960.743 L1539.27 956.79 L1536.03 952.859 L1532.79 948.951 L1529.55 945.065 L1526.3 941.2 L1523.06 937.356 L1519.82 933.531 L1516.57 929.724 L1513.33 925.931 L1510.09 922.152 L1506.84 918.382 L1503.6 914.619 L1500.36 910.86 L1497.11 907.099 L1493.87 903.334 L1490.63 899.56 L1487.39 895.772 L1484.14 891.964 L1480.9 888.131 L1477.66 884.268 L1474.41 880.368 L1471.17 876.426 L1467.93 872.435 L1464.68 868.388 L1461.44 864.279 L1458.2 860.101 L1454.96 855.847 L1451.71 851.511 L1448.47 847.087 L1445.23 842.58 L1441.98 837.999 L1438.74 833.35 L1435.5 828.64 L1432.25 823.876 L1429.01 819.066 L1425.77 814.216 L1422.53 809.333 L1419.28 804.423 L1416.04 799.493 L1412.8 794.548 L1409.55 789.593 L1406.31 784.635 L1403.07 779.678 L1399.82 774.727 L1396.58 769.786 L1393.34 764.86 L1390.1 759.951 L1386.85 755.063 L1383.61 750.2 L1380.37 745.364 L1377.12 740.557 L1373.88 735.781 L1370.64 731.038 L1367.39 726.329 L1364.15 721.655 L1360.91 717.016 L1357.66 712.413 L1354.42 707.846 L1351.18 703.313 L1347.94 698.814 L1344.69 694.348 L1341.45 689.913 L1338.21 685.508 L1334.96 681.129 L1331.72 676.775 L1328.48 672.442 L1325.23 668.127 L1321.99 663.826 L1318.75 659.536 L1315.51 655.252 L1312.26 650.97 L1309.02 646.685 L1305.78 642.391 L1302.53 638.084 L1299.29 633.759 L1296.05 629.409 L1292.8 625.029 L1289.56 620.614 L1286.32 616.159 L1283.08 611.667 L1279.83 607.143 L1276.59 602.591 L1273.35 598.015 L1270.1 593.419 L1266.86 588.808 L1263.62 584.185 L1260.37 579.553 L1257.13 574.917 L1253.89 570.278 L1250.64 565.639 L1247.4 561.004 L1244.16 556.373 L1240.92 551.748 L1237.67 547.131 L1234.43 542.522 L1231.19 537.922 L1227.94 533.331 L1224.7 528.749 L1221.46 524.174 L1218.21 519.606 L1214.97 515.043 L1211.73 510.484 L1208.49 505.926 L1205.24 501.367 L1202 496.804 L1198.76 492.233 L1195.51 487.653 L1192.27 483.059 L1189.03 478.447 L1185.78 473.814 L1182.54 469.156 L1179.3 464.47 L1176.06 459.761 L1172.81 455.035 L1169.57 450.297 L1166.33 445.554 L1163.08 440.81 L1159.84 436.071 L1156.6 431.343 L1153.35 426.63 L1150.11 421.935 L1146.87 417.265 L1143.62 412.621 L1140.38 408.008 L1137.14 403.429 L1133.9 398.886 L1130.65 394.381 L1127.41 389.917 L1124.17 385.493 L1120.92 381.112 L1117.68 376.774 L1114.44 372.479 L1111.19 368.226 L1107.95 364.014 L1104.71 359.842 L1101.47 355.709 L1098.22 351.611 L1094.98 347.546 L1091.74 343.51 L1088.49 339.501 L1085.25 335.513 L1082.01 331.542 L1078.76 327.582 L1075.52 323.629 L1072.28 319.675 L1069.04 315.715 L1065.79 311.742 L1062.55 307.747 L1059.31 303.725 L1056.06 299.669 L1052.82 295.582 L1049.58 291.471 L1046.33 287.34 L1043.09 283.194 L1039.85 279.036 L1036.6 274.873 L1033.36 270.705 L1030.12 266.537 L1026.88 262.371 L1023.63 258.209 L1020.39 254.052 L1017.15 249.902 L1013.9 245.757 L1010.66 241.619 L1007.42 237.487 L1004.17 233.36 L1000.93 229.237 L997.688 225.115 L994.445 220.994 L991.202 216.872 L987.959 212.746 L984.716 208.615 L981.473 204.477 L978.23 200.332 L974.987 196.179 L971.744 192.026 L968.501 187.878 L965.258 183.744 L962.015 179.632 L958.772 175.55 L955.529 171.505 L952.286 167.505 L949.043 163.557 L945.8 159.669 L942.557 155.847 L939.314 152.097 L936.071 148.426 L932.828 144.838 L929.585 141.339 L926.342 137.934 L923.099 134.627 L919.856 131.421 L916.613 128.32 L913.37 125.328 L910.127 122.445 L906.884 119.676 L903.641 117.021 L900.398 114.483 L897.155 112.063 L893.911 109.761 L890.668 107.579 L887.425 105.516 L884.182 103.573 L880.939 101.751 L877.696 100.048 L874.453 98.4636 L871.21 96.9979 L867.967 95.6493 L864.724 94.4169 L861.481 93.2991 L858.238 92.2944 L854.995 91.401 L851.752 90.6169 L848.509 89.9398 L845.266 89.3675 L842.023 88.8974 L838.78 88.5266 L835.537 88.2524 L832.294 88.0715 L829.051 87.9806 L825.808 87.9763 L822.565 88.0548 L819.322 88.2122 L816.079 88.4446 L812.836 88.7475 L809.593 89.1166 L806.35 89.5473 L803.107 90.0346 L799.864 90.5735 L796.621 91.1589 L793.378 91.7855 L790.135 92.4476 L786.892 93.1396 L783.648 93.8557 L780.405 94.59 L777.162 95.3364 L773.919 96.0888 L770.676 96.8411 L767.433 97.5871 L764.19 98.3205 L760.947 99.0354 L757.704 99.7257 L754.461 100.385 L751.218 101.011 L747.975 101.605 L744.732 102.174 L741.489 102.722 L738.246 103.255 L735.003 103.778 L731.76 104.298 L728.517 104.82 L725.274 105.348 L722.031 105.889 L718.788 106.448 L715.545 107.03 L712.302 107.64 L709.059 108.282 L705.816 108.962 L702.573 109.684 L699.33 110.451 L696.087 111.268 L692.844 112.139 L689.601 113.068 L686.358 114.057 L683.115 115.109 L679.872 116.228 L676.629 117.416 L673.385 118.676 L670.142 120.009 L666.899 121.417 L663.656 122.902 L660.413 124.466 L657.17 126.109 L653.927 127.832 L650.684 129.635 L647.441 131.52 L644.198 133.486 L640.955 135.533 L637.712 137.659 L634.469 139.865 L631.226 142.149 L627.983 144.509 L624.74 146.943 L621.497 149.45 L618.254 152.027 L615.011 154.67 L611.768 157.377 L608.525 160.144 L605.282 162.966 L602.039 165.839 L598.796 168.758 L595.553 171.717 L592.31 174.711 L589.067 177.734 L585.824 180.778 L582.581 183.837 L579.338 186.903 L576.095 189.968 L572.852 193.025 L569.609 196.063 L566.366 199.076 L563.122 202.053 L559.879 204.989 L556.636 207.881 L553.393 210.729 L550.15 213.535 L546.907 216.299 L543.664 219.021 L540.421 221.702 L537.178 224.342 L533.935 226.943 L530.692 229.509 L527.449 232.045 L524.206 234.556 L520.963 237.047 L517.72 239.523 L514.477 241.988 L511.234 244.447 L507.991 246.901 L504.748 249.356 L501.505 251.813 L498.262 254.275 L495.019 256.744 L491.776 259.22 L488.533 261.705 L485.29 264.199 L482.047 266.701 L478.804 269.212 L475.561 271.731 L472.318 274.256 L469.075 276.787 L465.832 279.329 L462.589 281.889 L459.346 284.47 L456.103 287.078 L452.859 289.719 L449.616 292.396 L446.373 295.112 L443.13 297.871 L439.887 300.676 L436.644 303.529 L433.401 306.431 L430.158 309.384 L426.915 312.387 L423.672 315.441 L420.429 318.545 L417.186 321.697 L413.943 324.896 L410.7 328.139 L407.457 331.423 L404.214 334.744 L400.971 338.097 L397.728 341.478 L394.485 344.88 L391.242 348.298 L387.999 351.724 L384.756 355.151 L381.513 358.57 L378.27 361.973 L375.027 365.349 L371.784 368.688 L368.541 371.981 L365.298 375.215 L362.055 378.378 L358.812 381.459 L355.569 384.445 L352.326 387.322 L349.083 390.077 L345.84 392.698 L342.596 395.173 L339.353 397.495 L336.11 399.661 L332.867 401.667 L329.624 403.509 L326.381 405.183 L323.138 406.686 L319.895 408.014 L316.652 409.163 L313.409 410.129 L310.166 410.909 L306.923 411.5 L303.68 411.899 L300.437 412.116 L297.194 412.16 L293.951 412.041 L290.708 411.77 L287.465 411.355 L284.222 410.808 L280.979 410.136 L277.736 409.349 L274.493 408.456 L271.25 407.465 L268.007 406.383 L264.764 405.219 L261.521 403.979 L258.278 402.669 L255.035 401.298  Z" fill="#3da44d" fill-rule="evenodd" fill-opacity="0.1"/>
<polyline clip-path="url(#clip622)" style="stroke:#3da44d; stroke-linecap:round; stroke-linejoin:round; stroke-width:8; stroke-opacity:1; fill:none" points="255.035,659.239 258.278,657.012 261.521,654.75 264.764,652.45 268.007,650.114 271.25,647.74 274.493,645.327 277.736,642.875 280.979,640.383 284.222,637.852 287.465,635.279 290.708,632.664 293.951,630.007 297.194,627.308 300.437,624.564 303.68,621.776 306.923,618.943 310.166,616.065 313.409,613.142 316.652,610.178 319.895,607.173 323.138,604.129 326.381,601.049 329.624,597.934 332.867,594.785 336.11,591.605 339.353,588.395 342.596,585.158 345.84,581.894 349.083,578.606 352.326,575.295 355.569,571.962 358.812,568.608 362.055,565.236 365.298,561.845 368.541,558.437 371.784,555.014 375.027,551.577 378.27,548.127 381.513,544.666 384.756,541.194 387.999,537.713 391.242,534.226 394.485,530.732 397.728,527.233 400.971,523.732 404.214,520.229 407.457,516.725 410.7,513.223 413.943,509.724 417.186,506.23 420.429,502.741 423.672,499.26 426.915,495.788 430.158,492.327 433.401,488.879 436.644,485.446 439.887,482.029 443.13,478.629 446.373,475.25 449.616,471.893 452.859,468.559 456.103,465.252 459.346,461.972 462.589,458.722 465.832,455.504 469.075,452.321 472.318,449.174 475.561,446.065 478.804,442.997 482.047,439.968 485.29,436.982 488.533,434.038 491.776,431.138 495.019,428.282 498.262,425.473 501.505,422.711 504.748,419.998 507.991,417.334 511.234,414.723 514.477,412.164 517.72,409.661 520.963,407.213 524.206,404.824 527.449,402.495 530.692,400.227 533.935,398.023 537.178,395.885 540.421,393.814 543.664,391.809 546.907,389.866 550.15,387.984 553.393,386.16 556.636,384.393 559.879,382.68 563.122,381.019 566.366,379.408 569.609,377.845 572.852,376.328 576.095,374.856 579.338,373.425 582.581,372.035 585.824,370.684 589.067,369.369 592.31,368.089 595.553,366.844 598.796,365.63 602.039,364.447 605.282,363.293 608.525,362.167 611.768,361.068 615.011,359.994 618.254,358.944 621.497,357.917 624.74,356.912 627.983,355.928 631.226,354.964 634.469,354.018 637.712,353.091 640.955,352.181 644.198,351.288 647.441,350.41 650.684,349.547 653.927,348.699 657.17,347.865 660.413,347.044 663.656,346.236 666.899,345.44 670.142,344.656 673.385,343.884 676.629,343.123 679.872,342.374 683.115,341.635 686.358,340.907 689.601,340.19 692.844,339.484 696.087,338.788 699.33,338.103 702.573,337.428 705.816,336.765 709.059,336.112 712.302,335.471 715.545,334.842 718.788,334.224 722.031,333.619 725.274,333.026 728.517,332.446 731.76,331.881 735.003,331.329 738.246,330.792 741.489,330.271 744.732,329.767 747.975,329.279 751.218,328.809 754.461,328.358 757.704,327.927 760.947,327.515 764.19,327.122 767.433,326.747 770.676,326.392 773.919,326.054 777.162,325.735 780.405,325.435 783.648,325.152 786.892,324.888 790.135,324.642 793.378,324.415 796.621,324.207 799.864,324.018 803.107,323.848 806.35,323.698 809.593,323.568 812.836,323.459 816.079,323.372 819.322,323.306 822.565,323.262 825.808,323.242 829.051,323.246 832.294,323.274 835.537,323.329 838.78,323.41 842.023,323.518 845.266,323.655 848.509,323.822 851.752,324.02 854.995,324.251 858.238,324.514 861.481,324.813 864.724,325.148 867.967,325.521 871.21,325.933 874.453,326.386 877.696,326.882 880.939,327.422 884.182,328.008 887.425,328.643 890.668,329.327 893.911,330.064 897.155,330.855 900.398,331.703 903.641,332.609 906.884,333.576 910.127,334.607 913.37,335.703 916.613,336.868 919.856,338.105 923.099,339.415 926.342,340.802 929.585,342.268 932.828,343.818 936.071,345.453 939.314,347.177 942.557,348.993 945.8,350.905 949.043,352.916 952.286,355.03 955.529,357.25 958.772,359.58 962.015,362.024 965.258,364.586 968.501,367.271 971.744,370.081 974.987,373.022 978.23,376.099 981.473,379.313 984.716,382.66 987.959,386.134 991.202,389.729 994.445,393.437 997.688,397.254 1000.93,401.173 1004.17,405.189 1007.42,409.294 1010.66,413.485 1013.9,417.755 1017.15,422.098 1020.39,426.51 1023.63,430.984 1026.88,435.516 1030.12,440.101 1033.36,444.732 1036.6,449.405 1039.85,454.116 1043.09,458.858 1046.33,463.627 1049.58,468.418 1052.82,473.226 1056.06,478.047 1059.31,482.875 1062.55,487.707 1065.79,492.541 1069.04,497.377 1072.28,502.214 1075.52,507.053 1078.76,511.893 1082.01,516.733 1085.25,521.574 1088.49,526.415 1091.74,531.256 1094.98,536.097 1098.22,540.938 1101.47,545.778 1104.71,550.617 1107.95,555.456 1111.19,560.294 1114.44,565.131 1117.68,569.967 1120.92,574.803 1124.17,579.637 1127.41,584.471 1130.65,589.304 1133.9,594.136 1137.14,598.968 1140.38,603.799 1143.62,608.63 1146.87,613.461 1150.11,618.292 1153.35,623.123 1156.6,627.954 1159.84,632.785 1163.08,637.617 1166.33,642.451 1169.57,647.285 1172.81,652.121 1176.06,656.959 1179.3,661.798 1182.54,666.641 1185.78,671.485 1189.03,676.333 1192.27,681.183 1195.51,686.035 1198.76,690.891 1202,695.749 1205.24,700.61 1208.49,705.474 1211.73,710.341 1214.97,715.21 1218.21,720.083 1221.46,724.959 1224.7,729.838 1227.94,734.721 1231.19,739.607 1234.43,744.497 1237.67,749.39 1240.92,754.288 1244.16,759.189 1247.4,764.095 1250.64,769.005 1253.89,773.919 1257.13,778.839 1260.37,783.763 1263.62,788.692 1266.86,793.627 1270.1,798.567 1273.35,803.513 1276.59,808.464 1279.83,813.422 1283.08,818.385 1286.32,823.356 1289.56,828.333 1292.8,833.316 1296.05,838.306 1299.29,843.301 1302.53,848.302 1305.78,853.307 1309.02,858.315 1312.26,863.327 1315.51,868.341 1318.75,873.357 1321.99,878.375 1325.23,883.393 1328.48,888.411 1331.72,893.428 1334.96,898.443 1338.21,903.457 1341.45,908.468 1344.69,913.476 1347.94,918.479 1351.18,923.477 1354.42,928.47 1357.66,933.457 1360.91,938.436 1364.15,943.407 1367.39,948.37 1370.64,953.323 1373.88,958.266 1377.12,963.197 1380.37,968.116 1383.61,973.023 1386.85,977.915 1390.1,982.792 1393.34,987.653 1396.58,992.498 1399.82,997.324 1403.07,1002.13 1406.31,1006.92 1409.55,1011.69 1412.8,1016.43 1416.04,1021.15 1419.28,1025.84 1422.53,1030.51 1425.77,1035.16 1429.01,1039.77 1432.25,1044.35 1435.5,1048.91 1438.74,1053.42 1441.98,1057.91 1445.23,1062.36 1448.47,1066.77 1451.71,1071.14 1454.96,1075.47 1458.2,1079.77 1461.44,1084.02 1464.68,1088.23 1467.93,1092.41 1471.17,1096.55 1474.41,1100.65 1477.66,1104.71 1480.9,1108.74 1484.14,1112.74 1487.39,1116.7 1490.63,1120.62 1493.87,1124.51 1497.11,1128.36 1500.36,1132.18 1503.6,1135.97 1506.84,1139.72 1510.09,1143.44 1513.33,1147.12 1516.57,1150.77 1519.82,1154.38 1523.06,1157.96 1526.3,1161.5 1529.55,1165.01 1532.79,1168.48 1536.03,1171.91 1539.27,1175.31 1542.52,1178.67 1545.76,1182 1549,1185.28 1552.25,1188.52 1555.49,1191.73 1558.73,1194.89 1561.98,1198.01 1565.22,1201.09 1568.46,1204.13 1571.7,1207.11 1574.95,1210.06 1578.19,1212.95 1581.43,1215.8 1584.68,1218.6 1587.92,1221.34 1591.16,1224.03 1594.41,1226.67 1597.65,1229.25 1600.89,1231.77 1604.13,1234.24 1607.38,1236.64 1610.62,1238.98 1613.86,1241.25 1617.11,1243.46 1620.35,1245.59 1623.59,1247.65 1626.84,1249.65 1630.08,1251.57 1633.32,1253.43 1636.57,1255.22 1639.81,1256.95 1643.05,1258.61 1646.29,1260.21 1649.54,1261.75 1652.78,1263.23 1656.02,1264.66 1659.27,1266.02 1662.51,1267.32 1665.75,1268.57 1669,1269.76 1672.24,1270.9 1675.48,1271.98 1678.72,1273 1681.97,1273.97 1685.21,1274.89 1688.45,1275.75 1691.7,1276.56 1694.94,1277.31 1698.18,1278.01 1701.43,1278.65 1704.67,1279.23 1707.91,1279.75 1711.15,1280.21 1714.4,1280.61 1717.64,1280.95 1720.88,1281.22 1724.13,1281.42 1727.37,1281.56 1730.61,1281.62 1733.86,1281.62 1737.1,1281.54 1740.34,1281.38 1743.59,1281.14 1746.83,1280.83 1750.07,1280.43 1753.31,1279.95 1756.56,1279.38 1759.8,1278.72 1763.04,1277.97 1766.29,1277.12 1769.53,1276.17 1772.77,1275.13 1776.02,1274 1779.26,1272.77 1782.5,1271.46 1785.74,1270.06 1788.99,1268.58 1792.23,1267.02 1795.47,1265.39 1798.72,1263.69 1801.96,1261.93 1805.2,1260.1 1808.45,1258.21 1811.69,1256.27 1814.93,1254.27 1818.17,1252.22 1821.42,1250.13 1824.66,1247.99 1827.9,1245.81 1831.15,1243.59 1834.39,1241.33 1837.63,1239.04 1840.88,1236.72 1844.12,1234.38 1847.36,1232 1850.61,1229.6 1853.85,1227.19 1857.09,1224.75 1860.33,1222.29 1863.58,1219.83 1866.82,1217.35 1870.06,1214.86 1873.31,1212.36 1876.55,1209.85 1879.79,1207.34 1883.04,1204.83 1886.28,1202.32 1889.52,1199.81 1892.76,1197.31 1896.01,1194.81 1899.25,1192.32 1902.49,1189.83 1905.74,1187.36 1908.98,1184.9 1912.22,1182.45 1915.47,1180.02 1918.71,1177.6 1921.95,1175.2 1925.19,1172.81 1928.44,1170.44 1931.68,1168.08 1934.92,1165.74 1938.17,1163.41 1941.41,1161.1 1944.65,1158.81 1947.9,1156.53 1951.14,1154.27 1954.38,1152.02 1957.63,1149.79 1960.87,1147.58 1964.11,1145.38 1967.35,1143.2 1970.6,1141.04 1973.84,1138.89 1977.08,1136.75 1980.33,1134.64 1983.57,1132.53 1986.81,1130.45 1990.06,1128.37 1993.3,1126.32 1996.54,1124.28 1999.78,1122.25 2003.03,1120.23 2006.27,1118.23 2009.51,1116.25 2012.76,1114.27 2016,1112.31 2019.24,1110.36 2022.49,1108.43 2025.73,1106.51 2028.97,1104.61 2032.21,1102.72 2035.46,1100.84 2038.7,1098.98 2041.94,1097.14 2045.19,1095.32 2048.43,1093.51 2051.67,1091.72 2054.92,1089.95 2058.16,1088.19 2061.4,1086.44 2064.65,1084.71 2067.89,1082.98 2071.13,1081.26 2074.37,1079.54 2077.62,1077.82 2080.86,1076.1 2084.1,1074.37 2087.35,1072.64 2090.59,1070.89 2093.83,1069.13 2097.08,1067.35 2100.32,1065.56 2103.56,1063.74 2106.8,1061.91 2110.05,1060.06 2113.29,1058.2 2116.53,1056.32 2119.78,1054.43 2123.02,1052.53 2126.26,1050.62 2129.51,1048.7 2132.75,1046.77 2135.99,1044.83 2139.23,1042.88 2142.48,1040.93 2145.72,1038.97 2148.96,1037 2152.21,1035.03 2155.45,1033.06 2158.69,1031.09 2161.94,1029.11 2165.18,1027.13 2168.42,1025.15 2171.67,1023.17 2174.91,1021.19 2178.15,1019.22 2181.39,1017.24 2184.64,1015.27 2187.88,1013.29 2191.12,1011.33 2194.37,1009.36 2197.61,1007.4 2200.85,1005.44 2204.1,1003.49 2207.34,1001.54 2210.58,999.603 2213.82,997.668 2217.07,995.74 2220.31,993.818 2223.55,991.903 2226.8,989.996 2230.04,988.096 2233.28,986.205 2236.53,984.321 2239.77,982.447 2243.01,980.581 2246.25,978.724 2249.5,976.877 2252.74,975.039 2255.98,973.211 2259.23,971.392 2262.47,969.584 2265.71,967.787 2268.96,966 2272.2,964.223 2275.44,962.458 2278.69,960.703 2281.93,958.96 2285.17,957.228 2288.41,955.507 2291.66,953.798 "/>
<path clip-path="url(#clip620)" d="M1953.46 302.578 L2280.8 302.578 L2280.8 95.2176 L1953.46 95.2176  Z" fill="#ffffff" fill-rule="evenodd" fill-opacity="1"/>
<polyline clip-path="url(#clip620)" style="stroke:#000000; stroke-linecap:round; stroke-linejoin:round; stroke-width:4; stroke-opacity:1; fill:none" points="1953.46,302.578 2280.8,302.578 2280.8,95.2176 1953.46,95.2176 1953.46,302.578 "/>
<polyline clip-path="url(#clip620)" style="stroke:#009af9; stroke-linecap:round; stroke-linejoin:round; stroke-width:4; stroke-opacity:1; fill:none" points="1977.44,147.058 2121.36,147.058 "/>
<path clip-path="url(#clip620)" d="M2152.76 131.051 L2152.76 138.412 L2161.53 138.412 L2161.53 141.722 L2152.76 141.722 L2152.76 155.796 Q2152.76 158.967 2153.61 159.87 Q2154.49 160.773 2157.16 160.773 L2161.53 160.773 L2161.53 164.338 L2157.16 164.338 Q2152.23 164.338 2150.35 162.509 Q2148.48 160.657 2148.48 155.796 L2148.48 141.722 L2145.35 141.722 L2145.35 138.412 L2148.48 138.412 L2148.48 131.051 L2152.76 131.051 Z" fill="#000000" fill-rule="nonzero" fill-opacity="1" /><path clip-path="url(#clip620)" d="M2182.16 142.393 Q2181.44 141.977 2180.58 141.791 Q2179.75 141.583 2178.73 141.583 Q2175.12 141.583 2173.17 143.944 Q2171.25 146.282 2171.25 150.68 L2171.25 164.338 L2166.97 164.338 L2166.97 138.412 L2171.25 138.412 L2171.25 142.44 Q2172.6 140.078 2174.75 138.944 Q2176.9 137.787 2179.98 137.787 Q2180.42 137.787 2180.95 137.856 Q2181.48 137.903 2182.13 138.018 L2182.16 142.393 Z" fill="#000000" fill-rule="nonzero" fill-opacity="1" /><path clip-path="url(#clip620)" d="M2186.18 154.106 L2186.18 138.412 L2190.44 138.412 L2190.44 153.944 Q2190.44 157.625 2191.88 159.476 Q2193.31 161.305 2196.18 161.305 Q2199.63 161.305 2201.62 159.106 Q2203.64 156.907 2203.64 153.111 L2203.64 138.412 L2207.9 138.412 L2207.9 164.338 L2203.64 164.338 L2203.64 160.356 Q2202.09 162.717 2200.03 163.875 Q2197.99 165.009 2195.28 165.009 Q2190.81 165.009 2188.5 162.231 Q2186.18 159.453 2186.18 154.106 M2196.9 137.787 L2196.9 137.787 Z" fill="#000000" fill-rule="nonzero" fill-opacity="1" /><path clip-path="url(#clip620)" d="M2220.88 131.051 L2220.88 138.412 L2229.66 138.412 L2229.66 141.722 L2220.88 141.722 L2220.88 155.796 Q2220.88 158.967 2221.74 159.87 Q2222.62 160.773 2225.28 160.773 L2229.66 160.773 L2229.66 164.338 L2225.28 164.338 Q2220.35 164.338 2218.48 162.509 Q2216.6 160.657 2216.6 155.796 L2216.6 141.722 L2213.48 141.722 L2213.48 138.412 L2216.6 138.412 L2216.6 131.051 L2220.88 131.051 Z" fill="#000000" fill-rule="nonzero" fill-opacity="1" /><path clip-path="url(#clip620)" d="M2256.81 148.689 L2256.81 164.338 L2252.55 164.338 L2252.55 148.828 Q2252.55 145.148 2251.11 143.319 Q2249.68 141.49 2246.81 141.49 Q2243.36 141.49 2241.37 143.69 Q2239.38 145.889 2239.38 149.685 L2239.38 164.338 L2235.1 164.338 L2235.1 128.319 L2239.38 128.319 L2239.38 142.44 Q2240.91 140.102 2242.97 138.944 Q2245.05 137.787 2247.76 137.787 Q2252.23 137.787 2254.52 140.565 Q2256.81 143.319 2256.81 148.689 Z" fill="#000000" fill-rule="nonzero" fill-opacity="1" /><circle clip-path="url(#clip620)" cx="2049.4" cy="198.898" r="20.48" fill="#e26f46" fill-rule="evenodd" fill-opacity="1" stroke="#000000" stroke-opacity="1" stroke-width="4.55111"/>
<path clip-path="url(#clip620)" d="M2164.26 194.187 L2164.26 180.159 L2168.52 180.159 L2168.52 216.178 L2164.26 216.178 L2164.26 212.289 Q2162.92 214.603 2160.86 215.738 Q2158.82 216.849 2155.95 216.849 Q2151.25 216.849 2148.29 213.099 Q2145.35 209.349 2145.35 203.238 Q2145.35 197.127 2148.29 193.377 Q2151.25 189.627 2155.95 189.627 Q2158.82 189.627 2160.86 190.761 Q2162.92 191.872 2164.26 194.187 M2149.75 203.238 Q2149.75 207.937 2151.67 210.622 Q2153.61 213.284 2156.99 213.284 Q2160.37 213.284 2162.32 210.622 Q2164.26 207.937 2164.26 203.238 Q2164.26 198.539 2162.32 195.877 Q2160.37 193.192 2156.99 193.192 Q2153.61 193.192 2151.67 195.877 Q2149.75 198.539 2149.75 203.238 Z" fill="#000000" fill-rule="nonzero" fill-opacity="1" /><path clip-path="url(#clip620)" d="M2189.08 203.145 Q2183.92 203.145 2181.92 204.326 Q2179.93 205.506 2179.93 208.354 Q2179.93 210.622 2181.42 211.965 Q2182.92 213.284 2185.49 213.284 Q2189.03 213.284 2191.16 210.784 Q2193.31 208.261 2193.31 204.094 L2193.31 203.145 L2189.08 203.145 M2197.57 201.386 L2197.57 216.178 L2193.31 216.178 L2193.31 212.242 Q2191.85 214.603 2189.68 215.738 Q2187.5 216.849 2184.36 216.849 Q2180.37 216.849 2178.01 214.627 Q2175.67 212.381 2175.67 208.631 Q2175.67 204.256 2178.59 202.034 Q2181.53 199.812 2187.34 199.812 L2193.31 199.812 L2193.31 199.395 Q2193.31 196.455 2191.37 194.858 Q2189.45 193.238 2185.95 193.238 Q2183.73 193.238 2181.62 193.77 Q2179.52 194.303 2177.57 195.367 L2177.57 191.432 Q2179.91 190.53 2182.11 190.09 Q2184.31 189.627 2186.39 189.627 Q2192.02 189.627 2194.79 192.543 Q2197.57 195.46 2197.57 201.386 Z" fill="#000000" fill-rule="nonzero" fill-opacity="1" /><path clip-path="url(#clip620)" d="M2210.56 182.891 L2210.56 190.252 L2219.33 190.252 L2219.33 193.562 L2210.56 193.562 L2210.56 207.636 Q2210.56 210.807 2211.42 211.71 Q2212.29 212.613 2214.96 212.613 L2219.33 212.613 L2219.33 216.178 L2214.96 216.178 Q2210.03 216.178 2208.15 214.349 Q2206.28 212.497 2206.28 207.636 L2206.28 193.562 L2203.15 193.562 L2203.15 190.252 L2206.28 190.252 L2206.28 182.891 L2210.56 182.891 Z" fill="#000000" fill-rule="nonzero" fill-opacity="1" /><path clip-path="url(#clip620)" d="M2236.72 203.145 Q2231.55 203.145 2229.56 204.326 Q2227.57 205.506 2227.57 208.354 Q2227.57 210.622 2229.05 211.965 Q2230.56 213.284 2233.13 213.284 Q2236.67 213.284 2238.8 210.784 Q2240.95 208.261 2240.95 204.094 L2240.95 203.145 L2236.72 203.145 M2245.21 201.386 L2245.21 216.178 L2240.95 216.178 L2240.95 212.242 Q2239.49 214.603 2237.32 215.738 Q2235.14 216.849 2231.99 216.849 Q2228.01 216.849 2225.65 214.627 Q2223.31 212.381 2223.31 208.631 Q2223.31 204.256 2226.23 202.034 Q2229.17 199.812 2234.98 199.812 L2240.95 199.812 L2240.95 199.395 Q2240.95 196.455 2239.01 194.858 Q2237.09 193.238 2233.59 193.238 Q2231.37 193.238 2229.26 193.77 Q2227.16 194.303 2225.21 195.367 L2225.21 191.432 Q2227.55 190.53 2229.75 190.09 Q2231.95 189.627 2234.03 189.627 Q2239.66 189.627 2242.43 192.543 Q2245.21 195.46 2245.21 201.386 Z" fill="#000000" fill-rule="nonzero" fill-opacity="1" /><polyline clip-path="url(#clip620)" style="stroke:#3da44d; stroke-linecap:round; stroke-linejoin:round; stroke-width:8; stroke-opacity:1; fill:none" points="1977.44,250.738 2121.36,250.738 "/>
<path clip-path="url(#clip620)" d="M2170.91 263.087 L2170.91 253.805 L2163.27 253.805 L2163.27 249.962 L2175.54 249.962 L2175.54 264.8 Q2172.83 266.721 2169.56 267.717 Q2166.3 268.689 2162.6 268.689 Q2154.49 268.689 2149.91 263.967 Q2145.35 259.221 2145.35 250.772 Q2145.35 242.3 2149.91 237.578 Q2154.49 232.833 2162.6 232.833 Q2165.98 232.833 2169.01 233.666 Q2172.06 234.499 2174.63 236.12 L2174.63 241.096 Q2172.04 238.897 2169.12 237.786 Q2166.21 236.675 2162.99 236.675 Q2156.65 236.675 2153.45 240.217 Q2150.28 243.758 2150.28 250.772 Q2150.28 257.763 2153.45 261.305 Q2156.65 264.846 2162.99 264.846 Q2165.47 264.846 2167.41 264.43 Q2169.36 263.99 2170.91 263.087 Z" fill="#000000" fill-rule="nonzero" fill-opacity="1" /><path clip-path="url(#clip620)" d="M2188.75 237.3 L2188.75 250.286 L2194.63 250.286 Q2197.9 250.286 2199.68 248.596 Q2201.46 246.907 2201.46 243.782 Q2201.46 240.68 2199.68 238.99 Q2197.9 237.3 2194.63 237.3 L2188.75 237.3 M2184.08 233.458 L2194.63 233.458 Q2200.44 233.458 2203.41 236.096 Q2206.39 238.712 2206.39 243.782 Q2206.39 248.897 2203.41 251.513 Q2200.44 254.129 2194.63 254.129 L2188.75 254.129 L2188.75 268.018 L2184.08 268.018 L2184.08 233.458 Z" fill="#000000" fill-rule="nonzero" fill-opacity="1" /></svg>
