<?xml version="1.0" encoding="utf-8"?>
<svg xmlns="http://www.w3.org/2000/svg" xmlns:xlink="http://www.w3.org/1999/xlink" width="600" height="400" viewBox="0 0 2400 1600">
<defs>
  <clipPath id="clip490">
    <rect x="0" y="0" width="2400" height="1600"/>
  </clipPath>
</defs>
<path clip-path="url(#clip490)" d="M0 1600 L2400 1600 L2400 0 L0 0  Z" fill="#ffffff" fill-rule="evenodd" fill-opacity="1"/>
<defs>
  <clipPath id="clip491">
    <rect x="140" y="47" width="2213" height="1440"/>
  </clipPath>
</defs>
<path clip-path="url(#clip490)" d="M140.696 1486.45 L2352.76 1486.45 L2352.76 47.2441 L140.696 47.2441  Z" fill="#ffffff" fill-rule="evenodd" fill-opacity="1"/>
<polyline clip-path="url(#clip491)" style="stroke:#000000; stroke-linecap:round; stroke-linejoin:round; stroke-width:2; stroke-opacity:0.1; fill:none" points="203.301,1486.45 203.301,47.2441 "/>
<polyline clip-path="url(#clip491)" style="stroke:#000000; stroke-linecap:round; stroke-linejoin:round; stroke-width:2; stroke-opacity:0.1; fill:none" points="725.013,1486.45 725.013,47.2441 "/>
<polyline clip-path="url(#clip491)" style="stroke:#000000; stroke-linecap:round; stroke-linejoin:round; stroke-width:2; stroke-opacity:0.1; fill:none" points="1246.73,1486.45 1246.73,47.2441 "/>
<polyline clip-path="url(#clip491)" style="stroke:#000000; stroke-linecap:round; stroke-linejoin:round; stroke-width:2; stroke-opacity:0.1; fill:none" points="1768.44,1486.45 1768.44,47.2441 "/>
<polyline clip-path="url(#clip491)" style="stroke:#000000; stroke-linecap:round; stroke-linejoin:round; stroke-width:2; stroke-opacity:0.1; fill:none" points="2290.15,1486.45 2290.15,47.2441 "/>
<polyline clip-path="url(#clip491)" style="stroke:#000000; stroke-linecap:round; stroke-linejoin:round; stroke-width:2; stroke-opacity:0.1; fill:none" points="140.696,1238.51 2352.76,1238.51 "/>
<polyline clip-path="url(#clip491)" style="stroke:#000000; stroke-linecap:round; stroke-linejoin:round; stroke-width:2; stroke-opacity:0.1; fill:none" points="140.696,890.8 2352.76,890.8 "/>
<polyline clip-path="url(#clip491)" style="stroke:#000000; stroke-linecap:round; stroke-linejoin:round; stroke-width:2; stroke-opacity:0.1; fill:none" points="140.696,543.091 2352.76,543.091 "/>
<polyline clip-path="url(#clip491)" style="stroke:#000000; stroke-linecap:round; stroke-linejoin:round; stroke-width:2; stroke-opacity:0.1; fill:none" points="140.696,195.382 2352.76,195.382 "/>
<polyline clip-path="url(#clip490)" style="stroke:#000000; stroke-linecap:round; stroke-linejoin:round; stroke-width:4; stroke-opacity:1; fill:none" points="140.696,1486.45 2352.76,1486.45 "/>
<polyline clip-path="url(#clip490)" style="stroke:#000000; stroke-linecap:round; stroke-linejoin:round; stroke-width:4; stroke-opacity:1; fill:none" points="203.301,1486.45 203.301,1467.55 "/>
<polyline clip-path="url(#clip490)" style="stroke:#000000; stroke-linecap:round; stroke-linejoin:round; stroke-width:4; stroke-opacity:1; fill:none" points="725.013,1486.45 725.013,1467.55 "/>
<polyline clip-path="url(#clip490)" style="stroke:#000000; stroke-linecap:round; stroke-linejoin:round; stroke-width:4; stroke-opacity:1; fill:none" points="1246.73,1486.45 1246.73,1467.55 "/>
<polyline clip-path="url(#clip490)" style="stroke:#000000; stroke-linecap:round; stroke-linejoin:round; stroke-width:4; stroke-opacity:1; fill:none" points="1768.44,1486.45 1768.44,1467.55 "/>
<polyline clip-path="url(#clip490)" style="stroke:#000000; stroke-linecap:round; stroke-linejoin:round; stroke-width:4; stroke-opacity:1; fill:none" points="2290.15,1486.45 2290.15,1467.55 "/>
<path clip-path="url(#clip490)" d="M157.364 1532.02 L187.04 1532.02 L187.04 1535.95 L157.364 1535.95 L157.364 1532.02 Z" fill="#000000" fill-rule="nonzero" fill-opacity="1" /><path clip-path="url(#clip490)" d="M201.16 1544.91 L217.479 1544.91 L217.479 1548.85 L195.535 1548.85 L195.535 1544.91 Q198.197 1542.16 202.78 1537.53 Q207.387 1532.88 208.567 1531.53 Q210.813 1529.01 211.692 1527.27 Q212.595 1525.51 212.595 1523.82 Q212.595 1521.07 210.651 1519.33 Q208.729 1517.6 205.627 1517.6 Q203.428 1517.6 200.975 1518.36 Q198.544 1519.13 195.766 1520.68 L195.766 1515.95 Q198.59 1514.82 201.044 1514.24 Q203.498 1513.66 205.535 1513.66 Q210.905 1513.66 214.1 1516.35 Q217.294 1519.03 217.294 1523.52 Q217.294 1525.65 216.484 1527.57 Q215.697 1529.47 213.59 1532.07 Q213.012 1532.74 209.91 1535.95 Q206.808 1539.15 201.16 1544.91 Z" fill="#000000" fill-rule="nonzero" fill-opacity="1" /><path clip-path="url(#clip490)" d="M237.294 1517.37 Q233.683 1517.37 231.854 1520.93 Q230.049 1524.47 230.049 1531.6 Q230.049 1538.71 231.854 1542.27 Q233.683 1545.82 237.294 1545.82 Q240.928 1545.82 242.734 1542.27 Q244.562 1538.71 244.562 1531.6 Q244.562 1524.47 242.734 1520.93 Q240.928 1517.37 237.294 1517.37 M237.294 1513.66 Q243.104 1513.66 246.16 1518.27 Q249.238 1522.85 249.238 1531.6 Q249.238 1540.33 246.16 1544.94 Q243.104 1549.52 237.294 1549.52 Q231.484 1549.52 228.405 1544.94 Q225.35 1540.33 225.35 1531.6 Q225.35 1522.85 228.405 1518.27 Q231.484 1513.66 237.294 1513.66 Z" fill="#000000" fill-rule="nonzero" fill-opacity="1" /><path clip-path="url(#clip490)" d="M679.076 1532.02 L708.752 1532.02 L708.752 1535.95 L679.076 1535.95 L679.076 1532.02 Z" fill="#000000" fill-rule="nonzero" fill-opacity="1" /><path clip-path="url(#clip490)" d="M719.655 1544.91 L727.293 1544.91 L727.293 1518.55 L718.983 1520.21 L718.983 1515.95 L727.247 1514.29 L731.923 1514.29 L731.923 1544.91 L739.562 1544.91 L739.562 1548.85 L719.655 1548.85 L719.655 1544.91 Z" fill="#000000" fill-rule="nonzero" fill-opacity="1" /><path clip-path="url(#clip490)" d="M759.006 1517.37 Q755.395 1517.37 753.566 1520.93 Q751.761 1524.47 751.761 1531.6 Q751.761 1538.71 753.566 1542.27 Q755.395 1545.82 759.006 1545.82 Q762.64 1545.82 764.446 1542.27 Q766.275 1538.71 766.275 1531.6 Q766.275 1524.47 764.446 1520.93 Q762.64 1517.37 759.006 1517.37 M759.006 1513.66 Q764.816 1513.66 767.872 1518.27 Q770.951 1522.85 770.951 1531.6 Q770.951 1540.33 767.872 1544.94 Q764.816 1549.52 759.006 1549.52 Q753.196 1549.52 750.117 1544.94 Q747.062 1540.33 747.062 1531.6 Q747.062 1522.85 750.117 1518.27 Q753.196 1513.66 759.006 1513.66 Z" fill="#000000" fill-rule="nonzero" fill-opacity="1" /><path clip-path="url(#clip490)" d="M1246.73 1517.37 Q1243.11 1517.37 1241.29 1520.93 Q1239.48 1524.47 1239.48 1531.6 Q1239.48 1538.71 1241.29 1542.27 Q1243.11 1545.82 1246.73 1545.82 Q1250.36 1545.82 1252.17 1542.27 Q1253.99 1538.71 1253.99 1531.6 Q1253.99 1524.47 1252.17 1520.93 Q1250.36 1517.37 1246.73 1517.37 M1246.73 1513.66 Q1252.54 1513.66 1255.59 1518.27 Q1258.67 1522.85 1258.67 1531.6 Q1258.67 1540.33 1255.59 1544.94 Q1252.54 1549.52 1246.73 1549.52 Q1240.92 1549.52 1237.84 1544.94 Q1234.78 1540.33 1234.78 1531.6 Q1234.78 1522.85 1237.84 1518.27 Q1240.92 1513.66 1246.73 1513.66 Z" fill="#000000" fill-rule="nonzero" fill-opacity="1" /><path clip-path="url(#clip490)" d="M1743.13 1544.91 L1750.76 1544.91 L1750.76 1518.55 L1742.45 1520.21 L1742.45 1515.95 L1750.72 1514.29 L1755.39 1514.29 L1755.39 1544.91 L1763.03 1544.91 L1763.03 1548.85 L1743.13 1548.85 L1743.13 1544.91 Z" fill="#000000" fill-rule="nonzero" fill-opacity="1" /><path clip-path="url(#clip490)" d="M1782.48 1517.37 Q1778.87 1517.37 1777.04 1520.93 Q1775.23 1524.47 1775.23 1531.6 Q1775.23 1538.71 1777.04 1542.27 Q1778.87 1545.82 1782.48 1545.82 Q1786.11 1545.82 1787.92 1542.27 Q1789.75 1538.71 1789.75 1531.6 Q1789.75 1524.47 1787.92 1520.93 Q1786.11 1517.37 1782.48 1517.37 M1782.48 1513.66 Q1788.29 1513.66 1791.34 1518.27 Q1794.42 1522.85 1794.42 1531.6 Q1794.42 1540.33 1791.34 1544.94 Q1788.29 1549.52 1782.48 1549.52 Q1776.67 1549.52 1773.59 1544.94 Q1770.53 1540.33 1770.53 1531.6 Q1770.53 1522.85 1773.59 1518.27 Q1776.67 1513.66 1782.48 1513.66 Z" fill="#000000" fill-rule="nonzero" fill-opacity="1" /><path clip-path="url(#clip490)" d="M2268.92 1544.91 L2285.24 1544.91 L2285.24 1548.85 L2263.3 1548.85 L2263.3 1544.91 Q2265.96 1542.16 2270.54 1537.53 Q2275.15 1532.88 2276.33 1531.53 Q2278.58 1529.01 2279.46 1527.27 Q2280.36 1525.51 2280.36 1523.82 Q2280.36 1521.07 2278.41 1519.33 Q2276.49 1517.6 2273.39 1517.6 Q2271.19 1517.6 2268.74 1518.36 Q2266.31 1519.13 2263.53 1520.68 L2263.53 1515.95 Q2266.35 1514.82 2268.81 1514.24 Q2271.26 1513.66 2273.3 1513.66 Q2278.67 1513.66 2281.86 1516.35 Q2285.06 1519.03 2285.06 1523.52 Q2285.06 1525.65 2284.25 1527.57 Q2283.46 1529.47 2281.35 1532.07 Q2280.78 1532.74 2277.67 1535.95 Q2274.57 1539.15 2268.92 1544.91 Z" fill="#000000" fill-rule="nonzero" fill-opacity="1" /><path clip-path="url(#clip490)" d="M2305.06 1517.37 Q2301.45 1517.37 2299.62 1520.93 Q2297.81 1524.47 2297.81 1531.6 Q2297.81 1538.71 2299.62 1542.27 Q2301.45 1545.82 2305.06 1545.82 Q2308.69 1545.82 2310.5 1542.27 Q2312.33 1538.71 2312.33 1531.6 Q2312.33 1524.47 2310.5 1520.93 Q2308.69 1517.37 2305.06 1517.37 M2305.06 1513.66 Q2310.87 1513.66 2313.92 1518.27 Q2317 1522.85 2317 1531.6 Q2317 1540.33 2313.92 1544.94 Q2310.87 1549.52 2305.06 1549.52 Q2299.25 1549.52 2296.17 1544.94 Q2293.11 1540.33 2293.11 1531.6 Q2293.11 1522.85 2296.17 1518.27 Q2299.25 1513.66 2305.06 1513.66 Z" fill="#000000" fill-rule="nonzero" fill-opacity="1" /><polyline clip-path="url(#clip490)" style="stroke:#000000; stroke-linecap:round; stroke-linejoin:round; stroke-width:4; stroke-opacity:1; fill:none" points="140.696,1486.45 140.696,47.2441 "/>
<polyline clip-path="url(#clip490)" style="stroke:#000000; stroke-linecap:round; stroke-linejoin:round; stroke-width:4; stroke-opacity:1; fill:none" points="140.696,1238.51 159.593,1238.51 "/>
<polyline clip-path="url(#clip490)" style="stroke:#000000; stroke-linecap:round; stroke-linejoin:round; stroke-width:4; stroke-opacity:1; fill:none" points="140.696,890.8 159.593,890.8 "/>
<polyline clip-path="url(#clip490)" style="stroke:#000000; stroke-linecap:round; stroke-linejoin:round; stroke-width:4; stroke-opacity:1; fill:none" points="140.696,543.091 159.593,543.091 "/>
<polyline clip-path="url(#clip490)" style="stroke:#000000; stroke-linecap:round; stroke-linejoin:round; stroke-width:4; stroke-opacity:1; fill:none" points="140.696,195.382 159.593,195.382 "/>
<path clip-path="url(#clip490)" d="M83.7929 1221.23 L102.149 1221.23 L102.149 1225.16 L88.0753 1225.16 L88.0753 1233.64 Q89.0938 1233.29 90.1123 1233.13 Q91.1308 1232.94 92.1493 1232.94 Q97.9363 1232.94 101.316 1236.11 Q104.696 1239.28 104.696 1244.7 Q104.696 1250.28 101.223 1253.38 Q97.7511 1256.46 91.4317 1256.46 Q89.2558 1256.46 86.9873 1256.09 Q84.7419 1255.72 82.3346 1254.98 L82.3346 1250.28 Q84.4179 1251.41 86.6401 1251.97 Q88.8623 1252.53 91.3391 1252.53 Q95.3437 1252.53 97.6817 1250.42 Q100.02 1248.31 100.02 1244.7 Q100.02 1241.09 97.6817 1238.98 Q95.3437 1236.88 91.3391 1236.88 Q89.4641 1236.88 87.5892 1237.29 Q85.7373 1237.71 83.7929 1238.59 L83.7929 1221.23 Z" fill="#000000" fill-rule="nonzero" fill-opacity="1" /><path clip-path="url(#clip490)" d="M53.3995 904.145 L61.0384 904.145 L61.0384 877.779 L52.7282 879.446 L52.7282 875.187 L60.9921 873.52 L65.668 873.52 L65.668 904.145 L73.3068 904.145 L73.3068 908.08 L53.3995 908.08 L53.3995 904.145 Z" fill="#000000" fill-rule="nonzero" fill-opacity="1" /><path clip-path="url(#clip490)" d="M92.7512 876.599 Q89.1401 876.599 87.3114 880.164 Q85.5058 883.705 85.5058 890.835 Q85.5058 897.941 87.3114 901.506 Q89.1401 905.048 92.7512 905.048 Q96.3854 905.048 98.1909 901.506 Q100.02 897.941 100.02 890.835 Q100.02 883.705 98.1909 880.164 Q96.3854 876.599 92.7512 876.599 M92.7512 872.895 Q98.5613 872.895 101.617 877.502 Q104.696 882.085 104.696 890.835 Q104.696 899.562 101.617 904.168 Q98.5613 908.751 92.7512 908.751 Q86.941 908.751 83.8623 904.168 Q80.8068 899.562 80.8068 890.835 Q80.8068 882.085 83.8623 877.502 Q86.941 872.895 92.7512 872.895 Z" fill="#000000" fill-rule="nonzero" fill-opacity="1" /><path clip-path="url(#clip490)" d="M54.3949 556.436 L62.0337 556.436 L62.0337 530.07 L53.7236 531.737 L53.7236 527.478 L61.9874 525.811 L66.6633 525.811 L66.6633 556.436 L74.3022 556.436 L74.3022 560.371 L54.3949 560.371 L54.3949 556.436 Z" fill="#000000" fill-rule="nonzero" fill-opacity="1" /><path clip-path="url(#clip490)" d="M83.7929 525.811 L102.149 525.811 L102.149 529.746 L88.0753 529.746 L88.0753 538.219 Q89.0938 537.871 90.1123 537.709 Q91.1308 537.524 92.1493 537.524 Q97.9363 537.524 101.316 540.695 Q104.696 543.867 104.696 549.283 Q104.696 554.862 101.223 557.964 Q97.7511 561.042 91.4317 561.042 Q89.2558 561.042 86.9873 560.672 Q84.7419 560.302 82.3346 559.561 L82.3346 554.862 Q84.4179 555.996 86.6401 556.552 Q88.8623 557.107 91.3391 557.107 Q95.3437 557.107 97.6817 555.001 Q100.02 552.894 100.02 549.283 Q100.02 545.672 97.6817 543.566 Q95.3437 541.459 91.3391 541.459 Q89.4641 541.459 87.5892 541.876 Q85.7373 542.293 83.7929 543.172 L83.7929 525.811 Z" fill="#000000" fill-rule="nonzero" fill-opacity="1" /><path clip-path="url(#clip490)" d="M56.6171 208.727 L72.9365 208.727 L72.9365 212.662 L50.9921 212.662 L50.9921 208.727 Q53.6541 205.972 58.2375 201.343 Q62.8439 196.69 64.0245 195.348 Q66.2698 192.824 67.1494 191.088 Q68.0522 189.329 68.0522 187.639 Q68.0522 184.885 66.1078 183.149 Q64.1865 181.412 61.0847 181.412 Q58.8856 181.412 56.4319 182.176 Q54.0014 182.94 51.2236 184.491 L51.2236 179.769 Q54.0477 178.635 56.5014 178.056 Q58.955 177.477 60.9921 177.477 Q66.3624 177.477 69.5568 180.162 Q72.7513 182.848 72.7513 187.338 Q72.7513 189.468 71.9411 191.389 Q71.1541 193.287 69.0476 195.88 Q68.4689 196.551 65.367 199.769 Q62.2652 202.963 56.6171 208.727 Z" fill="#000000" fill-rule="nonzero" fill-opacity="1" /><path clip-path="url(#clip490)" d="M92.7512 181.181 Q89.1401 181.181 87.3114 184.746 Q85.5058 188.287 85.5058 195.417 Q85.5058 202.523 87.3114 206.088 Q89.1401 209.63 92.7512 209.63 Q96.3854 209.63 98.1909 206.088 Q100.02 202.523 100.02 195.417 Q100.02 188.287 98.1909 184.746 Q96.3854 181.181 92.7512 181.181 M92.7512 177.477 Q98.5613 177.477 101.617 182.084 Q104.696 186.667 104.696 195.417 Q104.696 204.144 101.617 208.75 Q98.5613 213.334 92.7512 213.334 Q86.941 213.334 83.8623 208.75 Q80.8068 204.144 80.8068 195.417 Q80.8068 186.667 83.8623 182.084 Q86.941 177.477 92.7512 177.477 Z" fill="#000000" fill-rule="nonzero" fill-opacity="1" /><polyline clip-path="url(#clip491)" style="stroke:#009af9; stroke-linecap:round; stroke-linejoin:round; stroke-width:4; stroke-opacity:1; fill:none" points="203.301,1135.84 255.472,1153.85 307.643,1171.86 359.815,1189.87 411.986,1207.87 464.157,1225.88 516.328,1243.89 568.5,1261.9 620.671,1279.91 672.842,1297.92 725.013,1315.93 777.185,1333.94 829.356,1351.95 881.527,1369.95 933.698,1387.96 985.87,1405.97 1038.04,1423.98 1090.21,1441.99 1142.38,1445.72 1194.55,1425.23 1246.73,1381.24 1298.9,1336.27 1351.07,1288.96 1403.24,1222.24 1455.41,1155.52 1507.58,1088.8 1559.75,1022.08 1611.92,955.354 1664.1,888.633 1716.27,821.912 1768.44,755.19 1820.61,688.469 1872.78,621.747 1924.95,555.026 1977.12,488.305 2029.29,421.583 2081.47,354.862 2133.64,288.14 2185.81,221.419 2237.98,154.698 2290.15,87.9763 "/>
<path clip-path="url(#clip490)" d="M214.431 198.898 L488.067 198.898 L488.067 95.2176 L214.431 95.2176  Z" fill="#ffffff" fill-rule="evenodd" fill-opacity="1"/>
<polyline clip-path="url(#clip490)" style="stroke:#000000; stroke-linecap:round; stroke-linejoin:round; stroke-width:4; stroke-opacity:1; fill:none" points="214.431,198.898 488.067,198.898 488.067,95.2176 214.431,95.2176 214.431,198.898 "/>
<polyline clip-path="url(#clip490)" style="stroke:#009af9; stroke-linecap:round; stroke-linejoin:round; stroke-width:4; stroke-opacity:1; fill:none" points="239.009,147.058 386.48,147.058 "/>
<path clip-path="url(#clip490)" d="M424.901 166.745 Q423.095 171.375 421.382 172.787 Q419.67 174.199 416.799 174.199 L413.396 174.199 L413.396 170.634 L415.896 170.634 Q417.656 170.634 418.628 169.8 Q419.6 168.967 420.781 165.865 L421.545 163.921 L411.058 138.412 L415.572 138.412 L423.674 158.689 L431.776 138.412 L436.29 138.412 L424.901 166.745 Z" fill="#000000" fill-rule="nonzero" fill-opacity="1" /><path clip-path="url(#clip490)" d="M443.581 160.402 L451.22 160.402 L451.22 134.037 L442.91 135.703 L442.91 131.444 L451.174 129.778 L455.85 129.778 L455.85 160.402 L463.489 160.402 L463.489 164.338 L443.581 164.338 L443.581 160.402 Z" fill="#000000" fill-rule="nonzero" fill-opacity="1" /></svg>
