<?xml version="1.0" encoding="utf-8"?>
<svg xmlns="http://www.w3.org/2000/svg" xmlns:xlink="http://www.w3.org/1999/xlink" width="600" height="400" viewBox="0 0 2400 1600">
<defs>
  <clipPath id="clip320">
    <rect x="0" y="0" width="2400" height="1600"/>
  </clipPath>
</defs>
<path clip-path="url(#clip320)" d="M0 1600 L2400 1600 L2400 0 L0 0  Z" fill="#ffffff" fill-rule="evenodd" fill-opacity="1"/>
<defs>
  <clipPath id="clip321">
    <rect x="193" y="47" width="2160" height="1440"/>
  </clipPath>
</defs>
<path clip-path="url(#clip320)" d="M193.936 1486.45 L2352.76 1486.45 L2352.76 47.2441 L193.936 47.2441  Z" fill="#ffffff" fill-rule="evenodd" fill-opacity="1"/>
<polyline clip-path="url(#clip321)" style="stroke:#000000; stroke-linecap:round; stroke-linejoin:round; stroke-width:2; stroke-opacity:0.1; fill:none" points="255.035,1486.45 255.035,47.2441 "/>
<polyline clip-path="url(#clip321)" style="stroke:#000000; stroke-linecap:round; stroke-linejoin:round; stroke-width:2; stroke-opacity:0.1; fill:none" points="579.338,1486.45 579.338,47.2441 "/>
<polyline clip-path="url(#clip321)" style="stroke:#000000; stroke-linecap:round; stroke-linejoin:round; stroke-width:2; stroke-opacity:0.1; fill:none" points="903.641,1486.45 903.641,47.2441 "/>
<polyline clip-path="url(#clip321)" style="stroke:#000000; stroke-linecap:round; stroke-linejoin:round; stroke-width:2; stroke-opacity:0.1; fill:none" points="1227.94,1486.45 1227.94,47.2441 "/>
<polyline clip-path="url(#clip321)" style="stroke:#000000; stroke-linecap:round; stroke-linejoin:round; stroke-width:2; stroke-opacity:0.1; fill:none" points="1552.25,1486.45 1552.25,47.2441 "/>
<polyline clip-path="url(#clip321)" style="stroke:#000000; stroke-linecap:round; stroke-linejoin:round; stroke-width:2; stroke-opacity:0.1; fill:none" points="1876.55,1486.45 1876.55,47.2441 "/>
<polyline clip-path="url(#clip321)" style="stroke:#000000; stroke-linecap:round; stroke-linejoin:round; stroke-width:2; stroke-opacity:0.1; fill:none" points="2200.85,1486.45 2200.85,47.2441 "/>
<polyline clip-path="url(#clip321)" style="stroke:#000000; stroke-linecap:round; stroke-linejoin:round; stroke-width:2; stroke-opacity:0.1; fill:none" points="193.936,1279.8 2352.76,1279.8 "/>
<polyline clip-path="url(#clip321)" style="stroke:#000000; stroke-linecap:round; stroke-linejoin:round; stroke-width:2; stroke-opacity:0.1; fill:none" points="193.936,1021.14 2352.76,1021.14 "/>
<polyline clip-path="url(#clip321)" style="stroke:#000000; stroke-linecap:round; stroke-linejoin:round; stroke-width:2; stroke-opacity:0.1; fill:none" points="193.936,762.491 2352.76,762.491 "/>
<polyline clip-path="url(#clip321)" style="stroke:#000000; stroke-linecap:round; stroke-linejoin:round; stroke-width:2; stroke-opacity:0.1; fill:none" points="193.936,503.839 2352.76,503.839 "/>
<polyline clip-path="url(#clip321)" style="stroke:#000000; stroke-linecap:round; stroke-linejoin:round; stroke-width:2; stroke-opacity:0.1; fill:none" points="193.936,245.187 2352.76,245.187 "/>
<polyline clip-path="url(#clip320)" style="stroke:#000000; stroke-linecap:round; stroke-linejoin:round; stroke-width:4; stroke-opacity:1; fill:none" points="193.936,1486.45 2352.76,1486.45 "/>
<polyline clip-path="url(#clip320)" style="stroke:#000000; stroke-linecap:round; stroke-linejoin:round; stroke-width:4; stroke-opacity:1; fill:none" points="255.035,1486.45 255.035,1467.55 "/>
<polyline clip-path="url(#clip320)" style="stroke:#000000; stroke-linecap:round; stroke-linejoin:round; stroke-width:4; stroke-opacity:1; fill:none" points="579.338,1486.45 579.338,1467.55 "/>
<polyline clip-path="url(#clip320)" style="stroke:#000000; stroke-linecap:round; stroke-linejoin:round; stroke-width:4; stroke-opacity:1; fill:none" points="903.641,1486.45 903.641,1467.55 "/>
<polyline clip-path="url(#clip320)" style="stroke:#000000; stroke-linecap:round; stroke-linejoin:round; stroke-width:4; stroke-opacity:1; fill:none" points="1227.94,1486.45 1227.94,1467.55 "/>
<polyline clip-path="url(#clip320)" style="stroke:#000000; stroke-linecap:round; stroke-linejoin:round; stroke-width:4; stroke-opacity:1; fill:none" points="1552.25,1486.45 1552.25,1467.55 "/>
<polyline clip-path="url(#clip320)" style="stroke:#000000; stroke-linecap:round; stroke-linejoin:round; stroke-width:4; stroke-opacity:1; fill:none" points="1876.55,1486.45 1876.55,1467.55 "/>
<polyline clip-path="url(#clip320)" style="stroke:#000000; stroke-linecap:round; stroke-linejoin:round; stroke-width:4; stroke-opacity:1; fill:none" points="2200.85,1486.45 2200.85,1467.55 "/>
<path clip-path="url(#clip320)" d="M255.035 1517.37 Q251.424 1517.37 249.595 1520.93 Q247.789 1524.47 247.789 1531.6 Q247.789 1538.71 249.595 1542.27 Q251.424 1545.82 255.035 1545.82 Q258.669 1545.82 260.474 1542.27 Q262.303 1538.71 262.303 1531.6 Q262.303 1524.47 260.474 1520.93 Q258.669 1517.37 255.035 1517.37 M255.035 1513.66 Q260.845 1513.66 263.9 1518.27 Q266.979 1522.85 266.979 1531.6 Q266.979 1540.33 263.9 1544.94 Q260.845 1549.52 255.035 1549.52 Q249.225 1549.52 246.146 1544.94 Q243.09 1540.33 243.09 1531.6 Q243.09 1522.85 246.146 1518.27 Q249.225 1513.66 255.035 1513.66 Z" fill="#000000" fill-rule="nonzero" fill-opacity="1" /><path clip-path="url(#clip320)" d="M569.72 1544.91 L577.358 1544.91 L577.358 1518.55 L569.048 1520.21 L569.048 1515.95 L577.312 1514.29 L581.988 1514.29 L581.988 1544.91 L589.627 1544.91 L589.627 1548.85 L569.72 1548.85 L569.72 1544.91 Z" fill="#000000" fill-rule="nonzero" fill-opacity="1" /><path clip-path="url(#clip320)" d="M898.293 1544.91 L914.613 1544.91 L914.613 1548.85 L892.668 1548.85 L892.668 1544.91 Q895.33 1542.16 899.914 1537.53 Q904.52 1532.88 905.701 1531.53 Q907.946 1529.01 908.826 1527.27 Q909.729 1525.51 909.729 1523.82 Q909.729 1521.07 907.784 1519.33 Q905.863 1517.6 902.761 1517.6 Q900.562 1517.6 898.108 1518.36 Q895.678 1519.13 892.9 1520.68 L892.9 1515.95 Q895.724 1514.82 898.178 1514.24 Q900.631 1513.66 902.668 1513.66 Q908.039 1513.66 911.233 1516.35 Q914.428 1519.03 914.428 1523.52 Q914.428 1525.65 913.617 1527.57 Q912.83 1529.47 910.724 1532.07 Q910.145 1532.74 907.043 1535.95 Q903.942 1539.15 898.293 1544.91 Z" fill="#000000" fill-rule="nonzero" fill-opacity="1" /><path clip-path="url(#clip320)" d="M1232.19 1530.21 Q1235.55 1530.93 1237.42 1533.2 Q1239.32 1535.47 1239.32 1538.8 Q1239.32 1543.92 1235.8 1546.72 Q1232.28 1549.52 1225.8 1549.52 Q1223.63 1549.52 1221.31 1549.08 Q1219.02 1548.66 1216.57 1547.81 L1216.57 1543.29 Q1218.51 1544.43 1220.83 1545.01 Q1223.14 1545.58 1225.66 1545.58 Q1230.06 1545.58 1232.35 1543.85 Q1234.67 1542.11 1234.67 1538.8 Q1234.67 1535.75 1232.52 1534.03 Q1230.39 1532.3 1226.57 1532.3 L1222.54 1532.3 L1222.54 1528.45 L1226.75 1528.45 Q1230.2 1528.45 1232.03 1527.09 Q1233.86 1525.7 1233.86 1523.11 Q1233.86 1520.45 1231.96 1519.03 Q1230.08 1517.6 1226.57 1517.6 Q1224.64 1517.6 1222.45 1518.01 Q1220.25 1518.43 1217.61 1519.31 L1217.61 1515.14 Q1220.27 1514.4 1222.58 1514.03 Q1224.92 1513.66 1226.98 1513.66 Q1232.31 1513.66 1235.41 1516.09 Q1238.51 1518.5 1238.51 1522.62 Q1238.51 1525.49 1236.87 1527.48 Q1235.22 1529.45 1232.19 1530.21 Z" fill="#000000" fill-rule="nonzero" fill-opacity="1" /><path clip-path="url(#clip320)" d="M1555.26 1518.36 L1543.45 1536.81 L1555.26 1536.81 L1555.26 1518.36 M1554.03 1514.29 L1559.91 1514.29 L1559.91 1536.81 L1564.84 1536.81 L1564.84 1540.7 L1559.91 1540.7 L1559.91 1548.85 L1555.26 1548.85 L1555.26 1540.7 L1539.65 1540.7 L1539.65 1536.19 L1554.03 1514.29 Z" fill="#000000" fill-rule="nonzero" fill-opacity="1" /><path clip-path="url(#clip320)" d="M1866.83 1514.29 L1885.18 1514.29 L1885.18 1518.22 L1871.11 1518.22 L1871.11 1526.7 Q1872.13 1526.35 1873.15 1526.19 Q1874.17 1526 1875.18 1526 Q1880.97 1526 1884.35 1529.17 Q1887.73 1532.34 1887.73 1537.76 Q1887.73 1543.34 1884.26 1546.44 Q1880.79 1549.52 1874.47 1549.52 Q1872.29 1549.52 1870.02 1549.15 Q1867.78 1548.78 1865.37 1548.04 L1865.37 1543.34 Q1867.45 1544.47 1869.67 1545.03 Q1871.9 1545.58 1874.37 1545.58 Q1878.38 1545.58 1880.72 1543.48 Q1883.05 1541.37 1883.05 1537.76 Q1883.05 1534.15 1880.72 1532.04 Q1878.38 1529.94 1874.37 1529.94 Q1872.5 1529.94 1870.62 1530.35 Q1868.77 1530.77 1866.83 1531.65 L1866.83 1514.29 Z" fill="#000000" fill-rule="nonzero" fill-opacity="1" /><path clip-path="url(#clip320)" d="M2201.26 1529.7 Q2198.11 1529.7 2196.26 1531.86 Q2194.43 1534.01 2194.43 1537.76 Q2194.43 1541.49 2196.26 1543.66 Q2198.11 1545.82 2201.26 1545.82 Q2204.41 1545.82 2206.23 1543.66 Q2208.09 1541.49 2208.09 1537.76 Q2208.09 1534.01 2206.23 1531.86 Q2204.41 1529.7 2201.26 1529.7 M2210.54 1515.05 L2210.54 1519.31 Q2208.78 1518.48 2206.98 1518.04 Q2205.19 1517.6 2203.43 1517.6 Q2198.8 1517.6 2196.35 1520.72 Q2193.92 1523.85 2193.57 1530.17 Q2194.94 1528.15 2197 1527.09 Q2199.06 1526 2201.54 1526 Q2206.74 1526 2209.75 1529.17 Q2212.79 1532.32 2212.79 1537.76 Q2212.79 1543.08 2209.64 1546.3 Q2206.49 1549.52 2201.26 1549.52 Q2195.26 1549.52 2192.09 1544.94 Q2188.92 1540.33 2188.92 1531.6 Q2188.92 1523.41 2192.81 1518.55 Q2196.7 1513.66 2203.25 1513.66 Q2205.01 1513.66 2206.79 1514.01 Q2208.6 1514.36 2210.54 1515.05 Z" fill="#000000" fill-rule="nonzero" fill-opacity="1" /><polyline clip-path="url(#clip320)" style="stroke:#000000; stroke-linecap:round; stroke-linejoin:round; stroke-width:4; stroke-opacity:1; fill:none" points="193.936,1486.45 193.936,47.2441 "/>
<polyline clip-path="url(#clip320)" style="stroke:#000000; stroke-linecap:round; stroke-linejoin:round; stroke-width:4; stroke-opacity:1; fill:none" points="193.936,1279.8 212.834,1279.8 "/>
<polyline clip-path="url(#clip320)" style="stroke:#000000; stroke-linecap:round; stroke-linejoin:round; stroke-width:4; stroke-opacity:1; fill:none" points="193.936,1021.14 212.834,1021.14 "/>
<polyline clip-path="url(#clip320)" style="stroke:#000000; stroke-linecap:round; stroke-linejoin:round; stroke-width:4; stroke-opacity:1; fill:none" points="193.936,762.491 212.834,762.491 "/>
<polyline clip-path="url(#clip320)" style="stroke:#000000; stroke-linecap:round; stroke-linejoin:round; stroke-width:4; stroke-opacity:1; fill:none" points="193.936,503.839 212.834,503.839 "/>
<polyline clip-path="url(#clip320)" style="stroke:#000000; stroke-linecap:round; stroke-linejoin:round; stroke-width:4; stroke-opacity:1; fill:none" points="193.936,245.187 212.834,245.187 "/>
<path clip-path="url(#clip320)" d="M50.9921 1280.25 L80.6679 1280.25 L80.6679 1284.18 L50.9921 1284.18 L50.9921 1280.25 Z" fill="#000000" fill-rule="nonzero" fill-opacity="1" /><path clip-path="url(#clip320)" d="M91.5706 1293.14 L99.2095 1293.14 L99.2095 1266.77 L90.8993 1268.44 L90.8993 1264.18 L99.1632 1262.52 L103.839 1262.52 L103.839 1293.14 L111.478 1293.14 L111.478 1297.08 L91.5706 1297.08 L91.5706 1293.14 Z" fill="#000000" fill-rule="nonzero" fill-opacity="1" /><path clip-path="url(#clip320)" d="M120.922 1291.2 L125.807 1291.2 L125.807 1297.08 L120.922 1297.08 L120.922 1291.2 Z" fill="#000000" fill-rule="nonzero" fill-opacity="1" /><path clip-path="url(#clip320)" d="M145.992 1265.59 Q142.381 1265.59 140.552 1269.16 Q138.746 1272.7 138.746 1279.83 Q138.746 1286.94 140.552 1290.5 Q142.381 1294.04 145.992 1294.04 Q149.626 1294.04 151.431 1290.5 Q153.26 1286.94 153.26 1279.83 Q153.26 1272.7 151.431 1269.16 Q149.626 1265.59 145.992 1265.59 M145.992 1261.89 Q151.802 1261.89 154.857 1266.5 Q157.936 1271.08 157.936 1279.83 Q157.936 1288.56 154.857 1293.16 Q151.802 1297.75 145.992 1297.75 Q140.181 1297.75 137.103 1293.16 Q134.047 1288.56 134.047 1279.83 Q134.047 1271.08 137.103 1266.5 Q140.181 1261.89 145.992 1261.89 Z" fill="#000000" fill-rule="nonzero" fill-opacity="1" /><path clip-path="url(#clip320)" d="M51.9875 1021.59 L81.6633 1021.59 L81.6633 1025.53 L51.9875 1025.53 L51.9875 1021.59 Z" fill="#000000" fill-rule="nonzero" fill-opacity="1" /><path clip-path="url(#clip320)" d="M101.756 1006.94 Q98.1447 1006.94 96.316 1010.51 Q94.5104 1014.05 94.5104 1021.18 Q94.5104 1028.28 96.316 1031.85 Q98.1447 1035.39 101.756 1035.39 Q105.39 1035.39 107.196 1031.85 Q109.024 1028.28 109.024 1021.18 Q109.024 1014.05 107.196 1010.51 Q105.39 1006.94 101.756 1006.94 M101.756 1003.24 Q107.566 1003.24 110.621 1007.84 Q113.7 1012.43 113.7 1021.18 Q113.7 1029.9 110.621 1034.51 Q107.566 1039.09 101.756 1039.09 Q95.9456 1039.09 92.8669 1034.51 Q89.8114 1029.9 89.8114 1021.18 Q89.8114 1012.43 92.8669 1007.84 Q95.9456 1003.24 101.756 1003.24 Z" fill="#000000" fill-rule="nonzero" fill-opacity="1" /><path clip-path="url(#clip320)" d="M121.918 1032.54 L126.802 1032.54 L126.802 1038.42 L121.918 1038.42 L121.918 1032.54 Z" fill="#000000" fill-rule="nonzero" fill-opacity="1" /><path clip-path="url(#clip320)" d="M137.033 1003.86 L155.39 1003.86 L155.39 1007.8 L141.316 1007.8 L141.316 1016.27 Q142.334 1015.92 143.353 1015.76 Q144.371 1015.58 145.39 1015.58 Q151.177 1015.58 154.556 1018.75 Q157.936 1021.92 157.936 1027.34 Q157.936 1032.91 154.464 1036.02 Q150.992 1039.09 144.672 1039.09 Q142.496 1039.09 140.228 1038.72 Q137.982 1038.35 135.575 1037.61 L135.575 1032.91 Q137.658 1034.05 139.881 1034.6 Q142.103 1035.16 144.58 1035.16 Q148.584 1035.16 150.922 1033.05 Q153.26 1030.95 153.26 1027.34 Q153.26 1023.72 150.922 1021.62 Q148.584 1019.51 144.58 1019.51 Q142.705 1019.51 140.83 1019.93 Q138.978 1020.34 137.033 1021.22 L137.033 1003.86 Z" fill="#000000" fill-rule="nonzero" fill-opacity="1" /><path clip-path="url(#clip320)" d="M100.76 748.29 Q97.1493 748.29 95.3206 751.855 Q93.515 755.396 93.515 762.526 Q93.515 769.633 95.3206 773.197 Q97.1493 776.739 100.76 776.739 Q104.395 776.739 106.2 773.197 Q108.029 769.633 108.029 762.526 Q108.029 755.396 106.2 751.855 Q104.395 748.29 100.76 748.29 M100.76 744.586 Q106.571 744.586 109.626 749.193 Q112.705 753.776 112.705 762.526 Q112.705 771.253 109.626 775.859 Q106.571 780.443 100.76 780.443 Q94.9502 780.443 91.8715 775.859 Q88.816 771.253 88.816 762.526 Q88.816 753.776 91.8715 749.193 Q94.9502 744.586 100.76 744.586 Z" fill="#000000" fill-rule="nonzero" fill-opacity="1" /><path clip-path="url(#clip320)" d="M120.922 773.892 L125.807 773.892 L125.807 779.771 L120.922 779.771 L120.922 773.892 Z" fill="#000000" fill-rule="nonzero" fill-opacity="1" /><path clip-path="url(#clip320)" d="M145.992 748.29 Q142.381 748.29 140.552 751.855 Q138.746 755.396 138.746 762.526 Q138.746 769.633 140.552 773.197 Q142.381 776.739 145.992 776.739 Q149.626 776.739 151.431 773.197 Q153.26 769.633 153.26 762.526 Q153.26 755.396 151.431 751.855 Q149.626 748.29 145.992 748.29 M145.992 744.586 Q151.802 744.586 154.857 749.193 Q157.936 753.776 157.936 762.526 Q157.936 771.253 154.857 775.859 Q151.802 780.443 145.992 780.443 Q140.181 780.443 137.103 775.859 Q134.047 771.253 134.047 762.526 Q134.047 753.776 137.103 749.193 Q140.181 744.586 145.992 744.586 Z" fill="#000000" fill-rule="nonzero" fill-opacity="1" /><path clip-path="url(#clip320)" d="M101.756 489.638 Q98.1447 489.638 96.316 493.203 Q94.5104 496.744 94.5104 503.874 Q94.5104 510.98 96.316 514.545 Q98.1447 518.087 101.756 518.087 Q105.39 518.087 107.196 514.545 Q109.024 510.98 109.024 503.874 Q109.024 496.744 107.196 493.203 Q105.39 489.638 101.756 489.638 M101.756 485.934 Q107.566 485.934 110.621 490.541 Q113.7 495.124 113.7 503.874 Q113.7 512.601 110.621 517.207 Q107.566 521.791 101.756 521.791 Q95.9456 521.791 92.8669 517.207 Q89.8114 512.601 89.8114 503.874 Q89.8114 495.124 92.8669 490.541 Q95.9456 485.934 101.756 485.934 Z" fill="#000000" fill-rule="nonzero" fill-opacity="1" /><path clip-path="url(#clip320)" d="M121.918 515.24 L126.802 515.24 L126.802 521.119 L121.918 521.119 L121.918 515.24 Z" fill="#000000" fill-rule="nonzero" fill-opacity="1" /><path clip-path="url(#clip320)" d="M137.033 486.559 L155.39 486.559 L155.39 490.494 L141.316 490.494 L141.316 498.967 Q142.334 498.619 143.353 498.457 Q144.371 498.272 145.39 498.272 Q151.177 498.272 154.556 501.443 Q157.936 504.615 157.936 510.031 Q157.936 515.61 154.464 518.712 Q150.992 521.791 144.672 521.791 Q142.496 521.791 140.228 521.42 Q137.982 521.05 135.575 520.309 L135.575 515.61 Q137.658 516.744 139.881 517.3 Q142.103 517.855 144.58 517.855 Q148.584 517.855 150.922 515.749 Q153.26 513.642 153.26 510.031 Q153.26 506.42 150.922 504.314 Q148.584 502.207 144.58 502.207 Q142.705 502.207 140.83 502.624 Q138.978 503.041 137.033 503.92 L137.033 486.559 Z" fill="#000000" fill-rule="nonzero" fill-opacity="1" /><path clip-path="url(#clip320)" d="M91.5706 258.532 L99.2095 258.532 L99.2095 232.166 L90.8993 233.833 L90.8993 229.574 L99.1632 227.907 L103.839 227.907 L103.839 258.532 L111.478 258.532 L111.478 262.467 L91.5706 262.467 L91.5706 258.532 Z" fill="#000000" fill-rule="nonzero" fill-opacity="1" /><path clip-path="url(#clip320)" d="M120.922 256.588 L125.807 256.588 L125.807 262.467 L120.922 262.467 L120.922 256.588 Z" fill="#000000" fill-rule="nonzero" fill-opacity="1" /><path clip-path="url(#clip320)" d="M145.992 230.986 Q142.381 230.986 140.552 234.551 Q138.746 238.092 138.746 245.222 Q138.746 252.328 140.552 255.893 Q142.381 259.435 145.992 259.435 Q149.626 259.435 151.431 255.893 Q153.26 252.328 153.26 245.222 Q153.26 238.092 151.431 234.551 Q149.626 230.986 145.992 230.986 M145.992 227.282 Q151.802 227.282 154.857 231.889 Q157.936 236.472 157.936 245.222 Q157.936 253.949 154.857 258.555 Q151.802 263.138 145.992 263.138 Q140.181 263.138 137.103 258.555 Q134.047 253.949 134.047 245.222 Q134.047 236.472 137.103 231.889 Q140.181 227.282 145.992 227.282 Z" fill="#000000" fill-rule="nonzero" fill-opacity="1" /><polyline clip-path="url(#clip321)" style="stroke:#009af9; stroke-linecap:round; stroke-linejoin:round; stroke-width:4; stroke-opacity:1; fill:none" points="255.035,762.491 258.278,757.318 261.521,752.146 264.764,746.975 268.007,741.805 271.25,736.637 274.493,731.472 277.736,726.31 280.979,721.151 284.222,715.997 287.465,710.847 290.708,705.703 293.951,700.564 297.194,695.431 300.437,690.305 303.68,685.186 306.923,680.075 310.166,674.973 313.409,669.879 316.652,664.794 319.895,659.719 323.138,654.654 326.381,649.6 329.624,644.558 332.867,639.527 336.11,634.508 339.353,629.502 342.596,624.51 345.84,619.531 349.083,614.567 352.326,609.618 355.569,604.683 358.812,599.765 362.055,594.863 365.298,589.977 368.541,585.109 371.784,580.258 375.027,575.426 378.27,570.613 381.513,565.818 384.756,561.044 387.999,556.289 391.242,551.555 394.485,546.842 397.728,542.151 400.971,537.482 404.214,532.835 407.457,528.211 410.7,523.611 413.943,519.035 417.186,514.483 420.429,509.955 423.672,505.453 426.915,500.977 430.158,496.527 433.401,492.103 436.644,487.707 439.887,483.337 443.13,478.996 446.373,474.683 449.616,470.399 452.859,466.145 456.103,461.919 459.346,457.724 462.589,453.56 465.832,449.426 469.075,445.323 472.318,441.253 475.561,437.214 478.804,433.208 482.047,429.235 485.29,425.295 488.533,421.389 491.776,417.517 495.019,413.679 498.262,409.877 501.505,406.109 504.748,402.378 507.991,398.682 511.234,395.023 514.477,391.4 517.72,387.815 520.963,384.267 524.206,380.756 527.449,377.284 530.692,373.851 533.935,370.456 537.178,367.101 540.421,363.785 543.664,360.509 546.907,357.273 550.15,354.078 553.393,350.923 556.636,347.81 559.879,344.738 563.122,341.708 566.366,338.72 569.609,335.775 572.852,332.872 576.095,330.012 579.338,327.195 582.581,324.422 585.824,321.692 589.067,319.007 592.31,316.366 595.553,313.77 598.796,311.218 602.039,308.712 605.282,306.251 608.525,303.836 611.768,301.466 615.011,299.143 618.254,296.866 621.497,294.635 624.74,292.451 627.983,290.315 631.226,288.225 634.469,286.183 637.712,284.189 640.955,282.242 644.198,280.344 647.441,278.493 650.684,276.691 653.927,274.938 657.17,273.233 660.413,271.578 663.656,269.971 666.899,268.414 670.142,266.906 673.385,265.447 676.629,264.039 679.872,262.68 683.115,261.371 686.358,260.112 689.601,258.904 692.844,257.746 696.087,256.638 699.33,255.581 702.573,254.574 705.816,253.619 709.059,252.714 712.302,251.86 715.545,251.058 718.788,250.306 722.031,249.606 725.274,248.957 728.517,248.359 731.76,247.813 735.003,247.318 738.246,246.875 741.489,246.483 744.732,246.143 747.975,245.854 751.218,245.618 754.461,245.432 757.704,245.299 760.947,245.217 764.19,245.187 767.433,245.209 770.676,245.283 773.919,245.408 777.162,245.585 780.405,245.813 783.648,246.094 786.892,246.425 790.135,246.809 793.378,247.244 796.621,247.731 799.864,248.269 803.107,248.858 806.35,249.499 809.593,250.191 812.836,250.935 816.079,251.729 819.322,252.575 822.565,253.471 825.808,254.419 829.051,255.417 832.294,256.466 835.537,257.566 838.78,258.716 842.023,259.916 845.266,261.167 848.509,262.468 851.752,263.819 854.995,265.22 858.238,266.67 861.481,268.17 864.724,269.72 867.967,271.318 871.21,272.966 874.453,274.663 877.696,276.409 880.939,278.203 884.182,280.046 887.425,281.937 890.668,283.876 893.911,285.862 897.155,287.897 900.398,289.979 903.641,292.108 906.884,294.284 910.127,296.507 913.37,298.777 916.613,301.093 919.856,303.455 923.099,305.863 926.342,308.317 929.585,310.816 932.828,313.36 936.071,315.95 939.314,318.583 942.557,321.262 945.8,323.984 949.043,326.75 952.286,329.56 955.529,332.413 958.772,335.309 962.015,338.248 965.258,341.229 968.501,344.253 971.744,347.318 974.987,350.425 978.23,353.573 981.473,356.761 984.716,359.991 987.959,363.26 991.202,366.57 994.445,369.919 997.688,373.308 1000.93,376.735 1004.17,380.201 1007.42,383.705 1010.66,387.247 1013.9,390.827 1017.15,394.443 1020.39,398.097 1023.63,401.787 1026.88,405.513 1030.12,409.274 1033.36,413.071 1036.6,416.903 1039.85,420.77 1043.09,424.671 1046.33,428.605 1049.58,432.573 1052.82,436.574 1056.06,440.607 1059.31,444.673 1062.55,448.77 1065.79,452.899 1069.04,457.059 1072.28,461.249 1075.52,465.47 1078.76,469.72 1082.01,473.999 1085.25,478.307 1088.49,482.644 1091.74,487.009 1094.98,491.401 1098.22,495.82 1101.47,500.266 1104.71,504.739 1107.95,509.236 1111.19,513.76 1114.44,518.308 1117.68,522.881 1120.92,527.477 1124.17,532.097 1127.41,536.74 1130.65,541.406 1133.9,546.094 1137.14,550.803 1140.38,555.534 1143.62,560.285 1146.87,565.057 1150.11,569.848 1153.35,574.658 1156.6,579.488 1159.84,584.335 1163.08,589.201 1166.33,594.083 1169.57,598.983 1172.81,603.899 1176.06,608.831 1179.3,613.778 1182.54,618.74 1185.78,623.716 1189.03,628.706 1192.27,633.71 1195.51,638.727 1198.76,643.756 1202,648.796 1205.24,653.849 1208.49,658.912 1211.73,663.985 1214.97,669.068 1218.21,674.161 1221.46,679.262 1224.7,684.372 1227.94,689.489 1231.19,694.614 1234.43,699.746 1237.67,704.884 1240.92,710.027 1244.16,715.176 1247.4,720.33 1250.64,725.488 1253.89,730.649 1257.13,735.814 1260.37,740.981 1263.62,746.151 1266.86,751.322 1270.1,756.495 1273.35,761.667 1276.59,766.84 1279.83,772.013 1283.08,777.185 1286.32,782.355 1289.56,787.523 1292.8,792.689 1296.05,797.851 1299.29,803.01 1302.53,808.165 1305.78,813.316 1309.02,818.461 1312.26,823.601 1315.51,828.735 1318.75,833.862 1321.99,838.982 1325.23,844.094 1328.48,849.198 1331.72,854.293 1334.96,859.38 1338.21,864.456 1341.45,869.523 1344.69,874.578 1347.94,879.623 1351.18,884.655 1354.42,889.676 1357.66,894.684 1360.91,899.678 1364.15,904.659 1367.39,909.626 1370.64,914.578 1373.88,919.515 1377.12,924.436 1380.37,929.34 1383.61,934.229 1386.85,939.1 1390.1,943.953 1393.34,948.788 1396.58,953.605 1399.82,958.402 1403.07,963.18 1406.31,967.938 1409.55,972.675 1412.8,977.391 1416.04,982.086 1419.28,986.759 1422.53,991.409 1425.77,996.036 1429.01,1000.64 1432.25,1005.22 1435.5,1009.78 1438.74,1014.31 1441.98,1018.81 1445.23,1023.29 1448.47,1027.75 1451.71,1032.18 1454.96,1036.58 1458.2,1040.95 1461.44,1045.3 1464.68,1049.61 1467.93,1053.9 1471.17,1058.16 1474.41,1062.39 1477.66,1066.59 1480.9,1070.76 1484.14,1074.9 1487.39,1079.01 1490.63,1083.08 1493.87,1087.13 1497.11,1091.14 1500.36,1095.12 1503.6,1099.06 1506.84,1102.97 1510.09,1106.85 1513.33,1110.69 1516.57,1114.5 1519.82,1118.28 1523.06,1122.01 1526.3,1125.71 1529.55,1129.38 1532.79,1133.01 1536.03,1136.6 1539.27,1140.15 1542.52,1143.67 1545.76,1147.15 1549,1150.59 1552.25,1153.99 1555.49,1157.35 1558.73,1160.67 1561.98,1163.95 1565.22,1167.2 1568.46,1170.4 1571.7,1173.56 1574.95,1176.68 1578.19,1179.76 1581.43,1182.79 1584.68,1185.79 1587.92,1188.74 1591.16,1191.65 1594.41,1194.52 1597.65,1197.34 1600.89,1200.12 1604.13,1202.86 1607.38,1205.55 1610.62,1208.2 1613.86,1210.8 1617.11,1213.36 1620.35,1215.87 1623.59,1218.34 1626.84,1220.77 1630.08,1223.14 1633.32,1225.47 1636.57,1227.76 1639.81,1230 1643.05,1232.19 1646.29,1234.33 1649.54,1236.43 1652.78,1238.48 1656.02,1240.48 1659.27,1242.43 1662.51,1244.34 1665.75,1246.2 1669,1248.01 1672.24,1249.77 1675.48,1251.48 1678.72,1253.14 1681.97,1254.76 1685.21,1256.32 1688.45,1257.84 1691.7,1259.31 1694.94,1260.72 1698.18,1262.09 1701.43,1263.41 1704.67,1264.67 1707.91,1265.89 1711.15,1267.06 1714.4,1268.17 1717.64,1269.24 1720.88,1270.25 1724.13,1271.22 1727.37,1272.13 1730.61,1272.99 1733.86,1273.8 1737.1,1274.56 1740.34,1275.27 1743.59,1275.93 1746.83,1276.53 1750.07,1277.09 1753.31,1277.59 1756.56,1278.04 1759.8,1278.44 1763.04,1278.79 1766.29,1279.09 1769.53,1279.33 1772.77,1279.52 1776.02,1279.67 1779.26,1279.76 1782.5,1279.79 1785.74,1279.78 1788.99,1279.72 1792.23,1279.6 1795.47,1279.43 1798.72,1279.21 1801.96,1278.94 1805.2,1278.61 1808.45,1278.24 1811.69,1277.81 1814.93,1277.33 1818.17,1276.8 1821.42,1276.22 1824.66,1275.59 1827.9,1274.91 1831.15,1274.17 1834.39,1273.38 1837.63,1272.55 1840.88,1271.66 1844.12,1270.72 1847.36,1269.73 1850.61,1268.69 1853.85,1267.6 1857.09,1266.45 1860.33,1265.26 1863.58,1264.02 1866.82,1262.73 1870.06,1261.38 1873.31,1259.99 1876.55,1258.55 1879.79,1257.05 1883.04,1255.51 1886.28,1253.92 1889.52,1252.28 1892.76,1250.59 1896.01,1248.86 1899.25,1247.07 1902.49,1245.23 1905.74,1243.35 1908.98,1241.42 1912.22,1239.44 1915.47,1237.41 1918.71,1235.34 1921.95,1233.22 1925.19,1231.05 1928.44,1228.83 1931.68,1226.57 1934.92,1224.26 1938.17,1221.91 1941.41,1219.51 1944.65,1217.06 1947.9,1214.57 1951.14,1212.03 1954.38,1209.45 1957.63,1206.82 1960.87,1204.15 1964.11,1201.44 1967.35,1198.68 1970.6,1195.87 1973.84,1193.03 1977.08,1190.14 1980.33,1187.21 1983.57,1184.23 1986.81,1181.21 1990.06,1178.16 1993.3,1175.06 1996.54,1171.91 1999.78,1168.73 2003.03,1165.51 2006.27,1162.25 2009.51,1158.94 2012.76,1155.6 2016,1152.22 2019.24,1148.8 2022.49,1145.34 2025.73,1141.84 2028.97,1138.3 2032.21,1134.73 2035.46,1131.12 2038.7,1127.47 2041.94,1123.79 2045.19,1120.07 2048.43,1116.31 2051.67,1112.52 2054.92,1108.69 2058.16,1104.83 2061.4,1100.94 2064.65,1097.01 2067.89,1093.04 2071.13,1089.05 2074.37,1085.02 2077.62,1080.96 2080.86,1076.87 2084.1,1072.74 2087.35,1068.59 2090.59,1064.4 2093.83,1060.19 2097.08,1055.94 2100.32,1051.67 2103.56,1047.36 2106.8,1043.03 2110.05,1038.67 2113.29,1034.28 2116.53,1029.87 2119.78,1025.43 2123.02,1020.96 2126.26,1016.46 2129.51,1011.94 2132.75,1007.4 2135.99,1002.83 2139.23,998.239 2142.48,993.623 2145.72,988.983 2148.96,984.321 2152.21,979.637 2155.45,974.931 2158.69,970.204 2161.94,965.456 2165.18,960.687 2168.42,955.899 2171.67,951.092 2174.91,946.265 2178.15,941.421 2181.39,936.558 2184.64,931.678 2187.88,926.781 2191.12,921.868 2194.37,916.939 2197.61,911.994 2200.85,907.034 2204.1,902.06 2207.34,897.072 2210.58,892.07 2213.82,887.056 2217.07,882.029 2220.31,876.99 2223.55,871.94 2226.8,866.878 2230.04,861.806 2233.28,856.725 2236.53,851.634 2239.77,846.534 2243.01,841.425 2246.25,836.309 2249.5,831.185 2252.74,826.055 2255.98,820.918 2259.23,815.775 2262.47,810.627 2265.71,805.474 2268.96,800.317 2272.2,795.156 2275.44,789.991 2278.69,784.824 2281.93,779.655 2285.17,774.484 2288.41,769.312 2291.66,764.139 "/>
<circle clip-path="url(#clip321)" cx="2048.43" cy="1239.35" r="14.4" fill="#e26f46" fill-rule="evenodd" fill-opacity="1" stroke="#000000" stroke-opacity="1" stroke-width="3.2"/>
<circle clip-path="url(#clip321)" cx="2067.89" cy="984.642" r="14.4" fill="#e26f46" fill-rule="evenodd" fill-opacity="1" stroke="#000000" stroke-opacity="1" stroke-width="3.2"/>
<circle clip-path="url(#clip321)" cx="1072.28" cy="541.568" r="14.4" fill="#e26f46" fill-rule="evenodd" fill-opacity="1" stroke="#000000" stroke-opacity="1" stroke-width="3.2"/>
<circle clip-path="url(#clip321)" cx="1380.37" cy="964.143" r="14.4" fill="#e26f46" fill-rule="evenodd" fill-opacity="1" stroke="#000000" stroke-opacity="1" stroke-width="3.2"/>
<circle clip-path="url(#clip321)" cx="1750.07" cy="1352.46" r="14.4" fill="#e26f46" fill-rule="evenodd" fill-opacity="1" stroke="#000000" stroke-opacity="1" stroke-width="3.2"/>
<circle clip-path="url(#clip321)" cx="1467.93" cy="1058.09" r="14.4" fill="#e26f46" fill-rule="evenodd" fill-opacity="1" stroke="#000000" stroke-opacity="1" stroke-width="3.2"/>
<circle clip-path="url(#clip321)" cx="605.282" cy="342.784" r="14.4" fill="#e26f46" fill-rule="evenodd" fill-opacity="1" stroke="#000000" stroke-opacity="1" stroke-width="3.2"/>
<circle clip-path="url(#clip321)" cx="449.616" cy="453.011" r="14.4" fill="#e26f46" fill-rule="evenodd" fill-opacity="1" stroke="#000000" stroke-opacity="1" stroke-width="3.2"/>
<circle clip-path="url(#clip321)" cx="2106.8" cy="1087.91" r="14.4" fill="#e26f46" fill-rule="evenodd" fill-opacity="1" stroke="#000000" stroke-opacity="1" stroke-width="3.2"/>
<circle clip-path="url(#clip321)" cx="1876.55" cy="1353.59" r="14.4" fill="#e26f46" fill-rule="evenodd" fill-opacity="1" stroke="#000000" stroke-opacity="1" stroke-width="3.2"/>
<circle clip-path="url(#clip321)" cx="1202" cy="746.346" r="14.4" fill="#e26f46" fill-rule="evenodd" fill-opacity="1" stroke="#000000" stroke-opacity="1" stroke-width="3.2"/>
<circle clip-path="url(#clip321)" cx="1604.13" cy="1092.54" r="14.4" fill="#e26f46" fill-rule="evenodd" fill-opacity="1" stroke="#000000" stroke-opacity="1" stroke-width="3.2"/>
<circle clip-path="url(#clip321)" cx="2054.92" cy="1139.32" r="14.4" fill="#e26f46" fill-rule="evenodd" fill-opacity="1" stroke="#000000" stroke-opacity="1" stroke-width="3.2"/>
<circle clip-path="url(#clip321)" cx="462.589" cy="414.968" r="14.4" fill="#e26f46" fill-rule="evenodd" fill-opacity="1" stroke="#000000" stroke-opacity="1" stroke-width="3.2"/>
<circle clip-path="url(#clip321)" cx="2064.65" cy="1171.76" r="14.4" fill="#e26f46" fill-rule="evenodd" fill-opacity="1" stroke="#000000" stroke-opacity="1" stroke-width="3.2"/>
<circle clip-path="url(#clip321)" cx="277.736" cy="635.772" r="14.4" fill="#e26f46" fill-rule="evenodd" fill-opacity="1" stroke="#000000" stroke-opacity="1" stroke-width="3.2"/>
<circle clip-path="url(#clip321)" cx="1539.27" cy="1218.12" r="14.4" fill="#e26f46" fill-rule="evenodd" fill-opacity="1" stroke="#000000" stroke-opacity="1" stroke-width="3.2"/>
<circle clip-path="url(#clip321)" cx="498.262" cy="374.803" r="14.4" fill="#e26f46" fill-rule="evenodd" fill-opacity="1" stroke="#000000" stroke-opacity="1" stroke-width="3.2"/>
<circle clip-path="url(#clip321)" cx="1853.85" cy="1216.07" r="14.4" fill="#e26f46" fill-rule="evenodd" fill-opacity="1" stroke="#000000" stroke-opacity="1" stroke-width="3.2"/>
<circle clip-path="url(#clip321)" cx="1078.76" cy="375.65" r="14.4" fill="#e26f46" fill-rule="evenodd" fill-opacity="1" stroke="#000000" stroke-opacity="1" stroke-width="3.2"/>
<path clip-path="url(#clip321)" d="M255.035 880.61 L258.278 875.889 L261.521 871.213 L264.764 866.588 L268.007 862.019 L271.25 857.512 L274.493 853.071 L277.736 848.703 L280.979 844.409 L284.222 840.186 L287.465 836.026 L290.708 831.924 L293.951 827.872 L297.194 823.863 L300.437 819.89 L303.68 815.947 L306.923 812.028 L310.166 808.125 L313.409 804.232 L316.652 800.343 L319.895 796.452 L323.138 792.554 L326.381 788.644 L329.624 784.716 L332.867 780.766 L336.11 776.791 L339.353 772.785 L342.596 768.746 L345.84 764.67 L349.083 760.556 L352.326 756.4 L355.569 752.202 L358.812 747.961 L362.055 743.674 L365.298 739.343 L368.541 734.967 L371.784 730.547 L375.027 726.084 L378.27 721.581 L381.513 717.039 L384.756 712.462 L387.999 707.852 L391.242 703.214 L394.485 698.552 L397.728 693.873 L400.971 689.181 L404.214 684.484 L407.457 679.788 L410.7 675.102 L413.943 670.435 L417.186 665.796 L420.429 661.195 L423.672 656.644 L426.915 652.153 L430.158 647.737 L433.401 643.407 L436.644 639.179 L439.887 635.065 L443.13 631.082 L446.373 627.245 L449.616 623.57 L452.859 620.071 L456.103 616.756 L459.346 613.634 L462.589 610.711 L465.832 607.992 L469.075 605.476 L472.318 603.16 L475.561 601.04 L478.804 599.112 L482.047 597.375 L485.29 595.824 L488.533 594.458 L491.776 593.274 L495.019 592.27 L498.262 591.446 L501.505 590.797 L504.748 590.313 L507.991 589.983 L511.234 589.795 L514.477 589.739 L517.72 589.806 L520.963 589.985 L524.206 590.269 L527.449 590.65 L530.692 591.122 L533.935 591.678 L537.178 592.314 L540.421 593.026 L543.664 593.81 L546.907 594.663 L550.15 595.584 L553.393 596.572 L556.636 597.627 L559.879 598.749 L563.122 599.939 L566.366 601.198 L569.609 602.53 L572.852 603.937 L576.095 605.422 L579.338 606.989 L582.581 608.642 L585.824 610.387 L589.067 612.228 L592.31 614.17 L595.553 616.22 L598.796 618.383 L602.039 620.664 L605.282 623.07 L608.525 625.605 L611.768 628.261 L615.011 631.031 L618.254 633.907 L621.497 636.879 L624.74 639.94 L627.983 643.081 L631.226 646.295 L634.469 649.573 L637.712 652.91 L640.955 656.296 L644.198 659.727 L647.441 663.194 L650.684 666.692 L653.927 670.214 L657.17 673.755 L660.413 677.309 L663.656 680.87 L666.899 684.434 L670.142 687.996 L673.385 691.551 L676.629 695.095 L679.872 698.623 L683.115 702.132 L686.358 705.617 L689.601 709.076 L692.844 712.505 L696.087 715.9 L699.33 719.258 L702.573 722.577 L705.816 725.854 L709.059 729.086 L712.302 732.271 L715.545 735.407 L718.788 738.491 L722.031 741.521 L725.274 744.495 L728.517 747.412 L731.76 750.269 L735.003 753.066 L738.246 755.8 L741.489 758.47 L744.732 761.074 L747.975 763.613 L751.218 766.083 L754.461 768.484 L757.704 770.816 L760.947 773.076 L764.19 775.265 L767.433 777.381 L770.676 779.424 L773.919 781.392 L777.162 783.285 L780.405 785.103 L783.648 786.845 L786.892 788.51 L790.135 790.098 L793.378 791.609 L796.621 793.042 L799.864 794.396 L803.107 795.673 L806.35 796.87 L809.593 797.989 L812.836 799.028 L816.079 799.989 L819.322 800.87 L822.565 801.672 L825.808 802.394 L829.051 803.038 L832.294 803.602 L835.537 804.087 L838.78 804.493 L842.023 804.821 L845.266 805.07 L848.509 805.24 L851.752 805.333 L854.995 805.349 L858.238 805.287 L861.481 805.148 L864.724 804.933 L867.967 804.643 L871.21 804.277 L874.453 803.837 L877.696 803.322 L880.939 802.735 L884.182 802.075 L887.425 801.343 L890.668 800.541 L893.911 799.669 L897.155 798.728 L900.398 797.719 L903.641 796.644 L906.884 795.503 L910.127 794.297 L913.37 793.029 L916.613 791.7 L919.856 790.31 L923.099 788.862 L926.342 787.357 L929.585 785.798 L932.828 784.185 L936.071 782.521 L939.314 780.809 L942.557 779.05 L945.8 777.246 L949.043 775.401 L952.286 773.517 L955.529 771.597 L958.772 769.643 L962.015 767.659 L965.258 765.649 L968.501 763.615 L971.744 761.563 L974.987 759.494 L978.23 757.415 L981.473 755.329 L984.716 753.241 L987.959 751.157 L991.202 749.081 L994.445 747.019 L997.688 744.977 L1000.93 742.963 L1004.17 740.981 L1007.42 739.041 L1010.66 737.149 L1013.9 735.313 L1017.15 733.542 L1020.39 731.845 L1023.63 730.231 L1026.88 728.71 L1030.12 727.294 L1033.36 725.993 L1036.6 724.818 L1039.85 723.782 L1043.09 722.898 L1046.33 722.179 L1049.58 721.638 L1052.82 721.29 L1056.06 721.148 L1059.31 721.229 L1062.55 721.546 L1065.79 722.116 L1069.04 722.952 L1072.28 724.07 L1075.52 725.482 L1078.76 727.195 L1082.01 729.21 L1085.25 731.515 L1088.49 734.095 L1091.74 736.934 L1094.98 740.017 L1098.22 743.328 L1101.47 746.853 L1104.71 750.575 L1107.95 754.48 L1111.19 758.554 L1114.44 762.782 L1117.68 767.152 L1120.92 771.651 L1124.17 776.267 L1127.41 780.989 L1130.65 785.806 L1133.9 790.709 L1137.14 795.689 L1140.38 800.737 L1143.62 805.847 L1146.87 811.01 L1150.11 816.222 L1153.35 821.477 L1156.6 826.771 L1159.84 832.099 L1163.08 837.458 L1166.33 842.845 L1169.57 848.258 L1172.81 853.696 L1176.06 859.157 L1179.3 864.641 L1182.54 870.147 L1185.78 875.676 L1189.03 881.227 L1192.27 886.802 L1195.51 892.401 L1198.76 898.026 L1202 903.677 L1205.24 909.355 L1208.49 915.054 L1211.73 920.767 L1214.97 926.488 L1218.21 932.209 L1221.46 937.925 L1224.7 943.628 L1227.94 949.313 L1231.19 954.975 L1234.43 960.606 L1237.67 966.203 L1240.92 971.76 L1244.16 977.272 L1247.4 982.735 L1250.64 988.145 L1253.89 993.497 L1257.13 998.789 L1260.37 1004.02 L1263.62 1009.18 L1266.86 1014.27 L1270.1 1019.29 L1273.35 1024.23 L1276.59 1029.1 L1279.83 1033.89 L1283.08 1038.6 L1286.32 1043.23 L1289.56 1047.78 L1292.8 1052.25 L1296.05 1056.64 L1299.29 1060.94 L1302.53 1065.17 L1305.78 1069.31 L1309.02 1073.37 L1312.26 1077.36 L1315.51 1081.27 L1318.75 1085.1 L1321.99 1088.87 L1325.23 1092.56 L1328.48 1096.18 L1331.72 1099.73 L1334.96 1103.23 L1338.21 1106.66 L1341.45 1110.04 L1344.69 1113.37 L1347.94 1116.66 L1351.18 1119.9 L1354.42 1123.1 L1357.66 1126.27 L1360.91 1129.41 L1364.15 1132.53 L1367.39 1135.64 L1370.64 1138.73 L1373.88 1141.83 L1377.12 1144.92 L1380.37 1148.02 L1383.61 1151.14 L1386.85 1154.26 L1390.1 1157.4 L1393.34 1160.53 L1396.58 1163.67 L1399.82 1166.81 L1403.07 1169.94 L1406.31 1173.07 L1409.55 1176.18 L1412.8 1179.28 L1416.04 1182.37 L1419.28 1185.44 L1422.53 1188.5 L1425.77 1191.54 L1429.01 1194.56 L1432.25 1197.56 L1435.5 1200.54 L1438.74 1203.51 L1441.98 1206.47 L1445.23 1209.41 L1448.47 1212.34 L1451.71 1215.27 L1454.96 1218.19 L1458.2 1221.1 L1461.44 1224.02 L1464.68 1226.95 L1467.93 1229.89 L1471.17 1232.84 L1474.41 1235.8 L1477.66 1238.76 L1480.9 1241.73 L1484.14 1244.7 L1487.39 1247.66 L1490.63 1250.61 L1493.87 1253.55 L1497.11 1256.48 L1500.36 1259.39 L1503.6 1262.29 L1506.84 1265.17 L1510.09 1268.03 L1513.33 1270.87 L1516.57 1273.7 L1519.82 1276.51 L1523.06 1279.3 L1526.3 1282.08 L1529.55 1284.85 L1532.79 1287.62 L1536.03 1290.38 L1539.27 1293.13 L1542.52 1295.89 L1545.76 1298.64 L1549 1301.4 L1552.25 1304.16 L1555.49 1306.91 L1558.73 1309.67 L1561.98 1312.42 L1565.22 1315.18 L1568.46 1317.94 L1571.7 1320.71 L1574.95 1323.48 L1578.19 1326.26 L1581.43 1329.06 L1584.68 1331.86 L1587.92 1334.69 L1591.16 1337.54 L1594.41 1340.42 L1597.65 1343.32 L1600.89 1346.26 L1604.13 1349.24 L1607.38 1352.27 L1610.62 1355.33 L1613.86 1358.41 L1617.11 1361.52 L1620.35 1364.64 L1623.59 1367.75 L1626.84 1370.87 L1630.08 1373.97 L1633.32 1377.05 L1636.57 1380.11 L1639.81 1383.13 L1643.05 1386.12 L1646.29 1389.06 L1649.54 1391.96 L1652.78 1394.79 L1656.02 1397.57 L1659.27 1400.29 L1662.51 1402.94 L1665.75 1405.52 L1669 1408.02 L1672.24 1410.45 L1675.48 1412.8 L1678.72 1415.06 L1681.97 1417.25 L1685.21 1419.34 L1688.45 1421.36 L1691.7 1423.28 L1694.94 1425.12 L1698.18 1426.86 L1701.43 1428.52 L1704.67 1430.1 L1707.91 1431.58 L1711.15 1432.98 L1714.4 1434.29 L1717.64 1435.52 L1720.88 1436.67 L1724.13 1437.73 L1727.37 1438.72 L1730.61 1439.63 L1733.86 1440.47 L1737.1 1441.24 L1740.34 1441.94 L1743.59 1442.58 L1746.83 1443.16 L1750.07 1443.68 L1753.31 1444.14 L1756.56 1444.55 L1759.8 1444.9 L1763.04 1445.19 L1766.29 1445.41 L1769.53 1445.58 L1772.77 1445.68 L1776.02 1445.72 L1779.26 1445.69 L1782.5 1445.59 L1785.74 1445.43 L1788.99 1445.2 L1792.23 1444.9 L1795.47 1444.54 L1798.72 1444.12 L1801.96 1443.64 L1805.2 1443.09 L1808.45 1442.49 L1811.69 1441.84 L1814.93 1441.13 L1818.17 1440.38 L1821.42 1439.59 L1824.66 1438.77 L1827.9 1437.91 L1831.15 1437.02 L1834.39 1436.12 L1837.63 1435.2 L1840.88 1434.28 L1844.12 1433.36 L1847.36 1432.45 L1850.61 1431.56 L1853.85 1430.68 L1857.09 1429.84 L1860.33 1429.02 L1863.58 1428.23 L1866.82 1427.45 L1870.06 1426.68 L1873.31 1425.93 L1876.55 1425.18 L1879.79 1424.43 L1883.04 1423.67 L1886.28 1422.89 L1889.52 1422.08 L1892.76 1421.24 L1896.01 1420.35 L1899.25 1419.42 L1902.49 1418.42 L1905.74 1417.36 L1908.98 1416.22 L1912.22 1415 L1915.47 1413.7 L1918.71 1412.3 L1921.95 1410.8 L1925.19 1409.2 L1928.44 1407.5 L1931.68 1405.68 L1934.92 1403.74 L1938.17 1401.69 L1941.41 1399.52 L1944.65 1397.22 L1947.9 1394.8 L1951.14 1392.25 L1954.38 1389.57 L1957.63 1386.76 L1960.87 1383.83 L1964.11 1380.77 L1967.35 1377.58 L1970.6 1374.26 L1973.84 1370.83 L1977.08 1367.27 L1980.33 1363.59 L1983.57 1359.8 L1986.81 1355.9 L1990.06 1351.9 L1993.3 1347.79 L1996.54 1343.6 L1999.78 1339.32 L2003.03 1334.97 L2006.27 1330.56 L2009.51 1326.08 L2012.76 1321.57 L2016 1317.03 L2019.24 1312.47 L2022.49 1307.91 L2025.73 1303.38 L2028.97 1298.88 L2032.21 1294.44 L2035.46 1290.07 L2038.7 1285.81 L2041.94 1281.68 L2045.19 1277.69 L2048.43 1273.89 L2051.67 1270.28 L2054.92 1266.89 L2058.16 1263.75 L2061.4 1260.87 L2064.65 1258.27 L2067.89 1255.95 L2071.13 1253.92 L2074.37 1252.17 L2077.62 1250.69 L2080.86 1249.47 L2084.1 1248.5 L2087.35 1247.77 L2090.59 1247.26 L2093.83 1246.97 L2097.08 1246.87 L2100.32 1246.98 L2103.56 1247.26 L2106.8 1247.72 L2110.05 1248.34 L2113.29 1249.12 L2116.53 1250.03 L2119.78 1251.06 L2123.02 1252.19 L2126.26 1253.42 L2129.51 1254.74 L2132.75 1256.12 L2135.99 1257.57 L2139.23 1259.08 L2142.48 1260.63 L2145.72 1262.21 L2148.96 1263.83 L2152.21 1265.47 L2155.45 1267.13 L2158.69 1268.8 L2161.94 1270.48 L2165.18 1272.17 L2168.42 1273.85 L2171.67 1275.53 L2174.91 1277.21 L2178.15 1278.87 L2181.39 1280.52 L2184.64 1282.16 L2187.88 1283.78 L2191.12 1285.38 L2194.37 1286.96 L2197.61 1288.51 L2200.85 1290.05 L2204.1 1291.55 L2207.34 1293.04 L2210.58 1294.49 L2213.82 1295.92 L2217.07 1297.32 L2220.31 1298.69 L2223.55 1300.03 L2226.8 1301.34 L2230.04 1302.62 L2233.28 1303.86 L2236.53 1305.08 L2239.77 1306.27 L2243.01 1307.42 L2246.25 1308.55 L2249.5 1309.64 L2252.74 1310.7 L2255.98 1311.73 L2259.23 1312.73 L2262.47 1313.7 L2265.71 1314.64 L2268.96 1315.55 L2272.2 1316.42 L2275.44 1317.27 L2278.69 1318.09 L2281.93 1318.88 L2285.17 1319.64 L2288.41 1320.37 L2291.66 1321.07 L2291.66 550.528 L2288.41 555.344 L2285.17 560.226 L2281.93 565.175 L2278.69 570.19 L2275.44 575.273 L2272.2 580.424 L2268.96 585.643 L2265.71 590.93 L2262.47 596.286 L2259.23 601.71 L2255.98 607.204 L2252.74 612.766 L2249.5 618.398 L2246.25 624.099 L2243.01 629.87 L2239.77 635.709 L2236.53 641.618 L2233.28 647.595 L2230.04 653.641 L2226.8 659.755 L2223.55 665.937 L2220.31 672.186 L2217.07 678.502 L2213.82 684.884 L2210.58 691.331 L2207.34 697.841 L2204.1 704.415 L2200.85 711.051 L2197.61 717.747 L2194.37 724.502 L2191.12 731.314 L2187.88 738.181 L2184.64 745.101 L2181.39 752.071 L2178.15 759.09 L2174.91 766.154 L2171.67 773.26 L2168.42 780.405 L2165.18 787.584 L2161.94 794.794 L2158.69 802.03 L2155.45 809.287 L2152.21 816.559 L2148.96 823.84 L2145.72 831.125 L2142.48 838.405 L2139.23 845.673 L2135.99 852.92 L2132.75 860.138 L2129.51 867.315 L2126.26 874.442 L2123.02 881.507 L2119.78 888.496 L2116.53 895.397 L2113.29 902.195 L2110.05 908.874 L2106.8 915.419 L2103.56 921.813 L2100.32 928.046 L2097.08 934.108 L2093.83 939.99 L2090.59 945.68 L2087.35 951.166 L2084.1 956.436 L2080.86 961.477 L2077.62 966.277 L2074.37 970.823 L2071.13 975.102 L2067.89 979.103 L2064.65 982.815 L2061.4 986.23 L2058.16 989.349 L2054.92 992.175 L2051.67 994.714 L2048.43 996.977 L2045.19 998.981 L2041.94 1000.75 L2038.7 1002.31 L2035.46 1003.69 L2032.21 1004.91 L2028.97 1005.99 L2025.73 1006.97 L2022.49 1007.85 L2019.24 1008.66 L2016 1009.42 L2012.76 1010.14 L2009.51 1010.85 L2006.27 1011.54 L2003.03 1012.24 L1999.78 1012.95 L1996.54 1013.69 L1993.3 1014.46 L1990.06 1015.28 L1986.81 1016.14 L1983.57 1017.06 L1980.33 1018.03 L1977.08 1019.06 L1973.84 1020.16 L1970.6 1021.33 L1967.35 1022.57 L1964.11 1023.88 L1960.87 1025.26 L1957.63 1026.7 L1954.38 1028.22 L1951.14 1029.8 L1947.9 1031.45 L1944.65 1033.17 L1941.41 1034.94 L1938.17 1036.77 L1934.92 1038.65 L1931.68 1040.57 L1928.44 1042.54 L1925.19 1044.54 L1921.95 1046.57 L1918.71 1048.62 L1915.47 1050.68 L1912.22 1052.75 L1908.98 1054.82 L1905.74 1056.87 L1902.49 1058.89 L1899.25 1060.88 L1896.01 1062.83 L1892.76 1064.72 L1889.52 1066.54 L1886.28 1068.27 L1883.04 1069.91 L1879.79 1071.45 L1876.55 1072.86 L1873.31 1074.14 L1870.06 1075.28 L1866.82 1076.29 L1863.58 1077.17 L1860.33 1077.92 L1857.09 1078.54 L1853.85 1079.03 L1850.61 1079.39 L1847.36 1079.64 L1844.12 1079.77 L1840.88 1079.79 L1837.63 1079.72 L1834.39 1079.56 L1831.15 1079.31 L1827.9 1078.99 L1824.66 1078.6 L1821.42 1078.14 L1818.17 1077.63 L1814.93 1077.05 L1811.69 1076.43 L1808.45 1075.75 L1805.2 1075.03 L1801.96 1074.26 L1798.72 1073.45 L1795.47 1072.59 L1792.23 1071.69 L1788.99 1070.75 L1785.74 1069.77 L1782.5 1068.73 L1779.26 1067.65 L1776.02 1066.51 L1772.77 1065.32 L1769.53 1064.08 L1766.29 1062.77 L1763.04 1061.39 L1759.8 1059.94 L1756.56 1058.42 L1753.31 1056.81 L1750.07 1055.12 L1746.83 1053.33 L1743.59 1051.46 L1740.34 1049.52 L1737.1 1047.51 L1733.86 1045.45 L1730.61 1043.34 L1727.37 1041.19 L1724.13 1039.01 L1720.88 1036.8 L1717.64 1034.59 L1714.4 1032.36 L1711.15 1030.13 L1707.91 1027.91 L1704.67 1025.7 L1701.43 1023.5 L1698.18 1021.33 L1694.94 1019.18 L1691.7 1017.06 L1688.45 1014.97 L1685.21 1012.92 L1681.97 1010.91 L1678.72 1008.94 L1675.48 1007.02 L1672.24 1005.14 L1669 1003.31 L1665.75 1001.53 L1662.51 999.796 L1659.27 998.11 L1656.02 996.471 L1652.78 994.879 L1649.54 993.332 L1646.29 991.827 L1643.05 990.364 L1639.81 988.939 L1636.57 987.549 L1633.32 986.19 L1630.08 984.859 L1626.84 983.55 L1623.59 982.26 L1620.35 980.982 L1617.11 979.712 L1613.86 978.443 L1610.62 977.169 L1607.38 975.883 L1604.13 974.58 L1600.89 973.253 L1597.65 971.9 L1594.41 970.52 L1591.16 969.113 L1587.92 967.676 L1584.68 966.208 L1581.43 964.706 L1578.19 963.169 L1574.95 961.594 L1571.7 959.976 L1568.46 958.313 L1565.22 956.6 L1561.98 954.832 L1558.73 953.004 L1555.49 951.112 L1552.25 949.148 L1549 947.106 L1545.76 944.979 L1542.52 942.76 L1539.27 940.441 L1536.03 938.018 L1532.79 935.493 L1529.55 932.873 L1526.3 930.164 L1523.06 927.371 L1519.82 924.498 L1516.57 921.55 L1513.33 918.532 L1510.09 915.445 L1506.84 912.294 L1503.6 909.08 L1500.36 905.804 L1497.11 902.468 L1493.87 899.073 L1490.63 895.617 L1487.39 892.1 L1484.14 888.522 L1480.9 884.88 L1477.66 881.172 L1474.41 877.395 L1471.17 873.548 L1467.93 869.625 L1464.68 865.626 L1461.44 861.554 L1458.2 857.416 L1454.96 853.217 L1451.71 848.962 L1448.47 844.655 L1445.23 840.302 L1441.98 835.905 L1438.74 831.468 L1435.5 826.994 L1432.25 822.486 L1429.01 817.945 L1425.77 813.372 L1422.53 808.768 L1419.28 804.134 L1416.04 799.47 L1412.8 794.775 L1409.55 790.047 L1406.31 785.286 L1403.07 780.49 L1399.82 775.656 L1396.58 770.781 L1393.34 765.864 L1390.1 760.901 L1386.85 755.888 L1383.61 750.822 L1380.37 745.7 L1377.12 740.52 L1373.88 735.287 L1370.64 730.01 L1367.39 724.695 L1364.15 719.35 L1360.91 713.983 L1357.66 708.599 L1354.42 703.207 L1351.18 697.812 L1347.94 692.421 L1344.69 687.039 L1341.45 681.671 L1338.21 676.325 L1334.96 671.003 L1331.72 665.711 L1328.48 660.452 L1325.23 655.232 L1321.99 650.053 L1318.75 644.919 L1315.51 639.833 L1312.26 634.797 L1309.02 629.814 L1305.78 624.886 L1302.53 620.014 L1299.29 615.2 L1296.05 610.445 L1292.8 605.75 L1289.56 601.116 L1286.32 596.542 L1283.08 592.029 L1279.83 587.576 L1276.59 583.183 L1273.35 578.848 L1270.1 574.571 L1266.86 570.349 L1263.62 566.181 L1260.37 562.065 L1257.13 557.998 L1253.89 553.978 L1250.64 550.001 L1247.4 546.064 L1244.16 542.164 L1240.92 538.296 L1237.67 534.456 L1234.43 530.64 L1231.19 526.842 L1227.94 523.057 L1224.7 519.281 L1221.46 515.507 L1218.21 511.729 L1214.97 507.942 L1211.73 504.138 L1208.49 500.312 L1205.24 496.456 L1202 492.564 L1198.76 488.632 L1195.51 484.663 L1192.27 480.664 L1189.03 476.641 L1185.78 472.6 L1182.54 468.547 L1179.3 464.489 L1176.06 460.429 L1172.81 456.373 L1169.57 452.326 L1166.33 448.291 L1163.08 444.273 L1159.84 440.275 L1156.6 436.3 L1153.35 432.349 L1150.11 428.425 L1146.87 424.528 L1143.62 420.659 L1140.38 416.818 L1137.14 413.003 L1133.9 409.214 L1130.65 405.447 L1127.41 401.701 L1124.17 397.972 L1120.92 394.256 L1117.68 390.548 L1114.44 386.842 L1111.19 383.133 L1107.95 379.414 L1104.71 375.678 L1101.47 371.918 L1098.22 368.126 L1094.98 364.295 L1091.74 360.415 L1088.49 356.481 L1085.25 352.483 L1082.01 348.414 L1078.76 344.267 L1075.52 340.035 L1072.28 335.715 L1069.04 331.304 L1065.79 326.808 L1062.55 322.236 L1059.31 317.596 L1056.06 312.897 L1052.82 308.149 L1049.58 303.359 L1046.33 298.536 L1043.09 293.689 L1039.85 288.827 L1036.6 283.956 L1033.36 279.084 L1030.12 274.219 L1026.88 269.367 L1023.63 264.535 L1020.39 259.727 L1017.15 254.95 L1013.9 250.208 L1010.66 245.506 L1007.42 240.848 L1004.17 236.239 L1000.93 231.681 L997.688 227.179 L994.445 222.734 L991.202 218.349 L987.959 214.028 L984.716 209.771 L981.473 205.581 L978.23 201.459 L974.987 197.408 L971.744 193.428 L968.501 189.52 L965.258 185.686 L962.015 181.925 L958.772 178.24 L955.529 174.63 L952.286 171.096 L949.043 167.638 L945.8 164.257 L942.557 160.953 L939.314 157.726 L936.071 154.575 L932.828 151.501 L929.585 148.505 L926.342 145.585 L923.099 142.741 L919.856 139.974 L916.613 137.283 L913.37 134.668 L910.127 132.129 L906.884 129.665 L903.641 127.275 L900.398 124.961 L897.155 122.72 L893.911 120.554 L890.668 118.46 L887.425 116.44 L884.182 114.493 L880.939 112.617 L877.696 110.814 L874.453 109.082 L871.21 107.421 L867.967 105.831 L864.724 104.311 L861.481 102.861 L858.238 101.481 L854.995 100.169 L851.752 98.9268 L848.509 97.7527 L845.266 96.6468 L842.023 95.6086 L838.78 94.6379 L835.537 93.7343 L832.294 92.8975 L829.051 92.1274 L825.808 91.4235 L822.565 90.7856 L819.322 90.2135 L816.079 89.7069 L812.836 89.2655 L809.593 88.8893 L806.35 88.5778 L803.107 88.331 L799.864 88.1486 L796.621 88.0304 L793.378 87.9763 L790.135 87.986 L786.892 88.0594 L783.648 88.1964 L780.405 88.3967 L777.162 88.6602 L773.919 88.9867 L770.676 89.376 L767.433 89.8281 L764.19 90.3426 L760.947 90.9194 L757.704 91.5584 L754.461 92.2593 L751.218 93.0219 L747.975 93.846 L744.732 94.7314 L741.489 95.6777 L738.246 96.6847 L735.003 97.752 L731.76 98.8794 L728.517 100.066 L725.274 101.313 L722.031 102.618 L718.788 103.981 L715.545 105.402 L712.302 106.88 L709.059 108.415 L705.816 110.006 L702.573 111.651 L699.33 113.351 L696.087 115.103 L692.844 116.908 L689.601 118.765 L686.358 120.671 L683.115 122.625 L679.872 124.627 L676.629 126.674 L673.385 128.766 L670.142 130.899 L666.899 133.073 L663.656 135.286 L660.413 137.534 L657.17 139.816 L653.927 142.13 L650.684 144.472 L647.441 146.839 L644.198 149.23 L640.955 151.64 L637.712 154.066 L634.469 156.506 L631.226 158.954 L627.983 161.408 L624.74 163.863 L621.497 166.316 L618.254 168.763 L615.011 171.198 L611.768 173.619 L608.525 176.02 L605.282 178.398 L602.039 180.751 L598.796 183.08 L595.553 185.392 L592.31 187.69 L589.067 189.98 L585.824 192.266 L582.581 194.554 L579.338 196.846 L576.095 199.149 L572.852 201.465 L569.609 203.798 L566.366 206.151 L563.122 208.528 L559.879 210.931 L556.636 213.361 L553.393 215.821 L550.15 218.31 L546.907 220.83 L543.664 223.38 L540.421 225.96 L537.178 228.567 L533.935 231.199 L530.692 233.854 L527.449 236.528 L524.206 239.216 L520.963 241.914 L517.72 244.615 L514.477 247.314 L511.234 250.003 L507.991 252.674 L504.748 255.32 L501.505 257.931 L498.262 260.497 L495.019 263.012 L491.776 265.469 L488.533 267.866 L485.29 270.196 L482.047 272.458 L478.804 274.645 L475.561 276.753 L472.318 278.777 L469.075 280.713 L465.832 282.555 L462.589 284.299 L459.346 285.941 L456.103 287.483 L452.859 288.928 L449.616 290.277 L446.373 291.536 L443.13 292.715 L439.887 293.824 L436.644 294.876 L433.401 295.881 L430.158 296.85 L426.915 297.792 L423.672 298.717 L420.429 299.633 L417.186 300.548 L413.943 301.47 L410.7 302.406 L407.457 303.361 L404.214 304.341 L400.971 305.35 L397.728 306.393 L394.485 307.472 L391.242 308.591 L387.999 309.752 L384.756 310.956 L381.513 312.205 L378.27 313.499 L375.027 314.837 L371.784 316.22 L368.541 317.646 L365.298 319.114 L362.055 320.621 L358.812 322.166 L355.569 323.745 L352.326 325.355 L349.083 326.992 L345.84 328.653 L342.596 330.331 L339.353 332.023 L336.11 333.723 L332.867 335.424 L329.624 337.122 L326.381 338.808 L323.138 340.476 L319.895 342.12 L316.652 343.73 L313.409 345.3 L310.166 346.821 L306.923 348.284 L303.68 349.682 L300.437 351.005 L297.194 352.243 L293.951 353.389 L290.708 354.433 L287.465 355.365 L284.222 356.177 L280.979 356.859 L277.736 357.402 L274.493 357.8 L271.25 358.057 L268.007 358.178 L264.764 358.17 L261.521 358.039 L258.278 357.791 L255.035 357.433  Z" fill="#3da44d" fill-rule="evenodd" fill-opacity="0.1"/>
<polyline clip-path="url(#clip321)" style="stroke:#3da44d; stroke-linecap:round; stroke-linejoin:round; stroke-width:8; stroke-opacity:1; fill:none" points="255.035,619.022 258.278,616.84 261.521,614.626 264.764,612.379 268.007,610.098 271.25,607.784 274.493,605.436 277.736,603.052 280.979,600.634 284.222,598.181 287.465,595.696 290.708,593.178 293.951,590.63 297.194,588.053 300.437,585.447 303.68,582.815 306.923,580.156 310.166,577.473 313.409,574.766 316.652,572.036 319.895,569.286 323.138,566.515 326.381,563.726 329.624,560.919 332.867,558.095 336.11,555.257 339.353,552.404 342.596,549.538 345.84,546.661 349.083,543.774 352.326,540.878 355.569,537.974 358.812,535.063 362.055,532.148 365.298,529.228 368.541,526.306 371.784,523.383 375.027,520.461 378.27,517.54 381.513,514.622 384.756,511.709 387.999,508.802 391.242,505.903 394.485,503.012 397.728,500.133 400.971,497.266 404.214,494.412 407.457,491.574 410.7,488.754 413.943,485.953 417.186,483.172 420.429,480.414 423.672,477.68 426.915,474.973 430.158,472.293 433.401,469.644 436.644,467.027 439.887,464.445 443.13,461.898 446.373,459.391 449.616,456.923 452.859,454.499 456.103,452.12 459.346,449.788 462.589,447.505 465.832,445.274 469.075,443.095 472.318,440.969 475.561,438.896 478.804,436.878 482.047,434.916 485.29,433.01 488.533,431.162 491.776,429.372 495.019,427.641 498.262,425.972 501.505,424.364 504.748,422.816 507.991,421.328 511.234,419.899 514.477,418.527 517.72,417.21 520.963,415.949 524.206,414.743 527.449,413.589 530.692,412.488 533.935,411.439 537.178,410.44 540.421,409.493 543.664,408.595 546.907,407.747 550.15,406.947 553.393,406.197 556.636,405.494 559.879,404.84 563.122,404.233 566.366,403.675 569.609,403.164 572.852,402.701 576.095,402.285 579.338,401.917 582.581,401.598 585.824,401.327 589.067,401.104 592.31,400.93 595.553,400.806 598.796,400.731 602.039,400.707 605.282,400.734 608.525,400.812 611.768,400.94 615.011,401.115 618.254,401.335 621.497,401.598 624.74,401.902 627.983,402.244 631.226,402.624 634.469,403.039 637.712,403.488 640.955,403.968 644.198,404.478 647.441,405.017 650.684,405.582 653.927,406.172 657.17,406.786 660.413,407.421 663.656,408.078 666.899,408.754 670.142,409.448 673.385,410.159 676.629,410.885 679.872,411.625 683.115,412.379 686.358,413.144 689.601,413.92 692.844,414.706 696.087,415.501 699.33,416.304 702.573,417.114 705.816,417.93 709.059,418.751 712.302,419.576 715.545,420.405 718.788,421.236 722.031,422.069 725.274,422.904 728.517,423.739 731.76,424.574 735.003,425.409 738.246,426.242 741.489,427.074 744.732,427.903 747.975,428.729 751.218,429.552 754.461,430.372 757.704,431.187 760.947,431.998 764.19,432.804 767.433,433.605 770.676,434.4 773.919,435.189 777.162,435.973 780.405,436.75 783.648,437.521 786.892,438.285 790.135,439.042 793.378,439.793 796.621,440.536 799.864,441.272 803.107,442.002 806.35,442.724 809.593,443.439 812.836,444.147 816.079,444.848 819.322,445.542 822.565,446.229 825.808,446.909 829.051,447.583 832.294,448.25 835.537,448.911 838.78,449.565 842.023,450.215 845.266,450.858 848.509,451.497 851.752,452.13 854.995,452.759 858.238,453.384 861.481,454.005 864.724,454.622 867.967,455.237 871.21,455.849 874.453,456.459 877.696,457.068 880.939,457.676 884.182,458.284 887.425,458.892 890.668,459.501 893.911,460.111 897.155,460.724 900.398,461.34 903.641,461.959 906.884,462.584 910.127,463.213 913.37,463.849 916.613,464.491 919.856,465.142 923.099,465.802 926.342,466.471 929.585,467.151 932.828,467.843 936.071,468.548 939.314,469.267 942.557,470.001 945.8,470.752 949.043,471.52 952.286,472.307 955.529,473.113 958.772,473.942 962.015,474.792 965.258,475.667 968.501,476.568 971.744,477.495 974.987,478.451 978.23,479.437 981.473,480.455 984.716,481.506 987.959,482.592 991.202,483.715 994.445,484.876 997.688,486.078 1000.93,487.322 1004.17,488.61 1007.42,489.945 1010.66,491.327 1013.9,492.76 1017.15,494.246 1020.39,495.786 1023.63,497.383 1026.88,499.039 1030.12,500.757 1033.36,502.539 1036.6,504.387 1039.85,506.304 1043.09,508.294 1046.33,510.357 1049.58,512.498 1052.82,514.719 1056.06,517.023 1059.31,519.413 1062.55,521.891 1065.79,524.462 1069.04,527.128 1072.28,529.892 1075.52,532.759 1078.76,535.731 1082.01,538.812 1085.25,541.999 1088.49,545.288 1091.74,548.675 1094.98,552.156 1098.22,555.727 1101.47,559.385 1104.71,563.126 1107.95,566.947 1111.19,570.843 1114.44,574.812 1117.68,578.85 1120.92,582.954 1124.17,587.12 1127.41,591.345 1130.65,595.627 1133.9,599.961 1137.14,604.346 1140.38,608.777 1143.62,613.253 1146.87,617.769 1150.11,622.324 1153.35,626.913 1156.6,631.535 1159.84,636.187 1163.08,640.865 1166.33,645.568 1169.57,650.292 1172.81,655.034 1176.06,659.793 1179.3,664.565 1182.54,669.347 1185.78,674.138 1189.03,678.934 1192.27,683.733 1195.51,688.532 1198.76,693.329 1202,698.121 1205.24,702.906 1208.49,707.683 1211.73,712.453 1214.97,717.215 1218.21,721.969 1221.46,726.716 1224.7,731.455 1227.94,736.185 1231.19,740.908 1234.43,745.623 1237.67,750.329 1240.92,755.028 1244.16,759.718 1247.4,764.4 1250.64,769.073 1253.89,773.737 1257.13,778.393 1260.37,783.04 1263.62,787.679 1266.86,792.308 1270.1,796.928 1273.35,801.539 1276.59,806.14 1279.83,810.732 1283.08,815.314 1286.32,819.886 1289.56,824.448 1292.8,828.999 1296.05,833.54 1299.29,838.07 1302.53,842.59 1305.78,847.098 1309.02,851.594 1312.26,856.079 1315.51,860.552 1318.75,865.012 1321.99,869.46 1325.23,873.894 1328.48,878.315 1331.72,882.723 1334.96,887.116 1338.21,891.494 1341.45,895.858 1344.69,900.206 1347.94,904.538 1351.18,908.854 1354.42,913.153 1357.66,917.434 1360.91,921.697 1364.15,925.941 1367.39,930.167 1370.64,934.372 1373.88,938.556 1377.12,942.72 1380.37,946.861 1383.61,950.979 1386.85,955.075 1390.1,959.149 1393.34,963.199 1396.58,967.227 1399.82,971.233 1403.07,975.216 1406.31,979.176 1409.55,983.114 1412.8,987.029 1416.04,990.92 1419.28,994.788 1422.53,998.633 1425.77,1002.45 1429.01,1006.25 1432.25,1010.02 1435.5,1013.77 1438.74,1017.49 1441.98,1021.19 1445.23,1024.86 1448.47,1028.5 1451.71,1032.11 1454.96,1035.7 1458.2,1039.26 1461.44,1042.79 1464.68,1046.29 1467.93,1049.76 1471.17,1053.19 1474.41,1056.6 1477.66,1059.97 1480.9,1063.31 1484.14,1066.61 1487.39,1069.88 1490.63,1073.11 1493.87,1076.31 1497.11,1079.47 1500.36,1082.6 1503.6,1085.68 1506.84,1088.73 1510.09,1091.74 1513.33,1094.7 1516.57,1097.62 1519.82,1100.5 1523.06,1103.34 1526.3,1106.12 1529.55,1108.86 1532.79,1111.56 1536.03,1114.2 1539.27,1116.79 1542.52,1119.32 1545.76,1121.81 1549,1124.25 1552.25,1126.65 1555.49,1129.01 1558.73,1131.34 1561.98,1133.63 1565.22,1135.89 1568.46,1138.13 1571.7,1140.34 1574.95,1142.54 1578.19,1144.72 1581.43,1146.88 1584.68,1149.04 1587.92,1151.18 1591.16,1153.33 1594.41,1155.47 1597.65,1157.61 1600.89,1159.76 1604.13,1161.91 1607.38,1164.08 1610.62,1166.25 1613.86,1168.43 1617.11,1170.62 1620.35,1172.81 1623.59,1175.01 1626.84,1177.21 1630.08,1179.41 1633.32,1181.62 1636.57,1183.83 1639.81,1186.04 1643.05,1188.24 1646.29,1190.45 1649.54,1192.64 1652.78,1194.84 1656.02,1197.02 1659.27,1199.2 1662.51,1201.37 1665.75,1203.52 1669,1205.67 1672.24,1207.8 1675.48,1209.91 1678.72,1212 1681.97,1214.08 1685.21,1216.13 1688.45,1218.16 1691.7,1220.17 1694.94,1222.15 1698.18,1224.1 1701.43,1226.01 1704.67,1227.9 1707.91,1229.74 1711.15,1231.55 1714.4,1233.32 1717.64,1235.05 1720.88,1236.73 1724.13,1238.37 1727.37,1239.95 1730.61,1241.48 1733.86,1242.96 1737.1,1244.38 1740.34,1245.73 1743.59,1247.02 1746.83,1248.24 1750.07,1249.4 1753.31,1250.48 1756.56,1251.48 1759.8,1252.42 1763.04,1253.29 1766.29,1254.09 1769.53,1254.83 1772.77,1255.5 1776.02,1256.11 1779.26,1256.67 1782.5,1257.16 1785.74,1257.6 1788.99,1257.98 1792.23,1258.3 1795.47,1258.57 1798.72,1258.78 1801.96,1258.95 1805.2,1259.06 1808.45,1259.12 1811.69,1259.13 1814.93,1259.09 1818.17,1259.01 1821.42,1258.87 1824.66,1258.68 1827.9,1258.45 1831.15,1258.17 1834.39,1257.84 1837.63,1257.46 1840.88,1257.04 1844.12,1256.56 1847.36,1256.04 1850.61,1255.47 1853.85,1254.86 1857.09,1254.19 1860.33,1253.47 1863.58,1252.7 1866.82,1251.87 1870.06,1250.98 1873.31,1250.03 1876.55,1249.02 1879.79,1247.94 1883.04,1246.79 1886.28,1245.58 1889.52,1244.31 1892.76,1242.98 1896.01,1241.59 1899.25,1240.15 1902.49,1238.66 1905.74,1237.11 1908.98,1235.52 1912.22,1233.88 1915.47,1232.19 1918.71,1230.46 1921.95,1228.69 1925.19,1226.87 1928.44,1225.02 1931.68,1223.13 1934.92,1221.2 1938.17,1219.23 1941.41,1217.23 1944.65,1215.19 1947.9,1213.13 1951.14,1211.03 1954.38,1208.89 1957.63,1206.73 1960.87,1204.54 1964.11,1202.32 1967.35,1200.07 1970.6,1197.8 1973.84,1195.5 1977.08,1193.17 1980.33,1190.81 1983.57,1188.43 1986.81,1186.02 1990.06,1183.59 1993.3,1181.13 1996.54,1178.65 1999.78,1176.14 2003.03,1173.61 2006.27,1171.05 2009.51,1168.47 2012.76,1165.86 2016,1163.22 2019.24,1160.57 2022.49,1157.88 2025.73,1155.17 2028.97,1152.43 2032.21,1149.67 2035.46,1146.88 2038.7,1144.06 2041.94,1141.21 2045.19,1138.34 2048.43,1135.43 2051.67,1132.5 2054.92,1129.53 2058.16,1126.55 2061.4,1123.55 2064.65,1120.54 2067.89,1117.53 2071.13,1114.51 2074.37,1111.49 2077.62,1108.48 2080.86,1105.47 2084.1,1102.47 2087.35,1099.47 2090.59,1096.47 2093.83,1093.48 2097.08,1090.49 2100.32,1087.51 2103.56,1084.54 2106.8,1081.57 2110.05,1078.61 2113.29,1075.66 2116.53,1072.71 2119.78,1069.78 2123.02,1066.85 2126.26,1063.93 2129.51,1061.03 2132.75,1058.13 2135.99,1055.25 2139.23,1052.38 2142.48,1049.52 2145.72,1046.67 2148.96,1043.83 2152.21,1041.01 2155.45,1038.21 2158.69,1035.42 2161.94,1032.64 2165.18,1029.88 2168.42,1027.13 2171.67,1024.4 2174.91,1021.68 2178.15,1018.98 2181.39,1016.3 2184.64,1013.63 2187.88,1010.98 2191.12,1008.35 2194.37,1005.73 2197.61,1003.13 2200.85,1000.55 2204.1,997.985 2207.34,995.439 2210.58,992.911 2213.82,990.402 2217.07,987.91 2220.31,985.437 2223.55,982.982 2226.8,980.546 2230.04,978.129 2233.28,975.73 2236.53,973.35 2239.77,970.989 2243.01,968.647 2246.25,966.324 2249.5,964.02 2252.74,961.734 2255.98,959.468 2259.23,957.221 2262.47,954.993 2265.71,952.785 2268.96,950.595 2272.2,948.424 2275.44,946.273 2278.69,944.14 2281.93,942.027 2285.17,939.932 2288.41,937.857 2291.66,935.8 "/>
<path clip-path="url(#clip320)" d="M1953.46 302.578 L2280.8 302.578 L2280.8 95.2176 L1953.46 95.2176  Z" fill="#ffffff" fill-rule="evenodd" fill-opacity="1"/>
<polyline clip-path="url(#clip320)" style="stroke:#000000; stroke-linecap:round; stroke-linejoin:round; stroke-width:4; stroke-opacity:1; fill:none" points="1953.46,302.578 2280.8,302.578 2280.8,95.2176 1953.46,95.2176 1953.46,302.578 "/>
<polyline clip-path="url(#clip320)" style="stroke:#009af9; stroke-linecap:round; stroke-linejoin:round; stroke-width:4; stroke-opacity:1; fill:none" points="1977.44,147.058 2121.36,147.058 "/>
<path clip-path="url(#clip320)" d="M2152.76 131.051 L2152.76 138.412 L2161.53 138.412 L2161.53 141.722 L2152.76 141.722 L2152.76 155.796 Q2152.76 158.967 2153.61 159.87 Q2154.49 160.773 2157.16 160.773 L2161.53 160.773 L2161.53 164.338 L2157.16 164.338 Q2152.23 164.338 2150.35 162.509 Q2148.48 160.657 2148.48 155.796 L2148.48 141.722 L2145.35 141.722 L2145.35 138.412 L2148.48 138.412 L2148.48 131.051 L2152.76 131.051 Z" fill="#000000" fill-rule="nonzero" fill-opacity="1" /><path clip-path="url(#clip320)" d="M2182.16 142.393 Q2181.44 141.977 2180.58 141.791 Q2179.75 141.583 2178.73 141.583 Q2175.12 141.583 2173.17 143.944 Q2171.25 146.282 2171.25 150.68 L2171.25 164.338 L2166.97 164.338 L2166.97 138.412 L2171.25 138.412 L2171.25 142.44 Q2172.6 140.078 2174.75 138.944 Q2176.9 137.787 2179.98 137.787 Q2180.42 137.787 2180.95 137.856 Q2181.48 137.903 2182.13 138.018 L2182.16 142.393 Z" fill="#000000" fill-rule="nonzero" fill-opacity="1" /><path clip-path="url(#clip320)" d="M2186.18 154.106 L2186.18 138.412 L2190.44 138.412 L2190.44 153.944 Q2190.44 157.625 2191.88 159.476 Q2193.31 161.305 2196.18 161.305 Q2199.63 161.305 2201.62 159.106 Q2203.64 156.907 2203.64 153.111 L2203.64 138.412 L2207.9 138.412 L2207.9 164.338 L2203.64 164.338 L2203.64 160.356 Q2202.09 162.717 2200.03 163.875 Q2197.99 165.009 2195.28 165.009 Q2190.81 165.009 2188.5 162.231 Q2186.18 159.453 2186.18 154.106 M2196.9 137.787 L2196.9 137.787 Z" fill="#000000" fill-rule="nonzero" fill-opacity="1" /><path clip-path="url(#clip320)" d="M2220.88 131.051 L2220.88 138.412 L2229.66 138.412 L2229.66 141.722 L2220.88 141.722 L2220.88 155.796 Q2220.88 158.967 2221.74 159.87 Q2222.62 160.773 2225.28 160.773 L2229.66 160.773 L2229.66 164.338 L2225.28 164.338 Q2220.35 164.338 2218.48 162.509 Q2216.6 160.657 2216.6 155.796 L2216.6 141.722 L2213.48 141.722 L2213.48 138.412 L2216.6 138.412 L2216.6 131.051 L2220.88 131.051 Z" fill="#000000" fill-rule="nonzero" fill-opacity="1" /><path clip-path="url(#clip320)" d="M2256.81 148.689 L2256.81 164.338 L2252.55 164.338 L2252.55 148.828 Q2252.55 145.148 2251.11 143.319 Q2249.68 141.49 2246.81 141.49 Q2243.36 141.49 2241.37 143.69 Q2239.38 145.889 2239.38 149.685 L2239.38 164.338 L2235.1 164.338 L2235.1 128.319 L2239.38 128.319 L2239.38 142.44 Q2240.91 140.102 2242.97 138.944 Q2245.05 137.787 2247.76 137.787 Q2252.23 137.787 2254.52 140.565 Q2256.81 143.319 2256.81 148.689 Z" fill="#000000" fill-rule="nonzero" fill-opacity="1" /><circle clip-path="url(#clip320)" cx="2049.4" cy="198.898" r="20.48" fill="#e26f46" fill-rule="evenodd" fill-opacity="1" stroke="#000000" stroke-opacity="1" stroke-width="4.55111"/>
<path clip-path="url(#clip320)" d="M2164.26 194.187 L2164.26 180.159 L2168.52 180.159 L2168.52 216.178 L2164.26 216.178 L2164.26 212.289 Q2162.92 214.603 2160.86 215.738 Q2158.82 216.849 2155.95 216.849 Q2151.25 216.849 2148.29 213.099 Q2145.35 209.349 2145.35 203.238 Q2145.35 197.127 2148.29 193.377 Q2151.25 189.627 2155.95 189.627 Q2158.82 189.627 2160.86 190.761 Q2162.92 191.872 2164.26 194.187 M2149.75 203.238 Q2149.75 207.937 2151.67 210.622 Q2153.61 213.284 2156.99 213.284 Q2160.37 213.284 2162.32 210.622 Q2164.26 207.937 2164.26 203.238 Q2164.26 198.539 2162.32 195.877 Q2160.37 193.192 2156.99 193.192 Q2153.61 193.192 2151.67 195.877 Q2149.75 198.539 2149.75 203.238 Z" fill="#000000" fill-rule="nonzero" fill-opacity="1" /><path clip-path="url(#clip320)" d="M2189.08 203.145 Q2183.92 203.145 2181.92 204.326 Q2179.93 205.506 2179.93 208.354 Q2179.93 210.622 2181.42 211.965 Q2182.92 213.284 2185.49 213.284 Q2189.03 213.284 2191.16 210.784 Q2193.31 208.261 2193.31 204.094 L2193.31 203.145 L2189.08 203.145 M2197.57 201.386 L2197.57 216.178 L2193.31 216.178 L2193.31 212.242 Q2191.85 214.603 2189.68 215.738 Q2187.5 216.849 2184.36 216.849 Q2180.37 216.849 2178.01 214.627 Q2175.67 212.381 2175.67 208.631 Q2175.67 204.256 2178.59 202.034 Q2181.53 199.812 2187.34 199.812 L2193.31 199.812 L2193.31 199.395 Q2193.31 196.455 2191.37 194.858 Q2189.45 193.238 2185.95 193.238 Q2183.73 193.238 2181.62 193.77 Q2179.52 194.303 2177.57 195.367 L2177.57 191.432 Q2179.91 190.53 2182.11 190.09 Q2184.31 189.627 2186.39 189.627 Q2192.02 189.627 2194.79 192.543 Q2197.57 195.46 2197.57 201.386 Z" fill="#000000" fill-rule="nonzero" fill-opacity="1" /><path clip-path="url(#clip320)" d="M2210.56 182.891 L2210.56 190.252 L2219.33 190.252 L2219.33 193.562 L2210.56 193.562 L2210.56 207.636 Q2210.56 210.807 2211.42 211.71 Q2212.29 212.613 2214.96 212.613 L2219.33 212.613 L2219.33 216.178 L2214.96 216.178 Q2210.03 216.178 2208.15 214.349 Q2206.28 212.497 2206.28 207.636 L2206.28 193.562 L2203.15 193.562 L2203.15 190.252 L2206.28 190.252 L2206.28 182.891 L2210.56 182.891 Z" fill="#000000" fill-rule="nonzero" fill-opacity="1" /><path clip-path="url(#clip320)" d="M2236.72 203.145 Q2231.55 203.145 2229.56 204.326 Q2227.57 205.506 2227.57 208.354 Q2227.57 210.622 2229.05 211.965 Q2230.56 213.284 2233.13 213.284 Q2236.67 213.284 2238.8 210.784 Q2240.95 208.261 2240.95 204.094 L2240.95 203.145 L2236.72 203.145 M2245.21 201.386 L2245.21 216.178 L2240.95 216.178 L2240.95 212.242 Q2239.49 214.603 2237.32 215.738 Q2235.14 216.849 2231.99 216.849 Q2228.01 216.849 2225.65 214.627 Q2223.31 212.381 2223.31 208.631 Q2223.31 204.256 2226.23 202.034 Q2229.17 199.812 2234.98 199.812 L2240.95 199.812 L2240.95 199.395 Q2240.95 196.455 2239.01 194.858 Q2237.09 193.238 2233.59 193.238 Q2231.37 193.238 2229.26 193.77 Q2227.16 194.303 2225.21 195.367 L2225.21 191.432 Q2227.55 190.53 2229.75 190.09 Q2231.95 189.627 2234.03 189.627 Q2239.66 189.627 2242.43 192.543 Q2245.21 195.46 2245.21 201.386 Z" fill="#000000" fill-rule="nonzero" fill-opacity="1" /><polyline clip-path="url(#clip320)" style="stroke:#3da44d; stroke-linecap:round; stroke-linejoin:round; stroke-width:8; stroke-opacity:1; fill:none" points="1977.44,250.738 2121.36,250.738 "/>
<path clip-path="url(#clip320)" d="M2170.91 263.087 L2170.91 253.805 L2163.27 253.805 L2163.27 249.962 L2175.54 249.962 L2175.54 264.8 Q2172.83 266.721 2169.56 267.717 Q2166.3 268.689 2162.6 268.689 Q2154.49 268.689 2149.91 263.967 Q2145.35 259.221 2145.35 250.772 Q2145.35 242.3 2149.91 237.578 Q2154.49 232.833 2162.6 232.833 Q2165.98 232.833 2169.01 233.666 Q2172.06 234.499 2174.63 236.12 L2174.63 241.096 Q2172.04 238.897 2169.12 237.786 Q2166.21 236.675 2162.99 236.675 Q2156.65 236.675 2153.45 240.217 Q2150.28 243.758 2150.28 250.772 Q2150.28 257.763 2153.45 261.305 Q2156.65 264.846 2162.99 264.846 Q2165.47 264.846 2167.41 264.43 Q2169.36 263.99 2170.91 263.087 Z" fill="#000000" fill-rule="nonzero" fill-opacity="1" /><path clip-path="url(#clip320)" d="M2188.75 237.3 L2188.75 250.286 L2194.63 250.286 Q2197.9 250.286 2199.68 248.596 Q2201.46 246.907 2201.46 243.782 Q2201.46 240.68 2199.68 238.99 Q2197.9 237.3 2194.63 237.3 L2188.75 237.3 M2184.08 233.458 L2194.63 233.458 Q2200.44 233.458 2203.41 236.096 Q2206.39 238.712 2206.39 243.782 Q2206.39 248.897 2203.41 251.513 Q2200.44 254.129 2194.63 254.129 L2188.75 254.129 L2188.75 268.018 L2184.08 268.018 L2184.08 233.458 Z" fill="#000000" fill-rule="nonzero" fill-opacity="1" /></svg>
