<?xml version="1.0" encoding="utf-8"?>
<svg xmlns="http://www.w3.org/2000/svg" xmlns:xlink="http://www.w3.org/1999/xlink" width="600" height="400" viewBox="0 0 2400 1600">
<defs>
  <clipPath id="clip290">
    <rect x="0" y="0" width="2400" height="1600"/>
  </clipPath>
</defs>
<path clip-path="url(#clip290)" d="M0 1600 L2400 1600 L2400 0 L0 0  Z" fill="#ffffff" fill-rule="evenodd" fill-opacity="1"/>
<defs>
  <clipPath id="clip291">
    <rect x="193" y="47" width="2160" height="1440"/>
  </clipPath>
</defs>
<path clip-path="url(#clip290)" d="M193.936 1486.45 L2352.76 1486.45 L2352.76 47.2441 L193.936 47.2441  Z" fill="#ffffff" fill-rule="evenodd" fill-opacity="1"/>
<polyline clip-path="url(#clip291)" style="stroke:#000000; stroke-linecap:round; stroke-linejoin:round; stroke-width:2; stroke-opacity:0.1; fill:none" points="255.035,1486.45 255.035,47.2441 "/>
<polyline clip-path="url(#clip291)" style="stroke:#000000; stroke-linecap:round; stroke-linejoin:round; stroke-width:2; stroke-opacity:0.1; fill:none" points="579.338,1486.45 579.338,47.2441 "/>
<polyline clip-path="url(#clip291)" style="stroke:#000000; stroke-linecap:round; stroke-linejoin:round; stroke-width:2; stroke-opacity:0.1; fill:none" points="903.641,1486.45 903.641,47.2441 "/>
<polyline clip-path="url(#clip291)" style="stroke:#000000; stroke-linecap:round; stroke-linejoin:round; stroke-width:2; stroke-opacity:0.1; fill:none" points="1227.94,1486.45 1227.94,47.2441 "/>
<polyline clip-path="url(#clip291)" style="stroke:#000000; stroke-linecap:round; stroke-linejoin:round; stroke-width:2; stroke-opacity:0.1; fill:none" points="1552.25,1486.45 1552.25,47.2441 "/>
<polyline clip-path="url(#clip291)" style="stroke:#000000; stroke-linecap:round; stroke-linejoin:round; stroke-width:2; stroke-opacity:0.1; fill:none" points="1876.55,1486.45 1876.55,47.2441 "/>
<polyline clip-path="url(#clip291)" style="stroke:#000000; stroke-linecap:round; stroke-linejoin:round; stroke-width:2; stroke-opacity:0.1; fill:none" points="2200.85,1486.45 2200.85,47.2441 "/>
<polyline clip-path="url(#clip291)" style="stroke:#000000; stroke-linecap:round; stroke-linejoin:round; stroke-width:2; stroke-opacity:0.1; fill:none" points="193.936,1355.32 2352.76,1355.32 "/>
<polyline clip-path="url(#clip291)" style="stroke:#000000; stroke-linecap:round; stroke-linejoin:round; stroke-width:2; stroke-opacity:0.1; fill:none" points="193.936,1038.48 2352.76,1038.48 "/>
<polyline clip-path="url(#clip291)" style="stroke:#000000; stroke-linecap:round; stroke-linejoin:round; stroke-width:2; stroke-opacity:0.1; fill:none" points="193.936,721.646 2352.76,721.646 "/>
<polyline clip-path="url(#clip291)" style="stroke:#000000; stroke-linecap:round; stroke-linejoin:round; stroke-width:2; stroke-opacity:0.1; fill:none" points="193.936,404.811 2352.76,404.811 "/>
<polyline clip-path="url(#clip291)" style="stroke:#000000; stroke-linecap:round; stroke-linejoin:round; stroke-width:2; stroke-opacity:0.1; fill:none" points="193.936,87.9761 2352.76,87.9761 "/>
<polyline clip-path="url(#clip290)" style="stroke:#000000; stroke-linecap:round; stroke-linejoin:round; stroke-width:4; stroke-opacity:1; fill:none" points="193.936,1486.45 2352.76,1486.45 "/>
<polyline clip-path="url(#clip290)" style="stroke:#000000; stroke-linecap:round; stroke-linejoin:round; stroke-width:4; stroke-opacity:1; fill:none" points="255.035,1486.45 255.035,1467.55 "/>
<polyline clip-path="url(#clip290)" style="stroke:#000000; stroke-linecap:round; stroke-linejoin:round; stroke-width:4; stroke-opacity:1; fill:none" points="579.338,1486.45 579.338,1467.55 "/>
<polyline clip-path="url(#clip290)" style="stroke:#000000; stroke-linecap:round; stroke-linejoin:round; stroke-width:4; stroke-opacity:1; fill:none" points="903.641,1486.45 903.641,1467.55 "/>
<polyline clip-path="url(#clip290)" style="stroke:#000000; stroke-linecap:round; stroke-linejoin:round; stroke-width:4; stroke-opacity:1; fill:none" points="1227.94,1486.45 1227.94,1467.55 "/>
<polyline clip-path="url(#clip290)" style="stroke:#000000; stroke-linecap:round; stroke-linejoin:round; stroke-width:4; stroke-opacity:1; fill:none" points="1552.25,1486.45 1552.25,1467.55 "/>
<polyline clip-path="url(#clip290)" style="stroke:#000000; stroke-linecap:round; stroke-linejoin:round; stroke-width:4; stroke-opacity:1; fill:none" points="1876.55,1486.45 1876.55,1467.55 "/>
<polyline clip-path="url(#clip290)" style="stroke:#000000; stroke-linecap:round; stroke-linejoin:round; stroke-width:4; stroke-opacity:1; fill:none" points="2200.85,1486.45 2200.85,1467.55 "/>
<path clip-path="url(#clip290)" d="M255.035 1517.37 Q251.424 1517.37 249.595 1520.93 Q247.789 1524.47 247.789 1531.6 Q247.789 1538.71 249.595 1542.27 Q251.424 1545.82 255.035 1545.82 Q258.669 1545.82 260.474 1542.27 Q262.303 1538.71 262.303 1531.6 Q262.303 1524.47 260.474 1520.93 Q258.669 1517.37 255.035 1517.37 M255.035 1513.66 Q260.845 1513.66 263.9 1518.27 Q266.979 1522.85 266.979 1531.6 Q266.979 1540.33 263.9 1544.94 Q260.845 1549.52 255.035 1549.52 Q249.225 1549.52 246.146 1544.94 Q243.09 1540.33 243.09 1531.6 Q243.09 1522.85 246.146 1518.27 Q249.225 1513.66 255.035 1513.66 Z" fill="#000000" fill-rule="nonzero" fill-opacity="1" /><path clip-path="url(#clip290)" d="M569.72 1544.91 L577.358 1544.91 L577.358 1518.55 L569.048 1520.21 L569.048 1515.95 L577.312 1514.29 L581.988 1514.29 L581.988 1544.91 L589.627 1544.91 L589.627 1548.85 L569.72 1548.85 L569.72 1544.91 Z" fill="#000000" fill-rule="nonzero" fill-opacity="1" /><path clip-path="url(#clip290)" d="M898.293 1544.91 L914.613 1544.91 L914.613 1548.85 L892.668 1548.85 L892.668 1544.91 Q895.33 1542.16 899.914 1537.53 Q904.52 1532.88 905.701 1531.53 Q907.946 1529.01 908.826 1527.27 Q909.729 1525.51 909.729 1523.82 Q909.729 1521.07 907.784 1519.33 Q905.863 1517.6 902.761 1517.6 Q900.562 1517.6 898.108 1518.36 Q895.678 1519.13 892.9 1520.68 L892.9 1515.95 Q895.724 1514.82 898.178 1514.24 Q900.631 1513.66 902.668 1513.66 Q908.039 1513.66 911.233 1516.35 Q914.428 1519.03 914.428 1523.52 Q914.428 1525.65 913.617 1527.57 Q912.83 1529.47 910.724 1532.07 Q910.145 1532.74 907.043 1535.95 Q903.942 1539.15 898.293 1544.91 Z" fill="#000000" fill-rule="nonzero" fill-opacity="1" /><path clip-path="url(#clip290)" d="M1232.19 1530.21 Q1235.55 1530.93 1237.42 1533.2 Q1239.32 1535.47 1239.32 1538.8 Q1239.32 1543.92 1235.8 1546.72 Q1232.28 1549.52 1225.8 1549.52 Q1223.63 1549.52 1221.31 1549.08 Q1219.02 1548.66 1216.57 1547.81 L1216.57 1543.29 Q1218.51 1544.43 1220.83 1545.01 Q1223.14 1545.58 1225.66 1545.58 Q1230.06 1545.58 1232.35 1543.85 Q1234.67 1542.11 1234.67 1538.8 Q1234.67 1535.75 1232.52 1534.03 Q1230.39 1532.3 1226.57 1532.3 L1222.54 1532.3 L1222.54 1528.45 L1226.75 1528.45 Q1230.2 1528.45 1232.03 1527.09 Q1233.86 1525.7 1233.86 1523.11 Q1233.86 1520.45 1231.96 1519.03 Q1230.08 1517.6 1226.57 1517.6 Q1224.64 1517.6 1222.45 1518.01 Q1220.25 1518.43 1217.61 1519.31 L1217.61 1515.14 Q1220.27 1514.4 1222.58 1514.03 Q1224.92 1513.66 1226.98 1513.66 Q1232.31 1513.66 1235.41 1516.09 Q1238.51 1518.5 1238.51 1522.62 Q1238.51 1525.49 1236.87 1527.48 Q1235.22 1529.45 1232.19 1530.21 Z" fill="#000000" fill-rule="nonzero" fill-opacity="1" /><path clip-path="url(#clip290)" d="M1555.26 1518.36 L1543.45 1536.81 L1555.26 1536.81 L1555.26 1518.36 M1554.03 1514.29 L1559.91 1514.29 L1559.91 1536.81 L1564.84 1536.81 L1564.84 1540.7 L1559.91 1540.7 L1559.91 1548.85 L1555.26 1548.85 L1555.26 1540.7 L1539.65 1540.7 L1539.65 1536.19 L1554.03 1514.29 Z" fill="#000000" fill-rule="nonzero" fill-opacity="1" /><path clip-path="url(#clip290)" d="M1866.83 1514.29 L1885.18 1514.29 L1885.18 1518.22 L1871.11 1518.22 L1871.11 1526.7 Q1872.13 1526.35 1873.15 1526.19 Q1874.17 1526 1875.18 1526 Q1880.97 1526 1884.35 1529.17 Q1887.73 1532.34 1887.73 1537.76 Q1887.73 1543.34 1884.26 1546.44 Q1880.79 1549.52 1874.47 1549.52 Q1872.29 1549.52 1870.02 1549.15 Q1867.78 1548.78 1865.37 1548.04 L1865.37 1543.34 Q1867.45 1544.47 1869.67 1545.03 Q1871.9 1545.58 1874.37 1545.58 Q1878.38 1545.58 1880.72 1543.48 Q1883.05 1541.37 1883.05 1537.76 Q1883.05 1534.15 1880.72 1532.04 Q1878.38 1529.94 1874.37 1529.94 Q1872.5 1529.94 1870.62 1530.35 Q1868.77 1530.77 1866.83 1531.65 L1866.83 1514.29 Z" fill="#000000" fill-rule="nonzero" fill-opacity="1" /><path clip-path="url(#clip290)" d="M2201.26 1529.7 Q2198.11 1529.7 2196.26 1531.86 Q2194.43 1534.01 2194.43 1537.76 Q2194.43 1541.49 2196.26 1543.66 Q2198.11 1545.82 2201.26 1545.82 Q2204.41 1545.82 2206.23 1543.66 Q2208.09 1541.49 2208.09 1537.76 Q2208.09 1534.01 2206.23 1531.86 Q2204.41 1529.7 2201.26 1529.7 M2210.54 1515.05 L2210.54 1519.31 Q2208.78 1518.48 2206.98 1518.04 Q2205.19 1517.6 2203.43 1517.6 Q2198.8 1517.6 2196.35 1520.72 Q2193.92 1523.85 2193.57 1530.17 Q2194.94 1528.15 2197 1527.09 Q2199.06 1526 2201.54 1526 Q2206.74 1526 2209.75 1529.17 Q2212.79 1532.32 2212.79 1537.76 Q2212.79 1543.08 2209.64 1546.3 Q2206.49 1549.52 2201.26 1549.52 Q2195.26 1549.52 2192.09 1544.94 Q2188.92 1540.33 2188.92 1531.6 Q2188.92 1523.41 2192.81 1518.55 Q2196.7 1513.66 2203.25 1513.66 Q2205.01 1513.66 2206.79 1514.01 Q2208.6 1514.36 2210.54 1515.05 Z" fill="#000000" fill-rule="nonzero" fill-opacity="1" /><polyline clip-path="url(#clip290)" style="stroke:#000000; stroke-linecap:round; stroke-linejoin:round; stroke-width:4; stroke-opacity:1; fill:none" points="193.936,1486.45 193.936,47.2441 "/>
<polyline clip-path="url(#clip290)" style="stroke:#000000; stroke-linecap:round; stroke-linejoin:round; stroke-width:4; stroke-opacity:1; fill:none" points="193.936,1355.32 212.834,1355.32 "/>
<polyline clip-path="url(#clip290)" style="stroke:#000000; stroke-linecap:round; stroke-linejoin:round; stroke-width:4; stroke-opacity:1; fill:none" points="193.936,1038.48 212.834,1038.48 "/>
<polyline clip-path="url(#clip290)" style="stroke:#000000; stroke-linecap:round; stroke-linejoin:round; stroke-width:4; stroke-opacity:1; fill:none" points="193.936,721.646 212.834,721.646 "/>
<polyline clip-path="url(#clip290)" style="stroke:#000000; stroke-linecap:round; stroke-linejoin:round; stroke-width:4; stroke-opacity:1; fill:none" points="193.936,404.811 212.834,404.811 "/>
<polyline clip-path="url(#clip290)" style="stroke:#000000; stroke-linecap:round; stroke-linejoin:round; stroke-width:4; stroke-opacity:1; fill:none" points="193.936,87.9761 212.834,87.9761 "/>
<path clip-path="url(#clip290)" d="M50.9921 1355.77 L80.6679 1355.77 L80.6679 1359.7 L50.9921 1359.7 L50.9921 1355.77 Z" fill="#000000" fill-rule="nonzero" fill-opacity="1" /><path clip-path="url(#clip290)" d="M91.5706 1368.66 L99.2095 1368.66 L99.2095 1342.3 L90.8993 1343.96 L90.8993 1339.7 L99.1632 1338.04 L103.839 1338.04 L103.839 1368.66 L111.478 1368.66 L111.478 1372.6 L91.5706 1372.6 L91.5706 1368.66 Z" fill="#000000" fill-rule="nonzero" fill-opacity="1" /><path clip-path="url(#clip290)" d="M120.922 1366.72 L125.807 1366.72 L125.807 1372.6 L120.922 1372.6 L120.922 1366.72 Z" fill="#000000" fill-rule="nonzero" fill-opacity="1" /><path clip-path="url(#clip290)" d="M145.992 1341.12 Q142.381 1341.12 140.552 1344.68 Q138.746 1348.22 138.746 1355.35 Q138.746 1362.46 140.552 1366.02 Q142.381 1369.56 145.992 1369.56 Q149.626 1369.56 151.431 1366.02 Q153.26 1362.46 153.26 1355.35 Q153.26 1348.22 151.431 1344.68 Q149.626 1341.12 145.992 1341.12 M145.992 1337.41 Q151.802 1337.41 154.857 1342.02 Q157.936 1346.6 157.936 1355.35 Q157.936 1364.08 154.857 1368.68 Q151.802 1373.27 145.992 1373.27 Q140.181 1373.27 137.103 1368.68 Q134.047 1364.08 134.047 1355.35 Q134.047 1346.6 137.103 1342.02 Q140.181 1337.41 145.992 1337.41 Z" fill="#000000" fill-rule="nonzero" fill-opacity="1" /><path clip-path="url(#clip290)" d="M51.9875 1038.93 L81.6633 1038.93 L81.6633 1042.87 L51.9875 1042.87 L51.9875 1038.93 Z" fill="#000000" fill-rule="nonzero" fill-opacity="1" /><path clip-path="url(#clip290)" d="M101.756 1024.28 Q98.1447 1024.28 96.316 1027.84 Q94.5104 1031.39 94.5104 1038.52 Q94.5104 1045.62 96.316 1049.19 Q98.1447 1052.73 101.756 1052.73 Q105.39 1052.73 107.196 1049.19 Q109.024 1045.62 109.024 1038.52 Q109.024 1031.39 107.196 1027.84 Q105.39 1024.28 101.756 1024.28 M101.756 1020.58 Q107.566 1020.58 110.621 1025.18 Q113.7 1029.77 113.7 1038.52 Q113.7 1047.24 110.621 1051.85 Q107.566 1056.43 101.756 1056.43 Q95.9456 1056.43 92.8669 1051.85 Q89.8114 1047.24 89.8114 1038.52 Q89.8114 1029.77 92.8669 1025.18 Q95.9456 1020.58 101.756 1020.58 Z" fill="#000000" fill-rule="nonzero" fill-opacity="1" /><path clip-path="url(#clip290)" d="M121.918 1049.88 L126.802 1049.88 L126.802 1055.76 L121.918 1055.76 L121.918 1049.88 Z" fill="#000000" fill-rule="nonzero" fill-opacity="1" /><path clip-path="url(#clip290)" d="M137.033 1021.2 L155.39 1021.2 L155.39 1025.14 L141.316 1025.14 L141.316 1033.61 Q142.334 1033.26 143.353 1033.1 Q144.371 1032.91 145.39 1032.91 Q151.177 1032.91 154.556 1036.09 Q157.936 1039.26 157.936 1044.67 Q157.936 1050.25 154.464 1053.35 Q150.992 1056.43 144.672 1056.43 Q142.496 1056.43 140.228 1056.06 Q137.982 1055.69 135.575 1054.95 L135.575 1050.25 Q137.658 1051.39 139.881 1051.94 Q142.103 1052.5 144.58 1052.5 Q148.584 1052.5 150.922 1050.39 Q153.26 1048.28 153.26 1044.67 Q153.26 1041.06 150.922 1038.96 Q148.584 1036.85 144.58 1036.85 Q142.705 1036.85 140.83 1037.27 Q138.978 1037.68 137.033 1038.56 L137.033 1021.2 Z" fill="#000000" fill-rule="nonzero" fill-opacity="1" /><path clip-path="url(#clip290)" d="M100.76 707.445 Q97.1493 707.445 95.3206 711.01 Q93.515 714.551 93.515 721.681 Q93.515 728.787 95.3206 732.352 Q97.1493 735.894 100.76 735.894 Q104.395 735.894 106.2 732.352 Q108.029 728.787 108.029 721.681 Q108.029 714.551 106.2 711.01 Q104.395 707.445 100.76 707.445 M100.76 703.741 Q106.571 703.741 109.626 708.348 Q112.705 712.931 112.705 721.681 Q112.705 730.408 109.626 735.014 Q106.571 739.598 100.76 739.598 Q94.9502 739.598 91.8715 735.014 Q88.816 730.408 88.816 721.681 Q88.816 712.931 91.8715 708.348 Q94.9502 703.741 100.76 703.741 Z" fill="#000000" fill-rule="nonzero" fill-opacity="1" /><path clip-path="url(#clip290)" d="M120.922 733.047 L125.807 733.047 L125.807 738.926 L120.922 738.926 L120.922 733.047 Z" fill="#000000" fill-rule="nonzero" fill-opacity="1" /><path clip-path="url(#clip290)" d="M145.992 707.445 Q142.381 707.445 140.552 711.01 Q138.746 714.551 138.746 721.681 Q138.746 728.787 140.552 732.352 Q142.381 735.894 145.992 735.894 Q149.626 735.894 151.431 732.352 Q153.26 728.787 153.26 721.681 Q153.26 714.551 151.431 711.01 Q149.626 707.445 145.992 707.445 M145.992 703.741 Q151.802 703.741 154.857 708.348 Q157.936 712.931 157.936 721.681 Q157.936 730.408 154.857 735.014 Q151.802 739.598 145.992 739.598 Q140.181 739.598 137.103 735.014 Q134.047 730.408 134.047 721.681 Q134.047 712.931 137.103 708.348 Q140.181 703.741 145.992 703.741 Z" fill="#000000" fill-rule="nonzero" fill-opacity="1" /><path clip-path="url(#clip290)" d="M101.756 390.61 Q98.1447 390.61 96.316 394.175 Q94.5104 397.716 94.5104 404.846 Q94.5104 411.952 96.316 415.517 Q98.1447 419.059 101.756 419.059 Q105.39 419.059 107.196 415.517 Q109.024 411.952 109.024 404.846 Q109.024 397.716 107.196 394.175 Q105.39 390.61 101.756 390.61 M101.756 386.906 Q107.566 386.906 110.621 391.513 Q113.7 396.096 113.7 404.846 Q113.7 413.573 110.621 418.179 Q107.566 422.762 101.756 422.762 Q95.9456 422.762 92.8669 418.179 Q89.8114 413.573 89.8114 404.846 Q89.8114 396.096 92.8669 391.513 Q95.9456 386.906 101.756 386.906 Z" fill="#000000" fill-rule="nonzero" fill-opacity="1" /><path clip-path="url(#clip290)" d="M121.918 416.212 L126.802 416.212 L126.802 422.091 L121.918 422.091 L121.918 416.212 Z" fill="#000000" fill-rule="nonzero" fill-opacity="1" /><path clip-path="url(#clip290)" d="M137.033 387.531 L155.39 387.531 L155.39 391.466 L141.316 391.466 L141.316 399.939 Q142.334 399.591 143.353 399.429 Q144.371 399.244 145.39 399.244 Q151.177 399.244 154.556 402.415 Q157.936 405.587 157.936 411.003 Q157.936 416.582 154.464 419.684 Q150.992 422.762 144.672 422.762 Q142.496 422.762 140.228 422.392 Q137.982 422.022 135.575 421.281 L135.575 416.582 Q137.658 417.716 139.881 418.272 Q142.103 418.827 144.58 418.827 Q148.584 418.827 150.922 416.721 Q153.26 414.614 153.26 411.003 Q153.26 407.392 150.922 405.286 Q148.584 403.179 144.58 403.179 Q142.705 403.179 140.83 403.596 Q138.978 404.013 137.033 404.892 L137.033 387.531 Z" fill="#000000" fill-rule="nonzero" fill-opacity="1" /><path clip-path="url(#clip290)" d="M91.5706 101.321 L99.2095 101.321 L99.2095 74.9553 L90.8993 76.622 L90.8993 72.3627 L99.1632 70.6961 L103.839 70.6961 L103.839 101.321 L111.478 101.321 L111.478 105.256 L91.5706 105.256 L91.5706 101.321 Z" fill="#000000" fill-rule="nonzero" fill-opacity="1" /><path clip-path="url(#clip290)" d="M120.922 99.3765 L125.807 99.3765 L125.807 105.256 L120.922 105.256 L120.922 99.3765 Z" fill="#000000" fill-rule="nonzero" fill-opacity="1" /><path clip-path="url(#clip290)" d="M145.992 73.7748 Q142.381 73.7748 140.552 77.3396 Q138.746 80.8812 138.746 88.0108 Q138.746 95.1172 140.552 98.682 Q142.381 102.224 145.992 102.224 Q149.626 102.224 151.431 98.682 Q153.26 95.1172 153.26 88.0108 Q153.26 80.8812 151.431 77.3396 Q149.626 73.7748 145.992 73.7748 M145.992 70.0711 Q151.802 70.0711 154.857 74.6775 Q157.936 79.2608 157.936 88.0108 Q157.936 96.7376 154.857 101.344 Q151.802 105.927 145.992 105.927 Q140.181 105.927 137.103 101.344 Q134.047 96.7376 134.047 88.0108 Q134.047 79.2608 137.103 74.6775 Q140.181 70.0711 145.992 70.0711 Z" fill="#000000" fill-rule="nonzero" fill-opacity="1" /><polyline clip-path="url(#clip291)" style="stroke:#009af9; stroke-linecap:round; stroke-linejoin:round; stroke-width:4; stroke-opacity:1; fill:none" points="255.035,721.646 258.278,715.31 261.521,708.974 264.764,702.639 268.007,696.306 271.25,689.976 274.493,683.649 277.736,677.326 280.979,671.007 284.222,664.693 287.465,658.385 290.708,652.083 293.951,645.788 297.194,639.501 300.437,633.222 303.68,626.952 306.923,620.691 310.166,614.44 313.409,608.201 316.652,601.972 319.895,595.755 323.138,589.551 326.381,583.361 329.624,577.184 332.867,571.021 336.11,564.874 339.353,558.742 342.596,552.627 345.84,546.528 349.083,540.447 352.326,534.384 355.569,528.34 358.812,522.315 362.055,516.31 365.298,510.325 368.541,504.362 371.784,498.421 375.027,492.501 378.27,486.605 381.513,480.732 384.756,474.883 387.999,469.059 391.242,463.261 394.485,457.488 397.728,451.741 400.971,446.022 404.214,440.33 407.457,434.666 410.7,429.031 413.943,423.425 417.186,417.849 420.429,412.303 423.672,406.788 426.915,401.305 430.158,395.854 433.401,390.435 436.644,385.049 439.887,379.698 443.13,374.38 446.373,369.097 449.616,363.849 452.859,358.637 456.103,353.462 459.346,348.323 462.589,343.221 465.832,338.158 469.075,333.132 472.318,328.146 475.561,323.199 478.804,318.292 482.047,313.425 485.29,308.599 488.533,303.814 491.776,299.071 495.019,294.37 498.262,289.712 501.505,285.097 504.748,280.526 507.991,275.999 511.234,271.517 514.477,267.079 517.72,262.687 520.963,258.341 524.206,254.041 527.449,249.788 530.692,245.582 533.935,241.424 537.178,237.314 540.421,233.252 543.664,229.239 546.907,225.275 550.15,221.361 553.393,217.497 556.636,213.684 559.879,209.921 563.122,206.209 566.366,202.549 569.609,198.941 572.852,195.385 576.095,191.882 579.338,188.431 582.581,185.034 585.824,181.691 589.067,178.401 592.31,175.166 595.553,171.986 598.796,168.861 602.039,165.79 605.282,162.776 608.525,159.817 611.768,156.915 615.011,154.069 618.254,151.279 621.497,148.547 624.74,145.872 627.983,143.255 631.226,140.695 634.469,138.194 637.712,135.751 640.955,133.367 644.198,131.041 647.441,128.774 650.684,126.567 653.927,124.419 657.17,122.331 660.413,120.303 663.656,118.335 666.899,116.427 670.142,114.58 673.385,112.794 676.629,111.068 679.872,109.404 683.115,107.8 686.358,106.258 689.601,104.778 692.844,103.359 696.087,102.003 699.33,100.708 702.573,99.475 705.816,98.3044 709.059,97.1961 712.302,96.1504 715.545,95.1671 718.788,94.2465 722.031,93.3887 725.274,92.5936 728.517,91.8615 731.76,91.1924 735.003,90.5863 738.246,90.0433 741.489,89.5634 744.732,89.1468 747.975,88.7934 751.218,88.5033 754.461,88.2765 757.704,88.1131 760.947,88.013 764.19,87.9763 767.433,88.0029 770.676,88.0929 773.919,88.2463 777.162,88.463 780.405,88.743 783.648,89.0863 786.892,89.4928 790.135,89.9626 793.378,90.4956 796.621,91.0916 799.864,91.7507 803.107,92.4728 806.35,93.2578 809.593,94.1057 812.836,95.0163 816.079,95.9896 819.322,97.0254 822.565,98.1237 825.808,99.2844 829.051,100.507 832.294,101.792 835.537,103.139 838.78,104.548 842.023,106.019 845.266,107.551 848.509,109.144 851.752,110.799 854.995,112.515 858.238,114.292 861.481,116.129 864.724,118.027 867.967,119.986 871.21,122.004 874.453,124.083 877.696,126.221 880.939,128.419 884.182,130.676 887.425,132.992 890.668,135.367 893.911,137.801 897.155,140.293 900.398,142.843 903.641,145.452 906.884,148.117 910.127,150.84 913.37,153.621 916.613,156.458 919.856,159.351 923.099,162.301 926.342,165.307 929.585,168.368 932.828,171.485 936.071,174.656 939.314,177.883 942.557,181.163 945.8,184.498 949.043,187.887 952.286,191.328 955.529,194.823 958.772,198.371 962.015,201.971 965.258,205.623 968.501,209.326 971.744,213.081 974.987,216.886 978.23,220.743 981.473,224.649 984.716,228.604 987.959,232.61 991.202,236.664 994.445,240.766 997.688,244.917 1000.93,249.115 1004.17,253.361 1007.42,257.653 1010.66,261.992 1013.9,266.377 1017.15,270.807 1020.39,275.282 1023.63,279.802 1026.88,284.366 1030.12,288.974 1033.36,293.625 1036.6,298.319 1039.85,303.056 1043.09,307.834 1046.33,312.653 1049.58,317.514 1052.82,322.415 1056.06,327.355 1059.31,332.336 1062.55,337.355 1065.79,342.412 1069.04,347.508 1072.28,352.641 1075.52,357.811 1078.76,363.017 1082.01,368.259 1085.25,373.536 1088.49,378.848 1091.74,384.195 1094.98,389.575 1098.22,394.988 1101.47,400.435 1104.71,405.913 1107.95,411.423 1111.19,416.963 1114.44,422.535 1117.68,428.136 1120.92,433.766 1124.17,439.426 1127.41,445.113 1130.65,450.828 1133.9,456.571 1137.14,462.339 1140.38,468.134 1143.62,473.954 1146.87,479.799 1150.11,485.668 1153.35,491.561 1156.6,497.476 1159.84,503.414 1163.08,509.374 1166.33,515.355 1169.57,521.357 1172.81,527.379 1176.06,533.42 1179.3,539.48 1182.54,545.558 1185.78,551.654 1189.03,557.767 1192.27,563.896 1195.51,570.041 1198.76,576.201 1202,582.376 1205.24,588.565 1208.49,594.767 1211.73,600.981 1214.97,607.208 1218.21,613.446 1221.46,619.695 1224.7,625.954 1227.94,632.223 1231.19,638.5 1234.43,644.786 1237.67,651.08 1240.92,657.381 1244.16,663.688 1247.4,670.001 1250.64,676.319 1253.89,682.642 1257.13,688.968 1260.37,695.298 1263.62,701.63 1266.86,707.965 1270.1,714.301 1273.35,720.637 1276.59,726.974 1279.83,733.31 1283.08,739.645 1286.32,745.978 1289.56,752.309 1292.8,758.636 1296.05,764.96 1299.29,771.28 1302.53,777.594 1305.78,783.904 1309.02,790.206 1312.26,796.502 1315.51,802.791 1318.75,809.071 1321.99,815.343 1325.23,821.605 1328.48,827.857 1331.72,834.099 1334.96,840.329 1338.21,846.548 1341.45,852.754 1344.69,858.947 1347.94,865.126 1351.18,871.291 1354.42,877.441 1357.66,883.575 1360.91,889.693 1364.15,895.795 1367.39,901.878 1370.64,907.944 1373.88,913.992 1377.12,920.02 1380.37,926.028 1383.61,932.015 1386.85,937.982 1390.1,943.927 1393.34,949.85 1396.58,955.75 1399.82,961.627 1403.07,967.479 1406.31,973.307 1409.55,979.11 1412.8,984.887 1416.04,990.638 1419.28,996.362 1422.53,1002.06 1425.77,1007.73 1429.01,1013.37 1432.25,1018.98 1435.5,1024.56 1438.74,1030.11 1441.98,1035.63 1445.23,1041.12 1448.47,1046.57 1451.71,1052 1454.96,1057.39 1458.2,1062.74 1461.44,1068.07 1464.68,1073.36 1467.93,1078.61 1471.17,1083.83 1474.41,1089.01 1477.66,1094.15 1480.9,1099.26 1484.14,1104.33 1487.39,1109.36 1490.63,1114.36 1493.87,1119.31 1497.11,1124.22 1500.36,1129.1 1503.6,1133.93 1506.84,1138.72 1510.09,1143.47 1513.33,1148.18 1516.57,1152.84 1519.82,1157.46 1523.06,1162.04 1526.3,1166.58 1529.55,1171.07 1532.79,1175.51 1536.03,1179.91 1539.27,1184.26 1542.52,1188.57 1545.76,1192.83 1549,1197.04 1552.25,1201.21 1555.49,1205.33 1558.73,1209.4 1561.98,1213.42 1565.22,1217.39 1568.46,1221.31 1571.7,1225.18 1574.95,1229 1578.19,1232.78 1581.43,1236.5 1584.68,1240.16 1587.92,1243.78 1591.16,1247.34 1594.41,1250.86 1597.65,1254.32 1600.89,1257.72 1604.13,1261.07 1607.38,1264.37 1610.62,1267.61 1613.86,1270.8 1617.11,1273.94 1620.35,1277.02 1623.59,1280.04 1626.84,1283.01 1630.08,1285.92 1633.32,1288.77 1636.57,1291.57 1639.81,1294.31 1643.05,1297 1646.29,1299.62 1649.54,1302.19 1652.78,1304.7 1656.02,1307.16 1659.27,1309.55 1662.51,1311.89 1665.75,1314.16 1669,1316.38 1672.24,1318.54 1675.48,1320.63 1678.72,1322.67 1681.97,1324.65 1685.21,1326.57 1688.45,1328.42 1691.7,1330.22 1694.94,1331.95 1698.18,1333.63 1701.43,1335.24 1704.67,1336.79 1707.91,1338.28 1711.15,1339.71 1714.4,1341.08 1717.64,1342.38 1720.88,1343.63 1724.13,1344.81 1727.37,1345.92 1730.61,1346.98 1733.86,1347.97 1737.1,1348.9 1740.34,1349.77 1743.59,1350.58 1746.83,1351.32 1750.07,1352 1753.31,1352.61 1756.56,1353.17 1759.8,1353.66 1763.04,1354.08 1766.29,1354.45 1769.53,1354.75 1772.77,1354.98 1776.02,1355.16 1779.26,1355.27 1782.5,1355.31 1785.74,1355.3 1788.99,1355.22 1792.23,1355.07 1795.47,1354.87 1798.72,1354.6 1801.96,1354.27 1805.2,1353.87 1808.45,1353.41 1811.69,1352.89 1814.93,1352.3 1818.17,1351.65 1821.42,1350.94 1824.66,1350.16 1827.9,1349.33 1831.15,1348.43 1834.39,1347.46 1837.63,1346.44 1840.88,1345.35 1844.12,1344.2 1847.36,1342.98 1850.61,1341.71 1853.85,1340.37 1857.09,1338.97 1860.33,1337.51 1863.58,1335.99 1866.82,1334.41 1870.06,1332.76 1873.31,1331.06 1876.55,1329.29 1879.79,1327.46 1883.04,1325.57 1886.28,1323.62 1889.52,1321.61 1892.76,1319.54 1896.01,1317.42 1899.25,1315.23 1902.49,1312.98 1905.74,1310.67 1908.98,1308.31 1912.22,1305.88 1915.47,1303.4 1918.71,1300.86 1921.95,1298.26 1925.19,1295.6 1928.44,1292.89 1931.68,1290.12 1934.92,1287.29 1938.17,1284.41 1941.41,1281.47 1944.65,1278.47 1947.9,1275.42 1951.14,1272.31 1954.38,1269.15 1957.63,1265.93 1960.87,1262.66 1964.11,1259.33 1967.35,1255.95 1970.6,1252.52 1973.84,1249.03 1977.08,1245.49 1980.33,1241.9 1983.57,1238.25 1986.81,1234.56 1990.06,1230.81 1993.3,1227.02 1996.54,1223.17 1999.78,1219.27 2003.03,1215.32 2006.27,1211.32 2009.51,1207.28 2012.76,1203.18 2016,1199.04 2019.24,1194.85 2022.49,1190.61 2025.73,1186.33 2028.97,1181.99 2032.21,1177.62 2035.46,1173.19 2038.7,1168.73 2041.94,1164.21 2045.19,1159.66 2048.43,1155.06 2051.67,1150.41 2054.92,1145.72 2058.16,1140.99 2061.4,1136.22 2064.65,1131.41 2067.89,1126.56 2071.13,1121.66 2074.37,1116.73 2077.62,1111.75 2080.86,1106.74 2084.1,1101.69 2087.35,1096.6 2090.59,1091.47 2093.83,1086.31 2097.08,1081.11 2100.32,1075.87 2103.56,1070.6 2106.8,1065.29 2110.05,1059.95 2113.29,1054.58 2116.53,1049.17 2119.78,1043.73 2123.02,1038.25 2126.26,1032.75 2129.51,1027.21 2132.75,1021.65 2135.99,1016.05 2139.23,1010.42 2142.48,1004.77 2145.72,999.087 2148.96,993.376 2152.21,987.638 2155.45,981.874 2158.69,976.083 2161.94,970.267 2165.18,964.426 2168.42,958.561 2171.67,952.672 2174.91,946.76 2178.15,940.825 2181.39,934.869 2184.64,928.891 2187.88,922.893 2191.12,916.874 2194.37,910.836 2197.61,904.779 2200.85,898.704 2204.1,892.611 2207.34,886.5 2210.58,880.374 2213.82,874.231 2217.07,868.073 2220.31,861.901 2223.55,855.715 2226.8,849.515 2230.04,843.302 2233.28,837.077 2236.53,830.841 2239.77,824.594 2243.01,818.336 2246.25,812.069 2249.5,805.793 2252.74,799.508 2255.98,793.215 2259.23,786.916 2262.47,780.61 2265.71,774.298 2268.96,767.98 2272.2,761.658 2275.44,755.332 2278.69,749.003 2281.93,742.671 2285.17,736.337 2288.41,730.001 2291.66,723.665 "/>
<circle clip-path="url(#clip291)" cx="2048.43" cy="1305.77" r="14.4" fill="#e26f46" fill-rule="evenodd" fill-opacity="1" stroke="#000000" stroke-opacity="1" stroke-width="3.2"/>
<circle clip-path="url(#clip291)" cx="2067.89" cy="993.769" r="14.4" fill="#e26f46" fill-rule="evenodd" fill-opacity="1" stroke="#000000" stroke-opacity="1" stroke-width="3.2"/>
<circle clip-path="url(#clip291)" cx="1072.28" cy="451.026" r="14.4" fill="#e26f46" fill-rule="evenodd" fill-opacity="1" stroke="#000000" stroke-opacity="1" stroke-width="3.2"/>
<circle clip-path="url(#clip291)" cx="1380.37" cy="968.659" r="14.4" fill="#e26f46" fill-rule="evenodd" fill-opacity="1" stroke="#000000" stroke-opacity="1" stroke-width="3.2"/>
<circle clip-path="url(#clip291)" cx="1750.07" cy="1444.33" r="14.4" fill="#e26f46" fill-rule="evenodd" fill-opacity="1" stroke="#000000" stroke-opacity="1" stroke-width="3.2"/>
<circle clip-path="url(#clip291)" cx="1467.93" cy="1083.74" r="14.4" fill="#e26f46" fill-rule="evenodd" fill-opacity="1" stroke="#000000" stroke-opacity="1" stroke-width="3.2"/>
<circle clip-path="url(#clip291)" cx="605.282" cy="207.527" r="14.4" fill="#e26f46" fill-rule="evenodd" fill-opacity="1" stroke="#000000" stroke-opacity="1" stroke-width="3.2"/>
<circle clip-path="url(#clip291)" cx="449.616" cy="342.55" r="14.4" fill="#e26f46" fill-rule="evenodd" fill-opacity="1" stroke="#000000" stroke-opacity="1" stroke-width="3.2"/>
<circle clip-path="url(#clip291)" cx="2106.8" cy="1120.27" r="14.4" fill="#e26f46" fill-rule="evenodd" fill-opacity="1" stroke="#000000" stroke-opacity="1" stroke-width="3.2"/>
<circle clip-path="url(#clip291)" cx="1876.55" cy="1445.72" r="14.4" fill="#e26f46" fill-rule="evenodd" fill-opacity="1" stroke="#000000" stroke-opacity="1" stroke-width="3.2"/>
<circle clip-path="url(#clip291)" cx="1202" cy="701.869" r="14.4" fill="#e26f46" fill-rule="evenodd" fill-opacity="1" stroke="#000000" stroke-opacity="1" stroke-width="3.2"/>
<circle clip-path="url(#clip291)" cx="1604.13" cy="1125.94" r="14.4" fill="#e26f46" fill-rule="evenodd" fill-opacity="1" stroke="#000000" stroke-opacity="1" stroke-width="3.2"/>
<circle clip-path="url(#clip291)" cx="2054.92" cy="1183.24" r="14.4" fill="#e26f46" fill-rule="evenodd" fill-opacity="1" stroke="#000000" stroke-opacity="1" stroke-width="3.2"/>
<circle clip-path="url(#clip291)" cx="462.589" cy="295.948" r="14.4" fill="#e26f46" fill-rule="evenodd" fill-opacity="1" stroke="#000000" stroke-opacity="1" stroke-width="3.2"/>
<circle clip-path="url(#clip291)" cx="2064.65" cy="1222.98" r="14.4" fill="#e26f46" fill-rule="evenodd" fill-opacity="1" stroke="#000000" stroke-opacity="1" stroke-width="3.2"/>
<circle clip-path="url(#clip291)" cx="277.736" cy="566.421" r="14.4" fill="#e26f46" fill-rule="evenodd" fill-opacity="1" stroke="#000000" stroke-opacity="1" stroke-width="3.2"/>
<circle clip-path="url(#clip291)" cx="1539.27" cy="1279.76" r="14.4" fill="#e26f46" fill-rule="evenodd" fill-opacity="1" stroke="#000000" stroke-opacity="1" stroke-width="3.2"/>
<circle clip-path="url(#clip291)" cx="498.262" cy="246.749" r="14.4" fill="#e26f46" fill-rule="evenodd" fill-opacity="1" stroke="#000000" stroke-opacity="1" stroke-width="3.2"/>
<circle clip-path="url(#clip291)" cx="1853.85" cy="1277.26" r="14.4" fill="#e26f46" fill-rule="evenodd" fill-opacity="1" stroke="#000000" stroke-opacity="1" stroke-width="3.2"/>
<circle clip-path="url(#clip291)" cx="1078.76" cy="247.786" r="14.4" fill="#e26f46" fill-rule="evenodd" fill-opacity="1" stroke="#000000" stroke-opacity="1" stroke-width="3.2"/>
<path clip-path="url(#clip290)" d="M1953.46 250.738 L2280.8 250.738 L2280.8 95.2176 L1953.46 95.2176  Z" fill="#ffffff" fill-rule="evenodd" fill-opacity="1"/>
<polyline clip-path="url(#clip290)" style="stroke:#000000; stroke-linecap:round; stroke-linejoin:round; stroke-width:4; stroke-opacity:1; fill:none" points="1953.46,250.738 2280.8,250.738 2280.8,95.2176 1953.46,95.2176 1953.46,250.738 "/>
<polyline clip-path="url(#clip290)" style="stroke:#009af9; stroke-linecap:round; stroke-linejoin:round; stroke-width:4; stroke-opacity:1; fill:none" points="1977.44,147.058 2121.36,147.058 "/>
<path clip-path="url(#clip290)" d="M2152.76 131.051 L2152.76 138.412 L2161.53 138.412 L2161.53 141.722 L2152.76 141.722 L2152.76 155.796 Q2152.76 158.967 2153.61 159.87 Q2154.49 160.773 2157.16 160.773 L2161.53 160.773 L2161.53 164.338 L2157.16 164.338 Q2152.23 164.338 2150.35 162.509 Q2148.48 160.657 2148.48 155.796 L2148.48 141.722 L2145.35 141.722 L2145.35 138.412 L2148.48 138.412 L2148.48 131.051 L2152.76 131.051 Z" fill="#000000" fill-rule="nonzero" fill-opacity="1" /><path clip-path="url(#clip290)" d="M2182.16 142.393 Q2181.44 141.977 2180.58 141.791 Q2179.75 141.583 2178.73 141.583 Q2175.12 141.583 2173.17 143.944 Q2171.25 146.282 2171.25 150.68 L2171.25 164.338 L2166.97 164.338 L2166.97 138.412 L2171.25 138.412 L2171.25 142.44 Q2172.6 140.078 2174.75 138.944 Q2176.9 137.787 2179.98 137.787 Q2180.42 137.787 2180.95 137.856 Q2181.48 137.903 2182.13 138.018 L2182.16 142.393 Z" fill="#000000" fill-rule="nonzero" fill-opacity="1" /><path clip-path="url(#clip290)" d="M2186.18 154.106 L2186.18 138.412 L2190.44 138.412 L2190.44 153.944 Q2190.44 157.625 2191.88 159.476 Q2193.31 161.305 2196.18 161.305 Q2199.63 161.305 2201.62 159.106 Q2203.64 156.907 2203.64 153.111 L2203.64 138.412 L2207.9 138.412 L2207.9 164.338 L2203.64 164.338 L2203.64 160.356 Q2202.09 162.717 2200.03 163.875 Q2197.99 165.009 2195.28 165.009 Q2190.81 165.009 2188.5 162.231 Q2186.18 159.453 2186.18 154.106 M2196.9 137.787 L2196.9 137.787 Z" fill="#000000" fill-rule="nonzero" fill-opacity="1" /><path clip-path="url(#clip290)" d="M2220.88 131.051 L2220.88 138.412 L2229.66 138.412 L2229.66 141.722 L2220.88 141.722 L2220.88 155.796 Q2220.88 158.967 2221.74 159.87 Q2222.62 160.773 2225.28 160.773 L2229.66 160.773 L2229.66 164.338 L2225.28 164.338 Q2220.35 164.338 2218.48 162.509 Q2216.6 160.657 2216.6 155.796 L2216.6 141.722 L2213.48 141.722 L2213.48 138.412 L2216.6 138.412 L2216.6 131.051 L2220.88 131.051 Z" fill="#000000" fill-rule="nonzero" fill-opacity="1" /><path clip-path="url(#clip290)" d="M2256.81 148.689 L2256.81 164.338 L2252.55 164.338 L2252.55 148.828 Q2252.55 145.148 2251.11 143.319 Q2249.68 141.49 2246.81 141.49 Q2243.36 141.49 2241.37 143.69 Q2239.38 145.889 2239.38 149.685 L2239.38 164.338 L2235.1 164.338 L2235.1 128.319 L2239.38 128.319 L2239.38 142.44 Q2240.91 140.102 2242.97 138.944 Q2245.05 137.787 2247.76 137.787 Q2252.23 137.787 2254.52 140.565 Q2256.81 143.319 2256.81 148.689 Z" fill="#000000" fill-rule="nonzero" fill-opacity="1" /><circle clip-path="url(#clip290)" cx="2049.4" cy="198.898" r="20.48" fill="#e26f46" fill-rule="evenodd" fill-opacity="1" stroke="#000000" stroke-opacity="1" stroke-width="4.55111"/>
<path clip-path="url(#clip290)" d="M2164.26 194.187 L2164.26 180.159 L2168.52 180.159 L2168.52 216.178 L2164.26 216.178 L2164.26 212.289 Q2162.92 214.603 2160.86 215.738 Q2158.82 216.849 2155.95 216.849 Q2151.25 216.849 2148.29 213.099 Q2145.35 209.349 2145.35 203.238 Q2145.35 197.127 2148.29 193.377 Q2151.25 189.627 2155.95 189.627 Q2158.82 189.627 2160.86 190.761 Q2162.92 191.872 2164.26 194.187 M2149.75 203.238 Q2149.75 207.937 2151.67 210.622 Q2153.61 213.284 2156.99 213.284 Q2160.37 213.284 2162.32 210.622 Q2164.26 207.937 2164.26 203.238 Q2164.26 198.539 2162.32 195.877 Q2160.37 193.192 2156.99 193.192 Q2153.61 193.192 2151.67 195.877 Q2149.75 198.539 2149.75 203.238 Z" fill="#000000" fill-rule="nonzero" fill-opacity="1" /><path clip-path="url(#clip290)" d="M2189.08 203.145 Q2183.92 203.145 2181.92 204.326 Q2179.93 205.506 2179.93 208.354 Q2179.93 210.622 2181.42 211.965 Q2182.92 213.284 2185.49 213.284 Q2189.03 213.284 2191.16 210.784 Q2193.31 208.261 2193.31 204.094 L2193.31 203.145 L2189.08 203.145 M2197.57 201.386 L2197.57 216.178 L2193.31 216.178 L2193.31 212.242 Q2191.85 214.603 2189.68 215.738 Q2187.5 216.849 2184.36 216.849 Q2180.37 216.849 2178.01 214.627 Q2175.67 212.381 2175.67 208.631 Q2175.67 204.256 2178.59 202.034 Q2181.53 199.812 2187.34 199.812 L2193.31 199.812 L2193.31 199.395 Q2193.31 196.455 2191.37 194.858 Q2189.45 193.238 2185.95 193.238 Q2183.73 193.238 2181.62 193.77 Q2179.52 194.303 2177.57 195.367 L2177.57 191.432 Q2179.91 190.53 2182.11 190.09 Q2184.31 189.627 2186.39 189.627 Q2192.02 189.627 2194.79 192.543 Q2197.57 195.46 2197.57 201.386 Z" fill="#000000" fill-rule="nonzero" fill-opacity="1" /><path clip-path="url(#clip290)" d="M2210.56 182.891 L2210.56 190.252 L2219.33 190.252 L2219.33 193.562 L2210.56 193.562 L2210.56 207.636 Q2210.56 210.807 2211.42 211.71 Q2212.29 212.613 2214.96 212.613 L2219.33 212.613 L2219.33 216.178 L2214.96 216.178 Q2210.03 216.178 2208.15 214.349 Q2206.28 212.497 2206.28 207.636 L2206.28 193.562 L2203.15 193.562 L2203.15 190.252 L2206.28 190.252 L2206.28 182.891 L2210.56 182.891 Z" fill="#000000" fill-rule="nonzero" fill-opacity="1" /><path clip-path="url(#clip290)" d="M2236.72 203.145 Q2231.55 203.145 2229.56 204.326 Q2227.57 205.506 2227.57 208.354 Q2227.57 210.622 2229.05 211.965 Q2230.56 213.284 2233.13 213.284 Q2236.67 213.284 2238.8 210.784 Q2240.95 208.261 2240.95 204.094 L2240.95 203.145 L2236.72 203.145 M2245.21 201.386 L2245.21 216.178 L2240.95 216.178 L2240.95 212.242 Q2239.49 214.603 2237.32 215.738 Q2235.14 216.849 2231.99 216.849 Q2228.01 216.849 2225.65 214.627 Q2223.31 212.381 2223.31 208.631 Q2223.31 204.256 2226.23 202.034 Q2229.17 199.812 2234.98 199.812 L2240.95 199.812 L2240.95 199.395 Q2240.95 196.455 2239.01 194.858 Q2237.09 193.238 2233.59 193.238 Q2231.37 193.238 2229.26 193.77 Q2227.16 194.303 2225.21 195.367 L2225.21 191.432 Q2227.55 190.53 2229.75 190.09 Q2231.95 189.627 2234.03 189.627 Q2239.66 189.627 2242.43 192.543 Q2245.21 195.46 2245.21 201.386 Z" fill="#000000" fill-rule="nonzero" fill-opacity="1" /></svg>
