<?xml version="1.0" encoding="utf-8"?>
<svg xmlns="http://www.w3.org/2000/svg" xmlns:xlink="http://www.w3.org/1999/xlink" width="600" height="400" viewBox="0 0 2400 1600">
<defs>
  <clipPath id="clip960">
    <rect x="0" y="0" width="2400" height="1600"/>
  </clipPath>
</defs>
<path clip-path="url(#clip960)" d="M0 1600 L2400 1600 L2400 0 L0 0  Z" fill="#ffffff" fill-rule="evenodd" fill-opacity="1"/>
<defs>
  <clipPath id="clip961">
    <rect x="193" y="47" width="2160" height="1440"/>
  </clipPath>
</defs>
<path clip-path="url(#clip960)" d="M193.936 1486.45 L2352.76 1486.45 L2352.76 47.2441 L193.936 47.2441  Z" fill="#ffffff" fill-rule="evenodd" fill-opacity="1"/>
<polyline clip-path="url(#clip961)" style="stroke:#000000; stroke-linecap:round; stroke-linejoin:round; stroke-width:2; stroke-opacity:0.1; fill:none" points="255.035,1486.45 255.035,47.2441 "/>
<polyline clip-path="url(#clip961)" style="stroke:#000000; stroke-linecap:round; stroke-linejoin:round; stroke-width:2; stroke-opacity:0.1; fill:none" points="579.338,1486.45 579.338,47.2441 "/>
<polyline clip-path="url(#clip961)" style="stroke:#000000; stroke-linecap:round; stroke-linejoin:round; stroke-width:2; stroke-opacity:0.1; fill:none" points="903.641,1486.45 903.641,47.2441 "/>
<polyline clip-path="url(#clip961)" style="stroke:#000000; stroke-linecap:round; stroke-linejoin:round; stroke-width:2; stroke-opacity:0.1; fill:none" points="1227.94,1486.45 1227.94,47.2441 "/>
<polyline clip-path="url(#clip961)" style="stroke:#000000; stroke-linecap:round; stroke-linejoin:round; stroke-width:2; stroke-opacity:0.1; fill:none" points="1552.25,1486.45 1552.25,47.2441 "/>
<polyline clip-path="url(#clip961)" style="stroke:#000000; stroke-linecap:round; stroke-linejoin:round; stroke-width:2; stroke-opacity:0.1; fill:none" points="1876.55,1486.45 1876.55,47.2441 "/>
<polyline clip-path="url(#clip961)" style="stroke:#000000; stroke-linecap:round; stroke-linejoin:round; stroke-width:2; stroke-opacity:0.1; fill:none" points="2200.85,1486.45 2200.85,47.2441 "/>
<polyline clip-path="url(#clip961)" style="stroke:#000000; stroke-linecap:round; stroke-linejoin:round; stroke-width:2; stroke-opacity:0.1; fill:none" points="193.936,1346.06 2352.76,1346.06 "/>
<polyline clip-path="url(#clip961)" style="stroke:#000000; stroke-linecap:round; stroke-linejoin:round; stroke-width:2; stroke-opacity:0.1; fill:none" points="193.936,1037.82 2352.76,1037.82 "/>
<polyline clip-path="url(#clip961)" style="stroke:#000000; stroke-linecap:round; stroke-linejoin:round; stroke-width:2; stroke-opacity:0.1; fill:none" points="193.936,729.587 2352.76,729.587 "/>
<polyline clip-path="url(#clip961)" style="stroke:#000000; stroke-linecap:round; stroke-linejoin:round; stroke-width:2; stroke-opacity:0.1; fill:none" points="193.936,421.351 2352.76,421.351 "/>
<polyline clip-path="url(#clip961)" style="stroke:#000000; stroke-linecap:round; stroke-linejoin:round; stroke-width:2; stroke-opacity:0.1; fill:none" points="193.936,113.116 2352.76,113.116 "/>
<polyline clip-path="url(#clip960)" style="stroke:#000000; stroke-linecap:round; stroke-linejoin:round; stroke-width:4; stroke-opacity:1; fill:none" points="193.936,1486.45 2352.76,1486.45 "/>
<polyline clip-path="url(#clip960)" style="stroke:#000000; stroke-linecap:round; stroke-linejoin:round; stroke-width:4; stroke-opacity:1; fill:none" points="255.035,1486.45 255.035,1467.55 "/>
<polyline clip-path="url(#clip960)" style="stroke:#000000; stroke-linecap:round; stroke-linejoin:round; stroke-width:4; stroke-opacity:1; fill:none" points="579.338,1486.45 579.338,1467.55 "/>
<polyline clip-path="url(#clip960)" style="stroke:#000000; stroke-linecap:round; stroke-linejoin:round; stroke-width:4; stroke-opacity:1; fill:none" points="903.641,1486.45 903.641,1467.55 "/>
<polyline clip-path="url(#clip960)" style="stroke:#000000; stroke-linecap:round; stroke-linejoin:round; stroke-width:4; stroke-opacity:1; fill:none" points="1227.94,1486.45 1227.94,1467.55 "/>
<polyline clip-path="url(#clip960)" style="stroke:#000000; stroke-linecap:round; stroke-linejoin:round; stroke-width:4; stroke-opacity:1; fill:none" points="1552.25,1486.45 1552.25,1467.55 "/>
<polyline clip-path="url(#clip960)" style="stroke:#000000; stroke-linecap:round; stroke-linejoin:round; stroke-width:4; stroke-opacity:1; fill:none" points="1876.55,1486.45 1876.55,1467.55 "/>
<polyline clip-path="url(#clip960)" style="stroke:#000000; stroke-linecap:round; stroke-linejoin:round; stroke-width:4; stroke-opacity:1; fill:none" points="2200.85,1486.45 2200.85,1467.55 "/>
<path clip-path="url(#clip960)" d="M255.035 1517.37 Q251.424 1517.37 249.595 1520.93 Q247.789 1524.47 247.789 1531.6 Q247.789 1538.71 249.595 1542.27 Q251.424 1545.82 255.035 1545.82 Q258.669 1545.82 260.474 1542.27 Q262.303 1538.71 262.303 1531.6 Q262.303 1524.47 260.474 1520.93 Q258.669 1517.37 255.035 1517.37 M255.035 1513.66 Q260.845 1513.66 263.9 1518.27 Q266.979 1522.85 266.979 1531.6 Q266.979 1540.33 263.9 1544.94 Q260.845 1549.52 255.035 1549.52 Q249.225 1549.52 246.146 1544.94 Q243.09 1540.33 243.09 1531.6 Q243.09 1522.85 246.146 1518.27 Q249.225 1513.66 255.035 1513.66 Z" fill="#000000" fill-rule="nonzero" fill-opacity="1" /><path clip-path="url(#clip960)" d="M569.72 1544.91 L577.358 1544.91 L577.358 1518.55 L569.048 1520.21 L569.048 1515.95 L577.312 1514.29 L581.988 1514.29 L581.988 1544.91 L589.627 1544.91 L589.627 1548.85 L569.72 1548.85 L569.72 1544.91 Z" fill="#000000" fill-rule="nonzero" fill-opacity="1" /><path clip-path="url(#clip960)" d="M898.293 1544.91 L914.613 1544.91 L914.613 1548.85 L892.668 1548.85 L892.668 1544.91 Q895.33 1542.16 899.914 1537.53 Q904.52 1532.88 905.701 1531.53 Q907.946 1529.01 908.826 1527.27 Q909.729 1525.51 909.729 1523.82 Q909.729 1521.07 907.784 1519.33 Q905.863 1517.6 902.761 1517.6 Q900.562 1517.6 898.108 1518.36 Q895.678 1519.13 892.9 1520.68 L892.9 1515.95 Q895.724 1514.82 898.178 1514.24 Q900.631 1513.66 902.668 1513.66 Q908.039 1513.66 911.233 1516.35 Q914.428 1519.03 914.428 1523.52 Q914.428 1525.65 913.617 1527.57 Q912.83 1529.47 910.724 1532.07 Q910.145 1532.74 907.043 1535.95 Q903.942 1539.15 898.293 1544.91 Z" fill="#000000" fill-rule="nonzero" fill-opacity="1" /><path clip-path="url(#clip960)" d="M1232.19 1530.21 Q1235.55 1530.93 1237.42 1533.2 Q1239.32 1535.47 1239.32 1538.8 Q1239.32 1543.92 1235.8 1546.72 Q1232.28 1549.52 1225.8 1549.52 Q1223.63 1549.52 1221.31 1549.08 Q1219.02 1548.66 1216.57 1547.81 L1216.57 1543.29 Q1218.51 1544.43 1220.83 1545.01 Q1223.14 1545.58 1225.66 1545.58 Q1230.06 1545.58 1232.35 1543.85 Q1234.67 1542.11 1234.67 1538.8 Q1234.67 1535.75 1232.52 1534.03 Q1230.39 1532.3 1226.57 1532.3 L1222.54 1532.3 L1222.54 1528.45 L1226.75 1528.45 Q1230.2 1528.45 1232.03 1527.09 Q1233.86 1525.7 1233.86 1523.11 Q1233.86 1520.45 1231.96 1519.03 Q1230.08 1517.6 1226.57 1517.6 Q1224.64 1517.6 1222.45 1518.01 Q1220.25 1518.43 1217.61 1519.31 L1217.61 1515.14 Q1220.27 1514.4 1222.58 1514.03 Q1224.92 1513.66 1226.98 1513.66 Q1232.31 1513.66 1235.41 1516.09 Q1238.51 1518.5 1238.51 1522.62 Q1238.51 1525.49 1236.87 1527.48 Q1235.22 1529.45 1232.19 1530.21 Z" fill="#000000" fill-rule="nonzero" fill-opacity="1" /><path clip-path="url(#clip960)" d="M1555.26 1518.36 L1543.45 1536.81 L1555.26 1536.81 L1555.26 1518.36 M1554.03 1514.29 L1559.91 1514.29 L1559.91 1536.81 L1564.84 1536.81 L1564.84 1540.7 L1559.91 1540.7 L1559.91 1548.85 L1555.26 1548.85 L1555.26 1540.7 L1539.65 1540.7 L1539.65 1536.19 L1554.03 1514.29 Z" fill="#000000" fill-rule="nonzero" fill-opacity="1" /><path clip-path="url(#clip960)" d="M1866.83 1514.29 L1885.18 1514.29 L1885.18 1518.22 L1871.11 1518.22 L1871.11 1526.7 Q1872.13 1526.35 1873.15 1526.19 Q1874.17 1526 1875.18 1526 Q1880.97 1526 1884.35 1529.17 Q1887.73 1532.34 1887.73 1537.76 Q1887.73 1543.34 1884.26 1546.44 Q1880.79 1549.52 1874.47 1549.52 Q1872.29 1549.52 1870.02 1549.15 Q1867.78 1548.78 1865.37 1548.04 L1865.37 1543.34 Q1867.45 1544.47 1869.67 1545.03 Q1871.9 1545.58 1874.37 1545.58 Q1878.38 1545.58 1880.72 1543.48 Q1883.05 1541.37 1883.05 1537.76 Q1883.05 1534.15 1880.72 1532.04 Q1878.38 1529.94 1874.37 1529.94 Q1872.5 1529.94 1870.62 1530.35 Q1868.77 1530.77 1866.83 1531.65 L1866.83 1514.29 Z" fill="#000000" fill-rule="nonzero" fill-opacity="1" /><path clip-path="url(#clip960)" d="M2201.26 1529.7 Q2198.11 1529.7 2196.26 1531.86 Q2194.43 1534.01 2194.43 1537.76 Q2194.43 1541.49 2196.26 1543.66 Q2198.11 1545.82 2201.26 1545.82 Q2204.41 1545.82 2206.23 1543.66 Q2208.09 1541.49 2208.09 1537.76 Q2208.09 1534.01 2206.23 1531.86 Q2204.41 1529.7 2201.26 1529.7 M2210.54 1515.05 L2210.54 1519.31 Q2208.78 1518.48 2206.98 1518.04 Q2205.19 1517.6 2203.43 1517.6 Q2198.8 1517.6 2196.35 1520.72 Q2193.92 1523.85 2193.57 1530.17 Q2194.94 1528.15 2197 1527.09 Q2199.06 1526 2201.54 1526 Q2206.74 1526 2209.75 1529.17 Q2212.79 1532.32 2212.79 1537.76 Q2212.79 1543.08 2209.64 1546.3 Q2206.49 1549.52 2201.26 1549.52 Q2195.26 1549.52 2192.09 1544.94 Q2188.92 1540.33 2188.92 1531.6 Q2188.92 1523.41 2192.81 1518.55 Q2196.7 1513.66 2203.25 1513.66 Q2205.01 1513.66 2206.79 1514.01 Q2208.6 1514.36 2210.54 1515.05 Z" fill="#000000" fill-rule="nonzero" fill-opacity="1" /><polyline clip-path="url(#clip960)" style="stroke:#000000; stroke-linecap:round; stroke-linejoin:round; stroke-width:4; stroke-opacity:1; fill:none" points="193.936,1486.45 193.936,47.2441 "/>
<polyline clip-path="url(#clip960)" style="stroke:#000000; stroke-linecap:round; stroke-linejoin:round; stroke-width:4; stroke-opacity:1; fill:none" points="193.936,1346.06 212.834,1346.06 "/>
<polyline clip-path="url(#clip960)" style="stroke:#000000; stroke-linecap:round; stroke-linejoin:round; stroke-width:4; stroke-opacity:1; fill:none" points="193.936,1037.82 212.834,1037.82 "/>
<polyline clip-path="url(#clip960)" style="stroke:#000000; stroke-linecap:round; stroke-linejoin:round; stroke-width:4; stroke-opacity:1; fill:none" points="193.936,729.587 212.834,729.587 "/>
<polyline clip-path="url(#clip960)" style="stroke:#000000; stroke-linecap:round; stroke-linejoin:round; stroke-width:4; stroke-opacity:1; fill:none" points="193.936,421.351 212.834,421.351 "/>
<polyline clip-path="url(#clip960)" style="stroke:#000000; stroke-linecap:round; stroke-linejoin:round; stroke-width:4; stroke-opacity:1; fill:none" points="193.936,113.116 212.834,113.116 "/>
<path clip-path="url(#clip960)" d="M50.9921 1346.51 L80.6679 1346.51 L80.6679 1350.44 L50.9921 1350.44 L50.9921 1346.51 Z" fill="#000000" fill-rule="nonzero" fill-opacity="1" /><path clip-path="url(#clip960)" d="M91.5706 1359.4 L99.2095 1359.4 L99.2095 1333.04 L90.8993 1334.7 L90.8993 1330.44 L99.1632 1328.78 L103.839 1328.78 L103.839 1359.4 L111.478 1359.4 L111.478 1363.34 L91.5706 1363.34 L91.5706 1359.4 Z" fill="#000000" fill-rule="nonzero" fill-opacity="1" /><path clip-path="url(#clip960)" d="M120.922 1357.46 L125.807 1357.46 L125.807 1363.34 L120.922 1363.34 L120.922 1357.46 Z" fill="#000000" fill-rule="nonzero" fill-opacity="1" /><path clip-path="url(#clip960)" d="M145.992 1331.86 Q142.381 1331.86 140.552 1335.42 Q138.746 1338.96 138.746 1346.09 Q138.746 1353.2 140.552 1356.76 Q142.381 1360.3 145.992 1360.3 Q149.626 1360.3 151.431 1356.76 Q153.26 1353.2 153.26 1346.09 Q153.26 1338.96 151.431 1335.42 Q149.626 1331.86 145.992 1331.86 M145.992 1328.15 Q151.802 1328.15 154.857 1332.76 Q157.936 1337.34 157.936 1346.09 Q157.936 1354.82 154.857 1359.43 Q151.802 1364.01 145.992 1364.01 Q140.181 1364.01 137.103 1359.43 Q134.047 1354.82 134.047 1346.09 Q134.047 1337.34 137.103 1332.76 Q140.181 1328.15 145.992 1328.15 Z" fill="#000000" fill-rule="nonzero" fill-opacity="1" /><path clip-path="url(#clip960)" d="M51.9875 1038.27 L81.6633 1038.27 L81.6633 1042.21 L51.9875 1042.21 L51.9875 1038.27 Z" fill="#000000" fill-rule="nonzero" fill-opacity="1" /><path clip-path="url(#clip960)" d="M101.756 1023.62 Q98.1447 1023.62 96.316 1027.19 Q94.5104 1030.73 94.5104 1037.86 Q94.5104 1044.96 96.316 1048.53 Q98.1447 1052.07 101.756 1052.07 Q105.39 1052.07 107.196 1048.53 Q109.024 1044.96 109.024 1037.86 Q109.024 1030.73 107.196 1027.19 Q105.39 1023.62 101.756 1023.62 M101.756 1019.92 Q107.566 1019.92 110.621 1024.52 Q113.7 1029.11 113.7 1037.86 Q113.7 1046.58 110.621 1051.19 Q107.566 1055.77 101.756 1055.77 Q95.9456 1055.77 92.8669 1051.19 Q89.8114 1046.58 89.8114 1037.86 Q89.8114 1029.11 92.8669 1024.52 Q95.9456 1019.92 101.756 1019.92 Z" fill="#000000" fill-rule="nonzero" fill-opacity="1" /><path clip-path="url(#clip960)" d="M121.918 1049.22 L126.802 1049.22 L126.802 1055.1 L121.918 1055.1 L121.918 1049.22 Z" fill="#000000" fill-rule="nonzero" fill-opacity="1" /><path clip-path="url(#clip960)" d="M137.033 1020.54 L155.39 1020.54 L155.39 1024.48 L141.316 1024.48 L141.316 1032.95 Q142.334 1032.6 143.353 1032.44 Q144.371 1032.25 145.39 1032.25 Q151.177 1032.25 154.556 1035.43 Q157.936 1038.6 157.936 1044.01 Q157.936 1049.59 154.464 1052.69 Q150.992 1055.77 144.672 1055.77 Q142.496 1055.77 140.228 1055.4 Q137.982 1055.03 135.575 1054.29 L135.575 1049.59 Q137.658 1050.73 139.881 1051.28 Q142.103 1051.84 144.58 1051.84 Q148.584 1051.84 150.922 1049.73 Q153.26 1047.63 153.26 1044.01 Q153.26 1040.4 150.922 1038.3 Q148.584 1036.19 144.58 1036.19 Q142.705 1036.19 140.83 1036.61 Q138.978 1037.02 137.033 1037.9 L137.033 1020.54 Z" fill="#000000" fill-rule="nonzero" fill-opacity="1" /><path clip-path="url(#clip960)" d="M100.76 715.385 Q97.1493 715.385 95.3206 718.95 Q93.515 722.492 93.515 729.621 Q93.515 736.728 95.3206 740.293 Q97.1493 743.834 100.76 743.834 Q104.395 743.834 106.2 740.293 Q108.029 736.728 108.029 729.621 Q108.029 722.492 106.2 718.95 Q104.395 715.385 100.76 715.385 M100.76 711.682 Q106.571 711.682 109.626 716.288 Q112.705 720.871 112.705 729.621 Q112.705 738.348 109.626 742.955 Q106.571 747.538 100.76 747.538 Q94.9502 747.538 91.8715 742.955 Q88.816 738.348 88.816 729.621 Q88.816 720.871 91.8715 716.288 Q94.9502 711.682 100.76 711.682 Z" fill="#000000" fill-rule="nonzero" fill-opacity="1" /><path clip-path="url(#clip960)" d="M120.922 740.987 L125.807 740.987 L125.807 746.867 L120.922 746.867 L120.922 740.987 Z" fill="#000000" fill-rule="nonzero" fill-opacity="1" /><path clip-path="url(#clip960)" d="M145.992 715.385 Q142.381 715.385 140.552 718.95 Q138.746 722.492 138.746 729.621 Q138.746 736.728 140.552 740.293 Q142.381 743.834 145.992 743.834 Q149.626 743.834 151.431 740.293 Q153.26 736.728 153.26 729.621 Q153.26 722.492 151.431 718.95 Q149.626 715.385 145.992 715.385 M145.992 711.682 Q151.802 711.682 154.857 716.288 Q157.936 720.871 157.936 729.621 Q157.936 738.348 154.857 742.955 Q151.802 747.538 145.992 747.538 Q140.181 747.538 137.103 742.955 Q134.047 738.348 134.047 729.621 Q134.047 720.871 137.103 716.288 Q140.181 711.682 145.992 711.682 Z" fill="#000000" fill-rule="nonzero" fill-opacity="1" /><path clip-path="url(#clip960)" d="M101.756 407.15 Q98.1447 407.15 96.316 410.715 Q94.5104 414.257 94.5104 421.386 Q94.5104 428.493 96.316 432.057 Q98.1447 435.599 101.756 435.599 Q105.39 435.599 107.196 432.057 Q109.024 428.493 109.024 421.386 Q109.024 414.257 107.196 410.715 Q105.39 407.15 101.756 407.15 M101.756 403.446 Q107.566 403.446 110.621 408.053 Q113.7 412.636 113.7 421.386 Q113.7 430.113 110.621 434.719 Q107.566 439.303 101.756 439.303 Q95.9456 439.303 92.8669 434.719 Q89.8114 430.113 89.8114 421.386 Q89.8114 412.636 92.8669 408.053 Q95.9456 403.446 101.756 403.446 Z" fill="#000000" fill-rule="nonzero" fill-opacity="1" /><path clip-path="url(#clip960)" d="M121.918 432.752 L126.802 432.752 L126.802 438.631 L121.918 438.631 L121.918 432.752 Z" fill="#000000" fill-rule="nonzero" fill-opacity="1" /><path clip-path="url(#clip960)" d="M137.033 404.071 L155.39 404.071 L155.39 408.007 L141.316 408.007 L141.316 416.479 Q142.334 416.132 143.353 415.969 Q144.371 415.784 145.39 415.784 Q151.177 415.784 154.556 418.956 Q157.936 422.127 157.936 427.544 Q157.936 433.122 154.464 436.224 Q150.992 439.303 144.672 439.303 Q142.496 439.303 140.228 438.932 Q137.982 438.562 135.575 437.821 L135.575 433.122 Q137.658 434.256 139.881 434.812 Q142.103 435.368 144.58 435.368 Q148.584 435.368 150.922 433.261 Q153.26 431.155 153.26 427.544 Q153.26 423.932 150.922 421.826 Q148.584 419.719 144.58 419.719 Q142.705 419.719 140.83 420.136 Q138.978 420.553 137.033 421.432 L137.033 404.071 Z" fill="#000000" fill-rule="nonzero" fill-opacity="1" /><path clip-path="url(#clip960)" d="M91.5706 126.461 L99.2095 126.461 L99.2095 100.095 L90.8993 101.762 L90.8993 97.5028 L99.1632 95.8362 L103.839 95.8362 L103.839 126.461 L111.478 126.461 L111.478 130.396 L91.5706 130.396 L91.5706 126.461 Z" fill="#000000" fill-rule="nonzero" fill-opacity="1" /><path clip-path="url(#clip960)" d="M120.922 124.517 L125.807 124.517 L125.807 130.396 L120.922 130.396 L120.922 124.517 Z" fill="#000000" fill-rule="nonzero" fill-opacity="1" /><path clip-path="url(#clip960)" d="M145.992 98.9149 Q142.381 98.9149 140.552 102.48 Q138.746 106.021 138.746 113.151 Q138.746 120.257 140.552 123.822 Q142.381 127.364 145.992 127.364 Q149.626 127.364 151.431 123.822 Q153.26 120.257 153.26 113.151 Q153.26 106.021 151.431 102.48 Q149.626 98.9149 145.992 98.9149 M145.992 95.2112 Q151.802 95.2112 154.857 99.8176 Q157.936 104.401 157.936 113.151 Q157.936 121.878 154.857 126.484 Q151.802 131.067 145.992 131.067 Q140.181 131.067 137.103 126.484 Q134.047 121.878 134.047 113.151 Q134.047 104.401 137.103 99.8176 Q140.181 95.2112 145.992 95.2112 Z" fill="#000000" fill-rule="nonzero" fill-opacity="1" /><polyline clip-path="url(#clip961)" style="stroke:#009af9; stroke-linecap:round; stroke-linejoin:round; stroke-width:4; stroke-opacity:1; fill:none" points="255.035,729.587 258.278,723.422 261.521,717.258 264.764,711.095 268.007,704.934 271.25,698.776 274.493,692.621 277.736,686.469 280.979,680.322 284.222,674.179 287.465,668.042 290.708,661.912 293.951,655.788 297.194,649.671 300.437,643.562 303.68,637.462 306.923,631.372 310.166,625.291 313.409,619.22 316.652,613.161 319.895,607.113 323.138,601.077 326.381,595.055 329.624,589.045 332.867,583.05 336.11,577.069 339.353,571.104 342.596,565.155 345.84,559.222 349.083,553.306 352.326,547.407 355.569,541.527 358.812,535.666 362.055,529.824 365.298,524.002 368.541,518.2 371.784,512.42 375.027,506.661 378.27,500.925 381.513,495.212 384.756,489.522 387.999,483.856 391.242,478.214 394.485,472.598 397.728,467.008 400.971,461.443 404.214,455.906 407.457,450.396 410.7,444.913 413.943,439.46 417.186,434.035 420.429,428.64 423.672,423.275 426.915,417.94 430.158,412.637 433.401,407.365 436.644,402.126 439.887,396.919 443.13,391.746 446.373,386.607 449.616,381.501 452.859,376.431 456.103,371.396 459.346,366.396 462.589,361.433 465.832,356.507 469.075,351.618 472.318,346.767 475.561,341.954 478.804,337.18 482.047,332.445 485.29,327.75 488.533,323.095 491.776,318.481 495.019,313.908 498.262,309.376 501.505,304.887 504.748,300.44 507.991,296.036 511.234,291.675 514.477,287.358 517.72,283.085 520.963,278.857 524.206,274.674 527.449,270.536 530.692,266.444 533.935,262.399 537.178,258.4 540.421,254.449 543.664,250.545 546.907,246.689 550.15,242.881 553.393,239.122 556.636,235.412 559.879,231.751 563.122,228.14 566.366,224.579 569.609,221.069 572.852,217.61 576.095,214.201 579.338,210.845 582.581,207.54 585.824,204.287 589.067,201.087 592.31,197.94 595.553,194.846 598.796,191.805 602.039,188.818 605.282,185.886 608.525,183.007 611.768,180.184 615.011,177.415 618.254,174.701 621.497,172.043 624.74,169.441 627.983,166.895 631.226,164.405 634.469,161.971 637.712,159.594 640.955,157.275 644.198,155.012 647.441,152.807 650.684,150.66 653.927,148.57 657.17,146.539 660.413,144.566 663.656,142.651 666.899,140.795 670.142,138.998 673.385,137.26 676.629,135.581 679.872,133.962 683.115,132.402 686.358,130.902 689.601,129.462 692.844,128.082 696.087,126.762 699.33,125.502 702.573,124.303 705.816,123.164 709.059,122.086 712.302,121.069 715.545,120.112 718.788,119.216 722.031,118.382 725.274,117.608 728.517,116.896 731.76,116.245 735.003,115.656 738.246,115.127 741.489,114.66 744.732,114.255 747.975,113.911 751.218,113.629 754.461,113.408 757.704,113.249 760.947,113.152 764.19,113.116 767.433,113.142 770.676,113.23 773.919,113.379 777.162,113.59 780.405,113.862 783.648,114.196 786.892,114.592 790.135,115.049 793.378,115.567 796.621,116.147 799.864,116.788 803.107,117.491 806.35,118.255 809.593,119.079 812.836,119.965 816.079,120.912 819.322,121.92 822.565,122.988 825.808,124.118 829.051,125.307 832.294,126.557 835.537,127.868 838.78,129.238 842.023,130.669 845.266,132.159 848.509,133.71 851.752,135.32 854.995,136.989 858.238,138.717 861.481,140.505 864.724,142.352 867.967,144.257 871.21,146.221 874.453,148.243 877.696,150.323 880.939,152.461 884.182,154.657 887.425,156.91 890.668,159.221 893.911,161.589 897.155,164.013 900.398,166.494 903.641,169.032 906.884,171.625 910.127,174.274 913.37,176.979 916.613,179.739 919.856,182.554 923.099,185.424 926.342,188.348 929.585,191.326 932.828,194.358 936.071,197.444 939.314,200.582 942.557,203.774 945.8,207.018 949.043,210.315 952.286,213.663 955.529,217.063 958.772,220.515 962.015,224.017 965.258,227.57 968.501,231.172 971.744,234.825 974.987,238.528 978.23,242.279 981.473,246.079 984.716,249.927 987.959,253.824 991.202,257.768 994.445,261.759 997.688,265.797 1000.93,269.881 1004.17,274.012 1007.42,278.188 1010.66,282.409 1013.9,286.674 1017.15,290.984 1020.39,295.338 1023.63,299.736 1026.88,304.176 1030.12,308.659 1033.36,313.184 1036.6,317.75 1039.85,322.358 1043.09,327.006 1046.33,331.695 1049.58,336.424 1052.82,341.191 1056.06,345.998 1059.31,350.843 1062.55,355.726 1065.79,360.646 1069.04,365.603 1072.28,370.597 1075.52,375.626 1078.76,380.691 1082.01,385.791 1085.25,390.925 1088.49,396.093 1091.74,401.295 1094.98,406.529 1098.22,411.795 1101.47,417.094 1104.71,422.423 1107.95,427.783 1111.19,433.174 1114.44,438.594 1117.68,444.043 1120.92,449.521 1124.17,455.026 1127.41,460.56 1130.65,466.12 1133.9,471.706 1137.14,477.318 1140.38,482.956 1143.62,488.618 1146.87,494.304 1150.11,500.014 1153.35,505.746 1156.6,511.501 1159.84,517.278 1163.08,523.076 1166.33,528.895 1169.57,534.734 1172.81,540.592 1176.06,546.469 1179.3,552.365 1182.54,558.278 1185.78,564.209 1189.03,570.155 1192.27,576.118 1195.51,582.097 1198.76,588.089 1202,594.097 1205.24,600.117 1208.49,606.151 1211.73,612.197 1214.97,618.254 1218.21,624.323 1221.46,630.403 1224.7,636.492 1227.94,642.59 1231.19,648.698 1234.43,654.813 1237.67,660.936 1240.92,667.065 1244.16,673.201 1247.4,679.343 1250.64,685.49 1253.89,691.641 1257.13,697.795 1260.37,703.953 1263.62,710.114 1266.86,716.276 1270.1,722.44 1273.35,728.605 1276.59,734.769 1279.83,740.934 1283.08,747.097 1286.32,753.258 1289.56,759.417 1292.8,765.573 1296.05,771.725 1299.29,777.873 1302.53,784.016 1305.78,790.154 1309.02,796.286 1312.26,802.411 1315.51,808.529 1318.75,814.639 1321.99,820.74 1325.23,826.832 1328.48,832.915 1331.72,838.987 1334.96,845.048 1338.21,851.098 1341.45,857.136 1344.69,863.16 1347.94,869.172 1351.18,875.169 1354.42,881.152 1357.66,887.12 1360.91,893.072 1364.15,899.008 1367.39,904.927 1370.64,910.828 1373.88,916.711 1377.12,922.575 1380.37,928.421 1383.61,934.246 1386.85,940.05 1390.1,945.834 1393.34,951.596 1396.58,957.336 1399.82,963.053 1403.07,968.747 1406.31,974.417 1409.55,980.062 1412.8,985.682 1416.04,991.277 1419.28,996.846 1422.53,1002.39 1425.77,1007.9 1429.01,1013.39 1432.25,1018.85 1435.5,1024.28 1438.74,1029.68 1441.98,1035.05 1445.23,1040.39 1448.47,1045.69 1451.71,1050.97 1454.96,1056.21 1458.2,1061.43 1461.44,1066.61 1464.68,1071.75 1467.93,1076.86 1471.17,1081.94 1474.41,1086.98 1477.66,1091.98 1480.9,1096.95 1484.14,1101.88 1487.39,1106.78 1490.63,1111.64 1493.87,1116.46 1497.11,1121.24 1500.36,1125.98 1503.6,1130.68 1506.84,1135.34 1510.09,1139.96 1513.33,1144.54 1516.57,1149.08 1519.82,1153.57 1523.06,1158.03 1526.3,1162.44 1529.55,1166.81 1532.79,1171.13 1536.03,1175.41 1539.27,1179.65 1542.52,1183.84 1545.76,1187.98 1549,1192.08 1552.25,1196.13 1555.49,1200.14 1558.73,1204.1 1561.98,1208.01 1565.22,1211.87 1568.46,1215.69 1571.7,1219.46 1574.95,1223.17 1578.19,1226.84 1581.43,1230.46 1584.68,1234.03 1587.92,1237.55 1591.16,1241.02 1594.41,1244.43 1597.65,1247.8 1600.89,1251.11 1604.13,1254.37 1607.38,1257.58 1610.62,1260.74 1613.86,1263.84 1617.11,1266.89 1620.35,1269.88 1623.59,1272.82 1626.84,1275.71 1630.08,1278.54 1633.32,1281.32 1636.57,1284.04 1639.81,1286.71 1643.05,1289.32 1646.29,1291.88 1649.54,1294.38 1652.78,1296.82 1656.02,1299.2 1659.27,1301.53 1662.51,1303.8 1665.75,1306.02 1669,1308.18 1672.24,1310.27 1675.48,1312.31 1678.72,1314.3 1681.97,1316.22 1685.21,1318.09 1688.45,1319.89 1691.7,1321.64 1694.94,1323.33 1698.18,1324.96 1701.43,1326.53 1704.67,1328.04 1707.91,1329.49 1711.15,1330.88 1714.4,1332.21 1717.64,1333.47 1720.88,1334.68 1724.13,1335.83 1727.37,1336.92 1730.61,1337.95 1733.86,1338.91 1737.1,1339.82 1740.34,1340.66 1743.59,1341.45 1746.83,1342.17 1750.07,1342.83 1753.31,1343.43 1756.56,1343.97 1759.8,1344.44 1763.04,1344.86 1766.29,1345.21 1769.53,1345.5 1772.77,1345.73 1776.02,1345.9 1779.26,1346.01 1782.5,1346.06 1785.74,1346.04 1788.99,1345.96 1792.23,1345.82 1795.47,1345.62 1798.72,1345.36 1801.96,1345.03 1805.2,1344.65 1808.45,1344.2 1811.69,1343.69 1814.93,1343.12 1818.17,1342.49 1821.42,1341.8 1824.66,1341.04 1827.9,1340.23 1831.15,1339.35 1834.39,1338.42 1837.63,1337.42 1840.88,1336.36 1844.12,1335.24 1847.36,1334.06 1850.61,1332.82 1853.85,1331.52 1857.09,1330.16 1860.33,1328.74 1863.58,1327.26 1866.82,1325.71 1870.06,1324.11 1873.31,1322.45 1876.55,1320.74 1879.79,1318.96 1883.04,1317.12 1886.28,1315.22 1889.52,1313.27 1892.76,1311.26 1896.01,1309.19 1899.25,1307.06 1902.49,1304.87 1905.74,1302.63 1908.98,1300.32 1912.22,1297.97 1915.47,1295.55 1918.71,1293.08 1921.95,1290.55 1925.19,1287.97 1928.44,1285.32 1931.68,1282.63 1934.92,1279.88 1938.17,1277.07 1941.41,1274.21 1944.65,1271.29 1947.9,1268.33 1951.14,1265.3 1954.38,1262.22 1957.63,1259.09 1960.87,1255.91 1964.11,1252.68 1967.35,1249.39 1970.6,1246.05 1973.84,1242.65 1977.08,1239.21 1980.33,1235.72 1983.57,1232.17 1986.81,1228.58 1990.06,1224.93 1993.3,1221.24 1996.54,1217.5 1999.78,1213.7 2003.03,1209.86 2006.27,1205.97 2009.51,1202.04 2012.76,1198.05 2016,1194.02 2019.24,1189.95 2022.49,1185.82 2025.73,1181.65 2028.97,1177.44 2032.21,1173.18 2035.46,1168.88 2038.7,1164.53 2041.94,1160.14 2045.19,1155.71 2048.43,1151.23 2051.67,1146.71 2054.92,1142.15 2058.16,1137.55 2061.4,1132.91 2064.65,1128.23 2067.89,1123.51 2071.13,1118.74 2074.37,1113.94 2077.62,1109.1 2080.86,1104.23 2084.1,1099.31 2087.35,1094.36 2090.59,1089.37 2093.83,1084.35 2097.08,1079.29 2100.32,1074.2 2103.56,1069.07 2106.8,1063.91 2110.05,1058.71 2113.29,1053.48 2116.53,1048.22 2119.78,1042.93 2123.02,1037.6 2126.26,1032.25 2129.51,1026.86 2132.75,1021.44 2135.99,1016 2139.23,1010.53 2142.48,1005.03 2145.72,999.497 2148.96,993.941 2152.21,988.359 2155.45,982.751 2158.69,977.117 2161.94,971.459 2165.18,965.777 2168.42,960.071 2171.67,954.342 2174.91,948.59 2178.15,942.817 2181.39,937.022 2184.64,931.206 2187.88,925.371 2191.12,919.515 2194.37,913.641 2197.61,907.749 2200.85,901.838 2204.1,895.91 2207.34,889.966 2210.58,884.006 2213.82,878.03 2217.07,872.039 2220.31,866.034 2223.55,860.016 2226.8,853.984 2230.04,847.94 2233.28,841.884 2236.53,835.817 2239.77,829.74 2243.01,823.652 2246.25,817.555 2249.5,811.449 2252.74,805.335 2255.98,799.213 2259.23,793.085 2262.47,786.95 2265.71,780.809 2268.96,774.663 2272.2,768.513 2275.44,762.358 2278.69,756.201 2281.93,750.041 2285.17,743.878 2288.41,737.715 2291.66,731.55 "/>
<circle clip-path="url(#clip961)" cx="621.497" cy="260.557" r="14.4" fill="#e26f46" fill-rule="evenodd" fill-opacity="1" stroke="#000000" stroke-opacity="1" stroke-width="3.2"/>
<circle clip-path="url(#clip961)" cx="2217.07" cy="1009.93" r="14.4" fill="#e26f46" fill-rule="evenodd" fill-opacity="1" stroke="#000000" stroke-opacity="1" stroke-width="3.2"/>
<circle clip-path="url(#clip961)" cx="1565.22" cy="1205.19" r="14.4" fill="#e26f46" fill-rule="evenodd" fill-opacity="1" stroke="#000000" stroke-opacity="1" stroke-width="3.2"/>
<circle clip-path="url(#clip961)" cx="1490.63" cy="1147.7" r="14.4" fill="#e26f46" fill-rule="evenodd" fill-opacity="1" stroke="#000000" stroke-opacity="1" stroke-width="3.2"/>
<circle clip-path="url(#clip961)" cx="2074.37" cy="1000.94" r="14.4" fill="#e26f46" fill-rule="evenodd" fill-opacity="1" stroke="#000000" stroke-opacity="1" stroke-width="3.2"/>
<circle clip-path="url(#clip961)" cx="987.959" cy="323.521" r="14.4" fill="#e26f46" fill-rule="evenodd" fill-opacity="1" stroke="#000000" stroke-opacity="1" stroke-width="3.2"/>
<circle clip-path="url(#clip961)" cx="1814.93" cy="1445.72" r="14.4" fill="#e26f46" fill-rule="evenodd" fill-opacity="1" stroke="#000000" stroke-opacity="1" stroke-width="3.2"/>
<circle clip-path="url(#clip961)" cx="1740.34" cy="1190.29" r="14.4" fill="#e26f46" fill-rule="evenodd" fill-opacity="1" stroke="#000000" stroke-opacity="1" stroke-width="3.2"/>
<circle clip-path="url(#clip961)" cx="1409.55" cy="1116.21" r="14.4" fill="#e26f46" fill-rule="evenodd" fill-opacity="1" stroke="#000000" stroke-opacity="1" stroke-width="3.2"/>
<circle clip-path="url(#clip961)" cx="2291.66" cy="741.484" r="14.4" fill="#e26f46" fill-rule="evenodd" fill-opacity="1" stroke="#000000" stroke-opacity="1" stroke-width="3.2"/>
<circle clip-path="url(#clip961)" cx="2223.55" cy="893.85" r="14.4" fill="#e26f46" fill-rule="evenodd" fill-opacity="1" stroke="#000000" stroke-opacity="1" stroke-width="3.2"/>
<circle clip-path="url(#clip961)" cx="2275.44" cy="770.686" r="14.4" fill="#e26f46" fill-rule="evenodd" fill-opacity="1" stroke="#000000" stroke-opacity="1" stroke-width="3.2"/>
<circle clip-path="url(#clip961)" cx="621.497" cy="87.9763" r="14.4" fill="#e26f46" fill-rule="evenodd" fill-opacity="1" stroke="#000000" stroke-opacity="1" stroke-width="3.2"/>
<circle clip-path="url(#clip961)" cx="264.764" cy="855.509" r="14.4" fill="#e26f46" fill-rule="evenodd" fill-opacity="1" stroke="#000000" stroke-opacity="1" stroke-width="3.2"/>
<circle clip-path="url(#clip961)" cx="387.999" cy="517.434" r="14.4" fill="#e26f46" fill-rule="evenodd" fill-opacity="1" stroke="#000000" stroke-opacity="1" stroke-width="3.2"/>
<circle clip-path="url(#clip961)" cx="1214.97" cy="731.859" r="14.4" fill="#e26f46" fill-rule="evenodd" fill-opacity="1" stroke="#000000" stroke-opacity="1" stroke-width="3.2"/>
<circle clip-path="url(#clip961)" cx="2191.12" cy="973.962" r="14.4" fill="#e26f46" fill-rule="evenodd" fill-opacity="1" stroke="#000000" stroke-opacity="1" stroke-width="3.2"/>
<circle clip-path="url(#clip961)" cx="303.68" cy="554.836" r="14.4" fill="#e26f46" fill-rule="evenodd" fill-opacity="1" stroke="#000000" stroke-opacity="1" stroke-width="3.2"/>
<circle clip-path="url(#clip961)" cx="1328.48" cy="840.352" r="14.4" fill="#e26f46" fill-rule="evenodd" fill-opacity="1" stroke="#000000" stroke-opacity="1" stroke-width="3.2"/>
<circle clip-path="url(#clip961)" cx="627.983" cy="122.827" r="14.4" fill="#e26f46" fill-rule="evenodd" fill-opacity="1" stroke="#000000" stroke-opacity="1" stroke-width="3.2"/>
<path clip-path="url(#clip960)" d="M1953.46 250.738 L2280.8 250.738 L2280.8 95.2176 L1953.46 95.2176  Z" fill="#ffffff" fill-rule="evenodd" fill-opacity="1"/>
<polyline clip-path="url(#clip960)" style="stroke:#000000; stroke-linecap:round; stroke-linejoin:round; stroke-width:4; stroke-opacity:1; fill:none" points="1953.46,250.738 2280.8,250.738 2280.8,95.2176 1953.46,95.2176 1953.46,250.738 "/>
<polyline clip-path="url(#clip960)" style="stroke:#009af9; stroke-linecap:round; stroke-linejoin:round; stroke-width:4; stroke-opacity:1; fill:none" points="1977.44,147.058 2121.36,147.058 "/>
<path clip-path="url(#clip960)" d="M2152.76 131.051 L2152.76 138.412 L2161.53 138.412 L2161.53 141.722 L2152.76 141.722 L2152.76 155.796 Q2152.76 158.967 2153.61 159.87 Q2154.49 160.773 2157.16 160.773 L2161.53 160.773 L2161.53 164.338 L2157.16 164.338 Q2152.23 164.338 2150.35 162.509 Q2148.48 160.657 2148.48 155.796 L2148.48 141.722 L2145.35 141.722 L2145.35 138.412 L2148.48 138.412 L2148.48 131.051 L2152.76 131.051 Z" fill="#000000" fill-rule="nonzero" fill-opacity="1" /><path clip-path="url(#clip960)" d="M2182.16 142.393 Q2181.44 141.977 2180.58 141.791 Q2179.75 141.583 2178.73 141.583 Q2175.12 141.583 2173.17 143.944 Q2171.25 146.282 2171.25 150.68 L2171.25 164.338 L2166.97 164.338 L2166.97 138.412 L2171.25 138.412 L2171.25 142.44 Q2172.6 140.078 2174.75 138.944 Q2176.9 137.787 2179.98 137.787 Q2180.42 137.787 2180.95 137.856 Q2181.48 137.903 2182.13 138.018 L2182.16 142.393 Z" fill="#000000" fill-rule="nonzero" fill-opacity="1" /><path clip-path="url(#clip960)" d="M2186.18 154.106 L2186.18 138.412 L2190.44 138.412 L2190.44 153.944 Q2190.44 157.625 2191.88 159.476 Q2193.31 161.305 2196.18 161.305 Q2199.63 161.305 2201.62 159.106 Q2203.64 156.907 2203.64 153.111 L2203.64 138.412 L2207.9 138.412 L2207.9 164.338 L2203.64 164.338 L2203.64 160.356 Q2202.09 162.717 2200.03 163.875 Q2197.99 165.009 2195.28 165.009 Q2190.81 165.009 2188.5 162.231 Q2186.18 159.453 2186.18 154.106 M2196.9 137.787 L2196.9 137.787 Z" fill="#000000" fill-rule="nonzero" fill-opacity="1" /><path clip-path="url(#clip960)" d="M2220.88 131.051 L2220.88 138.412 L2229.66 138.412 L2229.66 141.722 L2220.88 141.722 L2220.88 155.796 Q2220.88 158.967 2221.74 159.87 Q2222.62 160.773 2225.28 160.773 L2229.66 160.773 L2229.66 164.338 L2225.28 164.338 Q2220.35 164.338 2218.48 162.509 Q2216.6 160.657 2216.6 155.796 L2216.6 141.722 L2213.48 141.722 L2213.48 138.412 L2216.6 138.412 L2216.6 131.051 L2220.88 131.051 Z" fill="#000000" fill-rule="nonzero" fill-opacity="1" /><path clip-path="url(#clip960)" d="M2256.81 148.689 L2256.81 164.338 L2252.55 164.338 L2252.55 148.828 Q2252.55 145.148 2251.11 143.319 Q2249.68 141.49 2246.81 141.49 Q2243.36 141.49 2241.37 143.69 Q2239.38 145.889 2239.38 149.685 L2239.38 164.338 L2235.1 164.338 L2235.1 128.319 L2239.38 128.319 L2239.38 142.44 Q2240.91 140.102 2242.97 138.944 Q2245.05 137.787 2247.76 137.787 Q2252.23 137.787 2254.52 140.565 Q2256.81 143.319 2256.81 148.689 Z" fill="#000000" fill-rule="nonzero" fill-opacity="1" /><circle clip-path="url(#clip960)" cx="2049.4" cy="198.898" r="20.48" fill="#e26f46" fill-rule="evenodd" fill-opacity="1" stroke="#000000" stroke-opacity="1" stroke-width="4.55111"/>
<path clip-path="url(#clip960)" d="M2164.26 194.187 L2164.26 180.159 L2168.52 180.159 L2168.52 216.178 L2164.26 216.178 L2164.26 212.289 Q2162.92 214.603 2160.86 215.738 Q2158.82 216.849 2155.95 216.849 Q2151.25 216.849 2148.29 213.099 Q2145.35 209.349 2145.35 203.238 Q2145.35 197.127 2148.29 193.377 Q2151.25 189.627 2155.95 189.627 Q2158.82 189.627 2160.86 190.761 Q2162.92 191.872 2164.26 194.187 M2149.75 203.238 Q2149.75 207.937 2151.67 210.622 Q2153.61 213.284 2156.99 213.284 Q2160.37 213.284 2162.32 210.622 Q2164.26 207.937 2164.26 203.238 Q2164.26 198.539 2162.32 195.877 Q2160.37 193.192 2156.99 193.192 Q2153.61 193.192 2151.67 195.877 Q2149.75 198.539 2149.75 203.238 Z" fill="#000000" fill-rule="nonzero" fill-opacity="1" /><path clip-path="url(#clip960)" d="M2189.08 203.145 Q2183.92 203.145 2181.92 204.326 Q2179.93 205.506 2179.93 208.354 Q2179.93 210.622 2181.42 211.965 Q2182.92 213.284 2185.49 213.284 Q2189.03 213.284 2191.16 210.784 Q2193.31 208.261 2193.31 204.094 L2193.31 203.145 L2189.08 203.145 M2197.57 201.386 L2197.57 216.178 L2193.31 216.178 L2193.31 212.242 Q2191.85 214.603 2189.68 215.738 Q2187.5 216.849 2184.36 216.849 Q2180.37 216.849 2178.01 214.627 Q2175.67 212.381 2175.67 208.631 Q2175.67 204.256 2178.59 202.034 Q2181.53 199.812 2187.34 199.812 L2193.31 199.812 L2193.31 199.395 Q2193.31 196.455 2191.37 194.858 Q2189.45 193.238 2185.95 193.238 Q2183.73 193.238 2181.62 193.77 Q2179.52 194.303 2177.57 195.367 L2177.57 191.432 Q2179.91 190.53 2182.11 190.09 Q2184.31 189.627 2186.39 189.627 Q2192.02 189.627 2194.79 192.543 Q2197.57 195.46 2197.57 201.386 Z" fill="#000000" fill-rule="nonzero" fill-opacity="1" /><path clip-path="url(#clip960)" d="M2210.56 182.891 L2210.56 190.252 L2219.33 190.252 L2219.33 193.562 L2210.56 193.562 L2210.56 207.636 Q2210.56 210.807 2211.42 211.71 Q2212.29 212.613 2214.96 212.613 L2219.33 212.613 L2219.33 216.178 L2214.96 216.178 Q2210.03 216.178 2208.15 214.349 Q2206.28 212.497 2206.28 207.636 L2206.28 193.562 L2203.15 193.562 L2203.15 190.252 L2206.28 190.252 L2206.28 182.891 L2210.56 182.891 Z" fill="#000000" fill-rule="nonzero" fill-opacity="1" /><path clip-path="url(#clip960)" d="M2236.72 203.145 Q2231.55 203.145 2229.56 204.326 Q2227.57 205.506 2227.57 208.354 Q2227.57 210.622 2229.05 211.965 Q2230.56 213.284 2233.13 213.284 Q2236.67 213.284 2238.8 210.784 Q2240.95 208.261 2240.95 204.094 L2240.95 203.145 L2236.72 203.145 M2245.21 201.386 L2245.21 216.178 L2240.95 216.178 L2240.95 212.242 Q2239.49 214.603 2237.32 215.738 Q2235.14 216.849 2231.99 216.849 Q2228.01 216.849 2225.65 214.627 Q2223.31 212.381 2223.31 208.631 Q2223.31 204.256 2226.23 202.034 Q2229.17 199.812 2234.98 199.812 L2240.95 199.812 L2240.95 199.395 Q2240.95 196.455 2239.01 194.858 Q2237.09 193.238 2233.59 193.238 Q2231.37 193.238 2229.26 193.77 Q2227.16 194.303 2225.21 195.367 L2225.21 191.432 Q2227.55 190.53 2229.75 190.09 Q2231.95 189.627 2234.03 189.627 Q2239.66 189.627 2242.43 192.543 Q2245.21 195.46 2245.21 201.386 Z" fill="#000000" fill-rule="nonzero" fill-opacity="1" /></svg>
