<?xml version="1.0" encoding="utf-8"?>
<svg xmlns="http://www.w3.org/2000/svg" xmlns:xlink="http://www.w3.org/1999/xlink" width="600" height="400" viewBox="0 0 2400 1600">
<defs>
  <clipPath id="clip990">
    <rect x="0" y="0" width="2400" height="1600"/>
  </clipPath>
</defs>
<path clip-path="url(#clip990)" d="M0 1600 L2400 1600 L2400 0 L0 0  Z" fill="#ffffff" fill-rule="evenodd" fill-opacity="1"/>
<defs>
  <clipPath id="clip991">
    <rect x="193" y="47" width="2160" height="1440"/>
  </clipPath>
</defs>
<path clip-path="url(#clip990)" d="M193.936 1486.45 L2352.76 1486.45 L2352.76 47.2441 L193.936 47.2441  Z" fill="#ffffff" fill-rule="evenodd" fill-opacity="1"/>
<polyline clip-path="url(#clip991)" style="stroke:#000000; stroke-linecap:round; stroke-linejoin:round; stroke-width:2; stroke-opacity:0.1; fill:none" points="255.035,1486.45 255.035,47.2441 "/>
<polyline clip-path="url(#clip991)" style="stroke:#000000; stroke-linecap:round; stroke-linejoin:round; stroke-width:2; stroke-opacity:0.1; fill:none" points="579.338,1486.45 579.338,47.2441 "/>
<polyline clip-path="url(#clip991)" style="stroke:#000000; stroke-linecap:round; stroke-linejoin:round; stroke-width:2; stroke-opacity:0.1; fill:none" points="903.641,1486.45 903.641,47.2441 "/>
<polyline clip-path="url(#clip991)" style="stroke:#000000; stroke-linecap:round; stroke-linejoin:round; stroke-width:2; stroke-opacity:0.1; fill:none" points="1227.94,1486.45 1227.94,47.2441 "/>
<polyline clip-path="url(#clip991)" style="stroke:#000000; stroke-linecap:round; stroke-linejoin:round; stroke-width:2; stroke-opacity:0.1; fill:none" points="1552.25,1486.45 1552.25,47.2441 "/>
<polyline clip-path="url(#clip991)" style="stroke:#000000; stroke-linecap:round; stroke-linejoin:round; stroke-width:2; stroke-opacity:0.1; fill:none" points="1876.55,1486.45 1876.55,47.2441 "/>
<polyline clip-path="url(#clip991)" style="stroke:#000000; stroke-linecap:round; stroke-linejoin:round; stroke-width:2; stroke-opacity:0.1; fill:none" points="2200.85,1486.45 2200.85,47.2441 "/>
<polyline clip-path="url(#clip991)" style="stroke:#000000; stroke-linecap:round; stroke-linejoin:round; stroke-width:2; stroke-opacity:0.1; fill:none" points="193.936,1309.25 2352.76,1309.25 "/>
<polyline clip-path="url(#clip991)" style="stroke:#000000; stroke-linecap:round; stroke-linejoin:round; stroke-width:2; stroke-opacity:0.1; fill:none" points="193.936,1046.77 2352.76,1046.77 "/>
<polyline clip-path="url(#clip991)" style="stroke:#000000; stroke-linecap:round; stroke-linejoin:round; stroke-width:2; stroke-opacity:0.1; fill:none" points="193.936,784.29 2352.76,784.29 "/>
<polyline clip-path="url(#clip991)" style="stroke:#000000; stroke-linecap:round; stroke-linejoin:round; stroke-width:2; stroke-opacity:0.1; fill:none" points="193.936,521.809 2352.76,521.809 "/>
<polyline clip-path="url(#clip991)" style="stroke:#000000; stroke-linecap:round; stroke-linejoin:round; stroke-width:2; stroke-opacity:0.1; fill:none" points="193.936,259.329 2352.76,259.329 "/>
<polyline clip-path="url(#clip990)" style="stroke:#000000; stroke-linecap:round; stroke-linejoin:round; stroke-width:4; stroke-opacity:1; fill:none" points="193.936,1486.45 2352.76,1486.45 "/>
<polyline clip-path="url(#clip990)" style="stroke:#000000; stroke-linecap:round; stroke-linejoin:round; stroke-width:4; stroke-opacity:1; fill:none" points="255.035,1486.45 255.035,1467.55 "/>
<polyline clip-path="url(#clip990)" style="stroke:#000000; stroke-linecap:round; stroke-linejoin:round; stroke-width:4; stroke-opacity:1; fill:none" points="579.338,1486.45 579.338,1467.55 "/>
<polyline clip-path="url(#clip990)" style="stroke:#000000; stroke-linecap:round; stroke-linejoin:round; stroke-width:4; stroke-opacity:1; fill:none" points="903.641,1486.45 903.641,1467.55 "/>
<polyline clip-path="url(#clip990)" style="stroke:#000000; stroke-linecap:round; stroke-linejoin:round; stroke-width:4; stroke-opacity:1; fill:none" points="1227.94,1486.45 1227.94,1467.55 "/>
<polyline clip-path="url(#clip990)" style="stroke:#000000; stroke-linecap:round; stroke-linejoin:round; stroke-width:4; stroke-opacity:1; fill:none" points="1552.25,1486.45 1552.25,1467.55 "/>
<polyline clip-path="url(#clip990)" style="stroke:#000000; stroke-linecap:round; stroke-linejoin:round; stroke-width:4; stroke-opacity:1; fill:none" points="1876.55,1486.45 1876.55,1467.55 "/>
<polyline clip-path="url(#clip990)" style="stroke:#000000; stroke-linecap:round; stroke-linejoin:round; stroke-width:4; stroke-opacity:1; fill:none" points="2200.85,1486.45 2200.85,1467.55 "/>
<path clip-path="url(#clip990)" d="M255.035 1517.37 Q251.424 1517.37 249.595 1520.93 Q247.789 1524.47 247.789 1531.6 Q247.789 1538.71 249.595 1542.27 Q251.424 1545.82 255.035 1545.82 Q258.669 1545.82 260.474 1542.27 Q262.303 1538.71 262.303 1531.6 Q262.303 1524.47 260.474 1520.93 Q258.669 1517.37 255.035 1517.37 M255.035 1513.66 Q260.845 1513.66 263.9 1518.27 Q266.979 1522.85 266.979 1531.6 Q266.979 1540.33 263.9 1544.94 Q260.845 1549.52 255.035 1549.52 Q249.225 1549.52 246.146 1544.94 Q243.09 1540.33 243.09 1531.6 Q243.09 1522.85 246.146 1518.27 Q249.225 1513.66 255.035 1513.66 Z" fill="#000000" fill-rule="nonzero" fill-opacity="1" /><path clip-path="url(#clip990)" d="M569.72 1544.91 L577.358 1544.91 L577.358 1518.55 L569.048 1520.21 L569.048 1515.95 L577.312 1514.29 L581.988 1514.29 L581.988 1544.91 L589.627 1544.91 L589.627 1548.85 L569.72 1548.85 L569.72 1544.91 Z" fill="#000000" fill-rule="nonzero" fill-opacity="1" /><path clip-path="url(#clip990)" d="M898.293 1544.91 L914.613 1544.91 L914.613 1548.85 L892.668 1548.85 L892.668 1544.91 Q895.33 1542.16 899.914 1537.53 Q904.52 1532.88 905.701 1531.53 Q907.946 1529.01 908.826 1527.27 Q909.729 1525.51 909.729 1523.82 Q909.729 1521.07 907.784 1519.33 Q905.863 1517.6 902.761 1517.6 Q900.562 1517.6 898.108 1518.36 Q895.678 1519.13 892.9 1520.68 L892.9 1515.95 Q895.724 1514.82 898.178 1514.24 Q900.631 1513.66 902.668 1513.66 Q908.039 1513.66 911.233 1516.35 Q914.428 1519.03 914.428 1523.52 Q914.428 1525.65 913.617 1527.57 Q912.83 1529.47 910.724 1532.07 Q910.145 1532.74 907.043 1535.95 Q903.942 1539.15 898.293 1544.91 Z" fill="#000000" fill-rule="nonzero" fill-opacity="1" /><path clip-path="url(#clip990)" d="M1232.19 1530.21 Q1235.55 1530.93 1237.42 1533.2 Q1239.32 1535.47 1239.32 1538.8 Q1239.32 1543.92 1235.8 1546.72 Q1232.28 1549.52 1225.8 1549.52 Q1223.63 1549.52 1221.31 1549.08 Q1219.02 1548.66 1216.57 1547.81 L1216.57 1543.29 Q1218.51 1544.43 1220.83 1545.01 Q1223.14 1545.58 1225.66 1545.58 Q1230.06 1545.58 1232.35 1543.85 Q1234.67 1542.11 1234.67 1538.8 Q1234.67 1535.75 1232.52 1534.03 Q1230.39 1532.3 1226.57 1532.3 L1222.54 1532.3 L1222.54 1528.45 L1226.75 1528.45 Q1230.2 1528.45 1232.03 1527.09 Q1233.86 1525.7 1233.86 1523.11 Q1233.86 1520.45 1231.96 1519.03 Q1230.08 1517.6 1226.57 1517.6 Q1224.64 1517.6 1222.45 1518.01 Q1220.25 1518.43 1217.61 1519.31 L1217.61 1515.14 Q1220.27 1514.4 1222.58 1514.03 Q1224.92 1513.66 1226.98 1513.66 Q1232.31 1513.66 1235.41 1516.09 Q1238.51 1518.5 1238.51 1522.62 Q1238.51 1525.49 1236.87 1527.48 Q1235.22 1529.45 1232.19 1530.21 Z" fill="#000000" fill-rule="nonzero" fill-opacity="1" /><path clip-path="url(#clip990)" d="M1555.26 1518.36 L1543.45 1536.81 L1555.26 1536.81 L1555.26 1518.36 M1554.03 1514.29 L1559.91 1514.29 L1559.91 1536.81 L1564.84 1536.81 L1564.84 1540.7 L1559.91 1540.7 L1559.91 1548.85 L1555.26 1548.85 L1555.26 1540.7 L1539.65 1540.7 L1539.65 1536.19 L1554.03 1514.29 Z" fill="#000000" fill-rule="nonzero" fill-opacity="1" /><path clip-path="url(#clip990)" d="M1866.83 1514.29 L1885.18 1514.29 L1885.18 1518.22 L1871.11 1518.22 L1871.11 1526.7 Q1872.13 1526.35 1873.15 1526.19 Q1874.17 1526 1875.18 1526 Q1880.97 1526 1884.35 1529.17 Q1887.73 1532.34 1887.73 1537.76 Q1887.73 1543.34 1884.26 1546.44 Q1880.79 1549.52 1874.47 1549.52 Q1872.29 1549.52 1870.02 1549.15 Q1867.78 1548.78 1865.37 1548.04 L1865.37 1543.34 Q1867.45 1544.47 1869.67 1545.03 Q1871.9 1545.58 1874.37 1545.58 Q1878.38 1545.58 1880.72 1543.48 Q1883.05 1541.37 1883.05 1537.76 Q1883.05 1534.15 1880.72 1532.04 Q1878.38 1529.94 1874.37 1529.94 Q1872.5 1529.94 1870.62 1530.35 Q1868.77 1530.77 1866.83 1531.65 L1866.83 1514.29 Z" fill="#000000" fill-rule="nonzero" fill-opacity="1" /><path clip-path="url(#clip990)" d="M2201.26 1529.7 Q2198.11 1529.7 2196.26 1531.86 Q2194.43 1534.01 2194.43 1537.76 Q2194.43 1541.49 2196.26 1543.66 Q2198.11 1545.82 2201.26 1545.82 Q2204.41 1545.82 2206.23 1543.66 Q2208.09 1541.49 2208.09 1537.76 Q2208.09 1534.01 2206.23 1531.86 Q2204.41 1529.7 2201.26 1529.7 M2210.54 1515.05 L2210.54 1519.31 Q2208.78 1518.48 2206.98 1518.04 Q2205.19 1517.6 2203.43 1517.6 Q2198.8 1517.6 2196.35 1520.72 Q2193.92 1523.85 2193.57 1530.17 Q2194.94 1528.15 2197 1527.09 Q2199.06 1526 2201.54 1526 Q2206.74 1526 2209.75 1529.17 Q2212.79 1532.32 2212.79 1537.76 Q2212.79 1543.08 2209.64 1546.3 Q2206.49 1549.52 2201.26 1549.52 Q2195.26 1549.52 2192.09 1544.94 Q2188.92 1540.33 2188.92 1531.6 Q2188.92 1523.41 2192.81 1518.55 Q2196.7 1513.66 2203.25 1513.66 Q2205.01 1513.66 2206.79 1514.01 Q2208.6 1514.36 2210.54 1515.05 Z" fill="#000000" fill-rule="nonzero" fill-opacity="1" /><polyline clip-path="url(#clip990)" style="stroke:#000000; stroke-linecap:round; stroke-linejoin:round; stroke-width:4; stroke-opacity:1; fill:none" points="193.936,1486.45 193.936,47.2441 "/>
<polyline clip-path="url(#clip990)" style="stroke:#000000; stroke-linecap:round; stroke-linejoin:round; stroke-width:4; stroke-opacity:1; fill:none" points="193.936,1309.25 212.834,1309.25 "/>
<polyline clip-path="url(#clip990)" style="stroke:#000000; stroke-linecap:round; stroke-linejoin:round; stroke-width:4; stroke-opacity:1; fill:none" points="193.936,1046.77 212.834,1046.77 "/>
<polyline clip-path="url(#clip990)" style="stroke:#000000; stroke-linecap:round; stroke-linejoin:round; stroke-width:4; stroke-opacity:1; fill:none" points="193.936,784.29 212.834,784.29 "/>
<polyline clip-path="url(#clip990)" style="stroke:#000000; stroke-linecap:round; stroke-linejoin:round; stroke-width:4; stroke-opacity:1; fill:none" points="193.936,521.809 212.834,521.809 "/>
<polyline clip-path="url(#clip990)" style="stroke:#000000; stroke-linecap:round; stroke-linejoin:round; stroke-width:4; stroke-opacity:1; fill:none" points="193.936,259.329 212.834,259.329 "/>
<path clip-path="url(#clip990)" d="M50.9921 1309.7 L80.6679 1309.7 L80.6679 1313.64 L50.9921 1313.64 L50.9921 1309.7 Z" fill="#000000" fill-rule="nonzero" fill-opacity="1" /><path clip-path="url(#clip990)" d="M91.5706 1322.6 L99.2095 1322.6 L99.2095 1296.23 L90.8993 1297.9 L90.8993 1293.64 L99.1632 1291.97 L103.839 1291.97 L103.839 1322.6 L111.478 1322.6 L111.478 1326.53 L91.5706 1326.53 L91.5706 1322.6 Z" fill="#000000" fill-rule="nonzero" fill-opacity="1" /><path clip-path="url(#clip990)" d="M120.922 1320.65 L125.807 1320.65 L125.807 1326.53 L120.922 1326.53 L120.922 1320.65 Z" fill="#000000" fill-rule="nonzero" fill-opacity="1" /><path clip-path="url(#clip990)" d="M145.992 1295.05 Q142.381 1295.05 140.552 1298.62 Q138.746 1302.16 138.746 1309.29 Q138.746 1316.39 140.552 1319.96 Q142.381 1323.5 145.992 1323.5 Q149.626 1323.5 151.431 1319.96 Q153.26 1316.39 153.26 1309.29 Q153.26 1302.16 151.431 1298.62 Q149.626 1295.05 145.992 1295.05 M145.992 1291.35 Q151.802 1291.35 154.857 1295.95 Q157.936 1300.54 157.936 1309.29 Q157.936 1318.01 154.857 1322.62 Q151.802 1327.2 145.992 1327.2 Q140.181 1327.2 137.103 1322.62 Q134.047 1318.01 134.047 1309.29 Q134.047 1300.54 137.103 1295.95 Q140.181 1291.35 145.992 1291.35 Z" fill="#000000" fill-rule="nonzero" fill-opacity="1" /><path clip-path="url(#clip990)" d="M51.9875 1047.22 L81.6633 1047.22 L81.6633 1051.16 L51.9875 1051.16 L51.9875 1047.22 Z" fill="#000000" fill-rule="nonzero" fill-opacity="1" /><path clip-path="url(#clip990)" d="M101.756 1032.57 Q98.1447 1032.57 96.316 1036.13 Q94.5104 1039.68 94.5104 1046.81 Q94.5104 1053.91 96.316 1057.48 Q98.1447 1061.02 101.756 1061.02 Q105.39 1061.02 107.196 1057.48 Q109.024 1053.91 109.024 1046.81 Q109.024 1039.68 107.196 1036.13 Q105.39 1032.57 101.756 1032.57 M101.756 1028.87 Q107.566 1028.87 110.621 1033.47 Q113.7 1038.06 113.7 1046.81 Q113.7 1055.53 110.621 1060.14 Q107.566 1064.72 101.756 1064.72 Q95.9456 1064.72 92.8669 1060.14 Q89.8114 1055.53 89.8114 1046.81 Q89.8114 1038.06 92.8669 1033.47 Q95.9456 1028.87 101.756 1028.87 Z" fill="#000000" fill-rule="nonzero" fill-opacity="1" /><path clip-path="url(#clip990)" d="M121.918 1058.17 L126.802 1058.17 L126.802 1064.05 L121.918 1064.05 L121.918 1058.17 Z" fill="#000000" fill-rule="nonzero" fill-opacity="1" /><path clip-path="url(#clip990)" d="M137.033 1029.49 L155.39 1029.49 L155.39 1033.43 L141.316 1033.43 L141.316 1041.9 Q142.334 1041.55 143.353 1041.39 Q144.371 1041.2 145.39 1041.2 Q151.177 1041.2 154.556 1044.38 Q157.936 1047.55 157.936 1052.96 Q157.936 1058.54 154.464 1061.64 Q150.992 1064.72 144.672 1064.72 Q142.496 1064.72 140.228 1064.35 Q137.982 1063.98 135.575 1063.24 L135.575 1058.54 Q137.658 1059.68 139.881 1060.23 Q142.103 1060.79 144.58 1060.79 Q148.584 1060.79 150.922 1058.68 Q153.26 1056.57 153.26 1052.96 Q153.26 1049.35 150.922 1047.25 Q148.584 1045.14 144.58 1045.14 Q142.705 1045.14 140.83 1045.56 Q138.978 1045.97 137.033 1046.85 L137.033 1029.49 Z" fill="#000000" fill-rule="nonzero" fill-opacity="1" /><path clip-path="url(#clip990)" d="M100.76 770.089 Q97.1493 770.089 95.3206 773.654 Q93.515 777.195 93.515 784.325 Q93.515 791.432 95.3206 794.996 Q97.1493 798.538 100.76 798.538 Q104.395 798.538 106.2 794.996 Q108.029 791.432 108.029 784.325 Q108.029 777.195 106.2 773.654 Q104.395 770.089 100.76 770.089 M100.76 766.385 Q106.571 766.385 109.626 770.992 Q112.705 775.575 112.705 784.325 Q112.705 793.052 109.626 797.658 Q106.571 802.242 100.76 802.242 Q94.9502 802.242 91.8715 797.658 Q88.816 793.052 88.816 784.325 Q88.816 775.575 91.8715 770.992 Q94.9502 766.385 100.76 766.385 Z" fill="#000000" fill-rule="nonzero" fill-opacity="1" /><path clip-path="url(#clip990)" d="M120.922 795.691 L125.807 795.691 L125.807 801.57 L120.922 801.57 L120.922 795.691 Z" fill="#000000" fill-rule="nonzero" fill-opacity="1" /><path clip-path="url(#clip990)" d="M145.992 770.089 Q142.381 770.089 140.552 773.654 Q138.746 777.195 138.746 784.325 Q138.746 791.432 140.552 794.996 Q142.381 798.538 145.992 798.538 Q149.626 798.538 151.431 794.996 Q153.26 791.432 153.26 784.325 Q153.26 777.195 151.431 773.654 Q149.626 770.089 145.992 770.089 M145.992 766.385 Q151.802 766.385 154.857 770.992 Q157.936 775.575 157.936 784.325 Q157.936 793.052 154.857 797.658 Q151.802 802.242 145.992 802.242 Q140.181 802.242 137.103 797.658 Q134.047 793.052 134.047 784.325 Q134.047 775.575 137.103 770.992 Q140.181 766.385 145.992 766.385 Z" fill="#000000" fill-rule="nonzero" fill-opacity="1" /><path clip-path="url(#clip990)" d="M101.756 507.608 Q98.1447 507.608 96.316 511.173 Q94.5104 514.715 94.5104 521.844 Q94.5104 528.951 96.316 532.515 Q98.1447 536.057 101.756 536.057 Q105.39 536.057 107.196 532.515 Q109.024 528.951 109.024 521.844 Q109.024 514.715 107.196 511.173 Q105.39 507.608 101.756 507.608 M101.756 503.904 Q107.566 503.904 110.621 508.511 Q113.7 513.094 113.7 521.844 Q113.7 530.571 110.621 535.177 Q107.566 539.761 101.756 539.761 Q95.9456 539.761 92.8669 535.177 Q89.8114 530.571 89.8114 521.844 Q89.8114 513.094 92.8669 508.511 Q95.9456 503.904 101.756 503.904 Z" fill="#000000" fill-rule="nonzero" fill-opacity="1" /><path clip-path="url(#clip990)" d="M121.918 533.21 L126.802 533.21 L126.802 539.089 L121.918 539.089 L121.918 533.21 Z" fill="#000000" fill-rule="nonzero" fill-opacity="1" /><path clip-path="url(#clip990)" d="M137.033 504.529 L155.39 504.529 L155.39 508.465 L141.316 508.465 L141.316 516.937 Q142.334 516.59 143.353 516.428 Q144.371 516.242 145.39 516.242 Q151.177 516.242 154.556 519.414 Q157.936 522.585 157.936 528.002 Q157.936 533.58 154.464 536.682 Q150.992 539.761 144.672 539.761 Q142.496 539.761 140.228 539.39 Q137.982 539.02 135.575 538.279 L135.575 533.58 Q137.658 534.714 139.881 535.27 Q142.103 535.826 144.58 535.826 Q148.584 535.826 150.922 533.719 Q153.26 531.613 153.26 528.002 Q153.26 524.39 150.922 522.284 Q148.584 520.178 144.58 520.178 Q142.705 520.178 140.83 520.594 Q138.978 521.011 137.033 521.89 L137.033 504.529 Z" fill="#000000" fill-rule="nonzero" fill-opacity="1" /><path clip-path="url(#clip990)" d="M91.5706 272.673 L99.2095 272.673 L99.2095 246.308 L90.8993 247.974 L90.8993 243.715 L99.1632 242.049 L103.839 242.049 L103.839 272.673 L111.478 272.673 L111.478 276.609 L91.5706 276.609 L91.5706 272.673 Z" fill="#000000" fill-rule="nonzero" fill-opacity="1" /><path clip-path="url(#clip990)" d="M120.922 270.729 L125.807 270.729 L125.807 276.609 L120.922 276.609 L120.922 270.729 Z" fill="#000000" fill-rule="nonzero" fill-opacity="1" /><path clip-path="url(#clip990)" d="M145.992 245.127 Q142.381 245.127 140.552 248.692 Q138.746 252.234 138.746 259.363 Q138.746 266.47 140.552 270.035 Q142.381 273.576 145.992 273.576 Q149.626 273.576 151.431 270.035 Q153.26 266.47 153.26 259.363 Q153.26 252.234 151.431 248.692 Q149.626 245.127 145.992 245.127 M145.992 241.424 Q151.802 241.424 154.857 246.03 Q157.936 250.613 157.936 259.363 Q157.936 268.09 154.857 272.697 Q151.802 277.28 145.992 277.28 Q140.181 277.28 137.103 272.697 Q134.047 268.09 134.047 259.363 Q134.047 250.613 137.103 246.03 Q140.181 241.424 145.992 241.424 Z" fill="#000000" fill-rule="nonzero" fill-opacity="1" /><polyline clip-path="url(#clip991)" style="stroke:#009af9; stroke-linecap:round; stroke-linejoin:round; stroke-width:4; stroke-opacity:1; fill:none" points="255.035,784.29 258.278,779.041 261.521,773.792 264.764,768.544 268.007,763.297 271.25,758.053 274.493,752.812 277.736,747.573 280.979,742.338 284.222,737.108 287.465,731.882 290.708,726.661 293.951,721.446 297.194,716.237 300.437,711.036 303.68,705.841 306.923,700.654 310.166,695.476 313.409,690.307 316.652,685.147 319.895,679.997 323.138,674.857 326.381,669.728 329.624,664.611 332.867,659.506 336.11,654.413 339.353,649.333 342.596,644.267 345.84,639.214 349.083,634.176 352.326,629.154 355.569,624.146 358.812,619.155 362.055,614.18 365.298,609.222 368.541,604.282 371.784,599.36 375.027,594.456 378.27,589.571 381.513,584.706 384.756,579.861 387.999,575.036 391.242,570.232 394.485,565.449 397.728,560.688 400.971,555.95 404.214,551.235 407.457,546.542 410.7,541.874 413.943,537.23 417.186,532.61 420.429,528.016 423.672,523.447 426.915,518.905 430.158,514.389 433.401,509.9 436.644,505.438 439.887,501.004 443.13,496.599 446.373,492.222 449.616,487.875 452.859,483.557 456.103,479.269 459.346,475.012 462.589,470.786 465.832,466.591 469.075,462.427 472.318,458.296 475.561,454.198 478.804,450.133 482.047,446.101 485.29,442.103 488.533,438.139 491.776,434.209 495.019,430.315 498.262,426.456 501.505,422.633 504.748,418.846 507.991,415.096 511.234,411.382 514.477,407.706 517.72,404.067 520.963,400.467 524.206,396.905 527.449,393.381 530.692,389.897 533.935,386.452 537.178,383.047 540.421,379.682 543.664,376.357 546.907,373.074 550.15,369.831 553.393,366.63 556.636,363.471 559.879,360.353 563.122,357.278 566.366,354.246 569.609,351.257 572.852,348.311 576.095,345.409 579.338,342.55 582.581,339.736 585.824,336.966 589.067,334.241 592.31,331.561 595.553,328.926 598.796,326.337 602.039,323.794 605.282,321.296 608.525,318.845 611.768,316.441 615.011,314.083 618.254,311.772 621.497,309.508 624.74,307.292 627.983,305.124 631.226,303.004 634.469,300.931 637.712,298.908 640.955,296.932 644.198,295.005 647.441,293.128 650.684,291.299 653.927,289.52 657.17,287.79 660.413,286.11 663.656,284.479 666.899,282.899 670.142,281.369 673.385,279.889 676.629,278.459 679.872,277.08 683.115,275.752 686.358,274.475 689.601,273.248 692.844,272.073 696.087,270.949 699.33,269.876 702.573,268.855 705.816,267.885 709.059,266.967 712.302,266.1 715.545,265.286 718.788,264.523 722.031,263.813 725.274,263.154 728.517,262.547 731.76,261.993 735.003,261.491 738.246,261.041 741.489,260.644 744.732,260.298 747.975,260.006 751.218,259.765 754.461,259.577 757.704,259.442 760.947,259.359 764.19,259.329 767.433,259.351 770.676,259.425 773.919,259.552 777.162,259.732 780.405,259.964 783.648,260.248 786.892,260.585 790.135,260.974 793.378,261.416 796.621,261.91 799.864,262.456 803.107,263.054 806.35,263.704 809.593,264.407 812.836,265.161 816.079,265.967 819.322,266.825 822.565,267.735 825.808,268.697 829.051,269.71 832.294,270.774 835.537,271.89 838.78,273.058 842.023,274.276 845.266,275.545 848.509,276.865 851.752,278.236 854.995,279.658 858.238,281.13 861.481,282.652 864.724,284.224 867.967,285.847 871.21,287.519 874.453,289.241 877.696,291.012 880.939,292.833 884.182,294.703 887.425,296.622 890.668,298.59 893.911,300.606 897.155,302.67 900.398,304.783 903.641,306.944 906.884,309.152 910.127,311.408 913.37,313.712 916.613,316.062 919.856,318.459 923.099,320.903 926.342,323.393 929.585,325.929 932.828,328.511 936.071,331.138 939.314,333.811 942.557,336.529 945.8,339.292 949.043,342.099 952.286,344.95 955.529,347.846 958.772,350.785 962.015,353.767 965.258,356.792 968.501,359.861 971.744,362.971 974.987,366.124 978.23,369.318 981.473,372.554 984.716,375.832 987.959,379.15 991.202,382.508 994.445,385.907 997.688,389.346 1000.93,392.824 1004.17,396.341 1007.42,399.897 1010.66,403.491 1013.9,407.124 1017.15,410.794 1020.39,414.502 1023.63,418.246 1026.88,422.027 1030.12,425.845 1033.36,429.698 1036.6,433.587 1039.85,437.51 1043.09,441.469 1046.33,445.462 1049.58,449.488 1052.82,453.548 1056.06,457.642 1059.31,461.767 1062.55,465.925 1065.79,470.115 1069.04,474.337 1072.28,478.589 1075.52,482.872 1078.76,487.185 1082.01,491.528 1085.25,495.9 1088.49,500.301 1091.74,504.73 1094.98,509.187 1098.22,513.672 1101.47,518.184 1104.71,522.722 1107.95,527.287 1111.19,531.877 1114.44,536.492 1117.68,541.133 1120.92,545.797 1124.17,550.486 1127.41,555.198 1130.65,559.932 1133.9,564.689 1137.14,569.469 1140.38,574.269 1143.62,579.091 1146.87,583.933 1150.11,588.795 1153.35,593.677 1156.6,598.578 1159.84,603.497 1163.08,608.434 1166.33,613.389 1169.57,618.362 1172.81,623.35 1176.06,628.355 1179.3,633.375 1182.54,638.411 1185.78,643.461 1189.03,648.525 1192.27,653.603 1195.51,658.694 1198.76,663.797 1202,668.912 1205.24,674.039 1208.49,679.177 1211.73,684.326 1214.97,689.484 1218.21,694.652 1221.46,699.829 1224.7,705.014 1227.94,710.208 1231.19,715.408 1234.43,720.616 1237.67,725.83 1240.92,731.05 1244.16,736.275 1247.4,741.505 1250.64,746.739 1253.89,751.977 1257.13,757.218 1260.37,762.462 1263.62,767.708 1266.86,772.956 1270.1,778.205 1273.35,783.454 1276.59,788.704 1279.83,793.953 1283.08,799.201 1286.32,804.448 1289.56,809.692 1292.8,814.935 1296.05,820.174 1299.29,825.409 1302.53,830.64 1305.78,835.867 1309.02,841.089 1312.26,846.305 1315.51,851.514 1318.75,856.717 1321.99,861.913 1325.23,867.101 1328.48,872.281 1331.72,877.451 1334.96,882.613 1338.21,887.765 1341.45,892.906 1344.69,898.037 1347.94,903.156 1351.18,908.263 1354.42,913.358 1357.66,918.44 1360.91,923.508 1364.15,928.563 1367.39,933.603 1370.64,938.628 1373.88,943.638 1377.12,948.632 1380.37,953.609 1383.61,958.57 1386.85,963.513 1390.1,968.438 1393.34,973.345 1396.58,978.233 1399.82,983.101 1403.07,987.95 1406.31,992.778 1409.55,997.585 1412.8,1002.37 1416.04,1007.14 1419.28,1011.88 1422.53,1016.6 1425.77,1021.29 1429.01,1025.96 1432.25,1030.61 1435.5,1035.24 1438.74,1039.83 1441.98,1044.41 1445.23,1048.95 1448.47,1053.47 1451.71,1057.97 1454.96,1062.43 1458.2,1066.87 1461.44,1071.28 1464.68,1075.66 1467.93,1080.02 1471.17,1084.34 1474.41,1088.63 1477.66,1092.89 1480.9,1097.12 1484.14,1101.32 1487.39,1105.49 1490.63,1109.63 1493.87,1113.73 1497.11,1117.8 1500.36,1121.84 1503.6,1125.84 1506.84,1129.81 1510.09,1133.75 1513.33,1137.65 1516.57,1141.51 1519.82,1145.34 1523.06,1149.13 1526.3,1152.89 1529.55,1156.61 1532.79,1160.29 1536.03,1163.94 1539.27,1167.54 1542.52,1171.11 1545.76,1174.64 1549,1178.13 1552.25,1181.58 1555.49,1184.99 1558.73,1188.37 1561.98,1191.7 1565.22,1194.99 1568.46,1198.24 1571.7,1201.44 1574.95,1204.61 1578.19,1207.73 1581.43,1210.82 1584.68,1213.85 1587.92,1216.85 1591.16,1219.8 1594.41,1222.71 1597.65,1225.58 1600.89,1228.4 1604.13,1231.18 1607.38,1233.91 1610.62,1236.6 1613.86,1239.24 1617.11,1241.83 1620.35,1244.39 1623.59,1246.89 1626.84,1249.35 1630.08,1251.76 1633.32,1254.13 1636.57,1256.44 1639.81,1258.71 1643.05,1260.94 1646.29,1263.11 1649.54,1265.24 1652.78,1267.32 1656.02,1269.35 1659.27,1271.34 1662.51,1273.27 1665.75,1275.16 1669,1276.99 1672.24,1278.78 1675.48,1280.52 1678.72,1282.21 1681.97,1283.85 1685.21,1285.43 1688.45,1286.97 1691.7,1288.46 1694.94,1289.9 1698.18,1291.28 1701.43,1292.62 1704.67,1293.91 1707.91,1295.14 1711.15,1296.32 1714.4,1297.46 1717.64,1298.54 1720.88,1299.57 1724.13,1300.54 1727.37,1301.47 1730.61,1302.35 1733.86,1303.17 1737.1,1303.94 1740.34,1304.66 1743.59,1305.33 1746.83,1305.94 1750.07,1306.5 1753.31,1307.01 1756.56,1307.47 1759.8,1307.88 1763.04,1308.23 1766.29,1308.53 1769.53,1308.78 1772.77,1308.98 1776.02,1309.12 1779.26,1309.21 1782.5,1309.25 1785.74,1309.24 1788.99,1309.17 1792.23,1309.05 1795.47,1308.88 1798.72,1308.66 1801.96,1308.38 1805.2,1308.05 1808.45,1307.67 1811.69,1307.24 1814.93,1306.75 1818.17,1306.22 1821.42,1305.63 1824.66,1304.98 1827.9,1304.29 1831.15,1303.54 1834.39,1302.75 1837.63,1301.9 1840.88,1300.99 1844.12,1300.04 1847.36,1299.04 1850.61,1297.98 1853.85,1296.87 1857.09,1295.71 1860.33,1294.5 1863.58,1293.24 1866.82,1291.93 1870.06,1290.57 1873.31,1289.15 1876.55,1287.69 1879.79,1286.17 1883.04,1284.61 1886.28,1283 1889.52,1281.33 1892.76,1279.62 1896.01,1277.85 1899.25,1276.04 1902.49,1274.18 1905.74,1272.27 1908.98,1270.31 1912.22,1268.3 1915.47,1266.24 1918.71,1264.14 1921.95,1261.98 1925.19,1259.78 1928.44,1257.53 1931.68,1255.24 1934.92,1252.9 1938.17,1250.51 1941.41,1248.07 1944.65,1245.59 1947.9,1243.06 1951.14,1240.48 1954.38,1237.86 1957.63,1235.2 1960.87,1232.49 1964.11,1229.73 1967.35,1226.93 1970.6,1224.09 1973.84,1221.2 1977.08,1218.27 1980.33,1215.29 1983.57,1212.27 1986.81,1209.21 1990.06,1206.11 1993.3,1202.96 1996.54,1199.77 1999.78,1196.54 2003.03,1193.27 2006.27,1189.96 2009.51,1186.61 2012.76,1183.22 2016,1179.79 2019.24,1176.31 2022.49,1172.8 2025.73,1169.25 2028.97,1165.66 2032.21,1162.04 2035.46,1158.37 2038.7,1154.67 2041.94,1150.93 2045.19,1147.16 2048.43,1143.35 2051.67,1139.5 2054.92,1135.62 2058.16,1131.7 2061.4,1127.74 2064.65,1123.76 2067.89,1119.74 2071.13,1115.68 2074.37,1111.59 2077.62,1107.47 2080.86,1103.32 2084.1,1099.13 2087.35,1094.92 2090.59,1090.67 2093.83,1086.39 2097.08,1082.08 2100.32,1077.75 2103.56,1073.38 2106.8,1068.98 2110.05,1064.56 2113.29,1060.11 2116.53,1055.62 2119.78,1051.12 2123.02,1046.58 2126.26,1042.02 2129.51,1037.44 2132.75,1032.83 2135.99,1028.19 2139.23,1023.53 2142.48,1018.84 2145.72,1014.14 2148.96,1009.4 2152.21,1004.65 2155.45,999.875 2158.69,995.078 2161.94,990.259 2165.18,985.42 2168.42,980.561 2171.67,975.683 2174.91,970.785 2178.15,965.868 2181.39,960.934 2184.64,955.982 2187.88,951.012 2191.12,946.026 2194.37,941.024 2197.61,936.006 2200.85,930.973 2204.1,925.925 2207.34,920.863 2210.58,915.788 2213.82,910.699 2217.07,905.597 2220.31,900.484 2223.55,895.359 2226.8,890.222 2230.04,885.076 2233.28,879.919 2236.53,874.752 2239.77,869.577 2243.01,864.393 2246.25,859.201 2249.5,854.001 2252.74,848.795 2255.98,843.582 2259.23,838.363 2262.47,833.138 2265.71,827.909 2268.96,822.676 2272.2,817.438 2275.44,812.197 2278.69,806.954 2281.93,801.708 2285.17,796.461 2288.41,791.212 2291.66,785.963 "/>
<circle clip-path="url(#clip991)" cx="621.497" cy="384.883" r="14.4" fill="#e26f46" fill-rule="evenodd" fill-opacity="1" stroke="#000000" stroke-opacity="1" stroke-width="3.2"/>
<circle clip-path="url(#clip991)" cx="2217.07" cy="1023.02" r="14.4" fill="#e26f46" fill-rule="evenodd" fill-opacity="1" stroke="#000000" stroke-opacity="1" stroke-width="3.2"/>
<circle clip-path="url(#clip991)" cx="1565.22" cy="1189.29" r="14.4" fill="#e26f46" fill-rule="evenodd" fill-opacity="1" stroke="#000000" stroke-opacity="1" stroke-width="3.2"/>
<circle clip-path="url(#clip991)" cx="1490.63" cy="1140.34" r="14.4" fill="#e26f46" fill-rule="evenodd" fill-opacity="1" stroke="#000000" stroke-opacity="1" stroke-width="3.2"/>
<circle clip-path="url(#clip991)" cx="2074.37" cy="1015.37" r="14.4" fill="#e26f46" fill-rule="evenodd" fill-opacity="1" stroke="#000000" stroke-opacity="1" stroke-width="3.2"/>
<circle clip-path="url(#clip991)" cx="987.959" cy="438.501" r="14.4" fill="#e26f46" fill-rule="evenodd" fill-opacity="1" stroke="#000000" stroke-opacity="1" stroke-width="3.2"/>
<circle clip-path="url(#clip991)" cx="1814.93" cy="1394.12" r="14.4" fill="#e26f46" fill-rule="evenodd" fill-opacity="1" stroke="#000000" stroke-opacity="1" stroke-width="3.2"/>
<circle clip-path="url(#clip991)" cx="1740.34" cy="1176.6" r="14.4" fill="#e26f46" fill-rule="evenodd" fill-opacity="1" stroke="#000000" stroke-opacity="1" stroke-width="3.2"/>
<circle clip-path="url(#clip991)" cx="1409.55" cy="1113.53" r="14.4" fill="#e26f46" fill-rule="evenodd" fill-opacity="1" stroke="#000000" stroke-opacity="1" stroke-width="3.2"/>
<circle clip-path="url(#clip991)" cx="2291.66" cy="794.422" r="14.4" fill="#e26f46" fill-rule="evenodd" fill-opacity="1" stroke="#000000" stroke-opacity="1" stroke-width="3.2"/>
<circle clip-path="url(#clip991)" cx="2223.55" cy="924.17" r="14.4" fill="#e26f46" fill-rule="evenodd" fill-opacity="1" stroke="#000000" stroke-opacity="1" stroke-width="3.2"/>
<circle clip-path="url(#clip991)" cx="2275.44" cy="819.289" r="14.4" fill="#e26f46" fill-rule="evenodd" fill-opacity="1" stroke="#000000" stroke-opacity="1" stroke-width="3.2"/>
<circle clip-path="url(#clip991)" cx="621.497" cy="237.92" r="14.4" fill="#e26f46" fill-rule="evenodd" fill-opacity="1" stroke="#000000" stroke-opacity="1" stroke-width="3.2"/>
<circle clip-path="url(#clip991)" cx="264.764" cy="891.521" r="14.4" fill="#e26f46" fill-rule="evenodd" fill-opacity="1" stroke="#000000" stroke-opacity="1" stroke-width="3.2"/>
<circle clip-path="url(#clip991)" cx="387.999" cy="603.63" r="14.4" fill="#e26f46" fill-rule="evenodd" fill-opacity="1" stroke="#000000" stroke-opacity="1" stroke-width="3.2"/>
<circle clip-path="url(#clip991)" cx="1214.97" cy="786.226" r="14.4" fill="#e26f46" fill-rule="evenodd" fill-opacity="1" stroke="#000000" stroke-opacity="1" stroke-width="3.2"/>
<circle clip-path="url(#clip991)" cx="2191.12" cy="992.391" r="14.4" fill="#e26f46" fill-rule="evenodd" fill-opacity="1" stroke="#000000" stroke-opacity="1" stroke-width="3.2"/>
<circle clip-path="url(#clip991)" cx="303.68" cy="635.48" r="14.4" fill="#e26f46" fill-rule="evenodd" fill-opacity="1" stroke="#000000" stroke-opacity="1" stroke-width="3.2"/>
<circle clip-path="url(#clip991)" cx="1328.48" cy="878.613" r="14.4" fill="#e26f46" fill-rule="evenodd" fill-opacity="1" stroke="#000000" stroke-opacity="1" stroke-width="3.2"/>
<circle clip-path="url(#clip991)" cx="627.983" cy="267.598" r="14.4" fill="#e26f46" fill-rule="evenodd" fill-opacity="1" stroke="#000000" stroke-opacity="1" stroke-width="3.2"/>
<path clip-path="url(#clip991)" d="M255.035 973.52 L258.278 967.974 L261.521 962.477 L264.764 957.037 L268.007 951.664 L271.25 946.361 L274.493 941.135 L277.736 935.991 L280.979 930.933 L284.222 925.967 L287.465 921.097 L290.708 916.329 L293.951 911.666 L297.194 907.116 L300.437 902.681 L303.68 898.368 L306.923 894.179 L310.166 890.107 L313.409 886.144 L316.652 882.28 L319.895 878.508 L323.138 874.818 L326.381 871.204 L329.624 867.659 L332.867 864.174 L336.11 860.745 L339.353 857.365 L342.596 854.031 L345.84 850.736 L349.083 847.478 L352.326 844.255 L355.569 841.062 L358.812 837.899 L362.055 834.765 L365.298 831.658 L368.541 828.579 L371.784 825.529 L375.027 822.507 L378.27 819.516 L381.513 816.556 L384.756 813.63 L387.999 810.739 L391.242 807.885 L394.485 805.061 L397.728 802.257 L400.971 799.467 L404.214 796.683 L407.457 793.897 L410.7 791.101 L413.943 788.29 L417.186 785.456 L420.429 782.593 L423.672 779.696 L426.915 776.758 L430.158 773.776 L433.401 770.743 L436.644 767.657 L439.887 764.512 L443.13 761.306 L446.373 758.034 L449.616 754.693 L452.859 751.282 L456.103 747.797 L459.346 744.237 L462.589 740.599 L465.832 736.883 L469.075 733.087 L472.318 729.211 L475.561 725.253 L478.804 721.213 L482.047 717.092 L485.29 712.89 L488.533 708.608 L491.776 704.245 L495.019 699.805 L498.262 695.287 L501.505 690.694 L504.748 686.028 L507.991 681.292 L511.234 676.488 L514.477 671.62 L517.72 666.69 L520.963 661.704 L524.206 656.665 L527.449 651.578 L530.692 646.449 L533.935 641.283 L537.178 636.086 L540.421 630.866 L543.664 625.629 L546.907 620.384 L550.15 615.14 L553.393 609.904 L556.636 604.689 L559.879 599.504 L563.122 594.361 L566.366 589.273 L569.609 584.253 L572.852 579.316 L576.095 574.476 L579.338 569.751 L582.581 565.157 L585.824 560.713 L589.067 556.437 L592.31 552.352 L595.553 548.476 L598.796 544.833 L602.039 541.444 L605.282 538.333 L608.525 535.522 L611.768 533.035 L615.011 530.895 L618.254 529.125 L621.497 527.744 L624.74 526.771 L627.983 526.206 L631.226 526.041 L634.469 526.258 L637.712 526.838 L640.955 527.759 L644.198 529 L647.441 530.539 L650.684 532.354 L653.927 534.426 L657.17 536.732 L660.413 539.254 L663.656 541.972 L666.899 544.869 L670.142 547.926 L673.385 551.127 L676.629 554.458 L679.872 557.902 L683.115 561.447 L686.358 565.079 L689.601 568.787 L692.844 572.558 L696.087 576.383 L699.33 580.252 L702.573 584.154 L705.816 588.083 L709.059 592.028 L712.302 595.984 L715.545 599.943 L718.788 603.899 L722.031 607.845 L725.274 611.776 L728.517 615.686 L731.76 619.571 L735.003 623.426 L738.246 627.246 L741.489 631.029 L744.732 634.769 L747.975 638.464 L751.218 642.111 L754.461 645.706 L757.704 649.247 L760.947 652.732 L764.19 656.157 L767.433 659.521 L770.676 662.823 L773.919 666.059 L777.162 669.229 L780.405 672.331 L783.648 675.364 L786.892 678.326 L790.135 681.217 L793.378 684.035 L796.621 686.781 L799.864 689.452 L803.107 692.05 L806.35 694.573 L809.593 697.021 L812.836 699.393 L816.079 701.691 L819.322 703.914 L822.565 706.062 L825.808 708.136 L829.051 710.135 L832.294 712.062 L835.537 713.915 L838.78 715.697 L842.023 717.407 L845.266 719.048 L848.509 720.62 L851.752 722.124 L854.995 723.562 L858.238 724.936 L861.481 726.248 L864.724 727.498 L867.967 728.69 L871.21 729.825 L874.453 730.905 L877.696 731.934 L880.939 732.914 L884.182 733.847 L887.425 734.737 L890.668 735.587 L893.911 736.401 L897.155 737.181 L900.398 737.932 L903.641 738.658 L906.884 739.363 L910.127 740.052 L913.37 740.729 L916.613 741.399 L919.856 742.067 L923.099 742.74 L926.342 743.422 L929.585 744.119 L932.828 744.839 L936.071 745.587 L939.314 746.37 L942.557 747.195 L945.8 748.07 L949.043 749.002 L952.286 749.998 L955.529 751.068 L958.772 752.219 L962.015 753.459 L965.258 754.797 L968.501 756.242 L971.744 757.803 L974.987 759.488 L978.23 761.307 L981.473 763.268 L984.716 765.381 L987.959 767.654 L991.202 770.092 L994.445 772.691 L997.688 775.44 L1000.93 778.331 L1004.17 781.355 L1007.42 784.503 L1010.66 787.765 L1013.9 791.132 L1017.15 794.595 L1020.39 798.146 L1023.63 801.776 L1026.88 805.477 L1030.12 809.239 L1033.36 813.056 L1036.6 816.92 L1039.85 820.823 L1043.09 824.758 L1046.33 828.718 L1049.58 832.697 L1052.82 836.688 L1056.06 840.686 L1059.31 844.685 L1062.55 848.68 L1065.79 852.666 L1069.04 856.637 L1072.28 860.591 L1075.52 864.522 L1078.76 868.427 L1082.01 872.302 L1085.25 876.145 L1088.49 879.952 L1091.74 883.72 L1094.98 887.448 L1098.22 891.134 L1101.47 894.775 L1104.71 898.369 L1107.95 901.917 L1111.19 905.416 L1114.44 908.866 L1117.68 912.266 L1120.92 915.617 L1124.17 918.918 L1127.41 922.169 L1130.65 925.372 L1133.9 928.526 L1137.14 931.633 L1140.38 934.694 L1143.62 937.711 L1146.87 940.686 L1150.11 943.621 L1153.35 946.518 L1156.6 949.38 L1159.84 952.21 L1163.08 955.011 L1166.33 957.787 L1169.57 960.541 L1172.81 963.278 L1176.06 966.001 L1179.3 968.716 L1182.54 971.427 L1185.78 974.14 L1189.03 976.86 L1192.27 979.592 L1195.51 982.342 L1198.76 985.117 L1202 987.922 L1205.24 990.763 L1208.49 993.648 L1211.73 996.581 L1214.97 999.571 L1218.21 1002.62 L1221.46 1005.73 L1224.7 1008.89 L1227.94 1012.09 L1231.19 1015.34 L1234.43 1018.63 L1237.67 1021.95 L1240.92 1025.3 L1244.16 1028.67 L1247.4 1032.07 L1250.64 1035.48 L1253.89 1038.9 L1257.13 1042.33 L1260.37 1045.77 L1263.62 1049.22 L1266.86 1052.67 L1270.1 1056.12 L1273.35 1059.57 L1276.59 1063.02 L1279.83 1066.47 L1283.08 1069.92 L1286.32 1073.37 L1289.56 1076.83 L1292.8 1080.28 L1296.05 1083.74 L1299.29 1087.21 L1302.53 1090.69 L1305.78 1094.18 L1309.02 1097.69 L1312.26 1101.22 L1315.51 1104.78 L1318.75 1108.36 L1321.99 1111.98 L1325.23 1115.64 L1328.48 1119.35 L1331.72 1123.11 L1334.96 1126.91 L1338.21 1130.75 L1341.45 1134.62 L1344.69 1138.51 L1347.94 1142.42 L1351.18 1146.35 L1354.42 1150.28 L1357.66 1154.21 L1360.91 1158.14 L1364.15 1162.07 L1367.39 1165.98 L1370.64 1169.88 L1373.88 1173.76 L1377.12 1177.63 L1380.37 1181.47 L1383.61 1185.29 L1386.85 1189.09 L1390.1 1192.86 L1393.34 1196.6 L1396.58 1200.33 L1399.82 1204.02 L1403.07 1207.7 L1406.31 1211.35 L1409.55 1214.98 L1412.8 1218.59 L1416.04 1222.18 L1419.28 1225.74 L1422.53 1229.27 L1425.77 1232.77 L1429.01 1236.24 L1432.25 1239.66 L1435.5 1243.05 L1438.74 1246.39 L1441.98 1249.69 L1445.23 1252.94 L1448.47 1256.16 L1451.71 1259.33 L1454.96 1262.45 L1458.2 1265.54 L1461.44 1268.59 L1464.68 1271.6 L1467.93 1274.57 L1471.17 1277.52 L1474.41 1280.43 L1477.66 1283.32 L1480.9 1286.2 L1484.14 1289.06 L1487.39 1291.9 L1490.63 1294.75 L1493.87 1297.59 L1497.11 1300.43 L1500.36 1303.26 L1503.6 1306.09 L1506.84 1308.9 L1510.09 1311.71 L1513.33 1314.5 L1516.57 1317.27 L1519.82 1320.03 L1523.06 1322.78 L1526.3 1325.5 L1529.55 1328.21 L1532.79 1330.9 L1536.03 1333.58 L1539.27 1336.24 L1542.52 1338.89 L1545.76 1341.53 L1549 1344.16 L1552.25 1346.78 L1555.49 1349.39 L1558.73 1352 L1561.98 1354.62 L1565.22 1357.23 L1568.46 1359.85 L1571.7 1362.47 L1574.95 1365.08 L1578.19 1367.68 L1581.43 1370.26 L1584.68 1372.82 L1587.92 1375.34 L1591.16 1377.84 L1594.41 1380.29 L1597.65 1382.69 L1600.89 1385.05 L1604.13 1387.36 L1607.38 1389.6 L1610.62 1391.79 L1613.86 1393.91 L1617.11 1395.96 L1620.35 1397.95 L1623.59 1399.86 L1626.84 1401.69 L1630.08 1403.45 L1633.32 1405.13 L1636.57 1406.73 L1639.81 1408.26 L1643.05 1409.7 L1646.29 1411.06 L1649.54 1412.33 L1652.78 1413.53 L1656.02 1414.65 L1659.27 1415.69 L1662.51 1416.65 L1665.75 1417.53 L1669 1418.34 L1672.24 1419.08 L1675.48 1419.75 L1678.72 1420.35 L1681.97 1420.89 L1685.21 1421.36 L1688.45 1421.78 L1691.7 1422.15 L1694.94 1422.47 L1698.18 1422.74 L1701.43 1422.98 L1704.67 1423.19 L1707.91 1423.37 L1711.15 1423.53 L1714.4 1423.67 L1717.64 1423.81 L1720.88 1423.96 L1724.13 1424.11 L1727.37 1424.27 L1730.61 1424.46 L1733.86 1424.69 L1737.1 1424.95 L1740.34 1425.27 L1743.59 1425.64 L1746.83 1426.06 L1750.07 1426.53 L1753.31 1427.05 L1756.56 1427.61 L1759.8 1428.2 L1763.04 1428.82 L1766.29 1429.47 L1769.53 1430.14 L1772.77 1430.83 L1776.02 1431.54 L1779.26 1432.26 L1782.5 1432.99 L1785.74 1433.72 L1788.99 1434.46 L1792.23 1435.2 L1795.47 1435.94 L1798.72 1436.67 L1801.96 1437.4 L1805.2 1438.12 L1808.45 1438.83 L1811.69 1439.52 L1814.93 1440.21 L1818.17 1440.87 L1821.42 1441.51 L1824.66 1442.13 L1827.9 1442.71 L1831.15 1443.26 L1834.39 1443.76 L1837.63 1444.22 L1840.88 1444.62 L1844.12 1444.97 L1847.36 1445.26 L1850.61 1445.48 L1853.85 1445.63 L1857.09 1445.71 L1860.33 1445.72 L1863.58 1445.64 L1866.82 1445.48 L1870.06 1445.24 L1873.31 1444.9 L1876.55 1444.48 L1879.79 1443.96 L1883.04 1443.35 L1886.28 1442.65 L1889.52 1441.85 L1892.76 1440.94 L1896.01 1439.94 L1899.25 1438.84 L1902.49 1437.64 L1905.74 1436.33 L1908.98 1434.92 L1912.22 1433.41 L1915.47 1431.8 L1918.71 1430.08 L1921.95 1428.26 L1925.19 1426.34 L1928.44 1424.32 L1931.68 1422.19 L1934.92 1419.97 L1938.17 1417.64 L1941.41 1415.21 L1944.65 1412.69 L1947.9 1410.07 L1951.14 1407.35 L1954.38 1404.53 L1957.63 1401.63 L1960.87 1398.63 L1964.11 1395.53 L1967.35 1392.36 L1970.6 1389.09 L1973.84 1385.74 L1977.08 1382.3 L1980.33 1378.78 L1983.57 1375.19 L1986.81 1371.52 L1990.06 1367.77 L1993.3 1363.96 L1996.54 1360.07 L1999.78 1356.12 L2003.03 1352.11 L2006.27 1348.04 L2009.51 1343.92 L2012.76 1339.74 L2016 1335.51 L2019.24 1331.24 L2022.49 1326.94 L2025.73 1322.59 L2028.97 1318.21 L2032.21 1313.81 L2035.46 1309.39 L2038.7 1304.95 L2041.94 1300.5 L2045.19 1296.04 L2048.43 1291.58 L2051.67 1287.13 L2054.92 1282.69 L2058.16 1278.26 L2061.4 1273.86 L2064.65 1269.49 L2067.89 1265.16 L2071.13 1260.87 L2074.37 1256.63 L2077.62 1252.43 L2080.86 1248.29 L2084.1 1244.19 L2087.35 1240.13 L2090.59 1236.09 L2093.83 1232.08 L2097.08 1228.08 L2100.32 1224.09 L2103.56 1220.11 L2106.8 1216.13 L2110.05 1212.14 L2113.29 1208.13 L2116.53 1204.11 L2119.78 1200.08 L2123.02 1196.01 L2126.26 1191.92 L2129.51 1187.8 L2132.75 1183.65 L2135.99 1179.46 L2139.23 1175.24 L2142.48 1170.98 L2145.72 1166.69 L2148.96 1162.37 L2152.21 1158.01 L2155.45 1153.62 L2158.69 1149.2 L2161.94 1144.76 L2165.18 1140.31 L2168.42 1135.84 L2171.67 1131.36 L2174.91 1126.89 L2178.15 1122.43 L2181.39 1117.99 L2184.64 1113.58 L2187.88 1109.21 L2191.12 1104.89 L2194.37 1100.64 L2197.61 1096.46 L2200.85 1092.36 L2204.1 1088.36 L2207.34 1084.45 L2210.58 1080.65 L2213.82 1076.97 L2217.07 1073.42 L2220.31 1070.02 L2223.55 1066.75 L2226.8 1063.65 L2230.04 1060.7 L2233.28 1057.91 L2236.53 1055.28 L2239.77 1052.8 L2243.01 1050.49 L2246.25 1048.35 L2249.5 1046.38 L2252.74 1044.57 L2255.98 1042.95 L2259.23 1041.5 L2262.47 1040.25 L2265.71 1039.19 L2268.96 1038.33 L2272.2 1037.69 L2275.44 1037.26 L2278.69 1037.05 L2281.93 1037.07 L2285.17 1037.31 L2288.41 1037.76 L2291.66 1038.43 L2291.66 685.291 L2288.41 691.017 L2285.17 696.651 L2281.93 702.186 L2278.69 707.615 L2275.44 712.932 L2272.2 718.13 L2268.96 723.207 L2265.71 728.162 L2262.47 732.993 L2259.23 737.697 L2255.98 742.27 L2252.74 746.711 L2249.5 751.014 L2246.25 755.174 L2243.01 759.187 L2239.77 763.046 L2236.53 766.744 L2233.28 770.274 L2230.04 773.628 L2226.8 776.797 L2223.55 779.773 L2220.31 782.548 L2217.07 785.118 L2213.82 787.485 L2210.58 789.657 L2207.34 791.645 L2204.1 793.457 L2200.85 795.105 L2197.61 796.596 L2194.37 797.94 L2191.12 799.143 L2187.88 800.214 L2184.64 801.168 L2181.39 802.021 L2178.15 802.787 L2174.91 803.48 L2171.67 804.112 L2168.42 804.696 L2165.18 805.243 L2161.94 805.761 L2158.69 806.261 L2155.45 806.75 L2152.21 807.235 L2148.96 807.722 L2145.72 808.217 L2142.48 808.725 L2139.23 809.248 L2135.99 809.79 L2132.75 810.353 L2129.51 810.939 L2126.26 811.55 L2123.02 812.184 L2119.78 812.843 L2116.53 813.524 L2113.29 814.228 L2110.05 814.953 L2106.8 815.695 L2103.56 816.453 L2100.32 817.224 L2097.08 818.004 L2093.83 818.79 L2090.59 819.578 L2087.35 820.363 L2084.1 821.142 L2080.86 821.91 L2077.62 822.662 L2074.37 823.395 L2071.13 824.105 L2067.89 824.797 L2064.65 825.476 L2061.4 826.147 L2058.16 826.817 L2054.92 827.491 L2051.67 828.174 L2048.43 828.872 L2045.19 829.589 L2041.94 830.332 L2038.7 831.103 L2035.46 831.909 L2032.21 832.753 L2028.97 833.639 L2025.73 834.572 L2022.49 835.554 L2019.24 836.59 L2016 837.682 L2012.76 838.834 L2009.51 840.048 L2006.27 841.327 L2003.03 842.673 L1999.78 844.088 L1996.54 845.573 L1993.3 847.132 L1990.06 848.765 L1986.81 850.473 L1983.57 852.257 L1980.33 854.119 L1977.08 856.059 L1973.84 858.078 L1970.6 860.175 L1967.35 862.351 L1964.11 864.606 L1960.87 866.94 L1957.63 869.352 L1954.38 871.842 L1951.14 874.409 L1947.9 877.051 L1944.65 879.768 L1941.41 882.559 L1938.17 885.422 L1934.92 888.354 L1931.68 891.355 L1928.44 894.422 L1925.19 897.553 L1921.95 900.746 L1918.71 903.997 L1915.47 907.303 L1912.22 910.663 L1908.98 914.071 L1905.74 917.525 L1902.49 921.02 L1899.25 924.553 L1896.01 928.119 L1892.76 931.714 L1889.52 935.332 L1886.28 938.968 L1883.04 942.617 L1879.79 946.272 L1876.55 949.928 L1873.31 953.579 L1870.06 957.216 L1866.82 960.834 L1863.58 964.423 L1860.33 967.978 L1857.09 971.488 L1853.85 974.945 L1850.61 978.341 L1847.36 981.665 L1844.12 984.908 L1840.88 988.059 L1837.63 991.107 L1834.39 994.042 L1831.15 996.852 L1827.9 999.525 L1824.66 1002.05 L1821.42 1004.41 L1818.17 1006.6 L1814.93 1008.61 L1811.69 1010.41 L1808.45 1012.03 L1805.2 1013.46 L1801.96 1014.71 L1798.72 1015.8 L1795.47 1016.72 L1792.23 1017.48 L1788.99 1018.08 L1785.74 1018.55 L1782.5 1018.87 L1779.26 1019.06 L1776.02 1019.12 L1772.77 1019.05 L1769.53 1018.87 L1766.29 1018.56 L1763.04 1018.14 L1759.8 1017.61 L1756.56 1016.97 L1753.31 1016.23 L1750.07 1015.39 L1746.83 1014.44 L1743.59 1013.39 L1740.34 1012.25 L1737.1 1011.01 L1733.86 1009.69 L1730.61 1008.3 L1727.37 1006.83 L1724.13 1005.32 L1720.88 1003.75 L1717.64 1002.15 L1714.4 1000.52 L1711.15 998.876 L1707.91 997.217 L1704.67 995.553 L1701.43 993.893 L1698.18 992.242 L1694.94 990.608 L1691.7 988.996 L1688.45 987.411 L1685.21 985.859 L1681.97 984.343 L1678.72 982.868 L1675.48 981.438 L1672.24 980.056 L1669 978.724 L1665.75 977.446 L1662.51 976.222 L1659.27 975.055 L1656.02 973.945 L1652.78 972.894 L1649.54 971.901 L1646.29 970.968 L1643.05 970.092 L1639.81 969.275 L1636.57 968.513 L1633.32 967.807 L1630.08 967.153 L1626.84 966.55 L1623.59 965.994 L1620.35 965.483 L1617.11 965.014 L1613.86 964.581 L1610.62 964.181 L1607.38 963.809 L1604.13 963.461 L1600.89 963.129 L1597.65 962.81 L1594.41 962.495 L1591.16 962.179 L1587.92 961.855 L1584.68 961.514 L1581.43 961.15 L1578.19 960.755 L1574.95 960.319 L1571.7 959.834 L1568.46 959.292 L1565.22 958.683 L1561.98 958 L1558.73 957.244 L1555.49 956.418 L1552.25 955.524 L1549 954.564 L1545.76 953.54 L1542.52 952.455 L1539.27 951.309 L1536.03 950.104 L1532.79 948.839 L1529.55 947.515 L1526.3 946.133 L1523.06 944.69 L1519.82 943.187 L1516.57 941.62 L1513.33 939.989 L1510.09 938.29 L1506.84 936.52 L1503.6 934.677 L1500.36 932.755 L1497.11 930.751 L1493.87 928.661 L1490.63 926.478 L1487.39 924.201 L1484.14 921.833 L1480.9 919.379 L1477.66 916.844 L1474.41 914.235 L1471.17 911.554 L1467.93 908.806 L1464.68 905.994 L1461.44 903.122 L1458.2 900.191 L1454.96 897.205 L1451.71 894.162 L1448.47 891.066 L1445.23 887.915 L1441.98 884.708 L1438.74 881.446 L1435.5 878.126 L1432.25 874.745 L1429.01 871.302 L1425.77 867.792 L1422.53 864.211 L1419.28 860.556 L1416.04 856.821 L1412.8 853.002 L1409.55 849.092 L1406.31 845.089 L1403.07 840.997 L1399.82 836.824 L1396.58 832.578 L1393.34 828.264 L1390.1 823.89 L1386.85 819.462 L1383.61 814.984 L1380.37 810.461 L1377.12 805.899 L1373.88 801.301 L1370.64 796.67 L1367.39 792.009 L1364.15 787.321 L1360.91 782.608 L1357.66 777.87 L1354.42 773.109 L1351.18 768.325 L1347.94 763.517 L1344.69 758.686 L1341.45 753.83 L1338.21 748.949 L1334.96 744.039 L1331.72 739.101 L1328.48 734.132 L1325.23 729.13 L1321.99 724.1 L1318.75 719.047 L1315.51 713.976 L1312.26 708.891 L1309.02 703.797 L1305.78 698.698 L1302.53 693.598 L1299.29 688.499 L1296.05 683.405 L1292.8 678.319 L1289.56 673.241 L1286.32 668.175 L1283.08 663.12 L1279.83 658.079 L1276.59 653.05 L1273.35 648.034 L1270.1 643.03 L1266.86 638.037 L1263.62 633.054 L1260.37 628.078 L1257.13 623.107 L1253.89 618.138 L1250.64 613.169 L1247.4 608.195 L1244.16 603.213 L1240.92 598.219 L1237.67 593.208 L1234.43 588.175 L1231.19 583.116 L1227.94 578.026 L1224.7 572.898 L1221.46 567.729 L1218.21 562.512 L1214.97 557.242 L1211.73 551.917 L1208.49 546.539 L1205.24 541.118 L1202 535.658 L1198.76 530.167 L1195.51 524.652 L1192.27 519.119 L1189.03 513.575 L1185.78 508.025 L1182.54 502.477 L1179.3 496.935 L1176.06 491.405 L1172.81 485.892 L1169.57 480.403 L1166.33 474.941 L1163.08 469.511 L1159.84 464.118 L1156.6 458.765 L1153.35 453.456 L1150.11 448.196 L1146.87 442.987 L1143.62 437.832 L1140.38 432.735 L1137.14 427.697 L1133.9 422.722 L1130.65 417.81 L1127.41 412.965 L1124.17 408.187 L1120.92 403.479 L1117.68 398.841 L1114.44 394.274 L1111.19 389.779 L1107.95 385.357 L1104.71 381.007 L1101.47 376.73 L1098.22 372.526 L1094.98 368.395 L1091.74 364.335 L1088.49 360.346 L1085.25 356.427 L1082.01 352.576 L1078.76 348.793 L1075.52 345.075 L1072.28 341.42 L1069.04 337.826 L1065.79 334.292 L1062.55 330.813 L1059.31 327.387 L1056.06 324.012 L1052.82 320.682 L1049.58 317.396 L1046.33 314.149 L1043.09 310.936 L1039.85 307.754 L1036.6 304.597 L1033.36 301.462 L1030.12 298.342 L1026.88 295.233 L1023.63 292.129 L1020.39 289.024 L1017.15 285.914 L1013.9 282.791 L1010.66 279.65 L1007.42 276.485 L1004.17 273.29 L1000.93 270.059 L997.688 266.785 L994.445 263.464 L991.202 260.09 L987.959 256.656 L984.716 253.16 L981.473 249.605 L978.23 245.995 L974.987 242.336 L971.744 238.633 L968.501 234.892 L965.258 231.118 L962.015 227.317 L958.772 223.495 L955.529 219.656 L952.286 215.806 L949.043 211.952 L945.8 208.097 L942.557 204.248 L939.314 200.408 L936.071 196.584 L932.828 192.779 L929.585 188.998 L926.342 185.245 L923.099 181.525 L919.856 177.841 L916.613 174.197 L913.37 170.597 L910.127 167.044 L906.884 163.542 L903.641 160.092 L900.398 156.7 L897.155 153.366 L893.911 150.094 L890.668 146.887 L887.425 143.746 L884.182 140.675 L880.939 137.674 L877.696 134.747 L874.453 131.895 L871.21 129.12 L867.967 126.423 L864.724 123.807 L861.481 121.273 L858.238 118.823 L854.995 116.457 L851.752 114.177 L848.509 111.986 L845.266 109.883 L842.023 107.87 L838.78 105.948 L835.537 104.118 L832.294 102.382 L829.051 100.74 L825.808 99.1937 L822.565 97.7434 L819.322 96.3901 L816.079 95.1348 L812.836 93.9782 L809.593 92.9213 L806.35 91.9646 L803.107 91.109 L799.864 90.3551 L796.621 89.7036 L793.378 89.1551 L790.135 88.7101 L786.892 88.3693 L783.648 88.1331 L780.405 88.0019 L777.162 87.9763 L773.919 88.0564 L770.676 88.2428 L767.433 88.5355 L764.19 88.9348 L760.947 89.4407 L757.704 90.0535 L754.461 90.7729 L751.218 91.5988 L747.975 92.531 L744.732 93.5692 L741.489 94.7129 L738.246 95.9614 L735.003 97.314 L731.76 98.7698 L728.517 100.328 L725.274 101.986 L722.031 103.744 L718.788 105.6 L715.545 107.55 L712.302 109.594 L709.059 111.729 L705.816 113.951 L702.573 116.258 L699.33 118.645 L696.087 121.108 L692.844 123.643 L689.601 126.245 L686.358 128.907 L683.115 131.625 L679.872 134.39 L676.629 137.195 L673.385 140.032 L670.142 142.892 L666.899 145.765 L663.656 148.641 L660.413 151.509 L657.17 154.357 L653.927 157.173 L650.684 159.943 L647.441 162.654 L644.198 165.292 L640.955 167.843 L637.712 170.293 L634.469 172.629 L631.226 174.837 L627.983 176.904 L624.74 178.822 L621.497 180.583 L618.254 182.186 L615.011 183.642 L611.768 184.964 L608.525 186.165 L605.282 187.261 L602.039 188.267 L598.796 189.2 L595.553 190.074 L592.31 190.906 L589.067 191.709 L585.824 192.5 L582.581 193.29 L579.338 194.094 L576.095 194.924 L572.852 195.79 L569.609 196.704 L566.366 197.675 L563.122 198.711 L559.879 199.822 L556.636 201.014 L553.393 202.294 L550.15 203.667 L546.907 205.14 L543.664 206.716 L540.421 208.401 L537.178 210.197 L533.935 212.108 L530.692 214.136 L527.449 216.283 L524.206 218.552 L520.963 220.944 L517.72 223.46 L514.477 226.1 L511.234 228.866 L507.991 231.756 L504.748 234.772 L501.505 237.913 L498.262 241.178 L495.019 244.567 L491.776 248.077 L488.533 251.709 L485.29 255.459 L482.047 259.328 L478.804 263.311 L475.561 267.408 L472.318 271.616 L469.075 275.932 L465.832 280.353 L462.589 284.876 L459.346 289.498 L456.103 294.215 L452.859 299.023 L449.616 303.918 L446.373 308.897 L443.13 313.953 L439.887 319.083 L436.644 324.281 L433.401 329.541 L430.158 334.859 L426.915 340.227 L423.672 345.639 L420.429 351.09 L417.186 356.571 L413.943 362.075 L410.7 367.595 L407.457 373.123 L404.214 378.65 L400.971 384.168 L397.728 389.667 L394.485 395.14 L391.242 400.576 L387.999 405.966 L384.756 411.301 L381.513 416.582 L378.27 421.808 L375.027 426.979 L371.784 432.095 L368.541 437.155 L365.298 442.16 L362.055 447.107 L358.812 451.995 L355.569 456.822 L352.326 461.584 L349.083 466.279 L345.84 470.903 L342.596 475.45 L339.353 479.915 L336.11 484.293 L332.867 488.578 L329.624 492.761 L326.381 496.835 L323.138 500.791 L319.895 504.621 L316.652 508.316 L313.409 511.864 L310.166 515.257 L306.923 518.484 L303.68 521.534 L300.437 524.397 L297.194 527.068 L293.951 529.543 L290.708 531.815 L287.465 533.882 L284.222 535.738 L280.979 537.378 L277.736 538.798 L274.493 539.993 L271.25 540.957 L268.007 541.686 L264.764 542.174 L261.521 542.42 L258.278 542.433 L255.035 542.227  Z" fill="#3da44d" fill-rule="evenodd" fill-opacity="0.1"/>
<polyline clip-path="url(#clip991)" style="stroke:#3da44d; stroke-linecap:round; stroke-linejoin:round; stroke-width:8; stroke-opacity:1; fill:none" points="255.035,757.874 258.278,755.204 261.521,752.448 264.764,749.606 268.007,746.675 271.25,743.659 274.493,740.564 277.736,737.395 280.979,734.156 284.222,730.853 287.465,727.49 290.708,724.072 293.951,720.604 297.194,717.092 300.437,713.539 303.68,709.951 306.923,706.332 310.166,702.682 313.409,699.004 316.652,695.298 319.895,691.564 323.138,687.805 326.381,684.019 329.624,680.21 332.867,676.376 336.11,672.519 339.353,668.64 342.596,664.74 345.84,660.819 349.083,656.879 352.326,652.919 355.569,648.942 358.812,644.947 362.055,640.936 365.298,636.909 368.541,632.867 371.784,628.812 375.027,624.743 378.27,620.662 381.513,616.569 384.756,612.466 387.999,608.353 391.242,604.231 394.485,600.1 397.728,595.962 400.971,591.818 404.214,587.666 407.457,583.51 410.7,579.348 413.943,575.182 417.186,571.013 420.429,566.841 423.672,562.667 426.915,558.492 430.158,554.317 433.401,550.142 436.644,545.969 439.887,541.798 443.13,537.629 446.373,533.465 449.616,529.306 452.859,525.152 456.103,521.006 459.346,516.867 462.589,512.738 465.832,508.618 469.075,504.509 472.318,500.413 475.561,496.33 478.804,492.262 482.047,488.21 485.29,484.175 488.533,480.158 491.776,476.161 495.019,472.186 498.262,468.233 501.505,464.304 504.748,460.4 507.991,456.524 511.234,452.677 514.477,448.86 517.72,445.075 520.963,441.324 524.206,437.609 527.449,433.931 530.692,430.292 533.935,426.695 537.178,423.142 540.421,419.633 543.664,416.173 546.907,412.762 550.15,409.403 553.393,406.099 556.636,402.851 559.879,399.663 563.122,396.536 566.366,393.474 569.609,390.479 572.852,387.553 576.095,384.7 579.338,381.923 582.581,379.224 585.824,376.606 589.067,374.073 592.31,371.629 595.553,369.275 598.796,367.016 602.039,364.856 605.282,362.797 608.525,360.843 611.768,359 615.011,357.269 618.254,355.655 621.497,354.164 624.74,352.797 627.983,351.555 631.226,350.439 634.469,349.443 637.712,348.566 640.955,347.801 644.198,347.146 647.441,346.596 650.684,346.149 653.927,345.799 657.17,345.545 660.413,345.382 663.656,345.307 666.899,345.317 670.142,345.409 673.385,345.579 676.629,345.826 679.872,346.146 683.115,346.536 686.358,346.993 689.601,347.516 692.844,348.101 696.087,348.746 699.33,349.448 702.573,350.206 705.816,351.017 709.059,351.879 712.302,352.789 715.545,353.747 718.788,354.749 722.031,355.794 725.274,356.881 728.517,358.007 731.76,359.17 735.003,360.37 738.246,361.604 741.489,362.871 744.732,364.169 747.975,365.498 751.218,366.855 754.461,368.239 757.704,369.65 760.947,371.086 764.19,372.546 767.433,374.028 770.676,375.533 773.919,377.058 777.162,378.603 780.405,380.166 783.648,381.748 786.892,383.348 790.135,384.963 793.378,386.595 796.621,388.242 799.864,389.904 803.107,391.579 806.35,393.269 809.593,394.971 812.836,396.686 816.079,398.413 819.322,400.152 822.565,401.903 825.808,403.665 829.051,405.438 832.294,407.222 835.537,409.017 838.78,410.822 842.023,412.638 845.266,414.465 848.509,416.303 851.752,418.151 854.995,420.01 858.238,421.879 861.481,423.76 864.724,425.653 867.967,427.556 871.21,429.472 874.453,431.4 877.696,433.341 880.939,435.294 884.182,437.261 887.425,439.242 890.668,441.237 893.911,443.248 897.155,445.274 900.398,447.316 903.641,449.375 906.884,451.452 910.127,453.548 913.37,455.663 916.613,457.798 919.856,459.954 923.099,462.132 926.342,464.333 929.585,466.559 932.828,468.809 936.071,471.085 939.314,473.389 942.557,475.721 945.8,478.084 949.043,480.477 952.286,482.902 955.529,485.362 958.772,487.857 962.015,490.388 965.258,492.958 968.501,495.567 971.744,498.218 974.987,500.912 978.23,503.651 981.473,506.437 984.716,509.271 987.959,512.155 991.202,515.091 994.445,518.078 997.688,521.113 1000.93,524.195 1004.17,527.323 1007.42,530.494 1010.66,533.707 1013.9,536.961 1017.15,540.254 1020.39,543.585 1023.63,546.953 1026.88,550.355 1030.12,553.791 1033.36,557.259 1036.6,560.759 1039.85,564.288 1043.09,567.847 1046.33,571.433 1049.58,575.046 1052.82,578.685 1056.06,582.349 1059.31,586.036 1062.55,589.746 1065.79,593.479 1069.04,597.232 1072.28,601.005 1075.52,604.798 1078.76,608.61 1082.01,612.439 1085.25,616.286 1088.49,620.149 1091.74,624.028 1094.98,627.922 1098.22,631.83 1101.47,635.752 1104.71,639.688 1107.95,643.637 1111.19,647.597 1114.44,651.57 1117.68,655.554 1120.92,659.548 1124.17,663.553 1127.41,667.567 1130.65,671.591 1133.9,675.624 1137.14,679.665 1140.38,683.715 1143.62,687.772 1146.87,691.837 1150.11,695.909 1153.35,699.987 1156.6,704.073 1159.84,708.164 1163.08,712.261 1166.33,716.364 1169.57,720.472 1172.81,724.585 1176.06,728.703 1179.3,732.825 1182.54,736.952 1185.78,741.083 1189.03,745.217 1192.27,749.356 1195.51,753.497 1198.76,757.642 1202,761.79 1205.24,765.94 1208.49,770.093 1211.73,774.249 1214.97,778.407 1218.21,782.566 1221.46,786.728 1224.7,790.893 1227.94,795.06 1231.19,799.23 1234.43,803.403 1237.67,807.579 1240.92,811.759 1244.16,815.943 1247.4,820.13 1250.64,824.322 1253.89,828.519 1257.13,832.72 1260.37,836.926 1263.62,841.137 1266.86,845.353 1270.1,849.575 1273.35,853.802 1276.59,858.036 1279.83,862.276 1283.08,866.522 1286.32,870.774 1289.56,875.034 1292.8,879.3 1296.05,883.574 1299.29,887.855 1302.53,892.143 1305.78,896.439 1309.02,900.743 1312.26,905.055 1315.51,909.375 1318.75,913.704 1321.99,918.041 1325.23,922.387 1328.48,926.741 1331.72,931.104 1334.96,935.474 1338.21,939.847 1341.45,944.223 1344.69,948.598 1347.94,952.969 1351.18,957.335 1354.42,961.693 1357.66,966.041 1360.91,970.375 1364.15,974.694 1367.39,978.995 1370.64,983.275 1373.88,987.532 1377.12,991.763 1380.37,995.966 1383.61,1000.14 1386.85,1004.27 1390.1,1008.37 1393.34,1012.43 1396.58,1016.45 1399.82,1020.42 1403.07,1024.35 1406.31,1028.22 1409.55,1032.04 1412.8,1035.8 1416.04,1039.5 1419.28,1043.15 1422.53,1046.74 1425.77,1050.28 1429.01,1053.77 1432.25,1057.2 1435.5,1060.59 1438.74,1063.92 1441.98,1067.2 1445.23,1070.43 1448.47,1073.61 1451.71,1076.74 1454.96,1079.83 1458.2,1082.87 1461.44,1085.85 1464.68,1088.8 1467.93,1091.69 1471.17,1094.53 1474.41,1097.33 1477.66,1100.08 1480.9,1102.79 1484.14,1105.44 1487.39,1108.05 1490.63,1110.61 1493.87,1113.12 1497.11,1115.59 1500.36,1118.01 1503.6,1120.38 1506.84,1122.71 1510.09,1125 1513.33,1127.24 1516.57,1129.45 1519.82,1131.61 1523.06,1133.73 1526.3,1135.82 1529.55,1137.86 1532.79,1139.87 1536.03,1141.84 1539.27,1143.78 1542.52,1145.67 1545.76,1147.53 1549,1149.36 1552.25,1151.15 1555.49,1152.9 1558.73,1154.62 1561.98,1156.31 1565.22,1157.96 1568.46,1159.57 1571.7,1161.15 1574.95,1162.7 1578.19,1164.22 1581.43,1165.71 1584.68,1167.17 1587.92,1168.6 1591.16,1170.01 1594.41,1171.39 1597.65,1172.75 1600.89,1174.09 1604.13,1175.41 1607.38,1176.71 1610.62,1177.98 1613.86,1179.25 1617.11,1180.49 1620.35,1181.71 1623.59,1182.93 1626.84,1184.12 1630.08,1185.3 1633.32,1186.47 1636.57,1187.62 1639.81,1188.76 1643.05,1189.89 1646.29,1191.01 1649.54,1192.12 1652.78,1193.21 1656.02,1194.3 1659.27,1195.37 1662.51,1196.44 1665.75,1197.49 1669,1198.53 1672.24,1199.57 1675.48,1200.59 1678.72,1201.61 1681.97,1202.61 1685.21,1203.61 1688.45,1204.6 1691.7,1205.57 1694.94,1206.54 1698.18,1207.49 1701.43,1208.44 1704.67,1209.37 1707.91,1210.29 1711.15,1211.2 1714.4,1212.1 1717.64,1212.98 1720.88,1213.85 1724.13,1214.71 1727.37,1215.55 1730.61,1216.38 1733.86,1217.19 1737.1,1217.98 1740.34,1218.76 1743.59,1219.52 1746.83,1220.25 1750.07,1220.96 1753.31,1221.64 1756.56,1222.29 1759.8,1222.91 1763.04,1223.48 1766.29,1224.02 1769.53,1224.5 1772.77,1224.94 1776.02,1225.33 1779.26,1225.66 1782.5,1225.93 1785.74,1226.14 1788.99,1226.27 1792.23,1226.34 1795.47,1226.33 1798.72,1226.23 1801.96,1226.06 1805.2,1225.79 1808.45,1225.43 1811.69,1224.97 1814.93,1224.41 1818.17,1223.74 1821.42,1222.96 1824.66,1222.09 1827.9,1221.12 1831.15,1220.06 1834.39,1218.9 1837.63,1217.66 1840.88,1216.34 1844.12,1214.94 1847.36,1213.46 1850.61,1211.91 1853.85,1210.29 1857.09,1208.6 1860.33,1206.85 1863.58,1205.03 1866.82,1203.16 1870.06,1201.23 1873.31,1199.24 1876.55,1197.2 1879.79,1195.12 1883.04,1192.99 1886.28,1190.81 1889.52,1188.59 1892.76,1186.33 1896.01,1184.03 1899.25,1181.7 1902.49,1179.33 1905.74,1176.93 1908.98,1174.5 1912.22,1172.04 1915.47,1169.55 1918.71,1167.04 1921.95,1164.51 1925.19,1161.95 1928.44,1159.37 1931.68,1156.77 1934.92,1154.16 1938.17,1151.53 1941.41,1148.89 1944.65,1146.23 1947.9,1143.56 1951.14,1140.88 1954.38,1138.19 1957.63,1135.49 1960.87,1132.78 1964.11,1130.07 1967.35,1127.35 1970.6,1124.63 1973.84,1121.91 1977.08,1119.18 1980.33,1116.45 1983.57,1113.72 1986.81,1111 1990.06,1108.27 1993.3,1105.54 1996.54,1102.82 1999.78,1100.11 2003.03,1097.39 2006.27,1094.68 2009.51,1091.98 2012.76,1089.29 2016,1086.6 2019.24,1083.92 2022.49,1081.24 2025.73,1078.58 2028.97,1075.93 2032.21,1073.28 2035.46,1070.65 2038.7,1068.03 2041.94,1065.41 2045.19,1062.81 2048.43,1060.23 2051.67,1057.65 2054.92,1055.09 2058.16,1052.54 2061.4,1050.01 2064.65,1047.48 2067.89,1044.98 2071.13,1042.49 2074.37,1040.01 2077.62,1037.55 2080.86,1035.1 2084.1,1032.67 2087.35,1030.25 2090.59,1027.84 2093.83,1025.43 2097.08,1023.04 2100.32,1020.66 2103.56,1018.28 2106.8,1015.91 2110.05,1013.54 2113.29,1011.18 2116.53,1008.82 2119.78,1006.46 2123.02,1004.1 2126.26,1001.74 2129.51,999.37 2132.75,997.001 2135.99,994.626 2139.23,992.244 2142.48,989.854 2145.72,987.455 2148.96,985.044 2152.21,982.621 2155.45,980.184 2158.69,977.732 2161.94,975.263 2165.18,972.775 2168.42,970.268 2171.67,967.738 2174.91,965.186 2178.15,962.609 2181.39,960.005 2184.64,957.373 2187.88,954.711 2191.12,952.017 2194.37,949.289 2197.61,946.529 2200.85,943.735 2204.1,940.908 2207.34,938.048 2210.58,935.155 2213.82,932.23 2217.07,929.272 2220.31,926.282 2223.55,923.264 2226.8,920.223 2230.04,917.164 2233.28,914.091 2236.53,911.01 2239.77,907.925 2243.01,904.841 2246.25,901.763 2249.5,898.695 2252.74,895.642 2255.98,892.609 2259.23,889.601 2262.47,886.622 2265.71,883.677 2268.96,880.771 2272.2,877.909 2275.44,875.095 2278.69,872.334 2281.93,869.628 2285.17,866.98 2288.41,864.39 2291.66,861.862 "/>
<path clip-path="url(#clip990)" d="M1953.46 302.578 L2280.8 302.578 L2280.8 95.2176 L1953.46 95.2176  Z" fill="#ffffff" fill-rule="evenodd" fill-opacity="1"/>
<polyline clip-path="url(#clip990)" style="stroke:#000000; stroke-linecap:round; stroke-linejoin:round; stroke-width:4; stroke-opacity:1; fill:none" points="1953.46,302.578 2280.8,302.578 2280.8,95.2176 1953.46,95.2176 1953.46,302.578 "/>
<polyline clip-path="url(#clip990)" style="stroke:#009af9; stroke-linecap:round; stroke-linejoin:round; stroke-width:4; stroke-opacity:1; fill:none" points="1977.44,147.058 2121.36,147.058 "/>
<path clip-path="url(#clip990)" d="M2152.76 131.051 L2152.76 138.412 L2161.53 138.412 L2161.53 141.722 L2152.76 141.722 L2152.76 155.796 Q2152.76 158.967 2153.61 159.87 Q2154.49 160.773 2157.16 160.773 L2161.53 160.773 L2161.53 164.338 L2157.16 164.338 Q2152.23 164.338 2150.35 162.509 Q2148.48 160.657 2148.48 155.796 L2148.48 141.722 L2145.35 141.722 L2145.35 138.412 L2148.48 138.412 L2148.48 131.051 L2152.76 131.051 Z" fill="#000000" fill-rule="nonzero" fill-opacity="1" /><path clip-path="url(#clip990)" d="M2182.16 142.393 Q2181.44 141.977 2180.58 141.791 Q2179.75 141.583 2178.73 141.583 Q2175.12 141.583 2173.17 143.944 Q2171.25 146.282 2171.25 150.68 L2171.25 164.338 L2166.97 164.338 L2166.97 138.412 L2171.25 138.412 L2171.25 142.44 Q2172.6 140.078 2174.75 138.944 Q2176.9 137.787 2179.98 137.787 Q2180.42 137.787 2180.95 137.856 Q2181.48 137.903 2182.13 138.018 L2182.16 142.393 Z" fill="#000000" fill-rule="nonzero" fill-opacity="1" /><path clip-path="url(#clip990)" d="M2186.18 154.106 L2186.18 138.412 L2190.44 138.412 L2190.44 153.944 Q2190.44 157.625 2191.88 159.476 Q2193.31 161.305 2196.18 161.305 Q2199.63 161.305 2201.62 159.106 Q2203.64 156.907 2203.64 153.111 L2203.64 138.412 L2207.9 138.412 L2207.9 164.338 L2203.64 164.338 L2203.64 160.356 Q2202.09 162.717 2200.03 163.875 Q2197.99 165.009 2195.28 165.009 Q2190.81 165.009 2188.5 162.231 Q2186.18 159.453 2186.18 154.106 M2196.9 137.787 L2196.9 137.787 Z" fill="#000000" fill-rule="nonzero" fill-opacity="1" /><path clip-path="url(#clip990)" d="M2220.88 131.051 L2220.88 138.412 L2229.66 138.412 L2229.66 141.722 L2220.88 141.722 L2220.88 155.796 Q2220.88 158.967 2221.74 159.87 Q2222.62 160.773 2225.28 160.773 L2229.66 160.773 L2229.66 164.338 L2225.28 164.338 Q2220.35 164.338 2218.48 162.509 Q2216.6 160.657 2216.6 155.796 L2216.6 141.722 L2213.48 141.722 L2213.48 138.412 L2216.6 138.412 L2216.6 131.051 L2220.88 131.051 Z" fill="#000000" fill-rule="nonzero" fill-opacity="1" /><path clip-path="url(#clip990)" d="M2256.81 148.689 L2256.81 164.338 L2252.55 164.338 L2252.55 148.828 Q2252.55 145.148 2251.11 143.319 Q2249.68 141.49 2246.81 141.49 Q2243.36 141.49 2241.37 143.69 Q2239.38 145.889 2239.38 149.685 L2239.38 164.338 L2235.1 164.338 L2235.1 128.319 L2239.38 128.319 L2239.38 142.44 Q2240.91 140.102 2242.97 138.944 Q2245.05 137.787 2247.76 137.787 Q2252.23 137.787 2254.52 140.565 Q2256.81 143.319 2256.81 148.689 Z" fill="#000000" fill-rule="nonzero" fill-opacity="1" /><circle clip-path="url(#clip990)" cx="2049.4" cy="198.898" r="20.48" fill="#e26f46" fill-rule="evenodd" fill-opacity="1" stroke="#000000" stroke-opacity="1" stroke-width="4.55111"/>
<path clip-path="url(#clip990)" d="M2164.26 194.187 L2164.26 180.159 L2168.52 180.159 L2168.52 216.178 L2164.26 216.178 L2164.26 212.289 Q2162.92 214.603 2160.86 215.738 Q2158.82 216.849 2155.95 216.849 Q2151.25 216.849 2148.29 213.099 Q2145.35 209.349 2145.35 203.238 Q2145.35 197.127 2148.29 193.377 Q2151.25 189.627 2155.95 189.627 Q2158.82 189.627 2160.86 190.761 Q2162.92 191.872 2164.26 194.187 M2149.75 203.238 Q2149.75 207.937 2151.67 210.622 Q2153.61 213.284 2156.99 213.284 Q2160.37 213.284 2162.32 210.622 Q2164.26 207.937 2164.26 203.238 Q2164.26 198.539 2162.32 195.877 Q2160.37 193.192 2156.99 193.192 Q2153.61 193.192 2151.67 195.877 Q2149.75 198.539 2149.75 203.238 Z" fill="#000000" fill-rule="nonzero" fill-opacity="1" /><path clip-path="url(#clip990)" d="M2189.08 203.145 Q2183.92 203.145 2181.92 204.326 Q2179.93 205.506 2179.93 208.354 Q2179.93 210.622 2181.42 211.965 Q2182.92 213.284 2185.49 213.284 Q2189.03 213.284 2191.16 210.784 Q2193.31 208.261 2193.31 204.094 L2193.31 203.145 L2189.08 203.145 M2197.57 201.386 L2197.57 216.178 L2193.31 216.178 L2193.31 212.242 Q2191.85 214.603 2189.68 215.738 Q2187.5 216.849 2184.36 216.849 Q2180.37 216.849 2178.01 214.627 Q2175.67 212.381 2175.67 208.631 Q2175.67 204.256 2178.59 202.034 Q2181.53 199.812 2187.34 199.812 L2193.31 199.812 L2193.31 199.395 Q2193.31 196.455 2191.37 194.858 Q2189.45 193.238 2185.95 193.238 Q2183.73 193.238 2181.62 193.77 Q2179.52 194.303 2177.57 195.367 L2177.57 191.432 Q2179.91 190.53 2182.11 190.09 Q2184.31 189.627 2186.39 189.627 Q2192.02 189.627 2194.79 192.543 Q2197.57 195.46 2197.57 201.386 Z" fill="#000000" fill-rule="nonzero" fill-opacity="1" /><path clip-path="url(#clip990)" d="M2210.56 182.891 L2210.56 190.252 L2219.33 190.252 L2219.33 193.562 L2210.56 193.562 L2210.56 207.636 Q2210.56 210.807 2211.42 211.71 Q2212.29 212.613 2214.96 212.613 L2219.33 212.613 L2219.33 216.178 L2214.96 216.178 Q2210.03 216.178 2208.15 214.349 Q2206.28 212.497 2206.28 207.636 L2206.28 193.562 L2203.15 193.562 L2203.15 190.252 L2206.28 190.252 L2206.28 182.891 L2210.56 182.891 Z" fill="#000000" fill-rule="nonzero" fill-opacity="1" /><path clip-path="url(#clip990)" d="M2236.72 203.145 Q2231.55 203.145 2229.56 204.326 Q2227.57 205.506 2227.57 208.354 Q2227.57 210.622 2229.05 211.965 Q2230.56 213.284 2233.13 213.284 Q2236.67 213.284 2238.8 210.784 Q2240.95 208.261 2240.95 204.094 L2240.95 203.145 L2236.72 203.145 M2245.21 201.386 L2245.21 216.178 L2240.95 216.178 L2240.95 212.242 Q2239.49 214.603 2237.32 215.738 Q2235.14 216.849 2231.99 216.849 Q2228.01 216.849 2225.65 214.627 Q2223.31 212.381 2223.31 208.631 Q2223.31 204.256 2226.23 202.034 Q2229.17 199.812 2234.98 199.812 L2240.95 199.812 L2240.95 199.395 Q2240.95 196.455 2239.01 194.858 Q2237.09 193.238 2233.59 193.238 Q2231.37 193.238 2229.26 193.77 Q2227.16 194.303 2225.21 195.367 L2225.21 191.432 Q2227.55 190.53 2229.75 190.09 Q2231.95 189.627 2234.03 189.627 Q2239.66 189.627 2242.43 192.543 Q2245.21 195.46 2245.21 201.386 Z" fill="#000000" fill-rule="nonzero" fill-opacity="1" /><polyline clip-path="url(#clip990)" style="stroke:#3da44d; stroke-linecap:round; stroke-linejoin:round; stroke-width:8; stroke-opacity:1; fill:none" points="1977.44,250.738 2121.36,250.738 "/>
<path clip-path="url(#clip990)" d="M2170.91 263.087 L2170.91 253.805 L2163.27 253.805 L2163.27 249.962 L2175.54 249.962 L2175.54 264.8 Q2172.83 266.721 2169.56 267.717 Q2166.3 268.689 2162.6 268.689 Q2154.49 268.689 2149.91 263.967 Q2145.35 259.221 2145.35 250.772 Q2145.35 242.3 2149.91 237.578 Q2154.49 232.833 2162.6 232.833 Q2165.98 232.833 2169.01 233.666 Q2172.06 234.499 2174.63 236.12 L2174.63 241.096 Q2172.04 238.897 2169.12 237.786 Q2166.21 236.675 2162.99 236.675 Q2156.65 236.675 2153.45 240.217 Q2150.28 243.758 2150.28 250.772 Q2150.28 257.763 2153.45 261.305 Q2156.65 264.846 2162.99 264.846 Q2165.47 264.846 2167.41 264.43 Q2169.36 263.99 2170.91 263.087 Z" fill="#000000" fill-rule="nonzero" fill-opacity="1" /><path clip-path="url(#clip990)" d="M2188.75 237.3 L2188.75 250.286 L2194.63 250.286 Q2197.9 250.286 2199.68 248.596 Q2201.46 246.907 2201.46 243.782 Q2201.46 240.68 2199.68 238.99 Q2197.9 237.3 2194.63 237.3 L2188.75 237.3 M2184.08 233.458 L2194.63 233.458 Q2200.44 233.458 2203.41 236.096 Q2206.39 238.712 2206.39 243.782 Q2206.39 248.897 2203.41 251.513 Q2200.44 254.129 2194.63 254.129 L2188.75 254.129 L2188.75 268.018 L2184.08 268.018 L2184.08 233.458 Z" fill="#000000" fill-rule="nonzero" fill-opacity="1" /></svg>
