<?xml version="1.0" encoding="utf-8"?>
<svg xmlns="http://www.w3.org/2000/svg" xmlns:xlink="http://www.w3.org/1999/xlink" width="600" height="400" viewBox="0 0 2400 1600">
<defs>
  <clipPath id="clip820">
    <rect x="0" y="0" width="2400" height="1600"/>
  </clipPath>
</defs>
<path clip-path="url(#clip820)" d="M0 1600 L2400 1600 L2400 0 L0 0  Z" fill="#ffffff" fill-rule="evenodd" fill-opacity="1"/>
<defs>
  <clipPath id="clip821">
    <rect x="193" y="47" width="2160" height="1440"/>
  </clipPath>
</defs>
<path clip-path="url(#clip820)" d="M193.936 1486.45 L2352.76 1486.45 L2352.76 47.2441 L193.936 47.2441  Z" fill="#ffffff" fill-rule="evenodd" fill-opacity="1"/>
<polyline clip-path="url(#clip821)" style="stroke:#000000; stroke-linecap:round; stroke-linejoin:round; stroke-width:2; stroke-opacity:0.1; fill:none" points="255.035,1486.45 255.035,47.2441 "/>
<polyline clip-path="url(#clip821)" style="stroke:#000000; stroke-linecap:round; stroke-linejoin:round; stroke-width:2; stroke-opacity:0.1; fill:none" points="579.173,1486.45 579.173,47.2441 "/>
<polyline clip-path="url(#clip821)" style="stroke:#000000; stroke-linecap:round; stroke-linejoin:round; stroke-width:2; stroke-opacity:0.1; fill:none" points="903.312,1486.45 903.312,47.2441 "/>
<polyline clip-path="url(#clip821)" style="stroke:#000000; stroke-linecap:round; stroke-linejoin:round; stroke-width:2; stroke-opacity:0.1; fill:none" points="1227.45,1486.45 1227.45,47.2441 "/>
<polyline clip-path="url(#clip821)" style="stroke:#000000; stroke-linecap:round; stroke-linejoin:round; stroke-width:2; stroke-opacity:0.1; fill:none" points="1551.59,1486.45 1551.59,47.2441 "/>
<polyline clip-path="url(#clip821)" style="stroke:#000000; stroke-linecap:round; stroke-linejoin:round; stroke-width:2; stroke-opacity:0.1; fill:none" points="1875.73,1486.45 1875.73,47.2441 "/>
<polyline clip-path="url(#clip821)" style="stroke:#000000; stroke-linecap:round; stroke-linejoin:round; stroke-width:2; stroke-opacity:0.1; fill:none" points="2199.87,1486.45 2199.87,47.2441 "/>
<polyline clip-path="url(#clip821)" style="stroke:#000000; stroke-linecap:round; stroke-linejoin:round; stroke-width:2; stroke-opacity:0.1; fill:none" points="193.936,1294.48 2352.76,1294.48 "/>
<polyline clip-path="url(#clip821)" style="stroke:#000000; stroke-linecap:round; stroke-linejoin:round; stroke-width:2; stroke-opacity:0.1; fill:none" points="193.936,1045.77 2352.76,1045.77 "/>
<polyline clip-path="url(#clip821)" style="stroke:#000000; stroke-linecap:round; stroke-linejoin:round; stroke-width:2; stroke-opacity:0.1; fill:none" points="193.936,797.065 2352.76,797.065 "/>
<polyline clip-path="url(#clip821)" style="stroke:#000000; stroke-linecap:round; stroke-linejoin:round; stroke-width:2; stroke-opacity:0.1; fill:none" points="193.936,548.356 2352.76,548.356 "/>
<polyline clip-path="url(#clip821)" style="stroke:#000000; stroke-linecap:round; stroke-linejoin:round; stroke-width:2; stroke-opacity:0.1; fill:none" points="193.936,299.647 2352.76,299.647 "/>
<polyline clip-path="url(#clip821)" style="stroke:#000000; stroke-linecap:round; stroke-linejoin:round; stroke-width:2; stroke-opacity:0.1; fill:none" points="193.936,50.9385 2352.76,50.9385 "/>
<polyline clip-path="url(#clip820)" style="stroke:#000000; stroke-linecap:round; stroke-linejoin:round; stroke-width:4; stroke-opacity:1; fill:none" points="193.936,1486.45 2352.76,1486.45 "/>
<polyline clip-path="url(#clip820)" style="stroke:#000000; stroke-linecap:round; stroke-linejoin:round; stroke-width:4; stroke-opacity:1; fill:none" points="255.035,1486.45 255.035,1467.55 "/>
<polyline clip-path="url(#clip820)" style="stroke:#000000; stroke-linecap:round; stroke-linejoin:round; stroke-width:4; stroke-opacity:1; fill:none" points="579.173,1486.45 579.173,1467.55 "/>
<polyline clip-path="url(#clip820)" style="stroke:#000000; stroke-linecap:round; stroke-linejoin:round; stroke-width:4; stroke-opacity:1; fill:none" points="903.312,1486.45 903.312,1467.55 "/>
<polyline clip-path="url(#clip820)" style="stroke:#000000; stroke-linecap:round; stroke-linejoin:round; stroke-width:4; stroke-opacity:1; fill:none" points="1227.45,1486.45 1227.45,1467.55 "/>
<polyline clip-path="url(#clip820)" style="stroke:#000000; stroke-linecap:round; stroke-linejoin:round; stroke-width:4; stroke-opacity:1; fill:none" points="1551.59,1486.45 1551.59,1467.55 "/>
<polyline clip-path="url(#clip820)" style="stroke:#000000; stroke-linecap:round; stroke-linejoin:round; stroke-width:4; stroke-opacity:1; fill:none" points="1875.73,1486.45 1875.73,1467.55 "/>
<polyline clip-path="url(#clip820)" style="stroke:#000000; stroke-linecap:round; stroke-linejoin:round; stroke-width:4; stroke-opacity:1; fill:none" points="2199.87,1486.45 2199.87,1467.55 "/>
<path clip-path="url(#clip820)" d="M255.035 1517.37 Q251.424 1517.37 249.595 1520.93 Q247.789 1524.47 247.789 1531.6 Q247.789 1538.71 249.595 1542.27 Q251.424 1545.82 255.035 1545.82 Q258.669 1545.82 260.474 1542.27 Q262.303 1538.71 262.303 1531.6 Q262.303 1524.47 260.474 1520.93 Q258.669 1517.37 255.035 1517.37 M255.035 1513.66 Q260.845 1513.66 263.9 1518.27 Q266.979 1522.85 266.979 1531.6 Q266.979 1540.33 263.9 1544.94 Q260.845 1549.52 255.035 1549.52 Q249.225 1549.52 246.146 1544.94 Q243.09 1540.33 243.09 1531.6 Q243.09 1522.85 246.146 1518.27 Q249.225 1513.66 255.035 1513.66 Z" fill="#000000" fill-rule="nonzero" fill-opacity="1" /><path clip-path="url(#clip820)" d="M569.555 1544.91 L577.194 1544.91 L577.194 1518.55 L568.884 1520.21 L568.884 1515.95 L577.148 1514.29 L581.824 1514.29 L581.824 1544.91 L589.463 1544.91 L589.463 1548.85 L569.555 1548.85 L569.555 1544.91 Z" fill="#000000" fill-rule="nonzero" fill-opacity="1" /><path clip-path="url(#clip820)" d="M897.965 1544.91 L914.284 1544.91 L914.284 1548.85 L892.34 1548.85 L892.34 1544.91 Q895.002 1542.16 899.585 1537.53 Q904.191 1532.88 905.372 1531.53 Q907.617 1529.01 908.497 1527.27 Q909.4 1525.51 909.4 1523.82 Q909.4 1521.07 907.455 1519.33 Q905.534 1517.6 902.432 1517.6 Q900.233 1517.6 897.779 1518.36 Q895.349 1519.13 892.571 1520.68 L892.571 1515.95 Q895.395 1514.82 897.849 1514.24 Q900.303 1513.66 902.34 1513.66 Q907.71 1513.66 910.904 1516.35 Q914.099 1519.03 914.099 1523.52 Q914.099 1525.65 913.289 1527.57 Q912.502 1529.47 910.395 1532.07 Q909.816 1532.74 906.715 1535.95 Q903.613 1539.15 897.965 1544.91 Z" fill="#000000" fill-rule="nonzero" fill-opacity="1" /><path clip-path="url(#clip820)" d="M1231.7 1530.21 Q1235.05 1530.93 1236.93 1533.2 Q1238.83 1535.47 1238.83 1538.8 Q1238.83 1543.92 1235.31 1546.72 Q1231.79 1549.52 1225.31 1549.52 Q1223.13 1549.52 1220.82 1549.08 Q1218.53 1548.66 1216.07 1547.81 L1216.07 1543.29 Q1218.02 1544.43 1220.33 1545.01 Q1222.65 1545.58 1225.17 1545.58 Q1229.57 1545.58 1231.86 1543.85 Q1234.17 1542.11 1234.17 1538.8 Q1234.17 1535.75 1232.02 1534.03 Q1229.89 1532.3 1226.07 1532.3 L1222.05 1532.3 L1222.05 1528.45 L1226.26 1528.45 Q1229.71 1528.45 1231.54 1527.09 Q1233.36 1525.7 1233.36 1523.11 Q1233.36 1520.45 1231.47 1519.03 Q1229.59 1517.6 1226.07 1517.6 Q1224.15 1517.6 1221.95 1518.01 Q1219.75 1518.43 1217.11 1519.31 L1217.11 1515.14 Q1219.78 1514.4 1222.09 1514.03 Q1224.43 1513.66 1226.49 1513.66 Q1231.81 1513.66 1234.92 1516.09 Q1238.02 1518.5 1238.02 1522.62 Q1238.02 1525.49 1236.37 1527.48 Q1234.73 1529.45 1231.7 1530.21 Z" fill="#000000" fill-rule="nonzero" fill-opacity="1" /><path clip-path="url(#clip820)" d="M1554.6 1518.36 L1542.79 1536.81 L1554.6 1536.81 L1554.6 1518.36 M1553.37 1514.29 L1559.25 1514.29 L1559.25 1536.81 L1564.18 1536.81 L1564.18 1540.7 L1559.25 1540.7 L1559.25 1548.85 L1554.6 1548.85 L1554.6 1540.7 L1539 1540.7 L1539 1536.19 L1553.37 1514.29 Z" fill="#000000" fill-rule="nonzero" fill-opacity="1" /><path clip-path="url(#clip820)" d="M1866.01 1514.29 L1884.36 1514.29 L1884.36 1518.22 L1870.29 1518.22 L1870.29 1526.7 Q1871.31 1526.35 1872.32 1526.19 Q1873.34 1526 1874.36 1526 Q1880.15 1526 1883.53 1529.17 Q1886.91 1532.34 1886.91 1537.76 Q1886.91 1543.34 1883.44 1546.44 Q1879.96 1549.52 1873.64 1549.52 Q1871.47 1549.52 1869.2 1549.15 Q1866.95 1548.78 1864.55 1548.04 L1864.55 1543.34 Q1866.63 1544.47 1868.85 1545.03 Q1871.07 1545.58 1873.55 1545.58 Q1877.56 1545.58 1879.89 1543.48 Q1882.23 1541.37 1882.23 1537.76 Q1882.23 1534.15 1879.89 1532.04 Q1877.56 1529.94 1873.55 1529.94 Q1871.68 1529.94 1869.8 1530.35 Q1867.95 1530.77 1866.01 1531.65 L1866.01 1514.29 Z" fill="#000000" fill-rule="nonzero" fill-opacity="1" /><path clip-path="url(#clip820)" d="M2200.27 1529.7 Q2197.12 1529.7 2195.27 1531.86 Q2193.44 1534.01 2193.44 1537.76 Q2193.44 1541.49 2195.27 1543.66 Q2197.12 1545.82 2200.27 1545.82 Q2203.42 1545.82 2205.25 1543.66 Q2207.1 1541.49 2207.1 1537.76 Q2207.1 1534.01 2205.25 1531.86 Q2203.42 1529.7 2200.27 1529.7 M2209.55 1515.05 L2209.55 1519.31 Q2207.79 1518.48 2205.99 1518.04 Q2204.21 1517.6 2202.45 1517.6 Q2197.82 1517.6 2195.36 1520.72 Q2192.93 1523.85 2192.59 1530.17 Q2193.95 1528.15 2196.01 1527.09 Q2198.07 1526 2200.55 1526 Q2205.76 1526 2208.77 1529.17 Q2211.8 1532.32 2211.8 1537.76 Q2211.8 1543.08 2208.65 1546.3 Q2205.5 1549.52 2200.27 1549.52 Q2194.28 1549.52 2191.1 1544.94 Q2187.93 1540.33 2187.93 1531.6 Q2187.93 1523.41 2191.82 1518.55 Q2195.71 1513.66 2202.26 1513.66 Q2204.02 1513.66 2205.8 1514.01 Q2207.61 1514.36 2209.55 1515.05 Z" fill="#000000" fill-rule="nonzero" fill-opacity="1" /><polyline clip-path="url(#clip820)" style="stroke:#000000; stroke-linecap:round; stroke-linejoin:round; stroke-width:4; stroke-opacity:1; fill:none" points="193.936,1486.45 193.936,47.2441 "/>
<polyline clip-path="url(#clip820)" style="stroke:#000000; stroke-linecap:round; stroke-linejoin:round; stroke-width:4; stroke-opacity:1; fill:none" points="193.936,1294.48 212.834,1294.48 "/>
<polyline clip-path="url(#clip820)" style="stroke:#000000; stroke-linecap:round; stroke-linejoin:round; stroke-width:4; stroke-opacity:1; fill:none" points="193.936,1045.77 212.834,1045.77 "/>
<polyline clip-path="url(#clip820)" style="stroke:#000000; stroke-linecap:round; stroke-linejoin:round; stroke-width:4; stroke-opacity:1; fill:none" points="193.936,797.065 212.834,797.065 "/>
<polyline clip-path="url(#clip820)" style="stroke:#000000; stroke-linecap:round; stroke-linejoin:round; stroke-width:4; stroke-opacity:1; fill:none" points="193.936,548.356 212.834,548.356 "/>
<polyline clip-path="url(#clip820)" style="stroke:#000000; stroke-linecap:round; stroke-linejoin:round; stroke-width:4; stroke-opacity:1; fill:none" points="193.936,299.647 212.834,299.647 "/>
<polyline clip-path="url(#clip820)" style="stroke:#000000; stroke-linecap:round; stroke-linejoin:round; stroke-width:4; stroke-opacity:1; fill:none" points="193.936,50.9385 212.834,50.9385 "/>
<path clip-path="url(#clip820)" d="M50.9921 1294.93 L80.6679 1294.93 L80.6679 1298.87 L50.9921 1298.87 L50.9921 1294.93 Z" fill="#000000" fill-rule="nonzero" fill-opacity="1" /><path clip-path="url(#clip820)" d="M91.5706 1307.83 L99.2095 1307.83 L99.2095 1281.46 L90.8993 1283.13 L90.8993 1278.87 L99.1632 1277.2 L103.839 1277.2 L103.839 1307.83 L111.478 1307.83 L111.478 1311.76 L91.5706 1311.76 L91.5706 1307.83 Z" fill="#000000" fill-rule="nonzero" fill-opacity="1" /><path clip-path="url(#clip820)" d="M120.922 1305.88 L125.807 1305.88 L125.807 1311.76 L120.922 1311.76 L120.922 1305.88 Z" fill="#000000" fill-rule="nonzero" fill-opacity="1" /><path clip-path="url(#clip820)" d="M145.992 1280.28 Q142.381 1280.28 140.552 1283.85 Q138.746 1287.39 138.746 1294.52 Q138.746 1301.62 140.552 1305.19 Q142.381 1308.73 145.992 1308.73 Q149.626 1308.73 151.431 1305.19 Q153.26 1301.62 153.26 1294.52 Q153.26 1287.39 151.431 1283.85 Q149.626 1280.28 145.992 1280.28 M145.992 1276.58 Q151.802 1276.58 154.857 1281.18 Q157.936 1285.77 157.936 1294.52 Q157.936 1303.24 154.857 1307.85 Q151.802 1312.43 145.992 1312.43 Q140.181 1312.43 137.103 1307.85 Q134.047 1303.24 134.047 1294.52 Q134.047 1285.77 137.103 1281.18 Q140.181 1276.58 145.992 1276.58 Z" fill="#000000" fill-rule="nonzero" fill-opacity="1" /><path clip-path="url(#clip820)" d="M51.9875 1046.23 L81.6633 1046.23 L81.6633 1050.16 L51.9875 1050.16 L51.9875 1046.23 Z" fill="#000000" fill-rule="nonzero" fill-opacity="1" /><path clip-path="url(#clip820)" d="M101.756 1031.57 Q98.1447 1031.57 96.316 1035.14 Q94.5104 1038.68 94.5104 1045.81 Q94.5104 1052.92 96.316 1056.48 Q98.1447 1060.02 101.756 1060.02 Q105.39 1060.02 107.196 1056.48 Q109.024 1052.92 109.024 1045.81 Q109.024 1038.68 107.196 1035.14 Q105.39 1031.57 101.756 1031.57 M101.756 1027.87 Q107.566 1027.87 110.621 1032.48 Q113.7 1037.06 113.7 1045.81 Q113.7 1054.54 110.621 1059.14 Q107.566 1063.73 101.756 1063.73 Q95.9456 1063.73 92.8669 1059.14 Q89.8114 1054.54 89.8114 1045.81 Q89.8114 1037.06 92.8669 1032.48 Q95.9456 1027.87 101.756 1027.87 Z" fill="#000000" fill-rule="nonzero" fill-opacity="1" /><path clip-path="url(#clip820)" d="M121.918 1057.17 L126.802 1057.17 L126.802 1063.05 L121.918 1063.05 L121.918 1057.17 Z" fill="#000000" fill-rule="nonzero" fill-opacity="1" /><path clip-path="url(#clip820)" d="M137.033 1028.49 L155.39 1028.49 L155.39 1032.43 L141.316 1032.43 L141.316 1040.9 Q142.334 1040.55 143.353 1040.39 Q144.371 1040.21 145.39 1040.21 Q151.177 1040.21 154.556 1043.38 Q157.936 1046.55 157.936 1051.97 Q157.936 1057.54 154.464 1060.65 Q150.992 1063.73 144.672 1063.73 Q142.496 1063.73 140.228 1063.36 Q137.982 1062.98 135.575 1062.24 L135.575 1057.54 Q137.658 1058.68 139.881 1059.23 Q142.103 1059.79 144.58 1059.79 Q148.584 1059.79 150.922 1057.68 Q153.26 1055.58 153.26 1051.97 Q153.26 1048.36 150.922 1046.25 Q148.584 1044.14 144.58 1044.14 Q142.705 1044.14 140.83 1044.56 Q138.978 1044.98 137.033 1045.86 L137.033 1028.49 Z" fill="#000000" fill-rule="nonzero" fill-opacity="1" /><path clip-path="url(#clip820)" d="M100.76 782.864 Q97.1493 782.864 95.3206 786.429 Q93.515 789.97 93.515 797.1 Q93.515 804.206 95.3206 807.771 Q97.1493 811.313 100.76 811.313 Q104.395 811.313 106.2 807.771 Q108.029 804.206 108.029 797.1 Q108.029 789.97 106.2 786.429 Q104.395 782.864 100.76 782.864 M100.76 779.16 Q106.571 779.16 109.626 783.767 Q112.705 788.35 112.705 797.1 Q112.705 805.827 109.626 810.433 Q106.571 815.017 100.76 815.017 Q94.9502 815.017 91.8715 810.433 Q88.816 805.827 88.816 797.1 Q88.816 788.35 91.8715 783.767 Q94.9502 779.16 100.76 779.16 Z" fill="#000000" fill-rule="nonzero" fill-opacity="1" /><path clip-path="url(#clip820)" d="M120.922 808.466 L125.807 808.466 L125.807 814.345 L120.922 814.345 L120.922 808.466 Z" fill="#000000" fill-rule="nonzero" fill-opacity="1" /><path clip-path="url(#clip820)" d="M145.992 782.864 Q142.381 782.864 140.552 786.429 Q138.746 789.97 138.746 797.1 Q138.746 804.206 140.552 807.771 Q142.381 811.313 145.992 811.313 Q149.626 811.313 151.431 807.771 Q153.26 804.206 153.26 797.1 Q153.26 789.97 151.431 786.429 Q149.626 782.864 145.992 782.864 M145.992 779.16 Q151.802 779.16 154.857 783.767 Q157.936 788.35 157.936 797.1 Q157.936 805.827 154.857 810.433 Q151.802 815.017 145.992 815.017 Q140.181 815.017 137.103 810.433 Q134.047 805.827 134.047 797.1 Q134.047 788.35 137.103 783.767 Q140.181 779.16 145.992 779.16 Z" fill="#000000" fill-rule="nonzero" fill-opacity="1" /><path clip-path="url(#clip820)" d="M101.756 534.155 Q98.1447 534.155 96.316 537.72 Q94.5104 541.261 94.5104 548.391 Q94.5104 555.498 96.316 559.062 Q98.1447 562.604 101.756 562.604 Q105.39 562.604 107.196 559.062 Q109.024 555.498 109.024 548.391 Q109.024 541.261 107.196 537.72 Q105.39 534.155 101.756 534.155 M101.756 530.451 Q107.566 530.451 110.621 535.058 Q113.7 539.641 113.7 548.391 Q113.7 557.118 110.621 561.724 Q107.566 566.308 101.756 566.308 Q95.9456 566.308 92.8669 561.724 Q89.8114 557.118 89.8114 548.391 Q89.8114 539.641 92.8669 535.058 Q95.9456 530.451 101.756 530.451 Z" fill="#000000" fill-rule="nonzero" fill-opacity="1" /><path clip-path="url(#clip820)" d="M121.918 559.757 L126.802 559.757 L126.802 565.636 L121.918 565.636 L121.918 559.757 Z" fill="#000000" fill-rule="nonzero" fill-opacity="1" /><path clip-path="url(#clip820)" d="M137.033 531.076 L155.39 531.076 L155.39 535.011 L141.316 535.011 L141.316 543.484 Q142.334 543.136 143.353 542.974 Q144.371 542.789 145.39 542.789 Q151.177 542.789 154.556 545.961 Q157.936 549.132 157.936 554.548 Q157.936 560.127 154.464 563.229 Q150.992 566.308 144.672 566.308 Q142.496 566.308 140.228 565.937 Q137.982 565.567 135.575 564.826 L135.575 560.127 Q137.658 561.261 139.881 561.817 Q142.103 562.372 144.58 562.372 Q148.584 562.372 150.922 560.266 Q153.26 558.16 153.26 554.548 Q153.26 550.937 150.922 548.831 Q148.584 546.724 144.58 546.724 Q142.705 546.724 140.83 547.141 Q138.978 547.558 137.033 548.437 L137.033 531.076 Z" fill="#000000" fill-rule="nonzero" fill-opacity="1" /><path clip-path="url(#clip820)" d="M91.5706 312.992 L99.2095 312.992 L99.2095 286.627 L90.8993 288.293 L90.8993 284.034 L99.1632 282.367 L103.839 282.367 L103.839 312.992 L111.478 312.992 L111.478 316.927 L91.5706 316.927 L91.5706 312.992 Z" fill="#000000" fill-rule="nonzero" fill-opacity="1" /><path clip-path="url(#clip820)" d="M120.922 311.048 L125.807 311.048 L125.807 316.927 L120.922 316.927 L120.922 311.048 Z" fill="#000000" fill-rule="nonzero" fill-opacity="1" /><path clip-path="url(#clip820)" d="M145.992 285.446 Q142.381 285.446 140.552 289.011 Q138.746 292.553 138.746 299.682 Q138.746 306.789 140.552 310.353 Q142.381 313.895 145.992 313.895 Q149.626 313.895 151.431 310.353 Q153.26 306.789 153.26 299.682 Q153.26 292.553 151.431 289.011 Q149.626 285.446 145.992 285.446 M145.992 281.742 Q151.802 281.742 154.857 286.349 Q157.936 290.932 157.936 299.682 Q157.936 308.409 154.857 313.015 Q151.802 317.599 145.992 317.599 Q140.181 317.599 137.103 313.015 Q134.047 308.409 134.047 299.682 Q134.047 290.932 137.103 286.349 Q140.181 281.742 145.992 281.742 Z" fill="#000000" fill-rule="nonzero" fill-opacity="1" /><path clip-path="url(#clip820)" d="M92.566 64.2833 L100.205 64.2833 L100.205 37.9177 L91.8947 39.5844 L91.8947 35.3251 L100.159 33.6585 L104.834 33.6585 L104.834 64.2833 L112.473 64.2833 L112.473 68.2185 L92.566 68.2185 L92.566 64.2833 Z" fill="#000000" fill-rule="nonzero" fill-opacity="1" /><path clip-path="url(#clip820)" d="M121.918 62.3389 L126.802 62.3389 L126.802 68.2185 L121.918 68.2185 L121.918 62.3389 Z" fill="#000000" fill-rule="nonzero" fill-opacity="1" /><path clip-path="url(#clip820)" d="M137.033 33.6585 L155.39 33.6585 L155.39 37.5936 L141.316 37.5936 L141.316 46.0658 Q142.334 45.7186 143.353 45.5566 Q144.371 45.3714 145.39 45.3714 Q151.177 45.3714 154.556 48.5426 Q157.936 51.7139 157.936 57.1306 Q157.936 62.7092 154.464 65.8111 Q150.992 68.8898 144.672 68.8898 Q142.496 68.8898 140.228 68.5194 Q137.982 68.149 135.575 67.4083 L135.575 62.7092 Q137.658 63.8435 139.881 64.399 Q142.103 64.9546 144.58 64.9546 Q148.584 64.9546 150.922 62.8481 Q153.26 60.7417 153.26 57.1306 Q153.26 53.5195 150.922 51.413 Q148.584 49.3065 144.58 49.3065 Q142.705 49.3065 140.83 49.7232 Q138.978 50.1399 137.033 51.0195 L137.033 33.6585 Z" fill="#000000" fill-rule="nonzero" fill-opacity="1" /><polyline clip-path="url(#clip821)" style="stroke:#009af9; stroke-linecap:round; stroke-linejoin:round; stroke-width:4; stroke-opacity:1; fill:none" points="255.035,797.065 258.276,792.091 261.517,787.118 264.759,782.145 268,777.174 271.242,772.205 274.483,767.238 277.724,762.274 280.966,757.314 284.207,752.358 287.449,747.406 290.69,742.46 293.931,737.518 297.173,732.583 300.414,727.654 303.655,722.732 306.897,717.818 310.138,712.911 313.38,708.013 316.621,703.123 319.862,698.244 323.104,693.374 326.345,688.514 329.587,683.665 332.828,678.828 336.069,674.002 339.311,669.189 342.552,664.388 345.793,659.601 349.035,654.828 352.276,650.068 355.518,645.324 358.759,640.594 362,635.88 365.242,631.183 368.483,626.502 371.725,621.838 374.966,617.191 378.207,612.563 381.449,607.953 384.69,603.362 387.931,598.79 391.173,594.238 394.414,589.706 397.656,585.195 400.897,580.706 404.138,576.238 407.38,571.792 410.621,567.368 413.863,562.968 417.104,558.59 420.345,554.237 423.587,549.908 426.828,545.604 430.069,541.325 433.311,537.071 436.552,532.844 439.794,528.643 443.035,524.468 446.276,520.321 449.518,516.202 452.759,512.111 456.001,508.048 459.242,504.014 462.483,500.01 465.725,496.035 468.966,492.09 472.208,488.176 475.449,484.292 478.69,480.44 481.932,476.62 485.173,472.832 488.414,469.076 491.656,465.352 494.897,461.662 498.139,458.006 501.38,454.383 504.621,450.795 507.863,447.242 511.104,443.723 514.346,440.24 517.587,436.792 520.828,433.38 524.07,430.005 527.311,426.666 530.552,423.365 533.794,420.101 537.035,416.874 540.277,413.686 543.518,410.536 546.759,407.424 550.001,404.352 553.242,401.319 556.484,398.325 559.725,395.371 562.966,392.458 566.208,389.585 569.449,386.752 572.69,383.961 575.932,381.211 579.173,378.503 582.415,375.836 585.656,373.212 588.897,370.629 592.139,368.09 595.38,365.593 598.622,363.14 601.863,360.73 605.104,358.364 608.346,356.041 611.587,353.763 614.828,351.529 618.07,349.339 621.311,347.194 624.553,345.095 627.794,343.04 631.035,341.031 634.277,339.067 637.518,337.15 640.76,335.278 644.001,333.452 647.242,331.673 650.484,329.94 653.725,328.254 656.966,326.615 660.208,325.023 663.449,323.479 666.691,321.981 669.932,320.531 673.173,319.129 676.415,317.774 679.656,316.468 682.898,315.209 686.139,313.999 689.38,312.837 692.622,311.723 695.863,310.658 699.104,309.641 702.346,308.674 705.587,307.755 708.829,306.885 712.07,306.064 715.311,305.292 718.553,304.57 721.794,303.896 725.036,303.272 728.277,302.697 731.518,302.172 734.76,301.696 738.001,301.27 741.242,300.893 744.484,300.566 747.725,300.289 750.967,300.061 754.208,299.883 757.449,299.755 760.691,299.676 763.932,299.648 767.174,299.668 770.415,299.739 773.656,299.859 776.898,300.03 780.139,300.249 783.381,300.519 786.622,300.838 789.863,301.207 793.105,301.625 796.346,302.093 799.587,302.61 802.829,303.177 806.07,303.793 809.312,304.459 812.553,305.174 815.794,305.938 819.036,306.751 822.277,307.613 825.519,308.524 828.76,309.484 832.001,310.493 835.243,311.55 838.484,312.656 841.725,313.81 844.967,315.013 848.208,316.264 851.45,317.563 854.691,318.91 857.932,320.305 861.174,321.747 864.415,323.237 867.657,324.774 870.898,326.359 874.139,327.99 877.381,329.669 880.622,331.394 883.863,333.166 887.105,334.984 890.346,336.849 893.588,338.759 896.829,340.715 900.07,342.717 903.312,344.764 906.553,346.857 909.795,348.995 913.036,351.177 916.277,353.404 919.519,355.675 922.76,357.991 926.001,360.35 929.243,362.753 932.484,365.2 935.726,367.69 938.967,370.222 942.208,372.797 945.45,375.415 948.691,378.075 951.933,380.777 955.174,383.52 958.415,386.305 961.657,389.131 964.898,391.998 968.139,394.905 971.381,397.852 974.622,400.839 977.864,403.866 981.105,406.933 984.346,410.038 987.588,413.182 990.829,416.364 994.071,419.584 997.312,422.843 1000.55,426.138 1003.79,429.471 1007.04,432.84 1010.28,436.246 1013.52,439.688 1016.76,443.166 1020,446.679 1023.24,450.227 1026.48,453.81 1029.73,457.427 1032.97,461.078 1036.21,464.762 1039.45,468.48 1042.69,472.231 1045.93,476.014 1049.17,479.83 1052.42,483.677 1055.66,487.555 1058.9,491.465 1062.14,495.404 1065.38,499.375 1068.62,503.374 1071.86,507.404 1075.11,511.462 1078.35,515.549 1081.59,519.663 1084.83,523.806 1088.07,527.976 1091.31,532.173 1094.55,536.396 1097.79,540.646 1101.04,544.921 1104.28,549.221 1107.52,553.546 1110.76,557.896 1114,562.269 1117.24,566.666 1120.48,571.086 1123.73,575.528 1126.97,579.993 1130.21,584.479 1133.45,588.986 1136.69,593.515 1139.93,598.064 1143.17,602.632 1146.42,607.22 1149.66,611.827 1152.9,616.453 1156.14,621.097 1159.38,625.758 1162.62,630.436 1165.86,635.131 1169.11,639.842 1172.35,644.569 1175.59,649.312 1178.83,654.069 1182.07,658.84 1185.31,663.625 1188.55,668.423 1191.8,673.235 1195.04,678.058 1198.28,682.894 1201.52,687.741 1204.76,692.599 1208,697.467 1211.24,702.346 1214.48,707.233 1217.73,712.13 1220.97,717.036 1224.21,721.949 1227.45,726.87 1230.69,731.797 1233.93,736.732 1237.17,741.672 1240.42,746.618 1243.66,751.569 1246.9,756.525 1250.14,761.484 1253.38,766.447 1256.62,771.414 1259.86,776.382 1263.11,781.353 1266.35,786.326 1269.59,791.299 1272.83,796.273 1276.07,801.247 1279.31,806.221 1282.55,811.194 1285.8,816.165 1289.04,821.135 1292.28,826.102 1295.52,831.066 1298.76,836.027 1302,840.983 1305.24,845.936 1308.48,850.883 1311.73,855.826 1314.97,860.762 1318.21,865.692 1321.45,870.615 1324.69,875.531 1327.93,880.439 1331.17,885.338 1334.42,890.229 1337.66,895.11 1340.9,899.982 1344.14,904.843 1347.38,909.694 1350.62,914.533 1353.86,919.361 1357.11,924.176 1360.35,928.979 1363.59,933.768 1366.83,938.544 1370.07,943.305 1373.31,948.052 1376.55,952.784 1379.8,957.5 1383.04,962.201 1386.28,966.884 1389.52,971.551 1392.76,976.2 1396,980.832 1399.24,985.445 1402.49,990.039 1405.73,994.614 1408.97,999.169 1412.21,1003.7 1415.45,1008.22 1418.69,1012.71 1421.93,1017.18 1425.17,1021.63 1428.42,1026.06 1431.66,1030.46 1434.9,1034.84 1438.14,1039.2 1441.38,1043.53 1444.62,1047.84 1447.86,1052.13 1451.11,1056.38 1454.35,1060.62 1457.59,1064.82 1460.83,1069 1464.07,1073.15 1467.31,1077.27 1470.55,1081.37 1473.8,1085.44 1477.04,1089.48 1480.28,1093.49 1483.52,1097.46 1486.76,1101.41 1490,1105.33 1493.24,1109.22 1496.49,1113.08 1499.73,1116.9 1502.97,1120.7 1506.21,1124.46 1509.45,1128.19 1512.69,1131.88 1515.93,1135.54 1519.18,1139.17 1522.42,1142.77 1525.66,1146.33 1528.9,1149.85 1532.14,1153.34 1535.38,1156.79 1538.62,1160.21 1541.86,1163.59 1545.11,1166.93 1548.35,1170.24 1551.59,1173.51 1554.83,1176.74 1558.07,1179.94 1561.31,1183.1 1564.55,1186.21 1567.8,1189.29 1571.04,1192.33 1574.28,1195.33 1577.52,1198.29 1580.76,1201.21 1584,1204.09 1587.24,1206.93 1590.49,1209.73 1593.73,1212.48 1596.97,1215.2 1600.21,1217.87 1603.45,1220.5 1606.69,1223.09 1609.93,1225.64 1613.18,1228.14 1616.42,1230.6 1619.66,1233.02 1622.9,1235.39 1626.14,1237.72 1629.38,1240.01 1632.62,1242.25 1635.86,1244.45 1639.11,1246.6 1642.35,1248.7 1645.59,1250.77 1648.83,1252.78 1652.07,1254.75 1655.31,1256.68 1658.55,1258.56 1661.8,1260.39 1665.04,1262.18 1668.28,1263.92 1671.52,1265.61 1674.76,1267.26 1678,1268.86 1681.24,1270.41 1684.49,1271.91 1687.73,1273.37 1690.97,1274.78 1694.21,1276.14 1697.45,1277.46 1700.69,1278.72 1703.93,1279.94 1707.18,1281.11 1710.42,1282.23 1713.66,1283.31 1716.9,1284.33 1720.14,1285.31 1723.38,1286.23 1726.62,1287.11 1729.87,1287.94 1733.11,1288.72 1736.35,1289.45 1739.59,1290.13 1742.83,1290.76 1746.07,1291.34 1749.31,1291.88 1752.55,1292.36 1755.8,1292.8 1759.04,1293.18 1762.28,1293.52 1765.52,1293.8 1768.76,1294.04 1772,1294.22 1775.24,1294.36 1778.49,1294.44 1781.73,1294.48 1784.97,1294.47 1788.21,1294.41 1791.45,1294.29 1794.69,1294.13 1797.93,1293.92 1801.18,1293.66 1804.42,1293.35 1807.66,1292.99 1810.9,1292.58 1814.14,1292.12 1817.38,1291.61 1820.62,1291.05 1823.87,1290.44 1827.11,1289.78 1830.35,1289.07 1833.59,1288.32 1836.83,1287.51 1840.07,1286.66 1843.31,1285.75 1846.55,1284.8 1849.8,1283.8 1853.04,1282.75 1856.28,1281.65 1859.52,1280.51 1862.76,1279.31 1866,1278.07 1869.24,1276.78 1872.49,1275.44 1875.73,1274.05 1878.97,1272.62 1882.21,1271.13 1885.45,1269.6 1888.69,1268.03 1891.93,1266.4 1895.18,1264.73 1898.42,1263.01 1901.66,1261.25 1904.9,1259.44 1908.14,1257.58 1911.38,1255.68 1914.62,1253.73 1917.87,1251.74 1921.11,1249.7 1924.35,1247.61 1927.59,1245.48 1930.83,1243.3 1934.07,1241.08 1937.31,1238.82 1940.56,1236.51 1943.8,1234.16 1947.04,1231.76 1950.28,1229.32 1953.52,1226.84 1956.76,1224.31 1960,1221.75 1963.24,1219.14 1966.49,1216.48 1969.73,1213.79 1972.97,1211.05 1976.21,1208.27 1979.45,1205.45 1982.69,1202.59 1985.93,1199.69 1989.18,1196.75 1992.42,1193.77 1995.66,1190.75 1998.9,1187.69 2002.14,1184.59 2005.38,1181.45 2008.62,1178.28 2011.87,1175.06 2015.11,1171.81 2018.35,1168.52 2021.59,1165.19 2024.83,1161.83 2028.07,1158.43 2031.31,1154.99 2034.56,1151.52 2037.8,1148.01 2041.04,1144.47 2044.28,1140.89 2047.52,1137.28 2050.76,1133.64 2054,1129.96 2057.24,1126.24 2060.49,1122.5 2063.73,1118.72 2066.97,1114.91 2070.21,1111.07 2073.45,1107.2 2076.69,1103.29 2079.93,1099.36 2083.18,1095.39 2086.42,1091.4 2089.66,1087.37 2092.9,1083.32 2096.14,1079.23 2099.38,1075.12 2102.62,1070.99 2105.87,1066.82 2109.11,1062.63 2112.35,1058.41 2115.59,1054.16 2118.83,1049.89 2122.07,1045.6 2125.31,1041.27 2128.56,1036.93 2131.8,1032.56 2135.04,1028.17 2138.28,1023.75 2141.52,1019.31 2144.76,1014.85 2148,1010.37 2151.25,1005.86 2154.49,1001.34 2157.73,996.793 2160.97,992.227 2164.21,987.642 2167.45,983.038 2170.69,978.416 2173.93,973.775 2177.18,969.116 2180.42,964.441 2183.66,959.748 2186.9,955.039 2190.14,950.315 2193.38,945.575 2196.62,940.821 2199.87,936.052 2203.11,931.269 2206.35,926.472 2209.59,921.663 2212.83,916.841 2216.07,912.007 2219.31,907.162 2222.56,902.306 2225.8,897.439 2229.04,892.562 2232.28,887.676 2235.52,882.781 2238.76,877.877 2242,872.965 2245.25,868.045 2248.49,863.118 2251.73,858.185 2254.97,853.246 2258.21,848.3 2261.45,843.35 2264.69,838.395 2267.94,833.436 2271.18,828.474 2274.42,823.508 2277.66,818.54 2280.9,813.569 2284.14,808.597 2287.38,803.624 2290.62,798.65 "/>
<circle clip-path="url(#clip821)" cx="1927.59" cy="1275.13" r="14.4" fill="#e26f46" fill-rule="evenodd" fill-opacity="1" stroke="#000000" stroke-opacity="1" stroke-width="3.2"/>
<circle clip-path="url(#clip821)" cx="1690.97" cy="1312.95" r="14.4" fill="#e26f46" fill-rule="evenodd" fill-opacity="1" stroke="#000000" stroke-opacity="1" stroke-width="3.2"/>
<circle clip-path="url(#clip821)" cx="1836.83" cy="1229.59" r="14.4" fill="#e26f46" fill-rule="evenodd" fill-opacity="1" stroke="#000000" stroke-opacity="1" stroke-width="3.2"/>
<circle clip-path="url(#clip821)" cx="2199.87" cy="942.717" r="14.4" fill="#e26f46" fill-rule="evenodd" fill-opacity="1" stroke="#000000" stroke-opacity="1" stroke-width="3.2"/>
<circle clip-path="url(#clip821)" cx="1950.28" cy="1187.65" r="14.4" fill="#e26f46" fill-rule="evenodd" fill-opacity="1" stroke="#000000" stroke-opacity="1" stroke-width="3.2"/>
<circle clip-path="url(#clip821)" cx="1869.24" cy="1364.66" r="14.4" fill="#e26f46" fill-rule="evenodd" fill-opacity="1" stroke="#000000" stroke-opacity="1" stroke-width="3.2"/>
<circle clip-path="url(#clip821)" cx="2238.76" cy="788.576" r="14.4" fill="#e26f46" fill-rule="evenodd" fill-opacity="1" stroke="#000000" stroke-opacity="1" stroke-width="3.2"/>
<circle clip-path="url(#clip821)" cx="1490" cy="1029.14" r="14.4" fill="#e26f46" fill-rule="evenodd" fill-opacity="1" stroke="#000000" stroke-opacity="1" stroke-width="3.2"/>
<circle clip-path="url(#clip821)" cx="987.588" cy="301.428" r="14.4" fill="#e26f46" fill-rule="evenodd" fill-opacity="1" stroke="#000000" stroke-opacity="1" stroke-width="3.2"/>
<circle clip-path="url(#clip821)" cx="1930.83" cy="1133.43" r="14.4" fill="#e26f46" fill-rule="evenodd" fill-opacity="1" stroke="#000000" stroke-opacity="1" stroke-width="3.2"/>
<circle clip-path="url(#clip821)" cx="776.898" cy="236.135" r="14.4" fill="#e26f46" fill-rule="evenodd" fill-opacity="1" stroke="#000000" stroke-opacity="1" stroke-width="3.2"/>
<circle clip-path="url(#clip821)" cx="2154.49" cy="997.979" r="14.4" fill="#e26f46" fill-rule="evenodd" fill-opacity="1" stroke="#000000" stroke-opacity="1" stroke-width="3.2"/>
<circle clip-path="url(#clip821)" cx="2018.35" cy="1089.13" r="14.4" fill="#e26f46" fill-rule="evenodd" fill-opacity="1" stroke="#000000" stroke-opacity="1" stroke-width="3.2"/>
<circle clip-path="url(#clip821)" cx="1269.59" cy="816.666" r="14.4" fill="#e26f46" fill-rule="evenodd" fill-opacity="1" stroke="#000000" stroke-opacity="1" stroke-width="3.2"/>
<circle clip-path="url(#clip821)" cx="1969.73" cy="1145.38" r="14.4" fill="#e26f46" fill-rule="evenodd" fill-opacity="1" stroke="#000000" stroke-opacity="1" stroke-width="3.2"/>
<circle clip-path="url(#clip821)" cx="433.311" cy="504.259" r="14.4" fill="#e26f46" fill-rule="evenodd" fill-opacity="1" stroke="#000000" stroke-opacity="1" stroke-width="3.2"/>
<circle clip-path="url(#clip821)" cx="2079.93" cy="989.007" r="14.4" fill="#e26f46" fill-rule="evenodd" fill-opacity="1" stroke="#000000" stroke-opacity="1" stroke-width="3.2"/>
<circle clip-path="url(#clip821)" cx="511.104" cy="363.868" r="14.4" fill="#e26f46" fill-rule="evenodd" fill-opacity="1" stroke="#000000" stroke-opacity="1" stroke-width="3.2"/>
<circle clip-path="url(#clip821)" cx="358.759" cy="572.934" r="14.4" fill="#e26f46" fill-rule="evenodd" fill-opacity="1" stroke="#000000" stroke-opacity="1" stroke-width="3.2"/>
<circle clip-path="url(#clip821)" cx="2151.25" cy="900.76" r="14.4" fill="#e26f46" fill-rule="evenodd" fill-opacity="1" stroke="#000000" stroke-opacity="1" stroke-width="3.2"/>
<path clip-path="url(#clip821)" d="M255.035 948.743 L258.276 943.576 L261.517 938.364 L264.759 933.108 L268 927.809 L271.242 922.469 L274.483 917.09 L277.724 911.675 L280.966 906.224 L284.207 900.741 L287.449 895.228 L290.69 889.687 L293.931 884.123 L297.173 878.537 L300.414 872.934 L303.655 867.316 L306.897 861.689 L310.138 856.056 L313.38 850.421 L316.621 844.79 L319.862 839.167 L323.104 833.558 L326.345 827.968 L329.587 822.404 L332.828 816.871 L336.069 811.377 L339.311 805.928 L342.552 800.53 L345.793 795.193 L349.035 789.922 L352.276 784.727 L355.518 779.614 L358.759 774.593 L362 769.668 L365.242 764.841 L368.483 760.107 L371.725 755.466 L374.966 750.914 L378.207 746.45 L381.449 742.073 L384.69 737.779 L387.931 733.569 L391.173 729.441 L394.414 725.395 L397.656 721.431 L400.897 717.549 L404.138 713.75 L407.38 710.035 L410.621 706.405 L413.863 702.863 L417.104 699.411 L420.345 696.053 L423.587 692.79 L426.828 689.628 L430.069 686.57 L433.311 683.621 L436.552 680.782 L439.794 678.051 L443.035 675.424 L446.276 672.897 L449.518 670.464 L452.759 668.124 L456.001 665.873 L459.242 663.708 L462.483 661.627 L465.725 659.628 L468.966 657.712 L472.208 655.876 L475.449 654.122 L478.69 652.449 L481.932 650.859 L485.173 649.353 L488.414 647.933 L491.656 646.602 L494.897 645.363 L498.139 644.219 L501.38 643.173 L504.621 642.229 L507.863 641.391 L511.104 640.663 L514.346 640.048 L517.587 639.538 L520.828 639.123 L524.07 638.793 L527.311 638.539 L530.552 638.352 L533.794 638.223 L537.035 638.143 L540.277 638.104 L543.518 638.099 L546.759 638.12 L550.001 638.159 L553.242 638.211 L556.484 638.267 L559.725 638.323 L562.966 638.373 L566.208 638.41 L569.449 638.431 L572.69 638.43 L575.932 638.402 L579.173 638.344 L582.415 638.252 L585.656 638.121 L588.897 637.95 L592.139 637.734 L595.38 637.471 L598.622 637.158 L601.863 636.793 L605.104 636.374 L608.346 635.899 L611.587 635.367 L614.828 634.776 L618.07 634.124 L621.311 633.412 L624.553 632.637 L627.794 631.8 L631.035 630.9 L634.277 629.937 L637.518 628.911 L640.76 627.822 L644.001 626.671 L647.242 625.458 L650.484 624.184 L653.725 622.85 L656.966 621.458 L660.208 620.008 L663.449 618.502 L666.691 616.942 L669.932 615.33 L673.173 613.668 L676.415 611.96 L679.656 610.206 L682.898 608.411 L686.139 606.577 L689.38 604.709 L692.622 602.808 L695.863 600.88 L699.104 598.928 L702.346 596.957 L705.587 594.971 L708.829 592.975 L712.07 590.975 L715.311 588.976 L718.553 586.983 L721.794 585.003 L725.036 583.041 L728.277 581.105 L731.518 579.202 L734.76 577.338 L738.001 575.521 L741.242 573.758 L744.484 572.058 L747.725 570.428 L750.967 568.878 L754.208 567.415 L757.449 566.049 L760.691 564.788 L763.932 563.642 L767.174 562.619 L770.415 561.729 L773.656 560.98 L776.898 560.383 L780.139 559.944 L783.381 559.656 L786.622 559.512 L789.863 559.504 L793.105 559.624 L796.346 559.863 L799.587 560.214 L802.829 560.669 L806.07 561.22 L809.312 561.859 L812.553 562.579 L815.794 563.373 L819.036 564.234 L822.277 565.156 L825.519 566.132 L828.76 567.157 L832.001 568.224 L835.243 569.33 L838.484 570.468 L841.725 571.634 L844.967 572.824 L848.208 574.034 L851.45 575.261 L854.691 576.501 L857.932 577.752 L861.174 579.01 L864.415 580.275 L867.657 581.544 L870.898 582.816 L874.139 584.089 L877.381 585.364 L880.622 586.639 L883.863 587.915 L887.105 589.192 L890.346 590.47 L893.588 591.751 L896.829 593.037 L900.07 594.328 L903.312 595.627 L906.553 596.937 L909.795 598.26 L913.036 599.599 L916.277 600.958 L919.519 602.341 L922.76 603.752 L926.001 605.196 L929.243 606.677 L932.484 608.201 L935.726 609.773 L938.967 611.4 L942.208 613.088 L945.45 614.844 L948.691 616.673 L951.933 618.585 L955.174 620.586 L958.415 622.685 L961.657 624.888 L964.898 627.206 L968.139 629.645 L971.381 632.216 L974.622 634.926 L977.864 637.785 L981.105 640.801 L984.346 643.984 L987.588 647.342 L990.829 650.881 L994.071 654.595 L997.312 658.474 L1000.55 662.509 L1003.79 666.69 L1007.04 671.008 L1010.28 675.452 L1013.52 680.015 L1016.76 684.687 L1020 689.459 L1023.24 694.321 L1026.48 699.266 L1029.73 704.285 L1032.97 709.371 L1036.21 714.514 L1039.45 719.709 L1042.69 724.947 L1045.93 730.221 L1049.17 735.526 L1052.42 740.854 L1055.66 746.199 L1058.9 751.556 L1062.14 756.919 L1065.38 762.282 L1068.62 767.641 L1071.86 772.991 L1075.11 778.327 L1078.35 783.645 L1081.59 788.94 L1084.83 794.21 L1088.07 799.45 L1091.31 804.657 L1094.55 809.829 L1097.79 814.96 L1101.04 820.051 L1104.28 825.096 L1107.52 830.095 L1110.76 835.045 L1114 839.944 L1117.24 844.79 L1120.48 849.582 L1123.73 854.318 L1126.97 858.997 L1130.21 863.618 L1133.45 868.179 L1136.69 872.681 L1139.93 877.122 L1143.17 881.502 L1146.42 885.821 L1149.66 890.079 L1152.9 894.275 L1156.14 898.411 L1159.38 902.486 L1162.62 906.502 L1165.86 910.458 L1169.11 914.356 L1172.35 918.198 L1175.59 921.983 L1178.83 925.715 L1182.07 929.395 L1185.31 933.024 L1188.55 936.606 L1191.8 940.141 L1195.04 943.633 L1198.28 947.085 L1201.52 950.5 L1204.76 953.881 L1208 957.231 L1211.24 960.554 L1214.48 963.854 L1217.73 967.135 L1220.97 970.401 L1224.21 973.658 L1227.45 976.91 L1230.69 980.161 L1233.93 983.418 L1237.17 986.685 L1240.42 989.968 L1243.66 993.273 L1246.9 996.606 L1250.14 999.972 L1253.38 1003.38 L1256.62 1006.83 L1259.86 1010.33 L1263.11 1013.89 L1266.35 1017.51 L1269.59 1021.21 L1272.83 1024.97 L1276.07 1028.81 L1279.31 1032.7 L1282.55 1036.66 L1285.8 1040.66 L1289.04 1044.72 L1292.28 1048.81 L1295.52 1052.93 L1298.76 1057.08 L1302 1061.26 L1305.24 1065.45 L1308.48 1069.65 L1311.73 1073.86 L1314.97 1078.06 L1318.21 1082.26 L1321.45 1086.45 L1324.69 1090.63 L1327.93 1094.79 L1331.17 1098.93 L1334.42 1103.04 L1337.66 1107.12 L1340.9 1111.16 L1344.14 1115.17 L1347.38 1119.14 L1350.62 1123.08 L1353.86 1126.96 L1357.11 1130.8 L1360.35 1134.6 L1363.59 1138.35 L1366.83 1142.04 L1370.07 1145.69 L1373.31 1149.28 L1376.55 1152.82 L1379.8 1156.31 L1383.04 1159.75 L1386.28 1163.14 L1389.52 1166.47 L1392.76 1169.76 L1396 1172.99 L1399.24 1176.18 L1402.49 1179.32 L1405.73 1182.41 L1408.97 1185.46 L1412.21 1188.47 L1415.45 1191.44 L1418.69 1194.38 L1421.93 1197.28 L1425.17 1200.15 L1428.42 1203 L1431.66 1205.82 L1434.9 1208.62 L1438.14 1211.42 L1441.38 1214.2 L1444.62 1216.97 L1447.86 1219.74 L1451.11 1222.52 L1454.35 1225.31 L1457.59 1228.12 L1460.83 1230.94 L1464.07 1233.79 L1467.31 1236.68 L1470.55 1239.6 L1473.8 1242.57 L1477.04 1245.59 L1480.28 1248.67 L1483.52 1251.81 L1486.76 1255.03 L1490 1258.31 L1493.24 1261.68 L1496.49 1265.13 L1499.73 1268.64 L1502.97 1272.21 L1506.21 1275.85 L1509.45 1279.53 L1512.69 1283.25 L1515.93 1287.01 L1519.18 1290.79 L1522.42 1294.6 L1525.66 1298.43 L1528.9 1302.26 L1532.14 1306.1 L1535.38 1309.94 L1538.62 1313.77 L1541.86 1317.59 L1545.11 1321.39 L1548.35 1325.17 L1551.59 1328.92 L1554.83 1332.63 L1558.07 1336.31 L1561.31 1339.95 L1564.55 1343.55 L1567.8 1347.09 L1571.04 1350.59 L1574.28 1354.03 L1577.52 1357.41 L1580.76 1360.74 L1584 1364 L1587.24 1367.2 L1590.49 1370.33 L1593.73 1373.39 L1596.97 1376.38 L1600.21 1379.31 L1603.45 1382.16 L1606.69 1384.93 L1609.93 1387.64 L1613.18 1390.27 L1616.42 1392.82 L1619.66 1395.3 L1622.9 1397.71 L1626.14 1400.04 L1629.38 1402.3 L1632.62 1404.49 L1635.86 1406.6 L1639.11 1408.65 L1642.35 1410.62 L1645.59 1412.53 L1648.83 1414.37 L1652.07 1416.15 L1655.31 1417.87 L1658.55 1419.53 L1661.8 1421.13 L1665.04 1422.67 L1668.28 1424.17 L1671.52 1425.61 L1674.76 1427.01 L1678 1428.36 L1681.24 1429.67 L1684.49 1430.95 L1687.73 1432.18 L1690.97 1433.39 L1694.21 1434.56 L1697.45 1435.7 L1700.69 1436.8 L1703.93 1437.86 L1707.18 1438.87 L1710.42 1439.83 L1713.66 1440.73 L1716.9 1441.57 L1720.14 1442.34 L1723.38 1443.05 L1726.62 1443.68 L1729.87 1444.23 L1733.11 1444.7 L1736.35 1445.09 L1739.59 1445.39 L1742.83 1445.59 L1746.07 1445.7 L1749.31 1445.72 L1752.55 1445.63 L1755.8 1445.44 L1759.04 1445.15 L1762.28 1444.75 L1765.52 1444.25 L1768.76 1443.64 L1772 1442.92 L1775.24 1442.09 L1778.49 1441.16 L1781.73 1440.11 L1784.97 1438.96 L1788.21 1437.7 L1791.45 1436.34 L1794.69 1434.87 L1797.93 1433.3 L1801.18 1431.63 L1804.42 1429.87 L1807.66 1428.01 L1810.9 1426.06 L1814.14 1424.02 L1817.38 1421.91 L1820.62 1419.71 L1823.87 1417.45 L1827.11 1415.11 L1830.35 1412.72 L1833.59 1410.27 L1836.83 1407.77 L1840.07 1405.23 L1843.31 1402.64 L1846.55 1400.01 L1849.8 1397.32 L1853.04 1394.59 L1856.28 1391.79 L1859.52 1388.95 L1862.76 1386.05 L1866 1383.09 L1869.24 1380.07 L1872.49 1376.99 L1875.73 1373.86 L1878.97 1370.67 L1882.21 1367.42 L1885.45 1364.12 L1888.69 1360.76 L1891.93 1357.34 L1895.18 1353.88 L1898.42 1350.37 L1901.66 1346.81 L1904.9 1343.23 L1908.14 1339.61 L1911.38 1335.97 L1914.62 1332.32 L1917.87 1328.66 L1921.11 1325.01 L1924.35 1321.37 L1927.59 1317.76 L1930.83 1314.18 L1934.07 1310.65 L1937.31 1307.17 L1940.56 1303.73 L1943.8 1300.33 L1947.04 1296.98 L1950.28 1293.68 L1953.52 1290.42 L1956.76 1287.21 L1960 1284.03 L1963.24 1280.88 L1966.49 1277.77 L1969.73 1274.69 L1972.97 1271.63 L1976.21 1268.59 L1979.45 1265.56 L1982.69 1262.53 L1985.93 1259.5 L1989.18 1256.46 L1992.42 1253.4 L1995.66 1250.34 L1998.9 1247.25 L2002.14 1244.14 L2005.38 1241.01 L2008.62 1237.85 L2011.87 1234.68 L2015.11 1231.48 L2018.35 1228.27 L2021.59 1225.03 L2024.83 1221.78 L2028.07 1218.5 L2031.31 1215.19 L2034.56 1211.85 L2037.8 1208.48 L2041.04 1205.07 L2044.28 1201.63 L2047.52 1198.15 L2050.76 1194.63 L2054 1191.08 L2057.24 1187.5 L2060.49 1183.89 L2063.73 1180.25 L2066.97 1176.58 L2070.21 1172.9 L2073.45 1169.2 L2076.69 1165.5 L2079.93 1161.78 L2083.18 1158.08 L2086.42 1154.37 L2089.66 1150.66 L2092.9 1146.95 L2096.14 1143.23 L2099.38 1139.51 L2102.62 1135.8 L2105.87 1132.08 L2109.11 1128.36 L2112.35 1124.65 L2115.59 1120.94 L2118.83 1117.25 L2122.07 1113.58 L2125.31 1109.94 L2128.56 1106.33 L2131.8 1102.77 L2135.04 1099.25 L2138.28 1095.8 L2141.52 1092.42 L2144.76 1089.13 L2148 1085.93 L2151.25 1082.84 L2154.49 1079.88 L2157.73 1077.04 L2160.97 1074.32 L2164.21 1071.73 L2167.45 1069.26 L2170.69 1066.92 L2173.93 1064.71 L2177.18 1062.63 L2180.42 1060.67 L2183.66 1058.84 L2186.9 1057.15 L2190.14 1055.6 L2193.38 1054.19 L2196.62 1052.93 L2199.87 1051.81 L2203.11 1050.85 L2206.35 1050.05 L2209.59 1049.4 L2212.83 1048.9 L2216.07 1048.55 L2219.31 1048.36 L2222.56 1048.33 L2225.8 1048.45 L2229.04 1048.73 L2232.28 1049.17 L2235.52 1049.77 L2238.76 1050.54 L2242 1051.48 L2245.25 1052.57 L2248.49 1053.8 L2251.73 1055.17 L2254.97 1056.67 L2258.21 1058.29 L2261.45 1060.01 L2264.69 1061.83 L2267.94 1063.74 L2271.18 1065.74 L2274.42 1067.81 L2277.66 1069.95 L2280.9 1072.15 L2284.14 1074.41 L2287.38 1076.72 L2290.62 1079.07 L2290.62 598.734 L2287.38 604.167 L2284.14 609.639 L2280.9 615.144 L2277.66 620.679 L2274.42 626.241 L2271.18 631.824 L2267.94 637.424 L2264.69 643.034 L2261.45 648.651 L2258.21 654.268 L2254.97 659.878 L2251.73 665.474 L2248.49 671.051 L2245.25 676.599 L2242 682.112 L2238.76 687.582 L2235.52 693.001 L2232.28 698.365 L2229.04 703.672 L2225.8 708.917 L2222.56 714.098 L2219.31 719.21 L2216.07 724.249 L2212.83 729.211 L2209.59 734.091 L2206.35 738.883 L2203.11 743.582 L2199.87 748.182 L2196.62 752.679 L2193.38 757.075 L2190.14 761.374 L2186.9 765.579 L2183.66 769.692 L2180.42 773.718 L2177.18 777.656 L2173.93 781.509 L2170.69 785.278 L2167.45 788.964 L2164.21 792.565 L2160.97 796.082 L2157.73 799.515 L2154.49 802.861 L2151.25 806.121 L2148 809.304 L2144.76 812.421 L2141.52 815.486 L2138.28 818.511 L2135.04 821.509 L2131.8 824.491 L2128.56 827.468 L2125.31 830.45 L2122.07 833.445 L2118.83 836.462 L2115.59 839.508 L2112.35 842.589 L2109.11 845.71 L2105.87 848.877 L2102.62 852.093 L2099.38 855.36 L2096.14 858.681 L2092.9 862.057 L2089.66 865.488 L2086.42 868.975 L2083.18 872.517 L2079.93 876.112 L2076.69 879.759 L2073.45 883.462 L2070.21 887.223 L2066.97 891.045 L2063.73 894.931 L2060.49 898.881 L2057.24 902.896 L2054 906.978 L2050.76 911.125 L2047.52 915.336 L2044.28 919.61 L2041.04 923.944 L2037.8 928.335 L2034.56 932.78 L2031.31 937.273 L2028.07 941.81 L2024.83 946.385 L2021.59 950.992 L2018.35 955.622 L2015.11 960.271 L2011.87 964.935 L2008.62 969.613 L2005.38 974.301 L2002.14 978.997 L1998.9 983.697 L1995.66 988.395 L1992.42 993.087 L1989.18 997.764 L1985.93 1002.42 L1982.69 1007.05 L1979.45 1011.63 L1976.21 1016.17 L1972.97 1020.64 L1969.73 1025.04 L1966.49 1029.36 L1963.24 1033.58 L1960 1037.69 L1956.76 1041.7 L1953.52 1045.59 L1950.28 1049.35 L1947.04 1052.97 L1943.8 1056.44 L1940.56 1059.77 L1937.31 1062.95 L1934.07 1065.97 L1930.83 1068.83 L1927.59 1071.52 L1924.35 1074.05 L1921.11 1076.42 L1917.87 1078.63 L1914.62 1080.7 L1911.38 1082.63 L1908.14 1084.43 L1904.9 1086.1 L1901.66 1087.64 L1898.42 1089.07 L1895.18 1090.37 L1891.93 1091.55 L1888.69 1092.61 L1885.45 1093.55 L1882.21 1094.36 L1878.97 1095.04 L1875.73 1095.59 L1872.49 1096 L1869.24 1096.27 L1866 1096.39 L1862.76 1096.37 L1859.52 1096.21 L1856.28 1095.93 L1853.04 1095.51 L1849.8 1094.98 L1846.55 1094.33 L1843.31 1093.58 L1840.07 1092.71 L1836.83 1091.74 L1833.59 1090.67 L1830.35 1089.5 L1827.11 1088.26 L1823.87 1086.94 L1820.62 1085.55 L1817.38 1084.11 L1814.14 1082.61 L1810.9 1081.07 L1807.66 1079.5 L1804.42 1077.9 L1801.18 1076.26 L1797.93 1074.61 L1794.69 1072.94 L1791.45 1071.26 L1788.21 1069.57 L1784.97 1067.87 L1781.73 1066.17 L1778.49 1064.46 L1775.24 1062.75 L1772 1061.04 L1768.76 1059.33 L1765.52 1057.62 L1762.28 1055.91 L1759.04 1054.19 L1755.8 1052.47 L1752.55 1050.74 L1749.31 1049 L1746.07 1047.25 L1742.83 1045.49 L1739.59 1043.71 L1736.35 1041.9 L1733.11 1040.06 L1729.87 1038.2 L1726.62 1036.29 L1723.38 1034.35 L1720.14 1032.35 L1716.9 1030.3 L1713.66 1028.19 L1710.42 1026 L1707.18 1023.75 L1703.93 1021.41 L1700.69 1018.98 L1697.45 1016.45 L1694.21 1013.82 L1690.97 1011.07 L1687.73 1008.21 L1684.49 1005.23 L1681.24 1002.15 L1678 998.976 L1674.76 995.713 L1671.52 992.369 L1668.28 988.953 L1665.04 985.472 L1661.8 981.934 L1658.55 978.346 L1655.31 974.715 L1652.07 971.046 L1648.83 967.348 L1645.59 963.626 L1642.35 959.885 L1639.11 956.131 L1635.86 952.369 L1632.62 948.604 L1629.38 944.842 L1626.14 941.085 L1622.9 937.338 L1619.66 933.605 L1616.42 929.888 L1613.18 926.192 L1609.93 922.518 L1606.69 918.87 L1603.45 915.249 L1600.21 911.657 L1596.97 908.095 L1593.73 904.566 L1590.49 901.069 L1587.24 897.606 L1584 894.177 L1580.76 890.781 L1577.52 887.42 L1574.28 884.091 L1571.04 880.794 L1567.8 877.528 L1564.55 874.292 L1561.31 871.084 L1558.07 867.901 L1554.83 864.742 L1551.59 861.604 L1548.35 858.483 L1545.11 855.376 L1541.86 852.281 L1538.62 849.192 L1535.38 846.106 L1532.14 843.019 L1528.9 839.925 L1525.66 836.821 L1522.42 833.699 L1519.18 830.556 L1515.93 827.385 L1512.69 824.181 L1509.45 820.938 L1506.21 817.65 L1502.97 814.309 L1499.73 810.911 L1496.49 807.449 L1493.24 803.917 L1490 800.308 L1486.76 796.619 L1483.52 792.853 L1480.28 789.017 L1477.04 785.118 L1473.8 781.161 L1470.55 777.153 L1467.31 773.1 L1464.07 769.008 L1460.83 764.883 L1457.59 760.732 L1454.35 756.56 L1451.11 752.373 L1447.86 748.175 L1444.62 743.973 L1441.38 739.77 L1438.14 735.572 L1434.9 731.383 L1431.66 727.207 L1428.42 723.047 L1425.17 718.908 L1421.93 714.792 L1418.69 710.703 L1415.45 706.643 L1412.21 702.615 L1408.97 698.62 L1405.73 694.661 L1402.49 690.739 L1399.24 686.856 L1396 683.012 L1392.76 679.209 L1389.52 675.447 L1386.28 671.725 L1383.04 668.045 L1379.8 664.405 L1376.55 660.806 L1373.31 657.246 L1370.07 653.724 L1366.83 650.239 L1363.59 646.789 L1360.35 643.372 L1357.11 639.987 L1353.86 636.629 L1350.62 633.298 L1347.38 629.989 L1344.14 626.7 L1340.9 623.426 L1337.66 620.165 L1334.42 616.911 L1331.17 613.66 L1327.93 610.408 L1324.69 607.149 L1321.45 603.878 L1318.21 600.589 L1314.97 597.278 L1311.73 593.936 L1308.48 590.559 L1305.24 587.139 L1302 583.67 L1298.76 580.144 L1295.52 576.555 L1292.28 572.894 L1289.04 569.155 L1285.8 565.329 L1282.55 561.41 L1279.31 557.389 L1276.07 553.26 L1272.83 549.013 L1269.59 544.642 L1266.35 540.142 L1263.11 535.518 L1259.86 530.777 L1256.62 525.927 L1253.38 520.974 L1250.14 515.928 L1246.9 510.794 L1243.66 505.581 L1240.42 500.296 L1237.17 494.946 L1233.93 489.539 L1230.69 484.081 L1227.45 478.58 L1224.21 473.042 L1220.97 467.473 L1217.73 461.88 L1214.48 456.269 L1211.24 450.645 L1208 445.014 L1204.76 439.381 L1201.52 433.751 L1198.28 428.13 L1195.04 422.522 L1191.8 416.931 L1188.55 411.361 L1185.31 405.817 L1182.07 400.302 L1178.83 394.821 L1175.59 389.375 L1172.35 383.969 L1169.11 378.606 L1165.86 373.288 L1162.62 368.018 L1159.38 362.798 L1156.14 357.632 L1152.9 352.521 L1149.66 347.468 L1146.42 342.473 L1143.17 337.54 L1139.93 332.669 L1136.69 327.862 L1133.45 323.121 L1130.21 318.446 L1126.97 313.84 L1123.73 309.302 L1120.48 304.834 L1117.24 300.436 L1114 296.109 L1110.76 291.854 L1107.52 287.67 L1104.28 283.559 L1101.04 279.519 L1097.79 275.552 L1094.55 271.656 L1091.31 267.832 L1088.07 264.079 L1084.83 260.397 L1081.59 256.784 L1078.35 253.24 L1075.11 249.764 L1071.86 246.354 L1068.62 243.01 L1065.38 239.73 L1062.14 236.512 L1058.9 233.354 L1055.66 230.254 L1052.42 227.21 L1049.17 224.22 L1045.93 221.282 L1042.69 218.391 L1039.45 215.546 L1036.21 212.744 L1032.97 209.981 L1029.73 207.254 L1026.48 204.559 L1023.24 201.893 L1020 199.251 L1016.76 196.631 L1013.52 194.027 L1010.28 191.436 L1007.04 188.853 L1003.79 186.275 L1000.55 183.697 L997.312 181.116 L994.071 178.527 L990.829 175.927 L987.588 173.311 L984.346 170.679 L981.105 168.032 L977.864 165.374 L974.622 162.71 L971.381 160.044 L968.139 157.381 L964.898 154.724 L961.657 152.079 L958.415 149.451 L955.174 146.843 L951.933 144.26 L948.691 141.707 L945.45 139.188 L942.208 136.707 L938.967 134.267 L935.726 131.874 L932.484 129.529 L929.243 127.237 L926.001 125 L922.76 122.823 L919.519 120.706 L916.277 118.654 L913.036 116.667 L909.795 114.749 L906.553 112.901 L903.312 111.124 L900.07 109.42 L896.829 107.79 L893.588 106.236 L890.346 104.757 L887.105 103.354 L883.863 102.028 L880.622 100.778 L877.381 99.6047 L874.139 98.5071 L870.898 97.4848 L867.657 96.5368 L864.415 95.6621 L861.174 94.8594 L857.932 94.1272 L854.691 93.4637 L851.45 92.867 L848.208 92.3348 L844.967 91.8648 L841.725 91.4543 L838.484 91.1004 L835.243 90.8 L832.001 90.5499 L828.76 90.3466 L825.519 90.1864 L822.277 90.0653 L819.036 89.9792 L815.794 89.9239 L812.553 89.895 L809.312 89.8879 L806.07 89.8978 L802.829 89.9201 L799.587 89.9497 L796.346 89.9818 L793.105 90.0115 L789.863 90.0338 L786.622 90.0439 L783.381 90.0371 L780.139 90.0088 L776.898 89.9547 L773.656 89.8719 L770.415 89.7631 L767.174 89.6322 L763.932 89.4836 L760.691 89.3218 L757.449 89.1513 L754.208 88.9767 L750.967 88.8027 L747.725 88.634 L744.484 88.4751 L741.242 88.3307 L738.001 88.2051 L734.76 88.1027 L731.518 88.0277 L728.277 87.9843 L725.036 87.9763 L721.794 88.0075 L718.553 88.0816 L715.311 88.202 L712.07 88.372 L708.829 88.5947 L705.587 88.873 L702.346 89.2098 L699.104 89.6078 L695.863 90.0693 L692.622 90.5966 L689.38 91.192 L686.139 91.8575 L682.898 92.5949 L679.656 93.406 L676.415 94.2923 L673.173 95.2554 L669.932 96.2965 L666.691 97.417 L663.449 98.6178 L660.208 99.9 L656.966 101.264 L653.725 102.712 L650.484 104.243 L647.242 105.858 L644.001 107.558 L640.76 109.343 L637.518 111.213 L634.277 113.168 L631.035 115.209 L627.794 117.334 L624.553 119.545 L621.311 121.841 L618.07 124.22 L614.828 126.684 L611.587 129.23 L608.346 131.859 L605.104 134.569 L601.863 137.36 L598.622 140.23 L595.38 143.177 L592.139 146.202 L588.897 149.301 L585.656 152.473 L582.415 155.716 L579.173 159.029 L575.932 162.408 L572.69 165.852 L569.449 169.357 L566.208 172.921 L562.966 176.54 L559.725 180.212 L556.484 183.933 L553.242 187.699 L550.001 191.505 L546.759 195.348 L543.518 199.223 L540.277 203.126 L537.035 207.05 L533.794 210.991 L530.552 214.944 L527.311 218.902 L524.07 222.86 L520.828 226.811 L517.587 230.749 L514.346 234.668 L511.104 238.561 L507.863 242.422 L504.621 246.251 L501.38 250.048 L498.139 253.812 L494.897 257.543 L491.656 261.241 L488.414 264.906 L485.173 268.535 L481.932 272.129 L478.69 275.686 L475.449 279.204 L472.208 282.68 L468.966 286.111 L465.725 289.495 L462.483 292.828 L459.242 296.106 L456.001 299.324 L452.759 302.478 L449.518 305.561 L446.276 308.568 L443.035 311.494 L439.794 314.33 L436.552 317.071 L433.311 319.71 L430.069 322.241 L426.828 324.664 L423.587 326.982 L420.345 329.197 L417.104 331.31 L413.863 333.324 L410.621 335.238 L407.38 337.053 L404.138 338.771 L400.897 340.39 L397.656 341.91 L394.414 343.33 L391.173 344.65 L387.931 345.866 L384.69 346.978 L381.449 347.982 L378.207 348.877 L374.966 349.658 L371.725 350.323 L368.483 350.868 L365.242 351.29 L362 351.585 L358.759 351.75 L355.518 351.782 L352.276 351.687 L349.035 351.473 L345.793 351.149 L342.552 350.721 L339.311 350.197 L336.069 349.583 L332.828 348.888 L329.587 348.118 L326.345 347.278 L323.104 346.376 L319.862 345.417 L316.621 344.407 L313.38 343.351 L310.138 342.253 L306.897 341.119 L303.655 339.954 L300.414 338.76 L297.173 337.543 L293.931 336.305 L290.69 335.05 L287.449 333.782 L284.207 332.504 L280.966 331.217 L277.724 329.926 L274.483 328.631 L271.242 327.336 L268 326.043 L264.759 324.753 L261.517 323.468 L258.276 322.19 L255.035 320.921  Z" fill="#3da44d" fill-rule="evenodd" fill-opacity="0.1"/>
<polyline clip-path="url(#clip821)" style="stroke:#3da44d; stroke-linecap:round; stroke-linejoin:round; stroke-width:8; stroke-opacity:1; fill:none" points="255.035,634.832 258.276,632.883 261.517,630.916 264.759,628.93 268,626.926 271.242,624.903 274.483,622.861 277.724,620.8 280.966,618.721 284.207,616.622 287.449,614.505 290.69,612.369 293.931,610.214 297.173,608.04 300.414,605.847 303.655,603.635 306.897,601.404 310.138,599.154 313.38,596.886 316.621,594.598 319.862,592.292 323.104,589.967 326.345,587.623 329.587,585.261 332.828,582.88 336.069,580.48 339.311,578.062 342.552,575.626 345.793,573.171 349.035,570.698 352.276,568.207 355.518,565.698 358.759,563.171 362,560.627 365.242,558.065 368.483,555.488 371.725,552.894 374.966,550.286 378.207,547.663 381.449,545.027 384.69,542.379 387.931,539.718 391.173,537.046 394.414,534.363 397.656,531.671 400.897,528.969 404.138,526.26 407.38,523.544 410.621,520.821 413.863,518.093 417.104,515.361 420.345,512.625 423.587,509.886 426.828,507.146 430.069,504.405 433.311,501.665 436.552,498.927 439.794,496.191 443.035,493.459 446.276,490.733 449.518,488.013 452.759,485.301 456.001,482.598 459.242,479.907 462.483,477.227 465.725,474.562 468.966,471.911 472.208,469.278 475.449,466.663 478.69,464.067 481.932,461.494 485.173,458.944 488.414,456.419 491.656,453.922 494.897,451.453 498.139,449.015 501.38,446.61 504.621,444.24 507.863,441.906 511.104,439.612 514.346,437.358 517.587,435.144 520.828,432.967 524.07,430.826 527.311,428.721 530.552,426.648 533.794,424.607 537.035,422.597 540.277,420.615 543.518,418.661 546.759,416.734 550.001,414.832 553.242,412.955 556.484,411.1 559.725,409.268 562.966,407.457 566.208,405.666 569.449,403.894 572.69,402.141 575.932,400.405 579.173,398.686 582.415,396.984 585.656,395.297 588.897,393.625 592.139,391.968 595.38,390.324 598.622,388.694 601.863,387.076 605.104,385.472 608.346,383.879 611.587,382.299 614.828,380.73 618.07,379.172 621.311,377.626 624.553,376.091 627.794,374.567 631.035,373.054 634.277,371.553 637.518,370.062 640.76,368.583 644.001,367.115 647.242,365.658 650.484,364.214 653.725,362.781 656.966,361.361 660.208,359.954 663.449,358.56 666.691,357.179 669.932,355.813 673.173,354.462 676.415,353.126 679.656,351.806 682.898,350.503 686.139,349.217 689.38,347.95 692.622,346.702 695.863,345.474 699.104,344.268 702.346,343.083 705.587,341.922 708.829,340.785 712.07,339.673 715.311,338.589 718.553,337.532 721.794,336.505 725.036,335.509 728.277,334.545 731.518,333.615 734.76,332.72 738.001,331.863 741.242,331.044 744.484,330.266 747.725,329.531 750.967,328.84 754.208,328.196 757.449,327.6 760.691,327.055 763.932,326.563 767.174,326.125 770.415,325.746 773.656,325.426 776.898,325.169 780.139,324.976 783.381,324.846 786.622,324.778 789.863,324.769 793.105,324.818 796.346,324.923 799.587,325.082 802.829,325.295 806.07,325.559 809.312,325.873 812.553,326.237 815.794,326.648 819.036,327.107 822.277,327.611 825.519,328.159 828.76,328.752 832.001,329.387 835.243,330.065 838.484,330.784 841.725,331.544 844.967,332.344 848.208,333.185 851.45,334.064 854.691,334.982 857.932,335.939 861.174,336.935 864.415,337.969 867.657,339.04 870.898,340.15 874.139,341.298 877.381,342.484 880.622,343.709 883.863,344.971 887.105,346.273 890.346,347.614 893.588,348.994 896.829,350.414 900.07,351.874 903.312,353.376 906.553,354.919 909.795,356.504 913.036,358.133 916.277,359.806 919.519,361.524 922.76,363.287 926.001,365.098 929.243,366.957 932.484,368.865 935.726,370.823 938.967,372.834 942.208,374.898 945.45,377.016 948.691,379.19 951.933,381.423 955.174,383.715 958.415,386.068 961.657,388.484 964.898,390.965 968.139,393.513 971.381,396.13 974.622,398.818 977.864,401.579 981.105,404.416 984.346,407.331 987.588,410.327 990.829,413.404 994.071,416.561 997.312,419.795 1000.55,423.103 1003.79,426.483 1007.04,429.93 1010.28,433.444 1013.52,437.021 1016.76,440.659 1020,444.355 1023.24,448.107 1026.48,451.913 1029.73,455.77 1032.97,459.676 1036.21,463.629 1039.45,467.628 1042.69,471.669 1045.93,475.751 1049.17,479.873 1052.42,484.032 1055.66,488.227 1058.9,492.455 1062.14,496.715 1065.38,501.006 1068.62,505.326 1071.86,509.673 1075.11,514.045 1078.35,518.442 1081.59,522.862 1084.83,527.303 1088.07,531.765 1091.31,536.245 1094.55,540.742 1097.79,545.256 1101.04,549.785 1104.28,554.328 1107.52,558.883 1110.76,563.45 1114,568.027 1117.24,572.613 1120.48,577.208 1123.73,581.81 1126.97,586.419 1130.21,591.032 1133.45,595.65 1136.69,600.272 1139.93,604.895 1143.17,609.521 1146.42,614.147 1149.66,618.773 1152.9,623.398 1156.14,628.022 1159.38,632.642 1162.62,637.26 1165.86,641.873 1169.11,646.481 1172.35,651.083 1175.59,655.679 1178.83,660.268 1182.07,664.849 1185.31,669.421 1188.55,673.983 1191.8,678.536 1195.04,683.078 1198.28,687.608 1201.52,692.126 1204.76,696.631 1208,701.122 1211.24,705.599 1214.48,710.061 1217.73,714.507 1220.97,718.937 1224.21,723.35 1227.45,727.745 1230.69,732.121 1233.93,736.478 1237.17,740.816 1240.42,745.132 1243.66,749.427 1246.9,753.7 1250.14,757.95 1253.38,762.176 1256.62,766.378 1259.86,770.554 1263.11,774.705 1266.35,778.829 1269.59,782.925 1272.83,786.992 1276.07,791.033 1279.31,795.046 1282.55,799.034 1285.8,802.996 1289.04,806.935 1292.28,810.85 1295.52,814.743 1298.76,818.614 1302,822.464 1305.24,826.294 1308.48,830.104 1311.73,833.896 1314.97,837.669 1318.21,841.426 1321.45,845.166 1324.69,848.89 1327.93,852.599 1331.17,856.293 1334.42,859.973 1337.66,863.64 1340.9,867.294 1344.14,870.936 1347.38,874.567 1350.62,878.187 1353.86,881.796 1357.11,885.396 1360.35,888.986 1363.59,892.567 1366.83,896.14 1370.07,899.706 1373.31,903.264 1376.55,906.815 1379.8,910.359 1383.04,913.898 1386.28,917.431 1389.52,920.959 1392.76,924.482 1396,928.001 1399.24,931.516 1402.49,935.027 1405.73,938.535 1408.97,942.04 1412.21,945.542 1415.45,949.042 1418.69,952.539 1421.93,956.035 1425.17,959.529 1428.42,963.022 1431.66,966.513 1434.9,970.004 1438.14,973.494 1441.38,976.983 1444.62,980.472 1447.86,983.96 1451.11,987.448 1454.35,990.936 1457.59,994.424 1460.83,997.913 1464.07,1001.4 1467.31,1004.89 1470.55,1008.38 1473.8,1011.87 1477.04,1015.36 1480.28,1018.84 1483.52,1022.33 1486.76,1025.82 1490,1029.31 1493.24,1032.8 1496.49,1036.29 1499.73,1039.78 1502.97,1043.26 1506.21,1046.75 1509.45,1050.23 1512.69,1053.71 1515.93,1057.2 1519.18,1060.67 1522.42,1064.15 1525.66,1067.62 1528.9,1071.09 1532.14,1074.56 1535.38,1078.02 1538.62,1081.48 1541.86,1084.94 1545.11,1088.38 1548.35,1091.82 1551.59,1095.26 1554.83,1098.69 1558.07,1102.11 1561.31,1105.52 1564.55,1108.92 1567.8,1112.31 1571.04,1115.69 1574.28,1119.06 1577.52,1122.42 1580.76,1125.76 1584,1129.09 1587.24,1132.4 1590.49,1135.7 1593.73,1138.98 1596.97,1142.24 1600.21,1145.48 1603.45,1148.7 1606.69,1151.9 1609.93,1155.08 1613.18,1158.23 1616.42,1161.36 1619.66,1164.45 1622.9,1167.52 1626.14,1170.56 1629.38,1173.57 1632.62,1176.55 1635.86,1179.49 1639.11,1182.39 1642.35,1185.25 1645.59,1188.08 1648.83,1190.86 1652.07,1193.6 1655.31,1196.29 1658.55,1198.94 1661.8,1201.53 1665.04,1204.07 1668.28,1206.56 1671.52,1208.99 1674.76,1211.36 1678,1213.67 1681.24,1215.91 1684.49,1218.09 1687.73,1220.2 1690.97,1222.23 1694.21,1224.19 1697.45,1226.08 1700.69,1227.89 1703.93,1229.63 1707.18,1231.31 1710.42,1232.92 1713.66,1234.46 1716.9,1235.93 1720.14,1237.35 1723.38,1238.7 1726.62,1239.99 1729.87,1241.21 1733.11,1242.38 1736.35,1243.49 1739.59,1244.55 1742.83,1245.54 1746.07,1246.48 1749.31,1247.36 1752.55,1248.18 1755.8,1248.96 1759.04,1249.67 1762.28,1250.33 1765.52,1250.94 1768.76,1251.49 1772,1251.98 1775.24,1252.42 1778.49,1252.81 1781.73,1253.14 1784.97,1253.42 1788.21,1253.64 1791.45,1253.8 1794.69,1253.91 1797.93,1253.96 1801.18,1253.95 1804.42,1253.88 1807.66,1253.75 1810.9,1253.57 1814.14,1253.32 1817.38,1253.01 1820.62,1252.63 1823.87,1252.19 1827.11,1251.68 1830.35,1251.11 1833.59,1250.47 1836.83,1249.76 1840.07,1248.97 1843.31,1248.11 1846.55,1247.17 1849.8,1246.15 1853.04,1245.05 1856.28,1243.86 1859.52,1242.58 1862.76,1241.21 1866,1239.74 1869.24,1238.17 1872.49,1236.5 1875.73,1234.73 1878.97,1232.86 1882.21,1230.89 1885.45,1228.83 1888.69,1226.68 1891.93,1224.44 1895.18,1222.12 1898.42,1219.72 1901.66,1217.23 1904.9,1214.66 1908.14,1212.02 1911.38,1209.3 1914.62,1206.51 1917.87,1203.65 1921.11,1200.71 1924.35,1197.71 1927.59,1194.64 1930.83,1191.5 1934.07,1188.31 1937.31,1185.06 1940.56,1181.75 1943.8,1178.39 1947.04,1174.97 1950.28,1171.51 1953.52,1168 1956.76,1164.45 1960,1160.86 1963.24,1157.23 1966.49,1153.56 1969.73,1149.86 1972.97,1146.13 1976.21,1142.38 1979.45,1138.59 1982.69,1134.79 1985.93,1130.96 1989.18,1127.11 1992.42,1123.25 1995.66,1119.37 1998.9,1115.47 2002.14,1111.57 2005.38,1107.65 2008.62,1103.73 2011.87,1099.81 2015.11,1095.88 2018.35,1091.95 2021.59,1088.01 2024.83,1084.08 2028.07,1080.16 2031.31,1076.23 2034.56,1072.32 2037.8,1068.41 2041.04,1064.51 2044.28,1060.62 2047.52,1056.74 2050.76,1052.88 2054,1049.03 2057.24,1045.2 2060.49,1041.38 2063.73,1037.59 2066.97,1033.81 2070.21,1030.06 2073.45,1026.33 2076.69,1022.63 2079.93,1018.95 2083.18,1015.3 2086.42,1011.67 2089.66,1008.07 2092.9,1004.5 2096.14,1000.96 2099.38,997.437 2102.62,993.944 2105.87,990.477 2109.11,987.035 2112.35,983.618 2115.59,980.225 2118.83,976.858 2122.07,973.515 2125.31,970.196 2128.56,966.901 2131.8,963.629 2135.04,960.381 2138.28,957.156 2141.52,953.954 2144.76,950.775 2148,947.618 2151.25,944.483 2154.49,941.369 2157.73,938.275 2160.97,935.201 2164.21,932.147 2167.45,929.114 2170.69,926.101 2173.93,923.11 2177.18,920.141 2180.42,917.193 2183.66,914.269 2186.9,911.367 2190.14,908.488 2193.38,905.634 2196.62,902.803 2199.87,899.998 2203.11,897.218 2206.35,894.465 2209.59,891.743 2212.83,889.054 2216.07,886.401 2219.31,883.787 2222.56,881.213 2225.8,878.684 2229.04,876.202 2232.28,873.769 2235.52,871.388 2238.76,869.062 2242,866.794 2245.25,864.582 2248.49,862.426 2251.73,860.324 2254.97,858.275 2258.21,856.277 2261.45,854.33 2264.69,852.433 2267.94,850.583 2271.18,848.781 2274.42,847.025 2277.66,845.314 2280.9,843.648 2284.14,842.024 2287.38,840.442 2290.62,838.901 "/>
<polyline clip-path="url(#clip821)" style="stroke:#c271d2; stroke-linecap:round; stroke-linejoin:round; stroke-width:12; stroke-opacity:1; fill:none" points="255.035,846.562 362.225,701.338 469.416,596.938 576.607,560.809 683.797,524.002 790.988,483.118 898.179,514.619 1005.37,590.446 1112.56,749.304 1219.75,887.181 1326.94,1014.73 1434.13,1130.24 1541.32,1241.24 1648.51,1341.41 1755.7,1381.48 1862.89,1338.8 1970.09,1233.69 2077.28,1118.32 2184.47,1011.26 2291.66,1001.25 "/>
<polyline clip-path="url(#clip821)" style="stroke:#ac8d18; stroke-linecap:round; stroke-linejoin:round; stroke-width:12; stroke-opacity:1; fill:none" points="255.035,423.102 362.225,419.561 469.416,346.152 576.607,239.283 683.797,176.287 790.988,166.441 898.179,187.414 1005.37,265.852 1112.56,382.675 1219.75,547.372 1326.94,688.202 1434.13,808.12 1541.32,927.475 1648.51,1039.77 1755.7,1116.39 1862.89,1143.5 1970.09,1065.21 2077.28,925.603 2184.47,815.831 2291.66,675.592 "/>
<path clip-path="url(#clip820)" d="M1953.46 406.258 L2280.8 406.258 L2280.8 95.2176 L1953.46 95.2176  Z" fill="#ffffff" fill-rule="evenodd" fill-opacity="1"/>
<polyline clip-path="url(#clip820)" style="stroke:#000000; stroke-linecap:round; stroke-linejoin:round; stroke-width:4; stroke-opacity:1; fill:none" points="1953.46,406.258 2280.8,406.258 2280.8,95.2176 1953.46,95.2176 1953.46,406.258 "/>
<polyline clip-path="url(#clip820)" style="stroke:#009af9; stroke-linecap:round; stroke-linejoin:round; stroke-width:4; stroke-opacity:1; fill:none" points="1977.44,147.058 2121.36,147.058 "/>
<path clip-path="url(#clip820)" d="M2152.76 131.051 L2152.76 138.412 L2161.53 138.412 L2161.53 141.722 L2152.76 141.722 L2152.76 155.796 Q2152.76 158.967 2153.61 159.87 Q2154.49 160.773 2157.16 160.773 L2161.53 160.773 L2161.53 164.338 L2157.16 164.338 Q2152.23 164.338 2150.35 162.509 Q2148.48 160.657 2148.48 155.796 L2148.48 141.722 L2145.35 141.722 L2145.35 138.412 L2148.48 138.412 L2148.48 131.051 L2152.76 131.051 Z" fill="#000000" fill-rule="nonzero" fill-opacity="1" /><path clip-path="url(#clip820)" d="M2182.16 142.393 Q2181.44 141.977 2180.58 141.791 Q2179.75 141.583 2178.73 141.583 Q2175.12 141.583 2173.17 143.944 Q2171.25 146.282 2171.25 150.68 L2171.25 164.338 L2166.97 164.338 L2166.97 138.412 L2171.25 138.412 L2171.25 142.44 Q2172.6 140.078 2174.75 138.944 Q2176.9 137.787 2179.98 137.787 Q2180.42 137.787 2180.95 137.856 Q2181.48 137.903 2182.13 138.018 L2182.16 142.393 Z" fill="#000000" fill-rule="nonzero" fill-opacity="1" /><path clip-path="url(#clip820)" d="M2186.18 154.106 L2186.18 138.412 L2190.44 138.412 L2190.44 153.944 Q2190.44 157.625 2191.88 159.476 Q2193.31 161.305 2196.18 161.305 Q2199.63 161.305 2201.62 159.106 Q2203.64 156.907 2203.64 153.111 L2203.64 138.412 L2207.9 138.412 L2207.9 164.338 L2203.64 164.338 L2203.64 160.356 Q2202.09 162.717 2200.03 163.875 Q2197.99 165.009 2195.28 165.009 Q2190.81 165.009 2188.5 162.231 Q2186.18 159.453 2186.18 154.106 M2196.9 137.787 L2196.9 137.787 Z" fill="#000000" fill-rule="nonzero" fill-opacity="1" /><path clip-path="url(#clip820)" d="M2220.88 131.051 L2220.88 138.412 L2229.66 138.412 L2229.66 141.722 L2220.88 141.722 L2220.88 155.796 Q2220.88 158.967 2221.74 159.87 Q2222.62 160.773 2225.28 160.773 L2229.66 160.773 L2229.66 164.338 L2225.28 164.338 Q2220.35 164.338 2218.48 162.509 Q2216.6 160.657 2216.6 155.796 L2216.6 141.722 L2213.48 141.722 L2213.48 138.412 L2216.6 138.412 L2216.6 131.051 L2220.88 131.051 Z" fill="#000000" fill-rule="nonzero" fill-opacity="1" /><path clip-path="url(#clip820)" d="M2256.81 148.689 L2256.81 164.338 L2252.55 164.338 L2252.55 148.828 Q2252.55 145.148 2251.11 143.319 Q2249.68 141.49 2246.81 141.49 Q2243.36 141.49 2241.37 143.69 Q2239.38 145.889 2239.38 149.685 L2239.38 164.338 L2235.1 164.338 L2235.1 128.319 L2239.38 128.319 L2239.38 142.44 Q2240.91 140.102 2242.97 138.944 Q2245.05 137.787 2247.76 137.787 Q2252.23 137.787 2254.52 140.565 Q2256.81 143.319 2256.81 148.689 Z" fill="#000000" fill-rule="nonzero" fill-opacity="1" /><circle clip-path="url(#clip820)" cx="2049.4" cy="198.898" r="20.48" fill="#e26f46" fill-rule="evenodd" fill-opacity="1" stroke="#000000" stroke-opacity="1" stroke-width="4.55111"/>
<path clip-path="url(#clip820)" d="M2164.26 194.187 L2164.26 180.159 L2168.52 180.159 L2168.52 216.178 L2164.26 216.178 L2164.26 212.289 Q2162.92 214.603 2160.86 215.738 Q2158.82 216.849 2155.95 216.849 Q2151.25 216.849 2148.29 213.099 Q2145.35 209.349 2145.35 203.238 Q2145.35 197.127 2148.29 193.377 Q2151.25 189.627 2155.95 189.627 Q2158.82 189.627 2160.86 190.761 Q2162.92 191.872 2164.26 194.187 M2149.75 203.238 Q2149.75 207.937 2151.67 210.622 Q2153.61 213.284 2156.99 213.284 Q2160.37 213.284 2162.32 210.622 Q2164.26 207.937 2164.26 203.238 Q2164.26 198.539 2162.32 195.877 Q2160.37 193.192 2156.99 193.192 Q2153.61 193.192 2151.67 195.877 Q2149.75 198.539 2149.75 203.238 Z" fill="#000000" fill-rule="nonzero" fill-opacity="1" /><path clip-path="url(#clip820)" d="M2189.08 203.145 Q2183.92 203.145 2181.92 204.326 Q2179.93 205.506 2179.93 208.354 Q2179.93 210.622 2181.42 211.965 Q2182.92 213.284 2185.49 213.284 Q2189.03 213.284 2191.16 210.784 Q2193.31 208.261 2193.31 204.094 L2193.31 203.145 L2189.08 203.145 M2197.57 201.386 L2197.57 216.178 L2193.31 216.178 L2193.31 212.242 Q2191.85 214.603 2189.68 215.738 Q2187.5 216.849 2184.36 216.849 Q2180.37 216.849 2178.01 214.627 Q2175.67 212.381 2175.67 208.631 Q2175.67 204.256 2178.59 202.034 Q2181.53 199.812 2187.34 199.812 L2193.31 199.812 L2193.31 199.395 Q2193.31 196.455 2191.37 194.858 Q2189.45 193.238 2185.95 193.238 Q2183.73 193.238 2181.62 193.77 Q2179.52 194.303 2177.57 195.367 L2177.57 191.432 Q2179.91 190.53 2182.11 190.09 Q2184.31 189.627 2186.39 189.627 Q2192.02 189.627 2194.79 192.543 Q2197.57 195.46 2197.57 201.386 Z" fill="#000000" fill-rule="nonzero" fill-opacity="1" /><path clip-path="url(#clip820)" d="M2210.56 182.891 L2210.56 190.252 L2219.33 190.252 L2219.33 193.562 L2210.56 193.562 L2210.56 207.636 Q2210.56 210.807 2211.42 211.71 Q2212.29 212.613 2214.96 212.613 L2219.33 212.613 L2219.33 216.178 L2214.96 216.178 Q2210.03 216.178 2208.15 214.349 Q2206.28 212.497 2206.28 207.636 L2206.28 193.562 L2203.15 193.562 L2203.15 190.252 L2206.28 190.252 L2206.28 182.891 L2210.56 182.891 Z" fill="#000000" fill-rule="nonzero" fill-opacity="1" /><path clip-path="url(#clip820)" d="M2236.72 203.145 Q2231.55 203.145 2229.56 204.326 Q2227.57 205.506 2227.57 208.354 Q2227.57 210.622 2229.05 211.965 Q2230.56 213.284 2233.13 213.284 Q2236.67 213.284 2238.8 210.784 Q2240.95 208.261 2240.95 204.094 L2240.95 203.145 L2236.72 203.145 M2245.21 201.386 L2245.21 216.178 L2240.95 216.178 L2240.95 212.242 Q2239.49 214.603 2237.32 215.738 Q2235.14 216.849 2231.99 216.849 Q2228.01 216.849 2225.65 214.627 Q2223.31 212.381 2223.31 208.631 Q2223.31 204.256 2226.23 202.034 Q2229.17 199.812 2234.98 199.812 L2240.95 199.812 L2240.95 199.395 Q2240.95 196.455 2239.01 194.858 Q2237.09 193.238 2233.59 193.238 Q2231.37 193.238 2229.26 193.77 Q2227.16 194.303 2225.21 195.367 L2225.21 191.432 Q2227.55 190.53 2229.75 190.09 Q2231.95 189.627 2234.03 189.627 Q2239.66 189.627 2242.43 192.543 Q2245.21 195.46 2245.21 201.386 Z" fill="#000000" fill-rule="nonzero" fill-opacity="1" /><polyline clip-path="url(#clip820)" style="stroke:#3da44d; stroke-linecap:round; stroke-linejoin:round; stroke-width:8; stroke-opacity:1; fill:none" points="1977.44,250.738 2121.36,250.738 "/>
<path clip-path="url(#clip820)" d="M2170.91 263.087 L2170.91 253.805 L2163.27 253.805 L2163.27 249.962 L2175.54 249.962 L2175.54 264.8 Q2172.83 266.721 2169.56 267.717 Q2166.3 268.689 2162.6 268.689 Q2154.49 268.689 2149.91 263.967 Q2145.35 259.221 2145.35 250.772 Q2145.35 242.3 2149.91 237.578 Q2154.49 232.833 2162.6 232.833 Q2165.98 232.833 2169.01 233.666 Q2172.06 234.499 2174.63 236.12 L2174.63 241.096 Q2172.04 238.897 2169.12 237.786 Q2166.21 236.675 2162.99 236.675 Q2156.65 236.675 2153.45 240.217 Q2150.28 243.758 2150.28 250.772 Q2150.28 257.763 2153.45 261.305 Q2156.65 264.846 2162.99 264.846 Q2165.47 264.846 2167.41 264.43 Q2169.36 263.99 2170.91 263.087 Z" fill="#000000" fill-rule="nonzero" fill-opacity="1" /><path clip-path="url(#clip820)" d="M2188.75 237.3 L2188.75 250.286 L2194.63 250.286 Q2197.9 250.286 2199.68 248.596 Q2201.46 246.907 2201.46 243.782 Q2201.46 240.68 2199.68 238.99 Q2197.9 237.3 2194.63 237.3 L2188.75 237.3 M2184.08 233.458 L2194.63 233.458 Q2200.44 233.458 2203.41 236.096 Q2206.39 238.712 2206.39 243.782 Q2206.39 248.897 2203.41 251.513 Q2200.44 254.129 2194.63 254.129 L2188.75 254.129 L2188.75 268.018 L2184.08 268.018 L2184.08 233.458 Z" fill="#000000" fill-rule="nonzero" fill-opacity="1" /><polyline clip-path="url(#clip820)" style="stroke:#c271d2; stroke-linecap:round; stroke-linejoin:round; stroke-width:12; stroke-opacity:1; fill:none" points="1977.44,302.578 2121.36,302.578 "/>
<path clip-path="url(#clip820)" d="M2150.03 289.14 L2150.03 302.126 L2155.91 302.126 Q2159.17 302.126 2160.95 300.436 Q2162.73 298.747 2162.73 295.622 Q2162.73 292.52 2160.95 290.83 Q2159.17 289.14 2155.91 289.14 L2150.03 289.14 M2145.35 285.298 L2155.91 285.298 Q2161.72 285.298 2164.68 287.936 Q2167.67 290.552 2167.67 295.622 Q2167.67 300.737 2164.68 303.353 Q2161.72 305.969 2155.91 305.969 L2150.03 305.969 L2150.03 319.858 L2145.35 319.858 L2145.35 285.298 Z" fill="#000000" fill-rule="nonzero" fill-opacity="1" /><path clip-path="url(#clip820)" d="M2178.38 315.922 L2194.7 315.922 L2194.7 319.858 L2172.76 319.858 L2172.76 315.922 Q2175.42 313.168 2180 308.538 Q2184.61 303.885 2185.79 302.543 Q2188.04 300.02 2188.92 298.284 Q2189.82 296.524 2189.82 294.835 Q2189.82 292.08 2187.87 290.344 Q2185.95 288.608 2182.85 288.608 Q2180.65 288.608 2178.2 289.372 Q2175.77 290.135 2172.99 291.686 L2172.99 286.964 Q2175.81 285.83 2178.27 285.251 Q2180.72 284.673 2182.76 284.673 Q2188.13 284.673 2191.32 287.358 Q2194.52 290.043 2194.52 294.534 Q2194.52 296.663 2193.71 298.585 Q2192.92 300.483 2190.81 303.075 Q2190.23 303.747 2187.13 306.964 Q2184.03 310.159 2178.38 315.922 Z" fill="#000000" fill-rule="nonzero" fill-opacity="1" /><path clip-path="url(#clip820)" d="M2204.56 285.298 L2222.92 285.298 L2222.92 289.233 L2208.85 289.233 L2208.85 297.705 Q2209.86 297.358 2210.88 297.196 Q2211.9 297.01 2212.92 297.01 Q2218.71 297.01 2222.09 300.182 Q2225.47 303.353 2225.47 308.77 Q2225.47 314.348 2221.99 317.45 Q2218.52 320.529 2212.2 320.529 Q2210.03 320.529 2207.76 320.158 Q2205.51 319.788 2203.1 319.047 L2203.1 314.348 Q2205.19 315.483 2207.41 316.038 Q2209.63 316.594 2212.11 316.594 Q2216.11 316.594 2218.45 314.487 Q2220.79 312.381 2220.79 308.77 Q2220.79 305.159 2218.45 303.052 Q2216.11 300.946 2212.11 300.946 Q2210.23 300.946 2208.36 301.362 Q2206.51 301.779 2204.56 302.659 L2204.56 285.298 Z" fill="#000000" fill-rule="nonzero" fill-opacity="1" /><polyline clip-path="url(#clip820)" style="stroke:#ac8d18; stroke-linecap:round; stroke-linejoin:round; stroke-width:12; stroke-opacity:1; fill:none" points="1977.44,354.418 2121.36,354.418 "/>
<path clip-path="url(#clip820)" d="M2150.03 340.98 L2150.03 353.966 L2155.91 353.966 Q2159.17 353.966 2160.95 352.276 Q2162.73 350.587 2162.73 347.462 Q2162.73 344.36 2160.95 342.67 Q2159.17 340.98 2155.91 340.98 L2150.03 340.98 M2145.35 337.138 L2155.91 337.138 Q2161.72 337.138 2164.68 339.776 Q2167.67 342.392 2167.67 347.462 Q2167.67 352.577 2164.68 355.193 Q2161.72 357.809 2155.91 357.809 L2150.03 357.809 L2150.03 371.698 L2145.35 371.698 L2145.35 337.138 Z" fill="#000000" fill-rule="nonzero" fill-opacity="1" /><path clip-path="url(#clip820)" d="M2173.17 337.138 L2195.4 337.138 L2195.4 339.128 L2182.85 371.698 L2177.97 371.698 L2189.77 341.073 L2173.17 341.073 L2173.17 337.138 Z" fill="#000000" fill-rule="nonzero" fill-opacity="1" /><path clip-path="url(#clip820)" d="M2204.56 337.138 L2222.92 337.138 L2222.92 341.073 L2208.85 341.073 L2208.85 349.545 Q2209.86 349.198 2210.88 349.036 Q2211.9 348.85 2212.92 348.85 Q2218.71 348.85 2222.09 352.022 Q2225.47 355.193 2225.47 360.61 Q2225.47 366.188 2221.99 369.29 Q2218.52 372.369 2212.2 372.369 Q2210.03 372.369 2207.76 371.998 Q2205.51 371.628 2203.1 370.887 L2203.1 366.188 Q2205.19 367.323 2207.41 367.878 Q2209.63 368.434 2212.11 368.434 Q2216.11 368.434 2218.45 366.327 Q2220.79 364.221 2220.79 360.61 Q2220.79 356.999 2218.45 354.892 Q2216.11 352.786 2212.11 352.786 Q2210.23 352.786 2208.36 353.202 Q2206.51 353.619 2204.56 354.499 L2204.56 337.138 Z" fill="#000000" fill-rule="nonzero" fill-opacity="1" /></svg>
