<?xml version="1.0" encoding="utf-8"?>
<svg xmlns="http://www.w3.org/2000/svg" xmlns:xlink="http://www.w3.org/1999/xlink" width="600" height="400" viewBox="0 0 2400 1600">
<defs>
  <clipPath id="clip820">
    <rect x="0" y="0" width="2400" height="1600"/>
  </clipPath>
</defs>
<path clip-path="url(#clip820)" d="M0 1600 L2400 1600 L2400 0 L0 0  Z" fill="#ffffff" fill-rule="evenodd" fill-opacity="1"/>
<defs>
  <clipPath id="clip821">
    <rect x="193" y="47" width="2160" height="1440"/>
  </clipPath>
</defs>
<path clip-path="url(#clip820)" d="M193.936 1486.45 L2352.76 1486.45 L2352.76 47.2441 L193.936 47.2441  Z" fill="#ffffff" fill-rule="evenodd" fill-opacity="1"/>
<polyline clip-path="url(#clip821)" style="stroke:#000000; stroke-linecap:round; stroke-linejoin:round; stroke-width:2; stroke-opacity:0.1; fill:none" points="255.035,1486.45 255.035,47.2441 "/>
<polyline clip-path="url(#clip821)" style="stroke:#000000; stroke-linecap:round; stroke-linejoin:round; stroke-width:2; stroke-opacity:0.1; fill:none" points="579.173,1486.45 579.173,47.2441 "/>
<polyline clip-path="url(#clip821)" style="stroke:#000000; stroke-linecap:round; stroke-linejoin:round; stroke-width:2; stroke-opacity:0.1; fill:none" points="903.312,1486.45 903.312,47.2441 "/>
<polyline clip-path="url(#clip821)" style="stroke:#000000; stroke-linecap:round; stroke-linejoin:round; stroke-width:2; stroke-opacity:0.1; fill:none" points="1227.45,1486.45 1227.45,47.2441 "/>
<polyline clip-path="url(#clip821)" style="stroke:#000000; stroke-linecap:round; stroke-linejoin:round; stroke-width:2; stroke-opacity:0.1; fill:none" points="1551.59,1486.45 1551.59,47.2441 "/>
<polyline clip-path="url(#clip821)" style="stroke:#000000; stroke-linecap:round; stroke-linejoin:round; stroke-width:2; stroke-opacity:0.1; fill:none" points="1875.73,1486.45 1875.73,47.2441 "/>
<polyline clip-path="url(#clip821)" style="stroke:#000000; stroke-linecap:round; stroke-linejoin:round; stroke-width:2; stroke-opacity:0.1; fill:none" points="2199.87,1486.45 2199.87,47.2441 "/>
<polyline clip-path="url(#clip821)" style="stroke:#000000; stroke-linecap:round; stroke-linejoin:round; stroke-width:2; stroke-opacity:0.1; fill:none" points="193.936,1300.33 2352.76,1300.33 "/>
<polyline clip-path="url(#clip821)" style="stroke:#000000; stroke-linecap:round; stroke-linejoin:round; stroke-width:2; stroke-opacity:0.1; fill:none" points="193.936,1031.72 2352.76,1031.72 "/>
<polyline clip-path="url(#clip821)" style="stroke:#000000; stroke-linecap:round; stroke-linejoin:round; stroke-width:2; stroke-opacity:0.1; fill:none" points="193.936,763.112 2352.76,763.112 "/>
<polyline clip-path="url(#clip821)" style="stroke:#000000; stroke-linecap:round; stroke-linejoin:round; stroke-width:2; stroke-opacity:0.1; fill:none" points="193.936,494.501 2352.76,494.501 "/>
<polyline clip-path="url(#clip821)" style="stroke:#000000; stroke-linecap:round; stroke-linejoin:round; stroke-width:2; stroke-opacity:0.1; fill:none" points="193.936,225.89 2352.76,225.89 "/>
<polyline clip-path="url(#clip820)" style="stroke:#000000; stroke-linecap:round; stroke-linejoin:round; stroke-width:4; stroke-opacity:1; fill:none" points="193.936,1486.45 2352.76,1486.45 "/>
<polyline clip-path="url(#clip820)" style="stroke:#000000; stroke-linecap:round; stroke-linejoin:round; stroke-width:4; stroke-opacity:1; fill:none" points="255.035,1486.45 255.035,1467.55 "/>
<polyline clip-path="url(#clip820)" style="stroke:#000000; stroke-linecap:round; stroke-linejoin:round; stroke-width:4; stroke-opacity:1; fill:none" points="579.173,1486.45 579.173,1467.55 "/>
<polyline clip-path="url(#clip820)" style="stroke:#000000; stroke-linecap:round; stroke-linejoin:round; stroke-width:4; stroke-opacity:1; fill:none" points="903.312,1486.45 903.312,1467.55 "/>
<polyline clip-path="url(#clip820)" style="stroke:#000000; stroke-linecap:round; stroke-linejoin:round; stroke-width:4; stroke-opacity:1; fill:none" points="1227.45,1486.45 1227.45,1467.55 "/>
<polyline clip-path="url(#clip820)" style="stroke:#000000; stroke-linecap:round; stroke-linejoin:round; stroke-width:4; stroke-opacity:1; fill:none" points="1551.59,1486.45 1551.59,1467.55 "/>
<polyline clip-path="url(#clip820)" style="stroke:#000000; stroke-linecap:round; stroke-linejoin:round; stroke-width:4; stroke-opacity:1; fill:none" points="1875.73,1486.45 1875.73,1467.55 "/>
<polyline clip-path="url(#clip820)" style="stroke:#000000; stroke-linecap:round; stroke-linejoin:round; stroke-width:4; stroke-opacity:1; fill:none" points="2199.87,1486.45 2199.87,1467.55 "/>
<path clip-path="url(#clip820)" d="M255.035 1517.37 Q251.424 1517.37 249.595 1520.93 Q247.789 1524.47 247.789 1531.6 Q247.789 1538.71 249.595 1542.27 Q251.424 1545.82 255.035 1545.82 Q258.669 1545.82 260.474 1542.27 Q262.303 1538.71 262.303 1531.6 Q262.303 1524.47 260.474 1520.93 Q258.669 1517.37 255.035 1517.37 M255.035 1513.66 Q260.845 1513.66 263.9 1518.27 Q266.979 1522.85 266.979 1531.6 Q266.979 1540.33 263.9 1544.94 Q260.845 1549.52 255.035 1549.52 Q249.225 1549.52 246.146 1544.94 Q243.09 1540.33 243.09 1531.6 Q243.09 1522.85 246.146 1518.27 Q249.225 1513.66 255.035 1513.66 Z" fill="#000000" fill-rule="nonzero" fill-opacity="1" /><path clip-path="url(#clip820)" d="M569.555 1544.91 L577.194 1544.91 L577.194 1518.55 L568.884 1520.21 L568.884 1515.95 L577.148 1514.29 L581.824 1514.29 L581.824 1544.91 L589.463 1544.91 L589.463 1548.85 L569.555 1548.85 L569.555 1544.91 Z" fill="#000000" fill-rule="nonzero" fill-opacity="1" /><path clip-path="url(#clip820)" d="M897.965 1544.91 L914.284 1544.91 L914.284 1548.85 L892.34 1548.85 L892.34 1544.91 Q895.002 1542.16 899.585 1537.53 Q904.191 1532.88 905.372 1531.53 Q907.617 1529.01 908.497 1527.27 Q909.4 1525.51 909.4 1523.82 Q909.4 1521.07 907.455 1519.33 Q905.534 1517.6 902.432 1517.6 Q900.233 1517.6 897.779 1518.36 Q895.349 1519.13 892.571 1520.68 L892.571 1515.95 Q895.395 1514.82 897.849 1514.24 Q900.303 1513.66 902.34 1513.66 Q907.71 1513.66 910.904 1516.35 Q914.099 1519.03 914.099 1523.52 Q914.099 1525.65 913.289 1527.57 Q912.502 1529.47 910.395 1532.07 Q909.816 1532.74 906.715 1535.95 Q903.613 1539.15 897.965 1544.91 Z" fill="#000000" fill-rule="nonzero" fill-opacity="1" /><path clip-path="url(#clip820)" d="M1231.7 1530.21 Q1235.05 1530.93 1236.93 1533.2 Q1238.83 1535.47 1238.83 1538.8 Q1238.83 1543.92 1235.31 1546.72 Q1231.79 1549.52 1225.31 1549.52 Q1223.13 1549.52 1220.82 1549.08 Q1218.53 1548.66 1216.07 1547.81 L1216.07 1543.29 Q1218.02 1544.43 1220.33 1545.01 Q1222.65 1545.58 1225.17 1545.58 Q1229.57 1545.58 1231.86 1543.85 Q1234.17 1542.11 1234.17 1538.8 Q1234.17 1535.75 1232.02 1534.03 Q1229.89 1532.3 1226.07 1532.3 L1222.05 1532.3 L1222.05 1528.45 L1226.26 1528.45 Q1229.71 1528.45 1231.54 1527.09 Q1233.36 1525.7 1233.36 1523.11 Q1233.36 1520.45 1231.47 1519.03 Q1229.59 1517.6 1226.07 1517.6 Q1224.15 1517.6 1221.95 1518.01 Q1219.75 1518.43 1217.11 1519.31 L1217.11 1515.14 Q1219.78 1514.4 1222.09 1514.03 Q1224.43 1513.66 1226.49 1513.66 Q1231.81 1513.66 1234.92 1516.09 Q1238.02 1518.5 1238.02 1522.62 Q1238.02 1525.49 1236.37 1527.48 Q1234.73 1529.45 1231.7 1530.21 Z" fill="#000000" fill-rule="nonzero" fill-opacity="1" /><path clip-path="url(#clip820)" d="M1554.6 1518.36 L1542.79 1536.81 L1554.6 1536.81 L1554.6 1518.36 M1553.37 1514.29 L1559.25 1514.29 L1559.25 1536.81 L1564.18 1536.81 L1564.18 1540.7 L1559.25 1540.7 L1559.25 1548.85 L1554.6 1548.85 L1554.6 1540.7 L1539 1540.7 L1539 1536.19 L1553.37 1514.29 Z" fill="#000000" fill-rule="nonzero" fill-opacity="1" /><path clip-path="url(#clip820)" d="M1866.01 1514.29 L1884.36 1514.29 L1884.36 1518.22 L1870.29 1518.22 L1870.29 1526.7 Q1871.31 1526.35 1872.32 1526.19 Q1873.34 1526 1874.36 1526 Q1880.15 1526 1883.53 1529.17 Q1886.91 1532.34 1886.91 1537.76 Q1886.91 1543.34 1883.44 1546.44 Q1879.96 1549.52 1873.64 1549.52 Q1871.47 1549.52 1869.2 1549.15 Q1866.95 1548.78 1864.55 1548.04 L1864.55 1543.34 Q1866.63 1544.47 1868.85 1545.03 Q1871.07 1545.58 1873.55 1545.58 Q1877.56 1545.58 1879.89 1543.48 Q1882.23 1541.37 1882.23 1537.76 Q1882.23 1534.15 1879.89 1532.04 Q1877.56 1529.94 1873.55 1529.94 Q1871.68 1529.94 1869.8 1530.35 Q1867.95 1530.77 1866.01 1531.65 L1866.01 1514.29 Z" fill="#000000" fill-rule="nonzero" fill-opacity="1" /><path clip-path="url(#clip820)" d="M2200.27 1529.7 Q2197.12 1529.7 2195.27 1531.86 Q2193.44 1534.01 2193.44 1537.76 Q2193.44 1541.49 2195.27 1543.66 Q2197.12 1545.82 2200.27 1545.82 Q2203.42 1545.82 2205.25 1543.66 Q2207.1 1541.49 2207.1 1537.76 Q2207.1 1534.01 2205.25 1531.86 Q2203.42 1529.7 2200.27 1529.7 M2209.55 1515.05 L2209.55 1519.31 Q2207.79 1518.48 2205.99 1518.04 Q2204.21 1517.6 2202.45 1517.6 Q2197.82 1517.6 2195.36 1520.72 Q2192.93 1523.85 2192.59 1530.17 Q2193.95 1528.15 2196.01 1527.09 Q2198.07 1526 2200.55 1526 Q2205.76 1526 2208.77 1529.17 Q2211.8 1532.32 2211.8 1537.76 Q2211.8 1543.08 2208.65 1546.3 Q2205.5 1549.52 2200.27 1549.52 Q2194.28 1549.52 2191.1 1544.94 Q2187.93 1540.33 2187.93 1531.6 Q2187.93 1523.41 2191.82 1518.55 Q2195.71 1513.66 2202.26 1513.66 Q2204.02 1513.66 2205.8 1514.01 Q2207.61 1514.36 2209.55 1515.05 Z" fill="#000000" fill-rule="nonzero" fill-opacity="1" /><polyline clip-path="url(#clip820)" style="stroke:#000000; stroke-linecap:round; stroke-linejoin:round; stroke-width:4; stroke-opacity:1; fill:none" points="193.936,1486.45 193.936,47.2441 "/>
<polyline clip-path="url(#clip820)" style="stroke:#000000; stroke-linecap:round; stroke-linejoin:round; stroke-width:4; stroke-opacity:1; fill:none" points="193.936,1300.33 212.834,1300.33 "/>
<polyline clip-path="url(#clip820)" style="stroke:#000000; stroke-linecap:round; stroke-linejoin:round; stroke-width:4; stroke-opacity:1; fill:none" points="193.936,1031.72 212.834,1031.72 "/>
<polyline clip-path="url(#clip820)" style="stroke:#000000; stroke-linecap:round; stroke-linejoin:round; stroke-width:4; stroke-opacity:1; fill:none" points="193.936,763.112 212.834,763.112 "/>
<polyline clip-path="url(#clip820)" style="stroke:#000000; stroke-linecap:round; stroke-linejoin:round; stroke-width:4; stroke-opacity:1; fill:none" points="193.936,494.501 212.834,494.501 "/>
<polyline clip-path="url(#clip820)" style="stroke:#000000; stroke-linecap:round; stroke-linejoin:round; stroke-width:4; stroke-opacity:1; fill:none" points="193.936,225.89 212.834,225.89 "/>
<path clip-path="url(#clip820)" d="M50.9921 1300.79 L80.6679 1300.79 L80.6679 1304.72 L50.9921 1304.72 L50.9921 1300.79 Z" fill="#000000" fill-rule="nonzero" fill-opacity="1" /><path clip-path="url(#clip820)" d="M91.5706 1313.68 L99.2095 1313.68 L99.2095 1287.31 L90.8993 1288.98 L90.8993 1284.72 L99.1632 1283.05 L103.839 1283.05 L103.839 1313.68 L111.478 1313.68 L111.478 1317.61 L91.5706 1317.61 L91.5706 1313.68 Z" fill="#000000" fill-rule="nonzero" fill-opacity="1" /><path clip-path="url(#clip820)" d="M120.922 1311.73 L125.807 1311.73 L125.807 1317.61 L120.922 1317.61 L120.922 1311.73 Z" fill="#000000" fill-rule="nonzero" fill-opacity="1" /><path clip-path="url(#clip820)" d="M145.992 1286.13 Q142.381 1286.13 140.552 1289.7 Q138.746 1293.24 138.746 1300.37 Q138.746 1307.48 140.552 1311.04 Q142.381 1314.58 145.992 1314.58 Q149.626 1314.58 151.431 1311.04 Q153.26 1307.48 153.26 1300.37 Q153.26 1293.24 151.431 1289.7 Q149.626 1286.13 145.992 1286.13 M145.992 1282.43 Q151.802 1282.43 154.857 1287.04 Q157.936 1291.62 157.936 1300.37 Q157.936 1309.1 154.857 1313.7 Q151.802 1318.29 145.992 1318.29 Q140.181 1318.29 137.103 1313.7 Q134.047 1309.1 134.047 1300.37 Q134.047 1291.62 137.103 1287.04 Q140.181 1282.43 145.992 1282.43 Z" fill="#000000" fill-rule="nonzero" fill-opacity="1" /><path clip-path="url(#clip820)" d="M51.9875 1032.17 L81.6633 1032.17 L81.6633 1036.11 L51.9875 1036.11 L51.9875 1032.17 Z" fill="#000000" fill-rule="nonzero" fill-opacity="1" /><path clip-path="url(#clip820)" d="M101.756 1017.52 Q98.1447 1017.52 96.316 1021.09 Q94.5104 1024.63 94.5104 1031.76 Q94.5104 1038.86 96.316 1042.43 Q98.1447 1045.97 101.756 1045.97 Q105.39 1045.97 107.196 1042.43 Q109.024 1038.86 109.024 1031.76 Q109.024 1024.63 107.196 1021.09 Q105.39 1017.52 101.756 1017.52 M101.756 1013.82 Q107.566 1013.82 110.621 1018.42 Q113.7 1023.01 113.7 1031.76 Q113.7 1040.48 110.621 1045.09 Q107.566 1049.67 101.756 1049.67 Q95.9456 1049.67 92.8669 1045.09 Q89.8114 1040.48 89.8114 1031.76 Q89.8114 1023.01 92.8669 1018.42 Q95.9456 1013.82 101.756 1013.82 Z" fill="#000000" fill-rule="nonzero" fill-opacity="1" /><path clip-path="url(#clip820)" d="M121.918 1043.12 L126.802 1043.12 L126.802 1049 L121.918 1049 L121.918 1043.12 Z" fill="#000000" fill-rule="nonzero" fill-opacity="1" /><path clip-path="url(#clip820)" d="M137.033 1014.44 L155.39 1014.44 L155.39 1018.38 L141.316 1018.38 L141.316 1026.85 Q142.334 1026.5 143.353 1026.34 Q144.371 1026.16 145.39 1026.16 Q151.177 1026.16 154.556 1029.33 Q157.936 1032.5 157.936 1037.92 Q157.936 1043.49 154.464 1046.6 Q150.992 1049.67 144.672 1049.67 Q142.496 1049.67 140.228 1049.3 Q137.982 1048.93 135.575 1048.19 L135.575 1043.49 Q137.658 1044.63 139.881 1045.18 Q142.103 1045.74 144.58 1045.74 Q148.584 1045.74 150.922 1043.63 Q153.26 1041.53 153.26 1037.92 Q153.26 1034.3 150.922 1032.2 Q148.584 1030.09 144.58 1030.09 Q142.705 1030.09 140.83 1030.51 Q138.978 1030.92 137.033 1031.8 L137.033 1014.44 Z" fill="#000000" fill-rule="nonzero" fill-opacity="1" /><path clip-path="url(#clip820)" d="M100.76 748.911 Q97.1493 748.911 95.3206 752.475 Q93.515 756.017 93.515 763.147 Q93.515 770.253 95.3206 773.818 Q97.1493 777.36 100.76 777.36 Q104.395 777.36 106.2 773.818 Q108.029 770.253 108.029 763.147 Q108.029 756.017 106.2 752.475 Q104.395 748.911 100.76 748.911 M100.76 745.207 Q106.571 745.207 109.626 749.813 Q112.705 754.397 112.705 763.147 Q112.705 771.874 109.626 776.48 Q106.571 781.063 100.76 781.063 Q94.9502 781.063 91.8715 776.48 Q88.816 771.874 88.816 763.147 Q88.816 754.397 91.8715 749.813 Q94.9502 745.207 100.76 745.207 Z" fill="#000000" fill-rule="nonzero" fill-opacity="1" /><path clip-path="url(#clip820)" d="M120.922 774.512 L125.807 774.512 L125.807 780.392 L120.922 780.392 L120.922 774.512 Z" fill="#000000" fill-rule="nonzero" fill-opacity="1" /><path clip-path="url(#clip820)" d="M145.992 748.911 Q142.381 748.911 140.552 752.475 Q138.746 756.017 138.746 763.147 Q138.746 770.253 140.552 773.818 Q142.381 777.36 145.992 777.36 Q149.626 777.36 151.431 773.818 Q153.26 770.253 153.26 763.147 Q153.26 756.017 151.431 752.475 Q149.626 748.911 145.992 748.911 M145.992 745.207 Q151.802 745.207 154.857 749.813 Q157.936 754.397 157.936 763.147 Q157.936 771.874 154.857 776.48 Q151.802 781.063 145.992 781.063 Q140.181 781.063 137.103 776.48 Q134.047 771.874 134.047 763.147 Q134.047 754.397 137.103 749.813 Q140.181 745.207 145.992 745.207 Z" fill="#000000" fill-rule="nonzero" fill-opacity="1" /><path clip-path="url(#clip820)" d="M101.756 480.3 Q98.1447 480.3 96.316 483.864 Q94.5104 487.406 94.5104 494.536 Q94.5104 501.642 96.316 505.207 Q98.1447 508.749 101.756 508.749 Q105.39 508.749 107.196 505.207 Q109.024 501.642 109.024 494.536 Q109.024 487.406 107.196 483.864 Q105.39 480.3 101.756 480.3 M101.756 476.596 Q107.566 476.596 110.621 481.202 Q113.7 485.786 113.7 494.536 Q113.7 503.262 110.621 507.869 Q107.566 512.452 101.756 512.452 Q95.9456 512.452 92.8669 507.869 Q89.8114 503.262 89.8114 494.536 Q89.8114 485.786 92.8669 481.202 Q95.9456 476.596 101.756 476.596 Z" fill="#000000" fill-rule="nonzero" fill-opacity="1" /><path clip-path="url(#clip820)" d="M121.918 505.901 L126.802 505.901 L126.802 511.781 L121.918 511.781 L121.918 505.901 Z" fill="#000000" fill-rule="nonzero" fill-opacity="1" /><path clip-path="url(#clip820)" d="M137.033 477.221 L155.39 477.221 L155.39 481.156 L141.316 481.156 L141.316 489.628 Q142.334 489.281 143.353 489.119 Q144.371 488.934 145.39 488.934 Q151.177 488.934 154.556 492.105 Q157.936 495.276 157.936 500.693 Q157.936 506.272 154.464 509.374 Q150.992 512.452 144.672 512.452 Q142.496 512.452 140.228 512.082 Q137.982 511.711 135.575 510.971 L135.575 506.272 Q137.658 507.406 139.881 507.962 Q142.103 508.517 144.58 508.517 Q148.584 508.517 150.922 506.411 Q153.26 504.304 153.26 500.693 Q153.26 497.082 150.922 494.975 Q148.584 492.869 144.58 492.869 Q142.705 492.869 140.83 493.286 Q138.978 493.702 137.033 494.582 L137.033 477.221 Z" fill="#000000" fill-rule="nonzero" fill-opacity="1" /><path clip-path="url(#clip820)" d="M91.5706 239.235 L99.2095 239.235 L99.2095 212.869 L90.8993 214.536 L90.8993 210.277 L99.1632 208.61 L103.839 208.61 L103.839 239.235 L111.478 239.235 L111.478 243.17 L91.5706 243.17 L91.5706 239.235 Z" fill="#000000" fill-rule="nonzero" fill-opacity="1" /><path clip-path="url(#clip820)" d="M120.922 237.29 L125.807 237.29 L125.807 243.17 L120.922 243.17 L120.922 237.29 Z" fill="#000000" fill-rule="nonzero" fill-opacity="1" /><path clip-path="url(#clip820)" d="M145.992 211.689 Q142.381 211.689 140.552 215.253 Q138.746 218.795 138.746 225.925 Q138.746 233.031 140.552 236.596 Q142.381 240.137 145.992 240.137 Q149.626 240.137 151.431 236.596 Q153.26 233.031 153.26 225.925 Q153.26 218.795 151.431 215.253 Q149.626 211.689 145.992 211.689 M145.992 207.985 Q151.802 207.985 154.857 212.591 Q157.936 217.175 157.936 225.925 Q157.936 234.651 154.857 239.258 Q151.802 243.841 145.992 243.841 Q140.181 243.841 137.103 239.258 Q134.047 234.651 134.047 225.925 Q134.047 217.175 137.103 212.591 Q140.181 207.985 145.992 207.985 Z" fill="#000000" fill-rule="nonzero" fill-opacity="1" /><polyline clip-path="url(#clip821)" style="stroke:#009af9; stroke-linecap:round; stroke-linejoin:round; stroke-width:4; stroke-opacity:1; fill:none" points="255.035,763.112 258.276,757.74 261.517,752.368 264.759,746.998 268,741.629 271.242,736.262 274.483,730.898 277.724,725.537 280.966,720.18 284.207,714.827 287.449,709.479 290.69,704.137 293.931,698.8 297.173,693.47 300.414,688.146 303.655,682.831 306.897,677.523 310.138,672.223 313.38,666.933 316.621,661.653 319.862,656.382 323.104,651.123 326.345,645.874 329.587,640.637 332.828,635.413 336.069,630.201 339.311,625.003 342.552,619.818 345.793,614.648 349.035,609.492 352.276,604.352 355.518,599.228 358.759,594.12 362,589.029 365.242,583.955 368.483,578.9 371.725,573.862 374.966,568.844 378.207,563.845 381.449,558.866 384.69,553.908 387.931,548.97 391.173,544.054 394.414,539.16 397.656,534.288 400.897,529.439 404.138,524.613 407.38,519.811 410.621,515.034 413.863,510.281 417.104,505.554 420.345,500.852 423.587,496.177 426.828,491.528 430.069,486.907 433.311,482.313 436.552,477.747 439.794,473.21 443.035,468.701 446.276,464.223 449.518,459.774 452.759,455.355 456.001,450.967 459.242,446.61 462.483,442.285 465.725,437.992 468.966,433.732 472.208,429.505 475.449,425.31 478.69,421.15 481.932,417.024 485.173,412.932 488.414,408.876 491.656,404.855 494.897,400.87 498.139,396.921 501.38,393.008 504.621,389.133 507.863,385.295 511.104,381.495 514.346,377.732 517.587,374.009 520.828,370.324 524.07,366.679 527.311,363.073 530.552,359.508 533.794,355.982 537.035,352.498 540.277,349.054 543.518,345.652 546.759,342.291 550.001,338.973 553.242,335.697 556.484,332.464 559.725,329.274 562.966,326.127 566.208,323.024 569.449,319.965 572.69,316.95 575.932,313.98 579.173,311.055 582.415,308.175 585.656,305.341 588.897,302.552 592.139,299.809 595.38,297.113 598.622,294.463 601.863,291.86 605.104,289.305 608.346,286.796 611.587,284.336 614.828,281.923 618.07,279.558 621.311,277.242 624.553,274.974 627.794,272.755 631.035,270.585 634.277,268.464 637.518,266.393 640.76,264.372 644.001,262.4 647.242,260.478 650.484,258.607 653.725,256.786 656.966,255.016 660.208,253.296 663.449,251.628 666.691,250.011 669.932,248.445 673.173,246.93 676.415,245.467 679.656,244.056 682.898,242.697 686.139,241.39 689.38,240.135 692.622,238.932 695.863,237.782 699.104,236.684 702.346,235.639 705.587,234.646 708.829,233.707 712.07,232.82 715.311,231.986 718.553,231.206 721.794,230.479 725.036,229.805 728.277,229.184 731.518,228.617 734.76,228.103 738.001,227.642 741.242,227.236 744.484,226.882 747.725,226.583 750.967,226.337 754.208,226.145 757.449,226.006 760.691,225.921 763.932,225.89 767.174,225.913 770.415,225.989 773.656,226.119 776.898,226.303 780.139,226.54 783.381,226.831 786.622,227.176 789.863,227.574 793.105,228.026 796.346,228.531 799.587,229.09 802.829,229.702 806.07,230.368 809.312,231.087 812.553,231.859 815.794,232.684 819.036,233.562 822.277,234.493 825.519,235.477 828.76,236.514 832.001,237.603 835.243,238.745 838.484,239.94 841.725,241.186 844.967,242.485 848.208,243.836 851.45,245.239 854.691,246.694 857.932,248.2 861.174,249.758 864.415,251.367 867.657,253.027 870.898,254.739 874.139,256.501 877.381,258.314 880.622,260.177 883.863,262.091 887.105,264.054 890.346,266.068 893.588,268.131 896.829,270.244 900.07,272.406 903.312,274.617 906.553,276.877 909.795,279.186 913.036,281.543 916.277,283.948 919.519,286.401 922.76,288.902 926.001,291.45 929.243,294.046 932.484,296.688 935.726,299.377 938.967,302.112 942.208,304.894 945.45,307.721 948.691,310.593 951.933,313.511 955.174,316.474 958.415,319.482 961.657,322.534 964.898,325.63 968.139,328.77 971.381,331.953 974.622,335.179 977.864,338.449 981.105,341.76 984.346,345.114 987.588,348.509 990.829,351.946 994.071,355.425 997.312,358.943 1000.55,362.503 1003.79,366.102 1007.04,369.741 1010.28,373.419 1013.52,377.137 1016.76,380.893 1020,384.687 1023.24,388.519 1026.48,392.388 1029.73,396.295 1032.97,400.238 1036.21,404.218 1039.45,408.233 1042.69,412.284 1045.93,416.37 1049.17,420.491 1052.42,424.646 1055.66,428.834 1058.9,433.057 1062.14,437.312 1065.38,441.6 1068.62,445.919 1071.86,450.271 1075.11,454.654 1078.35,459.068 1081.59,463.512 1084.83,467.986 1088.07,472.49 1091.31,477.022 1094.55,481.584 1097.79,486.173 1101.04,490.79 1104.28,495.435 1107.52,500.106 1110.76,504.803 1114,509.527 1117.24,514.275 1120.48,519.049 1123.73,523.847 1126.97,528.669 1130.21,533.514 1133.45,538.382 1136.69,543.273 1139.93,548.186 1143.17,553.12 1146.42,558.075 1149.66,563.051 1152.9,568.047 1156.14,573.062 1159.38,578.096 1162.62,583.149 1165.86,588.22 1169.11,593.308 1172.35,598.413 1175.59,603.535 1178.83,608.672 1182.07,613.826 1185.31,618.994 1188.55,624.176 1191.8,629.372 1195.04,634.582 1198.28,639.805 1201.52,645.039 1204.76,650.286 1208,655.544 1211.24,660.813 1214.48,666.092 1217.73,671.38 1220.97,676.678 1224.21,681.985 1227.45,687.299 1230.69,692.621 1233.93,697.951 1237.17,703.286 1240.42,708.628 1243.66,713.975 1246.9,719.327 1250.14,724.684 1253.38,730.044 1256.62,735.408 1259.86,740.774 1263.11,746.143 1266.35,751.513 1269.59,756.884 1272.83,762.256 1276.07,767.629 1279.31,773 1282.55,778.371 1285.8,783.74 1289.04,789.107 1292.28,794.472 1295.52,799.833 1298.76,805.191 1302,810.545 1305.24,815.893 1308.48,821.237 1311.73,826.575 1314.97,831.906 1318.21,837.23 1321.45,842.547 1324.69,847.856 1327.93,853.157 1331.17,858.449 1334.42,863.731 1337.66,869.003 1340.9,874.264 1344.14,879.515 1347.38,884.753 1350.62,889.98 1353.86,895.194 1357.11,900.394 1360.35,905.581 1363.59,910.754 1366.83,915.912 1370.07,921.054 1373.31,926.181 1376.55,931.292 1379.8,936.385 1383.04,941.462 1386.28,946.52 1389.52,951.561 1392.76,956.582 1396,961.584 1399.24,966.566 1402.49,971.528 1405.73,976.469 1408.97,981.388 1412.21,986.286 1415.45,991.162 1418.69,996.014 1421.93,1000.84 1425.17,1005.65 1428.42,1010.43 1431.66,1015.19 1434.9,1019.92 1438.14,1024.62 1441.38,1029.3 1444.62,1033.96 1447.86,1038.58 1451.11,1043.18 1454.35,1047.75 1457.59,1052.29 1460.83,1056.81 1464.07,1061.29 1467.31,1065.74 1470.55,1070.17 1473.8,1074.56 1477.04,1078.92 1480.28,1083.25 1483.52,1087.55 1486.76,1091.82 1490,1096.05 1493.24,1100.25 1496.49,1104.41 1499.73,1108.55 1502.97,1112.64 1506.21,1116.7 1509.45,1120.73 1512.69,1124.72 1515.93,1128.68 1519.18,1132.6 1522.42,1136.48 1525.66,1140.32 1528.9,1144.13 1532.14,1147.89 1535.38,1151.62 1538.62,1155.32 1541.86,1158.97 1545.11,1162.58 1548.35,1166.15 1551.59,1169.68 1554.83,1173.17 1558.07,1176.62 1561.31,1180.03 1564.55,1183.4 1567.8,1186.73 1571.04,1190.01 1574.28,1193.25 1577.52,1196.44 1580.76,1199.6 1584,1202.71 1587.24,1205.77 1590.49,1208.8 1593.73,1211.77 1596.97,1214.71 1600.21,1217.59 1603.45,1220.43 1606.69,1223.23 1609.93,1225.98 1613.18,1228.68 1616.42,1231.34 1619.66,1233.95 1622.9,1236.52 1626.14,1239.03 1629.38,1241.5 1632.62,1243.92 1635.86,1246.29 1639.11,1248.62 1642.35,1250.89 1645.59,1253.12 1648.83,1255.3 1652.07,1257.43 1655.31,1259.5 1658.55,1261.53 1661.8,1263.51 1665.04,1265.44 1668.28,1267.32 1671.52,1269.15 1674.76,1270.93 1678,1272.66 1681.24,1274.33 1684.49,1275.96 1687.73,1277.53 1690.97,1279.06 1694.21,1280.53 1697.45,1281.95 1700.69,1283.31 1703.93,1284.63 1707.18,1285.89 1710.42,1287.1 1713.66,1288.26 1716.9,1289.37 1720.14,1290.42 1723.38,1291.42 1726.62,1292.37 1729.87,1293.27 1733.11,1294.11 1736.35,1294.9 1739.59,1295.63 1742.83,1296.32 1746.07,1296.94 1749.31,1297.52 1752.55,1298.04 1755.8,1298.51 1759.04,1298.93 1762.28,1299.29 1765.52,1299.6 1768.76,1299.85 1772,1300.05 1775.24,1300.2 1778.49,1300.29 1781.73,1300.33 1784.97,1300.32 1788.21,1300.25 1791.45,1300.13 1794.69,1299.95 1797.93,1299.73 1801.18,1299.44 1804.42,1299.11 1807.66,1298.72 1810.9,1298.27 1814.14,1297.78 1817.38,1297.23 1820.62,1296.62 1823.87,1295.97 1827.11,1295.26 1830.35,1294.49 1833.59,1293.68 1836.83,1292.81 1840.07,1291.88 1843.31,1290.91 1846.55,1289.88 1849.8,1288.8 1853.04,1287.66 1856.28,1286.48 1859.52,1285.24 1862.76,1283.95 1866,1282.61 1869.24,1281.21 1872.49,1279.77 1875.73,1278.27 1878.97,1276.72 1882.21,1275.12 1885.45,1273.46 1888.69,1271.76 1891.93,1270.01 1895.18,1268.2 1898.42,1266.35 1901.66,1264.44 1904.9,1262.49 1908.14,1260.48 1911.38,1258.42 1914.62,1256.32 1917.87,1254.17 1921.11,1251.96 1924.35,1249.71 1927.59,1247.41 1930.83,1245.06 1934.07,1242.66 1937.31,1240.22 1940.56,1237.72 1943.8,1235.18 1947.04,1232.59 1950.28,1229.96 1953.52,1227.28 1956.76,1224.55 1960,1221.78 1963.24,1218.96 1966.49,1216.09 1969.73,1213.18 1972.97,1210.22 1976.21,1207.22 1979.45,1204.18 1982.69,1201.09 1985.93,1197.96 1989.18,1194.78 1992.42,1191.56 1995.66,1188.3 1998.9,1184.99 2002.14,1181.65 2005.38,1178.26 2008.62,1174.83 2011.87,1171.36 2015.11,1167.84 2018.35,1164.29 2021.59,1160.7 2024.83,1157.07 2028.07,1153.39 2031.31,1149.68 2034.56,1145.93 2037.8,1142.14 2041.04,1138.32 2044.28,1134.45 2047.52,1130.55 2050.76,1126.62 2054,1122.64 2057.24,1118.63 2060.49,1114.59 2063.73,1110.51 2066.97,1106.39 2070.21,1102.24 2073.45,1098.06 2076.69,1093.84 2079.93,1089.59 2083.18,1085.31 2086.42,1080.99 2089.66,1076.65 2092.9,1072.27 2096.14,1067.86 2099.38,1063.42 2102.62,1058.95 2105.87,1054.45 2109.11,1049.93 2112.35,1045.37 2115.59,1040.78 2118.83,1036.17 2122.07,1031.53 2125.31,1026.86 2128.56,1022.17 2131.8,1017.45 2135.04,1012.71 2138.28,1007.94 2141.52,1003.14 2144.76,998.325 2148,993.483 2151.25,988.619 2154.49,983.731 2157.73,978.822 2160.97,973.891 2164.21,968.939 2167.45,963.967 2170.69,958.974 2173.93,953.962 2177.18,948.931 2180.42,943.881 2183.66,938.813 2186.9,933.728 2190.14,928.625 2193.38,923.506 2196.62,918.371 2199.87,913.22 2203.11,908.055 2206.35,902.874 2209.59,897.68 2212.83,892.473 2216.07,887.252 2219.31,882.019 2222.56,876.774 2225.8,871.518 2229.04,866.251 2232.28,860.974 2235.52,855.687 2238.76,850.39 2242,845.085 2245.25,839.772 2248.49,834.451 2251.73,829.123 2254.97,823.788 2258.21,818.447 2261.45,813.101 2264.69,807.749 2267.94,802.394 2271.18,797.034 2274.42,791.671 2277.66,786.305 2280.9,780.937 2284.14,775.567 2287.38,770.195 2290.62,764.823 "/>
<circle clip-path="url(#clip821)" cx="1723.38" cy="1303.12" r="14.4" fill="#e26f46" fill-rule="evenodd" fill-opacity="1" stroke="#000000" stroke-opacity="1" stroke-width="3.2"/>
<circle clip-path="url(#clip821)" cx="734.76" cy="329.094" r="14.4" fill="#e26f46" fill-rule="evenodd" fill-opacity="1" stroke="#000000" stroke-opacity="1" stroke-width="3.2"/>
<circle clip-path="url(#clip821)" cx="1477.04" cy="1165.83" r="14.4" fill="#e26f46" fill-rule="evenodd" fill-opacity="1" stroke="#000000" stroke-opacity="1" stroke-width="3.2"/>
<circle clip-path="url(#clip821)" cx="1493.24" cy="1075.26" r="14.4" fill="#e26f46" fill-rule="evenodd" fill-opacity="1" stroke="#000000" stroke-opacity="1" stroke-width="3.2"/>
<circle clip-path="url(#clip821)" cx="854.691" cy="372.761" r="14.4" fill="#e26f46" fill-rule="evenodd" fill-opacity="1" stroke="#000000" stroke-opacity="1" stroke-width="3.2"/>
<circle clip-path="url(#clip821)" cx="1389.52" cy="881.679" r="14.4" fill="#e26f46" fill-rule="evenodd" fill-opacity="1" stroke="#000000" stroke-opacity="1" stroke-width="3.2"/>
<circle clip-path="url(#clip821)" cx="514.346" cy="270.321" r="14.4" fill="#e26f46" fill-rule="evenodd" fill-opacity="1" stroke="#000000" stroke-opacity="1" stroke-width="3.2"/>
<circle clip-path="url(#clip821)" cx="540.277" cy="362.147" r="14.4" fill="#e26f46" fill-rule="evenodd" fill-opacity="1" stroke="#000000" stroke-opacity="1" stroke-width="3.2"/>
<circle clip-path="url(#clip821)" cx="2070.21" cy="1069.2" r="14.4" fill="#e26f46" fill-rule="evenodd" fill-opacity="1" stroke="#000000" stroke-opacity="1" stroke-width="3.2"/>
<circle clip-path="url(#clip821)" cx="1917.87" cy="1205.43" r="14.4" fill="#e26f46" fill-rule="evenodd" fill-opacity="1" stroke="#000000" stroke-opacity="1" stroke-width="3.2"/>
<circle clip-path="url(#clip821)" cx="2089.66" cy="1113.68" r="14.4" fill="#e26f46" fill-rule="evenodd" fill-opacity="1" stroke="#000000" stroke-opacity="1" stroke-width="3.2"/>
<circle clip-path="url(#clip821)" cx="1353.86" cy="794.222" r="14.4" fill="#e26f46" fill-rule="evenodd" fill-opacity="1" stroke="#000000" stroke-opacity="1" stroke-width="3.2"/>
<circle clip-path="url(#clip821)" cx="1493.24" cy="983.994" r="14.4" fill="#e26f46" fill-rule="evenodd" fill-opacity="1" stroke="#000000" stroke-opacity="1" stroke-width="3.2"/>
<circle clip-path="url(#clip821)" cx="951.933" cy="316.513" r="14.4" fill="#e26f46" fill-rule="evenodd" fill-opacity="1" stroke="#000000" stroke-opacity="1" stroke-width="3.2"/>
<circle clip-path="url(#clip821)" cx="1960" cy="1283.26" r="14.4" fill="#e26f46" fill-rule="evenodd" fill-opacity="1" stroke="#000000" stroke-opacity="1" stroke-width="3.2"/>
<circle clip-path="url(#clip821)" cx="1447.86" cy="974.848" r="14.4" fill="#e26f46" fill-rule="evenodd" fill-opacity="1" stroke="#000000" stroke-opacity="1" stroke-width="3.2"/>
<circle clip-path="url(#clip821)" cx="1327.93" cy="723.436" r="14.4" fill="#e26f46" fill-rule="evenodd" fill-opacity="1" stroke="#000000" stroke-opacity="1" stroke-width="3.2"/>
<circle clip-path="url(#clip821)" cx="546.759" cy="262.809" r="14.4" fill="#e26f46" fill-rule="evenodd" fill-opacity="1" stroke="#000000" stroke-opacity="1" stroke-width="3.2"/>
<circle clip-path="url(#clip821)" cx="1357.11" cy="811.642" r="14.4" fill="#e26f46" fill-rule="evenodd" fill-opacity="1" stroke="#000000" stroke-opacity="1" stroke-width="3.2"/>
<circle clip-path="url(#clip821)" cx="1765.52" cy="1283.84" r="14.4" fill="#e26f46" fill-rule="evenodd" fill-opacity="1" stroke="#000000" stroke-opacity="1" stroke-width="3.2"/>
<path clip-path="url(#clip821)" d="M255.035 997.303 L258.276 993.049 L261.517 988.743 L264.759 984.384 L268 979.971 L271.242 975.505 L274.483 970.985 L277.724 966.41 L280.966 961.781 L284.207 957.097 L287.449 952.358 L290.69 947.563 L293.931 942.713 L297.173 937.807 L300.414 932.846 L303.655 927.828 L306.897 922.753 L310.138 917.623 L313.38 912.436 L316.621 907.193 L319.862 901.894 L323.104 896.538 L326.345 891.125 L329.587 885.657 L332.828 880.133 L336.069 874.552 L339.311 868.917 L342.552 863.226 L345.793 857.48 L349.035 851.679 L352.276 845.825 L355.518 839.917 L358.759 833.956 L362 827.942 L365.242 821.878 L368.483 815.762 L371.725 809.597 L374.966 803.383 L378.207 797.121 L381.449 790.814 L384.69 784.46 L387.931 778.064 L391.173 771.625 L394.414 765.146 L397.656 758.628 L400.897 752.073 L404.138 745.485 L407.38 738.864 L410.621 732.214 L413.863 725.537 L417.104 718.837 L420.345 712.115 L423.587 705.377 L426.828 698.626 L430.069 691.864 L433.311 685.098 L436.552 678.332 L439.794 671.57 L443.035 664.818 L446.276 658.081 L449.518 651.367 L452.759 644.681 L456.001 638.031 L459.242 631.425 L462.483 624.87 L465.725 618.376 L468.966 611.953 L472.208 605.61 L475.449 599.359 L478.69 593.211 L481.932 587.179 L485.173 581.276 L488.414 575.516 L491.656 569.913 L494.897 564.484 L498.139 559.246 L501.38 554.214 L504.621 549.408 L507.863 544.844 L511.104 540.543 L514.346 536.524 L517.587 532.802 L520.828 529.386 L524.07 526.28 L527.311 523.489 L530.552 521.017 L533.794 518.867 L537.035 517.043 L540.277 515.547 L543.518 514.379 L546.759 513.532 L550.001 512.997 L553.242 512.754 L556.484 512.78 L559.725 513.053 L562.966 513.55 L566.208 514.25 L569.449 515.131 L572.69 516.174 L575.932 517.357 L579.173 518.662 L582.415 520.072 L585.656 521.569 L588.897 523.138 L592.139 524.763 L595.38 526.432 L598.622 528.131 L601.863 529.849 L605.104 531.575 L608.346 533.298 L611.587 535.011 L614.828 536.704 L618.07 538.371 L621.311 540.004 L624.553 541.598 L627.794 543.147 L631.035 544.647 L634.277 546.093 L637.518 547.483 L640.76 548.812 L644.001 550.079 L647.242 551.281 L650.484 552.418 L653.725 553.488 L656.966 554.491 L660.208 555.426 L663.449 556.295 L666.691 557.098 L669.932 557.836 L673.173 558.511 L676.415 559.125 L679.656 559.68 L682.898 560.179 L686.139 560.626 L689.38 561.024 L692.622 561.377 L695.863 561.689 L699.104 561.965 L702.346 562.21 L705.587 562.43 L708.829 562.629 L712.07 562.815 L715.311 562.993 L718.553 563.17 L721.794 563.353 L725.036 563.548 L728.277 563.762 L731.518 564.004 L734.76 564.28 L738.001 564.595 L741.242 564.947 L744.484 565.33 L747.725 565.74 L750.967 566.172 L754.208 566.621 L757.449 567.084 L760.691 567.555 L763.932 568.032 L767.174 568.51 L770.415 568.986 L773.656 569.458 L776.898 569.922 L780.139 570.378 L783.381 570.824 L786.622 571.258 L789.863 571.679 L793.105 572.088 L796.346 572.484 L799.587 572.869 L802.829 573.244 L806.07 573.61 L809.312 573.97 L812.553 574.326 L815.794 574.682 L819.036 575.041 L822.277 575.408 L825.519 575.788 L828.76 576.185 L832.001 576.606 L835.243 577.056 L838.484 577.542 L841.725 578.07 L844.967 578.649 L848.208 579.286 L851.45 579.988 L854.691 580.763 L857.932 581.618 L861.174 582.552 L864.415 583.563 L867.657 584.647 L870.898 585.804 L874.139 587.031 L877.381 588.328 L880.622 589.692 L883.863 591.123 L887.105 592.621 L890.346 594.187 L893.588 595.82 L896.829 597.523 L900.07 599.296 L903.312 601.142 L906.553 603.063 L909.795 605.063 L913.036 607.144 L916.277 609.312 L919.519 611.57 L922.76 613.923 L926.001 616.376 L929.243 618.935 L932.484 621.606 L935.726 624.395 L938.967 627.308 L942.208 630.352 L945.45 633.533 L948.691 636.859 L951.933 640.337 L955.174 643.97 L958.415 647.751 L961.657 651.67 L964.898 655.718 L968.139 659.884 L971.381 664.159 L974.622 668.533 L977.864 672.998 L981.105 677.544 L984.346 682.162 L987.588 686.844 L990.829 691.582 L994.071 696.369 L997.312 701.196 L1000.55 706.056 L1003.79 710.943 L1007.04 715.851 L1010.28 720.772 L1013.52 725.701 L1016.76 730.632 L1020 735.56 L1023.24 740.479 L1026.48 745.386 L1029.73 750.274 L1032.97 755.141 L1036.21 759.981 L1039.45 764.791 L1042.69 769.567 L1045.93 774.305 L1049.17 779.003 L1052.42 783.657 L1055.66 788.265 L1058.9 792.822 L1062.14 797.328 L1065.38 801.779 L1068.62 806.173 L1071.86 810.508 L1075.11 814.782 L1078.35 818.993 L1081.59 823.139 L1084.83 827.219 L1088.07 831.231 L1091.31 835.173 L1094.55 839.044 L1097.79 842.844 L1101.04 846.57 L1104.28 850.222 L1107.52 853.798 L1110.76 857.299 L1114 860.723 L1117.24 864.068 L1120.48 867.336 L1123.73 870.525 L1126.97 873.634 L1130.21 876.664 L1133.45 879.613 L1136.69 882.482 L1139.93 885.271 L1143.17 887.978 L1146.42 890.605 L1149.66 893.151 L1152.9 895.615 L1156.14 897.999 L1159.38 900.303 L1162.62 902.526 L1165.86 904.669 L1169.11 906.733 L1172.35 908.718 L1175.59 910.623 L1178.83 912.451 L1182.07 914.202 L1185.31 915.876 L1188.55 917.474 L1191.8 918.997 L1195.04 920.447 L1198.28 921.824 L1201.52 923.13 L1204.76 924.365 L1208 925.532 L1211.24 926.631 L1214.48 927.665 L1217.73 928.635 L1220.97 929.543 L1224.21 930.392 L1227.45 931.182 L1230.69 931.918 L1233.93 932.6 L1237.17 933.232 L1240.42 933.817 L1243.66 934.357 L1246.9 934.857 L1250.14 935.319 L1253.38 935.747 L1256.62 936.145 L1259.86 936.518 L1263.11 936.87 L1266.35 937.206 L1269.59 937.531 L1272.83 937.851 L1276.07 938.172 L1279.31 938.499 L1282.55 938.841 L1285.8 939.205 L1289.04 939.597 L1292.28 940.027 L1295.52 940.503 L1298.76 941.035 L1302 941.633 L1305.24 942.308 L1308.48 943.07 L1311.73 943.933 L1314.97 944.908 L1318.21 946.009 L1321.45 947.25 L1324.69 948.645 L1327.93 950.209 L1331.17 951.956 L1334.42 953.891 L1337.66 956.018 L1340.9 958.342 L1344.14 960.868 L1347.38 963.599 L1350.62 966.541 L1353.86 969.699 L1357.11 973.075 L1360.35 976.666 L1363.59 980.458 L1366.83 984.44 L1370.07 988.597 L1373.31 992.916 L1376.55 997.385 L1379.8 1001.99 L1383.04 1006.73 L1386.28 1011.57 L1389.52 1016.53 L1392.76 1021.58 L1396 1026.71 L1399.24 1031.91 L1402.49 1037.16 L1405.73 1042.46 L1408.97 1047.79 L1412.21 1053.14 L1415.45 1058.51 L1418.69 1063.89 L1421.93 1069.28 L1425.17 1074.67 L1428.42 1080.05 L1431.66 1085.45 L1434.9 1090.84 L1438.14 1096.24 L1441.38 1101.64 L1444.62 1107.07 L1447.86 1112.51 L1451.11 1117.98 L1454.35 1123.48 L1457.59 1129.02 L1460.83 1134.58 L1464.07 1140.18 L1467.31 1145.82 L1470.55 1151.51 L1473.8 1157.25 L1477.04 1163.04 L1480.28 1168.88 L1483.52 1174.79 L1486.76 1180.77 L1490 1186.82 L1493.24 1192.94 L1496.49 1199.14 L1499.73 1205.4 L1502.97 1211.72 L1506.21 1218.08 L1509.45 1224.46 L1512.69 1230.85 L1515.93 1237.24 L1519.18 1243.63 L1522.42 1249.98 L1525.66 1256.31 L1528.9 1262.59 L1532.14 1268.81 L1535.38 1274.98 L1538.62 1281.07 L1541.86 1287.09 L1545.11 1293.03 L1548.35 1298.87 L1551.59 1304.62 L1554.83 1310.26 L1558.07 1315.8 L1561.31 1321.23 L1564.55 1326.54 L1567.8 1331.74 L1571.04 1336.82 L1574.28 1341.77 L1577.52 1346.59 L1580.76 1351.28 L1584 1355.85 L1587.24 1360.28 L1590.49 1364.57 L1593.73 1368.73 L1596.97 1372.75 L1600.21 1376.64 L1603.45 1380.39 L1606.69 1384 L1609.93 1387.47 L1613.18 1390.8 L1616.42 1393.99 L1619.66 1397.05 L1622.9 1399.97 L1626.14 1402.75 L1629.38 1405.39 L1632.62 1407.91 L1635.86 1410.28 L1639.11 1412.53 L1642.35 1414.65 L1645.59 1416.64 L1648.83 1418.51 L1652.07 1420.25 L1655.31 1421.87 L1658.55 1423.38 L1661.8 1424.77 L1665.04 1426.05 L1668.28 1427.23 L1671.52 1428.3 L1674.76 1429.28 L1678 1430.16 L1681.24 1430.96 L1684.49 1431.67 L1687.73 1432.31 L1690.97 1432.88 L1694.21 1433.38 L1697.45 1433.82 L1700.69 1434.22 L1703.93 1434.57 L1707.18 1434.88 L1710.42 1435.16 L1713.66 1435.43 L1716.9 1435.68 L1720.14 1435.93 L1723.38 1436.18 L1726.62 1436.45 L1729.87 1436.72 L1733.11 1437.01 L1736.35 1437.31 L1739.59 1437.63 L1742.83 1437.97 L1746.07 1438.32 L1749.31 1438.69 L1752.55 1439.07 L1755.8 1439.48 L1759.04 1439.9 L1762.28 1440.34 L1765.52 1440.8 L1768.76 1441.27 L1772 1441.76 L1775.24 1442.25 L1778.49 1442.74 L1781.73 1443.21 L1784.97 1443.67 L1788.21 1444.09 L1791.45 1444.48 L1794.69 1444.83 L1797.93 1445.13 L1801.18 1445.37 L1804.42 1445.55 L1807.66 1445.67 L1810.9 1445.72 L1814.14 1445.69 L1817.38 1445.57 L1820.62 1445.38 L1823.87 1445.1 L1827.11 1444.73 L1830.35 1444.27 L1833.59 1443.72 L1836.83 1443.07 L1840.07 1442.32 L1843.31 1441.48 L1846.55 1440.54 L1849.8 1439.51 L1853.04 1438.38 L1856.28 1437.15 L1859.52 1435.83 L1862.76 1434.43 L1866 1432.93 L1869.24 1431.34 L1872.49 1429.68 L1875.73 1427.93 L1878.97 1426.11 L1882.21 1424.22 L1885.45 1422.27 L1888.69 1420.25 L1891.93 1418.18 L1895.18 1416.06 L1898.42 1413.9 L1901.66 1411.71 L1904.9 1409.49 L1908.14 1407.24 L1911.38 1404.99 L1914.62 1402.73 L1917.87 1400.48 L1921.11 1398.24 L1924.35 1396.01 L1927.59 1393.78 L1930.83 1391.57 L1934.07 1389.36 L1937.31 1387.15 L1940.56 1384.95 L1943.8 1382.75 L1947.04 1380.56 L1950.28 1378.36 L1953.52 1376.17 L1956.76 1373.97 L1960 1371.78 L1963.24 1369.58 L1966.49 1367.38 L1969.73 1365.17 L1972.97 1362.95 L1976.21 1360.72 L1979.45 1358.46 L1982.69 1356.18 L1985.93 1353.88 L1989.18 1351.55 L1992.42 1349.19 L1995.66 1346.81 L1998.9 1344.4 L2002.14 1341.96 L2005.38 1339.49 L2008.62 1337 L2011.87 1334.5 L2015.11 1331.97 L2018.35 1329.44 L2021.59 1326.9 L2024.83 1324.36 L2028.07 1321.83 L2031.31 1319.31 L2034.56 1316.82 L2037.8 1314.36 L2041.04 1311.95 L2044.28 1309.59 L2047.52 1307.3 L2050.76 1305.08 L2054 1302.96 L2057.24 1300.94 L2060.49 1299.03 L2063.73 1297.26 L2066.97 1295.62 L2070.21 1294.15 L2073.45 1292.84 L2076.69 1291.7 L2079.93 1290.74 L2083.18 1289.95 L2086.42 1289.32 L2089.66 1288.87 L2092.9 1288.59 L2096.14 1288.48 L2099.38 1288.51 L2102.62 1288.69 L2105.87 1288.99 L2109.11 1289.42 L2112.35 1289.96 L2115.59 1290.6 L2118.83 1291.34 L2122.07 1292.16 L2125.31 1293.06 L2128.56 1294.03 L2131.8 1295.06 L2135.04 1296.14 L2138.28 1297.27 L2141.52 1298.44 L2144.76 1299.65 L2148 1300.89 L2151.25 1302.16 L2154.49 1303.44 L2157.73 1304.74 L2160.97 1306.06 L2164.21 1307.38 L2167.45 1308.71 L2170.69 1310.04 L2173.93 1311.37 L2177.18 1312.7 L2180.42 1314.01 L2183.66 1315.33 L2186.9 1316.63 L2190.14 1317.92 L2193.38 1319.19 L2196.62 1320.45 L2199.87 1321.69 L2203.11 1322.91 L2206.35 1324.12 L2209.59 1325.3 L2212.83 1326.46 L2216.07 1327.6 L2219.31 1328.72 L2222.56 1329.81 L2225.8 1330.88 L2229.04 1331.92 L2232.28 1332.94 L2235.52 1333.94 L2238.76 1334.9 L2242 1335.84 L2245.25 1336.76 L2248.49 1337.65 L2251.73 1338.51 L2254.97 1339.35 L2258.21 1340.16 L2261.45 1340.94 L2264.69 1341.7 L2267.94 1342.44 L2271.18 1343.14 L2274.42 1343.82 L2277.66 1344.48 L2280.9 1345.11 L2284.14 1345.71 L2287.38 1346.29 L2290.62 1346.85 L2290.62 516.228 L2287.38 520.743 L2284.14 525.318 L2280.9 529.953 L2277.66 534.649 L2274.42 539.406 L2271.18 544.224 L2267.94 549.103 L2264.69 554.044 L2261.45 559.047 L2258.21 564.111 L2254.97 569.236 L2251.73 574.424 L2248.49 579.673 L2245.25 584.984 L2242 590.355 L2238.76 595.788 L2235.52 601.282 L2232.28 606.836 L2229.04 612.45 L2225.8 618.124 L2222.56 623.856 L2219.31 629.647 L2216.07 635.494 L2212.83 641.399 L2209.59 647.358 L2206.35 653.372 L2203.11 659.439 L2199.87 665.558 L2196.62 671.727 L2193.38 677.944 L2190.14 684.208 L2186.9 690.517 L2183.66 696.868 L2180.42 703.26 L2177.18 709.689 L2173.93 716.152 L2170.69 722.648 L2167.45 729.172 L2164.21 735.72 L2160.97 742.29 L2157.73 748.877 L2154.49 755.476 L2151.25 762.083 L2148 768.692 L2144.76 775.298 L2141.52 781.896 L2138.28 788.478 L2135.04 795.039 L2131.8 801.571 L2128.56 808.066 L2125.31 814.516 L2122.07 820.914 L2118.83 827.249 L2115.59 833.513 L2112.35 839.695 L2109.11 845.786 L2105.87 851.774 L2102.62 857.65 L2099.38 863.4 L2096.14 869.015 L2092.9 874.483 L2089.66 879.791 L2086.42 884.93 L2083.18 889.9 L2079.93 894.702 L2076.69 899.336 L2073.45 903.805 L2070.21 908.11 L2066.97 912.256 L2063.73 916.251 L2060.49 920.106 L2057.24 923.833 L2054 927.442 L2050.76 930.944 L2047.52 934.349 L2044.28 937.667 L2041.04 940.907 L2037.8 944.078 L2034.56 947.188 L2031.31 950.243 L2028.07 953.251 L2024.83 956.216 L2021.59 959.144 L2018.35 962.039 L2015.11 964.902 L2011.87 967.737 L2008.62 970.545 L2005.38 973.325 L2002.14 976.078 L1998.9 978.801 L1995.66 981.493 L1992.42 984.15 L1989.18 986.768 L1985.93 989.343 L1982.69 991.869 L1979.45 994.339 L1976.21 996.748 L1972.97 999.086 L1969.73 1001.35 L1966.49 1003.52 L1963.24 1005.6 L1960 1007.57 L1956.76 1009.43 L1953.52 1011.17 L1950.28 1012.81 L1947.04 1014.35 L1943.8 1015.79 L1940.56 1017.12 L1937.31 1018.37 L1934.07 1019.52 L1930.83 1020.58 L1927.59 1021.55 L1924.35 1022.44 L1921.11 1023.24 L1917.87 1023.95 L1914.62 1024.58 L1911.38 1025.13 L1908.14 1025.63 L1904.9 1026.06 L1901.66 1026.45 L1898.42 1026.8 L1895.18 1027.13 L1891.93 1027.43 L1888.69 1027.72 L1885.45 1028 L1882.21 1028.28 L1878.97 1028.57 L1875.73 1028.87 L1872.49 1029.18 L1869.24 1029.52 L1866 1029.87 L1862.76 1030.26 L1859.52 1030.67 L1856.28 1031.12 L1853.04 1031.6 L1849.8 1032.11 L1846.55 1032.65 L1843.31 1033.23 L1840.07 1033.85 L1836.83 1034.49 L1833.59 1035.17 L1830.35 1035.88 L1827.11 1036.61 L1823.87 1037.36 L1820.62 1038.13 L1817.38 1038.91 L1814.14 1039.7 L1810.9 1040.5 L1807.66 1041.28 L1804.42 1042.06 L1801.18 1042.82 L1797.93 1043.56 L1794.69 1044.26 L1791.45 1044.92 L1788.21 1045.52 L1784.97 1046.06 L1781.73 1046.52 L1778.49 1046.9 L1775.24 1047.19 L1772 1047.36 L1768.76 1047.42 L1765.52 1047.34 L1762.28 1047.12 L1759.04 1046.75 L1755.8 1046.24 L1752.55 1045.59 L1749.31 1044.79 L1746.07 1043.84 L1742.83 1042.75 L1739.59 1041.51 L1736.35 1040.12 L1733.11 1038.58 L1729.87 1036.89 L1726.62 1035.05 L1723.38 1033.06 L1720.14 1030.92 L1716.9 1028.64 L1713.66 1026.22 L1710.42 1023.69 L1707.18 1021.06 L1703.93 1018.34 L1700.69 1015.53 L1697.45 1012.66 L1694.21 1009.73 L1690.97 1006.75 L1687.73 1003.73 L1684.49 1000.69 L1681.24 997.621 L1678 994.545 L1674.76 991.466 L1671.52 988.392 L1668.28 985.33 L1665.04 982.287 L1661.8 979.269 L1658.55 976.282 L1655.31 973.332 L1652.07 970.423 L1648.83 967.56 L1645.59 964.749 L1642.35 961.991 L1639.11 959.292 L1635.86 956.655 L1632.62 954.082 L1629.38 951.576 L1626.14 949.139 L1622.9 946.773 L1619.66 944.481 L1616.42 942.262 L1613.18 940.119 L1609.93 938.052 L1606.69 936.061 L1603.45 934.146 L1600.21 932.308 L1596.97 930.546 L1593.73 928.858 L1590.49 927.244 L1587.24 925.703 L1584 924.232 L1580.76 922.829 L1577.52 921.492 L1574.28 920.219 L1571.04 919.004 L1567.8 917.846 L1564.55 916.739 L1561.31 915.68 L1558.07 914.663 L1554.83 913.683 L1551.59 912.734 L1548.35 911.809 L1545.11 910.901 L1541.86 910.002 L1538.62 909.105 L1535.38 908.199 L1532.14 907.275 L1528.9 906.324 L1525.66 905.333 L1522.42 904.29 L1519.18 903.184 L1515.93 902.001 L1512.69 900.725 L1509.45 899.344 L1506.21 897.84 L1502.97 896.197 L1499.73 894.399 L1496.49 892.429 L1493.24 890.269 L1490 887.904 L1486.76 885.33 L1483.52 882.543 L1480.28 879.542 L1477.04 876.323 L1473.8 872.887 L1470.55 869.245 L1467.31 865.409 L1464.07 861.39 L1460.83 857.202 L1457.59 852.854 L1454.35 848.359 L1451.11 843.724 L1447.86 838.96 L1444.62 834.075 L1441.38 829.082 L1438.14 823.996 L1434.9 818.827 L1431.66 813.586 L1428.42 808.283 L1425.17 802.927 L1421.93 797.522 L1418.69 792.075 L1415.45 786.589 L1412.21 781.065 L1408.97 775.504 L1405.73 769.904 L1402.49 764.263 L1399.24 758.577 L1396 752.84 L1392.76 747.046 L1389.52 741.185 L1386.28 735.251 L1383.04 729.239 L1379.8 723.147 L1376.55 716.969 L1373.31 710.701 L1370.07 704.337 L1366.83 697.87 L1363.59 691.295 L1360.35 684.605 L1357.11 677.791 L1353.86 670.85 L1350.62 663.781 L1347.38 656.589 L1344.14 649.283 L1340.9 641.87 L1337.66 634.357 L1334.42 626.752 L1331.17 619.06 L1327.93 611.29 L1324.69 603.449 L1321.45 595.548 L1318.21 587.599 L1314.97 579.613 L1311.73 571.603 L1308.48 563.577 L1305.24 555.547 L1302 547.52 L1298.76 539.507 L1295.52 531.515 L1292.28 523.552 L1289.04 515.625 L1285.8 507.739 L1282.55 499.902 L1279.31 492.119 L1276.07 484.394 L1272.83 476.733 L1269.59 469.14 L1266.35 461.618 L1263.11 454.172 L1259.86 446.803 L1256.62 439.517 L1253.38 432.314 L1250.14 425.197 L1246.9 418.17 L1243.66 411.233 L1240.42 404.388 L1237.17 397.638 L1233.93 390.983 L1230.69 384.425 L1227.45 377.965 L1224.21 371.605 L1220.97 365.344 L1217.73 359.184 L1214.48 353.125 L1211.24 347.168 L1208 341.315 L1204.76 335.564 L1201.52 329.916 L1198.28 324.373 L1195.04 318.933 L1191.8 313.597 L1188.55 308.366 L1185.31 303.24 L1182.07 298.217 L1178.83 293.299 L1175.59 288.486 L1172.35 283.777 L1169.11 279.172 L1165.86 274.672 L1162.62 270.275 L1159.38 265.983 L1156.14 261.794 L1152.9 257.708 L1149.66 253.726 L1146.42 249.846 L1143.17 246.07 L1139.93 242.395 L1136.69 238.823 L1133.45 235.352 L1130.21 231.983 L1126.97 228.715 L1123.73 225.547 L1120.48 222.479 L1117.24 219.512 L1114 216.643 L1110.76 213.873 L1107.52 211.202 L1104.28 208.628 L1101.04 206.152 L1097.79 203.772 L1094.55 201.489 L1091.31 199.3 L1088.07 197.207 L1084.83 195.207 L1081.59 193.3 L1078.35 191.486 L1075.11 189.764 L1071.86 188.132 L1068.62 186.589 L1065.38 185.135 L1062.14 183.769 L1058.9 182.489 L1055.66 181.294 L1052.42 180.182 L1049.17 179.153 L1045.93 178.204 L1042.69 177.334 L1039.45 176.542 L1036.21 175.825 L1032.97 175.181 L1029.73 174.609 L1026.48 174.105 L1023.24 173.669 L1020 173.296 L1016.76 172.984 L1013.52 172.731 L1010.28 172.533 L1007.04 172.386 L1003.79 172.289 L1000.55 172.236 L997.312 172.224 L994.071 172.248 L990.829 172.305 L987.588 172.39 L984.346 172.499 L981.105 172.625 L977.864 172.765 L974.622 172.912 L971.381 173.062 L968.139 173.209 L964.898 173.347 L961.657 173.47 L958.415 173.573 L955.174 173.649 L951.933 173.693 L948.691 173.701 L945.45 173.673 L942.208 173.612 L938.967 173.52 L935.726 173.398 L932.484 173.25 L929.243 173.077 L926.001 172.882 L922.76 172.666 L919.519 172.431 L916.277 172.178 L913.036 171.909 L909.795 171.625 L906.553 171.326 L903.312 171.011 L900.07 170.682 L896.829 170.338 L893.588 169.977 L890.346 169.599 L887.105 169.201 L883.863 168.782 L880.622 168.339 L877.381 167.87 L874.139 167.372 L870.898 166.84 L867.657 166.272 L864.415 165.663 L861.174 165.01 L857.932 164.308 L854.691 163.553 L851.45 162.742 L848.208 161.88 L844.967 160.973 L841.725 160.028 L838.484 159.051 L835.243 158.047 L832.001 157.023 L828.76 155.983 L825.519 154.934 L822.277 153.878 L819.036 152.821 L815.794 151.767 L812.553 150.719 L809.312 149.68 L806.07 148.653 L802.829 147.64 L799.587 146.642 L796.346 145.662 L793.105 144.7 L789.863 143.757 L786.622 142.832 L783.381 141.926 L780.139 141.038 L776.898 140.167 L773.656 139.311 L770.415 138.468 L767.174 137.637 L763.932 136.814 L760.691 135.998 L757.449 135.186 L754.208 134.373 L750.967 133.557 L747.725 132.734 L744.484 131.9 L741.242 131.052 L738.001 130.186 L734.76 129.298 L731.518 128.385 L728.277 127.454 L725.036 126.51 L721.794 125.561 L718.553 124.613 L715.311 123.673 L712.07 122.748 L708.829 121.844 L705.587 120.967 L702.346 120.125 L699.104 119.321 L695.863 118.563 L692.622 117.855 L689.38 117.202 L686.139 116.61 L682.898 116.084 L679.656 115.626 L676.415 115.242 L673.173 114.936 L669.932 114.709 L666.691 114.567 L663.449 114.51 L660.208 114.543 L656.966 114.667 L653.725 114.883 L650.484 115.194 L647.242 115.601 L644.001 116.103 L640.76 116.702 L637.518 117.398 L634.277 118.19 L631.035 119.077 L627.794 120.058 L624.553 121.131 L621.311 122.294 L618.07 123.544 L614.828 124.877 L611.587 126.29 L608.346 127.779 L605.104 129.337 L601.863 130.958 L598.622 132.637 L595.38 134.365 L592.139 136.135 L588.897 137.936 L585.656 139.759 L582.415 141.593 L579.173 143.426 L575.932 145.245 L572.69 147.037 L569.449 148.786 L566.208 150.478 L562.966 152.096 L559.725 153.625 L556.484 155.046 L553.242 156.343 L550.001 157.498 L546.759 158.494 L543.518 159.316 L540.277 159.952 L537.035 160.396 L533.794 160.647 L530.552 160.71 L527.311 160.587 L524.07 160.284 L520.828 159.807 L517.587 159.161 L514.346 158.354 L511.104 157.394 L507.863 156.292 L504.621 155.063 L501.38 153.719 L498.139 152.273 L494.897 150.739 L491.656 149.127 L488.414 147.45 L485.173 145.718 L481.932 143.942 L478.69 142.13 L475.449 140.292 L472.208 138.437 L468.966 136.57 L465.725 134.7 L462.483 132.833 L459.242 130.974 L456.001 129.128 L452.759 127.3 L449.518 125.495 L446.276 123.716 L443.035 121.967 L439.794 120.25 L436.552 118.568 L433.311 116.923 L430.069 115.319 L426.828 113.755 L423.587 112.235 L420.345 110.758 L417.104 109.328 L413.863 107.943 L410.621 106.605 L407.38 105.315 L404.138 104.073 L400.897 102.88 L397.656 101.735 L394.414 100.639 L391.173 99.5909 L387.931 98.5919 L384.69 97.6413 L381.449 96.7388 L378.207 95.8842 L374.966 95.0771 L371.725 94.3169 L368.483 93.6034 L365.242 92.9358 L362 92.3137 L358.759 91.7365 L355.518 91.2035 L352.276 90.7141 L349.035 90.2676 L345.793 89.8633 L342.552 89.5005 L339.311 89.1784 L336.069 88.8963 L332.828 88.6534 L329.587 88.449 L326.345 88.2822 L323.104 88.1524 L319.862 88.0586 L316.621 88.0002 L313.38 87.9763 L310.138 87.9861 L306.897 88.0288 L303.655 88.1037 L300.414 88.2099 L297.173 88.3468 L293.931 88.5133 L290.69 88.709 L287.449 88.9328 L284.207 89.1842 L280.966 89.4622 L277.724 89.7663 L274.483 90.0956 L271.242 90.4494 L268 90.8269 L264.759 91.2276 L261.517 91.6506 L258.276 92.0952 L255.035 92.5609  Z" fill="#3da44d" fill-rule="evenodd" fill-opacity="0.1"/>
<polyline clip-path="url(#clip821)" style="stroke:#3da44d; stroke-linecap:round; stroke-linejoin:round; stroke-width:8; stroke-opacity:1; fill:none" points="255.035,544.932 258.276,542.572 261.517,540.197 264.759,537.806 268,535.399 271.242,532.977 274.483,530.54 277.724,528.088 280.966,525.622 284.207,523.141 287.449,520.645 290.69,518.136 293.931,515.613 297.173,513.077 300.414,510.528 303.655,507.966 306.897,505.391 310.138,502.805 313.38,500.206 316.621,497.597 319.862,494.976 323.104,492.345 326.345,489.704 329.587,487.053 332.828,484.393 336.069,481.724 339.311,479.048 342.552,476.363 345.793,473.671 349.035,470.973 352.276,468.269 355.518,465.56 358.759,462.846 362,460.128 365.242,457.407 368.483,454.683 371.725,451.957 374.966,449.23 378.207,446.503 381.449,443.776 384.69,441.051 387.931,438.328 391.173,435.608 394.414,432.892 397.656,430.181 400.897,427.477 404.138,424.779 407.38,422.09 410.621,419.41 413.863,416.74 417.104,414.082 420.345,411.437 423.587,408.806 426.828,406.19 430.069,403.592 433.311,401.011 436.552,398.45 439.794,395.91 443.035,393.392 446.276,390.899 449.518,388.431 452.759,385.991 456.001,383.579 459.242,381.199 462.483,378.851 465.725,376.538 468.966,374.262 472.208,372.023 475.449,369.826 478.69,367.671 481.932,365.56 485.173,363.497 488.414,361.483 491.656,359.52 494.897,357.612 498.139,355.76 501.38,353.967 504.621,352.235 507.863,350.568 511.104,348.969 514.346,347.439 517.587,345.982 520.828,344.596 524.07,343.282 527.311,342.038 530.552,340.863 533.794,339.757 537.035,338.72 540.277,337.75 543.518,336.847 546.759,336.013 550.001,335.247 553.242,334.548 556.484,333.913 559.725,333.339 562.966,332.823 566.208,332.364 569.449,331.959 572.69,331.605 575.932,331.301 579.173,331.044 582.415,330.832 585.656,330.664 588.897,330.537 592.139,330.449 595.38,330.399 598.622,330.384 601.863,330.404 605.104,330.456 608.346,330.538 611.587,330.651 614.828,330.791 618.07,330.957 621.311,331.149 624.553,331.365 627.794,331.603 631.035,331.862 634.277,332.141 637.518,332.44 640.76,332.757 644.001,333.091 647.242,333.441 650.484,333.806 653.725,334.186 656.966,334.579 660.208,334.985 663.449,335.403 666.691,335.832 669.932,336.273 673.173,336.723 676.415,337.184 679.656,337.653 682.898,338.132 686.139,338.618 689.38,339.113 692.622,339.616 695.863,340.126 699.104,340.643 702.346,341.167 705.587,341.699 708.829,342.237 712.07,342.782 715.311,343.333 718.553,343.892 721.794,344.457 725.036,345.029 728.277,345.608 731.518,346.195 734.76,346.789 738.001,347.391 741.242,348 744.484,348.615 747.725,349.237 750.967,349.865 754.208,350.497 757.449,351.135 760.691,351.777 763.932,352.423 767.174,353.073 770.415,353.727 773.656,354.384 776.898,355.045 780.139,355.708 783.381,356.375 786.622,357.045 789.863,357.718 793.105,358.394 796.346,359.073 799.587,359.756 802.829,360.442 806.07,361.131 809.312,361.825 812.553,362.523 815.794,363.225 819.036,363.931 822.277,364.643 825.519,365.361 828.76,366.084 832.001,366.814 835.243,367.551 838.484,368.296 841.725,369.049 844.967,369.811 848.208,370.583 851.45,371.365 854.691,372.158 857.932,372.963 861.174,373.781 864.415,374.613 867.657,375.46 870.898,376.322 874.139,377.201 877.381,378.099 880.622,379.015 883.863,379.952 887.105,380.911 890.346,381.893 893.588,382.899 896.829,383.93 900.07,384.989 903.312,386.077 906.553,387.194 909.795,388.344 913.036,389.527 916.277,390.745 919.519,392 922.76,393.294 926.001,394.629 929.243,396.006 932.484,397.428 935.726,398.897 938.967,400.414 942.208,401.982 945.45,403.603 948.691,405.28 951.933,407.015 955.174,408.809 958.415,410.662 961.657,412.57 964.898,414.532 968.139,416.546 971.381,418.611 974.622,420.723 977.864,422.881 981.105,425.084 984.346,427.33 987.588,429.617 990.829,431.944 994.071,434.308 997.312,436.71 1000.55,439.146 1003.79,441.616 1007.04,444.119 1010.28,446.652 1013.52,449.216 1016.76,451.808 1020,454.428 1023.24,457.074 1026.48,459.745 1029.73,462.441 1032.97,465.161 1036.21,467.903 1039.45,470.666 1042.69,473.45 1045.93,476.255 1049.17,479.078 1052.42,481.92 1055.66,484.779 1058.9,487.656 1062.14,490.549 1065.38,493.457 1068.62,496.381 1071.86,499.32 1075.11,502.273 1078.35,505.24 1081.59,508.22 1084.83,511.213 1088.07,514.219 1091.31,517.237 1094.55,520.266 1097.79,523.308 1101.04,526.361 1104.28,529.425 1107.52,532.5 1110.76,535.586 1114,538.683 1117.24,541.79 1120.48,544.908 1123.73,548.036 1126.97,551.174 1130.21,554.323 1133.45,557.483 1136.69,560.653 1139.93,563.833 1143.17,567.024 1146.42,570.226 1149.66,573.438 1152.9,576.662 1156.14,579.897 1159.38,583.143 1162.62,586.401 1165.86,589.671 1169.11,592.953 1172.35,596.247 1175.59,599.555 1178.83,602.875 1182.07,606.209 1185.31,609.558 1188.55,612.92 1191.8,616.297 1195.04,619.69 1198.28,623.098 1201.52,626.523 1204.76,629.964 1208,633.423 1211.24,636.9 1214.48,640.395 1217.73,643.909 1220.97,647.444 1224.21,650.998 1227.45,654.574 1230.69,658.171 1233.93,661.792 1237.17,665.435 1240.42,669.103 1243.66,672.795 1246.9,676.513 1250.14,680.258 1253.38,684.03 1256.62,687.831 1259.86,691.661 1263.11,695.521 1266.35,699.412 1269.59,703.335 1272.83,707.292 1276.07,711.283 1279.31,715.309 1282.55,719.372 1285.8,723.472 1289.04,727.611 1292.28,731.789 1295.52,736.009 1298.76,740.271 1302,744.577 1305.24,748.927 1308.48,753.324 1311.73,757.768 1314.97,762.261 1318.21,766.804 1321.45,771.399 1324.69,776.047 1327.93,780.75 1331.17,785.508 1334.42,790.321 1337.66,795.188 1340.9,800.106 1344.14,805.075 1347.38,810.094 1350.62,815.161 1353.86,820.274 1357.11,825.433 1360.35,830.635 1363.59,835.877 1366.83,841.155 1370.07,846.467 1373.31,851.808 1376.55,857.177 1379.8,862.569 1383.04,867.982 1386.28,873.412 1389.52,878.857 1392.76,884.312 1396,889.776 1399.24,895.244 1402.49,900.714 1405.73,906.183 1408.97,911.647 1412.21,917.104 1415.45,922.551 1418.69,927.984 1421.93,933.4 1425.17,938.796 1428.42,944.169 1431.66,949.516 1434.9,954.832 1438.14,960.116 1441.38,965.364 1444.62,970.571 1447.86,975.736 1451.11,980.854 1454.35,985.921 1457.59,990.935 1460.83,995.891 1464.07,1000.79 1467.31,1005.62 1470.55,1010.38 1473.8,1015.07 1477.04,1019.68 1480.28,1024.21 1483.52,1028.67 1486.76,1033.05 1490,1037.36 1493.24,1041.6 1496.49,1045.78 1499.73,1049.9 1502.97,1053.96 1506.21,1057.96 1509.45,1061.9 1512.69,1065.79 1515.93,1069.62 1519.18,1073.4 1522.42,1077.14 1525.66,1080.82 1528.9,1084.46 1532.14,1088.04 1535.38,1091.59 1538.62,1095.09 1541.86,1098.55 1545.11,1101.96 1548.35,1105.34 1551.59,1108.68 1554.83,1111.97 1558.07,1115.23 1561.31,1118.46 1564.55,1121.64 1567.8,1124.79 1571.04,1127.91 1574.28,1130.99 1577.52,1134.04 1580.76,1137.06 1584,1140.04 1587.24,1142.99 1590.49,1145.91 1593.73,1148.79 1596.97,1151.65 1600.21,1154.47 1603.45,1157.27 1606.69,1160.03 1609.93,1162.76 1613.18,1165.46 1616.42,1168.13 1619.66,1170.76 1622.9,1173.37 1626.14,1175.94 1629.38,1178.48 1632.62,1180.99 1635.86,1183.47 1639.11,1185.91 1642.35,1188.32 1645.59,1190.69 1648.83,1193.03 1652.07,1195.34 1655.31,1197.6 1658.55,1199.83 1661.8,1202.02 1665.04,1204.17 1668.28,1206.28 1671.52,1208.35 1674.76,1210.37 1678,1212.35 1681.24,1214.29 1684.49,1216.18 1687.73,1218.02 1690.97,1219.81 1694.21,1221.55 1697.45,1223.24 1700.69,1224.87 1703.93,1226.45 1707.18,1227.97 1710.42,1229.43 1713.66,1230.83 1716.9,1232.16 1720.14,1233.43 1723.38,1234.62 1726.62,1235.75 1729.87,1236.81 1733.11,1237.8 1736.35,1238.72 1739.59,1239.57 1742.83,1240.36 1746.07,1241.08 1749.31,1241.74 1752.55,1242.33 1755.8,1242.86 1759.04,1243.32 1762.28,1243.73 1765.52,1244.07 1768.76,1244.34 1772,1244.56 1775.24,1244.72 1778.49,1244.82 1781.73,1244.87 1784.97,1244.86 1788.21,1244.81 1791.45,1244.7 1794.69,1244.54 1797.93,1244.34 1801.18,1244.1 1804.42,1243.81 1807.66,1243.48 1810.9,1243.11 1814.14,1242.69 1817.38,1242.24 1820.62,1241.75 1823.87,1241.23 1827.11,1240.67 1830.35,1240.07 1833.59,1239.44 1836.83,1238.78 1840.07,1238.09 1843.31,1237.36 1846.55,1236.6 1849.8,1235.81 1853.04,1234.99 1856.28,1234.14 1859.52,1233.25 1862.76,1232.34 1866,1231.4 1869.24,1230.43 1872.49,1229.43 1875.73,1228.4 1878.97,1227.34 1882.21,1226.25 1885.45,1225.13 1888.69,1223.98 1891.93,1222.8 1895.18,1221.59 1898.42,1220.35 1901.66,1219.08 1904.9,1217.77 1908.14,1216.43 1911.38,1215.06 1914.62,1213.66 1917.87,1212.21 1921.11,1210.74 1924.35,1209.22 1927.59,1207.67 1930.83,1206.07 1934.07,1204.44 1937.31,1202.76 1940.56,1201.04 1943.8,1199.27 1947.04,1197.45 1950.28,1195.59 1953.52,1193.67 1956.76,1191.7 1960,1189.67 1963.24,1187.59 1966.49,1185.45 1969.73,1183.26 1972.97,1181.02 1976.21,1178.73 1979.45,1176.4 1982.69,1174.03 1985.93,1171.61 1989.18,1169.16 1992.42,1166.67 1995.66,1164.15 1998.9,1161.6 2002.14,1159.02 2005.38,1156.41 2008.62,1153.77 2011.87,1151.12 2015.11,1148.44 2018.35,1145.74 2021.59,1143.02 2024.83,1140.29 2028.07,1137.54 2031.31,1134.78 2034.56,1132 2037.8,1129.22 2041.04,1126.43 2044.28,1123.63 2047.52,1120.82 2050.76,1118.01 2054,1115.2 2057.24,1112.38 2060.49,1109.57 2063.73,1106.75 2066.97,1103.94 2070.21,1101.13 2073.45,1098.32 2076.69,1095.52 2079.93,1092.72 2083.18,1089.92 2086.42,1087.13 2089.66,1084.33 2092.9,1081.54 2096.14,1078.75 2099.38,1075.96 2102.62,1073.17 2105.87,1070.38 2109.11,1067.6 2112.35,1064.83 2115.59,1062.06 2118.83,1059.29 2122.07,1056.54 2125.31,1053.79 2128.56,1051.05 2131.8,1048.31 2135.04,1045.59 2138.28,1042.87 2141.52,1040.17 2144.76,1037.48 2148,1034.79 2151.25,1032.12 2154.49,1029.46 2157.73,1026.81 2160.97,1024.17 2164.21,1021.55 2167.45,1018.94 2170.69,1016.34 2173.93,1013.76 2177.18,1011.19 2180.42,1008.64 2183.66,1006.1 2186.9,1003.57 2190.14,1001.06 2193.38,998.567 2196.62,996.087 2199.87,993.624 2203.11,991.176 2206.35,988.744 2209.59,986.329 2212.83,983.93 2216.07,981.548 2219.31,979.182 2222.56,976.833 2225.8,974.501 2229.04,972.187 2232.28,969.889 2235.52,967.609 2238.76,965.346 2242,963.1 2245.25,960.872 2248.49,958.661 2251.73,956.468 2254.97,954.293 2258.21,952.135 2261.45,949.996 2264.69,947.873 2267.94,945.769 2271.18,943.683 2274.42,941.614 2277.66,939.563 2280.9,937.53 2284.14,935.514 2287.38,933.517 2290.62,931.537 "/>
<polyline clip-path="url(#clip821)" style="stroke:#c271d2; stroke-linecap:round; stroke-linejoin:round; stroke-width:12; stroke-opacity:1; fill:none" points="255.035,850.052 362.225,707.871 469.416,533.883 576.607,456.953 683.797,488.032 790.988,502.206 898.179,528.631 1005.37,625.276 1112.56,754.426 1219.75,837.06 1326.94,894.243 1434.13,1045.3 1541.32,1224.86 1648.51,1344.92 1755.7,1375.46 1862.89,1368.59 1970.09,1305.71 2077.28,1227.56 2184.47,1214.68 2291.66,1211.57 "/>
<polyline clip-path="url(#clip821)" style="stroke:#ac8d18; stroke-linecap:round; stroke-linejoin:round; stroke-width:12; stroke-opacity:1; fill:none" points="255.035,239.812 362.225,212.007 469.416,214.014 576.607,205.535 683.797,188.5 790.988,213.699 898.179,240.104 1005.37,260.38 1112.56,320.182 1219.75,455.169 1326.94,664.366 1434.13,861.856 1541.32,971.087 1648.51,1040.69 1755.7,1110.23 1862.89,1096.01 1970.09,1060.32 2077.28,962.478 2184.47,796.25 2291.66,650.25 "/>
<path clip-path="url(#clip820)" d="M1953.46 406.258 L2280.8 406.258 L2280.8 95.2176 L1953.46 95.2176  Z" fill="#ffffff" fill-rule="evenodd" fill-opacity="1"/>
<polyline clip-path="url(#clip820)" style="stroke:#000000; stroke-linecap:round; stroke-linejoin:round; stroke-width:4; stroke-opacity:1; fill:none" points="1953.46,406.258 2280.8,406.258 2280.8,95.2176 1953.46,95.2176 1953.46,406.258 "/>
<polyline clip-path="url(#clip820)" style="stroke:#009af9; stroke-linecap:round; stroke-linejoin:round; stroke-width:4; stroke-opacity:1; fill:none" points="1977.44,147.058 2121.36,147.058 "/>
<path clip-path="url(#clip820)" d="M2152.76 131.051 L2152.76 138.412 L2161.53 138.412 L2161.53 141.722 L2152.76 141.722 L2152.76 155.796 Q2152.76 158.967 2153.61 159.87 Q2154.49 160.773 2157.16 160.773 L2161.53 160.773 L2161.53 164.338 L2157.16 164.338 Q2152.23 164.338 2150.35 162.509 Q2148.48 160.657 2148.48 155.796 L2148.48 141.722 L2145.35 141.722 L2145.35 138.412 L2148.48 138.412 L2148.48 131.051 L2152.76 131.051 Z" fill="#000000" fill-rule="nonzero" fill-opacity="1" /><path clip-path="url(#clip820)" d="M2182.16 142.393 Q2181.44 141.977 2180.58 141.791 Q2179.75 141.583 2178.73 141.583 Q2175.12 141.583 2173.17 143.944 Q2171.25 146.282 2171.25 150.68 L2171.25 164.338 L2166.97 164.338 L2166.97 138.412 L2171.25 138.412 L2171.25 142.44 Q2172.6 140.078 2174.75 138.944 Q2176.9 137.787 2179.98 137.787 Q2180.42 137.787 2180.95 137.856 Q2181.48 137.903 2182.13 138.018 L2182.16 142.393 Z" fill="#000000" fill-rule="nonzero" fill-opacity="1" /><path clip-path="url(#clip820)" d="M2186.18 154.106 L2186.18 138.412 L2190.44 138.412 L2190.44 153.944 Q2190.44 157.625 2191.88 159.476 Q2193.31 161.305 2196.18 161.305 Q2199.63 161.305 2201.62 159.106 Q2203.64 156.907 2203.64 153.111 L2203.64 138.412 L2207.9 138.412 L2207.9 164.338 L2203.64 164.338 L2203.64 160.356 Q2202.09 162.717 2200.03 163.875 Q2197.99 165.009 2195.28 165.009 Q2190.81 165.009 2188.5 162.231 Q2186.18 159.453 2186.18 154.106 M2196.9 137.787 L2196.9 137.787 Z" fill="#000000" fill-rule="nonzero" fill-opacity="1" /><path clip-path="url(#clip820)" d="M2220.88 131.051 L2220.88 138.412 L2229.66 138.412 L2229.66 141.722 L2220.88 141.722 L2220.88 155.796 Q2220.88 158.967 2221.74 159.87 Q2222.62 160.773 2225.28 160.773 L2229.66 160.773 L2229.66 164.338 L2225.28 164.338 Q2220.35 164.338 2218.48 162.509 Q2216.6 160.657 2216.6 155.796 L2216.6 141.722 L2213.48 141.722 L2213.48 138.412 L2216.6 138.412 L2216.6 131.051 L2220.88 131.051 Z" fill="#000000" fill-rule="nonzero" fill-opacity="1" /><path clip-path="url(#clip820)" d="M2256.81 148.689 L2256.81 164.338 L2252.55 164.338 L2252.55 148.828 Q2252.55 145.148 2251.11 143.319 Q2249.68 141.49 2246.81 141.49 Q2243.36 141.49 2241.37 143.69 Q2239.38 145.889 2239.38 149.685 L2239.38 164.338 L2235.1 164.338 L2235.1 128.319 L2239.38 128.319 L2239.38 142.44 Q2240.91 140.102 2242.97 138.944 Q2245.05 137.787 2247.76 137.787 Q2252.23 137.787 2254.52 140.565 Q2256.81 143.319 2256.81 148.689 Z" fill="#000000" fill-rule="nonzero" fill-opacity="1" /><circle clip-path="url(#clip820)" cx="2049.4" cy="198.898" r="20.48" fill="#e26f46" fill-rule="evenodd" fill-opacity="1" stroke="#000000" stroke-opacity="1" stroke-width="4.55111"/>
<path clip-path="url(#clip820)" d="M2164.26 194.187 L2164.26 180.159 L2168.52 180.159 L2168.52 216.178 L2164.26 216.178 L2164.26 212.289 Q2162.92 214.603 2160.86 215.738 Q2158.82 216.849 2155.95 216.849 Q2151.25 216.849 2148.29 213.099 Q2145.35 209.349 2145.35 203.238 Q2145.35 197.127 2148.29 193.377 Q2151.25 189.627 2155.95 189.627 Q2158.82 189.627 2160.86 190.761 Q2162.92 191.872 2164.26 194.187 M2149.75 203.238 Q2149.75 207.937 2151.67 210.622 Q2153.61 213.284 2156.99 213.284 Q2160.37 213.284 2162.32 210.622 Q2164.26 207.937 2164.26 203.238 Q2164.26 198.539 2162.32 195.877 Q2160.37 193.192 2156.99 193.192 Q2153.61 193.192 2151.67 195.877 Q2149.75 198.539 2149.75 203.238 Z" fill="#000000" fill-rule="nonzero" fill-opacity="1" /><path clip-path="url(#clip820)" d="M2189.08 203.145 Q2183.92 203.145 2181.92 204.326 Q2179.93 205.506 2179.93 208.354 Q2179.93 210.622 2181.42 211.965 Q2182.92 213.284 2185.49 213.284 Q2189.03 213.284 2191.16 210.784 Q2193.31 208.261 2193.31 204.094 L2193.31 203.145 L2189.08 203.145 M2197.57 201.386 L2197.57 216.178 L2193.31 216.178 L2193.31 212.242 Q2191.85 214.603 2189.68 215.738 Q2187.5 216.849 2184.36 216.849 Q2180.37 216.849 2178.01 214.627 Q2175.67 212.381 2175.67 208.631 Q2175.67 204.256 2178.59 202.034 Q2181.53 199.812 2187.34 199.812 L2193.31 199.812 L2193.31 199.395 Q2193.31 196.455 2191.37 194.858 Q2189.45 193.238 2185.95 193.238 Q2183.73 193.238 2181.62 193.77 Q2179.52 194.303 2177.57 195.367 L2177.57 191.432 Q2179.91 190.53 2182.11 190.09 Q2184.31 189.627 2186.39 189.627 Q2192.02 189.627 2194.79 192.543 Q2197.57 195.46 2197.57 201.386 Z" fill="#000000" fill-rule="nonzero" fill-opacity="1" /><path clip-path="url(#clip820)" d="M2210.56 182.891 L2210.56 190.252 L2219.33 190.252 L2219.33 193.562 L2210.56 193.562 L2210.56 207.636 Q2210.56 210.807 2211.42 211.71 Q2212.29 212.613 2214.96 212.613 L2219.33 212.613 L2219.33 216.178 L2214.96 216.178 Q2210.03 216.178 2208.15 214.349 Q2206.28 212.497 2206.28 207.636 L2206.28 193.562 L2203.15 193.562 L2203.15 190.252 L2206.28 190.252 L2206.28 182.891 L2210.56 182.891 Z" fill="#000000" fill-rule="nonzero" fill-opacity="1" /><path clip-path="url(#clip820)" d="M2236.72 203.145 Q2231.55 203.145 2229.56 204.326 Q2227.57 205.506 2227.57 208.354 Q2227.57 210.622 2229.05 211.965 Q2230.56 213.284 2233.13 213.284 Q2236.67 213.284 2238.8 210.784 Q2240.95 208.261 2240.95 204.094 L2240.95 203.145 L2236.72 203.145 M2245.21 201.386 L2245.21 216.178 L2240.95 216.178 L2240.95 212.242 Q2239.49 214.603 2237.32 215.738 Q2235.14 216.849 2231.99 216.849 Q2228.01 216.849 2225.65 214.627 Q2223.31 212.381 2223.31 208.631 Q2223.31 204.256 2226.23 202.034 Q2229.17 199.812 2234.98 199.812 L2240.95 199.812 L2240.95 199.395 Q2240.95 196.455 2239.01 194.858 Q2237.09 193.238 2233.59 193.238 Q2231.37 193.238 2229.26 193.77 Q2227.16 194.303 2225.21 195.367 L2225.21 191.432 Q2227.55 190.53 2229.75 190.09 Q2231.95 189.627 2234.03 189.627 Q2239.66 189.627 2242.43 192.543 Q2245.21 195.46 2245.21 201.386 Z" fill="#000000" fill-rule="nonzero" fill-opacity="1" /><polyline clip-path="url(#clip820)" style="stroke:#3da44d; stroke-linecap:round; stroke-linejoin:round; stroke-width:8; stroke-opacity:1; fill:none" points="1977.44,250.738 2121.36,250.738 "/>
<path clip-path="url(#clip820)" d="M2170.91 263.087 L2170.91 253.805 L2163.27 253.805 L2163.27 249.962 L2175.54 249.962 L2175.54 264.8 Q2172.83 266.721 2169.56 267.717 Q2166.3 268.689 2162.6 268.689 Q2154.49 268.689 2149.91 263.967 Q2145.35 259.221 2145.35 250.772 Q2145.35 242.3 2149.91 237.578 Q2154.49 232.833 2162.6 232.833 Q2165.98 232.833 2169.01 233.666 Q2172.06 234.499 2174.63 236.12 L2174.63 241.096 Q2172.04 238.897 2169.12 237.786 Q2166.21 236.675 2162.99 236.675 Q2156.65 236.675 2153.45 240.217 Q2150.28 243.758 2150.28 250.772 Q2150.28 257.763 2153.45 261.305 Q2156.65 264.846 2162.99 264.846 Q2165.47 264.846 2167.41 264.43 Q2169.36 263.99 2170.91 263.087 Z" fill="#000000" fill-rule="nonzero" fill-opacity="1" /><path clip-path="url(#clip820)" d="M2188.75 237.3 L2188.75 250.286 L2194.63 250.286 Q2197.9 250.286 2199.68 248.596 Q2201.46 246.907 2201.46 243.782 Q2201.46 240.68 2199.68 238.99 Q2197.9 237.3 2194.63 237.3 L2188.75 237.3 M2184.08 233.458 L2194.63 233.458 Q2200.44 233.458 2203.41 236.096 Q2206.39 238.712 2206.39 243.782 Q2206.39 248.897 2203.41 251.513 Q2200.44 254.129 2194.63 254.129 L2188.75 254.129 L2188.75 268.018 L2184.08 268.018 L2184.08 233.458 Z" fill="#000000" fill-rule="nonzero" fill-opacity="1" /><polyline clip-path="url(#clip820)" style="stroke:#c271d2; stroke-linecap:round; stroke-linejoin:round; stroke-width:12; stroke-opacity:1; fill:none" points="1977.44,302.578 2121.36,302.578 "/>
<path clip-path="url(#clip820)" d="M2150.03 289.14 L2150.03 302.126 L2155.91 302.126 Q2159.17 302.126 2160.95 300.436 Q2162.73 298.747 2162.73 295.622 Q2162.73 292.52 2160.95 290.83 Q2159.17 289.14 2155.91 289.14 L2150.03 289.14 M2145.35 285.298 L2155.91 285.298 Q2161.72 285.298 2164.68 287.936 Q2167.67 290.552 2167.67 295.622 Q2167.67 300.737 2164.68 303.353 Q2161.72 305.969 2155.91 305.969 L2150.03 305.969 L2150.03 319.858 L2145.35 319.858 L2145.35 285.298 Z" fill="#000000" fill-rule="nonzero" fill-opacity="1" /><path clip-path="url(#clip820)" d="M2178.38 315.922 L2194.7 315.922 L2194.7 319.858 L2172.76 319.858 L2172.76 315.922 Q2175.42 313.168 2180 308.538 Q2184.61 303.885 2185.79 302.543 Q2188.04 300.02 2188.92 298.284 Q2189.82 296.524 2189.82 294.835 Q2189.82 292.08 2187.87 290.344 Q2185.95 288.608 2182.85 288.608 Q2180.65 288.608 2178.2 289.372 Q2175.77 290.135 2172.99 291.686 L2172.99 286.964 Q2175.81 285.83 2178.27 285.251 Q2180.72 284.673 2182.76 284.673 Q2188.13 284.673 2191.32 287.358 Q2194.52 290.043 2194.52 294.534 Q2194.52 296.663 2193.71 298.585 Q2192.92 300.483 2190.81 303.075 Q2190.23 303.747 2187.13 306.964 Q2184.03 310.159 2178.38 315.922 Z" fill="#000000" fill-rule="nonzero" fill-opacity="1" /><path clip-path="url(#clip820)" d="M2204.56 285.298 L2222.92 285.298 L2222.92 289.233 L2208.85 289.233 L2208.85 297.705 Q2209.86 297.358 2210.88 297.196 Q2211.9 297.01 2212.92 297.01 Q2218.71 297.01 2222.09 300.182 Q2225.47 303.353 2225.47 308.77 Q2225.47 314.348 2221.99 317.45 Q2218.52 320.529 2212.2 320.529 Q2210.03 320.529 2207.76 320.158 Q2205.51 319.788 2203.1 319.047 L2203.1 314.348 Q2205.19 315.483 2207.41 316.038 Q2209.63 316.594 2212.11 316.594 Q2216.11 316.594 2218.45 314.487 Q2220.79 312.381 2220.79 308.77 Q2220.79 305.159 2218.45 303.052 Q2216.11 300.946 2212.11 300.946 Q2210.23 300.946 2208.36 301.362 Q2206.51 301.779 2204.56 302.659 L2204.56 285.298 Z" fill="#000000" fill-rule="nonzero" fill-opacity="1" /><polyline clip-path="url(#clip820)" style="stroke:#ac8d18; stroke-linecap:round; stroke-linejoin:round; stroke-width:12; stroke-opacity:1; fill:none" points="1977.44,354.418 2121.36,354.418 "/>
<path clip-path="url(#clip820)" d="M2150.03 340.98 L2150.03 353.966 L2155.91 353.966 Q2159.17 353.966 2160.95 352.276 Q2162.73 350.587 2162.73 347.462 Q2162.73 344.36 2160.95 342.67 Q2159.17 340.98 2155.91 340.98 L2150.03 340.98 M2145.35 337.138 L2155.91 337.138 Q2161.72 337.138 2164.68 339.776 Q2167.67 342.392 2167.67 347.462 Q2167.67 352.577 2164.68 355.193 Q2161.72 357.809 2155.91 357.809 L2150.03 357.809 L2150.03 371.698 L2145.35 371.698 L2145.35 337.138 Z" fill="#000000" fill-rule="nonzero" fill-opacity="1" /><path clip-path="url(#clip820)" d="M2173.17 337.138 L2195.4 337.138 L2195.4 339.128 L2182.85 371.698 L2177.97 371.698 L2189.77 341.073 L2173.17 341.073 L2173.17 337.138 Z" fill="#000000" fill-rule="nonzero" fill-opacity="1" /><path clip-path="url(#clip820)" d="M2204.56 337.138 L2222.92 337.138 L2222.92 341.073 L2208.85 341.073 L2208.85 349.545 Q2209.86 349.198 2210.88 349.036 Q2211.9 348.85 2212.92 348.85 Q2218.71 348.85 2222.09 352.022 Q2225.47 355.193 2225.47 360.61 Q2225.47 366.188 2221.99 369.29 Q2218.52 372.369 2212.2 372.369 Q2210.03 372.369 2207.76 371.998 Q2205.51 371.628 2203.1 370.887 L2203.1 366.188 Q2205.19 367.323 2207.41 367.878 Q2209.63 368.434 2212.11 368.434 Q2216.11 368.434 2218.45 366.327 Q2220.79 364.221 2220.79 360.61 Q2220.79 356.999 2218.45 354.892 Q2216.11 352.786 2212.11 352.786 Q2210.23 352.786 2208.36 353.202 Q2206.51 353.619 2204.56 354.499 L2204.56 337.138 Z" fill="#000000" fill-rule="nonzero" fill-opacity="1" /></svg>
