<?xml version="1.0" encoding="utf-8"?>
<svg xmlns="http://www.w3.org/2000/svg" xmlns:xlink="http://www.w3.org/1999/xlink" width="600" height="400" viewBox="0 0 2400 1600">
<defs>
  <clipPath id="clip790">
    <rect x="0" y="0" width="2400" height="1600"/>
  </clipPath>
</defs>
<path clip-path="url(#clip790)" d="M0 1600 L2400 1600 L2400 0 L0 0  Z" fill="#ffffff" fill-rule="evenodd" fill-opacity="1"/>
<defs>
  <clipPath id="clip791">
    <rect x="193" y="47" width="2160" height="1440"/>
  </clipPath>
</defs>
<path clip-path="url(#clip790)" d="M193.936 1486.45 L2352.76 1486.45 L2352.76 47.2441 L193.936 47.2441  Z" fill="#ffffff" fill-rule="evenodd" fill-opacity="1"/>
<polyline clip-path="url(#clip791)" style="stroke:#000000; stroke-linecap:round; stroke-linejoin:round; stroke-width:2; stroke-opacity:0.1; fill:none" points="255.035,1486.45 255.035,47.2441 "/>
<polyline clip-path="url(#clip791)" style="stroke:#000000; stroke-linecap:round; stroke-linejoin:round; stroke-width:2; stroke-opacity:0.1; fill:none" points="579.338,1486.45 579.338,47.2441 "/>
<polyline clip-path="url(#clip791)" style="stroke:#000000; stroke-linecap:round; stroke-linejoin:round; stroke-width:2; stroke-opacity:0.1; fill:none" points="903.641,1486.45 903.641,47.2441 "/>
<polyline clip-path="url(#clip791)" style="stroke:#000000; stroke-linecap:round; stroke-linejoin:round; stroke-width:2; stroke-opacity:0.1; fill:none" points="1227.94,1486.45 1227.94,47.2441 "/>
<polyline clip-path="url(#clip791)" style="stroke:#000000; stroke-linecap:round; stroke-linejoin:round; stroke-width:2; stroke-opacity:0.1; fill:none" points="1552.25,1486.45 1552.25,47.2441 "/>
<polyline clip-path="url(#clip791)" style="stroke:#000000; stroke-linecap:round; stroke-linejoin:round; stroke-width:2; stroke-opacity:0.1; fill:none" points="1876.55,1486.45 1876.55,47.2441 "/>
<polyline clip-path="url(#clip791)" style="stroke:#000000; stroke-linecap:round; stroke-linejoin:round; stroke-width:2; stroke-opacity:0.1; fill:none" points="2200.85,1486.45 2200.85,47.2441 "/>
<polyline clip-path="url(#clip791)" style="stroke:#000000; stroke-linecap:round; stroke-linejoin:round; stroke-width:2; stroke-opacity:0.1; fill:none" points="193.936,1300.33 2352.76,1300.33 "/>
<polyline clip-path="url(#clip791)" style="stroke:#000000; stroke-linecap:round; stroke-linejoin:round; stroke-width:2; stroke-opacity:0.1; fill:none" points="193.936,1031.72 2352.76,1031.72 "/>
<polyline clip-path="url(#clip791)" style="stroke:#000000; stroke-linecap:round; stroke-linejoin:round; stroke-width:2; stroke-opacity:0.1; fill:none" points="193.936,763.112 2352.76,763.112 "/>
<polyline clip-path="url(#clip791)" style="stroke:#000000; stroke-linecap:round; stroke-linejoin:round; stroke-width:2; stroke-opacity:0.1; fill:none" points="193.936,494.501 2352.76,494.501 "/>
<polyline clip-path="url(#clip791)" style="stroke:#000000; stroke-linecap:round; stroke-linejoin:round; stroke-width:2; stroke-opacity:0.1; fill:none" points="193.936,225.89 2352.76,225.89 "/>
<polyline clip-path="url(#clip790)" style="stroke:#000000; stroke-linecap:round; stroke-linejoin:round; stroke-width:4; stroke-opacity:1; fill:none" points="193.936,1486.45 2352.76,1486.45 "/>
<polyline clip-path="url(#clip790)" style="stroke:#000000; stroke-linecap:round; stroke-linejoin:round; stroke-width:4; stroke-opacity:1; fill:none" points="255.035,1486.45 255.035,1467.55 "/>
<polyline clip-path="url(#clip790)" style="stroke:#000000; stroke-linecap:round; stroke-linejoin:round; stroke-width:4; stroke-opacity:1; fill:none" points="579.338,1486.45 579.338,1467.55 "/>
<polyline clip-path="url(#clip790)" style="stroke:#000000; stroke-linecap:round; stroke-linejoin:round; stroke-width:4; stroke-opacity:1; fill:none" points="903.641,1486.45 903.641,1467.55 "/>
<polyline clip-path="url(#clip790)" style="stroke:#000000; stroke-linecap:round; stroke-linejoin:round; stroke-width:4; stroke-opacity:1; fill:none" points="1227.94,1486.45 1227.94,1467.55 "/>
<polyline clip-path="url(#clip790)" style="stroke:#000000; stroke-linecap:round; stroke-linejoin:round; stroke-width:4; stroke-opacity:1; fill:none" points="1552.25,1486.45 1552.25,1467.55 "/>
<polyline clip-path="url(#clip790)" style="stroke:#000000; stroke-linecap:round; stroke-linejoin:round; stroke-width:4; stroke-opacity:1; fill:none" points="1876.55,1486.45 1876.55,1467.55 "/>
<polyline clip-path="url(#clip790)" style="stroke:#000000; stroke-linecap:round; stroke-linejoin:round; stroke-width:4; stroke-opacity:1; fill:none" points="2200.85,1486.45 2200.85,1467.55 "/>
<path clip-path="url(#clip790)" d="M255.035 1517.37 Q251.424 1517.37 249.595 1520.93 Q247.789 1524.47 247.789 1531.6 Q247.789 1538.71 249.595 1542.27 Q251.424 1545.82 255.035 1545.82 Q258.669 1545.82 260.474 1542.27 Q262.303 1538.71 262.303 1531.6 Q262.303 1524.47 260.474 1520.93 Q258.669 1517.37 255.035 1517.37 M255.035 1513.66 Q260.845 1513.66 263.9 1518.27 Q266.979 1522.85 266.979 1531.6 Q266.979 1540.33 263.9 1544.94 Q260.845 1549.52 255.035 1549.52 Q249.225 1549.52 246.146 1544.94 Q243.09 1540.33 243.09 1531.6 Q243.09 1522.85 246.146 1518.27 Q249.225 1513.66 255.035 1513.66 Z" fill="#000000" fill-rule="nonzero" fill-opacity="1" /><path clip-path="url(#clip790)" d="M569.72 1544.91 L577.358 1544.91 L577.358 1518.55 L569.048 1520.21 L569.048 1515.95 L577.312 1514.29 L581.988 1514.29 L581.988 1544.91 L589.627 1544.91 L589.627 1548.85 L569.72 1548.85 L569.72 1544.91 Z" fill="#000000" fill-rule="nonzero" fill-opacity="1" /><path clip-path="url(#clip790)" d="M898.293 1544.91 L914.613 1544.91 L914.613 1548.85 L892.668 1548.85 L892.668 1544.91 Q895.33 1542.16 899.914 1537.53 Q904.52 1532.88 905.701 1531.53 Q907.946 1529.01 908.826 1527.27 Q909.729 1525.51 909.729 1523.82 Q909.729 1521.07 907.784 1519.33 Q905.863 1517.6 902.761 1517.6 Q900.562 1517.6 898.108 1518.36 Q895.678 1519.13 892.9 1520.68 L892.9 1515.95 Q895.724 1514.82 898.178 1514.24 Q900.631 1513.66 902.668 1513.66 Q908.039 1513.66 911.233 1516.35 Q914.428 1519.03 914.428 1523.52 Q914.428 1525.65 913.617 1527.57 Q912.83 1529.47 910.724 1532.07 Q910.145 1532.74 907.043 1535.95 Q903.942 1539.15 898.293 1544.91 Z" fill="#000000" fill-rule="nonzero" fill-opacity="1" /><path clip-path="url(#clip790)" d="M1232.19 1530.21 Q1235.55 1530.93 1237.42 1533.2 Q1239.32 1535.47 1239.32 1538.8 Q1239.32 1543.92 1235.8 1546.72 Q1232.28 1549.52 1225.8 1549.52 Q1223.63 1549.52 1221.31 1549.08 Q1219.02 1548.66 1216.57 1547.81 L1216.57 1543.29 Q1218.51 1544.43 1220.83 1545.01 Q1223.14 1545.58 1225.66 1545.58 Q1230.06 1545.58 1232.35 1543.85 Q1234.67 1542.11 1234.67 1538.8 Q1234.67 1535.75 1232.52 1534.03 Q1230.39 1532.3 1226.57 1532.3 L1222.54 1532.3 L1222.54 1528.45 L1226.75 1528.45 Q1230.2 1528.45 1232.03 1527.09 Q1233.86 1525.7 1233.86 1523.11 Q1233.86 1520.45 1231.96 1519.03 Q1230.08 1517.6 1226.57 1517.6 Q1224.64 1517.6 1222.45 1518.01 Q1220.25 1518.43 1217.61 1519.31 L1217.61 1515.14 Q1220.27 1514.4 1222.58 1514.03 Q1224.92 1513.66 1226.98 1513.66 Q1232.31 1513.66 1235.41 1516.09 Q1238.51 1518.5 1238.51 1522.62 Q1238.51 1525.49 1236.87 1527.48 Q1235.22 1529.45 1232.19 1530.21 Z" fill="#000000" fill-rule="nonzero" fill-opacity="1" /><path clip-path="url(#clip790)" d="M1555.26 1518.36 L1543.45 1536.81 L1555.26 1536.81 L1555.26 1518.36 M1554.03 1514.29 L1559.91 1514.29 L1559.91 1536.81 L1564.84 1536.81 L1564.84 1540.7 L1559.91 1540.7 L1559.91 1548.85 L1555.26 1548.85 L1555.26 1540.7 L1539.65 1540.7 L1539.65 1536.19 L1554.03 1514.29 Z" fill="#000000" fill-rule="nonzero" fill-opacity="1" /><path clip-path="url(#clip790)" d="M1866.83 1514.29 L1885.18 1514.29 L1885.18 1518.22 L1871.11 1518.22 L1871.11 1526.7 Q1872.13 1526.35 1873.15 1526.19 Q1874.17 1526 1875.18 1526 Q1880.97 1526 1884.35 1529.17 Q1887.73 1532.34 1887.73 1537.76 Q1887.73 1543.34 1884.26 1546.44 Q1880.79 1549.52 1874.47 1549.52 Q1872.29 1549.52 1870.02 1549.15 Q1867.78 1548.78 1865.37 1548.04 L1865.37 1543.34 Q1867.45 1544.47 1869.67 1545.03 Q1871.9 1545.58 1874.37 1545.58 Q1878.38 1545.58 1880.72 1543.48 Q1883.05 1541.37 1883.05 1537.76 Q1883.05 1534.15 1880.72 1532.04 Q1878.38 1529.94 1874.37 1529.94 Q1872.5 1529.94 1870.62 1530.35 Q1868.77 1530.77 1866.83 1531.65 L1866.83 1514.29 Z" fill="#000000" fill-rule="nonzero" fill-opacity="1" /><path clip-path="url(#clip790)" d="M2201.26 1529.7 Q2198.11 1529.7 2196.26 1531.86 Q2194.43 1534.01 2194.43 1537.76 Q2194.43 1541.49 2196.26 1543.66 Q2198.11 1545.82 2201.26 1545.82 Q2204.41 1545.82 2206.23 1543.66 Q2208.09 1541.49 2208.09 1537.76 Q2208.09 1534.01 2206.23 1531.86 Q2204.41 1529.7 2201.26 1529.7 M2210.54 1515.05 L2210.54 1519.31 Q2208.78 1518.48 2206.98 1518.04 Q2205.19 1517.6 2203.43 1517.6 Q2198.8 1517.6 2196.35 1520.72 Q2193.92 1523.85 2193.57 1530.17 Q2194.94 1528.15 2197 1527.09 Q2199.06 1526 2201.54 1526 Q2206.74 1526 2209.75 1529.17 Q2212.79 1532.32 2212.79 1537.76 Q2212.79 1543.08 2209.64 1546.3 Q2206.49 1549.52 2201.26 1549.52 Q2195.26 1549.52 2192.09 1544.94 Q2188.92 1540.33 2188.92 1531.6 Q2188.92 1523.41 2192.81 1518.55 Q2196.7 1513.66 2203.25 1513.66 Q2205.01 1513.66 2206.79 1514.01 Q2208.6 1514.36 2210.54 1515.05 Z" fill="#000000" fill-rule="nonzero" fill-opacity="1" /><polyline clip-path="url(#clip790)" style="stroke:#000000; stroke-linecap:round; stroke-linejoin:round; stroke-width:4; stroke-opacity:1; fill:none" points="193.936,1486.45 193.936,47.2441 "/>
<polyline clip-path="url(#clip790)" style="stroke:#000000; stroke-linecap:round; stroke-linejoin:round; stroke-width:4; stroke-opacity:1; fill:none" points="193.936,1300.33 212.834,1300.33 "/>
<polyline clip-path="url(#clip790)" style="stroke:#000000; stroke-linecap:round; stroke-linejoin:round; stroke-width:4; stroke-opacity:1; fill:none" points="193.936,1031.72 212.834,1031.72 "/>
<polyline clip-path="url(#clip790)" style="stroke:#000000; stroke-linecap:round; stroke-linejoin:round; stroke-width:4; stroke-opacity:1; fill:none" points="193.936,763.112 212.834,763.112 "/>
<polyline clip-path="url(#clip790)" style="stroke:#000000; stroke-linecap:round; stroke-linejoin:round; stroke-width:4; stroke-opacity:1; fill:none" points="193.936,494.501 212.834,494.501 "/>
<polyline clip-path="url(#clip790)" style="stroke:#000000; stroke-linecap:round; stroke-linejoin:round; stroke-width:4; stroke-opacity:1; fill:none" points="193.936,225.89 212.834,225.89 "/>
<path clip-path="url(#clip790)" d="M50.9921 1300.79 L80.6679 1300.79 L80.6679 1304.72 L50.9921 1304.72 L50.9921 1300.79 Z" fill="#000000" fill-rule="nonzero" fill-opacity="1" /><path clip-path="url(#clip790)" d="M91.5706 1313.68 L99.2095 1313.68 L99.2095 1287.31 L90.8993 1288.98 L90.8993 1284.72 L99.1632 1283.05 L103.839 1283.05 L103.839 1313.68 L111.478 1313.68 L111.478 1317.61 L91.5706 1317.61 L91.5706 1313.68 Z" fill="#000000" fill-rule="nonzero" fill-opacity="1" /><path clip-path="url(#clip790)" d="M120.922 1311.73 L125.807 1311.73 L125.807 1317.61 L120.922 1317.61 L120.922 1311.73 Z" fill="#000000" fill-rule="nonzero" fill-opacity="1" /><path clip-path="url(#clip790)" d="M145.992 1286.13 Q142.381 1286.13 140.552 1289.7 Q138.746 1293.24 138.746 1300.37 Q138.746 1307.48 140.552 1311.04 Q142.381 1314.58 145.992 1314.58 Q149.626 1314.58 151.431 1311.04 Q153.26 1307.48 153.26 1300.37 Q153.26 1293.24 151.431 1289.7 Q149.626 1286.13 145.992 1286.13 M145.992 1282.43 Q151.802 1282.43 154.857 1287.04 Q157.936 1291.62 157.936 1300.37 Q157.936 1309.1 154.857 1313.7 Q151.802 1318.29 145.992 1318.29 Q140.181 1318.29 137.103 1313.7 Q134.047 1309.1 134.047 1300.37 Q134.047 1291.62 137.103 1287.04 Q140.181 1282.43 145.992 1282.43 Z" fill="#000000" fill-rule="nonzero" fill-opacity="1" /><path clip-path="url(#clip790)" d="M51.9875 1032.17 L81.6633 1032.17 L81.6633 1036.11 L51.9875 1036.11 L51.9875 1032.17 Z" fill="#000000" fill-rule="nonzero" fill-opacity="1" /><path clip-path="url(#clip790)" d="M101.756 1017.52 Q98.1447 1017.52 96.316 1021.09 Q94.5104 1024.63 94.5104 1031.76 Q94.5104 1038.86 96.316 1042.43 Q98.1447 1045.97 101.756 1045.97 Q105.39 1045.97 107.196 1042.43 Q109.024 1038.86 109.024 1031.76 Q109.024 1024.63 107.196 1021.09 Q105.39 1017.52 101.756 1017.52 M101.756 1013.82 Q107.566 1013.82 110.621 1018.42 Q113.7 1023.01 113.7 1031.76 Q113.7 1040.48 110.621 1045.09 Q107.566 1049.67 101.756 1049.67 Q95.9456 1049.67 92.8669 1045.09 Q89.8114 1040.48 89.8114 1031.76 Q89.8114 1023.01 92.8669 1018.42 Q95.9456 1013.82 101.756 1013.82 Z" fill="#000000" fill-rule="nonzero" fill-opacity="1" /><path clip-path="url(#clip790)" d="M121.918 1043.12 L126.802 1043.12 L126.802 1049 L121.918 1049 L121.918 1043.12 Z" fill="#000000" fill-rule="nonzero" fill-opacity="1" /><path clip-path="url(#clip790)" d="M137.033 1014.44 L155.39 1014.44 L155.39 1018.38 L141.316 1018.38 L141.316 1026.85 Q142.334 1026.5 143.353 1026.34 Q144.371 1026.16 145.39 1026.16 Q151.177 1026.16 154.556 1029.33 Q157.936 1032.5 157.936 1037.92 Q157.936 1043.49 154.464 1046.6 Q150.992 1049.67 144.672 1049.67 Q142.496 1049.67 140.228 1049.3 Q137.982 1048.93 135.575 1048.19 L135.575 1043.49 Q137.658 1044.63 139.881 1045.18 Q142.103 1045.74 144.58 1045.74 Q148.584 1045.74 150.922 1043.63 Q153.26 1041.53 153.26 1037.92 Q153.26 1034.3 150.922 1032.2 Q148.584 1030.09 144.58 1030.09 Q142.705 1030.09 140.83 1030.51 Q138.978 1030.92 137.033 1031.8 L137.033 1014.44 Z" fill="#000000" fill-rule="nonzero" fill-opacity="1" /><path clip-path="url(#clip790)" d="M100.76 748.911 Q97.1493 748.911 95.3206 752.475 Q93.515 756.017 93.515 763.147 Q93.515 770.253 95.3206 773.818 Q97.1493 777.36 100.76 777.36 Q104.395 777.36 106.2 773.818 Q108.029 770.253 108.029 763.147 Q108.029 756.017 106.2 752.475 Q104.395 748.911 100.76 748.911 M100.76 745.207 Q106.571 745.207 109.626 749.813 Q112.705 754.397 112.705 763.147 Q112.705 771.874 109.626 776.48 Q106.571 781.063 100.76 781.063 Q94.9502 781.063 91.8715 776.48 Q88.816 771.874 88.816 763.147 Q88.816 754.397 91.8715 749.813 Q94.9502 745.207 100.76 745.207 Z" fill="#000000" fill-rule="nonzero" fill-opacity="1" /><path clip-path="url(#clip790)" d="M120.922 774.512 L125.807 774.512 L125.807 780.392 L120.922 780.392 L120.922 774.512 Z" fill="#000000" fill-rule="nonzero" fill-opacity="1" /><path clip-path="url(#clip790)" d="M145.992 748.911 Q142.381 748.911 140.552 752.475 Q138.746 756.017 138.746 763.147 Q138.746 770.253 140.552 773.818 Q142.381 777.36 145.992 777.36 Q149.626 777.36 151.431 773.818 Q153.26 770.253 153.26 763.147 Q153.26 756.017 151.431 752.475 Q149.626 748.911 145.992 748.911 M145.992 745.207 Q151.802 745.207 154.857 749.813 Q157.936 754.397 157.936 763.147 Q157.936 771.874 154.857 776.48 Q151.802 781.063 145.992 781.063 Q140.181 781.063 137.103 776.48 Q134.047 771.874 134.047 763.147 Q134.047 754.397 137.103 749.813 Q140.181 745.207 145.992 745.207 Z" fill="#000000" fill-rule="nonzero" fill-opacity="1" /><path clip-path="url(#clip790)" d="M101.756 480.3 Q98.1447 480.3 96.316 483.864 Q94.5104 487.406 94.5104 494.536 Q94.5104 501.642 96.316 505.207 Q98.1447 508.749 101.756 508.749 Q105.39 508.749 107.196 505.207 Q109.024 501.642 109.024 494.536 Q109.024 487.406 107.196 483.864 Q105.39 480.3 101.756 480.3 M101.756 476.596 Q107.566 476.596 110.621 481.202 Q113.7 485.786 113.7 494.536 Q113.7 503.262 110.621 507.869 Q107.566 512.452 101.756 512.452 Q95.9456 512.452 92.8669 507.869 Q89.8114 503.262 89.8114 494.536 Q89.8114 485.786 92.8669 481.202 Q95.9456 476.596 101.756 476.596 Z" fill="#000000" fill-rule="nonzero" fill-opacity="1" /><path clip-path="url(#clip790)" d="M121.918 505.901 L126.802 505.901 L126.802 511.781 L121.918 511.781 L121.918 505.901 Z" fill="#000000" fill-rule="nonzero" fill-opacity="1" /><path clip-path="url(#clip790)" d="M137.033 477.221 L155.39 477.221 L155.39 481.156 L141.316 481.156 L141.316 489.628 Q142.334 489.281 143.353 489.119 Q144.371 488.934 145.39 488.934 Q151.177 488.934 154.556 492.105 Q157.936 495.276 157.936 500.693 Q157.936 506.272 154.464 509.374 Q150.992 512.452 144.672 512.452 Q142.496 512.452 140.228 512.082 Q137.982 511.711 135.575 510.971 L135.575 506.272 Q137.658 507.406 139.881 507.962 Q142.103 508.517 144.58 508.517 Q148.584 508.517 150.922 506.411 Q153.26 504.304 153.26 500.693 Q153.26 497.082 150.922 494.975 Q148.584 492.869 144.58 492.869 Q142.705 492.869 140.83 493.286 Q138.978 493.702 137.033 494.582 L137.033 477.221 Z" fill="#000000" fill-rule="nonzero" fill-opacity="1" /><path clip-path="url(#clip790)" d="M91.5706 239.235 L99.2095 239.235 L99.2095 212.869 L90.8993 214.536 L90.8993 210.277 L99.1632 208.61 L103.839 208.61 L103.839 239.235 L111.478 239.235 L111.478 243.17 L91.5706 243.17 L91.5706 239.235 Z" fill="#000000" fill-rule="nonzero" fill-opacity="1" /><path clip-path="url(#clip790)" d="M120.922 237.29 L125.807 237.29 L125.807 243.17 L120.922 243.17 L120.922 237.29 Z" fill="#000000" fill-rule="nonzero" fill-opacity="1" /><path clip-path="url(#clip790)" d="M145.992 211.689 Q142.381 211.689 140.552 215.253 Q138.746 218.795 138.746 225.925 Q138.746 233.031 140.552 236.596 Q142.381 240.137 145.992 240.137 Q149.626 240.137 151.431 236.596 Q153.26 233.031 153.26 225.925 Q153.26 218.795 151.431 215.253 Q149.626 211.689 145.992 211.689 M145.992 207.985 Q151.802 207.985 154.857 212.591 Q157.936 217.175 157.936 225.925 Q157.936 234.651 154.857 239.258 Q151.802 243.841 145.992 243.841 Q140.181 243.841 137.103 239.258 Q134.047 234.651 134.047 225.925 Q134.047 217.175 137.103 212.591 Q140.181 207.985 145.992 207.985 Z" fill="#000000" fill-rule="nonzero" fill-opacity="1" /><polyline clip-path="url(#clip791)" style="stroke:#009af9; stroke-linecap:round; stroke-linejoin:round; stroke-width:4; stroke-opacity:1; fill:none" points="255.035,763.112 258.278,757.74 261.521,752.368 264.764,746.998 268.007,741.629 271.25,736.262 274.493,730.898 277.736,725.537 280.979,720.18 284.222,714.827 287.465,709.479 290.708,704.137 293.951,698.8 297.194,693.47 300.437,688.146 303.68,682.831 306.923,677.523 310.166,672.223 313.409,666.933 316.652,661.653 319.895,656.382 323.138,651.123 326.381,645.874 329.624,640.637 332.867,635.413 336.11,630.201 339.353,625.003 342.596,619.818 345.84,614.648 349.083,609.492 352.326,604.352 355.569,599.228 358.812,594.12 362.055,589.029 365.298,583.955 368.541,578.9 371.784,573.862 375.027,568.844 378.27,563.845 381.513,558.866 384.756,553.908 387.999,548.97 391.242,544.054 394.485,539.16 397.728,534.288 400.971,529.439 404.214,524.613 407.457,519.811 410.7,515.034 413.943,510.281 417.186,505.554 420.429,500.852 423.672,496.177 426.915,491.528 430.158,486.907 433.401,482.313 436.644,477.747 439.887,473.21 443.13,468.701 446.373,464.223 449.616,459.774 452.859,455.355 456.103,450.967 459.346,446.61 462.589,442.285 465.832,437.992 469.075,433.732 472.318,429.505 475.561,425.31 478.804,421.15 482.047,417.024 485.29,412.932 488.533,408.876 491.776,404.855 495.019,400.87 498.262,396.921 501.505,393.008 504.748,389.133 507.991,385.295 511.234,381.495 514.477,377.732 517.72,374.009 520.963,370.324 524.206,366.679 527.449,363.073 530.692,359.508 533.935,355.982 537.178,352.498 540.421,349.054 543.664,345.652 546.907,342.291 550.15,338.973 553.393,335.697 556.636,332.464 559.879,329.274 563.122,326.127 566.366,323.024 569.609,319.965 572.852,316.95 576.095,313.98 579.338,311.055 582.581,308.175 585.824,305.341 589.067,302.552 592.31,299.809 595.553,297.113 598.796,294.463 602.039,291.86 605.282,289.305 608.525,286.796 611.768,284.336 615.011,281.923 618.254,279.558 621.497,277.242 624.74,274.974 627.983,272.755 631.226,270.585 634.469,268.464 637.712,266.393 640.955,264.372 644.198,262.4 647.441,260.478 650.684,258.607 653.927,256.786 657.17,255.016 660.413,253.296 663.656,251.628 666.899,250.011 670.142,248.445 673.385,246.93 676.629,245.467 679.872,244.056 683.115,242.697 686.358,241.39 689.601,240.135 692.844,238.932 696.087,237.782 699.33,236.684 702.573,235.639 705.816,234.646 709.059,233.707 712.302,232.82 715.545,231.986 718.788,231.206 722.031,230.479 725.274,229.805 728.517,229.184 731.76,228.617 735.003,228.103 738.246,227.642 741.489,227.236 744.732,226.882 747.975,226.583 751.218,226.337 754.461,226.145 757.704,226.006 760.947,225.921 764.19,225.89 767.433,225.913 770.676,225.989 773.919,226.119 777.162,226.303 780.405,226.54 783.648,226.831 786.892,227.176 790.135,227.574 793.378,228.026 796.621,228.531 799.864,229.09 803.107,229.702 806.35,230.368 809.593,231.087 812.836,231.859 816.079,232.684 819.322,233.562 822.565,234.493 825.808,235.477 829.051,236.514 832.294,237.603 835.537,238.745 838.78,239.94 842.023,241.186 845.266,242.485 848.509,243.836 851.752,245.239 854.995,246.694 858.238,248.2 861.481,249.758 864.724,251.367 867.967,253.027 871.21,254.739 874.453,256.501 877.696,258.314 880.939,260.177 884.182,262.091 887.425,264.054 890.668,266.068 893.911,268.131 897.155,270.244 900.398,272.406 903.641,274.617 906.884,276.877 910.127,279.186 913.37,281.543 916.613,283.948 919.856,286.401 923.099,288.902 926.342,291.45 929.585,294.046 932.828,296.688 936.071,299.377 939.314,302.112 942.557,304.894 945.8,307.721 949.043,310.593 952.286,313.511 955.529,316.474 958.772,319.482 962.015,322.534 965.258,325.63 968.501,328.77 971.744,331.953 974.987,335.179 978.23,338.449 981.473,341.76 984.716,345.114 987.959,348.509 991.202,351.946 994.445,355.425 997.688,358.943 1000.93,362.503 1004.17,366.102 1007.42,369.741 1010.66,373.419 1013.9,377.137 1017.15,380.893 1020.39,384.687 1023.63,388.519 1026.88,392.388 1030.12,396.295 1033.36,400.238 1036.6,404.218 1039.85,408.233 1043.09,412.284 1046.33,416.37 1049.58,420.491 1052.82,424.646 1056.06,428.834 1059.31,433.057 1062.55,437.312 1065.79,441.6 1069.04,445.919 1072.28,450.271 1075.52,454.654 1078.76,459.068 1082.01,463.512 1085.25,467.986 1088.49,472.49 1091.74,477.022 1094.98,481.584 1098.22,486.173 1101.47,490.79 1104.71,495.435 1107.95,500.106 1111.19,504.803 1114.44,509.527 1117.68,514.275 1120.92,519.049 1124.17,523.847 1127.41,528.669 1130.65,533.514 1133.9,538.382 1137.14,543.273 1140.38,548.186 1143.62,553.12 1146.87,558.075 1150.11,563.051 1153.35,568.047 1156.6,573.062 1159.84,578.096 1163.08,583.149 1166.33,588.22 1169.57,593.308 1172.81,598.413 1176.06,603.535 1179.3,608.672 1182.54,613.826 1185.78,618.994 1189.03,624.176 1192.27,629.372 1195.51,634.582 1198.76,639.805 1202,645.039 1205.24,650.286 1208.49,655.544 1211.73,660.813 1214.97,666.092 1218.21,671.38 1221.46,676.678 1224.7,681.985 1227.94,687.299 1231.19,692.621 1234.43,697.951 1237.67,703.286 1240.92,708.628 1244.16,713.975 1247.4,719.327 1250.64,724.684 1253.89,730.044 1257.13,735.408 1260.37,740.774 1263.62,746.143 1266.86,751.513 1270.1,756.884 1273.35,762.256 1276.59,767.629 1279.83,773 1283.08,778.371 1286.32,783.74 1289.56,789.107 1292.8,794.472 1296.05,799.833 1299.29,805.191 1302.53,810.545 1305.78,815.893 1309.02,821.237 1312.26,826.575 1315.51,831.906 1318.75,837.23 1321.99,842.547 1325.23,847.856 1328.48,853.157 1331.72,858.449 1334.96,863.731 1338.21,869.003 1341.45,874.264 1344.69,879.515 1347.94,884.753 1351.18,889.98 1354.42,895.194 1357.66,900.394 1360.91,905.581 1364.15,910.754 1367.39,915.912 1370.64,921.054 1373.88,926.181 1377.12,931.292 1380.37,936.385 1383.61,941.462 1386.85,946.52 1390.1,951.561 1393.34,956.582 1396.58,961.584 1399.82,966.566 1403.07,971.528 1406.31,976.469 1409.55,981.388 1412.8,986.286 1416.04,991.162 1419.28,996.014 1422.53,1000.84 1425.77,1005.65 1429.01,1010.43 1432.25,1015.19 1435.5,1019.92 1438.74,1024.62 1441.98,1029.3 1445.23,1033.96 1448.47,1038.58 1451.71,1043.18 1454.96,1047.75 1458.2,1052.29 1461.44,1056.81 1464.68,1061.29 1467.93,1065.74 1471.17,1070.17 1474.41,1074.56 1477.66,1078.92 1480.9,1083.25 1484.14,1087.55 1487.39,1091.82 1490.63,1096.05 1493.87,1100.25 1497.11,1104.41 1500.36,1108.55 1503.6,1112.64 1506.84,1116.7 1510.09,1120.73 1513.33,1124.72 1516.57,1128.68 1519.82,1132.6 1523.06,1136.48 1526.3,1140.32 1529.55,1144.13 1532.79,1147.89 1536.03,1151.62 1539.27,1155.32 1542.52,1158.97 1545.76,1162.58 1549,1166.15 1552.25,1169.68 1555.49,1173.17 1558.73,1176.62 1561.98,1180.03 1565.22,1183.4 1568.46,1186.73 1571.7,1190.01 1574.95,1193.25 1578.19,1196.44 1581.43,1199.6 1584.68,1202.71 1587.92,1205.77 1591.16,1208.8 1594.41,1211.77 1597.65,1214.71 1600.89,1217.59 1604.13,1220.43 1607.38,1223.23 1610.62,1225.98 1613.86,1228.68 1617.11,1231.34 1620.35,1233.95 1623.59,1236.52 1626.84,1239.03 1630.08,1241.5 1633.32,1243.92 1636.57,1246.29 1639.81,1248.62 1643.05,1250.89 1646.29,1253.12 1649.54,1255.3 1652.78,1257.43 1656.02,1259.5 1659.27,1261.53 1662.51,1263.51 1665.75,1265.44 1669,1267.32 1672.24,1269.15 1675.48,1270.93 1678.72,1272.66 1681.97,1274.33 1685.21,1275.96 1688.45,1277.53 1691.7,1279.06 1694.94,1280.53 1698.18,1281.95 1701.43,1283.31 1704.67,1284.63 1707.91,1285.89 1711.15,1287.1 1714.4,1288.26 1717.64,1289.37 1720.88,1290.42 1724.13,1291.42 1727.37,1292.37 1730.61,1293.27 1733.86,1294.11 1737.1,1294.9 1740.34,1295.63 1743.59,1296.32 1746.83,1296.94 1750.07,1297.52 1753.31,1298.04 1756.56,1298.51 1759.8,1298.93 1763.04,1299.29 1766.29,1299.6 1769.53,1299.85 1772.77,1300.05 1776.02,1300.2 1779.26,1300.29 1782.5,1300.33 1785.74,1300.32 1788.99,1300.25 1792.23,1300.13 1795.47,1299.95 1798.72,1299.73 1801.96,1299.44 1805.2,1299.11 1808.45,1298.72 1811.69,1298.27 1814.93,1297.78 1818.17,1297.23 1821.42,1296.62 1824.66,1295.97 1827.9,1295.26 1831.15,1294.49 1834.39,1293.68 1837.63,1292.81 1840.88,1291.88 1844.12,1290.91 1847.36,1289.88 1850.61,1288.8 1853.85,1287.66 1857.09,1286.48 1860.33,1285.24 1863.58,1283.95 1866.82,1282.61 1870.06,1281.21 1873.31,1279.77 1876.55,1278.27 1879.79,1276.72 1883.04,1275.12 1886.28,1273.46 1889.52,1271.76 1892.76,1270.01 1896.01,1268.2 1899.25,1266.35 1902.49,1264.44 1905.74,1262.49 1908.98,1260.48 1912.22,1258.42 1915.47,1256.32 1918.71,1254.17 1921.95,1251.96 1925.19,1249.71 1928.44,1247.41 1931.68,1245.06 1934.92,1242.66 1938.17,1240.22 1941.41,1237.72 1944.65,1235.18 1947.9,1232.59 1951.14,1229.96 1954.38,1227.28 1957.63,1224.55 1960.87,1221.78 1964.11,1218.96 1967.35,1216.09 1970.6,1213.18 1973.84,1210.22 1977.08,1207.22 1980.33,1204.18 1983.57,1201.09 1986.81,1197.96 1990.06,1194.78 1993.3,1191.56 1996.54,1188.3 1999.78,1184.99 2003.03,1181.65 2006.27,1178.26 2009.51,1174.83 2012.76,1171.36 2016,1167.84 2019.24,1164.29 2022.49,1160.7 2025.73,1157.07 2028.97,1153.39 2032.21,1149.68 2035.46,1145.93 2038.7,1142.14 2041.94,1138.32 2045.19,1134.45 2048.43,1130.55 2051.67,1126.62 2054.92,1122.64 2058.16,1118.63 2061.4,1114.59 2064.65,1110.51 2067.89,1106.39 2071.13,1102.24 2074.37,1098.06 2077.62,1093.84 2080.86,1089.59 2084.1,1085.31 2087.35,1080.99 2090.59,1076.65 2093.83,1072.27 2097.08,1067.86 2100.32,1063.42 2103.56,1058.95 2106.8,1054.45 2110.05,1049.93 2113.29,1045.37 2116.53,1040.78 2119.78,1036.17 2123.02,1031.53 2126.26,1026.86 2129.51,1022.17 2132.75,1017.45 2135.99,1012.71 2139.23,1007.94 2142.48,1003.14 2145.72,998.325 2148.96,993.483 2152.21,988.619 2155.45,983.731 2158.69,978.822 2161.94,973.891 2165.18,968.939 2168.42,963.967 2171.67,958.974 2174.91,953.962 2178.15,948.931 2181.39,943.881 2184.64,938.813 2187.88,933.728 2191.12,928.625 2194.37,923.506 2197.61,918.371 2200.85,913.22 2204.1,908.055 2207.34,902.874 2210.58,897.68 2213.82,892.473 2217.07,887.252 2220.31,882.019 2223.55,876.774 2226.8,871.518 2230.04,866.251 2233.28,860.974 2236.53,855.687 2239.77,850.39 2243.01,845.085 2246.25,839.772 2249.5,834.451 2252.74,829.123 2255.98,823.788 2259.23,818.447 2262.47,813.101 2265.71,807.749 2268.96,802.394 2272.2,797.034 2275.44,791.671 2278.69,786.305 2281.93,780.937 2285.17,775.567 2288.41,770.195 2291.66,764.823 "/>
<circle clip-path="url(#clip791)" cx="1724.13" cy="1303.12" r="14.4" fill="#e26f46" fill-rule="evenodd" fill-opacity="1" stroke="#000000" stroke-opacity="1" stroke-width="3.2"/>
<circle clip-path="url(#clip791)" cx="735.003" cy="329.094" r="14.4" fill="#e26f46" fill-rule="evenodd" fill-opacity="1" stroke="#000000" stroke-opacity="1" stroke-width="3.2"/>
<circle clip-path="url(#clip791)" cx="1477.66" cy="1165.83" r="14.4" fill="#e26f46" fill-rule="evenodd" fill-opacity="1" stroke="#000000" stroke-opacity="1" stroke-width="3.2"/>
<circle clip-path="url(#clip791)" cx="1493.87" cy="1075.26" r="14.4" fill="#e26f46" fill-rule="evenodd" fill-opacity="1" stroke="#000000" stroke-opacity="1" stroke-width="3.2"/>
<circle clip-path="url(#clip791)" cx="854.995" cy="372.761" r="14.4" fill="#e26f46" fill-rule="evenodd" fill-opacity="1" stroke="#000000" stroke-opacity="1" stroke-width="3.2"/>
<circle clip-path="url(#clip791)" cx="1390.1" cy="881.679" r="14.4" fill="#e26f46" fill-rule="evenodd" fill-opacity="1" stroke="#000000" stroke-opacity="1" stroke-width="3.2"/>
<circle clip-path="url(#clip791)" cx="514.477" cy="270.321" r="14.4" fill="#e26f46" fill-rule="evenodd" fill-opacity="1" stroke="#000000" stroke-opacity="1" stroke-width="3.2"/>
<circle clip-path="url(#clip791)" cx="540.421" cy="362.147" r="14.4" fill="#e26f46" fill-rule="evenodd" fill-opacity="1" stroke="#000000" stroke-opacity="1" stroke-width="3.2"/>
<circle clip-path="url(#clip791)" cx="2071.13" cy="1069.2" r="14.4" fill="#e26f46" fill-rule="evenodd" fill-opacity="1" stroke="#000000" stroke-opacity="1" stroke-width="3.2"/>
<circle clip-path="url(#clip791)" cx="1918.71" cy="1205.43" r="14.4" fill="#e26f46" fill-rule="evenodd" fill-opacity="1" stroke="#000000" stroke-opacity="1" stroke-width="3.2"/>
<circle clip-path="url(#clip791)" cx="2090.59" cy="1113.68" r="14.4" fill="#e26f46" fill-rule="evenodd" fill-opacity="1" stroke="#000000" stroke-opacity="1" stroke-width="3.2"/>
<circle clip-path="url(#clip791)" cx="1354.42" cy="794.222" r="14.4" fill="#e26f46" fill-rule="evenodd" fill-opacity="1" stroke="#000000" stroke-opacity="1" stroke-width="3.2"/>
<circle clip-path="url(#clip791)" cx="1493.87" cy="983.994" r="14.4" fill="#e26f46" fill-rule="evenodd" fill-opacity="1" stroke="#000000" stroke-opacity="1" stroke-width="3.2"/>
<circle clip-path="url(#clip791)" cx="952.286" cy="316.513" r="14.4" fill="#e26f46" fill-rule="evenodd" fill-opacity="1" stroke="#000000" stroke-opacity="1" stroke-width="3.2"/>
<circle clip-path="url(#clip791)" cx="1960.87" cy="1283.26" r="14.4" fill="#e26f46" fill-rule="evenodd" fill-opacity="1" stroke="#000000" stroke-opacity="1" stroke-width="3.2"/>
<circle clip-path="url(#clip791)" cx="1448.47" cy="974.848" r="14.4" fill="#e26f46" fill-rule="evenodd" fill-opacity="1" stroke="#000000" stroke-opacity="1" stroke-width="3.2"/>
<circle clip-path="url(#clip791)" cx="1328.48" cy="723.436" r="14.4" fill="#e26f46" fill-rule="evenodd" fill-opacity="1" stroke="#000000" stroke-opacity="1" stroke-width="3.2"/>
<circle clip-path="url(#clip791)" cx="546.907" cy="262.809" r="14.4" fill="#e26f46" fill-rule="evenodd" fill-opacity="1" stroke="#000000" stroke-opacity="1" stroke-width="3.2"/>
<circle clip-path="url(#clip791)" cx="1357.66" cy="811.642" r="14.4" fill="#e26f46" fill-rule="evenodd" fill-opacity="1" stroke="#000000" stroke-opacity="1" stroke-width="3.2"/>
<circle clip-path="url(#clip791)" cx="1766.29" cy="1283.84" r="14.4" fill="#e26f46" fill-rule="evenodd" fill-opacity="1" stroke="#000000" stroke-opacity="1" stroke-width="3.2"/>
<path clip-path="url(#clip791)" d="M255.035 997.303 L258.278 993.049 L261.521 988.743 L264.764 984.384 L268.007 979.971 L271.25 975.505 L274.493 970.985 L277.736 966.41 L280.979 961.781 L284.222 957.097 L287.465 952.358 L290.708 947.563 L293.951 942.713 L297.194 937.807 L300.437 932.846 L303.68 927.828 L306.923 922.753 L310.166 917.623 L313.409 912.436 L316.652 907.193 L319.895 901.894 L323.138 896.538 L326.381 891.125 L329.624 885.657 L332.867 880.133 L336.11 874.552 L339.353 868.917 L342.596 863.226 L345.84 857.48 L349.083 851.679 L352.326 845.825 L355.569 839.917 L358.812 833.956 L362.055 827.942 L365.298 821.878 L368.541 815.762 L371.784 809.597 L375.027 803.383 L378.27 797.121 L381.513 790.814 L384.756 784.46 L387.999 778.064 L391.242 771.625 L394.485 765.146 L397.728 758.628 L400.971 752.073 L404.214 745.485 L407.457 738.864 L410.7 732.214 L413.943 725.537 L417.186 718.837 L420.429 712.115 L423.672 705.377 L426.915 698.626 L430.158 691.864 L433.401 685.098 L436.644 678.332 L439.887 671.57 L443.13 664.818 L446.373 658.081 L449.616 651.367 L452.859 644.681 L456.103 638.031 L459.346 631.425 L462.589 624.87 L465.832 618.376 L469.075 611.953 L472.318 605.61 L475.561 599.359 L478.804 593.211 L482.047 587.179 L485.29 581.276 L488.533 575.516 L491.776 569.913 L495.019 564.484 L498.262 559.246 L501.505 554.214 L504.748 549.408 L507.991 544.844 L511.234 540.543 L514.477 536.524 L517.72 532.802 L520.963 529.386 L524.206 526.28 L527.449 523.489 L530.692 521.017 L533.935 518.867 L537.178 517.043 L540.421 515.547 L543.664 514.379 L546.907 513.532 L550.15 512.997 L553.393 512.754 L556.636 512.78 L559.879 513.053 L563.122 513.55 L566.366 514.25 L569.609 515.131 L572.852 516.174 L576.095 517.357 L579.338 518.662 L582.581 520.072 L585.824 521.569 L589.067 523.138 L592.31 524.763 L595.553 526.432 L598.796 528.131 L602.039 529.849 L605.282 531.575 L608.525 533.298 L611.768 535.011 L615.011 536.704 L618.254 538.371 L621.497 540.004 L624.74 541.598 L627.983 543.147 L631.226 544.647 L634.469 546.093 L637.712 547.483 L640.955 548.812 L644.198 550.079 L647.441 551.281 L650.684 552.418 L653.927 553.488 L657.17 554.491 L660.413 555.426 L663.656 556.295 L666.899 557.098 L670.142 557.836 L673.385 558.511 L676.629 559.125 L679.872 559.68 L683.115 560.179 L686.358 560.626 L689.601 561.024 L692.844 561.377 L696.087 561.689 L699.33 561.965 L702.573 562.21 L705.816 562.43 L709.059 562.629 L712.302 562.815 L715.545 562.993 L718.788 563.17 L722.031 563.353 L725.274 563.548 L728.517 563.762 L731.76 564.004 L735.003 564.28 L738.246 564.595 L741.489 564.947 L744.732 565.33 L747.975 565.74 L751.218 566.172 L754.461 566.621 L757.704 567.084 L760.947 567.555 L764.19 568.032 L767.433 568.51 L770.676 568.986 L773.919 569.458 L777.162 569.922 L780.405 570.378 L783.648 570.824 L786.892 571.258 L790.135 571.679 L793.378 572.088 L796.621 572.484 L799.864 572.869 L803.107 573.244 L806.35 573.61 L809.593 573.97 L812.836 574.326 L816.079 574.682 L819.322 575.041 L822.565 575.408 L825.808 575.788 L829.051 576.185 L832.294 576.606 L835.537 577.056 L838.78 577.542 L842.023 578.07 L845.266 578.649 L848.509 579.286 L851.752 579.988 L854.995 580.763 L858.238 581.618 L861.481 582.552 L864.724 583.563 L867.967 584.647 L871.21 585.804 L874.453 587.031 L877.696 588.328 L880.939 589.692 L884.182 591.123 L887.425 592.621 L890.668 594.187 L893.911 595.82 L897.155 597.523 L900.398 599.296 L903.641 601.142 L906.884 603.063 L910.127 605.063 L913.37 607.144 L916.613 609.312 L919.856 611.57 L923.099 613.923 L926.342 616.376 L929.585 618.935 L932.828 621.606 L936.071 624.395 L939.314 627.308 L942.557 630.352 L945.8 633.533 L949.043 636.859 L952.286 640.337 L955.529 643.97 L958.772 647.751 L962.015 651.67 L965.258 655.718 L968.501 659.884 L971.744 664.159 L974.987 668.533 L978.23 672.998 L981.473 677.544 L984.716 682.162 L987.959 686.844 L991.202 691.582 L994.445 696.369 L997.688 701.196 L1000.93 706.056 L1004.17 710.943 L1007.42 715.851 L1010.66 720.772 L1013.9 725.701 L1017.15 730.632 L1020.39 735.56 L1023.63 740.479 L1026.88 745.386 L1030.12 750.274 L1033.36 755.141 L1036.6 759.981 L1039.85 764.791 L1043.09 769.567 L1046.33 774.305 L1049.58 779.003 L1052.82 783.657 L1056.06 788.265 L1059.31 792.822 L1062.55 797.328 L1065.79 801.779 L1069.04 806.173 L1072.28 810.508 L1075.52 814.782 L1078.76 818.993 L1082.01 823.139 L1085.25 827.219 L1088.49 831.231 L1091.74 835.173 L1094.98 839.044 L1098.22 842.844 L1101.47 846.57 L1104.71 850.222 L1107.95 853.798 L1111.19 857.299 L1114.44 860.723 L1117.68 864.068 L1120.92 867.336 L1124.17 870.525 L1127.41 873.634 L1130.65 876.664 L1133.9 879.613 L1137.14 882.482 L1140.38 885.271 L1143.62 887.978 L1146.87 890.605 L1150.11 893.151 L1153.35 895.615 L1156.6 897.999 L1159.84 900.303 L1163.08 902.526 L1166.33 904.669 L1169.57 906.733 L1172.81 908.718 L1176.06 910.623 L1179.3 912.451 L1182.54 914.202 L1185.78 915.876 L1189.03 917.474 L1192.27 918.997 L1195.51 920.447 L1198.76 921.824 L1202 923.13 L1205.24 924.365 L1208.49 925.532 L1211.73 926.631 L1214.97 927.665 L1218.21 928.635 L1221.46 929.543 L1224.7 930.392 L1227.94 931.182 L1231.19 931.918 L1234.43 932.6 L1237.67 933.232 L1240.92 933.817 L1244.16 934.357 L1247.4 934.857 L1250.64 935.319 L1253.89 935.747 L1257.13 936.145 L1260.37 936.518 L1263.62 936.87 L1266.86 937.206 L1270.1 937.531 L1273.35 937.851 L1276.59 938.172 L1279.83 938.499 L1283.08 938.841 L1286.32 939.205 L1289.56 939.597 L1292.8 940.027 L1296.05 940.503 L1299.29 941.035 L1302.53 941.633 L1305.78 942.308 L1309.02 943.07 L1312.26 943.933 L1315.51 944.908 L1318.75 946.009 L1321.99 947.25 L1325.23 948.645 L1328.48 950.209 L1331.72 951.956 L1334.96 953.891 L1338.21 956.018 L1341.45 958.342 L1344.69 960.868 L1347.94 963.599 L1351.18 966.541 L1354.42 969.699 L1357.66 973.075 L1360.91 976.666 L1364.15 980.458 L1367.39 984.44 L1370.64 988.597 L1373.88 992.916 L1377.12 997.385 L1380.37 1001.99 L1383.61 1006.73 L1386.85 1011.57 L1390.1 1016.53 L1393.34 1021.58 L1396.58 1026.71 L1399.82 1031.91 L1403.07 1037.16 L1406.31 1042.46 L1409.55 1047.79 L1412.8 1053.14 L1416.04 1058.51 L1419.28 1063.89 L1422.53 1069.28 L1425.77 1074.67 L1429.01 1080.05 L1432.25 1085.45 L1435.5 1090.84 L1438.74 1096.24 L1441.98 1101.64 L1445.23 1107.07 L1448.47 1112.51 L1451.71 1117.98 L1454.96 1123.48 L1458.2 1129.02 L1461.44 1134.58 L1464.68 1140.18 L1467.93 1145.82 L1471.17 1151.51 L1474.41 1157.25 L1477.66 1163.04 L1480.9 1168.88 L1484.14 1174.79 L1487.39 1180.77 L1490.63 1186.82 L1493.87 1192.94 L1497.11 1199.14 L1500.36 1205.4 L1503.6 1211.72 L1506.84 1218.08 L1510.09 1224.46 L1513.33 1230.85 L1516.57 1237.24 L1519.82 1243.63 L1523.06 1249.98 L1526.3 1256.31 L1529.55 1262.59 L1532.79 1268.81 L1536.03 1274.98 L1539.27 1281.07 L1542.52 1287.09 L1545.76 1293.03 L1549 1298.87 L1552.25 1304.62 L1555.49 1310.26 L1558.73 1315.8 L1561.98 1321.23 L1565.22 1326.54 L1568.46 1331.74 L1571.7 1336.82 L1574.95 1341.77 L1578.19 1346.59 L1581.43 1351.28 L1584.68 1355.85 L1587.92 1360.28 L1591.16 1364.57 L1594.41 1368.73 L1597.65 1372.75 L1600.89 1376.64 L1604.13 1380.39 L1607.38 1384 L1610.62 1387.47 L1613.86 1390.8 L1617.11 1393.99 L1620.35 1397.05 L1623.59 1399.97 L1626.84 1402.75 L1630.08 1405.39 L1633.32 1407.91 L1636.57 1410.28 L1639.81 1412.53 L1643.05 1414.65 L1646.29 1416.64 L1649.54 1418.51 L1652.78 1420.25 L1656.02 1421.87 L1659.27 1423.38 L1662.51 1424.77 L1665.75 1426.05 L1669 1427.23 L1672.24 1428.3 L1675.48 1429.28 L1678.72 1430.16 L1681.97 1430.96 L1685.21 1431.67 L1688.45 1432.31 L1691.7 1432.88 L1694.94 1433.38 L1698.18 1433.82 L1701.43 1434.22 L1704.67 1434.57 L1707.91 1434.88 L1711.15 1435.16 L1714.4 1435.43 L1717.64 1435.68 L1720.88 1435.93 L1724.13 1436.18 L1727.37 1436.45 L1730.61 1436.72 L1733.86 1437.01 L1737.1 1437.31 L1740.34 1437.63 L1743.59 1437.97 L1746.83 1438.32 L1750.07 1438.69 L1753.31 1439.07 L1756.56 1439.48 L1759.8 1439.9 L1763.04 1440.34 L1766.29 1440.8 L1769.53 1441.27 L1772.77 1441.76 L1776.02 1442.25 L1779.26 1442.74 L1782.5 1443.21 L1785.74 1443.67 L1788.99 1444.09 L1792.23 1444.48 L1795.47 1444.83 L1798.72 1445.13 L1801.96 1445.37 L1805.2 1445.55 L1808.45 1445.67 L1811.69 1445.72 L1814.93 1445.69 L1818.17 1445.57 L1821.42 1445.38 L1824.66 1445.1 L1827.9 1444.73 L1831.15 1444.27 L1834.39 1443.72 L1837.63 1443.07 L1840.88 1442.32 L1844.12 1441.48 L1847.36 1440.54 L1850.61 1439.51 L1853.85 1438.38 L1857.09 1437.15 L1860.33 1435.83 L1863.58 1434.43 L1866.82 1432.93 L1870.06 1431.34 L1873.31 1429.68 L1876.55 1427.93 L1879.79 1426.11 L1883.04 1424.22 L1886.28 1422.27 L1889.52 1420.25 L1892.76 1418.18 L1896.01 1416.06 L1899.25 1413.9 L1902.49 1411.71 L1905.74 1409.49 L1908.98 1407.24 L1912.22 1404.99 L1915.47 1402.73 L1918.71 1400.48 L1921.95 1398.24 L1925.19 1396.01 L1928.44 1393.78 L1931.68 1391.57 L1934.92 1389.36 L1938.17 1387.15 L1941.41 1384.95 L1944.65 1382.75 L1947.9 1380.56 L1951.14 1378.36 L1954.38 1376.17 L1957.63 1373.97 L1960.87 1371.78 L1964.11 1369.58 L1967.35 1367.38 L1970.6 1365.17 L1973.84 1362.95 L1977.08 1360.72 L1980.33 1358.46 L1983.57 1356.18 L1986.81 1353.88 L1990.06 1351.55 L1993.3 1349.19 L1996.54 1346.81 L1999.78 1344.4 L2003.03 1341.96 L2006.27 1339.49 L2009.51 1337 L2012.76 1334.5 L2016 1331.97 L2019.24 1329.44 L2022.49 1326.9 L2025.73 1324.36 L2028.97 1321.83 L2032.21 1319.31 L2035.46 1316.82 L2038.7 1314.36 L2041.94 1311.95 L2045.19 1309.59 L2048.43 1307.3 L2051.67 1305.08 L2054.92 1302.96 L2058.16 1300.94 L2061.4 1299.03 L2064.65 1297.26 L2067.89 1295.62 L2071.13 1294.15 L2074.37 1292.84 L2077.62 1291.7 L2080.86 1290.74 L2084.1 1289.95 L2087.35 1289.32 L2090.59 1288.87 L2093.83 1288.59 L2097.08 1288.48 L2100.32 1288.51 L2103.56 1288.69 L2106.8 1288.99 L2110.05 1289.42 L2113.29 1289.96 L2116.53 1290.6 L2119.78 1291.34 L2123.02 1292.16 L2126.26 1293.06 L2129.51 1294.03 L2132.75 1295.06 L2135.99 1296.14 L2139.23 1297.27 L2142.48 1298.44 L2145.72 1299.65 L2148.96 1300.89 L2152.21 1302.16 L2155.45 1303.44 L2158.69 1304.74 L2161.94 1306.06 L2165.18 1307.38 L2168.42 1308.71 L2171.67 1310.04 L2174.91 1311.37 L2178.15 1312.7 L2181.39 1314.01 L2184.64 1315.33 L2187.88 1316.63 L2191.12 1317.92 L2194.37 1319.19 L2197.61 1320.45 L2200.85 1321.69 L2204.1 1322.91 L2207.34 1324.12 L2210.58 1325.3 L2213.82 1326.46 L2217.07 1327.6 L2220.31 1328.72 L2223.55 1329.81 L2226.8 1330.88 L2230.04 1331.92 L2233.28 1332.94 L2236.53 1333.94 L2239.77 1334.9 L2243.01 1335.84 L2246.25 1336.76 L2249.5 1337.65 L2252.74 1338.51 L2255.98 1339.35 L2259.23 1340.16 L2262.47 1340.94 L2265.71 1341.7 L2268.96 1342.44 L2272.2 1343.14 L2275.44 1343.82 L2278.69 1344.48 L2281.93 1345.11 L2285.17 1345.71 L2288.41 1346.29 L2291.66 1346.85 L2291.66 516.228 L2288.41 520.743 L2285.17 525.318 L2281.93 529.953 L2278.69 534.649 L2275.44 539.406 L2272.2 544.224 L2268.96 549.103 L2265.71 554.044 L2262.47 559.047 L2259.23 564.111 L2255.98 569.236 L2252.74 574.424 L2249.5 579.673 L2246.25 584.984 L2243.01 590.355 L2239.77 595.788 L2236.53 601.282 L2233.28 606.836 L2230.04 612.45 L2226.8 618.124 L2223.55 623.856 L2220.31 629.647 L2217.07 635.494 L2213.82 641.399 L2210.58 647.358 L2207.34 653.372 L2204.1 659.439 L2200.85 665.558 L2197.61 671.727 L2194.37 677.944 L2191.12 684.208 L2187.88 690.517 L2184.64 696.868 L2181.39 703.26 L2178.15 709.689 L2174.91 716.152 L2171.67 722.648 L2168.42 729.172 L2165.18 735.72 L2161.94 742.29 L2158.69 748.877 L2155.45 755.476 L2152.21 762.083 L2148.96 768.692 L2145.72 775.298 L2142.48 781.896 L2139.23 788.478 L2135.99 795.039 L2132.75 801.571 L2129.51 808.066 L2126.26 814.516 L2123.02 820.914 L2119.78 827.249 L2116.53 833.513 L2113.29 839.695 L2110.05 845.786 L2106.8 851.774 L2103.56 857.65 L2100.32 863.4 L2097.08 869.015 L2093.83 874.483 L2090.59 879.791 L2087.35 884.93 L2084.1 889.9 L2080.86 894.702 L2077.62 899.336 L2074.37 903.805 L2071.13 908.11 L2067.89 912.256 L2064.65 916.251 L2061.4 920.106 L2058.16 923.833 L2054.92 927.442 L2051.67 930.944 L2048.43 934.349 L2045.19 937.667 L2041.94 940.907 L2038.7 944.078 L2035.46 947.188 L2032.21 950.243 L2028.97 953.251 L2025.73 956.216 L2022.49 959.144 L2019.24 962.039 L2016 964.902 L2012.76 967.737 L2009.51 970.545 L2006.27 973.325 L2003.03 976.078 L1999.78 978.801 L1996.54 981.493 L1993.3 984.15 L1990.06 986.768 L1986.81 989.343 L1983.57 991.869 L1980.33 994.339 L1977.08 996.748 L1973.84 999.086 L1970.6 1001.35 L1967.35 1003.52 L1964.11 1005.6 L1960.87 1007.57 L1957.63 1009.43 L1954.38 1011.17 L1951.14 1012.81 L1947.9 1014.35 L1944.65 1015.79 L1941.41 1017.12 L1938.17 1018.37 L1934.92 1019.52 L1931.68 1020.58 L1928.44 1021.55 L1925.19 1022.44 L1921.95 1023.24 L1918.71 1023.95 L1915.47 1024.58 L1912.22 1025.13 L1908.98 1025.63 L1905.74 1026.06 L1902.49 1026.45 L1899.25 1026.8 L1896.01 1027.13 L1892.76 1027.43 L1889.52 1027.72 L1886.28 1028 L1883.04 1028.28 L1879.79 1028.57 L1876.55 1028.87 L1873.31 1029.18 L1870.06 1029.52 L1866.82 1029.87 L1863.58 1030.26 L1860.33 1030.67 L1857.09 1031.12 L1853.85 1031.6 L1850.61 1032.11 L1847.36 1032.65 L1844.12 1033.23 L1840.88 1033.85 L1837.63 1034.49 L1834.39 1035.17 L1831.15 1035.88 L1827.9 1036.61 L1824.66 1037.36 L1821.42 1038.13 L1818.17 1038.91 L1814.93 1039.7 L1811.69 1040.5 L1808.45 1041.28 L1805.2 1042.06 L1801.96 1042.82 L1798.72 1043.56 L1795.47 1044.26 L1792.23 1044.92 L1788.99 1045.52 L1785.74 1046.06 L1782.5 1046.52 L1779.26 1046.9 L1776.02 1047.19 L1772.77 1047.36 L1769.53 1047.42 L1766.29 1047.34 L1763.04 1047.12 L1759.8 1046.75 L1756.56 1046.24 L1753.31 1045.59 L1750.07 1044.79 L1746.83 1043.84 L1743.59 1042.75 L1740.34 1041.51 L1737.1 1040.12 L1733.86 1038.58 L1730.61 1036.89 L1727.37 1035.05 L1724.13 1033.06 L1720.88 1030.92 L1717.64 1028.64 L1714.4 1026.22 L1711.15 1023.69 L1707.91 1021.06 L1704.67 1018.34 L1701.43 1015.53 L1698.18 1012.66 L1694.94 1009.73 L1691.7 1006.75 L1688.45 1003.73 L1685.21 1000.69 L1681.97 997.621 L1678.72 994.545 L1675.48 991.466 L1672.24 988.392 L1669 985.33 L1665.75 982.287 L1662.51 979.269 L1659.27 976.282 L1656.02 973.332 L1652.78 970.423 L1649.54 967.56 L1646.29 964.749 L1643.05 961.991 L1639.81 959.292 L1636.57 956.655 L1633.32 954.082 L1630.08 951.576 L1626.84 949.139 L1623.59 946.773 L1620.35 944.481 L1617.11 942.262 L1613.86 940.119 L1610.62 938.052 L1607.38 936.061 L1604.13 934.146 L1600.89 932.308 L1597.65 930.546 L1594.41 928.858 L1591.16 927.244 L1587.92 925.703 L1584.68 924.232 L1581.43 922.829 L1578.19 921.492 L1574.95 920.219 L1571.7 919.004 L1568.46 917.846 L1565.22 916.739 L1561.98 915.68 L1558.73 914.663 L1555.49 913.683 L1552.25 912.734 L1549 911.809 L1545.76 910.901 L1542.52 910.002 L1539.27 909.105 L1536.03 908.199 L1532.79 907.275 L1529.55 906.324 L1526.3 905.333 L1523.06 904.29 L1519.82 903.184 L1516.57 902.001 L1513.33 900.725 L1510.09 899.344 L1506.84 897.84 L1503.6 896.197 L1500.36 894.399 L1497.11 892.429 L1493.87 890.269 L1490.63 887.904 L1487.39 885.33 L1484.14 882.543 L1480.9 879.542 L1477.66 876.323 L1474.41 872.887 L1471.17 869.245 L1467.93 865.409 L1464.68 861.39 L1461.44 857.202 L1458.2 852.854 L1454.96 848.359 L1451.71 843.724 L1448.47 838.96 L1445.23 834.075 L1441.98 829.082 L1438.74 823.996 L1435.5 818.827 L1432.25 813.586 L1429.01 808.283 L1425.77 802.927 L1422.53 797.522 L1419.28 792.075 L1416.04 786.589 L1412.8 781.065 L1409.55 775.504 L1406.31 769.904 L1403.07 764.263 L1399.82 758.577 L1396.58 752.84 L1393.34 747.046 L1390.1 741.185 L1386.85 735.251 L1383.61 729.239 L1380.37 723.147 L1377.12 716.969 L1373.88 710.701 L1370.64 704.337 L1367.39 697.87 L1364.15 691.295 L1360.91 684.605 L1357.66 677.791 L1354.42 670.85 L1351.18 663.781 L1347.94 656.589 L1344.69 649.283 L1341.45 641.87 L1338.21 634.357 L1334.96 626.752 L1331.72 619.06 L1328.48 611.29 L1325.23 603.449 L1321.99 595.548 L1318.75 587.599 L1315.51 579.613 L1312.26 571.603 L1309.02 563.577 L1305.78 555.547 L1302.53 547.52 L1299.29 539.507 L1296.05 531.515 L1292.8 523.552 L1289.56 515.625 L1286.32 507.739 L1283.08 499.902 L1279.83 492.119 L1276.59 484.394 L1273.35 476.733 L1270.1 469.14 L1266.86 461.618 L1263.62 454.172 L1260.37 446.803 L1257.13 439.517 L1253.89 432.314 L1250.64 425.197 L1247.4 418.17 L1244.16 411.233 L1240.92 404.388 L1237.67 397.638 L1234.43 390.983 L1231.19 384.425 L1227.94 377.965 L1224.7 371.605 L1221.46 365.344 L1218.21 359.184 L1214.97 353.125 L1211.73 347.168 L1208.49 341.315 L1205.24 335.564 L1202 329.916 L1198.76 324.373 L1195.51 318.933 L1192.27 313.597 L1189.03 308.366 L1185.78 303.24 L1182.54 298.217 L1179.3 293.299 L1176.06 288.486 L1172.81 283.777 L1169.57 279.172 L1166.33 274.672 L1163.08 270.275 L1159.84 265.983 L1156.6 261.794 L1153.35 257.708 L1150.11 253.726 L1146.87 249.846 L1143.62 246.07 L1140.38 242.395 L1137.14 238.823 L1133.9 235.352 L1130.65 231.983 L1127.41 228.715 L1124.17 225.547 L1120.92 222.479 L1117.68 219.512 L1114.44 216.643 L1111.19 213.873 L1107.95 211.202 L1104.71 208.628 L1101.47 206.152 L1098.22 203.772 L1094.98 201.489 L1091.74 199.3 L1088.49 197.207 L1085.25 195.207 L1082.01 193.3 L1078.76 191.486 L1075.52 189.764 L1072.28 188.132 L1069.04 186.589 L1065.79 185.135 L1062.55 183.769 L1059.31 182.489 L1056.06 181.294 L1052.82 180.182 L1049.58 179.153 L1046.33 178.204 L1043.09 177.334 L1039.85 176.542 L1036.6 175.825 L1033.36 175.181 L1030.12 174.609 L1026.88 174.105 L1023.63 173.669 L1020.39 173.296 L1017.15 172.984 L1013.9 172.731 L1010.66 172.533 L1007.42 172.386 L1004.17 172.289 L1000.93 172.236 L997.688 172.224 L994.445 172.248 L991.202 172.305 L987.959 172.39 L984.716 172.499 L981.473 172.625 L978.23 172.765 L974.987 172.912 L971.744 173.062 L968.501 173.209 L965.258 173.347 L962.015 173.47 L958.772 173.573 L955.529 173.649 L952.286 173.693 L949.043 173.701 L945.8 173.673 L942.557 173.612 L939.314 173.52 L936.071 173.398 L932.828 173.25 L929.585 173.077 L926.342 172.882 L923.099 172.666 L919.856 172.431 L916.613 172.178 L913.37 171.909 L910.127 171.625 L906.884 171.326 L903.641 171.011 L900.398 170.682 L897.155 170.338 L893.911 169.977 L890.668 169.599 L887.425 169.201 L884.182 168.782 L880.939 168.339 L877.696 167.87 L874.453 167.372 L871.21 166.84 L867.967 166.272 L864.724 165.663 L861.481 165.01 L858.238 164.308 L854.995 163.553 L851.752 162.742 L848.509 161.88 L845.266 160.973 L842.023 160.028 L838.78 159.051 L835.537 158.047 L832.294 157.023 L829.051 155.983 L825.808 154.934 L822.565 153.878 L819.322 152.821 L816.079 151.767 L812.836 150.719 L809.593 149.68 L806.35 148.653 L803.107 147.64 L799.864 146.642 L796.621 145.662 L793.378 144.7 L790.135 143.757 L786.892 142.832 L783.648 141.926 L780.405 141.038 L777.162 140.167 L773.919 139.311 L770.676 138.468 L767.433 137.637 L764.19 136.814 L760.947 135.998 L757.704 135.186 L754.461 134.373 L751.218 133.557 L747.975 132.734 L744.732 131.9 L741.489 131.052 L738.246 130.186 L735.003 129.298 L731.76 128.385 L728.517 127.454 L725.274 126.51 L722.031 125.561 L718.788 124.613 L715.545 123.673 L712.302 122.748 L709.059 121.844 L705.816 120.967 L702.573 120.125 L699.33 119.321 L696.087 118.563 L692.844 117.855 L689.601 117.202 L686.358 116.61 L683.115 116.084 L679.872 115.626 L676.629 115.242 L673.385 114.936 L670.142 114.709 L666.899 114.567 L663.656 114.51 L660.413 114.543 L657.17 114.667 L653.927 114.883 L650.684 115.194 L647.441 115.601 L644.198 116.103 L640.955 116.702 L637.712 117.398 L634.469 118.19 L631.226 119.077 L627.983 120.058 L624.74 121.131 L621.497 122.294 L618.254 123.544 L615.011 124.877 L611.768 126.29 L608.525 127.779 L605.282 129.337 L602.039 130.958 L598.796 132.637 L595.553 134.365 L592.31 136.135 L589.067 137.936 L585.824 139.759 L582.581 141.593 L579.338 143.426 L576.095 145.245 L572.852 147.037 L569.609 148.786 L566.366 150.478 L563.122 152.096 L559.879 153.625 L556.636 155.046 L553.393 156.343 L550.15 157.498 L546.907 158.494 L543.664 159.316 L540.421 159.952 L537.178 160.396 L533.935 160.647 L530.692 160.71 L527.449 160.587 L524.206 160.284 L520.963 159.807 L517.72 159.161 L514.477 158.354 L511.234 157.394 L507.991 156.292 L504.748 155.063 L501.505 153.719 L498.262 152.273 L495.019 150.739 L491.776 149.127 L488.533 147.45 L485.29 145.718 L482.047 143.942 L478.804 142.13 L475.561 140.292 L472.318 138.437 L469.075 136.57 L465.832 134.7 L462.589 132.833 L459.346 130.974 L456.103 129.128 L452.859 127.3 L449.616 125.495 L446.373 123.716 L443.13 121.967 L439.887 120.25 L436.644 118.568 L433.401 116.923 L430.158 115.319 L426.915 113.755 L423.672 112.235 L420.429 110.758 L417.186 109.328 L413.943 107.943 L410.7 106.605 L407.457 105.315 L404.214 104.073 L400.971 102.88 L397.728 101.735 L394.485 100.639 L391.242 99.5909 L387.999 98.5919 L384.756 97.6413 L381.513 96.7388 L378.27 95.8842 L375.027 95.0771 L371.784 94.3169 L368.541 93.6034 L365.298 92.9358 L362.055 92.3137 L358.812 91.7365 L355.569 91.2035 L352.326 90.7141 L349.083 90.2676 L345.84 89.8633 L342.596 89.5005 L339.353 89.1784 L336.11 88.8963 L332.867 88.6534 L329.624 88.449 L326.381 88.2822 L323.138 88.1524 L319.895 88.0586 L316.652 88.0002 L313.409 87.9763 L310.166 87.9861 L306.923 88.0288 L303.68 88.1037 L300.437 88.2099 L297.194 88.3468 L293.951 88.5133 L290.708 88.709 L287.465 88.9328 L284.222 89.1842 L280.979 89.4622 L277.736 89.7663 L274.493 90.0956 L271.25 90.4494 L268.007 90.8269 L264.764 91.2276 L261.521 91.6506 L258.278 92.0952 L255.035 92.5609  Z" fill="#3da44d" fill-rule="evenodd" fill-opacity="0.1"/>
<polyline clip-path="url(#clip791)" style="stroke:#3da44d; stroke-linecap:round; stroke-linejoin:round; stroke-width:8; stroke-opacity:1; fill:none" points="255.035,544.932 258.278,542.572 261.521,540.197 264.764,537.806 268.007,535.399 271.25,532.977 274.493,530.54 277.736,528.088 280.979,525.622 284.222,523.141 287.465,520.645 290.708,518.136 293.951,515.613 297.194,513.077 300.437,510.528 303.68,507.966 306.923,505.391 310.166,502.805 313.409,500.206 316.652,497.597 319.895,494.976 323.138,492.345 326.381,489.704 329.624,487.053 332.867,484.393 336.11,481.724 339.353,479.048 342.596,476.363 345.84,473.671 349.083,470.973 352.326,468.269 355.569,465.56 358.812,462.846 362.055,460.128 365.298,457.407 368.541,454.683 371.784,451.957 375.027,449.23 378.27,446.503 381.513,443.776 384.756,441.051 387.999,438.328 391.242,435.608 394.485,432.892 397.728,430.181 400.971,427.477 404.214,424.779 407.457,422.09 410.7,419.41 413.943,416.74 417.186,414.082 420.429,411.437 423.672,408.806 426.915,406.19 430.158,403.592 433.401,401.011 436.644,398.45 439.887,395.91 443.13,393.392 446.373,390.899 449.616,388.431 452.859,385.991 456.103,383.579 459.346,381.199 462.589,378.851 465.832,376.538 469.075,374.262 472.318,372.023 475.561,369.826 478.804,367.671 482.047,365.56 485.29,363.497 488.533,361.483 491.776,359.52 495.019,357.612 498.262,355.76 501.505,353.967 504.748,352.235 507.991,350.568 511.234,348.969 514.477,347.439 517.72,345.982 520.963,344.596 524.206,343.282 527.449,342.038 530.692,340.863 533.935,339.757 537.178,338.72 540.421,337.75 543.664,336.847 546.907,336.013 550.15,335.247 553.393,334.548 556.636,333.913 559.879,333.339 563.122,332.823 566.366,332.364 569.609,331.959 572.852,331.605 576.095,331.301 579.338,331.044 582.581,330.832 585.824,330.664 589.067,330.537 592.31,330.449 595.553,330.399 598.796,330.384 602.039,330.404 605.282,330.456 608.525,330.538 611.768,330.651 615.011,330.791 618.254,330.957 621.497,331.149 624.74,331.365 627.983,331.603 631.226,331.862 634.469,332.141 637.712,332.44 640.955,332.757 644.198,333.091 647.441,333.441 650.684,333.806 653.927,334.186 657.17,334.579 660.413,334.985 663.656,335.403 666.899,335.832 670.142,336.273 673.385,336.723 676.629,337.184 679.872,337.653 683.115,338.132 686.358,338.618 689.601,339.113 692.844,339.616 696.087,340.126 699.33,340.643 702.573,341.167 705.816,341.699 709.059,342.237 712.302,342.782 715.545,343.333 718.788,343.892 722.031,344.457 725.274,345.029 728.517,345.608 731.76,346.195 735.003,346.789 738.246,347.391 741.489,348 744.732,348.615 747.975,349.237 751.218,349.865 754.461,350.497 757.704,351.135 760.947,351.777 764.19,352.423 767.433,353.073 770.676,353.727 773.919,354.384 777.162,355.045 780.405,355.708 783.648,356.375 786.892,357.045 790.135,357.718 793.378,358.394 796.621,359.073 799.864,359.756 803.107,360.442 806.35,361.131 809.593,361.825 812.836,362.523 816.079,363.225 819.322,363.931 822.565,364.643 825.808,365.361 829.051,366.084 832.294,366.814 835.537,367.551 838.78,368.296 842.023,369.049 845.266,369.811 848.509,370.583 851.752,371.365 854.995,372.158 858.238,372.963 861.481,373.781 864.724,374.613 867.967,375.46 871.21,376.322 874.453,377.201 877.696,378.099 880.939,379.015 884.182,379.952 887.425,380.911 890.668,381.893 893.911,382.899 897.155,383.93 900.398,384.989 903.641,386.077 906.884,387.194 910.127,388.344 913.37,389.527 916.613,390.745 919.856,392 923.099,393.294 926.342,394.629 929.585,396.006 932.828,397.428 936.071,398.897 939.314,400.414 942.557,401.982 945.8,403.603 949.043,405.28 952.286,407.015 955.529,408.809 958.772,410.662 962.015,412.57 965.258,414.532 968.501,416.546 971.744,418.611 974.987,420.723 978.23,422.881 981.473,425.084 984.716,427.33 987.959,429.617 991.202,431.944 994.445,434.308 997.688,436.71 1000.93,439.146 1004.17,441.616 1007.42,444.119 1010.66,446.652 1013.9,449.216 1017.15,451.808 1020.39,454.428 1023.63,457.074 1026.88,459.745 1030.12,462.441 1033.36,465.161 1036.6,467.903 1039.85,470.666 1043.09,473.45 1046.33,476.255 1049.58,479.078 1052.82,481.92 1056.06,484.779 1059.31,487.656 1062.55,490.549 1065.79,493.457 1069.04,496.381 1072.28,499.32 1075.52,502.273 1078.76,505.24 1082.01,508.22 1085.25,511.213 1088.49,514.219 1091.74,517.237 1094.98,520.266 1098.22,523.308 1101.47,526.361 1104.71,529.425 1107.95,532.5 1111.19,535.586 1114.44,538.683 1117.68,541.79 1120.92,544.908 1124.17,548.036 1127.41,551.174 1130.65,554.323 1133.9,557.483 1137.14,560.653 1140.38,563.833 1143.62,567.024 1146.87,570.226 1150.11,573.438 1153.35,576.662 1156.6,579.897 1159.84,583.143 1163.08,586.401 1166.33,589.671 1169.57,592.953 1172.81,596.247 1176.06,599.555 1179.3,602.875 1182.54,606.209 1185.78,609.558 1189.03,612.92 1192.27,616.297 1195.51,619.69 1198.76,623.098 1202,626.523 1205.24,629.964 1208.49,633.423 1211.73,636.9 1214.97,640.395 1218.21,643.909 1221.46,647.444 1224.7,650.998 1227.94,654.574 1231.19,658.171 1234.43,661.792 1237.67,665.435 1240.92,669.103 1244.16,672.795 1247.4,676.513 1250.64,680.258 1253.89,684.03 1257.13,687.831 1260.37,691.661 1263.62,695.521 1266.86,699.412 1270.1,703.335 1273.35,707.292 1276.59,711.283 1279.83,715.309 1283.08,719.372 1286.32,723.472 1289.56,727.611 1292.8,731.789 1296.05,736.009 1299.29,740.271 1302.53,744.577 1305.78,748.927 1309.02,753.324 1312.26,757.768 1315.51,762.261 1318.75,766.804 1321.99,771.399 1325.23,776.047 1328.48,780.75 1331.72,785.508 1334.96,790.321 1338.21,795.188 1341.45,800.106 1344.69,805.075 1347.94,810.094 1351.18,815.161 1354.42,820.274 1357.66,825.433 1360.91,830.635 1364.15,835.877 1367.39,841.155 1370.64,846.467 1373.88,851.808 1377.12,857.177 1380.37,862.569 1383.61,867.982 1386.85,873.412 1390.1,878.857 1393.34,884.312 1396.58,889.776 1399.82,895.244 1403.07,900.714 1406.31,906.183 1409.55,911.647 1412.8,917.104 1416.04,922.551 1419.28,927.984 1422.53,933.4 1425.77,938.796 1429.01,944.169 1432.25,949.516 1435.5,954.832 1438.74,960.116 1441.98,965.364 1445.23,970.571 1448.47,975.736 1451.71,980.854 1454.96,985.921 1458.2,990.935 1461.44,995.891 1464.68,1000.79 1467.93,1005.62 1471.17,1010.38 1474.41,1015.07 1477.66,1019.68 1480.9,1024.21 1484.14,1028.67 1487.39,1033.05 1490.63,1037.36 1493.87,1041.6 1497.11,1045.78 1500.36,1049.9 1503.6,1053.96 1506.84,1057.96 1510.09,1061.9 1513.33,1065.79 1516.57,1069.62 1519.82,1073.4 1523.06,1077.14 1526.3,1080.82 1529.55,1084.46 1532.79,1088.04 1536.03,1091.59 1539.27,1095.09 1542.52,1098.55 1545.76,1101.96 1549,1105.34 1552.25,1108.68 1555.49,1111.97 1558.73,1115.23 1561.98,1118.46 1565.22,1121.64 1568.46,1124.79 1571.7,1127.91 1574.95,1130.99 1578.19,1134.04 1581.43,1137.06 1584.68,1140.04 1587.92,1142.99 1591.16,1145.91 1594.41,1148.79 1597.65,1151.65 1600.89,1154.47 1604.13,1157.27 1607.38,1160.03 1610.62,1162.76 1613.86,1165.46 1617.11,1168.13 1620.35,1170.76 1623.59,1173.37 1626.84,1175.94 1630.08,1178.48 1633.32,1180.99 1636.57,1183.47 1639.81,1185.91 1643.05,1188.32 1646.29,1190.69 1649.54,1193.03 1652.78,1195.34 1656.02,1197.6 1659.27,1199.83 1662.51,1202.02 1665.75,1204.17 1669,1206.28 1672.24,1208.35 1675.48,1210.37 1678.72,1212.35 1681.97,1214.29 1685.21,1216.18 1688.45,1218.02 1691.7,1219.81 1694.94,1221.55 1698.18,1223.24 1701.43,1224.87 1704.67,1226.45 1707.91,1227.97 1711.15,1229.43 1714.4,1230.83 1717.64,1232.16 1720.88,1233.43 1724.13,1234.62 1727.37,1235.75 1730.61,1236.81 1733.86,1237.8 1737.1,1238.72 1740.34,1239.57 1743.59,1240.36 1746.83,1241.08 1750.07,1241.74 1753.31,1242.33 1756.56,1242.86 1759.8,1243.32 1763.04,1243.73 1766.29,1244.07 1769.53,1244.34 1772.77,1244.56 1776.02,1244.72 1779.26,1244.82 1782.5,1244.87 1785.74,1244.86 1788.99,1244.81 1792.23,1244.7 1795.47,1244.54 1798.72,1244.34 1801.96,1244.1 1805.2,1243.81 1808.45,1243.48 1811.69,1243.11 1814.93,1242.69 1818.17,1242.24 1821.42,1241.75 1824.66,1241.23 1827.9,1240.67 1831.15,1240.07 1834.39,1239.44 1837.63,1238.78 1840.88,1238.09 1844.12,1237.36 1847.36,1236.6 1850.61,1235.81 1853.85,1234.99 1857.09,1234.14 1860.33,1233.25 1863.58,1232.34 1866.82,1231.4 1870.06,1230.43 1873.31,1229.43 1876.55,1228.4 1879.79,1227.34 1883.04,1226.25 1886.28,1225.13 1889.52,1223.98 1892.76,1222.8 1896.01,1221.59 1899.25,1220.35 1902.49,1219.08 1905.74,1217.77 1908.98,1216.43 1912.22,1215.06 1915.47,1213.66 1918.71,1212.21 1921.95,1210.74 1925.19,1209.22 1928.44,1207.67 1931.68,1206.07 1934.92,1204.44 1938.17,1202.76 1941.41,1201.04 1944.65,1199.27 1947.9,1197.45 1951.14,1195.59 1954.38,1193.67 1957.63,1191.7 1960.87,1189.67 1964.11,1187.59 1967.35,1185.45 1970.6,1183.26 1973.84,1181.02 1977.08,1178.73 1980.33,1176.4 1983.57,1174.03 1986.81,1171.61 1990.06,1169.16 1993.3,1166.67 1996.54,1164.15 1999.78,1161.6 2003.03,1159.02 2006.27,1156.41 2009.51,1153.77 2012.76,1151.12 2016,1148.44 2019.24,1145.74 2022.49,1143.02 2025.73,1140.29 2028.97,1137.54 2032.21,1134.78 2035.46,1132 2038.7,1129.22 2041.94,1126.43 2045.19,1123.63 2048.43,1120.82 2051.67,1118.01 2054.92,1115.2 2058.16,1112.38 2061.4,1109.57 2064.65,1106.75 2067.89,1103.94 2071.13,1101.13 2074.37,1098.32 2077.62,1095.52 2080.86,1092.72 2084.1,1089.92 2087.35,1087.13 2090.59,1084.33 2093.83,1081.54 2097.08,1078.75 2100.32,1075.96 2103.56,1073.17 2106.8,1070.38 2110.05,1067.6 2113.29,1064.83 2116.53,1062.06 2119.78,1059.29 2123.02,1056.54 2126.26,1053.79 2129.51,1051.05 2132.75,1048.31 2135.99,1045.59 2139.23,1042.87 2142.48,1040.17 2145.72,1037.48 2148.96,1034.79 2152.21,1032.12 2155.45,1029.46 2158.69,1026.81 2161.94,1024.17 2165.18,1021.55 2168.42,1018.94 2171.67,1016.34 2174.91,1013.76 2178.15,1011.19 2181.39,1008.64 2184.64,1006.1 2187.88,1003.57 2191.12,1001.06 2194.37,998.567 2197.61,996.087 2200.85,993.624 2204.1,991.176 2207.34,988.744 2210.58,986.329 2213.82,983.93 2217.07,981.548 2220.31,979.182 2223.55,976.833 2226.8,974.501 2230.04,972.187 2233.28,969.889 2236.53,967.609 2239.77,965.346 2243.01,963.1 2246.25,960.872 2249.5,958.661 2252.74,956.468 2255.98,954.293 2259.23,952.135 2262.47,949.996 2265.71,947.873 2268.96,945.769 2272.2,943.683 2275.44,941.614 2278.69,939.563 2281.93,937.53 2285.17,935.514 2288.41,933.517 2291.66,931.537 "/>
<path clip-path="url(#clip790)" d="M1953.46 302.578 L2280.8 302.578 L2280.8 95.2176 L1953.46 95.2176  Z" fill="#ffffff" fill-rule="evenodd" fill-opacity="1"/>
<polyline clip-path="url(#clip790)" style="stroke:#000000; stroke-linecap:round; stroke-linejoin:round; stroke-width:4; stroke-opacity:1; fill:none" points="1953.46,302.578 2280.8,302.578 2280.8,95.2176 1953.46,95.2176 1953.46,302.578 "/>
<polyline clip-path="url(#clip790)" style="stroke:#009af9; stroke-linecap:round; stroke-linejoin:round; stroke-width:4; stroke-opacity:1; fill:none" points="1977.44,147.058 2121.36,147.058 "/>
<path clip-path="url(#clip790)" d="M2152.76 131.051 L2152.76 138.412 L2161.53 138.412 L2161.53 141.722 L2152.76 141.722 L2152.76 155.796 Q2152.76 158.967 2153.61 159.87 Q2154.49 160.773 2157.16 160.773 L2161.53 160.773 L2161.53 164.338 L2157.16 164.338 Q2152.23 164.338 2150.35 162.509 Q2148.48 160.657 2148.48 155.796 L2148.48 141.722 L2145.35 141.722 L2145.35 138.412 L2148.48 138.412 L2148.48 131.051 L2152.76 131.051 Z" fill="#000000" fill-rule="nonzero" fill-opacity="1" /><path clip-path="url(#clip790)" d="M2182.16 142.393 Q2181.44 141.977 2180.58 141.791 Q2179.75 141.583 2178.73 141.583 Q2175.12 141.583 2173.17 143.944 Q2171.25 146.282 2171.25 150.68 L2171.25 164.338 L2166.97 164.338 L2166.97 138.412 L2171.25 138.412 L2171.25 142.44 Q2172.6 140.078 2174.75 138.944 Q2176.9 137.787 2179.98 137.787 Q2180.42 137.787 2180.95 137.856 Q2181.48 137.903 2182.13 138.018 L2182.16 142.393 Z" fill="#000000" fill-rule="nonzero" fill-opacity="1" /><path clip-path="url(#clip790)" d="M2186.18 154.106 L2186.18 138.412 L2190.44 138.412 L2190.44 153.944 Q2190.44 157.625 2191.88 159.476 Q2193.31 161.305 2196.18 161.305 Q2199.63 161.305 2201.62 159.106 Q2203.64 156.907 2203.64 153.111 L2203.64 138.412 L2207.9 138.412 L2207.9 164.338 L2203.64 164.338 L2203.64 160.356 Q2202.09 162.717 2200.03 163.875 Q2197.99 165.009 2195.28 165.009 Q2190.81 165.009 2188.5 162.231 Q2186.18 159.453 2186.18 154.106 M2196.9 137.787 L2196.9 137.787 Z" fill="#000000" fill-rule="nonzero" fill-opacity="1" /><path clip-path="url(#clip790)" d="M2220.88 131.051 L2220.88 138.412 L2229.66 138.412 L2229.66 141.722 L2220.88 141.722 L2220.88 155.796 Q2220.88 158.967 2221.74 159.87 Q2222.62 160.773 2225.28 160.773 L2229.66 160.773 L2229.66 164.338 L2225.28 164.338 Q2220.35 164.338 2218.48 162.509 Q2216.6 160.657 2216.6 155.796 L2216.6 141.722 L2213.48 141.722 L2213.48 138.412 L2216.6 138.412 L2216.6 131.051 L2220.88 131.051 Z" fill="#000000" fill-rule="nonzero" fill-opacity="1" /><path clip-path="url(#clip790)" d="M2256.81 148.689 L2256.81 164.338 L2252.55 164.338 L2252.55 148.828 Q2252.55 145.148 2251.11 143.319 Q2249.68 141.49 2246.81 141.49 Q2243.36 141.49 2241.37 143.69 Q2239.38 145.889 2239.38 149.685 L2239.38 164.338 L2235.1 164.338 L2235.1 128.319 L2239.38 128.319 L2239.38 142.44 Q2240.91 140.102 2242.97 138.944 Q2245.05 137.787 2247.76 137.787 Q2252.23 137.787 2254.52 140.565 Q2256.81 143.319 2256.81 148.689 Z" fill="#000000" fill-rule="nonzero" fill-opacity="1" /><circle clip-path="url(#clip790)" cx="2049.4" cy="198.898" r="20.48" fill="#e26f46" fill-rule="evenodd" fill-opacity="1" stroke="#000000" stroke-opacity="1" stroke-width="4.55111"/>
<path clip-path="url(#clip790)" d="M2164.26 194.187 L2164.26 180.159 L2168.52 180.159 L2168.52 216.178 L2164.26 216.178 L2164.26 212.289 Q2162.92 214.603 2160.86 215.738 Q2158.82 216.849 2155.95 216.849 Q2151.25 216.849 2148.29 213.099 Q2145.35 209.349 2145.35 203.238 Q2145.35 197.127 2148.29 193.377 Q2151.25 189.627 2155.95 189.627 Q2158.82 189.627 2160.86 190.761 Q2162.92 191.872 2164.26 194.187 M2149.75 203.238 Q2149.75 207.937 2151.67 210.622 Q2153.61 213.284 2156.99 213.284 Q2160.37 213.284 2162.32 210.622 Q2164.26 207.937 2164.26 203.238 Q2164.26 198.539 2162.32 195.877 Q2160.37 193.192 2156.99 193.192 Q2153.61 193.192 2151.67 195.877 Q2149.75 198.539 2149.75 203.238 Z" fill="#000000" fill-rule="nonzero" fill-opacity="1" /><path clip-path="url(#clip790)" d="M2189.08 203.145 Q2183.92 203.145 2181.92 204.326 Q2179.93 205.506 2179.93 208.354 Q2179.93 210.622 2181.42 211.965 Q2182.92 213.284 2185.49 213.284 Q2189.03 213.284 2191.16 210.784 Q2193.31 208.261 2193.31 204.094 L2193.31 203.145 L2189.08 203.145 M2197.57 201.386 L2197.57 216.178 L2193.31 216.178 L2193.31 212.242 Q2191.85 214.603 2189.68 215.738 Q2187.5 216.849 2184.36 216.849 Q2180.37 216.849 2178.01 214.627 Q2175.67 212.381 2175.67 208.631 Q2175.67 204.256 2178.59 202.034 Q2181.53 199.812 2187.34 199.812 L2193.31 199.812 L2193.31 199.395 Q2193.31 196.455 2191.37 194.858 Q2189.45 193.238 2185.95 193.238 Q2183.73 193.238 2181.62 193.77 Q2179.52 194.303 2177.57 195.367 L2177.57 191.432 Q2179.91 190.53 2182.11 190.09 Q2184.31 189.627 2186.39 189.627 Q2192.02 189.627 2194.79 192.543 Q2197.57 195.46 2197.57 201.386 Z" fill="#000000" fill-rule="nonzero" fill-opacity="1" /><path clip-path="url(#clip790)" d="M2210.56 182.891 L2210.56 190.252 L2219.33 190.252 L2219.33 193.562 L2210.56 193.562 L2210.56 207.636 Q2210.56 210.807 2211.42 211.71 Q2212.29 212.613 2214.96 212.613 L2219.33 212.613 L2219.33 216.178 L2214.96 216.178 Q2210.03 216.178 2208.15 214.349 Q2206.28 212.497 2206.28 207.636 L2206.28 193.562 L2203.15 193.562 L2203.15 190.252 L2206.28 190.252 L2206.28 182.891 L2210.56 182.891 Z" fill="#000000" fill-rule="nonzero" fill-opacity="1" /><path clip-path="url(#clip790)" d="M2236.72 203.145 Q2231.55 203.145 2229.56 204.326 Q2227.57 205.506 2227.57 208.354 Q2227.57 210.622 2229.05 211.965 Q2230.56 213.284 2233.13 213.284 Q2236.67 213.284 2238.8 210.784 Q2240.95 208.261 2240.95 204.094 L2240.95 203.145 L2236.72 203.145 M2245.21 201.386 L2245.21 216.178 L2240.95 216.178 L2240.95 212.242 Q2239.49 214.603 2237.32 215.738 Q2235.14 216.849 2231.99 216.849 Q2228.01 216.849 2225.65 214.627 Q2223.31 212.381 2223.31 208.631 Q2223.31 204.256 2226.23 202.034 Q2229.17 199.812 2234.98 199.812 L2240.95 199.812 L2240.95 199.395 Q2240.95 196.455 2239.01 194.858 Q2237.09 193.238 2233.59 193.238 Q2231.37 193.238 2229.26 193.77 Q2227.16 194.303 2225.21 195.367 L2225.21 191.432 Q2227.55 190.53 2229.75 190.09 Q2231.95 189.627 2234.03 189.627 Q2239.66 189.627 2242.43 192.543 Q2245.21 195.46 2245.21 201.386 Z" fill="#000000" fill-rule="nonzero" fill-opacity="1" /><polyline clip-path="url(#clip790)" style="stroke:#3da44d; stroke-linecap:round; stroke-linejoin:round; stroke-width:8; stroke-opacity:1; fill:none" points="1977.44,250.738 2121.36,250.738 "/>
<path clip-path="url(#clip790)" d="M2170.91 263.087 L2170.91 253.805 L2163.27 253.805 L2163.27 249.962 L2175.54 249.962 L2175.54 264.8 Q2172.83 266.721 2169.56 267.717 Q2166.3 268.689 2162.6 268.689 Q2154.49 268.689 2149.91 263.967 Q2145.35 259.221 2145.35 250.772 Q2145.35 242.3 2149.91 237.578 Q2154.49 232.833 2162.6 232.833 Q2165.98 232.833 2169.01 233.666 Q2172.06 234.499 2174.63 236.12 L2174.63 241.096 Q2172.04 238.897 2169.12 237.786 Q2166.21 236.675 2162.99 236.675 Q2156.65 236.675 2153.45 240.217 Q2150.28 243.758 2150.28 250.772 Q2150.28 257.763 2153.45 261.305 Q2156.65 264.846 2162.99 264.846 Q2165.47 264.846 2167.41 264.43 Q2169.36 263.99 2170.91 263.087 Z" fill="#000000" fill-rule="nonzero" fill-opacity="1" /><path clip-path="url(#clip790)" d="M2188.75 237.3 L2188.75 250.286 L2194.63 250.286 Q2197.9 250.286 2199.68 248.596 Q2201.46 246.907 2201.46 243.782 Q2201.46 240.68 2199.68 238.99 Q2197.9 237.3 2194.63 237.3 L2188.75 237.3 M2184.08 233.458 L2194.63 233.458 Q2200.44 233.458 2203.41 236.096 Q2206.39 238.712 2206.39 243.782 Q2206.39 248.897 2203.41 251.513 Q2200.44 254.129 2194.63 254.129 L2188.75 254.129 L2188.75 268.018 L2184.08 268.018 L2184.08 233.458 Z" fill="#000000" fill-rule="nonzero" fill-opacity="1" /></svg>
