<?xml version="1.0" encoding="utf-8"?>
<svg xmlns="http://www.w3.org/2000/svg" xmlns:xlink="http://www.w3.org/1999/xlink" width="600" height="400" viewBox="0 0 2400 1600">
<defs>
  <clipPath id="clip270">
    <rect x="0" y="0" width="2400" height="1600"/>
  </clipPath>
</defs>
<path clip-path="url(#clip270)" d="M0 1600 L2400 1600 L2400 0 L0 0  Z" fill="#ffffff" fill-rule="evenodd" fill-opacity="1"/>
<defs>
  <clipPath id="clip271">
    <rect x="480" y="0" width="1681" height="1600"/>
  </clipPath>
</defs>
<path clip-path="url(#clip270)" d="M193.936 1486.45 L2352.76 1486.45 L2352.76 47.2441 L193.936 47.2441  Z" fill="#ffffff" fill-rule="evenodd" fill-opacity="1"/>
<defs>
  <clipPath id="clip272">
    <rect x="193" y="47" width="2160" height="1440"/>
  </clipPath>
</defs>
<polyline clip-path="url(#clip272)" style="stroke:#000000; stroke-linecap:round; stroke-linejoin:round; stroke-width:2; stroke-opacity:0.1; fill:none" points="255.035,1486.45 255.035,47.2441 "/>
<polyline clip-path="url(#clip272)" style="stroke:#000000; stroke-linecap:round; stroke-linejoin:round; stroke-width:2; stroke-opacity:0.1; fill:none" points="579.338,1486.45 579.338,47.2441 "/>
<polyline clip-path="url(#clip272)" style="stroke:#000000; stroke-linecap:round; stroke-linejoin:round; stroke-width:2; stroke-opacity:0.1; fill:none" points="903.641,1486.45 903.641,47.2441 "/>
<polyline clip-path="url(#clip272)" style="stroke:#000000; stroke-linecap:round; stroke-linejoin:round; stroke-width:2; stroke-opacity:0.1; fill:none" points="1227.94,1486.45 1227.94,47.2441 "/>
<polyline clip-path="url(#clip272)" style="stroke:#000000; stroke-linecap:round; stroke-linejoin:round; stroke-width:2; stroke-opacity:0.1; fill:none" points="1552.25,1486.45 1552.25,47.2441 "/>
<polyline clip-path="url(#clip272)" style="stroke:#000000; stroke-linecap:round; stroke-linejoin:round; stroke-width:2; stroke-opacity:0.1; fill:none" points="1876.55,1486.45 1876.55,47.2441 "/>
<polyline clip-path="url(#clip272)" style="stroke:#000000; stroke-linecap:round; stroke-linejoin:round; stroke-width:2; stroke-opacity:0.1; fill:none" points="2200.85,1486.45 2200.85,47.2441 "/>
<polyline clip-path="url(#clip272)" style="stroke:#000000; stroke-linecap:round; stroke-linejoin:round; stroke-width:2; stroke-opacity:0.1; fill:none" points="193.936,1356.37 2352.76,1356.37 "/>
<polyline clip-path="url(#clip272)" style="stroke:#000000; stroke-linecap:round; stroke-linejoin:round; stroke-width:2; stroke-opacity:0.1; fill:none" points="193.936,1086.03 2352.76,1086.03 "/>
<polyline clip-path="url(#clip272)" style="stroke:#000000; stroke-linecap:round; stroke-linejoin:round; stroke-width:2; stroke-opacity:0.1; fill:none" points="193.936,815.686 2352.76,815.686 "/>
<polyline clip-path="url(#clip272)" style="stroke:#000000; stroke-linecap:round; stroke-linejoin:round; stroke-width:2; stroke-opacity:0.1; fill:none" points="193.936,545.346 2352.76,545.346 "/>
<polyline clip-path="url(#clip272)" style="stroke:#000000; stroke-linecap:round; stroke-linejoin:round; stroke-width:2; stroke-opacity:0.1; fill:none" points="193.936,275.007 2352.76,275.007 "/>
<polyline clip-path="url(#clip270)" style="stroke:#000000; stroke-linecap:round; stroke-linejoin:round; stroke-width:4; stroke-opacity:1; fill:none" points="193.936,1486.45 2352.76,1486.45 "/>
<polyline clip-path="url(#clip270)" style="stroke:#000000; stroke-linecap:round; stroke-linejoin:round; stroke-width:4; stroke-opacity:1; fill:none" points="255.035,1486.45 255.035,1467.55 "/>
<polyline clip-path="url(#clip270)" style="stroke:#000000; stroke-linecap:round; stroke-linejoin:round; stroke-width:4; stroke-opacity:1; fill:none" points="579.338,1486.45 579.338,1467.55 "/>
<polyline clip-path="url(#clip270)" style="stroke:#000000; stroke-linecap:round; stroke-linejoin:round; stroke-width:4; stroke-opacity:1; fill:none" points="903.641,1486.45 903.641,1467.55 "/>
<polyline clip-path="url(#clip270)" style="stroke:#000000; stroke-linecap:round; stroke-linejoin:round; stroke-width:4; stroke-opacity:1; fill:none" points="1227.94,1486.45 1227.94,1467.55 "/>
<polyline clip-path="url(#clip270)" style="stroke:#000000; stroke-linecap:round; stroke-linejoin:round; stroke-width:4; stroke-opacity:1; fill:none" points="1552.25,1486.45 1552.25,1467.55 "/>
<polyline clip-path="url(#clip270)" style="stroke:#000000; stroke-linecap:round; stroke-linejoin:round; stroke-width:4; stroke-opacity:1; fill:none" points="1876.55,1486.45 1876.55,1467.55 "/>
<polyline clip-path="url(#clip270)" style="stroke:#000000; stroke-linecap:round; stroke-linejoin:round; stroke-width:4; stroke-opacity:1; fill:none" points="2200.85,1486.45 2200.85,1467.55 "/>
<path clip-path="url(#clip270)" d="M255.035 1517.37 Q251.424 1517.37 249.595 1520.93 Q247.789 1524.47 247.789 1531.6 Q247.789 1538.71 249.595 1542.27 Q251.424 1545.82 255.035 1545.82 Q258.669 1545.82 260.474 1542.27 Q262.303 1538.71 262.303 1531.6 Q262.303 1524.47 260.474 1520.93 Q258.669 1517.37 255.035 1517.37 M255.035 1513.66 Q260.845 1513.66 263.9 1518.27 Q266.979 1522.85 266.979 1531.6 Q266.979 1540.33 263.9 1544.94 Q260.845 1549.52 255.035 1549.52 Q249.225 1549.52 246.146 1544.94 Q243.09 1540.33 243.09 1531.6 Q243.09 1522.85 246.146 1518.27 Q249.225 1513.66 255.035 1513.66 Z" fill="#000000" fill-rule="nonzero" fill-opacity="1" /><path clip-path="url(#clip270)" d="M569.72 1544.91 L577.358 1544.91 L577.358 1518.55 L569.048 1520.21 L569.048 1515.95 L577.312 1514.29 L581.988 1514.29 L581.988 1544.91 L589.627 1544.91 L589.627 1548.85 L569.72 1548.85 L569.72 1544.91 Z" fill="#000000" fill-rule="nonzero" fill-opacity="1" /><path clip-path="url(#clip270)" d="M898.293 1544.91 L914.613 1544.91 L914.613 1548.85 L892.668 1548.85 L892.668 1544.91 Q895.33 1542.16 899.914 1537.53 Q904.52 1532.88 905.701 1531.53 Q907.946 1529.01 908.826 1527.27 Q909.729 1525.51 909.729 1523.82 Q909.729 1521.07 907.784 1519.33 Q905.863 1517.6 902.761 1517.6 Q900.562 1517.6 898.108 1518.36 Q895.678 1519.13 892.9 1520.68 L892.9 1515.95 Q895.724 1514.82 898.178 1514.24 Q900.631 1513.66 902.668 1513.66 Q908.039 1513.66 911.233 1516.35 Q914.428 1519.03 914.428 1523.52 Q914.428 1525.65 913.617 1527.57 Q912.83 1529.47 910.724 1532.07 Q910.145 1532.74 907.043 1535.95 Q903.942 1539.15 898.293 1544.91 Z" fill="#000000" fill-rule="nonzero" fill-opacity="1" /><path clip-path="url(#clip270)" d="M1232.19 1530.21 Q1235.55 1530.93 1237.42 1533.2 Q1239.32 1535.47 1239.32 1538.8 Q1239.32 1543.92 1235.8 1546.72 Q1232.28 1549.52 1225.8 1549.52 Q1223.63 1549.52 1221.31 1549.08 Q1219.02 1548.66 1216.57 1547.81 L1216.57 1543.29 Q1218.51 1544.43 1220.83 1545.01 Q1223.14 1545.58 1225.66 1545.58 Q1230.06 1545.58 1232.35 1543.85 Q1234.67 1542.11 1234.67 1538.8 Q1234.67 1535.75 1232.52 1534.03 Q1230.39 1532.3 1226.57 1532.3 L1222.54 1532.3 L1222.54 1528.45 L1226.75 1528.45 Q1230.2 1528.45 1232.03 1527.09 Q1233.86 1525.7 1233.86 1523.11 Q1233.86 1520.45 1231.96 1519.03 Q1230.08 1517.6 1226.57 1517.6 Q1224.64 1517.6 1222.45 1518.01 Q1220.25 1518.43 1217.61 1519.31 L1217.61 1515.14 Q1220.27 1514.4 1222.58 1514.03 Q1224.92 1513.66 1226.98 1513.66 Q1232.31 1513.66 1235.41 1516.09 Q1238.51 1518.5 1238.51 1522.62 Q1238.51 1525.49 1236.87 1527.48 Q1235.22 1529.45 1232.19 1530.21 Z" fill="#000000" fill-rule="nonzero" fill-opacity="1" /><path clip-path="url(#clip270)" d="M1555.26 1518.36 L1543.45 1536.81 L1555.26 1536.81 L1555.26 1518.36 M1554.03 1514.29 L1559.91 1514.29 L1559.91 1536.81 L1564.84 1536.81 L1564.84 1540.7 L1559.91 1540.7 L1559.91 1548.85 L1555.26 1548.85 L1555.26 1540.7 L1539.65 1540.7 L1539.65 1536.19 L1554.03 1514.29 Z" fill="#000000" fill-rule="nonzero" fill-opacity="1" /><path clip-path="url(#clip270)" d="M1866.83 1514.29 L1885.18 1514.29 L1885.18 1518.22 L1871.11 1518.22 L1871.11 1526.7 Q1872.13 1526.35 1873.15 1526.19 Q1874.17 1526 1875.18 1526 Q1880.97 1526 1884.35 1529.17 Q1887.73 1532.34 1887.73 1537.76 Q1887.73 1543.34 1884.26 1546.44 Q1880.79 1549.52 1874.47 1549.52 Q1872.29 1549.52 1870.02 1549.15 Q1867.78 1548.78 1865.37 1548.04 L1865.37 1543.34 Q1867.45 1544.47 1869.67 1545.03 Q1871.9 1545.58 1874.37 1545.58 Q1878.38 1545.58 1880.72 1543.48 Q1883.05 1541.37 1883.05 1537.76 Q1883.05 1534.15 1880.72 1532.04 Q1878.38 1529.94 1874.37 1529.94 Q1872.5 1529.94 1870.62 1530.35 Q1868.77 1530.77 1866.83 1531.65 L1866.83 1514.29 Z" fill="#000000" fill-rule="nonzero" fill-opacity="1" /><path clip-path="url(#clip270)" d="M2201.26 1529.7 Q2198.11 1529.7 2196.26 1531.86 Q2194.43 1534.01 2194.43 1537.76 Q2194.43 1541.49 2196.26 1543.66 Q2198.11 1545.82 2201.26 1545.82 Q2204.41 1545.82 2206.23 1543.66 Q2208.09 1541.49 2208.09 1537.76 Q2208.09 1534.01 2206.23 1531.86 Q2204.41 1529.7 2201.26 1529.7 M2210.54 1515.05 L2210.54 1519.31 Q2208.78 1518.48 2206.98 1518.04 Q2205.19 1517.6 2203.43 1517.6 Q2198.8 1517.6 2196.35 1520.72 Q2193.92 1523.85 2193.57 1530.17 Q2194.94 1528.15 2197 1527.09 Q2199.06 1526 2201.54 1526 Q2206.74 1526 2209.75 1529.17 Q2212.79 1532.32 2212.79 1537.76 Q2212.79 1543.08 2209.64 1546.3 Q2206.49 1549.52 2201.26 1549.52 Q2195.26 1549.52 2192.09 1544.94 Q2188.92 1540.33 2188.92 1531.6 Q2188.92 1523.41 2192.81 1518.55 Q2196.7 1513.66 2203.25 1513.66 Q2205.01 1513.66 2206.79 1514.01 Q2208.6 1514.36 2210.54 1515.05 Z" fill="#000000" fill-rule="nonzero" fill-opacity="1" /><polyline clip-path="url(#clip270)" style="stroke:#000000; stroke-linecap:round; stroke-linejoin:round; stroke-width:4; stroke-opacity:1; fill:none" points="193.936,1486.45 193.936,47.2441 "/>
<polyline clip-path="url(#clip270)" style="stroke:#000000; stroke-linecap:round; stroke-linejoin:round; stroke-width:4; stroke-opacity:1; fill:none" points="193.936,1356.37 212.834,1356.37 "/>
<polyline clip-path="url(#clip270)" style="stroke:#000000; stroke-linecap:round; stroke-linejoin:round; stroke-width:4; stroke-opacity:1; fill:none" points="193.936,1086.03 212.834,1086.03 "/>
<polyline clip-path="url(#clip270)" style="stroke:#000000; stroke-linecap:round; stroke-linejoin:round; stroke-width:4; stroke-opacity:1; fill:none" points="193.936,815.686 212.834,815.686 "/>
<polyline clip-path="url(#clip270)" style="stroke:#000000; stroke-linecap:round; stroke-linejoin:round; stroke-width:4; stroke-opacity:1; fill:none" points="193.936,545.346 212.834,545.346 "/>
<polyline clip-path="url(#clip270)" style="stroke:#000000; stroke-linecap:round; stroke-linejoin:round; stroke-width:4; stroke-opacity:1; fill:none" points="193.936,275.007 212.834,275.007 "/>
<path clip-path="url(#clip270)" d="M50.9921 1356.82 L80.6679 1356.82 L80.6679 1360.75 L50.9921 1360.75 L50.9921 1356.82 Z" fill="#000000" fill-rule="nonzero" fill-opacity="1" /><path clip-path="url(#clip270)" d="M91.5706 1369.71 L99.2095 1369.71 L99.2095 1343.34 L90.8993 1345.01 L90.8993 1340.75 L99.1632 1339.09 L103.839 1339.09 L103.839 1369.71 L111.478 1369.71 L111.478 1373.65 L91.5706 1373.65 L91.5706 1369.71 Z" fill="#000000" fill-rule="nonzero" fill-opacity="1" /><path clip-path="url(#clip270)" d="M120.922 1367.77 L125.807 1367.77 L125.807 1373.65 L120.922 1373.65 L120.922 1367.77 Z" fill="#000000" fill-rule="nonzero" fill-opacity="1" /><path clip-path="url(#clip270)" d="M145.992 1342.16 Q142.381 1342.16 140.552 1345.73 Q138.746 1349.27 138.746 1356.4 Q138.746 1363.51 140.552 1367.07 Q142.381 1370.61 145.992 1370.61 Q149.626 1370.61 151.431 1367.07 Q153.26 1363.51 153.26 1356.4 Q153.26 1349.27 151.431 1345.73 Q149.626 1342.16 145.992 1342.16 M145.992 1338.46 Q151.802 1338.46 154.857 1343.07 Q157.936 1347.65 157.936 1356.4 Q157.936 1365.13 154.857 1369.73 Q151.802 1374.32 145.992 1374.32 Q140.181 1374.32 137.103 1369.73 Q134.047 1365.13 134.047 1356.4 Q134.047 1347.65 137.103 1343.07 Q140.181 1338.46 145.992 1338.46 Z" fill="#000000" fill-rule="nonzero" fill-opacity="1" /><path clip-path="url(#clip270)" d="M51.9875 1086.48 L81.6633 1086.48 L81.6633 1090.41 L51.9875 1090.41 L51.9875 1086.48 Z" fill="#000000" fill-rule="nonzero" fill-opacity="1" /><path clip-path="url(#clip270)" d="M101.756 1071.82 Q98.1447 1071.82 96.316 1075.39 Q94.5104 1078.93 94.5104 1086.06 Q94.5104 1093.17 96.316 1096.73 Q98.1447 1100.27 101.756 1100.27 Q105.39 1100.27 107.196 1096.73 Q109.024 1093.17 109.024 1086.06 Q109.024 1078.93 107.196 1075.39 Q105.39 1071.82 101.756 1071.82 M101.756 1068.12 Q107.566 1068.12 110.621 1072.73 Q113.7 1077.31 113.7 1086.06 Q113.7 1094.79 110.621 1099.39 Q107.566 1103.98 101.756 1103.98 Q95.9456 1103.98 92.8669 1099.39 Q89.8114 1094.79 89.8114 1086.06 Q89.8114 1077.31 92.8669 1072.73 Q95.9456 1068.12 101.756 1068.12 Z" fill="#000000" fill-rule="nonzero" fill-opacity="1" /><path clip-path="url(#clip270)" d="M121.918 1097.43 L126.802 1097.43 L126.802 1103.31 L121.918 1103.31 L121.918 1097.43 Z" fill="#000000" fill-rule="nonzero" fill-opacity="1" /><path clip-path="url(#clip270)" d="M137.033 1068.75 L155.39 1068.75 L155.39 1072.68 L141.316 1072.68 L141.316 1081.15 Q142.334 1080.81 143.353 1080.64 Q144.371 1080.46 145.39 1080.46 Q151.177 1080.46 154.556 1083.63 Q157.936 1086.8 157.936 1092.22 Q157.936 1097.8 154.464 1100.9 Q150.992 1103.98 144.672 1103.98 Q142.496 1103.98 140.228 1103.61 Q137.982 1103.24 135.575 1102.5 L135.575 1097.8 Q137.658 1098.93 139.881 1099.49 Q142.103 1100.04 144.58 1100.04 Q148.584 1100.04 150.922 1097.94 Q153.26 1095.83 153.26 1092.22 Q153.26 1088.61 150.922 1086.5 Q148.584 1084.39 144.58 1084.39 Q142.705 1084.39 140.83 1084.81 Q138.978 1085.23 137.033 1086.11 L137.033 1068.75 Z" fill="#000000" fill-rule="nonzero" fill-opacity="1" /><path clip-path="url(#clip270)" d="M100.76 801.485 Q97.1493 801.485 95.3206 805.05 Q93.515 808.591 93.515 815.721 Q93.515 822.827 95.3206 826.392 Q97.1493 829.934 100.76 829.934 Q104.395 829.934 106.2 826.392 Q108.029 822.827 108.029 815.721 Q108.029 808.591 106.2 805.05 Q104.395 801.485 100.76 801.485 M100.76 797.781 Q106.571 797.781 109.626 802.388 Q112.705 806.971 112.705 815.721 Q112.705 824.448 109.626 829.054 Q106.571 833.637 100.76 833.637 Q94.9502 833.637 91.8715 829.054 Q88.816 824.448 88.816 815.721 Q88.816 806.971 91.8715 802.388 Q94.9502 797.781 100.76 797.781 Z" fill="#000000" fill-rule="nonzero" fill-opacity="1" /><path clip-path="url(#clip270)" d="M120.922 827.087 L125.807 827.087 L125.807 832.966 L120.922 832.966 L120.922 827.087 Z" fill="#000000" fill-rule="nonzero" fill-opacity="1" /><path clip-path="url(#clip270)" d="M145.992 801.485 Q142.381 801.485 140.552 805.05 Q138.746 808.591 138.746 815.721 Q138.746 822.827 140.552 826.392 Q142.381 829.934 145.992 829.934 Q149.626 829.934 151.431 826.392 Q153.26 822.827 153.26 815.721 Q153.26 808.591 151.431 805.05 Q149.626 801.485 145.992 801.485 M145.992 797.781 Q151.802 797.781 154.857 802.388 Q157.936 806.971 157.936 815.721 Q157.936 824.448 154.857 829.054 Q151.802 833.637 145.992 833.637 Q140.181 833.637 137.103 829.054 Q134.047 824.448 134.047 815.721 Q134.047 806.971 137.103 802.388 Q140.181 797.781 145.992 797.781 Z" fill="#000000" fill-rule="nonzero" fill-opacity="1" /><path clip-path="url(#clip270)" d="M101.756 531.145 Q98.1447 531.145 96.316 534.71 Q94.5104 538.252 94.5104 545.381 Q94.5104 552.488 96.316 556.052 Q98.1447 559.594 101.756 559.594 Q105.39 559.594 107.196 556.052 Q109.024 552.488 109.024 545.381 Q109.024 538.252 107.196 534.71 Q105.39 531.145 101.756 531.145 M101.756 527.441 Q107.566 527.441 110.621 532.048 Q113.7 536.631 113.7 545.381 Q113.7 554.108 110.621 558.714 Q107.566 563.298 101.756 563.298 Q95.9456 563.298 92.8669 558.714 Q89.8114 554.108 89.8114 545.381 Q89.8114 536.631 92.8669 532.048 Q95.9456 527.441 101.756 527.441 Z" fill="#000000" fill-rule="nonzero" fill-opacity="1" /><path clip-path="url(#clip270)" d="M121.918 556.747 L126.802 556.747 L126.802 562.626 L121.918 562.626 L121.918 556.747 Z" fill="#000000" fill-rule="nonzero" fill-opacity="1" /><path clip-path="url(#clip270)" d="M137.033 528.066 L155.39 528.066 L155.39 532.002 L141.316 532.002 L141.316 540.474 Q142.334 540.127 143.353 539.965 Q144.371 539.779 145.39 539.779 Q151.177 539.779 154.556 542.951 Q157.936 546.122 157.936 551.539 Q157.936 557.117 154.464 560.219 Q150.992 563.298 144.672 563.298 Q142.496 563.298 140.228 562.927 Q137.982 562.557 135.575 561.816 L135.575 557.117 Q137.658 558.251 139.881 558.807 Q142.103 559.363 144.58 559.363 Q148.584 559.363 150.922 557.256 Q153.26 555.15 153.26 551.539 Q153.26 547.927 150.922 545.821 Q148.584 543.715 144.58 543.715 Q142.705 543.715 140.83 544.131 Q138.978 544.548 137.033 545.427 L137.033 528.066 Z" fill="#000000" fill-rule="nonzero" fill-opacity="1" /><path clip-path="url(#clip270)" d="M91.5706 288.352 L99.2095 288.352 L99.2095 261.986 L90.8993 263.653 L90.8993 259.393 L99.1632 257.727 L103.839 257.727 L103.839 288.352 L111.478 288.352 L111.478 292.287 L91.5706 292.287 L91.5706 288.352 Z" fill="#000000" fill-rule="nonzero" fill-opacity="1" /><path clip-path="url(#clip270)" d="M120.922 286.407 L125.807 286.407 L125.807 292.287 L120.922 292.287 L120.922 286.407 Z" fill="#000000" fill-rule="nonzero" fill-opacity="1" /><path clip-path="url(#clip270)" d="M145.992 260.805 Q142.381 260.805 140.552 264.37 Q138.746 267.912 138.746 275.041 Q138.746 282.148 140.552 285.713 Q142.381 289.254 145.992 289.254 Q149.626 289.254 151.431 285.713 Q153.26 282.148 153.26 275.041 Q153.26 267.912 151.431 264.37 Q149.626 260.805 145.992 260.805 M145.992 257.102 Q151.802 257.102 154.857 261.708 Q157.936 266.292 157.936 275.041 Q157.936 283.768 154.857 288.375 Q151.802 292.958 145.992 292.958 Q140.181 292.958 137.103 288.375 Q134.047 283.768 134.047 275.041 Q134.047 266.292 137.103 261.708 Q140.181 257.102 145.992 257.102 Z" fill="#000000" fill-rule="nonzero" fill-opacity="1" /><polyline clip-path="url(#clip272)" style="stroke:#009af9; stroke-linecap:round; stroke-linejoin:round; stroke-width:4; stroke-opacity:1; fill:none" points="255.035,815.686 258.278,810.279 261.521,804.873 264.764,799.468 268.007,794.065 271.25,788.663 274.493,783.265 277.736,777.87 280.979,772.478 284.222,767.091 287.465,761.708 290.708,756.331 293.951,750.96 297.194,745.596 300.437,740.238 303.68,734.888 306.923,729.546 310.166,724.213 313.409,718.889 316.652,713.574 319.895,708.27 323.138,702.976 326.381,697.694 329.624,692.423 332.867,687.165 336.11,681.92 339.353,676.688 342.596,671.47 345.84,666.266 349.083,661.078 352.326,655.904 355.569,650.747 358.812,645.607 362.055,640.483 365.298,635.377 368.541,630.288 371.784,625.219 375.027,620.168 378.27,615.137 381.513,610.126 384.756,605.136 387.999,600.166 391.242,595.218 394.485,590.293 397.728,585.389 400.971,580.509 404.214,575.653 407.457,570.82 410.7,566.012 413.943,561.228 417.186,556.471 420.429,551.739 423.672,547.033 426.915,542.355 430.158,537.703 433.401,533.08 436.644,528.485 439.887,523.918 443.13,519.381 446.373,514.873 449.616,510.396 452.859,505.949 456.103,501.532 459.346,497.148 462.589,492.795 465.832,488.474 469.075,484.187 472.318,479.932 475.561,475.711 478.804,471.524 482.047,467.371 485.29,463.253 488.533,459.17 491.776,455.123 495.019,451.113 498.262,447.138 501.505,443.201 504.748,439.3 507.991,435.437 511.234,431.613 514.477,427.826 517.72,424.079 520.963,420.371 524.206,416.702 527.449,413.073 530.692,409.484 533.935,405.936 537.178,402.429 540.421,398.964 543.664,395.539 546.907,392.157 550.15,388.818 553.393,385.521 556.636,382.267 559.879,379.056 563.122,375.889 566.366,372.766 569.609,369.687 572.852,366.653 576.095,363.664 579.338,360.72 582.581,357.822 585.824,354.969 589.067,352.162 592.31,349.402 595.553,346.688 598.796,344.022 602.039,341.402 605.282,338.83 608.525,336.305 611.768,333.829 615.011,331.4 618.254,329.02 621.497,326.689 624.74,324.407 627.983,322.173 631.226,319.99 634.469,317.855 637.712,315.771 640.955,313.736 644.198,311.752 647.441,309.818 650.684,307.934 653.927,306.102 657.17,304.32 660.413,302.59 663.656,300.911 666.899,299.283 670.142,297.707 673.385,296.182 676.629,294.71 679.872,293.29 683.115,291.922 686.358,290.606 689.601,289.343 692.844,288.133 696.087,286.975 699.33,285.87 702.573,284.818 705.816,283.819 709.059,282.874 712.302,281.981 715.545,281.143 718.788,280.357 722.031,279.625 725.274,278.947 728.517,278.322 731.76,277.751 735.003,277.234 738.246,276.771 741.489,276.361 744.732,276.006 747.975,275.704 751.218,275.457 754.461,275.263 757.704,275.124 760.947,275.038 764.19,275.007 767.433,275.03 770.676,275.106 773.919,275.237 777.162,275.422 780.405,275.661 783.648,275.954 786.892,276.301 790.135,276.702 793.378,277.156 796.621,277.665 799.864,278.227 803.107,278.844 806.35,279.513 809.593,280.237 812.836,281.014 816.079,281.844 819.322,282.728 822.565,283.665 825.808,284.656 829.051,285.699 832.294,286.795 835.537,287.945 838.78,289.147 842.023,290.402 845.266,291.709 848.509,293.068 851.752,294.48 854.995,295.944 858.238,297.46 861.481,299.028 864.724,300.648 867.967,302.319 871.21,304.041 874.453,305.815 877.696,307.639 880.939,309.515 884.182,311.44 887.425,313.417 890.668,315.443 893.911,317.52 897.155,319.646 900.398,321.822 903.641,324.048 906.884,326.322 910.127,328.646 913.37,331.018 916.613,333.439 919.856,335.908 923.099,338.424 926.342,340.989 929.585,343.601 932.828,346.26 936.071,348.967 939.314,351.72 942.557,354.519 945.8,357.364 949.043,360.255 952.286,363.192 955.529,366.174 958.772,369.201 962.015,372.273 965.258,375.389 968.501,378.549 971.744,381.753 974.987,385 978.23,388.29 981.473,391.623 984.716,394.998 987.959,398.415 991.202,401.875 994.445,405.375 997.688,408.917 1000.93,412.499 1004.17,416.121 1007.42,419.784 1010.66,423.486 1013.9,427.227 1017.15,431.007 1020.39,434.826 1023.63,438.682 1026.88,442.577 1030.12,446.509 1033.36,450.477 1036.6,454.482 1039.85,458.524 1043.09,462.6 1046.33,466.713 1049.58,470.86 1052.82,475.042 1056.06,479.257 1059.31,483.507 1062.55,487.789 1065.79,492.105 1069.04,496.452 1072.28,500.832 1075.52,505.243 1078.76,509.685 1082.01,514.158 1085.25,518.661 1088.49,523.194 1091.74,527.756 1094.98,532.346 1098.22,536.965 1101.47,541.612 1104.71,546.286 1107.95,550.988 1111.19,555.715 1114.44,560.469 1117.68,565.248 1120.92,570.052 1124.17,574.881 1127.41,579.734 1130.65,584.611 1133.9,589.51 1137.14,594.432 1140.38,599.377 1143.62,604.343 1146.87,609.33 1150.11,614.338 1153.35,619.366 1156.6,624.413 1159.84,629.48 1163.08,634.565 1166.33,639.668 1169.57,644.789 1172.81,649.927 1176.06,655.082 1179.3,660.253 1182.54,665.439 1185.78,670.64 1189.03,675.856 1192.27,681.086 1195.51,686.329 1198.76,691.585 1202,696.854 1205.24,702.134 1208.49,707.426 1211.73,712.729 1214.97,718.041 1218.21,723.364 1221.46,728.696 1224.7,734.037 1227.94,739.385 1231.19,744.742 1234.43,750.105 1237.67,755.475 1240.92,760.852 1244.16,766.233 1247.4,771.62 1250.64,777.011 1253.89,782.405 1257.13,787.803 1260.37,793.204 1263.62,798.608 1266.86,804.012 1270.1,809.418 1273.35,814.825 1276.59,820.232 1279.83,825.638 1283.08,831.043 1286.32,836.447 1289.56,841.849 1292.8,847.248 1296.05,852.644 1299.29,858.036 1302.53,863.424 1305.78,868.807 1309.02,874.185 1312.26,879.557 1315.51,884.923 1318.75,890.281 1321.99,895.633 1325.23,900.976 1328.48,906.311 1331.72,911.636 1334.96,916.953 1338.21,922.259 1341.45,927.554 1344.69,932.838 1347.94,938.11 1351.18,943.371 1354.42,948.618 1357.66,953.852 1360.91,959.072 1364.15,964.278 1367.39,969.469 1370.64,974.645 1373.88,979.805 1377.12,984.948 1380.37,990.075 1383.61,995.184 1386.85,1000.27 1390.1,1005.35 1393.34,1010.4 1396.58,1015.44 1399.82,1020.45 1403.07,1025.44 1406.31,1030.42 1409.55,1035.37 1412.8,1040.3 1416.04,1045.2 1419.28,1050.09 1422.53,1054.95 1425.77,1059.78 1429.01,1064.6 1432.25,1069.38 1435.5,1074.15 1438.74,1078.88 1441.98,1083.59 1445.23,1088.27 1448.47,1092.93 1451.71,1097.56 1454.96,1102.16 1458.2,1106.73 1461.44,1111.27 1464.68,1115.78 1467.93,1120.27 1471.17,1124.72 1474.41,1129.14 1477.66,1133.53 1480.9,1137.89 1484.14,1142.21 1487.39,1146.51 1490.63,1150.77 1493.87,1154.99 1497.11,1159.18 1500.36,1163.34 1503.6,1167.47 1506.84,1171.55 1510.09,1175.61 1513.33,1179.62 1516.57,1183.6 1519.82,1187.55 1523.06,1191.45 1526.3,1195.32 1529.55,1199.15 1532.79,1202.95 1536.03,1206.7 1539.27,1210.41 1542.52,1214.09 1545.76,1217.72 1549,1221.32 1552.25,1224.87 1555.49,1228.39 1558.73,1231.86 1561.98,1235.29 1565.22,1238.68 1568.46,1242.03 1571.7,1245.33 1574.95,1248.59 1578.19,1251.81 1581.43,1254.98 1584.68,1258.11 1587.92,1261.2 1591.16,1264.24 1594.41,1267.24 1597.65,1270.19 1600.89,1273.09 1604.13,1275.95 1607.38,1278.77 1610.62,1281.53 1613.86,1284.26 1617.11,1286.93 1620.35,1289.56 1623.59,1292.14 1626.84,1294.67 1630.08,1297.15 1633.32,1299.59 1636.57,1301.98 1639.81,1304.32 1643.05,1306.61 1646.29,1308.85 1649.54,1311.04 1652.78,1313.18 1656.02,1315.27 1659.27,1317.32 1662.51,1319.31 1665.75,1321.25 1669,1323.14 1672.24,1324.98 1675.48,1326.77 1678.72,1328.51 1681.97,1330.2 1685.21,1331.83 1688.45,1333.42 1691.7,1334.95 1694.94,1336.43 1698.18,1337.86 1701.43,1339.24 1704.67,1340.56 1707.91,1341.83 1711.15,1343.05 1714.4,1344.22 1717.64,1345.33 1720.88,1346.39 1724.13,1347.4 1727.37,1348.35 1730.61,1349.25 1733.86,1350.1 1737.1,1350.89 1740.34,1351.63 1743.59,1352.32 1746.83,1352.95 1750.07,1353.53 1753.31,1354.06 1756.56,1354.53 1759.8,1354.95 1763.04,1355.31 1766.29,1355.62 1769.53,1355.88 1772.77,1356.08 1776.02,1356.23 1779.26,1356.32 1782.5,1356.36 1785.74,1356.35 1788.99,1356.28 1792.23,1356.16 1795.47,1355.98 1798.72,1355.75 1801.96,1355.47 1805.2,1355.13 1808.45,1354.74 1811.69,1354.29 1814.93,1353.79 1818.17,1353.24 1821.42,1352.63 1824.66,1351.97 1827.9,1351.25 1831.15,1350.49 1834.39,1349.66 1837.63,1348.79 1840.88,1347.86 1844.12,1346.88 1847.36,1345.84 1850.61,1344.76 1853.85,1343.61 1857.09,1342.42 1860.33,1341.17 1863.58,1339.88 1866.82,1338.52 1870.06,1337.12 1873.31,1335.66 1876.55,1334.16 1879.79,1332.6 1883.04,1330.99 1886.28,1329.32 1889.52,1327.61 1892.76,1325.84 1896.01,1324.03 1899.25,1322.16 1902.49,1320.24 1905.74,1318.27 1908.98,1316.26 1912.22,1314.19 1915.47,1312.07 1918.71,1309.9 1921.95,1307.68 1925.19,1305.42 1928.44,1303.1 1931.68,1300.74 1934.92,1298.32 1938.17,1295.86 1941.41,1293.35 1944.65,1290.79 1947.9,1288.19 1951.14,1285.54 1954.38,1282.84 1957.63,1280.09 1960.87,1277.3 1964.11,1274.46 1967.35,1271.58 1970.6,1268.65 1973.84,1265.68 1977.08,1262.66 1980.33,1259.59 1983.57,1256.48 1986.81,1253.33 1990.06,1250.13 1993.3,1246.89 1996.54,1243.61 1999.78,1240.28 2003.03,1236.91 2006.27,1233.5 2009.51,1230.05 2012.76,1226.56 2016,1223.02 2019.24,1219.45 2022.49,1215.83 2025.73,1212.17 2028.97,1208.48 2032.21,1204.74 2035.46,1200.97 2038.7,1197.16 2041.94,1193.31 2045.19,1189.42 2048.43,1185.49 2051.67,1181.53 2054.92,1177.53 2058.16,1173.49 2061.4,1169.42 2064.65,1165.32 2067.89,1161.18 2071.13,1157 2074.37,1152.79 2077.62,1148.54 2080.86,1144.27 2084.1,1139.96 2087.35,1135.61 2090.59,1131.24 2093.83,1126.83 2097.08,1122.4 2100.32,1117.93 2103.56,1113.43 2106.8,1108.9 2110.05,1104.35 2113.29,1099.76 2116.53,1095.14 2119.78,1090.5 2123.02,1085.83 2126.26,1081.14 2129.51,1076.41 2132.75,1071.66 2135.99,1066.89 2139.23,1062.09 2142.48,1057.26 2145.72,1052.41 2148.96,1047.54 2152.21,1042.64 2155.45,1037.73 2158.69,1032.78 2161.94,1027.82 2165.18,1022.84 2168.42,1017.83 2171.67,1012.81 2174.91,1007.76 2178.15,1002.7 2181.39,997.619 2184.64,992.518 2187.88,987.4 2191.12,982.264 2194.37,977.112 2197.61,971.944 2200.85,966.76 2204.1,961.561 2207.34,956.348 2210.58,951.12 2213.82,945.879 2217.07,940.625 2220.31,935.359 2223.55,930.08 2226.8,924.79 2230.04,919.489 2233.28,914.178 2236.53,908.857 2239.77,903.526 2243.01,898.187 2246.25,892.839 2249.5,887.484 2252.74,882.122 2255.98,876.753 2259.23,871.377 2262.47,865.997 2265.71,860.611 2268.96,855.221 2272.2,849.826 2275.44,844.429 2278.69,839.028 2281.93,833.626 2285.17,828.221 2288.41,822.815 2291.66,817.408 "/>
<circle clip-path="url(#clip272)" cx="443.13" cy="496.143" r="14.4" fill="#e26f46" fill-rule="evenodd" fill-opacity="1" stroke="#000000" stroke-opacity="1" stroke-width="3.2"/>
<circle clip-path="url(#clip272)" cx="1234.43" cy="748.819" r="14.4" fill="#e26f46" fill-rule="evenodd" fill-opacity="1" stroke="#000000" stroke-opacity="1" stroke-width="3.2"/>
<circle clip-path="url(#clip272)" cx="495.019" cy="433.688" r="14.4" fill="#e26f46" fill-rule="evenodd" fill-opacity="1" stroke="#000000" stroke-opacity="1" stroke-width="3.2"/>
<circle clip-path="url(#clip272)" cx="929.585" cy="348.276" r="14.4" fill="#e26f46" fill-rule="evenodd" fill-opacity="1" stroke="#000000" stroke-opacity="1" stroke-width="3.2"/>
<circle clip-path="url(#clip272)" cx="1630.08" cy="1376.25" r="14.4" fill="#e26f46" fill-rule="evenodd" fill-opacity="1" stroke="#000000" stroke-opacity="1" stroke-width="3.2"/>
<circle clip-path="url(#clip272)" cx="1581.43" cy="1312.81" r="14.4" fill="#e26f46" fill-rule="evenodd" fill-opacity="1" stroke="#000000" stroke-opacity="1" stroke-width="3.2"/>
<circle clip-path="url(#clip272)" cx="738.246" cy="162.855" r="14.4" fill="#e26f46" fill-rule="evenodd" fill-opacity="1" stroke="#000000" stroke-opacity="1" stroke-width="3.2"/>
<circle clip-path="url(#clip272)" cx="482.047" cy="376.142" r="14.4" fill="#e26f46" fill-rule="evenodd" fill-opacity="1" stroke="#000000" stroke-opacity="1" stroke-width="3.2"/>
<circle clip-path="url(#clip272)" cx="501.505" cy="401.852" r="14.4" fill="#e26f46" fill-rule="evenodd" fill-opacity="1" stroke="#000000" stroke-opacity="1" stroke-width="3.2"/>
<circle clip-path="url(#clip272)" cx="2246.25" cy="863.678" r="14.4" fill="#e26f46" fill-rule="evenodd" fill-opacity="1" stroke="#000000" stroke-opacity="1" stroke-width="3.2"/>
<circle clip-path="url(#clip272)" cx="384.756" cy="588.339" r="14.4" fill="#e26f46" fill-rule="evenodd" fill-opacity="1" stroke="#000000" stroke-opacity="1" stroke-width="3.2"/>
<circle clip-path="url(#clip272)" cx="650.684" cy="285.465" r="14.4" fill="#e26f46" fill-rule="evenodd" fill-opacity="1" stroke="#000000" stroke-opacity="1" stroke-width="3.2"/>
<circle clip-path="url(#clip272)" cx="1782.5" cy="1248.08" r="14.4" fill="#e26f46" fill-rule="evenodd" fill-opacity="1" stroke="#000000" stroke-opacity="1" stroke-width="3.2"/>
<circle clip-path="url(#clip272)" cx="300.437" cy="608.933" r="14.4" fill="#e26f46" fill-rule="evenodd" fill-opacity="1" stroke="#000000" stroke-opacity="1" stroke-width="3.2"/>
<circle clip-path="url(#clip272)" cx="611.768" cy="230.191" r="14.4" fill="#e26f46" fill-rule="evenodd" fill-opacity="1" stroke="#000000" stroke-opacity="1" stroke-width="3.2"/>
<circle clip-path="url(#clip272)" cx="1448.47" cy="1181.29" r="14.4" fill="#e26f46" fill-rule="evenodd" fill-opacity="1" stroke="#000000" stroke-opacity="1" stroke-width="3.2"/>
<circle clip-path="url(#clip272)" cx="1681.97" cy="1246.35" r="14.4" fill="#e26f46" fill-rule="evenodd" fill-opacity="1" stroke="#000000" stroke-opacity="1" stroke-width="3.2"/>
<circle clip-path="url(#clip272)" cx="874.453" cy="431.063" r="14.4" fill="#e26f46" fill-rule="evenodd" fill-opacity="1" stroke="#000000" stroke-opacity="1" stroke-width="3.2"/>
<circle clip-path="url(#clip272)" cx="1448.47" cy="964.171" r="14.4" fill="#e26f46" fill-rule="evenodd" fill-opacity="1" stroke="#000000" stroke-opacity="1" stroke-width="3.2"/>
<circle clip-path="url(#clip272)" cx="906.884" cy="368.578" r="14.4" fill="#e26f46" fill-rule="evenodd" fill-opacity="1" stroke="#000000" stroke-opacity="1" stroke-width="3.2"/>
<path clip-path="url(#clip272)" d="M255.035 927.918 L258.278 922.157 L261.521 916.392 L264.764 910.63 L268.007 904.875 L271.25 899.132 L274.493 893.407 L277.736 887.704 L280.979 882.029 L284.222 876.39 L287.465 870.79 L290.708 865.238 L293.951 859.738 L297.194 854.298 L300.437 848.924 L303.68 843.62 L306.923 838.381 L310.166 833.203 L313.409 828.078 L316.652 823 L319.895 817.963 L323.138 812.961 L326.381 807.989 L329.624 803.041 L332.867 798.111 L336.11 793.196 L339.353 788.291 L342.596 783.391 L345.84 778.494 L349.083 773.596 L352.326 768.695 L355.569 763.788 L358.812 758.875 L362.055 753.954 L365.298 749.025 L368.541 744.089 L371.784 739.145 L375.027 734.196 L378.27 729.243 L381.513 724.288 L384.756 719.335 L387.999 714.384 L391.242 709.435 L394.485 704.484 L397.728 699.529 L400.971 694.568 L404.214 689.6 L407.457 684.625 L410.7 679.643 L413.943 674.655 L417.186 669.663 L420.429 664.671 L423.672 659.681 L426.915 654.699 L430.158 649.73 L433.401 644.78 L436.644 639.858 L439.887 634.97 L443.13 630.127 L446.373 625.337 L449.616 620.604 L452.859 615.933 L456.103 611.329 L459.346 606.796 L462.589 602.343 L465.832 597.975 L469.075 593.702 L472.318 589.531 L475.561 585.472 L478.804 581.534 L482.047 577.728 L485.29 574.063 L488.533 570.54 L491.776 567.159 L495.019 563.921 L498.262 560.824 L501.505 557.863 L504.748 555.03 L507.991 552.312 L511.234 549.695 L514.477 547.164 L517.72 544.706 L520.963 542.31 L524.206 539.964 L527.449 537.657 L530.692 535.379 L533.935 533.123 L537.178 530.88 L540.421 528.643 L543.664 526.408 L546.907 524.17 L550.15 521.925 L553.393 519.67 L556.636 517.405 L559.879 515.128 L563.122 512.84 L566.366 510.542 L569.609 508.235 L572.852 505.924 L576.095 503.611 L579.338 501.302 L582.581 499.001 L585.824 496.715 L589.067 494.45 L592.31 492.216 L595.553 490.018 L598.796 487.868 L602.039 485.774 L605.282 483.746 L608.525 481.795 L611.768 479.933 L615.011 478.168 L618.254 476.501 L621.497 474.931 L624.74 473.458 L627.983 472.081 L631.226 470.801 L634.469 469.618 L637.712 468.533 L640.955 467.547 L644.198 466.662 L647.441 465.88 L650.684 465.202 L653.927 464.631 L657.17 464.16 L660.413 463.784 L663.656 463.496 L666.899 463.29 L670.142 463.163 L673.385 463.108 L676.629 463.122 L679.872 463.201 L683.115 463.342 L686.358 463.543 L689.601 463.801 L692.844 464.116 L696.087 464.487 L699.33 464.913 L702.573 465.395 L705.816 465.935 L709.059 466.534 L712.302 467.193 L715.545 467.917 L718.788 468.707 L722.031 469.569 L725.274 470.505 L728.517 471.52 L731.76 472.62 L735.003 473.809 L738.246 475.093 L741.489 476.474 L744.732 477.946 L747.975 479.498 L751.218 481.121 L754.461 482.804 L757.704 484.538 L760.947 486.315 L764.19 488.126 L767.433 489.963 L770.676 491.819 L773.919 493.687 L777.162 495.56 L780.405 497.432 L783.648 499.297 L786.892 501.151 L790.135 502.99 L793.378 504.809 L796.621 506.605 L799.864 508.376 L803.107 510.119 L806.35 511.833 L809.593 513.518 L812.836 515.172 L816.079 516.796 L819.322 518.392 L822.565 519.961 L825.808 521.506 L829.051 523.03 L832.294 524.537 L835.537 526.031 L838.78 527.519 L842.023 529.007 L845.266 530.502 L848.509 532.012 L851.752 533.545 L854.995 535.112 L858.238 536.722 L861.481 538.388 L864.724 540.12 L867.967 541.932 L871.21 543.837 L874.453 545.848 L877.696 547.978 L880.939 550.237 L884.182 552.633 L887.425 555.175 L890.668 557.872 L893.911 560.732 L897.155 563.767 L900.398 566.983 L903.641 570.391 L906.884 574.001 L910.127 577.818 L913.37 581.843 L916.613 586.074 L919.856 590.508 L923.099 595.143 L926.342 599.977 L929.585 605.006 L932.828 610.226 L936.071 615.624 L939.314 621.184 L942.557 626.89 L945.8 632.727 L949.043 638.681 L952.286 644.738 L955.529 650.884 L958.772 657.107 L962.015 663.395 L965.258 669.735 L968.501 676.117 L971.744 682.532 L974.987 688.968 L978.23 695.418 L981.473 701.872 L984.716 708.323 L987.959 714.763 L991.202 721.186 L994.445 727.585 L997.688 733.953 L1000.93 740.286 L1004.17 746.578 L1007.42 752.825 L1010.66 759.021 L1013.9 765.164 L1017.15 771.248 L1020.39 777.271 L1023.63 783.229 L1026.88 789.12 L1030.12 794.94 L1033.36 800.687 L1036.6 806.36 L1039.85 811.955 L1043.09 817.471 L1046.33 822.906 L1049.58 828.26 L1052.82 833.53 L1056.06 838.716 L1059.31 843.816 L1062.55 848.831 L1065.79 853.758 L1069.04 858.599 L1072.28 863.352 L1075.52 868.017 L1078.76 872.595 L1082.01 877.085 L1085.25 881.487 L1088.49 885.803 L1091.74 890.032 L1094.98 894.176 L1098.22 898.234 L1101.47 902.209 L1104.71 906.1 L1107.95 909.91 L1111.19 913.639 L1114.44 917.29 L1117.68 920.863 L1120.92 924.361 L1124.17 927.785 L1127.41 931.138 L1130.65 934.421 L1133.9 937.638 L1137.14 940.791 L1140.38 943.883 L1143.62 946.916 L1146.87 949.895 L1150.11 952.821 L1153.35 955.699 L1156.6 958.533 L1159.84 961.326 L1163.08 964.083 L1166.33 966.808 L1169.57 969.505 L1172.81 972.18 L1176.06 974.838 L1179.3 977.483 L1182.54 980.122 L1185.78 982.76 L1189.03 985.403 L1192.27 988.058 L1195.51 990.73 L1198.76 993.427 L1202 996.155 L1205.24 998.922 L1208.49 1001.73 L1211.73 1004.6 L1214.97 1007.53 L1218.21 1010.52 L1221.46 1013.59 L1224.7 1016.74 L1227.94 1019.98 L1231.19 1023.33 L1234.43 1026.78 L1237.67 1030.33 L1240.92 1034 L1244.16 1037.76 L1247.4 1041.61 L1250.64 1045.55 L1253.89 1049.56 L1257.13 1053.64 L1260.37 1057.77 L1263.62 1061.96 L1266.86 1066.19 L1270.1 1070.46 L1273.35 1074.75 L1276.59 1079.07 L1279.83 1083.4 L1283.08 1087.75 L1286.32 1092.09 L1289.56 1096.43 L1292.8 1100.77 L1296.05 1105.09 L1299.29 1109.39 L1302.53 1113.66 L1305.78 1117.91 L1309.02 1122.12 L1312.26 1126.3 L1315.51 1130.44 L1318.75 1134.53 L1321.99 1138.58 L1325.23 1142.58 L1328.48 1146.52 L1331.72 1150.42 L1334.96 1154.26 L1338.21 1158.04 L1341.45 1161.77 L1344.69 1165.44 L1347.94 1169.05 L1351.18 1172.61 L1354.42 1176.1 L1357.66 1179.54 L1360.91 1182.93 L1364.15 1186.26 L1367.39 1189.53 L1370.64 1192.76 L1373.88 1195.94 L1377.12 1199.07 L1380.37 1202.16 L1383.61 1205.22 L1386.85 1208.24 L1390.1 1211.23 L1393.34 1214.19 L1396.58 1217.14 L1399.82 1220.08 L1403.07 1223.01 L1406.31 1225.93 L1409.55 1228.87 L1412.8 1231.82 L1416.04 1234.8 L1419.28 1237.81 L1422.53 1240.86 L1425.77 1243.96 L1429.01 1247.13 L1432.25 1250.36 L1435.5 1253.68 L1438.74 1257.08 L1441.98 1260.59 L1445.23 1264.2 L1448.47 1267.94 L1451.71 1271.8 L1454.96 1275.78 L1458.2 1279.86 L1461.44 1284.04 L1464.68 1288.29 L1467.93 1292.61 L1471.17 1296.99 L1474.41 1301.41 L1477.66 1305.85 L1480.9 1310.31 L1484.14 1314.78 L1487.39 1319.24 L1490.63 1323.68 L1493.87 1328.1 L1497.11 1332.47 L1500.36 1336.8 L1503.6 1341.08 L1506.84 1345.29 L1510.09 1349.43 L1513.33 1353.49 L1516.57 1357.47 L1519.82 1361.36 L1523.06 1365.16 L1526.3 1368.85 L1529.55 1372.45 L1532.79 1375.94 L1536.03 1379.32 L1539.27 1382.6 L1542.52 1385.76 L1545.76 1388.82 L1549 1391.76 L1552.25 1394.59 L1555.49 1397.31 L1558.73 1399.93 L1561.98 1402.43 L1565.22 1404.84 L1568.46 1407.14 L1571.7 1409.35 L1574.95 1411.46 L1578.19 1413.49 L1581.43 1415.43 L1584.68 1417.29 L1587.92 1419.06 L1591.16 1420.76 L1594.41 1422.38 L1597.65 1423.92 L1600.89 1425.37 L1604.13 1426.75 L1607.38 1428.05 L1610.62 1429.28 L1613.86 1430.43 L1617.11 1431.51 L1620.35 1432.52 L1623.59 1433.46 L1626.84 1434.35 L1630.08 1435.17 L1633.32 1435.94 L1636.57 1436.66 L1639.81 1437.32 L1643.05 1437.93 L1646.29 1438.49 L1649.54 1439 L1652.78 1439.47 L1656.02 1439.89 L1659.27 1440.27 L1662.51 1440.61 L1665.75 1440.93 L1669 1441.21 L1672.24 1441.47 L1675.48 1441.71 L1678.72 1441.93 L1681.97 1442.15 L1685.21 1442.36 L1688.45 1442.57 L1691.7 1442.76 L1694.94 1442.94 L1698.18 1443.11 L1701.43 1443.25 L1704.67 1443.37 L1707.91 1443.46 L1711.15 1443.52 L1714.4 1443.56 L1717.64 1443.57 L1720.88 1443.55 L1724.13 1443.5 L1727.37 1443.42 L1730.61 1443.32 L1733.86 1443.19 L1737.1 1443.05 L1740.34 1442.88 L1743.59 1442.7 L1746.83 1442.5 L1750.07 1442.3 L1753.31 1442.09 L1756.56 1441.89 L1759.8 1441.69 L1763.04 1441.5 L1766.29 1441.33 L1769.53 1441.18 L1772.77 1441.06 L1776.02 1440.98 L1779.26 1440.93 L1782.5 1440.93 L1785.74 1440.98 L1788.99 1441.08 L1792.23 1441.21 L1795.47 1441.39 L1798.72 1441.59 L1801.96 1441.82 L1805.2 1442.07 L1808.45 1442.34 L1811.69 1442.62 L1814.93 1442.91 L1818.17 1443.2 L1821.42 1443.5 L1824.66 1443.78 L1827.9 1444.06 L1831.15 1444.33 L1834.39 1444.58 L1837.63 1444.82 L1840.88 1445.03 L1844.12 1445.22 L1847.36 1445.38 L1850.61 1445.51 L1853.85 1445.62 L1857.09 1445.68 L1860.33 1445.72 L1863.58 1445.71 L1866.82 1445.66 L1870.06 1445.58 L1873.31 1445.45 L1876.55 1445.28 L1879.79 1445.06 L1883.04 1444.8 L1886.28 1444.49 L1889.52 1444.13 L1892.76 1443.72 L1896.01 1443.27 L1899.25 1442.76 L1902.49 1442.2 L1905.74 1441.59 L1908.98 1440.93 L1912.22 1440.21 L1915.47 1439.44 L1918.71 1438.62 L1921.95 1437.75 L1925.19 1436.82 L1928.44 1435.83 L1931.68 1434.8 L1934.92 1433.7 L1938.17 1432.56 L1941.41 1431.36 L1944.65 1430.1 L1947.9 1428.79 L1951.14 1427.42 L1954.38 1426 L1957.63 1424.52 L1960.87 1422.99 L1964.11 1421.41 L1967.35 1419.77 L1970.6 1418.07 L1973.84 1416.32 L1977.08 1414.52 L1980.33 1412.66 L1983.57 1410.75 L1986.81 1408.79 L1990.06 1406.77 L1993.3 1404.69 L1996.54 1402.57 L1999.78 1400.39 L2003.03 1398.15 L2006.27 1395.87 L2009.51 1393.53 L2012.76 1391.14 L2016 1388.7 L2019.24 1386.21 L2022.49 1383.66 L2025.73 1381.07 L2028.97 1378.42 L2032.21 1375.72 L2035.46 1372.98 L2038.7 1370.18 L2041.94 1367.33 L2045.19 1364.44 L2048.43 1361.5 L2051.67 1358.51 L2054.92 1355.47 L2058.16 1352.39 L2061.4 1349.26 L2064.65 1346.08 L2067.89 1342.86 L2071.13 1339.6 L2074.37 1336.29 L2077.62 1332.95 L2080.86 1329.56 L2084.1 1326.13 L2087.35 1322.66 L2090.59 1319.15 L2093.83 1315.6 L2097.08 1312.02 L2100.32 1308.41 L2103.56 1304.76 L2106.8 1301.08 L2110.05 1297.36 L2113.29 1293.63 L2116.53 1289.86 L2119.78 1286.07 L2123.02 1282.26 L2126.26 1278.42 L2129.51 1274.57 L2132.75 1270.71 L2135.99 1266.83 L2139.23 1262.94 L2142.48 1259.04 L2145.72 1255.14 L2148.96 1251.24 L2152.21 1247.35 L2155.45 1243.46 L2158.69 1239.58 L2161.94 1235.72 L2165.18 1231.88 L2168.42 1228.06 L2171.67 1224.28 L2174.91 1220.53 L2178.15 1216.82 L2181.39 1213.16 L2184.64 1209.56 L2187.88 1206.01 L2191.12 1202.53 L2194.37 1199.13 L2197.61 1195.81 L2200.85 1192.58 L2204.1 1189.45 L2207.34 1186.43 L2210.58 1183.52 L2213.82 1180.73 L2217.07 1178.08 L2220.31 1175.57 L2223.55 1173.22 L2226.8 1171.02 L2230.04 1169 L2233.28 1167.15 L2236.53 1165.5 L2239.77 1164.04 L2243.01 1162.79 L2246.25 1161.76 L2249.5 1160.95 L2252.74 1160.35 L2255.98 1159.97 L2259.23 1159.78 L2262.47 1159.78 L2265.71 1159.97 L2268.96 1160.33 L2272.2 1160.86 L2275.44 1161.54 L2278.69 1162.36 L2281.93 1163.33 L2285.17 1164.43 L2288.41 1165.64 L2291.66 1166.97 L2291.66 555.533 L2288.41 558.648 L2285.17 561.685 L2281.93 564.635 L2278.69 567.492 L2275.44 570.247 L2272.2 572.892 L2268.96 575.42 L2265.71 577.822 L2262.47 580.089 L2259.23 582.214 L2255.98 584.189 L2252.74 586.006 L2249.5 587.657 L2246.25 589.135 L2243.01 590.435 L2239.77 591.563 L2236.53 592.528 L2233.28 593.337 L2230.04 593.999 L2226.8 594.524 L2223.55 594.92 L2220.31 595.197 L2217.07 595.364 L2213.82 595.429 L2210.58 595.402 L2207.34 595.292 L2204.1 595.106 L2200.85 594.855 L2197.61 594.545 L2194.37 594.185 L2191.12 593.782 L2187.88 593.343 L2184.64 592.877 L2181.39 592.389 L2178.15 591.886 L2174.91 591.375 L2171.67 590.86 L2168.42 590.349 L2165.18 589.845 L2161.94 589.354 L2158.69 588.882 L2155.45 588.431 L2152.21 588.007 L2148.96 587.614 L2145.72 587.256 L2142.48 586.935 L2139.23 586.656 L2135.99 586.421 L2132.75 586.233 L2129.51 586.096 L2126.26 586.012 L2123.02 585.983 L2119.78 586.012 L2116.53 586.1 L2113.29 586.25 L2110.05 586.464 L2106.8 586.743 L2103.56 587.09 L2100.32 587.505 L2097.08 587.99 L2093.83 588.546 L2090.59 589.175 L2087.35 589.877 L2084.1 590.655 L2080.86 591.508 L2077.62 592.438 L2074.37 593.446 L2071.13 594.532 L2067.89 595.697 L2064.65 596.942 L2061.4 598.267 L2058.16 599.673 L2054.92 601.161 L2051.67 602.731 L2048.43 604.383 L2045.19 606.118 L2041.94 607.936 L2038.7 609.838 L2035.46 611.823 L2032.21 613.892 L2028.97 616.046 L2025.73 618.283 L2022.49 620.605 L2019.24 623.012 L2016 625.503 L2012.76 628.079 L2009.51 630.74 L2006.27 633.485 L2003.03 636.315 L1999.78 639.229 L1996.54 642.227 L1993.3 645.31 L1990.06 648.477 L1986.81 651.728 L1983.57 655.062 L1980.33 658.48 L1977.08 661.98 L1973.84 665.564 L1970.6 669.23 L1967.35 672.977 L1964.11 676.806 L1960.87 680.716 L1957.63 684.707 L1954.38 688.777 L1951.14 692.927 L1947.9 697.155 L1944.65 701.461 L1941.41 705.843 L1938.17 710.303 L1934.92 714.837 L1931.68 719.446 L1928.44 724.129 L1925.19 728.883 L1921.95 733.709 L1918.71 738.605 L1915.47 743.569 L1912.22 748.601 L1908.98 753.698 L1905.74 758.86 L1902.49 764.084 L1899.25 769.369 L1896.01 774.713 L1892.76 780.114 L1889.52 785.569 L1886.28 791.078 L1883.04 796.636 L1879.79 802.242 L1876.55 807.894 L1873.31 813.588 L1870.06 819.321 L1866.82 825.09 L1863.58 830.892 L1860.33 836.724 L1857.09 842.581 L1853.85 848.461 L1850.61 854.358 L1847.36 860.268 L1844.12 866.188 L1840.88 872.111 L1837.63 878.034 L1834.39 883.95 L1831.15 889.855 L1827.9 895.742 L1824.66 901.606 L1821.42 907.439 L1818.17 913.236 L1814.93 918.99 L1811.69 924.693 L1808.45 930.338 L1805.2 935.917 L1801.96 941.422 L1798.72 946.845 L1795.47 952.178 L1792.23 957.413 L1788.99 962.539 L1785.74 967.55 L1782.5 972.435 L1779.26 977.189 L1776.02 981.815 L1772.77 986.317 L1769.53 990.703 L1766.29 994.976 L1763.04 999.143 L1759.8 1003.21 L1756.56 1007.18 L1753.31 1011.05 L1750.07 1014.84 L1746.83 1018.54 L1743.59 1022.17 L1740.34 1025.71 L1737.1 1029.18 L1733.86 1032.57 L1730.61 1035.89 L1727.37 1039.14 L1724.13 1042.31 L1720.88 1045.41 L1717.64 1048.44 L1714.4 1051.39 L1711.15 1054.26 L1707.91 1057.05 L1704.67 1059.75 L1701.43 1062.36 L1698.18 1064.88 L1694.94 1067.29 L1691.7 1069.6 L1688.45 1071.79 L1685.21 1073.86 L1681.97 1075.8 L1678.72 1077.6 L1675.48 1079.26 L1672.24 1080.79 L1669 1082.17 L1665.75 1083.42 L1662.51 1084.52 L1659.27 1085.48 L1656.02 1086.3 L1652.78 1086.96 L1649.54 1087.47 L1646.29 1087.83 L1643.05 1088.02 L1639.81 1088.04 L1636.57 1087.88 L1633.32 1087.55 L1630.08 1087.02 L1626.84 1086.31 L1623.59 1085.4 L1620.35 1084.31 L1617.11 1083.04 L1613.86 1081.6 L1610.62 1080 L1607.38 1078.24 L1604.13 1076.32 L1600.89 1074.24 L1597.65 1072.02 L1594.41 1069.64 L1591.16 1067.12 L1587.92 1064.46 L1584.68 1061.64 L1581.43 1058.69 L1578.19 1055.59 L1574.95 1052.36 L1571.7 1049 L1568.46 1045.54 L1565.22 1041.99 L1561.98 1038.34 L1558.73 1034.62 L1555.49 1030.83 L1552.25 1026.98 L1549 1023.08 L1545.76 1019.14 L1542.52 1015.16 L1539.27 1011.15 L1536.03 1007.11 L1532.79 1003.05 L1529.55 998.968 L1526.3 994.873 L1523.06 990.765 L1519.82 986.646 L1516.57 982.515 L1513.33 978.372 L1510.09 974.217 L1506.84 970.049 L1503.6 965.865 L1500.36 961.661 L1497.11 957.434 L1493.87 953.181 L1490.63 948.894 L1487.39 944.569 L1484.14 940.199 L1480.9 935.777 L1477.66 931.295 L1474.41 926.745 L1471.17 922.118 L1467.93 917.405 L1464.68 912.597 L1461.44 907.683 L1458.2 902.655 L1454.96 897.502 L1451.71 892.215 L1448.47 886.784 L1445.23 881.203 L1441.98 875.481 L1438.74 869.629 L1435.5 863.658 L1432.25 857.579 L1429.01 851.405 L1425.77 845.146 L1422.53 838.815 L1419.28 832.423 L1416.04 825.979 L1412.8 819.495 L1409.55 812.981 L1406.31 806.446 L1403.07 799.898 L1399.82 793.347 L1396.58 786.801 L1393.34 780.267 L1390.1 773.752 L1386.85 767.263 L1383.61 760.806 L1380.37 754.386 L1377.12 748.009 L1373.88 741.68 L1370.64 735.401 L1367.39 729.178 L1364.15 723.014 L1360.91 716.911 L1357.66 710.873 L1354.42 704.901 L1351.18 698.997 L1347.94 693.163 L1344.69 687.4 L1341.45 681.709 L1338.21 676.09 L1334.96 670.542 L1331.72 665.067 L1328.48 659.663 L1325.23 654.329 L1321.99 649.064 L1318.75 643.866 L1315.51 638.734 L1312.26 633.666 L1309.02 628.658 L1305.78 623.709 L1302.53 618.814 L1299.29 613.971 L1296.05 609.176 L1292.8 604.424 L1289.56 599.711 L1286.32 595.033 L1283.08 590.385 L1279.83 585.761 L1276.59 581.157 L1273.35 576.565 L1270.1 571.981 L1266.86 567.398 L1263.62 562.81 L1260.37 558.209 L1257.13 553.591 L1253.89 548.947 L1250.64 544.27 L1247.4 539.555 L1244.16 534.793 L1240.92 529.979 L1237.67 525.104 L1234.43 520.164 L1231.19 515.152 L1227.94 510.074 L1224.7 504.935 L1221.46 499.741 L1218.21 494.498 L1214.97 489.213 L1211.73 483.892 L1208.49 478.541 L1205.24 473.167 L1202 467.776 L1198.76 462.373 L1195.51 456.965 L1192.27 451.557 L1189.03 446.155 L1185.78 440.764 L1182.54 435.39 L1179.3 430.038 L1176.06 424.711 L1172.81 419.416 L1169.57 414.155 L1166.33 408.934 L1163.08 403.757 L1159.84 398.627 L1156.6 393.547 L1153.35 388.522 L1150.11 383.555 L1146.87 378.648 L1143.62 373.805 L1140.38 369.028 L1137.14 364.32 L1133.9 359.684 L1130.65 355.121 L1127.41 350.633 L1124.17 346.224 L1120.92 341.894 L1117.68 337.645 L1114.44 333.48 L1111.19 329.399 L1107.95 325.404 L1104.71 321.496 L1101.47 317.677 L1098.22 313.947 L1094.98 310.308 L1091.74 306.761 L1088.49 303.305 L1085.25 299.943 L1082.01 296.674 L1078.76 293.499 L1075.52 290.418 L1072.28 287.433 L1069.04 284.542 L1065.79 281.747 L1062.55 279.047 L1059.31 276.442 L1056.06 273.933 L1052.82 271.518 L1049.58 269.198 L1046.33 266.971 L1043.09 264.838 L1039.85 262.798 L1036.6 260.85 L1033.36 258.992 L1030.12 257.225 L1026.88 255.546 L1023.63 253.953 L1020.39 252.447 L1017.15 251.024 L1013.9 249.682 L1010.66 248.42 L1007.42 247.235 L1004.17 246.124 L1000.93 245.085 L997.688 244.113 L994.445 243.206 L991.202 242.36 L987.959 241.57 L984.716 240.833 L981.473 240.142 L978.23 239.493 L974.987 238.88 L971.744 238.296 L968.501 237.735 L965.258 237.19 L962.015 236.652 L958.772 236.114 L955.529 235.567 L952.286 235.001 L949.043 234.407 L945.8 233.773 L942.557 233.09 L939.314 232.345 L936.071 231.528 L932.828 230.625 L929.585 229.626 L926.342 228.518 L923.099 227.296 L919.856 225.952 L916.613 224.482 L913.37 222.879 L910.127 221.139 L906.884 219.257 L903.641 217.229 L900.398 215.058 L897.155 212.747 L893.911 210.3 L890.668 207.721 L887.425 205.015 L884.182 202.186 L880.939 199.237 L877.696 196.173 L874.453 192.998 L871.21 189.717 L867.967 186.344 L864.724 182.895 L861.481 179.385 L858.238 175.829 L854.995 172.242 L851.752 168.636 L848.509 165.024 L845.266 161.419 L842.023 157.833 L838.78 154.275 L835.537 150.757 L832.294 147.287 L829.051 143.875 L825.808 140.527 L822.565 137.252 L819.322 134.056 L816.079 130.946 L812.836 127.926 L809.593 125.002 L806.35 122.178 L803.107 119.458 L799.864 116.845 L796.621 114.343 L793.378 111.953 L790.135 109.678 L786.892 107.519 L783.648 105.477 L780.405 103.553 L777.162 101.747 L773.919 100.06 L770.676 98.4896 L767.433 97.0364 L764.19 95.6989 L760.947 94.4758 L757.704 93.3652 L754.461 92.3652 L751.218 91.4737 L747.975 90.6881 L744.732 90.0061 L741.489 89.4248 L738.246 88.9417 L735.003 88.5545 L731.76 88.2638 L728.517 88.0707 L725.274 87.9763 L722.031 87.9815 L718.788 88.0872 L715.545 88.294 L712.302 88.6022 L709.059 89.0119 L705.816 89.5229 L702.573 90.1347 L699.33 90.8463 L696.087 91.6566 L692.844 92.5638 L689.601 93.5659 L686.358 94.6605 L683.115 95.8447 L679.872 97.1153 L676.629 98.4684 L673.385 99.9001 L670.142 101.406 L666.899 102.981 L663.656 104.62 L660.413 106.317 L657.17 108.068 L653.927 109.865 L650.684 111.703 L647.441 113.576 L644.198 115.487 L640.955 117.438 L637.712 119.431 L634.469 121.469 L631.226 123.554 L627.983 125.688 L624.74 127.873 L621.497 130.111 L618.254 132.403 L615.011 134.751 L611.768 137.155 L608.525 139.617 L605.282 142.143 L602.039 144.738 L598.796 147.407 L595.553 150.155 L592.31 152.986 L589.067 155.906 L585.824 158.917 L582.581 162.023 L579.338 165.226 L576.095 168.529 L572.852 171.932 L569.609 175.437 L566.366 179.043 L563.122 182.75 L559.879 186.557 L556.636 190.461 L553.393 194.459 L550.15 198.548 L546.907 202.723 L543.664 206.98 L540.421 211.31 L537.178 215.709 L533.935 220.167 L530.692 224.676 L527.449 229.227 L524.206 233.807 L520.963 238.407 L517.72 243.013 L514.477 247.613 L511.234 252.191 L507.991 256.735 L504.748 261.228 L501.505 265.655 L498.262 270.001 L495.019 274.257 L491.776 278.414 L488.533 282.473 L485.29 286.432 L482.047 290.291 L478.804 294.051 L475.561 297.715 L472.318 301.288 L469.075 304.774 L465.832 308.176 L462.589 311.497 L459.346 314.739 L456.103 317.904 L452.859 320.994 L449.616 324.007 L446.373 326.945 L443.13 329.805 L439.887 332.587 L436.644 335.297 L433.401 337.939 L430.158 340.518 L426.915 343.039 L423.672 345.504 L420.429 347.916 L417.186 350.276 L413.943 352.584 L410.7 354.84 L407.457 357.043 L404.214 359.19 L400.971 361.279 L397.728 363.307 L394.485 365.268 L391.242 367.158 L387.999 368.971 L384.756 370.702 L381.513 372.346 L378.27 373.905 L375.027 375.383 L371.784 376.784 L368.541 378.112 L365.298 379.368 L362.055 380.555 L358.812 381.675 L355.569 382.727 L352.326 383.713 L349.083 384.633 L345.84 385.486 L342.596 386.27 L339.353 386.984 L336.11 387.625 L332.867 388.192 L329.624 388.68 L326.381 389.087 L323.138 389.409 L319.895 389.641 L316.652 389.779 L313.409 389.818 L310.166 389.754 L306.923 389.582 L303.68 389.297 L300.437 388.893 L297.194 388.369 L293.951 387.728 L290.708 386.978 L287.465 386.125 L284.222 385.175 L280.979 384.136 L277.736 383.013 L274.493 381.813 L271.25 380.541 L268.007 379.205 L264.764 377.809 L261.521 376.358 L258.278 374.859 L255.035 373.315  Z" fill="#3da44d" fill-rule="evenodd" fill-opacity="0.1"/>
<polyline clip-path="url(#clip272)" style="stroke:#3da44d; stroke-linecap:round; stroke-linejoin:round; stroke-width:8; stroke-opacity:1; fill:none" points="255.035,650.617 258.278,648.508 261.521,646.375 264.764,644.22 268.007,642.04 271.25,639.837 274.493,637.61 277.736,635.358 280.979,633.082 284.222,630.782 287.465,628.457 290.708,626.108 293.951,623.733 297.194,621.334 300.437,618.909 303.68,616.458 306.923,613.982 310.166,611.478 313.409,608.948 316.652,606.389 319.895,603.802 323.138,601.185 326.381,598.538 329.624,595.861 332.867,593.152 336.11,590.411 339.353,587.637 342.596,584.831 345.84,581.99 349.083,579.115 352.326,576.204 355.569,573.258 358.812,570.275 362.055,567.255 365.298,564.197 368.541,561.1 371.784,557.965 375.027,554.79 378.27,551.574 381.513,548.317 384.756,545.018 387.999,541.678 391.242,538.297 394.485,534.876 397.728,531.418 400.971,527.924 404.214,524.395 407.457,520.834 410.7,517.241 413.943,513.619 417.186,509.97 420.429,506.293 423.672,502.593 426.915,498.869 430.158,495.124 433.401,491.36 436.644,487.577 439.887,483.779 443.13,479.966 446.373,476.141 449.616,472.306 452.859,468.463 456.103,464.616 459.346,460.768 462.589,456.92 465.832,453.076 469.075,449.238 472.318,445.409 475.561,441.593 478.804,437.792 482.047,434.01 485.29,430.247 488.533,426.506 491.776,422.787 495.019,419.089 498.262,415.412 501.505,411.759 504.748,408.129 507.991,404.523 511.234,400.943 514.477,397.388 517.72,393.86 520.963,390.359 524.206,386.886 527.449,383.442 530.692,380.028 533.935,376.645 537.178,373.294 540.421,369.977 543.664,366.694 546.907,363.447 550.15,360.236 553.393,357.065 556.636,353.933 559.879,350.843 563.122,347.795 566.366,344.792 569.609,341.836 572.852,338.928 576.095,336.07 579.338,333.264 582.581,330.512 585.824,327.816 589.067,325.178 592.31,322.601 595.553,320.087 598.796,317.637 602.039,315.256 605.282,312.945 608.525,310.706 611.768,308.544 615.011,306.459 618.254,304.452 621.497,302.521 624.74,300.666 627.983,298.885 631.226,297.178 634.469,295.544 637.712,293.982 640.955,292.493 644.198,291.075 647.441,289.728 650.684,288.452 653.927,287.248 657.17,286.114 660.413,285.051 663.656,284.058 666.899,283.136 670.142,282.284 673.385,281.504 676.629,280.795 679.872,280.158 683.115,279.593 686.358,279.102 689.601,278.684 692.844,278.34 696.087,278.072 699.33,277.88 702.573,277.765 705.816,277.729 709.059,277.773 712.302,277.898 715.545,278.105 718.788,278.397 722.031,278.775 725.274,279.241 728.517,279.795 731.76,280.442 735.003,281.182 738.246,282.017 741.489,282.95 744.732,283.976 747.975,285.093 751.218,286.297 754.461,287.584 757.704,288.952 760.947,290.395 764.19,291.912 767.433,293.5 770.676,295.154 773.919,296.873 777.162,298.653 780.405,300.492 783.648,302.387 786.892,304.335 790.135,306.334 793.378,308.381 796.621,310.474 799.864,312.611 803.107,314.788 806.35,317.006 809.593,319.26 812.836,321.549 816.079,323.871 819.322,326.224 822.565,328.606 825.808,331.016 829.051,333.452 832.294,335.912 835.537,338.394 838.78,340.897 842.023,343.42 845.266,345.961 848.509,348.518 851.752,351.09 854.995,353.677 858.238,356.276 861.481,358.886 864.724,361.508 867.967,364.138 871.21,366.777 874.453,369.423 877.696,372.075 880.939,374.737 884.182,377.409 887.425,380.095 890.668,382.796 893.911,385.516 897.155,388.257 900.398,391.021 903.641,393.81 906.884,396.629 910.127,399.479 913.37,402.361 916.613,405.278 919.856,408.23 923.099,411.219 926.342,414.248 929.585,417.316 932.828,420.426 936.071,423.576 939.314,426.765 942.557,429.99 945.8,433.25 949.043,436.544 952.286,439.87 955.529,443.226 958.772,446.611 962.015,450.023 965.258,453.462 968.501,456.926 971.744,460.414 974.987,463.924 978.23,467.455 981.473,471.007 984.716,474.578 987.959,478.167 991.202,481.773 994.445,485.395 997.688,489.033 1000.93,492.685 1004.17,496.351 1007.42,500.03 1010.66,503.721 1013.9,507.423 1017.15,511.136 1020.39,514.859 1023.63,518.591 1026.88,522.333 1030.12,526.082 1033.36,529.84 1036.6,533.605 1039.85,537.376 1043.09,541.155 1046.33,544.939 1049.58,548.729 1052.82,552.524 1056.06,556.324 1059.31,560.129 1062.55,563.939 1065.79,567.753 1069.04,571.571 1072.28,575.392 1075.52,579.218 1078.76,583.047 1082.01,586.879 1085.25,590.715 1088.49,594.554 1091.74,598.396 1094.98,602.242 1098.22,606.091 1101.47,609.943 1104.71,613.798 1107.95,617.657 1111.19,621.519 1114.44,625.385 1117.68,629.254 1120.92,633.127 1124.17,637.004 1127.41,640.885 1130.65,644.771 1133.9,648.661 1137.14,652.556 1140.38,656.456 1143.62,660.361 1146.87,664.271 1150.11,668.188 1153.35,672.111 1156.6,676.04 1159.84,679.976 1163.08,683.92 1166.33,687.871 1169.57,691.83 1172.81,695.798 1176.06,699.774 1179.3,703.76 1182.54,707.756 1185.78,711.762 1189.03,715.779 1192.27,719.807 1195.51,723.847 1198.76,727.9 1202,731.965 1205.24,736.045 1208.49,740.138 1211.73,744.246 1214.97,748.369 1218.21,752.508 1221.46,756.665 1224.7,760.838 1227.94,765.029 1231.19,769.24 1234.43,773.469 1237.67,777.719 1240.92,781.989 1244.16,786.277 1247.4,790.584 1250.64,794.91 1253.89,799.253 1257.13,803.613 1260.37,807.991 1263.62,812.384 1266.86,816.794 1270.1,821.219 1273.35,825.659 1276.59,830.114 1279.83,834.583 1283.08,839.066 1286.32,843.563 1289.56,848.073 1292.8,852.596 1296.05,857.131 1299.29,861.679 1302.53,866.238 1305.78,870.808 1309.02,875.39 1312.26,879.983 1315.51,884.585 1318.75,889.198 1321.99,893.821 1325.23,898.453 1328.48,903.094 1331.72,907.743 1334.96,912.401 1338.21,917.067 1341.45,921.74 1344.69,926.421 1347.94,931.109 1351.18,935.803 1354.42,940.503 1357.66,945.209 1360.91,949.92 1364.15,954.636 1367.39,959.356 1370.64,964.081 1373.88,968.81 1377.12,973.541 1380.37,978.275 1383.61,983.012 1386.85,987.751 1390.1,992.49 1393.34,997.231 1396.58,1001.97 1399.82,1006.71 1403.07,1011.45 1406.31,1016.19 1409.55,1020.93 1412.8,1025.66 1416.04,1030.39 1419.28,1035.12 1422.53,1039.84 1425.77,1044.56 1429.01,1049.27 1432.25,1053.97 1435.5,1058.67 1438.74,1063.35 1441.98,1068.03 1445.23,1072.7 1448.47,1077.36 1451.71,1082.01 1454.96,1086.64 1458.2,1091.26 1461.44,1095.86 1464.68,1100.44 1467.93,1105.01 1471.17,1109.55 1474.41,1114.08 1477.66,1118.57 1480.9,1123.05 1484.14,1127.49 1487.39,1131.9 1490.63,1136.29 1493.87,1140.64 1497.11,1144.95 1500.36,1149.23 1503.6,1153.47 1506.84,1157.67 1510.09,1161.82 1513.33,1165.93 1516.57,1169.99 1519.82,1174 1523.06,1177.96 1526.3,1181.86 1529.55,1185.71 1532.79,1189.49 1536.03,1193.22 1539.27,1196.87 1542.52,1200.46 1545.76,1203.98 1549,1207.42 1552.25,1210.79 1555.49,1214.07 1558.73,1217.27 1561.98,1220.39 1565.22,1223.41 1568.46,1226.34 1571.7,1229.18 1574.95,1231.91 1578.19,1234.54 1581.43,1237.06 1584.68,1239.46 1587.92,1241.76 1591.16,1243.94 1594.41,1246.01 1597.65,1247.97 1600.89,1249.81 1604.13,1251.53 1607.38,1253.15 1610.62,1254.64 1613.86,1256.02 1617.11,1257.28 1620.35,1258.41 1623.59,1259.43 1626.84,1260.33 1630.08,1261.1 1633.32,1261.74 1636.57,1262.27 1639.81,1262.68 1643.05,1262.97 1646.29,1263.16 1649.54,1263.24 1652.78,1263.21 1656.02,1263.09 1659.27,1262.88 1662.51,1262.57 1665.75,1262.17 1669,1261.69 1672.24,1261.13 1675.48,1260.48 1678.72,1259.77 1681.97,1258.97 1685.21,1258.11 1688.45,1257.18 1691.7,1256.18 1694.94,1255.12 1698.18,1253.99 1701.43,1252.81 1704.67,1251.56 1707.91,1250.25 1711.15,1248.89 1714.4,1247.48 1717.64,1246.01 1720.88,1244.48 1724.13,1242.91 1727.37,1241.28 1730.61,1239.61 1733.86,1237.88 1737.1,1236.11 1740.34,1234.29 1743.59,1232.43 1746.83,1230.52 1750.07,1228.57 1753.31,1226.57 1756.56,1224.53 1759.8,1222.45 1763.04,1220.32 1766.29,1218.15 1769.53,1215.94 1772.77,1213.69 1776.02,1211.4 1779.26,1209.06 1782.5,1206.68 1785.74,1204.27 1788.99,1201.81 1792.23,1199.31 1795.47,1196.78 1798.72,1194.22 1801.96,1191.62 1805.2,1188.99 1808.45,1186.34 1811.69,1183.66 1814.93,1180.95 1818.17,1178.22 1821.42,1175.47 1824.66,1172.69 1827.9,1169.9 1831.15,1167.09 1834.39,1164.27 1837.63,1161.43 1840.88,1158.57 1844.12,1155.7 1847.36,1152.83 1850.61,1149.94 1853.85,1147.04 1857.09,1144.13 1860.33,1141.22 1863.58,1138.3 1866.82,1135.38 1870.06,1132.45 1873.31,1129.52 1876.55,1126.59 1879.79,1123.65 1883.04,1120.72 1886.28,1117.78 1889.52,1114.85 1892.76,1111.92 1896.01,1108.99 1899.25,1106.06 1902.49,1103.14 1905.74,1100.22 1908.98,1097.31 1912.22,1094.41 1915.47,1091.51 1918.71,1088.61 1921.95,1085.73 1925.19,1082.85 1928.44,1079.98 1931.68,1077.12 1934.92,1074.27 1938.17,1071.43 1941.41,1068.6 1944.65,1065.78 1947.9,1062.97 1951.14,1060.17 1954.38,1057.39 1957.63,1054.62 1960.87,1051.86 1964.11,1049.11 1967.35,1046.37 1970.6,1043.65 1973.84,1040.94 1977.08,1038.25 1980.33,1035.57 1983.57,1032.91 1986.81,1030.26 1990.06,1027.62 1993.3,1025 1996.54,1022.4 1999.78,1019.81 2003.03,1017.23 2006.27,1014.68 2009.51,1012.14 2012.76,1009.61 2016,1007.1 2019.24,1004.61 2022.49,1002.13 2025.73,999.674 2028.97,997.232 2032.21,994.807 2035.46,992.399 2038.7,990.008 2041.94,987.635 2045.19,985.279 2048.43,982.94 2051.67,980.619 2054.92,978.316 2058.16,976.03 2061.4,973.763 2064.65,971.512 2067.89,969.28 2071.13,967.066 2074.37,964.87 2077.62,962.692 2080.86,960.532 2084.1,958.39 2087.35,956.267 2090.59,954.161 2093.83,952.074 2097.08,950.005 2100.32,947.955 2103.56,945.923 2106.8,943.91 2110.05,941.914 2113.29,939.938 2116.53,937.98 2119.78,936.041 2123.02,934.12 2126.26,932.218 2129.51,930.334 2132.75,928.47 2135.99,926.624 2139.23,924.796 2142.48,922.988 2145.72,921.199 2148.96,919.428 2152.21,917.677 2155.45,915.944 2158.69,914.231 2161.94,912.536 2165.18,910.861 2168.42,909.205 2171.67,907.569 2174.91,905.951 2178.15,904.353 2181.39,902.775 2184.64,901.216 2187.88,899.677 2191.12,898.158 2194.37,896.658 2197.61,895.178 2200.85,893.718 2204.1,892.279 2207.34,890.859 2210.58,889.46 2213.82,888.081 2217.07,886.723 2220.31,885.386 2223.55,884.069 2226.8,882.773 2230.04,881.499 2233.28,880.245 2236.53,879.013 2239.77,877.803 2243.01,876.614 2246.25,875.447 2249.5,874.302 2252.74,873.179 2255.98,872.077 2259.23,870.996 2262.47,869.936 2265.71,868.896 2268.96,867.875 2272.2,866.874 2275.44,865.892 2278.69,864.928 2281.93,863.983 2285.17,863.055 2288.41,862.146 2291.66,861.253 "/>
<path clip-path="url(#clip270)" d="M1953.46 302.578 L2280.8 302.578 L2280.8 95.2176 L1953.46 95.2176  Z" fill="#ffffff" fill-rule="evenodd" fill-opacity="1"/>
<polyline clip-path="url(#clip270)" style="stroke:#000000; stroke-linecap:round; stroke-linejoin:round; stroke-width:4; stroke-opacity:1; fill:none" points="1953.46,302.578 2280.8,302.578 2280.8,95.2176 1953.46,95.2176 1953.46,302.578 "/>
<polyline clip-path="url(#clip270)" style="stroke:#009af9; stroke-linecap:round; stroke-linejoin:round; stroke-width:4; stroke-opacity:1; fill:none" points="1977.44,147.058 2121.36,147.058 "/>
<path clip-path="url(#clip270)" d="M2152.76 131.051 L2152.76 138.412 L2161.53 138.412 L2161.53 141.722 L2152.76 141.722 L2152.76 155.796 Q2152.76 158.967 2153.61 159.87 Q2154.49 160.773 2157.16 160.773 L2161.53 160.773 L2161.53 164.338 L2157.16 164.338 Q2152.23 164.338 2150.35 162.509 Q2148.48 160.657 2148.48 155.796 L2148.48 141.722 L2145.35 141.722 L2145.35 138.412 L2148.48 138.412 L2148.48 131.051 L2152.76 131.051 Z" fill="#000000" fill-rule="nonzero" fill-opacity="1" /><path clip-path="url(#clip270)" d="M2182.16 142.393 Q2181.44 141.977 2180.58 141.791 Q2179.75 141.583 2178.73 141.583 Q2175.12 141.583 2173.17 143.944 Q2171.25 146.282 2171.25 150.68 L2171.25 164.338 L2166.97 164.338 L2166.97 138.412 L2171.25 138.412 L2171.25 142.44 Q2172.6 140.078 2174.75 138.944 Q2176.9 137.787 2179.98 137.787 Q2180.42 137.787 2180.95 137.856 Q2181.48 137.903 2182.13 138.018 L2182.16 142.393 Z" fill="#000000" fill-rule="nonzero" fill-opacity="1" /><path clip-path="url(#clip270)" d="M2186.18 154.106 L2186.18 138.412 L2190.44 138.412 L2190.44 153.944 Q2190.44 157.625 2191.88 159.476 Q2193.31 161.305 2196.18 161.305 Q2199.63 161.305 2201.62 159.106 Q2203.64 156.907 2203.64 153.111 L2203.64 138.412 L2207.9 138.412 L2207.9 164.338 L2203.64 164.338 L2203.64 160.356 Q2202.09 162.717 2200.03 163.875 Q2197.99 165.009 2195.28 165.009 Q2190.81 165.009 2188.5 162.231 Q2186.18 159.453 2186.18 154.106 M2196.9 137.787 L2196.9 137.787 Z" fill="#000000" fill-rule="nonzero" fill-opacity="1" /><path clip-path="url(#clip270)" d="M2220.88 131.051 L2220.88 138.412 L2229.66 138.412 L2229.66 141.722 L2220.88 141.722 L2220.88 155.796 Q2220.88 158.967 2221.74 159.87 Q2222.62 160.773 2225.28 160.773 L2229.66 160.773 L2229.66 164.338 L2225.28 164.338 Q2220.35 164.338 2218.48 162.509 Q2216.6 160.657 2216.6 155.796 L2216.6 141.722 L2213.48 141.722 L2213.48 138.412 L2216.6 138.412 L2216.6 131.051 L2220.88 131.051 Z" fill="#000000" fill-rule="nonzero" fill-opacity="1" /><path clip-path="url(#clip270)" d="M2256.81 148.689 L2256.81 164.338 L2252.55 164.338 L2252.55 148.828 Q2252.55 145.148 2251.11 143.319 Q2249.68 141.49 2246.81 141.49 Q2243.36 141.49 2241.37 143.69 Q2239.38 145.889 2239.38 149.685 L2239.38 164.338 L2235.1 164.338 L2235.1 128.319 L2239.38 128.319 L2239.38 142.44 Q2240.91 140.102 2242.97 138.944 Q2245.05 137.787 2247.76 137.787 Q2252.23 137.787 2254.52 140.565 Q2256.81 143.319 2256.81 148.689 Z" fill="#000000" fill-rule="nonzero" fill-opacity="1" /><circle clip-path="url(#clip270)" cx="2049.4" cy="198.898" r="20.48" fill="#e26f46" fill-rule="evenodd" fill-opacity="1" stroke="#000000" stroke-opacity="1" stroke-width="4.55111"/>
<path clip-path="url(#clip270)" d="M2164.26 194.187 L2164.26 180.159 L2168.52 180.159 L2168.52 216.178 L2164.26 216.178 L2164.26 212.289 Q2162.92 214.603 2160.86 215.738 Q2158.82 216.849 2155.95 216.849 Q2151.25 216.849 2148.29 213.099 Q2145.35 209.349 2145.35 203.238 Q2145.35 197.127 2148.29 193.377 Q2151.25 189.627 2155.95 189.627 Q2158.82 189.627 2160.86 190.761 Q2162.92 191.872 2164.26 194.187 M2149.75 203.238 Q2149.75 207.937 2151.67 210.622 Q2153.61 213.284 2156.99 213.284 Q2160.37 213.284 2162.32 210.622 Q2164.26 207.937 2164.26 203.238 Q2164.26 198.539 2162.32 195.877 Q2160.37 193.192 2156.99 193.192 Q2153.61 193.192 2151.67 195.877 Q2149.75 198.539 2149.75 203.238 Z" fill="#000000" fill-rule="nonzero" fill-opacity="1" /><path clip-path="url(#clip270)" d="M2189.08 203.145 Q2183.92 203.145 2181.92 204.326 Q2179.93 205.506 2179.93 208.354 Q2179.93 210.622 2181.42 211.965 Q2182.92 213.284 2185.49 213.284 Q2189.03 213.284 2191.16 210.784 Q2193.31 208.261 2193.31 204.094 L2193.31 203.145 L2189.08 203.145 M2197.57 201.386 L2197.57 216.178 L2193.31 216.178 L2193.31 212.242 Q2191.85 214.603 2189.68 215.738 Q2187.5 216.849 2184.36 216.849 Q2180.37 216.849 2178.01 214.627 Q2175.67 212.381 2175.67 208.631 Q2175.67 204.256 2178.59 202.034 Q2181.53 199.812 2187.34 199.812 L2193.31 199.812 L2193.31 199.395 Q2193.31 196.455 2191.37 194.858 Q2189.45 193.238 2185.95 193.238 Q2183.73 193.238 2181.62 193.77 Q2179.52 194.303 2177.57 195.367 L2177.57 191.432 Q2179.91 190.53 2182.11 190.09 Q2184.31 189.627 2186.39 189.627 Q2192.02 189.627 2194.79 192.543 Q2197.57 195.46 2197.57 201.386 Z" fill="#000000" fill-rule="nonzero" fill-opacity="1" /><path clip-path="url(#clip270)" d="M2210.56 182.891 L2210.56 190.252 L2219.33 190.252 L2219.33 193.562 L2210.56 193.562 L2210.56 207.636 Q2210.56 210.807 2211.42 211.71 Q2212.29 212.613 2214.96 212.613 L2219.33 212.613 L2219.33 216.178 L2214.96 216.178 Q2210.03 216.178 2208.15 214.349 Q2206.28 212.497 2206.28 207.636 L2206.28 193.562 L2203.15 193.562 L2203.15 190.252 L2206.28 190.252 L2206.28 182.891 L2210.56 182.891 Z" fill="#000000" fill-rule="nonzero" fill-opacity="1" /><path clip-path="url(#clip270)" d="M2236.72 203.145 Q2231.55 203.145 2229.56 204.326 Q2227.57 205.506 2227.57 208.354 Q2227.57 210.622 2229.05 211.965 Q2230.56 213.284 2233.13 213.284 Q2236.67 213.284 2238.8 210.784 Q2240.95 208.261 2240.95 204.094 L2240.95 203.145 L2236.72 203.145 M2245.21 201.386 L2245.21 216.178 L2240.95 216.178 L2240.95 212.242 Q2239.49 214.603 2237.32 215.738 Q2235.14 216.849 2231.99 216.849 Q2228.01 216.849 2225.65 214.627 Q2223.31 212.381 2223.31 208.631 Q2223.31 204.256 2226.23 202.034 Q2229.17 199.812 2234.98 199.812 L2240.95 199.812 L2240.95 199.395 Q2240.95 196.455 2239.01 194.858 Q2237.09 193.238 2233.59 193.238 Q2231.37 193.238 2229.26 193.77 Q2227.16 194.303 2225.21 195.367 L2225.21 191.432 Q2227.55 190.53 2229.75 190.09 Q2231.95 189.627 2234.03 189.627 Q2239.66 189.627 2242.43 192.543 Q2245.21 195.46 2245.21 201.386 Z" fill="#000000" fill-rule="nonzero" fill-opacity="1" /><polyline clip-path="url(#clip270)" style="stroke:#3da44d; stroke-linecap:round; stroke-linejoin:round; stroke-width:8; stroke-opacity:1; fill:none" points="1977.44,250.738 2121.36,250.738 "/>
<path clip-path="url(#clip270)" d="M2170.91 263.087 L2170.91 253.805 L2163.27 253.805 L2163.27 249.962 L2175.54 249.962 L2175.54 264.8 Q2172.83 266.721 2169.56 267.717 Q2166.3 268.689 2162.6 268.689 Q2154.49 268.689 2149.91 263.967 Q2145.35 259.221 2145.35 250.772 Q2145.35 242.3 2149.91 237.578 Q2154.49 232.833 2162.6 232.833 Q2165.98 232.833 2169.01 233.666 Q2172.06 234.499 2174.63 236.12 L2174.63 241.096 Q2172.04 238.897 2169.12 237.786 Q2166.21 236.675 2162.99 236.675 Q2156.65 236.675 2153.45 240.217 Q2150.28 243.758 2150.28 250.772 Q2150.28 257.763 2153.45 261.305 Q2156.65 264.846 2162.99 264.846 Q2165.47 264.846 2167.41 264.43 Q2169.36 263.99 2170.91 263.087 Z" fill="#000000" fill-rule="nonzero" fill-opacity="1" /><path clip-path="url(#clip270)" d="M2188.75 237.3 L2188.75 250.286 L2194.63 250.286 Q2197.9 250.286 2199.68 248.596 Q2201.46 246.907 2201.46 243.782 Q2201.46 240.68 2199.68 238.99 Q2197.9 237.3 2194.63 237.3 L2188.75 237.3 M2184.08 233.458 L2194.63 233.458 Q2200.44 233.458 2203.41 236.096 Q2206.39 238.712 2206.39 243.782 Q2206.39 248.897 2203.41 251.513 Q2200.44 254.129 2194.63 254.129 L2188.75 254.129 L2188.75 268.018 L2184.08 268.018 L2184.08 233.458 Z" fill="#000000" fill-rule="nonzero" fill-opacity="1" /></svg>
