<?xml version="1.0" encoding="utf-8"?>
<svg xmlns="http://www.w3.org/2000/svg" xmlns:xlink="http://www.w3.org/1999/xlink" width="600" height="400" viewBox="0 0 2400 1600">
<defs>
  <clipPath id="clip330">
    <rect x="0" y="0" width="2400" height="1600"/>
  </clipPath>
</defs>
<path clip-path="url(#clip330)" d="M0 1600 L2400 1600 L2400 0 L0 0  Z" fill="#ffffff" fill-rule="evenodd" fill-opacity="1"/>
<defs>
  <clipPath id="clip331">
    <rect x="480" y="0" width="1681" height="1600"/>
  </clipPath>
</defs>
<path clip-path="url(#clip330)" d="M193.936 1486.45 L2352.76 1486.45 L2352.76 47.2441 L193.936 47.2441  Z" fill="#ffffff" fill-rule="evenodd" fill-opacity="1"/>
<defs>
  <clipPath id="clip332">
    <rect x="193" y="47" width="2160" height="1440"/>
  </clipPath>
</defs>
<polyline clip-path="url(#clip332)" style="stroke:#000000; stroke-linecap:round; stroke-linejoin:round; stroke-width:2; stroke-opacity:0.1; fill:none" points="255.035,1486.45 255.035,47.2441 "/>
<polyline clip-path="url(#clip332)" style="stroke:#000000; stroke-linecap:round; stroke-linejoin:round; stroke-width:2; stroke-opacity:0.1; fill:none" points="579.173,1486.45 579.173,47.2441 "/>
<polyline clip-path="url(#clip332)" style="stroke:#000000; stroke-linecap:round; stroke-linejoin:round; stroke-width:2; stroke-opacity:0.1; fill:none" points="903.312,1486.45 903.312,47.2441 "/>
<polyline clip-path="url(#clip332)" style="stroke:#000000; stroke-linecap:round; stroke-linejoin:round; stroke-width:2; stroke-opacity:0.1; fill:none" points="1227.45,1486.45 1227.45,47.2441 "/>
<polyline clip-path="url(#clip332)" style="stroke:#000000; stroke-linecap:round; stroke-linejoin:round; stroke-width:2; stroke-opacity:0.1; fill:none" points="1551.59,1486.45 1551.59,47.2441 "/>
<polyline clip-path="url(#clip332)" style="stroke:#000000; stroke-linecap:round; stroke-linejoin:round; stroke-width:2; stroke-opacity:0.1; fill:none" points="1875.73,1486.45 1875.73,47.2441 "/>
<polyline clip-path="url(#clip332)" style="stroke:#000000; stroke-linecap:round; stroke-linejoin:round; stroke-width:2; stroke-opacity:0.1; fill:none" points="2199.87,1486.45 2199.87,47.2441 "/>
<polyline clip-path="url(#clip332)" style="stroke:#000000; stroke-linecap:round; stroke-linejoin:round; stroke-width:2; stroke-opacity:0.1; fill:none" points="193.936,1356.37 2352.76,1356.37 "/>
<polyline clip-path="url(#clip332)" style="stroke:#000000; stroke-linecap:round; stroke-linejoin:round; stroke-width:2; stroke-opacity:0.1; fill:none" points="193.936,1086.03 2352.76,1086.03 "/>
<polyline clip-path="url(#clip332)" style="stroke:#000000; stroke-linecap:round; stroke-linejoin:round; stroke-width:2; stroke-opacity:0.1; fill:none" points="193.936,815.686 2352.76,815.686 "/>
<polyline clip-path="url(#clip332)" style="stroke:#000000; stroke-linecap:round; stroke-linejoin:round; stroke-width:2; stroke-opacity:0.1; fill:none" points="193.936,545.346 2352.76,545.346 "/>
<polyline clip-path="url(#clip332)" style="stroke:#000000; stroke-linecap:round; stroke-linejoin:round; stroke-width:2; stroke-opacity:0.1; fill:none" points="193.936,275.007 2352.76,275.007 "/>
<polyline clip-path="url(#clip330)" style="stroke:#000000; stroke-linecap:round; stroke-linejoin:round; stroke-width:4; stroke-opacity:1; fill:none" points="193.936,1486.45 2352.76,1486.45 "/>
<polyline clip-path="url(#clip330)" style="stroke:#000000; stroke-linecap:round; stroke-linejoin:round; stroke-width:4; stroke-opacity:1; fill:none" points="255.035,1486.45 255.035,1467.55 "/>
<polyline clip-path="url(#clip330)" style="stroke:#000000; stroke-linecap:round; stroke-linejoin:round; stroke-width:4; stroke-opacity:1; fill:none" points="579.173,1486.45 579.173,1467.55 "/>
<polyline clip-path="url(#clip330)" style="stroke:#000000; stroke-linecap:round; stroke-linejoin:round; stroke-width:4; stroke-opacity:1; fill:none" points="903.312,1486.45 903.312,1467.55 "/>
<polyline clip-path="url(#clip330)" style="stroke:#000000; stroke-linecap:round; stroke-linejoin:round; stroke-width:4; stroke-opacity:1; fill:none" points="1227.45,1486.45 1227.45,1467.55 "/>
<polyline clip-path="url(#clip330)" style="stroke:#000000; stroke-linecap:round; stroke-linejoin:round; stroke-width:4; stroke-opacity:1; fill:none" points="1551.59,1486.45 1551.59,1467.55 "/>
<polyline clip-path="url(#clip330)" style="stroke:#000000; stroke-linecap:round; stroke-linejoin:round; stroke-width:4; stroke-opacity:1; fill:none" points="1875.73,1486.45 1875.73,1467.55 "/>
<polyline clip-path="url(#clip330)" style="stroke:#000000; stroke-linecap:round; stroke-linejoin:round; stroke-width:4; stroke-opacity:1; fill:none" points="2199.87,1486.45 2199.87,1467.55 "/>
<path clip-path="url(#clip330)" d="M255.035 1517.37 Q251.424 1517.37 249.595 1520.93 Q247.789 1524.47 247.789 1531.6 Q247.789 1538.71 249.595 1542.27 Q251.424 1545.82 255.035 1545.82 Q258.669 1545.82 260.474 1542.27 Q262.303 1538.71 262.303 1531.6 Q262.303 1524.47 260.474 1520.93 Q258.669 1517.37 255.035 1517.37 M255.035 1513.66 Q260.845 1513.66 263.9 1518.27 Q266.979 1522.85 266.979 1531.6 Q266.979 1540.33 263.9 1544.94 Q260.845 1549.52 255.035 1549.52 Q249.225 1549.52 246.146 1544.94 Q243.09 1540.33 243.09 1531.6 Q243.09 1522.85 246.146 1518.27 Q249.225 1513.66 255.035 1513.66 Z" fill="#000000" fill-rule="nonzero" fill-opacity="1" /><path clip-path="url(#clip330)" d="M569.555 1544.91 L577.194 1544.91 L577.194 1518.55 L568.884 1520.21 L568.884 1515.95 L577.148 1514.29 L581.824 1514.29 L581.824 1544.91 L589.463 1544.91 L589.463 1548.85 L569.555 1548.85 L569.555 1544.91 Z" fill="#000000" fill-rule="nonzero" fill-opacity="1" /><path clip-path="url(#clip330)" d="M897.965 1544.91 L914.284 1544.91 L914.284 1548.85 L892.34 1548.85 L892.34 1544.91 Q895.002 1542.16 899.585 1537.53 Q904.191 1532.88 905.372 1531.53 Q907.617 1529.01 908.497 1527.27 Q909.4 1525.51 909.4 1523.82 Q909.4 1521.07 907.455 1519.33 Q905.534 1517.6 902.432 1517.6 Q900.233 1517.6 897.779 1518.36 Q895.349 1519.13 892.571 1520.68 L892.571 1515.95 Q895.395 1514.82 897.849 1514.24 Q900.303 1513.66 902.34 1513.66 Q907.71 1513.66 910.904 1516.35 Q914.099 1519.03 914.099 1523.52 Q914.099 1525.65 913.289 1527.57 Q912.502 1529.47 910.395 1532.07 Q909.816 1532.74 906.715 1535.95 Q903.613 1539.15 897.965 1544.91 Z" fill="#000000" fill-rule="nonzero" fill-opacity="1" /><path clip-path="url(#clip330)" d="M1231.7 1530.21 Q1235.05 1530.93 1236.93 1533.2 Q1238.83 1535.47 1238.83 1538.8 Q1238.83 1543.92 1235.31 1546.72 Q1231.79 1549.52 1225.31 1549.52 Q1223.13 1549.52 1220.82 1549.08 Q1218.53 1548.66 1216.07 1547.81 L1216.07 1543.29 Q1218.02 1544.43 1220.33 1545.01 Q1222.65 1545.58 1225.17 1545.58 Q1229.57 1545.58 1231.86 1543.85 Q1234.17 1542.11 1234.17 1538.8 Q1234.17 1535.75 1232.02 1534.03 Q1229.89 1532.3 1226.07 1532.3 L1222.05 1532.3 L1222.05 1528.45 L1226.26 1528.45 Q1229.71 1528.45 1231.54 1527.09 Q1233.36 1525.7 1233.36 1523.11 Q1233.36 1520.45 1231.47 1519.03 Q1229.59 1517.6 1226.07 1517.6 Q1224.15 1517.6 1221.95 1518.01 Q1219.75 1518.43 1217.11 1519.31 L1217.11 1515.14 Q1219.78 1514.4 1222.09 1514.03 Q1224.43 1513.66 1226.49 1513.66 Q1231.81 1513.66 1234.92 1516.09 Q1238.02 1518.5 1238.02 1522.62 Q1238.02 1525.49 1236.37 1527.48 Q1234.73 1529.45 1231.7 1530.21 Z" fill="#000000" fill-rule="nonzero" fill-opacity="1" /><path clip-path="url(#clip330)" d="M1554.6 1518.36 L1542.79 1536.81 L1554.6 1536.81 L1554.6 1518.36 M1553.37 1514.29 L1559.25 1514.29 L1559.25 1536.81 L1564.18 1536.81 L1564.18 1540.7 L1559.25 1540.7 L1559.25 1548.85 L1554.6 1548.85 L1554.6 1540.7 L1539 1540.7 L1539 1536.19 L1553.37 1514.29 Z" fill="#000000" fill-rule="nonzero" fill-opacity="1" /><path clip-path="url(#clip330)" d="M1866.01 1514.29 L1884.36 1514.29 L1884.36 1518.22 L1870.29 1518.22 L1870.29 1526.7 Q1871.31 1526.35 1872.32 1526.19 Q1873.34 1526 1874.36 1526 Q1880.15 1526 1883.53 1529.17 Q1886.91 1532.34 1886.91 1537.76 Q1886.91 1543.34 1883.44 1546.44 Q1879.96 1549.52 1873.64 1549.52 Q1871.47 1549.52 1869.2 1549.15 Q1866.95 1548.78 1864.55 1548.04 L1864.55 1543.34 Q1866.63 1544.47 1868.85 1545.03 Q1871.07 1545.58 1873.55 1545.58 Q1877.56 1545.58 1879.89 1543.48 Q1882.23 1541.37 1882.23 1537.76 Q1882.23 1534.15 1879.89 1532.04 Q1877.56 1529.94 1873.55 1529.94 Q1871.68 1529.94 1869.8 1530.35 Q1867.95 1530.77 1866.01 1531.65 L1866.01 1514.29 Z" fill="#000000" fill-rule="nonzero" fill-opacity="1" /><path clip-path="url(#clip330)" d="M2200.27 1529.7 Q2197.12 1529.7 2195.27 1531.86 Q2193.44 1534.01 2193.44 1537.76 Q2193.44 1541.49 2195.27 1543.66 Q2197.12 1545.82 2200.27 1545.82 Q2203.42 1545.82 2205.25 1543.66 Q2207.1 1541.49 2207.1 1537.76 Q2207.1 1534.01 2205.25 1531.86 Q2203.42 1529.7 2200.27 1529.7 M2209.55 1515.05 L2209.55 1519.31 Q2207.79 1518.48 2205.99 1518.04 Q2204.21 1517.6 2202.45 1517.6 Q2197.82 1517.6 2195.36 1520.72 Q2192.93 1523.85 2192.59 1530.17 Q2193.95 1528.15 2196.01 1527.09 Q2198.07 1526 2200.55 1526 Q2205.76 1526 2208.77 1529.17 Q2211.8 1532.32 2211.8 1537.76 Q2211.8 1543.08 2208.65 1546.3 Q2205.5 1549.52 2200.27 1549.52 Q2194.28 1549.52 2191.1 1544.94 Q2187.93 1540.33 2187.93 1531.6 Q2187.93 1523.41 2191.82 1518.55 Q2195.71 1513.66 2202.26 1513.66 Q2204.02 1513.66 2205.8 1514.01 Q2207.61 1514.36 2209.55 1515.05 Z" fill="#000000" fill-rule="nonzero" fill-opacity="1" /><polyline clip-path="url(#clip330)" style="stroke:#000000; stroke-linecap:round; stroke-linejoin:round; stroke-width:4; stroke-opacity:1; fill:none" points="193.936,1486.45 193.936,47.2441 "/>
<polyline clip-path="url(#clip330)" style="stroke:#000000; stroke-linecap:round; stroke-linejoin:round; stroke-width:4; stroke-opacity:1; fill:none" points="193.936,1356.37 212.834,1356.37 "/>
<polyline clip-path="url(#clip330)" style="stroke:#000000; stroke-linecap:round; stroke-linejoin:round; stroke-width:4; stroke-opacity:1; fill:none" points="193.936,1086.03 212.834,1086.03 "/>
<polyline clip-path="url(#clip330)" style="stroke:#000000; stroke-linecap:round; stroke-linejoin:round; stroke-width:4; stroke-opacity:1; fill:none" points="193.936,815.686 212.834,815.686 "/>
<polyline clip-path="url(#clip330)" style="stroke:#000000; stroke-linecap:round; stroke-linejoin:round; stroke-width:4; stroke-opacity:1; fill:none" points="193.936,545.346 212.834,545.346 "/>
<polyline clip-path="url(#clip330)" style="stroke:#000000; stroke-linecap:round; stroke-linejoin:round; stroke-width:4; stroke-opacity:1; fill:none" points="193.936,275.007 212.834,275.007 "/>
<path clip-path="url(#clip330)" d="M50.9921 1356.82 L80.6679 1356.82 L80.6679 1360.75 L50.9921 1360.75 L50.9921 1356.82 Z" fill="#000000" fill-rule="nonzero" fill-opacity="1" /><path clip-path="url(#clip330)" d="M91.5706 1369.71 L99.2095 1369.71 L99.2095 1343.34 L90.8993 1345.01 L90.8993 1340.75 L99.1632 1339.09 L103.839 1339.09 L103.839 1369.71 L111.478 1369.71 L111.478 1373.65 L91.5706 1373.65 L91.5706 1369.71 Z" fill="#000000" fill-rule="nonzero" fill-opacity="1" /><path clip-path="url(#clip330)" d="M120.922 1367.77 L125.807 1367.77 L125.807 1373.65 L120.922 1373.65 L120.922 1367.77 Z" fill="#000000" fill-rule="nonzero" fill-opacity="1" /><path clip-path="url(#clip330)" d="M145.992 1342.16 Q142.381 1342.16 140.552 1345.73 Q138.746 1349.27 138.746 1356.4 Q138.746 1363.51 140.552 1367.07 Q142.381 1370.61 145.992 1370.61 Q149.626 1370.61 151.431 1367.07 Q153.26 1363.51 153.26 1356.4 Q153.26 1349.27 151.431 1345.73 Q149.626 1342.16 145.992 1342.16 M145.992 1338.46 Q151.802 1338.46 154.857 1343.07 Q157.936 1347.65 157.936 1356.4 Q157.936 1365.13 154.857 1369.73 Q151.802 1374.32 145.992 1374.32 Q140.181 1374.32 137.103 1369.73 Q134.047 1365.13 134.047 1356.4 Q134.047 1347.65 137.103 1343.07 Q140.181 1338.46 145.992 1338.46 Z" fill="#000000" fill-rule="nonzero" fill-opacity="1" /><path clip-path="url(#clip330)" d="M51.9875 1086.48 L81.6633 1086.48 L81.6633 1090.41 L51.9875 1090.41 L51.9875 1086.48 Z" fill="#000000" fill-rule="nonzero" fill-opacity="1" /><path clip-path="url(#clip330)" d="M101.756 1071.82 Q98.1447 1071.82 96.316 1075.39 Q94.5104 1078.93 94.5104 1086.06 Q94.5104 1093.17 96.316 1096.73 Q98.1447 1100.27 101.756 1100.27 Q105.39 1100.27 107.196 1096.73 Q109.024 1093.17 109.024 1086.06 Q109.024 1078.93 107.196 1075.39 Q105.39 1071.82 101.756 1071.82 M101.756 1068.12 Q107.566 1068.12 110.621 1072.73 Q113.7 1077.31 113.7 1086.06 Q113.7 1094.79 110.621 1099.39 Q107.566 1103.98 101.756 1103.98 Q95.9456 1103.98 92.8669 1099.39 Q89.8114 1094.79 89.8114 1086.06 Q89.8114 1077.31 92.8669 1072.73 Q95.9456 1068.12 101.756 1068.12 Z" fill="#000000" fill-rule="nonzero" fill-opacity="1" /><path clip-path="url(#clip330)" d="M121.918 1097.43 L126.802 1097.43 L126.802 1103.31 L121.918 1103.31 L121.918 1097.43 Z" fill="#000000" fill-rule="nonzero" fill-opacity="1" /><path clip-path="url(#clip330)" d="M137.033 1068.75 L155.39 1068.75 L155.39 1072.68 L141.316 1072.68 L141.316 1081.15 Q142.334 1080.81 143.353 1080.64 Q144.371 1080.46 145.39 1080.46 Q151.177 1080.46 154.556 1083.63 Q157.936 1086.8 157.936 1092.22 Q157.936 1097.8 154.464 1100.9 Q150.992 1103.98 144.672 1103.98 Q142.496 1103.98 140.228 1103.61 Q137.982 1103.24 135.575 1102.5 L135.575 1097.8 Q137.658 1098.93 139.881 1099.49 Q142.103 1100.04 144.58 1100.04 Q148.584 1100.04 150.922 1097.94 Q153.26 1095.83 153.26 1092.22 Q153.26 1088.61 150.922 1086.5 Q148.584 1084.39 144.58 1084.39 Q142.705 1084.39 140.83 1084.81 Q138.978 1085.23 137.033 1086.11 L137.033 1068.75 Z" fill="#000000" fill-rule="nonzero" fill-opacity="1" /><path clip-path="url(#clip330)" d="M100.76 801.485 Q97.1493 801.485 95.3206 805.05 Q93.515 808.591 93.515 815.721 Q93.515 822.827 95.3206 826.392 Q97.1493 829.934 100.76 829.934 Q104.395 829.934 106.2 826.392 Q108.029 822.827 108.029 815.721 Q108.029 808.591 106.2 805.05 Q104.395 801.485 100.76 801.485 M100.76 797.781 Q106.571 797.781 109.626 802.388 Q112.705 806.971 112.705 815.721 Q112.705 824.448 109.626 829.054 Q106.571 833.637 100.76 833.637 Q94.9502 833.637 91.8715 829.054 Q88.816 824.448 88.816 815.721 Q88.816 806.971 91.8715 802.388 Q94.9502 797.781 100.76 797.781 Z" fill="#000000" fill-rule="nonzero" fill-opacity="1" /><path clip-path="url(#clip330)" d="M120.922 827.087 L125.807 827.087 L125.807 832.966 L120.922 832.966 L120.922 827.087 Z" fill="#000000" fill-rule="nonzero" fill-opacity="1" /><path clip-path="url(#clip330)" d="M145.992 801.485 Q142.381 801.485 140.552 805.05 Q138.746 808.591 138.746 815.721 Q138.746 822.827 140.552 826.392 Q142.381 829.934 145.992 829.934 Q149.626 829.934 151.431 826.392 Q153.26 822.827 153.26 815.721 Q153.26 808.591 151.431 805.05 Q149.626 801.485 145.992 801.485 M145.992 797.781 Q151.802 797.781 154.857 802.388 Q157.936 806.971 157.936 815.721 Q157.936 824.448 154.857 829.054 Q151.802 833.637 145.992 833.637 Q140.181 833.637 137.103 829.054 Q134.047 824.448 134.047 815.721 Q134.047 806.971 137.103 802.388 Q140.181 797.781 145.992 797.781 Z" fill="#000000" fill-rule="nonzero" fill-opacity="1" /><path clip-path="url(#clip330)" d="M101.756 531.145 Q98.1447 531.145 96.316 534.71 Q94.5104 538.252 94.5104 545.381 Q94.5104 552.488 96.316 556.052 Q98.1447 559.594 101.756 559.594 Q105.39 559.594 107.196 556.052 Q109.024 552.488 109.024 545.381 Q109.024 538.252 107.196 534.71 Q105.39 531.145 101.756 531.145 M101.756 527.441 Q107.566 527.441 110.621 532.048 Q113.7 536.631 113.7 545.381 Q113.7 554.108 110.621 558.714 Q107.566 563.298 101.756 563.298 Q95.9456 563.298 92.8669 558.714 Q89.8114 554.108 89.8114 545.381 Q89.8114 536.631 92.8669 532.048 Q95.9456 527.441 101.756 527.441 Z" fill="#000000" fill-rule="nonzero" fill-opacity="1" /><path clip-path="url(#clip330)" d="M121.918 556.747 L126.802 556.747 L126.802 562.626 L121.918 562.626 L121.918 556.747 Z" fill="#000000" fill-rule="nonzero" fill-opacity="1" /><path clip-path="url(#clip330)" d="M137.033 528.066 L155.39 528.066 L155.39 532.002 L141.316 532.002 L141.316 540.474 Q142.334 540.127 143.353 539.965 Q144.371 539.779 145.39 539.779 Q151.177 539.779 154.556 542.951 Q157.936 546.122 157.936 551.539 Q157.936 557.117 154.464 560.219 Q150.992 563.298 144.672 563.298 Q142.496 563.298 140.228 562.927 Q137.982 562.557 135.575 561.816 L135.575 557.117 Q137.658 558.251 139.881 558.807 Q142.103 559.363 144.58 559.363 Q148.584 559.363 150.922 557.256 Q153.26 555.15 153.26 551.539 Q153.26 547.927 150.922 545.821 Q148.584 543.715 144.58 543.715 Q142.705 543.715 140.83 544.131 Q138.978 544.548 137.033 545.427 L137.033 528.066 Z" fill="#000000" fill-rule="nonzero" fill-opacity="1" /><path clip-path="url(#clip330)" d="M91.5706 288.352 L99.2095 288.352 L99.2095 261.986 L90.8993 263.653 L90.8993 259.393 L99.1632 257.727 L103.839 257.727 L103.839 288.352 L111.478 288.352 L111.478 292.287 L91.5706 292.287 L91.5706 288.352 Z" fill="#000000" fill-rule="nonzero" fill-opacity="1" /><path clip-path="url(#clip330)" d="M120.922 286.407 L125.807 286.407 L125.807 292.287 L120.922 292.287 L120.922 286.407 Z" fill="#000000" fill-rule="nonzero" fill-opacity="1" /><path clip-path="url(#clip330)" d="M145.992 260.805 Q142.381 260.805 140.552 264.37 Q138.746 267.912 138.746 275.041 Q138.746 282.148 140.552 285.713 Q142.381 289.254 145.992 289.254 Q149.626 289.254 151.431 285.713 Q153.26 282.148 153.26 275.041 Q153.26 267.912 151.431 264.37 Q149.626 260.805 145.992 260.805 M145.992 257.102 Q151.802 257.102 154.857 261.708 Q157.936 266.292 157.936 275.041 Q157.936 283.768 154.857 288.375 Q151.802 292.958 145.992 292.958 Q140.181 292.958 137.103 288.375 Q134.047 283.768 134.047 275.041 Q134.047 266.292 137.103 261.708 Q140.181 257.102 145.992 257.102 Z" fill="#000000" fill-rule="nonzero" fill-opacity="1" /><polyline clip-path="url(#clip332)" style="stroke:#009af9; stroke-linecap:round; stroke-linejoin:round; stroke-width:4; stroke-opacity:1; fill:none" points="255.035,815.686 258.276,810.279 261.517,804.873 264.759,799.468 268,794.065 271.242,788.663 274.483,783.265 277.724,777.87 280.966,772.478 284.207,767.091 287.449,761.708 290.69,756.331 293.931,750.96 297.173,745.596 300.414,740.238 303.655,734.888 306.897,729.546 310.138,724.213 313.38,718.889 316.621,713.574 319.862,708.27 323.104,702.976 326.345,697.694 329.587,692.423 332.828,687.165 336.069,681.92 339.311,676.688 342.552,671.47 345.793,666.266 349.035,661.078 352.276,655.904 355.518,650.747 358.759,645.607 362,640.483 365.242,635.377 368.483,630.288 371.725,625.219 374.966,620.168 378.207,615.137 381.449,610.126 384.69,605.136 387.931,600.166 391.173,595.218 394.414,590.293 397.656,585.389 400.897,580.509 404.138,575.653 407.38,570.82 410.621,566.012 413.863,561.228 417.104,556.471 420.345,551.739 423.587,547.033 426.828,542.355 430.069,537.703 433.311,533.08 436.552,528.485 439.794,523.918 443.035,519.381 446.276,514.873 449.518,510.396 452.759,505.949 456.001,501.532 459.242,497.148 462.483,492.795 465.725,488.474 468.966,484.187 472.208,479.932 475.449,475.711 478.69,471.524 481.932,467.371 485.173,463.253 488.414,459.17 491.656,455.123 494.897,451.113 498.139,447.138 501.38,443.201 504.621,439.3 507.863,435.437 511.104,431.613 514.346,427.826 517.587,424.079 520.828,420.371 524.07,416.702 527.311,413.073 530.552,409.484 533.794,405.936 537.035,402.429 540.277,398.964 543.518,395.539 546.759,392.157 550.001,388.818 553.242,385.521 556.484,382.267 559.725,379.056 562.966,375.889 566.208,372.766 569.449,369.687 572.69,366.653 575.932,363.664 579.173,360.72 582.415,357.822 585.656,354.969 588.897,352.162 592.139,349.402 595.38,346.688 598.622,344.022 601.863,341.402 605.104,338.83 608.346,336.305 611.587,333.829 614.828,331.4 618.07,329.02 621.311,326.689 624.553,324.407 627.794,322.173 631.035,319.99 634.277,317.855 637.518,315.771 640.76,313.736 644.001,311.752 647.242,309.818 650.484,307.934 653.725,306.102 656.966,304.32 660.208,302.59 663.449,300.911 666.691,299.283 669.932,297.707 673.173,296.182 676.415,294.71 679.656,293.29 682.898,291.922 686.139,290.606 689.38,289.343 692.622,288.133 695.863,286.975 699.104,285.87 702.346,284.818 705.587,283.819 708.829,282.874 712.07,281.981 715.311,281.143 718.553,280.357 721.794,279.625 725.036,278.947 728.277,278.322 731.518,277.751 734.76,277.234 738.001,276.771 741.242,276.361 744.484,276.006 747.725,275.704 750.967,275.457 754.208,275.263 757.449,275.124 760.691,275.038 763.932,275.007 767.174,275.03 770.415,275.106 773.656,275.237 776.898,275.422 780.139,275.661 783.381,275.954 786.622,276.301 789.863,276.702 793.105,277.156 796.346,277.665 799.587,278.227 802.829,278.844 806.07,279.513 809.312,280.237 812.553,281.014 815.794,281.844 819.036,282.728 822.277,283.665 825.519,284.656 828.76,285.699 832.001,286.795 835.243,287.945 838.484,289.147 841.725,290.402 844.967,291.709 848.208,293.068 851.45,294.48 854.691,295.944 857.932,297.46 861.174,299.028 864.415,300.648 867.657,302.319 870.898,304.041 874.139,305.815 877.381,307.639 880.622,309.515 883.863,311.44 887.105,313.417 890.346,315.443 893.588,317.52 896.829,319.646 900.07,321.822 903.312,324.048 906.553,326.322 909.795,328.646 913.036,331.018 916.277,333.439 919.519,335.908 922.76,338.424 926.001,340.989 929.243,343.601 932.484,346.26 935.726,348.967 938.967,351.72 942.208,354.519 945.45,357.364 948.691,360.255 951.933,363.192 955.174,366.174 958.415,369.201 961.657,372.273 964.898,375.389 968.139,378.549 971.381,381.753 974.622,385 977.864,388.29 981.105,391.623 984.346,394.998 987.588,398.415 990.829,401.875 994.071,405.375 997.312,408.917 1000.55,412.499 1003.79,416.121 1007.04,419.784 1010.28,423.486 1013.52,427.227 1016.76,431.007 1020,434.826 1023.24,438.682 1026.48,442.577 1029.73,446.509 1032.97,450.477 1036.21,454.482 1039.45,458.524 1042.69,462.6 1045.93,466.713 1049.17,470.86 1052.42,475.042 1055.66,479.257 1058.9,483.507 1062.14,487.789 1065.38,492.105 1068.62,496.452 1071.86,500.832 1075.11,505.243 1078.35,509.685 1081.59,514.158 1084.83,518.661 1088.07,523.194 1091.31,527.756 1094.55,532.346 1097.79,536.965 1101.04,541.612 1104.28,546.286 1107.52,550.988 1110.76,555.715 1114,560.469 1117.24,565.248 1120.48,570.052 1123.73,574.881 1126.97,579.734 1130.21,584.611 1133.45,589.51 1136.69,594.432 1139.93,599.377 1143.17,604.343 1146.42,609.33 1149.66,614.338 1152.9,619.366 1156.14,624.413 1159.38,629.48 1162.62,634.565 1165.86,639.668 1169.11,644.789 1172.35,649.927 1175.59,655.082 1178.83,660.253 1182.07,665.439 1185.31,670.64 1188.55,675.856 1191.8,681.086 1195.04,686.329 1198.28,691.585 1201.52,696.854 1204.76,702.134 1208,707.426 1211.24,712.729 1214.48,718.041 1217.73,723.364 1220.97,728.696 1224.21,734.037 1227.45,739.385 1230.69,744.742 1233.93,750.105 1237.17,755.475 1240.42,760.852 1243.66,766.233 1246.9,771.62 1250.14,777.011 1253.38,782.405 1256.62,787.803 1259.86,793.204 1263.11,798.608 1266.35,804.012 1269.59,809.418 1272.83,814.825 1276.07,820.232 1279.31,825.638 1282.55,831.043 1285.8,836.447 1289.04,841.849 1292.28,847.248 1295.52,852.644 1298.76,858.036 1302,863.424 1305.24,868.807 1308.48,874.185 1311.73,879.557 1314.97,884.923 1318.21,890.281 1321.45,895.633 1324.69,900.976 1327.93,906.311 1331.17,911.636 1334.42,916.953 1337.66,922.259 1340.9,927.554 1344.14,932.838 1347.38,938.11 1350.62,943.371 1353.86,948.618 1357.11,953.852 1360.35,959.072 1363.59,964.278 1366.83,969.469 1370.07,974.645 1373.31,979.805 1376.55,984.948 1379.8,990.075 1383.04,995.184 1386.28,1000.27 1389.52,1005.35 1392.76,1010.4 1396,1015.44 1399.24,1020.45 1402.49,1025.44 1405.73,1030.42 1408.97,1035.37 1412.21,1040.3 1415.45,1045.2 1418.69,1050.09 1421.93,1054.95 1425.17,1059.78 1428.42,1064.6 1431.66,1069.38 1434.9,1074.15 1438.14,1078.88 1441.38,1083.59 1444.62,1088.27 1447.86,1092.93 1451.11,1097.56 1454.35,1102.16 1457.59,1106.73 1460.83,1111.27 1464.07,1115.78 1467.31,1120.27 1470.55,1124.72 1473.8,1129.14 1477.04,1133.53 1480.28,1137.89 1483.52,1142.21 1486.76,1146.51 1490,1150.77 1493.24,1154.99 1496.49,1159.18 1499.73,1163.34 1502.97,1167.47 1506.21,1171.55 1509.45,1175.61 1512.69,1179.62 1515.93,1183.6 1519.18,1187.55 1522.42,1191.45 1525.66,1195.32 1528.9,1199.15 1532.14,1202.95 1535.38,1206.7 1538.62,1210.41 1541.86,1214.09 1545.11,1217.72 1548.35,1221.32 1551.59,1224.87 1554.83,1228.39 1558.07,1231.86 1561.31,1235.29 1564.55,1238.68 1567.8,1242.03 1571.04,1245.33 1574.28,1248.59 1577.52,1251.81 1580.76,1254.98 1584,1258.11 1587.24,1261.2 1590.49,1264.24 1593.73,1267.24 1596.97,1270.19 1600.21,1273.09 1603.45,1275.95 1606.69,1278.77 1609.93,1281.53 1613.18,1284.26 1616.42,1286.93 1619.66,1289.56 1622.9,1292.14 1626.14,1294.67 1629.38,1297.15 1632.62,1299.59 1635.86,1301.98 1639.11,1304.32 1642.35,1306.61 1645.59,1308.85 1648.83,1311.04 1652.07,1313.18 1655.31,1315.27 1658.55,1317.32 1661.8,1319.31 1665.04,1321.25 1668.28,1323.14 1671.52,1324.98 1674.76,1326.77 1678,1328.51 1681.24,1330.2 1684.49,1331.83 1687.73,1333.42 1690.97,1334.95 1694.21,1336.43 1697.45,1337.86 1700.69,1339.24 1703.93,1340.56 1707.18,1341.83 1710.42,1343.05 1713.66,1344.22 1716.9,1345.33 1720.14,1346.39 1723.38,1347.4 1726.62,1348.35 1729.87,1349.25 1733.11,1350.1 1736.35,1350.89 1739.59,1351.63 1742.83,1352.32 1746.07,1352.95 1749.31,1353.53 1752.55,1354.06 1755.8,1354.53 1759.04,1354.95 1762.28,1355.31 1765.52,1355.62 1768.76,1355.88 1772,1356.08 1775.24,1356.23 1778.49,1356.32 1781.73,1356.36 1784.97,1356.35 1788.21,1356.28 1791.45,1356.16 1794.69,1355.98 1797.93,1355.75 1801.18,1355.47 1804.42,1355.13 1807.66,1354.74 1810.9,1354.29 1814.14,1353.79 1817.38,1353.24 1820.62,1352.63 1823.87,1351.97 1827.11,1351.25 1830.35,1350.49 1833.59,1349.66 1836.83,1348.79 1840.07,1347.86 1843.31,1346.88 1846.55,1345.84 1849.8,1344.76 1853.04,1343.61 1856.28,1342.42 1859.52,1341.17 1862.76,1339.88 1866,1338.52 1869.24,1337.12 1872.49,1335.66 1875.73,1334.16 1878.97,1332.6 1882.21,1330.99 1885.45,1329.32 1888.69,1327.61 1891.93,1325.84 1895.18,1324.03 1898.42,1322.16 1901.66,1320.24 1904.9,1318.27 1908.14,1316.26 1911.38,1314.19 1914.62,1312.07 1917.87,1309.9 1921.11,1307.68 1924.35,1305.42 1927.59,1303.1 1930.83,1300.74 1934.07,1298.32 1937.31,1295.86 1940.56,1293.35 1943.8,1290.79 1947.04,1288.19 1950.28,1285.54 1953.52,1282.84 1956.76,1280.09 1960,1277.3 1963.24,1274.46 1966.49,1271.58 1969.73,1268.65 1972.97,1265.68 1976.21,1262.66 1979.45,1259.59 1982.69,1256.48 1985.93,1253.33 1989.18,1250.13 1992.42,1246.89 1995.66,1243.61 1998.9,1240.28 2002.14,1236.91 2005.38,1233.5 2008.62,1230.05 2011.87,1226.56 2015.11,1223.02 2018.35,1219.45 2021.59,1215.83 2024.83,1212.17 2028.07,1208.48 2031.31,1204.74 2034.56,1200.97 2037.8,1197.16 2041.04,1193.31 2044.28,1189.42 2047.52,1185.49 2050.76,1181.53 2054,1177.53 2057.24,1173.49 2060.49,1169.42 2063.73,1165.32 2066.97,1161.18 2070.21,1157 2073.45,1152.79 2076.69,1148.54 2079.93,1144.27 2083.18,1139.96 2086.42,1135.61 2089.66,1131.24 2092.9,1126.83 2096.14,1122.4 2099.38,1117.93 2102.62,1113.43 2105.87,1108.9 2109.11,1104.35 2112.35,1099.76 2115.59,1095.14 2118.83,1090.5 2122.07,1085.83 2125.31,1081.14 2128.56,1076.41 2131.8,1071.66 2135.04,1066.89 2138.28,1062.09 2141.52,1057.26 2144.76,1052.41 2148,1047.54 2151.25,1042.64 2154.49,1037.73 2157.73,1032.78 2160.97,1027.82 2164.21,1022.84 2167.45,1017.83 2170.69,1012.81 2173.93,1007.76 2177.18,1002.7 2180.42,997.619 2183.66,992.518 2186.9,987.4 2190.14,982.264 2193.38,977.112 2196.62,971.944 2199.87,966.76 2203.11,961.561 2206.35,956.348 2209.59,951.12 2212.83,945.879 2216.07,940.625 2219.31,935.359 2222.56,930.08 2225.8,924.79 2229.04,919.489 2232.28,914.178 2235.52,908.857 2238.76,903.526 2242,898.187 2245.25,892.839 2248.49,887.484 2251.73,882.122 2254.97,876.753 2258.21,871.377 2261.45,865.997 2264.69,860.611 2267.94,855.221 2271.18,849.826 2274.42,844.429 2277.66,839.028 2280.9,833.626 2284.14,828.221 2287.38,822.815 2290.62,817.408 "/>
<circle clip-path="url(#clip332)" cx="443.035" cy="496.143" r="14.4" fill="#e26f46" fill-rule="evenodd" fill-opacity="1" stroke="#000000" stroke-opacity="1" stroke-width="3.2"/>
<circle clip-path="url(#clip332)" cx="1233.93" cy="748.819" r="14.4" fill="#e26f46" fill-rule="evenodd" fill-opacity="1" stroke="#000000" stroke-opacity="1" stroke-width="3.2"/>
<circle clip-path="url(#clip332)" cx="494.897" cy="433.688" r="14.4" fill="#e26f46" fill-rule="evenodd" fill-opacity="1" stroke="#000000" stroke-opacity="1" stroke-width="3.2"/>
<circle clip-path="url(#clip332)" cx="929.243" cy="348.276" r="14.4" fill="#e26f46" fill-rule="evenodd" fill-opacity="1" stroke="#000000" stroke-opacity="1" stroke-width="3.2"/>
<circle clip-path="url(#clip332)" cx="1629.38" cy="1376.25" r="14.4" fill="#e26f46" fill-rule="evenodd" fill-opacity="1" stroke="#000000" stroke-opacity="1" stroke-width="3.2"/>
<circle clip-path="url(#clip332)" cx="1580.76" cy="1312.81" r="14.4" fill="#e26f46" fill-rule="evenodd" fill-opacity="1" stroke="#000000" stroke-opacity="1" stroke-width="3.2"/>
<circle clip-path="url(#clip332)" cx="738.001" cy="162.855" r="14.4" fill="#e26f46" fill-rule="evenodd" fill-opacity="1" stroke="#000000" stroke-opacity="1" stroke-width="3.2"/>
<circle clip-path="url(#clip332)" cx="481.932" cy="376.142" r="14.4" fill="#e26f46" fill-rule="evenodd" fill-opacity="1" stroke="#000000" stroke-opacity="1" stroke-width="3.2"/>
<circle clip-path="url(#clip332)" cx="501.38" cy="401.852" r="14.4" fill="#e26f46" fill-rule="evenodd" fill-opacity="1" stroke="#000000" stroke-opacity="1" stroke-width="3.2"/>
<circle clip-path="url(#clip332)" cx="2245.25" cy="863.678" r="14.4" fill="#e26f46" fill-rule="evenodd" fill-opacity="1" stroke="#000000" stroke-opacity="1" stroke-width="3.2"/>
<circle clip-path="url(#clip332)" cx="384.69" cy="588.339" r="14.4" fill="#e26f46" fill-rule="evenodd" fill-opacity="1" stroke="#000000" stroke-opacity="1" stroke-width="3.2"/>
<circle clip-path="url(#clip332)" cx="650.484" cy="285.465" r="14.4" fill="#e26f46" fill-rule="evenodd" fill-opacity="1" stroke="#000000" stroke-opacity="1" stroke-width="3.2"/>
<circle clip-path="url(#clip332)" cx="1781.73" cy="1248.08" r="14.4" fill="#e26f46" fill-rule="evenodd" fill-opacity="1" stroke="#000000" stroke-opacity="1" stroke-width="3.2"/>
<circle clip-path="url(#clip332)" cx="300.414" cy="608.933" r="14.4" fill="#e26f46" fill-rule="evenodd" fill-opacity="1" stroke="#000000" stroke-opacity="1" stroke-width="3.2"/>
<circle clip-path="url(#clip332)" cx="611.587" cy="230.191" r="14.4" fill="#e26f46" fill-rule="evenodd" fill-opacity="1" stroke="#000000" stroke-opacity="1" stroke-width="3.2"/>
<circle clip-path="url(#clip332)" cx="1447.86" cy="1181.29" r="14.4" fill="#e26f46" fill-rule="evenodd" fill-opacity="1" stroke="#000000" stroke-opacity="1" stroke-width="3.2"/>
<circle clip-path="url(#clip332)" cx="1681.24" cy="1246.35" r="14.4" fill="#e26f46" fill-rule="evenodd" fill-opacity="1" stroke="#000000" stroke-opacity="1" stroke-width="3.2"/>
<circle clip-path="url(#clip332)" cx="874.139" cy="431.063" r="14.4" fill="#e26f46" fill-rule="evenodd" fill-opacity="1" stroke="#000000" stroke-opacity="1" stroke-width="3.2"/>
<circle clip-path="url(#clip332)" cx="1447.86" cy="964.171" r="14.4" fill="#e26f46" fill-rule="evenodd" fill-opacity="1" stroke="#000000" stroke-opacity="1" stroke-width="3.2"/>
<circle clip-path="url(#clip332)" cx="906.553" cy="368.578" r="14.4" fill="#e26f46" fill-rule="evenodd" fill-opacity="1" stroke="#000000" stroke-opacity="1" stroke-width="3.2"/>
<path clip-path="url(#clip332)" d="M255.035 927.918 L258.276 922.157 L261.517 916.392 L264.759 910.63 L268 904.875 L271.242 899.132 L274.483 893.407 L277.724 887.704 L280.966 882.029 L284.207 876.39 L287.449 870.79 L290.69 865.238 L293.931 859.738 L297.173 854.298 L300.414 848.924 L303.655 843.62 L306.897 838.381 L310.138 833.203 L313.38 828.078 L316.621 823 L319.862 817.963 L323.104 812.961 L326.345 807.989 L329.587 803.041 L332.828 798.111 L336.069 793.196 L339.311 788.291 L342.552 783.391 L345.793 778.494 L349.035 773.596 L352.276 768.695 L355.518 763.788 L358.759 758.875 L362 753.954 L365.242 749.025 L368.483 744.089 L371.725 739.145 L374.966 734.196 L378.207 729.243 L381.449 724.288 L384.69 719.335 L387.931 714.384 L391.173 709.435 L394.414 704.484 L397.656 699.529 L400.897 694.568 L404.138 689.6 L407.38 684.625 L410.621 679.643 L413.863 674.655 L417.104 669.663 L420.345 664.671 L423.587 659.681 L426.828 654.699 L430.069 649.73 L433.311 644.78 L436.552 639.858 L439.794 634.97 L443.035 630.127 L446.276 625.337 L449.518 620.604 L452.759 615.933 L456.001 611.329 L459.242 606.796 L462.483 602.343 L465.725 597.975 L468.966 593.702 L472.208 589.531 L475.449 585.472 L478.69 581.534 L481.932 577.728 L485.173 574.063 L488.414 570.54 L491.656 567.159 L494.897 563.921 L498.139 560.824 L501.38 557.863 L504.621 555.03 L507.863 552.312 L511.104 549.695 L514.346 547.164 L517.587 544.706 L520.828 542.31 L524.07 539.964 L527.311 537.657 L530.552 535.379 L533.794 533.123 L537.035 530.88 L540.277 528.643 L543.518 526.408 L546.759 524.17 L550.001 521.925 L553.242 519.67 L556.484 517.405 L559.725 515.128 L562.966 512.84 L566.208 510.542 L569.449 508.235 L572.69 505.924 L575.932 503.611 L579.173 501.302 L582.415 499.001 L585.656 496.715 L588.897 494.45 L592.139 492.216 L595.38 490.018 L598.622 487.868 L601.863 485.774 L605.104 483.746 L608.346 481.795 L611.587 479.933 L614.828 478.168 L618.07 476.501 L621.311 474.931 L624.553 473.458 L627.794 472.081 L631.035 470.801 L634.277 469.618 L637.518 468.533 L640.76 467.547 L644.001 466.662 L647.242 465.88 L650.484 465.202 L653.725 464.631 L656.966 464.16 L660.208 463.784 L663.449 463.496 L666.691 463.29 L669.932 463.163 L673.173 463.108 L676.415 463.122 L679.656 463.201 L682.898 463.342 L686.139 463.543 L689.38 463.801 L692.622 464.116 L695.863 464.487 L699.104 464.913 L702.346 465.395 L705.587 465.935 L708.829 466.534 L712.07 467.193 L715.311 467.917 L718.553 468.707 L721.794 469.569 L725.036 470.505 L728.277 471.52 L731.518 472.62 L734.76 473.809 L738.001 475.093 L741.242 476.474 L744.484 477.946 L747.725 479.498 L750.967 481.121 L754.208 482.804 L757.449 484.538 L760.691 486.315 L763.932 488.126 L767.174 489.963 L770.415 491.819 L773.656 493.687 L776.898 495.56 L780.139 497.432 L783.381 499.297 L786.622 501.151 L789.863 502.99 L793.105 504.809 L796.346 506.605 L799.587 508.376 L802.829 510.119 L806.07 511.833 L809.312 513.518 L812.553 515.172 L815.794 516.796 L819.036 518.392 L822.277 519.961 L825.519 521.506 L828.76 523.03 L832.001 524.537 L835.243 526.031 L838.484 527.519 L841.725 529.007 L844.967 530.502 L848.208 532.012 L851.45 533.545 L854.691 535.112 L857.932 536.722 L861.174 538.388 L864.415 540.12 L867.657 541.932 L870.898 543.837 L874.139 545.848 L877.381 547.978 L880.622 550.237 L883.863 552.633 L887.105 555.175 L890.346 557.872 L893.588 560.732 L896.829 563.767 L900.07 566.983 L903.312 570.391 L906.553 574.001 L909.795 577.818 L913.036 581.843 L916.277 586.074 L919.519 590.508 L922.76 595.143 L926.001 599.977 L929.243 605.006 L932.484 610.226 L935.726 615.624 L938.967 621.184 L942.208 626.89 L945.45 632.727 L948.691 638.681 L951.933 644.738 L955.174 650.884 L958.415 657.107 L961.657 663.395 L964.898 669.735 L968.139 676.117 L971.381 682.532 L974.622 688.968 L977.864 695.418 L981.105 701.872 L984.346 708.323 L987.588 714.763 L990.829 721.186 L994.071 727.585 L997.312 733.953 L1000.55 740.286 L1003.79 746.578 L1007.04 752.825 L1010.28 759.021 L1013.52 765.164 L1016.76 771.248 L1020 777.271 L1023.24 783.229 L1026.48 789.12 L1029.73 794.94 L1032.97 800.687 L1036.21 806.36 L1039.45 811.955 L1042.69 817.471 L1045.93 822.906 L1049.17 828.26 L1052.42 833.53 L1055.66 838.716 L1058.9 843.816 L1062.14 848.831 L1065.38 853.758 L1068.62 858.599 L1071.86 863.352 L1075.11 868.017 L1078.35 872.595 L1081.59 877.085 L1084.83 881.487 L1088.07 885.803 L1091.31 890.032 L1094.55 894.176 L1097.79 898.234 L1101.04 902.209 L1104.28 906.1 L1107.52 909.91 L1110.76 913.639 L1114 917.29 L1117.24 920.863 L1120.48 924.361 L1123.73 927.785 L1126.97 931.138 L1130.21 934.421 L1133.45 937.638 L1136.69 940.791 L1139.93 943.883 L1143.17 946.916 L1146.42 949.895 L1149.66 952.821 L1152.9 955.699 L1156.14 958.533 L1159.38 961.326 L1162.62 964.083 L1165.86 966.808 L1169.11 969.505 L1172.35 972.18 L1175.59 974.838 L1178.83 977.483 L1182.07 980.122 L1185.31 982.76 L1188.55 985.403 L1191.8 988.058 L1195.04 990.73 L1198.28 993.427 L1201.52 996.155 L1204.76 998.922 L1208 1001.73 L1211.24 1004.6 L1214.48 1007.53 L1217.73 1010.52 L1220.97 1013.59 L1224.21 1016.74 L1227.45 1019.98 L1230.69 1023.33 L1233.93 1026.78 L1237.17 1030.33 L1240.42 1034 L1243.66 1037.76 L1246.9 1041.61 L1250.14 1045.55 L1253.38 1049.56 L1256.62 1053.64 L1259.86 1057.77 L1263.11 1061.96 L1266.35 1066.19 L1269.59 1070.46 L1272.83 1074.75 L1276.07 1079.07 L1279.31 1083.4 L1282.55 1087.75 L1285.8 1092.09 L1289.04 1096.43 L1292.28 1100.77 L1295.52 1105.09 L1298.76 1109.39 L1302 1113.66 L1305.24 1117.91 L1308.48 1122.12 L1311.73 1126.3 L1314.97 1130.44 L1318.21 1134.53 L1321.45 1138.58 L1324.69 1142.58 L1327.93 1146.52 L1331.17 1150.42 L1334.42 1154.26 L1337.66 1158.04 L1340.9 1161.77 L1344.14 1165.44 L1347.38 1169.05 L1350.62 1172.61 L1353.86 1176.1 L1357.11 1179.54 L1360.35 1182.93 L1363.59 1186.26 L1366.83 1189.53 L1370.07 1192.76 L1373.31 1195.94 L1376.55 1199.07 L1379.8 1202.16 L1383.04 1205.22 L1386.28 1208.24 L1389.52 1211.23 L1392.76 1214.19 L1396 1217.14 L1399.24 1220.08 L1402.49 1223.01 L1405.73 1225.93 L1408.97 1228.87 L1412.21 1231.82 L1415.45 1234.8 L1418.69 1237.81 L1421.93 1240.86 L1425.17 1243.96 L1428.42 1247.13 L1431.66 1250.36 L1434.9 1253.68 L1438.14 1257.08 L1441.38 1260.59 L1444.62 1264.2 L1447.86 1267.94 L1451.11 1271.8 L1454.35 1275.78 L1457.59 1279.86 L1460.83 1284.04 L1464.07 1288.29 L1467.31 1292.61 L1470.55 1296.99 L1473.8 1301.41 L1477.04 1305.85 L1480.28 1310.31 L1483.52 1314.78 L1486.76 1319.24 L1490 1323.68 L1493.24 1328.1 L1496.49 1332.47 L1499.73 1336.8 L1502.97 1341.08 L1506.21 1345.29 L1509.45 1349.43 L1512.69 1353.49 L1515.93 1357.47 L1519.18 1361.36 L1522.42 1365.16 L1525.66 1368.85 L1528.9 1372.45 L1532.14 1375.94 L1535.38 1379.32 L1538.62 1382.6 L1541.86 1385.76 L1545.11 1388.82 L1548.35 1391.76 L1551.59 1394.59 L1554.83 1397.31 L1558.07 1399.93 L1561.31 1402.43 L1564.55 1404.84 L1567.8 1407.14 L1571.04 1409.35 L1574.28 1411.46 L1577.52 1413.49 L1580.76 1415.43 L1584 1417.29 L1587.24 1419.06 L1590.49 1420.76 L1593.73 1422.38 L1596.97 1423.92 L1600.21 1425.37 L1603.45 1426.75 L1606.69 1428.05 L1609.93 1429.28 L1613.18 1430.43 L1616.42 1431.51 L1619.66 1432.52 L1622.9 1433.46 L1626.14 1434.35 L1629.38 1435.17 L1632.62 1435.94 L1635.86 1436.66 L1639.11 1437.32 L1642.35 1437.93 L1645.59 1438.49 L1648.83 1439 L1652.07 1439.47 L1655.31 1439.89 L1658.55 1440.27 L1661.8 1440.61 L1665.04 1440.93 L1668.28 1441.21 L1671.52 1441.47 L1674.76 1441.71 L1678 1441.93 L1681.24 1442.15 L1684.49 1442.36 L1687.73 1442.57 L1690.97 1442.76 L1694.21 1442.94 L1697.45 1443.11 L1700.69 1443.25 L1703.93 1443.37 L1707.18 1443.46 L1710.42 1443.52 L1713.66 1443.56 L1716.9 1443.57 L1720.14 1443.55 L1723.38 1443.5 L1726.62 1443.42 L1729.87 1443.32 L1733.11 1443.19 L1736.35 1443.05 L1739.59 1442.88 L1742.83 1442.7 L1746.07 1442.5 L1749.31 1442.3 L1752.55 1442.09 L1755.8 1441.89 L1759.04 1441.69 L1762.28 1441.5 L1765.52 1441.33 L1768.76 1441.18 L1772 1441.06 L1775.24 1440.98 L1778.49 1440.93 L1781.73 1440.93 L1784.97 1440.98 L1788.21 1441.08 L1791.45 1441.21 L1794.69 1441.39 L1797.93 1441.59 L1801.18 1441.82 L1804.42 1442.07 L1807.66 1442.34 L1810.9 1442.62 L1814.14 1442.91 L1817.38 1443.2 L1820.62 1443.5 L1823.87 1443.78 L1827.11 1444.06 L1830.35 1444.33 L1833.59 1444.58 L1836.83 1444.82 L1840.07 1445.03 L1843.31 1445.22 L1846.55 1445.38 L1849.8 1445.51 L1853.04 1445.62 L1856.28 1445.68 L1859.52 1445.72 L1862.76 1445.71 L1866 1445.66 L1869.24 1445.58 L1872.49 1445.45 L1875.73 1445.28 L1878.97 1445.06 L1882.21 1444.8 L1885.45 1444.49 L1888.69 1444.13 L1891.93 1443.72 L1895.18 1443.27 L1898.42 1442.76 L1901.66 1442.2 L1904.9 1441.59 L1908.14 1440.93 L1911.38 1440.21 L1914.62 1439.44 L1917.87 1438.62 L1921.11 1437.75 L1924.35 1436.82 L1927.59 1435.83 L1930.83 1434.8 L1934.07 1433.7 L1937.31 1432.56 L1940.56 1431.36 L1943.8 1430.1 L1947.04 1428.79 L1950.28 1427.42 L1953.52 1426 L1956.76 1424.52 L1960 1422.99 L1963.24 1421.41 L1966.49 1419.77 L1969.73 1418.07 L1972.97 1416.32 L1976.21 1414.52 L1979.45 1412.66 L1982.69 1410.75 L1985.93 1408.79 L1989.18 1406.77 L1992.42 1404.69 L1995.66 1402.57 L1998.9 1400.39 L2002.14 1398.15 L2005.38 1395.87 L2008.62 1393.53 L2011.87 1391.14 L2015.11 1388.7 L2018.35 1386.21 L2021.59 1383.66 L2024.83 1381.07 L2028.07 1378.42 L2031.31 1375.72 L2034.56 1372.98 L2037.8 1370.18 L2041.04 1367.33 L2044.28 1364.44 L2047.52 1361.5 L2050.76 1358.51 L2054 1355.47 L2057.24 1352.39 L2060.49 1349.26 L2063.73 1346.08 L2066.97 1342.86 L2070.21 1339.6 L2073.45 1336.29 L2076.69 1332.95 L2079.93 1329.56 L2083.18 1326.13 L2086.42 1322.66 L2089.66 1319.15 L2092.9 1315.6 L2096.14 1312.02 L2099.38 1308.41 L2102.62 1304.76 L2105.87 1301.08 L2109.11 1297.36 L2112.35 1293.63 L2115.59 1289.86 L2118.83 1286.07 L2122.07 1282.26 L2125.31 1278.42 L2128.56 1274.57 L2131.8 1270.71 L2135.04 1266.83 L2138.28 1262.94 L2141.52 1259.04 L2144.76 1255.14 L2148 1251.24 L2151.25 1247.35 L2154.49 1243.46 L2157.73 1239.58 L2160.97 1235.72 L2164.21 1231.88 L2167.45 1228.06 L2170.69 1224.28 L2173.93 1220.53 L2177.18 1216.82 L2180.42 1213.16 L2183.66 1209.56 L2186.9 1206.01 L2190.14 1202.53 L2193.38 1199.13 L2196.62 1195.81 L2199.87 1192.58 L2203.11 1189.45 L2206.35 1186.43 L2209.59 1183.52 L2212.83 1180.73 L2216.07 1178.08 L2219.31 1175.57 L2222.56 1173.22 L2225.8 1171.02 L2229.04 1169 L2232.28 1167.15 L2235.52 1165.5 L2238.76 1164.04 L2242 1162.79 L2245.25 1161.76 L2248.49 1160.95 L2251.73 1160.35 L2254.97 1159.97 L2258.21 1159.78 L2261.45 1159.78 L2264.69 1159.97 L2267.94 1160.33 L2271.18 1160.86 L2274.42 1161.54 L2277.66 1162.36 L2280.9 1163.33 L2284.14 1164.43 L2287.38 1165.64 L2290.62 1166.97 L2290.62 555.533 L2287.38 558.648 L2284.14 561.685 L2280.9 564.635 L2277.66 567.492 L2274.42 570.247 L2271.18 572.892 L2267.94 575.42 L2264.69 577.822 L2261.45 580.089 L2258.21 582.214 L2254.97 584.189 L2251.73 586.006 L2248.49 587.657 L2245.25 589.135 L2242 590.435 L2238.76 591.563 L2235.52 592.528 L2232.28 593.337 L2229.04 593.999 L2225.8 594.524 L2222.56 594.92 L2219.31 595.197 L2216.07 595.364 L2212.83 595.429 L2209.59 595.402 L2206.35 595.292 L2203.11 595.106 L2199.87 594.855 L2196.62 594.545 L2193.38 594.185 L2190.14 593.782 L2186.9 593.343 L2183.66 592.877 L2180.42 592.389 L2177.18 591.886 L2173.93 591.375 L2170.69 590.86 L2167.45 590.349 L2164.21 589.845 L2160.97 589.354 L2157.73 588.882 L2154.49 588.431 L2151.25 588.007 L2148 587.614 L2144.76 587.256 L2141.52 586.935 L2138.28 586.656 L2135.04 586.421 L2131.8 586.233 L2128.56 586.096 L2125.31 586.012 L2122.07 585.983 L2118.83 586.012 L2115.59 586.1 L2112.35 586.25 L2109.11 586.464 L2105.87 586.743 L2102.62 587.09 L2099.38 587.505 L2096.14 587.99 L2092.9 588.546 L2089.66 589.175 L2086.42 589.877 L2083.18 590.655 L2079.93 591.508 L2076.69 592.438 L2073.45 593.446 L2070.21 594.532 L2066.97 595.697 L2063.73 596.942 L2060.49 598.267 L2057.24 599.673 L2054 601.161 L2050.76 602.731 L2047.52 604.383 L2044.28 606.118 L2041.04 607.936 L2037.8 609.838 L2034.56 611.823 L2031.31 613.892 L2028.07 616.046 L2024.83 618.283 L2021.59 620.605 L2018.35 623.012 L2015.11 625.503 L2011.87 628.079 L2008.62 630.74 L2005.38 633.485 L2002.14 636.315 L1998.9 639.229 L1995.66 642.227 L1992.42 645.31 L1989.18 648.477 L1985.93 651.728 L1982.69 655.062 L1979.45 658.48 L1976.21 661.98 L1972.97 665.564 L1969.73 669.23 L1966.49 672.977 L1963.24 676.806 L1960 680.716 L1956.76 684.707 L1953.52 688.777 L1950.28 692.927 L1947.04 697.155 L1943.8 701.461 L1940.56 705.843 L1937.31 710.303 L1934.07 714.837 L1930.83 719.446 L1927.59 724.129 L1924.35 728.883 L1921.11 733.709 L1917.87 738.605 L1914.62 743.569 L1911.38 748.601 L1908.14 753.698 L1904.9 758.86 L1901.66 764.084 L1898.42 769.369 L1895.18 774.713 L1891.93 780.114 L1888.69 785.569 L1885.45 791.078 L1882.21 796.636 L1878.97 802.242 L1875.73 807.894 L1872.49 813.588 L1869.24 819.321 L1866 825.09 L1862.76 830.892 L1859.52 836.724 L1856.28 842.581 L1853.04 848.461 L1849.8 854.358 L1846.55 860.268 L1843.31 866.188 L1840.07 872.111 L1836.83 878.034 L1833.59 883.95 L1830.35 889.855 L1827.11 895.742 L1823.87 901.606 L1820.62 907.439 L1817.38 913.236 L1814.14 918.99 L1810.9 924.693 L1807.66 930.338 L1804.42 935.917 L1801.18 941.422 L1797.93 946.845 L1794.69 952.178 L1791.45 957.413 L1788.21 962.539 L1784.97 967.55 L1781.73 972.435 L1778.49 977.189 L1775.24 981.815 L1772 986.317 L1768.76 990.703 L1765.52 994.976 L1762.28 999.143 L1759.04 1003.21 L1755.8 1007.18 L1752.55 1011.05 L1749.31 1014.84 L1746.07 1018.54 L1742.83 1022.17 L1739.59 1025.71 L1736.35 1029.18 L1733.11 1032.57 L1729.87 1035.89 L1726.62 1039.14 L1723.38 1042.31 L1720.14 1045.41 L1716.9 1048.44 L1713.66 1051.39 L1710.42 1054.26 L1707.18 1057.05 L1703.93 1059.75 L1700.69 1062.36 L1697.45 1064.88 L1694.21 1067.29 L1690.97 1069.6 L1687.73 1071.79 L1684.49 1073.86 L1681.24 1075.8 L1678 1077.6 L1674.76 1079.26 L1671.52 1080.79 L1668.28 1082.17 L1665.04 1083.42 L1661.8 1084.52 L1658.55 1085.48 L1655.31 1086.3 L1652.07 1086.96 L1648.83 1087.47 L1645.59 1087.83 L1642.35 1088.02 L1639.11 1088.04 L1635.86 1087.88 L1632.62 1087.55 L1629.38 1087.02 L1626.14 1086.31 L1622.9 1085.4 L1619.66 1084.31 L1616.42 1083.04 L1613.18 1081.6 L1609.93 1080 L1606.69 1078.24 L1603.45 1076.32 L1600.21 1074.24 L1596.97 1072.02 L1593.73 1069.64 L1590.49 1067.12 L1587.24 1064.46 L1584 1061.64 L1580.76 1058.69 L1577.52 1055.59 L1574.28 1052.36 L1571.04 1049 L1567.8 1045.54 L1564.55 1041.99 L1561.31 1038.34 L1558.07 1034.62 L1554.83 1030.83 L1551.59 1026.98 L1548.35 1023.08 L1545.11 1019.14 L1541.86 1015.16 L1538.62 1011.15 L1535.38 1007.11 L1532.14 1003.05 L1528.9 998.968 L1525.66 994.873 L1522.42 990.765 L1519.18 986.646 L1515.93 982.515 L1512.69 978.372 L1509.45 974.217 L1506.21 970.049 L1502.97 965.865 L1499.73 961.661 L1496.49 957.434 L1493.24 953.181 L1490 948.894 L1486.76 944.569 L1483.52 940.199 L1480.28 935.777 L1477.04 931.295 L1473.8 926.745 L1470.55 922.118 L1467.31 917.405 L1464.07 912.597 L1460.83 907.683 L1457.59 902.655 L1454.35 897.502 L1451.11 892.215 L1447.86 886.784 L1444.62 881.203 L1441.38 875.481 L1438.14 869.629 L1434.9 863.658 L1431.66 857.579 L1428.42 851.405 L1425.17 845.146 L1421.93 838.815 L1418.69 832.423 L1415.45 825.979 L1412.21 819.495 L1408.97 812.981 L1405.73 806.446 L1402.49 799.898 L1399.24 793.347 L1396 786.801 L1392.76 780.267 L1389.52 773.752 L1386.28 767.263 L1383.04 760.806 L1379.8 754.386 L1376.55 748.009 L1373.31 741.68 L1370.07 735.401 L1366.83 729.178 L1363.59 723.014 L1360.35 716.911 L1357.11 710.873 L1353.86 704.901 L1350.62 698.997 L1347.38 693.163 L1344.14 687.4 L1340.9 681.709 L1337.66 676.09 L1334.42 670.542 L1331.17 665.067 L1327.93 659.663 L1324.69 654.329 L1321.45 649.064 L1318.21 643.866 L1314.97 638.734 L1311.73 633.666 L1308.48 628.658 L1305.24 623.709 L1302 618.814 L1298.76 613.971 L1295.52 609.176 L1292.28 604.424 L1289.04 599.711 L1285.8 595.033 L1282.55 590.385 L1279.31 585.761 L1276.07 581.157 L1272.83 576.565 L1269.59 571.981 L1266.35 567.398 L1263.11 562.81 L1259.86 558.209 L1256.62 553.591 L1253.38 548.947 L1250.14 544.27 L1246.9 539.555 L1243.66 534.793 L1240.42 529.979 L1237.17 525.104 L1233.93 520.164 L1230.69 515.152 L1227.45 510.074 L1224.21 504.935 L1220.97 499.741 L1217.73 494.498 L1214.48 489.213 L1211.24 483.892 L1208 478.541 L1204.76 473.167 L1201.52 467.776 L1198.28 462.373 L1195.04 456.965 L1191.8 451.557 L1188.55 446.155 L1185.31 440.764 L1182.07 435.39 L1178.83 430.038 L1175.59 424.711 L1172.35 419.416 L1169.11 414.155 L1165.86 408.934 L1162.62 403.757 L1159.38 398.627 L1156.14 393.547 L1152.9 388.522 L1149.66 383.555 L1146.42 378.648 L1143.17 373.805 L1139.93 369.028 L1136.69 364.32 L1133.45 359.684 L1130.21 355.121 L1126.97 350.633 L1123.73 346.224 L1120.48 341.894 L1117.24 337.645 L1114 333.48 L1110.76 329.399 L1107.52 325.404 L1104.28 321.496 L1101.04 317.677 L1097.79 313.947 L1094.55 310.308 L1091.31 306.761 L1088.07 303.305 L1084.83 299.943 L1081.59 296.674 L1078.35 293.499 L1075.11 290.418 L1071.86 287.433 L1068.62 284.542 L1065.38 281.747 L1062.14 279.047 L1058.9 276.442 L1055.66 273.933 L1052.42 271.518 L1049.17 269.198 L1045.93 266.971 L1042.69 264.838 L1039.45 262.798 L1036.21 260.85 L1032.97 258.992 L1029.73 257.225 L1026.48 255.546 L1023.24 253.953 L1020 252.447 L1016.76 251.024 L1013.52 249.682 L1010.28 248.42 L1007.04 247.235 L1003.79 246.124 L1000.55 245.085 L997.312 244.113 L994.071 243.206 L990.829 242.36 L987.588 241.57 L984.346 240.833 L981.105 240.142 L977.864 239.493 L974.622 238.88 L971.381 238.296 L968.139 237.735 L964.898 237.19 L961.657 236.652 L958.415 236.114 L955.174 235.567 L951.933 235.001 L948.691 234.407 L945.45 233.773 L942.208 233.09 L938.967 232.345 L935.726 231.528 L932.484 230.625 L929.243 229.626 L926.001 228.518 L922.76 227.296 L919.519 225.952 L916.277 224.482 L913.036 222.879 L909.795 221.139 L906.553 219.257 L903.312 217.229 L900.07 215.058 L896.829 212.747 L893.588 210.3 L890.346 207.721 L887.105 205.015 L883.863 202.186 L880.622 199.237 L877.381 196.173 L874.139 192.998 L870.898 189.717 L867.657 186.344 L864.415 182.895 L861.174 179.385 L857.932 175.829 L854.691 172.242 L851.45 168.636 L848.208 165.024 L844.967 161.419 L841.725 157.833 L838.484 154.275 L835.243 150.757 L832.001 147.287 L828.76 143.875 L825.519 140.527 L822.277 137.252 L819.036 134.056 L815.794 130.946 L812.553 127.926 L809.312 125.002 L806.07 122.178 L802.829 119.458 L799.587 116.845 L796.346 114.343 L793.105 111.953 L789.863 109.678 L786.622 107.519 L783.381 105.477 L780.139 103.553 L776.898 101.747 L773.656 100.06 L770.415 98.4896 L767.174 97.0364 L763.932 95.6989 L760.691 94.4758 L757.449 93.3652 L754.208 92.3652 L750.967 91.4737 L747.725 90.6881 L744.484 90.0061 L741.242 89.4248 L738.001 88.9417 L734.76 88.5545 L731.518 88.2638 L728.277 88.0707 L725.036 87.9763 L721.794 87.9815 L718.553 88.0872 L715.311 88.294 L712.07 88.6022 L708.829 89.0119 L705.587 89.5229 L702.346 90.1347 L699.104 90.8463 L695.863 91.6566 L692.622 92.5638 L689.38 93.5659 L686.139 94.6605 L682.898 95.8447 L679.656 97.1153 L676.415 98.4684 L673.173 99.9001 L669.932 101.406 L666.691 102.981 L663.449 104.62 L660.208 106.317 L656.966 108.068 L653.725 109.865 L650.484 111.703 L647.242 113.576 L644.001 115.487 L640.76 117.438 L637.518 119.431 L634.277 121.469 L631.035 123.554 L627.794 125.688 L624.553 127.873 L621.311 130.111 L618.07 132.403 L614.828 134.751 L611.587 137.155 L608.346 139.617 L605.104 142.143 L601.863 144.738 L598.622 147.407 L595.38 150.155 L592.139 152.986 L588.897 155.906 L585.656 158.917 L582.415 162.023 L579.173 165.226 L575.932 168.529 L572.69 171.932 L569.449 175.437 L566.208 179.043 L562.966 182.75 L559.725 186.557 L556.484 190.461 L553.242 194.459 L550.001 198.548 L546.759 202.723 L543.518 206.98 L540.277 211.31 L537.035 215.709 L533.794 220.167 L530.552 224.676 L527.311 229.227 L524.07 233.807 L520.828 238.407 L517.587 243.013 L514.346 247.613 L511.104 252.191 L507.863 256.735 L504.621 261.228 L501.38 265.655 L498.139 270.001 L494.897 274.257 L491.656 278.414 L488.414 282.473 L485.173 286.432 L481.932 290.291 L478.69 294.051 L475.449 297.715 L472.208 301.288 L468.966 304.774 L465.725 308.176 L462.483 311.497 L459.242 314.739 L456.001 317.904 L452.759 320.994 L449.518 324.007 L446.276 326.945 L443.035 329.805 L439.794 332.587 L436.552 335.297 L433.311 337.939 L430.069 340.518 L426.828 343.039 L423.587 345.504 L420.345 347.916 L417.104 350.276 L413.863 352.584 L410.621 354.84 L407.38 357.043 L404.138 359.19 L400.897 361.279 L397.656 363.307 L394.414 365.268 L391.173 367.158 L387.931 368.971 L384.69 370.702 L381.449 372.346 L378.207 373.905 L374.966 375.383 L371.725 376.784 L368.483 378.112 L365.242 379.368 L362 380.555 L358.759 381.675 L355.518 382.727 L352.276 383.713 L349.035 384.633 L345.793 385.486 L342.552 386.27 L339.311 386.984 L336.069 387.625 L332.828 388.192 L329.587 388.68 L326.345 389.087 L323.104 389.409 L319.862 389.641 L316.621 389.779 L313.38 389.818 L310.138 389.754 L306.897 389.582 L303.655 389.297 L300.414 388.893 L297.173 388.369 L293.931 387.728 L290.69 386.978 L287.449 386.125 L284.207 385.175 L280.966 384.136 L277.724 383.013 L274.483 381.813 L271.242 380.541 L268 379.205 L264.759 377.809 L261.517 376.358 L258.276 374.859 L255.035 373.315  Z" fill="#3da44d" fill-rule="evenodd" fill-opacity="0.1"/>
<polyline clip-path="url(#clip332)" style="stroke:#3da44d; stroke-linecap:round; stroke-linejoin:round; stroke-width:8; stroke-opacity:1; fill:none" points="255.035,650.617 258.276,648.508 261.517,646.375 264.759,644.22 268,642.04 271.242,639.837 274.483,637.61 277.724,635.358 280.966,633.082 284.207,630.782 287.449,628.457 290.69,626.108 293.931,623.733 297.173,621.334 300.414,618.909 303.655,616.458 306.897,613.982 310.138,611.478 313.38,608.948 316.621,606.389 319.862,603.802 323.104,601.185 326.345,598.538 329.587,595.861 332.828,593.152 336.069,590.411 339.311,587.637 342.552,584.831 345.793,581.99 349.035,579.115 352.276,576.204 355.518,573.258 358.759,570.275 362,567.255 365.242,564.197 368.483,561.1 371.725,557.965 374.966,554.79 378.207,551.574 381.449,548.317 384.69,545.018 387.931,541.678 391.173,538.297 394.414,534.876 397.656,531.418 400.897,527.924 404.138,524.395 407.38,520.834 410.621,517.241 413.863,513.619 417.104,509.97 420.345,506.293 423.587,502.593 426.828,498.869 430.069,495.124 433.311,491.36 436.552,487.577 439.794,483.779 443.035,479.966 446.276,476.141 449.518,472.306 452.759,468.463 456.001,464.616 459.242,460.768 462.483,456.92 465.725,453.076 468.966,449.238 472.208,445.409 475.449,441.593 478.69,437.792 481.932,434.01 485.173,430.247 488.414,426.506 491.656,422.787 494.897,419.089 498.139,415.412 501.38,411.759 504.621,408.129 507.863,404.523 511.104,400.943 514.346,397.388 517.587,393.86 520.828,390.359 524.07,386.886 527.311,383.442 530.552,380.028 533.794,376.645 537.035,373.294 540.277,369.977 543.518,366.694 546.759,363.447 550.001,360.236 553.242,357.065 556.484,353.933 559.725,350.843 562.966,347.795 566.208,344.792 569.449,341.836 572.69,338.928 575.932,336.07 579.173,333.264 582.415,330.512 585.656,327.816 588.897,325.178 592.139,322.601 595.38,320.087 598.622,317.637 601.863,315.256 605.104,312.945 608.346,310.706 611.587,308.544 614.828,306.459 618.07,304.452 621.311,302.521 624.553,300.666 627.794,298.885 631.035,297.178 634.277,295.544 637.518,293.982 640.76,292.493 644.001,291.075 647.242,289.728 650.484,288.452 653.725,287.248 656.966,286.114 660.208,285.051 663.449,284.058 666.691,283.136 669.932,282.284 673.173,281.504 676.415,280.795 679.656,280.158 682.898,279.593 686.139,279.102 689.38,278.684 692.622,278.34 695.863,278.072 699.104,277.88 702.346,277.765 705.587,277.729 708.829,277.773 712.07,277.898 715.311,278.105 718.553,278.397 721.794,278.775 725.036,279.241 728.277,279.795 731.518,280.442 734.76,281.182 738.001,282.017 741.242,282.95 744.484,283.976 747.725,285.093 750.967,286.297 754.208,287.584 757.449,288.952 760.691,290.395 763.932,291.912 767.174,293.5 770.415,295.154 773.656,296.873 776.898,298.653 780.139,300.492 783.381,302.387 786.622,304.335 789.863,306.334 793.105,308.381 796.346,310.474 799.587,312.611 802.829,314.788 806.07,317.006 809.312,319.26 812.553,321.549 815.794,323.871 819.036,326.224 822.277,328.606 825.519,331.016 828.76,333.452 832.001,335.912 835.243,338.394 838.484,340.897 841.725,343.42 844.967,345.961 848.208,348.518 851.45,351.09 854.691,353.677 857.932,356.276 861.174,358.886 864.415,361.508 867.657,364.138 870.898,366.777 874.139,369.423 877.381,372.075 880.622,374.737 883.863,377.409 887.105,380.095 890.346,382.796 893.588,385.516 896.829,388.257 900.07,391.021 903.312,393.81 906.553,396.629 909.795,399.479 913.036,402.361 916.277,405.278 919.519,408.23 922.76,411.219 926.001,414.248 929.243,417.316 932.484,420.426 935.726,423.576 938.967,426.765 942.208,429.99 945.45,433.25 948.691,436.544 951.933,439.87 955.174,443.226 958.415,446.611 961.657,450.023 964.898,453.462 968.139,456.926 971.381,460.414 974.622,463.924 977.864,467.455 981.105,471.007 984.346,474.578 987.588,478.167 990.829,481.773 994.071,485.395 997.312,489.033 1000.55,492.685 1003.79,496.351 1007.04,500.03 1010.28,503.721 1013.52,507.423 1016.76,511.136 1020,514.859 1023.24,518.591 1026.48,522.333 1029.73,526.082 1032.97,529.84 1036.21,533.605 1039.45,537.376 1042.69,541.155 1045.93,544.939 1049.17,548.729 1052.42,552.524 1055.66,556.324 1058.9,560.129 1062.14,563.939 1065.38,567.753 1068.62,571.571 1071.86,575.392 1075.11,579.218 1078.35,583.047 1081.59,586.879 1084.83,590.715 1088.07,594.554 1091.31,598.396 1094.55,602.242 1097.79,606.091 1101.04,609.943 1104.28,613.798 1107.52,617.657 1110.76,621.519 1114,625.385 1117.24,629.254 1120.48,633.127 1123.73,637.004 1126.97,640.885 1130.21,644.771 1133.45,648.661 1136.69,652.556 1139.93,656.456 1143.17,660.361 1146.42,664.271 1149.66,668.188 1152.9,672.111 1156.14,676.04 1159.38,679.976 1162.62,683.92 1165.86,687.871 1169.11,691.83 1172.35,695.798 1175.59,699.774 1178.83,703.76 1182.07,707.756 1185.31,711.762 1188.55,715.779 1191.8,719.807 1195.04,723.847 1198.28,727.9 1201.52,731.965 1204.76,736.045 1208,740.138 1211.24,744.246 1214.48,748.369 1217.73,752.508 1220.97,756.665 1224.21,760.838 1227.45,765.029 1230.69,769.24 1233.93,773.469 1237.17,777.719 1240.42,781.989 1243.66,786.277 1246.9,790.584 1250.14,794.91 1253.38,799.253 1256.62,803.613 1259.86,807.991 1263.11,812.384 1266.35,816.794 1269.59,821.219 1272.83,825.659 1276.07,830.114 1279.31,834.583 1282.55,839.066 1285.8,843.563 1289.04,848.073 1292.28,852.596 1295.52,857.131 1298.76,861.679 1302,866.238 1305.24,870.808 1308.48,875.39 1311.73,879.983 1314.97,884.585 1318.21,889.198 1321.45,893.821 1324.69,898.453 1327.93,903.094 1331.17,907.743 1334.42,912.401 1337.66,917.067 1340.9,921.74 1344.14,926.421 1347.38,931.109 1350.62,935.803 1353.86,940.503 1357.11,945.209 1360.35,949.92 1363.59,954.636 1366.83,959.356 1370.07,964.081 1373.31,968.81 1376.55,973.541 1379.8,978.275 1383.04,983.012 1386.28,987.751 1389.52,992.49 1392.76,997.231 1396,1001.97 1399.24,1006.71 1402.49,1011.45 1405.73,1016.19 1408.97,1020.93 1412.21,1025.66 1415.45,1030.39 1418.69,1035.12 1421.93,1039.84 1425.17,1044.56 1428.42,1049.27 1431.66,1053.97 1434.9,1058.67 1438.14,1063.35 1441.38,1068.03 1444.62,1072.7 1447.86,1077.36 1451.11,1082.01 1454.35,1086.64 1457.59,1091.26 1460.83,1095.86 1464.07,1100.44 1467.31,1105.01 1470.55,1109.55 1473.8,1114.08 1477.04,1118.57 1480.28,1123.05 1483.52,1127.49 1486.76,1131.9 1490,1136.29 1493.24,1140.64 1496.49,1144.95 1499.73,1149.23 1502.97,1153.47 1506.21,1157.67 1509.45,1161.82 1512.69,1165.93 1515.93,1169.99 1519.18,1174 1522.42,1177.96 1525.66,1181.86 1528.9,1185.71 1532.14,1189.49 1535.38,1193.22 1538.62,1196.87 1541.86,1200.46 1545.11,1203.98 1548.35,1207.42 1551.59,1210.79 1554.83,1214.07 1558.07,1217.27 1561.31,1220.39 1564.55,1223.41 1567.8,1226.34 1571.04,1229.18 1574.28,1231.91 1577.52,1234.54 1580.76,1237.06 1584,1239.46 1587.24,1241.76 1590.49,1243.94 1593.73,1246.01 1596.97,1247.97 1600.21,1249.81 1603.45,1251.53 1606.69,1253.15 1609.93,1254.64 1613.18,1256.02 1616.42,1257.28 1619.66,1258.41 1622.9,1259.43 1626.14,1260.33 1629.38,1261.1 1632.62,1261.74 1635.86,1262.27 1639.11,1262.68 1642.35,1262.97 1645.59,1263.16 1648.83,1263.24 1652.07,1263.21 1655.31,1263.09 1658.55,1262.88 1661.8,1262.57 1665.04,1262.17 1668.28,1261.69 1671.52,1261.13 1674.76,1260.48 1678,1259.77 1681.24,1258.97 1684.49,1258.11 1687.73,1257.18 1690.97,1256.18 1694.21,1255.12 1697.45,1253.99 1700.69,1252.81 1703.93,1251.56 1707.18,1250.25 1710.42,1248.89 1713.66,1247.48 1716.9,1246.01 1720.14,1244.48 1723.38,1242.91 1726.62,1241.28 1729.87,1239.61 1733.11,1237.88 1736.35,1236.11 1739.59,1234.29 1742.83,1232.43 1746.07,1230.52 1749.31,1228.57 1752.55,1226.57 1755.8,1224.53 1759.04,1222.45 1762.28,1220.32 1765.52,1218.15 1768.76,1215.94 1772,1213.69 1775.24,1211.4 1778.49,1209.06 1781.73,1206.68 1784.97,1204.27 1788.21,1201.81 1791.45,1199.31 1794.69,1196.78 1797.93,1194.22 1801.18,1191.62 1804.42,1188.99 1807.66,1186.34 1810.9,1183.66 1814.14,1180.95 1817.38,1178.22 1820.62,1175.47 1823.87,1172.69 1827.11,1169.9 1830.35,1167.09 1833.59,1164.27 1836.83,1161.43 1840.07,1158.57 1843.31,1155.7 1846.55,1152.83 1849.8,1149.94 1853.04,1147.04 1856.28,1144.13 1859.52,1141.22 1862.76,1138.3 1866,1135.38 1869.24,1132.45 1872.49,1129.52 1875.73,1126.59 1878.97,1123.65 1882.21,1120.72 1885.45,1117.78 1888.69,1114.85 1891.93,1111.92 1895.18,1108.99 1898.42,1106.06 1901.66,1103.14 1904.9,1100.22 1908.14,1097.31 1911.38,1094.41 1914.62,1091.51 1917.87,1088.61 1921.11,1085.73 1924.35,1082.85 1927.59,1079.98 1930.83,1077.12 1934.07,1074.27 1937.31,1071.43 1940.56,1068.6 1943.8,1065.78 1947.04,1062.97 1950.28,1060.17 1953.52,1057.39 1956.76,1054.62 1960,1051.86 1963.24,1049.11 1966.49,1046.37 1969.73,1043.65 1972.97,1040.94 1976.21,1038.25 1979.45,1035.57 1982.69,1032.91 1985.93,1030.26 1989.18,1027.62 1992.42,1025 1995.66,1022.4 1998.9,1019.81 2002.14,1017.23 2005.38,1014.68 2008.62,1012.14 2011.87,1009.61 2015.11,1007.1 2018.35,1004.61 2021.59,1002.13 2024.83,999.674 2028.07,997.232 2031.31,994.807 2034.56,992.399 2037.8,990.008 2041.04,987.635 2044.28,985.279 2047.52,982.94 2050.76,980.619 2054,978.316 2057.24,976.03 2060.49,973.763 2063.73,971.512 2066.97,969.28 2070.21,967.066 2073.45,964.87 2076.69,962.692 2079.93,960.532 2083.18,958.39 2086.42,956.267 2089.66,954.161 2092.9,952.074 2096.14,950.005 2099.38,947.955 2102.62,945.923 2105.87,943.91 2109.11,941.914 2112.35,939.938 2115.59,937.98 2118.83,936.041 2122.07,934.12 2125.31,932.218 2128.56,930.334 2131.8,928.47 2135.04,926.624 2138.28,924.796 2141.52,922.988 2144.76,921.199 2148,919.428 2151.25,917.677 2154.49,915.944 2157.73,914.231 2160.97,912.536 2164.21,910.861 2167.45,909.205 2170.69,907.569 2173.93,905.951 2177.18,904.353 2180.42,902.775 2183.66,901.216 2186.9,899.677 2190.14,898.158 2193.38,896.658 2196.62,895.178 2199.87,893.718 2203.11,892.279 2206.35,890.859 2209.59,889.46 2212.83,888.081 2216.07,886.723 2219.31,885.386 2222.56,884.069 2225.8,882.773 2229.04,881.499 2232.28,880.245 2235.52,879.013 2238.76,877.803 2242,876.614 2245.25,875.447 2248.49,874.302 2251.73,873.179 2254.97,872.077 2258.21,870.996 2261.45,869.936 2264.69,868.896 2267.94,867.875 2271.18,866.874 2274.42,865.892 2277.66,864.928 2280.9,863.983 2284.14,863.055 2287.38,862.146 2290.62,861.253 "/>
<polyline clip-path="url(#clip332)" style="stroke:#c271d2; stroke-linecap:round; stroke-linejoin:round; stroke-width:12; stroke-opacity:1; fill:none" points="255.035,837.654 362.225,692.883 469.416,546.11 576.607,448.559 683.797,403.517 790.988,439.634 898.179,507.898 1005.37,667.759 1112.56,820.623 1219.75,928.665 1326.94,1066.01 1434.13,1189.3 1541.32,1324.9 1648.51,1381.75 1755.7,1371.16 1862.89,1345.61 1970.09,1295.97 2077.28,1211.89 2184.47,1108.46 2291.66,1067.67 "/>
<polyline clip-path="url(#clip332)" style="stroke:#ac8d18; stroke-linecap:round; stroke-linejoin:round; stroke-width:12; stroke-opacity:1; fill:none" points="255.035,463.579 362.225,441.205 469.416,351.302 576.607,222.404 683.797,155.382 790.988,174.444 898.179,270.91 1005.37,328.514 1112.56,426.706 1219.75,581.539 1326.94,737.333 1434.13,925.809 1541.32,1074.83 1648.51,1144.71 1755.7,1078.02 1862.89,930.757 1970.09,790.735 2077.28,712.716 2184.47,693.199 2291.66,654.277 "/>
<path clip-path="url(#clip330)" d="M1953.46 406.258 L2280.8 406.258 L2280.8 95.2176 L1953.46 95.2176  Z" fill="#ffffff" fill-rule="evenodd" fill-opacity="1"/>
<polyline clip-path="url(#clip330)" style="stroke:#000000; stroke-linecap:round; stroke-linejoin:round; stroke-width:4; stroke-opacity:1; fill:none" points="1953.46,406.258 2280.8,406.258 2280.8,95.2176 1953.46,95.2176 1953.46,406.258 "/>
<polyline clip-path="url(#clip330)" style="stroke:#009af9; stroke-linecap:round; stroke-linejoin:round; stroke-width:4; stroke-opacity:1; fill:none" points="1977.44,147.058 2121.36,147.058 "/>
<path clip-path="url(#clip330)" d="M2152.76 131.051 L2152.76 138.412 L2161.53 138.412 L2161.53 141.722 L2152.76 141.722 L2152.76 155.796 Q2152.76 158.967 2153.61 159.87 Q2154.49 160.773 2157.16 160.773 L2161.53 160.773 L2161.53 164.338 L2157.16 164.338 Q2152.23 164.338 2150.35 162.509 Q2148.48 160.657 2148.48 155.796 L2148.48 141.722 L2145.35 141.722 L2145.35 138.412 L2148.48 138.412 L2148.48 131.051 L2152.76 131.051 Z" fill="#000000" fill-rule="nonzero" fill-opacity="1" /><path clip-path="url(#clip330)" d="M2182.16 142.393 Q2181.44 141.977 2180.58 141.791 Q2179.75 141.583 2178.73 141.583 Q2175.12 141.583 2173.17 143.944 Q2171.25 146.282 2171.25 150.68 L2171.25 164.338 L2166.97 164.338 L2166.97 138.412 L2171.25 138.412 L2171.25 142.44 Q2172.6 140.078 2174.75 138.944 Q2176.9 137.787 2179.98 137.787 Q2180.42 137.787 2180.95 137.856 Q2181.48 137.903 2182.13 138.018 L2182.16 142.393 Z" fill="#000000" fill-rule="nonzero" fill-opacity="1" /><path clip-path="url(#clip330)" d="M2186.18 154.106 L2186.18 138.412 L2190.44 138.412 L2190.44 153.944 Q2190.44 157.625 2191.88 159.476 Q2193.31 161.305 2196.18 161.305 Q2199.63 161.305 2201.62 159.106 Q2203.64 156.907 2203.64 153.111 L2203.64 138.412 L2207.9 138.412 L2207.9 164.338 L2203.64 164.338 L2203.64 160.356 Q2202.09 162.717 2200.03 163.875 Q2197.99 165.009 2195.28 165.009 Q2190.81 165.009 2188.5 162.231 Q2186.18 159.453 2186.18 154.106 M2196.9 137.787 L2196.9 137.787 Z" fill="#000000" fill-rule="nonzero" fill-opacity="1" /><path clip-path="url(#clip330)" d="M2220.88 131.051 L2220.88 138.412 L2229.66 138.412 L2229.66 141.722 L2220.88 141.722 L2220.88 155.796 Q2220.88 158.967 2221.74 159.87 Q2222.62 160.773 2225.28 160.773 L2229.66 160.773 L2229.66 164.338 L2225.28 164.338 Q2220.35 164.338 2218.48 162.509 Q2216.6 160.657 2216.6 155.796 L2216.6 141.722 L2213.48 141.722 L2213.48 138.412 L2216.6 138.412 L2216.6 131.051 L2220.88 131.051 Z" fill="#000000" fill-rule="nonzero" fill-opacity="1" /><path clip-path="url(#clip330)" d="M2256.81 148.689 L2256.81 164.338 L2252.55 164.338 L2252.55 148.828 Q2252.55 145.148 2251.11 143.319 Q2249.68 141.49 2246.81 141.49 Q2243.36 141.49 2241.37 143.69 Q2239.38 145.889 2239.38 149.685 L2239.38 164.338 L2235.1 164.338 L2235.1 128.319 L2239.38 128.319 L2239.38 142.44 Q2240.91 140.102 2242.97 138.944 Q2245.05 137.787 2247.76 137.787 Q2252.23 137.787 2254.52 140.565 Q2256.81 143.319 2256.81 148.689 Z" fill="#000000" fill-rule="nonzero" fill-opacity="1" /><circle clip-path="url(#clip330)" cx="2049.4" cy="198.898" r="20.48" fill="#e26f46" fill-rule="evenodd" fill-opacity="1" stroke="#000000" stroke-opacity="1" stroke-width="4.55111"/>
<path clip-path="url(#clip330)" d="M2164.26 194.187 L2164.26 180.159 L2168.52 180.159 L2168.52 216.178 L2164.26 216.178 L2164.26 212.289 Q2162.92 214.603 2160.86 215.738 Q2158.82 216.849 2155.95 216.849 Q2151.25 216.849 2148.29 213.099 Q2145.35 209.349 2145.35 203.238 Q2145.35 197.127 2148.29 193.377 Q2151.25 189.627 2155.95 189.627 Q2158.82 189.627 2160.86 190.761 Q2162.92 191.872 2164.26 194.187 M2149.75 203.238 Q2149.75 207.937 2151.67 210.622 Q2153.61 213.284 2156.99 213.284 Q2160.37 213.284 2162.32 210.622 Q2164.26 207.937 2164.26 203.238 Q2164.26 198.539 2162.32 195.877 Q2160.37 193.192 2156.99 193.192 Q2153.61 193.192 2151.67 195.877 Q2149.75 198.539 2149.75 203.238 Z" fill="#000000" fill-rule="nonzero" fill-opacity="1" /><path clip-path="url(#clip330)" d="M2189.08 203.145 Q2183.92 203.145 2181.92 204.326 Q2179.93 205.506 2179.93 208.354 Q2179.93 210.622 2181.42 211.965 Q2182.92 213.284 2185.49 213.284 Q2189.03 213.284 2191.16 210.784 Q2193.31 208.261 2193.31 204.094 L2193.31 203.145 L2189.08 203.145 M2197.57 201.386 L2197.57 216.178 L2193.31 216.178 L2193.31 212.242 Q2191.85 214.603 2189.68 215.738 Q2187.5 216.849 2184.36 216.849 Q2180.37 216.849 2178.01 214.627 Q2175.67 212.381 2175.67 208.631 Q2175.67 204.256 2178.59 202.034 Q2181.53 199.812 2187.34 199.812 L2193.31 199.812 L2193.31 199.395 Q2193.31 196.455 2191.37 194.858 Q2189.45 193.238 2185.95 193.238 Q2183.73 193.238 2181.62 193.77 Q2179.52 194.303 2177.57 195.367 L2177.57 191.432 Q2179.91 190.53 2182.11 190.09 Q2184.31 189.627 2186.39 189.627 Q2192.02 189.627 2194.79 192.543 Q2197.57 195.46 2197.57 201.386 Z" fill="#000000" fill-rule="nonzero" fill-opacity="1" /><path clip-path="url(#clip330)" d="M2210.56 182.891 L2210.56 190.252 L2219.33 190.252 L2219.33 193.562 L2210.56 193.562 L2210.56 207.636 Q2210.56 210.807 2211.42 211.71 Q2212.29 212.613 2214.96 212.613 L2219.33 212.613 L2219.33 216.178 L2214.96 216.178 Q2210.03 216.178 2208.15 214.349 Q2206.28 212.497 2206.28 207.636 L2206.28 193.562 L2203.15 193.562 L2203.15 190.252 L2206.28 190.252 L2206.28 182.891 L2210.56 182.891 Z" fill="#000000" fill-rule="nonzero" fill-opacity="1" /><path clip-path="url(#clip330)" d="M2236.72 203.145 Q2231.55 203.145 2229.56 204.326 Q2227.57 205.506 2227.57 208.354 Q2227.57 210.622 2229.05 211.965 Q2230.56 213.284 2233.13 213.284 Q2236.67 213.284 2238.8 210.784 Q2240.95 208.261 2240.95 204.094 L2240.95 203.145 L2236.72 203.145 M2245.21 201.386 L2245.21 216.178 L2240.95 216.178 L2240.95 212.242 Q2239.49 214.603 2237.32 215.738 Q2235.14 216.849 2231.99 216.849 Q2228.01 216.849 2225.65 214.627 Q2223.31 212.381 2223.31 208.631 Q2223.31 204.256 2226.23 202.034 Q2229.17 199.812 2234.98 199.812 L2240.95 199.812 L2240.95 199.395 Q2240.95 196.455 2239.01 194.858 Q2237.09 193.238 2233.59 193.238 Q2231.37 193.238 2229.26 193.77 Q2227.16 194.303 2225.21 195.367 L2225.21 191.432 Q2227.55 190.53 2229.75 190.09 Q2231.95 189.627 2234.03 189.627 Q2239.66 189.627 2242.43 192.543 Q2245.21 195.46 2245.21 201.386 Z" fill="#000000" fill-rule="nonzero" fill-opacity="1" /><polyline clip-path="url(#clip330)" style="stroke:#3da44d; stroke-linecap:round; stroke-linejoin:round; stroke-width:8; stroke-opacity:1; fill:none" points="1977.44,250.738 2121.36,250.738 "/>
<path clip-path="url(#clip330)" d="M2170.91 263.087 L2170.91 253.805 L2163.27 253.805 L2163.27 249.962 L2175.54 249.962 L2175.54 264.8 Q2172.83 266.721 2169.56 267.717 Q2166.3 268.689 2162.6 268.689 Q2154.49 268.689 2149.91 263.967 Q2145.35 259.221 2145.35 250.772 Q2145.35 242.3 2149.91 237.578 Q2154.49 232.833 2162.6 232.833 Q2165.98 232.833 2169.01 233.666 Q2172.06 234.499 2174.63 236.12 L2174.63 241.096 Q2172.04 238.897 2169.12 237.786 Q2166.21 236.675 2162.99 236.675 Q2156.65 236.675 2153.45 240.217 Q2150.28 243.758 2150.28 250.772 Q2150.28 257.763 2153.45 261.305 Q2156.65 264.846 2162.99 264.846 Q2165.47 264.846 2167.41 264.43 Q2169.36 263.99 2170.91 263.087 Z" fill="#000000" fill-rule="nonzero" fill-opacity="1" /><path clip-path="url(#clip330)" d="M2188.75 237.3 L2188.75 250.286 L2194.63 250.286 Q2197.9 250.286 2199.68 248.596 Q2201.46 246.907 2201.46 243.782 Q2201.46 240.68 2199.68 238.99 Q2197.9 237.3 2194.63 237.3 L2188.75 237.3 M2184.08 233.458 L2194.63 233.458 Q2200.44 233.458 2203.41 236.096 Q2206.39 238.712 2206.39 243.782 Q2206.39 248.897 2203.41 251.513 Q2200.44 254.129 2194.63 254.129 L2188.75 254.129 L2188.75 268.018 L2184.08 268.018 L2184.08 233.458 Z" fill="#000000" fill-rule="nonzero" fill-opacity="1" /><polyline clip-path="url(#clip330)" style="stroke:#c271d2; stroke-linecap:round; stroke-linejoin:round; stroke-width:12; stroke-opacity:1; fill:none" points="1977.44,302.578 2121.36,302.578 "/>
<path clip-path="url(#clip330)" d="M2150.03 289.14 L2150.03 302.126 L2155.91 302.126 Q2159.17 302.126 2160.95 300.436 Q2162.73 298.747 2162.73 295.622 Q2162.73 292.52 2160.95 290.83 Q2159.17 289.14 2155.91 289.14 L2150.03 289.14 M2145.35 285.298 L2155.91 285.298 Q2161.72 285.298 2164.68 287.936 Q2167.67 290.552 2167.67 295.622 Q2167.67 300.737 2164.68 303.353 Q2161.72 305.969 2155.91 305.969 L2150.03 305.969 L2150.03 319.858 L2145.35 319.858 L2145.35 285.298 Z" fill="#000000" fill-rule="nonzero" fill-opacity="1" /><path clip-path="url(#clip330)" d="M2178.38 315.922 L2194.7 315.922 L2194.7 319.858 L2172.76 319.858 L2172.76 315.922 Q2175.42 313.168 2180 308.538 Q2184.61 303.885 2185.79 302.543 Q2188.04 300.02 2188.92 298.284 Q2189.82 296.524 2189.82 294.835 Q2189.82 292.08 2187.87 290.344 Q2185.95 288.608 2182.85 288.608 Q2180.65 288.608 2178.2 289.372 Q2175.77 290.135 2172.99 291.686 L2172.99 286.964 Q2175.81 285.83 2178.27 285.251 Q2180.72 284.673 2182.76 284.673 Q2188.13 284.673 2191.32 287.358 Q2194.52 290.043 2194.52 294.534 Q2194.52 296.663 2193.71 298.585 Q2192.92 300.483 2190.81 303.075 Q2190.23 303.747 2187.13 306.964 Q2184.03 310.159 2178.38 315.922 Z" fill="#000000" fill-rule="nonzero" fill-opacity="1" /><path clip-path="url(#clip330)" d="M2204.56 285.298 L2222.92 285.298 L2222.92 289.233 L2208.85 289.233 L2208.85 297.705 Q2209.86 297.358 2210.88 297.196 Q2211.9 297.01 2212.92 297.01 Q2218.71 297.01 2222.09 300.182 Q2225.47 303.353 2225.47 308.77 Q2225.47 314.348 2221.99 317.45 Q2218.52 320.529 2212.2 320.529 Q2210.03 320.529 2207.76 320.158 Q2205.51 319.788 2203.1 319.047 L2203.1 314.348 Q2205.19 315.483 2207.41 316.038 Q2209.63 316.594 2212.11 316.594 Q2216.11 316.594 2218.45 314.487 Q2220.79 312.381 2220.79 308.77 Q2220.79 305.159 2218.45 303.052 Q2216.11 300.946 2212.11 300.946 Q2210.23 300.946 2208.36 301.362 Q2206.51 301.779 2204.56 302.659 L2204.56 285.298 Z" fill="#000000" fill-rule="nonzero" fill-opacity="1" /><polyline clip-path="url(#clip330)" style="stroke:#ac8d18; stroke-linecap:round; stroke-linejoin:round; stroke-width:12; stroke-opacity:1; fill:none" points="1977.44,354.418 2121.36,354.418 "/>
<path clip-path="url(#clip330)" d="M2150.03 340.98 L2150.03 353.966 L2155.91 353.966 Q2159.17 353.966 2160.95 352.276 Q2162.73 350.587 2162.73 347.462 Q2162.73 344.36 2160.95 342.67 Q2159.17 340.98 2155.91 340.98 L2150.03 340.98 M2145.35 337.138 L2155.91 337.138 Q2161.72 337.138 2164.68 339.776 Q2167.67 342.392 2167.67 347.462 Q2167.67 352.577 2164.68 355.193 Q2161.72 357.809 2155.91 357.809 L2150.03 357.809 L2150.03 371.698 L2145.35 371.698 L2145.35 337.138 Z" fill="#000000" fill-rule="nonzero" fill-opacity="1" /><path clip-path="url(#clip330)" d="M2173.17 337.138 L2195.4 337.138 L2195.4 339.128 L2182.85 371.698 L2177.97 371.698 L2189.77 341.073 L2173.17 341.073 L2173.17 337.138 Z" fill="#000000" fill-rule="nonzero" fill-opacity="1" /><path clip-path="url(#clip330)" d="M2204.56 337.138 L2222.92 337.138 L2222.92 341.073 L2208.85 341.073 L2208.85 349.545 Q2209.86 349.198 2210.88 349.036 Q2211.9 348.85 2212.92 348.85 Q2218.71 348.85 2222.09 352.022 Q2225.47 355.193 2225.47 360.61 Q2225.47 366.188 2221.99 369.29 Q2218.52 372.369 2212.2 372.369 Q2210.03 372.369 2207.76 371.998 Q2205.51 371.628 2203.1 370.887 L2203.1 366.188 Q2205.19 367.323 2207.41 367.878 Q2209.63 368.434 2212.11 368.434 Q2216.11 368.434 2218.45 366.327 Q2220.79 364.221 2220.79 360.61 Q2220.79 356.999 2218.45 354.892 Q2216.11 352.786 2212.11 352.786 Q2210.23 352.786 2208.36 353.202 Q2206.51 353.619 2204.56 354.499 L2204.56 337.138 Z" fill="#000000" fill-rule="nonzero" fill-opacity="1" /></svg>
