<?xml version="1.0" encoding="utf-8"?>
<svg xmlns="http://www.w3.org/2000/svg" xmlns:xlink="http://www.w3.org/1999/xlink" width="600" height="400" viewBox="0 0 2400 1600">
<defs>
  <clipPath id="clip210">
    <rect x="0" y="0" width="2400" height="1600"/>
  </clipPath>
</defs>
<path clip-path="url(#clip210)" d="M0 1600 L2400 1600 L2400 0 L0 0  Z" fill="#ffffff" fill-rule="evenodd" fill-opacity="1"/>
<defs>
  <clipPath id="clip211">
    <rect x="480" y="0" width="1681" height="1600"/>
  </clipPath>
</defs>
<path clip-path="url(#clip210)" d="M193.936 1486.45 L2352.76 1486.45 L2352.76 47.2441 L193.936 47.2441  Z" fill="#ffffff" fill-rule="evenodd" fill-opacity="1"/>
<defs>
  <clipPath id="clip212">
    <rect x="193" y="47" width="2160" height="1440"/>
  </clipPath>
</defs>
<polyline clip-path="url(#clip212)" style="stroke:#000000; stroke-linecap:round; stroke-linejoin:round; stroke-width:2; stroke-opacity:0.1; fill:none" points="255.035,1486.45 255.035,47.2441 "/>
<polyline clip-path="url(#clip212)" style="stroke:#000000; stroke-linecap:round; stroke-linejoin:round; stroke-width:2; stroke-opacity:0.1; fill:none" points="579.338,1486.45 579.338,47.2441 "/>
<polyline clip-path="url(#clip212)" style="stroke:#000000; stroke-linecap:round; stroke-linejoin:round; stroke-width:2; stroke-opacity:0.1; fill:none" points="903.641,1486.45 903.641,47.2441 "/>
<polyline clip-path="url(#clip212)" style="stroke:#000000; stroke-linecap:round; stroke-linejoin:round; stroke-width:2; stroke-opacity:0.1; fill:none" points="1227.94,1486.45 1227.94,47.2441 "/>
<polyline clip-path="url(#clip212)" style="stroke:#000000; stroke-linecap:round; stroke-linejoin:round; stroke-width:2; stroke-opacity:0.1; fill:none" points="1552.25,1486.45 1552.25,47.2441 "/>
<polyline clip-path="url(#clip212)" style="stroke:#000000; stroke-linecap:round; stroke-linejoin:round; stroke-width:2; stroke-opacity:0.1; fill:none" points="1876.55,1486.45 1876.55,47.2441 "/>
<polyline clip-path="url(#clip212)" style="stroke:#000000; stroke-linecap:round; stroke-linejoin:round; stroke-width:2; stroke-opacity:0.1; fill:none" points="2200.85,1486.45 2200.85,47.2441 "/>
<polyline clip-path="url(#clip212)" style="stroke:#000000; stroke-linecap:round; stroke-linejoin:round; stroke-width:2; stroke-opacity:0.1; fill:none" points="193.936,1423.47 2352.76,1423.47 "/>
<polyline clip-path="url(#clip212)" style="stroke:#000000; stroke-linecap:round; stroke-linejoin:round; stroke-width:2; stroke-opacity:0.1; fill:none" points="193.936,1120.97 2352.76,1120.97 "/>
<polyline clip-path="url(#clip212)" style="stroke:#000000; stroke-linecap:round; stroke-linejoin:round; stroke-width:2; stroke-opacity:0.1; fill:none" points="193.936,818.47 2352.76,818.47 "/>
<polyline clip-path="url(#clip212)" style="stroke:#000000; stroke-linecap:round; stroke-linejoin:round; stroke-width:2; stroke-opacity:0.1; fill:none" points="193.936,515.97 2352.76,515.97 "/>
<polyline clip-path="url(#clip212)" style="stroke:#000000; stroke-linecap:round; stroke-linejoin:round; stroke-width:2; stroke-opacity:0.1; fill:none" points="193.936,213.47 2352.76,213.47 "/>
<polyline clip-path="url(#clip210)" style="stroke:#000000; stroke-linecap:round; stroke-linejoin:round; stroke-width:4; stroke-opacity:1; fill:none" points="193.936,1486.45 2352.76,1486.45 "/>
<polyline clip-path="url(#clip210)" style="stroke:#000000; stroke-linecap:round; stroke-linejoin:round; stroke-width:4; stroke-opacity:1; fill:none" points="255.035,1486.45 255.035,1467.55 "/>
<polyline clip-path="url(#clip210)" style="stroke:#000000; stroke-linecap:round; stroke-linejoin:round; stroke-width:4; stroke-opacity:1; fill:none" points="579.338,1486.45 579.338,1467.55 "/>
<polyline clip-path="url(#clip210)" style="stroke:#000000; stroke-linecap:round; stroke-linejoin:round; stroke-width:4; stroke-opacity:1; fill:none" points="903.641,1486.45 903.641,1467.55 "/>
<polyline clip-path="url(#clip210)" style="stroke:#000000; stroke-linecap:round; stroke-linejoin:round; stroke-width:4; stroke-opacity:1; fill:none" points="1227.94,1486.45 1227.94,1467.55 "/>
<polyline clip-path="url(#clip210)" style="stroke:#000000; stroke-linecap:round; stroke-linejoin:round; stroke-width:4; stroke-opacity:1; fill:none" points="1552.25,1486.45 1552.25,1467.55 "/>
<polyline clip-path="url(#clip210)" style="stroke:#000000; stroke-linecap:round; stroke-linejoin:round; stroke-width:4; stroke-opacity:1; fill:none" points="1876.55,1486.45 1876.55,1467.55 "/>
<polyline clip-path="url(#clip210)" style="stroke:#000000; stroke-linecap:round; stroke-linejoin:round; stroke-width:4; stroke-opacity:1; fill:none" points="2200.85,1486.45 2200.85,1467.55 "/>
<path clip-path="url(#clip210)" d="M255.035 1517.37 Q251.424 1517.37 249.595 1520.93 Q247.789 1524.47 247.789 1531.6 Q247.789 1538.71 249.595 1542.27 Q251.424 1545.82 255.035 1545.82 Q258.669 1545.82 260.474 1542.27 Q262.303 1538.71 262.303 1531.6 Q262.303 1524.47 260.474 1520.93 Q258.669 1517.37 255.035 1517.37 M255.035 1513.66 Q260.845 1513.66 263.9 1518.27 Q266.979 1522.85 266.979 1531.6 Q266.979 1540.33 263.9 1544.94 Q260.845 1549.52 255.035 1549.52 Q249.225 1549.52 246.146 1544.94 Q243.09 1540.33 243.09 1531.6 Q243.09 1522.85 246.146 1518.27 Q249.225 1513.66 255.035 1513.66 Z" fill="#000000" fill-rule="nonzero" fill-opacity="1" /><path clip-path="url(#clip210)" d="M569.72 1544.91 L577.358 1544.91 L577.358 1518.55 L569.048 1520.21 L569.048 1515.95 L577.312 1514.29 L581.988 1514.29 L581.988 1544.91 L589.627 1544.91 L589.627 1548.85 L569.72 1548.85 L569.72 1544.91 Z" fill="#000000" fill-rule="nonzero" fill-opacity="1" /><path clip-path="url(#clip210)" d="M898.293 1544.91 L914.613 1544.91 L914.613 1548.85 L892.668 1548.85 L892.668 1544.91 Q895.33 1542.16 899.914 1537.53 Q904.52 1532.88 905.701 1531.53 Q907.946 1529.01 908.826 1527.27 Q909.729 1525.51 909.729 1523.82 Q909.729 1521.07 907.784 1519.33 Q905.863 1517.6 902.761 1517.6 Q900.562 1517.6 898.108 1518.36 Q895.678 1519.13 892.9 1520.68 L892.9 1515.95 Q895.724 1514.82 898.178 1514.24 Q900.631 1513.66 902.668 1513.66 Q908.039 1513.66 911.233 1516.35 Q914.428 1519.03 914.428 1523.52 Q914.428 1525.65 913.617 1527.57 Q912.83 1529.47 910.724 1532.07 Q910.145 1532.74 907.043 1535.95 Q903.942 1539.15 898.293 1544.91 Z" fill="#000000" fill-rule="nonzero" fill-opacity="1" /><path clip-path="url(#clip210)" d="M1232.19 1530.21 Q1235.55 1530.93 1237.42 1533.2 Q1239.32 1535.47 1239.32 1538.8 Q1239.32 1543.92 1235.8 1546.72 Q1232.28 1549.52 1225.8 1549.52 Q1223.63 1549.52 1221.31 1549.08 Q1219.02 1548.66 1216.57 1547.81 L1216.57 1543.29 Q1218.51 1544.43 1220.83 1545.01 Q1223.14 1545.58 1225.66 1545.58 Q1230.06 1545.58 1232.35 1543.85 Q1234.67 1542.11 1234.67 1538.8 Q1234.67 1535.75 1232.52 1534.03 Q1230.39 1532.3 1226.57 1532.3 L1222.54 1532.3 L1222.54 1528.45 L1226.75 1528.45 Q1230.2 1528.45 1232.03 1527.09 Q1233.86 1525.7 1233.86 1523.11 Q1233.86 1520.45 1231.96 1519.03 Q1230.08 1517.6 1226.57 1517.6 Q1224.64 1517.6 1222.45 1518.01 Q1220.25 1518.43 1217.61 1519.31 L1217.61 1515.14 Q1220.27 1514.4 1222.58 1514.03 Q1224.92 1513.66 1226.98 1513.66 Q1232.31 1513.66 1235.41 1516.09 Q1238.51 1518.5 1238.51 1522.62 Q1238.51 1525.49 1236.87 1527.48 Q1235.22 1529.45 1232.19 1530.21 Z" fill="#000000" fill-rule="nonzero" fill-opacity="1" /><path clip-path="url(#clip210)" d="M1555.26 1518.36 L1543.45 1536.81 L1555.26 1536.81 L1555.26 1518.36 M1554.03 1514.29 L1559.91 1514.29 L1559.91 1536.81 L1564.84 1536.81 L1564.84 1540.7 L1559.91 1540.7 L1559.91 1548.85 L1555.26 1548.85 L1555.26 1540.7 L1539.65 1540.7 L1539.65 1536.19 L1554.03 1514.29 Z" fill="#000000" fill-rule="nonzero" fill-opacity="1" /><path clip-path="url(#clip210)" d="M1866.83 1514.29 L1885.18 1514.29 L1885.18 1518.22 L1871.11 1518.22 L1871.11 1526.7 Q1872.13 1526.35 1873.15 1526.19 Q1874.17 1526 1875.18 1526 Q1880.97 1526 1884.35 1529.17 Q1887.73 1532.34 1887.73 1537.76 Q1887.73 1543.34 1884.26 1546.44 Q1880.79 1549.52 1874.47 1549.52 Q1872.29 1549.52 1870.02 1549.15 Q1867.78 1548.78 1865.37 1548.04 L1865.37 1543.34 Q1867.45 1544.47 1869.67 1545.03 Q1871.9 1545.58 1874.37 1545.58 Q1878.38 1545.58 1880.72 1543.48 Q1883.05 1541.37 1883.05 1537.76 Q1883.05 1534.15 1880.72 1532.04 Q1878.38 1529.94 1874.37 1529.94 Q1872.5 1529.94 1870.62 1530.35 Q1868.77 1530.77 1866.83 1531.65 L1866.83 1514.29 Z" fill="#000000" fill-rule="nonzero" fill-opacity="1" /><path clip-path="url(#clip210)" d="M2201.26 1529.7 Q2198.11 1529.7 2196.26 1531.86 Q2194.43 1534.01 2194.43 1537.76 Q2194.43 1541.49 2196.26 1543.66 Q2198.11 1545.82 2201.26 1545.82 Q2204.41 1545.82 2206.23 1543.66 Q2208.09 1541.49 2208.09 1537.76 Q2208.09 1534.01 2206.23 1531.86 Q2204.41 1529.7 2201.26 1529.7 M2210.54 1515.05 L2210.54 1519.31 Q2208.78 1518.48 2206.98 1518.04 Q2205.19 1517.6 2203.43 1517.6 Q2198.8 1517.6 2196.35 1520.72 Q2193.92 1523.85 2193.57 1530.17 Q2194.94 1528.15 2197 1527.09 Q2199.06 1526 2201.54 1526 Q2206.74 1526 2209.75 1529.17 Q2212.79 1532.32 2212.79 1537.76 Q2212.79 1543.08 2209.64 1546.3 Q2206.49 1549.52 2201.26 1549.52 Q2195.26 1549.52 2192.09 1544.94 Q2188.92 1540.33 2188.92 1531.6 Q2188.92 1523.41 2192.81 1518.55 Q2196.7 1513.66 2203.25 1513.66 Q2205.01 1513.66 2206.79 1514.01 Q2208.6 1514.36 2210.54 1515.05 Z" fill="#000000" fill-rule="nonzero" fill-opacity="1" /><polyline clip-path="url(#clip210)" style="stroke:#000000; stroke-linecap:round; stroke-linejoin:round; stroke-width:4; stroke-opacity:1; fill:none" points="193.936,1486.45 193.936,47.2441 "/>
<polyline clip-path="url(#clip210)" style="stroke:#000000; stroke-linecap:round; stroke-linejoin:round; stroke-width:4; stroke-opacity:1; fill:none" points="193.936,1423.47 212.834,1423.47 "/>
<polyline clip-path="url(#clip210)" style="stroke:#000000; stroke-linecap:round; stroke-linejoin:round; stroke-width:4; stroke-opacity:1; fill:none" points="193.936,1120.97 212.834,1120.97 "/>
<polyline clip-path="url(#clip210)" style="stroke:#000000; stroke-linecap:round; stroke-linejoin:round; stroke-width:4; stroke-opacity:1; fill:none" points="193.936,818.47 212.834,818.47 "/>
<polyline clip-path="url(#clip210)" style="stroke:#000000; stroke-linecap:round; stroke-linejoin:round; stroke-width:4; stroke-opacity:1; fill:none" points="193.936,515.97 212.834,515.97 "/>
<polyline clip-path="url(#clip210)" style="stroke:#000000; stroke-linecap:round; stroke-linejoin:round; stroke-width:4; stroke-opacity:1; fill:none" points="193.936,213.47 212.834,213.47 "/>
<path clip-path="url(#clip210)" d="M50.9921 1423.92 L80.6679 1423.92 L80.6679 1427.86 L50.9921 1427.86 L50.9921 1423.92 Z" fill="#000000" fill-rule="nonzero" fill-opacity="1" /><path clip-path="url(#clip210)" d="M91.5706 1436.81 L99.2095 1436.81 L99.2095 1410.45 L90.8993 1412.12 L90.8993 1407.86 L99.1632 1406.19 L103.839 1406.19 L103.839 1436.81 L111.478 1436.81 L111.478 1440.75 L91.5706 1440.75 L91.5706 1436.81 Z" fill="#000000" fill-rule="nonzero" fill-opacity="1" /><path clip-path="url(#clip210)" d="M120.922 1434.87 L125.807 1434.87 L125.807 1440.75 L120.922 1440.75 L120.922 1434.87 Z" fill="#000000" fill-rule="nonzero" fill-opacity="1" /><path clip-path="url(#clip210)" d="M145.992 1409.27 Q142.381 1409.27 140.552 1412.83 Q138.746 1416.38 138.746 1423.5 Q138.746 1430.61 140.552 1434.18 Q142.381 1437.72 145.992 1437.72 Q149.626 1437.72 151.431 1434.18 Q153.26 1430.61 153.26 1423.5 Q153.26 1416.38 151.431 1412.83 Q149.626 1409.27 145.992 1409.27 M145.992 1405.56 Q151.802 1405.56 154.857 1410.17 Q157.936 1414.75 157.936 1423.5 Q157.936 1432.23 154.857 1436.84 Q151.802 1441.42 145.992 1441.42 Q140.181 1441.42 137.103 1436.84 Q134.047 1432.23 134.047 1423.5 Q134.047 1414.75 137.103 1410.17 Q140.181 1405.56 145.992 1405.56 Z" fill="#000000" fill-rule="nonzero" fill-opacity="1" /><path clip-path="url(#clip210)" d="M51.9875 1121.42 L81.6633 1121.42 L81.6633 1125.36 L51.9875 1125.36 L51.9875 1121.42 Z" fill="#000000" fill-rule="nonzero" fill-opacity="1" /><path clip-path="url(#clip210)" d="M101.756 1106.77 Q98.1447 1106.77 96.316 1110.33 Q94.5104 1113.88 94.5104 1121 Q94.5104 1128.11 96.316 1131.68 Q98.1447 1135.22 101.756 1135.22 Q105.39 1135.22 107.196 1131.68 Q109.024 1128.11 109.024 1121 Q109.024 1113.88 107.196 1110.33 Q105.39 1106.77 101.756 1106.77 M101.756 1103.06 Q107.566 1103.06 110.621 1107.67 Q113.7 1112.25 113.7 1121 Q113.7 1129.73 110.621 1134.34 Q107.566 1138.92 101.756 1138.92 Q95.9456 1138.92 92.8669 1134.34 Q89.8114 1129.73 89.8114 1121 Q89.8114 1112.25 92.8669 1107.67 Q95.9456 1103.06 101.756 1103.06 Z" fill="#000000" fill-rule="nonzero" fill-opacity="1" /><path clip-path="url(#clip210)" d="M121.918 1132.37 L126.802 1132.37 L126.802 1138.25 L121.918 1138.25 L121.918 1132.37 Z" fill="#000000" fill-rule="nonzero" fill-opacity="1" /><path clip-path="url(#clip210)" d="M137.033 1103.69 L155.39 1103.69 L155.39 1107.63 L141.316 1107.63 L141.316 1116.1 Q142.334 1115.75 143.353 1115.59 Q144.371 1115.4 145.39 1115.4 Q151.177 1115.4 154.556 1118.57 Q157.936 1121.75 157.936 1127.16 Q157.936 1132.74 154.464 1135.84 Q150.992 1138.92 144.672 1138.92 Q142.496 1138.92 140.228 1138.55 Q137.982 1138.18 135.575 1137.44 L135.575 1132.74 Q137.658 1133.87 139.881 1134.43 Q142.103 1134.99 144.58 1134.99 Q148.584 1134.99 150.922 1132.88 Q153.26 1130.77 153.26 1127.16 Q153.26 1123.55 150.922 1121.44 Q148.584 1119.34 144.58 1119.34 Q142.705 1119.34 140.83 1119.75 Q138.978 1120.17 137.033 1121.05 L137.033 1103.69 Z" fill="#000000" fill-rule="nonzero" fill-opacity="1" /><path clip-path="url(#clip210)" d="M100.76 804.269 Q97.1493 804.269 95.3206 807.833 Q93.515 811.375 93.515 818.505 Q93.515 825.611 95.3206 829.176 Q97.1493 832.717 100.76 832.717 Q104.395 832.717 106.2 829.176 Q108.029 825.611 108.029 818.505 Q108.029 811.375 106.2 807.833 Q104.395 804.269 100.76 804.269 M100.76 800.565 Q106.571 800.565 109.626 805.171 Q112.705 809.755 112.705 818.505 Q112.705 827.231 109.626 831.838 Q106.571 836.421 100.76 836.421 Q94.9502 836.421 91.8715 831.838 Q88.816 827.231 88.816 818.505 Q88.816 809.755 91.8715 805.171 Q94.9502 800.565 100.76 800.565 Z" fill="#000000" fill-rule="nonzero" fill-opacity="1" /><path clip-path="url(#clip210)" d="M120.922 829.87 L125.807 829.87 L125.807 835.75 L120.922 835.75 L120.922 829.87 Z" fill="#000000" fill-rule="nonzero" fill-opacity="1" /><path clip-path="url(#clip210)" d="M145.992 804.269 Q142.381 804.269 140.552 807.833 Q138.746 811.375 138.746 818.505 Q138.746 825.611 140.552 829.176 Q142.381 832.717 145.992 832.717 Q149.626 832.717 151.431 829.176 Q153.26 825.611 153.26 818.505 Q153.26 811.375 151.431 807.833 Q149.626 804.269 145.992 804.269 M145.992 800.565 Q151.802 800.565 154.857 805.171 Q157.936 809.755 157.936 818.505 Q157.936 827.231 154.857 831.838 Q151.802 836.421 145.992 836.421 Q140.181 836.421 137.103 831.838 Q134.047 827.231 134.047 818.505 Q134.047 809.755 137.103 805.171 Q140.181 800.565 145.992 800.565 Z" fill="#000000" fill-rule="nonzero" fill-opacity="1" /><path clip-path="url(#clip210)" d="M101.756 501.768 Q98.1447 501.768 96.316 505.333 Q94.5104 508.875 94.5104 516.005 Q94.5104 523.111 96.316 526.676 Q98.1447 530.217 101.756 530.217 Q105.39 530.217 107.196 526.676 Q109.024 523.111 109.024 516.005 Q109.024 508.875 107.196 505.333 Q105.39 501.768 101.756 501.768 M101.756 498.065 Q107.566 498.065 110.621 502.671 Q113.7 507.255 113.7 516.005 Q113.7 524.731 110.621 529.338 Q107.566 533.921 101.756 533.921 Q95.9456 533.921 92.8669 529.338 Q89.8114 524.731 89.8114 516.005 Q89.8114 507.255 92.8669 502.671 Q95.9456 498.065 101.756 498.065 Z" fill="#000000" fill-rule="nonzero" fill-opacity="1" /><path clip-path="url(#clip210)" d="M121.918 527.37 L126.802 527.37 L126.802 533.25 L121.918 533.25 L121.918 527.37 Z" fill="#000000" fill-rule="nonzero" fill-opacity="1" /><path clip-path="url(#clip210)" d="M137.033 498.69 L155.39 498.69 L155.39 502.625 L141.316 502.625 L141.316 511.097 Q142.334 510.75 143.353 510.588 Q144.371 510.403 145.39 510.403 Q151.177 510.403 154.556 513.574 Q157.936 516.745 157.936 522.162 Q157.936 527.741 154.464 530.842 Q150.992 533.921 144.672 533.921 Q142.496 533.921 140.228 533.551 Q137.982 533.18 135.575 532.44 L135.575 527.741 Q137.658 528.875 139.881 529.43 Q142.103 529.986 144.58 529.986 Q148.584 529.986 150.922 527.879 Q153.26 525.773 153.26 522.162 Q153.26 518.551 150.922 516.444 Q148.584 514.338 144.58 514.338 Q142.705 514.338 140.83 514.755 Q138.978 515.171 137.033 516.051 L137.033 498.69 Z" fill="#000000" fill-rule="nonzero" fill-opacity="1" /><path clip-path="url(#clip210)" d="M91.5706 226.815 L99.2095 226.815 L99.2095 200.449 L90.8993 202.116 L90.8993 197.856 L99.1632 196.19 L103.839 196.19 L103.839 226.815 L111.478 226.815 L111.478 230.75 L91.5706 230.75 L91.5706 226.815 Z" fill="#000000" fill-rule="nonzero" fill-opacity="1" /><path clip-path="url(#clip210)" d="M120.922 224.87 L125.807 224.87 L125.807 230.75 L120.922 230.75 L120.922 224.87 Z" fill="#000000" fill-rule="nonzero" fill-opacity="1" /><path clip-path="url(#clip210)" d="M145.992 199.268 Q142.381 199.268 140.552 202.833 Q138.746 206.375 138.746 213.504 Q138.746 220.611 140.552 224.176 Q142.381 227.717 145.992 227.717 Q149.626 227.717 151.431 224.176 Q153.26 220.611 153.26 213.504 Q153.26 206.375 151.431 202.833 Q149.626 199.268 145.992 199.268 M145.992 195.565 Q151.802 195.565 154.857 200.171 Q157.936 204.755 157.936 213.504 Q157.936 222.231 154.857 226.838 Q151.802 231.421 145.992 231.421 Q140.181 231.421 137.103 226.838 Q134.047 222.231 134.047 213.504 Q134.047 204.755 137.103 200.171 Q140.181 195.565 145.992 195.565 Z" fill="#000000" fill-rule="nonzero" fill-opacity="1" /><polyline clip-path="url(#clip212)" style="stroke:#009af9; stroke-linecap:round; stroke-linejoin:round; stroke-width:4; stroke-opacity:1; fill:none" points="255.035,818.47 258.278,812.42 261.521,806.371 264.764,800.323 268.007,794.276 271.25,788.232 274.493,782.192 277.736,776.154 280.979,770.121 284.222,764.093 287.465,758.071 290.708,752.054 293.951,746.044 297.194,740.041 300.437,734.046 303.68,728.06 306.923,722.082 310.166,716.115 313.409,710.157 316.652,704.21 319.895,698.275 323.138,692.352 326.381,686.441 329.624,680.543 332.867,674.66 336.11,668.79 339.353,662.936 342.596,657.097 345.84,651.275 349.083,645.469 352.326,639.68 355.569,633.909 358.812,628.157 362.055,622.424 365.298,616.71 368.541,611.017 371.784,605.344 375.027,599.692 378.27,594.063 381.513,588.456 384.756,582.872 387.999,577.311 391.242,571.775 394.485,566.263 397.728,560.776 400.971,555.316 404.214,549.881 407.457,544.474 410.7,539.093 413.943,533.741 417.186,528.417 420.429,523.123 423.672,517.857 426.915,512.622 430.158,507.418 433.401,502.244 436.644,497.102 439.887,491.992 443.13,486.915 446.373,481.871 449.616,476.861 452.859,471.885 456.103,466.944 459.346,462.037 462.589,457.167 465.832,452.332 469.075,447.534 472.318,442.773 475.561,438.05 478.804,433.365 482.047,428.718 485.29,424.11 488.533,419.542 491.776,415.014 495.019,410.526 498.262,406.078 501.505,401.672 504.748,397.308 507.991,392.986 511.234,388.706 514.477,384.469 517.72,380.276 520.963,376.127 524.206,372.021 527.449,367.961 530.692,363.945 533.935,359.975 537.178,356.051 540.421,352.173 543.664,348.341 546.907,344.557 550.15,340.82 553.393,337.131 556.636,333.49 559.879,329.897 563.122,326.353 566.366,322.859 569.609,319.414 572.852,316.019 576.095,312.674 579.338,309.38 582.581,306.136 585.824,302.944 589.067,299.804 592.31,296.715 595.553,293.679 598.796,290.695 602.039,287.763 605.282,284.885 608.525,282.06 611.768,279.289 615.011,276.572 618.254,273.909 621.497,271.3 624.74,268.746 627.983,266.248 631.226,263.804 634.469,261.416 637.712,259.083 640.955,256.807 644.198,254.586 647.441,252.422 650.684,250.315 653.927,248.264 657.17,246.27 660.413,244.334 663.656,242.455 666.899,240.634 670.142,238.87 673.385,237.165 676.629,235.517 679.872,233.928 683.115,232.397 686.358,230.925 689.601,229.512 692.844,228.157 696.087,226.862 699.33,225.625 702.573,224.448 705.816,223.331 709.059,222.273 712.302,221.274 715.545,220.335 718.788,219.456 722.031,218.637 725.274,217.878 728.517,217.179 731.76,216.541 735.003,215.962 738.246,215.443 741.489,214.985 744.732,214.587 747.975,214.25 751.218,213.973 754.461,213.757 757.704,213.601 760.947,213.505 764.19,213.47 767.433,213.495 770.676,213.581 773.919,213.728 777.162,213.935 780.405,214.202 783.648,214.53 786.892,214.918 790.135,215.366 793.378,215.875 796.621,216.444 799.864,217.074 803.107,217.763 806.35,218.513 809.593,219.322 812.836,220.191 816.079,221.121 819.322,222.11 822.565,223.158 825.808,224.266 829.051,225.434 832.294,226.661 835.537,227.947 838.78,229.292 842.023,230.696 845.266,232.159 848.509,233.68 851.752,235.26 854.995,236.898 858.238,238.595 861.481,240.349 864.724,242.161 867.967,244.031 871.21,245.958 874.453,247.943 877.696,249.984 880.939,252.083 884.182,254.238 887.425,256.449 890.668,258.717 893.911,261.04 897.155,263.42 900.398,265.855 903.641,268.345 906.884,270.89 910.127,273.49 913.37,276.144 916.613,278.853 919.856,281.616 923.099,284.432 926.342,287.301 929.585,290.224 932.828,293.2 936.071,296.228 939.314,299.308 942.557,302.441 945.8,305.625 949.043,308.86 952.286,312.146 955.529,315.483 958.772,318.87 962.015,322.307 965.258,325.794 968.501,329.329 971.744,332.914 974.987,336.548 978.23,340.229 981.473,343.959 984.716,347.735 987.959,351.559 991.202,355.43 994.445,359.347 997.688,363.31 1000.93,367.318 1004.17,371.372 1007.42,375.47 1010.66,379.612 1013.9,383.799 1017.15,388.028 1020.39,392.301 1023.63,396.617 1026.88,400.974 1030.12,405.374 1033.36,409.815 1036.6,414.296 1039.85,418.818 1043.09,423.38 1046.33,427.982 1049.58,432.622 1052.82,437.301 1056.06,442.018 1059.31,446.773 1062.55,451.565 1065.79,456.394 1069.04,461.259 1072.28,466.16 1075.52,471.096 1078.76,476.066 1082.01,481.071 1085.25,486.11 1088.49,491.182 1091.74,496.286 1094.98,501.423 1098.22,506.591 1101.47,511.791 1104.71,517.021 1107.95,522.282 1111.19,527.572 1114.44,532.891 1117.68,538.239 1120.92,543.615 1124.17,549.018 1127.41,554.448 1130.65,559.905 1133.9,565.387 1137.14,570.895 1140.38,576.428 1143.62,581.985 1146.87,587.565 1150.11,593.168 1153.35,598.794 1156.6,604.442 1159.84,610.112 1163.08,615.802 1166.33,621.512 1169.57,627.243 1172.81,632.992 1176.06,638.76 1179.3,644.546 1182.54,650.349 1185.78,656.169 1189.03,662.005 1192.27,667.857 1195.51,673.724 1198.76,679.605 1202,685.501 1205.24,691.409 1208.49,697.331 1211.73,703.264 1214.97,709.209 1218.21,715.165 1221.46,721.131 1224.7,727.107 1227.94,733.092 1231.19,739.086 1234.43,745.087 1237.67,751.096 1240.92,757.112 1244.16,763.134 1247.4,769.161 1250.64,775.193 1253.89,781.23 1257.13,787.27 1260.37,793.314 1263.62,799.359 1266.86,805.407 1270.1,811.456 1273.35,817.506 1276.59,823.556 1279.83,829.606 1283.08,835.654 1286.32,841.701 1289.56,847.745 1292.8,853.786 1296.05,859.824 1299.29,865.858 1302.53,871.887 1305.78,877.91 1309.02,883.928 1312.26,889.939 1315.51,895.943 1318.75,901.939 1321.99,907.927 1325.23,913.906 1328.48,919.875 1331.72,925.835 1334.96,931.783 1338.21,937.72 1341.45,943.646 1344.69,949.558 1347.94,955.458 1351.18,961.344 1354.42,967.215 1357.66,973.072 1360.91,978.914 1364.15,984.739 1367.39,990.547 1370.64,996.339 1373.88,1002.11 1377.12,1007.87 1380.37,1013.6 1383.61,1019.32 1386.85,1025.02 1390.1,1030.69 1393.34,1036.35 1396.58,1041.98 1399.82,1047.59 1403.07,1053.18 1406.31,1058.74 1409.55,1064.28 1412.8,1069.8 1416.04,1075.29 1419.28,1080.76 1422.53,1086.19 1425.77,1091.61 1429.01,1096.99 1432.25,1102.35 1435.5,1107.68 1438.74,1112.98 1441.98,1118.25 1445.23,1123.49 1448.47,1128.7 1451.71,1133.87 1454.96,1139.02 1458.2,1144.14 1461.44,1149.22 1464.68,1154.27 1467.93,1159.28 1471.17,1164.26 1474.41,1169.21 1477.66,1174.12 1480.9,1179 1484.14,1183.84 1487.39,1188.64 1490.63,1193.41 1493.87,1198.14 1497.11,1202.83 1500.36,1207.48 1503.6,1212.1 1506.84,1216.67 1510.09,1221.21 1513.33,1225.7 1516.57,1230.16 1519.82,1234.57 1523.06,1238.94 1526.3,1243.27 1529.55,1247.55 1532.79,1251.8 1536.03,1256 1539.27,1260.16 1542.52,1264.27 1545.76,1268.34 1549,1272.36 1552.25,1276.34 1555.49,1280.27 1558.73,1284.15 1561.98,1287.99 1565.22,1291.78 1568.46,1295.53 1571.7,1299.22 1574.95,1302.87 1578.19,1306.47 1581.43,1310.03 1584.68,1313.53 1587.92,1316.98 1591.16,1320.38 1594.41,1323.74 1597.65,1327.04 1600.89,1330.29 1604.13,1333.49 1607.38,1336.64 1610.62,1339.74 1613.86,1342.78 1617.11,1345.77 1620.35,1348.71 1623.59,1351.6 1626.84,1354.43 1630.08,1357.21 1633.32,1359.94 1636.57,1362.61 1639.81,1365.23 1643.05,1367.79 1646.29,1370.3 1649.54,1372.75 1652.78,1375.15 1656.02,1377.49 1659.27,1379.77 1662.51,1382 1665.75,1384.18 1669,1386.29 1672.24,1388.35 1675.48,1390.36 1678.72,1392.3 1681.97,1394.19 1685.21,1396.02 1688.45,1397.79 1691.7,1399.51 1694.94,1401.16 1698.18,1402.76 1701.43,1404.3 1704.67,1405.78 1707.91,1407.21 1711.15,1408.57 1714.4,1409.88 1717.64,1411.12 1720.88,1412.31 1724.13,1413.43 1727.37,1414.5 1730.61,1415.51 1733.86,1416.46 1737.1,1417.35 1740.34,1418.18 1743.59,1418.94 1746.83,1419.65 1750.07,1420.3 1753.31,1420.89 1756.56,1421.42 1759.8,1421.89 1763.04,1422.29 1766.29,1422.64 1769.53,1422.93 1772.77,1423.15 1776.02,1423.32 1779.26,1423.42 1782.5,1423.47 1785.74,1423.45 1788.99,1423.38 1792.23,1423.24 1795.47,1423.04 1798.72,1422.78 1801.96,1422.47 1805.2,1422.09 1808.45,1421.65 1811.69,1421.15 1814.93,1420.59 1818.17,1419.97 1821.42,1419.29 1824.66,1418.55 1827.9,1417.75 1831.15,1416.89 1834.39,1415.97 1837.63,1414.99 1840.88,1413.95 1844.12,1412.85 1847.36,1411.7 1850.61,1410.48 1853.85,1409.2 1857.09,1407.87 1860.33,1406.47 1863.58,1405.02 1866.82,1403.51 1870.06,1401.94 1873.31,1400.31 1876.55,1398.62 1879.79,1396.87 1883.04,1395.07 1886.28,1393.21 1889.52,1391.29 1892.76,1389.32 1896.01,1387.28 1899.25,1385.2 1902.49,1383.05 1905.74,1380.85 1908.98,1378.59 1912.22,1376.27 1915.47,1373.9 1918.71,1371.48 1921.95,1369 1925.19,1366.46 1928.44,1363.87 1931.68,1361.22 1934.92,1358.52 1938.17,1355.77 1941.41,1352.96 1944.65,1350.1 1947.9,1347.18 1951.14,1344.22 1954.38,1341.2 1957.63,1338.13 1960.87,1335 1964.11,1331.83 1967.35,1328.6 1970.6,1325.32 1973.84,1321.99 1977.08,1318.61 1980.33,1315.18 1983.57,1311.7 1986.81,1308.18 1990.06,1304.6 1993.3,1300.97 1996.54,1297.3 1999.78,1293.58 2003.03,1289.81 2006.27,1285.99 2009.51,1282.13 2012.76,1278.22 2016,1274.26 2019.24,1270.26 2022.49,1266.22 2025.73,1262.13 2028.97,1257.99 2032.21,1253.81 2035.46,1249.59 2038.7,1245.32 2041.94,1241.01 2045.19,1236.66 2048.43,1232.27 2051.67,1227.84 2054.92,1223.36 2058.16,1218.84 2061.4,1214.29 2064.65,1209.69 2067.89,1205.06 2071.13,1200.39 2074.37,1195.68 2077.62,1190.93 2080.86,1186.14 2084.1,1181.32 2087.35,1176.46 2090.59,1171.56 2093.83,1166.63 2097.08,1161.67 2100.32,1156.67 2103.56,1151.63 2106.8,1146.57 2110.05,1141.47 2113.29,1136.34 2116.53,1131.17 2119.78,1125.98 2123.02,1120.75 2126.26,1115.5 2129.51,1110.21 2132.75,1104.9 2135.99,1099.55 2139.23,1094.18 2142.48,1088.78 2145.72,1083.36 2148.96,1077.91 2152.21,1072.43 2155.45,1066.92 2158.69,1061.39 2161.94,1055.84 2165.18,1050.27 2168.42,1044.67 2171.67,1039.04 2174.91,1033.4 2178.15,1027.73 2181.39,1022.05 2184.64,1016.34 2187.88,1010.61 2191.12,1004.86 2194.37,999.1 2197.61,993.317 2200.85,987.516 2204.1,981.699 2207.34,975.865 2210.58,970.016 2213.82,964.151 2217.07,958.272 2220.31,952.379 2223.55,946.472 2226.8,940.553 2230.04,934.621 2233.28,928.678 2236.53,922.724 2239.77,916.759 2243.01,910.785 2246.25,904.801 2249.5,898.809 2252.74,892.809 2255.98,886.801 2259.23,880.786 2262.47,874.765 2265.71,868.739 2268.96,862.707 2272.2,856.672 2275.44,850.632 2278.69,844.589 2281.93,838.543 2285.17,832.496 2288.41,826.447 2291.66,820.397 "/>
<circle clip-path="url(#clip212)" cx="443.13" cy="460.912" r="14.4" fill="#e26f46" fill-rule="evenodd" fill-opacity="1" stroke="#000000" stroke-opacity="1" stroke-width="3.2"/>
<circle clip-path="url(#clip212)" cx="1234.43" cy="743.648" r="14.4" fill="#e26f46" fill-rule="evenodd" fill-opacity="1" stroke="#000000" stroke-opacity="1" stroke-width="3.2"/>
<circle clip-path="url(#clip212)" cx="495.019" cy="391.029" r="14.4" fill="#e26f46" fill-rule="evenodd" fill-opacity="1" stroke="#000000" stroke-opacity="1" stroke-width="3.2"/>
<circle clip-path="url(#clip212)" cx="929.585" cy="295.456" r="14.4" fill="#e26f46" fill-rule="evenodd" fill-opacity="1" stroke="#000000" stroke-opacity="1" stroke-width="3.2"/>
<circle clip-path="url(#clip212)" cx="1630.08" cy="1445.72" r="14.4" fill="#e26f46" fill-rule="evenodd" fill-opacity="1" stroke="#000000" stroke-opacity="1" stroke-width="3.2"/>
<circle clip-path="url(#clip212)" cx="1581.43" cy="1374.73" r="14.4" fill="#e26f46" fill-rule="evenodd" fill-opacity="1" stroke="#000000" stroke-opacity="1" stroke-width="3.2"/>
<circle clip-path="url(#clip212)" cx="738.246" cy="87.9763" r="14.4" fill="#e26f46" fill-rule="evenodd" fill-opacity="1" stroke="#000000" stroke-opacity="1" stroke-width="3.2"/>
<circle clip-path="url(#clip212)" cx="482.047" cy="326.636" r="14.4" fill="#e26f46" fill-rule="evenodd" fill-opacity="1" stroke="#000000" stroke-opacity="1" stroke-width="3.2"/>
<circle clip-path="url(#clip212)" cx="501.505" cy="355.404" r="14.4" fill="#e26f46" fill-rule="evenodd" fill-opacity="1" stroke="#000000" stroke-opacity="1" stroke-width="3.2"/>
<circle clip-path="url(#clip212)" cx="2246.25" cy="872.171" r="14.4" fill="#e26f46" fill-rule="evenodd" fill-opacity="1" stroke="#000000" stroke-opacity="1" stroke-width="3.2"/>
<circle clip-path="url(#clip212)" cx="384.756" cy="564.077" r="14.4" fill="#e26f46" fill-rule="evenodd" fill-opacity="1" stroke="#000000" stroke-opacity="1" stroke-width="3.2"/>
<circle clip-path="url(#clip212)" cx="650.684" cy="225.173" r="14.4" fill="#e26f46" fill-rule="evenodd" fill-opacity="1" stroke="#000000" stroke-opacity="1" stroke-width="3.2"/>
<circle clip-path="url(#clip212)" cx="1782.5" cy="1302.3" r="14.4" fill="#e26f46" fill-rule="evenodd" fill-opacity="1" stroke="#000000" stroke-opacity="1" stroke-width="3.2"/>
<circle clip-path="url(#clip212)" cx="300.437" cy="587.121" r="14.4" fill="#e26f46" fill-rule="evenodd" fill-opacity="1" stroke="#000000" stroke-opacity="1" stroke-width="3.2"/>
<circle clip-path="url(#clip212)" cx="611.768" cy="163.322" r="14.4" fill="#e26f46" fill-rule="evenodd" fill-opacity="1" stroke="#000000" stroke-opacity="1" stroke-width="3.2"/>
<circle clip-path="url(#clip212)" cx="1448.47" cy="1227.56" r="14.4" fill="#e26f46" fill-rule="evenodd" fill-opacity="1" stroke="#000000" stroke-opacity="1" stroke-width="3.2"/>
<circle clip-path="url(#clip212)" cx="1681.97" cy="1300.36" r="14.4" fill="#e26f46" fill-rule="evenodd" fill-opacity="1" stroke="#000000" stroke-opacity="1" stroke-width="3.2"/>
<circle clip-path="url(#clip212)" cx="874.453" cy="388.091" r="14.4" fill="#e26f46" fill-rule="evenodd" fill-opacity="1" stroke="#000000" stroke-opacity="1" stroke-width="3.2"/>
<circle clip-path="url(#clip212)" cx="1448.47" cy="984.619" r="14.4" fill="#e26f46" fill-rule="evenodd" fill-opacity="1" stroke="#000000" stroke-opacity="1" stroke-width="3.2"/>
<circle clip-path="url(#clip212)" cx="906.884" cy="318.172" r="14.4" fill="#e26f46" fill-rule="evenodd" fill-opacity="1" stroke="#000000" stroke-opacity="1" stroke-width="3.2"/>
<path clip-path="url(#clip210)" d="M1953.46 250.738 L2280.8 250.738 L2280.8 95.2176 L1953.46 95.2176  Z" fill="#ffffff" fill-rule="evenodd" fill-opacity="1"/>
<polyline clip-path="url(#clip210)" style="stroke:#000000; stroke-linecap:round; stroke-linejoin:round; stroke-width:4; stroke-opacity:1; fill:none" points="1953.46,250.738 2280.8,250.738 2280.8,95.2176 1953.46,95.2176 1953.46,250.738 "/>
<polyline clip-path="url(#clip210)" style="stroke:#009af9; stroke-linecap:round; stroke-linejoin:round; stroke-width:4; stroke-opacity:1; fill:none" points="1977.44,147.058 2121.36,147.058 "/>
<path clip-path="url(#clip210)" d="M2152.76 131.051 L2152.76 138.412 L2161.53 138.412 L2161.53 141.722 L2152.76 141.722 L2152.76 155.796 Q2152.76 158.967 2153.61 159.87 Q2154.49 160.773 2157.16 160.773 L2161.53 160.773 L2161.53 164.338 L2157.16 164.338 Q2152.23 164.338 2150.35 162.509 Q2148.48 160.657 2148.48 155.796 L2148.48 141.722 L2145.35 141.722 L2145.35 138.412 L2148.48 138.412 L2148.48 131.051 L2152.76 131.051 Z" fill="#000000" fill-rule="nonzero" fill-opacity="1" /><path clip-path="url(#clip210)" d="M2182.16 142.393 Q2181.44 141.977 2180.58 141.791 Q2179.75 141.583 2178.73 141.583 Q2175.12 141.583 2173.17 143.944 Q2171.25 146.282 2171.25 150.68 L2171.25 164.338 L2166.97 164.338 L2166.97 138.412 L2171.25 138.412 L2171.25 142.44 Q2172.6 140.078 2174.75 138.944 Q2176.9 137.787 2179.98 137.787 Q2180.42 137.787 2180.95 137.856 Q2181.48 137.903 2182.13 138.018 L2182.16 142.393 Z" fill="#000000" fill-rule="nonzero" fill-opacity="1" /><path clip-path="url(#clip210)" d="M2186.18 154.106 L2186.18 138.412 L2190.44 138.412 L2190.44 153.944 Q2190.44 157.625 2191.88 159.476 Q2193.31 161.305 2196.18 161.305 Q2199.63 161.305 2201.62 159.106 Q2203.64 156.907 2203.64 153.111 L2203.64 138.412 L2207.9 138.412 L2207.9 164.338 L2203.64 164.338 L2203.64 160.356 Q2202.09 162.717 2200.03 163.875 Q2197.99 165.009 2195.28 165.009 Q2190.81 165.009 2188.5 162.231 Q2186.18 159.453 2186.18 154.106 M2196.9 137.787 L2196.9 137.787 Z" fill="#000000" fill-rule="nonzero" fill-opacity="1" /><path clip-path="url(#clip210)" d="M2220.88 131.051 L2220.88 138.412 L2229.66 138.412 L2229.66 141.722 L2220.88 141.722 L2220.88 155.796 Q2220.88 158.967 2221.74 159.87 Q2222.62 160.773 2225.28 160.773 L2229.66 160.773 L2229.66 164.338 L2225.28 164.338 Q2220.35 164.338 2218.48 162.509 Q2216.6 160.657 2216.6 155.796 L2216.6 141.722 L2213.48 141.722 L2213.48 138.412 L2216.6 138.412 L2216.6 131.051 L2220.88 131.051 Z" fill="#000000" fill-rule="nonzero" fill-opacity="1" /><path clip-path="url(#clip210)" d="M2256.81 148.689 L2256.81 164.338 L2252.55 164.338 L2252.55 148.828 Q2252.55 145.148 2251.11 143.319 Q2249.68 141.49 2246.81 141.49 Q2243.36 141.49 2241.37 143.69 Q2239.38 145.889 2239.38 149.685 L2239.38 164.338 L2235.1 164.338 L2235.1 128.319 L2239.38 128.319 L2239.38 142.44 Q2240.91 140.102 2242.97 138.944 Q2245.05 137.787 2247.76 137.787 Q2252.23 137.787 2254.52 140.565 Q2256.81 143.319 2256.81 148.689 Z" fill="#000000" fill-rule="nonzero" fill-opacity="1" /><circle clip-path="url(#clip210)" cx="2049.4" cy="198.898" r="20.48" fill="#e26f46" fill-rule="evenodd" fill-opacity="1" stroke="#000000" stroke-opacity="1" stroke-width="4.55111"/>
<path clip-path="url(#clip210)" d="M2164.26 194.187 L2164.26 180.159 L2168.52 180.159 L2168.52 216.178 L2164.26 216.178 L2164.26 212.289 Q2162.92 214.603 2160.86 215.738 Q2158.82 216.849 2155.95 216.849 Q2151.25 216.849 2148.29 213.099 Q2145.35 209.349 2145.35 203.238 Q2145.35 197.127 2148.29 193.377 Q2151.25 189.627 2155.95 189.627 Q2158.82 189.627 2160.86 190.761 Q2162.92 191.872 2164.26 194.187 M2149.75 203.238 Q2149.75 207.937 2151.67 210.622 Q2153.61 213.284 2156.99 213.284 Q2160.37 213.284 2162.32 210.622 Q2164.26 207.937 2164.26 203.238 Q2164.26 198.539 2162.32 195.877 Q2160.37 193.192 2156.99 193.192 Q2153.61 193.192 2151.67 195.877 Q2149.75 198.539 2149.75 203.238 Z" fill="#000000" fill-rule="nonzero" fill-opacity="1" /><path clip-path="url(#clip210)" d="M2189.08 203.145 Q2183.92 203.145 2181.92 204.326 Q2179.93 205.506 2179.93 208.354 Q2179.93 210.622 2181.42 211.965 Q2182.92 213.284 2185.49 213.284 Q2189.03 213.284 2191.16 210.784 Q2193.31 208.261 2193.31 204.094 L2193.31 203.145 L2189.08 203.145 M2197.57 201.386 L2197.57 216.178 L2193.31 216.178 L2193.31 212.242 Q2191.85 214.603 2189.68 215.738 Q2187.5 216.849 2184.36 216.849 Q2180.37 216.849 2178.01 214.627 Q2175.67 212.381 2175.67 208.631 Q2175.67 204.256 2178.59 202.034 Q2181.53 199.812 2187.34 199.812 L2193.31 199.812 L2193.31 199.395 Q2193.31 196.455 2191.37 194.858 Q2189.45 193.238 2185.95 193.238 Q2183.73 193.238 2181.62 193.77 Q2179.52 194.303 2177.57 195.367 L2177.57 191.432 Q2179.91 190.53 2182.11 190.09 Q2184.31 189.627 2186.39 189.627 Q2192.02 189.627 2194.79 192.543 Q2197.57 195.46 2197.57 201.386 Z" fill="#000000" fill-rule="nonzero" fill-opacity="1" /><path clip-path="url(#clip210)" d="M2210.56 182.891 L2210.56 190.252 L2219.33 190.252 L2219.33 193.562 L2210.56 193.562 L2210.56 207.636 Q2210.56 210.807 2211.42 211.71 Q2212.29 212.613 2214.96 212.613 L2219.33 212.613 L2219.33 216.178 L2214.96 216.178 Q2210.03 216.178 2208.15 214.349 Q2206.28 212.497 2206.28 207.636 L2206.28 193.562 L2203.15 193.562 L2203.15 190.252 L2206.28 190.252 L2206.28 182.891 L2210.56 182.891 Z" fill="#000000" fill-rule="nonzero" fill-opacity="1" /><path clip-path="url(#clip210)" d="M2236.72 203.145 Q2231.55 203.145 2229.56 204.326 Q2227.57 205.506 2227.57 208.354 Q2227.57 210.622 2229.05 211.965 Q2230.56 213.284 2233.13 213.284 Q2236.67 213.284 2238.8 210.784 Q2240.95 208.261 2240.95 204.094 L2240.95 203.145 L2236.72 203.145 M2245.21 201.386 L2245.21 216.178 L2240.95 216.178 L2240.95 212.242 Q2239.49 214.603 2237.32 215.738 Q2235.14 216.849 2231.99 216.849 Q2228.01 216.849 2225.65 214.627 Q2223.31 212.381 2223.31 208.631 Q2223.31 204.256 2226.23 202.034 Q2229.17 199.812 2234.98 199.812 L2240.95 199.812 L2240.95 199.395 Q2240.95 196.455 2239.01 194.858 Q2237.09 193.238 2233.59 193.238 Q2231.37 193.238 2229.26 193.77 Q2227.16 194.303 2225.21 195.367 L2225.21 191.432 Q2227.55 190.53 2229.75 190.09 Q2231.95 189.627 2234.03 189.627 Q2239.66 189.627 2242.43 192.543 Q2245.21 195.46 2245.21 201.386 Z" fill="#000000" fill-rule="nonzero" fill-opacity="1" /></svg>
