<?xml version="1.0" encoding="utf-8"?>
<svg xmlns="http://www.w3.org/2000/svg" xmlns:xlink="http://www.w3.org/1999/xlink" width="600" height="400" viewBox="0 0 2400 1600">
<defs>
  <clipPath id="clip100">
    <rect x="0" y="0" width="2400" height="1600"/>
  </clipPath>
</defs>
<path clip-path="url(#clip100)" d="M0 1600 L2400 1600 L2400 0 L0 0  Z" fill="#ffffff" fill-rule="evenodd" fill-opacity="1"/>
<defs>
  <clipPath id="clip101">
    <rect x="480" y="0" width="1681" height="1600"/>
  </clipPath>
</defs>
<path clip-path="url(#clip100)" d="M193.936 1486.45 L2352.76 1486.45 L2352.76 47.2441 L193.936 47.2441  Z" fill="#ffffff" fill-rule="evenodd" fill-opacity="1"/>
<defs>
  <clipPath id="clip102">
    <rect x="193" y="47" width="2160" height="1440"/>
  </clipPath>
</defs>
<polyline clip-path="url(#clip102)" style="stroke:#000000; stroke-linecap:round; stroke-linejoin:round; stroke-width:2; stroke-opacity:0.1; fill:none" points="255.035,1486.45 255.035,47.2441 "/>
<polyline clip-path="url(#clip102)" style="stroke:#000000; stroke-linecap:round; stroke-linejoin:round; stroke-width:2; stroke-opacity:0.1; fill:none" points="579.338,1486.45 579.338,47.2441 "/>
<polyline clip-path="url(#clip102)" style="stroke:#000000; stroke-linecap:round; stroke-linejoin:round; stroke-width:2; stroke-opacity:0.1; fill:none" points="903.641,1486.45 903.641,47.2441 "/>
<polyline clip-path="url(#clip102)" style="stroke:#000000; stroke-linecap:round; stroke-linejoin:round; stroke-width:2; stroke-opacity:0.1; fill:none" points="1227.94,1486.45 1227.94,47.2441 "/>
<polyline clip-path="url(#clip102)" style="stroke:#000000; stroke-linecap:round; stroke-linejoin:round; stroke-width:2; stroke-opacity:0.1; fill:none" points="1552.25,1486.45 1552.25,47.2441 "/>
<polyline clip-path="url(#clip102)" style="stroke:#000000; stroke-linecap:round; stroke-linejoin:round; stroke-width:2; stroke-opacity:0.1; fill:none" points="1876.55,1486.45 1876.55,47.2441 "/>
<polyline clip-path="url(#clip102)" style="stroke:#000000; stroke-linecap:round; stroke-linejoin:round; stroke-width:2; stroke-opacity:0.1; fill:none" points="2200.85,1486.45 2200.85,47.2441 "/>
<polyline clip-path="url(#clip102)" style="stroke:#000000; stroke-linecap:round; stroke-linejoin:round; stroke-width:2; stroke-opacity:0.1; fill:none" points="193.936,1463.35 2352.76,1463.35 "/>
<polyline clip-path="url(#clip102)" style="stroke:#000000; stroke-linecap:round; stroke-linejoin:round; stroke-width:2; stroke-opacity:0.1; fill:none" points="193.936,1223.14 2352.76,1223.14 "/>
<polyline clip-path="url(#clip102)" style="stroke:#000000; stroke-linecap:round; stroke-linejoin:round; stroke-width:2; stroke-opacity:0.1; fill:none" points="193.936,982.926 2352.76,982.926 "/>
<polyline clip-path="url(#clip102)" style="stroke:#000000; stroke-linecap:round; stroke-linejoin:round; stroke-width:2; stroke-opacity:0.1; fill:none" points="193.936,742.713 2352.76,742.713 "/>
<polyline clip-path="url(#clip102)" style="stroke:#000000; stroke-linecap:round; stroke-linejoin:round; stroke-width:2; stroke-opacity:0.1; fill:none" points="193.936,502.501 2352.76,502.501 "/>
<polyline clip-path="url(#clip102)" style="stroke:#000000; stroke-linecap:round; stroke-linejoin:round; stroke-width:2; stroke-opacity:0.1; fill:none" points="193.936,262.289 2352.76,262.289 "/>
<polyline clip-path="url(#clip100)" style="stroke:#000000; stroke-linecap:round; stroke-linejoin:round; stroke-width:4; stroke-opacity:1; fill:none" points="193.936,1486.45 2352.76,1486.45 "/>
<polyline clip-path="url(#clip100)" style="stroke:#000000; stroke-linecap:round; stroke-linejoin:round; stroke-width:4; stroke-opacity:1; fill:none" points="255.035,1486.45 255.035,1467.55 "/>
<polyline clip-path="url(#clip100)" style="stroke:#000000; stroke-linecap:round; stroke-linejoin:round; stroke-width:4; stroke-opacity:1; fill:none" points="579.338,1486.45 579.338,1467.55 "/>
<polyline clip-path="url(#clip100)" style="stroke:#000000; stroke-linecap:round; stroke-linejoin:round; stroke-width:4; stroke-opacity:1; fill:none" points="903.641,1486.45 903.641,1467.55 "/>
<polyline clip-path="url(#clip100)" style="stroke:#000000; stroke-linecap:round; stroke-linejoin:round; stroke-width:4; stroke-opacity:1; fill:none" points="1227.94,1486.45 1227.94,1467.55 "/>
<polyline clip-path="url(#clip100)" style="stroke:#000000; stroke-linecap:round; stroke-linejoin:round; stroke-width:4; stroke-opacity:1; fill:none" points="1552.25,1486.45 1552.25,1467.55 "/>
<polyline clip-path="url(#clip100)" style="stroke:#000000; stroke-linecap:round; stroke-linejoin:round; stroke-width:4; stroke-opacity:1; fill:none" points="1876.55,1486.45 1876.55,1467.55 "/>
<polyline clip-path="url(#clip100)" style="stroke:#000000; stroke-linecap:round; stroke-linejoin:round; stroke-width:4; stroke-opacity:1; fill:none" points="2200.85,1486.45 2200.85,1467.55 "/>
<path clip-path="url(#clip100)" d="M255.035 1517.37 Q251.424 1517.37 249.595 1520.93 Q247.789 1524.47 247.789 1531.6 Q247.789 1538.71 249.595 1542.27 Q251.424 1545.82 255.035 1545.82 Q258.669 1545.82 260.474 1542.27 Q262.303 1538.71 262.303 1531.6 Q262.303 1524.47 260.474 1520.93 Q258.669 1517.37 255.035 1517.37 M255.035 1513.66 Q260.845 1513.66 263.9 1518.27 Q266.979 1522.85 266.979 1531.6 Q266.979 1540.33 263.9 1544.94 Q260.845 1549.52 255.035 1549.52 Q249.225 1549.52 246.146 1544.94 Q243.09 1540.33 243.09 1531.6 Q243.09 1522.85 246.146 1518.27 Q249.225 1513.66 255.035 1513.66 Z" fill="#000000" fill-rule="nonzero" fill-opacity="1" /><path clip-path="url(#clip100)" d="M569.72 1544.91 L577.358 1544.91 L577.358 1518.55 L569.048 1520.21 L569.048 1515.95 L577.312 1514.29 L581.988 1514.29 L581.988 1544.91 L589.627 1544.91 L589.627 1548.85 L569.72 1548.85 L569.72 1544.91 Z" fill="#000000" fill-rule="nonzero" fill-opacity="1" /><path clip-path="url(#clip100)" d="M898.293 1544.91 L914.613 1544.91 L914.613 1548.85 L892.668 1548.85 L892.668 1544.91 Q895.33 1542.16 899.914 1537.53 Q904.52 1532.88 905.701 1531.53 Q907.946 1529.01 908.826 1527.27 Q909.729 1525.51 909.729 1523.82 Q909.729 1521.07 907.784 1519.33 Q905.863 1517.6 902.761 1517.6 Q900.562 1517.6 898.108 1518.36 Q895.678 1519.13 892.9 1520.68 L892.9 1515.95 Q895.724 1514.82 898.178 1514.24 Q900.631 1513.66 902.668 1513.66 Q908.039 1513.66 911.233 1516.35 Q914.428 1519.03 914.428 1523.52 Q914.428 1525.65 913.617 1527.57 Q912.83 1529.47 910.724 1532.07 Q910.145 1532.74 907.043 1535.95 Q903.942 1539.15 898.293 1544.91 Z" fill="#000000" fill-rule="nonzero" fill-opacity="1" /><path clip-path="url(#clip100)" d="M1232.19 1530.21 Q1235.55 1530.93 1237.42 1533.2 Q1239.32 1535.47 1239.32 1538.8 Q1239.32 1543.92 1235.8 1546.72 Q1232.28 1549.52 1225.8 1549.52 Q1223.63 1549.52 1221.31 1549.08 Q1219.02 1548.66 1216.57 1547.81 L1216.57 1543.29 Q1218.51 1544.43 1220.83 1545.01 Q1223.14 1545.58 1225.66 1545.58 Q1230.06 1545.58 1232.35 1543.85 Q1234.67 1542.11 1234.67 1538.8 Q1234.67 1535.75 1232.52 1534.03 Q1230.39 1532.3 1226.57 1532.3 L1222.54 1532.3 L1222.54 1528.45 L1226.75 1528.45 Q1230.2 1528.45 1232.03 1527.09 Q1233.86 1525.7 1233.86 1523.11 Q1233.86 1520.45 1231.96 1519.03 Q1230.08 1517.6 1226.57 1517.6 Q1224.64 1517.6 1222.45 1518.01 Q1220.25 1518.43 1217.61 1519.31 L1217.61 1515.14 Q1220.27 1514.4 1222.58 1514.03 Q1224.92 1513.66 1226.98 1513.66 Q1232.31 1513.66 1235.41 1516.09 Q1238.51 1518.5 1238.51 1522.62 Q1238.51 1525.49 1236.87 1527.48 Q1235.22 1529.45 1232.19 1530.21 Z" fill="#000000" fill-rule="nonzero" fill-opacity="1" /><path clip-path="url(#clip100)" d="M1555.26 1518.36 L1543.45 1536.81 L1555.26 1536.81 L1555.26 1518.36 M1554.03 1514.29 L1559.91 1514.29 L1559.91 1536.81 L1564.84 1536.81 L1564.84 1540.7 L1559.91 1540.7 L1559.91 1548.85 L1555.26 1548.85 L1555.26 1540.7 L1539.65 1540.7 L1539.65 1536.19 L1554.03 1514.29 Z" fill="#000000" fill-rule="nonzero" fill-opacity="1" /><path clip-path="url(#clip100)" d="M1866.83 1514.29 L1885.18 1514.29 L1885.18 1518.22 L1871.11 1518.22 L1871.11 1526.7 Q1872.13 1526.35 1873.15 1526.19 Q1874.17 1526 1875.18 1526 Q1880.97 1526 1884.35 1529.17 Q1887.73 1532.34 1887.73 1537.76 Q1887.73 1543.34 1884.26 1546.44 Q1880.79 1549.52 1874.47 1549.52 Q1872.29 1549.52 1870.02 1549.15 Q1867.78 1548.78 1865.37 1548.04 L1865.37 1543.34 Q1867.45 1544.47 1869.67 1545.03 Q1871.9 1545.58 1874.37 1545.58 Q1878.38 1545.58 1880.72 1543.48 Q1883.05 1541.37 1883.05 1537.76 Q1883.05 1534.15 1880.72 1532.04 Q1878.38 1529.94 1874.37 1529.94 Q1872.5 1529.94 1870.62 1530.35 Q1868.77 1530.77 1866.83 1531.65 L1866.83 1514.29 Z" fill="#000000" fill-rule="nonzero" fill-opacity="1" /><path clip-path="url(#clip100)" d="M2201.26 1529.7 Q2198.11 1529.7 2196.26 1531.86 Q2194.43 1534.01 2194.43 1537.76 Q2194.43 1541.49 2196.26 1543.66 Q2198.11 1545.82 2201.26 1545.82 Q2204.41 1545.82 2206.23 1543.66 Q2208.09 1541.49 2208.09 1537.76 Q2208.09 1534.01 2206.23 1531.86 Q2204.41 1529.7 2201.26 1529.7 M2210.54 1515.05 L2210.54 1519.31 Q2208.78 1518.48 2206.98 1518.04 Q2205.19 1517.6 2203.43 1517.6 Q2198.8 1517.6 2196.35 1520.72 Q2193.92 1523.85 2193.57 1530.17 Q2194.94 1528.15 2197 1527.09 Q2199.06 1526 2201.54 1526 Q2206.74 1526 2209.75 1529.17 Q2212.79 1532.32 2212.79 1537.76 Q2212.79 1543.08 2209.64 1546.3 Q2206.49 1549.52 2201.26 1549.52 Q2195.26 1549.52 2192.09 1544.94 Q2188.92 1540.33 2188.92 1531.6 Q2188.92 1523.41 2192.81 1518.55 Q2196.7 1513.66 2203.25 1513.66 Q2205.01 1513.66 2206.79 1514.01 Q2208.6 1514.36 2210.54 1515.05 Z" fill="#000000" fill-rule="nonzero" fill-opacity="1" /><polyline clip-path="url(#clip100)" style="stroke:#000000; stroke-linecap:round; stroke-linejoin:round; stroke-width:4; stroke-opacity:1; fill:none" points="193.936,1486.45 193.936,47.2441 "/>
<polyline clip-path="url(#clip100)" style="stroke:#000000; stroke-linecap:round; stroke-linejoin:round; stroke-width:4; stroke-opacity:1; fill:none" points="193.936,1463.35 212.834,1463.35 "/>
<polyline clip-path="url(#clip100)" style="stroke:#000000; stroke-linecap:round; stroke-linejoin:round; stroke-width:4; stroke-opacity:1; fill:none" points="193.936,1223.14 212.834,1223.14 "/>
<polyline clip-path="url(#clip100)" style="stroke:#000000; stroke-linecap:round; stroke-linejoin:round; stroke-width:4; stroke-opacity:1; fill:none" points="193.936,982.926 212.834,982.926 "/>
<polyline clip-path="url(#clip100)" style="stroke:#000000; stroke-linecap:round; stroke-linejoin:round; stroke-width:4; stroke-opacity:1; fill:none" points="193.936,742.713 212.834,742.713 "/>
<polyline clip-path="url(#clip100)" style="stroke:#000000; stroke-linecap:round; stroke-linejoin:round; stroke-width:4; stroke-opacity:1; fill:none" points="193.936,502.501 212.834,502.501 "/>
<polyline clip-path="url(#clip100)" style="stroke:#000000; stroke-linecap:round; stroke-linejoin:round; stroke-width:4; stroke-opacity:1; fill:none" points="193.936,262.289 212.834,262.289 "/>
<path clip-path="url(#clip100)" d="M51.9875 1463.8 L81.6633 1463.8 L81.6633 1467.74 L51.9875 1467.74 L51.9875 1463.8 Z" fill="#000000" fill-rule="nonzero" fill-opacity="1" /><path clip-path="url(#clip100)" d="M92.566 1476.7 L100.205 1476.7 L100.205 1450.33 L91.8947 1452 L91.8947 1447.74 L100.159 1446.07 L104.834 1446.07 L104.834 1476.7 L112.473 1476.7 L112.473 1480.63 L92.566 1480.63 L92.566 1476.7 Z" fill="#000000" fill-rule="nonzero" fill-opacity="1" /><path clip-path="url(#clip100)" d="M121.918 1474.75 L126.802 1474.75 L126.802 1480.63 L121.918 1480.63 L121.918 1474.75 Z" fill="#000000" fill-rule="nonzero" fill-opacity="1" /><path clip-path="url(#clip100)" d="M137.033 1446.07 L155.39 1446.07 L155.39 1450.01 L141.316 1450.01 L141.316 1458.48 Q142.334 1458.13 143.353 1457.97 Q144.371 1457.78 145.39 1457.78 Q151.177 1457.78 154.556 1460.95 Q157.936 1464.13 157.936 1469.54 Q157.936 1475.12 154.464 1478.22 Q150.992 1481.3 144.672 1481.3 Q142.496 1481.3 140.228 1480.93 Q137.982 1480.56 135.575 1479.82 L135.575 1475.12 Q137.658 1476.26 139.881 1476.81 Q142.103 1477.37 144.58 1477.37 Q148.584 1477.37 150.922 1475.26 Q153.26 1473.15 153.26 1469.54 Q153.26 1465.93 150.922 1463.82 Q148.584 1461.72 144.58 1461.72 Q142.705 1461.72 140.83 1462.14 Q138.978 1462.55 137.033 1463.43 L137.033 1446.07 Z" fill="#000000" fill-rule="nonzero" fill-opacity="1" /><path clip-path="url(#clip100)" d="M50.9921 1223.59 L80.6679 1223.59 L80.6679 1227.52 L50.9921 1227.52 L50.9921 1223.59 Z" fill="#000000" fill-rule="nonzero" fill-opacity="1" /><path clip-path="url(#clip100)" d="M91.5706 1236.48 L99.2095 1236.48 L99.2095 1210.12 L90.8993 1211.78 L90.8993 1207.52 L99.1632 1205.86 L103.839 1205.86 L103.839 1236.48 L111.478 1236.48 L111.478 1240.42 L91.5706 1240.42 L91.5706 1236.48 Z" fill="#000000" fill-rule="nonzero" fill-opacity="1" /><path clip-path="url(#clip100)" d="M120.922 1234.54 L125.807 1234.54 L125.807 1240.42 L120.922 1240.42 L120.922 1234.54 Z" fill="#000000" fill-rule="nonzero" fill-opacity="1" /><path clip-path="url(#clip100)" d="M145.992 1208.94 Q142.381 1208.94 140.552 1212.5 Q138.746 1216.04 138.746 1223.17 Q138.746 1230.28 140.552 1233.84 Q142.381 1237.39 145.992 1237.39 Q149.626 1237.39 151.431 1233.84 Q153.26 1230.28 153.26 1223.17 Q153.26 1216.04 151.431 1212.5 Q149.626 1208.94 145.992 1208.94 M145.992 1205.23 Q151.802 1205.23 154.857 1209.84 Q157.936 1214.42 157.936 1223.17 Q157.936 1231.9 154.857 1236.51 Q151.802 1241.09 145.992 1241.09 Q140.181 1241.09 137.103 1236.51 Q134.047 1231.9 134.047 1223.17 Q134.047 1214.42 137.103 1209.84 Q140.181 1205.23 145.992 1205.23 Z" fill="#000000" fill-rule="nonzero" fill-opacity="1" /><path clip-path="url(#clip100)" d="M51.9875 983.377 L81.6633 983.377 L81.6633 987.312 L51.9875 987.312 L51.9875 983.377 Z" fill="#000000" fill-rule="nonzero" fill-opacity="1" /><path clip-path="url(#clip100)" d="M101.756 968.724 Q98.1447 968.724 96.316 972.289 Q94.5104 975.831 94.5104 982.96 Q94.5104 990.067 96.316 993.632 Q98.1447 997.173 101.756 997.173 Q105.39 997.173 107.196 993.632 Q109.024 990.067 109.024 982.96 Q109.024 975.831 107.196 972.289 Q105.39 968.724 101.756 968.724 M101.756 965.021 Q107.566 965.021 110.621 969.627 Q113.7 974.211 113.7 982.96 Q113.7 991.687 110.621 996.294 Q107.566 1000.88 101.756 1000.88 Q95.9456 1000.88 92.8669 996.294 Q89.8114 991.687 89.8114 982.96 Q89.8114 974.211 92.8669 969.627 Q95.9456 965.021 101.756 965.021 Z" fill="#000000" fill-rule="nonzero" fill-opacity="1" /><path clip-path="url(#clip100)" d="M121.918 994.326 L126.802 994.326 L126.802 1000.21 L121.918 1000.21 L121.918 994.326 Z" fill="#000000" fill-rule="nonzero" fill-opacity="1" /><path clip-path="url(#clip100)" d="M137.033 965.646 L155.39 965.646 L155.39 969.581 L141.316 969.581 L141.316 978.053 Q142.334 977.706 143.353 977.544 Q144.371 977.359 145.39 977.359 Q151.177 977.359 154.556 980.53 Q157.936 983.701 157.936 989.118 Q157.936 994.697 154.464 997.798 Q150.992 1000.88 144.672 1000.88 Q142.496 1000.88 140.228 1000.51 Q137.982 1000.14 135.575 999.396 L135.575 994.697 Q137.658 995.831 139.881 996.386 Q142.103 996.942 144.58 996.942 Q148.584 996.942 150.922 994.835 Q153.26 992.729 153.26 989.118 Q153.26 985.507 150.922 983.4 Q148.584 981.294 144.58 981.294 Q142.705 981.294 140.83 981.711 Q138.978 982.127 137.033 983.007 L137.033 965.646 Z" fill="#000000" fill-rule="nonzero" fill-opacity="1" /><path clip-path="url(#clip100)" d="M100.76 728.512 Q97.1493 728.512 95.3206 732.077 Q93.515 735.619 93.515 742.748 Q93.515 749.855 95.3206 753.419 Q97.1493 756.961 100.76 756.961 Q104.395 756.961 106.2 753.419 Q108.029 749.855 108.029 742.748 Q108.029 735.619 106.2 732.077 Q104.395 728.512 100.76 728.512 M100.76 724.808 Q106.571 724.808 109.626 729.415 Q112.705 733.998 112.705 742.748 Q112.705 751.475 109.626 756.081 Q106.571 760.665 100.76 760.665 Q94.9502 760.665 91.8715 756.081 Q88.816 751.475 88.816 742.748 Q88.816 733.998 91.8715 729.415 Q94.9502 724.808 100.76 724.808 Z" fill="#000000" fill-rule="nonzero" fill-opacity="1" /><path clip-path="url(#clip100)" d="M120.922 754.114 L125.807 754.114 L125.807 759.993 L120.922 759.993 L120.922 754.114 Z" fill="#000000" fill-rule="nonzero" fill-opacity="1" /><path clip-path="url(#clip100)" d="M145.992 728.512 Q142.381 728.512 140.552 732.077 Q138.746 735.619 138.746 742.748 Q138.746 749.855 140.552 753.419 Q142.381 756.961 145.992 756.961 Q149.626 756.961 151.431 753.419 Q153.26 749.855 153.26 742.748 Q153.26 735.619 151.431 732.077 Q149.626 728.512 145.992 728.512 M145.992 724.808 Q151.802 724.808 154.857 729.415 Q157.936 733.998 157.936 742.748 Q157.936 751.475 154.857 756.081 Q151.802 760.665 145.992 760.665 Q140.181 760.665 137.103 756.081 Q134.047 751.475 134.047 742.748 Q134.047 733.998 137.103 729.415 Q140.181 724.808 145.992 724.808 Z" fill="#000000" fill-rule="nonzero" fill-opacity="1" /><path clip-path="url(#clip100)" d="M101.756 488.3 Q98.1447 488.3 96.316 491.865 Q94.5104 495.406 94.5104 502.536 Q94.5104 509.642 96.316 513.207 Q98.1447 516.749 101.756 516.749 Q105.39 516.749 107.196 513.207 Q109.024 509.642 109.024 502.536 Q109.024 495.406 107.196 491.865 Q105.39 488.3 101.756 488.3 M101.756 484.596 Q107.566 484.596 110.621 489.203 Q113.7 493.786 113.7 502.536 Q113.7 511.263 110.621 515.869 Q107.566 520.452 101.756 520.452 Q95.9456 520.452 92.8669 515.869 Q89.8114 511.263 89.8114 502.536 Q89.8114 493.786 92.8669 489.203 Q95.9456 484.596 101.756 484.596 Z" fill="#000000" fill-rule="nonzero" fill-opacity="1" /><path clip-path="url(#clip100)" d="M121.918 513.902 L126.802 513.902 L126.802 519.781 L121.918 519.781 L121.918 513.902 Z" fill="#000000" fill-rule="nonzero" fill-opacity="1" /><path clip-path="url(#clip100)" d="M137.033 485.221 L155.39 485.221 L155.39 489.156 L141.316 489.156 L141.316 497.628 Q142.334 497.281 143.353 497.119 Q144.371 496.934 145.39 496.934 Q151.177 496.934 154.556 500.105 Q157.936 503.277 157.936 508.693 Q157.936 514.272 154.464 517.374 Q150.992 520.452 144.672 520.452 Q142.496 520.452 140.228 520.082 Q137.982 519.712 135.575 518.971 L135.575 514.272 Q137.658 515.406 139.881 515.962 Q142.103 516.517 144.58 516.517 Q148.584 516.517 150.922 514.411 Q153.26 512.304 153.26 508.693 Q153.26 505.082 150.922 502.976 Q148.584 500.869 144.58 500.869 Q142.705 500.869 140.83 501.286 Q138.978 501.703 137.033 502.582 L137.033 485.221 Z" fill="#000000" fill-rule="nonzero" fill-opacity="1" /><path clip-path="url(#clip100)" d="M91.5706 275.634 L99.2095 275.634 L99.2095 249.268 L90.8993 250.935 L90.8993 246.675 L99.1632 245.009 L103.839 245.009 L103.839 275.634 L111.478 275.634 L111.478 279.569 L91.5706 279.569 L91.5706 275.634 Z" fill="#000000" fill-rule="nonzero" fill-opacity="1" /><path clip-path="url(#clip100)" d="M120.922 273.689 L125.807 273.689 L125.807 279.569 L120.922 279.569 L120.922 273.689 Z" fill="#000000" fill-rule="nonzero" fill-opacity="1" /><path clip-path="url(#clip100)" d="M145.992 248.088 Q142.381 248.088 140.552 251.652 Q138.746 255.194 138.746 262.324 Q138.746 269.43 140.552 272.995 Q142.381 276.536 145.992 276.536 Q149.626 276.536 151.431 272.995 Q153.26 269.43 153.26 262.324 Q153.26 255.194 151.431 251.652 Q149.626 248.088 145.992 248.088 M145.992 244.384 Q151.802 244.384 154.857 248.99 Q157.936 253.574 157.936 262.324 Q157.936 271.05 154.857 275.657 Q151.802 280.24 145.992 280.24 Q140.181 280.24 137.103 275.657 Q134.047 271.05 134.047 262.324 Q134.047 253.574 137.103 248.99 Q140.181 244.384 145.992 244.384 Z" fill="#000000" fill-rule="nonzero" fill-opacity="1" /><polyline clip-path="url(#clip102)" style="stroke:#009af9; stroke-linecap:round; stroke-linejoin:round; stroke-width:4; stroke-opacity:1; fill:none" points="255.035,742.713 258.278,737.909 261.521,733.106 264.764,728.303 268.007,723.502 271.25,718.702 274.493,713.905 277.736,709.111 280.979,704.32 284.222,699.534 287.465,694.751 290.708,689.973 293.951,685.201 297.194,680.434 300.437,675.674 303.68,670.92 306.923,666.173 310.166,661.434 313.409,656.703 316.652,651.981 319.895,647.268 323.138,642.564 326.381,637.871 329.624,633.187 332.867,628.515 336.11,623.855 339.353,619.206 342.596,614.569 345.84,609.945 349.083,605.335 352.326,600.738 355.569,596.156 358.812,591.588 362.055,587.035 365.298,582.498 368.541,577.977 371.784,573.472 375.027,568.985 378.27,564.514 381.513,560.062 384.756,555.627 387.999,551.212 391.242,546.815 394.485,542.438 397.728,538.082 400.971,533.745 404.214,529.43 407.457,525.136 410.7,520.863 413.943,516.613 417.186,512.386 420.429,508.181 423.672,504 426.915,499.843 430.158,495.71 433.401,491.602 436.644,487.519 439.887,483.461 443.13,479.429 446.373,475.424 449.616,471.445 452.859,467.494 456.103,463.57 459.346,459.674 462.589,455.806 465.832,451.967 469.075,448.157 472.318,444.377 475.561,440.626 478.804,436.905 482.047,433.215 485.29,429.556 488.533,425.929 491.776,422.333 495.019,418.769 498.262,415.237 501.505,411.739 504.748,408.273 507.991,404.841 511.234,401.442 514.477,398.078 517.72,394.748 520.963,391.453 524.206,388.193 527.449,384.969 530.692,381.78 533.935,378.627 537.178,375.511 540.421,372.432 543.664,369.389 546.907,366.384 550.15,363.416 553.393,360.487 556.636,357.596 559.879,354.743 563.122,351.929 566.366,349.154 569.609,346.418 572.852,343.722 576.095,341.066 579.338,338.45 582.581,335.875 585.824,333.34 589.067,330.846 592.31,328.393 595.553,325.982 598.796,323.612 602.039,321.285 605.282,318.999 608.525,316.756 611.768,314.556 615.011,312.398 618.254,310.283 621.497,308.212 624.74,306.184 627.983,304.199 631.226,302.259 634.469,300.362 637.712,298.51 640.955,296.702 644.198,294.939 647.441,293.22 650.684,291.547 653.927,289.919 657.17,288.336 660.413,286.798 663.656,285.306 666.899,283.859 670.142,282.459 673.385,281.105 676.629,279.796 679.872,278.534 683.115,277.319 686.358,276.15 689.601,275.028 692.844,273.952 696.087,272.923 699.33,271.942 702.573,271.007 705.816,270.119 709.059,269.279 712.302,268.486 715.545,267.741 718.788,267.043 722.031,266.392 725.274,265.79 728.517,265.235 731.76,264.727 735.003,264.268 738.246,263.856 741.489,263.492 744.732,263.176 747.975,262.909 751.218,262.689 754.461,262.517 757.704,262.393 760.947,262.317 764.19,262.289 767.433,262.309 770.676,262.377 773.919,262.494 777.162,262.658 780.405,262.87 783.648,263.131 786.892,263.439 790.135,263.795 793.378,264.199 796.621,264.651 799.864,265.151 803.107,265.698 806.35,266.293 809.593,266.936 812.836,267.626 816.079,268.364 819.322,269.15 822.565,269.982 825.808,270.862 829.051,271.789 832.294,272.764 835.537,273.785 838.78,274.853 842.023,275.968 845.266,277.13 848.509,278.338 851.752,279.592 854.995,280.893 858.238,282.24 861.481,283.633 864.724,285.072 867.967,286.557 871.21,288.088 874.453,289.663 877.696,291.285 880.939,292.951 884.182,294.662 887.425,296.418 890.668,298.219 893.911,300.064 897.155,301.954 900.398,303.887 903.641,305.865 906.884,307.886 910.127,309.95 913.37,312.058 916.613,314.209 919.856,316.403 923.099,318.639 926.342,320.918 929.585,323.239 932.828,325.602 936.071,328.006 939.314,330.453 942.557,332.94 945.8,335.468 949.043,338.037 952.286,340.647 955.529,343.296 958.772,345.986 962.015,348.715 965.258,351.484 968.501,354.292 971.744,357.139 974.987,360.024 978.23,362.947 981.473,365.909 984.716,368.908 987.959,371.944 991.202,375.018 994.445,378.128 997.688,381.275 1000.93,384.458 1004.17,387.677 1007.42,390.931 1010.66,394.221 1013.9,397.545 1017.15,400.904 1020.39,404.297 1023.63,407.724 1026.88,411.184 1030.12,414.678 1033.36,418.204 1036.6,421.763 1039.85,425.354 1043.09,428.977 1046.33,432.631 1049.58,436.316 1052.82,440.031 1056.06,443.777 1059.31,447.553 1062.55,451.358 1065.79,455.193 1069.04,459.056 1072.28,462.947 1075.52,466.867 1078.76,470.814 1082.01,474.788 1085.25,478.79 1088.49,482.817 1091.74,486.871 1094.98,490.95 1098.22,495.054 1101.47,499.183 1104.71,503.336 1107.95,507.514 1111.19,511.714 1114.44,515.938 1117.68,520.185 1120.92,524.454 1124.17,528.745 1127.41,533.057 1130.65,537.39 1133.9,541.743 1137.14,546.117 1140.38,550.51 1143.62,554.923 1146.87,559.354 1150.11,563.804 1153.35,568.271 1156.6,572.756 1159.84,577.258 1163.08,581.777 1166.33,586.312 1169.57,590.862 1172.81,595.427 1176.06,600.007 1179.3,604.602 1182.54,609.21 1185.78,613.832 1189.03,618.466 1192.27,623.113 1195.51,627.772 1198.76,632.443 1202,637.124 1205.24,641.816 1208.49,646.518 1211.73,651.23 1214.97,655.951 1218.21,660.68 1221.46,665.418 1224.7,670.163 1227.94,674.916 1231.19,679.675 1234.43,684.441 1237.67,689.213 1240.92,693.99 1244.16,698.772 1247.4,703.558 1250.64,708.348 1253.89,713.142 1257.13,717.938 1260.37,722.737 1263.62,727.538 1266.86,732.341 1270.1,737.144 1273.35,741.948 1276.59,746.753 1279.83,751.556 1283.08,756.359 1286.32,761.161 1289.56,765.96 1292.8,770.758 1296.05,775.552 1299.29,780.344 1302.53,785.131 1305.78,789.915 1309.02,794.693 1312.26,799.466 1315.51,804.234 1318.75,808.996 1321.99,813.751 1325.23,818.498 1328.48,823.239 1331.72,827.971 1334.96,832.694 1338.21,837.409 1341.45,842.114 1344.69,846.81 1347.94,851.494 1351.18,856.168 1354.42,860.831 1357.66,865.482 1360.91,870.12 1364.15,874.746 1367.39,879.359 1370.64,883.957 1373.88,888.542 1377.12,893.112 1380.37,897.668 1383.61,902.207 1386.85,906.731 1390.1,911.238 1393.34,915.729 1396.58,920.202 1399.82,924.657 1403.07,929.095 1406.31,933.513 1409.55,937.913 1412.8,942.293 1416.04,946.653 1419.28,950.992 1422.53,955.311 1425.77,959.609 1429.01,963.885 1432.25,968.138 1435.5,972.37 1438.74,976.578 1441.98,980.763 1445.23,984.924 1448.47,989.06 1451.71,993.173 1454.96,997.26 1458.2,1001.32 1461.44,1005.36 1464.68,1009.37 1467.93,1013.35 1471.17,1017.31 1474.41,1021.23 1477.66,1025.13 1480.9,1029.01 1484.14,1032.85 1487.39,1036.67 1490.63,1040.45 1493.87,1044.21 1497.11,1047.93 1500.36,1051.63 1503.6,1055.29 1506.84,1058.92 1510.09,1062.52 1513.33,1066.09 1516.57,1069.63 1519.82,1073.13 1523.06,1076.6 1526.3,1080.04 1529.55,1083.45 1532.79,1086.82 1536.03,1090.15 1539.27,1093.45 1542.52,1096.72 1545.76,1099.95 1549,1103.14 1552.25,1106.3 1555.49,1109.42 1558.73,1112.51 1561.98,1115.56 1565.22,1118.57 1568.46,1121.54 1571.7,1124.48 1574.95,1127.37 1578.19,1130.23 1581.43,1133.05 1584.68,1135.83 1587.92,1138.58 1591.16,1141.28 1594.41,1143.94 1597.65,1146.56 1600.89,1149.14 1604.13,1151.69 1607.38,1154.19 1610.62,1156.65 1613.86,1159.06 1617.11,1161.44 1620.35,1163.77 1623.59,1166.07 1626.84,1168.32 1630.08,1170.52 1633.32,1172.69 1636.57,1174.81 1639.81,1176.89 1643.05,1178.92 1646.29,1180.91 1649.54,1182.86 1652.78,1184.77 1656.02,1186.62 1659.27,1188.44 1662.51,1190.21 1665.75,1191.94 1669,1193.62 1672.24,1195.25 1675.48,1196.84 1678.72,1198.39 1681.97,1199.89 1685.21,1201.34 1688.45,1202.75 1691.7,1204.11 1694.94,1205.43 1698.18,1206.69 1701.43,1207.92 1704.67,1209.09 1707.91,1210.22 1711.15,1211.31 1714.4,1212.34 1717.64,1213.33 1720.88,1214.27 1724.13,1215.17 1727.37,1216.02 1730.61,1216.82 1733.86,1217.57 1737.1,1218.28 1740.34,1218.93 1743.59,1219.54 1746.83,1220.11 1750.07,1220.62 1753.31,1221.09 1756.56,1221.51 1759.8,1221.88 1763.04,1222.2 1766.29,1222.48 1769.53,1222.71 1772.77,1222.89 1776.02,1223.02 1779.26,1223.1 1782.5,1223.14 1785.74,1223.12 1788.99,1223.06 1792.23,1222.95 1795.47,1222.8 1798.72,1222.59 1801.96,1222.34 1805.2,1222.04 1808.45,1221.69 1811.69,1221.3 1814.93,1220.85 1818.17,1220.36 1821.42,1219.82 1824.66,1219.23 1827.9,1218.6 1831.15,1217.91 1834.39,1217.18 1837.63,1216.41 1840.88,1215.58 1844.12,1214.71 1847.36,1213.79 1850.61,1212.82 1853.85,1211.81 1857.09,1210.75 1860.33,1209.64 1863.58,1208.49 1866.82,1207.28 1870.06,1206.04 1873.31,1204.74 1876.55,1203.4 1879.79,1202.02 1883.04,1200.59 1886.28,1199.11 1889.52,1197.59 1892.76,1196.02 1896.01,1194.4 1899.25,1192.74 1902.49,1191.04 1905.74,1189.29 1908.98,1187.5 1912.22,1185.66 1915.47,1183.78 1918.71,1181.85 1921.95,1179.88 1925.19,1177.87 1928.44,1175.81 1931.68,1173.71 1934.92,1171.56 1938.17,1169.38 1941.41,1167.15 1944.65,1164.87 1947.9,1162.56 1951.14,1160.2 1954.38,1157.81 1957.63,1155.37 1960.87,1152.89 1964.11,1150.36 1967.35,1147.8 1970.6,1145.2 1973.84,1142.56 1977.08,1139.87 1980.33,1137.15 1983.57,1134.39 1986.81,1131.58 1990.06,1128.74 1993.3,1125.87 1996.54,1122.95 1999.78,1119.99 2003.03,1117 2006.27,1113.97 2009.51,1110.9 2012.76,1107.8 2016,1104.66 2019.24,1101.48 2022.49,1098.26 2025.73,1095.02 2028.97,1091.73 2032.21,1088.41 2035.46,1085.06 2038.7,1081.67 2041.94,1078.25 2045.19,1074.8 2048.43,1071.31 2051.67,1067.79 2054.92,1064.23 2058.16,1060.65 2061.4,1057.03 2064.65,1053.38 2067.89,1049.7 2071.13,1045.99 2074.37,1042.25 2077.62,1038.48 2080.86,1034.68 2084.1,1030.85 2087.35,1026.99 2090.59,1023.1 2093.83,1019.19 2097.08,1015.24 2100.32,1011.27 2103.56,1007.28 2106.8,1003.25 2110.05,999.204 2113.29,995.129 2116.53,991.028 2119.78,986.903 2123.02,982.754 2126.26,978.58 2129.51,974.383 2132.75,970.163 2135.99,965.92 2139.23,961.654 2142.48,957.367 2145.72,953.059 2148.96,948.729 2152.21,944.378 2155.45,940.008 2158.69,935.618 2161.94,931.208 2165.18,926.78 2168.42,922.333 2171.67,917.868 2174.91,913.386 2178.15,908.887 2181.39,904.371 2184.64,899.839 2187.88,895.291 2191.12,890.728 2194.37,886.15 2197.61,881.558 2200.85,876.952 2204.1,872.332 2207.34,867.7 2210.58,863.055 2213.82,858.398 2217.07,853.729 2220.31,849.049 2223.55,844.359 2226.8,839.658 2230.04,834.948 2233.28,830.229 2236.53,825.501 2239.77,820.764 2243.01,816.02 2246.25,811.268 2249.5,806.51 2252.74,801.745 2255.98,796.974 2259.23,792.198 2262.47,787.417 2265.71,782.632 2268.96,777.842 2272.2,773.049 2275.44,768.253 2278.69,763.454 2281.93,758.654 2285.17,753.851 2288.41,749.048 2291.66,744.244 "/>
<circle clip-path="url(#clip102)" cx="527.449" cy="400.924" r="14.4" fill="#e26f46" fill-rule="evenodd" fill-opacity="1" stroke="#000000" stroke-opacity="1" stroke-width="3.2"/>
<circle clip-path="url(#clip102)" cx="1555.49" cy="1186.02" r="14.4" fill="#e26f46" fill-rule="evenodd" fill-opacity="1" stroke="#000000" stroke-opacity="1" stroke-width="3.2"/>
<circle clip-path="url(#clip102)" cx="1467.93" cy="1132.06" r="14.4" fill="#e26f46" fill-rule="evenodd" fill-opacity="1" stroke="#000000" stroke-opacity="1" stroke-width="3.2"/>
<circle clip-path="url(#clip102)" cx="1156.6" cy="513.758" r="14.4" fill="#e26f46" fill-rule="evenodd" fill-opacity="1" stroke="#000000" stroke-opacity="1" stroke-width="3.2"/>
<circle clip-path="url(#clip102)" cx="1973.84" cy="1149.66" r="14.4" fill="#e26f46" fill-rule="evenodd" fill-opacity="1" stroke="#000000" stroke-opacity="1" stroke-width="3.2"/>
<circle clip-path="url(#clip102)" cx="897.155" cy="307.024" r="14.4" fill="#e26f46" fill-rule="evenodd" fill-opacity="1" stroke="#000000" stroke-opacity="1" stroke-width="3.2"/>
<circle clip-path="url(#clip102)" cx="1133.9" cy="433.803" r="14.4" fill="#e26f46" fill-rule="evenodd" fill-opacity="1" stroke="#000000" stroke-opacity="1" stroke-width="3.2"/>
<circle clip-path="url(#clip102)" cx="1062.55" cy="474.717" r="14.4" fill="#e26f46" fill-rule="evenodd" fill-opacity="1" stroke="#000000" stroke-opacity="1" stroke-width="3.2"/>
<circle clip-path="url(#clip102)" cx="365.298" cy="567.452" r="14.4" fill="#e26f46" fill-rule="evenodd" fill-opacity="1" stroke="#000000" stroke-opacity="1" stroke-width="3.2"/>
<circle clip-path="url(#clip102)" cx="812.836" cy="256.06" r="14.4" fill="#e26f46" fill-rule="evenodd" fill-opacity="1" stroke="#000000" stroke-opacity="1" stroke-width="3.2"/>
<circle clip-path="url(#clip102)" cx="1785.74" cy="1291.91" r="14.4" fill="#e26f46" fill-rule="evenodd" fill-opacity="1" stroke="#000000" stroke-opacity="1" stroke-width="3.2"/>
<circle clip-path="url(#clip102)" cx="1776.02" cy="1337.79" r="14.4" fill="#e26f46" fill-rule="evenodd" fill-opacity="1" stroke="#000000" stroke-opacity="1" stroke-width="3.2"/>
<circle clip-path="url(#clip102)" cx="1202" cy="653.003" r="14.4" fill="#e26f46" fill-rule="evenodd" fill-opacity="1" stroke="#000000" stroke-opacity="1" stroke-width="3.2"/>
<circle clip-path="url(#clip102)" cx="1098.22" cy="440.68" r="14.4" fill="#e26f46" fill-rule="evenodd" fill-opacity="1" stroke="#000000" stroke-opacity="1" stroke-width="3.2"/>
<circle clip-path="url(#clip102)" cx="2223.55" cy="858.356" r="14.4" fill="#e26f46" fill-rule="evenodd" fill-opacity="1" stroke="#000000" stroke-opacity="1" stroke-width="3.2"/>
<circle clip-path="url(#clip102)" cx="1412.8" cy="957.206" r="14.4" fill="#e26f46" fill-rule="evenodd" fill-opacity="1" stroke="#000000" stroke-opacity="1" stroke-width="3.2"/>
<circle clip-path="url(#clip102)" cx="832.294" cy="170.548" r="14.4" fill="#e26f46" fill-rule="evenodd" fill-opacity="1" stroke="#000000" stroke-opacity="1" stroke-width="3.2"/>
<circle clip-path="url(#clip102)" cx="1870.06" cy="1300.8" r="14.4" fill="#e26f46" fill-rule="evenodd" fill-opacity="1" stroke="#000000" stroke-opacity="1" stroke-width="3.2"/>
<circle clip-path="url(#clip102)" cx="1853.85" cy="1239.53" r="14.4" fill="#e26f46" fill-rule="evenodd" fill-opacity="1" stroke="#000000" stroke-opacity="1" stroke-width="3.2"/>
<circle clip-path="url(#clip102)" cx="1159.84" cy="541.066" r="14.4" fill="#e26f46" fill-rule="evenodd" fill-opacity="1" stroke="#000000" stroke-opacity="1" stroke-width="3.2"/>
<path clip-path="url(#clip102)" d="M255.035 939.749 L258.278 935.48 L261.521 931.178 L264.764 926.844 L268.007 922.48 L271.25 918.088 L274.493 913.67 L277.736 909.228 L280.979 904.765 L284.222 900.281 L287.465 895.781 L290.708 891.267 L293.951 886.742 L297.194 882.209 L300.437 877.672 L303.68 873.133 L306.923 868.597 L310.166 864.068 L313.409 859.55 L316.652 855.047 L319.895 850.564 L323.138 846.105 L326.381 841.677 L329.624 837.283 L332.867 832.93 L336.11 828.624 L339.353 824.369 L342.596 820.173 L345.84 816.041 L349.083 811.979 L352.326 807.994 L355.569 804.091 L358.812 800.279 L362.055 796.561 L365.298 792.946 L368.541 789.436 L371.784 786.028 L375.027 782.716 L378.27 779.493 L381.513 776.352 L384.756 773.288 L387.999 770.295 L391.242 767.365 L394.485 764.493 L397.728 761.673 L400.971 758.899 L404.214 756.165 L407.457 753.466 L410.7 750.797 L413.943 748.153 L417.186 745.531 L420.429 742.925 L423.672 740.332 L426.915 737.749 L430.158 735.174 L433.401 732.603 L436.644 730.034 L439.887 727.466 L443.13 724.897 L446.373 722.327 L449.616 719.756 L452.859 717.182 L456.103 714.607 L459.346 712.031 L462.589 709.456 L465.832 706.884 L469.075 704.315 L472.318 701.753 L475.561 699.201 L478.804 696.661 L482.047 694.138 L485.29 691.635 L488.533 689.157 L491.776 686.708 L495.019 684.293 L498.262 681.917 L501.505 679.586 L504.748 677.305 L507.991 675.081 L511.234 672.919 L514.477 670.826 L517.72 668.808 L520.963 666.871 L524.206 665.021 L527.449 663.266 L530.692 661.609 L533.935 660.044 L537.178 658.565 L540.421 657.163 L543.664 655.831 L546.907 654.561 L550.15 653.346 L553.393 652.178 L556.636 651.051 L559.879 649.956 L563.122 648.888 L566.366 647.84 L569.609 646.805 L572.852 645.777 L576.095 644.751 L579.338 643.72 L582.581 642.679 L585.824 641.623 L589.067 640.547 L592.31 639.447 L595.553 638.318 L598.796 637.157 L602.039 635.958 L605.282 634.718 L608.525 633.435 L611.768 632.105 L615.011 630.724 L618.254 629.29 L621.497 627.801 L624.74 626.254 L627.983 624.648 L631.226 622.979 L634.469 621.246 L637.712 619.448 L640.955 617.584 L644.198 615.652 L647.441 613.65 L650.684 611.579 L653.927 609.438 L657.17 607.225 L660.413 604.941 L663.656 602.586 L666.899 600.158 L670.142 597.66 L673.385 595.09 L676.629 592.45 L679.872 589.739 L683.115 586.96 L686.358 584.112 L689.601 581.197 L692.844 578.216 L696.087 575.171 L699.33 572.063 L702.573 568.895 L705.816 565.669 L709.059 562.386 L712.302 559.05 L715.545 555.663 L718.788 552.227 L722.031 548.748 L725.274 545.227 L728.517 541.669 L731.76 538.078 L735.003 534.457 L738.246 530.813 L741.489 527.149 L744.732 523.471 L747.975 519.785 L751.218 516.096 L754.461 512.412 L757.704 508.739 L760.947 505.084 L764.19 501.456 L767.433 497.862 L770.676 494.311 L773.919 490.813 L777.162 487.377 L780.405 484.013 L783.648 480.732 L786.892 477.547 L790.135 474.467 L793.378 471.507 L796.621 468.679 L799.864 465.996 L803.107 463.473 L806.35 461.123 L809.593 458.96 L812.836 457.001 L816.079 455.257 L819.322 453.734 L822.565 452.438 L825.808 451.372 L829.051 450.54 L832.294 449.947 L835.537 449.594 L838.78 449.472 L842.023 449.572 L845.266 449.882 L848.509 450.393 L851.752 451.093 L854.995 451.973 L858.238 453.024 L861.481 454.236 L864.724 455.601 L867.967 457.111 L871.21 458.758 L874.453 460.535 L877.696 462.436 L880.939 464.455 L884.182 466.586 L887.425 468.825 L890.668 471.167 L893.911 473.609 L897.155 476.146 L900.398 478.773 L903.641 481.482 L906.884 484.259 L910.127 487.094 L913.37 489.976 L916.613 492.895 L919.856 495.842 L923.099 498.807 L926.342 501.781 L929.585 504.756 L932.828 507.724 L936.071 510.679 L939.314 513.612 L942.557 516.518 L945.8 519.392 L949.043 522.227 L952.286 525.018 L955.529 527.762 L958.772 530.455 L962.015 533.091 L965.258 535.669 L968.501 538.186 L971.744 540.639 L974.987 543.025 L978.23 545.344 L981.473 547.595 L984.716 549.775 L987.959 551.885 L991.202 553.925 L994.445 555.894 L997.688 557.794 L1000.93 559.626 L1004.17 561.39 L1007.42 563.089 L1010.66 564.724 L1013.9 566.299 L1017.15 567.817 L1020.39 569.28 L1023.63 570.693 L1026.88 572.061 L1030.12 573.387 L1033.36 574.678 L1036.6 575.939 L1039.85 577.176 L1043.09 578.397 L1046.33 579.608 L1049.58 580.818 L1052.82 582.035 L1056.06 583.267 L1059.31 584.525 L1062.55 585.818 L1065.79 587.155 L1069.04 588.543 L1072.28 589.986 L1075.52 591.491 L1078.76 593.064 L1082.01 594.712 L1085.25 596.444 L1088.49 598.266 L1091.74 600.189 L1094.98 602.223 L1098.22 604.378 L1101.47 606.663 L1104.71 609.083 L1107.95 611.643 L1111.19 614.348 L1114.44 617.201 L1117.68 620.211 L1120.92 623.384 L1124.17 626.728 L1127.41 630.251 L1130.65 633.964 L1133.9 637.875 L1137.14 641.995 L1140.38 646.324 L1143.62 650.864 L1146.87 655.616 L1150.11 660.58 L1153.35 665.758 L1156.6 671.151 L1159.84 676.761 L1163.08 682.58 L1166.33 688.595 L1169.57 694.795 L1172.81 701.164 L1176.06 707.692 L1179.3 714.364 L1182.54 721.171 L1185.78 728.101 L1189.03 735.143 L1192.27 742.29 L1195.51 749.531 L1198.76 756.858 L1202 764.264 L1205.24 771.741 L1208.49 779.277 L1211.73 786.861 L1214.97 794.482 L1218.21 802.127 L1221.46 809.789 L1224.7 817.456 L1227.94 825.119 L1231.19 832.772 L1234.43 840.404 L1237.67 848.01 L1240.92 855.583 L1244.16 863.115 L1247.4 870.601 L1250.64 878.036 L1253.89 885.415 L1257.13 892.732 L1260.37 899.984 L1263.62 907.167 L1266.86 914.276 L1270.1 921.31 L1273.35 928.264 L1276.59 935.136 L1279.83 941.924 L1283.08 948.625 L1286.32 955.237 L1289.56 961.759 L1292.8 968.19 L1296.05 974.528 L1299.29 980.772 L1302.53 986.921 L1305.78 992.975 L1309.02 998.934 L1312.26 1004.8 L1315.51 1010.56 L1318.75 1016.24 L1321.99 1021.81 L1325.23 1027.3 L1328.48 1032.69 L1331.72 1037.98 L1334.96 1043.19 L1338.21 1048.31 L1341.45 1053.34 L1344.69 1058.29 L1347.94 1063.15 L1351.18 1067.93 L1354.42 1072.64 L1357.66 1077.27 L1360.91 1081.83 L1364.15 1086.32 L1367.39 1090.75 L1370.64 1095.12 L1373.88 1099.43 L1377.12 1103.7 L1380.37 1107.92 L1383.61 1112.1 L1386.85 1116.25 L1390.1 1120.37 L1393.34 1124.47 L1396.58 1128.56 L1399.82 1132.64 L1403.07 1136.73 L1406.31 1140.82 L1409.55 1144.92 L1412.8 1149.05 L1416.04 1153.21 L1419.28 1157.4 L1422.53 1161.61 L1425.77 1165.85 L1429.01 1170.11 L1432.25 1174.4 L1435.5 1178.7 L1438.74 1183.02 L1441.98 1187.36 L1445.23 1191.71 L1448.47 1196.08 L1451.71 1200.46 L1454.96 1204.86 L1458.2 1209.27 L1461.44 1213.69 L1464.68 1218.13 L1467.93 1222.58 L1471.17 1227.04 L1474.41 1231.52 L1477.66 1235.99 L1480.9 1240.47 L1484.14 1244.95 L1487.39 1249.42 L1490.63 1253.87 L1493.87 1258.32 L1497.11 1262.74 L1500.36 1267.15 L1503.6 1271.53 L1506.84 1275.89 L1510.09 1280.22 L1513.33 1284.53 L1516.57 1288.81 L1519.82 1293.07 L1523.06 1297.29 L1526.3 1301.49 L1529.55 1305.66 L1532.79 1309.81 L1536.03 1313.94 L1539.27 1318.04 L1542.52 1322.13 L1545.76 1326.19 L1549 1330.24 L1552.25 1334.28 L1555.49 1338.31 L1558.73 1342.33 L1561.98 1346.33 L1565.22 1350.31 L1568.46 1354.26 L1571.7 1358.19 L1574.95 1362.07 L1578.19 1365.92 L1581.43 1369.71 L1584.68 1373.46 L1587.92 1377.14 L1591.16 1380.76 L1594.41 1384.32 L1597.65 1387.8 L1600.89 1391.21 L1604.13 1394.54 L1607.38 1397.79 L1610.62 1400.94 L1613.86 1404.01 L1617.11 1406.99 L1620.35 1409.87 L1623.59 1412.65 L1626.84 1415.33 L1630.08 1417.91 L1633.32 1420.38 L1636.57 1422.74 L1639.81 1424.99 L1643.05 1427.14 L1646.29 1429.17 L1649.54 1431.08 L1652.78 1432.88 L1656.02 1434.57 L1659.27 1436.14 L1662.51 1437.58 L1665.75 1438.92 L1669 1440.13 L1672.24 1441.22 L1675.48 1442.19 L1678.72 1443.05 L1681.97 1443.78 L1685.21 1444.4 L1688.45 1444.89 L1691.7 1445.27 L1694.94 1445.54 L1698.18 1445.68 L1701.43 1445.72 L1704.67 1445.63 L1707.91 1445.44 L1711.15 1445.14 L1714.4 1444.73 L1717.64 1444.22 L1720.88 1443.61 L1724.13 1442.89 L1727.37 1442.09 L1730.61 1441.19 L1733.86 1440.2 L1737.1 1439.13 L1740.34 1437.98 L1743.59 1436.76 L1746.83 1435.48 L1750.07 1434.13 L1753.31 1432.73 L1756.56 1431.28 L1759.8 1429.79 L1763.04 1428.27 L1766.29 1426.73 L1769.53 1425.16 L1772.77 1423.59 L1776.02 1422.02 L1779.26 1420.46 L1782.5 1418.91 L1785.74 1417.38 L1788.99 1415.87 L1792.23 1414.37 L1795.47 1412.89 L1798.72 1411.42 L1801.96 1409.96 L1805.2 1408.5 L1808.45 1407.04 L1811.69 1405.59 L1814.93 1404.14 L1818.17 1402.68 L1821.42 1401.22 L1824.66 1399.76 L1827.9 1398.29 L1831.15 1396.83 L1834.39 1395.37 L1837.63 1393.91 L1840.88 1392.45 L1844.12 1391.01 L1847.36 1389.58 L1850.61 1388.17 L1853.85 1386.78 L1857.09 1385.41 L1860.33 1384.07 L1863.58 1382.75 L1866.82 1381.45 L1870.06 1380.16 L1873.31 1378.89 L1876.55 1377.62 L1879.79 1376.35 L1883.04 1375.07 L1886.28 1373.79 L1889.52 1372.48 L1892.76 1371.16 L1896.01 1369.8 L1899.25 1368.42 L1902.49 1367 L1905.74 1365.55 L1908.98 1364.06 L1912.22 1362.54 L1915.47 1360.97 L1918.71 1359.36 L1921.95 1357.71 L1925.19 1356.02 L1928.44 1354.3 L1931.68 1352.54 L1934.92 1350.75 L1938.17 1348.92 L1941.41 1347.07 L1944.65 1345.19 L1947.9 1343.29 L1951.14 1341.38 L1954.38 1339.45 L1957.63 1337.52 L1960.87 1335.58 L1964.11 1333.65 L1967.35 1331.72 L1970.6 1329.81 L1973.84 1327.91 L1977.08 1326.03 L1980.33 1324.18 L1983.57 1322.33 L1986.81 1320.5 L1990.06 1318.67 L1993.3 1316.84 L1996.54 1315.01 L1999.78 1313.17 L2003.03 1311.32 L2006.27 1309.45 L2009.51 1307.57 L2012.76 1305.66 L2016 1303.73 L2019.24 1301.78 L2022.49 1299.79 L2025.73 1297.76 L2028.97 1295.71 L2032.21 1293.61 L2035.46 1291.47 L2038.7 1289.3 L2041.94 1287.08 L2045.19 1284.81 L2048.43 1282.5 L2051.67 1280.14 L2054.92 1277.73 L2058.16 1275.27 L2061.4 1272.77 L2064.65 1270.21 L2067.89 1267.61 L2071.13 1264.95 L2074.37 1262.24 L2077.62 1259.49 L2080.86 1256.68 L2084.1 1253.83 L2087.35 1250.93 L2090.59 1247.98 L2093.83 1244.98 L2097.08 1241.94 L2100.32 1238.86 L2103.56 1235.73 L2106.8 1232.57 L2110.05 1229.37 L2113.29 1226.13 L2116.53 1222.86 L2119.78 1219.56 L2123.02 1216.23 L2126.26 1212.88 L2129.51 1209.5 L2132.75 1206.11 L2135.99 1202.7 L2139.23 1199.29 L2142.48 1195.86 L2145.72 1192.44 L2148.96 1189.02 L2152.21 1185.6 L2155.45 1182.2 L2158.69 1178.82 L2161.94 1175.46 L2165.18 1172.13 L2168.42 1168.84 L2171.67 1165.59 L2174.91 1162.4 L2178.15 1159.26 L2181.39 1156.18 L2184.64 1153.18 L2187.88 1150.26 L2191.12 1147.42 L2194.37 1144.68 L2197.61 1142.05 L2200.85 1139.53 L2204.1 1137.13 L2207.34 1134.87 L2210.58 1132.74 L2213.82 1130.76 L2217.07 1128.93 L2220.31 1127.28 L2223.55 1125.79 L2226.8 1124.48 L2230.04 1123.35 L2233.28 1122.38 L2236.53 1121.58 L2239.77 1120.93 L2243.01 1120.43 L2246.25 1120.07 L2249.5 1119.84 L2252.74 1119.74 L2255.98 1119.76 L2259.23 1119.89 L2262.47 1120.13 L2265.71 1120.47 L2268.96 1120.9 L2272.2 1121.42 L2275.44 1122.02 L2278.69 1122.7 L2281.93 1123.44 L2285.17 1124.26 L2288.41 1125.13 L2291.66 1126.06 L2291.66 555.447 L2288.41 559.675 L2285.17 563.903 L2281.93 568.126 L2278.69 572.342 L2275.44 576.546 L2272.2 580.732 L2268.96 584.898 L2265.71 589.036 L2262.47 593.144 L2259.23 597.215 L2255.98 601.244 L2252.74 605.225 L2249.5 609.153 L2246.25 613.022 L2243.01 616.827 L2239.77 620.56 L2236.53 624.218 L2233.28 627.793 L2230.04 631.281 L2226.8 634.675 L2223.55 637.971 L2220.31 641.165 L2217.07 644.263 L2213.82 647.27 L2210.58 650.195 L2207.34 653.046 L2204.1 655.828 L2200.85 658.551 L2197.61 661.221 L2194.37 663.847 L2191.12 666.435 L2187.88 668.994 L2184.64 671.529 L2181.39 674.05 L2178.15 676.561 L2174.91 679.07 L2171.67 681.584 L2168.42 684.108 L2165.18 686.649 L2161.94 689.211 L2158.69 691.801 L2155.45 694.424 L2152.21 697.084 L2148.96 699.785 L2145.72 702.533 L2142.48 705.331 L2139.23 708.182 L2135.99 711.091 L2132.75 714.061 L2129.51 717.094 L2126.26 720.193 L2123.02 723.36 L2119.78 726.599 L2116.53 729.91 L2113.29 733.296 L2110.05 736.758 L2106.8 740.297 L2103.56 743.915 L2100.32 747.613 L2097.08 751.39 L2093.83 755.248 L2090.59 759.187 L2087.35 763.207 L2084.1 767.307 L2080.86 771.488 L2077.62 775.749 L2074.37 780.09 L2071.13 784.508 L2067.89 789.004 L2064.65 793.576 L2061.4 798.222 L2058.16 802.941 L2054.92 807.73 L2051.67 812.589 L2048.43 817.513 L2045.19 822.501 L2041.94 827.55 L2038.7 832.657 L2035.46 837.818 L2032.21 843.031 L2028.97 848.291 L2025.73 853.594 L2022.49 858.937 L2019.24 864.314 L2016 869.722 L2012.76 875.154 L2009.51 880.606 L2006.27 886.072 L2003.03 891.547 L1999.78 897.024 L1996.54 902.498 L1993.3 907.961 L1990.06 913.407 L1986.81 918.83 L1983.57 924.221 L1980.33 929.574 L1977.08 934.882 L1973.84 940.137 L1970.6 945.333 L1967.35 950.472 L1964.11 955.557 L1960.87 960.591 L1957.63 965.579 L1954.38 970.521 L1951.14 975.422 L1947.9 980.283 L1944.65 985.107 L1941.41 989.895 L1938.17 994.648 L1934.92 999.367 L1931.68 1004.05 L1928.44 1008.7 L1925.19 1013.32 L1921.95 1017.9 L1918.71 1022.44 L1915.47 1026.95 L1912.22 1031.41 L1908.98 1035.82 L1905.74 1040.17 L1902.49 1044.47 L1899.25 1048.71 L1896.01 1052.88 L1892.76 1056.97 L1889.52 1060.97 L1886.28 1064.87 L1883.04 1068.68 L1879.79 1072.36 L1876.55 1075.92 L1873.31 1079.35 L1870.06 1082.62 L1866.82 1085.74 L1863.58 1088.69 L1860.33 1091.48 L1857.09 1094.1 L1853.85 1096.56 L1850.61 1098.84 L1847.36 1100.96 L1844.12 1102.92 L1840.88 1104.73 L1837.63 1106.38 L1834.39 1107.88 L1831.15 1109.23 L1827.9 1110.43 L1824.66 1111.49 L1821.42 1112.41 L1818.17 1113.17 L1814.93 1113.79 L1811.69 1114.26 L1808.45 1114.58 L1805.2 1114.74 L1801.96 1114.74 L1798.72 1114.57 L1795.47 1114.24 L1792.23 1113.72 L1788.99 1113.02 L1785.74 1112.14 L1782.5 1111.06 L1779.26 1109.78 L1776.02 1108.32 L1772.77 1106.67 L1769.53 1104.85 L1766.29 1102.87 L1763.04 1100.74 L1759.8 1098.49 L1756.56 1096.11 L1753.31 1093.64 L1750.07 1091.07 L1746.83 1088.42 L1743.59 1085.7 L1740.34 1082.92 L1737.1 1080.1 L1733.86 1077.23 L1730.61 1074.34 L1727.37 1071.42 L1724.13 1068.49 L1720.88 1065.55 L1717.64 1062.61 L1714.4 1059.68 L1711.15 1056.76 L1707.91 1053.86 L1704.67 1050.99 L1701.43 1048.14 L1698.18 1045.32 L1694.94 1042.53 L1691.7 1039.79 L1688.45 1037.09 L1685.21 1034.43 L1681.97 1031.83 L1678.72 1029.27 L1675.48 1026.76 L1672.24 1024.31 L1669 1021.91 L1665.75 1019.57 L1662.51 1017.28 L1659.27 1015.05 L1656.02 1012.88 L1652.78 1010.77 L1649.54 1008.71 L1646.29 1006.71 L1643.05 1004.76 L1639.81 1002.87 L1636.57 1001.03 L1633.32 999.244 L1630.08 997.505 L1626.84 995.812 L1623.59 994.163 L1620.35 992.556 L1617.11 990.986 L1613.86 989.452 L1610.62 987.948 L1607.38 986.47 L1604.13 985.016 L1600.89 983.579 L1597.65 982.154 L1594.41 980.737 L1591.16 979.321 L1587.92 977.901 L1584.68 976.47 L1581.43 975.022 L1578.19 973.549 L1574.95 972.044 L1571.7 970.5 L1568.46 968.909 L1565.22 967.262 L1561.98 965.551 L1558.73 963.768 L1555.49 961.903 L1552.25 959.951 L1549 957.912 L1545.76 955.787 L1542.52 953.581 L1539.27 951.295 L1536.03 948.931 L1532.79 946.491 L1529.55 943.976 L1526.3 941.388 L1523.06 938.726 L1519.82 935.991 L1516.57 933.183 L1513.33 930.3 L1510.09 927.342 L1506.84 924.307 L1503.6 921.193 L1500.36 917.996 L1497.11 914.713 L1493.87 911.341 L1490.63 907.874 L1487.39 904.309 L1484.14 900.639 L1480.9 896.859 L1477.66 892.962 L1474.41 888.943 L1471.17 884.793 L1467.93 880.506 L1464.68 876.077 L1461.44 871.509 L1458.2 866.807 L1454.96 861.977 L1451.71 857.023 L1448.47 851.95 L1445.23 846.763 L1441.98 841.465 L1438.74 836.061 L1435.5 830.553 L1432.25 824.945 L1429.01 819.24 L1425.77 813.44 L1422.53 807.547 L1419.28 801.564 L1416.04 795.491 L1412.8 789.332 L1409.55 783.089 L1406.31 776.77 L1403.07 770.386 L1399.82 763.947 L1396.58 757.462 L1393.34 750.941 L1390.1 744.393 L1386.85 737.827 L1383.61 731.25 L1380.37 724.672 L1377.12 718.099 L1373.88 711.539 L1370.64 705 L1367.39 698.487 L1364.15 692.008 L1360.91 685.567 L1357.66 679.17 L1354.42 672.823 L1351.18 666.531 L1347.94 660.298 L1344.69 654.128 L1341.45 648.026 L1338.21 641.994 L1334.96 636.037 L1331.72 630.158 L1328.48 624.359 L1325.23 618.643 L1321.99 613.013 L1318.75 607.471 L1315.51 602.018 L1312.26 596.657 L1309.02 591.388 L1305.78 586.214 L1302.53 581.135 L1299.29 576.151 L1296.05 571.264 L1292.8 566.474 L1289.56 561.781 L1286.32 557.185 L1283.08 552.686 L1279.83 548.283 L1276.59 543.975 L1273.35 539.762 L1270.1 535.641 L1266.86 531.613 L1263.62 527.673 L1260.37 523.822 L1257.13 520.056 L1253.89 516.372 L1250.64 512.767 L1247.4 509.239 L1244.16 505.782 L1240.92 502.394 L1237.67 499.069 L1234.43 495.802 L1231.19 492.589 L1227.94 489.422 L1224.7 486.296 L1221.46 483.203 L1218.21 480.137 L1214.97 477.088 L1211.73 474.049 L1208.49 471.011 L1205.24 467.963 L1202 464.895 L1198.76 461.8 L1195.51 458.673 L1192.27 455.512 L1189.03 452.317 L1185.78 449.083 L1182.54 445.807 L1179.3 442.486 L1176.06 439.114 L1172.81 435.686 L1169.57 432.197 L1166.33 428.64 L1163.08 425.009 L1159.84 421.296 L1156.6 417.496 L1153.35 413.608 L1150.11 409.636 L1146.87 405.584 L1143.62 401.457 L1140.38 397.26 L1137.14 392.996 L1133.9 388.669 L1130.65 384.286 L1127.41 379.85 L1124.17 375.367 L1120.92 370.843 L1117.68 366.283 L1114.44 361.69 L1111.19 357.067 L1107.95 352.418 L1104.71 347.744 L1101.47 343.046 L1098.22 338.325 L1094.98 333.583 L1091.74 328.822 L1088.49 324.048 L1085.25 319.264 L1082.01 314.473 L1078.76 309.677 L1075.52 304.88 L1072.28 300.082 L1069.04 295.284 L1065.79 290.486 L1062.55 285.689 L1059.31 280.894 L1056.06 276.107 L1052.82 271.339 L1049.58 266.597 L1046.33 261.89 L1043.09 257.224 L1039.85 252.607 L1036.6 248.045 L1033.36 243.546 L1030.12 239.113 L1026.88 234.754 L1023.63 230.473 L1020.39 226.274 L1017.15 222.161 L1013.9 218.139 L1010.66 214.21 L1007.42 210.379 L1004.17 206.646 L1000.93 203.016 L997.688 199.49 L994.445 196.07 L991.202 192.757 L987.959 189.552 L984.716 186.457 L981.473 183.472 L978.23 180.598 L974.987 177.833 L971.744 175.179 L968.501 172.635 L965.258 170.199 L962.015 167.871 L958.772 165.649 L955.529 163.532 L952.286 161.517 L949.043 159.603 L945.8 157.786 L942.557 156.063 L939.314 154.432 L936.071 152.888 L932.828 151.428 L929.585 150.046 L926.342 148.738 L923.099 147.5 L919.856 146.325 L916.613 145.207 L913.37 144.14 L910.127 143.118 L906.884 142.133 L903.641 141.179 L900.398 140.247 L897.155 139.329 L893.911 138.419 L890.668 137.516 L887.425 136.621 L884.182 135.733 L880.939 134.852 L877.696 133.977 L874.453 133.109 L871.21 132.244 L867.967 131.383 L864.724 130.522 L861.481 129.659 L858.238 128.793 L854.995 127.919 L851.752 127.033 L848.509 126.134 L845.266 125.216 L842.023 124.275 L838.78 123.308 L835.537 122.311 L832.294 121.279 L829.051 120.209 L825.808 119.101 L822.565 117.953 L819.322 116.765 L816.079 115.538 L812.836 114.272 L809.593 112.968 L806.35 111.634 L803.107 110.277 L799.864 108.906 L796.621 107.528 L793.378 106.153 L790.135 104.786 L786.892 103.437 L783.648 102.11 L780.405 100.814 L777.162 99.5547 L773.919 98.3373 L770.676 97.1676 L767.433 96.0507 L764.19 94.9913 L760.947 93.9936 L757.704 93.0617 L754.461 92.1991 L751.218 91.4092 L747.975 90.6949 L744.732 90.059 L741.489 89.5039 L738.246 89.0318 L735.003 88.6446 L731.76 88.3441 L728.517 88.1317 L725.274 88.0087 L722.031 87.9763 L718.788 88.0354 L715.545 88.1868 L712.302 88.4311 L709.059 88.7688 L705.816 89.2003 L702.573 89.7258 L699.33 90.3454 L696.087 91.0591 L692.844 91.8668 L689.601 92.7683 L686.358 93.7633 L683.115 94.8513 L679.872 96.032 L676.629 97.3046 L673.385 98.6685 L670.142 100.123 L666.899 101.667 L663.656 103.3 L660.413 105.021 L657.17 106.828 L653.927 108.721 L650.684 110.697 L647.441 112.757 L644.198 114.898 L640.955 117.119 L637.712 119.418 L634.469 121.793 L631.226 124.243 L627.983 126.765 L624.74 129.358 L621.497 132.019 L618.254 134.746 L615.011 137.536 L611.768 140.387 L608.525 143.296 L605.282 146.26 L602.039 149.277 L598.796 152.342 L595.553 155.453 L592.31 158.606 L589.067 161.798 L585.824 165.024 L582.581 168.28 L579.338 171.563 L576.095 174.867 L572.852 178.188 L569.609 181.522 L566.366 184.862 L563.122 188.205 L559.879 191.545 L556.636 194.876 L553.393 198.192 L550.15 201.488 L546.907 204.759 L543.664 207.997 L540.421 211.197 L537.178 214.352 L533.935 217.458 L530.692 220.507 L527.449 223.495 L524.206 226.416 L520.963 229.273 L517.72 232.07 L514.477 234.81 L511.234 237.499 L507.991 240.139 L504.748 242.736 L501.505 245.292 L498.262 247.812 L495.019 250.3 L491.776 252.758 L488.533 255.191 L485.29 257.601 L482.047 259.991 L478.804 262.364 L475.561 264.721 L472.318 267.066 L469.075 269.399 L465.832 271.722 L462.589 274.036 L459.346 276.341 L456.103 278.638 L452.859 280.926 L449.616 283.205 L446.373 285.474 L443.13 287.732 L439.887 289.976 L436.644 292.206 L433.401 294.418 L430.158 296.61 L426.915 298.778 L423.672 300.92 L420.429 303.03 L417.186 305.105 L413.943 307.141 L410.7 309.131 L407.457 311.071 L404.214 312.955 L400.971 314.778 L397.728 316.532 L394.485 318.212 L391.242 319.811 L387.999 321.322 L384.756 322.738 L381.513 324.052 L378.27 325.257 L375.027 326.347 L371.784 327.313 L368.541 328.148 L365.298 328.847 L362.055 329.404 L358.812 329.823 L355.569 330.111 L352.326 330.273 L349.083 330.316 L345.84 330.246 L342.596 330.07 L339.353 329.794 L336.11 329.424 L332.867 328.967 L329.624 328.427 L326.381 327.811 L323.138 327.125 L319.895 326.373 L316.652 325.562 L313.409 324.695 L310.166 323.779 L306.923 322.816 L303.68 321.812 L300.437 320.77 L297.194 319.696 L293.951 318.591 L290.708 317.46 L287.465 316.307 L284.222 315.133 L280.979 313.943 L277.736 312.739 L274.493 311.523 L271.25 310.298 L268.007 309.066 L264.764 307.83 L261.521 306.591 L258.278 305.351 L255.035 304.112  Z" fill="#3da44d" fill-rule="evenodd" fill-opacity="0.1"/>
<polyline clip-path="url(#clip102)" style="stroke:#3da44d; stroke-linecap:round; stroke-linejoin:round; stroke-width:8; stroke-opacity:1; fill:none" points="255.035,621.931 258.278,620.416 261.521,618.884 264.764,617.337 268.007,615.773 271.25,614.193 274.493,612.597 277.736,610.984 280.979,609.354 284.222,607.707 287.465,606.044 290.708,604.364 293.951,602.667 297.194,600.953 300.437,599.221 303.68,597.473 306.923,595.707 310.166,593.923 313.409,592.123 316.652,590.304 319.895,588.469 323.138,586.615 326.381,584.744 329.624,582.855 332.867,580.949 336.11,579.024 339.353,577.082 342.596,575.122 345.84,573.143 349.083,571.147 352.326,569.133 355.569,567.101 358.812,565.051 362.055,562.983 365.298,560.896 368.541,558.792 371.784,556.67 375.027,554.531 378.27,552.375 381.513,550.202 384.756,548.013 387.999,545.808 391.242,543.588 394.485,541.352 397.728,539.102 400.971,536.838 404.214,534.56 407.457,532.268 410.7,529.964 413.943,527.647 417.186,525.318 420.429,522.978 423.672,520.626 426.915,518.264 430.158,515.892 433.401,513.51 436.644,511.12 439.887,508.721 443.13,506.314 446.373,503.901 449.616,501.48 452.859,499.054 456.103,496.623 459.346,494.186 462.589,491.746 465.832,489.303 469.075,486.857 472.318,484.41 475.561,481.961 478.804,479.513 482.047,477.065 485.29,474.618 488.533,472.174 491.776,469.733 495.019,467.296 498.262,464.865 501.505,462.439 504.748,460.021 507.991,457.61 511.234,455.209 514.477,452.818 517.72,450.439 520.963,448.072 524.206,445.719 527.449,443.38 530.692,441.058 533.935,438.751 537.178,436.459 540.421,434.18 543.664,431.914 546.907,429.66 550.15,427.417 553.393,425.185 556.636,422.963 559.879,420.751 563.122,418.547 566.366,416.351 569.609,414.163 572.852,411.983 576.095,409.809 579.338,407.641 582.581,405.479 585.824,403.323 589.067,401.173 592.31,399.027 595.553,396.886 598.796,394.749 602.039,392.617 605.282,390.489 608.525,388.366 611.768,386.246 615.011,384.13 618.254,382.018 621.497,379.91 624.74,377.806 627.983,375.706 631.226,373.611 634.469,371.52 637.712,369.433 640.955,367.351 644.198,365.275 647.441,363.204 650.684,361.138 653.927,359.079 657.17,357.026 660.413,354.981 663.656,352.943 666.899,350.913 670.142,348.891 673.385,346.879 676.629,344.877 679.872,342.886 683.115,340.905 686.358,338.937 689.601,336.982 692.844,335.041 696.087,333.115 699.33,331.204 702.573,329.311 705.816,327.435 709.059,325.577 712.302,323.74 715.545,321.925 718.788,320.131 722.031,318.362 725.274,316.618 728.517,314.9 731.76,313.211 735.003,311.551 738.246,309.922 741.489,308.326 744.732,306.765 747.975,305.24 751.218,303.753 754.461,302.306 757.704,300.9 760.947,299.539 764.19,298.224 767.433,296.956 770.676,295.739 773.919,294.575 777.162,293.466 780.405,292.414 783.648,291.421 786.892,290.492 790.135,289.627 793.378,288.83 796.621,288.104 799.864,287.451 803.107,286.875 806.35,286.378 809.593,285.964 812.836,285.636 816.079,285.398 819.322,285.25 822.565,285.195 825.808,285.236 829.051,285.375 832.294,285.613 835.537,285.952 838.78,286.39 842.023,286.924 845.266,287.549 848.509,288.263 851.752,289.063 854.995,289.946 858.238,290.908 861.481,291.948 864.724,293.061 867.967,294.247 871.21,295.501 874.453,296.822 877.696,298.207 880.939,299.653 884.182,301.16 887.425,302.723 890.668,304.342 893.911,306.014 897.155,307.737 900.398,309.51 903.641,311.33 906.884,313.196 910.127,315.106 913.37,317.058 916.613,319.051 919.856,321.083 923.099,323.153 926.342,325.26 929.585,327.401 932.828,329.576 936.071,331.783 939.314,334.022 942.557,336.291 945.8,338.589 949.043,340.915 952.286,343.268 955.529,345.647 958.772,348.052 962.015,350.481 965.258,352.934 968.501,355.41 971.744,357.909 974.987,360.429 978.23,362.971 981.473,365.533 984.716,368.116 987.959,370.719 991.202,373.341 994.445,375.982 997.688,378.642 1000.93,381.321 1004.17,384.018 1007.42,386.734 1010.66,389.467 1013.9,392.219 1017.15,394.989 1020.39,397.777 1023.63,400.583 1026.88,403.407 1030.12,406.25 1033.36,409.112 1036.6,411.992 1039.85,414.892 1043.09,417.81 1046.33,420.749 1049.58,423.708 1052.82,426.687 1056.06,429.687 1059.31,432.709 1062.55,435.753 1065.79,438.821 1069.04,441.913 1072.28,445.034 1075.52,448.186 1078.76,451.371 1082.01,454.592 1085.25,457.854 1088.49,461.157 1091.74,464.506 1094.98,467.903 1098.22,471.351 1101.47,474.854 1104.71,478.414 1107.95,482.031 1111.19,485.707 1114.44,489.445 1117.68,493.247 1120.92,497.114 1124.17,501.047 1127.41,505.05 1130.65,509.125 1133.9,513.272 1137.14,517.495 1140.38,521.792 1143.62,526.161 1146.87,530.6 1150.11,535.108 1153.35,539.683 1156.6,544.324 1159.84,549.029 1163.08,553.794 1166.33,558.618 1169.57,563.496 1172.81,568.425 1176.06,573.403 1179.3,578.425 1182.54,583.489 1185.78,588.592 1189.03,593.73 1192.27,598.901 1195.51,604.102 1198.76,609.329 1202,614.58 1205.24,619.852 1208.49,625.144 1211.73,630.455 1214.97,635.785 1218.21,641.132 1221.46,646.496 1224.7,651.876 1227.94,657.271 1231.19,662.68 1234.43,668.103 1237.67,673.54 1240.92,678.988 1244.16,684.449 1247.4,689.92 1250.64,695.402 1253.89,700.893 1257.13,706.394 1260.37,711.903 1263.62,717.42 1266.86,722.945 1270.1,728.476 1273.35,734.013 1276.59,739.556 1279.83,745.103 1283.08,750.655 1286.32,756.211 1289.56,761.77 1292.8,767.332 1296.05,772.896 1299.29,778.461 1302.53,784.028 1305.78,789.595 1309.02,795.161 1312.26,800.727 1315.51,806.291 1318.75,811.853 1321.99,817.413 1325.23,822.97 1328.48,828.522 1331.72,834.071 1334.96,839.614 1338.21,845.152 1341.45,850.683 1344.69,856.207 1347.94,861.723 1351.18,867.231 1354.42,872.729 1357.66,878.218 1360.91,883.696 1364.15,889.162 1367.39,894.617 1370.64,900.058 1373.88,905.485 1377.12,910.898 1380.37,916.295 1383.61,921.675 1386.85,927.038 1390.1,932.383 1393.34,937.708 1396.58,943.013 1399.82,948.296 1403.07,953.557 1406.31,958.794 1409.55,964.006 1412.8,969.192 1416.04,974.351 1419.28,979.481 1422.53,984.58 1425.77,989.646 1429.01,994.677 1432.25,999.672 1435.5,1004.63 1438.74,1009.54 1441.98,1014.41 1445.23,1019.24 1448.47,1024.02 1451.71,1028.74 1454.96,1033.42 1458.2,1038.04 1461.44,1042.6 1464.68,1047.1 1467.93,1051.54 1471.17,1055.92 1474.41,1060.23 1477.66,1064.48 1480.9,1068.67 1484.14,1072.79 1487.39,1076.86 1490.63,1080.87 1493.87,1084.83 1497.11,1088.73 1500.36,1092.57 1503.6,1096.36 1506.84,1100.1 1510.09,1103.78 1513.33,1107.42 1516.57,1111 1519.82,1114.53 1523.06,1118.01 1526.3,1121.44 1529.55,1124.82 1532.79,1128.15 1536.03,1131.44 1539.27,1134.67 1542.52,1137.85 1545.76,1140.99 1549,1144.08 1552.25,1147.12 1555.49,1150.11 1558.73,1153.05 1561.98,1155.94 1565.22,1158.79 1568.46,1161.59 1571.7,1164.34 1574.95,1167.06 1578.19,1169.73 1581.43,1172.37 1584.68,1174.96 1587.92,1177.52 1591.16,1180.04 1594.41,1182.53 1597.65,1184.98 1600.89,1187.4 1604.13,1189.78 1607.38,1192.13 1610.62,1194.45 1613.86,1196.73 1617.11,1198.99 1620.35,1201.21 1623.59,1203.41 1626.84,1205.57 1630.08,1207.71 1633.32,1209.81 1636.57,1211.89 1639.81,1213.93 1643.05,1215.95 1646.29,1217.94 1649.54,1219.9 1652.78,1221.83 1656.02,1223.73 1659.27,1225.6 1662.51,1227.43 1665.75,1229.24 1669,1231.02 1672.24,1232.76 1675.48,1234.48 1678.72,1236.16 1681.97,1237.8 1685.21,1239.42 1688.45,1240.99 1691.7,1242.53 1694.94,1244.04 1698.18,1245.5 1701.43,1246.93 1704.67,1248.31 1707.91,1249.65 1711.15,1250.95 1714.4,1252.21 1717.64,1253.42 1720.88,1254.58 1724.13,1255.69 1727.37,1256.75 1730.61,1257.76 1733.86,1258.71 1737.1,1259.61 1740.34,1260.45 1743.59,1261.23 1746.83,1261.95 1750.07,1262.6 1753.31,1263.18 1756.56,1263.7 1759.8,1264.14 1763.04,1264.51 1766.29,1264.8 1769.53,1265.01 1772.77,1265.13 1776.02,1265.17 1779.26,1265.12 1782.5,1264.99 1785.74,1264.76 1788.99,1264.45 1792.23,1264.05 1795.47,1263.56 1798.72,1263 1801.96,1262.35 1805.2,1261.62 1808.45,1260.81 1811.69,1259.93 1814.93,1258.96 1818.17,1257.93 1821.42,1256.81 1824.66,1255.62 1827.9,1254.36 1831.15,1253.03 1834.39,1251.62 1837.63,1250.14 1840.88,1248.59 1844.12,1246.97 1847.36,1245.27 1850.61,1243.51 1853.85,1241.67 1857.09,1239.76 1860.33,1237.78 1863.58,1235.72 1866.82,1233.59 1870.06,1231.39 1873.31,1229.12 1876.55,1226.77 1879.79,1224.36 1883.04,1221.88 1886.28,1219.33 1889.52,1216.73 1892.76,1214.06 1896.01,1211.34 1899.25,1208.57 1902.49,1205.74 1905.74,1202.86 1908.98,1199.94 1912.22,1196.97 1915.47,1193.96 1918.71,1190.9 1921.95,1187.81 1925.19,1184.67 1928.44,1181.5 1931.68,1178.3 1934.92,1175.06 1938.17,1171.78 1941.41,1168.48 1944.65,1165.15 1947.9,1161.79 1951.14,1158.4 1954.38,1154.99 1957.63,1151.55 1960.87,1148.09 1964.11,1144.6 1967.35,1141.1 1970.6,1137.57 1973.84,1134.02 1977.08,1130.46 1980.33,1126.88 1983.57,1123.28 1986.81,1119.66 1990.06,1116.04 1993.3,1112.4 1996.54,1108.75 1999.78,1105.1 2003.03,1101.43 2006.27,1097.76 2009.51,1094.09 2012.76,1090.41 2016,1086.73 2019.24,1083.04 2022.49,1079.36 2025.73,1075.68 2028.97,1072 2032.21,1068.32 2035.46,1064.65 2038.7,1060.98 2041.94,1057.31 2045.19,1053.66 2048.43,1050 2051.67,1046.36 2054.92,1042.73 2058.16,1039.11 2061.4,1035.49 2064.65,1031.89 2067.89,1028.3 2071.13,1024.73 2074.37,1021.17 2077.62,1017.62 2080.86,1014.08 2084.1,1010.57 2087.35,1007.07 2090.59,1003.58 2093.83,1000.11 2097.08,996.666 2100.32,993.236 2103.56,989.825 2106.8,986.434 2110.05,983.063 2113.29,979.714 2116.53,976.385 2119.78,973.079 2123.02,969.796 2126.26,966.535 2129.51,963.299 2132.75,960.086 2135.99,956.898 2139.23,953.734 2142.48,950.597 2145.72,947.485 2148.96,944.4 2152.21,941.342 2155.45,938.312 2158.69,935.31 2161.94,932.336 2165.18,929.39 2168.42,926.475 2171.67,923.589 2174.91,920.733 2178.15,917.909 2181.39,915.116 2184.64,912.354 2187.88,909.625 2191.12,906.928 2194.37,904.265 2197.61,901.636 2200.85,899.041 2204.1,896.481 2207.34,893.956 2210.58,891.467 2213.82,889.014 2217.07,886.599 2220.31,884.221 2223.55,881.881 2226.8,879.579 2230.04,877.315 2233.28,875.089 2236.53,872.9 2239.77,870.746 2243.01,868.629 2246.25,866.546 2249.5,864.497 2252.74,862.483 2255.98,860.502 2259.23,858.553 2262.47,856.637 2265.71,854.752 2268.96,852.899 2272.2,851.076 2275.44,849.283 2278.69,847.52 2281.93,845.786 2285.17,844.08 2288.41,842.403 2291.66,840.754 "/>
<path clip-path="url(#clip100)" d="M1953.46 302.578 L2280.8 302.578 L2280.8 95.2176 L1953.46 95.2176  Z" fill="#ffffff" fill-rule="evenodd" fill-opacity="1"/>
<polyline clip-path="url(#clip100)" style="stroke:#000000; stroke-linecap:round; stroke-linejoin:round; stroke-width:4; stroke-opacity:1; fill:none" points="1953.46,302.578 2280.8,302.578 2280.8,95.2176 1953.46,95.2176 1953.46,302.578 "/>
<polyline clip-path="url(#clip100)" style="stroke:#009af9; stroke-linecap:round; stroke-linejoin:round; stroke-width:4; stroke-opacity:1; fill:none" points="1977.44,147.058 2121.36,147.058 "/>
<path clip-path="url(#clip100)" d="M2152.76 131.051 L2152.76 138.412 L2161.53 138.412 L2161.53 141.722 L2152.76 141.722 L2152.76 155.796 Q2152.76 158.967 2153.61 159.87 Q2154.49 160.773 2157.16 160.773 L2161.53 160.773 L2161.53 164.338 L2157.16 164.338 Q2152.23 164.338 2150.35 162.509 Q2148.48 160.657 2148.48 155.796 L2148.48 141.722 L2145.35 141.722 L2145.35 138.412 L2148.48 138.412 L2148.48 131.051 L2152.76 131.051 Z" fill="#000000" fill-rule="nonzero" fill-opacity="1" /><path clip-path="url(#clip100)" d="M2182.16 142.393 Q2181.44 141.977 2180.58 141.791 Q2179.75 141.583 2178.73 141.583 Q2175.12 141.583 2173.17 143.944 Q2171.25 146.282 2171.25 150.68 L2171.25 164.338 L2166.97 164.338 L2166.97 138.412 L2171.25 138.412 L2171.25 142.44 Q2172.6 140.078 2174.75 138.944 Q2176.9 137.787 2179.98 137.787 Q2180.42 137.787 2180.95 137.856 Q2181.48 137.903 2182.13 138.018 L2182.16 142.393 Z" fill="#000000" fill-rule="nonzero" fill-opacity="1" /><path clip-path="url(#clip100)" d="M2186.18 154.106 L2186.18 138.412 L2190.44 138.412 L2190.44 153.944 Q2190.44 157.625 2191.88 159.476 Q2193.31 161.305 2196.18 161.305 Q2199.63 161.305 2201.62 159.106 Q2203.64 156.907 2203.64 153.111 L2203.64 138.412 L2207.9 138.412 L2207.9 164.338 L2203.64 164.338 L2203.64 160.356 Q2202.09 162.717 2200.03 163.875 Q2197.99 165.009 2195.28 165.009 Q2190.81 165.009 2188.5 162.231 Q2186.18 159.453 2186.18 154.106 M2196.9 137.787 L2196.9 137.787 Z" fill="#000000" fill-rule="nonzero" fill-opacity="1" /><path clip-path="url(#clip100)" d="M2220.88 131.051 L2220.88 138.412 L2229.66 138.412 L2229.66 141.722 L2220.88 141.722 L2220.88 155.796 Q2220.88 158.967 2221.74 159.87 Q2222.62 160.773 2225.28 160.773 L2229.66 160.773 L2229.66 164.338 L2225.28 164.338 Q2220.35 164.338 2218.48 162.509 Q2216.6 160.657 2216.6 155.796 L2216.6 141.722 L2213.48 141.722 L2213.48 138.412 L2216.6 138.412 L2216.6 131.051 L2220.88 131.051 Z" fill="#000000" fill-rule="nonzero" fill-opacity="1" /><path clip-path="url(#clip100)" d="M2256.81 148.689 L2256.81 164.338 L2252.55 164.338 L2252.55 148.828 Q2252.55 145.148 2251.11 143.319 Q2249.68 141.49 2246.81 141.49 Q2243.36 141.49 2241.37 143.69 Q2239.38 145.889 2239.38 149.685 L2239.38 164.338 L2235.1 164.338 L2235.1 128.319 L2239.38 128.319 L2239.38 142.44 Q2240.91 140.102 2242.97 138.944 Q2245.05 137.787 2247.76 137.787 Q2252.23 137.787 2254.52 140.565 Q2256.81 143.319 2256.81 148.689 Z" fill="#000000" fill-rule="nonzero" fill-opacity="1" /><circle clip-path="url(#clip100)" cx="2049.4" cy="198.898" r="20.48" fill="#e26f46" fill-rule="evenodd" fill-opacity="1" stroke="#000000" stroke-opacity="1" stroke-width="4.55111"/>
<path clip-path="url(#clip100)" d="M2164.26 194.187 L2164.26 180.159 L2168.52 180.159 L2168.52 216.178 L2164.26 216.178 L2164.26 212.289 Q2162.92 214.603 2160.86 215.738 Q2158.82 216.849 2155.95 216.849 Q2151.25 216.849 2148.29 213.099 Q2145.35 209.349 2145.35 203.238 Q2145.35 197.127 2148.29 193.377 Q2151.25 189.627 2155.95 189.627 Q2158.82 189.627 2160.86 190.761 Q2162.92 191.872 2164.26 194.187 M2149.75 203.238 Q2149.75 207.937 2151.67 210.622 Q2153.61 213.284 2156.99 213.284 Q2160.37 213.284 2162.32 210.622 Q2164.26 207.937 2164.26 203.238 Q2164.26 198.539 2162.32 195.877 Q2160.37 193.192 2156.99 193.192 Q2153.61 193.192 2151.67 195.877 Q2149.75 198.539 2149.75 203.238 Z" fill="#000000" fill-rule="nonzero" fill-opacity="1" /><path clip-path="url(#clip100)" d="M2189.08 203.145 Q2183.92 203.145 2181.92 204.326 Q2179.93 205.506 2179.93 208.354 Q2179.93 210.622 2181.42 211.965 Q2182.92 213.284 2185.49 213.284 Q2189.03 213.284 2191.16 210.784 Q2193.31 208.261 2193.31 204.094 L2193.31 203.145 L2189.08 203.145 M2197.57 201.386 L2197.57 216.178 L2193.31 216.178 L2193.31 212.242 Q2191.85 214.603 2189.68 215.738 Q2187.5 216.849 2184.36 216.849 Q2180.37 216.849 2178.01 214.627 Q2175.67 212.381 2175.67 208.631 Q2175.67 204.256 2178.59 202.034 Q2181.53 199.812 2187.34 199.812 L2193.31 199.812 L2193.31 199.395 Q2193.31 196.455 2191.37 194.858 Q2189.45 193.238 2185.95 193.238 Q2183.73 193.238 2181.62 193.77 Q2179.52 194.303 2177.57 195.367 L2177.57 191.432 Q2179.91 190.53 2182.11 190.09 Q2184.31 189.627 2186.39 189.627 Q2192.02 189.627 2194.79 192.543 Q2197.57 195.46 2197.57 201.386 Z" fill="#000000" fill-rule="nonzero" fill-opacity="1" /><path clip-path="url(#clip100)" d="M2210.56 182.891 L2210.56 190.252 L2219.33 190.252 L2219.33 193.562 L2210.56 193.562 L2210.56 207.636 Q2210.56 210.807 2211.42 211.71 Q2212.29 212.613 2214.96 212.613 L2219.33 212.613 L2219.33 216.178 L2214.96 216.178 Q2210.03 216.178 2208.15 214.349 Q2206.28 212.497 2206.28 207.636 L2206.28 193.562 L2203.15 193.562 L2203.15 190.252 L2206.28 190.252 L2206.28 182.891 L2210.56 182.891 Z" fill="#000000" fill-rule="nonzero" fill-opacity="1" /><path clip-path="url(#clip100)" d="M2236.72 203.145 Q2231.55 203.145 2229.56 204.326 Q2227.57 205.506 2227.57 208.354 Q2227.57 210.622 2229.05 211.965 Q2230.56 213.284 2233.13 213.284 Q2236.67 213.284 2238.8 210.784 Q2240.95 208.261 2240.95 204.094 L2240.95 203.145 L2236.72 203.145 M2245.21 201.386 L2245.21 216.178 L2240.95 216.178 L2240.95 212.242 Q2239.49 214.603 2237.32 215.738 Q2235.14 216.849 2231.99 216.849 Q2228.01 216.849 2225.65 214.627 Q2223.31 212.381 2223.31 208.631 Q2223.31 204.256 2226.23 202.034 Q2229.17 199.812 2234.98 199.812 L2240.95 199.812 L2240.95 199.395 Q2240.95 196.455 2239.01 194.858 Q2237.09 193.238 2233.59 193.238 Q2231.37 193.238 2229.26 193.77 Q2227.16 194.303 2225.21 195.367 L2225.21 191.432 Q2227.55 190.53 2229.75 190.09 Q2231.95 189.627 2234.03 189.627 Q2239.66 189.627 2242.43 192.543 Q2245.21 195.46 2245.21 201.386 Z" fill="#000000" fill-rule="nonzero" fill-opacity="1" /><polyline clip-path="url(#clip100)" style="stroke:#3da44d; stroke-linecap:round; stroke-linejoin:round; stroke-width:8; stroke-opacity:1; fill:none" points="1977.44,250.738 2121.36,250.738 "/>
<path clip-path="url(#clip100)" d="M2170.91 263.087 L2170.91 253.805 L2163.27 253.805 L2163.27 249.962 L2175.54 249.962 L2175.54 264.8 Q2172.83 266.721 2169.56 267.717 Q2166.3 268.689 2162.6 268.689 Q2154.49 268.689 2149.91 263.967 Q2145.35 259.221 2145.35 250.772 Q2145.35 242.3 2149.91 237.578 Q2154.49 232.833 2162.6 232.833 Q2165.98 232.833 2169.01 233.666 Q2172.06 234.499 2174.63 236.12 L2174.63 241.096 Q2172.04 238.897 2169.12 237.786 Q2166.21 236.675 2162.99 236.675 Q2156.65 236.675 2153.45 240.217 Q2150.28 243.758 2150.28 250.772 Q2150.28 257.763 2153.45 261.305 Q2156.65 264.846 2162.99 264.846 Q2165.47 264.846 2167.41 264.43 Q2169.36 263.99 2170.91 263.087 Z" fill="#000000" fill-rule="nonzero" fill-opacity="1" /><path clip-path="url(#clip100)" d="M2188.75 237.3 L2188.75 250.286 L2194.63 250.286 Q2197.9 250.286 2199.68 248.596 Q2201.46 246.907 2201.46 243.782 Q2201.46 240.68 2199.68 238.99 Q2197.9 237.3 2194.63 237.3 L2188.75 237.3 M2184.08 233.458 L2194.63 233.458 Q2200.44 233.458 2203.41 236.096 Q2206.39 238.712 2206.39 243.782 Q2206.39 248.897 2203.41 251.513 Q2200.44 254.129 2194.63 254.129 L2188.75 254.129 L2188.75 268.018 L2184.08 268.018 L2184.08 233.458 Z" fill="#000000" fill-rule="nonzero" fill-opacity="1" /></svg>
