<?xml version="1.0" encoding="utf-8"?>
<svg xmlns="http://www.w3.org/2000/svg" xmlns:xlink="http://www.w3.org/1999/xlink" width="600" height="400" viewBox="0 0 2400 1600">
<defs>
  <clipPath id="clip070">
    <rect x="0" y="0" width="2400" height="1600"/>
  </clipPath>
</defs>
<path clip-path="url(#clip070)" d="M0 1600 L2400 1600 L2400 0 L0 0  Z" fill="#ffffff" fill-rule="evenodd" fill-opacity="1"/>
<defs>
  <clipPath id="clip071">
    <rect x="480" y="0" width="1681" height="1600"/>
  </clipPath>
</defs>
<path clip-path="url(#clip070)" d="M193.936 1486.45 L2352.76 1486.45 L2352.76 47.2441 L193.936 47.2441  Z" fill="#ffffff" fill-rule="evenodd" fill-opacity="1"/>
<defs>
  <clipPath id="clip072">
    <rect x="193" y="47" width="2160" height="1440"/>
  </clipPath>
</defs>
<polyline clip-path="url(#clip072)" style="stroke:#000000; stroke-linecap:round; stroke-linejoin:round; stroke-width:2; stroke-opacity:0.1; fill:none" points="255.035,1486.45 255.035,47.2441 "/>
<polyline clip-path="url(#clip072)" style="stroke:#000000; stroke-linecap:round; stroke-linejoin:round; stroke-width:2; stroke-opacity:0.1; fill:none" points="579.338,1486.45 579.338,47.2441 "/>
<polyline clip-path="url(#clip072)" style="stroke:#000000; stroke-linecap:round; stroke-linejoin:round; stroke-width:2; stroke-opacity:0.1; fill:none" points="903.641,1486.45 903.641,47.2441 "/>
<polyline clip-path="url(#clip072)" style="stroke:#000000; stroke-linecap:round; stroke-linejoin:round; stroke-width:2; stroke-opacity:0.1; fill:none" points="1227.94,1486.45 1227.94,47.2441 "/>
<polyline clip-path="url(#clip072)" style="stroke:#000000; stroke-linecap:round; stroke-linejoin:round; stroke-width:2; stroke-opacity:0.1; fill:none" points="1552.25,1486.45 1552.25,47.2441 "/>
<polyline clip-path="url(#clip072)" style="stroke:#000000; stroke-linecap:round; stroke-linejoin:round; stroke-width:2; stroke-opacity:0.1; fill:none" points="1876.55,1486.45 1876.55,47.2441 "/>
<polyline clip-path="url(#clip072)" style="stroke:#000000; stroke-linecap:round; stroke-linejoin:round; stroke-width:2; stroke-opacity:0.1; fill:none" points="2200.85,1486.45 2200.85,47.2441 "/>
<polyline clip-path="url(#clip072)" style="stroke:#000000; stroke-linecap:round; stroke-linejoin:round; stroke-width:2; stroke-opacity:0.1; fill:none" points="193.936,1312.35 2352.76,1312.35 "/>
<polyline clip-path="url(#clip072)" style="stroke:#000000; stroke-linecap:round; stroke-linejoin:round; stroke-width:2; stroke-opacity:0.1; fill:none" points="193.936,1032.94 2352.76,1032.94 "/>
<polyline clip-path="url(#clip072)" style="stroke:#000000; stroke-linecap:round; stroke-linejoin:round; stroke-width:2; stroke-opacity:0.1; fill:none" points="193.936,753.521 2352.76,753.521 "/>
<polyline clip-path="url(#clip072)" style="stroke:#000000; stroke-linecap:round; stroke-linejoin:round; stroke-width:2; stroke-opacity:0.1; fill:none" points="193.936,474.105 2352.76,474.105 "/>
<polyline clip-path="url(#clip072)" style="stroke:#000000; stroke-linecap:round; stroke-linejoin:round; stroke-width:2; stroke-opacity:0.1; fill:none" points="193.936,194.69 2352.76,194.69 "/>
<polyline clip-path="url(#clip070)" style="stroke:#000000; stroke-linecap:round; stroke-linejoin:round; stroke-width:4; stroke-opacity:1; fill:none" points="193.936,1486.45 2352.76,1486.45 "/>
<polyline clip-path="url(#clip070)" style="stroke:#000000; stroke-linecap:round; stroke-linejoin:round; stroke-width:4; stroke-opacity:1; fill:none" points="255.035,1486.45 255.035,1467.55 "/>
<polyline clip-path="url(#clip070)" style="stroke:#000000; stroke-linecap:round; stroke-linejoin:round; stroke-width:4; stroke-opacity:1; fill:none" points="579.338,1486.45 579.338,1467.55 "/>
<polyline clip-path="url(#clip070)" style="stroke:#000000; stroke-linecap:round; stroke-linejoin:round; stroke-width:4; stroke-opacity:1; fill:none" points="903.641,1486.45 903.641,1467.55 "/>
<polyline clip-path="url(#clip070)" style="stroke:#000000; stroke-linecap:round; stroke-linejoin:round; stroke-width:4; stroke-opacity:1; fill:none" points="1227.94,1486.45 1227.94,1467.55 "/>
<polyline clip-path="url(#clip070)" style="stroke:#000000; stroke-linecap:round; stroke-linejoin:round; stroke-width:4; stroke-opacity:1; fill:none" points="1552.25,1486.45 1552.25,1467.55 "/>
<polyline clip-path="url(#clip070)" style="stroke:#000000; stroke-linecap:round; stroke-linejoin:round; stroke-width:4; stroke-opacity:1; fill:none" points="1876.55,1486.45 1876.55,1467.55 "/>
<polyline clip-path="url(#clip070)" style="stroke:#000000; stroke-linecap:round; stroke-linejoin:round; stroke-width:4; stroke-opacity:1; fill:none" points="2200.85,1486.45 2200.85,1467.55 "/>
<path clip-path="url(#clip070)" d="M255.035 1517.37 Q251.424 1517.37 249.595 1520.93 Q247.789 1524.47 247.789 1531.6 Q247.789 1538.71 249.595 1542.27 Q251.424 1545.82 255.035 1545.82 Q258.669 1545.82 260.474 1542.27 Q262.303 1538.71 262.303 1531.6 Q262.303 1524.47 260.474 1520.93 Q258.669 1517.37 255.035 1517.37 M255.035 1513.66 Q260.845 1513.66 263.9 1518.27 Q266.979 1522.85 266.979 1531.6 Q266.979 1540.33 263.9 1544.94 Q260.845 1549.52 255.035 1549.52 Q249.225 1549.52 246.146 1544.94 Q243.09 1540.33 243.09 1531.6 Q243.09 1522.85 246.146 1518.27 Q249.225 1513.66 255.035 1513.66 Z" fill="#000000" fill-rule="nonzero" fill-opacity="1" /><path clip-path="url(#clip070)" d="M569.72 1544.91 L577.358 1544.91 L577.358 1518.55 L569.048 1520.21 L569.048 1515.95 L577.312 1514.29 L581.988 1514.29 L581.988 1544.91 L589.627 1544.91 L589.627 1548.85 L569.72 1548.85 L569.72 1544.91 Z" fill="#000000" fill-rule="nonzero" fill-opacity="1" /><path clip-path="url(#clip070)" d="M898.293 1544.91 L914.613 1544.91 L914.613 1548.85 L892.668 1548.85 L892.668 1544.91 Q895.33 1542.16 899.914 1537.53 Q904.52 1532.88 905.701 1531.53 Q907.946 1529.01 908.826 1527.27 Q909.729 1525.51 909.729 1523.82 Q909.729 1521.07 907.784 1519.33 Q905.863 1517.6 902.761 1517.6 Q900.562 1517.6 898.108 1518.36 Q895.678 1519.13 892.9 1520.68 L892.9 1515.95 Q895.724 1514.82 898.178 1514.24 Q900.631 1513.66 902.668 1513.66 Q908.039 1513.66 911.233 1516.35 Q914.428 1519.03 914.428 1523.52 Q914.428 1525.65 913.617 1527.57 Q912.83 1529.47 910.724 1532.07 Q910.145 1532.74 907.043 1535.95 Q903.942 1539.15 898.293 1544.91 Z" fill="#000000" fill-rule="nonzero" fill-opacity="1" /><path clip-path="url(#clip070)" d="M1232.19 1530.21 Q1235.55 1530.93 1237.42 1533.2 Q1239.32 1535.47 1239.32 1538.8 Q1239.32 1543.92 1235.8 1546.72 Q1232.28 1549.52 1225.8 1549.52 Q1223.63 1549.52 1221.31 1549.08 Q1219.02 1548.66 1216.57 1547.81 L1216.57 1543.29 Q1218.51 1544.43 1220.83 1545.01 Q1223.14 1545.58 1225.66 1545.58 Q1230.06 1545.58 1232.35 1543.85 Q1234.67 1542.11 1234.67 1538.8 Q1234.67 1535.75 1232.52 1534.03 Q1230.39 1532.3 1226.57 1532.3 L1222.54 1532.3 L1222.54 1528.45 L1226.75 1528.45 Q1230.2 1528.45 1232.03 1527.09 Q1233.86 1525.7 1233.86 1523.11 Q1233.86 1520.45 1231.96 1519.03 Q1230.08 1517.6 1226.57 1517.6 Q1224.64 1517.6 1222.45 1518.01 Q1220.25 1518.43 1217.61 1519.31 L1217.61 1515.14 Q1220.27 1514.4 1222.58 1514.03 Q1224.92 1513.66 1226.98 1513.66 Q1232.31 1513.66 1235.41 1516.09 Q1238.51 1518.5 1238.51 1522.62 Q1238.51 1525.49 1236.87 1527.48 Q1235.22 1529.45 1232.19 1530.21 Z" fill="#000000" fill-rule="nonzero" fill-opacity="1" /><path clip-path="url(#clip070)" d="M1555.26 1518.36 L1543.45 1536.81 L1555.26 1536.81 L1555.26 1518.36 M1554.03 1514.29 L1559.91 1514.29 L1559.91 1536.81 L1564.84 1536.81 L1564.84 1540.7 L1559.91 1540.7 L1559.91 1548.85 L1555.26 1548.85 L1555.26 1540.7 L1539.65 1540.7 L1539.65 1536.19 L1554.03 1514.29 Z" fill="#000000" fill-rule="nonzero" fill-opacity="1" /><path clip-path="url(#clip070)" d="M1866.83 1514.29 L1885.18 1514.29 L1885.18 1518.22 L1871.11 1518.22 L1871.11 1526.7 Q1872.13 1526.35 1873.15 1526.19 Q1874.17 1526 1875.18 1526 Q1880.97 1526 1884.35 1529.17 Q1887.73 1532.34 1887.73 1537.76 Q1887.73 1543.34 1884.26 1546.44 Q1880.79 1549.52 1874.47 1549.52 Q1872.29 1549.52 1870.02 1549.15 Q1867.78 1548.78 1865.37 1548.04 L1865.37 1543.34 Q1867.45 1544.47 1869.67 1545.03 Q1871.9 1545.58 1874.37 1545.58 Q1878.38 1545.58 1880.72 1543.48 Q1883.05 1541.37 1883.05 1537.76 Q1883.05 1534.15 1880.72 1532.04 Q1878.38 1529.94 1874.37 1529.94 Q1872.5 1529.94 1870.62 1530.35 Q1868.77 1530.77 1866.83 1531.65 L1866.83 1514.29 Z" fill="#000000" fill-rule="nonzero" fill-opacity="1" /><path clip-path="url(#clip070)" d="M2201.26 1529.7 Q2198.11 1529.7 2196.26 1531.86 Q2194.43 1534.01 2194.43 1537.76 Q2194.43 1541.49 2196.26 1543.66 Q2198.11 1545.82 2201.26 1545.82 Q2204.41 1545.82 2206.23 1543.66 Q2208.09 1541.49 2208.09 1537.76 Q2208.09 1534.01 2206.23 1531.86 Q2204.41 1529.7 2201.26 1529.7 M2210.54 1515.05 L2210.54 1519.31 Q2208.78 1518.48 2206.98 1518.04 Q2205.19 1517.6 2203.43 1517.6 Q2198.8 1517.6 2196.35 1520.72 Q2193.92 1523.85 2193.57 1530.17 Q2194.94 1528.15 2197 1527.09 Q2199.06 1526 2201.54 1526 Q2206.74 1526 2209.75 1529.17 Q2212.79 1532.32 2212.79 1537.76 Q2212.79 1543.08 2209.64 1546.3 Q2206.49 1549.52 2201.26 1549.52 Q2195.26 1549.52 2192.09 1544.94 Q2188.92 1540.33 2188.92 1531.6 Q2188.92 1523.41 2192.81 1518.55 Q2196.7 1513.66 2203.25 1513.66 Q2205.01 1513.66 2206.79 1514.01 Q2208.6 1514.36 2210.54 1515.05 Z" fill="#000000" fill-rule="nonzero" fill-opacity="1" /><polyline clip-path="url(#clip070)" style="stroke:#000000; stroke-linecap:round; stroke-linejoin:round; stroke-width:4; stroke-opacity:1; fill:none" points="193.936,1486.45 193.936,47.2441 "/>
<polyline clip-path="url(#clip070)" style="stroke:#000000; stroke-linecap:round; stroke-linejoin:round; stroke-width:4; stroke-opacity:1; fill:none" points="193.936,1312.35 212.834,1312.35 "/>
<polyline clip-path="url(#clip070)" style="stroke:#000000; stroke-linecap:round; stroke-linejoin:round; stroke-width:4; stroke-opacity:1; fill:none" points="193.936,1032.94 212.834,1032.94 "/>
<polyline clip-path="url(#clip070)" style="stroke:#000000; stroke-linecap:round; stroke-linejoin:round; stroke-width:4; stroke-opacity:1; fill:none" points="193.936,753.521 212.834,753.521 "/>
<polyline clip-path="url(#clip070)" style="stroke:#000000; stroke-linecap:round; stroke-linejoin:round; stroke-width:4; stroke-opacity:1; fill:none" points="193.936,474.105 212.834,474.105 "/>
<polyline clip-path="url(#clip070)" style="stroke:#000000; stroke-linecap:round; stroke-linejoin:round; stroke-width:4; stroke-opacity:1; fill:none" points="193.936,194.69 212.834,194.69 "/>
<path clip-path="url(#clip070)" d="M50.9921 1312.8 L80.6679 1312.8 L80.6679 1316.74 L50.9921 1316.74 L50.9921 1312.8 Z" fill="#000000" fill-rule="nonzero" fill-opacity="1" /><path clip-path="url(#clip070)" d="M91.5706 1325.7 L99.2095 1325.7 L99.2095 1299.33 L90.8993 1301 L90.8993 1296.74 L99.1632 1295.07 L103.839 1295.07 L103.839 1325.7 L111.478 1325.7 L111.478 1329.63 L91.5706 1329.63 L91.5706 1325.7 Z" fill="#000000" fill-rule="nonzero" fill-opacity="1" /><path clip-path="url(#clip070)" d="M120.922 1323.75 L125.807 1323.75 L125.807 1329.63 L120.922 1329.63 L120.922 1323.75 Z" fill="#000000" fill-rule="nonzero" fill-opacity="1" /><path clip-path="url(#clip070)" d="M145.992 1298.15 Q142.381 1298.15 140.552 1301.72 Q138.746 1305.26 138.746 1312.39 Q138.746 1319.49 140.552 1323.06 Q142.381 1326.6 145.992 1326.6 Q149.626 1326.6 151.431 1323.06 Q153.26 1319.49 153.26 1312.39 Q153.26 1305.26 151.431 1301.72 Q149.626 1298.15 145.992 1298.15 M145.992 1294.45 Q151.802 1294.45 154.857 1299.05 Q157.936 1303.64 157.936 1312.39 Q157.936 1321.11 154.857 1325.72 Q151.802 1330.3 145.992 1330.3 Q140.181 1330.3 137.103 1325.72 Q134.047 1321.11 134.047 1312.39 Q134.047 1303.64 137.103 1299.05 Q140.181 1294.45 145.992 1294.45 Z" fill="#000000" fill-rule="nonzero" fill-opacity="1" /><path clip-path="url(#clip070)" d="M51.9875 1033.39 L81.6633 1033.39 L81.6633 1037.32 L51.9875 1037.32 L51.9875 1033.39 Z" fill="#000000" fill-rule="nonzero" fill-opacity="1" /><path clip-path="url(#clip070)" d="M101.756 1018.74 Q98.1447 1018.74 96.316 1022.3 Q94.5104 1025.84 94.5104 1032.97 Q94.5104 1040.08 96.316 1043.64 Q98.1447 1047.18 101.756 1047.18 Q105.39 1047.18 107.196 1043.64 Q109.024 1040.08 109.024 1032.97 Q109.024 1025.84 107.196 1022.3 Q105.39 1018.74 101.756 1018.74 M101.756 1015.03 Q107.566 1015.03 110.621 1019.64 Q113.7 1024.22 113.7 1032.97 Q113.7 1041.7 110.621 1046.3 Q107.566 1050.89 101.756 1050.89 Q95.9456 1050.89 92.8669 1046.3 Q89.8114 1041.7 89.8114 1032.97 Q89.8114 1024.22 92.8669 1019.64 Q95.9456 1015.03 101.756 1015.03 Z" fill="#000000" fill-rule="nonzero" fill-opacity="1" /><path clip-path="url(#clip070)" d="M121.918 1044.34 L126.802 1044.34 L126.802 1050.22 L121.918 1050.22 L121.918 1044.34 Z" fill="#000000" fill-rule="nonzero" fill-opacity="1" /><path clip-path="url(#clip070)" d="M137.033 1015.66 L155.39 1015.66 L155.39 1019.59 L141.316 1019.59 L141.316 1028.06 Q142.334 1027.72 143.353 1027.55 Q144.371 1027.37 145.39 1027.37 Q151.177 1027.37 154.556 1030.54 Q157.936 1033.71 157.936 1039.13 Q157.936 1044.71 154.464 1047.81 Q150.992 1050.89 144.672 1050.89 Q142.496 1050.89 140.228 1050.52 Q137.982 1050.15 135.575 1049.41 L135.575 1044.71 Q137.658 1045.84 139.881 1046.4 Q142.103 1046.95 144.58 1046.95 Q148.584 1046.95 150.922 1044.85 Q153.26 1042.74 153.26 1039.13 Q153.26 1035.52 150.922 1033.41 Q148.584 1031.3 144.58 1031.3 Q142.705 1031.3 140.83 1031.72 Q138.978 1032.14 137.033 1033.02 L137.033 1015.66 Z" fill="#000000" fill-rule="nonzero" fill-opacity="1" /><path clip-path="url(#clip070)" d="M100.76 739.319 Q97.1493 739.319 95.3206 742.884 Q93.515 746.426 93.515 753.556 Q93.515 760.662 95.3206 764.227 Q97.1493 767.768 100.76 767.768 Q104.395 767.768 106.2 764.227 Q108.029 760.662 108.029 753.556 Q108.029 746.426 106.2 742.884 Q104.395 739.319 100.76 739.319 M100.76 735.616 Q106.571 735.616 109.626 740.222 Q112.705 744.806 112.705 753.556 Q112.705 762.282 109.626 766.889 Q106.571 771.472 100.76 771.472 Q94.9502 771.472 91.8715 766.889 Q88.816 762.282 88.816 753.556 Q88.816 744.806 91.8715 740.222 Q94.9502 735.616 100.76 735.616 Z" fill="#000000" fill-rule="nonzero" fill-opacity="1" /><path clip-path="url(#clip070)" d="M120.922 764.921 L125.807 764.921 L125.807 770.801 L120.922 770.801 L120.922 764.921 Z" fill="#000000" fill-rule="nonzero" fill-opacity="1" /><path clip-path="url(#clip070)" d="M145.992 739.319 Q142.381 739.319 140.552 742.884 Q138.746 746.426 138.746 753.556 Q138.746 760.662 140.552 764.227 Q142.381 767.768 145.992 767.768 Q149.626 767.768 151.431 764.227 Q153.26 760.662 153.26 753.556 Q153.26 746.426 151.431 742.884 Q149.626 739.319 145.992 739.319 M145.992 735.616 Q151.802 735.616 154.857 740.222 Q157.936 744.806 157.936 753.556 Q157.936 762.282 154.857 766.889 Q151.802 771.472 145.992 771.472 Q140.181 771.472 137.103 766.889 Q134.047 762.282 134.047 753.556 Q134.047 744.806 137.103 740.222 Q140.181 735.616 145.992 735.616 Z" fill="#000000" fill-rule="nonzero" fill-opacity="1" /><path clip-path="url(#clip070)" d="M101.756 459.904 Q98.1447 459.904 96.316 463.469 Q94.5104 467.01 94.5104 474.14 Q94.5104 481.246 96.316 484.811 Q98.1447 488.353 101.756 488.353 Q105.39 488.353 107.196 484.811 Q109.024 481.246 109.024 474.14 Q109.024 467.01 107.196 463.469 Q105.39 459.904 101.756 459.904 M101.756 456.2 Q107.566 456.2 110.621 460.807 Q113.7 465.39 113.7 474.14 Q113.7 482.867 110.621 487.473 Q107.566 492.056 101.756 492.056 Q95.9456 492.056 92.8669 487.473 Q89.8114 482.867 89.8114 474.14 Q89.8114 465.39 92.8669 460.807 Q95.9456 456.2 101.756 456.2 Z" fill="#000000" fill-rule="nonzero" fill-opacity="1" /><path clip-path="url(#clip070)" d="M121.918 485.506 L126.802 485.506 L126.802 491.385 L121.918 491.385 L121.918 485.506 Z" fill="#000000" fill-rule="nonzero" fill-opacity="1" /><path clip-path="url(#clip070)" d="M137.033 456.825 L155.39 456.825 L155.39 460.76 L141.316 460.76 L141.316 469.233 Q142.334 468.885 143.353 468.723 Q144.371 468.538 145.39 468.538 Q151.177 468.538 154.556 471.709 Q157.936 474.881 157.936 480.297 Q157.936 485.876 154.464 488.978 Q150.992 492.056 144.672 492.056 Q142.496 492.056 140.228 491.686 Q137.982 491.316 135.575 490.575 L135.575 485.876 Q137.658 487.01 139.881 487.566 Q142.103 488.121 144.58 488.121 Q148.584 488.121 150.922 486.015 Q153.26 483.908 153.26 480.297 Q153.26 476.686 150.922 474.58 Q148.584 472.473 144.58 472.473 Q142.705 472.473 140.83 472.89 Q138.978 473.307 137.033 474.186 L137.033 456.825 Z" fill="#000000" fill-rule="nonzero" fill-opacity="1" /><path clip-path="url(#clip070)" d="M91.5706 208.034 L99.2095 208.034 L99.2095 181.669 L90.8993 183.335 L90.8993 179.076 L99.1632 177.41 L103.839 177.41 L103.839 208.034 L111.478 208.034 L111.478 211.97 L91.5706 211.97 L91.5706 208.034 Z" fill="#000000" fill-rule="nonzero" fill-opacity="1" /><path clip-path="url(#clip070)" d="M120.922 206.09 L125.807 206.09 L125.807 211.97 L120.922 211.97 L120.922 206.09 Z" fill="#000000" fill-rule="nonzero" fill-opacity="1" /><path clip-path="url(#clip070)" d="M145.992 180.488 Q142.381 180.488 140.552 184.053 Q138.746 187.595 138.746 194.724 Q138.746 201.831 140.552 205.396 Q142.381 208.937 145.992 208.937 Q149.626 208.937 151.431 205.396 Q153.26 201.831 153.26 194.724 Q153.26 187.595 151.431 184.053 Q149.626 180.488 145.992 180.488 M145.992 176.785 Q151.802 176.785 154.857 181.391 Q157.936 185.974 157.936 194.724 Q157.936 203.451 154.857 208.058 Q151.802 212.641 145.992 212.641 Q140.181 212.641 137.103 208.058 Q134.047 203.451 134.047 194.724 Q134.047 185.974 137.103 181.391 Q140.181 176.785 145.992 176.785 Z" fill="#000000" fill-rule="nonzero" fill-opacity="1" /><polyline clip-path="url(#clip072)" style="stroke:#009af9; stroke-linecap:round; stroke-linejoin:round; stroke-width:4; stroke-opacity:1; fill:none" points="255.035,753.521 258.278,747.933 261.521,742.345 264.764,736.758 268.007,731.174 271.25,725.591 274.493,720.011 277.736,714.435 280.979,708.862 284.222,703.294 287.465,697.731 290.708,692.173 293.951,686.622 297.194,681.077 300.437,675.54 303.68,670.01 306.923,664.489 310.166,658.976 313.409,653.473 316.652,647.981 319.895,642.498 323.138,637.027 326.381,631.567 329.624,626.12 332.867,620.685 336.11,615.264 339.353,609.856 342.596,604.463 345.84,599.085 349.083,593.722 352.326,588.375 355.569,583.045 358.812,577.731 362.055,572.435 365.298,567.158 368.541,561.899 371.784,556.659 375.027,551.439 378.27,546.239 381.513,541.06 384.756,535.902 387.999,530.765 391.242,525.652 394.485,520.56 397.728,515.493 400.971,510.448 404.214,505.429 407.457,500.434 410.7,495.464 413.943,490.52 417.186,485.603 420.429,480.712 423.672,475.849 426.915,471.013 430.158,466.206 433.401,461.427 436.644,456.677 439.887,451.958 443.13,447.268 446.373,442.609 449.616,437.981 452.859,433.385 456.103,428.82 459.346,424.288 462.589,419.789 465.832,415.324 469.075,410.892 472.318,406.494 475.561,402.132 478.804,397.804 482.047,393.512 485.29,389.256 488.533,385.036 491.776,380.853 495.019,376.708 498.262,372.6 501.505,368.53 504.748,364.499 507.991,360.506 511.234,356.553 514.477,352.64 517.72,348.766 520.963,344.934 524.206,341.142 527.449,337.391 530.692,333.682 533.935,330.015 537.178,326.39 540.421,322.808 543.664,319.269 546.907,315.773 550.15,312.321 553.393,308.914 556.636,305.551 559.879,302.232 563.122,298.959 566.366,295.731 569.609,292.549 572.852,289.413 576.095,286.323 579.338,283.281 582.581,280.285 585.824,277.336 589.067,274.435 592.31,271.582 595.553,268.778 598.796,266.021 602.039,263.314 605.282,260.655 608.525,258.046 611.768,255.486 615.011,252.976 618.254,250.517 621.497,248.107 624.74,245.748 627.983,243.44 631.226,241.183 634.469,238.977 637.712,236.822 640.955,234.719 644.198,232.668 647.441,230.669 650.684,228.723 653.927,226.829 657.17,224.987 660.413,223.199 663.656,221.463 666.899,219.781 670.142,218.152 673.385,216.576 676.629,215.054 679.872,213.586 683.115,212.173 686.358,210.813 689.601,209.507 692.844,208.256 696.087,207.06 699.33,205.918 702.573,204.83 705.816,203.798 709.059,202.821 712.302,201.898 715.545,201.031 718.788,200.219 722.031,199.463 725.274,198.762 728.517,198.116 731.76,197.526 735.003,196.991 738.246,196.513 741.489,196.089 744.732,195.722 747.975,195.41 751.218,195.155 754.461,194.955 757.704,194.81 760.947,194.722 764.19,194.69 767.433,194.713 770.676,194.793 773.919,194.928 777.162,195.119 780.405,195.366 783.648,195.669 786.892,196.027 790.135,196.441 793.378,196.911 796.621,197.437 799.864,198.018 803.107,198.655 806.35,199.348 809.593,200.095 812.836,200.898 816.079,201.757 819.322,202.67 822.565,203.639 825.808,204.662 829.051,205.741 832.294,206.874 835.537,208.062 838.78,209.304 842.023,210.601 845.266,211.952 848.509,213.358 851.752,214.817 854.995,216.33 858.238,217.897 861.481,219.518 864.724,221.191 867.967,222.919 871.21,224.699 874.453,226.532 877.696,228.418 880.939,230.356 884.182,232.346 887.425,234.389 890.668,236.484 893.911,238.63 897.155,240.828 900.398,243.077 903.641,245.377 906.884,247.728 910.127,250.129 913.37,252.581 916.613,255.083 919.856,257.635 923.099,260.236 926.342,262.887 929.585,265.587 932.828,268.335 936.071,271.132 939.314,273.978 942.557,276.871 945.8,279.812 949.043,282.8 952.286,285.836 955.529,288.918 958.772,292.046 962.015,295.221 965.258,298.442 968.501,301.708 971.744,305.019 974.987,308.375 978.23,311.776 981.473,315.221 984.716,318.709 987.959,322.241 991.202,325.817 994.445,329.435 997.688,333.095 1000.93,336.797 1004.17,340.542 1007.42,344.327 1010.66,348.153 1013.9,352.02 1017.15,355.927 1020.39,359.874 1023.63,363.86 1026.88,367.885 1030.12,371.949 1033.36,376.051 1036.6,380.19 1039.85,384.367 1043.09,388.581 1046.33,392.832 1049.58,397.118 1052.82,401.44 1056.06,405.797 1059.31,410.189 1062.55,414.616 1065.79,419.076 1069.04,423.57 1072.28,428.096 1075.52,432.655 1078.76,437.247 1082.01,441.87 1085.25,446.524 1088.49,451.209 1091.74,455.924 1094.98,460.668 1098.22,465.443 1101.47,470.245 1104.71,475.077 1107.95,479.936 1111.19,484.822 1114.44,489.735 1117.68,494.675 1120.92,499.641 1124.17,504.632 1127.41,509.647 1130.65,514.688 1133.9,519.752 1137.14,524.839 1140.38,529.949 1143.62,535.082 1146.87,540.237 1150.11,545.413 1153.35,550.609 1156.6,555.826 1159.84,561.063 1163.08,566.319 1166.33,571.594 1169.57,576.887 1172.81,582.197 1176.06,587.525 1179.3,592.869 1182.54,598.229 1185.78,603.605 1189.03,608.996 1192.27,614.402 1195.51,619.821 1198.76,625.253 1202,630.699 1205.24,636.157 1208.49,641.626 1211.73,647.107 1214.97,652.598 1218.21,658.099 1221.46,663.61 1224.7,669.13 1227.94,674.659 1231.19,680.195 1234.43,685.738 1237.67,691.289 1240.92,696.845 1244.16,702.408 1247.4,707.975 1250.64,713.547 1253.89,719.123 1257.13,724.702 1260.37,730.284 1263.62,735.869 1266.86,741.455 1270.1,747.043 1273.35,752.631 1276.59,758.219 1279.83,763.807 1283.08,769.394 1286.32,774.979 1289.56,780.562 1292.8,786.142 1296.05,791.719 1299.29,797.292 1302.53,802.861 1305.78,808.425 1309.02,813.984 1312.26,819.536 1315.51,825.082 1318.75,830.62 1321.99,836.151 1325.23,841.674 1328.48,847.188 1331.72,852.692 1334.96,858.187 1338.21,863.671 1341.45,869.144 1344.69,874.606 1347.94,880.055 1351.18,885.492 1354.42,890.915 1357.66,896.325 1360.91,901.721 1364.15,907.101 1367.39,912.467 1370.64,917.816 1373.88,923.149 1377.12,928.465 1380.37,933.764 1383.61,939.045 1386.85,944.307 1390.1,949.549 1393.34,954.773 1396.58,959.976 1399.82,965.159 1403.07,970.32 1406.31,975.46 1409.55,980.577 1412.8,985.672 1416.04,990.744 1419.28,995.791 1422.53,1000.82 1425.77,1005.81 1429.01,1010.79 1432.25,1015.74 1435.5,1020.66 1438.74,1025.55 1441.98,1030.42 1445.23,1035.26 1448.47,1040.07 1451.71,1044.86 1454.96,1049.61 1458.2,1054.33 1461.44,1059.03 1464.68,1063.69 1467.93,1068.33 1471.17,1072.93 1474.41,1077.5 1477.66,1082.03 1480.9,1086.54 1484.14,1091.01 1487.39,1095.45 1490.63,1099.85 1493.87,1104.22 1497.11,1108.55 1500.36,1112.85 1503.6,1117.11 1506.84,1121.34 1510.09,1125.52 1513.33,1129.68 1516.57,1133.79 1519.82,1137.87 1523.06,1141.9 1526.3,1145.9 1529.55,1149.86 1532.79,1153.78 1536.03,1157.66 1539.27,1161.5 1542.52,1165.3 1545.76,1169.06 1549,1172.77 1552.25,1176.45 1555.49,1180.08 1558.73,1183.67 1561.98,1187.21 1565.22,1190.71 1568.46,1194.17 1571.7,1197.59 1574.95,1200.96 1578.19,1204.28 1581.43,1207.56 1584.68,1210.8 1587.92,1213.99 1591.16,1217.13 1594.41,1220.23 1597.65,1223.28 1600.89,1226.28 1604.13,1229.24 1607.38,1232.15 1610.62,1235.01 1613.86,1237.82 1617.11,1240.58 1620.35,1243.3 1623.59,1245.97 1626.84,1248.58 1630.08,1251.15 1633.32,1253.67 1636.57,1256.14 1639.81,1258.55 1643.05,1260.92 1646.29,1263.24 1649.54,1265.5 1652.78,1267.72 1656.02,1269.88 1659.27,1271.99 1662.51,1274.05 1665.75,1276.06 1669,1278.01 1672.24,1279.91 1675.48,1281.76 1678.72,1283.56 1681.97,1285.31 1685.21,1287 1688.45,1288.63 1691.7,1290.22 1694.94,1291.75 1698.18,1293.22 1701.43,1294.65 1704.67,1296.02 1707.91,1297.33 1711.15,1298.59 1714.4,1299.8 1717.64,1300.95 1720.88,1302.04 1724.13,1303.08 1727.37,1304.07 1730.61,1305 1733.86,1305.88 1737.1,1306.7 1740.34,1307.46 1743.59,1308.17 1746.83,1308.83 1750.07,1309.43 1753.31,1309.97 1756.56,1310.46 1759.8,1310.89 1763.04,1311.26 1766.29,1311.59 1769.53,1311.85 1772.77,1312.06 1776.02,1312.21 1779.26,1312.31 1782.5,1312.35 1785.74,1312.34 1788.99,1312.27 1792.23,1312.14 1795.47,1311.96 1798.72,1311.72 1801.96,1311.42 1805.2,1311.08 1808.45,1310.67 1811.69,1310.21 1814.93,1309.69 1818.17,1309.12 1821.42,1308.49 1824.66,1307.81 1827.9,1307.07 1831.15,1306.27 1834.39,1305.43 1837.63,1304.52 1840.88,1303.56 1844.12,1302.55 1847.36,1301.48 1850.61,1300.35 1853.85,1299.17 1857.09,1297.94 1860.33,1296.65 1863.58,1295.31 1866.82,1293.91 1870.06,1292.46 1873.31,1290.96 1876.55,1289.4 1879.79,1287.79 1883.04,1286.12 1886.28,1284.4 1889.52,1282.63 1892.76,1280.81 1896.01,1278.93 1899.25,1277 1902.49,1275.02 1905.74,1272.98 1908.98,1270.89 1912.22,1268.76 1915.47,1266.57 1918.71,1264.33 1921.95,1262.03 1925.19,1259.69 1928.44,1257.3 1931.68,1254.85 1934.92,1252.36 1938.17,1249.82 1941.41,1247.22 1944.65,1244.58 1947.9,1241.89 1951.14,1239.15 1954.38,1236.36 1957.63,1233.52 1960.87,1230.63 1964.11,1227.7 1967.35,1224.72 1970.6,1221.69 1973.84,1218.62 1977.08,1215.5 1980.33,1212.33 1983.57,1209.12 1986.81,1205.86 1990.06,1202.55 1993.3,1199.2 1996.54,1195.81 1999.78,1192.37 2003.03,1188.89 2006.27,1185.37 2009.51,1181.8 2012.76,1178.19 2016,1174.53 2019.24,1170.84 2022.49,1167.1 2025.73,1163.32 2028.97,1159.5 2032.21,1155.64 2035.46,1151.74 2038.7,1147.8 2041.94,1143.82 2045.19,1139.8 2048.43,1135.74 2051.67,1131.65 2054.92,1127.51 2058.16,1123.34 2061.4,1119.13 2064.65,1114.89 2067.89,1110.61 2071.13,1106.29 2074.37,1101.94 2077.62,1097.55 2080.86,1093.13 2084.1,1088.68 2087.35,1084.19 2090.59,1079.67 2093.83,1075.11 2097.08,1070.53 2100.32,1065.91 2103.56,1061.26 2106.8,1056.58 2110.05,1051.87 2113.29,1047.13 2116.53,1042.36 2119.78,1037.56 2123.02,1032.74 2126.26,1027.88 2129.51,1023 2132.75,1018.09 2135.99,1013.16 2139.23,1008.19 2142.48,1003.21 2145.72,998.195 2148.96,993.158 2152.21,988.098 2155.45,983.014 2158.69,977.908 2161.94,972.778 2165.18,967.627 2168.42,962.455 2171.67,957.261 2174.91,952.048 2178.15,946.814 2181.39,941.561 2184.64,936.289 2187.88,930.999 2191.12,925.691 2194.37,920.366 2197.61,915.025 2200.85,909.667 2204.1,904.293 2207.34,898.905 2210.58,893.502 2213.82,888.085 2217.07,882.654 2220.31,877.211 2223.55,871.755 2226.8,866.287 2230.04,860.809 2233.28,855.319 2236.53,849.819 2239.77,844.31 2243.01,838.791 2246.25,833.264 2249.5,827.729 2252.74,822.187 2255.98,816.637 2259.23,811.082 2262.47,805.52 2265.71,799.954 2268.96,794.383 2272.2,788.807 2275.44,783.228 2278.69,777.647 2281.93,772.062 2285.17,766.476 2288.41,760.889 2291.66,755.301 "/>
<circle clip-path="url(#clip072)" cx="527.449" cy="355.95" r="14.4" fill="#e26f46" fill-rule="evenodd" fill-opacity="1" stroke="#000000" stroke-opacity="1" stroke-width="3.2"/>
<circle clip-path="url(#clip072)" cx="1555.49" cy="1269.17" r="14.4" fill="#e26f46" fill-rule="evenodd" fill-opacity="1" stroke="#000000" stroke-opacity="1" stroke-width="3.2"/>
<circle clip-path="url(#clip072)" cx="1467.93" cy="1206.41" r="14.4" fill="#e26f46" fill-rule="evenodd" fill-opacity="1" stroke="#000000" stroke-opacity="1" stroke-width="3.2"/>
<circle clip-path="url(#clip072)" cx="1156.6" cy="487.199" r="14.4" fill="#e26f46" fill-rule="evenodd" fill-opacity="1" stroke="#000000" stroke-opacity="1" stroke-width="3.2"/>
<circle clip-path="url(#clip072)" cx="1973.84" cy="1226.88" r="14.4" fill="#e26f46" fill-rule="evenodd" fill-opacity="1" stroke="#000000" stroke-opacity="1" stroke-width="3.2"/>
<circle clip-path="url(#clip072)" cx="897.155" cy="246.726" r="14.4" fill="#e26f46" fill-rule="evenodd" fill-opacity="1" stroke="#000000" stroke-opacity="1" stroke-width="3.2"/>
<circle clip-path="url(#clip072)" cx="1133.9" cy="394.196" r="14.4" fill="#e26f46" fill-rule="evenodd" fill-opacity="1" stroke="#000000" stroke-opacity="1" stroke-width="3.2"/>
<circle clip-path="url(#clip072)" cx="1062.55" cy="441.787" r="14.4" fill="#e26f46" fill-rule="evenodd" fill-opacity="1" stroke="#000000" stroke-opacity="1" stroke-width="3.2"/>
<circle clip-path="url(#clip072)" cx="365.298" cy="549.656" r="14.4" fill="#e26f46" fill-rule="evenodd" fill-opacity="1" stroke="#000000" stroke-opacity="1" stroke-width="3.2"/>
<circle clip-path="url(#clip072)" cx="812.836" cy="187.444" r="14.4" fill="#e26f46" fill-rule="evenodd" fill-opacity="1" stroke="#000000" stroke-opacity="1" stroke-width="3.2"/>
<circle clip-path="url(#clip072)" cx="1785.74" cy="1392.35" r="14.4" fill="#e26f46" fill-rule="evenodd" fill-opacity="1" stroke="#000000" stroke-opacity="1" stroke-width="3.2"/>
<circle clip-path="url(#clip072)" cx="1776.02" cy="1445.72" r="14.4" fill="#e26f46" fill-rule="evenodd" fill-opacity="1" stroke="#000000" stroke-opacity="1" stroke-width="3.2"/>
<circle clip-path="url(#clip072)" cx="1202" cy="649.17" r="14.4" fill="#e26f46" fill-rule="evenodd" fill-opacity="1" stroke="#000000" stroke-opacity="1" stroke-width="3.2"/>
<circle clip-path="url(#clip072)" cx="1098.22" cy="402.195" r="14.4" fill="#e26f46" fill-rule="evenodd" fill-opacity="1" stroke="#000000" stroke-opacity="1" stroke-width="3.2"/>
<circle clip-path="url(#clip072)" cx="2223.55" cy="888.036" r="14.4" fill="#e26f46" fill-rule="evenodd" fill-opacity="1" stroke="#000000" stroke-opacity="1" stroke-width="3.2"/>
<circle clip-path="url(#clip072)" cx="1412.8" cy="1003.02" r="14.4" fill="#e26f46" fill-rule="evenodd" fill-opacity="1" stroke="#000000" stroke-opacity="1" stroke-width="3.2"/>
<circle clip-path="url(#clip072)" cx="832.294" cy="87.9763" r="14.4" fill="#e26f46" fill-rule="evenodd" fill-opacity="1" stroke="#000000" stroke-opacity="1" stroke-width="3.2"/>
<circle clip-path="url(#clip072)" cx="1870.06" cy="1402.69" r="14.4" fill="#e26f46" fill-rule="evenodd" fill-opacity="1" stroke="#000000" stroke-opacity="1" stroke-width="3.2"/>
<circle clip-path="url(#clip072)" cx="1853.85" cy="1331.42" r="14.4" fill="#e26f46" fill-rule="evenodd" fill-opacity="1" stroke="#000000" stroke-opacity="1" stroke-width="3.2"/>
<circle clip-path="url(#clip072)" cx="1159.84" cy="518.964" r="14.4" fill="#e26f46" fill-rule="evenodd" fill-opacity="1" stroke="#000000" stroke-opacity="1" stroke-width="3.2"/>
<path clip-path="url(#clip070)" d="M1953.46 250.738 L2280.8 250.738 L2280.8 95.2176 L1953.46 95.2176  Z" fill="#ffffff" fill-rule="evenodd" fill-opacity="1"/>
<polyline clip-path="url(#clip070)" style="stroke:#000000; stroke-linecap:round; stroke-linejoin:round; stroke-width:4; stroke-opacity:1; fill:none" points="1953.46,250.738 2280.8,250.738 2280.8,95.2176 1953.46,95.2176 1953.46,250.738 "/>
<polyline clip-path="url(#clip070)" style="stroke:#009af9; stroke-linecap:round; stroke-linejoin:round; stroke-width:4; stroke-opacity:1; fill:none" points="1977.44,147.058 2121.36,147.058 "/>
<path clip-path="url(#clip070)" d="M2152.76 131.051 L2152.76 138.412 L2161.53 138.412 L2161.53 141.722 L2152.76 141.722 L2152.76 155.796 Q2152.76 158.967 2153.61 159.87 Q2154.49 160.773 2157.16 160.773 L2161.53 160.773 L2161.53 164.338 L2157.16 164.338 Q2152.23 164.338 2150.35 162.509 Q2148.48 160.657 2148.48 155.796 L2148.48 141.722 L2145.35 141.722 L2145.35 138.412 L2148.48 138.412 L2148.48 131.051 L2152.76 131.051 Z" fill="#000000" fill-rule="nonzero" fill-opacity="1" /><path clip-path="url(#clip070)" d="M2182.16 142.393 Q2181.44 141.977 2180.58 141.791 Q2179.75 141.583 2178.73 141.583 Q2175.12 141.583 2173.17 143.944 Q2171.25 146.282 2171.25 150.68 L2171.25 164.338 L2166.97 164.338 L2166.97 138.412 L2171.25 138.412 L2171.25 142.44 Q2172.6 140.078 2174.75 138.944 Q2176.9 137.787 2179.98 137.787 Q2180.42 137.787 2180.95 137.856 Q2181.48 137.903 2182.13 138.018 L2182.16 142.393 Z" fill="#000000" fill-rule="nonzero" fill-opacity="1" /><path clip-path="url(#clip070)" d="M2186.18 154.106 L2186.18 138.412 L2190.44 138.412 L2190.44 153.944 Q2190.44 157.625 2191.88 159.476 Q2193.31 161.305 2196.18 161.305 Q2199.63 161.305 2201.62 159.106 Q2203.64 156.907 2203.64 153.111 L2203.64 138.412 L2207.9 138.412 L2207.9 164.338 L2203.64 164.338 L2203.64 160.356 Q2202.09 162.717 2200.03 163.875 Q2197.99 165.009 2195.28 165.009 Q2190.81 165.009 2188.5 162.231 Q2186.18 159.453 2186.18 154.106 M2196.9 137.787 L2196.9 137.787 Z" fill="#000000" fill-rule="nonzero" fill-opacity="1" /><path clip-path="url(#clip070)" d="M2220.88 131.051 L2220.88 138.412 L2229.66 138.412 L2229.66 141.722 L2220.88 141.722 L2220.88 155.796 Q2220.88 158.967 2221.74 159.87 Q2222.62 160.773 2225.28 160.773 L2229.66 160.773 L2229.66 164.338 L2225.28 164.338 Q2220.35 164.338 2218.48 162.509 Q2216.6 160.657 2216.6 155.796 L2216.6 141.722 L2213.48 141.722 L2213.48 138.412 L2216.6 138.412 L2216.6 131.051 L2220.88 131.051 Z" fill="#000000" fill-rule="nonzero" fill-opacity="1" /><path clip-path="url(#clip070)" d="M2256.81 148.689 L2256.81 164.338 L2252.55 164.338 L2252.55 148.828 Q2252.55 145.148 2251.11 143.319 Q2249.68 141.49 2246.81 141.49 Q2243.36 141.49 2241.37 143.69 Q2239.38 145.889 2239.38 149.685 L2239.38 164.338 L2235.1 164.338 L2235.1 128.319 L2239.38 128.319 L2239.38 142.44 Q2240.91 140.102 2242.97 138.944 Q2245.05 137.787 2247.76 137.787 Q2252.23 137.787 2254.52 140.565 Q2256.81 143.319 2256.81 148.689 Z" fill="#000000" fill-rule="nonzero" fill-opacity="1" /><circle clip-path="url(#clip070)" cx="2049.4" cy="198.898" r="20.48" fill="#e26f46" fill-rule="evenodd" fill-opacity="1" stroke="#000000" stroke-opacity="1" stroke-width="4.55111"/>
<path clip-path="url(#clip070)" d="M2164.26 194.187 L2164.26 180.159 L2168.52 180.159 L2168.52 216.178 L2164.26 216.178 L2164.26 212.289 Q2162.92 214.603 2160.86 215.738 Q2158.82 216.849 2155.95 216.849 Q2151.25 216.849 2148.29 213.099 Q2145.35 209.349 2145.35 203.238 Q2145.35 197.127 2148.29 193.377 Q2151.25 189.627 2155.95 189.627 Q2158.82 189.627 2160.86 190.761 Q2162.92 191.872 2164.26 194.187 M2149.75 203.238 Q2149.75 207.937 2151.67 210.622 Q2153.61 213.284 2156.99 213.284 Q2160.37 213.284 2162.32 210.622 Q2164.26 207.937 2164.26 203.238 Q2164.26 198.539 2162.32 195.877 Q2160.37 193.192 2156.99 193.192 Q2153.61 193.192 2151.67 195.877 Q2149.75 198.539 2149.75 203.238 Z" fill="#000000" fill-rule="nonzero" fill-opacity="1" /><path clip-path="url(#clip070)" d="M2189.08 203.145 Q2183.92 203.145 2181.92 204.326 Q2179.93 205.506 2179.93 208.354 Q2179.93 210.622 2181.42 211.965 Q2182.92 213.284 2185.49 213.284 Q2189.03 213.284 2191.16 210.784 Q2193.31 208.261 2193.31 204.094 L2193.31 203.145 L2189.08 203.145 M2197.57 201.386 L2197.57 216.178 L2193.31 216.178 L2193.31 212.242 Q2191.85 214.603 2189.68 215.738 Q2187.5 216.849 2184.36 216.849 Q2180.37 216.849 2178.01 214.627 Q2175.67 212.381 2175.67 208.631 Q2175.67 204.256 2178.59 202.034 Q2181.53 199.812 2187.34 199.812 L2193.31 199.812 L2193.31 199.395 Q2193.31 196.455 2191.37 194.858 Q2189.45 193.238 2185.95 193.238 Q2183.73 193.238 2181.62 193.77 Q2179.52 194.303 2177.57 195.367 L2177.57 191.432 Q2179.91 190.53 2182.11 190.09 Q2184.31 189.627 2186.39 189.627 Q2192.02 189.627 2194.79 192.543 Q2197.57 195.46 2197.57 201.386 Z" fill="#000000" fill-rule="nonzero" fill-opacity="1" /><path clip-path="url(#clip070)" d="M2210.56 182.891 L2210.56 190.252 L2219.33 190.252 L2219.33 193.562 L2210.56 193.562 L2210.56 207.636 Q2210.56 210.807 2211.42 211.71 Q2212.29 212.613 2214.96 212.613 L2219.33 212.613 L2219.33 216.178 L2214.96 216.178 Q2210.03 216.178 2208.15 214.349 Q2206.28 212.497 2206.28 207.636 L2206.28 193.562 L2203.15 193.562 L2203.15 190.252 L2206.28 190.252 L2206.28 182.891 L2210.56 182.891 Z" fill="#000000" fill-rule="nonzero" fill-opacity="1" /><path clip-path="url(#clip070)" d="M2236.72 203.145 Q2231.55 203.145 2229.56 204.326 Q2227.57 205.506 2227.57 208.354 Q2227.57 210.622 2229.05 211.965 Q2230.56 213.284 2233.13 213.284 Q2236.67 213.284 2238.8 210.784 Q2240.95 208.261 2240.95 204.094 L2240.95 203.145 L2236.72 203.145 M2245.21 201.386 L2245.21 216.178 L2240.95 216.178 L2240.95 212.242 Q2239.49 214.603 2237.32 215.738 Q2235.14 216.849 2231.99 216.849 Q2228.01 216.849 2225.65 214.627 Q2223.31 212.381 2223.31 208.631 Q2223.31 204.256 2226.23 202.034 Q2229.17 199.812 2234.98 199.812 L2240.95 199.812 L2240.95 199.395 Q2240.95 196.455 2239.01 194.858 Q2237.09 193.238 2233.59 193.238 Q2231.37 193.238 2229.26 193.77 Q2227.16 194.303 2225.21 195.367 L2225.21 191.432 Q2227.55 190.53 2229.75 190.09 Q2231.95 189.627 2234.03 189.627 Q2239.66 189.627 2242.43 192.543 Q2245.21 195.46 2245.21 201.386 Z" fill="#000000" fill-rule="nonzero" fill-opacity="1" /></svg>
