<?xml version="1.0" encoding="utf-8"?>
<svg xmlns="http://www.w3.org/2000/svg" xmlns:xlink="http://www.w3.org/1999/xlink" width="600" height="400" viewBox="0 0 2400 1600">
<defs>
  <clipPath id="clip560">
    <rect x="0" y="0" width="2400" height="1600"/>
  </clipPath>
</defs>
<path clip-path="url(#clip560)" d="M0 1600 L2400 1600 L2400 0 L0 0  Z" fill="#ffffff" fill-rule="evenodd" fill-opacity="1"/>
<defs>
  <clipPath id="clip561">
    <rect x="193" y="47" width="2160" height="1440"/>
  </clipPath>
</defs>
<path clip-path="url(#clip560)" d="M193.936 1486.45 L2352.76 1486.45 L2352.76 47.2441 L193.936 47.2441  Z" fill="#ffffff" fill-rule="evenodd" fill-opacity="1"/>
<polyline clip-path="url(#clip561)" style="stroke:#000000; stroke-linecap:round; stroke-linejoin:round; stroke-width:2; stroke-opacity:0.1; fill:none" points="255.035,1486.45 255.035,47.2441 "/>
<polyline clip-path="url(#clip561)" style="stroke:#000000; stroke-linecap:round; stroke-linejoin:round; stroke-width:2; stroke-opacity:0.1; fill:none" points="579.338,1486.45 579.338,47.2441 "/>
<polyline clip-path="url(#clip561)" style="stroke:#000000; stroke-linecap:round; stroke-linejoin:round; stroke-width:2; stroke-opacity:0.1; fill:none" points="903.641,1486.45 903.641,47.2441 "/>
<polyline clip-path="url(#clip561)" style="stroke:#000000; stroke-linecap:round; stroke-linejoin:round; stroke-width:2; stroke-opacity:0.1; fill:none" points="1227.94,1486.45 1227.94,47.2441 "/>
<polyline clip-path="url(#clip561)" style="stroke:#000000; stroke-linecap:round; stroke-linejoin:round; stroke-width:2; stroke-opacity:0.1; fill:none" points="1552.25,1486.45 1552.25,47.2441 "/>
<polyline clip-path="url(#clip561)" style="stroke:#000000; stroke-linecap:round; stroke-linejoin:round; stroke-width:2; stroke-opacity:0.1; fill:none" points="1876.55,1486.45 1876.55,47.2441 "/>
<polyline clip-path="url(#clip561)" style="stroke:#000000; stroke-linecap:round; stroke-linejoin:round; stroke-width:2; stroke-opacity:0.1; fill:none" points="2200.85,1486.45 2200.85,47.2441 "/>
<polyline clip-path="url(#clip561)" style="stroke:#000000; stroke-linecap:round; stroke-linejoin:round; stroke-width:2; stroke-opacity:0.1; fill:none" points="193.936,1305.23 2352.76,1305.23 "/>
<polyline clip-path="url(#clip561)" style="stroke:#000000; stroke-linecap:round; stroke-linejoin:round; stroke-width:2; stroke-opacity:0.1; fill:none" points="193.936,1043.04 2352.76,1043.04 "/>
<polyline clip-path="url(#clip561)" style="stroke:#000000; stroke-linecap:round; stroke-linejoin:round; stroke-width:2; stroke-opacity:0.1; fill:none" points="193.936,780.852 2352.76,780.852 "/>
<polyline clip-path="url(#clip561)" style="stroke:#000000; stroke-linecap:round; stroke-linejoin:round; stroke-width:2; stroke-opacity:0.1; fill:none" points="193.936,518.665 2352.76,518.665 "/>
<polyline clip-path="url(#clip561)" style="stroke:#000000; stroke-linecap:round; stroke-linejoin:round; stroke-width:2; stroke-opacity:0.1; fill:none" points="193.936,256.478 2352.76,256.478 "/>
<polyline clip-path="url(#clip560)" style="stroke:#000000; stroke-linecap:round; stroke-linejoin:round; stroke-width:4; stroke-opacity:1; fill:none" points="193.936,1486.45 2352.76,1486.45 "/>
<polyline clip-path="url(#clip560)" style="stroke:#000000; stroke-linecap:round; stroke-linejoin:round; stroke-width:4; stroke-opacity:1; fill:none" points="255.035,1486.45 255.035,1467.55 "/>
<polyline clip-path="url(#clip560)" style="stroke:#000000; stroke-linecap:round; stroke-linejoin:round; stroke-width:4; stroke-opacity:1; fill:none" points="579.338,1486.45 579.338,1467.55 "/>
<polyline clip-path="url(#clip560)" style="stroke:#000000; stroke-linecap:round; stroke-linejoin:round; stroke-width:4; stroke-opacity:1; fill:none" points="903.641,1486.45 903.641,1467.55 "/>
<polyline clip-path="url(#clip560)" style="stroke:#000000; stroke-linecap:round; stroke-linejoin:round; stroke-width:4; stroke-opacity:1; fill:none" points="1227.94,1486.45 1227.94,1467.55 "/>
<polyline clip-path="url(#clip560)" style="stroke:#000000; stroke-linecap:round; stroke-linejoin:round; stroke-width:4; stroke-opacity:1; fill:none" points="1552.25,1486.45 1552.25,1467.55 "/>
<polyline clip-path="url(#clip560)" style="stroke:#000000; stroke-linecap:round; stroke-linejoin:round; stroke-width:4; stroke-opacity:1; fill:none" points="1876.55,1486.45 1876.55,1467.55 "/>
<polyline clip-path="url(#clip560)" style="stroke:#000000; stroke-linecap:round; stroke-linejoin:round; stroke-width:4; stroke-opacity:1; fill:none" points="2200.85,1486.45 2200.85,1467.55 "/>
<path clip-path="url(#clip560)" d="M255.035 1517.37 Q251.424 1517.37 249.595 1520.93 Q247.789 1524.47 247.789 1531.6 Q247.789 1538.71 249.595 1542.27 Q251.424 1545.82 255.035 1545.82 Q258.669 1545.82 260.474 1542.27 Q262.303 1538.71 262.303 1531.6 Q262.303 1524.47 260.474 1520.93 Q258.669 1517.37 255.035 1517.37 M255.035 1513.66 Q260.845 1513.66 263.9 1518.27 Q266.979 1522.85 266.979 1531.6 Q266.979 1540.33 263.9 1544.94 Q260.845 1549.52 255.035 1549.52 Q249.225 1549.52 246.146 1544.94 Q243.09 1540.33 243.09 1531.6 Q243.09 1522.85 246.146 1518.27 Q249.225 1513.66 255.035 1513.66 Z" fill="#000000" fill-rule="nonzero" fill-opacity="1" /><path clip-path="url(#clip560)" d="M569.72 1544.91 L577.358 1544.91 L577.358 1518.55 L569.048 1520.21 L569.048 1515.95 L577.312 1514.29 L581.988 1514.29 L581.988 1544.91 L589.627 1544.91 L589.627 1548.85 L569.72 1548.85 L569.72 1544.91 Z" fill="#000000" fill-rule="nonzero" fill-opacity="1" /><path clip-path="url(#clip560)" d="M898.293 1544.91 L914.613 1544.91 L914.613 1548.85 L892.668 1548.85 L892.668 1544.91 Q895.33 1542.16 899.914 1537.53 Q904.52 1532.88 905.701 1531.53 Q907.946 1529.01 908.826 1527.27 Q909.729 1525.51 909.729 1523.82 Q909.729 1521.07 907.784 1519.33 Q905.863 1517.6 902.761 1517.6 Q900.562 1517.6 898.108 1518.36 Q895.678 1519.13 892.9 1520.68 L892.9 1515.95 Q895.724 1514.82 898.178 1514.24 Q900.631 1513.66 902.668 1513.66 Q908.039 1513.66 911.233 1516.35 Q914.428 1519.03 914.428 1523.52 Q914.428 1525.65 913.617 1527.57 Q912.83 1529.47 910.724 1532.07 Q910.145 1532.74 907.043 1535.95 Q903.942 1539.15 898.293 1544.91 Z" fill="#000000" fill-rule="nonzero" fill-opacity="1" /><path clip-path="url(#clip560)" d="M1232.19 1530.21 Q1235.55 1530.93 1237.42 1533.2 Q1239.32 1535.47 1239.32 1538.8 Q1239.32 1543.92 1235.8 1546.72 Q1232.28 1549.52 1225.8 1549.52 Q1223.63 1549.52 1221.31 1549.08 Q1219.02 1548.66 1216.57 1547.81 L1216.57 1543.29 Q1218.51 1544.43 1220.83 1545.01 Q1223.14 1545.58 1225.66 1545.58 Q1230.06 1545.58 1232.35 1543.85 Q1234.67 1542.11 1234.67 1538.8 Q1234.67 1535.75 1232.52 1534.03 Q1230.39 1532.3 1226.57 1532.3 L1222.54 1532.3 L1222.54 1528.45 L1226.75 1528.45 Q1230.2 1528.45 1232.03 1527.09 Q1233.86 1525.7 1233.86 1523.11 Q1233.86 1520.45 1231.96 1519.03 Q1230.08 1517.6 1226.57 1517.6 Q1224.64 1517.6 1222.45 1518.01 Q1220.25 1518.43 1217.61 1519.31 L1217.61 1515.14 Q1220.27 1514.4 1222.58 1514.03 Q1224.92 1513.66 1226.98 1513.66 Q1232.31 1513.66 1235.41 1516.09 Q1238.51 1518.5 1238.51 1522.62 Q1238.51 1525.49 1236.87 1527.48 Q1235.22 1529.45 1232.19 1530.21 Z" fill="#000000" fill-rule="nonzero" fill-opacity="1" /><path clip-path="url(#clip560)" d="M1555.26 1518.36 L1543.45 1536.81 L1555.26 1536.81 L1555.26 1518.36 M1554.03 1514.29 L1559.91 1514.29 L1559.91 1536.81 L1564.84 1536.81 L1564.84 1540.7 L1559.91 1540.7 L1559.91 1548.85 L1555.26 1548.85 L1555.26 1540.7 L1539.65 1540.7 L1539.65 1536.19 L1554.03 1514.29 Z" fill="#000000" fill-rule="nonzero" fill-opacity="1" /><path clip-path="url(#clip560)" d="M1866.83 1514.29 L1885.18 1514.29 L1885.18 1518.22 L1871.11 1518.22 L1871.11 1526.7 Q1872.13 1526.35 1873.15 1526.19 Q1874.17 1526 1875.18 1526 Q1880.97 1526 1884.35 1529.17 Q1887.73 1532.34 1887.73 1537.76 Q1887.73 1543.34 1884.26 1546.44 Q1880.79 1549.52 1874.47 1549.52 Q1872.29 1549.52 1870.02 1549.15 Q1867.78 1548.78 1865.37 1548.04 L1865.37 1543.34 Q1867.45 1544.47 1869.67 1545.03 Q1871.9 1545.58 1874.37 1545.58 Q1878.38 1545.58 1880.72 1543.48 Q1883.05 1541.37 1883.05 1537.76 Q1883.05 1534.15 1880.72 1532.04 Q1878.38 1529.94 1874.37 1529.94 Q1872.5 1529.94 1870.62 1530.35 Q1868.77 1530.77 1866.83 1531.65 L1866.83 1514.29 Z" fill="#000000" fill-rule="nonzero" fill-opacity="1" /><path clip-path="url(#clip560)" d="M2201.26 1529.7 Q2198.11 1529.7 2196.26 1531.86 Q2194.43 1534.01 2194.43 1537.76 Q2194.43 1541.49 2196.26 1543.66 Q2198.11 1545.82 2201.26 1545.82 Q2204.41 1545.82 2206.23 1543.66 Q2208.09 1541.49 2208.09 1537.76 Q2208.09 1534.01 2206.23 1531.86 Q2204.41 1529.7 2201.26 1529.7 M2210.54 1515.05 L2210.54 1519.31 Q2208.78 1518.48 2206.98 1518.04 Q2205.19 1517.6 2203.43 1517.6 Q2198.8 1517.6 2196.35 1520.72 Q2193.92 1523.85 2193.57 1530.17 Q2194.94 1528.15 2197 1527.09 Q2199.06 1526 2201.54 1526 Q2206.74 1526 2209.75 1529.17 Q2212.79 1532.32 2212.79 1537.76 Q2212.79 1543.08 2209.64 1546.3 Q2206.49 1549.52 2201.26 1549.52 Q2195.26 1549.52 2192.09 1544.94 Q2188.92 1540.33 2188.92 1531.6 Q2188.92 1523.41 2192.81 1518.55 Q2196.7 1513.66 2203.25 1513.66 Q2205.01 1513.66 2206.79 1514.01 Q2208.6 1514.36 2210.54 1515.05 Z" fill="#000000" fill-rule="nonzero" fill-opacity="1" /><polyline clip-path="url(#clip560)" style="stroke:#000000; stroke-linecap:round; stroke-linejoin:round; stroke-width:4; stroke-opacity:1; fill:none" points="193.936,1486.45 193.936,47.2441 "/>
<polyline clip-path="url(#clip560)" style="stroke:#000000; stroke-linecap:round; stroke-linejoin:round; stroke-width:4; stroke-opacity:1; fill:none" points="193.936,1305.23 212.834,1305.23 "/>
<polyline clip-path="url(#clip560)" style="stroke:#000000; stroke-linecap:round; stroke-linejoin:round; stroke-width:4; stroke-opacity:1; fill:none" points="193.936,1043.04 212.834,1043.04 "/>
<polyline clip-path="url(#clip560)" style="stroke:#000000; stroke-linecap:round; stroke-linejoin:round; stroke-width:4; stroke-opacity:1; fill:none" points="193.936,780.852 212.834,780.852 "/>
<polyline clip-path="url(#clip560)" style="stroke:#000000; stroke-linecap:round; stroke-linejoin:round; stroke-width:4; stroke-opacity:1; fill:none" points="193.936,518.665 212.834,518.665 "/>
<polyline clip-path="url(#clip560)" style="stroke:#000000; stroke-linecap:round; stroke-linejoin:round; stroke-width:4; stroke-opacity:1; fill:none" points="193.936,256.478 212.834,256.478 "/>
<path clip-path="url(#clip560)" d="M50.9921 1305.68 L80.6679 1305.68 L80.6679 1309.61 L50.9921 1309.61 L50.9921 1305.68 Z" fill="#000000" fill-rule="nonzero" fill-opacity="1" /><path clip-path="url(#clip560)" d="M91.5706 1318.57 L99.2095 1318.57 L99.2095 1292.21 L90.8993 1293.87 L90.8993 1289.61 L99.1632 1287.95 L103.839 1287.95 L103.839 1318.57 L111.478 1318.57 L111.478 1322.51 L91.5706 1322.51 L91.5706 1318.57 Z" fill="#000000" fill-rule="nonzero" fill-opacity="1" /><path clip-path="url(#clip560)" d="M120.922 1316.63 L125.807 1316.63 L125.807 1322.51 L120.922 1322.51 L120.922 1316.63 Z" fill="#000000" fill-rule="nonzero" fill-opacity="1" /><path clip-path="url(#clip560)" d="M145.992 1291.03 Q142.381 1291.03 140.552 1294.59 Q138.746 1298.13 138.746 1305.26 Q138.746 1312.37 140.552 1315.93 Q142.381 1319.47 145.992 1319.47 Q149.626 1319.47 151.431 1315.93 Q153.26 1312.37 153.26 1305.26 Q153.26 1298.13 151.431 1294.59 Q149.626 1291.03 145.992 1291.03 M145.992 1287.32 Q151.802 1287.32 154.857 1291.93 Q157.936 1296.51 157.936 1305.26 Q157.936 1313.99 154.857 1318.59 Q151.802 1323.18 145.992 1323.18 Q140.181 1323.18 137.103 1318.59 Q134.047 1313.99 134.047 1305.26 Q134.047 1296.51 137.103 1291.93 Q140.181 1287.32 145.992 1287.32 Z" fill="#000000" fill-rule="nonzero" fill-opacity="1" /><path clip-path="url(#clip560)" d="M51.9875 1043.49 L81.6633 1043.49 L81.6633 1047.43 L51.9875 1047.43 L51.9875 1043.49 Z" fill="#000000" fill-rule="nonzero" fill-opacity="1" /><path clip-path="url(#clip560)" d="M101.756 1028.84 Q98.1447 1028.84 96.316 1032.4 Q94.5104 1035.94 94.5104 1043.07 Q94.5104 1050.18 96.316 1053.75 Q98.1447 1057.29 101.756 1057.29 Q105.39 1057.29 107.196 1053.75 Q109.024 1050.18 109.024 1043.07 Q109.024 1035.94 107.196 1032.4 Q105.39 1028.84 101.756 1028.84 M101.756 1025.13 Q107.566 1025.13 110.621 1029.74 Q113.7 1034.32 113.7 1043.07 Q113.7 1051.8 110.621 1056.41 Q107.566 1060.99 101.756 1060.99 Q95.9456 1060.99 92.8669 1056.41 Q89.8114 1051.8 89.8114 1043.07 Q89.8114 1034.32 92.8669 1029.74 Q95.9456 1025.13 101.756 1025.13 Z" fill="#000000" fill-rule="nonzero" fill-opacity="1" /><path clip-path="url(#clip560)" d="M121.918 1054.44 L126.802 1054.44 L126.802 1060.32 L121.918 1060.32 L121.918 1054.44 Z" fill="#000000" fill-rule="nonzero" fill-opacity="1" /><path clip-path="url(#clip560)" d="M137.033 1025.76 L155.39 1025.76 L155.39 1029.69 L141.316 1029.69 L141.316 1038.17 Q142.334 1037.82 143.353 1037.66 Q144.371 1037.47 145.39 1037.47 Q151.177 1037.47 154.556 1040.64 Q157.936 1043.81 157.936 1049.23 Q157.936 1054.81 154.464 1057.91 Q150.992 1060.99 144.672 1060.99 Q142.496 1060.99 140.228 1060.62 Q137.982 1060.25 135.575 1059.51 L135.575 1054.81 Q137.658 1055.94 139.881 1056.5 Q142.103 1057.06 144.58 1057.06 Q148.584 1057.06 150.922 1054.95 Q153.26 1052.84 153.26 1049.23 Q153.26 1045.62 150.922 1043.51 Q148.584 1041.41 144.58 1041.41 Q142.705 1041.41 140.83 1041.82 Q138.978 1042.24 137.033 1043.12 L137.033 1025.76 Z" fill="#000000" fill-rule="nonzero" fill-opacity="1" /><path clip-path="url(#clip560)" d="M100.76 766.651 Q97.1493 766.651 95.3206 770.216 Q93.515 773.757 93.515 780.887 Q93.515 787.993 95.3206 791.558 Q97.1493 795.1 100.76 795.1 Q104.395 795.1 106.2 791.558 Q108.029 787.993 108.029 780.887 Q108.029 773.757 106.2 770.216 Q104.395 766.651 100.76 766.651 M100.76 762.947 Q106.571 762.947 109.626 767.554 Q112.705 772.137 112.705 780.887 Q112.705 789.614 109.626 794.22 Q106.571 798.803 100.76 798.803 Q94.9502 798.803 91.8715 794.22 Q88.816 789.614 88.816 780.887 Q88.816 772.137 91.8715 767.554 Q94.9502 762.947 100.76 762.947 Z" fill="#000000" fill-rule="nonzero" fill-opacity="1" /><path clip-path="url(#clip560)" d="M120.922 792.252 L125.807 792.252 L125.807 798.132 L120.922 798.132 L120.922 792.252 Z" fill="#000000" fill-rule="nonzero" fill-opacity="1" /><path clip-path="url(#clip560)" d="M145.992 766.651 Q142.381 766.651 140.552 770.216 Q138.746 773.757 138.746 780.887 Q138.746 787.993 140.552 791.558 Q142.381 795.1 145.992 795.1 Q149.626 795.1 151.431 791.558 Q153.26 787.993 153.26 780.887 Q153.26 773.757 151.431 770.216 Q149.626 766.651 145.992 766.651 M145.992 762.947 Q151.802 762.947 154.857 767.554 Q157.936 772.137 157.936 780.887 Q157.936 789.614 154.857 794.22 Q151.802 798.803 145.992 798.803 Q140.181 798.803 137.103 794.22 Q134.047 789.614 134.047 780.887 Q134.047 772.137 137.103 767.554 Q140.181 762.947 145.992 762.947 Z" fill="#000000" fill-rule="nonzero" fill-opacity="1" /><path clip-path="url(#clip560)" d="M101.756 504.464 Q98.1447 504.464 96.316 508.028 Q94.5104 511.57 94.5104 518.7 Q94.5104 525.806 96.316 529.371 Q98.1447 532.912 101.756 532.912 Q105.39 532.912 107.196 529.371 Q109.024 525.806 109.024 518.7 Q109.024 511.57 107.196 508.028 Q105.39 504.464 101.756 504.464 M101.756 500.76 Q107.566 500.76 110.621 505.366 Q113.7 509.95 113.7 518.7 Q113.7 527.426 110.621 532.033 Q107.566 536.616 101.756 536.616 Q95.9456 536.616 92.8669 532.033 Q89.8114 527.426 89.8114 518.7 Q89.8114 509.95 92.8669 505.366 Q95.9456 500.76 101.756 500.76 Z" fill="#000000" fill-rule="nonzero" fill-opacity="1" /><path clip-path="url(#clip560)" d="M121.918 530.065 L126.802 530.065 L126.802 535.945 L121.918 535.945 L121.918 530.065 Z" fill="#000000" fill-rule="nonzero" fill-opacity="1" /><path clip-path="url(#clip560)" d="M137.033 501.385 L155.39 501.385 L155.39 505.32 L141.316 505.32 L141.316 513.792 Q142.334 513.445 143.353 513.283 Q144.371 513.098 145.39 513.098 Q151.177 513.098 154.556 516.269 Q157.936 519.44 157.936 524.857 Q157.936 530.436 154.464 533.537 Q150.992 536.616 144.672 536.616 Q142.496 536.616 140.228 536.246 Q137.982 535.875 135.575 535.135 L135.575 530.436 Q137.658 531.57 139.881 532.125 Q142.103 532.681 144.58 532.681 Q148.584 532.681 150.922 530.575 Q153.26 528.468 153.26 524.857 Q153.26 521.246 150.922 519.139 Q148.584 517.033 144.58 517.033 Q142.705 517.033 140.83 517.45 Q138.978 517.866 137.033 518.746 L137.033 501.385 Z" fill="#000000" fill-rule="nonzero" fill-opacity="1" /><path clip-path="url(#clip560)" d="M91.5706 269.823 L99.2095 269.823 L99.2095 243.457 L90.8993 245.124 L90.8993 240.864 L99.1632 239.198 L103.839 239.198 L103.839 269.823 L111.478 269.823 L111.478 273.758 L91.5706 273.758 L91.5706 269.823 Z" fill="#000000" fill-rule="nonzero" fill-opacity="1" /><path clip-path="url(#clip560)" d="M120.922 267.878 L125.807 267.878 L125.807 273.758 L120.922 273.758 L120.922 267.878 Z" fill="#000000" fill-rule="nonzero" fill-opacity="1" /><path clip-path="url(#clip560)" d="M145.992 242.276 Q142.381 242.276 140.552 245.841 Q138.746 249.383 138.746 256.512 Q138.746 263.619 140.552 267.184 Q142.381 270.725 145.992 270.725 Q149.626 270.725 151.431 267.184 Q153.26 263.619 153.26 256.512 Q153.26 249.383 151.431 245.841 Q149.626 242.276 145.992 242.276 M145.992 238.573 Q151.802 238.573 154.857 243.179 Q157.936 247.762 157.936 256.512 Q157.936 265.239 154.857 269.846 Q151.802 274.429 145.992 274.429 Q140.181 274.429 137.103 269.846 Q134.047 265.239 134.047 256.512 Q134.047 247.762 137.103 243.179 Q140.181 238.573 145.992 238.573 Z" fill="#000000" fill-rule="nonzero" fill-opacity="1" /><polyline clip-path="url(#clip561)" style="stroke:#009af9; stroke-linecap:round; stroke-linejoin:round; stroke-width:4; stroke-opacity:1; fill:none" points="255.035,780.852 258.278,775.608 261.521,770.365 264.764,765.123 268.007,759.883 271.25,754.644 274.493,749.408 277.736,744.176 280.979,738.947 284.222,733.722 287.465,728.502 290.708,723.287 293.951,718.078 297.194,712.875 300.437,707.679 303.68,702.491 306.923,697.31 310.166,692.137 313.409,686.974 316.652,681.819 319.895,676.675 323.138,671.541 326.381,666.418 329.624,661.307 332.867,656.207 336.11,651.12 339.353,646.046 342.596,640.985 345.84,635.938 349.083,630.906 352.326,625.889 355.569,620.887 358.812,615.901 362.055,610.932 365.298,605.98 368.541,601.045 371.784,596.128 375.027,591.23 378.27,586.351 381.513,581.491 384.756,576.651 387.999,571.832 391.242,567.033 394.485,562.256 397.728,557.5 400.971,552.767 404.214,548.057 407.457,543.37 410.7,538.707 413.943,534.068 417.186,529.454 420.429,524.864 423.672,520.301 426.915,515.763 430.158,511.252 433.401,506.768 436.644,502.312 439.887,497.883 443.13,493.482 446.373,489.111 449.616,484.768 452.859,480.455 456.103,476.172 459.346,471.92 462.589,467.698 465.832,463.508 469.075,459.349 472.318,455.223 475.561,451.129 478.804,447.068 482.047,443.041 485.29,439.047 488.533,435.088 491.776,431.163 495.019,427.273 498.262,423.418 501.505,419.599 504.748,415.817 507.991,412.07 511.234,408.361 514.477,404.689 517.72,401.054 520.963,397.458 524.206,393.9 527.449,390.38 530.692,386.9 533.935,383.459 537.178,380.058 540.421,376.696 543.664,373.376 546.907,370.096 550.15,366.857 553.393,363.659 556.636,360.503 559.879,357.389 563.122,354.318 566.366,351.289 569.609,348.303 572.852,345.361 576.095,342.461 579.338,339.606 582.581,336.795 585.824,334.028 589.067,331.306 592.31,328.629 595.553,325.998 598.796,323.411 602.039,320.871 605.282,318.376 608.525,315.928 611.768,313.526 615.011,311.171 618.254,308.862 621.497,306.601 624.74,304.388 627.983,302.222 631.226,300.104 634.469,298.034 637.712,296.012 640.955,294.039 644.198,292.115 647.441,290.239 650.684,288.412 653.927,286.635 657.17,284.907 660.413,283.229 663.656,281.6 666.899,280.022 670.142,278.493 673.385,277.015 676.629,275.587 679.872,274.209 683.115,272.883 686.358,271.607 689.601,270.382 692.844,269.208 696.087,268.085 699.33,267.013 702.573,265.993 705.816,265.025 709.059,264.107 712.302,263.242 715.545,262.428 718.788,261.667 722.031,260.957 725.274,260.299 728.517,259.693 731.76,259.139 735.003,258.638 738.246,258.188 741.489,257.791 744.732,257.446 747.975,257.154 751.218,256.914 754.461,256.726 757.704,256.591 760.947,256.508 764.19,256.478 767.433,256.5 770.676,256.574 773.919,256.701 777.162,256.881 780.405,257.112 783.648,257.396 786.892,257.733 790.135,258.122 793.378,258.563 796.621,259.056 799.864,259.601 803.107,260.199 806.35,260.848 809.593,261.55 812.836,262.304 816.079,263.109 819.322,263.966 822.565,264.875 825.808,265.836 829.051,266.847 832.294,267.911 835.537,269.025 838.78,270.191 842.023,271.408 845.266,272.676 848.509,273.995 851.752,275.364 854.995,276.784 858.238,278.254 861.481,279.775 864.724,281.346 867.967,282.966 871.21,284.637 874.453,286.357 877.696,288.126 880.939,289.945 884.182,291.813 887.425,293.729 890.668,295.695 893.911,297.709 897.155,299.771 900.398,301.882 903.641,304.04 906.884,306.246 910.127,308.499 913.37,310.8 916.613,313.148 919.856,315.542 923.099,317.983 926.342,320.47 929.585,323.004 932.828,325.583 936.071,328.207 939.314,330.877 942.557,333.592 945.8,336.352 949.043,339.156 952.286,342.004 955.529,344.896 958.772,347.832 962.015,350.811 965.258,353.833 968.501,356.897 971.744,360.004 974.987,363.154 978.23,366.344 981.473,369.577 984.716,372.85 987.959,376.165 991.202,379.52 994.445,382.914 997.688,386.349 1000.93,389.823 1004.17,393.337 1007.42,396.889 1010.66,400.479 1013.9,404.108 1017.15,407.774 1020.39,411.477 1023.63,415.217 1026.88,418.994 1030.12,422.808 1033.36,426.656 1036.6,430.541 1039.85,434.46 1043.09,438.414 1046.33,442.402 1049.58,446.425 1052.82,450.48 1056.06,454.569 1059.31,458.69 1062.55,462.843 1065.79,467.029 1069.04,471.245 1072.28,475.493 1075.52,479.771 1078.76,484.079 1082.01,488.417 1085.25,492.784 1088.49,497.18 1091.74,501.604 1094.98,506.057 1098.22,510.536 1101.47,515.043 1104.71,519.576 1107.95,524.136 1111.19,528.721 1114.44,533.331 1117.68,537.966 1120.92,542.626 1124.17,547.309 1127.41,552.016 1130.65,556.745 1133.9,561.497 1137.14,566.271 1140.38,571.066 1143.62,575.882 1146.87,580.719 1150.11,585.576 1153.35,590.452 1156.6,595.347 1159.84,600.261 1163.08,605.193 1166.33,610.142 1169.57,615.109 1172.81,620.092 1176.06,625.091 1179.3,630.106 1182.54,635.136 1185.78,640.18 1189.03,645.239 1192.27,650.311 1195.51,655.396 1198.76,660.494 1202,665.603 1205.24,670.724 1208.49,675.857 1211.73,680.999 1214.97,686.152 1218.21,691.314 1221.46,696.485 1224.7,701.665 1227.94,706.852 1231.19,712.047 1234.43,717.249 1237.67,722.457 1240.92,727.671 1244.16,732.89 1247.4,738.114 1250.64,743.343 1253.89,748.575 1257.13,753.81 1260.37,759.048 1263.62,764.288 1266.86,769.53 1270.1,774.773 1273.35,780.017 1276.59,785.261 1279.83,790.504 1283.08,795.746 1286.32,800.987 1289.56,806.226 1292.8,811.462 1296.05,816.695 1299.29,821.925 1302.53,827.15 1305.78,832.371 1309.02,837.587 1312.26,842.797 1315.51,848.001 1318.75,853.198 1321.99,858.388 1325.23,863.57 1328.48,868.744 1331.72,873.909 1334.96,879.065 1338.21,884.211 1341.45,889.346 1344.69,894.471 1347.94,899.584 1351.18,904.686 1354.42,909.775 1357.66,914.851 1360.91,919.914 1364.15,924.963 1367.39,929.998 1370.64,935.017 1373.88,940.021 1377.12,945.01 1380.37,949.982 1383.61,954.937 1386.85,959.874 1390.1,964.794 1393.34,969.695 1396.58,974.577 1399.82,979.44 1403.07,984.284 1406.31,989.106 1409.55,993.908 1412.8,998.689 1416.04,1003.45 1419.28,1008.18 1422.53,1012.9 1425.77,1017.59 1429.01,1022.26 1432.25,1026.9 1435.5,1031.52 1438.74,1036.11 1441.98,1040.68 1445.23,1045.22 1448.47,1049.74 1451.71,1054.22 1454.96,1058.68 1458.2,1063.12 1461.44,1067.52 1464.68,1071.9 1467.93,1076.25 1471.17,1080.56 1474.41,1084.85 1477.66,1089.11 1480.9,1093.34 1484.14,1097.53 1487.39,1101.69 1490.63,1105.83 1493.87,1109.93 1497.11,1113.99 1500.36,1118.02 1503.6,1122.02 1506.84,1125.99 1510.09,1129.92 1513.33,1133.81 1516.57,1137.67 1519.82,1141.5 1523.06,1145.29 1526.3,1149.04 1529.55,1152.75 1532.79,1156.43 1536.03,1160.07 1539.27,1163.68 1542.52,1167.24 1545.76,1170.77 1549,1174.25 1552.25,1177.7 1555.49,1181.11 1558.73,1184.48 1561.98,1187.8 1565.22,1191.09 1568.46,1194.33 1571.7,1197.54 1574.95,1200.7 1578.19,1203.82 1581.43,1206.9 1584.68,1209.94 1587.92,1212.93 1591.16,1215.88 1594.41,1218.78 1597.65,1221.65 1600.89,1224.46 1604.13,1227.24 1607.38,1229.97 1610.62,1232.65 1613.86,1235.29 1617.11,1237.88 1620.35,1240.43 1623.59,1242.93 1626.84,1245.39 1630.08,1247.8 1633.32,1250.16 1636.57,1252.48 1639.81,1254.75 1643.05,1256.97 1646.29,1259.14 1649.54,1261.27 1652.78,1263.34 1656.02,1265.37 1659.27,1267.35 1662.51,1269.29 1665.75,1271.17 1669,1273 1672.24,1274.79 1675.48,1276.53 1678.72,1278.21 1681.97,1279.85 1685.21,1281.43 1688.45,1282.97 1691.7,1284.46 1694.94,1285.89 1698.18,1287.28 1701.43,1288.61 1704.67,1289.9 1707.91,1291.13 1711.15,1292.31 1714.4,1293.44 1717.64,1294.52 1720.88,1295.55 1724.13,1296.53 1727.37,1297.45 1730.61,1298.33 1733.86,1299.15 1737.1,1299.92 1740.34,1300.64 1743.59,1301.3 1746.83,1301.92 1750.07,1302.48 1753.31,1302.99 1756.56,1303.45 1759.8,1303.85 1763.04,1304.21 1766.29,1304.51 1769.53,1304.76 1772.77,1304.95 1776.02,1305.1 1779.26,1305.19 1782.5,1305.22 1785.74,1305.21 1788.99,1305.15 1792.23,1305.03 1795.47,1304.86 1798.72,1304.63 1801.96,1304.36 1805.2,1304.03 1808.45,1303.65 1811.69,1303.22 1814.93,1302.73 1818.17,1302.19 1821.42,1301.6 1824.66,1300.96 1827.9,1300.27 1831.15,1299.52 1834.39,1298.73 1837.63,1297.88 1840.88,1296.98 1844.12,1296.03 1847.36,1295.02 1850.61,1293.97 1853.85,1292.86 1857.09,1291.7 1860.33,1290.49 1863.58,1289.23 1866.82,1287.92 1870.06,1286.56 1873.31,1285.15 1876.55,1283.69 1879.79,1282.17 1883.04,1280.61 1886.28,1279 1889.52,1277.34 1892.76,1275.62 1896.01,1273.86 1899.25,1272.05 1902.49,1270.19 1905.74,1268.28 1908.98,1266.33 1912.22,1264.32 1915.47,1262.26 1918.71,1260.16 1921.95,1258.01 1925.19,1255.81 1928.44,1253.57 1931.68,1251.27 1934.92,1248.93 1938.17,1246.55 1941.41,1244.11 1944.65,1241.63 1947.9,1239.11 1951.14,1236.54 1954.38,1233.92 1957.63,1231.26 1960.87,1228.55 1964.11,1225.8 1967.35,1223 1970.6,1220.16 1973.84,1217.27 1977.08,1214.34 1980.33,1211.37 1983.57,1208.36 1986.81,1205.3 1990.06,1202.2 1993.3,1199.05 1996.54,1195.87 1999.78,1192.64 2003.03,1189.38 2006.27,1186.07 2009.51,1182.72 2012.76,1179.33 2016,1175.9 2019.24,1172.44 2022.49,1168.93 2025.73,1165.38 2028.97,1161.8 2032.21,1158.18 2035.46,1154.52 2038.7,1150.82 2041.94,1147.08 2045.19,1143.31 2048.43,1139.51 2051.67,1135.66 2054.92,1131.78 2058.16,1127.87 2061.4,1123.92 2064.65,1119.94 2067.89,1115.92 2071.13,1111.87 2074.37,1107.79 2077.62,1103.67 2080.86,1099.52 2084.1,1095.34 2087.35,1091.13 2090.59,1086.89 2093.83,1082.62 2097.08,1078.31 2100.32,1073.98 2103.56,1069.62 2106.8,1065.23 2110.05,1060.81 2113.29,1056.36 2116.53,1051.88 2119.78,1047.38 2123.02,1042.85 2126.26,1038.3 2129.51,1033.72 2132.75,1029.11 2135.99,1024.48 2139.23,1019.82 2142.48,1015.14 2145.72,1010.44 2148.96,1005.71 2152.21,1000.97 2155.45,996.195 2158.69,991.403 2161.94,986.59 2165.18,981.757 2168.42,976.903 2171.67,972.03 2174.91,967.138 2178.15,962.227 2181.39,957.298 2184.64,952.351 2187.88,947.387 2191.12,942.407 2194.37,937.41 2197.61,932.398 2200.85,927.37 2204.1,922.328 2207.34,917.272 2210.58,912.202 2213.82,907.119 2217.07,902.023 2220.31,896.916 2223.55,891.796 2226.8,886.666 2230.04,881.525 2233.28,876.373 2236.53,871.213 2239.77,866.043 2243.01,860.865 2246.25,855.678 2249.5,850.485 2252.74,845.284 2255.98,840.077 2259.23,834.864 2262.47,829.645 2265.71,824.422 2268.96,819.194 2272.2,813.963 2275.44,808.728 2278.69,803.49 2281.93,798.25 2285.17,793.009 2288.41,787.766 2291.66,782.522 "/>
<circle clip-path="url(#clip561)" cx="1150.11" cy="570.835" r="14.4" fill="#e26f46" fill-rule="evenodd" fill-opacity="1" stroke="#000000" stroke-opacity="1" stroke-width="3.2"/>
<circle clip-path="url(#clip561)" cx="644.198" cy="374.891" r="14.4" fill="#e26f46" fill-rule="evenodd" fill-opacity="1" stroke="#000000" stroke-opacity="1" stroke-width="3.2"/>
<circle clip-path="url(#clip561)" cx="1360.91" cy="891.374" r="14.4" fill="#e26f46" fill-rule="evenodd" fill-opacity="1" stroke="#000000" stroke-opacity="1" stroke-width="3.2"/>
<circle clip-path="url(#clip561)" cx="1393.34" cy="916.924" r="14.4" fill="#e26f46" fill-rule="evenodd" fill-opacity="1" stroke="#000000" stroke-opacity="1" stroke-width="3.2"/>
<circle clip-path="url(#clip561)" cx="867.967" cy="167.896" r="14.4" fill="#e26f46" fill-rule="evenodd" fill-opacity="1" stroke="#000000" stroke-opacity="1" stroke-width="3.2"/>
<circle clip-path="url(#clip561)" cx="1159.84" cy="534.608" r="14.4" fill="#e26f46" fill-rule="evenodd" fill-opacity="1" stroke="#000000" stroke-opacity="1" stroke-width="3.2"/>
<circle clip-path="url(#clip561)" cx="1292.8" cy="717.161" r="14.4" fill="#e26f46" fill-rule="evenodd" fill-opacity="1" stroke="#000000" stroke-opacity="1" stroke-width="3.2"/>
<circle clip-path="url(#clip561)" cx="2003.03" cy="1247.59" r="14.4" fill="#e26f46" fill-rule="evenodd" fill-opacity="1" stroke="#000000" stroke-opacity="1" stroke-width="3.2"/>
<circle clip-path="url(#clip561)" cx="1594.41" cy="1113.71" r="14.4" fill="#e26f46" fill-rule="evenodd" fill-opacity="1" stroke="#000000" stroke-opacity="1" stroke-width="3.2"/>
<circle clip-path="url(#clip561)" cx="1947.9" cy="1176.07" r="14.4" fill="#e26f46" fill-rule="evenodd" fill-opacity="1" stroke="#000000" stroke-opacity="1" stroke-width="3.2"/>
<circle clip-path="url(#clip561)" cx="436.644" cy="381.725" r="14.4" fill="#e26f46" fill-rule="evenodd" fill-opacity="1" stroke="#000000" stroke-opacity="1" stroke-width="3.2"/>
<circle clip-path="url(#clip561)" cx="439.887" cy="517.322" r="14.4" fill="#e26f46" fill-rule="evenodd" fill-opacity="1" stroke="#000000" stroke-opacity="1" stroke-width="3.2"/>
<circle clip-path="url(#clip561)" cx="897.155" cy="265.229" r="14.4" fill="#e26f46" fill-rule="evenodd" fill-opacity="1" stroke="#000000" stroke-opacity="1" stroke-width="3.2"/>
<circle clip-path="url(#clip561)" cx="1211.73" cy="806.257" r="14.4" fill="#e26f46" fill-rule="evenodd" fill-opacity="1" stroke="#000000" stroke-opacity="1" stroke-width="3.2"/>
<circle clip-path="url(#clip561)" cx="1649.54" cy="1172.83" r="14.4" fill="#e26f46" fill-rule="evenodd" fill-opacity="1" stroke="#000000" stroke-opacity="1" stroke-width="3.2"/>
<circle clip-path="url(#clip561)" cx="365.298" cy="614.769" r="14.4" fill="#e26f46" fill-rule="evenodd" fill-opacity="1" stroke="#000000" stroke-opacity="1" stroke-width="3.2"/>
<circle clip-path="url(#clip561)" cx="634.469" cy="297.64" r="14.4" fill="#e26f46" fill-rule="evenodd" fill-opacity="1" stroke="#000000" stroke-opacity="1" stroke-width="3.2"/>
<circle clip-path="url(#clip561)" cx="1947.9" cy="1296.12" r="14.4" fill="#e26f46" fill-rule="evenodd" fill-opacity="1" stroke="#000000" stroke-opacity="1" stroke-width="3.2"/>
<circle clip-path="url(#clip561)" cx="812.836" cy="239.333" r="14.4" fill="#e26f46" fill-rule="evenodd" fill-opacity="1" stroke="#000000" stroke-opacity="1" stroke-width="3.2"/>
<circle clip-path="url(#clip561)" cx="1211.73" cy="666.015" r="14.4" fill="#e26f46" fill-rule="evenodd" fill-opacity="1" stroke="#000000" stroke-opacity="1" stroke-width="3.2"/>
<path clip-path="url(#clip561)" d="M255.035 970.029 L258.278 964.633 L261.521 959.177 L264.764 953.663 L268.007 948.092 L271.25 942.466 L274.493 936.785 L277.736 931.05 L280.979 925.264 L284.222 919.429 L287.465 913.545 L290.708 907.616 L293.951 901.644 L297.194 895.631 L300.437 889.58 L303.68 883.493 L306.923 877.376 L310.166 871.23 L313.409 865.059 L316.652 858.869 L319.895 852.663 L323.138 846.447 L326.381 840.224 L329.624 834.002 L332.867 827.785 L336.11 821.581 L339.353 815.395 L342.596 809.235 L345.84 803.109 L349.083 797.024 L352.326 790.988 L355.569 785.01 L358.812 779.1 L362.055 773.265 L365.298 767.517 L368.541 761.862 L371.784 756.304 L375.027 750.846 L378.27 745.488 L381.513 740.235 L384.756 735.087 L387.999 730.049 L391.242 725.124 L394.485 720.315 L397.728 715.628 L400.971 711.066 L404.214 706.634 L407.457 702.339 L410.7 698.185 L413.943 694.181 L417.186 690.331 L420.429 686.643 L423.672 683.125 L426.915 679.784 L430.158 676.626 L433.401 673.66 L436.644 670.892 L439.887 668.327 L443.13 665.958 L446.373 663.769 L449.616 661.743 L452.859 659.865 L456.103 658.116 L459.346 656.482 L462.589 654.946 L465.832 653.493 L469.075 652.109 L472.318 650.78 L475.561 649.492 L478.804 648.233 L482.047 646.992 L485.29 645.758 L488.533 644.52 L491.776 643.269 L495.019 641.997 L498.262 640.695 L501.505 639.357 L504.748 637.975 L507.991 636.544 L511.234 635.059 L514.477 633.514 L517.72 631.906 L520.963 630.232 L524.206 628.487 L527.449 626.671 L530.692 624.78 L533.935 622.813 L537.178 620.77 L540.421 618.649 L543.664 616.452 L546.907 614.179 L550.15 611.83 L553.393 609.407 L556.636 606.913 L559.879 604.349 L563.122 601.719 L566.366 599.026 L569.609 596.274 L572.852 593.467 L576.095 590.611 L579.338 587.711 L582.581 584.772 L585.824 581.803 L589.067 578.809 L592.31 575.798 L595.553 572.778 L598.796 569.759 L602.039 566.749 L605.282 563.758 L608.525 560.795 L611.768 557.873 L615.011 555.001 L618.254 552.19 L621.497 549.453 L624.74 546.802 L627.983 544.247 L631.226 541.801 L634.469 539.477 L637.712 537.282 L640.955 535.219 L644.198 533.284 L647.441 531.476 L650.684 529.785 L653.927 528.2 L657.17 526.711 L660.413 525.305 L663.656 523.974 L666.899 522.705 L670.142 521.489 L673.385 520.316 L676.629 519.177 L679.872 518.061 L683.115 516.962 L686.358 515.87 L689.601 514.778 L692.844 513.678 L696.087 512.566 L699.33 511.434 L702.573 510.277 L705.816 509.091 L709.059 507.871 L712.302 506.613 L715.545 505.315 L718.788 503.973 L722.031 502.586 L725.274 501.152 L728.517 499.671 L731.76 498.141 L735.003 496.562 L738.246 494.936 L741.489 493.264 L744.732 491.546 L747.975 489.785 L751.218 487.984 L754.461 486.145 L757.704 484.274 L760.947 482.373 L764.19 480.448 L767.433 478.504 L770.676 476.547 L773.919 474.583 L777.162 472.62 L780.405 470.666 L783.648 468.728 L786.892 466.816 L790.135 464.938 L793.378 463.106 L796.621 461.33 L799.864 459.62 L803.107 457.99 L806.35 456.451 L809.593 455.015 L812.836 453.697 L816.079 452.509 L819.322 451.454 L822.565 450.536 L825.808 449.758 L829.051 449.126 L832.294 448.642 L835.537 448.313 L838.78 448.143 L842.023 448.14 L845.266 448.309 L848.509 448.657 L851.752 449.193 L854.995 449.924 L858.238 450.859 L861.481 452.007 L864.724 453.376 L867.967 454.976 L871.21 456.814 L874.453 458.887 L877.696 461.189 L880.939 463.715 L884.182 466.46 L887.425 469.419 L890.668 472.586 L893.911 475.958 L897.155 479.529 L900.398 483.293 L903.641 487.236 L906.884 491.344 L910.127 495.601 L913.37 499.992 L916.613 504.504 L919.856 509.123 L923.099 513.836 L926.342 518.63 L929.585 523.494 L932.828 528.415 L936.071 533.383 L939.314 538.388 L942.557 543.42 L945.8 548.469 L949.043 553.527 L952.286 558.586 L955.529 563.638 L958.772 568.676 L962.015 573.692 L965.258 578.681 L968.501 583.637 L971.744 588.553 L974.987 593.424 L978.23 598.247 L981.473 603.015 L984.716 607.725 L987.959 612.374 L991.202 616.956 L994.445 621.469 L997.688 625.91 L1000.93 630.276 L1004.17 634.565 L1007.42 638.774 L1010.66 642.9 L1013.9 646.944 L1017.15 650.901 L1020.39 654.772 L1023.63 658.555 L1026.88 662.25 L1030.12 665.855 L1033.36 669.37 L1036.6 672.794 L1039.85 676.129 L1043.09 679.373 L1046.33 682.528 L1049.58 685.594 L1052.82 688.572 L1056.06 691.463 L1059.31 694.268 L1062.55 696.99 L1065.79 699.629 L1069.04 702.189 L1072.28 704.671 L1075.52 707.08 L1078.76 709.416 L1082.01 711.685 L1085.25 713.89 L1088.49 716.036 L1091.74 718.126 L1094.98 720.166 L1098.22 722.161 L1101.47 724.117 L1104.71 726.042 L1107.95 727.94 L1111.19 729.821 L1114.44 731.692 L1117.68 733.561 L1120.92 735.438 L1124.17 737.333 L1127.41 739.255 L1130.65 741.217 L1133.9 743.229 L1137.14 745.303 L1140.38 747.454 L1143.62 749.692 L1146.87 752.034 L1150.11 754.491 L1153.35 757.078 L1156.6 759.799 L1159.84 762.661 L1163.08 765.666 L1166.33 768.809 L1169.57 772.082 L1172.81 775.48 L1176.06 778.995 L1179.3 782.621 L1182.54 786.353 L1185.78 790.185 L1189.03 794.111 L1192.27 798.129 L1195.51 802.232 L1198.76 806.419 L1202 810.686 L1205.24 815.03 L1208.49 819.449 L1211.73 823.94 L1214.97 828.5 L1218.21 833.119 L1221.46 837.786 L1224.7 842.491 L1227.94 847.223 L1231.19 851.974 L1234.43 856.733 L1237.67 861.493 L1240.92 866.247 L1244.16 870.99 L1247.4 875.715 L1250.64 880.419 L1253.89 885.098 L1257.13 889.75 L1260.37 894.374 L1263.62 898.97 L1266.86 903.537 L1270.1 908.078 L1273.35 912.595 L1276.59 917.09 L1279.83 921.568 L1283.08 926.034 L1286.32 930.492 L1289.56 934.949 L1292.8 939.411 L1296.05 943.883 L1299.29 948.364 L1302.53 952.849 L1305.78 957.336 L1309.02 961.822 L1312.26 966.305 L1315.51 970.785 L1318.75 975.26 L1321.99 979.73 L1325.23 984.196 L1328.48 988.66 L1331.72 993.123 L1334.96 997.589 L1338.21 1002.06 L1341.45 1006.54 L1344.69 1011.03 L1347.94 1015.54 L1351.18 1020.08 L1354.42 1024.64 L1357.66 1029.24 L1360.91 1033.88 L1364.15 1038.56 L1367.39 1043.29 L1370.64 1048.07 L1373.88 1052.89 L1377.12 1057.75 L1380.37 1062.66 L1383.61 1067.6 L1386.85 1072.59 L1390.1 1077.62 L1393.34 1082.69 L1396.58 1087.79 L1399.82 1092.93 L1403.07 1098.09 L1406.31 1103.26 L1409.55 1108.43 L1412.8 1113.6 L1416.04 1118.76 L1419.28 1123.9 L1422.53 1129.01 L1425.77 1134.08 L1429.01 1139.12 L1432.25 1144.1 L1435.5 1149.03 L1438.74 1153.91 L1441.98 1158.72 L1445.23 1163.46 L1448.47 1168.13 L1451.71 1172.72 L1454.96 1177.23 L1458.2 1181.65 L1461.44 1185.99 L1464.68 1190.24 L1467.93 1194.4 L1471.17 1198.46 L1474.41 1202.42 L1477.66 1206.29 L1480.9 1210.06 L1484.14 1213.73 L1487.39 1217.29 L1490.63 1220.76 L1493.87 1224.13 L1497.11 1227.39 L1500.36 1230.55 L1503.6 1233.62 L1506.84 1236.58 L1510.09 1239.45 L1513.33 1242.22 L1516.57 1244.9 L1519.82 1247.49 L1523.06 1249.99 L1526.3 1252.4 L1529.55 1254.73 L1532.79 1256.97 L1536.03 1259.15 L1539.27 1261.25 L1542.52 1263.28 L1545.76 1265.25 L1549 1267.16 L1552.25 1269.03 L1555.49 1270.84 L1558.73 1272.62 L1561.98 1274.37 L1565.22 1276.09 L1568.46 1277.8 L1571.7 1279.49 L1574.95 1281.19 L1578.19 1282.89 L1581.43 1284.61 L1584.68 1286.36 L1587.92 1288.15 L1591.16 1289.97 L1594.41 1291.86 L1597.65 1293.8 L1600.89 1295.81 L1604.13 1297.89 L1607.38 1300.03 L1610.62 1302.24 L1613.86 1304.51 L1617.11 1306.84 L1620.35 1309.24 L1623.59 1311.71 L1626.84 1314.24 L1630.08 1316.84 L1633.32 1319.51 L1636.57 1322.24 L1639.81 1325.04 L1643.05 1327.91 L1646.29 1330.84 L1649.54 1333.85 L1652.78 1336.92 L1656.02 1340.05 L1659.27 1343.23 L1662.51 1346.46 L1665.75 1349.72 L1669 1353.01 L1672.24 1356.32 L1675.48 1359.64 L1678.72 1362.96 L1681.97 1366.28 L1685.21 1369.59 L1688.45 1372.88 L1691.7 1376.14 L1694.94 1379.38 L1698.18 1382.58 L1701.43 1385.74 L1704.67 1388.86 L1707.91 1391.92 L1711.15 1394.93 L1714.4 1397.87 L1717.64 1400.76 L1720.88 1403.58 L1724.13 1406.32 L1727.37 1408.99 L1730.61 1411.59 L1733.86 1414.1 L1737.1 1416.53 L1740.34 1418.88 L1743.59 1421.14 L1746.83 1423.31 L1750.07 1425.39 L1753.31 1427.37 L1756.56 1429.26 L1759.8 1431.05 L1763.04 1432.75 L1766.29 1434.34 L1769.53 1435.84 L1772.77 1437.23 L1776.02 1438.52 L1779.26 1439.7 L1782.5 1440.78 L1785.74 1441.76 L1788.99 1442.63 L1792.23 1443.39 L1795.47 1444.05 L1798.72 1444.59 L1801.96 1445.03 L1805.2 1445.37 L1808.45 1445.59 L1811.69 1445.71 L1814.93 1445.72 L1818.17 1445.62 L1821.42 1445.41 L1824.66 1445.1 L1827.9 1444.68 L1831.15 1444.15 L1834.39 1443.52 L1837.63 1442.78 L1840.88 1441.95 L1844.12 1441.01 L1847.36 1439.97 L1850.61 1438.83 L1853.85 1437.6 L1857.09 1436.27 L1860.33 1434.85 L1863.58 1433.34 L1866.82 1431.74 L1870.06 1430.06 L1873.31 1428.31 L1876.55 1426.47 L1879.79 1424.57 L1883.04 1422.6 L1886.28 1420.57 L1889.52 1418.48 L1892.76 1416.35 L1896.01 1414.18 L1899.25 1411.97 L1902.49 1409.74 L1905.74 1407.49 L1908.98 1405.24 L1912.22 1402.99 L1915.47 1400.76 L1918.71 1398.55 L1921.95 1396.38 L1925.19 1394.27 L1928.44 1392.23 L1931.68 1390.27 L1934.92 1388.4 L1938.17 1386.65 L1941.41 1385.03 L1944.65 1383.55 L1947.9 1382.23 L1951.14 1381.08 L1954.38 1380.11 L1957.63 1379.3 L1960.87 1378.66 L1964.11 1378.18 L1967.35 1377.87 L1970.6 1377.7 L1973.84 1377.69 L1977.08 1377.82 L1980.33 1378.1 L1983.57 1378.51 L1986.81 1379.05 L1990.06 1379.72 L1993.3 1380.51 L1996.54 1381.41 L1999.78 1382.43 L2003.03 1383.56 L2006.27 1384.78 L2009.51 1386.11 L2012.76 1387.51 L2016 1388.98 L2019.24 1390.52 L2022.49 1392.11 L2025.73 1393.74 L2028.97 1395.4 L2032.21 1397.09 L2035.46 1398.8 L2038.7 1400.52 L2041.94 1402.24 L2045.19 1403.96 L2048.43 1405.68 L2051.67 1407.38 L2054.92 1409.07 L2058.16 1410.74 L2061.4 1412.39 L2064.65 1414.01 L2067.89 1415.6 L2071.13 1417.15 L2074.37 1418.68 L2077.62 1420.16 L2080.86 1421.61 L2084.1 1423.01 L2087.35 1424.38 L2090.59 1425.7 L2093.83 1426.98 L2097.08 1428.22 L2100.32 1429.41 L2103.56 1430.55 L2106.8 1431.65 L2110.05 1432.7 L2113.29 1433.71 L2116.53 1434.67 L2119.78 1435.58 L2123.02 1436.45 L2126.26 1437.27 L2129.51 1438.05 L2132.75 1438.78 L2135.99 1439.46 L2139.23 1440.1 L2142.48 1440.7 L2145.72 1441.25 L2148.96 1441.76 L2152.21 1442.23 L2155.45 1442.65 L2158.69 1443.04 L2161.94 1443.38 L2165.18 1443.69 L2168.42 1443.95 L2171.67 1444.18 L2174.91 1444.37 L2178.15 1444.52 L2181.39 1444.63 L2184.64 1444.71 L2187.88 1444.76 L2191.12 1444.77 L2194.37 1444.74 L2197.61 1444.69 L2200.85 1444.6 L2204.1 1444.48 L2207.34 1444.34 L2210.58 1444.16 L2213.82 1443.95 L2217.07 1443.72 L2220.31 1443.46 L2223.55 1443.17 L2226.8 1442.85 L2230.04 1442.51 L2233.28 1442.15 L2236.53 1441.76 L2239.77 1441.35 L2243.01 1440.92 L2246.25 1440.47 L2249.5 1440 L2252.74 1439.5 L2255.98 1438.99 L2259.23 1438.45 L2262.47 1437.9 L2265.71 1437.33 L2268.96 1436.75 L2272.2 1436.15 L2275.44 1435.53 L2278.69 1434.89 L2281.93 1434.25 L2285.17 1433.59 L2288.41 1432.91 L2291.66 1432.22 L2291.66 509.483 L2288.41 513.066 L2285.17 516.695 L2281.93 520.37 L2278.69 524.093 L2275.44 527.862 L2272.2 531.68 L2268.96 535.546 L2265.71 539.46 L2262.47 543.423 L2259.23 547.436 L2255.98 551.498 L2252.74 555.61 L2249.5 559.772 L2246.25 563.985 L2243.01 568.249 L2239.77 572.564 L2236.53 576.93 L2233.28 581.349 L2230.04 585.819 L2226.8 590.342 L2223.55 594.917 L2220.31 599.545 L2217.07 604.225 L2213.82 608.959 L2210.58 613.746 L2207.34 618.586 L2204.1 623.479 L2200.85 628.426 L2197.61 633.426 L2194.37 638.48 L2191.12 643.587 L2187.88 648.747 L2184.64 653.961 L2181.39 659.228 L2178.15 664.547 L2174.91 669.919 L2171.67 675.344 L2168.42 680.821 L2165.18 686.349 L2161.94 691.929 L2158.69 697.559 L2155.45 703.24 L2152.21 708.97 L2148.96 714.749 L2145.72 720.576 L2142.48 726.451 L2139.23 732.372 L2135.99 738.338 L2132.75 744.348 L2129.51 750.402 L2126.26 756.497 L2123.02 762.633 L2119.78 768.807 L2116.53 775.019 L2113.29 781.265 L2110.05 787.545 L2106.8 793.856 L2103.56 800.196 L2100.32 806.563 L2097.08 812.953 L2093.83 819.364 L2090.59 825.793 L2087.35 832.236 L2084.1 838.69 L2080.86 845.152 L2077.62 851.616 L2074.37 858.079 L2071.13 864.536 L2067.89 870.982 L2064.65 877.411 L2061.4 883.818 L2058.16 890.197 L2054.92 896.54 L2051.67 902.84 L2048.43 909.09 L2045.19 915.282 L2041.94 921.407 L2038.7 927.455 L2035.46 933.417 L2032.21 939.282 L2028.97 945.039 L2025.73 950.676 L2022.49 956.18 L2019.24 961.539 L2016 966.737 L2012.76 971.761 L2009.51 976.595 L2006.27 981.224 L2003.03 985.631 L1999.78 989.802 L1996.54 993.732 L1993.3 997.416 L1990.06 1000.85 L1986.81 1004.03 L1983.57 1006.96 L1980.33 1009.62 L1977.08 1012.01 L1973.84 1014.14 L1970.6 1015.98 L1967.35 1017.54 L1964.11 1018.81 L1960.87 1019.79 L1957.63 1020.47 L1954.38 1020.85 L1951.14 1020.92 L1947.9 1020.68 L1944.65 1020.14 L1941.41 1019.29 L1938.17 1018.18 L1934.92 1016.81 L1931.68 1015.2 L1928.44 1013.39 L1925.19 1011.38 L1921.95 1009.2 L1918.71 1006.87 L1915.47 1004.39 L1912.22 1001.8 L1908.98 999.104 L1905.74 996.318 L1902.49 993.457 L1899.25 990.534 L1896.01 987.562 L1892.76 984.554 L1889.52 981.518 L1886.28 978.467 L1883.04 975.41 L1879.79 972.354 L1876.55 969.31 L1873.31 966.283 L1870.06 963.282 L1866.82 960.312 L1863.58 957.381 L1860.33 954.493 L1857.09 951.653 L1853.85 948.867 L1850.61 946.139 L1847.36 943.473 L1844.12 940.872 L1840.88 938.34 L1837.63 935.881 L1834.39 933.496 L1831.15 931.189 L1827.9 928.961 L1824.66 926.816 L1821.42 924.754 L1818.17 922.778 L1814.93 920.888 L1811.69 919.086 L1808.45 917.374 L1805.2 915.751 L1801.96 914.219 L1798.72 912.778 L1795.47 911.428 L1792.23 910.17 L1788.99 909.003 L1785.74 907.927 L1782.5 906.942 L1779.26 906.047 L1776.02 905.242 L1772.77 904.526 L1769.53 903.898 L1766.29 903.355 L1763.04 902.898 L1759.8 902.524 L1756.56 902.232 L1753.31 902.019 L1750.07 901.883 L1746.83 901.823 L1743.59 901.834 L1740.34 901.916 L1737.1 902.063 L1733.86 902.274 L1730.61 902.544 L1727.37 902.87 L1724.13 903.247 L1720.88 903.672 L1717.64 904.139 L1714.4 904.643 L1711.15 905.18 L1707.91 905.743 L1704.67 906.326 L1701.43 906.923 L1698.18 907.528 L1694.94 908.133 L1691.7 908.73 L1688.45 909.312 L1685.21 909.87 L1681.97 910.395 L1678.72 910.879 L1675.48 911.312 L1672.24 911.683 L1669 911.983 L1665.75 912.201 L1662.51 912.325 L1659.27 912.345 L1656.02 912.249 L1652.78 912.025 L1649.54 911.661 L1646.29 911.147 L1643.05 910.484 L1639.81 909.673 L1636.57 908.715 L1633.32 907.613 L1630.08 906.367 L1626.84 904.98 L1623.59 903.452 L1620.35 901.785 L1617.11 899.979 L1613.86 898.036 L1610.62 895.957 L1607.38 893.741 L1604.13 891.389 L1600.89 888.902 L1597.65 886.28 L1594.41 883.522 L1591.16 880.632 L1587.92 877.619 L1584.68 874.495 L1581.43 871.271 L1578.19 867.961 L1574.95 864.575 L1571.7 861.123 L1568.46 857.617 L1565.22 854.068 L1561.98 850.484 L1558.73 846.875 L1555.49 843.251 L1552.25 839.619 L1549 835.987 L1545.76 832.364 L1542.52 828.756 L1539.27 825.169 L1536.03 821.611 L1532.79 818.085 L1529.55 814.599 L1526.3 811.156 L1523.06 807.761 L1519.82 804.418 L1516.57 801.131 L1513.33 797.902 L1510.09 794.735 L1506.84 791.632 L1503.6 788.596 L1500.36 785.627 L1497.11 782.728 L1493.87 779.9 L1490.63 777.143 L1487.39 774.457 L1484.14 771.844 L1480.9 769.302 L1477.66 766.831 L1474.41 764.43 L1471.17 762.099 L1467.93 759.834 L1464.68 757.635 L1461.44 755.499 L1458.2 753.423 L1454.96 751.404 L1451.71 749.44 L1448.47 747.526 L1445.23 745.658 L1441.98 743.832 L1438.74 742.042 L1435.5 740.284 L1432.25 738.551 L1429.01 736.837 L1425.77 735.136 L1422.53 733.44 L1419.28 731.743 L1416.04 730.036 L1412.8 728.31 L1409.55 726.558 L1406.31 724.769 L1403.07 722.935 L1399.82 721.046 L1396.58 719.091 L1393.34 717.061 L1390.1 714.947 L1386.85 712.747 L1383.61 710.461 L1380.37 708.089 L1377.12 705.63 L1373.88 703.084 L1370.64 700.451 L1367.39 697.73 L1364.15 694.92 L1360.91 692.019 L1357.66 689.029 L1354.42 685.957 L1351.18 682.812 L1347.94 679.602 L1344.69 676.336 L1341.45 673.023 L1338.21 669.669 L1334.96 666.282 L1331.72 662.868 L1328.48 659.433 L1325.23 655.982 L1321.99 652.521 L1318.75 649.052 L1315.51 645.58 L1312.26 642.107 L1309.02 638.634 L1305.78 635.164 L1302.53 631.697 L1299.29 628.234 L1296.05 624.773 L1292.8 621.313 L1289.56 617.855 L1286.32 614.401 L1283.08 610.952 L1279.83 607.512 L1276.59 604.081 L1273.35 600.66 L1270.1 597.249 L1266.86 593.848 L1263.62 590.454 L1260.37 587.065 L1257.13 583.679 L1253.89 580.289 L1250.64 576.892 L1247.4 573.481 L1244.16 570.049 L1240.92 566.586 L1237.67 563.085 L1234.43 559.536 L1231.19 555.926 L1227.94 552.244 L1224.7 548.477 L1221.46 544.611 L1218.21 540.632 L1214.97 536.526 L1211.73 532.276 L1208.49 527.872 L1205.24 523.314 L1202 518.61 L1198.76 513.763 L1195.51 508.779 L1192.27 503.662 L1189.03 498.417 L1185.78 493.048 L1182.54 487.556 L1179.3 481.946 L1176.06 476.219 L1172.81 470.378 L1169.57 464.423 L1166.33 458.356 L1163.08 452.178 L1159.84 445.89 L1156.6 439.494 L1153.35 432.994 L1150.11 426.396 L1146.87 419.706 L1143.62 412.937 L1140.38 406.101 L1137.14 399.211 L1133.9 392.28 L1130.65 385.318 L1127.41 378.338 L1124.17 371.349 L1120.92 364.364 L1117.68 357.39 L1114.44 350.437 L1111.19 343.514 L1107.95 336.629 L1104.71 329.79 L1101.47 323.003 L1098.22 316.275 L1094.98 309.612 L1091.74 303.02 L1088.49 296.504 L1085.25 290.07 L1082.01 283.721 L1078.76 277.462 L1075.52 271.297 L1072.28 265.23 L1069.04 259.264 L1065.79 253.402 L1062.55 247.647 L1059.31 242.002 L1056.06 236.469 L1052.82 231.05 L1049.58 225.748 L1046.33 220.565 L1043.09 215.501 L1039.85 210.56 L1036.6 205.741 L1033.36 201.047 L1030.12 196.479 L1026.88 192.037 L1023.63 187.722 L1020.39 183.536 L1017.15 179.478 L1013.9 175.55 L1010.66 171.751 L1007.42 168.081 L1004.17 164.541 L1000.93 161.131 L997.688 157.85 L994.445 154.698 L991.202 151.675 L987.959 148.779 L984.716 146.01 L981.473 143.366 L978.23 140.848 L974.987 138.452 L971.744 136.178 L968.501 134.023 L965.258 131.986 L962.015 130.064 L958.772 128.254 L955.529 126.555 L952.286 124.962 L949.043 123.471 L945.8 122.08 L942.557 120.785 L939.314 119.58 L936.071 118.46 L932.828 117.421 L929.585 116.457 L926.342 115.562 L923.099 114.729 L919.856 113.952 L916.613 113.223 L913.37 112.535 L910.127 111.879 L906.884 111.248 L903.641 110.632 L900.398 110.024 L897.155 109.414 L893.911 108.795 L890.668 108.164 L887.425 107.521 L884.182 106.866 L880.939 106.197 L877.696 105.515 L874.453 104.818 L871.21 104.107 L867.967 103.381 L864.724 102.641 L861.481 101.889 L858.238 101.129 L854.995 100.366 L851.752 99.6014 L848.509 98.8399 L845.266 98.0844 L842.023 97.3379 L838.78 96.6031 L835.537 95.8824 L832.294 95.178 L829.051 94.4915 L825.808 93.8244 L822.565 93.1777 L819.322 92.5524 L816.079 91.9489 L812.836 91.3676 L809.593 90.8098 L806.35 90.2822 L803.107 89.792 L799.864 89.3467 L796.621 88.9531 L793.378 88.6177 L790.135 88.3468 L786.892 88.1461 L783.648 88.0209 L780.405 87.9763 L777.162 88.0165 L773.919 88.1456 L770.676 88.3672 L767.433 88.6844 L764.19 89.0998 L760.947 89.6156 L757.704 90.2337 L754.461 90.9554 L751.218 91.7817 L747.975 92.7132 L744.732 93.7499 L741.489 94.8915 L738.246 96.1375 L735.003 97.4868 L731.76 98.9378 L728.517 100.489 L725.274 102.137 L722.031 103.881 L718.788 105.716 L715.545 107.64 L712.302 109.648 L709.059 111.736 L705.816 113.899 L702.573 116.133 L699.33 118.43 L696.087 120.786 L692.844 123.194 L689.601 125.646 L686.358 128.136 L683.115 130.655 L679.872 133.194 L676.629 135.745 L673.385 138.3 L670.142 140.847 L666.899 143.378 L663.656 145.881 L660.413 148.348 L657.17 150.766 L653.927 153.125 L650.684 155.414 L647.441 157.622 L644.198 159.74 L640.955 161.758 L637.712 163.677 L634.469 165.497 L631.226 167.223 L627.983 168.863 L624.74 170.426 L621.497 171.923 L618.254 173.364 L615.011 174.76 L611.768 176.119 L608.525 177.452 L605.282 178.769 L602.039 180.079 L598.796 181.39 L595.553 182.711 L592.31 184.051 L589.067 185.418 L585.824 186.817 L582.581 188.257 L579.338 189.744 L576.095 191.283 L572.852 192.88 L569.609 194.54 L566.366 196.269 L563.122 198.068 L559.879 199.944 L556.636 201.898 L553.393 203.935 L550.15 206.055 L546.907 208.262 L543.664 210.557 L540.421 212.941 L537.178 215.416 L533.935 217.98 L530.692 220.636 L527.449 223.382 L524.206 226.216 L520.963 229.139 L517.72 232.149 L514.477 235.242 L511.234 238.417 L507.991 241.671 L504.748 244.999 L501.505 248.397 L498.262 251.861 L495.019 255.386 L491.776 258.965 L488.533 262.592 L485.29 266.26 L482.047 269.961 L478.804 273.687 L475.561 277.427 L472.318 281.173 L469.075 284.914 L465.832 288.639 L462.589 292.335 L459.346 295.991 L456.103 299.593 L452.859 303.128 L449.616 306.581 L446.373 309.94 L443.13 313.19 L439.887 316.316 L436.644 319.306 L433.401 322.156 L430.158 324.867 L426.915 327.438 L423.672 329.872 L420.429 332.169 L417.186 334.331 L413.943 336.359 L410.7 338.254 L407.457 340.016 L404.214 341.648 L400.971 343.148 L397.728 344.517 L394.485 345.754 L391.242 346.859 L387.999 347.829 L384.756 348.664 L381.513 349.361 L378.27 349.918 L375.027 350.333 L371.784 350.601 L368.541 350.721 L365.298 350.688 L362.055 350.501 L358.812 350.169 L355.569 349.7 L352.326 349.105 L349.083 348.393 L345.84 347.573 L342.596 346.654 L339.353 345.643 L336.11 344.55 L332.867 343.381 L329.624 342.144 L326.381 340.845 L323.138 339.49 L319.895 338.087 L316.652 336.639 L313.409 335.154 L310.166 333.634 L306.923 332.086 L303.68 330.514 L300.437 328.92 L297.194 327.31 L293.951 325.687 L290.708 324.053 L287.465 322.413 L284.222 320.768 L280.979 319.121 L277.736 317.475 L274.493 315.832 L271.25 314.194 L268.007 312.563 L264.764 310.941 L261.521 309.328 L258.278 307.727 L255.035 306.14  Z" fill="#3da44d" fill-rule="evenodd" fill-opacity="0.1"/>
<polyline clip-path="url(#clip561)" style="stroke:#3da44d; stroke-linecap:round; stroke-linejoin:round; stroke-width:8; stroke-opacity:1; fill:none" points="255.035,638.085 258.278,636.18 261.521,634.253 264.764,632.302 268.007,630.328 271.25,628.33 274.493,626.308 277.736,624.263 280.979,622.193 284.222,620.098 287.465,617.979 290.708,615.835 293.951,613.665 297.194,611.471 300.437,609.25 303.68,607.004 306.923,604.731 310.166,602.432 313.409,600.107 316.652,597.754 319.895,595.375 323.138,592.969 326.381,590.535 329.624,588.073 332.867,585.583 336.11,583.065 339.353,580.519 342.596,577.945 345.84,575.341 349.083,572.708 352.326,570.047 355.569,567.355 358.812,564.634 362.055,561.883 365.298,559.102 368.541,556.291 371.784,553.453 375.027,550.589 378.27,547.703 381.513,544.798 384.756,541.876 387.999,538.939 391.242,535.991 394.485,533.035 397.728,530.072 400.971,527.107 404.214,524.141 407.457,521.177 410.7,518.219 413.943,515.27 417.186,512.331 420.429,509.406 423.672,506.499 426.915,503.611 430.158,500.747 433.401,497.908 436.644,495.099 439.887,492.321 443.13,489.574 446.373,486.855 449.616,484.162 452.859,481.496 456.103,478.855 459.346,476.236 462.589,473.641 465.832,471.066 469.075,468.512 472.318,465.977 475.561,463.46 478.804,460.96 482.047,458.477 485.29,456.009 488.533,453.556 491.776,451.117 495.019,448.691 498.262,446.278 501.505,443.877 504.748,441.487 507.991,439.107 511.234,436.738 514.477,434.378 517.72,432.028 520.963,429.686 524.206,427.352 527.449,425.026 530.692,422.708 533.935,420.397 537.178,418.093 540.421,415.795 543.664,413.505 546.907,411.221 550.15,408.943 553.393,406.671 556.636,404.406 559.879,402.147 563.122,399.894 566.366,397.647 569.609,395.407 572.852,393.174 576.095,390.947 579.338,388.727 582.581,386.515 585.824,384.31 589.067,382.113 592.31,379.925 595.553,377.745 598.796,375.574 602.039,373.414 605.282,371.263 608.525,369.124 611.768,366.996 615.011,364.88 618.254,362.777 621.497,360.688 624.74,358.614 627.983,356.555 631.226,354.512 634.469,352.487 637.712,350.479 640.955,348.488 644.198,346.512 647.441,344.549 650.684,342.6 653.927,340.662 657.17,338.738 660.413,336.826 663.656,334.928 666.899,333.041 670.142,331.168 673.385,329.308 676.629,327.461 679.872,325.628 683.115,323.808 686.358,322.003 689.601,320.212 692.844,318.436 696.087,316.676 699.33,314.932 702.573,313.205 705.816,311.495 709.059,309.803 712.302,308.13 715.545,306.477 718.788,304.845 722.031,303.233 725.274,301.645 728.517,300.08 731.76,298.539 735.003,297.025 738.246,295.537 741.489,294.078 744.732,292.648 747.975,291.249 751.218,289.883 754.461,288.55 757.704,287.254 760.947,285.994 764.19,284.774 767.433,283.594 770.676,282.457 773.919,281.364 777.162,280.318 780.405,279.321 783.648,278.374 786.892,277.481 790.135,276.643 793.378,275.862 796.621,275.141 799.864,274.483 803.107,273.891 806.35,273.366 809.593,272.913 812.836,272.533 816.079,272.229 819.322,272.003 822.565,271.857 825.808,271.791 829.051,271.809 832.294,271.91 835.537,272.098 838.78,272.373 842.023,272.739 845.266,273.197 848.509,273.749 851.752,274.397 854.995,275.145 858.238,275.994 861.481,276.948 864.724,278.008 867.967,279.179 871.21,280.461 874.453,281.852 877.696,283.352 880.939,284.956 884.182,286.663 887.425,288.47 890.668,290.375 893.911,292.376 897.155,294.471 900.398,296.658 903.641,298.934 906.884,301.296 910.127,303.74 913.37,306.263 916.613,308.864 919.856,311.538 923.099,314.283 926.342,317.096 929.585,319.975 932.828,322.918 936.071,325.922 939.314,328.984 942.557,332.102 945.8,335.275 949.043,338.499 952.286,341.774 955.529,345.096 958.772,348.465 962.015,351.878 965.258,355.334 968.501,358.83 971.744,362.365 974.987,365.938 978.23,369.547 981.473,373.191 984.716,376.868 987.959,380.576 991.202,384.315 994.445,388.084 997.688,391.88 1000.93,395.704 1004.17,399.553 1007.42,403.427 1010.66,407.326 1013.9,411.247 1017.15,415.19 1020.39,419.154 1023.63,423.139 1026.88,427.143 1030.12,431.167 1033.36,435.208 1036.6,439.268 1039.85,443.344 1043.09,447.437 1046.33,451.546 1049.58,455.671 1052.82,459.811 1056.06,463.966 1059.31,468.135 1062.55,472.318 1065.79,476.516 1069.04,480.726 1072.28,484.951 1075.52,489.188 1078.76,493.439 1082.01,497.703 1085.25,501.98 1088.49,506.27 1091.74,510.573 1094.98,514.889 1098.22,519.218 1101.47,523.56 1104.71,527.916 1107.95,532.285 1111.19,536.668 1114.44,541.064 1117.68,545.475 1120.92,549.901 1124.17,554.341 1127.41,558.796 1130.65,563.267 1133.9,567.754 1137.14,572.257 1140.38,576.777 1143.62,581.315 1146.87,585.87 1150.11,590.443 1153.35,595.036 1156.6,599.647 1159.84,604.276 1163.08,608.922 1166.33,613.582 1169.57,618.252 1172.81,622.929 1176.06,627.607 1179.3,632.283 1182.54,636.954 1185.78,641.616 1189.03,646.264 1192.27,650.895 1195.51,655.506 1198.76,660.091 1202,664.648 1205.24,669.172 1208.49,673.66 1211.73,678.108 1214.97,682.513 1218.21,686.876 1221.46,691.199 1224.7,695.484 1227.94,699.734 1231.19,703.95 1234.43,708.134 1237.67,712.289 1240.92,716.417 1244.16,720.519 1247.4,724.598 1250.64,728.656 1253.89,732.694 1257.13,736.715 1260.37,740.72 1263.62,744.712 1266.86,748.692 1270.1,752.664 1273.35,756.627 1276.59,760.585 1279.83,764.54 1283.08,768.493 1286.32,772.446 1289.56,776.402 1292.8,780.362 1296.05,784.328 1299.29,788.299 1302.53,792.273 1305.78,796.25 1309.02,800.228 1312.26,804.206 1315.51,808.182 1318.75,812.156 1321.99,816.125 1325.23,820.089 1328.48,824.046 1331.72,827.996 1334.96,831.935 1338.21,835.864 1341.45,839.781 1344.69,843.684 1347.94,847.573 1351.18,851.445 1354.42,855.299 1357.66,859.134 1360.91,862.949 1364.15,866.742 1367.39,870.512 1370.64,874.261 1373.88,877.987 1377.12,881.691 1380.37,885.373 1383.61,889.033 1386.85,892.669 1390.1,896.283 1393.34,899.874 1396.58,903.442 1399.82,906.988 1403.07,910.511 1406.31,914.013 1409.55,917.495 1412.8,920.956 1416.04,924.397 1419.28,927.82 1422.53,931.223 1425.77,934.609 1429.01,937.976 1432.25,941.326 1435.5,944.659 1438.74,947.975 1441.98,951.275 1445.23,954.559 1448.47,957.827 1451.71,961.079 1454.96,964.316 1458.2,967.538 1461.44,970.745 1464.68,973.938 1467.93,977.115 1471.17,980.278 1474.41,983.426 1477.66,986.56 1480.9,989.68 1484.14,992.785 1487.39,995.875 1490.63,998.951 1493.87,1002.01 1497.11,1005.06 1500.36,1008.09 1503.6,1011.11 1506.84,1014.11 1510.09,1017.09 1513.33,1020.06 1516.57,1023.02 1519.82,1025.95 1523.06,1028.87 1526.3,1031.78 1529.55,1034.66 1532.79,1037.53 1536.03,1040.38 1539.27,1043.21 1542.52,1046.02 1545.76,1048.81 1549,1051.58 1552.25,1054.32 1555.49,1057.05 1558.73,1059.75 1561.98,1062.43 1565.22,1065.08 1568.46,1067.71 1571.7,1070.31 1574.95,1072.88 1578.19,1075.43 1581.43,1077.94 1584.68,1080.43 1587.92,1082.88 1591.16,1085.3 1594.41,1087.69 1597.65,1090.04 1600.89,1092.36 1604.13,1094.64 1607.38,1096.89 1610.62,1099.1 1613.86,1101.27 1617.11,1103.41 1620.35,1105.51 1623.59,1107.58 1626.84,1109.61 1630.08,1111.6 1633.32,1113.56 1636.57,1115.48 1639.81,1117.36 1643.05,1119.2 1646.29,1121 1649.54,1122.75 1652.78,1124.47 1656.02,1126.15 1659.27,1127.79 1662.51,1129.39 1665.75,1130.96 1669,1132.5 1672.24,1134 1675.48,1135.48 1678.72,1136.92 1681.97,1138.34 1685.21,1139.73 1688.45,1141.09 1691.7,1142.44 1694.94,1143.76 1698.18,1145.05 1701.43,1146.33 1704.67,1147.59 1707.91,1148.83 1711.15,1150.05 1714.4,1151.26 1717.64,1152.45 1720.88,1153.62 1724.13,1154.78 1727.37,1155.93 1730.61,1157.07 1733.86,1158.19 1737.1,1159.3 1740.34,1160.4 1743.59,1161.49 1746.83,1162.57 1750.07,1163.64 1753.31,1164.7 1756.56,1165.75 1759.8,1166.79 1763.04,1167.82 1766.29,1168.85 1769.53,1169.87 1772.77,1170.88 1776.02,1171.88 1779.26,1172.88 1782.5,1173.86 1785.74,1174.84 1788.99,1175.82 1792.23,1176.78 1795.47,1177.74 1798.72,1178.69 1801.96,1179.63 1805.2,1180.56 1808.45,1181.48 1811.69,1182.4 1814.93,1183.3 1818.17,1184.2 1821.42,1185.08 1824.66,1185.96 1827.9,1186.82 1831.15,1187.67 1834.39,1188.51 1837.63,1189.33 1840.88,1190.14 1844.12,1190.94 1847.36,1191.72 1850.61,1192.49 1853.85,1193.23 1857.09,1193.96 1860.33,1194.67 1863.58,1195.36 1866.82,1196.03 1870.06,1196.67 1873.31,1197.29 1876.55,1197.89 1879.79,1198.46 1883.04,1199 1886.28,1199.52 1889.52,1200 1892.76,1200.45 1896.01,1200.87 1899.25,1201.25 1902.49,1201.6 1905.74,1201.9 1908.98,1202.17 1912.22,1202.4 1915.47,1202.57 1918.71,1202.71 1921.95,1202.79 1925.19,1202.83 1928.44,1202.81 1931.68,1202.74 1934.92,1202.6 1938.17,1202.41 1941.41,1202.16 1944.65,1201.84 1947.9,1201.46 1951.14,1201 1954.38,1200.48 1957.63,1199.89 1960.87,1199.23 1964.11,1198.5 1967.35,1197.7 1970.6,1196.84 1973.84,1195.91 1977.08,1194.92 1980.33,1193.86 1983.57,1192.73 1986.81,1191.54 1990.06,1190.28 1993.3,1188.96 1996.54,1187.57 1999.78,1186.12 2003.03,1184.59 2006.27,1183 2009.51,1181.35 2012.76,1179.63 2016,1177.86 2019.24,1176.03 2022.49,1174.14 2025.73,1172.21 2028.97,1170.22 2032.21,1168.19 2035.46,1166.11 2038.7,1163.99 2041.94,1161.82 2045.19,1159.62 2048.43,1157.38 2051.67,1155.11 2054.92,1152.81 2058.16,1150.47 2061.4,1148.1 2064.65,1145.71 2067.89,1143.29 2071.13,1140.84 2074.37,1138.38 2077.62,1135.89 2080.86,1133.38 2084.1,1130.85 2087.35,1128.31 2090.59,1125.75 2093.83,1123.17 2097.08,1120.59 2100.32,1117.99 2103.56,1115.37 2106.8,1112.75 2110.05,1110.12 2113.29,1107.49 2116.53,1104.84 2119.78,1102.19 2123.02,1099.54 2126.26,1096.88 2129.51,1094.22 2132.75,1091.56 2135.99,1088.9 2139.23,1086.24 2142.48,1083.57 2145.72,1080.91 2148.96,1078.26 2152.21,1075.6 2155.45,1072.95 2158.69,1070.3 2161.94,1067.66 2165.18,1065.02 2168.42,1062.39 2171.67,1059.76 2174.91,1057.14 2178.15,1054.53 2181.39,1051.93 2184.64,1049.34 2187.88,1046.75 2191.12,1044.18 2194.37,1041.61 2197.61,1039.06 2200.85,1036.51 2204.1,1033.98 2207.34,1031.46 2210.58,1028.95 2213.82,1026.46 2217.07,1023.97 2220.31,1021.5 2223.55,1019.04 2226.8,1016.6 2230.04,1014.17 2233.28,1011.75 2236.53,1009.35 2239.77,1006.96 2243.01,1004.59 2246.25,1002.23 2249.5,999.884 2252.74,997.555 2255.98,995.242 2259.23,992.945 2262.47,990.663 2265.71,988.397 2268.96,986.147 2272.2,983.913 2275.44,981.695 2278.69,979.494 2281.93,977.309 2285.17,975.14 2288.41,972.988 2291.66,970.853 "/>
<path clip-path="url(#clip560)" d="M1953.46 302.578 L2280.8 302.578 L2280.8 95.2176 L1953.46 95.2176  Z" fill="#ffffff" fill-rule="evenodd" fill-opacity="1"/>
<polyline clip-path="url(#clip560)" style="stroke:#000000; stroke-linecap:round; stroke-linejoin:round; stroke-width:4; stroke-opacity:1; fill:none" points="1953.46,302.578 2280.8,302.578 2280.8,95.2176 1953.46,95.2176 1953.46,302.578 "/>
<polyline clip-path="url(#clip560)" style="stroke:#009af9; stroke-linecap:round; stroke-linejoin:round; stroke-width:4; stroke-opacity:1; fill:none" points="1977.44,147.058 2121.36,147.058 "/>
<path clip-path="url(#clip560)" d="M2152.76 131.051 L2152.76 138.412 L2161.53 138.412 L2161.53 141.722 L2152.76 141.722 L2152.76 155.796 Q2152.76 158.967 2153.61 159.87 Q2154.49 160.773 2157.16 160.773 L2161.53 160.773 L2161.53 164.338 L2157.16 164.338 Q2152.23 164.338 2150.35 162.509 Q2148.48 160.657 2148.48 155.796 L2148.48 141.722 L2145.35 141.722 L2145.35 138.412 L2148.48 138.412 L2148.48 131.051 L2152.76 131.051 Z" fill="#000000" fill-rule="nonzero" fill-opacity="1" /><path clip-path="url(#clip560)" d="M2182.16 142.393 Q2181.44 141.977 2180.58 141.791 Q2179.75 141.583 2178.73 141.583 Q2175.12 141.583 2173.17 143.944 Q2171.25 146.282 2171.25 150.68 L2171.25 164.338 L2166.97 164.338 L2166.97 138.412 L2171.25 138.412 L2171.25 142.44 Q2172.6 140.078 2174.75 138.944 Q2176.9 137.787 2179.98 137.787 Q2180.42 137.787 2180.95 137.856 Q2181.48 137.903 2182.13 138.018 L2182.16 142.393 Z" fill="#000000" fill-rule="nonzero" fill-opacity="1" /><path clip-path="url(#clip560)" d="M2186.18 154.106 L2186.18 138.412 L2190.44 138.412 L2190.44 153.944 Q2190.44 157.625 2191.88 159.476 Q2193.31 161.305 2196.18 161.305 Q2199.63 161.305 2201.62 159.106 Q2203.64 156.907 2203.64 153.111 L2203.64 138.412 L2207.9 138.412 L2207.9 164.338 L2203.64 164.338 L2203.64 160.356 Q2202.09 162.717 2200.03 163.875 Q2197.99 165.009 2195.28 165.009 Q2190.81 165.009 2188.5 162.231 Q2186.18 159.453 2186.18 154.106 M2196.9 137.787 L2196.9 137.787 Z" fill="#000000" fill-rule="nonzero" fill-opacity="1" /><path clip-path="url(#clip560)" d="M2220.88 131.051 L2220.88 138.412 L2229.66 138.412 L2229.66 141.722 L2220.88 141.722 L2220.88 155.796 Q2220.88 158.967 2221.74 159.87 Q2222.62 160.773 2225.28 160.773 L2229.66 160.773 L2229.66 164.338 L2225.28 164.338 Q2220.35 164.338 2218.48 162.509 Q2216.6 160.657 2216.6 155.796 L2216.6 141.722 L2213.48 141.722 L2213.48 138.412 L2216.6 138.412 L2216.6 131.051 L2220.88 131.051 Z" fill="#000000" fill-rule="nonzero" fill-opacity="1" /><path clip-path="url(#clip560)" d="M2256.81 148.689 L2256.81 164.338 L2252.55 164.338 L2252.55 148.828 Q2252.55 145.148 2251.11 143.319 Q2249.68 141.49 2246.81 141.49 Q2243.36 141.49 2241.37 143.69 Q2239.38 145.889 2239.38 149.685 L2239.38 164.338 L2235.1 164.338 L2235.1 128.319 L2239.38 128.319 L2239.38 142.44 Q2240.91 140.102 2242.97 138.944 Q2245.05 137.787 2247.76 137.787 Q2252.23 137.787 2254.52 140.565 Q2256.81 143.319 2256.81 148.689 Z" fill="#000000" fill-rule="nonzero" fill-opacity="1" /><circle clip-path="url(#clip560)" cx="2049.4" cy="198.898" r="20.48" fill="#e26f46" fill-rule="evenodd" fill-opacity="1" stroke="#000000" stroke-opacity="1" stroke-width="4.55111"/>
<path clip-path="url(#clip560)" d="M2164.26 194.187 L2164.26 180.159 L2168.52 180.159 L2168.52 216.178 L2164.26 216.178 L2164.26 212.289 Q2162.92 214.603 2160.86 215.738 Q2158.82 216.849 2155.95 216.849 Q2151.25 216.849 2148.29 213.099 Q2145.35 209.349 2145.35 203.238 Q2145.35 197.127 2148.29 193.377 Q2151.25 189.627 2155.95 189.627 Q2158.82 189.627 2160.86 190.761 Q2162.92 191.872 2164.26 194.187 M2149.75 203.238 Q2149.75 207.937 2151.67 210.622 Q2153.61 213.284 2156.99 213.284 Q2160.37 213.284 2162.32 210.622 Q2164.26 207.937 2164.26 203.238 Q2164.26 198.539 2162.32 195.877 Q2160.37 193.192 2156.99 193.192 Q2153.61 193.192 2151.67 195.877 Q2149.75 198.539 2149.75 203.238 Z" fill="#000000" fill-rule="nonzero" fill-opacity="1" /><path clip-path="url(#clip560)" d="M2189.08 203.145 Q2183.92 203.145 2181.92 204.326 Q2179.93 205.506 2179.93 208.354 Q2179.93 210.622 2181.42 211.965 Q2182.92 213.284 2185.49 213.284 Q2189.03 213.284 2191.16 210.784 Q2193.31 208.261 2193.31 204.094 L2193.31 203.145 L2189.08 203.145 M2197.57 201.386 L2197.57 216.178 L2193.31 216.178 L2193.31 212.242 Q2191.85 214.603 2189.68 215.738 Q2187.5 216.849 2184.36 216.849 Q2180.37 216.849 2178.01 214.627 Q2175.67 212.381 2175.67 208.631 Q2175.67 204.256 2178.59 202.034 Q2181.53 199.812 2187.34 199.812 L2193.31 199.812 L2193.31 199.395 Q2193.31 196.455 2191.37 194.858 Q2189.45 193.238 2185.95 193.238 Q2183.73 193.238 2181.62 193.77 Q2179.52 194.303 2177.57 195.367 L2177.57 191.432 Q2179.91 190.53 2182.11 190.09 Q2184.31 189.627 2186.39 189.627 Q2192.02 189.627 2194.79 192.543 Q2197.57 195.46 2197.57 201.386 Z" fill="#000000" fill-rule="nonzero" fill-opacity="1" /><path clip-path="url(#clip560)" d="M2210.56 182.891 L2210.56 190.252 L2219.33 190.252 L2219.33 193.562 L2210.56 193.562 L2210.56 207.636 Q2210.56 210.807 2211.42 211.71 Q2212.29 212.613 2214.96 212.613 L2219.33 212.613 L2219.33 216.178 L2214.96 216.178 Q2210.03 216.178 2208.15 214.349 Q2206.28 212.497 2206.28 207.636 L2206.28 193.562 L2203.15 193.562 L2203.15 190.252 L2206.28 190.252 L2206.28 182.891 L2210.56 182.891 Z" fill="#000000" fill-rule="nonzero" fill-opacity="1" /><path clip-path="url(#clip560)" d="M2236.72 203.145 Q2231.55 203.145 2229.56 204.326 Q2227.57 205.506 2227.57 208.354 Q2227.57 210.622 2229.05 211.965 Q2230.56 213.284 2233.13 213.284 Q2236.67 213.284 2238.8 210.784 Q2240.95 208.261 2240.95 204.094 L2240.95 203.145 L2236.72 203.145 M2245.21 201.386 L2245.21 216.178 L2240.95 216.178 L2240.95 212.242 Q2239.49 214.603 2237.32 215.738 Q2235.14 216.849 2231.99 216.849 Q2228.01 216.849 2225.65 214.627 Q2223.31 212.381 2223.31 208.631 Q2223.31 204.256 2226.23 202.034 Q2229.17 199.812 2234.98 199.812 L2240.95 199.812 L2240.95 199.395 Q2240.95 196.455 2239.01 194.858 Q2237.09 193.238 2233.59 193.238 Q2231.37 193.238 2229.26 193.77 Q2227.16 194.303 2225.21 195.367 L2225.21 191.432 Q2227.55 190.53 2229.75 190.09 Q2231.95 189.627 2234.03 189.627 Q2239.66 189.627 2242.43 192.543 Q2245.21 195.46 2245.21 201.386 Z" fill="#000000" fill-rule="nonzero" fill-opacity="1" /><polyline clip-path="url(#clip560)" style="stroke:#3da44d; stroke-linecap:round; stroke-linejoin:round; stroke-width:8; stroke-opacity:1; fill:none" points="1977.44,250.738 2121.36,250.738 "/>
<path clip-path="url(#clip560)" d="M2170.91 263.087 L2170.91 253.805 L2163.27 253.805 L2163.27 249.962 L2175.54 249.962 L2175.54 264.8 Q2172.83 266.721 2169.56 267.717 Q2166.3 268.689 2162.6 268.689 Q2154.49 268.689 2149.91 263.967 Q2145.35 259.221 2145.35 250.772 Q2145.35 242.3 2149.91 237.578 Q2154.49 232.833 2162.6 232.833 Q2165.98 232.833 2169.01 233.666 Q2172.06 234.499 2174.63 236.12 L2174.63 241.096 Q2172.04 238.897 2169.12 237.786 Q2166.21 236.675 2162.99 236.675 Q2156.65 236.675 2153.45 240.217 Q2150.28 243.758 2150.28 250.772 Q2150.28 257.763 2153.45 261.305 Q2156.65 264.846 2162.99 264.846 Q2165.47 264.846 2167.41 264.43 Q2169.36 263.99 2170.91 263.087 Z" fill="#000000" fill-rule="nonzero" fill-opacity="1" /><path clip-path="url(#clip560)" d="M2188.75 237.3 L2188.75 250.286 L2194.63 250.286 Q2197.9 250.286 2199.68 248.596 Q2201.46 246.907 2201.46 243.782 Q2201.46 240.68 2199.68 238.99 Q2197.9 237.3 2194.63 237.3 L2188.75 237.3 M2184.08 233.458 L2194.63 233.458 Q2200.44 233.458 2203.41 236.096 Q2206.39 238.712 2206.39 243.782 Q2206.39 248.897 2203.41 251.513 Q2200.44 254.129 2194.63 254.129 L2188.75 254.129 L2188.75 268.018 L2184.08 268.018 L2184.08 233.458 Z" fill="#000000" fill-rule="nonzero" fill-opacity="1" /></svg>
