<?xml version="1.0" encoding="utf-8"?>
<svg xmlns="http://www.w3.org/2000/svg" xmlns:xlink="http://www.w3.org/1999/xlink" width="600" height="400" viewBox="0 0 2400 1600">
<defs>
  <clipPath id="clip530">
    <rect x="0" y="0" width="2400" height="1600"/>
  </clipPath>
</defs>
<path clip-path="url(#clip530)" d="M0 1600 L2400 1600 L2400 0 L0 0  Z" fill="#ffffff" fill-rule="evenodd" fill-opacity="1"/>
<defs>
  <clipPath id="clip531">
    <rect x="193" y="47" width="2160" height="1440"/>
  </clipPath>
</defs>
<path clip-path="url(#clip530)" d="M193.936 1486.45 L2352.76 1486.45 L2352.76 47.2441 L193.936 47.2441  Z" fill="#ffffff" fill-rule="evenodd" fill-opacity="1"/>
<polyline clip-path="url(#clip531)" style="stroke:#000000; stroke-linecap:round; stroke-linejoin:round; stroke-width:2; stroke-opacity:0.1; fill:none" points="255.035,1486.45 255.035,47.2441 "/>
<polyline clip-path="url(#clip531)" style="stroke:#000000; stroke-linecap:round; stroke-linejoin:round; stroke-width:2; stroke-opacity:0.1; fill:none" points="579.338,1486.45 579.338,47.2441 "/>
<polyline clip-path="url(#clip531)" style="stroke:#000000; stroke-linecap:round; stroke-linejoin:round; stroke-width:2; stroke-opacity:0.1; fill:none" points="903.641,1486.45 903.641,47.2441 "/>
<polyline clip-path="url(#clip531)" style="stroke:#000000; stroke-linecap:round; stroke-linejoin:round; stroke-width:2; stroke-opacity:0.1; fill:none" points="1227.94,1486.45 1227.94,47.2441 "/>
<polyline clip-path="url(#clip531)" style="stroke:#000000; stroke-linecap:round; stroke-linejoin:round; stroke-width:2; stroke-opacity:0.1; fill:none" points="1552.25,1486.45 1552.25,47.2441 "/>
<polyline clip-path="url(#clip531)" style="stroke:#000000; stroke-linecap:round; stroke-linejoin:round; stroke-width:2; stroke-opacity:0.1; fill:none" points="1876.55,1486.45 1876.55,47.2441 "/>
<polyline clip-path="url(#clip531)" style="stroke:#000000; stroke-linecap:round; stroke-linejoin:round; stroke-width:2; stroke-opacity:0.1; fill:none" points="2200.85,1486.45 2200.85,47.2441 "/>
<polyline clip-path="url(#clip531)" style="stroke:#000000; stroke-linecap:round; stroke-linejoin:round; stroke-width:2; stroke-opacity:0.1; fill:none" points="193.936,1445.72 2352.76,1445.72 "/>
<polyline clip-path="url(#clip531)" style="stroke:#000000; stroke-linecap:round; stroke-linejoin:round; stroke-width:2; stroke-opacity:0.1; fill:none" points="193.936,1132.72 2352.76,1132.72 "/>
<polyline clip-path="url(#clip531)" style="stroke:#000000; stroke-linecap:round; stroke-linejoin:round; stroke-width:2; stroke-opacity:0.1; fill:none" points="193.936,819.721 2352.76,819.721 "/>
<polyline clip-path="url(#clip531)" style="stroke:#000000; stroke-linecap:round; stroke-linejoin:round; stroke-width:2; stroke-opacity:0.1; fill:none" points="193.936,506.723 2352.76,506.723 "/>
<polyline clip-path="url(#clip531)" style="stroke:#000000; stroke-linecap:round; stroke-linejoin:round; stroke-width:2; stroke-opacity:0.1; fill:none" points="193.936,193.725 2352.76,193.725 "/>
<polyline clip-path="url(#clip530)" style="stroke:#000000; stroke-linecap:round; stroke-linejoin:round; stroke-width:4; stroke-opacity:1; fill:none" points="193.936,1486.45 2352.76,1486.45 "/>
<polyline clip-path="url(#clip530)" style="stroke:#000000; stroke-linecap:round; stroke-linejoin:round; stroke-width:4; stroke-opacity:1; fill:none" points="255.035,1486.45 255.035,1467.55 "/>
<polyline clip-path="url(#clip530)" style="stroke:#000000; stroke-linecap:round; stroke-linejoin:round; stroke-width:4; stroke-opacity:1; fill:none" points="579.338,1486.45 579.338,1467.55 "/>
<polyline clip-path="url(#clip530)" style="stroke:#000000; stroke-linecap:round; stroke-linejoin:round; stroke-width:4; stroke-opacity:1; fill:none" points="903.641,1486.45 903.641,1467.55 "/>
<polyline clip-path="url(#clip530)" style="stroke:#000000; stroke-linecap:round; stroke-linejoin:round; stroke-width:4; stroke-opacity:1; fill:none" points="1227.94,1486.45 1227.94,1467.55 "/>
<polyline clip-path="url(#clip530)" style="stroke:#000000; stroke-linecap:round; stroke-linejoin:round; stroke-width:4; stroke-opacity:1; fill:none" points="1552.25,1486.45 1552.25,1467.55 "/>
<polyline clip-path="url(#clip530)" style="stroke:#000000; stroke-linecap:round; stroke-linejoin:round; stroke-width:4; stroke-opacity:1; fill:none" points="1876.55,1486.45 1876.55,1467.55 "/>
<polyline clip-path="url(#clip530)" style="stroke:#000000; stroke-linecap:round; stroke-linejoin:round; stroke-width:4; stroke-opacity:1; fill:none" points="2200.85,1486.45 2200.85,1467.55 "/>
<path clip-path="url(#clip530)" d="M255.035 1517.37 Q251.424 1517.37 249.595 1520.93 Q247.789 1524.47 247.789 1531.6 Q247.789 1538.71 249.595 1542.27 Q251.424 1545.82 255.035 1545.82 Q258.669 1545.82 260.474 1542.27 Q262.303 1538.71 262.303 1531.6 Q262.303 1524.47 260.474 1520.93 Q258.669 1517.37 255.035 1517.37 M255.035 1513.66 Q260.845 1513.66 263.9 1518.27 Q266.979 1522.85 266.979 1531.6 Q266.979 1540.33 263.9 1544.94 Q260.845 1549.52 255.035 1549.52 Q249.225 1549.52 246.146 1544.94 Q243.09 1540.33 243.09 1531.6 Q243.09 1522.85 246.146 1518.27 Q249.225 1513.66 255.035 1513.66 Z" fill="#000000" fill-rule="nonzero" fill-opacity="1" /><path clip-path="url(#clip530)" d="M569.72 1544.91 L577.358 1544.91 L577.358 1518.55 L569.048 1520.21 L569.048 1515.95 L577.312 1514.29 L581.988 1514.29 L581.988 1544.91 L589.627 1544.91 L589.627 1548.85 L569.72 1548.85 L569.72 1544.91 Z" fill="#000000" fill-rule="nonzero" fill-opacity="1" /><path clip-path="url(#clip530)" d="M898.293 1544.91 L914.613 1544.91 L914.613 1548.85 L892.668 1548.85 L892.668 1544.91 Q895.33 1542.16 899.914 1537.53 Q904.52 1532.88 905.701 1531.53 Q907.946 1529.01 908.826 1527.27 Q909.729 1525.51 909.729 1523.82 Q909.729 1521.07 907.784 1519.33 Q905.863 1517.6 902.761 1517.6 Q900.562 1517.6 898.108 1518.36 Q895.678 1519.13 892.9 1520.68 L892.9 1515.95 Q895.724 1514.82 898.178 1514.24 Q900.631 1513.66 902.668 1513.66 Q908.039 1513.66 911.233 1516.35 Q914.428 1519.03 914.428 1523.52 Q914.428 1525.65 913.617 1527.57 Q912.83 1529.47 910.724 1532.07 Q910.145 1532.74 907.043 1535.95 Q903.942 1539.15 898.293 1544.91 Z" fill="#000000" fill-rule="nonzero" fill-opacity="1" /><path clip-path="url(#clip530)" d="M1232.19 1530.21 Q1235.55 1530.93 1237.42 1533.2 Q1239.32 1535.47 1239.32 1538.8 Q1239.32 1543.92 1235.8 1546.72 Q1232.28 1549.52 1225.8 1549.52 Q1223.63 1549.52 1221.31 1549.08 Q1219.02 1548.66 1216.57 1547.81 L1216.57 1543.29 Q1218.51 1544.43 1220.83 1545.01 Q1223.14 1545.58 1225.66 1545.58 Q1230.06 1545.58 1232.35 1543.85 Q1234.67 1542.11 1234.67 1538.8 Q1234.67 1535.75 1232.52 1534.03 Q1230.39 1532.3 1226.57 1532.3 L1222.54 1532.3 L1222.54 1528.45 L1226.75 1528.45 Q1230.2 1528.45 1232.03 1527.09 Q1233.86 1525.7 1233.86 1523.11 Q1233.86 1520.45 1231.96 1519.03 Q1230.08 1517.6 1226.57 1517.6 Q1224.64 1517.6 1222.45 1518.01 Q1220.25 1518.43 1217.61 1519.31 L1217.61 1515.14 Q1220.27 1514.4 1222.58 1514.03 Q1224.92 1513.66 1226.98 1513.66 Q1232.31 1513.66 1235.41 1516.09 Q1238.51 1518.5 1238.51 1522.62 Q1238.51 1525.49 1236.87 1527.48 Q1235.22 1529.45 1232.19 1530.21 Z" fill="#000000" fill-rule="nonzero" fill-opacity="1" /><path clip-path="url(#clip530)" d="M1555.26 1518.36 L1543.45 1536.81 L1555.26 1536.81 L1555.26 1518.36 M1554.03 1514.29 L1559.91 1514.29 L1559.91 1536.81 L1564.84 1536.81 L1564.84 1540.7 L1559.91 1540.7 L1559.91 1548.85 L1555.26 1548.85 L1555.26 1540.7 L1539.65 1540.7 L1539.65 1536.19 L1554.03 1514.29 Z" fill="#000000" fill-rule="nonzero" fill-opacity="1" /><path clip-path="url(#clip530)" d="M1866.83 1514.29 L1885.18 1514.29 L1885.18 1518.22 L1871.11 1518.22 L1871.11 1526.7 Q1872.13 1526.35 1873.15 1526.19 Q1874.17 1526 1875.18 1526 Q1880.97 1526 1884.35 1529.17 Q1887.73 1532.34 1887.73 1537.76 Q1887.73 1543.34 1884.26 1546.44 Q1880.79 1549.52 1874.47 1549.52 Q1872.29 1549.52 1870.02 1549.15 Q1867.78 1548.78 1865.37 1548.04 L1865.37 1543.34 Q1867.45 1544.47 1869.67 1545.03 Q1871.9 1545.58 1874.37 1545.58 Q1878.38 1545.58 1880.72 1543.48 Q1883.05 1541.37 1883.05 1537.76 Q1883.05 1534.15 1880.72 1532.04 Q1878.38 1529.94 1874.37 1529.94 Q1872.5 1529.94 1870.62 1530.35 Q1868.77 1530.77 1866.83 1531.65 L1866.83 1514.29 Z" fill="#000000" fill-rule="nonzero" fill-opacity="1" /><path clip-path="url(#clip530)" d="M2201.26 1529.7 Q2198.11 1529.7 2196.26 1531.86 Q2194.43 1534.01 2194.43 1537.76 Q2194.43 1541.49 2196.26 1543.66 Q2198.11 1545.82 2201.26 1545.82 Q2204.41 1545.82 2206.23 1543.66 Q2208.09 1541.49 2208.09 1537.76 Q2208.09 1534.01 2206.23 1531.86 Q2204.41 1529.7 2201.26 1529.7 M2210.54 1515.05 L2210.54 1519.31 Q2208.78 1518.48 2206.98 1518.04 Q2205.19 1517.6 2203.43 1517.6 Q2198.8 1517.6 2196.35 1520.72 Q2193.92 1523.85 2193.57 1530.17 Q2194.94 1528.15 2197 1527.09 Q2199.06 1526 2201.54 1526 Q2206.74 1526 2209.75 1529.17 Q2212.79 1532.32 2212.79 1537.76 Q2212.79 1543.08 2209.64 1546.3 Q2206.49 1549.52 2201.26 1549.52 Q2195.26 1549.52 2192.09 1544.94 Q2188.92 1540.33 2188.92 1531.6 Q2188.92 1523.41 2192.81 1518.55 Q2196.7 1513.66 2203.25 1513.66 Q2205.01 1513.66 2206.79 1514.01 Q2208.6 1514.36 2210.54 1515.05 Z" fill="#000000" fill-rule="nonzero" fill-opacity="1" /><polyline clip-path="url(#clip530)" style="stroke:#000000; stroke-linecap:round; stroke-linejoin:round; stroke-width:4; stroke-opacity:1; fill:none" points="193.936,1486.45 193.936,47.2441 "/>
<polyline clip-path="url(#clip530)" style="stroke:#000000; stroke-linecap:round; stroke-linejoin:round; stroke-width:4; stroke-opacity:1; fill:none" points="193.936,1445.72 212.834,1445.72 "/>
<polyline clip-path="url(#clip530)" style="stroke:#000000; stroke-linecap:round; stroke-linejoin:round; stroke-width:4; stroke-opacity:1; fill:none" points="193.936,1132.72 212.834,1132.72 "/>
<polyline clip-path="url(#clip530)" style="stroke:#000000; stroke-linecap:round; stroke-linejoin:round; stroke-width:4; stroke-opacity:1; fill:none" points="193.936,819.721 212.834,819.721 "/>
<polyline clip-path="url(#clip530)" style="stroke:#000000; stroke-linecap:round; stroke-linejoin:round; stroke-width:4; stroke-opacity:1; fill:none" points="193.936,506.723 212.834,506.723 "/>
<polyline clip-path="url(#clip530)" style="stroke:#000000; stroke-linecap:round; stroke-linejoin:round; stroke-width:4; stroke-opacity:1; fill:none" points="193.936,193.725 212.834,193.725 "/>
<path clip-path="url(#clip530)" d="M50.9921 1446.17 L80.6679 1446.17 L80.6679 1450.1 L50.9921 1450.1 L50.9921 1446.17 Z" fill="#000000" fill-rule="nonzero" fill-opacity="1" /><path clip-path="url(#clip530)" d="M91.5706 1459.06 L99.2095 1459.06 L99.2095 1432.7 L90.8993 1434.36 L90.8993 1430.1 L99.1632 1428.44 L103.839 1428.44 L103.839 1459.06 L111.478 1459.06 L111.478 1463 L91.5706 1463 L91.5706 1459.06 Z" fill="#000000" fill-rule="nonzero" fill-opacity="1" /><path clip-path="url(#clip530)" d="M120.922 1457.12 L125.807 1457.12 L125.807 1463 L120.922 1463 L120.922 1457.12 Z" fill="#000000" fill-rule="nonzero" fill-opacity="1" /><path clip-path="url(#clip530)" d="M145.992 1431.52 Q142.381 1431.52 140.552 1435.08 Q138.746 1438.62 138.746 1445.75 Q138.746 1452.86 140.552 1456.42 Q142.381 1459.97 145.992 1459.97 Q149.626 1459.97 151.431 1456.42 Q153.26 1452.86 153.26 1445.75 Q153.26 1438.62 151.431 1435.08 Q149.626 1431.52 145.992 1431.52 M145.992 1427.81 Q151.802 1427.81 154.857 1432.42 Q157.936 1437 157.936 1445.75 Q157.936 1454.48 154.857 1459.09 Q151.802 1463.67 145.992 1463.67 Q140.181 1463.67 137.103 1459.09 Q134.047 1454.48 134.047 1445.75 Q134.047 1437 137.103 1432.42 Q140.181 1427.81 145.992 1427.81 Z" fill="#000000" fill-rule="nonzero" fill-opacity="1" /><path clip-path="url(#clip530)" d="M51.9875 1133.17 L81.6633 1133.17 L81.6633 1137.11 L51.9875 1137.11 L51.9875 1133.17 Z" fill="#000000" fill-rule="nonzero" fill-opacity="1" /><path clip-path="url(#clip530)" d="M101.756 1118.52 Q98.1447 1118.52 96.316 1122.08 Q94.5104 1125.62 94.5104 1132.75 Q94.5104 1139.86 96.316 1143.43 Q98.1447 1146.97 101.756 1146.97 Q105.39 1146.97 107.196 1143.43 Q109.024 1139.86 109.024 1132.75 Q109.024 1125.62 107.196 1122.08 Q105.39 1118.52 101.756 1118.52 M101.756 1114.81 Q107.566 1114.81 110.621 1119.42 Q113.7 1124 113.7 1132.75 Q113.7 1141.48 110.621 1146.09 Q107.566 1150.67 101.756 1150.67 Q95.9456 1150.67 92.8669 1146.09 Q89.8114 1141.48 89.8114 1132.75 Q89.8114 1124 92.8669 1119.42 Q95.9456 1114.81 101.756 1114.81 Z" fill="#000000" fill-rule="nonzero" fill-opacity="1" /><path clip-path="url(#clip530)" d="M121.918 1144.12 L126.802 1144.12 L126.802 1150 L121.918 1150 L121.918 1144.12 Z" fill="#000000" fill-rule="nonzero" fill-opacity="1" /><path clip-path="url(#clip530)" d="M137.033 1115.44 L155.39 1115.44 L155.39 1119.37 L141.316 1119.37 L141.316 1127.85 Q142.334 1127.5 143.353 1127.34 Q144.371 1127.15 145.39 1127.15 Q151.177 1127.15 154.556 1130.32 Q157.936 1133.49 157.936 1138.91 Q157.936 1144.49 154.464 1147.59 Q150.992 1150.67 144.672 1150.67 Q142.496 1150.67 140.228 1150.3 Q137.982 1149.93 135.575 1149.19 L135.575 1144.49 Q137.658 1145.62 139.881 1146.18 Q142.103 1146.74 144.58 1146.74 Q148.584 1146.74 150.922 1144.63 Q153.26 1142.52 153.26 1138.91 Q153.26 1135.3 150.922 1133.19 Q148.584 1131.09 144.58 1131.09 Q142.705 1131.09 140.83 1131.5 Q138.978 1131.92 137.033 1132.8 L137.033 1115.44 Z" fill="#000000" fill-rule="nonzero" fill-opacity="1" /><path clip-path="url(#clip530)" d="M100.76 805.52 Q97.1493 805.52 95.3206 809.085 Q93.515 812.627 93.515 819.756 Q93.515 826.863 95.3206 830.427 Q97.1493 833.969 100.76 833.969 Q104.395 833.969 106.2 830.427 Q108.029 826.863 108.029 819.756 Q108.029 812.627 106.2 809.085 Q104.395 805.52 100.76 805.52 M100.76 801.816 Q106.571 801.816 109.626 806.423 Q112.705 811.006 112.705 819.756 Q112.705 828.483 109.626 833.089 Q106.571 837.673 100.76 837.673 Q94.9502 837.673 91.8715 833.089 Q88.816 828.483 88.816 819.756 Q88.816 811.006 91.8715 806.423 Q94.9502 801.816 100.76 801.816 Z" fill="#000000" fill-rule="nonzero" fill-opacity="1" /><path clip-path="url(#clip530)" d="M120.922 831.122 L125.807 831.122 L125.807 837.001 L120.922 837.001 L120.922 831.122 Z" fill="#000000" fill-rule="nonzero" fill-opacity="1" /><path clip-path="url(#clip530)" d="M145.992 805.52 Q142.381 805.52 140.552 809.085 Q138.746 812.627 138.746 819.756 Q138.746 826.863 140.552 830.427 Q142.381 833.969 145.992 833.969 Q149.626 833.969 151.431 830.427 Q153.26 826.863 153.26 819.756 Q153.26 812.627 151.431 809.085 Q149.626 805.52 145.992 805.52 M145.992 801.816 Q151.802 801.816 154.857 806.423 Q157.936 811.006 157.936 819.756 Q157.936 828.483 154.857 833.089 Q151.802 837.673 145.992 837.673 Q140.181 837.673 137.103 833.089 Q134.047 828.483 134.047 819.756 Q134.047 811.006 137.103 806.423 Q140.181 801.816 145.992 801.816 Z" fill="#000000" fill-rule="nonzero" fill-opacity="1" /><path clip-path="url(#clip530)" d="M101.756 492.522 Q98.1447 492.522 96.316 496.087 Q94.5104 499.628 94.5104 506.758 Q94.5104 513.865 96.316 517.429 Q98.1447 520.971 101.756 520.971 Q105.39 520.971 107.196 517.429 Q109.024 513.865 109.024 506.758 Q109.024 499.628 107.196 496.087 Q105.39 492.522 101.756 492.522 M101.756 488.818 Q107.566 488.818 110.621 493.425 Q113.7 498.008 113.7 506.758 Q113.7 515.485 110.621 520.091 Q107.566 524.675 101.756 524.675 Q95.9456 524.675 92.8669 520.091 Q89.8114 515.485 89.8114 506.758 Q89.8114 498.008 92.8669 493.425 Q95.9456 488.818 101.756 488.818 Z" fill="#000000" fill-rule="nonzero" fill-opacity="1" /><path clip-path="url(#clip530)" d="M121.918 518.124 L126.802 518.124 L126.802 524.003 L121.918 524.003 L121.918 518.124 Z" fill="#000000" fill-rule="nonzero" fill-opacity="1" /><path clip-path="url(#clip530)" d="M137.033 489.443 L155.39 489.443 L155.39 493.379 L141.316 493.379 L141.316 501.851 Q142.334 501.503 143.353 501.341 Q144.371 501.156 145.39 501.156 Q151.177 501.156 154.556 504.328 Q157.936 507.499 157.936 512.915 Q157.936 518.494 154.464 521.596 Q150.992 524.675 144.672 524.675 Q142.496 524.675 140.228 524.304 Q137.982 523.934 135.575 523.193 L135.575 518.494 Q137.658 519.628 139.881 520.184 Q142.103 520.739 144.58 520.739 Q148.584 520.739 150.922 518.633 Q153.26 516.527 153.26 512.915 Q153.26 509.304 150.922 507.198 Q148.584 505.091 144.58 505.091 Q142.705 505.091 140.83 505.508 Q138.978 505.925 137.033 506.804 L137.033 489.443 Z" fill="#000000" fill-rule="nonzero" fill-opacity="1" /><path clip-path="url(#clip530)" d="M91.5706 207.07 L99.2095 207.07 L99.2095 180.705 L90.8993 182.371 L90.8993 178.112 L99.1632 176.445 L103.839 176.445 L103.839 207.07 L111.478 207.07 L111.478 211.005 L91.5706 211.005 L91.5706 207.07 Z" fill="#000000" fill-rule="nonzero" fill-opacity="1" /><path clip-path="url(#clip530)" d="M120.922 205.126 L125.807 205.126 L125.807 211.005 L120.922 211.005 L120.922 205.126 Z" fill="#000000" fill-rule="nonzero" fill-opacity="1" /><path clip-path="url(#clip530)" d="M145.992 179.524 Q142.381 179.524 140.552 183.089 Q138.746 186.63 138.746 193.76 Q138.746 200.866 140.552 204.431 Q142.381 207.973 145.992 207.973 Q149.626 207.973 151.431 204.431 Q153.26 200.866 153.26 193.76 Q153.26 186.63 151.431 183.089 Q149.626 179.524 145.992 179.524 M145.992 175.82 Q151.802 175.82 154.857 180.427 Q157.936 185.01 157.936 193.76 Q157.936 202.487 154.857 207.093 Q151.802 211.677 145.992 211.677 Q140.181 211.677 137.103 207.093 Q134.047 202.487 134.047 193.76 Q134.047 185.01 137.103 180.427 Q140.181 175.82 145.992 175.82 Z" fill="#000000" fill-rule="nonzero" fill-opacity="1" /><polyline clip-path="url(#clip531)" style="stroke:#009af9; stroke-linecap:round; stroke-linejoin:round; stroke-width:4; stroke-opacity:1; fill:none" points="255.035,819.721 258.278,813.462 261.521,807.202 264.764,800.944 268.007,794.688 271.25,788.435 274.493,782.184 277.736,775.937 280.979,769.695 284.222,763.458 287.465,757.226 290.708,751.001 293.951,744.782 297.194,738.571 300.437,732.368 303.68,726.174 306.923,719.989 310.166,713.814 313.409,707.65 316.652,701.496 319.895,695.355 323.138,689.226 326.381,683.111 329.624,677.008 332.867,670.92 336.11,664.847 339.353,658.79 342.596,652.749 345.84,646.724 349.083,640.716 352.326,634.727 355.569,628.756 358.812,622.804 362.055,616.872 365.298,610.96 368.541,605.069 371.784,599.199 375.027,593.352 378.27,587.527 381.513,581.725 384.756,575.947 387.999,570.194 391.242,564.465 394.485,558.762 397.728,553.085 400.971,547.435 404.214,541.812 407.457,536.216 410.7,530.649 413.943,525.111 417.186,519.603 420.429,514.124 423.672,508.676 426.915,503.26 430.158,497.874 433.401,492.521 436.644,487.201 439.887,481.914 443.13,476.661 446.373,471.442 449.616,466.257 452.859,461.109 456.103,455.996 459.346,450.919 462.589,445.879 465.832,440.877 469.075,435.913 472.318,430.987 475.561,426.099 478.804,421.252 482.047,416.444 485.29,411.676 488.533,406.949 491.776,402.264 495.019,397.62 498.262,393.018 501.505,388.459 504.748,383.943 507.991,379.471 511.234,375.043 514.477,370.659 517.72,366.32 520.963,362.027 524.206,357.779 527.449,353.578 530.692,349.423 533.935,345.315 537.178,341.254 540.421,337.242 543.664,333.278 546.907,329.362 550.15,325.495 553.393,321.678 556.636,317.91 559.879,314.193 563.122,310.526 566.366,306.911 569.609,303.346 572.852,299.833 576.095,296.372 579.338,292.964 582.581,289.608 585.824,286.305 589.067,283.056 592.31,279.86 595.553,276.718 598.796,273.63 602.039,270.597 605.282,267.619 608.525,264.696 611.768,261.829 615.011,259.018 618.254,256.262 621.497,253.563 624.74,250.92 627.983,248.335 631.226,245.806 634.469,243.335 637.712,240.922 640.955,238.566 644.198,236.269 647.441,234.029 650.684,231.849 653.927,229.727 657.17,227.664 660.413,225.661 663.656,223.717 666.899,221.832 670.142,220.007 673.385,218.242 676.629,216.538 679.872,214.893 683.115,213.31 686.358,211.786 689.601,210.324 692.844,208.922 696.087,207.582 699.33,206.303 702.573,205.085 705.816,203.929 709.059,202.834 712.302,201.801 715.545,200.829 718.788,199.92 722.031,199.072 725.274,198.287 728.517,197.564 731.76,196.903 735.003,196.304 738.246,195.767 741.489,195.293 744.732,194.882 747.975,194.533 751.218,194.246 754.461,194.022 757.704,193.861 760.947,193.762 764.19,193.726 767.433,193.752 770.676,193.841 773.919,193.992 777.162,194.206 780.405,194.483 783.648,194.822 786.892,195.224 790.135,195.688 793.378,196.214 796.621,196.803 799.864,197.454 803.107,198.168 806.35,198.943 809.593,199.781 812.836,200.68 816.079,201.642 819.322,202.665 822.565,203.75 825.808,204.897 829.051,206.105 832.294,207.374 835.537,208.705 838.78,210.097 842.023,211.549 845.266,213.063 848.509,214.637 851.752,216.272 854.995,217.967 858.238,219.722 861.481,221.537 864.724,223.412 867.967,225.347 871.21,227.341 874.453,229.395 877.696,231.507 880.939,233.678 884.182,235.908 887.425,238.196 890.668,240.543 893.911,242.947 897.155,245.409 900.398,247.928 903.641,250.505 906.884,253.138 910.127,255.828 913.37,258.575 916.613,261.378 919.856,264.236 923.099,267.15 926.342,270.119 929.585,273.144 932.828,276.222 936.071,279.356 939.314,282.543 942.557,285.784 945.8,289.078 949.043,292.426 952.286,295.826 955.529,299.279 958.772,302.783 962.015,306.34 965.258,309.947 968.501,313.606 971.744,317.315 974.987,321.075 978.23,324.884 981.473,328.743 984.716,332.651 987.959,336.607 991.202,340.612 994.445,344.665 997.688,348.765 1000.93,352.913 1004.17,357.107 1007.42,361.347 1010.66,365.634 1013.9,369.965 1017.15,374.342 1020.39,378.763 1023.63,383.228 1026.88,387.737 1030.12,392.289 1033.36,396.884 1036.6,401.521 1039.85,406.2 1043.09,410.92 1046.33,415.682 1049.58,420.483 1052.82,425.325 1056.06,430.206 1059.31,435.126 1062.55,440.084 1065.79,445.08 1069.04,450.114 1072.28,455.185 1075.52,460.292 1078.76,465.435 1082.01,470.614 1085.25,475.827 1088.49,481.075 1091.74,486.357 1094.98,491.672 1098.22,497.02 1101.47,502.4 1104.71,507.812 1107.95,513.255 1111.19,518.728 1114.44,524.232 1117.68,529.765 1120.92,535.328 1124.17,540.919 1127.41,546.537 1130.65,552.183 1133.9,557.856 1137.14,563.555 1140.38,569.279 1143.62,575.029 1146.87,580.803 1150.11,586.601 1153.35,592.422 1156.6,598.266 1159.84,604.132 1163.08,610.02 1166.33,615.929 1169.57,621.858 1172.81,627.807 1176.06,633.775 1179.3,639.761 1182.54,645.766 1185.78,651.788 1189.03,657.827 1192.27,663.882 1195.51,669.952 1198.76,676.038 1202,682.138 1205.24,688.251 1208.49,694.378 1211.73,700.518 1214.97,706.669 1218.21,712.831 1221.46,719.005 1224.7,725.188 1227.94,731.381 1231.19,737.582 1234.43,743.792 1237.67,750.01 1240.92,756.234 1244.16,762.465 1247.4,768.701 1250.64,774.943 1253.89,781.189 1257.13,787.439 1260.37,793.692 1263.62,799.948 1266.86,806.206 1270.1,812.465 1273.35,818.724 1276.59,824.984 1279.83,831.244 1283.08,837.502 1286.32,843.758 1289.56,850.012 1292.8,856.263 1296.05,862.511 1299.29,868.754 1302.53,874.992 1305.78,881.225 1309.02,887.451 1312.26,893.671 1315.51,899.883 1318.75,906.087 1321.99,912.283 1325.23,918.47 1328.48,924.646 1331.72,930.812 1334.96,936.967 1338.21,943.11 1341.45,949.241 1344.69,955.359 1347.94,961.464 1351.18,967.554 1354.42,973.629 1357.66,979.689 1360.91,985.733 1364.15,991.761 1367.39,997.771 1370.64,1003.76 1373.88,1009.74 1377.12,1015.69 1380.37,1021.63 1383.61,1027.54 1386.85,1033.44 1390.1,1039.31 1393.34,1045.16 1396.58,1050.99 1399.82,1056.8 1403.07,1062.58 1406.31,1068.33 1409.55,1074.07 1412.8,1079.77 1416.04,1085.46 1419.28,1091.11 1422.53,1096.74 1425.77,1102.34 1429.01,1107.91 1432.25,1113.45 1435.5,1118.96 1438.74,1124.45 1441.98,1129.9 1445.23,1135.32 1448.47,1140.71 1451.71,1146.07 1454.96,1151.4 1458.2,1156.69 1461.44,1161.95 1464.68,1167.17 1467.93,1172.36 1471.17,1177.52 1474.41,1182.64 1477.66,1187.72 1480.9,1192.76 1484.14,1197.77 1487.39,1202.74 1490.63,1207.67 1493.87,1212.57 1497.11,1217.42 1500.36,1222.24 1503.6,1227.01 1506.84,1231.74 1510.09,1236.44 1513.33,1241.09 1516.57,1245.69 1519.82,1250.26 1523.06,1254.78 1526.3,1259.26 1529.55,1263.7 1532.79,1268.09 1536.03,1272.43 1539.27,1276.74 1542.52,1280.99 1545.76,1285.2 1549,1289.36 1552.25,1293.48 1555.49,1297.54 1558.73,1301.57 1561.98,1305.54 1565.22,1309.46 1568.46,1313.34 1571.7,1317.16 1574.95,1320.94 1578.19,1324.66 1581.43,1328.34 1584.68,1331.96 1587.92,1335.53 1591.16,1339.05 1594.41,1342.52 1597.65,1345.94 1600.89,1349.3 1604.13,1352.62 1607.38,1355.87 1610.62,1359.08 1613.86,1362.23 1617.11,1365.32 1620.35,1368.37 1623.59,1371.35 1626.84,1374.28 1630.08,1377.16 1633.32,1379.98 1636.57,1382.75 1639.81,1385.45 1643.05,1388.11 1646.29,1390.7 1649.54,1393.24 1652.78,1395.72 1656.02,1398.14 1659.27,1400.51 1662.51,1402.81 1665.75,1405.06 1669,1407.25 1672.24,1409.38 1675.48,1411.45 1678.72,1413.47 1681.97,1415.42 1685.21,1417.31 1688.45,1419.15 1691.7,1420.92 1694.94,1422.64 1698.18,1424.29 1701.43,1425.89 1704.67,1427.42 1707.91,1428.89 1711.15,1430.3 1714.4,1431.65 1717.64,1432.94 1720.88,1434.17 1724.13,1435.33 1727.37,1436.44 1730.61,1437.48 1733.86,1438.46 1737.1,1439.38 1740.34,1440.24 1743.59,1441.03 1746.83,1441.77 1750.07,1442.44 1753.31,1443.05 1756.56,1443.59 1759.8,1444.08 1763.04,1444.5 1766.29,1444.86 1769.53,1445.16 1772.77,1445.39 1776.02,1445.56 1779.26,1445.67 1782.5,1445.72 1785.74,1445.7 1788.99,1445.62 1792.23,1445.48 1795.47,1445.27 1798.72,1445.01 1801.96,1444.68 1805.2,1444.29 1808.45,1443.83 1811.69,1443.32 1814.93,1442.74 1818.17,1442.1 1821.42,1441.39 1824.66,1440.63 1827.9,1439.8 1831.15,1438.91 1834.39,1437.96 1837.63,1436.94 1840.88,1435.87 1844.12,1434.73 1847.36,1433.53 1850.61,1432.27 1853.85,1430.95 1857.09,1429.57 1860.33,1428.13 1863.58,1426.63 1866.82,1425.06 1870.06,1423.44 1873.31,1421.75 1876.55,1420 1879.79,1418.2 1883.04,1416.33 1886.28,1414.41 1889.52,1412.42 1892.76,1410.38 1896.01,1408.28 1899.25,1406.11 1902.49,1403.89 1905.74,1401.61 1908.98,1399.28 1912.22,1396.88 1915.47,1394.43 1918.71,1391.92 1921.95,1389.35 1925.19,1386.73 1928.44,1384.05 1931.68,1381.31 1934.92,1378.52 1938.17,1375.67 1941.41,1372.76 1944.65,1369.8 1947.9,1366.78 1951.14,1363.71 1954.38,1360.59 1957.63,1357.41 1960.87,1354.18 1964.11,1350.89 1967.35,1347.55 1970.6,1344.16 1973.84,1340.72 1977.08,1337.22 1980.33,1333.67 1983.57,1330.07 1986.81,1326.42 1990.06,1322.72 1993.3,1318.97 1996.54,1315.17 1999.78,1311.32 2003.03,1307.42 2006.27,1303.47 2009.51,1299.47 2012.76,1295.43 2016,1291.33 2019.24,1287.19 2022.49,1283.01 2025.73,1278.77 2028.97,1274.49 2032.21,1270.17 2035.46,1265.8 2038.7,1261.39 2041.94,1256.93 2045.19,1252.43 2048.43,1247.88 2051.67,1243.29 2054.92,1238.66 2058.16,1233.99 2061.4,1229.28 2064.65,1224.52 2067.89,1219.73 2071.13,1214.89 2074.37,1210.02 2077.62,1205.1 2080.86,1200.15 2084.1,1195.16 2087.35,1190.13 2090.59,1185.07 2093.83,1179.97 2097.08,1174.83 2100.32,1169.66 2103.56,1164.45 2106.8,1159.21 2110.05,1153.93 2113.29,1148.62 2116.53,1143.28 2119.78,1137.9 2123.02,1132.5 2126.26,1127.06 2129.51,1121.59 2132.75,1116.09 2135.99,1110.56 2139.23,1105 2142.48,1099.42 2145.72,1093.8 2148.96,1088.16 2152.21,1082.49 2155.45,1076.8 2158.69,1071.08 2161.94,1065.33 2165.18,1059.56 2168.42,1053.77 2171.67,1047.95 2174.91,1042.11 2178.15,1036.25 2181.39,1030.36 2184.64,1024.46 2187.88,1018.53 2191.12,1012.58 2194.37,1006.62 2197.61,1000.64 2200.85,994.634 2204.1,988.615 2207.34,982.579 2210.58,976.527 2213.82,970.458 2217.07,964.375 2220.31,958.278 2223.55,952.166 2226.8,946.041 2230.04,939.904 2233.28,933.754 2236.53,927.594 2239.77,921.422 2243.01,915.24 2246.25,909.049 2249.5,902.849 2252.74,896.64 2255.98,890.424 2259.23,884.2 2262.47,877.971 2265.71,871.735 2268.96,865.494 2272.2,859.249 2275.44,852.999 2278.69,846.747 2281.93,840.491 2285.17,834.234 2288.41,827.975 2291.66,821.715 "/>
<circle clip-path="url(#clip531)" cx="1150.11" cy="569.004" r="14.4" fill="#e26f46" fill-rule="evenodd" fill-opacity="1" stroke="#000000" stroke-opacity="1" stroke-width="3.2"/>
<circle clip-path="url(#clip531)" cx="644.198" cy="335.087" r="14.4" fill="#e26f46" fill-rule="evenodd" fill-opacity="1" stroke="#000000" stroke-opacity="1" stroke-width="3.2"/>
<circle clip-path="url(#clip531)" cx="1360.91" cy="951.662" r="14.4" fill="#e26f46" fill-rule="evenodd" fill-opacity="1" stroke="#000000" stroke-opacity="1" stroke-width="3.2"/>
<circle clip-path="url(#clip531)" cx="1393.34" cy="982.163" r="14.4" fill="#e26f46" fill-rule="evenodd" fill-opacity="1" stroke="#000000" stroke-opacity="1" stroke-width="3.2"/>
<circle clip-path="url(#clip531)" cx="867.967" cy="87.9763" r="14.4" fill="#e26f46" fill-rule="evenodd" fill-opacity="1" stroke="#000000" stroke-opacity="1" stroke-width="3.2"/>
<circle clip-path="url(#clip531)" cx="1159.84" cy="525.756" r="14.4" fill="#e26f46" fill-rule="evenodd" fill-opacity="1" stroke="#000000" stroke-opacity="1" stroke-width="3.2"/>
<circle clip-path="url(#clip531)" cx="1292.8" cy="743.688" r="14.4" fill="#e26f46" fill-rule="evenodd" fill-opacity="1" stroke="#000000" stroke-opacity="1" stroke-width="3.2"/>
<circle clip-path="url(#clip531)" cx="2003.03" cy="1376.91" r="14.4" fill="#e26f46" fill-rule="evenodd" fill-opacity="1" stroke="#000000" stroke-opacity="1" stroke-width="3.2"/>
<circle clip-path="url(#clip531)" cx="1594.41" cy="1217.08" r="14.4" fill="#e26f46" fill-rule="evenodd" fill-opacity="1" stroke="#000000" stroke-opacity="1" stroke-width="3.2"/>
<circle clip-path="url(#clip531)" cx="1947.9" cy="1291.53" r="14.4" fill="#e26f46" fill-rule="evenodd" fill-opacity="1" stroke="#000000" stroke-opacity="1" stroke-width="3.2"/>
<circle clip-path="url(#clip531)" cx="436.644" cy="343.245" r="14.4" fill="#e26f46" fill-rule="evenodd" fill-opacity="1" stroke="#000000" stroke-opacity="1" stroke-width="3.2"/>
<circle clip-path="url(#clip531)" cx="439.887" cy="505.12" r="14.4" fill="#e26f46" fill-rule="evenodd" fill-opacity="1" stroke="#000000" stroke-opacity="1" stroke-width="3.2"/>
<circle clip-path="url(#clip531)" cx="897.155" cy="204.172" r="14.4" fill="#e26f46" fill-rule="evenodd" fill-opacity="1" stroke="#000000" stroke-opacity="1" stroke-width="3.2"/>
<circle clip-path="url(#clip531)" cx="1211.73" cy="850.05" r="14.4" fill="#e26f46" fill-rule="evenodd" fill-opacity="1" stroke="#000000" stroke-opacity="1" stroke-width="3.2"/>
<circle clip-path="url(#clip531)" cx="1649.54" cy="1287.67" r="14.4" fill="#e26f46" fill-rule="evenodd" fill-opacity="1" stroke="#000000" stroke-opacity="1" stroke-width="3.2"/>
<circle clip-path="url(#clip531)" cx="365.298" cy="621.453" r="14.4" fill="#e26f46" fill-rule="evenodd" fill-opacity="1" stroke="#000000" stroke-opacity="1" stroke-width="3.2"/>
<circle clip-path="url(#clip531)" cx="634.469" cy="242.864" r="14.4" fill="#e26f46" fill-rule="evenodd" fill-opacity="1" stroke="#000000" stroke-opacity="1" stroke-width="3.2"/>
<circle clip-path="url(#clip531)" cx="1947.9" cy="1434.84" r="14.4" fill="#e26f46" fill-rule="evenodd" fill-opacity="1" stroke="#000000" stroke-opacity="1" stroke-width="3.2"/>
<circle clip-path="url(#clip531)" cx="812.836" cy="173.258" r="14.4" fill="#e26f46" fill-rule="evenodd" fill-opacity="1" stroke="#000000" stroke-opacity="1" stroke-width="3.2"/>
<circle clip-path="url(#clip531)" cx="1211.73" cy="682.63" r="14.4" fill="#e26f46" fill-rule="evenodd" fill-opacity="1" stroke="#000000" stroke-opacity="1" stroke-width="3.2"/>
<path clip-path="url(#clip530)" d="M1953.46 250.738 L2280.8 250.738 L2280.8 95.2176 L1953.46 95.2176  Z" fill="#ffffff" fill-rule="evenodd" fill-opacity="1"/>
<polyline clip-path="url(#clip530)" style="stroke:#000000; stroke-linecap:round; stroke-linejoin:round; stroke-width:4; stroke-opacity:1; fill:none" points="1953.46,250.738 2280.8,250.738 2280.8,95.2176 1953.46,95.2176 1953.46,250.738 "/>
<polyline clip-path="url(#clip530)" style="stroke:#009af9; stroke-linecap:round; stroke-linejoin:round; stroke-width:4; stroke-opacity:1; fill:none" points="1977.44,147.058 2121.36,147.058 "/>
<path clip-path="url(#clip530)" d="M2152.76 131.051 L2152.76 138.412 L2161.53 138.412 L2161.53 141.722 L2152.76 141.722 L2152.76 155.796 Q2152.76 158.967 2153.61 159.87 Q2154.49 160.773 2157.16 160.773 L2161.53 160.773 L2161.53 164.338 L2157.16 164.338 Q2152.23 164.338 2150.35 162.509 Q2148.48 160.657 2148.48 155.796 L2148.48 141.722 L2145.35 141.722 L2145.35 138.412 L2148.48 138.412 L2148.48 131.051 L2152.76 131.051 Z" fill="#000000" fill-rule="nonzero" fill-opacity="1" /><path clip-path="url(#clip530)" d="M2182.16 142.393 Q2181.44 141.977 2180.58 141.791 Q2179.75 141.583 2178.73 141.583 Q2175.12 141.583 2173.17 143.944 Q2171.25 146.282 2171.25 150.68 L2171.25 164.338 L2166.97 164.338 L2166.97 138.412 L2171.25 138.412 L2171.25 142.44 Q2172.6 140.078 2174.75 138.944 Q2176.9 137.787 2179.98 137.787 Q2180.42 137.787 2180.95 137.856 Q2181.48 137.903 2182.13 138.018 L2182.16 142.393 Z" fill="#000000" fill-rule="nonzero" fill-opacity="1" /><path clip-path="url(#clip530)" d="M2186.18 154.106 L2186.18 138.412 L2190.44 138.412 L2190.44 153.944 Q2190.44 157.625 2191.88 159.476 Q2193.31 161.305 2196.18 161.305 Q2199.63 161.305 2201.62 159.106 Q2203.64 156.907 2203.64 153.111 L2203.64 138.412 L2207.9 138.412 L2207.9 164.338 L2203.64 164.338 L2203.64 160.356 Q2202.09 162.717 2200.03 163.875 Q2197.99 165.009 2195.28 165.009 Q2190.81 165.009 2188.5 162.231 Q2186.18 159.453 2186.18 154.106 M2196.9 137.787 L2196.9 137.787 Z" fill="#000000" fill-rule="nonzero" fill-opacity="1" /><path clip-path="url(#clip530)" d="M2220.88 131.051 L2220.88 138.412 L2229.66 138.412 L2229.66 141.722 L2220.88 141.722 L2220.88 155.796 Q2220.88 158.967 2221.74 159.87 Q2222.62 160.773 2225.28 160.773 L2229.66 160.773 L2229.66 164.338 L2225.28 164.338 Q2220.35 164.338 2218.48 162.509 Q2216.6 160.657 2216.6 155.796 L2216.6 141.722 L2213.48 141.722 L2213.48 138.412 L2216.6 138.412 L2216.6 131.051 L2220.88 131.051 Z" fill="#000000" fill-rule="nonzero" fill-opacity="1" /><path clip-path="url(#clip530)" d="M2256.81 148.689 L2256.81 164.338 L2252.55 164.338 L2252.55 148.828 Q2252.55 145.148 2251.11 143.319 Q2249.68 141.49 2246.81 141.49 Q2243.36 141.49 2241.37 143.69 Q2239.38 145.889 2239.38 149.685 L2239.38 164.338 L2235.1 164.338 L2235.1 128.319 L2239.38 128.319 L2239.38 142.44 Q2240.91 140.102 2242.97 138.944 Q2245.05 137.787 2247.76 137.787 Q2252.23 137.787 2254.52 140.565 Q2256.81 143.319 2256.81 148.689 Z" fill="#000000" fill-rule="nonzero" fill-opacity="1" /><circle clip-path="url(#clip530)" cx="2049.4" cy="198.898" r="20.48" fill="#e26f46" fill-rule="evenodd" fill-opacity="1" stroke="#000000" stroke-opacity="1" stroke-width="4.55111"/>
<path clip-path="url(#clip530)" d="M2164.26 194.187 L2164.26 180.159 L2168.52 180.159 L2168.52 216.178 L2164.26 216.178 L2164.26 212.289 Q2162.92 214.603 2160.86 215.738 Q2158.82 216.849 2155.95 216.849 Q2151.25 216.849 2148.29 213.099 Q2145.35 209.349 2145.35 203.238 Q2145.35 197.127 2148.29 193.377 Q2151.25 189.627 2155.95 189.627 Q2158.82 189.627 2160.86 190.761 Q2162.92 191.872 2164.26 194.187 M2149.75 203.238 Q2149.75 207.937 2151.67 210.622 Q2153.61 213.284 2156.99 213.284 Q2160.37 213.284 2162.32 210.622 Q2164.26 207.937 2164.26 203.238 Q2164.26 198.539 2162.32 195.877 Q2160.37 193.192 2156.99 193.192 Q2153.61 193.192 2151.67 195.877 Q2149.75 198.539 2149.75 203.238 Z" fill="#000000" fill-rule="nonzero" fill-opacity="1" /><path clip-path="url(#clip530)" d="M2189.08 203.145 Q2183.92 203.145 2181.92 204.326 Q2179.93 205.506 2179.93 208.354 Q2179.93 210.622 2181.42 211.965 Q2182.92 213.284 2185.49 213.284 Q2189.03 213.284 2191.16 210.784 Q2193.31 208.261 2193.31 204.094 L2193.31 203.145 L2189.08 203.145 M2197.57 201.386 L2197.57 216.178 L2193.31 216.178 L2193.31 212.242 Q2191.85 214.603 2189.68 215.738 Q2187.5 216.849 2184.36 216.849 Q2180.37 216.849 2178.01 214.627 Q2175.67 212.381 2175.67 208.631 Q2175.67 204.256 2178.59 202.034 Q2181.53 199.812 2187.34 199.812 L2193.31 199.812 L2193.31 199.395 Q2193.31 196.455 2191.37 194.858 Q2189.45 193.238 2185.95 193.238 Q2183.73 193.238 2181.62 193.77 Q2179.52 194.303 2177.57 195.367 L2177.57 191.432 Q2179.91 190.53 2182.11 190.09 Q2184.31 189.627 2186.39 189.627 Q2192.02 189.627 2194.79 192.543 Q2197.57 195.46 2197.57 201.386 Z" fill="#000000" fill-rule="nonzero" fill-opacity="1" /><path clip-path="url(#clip530)" d="M2210.56 182.891 L2210.56 190.252 L2219.33 190.252 L2219.33 193.562 L2210.56 193.562 L2210.56 207.636 Q2210.56 210.807 2211.42 211.71 Q2212.29 212.613 2214.96 212.613 L2219.33 212.613 L2219.33 216.178 L2214.96 216.178 Q2210.03 216.178 2208.15 214.349 Q2206.28 212.497 2206.28 207.636 L2206.28 193.562 L2203.15 193.562 L2203.15 190.252 L2206.28 190.252 L2206.28 182.891 L2210.56 182.891 Z" fill="#000000" fill-rule="nonzero" fill-opacity="1" /><path clip-path="url(#clip530)" d="M2236.72 203.145 Q2231.55 203.145 2229.56 204.326 Q2227.57 205.506 2227.57 208.354 Q2227.57 210.622 2229.05 211.965 Q2230.56 213.284 2233.13 213.284 Q2236.67 213.284 2238.8 210.784 Q2240.95 208.261 2240.95 204.094 L2240.95 203.145 L2236.72 203.145 M2245.21 201.386 L2245.21 216.178 L2240.95 216.178 L2240.95 212.242 Q2239.49 214.603 2237.32 215.738 Q2235.14 216.849 2231.99 216.849 Q2228.01 216.849 2225.65 214.627 Q2223.31 212.381 2223.31 208.631 Q2223.31 204.256 2226.23 202.034 Q2229.17 199.812 2234.98 199.812 L2240.95 199.812 L2240.95 199.395 Q2240.95 196.455 2239.01 194.858 Q2237.09 193.238 2233.59 193.238 Q2231.37 193.238 2229.26 193.77 Q2227.16 194.303 2225.21 195.367 L2225.21 191.432 Q2227.55 190.53 2229.75 190.09 Q2231.95 189.627 2234.03 189.627 Q2239.66 189.627 2242.43 192.543 Q2245.21 195.46 2245.21 201.386 Z" fill="#000000" fill-rule="nonzero" fill-opacity="1" /></svg>
