<?xml version="1.0" encoding="utf-8"?>
<svg xmlns="http://www.w3.org/2000/svg" xmlns:xlink="http://www.w3.org/1999/xlink" width="600" height="400" viewBox="0 0 2400 1600">
<defs>
  <clipPath id="clip660">
    <rect x="0" y="0" width="2400" height="1600"/>
  </clipPath>
</defs>
<path clip-path="url(#clip660)" d="M0 1600 L2400 1600 L2400 0 L0 0  Z" fill="#ffffff" fill-rule="evenodd" fill-opacity="1"/>
<defs>
  <clipPath id="clip661">
    <rect x="480" y="0" width="1681" height="1600"/>
  </clipPath>
</defs>
<path clip-path="url(#clip660)" d="M193.936 1486.45 L2352.76 1486.45 L2352.76 47.2441 L193.936 47.2441  Z" fill="#ffffff" fill-rule="evenodd" fill-opacity="1"/>
<defs>
  <clipPath id="clip662">
    <rect x="193" y="47" width="2160" height="1440"/>
  </clipPath>
</defs>
<polyline clip-path="url(#clip662)" style="stroke:#000000; stroke-linecap:round; stroke-linejoin:round; stroke-width:2; stroke-opacity:0.1; fill:none" points="255.035,1486.45 255.035,47.2441 "/>
<polyline clip-path="url(#clip662)" style="stroke:#000000; stroke-linecap:round; stroke-linejoin:round; stroke-width:2; stroke-opacity:0.1; fill:none" points="579.338,1486.45 579.338,47.2441 "/>
<polyline clip-path="url(#clip662)" style="stroke:#000000; stroke-linecap:round; stroke-linejoin:round; stroke-width:2; stroke-opacity:0.1; fill:none" points="903.641,1486.45 903.641,47.2441 "/>
<polyline clip-path="url(#clip662)" style="stroke:#000000; stroke-linecap:round; stroke-linejoin:round; stroke-width:2; stroke-opacity:0.1; fill:none" points="1227.94,1486.45 1227.94,47.2441 "/>
<polyline clip-path="url(#clip662)" style="stroke:#000000; stroke-linecap:round; stroke-linejoin:round; stroke-width:2; stroke-opacity:0.1; fill:none" points="1552.25,1486.45 1552.25,47.2441 "/>
<polyline clip-path="url(#clip662)" style="stroke:#000000; stroke-linecap:round; stroke-linejoin:round; stroke-width:2; stroke-opacity:0.1; fill:none" points="1876.55,1486.45 1876.55,47.2441 "/>
<polyline clip-path="url(#clip662)" style="stroke:#000000; stroke-linecap:round; stroke-linejoin:round; stroke-width:2; stroke-opacity:0.1; fill:none" points="2200.85,1486.45 2200.85,47.2441 "/>
<polyline clip-path="url(#clip662)" style="stroke:#000000; stroke-linecap:round; stroke-linejoin:round; stroke-width:2; stroke-opacity:0.1; fill:none" points="193.936,1337.87 2352.76,1337.87 "/>
<polyline clip-path="url(#clip662)" style="stroke:#000000; stroke-linecap:round; stroke-linejoin:round; stroke-width:2; stroke-opacity:0.1; fill:none" points="193.936,1039.82 2352.76,1039.82 "/>
<polyline clip-path="url(#clip662)" style="stroke:#000000; stroke-linecap:round; stroke-linejoin:round; stroke-width:2; stroke-opacity:0.1; fill:none" points="193.936,741.774 2352.76,741.774 "/>
<polyline clip-path="url(#clip662)" style="stroke:#000000; stroke-linecap:round; stroke-linejoin:round; stroke-width:2; stroke-opacity:0.1; fill:none" points="193.936,443.727 2352.76,443.727 "/>
<polyline clip-path="url(#clip662)" style="stroke:#000000; stroke-linecap:round; stroke-linejoin:round; stroke-width:2; stroke-opacity:0.1; fill:none" points="193.936,145.68 2352.76,145.68 "/>
<polyline clip-path="url(#clip660)" style="stroke:#000000; stroke-linecap:round; stroke-linejoin:round; stroke-width:4; stroke-opacity:1; fill:none" points="193.936,1486.45 2352.76,1486.45 "/>
<polyline clip-path="url(#clip660)" style="stroke:#000000; stroke-linecap:round; stroke-linejoin:round; stroke-width:4; stroke-opacity:1; fill:none" points="255.035,1486.45 255.035,1467.55 "/>
<polyline clip-path="url(#clip660)" style="stroke:#000000; stroke-linecap:round; stroke-linejoin:round; stroke-width:4; stroke-opacity:1; fill:none" points="579.338,1486.45 579.338,1467.55 "/>
<polyline clip-path="url(#clip660)" style="stroke:#000000; stroke-linecap:round; stroke-linejoin:round; stroke-width:4; stroke-opacity:1; fill:none" points="903.641,1486.45 903.641,1467.55 "/>
<polyline clip-path="url(#clip660)" style="stroke:#000000; stroke-linecap:round; stroke-linejoin:round; stroke-width:4; stroke-opacity:1; fill:none" points="1227.94,1486.45 1227.94,1467.55 "/>
<polyline clip-path="url(#clip660)" style="stroke:#000000; stroke-linecap:round; stroke-linejoin:round; stroke-width:4; stroke-opacity:1; fill:none" points="1552.25,1486.45 1552.25,1467.55 "/>
<polyline clip-path="url(#clip660)" style="stroke:#000000; stroke-linecap:round; stroke-linejoin:round; stroke-width:4; stroke-opacity:1; fill:none" points="1876.55,1486.45 1876.55,1467.55 "/>
<polyline clip-path="url(#clip660)" style="stroke:#000000; stroke-linecap:round; stroke-linejoin:round; stroke-width:4; stroke-opacity:1; fill:none" points="2200.85,1486.45 2200.85,1467.55 "/>
<path clip-path="url(#clip660)" d="M255.035 1517.37 Q251.424 1517.37 249.595 1520.93 Q247.789 1524.47 247.789 1531.6 Q247.789 1538.71 249.595 1542.27 Q251.424 1545.82 255.035 1545.82 Q258.669 1545.82 260.474 1542.27 Q262.303 1538.71 262.303 1531.6 Q262.303 1524.47 260.474 1520.93 Q258.669 1517.37 255.035 1517.37 M255.035 1513.66 Q260.845 1513.66 263.9 1518.27 Q266.979 1522.85 266.979 1531.6 Q266.979 1540.33 263.9 1544.94 Q260.845 1549.52 255.035 1549.52 Q249.225 1549.52 246.146 1544.94 Q243.09 1540.33 243.09 1531.6 Q243.09 1522.85 246.146 1518.27 Q249.225 1513.66 255.035 1513.66 Z" fill="#000000" fill-rule="nonzero" fill-opacity="1" /><path clip-path="url(#clip660)" d="M569.72 1544.91 L577.358 1544.91 L577.358 1518.55 L569.048 1520.21 L569.048 1515.95 L577.312 1514.29 L581.988 1514.29 L581.988 1544.91 L589.627 1544.91 L589.627 1548.85 L569.72 1548.85 L569.72 1544.91 Z" fill="#000000" fill-rule="nonzero" fill-opacity="1" /><path clip-path="url(#clip660)" d="M898.293 1544.91 L914.613 1544.91 L914.613 1548.85 L892.668 1548.85 L892.668 1544.91 Q895.33 1542.16 899.914 1537.53 Q904.52 1532.88 905.701 1531.53 Q907.946 1529.01 908.826 1527.27 Q909.729 1525.51 909.729 1523.82 Q909.729 1521.07 907.784 1519.33 Q905.863 1517.6 902.761 1517.6 Q900.562 1517.6 898.108 1518.36 Q895.678 1519.13 892.9 1520.68 L892.9 1515.95 Q895.724 1514.82 898.178 1514.24 Q900.631 1513.66 902.668 1513.66 Q908.039 1513.66 911.233 1516.35 Q914.428 1519.03 914.428 1523.52 Q914.428 1525.65 913.617 1527.57 Q912.83 1529.47 910.724 1532.07 Q910.145 1532.74 907.043 1535.95 Q903.942 1539.15 898.293 1544.91 Z" fill="#000000" fill-rule="nonzero" fill-opacity="1" /><path clip-path="url(#clip660)" d="M1232.19 1530.21 Q1235.55 1530.93 1237.42 1533.2 Q1239.32 1535.47 1239.32 1538.8 Q1239.32 1543.92 1235.8 1546.72 Q1232.28 1549.52 1225.8 1549.52 Q1223.63 1549.52 1221.31 1549.08 Q1219.02 1548.66 1216.57 1547.81 L1216.57 1543.29 Q1218.51 1544.43 1220.83 1545.01 Q1223.14 1545.58 1225.66 1545.58 Q1230.06 1545.58 1232.35 1543.85 Q1234.67 1542.11 1234.67 1538.8 Q1234.67 1535.75 1232.52 1534.03 Q1230.39 1532.3 1226.57 1532.3 L1222.54 1532.3 L1222.54 1528.45 L1226.75 1528.45 Q1230.2 1528.45 1232.03 1527.09 Q1233.86 1525.7 1233.86 1523.11 Q1233.86 1520.45 1231.96 1519.03 Q1230.08 1517.6 1226.57 1517.6 Q1224.64 1517.6 1222.45 1518.01 Q1220.25 1518.43 1217.61 1519.31 L1217.61 1515.14 Q1220.27 1514.4 1222.58 1514.03 Q1224.92 1513.66 1226.98 1513.66 Q1232.31 1513.66 1235.41 1516.09 Q1238.51 1518.5 1238.51 1522.62 Q1238.51 1525.49 1236.87 1527.48 Q1235.22 1529.45 1232.19 1530.21 Z" fill="#000000" fill-rule="nonzero" fill-opacity="1" /><path clip-path="url(#clip660)" d="M1555.26 1518.36 L1543.45 1536.81 L1555.26 1536.81 L1555.26 1518.36 M1554.03 1514.29 L1559.91 1514.29 L1559.91 1536.81 L1564.84 1536.81 L1564.84 1540.7 L1559.91 1540.7 L1559.91 1548.85 L1555.26 1548.85 L1555.26 1540.7 L1539.65 1540.7 L1539.65 1536.19 L1554.03 1514.29 Z" fill="#000000" fill-rule="nonzero" fill-opacity="1" /><path clip-path="url(#clip660)" d="M1866.83 1514.29 L1885.18 1514.29 L1885.18 1518.22 L1871.11 1518.22 L1871.11 1526.7 Q1872.13 1526.35 1873.15 1526.19 Q1874.17 1526 1875.18 1526 Q1880.97 1526 1884.35 1529.17 Q1887.73 1532.34 1887.73 1537.76 Q1887.73 1543.34 1884.26 1546.44 Q1880.79 1549.52 1874.47 1549.52 Q1872.29 1549.52 1870.02 1549.15 Q1867.78 1548.78 1865.37 1548.04 L1865.37 1543.34 Q1867.45 1544.47 1869.67 1545.03 Q1871.9 1545.58 1874.37 1545.58 Q1878.38 1545.58 1880.72 1543.48 Q1883.05 1541.37 1883.05 1537.76 Q1883.05 1534.15 1880.72 1532.04 Q1878.38 1529.94 1874.37 1529.94 Q1872.5 1529.94 1870.62 1530.35 Q1868.77 1530.77 1866.83 1531.65 L1866.83 1514.29 Z" fill="#000000" fill-rule="nonzero" fill-opacity="1" /><path clip-path="url(#clip660)" d="M2201.26 1529.7 Q2198.11 1529.7 2196.26 1531.86 Q2194.43 1534.01 2194.43 1537.76 Q2194.43 1541.49 2196.26 1543.66 Q2198.11 1545.82 2201.26 1545.82 Q2204.41 1545.82 2206.23 1543.66 Q2208.09 1541.49 2208.09 1537.76 Q2208.09 1534.01 2206.23 1531.86 Q2204.41 1529.7 2201.26 1529.7 M2210.54 1515.05 L2210.54 1519.31 Q2208.78 1518.48 2206.98 1518.04 Q2205.19 1517.6 2203.43 1517.6 Q2198.8 1517.6 2196.35 1520.72 Q2193.92 1523.85 2193.57 1530.17 Q2194.94 1528.15 2197 1527.09 Q2199.06 1526 2201.54 1526 Q2206.74 1526 2209.75 1529.17 Q2212.79 1532.32 2212.79 1537.76 Q2212.79 1543.08 2209.64 1546.3 Q2206.49 1549.52 2201.26 1549.52 Q2195.26 1549.52 2192.09 1544.94 Q2188.92 1540.33 2188.92 1531.6 Q2188.92 1523.41 2192.81 1518.55 Q2196.7 1513.66 2203.25 1513.66 Q2205.01 1513.66 2206.79 1514.01 Q2208.6 1514.36 2210.54 1515.05 Z" fill="#000000" fill-rule="nonzero" fill-opacity="1" /><polyline clip-path="url(#clip660)" style="stroke:#000000; stroke-linecap:round; stroke-linejoin:round; stroke-width:4; stroke-opacity:1; fill:none" points="193.936,1486.45 193.936,47.2441 "/>
<polyline clip-path="url(#clip660)" style="stroke:#000000; stroke-linecap:round; stroke-linejoin:round; stroke-width:4; stroke-opacity:1; fill:none" points="193.936,1337.87 212.834,1337.87 "/>
<polyline clip-path="url(#clip660)" style="stroke:#000000; stroke-linecap:round; stroke-linejoin:round; stroke-width:4; stroke-opacity:1; fill:none" points="193.936,1039.82 212.834,1039.82 "/>
<polyline clip-path="url(#clip660)" style="stroke:#000000; stroke-linecap:round; stroke-linejoin:round; stroke-width:4; stroke-opacity:1; fill:none" points="193.936,741.774 212.834,741.774 "/>
<polyline clip-path="url(#clip660)" style="stroke:#000000; stroke-linecap:round; stroke-linejoin:round; stroke-width:4; stroke-opacity:1; fill:none" points="193.936,443.727 212.834,443.727 "/>
<polyline clip-path="url(#clip660)" style="stroke:#000000; stroke-linecap:round; stroke-linejoin:round; stroke-width:4; stroke-opacity:1; fill:none" points="193.936,145.68 212.834,145.68 "/>
<path clip-path="url(#clip660)" d="M50.9921 1338.32 L80.6679 1338.32 L80.6679 1342.25 L50.9921 1342.25 L50.9921 1338.32 Z" fill="#000000" fill-rule="nonzero" fill-opacity="1" /><path clip-path="url(#clip660)" d="M91.5706 1351.21 L99.2095 1351.21 L99.2095 1324.85 L90.8993 1326.51 L90.8993 1322.25 L99.1632 1320.59 L103.839 1320.59 L103.839 1351.21 L111.478 1351.21 L111.478 1355.15 L91.5706 1355.15 L91.5706 1351.21 Z" fill="#000000" fill-rule="nonzero" fill-opacity="1" /><path clip-path="url(#clip660)" d="M120.922 1349.27 L125.807 1349.27 L125.807 1355.15 L120.922 1355.15 L120.922 1349.27 Z" fill="#000000" fill-rule="nonzero" fill-opacity="1" /><path clip-path="url(#clip660)" d="M145.992 1323.67 Q142.381 1323.67 140.552 1327.23 Q138.746 1330.77 138.746 1337.9 Q138.746 1345.01 140.552 1348.57 Q142.381 1352.12 145.992 1352.12 Q149.626 1352.12 151.431 1348.57 Q153.26 1345.01 153.26 1337.9 Q153.26 1330.77 151.431 1327.23 Q149.626 1323.67 145.992 1323.67 M145.992 1319.96 Q151.802 1319.96 154.857 1324.57 Q157.936 1329.15 157.936 1337.9 Q157.936 1346.63 154.857 1351.24 Q151.802 1355.82 145.992 1355.82 Q140.181 1355.82 137.103 1351.24 Q134.047 1346.63 134.047 1337.9 Q134.047 1329.15 137.103 1324.57 Q140.181 1319.96 145.992 1319.96 Z" fill="#000000" fill-rule="nonzero" fill-opacity="1" /><path clip-path="url(#clip660)" d="M51.9875 1040.27 L81.6633 1040.27 L81.6633 1044.21 L51.9875 1044.21 L51.9875 1040.27 Z" fill="#000000" fill-rule="nonzero" fill-opacity="1" /><path clip-path="url(#clip660)" d="M101.756 1025.62 Q98.1447 1025.62 96.316 1029.18 Q94.5104 1032.73 94.5104 1039.86 Q94.5104 1046.96 96.316 1050.53 Q98.1447 1054.07 101.756 1054.07 Q105.39 1054.07 107.196 1050.53 Q109.024 1046.96 109.024 1039.86 Q109.024 1032.73 107.196 1029.18 Q105.39 1025.62 101.756 1025.62 M101.756 1021.92 Q107.566 1021.92 110.621 1026.52 Q113.7 1031.11 113.7 1039.86 Q113.7 1048.58 110.621 1053.19 Q107.566 1057.77 101.756 1057.77 Q95.9456 1057.77 92.8669 1053.19 Q89.8114 1048.58 89.8114 1039.86 Q89.8114 1031.11 92.8669 1026.52 Q95.9456 1021.92 101.756 1021.92 Z" fill="#000000" fill-rule="nonzero" fill-opacity="1" /><path clip-path="url(#clip660)" d="M121.918 1051.22 L126.802 1051.22 L126.802 1057.1 L121.918 1057.1 L121.918 1051.22 Z" fill="#000000" fill-rule="nonzero" fill-opacity="1" /><path clip-path="url(#clip660)" d="M137.033 1022.54 L155.39 1022.54 L155.39 1026.48 L141.316 1026.48 L141.316 1034.95 Q142.334 1034.6 143.353 1034.44 Q144.371 1034.25 145.39 1034.25 Q151.177 1034.25 154.556 1037.42 Q157.936 1040.6 157.936 1046.01 Q157.936 1051.59 154.464 1054.69 Q150.992 1057.77 144.672 1057.77 Q142.496 1057.77 140.228 1057.4 Q137.982 1057.03 135.575 1056.29 L135.575 1051.59 Q137.658 1052.73 139.881 1053.28 Q142.103 1053.84 144.58 1053.84 Q148.584 1053.84 150.922 1051.73 Q153.26 1049.62 153.26 1046.01 Q153.26 1042.4 150.922 1040.3 Q148.584 1038.19 144.58 1038.19 Q142.705 1038.19 140.83 1038.61 Q138.978 1039.02 137.033 1039.9 L137.033 1022.54 Z" fill="#000000" fill-rule="nonzero" fill-opacity="1" /><path clip-path="url(#clip660)" d="M100.76 727.572 Q97.1493 727.572 95.3206 731.137 Q93.515 734.679 93.515 741.808 Q93.515 748.915 95.3206 752.48 Q97.1493 756.021 100.76 756.021 Q104.395 756.021 106.2 752.48 Q108.029 748.915 108.029 741.808 Q108.029 734.679 106.2 731.137 Q104.395 727.572 100.76 727.572 M100.76 723.869 Q106.571 723.869 109.626 728.475 Q112.705 733.058 112.705 741.808 Q112.705 750.535 109.626 755.142 Q106.571 759.725 100.76 759.725 Q94.9502 759.725 91.8715 755.142 Q88.816 750.535 88.816 741.808 Q88.816 733.058 91.8715 728.475 Q94.9502 723.869 100.76 723.869 Z" fill="#000000" fill-rule="nonzero" fill-opacity="1" /><path clip-path="url(#clip660)" d="M120.922 753.174 L125.807 753.174 L125.807 759.054 L120.922 759.054 L120.922 753.174 Z" fill="#000000" fill-rule="nonzero" fill-opacity="1" /><path clip-path="url(#clip660)" d="M145.992 727.572 Q142.381 727.572 140.552 731.137 Q138.746 734.679 138.746 741.808 Q138.746 748.915 140.552 752.48 Q142.381 756.021 145.992 756.021 Q149.626 756.021 151.431 752.48 Q153.26 748.915 153.26 741.808 Q153.26 734.679 151.431 731.137 Q149.626 727.572 145.992 727.572 M145.992 723.869 Q151.802 723.869 154.857 728.475 Q157.936 733.058 157.936 741.808 Q157.936 750.535 154.857 755.142 Q151.802 759.725 145.992 759.725 Q140.181 759.725 137.103 755.142 Q134.047 750.535 134.047 741.808 Q134.047 733.058 137.103 728.475 Q140.181 723.869 145.992 723.869 Z" fill="#000000" fill-rule="nonzero" fill-opacity="1" /><path clip-path="url(#clip660)" d="M101.756 429.525 Q98.1447 429.525 96.316 433.09 Q94.5104 436.632 94.5104 443.761 Q94.5104 450.868 96.316 454.433 Q98.1447 457.974 101.756 457.974 Q105.39 457.974 107.196 454.433 Q109.024 450.868 109.024 443.761 Q109.024 436.632 107.196 433.09 Q105.39 429.525 101.756 429.525 M101.756 425.822 Q107.566 425.822 110.621 430.428 Q113.7 435.011 113.7 443.761 Q113.7 452.488 110.621 457.095 Q107.566 461.678 101.756 461.678 Q95.9456 461.678 92.8669 457.095 Q89.8114 452.488 89.8114 443.761 Q89.8114 435.011 92.8669 430.428 Q95.9456 425.822 101.756 425.822 Z" fill="#000000" fill-rule="nonzero" fill-opacity="1" /><path clip-path="url(#clip660)" d="M121.918 455.127 L126.802 455.127 L126.802 461.007 L121.918 461.007 L121.918 455.127 Z" fill="#000000" fill-rule="nonzero" fill-opacity="1" /><path clip-path="url(#clip660)" d="M137.033 426.447 L155.39 426.447 L155.39 430.382 L141.316 430.382 L141.316 438.854 Q142.334 438.507 143.353 438.345 Q144.371 438.159 145.39 438.159 Q151.177 438.159 154.556 441.331 Q157.936 444.502 157.936 449.919 Q157.936 455.497 154.464 458.599 Q150.992 461.678 144.672 461.678 Q142.496 461.678 140.228 461.308 Q137.982 460.937 135.575 460.196 L135.575 455.497 Q137.658 456.632 139.881 457.187 Q142.103 457.743 144.58 457.743 Q148.584 457.743 150.922 455.636 Q153.26 453.53 153.26 449.919 Q153.26 446.308 150.922 444.201 Q148.584 442.095 144.58 442.095 Q142.705 442.095 140.83 442.511 Q138.978 442.928 137.033 443.808 L137.033 426.447 Z" fill="#000000" fill-rule="nonzero" fill-opacity="1" /><path clip-path="url(#clip660)" d="M91.5706 159.024 L99.2095 159.024 L99.2095 132.659 L90.8993 134.325 L90.8993 130.066 L99.1632 128.4 L103.839 128.4 L103.839 159.024 L111.478 159.024 L111.478 162.96 L91.5706 162.96 L91.5706 159.024 Z" fill="#000000" fill-rule="nonzero" fill-opacity="1" /><path clip-path="url(#clip660)" d="M120.922 157.08 L125.807 157.08 L125.807 162.96 L120.922 162.96 L120.922 157.08 Z" fill="#000000" fill-rule="nonzero" fill-opacity="1" /><path clip-path="url(#clip660)" d="M145.992 131.478 Q142.381 131.478 140.552 135.043 Q138.746 138.585 138.746 145.714 Q138.746 152.821 140.552 156.386 Q142.381 159.927 145.992 159.927 Q149.626 159.927 151.431 156.386 Q153.26 152.821 153.26 145.714 Q153.26 138.585 151.431 135.043 Q149.626 131.478 145.992 131.478 M145.992 127.775 Q151.802 127.775 154.857 132.381 Q157.936 136.964 157.936 145.714 Q157.936 154.441 154.857 159.048 Q151.802 163.631 145.992 163.631 Q140.181 163.631 137.103 159.048 Q134.047 154.441 134.047 145.714 Q134.047 136.964 137.103 132.381 Q140.181 127.775 145.992 127.775 Z" fill="#000000" fill-rule="nonzero" fill-opacity="1" /><polyline clip-path="url(#clip662)" style="stroke:#009af9; stroke-linecap:round; stroke-linejoin:round; stroke-width:4; stroke-opacity:1; fill:none" points="255.035,741.774 258.278,735.813 261.521,729.853 264.764,723.893 268.007,717.936 271.25,711.981 274.493,706.029 277.736,700.081 280.979,694.137 284.222,688.198 287.465,682.263 290.708,676.335 293.951,670.414 297.194,664.499 300.437,658.593 303.68,652.694 306.923,646.805 310.166,640.925 313.409,635.055 316.652,629.196 319.895,623.348 323.138,617.512 326.381,611.688 329.624,605.878 332.867,600.08 336.11,594.298 339.353,588.529 342.596,582.777 345.84,577.04 349.083,571.319 352.326,565.616 355.569,559.93 358.812,554.262 362.055,548.613 365.298,542.984 368.541,537.374 371.784,531.785 375.027,526.217 378.27,520.67 381.513,515.146 384.756,509.644 387.999,504.165 391.242,498.71 394.485,493.279 397.728,487.874 400.971,482.493 404.214,477.139 407.457,471.811 410.7,466.51 413.943,461.236 417.186,455.991 420.429,450.774 423.672,445.586 426.915,440.428 430.158,435.3 433.401,430.203 436.644,425.137 439.887,420.102 443.13,415.1 446.373,410.13 449.616,405.194 452.859,400.291 456.103,395.422 459.346,390.588 462.589,385.789 465.832,381.026 469.075,376.298 472.318,371.608 475.561,366.954 478.804,362.338 482.047,357.759 485.29,353.219 488.533,348.718 491.776,344.257 495.019,339.835 498.262,335.453 501.505,331.112 504.748,326.812 507.991,322.553 511.234,318.336 514.477,314.162 517.72,310.03 520.963,305.942 524.206,301.897 527.449,297.896 530.692,293.94 533.935,290.028 537.178,286.162 540.421,282.341 543.664,278.566 546.907,274.837 550.15,271.155 553.393,267.52 556.636,263.933 559.879,260.393 563.122,256.901 566.366,253.458 569.609,250.064 572.852,246.719 576.095,243.424 579.338,240.178 582.581,236.982 585.824,233.837 589.067,230.743 592.31,227.7 595.553,224.708 598.796,221.768 602.039,218.88 605.282,216.044 608.525,213.261 611.768,210.53 615.011,207.853 618.254,205.229 621.497,202.659 624.74,200.143 627.983,197.68 631.226,195.273 634.469,192.92 637.712,190.622 640.955,188.378 644.198,186.191 647.441,184.059 650.684,181.982 653.927,179.962 657.17,177.997 660.413,176.09 663.656,174.238 666.899,172.444 670.142,170.706 673.385,169.026 676.629,167.402 679.872,165.837 683.115,164.328 686.358,162.878 689.601,161.485 692.844,160.151 696.087,158.874 699.33,157.656 702.573,156.497 705.816,155.395 709.059,154.353 712.302,153.369 715.545,152.444 718.788,151.578 722.031,150.771 725.274,150.023 728.517,149.335 731.76,148.705 735.003,148.135 738.246,147.624 741.489,147.173 744.732,146.781 747.975,146.448 751.218,146.176 754.461,145.962 757.704,145.808 760.947,145.714 764.19,145.68 767.433,145.705 770.676,145.79 773.919,145.934 777.162,146.138 780.405,146.401 783.648,146.724 786.892,147.106 790.135,147.548 793.378,148.05 796.621,148.61 799.864,149.23 803.107,149.91 806.35,150.648 809.593,151.446 812.836,152.302 816.079,153.218 819.322,154.192 822.565,155.225 825.808,156.317 829.051,157.468 832.294,158.676 835.537,159.944 838.78,161.269 842.023,162.652 845.266,164.093 848.509,165.592 851.752,167.149 854.995,168.763 858.238,170.435 861.481,172.163 864.724,173.949 867.967,175.791 871.21,177.69 874.453,179.645 877.696,181.657 880.939,183.724 884.182,185.847 887.425,188.026 890.668,190.261 893.911,192.55 897.155,194.894 900.398,197.293 903.641,199.747 906.884,202.255 910.127,204.816 913.37,207.432 916.613,210.1 919.856,212.822 923.099,215.597 926.342,218.424 929.585,221.304 932.828,224.236 936.071,227.22 939.314,230.255 942.557,233.341 945.8,236.478 949.043,239.665 952.286,242.903 955.529,246.191 958.772,249.528 962.015,252.915 965.258,256.35 968.501,259.834 971.744,263.366 974.987,266.946 978.23,270.573 981.473,274.248 984.716,277.969 987.959,281.736 991.202,285.55 994.445,289.409 997.688,293.314 1000.93,297.263 1004.17,301.257 1007.42,305.295 1010.66,309.376 1013.9,313.501 1017.15,317.669 1020.39,321.879 1023.63,326.131 1026.88,330.424 1030.12,334.759 1033.36,339.134 1036.6,343.55 1039.85,348.005 1043.09,352.5 1046.33,357.034 1049.58,361.606 1052.82,366.216 1056.06,370.864 1059.31,375.549 1062.55,380.27 1065.79,385.028 1069.04,389.821 1072.28,394.65 1075.52,399.513 1078.76,404.41 1082.01,409.342 1085.25,414.306 1088.49,419.303 1091.74,424.333 1094.98,429.394 1098.22,434.486 1101.47,439.609 1104.71,444.763 1107.95,449.946 1111.19,455.158 1114.44,460.399 1117.68,465.668 1120.92,470.965 1124.17,476.288 1127.41,481.639 1130.65,487.015 1133.9,492.417 1137.14,497.843 1140.38,503.295 1143.62,508.77 1146.87,514.268 1150.11,519.789 1153.35,525.332 1156.6,530.897 1159.84,536.483 1163.08,542.089 1166.33,547.716 1169.57,553.361 1172.81,559.026 1176.06,564.709 1179.3,570.41 1182.54,576.127 1185.78,581.862 1189.03,587.612 1192.27,593.378 1195.51,599.159 1198.76,604.953 1202,610.762 1205.24,616.584 1208.49,622.418 1211.73,628.264 1214.97,634.121 1218.21,639.989 1221.46,645.868 1224.7,651.756 1227.94,657.653 1231.19,663.558 1234.43,669.471 1237.67,675.392 1240.92,681.319 1244.16,687.252 1247.4,693.191 1250.64,699.134 1253.89,705.082 1257.13,711.033 1260.37,716.988 1263.62,722.945 1266.86,728.903 1270.1,734.863 1273.35,740.824 1276.59,746.785 1279.83,752.745 1283.08,758.705 1286.32,764.662 1289.56,770.618 1292.8,776.57 1296.05,782.519 1299.29,788.464 1302.53,794.404 1305.78,800.339 1309.02,806.268 1312.26,812.191 1315.51,818.106 1318.75,824.014 1321.99,829.914 1325.23,835.805 1328.48,841.686 1331.72,847.558 1334.96,853.419 1338.21,859.269 1341.45,865.107 1344.69,870.932 1347.94,876.745 1351.18,882.544 1354.42,888.33 1357.66,894.1 1360.91,899.855 1364.15,905.595 1367.39,911.318 1370.64,917.024 1373.88,922.713 1377.12,928.383 1380.37,934.035 1383.61,939.668 1386.85,945.281 1390.1,950.873 1393.34,956.445 1396.58,961.995 1399.82,967.523 1403.07,973.029 1406.31,978.511 1409.55,983.97 1412.8,989.405 1416.04,994.814 1419.28,1000.2 1422.53,1005.56 1425.77,1010.89 1429.01,1016.19 1432.25,1021.47 1435.5,1026.72 1438.74,1031.94 1441.98,1037.14 1445.23,1042.3 1448.47,1047.43 1451.71,1052.53 1454.96,1057.61 1458.2,1062.65 1461.44,1067.65 1464.68,1072.63 1467.93,1077.57 1471.17,1082.48 1474.41,1087.35 1477.66,1092.19 1480.9,1097 1484.14,1101.77 1487.39,1106.5 1490.63,1111.19 1493.87,1115.85 1497.11,1120.48 1500.36,1125.06 1503.6,1129.61 1506.84,1134.11 1510.09,1138.58 1513.33,1143.01 1516.57,1147.4 1519.82,1151.75 1523.06,1156.05 1526.3,1160.32 1529.55,1164.54 1532.79,1168.72 1536.03,1172.86 1539.27,1176.96 1542.52,1181.01 1545.76,1185.02 1549,1188.98 1552.25,1192.9 1555.49,1196.77 1558.73,1200.6 1561.98,1204.38 1565.22,1208.12 1568.46,1211.81 1571.7,1215.45 1574.95,1219.05 1578.19,1222.59 1581.43,1226.09 1584.68,1229.54 1587.92,1232.95 1591.16,1236.3 1594.41,1239.6 1597.65,1242.86 1600.89,1246.06 1604.13,1249.21 1607.38,1252.31 1610.62,1255.37 1613.86,1258.37 1617.11,1261.31 1620.35,1264.21 1623.59,1267.06 1626.84,1269.85 1630.08,1272.59 1633.32,1275.27 1636.57,1277.9 1639.81,1280.48 1643.05,1283.01 1646.29,1285.48 1649.54,1287.89 1652.78,1290.26 1656.02,1292.56 1659.27,1294.82 1662.51,1297.01 1665.75,1299.15 1669,1301.24 1672.24,1303.27 1675.48,1305.24 1678.72,1307.16 1681.97,1309.02 1685.21,1310.82 1688.45,1312.57 1691.7,1314.26 1694.94,1315.89 1698.18,1317.47 1701.43,1318.98 1704.67,1320.44 1707.91,1321.84 1711.15,1323.19 1714.4,1324.47 1717.64,1325.7 1720.88,1326.87 1724.13,1327.98 1727.37,1329.03 1730.61,1330.03 1733.86,1330.96 1737.1,1331.83 1740.34,1332.65 1743.59,1333.41 1746.83,1334.11 1750.07,1334.75 1753.31,1335.33 1756.56,1335.85 1759.8,1336.31 1763.04,1336.71 1766.29,1337.05 1769.53,1337.33 1772.77,1337.55 1776.02,1337.72 1779.26,1337.82 1782.5,1337.87 1785.74,1337.85 1788.99,1337.78 1792.23,1337.64 1795.47,1337.45 1798.72,1337.19 1801.96,1336.88 1805.2,1336.51 1808.45,1336.07 1811.69,1335.58 1814.93,1335.03 1818.17,1334.42 1821.42,1333.75 1824.66,1333.02 1827.9,1332.23 1831.15,1331.39 1834.39,1330.48 1837.63,1329.51 1840.88,1328.49 1844.12,1327.41 1847.36,1326.27 1850.61,1325.07 1853.85,1323.81 1857.09,1322.49 1860.33,1321.12 1863.58,1319.69 1866.82,1318.2 1870.06,1316.65 1873.31,1315.04 1876.55,1313.38 1879.79,1311.66 1883.04,1309.89 1886.28,1308.05 1889.52,1306.16 1892.76,1304.22 1896.01,1302.21 1899.25,1300.16 1902.49,1298.04 1905.74,1295.87 1908.98,1293.65 1912.22,1291.37 1915.47,1289.03 1918.71,1286.64 1921.95,1284.19 1925.19,1281.7 1928.44,1279.14 1931.68,1276.54 1934.92,1273.88 1938.17,1271.16 1941.41,1268.4 1944.65,1265.58 1947.9,1262.71 1951.14,1259.78 1954.38,1256.81 1957.63,1253.78 1960.87,1250.7 1964.11,1247.57 1967.35,1244.39 1970.6,1241.16 1973.84,1237.88 1977.08,1234.55 1980.33,1231.18 1983.57,1227.75 1986.81,1224.27 1990.06,1220.75 1993.3,1217.17 1996.54,1213.55 1999.78,1209.89 2003.03,1206.17 2006.27,1202.41 2009.51,1198.61 2012.76,1194.76 2016,1190.86 2019.24,1186.92 2022.49,1182.93 2025.73,1178.9 2028.97,1174.82 2032.21,1170.71 2035.46,1166.55 2038.7,1162.34 2041.94,1158.1 2045.19,1153.81 2048.43,1149.48 2051.67,1145.11 2054.92,1140.7 2058.16,1136.25 2061.4,1131.77 2064.65,1127.24 2067.89,1122.67 2071.13,1118.07 2074.37,1113.43 2077.62,1108.75 2080.86,1104.03 2084.1,1099.28 2087.35,1094.49 2090.59,1089.67 2093.83,1084.81 2097.08,1079.92 2100.32,1074.99 2103.56,1070.03 2106.8,1065.04 2110.05,1060.02 2113.29,1054.96 2116.53,1049.87 2119.78,1044.76 2123.02,1039.61 2126.26,1034.43 2129.51,1029.22 2132.75,1023.98 2135.99,1018.72 2139.23,1013.43 2142.48,1008.11 2145.72,1002.76 2148.96,997.39 2152.21,991.992 2155.45,986.57 2158.69,981.122 2161.94,975.651 2165.18,970.157 2168.42,964.639 2171.67,959.1 2174.91,953.538 2178.15,947.955 2181.39,942.352 2184.64,936.729 2187.88,931.086 2191.12,925.425 2194.37,919.744 2197.61,914.047 2200.85,908.331 2204.1,902.6 2207.34,896.852 2210.58,891.089 2213.82,885.31 2217.07,879.518 2220.31,873.711 2223.55,867.892 2226.8,862.059 2230.04,856.215 2233.28,850.36 2236.53,844.493 2239.77,838.616 2243.01,832.73 2246.25,826.834 2249.5,820.93 2252.74,815.018 2255.98,809.099 2259.23,803.173 2262.47,797.24 2265.71,791.303 2268.96,785.36 2272.2,779.413 2275.44,773.462 2278.69,767.508 2281.93,761.552 2285.17,755.593 2288.41,749.633 2291.66,743.672 "/>
<circle clip-path="url(#clip662)" cx="1172.81" cy="582.73" r="14.4" fill="#e26f46" fill-rule="evenodd" fill-opacity="1" stroke="#000000" stroke-opacity="1" stroke-width="3.2"/>
<circle clip-path="url(#clip662)" cx="1461.44" cy="1149.92" r="14.4" fill="#e26f46" fill-rule="evenodd" fill-opacity="1" stroke="#000000" stroke-opacity="1" stroke-width="3.2"/>
<circle clip-path="url(#clip662)" cx="2084.1" cy="1145.05" r="14.4" fill="#e26f46" fill-rule="evenodd" fill-opacity="1" stroke="#000000" stroke-opacity="1" stroke-width="3.2"/>
<circle clip-path="url(#clip662)" cx="647.441" cy="239.905" r="14.4" fill="#e26f46" fill-rule="evenodd" fill-opacity="1" stroke="#000000" stroke-opacity="1" stroke-width="3.2"/>
<circle clip-path="url(#clip662)" cx="974.987" cy="381.749" r="14.4" fill="#e26f46" fill-rule="evenodd" fill-opacity="1" stroke="#000000" stroke-opacity="1" stroke-width="3.2"/>
<circle clip-path="url(#clip662)" cx="1766.29" cy="1409.74" r="14.4" fill="#e26f46" fill-rule="evenodd" fill-opacity="1" stroke="#000000" stroke-opacity="1" stroke-width="3.2"/>
<circle clip-path="url(#clip662)" cx="2168.42" cy="900.489" r="14.4" fill="#e26f46" fill-rule="evenodd" fill-opacity="1" stroke="#000000" stroke-opacity="1" stroke-width="3.2"/>
<circle clip-path="url(#clip662)" cx="1419.28" cy="906.416" r="14.4" fill="#e26f46" fill-rule="evenodd" fill-opacity="1" stroke="#000000" stroke-opacity="1" stroke-width="3.2"/>
<circle clip-path="url(#clip662)" cx="1059.31" cy="346.008" r="14.4" fill="#e26f46" fill-rule="evenodd" fill-opacity="1" stroke="#000000" stroke-opacity="1" stroke-width="3.2"/>
<circle clip-path="url(#clip662)" cx="595.553" cy="268.218" r="14.4" fill="#e26f46" fill-rule="evenodd" fill-opacity="1" stroke="#000000" stroke-opacity="1" stroke-width="3.2"/>
<circle clip-path="url(#clip662)" cx="657.17" cy="135.809" r="14.4" fill="#e26f46" fill-rule="evenodd" fill-opacity="1" stroke="#000000" stroke-opacity="1" stroke-width="3.2"/>
<circle clip-path="url(#clip662)" cx="1824.66" cy="1445.72" r="14.4" fill="#e26f46" fill-rule="evenodd" fill-opacity="1" stroke="#000000" stroke-opacity="1" stroke-width="3.2"/>
<circle clip-path="url(#clip662)" cx="310.166" cy="678.351" r="14.4" fill="#e26f46" fill-rule="evenodd" fill-opacity="1" stroke="#000000" stroke-opacity="1" stroke-width="3.2"/>
<circle clip-path="url(#clip662)" cx="764.19" cy="87.9763" r="14.4" fill="#e26f46" fill-rule="evenodd" fill-opacity="1" stroke="#000000" stroke-opacity="1" stroke-width="3.2"/>
<circle clip-path="url(#clip662)" cx="2255.98" cy="869.431" r="14.4" fill="#e26f46" fill-rule="evenodd" fill-opacity="1" stroke="#000000" stroke-opacity="1" stroke-width="3.2"/>
<circle clip-path="url(#clip662)" cx="1889.52" cy="1316.33" r="14.4" fill="#e26f46" fill-rule="evenodd" fill-opacity="1" stroke="#000000" stroke-opacity="1" stroke-width="3.2"/>
<circle clip-path="url(#clip662)" cx="1964.11" cy="1357.88" r="14.4" fill="#e26f46" fill-rule="evenodd" fill-opacity="1" stroke="#000000" stroke-opacity="1" stroke-width="3.2"/>
<circle clip-path="url(#clip662)" cx="1438.74" cy="919.663" r="14.4" fill="#e26f46" fill-rule="evenodd" fill-opacity="1" stroke="#000000" stroke-opacity="1" stroke-width="3.2"/>
<circle clip-path="url(#clip662)" cx="1766.29" cy="1399.65" r="14.4" fill="#e26f46" fill-rule="evenodd" fill-opacity="1" stroke="#000000" stroke-opacity="1" stroke-width="3.2"/>
<circle clip-path="url(#clip662)" cx="955.529" cy="330.195" r="14.4" fill="#e26f46" fill-rule="evenodd" fill-opacity="1" stroke="#000000" stroke-opacity="1" stroke-width="3.2"/>
<path clip-path="url(#clip660)" d="M1953.46 250.738 L2280.8 250.738 L2280.8 95.2176 L1953.46 95.2176  Z" fill="#ffffff" fill-rule="evenodd" fill-opacity="1"/>
<polyline clip-path="url(#clip660)" style="stroke:#000000; stroke-linecap:round; stroke-linejoin:round; stroke-width:4; stroke-opacity:1; fill:none" points="1953.46,250.738 2280.8,250.738 2280.8,95.2176 1953.46,95.2176 1953.46,250.738 "/>
<polyline clip-path="url(#clip660)" style="stroke:#009af9; stroke-linecap:round; stroke-linejoin:round; stroke-width:4; stroke-opacity:1; fill:none" points="1977.44,147.058 2121.36,147.058 "/>
<path clip-path="url(#clip660)" d="M2152.76 131.051 L2152.76 138.412 L2161.53 138.412 L2161.53 141.722 L2152.76 141.722 L2152.76 155.796 Q2152.76 158.967 2153.61 159.87 Q2154.49 160.773 2157.16 160.773 L2161.53 160.773 L2161.53 164.338 L2157.16 164.338 Q2152.23 164.338 2150.35 162.509 Q2148.48 160.657 2148.48 155.796 L2148.48 141.722 L2145.35 141.722 L2145.35 138.412 L2148.48 138.412 L2148.48 131.051 L2152.76 131.051 Z" fill="#000000" fill-rule="nonzero" fill-opacity="1" /><path clip-path="url(#clip660)" d="M2182.16 142.393 Q2181.44 141.977 2180.58 141.791 Q2179.75 141.583 2178.73 141.583 Q2175.12 141.583 2173.17 143.944 Q2171.25 146.282 2171.25 150.68 L2171.25 164.338 L2166.97 164.338 L2166.97 138.412 L2171.25 138.412 L2171.25 142.44 Q2172.6 140.078 2174.75 138.944 Q2176.9 137.787 2179.98 137.787 Q2180.42 137.787 2180.95 137.856 Q2181.48 137.903 2182.13 138.018 L2182.16 142.393 Z" fill="#000000" fill-rule="nonzero" fill-opacity="1" /><path clip-path="url(#clip660)" d="M2186.18 154.106 L2186.18 138.412 L2190.44 138.412 L2190.44 153.944 Q2190.44 157.625 2191.88 159.476 Q2193.31 161.305 2196.18 161.305 Q2199.63 161.305 2201.62 159.106 Q2203.64 156.907 2203.64 153.111 L2203.64 138.412 L2207.9 138.412 L2207.9 164.338 L2203.64 164.338 L2203.64 160.356 Q2202.09 162.717 2200.03 163.875 Q2197.99 165.009 2195.28 165.009 Q2190.81 165.009 2188.5 162.231 Q2186.18 159.453 2186.18 154.106 M2196.9 137.787 L2196.9 137.787 Z" fill="#000000" fill-rule="nonzero" fill-opacity="1" /><path clip-path="url(#clip660)" d="M2220.88 131.051 L2220.88 138.412 L2229.66 138.412 L2229.66 141.722 L2220.88 141.722 L2220.88 155.796 Q2220.88 158.967 2221.74 159.87 Q2222.62 160.773 2225.28 160.773 L2229.66 160.773 L2229.66 164.338 L2225.28 164.338 Q2220.35 164.338 2218.48 162.509 Q2216.6 160.657 2216.6 155.796 L2216.6 141.722 L2213.48 141.722 L2213.48 138.412 L2216.6 138.412 L2216.6 131.051 L2220.88 131.051 Z" fill="#000000" fill-rule="nonzero" fill-opacity="1" /><path clip-path="url(#clip660)" d="M2256.81 148.689 L2256.81 164.338 L2252.55 164.338 L2252.55 148.828 Q2252.55 145.148 2251.11 143.319 Q2249.68 141.49 2246.81 141.49 Q2243.36 141.49 2241.37 143.69 Q2239.38 145.889 2239.38 149.685 L2239.38 164.338 L2235.1 164.338 L2235.1 128.319 L2239.38 128.319 L2239.38 142.44 Q2240.91 140.102 2242.97 138.944 Q2245.05 137.787 2247.76 137.787 Q2252.23 137.787 2254.52 140.565 Q2256.81 143.319 2256.81 148.689 Z" fill="#000000" fill-rule="nonzero" fill-opacity="1" /><circle clip-path="url(#clip660)" cx="2049.4" cy="198.898" r="20.48" fill="#e26f46" fill-rule="evenodd" fill-opacity="1" stroke="#000000" stroke-opacity="1" stroke-width="4.55111"/>
<path clip-path="url(#clip660)" d="M2164.26 194.187 L2164.26 180.159 L2168.52 180.159 L2168.52 216.178 L2164.26 216.178 L2164.26 212.289 Q2162.92 214.603 2160.86 215.738 Q2158.82 216.849 2155.95 216.849 Q2151.25 216.849 2148.29 213.099 Q2145.35 209.349 2145.35 203.238 Q2145.35 197.127 2148.29 193.377 Q2151.25 189.627 2155.95 189.627 Q2158.82 189.627 2160.86 190.761 Q2162.92 191.872 2164.26 194.187 M2149.75 203.238 Q2149.75 207.937 2151.67 210.622 Q2153.61 213.284 2156.99 213.284 Q2160.37 213.284 2162.32 210.622 Q2164.26 207.937 2164.26 203.238 Q2164.26 198.539 2162.32 195.877 Q2160.37 193.192 2156.99 193.192 Q2153.61 193.192 2151.67 195.877 Q2149.75 198.539 2149.75 203.238 Z" fill="#000000" fill-rule="nonzero" fill-opacity="1" /><path clip-path="url(#clip660)" d="M2189.08 203.145 Q2183.92 203.145 2181.92 204.326 Q2179.93 205.506 2179.93 208.354 Q2179.93 210.622 2181.42 211.965 Q2182.92 213.284 2185.49 213.284 Q2189.03 213.284 2191.16 210.784 Q2193.31 208.261 2193.31 204.094 L2193.31 203.145 L2189.08 203.145 M2197.57 201.386 L2197.57 216.178 L2193.31 216.178 L2193.31 212.242 Q2191.85 214.603 2189.68 215.738 Q2187.5 216.849 2184.36 216.849 Q2180.37 216.849 2178.01 214.627 Q2175.67 212.381 2175.67 208.631 Q2175.67 204.256 2178.59 202.034 Q2181.53 199.812 2187.34 199.812 L2193.31 199.812 L2193.31 199.395 Q2193.31 196.455 2191.37 194.858 Q2189.45 193.238 2185.95 193.238 Q2183.73 193.238 2181.62 193.77 Q2179.52 194.303 2177.57 195.367 L2177.57 191.432 Q2179.91 190.53 2182.11 190.09 Q2184.31 189.627 2186.39 189.627 Q2192.02 189.627 2194.79 192.543 Q2197.57 195.46 2197.57 201.386 Z" fill="#000000" fill-rule="nonzero" fill-opacity="1" /><path clip-path="url(#clip660)" d="M2210.56 182.891 L2210.56 190.252 L2219.33 190.252 L2219.33 193.562 L2210.56 193.562 L2210.56 207.636 Q2210.56 210.807 2211.42 211.71 Q2212.29 212.613 2214.96 212.613 L2219.33 212.613 L2219.33 216.178 L2214.96 216.178 Q2210.03 216.178 2208.15 214.349 Q2206.28 212.497 2206.28 207.636 L2206.28 193.562 L2203.15 193.562 L2203.15 190.252 L2206.28 190.252 L2206.28 182.891 L2210.56 182.891 Z" fill="#000000" fill-rule="nonzero" fill-opacity="1" /><path clip-path="url(#clip660)" d="M2236.72 203.145 Q2231.55 203.145 2229.56 204.326 Q2227.57 205.506 2227.57 208.354 Q2227.57 210.622 2229.05 211.965 Q2230.56 213.284 2233.13 213.284 Q2236.67 213.284 2238.8 210.784 Q2240.95 208.261 2240.95 204.094 L2240.95 203.145 L2236.72 203.145 M2245.21 201.386 L2245.21 216.178 L2240.95 216.178 L2240.95 212.242 Q2239.49 214.603 2237.32 215.738 Q2235.14 216.849 2231.99 216.849 Q2228.01 216.849 2225.65 214.627 Q2223.31 212.381 2223.31 208.631 Q2223.31 204.256 2226.23 202.034 Q2229.17 199.812 2234.98 199.812 L2240.95 199.812 L2240.95 199.395 Q2240.95 196.455 2239.01 194.858 Q2237.09 193.238 2233.59 193.238 Q2231.37 193.238 2229.26 193.77 Q2227.16 194.303 2225.21 195.367 L2225.21 191.432 Q2227.55 190.53 2229.75 190.09 Q2231.95 189.627 2234.03 189.627 Q2239.66 189.627 2242.43 192.543 Q2245.21 195.46 2245.21 201.386 Z" fill="#000000" fill-rule="nonzero" fill-opacity="1" /></svg>
