<?xml version="1.0" encoding="utf-8"?>
<svg xmlns="http://www.w3.org/2000/svg" xmlns:xlink="http://www.w3.org/1999/xlink" width="600" height="400" viewBox="0 0 2400 1600">
<defs>
  <clipPath id="clip770">
    <rect x="0" y="0" width="2400" height="1600"/>
  </clipPath>
</defs>
<path clip-path="url(#clip770)" d="M0 1600 L2400 1600 L2400 0 L0 0  Z" fill="#ffffff" fill-rule="evenodd" fill-opacity="1"/>
<defs>
  <clipPath id="clip771">
    <rect x="480" y="0" width="1681" height="1600"/>
  </clipPath>
</defs>
<path clip-path="url(#clip770)" d="M193.936 1486.45 L2352.76 1486.45 L2352.76 47.2441 L193.936 47.2441  Z" fill="#ffffff" fill-rule="evenodd" fill-opacity="1"/>
<defs>
  <clipPath id="clip772">
    <rect x="193" y="47" width="2160" height="1440"/>
  </clipPath>
</defs>
<polyline clip-path="url(#clip772)" style="stroke:#000000; stroke-linecap:round; stroke-linejoin:round; stroke-width:2; stroke-opacity:0.1; fill:none" points="255.035,1486.45 255.035,47.2441 "/>
<polyline clip-path="url(#clip772)" style="stroke:#000000; stroke-linecap:round; stroke-linejoin:round; stroke-width:2; stroke-opacity:0.1; fill:none" points="579.173,1486.45 579.173,47.2441 "/>
<polyline clip-path="url(#clip772)" style="stroke:#000000; stroke-linecap:round; stroke-linejoin:round; stroke-width:2; stroke-opacity:0.1; fill:none" points="903.312,1486.45 903.312,47.2441 "/>
<polyline clip-path="url(#clip772)" style="stroke:#000000; stroke-linecap:round; stroke-linejoin:round; stroke-width:2; stroke-opacity:0.1; fill:none" points="1227.45,1486.45 1227.45,47.2441 "/>
<polyline clip-path="url(#clip772)" style="stroke:#000000; stroke-linecap:round; stroke-linejoin:round; stroke-width:2; stroke-opacity:0.1; fill:none" points="1551.59,1486.45 1551.59,47.2441 "/>
<polyline clip-path="url(#clip772)" style="stroke:#000000; stroke-linecap:round; stroke-linejoin:round; stroke-width:2; stroke-opacity:0.1; fill:none" points="1875.73,1486.45 1875.73,47.2441 "/>
<polyline clip-path="url(#clip772)" style="stroke:#000000; stroke-linecap:round; stroke-linejoin:round; stroke-width:2; stroke-opacity:0.1; fill:none" points="2199.87,1486.45 2199.87,47.2441 "/>
<polyline clip-path="url(#clip772)" style="stroke:#000000; stroke-linecap:round; stroke-linejoin:round; stroke-width:2; stroke-opacity:0.1; fill:none" points="193.936,1332.43 2352.76,1332.43 "/>
<polyline clip-path="url(#clip772)" style="stroke:#000000; stroke-linecap:round; stroke-linejoin:round; stroke-width:2; stroke-opacity:0.1; fill:none" points="193.936,1071.51 2352.76,1071.51 "/>
<polyline clip-path="url(#clip772)" style="stroke:#000000; stroke-linecap:round; stroke-linejoin:round; stroke-width:2; stroke-opacity:0.1; fill:none" points="193.936,810.59 2352.76,810.59 "/>
<polyline clip-path="url(#clip772)" style="stroke:#000000; stroke-linecap:round; stroke-linejoin:round; stroke-width:2; stroke-opacity:0.1; fill:none" points="193.936,549.671 2352.76,549.671 "/>
<polyline clip-path="url(#clip772)" style="stroke:#000000; stroke-linecap:round; stroke-linejoin:round; stroke-width:2; stroke-opacity:0.1; fill:none" points="193.936,288.753 2352.76,288.753 "/>
<polyline clip-path="url(#clip770)" style="stroke:#000000; stroke-linecap:round; stroke-linejoin:round; stroke-width:4; stroke-opacity:1; fill:none" points="193.936,1486.45 2352.76,1486.45 "/>
<polyline clip-path="url(#clip770)" style="stroke:#000000; stroke-linecap:round; stroke-linejoin:round; stroke-width:4; stroke-opacity:1; fill:none" points="255.035,1486.45 255.035,1467.55 "/>
<polyline clip-path="url(#clip770)" style="stroke:#000000; stroke-linecap:round; stroke-linejoin:round; stroke-width:4; stroke-opacity:1; fill:none" points="579.173,1486.45 579.173,1467.55 "/>
<polyline clip-path="url(#clip770)" style="stroke:#000000; stroke-linecap:round; stroke-linejoin:round; stroke-width:4; stroke-opacity:1; fill:none" points="903.312,1486.45 903.312,1467.55 "/>
<polyline clip-path="url(#clip770)" style="stroke:#000000; stroke-linecap:round; stroke-linejoin:round; stroke-width:4; stroke-opacity:1; fill:none" points="1227.45,1486.45 1227.45,1467.55 "/>
<polyline clip-path="url(#clip770)" style="stroke:#000000; stroke-linecap:round; stroke-linejoin:round; stroke-width:4; stroke-opacity:1; fill:none" points="1551.59,1486.45 1551.59,1467.55 "/>
<polyline clip-path="url(#clip770)" style="stroke:#000000; stroke-linecap:round; stroke-linejoin:round; stroke-width:4; stroke-opacity:1; fill:none" points="1875.73,1486.45 1875.73,1467.55 "/>
<polyline clip-path="url(#clip770)" style="stroke:#000000; stroke-linecap:round; stroke-linejoin:round; stroke-width:4; stroke-opacity:1; fill:none" points="2199.87,1486.45 2199.87,1467.55 "/>
<path clip-path="url(#clip770)" d="M255.035 1517.37 Q251.424 1517.37 249.595 1520.93 Q247.789 1524.47 247.789 1531.6 Q247.789 1538.71 249.595 1542.27 Q251.424 1545.82 255.035 1545.82 Q258.669 1545.82 260.474 1542.27 Q262.303 1538.71 262.303 1531.6 Q262.303 1524.47 260.474 1520.93 Q258.669 1517.37 255.035 1517.37 M255.035 1513.66 Q260.845 1513.66 263.9 1518.27 Q266.979 1522.85 266.979 1531.6 Q266.979 1540.33 263.9 1544.94 Q260.845 1549.52 255.035 1549.52 Q249.225 1549.52 246.146 1544.94 Q243.09 1540.33 243.09 1531.6 Q243.09 1522.85 246.146 1518.27 Q249.225 1513.66 255.035 1513.66 Z" fill="#000000" fill-rule="nonzero" fill-opacity="1" /><path clip-path="url(#clip770)" d="M569.555 1544.91 L577.194 1544.91 L577.194 1518.55 L568.884 1520.21 L568.884 1515.95 L577.148 1514.29 L581.824 1514.29 L581.824 1544.91 L589.463 1544.91 L589.463 1548.85 L569.555 1548.85 L569.555 1544.91 Z" fill="#000000" fill-rule="nonzero" fill-opacity="1" /><path clip-path="url(#clip770)" d="M897.965 1544.91 L914.284 1544.91 L914.284 1548.85 L892.34 1548.85 L892.34 1544.91 Q895.002 1542.16 899.585 1537.53 Q904.191 1532.88 905.372 1531.53 Q907.617 1529.01 908.497 1527.27 Q909.4 1525.51 909.4 1523.82 Q909.4 1521.07 907.455 1519.33 Q905.534 1517.6 902.432 1517.6 Q900.233 1517.6 897.779 1518.36 Q895.349 1519.13 892.571 1520.68 L892.571 1515.95 Q895.395 1514.82 897.849 1514.24 Q900.303 1513.66 902.34 1513.66 Q907.71 1513.66 910.904 1516.35 Q914.099 1519.03 914.099 1523.52 Q914.099 1525.65 913.289 1527.57 Q912.502 1529.47 910.395 1532.07 Q909.816 1532.74 906.715 1535.95 Q903.613 1539.15 897.965 1544.91 Z" fill="#000000" fill-rule="nonzero" fill-opacity="1" /><path clip-path="url(#clip770)" d="M1231.7 1530.21 Q1235.05 1530.93 1236.93 1533.2 Q1238.83 1535.47 1238.83 1538.8 Q1238.83 1543.92 1235.31 1546.72 Q1231.79 1549.52 1225.31 1549.52 Q1223.13 1549.52 1220.82 1549.08 Q1218.53 1548.66 1216.07 1547.81 L1216.07 1543.29 Q1218.02 1544.43 1220.33 1545.01 Q1222.65 1545.58 1225.17 1545.58 Q1229.57 1545.58 1231.86 1543.85 Q1234.17 1542.11 1234.17 1538.8 Q1234.17 1535.75 1232.02 1534.03 Q1229.89 1532.3 1226.07 1532.3 L1222.05 1532.3 L1222.05 1528.45 L1226.26 1528.45 Q1229.71 1528.45 1231.54 1527.09 Q1233.36 1525.7 1233.36 1523.11 Q1233.36 1520.45 1231.47 1519.03 Q1229.59 1517.6 1226.07 1517.6 Q1224.15 1517.6 1221.95 1518.01 Q1219.75 1518.43 1217.11 1519.31 L1217.11 1515.14 Q1219.78 1514.4 1222.09 1514.03 Q1224.43 1513.66 1226.49 1513.66 Q1231.81 1513.66 1234.92 1516.09 Q1238.02 1518.5 1238.02 1522.62 Q1238.02 1525.49 1236.37 1527.48 Q1234.73 1529.45 1231.7 1530.21 Z" fill="#000000" fill-rule="nonzero" fill-opacity="1" /><path clip-path="url(#clip770)" d="M1554.6 1518.36 L1542.79 1536.81 L1554.6 1536.81 L1554.6 1518.36 M1553.37 1514.29 L1559.25 1514.29 L1559.25 1536.81 L1564.18 1536.81 L1564.18 1540.7 L1559.25 1540.7 L1559.25 1548.85 L1554.6 1548.85 L1554.6 1540.7 L1539 1540.7 L1539 1536.19 L1553.37 1514.29 Z" fill="#000000" fill-rule="nonzero" fill-opacity="1" /><path clip-path="url(#clip770)" d="M1866.01 1514.29 L1884.36 1514.29 L1884.36 1518.22 L1870.29 1518.22 L1870.29 1526.7 Q1871.31 1526.35 1872.32 1526.19 Q1873.34 1526 1874.36 1526 Q1880.15 1526 1883.53 1529.17 Q1886.91 1532.34 1886.91 1537.76 Q1886.91 1543.34 1883.44 1546.44 Q1879.96 1549.52 1873.64 1549.52 Q1871.47 1549.52 1869.2 1549.15 Q1866.95 1548.78 1864.55 1548.04 L1864.55 1543.34 Q1866.63 1544.47 1868.85 1545.03 Q1871.07 1545.58 1873.55 1545.58 Q1877.56 1545.58 1879.89 1543.48 Q1882.23 1541.37 1882.23 1537.76 Q1882.23 1534.15 1879.89 1532.04 Q1877.56 1529.94 1873.55 1529.94 Q1871.68 1529.94 1869.8 1530.35 Q1867.95 1530.77 1866.01 1531.65 L1866.01 1514.29 Z" fill="#000000" fill-rule="nonzero" fill-opacity="1" /><path clip-path="url(#clip770)" d="M2200.27 1529.7 Q2197.12 1529.7 2195.27 1531.86 Q2193.44 1534.01 2193.44 1537.76 Q2193.44 1541.49 2195.27 1543.66 Q2197.12 1545.82 2200.27 1545.82 Q2203.42 1545.82 2205.25 1543.66 Q2207.1 1541.49 2207.1 1537.76 Q2207.1 1534.01 2205.25 1531.86 Q2203.42 1529.7 2200.27 1529.7 M2209.55 1515.05 L2209.55 1519.31 Q2207.79 1518.48 2205.99 1518.04 Q2204.21 1517.6 2202.45 1517.6 Q2197.82 1517.6 2195.36 1520.72 Q2192.93 1523.85 2192.59 1530.17 Q2193.95 1528.15 2196.01 1527.09 Q2198.07 1526 2200.55 1526 Q2205.76 1526 2208.77 1529.17 Q2211.8 1532.32 2211.8 1537.76 Q2211.8 1543.08 2208.65 1546.3 Q2205.5 1549.52 2200.27 1549.52 Q2194.28 1549.52 2191.1 1544.94 Q2187.93 1540.33 2187.93 1531.6 Q2187.93 1523.41 2191.82 1518.55 Q2195.71 1513.66 2202.26 1513.66 Q2204.02 1513.66 2205.8 1514.01 Q2207.61 1514.36 2209.55 1515.05 Z" fill="#000000" fill-rule="nonzero" fill-opacity="1" /><polyline clip-path="url(#clip770)" style="stroke:#000000; stroke-linecap:round; stroke-linejoin:round; stroke-width:4; stroke-opacity:1; fill:none" points="193.936,1486.45 193.936,47.2441 "/>
<polyline clip-path="url(#clip770)" style="stroke:#000000; stroke-linecap:round; stroke-linejoin:round; stroke-width:4; stroke-opacity:1; fill:none" points="193.936,1332.43 212.834,1332.43 "/>
<polyline clip-path="url(#clip770)" style="stroke:#000000; stroke-linecap:round; stroke-linejoin:round; stroke-width:4; stroke-opacity:1; fill:none" points="193.936,1071.51 212.834,1071.51 "/>
<polyline clip-path="url(#clip770)" style="stroke:#000000; stroke-linecap:round; stroke-linejoin:round; stroke-width:4; stroke-opacity:1; fill:none" points="193.936,810.59 212.834,810.59 "/>
<polyline clip-path="url(#clip770)" style="stroke:#000000; stroke-linecap:round; stroke-linejoin:round; stroke-width:4; stroke-opacity:1; fill:none" points="193.936,549.671 212.834,549.671 "/>
<polyline clip-path="url(#clip770)" style="stroke:#000000; stroke-linecap:round; stroke-linejoin:round; stroke-width:4; stroke-opacity:1; fill:none" points="193.936,288.753 212.834,288.753 "/>
<path clip-path="url(#clip770)" d="M50.9921 1332.88 L80.6679 1332.88 L80.6679 1336.81 L50.9921 1336.81 L50.9921 1332.88 Z" fill="#000000" fill-rule="nonzero" fill-opacity="1" /><path clip-path="url(#clip770)" d="M91.5706 1345.77 L99.2095 1345.77 L99.2095 1319.41 L90.8993 1321.07 L90.8993 1316.81 L99.1632 1315.15 L103.839 1315.15 L103.839 1345.77 L111.478 1345.77 L111.478 1349.71 L91.5706 1349.71 L91.5706 1345.77 Z" fill="#000000" fill-rule="nonzero" fill-opacity="1" /><path clip-path="url(#clip770)" d="M120.922 1343.83 L125.807 1343.83 L125.807 1349.71 L120.922 1349.71 L120.922 1343.83 Z" fill="#000000" fill-rule="nonzero" fill-opacity="1" /><path clip-path="url(#clip770)" d="M145.992 1318.23 Q142.381 1318.23 140.552 1321.79 Q138.746 1325.33 138.746 1332.46 Q138.746 1339.57 140.552 1343.13 Q142.381 1346.67 145.992 1346.67 Q149.626 1346.67 151.431 1343.13 Q153.26 1339.57 153.26 1332.46 Q153.26 1325.33 151.431 1321.79 Q149.626 1318.23 145.992 1318.23 M145.992 1314.52 Q151.802 1314.52 154.857 1319.13 Q157.936 1323.71 157.936 1332.46 Q157.936 1341.19 154.857 1345.79 Q151.802 1350.38 145.992 1350.38 Q140.181 1350.38 137.103 1345.79 Q134.047 1341.19 134.047 1332.46 Q134.047 1323.71 137.103 1319.13 Q140.181 1314.52 145.992 1314.52 Z" fill="#000000" fill-rule="nonzero" fill-opacity="1" /><path clip-path="url(#clip770)" d="M51.9875 1071.96 L81.6633 1071.96 L81.6633 1075.89 L51.9875 1075.89 L51.9875 1071.96 Z" fill="#000000" fill-rule="nonzero" fill-opacity="1" /><path clip-path="url(#clip770)" d="M101.756 1057.31 Q98.1447 1057.31 96.316 1060.87 Q94.5104 1064.41 94.5104 1071.54 Q94.5104 1078.65 96.316 1082.21 Q98.1447 1085.76 101.756 1085.76 Q105.39 1085.76 107.196 1082.21 Q109.024 1078.65 109.024 1071.54 Q109.024 1064.41 107.196 1060.87 Q105.39 1057.31 101.756 1057.31 M101.756 1053.6 Q107.566 1053.6 110.621 1058.21 Q113.7 1062.79 113.7 1071.54 Q113.7 1080.27 110.621 1084.88 Q107.566 1089.46 101.756 1089.46 Q95.9456 1089.46 92.8669 1084.88 Q89.8114 1080.27 89.8114 1071.54 Q89.8114 1062.79 92.8669 1058.21 Q95.9456 1053.6 101.756 1053.6 Z" fill="#000000" fill-rule="nonzero" fill-opacity="1" /><path clip-path="url(#clip770)" d="M121.918 1082.91 L126.802 1082.91 L126.802 1088.79 L121.918 1088.79 L121.918 1082.91 Z" fill="#000000" fill-rule="nonzero" fill-opacity="1" /><path clip-path="url(#clip770)" d="M137.033 1054.23 L155.39 1054.23 L155.39 1058.16 L141.316 1058.16 L141.316 1066.64 Q142.334 1066.29 143.353 1066.13 Q144.371 1065.94 145.39 1065.94 Q151.177 1065.94 154.556 1069.11 Q157.936 1072.28 157.936 1077.7 Q157.936 1083.28 154.464 1086.38 Q150.992 1089.46 144.672 1089.46 Q142.496 1089.46 140.228 1089.09 Q137.982 1088.72 135.575 1087.98 L135.575 1083.28 Q137.658 1084.41 139.881 1084.97 Q142.103 1085.52 144.58 1085.52 Q148.584 1085.52 150.922 1083.42 Q153.26 1081.31 153.26 1077.7 Q153.26 1074.09 150.922 1071.98 Q148.584 1069.88 144.58 1069.88 Q142.705 1069.88 140.83 1070.29 Q138.978 1070.71 137.033 1071.59 L137.033 1054.23 Z" fill="#000000" fill-rule="nonzero" fill-opacity="1" /><path clip-path="url(#clip770)" d="M100.76 796.388 Q97.1493 796.388 95.3206 799.953 Q93.515 803.495 93.515 810.625 Q93.515 817.731 95.3206 821.296 Q97.1493 824.837 100.76 824.837 Q104.395 824.837 106.2 821.296 Q108.029 817.731 108.029 810.625 Q108.029 803.495 106.2 799.953 Q104.395 796.388 100.76 796.388 M100.76 792.685 Q106.571 792.685 109.626 797.291 Q112.705 801.875 112.705 810.625 Q112.705 819.351 109.626 823.958 Q106.571 828.541 100.76 828.541 Q94.9502 828.541 91.8715 823.958 Q88.816 819.351 88.816 810.625 Q88.816 801.875 91.8715 797.291 Q94.9502 792.685 100.76 792.685 Z" fill="#000000" fill-rule="nonzero" fill-opacity="1" /><path clip-path="url(#clip770)" d="M120.922 821.99 L125.807 821.99 L125.807 827.87 L120.922 827.87 L120.922 821.99 Z" fill="#000000" fill-rule="nonzero" fill-opacity="1" /><path clip-path="url(#clip770)" d="M145.992 796.388 Q142.381 796.388 140.552 799.953 Q138.746 803.495 138.746 810.625 Q138.746 817.731 140.552 821.296 Q142.381 824.837 145.992 824.837 Q149.626 824.837 151.431 821.296 Q153.26 817.731 153.26 810.625 Q153.26 803.495 151.431 799.953 Q149.626 796.388 145.992 796.388 M145.992 792.685 Q151.802 792.685 154.857 797.291 Q157.936 801.875 157.936 810.625 Q157.936 819.351 154.857 823.958 Q151.802 828.541 145.992 828.541 Q140.181 828.541 137.103 823.958 Q134.047 819.351 134.047 810.625 Q134.047 801.875 137.103 797.291 Q140.181 792.685 145.992 792.685 Z" fill="#000000" fill-rule="nonzero" fill-opacity="1" /><path clip-path="url(#clip770)" d="M101.756 535.47 Q98.1447 535.47 96.316 539.035 Q94.5104 542.577 94.5104 549.706 Q94.5104 556.813 96.316 560.377 Q98.1447 563.919 101.756 563.919 Q105.39 563.919 107.196 560.377 Q109.024 556.813 109.024 549.706 Q109.024 542.577 107.196 539.035 Q105.39 535.47 101.756 535.47 M101.756 531.766 Q107.566 531.766 110.621 536.373 Q113.7 540.956 113.7 549.706 Q113.7 558.433 110.621 563.039 Q107.566 567.623 101.756 567.623 Q95.9456 567.623 92.8669 563.039 Q89.8114 558.433 89.8114 549.706 Q89.8114 540.956 92.8669 536.373 Q95.9456 531.766 101.756 531.766 Z" fill="#000000" fill-rule="nonzero" fill-opacity="1" /><path clip-path="url(#clip770)" d="M121.918 561.072 L126.802 561.072 L126.802 566.951 L121.918 566.951 L121.918 561.072 Z" fill="#000000" fill-rule="nonzero" fill-opacity="1" /><path clip-path="url(#clip770)" d="M137.033 532.391 L155.39 532.391 L155.39 536.327 L141.316 536.327 L141.316 544.799 Q142.334 544.452 143.353 544.29 Q144.371 544.104 145.39 544.104 Q151.177 544.104 154.556 547.276 Q157.936 550.447 157.936 555.864 Q157.936 561.442 154.464 564.544 Q150.992 567.623 144.672 567.623 Q142.496 567.623 140.228 567.252 Q137.982 566.882 135.575 566.141 L135.575 561.442 Q137.658 562.576 139.881 563.132 Q142.103 563.688 144.58 563.688 Q148.584 563.688 150.922 561.581 Q153.26 559.475 153.26 555.864 Q153.26 552.252 150.922 550.146 Q148.584 548.04 144.58 548.04 Q142.705 548.04 140.83 548.456 Q138.978 548.873 137.033 549.752 L137.033 532.391 Z" fill="#000000" fill-rule="nonzero" fill-opacity="1" /><path clip-path="url(#clip770)" d="M91.5706 302.098 L99.2095 302.098 L99.2095 275.732 L90.8993 277.399 L90.8993 273.14 L99.1632 271.473 L103.839 271.473 L103.839 302.098 L111.478 302.098 L111.478 306.033 L91.5706 306.033 L91.5706 302.098 Z" fill="#000000" fill-rule="nonzero" fill-opacity="1" /><path clip-path="url(#clip770)" d="M120.922 300.153 L125.807 300.153 L125.807 306.033 L120.922 306.033 L120.922 300.153 Z" fill="#000000" fill-rule="nonzero" fill-opacity="1" /><path clip-path="url(#clip770)" d="M145.992 274.552 Q142.381 274.552 140.552 278.117 Q138.746 281.658 138.746 288.788 Q138.746 295.894 140.552 299.459 Q142.381 303.001 145.992 303.001 Q149.626 303.001 151.431 299.459 Q153.26 295.894 153.26 288.788 Q153.26 281.658 151.431 278.117 Q149.626 274.552 145.992 274.552 M145.992 270.848 Q151.802 270.848 154.857 275.455 Q157.936 280.038 157.936 288.788 Q157.936 297.515 154.857 302.121 Q151.802 306.704 145.992 306.704 Q140.181 306.704 137.103 302.121 Q134.047 297.515 134.047 288.788 Q134.047 280.038 137.103 275.455 Q140.181 270.848 145.992 270.848 Z" fill="#000000" fill-rule="nonzero" fill-opacity="1" /><polyline clip-path="url(#clip772)" style="stroke:#009af9; stroke-linecap:round; stroke-linejoin:round; stroke-width:4; stroke-opacity:1; fill:none" points="255.035,810.59 258.276,805.372 261.517,800.154 264.759,794.937 268,789.722 271.242,784.509 274.483,779.298 277.724,774.091 280.966,768.887 284.207,763.688 287.449,758.493 290.69,753.303 293.931,748.12 297.173,742.942 300.414,737.771 303.655,732.607 306.897,727.452 310.138,722.304 313.38,717.166 316.621,712.036 319.862,706.917 323.104,701.808 326.345,696.71 329.587,691.623 332.828,686.548 336.069,681.485 339.311,676.436 342.552,671.4 345.793,666.377 349.035,661.369 352.276,656.377 355.518,651.399 358.759,646.437 362,641.492 365.242,636.564 368.483,631.653 371.725,626.76 374.966,621.886 378.207,617.03 381.449,612.194 384.69,607.377 387.931,602.581 391.173,597.805 394.414,593.051 397.656,588.319 400.897,583.609 404.138,578.921 407.38,574.257 410.621,569.616 413.863,565 417.104,560.408 420.345,555.841 423.587,551.299 426.828,546.784 430.069,542.295 433.311,537.832 436.552,533.397 439.794,528.99 443.035,524.611 446.276,520.26 449.518,515.939 452.759,511.647 456.001,507.384 459.242,503.152 462.483,498.951 465.725,494.781 468.966,490.643 472.208,486.537 475.449,482.463 478.69,478.421 481.932,474.413 485.173,470.439 488.414,466.499 491.656,462.593 494.897,458.722 498.139,454.886 501.38,451.085 504.621,447.321 507.863,443.593 511.104,439.901 514.346,436.247 517.587,432.63 520.828,429.051 524.07,425.51 527.311,422.008 530.552,418.544 533.794,415.12 537.035,411.735 540.277,408.39 543.518,405.085 546.759,401.821 550.001,398.598 553.242,395.416 556.484,392.275 559.725,389.176 562.966,386.12 566.208,383.106 569.449,380.134 572.69,377.206 575.932,374.321 579.173,371.479 582.415,368.682 585.656,365.929 588.897,363.22 592.139,360.556 595.38,357.937 598.622,355.363 601.863,352.834 605.104,350.352 608.346,347.915 611.587,345.525 614.828,343.181 618.07,340.884 621.311,338.634 624.553,336.431 627.794,334.276 631.035,332.168 634.277,330.108 637.518,328.096 640.76,326.133 644.001,324.218 647.242,322.351 650.484,320.533 653.725,318.765 656.966,317.045 660.208,315.375 663.449,313.754 666.691,312.183 669.932,310.662 673.173,309.191 676.415,307.77 679.656,306.399 682.898,305.079 686.139,303.809 689.38,302.59 692.622,301.422 695.863,300.304 699.104,299.238 702.346,298.223 705.587,297.259 708.829,296.346 712.07,295.485 715.311,294.675 718.553,293.917 721.794,293.21 725.036,292.556 728.277,291.953 731.518,291.402 734.76,290.903 738.001,290.455 741.242,290.06 744.484,289.717 747.725,289.426 750.967,289.187 754.208,289.001 757.449,288.866 760.691,288.784 763.932,288.753 767.174,288.775 770.415,288.849 773.656,288.976 776.898,289.154 780.139,289.385 783.381,289.667 786.622,290.002 789.863,290.389 793.105,290.828 796.346,291.319 799.587,291.862 802.829,292.456 806.07,293.103 809.312,293.801 812.553,294.551 815.794,295.352 819.036,296.205 822.277,297.11 825.519,298.066 828.76,299.073 832.001,300.131 835.243,301.24 838.484,302.4 841.725,303.611 844.967,304.873 848.208,306.185 851.45,307.548 854.691,308.961 857.932,310.424 861.174,311.938 864.415,313.501 867.657,315.113 870.898,316.776 874.139,318.487 877.381,320.248 880.622,322.058 883.863,323.917 887.105,325.825 890.346,327.78 893.588,329.785 896.829,331.837 900.07,333.937 903.312,336.085 906.553,338.28 909.795,340.523 913.036,342.812 916.277,345.149 919.519,347.532 922.76,349.961 926.001,352.436 929.243,354.957 932.484,357.524 935.726,360.135 938.967,362.792 942.208,365.494 945.45,368.24 948.691,371.031 951.933,373.865 955.174,376.743 958.415,379.665 961.657,382.629 964.898,385.637 968.139,388.687 971.381,391.779 974.622,394.913 977.864,398.088 981.105,401.305 984.346,404.563 987.588,407.861 990.829,411.199 994.071,414.578 997.312,417.996 1000.55,421.453 1003.79,424.95 1007.04,428.485 1010.28,432.058 1013.52,435.668 1016.76,439.317 1020,443.002 1023.24,446.725 1026.48,450.483 1029.73,454.278 1032.97,458.108 1036.21,461.974 1039.45,465.874 1042.69,469.809 1045.93,473.778 1049.17,477.781 1052.42,481.817 1055.66,485.885 1058.9,489.987 1062.14,494.12 1065.38,498.285 1068.62,502.481 1071.86,506.708 1075.11,510.966 1078.35,515.253 1081.59,519.57 1084.83,523.916 1088.07,528.291 1091.31,532.694 1094.55,537.124 1097.79,541.582 1101.04,546.067 1104.28,550.579 1107.52,555.116 1110.76,559.679 1114,564.267 1117.24,568.88 1120.48,573.516 1123.73,578.177 1126.97,582.861 1130.21,587.567 1133.45,592.296 1136.69,597.047 1139.93,601.819 1143.17,606.612 1146.42,611.425 1149.66,616.258 1152.9,621.111 1156.14,625.983 1159.38,630.873 1162.62,635.781 1165.86,640.706 1169.11,645.649 1172.35,650.608 1175.59,655.583 1178.83,660.573 1182.07,665.579 1185.31,670.599 1188.55,675.633 1191.8,680.68 1195.04,685.741 1198.28,690.814 1201.52,695.899 1204.76,700.995 1208,706.102 1211.24,711.22 1214.48,716.348 1217.73,721.485 1220.97,726.631 1224.21,731.786 1227.45,736.948 1230.69,742.118 1233.93,747.295 1237.17,752.477 1240.42,757.666 1243.66,762.86 1246.9,768.059 1250.14,773.262 1253.38,778.469 1256.62,783.679 1259.86,788.891 1263.11,794.106 1266.35,799.323 1269.59,804.54 1272.83,809.759 1276.07,814.977 1279.31,820.195 1282.55,825.412 1285.8,830.627 1289.04,835.841 1292.28,841.052 1295.52,846.259 1298.76,851.464 1302,856.664 1305.24,861.86 1308.48,867.05 1311.73,872.235 1314.97,877.413 1318.21,882.585 1321.45,887.75 1324.69,892.907 1327.93,898.056 1331.17,903.196 1334.42,908.327 1337.66,913.448 1340.9,918.559 1344.14,923.659 1347.38,928.747 1350.62,933.824 1353.86,938.889 1357.11,943.941 1360.35,948.979 1363.59,954.003 1366.83,959.014 1370.07,964.009 1373.31,968.989 1376.55,973.953 1379.8,978.901 1383.04,983.832 1386.28,988.746 1389.52,993.641 1392.76,998.519 1396,1003.38 1399.24,1008.22 1402.49,1013.04 1405.73,1017.84 1408.97,1022.62 1412.21,1027.37 1415.45,1032.11 1418.69,1036.82 1421.93,1041.51 1425.17,1046.18 1428.42,1050.83 1431.66,1055.45 1434.9,1060.04 1438.14,1064.61 1441.38,1069.16 1444.62,1073.68 1447.86,1078.17 1451.11,1082.64 1454.35,1087.08 1457.59,1091.49 1460.83,1095.87 1464.07,1100.23 1467.31,1104.55 1470.55,1108.85 1473.8,1113.12 1477.04,1117.36 1480.28,1121.56 1483.52,1125.74 1486.76,1129.88 1490,1133.99 1493.24,1138.07 1496.49,1142.12 1499.73,1146.13 1502.97,1150.11 1506.21,1154.06 1509.45,1157.97 1512.69,1161.84 1515.93,1165.69 1519.18,1169.49 1522.42,1173.26 1525.66,1177 1528.9,1180.69 1532.14,1184.35 1535.38,1187.98 1538.62,1191.56 1541.86,1195.11 1545.11,1198.62 1548.35,1202.09 1551.59,1205.52 1554.83,1208.91 1558.07,1212.26 1561.31,1215.57 1564.55,1218.84 1567.8,1222.07 1571.04,1225.26 1574.28,1228.41 1577.52,1231.51 1580.76,1234.58 1584,1237.6 1587.24,1240.58 1590.49,1243.51 1593.73,1246.4 1596.97,1249.25 1600.21,1252.06 1603.45,1254.82 1606.69,1257.53 1609.93,1260.2 1613.18,1262.83 1616.42,1265.41 1619.66,1267.95 1622.9,1270.44 1626.14,1272.88 1629.38,1275.28 1632.62,1277.63 1635.86,1279.93 1639.11,1282.19 1642.35,1284.4 1645.59,1286.56 1648.83,1288.68 1652.07,1290.75 1655.31,1292.77 1658.55,1294.74 1661.8,1296.66 1665.04,1298.53 1668.28,1300.36 1671.52,1302.14 1674.76,1303.86 1678,1305.54 1681.24,1307.17 1684.49,1308.75 1687.73,1310.28 1690.97,1311.76 1694.21,1313.19 1697.45,1314.57 1700.69,1315.89 1703.93,1317.17 1707.18,1318.4 1710.42,1319.58 1713.66,1320.7 1716.9,1321.78 1720.14,1322.8 1723.38,1323.77 1726.62,1324.69 1729.87,1325.56 1733.11,1326.38 1736.35,1327.15 1739.59,1327.86 1742.83,1328.52 1746.07,1329.13 1749.31,1329.69 1752.55,1330.2 1755.8,1330.66 1759.04,1331.06 1762.28,1331.41 1765.52,1331.71 1768.76,1331.96 1772,1332.15 1775.24,1332.3 1778.49,1332.39 1781.73,1332.43 1784.97,1332.41 1788.21,1332.35 1791.45,1332.23 1794.69,1332.06 1797.93,1331.84 1801.18,1331.56 1804.42,1331.23 1807.66,1330.86 1810.9,1330.43 1814.14,1329.94 1817.38,1329.41 1820.62,1328.82 1823.87,1328.18 1827.11,1327.49 1830.35,1326.75 1833.59,1325.96 1836.83,1325.11 1840.07,1324.22 1843.31,1323.27 1846.55,1322.27 1849.8,1321.22 1853.04,1320.12 1856.28,1318.97 1859.52,1317.76 1862.76,1316.51 1866,1315.21 1869.24,1313.85 1872.49,1312.45 1875.73,1310.99 1878.97,1309.49 1882.21,1307.93 1885.45,1306.33 1888.69,1304.67 1891.93,1302.97 1895.18,1301.22 1898.42,1299.41 1901.66,1297.56 1904.9,1295.66 1908.14,1293.71 1911.38,1291.72 1914.62,1289.67 1917.87,1287.58 1921.11,1285.44 1924.35,1283.25 1927.59,1281.02 1930.83,1278.73 1934.07,1276.41 1937.31,1274.03 1940.56,1271.61 1943.8,1269.14 1947.04,1266.63 1950.28,1264.07 1953.52,1261.46 1956.76,1258.81 1960,1256.12 1963.24,1253.38 1966.49,1250.6 1969.73,1247.77 1972.97,1244.9 1976.21,1241.98 1979.45,1239.03 1982.69,1236.02 1985.93,1232.98 1989.18,1229.9 1992.42,1226.77 1995.66,1223.6 1998.9,1220.39 2002.14,1217.14 2005.38,1213.85 2008.62,1210.51 2011.87,1207.14 2015.11,1203.73 2018.35,1200.28 2021.59,1196.79 2024.83,1193.26 2028.07,1189.69 2031.31,1186.09 2034.56,1182.45 2037.8,1178.77 2041.04,1175.05 2044.28,1171.3 2047.52,1167.51 2050.76,1163.68 2054,1159.82 2057.24,1155.93 2060.49,1152 2063.73,1148.04 2066.97,1144.04 2070.21,1140.01 2073.45,1135.94 2076.69,1131.85 2079.93,1127.72 2083.18,1123.56 2086.42,1119.37 2089.66,1115.15 2092.9,1110.89 2096.14,1106.61 2099.38,1102.3 2102.62,1097.96 2105.87,1093.59 2109.11,1089.19 2112.35,1084.76 2115.59,1080.31 2118.83,1075.83 2122.07,1071.32 2125.31,1066.79 2128.56,1062.23 2131.8,1057.65 2135.04,1053.04 2138.28,1048.4 2141.52,1043.75 2144.76,1039.07 2148,1034.36 2151.25,1029.64 2154.49,1024.89 2157.73,1020.12 2160.97,1015.33 2164.21,1010.52 2167.45,1005.69 2170.69,1000.84 2173.93,995.974 2177.18,991.087 2180.42,986.182 2183.66,981.259 2186.9,976.319 2190.14,971.363 2193.38,966.39 2196.62,961.402 2199.87,956.399 2203.11,951.381 2206.35,946.35 2209.59,941.304 2212.83,936.246 2216.07,931.175 2219.31,926.092 2222.56,920.997 2225.8,915.891 2229.04,910.775 2232.28,905.649 2235.52,900.513 2238.76,895.368 2242,890.215 2245.25,885.054 2248.49,879.885 2251.73,874.71 2254.97,869.528 2258.21,864.34 2261.45,859.147 2264.69,853.949 2267.94,848.746 2271.18,843.54 2274.42,838.331 2277.66,833.118 2280.9,827.904 2284.14,822.688 2287.38,817.47 2290.62,812.252 "/>
<circle clip-path="url(#clip772)" cx="2021.59" cy="1249.49" r="14.4" fill="#e26f46" fill-rule="evenodd" fill-opacity="1" stroke="#000000" stroke-opacity="1" stroke-width="3.2"/>
<circle clip-path="url(#clip772)" cx="605.104" cy="466.888" r="14.4" fill="#e26f46" fill-rule="evenodd" fill-opacity="1" stroke="#000000" stroke-opacity="1" stroke-width="3.2"/>
<circle clip-path="url(#clip772)" cx="2206.35" cy="842.304" r="14.4" fill="#e26f46" fill-rule="evenodd" fill-opacity="1" stroke="#000000" stroke-opacity="1" stroke-width="3.2"/>
<circle clip-path="url(#clip772)" cx="1635.86" cy="1367.69" r="14.4" fill="#e26f46" fill-rule="evenodd" fill-opacity="1" stroke="#000000" stroke-opacity="1" stroke-width="3.2"/>
<circle clip-path="url(#clip772)" cx="984.346" cy="419.973" r="14.4" fill="#e26f46" fill-rule="evenodd" fill-opacity="1" stroke="#000000" stroke-opacity="1" stroke-width="3.2"/>
<circle clip-path="url(#clip772)" cx="1853.04" cy="1193.84" r="14.4" fill="#e26f46" fill-rule="evenodd" fill-opacity="1" stroke="#000000" stroke-opacity="1" stroke-width="3.2"/>
<circle clip-path="url(#clip772)" cx="1289.04" cy="715.789" r="14.4" fill="#e26f46" fill-rule="evenodd" fill-opacity="1" stroke="#000000" stroke-opacity="1" stroke-width="3.2"/>
<circle clip-path="url(#clip772)" cx="459.242" cy="401.342" r="14.4" fill="#e26f46" fill-rule="evenodd" fill-opacity="1" stroke="#000000" stroke-opacity="1" stroke-width="3.2"/>
<circle clip-path="url(#clip772)" cx="1992.42" cy="1285.15" r="14.4" fill="#e26f46" fill-rule="evenodd" fill-opacity="1" stroke="#000000" stroke-opacity="1" stroke-width="3.2"/>
<circle clip-path="url(#clip772)" cx="857.932" cy="197.727" r="14.4" fill="#e26f46" fill-rule="evenodd" fill-opacity="1" stroke="#000000" stroke-opacity="1" stroke-width="3.2"/>
<circle clip-path="url(#clip772)" cx="1363.59" cy="881.495" r="14.4" fill="#e26f46" fill-rule="evenodd" fill-opacity="1" stroke="#000000" stroke-opacity="1" stroke-width="3.2"/>
<circle clip-path="url(#clip772)" cx="2005.38" cy="1251.35" r="14.4" fill="#e26f46" fill-rule="evenodd" fill-opacity="1" stroke="#000000" stroke-opacity="1" stroke-width="3.2"/>
<circle clip-path="url(#clip772)" cx="556.484" cy="299.198" r="14.4" fill="#e26f46" fill-rule="evenodd" fill-opacity="1" stroke="#000000" stroke-opacity="1" stroke-width="3.2"/>
<circle clip-path="url(#clip772)" cx="1191.8" cy="745.948" r="14.4" fill="#e26f46" fill-rule="evenodd" fill-opacity="1" stroke="#000000" stroke-opacity="1" stroke-width="3.2"/>
<circle clip-path="url(#clip772)" cx="1075.11" cy="598.105" r="14.4" fill="#e26f46" fill-rule="evenodd" fill-opacity="1" stroke="#000000" stroke-opacity="1" stroke-width="3.2"/>
<circle clip-path="url(#clip772)" cx="1580.76" cy="1200" r="14.4" fill="#e26f46" fill-rule="evenodd" fill-opacity="1" stroke="#000000" stroke-opacity="1" stroke-width="3.2"/>
<circle clip-path="url(#clip772)" cx="1415.45" cy="1141.3" r="14.4" fill="#e26f46" fill-rule="evenodd" fill-opacity="1" stroke="#000000" stroke-opacity="1" stroke-width="3.2"/>
<circle clip-path="url(#clip772)" cx="1078.35" cy="392.014" r="14.4" fill="#e26f46" fill-rule="evenodd" fill-opacity="1" stroke="#000000" stroke-opacity="1" stroke-width="3.2"/>
<circle clip-path="url(#clip772)" cx="942.208" cy="334.541" r="14.4" fill="#e26f46" fill-rule="evenodd" fill-opacity="1" stroke="#000000" stroke-opacity="1" stroke-width="3.2"/>
<circle clip-path="url(#clip772)" cx="1752.55" cy="1250.52" r="14.4" fill="#e26f46" fill-rule="evenodd" fill-opacity="1" stroke="#000000" stroke-opacity="1" stroke-width="3.2"/>
<path clip-path="url(#clip772)" d="M255.035 1018.41 L258.276 1014 L261.517 1009.54 L264.759 1005.04 L268 1000.48 L271.242 995.869 L274.483 991.21 L277.724 986.501 L280.966 981.741 L284.207 976.93 L287.449 972.07 L290.69 967.16 L293.931 962.2 L297.173 957.191 L300.414 952.133 L303.655 947.027 L306.897 941.872 L310.138 936.67 L313.38 931.421 L316.621 926.126 L319.862 920.785 L323.104 915.4 L326.345 909.971 L329.587 904.499 L332.828 898.984 L336.069 893.43 L339.311 887.836 L342.552 882.203 L345.793 876.534 L349.035 870.83 L352.276 865.093 L355.518 859.324 L358.759 853.525 L362 847.699 L365.242 841.848 L368.483 835.973 L371.725 830.078 L374.966 824.166 L378.207 818.239 L381.449 812.3 L384.69 806.353 L387.931 800.402 L391.173 794.449 L394.414 788.499 L397.656 782.557 L400.897 776.626 L404.138 770.711 L407.38 764.818 L410.621 758.952 L413.863 753.117 L417.104 747.321 L420.345 741.569 L423.587 735.867 L426.828 730.223 L430.069 724.644 L433.311 719.136 L436.552 713.708 L439.794 708.367 L443.035 703.121 L446.276 697.98 L449.518 692.952 L452.759 688.045 L456.001 683.268 L459.242 678.631 L462.483 674.141 L465.725 669.794 L468.966 665.584 L472.208 661.508 L475.449 657.56 L478.69 653.735 L481.932 650.028 L485.173 646.436 L488.414 642.954 L491.656 639.578 L494.897 636.307 L498.139 633.136 L501.38 630.065 L504.621 627.091 L507.863 624.214 L511.104 621.433 L514.346 618.749 L517.587 616.163 L520.828 613.676 L524.07 611.291 L527.311 609.011 L530.552 606.839 L533.794 604.779 L537.035 602.837 L540.277 601.018 L543.518 599.328 L546.759 597.773 L550.001 596.36 L553.242 595.097 L556.484 593.991 L559.725 593.047 L562.966 592.261 L566.208 591.625 L569.449 591.133 L572.69 590.776 L575.932 590.55 L579.173 590.446 L582.415 590.461 L585.656 590.587 L588.897 590.82 L592.139 591.154 L595.38 591.585 L598.622 592.107 L601.863 592.716 L605.104 593.408 L608.346 594.178 L611.587 595.016 L614.828 595.912 L618.07 596.854 L621.311 597.834 L624.553 598.841 L627.794 599.865 L631.035 600.899 L634.277 601.934 L637.518 602.96 L640.76 603.972 L644.001 604.961 L647.242 605.92 L650.484 606.844 L653.725 607.726 L656.966 608.56 L660.208 609.343 L663.449 610.068 L666.691 610.732 L669.932 611.331 L673.173 611.86 L676.415 612.318 L679.656 612.699 L682.898 613.003 L686.139 613.227 L689.38 613.368 L692.622 613.424 L695.863 613.395 L699.104 613.279 L702.346 613.075 L705.587 612.782 L708.829 612.399 L712.07 611.927 L715.311 611.365 L718.553 610.713 L721.794 609.972 L725.036 609.141 L728.277 608.223 L731.518 607.217 L734.76 606.125 L738.001 604.949 L741.242 603.689 L744.484 602.348 L747.725 600.928 L750.967 599.43 L754.208 597.857 L757.449 596.212 L760.691 594.497 L763.932 592.716 L767.174 590.871 L770.415 588.967 L773.656 587.007 L776.898 584.994 L780.139 582.933 L783.381 580.829 L786.622 578.686 L789.863 576.508 L793.105 574.302 L796.346 572.073 L799.587 569.827 L802.829 567.569 L806.07 565.306 L809.312 563.045 L812.553 560.792 L815.794 558.556 L819.036 556.344 L822.277 554.164 L825.519 552.024 L828.76 549.933 L832.001 547.9 L835.243 545.934 L838.484 544.046 L841.725 542.245 L844.967 540.541 L848.208 538.945 L851.45 537.468 L854.691 536.121 L857.932 534.915 L861.174 533.858 L864.415 532.948 L867.657 532.178 L870.898 531.542 L874.139 531.036 L877.381 530.653 L880.622 530.388 L883.863 530.237 L887.105 530.196 L890.346 530.261 L893.588 530.428 L896.829 530.695 L900.07 531.06 L903.312 531.52 L906.553 532.075 L909.795 532.723 L913.036 533.466 L916.277 534.303 L919.519 535.236 L922.76 536.267 L926.001 537.397 L929.243 538.631 L932.484 539.97 L935.726 541.42 L938.967 542.985 L942.208 544.669 L945.45 546.476 L948.691 548.402 L951.933 550.442 L955.174 552.59 L958.415 554.844 L961.657 557.198 L964.898 559.65 L968.139 562.195 L971.381 564.832 L974.622 567.559 L977.864 570.374 L981.105 573.275 L984.346 576.262 L987.588 579.334 L990.829 582.484 L994.071 585.703 L997.312 588.986 L1000.55 592.324 L1003.79 595.714 L1007.04 599.148 L1010.28 602.623 L1013.52 606.134 L1016.76 609.68 L1020 613.256 L1023.24 616.863 L1026.48 620.499 L1029.73 624.164 L1032.97 627.86 L1036.21 631.588 L1039.45 635.351 L1042.69 639.153 L1045.93 642.997 L1049.17 646.888 L1052.42 650.832 L1055.66 654.835 L1058.9 658.904 L1062.14 663.046 L1065.38 667.268 L1068.62 671.579 L1071.86 675.987 L1075.11 680.5 L1078.35 685.125 L1081.59 689.864 L1084.83 694.709 L1088.07 699.648 L1091.31 704.67 L1094.55 709.762 L1097.79 714.915 L1101.04 720.118 L1104.28 725.361 L1107.52 730.633 L1110.76 735.926 L1114 741.232 L1117.24 746.542 L1120.48 751.85 L1123.73 757.148 L1126.97 762.43 L1130.21 767.692 L1133.45 772.928 L1136.69 778.133 L1139.93 783.306 L1143.17 788.442 L1146.42 793.539 L1149.66 798.595 L1152.9 803.61 L1156.14 808.582 L1159.38 813.511 L1162.62 818.397 L1165.86 823.242 L1169.11 828.047 L1172.35 832.813 L1175.59 837.542 L1178.83 842.237 L1182.07 846.901 L1185.31 851.536 L1188.55 856.146 L1191.8 860.735 L1195.04 865.305 L1198.28 869.855 L1201.52 874.382 L1204.76 878.886 L1208 883.363 L1211.24 887.813 L1214.48 892.235 L1217.73 896.628 L1220.97 900.991 L1224.21 905.324 L1227.45 909.629 L1230.69 913.905 L1233.93 918.154 L1237.17 922.377 L1240.42 926.578 L1243.66 930.759 L1246.9 934.922 L1250.14 939.072 L1253.38 943.212 L1256.62 947.348 L1259.86 951.484 L1263.11 955.627 L1266.35 959.782 L1269.59 963.956 L1272.83 968.155 L1276.07 972.389 L1279.31 976.663 L1282.55 980.987 L1285.8 985.369 L1289.04 989.818 L1292.28 994.341 L1295.52 998.934 L1298.76 1003.59 L1302 1008.32 L1305.24 1013.1 L1308.48 1017.93 L1311.73 1022.81 L1314.97 1027.75 L1318.21 1032.72 L1321.45 1037.74 L1324.69 1042.81 L1327.93 1047.91 L1331.17 1053.06 L1334.42 1058.25 L1337.66 1063.48 L1340.9 1068.75 L1344.14 1074.07 L1347.38 1079.44 L1350.62 1084.85 L1353.86 1090.32 L1357.11 1095.85 L1360.35 1101.44 L1363.59 1107.1 L1366.83 1112.82 L1370.07 1118.6 L1373.31 1124.44 L1376.55 1130.33 L1379.8 1136.26 L1383.04 1142.22 L1386.28 1148.21 L1389.52 1154.23 L1392.76 1160.26 L1396 1166.3 L1399.24 1172.35 L1402.49 1178.4 L1405.73 1184.45 L1408.97 1190.49 L1412.21 1196.52 L1415.45 1202.54 L1418.69 1208.53 L1421.93 1214.5 L1425.17 1220.43 L1428.42 1226.32 L1431.66 1232.16 L1434.9 1237.95 L1438.14 1243.67 L1441.38 1249.33 L1444.62 1254.91 L1447.86 1260.42 L1451.11 1265.84 L1454.35 1271.17 L1457.59 1276.42 L1460.83 1281.56 L1464.07 1286.6 L1467.31 1291.54 L1470.55 1296.37 L1473.8 1301.1 L1477.04 1305.71 L1480.28 1310.21 L1483.52 1314.59 L1486.76 1318.86 L1490 1323.01 L1493.24 1327.04 L1496.49 1330.95 L1499.73 1334.75 L1502.97 1338.43 L1506.21 1341.99 L1509.45 1345.44 L1512.69 1348.77 L1515.93 1351.99 L1519.18 1355.1 L1522.42 1358.1 L1525.66 1361 L1528.9 1363.79 L1532.14 1366.48 L1535.38 1369.08 L1538.62 1371.59 L1541.86 1374.01 L1545.11 1376.35 L1548.35 1378.61 L1551.59 1380.81 L1554.83 1382.93 L1558.07 1385 L1561.31 1387.01 L1564.55 1388.98 L1567.8 1390.9 L1571.04 1392.8 L1574.28 1394.67 L1577.52 1396.52 L1580.76 1398.37 L1584 1400.21 L1587.24 1402.04 L1590.49 1403.87 L1593.73 1405.68 L1596.97 1407.49 L1600.21 1409.28 L1603.45 1411.05 L1606.69 1412.8 L1609.93 1414.53 L1613.18 1416.23 L1616.42 1417.91 L1619.66 1419.56 L1622.9 1421.18 L1626.14 1422.77 L1629.38 1424.33 L1632.62 1425.85 L1635.86 1427.35 L1639.11 1428.8 L1642.35 1430.22 L1645.59 1431.6 L1648.83 1432.92 L1652.07 1434.2 L1655.31 1435.42 L1658.55 1436.58 L1661.8 1437.68 L1665.04 1438.71 L1668.28 1439.68 L1671.52 1440.58 L1674.76 1441.4 L1678 1442.16 L1681.24 1442.84 L1684.49 1443.44 L1687.73 1443.97 L1690.97 1444.43 L1694.21 1444.82 L1697.45 1445.13 L1700.69 1445.38 L1703.93 1445.55 L1707.18 1445.67 L1710.42 1445.72 L1713.66 1445.71 L1716.9 1445.64 L1720.14 1445.53 L1723.38 1445.37 L1726.62 1445.17 L1729.87 1444.93 L1733.11 1444.66 L1736.35 1444.37 L1739.59 1444.06 L1742.83 1443.74 L1746.07 1443.41 L1749.31 1443.08 L1752.55 1442.76 L1755.8 1442.45 L1759.04 1442.15 L1762.28 1441.86 L1765.52 1441.58 L1768.76 1441.29 L1772 1441.01 L1775.24 1440.72 L1778.49 1440.42 L1781.73 1440.11 L1784.97 1439.79 L1788.21 1439.46 L1791.45 1439.11 L1794.69 1438.75 L1797.93 1438.37 L1801.18 1437.98 L1804.42 1437.57 L1807.66 1437.14 L1810.9 1436.7 L1814.14 1436.25 L1817.38 1435.78 L1820.62 1435.3 L1823.87 1434.82 L1827.11 1434.32 L1830.35 1433.83 L1833.59 1433.33 L1836.83 1432.84 L1840.07 1432.35 L1843.31 1431.88 L1846.55 1431.42 L1849.8 1430.98 L1853.04 1430.56 L1856.28 1430.16 L1859.52 1429.78 L1862.76 1429.42 L1866 1429.06 L1869.24 1428.69 L1872.49 1428.3 L1875.73 1427.9 L1878.97 1427.47 L1882.21 1427.01 L1885.45 1426.5 L1888.69 1425.95 L1891.93 1425.34 L1895.18 1424.67 L1898.42 1423.94 L1901.66 1423.14 L1904.9 1422.26 L1908.14 1421.31 L1911.38 1420.28 L1914.62 1419.16 L1917.87 1417.96 L1921.11 1416.67 L1924.35 1415.29 L1927.59 1413.82 L1930.83 1412.25 L1934.07 1410.6 L1937.31 1408.86 L1940.56 1407.03 L1943.8 1405.11 L1947.04 1403.12 L1950.28 1401.04 L1953.52 1398.89 L1956.76 1396.66 L1960 1394.38 L1963.24 1392.03 L1966.49 1389.64 L1969.73 1387.2 L1972.97 1384.73 L1976.21 1382.23 L1979.45 1379.72 L1982.69 1377.2 L1985.93 1374.69 L1989.18 1372.19 L1992.42 1369.71 L1995.66 1367.28 L1998.9 1364.88 L2002.14 1362.53 L2005.38 1360.24 L2008.62 1358 L2011.87 1355.81 L2015.11 1353.67 L2018.35 1351.58 L2021.59 1349.54 L2024.83 1347.53 L2028.07 1345.56 L2031.31 1343.6 L2034.56 1341.66 L2037.8 1339.72 L2041.04 1337.77 L2044.28 1335.81 L2047.52 1333.82 L2050.76 1331.8 L2054 1329.74 L2057.24 1327.63 L2060.49 1325.48 L2063.73 1323.27 L2066.97 1321 L2070.21 1318.67 L2073.45 1316.27 L2076.69 1313.81 L2079.93 1311.27 L2083.18 1308.66 L2086.42 1305.98 L2089.66 1303.22 L2092.9 1300.4 L2096.14 1297.5 L2099.38 1294.53 L2102.62 1291.5 L2105.87 1288.4 L2109.11 1285.23 L2112.35 1282.01 L2115.59 1278.73 L2118.83 1275.4 L2122.07 1272.02 L2125.31 1268.6 L2128.56 1265.14 L2131.8 1261.65 L2135.04 1258.14 L2138.28 1254.6 L2141.52 1251.06 L2144.76 1247.51 L2148 1243.96 L2151.25 1240.43 L2154.49 1236.92 L2157.73 1233.43 L2160.97 1229.98 L2164.21 1226.58 L2167.45 1223.24 L2170.69 1219.97 L2173.93 1216.77 L2177.18 1213.66 L2180.42 1210.65 L2183.66 1207.75 L2186.9 1204.97 L2190.14 1202.32 L2193.38 1199.82 L2196.62 1197.48 L2199.87 1195.3 L2203.11 1193.3 L2206.35 1191.49 L2209.59 1189.87 L2212.83 1188.45 L2216.07 1187.22 L2219.31 1186.16 L2222.56 1185.28 L2225.8 1184.56 L2229.04 1184 L2232.28 1183.58 L2235.52 1183.3 L2238.76 1183.16 L2242 1183.15 L2245.25 1183.25 L2248.49 1183.47 L2251.73 1183.79 L2254.97 1184.22 L2258.21 1184.74 L2261.45 1185.34 L2264.69 1186.03 L2267.94 1186.8 L2271.18 1187.63 L2274.42 1188.54 L2277.66 1189.51 L2280.9 1190.53 L2284.14 1191.61 L2287.38 1192.74 L2290.62 1193.91 L2290.62 551.285 L2287.38 556.286 L2284.14 561.337 L2280.9 566.437 L2277.66 571.584 L2274.42 576.776 L2271.18 582.011 L2267.94 587.285 L2264.69 592.598 L2261.45 597.946 L2258.21 603.326 L2254.97 608.735 L2251.73 614.17 L2248.49 619.628 L2245.25 625.105 L2242 630.597 L2238.76 636.1 L2235.52 641.611 L2232.28 647.126 L2229.04 652.639 L2225.8 658.148 L2222.56 663.647 L2219.31 669.133 L2216.07 674.6 L2212.83 680.046 L2209.59 685.465 L2206.35 690.854 L2203.11 696.211 L2199.87 701.539 L2196.62 706.842 L2193.38 712.125 L2190.14 717.395 L2186.9 722.654 L2183.66 727.91 L2180.42 733.167 L2177.18 738.43 L2173.93 743.703 L2170.69 748.993 L2167.45 754.303 L2164.21 759.637 L2160.97 765 L2157.73 770.396 L2154.49 775.828 L2151.25 781.299 L2148 786.813 L2144.76 792.371 L2141.52 797.975 L2138.28 803.629 L2135.04 809.332 L2131.8 815.085 L2128.56 820.891 L2125.31 826.747 L2122.07 832.655 L2118.83 838.613 L2115.59 844.62 L2112.35 850.675 L2109.11 856.775 L2105.87 862.918 L2102.62 869.1 L2099.38 875.319 L2096.14 881.569 L2092.9 887.847 L2089.66 894.146 L2086.42 900.462 L2083.18 906.788 L2079.93 913.117 L2076.69 919.441 L2073.45 925.752 L2070.21 932.041 L2066.97 938.298 L2063.73 944.512 L2060.49 950.674 L2057.24 956.77 L2054 962.788 L2050.76 968.714 L2047.52 974.534 L2044.28 980.233 L2041.04 985.796 L2037.8 991.204 L2034.56 996.442 L2031.31 1001.49 L2028.07 1006.33 L2024.83 1010.95 L2021.59 1015.32 L2018.35 1019.43 L2015.11 1023.26 L2011.87 1026.82 L2008.62 1030.1 L2005.38 1033.08 L2002.14 1035.77 L1998.9 1038.17 L1995.66 1040.29 L1992.42 1042.13 L1989.18 1043.69 L1985.93 1045.01 L1982.69 1046.1 L1979.45 1046.97 L1976.21 1047.65 L1972.97 1048.16 L1969.73 1048.51 L1966.49 1048.71 L1963.24 1048.8 L1960 1048.78 L1956.76 1048.66 L1953.52 1048.46 L1950.28 1048.2 L1947.04 1047.88 L1943.8 1047.52 L1940.56 1047.12 L1937.31 1046.7 L1934.07 1046.27 L1930.83 1045.83 L1927.59 1045.39 L1924.35 1044.95 L1921.11 1044.53 L1917.87 1044.12 L1914.62 1043.74 L1911.38 1043.37 L1908.14 1043.04 L1904.9 1042.74 L1901.66 1042.46 L1898.42 1042.23 L1895.18 1042.02 L1891.93 1041.85 L1888.69 1041.71 L1885.45 1041.61 L1882.21 1041.53 L1878.97 1041.49 L1875.73 1041.47 L1872.49 1041.48 L1869.24 1041.51 L1866 1041.56 L1862.76 1041.63 L1859.52 1041.7 L1856.28 1041.79 L1853.04 1041.87 L1849.8 1041.96 L1846.55 1042.05 L1843.31 1042.15 L1840.07 1042.26 L1836.83 1042.38 L1833.59 1042.51 L1830.35 1042.66 L1827.11 1042.84 L1823.87 1043.04 L1820.62 1043.26 L1817.38 1043.51 L1814.14 1043.78 L1810.9 1044.08 L1807.66 1044.41 L1804.42 1044.77 L1801.18 1045.15 L1797.93 1045.56 L1794.69 1046 L1791.45 1046.45 L1788.21 1046.93 L1784.97 1047.42 L1781.73 1047.92 L1778.49 1048.44 L1775.24 1048.96 L1772 1049.48 L1768.76 1050 L1765.52 1050.51 L1762.28 1051.01 L1759.04 1051.49 L1755.8 1051.94 L1752.55 1052.36 L1749.31 1052.74 L1746.07 1053.1 L1742.83 1053.42 L1739.59 1053.72 L1736.35 1054 L1733.11 1054.26 L1729.87 1054.5 L1726.62 1054.73 L1723.38 1054.95 L1720.14 1055.17 L1716.9 1055.37 L1713.66 1055.57 L1710.42 1055.77 L1707.18 1055.96 L1703.93 1056.14 L1700.69 1056.32 L1697.45 1056.49 L1694.21 1056.64 L1690.97 1056.79 L1687.73 1056.92 L1684.49 1057.03 L1681.24 1057.11 L1678 1057.16 L1674.76 1057.18 L1671.52 1057.16 L1668.28 1057.09 L1665.04 1056.96 L1661.8 1056.77 L1658.55 1056.51 L1655.31 1056.17 L1652.07 1055.75 L1648.83 1055.22 L1645.59 1054.58 L1642.35 1053.82 L1639.11 1052.93 L1635.86 1051.9 L1632.62 1050.71 L1629.38 1049.38 L1626.14 1047.9 L1622.9 1046.28 L1619.66 1044.53 L1616.42 1042.64 L1613.18 1040.63 L1609.93 1038.49 L1606.69 1036.23 L1603.45 1033.85 L1600.21 1031.35 L1596.97 1028.73 L1593.73 1026 L1590.49 1023.16 L1587.24 1020.2 L1584 1017.14 L1580.76 1013.96 L1577.52 1010.68 L1574.28 1007.3 L1571.04 1003.83 L1567.8 1000.28 L1564.55 996.656 L1561.31 992.973 L1558.07 989.239 L1554.83 985.461 L1551.59 981.648 L1548.35 977.807 L1545.11 973.945 L1541.86 970.069 L1538.62 966.185 L1535.38 962.299 L1532.14 958.416 L1528.9 954.541 L1525.66 950.679 L1522.42 946.834 L1519.18 943.008 L1515.93 939.206 L1512.69 935.429 L1509.45 931.679 L1506.21 927.959 L1502.97 924.27 L1499.73 920.612 L1496.49 916.987 L1493.24 913.393 L1490 909.83 L1486.76 906.298 L1483.52 902.795 L1480.28 899.319 L1477.04 895.869 L1473.8 892.441 L1470.55 889.032 L1467.31 885.639 L1464.07 882.258 L1460.83 878.885 L1457.59 875.514 L1454.35 872.139 L1451.11 868.757 L1447.86 865.359 L1444.62 861.939 L1441.38 858.49 L1438.14 855.004 L1434.9 851.474 L1431.66 847.889 L1428.42 844.242 L1425.17 840.524 L1421.93 836.723 L1418.69 832.831 L1415.45 828.837 L1412.21 824.733 L1408.97 820.523 L1405.73 816.211 L1402.49 811.804 L1399.24 807.305 L1396 802.72 L1392.76 798.053 L1389.52 793.309 L1386.28 788.491 L1383.04 783.602 L1379.8 778.645 L1376.55 773.624 L1373.31 768.541 L1370.07 763.397 L1366.83 758.195 L1363.59 752.937 L1360.35 747.624 L1357.11 742.265 L1353.86 736.866 L1350.62 731.436 L1347.38 725.981 L1344.14 720.508 L1340.9 715.025 L1337.66 709.537 L1334.42 704.049 L1331.17 698.567 L1327.93 693.096 L1324.69 687.639 L1321.45 682.199 L1318.21 676.781 L1314.97 671.386 L1311.73 666.017 L1308.48 660.675 L1305.24 655.361 L1302 650.076 L1298.76 644.821 L1295.52 639.594 L1292.28 634.397 L1289.04 629.228 L1285.8 624.088 L1282.55 618.98 L1279.31 613.906 L1276.07 608.871 L1272.83 603.877 L1269.59 598.927 L1266.35 594.024 L1263.11 589.169 L1259.86 584.364 L1256.62 579.609 L1253.38 574.907 L1250.14 570.257 L1246.9 565.658 L1243.66 561.111 L1240.42 556.613 L1237.17 552.165 L1233.93 547.763 L1230.69 543.404 L1227.45 539.087 L1224.21 534.808 L1220.97 530.562 L1217.73 526.347 L1214.48 522.156 L1211.24 517.985 L1208 513.83 L1204.76 509.683 L1201.52 505.54 L1198.28 501.393 L1195.04 497.237 L1191.8 493.065 L1188.55 488.873 L1185.31 484.663 L1182.07 480.443 L1178.83 476.218 L1175.59 471.995 L1172.35 467.778 L1169.11 463.573 L1165.86 459.385 L1162.62 455.217 L1159.38 451.075 L1156.14 446.961 L1152.9 442.878 L1149.66 438.83 L1146.42 434.818 L1143.17 430.843 L1139.93 426.908 L1136.69 423.013 L1133.45 419.157 L1130.21 415.34 L1126.97 411.56 L1123.73 407.817 L1120.48 404.108 L1117.24 400.43 L1114 396.78 L1110.76 393.153 L1107.52 389.545 L1104.28 385.952 L1101.04 382.367 L1097.79 378.784 L1094.55 375.197 L1091.31 371.599 L1088.07 367.983 L1084.83 364.342 L1081.59 360.668 L1078.35 356.954 L1075.11 353.192 L1071.86 349.379 L1068.62 345.52 L1065.38 341.624 L1062.14 337.697 L1058.9 333.748 L1055.66 329.784 L1052.42 325.811 L1049.17 321.837 L1045.93 317.868 L1042.69 313.909 L1039.45 309.965 L1036.21 306.041 L1032.97 302.14 L1029.73 298.265 L1026.48 294.42 L1023.24 290.605 L1020 286.822 L1016.76 283.07 L1013.52 279.35 L1010.28 275.659 L1007.04 271.997 L1003.79 268.361 L1000.55 264.746 L997.312 261.151 L994.071 257.57 L990.829 253.998 L987.588 250.431 L984.346 246.862 L981.105 243.287 L977.864 239.707 L974.622 236.125 L971.381 232.543 L968.139 228.962 L964.898 225.385 L961.657 221.811 L958.415 218.243 L955.174 214.681 L951.933 211.124 L948.691 207.572 L945.45 204.026 L942.208 200.484 L938.967 196.947 L935.726 193.419 L932.484 189.907 L929.243 186.416 L926.001 182.951 L922.76 179.517 L919.519 176.12 L916.277 172.762 L913.036 169.449 L909.795 166.183 L906.553 162.967 L903.312 159.804 L900.07 156.696 L896.829 153.645 L893.588 150.651 L890.346 147.717 L887.105 144.842 L883.863 142.026 L880.622 139.271 L877.381 136.575 L874.139 133.937 L870.898 131.358 L867.657 128.837 L864.415 126.372 L861.174 123.962 L857.932 121.608 L854.691 119.308 L851.45 117.065 L848.208 114.883 L844.967 112.766 L841.725 110.716 L838.484 108.736 L835.243 106.831 L832.001 105.003 L828.76 103.256 L825.519 101.592 L822.277 100.014 L819.036 98.5238 L815.794 97.125 L812.553 95.8193 L809.312 94.6087 L806.07 93.4951 L802.829 92.4801 L799.587 91.5652 L796.346 90.7518 L793.105 90.041 L789.863 89.4338 L786.622 88.931 L783.381 88.5334 L780.139 88.2415 L776.898 88.0557 L773.656 87.9763 L770.415 88.0033 L767.174 88.1369 L763.932 88.3769 L760.691 88.7231 L757.449 89.1751 L754.208 89.7325 L750.967 90.3947 L747.725 91.161 L744.484 92.0306 L741.242 93.0027 L738.001 94.0762 L734.76 95.25 L731.518 96.5228 L728.277 97.8934 L725.036 99.3603 L721.794 100.922 L718.553 102.577 L715.311 104.323 L712.07 106.158 L708.829 108.08 L705.587 110.088 L702.346 112.178 L699.104 114.348 L695.863 116.596 L692.622 118.919 L689.38 121.313 L686.139 123.776 L682.898 126.305 L679.656 128.894 L676.415 131.542 L673.173 134.243 L669.932 136.994 L666.691 139.789 L663.449 142.625 L660.208 145.496 L656.966 148.396 L653.725 151.32 L650.484 154.262 L647.242 157.215 L644.001 160.173 L640.76 163.129 L637.518 166.075 L634.277 169.002 L631.035 171.904 L627.794 174.771 L624.553 177.594 L621.311 180.364 L618.07 183.072 L614.828 185.706 L611.587 188.257 L608.346 190.715 L605.104 193.068 L601.863 195.308 L598.622 197.437 L595.38 199.457 L592.139 201.372 L588.897 203.186 L585.656 204.9 L582.415 206.518 L579.173 208.042 L575.932 209.475 L572.69 210.819 L569.449 212.077 L566.208 213.249 L562.966 214.338 L559.725 215.345 L556.484 216.271 L553.242 217.12 L550.001 217.896 L546.759 218.604 L543.518 219.25 L540.277 219.839 L537.035 220.376 L533.794 220.867 L530.552 221.314 L527.311 221.721 L524.07 222.093 L520.828 222.431 L517.587 222.737 L514.346 223.013 L511.104 223.261 L507.863 223.48 L504.621 223.671 L501.38 223.832 L498.139 223.963 L494.897 224.063 L491.656 224.129 L488.414 224.159 L485.173 224.15 L481.932 224.098 L478.69 224.001 L475.449 223.855 L472.208 223.656 L468.966 223.399 L465.725 223.081 L462.483 222.698 L459.242 222.245 L456.001 221.719 L452.759 221.126 L449.518 220.469 L446.276 219.755 L443.035 218.988 L439.794 218.175 L436.552 217.32 L433.311 216.428 L430.069 215.505 L426.828 214.554 L423.587 213.581 L420.345 212.589 L417.104 211.584 L413.863 210.567 L410.621 209.544 L407.38 208.517 L404.138 207.49 L400.897 206.465 L397.656 205.446 L394.414 204.434 L391.173 203.433 L387.931 202.443 L384.69 201.469 L381.449 200.51 L378.207 199.569 L374.966 198.648 L371.725 197.747 L368.483 196.868 L365.242 196.012 L362 195.181 L358.759 194.374 L355.518 193.593 L352.276 192.838 L349.035 192.11 L345.793 191.409 L342.552 190.737 L339.311 190.092 L336.069 189.476 L332.828 188.889 L329.587 188.331 L326.345 187.801 L323.104 187.301 L319.862 186.829 L316.621 186.386 L313.38 185.972 L310.138 185.586 L306.897 185.229 L303.655 184.9 L300.414 184.6 L297.173 184.327 L293.931 184.081 L290.69 183.862 L287.449 183.671 L284.207 183.505 L280.966 183.366 L277.724 183.253 L274.483 183.165 L271.242 183.101 L268 183.062 L264.759 183.048 L261.517 183.056 L258.276 183.088 L255.035 183.143  Z" fill="#3da44d" fill-rule="evenodd" fill-opacity="0.1"/>
<polyline clip-path="url(#clip772)" style="stroke:#3da44d; stroke-linecap:round; stroke-linejoin:round; stroke-width:8; stroke-opacity:1; fill:none" points="255.035,600.774 258.276,598.544 261.517,596.3 264.759,594.042 268,591.77 271.242,589.485 274.483,587.187 277.724,584.877 280.966,582.553 284.207,580.218 287.449,577.87 290.69,575.511 293.931,573.141 297.173,570.759 300.414,568.367 303.655,565.964 306.897,563.551 310.138,561.128 313.38,558.697 316.621,556.256 319.862,553.807 323.104,551.35 326.345,548.886 329.587,546.415 332.828,543.937 336.069,541.453 339.311,538.964 342.552,536.47 345.793,533.972 349.035,531.47 352.276,528.965 355.518,526.458 358.759,523.949 362,521.44 365.242,518.93 368.483,516.421 371.725,513.913 374.966,511.407 378.207,508.904 381.449,506.405 384.69,503.911 387.931,501.423 391.173,498.941 394.414,496.467 397.656,494.001 400.897,491.545 404.138,489.1 407.38,486.668 410.621,484.248 413.863,481.842 417.104,479.452 420.345,477.079 423.587,474.724 426.828,472.389 430.069,470.074 433.311,467.782 436.552,465.514 439.794,463.271 443.035,461.055 446.276,458.867 449.518,456.71 452.759,454.585 456.001,452.494 459.242,450.438 462.483,448.419 465.725,446.437 468.966,444.492 472.208,442.582 475.449,440.708 478.69,438.868 481.932,437.063 485.173,435.293 488.414,433.556 491.656,431.854 494.897,430.185 498.139,428.55 501.38,426.948 504.621,425.381 507.863,423.847 511.104,422.347 514.346,420.881 517.587,419.45 520.828,418.053 524.07,416.692 527.311,415.366 530.552,414.076 533.794,412.823 537.035,411.607 540.277,410.428 543.518,409.289 546.759,408.188 550.001,407.128 553.242,406.109 556.484,405.131 559.725,404.196 562.966,403.299 566.208,402.437 569.449,401.605 572.69,400.798 575.932,400.012 579.173,399.244 582.415,398.489 585.656,397.743 588.897,397.003 592.139,396.263 595.38,395.521 598.622,394.772 601.863,394.012 605.104,393.238 608.346,392.447 611.587,391.637 614.828,390.809 618.07,389.963 621.311,389.099 624.553,388.217 627.794,387.318 631.035,386.402 634.277,385.468 637.518,384.517 640.76,383.55 644.001,382.567 647.242,381.568 650.484,380.553 653.725,379.523 656.966,378.478 660.208,377.419 663.449,376.347 666.691,375.261 669.932,374.162 673.173,373.052 676.415,371.93 679.656,370.797 682.898,369.654 686.139,368.502 689.38,367.341 692.622,366.172 695.863,364.996 699.104,363.814 702.346,362.627 705.587,361.435 708.829,360.24 712.07,359.042 715.311,357.844 718.553,356.645 721.794,355.447 725.036,354.251 728.277,353.058 731.518,351.87 734.76,350.688 738.001,349.513 741.242,348.346 744.484,347.189 747.725,346.044 750.967,344.912 754.208,343.795 757.449,342.693 760.691,341.61 763.932,340.546 767.174,339.504 770.415,338.485 773.656,337.491 776.898,336.525 780.139,335.587 783.381,334.681 786.622,333.808 789.863,332.971 793.105,332.172 796.346,331.412 799.587,330.696 802.829,330.024 806.07,329.4 809.312,328.827 812.553,328.306 815.794,327.841 819.036,327.434 822.277,327.089 825.519,326.808 828.76,326.594 832.001,326.452 835.243,326.383 838.484,326.391 841.725,326.48 844.967,326.653 848.208,326.914 851.45,327.267 854.691,327.714 857.932,328.261 861.174,328.91 864.415,329.66 867.657,330.507 870.898,331.45 874.139,332.487 877.381,333.614 880.622,334.829 883.863,336.132 887.105,337.519 890.346,338.989 893.588,340.54 896.829,342.17 900.07,343.878 903.312,345.662 906.553,347.521 909.795,349.453 913.036,351.457 916.277,353.533 919.519,355.678 922.76,357.892 926.001,360.174 929.243,362.523 932.484,364.938 935.726,367.42 938.967,369.966 942.208,372.576 945.45,375.251 948.691,377.987 951.933,380.783 955.174,383.636 958.415,386.544 961.657,389.505 964.898,392.517 968.139,395.579 971.381,398.688 974.622,401.842 977.864,405.04 981.105,408.281 984.346,411.562 987.588,414.883 990.829,418.241 994.071,421.637 997.312,425.068 1000.55,428.535 1003.79,432.037 1007.04,435.573 1010.28,439.141 1013.52,442.742 1016.76,446.375 1020,450.039 1023.24,453.734 1026.48,457.459 1029.73,461.215 1032.97,465 1036.21,468.814 1039.45,472.658 1042.69,476.531 1045.93,480.432 1049.17,484.363 1052.42,488.322 1055.66,492.31 1058.9,496.326 1062.14,500.372 1065.38,504.446 1068.62,508.55 1071.86,512.683 1075.11,516.846 1078.35,521.039 1081.59,525.266 1084.83,529.526 1088.07,533.816 1091.31,538.134 1094.55,542.48 1097.79,546.85 1101.04,551.242 1104.28,555.656 1107.52,560.089 1110.76,564.54 1114,569.006 1117.24,573.486 1120.48,577.979 1123.73,582.483 1126.97,586.995 1130.21,591.516 1133.45,596.042 1136.69,600.573 1139.93,605.107 1143.17,609.643 1146.42,614.178 1149.66,618.712 1152.9,623.244 1156.14,627.771 1159.38,632.293 1162.62,636.807 1165.86,641.314 1169.11,645.81 1172.35,650.296 1175.59,654.769 1178.83,659.228 1182.07,663.672 1185.31,668.1 1188.55,672.509 1191.8,676.9 1195.04,681.271 1198.28,685.624 1201.52,689.961 1204.76,694.284 1208,698.596 1211.24,702.899 1214.48,707.195 1217.73,711.487 1220.97,715.777 1224.21,720.066 1227.45,724.358 1230.69,728.654 1233.93,732.958 1237.17,737.271 1240.42,741.596 1243.66,745.935 1246.9,750.29 1250.14,754.664 1253.38,759.06 1256.62,763.479 1259.86,767.924 1263.11,772.398 1266.35,776.903 1269.59,781.441 1272.83,786.016 1276.07,790.63 1279.31,795.285 1282.55,799.983 1285.8,804.729 1289.04,809.523 1292.28,814.369 1295.52,819.264 1298.76,824.207 1302,829.196 1305.24,834.228 1308.48,839.302 1311.73,844.415 1314.97,849.566 1318.21,854.752 1321.45,859.972 1324.69,865.223 1327.93,870.504 1331.17,875.813 1334.42,881.148 1337.66,886.506 1340.9,891.887 1344.14,897.288 1347.38,902.708 1350.62,908.144 1353.86,913.595 1357.11,919.058 1360.35,924.533 1363.59,930.016 1366.83,935.507 1370.07,941 1373.31,946.491 1376.55,951.976 1379.8,957.451 1383.04,962.911 1386.28,968.352 1389.52,973.768 1392.76,979.156 1396,984.511 1399.24,989.829 1402.49,995.104 1405.73,1000.33 1408.97,1005.51 1412.21,1010.63 1415.45,1015.69 1418.69,1020.68 1421.93,1025.61 1425.17,1030.48 1428.42,1035.28 1431.66,1040.02 1434.9,1044.71 1438.14,1049.34 1441.38,1053.91 1444.62,1058.43 1447.86,1062.89 1451.11,1067.3 1454.35,1071.66 1457.59,1075.96 1460.83,1080.22 1464.07,1084.43 1467.31,1088.59 1470.55,1092.7 1473.8,1096.77 1477.04,1100.79 1480.28,1104.76 1483.52,1108.69 1486.76,1112.58 1490,1116.42 1493.24,1120.22 1496.49,1123.97 1499.73,1127.68 1502.97,1131.35 1506.21,1134.98 1509.45,1138.56 1512.69,1142.1 1515.93,1145.6 1519.18,1149.05 1522.42,1152.47 1525.66,1155.84 1528.9,1159.17 1532.14,1162.45 1535.38,1165.69 1538.62,1168.89 1541.86,1172.04 1545.11,1175.15 1548.35,1178.21 1551.59,1181.23 1554.83,1184.2 1558.07,1187.12 1561.31,1189.99 1564.55,1192.82 1567.8,1195.59 1571.04,1198.31 1574.28,1200.98 1577.52,1203.6 1580.76,1206.16 1584,1208.67 1587.24,1211.12 1590.49,1213.51 1593.73,1215.84 1596.97,1218.11 1600.21,1220.31 1603.45,1222.45 1606.69,1224.51 1609.93,1226.51 1613.18,1228.43 1616.42,1230.28 1619.66,1232.04 1622.9,1233.73 1626.14,1235.33 1629.38,1236.85 1632.62,1238.28 1635.86,1239.62 1639.11,1240.87 1642.35,1242.02 1645.59,1243.09 1648.83,1244.07 1652.07,1244.97 1655.31,1245.8 1658.55,1246.55 1661.8,1247.23 1665.04,1247.84 1668.28,1248.38 1671.52,1248.87 1674.76,1249.29 1678,1249.66 1681.24,1249.97 1684.49,1250.23 1687.73,1250.45 1690.97,1250.61 1694.21,1250.73 1697.45,1250.81 1700.69,1250.85 1703.93,1250.85 1707.18,1250.81 1710.42,1250.74 1713.66,1250.64 1716.9,1250.51 1720.14,1250.35 1723.38,1250.16 1726.62,1249.95 1729.87,1249.72 1733.11,1249.46 1736.35,1249.18 1739.59,1248.89 1742.83,1248.58 1746.07,1248.25 1749.31,1247.91 1752.55,1247.56 1755.8,1247.19 1759.04,1246.82 1762.28,1246.44 1765.52,1246.04 1768.76,1245.65 1772,1245.24 1775.24,1244.84 1778.49,1244.43 1781.73,1244.02 1784.97,1243.6 1788.21,1243.19 1791.45,1242.78 1794.69,1242.37 1797.93,1241.97 1801.18,1241.57 1804.42,1241.17 1807.66,1240.78 1810.9,1240.39 1814.14,1240.01 1817.38,1239.64 1820.62,1239.28 1823.87,1238.93 1827.11,1238.58 1830.35,1238.25 1833.59,1237.92 1836.83,1237.61 1840.07,1237.31 1843.31,1237.01 1846.55,1236.74 1849.8,1236.47 1853.04,1236.22 1856.28,1235.97 1859.52,1235.74 1862.76,1235.52 1866,1235.31 1869.24,1235.1 1872.49,1234.89 1875.73,1234.69 1878.97,1234.48 1882.21,1234.27 1885.45,1234.05 1888.69,1233.83 1891.93,1233.59 1895.18,1233.35 1898.42,1233.08 1901.66,1232.8 1904.9,1232.5 1908.14,1232.18 1911.38,1231.83 1914.62,1231.45 1917.87,1231.04 1921.11,1230.6 1924.35,1230.12 1927.59,1229.6 1930.83,1229.04 1934.07,1228.44 1937.31,1227.78 1940.56,1227.08 1943.8,1226.32 1947.04,1225.5 1950.28,1224.62 1953.52,1223.67 1956.76,1222.66 1960,1221.58 1963.24,1220.42 1966.49,1219.18 1969.73,1217.85 1972.97,1216.44 1976.21,1214.94 1979.45,1213.34 1982.69,1211.65 1985.93,1209.85 1989.18,1207.94 1992.42,1205.92 1995.66,1203.78 1998.9,1201.53 2002.14,1199.15 2005.38,1196.66 2008.62,1194.05 2011.87,1191.32 2015.11,1188.47 2018.35,1185.51 2021.59,1182.43 2024.83,1179.24 2028.07,1175.95 2031.31,1172.55 2034.56,1169.05 2037.8,1165.46 2041.04,1161.78 2044.28,1158.02 2047.52,1154.18 2050.76,1150.26 2054,1146.26 2057.24,1142.2 2060.49,1138.08 2063.73,1133.89 2066.97,1129.65 2070.21,1125.36 2073.45,1121.01 2076.69,1116.62 2079.93,1112.19 2083.18,1107.72 2086.42,1103.22 2089.66,1098.69 2092.9,1094.12 2096.14,1089.53 2099.38,1084.93 2102.62,1080.3 2105.87,1075.66 2109.11,1071 2112.35,1066.34 2115.59,1061.67 2118.83,1057 2122.07,1052.34 2125.31,1047.67 2128.56,1043.01 2131.8,1038.37 2135.04,1033.73 2138.28,1029.12 2141.52,1024.52 2144.76,1019.94 2148,1015.39 2151.25,1010.86 2154.49,1006.37 2157.73,1001.91 2160.97,997.492 2164.21,993.11 2167.45,988.772 2170.69,984.479 2173.93,980.235 2177.18,976.044 2180.42,971.907 2183.66,967.829 2186.9,963.812 2190.14,959.859 2193.38,955.973 2196.62,952.159 2199.87,948.418 2203.11,944.753 2206.35,941.17 2209.59,937.669 2212.83,934.249 2216.07,930.91 2219.31,927.649 2222.56,924.464 2225.8,921.354 2229.04,918.318 2232.28,915.353 2235.52,912.458 2238.76,909.632 2242,906.872 2245.25,904.179 2248.49,901.549 2251.73,898.982 2254.97,896.476 2258.21,894.031 2261.45,891.644 2264.69,889.314 2267.94,887.041 2271.18,884.822 2274.42,882.657 2277.66,880.545 2280.9,878.484 2284.14,876.473 2287.38,874.511 2290.62,872.597 "/>
<polyline clip-path="url(#clip772)" style="stroke:#c271d2; stroke-linecap:round; stroke-linejoin:round; stroke-width:12; stroke-opacity:1; fill:none" points="255.035,882.463 362.225,741.169 469.416,593.143 576.607,528.455 683.797,533.734 790.988,496.629 898.179,469.652 1005.37,544.115 1112.56,682.931 1219.75,839.075 1326.94,988.581 1434.13,1173.77 1541.32,1307.83 1648.51,1371.33 1755.7,1378.9 1862.89,1366.29 1970.09,1331.84 2077.28,1249.06 2184.47,1128.85 2291.66,1089.38 "/>
<polyline clip-path="url(#clip772)" style="stroke:#ac8d18; stroke-linecap:round; stroke-linejoin:round; stroke-width:12; stroke-opacity:1; fill:none" points="255.035,319.086 362.225,301.363 469.416,295.306 576.607,271.248 683.797,204.935 790.988,168.75 898.179,216.092 1005.37,323.386 1112.56,451.103 1219.75,589.257 1326.94,749.189 1434.13,913.446 1541.32,1035.2 1648.51,1116.62 1755.7,1115.51 1862.89,1104.74 1970.09,1103.56 2077.28,982.601 2184.47,804.795 2291.66,654.612 "/>
<path clip-path="url(#clip770)" d="M1953.46 406.258 L2280.8 406.258 L2280.8 95.2176 L1953.46 95.2176  Z" fill="#ffffff" fill-rule="evenodd" fill-opacity="1"/>
<polyline clip-path="url(#clip770)" style="stroke:#000000; stroke-linecap:round; stroke-linejoin:round; stroke-width:4; stroke-opacity:1; fill:none" points="1953.46,406.258 2280.8,406.258 2280.8,95.2176 1953.46,95.2176 1953.46,406.258 "/>
<polyline clip-path="url(#clip770)" style="stroke:#009af9; stroke-linecap:round; stroke-linejoin:round; stroke-width:4; stroke-opacity:1; fill:none" points="1977.44,147.058 2121.36,147.058 "/>
<path clip-path="url(#clip770)" d="M2152.76 131.051 L2152.76 138.412 L2161.53 138.412 L2161.53 141.722 L2152.76 141.722 L2152.76 155.796 Q2152.76 158.967 2153.61 159.87 Q2154.49 160.773 2157.16 160.773 L2161.53 160.773 L2161.53 164.338 L2157.16 164.338 Q2152.23 164.338 2150.35 162.509 Q2148.48 160.657 2148.48 155.796 L2148.48 141.722 L2145.35 141.722 L2145.35 138.412 L2148.48 138.412 L2148.48 131.051 L2152.76 131.051 Z" fill="#000000" fill-rule="nonzero" fill-opacity="1" /><path clip-path="url(#clip770)" d="M2182.16 142.393 Q2181.44 141.977 2180.58 141.791 Q2179.75 141.583 2178.73 141.583 Q2175.12 141.583 2173.17 143.944 Q2171.25 146.282 2171.25 150.68 L2171.25 164.338 L2166.97 164.338 L2166.97 138.412 L2171.25 138.412 L2171.25 142.44 Q2172.6 140.078 2174.75 138.944 Q2176.9 137.787 2179.98 137.787 Q2180.42 137.787 2180.95 137.856 Q2181.48 137.903 2182.13 138.018 L2182.16 142.393 Z" fill="#000000" fill-rule="nonzero" fill-opacity="1" /><path clip-path="url(#clip770)" d="M2186.18 154.106 L2186.18 138.412 L2190.44 138.412 L2190.44 153.944 Q2190.44 157.625 2191.88 159.476 Q2193.31 161.305 2196.18 161.305 Q2199.63 161.305 2201.62 159.106 Q2203.64 156.907 2203.64 153.111 L2203.64 138.412 L2207.9 138.412 L2207.9 164.338 L2203.64 164.338 L2203.64 160.356 Q2202.09 162.717 2200.03 163.875 Q2197.99 165.009 2195.28 165.009 Q2190.81 165.009 2188.5 162.231 Q2186.18 159.453 2186.18 154.106 M2196.9 137.787 L2196.9 137.787 Z" fill="#000000" fill-rule="nonzero" fill-opacity="1" /><path clip-path="url(#clip770)" d="M2220.88 131.051 L2220.88 138.412 L2229.66 138.412 L2229.66 141.722 L2220.88 141.722 L2220.88 155.796 Q2220.88 158.967 2221.74 159.87 Q2222.62 160.773 2225.28 160.773 L2229.66 160.773 L2229.66 164.338 L2225.28 164.338 Q2220.35 164.338 2218.48 162.509 Q2216.6 160.657 2216.6 155.796 L2216.6 141.722 L2213.48 141.722 L2213.48 138.412 L2216.6 138.412 L2216.6 131.051 L2220.88 131.051 Z" fill="#000000" fill-rule="nonzero" fill-opacity="1" /><path clip-path="url(#clip770)" d="M2256.81 148.689 L2256.81 164.338 L2252.55 164.338 L2252.55 148.828 Q2252.55 145.148 2251.11 143.319 Q2249.68 141.49 2246.81 141.49 Q2243.36 141.49 2241.37 143.69 Q2239.38 145.889 2239.38 149.685 L2239.38 164.338 L2235.1 164.338 L2235.1 128.319 L2239.38 128.319 L2239.38 142.44 Q2240.91 140.102 2242.97 138.944 Q2245.05 137.787 2247.76 137.787 Q2252.23 137.787 2254.52 140.565 Q2256.81 143.319 2256.81 148.689 Z" fill="#000000" fill-rule="nonzero" fill-opacity="1" /><circle clip-path="url(#clip770)" cx="2049.4" cy="198.898" r="20.48" fill="#e26f46" fill-rule="evenodd" fill-opacity="1" stroke="#000000" stroke-opacity="1" stroke-width="4.55111"/>
<path clip-path="url(#clip770)" d="M2164.26 194.187 L2164.26 180.159 L2168.52 180.159 L2168.52 216.178 L2164.26 216.178 L2164.26 212.289 Q2162.92 214.603 2160.86 215.738 Q2158.82 216.849 2155.95 216.849 Q2151.25 216.849 2148.29 213.099 Q2145.35 209.349 2145.35 203.238 Q2145.35 197.127 2148.29 193.377 Q2151.25 189.627 2155.95 189.627 Q2158.82 189.627 2160.86 190.761 Q2162.92 191.872 2164.26 194.187 M2149.75 203.238 Q2149.75 207.937 2151.67 210.622 Q2153.61 213.284 2156.99 213.284 Q2160.37 213.284 2162.32 210.622 Q2164.26 207.937 2164.26 203.238 Q2164.26 198.539 2162.32 195.877 Q2160.37 193.192 2156.99 193.192 Q2153.61 193.192 2151.67 195.877 Q2149.75 198.539 2149.75 203.238 Z" fill="#000000" fill-rule="nonzero" fill-opacity="1" /><path clip-path="url(#clip770)" d="M2189.08 203.145 Q2183.92 203.145 2181.92 204.326 Q2179.93 205.506 2179.93 208.354 Q2179.93 210.622 2181.42 211.965 Q2182.92 213.284 2185.49 213.284 Q2189.03 213.284 2191.16 210.784 Q2193.31 208.261 2193.31 204.094 L2193.31 203.145 L2189.08 203.145 M2197.57 201.386 L2197.57 216.178 L2193.31 216.178 L2193.31 212.242 Q2191.85 214.603 2189.68 215.738 Q2187.5 216.849 2184.36 216.849 Q2180.37 216.849 2178.01 214.627 Q2175.67 212.381 2175.67 208.631 Q2175.67 204.256 2178.59 202.034 Q2181.53 199.812 2187.34 199.812 L2193.31 199.812 L2193.31 199.395 Q2193.31 196.455 2191.37 194.858 Q2189.45 193.238 2185.95 193.238 Q2183.73 193.238 2181.62 193.77 Q2179.52 194.303 2177.57 195.367 L2177.57 191.432 Q2179.91 190.53 2182.11 190.09 Q2184.31 189.627 2186.39 189.627 Q2192.02 189.627 2194.79 192.543 Q2197.57 195.46 2197.57 201.386 Z" fill="#000000" fill-rule="nonzero" fill-opacity="1" /><path clip-path="url(#clip770)" d="M2210.56 182.891 L2210.56 190.252 L2219.33 190.252 L2219.33 193.562 L2210.56 193.562 L2210.56 207.636 Q2210.56 210.807 2211.42 211.71 Q2212.29 212.613 2214.96 212.613 L2219.33 212.613 L2219.33 216.178 L2214.96 216.178 Q2210.03 216.178 2208.15 214.349 Q2206.28 212.497 2206.28 207.636 L2206.28 193.562 L2203.15 193.562 L2203.15 190.252 L2206.28 190.252 L2206.28 182.891 L2210.56 182.891 Z" fill="#000000" fill-rule="nonzero" fill-opacity="1" /><path clip-path="url(#clip770)" d="M2236.72 203.145 Q2231.55 203.145 2229.56 204.326 Q2227.57 205.506 2227.57 208.354 Q2227.57 210.622 2229.05 211.965 Q2230.56 213.284 2233.13 213.284 Q2236.67 213.284 2238.8 210.784 Q2240.95 208.261 2240.95 204.094 L2240.95 203.145 L2236.72 203.145 M2245.21 201.386 L2245.21 216.178 L2240.95 216.178 L2240.95 212.242 Q2239.49 214.603 2237.32 215.738 Q2235.14 216.849 2231.99 216.849 Q2228.01 216.849 2225.65 214.627 Q2223.31 212.381 2223.31 208.631 Q2223.31 204.256 2226.23 202.034 Q2229.17 199.812 2234.98 199.812 L2240.95 199.812 L2240.95 199.395 Q2240.95 196.455 2239.01 194.858 Q2237.09 193.238 2233.59 193.238 Q2231.37 193.238 2229.26 193.77 Q2227.16 194.303 2225.21 195.367 L2225.21 191.432 Q2227.55 190.53 2229.75 190.09 Q2231.95 189.627 2234.03 189.627 Q2239.66 189.627 2242.43 192.543 Q2245.21 195.46 2245.21 201.386 Z" fill="#000000" fill-rule="nonzero" fill-opacity="1" /><polyline clip-path="url(#clip770)" style="stroke:#3da44d; stroke-linecap:round; stroke-linejoin:round; stroke-width:8; stroke-opacity:1; fill:none" points="1977.44,250.738 2121.36,250.738 "/>
<path clip-path="url(#clip770)" d="M2170.91 263.087 L2170.91 253.805 L2163.27 253.805 L2163.27 249.962 L2175.54 249.962 L2175.54 264.8 Q2172.83 266.721 2169.56 267.717 Q2166.3 268.689 2162.6 268.689 Q2154.49 268.689 2149.91 263.967 Q2145.35 259.221 2145.35 250.772 Q2145.35 242.3 2149.91 237.578 Q2154.49 232.833 2162.6 232.833 Q2165.98 232.833 2169.01 233.666 Q2172.06 234.499 2174.63 236.12 L2174.63 241.096 Q2172.04 238.897 2169.12 237.786 Q2166.21 236.675 2162.99 236.675 Q2156.65 236.675 2153.45 240.217 Q2150.28 243.758 2150.28 250.772 Q2150.28 257.763 2153.45 261.305 Q2156.65 264.846 2162.99 264.846 Q2165.47 264.846 2167.41 264.43 Q2169.36 263.99 2170.91 263.087 Z" fill="#000000" fill-rule="nonzero" fill-opacity="1" /><path clip-path="url(#clip770)" d="M2188.75 237.3 L2188.75 250.286 L2194.63 250.286 Q2197.9 250.286 2199.68 248.596 Q2201.46 246.907 2201.46 243.782 Q2201.46 240.68 2199.68 238.99 Q2197.9 237.3 2194.63 237.3 L2188.75 237.3 M2184.08 233.458 L2194.63 233.458 Q2200.44 233.458 2203.41 236.096 Q2206.39 238.712 2206.39 243.782 Q2206.39 248.897 2203.41 251.513 Q2200.44 254.129 2194.63 254.129 L2188.75 254.129 L2188.75 268.018 L2184.08 268.018 L2184.08 233.458 Z" fill="#000000" fill-rule="nonzero" fill-opacity="1" /><polyline clip-path="url(#clip770)" style="stroke:#c271d2; stroke-linecap:round; stroke-linejoin:round; stroke-width:12; stroke-opacity:1; fill:none" points="1977.44,302.578 2121.36,302.578 "/>
<path clip-path="url(#clip770)" d="M2150.03 289.14 L2150.03 302.126 L2155.91 302.126 Q2159.17 302.126 2160.95 300.436 Q2162.73 298.747 2162.73 295.622 Q2162.73 292.52 2160.95 290.83 Q2159.17 289.14 2155.91 289.14 L2150.03 289.14 M2145.35 285.298 L2155.91 285.298 Q2161.72 285.298 2164.68 287.936 Q2167.67 290.552 2167.67 295.622 Q2167.67 300.737 2164.68 303.353 Q2161.72 305.969 2155.91 305.969 L2150.03 305.969 L2150.03 319.858 L2145.35 319.858 L2145.35 285.298 Z" fill="#000000" fill-rule="nonzero" fill-opacity="1" /><path clip-path="url(#clip770)" d="M2178.38 315.922 L2194.7 315.922 L2194.7 319.858 L2172.76 319.858 L2172.76 315.922 Q2175.42 313.168 2180 308.538 Q2184.61 303.885 2185.79 302.543 Q2188.04 300.02 2188.92 298.284 Q2189.82 296.524 2189.82 294.835 Q2189.82 292.08 2187.87 290.344 Q2185.95 288.608 2182.85 288.608 Q2180.65 288.608 2178.2 289.372 Q2175.77 290.135 2172.99 291.686 L2172.99 286.964 Q2175.81 285.83 2178.27 285.251 Q2180.72 284.673 2182.76 284.673 Q2188.13 284.673 2191.32 287.358 Q2194.52 290.043 2194.52 294.534 Q2194.52 296.663 2193.71 298.585 Q2192.92 300.483 2190.81 303.075 Q2190.23 303.747 2187.13 306.964 Q2184.03 310.159 2178.38 315.922 Z" fill="#000000" fill-rule="nonzero" fill-opacity="1" /><path clip-path="url(#clip770)" d="M2204.56 285.298 L2222.92 285.298 L2222.92 289.233 L2208.85 289.233 L2208.85 297.705 Q2209.86 297.358 2210.88 297.196 Q2211.9 297.01 2212.92 297.01 Q2218.71 297.01 2222.09 300.182 Q2225.47 303.353 2225.47 308.77 Q2225.47 314.348 2221.99 317.45 Q2218.52 320.529 2212.2 320.529 Q2210.03 320.529 2207.76 320.158 Q2205.51 319.788 2203.1 319.047 L2203.1 314.348 Q2205.19 315.483 2207.41 316.038 Q2209.63 316.594 2212.11 316.594 Q2216.11 316.594 2218.45 314.487 Q2220.79 312.381 2220.79 308.77 Q2220.79 305.159 2218.45 303.052 Q2216.11 300.946 2212.11 300.946 Q2210.23 300.946 2208.36 301.362 Q2206.51 301.779 2204.56 302.659 L2204.56 285.298 Z" fill="#000000" fill-rule="nonzero" fill-opacity="1" /><polyline clip-path="url(#clip770)" style="stroke:#ac8d18; stroke-linecap:round; stroke-linejoin:round; stroke-width:12; stroke-opacity:1; fill:none" points="1977.44,354.418 2121.36,354.418 "/>
<path clip-path="url(#clip770)" d="M2150.03 340.98 L2150.03 353.966 L2155.91 353.966 Q2159.17 353.966 2160.95 352.276 Q2162.73 350.587 2162.73 347.462 Q2162.73 344.36 2160.95 342.67 Q2159.17 340.98 2155.91 340.98 L2150.03 340.98 M2145.35 337.138 L2155.91 337.138 Q2161.72 337.138 2164.68 339.776 Q2167.67 342.392 2167.67 347.462 Q2167.67 352.577 2164.68 355.193 Q2161.72 357.809 2155.91 357.809 L2150.03 357.809 L2150.03 371.698 L2145.35 371.698 L2145.35 337.138 Z" fill="#000000" fill-rule="nonzero" fill-opacity="1" /><path clip-path="url(#clip770)" d="M2173.17 337.138 L2195.4 337.138 L2195.4 339.128 L2182.85 371.698 L2177.97 371.698 L2189.77 341.073 L2173.17 341.073 L2173.17 337.138 Z" fill="#000000" fill-rule="nonzero" fill-opacity="1" /><path clip-path="url(#clip770)" d="M2204.56 337.138 L2222.92 337.138 L2222.92 341.073 L2208.85 341.073 L2208.85 349.545 Q2209.86 349.198 2210.88 349.036 Q2211.9 348.85 2212.92 348.85 Q2218.71 348.85 2222.09 352.022 Q2225.47 355.193 2225.47 360.61 Q2225.47 366.188 2221.99 369.29 Q2218.52 372.369 2212.2 372.369 Q2210.03 372.369 2207.76 371.998 Q2205.51 371.628 2203.1 370.887 L2203.1 366.188 Q2205.19 367.323 2207.41 367.878 Q2209.63 368.434 2212.11 368.434 Q2216.11 368.434 2218.45 366.327 Q2220.79 364.221 2220.79 360.61 Q2220.79 356.999 2218.45 354.892 Q2216.11 352.786 2212.11 352.786 Q2210.23 352.786 2208.36 353.202 Q2206.51 353.619 2204.56 354.499 L2204.56 337.138 Z" fill="#000000" fill-rule="nonzero" fill-opacity="1" /></svg>
