<?xml version="1.0" encoding="utf-8"?>
<svg xmlns="http://www.w3.org/2000/svg" xmlns:xlink="http://www.w3.org/1999/xlink" width="600" height="400" viewBox="0 0 2400 1600">
<defs>
  <clipPath id="clip140">
    <rect x="0" y="0" width="2400" height="1600"/>
  </clipPath>
</defs>
<path clip-path="url(#clip140)" d="M0 1600 L2400 1600 L2400 0 L0 0  Z" fill="#ffffff" fill-rule="evenodd" fill-opacity="1"/>
<defs>
  <clipPath id="clip141">
    <rect x="480" y="0" width="1681" height="1600"/>
  </clipPath>
</defs>
<path clip-path="url(#clip140)" d="M193.936 1486.45 L2352.76 1486.45 L2352.76 47.2441 L193.936 47.2441  Z" fill="#ffffff" fill-rule="evenodd" fill-opacity="1"/>
<defs>
  <clipPath id="clip142">
    <rect x="193" y="47" width="2160" height="1440"/>
  </clipPath>
</defs>
<polyline clip-path="url(#clip142)" style="stroke:#000000; stroke-linecap:round; stroke-linejoin:round; stroke-width:2; stroke-opacity:0.1; fill:none" points="255.035,1486.45 255.035,47.2441 "/>
<polyline clip-path="url(#clip142)" style="stroke:#000000; stroke-linecap:round; stroke-linejoin:round; stroke-width:2; stroke-opacity:0.1; fill:none" points="579.338,1486.45 579.338,47.2441 "/>
<polyline clip-path="url(#clip142)" style="stroke:#000000; stroke-linecap:round; stroke-linejoin:round; stroke-width:2; stroke-opacity:0.1; fill:none" points="903.641,1486.45 903.641,47.2441 "/>
<polyline clip-path="url(#clip142)" style="stroke:#000000; stroke-linecap:round; stroke-linejoin:round; stroke-width:2; stroke-opacity:0.1; fill:none" points="1227.94,1486.45 1227.94,47.2441 "/>
<polyline clip-path="url(#clip142)" style="stroke:#000000; stroke-linecap:round; stroke-linejoin:round; stroke-width:2; stroke-opacity:0.1; fill:none" points="1552.25,1486.45 1552.25,47.2441 "/>
<polyline clip-path="url(#clip142)" style="stroke:#000000; stroke-linecap:round; stroke-linejoin:round; stroke-width:2; stroke-opacity:0.1; fill:none" points="1876.55,1486.45 1876.55,47.2441 "/>
<polyline clip-path="url(#clip142)" style="stroke:#000000; stroke-linecap:round; stroke-linejoin:round; stroke-width:2; stroke-opacity:0.1; fill:none" points="2200.85,1486.45 2200.85,47.2441 "/>
<polyline clip-path="url(#clip142)" style="stroke:#000000; stroke-linecap:round; stroke-linejoin:round; stroke-width:2; stroke-opacity:0.1; fill:none" points="193.936,1264.5 2352.76,1264.5 "/>
<polyline clip-path="url(#clip142)" style="stroke:#000000; stroke-linecap:round; stroke-linejoin:round; stroke-width:2; stroke-opacity:0.1; fill:none" points="193.936,1003.26 2352.76,1003.26 "/>
<polyline clip-path="url(#clip142)" style="stroke:#000000; stroke-linecap:round; stroke-linejoin:round; stroke-width:2; stroke-opacity:0.1; fill:none" points="193.936,742.018 2352.76,742.018 "/>
<polyline clip-path="url(#clip142)" style="stroke:#000000; stroke-linecap:round; stroke-linejoin:round; stroke-width:2; stroke-opacity:0.1; fill:none" points="193.936,480.776 2352.76,480.776 "/>
<polyline clip-path="url(#clip142)" style="stroke:#000000; stroke-linecap:round; stroke-linejoin:round; stroke-width:2; stroke-opacity:0.1; fill:none" points="193.936,219.534 2352.76,219.534 "/>
<polyline clip-path="url(#clip140)" style="stroke:#000000; stroke-linecap:round; stroke-linejoin:round; stroke-width:4; stroke-opacity:1; fill:none" points="193.936,1486.45 2352.76,1486.45 "/>
<polyline clip-path="url(#clip140)" style="stroke:#000000; stroke-linecap:round; stroke-linejoin:round; stroke-width:4; stroke-opacity:1; fill:none" points="255.035,1486.45 255.035,1467.55 "/>
<polyline clip-path="url(#clip140)" style="stroke:#000000; stroke-linecap:round; stroke-linejoin:round; stroke-width:4; stroke-opacity:1; fill:none" points="579.338,1486.45 579.338,1467.55 "/>
<polyline clip-path="url(#clip140)" style="stroke:#000000; stroke-linecap:round; stroke-linejoin:round; stroke-width:4; stroke-opacity:1; fill:none" points="903.641,1486.45 903.641,1467.55 "/>
<polyline clip-path="url(#clip140)" style="stroke:#000000; stroke-linecap:round; stroke-linejoin:round; stroke-width:4; stroke-opacity:1; fill:none" points="1227.94,1486.45 1227.94,1467.55 "/>
<polyline clip-path="url(#clip140)" style="stroke:#000000; stroke-linecap:round; stroke-linejoin:round; stroke-width:4; stroke-opacity:1; fill:none" points="1552.25,1486.45 1552.25,1467.55 "/>
<polyline clip-path="url(#clip140)" style="stroke:#000000; stroke-linecap:round; stroke-linejoin:round; stroke-width:4; stroke-opacity:1; fill:none" points="1876.55,1486.45 1876.55,1467.55 "/>
<polyline clip-path="url(#clip140)" style="stroke:#000000; stroke-linecap:round; stroke-linejoin:round; stroke-width:4; stroke-opacity:1; fill:none" points="2200.85,1486.45 2200.85,1467.55 "/>
<path clip-path="url(#clip140)" d="M255.035 1517.37 Q251.424 1517.37 249.595 1520.93 Q247.789 1524.47 247.789 1531.6 Q247.789 1538.71 249.595 1542.27 Q251.424 1545.82 255.035 1545.82 Q258.669 1545.82 260.474 1542.27 Q262.303 1538.71 262.303 1531.6 Q262.303 1524.47 260.474 1520.93 Q258.669 1517.37 255.035 1517.37 M255.035 1513.66 Q260.845 1513.66 263.9 1518.27 Q266.979 1522.85 266.979 1531.6 Q266.979 1540.33 263.9 1544.94 Q260.845 1549.52 255.035 1549.52 Q249.225 1549.52 246.146 1544.94 Q243.09 1540.33 243.09 1531.6 Q243.09 1522.85 246.146 1518.27 Q249.225 1513.66 255.035 1513.66 Z" fill="#000000" fill-rule="nonzero" fill-opacity="1" /><path clip-path="url(#clip140)" d="M569.72 1544.91 L577.358 1544.91 L577.358 1518.55 L569.048 1520.21 L569.048 1515.95 L577.312 1514.29 L581.988 1514.29 L581.988 1544.91 L589.627 1544.91 L589.627 1548.85 L569.72 1548.85 L569.72 1544.91 Z" fill="#000000" fill-rule="nonzero" fill-opacity="1" /><path clip-path="url(#clip140)" d="M898.293 1544.91 L914.613 1544.91 L914.613 1548.85 L892.668 1548.85 L892.668 1544.91 Q895.33 1542.16 899.914 1537.53 Q904.52 1532.88 905.701 1531.53 Q907.946 1529.01 908.826 1527.27 Q909.729 1525.51 909.729 1523.82 Q909.729 1521.07 907.784 1519.33 Q905.863 1517.6 902.761 1517.6 Q900.562 1517.6 898.108 1518.36 Q895.678 1519.13 892.9 1520.68 L892.9 1515.95 Q895.724 1514.82 898.178 1514.24 Q900.631 1513.66 902.668 1513.66 Q908.039 1513.66 911.233 1516.35 Q914.428 1519.03 914.428 1523.52 Q914.428 1525.65 913.617 1527.57 Q912.83 1529.47 910.724 1532.07 Q910.145 1532.74 907.043 1535.95 Q903.942 1539.15 898.293 1544.91 Z" fill="#000000" fill-rule="nonzero" fill-opacity="1" /><path clip-path="url(#clip140)" d="M1232.19 1530.21 Q1235.55 1530.93 1237.42 1533.2 Q1239.32 1535.47 1239.32 1538.8 Q1239.32 1543.92 1235.8 1546.72 Q1232.28 1549.52 1225.8 1549.52 Q1223.63 1549.52 1221.31 1549.08 Q1219.02 1548.66 1216.57 1547.81 L1216.57 1543.29 Q1218.51 1544.43 1220.83 1545.01 Q1223.14 1545.58 1225.66 1545.58 Q1230.06 1545.58 1232.35 1543.85 Q1234.67 1542.11 1234.67 1538.8 Q1234.67 1535.75 1232.52 1534.03 Q1230.39 1532.3 1226.57 1532.3 L1222.54 1532.3 L1222.54 1528.45 L1226.75 1528.45 Q1230.2 1528.45 1232.03 1527.09 Q1233.86 1525.7 1233.86 1523.11 Q1233.86 1520.45 1231.96 1519.03 Q1230.08 1517.6 1226.57 1517.6 Q1224.64 1517.6 1222.45 1518.01 Q1220.25 1518.43 1217.61 1519.31 L1217.61 1515.14 Q1220.27 1514.4 1222.58 1514.03 Q1224.92 1513.66 1226.98 1513.66 Q1232.31 1513.66 1235.41 1516.09 Q1238.51 1518.5 1238.51 1522.62 Q1238.51 1525.49 1236.87 1527.48 Q1235.22 1529.45 1232.19 1530.21 Z" fill="#000000" fill-rule="nonzero" fill-opacity="1" /><path clip-path="url(#clip140)" d="M1555.26 1518.36 L1543.45 1536.81 L1555.26 1536.81 L1555.26 1518.36 M1554.03 1514.29 L1559.91 1514.29 L1559.91 1536.81 L1564.84 1536.81 L1564.84 1540.7 L1559.91 1540.7 L1559.91 1548.85 L1555.26 1548.85 L1555.26 1540.7 L1539.65 1540.7 L1539.65 1536.19 L1554.03 1514.29 Z" fill="#000000" fill-rule="nonzero" fill-opacity="1" /><path clip-path="url(#clip140)" d="M1866.83 1514.29 L1885.18 1514.29 L1885.18 1518.22 L1871.11 1518.22 L1871.11 1526.7 Q1872.13 1526.35 1873.15 1526.19 Q1874.17 1526 1875.18 1526 Q1880.97 1526 1884.35 1529.17 Q1887.73 1532.34 1887.73 1537.76 Q1887.73 1543.34 1884.26 1546.44 Q1880.79 1549.52 1874.47 1549.52 Q1872.29 1549.52 1870.02 1549.15 Q1867.78 1548.78 1865.37 1548.04 L1865.37 1543.34 Q1867.45 1544.47 1869.67 1545.03 Q1871.9 1545.58 1874.37 1545.58 Q1878.38 1545.58 1880.72 1543.48 Q1883.05 1541.37 1883.05 1537.76 Q1883.05 1534.15 1880.72 1532.04 Q1878.38 1529.94 1874.37 1529.94 Q1872.5 1529.94 1870.62 1530.35 Q1868.77 1530.77 1866.83 1531.65 L1866.83 1514.29 Z" fill="#000000" fill-rule="nonzero" fill-opacity="1" /><path clip-path="url(#clip140)" d="M2201.26 1529.7 Q2198.11 1529.7 2196.26 1531.86 Q2194.43 1534.01 2194.43 1537.76 Q2194.43 1541.49 2196.26 1543.66 Q2198.11 1545.82 2201.26 1545.82 Q2204.41 1545.82 2206.23 1543.66 Q2208.09 1541.49 2208.09 1537.76 Q2208.09 1534.01 2206.23 1531.86 Q2204.41 1529.7 2201.26 1529.7 M2210.54 1515.05 L2210.54 1519.31 Q2208.78 1518.48 2206.98 1518.04 Q2205.19 1517.6 2203.43 1517.6 Q2198.8 1517.6 2196.35 1520.72 Q2193.92 1523.85 2193.57 1530.17 Q2194.94 1528.15 2197 1527.09 Q2199.06 1526 2201.54 1526 Q2206.74 1526 2209.75 1529.17 Q2212.79 1532.32 2212.79 1537.76 Q2212.79 1543.08 2209.64 1546.3 Q2206.49 1549.52 2201.26 1549.52 Q2195.26 1549.52 2192.09 1544.94 Q2188.92 1540.33 2188.92 1531.6 Q2188.92 1523.41 2192.81 1518.55 Q2196.7 1513.66 2203.25 1513.66 Q2205.01 1513.66 2206.79 1514.01 Q2208.6 1514.36 2210.54 1515.05 Z" fill="#000000" fill-rule="nonzero" fill-opacity="1" /><polyline clip-path="url(#clip140)" style="stroke:#000000; stroke-linecap:round; stroke-linejoin:round; stroke-width:4; stroke-opacity:1; fill:none" points="193.936,1486.45 193.936,47.2441 "/>
<polyline clip-path="url(#clip140)" style="stroke:#000000; stroke-linecap:round; stroke-linejoin:round; stroke-width:4; stroke-opacity:1; fill:none" points="193.936,1264.5 212.834,1264.5 "/>
<polyline clip-path="url(#clip140)" style="stroke:#000000; stroke-linecap:round; stroke-linejoin:round; stroke-width:4; stroke-opacity:1; fill:none" points="193.936,1003.26 212.834,1003.26 "/>
<polyline clip-path="url(#clip140)" style="stroke:#000000; stroke-linecap:round; stroke-linejoin:round; stroke-width:4; stroke-opacity:1; fill:none" points="193.936,742.018 212.834,742.018 "/>
<polyline clip-path="url(#clip140)" style="stroke:#000000; stroke-linecap:round; stroke-linejoin:round; stroke-width:4; stroke-opacity:1; fill:none" points="193.936,480.776 212.834,480.776 "/>
<polyline clip-path="url(#clip140)" style="stroke:#000000; stroke-linecap:round; stroke-linejoin:round; stroke-width:4; stroke-opacity:1; fill:none" points="193.936,219.534 212.834,219.534 "/>
<path clip-path="url(#clip140)" d="M50.9921 1264.95 L80.6679 1264.95 L80.6679 1268.89 L50.9921 1268.89 L50.9921 1264.95 Z" fill="#000000" fill-rule="nonzero" fill-opacity="1" /><path clip-path="url(#clip140)" d="M91.5706 1277.85 L99.2095 1277.85 L99.2095 1251.48 L90.8993 1253.15 L90.8993 1248.89 L99.1632 1247.22 L103.839 1247.22 L103.839 1277.85 L111.478 1277.85 L111.478 1281.78 L91.5706 1281.78 L91.5706 1277.85 Z" fill="#000000" fill-rule="nonzero" fill-opacity="1" /><path clip-path="url(#clip140)" d="M120.922 1275.9 L125.807 1275.9 L125.807 1281.78 L120.922 1281.78 L120.922 1275.9 Z" fill="#000000" fill-rule="nonzero" fill-opacity="1" /><path clip-path="url(#clip140)" d="M145.992 1250.3 Q142.381 1250.3 140.552 1253.87 Q138.746 1257.41 138.746 1264.54 Q138.746 1271.64 140.552 1275.21 Q142.381 1278.75 145.992 1278.75 Q149.626 1278.75 151.431 1275.21 Q153.26 1271.64 153.26 1264.54 Q153.26 1257.41 151.431 1253.87 Q149.626 1250.3 145.992 1250.3 M145.992 1246.6 Q151.802 1246.6 154.857 1251.2 Q157.936 1255.79 157.936 1264.54 Q157.936 1273.26 154.857 1277.87 Q151.802 1282.45 145.992 1282.45 Q140.181 1282.45 137.103 1277.87 Q134.047 1273.26 134.047 1264.54 Q134.047 1255.79 137.103 1251.2 Q140.181 1246.6 145.992 1246.6 Z" fill="#000000" fill-rule="nonzero" fill-opacity="1" /><path clip-path="url(#clip140)" d="M51.9875 1003.71 L81.6633 1003.71 L81.6633 1007.65 L51.9875 1007.65 L51.9875 1003.71 Z" fill="#000000" fill-rule="nonzero" fill-opacity="1" /><path clip-path="url(#clip140)" d="M101.756 989.059 Q98.1447 989.059 96.316 992.624 Q94.5104 996.165 94.5104 1003.29 Q94.5104 1010.4 96.316 1013.97 Q98.1447 1017.51 101.756 1017.51 Q105.39 1017.51 107.196 1013.97 Q109.024 1010.4 109.024 1003.29 Q109.024 996.165 107.196 992.624 Q105.39 989.059 101.756 989.059 M101.756 985.355 Q107.566 985.355 110.621 989.962 Q113.7 994.545 113.7 1003.29 Q113.7 1012.02 110.621 1016.63 Q107.566 1021.21 101.756 1021.21 Q95.9456 1021.21 92.8669 1016.63 Q89.8114 1012.02 89.8114 1003.29 Q89.8114 994.545 92.8669 989.962 Q95.9456 985.355 101.756 985.355 Z" fill="#000000" fill-rule="nonzero" fill-opacity="1" /><path clip-path="url(#clip140)" d="M121.918 1014.66 L126.802 1014.66 L126.802 1020.54 L121.918 1020.54 L121.918 1014.66 Z" fill="#000000" fill-rule="nonzero" fill-opacity="1" /><path clip-path="url(#clip140)" d="M137.033 985.98 L155.39 985.98 L155.39 989.915 L141.316 989.915 L141.316 998.387 Q142.334 998.04 143.353 997.878 Q144.371 997.693 145.39 997.693 Q151.177 997.693 154.556 1000.86 Q157.936 1004.04 157.936 1009.45 Q157.936 1015.03 154.464 1018.13 Q150.992 1021.21 144.672 1021.21 Q142.496 1021.21 140.228 1020.84 Q137.982 1020.47 135.575 1019.73 L135.575 1015.03 Q137.658 1016.17 139.881 1016.72 Q142.103 1017.28 144.58 1017.28 Q148.584 1017.28 150.922 1015.17 Q153.26 1013.06 153.26 1009.45 Q153.26 1005.84 150.922 1003.73 Q148.584 1001.63 144.58 1001.63 Q142.705 1001.63 140.83 1002.04 Q138.978 1002.46 137.033 1003.34 L137.033 985.98 Z" fill="#000000" fill-rule="nonzero" fill-opacity="1" /><path clip-path="url(#clip140)" d="M100.76 727.817 Q97.1493 727.817 95.3206 731.382 Q93.515 734.923 93.515 742.053 Q93.515 749.159 95.3206 752.724 Q97.1493 756.266 100.76 756.266 Q104.395 756.266 106.2 752.724 Q108.029 749.159 108.029 742.053 Q108.029 734.923 106.2 731.382 Q104.395 727.817 100.76 727.817 M100.76 724.113 Q106.571 724.113 109.626 728.72 Q112.705 733.303 112.705 742.053 Q112.705 750.78 109.626 755.386 Q106.571 759.97 100.76 759.97 Q94.9502 759.97 91.8715 755.386 Q88.816 750.78 88.816 742.053 Q88.816 733.303 91.8715 728.72 Q94.9502 724.113 100.76 724.113 Z" fill="#000000" fill-rule="nonzero" fill-opacity="1" /><path clip-path="url(#clip140)" d="M120.922 753.419 L125.807 753.419 L125.807 759.298 L120.922 759.298 L120.922 753.419 Z" fill="#000000" fill-rule="nonzero" fill-opacity="1" /><path clip-path="url(#clip140)" d="M145.992 727.817 Q142.381 727.817 140.552 731.382 Q138.746 734.923 138.746 742.053 Q138.746 749.159 140.552 752.724 Q142.381 756.266 145.992 756.266 Q149.626 756.266 151.431 752.724 Q153.26 749.159 153.26 742.053 Q153.26 734.923 151.431 731.382 Q149.626 727.817 145.992 727.817 M145.992 724.113 Q151.802 724.113 154.857 728.72 Q157.936 733.303 157.936 742.053 Q157.936 750.78 154.857 755.386 Q151.802 759.97 145.992 759.97 Q140.181 759.97 137.103 755.386 Q134.047 750.78 134.047 742.053 Q134.047 733.303 137.103 728.72 Q140.181 724.113 145.992 724.113 Z" fill="#000000" fill-rule="nonzero" fill-opacity="1" /><path clip-path="url(#clip140)" d="M101.756 466.575 Q98.1447 466.575 96.316 470.14 Q94.5104 473.681 94.5104 480.811 Q94.5104 487.918 96.316 491.482 Q98.1447 495.024 101.756 495.024 Q105.39 495.024 107.196 491.482 Q109.024 487.918 109.024 480.811 Q109.024 473.681 107.196 470.14 Q105.39 466.575 101.756 466.575 M101.756 462.871 Q107.566 462.871 110.621 467.478 Q113.7 472.061 113.7 480.811 Q113.7 489.538 110.621 494.144 Q107.566 498.728 101.756 498.728 Q95.9456 498.728 92.8669 494.144 Q89.8114 489.538 89.8114 480.811 Q89.8114 472.061 92.8669 467.478 Q95.9456 462.871 101.756 462.871 Z" fill="#000000" fill-rule="nonzero" fill-opacity="1" /><path clip-path="url(#clip140)" d="M121.918 492.177 L126.802 492.177 L126.802 498.056 L121.918 498.056 L121.918 492.177 Z" fill="#000000" fill-rule="nonzero" fill-opacity="1" /><path clip-path="url(#clip140)" d="M137.033 463.496 L155.39 463.496 L155.39 467.432 L141.316 467.432 L141.316 475.904 Q142.334 475.556 143.353 475.394 Q144.371 475.209 145.39 475.209 Q151.177 475.209 154.556 478.381 Q157.936 481.552 157.936 486.968 Q157.936 492.547 154.464 495.649 Q150.992 498.728 144.672 498.728 Q142.496 498.728 140.228 498.357 Q137.982 497.987 135.575 497.246 L135.575 492.547 Q137.658 493.681 139.881 494.237 Q142.103 494.792 144.58 494.792 Q148.584 494.792 150.922 492.686 Q153.26 490.58 153.26 486.968 Q153.26 483.357 150.922 481.251 Q148.584 479.144 144.58 479.144 Q142.705 479.144 140.83 479.561 Q138.978 479.978 137.033 480.857 L137.033 463.496 Z" fill="#000000" fill-rule="nonzero" fill-opacity="1" /><path clip-path="url(#clip140)" d="M91.5706 232.879 L99.2095 232.879 L99.2095 206.514 L90.8993 208.18 L90.8993 203.921 L99.1632 202.254 L103.839 202.254 L103.839 232.879 L111.478 232.879 L111.478 236.814 L91.5706 236.814 L91.5706 232.879 Z" fill="#000000" fill-rule="nonzero" fill-opacity="1" /><path clip-path="url(#clip140)" d="M120.922 230.935 L125.807 230.935 L125.807 236.814 L120.922 236.814 L120.922 230.935 Z" fill="#000000" fill-rule="nonzero" fill-opacity="1" /><path clip-path="url(#clip140)" d="M145.992 205.333 Q142.381 205.333 140.552 208.898 Q138.746 212.44 138.746 219.569 Q138.746 226.676 140.552 230.24 Q142.381 233.782 145.992 233.782 Q149.626 233.782 151.431 230.24 Q153.26 226.676 153.26 219.569 Q153.26 212.44 151.431 208.898 Q149.626 205.333 145.992 205.333 M145.992 201.629 Q151.802 201.629 154.857 206.236 Q157.936 210.819 157.936 219.569 Q157.936 228.296 154.857 232.902 Q151.802 237.486 145.992 237.486 Q140.181 237.486 137.103 232.902 Q134.047 228.296 134.047 219.569 Q134.047 210.819 137.103 206.236 Q140.181 201.629 145.992 201.629 Z" fill="#000000" fill-rule="nonzero" fill-opacity="1" /><polyline clip-path="url(#clip142)" style="stroke:#009af9; stroke-linecap:round; stroke-linejoin:round; stroke-width:4; stroke-opacity:1; fill:none" points="255.035,742.018 258.278,736.794 261.521,731.569 264.764,726.346 268.007,721.124 271.25,715.905 274.493,710.688 277.736,705.474 280.979,700.264 284.222,695.058 287.465,689.857 290.708,684.661 293.951,679.471 297.194,674.287 300.437,669.109 303.68,663.939 306.923,658.777 310.166,653.623 313.409,648.478 316.652,643.343 319.895,638.217 323.138,633.101 326.381,627.997 329.624,622.904 332.867,617.822 336.11,612.754 339.353,607.698 342.596,602.655 345.84,597.627 349.083,592.613 352.326,587.614 355.569,582.63 358.812,577.662 362.055,572.711 365.298,567.777 368.541,562.86 371.784,557.961 375.027,553.08 378.27,548.218 381.513,543.376 384.756,538.553 387.999,533.751 391.242,528.97 394.485,524.21 397.728,519.472 400.971,514.756 404.214,510.063 407.457,505.393 410.7,500.746 413.943,496.124 417.186,491.526 420.429,486.954 423.672,482.406 426.915,477.885 430.158,473.391 433.401,468.923 436.644,464.482 439.887,460.069 443.13,455.685 446.373,451.329 449.616,447.002 452.859,442.704 456.103,438.437 459.346,434.2 462.589,429.993 465.832,425.818 469.075,421.675 472.318,417.563 475.561,413.484 478.804,409.438 482.047,405.425 485.29,401.446 488.533,397.5 491.776,393.59 495.019,389.714 498.262,385.873 501.505,382.068 504.748,378.299 507.991,374.566 511.234,370.87 514.477,367.211 517.72,363.59 520.963,360.006 524.206,356.461 527.449,352.954 530.692,349.486 533.935,346.058 537.178,342.669 540.421,339.32 543.664,336.011 546.907,332.743 550.15,329.515 553.393,326.329 556.636,323.185 559.879,320.082 563.122,317.022 566.366,314.004 569.609,311.029 572.852,308.097 576.095,305.208 579.338,302.363 582.581,299.562 585.824,296.806 589.067,294.093 592.31,291.426 595.553,288.804 598.796,286.227 602.039,283.695 605.282,281.21 608.525,278.77 611.768,276.377 615.011,274.03 618.254,271.73 621.497,269.478 624.74,267.272 627.983,265.114 631.226,263.004 634.469,260.941 637.712,258.927 640.955,256.961 644.198,255.043 647.441,253.174 650.684,251.354 653.927,249.583 657.17,247.861 660.413,246.189 663.656,244.566 666.899,242.994 670.142,241.471 673.385,239.998 676.629,238.575 679.872,237.202 683.115,235.88 686.358,234.609 689.601,233.388 692.844,232.219 696.087,231.1 699.33,230.032 702.573,229.016 705.816,228.051 709.059,227.137 712.302,226.274 715.545,225.464 718.788,224.705 722.031,223.997 725.274,223.342 728.517,222.738 731.76,222.186 735.003,221.687 738.246,221.239 741.489,220.843 744.732,220.5 747.975,220.208 751.218,219.969 754.461,219.782 757.704,219.647 760.947,219.565 764.19,219.535 767.433,219.557 770.676,219.631 773.919,219.757 777.162,219.936 780.405,220.167 783.648,220.45 786.892,220.785 790.135,221.172 793.378,221.612 796.621,222.103 799.864,222.647 803.107,223.242 806.35,223.889 809.593,224.589 812.836,225.339 816.079,226.142 819.322,226.996 822.565,227.902 825.808,228.859 829.051,229.867 832.294,230.926 835.537,232.037 838.78,233.199 842.023,234.411 845.266,235.674 848.509,236.988 851.752,238.353 854.995,239.768 858.238,241.233 861.481,242.748 864.724,244.313 867.967,245.927 871.21,247.592 874.453,249.306 877.696,251.069 880.939,252.881 884.182,254.742 887.425,256.652 890.668,258.61 893.911,260.617 897.155,262.672 900.398,264.775 903.641,266.925 906.884,269.123 910.127,271.368 913.37,273.661 916.613,276 919.856,278.386 923.099,280.818 926.342,283.296 929.585,285.82 932.828,288.39 936.071,291.005 939.314,293.666 942.557,296.371 945.8,299.12 949.043,301.914 952.286,304.752 955.529,307.634 958.772,310.559 962.015,313.527 965.258,316.538 968.501,319.592 971.744,322.688 974.987,325.826 978.23,329.005 981.473,332.226 984.716,335.488 987.959,338.79 991.202,342.133 994.445,345.515 997.688,348.938 1000.93,352.399 1004.17,355.9 1007.42,359.439 1010.66,363.017 1013.9,366.632 1017.15,370.285 1020.39,373.975 1023.63,377.702 1026.88,381.465 1030.12,385.265 1033.36,389.1 1036.6,392.97 1039.85,396.875 1043.09,400.815 1046.33,404.789 1049.58,408.797 1052.82,412.837 1056.06,416.911 1059.31,421.018 1062.55,425.156 1065.79,429.326 1069.04,433.528 1072.28,437.76 1075.52,442.023 1078.76,446.315 1082.01,450.638 1085.25,454.989 1088.49,459.369 1091.74,463.777 1094.98,468.214 1098.22,472.677 1101.47,477.168 1104.71,481.685 1107.95,486.228 1111.19,490.796 1114.44,495.39 1117.68,500.008 1120.92,504.651 1124.17,509.317 1127.41,514.007 1130.65,518.719 1133.9,523.454 1137.14,528.21 1140.38,532.988 1143.62,537.787 1146.87,542.607 1150.11,547.446 1153.35,552.304 1156.6,557.182 1159.84,562.078 1163.08,566.992 1166.33,571.924 1169.57,576.873 1172.81,581.838 1176.06,586.819 1179.3,591.816 1182.54,596.827 1185.78,601.854 1189.03,606.894 1192.27,611.948 1195.51,617.014 1198.76,622.094 1202,627.185 1205.24,632.288 1208.49,637.401 1211.73,642.526 1214.97,647.66 1218.21,652.803 1221.46,657.956 1224.7,663.117 1227.94,668.285 1231.19,673.461 1234.43,678.644 1237.67,683.834 1240.92,689.029 1244.16,694.229 1247.4,699.435 1250.64,704.644 1253.89,709.857 1257.13,715.074 1260.37,720.293 1263.62,725.514 1266.86,730.737 1270.1,735.961 1273.35,741.186 1276.59,746.411 1279.83,751.635 1283.08,756.859 1286.32,762.081 1289.56,767.3 1292.8,772.518 1296.05,777.732 1299.29,782.943 1302.53,788.15 1305.78,793.352 1309.02,798.548 1312.26,803.74 1315.51,808.925 1318.75,814.103 1321.99,819.274 1325.23,824.438 1328.48,829.593 1331.72,834.739 1334.96,839.877 1338.21,845.004 1341.45,850.121 1344.69,855.227 1347.94,860.322 1351.18,865.406 1354.42,870.476 1357.66,875.534 1360.91,880.579 1364.15,885.61 1367.39,890.626 1370.64,895.628 1373.88,900.614 1377.12,905.584 1380.37,910.538 1383.61,915.475 1386.85,920.395 1390.1,925.297 1393.34,930.18 1396.58,935.045 1399.82,939.891 1403.07,944.716 1406.31,949.522 1409.55,954.306 1412.8,959.07 1416.04,963.812 1419.28,968.531 1422.53,973.228 1425.77,977.902 1429.01,982.552 1432.25,987.178 1435.5,991.78 1438.74,996.356 1441.98,1000.91 1445.23,1005.43 1448.47,1009.93 1451.71,1014.4 1454.96,1018.85 1458.2,1023.27 1461.44,1027.66 1464.68,1032.02 1467.93,1036.35 1471.17,1040.65 1474.41,1044.92 1477.66,1049.16 1480.9,1053.38 1484.14,1057.56 1487.39,1061.7 1490.63,1065.82 1493.87,1069.9 1497.11,1073.96 1500.36,1077.97 1503.6,1081.96 1506.84,1085.91 1510.09,1089.83 1513.33,1093.71 1516.57,1097.55 1519.82,1101.36 1523.06,1105.14 1526.3,1108.88 1529.55,1112.58 1532.79,1116.24 1536.03,1119.87 1539.27,1123.46 1542.52,1127.01 1545.76,1130.53 1549,1134 1552.25,1137.44 1555.49,1140.83 1558.73,1144.19 1561.98,1147.5 1565.22,1150.78 1568.46,1154.01 1571.7,1157.2 1574.95,1160.35 1578.19,1163.46 1581.43,1166.53 1584.68,1169.55 1587.92,1172.54 1591.16,1175.48 1594.41,1178.37 1597.65,1181.22 1600.89,1184.03 1604.13,1186.79 1607.38,1189.51 1610.62,1192.19 1613.86,1194.82 1617.11,1197.4 1620.35,1199.94 1623.59,1202.43 1626.84,1204.88 1630.08,1207.28 1633.32,1209.64 1636.57,1211.94 1639.81,1214.2 1643.05,1216.42 1646.29,1218.58 1649.54,1220.7 1652.78,1222.77 1656.02,1224.79 1659.27,1226.77 1662.51,1228.69 1665.75,1230.57 1669,1232.4 1672.24,1234.17 1675.48,1235.9 1678.72,1237.58 1681.97,1239.21 1685.21,1240.8 1688.45,1242.33 1691.7,1243.81 1694.94,1245.24 1698.18,1246.62 1701.43,1247.95 1704.67,1249.23 1707.91,1250.46 1711.15,1251.63 1714.4,1252.76 1717.64,1253.84 1720.88,1254.86 1724.13,1255.84 1727.37,1256.76 1730.61,1257.63 1733.86,1258.45 1737.1,1259.21 1740.34,1259.93 1743.59,1260.59 1746.83,1261.21 1750.07,1261.77 1753.31,1262.27 1756.56,1262.73 1759.8,1263.13 1763.04,1263.49 1766.29,1263.79 1769.53,1264.03 1772.77,1264.23 1776.02,1264.37 1779.26,1264.46 1782.5,1264.5 1785.74,1264.49 1788.99,1264.42 1792.23,1264.3 1795.47,1264.13 1798.72,1263.91 1801.96,1263.64 1805.2,1263.31 1808.45,1262.93 1811.69,1262.5 1814.93,1262.01 1818.17,1261.48 1821.42,1260.89 1824.66,1260.25 1827.9,1259.56 1831.15,1258.82 1834.39,1258.03 1837.63,1257.18 1840.88,1256.28 1844.12,1255.33 1847.36,1254.33 1850.61,1253.28 1853.85,1252.18 1857.09,1251.03 1860.33,1249.82 1863.58,1248.57 1866.82,1247.26 1870.06,1245.9 1873.31,1244.5 1876.55,1243.04 1879.79,1241.53 1883.04,1239.98 1886.28,1238.37 1889.52,1236.71 1892.76,1235.01 1896.01,1233.25 1899.25,1231.45 1902.49,1229.59 1905.74,1227.69 1908.98,1225.74 1912.22,1223.74 1915.47,1221.7 1918.71,1219.6 1921.95,1217.46 1925.19,1215.27 1928.44,1213.03 1931.68,1210.74 1934.92,1208.41 1938.17,1206.03 1941.41,1203.61 1944.65,1201.14 1947.9,1198.62 1951.14,1196.06 1954.38,1193.45 1957.63,1190.8 1960.87,1188.1 1964.11,1185.36 1967.35,1182.57 1970.6,1179.74 1973.84,1176.86 1977.08,1173.95 1980.33,1170.98 1983.57,1167.98 1986.81,1164.93 1990.06,1161.84 1993.3,1158.71 1996.54,1155.54 1999.78,1152.33 2003.03,1149.07 2006.27,1145.78 2009.51,1142.44 2012.76,1139.06 2016,1135.65 2019.24,1132.19 2022.49,1128.7 2025.73,1125.16 2028.97,1121.59 2032.21,1117.98 2035.46,1114.34 2038.7,1110.65 2041.94,1106.93 2045.19,1103.17 2048.43,1099.38 2051.67,1095.55 2054.92,1091.69 2058.16,1087.79 2061.4,1083.85 2064.65,1079.88 2067.89,1075.88 2071.13,1071.84 2074.37,1067.78 2077.62,1063.67 2080.86,1059.54 2084.1,1055.38 2087.35,1051.18 2090.59,1046.95 2093.83,1042.69 2097.08,1038.41 2100.32,1034.09 2103.56,1029.74 2106.8,1025.37 2110.05,1020.96 2113.29,1016.53 2116.53,1012.07 2119.78,1007.59 2123.02,1003.07 2126.26,998.534 2129.51,993.97 2132.75,989.38 2135.99,984.765 2139.23,980.127 2142.48,975.464 2145.72,970.778 2148.96,966.069 2152.21,961.338 2155.45,956.585 2158.69,951.81 2161.94,947.015 2165.18,942.199 2168.42,937.363 2171.67,932.507 2174.91,927.632 2178.15,922.739 2181.39,917.828 2184.64,912.899 2187.88,907.953 2191.12,902.991 2194.37,898.012 2197.61,893.018 2200.85,888.008 2204.1,882.984 2207.34,877.946 2210.58,872.895 2213.82,867.83 2217.07,862.753 2220.31,857.663 2223.55,852.562 2226.8,847.45 2230.04,842.328 2233.28,837.195 2236.53,832.053 2239.77,826.902 2243.01,821.742 2246.25,816.575 2249.5,811.4 2252.74,806.218 2255.98,801.03 2259.23,795.835 2262.47,790.636 2265.71,785.431 2268.96,780.222 2272.2,775.01 2275.44,769.794 2278.69,764.575 2281.93,759.354 2285.17,754.131 2288.41,748.907 2291.66,743.683 "/>
<circle clip-path="url(#clip142)" cx="1539.27" cy="1190.36" r="14.4" fill="#e26f46" fill-rule="evenodd" fill-opacity="1" stroke="#000000" stroke-opacity="1" stroke-width="3.2"/>
<circle clip-path="url(#clip142)" cx="712.302" cy="349.498" r="14.4" fill="#e26f46" fill-rule="evenodd" fill-opacity="1" stroke="#000000" stroke-opacity="1" stroke-width="3.2"/>
<circle clip-path="url(#clip142)" cx="760.947" cy="284.158" r="14.4" fill="#e26f46" fill-rule="evenodd" fill-opacity="1" stroke="#000000" stroke-opacity="1" stroke-width="3.2"/>
<circle clip-path="url(#clip142)" cx="1030.12" cy="316.525" r="14.4" fill="#e26f46" fill-rule="evenodd" fill-opacity="1" stroke="#000000" stroke-opacity="1" stroke-width="3.2"/>
<circle clip-path="url(#clip142)" cx="640.955" cy="369.923" r="14.4" fill="#e26f46" fill-rule="evenodd" fill-opacity="1" stroke="#000000" stroke-opacity="1" stroke-width="3.2"/>
<circle clip-path="url(#clip142)" cx="297.194" cy="639.583" r="14.4" fill="#e26f46" fill-rule="evenodd" fill-opacity="1" stroke="#000000" stroke-opacity="1" stroke-width="3.2"/>
<circle clip-path="url(#clip142)" cx="916.613" cy="169.721" r="14.4" fill="#e26f46" fill-rule="evenodd" fill-opacity="1" stroke="#000000" stroke-opacity="1" stroke-width="3.2"/>
<circle clip-path="url(#clip142)" cx="1182.54" cy="503.251" r="14.4" fill="#e26f46" fill-rule="evenodd" fill-opacity="1" stroke="#000000" stroke-opacity="1" stroke-width="3.2"/>
<circle clip-path="url(#clip142)" cx="1912.22" cy="1136" r="14.4" fill="#e26f46" fill-rule="evenodd" fill-opacity="1" stroke="#000000" stroke-opacity="1" stroke-width="3.2"/>
<circle clip-path="url(#clip142)" cx="923.099" cy="252.228" r="14.4" fill="#e26f46" fill-rule="evenodd" fill-opacity="1" stroke="#000000" stroke-opacity="1" stroke-width="3.2"/>
<circle clip-path="url(#clip142)" cx="939.314" cy="271.789" r="14.4" fill="#e26f46" fill-rule="evenodd" fill-opacity="1" stroke="#000000" stroke-opacity="1" stroke-width="3.2"/>
<circle clip-path="url(#clip142)" cx="1386.85" cy="930.116" r="14.4" fill="#e26f46" fill-rule="evenodd" fill-opacity="1" stroke="#000000" stroke-opacity="1" stroke-width="3.2"/>
<circle clip-path="url(#clip142)" cx="1309.02" cy="842.51" r="14.4" fill="#e26f46" fill-rule="evenodd" fill-opacity="1" stroke="#000000" stroke-opacity="1" stroke-width="3.2"/>
<circle clip-path="url(#clip142)" cx="1036.6" cy="307.956" r="14.4" fill="#e26f46" fill-rule="evenodd" fill-opacity="1" stroke="#000000" stroke-opacity="1" stroke-width="3.2"/>
<circle clip-path="url(#clip142)" cx="1500.36" cy="1065.53" r="14.4" fill="#e26f46" fill-rule="evenodd" fill-opacity="1" stroke="#000000" stroke-opacity="1" stroke-width="3.2"/>
<circle clip-path="url(#clip142)" cx="939.314" cy="186.965" r="14.4" fill="#e26f46" fill-rule="evenodd" fill-opacity="1" stroke="#000000" stroke-opacity="1" stroke-width="3.2"/>
<circle clip-path="url(#clip142)" cx="514.477" cy="459.997" r="14.4" fill="#e26f46" fill-rule="evenodd" fill-opacity="1" stroke="#000000" stroke-opacity="1" stroke-width="3.2"/>
<circle clip-path="url(#clip142)" cx="1234.43" cy="598.426" r="14.4" fill="#e26f46" fill-rule="evenodd" fill-opacity="1" stroke="#000000" stroke-opacity="1" stroke-width="3.2"/>
<circle clip-path="url(#clip142)" cx="1964.11" cy="1261.3" r="14.4" fill="#e26f46" fill-rule="evenodd" fill-opacity="1" stroke="#000000" stroke-opacity="1" stroke-width="3.2"/>
<circle clip-path="url(#clip142)" cx="2191.12" cy="904.953" r="14.4" fill="#e26f46" fill-rule="evenodd" fill-opacity="1" stroke="#000000" stroke-opacity="1" stroke-width="3.2"/>
<path clip-path="url(#clip142)" d="M255.035 935.783 L258.278 931.894 L261.521 928.055 L264.764 924.27 L268.007 920.547 L271.25 916.89 L274.493 913.308 L277.736 909.806 L280.979 906.391 L284.222 903.069 L287.465 899.847 L290.708 896.731 L293.951 893.727 L297.194 890.842 L300.437 888.079 L303.68 885.432 L306.923 882.895 L310.166 880.458 L313.409 878.114 L316.652 875.854 L319.895 873.67 L323.138 871.553 L326.381 869.496 L329.624 867.491 L332.867 865.528 L336.11 863.601 L339.353 861.702 L342.596 859.823 L345.84 857.957 L349.083 856.097 L352.326 854.238 L355.569 852.372 L358.812 850.493 L362.055 848.596 L365.298 846.676 L368.541 844.727 L371.784 842.746 L375.027 840.727 L378.27 838.666 L381.513 836.561 L384.756 834.407 L387.999 832.201 L391.242 829.942 L394.485 827.625 L397.728 825.25 L400.971 822.815 L404.214 820.317 L407.457 817.756 L410.7 815.131 L413.943 812.442 L417.186 809.687 L420.429 806.867 L423.672 803.982 L426.915 801.033 L430.158 798.02 L433.401 794.945 L436.644 791.809 L439.887 788.614 L443.13 785.361 L446.373 782.053 L449.616 778.692 L452.859 775.282 L456.103 771.825 L459.346 768.324 L462.589 764.785 L465.832 761.209 L469.075 757.603 L472.318 753.969 L475.561 750.314 L478.804 746.642 L482.047 742.959 L485.29 739.27 L488.533 735.582 L491.776 731.9 L495.019 728.23 L498.262 724.58 L501.505 720.955 L504.748 717.364 L507.991 713.812 L511.234 710.306 L514.477 706.855 L517.72 703.461 L520.963 700.122 L524.206 696.831 L527.449 693.583 L530.692 690.371 L533.935 687.19 L537.178 684.033 L540.421 680.895 L543.664 677.771 L546.907 674.656 L550.15 671.545 L553.393 668.433 L556.636 665.316 L559.879 662.191 L563.122 659.054 L566.366 655.901 L569.609 652.731 L572.852 649.542 L576.095 646.331 L579.338 643.097 L582.581 639.839 L585.824 636.557 L589.067 633.252 L592.31 629.923 L595.553 626.572 L598.796 623.2 L602.039 619.809 L605.282 616.403 L608.525 612.983 L611.768 609.553 L615.011 606.118 L618.254 602.682 L621.497 599.249 L624.74 595.825 L627.983 592.416 L631.226 589.027 L634.469 585.665 L637.712 582.338 L640.955 579.051 L644.198 575.811 L647.441 572.615 L650.684 569.461 L653.927 566.345 L657.17 563.264 L660.413 560.217 L663.656 557.201 L666.899 554.215 L670.142 551.258 L673.385 548.329 L676.629 545.427 L679.872 542.555 L683.115 539.711 L686.358 536.899 L689.601 534.12 L692.844 531.376 L696.087 528.67 L699.33 526.007 L702.573 523.39 L705.816 520.823 L709.059 518.311 L712.302 515.859 L715.545 513.47 L718.788 511.144 L722.031 508.876 L725.274 506.665 L728.517 504.507 L731.76 502.4 L735.003 500.343 L738.246 498.334 L741.489 496.371 L744.732 494.455 L747.975 492.585 L751.218 490.76 L754.461 488.982 L757.704 487.25 L760.947 485.567 L764.19 483.93 L767.433 482.333 L770.676 480.767 L773.919 479.223 L777.162 477.692 L780.405 476.168 L783.648 474.642 L786.892 473.108 L790.135 471.559 L793.378 469.99 L796.621 468.393 L799.864 466.766 L803.107 465.103 L806.35 463.401 L809.593 461.655 L812.836 459.865 L816.079 458.026 L819.322 456.138 L822.565 454.199 L825.808 452.208 L829.051 450.167 L832.294 448.075 L835.537 445.933 L838.78 443.743 L842.023 441.508 L845.266 439.23 L848.509 436.913 L851.752 434.561 L854.995 432.178 L858.238 429.771 L861.481 427.346 L864.724 424.91 L867.967 422.47 L871.21 420.035 L874.453 417.614 L877.696 415.218 L880.939 412.859 L884.182 410.547 L887.425 408.297 L890.668 406.122 L893.911 404.038 L897.155 402.061 L900.398 400.207 L903.641 398.495 L906.884 396.944 L910.127 395.573 L913.37 394.403 L916.613 393.454 L919.856 392.746 L923.099 392.29 L926.342 392.093 L929.585 392.16 L932.828 392.492 L936.071 393.089 L939.314 393.953 L942.557 395.082 L945.8 396.462 L949.043 398.076 L952.286 399.907 L955.529 401.94 L958.772 404.158 L962.015 406.546 L965.258 409.092 L968.501 411.781 L971.744 414.604 L974.987 417.548 L978.23 420.605 L981.473 423.767 L984.716 427.027 L987.959 430.381 L991.202 433.823 L994.445 437.351 L997.688 440.962 L1000.93 444.657 L1004.17 448.436 L1007.42 452.299 L1010.66 456.25 L1013.9 460.291 L1017.15 464.425 L1020.39 468.659 L1023.63 472.996 L1026.88 477.442 L1030.12 482.002 L1033.36 486.682 L1036.6 491.481 L1039.85 496.394 L1043.09 501.411 L1046.33 506.52 L1049.58 511.71 L1052.82 516.969 L1056.06 522.288 L1059.31 527.656 L1062.55 533.062 L1065.79 538.499 L1069.04 543.957 L1072.28 549.429 L1075.52 554.906 L1078.76 560.382 L1082.01 565.851 L1085.25 571.307 L1088.49 576.745 L1091.74 582.161 L1094.98 587.549 L1098.22 592.908 L1101.47 598.234 L1104.71 603.524 L1107.95 608.777 L1111.19 613.991 L1114.44 619.167 L1117.68 624.303 L1120.92 629.399 L1124.17 634.457 L1127.41 639.478 L1130.65 644.464 L1133.9 649.416 L1137.14 654.338 L1140.38 659.234 L1143.62 664.105 L1146.87 668.958 L1150.11 673.797 L1153.35 678.627 L1156.6 683.454 L1159.84 688.285 L1163.08 693.125 L1166.33 697.982 L1169.57 702.864 L1172.81 707.778 L1176.06 712.734 L1179.3 717.739 L1182.54 722.802 L1185.78 727.932 L1189.03 733.126 L1192.27 738.385 L1195.51 743.705 L1198.76 749.085 L1202 754.525 L1205.24 760.023 L1208.49 765.579 L1211.73 771.193 L1214.97 776.865 L1218.21 782.596 L1221.46 788.387 L1224.7 794.24 L1227.94 800.155 L1231.19 806.135 L1234.43 812.183 L1237.67 818.298 L1240.92 824.475 L1244.16 830.705 L1247.4 836.98 L1250.64 843.293 L1253.89 849.636 L1257.13 856.002 L1260.37 862.386 L1263.62 868.782 L1266.86 875.184 L1270.1 881.588 L1273.35 887.989 L1276.59 894.384 L1279.83 900.769 L1283.08 907.143 L1286.32 913.502 L1289.56 919.847 L1292.8 926.174 L1296.05 932.484 L1299.29 938.777 L1302.53 945.053 L1305.78 951.311 L1309.02 957.554 L1312.26 963.78 L1315.51 969.986 L1318.75 976.168 L1321.99 982.32 L1325.23 988.439 L1328.48 994.521 L1331.72 1000.56 L1334.96 1006.56 L1338.21 1012.51 L1341.45 1018.41 L1344.69 1024.27 L1347.94 1030.07 L1351.18 1035.82 L1354.42 1041.52 L1357.66 1047.16 L1360.91 1052.76 L1364.15 1058.3 L1367.39 1063.79 L1370.64 1069.24 L1373.88 1074.64 L1377.12 1079.99 L1380.37 1085.31 L1383.61 1090.59 L1386.85 1095.83 L1390.1 1101.04 L1393.34 1106.22 L1396.58 1111.35 L1399.82 1116.44 L1403.07 1121.47 L1406.31 1126.45 L1409.55 1131.37 L1412.8 1136.23 L1416.04 1141.02 L1419.28 1145.74 L1422.53 1150.39 L1425.77 1154.97 L1429.01 1159.47 L1432.25 1163.89 L1435.5 1168.24 L1438.74 1172.52 L1441.98 1176.72 L1445.23 1180.85 L1448.47 1184.9 L1451.71 1188.89 L1454.96 1192.81 L1458.2 1196.67 L1461.44 1200.47 L1464.68 1204.21 L1467.93 1207.91 L1471.17 1211.57 L1474.41 1215.2 L1477.66 1218.79 L1480.9 1222.37 L1484.14 1225.93 L1487.39 1229.49 L1490.63 1233.05 L1493.87 1236.63 L1497.11 1240.23 L1500.36 1243.86 L1503.6 1247.53 L1506.84 1251.24 L1510.09 1254.99 L1513.33 1258.78 L1516.57 1262.61 L1519.82 1266.48 L1523.06 1270.38 L1526.3 1274.33 L1529.55 1278.31 L1532.79 1282.32 L1536.03 1286.37 L1539.27 1290.45 L1542.52 1294.57 L1545.76 1298.71 L1549 1302.87 L1552.25 1307.03 L1555.49 1311.21 L1558.73 1315.38 L1561.98 1319.55 L1565.22 1323.7 L1568.46 1327.83 L1571.7 1331.93 L1574.95 1336 L1578.19 1340.04 L1581.43 1344.03 L1584.68 1347.98 L1587.92 1351.88 L1591.16 1355.73 L1594.41 1359.51 L1597.65 1363.24 L1600.89 1366.9 L1604.13 1370.49 L1607.38 1374.02 L1610.62 1377.47 L1613.86 1380.85 L1617.11 1384.15 L1620.35 1387.38 L1623.59 1390.52 L1626.84 1393.59 L1630.08 1396.57 L1633.32 1399.47 L1636.57 1402.28 L1639.81 1405.01 L1643.05 1407.66 L1646.29 1410.21 L1649.54 1412.68 L1652.78 1415.06 L1656.02 1417.35 L1659.27 1419.56 L1662.51 1421.67 L1665.75 1423.69 L1669 1425.63 L1672.24 1427.48 L1675.48 1429.23 L1678.72 1430.9 L1681.97 1432.48 L1685.21 1433.96 L1688.45 1435.36 L1691.7 1436.67 L1694.94 1437.89 L1698.18 1439.02 L1701.43 1440.06 L1704.67 1441.02 L1707.91 1441.88 L1711.15 1442.66 L1714.4 1443.34 L1717.64 1443.94 L1720.88 1444.46 L1724.13 1444.88 L1727.37 1445.22 L1730.61 1445.47 L1733.86 1445.64 L1737.1 1445.72 L1740.34 1445.71 L1743.59 1445.62 L1746.83 1445.44 L1750.07 1445.18 L1753.31 1444.84 L1756.56 1444.41 L1759.8 1443.9 L1763.04 1443.31 L1766.29 1442.63 L1769.53 1441.88 L1772.77 1441.04 L1776.02 1440.12 L1779.26 1439.13 L1782.5 1438.05 L1785.74 1436.9 L1788.99 1435.67 L1792.23 1434.37 L1795.47 1432.99 L1798.72 1431.54 L1801.96 1430.01 L1805.2 1428.42 L1808.45 1426.75 L1811.69 1425.01 L1814.93 1423.21 L1818.17 1421.35 L1821.42 1419.42 L1824.66 1417.42 L1827.9 1415.37 L1831.15 1413.27 L1834.39 1411.11 L1837.63 1408.89 L1840.88 1406.63 L1844.12 1404.32 L1847.36 1401.98 L1850.61 1399.59 L1853.85 1397.17 L1857.09 1394.72 L1860.33 1392.24 L1863.58 1389.74 L1866.82 1387.23 L1870.06 1384.71 L1873.31 1382.18 L1876.55 1379.65 L1879.79 1377.14 L1883.04 1374.64 L1886.28 1372.16 L1889.52 1369.71 L1892.76 1367.3 L1896.01 1364.93 L1899.25 1362.62 L1902.49 1360.38 L1905.74 1358.2 L1908.98 1356.11 L1912.22 1354.11 L1915.47 1352.2 L1918.71 1350.39 L1921.95 1348.68 L1925.19 1347.05 L1928.44 1345.51 L1931.68 1344.05 L1934.92 1342.68 L1938.17 1341.38 L1941.41 1340.15 L1944.65 1338.99 L1947.9 1337.9 L1951.14 1336.87 L1954.38 1335.9 L1957.63 1334.99 L1960.87 1334.12 L1964.11 1333.3 L1967.35 1332.53 L1970.6 1331.79 L1973.84 1331.07 L1977.08 1330.38 L1980.33 1329.69 L1983.57 1329.01 L1986.81 1328.32 L1990.06 1327.62 L1993.3 1326.9 L1996.54 1326.15 L1999.78 1325.37 L2003.03 1324.55 L2006.27 1323.69 L2009.51 1322.78 L2012.76 1321.82 L2016 1320.79 L2019.24 1319.71 L2022.49 1318.56 L2025.73 1317.34 L2028.97 1316.05 L2032.21 1314.69 L2035.46 1313.26 L2038.7 1311.74 L2041.94 1310.15 L2045.19 1308.49 L2048.43 1306.74 L2051.67 1304.91 L2054.92 1303.01 L2058.16 1301.02 L2061.4 1298.96 L2064.65 1296.82 L2067.89 1294.6 L2071.13 1292.31 L2074.37 1289.95 L2077.62 1287.51 L2080.86 1285.01 L2084.1 1282.44 L2087.35 1279.81 L2090.59 1277.12 L2093.83 1274.37 L2097.08 1271.57 L2100.32 1268.72 L2103.56 1265.83 L2106.8 1262.9 L2110.05 1259.93 L2113.29 1256.93 L2116.53 1253.91 L2119.78 1250.86 L2123.02 1247.81 L2126.26 1244.74 L2129.51 1241.68 L2132.75 1238.62 L2135.99 1235.58 L2139.23 1232.56 L2142.48 1229.57 L2145.72 1226.62 L2148.96 1223.71 L2152.21 1220.85 L2155.45 1218.06 L2158.69 1215.34 L2161.94 1212.71 L2165.18 1210.16 L2168.42 1207.72 L2171.67 1205.39 L2174.91 1203.17 L2178.15 1201.09 L2181.39 1199.15 L2184.64 1197.35 L2187.88 1195.72 L2191.12 1194.25 L2194.37 1192.96 L2197.61 1191.84 L2200.85 1190.88 L2204.1 1190.08 L2207.34 1189.43 L2210.58 1188.93 L2213.82 1188.56 L2217.07 1188.32 L2220.31 1188.21 L2223.55 1188.21 L2226.8 1188.32 L2230.04 1188.53 L2233.28 1188.84 L2236.53 1189.24 L2239.77 1189.72 L2243.01 1190.29 L2246.25 1190.92 L2249.5 1191.62 L2252.74 1192.38 L2255.98 1193.2 L2259.23 1194.07 L2262.47 1194.99 L2265.71 1195.95 L2268.96 1196.95 L2272.2 1197.99 L2275.44 1199.05 L2278.69 1200.15 L2281.93 1201.27 L2285.17 1202.41 L2288.41 1203.57 L2291.66 1204.75 L2291.66 527.14 L2288.41 531.823 L2285.17 536.536 L2281.93 541.278 L2278.69 546.046 L2275.44 550.838 L2272.2 555.65 L2268.96 560.481 L2265.71 565.327 L2262.47 570.184 L2259.23 575.05 L2255.98 579.92 L2252.74 584.791 L2249.5 589.659 L2246.25 594.518 L2243.01 599.366 L2239.77 604.196 L2236.53 609.005 L2233.28 613.786 L2230.04 618.534 L2226.8 623.244 L2223.55 627.91 L2220.31 632.526 L2217.07 637.086 L2213.82 641.584 L2210.58 646.013 L2207.34 650.367 L2204.1 654.64 L2200.85 658.826 L2197.61 662.918 L2194.37 666.911 L2191.12 670.798 L2187.88 674.576 L2184.64 678.25 L2181.39 681.826 L2178.15 685.314 L2174.91 688.719 L2171.67 692.049 L2168.42 695.313 L2165.18 698.518 L2161.94 701.671 L2158.69 704.779 L2155.45 707.851 L2152.21 710.893 L2148.96 713.913 L2145.72 716.916 L2142.48 719.91 L2139.23 722.9 L2135.99 725.892 L2132.75 728.892 L2129.51 731.905 L2126.26 734.936 L2123.02 737.989 L2119.78 741.069 L2116.53 744.18 L2113.29 747.324 L2110.05 750.506 L2106.8 753.728 L2103.56 756.993 L2100.32 760.302 L2097.08 763.658 L2093.83 767.062 L2090.59 770.516 L2087.35 774.019 L2084.1 777.574 L2080.86 781.179 L2077.62 784.834 L2074.37 788.54 L2071.13 792.296 L2067.89 796.099 L2064.65 799.95 L2061.4 803.845 L2058.16 807.783 L2054.92 811.761 L2051.67 815.777 L2048.43 819.826 L2045.19 823.906 L2041.94 828.012 L2038.7 832.14 L2035.46 836.285 L2032.21 840.442 L2028.97 844.605 L2025.73 848.768 L2022.49 852.924 L2019.24 857.066 L2016 861.187 L2012.76 865.277 L2009.51 869.33 L2006.27 873.335 L2003.03 877.283 L1999.78 881.163 L1996.54 884.965 L1993.3 888.677 L1990.06 892.288 L1986.81 895.785 L1983.57 899.154 L1980.33 902.383 L1977.08 905.458 L1973.84 908.364 L1970.6 911.087 L1967.35 913.612 L1964.11 915.924 L1960.87 918.01 L1957.63 919.871 L1954.38 921.51 L1951.14 922.928 L1947.9 924.129 L1944.65 925.116 L1941.41 925.89 L1938.17 926.454 L1934.92 926.811 L1931.68 926.963 L1928.44 926.911 L1925.19 926.658 L1921.95 926.206 L1918.71 925.557 L1915.47 924.712 L1912.22 923.673 L1908.98 922.444 L1905.74 921.037 L1902.49 919.464 L1899.25 917.738 L1896.01 915.872 L1892.76 913.878 L1889.52 911.769 L1886.28 909.555 L1883.04 907.25 L1879.79 904.862 L1876.55 902.404 L1873.31 899.884 L1870.06 897.313 L1866.82 894.699 L1863.58 892.052 L1860.33 889.379 L1857.09 886.689 L1853.85 883.988 L1850.61 881.283 L1847.36 878.582 L1844.12 875.89 L1840.88 873.213 L1837.63 870.557 L1834.39 867.927 L1831.15 865.327 L1827.9 862.763 L1824.66 860.238 L1821.42 857.756 L1818.17 855.322 L1814.93 852.938 L1811.69 850.608 L1808.45 848.336 L1805.2 846.123 L1801.96 843.973 L1798.72 841.888 L1795.47 839.87 L1792.23 837.922 L1788.99 836.045 L1785.74 834.242 L1782.5 832.513 L1779.26 830.861 L1776.02 829.287 L1772.77 827.792 L1769.53 826.377 L1766.29 825.044 L1763.04 823.793 L1759.8 822.626 L1756.56 821.542 L1753.31 820.543 L1750.07 819.63 L1746.83 818.801 L1743.59 818.059 L1740.34 817.402 L1737.1 816.832 L1733.86 816.349 L1730.61 815.951 L1727.37 815.64 L1724.13 815.416 L1720.88 815.276 L1717.64 815.223 L1714.4 815.254 L1711.15 815.37 L1707.91 815.57 L1704.67 815.853 L1701.43 816.218 L1698.18 816.665 L1694.94 817.192 L1691.7 817.799 L1688.45 818.485 L1685.21 819.247 L1681.97 820.085 L1678.72 820.997 L1675.48 821.982 L1672.24 823.038 L1669 824.163 L1665.75 825.355 L1662.51 826.612 L1659.27 827.933 L1656.02 829.313 L1652.78 830.752 L1649.54 832.246 L1646.29 833.793 L1643.05 835.39 L1639.81 837.033 L1636.57 838.719 L1633.32 840.445 L1630.08 842.207 L1626.84 844.001 L1623.59 845.822 L1620.35 847.667 L1617.11 849.53 L1613.86 851.407 L1610.62 853.293 L1607.38 855.181 L1604.13 857.067 L1600.89 858.943 L1597.65 860.804 L1594.41 862.642 L1591.16 864.451 L1587.92 866.222 L1584.68 867.948 L1581.43 869.62 L1578.19 871.23 L1574.95 872.768 L1571.7 874.224 L1568.46 875.589 L1565.22 876.851 L1561.98 878 L1558.73 879.024 L1555.49 879.912 L1552.25 880.651 L1549 881.229 L1545.76 881.632 L1542.52 881.848 L1539.27 881.864 L1536.03 881.67 L1532.79 881.264 L1529.55 880.65 L1526.3 879.832 L1523.06 878.81 L1519.82 877.589 L1516.57 876.171 L1513.33 874.558 L1510.09 872.752 L1506.84 870.757 L1503.6 868.573 L1500.36 866.204 L1497.11 863.653 L1493.87 860.931 L1490.63 858.05 L1487.39 855.023 L1484.14 851.861 L1480.9 848.575 L1477.66 845.177 L1474.41 841.678 L1471.17 838.086 L1467.93 834.412 L1464.68 830.664 L1461.44 826.85 L1458.2 822.978 L1454.96 819.055 L1451.71 815.085 L1448.47 811.075 L1445.23 807.03 L1441.98 802.952 L1438.74 798.846 L1435.5 794.714 L1432.25 790.558 L1429.01 786.378 L1425.77 782.176 L1422.53 777.952 L1419.28 773.704 L1416.04 769.432 L1412.8 765.133 L1409.55 760.805 L1406.31 756.446 L1403.07 752.051 L1399.82 747.618 L1396.58 743.141 L1393.34 738.615 L1390.1 734.037 L1386.85 729.399 L1383.61 724.699 L1380.37 719.94 L1377.12 715.125 L1373.88 710.258 L1370.64 705.345 L1367.39 700.387 L1364.15 695.389 L1360.91 690.352 L1357.66 685.279 L1354.42 680.171 L1351.18 675.03 L1347.94 669.856 L1344.69 664.65 L1341.45 659.411 L1338.21 654.138 L1334.96 648.83 L1331.72 643.484 L1328.48 638.099 L1325.23 632.672 L1321.99 627.198 L1318.75 621.675 L1315.51 616.098 L1312.26 610.462 L1309.02 604.763 L1305.78 598.998 L1302.53 593.171 L1299.29 587.289 L1296.05 581.358 L1292.8 575.385 L1289.56 569.376 L1286.32 563.335 L1283.08 557.267 L1279.83 551.177 L1276.59 545.067 L1273.35 538.942 L1270.1 532.804 L1266.86 526.655 L1263.62 520.496 L1260.37 514.329 L1257.13 508.153 L1253.89 501.97 L1250.64 495.778 L1247.4 489.577 L1244.16 483.365 L1240.92 477.14 L1237.67 470.9 L1234.43 464.644 L1231.19 458.369 L1227.94 452.079 L1224.7 445.778 L1221.46 439.47 L1218.21 433.159 L1214.97 426.848 L1211.73 420.54 L1208.49 414.239 L1205.24 407.946 L1202 401.665 L1198.76 395.396 L1195.51 389.142 L1192.27 382.904 L1189.03 376.683 L1185.78 370.48 L1182.54 364.296 L1179.3 358.134 L1176.06 351.999 L1172.81 345.899 L1169.57 339.842 L1166.33 333.836 L1163.08 327.887 L1159.84 322.002 L1156.6 316.188 L1153.35 310.451 L1150.11 304.796 L1146.87 299.229 L1143.62 293.755 L1140.38 288.378 L1137.14 283.103 L1133.9 277.933 L1130.65 272.872 L1127.41 267.923 L1124.17 263.087 L1120.92 258.368 L1117.68 253.767 L1114.44 249.285 L1111.19 244.924 L1107.95 240.683 L1104.71 236.563 L1101.47 232.563 L1098.22 228.684 L1094.98 224.923 L1091.74 221.278 L1088.49 217.749 L1085.25 214.332 L1082.01 211.025 L1078.76 207.823 L1075.52 204.725 L1072.28 201.724 L1069.04 198.816 L1065.79 195.996 L1062.55 193.259 L1059.31 190.598 L1056.06 188.007 L1052.82 185.479 L1049.58 183.006 L1046.33 180.581 L1043.09 178.196 L1039.85 175.843 L1036.6 173.514 L1033.36 171.201 L1030.12 168.902 L1026.88 166.617 L1023.63 164.352 L1020.39 162.113 L1017.15 159.907 L1013.9 157.739 L1010.66 155.616 L1007.42 153.543 L1004.17 151.523 L1000.93 149.562 L997.688 147.663 L994.445 145.827 L991.202 144.056 L987.959 142.352 L984.716 140.713 L981.473 139.138 L978.23 137.625 L974.987 136.17 L971.744 134.769 L968.501 133.415 L965.258 132.102 L962.015 130.823 L958.772 129.567 L955.529 128.327 L952.286 127.091 L949.043 125.849 L945.8 124.588 L942.557 123.298 L939.314 121.967 L936.071 120.585 L932.828 119.152 L929.585 117.667 L926.342 116.132 L923.099 114.55 L919.856 112.924 L916.613 111.262 L913.37 109.576 L910.127 107.879 L906.884 106.184 L903.641 104.504 L900.398 102.853 L897.155 101.242 L893.911 99.6835 L890.668 98.1877 L887.425 96.765 L884.182 95.4246 L880.939 94.1749 L877.696 93.0236 L874.453 91.9774 L871.21 91.0426 L867.967 90.2243 L864.724 89.5273 L861.481 88.9554 L858.238 88.512 L854.995 88.1997 L851.752 88.0207 L848.509 87.9763 L845.266 88.0676 L842.023 88.295 L838.78 88.6585 L835.537 89.1575 L832.294 89.791 L829.051 90.5576 L825.808 91.4553 L822.565 92.4817 L819.322 93.6342 L816.079 94.9094 L812.836 96.3037 L809.593 97.813 L806.35 99.4328 L803.107 101.158 L799.864 102.984 L796.621 104.904 L793.378 106.912 L790.135 109.002 L786.892 111.167 L783.648 113.399 L780.405 115.691 L777.162 118.033 L773.919 120.419 L770.676 122.838 L767.433 125.282 L764.19 127.741 L760.947 130.206 L757.704 132.668 L754.461 135.125 L751.218 137.573 L747.975 140.012 L744.732 142.438 L741.489 144.85 L738.246 147.245 L735.003 149.618 L731.76 151.968 L728.517 154.291 L725.274 156.582 L722.031 158.837 L718.788 161.052 L715.545 163.223 L712.302 165.344 L709.059 167.412 L705.816 169.43 L702.573 171.403 L699.33 173.335 L696.087 175.229 L692.844 177.089 L689.601 178.919 L686.358 180.721 L683.115 182.497 L679.872 184.25 L676.629 185.982 L673.385 187.692 L670.142 189.382 L666.899 191.053 L663.656 192.703 L660.413 194.332 L657.17 195.939 L653.927 197.522 L650.684 199.08 L647.441 200.611 L644.198 202.112 L640.955 203.581 L637.712 205.016 L634.469 206.423 L631.226 207.807 L627.983 209.174 L624.74 210.528 L621.497 211.876 L618.254 213.222 L615.011 214.57 L611.768 215.924 L608.525 217.289 L605.282 218.667 L602.039 220.061 L598.796 221.473 L595.553 222.907 L592.31 224.362 L589.067 225.841 L585.824 227.345 L582.581 228.873 L579.338 230.425 L576.095 232.001 L572.852 233.599 L569.609 235.22 L566.366 236.86 L563.122 238.518 L559.879 240.191 L556.636 241.877 L553.393 243.572 L550.15 245.272 L546.907 246.974 L543.664 248.674 L540.421 250.367 L537.178 252.049 L533.935 253.715 L530.692 255.36 L527.449 256.978 L524.206 258.565 L520.963 260.116 L517.72 261.624 L514.477 263.085 L511.234 264.495 L507.991 265.859 L504.748 267.18 L501.505 268.465 L498.262 269.719 L495.019 270.948 L491.776 272.156 L488.533 273.349 L485.29 274.532 L482.047 275.709 L478.804 276.886 L475.561 278.066 L472.318 279.254 L469.075 280.454 L465.832 281.67 L462.589 282.905 L459.346 284.162 L456.103 285.444 L452.859 286.755 L449.616 288.096 L446.373 289.469 L443.13 290.877 L439.887 292.322 L436.644 293.804 L433.401 295.324 L430.158 296.885 L426.915 298.485 L423.672 300.127 L420.429 301.809 L417.186 303.531 L413.943 305.294 L410.7 307.095 L407.457 308.936 L404.214 310.813 L400.971 312.726 L397.728 314.672 L394.485 316.65 L391.242 318.658 L387.999 320.691 L384.756 322.749 L381.513 324.827 L378.27 326.921 L375.027 329.028 L371.784 331.144 L368.541 333.264 L365.298 335.383 L362.055 337.497 L358.812 339.599 L355.569 341.683 L352.326 343.745 L349.083 345.777 L345.84 347.772 L342.596 349.723 L339.353 351.624 L336.11 353.467 L332.867 355.243 L329.624 356.945 L326.381 358.564 L323.138 360.092 L319.895 361.52 L316.652 362.839 L313.409 364.041 L310.166 365.118 L306.923 366.059 L303.68 366.857 L300.437 367.502 L297.194 367.988 L293.951 368.307 L290.708 368.464 L287.465 368.466 L284.222 368.318 L280.979 368.03 L277.736 367.606 L274.493 367.055 L271.25 366.383 L268.007 365.597 L264.764 364.704 L261.521 363.712 L258.278 362.626 L255.035 361.453  Z" fill="#3da44d" fill-rule="evenodd" fill-opacity="0.1"/>
<polyline clip-path="url(#clip142)" style="stroke:#3da44d; stroke-linecap:round; stroke-linejoin:round; stroke-width:8; stroke-opacity:1; fill:none" points="255.035,648.618 258.278,647.26 261.521,645.883 264.764,644.487 268.007,643.072 271.25,641.637 274.493,640.181 277.736,638.706 280.979,637.21 284.222,635.694 287.465,634.156 290.708,632.597 293.951,631.017 297.194,629.415 300.437,627.79 303.68,626.144 306.923,624.477 310.166,622.788 313.409,621.078 316.652,619.346 319.895,617.595 323.138,615.822 326.381,614.03 329.624,612.218 332.867,610.386 336.11,608.534 339.353,606.663 342.596,604.773 345.84,602.864 349.083,600.937 352.326,598.991 355.569,597.027 358.812,595.046 362.055,593.046 365.298,591.03 368.541,588.996 371.784,586.945 375.027,584.877 378.27,582.794 381.513,580.694 384.756,578.578 387.999,576.446 391.242,574.3 394.485,572.138 397.728,569.961 400.971,567.77 404.214,565.565 407.457,563.346 410.7,561.113 413.943,558.868 417.186,556.609 420.429,554.338 423.672,552.054 426.915,549.759 430.158,547.453 433.401,545.135 436.644,542.806 439.887,540.468 443.13,538.119 446.373,535.761 449.616,533.394 452.859,531.018 456.103,528.635 459.346,526.243 462.589,523.845 465.832,521.44 469.075,519.029 472.318,516.612 475.561,514.19 478.804,511.764 482.047,509.334 485.29,506.901 488.533,504.465 491.776,502.028 495.019,499.589 498.262,497.15 501.505,494.71 504.748,492.272 507.991,489.835 511.234,487.401 514.477,484.97 517.72,482.542 520.963,480.119 524.206,477.698 527.449,475.281 530.692,472.866 533.935,470.452 537.178,468.041 540.421,465.631 543.664,463.223 546.907,460.815 550.15,458.408 553.393,456.002 556.636,453.597 559.879,451.191 563.122,448.786 566.366,446.381 569.609,443.976 572.852,441.571 576.095,439.166 579.338,436.761 582.581,434.356 585.824,431.951 589.067,429.547 592.31,427.143 595.553,424.739 598.796,422.337 602.039,419.935 605.282,417.535 608.525,415.136 611.768,412.739 615.011,410.344 618.254,407.952 621.497,405.563 624.74,403.177 627.983,400.795 631.226,398.417 634.469,396.044 637.712,393.677 640.955,391.316 644.198,388.961 647.441,386.613 650.684,384.27 653.927,381.933 657.17,379.601 660.413,377.274 663.656,374.952 666.899,372.634 670.142,370.32 673.385,368.01 676.629,365.705 679.872,363.402 683.115,361.104 686.358,358.81 689.601,356.519 692.844,354.232 696.087,351.95 699.33,349.671 702.573,347.396 705.816,345.127 709.059,342.861 712.302,340.601 715.545,338.347 718.788,336.098 722.031,333.857 725.274,331.623 728.517,329.399 731.76,327.184 735.003,324.981 738.246,322.789 741.489,320.611 744.732,318.447 747.975,316.298 751.218,314.167 754.461,312.053 757.704,309.959 760.947,307.886 764.19,305.836 767.433,303.807 770.676,301.802 773.919,299.821 777.162,297.863 780.405,295.929 783.648,294.021 786.892,292.138 790.135,290.281 793.378,288.451 796.621,286.649 799.864,284.875 803.107,283.131 806.35,281.417 809.593,279.734 812.836,278.084 816.079,276.468 819.322,274.886 822.565,273.34 825.808,271.832 829.051,270.362 832.294,268.933 835.537,267.545 838.78,266.201 842.023,264.901 845.266,263.649 848.509,262.445 851.752,261.291 854.995,260.189 858.238,259.142 861.481,258.151 864.724,257.218 867.967,256.347 871.21,255.539 874.453,254.796 877.696,254.121 880.939,253.517 884.182,252.986 887.425,252.531 890.668,252.155 893.911,251.861 897.155,251.651 900.398,251.53 903.641,251.5 906.884,251.564 910.127,251.726 913.37,251.99 916.613,252.358 919.856,252.835 923.099,253.42 926.342,254.113 929.585,254.913 932.828,255.822 936.071,256.837 939.314,257.96 942.557,259.19 945.8,260.525 949.043,261.962 952.286,263.499 955.529,265.133 958.772,266.862 962.015,268.684 965.258,270.597 968.501,272.598 971.744,274.686 974.987,276.859 978.23,279.115 981.473,281.453 984.716,283.87 987.959,286.366 991.202,288.94 994.445,291.589 997.688,294.312 1000.93,297.11 1004.17,299.979 1007.42,302.921 1010.66,305.933 1013.9,309.015 1017.15,312.166 1020.39,315.386 1023.63,318.674 1026.88,322.029 1030.12,325.452 1033.36,328.942 1036.6,332.497 1039.85,336.118 1043.09,339.803 1046.33,343.55 1049.58,347.358 1052.82,351.224 1056.06,355.148 1059.31,359.127 1062.55,363.161 1065.79,367.248 1069.04,371.387 1072.28,375.576 1075.52,379.815 1078.76,384.103 1082.01,388.438 1085.25,392.82 1088.49,397.247 1091.74,401.719 1094.98,406.236 1098.22,410.796 1101.47,415.399 1104.71,420.043 1107.95,424.73 1111.19,429.458 1114.44,434.226 1117.68,439.035 1120.92,443.884 1124.17,448.772 1127.41,453.7 1130.65,458.668 1133.9,463.675 1137.14,468.721 1140.38,473.806 1143.62,478.93 1146.87,484.094 1150.11,489.297 1153.35,494.539 1156.6,499.821 1159.84,505.143 1163.08,510.506 1166.33,515.909 1169.57,521.353 1172.81,526.839 1176.06,532.366 1179.3,537.936 1182.54,543.549 1185.78,549.206 1189.03,554.905 1192.27,560.644 1195.51,566.423 1198.76,572.241 1202,578.095 1205.24,583.985 1208.49,589.909 1211.73,595.867 1214.97,601.857 1218.21,607.878 1221.46,613.929 1224.7,620.009 1227.94,626.117 1231.19,632.252 1234.43,638.413 1237.67,644.599 1240.92,650.807 1244.16,657.035 1247.4,663.278 1250.64,669.535 1253.89,675.803 1257.13,682.078 1260.37,688.357 1263.62,694.639 1266.86,700.919 1270.1,707.196 1273.35,713.465 1276.59,719.725 1279.83,725.973 1283.08,732.205 1286.32,738.419 1289.56,744.611 1292.8,750.78 1296.05,756.921 1299.29,763.033 1302.53,769.112 1305.78,775.155 1309.02,781.159 1312.26,787.121 1315.51,793.042 1318.75,798.921 1321.99,804.759 1325.23,810.555 1328.48,816.31 1331.72,822.023 1334.96,827.695 1338.21,833.325 1341.45,838.913 1344.69,844.459 1347.94,849.963 1351.18,855.425 1354.42,860.845 1357.66,866.221 1360.91,871.554 1364.15,876.844 1367.39,882.09 1370.64,887.292 1373.88,892.448 1377.12,897.56 1380.37,902.625 1383.61,907.644 1386.85,912.616 1390.1,917.54 1393.34,922.417 1396.58,927.246 1399.82,932.028 1403.07,936.762 1406.31,941.449 1409.55,946.089 1412.8,950.681 1416.04,955.225 1419.28,959.722 1422.53,964.171 1425.77,968.571 1429.01,972.923 1432.25,977.226 1435.5,981.479 1438.74,985.683 1441.98,989.836 1445.23,993.938 1448.47,997.988 1451.71,1001.99 1454.96,1005.93 1458.2,1009.82 1461.44,1013.66 1464.68,1017.44 1467.93,1021.16 1471.17,1024.83 1474.41,1028.44 1477.66,1031.98 1480.9,1035.47 1484.14,1038.9 1487.39,1042.26 1490.63,1045.55 1493.87,1048.78 1497.11,1051.94 1500.36,1055.03 1503.6,1058.05 1506.84,1061 1510.09,1063.87 1513.33,1066.67 1516.57,1069.39 1519.82,1072.03 1523.06,1074.6 1526.3,1077.08 1529.55,1079.48 1532.79,1081.79 1536.03,1084.02 1539.27,1086.16 1542.52,1088.21 1545.76,1090.17 1549,1092.05 1552.25,1093.84 1555.49,1095.56 1558.73,1097.2 1561.98,1098.77 1565.22,1100.27 1568.46,1101.71 1571.7,1103.08 1574.95,1104.39 1578.19,1105.63 1581.43,1106.83 1584.68,1107.97 1587.92,1109.05 1591.16,1110.09 1594.41,1111.08 1597.65,1112.02 1600.89,1112.92 1604.13,1113.78 1607.38,1114.6 1610.62,1115.38 1613.86,1116.13 1617.11,1116.84 1620.35,1117.52 1623.59,1118.17 1626.84,1118.79 1630.08,1119.39 1633.32,1119.96 1636.57,1120.5 1639.81,1121.02 1643.05,1121.52 1646.29,1122 1649.54,1122.46 1652.78,1122.91 1656.02,1123.33 1659.27,1123.74 1662.51,1124.14 1665.75,1124.52 1669,1124.9 1672.24,1125.26 1675.48,1125.61 1678.72,1125.95 1681.97,1126.28 1685.21,1126.61 1688.45,1126.92 1691.7,1127.24 1694.94,1127.54 1698.18,1127.84 1701.43,1128.14 1704.67,1128.43 1707.91,1128.72 1711.15,1129.01 1714.4,1129.3 1717.64,1129.58 1720.88,1129.87 1724.13,1130.15 1727.37,1130.43 1730.61,1130.71 1733.86,1130.99 1737.1,1131.27 1740.34,1131.56 1743.59,1131.84 1746.83,1132.12 1750.07,1132.41 1753.31,1132.69 1756.56,1132.98 1759.8,1133.26 1763.04,1133.55 1766.29,1133.84 1769.53,1134.13 1772.77,1134.42 1776.02,1134.71 1779.26,1134.99 1782.5,1135.28 1785.74,1135.57 1788.99,1135.86 1792.23,1136.15 1795.47,1136.43 1798.72,1136.71 1801.96,1136.99 1805.2,1137.27 1808.45,1137.54 1811.69,1137.81 1814.93,1138.08 1818.17,1138.33 1821.42,1138.59 1824.66,1138.83 1827.9,1139.07 1831.15,1139.3 1834.39,1139.52 1837.63,1139.72 1840.88,1139.92 1844.12,1140.11 1847.36,1140.28 1850.61,1140.44 1853.85,1140.58 1857.09,1140.7 1860.33,1140.81 1863.58,1140.9 1866.82,1140.96 1870.06,1141.01 1873.31,1141.03 1876.55,1141.03 1879.79,1141 1883.04,1140.94 1886.28,1140.86 1889.52,1140.74 1892.76,1140.59 1896.01,1140.4 1899.25,1140.18 1902.49,1139.92 1905.74,1139.62 1908.98,1139.28 1912.22,1138.89 1915.47,1138.46 1918.71,1137.98 1921.95,1137.44 1925.19,1136.85 1928.44,1136.21 1931.68,1135.51 1934.92,1134.74 1938.17,1133.92 1941.41,1133.02 1944.65,1132.05 1947.9,1131.01 1951.14,1129.9 1954.38,1128.71 1957.63,1127.43 1960.87,1126.07 1964.11,1124.61 1967.35,1123.07 1970.6,1121.44 1973.84,1119.72 1977.08,1117.92 1980.33,1116.04 1983.57,1114.08 1986.81,1112.05 1990.06,1109.95 1993.3,1107.79 1996.54,1105.56 1999.78,1103.27 2003.03,1100.92 2006.27,1098.51 2009.51,1096.06 2012.76,1093.55 2016,1090.99 2019.24,1088.39 2022.49,1085.74 2025.73,1083.06 2028.97,1080.33 2032.21,1077.57 2035.46,1074.77 2038.7,1071.94 2041.94,1069.08 2045.19,1066.2 2048.43,1063.28 2051.67,1060.34 2054.92,1057.38 2058.16,1054.4 2061.4,1051.4 2064.65,1048.38 2067.89,1045.35 2071.13,1042.3 2074.37,1039.24 2077.62,1036.17 2080.86,1033.09 2084.1,1030.01 2087.35,1026.92 2090.59,1023.82 2093.83,1020.72 2097.08,1017.62 2100.32,1014.51 2103.56,1011.41 2106.8,1008.31 2110.05,1005.22 2113.29,1002.13 2116.53,999.043 2119.78,995.966 2123.02,992.898 2126.26,989.84 2129.51,986.793 2132.75,983.758 2135.99,980.737 2139.23,977.73 2142.48,974.74 2145.72,971.766 2148.96,968.81 2152.21,965.873 2155.45,962.957 2158.69,960.062 2161.94,957.19 2165.18,954.341 2168.42,951.516 2171.67,948.717 2174.91,945.945 2178.15,943.201 2181.39,940.486 2184.64,937.8 2187.88,935.146 2191.12,932.524 2194.37,929.934 2197.61,927.377 2200.85,924.853 2204.1,922.361 2207.34,919.9 2210.58,917.471 2213.82,915.073 2217.07,912.705 2220.31,910.368 2223.55,908.06 2226.8,905.782 2230.04,903.534 2233.28,901.314 2236.53,899.123 2239.77,896.96 2243.01,894.826 2246.25,892.718 2249.5,890.639 2252.74,888.586 2255.98,886.56 2259.23,884.56 2262.47,882.586 2265.71,880.638 2268.96,878.715 2272.2,876.818 2275.44,874.946 2278.69,873.098 2281.93,871.274 2285.17,869.474 2288.41,867.698 2291.66,865.945 "/>
<path clip-path="url(#clip140)" d="M1953.46 302.578 L2280.8 302.578 L2280.8 95.2176 L1953.46 95.2176  Z" fill="#ffffff" fill-rule="evenodd" fill-opacity="1"/>
<polyline clip-path="url(#clip140)" style="stroke:#000000; stroke-linecap:round; stroke-linejoin:round; stroke-width:4; stroke-opacity:1; fill:none" points="1953.46,302.578 2280.8,302.578 2280.8,95.2176 1953.46,95.2176 1953.46,302.578 "/>
<polyline clip-path="url(#clip140)" style="stroke:#009af9; stroke-linecap:round; stroke-linejoin:round; stroke-width:4; stroke-opacity:1; fill:none" points="1977.44,147.058 2121.36,147.058 "/>
<path clip-path="url(#clip140)" d="M2152.76 131.051 L2152.76 138.412 L2161.53 138.412 L2161.53 141.722 L2152.76 141.722 L2152.76 155.796 Q2152.76 158.967 2153.61 159.87 Q2154.49 160.773 2157.16 160.773 L2161.53 160.773 L2161.53 164.338 L2157.16 164.338 Q2152.23 164.338 2150.35 162.509 Q2148.48 160.657 2148.48 155.796 L2148.48 141.722 L2145.35 141.722 L2145.35 138.412 L2148.48 138.412 L2148.48 131.051 L2152.76 131.051 Z" fill="#000000" fill-rule="nonzero" fill-opacity="1" /><path clip-path="url(#clip140)" d="M2182.16 142.393 Q2181.44 141.977 2180.58 141.791 Q2179.75 141.583 2178.73 141.583 Q2175.12 141.583 2173.17 143.944 Q2171.25 146.282 2171.25 150.68 L2171.25 164.338 L2166.97 164.338 L2166.97 138.412 L2171.25 138.412 L2171.25 142.44 Q2172.6 140.078 2174.75 138.944 Q2176.9 137.787 2179.98 137.787 Q2180.42 137.787 2180.95 137.856 Q2181.48 137.903 2182.13 138.018 L2182.16 142.393 Z" fill="#000000" fill-rule="nonzero" fill-opacity="1" /><path clip-path="url(#clip140)" d="M2186.18 154.106 L2186.18 138.412 L2190.44 138.412 L2190.44 153.944 Q2190.44 157.625 2191.88 159.476 Q2193.31 161.305 2196.18 161.305 Q2199.63 161.305 2201.62 159.106 Q2203.64 156.907 2203.64 153.111 L2203.64 138.412 L2207.9 138.412 L2207.9 164.338 L2203.64 164.338 L2203.64 160.356 Q2202.09 162.717 2200.03 163.875 Q2197.99 165.009 2195.28 165.009 Q2190.81 165.009 2188.5 162.231 Q2186.18 159.453 2186.18 154.106 M2196.9 137.787 L2196.9 137.787 Z" fill="#000000" fill-rule="nonzero" fill-opacity="1" /><path clip-path="url(#clip140)" d="M2220.88 131.051 L2220.88 138.412 L2229.66 138.412 L2229.66 141.722 L2220.88 141.722 L2220.88 155.796 Q2220.88 158.967 2221.74 159.87 Q2222.62 160.773 2225.28 160.773 L2229.66 160.773 L2229.66 164.338 L2225.28 164.338 Q2220.35 164.338 2218.48 162.509 Q2216.6 160.657 2216.6 155.796 L2216.6 141.722 L2213.48 141.722 L2213.48 138.412 L2216.6 138.412 L2216.6 131.051 L2220.88 131.051 Z" fill="#000000" fill-rule="nonzero" fill-opacity="1" /><path clip-path="url(#clip140)" d="M2256.81 148.689 L2256.81 164.338 L2252.55 164.338 L2252.55 148.828 Q2252.55 145.148 2251.11 143.319 Q2249.68 141.49 2246.81 141.49 Q2243.36 141.49 2241.37 143.69 Q2239.38 145.889 2239.38 149.685 L2239.38 164.338 L2235.1 164.338 L2235.1 128.319 L2239.38 128.319 L2239.38 142.44 Q2240.91 140.102 2242.97 138.944 Q2245.05 137.787 2247.76 137.787 Q2252.23 137.787 2254.52 140.565 Q2256.81 143.319 2256.81 148.689 Z" fill="#000000" fill-rule="nonzero" fill-opacity="1" /><circle clip-path="url(#clip140)" cx="2049.4" cy="198.898" r="20.48" fill="#e26f46" fill-rule="evenodd" fill-opacity="1" stroke="#000000" stroke-opacity="1" stroke-width="4.55111"/>
<path clip-path="url(#clip140)" d="M2164.26 194.187 L2164.26 180.159 L2168.52 180.159 L2168.52 216.178 L2164.26 216.178 L2164.26 212.289 Q2162.92 214.603 2160.86 215.738 Q2158.82 216.849 2155.95 216.849 Q2151.25 216.849 2148.29 213.099 Q2145.35 209.349 2145.35 203.238 Q2145.35 197.127 2148.29 193.377 Q2151.25 189.627 2155.95 189.627 Q2158.82 189.627 2160.86 190.761 Q2162.92 191.872 2164.26 194.187 M2149.75 203.238 Q2149.75 207.937 2151.67 210.622 Q2153.61 213.284 2156.99 213.284 Q2160.37 213.284 2162.32 210.622 Q2164.26 207.937 2164.26 203.238 Q2164.26 198.539 2162.32 195.877 Q2160.37 193.192 2156.99 193.192 Q2153.61 193.192 2151.67 195.877 Q2149.75 198.539 2149.75 203.238 Z" fill="#000000" fill-rule="nonzero" fill-opacity="1" /><path clip-path="url(#clip140)" d="M2189.08 203.145 Q2183.92 203.145 2181.92 204.326 Q2179.93 205.506 2179.93 208.354 Q2179.93 210.622 2181.42 211.965 Q2182.92 213.284 2185.49 213.284 Q2189.03 213.284 2191.16 210.784 Q2193.31 208.261 2193.31 204.094 L2193.31 203.145 L2189.08 203.145 M2197.57 201.386 L2197.57 216.178 L2193.31 216.178 L2193.31 212.242 Q2191.85 214.603 2189.68 215.738 Q2187.5 216.849 2184.36 216.849 Q2180.37 216.849 2178.01 214.627 Q2175.67 212.381 2175.67 208.631 Q2175.67 204.256 2178.59 202.034 Q2181.53 199.812 2187.34 199.812 L2193.31 199.812 L2193.31 199.395 Q2193.31 196.455 2191.37 194.858 Q2189.45 193.238 2185.95 193.238 Q2183.73 193.238 2181.62 193.77 Q2179.52 194.303 2177.57 195.367 L2177.57 191.432 Q2179.91 190.53 2182.11 190.09 Q2184.31 189.627 2186.39 189.627 Q2192.02 189.627 2194.79 192.543 Q2197.57 195.46 2197.57 201.386 Z" fill="#000000" fill-rule="nonzero" fill-opacity="1" /><path clip-path="url(#clip140)" d="M2210.56 182.891 L2210.56 190.252 L2219.33 190.252 L2219.33 193.562 L2210.56 193.562 L2210.56 207.636 Q2210.56 210.807 2211.42 211.71 Q2212.29 212.613 2214.96 212.613 L2219.33 212.613 L2219.33 216.178 L2214.96 216.178 Q2210.03 216.178 2208.15 214.349 Q2206.28 212.497 2206.28 207.636 L2206.28 193.562 L2203.15 193.562 L2203.15 190.252 L2206.28 190.252 L2206.28 182.891 L2210.56 182.891 Z" fill="#000000" fill-rule="nonzero" fill-opacity="1" /><path clip-path="url(#clip140)" d="M2236.72 203.145 Q2231.55 203.145 2229.56 204.326 Q2227.57 205.506 2227.57 208.354 Q2227.57 210.622 2229.05 211.965 Q2230.56 213.284 2233.13 213.284 Q2236.67 213.284 2238.8 210.784 Q2240.95 208.261 2240.95 204.094 L2240.95 203.145 L2236.72 203.145 M2245.21 201.386 L2245.21 216.178 L2240.95 216.178 L2240.95 212.242 Q2239.49 214.603 2237.32 215.738 Q2235.14 216.849 2231.99 216.849 Q2228.01 216.849 2225.65 214.627 Q2223.31 212.381 2223.31 208.631 Q2223.31 204.256 2226.23 202.034 Q2229.17 199.812 2234.98 199.812 L2240.95 199.812 L2240.95 199.395 Q2240.95 196.455 2239.01 194.858 Q2237.09 193.238 2233.59 193.238 Q2231.37 193.238 2229.26 193.77 Q2227.16 194.303 2225.21 195.367 L2225.21 191.432 Q2227.55 190.53 2229.75 190.09 Q2231.95 189.627 2234.03 189.627 Q2239.66 189.627 2242.43 192.543 Q2245.21 195.46 2245.21 201.386 Z" fill="#000000" fill-rule="nonzero" fill-opacity="1" /><polyline clip-path="url(#clip140)" style="stroke:#3da44d; stroke-linecap:round; stroke-linejoin:round; stroke-width:8; stroke-opacity:1; fill:none" points="1977.44,250.738 2121.36,250.738 "/>
<path clip-path="url(#clip140)" d="M2170.91 263.087 L2170.91 253.805 L2163.27 253.805 L2163.27 249.962 L2175.54 249.962 L2175.54 264.8 Q2172.83 266.721 2169.56 267.717 Q2166.3 268.689 2162.6 268.689 Q2154.49 268.689 2149.91 263.967 Q2145.35 259.221 2145.35 250.772 Q2145.35 242.3 2149.91 237.578 Q2154.49 232.833 2162.6 232.833 Q2165.98 232.833 2169.01 233.666 Q2172.06 234.499 2174.63 236.12 L2174.63 241.096 Q2172.04 238.897 2169.12 237.786 Q2166.21 236.675 2162.99 236.675 Q2156.65 236.675 2153.45 240.217 Q2150.28 243.758 2150.28 250.772 Q2150.28 257.763 2153.45 261.305 Q2156.65 264.846 2162.99 264.846 Q2165.47 264.846 2167.41 264.43 Q2169.36 263.99 2170.91 263.087 Z" fill="#000000" fill-rule="nonzero" fill-opacity="1" /><path clip-path="url(#clip140)" d="M2188.75 237.3 L2188.75 250.286 L2194.63 250.286 Q2197.9 250.286 2199.68 248.596 Q2201.46 246.907 2201.46 243.782 Q2201.46 240.68 2199.68 238.99 Q2197.9 237.3 2194.63 237.3 L2188.75 237.3 M2184.08 233.458 L2194.63 233.458 Q2200.44 233.458 2203.41 236.096 Q2206.39 238.712 2206.39 243.782 Q2206.39 248.897 2203.41 251.513 Q2200.44 254.129 2194.63 254.129 L2188.75 254.129 L2188.75 268.018 L2184.08 268.018 L2184.08 233.458 Z" fill="#000000" fill-rule="nonzero" fill-opacity="1" /></svg>
