<?xml version="1.0" encoding="utf-8"?>
<svg xmlns="http://www.w3.org/2000/svg" xmlns:xlink="http://www.w3.org/1999/xlink" width="600" height="400" viewBox="0 0 2400 1600">
<defs>
  <clipPath id="clip080">
    <rect x="0" y="0" width="2400" height="1600"/>
  </clipPath>
</defs>
<path clip-path="url(#clip080)" d="M0 1600 L2400 1600 L2400 0 L0 0  Z" fill="#ffffff" fill-rule="evenodd" fill-opacity="1"/>
<defs>
  <clipPath id="clip081">
    <rect x="480" y="0" width="1681" height="1600"/>
  </clipPath>
</defs>
<path clip-path="url(#clip080)" d="M193.936 1486.45 L2352.76 1486.45 L2352.76 47.2441 L193.936 47.2441  Z" fill="#ffffff" fill-rule="evenodd" fill-opacity="1"/>
<defs>
  <clipPath id="clip082">
    <rect x="193" y="47" width="2160" height="1440"/>
  </clipPath>
</defs>
<polyline clip-path="url(#clip082)" style="stroke:#000000; stroke-linecap:round; stroke-linejoin:round; stroke-width:2; stroke-opacity:0.1; fill:none" points="255.035,1486.45 255.035,47.2441 "/>
<polyline clip-path="url(#clip082)" style="stroke:#000000; stroke-linecap:round; stroke-linejoin:round; stroke-width:2; stroke-opacity:0.1; fill:none" points="579.338,1486.45 579.338,47.2441 "/>
<polyline clip-path="url(#clip082)" style="stroke:#000000; stroke-linecap:round; stroke-linejoin:round; stroke-width:2; stroke-opacity:0.1; fill:none" points="903.641,1486.45 903.641,47.2441 "/>
<polyline clip-path="url(#clip082)" style="stroke:#000000; stroke-linecap:round; stroke-linejoin:round; stroke-width:2; stroke-opacity:0.1; fill:none" points="1227.94,1486.45 1227.94,47.2441 "/>
<polyline clip-path="url(#clip082)" style="stroke:#000000; stroke-linecap:round; stroke-linejoin:round; stroke-width:2; stroke-opacity:0.1; fill:none" points="1552.25,1486.45 1552.25,47.2441 "/>
<polyline clip-path="url(#clip082)" style="stroke:#000000; stroke-linecap:round; stroke-linejoin:round; stroke-width:2; stroke-opacity:0.1; fill:none" points="1876.55,1486.45 1876.55,47.2441 "/>
<polyline clip-path="url(#clip082)" style="stroke:#000000; stroke-linecap:round; stroke-linejoin:round; stroke-width:2; stroke-opacity:0.1; fill:none" points="2200.85,1486.45 2200.85,47.2441 "/>
<polyline clip-path="url(#clip082)" style="stroke:#000000; stroke-linecap:round; stroke-linejoin:round; stroke-width:2; stroke-opacity:0.1; fill:none" points="193.936,1445.72 2352.76,1445.72 "/>
<polyline clip-path="url(#clip082)" style="stroke:#000000; stroke-linecap:round; stroke-linejoin:round; stroke-width:2; stroke-opacity:0.1; fill:none" points="193.936,1121.73 2352.76,1121.73 "/>
<polyline clip-path="url(#clip082)" style="stroke:#000000; stroke-linecap:round; stroke-linejoin:round; stroke-width:2; stroke-opacity:0.1; fill:none" points="193.936,797.736 2352.76,797.736 "/>
<polyline clip-path="url(#clip082)" style="stroke:#000000; stroke-linecap:round; stroke-linejoin:round; stroke-width:2; stroke-opacity:0.1; fill:none" points="193.936,473.745 2352.76,473.745 "/>
<polyline clip-path="url(#clip082)" style="stroke:#000000; stroke-linecap:round; stroke-linejoin:round; stroke-width:2; stroke-opacity:0.1; fill:none" points="193.936,149.755 2352.76,149.755 "/>
<polyline clip-path="url(#clip080)" style="stroke:#000000; stroke-linecap:round; stroke-linejoin:round; stroke-width:4; stroke-opacity:1; fill:none" points="193.936,1486.45 2352.76,1486.45 "/>
<polyline clip-path="url(#clip080)" style="stroke:#000000; stroke-linecap:round; stroke-linejoin:round; stroke-width:4; stroke-opacity:1; fill:none" points="255.035,1486.45 255.035,1467.55 "/>
<polyline clip-path="url(#clip080)" style="stroke:#000000; stroke-linecap:round; stroke-linejoin:round; stroke-width:4; stroke-opacity:1; fill:none" points="579.338,1486.45 579.338,1467.55 "/>
<polyline clip-path="url(#clip080)" style="stroke:#000000; stroke-linecap:round; stroke-linejoin:round; stroke-width:4; stroke-opacity:1; fill:none" points="903.641,1486.45 903.641,1467.55 "/>
<polyline clip-path="url(#clip080)" style="stroke:#000000; stroke-linecap:round; stroke-linejoin:round; stroke-width:4; stroke-opacity:1; fill:none" points="1227.94,1486.45 1227.94,1467.55 "/>
<polyline clip-path="url(#clip080)" style="stroke:#000000; stroke-linecap:round; stroke-linejoin:round; stroke-width:4; stroke-opacity:1; fill:none" points="1552.25,1486.45 1552.25,1467.55 "/>
<polyline clip-path="url(#clip080)" style="stroke:#000000; stroke-linecap:round; stroke-linejoin:round; stroke-width:4; stroke-opacity:1; fill:none" points="1876.55,1486.45 1876.55,1467.55 "/>
<polyline clip-path="url(#clip080)" style="stroke:#000000; stroke-linecap:round; stroke-linejoin:round; stroke-width:4; stroke-opacity:1; fill:none" points="2200.85,1486.45 2200.85,1467.55 "/>
<path clip-path="url(#clip080)" d="M255.035 1517.37 Q251.424 1517.37 249.595 1520.93 Q247.789 1524.47 247.789 1531.6 Q247.789 1538.71 249.595 1542.27 Q251.424 1545.82 255.035 1545.82 Q258.669 1545.82 260.474 1542.27 Q262.303 1538.71 262.303 1531.6 Q262.303 1524.47 260.474 1520.93 Q258.669 1517.37 255.035 1517.37 M255.035 1513.66 Q260.845 1513.66 263.9 1518.27 Q266.979 1522.85 266.979 1531.6 Q266.979 1540.33 263.9 1544.94 Q260.845 1549.52 255.035 1549.52 Q249.225 1549.52 246.146 1544.94 Q243.09 1540.33 243.09 1531.6 Q243.09 1522.85 246.146 1518.27 Q249.225 1513.66 255.035 1513.66 Z" fill="#000000" fill-rule="nonzero" fill-opacity="1" /><path clip-path="url(#clip080)" d="M569.72 1544.91 L577.358 1544.91 L577.358 1518.55 L569.048 1520.21 L569.048 1515.95 L577.312 1514.29 L581.988 1514.29 L581.988 1544.91 L589.627 1544.91 L589.627 1548.85 L569.72 1548.85 L569.72 1544.91 Z" fill="#000000" fill-rule="nonzero" fill-opacity="1" /><path clip-path="url(#clip080)" d="M898.293 1544.91 L914.613 1544.91 L914.613 1548.85 L892.668 1548.85 L892.668 1544.91 Q895.33 1542.16 899.914 1537.53 Q904.52 1532.88 905.701 1531.53 Q907.946 1529.01 908.826 1527.27 Q909.729 1525.51 909.729 1523.82 Q909.729 1521.07 907.784 1519.33 Q905.863 1517.6 902.761 1517.6 Q900.562 1517.6 898.108 1518.36 Q895.678 1519.13 892.9 1520.68 L892.9 1515.95 Q895.724 1514.82 898.178 1514.24 Q900.631 1513.66 902.668 1513.66 Q908.039 1513.66 911.233 1516.35 Q914.428 1519.03 914.428 1523.52 Q914.428 1525.65 913.617 1527.57 Q912.83 1529.47 910.724 1532.07 Q910.145 1532.74 907.043 1535.95 Q903.942 1539.15 898.293 1544.91 Z" fill="#000000" fill-rule="nonzero" fill-opacity="1" /><path clip-path="url(#clip080)" d="M1232.19 1530.21 Q1235.55 1530.93 1237.42 1533.2 Q1239.32 1535.47 1239.32 1538.8 Q1239.32 1543.92 1235.8 1546.72 Q1232.28 1549.52 1225.8 1549.52 Q1223.63 1549.52 1221.31 1549.08 Q1219.02 1548.66 1216.57 1547.81 L1216.57 1543.29 Q1218.51 1544.43 1220.83 1545.01 Q1223.14 1545.58 1225.66 1545.58 Q1230.06 1545.58 1232.35 1543.85 Q1234.67 1542.11 1234.67 1538.8 Q1234.67 1535.75 1232.52 1534.03 Q1230.39 1532.3 1226.57 1532.3 L1222.54 1532.3 L1222.54 1528.45 L1226.75 1528.45 Q1230.2 1528.45 1232.03 1527.09 Q1233.86 1525.7 1233.86 1523.11 Q1233.86 1520.45 1231.96 1519.03 Q1230.08 1517.6 1226.57 1517.6 Q1224.64 1517.6 1222.45 1518.01 Q1220.25 1518.43 1217.61 1519.31 L1217.61 1515.14 Q1220.27 1514.4 1222.58 1514.03 Q1224.92 1513.66 1226.98 1513.66 Q1232.31 1513.66 1235.41 1516.09 Q1238.51 1518.5 1238.51 1522.62 Q1238.51 1525.49 1236.87 1527.48 Q1235.22 1529.45 1232.19 1530.21 Z" fill="#000000" fill-rule="nonzero" fill-opacity="1" /><path clip-path="url(#clip080)" d="M1555.26 1518.36 L1543.45 1536.81 L1555.26 1536.81 L1555.26 1518.36 M1554.03 1514.29 L1559.91 1514.29 L1559.91 1536.81 L1564.84 1536.81 L1564.84 1540.7 L1559.91 1540.7 L1559.91 1548.85 L1555.26 1548.85 L1555.26 1540.7 L1539.65 1540.7 L1539.65 1536.19 L1554.03 1514.29 Z" fill="#000000" fill-rule="nonzero" fill-opacity="1" /><path clip-path="url(#clip080)" d="M1866.83 1514.29 L1885.18 1514.29 L1885.18 1518.22 L1871.11 1518.22 L1871.11 1526.7 Q1872.13 1526.35 1873.15 1526.19 Q1874.17 1526 1875.18 1526 Q1880.97 1526 1884.35 1529.17 Q1887.73 1532.34 1887.73 1537.76 Q1887.73 1543.34 1884.26 1546.44 Q1880.79 1549.52 1874.47 1549.52 Q1872.29 1549.52 1870.02 1549.15 Q1867.78 1548.78 1865.37 1548.04 L1865.37 1543.34 Q1867.45 1544.47 1869.67 1545.03 Q1871.9 1545.58 1874.37 1545.58 Q1878.38 1545.58 1880.72 1543.48 Q1883.05 1541.37 1883.05 1537.76 Q1883.05 1534.15 1880.72 1532.04 Q1878.38 1529.94 1874.37 1529.94 Q1872.5 1529.94 1870.62 1530.35 Q1868.77 1530.77 1866.83 1531.65 L1866.83 1514.29 Z" fill="#000000" fill-rule="nonzero" fill-opacity="1" /><path clip-path="url(#clip080)" d="M2201.26 1529.7 Q2198.11 1529.7 2196.26 1531.86 Q2194.43 1534.01 2194.43 1537.76 Q2194.43 1541.49 2196.26 1543.66 Q2198.11 1545.82 2201.26 1545.82 Q2204.41 1545.82 2206.23 1543.66 Q2208.09 1541.49 2208.09 1537.76 Q2208.09 1534.01 2206.23 1531.86 Q2204.41 1529.7 2201.26 1529.7 M2210.54 1515.05 L2210.54 1519.31 Q2208.78 1518.48 2206.98 1518.04 Q2205.19 1517.6 2203.43 1517.6 Q2198.8 1517.6 2196.35 1520.72 Q2193.92 1523.85 2193.57 1530.17 Q2194.94 1528.15 2197 1527.09 Q2199.06 1526 2201.54 1526 Q2206.74 1526 2209.75 1529.17 Q2212.79 1532.32 2212.79 1537.76 Q2212.79 1543.08 2209.64 1546.3 Q2206.49 1549.52 2201.26 1549.52 Q2195.26 1549.52 2192.09 1544.94 Q2188.92 1540.33 2188.92 1531.6 Q2188.92 1523.41 2192.81 1518.55 Q2196.7 1513.66 2203.25 1513.66 Q2205.01 1513.66 2206.79 1514.01 Q2208.6 1514.36 2210.54 1515.05 Z" fill="#000000" fill-rule="nonzero" fill-opacity="1" /><polyline clip-path="url(#clip080)" style="stroke:#000000; stroke-linecap:round; stroke-linejoin:round; stroke-width:4; stroke-opacity:1; fill:none" points="193.936,1486.45 193.936,47.2441 "/>
<polyline clip-path="url(#clip080)" style="stroke:#000000; stroke-linecap:round; stroke-linejoin:round; stroke-width:4; stroke-opacity:1; fill:none" points="193.936,1445.72 212.834,1445.72 "/>
<polyline clip-path="url(#clip080)" style="stroke:#000000; stroke-linecap:round; stroke-linejoin:round; stroke-width:4; stroke-opacity:1; fill:none" points="193.936,1121.73 212.834,1121.73 "/>
<polyline clip-path="url(#clip080)" style="stroke:#000000; stroke-linecap:round; stroke-linejoin:round; stroke-width:4; stroke-opacity:1; fill:none" points="193.936,797.736 212.834,797.736 "/>
<polyline clip-path="url(#clip080)" style="stroke:#000000; stroke-linecap:round; stroke-linejoin:round; stroke-width:4; stroke-opacity:1; fill:none" points="193.936,473.745 212.834,473.745 "/>
<polyline clip-path="url(#clip080)" style="stroke:#000000; stroke-linecap:round; stroke-linejoin:round; stroke-width:4; stroke-opacity:1; fill:none" points="193.936,149.755 212.834,149.755 "/>
<path clip-path="url(#clip080)" d="M50.9921 1446.17 L80.6679 1446.17 L80.6679 1450.1 L50.9921 1450.1 L50.9921 1446.17 Z" fill="#000000" fill-rule="nonzero" fill-opacity="1" /><path clip-path="url(#clip080)" d="M91.5706 1459.06 L99.2095 1459.06 L99.2095 1432.7 L90.8993 1434.36 L90.8993 1430.1 L99.1632 1428.44 L103.839 1428.44 L103.839 1459.06 L111.478 1459.06 L111.478 1463 L91.5706 1463 L91.5706 1459.06 Z" fill="#000000" fill-rule="nonzero" fill-opacity="1" /><path clip-path="url(#clip080)" d="M120.922 1457.12 L125.807 1457.12 L125.807 1463 L120.922 1463 L120.922 1457.12 Z" fill="#000000" fill-rule="nonzero" fill-opacity="1" /><path clip-path="url(#clip080)" d="M145.992 1431.52 Q142.381 1431.52 140.552 1435.08 Q138.746 1438.62 138.746 1445.75 Q138.746 1452.86 140.552 1456.42 Q142.381 1459.97 145.992 1459.97 Q149.626 1459.97 151.431 1456.42 Q153.26 1452.86 153.26 1445.75 Q153.26 1438.62 151.431 1435.08 Q149.626 1431.52 145.992 1431.52 M145.992 1427.81 Q151.802 1427.81 154.857 1432.42 Q157.936 1437 157.936 1445.75 Q157.936 1454.48 154.857 1459.09 Q151.802 1463.67 145.992 1463.67 Q140.181 1463.67 137.103 1459.09 Q134.047 1454.48 134.047 1445.75 Q134.047 1437 137.103 1432.42 Q140.181 1427.81 145.992 1427.81 Z" fill="#000000" fill-rule="nonzero" fill-opacity="1" /><path clip-path="url(#clip080)" d="M51.9875 1122.18 L81.6633 1122.18 L81.6633 1126.11 L51.9875 1126.11 L51.9875 1122.18 Z" fill="#000000" fill-rule="nonzero" fill-opacity="1" /><path clip-path="url(#clip080)" d="M101.756 1107.53 Q98.1447 1107.53 96.316 1111.09 Q94.5104 1114.63 94.5104 1121.76 Q94.5104 1128.87 96.316 1132.43 Q98.1447 1135.97 101.756 1135.97 Q105.39 1135.97 107.196 1132.43 Q109.024 1128.87 109.024 1121.76 Q109.024 1114.63 107.196 1111.09 Q105.39 1107.53 101.756 1107.53 M101.756 1103.82 Q107.566 1103.82 110.621 1108.43 Q113.7 1113.01 113.7 1121.76 Q113.7 1130.49 110.621 1135.09 Q107.566 1139.68 101.756 1139.68 Q95.9456 1139.68 92.8669 1135.09 Q89.8114 1130.49 89.8114 1121.76 Q89.8114 1113.01 92.8669 1108.43 Q95.9456 1103.82 101.756 1103.82 Z" fill="#000000" fill-rule="nonzero" fill-opacity="1" /><path clip-path="url(#clip080)" d="M121.918 1133.13 L126.802 1133.13 L126.802 1139.01 L121.918 1139.01 L121.918 1133.13 Z" fill="#000000" fill-rule="nonzero" fill-opacity="1" /><path clip-path="url(#clip080)" d="M137.033 1104.45 L155.39 1104.45 L155.39 1108.38 L141.316 1108.38 L141.316 1116.85 Q142.334 1116.51 143.353 1116.34 Q144.371 1116.16 145.39 1116.16 Q151.177 1116.16 154.556 1119.33 Q157.936 1122.5 157.936 1127.92 Q157.936 1133.5 154.464 1136.6 Q150.992 1139.68 144.672 1139.68 Q142.496 1139.68 140.228 1139.31 Q137.982 1138.94 135.575 1138.2 L135.575 1133.5 Q137.658 1134.63 139.881 1135.19 Q142.103 1135.74 144.58 1135.74 Q148.584 1135.74 150.922 1133.64 Q153.26 1131.53 153.26 1127.92 Q153.26 1124.31 150.922 1122.2 Q148.584 1120.09 144.58 1120.09 Q142.705 1120.09 140.83 1120.51 Q138.978 1120.93 137.033 1121.81 L137.033 1104.45 Z" fill="#000000" fill-rule="nonzero" fill-opacity="1" /><path clip-path="url(#clip080)" d="M100.76 783.535 Q97.1493 783.535 95.3206 787.1 Q93.515 790.641 93.515 797.771 Q93.515 804.877 95.3206 808.442 Q97.1493 811.984 100.76 811.984 Q104.395 811.984 106.2 808.442 Q108.029 804.877 108.029 797.771 Q108.029 790.641 106.2 787.1 Q104.395 783.535 100.76 783.535 M100.76 779.831 Q106.571 779.831 109.626 784.438 Q112.705 789.021 112.705 797.771 Q112.705 806.498 109.626 811.104 Q106.571 815.687 100.76 815.687 Q94.9502 815.687 91.8715 811.104 Q88.816 806.498 88.816 797.771 Q88.816 789.021 91.8715 784.438 Q94.9502 779.831 100.76 779.831 Z" fill="#000000" fill-rule="nonzero" fill-opacity="1" /><path clip-path="url(#clip080)" d="M120.922 809.137 L125.807 809.137 L125.807 815.016 L120.922 815.016 L120.922 809.137 Z" fill="#000000" fill-rule="nonzero" fill-opacity="1" /><path clip-path="url(#clip080)" d="M145.992 783.535 Q142.381 783.535 140.552 787.1 Q138.746 790.641 138.746 797.771 Q138.746 804.877 140.552 808.442 Q142.381 811.984 145.992 811.984 Q149.626 811.984 151.431 808.442 Q153.26 804.877 153.26 797.771 Q153.26 790.641 151.431 787.1 Q149.626 783.535 145.992 783.535 M145.992 779.831 Q151.802 779.831 154.857 784.438 Q157.936 789.021 157.936 797.771 Q157.936 806.498 154.857 811.104 Q151.802 815.687 145.992 815.687 Q140.181 815.687 137.103 811.104 Q134.047 806.498 134.047 797.771 Q134.047 789.021 137.103 784.438 Q140.181 779.831 145.992 779.831 Z" fill="#000000" fill-rule="nonzero" fill-opacity="1" /><path clip-path="url(#clip080)" d="M101.756 459.544 Q98.1447 459.544 96.316 463.109 Q94.5104 466.651 94.5104 473.78 Q94.5104 480.887 96.316 484.451 Q98.1447 487.993 101.756 487.993 Q105.39 487.993 107.196 484.451 Q109.024 480.887 109.024 473.78 Q109.024 466.651 107.196 463.109 Q105.39 459.544 101.756 459.544 M101.756 455.84 Q107.566 455.84 110.621 460.447 Q113.7 465.03 113.7 473.78 Q113.7 482.507 110.621 487.113 Q107.566 491.697 101.756 491.697 Q95.9456 491.697 92.8669 487.113 Q89.8114 482.507 89.8114 473.78 Q89.8114 465.03 92.8669 460.447 Q95.9456 455.84 101.756 455.84 Z" fill="#000000" fill-rule="nonzero" fill-opacity="1" /><path clip-path="url(#clip080)" d="M121.918 485.146 L126.802 485.146 L126.802 491.025 L121.918 491.025 L121.918 485.146 Z" fill="#000000" fill-rule="nonzero" fill-opacity="1" /><path clip-path="url(#clip080)" d="M137.033 456.465 L155.39 456.465 L155.39 460.401 L141.316 460.401 L141.316 468.873 Q142.334 468.526 143.353 468.364 Q144.371 468.178 145.39 468.178 Q151.177 468.178 154.556 471.35 Q157.936 474.521 157.936 479.938 Q157.936 485.516 154.464 488.618 Q150.992 491.697 144.672 491.697 Q142.496 491.697 140.228 491.326 Q137.982 490.956 135.575 490.215 L135.575 485.516 Q137.658 486.651 139.881 487.206 Q142.103 487.762 144.58 487.762 Q148.584 487.762 150.922 485.655 Q153.26 483.549 153.26 479.938 Q153.26 476.326 150.922 474.22 Q148.584 472.114 144.58 472.114 Q142.705 472.114 140.83 472.53 Q138.978 472.947 137.033 473.826 L137.033 456.465 Z" fill="#000000" fill-rule="nonzero" fill-opacity="1" /><path clip-path="url(#clip080)" d="M91.5706 163.1 L99.2095 163.1 L99.2095 136.734 L90.8993 138.401 L90.8993 134.141 L99.1632 132.475 L103.839 132.475 L103.839 163.1 L111.478 163.1 L111.478 167.035 L91.5706 167.035 L91.5706 163.1 Z" fill="#000000" fill-rule="nonzero" fill-opacity="1" /><path clip-path="url(#clip080)" d="M120.922 161.155 L125.807 161.155 L125.807 167.035 L120.922 167.035 L120.922 161.155 Z" fill="#000000" fill-rule="nonzero" fill-opacity="1" /><path clip-path="url(#clip080)" d="M145.992 135.553 Q142.381 135.553 140.552 139.118 Q138.746 142.66 138.746 149.79 Q138.746 156.896 140.552 160.461 Q142.381 164.002 145.992 164.002 Q149.626 164.002 151.431 160.461 Q153.26 156.896 153.26 149.79 Q153.26 142.66 151.431 139.118 Q149.626 135.553 145.992 135.553 M145.992 131.85 Q151.802 131.85 154.857 136.456 Q157.936 141.04 157.936 149.79 Q157.936 158.516 154.857 163.123 Q151.802 167.706 145.992 167.706 Q140.181 167.706 137.103 163.123 Q134.047 158.516 134.047 149.79 Q134.047 141.04 137.103 136.456 Q140.181 131.85 145.992 131.85 Z" fill="#000000" fill-rule="nonzero" fill-opacity="1" /><polyline clip-path="url(#clip082)" style="stroke:#009af9; stroke-linecap:round; stroke-linejoin:round; stroke-width:4; stroke-opacity:1; fill:none" points="255.035,797.736 258.278,791.256 261.521,784.777 264.764,778.3 268.007,771.824 271.25,765.351 274.493,758.881 277.736,752.415 280.979,745.953 284.222,739.497 287.465,733.046 290.708,726.602 293.951,720.165 297.194,713.736 300.437,707.315 303.68,700.903 306.923,694.501 310.166,688.109 313.409,681.728 316.652,675.359 319.895,669.002 323.138,662.658 326.381,656.327 329.624,650.011 332.867,643.709 336.11,637.423 339.353,631.153 342.596,624.899 345.84,618.663 349.083,612.444 352.326,606.245 355.569,600.064 358.812,593.903 362.055,587.762 365.298,581.643 368.541,575.545 371.784,569.469 375.027,563.416 378.27,557.387 381.513,551.381 384.756,545.4 387.999,539.445 391.242,533.515 394.485,527.612 397.728,521.735 400.971,515.887 404.214,510.066 407.457,504.274 410.7,498.512 413.943,492.779 417.186,487.077 420.429,481.406 423.672,475.767 426.915,470.16 430.158,464.586 433.401,459.045 436.644,453.537 439.887,448.065 443.13,442.627 446.373,437.225 449.616,431.858 452.859,426.529 456.103,421.236 459.346,415.981 462.589,410.765 465.832,405.587 469.075,400.448 472.318,395.349 475.561,390.29 478.804,385.272 482.047,380.295 485.29,375.36 488.533,370.467 491.776,365.617 495.019,360.81 498.262,356.047 501.505,351.328 504.748,346.653 507.991,342.024 511.234,337.44 514.477,332.903 517.72,328.412 520.963,323.967 524.206,319.57 527.449,315.221 530.692,310.92 533.935,306.668 537.178,302.465 540.421,298.312 543.664,294.208 546.907,290.155 550.15,286.152 553.393,282.201 556.636,278.301 559.879,274.454 563.122,270.658 566.366,266.915 569.609,263.226 572.852,259.589 576.095,256.007 579.338,252.479 582.581,249.005 585.824,245.586 589.067,242.222 592.31,238.914 595.553,235.662 598.796,232.466 602.039,229.327 605.282,226.244 608.525,223.218 611.768,220.25 615.011,217.34 618.254,214.488 621.497,211.694 624.74,208.959 627.983,206.282 631.226,203.665 634.469,201.107 637.712,198.609 640.955,196.17 644.198,193.792 647.441,191.474 650.684,189.217 653.927,187.021 657.17,184.886 660.413,182.812 663.656,180.799 666.899,178.849 670.142,176.96 673.385,175.133 676.629,173.368 679.872,171.666 683.115,170.027 686.358,168.45 689.601,166.936 692.844,165.486 696.087,164.098 699.33,162.774 702.573,161.513 705.816,160.316 709.059,159.183 712.302,158.114 715.545,157.108 718.788,156.167 722.031,155.29 725.274,154.477 728.517,153.728 731.76,153.044 735.003,152.424 738.246,151.869 741.489,151.378 744.732,150.952 747.975,150.591 751.218,150.294 754.461,150.062 757.704,149.895 760.947,149.793 764.19,149.755 767.433,149.782 770.676,149.874 773.919,150.031 777.162,150.253 780.405,150.539 783.648,150.89 786.892,151.306 790.135,151.786 793.378,152.331 796.621,152.941 799.864,153.615 803.107,154.353 806.35,155.156 809.593,156.023 812.836,156.954 816.079,157.949 819.322,159.009 822.565,160.132 825.808,161.318 829.051,162.569 832.294,163.883 835.537,165.26 838.78,166.701 842.023,168.205 845.266,169.772 848.509,171.401 851.752,173.093 854.995,174.848 858.238,176.665 861.481,178.544 864.724,180.485 867.967,182.487 871.21,184.551 874.453,186.677 877.696,188.863 880.939,191.111 884.182,193.419 887.425,195.788 890.668,198.216 893.911,200.705 897.155,203.253 900.398,205.861 903.641,208.528 906.884,211.254 910.127,214.039 913.37,216.882 916.613,219.783 919.856,222.742 923.099,225.758 926.342,228.832 929.585,231.962 932.828,235.149 936.071,238.393 939.314,241.692 942.557,245.047 945.8,248.457 949.043,251.922 952.286,255.441 955.529,259.015 958.772,262.643 962.015,266.324 965.258,270.058 968.501,273.846 971.744,277.685 974.987,281.577 978.23,285.52 981.473,289.514 984.716,293.559 987.959,297.655 991.202,301.8 994.445,305.996 997.688,310.24 1000.93,314.533 1004.17,318.875 1007.42,323.264 1010.66,327.701 1013.9,332.184 1017.15,336.715 1020.39,341.291 1023.63,345.913 1026.88,350.58 1030.12,355.292 1033.36,360.049 1036.6,364.849 1039.85,369.692 1043.09,374.578 1046.33,379.506 1049.58,384.477 1052.82,389.488 1056.06,394.54 1059.31,399.633 1062.55,404.766 1065.79,409.937 1069.04,415.148 1072.28,420.397 1075.52,425.683 1078.76,431.007 1082.01,436.368 1085.25,441.764 1088.49,447.196 1091.74,452.663 1094.98,458.165 1098.22,463.701 1101.47,469.27 1104.71,474.872 1107.95,480.506 1111.19,486.172 1114.44,491.869 1117.68,497.597 1120.92,503.355 1124.17,509.142 1127.41,514.958 1130.65,520.802 1133.9,526.674 1137.14,532.573 1140.38,538.499 1143.62,544.45 1146.87,550.427 1150.11,556.429 1153.35,562.454 1156.6,568.503 1159.84,574.576 1163.08,580.67 1166.33,586.786 1169.57,592.924 1172.81,599.081 1176.06,605.259 1179.3,611.456 1182.54,617.671 1185.78,623.905 1189.03,630.156 1192.27,636.423 1195.51,642.707 1198.76,649.006 1202,655.32 1205.24,661.649 1208.49,667.991 1211.73,674.346 1214.97,680.713 1218.21,687.092 1221.46,693.482 1224.7,699.883 1227.94,706.293 1231.19,712.712 1234.43,719.14 1237.67,725.576 1240.92,732.019 1244.16,738.469 1247.4,744.924 1250.64,751.385 1253.89,757.851 1257.13,764.32 1260.37,770.793 1263.62,777.268 1266.86,783.746 1270.1,790.225 1273.35,796.704 1276.59,803.184 1279.83,809.663 1283.08,816.141 1286.32,822.617 1289.56,829.091 1292.8,835.562 1296.05,842.028 1299.29,848.491 1302.53,854.948 1305.78,861.399 1309.02,867.845 1312.26,874.283 1315.51,880.713 1318.75,887.135 1321.99,893.549 1325.23,899.952 1328.48,906.346 1331.72,912.729 1334.96,919.1 1338.21,925.459 1341.45,931.805 1344.69,938.138 1347.94,944.456 1351.18,950.76 1354.42,957.049 1357.66,963.322 1360.91,969.578 1364.15,975.817 1367.39,982.039 1370.64,988.242 1373.88,994.425 1377.12,1000.59 1380.37,1006.73 1383.61,1012.86 1386.85,1018.96 1390.1,1025.04 1393.34,1031.09 1396.58,1037.13 1399.82,1043.14 1403.07,1049.12 1406.31,1055.08 1409.55,1061.01 1412.8,1066.92 1416.04,1072.8 1419.28,1078.66 1422.53,1084.48 1425.77,1090.28 1429.01,1096.04 1432.25,1101.78 1435.5,1107.49 1438.74,1113.16 1441.98,1118.81 1445.23,1124.42 1448.47,1130 1451.71,1135.55 1454.96,1141.06 1458.2,1146.54 1461.44,1151.98 1464.68,1157.39 1467.93,1162.76 1471.17,1168.1 1474.41,1173.4 1477.66,1178.66 1480.9,1183.88 1484.14,1189.06 1487.39,1194.21 1490.63,1199.31 1493.87,1204.38 1497.11,1209.4 1500.36,1214.39 1503.6,1219.33 1506.84,1224.23 1510.09,1229.09 1513.33,1233.9 1516.57,1238.67 1519.82,1243.4 1523.06,1248.08 1526.3,1252.71 1529.55,1257.3 1532.79,1261.85 1536.03,1266.35 1539.27,1270.8 1542.52,1275.2 1545.76,1279.56 1549,1283.87 1552.25,1288.13 1555.49,1292.34 1558.73,1296.5 1561.98,1300.61 1565.22,1304.68 1568.46,1308.69 1571.7,1312.65 1574.95,1316.55 1578.19,1320.41 1581.43,1324.21 1584.68,1327.96 1587.92,1331.66 1591.16,1335.31 1594.41,1338.9 1597.65,1342.44 1600.89,1345.92 1604.13,1349.35 1607.38,1352.72 1610.62,1356.03 1613.86,1359.3 1617.11,1362.5 1620.35,1365.65 1623.59,1368.74 1626.84,1371.78 1630.08,1374.75 1633.32,1377.67 1636.57,1380.53 1639.81,1383.34 1643.05,1386.08 1646.29,1388.77 1649.54,1391.39 1652.78,1393.96 1656.02,1396.47 1659.27,1398.92 1662.51,1401.31 1665.75,1403.63 1669,1405.9 1672.24,1408.11 1675.48,1410.25 1678.72,1412.33 1681.97,1414.36 1685.21,1416.32 1688.45,1418.22 1691.7,1420.05 1694.94,1421.83 1698.18,1423.54 1701.43,1425.19 1704.67,1426.78 1707.91,1428.3 1711.15,1429.76 1714.4,1431.16 1717.64,1432.49 1720.88,1433.76 1724.13,1434.97 1727.37,1436.11 1730.61,1437.19 1733.86,1438.21 1737.1,1439.16 1740.34,1440.05 1743.59,1440.87 1746.83,1441.63 1750.07,1442.32 1753.31,1442.95 1756.56,1443.52 1759.8,1444.02 1763.04,1444.46 1766.29,1444.83 1769.53,1445.14 1772.77,1445.38 1776.02,1445.56 1779.26,1445.67 1782.5,1445.72 1785.74,1445.7 1788.99,1445.62 1792.23,1445.47 1795.47,1445.26 1798.72,1444.98 1801.96,1444.64 1805.2,1444.24 1808.45,1443.77 1811.69,1443.23 1814.93,1442.63 1818.17,1441.97 1821.42,1441.24 1824.66,1440.45 1827.9,1439.59 1831.15,1438.67 1834.39,1437.69 1837.63,1436.64 1840.88,1435.52 1844.12,1434.35 1847.36,1433.11 1850.61,1431.8 1853.85,1430.44 1857.09,1429 1860.33,1427.51 1863.58,1425.95 1866.82,1424.34 1870.06,1422.65 1873.31,1420.91 1876.55,1419.1 1879.79,1417.23 1883.04,1415.3 1886.28,1413.31 1889.52,1411.25 1892.76,1409.14 1896.01,1406.96 1899.25,1404.72 1902.49,1402.42 1905.74,1400.07 1908.98,1397.65 1912.22,1395.17 1915.47,1392.63 1918.71,1390.03 1921.95,1387.37 1925.19,1384.66 1928.44,1381.88 1931.68,1379.05 1934.92,1376.16 1938.17,1373.21 1941.41,1370.2 1944.65,1367.13 1947.9,1364.01 1951.14,1360.83 1954.38,1357.6 1957.63,1354.31 1960.87,1350.96 1964.11,1347.56 1967.35,1344.11 1970.6,1340.6 1973.84,1337.03 1977.08,1333.41 1980.33,1329.74 1983.57,1326.01 1986.81,1322.23 1990.06,1318.4 1993.3,1314.52 1996.54,1310.58 1999.78,1306.6 2003.03,1302.56 2006.27,1298.47 2009.51,1294.34 2012.76,1290.15 2016,1285.91 2019.24,1281.63 2022.49,1277.29 2025.73,1272.91 2028.97,1268.48 2032.21,1264.01 2035.46,1259.48 2038.7,1254.91 2041.94,1250.3 2045.19,1245.64 2048.43,1240.93 2051.67,1236.18 2054.92,1231.39 2058.16,1226.55 2061.4,1221.68 2064.65,1216.75 2067.89,1211.79 2071.13,1206.79 2074.37,1201.74 2077.62,1196.65 2080.86,1191.53 2084.1,1186.36 2087.35,1181.16 2090.59,1175.91 2093.83,1170.63 2097.08,1165.32 2100.32,1159.96 2103.56,1154.57 2106.8,1149.14 2110.05,1143.68 2113.29,1138.19 2116.53,1132.66 2119.78,1127.09 2123.02,1121.49 2126.26,1115.87 2129.51,1110.2 2132.75,1104.51 2135.99,1098.79 2139.23,1093.04 2142.48,1087.25 2145.72,1081.44 2148.96,1075.6 2152.21,1069.74 2155.45,1063.84 2158.69,1057.92 2161.94,1051.97 2165.18,1046 2168.42,1040 2171.67,1033.98 2174.91,1027.93 2178.15,1021.87 2181.39,1015.77 2184.64,1009.66 2187.88,1003.53 2191.12,997.373 2194.37,991.199 2197.61,985.005 2200.85,978.792 2204.1,972.562 2207.34,966.313 2210.58,960.048 2213.82,953.767 2217.07,947.47 2220.31,941.158 2223.55,934.832 2226.8,928.492 2230.04,922.139 2233.28,915.774 2236.53,909.397 2239.77,903.009 2243.01,896.61 2246.25,890.201 2249.5,883.783 2252.74,877.356 2255.98,870.922 2259.23,864.48 2262.47,858.031 2265.71,851.577 2268.96,845.117 2272.2,838.652 2275.44,832.183 2278.69,825.711 2281.93,819.236 2285.17,812.758 2288.41,806.28 2291.66,799.8 "/>
<circle clip-path="url(#clip082)" cx="1539.27" cy="1353.77" r="14.4" fill="#e26f46" fill-rule="evenodd" fill-opacity="1" stroke="#000000" stroke-opacity="1" stroke-width="3.2"/>
<circle clip-path="url(#clip082)" cx="712.302" cy="310.935" r="14.4" fill="#e26f46" fill-rule="evenodd" fill-opacity="1" stroke="#000000" stroke-opacity="1" stroke-width="3.2"/>
<circle clip-path="url(#clip082)" cx="760.947" cy="229.9" r="14.4" fill="#e26f46" fill-rule="evenodd" fill-opacity="1" stroke="#000000" stroke-opacity="1" stroke-width="3.2"/>
<circle clip-path="url(#clip082)" cx="1030.12" cy="270.041" r="14.4" fill="#e26f46" fill-rule="evenodd" fill-opacity="1" stroke="#000000" stroke-opacity="1" stroke-width="3.2"/>
<circle clip-path="url(#clip082)" cx="640.955" cy="336.266" r="14.4" fill="#e26f46" fill-rule="evenodd" fill-opacity="1" stroke="#000000" stroke-opacity="1" stroke-width="3.2"/>
<circle clip-path="url(#clip082)" cx="297.194" cy="670.696" r="14.4" fill="#e26f46" fill-rule="evenodd" fill-opacity="1" stroke="#000000" stroke-opacity="1" stroke-width="3.2"/>
<circle clip-path="url(#clip082)" cx="916.613" cy="87.9763" r="14.4" fill="#e26f46" fill-rule="evenodd" fill-opacity="1" stroke="#000000" stroke-opacity="1" stroke-width="3.2"/>
<circle clip-path="url(#clip082)" cx="1182.54" cy="501.619" r="14.4" fill="#e26f46" fill-rule="evenodd" fill-opacity="1" stroke="#000000" stroke-opacity="1" stroke-width="3.2"/>
<circle clip-path="url(#clip082)" cx="1912.22" cy="1286.35" r="14.4" fill="#e26f46" fill-rule="evenodd" fill-opacity="1" stroke="#000000" stroke-opacity="1" stroke-width="3.2"/>
<circle clip-path="url(#clip082)" cx="923.099" cy="190.301" r="14.4" fill="#e26f46" fill-rule="evenodd" fill-opacity="1" stroke="#000000" stroke-opacity="1" stroke-width="3.2"/>
<circle clip-path="url(#clip082)" cx="939.314" cy="214.56" r="14.4" fill="#e26f46" fill-rule="evenodd" fill-opacity="1" stroke="#000000" stroke-opacity="1" stroke-width="3.2"/>
<circle clip-path="url(#clip082)" cx="1386.85" cy="1031.01" r="14.4" fill="#e26f46" fill-rule="evenodd" fill-opacity="1" stroke="#000000" stroke-opacity="1" stroke-width="3.2"/>
<circle clip-path="url(#clip082)" cx="1309.02" cy="922.365" r="14.4" fill="#e26f46" fill-rule="evenodd" fill-opacity="1" stroke="#000000" stroke-opacity="1" stroke-width="3.2"/>
<circle clip-path="url(#clip082)" cx="1036.6" cy="259.414" r="14.4" fill="#e26f46" fill-rule="evenodd" fill-opacity="1" stroke="#000000" stroke-opacity="1" stroke-width="3.2"/>
<circle clip-path="url(#clip082)" cx="1500.36" cy="1198.96" r="14.4" fill="#e26f46" fill-rule="evenodd" fill-opacity="1" stroke="#000000" stroke-opacity="1" stroke-width="3.2"/>
<circle clip-path="url(#clip082)" cx="939.314" cy="109.363" r="14.4" fill="#e26f46" fill-rule="evenodd" fill-opacity="1" stroke="#000000" stroke-opacity="1" stroke-width="3.2"/>
<circle clip-path="url(#clip082)" cx="514.477" cy="447.975" r="14.4" fill="#e26f46" fill-rule="evenodd" fill-opacity="1" stroke="#000000" stroke-opacity="1" stroke-width="3.2"/>
<circle clip-path="url(#clip082)" cx="1234.43" cy="619.654" r="14.4" fill="#e26f46" fill-rule="evenodd" fill-opacity="1" stroke="#000000" stroke-opacity="1" stroke-width="3.2"/>
<circle clip-path="url(#clip082)" cx="1964.11" cy="1441.75" r="14.4" fill="#e26f46" fill-rule="evenodd" fill-opacity="1" stroke="#000000" stroke-opacity="1" stroke-width="3.2"/>
<circle clip-path="url(#clip082)" cx="2191.12" cy="999.807" r="14.4" fill="#e26f46" fill-rule="evenodd" fill-opacity="1" stroke="#000000" stroke-opacity="1" stroke-width="3.2"/>
<path clip-path="url(#clip080)" d="M1953.46 250.738 L2280.8 250.738 L2280.8 95.2176 L1953.46 95.2176  Z" fill="#ffffff" fill-rule="evenodd" fill-opacity="1"/>
<polyline clip-path="url(#clip080)" style="stroke:#000000; stroke-linecap:round; stroke-linejoin:round; stroke-width:4; stroke-opacity:1; fill:none" points="1953.46,250.738 2280.8,250.738 2280.8,95.2176 1953.46,95.2176 1953.46,250.738 "/>
<polyline clip-path="url(#clip080)" style="stroke:#009af9; stroke-linecap:round; stroke-linejoin:round; stroke-width:4; stroke-opacity:1; fill:none" points="1977.44,147.058 2121.36,147.058 "/>
<path clip-path="url(#clip080)" d="M2152.76 131.051 L2152.76 138.412 L2161.53 138.412 L2161.53 141.722 L2152.76 141.722 L2152.76 155.796 Q2152.76 158.967 2153.61 159.87 Q2154.49 160.773 2157.16 160.773 L2161.53 160.773 L2161.53 164.338 L2157.16 164.338 Q2152.23 164.338 2150.35 162.509 Q2148.48 160.657 2148.48 155.796 L2148.48 141.722 L2145.35 141.722 L2145.35 138.412 L2148.48 138.412 L2148.48 131.051 L2152.76 131.051 Z" fill="#000000" fill-rule="nonzero" fill-opacity="1" /><path clip-path="url(#clip080)" d="M2182.16 142.393 Q2181.44 141.977 2180.58 141.791 Q2179.75 141.583 2178.73 141.583 Q2175.12 141.583 2173.17 143.944 Q2171.25 146.282 2171.25 150.68 L2171.25 164.338 L2166.97 164.338 L2166.97 138.412 L2171.25 138.412 L2171.25 142.44 Q2172.6 140.078 2174.75 138.944 Q2176.9 137.787 2179.98 137.787 Q2180.42 137.787 2180.95 137.856 Q2181.48 137.903 2182.13 138.018 L2182.16 142.393 Z" fill="#000000" fill-rule="nonzero" fill-opacity="1" /><path clip-path="url(#clip080)" d="M2186.18 154.106 L2186.18 138.412 L2190.44 138.412 L2190.44 153.944 Q2190.44 157.625 2191.88 159.476 Q2193.31 161.305 2196.18 161.305 Q2199.63 161.305 2201.62 159.106 Q2203.64 156.907 2203.64 153.111 L2203.64 138.412 L2207.9 138.412 L2207.9 164.338 L2203.64 164.338 L2203.64 160.356 Q2202.09 162.717 2200.03 163.875 Q2197.99 165.009 2195.28 165.009 Q2190.81 165.009 2188.5 162.231 Q2186.18 159.453 2186.18 154.106 M2196.9 137.787 L2196.9 137.787 Z" fill="#000000" fill-rule="nonzero" fill-opacity="1" /><path clip-path="url(#clip080)" d="M2220.88 131.051 L2220.88 138.412 L2229.66 138.412 L2229.66 141.722 L2220.88 141.722 L2220.88 155.796 Q2220.88 158.967 2221.74 159.87 Q2222.62 160.773 2225.28 160.773 L2229.66 160.773 L2229.66 164.338 L2225.28 164.338 Q2220.35 164.338 2218.48 162.509 Q2216.6 160.657 2216.6 155.796 L2216.6 141.722 L2213.48 141.722 L2213.48 138.412 L2216.6 138.412 L2216.6 131.051 L2220.88 131.051 Z" fill="#000000" fill-rule="nonzero" fill-opacity="1" /><path clip-path="url(#clip080)" d="M2256.81 148.689 L2256.81 164.338 L2252.55 164.338 L2252.55 148.828 Q2252.55 145.148 2251.11 143.319 Q2249.68 141.49 2246.81 141.49 Q2243.36 141.49 2241.37 143.69 Q2239.38 145.889 2239.38 149.685 L2239.38 164.338 L2235.1 164.338 L2235.1 128.319 L2239.38 128.319 L2239.38 142.44 Q2240.91 140.102 2242.97 138.944 Q2245.05 137.787 2247.76 137.787 Q2252.23 137.787 2254.52 140.565 Q2256.81 143.319 2256.81 148.689 Z" fill="#000000" fill-rule="nonzero" fill-opacity="1" /><circle clip-path="url(#clip080)" cx="2049.4" cy="198.898" r="20.48" fill="#e26f46" fill-rule="evenodd" fill-opacity="1" stroke="#000000" stroke-opacity="1" stroke-width="4.55111"/>
<path clip-path="url(#clip080)" d="M2164.26 194.187 L2164.26 180.159 L2168.52 180.159 L2168.52 216.178 L2164.26 216.178 L2164.26 212.289 Q2162.92 214.603 2160.86 215.738 Q2158.82 216.849 2155.95 216.849 Q2151.25 216.849 2148.29 213.099 Q2145.35 209.349 2145.35 203.238 Q2145.35 197.127 2148.29 193.377 Q2151.25 189.627 2155.95 189.627 Q2158.82 189.627 2160.86 190.761 Q2162.92 191.872 2164.26 194.187 M2149.75 203.238 Q2149.75 207.937 2151.67 210.622 Q2153.61 213.284 2156.99 213.284 Q2160.37 213.284 2162.32 210.622 Q2164.26 207.937 2164.26 203.238 Q2164.26 198.539 2162.32 195.877 Q2160.37 193.192 2156.99 193.192 Q2153.61 193.192 2151.67 195.877 Q2149.75 198.539 2149.75 203.238 Z" fill="#000000" fill-rule="nonzero" fill-opacity="1" /><path clip-path="url(#clip080)" d="M2189.08 203.145 Q2183.92 203.145 2181.92 204.326 Q2179.93 205.506 2179.93 208.354 Q2179.93 210.622 2181.42 211.965 Q2182.92 213.284 2185.49 213.284 Q2189.03 213.284 2191.16 210.784 Q2193.31 208.261 2193.31 204.094 L2193.31 203.145 L2189.08 203.145 M2197.57 201.386 L2197.57 216.178 L2193.31 216.178 L2193.31 212.242 Q2191.85 214.603 2189.68 215.738 Q2187.5 216.849 2184.36 216.849 Q2180.37 216.849 2178.01 214.627 Q2175.67 212.381 2175.67 208.631 Q2175.67 204.256 2178.59 202.034 Q2181.53 199.812 2187.34 199.812 L2193.31 199.812 L2193.31 199.395 Q2193.31 196.455 2191.37 194.858 Q2189.45 193.238 2185.95 193.238 Q2183.73 193.238 2181.62 193.77 Q2179.52 194.303 2177.57 195.367 L2177.57 191.432 Q2179.91 190.53 2182.11 190.09 Q2184.31 189.627 2186.39 189.627 Q2192.02 189.627 2194.79 192.543 Q2197.57 195.46 2197.57 201.386 Z" fill="#000000" fill-rule="nonzero" fill-opacity="1" /><path clip-path="url(#clip080)" d="M2210.56 182.891 L2210.56 190.252 L2219.33 190.252 L2219.33 193.562 L2210.56 193.562 L2210.56 207.636 Q2210.56 210.807 2211.42 211.71 Q2212.29 212.613 2214.96 212.613 L2219.33 212.613 L2219.33 216.178 L2214.96 216.178 Q2210.03 216.178 2208.15 214.349 Q2206.28 212.497 2206.28 207.636 L2206.28 193.562 L2203.15 193.562 L2203.15 190.252 L2206.28 190.252 L2206.28 182.891 L2210.56 182.891 Z" fill="#000000" fill-rule="nonzero" fill-opacity="1" /><path clip-path="url(#clip080)" d="M2236.72 203.145 Q2231.55 203.145 2229.56 204.326 Q2227.57 205.506 2227.57 208.354 Q2227.57 210.622 2229.05 211.965 Q2230.56 213.284 2233.13 213.284 Q2236.67 213.284 2238.8 210.784 Q2240.95 208.261 2240.95 204.094 L2240.95 203.145 L2236.72 203.145 M2245.21 201.386 L2245.21 216.178 L2240.95 216.178 L2240.95 212.242 Q2239.49 214.603 2237.32 215.738 Q2235.14 216.849 2231.99 216.849 Q2228.01 216.849 2225.65 214.627 Q2223.31 212.381 2223.31 208.631 Q2223.31 204.256 2226.23 202.034 Q2229.17 199.812 2234.98 199.812 L2240.95 199.812 L2240.95 199.395 Q2240.95 196.455 2239.01 194.858 Q2237.09 193.238 2233.59 193.238 Q2231.37 193.238 2229.26 193.77 Q2227.16 194.303 2225.21 195.367 L2225.21 191.432 Q2227.55 190.53 2229.75 190.09 Q2231.95 189.627 2234.03 189.627 Q2239.66 189.627 2242.43 192.543 Q2245.21 195.46 2245.21 201.386 Z" fill="#000000" fill-rule="nonzero" fill-opacity="1" /></svg>
