<?xml version="1.0" encoding="utf-8"?>
<svg xmlns="http://www.w3.org/2000/svg" xmlns:xlink="http://www.w3.org/1999/xlink" width="600" height="400" viewBox="0 0 2400 1600">
<defs>
  <clipPath id="clip110">
    <rect x="0" y="0" width="2400" height="1600"/>
  </clipPath>
</defs>
<path clip-path="url(#clip110)" d="M0 1600 L2400 1600 L2400 0 L0 0  Z" fill="#ffffff" fill-rule="evenodd" fill-opacity="1"/>
<defs>
  <clipPath id="clip111">
    <rect x="480" y="0" width="1681" height="1600"/>
  </clipPath>
</defs>
<path clip-path="url(#clip110)" d="M193.936 1486.45 L2352.76 1486.45 L2352.76 47.2441 L193.936 47.2441  Z" fill="#ffffff" fill-rule="evenodd" fill-opacity="1"/>
<defs>
  <clipPath id="clip112">
    <rect x="193" y="47" width="2160" height="1440"/>
  </clipPath>
</defs>
<polyline clip-path="url(#clip112)" style="stroke:#000000; stroke-linecap:round; stroke-linejoin:round; stroke-width:2; stroke-opacity:0.1; fill:none" points="255.035,1486.45 255.035,47.2441 "/>
<polyline clip-path="url(#clip112)" style="stroke:#000000; stroke-linecap:round; stroke-linejoin:round; stroke-width:2; stroke-opacity:0.1; fill:none" points="579.338,1486.45 579.338,47.2441 "/>
<polyline clip-path="url(#clip112)" style="stroke:#000000; stroke-linecap:round; stroke-linejoin:round; stroke-width:2; stroke-opacity:0.1; fill:none" points="903.641,1486.45 903.641,47.2441 "/>
<polyline clip-path="url(#clip112)" style="stroke:#000000; stroke-linecap:round; stroke-linejoin:round; stroke-width:2; stroke-opacity:0.1; fill:none" points="1227.94,1486.45 1227.94,47.2441 "/>
<polyline clip-path="url(#clip112)" style="stroke:#000000; stroke-linecap:round; stroke-linejoin:round; stroke-width:2; stroke-opacity:0.1; fill:none" points="1552.25,1486.45 1552.25,47.2441 "/>
<polyline clip-path="url(#clip112)" style="stroke:#000000; stroke-linecap:round; stroke-linejoin:round; stroke-width:2; stroke-opacity:0.1; fill:none" points="1876.55,1486.45 1876.55,47.2441 "/>
<polyline clip-path="url(#clip112)" style="stroke:#000000; stroke-linecap:round; stroke-linejoin:round; stroke-width:2; stroke-opacity:0.1; fill:none" points="2200.85,1486.45 2200.85,47.2441 "/>
<polyline clip-path="url(#clip112)" style="stroke:#000000; stroke-linecap:round; stroke-linejoin:round; stroke-width:2; stroke-opacity:0.1; fill:none" points="193.936,1410.02 2352.76,1410.02 "/>
<polyline clip-path="url(#clip112)" style="stroke:#000000; stroke-linecap:round; stroke-linejoin:round; stroke-width:2; stroke-opacity:0.1; fill:none" points="193.936,1086.51 2352.76,1086.51 "/>
<polyline clip-path="url(#clip112)" style="stroke:#000000; stroke-linecap:round; stroke-linejoin:round; stroke-width:2; stroke-opacity:0.1; fill:none" points="193.936,762.993 2352.76,762.993 "/>
<polyline clip-path="url(#clip112)" style="stroke:#000000; stroke-linecap:round; stroke-linejoin:round; stroke-width:2; stroke-opacity:0.1; fill:none" points="193.936,439.479 2352.76,439.479 "/>
<polyline clip-path="url(#clip112)" style="stroke:#000000; stroke-linecap:round; stroke-linejoin:round; stroke-width:2; stroke-opacity:0.1; fill:none" points="193.936,115.966 2352.76,115.966 "/>
<polyline clip-path="url(#clip110)" style="stroke:#000000; stroke-linecap:round; stroke-linejoin:round; stroke-width:4; stroke-opacity:1; fill:none" points="193.936,1486.45 2352.76,1486.45 "/>
<polyline clip-path="url(#clip110)" style="stroke:#000000; stroke-linecap:round; stroke-linejoin:round; stroke-width:4; stroke-opacity:1; fill:none" points="255.035,1486.45 255.035,1467.55 "/>
<polyline clip-path="url(#clip110)" style="stroke:#000000; stroke-linecap:round; stroke-linejoin:round; stroke-width:4; stroke-opacity:1; fill:none" points="579.338,1486.45 579.338,1467.55 "/>
<polyline clip-path="url(#clip110)" style="stroke:#000000; stroke-linecap:round; stroke-linejoin:round; stroke-width:4; stroke-opacity:1; fill:none" points="903.641,1486.45 903.641,1467.55 "/>
<polyline clip-path="url(#clip110)" style="stroke:#000000; stroke-linecap:round; stroke-linejoin:round; stroke-width:4; stroke-opacity:1; fill:none" points="1227.94,1486.45 1227.94,1467.55 "/>
<polyline clip-path="url(#clip110)" style="stroke:#000000; stroke-linecap:round; stroke-linejoin:round; stroke-width:4; stroke-opacity:1; fill:none" points="1552.25,1486.45 1552.25,1467.55 "/>
<polyline clip-path="url(#clip110)" style="stroke:#000000; stroke-linecap:round; stroke-linejoin:round; stroke-width:4; stroke-opacity:1; fill:none" points="1876.55,1486.45 1876.55,1467.55 "/>
<polyline clip-path="url(#clip110)" style="stroke:#000000; stroke-linecap:round; stroke-linejoin:round; stroke-width:4; stroke-opacity:1; fill:none" points="2200.85,1486.45 2200.85,1467.55 "/>
<path clip-path="url(#clip110)" d="M255.035 1517.37 Q251.424 1517.37 249.595 1520.93 Q247.789 1524.47 247.789 1531.6 Q247.789 1538.71 249.595 1542.27 Q251.424 1545.82 255.035 1545.82 Q258.669 1545.82 260.474 1542.27 Q262.303 1538.71 262.303 1531.6 Q262.303 1524.47 260.474 1520.93 Q258.669 1517.37 255.035 1517.37 M255.035 1513.66 Q260.845 1513.66 263.9 1518.27 Q266.979 1522.85 266.979 1531.6 Q266.979 1540.33 263.9 1544.94 Q260.845 1549.52 255.035 1549.52 Q249.225 1549.52 246.146 1544.94 Q243.09 1540.33 243.09 1531.6 Q243.09 1522.85 246.146 1518.27 Q249.225 1513.66 255.035 1513.66 Z" fill="#000000" fill-rule="nonzero" fill-opacity="1" /><path clip-path="url(#clip110)" d="M569.72 1544.91 L577.358 1544.91 L577.358 1518.55 L569.048 1520.21 L569.048 1515.95 L577.312 1514.29 L581.988 1514.29 L581.988 1544.91 L589.627 1544.91 L589.627 1548.85 L569.72 1548.85 L569.72 1544.91 Z" fill="#000000" fill-rule="nonzero" fill-opacity="1" /><path clip-path="url(#clip110)" d="M898.293 1544.91 L914.613 1544.91 L914.613 1548.85 L892.668 1548.85 L892.668 1544.91 Q895.33 1542.16 899.914 1537.53 Q904.52 1532.88 905.701 1531.53 Q907.946 1529.01 908.826 1527.27 Q909.729 1525.51 909.729 1523.82 Q909.729 1521.07 907.784 1519.33 Q905.863 1517.6 902.761 1517.6 Q900.562 1517.6 898.108 1518.36 Q895.678 1519.13 892.9 1520.68 L892.9 1515.95 Q895.724 1514.82 898.178 1514.24 Q900.631 1513.66 902.668 1513.66 Q908.039 1513.66 911.233 1516.35 Q914.428 1519.03 914.428 1523.52 Q914.428 1525.65 913.617 1527.57 Q912.83 1529.47 910.724 1532.07 Q910.145 1532.74 907.043 1535.95 Q903.942 1539.15 898.293 1544.91 Z" fill="#000000" fill-rule="nonzero" fill-opacity="1" /><path clip-path="url(#clip110)" d="M1232.19 1530.21 Q1235.55 1530.93 1237.42 1533.2 Q1239.32 1535.47 1239.32 1538.8 Q1239.32 1543.92 1235.8 1546.72 Q1232.28 1549.52 1225.8 1549.52 Q1223.63 1549.52 1221.31 1549.08 Q1219.02 1548.66 1216.57 1547.81 L1216.57 1543.29 Q1218.51 1544.43 1220.83 1545.01 Q1223.14 1545.58 1225.66 1545.58 Q1230.06 1545.58 1232.35 1543.85 Q1234.67 1542.11 1234.67 1538.8 Q1234.67 1535.75 1232.52 1534.03 Q1230.39 1532.3 1226.57 1532.3 L1222.54 1532.3 L1222.54 1528.45 L1226.75 1528.45 Q1230.2 1528.45 1232.03 1527.09 Q1233.86 1525.7 1233.86 1523.11 Q1233.86 1520.45 1231.96 1519.03 Q1230.08 1517.6 1226.57 1517.6 Q1224.64 1517.6 1222.45 1518.01 Q1220.25 1518.43 1217.61 1519.31 L1217.61 1515.14 Q1220.27 1514.4 1222.58 1514.03 Q1224.92 1513.66 1226.98 1513.66 Q1232.31 1513.66 1235.41 1516.09 Q1238.51 1518.5 1238.51 1522.62 Q1238.51 1525.49 1236.87 1527.48 Q1235.22 1529.45 1232.19 1530.21 Z" fill="#000000" fill-rule="nonzero" fill-opacity="1" /><path clip-path="url(#clip110)" d="M1555.26 1518.36 L1543.45 1536.81 L1555.26 1536.81 L1555.26 1518.36 M1554.03 1514.29 L1559.91 1514.29 L1559.91 1536.81 L1564.84 1536.81 L1564.84 1540.7 L1559.91 1540.7 L1559.91 1548.85 L1555.26 1548.85 L1555.26 1540.7 L1539.65 1540.7 L1539.65 1536.19 L1554.03 1514.29 Z" fill="#000000" fill-rule="nonzero" fill-opacity="1" /><path clip-path="url(#clip110)" d="M1866.83 1514.29 L1885.18 1514.29 L1885.18 1518.22 L1871.11 1518.22 L1871.11 1526.7 Q1872.13 1526.35 1873.15 1526.19 Q1874.17 1526 1875.18 1526 Q1880.97 1526 1884.35 1529.17 Q1887.73 1532.34 1887.73 1537.76 Q1887.73 1543.34 1884.26 1546.44 Q1880.79 1549.52 1874.47 1549.52 Q1872.29 1549.52 1870.02 1549.15 Q1867.78 1548.78 1865.37 1548.04 L1865.37 1543.34 Q1867.45 1544.47 1869.67 1545.03 Q1871.9 1545.58 1874.37 1545.58 Q1878.38 1545.58 1880.72 1543.48 Q1883.05 1541.37 1883.05 1537.76 Q1883.05 1534.15 1880.72 1532.04 Q1878.38 1529.94 1874.37 1529.94 Q1872.5 1529.94 1870.62 1530.35 Q1868.77 1530.77 1866.83 1531.65 L1866.83 1514.29 Z" fill="#000000" fill-rule="nonzero" fill-opacity="1" /><path clip-path="url(#clip110)" d="M2201.26 1529.7 Q2198.11 1529.7 2196.26 1531.86 Q2194.43 1534.01 2194.43 1537.76 Q2194.43 1541.49 2196.26 1543.66 Q2198.11 1545.82 2201.26 1545.82 Q2204.41 1545.82 2206.23 1543.66 Q2208.09 1541.49 2208.09 1537.76 Q2208.09 1534.01 2206.23 1531.86 Q2204.41 1529.7 2201.26 1529.7 M2210.54 1515.05 L2210.54 1519.31 Q2208.78 1518.48 2206.98 1518.04 Q2205.19 1517.6 2203.43 1517.6 Q2198.8 1517.6 2196.35 1520.72 Q2193.92 1523.85 2193.57 1530.17 Q2194.94 1528.15 2197 1527.09 Q2199.06 1526 2201.54 1526 Q2206.74 1526 2209.75 1529.17 Q2212.79 1532.32 2212.79 1537.76 Q2212.79 1543.08 2209.64 1546.3 Q2206.49 1549.52 2201.26 1549.52 Q2195.26 1549.52 2192.09 1544.94 Q2188.92 1540.33 2188.92 1531.6 Q2188.92 1523.41 2192.81 1518.55 Q2196.7 1513.66 2203.25 1513.66 Q2205.01 1513.66 2206.79 1514.01 Q2208.6 1514.36 2210.54 1515.05 Z" fill="#000000" fill-rule="nonzero" fill-opacity="1" /><polyline clip-path="url(#clip110)" style="stroke:#000000; stroke-linecap:round; stroke-linejoin:round; stroke-width:4; stroke-opacity:1; fill:none" points="193.936,1486.45 193.936,47.2441 "/>
<polyline clip-path="url(#clip110)" style="stroke:#000000; stroke-linecap:round; stroke-linejoin:round; stroke-width:4; stroke-opacity:1; fill:none" points="193.936,1410.02 212.834,1410.02 "/>
<polyline clip-path="url(#clip110)" style="stroke:#000000; stroke-linecap:round; stroke-linejoin:round; stroke-width:4; stroke-opacity:1; fill:none" points="193.936,1086.51 212.834,1086.51 "/>
<polyline clip-path="url(#clip110)" style="stroke:#000000; stroke-linecap:round; stroke-linejoin:round; stroke-width:4; stroke-opacity:1; fill:none" points="193.936,762.993 212.834,762.993 "/>
<polyline clip-path="url(#clip110)" style="stroke:#000000; stroke-linecap:round; stroke-linejoin:round; stroke-width:4; stroke-opacity:1; fill:none" points="193.936,439.479 212.834,439.479 "/>
<polyline clip-path="url(#clip110)" style="stroke:#000000; stroke-linecap:round; stroke-linejoin:round; stroke-width:4; stroke-opacity:1; fill:none" points="193.936,115.966 212.834,115.966 "/>
<path clip-path="url(#clip110)" d="M50.9921 1410.47 L80.6679 1410.47 L80.6679 1414.41 L50.9921 1414.41 L50.9921 1410.47 Z" fill="#000000" fill-rule="nonzero" fill-opacity="1" /><path clip-path="url(#clip110)" d="M91.5706 1423.36 L99.2095 1423.36 L99.2095 1397 L90.8993 1398.67 L90.8993 1394.41 L99.1632 1392.74 L103.839 1392.74 L103.839 1423.36 L111.478 1423.36 L111.478 1427.3 L91.5706 1427.3 L91.5706 1423.36 Z" fill="#000000" fill-rule="nonzero" fill-opacity="1" /><path clip-path="url(#clip110)" d="M120.922 1421.42 L125.807 1421.42 L125.807 1427.3 L120.922 1427.3 L120.922 1421.42 Z" fill="#000000" fill-rule="nonzero" fill-opacity="1" /><path clip-path="url(#clip110)" d="M145.992 1395.82 Q142.381 1395.82 140.552 1399.38 Q138.746 1402.93 138.746 1410.05 Q138.746 1417.16 140.552 1420.73 Q142.381 1424.27 145.992 1424.27 Q149.626 1424.27 151.431 1420.73 Q153.26 1417.16 153.26 1410.05 Q153.26 1402.93 151.431 1399.38 Q149.626 1395.82 145.992 1395.82 M145.992 1392.12 Q151.802 1392.12 154.857 1396.72 Q157.936 1401.3 157.936 1410.05 Q157.936 1418.78 154.857 1423.39 Q151.802 1427.97 145.992 1427.97 Q140.181 1427.97 137.103 1423.39 Q134.047 1418.78 134.047 1410.05 Q134.047 1401.3 137.103 1396.72 Q140.181 1392.12 145.992 1392.12 Z" fill="#000000" fill-rule="nonzero" fill-opacity="1" /><path clip-path="url(#clip110)" d="M51.9875 1086.96 L81.6633 1086.96 L81.6633 1090.89 L51.9875 1090.89 L51.9875 1086.96 Z" fill="#000000" fill-rule="nonzero" fill-opacity="1" /><path clip-path="url(#clip110)" d="M101.756 1072.31 Q98.1447 1072.31 96.316 1075.87 Q94.5104 1079.41 94.5104 1086.54 Q94.5104 1093.65 96.316 1097.21 Q98.1447 1100.75 101.756 1100.75 Q105.39 1100.75 107.196 1097.21 Q109.024 1093.65 109.024 1086.54 Q109.024 1079.41 107.196 1075.87 Q105.39 1072.31 101.756 1072.31 M101.756 1068.6 Q107.566 1068.6 110.621 1073.21 Q113.7 1077.79 113.7 1086.54 Q113.7 1095.27 110.621 1099.87 Q107.566 1104.46 101.756 1104.46 Q95.9456 1104.46 92.8669 1099.87 Q89.8114 1095.27 89.8114 1086.54 Q89.8114 1077.79 92.8669 1073.21 Q95.9456 1068.6 101.756 1068.6 Z" fill="#000000" fill-rule="nonzero" fill-opacity="1" /><path clip-path="url(#clip110)" d="M121.918 1097.91 L126.802 1097.91 L126.802 1103.79 L121.918 1103.79 L121.918 1097.91 Z" fill="#000000" fill-rule="nonzero" fill-opacity="1" /><path clip-path="url(#clip110)" d="M137.033 1069.23 L155.39 1069.23 L155.39 1073.16 L141.316 1073.16 L141.316 1081.63 Q142.334 1081.29 143.353 1081.12 Q144.371 1080.94 145.39 1080.94 Q151.177 1080.94 154.556 1084.11 Q157.936 1087.28 157.936 1092.7 Q157.936 1098.28 154.464 1101.38 Q150.992 1104.46 144.672 1104.46 Q142.496 1104.46 140.228 1104.09 Q137.982 1103.72 135.575 1102.98 L135.575 1098.28 Q137.658 1099.41 139.881 1099.97 Q142.103 1100.52 144.58 1100.52 Q148.584 1100.52 150.922 1098.42 Q153.26 1096.31 153.26 1092.7 Q153.26 1089.09 150.922 1086.98 Q148.584 1084.87 144.58 1084.87 Q142.705 1084.87 140.83 1085.29 Q138.978 1085.71 137.033 1086.59 L137.033 1069.23 Z" fill="#000000" fill-rule="nonzero" fill-opacity="1" /><path clip-path="url(#clip110)" d="M100.76 748.792 Q97.1493 748.792 95.3206 752.356 Q93.515 755.898 93.515 763.028 Q93.515 770.134 95.3206 773.699 Q97.1493 777.24 100.76 777.24 Q104.395 777.24 106.2 773.699 Q108.029 770.134 108.029 763.028 Q108.029 755.898 106.2 752.356 Q104.395 748.792 100.76 748.792 M100.76 745.088 Q106.571 745.088 109.626 749.694 Q112.705 754.278 112.705 763.028 Q112.705 771.754 109.626 776.361 Q106.571 780.944 100.76 780.944 Q94.9502 780.944 91.8715 776.361 Q88.816 771.754 88.816 763.028 Q88.816 754.278 91.8715 749.694 Q94.9502 745.088 100.76 745.088 Z" fill="#000000" fill-rule="nonzero" fill-opacity="1" /><path clip-path="url(#clip110)" d="M120.922 774.393 L125.807 774.393 L125.807 780.273 L120.922 780.273 L120.922 774.393 Z" fill="#000000" fill-rule="nonzero" fill-opacity="1" /><path clip-path="url(#clip110)" d="M145.992 748.792 Q142.381 748.792 140.552 752.356 Q138.746 755.898 138.746 763.028 Q138.746 770.134 140.552 773.699 Q142.381 777.24 145.992 777.24 Q149.626 777.24 151.431 773.699 Q153.26 770.134 153.26 763.028 Q153.26 755.898 151.431 752.356 Q149.626 748.792 145.992 748.792 M145.992 745.088 Q151.802 745.088 154.857 749.694 Q157.936 754.278 157.936 763.028 Q157.936 771.754 154.857 776.361 Q151.802 780.944 145.992 780.944 Q140.181 780.944 137.103 776.361 Q134.047 771.754 134.047 763.028 Q134.047 754.278 137.103 749.694 Q140.181 745.088 145.992 745.088 Z" fill="#000000" fill-rule="nonzero" fill-opacity="1" /><path clip-path="url(#clip110)" d="M101.756 425.278 Q98.1447 425.278 96.316 428.843 Q94.5104 432.384 94.5104 439.514 Q94.5104 446.62 96.316 450.185 Q98.1447 453.727 101.756 453.727 Q105.39 453.727 107.196 450.185 Q109.024 446.62 109.024 439.514 Q109.024 432.384 107.196 428.843 Q105.39 425.278 101.756 425.278 M101.756 421.574 Q107.566 421.574 110.621 426.181 Q113.7 430.764 113.7 439.514 Q113.7 448.241 110.621 452.847 Q107.566 457.431 101.756 457.431 Q95.9456 457.431 92.8669 452.847 Q89.8114 448.241 89.8114 439.514 Q89.8114 430.764 92.8669 426.181 Q95.9456 421.574 101.756 421.574 Z" fill="#000000" fill-rule="nonzero" fill-opacity="1" /><path clip-path="url(#clip110)" d="M121.918 450.88 L126.802 450.88 L126.802 456.759 L121.918 456.759 L121.918 450.88 Z" fill="#000000" fill-rule="nonzero" fill-opacity="1" /><path clip-path="url(#clip110)" d="M137.033 422.199 L155.39 422.199 L155.39 426.134 L141.316 426.134 L141.316 434.607 Q142.334 434.259 143.353 434.097 Q144.371 433.912 145.39 433.912 Q151.177 433.912 154.556 437.083 Q157.936 440.255 157.936 445.671 Q157.936 451.25 154.464 454.352 Q150.992 457.431 144.672 457.431 Q142.496 457.431 140.228 457.06 Q137.982 456.69 135.575 455.949 L135.575 451.25 Q137.658 452.384 139.881 452.94 Q142.103 453.495 144.58 453.495 Q148.584 453.495 150.922 451.389 Q153.26 449.282 153.26 445.671 Q153.26 442.06 150.922 439.954 Q148.584 437.847 144.58 437.847 Q142.705 437.847 140.83 438.264 Q138.978 438.681 137.033 439.56 L137.033 422.199 Z" fill="#000000" fill-rule="nonzero" fill-opacity="1" /><path clip-path="url(#clip110)" d="M91.5706 129.31 L99.2095 129.31 L99.2095 102.945 L90.8993 104.612 L90.8993 100.352 L99.1632 98.6856 L103.839 98.6856 L103.839 129.31 L111.478 129.31 L111.478 133.246 L91.5706 133.246 L91.5706 129.31 Z" fill="#000000" fill-rule="nonzero" fill-opacity="1" /><path clip-path="url(#clip110)" d="M120.922 127.366 L125.807 127.366 L125.807 133.246 L120.922 133.246 L120.922 127.366 Z" fill="#000000" fill-rule="nonzero" fill-opacity="1" /><path clip-path="url(#clip110)" d="M145.992 101.764 Q142.381 101.764 140.552 105.329 Q138.746 108.871 138.746 116 Q138.746 123.107 140.552 126.672 Q142.381 130.213 145.992 130.213 Q149.626 130.213 151.431 126.672 Q153.26 123.107 153.26 116 Q153.26 108.871 151.431 105.329 Q149.626 101.764 145.992 101.764 M145.992 98.0606 Q151.802 98.0606 154.857 102.667 Q157.936 107.25 157.936 116 Q157.936 124.727 154.857 129.334 Q151.802 133.917 145.992 133.917 Q140.181 133.917 137.103 129.334 Q134.047 124.727 134.047 116 Q134.047 107.25 137.103 102.667 Q140.181 98.0606 145.992 98.0606 Z" fill="#000000" fill-rule="nonzero" fill-opacity="1" /><polyline clip-path="url(#clip112)" style="stroke:#009af9; stroke-linecap:round; stroke-linejoin:round; stroke-width:4; stroke-opacity:1; fill:none" points="255.035,762.993 258.278,756.523 261.521,750.053 264.764,743.585 268.007,737.119 271.25,730.655 274.493,724.194 277.736,717.738 280.979,711.286 284.222,704.839 287.465,698.398 290.708,691.963 293.951,685.536 297.194,679.116 300.437,672.705 303.68,666.302 306.923,659.91 310.166,653.527 313.409,647.156 316.652,640.796 319.895,634.448 323.138,628.114 326.381,621.792 329.624,615.485 332.867,609.193 336.11,602.916 339.353,596.655 342.596,590.41 345.84,584.183 349.083,577.974 352.326,571.783 355.569,565.612 358.812,559.46 362.055,553.328 365.298,547.218 368.541,541.129 371.784,535.062 375.027,529.018 378.27,522.997 381.513,517.001 384.756,511.029 387.999,505.082 391.242,499.161 394.485,493.266 397.728,487.398 400.971,481.558 404.214,475.746 407.457,469.963 410.7,464.209 413.943,458.485 417.186,452.791 420.429,447.129 423.672,441.498 426.915,435.899 430.158,430.333 433.401,424.8 436.644,419.301 439.887,413.836 443.13,408.406 446.373,403.012 449.616,397.654 452.859,392.332 456.103,387.047 459.346,381.8 462.589,376.591 465.832,371.421 469.075,366.29 472.318,361.198 475.561,356.147 478.804,351.136 482.047,346.166 485.29,341.239 488.533,336.353 491.776,331.51 495.019,326.71 498.262,321.954 501.505,317.242 504.748,312.574 507.991,307.952 511.234,303.375 514.477,298.844 517.72,294.359 520.963,289.922 524.206,285.531 527.449,281.188 530.692,276.894 533.935,272.648 537.178,268.451 540.421,264.304 543.664,260.206 546.907,256.159 550.15,252.162 553.393,248.217 556.636,244.323 559.879,240.481 563.122,236.691 566.366,232.954 569.609,229.269 572.852,225.638 576.095,222.061 579.338,218.538 582.581,215.07 585.824,211.656 589.067,208.297 592.31,204.994 595.553,201.746 598.796,198.555 602.039,195.42 605.282,192.342 608.525,189.321 611.768,186.357 615.011,183.451 618.254,180.603 621.497,177.814 624.74,175.082 627.983,172.41 631.226,169.796 634.469,167.242 637.712,164.748 640.955,162.313 644.198,159.938 647.441,157.624 650.684,155.37 653.927,153.177 657.17,151.045 660.413,148.974 663.656,146.964 666.899,145.017 670.142,143.13 673.385,141.306 676.629,139.544 679.872,137.845 683.115,136.208 686.358,134.633 689.601,133.122 692.844,131.673 696.087,130.288 699.33,128.966 702.573,127.707 705.816,126.512 709.059,125.38 712.302,124.312 715.545,123.308 718.788,122.368 722.031,121.492 725.274,120.681 728.517,119.933 731.76,119.25 735.003,118.631 738.246,118.076 741.489,117.586 744.732,117.161 747.975,116.8 751.218,116.504 754.461,116.272 757.704,116.106 760.947,116.003 764.19,115.966 767.433,115.993 770.676,116.085 773.919,116.242 777.162,116.463 780.405,116.749 783.648,117.099 786.892,117.514 790.135,117.994 793.378,118.538 796.621,119.147 799.864,119.82 803.107,120.557 806.35,121.359 809.593,122.224 812.836,123.154 816.079,124.148 819.322,125.206 822.565,126.327 825.808,127.512 829.051,128.761 832.294,130.073 835.537,131.448 838.78,132.887 842.023,134.388 845.266,135.953 848.509,137.58 851.752,139.27 854.995,141.022 858.238,142.836 861.481,144.712 864.724,146.65 867.967,148.65 871.21,150.711 874.453,152.833 877.696,155.017 880.939,157.261 884.182,159.566 887.425,161.931 890.668,164.356 893.911,166.841 897.155,169.386 900.398,171.99 903.641,174.653 906.884,177.375 910.127,180.155 913.37,182.994 916.613,185.891 919.856,188.845 923.099,191.857 926.342,194.926 929.585,198.052 932.828,201.234 936.071,204.473 939.314,207.767 942.557,211.117 945.8,214.522 949.043,217.982 952.286,221.497 955.529,225.065 958.772,228.687 962.015,232.363 965.258,236.092 968.501,239.874 971.744,243.708 974.987,247.593 978.23,251.531 981.473,255.519 984.716,259.558 987.959,263.648 991.202,267.787 994.445,271.976 997.688,276.214 1000.93,280.501 1004.17,284.836 1007.42,289.219 1010.66,293.649 1013.9,298.127 1017.15,302.65 1020.39,307.22 1023.63,311.835 1026.88,316.496 1030.12,321.201 1033.36,325.95 1036.6,330.743 1039.85,335.579 1043.09,340.458 1046.33,345.379 1049.58,350.342 1052.82,355.346 1056.06,360.391 1059.31,365.476 1062.55,370.601 1065.79,375.765 1069.04,380.968 1072.28,386.209 1075.52,391.488 1078.76,396.804 1082.01,402.156 1085.25,407.545 1088.49,412.969 1091.74,418.428 1094.98,423.922 1098.22,429.449 1101.47,435.01 1104.71,440.604 1107.95,446.23 1111.19,451.888 1114.44,457.576 1117.68,463.295 1120.92,469.045 1124.17,474.823 1127.41,480.631 1130.65,486.466 1133.9,492.33 1137.14,498.22 1140.38,504.137 1143.62,510.08 1146.87,516.048 1150.11,522.041 1153.35,528.057 1156.6,534.098 1159.84,540.161 1163.08,546.246 1166.33,552.354 1169.57,558.482 1172.81,564.63 1176.06,570.799 1179.3,576.987 1182.54,583.193 1185.78,589.417 1189.03,595.659 1192.27,601.917 1195.51,608.192 1198.76,614.482 1202,620.787 1205.24,627.106 1208.49,633.439 1211.73,639.784 1214.97,646.142 1218.21,652.512 1221.46,658.892 1224.7,665.283 1227.94,671.684 1231.19,678.094 1234.43,684.513 1237.67,690.939 1240.92,697.373 1244.16,703.813 1247.4,710.259 1250.64,716.71 1253.89,723.166 1257.13,729.626 1260.37,736.089 1263.62,742.555 1266.86,749.023 1270.1,755.492 1273.35,761.962 1276.59,768.433 1279.83,774.902 1283.08,781.371 1286.32,787.837 1289.56,794.301 1292.8,800.762 1296.05,807.22 1299.29,813.673 1302.53,820.12 1305.78,826.562 1309.02,832.998 1312.26,839.427 1315.51,845.848 1318.75,852.261 1321.99,858.664 1325.23,865.059 1328.48,871.443 1331.72,877.816 1334.96,884.178 1338.21,890.527 1341.45,896.864 1344.69,903.188 1347.94,909.497 1351.18,915.792 1354.42,922.071 1357.66,928.335 1360.91,934.582 1364.15,940.812 1367.39,947.024 1370.64,953.218 1373.88,959.392 1377.12,965.548 1380.37,971.682 1383.61,977.796 1386.85,983.889 1390.1,989.959 1393.34,996.007 1396.58,1002.03 1399.82,1008.03 1403.07,1014.01 1406.31,1019.96 1409.55,1025.88 1412.8,1031.78 1416.04,1037.65 1419.28,1043.5 1422.53,1049.32 1425.77,1055.1 1429.01,1060.86 1432.25,1066.59 1435.5,1072.29 1438.74,1077.96 1441.98,1083.59 1445.23,1089.2 1448.47,1094.77 1451.71,1100.31 1454.96,1105.81 1458.2,1111.28 1461.44,1116.72 1464.68,1122.12 1467.93,1127.48 1471.17,1132.81 1474.41,1138.1 1477.66,1143.35 1480.9,1148.57 1484.14,1153.74 1487.39,1158.88 1490.63,1163.98 1493.87,1169.04 1497.11,1174.05 1500.36,1179.03 1503.6,1183.97 1506.84,1188.86 1510.09,1193.71 1513.33,1198.51 1516.57,1203.28 1519.82,1208 1523.06,1212.67 1526.3,1217.3 1529.55,1221.88 1532.79,1226.42 1536.03,1230.92 1539.27,1235.36 1542.52,1239.76 1545.76,1244.11 1549,1248.41 1552.25,1252.66 1555.49,1256.87 1558.73,1261.02 1561.98,1265.13 1565.22,1269.19 1568.46,1273.19 1571.7,1277.14 1574.95,1281.05 1578.19,1284.9 1581.43,1288.69 1584.68,1292.44 1587.92,1296.13 1591.16,1299.77 1594.41,1303.36 1597.65,1306.89 1600.89,1310.37 1604.13,1313.79 1607.38,1317.16 1610.62,1320.47 1613.86,1323.73 1617.11,1326.93 1620.35,1330.07 1623.59,1333.16 1626.84,1336.19 1630.08,1339.16 1633.32,1342.08 1636.57,1344.93 1639.81,1347.73 1643.05,1350.47 1646.29,1353.15 1649.54,1355.78 1652.78,1358.34 1656.02,1360.84 1659.27,1363.29 1662.51,1365.67 1665.75,1368 1669,1370.26 1672.24,1372.46 1675.48,1374.61 1678.72,1376.69 1681.97,1378.71 1685.21,1380.66 1688.45,1382.56 1691.7,1384.39 1694.94,1386.16 1698.18,1387.87 1701.43,1389.52 1704.67,1391.11 1707.91,1392.63 1711.15,1394.09 1714.4,1395.48 1717.64,1396.81 1720.88,1398.08 1724.13,1399.29 1727.37,1400.43 1730.61,1401.51 1733.86,1402.52 1737.1,1403.47 1740.34,1404.36 1743.59,1405.18 1746.83,1405.94 1750.07,1406.63 1753.31,1407.26 1756.56,1407.83 1759.8,1408.33 1763.04,1408.76 1766.29,1409.13 1769.53,1409.44 1772.77,1409.68 1776.02,1409.86 1779.26,1409.97 1782.5,1410.02 1785.74,1410 1788.99,1409.92 1792.23,1409.77 1795.47,1409.56 1798.72,1409.29 1801.96,1408.95 1805.2,1408.54 1808.45,1408.07 1811.69,1407.54 1814.93,1406.94 1818.17,1406.28 1821.42,1405.55 1824.66,1404.76 1827.9,1403.9 1831.15,1402.98 1834.39,1402 1837.63,1400.95 1840.88,1399.84 1844.12,1398.67 1847.36,1397.43 1850.61,1396.13 1853.85,1394.76 1857.09,1393.33 1860.33,1391.84 1863.58,1390.29 1866.82,1388.67 1870.06,1386.99 1873.31,1385.25 1876.55,1383.44 1879.79,1381.58 1883.04,1379.65 1886.28,1377.66 1889.52,1375.61 1892.76,1373.49 1896.01,1371.32 1899.25,1369.09 1902.49,1366.79 1905.74,1364.44 1908.98,1362.02 1912.22,1359.54 1915.47,1357.01 1918.71,1354.41 1921.95,1351.76 1925.19,1349.05 1928.44,1346.28 1931.68,1343.45 1934.92,1340.56 1938.17,1337.61 1941.41,1334.61 1944.65,1331.55 1947.9,1328.44 1951.14,1325.26 1954.38,1322.03 1957.63,1318.75 1960.87,1315.41 1964.11,1312.01 1967.35,1308.56 1970.6,1305.05 1973.84,1301.49 1977.08,1297.88 1980.33,1294.21 1983.57,1290.49 1986.81,1286.72 1990.06,1282.89 1993.3,1279.01 1996.54,1275.09 1999.78,1271.11 2003.03,1267.07 2006.27,1262.99 2009.51,1258.86 2012.76,1254.68 2016,1250.45 2019.24,1246.17 2022.49,1241.84 2025.73,1237.47 2028.97,1233.05 2032.21,1228.58 2035.46,1224.06 2038.7,1219.5 2041.94,1214.89 2045.19,1210.24 2048.43,1205.54 2051.67,1200.8 2054.92,1196.01 2058.16,1191.18 2061.4,1186.31 2064.65,1181.39 2067.89,1176.44 2071.13,1171.44 2074.37,1166.4 2077.62,1161.32 2080.86,1156.2 2084.1,1151.05 2087.35,1145.85 2090.59,1140.61 2093.83,1135.34 2097.08,1130.03 2100.32,1124.68 2103.56,1119.3 2106.8,1113.88 2110.05,1108.43 2113.29,1102.94 2116.53,1097.42 2119.78,1091.86 2123.02,1086.27 2126.26,1080.65 2129.51,1075 2132.75,1069.32 2135.99,1063.6 2139.23,1057.86 2142.48,1052.08 2145.72,1046.28 2148.96,1040.45 2152.21,1034.59 2155.45,1028.71 2158.69,1022.79 2161.94,1016.85 2165.18,1010.89 2168.42,1004.9 2171.67,998.888 2174.91,992.852 2178.15,986.792 2181.39,980.71 2184.64,974.606 2187.88,968.481 2191.12,962.336 2194.37,956.17 2197.61,949.986 2200.85,943.782 2204.1,937.561 2207.34,931.322 2210.58,925.066 2213.82,918.794 2217.07,912.506 2220.31,906.204 2223.55,899.887 2226.8,893.557 2230.04,887.213 2233.28,880.857 2236.53,874.489 2239.77,868.11 2243.01,861.721 2246.25,855.321 2249.5,848.913 2252.74,842.496 2255.98,836.071 2259.23,829.638 2262.47,823.199 2265.71,816.754 2268.96,810.303 2272.2,803.848 2275.44,797.389 2278.69,790.926 2281.93,784.461 2285.17,777.993 2288.41,771.524 2291.66,765.054 "/>
<circle clip-path="url(#clip112)" cx="1283.08" cy="756.272" r="14.4" fill="#e26f46" fill-rule="evenodd" fill-opacity="1" stroke="#000000" stroke-opacity="1" stroke-width="3.2"/>
<circle clip-path="url(#clip112)" cx="1964.11" cy="1169.73" r="14.4" fill="#e26f46" fill-rule="evenodd" fill-opacity="1" stroke="#000000" stroke-opacity="1" stroke-width="3.2"/>
<circle clip-path="url(#clip112)" cx="1347.94" cy="928.162" r="14.4" fill="#e26f46" fill-rule="evenodd" fill-opacity="1" stroke="#000000" stroke-opacity="1" stroke-width="3.2"/>
<circle clip-path="url(#clip112)" cx="1636.57" cy="1386.68" r="14.4" fill="#e26f46" fill-rule="evenodd" fill-opacity="1" stroke="#000000" stroke-opacity="1" stroke-width="3.2"/>
<circle clip-path="url(#clip112)" cx="1970.6" cy="1445.72" r="14.4" fill="#e26f46" fill-rule="evenodd" fill-opacity="1" stroke="#000000" stroke-opacity="1" stroke-width="3.2"/>
<circle clip-path="url(#clip112)" cx="1250.64" cy="850.356" r="14.4" fill="#e26f46" fill-rule="evenodd" fill-opacity="1" stroke="#000000" stroke-opacity="1" stroke-width="3.2"/>
<circle clip-path="url(#clip112)" cx="1072.28" cy="401.252" r="14.4" fill="#e26f46" fill-rule="evenodd" fill-opacity="1" stroke="#000000" stroke-opacity="1" stroke-width="3.2"/>
<circle clip-path="url(#clip112)" cx="349.083" cy="463.812" r="14.4" fill="#e26f46" fill-rule="evenodd" fill-opacity="1" stroke="#000000" stroke-opacity="1" stroke-width="3.2"/>
<circle clip-path="url(#clip112)" cx="1409.55" cy="1068.03" r="14.4" fill="#e26f46" fill-rule="evenodd" fill-opacity="1" stroke="#000000" stroke-opacity="1" stroke-width="3.2"/>
<circle clip-path="url(#clip112)" cx="1918.71" cy="1233.86" r="14.4" fill="#e26f46" fill-rule="evenodd" fill-opacity="1" stroke="#000000" stroke-opacity="1" stroke-width="3.2"/>
<circle clip-path="url(#clip112)" cx="676.629" cy="87.9763" r="14.4" fill="#e26f46" fill-rule="evenodd" fill-opacity="1" stroke="#000000" stroke-opacity="1" stroke-width="3.2"/>
<circle clip-path="url(#clip112)" cx="2171.67" cy="1099.12" r="14.4" fill="#e26f46" fill-rule="evenodd" fill-opacity="1" stroke="#000000" stroke-opacity="1" stroke-width="3.2"/>
<circle clip-path="url(#clip112)" cx="1620.35" cy="1282.74" r="14.4" fill="#e26f46" fill-rule="evenodd" fill-opacity="1" stroke="#000000" stroke-opacity="1" stroke-width="3.2"/>
<circle clip-path="url(#clip112)" cx="819.322" cy="170.165" r="14.4" fill="#e26f46" fill-rule="evenodd" fill-opacity="1" stroke="#000000" stroke-opacity="1" stroke-width="3.2"/>
<circle clip-path="url(#clip112)" cx="1730.61" cy="1293.08" r="14.4" fill="#e26f46" fill-rule="evenodd" fill-opacity="1" stroke="#000000" stroke-opacity="1" stroke-width="3.2"/>
<circle clip-path="url(#clip112)" cx="744.732" cy="260.512" r="14.4" fill="#e26f46" fill-rule="evenodd" fill-opacity="1" stroke="#000000" stroke-opacity="1" stroke-width="3.2"/>
<circle clip-path="url(#clip112)" cx="1367.39" cy="991.138" r="14.4" fill="#e26f46" fill-rule="evenodd" fill-opacity="1" stroke="#000000" stroke-opacity="1" stroke-width="3.2"/>
<circle clip-path="url(#clip112)" cx="942.557" cy="289.903" r="14.4" fill="#e26f46" fill-rule="evenodd" fill-opacity="1" stroke="#000000" stroke-opacity="1" stroke-width="3.2"/>
<circle clip-path="url(#clip112)" cx="637.712" cy="299.79" r="14.4" fill="#e26f46" fill-rule="evenodd" fill-opacity="1" stroke="#000000" stroke-opacity="1" stroke-width="3.2"/>
<circle clip-path="url(#clip112)" cx="1552.25" cy="1171.35" r="14.4" fill="#e26f46" fill-rule="evenodd" fill-opacity="1" stroke="#000000" stroke-opacity="1" stroke-width="3.2"/>
<path clip-path="url(#clip110)" d="M1953.46 250.738 L2280.8 250.738 L2280.8 95.2176 L1953.46 95.2176  Z" fill="#ffffff" fill-rule="evenodd" fill-opacity="1"/>
<polyline clip-path="url(#clip110)" style="stroke:#000000; stroke-linecap:round; stroke-linejoin:round; stroke-width:4; stroke-opacity:1; fill:none" points="1953.46,250.738 2280.8,250.738 2280.8,95.2176 1953.46,95.2176 1953.46,250.738 "/>
<polyline clip-path="url(#clip110)" style="stroke:#009af9; stroke-linecap:round; stroke-linejoin:round; stroke-width:4; stroke-opacity:1; fill:none" points="1977.44,147.058 2121.36,147.058 "/>
<path clip-path="url(#clip110)" d="M2152.76 131.051 L2152.76 138.412 L2161.53 138.412 L2161.53 141.722 L2152.76 141.722 L2152.76 155.796 Q2152.76 158.967 2153.61 159.87 Q2154.49 160.773 2157.16 160.773 L2161.53 160.773 L2161.53 164.338 L2157.16 164.338 Q2152.23 164.338 2150.35 162.509 Q2148.48 160.657 2148.48 155.796 L2148.48 141.722 L2145.35 141.722 L2145.35 138.412 L2148.48 138.412 L2148.48 131.051 L2152.76 131.051 Z" fill="#000000" fill-rule="nonzero" fill-opacity="1" /><path clip-path="url(#clip110)" d="M2182.16 142.393 Q2181.44 141.977 2180.58 141.791 Q2179.75 141.583 2178.73 141.583 Q2175.12 141.583 2173.17 143.944 Q2171.25 146.282 2171.25 150.68 L2171.25 164.338 L2166.97 164.338 L2166.97 138.412 L2171.25 138.412 L2171.25 142.44 Q2172.6 140.078 2174.75 138.944 Q2176.9 137.787 2179.98 137.787 Q2180.42 137.787 2180.95 137.856 Q2181.48 137.903 2182.13 138.018 L2182.16 142.393 Z" fill="#000000" fill-rule="nonzero" fill-opacity="1" /><path clip-path="url(#clip110)" d="M2186.18 154.106 L2186.18 138.412 L2190.44 138.412 L2190.44 153.944 Q2190.44 157.625 2191.88 159.476 Q2193.31 161.305 2196.18 161.305 Q2199.63 161.305 2201.62 159.106 Q2203.64 156.907 2203.64 153.111 L2203.64 138.412 L2207.9 138.412 L2207.9 164.338 L2203.64 164.338 L2203.64 160.356 Q2202.09 162.717 2200.03 163.875 Q2197.99 165.009 2195.28 165.009 Q2190.81 165.009 2188.5 162.231 Q2186.18 159.453 2186.18 154.106 M2196.9 137.787 L2196.9 137.787 Z" fill="#000000" fill-rule="nonzero" fill-opacity="1" /><path clip-path="url(#clip110)" d="M2220.88 131.051 L2220.88 138.412 L2229.66 138.412 L2229.66 141.722 L2220.88 141.722 L2220.88 155.796 Q2220.88 158.967 2221.74 159.87 Q2222.62 160.773 2225.28 160.773 L2229.66 160.773 L2229.66 164.338 L2225.28 164.338 Q2220.35 164.338 2218.48 162.509 Q2216.6 160.657 2216.6 155.796 L2216.6 141.722 L2213.48 141.722 L2213.48 138.412 L2216.6 138.412 L2216.6 131.051 L2220.88 131.051 Z" fill="#000000" fill-rule="nonzero" fill-opacity="1" /><path clip-path="url(#clip110)" d="M2256.81 148.689 L2256.81 164.338 L2252.55 164.338 L2252.55 148.828 Q2252.55 145.148 2251.11 143.319 Q2249.68 141.49 2246.81 141.49 Q2243.36 141.49 2241.37 143.69 Q2239.38 145.889 2239.38 149.685 L2239.38 164.338 L2235.1 164.338 L2235.1 128.319 L2239.38 128.319 L2239.38 142.44 Q2240.91 140.102 2242.97 138.944 Q2245.05 137.787 2247.76 137.787 Q2252.23 137.787 2254.52 140.565 Q2256.81 143.319 2256.81 148.689 Z" fill="#000000" fill-rule="nonzero" fill-opacity="1" /><circle clip-path="url(#clip110)" cx="2049.4" cy="198.898" r="20.48" fill="#e26f46" fill-rule="evenodd" fill-opacity="1" stroke="#000000" stroke-opacity="1" stroke-width="4.55111"/>
<path clip-path="url(#clip110)" d="M2164.26 194.187 L2164.26 180.159 L2168.52 180.159 L2168.52 216.178 L2164.26 216.178 L2164.26 212.289 Q2162.92 214.603 2160.86 215.738 Q2158.82 216.849 2155.95 216.849 Q2151.25 216.849 2148.29 213.099 Q2145.35 209.349 2145.35 203.238 Q2145.35 197.127 2148.29 193.377 Q2151.25 189.627 2155.95 189.627 Q2158.82 189.627 2160.86 190.761 Q2162.92 191.872 2164.26 194.187 M2149.75 203.238 Q2149.75 207.937 2151.67 210.622 Q2153.61 213.284 2156.99 213.284 Q2160.37 213.284 2162.32 210.622 Q2164.26 207.937 2164.26 203.238 Q2164.26 198.539 2162.32 195.877 Q2160.37 193.192 2156.99 193.192 Q2153.61 193.192 2151.67 195.877 Q2149.75 198.539 2149.75 203.238 Z" fill="#000000" fill-rule="nonzero" fill-opacity="1" /><path clip-path="url(#clip110)" d="M2189.08 203.145 Q2183.92 203.145 2181.92 204.326 Q2179.93 205.506 2179.93 208.354 Q2179.93 210.622 2181.42 211.965 Q2182.92 213.284 2185.49 213.284 Q2189.03 213.284 2191.16 210.784 Q2193.31 208.261 2193.31 204.094 L2193.31 203.145 L2189.08 203.145 M2197.57 201.386 L2197.57 216.178 L2193.31 216.178 L2193.31 212.242 Q2191.85 214.603 2189.68 215.738 Q2187.5 216.849 2184.36 216.849 Q2180.37 216.849 2178.01 214.627 Q2175.67 212.381 2175.67 208.631 Q2175.67 204.256 2178.59 202.034 Q2181.53 199.812 2187.34 199.812 L2193.31 199.812 L2193.31 199.395 Q2193.31 196.455 2191.37 194.858 Q2189.45 193.238 2185.95 193.238 Q2183.73 193.238 2181.62 193.77 Q2179.52 194.303 2177.57 195.367 L2177.57 191.432 Q2179.91 190.53 2182.11 190.09 Q2184.31 189.627 2186.39 189.627 Q2192.02 189.627 2194.79 192.543 Q2197.57 195.46 2197.57 201.386 Z" fill="#000000" fill-rule="nonzero" fill-opacity="1" /><path clip-path="url(#clip110)" d="M2210.56 182.891 L2210.56 190.252 L2219.33 190.252 L2219.33 193.562 L2210.56 193.562 L2210.56 207.636 Q2210.56 210.807 2211.42 211.71 Q2212.29 212.613 2214.96 212.613 L2219.33 212.613 L2219.33 216.178 L2214.96 216.178 Q2210.03 216.178 2208.15 214.349 Q2206.28 212.497 2206.28 207.636 L2206.28 193.562 L2203.15 193.562 L2203.15 190.252 L2206.28 190.252 L2206.28 182.891 L2210.56 182.891 Z" fill="#000000" fill-rule="nonzero" fill-opacity="1" /><path clip-path="url(#clip110)" d="M2236.72 203.145 Q2231.55 203.145 2229.56 204.326 Q2227.57 205.506 2227.57 208.354 Q2227.57 210.622 2229.05 211.965 Q2230.56 213.284 2233.13 213.284 Q2236.67 213.284 2238.8 210.784 Q2240.95 208.261 2240.95 204.094 L2240.95 203.145 L2236.72 203.145 M2245.21 201.386 L2245.21 216.178 L2240.95 216.178 L2240.95 212.242 Q2239.49 214.603 2237.32 215.738 Q2235.14 216.849 2231.99 216.849 Q2228.01 216.849 2225.65 214.627 Q2223.31 212.381 2223.31 208.631 Q2223.31 204.256 2226.23 202.034 Q2229.17 199.812 2234.98 199.812 L2240.95 199.812 L2240.95 199.395 Q2240.95 196.455 2239.01 194.858 Q2237.09 193.238 2233.59 193.238 Q2231.37 193.238 2229.26 193.77 Q2227.16 194.303 2225.21 195.367 L2225.21 191.432 Q2227.55 190.53 2229.75 190.09 Q2231.95 189.627 2234.03 189.627 Q2239.66 189.627 2242.43 192.543 Q2245.21 195.46 2245.21 201.386 Z" fill="#000000" fill-rule="nonzero" fill-opacity="1" /></svg>
