<?xml version="1.0" encoding="utf-8"?>
<svg xmlns="http://www.w3.org/2000/svg" xmlns:xlink="http://www.w3.org/1999/xlink" width="600" height="400" viewBox="0 0 2400 1600">
<defs>
  <clipPath id="clip170">
    <rect x="0" y="0" width="2400" height="1600"/>
  </clipPath>
</defs>
<path clip-path="url(#clip170)" d="M0 1600 L2400 1600 L2400 0 L0 0  Z" fill="#ffffff" fill-rule="evenodd" fill-opacity="1"/>
<defs>
  <clipPath id="clip171">
    <rect x="480" y="0" width="1681" height="1600"/>
  </clipPath>
</defs>
<path clip-path="url(#clip170)" d="M193.936 1486.45 L2352.76 1486.45 L2352.76 47.2441 L193.936 47.2441  Z" fill="#ffffff" fill-rule="evenodd" fill-opacity="1"/>
<defs>
  <clipPath id="clip172">
    <rect x="193" y="47" width="2160" height="1440"/>
  </clipPath>
</defs>
<polyline clip-path="url(#clip172)" style="stroke:#000000; stroke-linecap:round; stroke-linejoin:round; stroke-width:2; stroke-opacity:0.1; fill:none" points="255.035,1486.45 255.035,47.2441 "/>
<polyline clip-path="url(#clip172)" style="stroke:#000000; stroke-linecap:round; stroke-linejoin:round; stroke-width:2; stroke-opacity:0.1; fill:none" points="579.338,1486.45 579.338,47.2441 "/>
<polyline clip-path="url(#clip172)" style="stroke:#000000; stroke-linecap:round; stroke-linejoin:round; stroke-width:2; stroke-opacity:0.1; fill:none" points="903.641,1486.45 903.641,47.2441 "/>
<polyline clip-path="url(#clip172)" style="stroke:#000000; stroke-linecap:round; stroke-linejoin:round; stroke-width:2; stroke-opacity:0.1; fill:none" points="1227.94,1486.45 1227.94,47.2441 "/>
<polyline clip-path="url(#clip172)" style="stroke:#000000; stroke-linecap:round; stroke-linejoin:round; stroke-width:2; stroke-opacity:0.1; fill:none" points="1552.25,1486.45 1552.25,47.2441 "/>
<polyline clip-path="url(#clip172)" style="stroke:#000000; stroke-linecap:round; stroke-linejoin:round; stroke-width:2; stroke-opacity:0.1; fill:none" points="1876.55,1486.45 1876.55,47.2441 "/>
<polyline clip-path="url(#clip172)" style="stroke:#000000; stroke-linecap:round; stroke-linejoin:round; stroke-width:2; stroke-opacity:0.1; fill:none" points="2200.85,1486.45 2200.85,47.2441 "/>
<polyline clip-path="url(#clip172)" style="stroke:#000000; stroke-linecap:round; stroke-linejoin:round; stroke-width:2; stroke-opacity:0.1; fill:none" points="193.936,1249.46 2352.76,1249.46 "/>
<polyline clip-path="url(#clip172)" style="stroke:#000000; stroke-linecap:round; stroke-linejoin:round; stroke-width:2; stroke-opacity:0.1; fill:none" points="193.936,1003.02 2352.76,1003.02 "/>
<polyline clip-path="url(#clip172)" style="stroke:#000000; stroke-linecap:round; stroke-linejoin:round; stroke-width:2; stroke-opacity:0.1; fill:none" points="193.936,756.58 2352.76,756.58 "/>
<polyline clip-path="url(#clip172)" style="stroke:#000000; stroke-linecap:round; stroke-linejoin:round; stroke-width:2; stroke-opacity:0.1; fill:none" points="193.936,510.137 2352.76,510.137 "/>
<polyline clip-path="url(#clip172)" style="stroke:#000000; stroke-linecap:round; stroke-linejoin:round; stroke-width:2; stroke-opacity:0.1; fill:none" points="193.936,263.695 2352.76,263.695 "/>
<polyline clip-path="url(#clip170)" style="stroke:#000000; stroke-linecap:round; stroke-linejoin:round; stroke-width:4; stroke-opacity:1; fill:none" points="193.936,1486.45 2352.76,1486.45 "/>
<polyline clip-path="url(#clip170)" style="stroke:#000000; stroke-linecap:round; stroke-linejoin:round; stroke-width:4; stroke-opacity:1; fill:none" points="255.035,1486.45 255.035,1467.55 "/>
<polyline clip-path="url(#clip170)" style="stroke:#000000; stroke-linecap:round; stroke-linejoin:round; stroke-width:4; stroke-opacity:1; fill:none" points="579.338,1486.45 579.338,1467.55 "/>
<polyline clip-path="url(#clip170)" style="stroke:#000000; stroke-linecap:round; stroke-linejoin:round; stroke-width:4; stroke-opacity:1; fill:none" points="903.641,1486.45 903.641,1467.55 "/>
<polyline clip-path="url(#clip170)" style="stroke:#000000; stroke-linecap:round; stroke-linejoin:round; stroke-width:4; stroke-opacity:1; fill:none" points="1227.94,1486.45 1227.94,1467.55 "/>
<polyline clip-path="url(#clip170)" style="stroke:#000000; stroke-linecap:round; stroke-linejoin:round; stroke-width:4; stroke-opacity:1; fill:none" points="1552.25,1486.45 1552.25,1467.55 "/>
<polyline clip-path="url(#clip170)" style="stroke:#000000; stroke-linecap:round; stroke-linejoin:round; stroke-width:4; stroke-opacity:1; fill:none" points="1876.55,1486.45 1876.55,1467.55 "/>
<polyline clip-path="url(#clip170)" style="stroke:#000000; stroke-linecap:round; stroke-linejoin:round; stroke-width:4; stroke-opacity:1; fill:none" points="2200.85,1486.45 2200.85,1467.55 "/>
<path clip-path="url(#clip170)" d="M255.035 1517.37 Q251.424 1517.37 249.595 1520.93 Q247.789 1524.47 247.789 1531.6 Q247.789 1538.71 249.595 1542.27 Q251.424 1545.82 255.035 1545.82 Q258.669 1545.82 260.474 1542.27 Q262.303 1538.71 262.303 1531.6 Q262.303 1524.47 260.474 1520.93 Q258.669 1517.37 255.035 1517.37 M255.035 1513.66 Q260.845 1513.66 263.9 1518.27 Q266.979 1522.85 266.979 1531.6 Q266.979 1540.33 263.9 1544.94 Q260.845 1549.52 255.035 1549.52 Q249.225 1549.52 246.146 1544.94 Q243.09 1540.33 243.09 1531.6 Q243.09 1522.85 246.146 1518.27 Q249.225 1513.66 255.035 1513.66 Z" fill="#000000" fill-rule="nonzero" fill-opacity="1" /><path clip-path="url(#clip170)" d="M569.72 1544.91 L577.358 1544.91 L577.358 1518.55 L569.048 1520.21 L569.048 1515.95 L577.312 1514.29 L581.988 1514.29 L581.988 1544.91 L589.627 1544.91 L589.627 1548.85 L569.72 1548.85 L569.72 1544.91 Z" fill="#000000" fill-rule="nonzero" fill-opacity="1" /><path clip-path="url(#clip170)" d="M898.293 1544.91 L914.613 1544.91 L914.613 1548.85 L892.668 1548.85 L892.668 1544.91 Q895.33 1542.16 899.914 1537.53 Q904.52 1532.88 905.701 1531.53 Q907.946 1529.01 908.826 1527.27 Q909.729 1525.51 909.729 1523.82 Q909.729 1521.07 907.784 1519.33 Q905.863 1517.6 902.761 1517.6 Q900.562 1517.6 898.108 1518.36 Q895.678 1519.13 892.9 1520.68 L892.9 1515.95 Q895.724 1514.82 898.178 1514.24 Q900.631 1513.66 902.668 1513.66 Q908.039 1513.66 911.233 1516.35 Q914.428 1519.03 914.428 1523.52 Q914.428 1525.65 913.617 1527.57 Q912.83 1529.47 910.724 1532.07 Q910.145 1532.74 907.043 1535.95 Q903.942 1539.15 898.293 1544.91 Z" fill="#000000" fill-rule="nonzero" fill-opacity="1" /><path clip-path="url(#clip170)" d="M1232.19 1530.21 Q1235.55 1530.93 1237.42 1533.2 Q1239.32 1535.47 1239.32 1538.8 Q1239.32 1543.92 1235.8 1546.72 Q1232.28 1549.52 1225.8 1549.52 Q1223.63 1549.52 1221.31 1549.08 Q1219.02 1548.66 1216.57 1547.81 L1216.57 1543.29 Q1218.51 1544.43 1220.83 1545.01 Q1223.14 1545.58 1225.66 1545.58 Q1230.06 1545.58 1232.35 1543.85 Q1234.67 1542.11 1234.67 1538.8 Q1234.67 1535.75 1232.52 1534.03 Q1230.39 1532.3 1226.57 1532.3 L1222.54 1532.3 L1222.54 1528.45 L1226.75 1528.45 Q1230.2 1528.45 1232.03 1527.09 Q1233.86 1525.7 1233.86 1523.11 Q1233.86 1520.45 1231.96 1519.03 Q1230.08 1517.6 1226.57 1517.6 Q1224.64 1517.6 1222.45 1518.01 Q1220.25 1518.43 1217.61 1519.31 L1217.61 1515.14 Q1220.27 1514.4 1222.58 1514.03 Q1224.92 1513.66 1226.98 1513.66 Q1232.31 1513.66 1235.41 1516.09 Q1238.51 1518.5 1238.51 1522.62 Q1238.51 1525.49 1236.87 1527.48 Q1235.22 1529.45 1232.19 1530.21 Z" fill="#000000" fill-rule="nonzero" fill-opacity="1" /><path clip-path="url(#clip170)" d="M1555.26 1518.36 L1543.45 1536.81 L1555.26 1536.81 L1555.26 1518.36 M1554.03 1514.29 L1559.91 1514.29 L1559.91 1536.81 L1564.84 1536.81 L1564.84 1540.7 L1559.91 1540.7 L1559.91 1548.85 L1555.26 1548.85 L1555.26 1540.7 L1539.65 1540.7 L1539.65 1536.19 L1554.03 1514.29 Z" fill="#000000" fill-rule="nonzero" fill-opacity="1" /><path clip-path="url(#clip170)" d="M1866.83 1514.29 L1885.18 1514.29 L1885.18 1518.22 L1871.11 1518.22 L1871.11 1526.7 Q1872.13 1526.35 1873.15 1526.19 Q1874.17 1526 1875.18 1526 Q1880.97 1526 1884.35 1529.17 Q1887.73 1532.34 1887.73 1537.76 Q1887.73 1543.34 1884.26 1546.44 Q1880.79 1549.52 1874.47 1549.52 Q1872.29 1549.52 1870.02 1549.15 Q1867.78 1548.78 1865.37 1548.04 L1865.37 1543.34 Q1867.45 1544.47 1869.67 1545.03 Q1871.9 1545.58 1874.37 1545.58 Q1878.38 1545.58 1880.72 1543.48 Q1883.05 1541.37 1883.05 1537.76 Q1883.05 1534.15 1880.72 1532.04 Q1878.38 1529.94 1874.37 1529.94 Q1872.5 1529.94 1870.62 1530.35 Q1868.77 1530.77 1866.83 1531.65 L1866.83 1514.29 Z" fill="#000000" fill-rule="nonzero" fill-opacity="1" /><path clip-path="url(#clip170)" d="M2201.26 1529.7 Q2198.11 1529.7 2196.26 1531.86 Q2194.43 1534.01 2194.43 1537.76 Q2194.43 1541.49 2196.26 1543.66 Q2198.11 1545.82 2201.26 1545.82 Q2204.41 1545.82 2206.23 1543.66 Q2208.09 1541.49 2208.09 1537.76 Q2208.09 1534.01 2206.23 1531.86 Q2204.41 1529.7 2201.26 1529.7 M2210.54 1515.05 L2210.54 1519.31 Q2208.78 1518.48 2206.98 1518.04 Q2205.19 1517.6 2203.43 1517.6 Q2198.8 1517.6 2196.35 1520.72 Q2193.92 1523.85 2193.57 1530.17 Q2194.94 1528.15 2197 1527.09 Q2199.06 1526 2201.54 1526 Q2206.74 1526 2209.75 1529.17 Q2212.79 1532.32 2212.79 1537.76 Q2212.79 1543.08 2209.64 1546.3 Q2206.49 1549.52 2201.26 1549.52 Q2195.26 1549.52 2192.09 1544.94 Q2188.92 1540.33 2188.92 1531.6 Q2188.92 1523.41 2192.81 1518.55 Q2196.7 1513.66 2203.25 1513.66 Q2205.01 1513.66 2206.79 1514.01 Q2208.6 1514.36 2210.54 1515.05 Z" fill="#000000" fill-rule="nonzero" fill-opacity="1" /><polyline clip-path="url(#clip170)" style="stroke:#000000; stroke-linecap:round; stroke-linejoin:round; stroke-width:4; stroke-opacity:1; fill:none" points="193.936,1486.45 193.936,47.2441 "/>
<polyline clip-path="url(#clip170)" style="stroke:#000000; stroke-linecap:round; stroke-linejoin:round; stroke-width:4; stroke-opacity:1; fill:none" points="193.936,1249.46 212.834,1249.46 "/>
<polyline clip-path="url(#clip170)" style="stroke:#000000; stroke-linecap:round; stroke-linejoin:round; stroke-width:4; stroke-opacity:1; fill:none" points="193.936,1003.02 212.834,1003.02 "/>
<polyline clip-path="url(#clip170)" style="stroke:#000000; stroke-linecap:round; stroke-linejoin:round; stroke-width:4; stroke-opacity:1; fill:none" points="193.936,756.58 212.834,756.58 "/>
<polyline clip-path="url(#clip170)" style="stroke:#000000; stroke-linecap:round; stroke-linejoin:round; stroke-width:4; stroke-opacity:1; fill:none" points="193.936,510.137 212.834,510.137 "/>
<polyline clip-path="url(#clip170)" style="stroke:#000000; stroke-linecap:round; stroke-linejoin:round; stroke-width:4; stroke-opacity:1; fill:none" points="193.936,263.695 212.834,263.695 "/>
<path clip-path="url(#clip170)" d="M50.9921 1249.92 L80.6679 1249.92 L80.6679 1253.85 L50.9921 1253.85 L50.9921 1249.92 Z" fill="#000000" fill-rule="nonzero" fill-opacity="1" /><path clip-path="url(#clip170)" d="M91.5706 1262.81 L99.2095 1262.81 L99.2095 1236.44 L90.8993 1238.11 L90.8993 1233.85 L99.1632 1232.18 L103.839 1232.18 L103.839 1262.81 L111.478 1262.81 L111.478 1266.74 L91.5706 1266.74 L91.5706 1262.81 Z" fill="#000000" fill-rule="nonzero" fill-opacity="1" /><path clip-path="url(#clip170)" d="M120.922 1260.86 L125.807 1260.86 L125.807 1266.74 L120.922 1266.74 L120.922 1260.86 Z" fill="#000000" fill-rule="nonzero" fill-opacity="1" /><path clip-path="url(#clip170)" d="M145.992 1235.26 Q142.381 1235.26 140.552 1238.83 Q138.746 1242.37 138.746 1249.5 Q138.746 1256.6 140.552 1260.17 Q142.381 1263.71 145.992 1263.71 Q149.626 1263.71 151.431 1260.17 Q153.26 1256.6 153.26 1249.5 Q153.26 1242.37 151.431 1238.83 Q149.626 1235.26 145.992 1235.26 M145.992 1231.56 Q151.802 1231.56 154.857 1236.17 Q157.936 1240.75 157.936 1249.5 Q157.936 1258.23 154.857 1262.83 Q151.802 1267.41 145.992 1267.41 Q140.181 1267.41 137.103 1262.83 Q134.047 1258.23 134.047 1249.5 Q134.047 1240.75 137.103 1236.17 Q140.181 1231.56 145.992 1231.56 Z" fill="#000000" fill-rule="nonzero" fill-opacity="1" /><path clip-path="url(#clip170)" d="M51.9875 1003.47 L81.6633 1003.47 L81.6633 1007.41 L51.9875 1007.41 L51.9875 1003.47 Z" fill="#000000" fill-rule="nonzero" fill-opacity="1" /><path clip-path="url(#clip170)" d="M101.756 988.82 Q98.1447 988.82 96.316 992.385 Q94.5104 995.927 94.5104 1003.06 Q94.5104 1010.16 96.316 1013.73 Q98.1447 1017.27 101.756 1017.27 Q105.39 1017.27 107.196 1013.73 Q109.024 1010.16 109.024 1003.06 Q109.024 995.927 107.196 992.385 Q105.39 988.82 101.756 988.82 M101.756 985.117 Q107.566 985.117 110.621 989.723 Q113.7 994.306 113.7 1003.06 Q113.7 1011.78 110.621 1016.39 Q107.566 1020.97 101.756 1020.97 Q95.9456 1020.97 92.8669 1016.39 Q89.8114 1011.78 89.8114 1003.06 Q89.8114 994.306 92.8669 989.723 Q95.9456 985.117 101.756 985.117 Z" fill="#000000" fill-rule="nonzero" fill-opacity="1" /><path clip-path="url(#clip170)" d="M121.918 1014.42 L126.802 1014.42 L126.802 1020.3 L121.918 1020.3 L121.918 1014.42 Z" fill="#000000" fill-rule="nonzero" fill-opacity="1" /><path clip-path="url(#clip170)" d="M137.033 985.742 L155.39 985.742 L155.39 989.677 L141.316 989.677 L141.316 998.149 Q142.334 997.802 143.353 997.64 Q144.371 997.454 145.39 997.454 Q151.177 997.454 154.556 1000.63 Q157.936 1003.8 157.936 1009.21 Q157.936 1014.79 154.464 1017.89 Q150.992 1020.97 144.672 1020.97 Q142.496 1020.97 140.228 1020.6 Q137.982 1020.23 135.575 1019.49 L135.575 1014.79 Q137.658 1015.93 139.881 1016.48 Q142.103 1017.04 144.58 1017.04 Q148.584 1017.04 150.922 1014.93 Q153.26 1012.82 153.26 1009.21 Q153.26 1005.6 150.922 1003.5 Q148.584 1001.39 144.58 1001.39 Q142.705 1001.39 140.83 1001.81 Q138.978 1002.22 137.033 1003.1 L137.033 985.742 Z" fill="#000000" fill-rule="nonzero" fill-opacity="1" /><path clip-path="url(#clip170)" d="M100.76 742.378 Q97.1493 742.378 95.3206 745.943 Q93.515 749.485 93.515 756.614 Q93.515 763.721 95.3206 767.285 Q97.1493 770.827 100.76 770.827 Q104.395 770.827 106.2 767.285 Q108.029 763.721 108.029 756.614 Q108.029 749.485 106.2 745.943 Q104.395 742.378 100.76 742.378 M100.76 738.675 Q106.571 738.675 109.626 743.281 Q112.705 747.864 112.705 756.614 Q112.705 765.341 109.626 769.947 Q106.571 774.531 100.76 774.531 Q94.9502 774.531 91.8715 769.947 Q88.816 765.341 88.816 756.614 Q88.816 747.864 91.8715 743.281 Q94.9502 738.675 100.76 738.675 Z" fill="#000000" fill-rule="nonzero" fill-opacity="1" /><path clip-path="url(#clip170)" d="M120.922 767.98 L125.807 767.98 L125.807 773.86 L120.922 773.86 L120.922 767.98 Z" fill="#000000" fill-rule="nonzero" fill-opacity="1" /><path clip-path="url(#clip170)" d="M145.992 742.378 Q142.381 742.378 140.552 745.943 Q138.746 749.485 138.746 756.614 Q138.746 763.721 140.552 767.285 Q142.381 770.827 145.992 770.827 Q149.626 770.827 151.431 767.285 Q153.26 763.721 153.26 756.614 Q153.26 749.485 151.431 745.943 Q149.626 742.378 145.992 742.378 M145.992 738.675 Q151.802 738.675 154.857 743.281 Q157.936 747.864 157.936 756.614 Q157.936 765.341 154.857 769.947 Q151.802 774.531 145.992 774.531 Q140.181 774.531 137.103 769.947 Q134.047 765.341 134.047 756.614 Q134.047 747.864 137.103 743.281 Q140.181 738.675 145.992 738.675 Z" fill="#000000" fill-rule="nonzero" fill-opacity="1" /><path clip-path="url(#clip170)" d="M101.756 495.936 Q98.1447 495.936 96.316 499.501 Q94.5104 503.043 94.5104 510.172 Q94.5104 517.279 96.316 520.843 Q98.1447 524.385 101.756 524.385 Q105.39 524.385 107.196 520.843 Q109.024 517.279 109.024 510.172 Q109.024 503.043 107.196 499.501 Q105.39 495.936 101.756 495.936 M101.756 492.232 Q107.566 492.232 110.621 496.839 Q113.7 501.422 113.7 510.172 Q113.7 518.899 110.621 523.505 Q107.566 528.089 101.756 528.089 Q95.9456 528.089 92.8669 523.505 Q89.8114 518.899 89.8114 510.172 Q89.8114 501.422 92.8669 496.839 Q95.9456 492.232 101.756 492.232 Z" fill="#000000" fill-rule="nonzero" fill-opacity="1" /><path clip-path="url(#clip170)" d="M121.918 521.538 L126.802 521.538 L126.802 527.417 L121.918 527.417 L121.918 521.538 Z" fill="#000000" fill-rule="nonzero" fill-opacity="1" /><path clip-path="url(#clip170)" d="M137.033 492.857 L155.39 492.857 L155.39 496.793 L141.316 496.793 L141.316 505.265 Q142.334 504.918 143.353 504.756 Q144.371 504.57 145.39 504.57 Q151.177 504.57 154.556 507.742 Q157.936 510.913 157.936 516.33 Q157.936 521.908 154.464 525.01 Q150.992 528.089 144.672 528.089 Q142.496 528.089 140.228 527.718 Q137.982 527.348 135.575 526.607 L135.575 521.908 Q137.658 523.042 139.881 523.598 Q142.103 524.154 144.58 524.154 Q148.584 524.154 150.922 522.047 Q153.26 519.941 153.26 516.33 Q153.26 512.718 150.922 510.612 Q148.584 508.506 144.58 508.506 Q142.705 508.506 140.83 508.922 Q138.978 509.339 137.033 510.218 L137.033 492.857 Z" fill="#000000" fill-rule="nonzero" fill-opacity="1" /><path clip-path="url(#clip170)" d="M91.5706 277.04 L99.2095 277.04 L99.2095 250.675 L90.8993 252.341 L90.8993 248.082 L99.1632 246.415 L103.839 246.415 L103.839 277.04 L111.478 277.04 L111.478 280.975 L91.5706 280.975 L91.5706 277.04 Z" fill="#000000" fill-rule="nonzero" fill-opacity="1" /><path clip-path="url(#clip170)" d="M120.922 275.096 L125.807 275.096 L125.807 280.975 L120.922 280.975 L120.922 275.096 Z" fill="#000000" fill-rule="nonzero" fill-opacity="1" /><path clip-path="url(#clip170)" d="M145.992 249.494 Q142.381 249.494 140.552 253.059 Q138.746 256.601 138.746 263.73 Q138.746 270.837 140.552 274.401 Q142.381 277.943 145.992 277.943 Q149.626 277.943 151.431 274.401 Q153.26 270.837 153.26 263.73 Q153.26 256.601 151.431 253.059 Q149.626 249.494 145.992 249.494 M145.992 245.79 Q151.802 245.79 154.857 250.397 Q157.936 254.98 157.936 263.73 Q157.936 272.457 154.857 277.063 Q151.802 281.647 145.992 281.647 Q140.181 281.647 137.103 277.063 Q134.047 272.457 134.047 263.73 Q134.047 254.98 137.103 250.397 Q140.181 245.79 145.992 245.79 Z" fill="#000000" fill-rule="nonzero" fill-opacity="1" /><polyline clip-path="url(#clip172)" style="stroke:#009af9; stroke-linecap:round; stroke-linejoin:round; stroke-width:4; stroke-opacity:1; fill:none" points="255.035,756.58 258.278,751.651 261.521,746.722 264.764,741.795 268.007,736.869 271.25,731.946 274.493,727.024 277.736,722.106 280.979,717.191 284.222,712.28 287.465,707.373 290.708,702.472 293.951,697.575 297.194,692.685 300.437,687.801 303.68,682.924 306.923,678.054 310.166,673.192 313.409,668.339 316.652,663.494 319.895,658.659 323.138,653.833 326.381,649.018 329.624,644.213 332.867,639.42 336.11,634.638 339.353,629.869 342.596,625.112 345.84,620.368 349.083,615.638 352.326,610.922 355.569,606.221 358.812,601.535 362.055,596.864 365.298,592.209 368.541,587.571 371.784,582.949 375.027,578.345 378.27,573.759 381.513,569.191 384.756,564.641 387.999,560.111 391.242,555.601 394.485,551.111 397.728,546.641 400.971,542.192 404.214,537.765 407.457,533.359 410.7,528.976 413.943,524.615 417.186,520.278 420.429,515.965 423.672,511.675 426.915,507.41 430.158,503.17 433.401,498.955 436.644,494.766 439.887,490.603 443.13,486.467 446.373,482.358 449.616,478.276 452.859,474.222 456.103,470.196 459.346,466.199 462.589,462.231 465.832,458.293 469.075,454.384 472.318,450.505 475.561,446.657 478.804,442.84 482.047,439.055 485.29,435.301 488.533,431.579 491.776,427.89 495.019,424.234 498.262,420.611 501.505,417.021 504.748,413.465 507.991,409.944 511.234,406.458 514.477,403.006 517.72,399.59 520.963,396.209 524.206,392.865 527.449,389.557 530.692,386.285 533.935,383.051 537.178,379.854 540.421,376.695 543.664,373.573 546.907,370.49 550.15,367.446 553.393,364.44 556.636,361.474 559.879,358.547 563.122,355.66 566.366,352.813 569.609,350.006 572.852,347.241 576.095,344.516 579.338,341.832 582.581,339.19 585.824,336.589 589.067,334.03 592.31,331.514 595.553,329.04 598.796,326.609 602.039,324.221 605.282,321.877 608.525,319.575 611.768,317.318 615.011,315.104 618.254,312.934 621.497,310.809 624.74,308.728 627.983,306.693 631.226,304.702 634.469,302.756 637.712,300.856 640.955,299.001 644.198,297.192 647.441,295.429 650.684,293.712 653.927,292.042 657.17,290.418 660.413,288.84 663.656,287.309 666.899,285.825 670.142,284.389 673.385,282.999 676.629,281.657 679.872,280.362 683.115,279.115 686.358,277.916 689.601,276.764 692.844,275.661 696.087,274.606 699.33,273.598 702.573,272.639 705.816,271.729 709.059,270.867 712.302,270.054 715.545,269.289 718.788,268.573 722.031,267.905 725.274,267.287 728.517,266.718 731.76,266.197 735.003,265.726 738.246,265.303 741.489,264.93 744.732,264.606 747.975,264.331 751.218,264.105 754.461,263.929 757.704,263.802 760.947,263.724 764.19,263.696 767.433,263.716 770.676,263.786 773.919,263.906 777.162,264.074 780.405,264.292 783.648,264.559 786.892,264.875 790.135,265.241 793.378,265.655 796.621,266.119 799.864,266.631 803.107,267.193 806.35,267.804 809.593,268.463 812.836,269.171 816.079,269.928 819.322,270.734 822.565,271.588 825.808,272.491 829.051,273.442 832.294,274.442 835.537,275.49 838.78,276.585 842.023,277.729 845.266,278.921 848.509,280.16 851.752,281.448 854.995,282.782 858.238,284.164 861.481,285.593 864.724,287.07 867.967,288.593 871.21,290.163 874.453,291.78 877.696,293.443 880.939,295.153 884.182,296.908 887.425,298.71 890.668,300.557 893.911,302.45 897.155,304.389 900.398,306.373 903.641,308.401 906.884,310.475 910.127,312.593 913.37,314.755 916.613,316.962 919.856,319.213 923.099,321.507 926.342,323.845 929.585,326.226 932.828,328.65 936.071,331.117 939.314,333.627 942.557,336.179 945.8,338.773 949.043,341.408 952.286,344.085 955.529,346.804 958.772,349.563 962.015,352.363 965.258,355.204 968.501,358.084 971.744,361.005 974.987,363.965 978.23,366.964 981.473,370.003 984.716,373.08 987.959,376.195 991.202,379.348 994.445,382.539 997.688,385.768 1000.93,389.033 1004.17,392.336 1007.42,395.674 1010.66,399.049 1013.9,402.46 1017.15,405.906 1020.39,409.387 1023.63,412.902 1026.88,416.453 1030.12,420.037 1033.36,423.654 1036.6,427.306 1039.85,430.99 1043.09,434.706 1046.33,438.455 1049.58,442.235 1052.82,446.047 1056.06,449.89 1059.31,453.764 1062.55,457.668 1065.79,461.602 1069.04,465.565 1072.28,469.558 1075.52,473.579 1078.76,477.629 1082.01,481.706 1085.25,485.811 1088.49,489.943 1091.74,494.102 1094.98,498.286 1098.22,502.497 1101.47,506.733 1104.71,510.994 1107.95,515.28 1111.19,519.59 1114.44,523.923 1117.68,528.28 1120.92,532.659 1124.17,537.061 1127.41,541.485 1130.65,545.931 1133.9,550.397 1137.14,554.884 1140.38,559.392 1143.62,563.919 1146.87,568.465 1150.11,573.03 1153.35,577.613 1156.6,582.215 1159.84,586.833 1163.08,591.469 1166.33,596.121 1169.57,600.79 1172.81,605.474 1176.06,610.173 1179.3,614.886 1182.54,619.614 1185.78,624.355 1189.03,629.11 1192.27,633.878 1195.51,638.657 1198.76,643.449 1202,648.252 1205.24,653.065 1208.49,657.889 1211.73,662.723 1214.97,667.566 1218.21,672.419 1221.46,677.279 1224.7,682.148 1227.94,687.024 1231.19,691.907 1234.43,696.796 1237.67,701.691 1240.92,706.592 1244.16,711.498 1247.4,716.408 1250.64,721.323 1253.89,726.241 1257.13,731.162 1260.37,736.085 1263.62,741.011 1266.86,745.938 1270.1,750.866 1273.35,755.795 1276.59,760.723 1279.83,765.652 1283.08,770.579 1286.32,775.505 1289.56,780.429 1292.8,785.351 1296.05,790.27 1299.29,795.186 1302.53,800.097 1305.78,805.005 1309.02,809.907 1312.26,814.804 1315.51,819.696 1318.75,824.581 1321.99,829.459 1325.23,834.33 1328.48,839.193 1331.72,844.048 1334.96,848.894 1338.21,853.731 1341.45,858.558 1344.69,863.375 1347.94,868.182 1351.18,872.977 1354.42,877.76 1357.66,882.532 1360.91,887.29 1364.15,892.036 1367.39,896.768 1370.64,901.487 1373.88,906.19 1377.12,910.879 1380.37,915.552 1383.61,920.21 1386.85,924.851 1390.1,929.475 1393.34,934.082 1396.58,938.671 1399.82,943.242 1403.07,947.794 1406.31,952.328 1409.55,956.841 1412.8,961.335 1416.04,965.808 1419.28,970.26 1422.53,974.691 1425.77,979.1 1429.01,983.487 1432.25,987.851 1435.5,992.192 1438.74,996.509 1441.98,1000.8 1445.23,1005.07 1448.47,1009.32 1451.71,1013.53 1454.96,1017.73 1458.2,1021.89 1461.44,1026.03 1464.68,1030.15 1467.93,1034.23 1471.17,1038.29 1474.41,1042.32 1477.66,1046.32 1480.9,1050.3 1484.14,1054.24 1487.39,1058.15 1490.63,1062.04 1493.87,1065.89 1497.11,1069.71 1500.36,1073.5 1503.6,1077.26 1506.84,1080.99 1510.09,1084.68 1513.33,1088.35 1516.57,1091.97 1519.82,1095.57 1523.06,1099.13 1526.3,1102.66 1529.55,1106.15 1532.79,1109.61 1536.03,1113.03 1539.27,1116.41 1542.52,1119.76 1545.76,1123.08 1549,1126.36 1552.25,1129.6 1555.49,1132.8 1558.73,1135.96 1561.98,1139.09 1565.22,1142.18 1568.46,1145.23 1571.7,1148.24 1574.95,1151.22 1578.19,1154.15 1581.43,1157.04 1584.68,1159.9 1587.92,1162.71 1591.16,1165.48 1594.41,1168.21 1597.65,1170.9 1600.89,1173.55 1604.13,1176.16 1607.38,1178.72 1610.62,1181.25 1613.86,1183.73 1617.11,1186.17 1620.35,1188.56 1623.59,1190.91 1626.84,1193.22 1630.08,1195.48 1633.32,1197.71 1636.57,1199.88 1639.81,1202.01 1643.05,1204.1 1646.29,1206.15 1649.54,1208.14 1652.78,1210.1 1656.02,1212 1659.27,1213.87 1662.51,1215.68 1665.75,1217.45 1669,1219.18 1672.24,1220.85 1675.48,1222.49 1678.72,1224.07 1681.97,1225.61 1685.21,1227.1 1688.45,1228.54 1691.7,1229.94 1694.94,1231.29 1698.18,1232.59 1701.43,1233.85 1704.67,1235.06 1707.91,1236.21 1711.15,1237.33 1714.4,1238.39 1717.64,1239.4 1720.88,1240.37 1724.13,1241.29 1727.37,1242.16 1730.61,1242.98 1733.86,1243.75 1737.1,1244.48 1740.34,1245.15 1743.59,1245.78 1746.83,1246.35 1750.07,1246.88 1753.31,1247.36 1756.56,1247.79 1759.8,1248.17 1763.04,1248.5 1766.29,1248.79 1769.53,1249.02 1772.77,1249.21 1776.02,1249.34 1779.26,1249.43 1782.5,1249.46 1785.74,1249.45 1788.99,1249.39 1792.23,1249.28 1795.47,1249.12 1798.72,1248.91 1801.96,1248.65 1805.2,1248.34 1808.45,1247.98 1811.69,1247.57 1814.93,1247.12 1818.17,1246.61 1821.42,1246.06 1824.66,1245.46 1827.9,1244.8 1831.15,1244.1 1834.39,1243.35 1837.63,1242.56 1840.88,1241.71 1844.12,1240.81 1847.36,1239.87 1850.61,1238.88 1853.85,1237.84 1857.09,1236.75 1860.33,1235.62 1863.58,1234.43 1866.82,1233.2 1870.06,1231.92 1873.31,1230.59 1876.55,1229.22 1879.79,1227.8 1883.04,1226.33 1886.28,1224.81 1889.52,1223.25 1892.76,1221.64 1896.01,1219.98 1899.25,1218.28 1902.49,1216.53 1905.74,1214.74 1908.98,1212.9 1912.22,1211.01 1915.47,1209.08 1918.71,1207.11 1921.95,1205.08 1925.19,1203.02 1928.44,1200.91 1931.68,1198.75 1934.92,1196.55 1938.17,1194.31 1941.41,1192.02 1944.65,1189.69 1947.9,1187.32 1951.14,1184.9 1954.38,1182.44 1957.63,1179.93 1960.87,1177.39 1964.11,1174.8 1967.35,1172.17 1970.6,1169.5 1973.84,1166.79 1977.08,1164.04 1980.33,1161.24 1983.57,1158.41 1986.81,1155.54 1990.06,1152.62 1993.3,1149.67 1996.54,1146.67 1999.78,1143.64 2003.03,1140.57 2006.27,1137.46 2009.51,1134.32 2012.76,1131.13 2016,1127.91 2019.24,1124.65 2022.49,1121.35 2025.73,1118.02 2028.97,1114.65 2032.21,1111.24 2035.46,1107.8 2038.7,1104.33 2041.94,1100.82 2045.19,1097.27 2048.43,1093.7 2051.67,1090.08 2054.92,1086.44 2058.16,1082.76 2061.4,1079.05 2064.65,1075.3 2067.89,1071.53 2071.13,1067.72 2074.37,1063.88 2077.62,1060.01 2080.86,1056.11 2084.1,1052.19 2087.35,1048.23 2090.59,1044.24 2093.83,1040.22 2097.08,1036.18 2100.32,1032.1 2103.56,1028 2106.8,1023.88 2110.05,1019.72 2113.29,1015.54 2116.53,1011.33 2119.78,1007.1 2123.02,1002.85 2126.26,998.563 2129.51,994.257 2132.75,989.928 2135.99,985.575 2139.23,981.199 2142.48,976.8 2145.72,972.38 2148.96,967.938 2152.21,963.475 2155.45,958.991 2158.69,954.487 2161.94,949.963 2165.18,945.419 2168.42,940.857 2171.67,936.277 2174.91,931.678 2178.15,927.062 2181.39,922.429 2184.64,917.78 2187.88,913.114 2191.12,908.432 2194.37,903.736 2197.61,899.025 2200.85,894.299 2204.1,889.56 2207.34,884.807 2210.58,880.042 2213.82,875.264 2217.07,870.474 2220.31,865.673 2223.55,860.861 2226.8,856.039 2230.04,851.206 2233.28,846.365 2236.53,841.514 2239.77,836.654 2243.01,831.787 2246.25,826.912 2249.5,822.031 2252.74,817.142 2255.98,812.248 2259.23,807.348 2262.47,802.443 2265.71,797.533 2268.96,792.619 2272.2,787.702 2275.44,782.781 2278.69,777.858 2281.93,772.933 2285.17,768.006 2288.41,763.078 2291.66,758.149 "/>
<circle clip-path="url(#clip172)" cx="1896.01" cy="1236.79" r="14.4" fill="#e26f46" fill-rule="evenodd" fill-opacity="1" stroke="#000000" stroke-opacity="1" stroke-width="3.2"/>
<circle clip-path="url(#clip172)" cx="1065.79" cy="583.258" r="14.4" fill="#e26f46" fill-rule="evenodd" fill-opacity="1" stroke="#000000" stroke-opacity="1" stroke-width="3.2"/>
<circle clip-path="url(#clip172)" cx="1390.1" cy="1024.06" r="14.4" fill="#e26f46" fill-rule="evenodd" fill-opacity="1" stroke="#000000" stroke-opacity="1" stroke-width="3.2"/>
<circle clip-path="url(#clip172)" cx="2045.19" cy="996.419" r="14.4" fill="#e26f46" fill-rule="evenodd" fill-opacity="1" stroke="#000000" stroke-opacity="1" stroke-width="3.2"/>
<circle clip-path="url(#clip172)" cx="1993.3" cy="1036.83" r="14.4" fill="#e26f46" fill-rule="evenodd" fill-opacity="1" stroke="#000000" stroke-opacity="1" stroke-width="3.2"/>
<circle clip-path="url(#clip172)" cx="2113.29" cy="1045.95" r="14.4" fill="#e26f46" fill-rule="evenodd" fill-opacity="1" stroke="#000000" stroke-opacity="1" stroke-width="3.2"/>
<circle clip-path="url(#clip172)" cx="2168.42" cy="874.717" r="14.4" fill="#e26f46" fill-rule="evenodd" fill-opacity="1" stroke="#000000" stroke-opacity="1" stroke-width="3.2"/>
<circle clip-path="url(#clip172)" cx="945.8" cy="416.231" r="14.4" fill="#e26f46" fill-rule="evenodd" fill-opacity="1" stroke="#000000" stroke-opacity="1" stroke-width="3.2"/>
<circle clip-path="url(#clip172)" cx="1808.45" cy="1268.48" r="14.4" fill="#e26f46" fill-rule="evenodd" fill-opacity="1" stroke="#000000" stroke-opacity="1" stroke-width="3.2"/>
<circle clip-path="url(#clip172)" cx="1085.25" cy="492.329" r="14.4" fill="#e26f46" fill-rule="evenodd" fill-opacity="1" stroke="#000000" stroke-opacity="1" stroke-width="3.2"/>
<circle clip-path="url(#clip172)" cx="1574.95" cy="1244.44" r="14.4" fill="#e26f46" fill-rule="evenodd" fill-opacity="1" stroke="#000000" stroke-opacity="1" stroke-width="3.2"/>
<circle clip-path="url(#clip172)" cx="585.824" cy="289.814" r="14.4" fill="#e26f46" fill-rule="evenodd" fill-opacity="1" stroke="#000000" stroke-opacity="1" stroke-width="3.2"/>
<circle clip-path="url(#clip172)" cx="1905.74" cy="1193.59" r="14.4" fill="#e26f46" fill-rule="evenodd" fill-opacity="1" stroke="#000000" stroke-opacity="1" stroke-width="3.2"/>
<circle clip-path="url(#clip172)" cx="997.688" cy="345.322" r="14.4" fill="#e26f46" fill-rule="evenodd" fill-opacity="1" stroke="#000000" stroke-opacity="1" stroke-width="3.2"/>
<circle clip-path="url(#clip172)" cx="829.051" cy="275.566" r="14.4" fill="#e26f46" fill-rule="evenodd" fill-opacity="1" stroke="#000000" stroke-opacity="1" stroke-width="3.2"/>
<circle clip-path="url(#clip172)" cx="764.19" cy="241.559" r="14.4" fill="#e26f46" fill-rule="evenodd" fill-opacity="1" stroke="#000000" stroke-opacity="1" stroke-width="3.2"/>
<circle clip-path="url(#clip172)" cx="780.405" cy="195.007" r="14.4" fill="#e26f46" fill-rule="evenodd" fill-opacity="1" stroke="#000000" stroke-opacity="1" stroke-width="3.2"/>
<circle clip-path="url(#clip172)" cx="1519.82" cy="1155.92" r="14.4" fill="#e26f46" fill-rule="evenodd" fill-opacity="1" stroke="#000000" stroke-opacity="1" stroke-width="3.2"/>
<circle clip-path="url(#clip172)" cx="449.616" cy="383.174" r="14.4" fill="#e26f46" fill-rule="evenodd" fill-opacity="1" stroke="#000000" stroke-opacity="1" stroke-width="3.2"/>
<circle clip-path="url(#clip172)" cx="1059.31" cy="350.164" r="14.4" fill="#e26f46" fill-rule="evenodd" fill-opacity="1" stroke="#000000" stroke-opacity="1" stroke-width="3.2"/>
<path clip-path="url(#clip172)" d="M255.035 955.032 L258.278 950.809 L261.521 946.538 L264.764 942.218 L268.007 937.849 L271.25 933.432 L274.493 928.966 L277.736 924.453 L280.979 919.891 L284.222 915.282 L287.465 910.625 L290.708 905.921 L293.951 901.171 L297.194 896.374 L300.437 891.532 L303.68 886.644 L306.923 881.712 L310.166 876.737 L313.409 871.718 L316.652 866.658 L319.895 861.556 L323.138 856.414 L326.381 851.233 L329.624 846.015 L332.867 840.76 L336.11 835.471 L339.353 830.148 L342.596 824.794 L345.84 819.409 L349.083 813.997 L352.326 808.56 L355.569 803.098 L358.812 797.616 L362.055 792.115 L365.298 786.599 L368.541 781.069 L371.784 775.53 L375.027 769.985 L378.27 764.436 L381.513 758.888 L384.756 753.345 L387.999 747.811 L391.242 742.29 L394.485 736.787 L397.728 731.307 L400.971 725.854 L404.214 720.435 L407.457 715.054 L410.7 709.718 L413.943 704.433 L417.186 699.205 L420.429 694.041 L423.672 688.947 L426.915 683.93 L430.158 678.998 L433.401 674.157 L436.644 669.416 L439.887 664.781 L443.13 660.261 L446.373 655.862 L449.616 651.593 L452.859 647.457 L456.103 643.452 L459.346 639.569 L462.589 635.803 L465.832 632.145 L469.075 628.589 L472.318 625.129 L475.561 621.757 L478.804 618.467 L482.047 615.252 L485.29 612.107 L488.533 609.026 L491.776 606.002 L495.019 603.031 L498.262 600.109 L501.505 597.23 L504.748 594.39 L507.991 591.586 L511.234 588.816 L514.477 586.075 L517.72 583.361 L520.963 580.674 L524.206 578.011 L527.449 575.371 L530.692 572.754 L533.935 570.16 L537.178 567.589 L540.421 565.042 L543.664 562.52 L546.907 560.025 L550.15 557.559 L553.393 555.124 L556.636 552.724 L559.879 550.361 L563.122 548.039 L566.366 545.762 L569.609 543.534 L572.852 541.359 L576.095 539.243 L579.338 537.188 L582.581 535.202 L585.824 533.287 L589.067 531.448 L592.31 529.679 L595.553 527.972 L598.796 526.32 L602.039 524.714 L605.282 523.149 L608.525 521.616 L611.768 520.109 L615.011 518.622 L618.254 517.148 L621.497 515.681 L624.74 514.215 L627.983 512.745 L631.226 511.267 L634.469 509.776 L637.712 508.266 L640.955 506.735 L644.198 505.18 L647.441 503.596 L650.684 501.981 L653.927 500.333 L657.17 498.65 L660.413 496.93 L663.656 495.172 L666.899 493.375 L670.142 491.539 L673.385 489.665 L676.629 487.751 L679.872 485.8 L683.115 483.812 L686.358 481.789 L689.601 479.734 L692.844 477.648 L696.087 475.536 L699.33 473.399 L702.573 471.243 L705.816 469.072 L709.059 466.891 L712.302 464.705 L715.545 462.521 L718.788 460.344 L722.031 458.183 L725.274 456.045 L728.517 453.939 L731.76 451.872 L735.003 449.856 L738.246 447.9 L741.489 446.014 L744.732 444.211 L747.975 442.502 L751.218 440.899 L754.461 439.415 L757.704 438.065 L760.947 436.861 L764.19 435.817 L767.433 434.945 L770.676 434.253 L773.919 433.742 L777.162 433.418 L780.405 433.284 L783.648 433.343 L786.892 433.588 L790.135 434.01 L793.378 434.601 L796.621 435.354 L799.864 436.26 L803.107 437.311 L806.35 438.501 L809.593 439.822 L812.836 441.269 L816.079 442.836 L819.322 444.517 L822.565 446.306 L825.808 448.201 L829.051 450.196 L832.294 452.286 L835.537 454.461 L838.78 456.708 L842.023 459.016 L845.266 461.373 L848.509 463.769 L851.752 466.194 L854.995 468.639 L858.238 471.095 L861.481 473.554 L864.724 476.009 L867.967 478.453 L871.21 480.879 L874.453 483.282 L877.696 485.658 L880.939 488.002 L884.182 490.311 L887.425 492.581 L890.668 494.81 L893.911 496.996 L897.155 499.138 L900.398 501.235 L903.641 503.288 L906.884 505.297 L910.127 507.262 L913.37 509.186 L916.613 511.07 L919.856 512.917 L923.099 514.731 L926.342 516.515 L929.585 518.273 L932.828 520.01 L936.071 521.732 L939.314 523.443 L942.557 525.15 L945.8 526.86 L949.043 528.578 L952.286 530.307 L955.529 532.048 L958.772 533.803 L962.015 535.575 L965.258 537.367 L968.501 539.182 L971.744 541.025 L974.987 542.9 L978.23 544.813 L981.473 546.77 L984.716 548.778 L987.959 550.844 L991.202 552.977 L994.445 555.185 L997.688 557.478 L1000.93 559.865 L1004.17 562.347 L1007.42 564.924 L1010.66 567.598 L1013.9 570.37 L1017.15 573.245 L1020.39 576.224 L1023.63 579.313 L1026.88 582.518 L1030.12 585.845 L1033.36 589.302 L1036.6 592.896 L1039.85 596.638 L1043.09 600.537 L1046.33 604.603 L1049.58 608.848 L1052.82 613.283 L1056.06 617.92 L1059.31 622.771 L1062.55 627.845 L1065.79 633.142 L1069.04 638.658 L1072.28 644.389 L1075.52 650.326 L1078.76 656.465 L1082.01 662.798 L1085.25 669.319 L1088.49 676.02 L1091.74 682.887 L1094.98 689.904 L1098.22 697.056 L1101.47 704.33 L1104.71 711.71 L1107.95 719.183 L1111.19 726.737 L1114.44 734.36 L1117.68 742.04 L1120.92 749.766 L1124.17 757.528 L1127.41 765.317 L1130.65 773.124 L1133.9 780.94 L1137.14 788.758 L1140.38 796.571 L1143.62 804.371 L1146.87 812.152 L1150.11 819.909 L1153.35 827.636 L1156.6 835.327 L1159.84 842.979 L1163.08 850.587 L1166.33 858.146 L1169.57 865.653 L1172.81 873.104 L1176.06 880.496 L1179.3 887.827 L1182.54 895.092 L1185.78 902.289 L1189.03 909.417 L1192.27 916.472 L1195.51 923.453 L1198.76 930.358 L1202 937.185 L1205.24 943.932 L1208.49 950.598 L1211.73 957.182 L1214.97 963.682 L1218.21 970.098 L1221.46 976.428 L1224.7 982.671 L1227.94 988.827 L1231.19 994.895 L1234.43 1000.87 L1237.67 1006.76 L1240.92 1012.57 L1244.16 1018.28 L1247.4 1023.9 L1250.64 1029.43 L1253.89 1034.87 L1257.13 1040.22 L1260.37 1045.49 L1263.62 1050.66 L1266.86 1055.74 L1270.1 1060.74 L1273.35 1065.65 L1276.59 1070.47 L1279.83 1075.2 L1283.08 1079.85 L1286.32 1084.42 L1289.56 1088.9 L1292.8 1093.3 L1296.05 1097.61 L1299.29 1101.85 L1302.53 1106.01 L1305.78 1110.1 L1309.02 1114.11 L1312.26 1118.04 L1315.51 1121.91 L1318.75 1125.71 L1321.99 1129.44 L1325.23 1133.11 L1328.48 1136.72 L1331.72 1140.28 L1334.96 1143.77 L1338.21 1147.22 L1341.45 1150.62 L1344.69 1153.98 L1347.94 1157.3 L1351.18 1160.58 L1354.42 1163.82 L1357.66 1167.05 L1360.91 1170.24 L1364.15 1173.42 L1367.39 1176.59 L1370.64 1179.75 L1373.88 1182.9 L1377.12 1186.06 L1380.37 1189.22 L1383.61 1192.39 L1386.85 1195.58 L1390.1 1198.79 L1393.34 1202.03 L1396.58 1205.29 L1399.82 1208.56 L1403.07 1211.85 L1406.31 1215.15 L1409.55 1218.45 L1412.8 1221.75 L1416.04 1225.05 L1419.28 1228.33 L1422.53 1231.61 L1425.77 1234.86 L1429.01 1238.09 L1432.25 1241.3 L1435.5 1244.48 L1438.74 1247.63 L1441.98 1250.74 L1445.23 1253.82 L1448.47 1256.87 L1451.71 1259.87 L1454.96 1262.84 L1458.2 1265.76 L1461.44 1268.64 L1464.68 1271.49 L1467.93 1274.29 L1471.17 1277.06 L1474.41 1279.79 L1477.66 1282.49 L1480.9 1285.15 L1484.14 1287.79 L1487.39 1290.4 L1490.63 1292.99 L1493.87 1295.56 L1497.11 1298.12 L1500.36 1300.67 L1503.6 1303.22 L1506.84 1305.78 L1510.09 1308.35 L1513.33 1310.93 L1516.57 1313.54 L1519.82 1316.17 L1523.06 1318.84 L1526.3 1321.55 L1529.55 1324.29 L1532.79 1327.06 L1536.03 1329.86 L1539.27 1332.69 L1542.52 1335.54 L1545.76 1338.42 L1549 1341.33 L1552.25 1344.26 L1555.49 1347.21 L1558.73 1350.18 L1561.98 1353.17 L1565.22 1356.18 L1568.46 1359.21 L1571.7 1362.26 L1574.95 1365.33 L1578.19 1368.42 L1581.43 1371.51 L1584.68 1374.61 L1587.92 1377.71 L1591.16 1380.79 L1594.41 1383.86 L1597.65 1386.9 L1600.89 1389.91 L1604.13 1392.89 L1607.38 1395.83 L1610.62 1398.71 L1613.86 1401.54 L1617.11 1404.32 L1620.35 1407.03 L1623.59 1409.68 L1626.84 1412.25 L1630.08 1414.75 L1633.32 1417.16 L1636.57 1419.5 L1639.81 1421.75 L1643.05 1423.91 L1646.29 1425.98 L1649.54 1427.96 L1652.78 1429.84 L1656.02 1431.62 L1659.27 1433.3 L1662.51 1434.88 L1665.75 1436.35 L1669 1437.73 L1672.24 1438.99 L1675.48 1440.15 L1678.72 1441.2 L1681.97 1442.14 L1685.21 1442.98 L1688.45 1443.7 L1691.7 1444.31 L1694.94 1444.81 L1698.18 1445.2 L1701.43 1445.49 L1704.67 1445.66 L1707.91 1445.72 L1711.15 1445.67 L1714.4 1445.51 L1717.64 1445.24 L1720.88 1444.86 L1724.13 1444.38 L1727.37 1443.79 L1730.61 1443.09 L1733.86 1442.29 L1737.1 1441.39 L1740.34 1440.39 L1743.59 1439.29 L1746.83 1438.09 L1750.07 1436.79 L1753.31 1435.4 L1756.56 1433.92 L1759.8 1432.36 L1763.04 1430.7 L1766.29 1428.97 L1769.53 1427.15 L1772.77 1425.26 L1776.02 1423.3 L1779.26 1421.27 L1782.5 1419.17 L1785.74 1417.01 L1788.99 1414.8 L1792.23 1412.53 L1795.47 1410.22 L1798.72 1407.86 L1801.96 1405.47 L1805.2 1403.04 L1808.45 1400.58 L1811.69 1398.1 L1814.93 1395.6 L1818.17 1393.07 L1821.42 1390.5 L1824.66 1387.91 L1827.9 1385.29 L1831.15 1382.63 L1834.39 1379.94 L1837.63 1377.21 L1840.88 1374.44 L1844.12 1371.64 L1847.36 1368.8 L1850.61 1365.92 L1853.85 1363.01 L1857.09 1360.06 L1860.33 1357.09 L1863.58 1354.08 L1866.82 1351.04 L1870.06 1347.98 L1873.31 1344.9 L1876.55 1341.8 L1879.79 1338.69 L1883.04 1335.58 L1886.28 1332.46 L1889.52 1329.35 L1892.76 1326.24 L1896.01 1323.16 L1899.25 1320.09 L1902.49 1317.04 L1905.74 1314.01 L1908.98 1311.01 L1912.22 1308.02 L1915.47 1305.04 L1918.71 1302.07 L1921.95 1299.1 L1925.19 1296.13 L1928.44 1293.14 L1931.68 1290.14 L1934.92 1287.13 L1938.17 1284.09 L1941.41 1281.03 L1944.65 1277.95 L1947.9 1274.84 L1951.14 1271.7 L1954.38 1268.54 L1957.63 1265.35 L1960.87 1262.14 L1964.11 1258.91 L1967.35 1255.66 L1970.6 1252.39 L1973.84 1249.11 L1977.08 1245.82 L1980.33 1242.54 L1983.57 1239.25 L1986.81 1235.98 L1990.06 1232.73 L1993.3 1229.5 L1996.54 1226.31 L1999.78 1223.15 L2003.03 1220.01 L2006.27 1216.91 L2009.51 1213.83 L2012.76 1210.78 L2016 1207.76 L2019.24 1204.77 L2022.49 1201.81 L2025.73 1198.88 L2028.97 1195.99 L2032.21 1193.13 L2035.46 1190.31 L2038.7 1187.54 L2041.94 1184.81 L2045.19 1182.14 L2048.43 1179.52 L2051.67 1176.96 L2054.92 1174.46 L2058.16 1171.99 L2061.4 1169.57 L2064.65 1167.2 L2067.89 1164.86 L2071.13 1162.57 L2074.37 1160.31 L2077.62 1158.09 L2080.86 1155.91 L2084.1 1153.77 L2087.35 1151.67 L2090.59 1149.62 L2093.83 1147.61 L2097.08 1145.66 L2100.32 1143.77 L2103.56 1141.93 L2106.8 1140.17 L2110.05 1138.47 L2113.29 1136.85 L2116.53 1135.32 L2119.78 1133.87 L2123.02 1132.51 L2126.26 1131.24 L2129.51 1130.06 L2132.75 1128.98 L2135.99 1127.99 L2139.23 1127.1 L2142.48 1126.32 L2145.72 1125.64 L2148.96 1125.07 L2152.21 1124.62 L2155.45 1124.28 L2158.69 1124.07 L2161.94 1123.99 L2165.18 1124.04 L2168.42 1124.22 L2171.67 1124.55 L2174.91 1125.01 L2178.15 1125.59 L2181.39 1126.3 L2184.64 1127.11 L2187.88 1128.02 L2191.12 1129.03 L2194.37 1130.13 L2197.61 1131.3 L2200.85 1132.55 L2204.1 1133.87 L2207.34 1135.24 L2210.58 1136.68 L2213.82 1138.16 L2217.07 1139.69 L2220.31 1141.25 L2223.55 1142.86 L2226.8 1144.49 L2230.04 1146.15 L2233.28 1147.83 L2236.53 1149.53 L2239.77 1151.25 L2243.01 1152.98 L2246.25 1154.72 L2249.5 1156.47 L2252.74 1158.23 L2255.98 1159.98 L2259.23 1161.74 L2262.47 1163.49 L2265.71 1165.24 L2268.96 1166.99 L2272.2 1168.73 L2275.44 1170.45 L2278.69 1172.17 L2281.93 1173.88 L2285.17 1175.58 L2288.41 1177.26 L2291.66 1178.92 L2291.66 529.168 L2288.41 533.706 L2285.17 538.3 L2281.93 542.949 L2278.69 547.653 L2275.44 552.411 L2272.2 557.222 L2268.96 562.086 L2265.71 567.001 L2262.47 571.967 L2259.23 576.981 L2255.98 582.044 L2252.74 587.153 L2249.5 592.308 L2246.25 597.505 L2243.01 602.744 L2239.77 608.022 L2236.53 613.337 L2233.28 618.686 L2230.04 624.067 L2226.8 629.477 L2223.55 634.912 L2220.31 640.37 L2217.07 645.847 L2213.82 651.338 L2210.58 656.841 L2207.34 662.349 L2204.1 667.859 L2200.85 673.365 L2197.61 678.863 L2194.37 684.346 L2191.12 689.809 L2187.88 695.246 L2184.64 700.65 L2181.39 706.014 L2178.15 711.331 L2174.91 716.595 L2171.67 721.798 L2168.42 726.933 L2165.18 731.993 L2161.94 736.978 L2158.69 741.889 L2155.45 746.724 L2152.21 751.485 L2148.96 756.171 L2145.72 760.783 L2142.48 765.319 L2139.23 769.78 L2135.99 774.163 L2132.75 778.469 L2129.51 782.696 L2126.26 786.841 L2123.02 790.903 L2119.78 794.879 L2116.53 798.766 L2113.29 802.562 L2110.05 806.266 L2106.8 809.884 L2103.56 813.426 L2100.32 816.901 L2097.08 820.316 L2093.83 823.679 L2090.59 826.998 L2087.35 830.28 L2084.1 833.531 L2080.86 836.755 L2077.62 839.958 L2074.37 843.145 L2071.13 846.318 L2067.89 849.481 L2064.65 852.635 L2061.4 855.782 L2058.16 858.922 L2054.92 862.058 L2051.67 865.187 L2048.43 868.309 L2045.19 871.423 L2041.94 874.528 L2038.7 877.628 L2035.46 880.727 L2032.21 883.829 L2028.97 886.936 L2025.73 890.051 L2022.49 893.177 L2019.24 896.314 L2016 899.465 L2012.76 902.63 L2009.51 905.808 L2006.27 908.998 L2003.03 912.201 L1999.78 915.413 L1996.54 918.633 L1993.3 921.858 L1990.06 925.087 L1986.81 928.32 L1983.57 931.56 L1980.33 934.81 L1977.08 938.069 L1973.84 941.339 L1970.6 944.62 L1967.35 947.91 L1964.11 951.21 L1960.87 954.517 L1957.63 957.827 L1954.38 961.139 L1951.14 964.447 L1947.9 967.746 L1944.65 971.031 L1941.41 974.295 L1938.17 977.531 L1934.92 980.731 L1931.68 983.885 L1928.44 986.985 L1925.19 990.02 L1921.95 992.979 L1918.71 995.851 L1915.47 998.624 L1912.22 1001.29 L1908.98 1003.82 L1905.74 1006.22 L1902.49 1008.47 L1899.25 1010.57 L1896.01 1012.51 L1892.76 1014.29 L1889.52 1015.92 L1886.28 1017.4 L1883.04 1018.75 L1879.79 1019.96 L1876.55 1021.06 L1873.31 1022.04 L1870.06 1022.91 L1866.82 1023.67 L1863.58 1024.34 L1860.33 1024.91 L1857.09 1025.4 L1853.85 1025.79 L1850.61 1026.1 L1847.36 1026.33 L1844.12 1026.48 L1840.88 1026.54 L1837.63 1026.53 L1834.39 1026.43 L1831.15 1026.26 L1827.9 1026 L1824.66 1025.66 L1821.42 1025.23 L1818.17 1024.71 L1814.93 1024.1 L1811.69 1023.39 L1808.45 1022.59 L1805.2 1021.69 L1801.96 1020.7 L1798.72 1019.62 L1795.47 1018.47 L1792.23 1017.26 L1788.99 1015.99 L1785.74 1014.67 L1782.5 1013.31 L1779.26 1011.92 L1776.02 1010.5 L1772.77 1009.07 L1769.53 1007.62 L1766.29 1006.17 L1763.04 1004.72 L1759.8 1003.28 L1756.56 1001.85 L1753.31 1000.43 L1750.07 999.039 L1746.83 997.672 L1743.59 996.336 L1740.34 995.034 L1737.1 993.769 L1733.86 992.545 L1730.61 991.366 L1727.37 990.232 L1724.13 989.148 L1720.88 988.115 L1717.64 987.136 L1714.4 986.211 L1711.15 985.342 L1707.91 984.532 L1704.67 983.78 L1701.43 983.087 L1698.18 982.454 L1694.94 981.881 L1691.7 981.369 L1688.45 980.916 L1685.21 980.523 L1681.97 980.189 L1678.72 979.914 L1675.48 979.695 L1672.24 979.531 L1669 979.421 L1665.75 979.364 L1662.51 979.356 L1659.27 979.395 L1656.02 979.479 L1652.78 979.604 L1649.54 979.768 L1646.29 979.967 L1643.05 980.196 L1639.81 980.452 L1636.57 980.73 L1633.32 981.025 L1630.08 981.331 L1626.84 981.644 L1623.59 981.957 L1620.35 982.263 L1617.11 982.556 L1613.86 982.829 L1610.62 983.074 L1607.38 983.283 L1604.13 983.447 L1600.89 983.558 L1597.65 983.607 L1594.41 983.583 L1591.16 983.476 L1587.92 983.277 L1584.68 982.974 L1581.43 982.557 L1578.19 982.013 L1574.95 981.332 L1571.7 980.505 L1568.46 979.531 L1565.22 978.412 L1561.98 977.149 L1558.73 975.745 L1555.49 974.201 L1552.25 972.517 L1549 970.696 L1545.76 968.738 L1542.52 966.642 L1539.27 964.41 L1536.03 962.042 L1532.79 959.536 L1529.55 956.892 L1526.3 954.11 L1523.06 951.188 L1519.82 948.126 L1516.57 944.923 L1513.33 941.587 L1510.09 938.129 L1506.84 934.556 L1503.6 930.877 L1500.36 927.101 L1497.11 923.236 L1493.87 919.289 L1490.63 915.267 L1487.39 911.177 L1484.14 907.026 L1480.9 902.817 L1477.66 898.557 L1474.41 894.25 L1471.17 889.899 L1467.93 885.508 L1464.68 881.079 L1461.44 876.615 L1458.2 872.117 L1454.96 867.587 L1451.71 863.024 L1448.47 858.428 L1445.23 853.8 L1441.98 849.138 L1438.74 844.44 L1435.5 839.705 L1432.25 834.93 L1429.01 830.112 L1425.77 825.248 L1422.53 820.334 L1419.28 815.366 L1416.04 810.34 L1412.8 805.252 L1409.55 800.095 L1406.31 794.866 L1403.07 789.558 L1399.82 784.167 L1396.58 778.686 L1393.34 773.11 L1390.1 767.433 L1386.85 761.653 L1383.61 755.773 L1380.37 749.804 L1377.12 743.751 L1373.88 737.623 L1370.64 731.428 L1367.39 725.174 L1364.15 718.867 L1360.91 712.515 L1357.66 706.125 L1354.42 699.705 L1351.18 693.26 L1347.94 686.798 L1344.69 680.323 L1341.45 673.844 L1338.21 667.364 L1334.96 660.89 L1331.72 654.428 L1328.48 647.981 L1325.23 641.555 L1321.99 635.155 L1318.75 628.785 L1315.51 622.449 L1312.26 616.151 L1309.02 609.895 L1305.78 603.685 L1302.53 597.524 L1299.29 591.415 L1296.05 585.361 L1292.8 579.366 L1289.56 573.433 L1286.32 567.563 L1283.08 561.759 L1279.83 556.024 L1276.59 550.36 L1273.35 544.769 L1270.1 539.253 L1266.86 533.813 L1263.62 528.453 L1260.37 523.172 L1257.13 517.974 L1253.89 512.858 L1250.64 507.827 L1247.4 502.882 L1244.16 498.024 L1240.92 493.254 L1237.67 488.572 L1234.43 483.981 L1231.19 479.479 L1227.94 475.069 L1224.7 470.751 L1221.46 466.525 L1218.21 462.391 L1214.97 458.351 L1211.73 454.403 L1208.49 450.549 L1205.24 446.788 L1202 443.119 L1198.76 439.544 L1195.51 436.061 L1192.27 432.67 L1189.03 429.37 L1185.78 426.161 L1182.54 423.041 L1179.3 420.01 L1176.06 417.067 L1172.81 414.209 L1169.57 411.436 L1166.33 408.746 L1163.08 406.136 L1159.84 403.604 L1156.6 401.149 L1153.35 398.767 L1150.11 396.454 L1146.87 394.209 L1143.62 392.027 L1140.38 389.903 L1137.14 387.835 L1133.9 385.816 L1130.65 383.842 L1127.41 381.907 L1124.17 380.005 L1120.92 378.129 L1117.68 376.271 L1114.44 374.425 L1111.19 372.582 L1107.95 370.732 L1104.71 368.866 L1101.47 366.974 L1098.22 365.046 L1094.98 363.07 L1091.74 361.035 L1088.49 358.927 L1085.25 356.737 L1082.01 354.45 L1078.76 352.063 L1075.52 349.567 L1072.28 346.96 L1069.04 344.235 L1065.79 341.388 L1062.55 338.416 L1059.31 335.326 L1056.06 332.127 L1052.82 328.829 L1049.58 325.442 L1046.33 321.978 L1043.09 318.447 L1039.85 314.858 L1036.6 311.222 L1033.36 307.547 L1030.12 303.842 L1026.88 300.115 L1023.63 296.372 L1020.39 292.621 L1017.15 288.867 L1013.9 285.113 L1010.66 281.365 L1007.42 277.624 L1004.17 273.894 L1000.93 270.176 L997.688 266.471 L994.445 262.78 L991.202 259.107 L987.959 255.455 L984.716 251.827 L981.473 248.226 L978.23 244.653 L974.987 241.111 L971.744 237.599 L968.501 234.117 L965.258 230.667 L962.015 227.245 L958.772 223.852 L955.529 220.485 L952.286 217.142 L949.043 213.821 L945.8 210.517 L942.557 207.231 L939.314 203.967 L936.071 200.733 L932.828 197.534 L929.585 194.378 L926.342 191.271 L923.099 188.218 L919.856 185.225 L916.613 182.295 L913.37 179.435 L910.127 176.647 L906.884 173.935 L903.641 171.303 L900.398 168.753 L897.155 166.286 L893.911 163.906 L890.668 161.612 L887.425 159.406 L884.182 157.288 L880.939 155.258 L877.696 153.314 L874.453 151.457 L871.21 149.683 L867.967 147.991 L864.724 146.378 L861.481 144.841 L858.238 143.376 L854.995 141.979 L851.752 140.645 L848.509 139.368 L845.266 138.142 L842.023 136.962 L838.78 135.82 L835.537 134.71 L832.294 133.624 L829.051 132.553 L825.808 131.491 L822.565 130.436 L819.322 129.386 L816.079 128.34 L812.836 127.297 L809.593 126.253 L806.35 125.208 L803.107 124.159 L799.864 123.102 L796.621 122.034 L793.378 120.953 L790.135 119.854 L786.892 118.734 L783.648 117.59 L780.405 116.417 L777.162 115.214 L773.919 113.981 L770.676 112.718 L767.433 111.427 L764.19 110.11 L760.947 108.769 L757.704 107.412 L754.461 106.048 L751.218 104.685 L747.975 103.332 L744.732 101.997 L741.489 100.688 L738.246 99.4119 L735.003 98.1764 L731.76 96.988 L728.517 95.8529 L725.274 94.777 L722.031 93.7655 L718.788 92.8233 L715.545 91.9548 L712.302 91.1641 L709.059 90.4546 L705.816 89.8295 L702.573 89.2914 L699.33 88.8429 L696.087 88.4856 L692.844 88.2214 L689.601 88.0513 L686.358 87.9763 L683.115 87.9969 L679.872 88.1132 L676.629 88.3254 L673.385 88.6328 L670.142 89.0348 L666.899 89.5304 L663.656 90.1183 L660.413 90.7969 L657.17 91.5643 L653.927 92.4184 L650.684 93.3568 L647.441 94.3766 L644.198 95.475 L640.955 96.6487 L637.712 97.8941 L634.469 99.2074 L631.226 100.585 L627.983 102.021 L624.74 103.513 L621.497 105.055 L618.254 106.642 L615.011 108.268 L611.768 109.929 L608.525 111.619 L605.282 113.331 L602.039 115.059 L598.796 116.798 L595.553 118.541 L592.31 120.282 L589.067 122.014 L585.824 123.732 L582.581 125.429 L579.338 127.109 L576.095 128.772 L572.852 130.421 L569.609 132.06 L566.366 133.691 L563.122 135.315 L559.879 136.936 L556.636 138.556 L553.393 140.176 L550.15 141.798 L546.907 143.423 L543.664 145.053 L540.421 146.688 L537.178 148.329 L533.935 149.976 L530.692 151.628 L527.449 153.286 L524.206 154.948 L520.963 156.613 L517.72 158.28 L514.477 159.946 L511.234 161.61 L507.991 163.268 L504.748 164.917 L501.505 166.554 L498.262 168.175 L495.019 169.776 L491.776 171.353 L488.533 172.901 L485.29 174.414 L482.047 175.888 L478.804 177.318 L475.561 178.696 L472.318 180.019 L469.075 181.279 L465.832 182.47 L462.589 183.587 L459.346 184.623 L456.103 185.572 L452.859 186.428 L449.616 187.186 L446.373 187.841 L443.13 188.396 L439.887 188.858 L436.644 189.229 L433.401 189.517 L430.158 189.726 L426.915 189.861 L423.672 189.927 L420.429 189.93 L417.186 189.875 L413.943 189.766 L410.7 189.608 L407.457 189.406 L404.214 189.164 L400.971 188.887 L397.728 188.577 L394.485 188.24 L391.242 187.878 L387.999 187.495 L384.756 187.094 L381.513 186.678 L378.27 186.251 L375.027 185.814 L371.784 185.37 L368.541 184.922 L365.298 184.472 L362.055 184.022 L358.812 183.573 L355.569 183.127 L352.326 182.687 L349.083 182.253 L345.84 181.826 L342.596 181.409 L339.353 181.002 L336.11 180.606 L332.867 180.222 L329.624 179.851 L326.381 179.494 L323.138 179.151 L319.895 178.823 L316.652 178.511 L313.409 178.214 L310.166 177.935 L306.923 177.672 L303.68 177.426 L300.437 177.197 L297.194 176.986 L293.951 176.792 L290.708 176.617 L287.465 176.459 L284.222 176.319 L280.979 176.197 L277.736 176.093 L274.493 176.007 L271.25 175.939 L268.007 175.888 L264.764 175.855 L261.521 175.839 L258.278 175.84 L255.035 175.859  Z" fill="#3da44d" fill-rule="evenodd" fill-opacity="0.1"/>
<polyline clip-path="url(#clip172)" style="stroke:#3da44d; stroke-linecap:round; stroke-linejoin:round; stroke-width:8; stroke-opacity:1; fill:none" points="255.035,565.446 258.278,563.325 261.521,561.188 264.764,559.036 268.007,556.868 271.25,554.685 274.493,552.487 277.736,550.273 280.979,548.044 284.222,545.8 287.465,543.542 290.708,541.269 293.951,538.982 297.194,536.68 300.437,534.364 303.68,532.035 306.923,529.692 310.166,527.336 313.409,524.966 316.652,522.584 319.895,520.189 323.138,517.782 326.381,515.364 329.624,512.933 332.867,510.491 336.11,508.038 339.353,505.575 342.596,503.101 345.84,500.618 349.083,498.125 352.326,495.623 355.569,493.113 358.812,490.595 362.055,488.069 365.298,485.535 368.541,482.996 371.784,480.45 375.027,477.899 378.27,475.343 381.513,472.783 384.756,470.22 387.999,467.653 391.242,465.084 394.485,462.513 397.728,459.942 400.971,457.37 404.214,454.8 407.457,452.23 410.7,449.663 413.943,447.1 417.186,444.54 420.429,441.985 423.672,439.437 426.915,436.895 430.158,434.362 433.401,431.837 436.644,429.323 439.887,426.819 443.13,424.329 446.373,421.851 449.616,419.389 452.859,416.943 456.103,414.512 459.346,412.096 462.589,409.695 465.832,407.308 469.075,404.934 472.318,402.574 475.561,400.227 478.804,397.892 482.047,395.57 485.29,393.261 488.533,390.963 491.776,388.677 495.019,386.404 498.262,384.142 501.505,381.892 504.748,379.653 507.991,377.427 511.234,375.213 514.477,373.011 517.72,370.821 520.963,368.644 524.206,366.479 527.449,364.328 530.692,362.191 533.935,360.068 537.178,357.959 540.421,355.865 543.664,353.786 546.907,351.724 550.15,349.678 553.393,347.65 556.636,345.64 559.879,343.649 563.122,341.677 566.366,339.726 569.609,337.797 572.852,335.89 576.095,334.007 579.338,332.148 582.581,330.316 585.824,328.51 589.067,326.731 592.31,324.981 595.553,323.257 598.796,321.559 602.039,319.887 605.282,318.24 608.525,316.617 611.768,315.019 615.011,313.445 618.254,311.895 621.497,310.368 624.74,308.864 627.983,307.383 631.226,305.926 634.469,304.491 637.712,303.08 640.955,301.692 644.198,300.327 647.441,298.986 650.684,297.669 653.927,296.376 657.17,295.107 660.413,293.863 663.656,292.645 666.899,291.453 670.142,290.287 673.385,289.149 676.629,288.038 679.872,286.957 683.115,285.904 686.358,284.883 689.601,283.893 692.844,282.935 696.087,282.011 699.33,281.121 702.573,280.267 705.816,279.451 709.059,278.673 712.302,277.935 715.545,277.238 718.788,276.584 722.031,275.974 725.274,275.411 728.517,274.896 731.76,274.43 735.003,274.016 738.246,273.656 741.489,273.351 744.732,273.104 747.975,272.917 751.218,272.792 754.461,272.732 757.704,272.738 760.947,272.815 764.19,272.963 767.433,273.186 770.676,273.485 773.919,273.861 777.162,274.316 780.405,274.851 783.648,275.466 786.892,276.161 790.135,276.932 793.378,277.777 796.621,278.694 799.864,279.681 803.107,280.735 806.35,281.855 809.593,283.038 812.836,284.283 816.079,285.588 819.322,286.951 822.565,288.371 825.808,289.846 829.051,291.374 832.294,292.955 835.537,294.586 838.78,296.264 842.023,297.989 845.266,299.757 848.509,301.568 851.752,303.419 854.995,305.309 858.238,307.236 861.481,309.198 864.724,311.194 867.967,313.222 871.21,315.281 874.453,317.37 877.696,319.486 880.939,321.63 884.182,323.799 887.425,325.993 890.668,328.211 893.911,330.451 897.155,332.712 900.398,334.994 903.641,337.296 906.884,339.616 910.127,341.955 913.37,344.31 916.613,346.683 919.856,349.071 923.099,351.474 926.342,353.893 929.585,356.326 932.828,358.772 936.071,361.232 939.314,363.705 942.557,366.191 945.8,368.689 949.043,371.2 952.286,373.725 955.529,376.267 958.772,378.828 962.015,381.41 965.258,384.017 968.501,386.65 971.744,389.312 974.987,392.005 978.23,394.733 981.473,397.498 984.716,400.302 987.959,403.149 991.202,406.042 994.445,408.983 997.688,411.975 1000.93,415.021 1004.17,418.12 1007.42,421.274 1010.66,424.481 1013.9,427.742 1017.15,431.056 1020.39,434.423 1023.63,437.843 1026.88,441.316 1030.12,444.844 1033.36,448.424 1036.6,452.059 1039.85,455.748 1043.09,459.492 1046.33,463.291 1049.58,467.145 1052.82,471.056 1056.06,475.023 1059.31,479.048 1062.55,483.13 1065.79,487.265 1069.04,491.447 1072.28,495.674 1075.52,499.947 1078.76,504.264 1082.01,508.624 1085.25,513.028 1088.49,517.474 1091.74,521.961 1094.98,526.487 1098.22,531.051 1101.47,535.652 1104.71,540.288 1107.95,544.957 1111.19,549.659 1114.44,554.393 1117.68,559.156 1120.92,563.947 1124.17,568.767 1127.41,573.612 1130.65,578.483 1133.9,583.378 1137.14,588.297 1140.38,593.237 1143.62,598.199 1146.87,603.18 1150.11,608.182 1153.35,613.201 1156.6,618.238 1159.84,623.292 1163.08,628.361 1166.33,633.446 1169.57,638.545 1172.81,643.657 1176.06,648.782 1179.3,653.918 1182.54,659.067 1185.78,664.225 1189.03,669.393 1192.27,674.571 1195.51,679.757 1198.76,684.951 1202,690.152 1205.24,695.36 1208.49,700.574 1211.73,705.793 1214.97,711.017 1218.21,716.245 1221.46,721.476 1224.7,726.711 1227.94,731.948 1231.19,737.187 1234.43,742.427 1237.67,747.669 1240.92,752.91 1244.16,758.151 1247.4,763.391 1250.64,768.629 1253.89,773.865 1257.13,779.099 1260.37,784.33 1263.62,789.557 1266.86,794.779 1270.1,799.997 1273.35,805.209 1276.59,810.415 1279.83,815.614 1283.08,820.806 1286.32,825.99 1289.56,831.165 1292.8,836.331 1296.05,841.488 1299.29,846.633 1302.53,851.768 1305.78,856.89 1309.02,862 1312.26,867.097 1315.51,872.179 1318.75,877.247 1321.99,882.298 1325.23,887.334 1328.48,892.352 1331.72,897.351 1334.96,902.332 1338.21,907.293 1341.45,912.233 1344.69,917.151 1347.94,922.047 1351.18,926.918 1354.42,931.765 1357.66,936.586 1360.91,941.38 1364.15,946.145 1367.39,950.882 1370.64,955.588 1373.88,960.262 1377.12,964.904 1380.37,969.511 1383.61,974.082 1386.85,978.617 1390.1,983.113 1393.34,987.57 1396.58,991.987 1399.82,996.365 1403.07,1000.71 1406.31,1005.01 1409.55,1009.27 1412.8,1013.5 1416.04,1017.69 1419.28,1021.85 1422.53,1025.97 1425.77,1030.05 1429.01,1034.1 1432.25,1038.11 1435.5,1042.09 1438.74,1046.03 1441.98,1049.94 1445.23,1053.81 1448.47,1057.65 1451.71,1061.45 1454.96,1065.21 1458.2,1068.94 1461.44,1072.63 1464.68,1076.28 1467.93,1079.9 1471.17,1083.48 1474.41,1087.02 1477.66,1090.52 1480.9,1093.98 1484.14,1097.41 1487.39,1100.79 1490.63,1104.13 1493.87,1107.42 1497.11,1110.68 1500.36,1113.89 1503.6,1117.05 1506.84,1120.17 1510.09,1123.24 1513.33,1126.26 1516.57,1129.23 1519.82,1132.15 1523.06,1135.02 1526.3,1137.83 1529.55,1140.59 1532.79,1143.3 1536.03,1145.95 1539.27,1148.55 1542.52,1151.09 1545.76,1153.58 1549,1156.01 1552.25,1158.39 1555.49,1160.7 1558.73,1162.96 1561.98,1165.16 1565.22,1167.3 1568.46,1169.37 1571.7,1171.38 1574.95,1173.33 1578.19,1175.22 1581.43,1177.03 1584.68,1178.79 1587.92,1180.49 1591.16,1182.13 1594.41,1183.72 1597.65,1185.25 1600.89,1186.74 1604.13,1188.17 1607.38,1189.55 1610.62,1190.89 1613.86,1192.19 1617.11,1193.44 1620.35,1194.65 1623.59,1195.82 1626.84,1196.95 1630.08,1198.04 1633.32,1199.09 1636.57,1200.12 1639.81,1201.1 1643.05,1202.05 1646.29,1202.97 1649.54,1203.86 1652.78,1204.72 1656.02,1205.55 1659.27,1206.35 1662.51,1207.12 1665.75,1207.86 1669,1208.57 1672.24,1209.26 1675.48,1209.92 1678.72,1210.56 1681.97,1211.17 1685.21,1211.75 1688.45,1212.31 1691.7,1212.84 1694.94,1213.35 1698.18,1213.83 1701.43,1214.29 1704.67,1214.72 1707.91,1215.12 1711.15,1215.5 1714.4,1215.86 1717.64,1216.19 1720.88,1216.49 1724.13,1216.76 1727.37,1217.01 1730.61,1217.23 1733.86,1217.42 1737.1,1217.58 1740.34,1217.71 1743.59,1217.81 1746.83,1217.88 1750.07,1217.92 1753.31,1217.92 1756.56,1217.89 1759.8,1217.82 1763.04,1217.71 1766.29,1217.57 1769.53,1217.39 1772.77,1217.17 1776.02,1216.9 1779.26,1216.59 1782.5,1216.24 1785.74,1215.84 1788.99,1215.39 1792.23,1214.89 1795.47,1214.34 1798.72,1213.74 1801.96,1213.08 1805.2,1212.36 1808.45,1211.59 1811.69,1210.75 1814.93,1209.85 1818.17,1208.89 1821.42,1207.87 1824.66,1206.78 1827.9,1205.64 1831.15,1204.44 1834.39,1203.19 1837.63,1201.87 1840.88,1200.49 1844.12,1199.06 1847.36,1197.57 1850.61,1196.01 1853.85,1194.4 1857.09,1192.73 1860.33,1191 1863.58,1189.21 1866.82,1187.36 1870.06,1185.44 1873.31,1183.47 1876.55,1181.43 1879.79,1179.33 1883.04,1177.16 1886.28,1174.93 1889.52,1172.63 1892.76,1170.27 1896.01,1167.83 1899.25,1165.33 1902.49,1162.75 1905.74,1160.12 1908.98,1157.41 1912.22,1154.65 1915.47,1151.83 1918.71,1148.96 1921.95,1146.04 1925.19,1143.07 1928.44,1140.06 1931.68,1137.01 1934.92,1133.93 1938.17,1130.81 1941.41,1127.66 1944.65,1124.49 1947.9,1121.29 1951.14,1118.08 1954.38,1114.84 1957.63,1111.59 1960.87,1108.33 1964.11,1105.06 1967.35,1101.78 1970.6,1098.5 1973.84,1095.22 1977.08,1091.95 1980.33,1088.67 1983.57,1085.41 1986.81,1082.15 1990.06,1078.91 1993.3,1075.68 1996.54,1072.47 1999.78,1069.28 2003.03,1066.11 2006.27,1062.95 2009.51,1059.82 2012.76,1056.71 2016,1053.61 2019.24,1050.54 2022.49,1047.49 2025.73,1044.47 2028.97,1041.46 2032.21,1038.48 2035.46,1035.52 2038.7,1032.58 2041.94,1029.67 2045.19,1026.78 2048.43,1023.92 2051.67,1021.08 2054.92,1018.26 2058.16,1015.46 2061.4,1012.68 2064.65,1009.92 2067.89,1007.17 2071.13,1004.44 2074.37,1001.73 2077.62,999.023 2080.86,996.331 2084.1,993.649 2087.35,990.975 2090.59,988.308 2093.83,985.646 2097.08,982.988 2100.32,980.333 2103.56,977.679 2106.8,975.025 2110.05,972.368 2113.29,969.708 2116.53,967.044 2119.78,964.376 2123.02,961.708 2126.26,959.042 2129.51,956.38 2132.75,953.725 2135.99,951.078 2139.23,948.442 2142.48,945.819 2145.72,943.212 2148.96,940.622 2152.21,938.052 2155.45,935.504 2158.69,932.981 2161.94,930.484 2165.18,928.016 2168.42,925.579 2171.67,923.174 2174.91,920.802 2178.15,918.463 2181.39,916.155 2184.64,913.879 2187.88,911.635 2191.12,909.42 2194.37,907.237 2197.61,905.083 2200.85,902.958 2204.1,900.863 2207.34,898.797 2210.58,896.759 2213.82,894.749 2217.07,892.767 2220.31,890.812 2223.55,888.884 2226.8,886.983 2230.04,885.108 2233.28,883.258 2236.53,881.435 2239.77,879.637 2243.01,877.864 2246.25,876.115 2249.5,874.391 2252.74,872.69 2255.98,871.014 2259.23,869.36 2262.47,867.73 2265.71,866.122 2268.96,864.537 2272.2,862.974 2275.44,861.433 2278.69,859.913 2281.93,858.415 2285.17,856.938 2288.41,855.481 2291.66,854.045 "/>
<path clip-path="url(#clip170)" d="M1953.46 302.578 L2280.8 302.578 L2280.8 95.2176 L1953.46 95.2176  Z" fill="#ffffff" fill-rule="evenodd" fill-opacity="1"/>
<polyline clip-path="url(#clip170)" style="stroke:#000000; stroke-linecap:round; stroke-linejoin:round; stroke-width:4; stroke-opacity:1; fill:none" points="1953.46,302.578 2280.8,302.578 2280.8,95.2176 1953.46,95.2176 1953.46,302.578 "/>
<polyline clip-path="url(#clip170)" style="stroke:#009af9; stroke-linecap:round; stroke-linejoin:round; stroke-width:4; stroke-opacity:1; fill:none" points="1977.44,147.058 2121.36,147.058 "/>
<path clip-path="url(#clip170)" d="M2152.76 131.051 L2152.76 138.412 L2161.53 138.412 L2161.53 141.722 L2152.76 141.722 L2152.76 155.796 Q2152.76 158.967 2153.61 159.87 Q2154.49 160.773 2157.16 160.773 L2161.53 160.773 L2161.53 164.338 L2157.16 164.338 Q2152.23 164.338 2150.35 162.509 Q2148.48 160.657 2148.48 155.796 L2148.48 141.722 L2145.35 141.722 L2145.35 138.412 L2148.48 138.412 L2148.48 131.051 L2152.76 131.051 Z" fill="#000000" fill-rule="nonzero" fill-opacity="1" /><path clip-path="url(#clip170)" d="M2182.16 142.393 Q2181.44 141.977 2180.58 141.791 Q2179.75 141.583 2178.73 141.583 Q2175.12 141.583 2173.17 143.944 Q2171.25 146.282 2171.25 150.68 L2171.25 164.338 L2166.97 164.338 L2166.97 138.412 L2171.25 138.412 L2171.25 142.44 Q2172.6 140.078 2174.75 138.944 Q2176.9 137.787 2179.98 137.787 Q2180.42 137.787 2180.95 137.856 Q2181.48 137.903 2182.13 138.018 L2182.16 142.393 Z" fill="#000000" fill-rule="nonzero" fill-opacity="1" /><path clip-path="url(#clip170)" d="M2186.18 154.106 L2186.18 138.412 L2190.44 138.412 L2190.44 153.944 Q2190.44 157.625 2191.88 159.476 Q2193.31 161.305 2196.18 161.305 Q2199.63 161.305 2201.62 159.106 Q2203.64 156.907 2203.64 153.111 L2203.64 138.412 L2207.9 138.412 L2207.9 164.338 L2203.64 164.338 L2203.64 160.356 Q2202.09 162.717 2200.03 163.875 Q2197.99 165.009 2195.28 165.009 Q2190.81 165.009 2188.5 162.231 Q2186.18 159.453 2186.18 154.106 M2196.9 137.787 L2196.9 137.787 Z" fill="#000000" fill-rule="nonzero" fill-opacity="1" /><path clip-path="url(#clip170)" d="M2220.88 131.051 L2220.88 138.412 L2229.66 138.412 L2229.66 141.722 L2220.88 141.722 L2220.88 155.796 Q2220.88 158.967 2221.74 159.87 Q2222.62 160.773 2225.28 160.773 L2229.66 160.773 L2229.66 164.338 L2225.28 164.338 Q2220.35 164.338 2218.48 162.509 Q2216.6 160.657 2216.6 155.796 L2216.6 141.722 L2213.48 141.722 L2213.48 138.412 L2216.6 138.412 L2216.6 131.051 L2220.88 131.051 Z" fill="#000000" fill-rule="nonzero" fill-opacity="1" /><path clip-path="url(#clip170)" d="M2256.81 148.689 L2256.81 164.338 L2252.55 164.338 L2252.55 148.828 Q2252.55 145.148 2251.11 143.319 Q2249.68 141.49 2246.81 141.49 Q2243.36 141.49 2241.37 143.69 Q2239.38 145.889 2239.38 149.685 L2239.38 164.338 L2235.1 164.338 L2235.1 128.319 L2239.38 128.319 L2239.38 142.44 Q2240.91 140.102 2242.97 138.944 Q2245.05 137.787 2247.76 137.787 Q2252.23 137.787 2254.52 140.565 Q2256.81 143.319 2256.81 148.689 Z" fill="#000000" fill-rule="nonzero" fill-opacity="1" /><circle clip-path="url(#clip170)" cx="2049.4" cy="198.898" r="20.48" fill="#e26f46" fill-rule="evenodd" fill-opacity="1" stroke="#000000" stroke-opacity="1" stroke-width="4.55111"/>
<path clip-path="url(#clip170)" d="M2164.26 194.187 L2164.26 180.159 L2168.52 180.159 L2168.52 216.178 L2164.26 216.178 L2164.26 212.289 Q2162.92 214.603 2160.86 215.738 Q2158.82 216.849 2155.95 216.849 Q2151.25 216.849 2148.29 213.099 Q2145.35 209.349 2145.35 203.238 Q2145.35 197.127 2148.29 193.377 Q2151.25 189.627 2155.95 189.627 Q2158.82 189.627 2160.86 190.761 Q2162.92 191.872 2164.26 194.187 M2149.75 203.238 Q2149.75 207.937 2151.67 210.622 Q2153.61 213.284 2156.99 213.284 Q2160.37 213.284 2162.32 210.622 Q2164.26 207.937 2164.26 203.238 Q2164.26 198.539 2162.32 195.877 Q2160.37 193.192 2156.99 193.192 Q2153.61 193.192 2151.67 195.877 Q2149.75 198.539 2149.75 203.238 Z" fill="#000000" fill-rule="nonzero" fill-opacity="1" /><path clip-path="url(#clip170)" d="M2189.08 203.145 Q2183.92 203.145 2181.92 204.326 Q2179.93 205.506 2179.93 208.354 Q2179.93 210.622 2181.42 211.965 Q2182.92 213.284 2185.49 213.284 Q2189.03 213.284 2191.16 210.784 Q2193.31 208.261 2193.31 204.094 L2193.31 203.145 L2189.08 203.145 M2197.57 201.386 L2197.57 216.178 L2193.31 216.178 L2193.31 212.242 Q2191.85 214.603 2189.68 215.738 Q2187.5 216.849 2184.36 216.849 Q2180.37 216.849 2178.01 214.627 Q2175.67 212.381 2175.67 208.631 Q2175.67 204.256 2178.59 202.034 Q2181.53 199.812 2187.34 199.812 L2193.31 199.812 L2193.31 199.395 Q2193.31 196.455 2191.37 194.858 Q2189.45 193.238 2185.95 193.238 Q2183.73 193.238 2181.62 193.77 Q2179.52 194.303 2177.57 195.367 L2177.57 191.432 Q2179.91 190.53 2182.11 190.09 Q2184.31 189.627 2186.39 189.627 Q2192.02 189.627 2194.79 192.543 Q2197.57 195.46 2197.57 201.386 Z" fill="#000000" fill-rule="nonzero" fill-opacity="1" /><path clip-path="url(#clip170)" d="M2210.56 182.891 L2210.56 190.252 L2219.33 190.252 L2219.33 193.562 L2210.56 193.562 L2210.56 207.636 Q2210.56 210.807 2211.42 211.71 Q2212.29 212.613 2214.96 212.613 L2219.33 212.613 L2219.33 216.178 L2214.96 216.178 Q2210.03 216.178 2208.15 214.349 Q2206.28 212.497 2206.28 207.636 L2206.28 193.562 L2203.15 193.562 L2203.15 190.252 L2206.28 190.252 L2206.28 182.891 L2210.56 182.891 Z" fill="#000000" fill-rule="nonzero" fill-opacity="1" /><path clip-path="url(#clip170)" d="M2236.72 203.145 Q2231.55 203.145 2229.56 204.326 Q2227.57 205.506 2227.57 208.354 Q2227.57 210.622 2229.05 211.965 Q2230.56 213.284 2233.13 213.284 Q2236.67 213.284 2238.8 210.784 Q2240.95 208.261 2240.95 204.094 L2240.95 203.145 L2236.72 203.145 M2245.21 201.386 L2245.21 216.178 L2240.95 216.178 L2240.95 212.242 Q2239.49 214.603 2237.32 215.738 Q2235.14 216.849 2231.99 216.849 Q2228.01 216.849 2225.65 214.627 Q2223.31 212.381 2223.31 208.631 Q2223.31 204.256 2226.23 202.034 Q2229.17 199.812 2234.98 199.812 L2240.95 199.812 L2240.95 199.395 Q2240.95 196.455 2239.01 194.858 Q2237.09 193.238 2233.59 193.238 Q2231.37 193.238 2229.26 193.77 Q2227.16 194.303 2225.21 195.367 L2225.21 191.432 Q2227.55 190.53 2229.75 190.09 Q2231.95 189.627 2234.03 189.627 Q2239.66 189.627 2242.43 192.543 Q2245.21 195.46 2245.21 201.386 Z" fill="#000000" fill-rule="nonzero" fill-opacity="1" /><polyline clip-path="url(#clip170)" style="stroke:#3da44d; stroke-linecap:round; stroke-linejoin:round; stroke-width:8; stroke-opacity:1; fill:none" points="1977.44,250.738 2121.36,250.738 "/>
<path clip-path="url(#clip170)" d="M2170.91 263.087 L2170.91 253.805 L2163.27 253.805 L2163.27 249.962 L2175.54 249.962 L2175.54 264.8 Q2172.83 266.721 2169.56 267.717 Q2166.3 268.689 2162.6 268.689 Q2154.49 268.689 2149.91 263.967 Q2145.35 259.221 2145.35 250.772 Q2145.35 242.3 2149.91 237.578 Q2154.49 232.833 2162.6 232.833 Q2165.98 232.833 2169.01 233.666 Q2172.06 234.499 2174.63 236.12 L2174.63 241.096 Q2172.04 238.897 2169.12 237.786 Q2166.21 236.675 2162.99 236.675 Q2156.65 236.675 2153.45 240.217 Q2150.28 243.758 2150.28 250.772 Q2150.28 257.763 2153.45 261.305 Q2156.65 264.846 2162.99 264.846 Q2165.47 264.846 2167.41 264.43 Q2169.36 263.99 2170.91 263.087 Z" fill="#000000" fill-rule="nonzero" fill-opacity="1" /><path clip-path="url(#clip170)" d="M2188.75 237.3 L2188.75 250.286 L2194.63 250.286 Q2197.9 250.286 2199.68 248.596 Q2201.46 246.907 2201.46 243.782 Q2201.46 240.68 2199.68 238.99 Q2197.9 237.3 2194.63 237.3 L2188.75 237.3 M2184.08 233.458 L2194.63 233.458 Q2200.44 233.458 2203.41 236.096 Q2206.39 238.712 2206.39 243.782 Q2206.39 248.897 2203.41 251.513 Q2200.44 254.129 2194.63 254.129 L2188.75 254.129 L2188.75 268.018 L2184.08 268.018 L2184.08 233.458 Z" fill="#000000" fill-rule="nonzero" fill-opacity="1" /></svg>
