<?xml version="1.0" encoding="utf-8"?>
<svg xmlns="http://www.w3.org/2000/svg" xmlns:xlink="http://www.w3.org/1999/xlink" width="600" height="400" viewBox="0 0 2400 1600">
<defs>
  <clipPath id="clip110">
    <rect x="0" y="0" width="2400" height="1600"/>
  </clipPath>
</defs>
<path clip-path="url(#clip110)" d="M0 1600 L2400 1600 L2400 0 L0 0  Z" fill="#ffffff" fill-rule="evenodd" fill-opacity="1"/>
<defs>
  <clipPath id="clip111">
    <rect x="480" y="0" width="1681" height="1600"/>
  </clipPath>
</defs>
<path clip-path="url(#clip110)" d="M193.936 1486.45 L2352.76 1486.45 L2352.76 47.2441 L193.936 47.2441  Z" fill="#ffffff" fill-rule="evenodd" fill-opacity="1"/>
<defs>
  <clipPath id="clip112">
    <rect x="193" y="47" width="2160" height="1440"/>
  </clipPath>
</defs>
<polyline clip-path="url(#clip112)" style="stroke:#000000; stroke-linecap:round; stroke-linejoin:round; stroke-width:2; stroke-opacity:0.1; fill:none" points="255.035,1486.45 255.035,47.2441 "/>
<polyline clip-path="url(#clip112)" style="stroke:#000000; stroke-linecap:round; stroke-linejoin:round; stroke-width:2; stroke-opacity:0.1; fill:none" points="579.338,1486.45 579.338,47.2441 "/>
<polyline clip-path="url(#clip112)" style="stroke:#000000; stroke-linecap:round; stroke-linejoin:round; stroke-width:2; stroke-opacity:0.1; fill:none" points="903.641,1486.45 903.641,47.2441 "/>
<polyline clip-path="url(#clip112)" style="stroke:#000000; stroke-linecap:round; stroke-linejoin:round; stroke-width:2; stroke-opacity:0.1; fill:none" points="1227.94,1486.45 1227.94,47.2441 "/>
<polyline clip-path="url(#clip112)" style="stroke:#000000; stroke-linecap:round; stroke-linejoin:round; stroke-width:2; stroke-opacity:0.1; fill:none" points="1552.25,1486.45 1552.25,47.2441 "/>
<polyline clip-path="url(#clip112)" style="stroke:#000000; stroke-linecap:round; stroke-linejoin:round; stroke-width:2; stroke-opacity:0.1; fill:none" points="1876.55,1486.45 1876.55,47.2441 "/>
<polyline clip-path="url(#clip112)" style="stroke:#000000; stroke-linecap:round; stroke-linejoin:round; stroke-width:2; stroke-opacity:0.1; fill:none" points="2200.85,1486.45 2200.85,47.2441 "/>
<polyline clip-path="url(#clip112)" style="stroke:#000000; stroke-linecap:round; stroke-linejoin:round; stroke-width:2; stroke-opacity:0.1; fill:none" points="193.936,1421.67 2352.76,1421.67 "/>
<polyline clip-path="url(#clip112)" style="stroke:#000000; stroke-linecap:round; stroke-linejoin:round; stroke-width:2; stroke-opacity:0.1; fill:none" points="193.936,1109.96 2352.76,1109.96 "/>
<polyline clip-path="url(#clip112)" style="stroke:#000000; stroke-linecap:round; stroke-linejoin:round; stroke-width:2; stroke-opacity:0.1; fill:none" points="193.936,798.261 2352.76,798.261 "/>
<polyline clip-path="url(#clip112)" style="stroke:#000000; stroke-linecap:round; stroke-linejoin:round; stroke-width:2; stroke-opacity:0.1; fill:none" points="193.936,486.558 2352.76,486.558 "/>
<polyline clip-path="url(#clip112)" style="stroke:#000000; stroke-linecap:round; stroke-linejoin:round; stroke-width:2; stroke-opacity:0.1; fill:none" points="193.936,174.854 2352.76,174.854 "/>
<polyline clip-path="url(#clip110)" style="stroke:#000000; stroke-linecap:round; stroke-linejoin:round; stroke-width:4; stroke-opacity:1; fill:none" points="193.936,1486.45 2352.76,1486.45 "/>
<polyline clip-path="url(#clip110)" style="stroke:#000000; stroke-linecap:round; stroke-linejoin:round; stroke-width:4; stroke-opacity:1; fill:none" points="255.035,1486.45 255.035,1467.55 "/>
<polyline clip-path="url(#clip110)" style="stroke:#000000; stroke-linecap:round; stroke-linejoin:round; stroke-width:4; stroke-opacity:1; fill:none" points="579.338,1486.45 579.338,1467.55 "/>
<polyline clip-path="url(#clip110)" style="stroke:#000000; stroke-linecap:round; stroke-linejoin:round; stroke-width:4; stroke-opacity:1; fill:none" points="903.641,1486.45 903.641,1467.55 "/>
<polyline clip-path="url(#clip110)" style="stroke:#000000; stroke-linecap:round; stroke-linejoin:round; stroke-width:4; stroke-opacity:1; fill:none" points="1227.94,1486.45 1227.94,1467.55 "/>
<polyline clip-path="url(#clip110)" style="stroke:#000000; stroke-linecap:round; stroke-linejoin:round; stroke-width:4; stroke-opacity:1; fill:none" points="1552.25,1486.45 1552.25,1467.55 "/>
<polyline clip-path="url(#clip110)" style="stroke:#000000; stroke-linecap:round; stroke-linejoin:round; stroke-width:4; stroke-opacity:1; fill:none" points="1876.55,1486.45 1876.55,1467.55 "/>
<polyline clip-path="url(#clip110)" style="stroke:#000000; stroke-linecap:round; stroke-linejoin:round; stroke-width:4; stroke-opacity:1; fill:none" points="2200.85,1486.45 2200.85,1467.55 "/>
<path clip-path="url(#clip110)" d="M255.035 1517.37 Q251.424 1517.37 249.595 1520.93 Q247.789 1524.47 247.789 1531.6 Q247.789 1538.71 249.595 1542.27 Q251.424 1545.82 255.035 1545.82 Q258.669 1545.82 260.474 1542.27 Q262.303 1538.71 262.303 1531.6 Q262.303 1524.47 260.474 1520.93 Q258.669 1517.37 255.035 1517.37 M255.035 1513.66 Q260.845 1513.66 263.9 1518.27 Q266.979 1522.85 266.979 1531.6 Q266.979 1540.33 263.9 1544.94 Q260.845 1549.52 255.035 1549.52 Q249.225 1549.52 246.146 1544.94 Q243.09 1540.33 243.09 1531.6 Q243.09 1522.85 246.146 1518.27 Q249.225 1513.66 255.035 1513.66 Z" fill="#000000" fill-rule="nonzero" fill-opacity="1" /><path clip-path="url(#clip110)" d="M569.72 1544.91 L577.358 1544.91 L577.358 1518.55 L569.048 1520.21 L569.048 1515.95 L577.312 1514.29 L581.988 1514.29 L581.988 1544.91 L589.627 1544.91 L589.627 1548.85 L569.72 1548.85 L569.72 1544.91 Z" fill="#000000" fill-rule="nonzero" fill-opacity="1" /><path clip-path="url(#clip110)" d="M898.293 1544.91 L914.613 1544.91 L914.613 1548.85 L892.668 1548.85 L892.668 1544.91 Q895.33 1542.16 899.914 1537.53 Q904.52 1532.88 905.701 1531.53 Q907.946 1529.01 908.826 1527.27 Q909.729 1525.51 909.729 1523.82 Q909.729 1521.07 907.784 1519.33 Q905.863 1517.6 902.761 1517.6 Q900.562 1517.6 898.108 1518.36 Q895.678 1519.13 892.9 1520.68 L892.9 1515.95 Q895.724 1514.82 898.178 1514.24 Q900.631 1513.66 902.668 1513.66 Q908.039 1513.66 911.233 1516.35 Q914.428 1519.03 914.428 1523.52 Q914.428 1525.65 913.617 1527.57 Q912.83 1529.47 910.724 1532.07 Q910.145 1532.74 907.043 1535.95 Q903.942 1539.15 898.293 1544.91 Z" fill="#000000" fill-rule="nonzero" fill-opacity="1" /><path clip-path="url(#clip110)" d="M1232.19 1530.21 Q1235.55 1530.93 1237.42 1533.2 Q1239.32 1535.47 1239.32 1538.8 Q1239.32 1543.92 1235.8 1546.72 Q1232.28 1549.52 1225.8 1549.52 Q1223.63 1549.52 1221.31 1549.08 Q1219.02 1548.66 1216.57 1547.81 L1216.57 1543.29 Q1218.51 1544.43 1220.83 1545.01 Q1223.14 1545.58 1225.66 1545.58 Q1230.06 1545.58 1232.35 1543.85 Q1234.67 1542.11 1234.67 1538.8 Q1234.67 1535.75 1232.52 1534.03 Q1230.39 1532.3 1226.57 1532.3 L1222.54 1532.3 L1222.54 1528.45 L1226.75 1528.45 Q1230.2 1528.45 1232.03 1527.09 Q1233.86 1525.7 1233.86 1523.11 Q1233.86 1520.45 1231.96 1519.03 Q1230.08 1517.6 1226.57 1517.6 Q1224.64 1517.6 1222.45 1518.01 Q1220.25 1518.43 1217.61 1519.31 L1217.61 1515.14 Q1220.27 1514.4 1222.58 1514.03 Q1224.92 1513.66 1226.98 1513.66 Q1232.31 1513.66 1235.41 1516.09 Q1238.51 1518.5 1238.51 1522.62 Q1238.51 1525.49 1236.87 1527.48 Q1235.22 1529.45 1232.19 1530.21 Z" fill="#000000" fill-rule="nonzero" fill-opacity="1" /><path clip-path="url(#clip110)" d="M1555.26 1518.36 L1543.45 1536.81 L1555.26 1536.81 L1555.26 1518.36 M1554.03 1514.29 L1559.91 1514.29 L1559.91 1536.81 L1564.84 1536.81 L1564.84 1540.7 L1559.91 1540.7 L1559.91 1548.85 L1555.26 1548.85 L1555.26 1540.7 L1539.65 1540.7 L1539.65 1536.19 L1554.03 1514.29 Z" fill="#000000" fill-rule="nonzero" fill-opacity="1" /><path clip-path="url(#clip110)" d="M1866.83 1514.29 L1885.18 1514.29 L1885.18 1518.22 L1871.11 1518.22 L1871.11 1526.7 Q1872.13 1526.35 1873.15 1526.19 Q1874.17 1526 1875.18 1526 Q1880.97 1526 1884.35 1529.17 Q1887.73 1532.34 1887.73 1537.76 Q1887.73 1543.34 1884.26 1546.44 Q1880.79 1549.52 1874.47 1549.52 Q1872.29 1549.52 1870.02 1549.15 Q1867.78 1548.78 1865.37 1548.04 L1865.37 1543.34 Q1867.45 1544.47 1869.67 1545.03 Q1871.9 1545.58 1874.37 1545.58 Q1878.38 1545.58 1880.72 1543.48 Q1883.05 1541.37 1883.05 1537.76 Q1883.05 1534.15 1880.72 1532.04 Q1878.38 1529.94 1874.37 1529.94 Q1872.5 1529.94 1870.62 1530.35 Q1868.77 1530.77 1866.83 1531.65 L1866.83 1514.29 Z" fill="#000000" fill-rule="nonzero" fill-opacity="1" /><path clip-path="url(#clip110)" d="M2201.26 1529.7 Q2198.11 1529.7 2196.26 1531.86 Q2194.43 1534.01 2194.43 1537.76 Q2194.43 1541.49 2196.26 1543.66 Q2198.11 1545.82 2201.26 1545.82 Q2204.41 1545.82 2206.23 1543.66 Q2208.09 1541.49 2208.09 1537.76 Q2208.09 1534.01 2206.23 1531.86 Q2204.41 1529.7 2201.26 1529.7 M2210.54 1515.05 L2210.54 1519.31 Q2208.78 1518.48 2206.98 1518.04 Q2205.19 1517.6 2203.43 1517.6 Q2198.8 1517.6 2196.35 1520.72 Q2193.92 1523.85 2193.57 1530.17 Q2194.94 1528.15 2197 1527.09 Q2199.06 1526 2201.54 1526 Q2206.74 1526 2209.75 1529.17 Q2212.79 1532.32 2212.79 1537.76 Q2212.79 1543.08 2209.64 1546.3 Q2206.49 1549.52 2201.26 1549.52 Q2195.26 1549.52 2192.09 1544.94 Q2188.92 1540.33 2188.92 1531.6 Q2188.92 1523.41 2192.81 1518.55 Q2196.7 1513.66 2203.25 1513.66 Q2205.01 1513.66 2206.79 1514.01 Q2208.6 1514.36 2210.54 1515.05 Z" fill="#000000" fill-rule="nonzero" fill-opacity="1" /><polyline clip-path="url(#clip110)" style="stroke:#000000; stroke-linecap:round; stroke-linejoin:round; stroke-width:4; stroke-opacity:1; fill:none" points="193.936,1486.45 193.936,47.2441 "/>
<polyline clip-path="url(#clip110)" style="stroke:#000000; stroke-linecap:round; stroke-linejoin:round; stroke-width:4; stroke-opacity:1; fill:none" points="193.936,1421.67 212.834,1421.67 "/>
<polyline clip-path="url(#clip110)" style="stroke:#000000; stroke-linecap:round; stroke-linejoin:round; stroke-width:4; stroke-opacity:1; fill:none" points="193.936,1109.96 212.834,1109.96 "/>
<polyline clip-path="url(#clip110)" style="stroke:#000000; stroke-linecap:round; stroke-linejoin:round; stroke-width:4; stroke-opacity:1; fill:none" points="193.936,798.261 212.834,798.261 "/>
<polyline clip-path="url(#clip110)" style="stroke:#000000; stroke-linecap:round; stroke-linejoin:round; stroke-width:4; stroke-opacity:1; fill:none" points="193.936,486.558 212.834,486.558 "/>
<polyline clip-path="url(#clip110)" style="stroke:#000000; stroke-linecap:round; stroke-linejoin:round; stroke-width:4; stroke-opacity:1; fill:none" points="193.936,174.854 212.834,174.854 "/>
<path clip-path="url(#clip110)" d="M50.9921 1422.12 L80.6679 1422.12 L80.6679 1426.05 L50.9921 1426.05 L50.9921 1422.12 Z" fill="#000000" fill-rule="nonzero" fill-opacity="1" /><path clip-path="url(#clip110)" d="M91.5706 1435.01 L99.2095 1435.01 L99.2095 1408.65 L90.8993 1410.31 L90.8993 1406.05 L99.1632 1404.39 L103.839 1404.39 L103.839 1435.01 L111.478 1435.01 L111.478 1438.95 L91.5706 1438.95 L91.5706 1435.01 Z" fill="#000000" fill-rule="nonzero" fill-opacity="1" /><path clip-path="url(#clip110)" d="M120.922 1433.07 L125.807 1433.07 L125.807 1438.95 L120.922 1438.95 L120.922 1433.07 Z" fill="#000000" fill-rule="nonzero" fill-opacity="1" /><path clip-path="url(#clip110)" d="M145.992 1407.47 Q142.381 1407.47 140.552 1411.03 Q138.746 1414.57 138.746 1421.7 Q138.746 1428.81 140.552 1432.37 Q142.381 1435.91 145.992 1435.91 Q149.626 1435.91 151.431 1432.37 Q153.26 1428.81 153.26 1421.7 Q153.26 1414.57 151.431 1411.03 Q149.626 1407.47 145.992 1407.47 M145.992 1403.76 Q151.802 1403.76 154.857 1408.37 Q157.936 1412.95 157.936 1421.7 Q157.936 1430.43 154.857 1435.04 Q151.802 1439.62 145.992 1439.62 Q140.181 1439.62 137.103 1435.04 Q134.047 1430.43 134.047 1421.7 Q134.047 1412.95 137.103 1408.37 Q140.181 1403.76 145.992 1403.76 Z" fill="#000000" fill-rule="nonzero" fill-opacity="1" /><path clip-path="url(#clip110)" d="M51.9875 1110.42 L81.6633 1110.42 L81.6633 1114.35 L51.9875 1114.35 L51.9875 1110.42 Z" fill="#000000" fill-rule="nonzero" fill-opacity="1" /><path clip-path="url(#clip110)" d="M101.756 1095.76 Q98.1447 1095.76 96.316 1099.33 Q94.5104 1102.87 94.5104 1110 Q94.5104 1117.11 96.316 1120.67 Q98.1447 1124.21 101.756 1124.21 Q105.39 1124.21 107.196 1120.67 Q109.024 1117.11 109.024 1110 Q109.024 1102.87 107.196 1099.33 Q105.39 1095.76 101.756 1095.76 M101.756 1092.06 Q107.566 1092.06 110.621 1096.67 Q113.7 1101.25 113.7 1110 Q113.7 1118.73 110.621 1123.33 Q107.566 1127.92 101.756 1127.92 Q95.9456 1127.92 92.8669 1123.33 Q89.8114 1118.73 89.8114 1110 Q89.8114 1101.25 92.8669 1096.67 Q95.9456 1092.06 101.756 1092.06 Z" fill="#000000" fill-rule="nonzero" fill-opacity="1" /><path clip-path="url(#clip110)" d="M121.918 1121.36 L126.802 1121.36 L126.802 1127.24 L121.918 1127.24 L121.918 1121.36 Z" fill="#000000" fill-rule="nonzero" fill-opacity="1" /><path clip-path="url(#clip110)" d="M137.033 1092.68 L155.39 1092.68 L155.39 1096.62 L141.316 1096.62 L141.316 1105.09 Q142.334 1104.74 143.353 1104.58 Q144.371 1104.4 145.39 1104.4 Q151.177 1104.4 154.556 1107.57 Q157.936 1110.74 157.936 1116.16 Q157.936 1121.73 154.464 1124.84 Q150.992 1127.92 144.672 1127.92 Q142.496 1127.92 140.228 1127.54 Q137.982 1127.17 135.575 1126.43 L135.575 1121.73 Q137.658 1122.87 139.881 1123.42 Q142.103 1123.98 144.58 1123.98 Q148.584 1123.98 150.922 1121.87 Q153.26 1119.77 153.26 1116.16 Q153.26 1112.55 150.922 1110.44 Q148.584 1108.33 144.58 1108.33 Q142.705 1108.33 140.83 1108.75 Q138.978 1109.17 137.033 1110.05 L137.033 1092.68 Z" fill="#000000" fill-rule="nonzero" fill-opacity="1" /><path clip-path="url(#clip110)" d="M100.76 784.059 Q97.1493 784.059 95.3206 787.624 Q93.515 791.166 93.515 798.295 Q93.515 805.402 95.3206 808.967 Q97.1493 812.508 100.76 812.508 Q104.395 812.508 106.2 808.967 Q108.029 805.402 108.029 798.295 Q108.029 791.166 106.2 787.624 Q104.395 784.059 100.76 784.059 M100.76 780.356 Q106.571 780.356 109.626 784.962 Q112.705 789.546 112.705 798.295 Q112.705 807.022 109.626 811.629 Q106.571 816.212 100.76 816.212 Q94.9502 816.212 91.8715 811.629 Q88.816 807.022 88.816 798.295 Q88.816 789.546 91.8715 784.962 Q94.9502 780.356 100.76 780.356 Z" fill="#000000" fill-rule="nonzero" fill-opacity="1" /><path clip-path="url(#clip110)" d="M120.922 809.661 L125.807 809.661 L125.807 815.541 L120.922 815.541 L120.922 809.661 Z" fill="#000000" fill-rule="nonzero" fill-opacity="1" /><path clip-path="url(#clip110)" d="M145.992 784.059 Q142.381 784.059 140.552 787.624 Q138.746 791.166 138.746 798.295 Q138.746 805.402 140.552 808.967 Q142.381 812.508 145.992 812.508 Q149.626 812.508 151.431 808.967 Q153.26 805.402 153.26 798.295 Q153.26 791.166 151.431 787.624 Q149.626 784.059 145.992 784.059 M145.992 780.356 Q151.802 780.356 154.857 784.962 Q157.936 789.546 157.936 798.295 Q157.936 807.022 154.857 811.629 Q151.802 816.212 145.992 816.212 Q140.181 816.212 137.103 811.629 Q134.047 807.022 134.047 798.295 Q134.047 789.546 137.103 784.962 Q140.181 780.356 145.992 780.356 Z" fill="#000000" fill-rule="nonzero" fill-opacity="1" /><path clip-path="url(#clip110)" d="M101.756 472.356 Q98.1447 472.356 96.316 475.921 Q94.5104 479.463 94.5104 486.592 Q94.5104 493.699 96.316 497.263 Q98.1447 500.805 101.756 500.805 Q105.39 500.805 107.196 497.263 Q109.024 493.699 109.024 486.592 Q109.024 479.463 107.196 475.921 Q105.39 472.356 101.756 472.356 M101.756 468.653 Q107.566 468.653 110.621 473.259 Q113.7 477.842 113.7 486.592 Q113.7 495.319 110.621 499.926 Q107.566 504.509 101.756 504.509 Q95.9456 504.509 92.8669 499.926 Q89.8114 495.319 89.8114 486.592 Q89.8114 477.842 92.8669 473.259 Q95.9456 468.653 101.756 468.653 Z" fill="#000000" fill-rule="nonzero" fill-opacity="1" /><path clip-path="url(#clip110)" d="M121.918 497.958 L126.802 497.958 L126.802 503.838 L121.918 503.838 L121.918 497.958 Z" fill="#000000" fill-rule="nonzero" fill-opacity="1" /><path clip-path="url(#clip110)" d="M137.033 469.278 L155.39 469.278 L155.39 473.213 L141.316 473.213 L141.316 481.685 Q142.334 481.338 143.353 481.176 Q144.371 480.99 145.39 480.99 Q151.177 480.99 154.556 484.162 Q157.936 487.333 157.936 492.75 Q157.936 498.328 154.464 501.43 Q150.992 504.509 144.672 504.509 Q142.496 504.509 140.228 504.138 Q137.982 503.768 135.575 503.027 L135.575 498.328 Q137.658 499.463 139.881 500.018 Q142.103 500.574 144.58 500.574 Q148.584 500.574 150.922 498.467 Q153.26 496.361 153.26 492.75 Q153.26 489.139 150.922 487.032 Q148.584 484.926 144.58 484.926 Q142.705 484.926 140.83 485.342 Q138.978 485.759 137.033 486.639 L137.033 469.278 Z" fill="#000000" fill-rule="nonzero" fill-opacity="1" /><path clip-path="url(#clip110)" d="M91.5706 188.199 L99.2095 188.199 L99.2095 161.834 L90.8993 163.5 L90.8993 159.241 L99.1632 157.574 L103.839 157.574 L103.839 188.199 L111.478 188.199 L111.478 192.134 L91.5706 192.134 L91.5706 188.199 Z" fill="#000000" fill-rule="nonzero" fill-opacity="1" /><path clip-path="url(#clip110)" d="M120.922 186.255 L125.807 186.255 L125.807 192.134 L120.922 192.134 L120.922 186.255 Z" fill="#000000" fill-rule="nonzero" fill-opacity="1" /><path clip-path="url(#clip110)" d="M145.992 160.653 Q142.381 160.653 140.552 164.218 Q138.746 167.759 138.746 174.889 Q138.746 181.995 140.552 185.56 Q142.381 189.102 145.992 189.102 Q149.626 189.102 151.431 185.56 Q153.26 181.995 153.26 174.889 Q153.26 167.759 151.431 164.218 Q149.626 160.653 145.992 160.653 M145.992 156.949 Q151.802 156.949 154.857 161.556 Q157.936 166.139 157.936 174.889 Q157.936 183.616 154.857 188.222 Q151.802 192.806 145.992 192.806 Q140.181 192.806 137.103 188.222 Q134.047 183.616 134.047 174.889 Q134.047 166.139 137.103 161.556 Q140.181 156.949 145.992 156.949 Z" fill="#000000" fill-rule="nonzero" fill-opacity="1" /><polyline clip-path="url(#clip112)" style="stroke:#009af9; stroke-linecap:round; stroke-linejoin:round; stroke-width:4; stroke-opacity:1; fill:none" points="255.035,798.261 258.278,792.027 261.521,785.793 264.764,779.561 268.007,773.331 271.25,767.103 274.493,760.879 277.736,754.658 280.979,748.441 284.222,742.23 287.465,736.024 290.708,729.824 293.951,723.631 297.194,717.446 300.437,711.269 303.68,705.1 306.923,698.941 310.166,692.791 313.409,686.653 316.652,680.525 319.895,674.409 323.138,668.306 326.381,662.215 329.624,656.138 332.867,650.075 336.11,644.028 339.353,637.995 342.596,631.979 345.84,625.979 349.083,619.996 352.326,614.032 355.569,608.085 358.812,602.158 362.055,596.25 365.298,590.363 368.541,584.496 371.784,578.651 375.027,572.827 378.27,567.027 381.513,561.249 384.756,555.495 387.999,549.765 391.242,544.06 394.485,538.381 397.728,532.727 400.971,527.1 404.214,521.501 407.457,515.929 410.7,510.385 413.943,504.87 417.186,499.384 420.429,493.928 423.672,488.502 426.915,483.108 430.158,477.745 433.401,472.414 436.644,467.116 439.887,461.851 443.13,456.619 446.373,451.422 449.616,446.259 452.859,441.131 456.103,436.04 459.346,430.984 462.589,425.965 465.832,420.984 469.075,416.04 472.318,411.134 475.561,406.267 478.804,401.439 482.047,396.651 485.29,391.903 488.533,387.196 491.776,382.53 495.019,377.905 498.262,373.323 501.505,368.783 504.748,364.286 507.991,359.832 511.234,355.422 514.477,351.056 517.72,346.735 520.963,342.46 524.206,338.23 527.449,334.045 530.692,329.908 533.935,325.817 537.178,321.773 540.421,317.777 543.664,313.829 546.907,309.93 550.15,306.079 553.393,302.278 556.636,298.526 559.879,294.824 563.122,291.172 566.366,287.571 569.609,284.022 572.852,280.523 576.095,277.077 579.338,273.682 582.581,270.34 585.824,267.051 589.067,263.815 592.31,260.632 595.553,257.504 598.796,254.429 602.039,251.408 605.282,248.443 608.525,245.532 611.768,242.676 615.011,239.876 618.254,237.132 621.497,234.444 624.74,231.813 627.983,229.238 631.226,226.72 634.469,224.259 637.712,221.855 640.955,219.51 644.198,217.222 647.441,214.992 650.684,212.82 653.927,210.707 657.17,208.653 660.413,206.658 663.656,204.721 666.899,202.845 670.142,201.027 673.385,199.27 676.629,197.572 679.872,195.935 683.115,194.357 686.358,192.841 689.601,191.384 692.844,189.989 696.087,188.654 699.33,187.38 702.573,186.167 705.816,185.015 709.059,183.925 712.302,182.896 715.545,181.929 718.788,181.023 722.031,180.179 725.274,179.397 728.517,178.677 731.76,178.018 735.003,177.422 738.246,176.888 741.489,176.416 744.732,176.006 747.975,175.658 751.218,175.373 754.461,175.15 757.704,174.989 760.947,174.891 764.19,174.854 767.433,174.881 770.676,174.969 773.919,175.12 777.162,175.333 780.405,175.609 783.648,175.947 786.892,176.346 790.135,176.809 793.378,177.333 796.621,177.919 799.864,178.568 803.107,179.278 806.35,180.05 809.593,180.885 812.836,181.78 816.079,182.738 819.322,183.757 822.565,184.838 825.808,185.979 829.051,187.182 832.294,188.447 835.537,189.772 838.78,191.158 842.023,192.605 845.266,194.112 848.509,195.68 851.752,197.308 854.995,198.996 858.238,200.744 861.481,202.551 864.724,204.419 867.967,206.345 871.21,208.331 874.453,210.376 877.696,212.48 880.939,214.642 884.182,216.863 887.425,219.141 890.668,221.478 893.911,223.872 897.155,226.324 900.398,228.833 903.641,231.399 906.884,234.021 910.127,236.7 913.37,239.436 916.613,242.227 919.856,245.073 923.099,247.975 926.342,250.932 929.585,253.944 932.828,257.01 936.071,260.13 939.314,263.305 942.557,266.532 945.8,269.813 949.043,273.147 952.286,276.533 955.529,279.971 958.772,283.461 962.015,287.003 965.258,290.595 968.501,294.239 971.744,297.933 974.987,301.677 978.23,305.47 981.473,309.313 984.716,313.205 987.959,317.145 991.202,321.134 994.445,325.17 997.688,329.253 1000.93,333.383 1004.17,337.56 1007.42,341.783 1010.66,346.051 1013.9,350.365 1017.15,354.724 1020.39,359.127 1023.63,363.573 1026.88,368.064 1030.12,372.597 1033.36,377.173 1036.6,381.791 1039.85,386.45 1043.09,391.151 1046.33,395.892 1049.58,400.674 1052.82,405.496 1056.06,410.356 1059.31,415.256 1062.55,420.194 1065.79,425.169 1069.04,430.182 1072.28,435.232 1075.52,440.318 1078.76,445.44 1082.01,450.597 1085.25,455.789 1088.49,461.015 1091.74,466.275 1094.98,471.568 1098.22,476.894 1101.47,482.252 1104.71,487.641 1107.95,493.062 1111.19,498.513 1114.44,503.994 1117.68,509.504 1120.92,515.044 1124.17,520.611 1127.41,526.207 1130.65,531.829 1133.9,537.479 1137.14,543.154 1140.38,548.855 1143.62,554.581 1146.87,560.331 1150.11,566.105 1153.35,571.902 1156.6,577.722 1159.84,583.564 1163.08,589.427 1166.33,595.311 1169.57,601.216 1172.81,607.14 1176.06,613.083 1179.3,619.045 1182.54,625.025 1185.78,631.022 1189.03,637.036 1192.27,643.066 1195.51,649.111 1198.76,655.172 1202,661.246 1205.24,667.335 1208.49,673.436 1211.73,679.55 1214.97,685.676 1218.21,691.813 1221.46,697.961 1224.7,704.118 1227.94,710.286 1231.19,716.462 1234.43,722.646 1237.67,728.837 1240.92,735.036 1244.16,741.241 1247.4,747.452 1250.64,753.668 1253.89,759.888 1257.13,766.112 1260.37,772.339 1263.62,778.569 1266.86,784.801 1270.1,791.034 1273.35,797.268 1276.59,803.502 1279.83,809.735 1283.08,815.968 1286.32,822.198 1289.56,828.426 1292.8,834.652 1296.05,840.873 1299.29,847.09 1302.53,853.303 1305.78,859.51 1309.02,865.71 1312.26,871.904 1315.51,878.091 1318.75,884.27 1321.99,890.44 1325.23,896.6 1328.48,902.751 1331.72,908.892 1334.96,915.021 1338.21,921.139 1341.45,927.245 1344.69,933.337 1347.94,939.417 1351.18,945.482 1354.42,951.532 1357.66,957.567 1360.91,963.586 1364.15,969.588 1367.39,975.574 1370.64,981.541 1373.88,987.491 1377.12,993.421 1380.37,999.332 1383.61,1005.22 1386.85,1011.09 1390.1,1016.94 1393.34,1022.77 1396.58,1028.57 1399.82,1034.35 1403.07,1040.11 1406.31,1045.85 1409.55,1051.55 1412.8,1057.24 1416.04,1062.9 1419.28,1068.53 1422.53,1074.13 1425.77,1079.71 1429.01,1085.26 1432.25,1090.78 1435.5,1096.27 1438.74,1101.73 1441.98,1107.16 1445.23,1112.56 1448.47,1117.92 1451.71,1123.26 1454.96,1128.56 1458.2,1133.83 1461.44,1139.07 1464.68,1144.27 1467.93,1149.44 1471.17,1154.58 1474.41,1159.67 1477.66,1164.73 1480.9,1169.76 1484.14,1174.75 1487.39,1179.7 1490.63,1184.61 1493.87,1189.48 1497.11,1194.32 1500.36,1199.11 1503.6,1203.86 1506.84,1208.58 1510.09,1213.25 1513.33,1217.88 1516.57,1222.47 1519.82,1227.02 1523.06,1231.52 1526.3,1235.98 1529.55,1240.4 1532.79,1244.77 1536.03,1249.1 1539.27,1253.38 1542.52,1257.62 1545.76,1261.81 1549,1265.96 1552.25,1270.06 1555.49,1274.11 1558.73,1278.11 1561.98,1282.07 1565.22,1285.97 1568.46,1289.83 1571.7,1293.64 1574.95,1297.4 1578.19,1301.11 1581.43,1304.77 1584.68,1308.38 1587.92,1311.94 1591.16,1315.44 1594.41,1318.9 1597.65,1322.3 1600.89,1325.65 1604.13,1328.95 1607.38,1332.19 1610.62,1335.39 1613.86,1338.52 1617.11,1341.61 1620.35,1344.64 1623.59,1347.61 1626.84,1350.53 1630.08,1353.39 1633.32,1356.2 1636.57,1358.96 1639.81,1361.65 1643.05,1364.29 1646.29,1366.88 1649.54,1369.4 1652.78,1371.87 1656.02,1374.29 1659.27,1376.64 1662.51,1378.94 1665.75,1381.18 1669,1383.36 1672.24,1385.48 1675.48,1387.55 1678.72,1389.55 1681.97,1391.5 1685.21,1393.38 1688.45,1395.21 1691.7,1396.98 1694.94,1398.68 1698.18,1400.33 1701.43,1401.92 1704.67,1403.44 1707.91,1404.91 1711.15,1406.31 1714.4,1407.66 1717.64,1408.94 1720.88,1410.17 1724.13,1411.33 1727.37,1412.43 1730.61,1413.47 1733.86,1414.44 1737.1,1415.36 1740.34,1416.21 1743.59,1417 1746.83,1417.73 1750.07,1418.4 1753.31,1419.01 1756.56,1419.55 1759.8,1420.03 1763.04,1420.45 1766.29,1420.81 1769.53,1421.11 1772.77,1421.34 1776.02,1421.51 1779.26,1421.62 1782.5,1421.67 1785.74,1421.65 1788.99,1421.57 1792.23,1421.43 1795.47,1421.23 1798.72,1420.96 1801.96,1420.63 1805.2,1420.24 1808.45,1419.79 1811.69,1419.28 1814.93,1418.7 1818.17,1418.06 1821.42,1417.36 1824.66,1416.6 1827.9,1415.77 1831.15,1414.89 1834.39,1413.94 1837.63,1412.93 1840.88,1411.86 1844.12,1410.73 1847.36,1409.53 1850.61,1408.28 1853.85,1406.96 1857.09,1405.59 1860.33,1404.15 1863.58,1402.65 1866.82,1401.1 1870.06,1399.48 1873.31,1397.8 1876.55,1396.06 1879.79,1394.26 1883.04,1392.4 1886.28,1390.49 1889.52,1388.51 1892.76,1386.48 1896.01,1384.38 1899.25,1382.23 1902.49,1380.02 1905.74,1377.75 1908.98,1375.42 1912.22,1373.03 1915.47,1370.59 1918.71,1368.09 1921.95,1365.54 1925.19,1362.92 1928.44,1360.25 1931.68,1357.53 1934.92,1354.74 1938.17,1351.91 1941.41,1349.01 1944.65,1346.06 1947.9,1343.06 1951.14,1340 1954.38,1336.89 1957.63,1333.73 1960.87,1330.51 1964.11,1327.23 1967.35,1323.91 1970.6,1320.53 1973.84,1317.1 1977.08,1313.62 1980.33,1310.09 1983.57,1306.5 1986.81,1302.87 1990.06,1299.18 1993.3,1295.44 1996.54,1291.66 1999.78,1287.82 2003.03,1283.94 2006.27,1280.01 2009.51,1276.03 2012.76,1272 2016,1267.92 2019.24,1263.8 2022.49,1259.63 2025.73,1255.41 2028.97,1251.15 2032.21,1246.85 2035.46,1242.49 2038.7,1238.1 2041.94,1233.66 2045.19,1229.18 2048.43,1224.65 2051.67,1220.08 2054.92,1215.47 2058.16,1210.82 2061.4,1206.12 2064.65,1201.39 2067.89,1196.61 2071.13,1191.8 2074.37,1186.94 2077.62,1182.05 2080.86,1177.12 2084.1,1172.15 2087.35,1167.14 2090.59,1162.1 2093.83,1157.02 2097.08,1151.9 2100.32,1146.75 2103.56,1141.56 2106.8,1136.34 2110.05,1131.09 2113.29,1125.8 2116.53,1120.48 2119.78,1115.13 2123.02,1109.74 2126.26,1104.33 2129.51,1098.88 2132.75,1093.4 2135.99,1087.9 2139.23,1082.36 2142.48,1076.8 2145.72,1071.21 2148.96,1065.59 2152.21,1059.94 2155.45,1054.27 2158.69,1048.58 2161.94,1042.85 2165.18,1037.11 2168.42,1031.34 2171.67,1025.54 2174.91,1019.73 2178.15,1013.89 2181.39,1008.03 2184.64,1002.15 2187.88,996.248 2191.12,990.326 2194.37,984.386 2197.61,978.427 2200.85,972.45 2204.1,966.456 2207.34,960.445 2210.58,954.417 2213.82,948.374 2217.07,942.316 2220.31,936.244 2223.55,930.157 2226.8,924.058 2230.04,917.946 2233.28,911.822 2236.53,905.687 2239.77,899.541 2243.01,893.384 2246.25,887.219 2249.5,881.044 2252.74,874.861 2255.98,868.671 2259.23,862.473 2262.47,856.269 2265.71,850.059 2268.96,843.844 2272.2,837.625 2275.44,831.401 2278.69,825.174 2281.93,818.945 2285.17,812.713 2288.41,806.48 2291.66,800.246 "/>
<circle clip-path="url(#clip112)" cx="1896.01" cy="1405.64" r="14.4" fill="#e26f46" fill-rule="evenodd" fill-opacity="1" stroke="#000000" stroke-opacity="1" stroke-width="3.2"/>
<circle clip-path="url(#clip112)" cx="1065.79" cy="579.042" r="14.4" fill="#e26f46" fill-rule="evenodd" fill-opacity="1" stroke="#000000" stroke-opacity="1" stroke-width="3.2"/>
<circle clip-path="url(#clip112)" cx="1390.1" cy="1136.57" r="14.4" fill="#e26f46" fill-rule="evenodd" fill-opacity="1" stroke="#000000" stroke-opacity="1" stroke-width="3.2"/>
<circle clip-path="url(#clip112)" cx="2045.19" cy="1101.61" r="14.4" fill="#e26f46" fill-rule="evenodd" fill-opacity="1" stroke="#000000" stroke-opacity="1" stroke-width="3.2"/>
<circle clip-path="url(#clip112)" cx="1993.3" cy="1152.72" r="14.4" fill="#e26f46" fill-rule="evenodd" fill-opacity="1" stroke="#000000" stroke-opacity="1" stroke-width="3.2"/>
<circle clip-path="url(#clip112)" cx="2113.29" cy="1164.26" r="14.4" fill="#e26f46" fill-rule="evenodd" fill-opacity="1" stroke="#000000" stroke-opacity="1" stroke-width="3.2"/>
<circle clip-path="url(#clip112)" cx="2168.42" cy="947.683" r="14.4" fill="#e26f46" fill-rule="evenodd" fill-opacity="1" stroke="#000000" stroke-opacity="1" stroke-width="3.2"/>
<circle clip-path="url(#clip112)" cx="945.8" cy="367.783" r="14.4" fill="#e26f46" fill-rule="evenodd" fill-opacity="1" stroke="#000000" stroke-opacity="1" stroke-width="3.2"/>
<circle clip-path="url(#clip112)" cx="1808.45" cy="1445.72" r="14.4" fill="#e26f46" fill-rule="evenodd" fill-opacity="1" stroke="#000000" stroke-opacity="1" stroke-width="3.2"/>
<circle clip-path="url(#clip112)" cx="1085.25" cy="464.033" r="14.4" fill="#e26f46" fill-rule="evenodd" fill-opacity="1" stroke="#000000" stroke-opacity="1" stroke-width="3.2"/>
<circle clip-path="url(#clip112)" cx="1574.95" cy="1415.31" r="14.4" fill="#e26f46" fill-rule="evenodd" fill-opacity="1" stroke="#000000" stroke-opacity="1" stroke-width="3.2"/>
<circle clip-path="url(#clip112)" cx="585.824" cy="207.889" r="14.4" fill="#e26f46" fill-rule="evenodd" fill-opacity="1" stroke="#000000" stroke-opacity="1" stroke-width="3.2"/>
<circle clip-path="url(#clip112)" cx="1905.74" cy="1350.99" r="14.4" fill="#e26f46" fill-rule="evenodd" fill-opacity="1" stroke="#000000" stroke-opacity="1" stroke-width="3.2"/>
<circle clip-path="url(#clip112)" cx="997.688" cy="278.096" r="14.4" fill="#e26f46" fill-rule="evenodd" fill-opacity="1" stroke="#000000" stroke-opacity="1" stroke-width="3.2"/>
<circle clip-path="url(#clip112)" cx="829.051" cy="189.869" r="14.4" fill="#e26f46" fill-rule="evenodd" fill-opacity="1" stroke="#000000" stroke-opacity="1" stroke-width="3.2"/>
<circle clip-path="url(#clip112)" cx="764.19" cy="146.856" r="14.4" fill="#e26f46" fill-rule="evenodd" fill-opacity="1" stroke="#000000" stroke-opacity="1" stroke-width="3.2"/>
<circle clip-path="url(#clip112)" cx="780.405" cy="87.9763" r="14.4" fill="#e26f46" fill-rule="evenodd" fill-opacity="1" stroke="#000000" stroke-opacity="1" stroke-width="3.2"/>
<circle clip-path="url(#clip112)" cx="1519.82" cy="1303.36" r="14.4" fill="#e26f46" fill-rule="evenodd" fill-opacity="1" stroke="#000000" stroke-opacity="1" stroke-width="3.2"/>
<circle clip-path="url(#clip112)" cx="449.616" cy="325.972" r="14.4" fill="#e26f46" fill-rule="evenodd" fill-opacity="1" stroke="#000000" stroke-opacity="1" stroke-width="3.2"/>
<circle clip-path="url(#clip112)" cx="1059.31" cy="284.221" r="14.4" fill="#e26f46" fill-rule="evenodd" fill-opacity="1" stroke="#000000" stroke-opacity="1" stroke-width="3.2"/>
<path clip-path="url(#clip110)" d="M1953.46 250.738 L2280.8 250.738 L2280.8 95.2176 L1953.46 95.2176  Z" fill="#ffffff" fill-rule="evenodd" fill-opacity="1"/>
<polyline clip-path="url(#clip110)" style="stroke:#000000; stroke-linecap:round; stroke-linejoin:round; stroke-width:4; stroke-opacity:1; fill:none" points="1953.46,250.738 2280.8,250.738 2280.8,95.2176 1953.46,95.2176 1953.46,250.738 "/>
<polyline clip-path="url(#clip110)" style="stroke:#009af9; stroke-linecap:round; stroke-linejoin:round; stroke-width:4; stroke-opacity:1; fill:none" points="1977.44,147.058 2121.36,147.058 "/>
<path clip-path="url(#clip110)" d="M2152.76 131.051 L2152.76 138.412 L2161.53 138.412 L2161.53 141.722 L2152.76 141.722 L2152.76 155.796 Q2152.76 158.967 2153.61 159.87 Q2154.49 160.773 2157.16 160.773 L2161.53 160.773 L2161.53 164.338 L2157.16 164.338 Q2152.23 164.338 2150.35 162.509 Q2148.48 160.657 2148.48 155.796 L2148.48 141.722 L2145.35 141.722 L2145.35 138.412 L2148.48 138.412 L2148.48 131.051 L2152.76 131.051 Z" fill="#000000" fill-rule="nonzero" fill-opacity="1" /><path clip-path="url(#clip110)" d="M2182.16 142.393 Q2181.44 141.977 2180.58 141.791 Q2179.75 141.583 2178.73 141.583 Q2175.12 141.583 2173.17 143.944 Q2171.25 146.282 2171.25 150.68 L2171.25 164.338 L2166.97 164.338 L2166.97 138.412 L2171.25 138.412 L2171.25 142.44 Q2172.6 140.078 2174.75 138.944 Q2176.9 137.787 2179.98 137.787 Q2180.42 137.787 2180.95 137.856 Q2181.48 137.903 2182.13 138.018 L2182.16 142.393 Z" fill="#000000" fill-rule="nonzero" fill-opacity="1" /><path clip-path="url(#clip110)" d="M2186.18 154.106 L2186.18 138.412 L2190.44 138.412 L2190.44 153.944 Q2190.44 157.625 2191.88 159.476 Q2193.31 161.305 2196.18 161.305 Q2199.63 161.305 2201.62 159.106 Q2203.64 156.907 2203.64 153.111 L2203.64 138.412 L2207.9 138.412 L2207.9 164.338 L2203.64 164.338 L2203.64 160.356 Q2202.09 162.717 2200.03 163.875 Q2197.99 165.009 2195.28 165.009 Q2190.81 165.009 2188.5 162.231 Q2186.18 159.453 2186.18 154.106 M2196.9 137.787 L2196.9 137.787 Z" fill="#000000" fill-rule="nonzero" fill-opacity="1" /><path clip-path="url(#clip110)" d="M2220.88 131.051 L2220.88 138.412 L2229.66 138.412 L2229.66 141.722 L2220.88 141.722 L2220.88 155.796 Q2220.88 158.967 2221.74 159.87 Q2222.62 160.773 2225.28 160.773 L2229.66 160.773 L2229.66 164.338 L2225.28 164.338 Q2220.35 164.338 2218.48 162.509 Q2216.6 160.657 2216.6 155.796 L2216.6 141.722 L2213.48 141.722 L2213.48 138.412 L2216.6 138.412 L2216.6 131.051 L2220.88 131.051 Z" fill="#000000" fill-rule="nonzero" fill-opacity="1" /><path clip-path="url(#clip110)" d="M2256.81 148.689 L2256.81 164.338 L2252.55 164.338 L2252.55 148.828 Q2252.55 145.148 2251.11 143.319 Q2249.68 141.49 2246.81 141.49 Q2243.36 141.49 2241.37 143.69 Q2239.38 145.889 2239.38 149.685 L2239.38 164.338 L2235.1 164.338 L2235.1 128.319 L2239.38 128.319 L2239.38 142.44 Q2240.91 140.102 2242.97 138.944 Q2245.05 137.787 2247.76 137.787 Q2252.23 137.787 2254.52 140.565 Q2256.81 143.319 2256.81 148.689 Z" fill="#000000" fill-rule="nonzero" fill-opacity="1" /><circle clip-path="url(#clip110)" cx="2049.4" cy="198.898" r="20.48" fill="#e26f46" fill-rule="evenodd" fill-opacity="1" stroke="#000000" stroke-opacity="1" stroke-width="4.55111"/>
<path clip-path="url(#clip110)" d="M2164.26 194.187 L2164.26 180.159 L2168.52 180.159 L2168.52 216.178 L2164.26 216.178 L2164.26 212.289 Q2162.92 214.603 2160.86 215.738 Q2158.82 216.849 2155.95 216.849 Q2151.25 216.849 2148.29 213.099 Q2145.35 209.349 2145.35 203.238 Q2145.35 197.127 2148.29 193.377 Q2151.25 189.627 2155.95 189.627 Q2158.82 189.627 2160.86 190.761 Q2162.92 191.872 2164.26 194.187 M2149.75 203.238 Q2149.75 207.937 2151.67 210.622 Q2153.61 213.284 2156.99 213.284 Q2160.37 213.284 2162.32 210.622 Q2164.26 207.937 2164.26 203.238 Q2164.26 198.539 2162.32 195.877 Q2160.37 193.192 2156.99 193.192 Q2153.61 193.192 2151.67 195.877 Q2149.75 198.539 2149.75 203.238 Z" fill="#000000" fill-rule="nonzero" fill-opacity="1" /><path clip-path="url(#clip110)" d="M2189.08 203.145 Q2183.92 203.145 2181.92 204.326 Q2179.93 205.506 2179.93 208.354 Q2179.93 210.622 2181.42 211.965 Q2182.92 213.284 2185.49 213.284 Q2189.03 213.284 2191.16 210.784 Q2193.31 208.261 2193.31 204.094 L2193.31 203.145 L2189.08 203.145 M2197.57 201.386 L2197.57 216.178 L2193.31 216.178 L2193.31 212.242 Q2191.85 214.603 2189.68 215.738 Q2187.5 216.849 2184.36 216.849 Q2180.37 216.849 2178.01 214.627 Q2175.67 212.381 2175.67 208.631 Q2175.67 204.256 2178.59 202.034 Q2181.53 199.812 2187.34 199.812 L2193.31 199.812 L2193.31 199.395 Q2193.31 196.455 2191.37 194.858 Q2189.45 193.238 2185.95 193.238 Q2183.73 193.238 2181.62 193.77 Q2179.52 194.303 2177.57 195.367 L2177.57 191.432 Q2179.91 190.53 2182.11 190.09 Q2184.31 189.627 2186.39 189.627 Q2192.02 189.627 2194.79 192.543 Q2197.57 195.46 2197.57 201.386 Z" fill="#000000" fill-rule="nonzero" fill-opacity="1" /><path clip-path="url(#clip110)" d="M2210.56 182.891 L2210.56 190.252 L2219.33 190.252 L2219.33 193.562 L2210.56 193.562 L2210.56 207.636 Q2210.56 210.807 2211.42 211.71 Q2212.29 212.613 2214.96 212.613 L2219.33 212.613 L2219.33 216.178 L2214.96 216.178 Q2210.03 216.178 2208.15 214.349 Q2206.28 212.497 2206.28 207.636 L2206.28 193.562 L2203.15 193.562 L2203.15 190.252 L2206.28 190.252 L2206.28 182.891 L2210.56 182.891 Z" fill="#000000" fill-rule="nonzero" fill-opacity="1" /><path clip-path="url(#clip110)" d="M2236.72 203.145 Q2231.55 203.145 2229.56 204.326 Q2227.57 205.506 2227.57 208.354 Q2227.57 210.622 2229.05 211.965 Q2230.56 213.284 2233.13 213.284 Q2236.67 213.284 2238.8 210.784 Q2240.95 208.261 2240.95 204.094 L2240.95 203.145 L2236.72 203.145 M2245.21 201.386 L2245.21 216.178 L2240.95 216.178 L2240.95 212.242 Q2239.49 214.603 2237.32 215.738 Q2235.14 216.849 2231.99 216.849 Q2228.01 216.849 2225.65 214.627 Q2223.31 212.381 2223.31 208.631 Q2223.31 204.256 2226.23 202.034 Q2229.17 199.812 2234.98 199.812 L2240.95 199.812 L2240.95 199.395 Q2240.95 196.455 2239.01 194.858 Q2237.09 193.238 2233.59 193.238 Q2231.37 193.238 2229.26 193.77 Q2227.16 194.303 2225.21 195.367 L2225.21 191.432 Q2227.55 190.53 2229.75 190.09 Q2231.95 189.627 2234.03 189.627 Q2239.66 189.627 2242.43 192.543 Q2245.21 195.46 2245.21 201.386 Z" fill="#000000" fill-rule="nonzero" fill-opacity="1" /></svg>
