<?xml version="1.0" encoding="utf-8"?>
<svg xmlns="http://www.w3.org/2000/svg" xmlns:xlink="http://www.w3.org/1999/xlink" width="600" height="400" viewBox="0 0 2400 1600">
<defs>
  <clipPath id="clip190">
    <rect x="0" y="0" width="2400" height="1600"/>
  </clipPath>
</defs>
<path clip-path="url(#clip190)" d="M0 1600 L2400 1600 L2400 0 L0 0  Z" fill="#ffffff" fill-rule="evenodd" fill-opacity="1"/>
<defs>
  <clipPath id="clip191">
    <rect x="480" y="0" width="1681" height="1600"/>
  </clipPath>
</defs>
<path clip-path="url(#clip190)" d="M193.936 1486.45 L2352.76 1486.45 L2352.76 47.2441 L193.936 47.2441  Z" fill="#ffffff" fill-rule="evenodd" fill-opacity="1"/>
<defs>
  <clipPath id="clip192">
    <rect x="193" y="47" width="2160" height="1440"/>
  </clipPath>
</defs>
<polyline clip-path="url(#clip192)" style="stroke:#000000; stroke-linecap:round; stroke-linejoin:round; stroke-width:2; stroke-opacity:0.1; fill:none" points="255.035,1486.45 255.035,47.2441 "/>
<polyline clip-path="url(#clip192)" style="stroke:#000000; stroke-linecap:round; stroke-linejoin:round; stroke-width:2; stroke-opacity:0.1; fill:none" points="579.338,1486.45 579.338,47.2441 "/>
<polyline clip-path="url(#clip192)" style="stroke:#000000; stroke-linecap:round; stroke-linejoin:round; stroke-width:2; stroke-opacity:0.1; fill:none" points="903.641,1486.45 903.641,47.2441 "/>
<polyline clip-path="url(#clip192)" style="stroke:#000000; stroke-linecap:round; stroke-linejoin:round; stroke-width:2; stroke-opacity:0.1; fill:none" points="1227.94,1486.45 1227.94,47.2441 "/>
<polyline clip-path="url(#clip192)" style="stroke:#000000; stroke-linecap:round; stroke-linejoin:round; stroke-width:2; stroke-opacity:0.1; fill:none" points="1552.25,1486.45 1552.25,47.2441 "/>
<polyline clip-path="url(#clip192)" style="stroke:#000000; stroke-linecap:round; stroke-linejoin:round; stroke-width:2; stroke-opacity:0.1; fill:none" points="1876.55,1486.45 1876.55,47.2441 "/>
<polyline clip-path="url(#clip192)" style="stroke:#000000; stroke-linecap:round; stroke-linejoin:round; stroke-width:2; stroke-opacity:0.1; fill:none" points="2200.85,1486.45 2200.85,47.2441 "/>
<polyline clip-path="url(#clip192)" style="stroke:#000000; stroke-linecap:round; stroke-linejoin:round; stroke-width:2; stroke-opacity:0.1; fill:none" points="193.936,1379.62 2352.76,1379.62 "/>
<polyline clip-path="url(#clip192)" style="stroke:#000000; stroke-linecap:round; stroke-linejoin:round; stroke-width:2; stroke-opacity:0.1; fill:none" points="193.936,1060.49 2352.76,1060.49 "/>
<polyline clip-path="url(#clip192)" style="stroke:#000000; stroke-linecap:round; stroke-linejoin:round; stroke-width:2; stroke-opacity:0.1; fill:none" points="193.936,741.364 2352.76,741.364 "/>
<polyline clip-path="url(#clip192)" style="stroke:#000000; stroke-linecap:round; stroke-linejoin:round; stroke-width:2; stroke-opacity:0.1; fill:none" points="193.936,422.238 2352.76,422.238 "/>
<polyline clip-path="url(#clip192)" style="stroke:#000000; stroke-linecap:round; stroke-linejoin:round; stroke-width:2; stroke-opacity:0.1; fill:none" points="193.936,103.112 2352.76,103.112 "/>
<polyline clip-path="url(#clip190)" style="stroke:#000000; stroke-linecap:round; stroke-linejoin:round; stroke-width:4; stroke-opacity:1; fill:none" points="193.936,1486.45 2352.76,1486.45 "/>
<polyline clip-path="url(#clip190)" style="stroke:#000000; stroke-linecap:round; stroke-linejoin:round; stroke-width:4; stroke-opacity:1; fill:none" points="255.035,1486.45 255.035,1467.55 "/>
<polyline clip-path="url(#clip190)" style="stroke:#000000; stroke-linecap:round; stroke-linejoin:round; stroke-width:4; stroke-opacity:1; fill:none" points="579.338,1486.45 579.338,1467.55 "/>
<polyline clip-path="url(#clip190)" style="stroke:#000000; stroke-linecap:round; stroke-linejoin:round; stroke-width:4; stroke-opacity:1; fill:none" points="903.641,1486.45 903.641,1467.55 "/>
<polyline clip-path="url(#clip190)" style="stroke:#000000; stroke-linecap:round; stroke-linejoin:round; stroke-width:4; stroke-opacity:1; fill:none" points="1227.94,1486.45 1227.94,1467.55 "/>
<polyline clip-path="url(#clip190)" style="stroke:#000000; stroke-linecap:round; stroke-linejoin:round; stroke-width:4; stroke-opacity:1; fill:none" points="1552.25,1486.45 1552.25,1467.55 "/>
<polyline clip-path="url(#clip190)" style="stroke:#000000; stroke-linecap:round; stroke-linejoin:round; stroke-width:4; stroke-opacity:1; fill:none" points="1876.55,1486.45 1876.55,1467.55 "/>
<polyline clip-path="url(#clip190)" style="stroke:#000000; stroke-linecap:round; stroke-linejoin:round; stroke-width:4; stroke-opacity:1; fill:none" points="2200.85,1486.45 2200.85,1467.55 "/>
<path clip-path="url(#clip190)" d="M255.035 1517.37 Q251.424 1517.37 249.595 1520.93 Q247.789 1524.47 247.789 1531.6 Q247.789 1538.71 249.595 1542.27 Q251.424 1545.82 255.035 1545.82 Q258.669 1545.82 260.474 1542.27 Q262.303 1538.71 262.303 1531.6 Q262.303 1524.47 260.474 1520.93 Q258.669 1517.37 255.035 1517.37 M255.035 1513.66 Q260.845 1513.66 263.9 1518.27 Q266.979 1522.85 266.979 1531.6 Q266.979 1540.33 263.9 1544.94 Q260.845 1549.52 255.035 1549.52 Q249.225 1549.52 246.146 1544.94 Q243.09 1540.33 243.09 1531.6 Q243.09 1522.85 246.146 1518.27 Q249.225 1513.66 255.035 1513.66 Z" fill="#000000" fill-rule="nonzero" fill-opacity="1" /><path clip-path="url(#clip190)" d="M569.72 1544.91 L577.358 1544.91 L577.358 1518.55 L569.048 1520.21 L569.048 1515.95 L577.312 1514.29 L581.988 1514.29 L581.988 1544.91 L589.627 1544.91 L589.627 1548.85 L569.72 1548.85 L569.72 1544.91 Z" fill="#000000" fill-rule="nonzero" fill-opacity="1" /><path clip-path="url(#clip190)" d="M898.293 1544.91 L914.613 1544.91 L914.613 1548.85 L892.668 1548.85 L892.668 1544.91 Q895.33 1542.16 899.914 1537.53 Q904.52 1532.88 905.701 1531.53 Q907.946 1529.01 908.826 1527.27 Q909.729 1525.51 909.729 1523.82 Q909.729 1521.07 907.784 1519.33 Q905.863 1517.6 902.761 1517.6 Q900.562 1517.6 898.108 1518.36 Q895.678 1519.13 892.9 1520.68 L892.9 1515.95 Q895.724 1514.82 898.178 1514.24 Q900.631 1513.66 902.668 1513.66 Q908.039 1513.66 911.233 1516.35 Q914.428 1519.03 914.428 1523.52 Q914.428 1525.65 913.617 1527.57 Q912.83 1529.47 910.724 1532.07 Q910.145 1532.74 907.043 1535.95 Q903.942 1539.15 898.293 1544.91 Z" fill="#000000" fill-rule="nonzero" fill-opacity="1" /><path clip-path="url(#clip190)" d="M1232.19 1530.21 Q1235.55 1530.93 1237.42 1533.2 Q1239.32 1535.47 1239.32 1538.8 Q1239.32 1543.92 1235.8 1546.72 Q1232.28 1549.52 1225.8 1549.52 Q1223.63 1549.52 1221.31 1549.08 Q1219.02 1548.66 1216.57 1547.81 L1216.57 1543.29 Q1218.51 1544.43 1220.83 1545.01 Q1223.14 1545.58 1225.66 1545.58 Q1230.06 1545.58 1232.35 1543.85 Q1234.67 1542.11 1234.67 1538.8 Q1234.67 1535.75 1232.52 1534.03 Q1230.39 1532.3 1226.57 1532.3 L1222.54 1532.3 L1222.54 1528.45 L1226.75 1528.45 Q1230.2 1528.45 1232.03 1527.09 Q1233.86 1525.7 1233.86 1523.11 Q1233.86 1520.45 1231.96 1519.03 Q1230.08 1517.6 1226.57 1517.6 Q1224.64 1517.6 1222.45 1518.01 Q1220.25 1518.43 1217.61 1519.31 L1217.61 1515.14 Q1220.27 1514.4 1222.58 1514.03 Q1224.92 1513.66 1226.98 1513.66 Q1232.31 1513.66 1235.41 1516.09 Q1238.51 1518.5 1238.51 1522.62 Q1238.51 1525.49 1236.87 1527.48 Q1235.22 1529.45 1232.19 1530.21 Z" fill="#000000" fill-rule="nonzero" fill-opacity="1" /><path clip-path="url(#clip190)" d="M1555.26 1518.36 L1543.45 1536.81 L1555.26 1536.81 L1555.26 1518.36 M1554.03 1514.29 L1559.91 1514.29 L1559.91 1536.81 L1564.84 1536.81 L1564.84 1540.7 L1559.91 1540.7 L1559.91 1548.85 L1555.26 1548.85 L1555.26 1540.7 L1539.65 1540.7 L1539.65 1536.19 L1554.03 1514.29 Z" fill="#000000" fill-rule="nonzero" fill-opacity="1" /><path clip-path="url(#clip190)" d="M1866.83 1514.29 L1885.18 1514.29 L1885.18 1518.22 L1871.11 1518.22 L1871.11 1526.7 Q1872.13 1526.35 1873.15 1526.19 Q1874.17 1526 1875.18 1526 Q1880.97 1526 1884.35 1529.17 Q1887.73 1532.34 1887.73 1537.76 Q1887.73 1543.34 1884.26 1546.44 Q1880.79 1549.52 1874.47 1549.52 Q1872.29 1549.52 1870.02 1549.15 Q1867.78 1548.78 1865.37 1548.04 L1865.37 1543.34 Q1867.45 1544.47 1869.67 1545.03 Q1871.9 1545.58 1874.37 1545.58 Q1878.38 1545.58 1880.72 1543.48 Q1883.05 1541.37 1883.05 1537.76 Q1883.05 1534.15 1880.72 1532.04 Q1878.38 1529.94 1874.37 1529.94 Q1872.5 1529.94 1870.62 1530.35 Q1868.77 1530.77 1866.83 1531.65 L1866.83 1514.29 Z" fill="#000000" fill-rule="nonzero" fill-opacity="1" /><path clip-path="url(#clip190)" d="M2201.26 1529.7 Q2198.11 1529.7 2196.26 1531.86 Q2194.43 1534.01 2194.43 1537.76 Q2194.43 1541.49 2196.26 1543.66 Q2198.11 1545.82 2201.26 1545.82 Q2204.41 1545.82 2206.23 1543.66 Q2208.09 1541.49 2208.09 1537.76 Q2208.09 1534.01 2206.23 1531.86 Q2204.41 1529.7 2201.26 1529.7 M2210.54 1515.05 L2210.54 1519.31 Q2208.78 1518.48 2206.98 1518.04 Q2205.19 1517.6 2203.43 1517.6 Q2198.8 1517.6 2196.35 1520.72 Q2193.92 1523.85 2193.57 1530.17 Q2194.94 1528.15 2197 1527.09 Q2199.06 1526 2201.54 1526 Q2206.74 1526 2209.75 1529.17 Q2212.79 1532.32 2212.79 1537.76 Q2212.79 1543.08 2209.64 1546.3 Q2206.49 1549.52 2201.26 1549.52 Q2195.26 1549.52 2192.09 1544.94 Q2188.92 1540.33 2188.92 1531.6 Q2188.92 1523.41 2192.81 1518.55 Q2196.7 1513.66 2203.25 1513.66 Q2205.01 1513.66 2206.79 1514.01 Q2208.6 1514.36 2210.54 1515.05 Z" fill="#000000" fill-rule="nonzero" fill-opacity="1" /><polyline clip-path="url(#clip190)" style="stroke:#000000; stroke-linecap:round; stroke-linejoin:round; stroke-width:4; stroke-opacity:1; fill:none" points="193.936,1486.45 193.936,47.2441 "/>
<polyline clip-path="url(#clip190)" style="stroke:#000000; stroke-linecap:round; stroke-linejoin:round; stroke-width:4; stroke-opacity:1; fill:none" points="193.936,1379.62 212.834,1379.62 "/>
<polyline clip-path="url(#clip190)" style="stroke:#000000; stroke-linecap:round; stroke-linejoin:round; stroke-width:4; stroke-opacity:1; fill:none" points="193.936,1060.49 212.834,1060.49 "/>
<polyline clip-path="url(#clip190)" style="stroke:#000000; stroke-linecap:round; stroke-linejoin:round; stroke-width:4; stroke-opacity:1; fill:none" points="193.936,741.364 212.834,741.364 "/>
<polyline clip-path="url(#clip190)" style="stroke:#000000; stroke-linecap:round; stroke-linejoin:round; stroke-width:4; stroke-opacity:1; fill:none" points="193.936,422.238 212.834,422.238 "/>
<polyline clip-path="url(#clip190)" style="stroke:#000000; stroke-linecap:round; stroke-linejoin:round; stroke-width:4; stroke-opacity:1; fill:none" points="193.936,103.112 212.834,103.112 "/>
<path clip-path="url(#clip190)" d="M50.9921 1380.07 L80.6679 1380.07 L80.6679 1384 L50.9921 1384 L50.9921 1380.07 Z" fill="#000000" fill-rule="nonzero" fill-opacity="1" /><path clip-path="url(#clip190)" d="M91.5706 1392.96 L99.2095 1392.96 L99.2095 1366.59 L90.8993 1368.26 L90.8993 1364 L99.1632 1362.34 L103.839 1362.34 L103.839 1392.96 L111.478 1392.96 L111.478 1396.9 L91.5706 1396.9 L91.5706 1392.96 Z" fill="#000000" fill-rule="nonzero" fill-opacity="1" /><path clip-path="url(#clip190)" d="M120.922 1391.02 L125.807 1391.02 L125.807 1396.9 L120.922 1396.9 L120.922 1391.02 Z" fill="#000000" fill-rule="nonzero" fill-opacity="1" /><path clip-path="url(#clip190)" d="M145.992 1365.41 Q142.381 1365.41 140.552 1368.98 Q138.746 1372.52 138.746 1379.65 Q138.746 1386.76 140.552 1390.32 Q142.381 1393.86 145.992 1393.86 Q149.626 1393.86 151.431 1390.32 Q153.26 1386.76 153.26 1379.65 Q153.26 1372.52 151.431 1368.98 Q149.626 1365.41 145.992 1365.41 M145.992 1361.71 Q151.802 1361.71 154.857 1366.32 Q157.936 1370.9 157.936 1379.65 Q157.936 1388.38 154.857 1392.98 Q151.802 1397.57 145.992 1397.57 Q140.181 1397.57 137.103 1392.98 Q134.047 1388.38 134.047 1379.65 Q134.047 1370.9 137.103 1366.32 Q140.181 1361.71 145.992 1361.71 Z" fill="#000000" fill-rule="nonzero" fill-opacity="1" /><path clip-path="url(#clip190)" d="M51.9875 1060.94 L81.6633 1060.94 L81.6633 1064.88 L51.9875 1064.88 L51.9875 1060.94 Z" fill="#000000" fill-rule="nonzero" fill-opacity="1" /><path clip-path="url(#clip190)" d="M101.756 1046.29 Q98.1447 1046.29 96.316 1049.85 Q94.5104 1053.39 94.5104 1060.52 Q94.5104 1067.63 96.316 1071.2 Q98.1447 1074.74 101.756 1074.74 Q105.39 1074.74 107.196 1071.2 Q109.024 1067.63 109.024 1060.52 Q109.024 1053.39 107.196 1049.85 Q105.39 1046.29 101.756 1046.29 M101.756 1042.58 Q107.566 1042.58 110.621 1047.19 Q113.7 1051.77 113.7 1060.52 Q113.7 1069.25 110.621 1073.86 Q107.566 1078.44 101.756 1078.44 Q95.9456 1078.44 92.8669 1073.86 Q89.8114 1069.25 89.8114 1060.52 Q89.8114 1051.77 92.8669 1047.19 Q95.9456 1042.58 101.756 1042.58 Z" fill="#000000" fill-rule="nonzero" fill-opacity="1" /><path clip-path="url(#clip190)" d="M121.918 1071.89 L126.802 1071.89 L126.802 1077.77 L121.918 1077.77 L121.918 1071.89 Z" fill="#000000" fill-rule="nonzero" fill-opacity="1" /><path clip-path="url(#clip190)" d="M137.033 1043.21 L155.39 1043.21 L155.39 1047.14 L141.316 1047.14 L141.316 1055.62 Q142.334 1055.27 143.353 1055.11 Q144.371 1054.92 145.39 1054.92 Q151.177 1054.92 154.556 1058.09 Q157.936 1061.26 157.936 1066.68 Q157.936 1072.26 154.464 1075.36 Q150.992 1078.44 144.672 1078.44 Q142.496 1078.44 140.228 1078.07 Q137.982 1077.7 135.575 1076.96 L135.575 1072.26 Q137.658 1073.39 139.881 1073.95 Q142.103 1074.51 144.58 1074.51 Q148.584 1074.51 150.922 1072.4 Q153.26 1070.29 153.26 1066.68 Q153.26 1063.07 150.922 1060.96 Q148.584 1058.86 144.58 1058.86 Q142.705 1058.86 140.83 1059.27 Q138.978 1059.69 137.033 1060.57 L137.033 1043.21 Z" fill="#000000" fill-rule="nonzero" fill-opacity="1" /><path clip-path="url(#clip190)" d="M100.76 727.162 Q97.1493 727.162 95.3206 730.727 Q93.515 734.269 93.515 741.398 Q93.515 748.505 95.3206 752.07 Q97.1493 755.611 100.76 755.611 Q104.395 755.611 106.2 752.07 Q108.029 748.505 108.029 741.398 Q108.029 734.269 106.2 730.727 Q104.395 727.162 100.76 727.162 M100.76 723.459 Q106.571 723.459 109.626 728.065 Q112.705 732.648 112.705 741.398 Q112.705 750.125 109.626 754.732 Q106.571 759.315 100.76 759.315 Q94.9502 759.315 91.8715 754.732 Q88.816 750.125 88.816 741.398 Q88.816 732.648 91.8715 728.065 Q94.9502 723.459 100.76 723.459 Z" fill="#000000" fill-rule="nonzero" fill-opacity="1" /><path clip-path="url(#clip190)" d="M120.922 752.764 L125.807 752.764 L125.807 758.644 L120.922 758.644 L120.922 752.764 Z" fill="#000000" fill-rule="nonzero" fill-opacity="1" /><path clip-path="url(#clip190)" d="M145.992 727.162 Q142.381 727.162 140.552 730.727 Q138.746 734.269 138.746 741.398 Q138.746 748.505 140.552 752.07 Q142.381 755.611 145.992 755.611 Q149.626 755.611 151.431 752.07 Q153.26 748.505 153.26 741.398 Q153.26 734.269 151.431 730.727 Q149.626 727.162 145.992 727.162 M145.992 723.459 Q151.802 723.459 154.857 728.065 Q157.936 732.648 157.936 741.398 Q157.936 750.125 154.857 754.732 Q151.802 759.315 145.992 759.315 Q140.181 759.315 137.103 754.732 Q134.047 750.125 134.047 741.398 Q134.047 732.648 137.103 728.065 Q140.181 723.459 145.992 723.459 Z" fill="#000000" fill-rule="nonzero" fill-opacity="1" /><path clip-path="url(#clip190)" d="M101.756 408.036 Q98.1447 408.036 96.316 411.601 Q94.5104 415.143 94.5104 422.272 Q94.5104 429.379 96.316 432.944 Q98.1447 436.485 101.756 436.485 Q105.39 436.485 107.196 432.944 Q109.024 429.379 109.024 422.272 Q109.024 415.143 107.196 411.601 Q105.39 408.036 101.756 408.036 M101.756 404.333 Q107.566 404.333 110.621 408.939 Q113.7 413.523 113.7 422.272 Q113.7 430.999 110.621 435.606 Q107.566 440.189 101.756 440.189 Q95.9456 440.189 92.8669 435.606 Q89.8114 430.999 89.8114 422.272 Q89.8114 413.523 92.8669 408.939 Q95.9456 404.333 101.756 404.333 Z" fill="#000000" fill-rule="nonzero" fill-opacity="1" /><path clip-path="url(#clip190)" d="M121.918 433.638 L126.802 433.638 L126.802 439.518 L121.918 439.518 L121.918 433.638 Z" fill="#000000" fill-rule="nonzero" fill-opacity="1" /><path clip-path="url(#clip190)" d="M137.033 404.958 L155.39 404.958 L155.39 408.893 L141.316 408.893 L141.316 417.365 Q142.334 417.018 143.353 416.856 Q144.371 416.671 145.39 416.671 Q151.177 416.671 154.556 419.842 Q157.936 423.013 157.936 428.43 Q157.936 434.009 154.464 437.11 Q150.992 440.189 144.672 440.189 Q142.496 440.189 140.228 439.819 Q137.982 439.448 135.575 438.708 L135.575 434.009 Q137.658 435.143 139.881 435.698 Q142.103 436.254 144.58 436.254 Q148.584 436.254 150.922 434.147 Q153.26 432.041 153.26 428.43 Q153.26 424.819 150.922 422.712 Q148.584 420.606 144.58 420.606 Q142.705 420.606 140.83 421.022 Q138.978 421.439 137.033 422.319 L137.033 404.958 Z" fill="#000000" fill-rule="nonzero" fill-opacity="1" /><path clip-path="url(#clip190)" d="M91.5706 116.457 L99.2095 116.457 L99.2095 90.0912 L90.8993 91.7579 L90.8993 87.4986 L99.1632 85.832 L103.839 85.832 L103.839 116.457 L111.478 116.457 L111.478 120.392 L91.5706 120.392 L91.5706 116.457 Z" fill="#000000" fill-rule="nonzero" fill-opacity="1" /><path clip-path="url(#clip190)" d="M120.922 114.512 L125.807 114.512 L125.807 120.392 L120.922 120.392 L120.922 114.512 Z" fill="#000000" fill-rule="nonzero" fill-opacity="1" /><path clip-path="url(#clip190)" d="M145.992 88.9107 Q142.381 88.9107 140.552 92.4755 Q138.746 96.0171 138.746 103.147 Q138.746 110.253 140.552 113.818 Q142.381 117.36 145.992 117.36 Q149.626 117.36 151.431 113.818 Q153.26 110.253 153.26 103.147 Q153.26 96.0171 151.431 92.4755 Q149.626 88.9107 145.992 88.9107 M145.992 85.207 Q151.802 85.207 154.857 89.8134 Q157.936 94.3967 157.936 103.147 Q157.936 111.873 154.857 116.48 Q151.802 121.063 145.992 121.063 Q140.181 121.063 137.103 116.48 Q134.047 111.873 134.047 103.147 Q134.047 94.3967 137.103 89.8134 Q140.181 85.207 145.992 85.207 Z" fill="#000000" fill-rule="nonzero" fill-opacity="1" /><polyline clip-path="url(#clip192)" style="stroke:#009af9; stroke-linecap:round; stroke-linejoin:round; stroke-width:4; stroke-opacity:1; fill:none" points="255.035,741.364 258.278,734.981 261.521,728.599 264.764,722.219 268.007,715.84 271.25,709.464 274.493,703.091 277.736,696.722 280.979,690.358 284.222,683.998 287.465,677.645 290.708,671.297 293.951,664.957 297.194,658.624 300.437,652.3 303.68,645.984 306.923,639.678 310.166,633.383 313.409,627.098 316.652,620.824 319.895,614.563 323.138,608.314 326.381,602.078 329.624,595.857 332.867,589.649 336.11,583.458 339.353,577.281 342.596,571.122 345.84,564.979 349.083,558.854 352.326,552.747 355.569,546.659 358.812,540.591 362.055,534.543 365.298,528.515 368.541,522.508 371.784,516.524 375.027,510.562 378.27,504.623 381.513,498.708 384.756,492.817 387.999,486.951 391.242,481.11 394.485,475.295 397.728,469.507 400.971,463.746 404.214,458.013 407.457,452.308 410.7,446.632 413.943,440.986 417.186,435.369 420.429,429.784 423.672,424.229 426.915,418.706 430.158,413.215 433.401,407.758 436.644,402.333 439.887,396.943 443.13,391.586 446.373,386.265 449.616,380.98 452.859,375.73 456.103,370.517 459.346,365.341 462.589,360.203 465.832,355.102 469.075,350.041 472.318,345.018 475.561,340.035 478.804,335.093 482.047,330.191 485.29,325.33 488.533,320.51 491.776,315.733 495.019,310.998 498.262,306.307 501.505,301.658 504.748,297.054 507.991,292.494 511.234,287.979 514.477,283.51 517.72,279.086 520.963,274.709 524.206,270.378 527.449,266.094 530.692,261.858 533.935,257.669 537.178,253.529 540.421,249.438 543.664,245.396 546.907,241.404 550.15,237.462 553.393,233.57 556.636,229.728 559.879,225.938 563.122,222.2 566.366,218.513 569.609,214.879 572.852,211.297 576.095,207.769 579.338,204.293 582.581,200.872 585.824,197.504 589.067,194.191 592.31,190.933 595.553,187.729 598.796,184.581 602.039,181.489 605.282,178.453 608.525,175.473 611.768,172.549 615.011,169.682 618.254,166.873 621.497,164.121 624.74,161.427 627.983,158.791 631.226,156.213 634.469,153.693 637.712,151.232 640.955,148.831 644.198,146.488 647.441,144.205 650.684,141.982 653.927,139.819 657.17,137.715 660.413,135.673 663.656,133.69 666.899,131.769 670.142,129.908 673.385,128.109 676.629,126.371 679.872,124.694 683.115,123.08 686.358,121.527 689.601,120.036 692.844,118.607 696.087,117.24 699.33,115.936 702.573,114.694 705.816,113.515 709.059,112.399 712.302,111.345 715.545,110.355 718.788,109.428 722.031,108.564 725.274,107.763 728.517,107.025 731.76,106.352 735.003,105.741 738.246,105.194 741.489,104.711 744.732,104.291 747.975,103.935 751.218,103.643 754.461,103.415 757.704,103.25 760.947,103.149 764.19,103.112 767.433,103.139 770.676,103.23 773.919,103.384 777.162,103.602 780.405,103.884 783.648,104.23 786.892,104.64 790.135,105.113 793.378,105.65 796.621,106.25 799.864,106.914 803.107,107.641 806.35,108.432 809.593,109.286 812.836,110.203 816.079,111.183 819.322,112.227 822.565,113.333 825.808,114.502 829.051,115.734 832.294,117.028 835.537,118.385 838.78,119.804 842.023,121.285 845.266,122.828 848.509,124.433 851.752,126.1 854.995,127.828 858.238,129.618 861.481,131.469 864.724,133.38 867.967,135.353 871.21,137.386 874.453,139.48 877.696,141.633 880.939,143.847 884.182,146.121 887.425,148.454 890.668,150.846 893.911,153.297 897.155,155.807 900.398,158.376 903.641,161.003 906.884,163.688 910.127,166.431 913.37,169.231 916.613,172.089 919.856,175.003 923.099,177.974 926.342,181.002 929.585,184.085 932.828,187.224 936.071,190.419 939.314,193.668 942.557,196.973 945.8,200.332 949.043,203.745 952.286,207.212 955.529,210.732 958.772,214.305 962.015,217.931 965.258,221.609 968.501,225.339 971.744,229.121 974.987,232.954 978.23,236.838 981.473,240.773 984.716,244.757 987.959,248.791 991.202,252.875 994.445,257.007 997.688,261.187 1000.93,265.416 1004.17,269.692 1007.42,274.016 1010.66,278.386 1013.9,282.802 1017.15,287.265 1020.39,291.772 1023.63,296.325 1026.88,300.922 1030.12,305.563 1033.36,310.248 1036.6,314.976 1039.85,319.747 1043.09,324.559 1046.33,329.414 1049.58,334.309 1052.82,339.246 1056.06,344.222 1059.31,349.238 1062.55,354.294 1065.79,359.388 1069.04,364.52 1072.28,369.69 1075.52,374.897 1078.76,380.141 1082.01,385.421 1085.25,390.737 1088.49,396.087 1091.74,401.472 1094.98,406.891 1098.22,412.344 1101.47,417.829 1104.71,423.347 1107.95,428.897 1111.19,434.478 1114.44,440.089 1117.68,445.731 1120.92,451.402 1124.17,457.102 1127.41,462.831 1130.65,468.588 1133.9,474.371 1137.14,480.182 1140.38,486.019 1143.62,491.881 1146.87,497.768 1150.11,503.679 1153.35,509.615 1156.6,515.573 1159.84,521.554 1163.08,527.557 1166.33,533.581 1169.57,539.626 1172.81,545.692 1176.06,551.776 1179.3,557.88 1182.54,564.002 1185.78,570.142 1189.03,576.299 1192.27,582.473 1195.51,588.662 1198.76,594.867 1202,601.086 1205.24,607.32 1208.49,613.566 1211.73,619.826 1214.97,626.098 1218.21,632.381 1221.46,638.675 1224.7,644.979 1227.94,651.293 1231.19,657.617 1234.43,663.948 1237.67,670.287 1240.92,676.633 1244.16,682.986 1247.4,689.345 1250.64,695.708 1253.89,702.077 1257.13,708.449 1260.37,714.825 1263.62,721.203 1266.86,727.583 1270.1,733.965 1273.35,740.347 1276.59,746.73 1279.83,753.111 1283.08,759.492 1286.32,765.871 1289.56,772.248 1292.8,778.621 1296.05,784.991 1299.29,791.356 1302.53,797.716 1305.78,804.071 1309.02,810.419 1312.26,816.761 1315.51,823.095 1318.75,829.421 1321.99,835.737 1325.23,842.045 1328.48,848.342 1331.72,854.629 1334.96,860.905 1338.21,867.168 1341.45,873.419 1344.69,879.657 1347.94,885.881 1351.18,892.09 1354.42,898.284 1357.66,904.463 1360.91,910.625 1364.15,916.771 1367.39,922.899 1370.64,929.008 1373.88,935.099 1377.12,941.171 1380.37,947.223 1383.61,953.254 1386.85,959.263 1390.1,965.252 1393.34,971.217 1396.58,977.16 1399.82,983.079 1403.07,988.974 1406.31,994.844 1409.55,1000.69 1412.8,1006.51 1416.04,1012.3 1419.28,1018.07 1422.53,1023.8 1425.77,1029.51 1429.01,1035.19 1432.25,1040.84 1435.5,1046.47 1438.74,1052.06 1441.98,1057.62 1445.23,1063.14 1448.47,1068.64 1451.71,1074.1 1454.96,1079.53 1458.2,1084.93 1461.44,1090.29 1464.68,1095.62 1467.93,1100.91 1471.17,1106.16 1474.41,1111.38 1477.66,1116.56 1480.9,1121.71 1484.14,1126.82 1487.39,1131.88 1490.63,1136.91 1493.87,1141.9 1497.11,1146.85 1500.36,1151.76 1503.6,1156.63 1506.84,1161.45 1510.09,1166.24 1513.33,1170.98 1516.57,1175.68 1519.82,1180.33 1523.06,1184.94 1526.3,1189.51 1529.55,1194.03 1532.79,1198.51 1536.03,1202.94 1539.27,1207.32 1542.52,1211.66 1545.76,1215.95 1549,1220.2 1552.25,1224.39 1555.49,1228.54 1558.73,1232.64 1561.98,1236.69 1565.22,1240.69 1568.46,1244.64 1571.7,1248.54 1574.95,1252.39 1578.19,1256.19 1581.43,1259.94 1584.68,1263.63 1587.92,1267.27 1591.16,1270.86 1594.41,1274.4 1597.65,1277.88 1600.89,1281.31 1604.13,1284.69 1607.38,1288.01 1610.62,1291.28 1613.86,1294.49 1617.11,1297.65 1620.35,1300.75 1623.59,1303.79 1626.84,1306.78 1630.08,1309.72 1633.32,1312.59 1636.57,1315.41 1639.81,1318.17 1643.05,1320.88 1646.29,1323.52 1649.54,1326.11 1652.78,1328.64 1656.02,1331.11 1659.27,1333.52 1662.51,1335.87 1665.75,1338.16 1669,1340.4 1672.24,1342.57 1675.48,1344.68 1678.72,1346.73 1681.97,1348.73 1685.21,1350.66 1688.45,1352.53 1691.7,1354.34 1694.94,1356.08 1698.18,1357.77 1701.43,1359.39 1704.67,1360.96 1707.91,1362.46 1711.15,1363.9 1714.4,1365.27 1717.64,1366.59 1720.88,1367.84 1724.13,1369.03 1727.37,1370.15 1730.61,1371.22 1733.86,1372.22 1737.1,1373.16 1740.34,1374.03 1743.59,1374.84 1746.83,1375.59 1750.07,1376.27 1753.31,1376.89 1756.56,1377.45 1759.8,1377.94 1763.04,1378.37 1766.29,1378.74 1769.53,1379.04 1772.77,1379.28 1776.02,1379.46 1779.26,1379.57 1782.5,1379.61 1785.74,1379.6 1788.99,1379.52 1792.23,1379.37 1795.47,1379.16 1798.72,1378.89 1801.96,1378.56 1805.2,1378.16 1808.45,1377.69 1811.69,1377.17 1814.93,1376.58 1818.17,1375.92 1821.42,1375.21 1824.66,1374.43 1827.9,1373.58 1831.15,1372.67 1834.39,1371.7 1837.63,1370.67 1840.88,1369.57 1844.12,1368.42 1847.36,1367.19 1850.61,1365.91 1853.85,1364.56 1857.09,1363.15 1860.33,1361.68 1863.58,1360.15 1866.82,1358.55 1870.06,1356.9 1873.31,1355.18 1876.55,1353.4 1879.79,1351.56 1883.04,1349.66 1886.28,1347.69 1889.52,1345.67 1892.76,1343.59 1896.01,1341.44 1899.25,1339.24 1902.49,1336.97 1905.74,1334.65 1908.98,1332.27 1912.22,1329.82 1915.47,1327.32 1918.71,1324.76 1921.95,1322.15 1925.19,1319.47 1928.44,1316.74 1931.68,1313.95 1934.92,1311.1 1938.17,1308.19 1941.41,1305.23 1944.65,1302.21 1947.9,1299.14 1951.14,1296.01 1954.38,1292.82 1957.63,1289.58 1960.87,1286.28 1964.11,1282.93 1967.35,1279.53 1970.6,1276.07 1973.84,1272.56 1977.08,1268.99 1980.33,1265.38 1983.57,1261.71 1986.81,1257.99 1990.06,1254.21 1993.3,1250.39 1996.54,1246.51 1999.78,1242.58 2003.03,1238.61 2006.27,1234.58 2009.51,1230.51 2012.76,1226.38 2016,1222.21 2019.24,1217.99 2022.49,1213.72 2025.73,1209.4 2028.97,1205.04 2032.21,1200.63 2035.46,1196.18 2038.7,1191.68 2041.94,1187.13 2045.19,1182.54 2048.43,1177.91 2051.67,1173.23 2054.92,1168.51 2058.16,1163.74 2061.4,1158.94 2064.65,1154.09 2067.89,1149.2 2071.13,1144.27 2074.37,1139.3 2077.62,1134.29 2080.86,1129.24 2084.1,1124.15 2087.35,1119.03 2090.59,1113.86 2093.83,1108.66 2097.08,1103.42 2100.32,1098.15 2103.56,1092.84 2106.8,1087.49 2110.05,1082.11 2113.29,1076.7 2116.53,1071.25 2119.78,1065.77 2123.02,1060.26 2126.26,1054.72 2129.51,1049.14 2132.75,1043.53 2135.99,1037.9 2139.23,1032.23 2142.48,1026.53 2145.72,1020.81 2148.96,1015.06 2152.21,1009.28 2155.45,1003.47 2158.69,997.64 2161.94,991.782 2165.18,985.899 2168.42,979.991 2171.67,974.059 2174.91,968.105 2178.15,962.127 2181.39,956.128 2184.64,950.107 2187.88,944.065 2191.12,938.003 2194.37,931.921 2197.61,925.82 2200.85,919.701 2204.1,913.564 2207.34,907.41 2210.58,901.239 2213.82,895.052 2217.07,888.849 2220.31,882.632 2223.55,876.401 2226.8,870.156 2230.04,863.899 2233.28,857.629 2236.53,851.348 2239.77,845.055 2243.01,838.752 2246.25,832.44 2249.5,826.118 2252.74,819.788 2255.98,813.45 2259.23,807.105 2262.47,800.753 2265.71,794.396 2268.96,788.033 2272.2,781.665 2275.44,775.293 2278.69,768.918 2281.93,762.54 2285.17,756.16 2288.41,749.779 2291.66,743.397 "/>
<circle clip-path="url(#clip192)" cx="2129.51" cy="1077.15" r="14.4" fill="#e26f46" fill-rule="evenodd" fill-opacity="1" stroke="#000000" stroke-opacity="1" stroke-width="3.2"/>
<circle clip-path="url(#clip192)" cx="1928.44" cy="1427.31" r="14.4" fill="#e26f46" fill-rule="evenodd" fill-opacity="1" stroke="#000000" stroke-opacity="1" stroke-width="3.2"/>
<circle clip-path="url(#clip192)" cx="1639.81" cy="1444.77" r="14.4" fill="#e26f46" fill-rule="evenodd" fill-opacity="1" stroke="#000000" stroke-opacity="1" stroke-width="3.2"/>
<circle clip-path="url(#clip192)" cx="255.035" cy="610.402" r="14.4" fill="#e26f46" fill-rule="evenodd" fill-opacity="1" stroke="#000000" stroke-opacity="1" stroke-width="3.2"/>
<circle clip-path="url(#clip192)" cx="514.477" cy="300.552" r="14.4" fill="#e26f46" fill-rule="evenodd" fill-opacity="1" stroke="#000000" stroke-opacity="1" stroke-width="3.2"/>
<circle clip-path="url(#clip192)" cx="974.987" cy="87.9763" r="14.4" fill="#e26f46" fill-rule="evenodd" fill-opacity="1" stroke="#000000" stroke-opacity="1" stroke-width="3.2"/>
<circle clip-path="url(#clip192)" cx="426.915" cy="263.759" r="14.4" fill="#e26f46" fill-rule="evenodd" fill-opacity="1" stroke="#000000" stroke-opacity="1" stroke-width="3.2"/>
<circle clip-path="url(#clip192)" cx="1555.49" cy="1115.72" r="14.4" fill="#e26f46" fill-rule="evenodd" fill-opacity="1" stroke="#000000" stroke-opacity="1" stroke-width="3.2"/>
<circle clip-path="url(#clip192)" cx="1117.68" cy="393.698" r="14.4" fill="#e26f46" fill-rule="evenodd" fill-opacity="1" stroke="#000000" stroke-opacity="1" stroke-width="3.2"/>
<circle clip-path="url(#clip192)" cx="718.788" cy="219.538" r="14.4" fill="#e26f46" fill-rule="evenodd" fill-opacity="1" stroke="#000000" stroke-opacity="1" stroke-width="3.2"/>
<circle clip-path="url(#clip192)" cx="1227.94" cy="681.696" r="14.4" fill="#e26f46" fill-rule="evenodd" fill-opacity="1" stroke="#000000" stroke-opacity="1" stroke-width="3.2"/>
<circle clip-path="url(#clip192)" cx="1279.83" cy="603.138" r="14.4" fill="#e26f46" fill-rule="evenodd" fill-opacity="1" stroke="#000000" stroke-opacity="1" stroke-width="3.2"/>
<circle clip-path="url(#clip192)" cx="1675.48" cy="1394.66" r="14.4" fill="#e26f46" fill-rule="evenodd" fill-opacity="1" stroke="#000000" stroke-opacity="1" stroke-width="3.2"/>
<circle clip-path="url(#clip192)" cx="1484.14" cy="1164.21" r="14.4" fill="#e26f46" fill-rule="evenodd" fill-opacity="1" stroke="#000000" stroke-opacity="1" stroke-width="3.2"/>
<circle clip-path="url(#clip192)" cx="472.318" cy="199.211" r="14.4" fill="#e26f46" fill-rule="evenodd" fill-opacity="1" stroke="#000000" stroke-opacity="1" stroke-width="3.2"/>
<circle clip-path="url(#clip192)" cx="1120.92" cy="329.028" r="14.4" fill="#e26f46" fill-rule="evenodd" fill-opacity="1" stroke="#000000" stroke-opacity="1" stroke-width="3.2"/>
<circle clip-path="url(#clip192)" cx="1727.37" cy="1373.63" r="14.4" fill="#e26f46" fill-rule="evenodd" fill-opacity="1" stroke="#000000" stroke-opacity="1" stroke-width="3.2"/>
<circle clip-path="url(#clip192)" cx="1571.7" cy="1310.31" r="14.4" fill="#e26f46" fill-rule="evenodd" fill-opacity="1" stroke="#000000" stroke-opacity="1" stroke-width="3.2"/>
<circle clip-path="url(#clip192)" cx="1231.19" cy="677.944" r="14.4" fill="#e26f46" fill-rule="evenodd" fill-opacity="1" stroke="#000000" stroke-opacity="1" stroke-width="3.2"/>
<circle clip-path="url(#clip192)" cx="1886.28" cy="1445.72" r="14.4" fill="#e26f46" fill-rule="evenodd" fill-opacity="1" stroke="#000000" stroke-opacity="1" stroke-width="3.2"/>
<path clip-path="url(#clip190)" d="M1953.46 250.738 L2280.8 250.738 L2280.8 95.2176 L1953.46 95.2176  Z" fill="#ffffff" fill-rule="evenodd" fill-opacity="1"/>
<polyline clip-path="url(#clip190)" style="stroke:#000000; stroke-linecap:round; stroke-linejoin:round; stroke-width:4; stroke-opacity:1; fill:none" points="1953.46,250.738 2280.8,250.738 2280.8,95.2176 1953.46,95.2176 1953.46,250.738 "/>
<polyline clip-path="url(#clip190)" style="stroke:#009af9; stroke-linecap:round; stroke-linejoin:round; stroke-width:4; stroke-opacity:1; fill:none" points="1977.44,147.058 2121.36,147.058 "/>
<path clip-path="url(#clip190)" d="M2152.76 131.051 L2152.76 138.412 L2161.53 138.412 L2161.53 141.722 L2152.76 141.722 L2152.76 155.796 Q2152.76 158.967 2153.61 159.87 Q2154.49 160.773 2157.16 160.773 L2161.53 160.773 L2161.53 164.338 L2157.16 164.338 Q2152.23 164.338 2150.35 162.509 Q2148.48 160.657 2148.48 155.796 L2148.48 141.722 L2145.35 141.722 L2145.35 138.412 L2148.48 138.412 L2148.48 131.051 L2152.76 131.051 Z" fill="#000000" fill-rule="nonzero" fill-opacity="1" /><path clip-path="url(#clip190)" d="M2182.16 142.393 Q2181.44 141.977 2180.58 141.791 Q2179.75 141.583 2178.73 141.583 Q2175.12 141.583 2173.17 143.944 Q2171.25 146.282 2171.25 150.68 L2171.25 164.338 L2166.97 164.338 L2166.97 138.412 L2171.25 138.412 L2171.25 142.44 Q2172.6 140.078 2174.75 138.944 Q2176.9 137.787 2179.98 137.787 Q2180.42 137.787 2180.95 137.856 Q2181.48 137.903 2182.13 138.018 L2182.16 142.393 Z" fill="#000000" fill-rule="nonzero" fill-opacity="1" /><path clip-path="url(#clip190)" d="M2186.18 154.106 L2186.18 138.412 L2190.44 138.412 L2190.44 153.944 Q2190.44 157.625 2191.88 159.476 Q2193.31 161.305 2196.18 161.305 Q2199.63 161.305 2201.62 159.106 Q2203.64 156.907 2203.64 153.111 L2203.64 138.412 L2207.9 138.412 L2207.9 164.338 L2203.64 164.338 L2203.64 160.356 Q2202.09 162.717 2200.03 163.875 Q2197.99 165.009 2195.28 165.009 Q2190.81 165.009 2188.5 162.231 Q2186.18 159.453 2186.18 154.106 M2196.9 137.787 L2196.9 137.787 Z" fill="#000000" fill-rule="nonzero" fill-opacity="1" /><path clip-path="url(#clip190)" d="M2220.88 131.051 L2220.88 138.412 L2229.66 138.412 L2229.66 141.722 L2220.88 141.722 L2220.88 155.796 Q2220.88 158.967 2221.74 159.87 Q2222.62 160.773 2225.28 160.773 L2229.66 160.773 L2229.66 164.338 L2225.28 164.338 Q2220.35 164.338 2218.48 162.509 Q2216.6 160.657 2216.6 155.796 L2216.6 141.722 L2213.48 141.722 L2213.48 138.412 L2216.6 138.412 L2216.6 131.051 L2220.88 131.051 Z" fill="#000000" fill-rule="nonzero" fill-opacity="1" /><path clip-path="url(#clip190)" d="M2256.81 148.689 L2256.81 164.338 L2252.55 164.338 L2252.55 148.828 Q2252.55 145.148 2251.11 143.319 Q2249.68 141.49 2246.81 141.49 Q2243.36 141.49 2241.37 143.69 Q2239.38 145.889 2239.38 149.685 L2239.38 164.338 L2235.1 164.338 L2235.1 128.319 L2239.38 128.319 L2239.38 142.44 Q2240.91 140.102 2242.97 138.944 Q2245.05 137.787 2247.76 137.787 Q2252.23 137.787 2254.52 140.565 Q2256.81 143.319 2256.81 148.689 Z" fill="#000000" fill-rule="nonzero" fill-opacity="1" /><circle clip-path="url(#clip190)" cx="2049.4" cy="198.898" r="20.48" fill="#e26f46" fill-rule="evenodd" fill-opacity="1" stroke="#000000" stroke-opacity="1" stroke-width="4.55111"/>
<path clip-path="url(#clip190)" d="M2164.26 194.187 L2164.26 180.159 L2168.52 180.159 L2168.52 216.178 L2164.26 216.178 L2164.26 212.289 Q2162.92 214.603 2160.86 215.738 Q2158.82 216.849 2155.95 216.849 Q2151.25 216.849 2148.29 213.099 Q2145.35 209.349 2145.35 203.238 Q2145.35 197.127 2148.29 193.377 Q2151.25 189.627 2155.95 189.627 Q2158.82 189.627 2160.86 190.761 Q2162.92 191.872 2164.26 194.187 M2149.75 203.238 Q2149.75 207.937 2151.67 210.622 Q2153.61 213.284 2156.99 213.284 Q2160.37 213.284 2162.32 210.622 Q2164.26 207.937 2164.26 203.238 Q2164.26 198.539 2162.32 195.877 Q2160.37 193.192 2156.99 193.192 Q2153.61 193.192 2151.67 195.877 Q2149.75 198.539 2149.75 203.238 Z" fill="#000000" fill-rule="nonzero" fill-opacity="1" /><path clip-path="url(#clip190)" d="M2189.08 203.145 Q2183.92 203.145 2181.92 204.326 Q2179.93 205.506 2179.93 208.354 Q2179.93 210.622 2181.42 211.965 Q2182.92 213.284 2185.49 213.284 Q2189.03 213.284 2191.16 210.784 Q2193.31 208.261 2193.31 204.094 L2193.31 203.145 L2189.08 203.145 M2197.57 201.386 L2197.57 216.178 L2193.31 216.178 L2193.31 212.242 Q2191.85 214.603 2189.68 215.738 Q2187.5 216.849 2184.36 216.849 Q2180.37 216.849 2178.01 214.627 Q2175.67 212.381 2175.67 208.631 Q2175.67 204.256 2178.59 202.034 Q2181.53 199.812 2187.34 199.812 L2193.31 199.812 L2193.31 199.395 Q2193.31 196.455 2191.37 194.858 Q2189.45 193.238 2185.95 193.238 Q2183.73 193.238 2181.62 193.77 Q2179.52 194.303 2177.57 195.367 L2177.57 191.432 Q2179.91 190.53 2182.11 190.09 Q2184.31 189.627 2186.39 189.627 Q2192.02 189.627 2194.79 192.543 Q2197.57 195.46 2197.57 201.386 Z" fill="#000000" fill-rule="nonzero" fill-opacity="1" /><path clip-path="url(#clip190)" d="M2210.56 182.891 L2210.56 190.252 L2219.33 190.252 L2219.33 193.562 L2210.56 193.562 L2210.56 207.636 Q2210.56 210.807 2211.42 211.71 Q2212.29 212.613 2214.96 212.613 L2219.33 212.613 L2219.33 216.178 L2214.96 216.178 Q2210.03 216.178 2208.15 214.349 Q2206.28 212.497 2206.28 207.636 L2206.28 193.562 L2203.15 193.562 L2203.15 190.252 L2206.28 190.252 L2206.28 182.891 L2210.56 182.891 Z" fill="#000000" fill-rule="nonzero" fill-opacity="1" /><path clip-path="url(#clip190)" d="M2236.72 203.145 Q2231.55 203.145 2229.56 204.326 Q2227.57 205.506 2227.57 208.354 Q2227.57 210.622 2229.05 211.965 Q2230.56 213.284 2233.13 213.284 Q2236.67 213.284 2238.8 210.784 Q2240.95 208.261 2240.95 204.094 L2240.95 203.145 L2236.72 203.145 M2245.21 201.386 L2245.21 216.178 L2240.95 216.178 L2240.95 212.242 Q2239.49 214.603 2237.32 215.738 Q2235.14 216.849 2231.99 216.849 Q2228.01 216.849 2225.65 214.627 Q2223.31 212.381 2223.31 208.631 Q2223.31 204.256 2226.23 202.034 Q2229.17 199.812 2234.98 199.812 L2240.95 199.812 L2240.95 199.395 Q2240.95 196.455 2239.01 194.858 Q2237.09 193.238 2233.59 193.238 Q2231.37 193.238 2229.26 193.77 Q2227.16 194.303 2225.21 195.367 L2225.21 191.432 Q2227.55 190.53 2229.75 190.09 Q2231.95 189.627 2234.03 189.627 Q2239.66 189.627 2242.43 192.543 Q2245.21 195.46 2245.21 201.386 Z" fill="#000000" fill-rule="nonzero" fill-opacity="1" /></svg>
