<?xml version="1.0" encoding="utf-8"?>
<svg xmlns="http://www.w3.org/2000/svg" xmlns:xlink="http://www.w3.org/1999/xlink" width="600" height="400" viewBox="0 0 2400 1600">
<defs>
  <clipPath id="clip250">
    <rect x="0" y="0" width="2400" height="1600"/>
  </clipPath>
</defs>
<path clip-path="url(#clip250)" d="M0 1600 L2400 1600 L2400 0 L0 0  Z" fill="#ffffff" fill-rule="evenodd" fill-opacity="1"/>
<defs>
  <clipPath id="clip251">
    <rect x="480" y="0" width="1681" height="1600"/>
  </clipPath>
</defs>
<path clip-path="url(#clip250)" d="M193.936 1486.45 L2352.76 1486.45 L2352.76 47.2441 L193.936 47.2441  Z" fill="#ffffff" fill-rule="evenodd" fill-opacity="1"/>
<defs>
  <clipPath id="clip252">
    <rect x="193" y="47" width="2160" height="1440"/>
  </clipPath>
</defs>
<polyline clip-path="url(#clip252)" style="stroke:#000000; stroke-linecap:round; stroke-linejoin:round; stroke-width:2; stroke-opacity:0.1; fill:none" points="255.035,1486.45 255.035,47.2441 "/>
<polyline clip-path="url(#clip252)" style="stroke:#000000; stroke-linecap:round; stroke-linejoin:round; stroke-width:2; stroke-opacity:0.1; fill:none" points="579.338,1486.45 579.338,47.2441 "/>
<polyline clip-path="url(#clip252)" style="stroke:#000000; stroke-linecap:round; stroke-linejoin:round; stroke-width:2; stroke-opacity:0.1; fill:none" points="903.641,1486.45 903.641,47.2441 "/>
<polyline clip-path="url(#clip252)" style="stroke:#000000; stroke-linecap:round; stroke-linejoin:round; stroke-width:2; stroke-opacity:0.1; fill:none" points="1227.94,1486.45 1227.94,47.2441 "/>
<polyline clip-path="url(#clip252)" style="stroke:#000000; stroke-linecap:round; stroke-linejoin:round; stroke-width:2; stroke-opacity:0.1; fill:none" points="1552.25,1486.45 1552.25,47.2441 "/>
<polyline clip-path="url(#clip252)" style="stroke:#000000; stroke-linecap:round; stroke-linejoin:round; stroke-width:2; stroke-opacity:0.1; fill:none" points="1876.55,1486.45 1876.55,47.2441 "/>
<polyline clip-path="url(#clip252)" style="stroke:#000000; stroke-linecap:round; stroke-linejoin:round; stroke-width:2; stroke-opacity:0.1; fill:none" points="2200.85,1486.45 2200.85,47.2441 "/>
<polyline clip-path="url(#clip252)" style="stroke:#000000; stroke-linecap:round; stroke-linejoin:round; stroke-width:2; stroke-opacity:0.1; fill:none" points="193.936,1247.3 2352.76,1247.3 "/>
<polyline clip-path="url(#clip252)" style="stroke:#000000; stroke-linecap:round; stroke-linejoin:round; stroke-width:2; stroke-opacity:0.1; fill:none" points="193.936,998.667 2352.76,998.667 "/>
<polyline clip-path="url(#clip252)" style="stroke:#000000; stroke-linecap:round; stroke-linejoin:round; stroke-width:2; stroke-opacity:0.1; fill:none" points="193.936,750.034 2352.76,750.034 "/>
<polyline clip-path="url(#clip252)" style="stroke:#000000; stroke-linecap:round; stroke-linejoin:round; stroke-width:2; stroke-opacity:0.1; fill:none" points="193.936,501.402 2352.76,501.402 "/>
<polyline clip-path="url(#clip252)" style="stroke:#000000; stroke-linecap:round; stroke-linejoin:round; stroke-width:2; stroke-opacity:0.1; fill:none" points="193.936,252.769 2352.76,252.769 "/>
<polyline clip-path="url(#clip250)" style="stroke:#000000; stroke-linecap:round; stroke-linejoin:round; stroke-width:4; stroke-opacity:1; fill:none" points="193.936,1486.45 2352.76,1486.45 "/>
<polyline clip-path="url(#clip250)" style="stroke:#000000; stroke-linecap:round; stroke-linejoin:round; stroke-width:4; stroke-opacity:1; fill:none" points="255.035,1486.45 255.035,1467.55 "/>
<polyline clip-path="url(#clip250)" style="stroke:#000000; stroke-linecap:round; stroke-linejoin:round; stroke-width:4; stroke-opacity:1; fill:none" points="579.338,1486.45 579.338,1467.55 "/>
<polyline clip-path="url(#clip250)" style="stroke:#000000; stroke-linecap:round; stroke-linejoin:round; stroke-width:4; stroke-opacity:1; fill:none" points="903.641,1486.45 903.641,1467.55 "/>
<polyline clip-path="url(#clip250)" style="stroke:#000000; stroke-linecap:round; stroke-linejoin:round; stroke-width:4; stroke-opacity:1; fill:none" points="1227.94,1486.45 1227.94,1467.55 "/>
<polyline clip-path="url(#clip250)" style="stroke:#000000; stroke-linecap:round; stroke-linejoin:round; stroke-width:4; stroke-opacity:1; fill:none" points="1552.25,1486.45 1552.25,1467.55 "/>
<polyline clip-path="url(#clip250)" style="stroke:#000000; stroke-linecap:round; stroke-linejoin:round; stroke-width:4; stroke-opacity:1; fill:none" points="1876.55,1486.45 1876.55,1467.55 "/>
<polyline clip-path="url(#clip250)" style="stroke:#000000; stroke-linecap:round; stroke-linejoin:round; stroke-width:4; stroke-opacity:1; fill:none" points="2200.85,1486.45 2200.85,1467.55 "/>
<path clip-path="url(#clip250)" d="M255.035 1517.37 Q251.424 1517.37 249.595 1520.93 Q247.789 1524.47 247.789 1531.6 Q247.789 1538.71 249.595 1542.27 Q251.424 1545.82 255.035 1545.82 Q258.669 1545.82 260.474 1542.27 Q262.303 1538.71 262.303 1531.6 Q262.303 1524.47 260.474 1520.93 Q258.669 1517.37 255.035 1517.37 M255.035 1513.66 Q260.845 1513.66 263.9 1518.27 Q266.979 1522.85 266.979 1531.6 Q266.979 1540.33 263.9 1544.94 Q260.845 1549.52 255.035 1549.52 Q249.225 1549.52 246.146 1544.94 Q243.09 1540.33 243.09 1531.6 Q243.09 1522.85 246.146 1518.27 Q249.225 1513.66 255.035 1513.66 Z" fill="#000000" fill-rule="nonzero" fill-opacity="1" /><path clip-path="url(#clip250)" d="M569.72 1544.91 L577.358 1544.91 L577.358 1518.55 L569.048 1520.21 L569.048 1515.95 L577.312 1514.29 L581.988 1514.29 L581.988 1544.91 L589.627 1544.91 L589.627 1548.85 L569.72 1548.85 L569.72 1544.91 Z" fill="#000000" fill-rule="nonzero" fill-opacity="1" /><path clip-path="url(#clip250)" d="M898.293 1544.91 L914.613 1544.91 L914.613 1548.85 L892.668 1548.85 L892.668 1544.91 Q895.33 1542.16 899.914 1537.53 Q904.52 1532.88 905.701 1531.53 Q907.946 1529.01 908.826 1527.27 Q909.729 1525.51 909.729 1523.82 Q909.729 1521.07 907.784 1519.33 Q905.863 1517.6 902.761 1517.6 Q900.562 1517.6 898.108 1518.36 Q895.678 1519.13 892.9 1520.68 L892.9 1515.95 Q895.724 1514.82 898.178 1514.24 Q900.631 1513.66 902.668 1513.66 Q908.039 1513.66 911.233 1516.35 Q914.428 1519.03 914.428 1523.52 Q914.428 1525.65 913.617 1527.57 Q912.83 1529.47 910.724 1532.07 Q910.145 1532.74 907.043 1535.95 Q903.942 1539.15 898.293 1544.91 Z" fill="#000000" fill-rule="nonzero" fill-opacity="1" /><path clip-path="url(#clip250)" d="M1232.19 1530.21 Q1235.55 1530.93 1237.42 1533.2 Q1239.32 1535.47 1239.32 1538.8 Q1239.32 1543.92 1235.8 1546.72 Q1232.28 1549.52 1225.8 1549.52 Q1223.63 1549.52 1221.31 1549.08 Q1219.02 1548.66 1216.57 1547.81 L1216.57 1543.29 Q1218.51 1544.43 1220.83 1545.01 Q1223.14 1545.58 1225.66 1545.58 Q1230.06 1545.58 1232.35 1543.85 Q1234.67 1542.11 1234.67 1538.8 Q1234.67 1535.75 1232.52 1534.03 Q1230.39 1532.3 1226.57 1532.3 L1222.54 1532.3 L1222.54 1528.45 L1226.75 1528.45 Q1230.2 1528.45 1232.03 1527.09 Q1233.86 1525.7 1233.86 1523.11 Q1233.86 1520.45 1231.96 1519.03 Q1230.08 1517.6 1226.57 1517.6 Q1224.64 1517.6 1222.45 1518.01 Q1220.25 1518.43 1217.61 1519.31 L1217.61 1515.14 Q1220.27 1514.4 1222.58 1514.03 Q1224.92 1513.66 1226.98 1513.66 Q1232.31 1513.66 1235.41 1516.09 Q1238.51 1518.5 1238.51 1522.62 Q1238.51 1525.49 1236.87 1527.48 Q1235.22 1529.45 1232.19 1530.21 Z" fill="#000000" fill-rule="nonzero" fill-opacity="1" /><path clip-path="url(#clip250)" d="M1555.26 1518.36 L1543.45 1536.81 L1555.26 1536.81 L1555.26 1518.36 M1554.03 1514.29 L1559.91 1514.29 L1559.91 1536.81 L1564.84 1536.81 L1564.84 1540.7 L1559.91 1540.7 L1559.91 1548.85 L1555.26 1548.85 L1555.26 1540.7 L1539.65 1540.7 L1539.65 1536.19 L1554.03 1514.29 Z" fill="#000000" fill-rule="nonzero" fill-opacity="1" /><path clip-path="url(#clip250)" d="M1866.83 1514.29 L1885.18 1514.29 L1885.18 1518.22 L1871.11 1518.22 L1871.11 1526.7 Q1872.13 1526.35 1873.15 1526.19 Q1874.17 1526 1875.18 1526 Q1880.97 1526 1884.35 1529.17 Q1887.73 1532.34 1887.73 1537.76 Q1887.73 1543.34 1884.26 1546.44 Q1880.79 1549.52 1874.47 1549.52 Q1872.29 1549.52 1870.02 1549.15 Q1867.78 1548.78 1865.37 1548.04 L1865.37 1543.34 Q1867.45 1544.47 1869.67 1545.03 Q1871.9 1545.58 1874.37 1545.58 Q1878.38 1545.58 1880.72 1543.48 Q1883.05 1541.37 1883.05 1537.76 Q1883.05 1534.15 1880.72 1532.04 Q1878.38 1529.94 1874.37 1529.94 Q1872.5 1529.94 1870.62 1530.35 Q1868.77 1530.77 1866.83 1531.65 L1866.83 1514.29 Z" fill="#000000" fill-rule="nonzero" fill-opacity="1" /><path clip-path="url(#clip250)" d="M2201.26 1529.7 Q2198.11 1529.7 2196.26 1531.86 Q2194.43 1534.01 2194.43 1537.76 Q2194.43 1541.49 2196.26 1543.66 Q2198.11 1545.82 2201.26 1545.82 Q2204.41 1545.82 2206.23 1543.66 Q2208.09 1541.49 2208.09 1537.76 Q2208.09 1534.01 2206.23 1531.86 Q2204.41 1529.7 2201.26 1529.7 M2210.54 1515.05 L2210.54 1519.31 Q2208.78 1518.48 2206.98 1518.04 Q2205.19 1517.6 2203.43 1517.6 Q2198.8 1517.6 2196.35 1520.72 Q2193.92 1523.85 2193.57 1530.17 Q2194.94 1528.15 2197 1527.09 Q2199.06 1526 2201.54 1526 Q2206.74 1526 2209.75 1529.17 Q2212.79 1532.32 2212.79 1537.76 Q2212.79 1543.08 2209.64 1546.3 Q2206.49 1549.52 2201.26 1549.52 Q2195.26 1549.52 2192.09 1544.94 Q2188.92 1540.33 2188.92 1531.6 Q2188.92 1523.41 2192.81 1518.55 Q2196.7 1513.66 2203.25 1513.66 Q2205.01 1513.66 2206.79 1514.01 Q2208.6 1514.36 2210.54 1515.05 Z" fill="#000000" fill-rule="nonzero" fill-opacity="1" /><polyline clip-path="url(#clip250)" style="stroke:#000000; stroke-linecap:round; stroke-linejoin:round; stroke-width:4; stroke-opacity:1; fill:none" points="193.936,1486.45 193.936,47.2441 "/>
<polyline clip-path="url(#clip250)" style="stroke:#000000; stroke-linecap:round; stroke-linejoin:round; stroke-width:4; stroke-opacity:1; fill:none" points="193.936,1247.3 212.834,1247.3 "/>
<polyline clip-path="url(#clip250)" style="stroke:#000000; stroke-linecap:round; stroke-linejoin:round; stroke-width:4; stroke-opacity:1; fill:none" points="193.936,998.667 212.834,998.667 "/>
<polyline clip-path="url(#clip250)" style="stroke:#000000; stroke-linecap:round; stroke-linejoin:round; stroke-width:4; stroke-opacity:1; fill:none" points="193.936,750.034 212.834,750.034 "/>
<polyline clip-path="url(#clip250)" style="stroke:#000000; stroke-linecap:round; stroke-linejoin:round; stroke-width:4; stroke-opacity:1; fill:none" points="193.936,501.402 212.834,501.402 "/>
<polyline clip-path="url(#clip250)" style="stroke:#000000; stroke-linecap:round; stroke-linejoin:round; stroke-width:4; stroke-opacity:1; fill:none" points="193.936,252.769 212.834,252.769 "/>
<path clip-path="url(#clip250)" d="M50.9921 1247.75 L80.6679 1247.75 L80.6679 1251.69 L50.9921 1251.69 L50.9921 1247.75 Z" fill="#000000" fill-rule="nonzero" fill-opacity="1" /><path clip-path="url(#clip250)" d="M91.5706 1260.64 L99.2095 1260.64 L99.2095 1234.28 L90.8993 1235.95 L90.8993 1231.69 L99.1632 1230.02 L103.839 1230.02 L103.839 1260.64 L111.478 1260.64 L111.478 1264.58 L91.5706 1264.58 L91.5706 1260.64 Z" fill="#000000" fill-rule="nonzero" fill-opacity="1" /><path clip-path="url(#clip250)" d="M120.922 1258.7 L125.807 1258.7 L125.807 1264.58 L120.922 1264.58 L120.922 1258.7 Z" fill="#000000" fill-rule="nonzero" fill-opacity="1" /><path clip-path="url(#clip250)" d="M145.992 1233.1 Q142.381 1233.1 140.552 1236.66 Q138.746 1240.2 138.746 1247.33 Q138.746 1254.44 140.552 1258.01 Q142.381 1261.55 145.992 1261.55 Q149.626 1261.55 151.431 1258.01 Q153.26 1254.44 153.26 1247.33 Q153.26 1240.2 151.431 1236.66 Q149.626 1233.1 145.992 1233.1 M145.992 1229.39 Q151.802 1229.39 154.857 1234 Q157.936 1238.58 157.936 1247.33 Q157.936 1256.06 154.857 1260.67 Q151.802 1265.25 145.992 1265.25 Q140.181 1265.25 137.103 1260.67 Q134.047 1256.06 134.047 1247.33 Q134.047 1238.58 137.103 1234 Q140.181 1229.39 145.992 1229.39 Z" fill="#000000" fill-rule="nonzero" fill-opacity="1" /><path clip-path="url(#clip250)" d="M51.9875 999.118 L81.6633 999.118 L81.6633 1003.05 L51.9875 1003.05 L51.9875 999.118 Z" fill="#000000" fill-rule="nonzero" fill-opacity="1" /><path clip-path="url(#clip250)" d="M101.756 984.466 Q98.1447 984.466 96.316 988.03 Q94.5104 991.572 94.5104 998.702 Q94.5104 1005.81 96.316 1009.37 Q98.1447 1012.91 101.756 1012.91 Q105.39 1012.91 107.196 1009.37 Q109.024 1005.81 109.024 998.702 Q109.024 991.572 107.196 988.03 Q105.39 984.466 101.756 984.466 M101.756 980.762 Q107.566 980.762 110.621 985.368 Q113.7 989.952 113.7 998.702 Q113.7 1007.43 110.621 1012.03 Q107.566 1016.62 101.756 1016.62 Q95.9456 1016.62 92.8669 1012.03 Q89.8114 1007.43 89.8114 998.702 Q89.8114 989.952 92.8669 985.368 Q95.9456 980.762 101.756 980.762 Z" fill="#000000" fill-rule="nonzero" fill-opacity="1" /><path clip-path="url(#clip250)" d="M121.918 1010.07 L126.802 1010.07 L126.802 1015.95 L121.918 1015.95 L121.918 1010.07 Z" fill="#000000" fill-rule="nonzero" fill-opacity="1" /><path clip-path="url(#clip250)" d="M137.033 981.387 L155.39 981.387 L155.39 985.322 L141.316 985.322 L141.316 993.794 Q142.334 993.447 143.353 993.285 Q144.371 993.1 145.39 993.1 Q151.177 993.1 154.556 996.271 Q157.936 999.442 157.936 1004.86 Q157.936 1010.44 154.464 1013.54 Q150.992 1016.62 144.672 1016.62 Q142.496 1016.62 140.228 1016.25 Q137.982 1015.88 135.575 1015.14 L135.575 1010.44 Q137.658 1011.57 139.881 1012.13 Q142.103 1012.68 144.58 1012.68 Q148.584 1012.68 150.922 1010.58 Q153.26 1008.47 153.26 1004.86 Q153.26 1001.25 150.922 999.141 Q148.584 997.035 144.58 997.035 Q142.705 997.035 140.83 997.452 Q138.978 997.868 137.033 998.748 L137.033 981.387 Z" fill="#000000" fill-rule="nonzero" fill-opacity="1" /><path clip-path="url(#clip250)" d="M100.76 735.833 Q97.1493 735.833 95.3206 739.398 Q93.515 742.939 93.515 750.069 Q93.515 757.175 95.3206 760.74 Q97.1493 764.282 100.76 764.282 Q104.395 764.282 106.2 760.74 Q108.029 757.175 108.029 750.069 Q108.029 742.939 106.2 739.398 Q104.395 735.833 100.76 735.833 M100.76 732.129 Q106.571 732.129 109.626 736.736 Q112.705 741.319 112.705 750.069 Q112.705 758.796 109.626 763.402 Q106.571 767.986 100.76 767.986 Q94.9502 767.986 91.8715 763.402 Q88.816 758.796 88.816 750.069 Q88.816 741.319 91.8715 736.736 Q94.9502 732.129 100.76 732.129 Z" fill="#000000" fill-rule="nonzero" fill-opacity="1" /><path clip-path="url(#clip250)" d="M120.922 761.435 L125.807 761.435 L125.807 767.314 L120.922 767.314 L120.922 761.435 Z" fill="#000000" fill-rule="nonzero" fill-opacity="1" /><path clip-path="url(#clip250)" d="M145.992 735.833 Q142.381 735.833 140.552 739.398 Q138.746 742.939 138.746 750.069 Q138.746 757.175 140.552 760.74 Q142.381 764.282 145.992 764.282 Q149.626 764.282 151.431 760.74 Q153.26 757.175 153.26 750.069 Q153.26 742.939 151.431 739.398 Q149.626 735.833 145.992 735.833 M145.992 732.129 Q151.802 732.129 154.857 736.736 Q157.936 741.319 157.936 750.069 Q157.936 758.796 154.857 763.402 Q151.802 767.986 145.992 767.986 Q140.181 767.986 137.103 763.402 Q134.047 758.796 134.047 750.069 Q134.047 741.319 137.103 736.736 Q140.181 732.129 145.992 732.129 Z" fill="#000000" fill-rule="nonzero" fill-opacity="1" /><path clip-path="url(#clip250)" d="M101.756 487.2 Q98.1447 487.2 96.316 490.765 Q94.5104 494.307 94.5104 501.436 Q94.5104 508.543 96.316 512.107 Q98.1447 515.649 101.756 515.649 Q105.39 515.649 107.196 512.107 Q109.024 508.543 109.024 501.436 Q109.024 494.307 107.196 490.765 Q105.39 487.2 101.756 487.2 M101.756 483.497 Q107.566 483.497 110.621 488.103 Q113.7 492.686 113.7 501.436 Q113.7 510.163 110.621 514.77 Q107.566 519.353 101.756 519.353 Q95.9456 519.353 92.8669 514.77 Q89.8114 510.163 89.8114 501.436 Q89.8114 492.686 92.8669 488.103 Q95.9456 483.497 101.756 483.497 Z" fill="#000000" fill-rule="nonzero" fill-opacity="1" /><path clip-path="url(#clip250)" d="M121.918 512.802 L126.802 512.802 L126.802 518.682 L121.918 518.682 L121.918 512.802 Z" fill="#000000" fill-rule="nonzero" fill-opacity="1" /><path clip-path="url(#clip250)" d="M137.033 484.122 L155.39 484.122 L155.39 488.057 L141.316 488.057 L141.316 496.529 Q142.334 496.182 143.353 496.02 Q144.371 495.834 145.39 495.834 Q151.177 495.834 154.556 499.006 Q157.936 502.177 157.936 507.594 Q157.936 513.172 154.464 516.274 Q150.992 519.353 144.672 519.353 Q142.496 519.353 140.228 518.982 Q137.982 518.612 135.575 517.871 L135.575 513.172 Q137.658 514.307 139.881 514.862 Q142.103 515.418 144.58 515.418 Q148.584 515.418 150.922 513.311 Q153.26 511.205 153.26 507.594 Q153.26 503.983 150.922 501.876 Q148.584 499.77 144.58 499.77 Q142.705 499.77 140.83 500.186 Q138.978 500.603 137.033 501.483 L137.033 484.122 Z" fill="#000000" fill-rule="nonzero" fill-opacity="1" /><path clip-path="url(#clip250)" d="M91.5706 266.114 L99.2095 266.114 L99.2095 239.748 L90.8993 241.415 L90.8993 237.156 L99.1632 235.489 L103.839 235.489 L103.839 266.114 L111.478 266.114 L111.478 270.049 L91.5706 270.049 L91.5706 266.114 Z" fill="#000000" fill-rule="nonzero" fill-opacity="1" /><path clip-path="url(#clip250)" d="M120.922 264.169 L125.807 264.169 L125.807 270.049 L120.922 270.049 L120.922 264.169 Z" fill="#000000" fill-rule="nonzero" fill-opacity="1" /><path clip-path="url(#clip250)" d="M145.992 238.568 Q142.381 238.568 140.552 242.132 Q138.746 245.674 138.746 252.804 Q138.746 259.91 140.552 263.475 Q142.381 267.016 145.992 267.016 Q149.626 267.016 151.431 263.475 Q153.26 259.91 153.26 252.804 Q153.26 245.674 151.431 242.132 Q149.626 238.568 145.992 238.568 M145.992 234.864 Q151.802 234.864 154.857 239.47 Q157.936 244.054 157.936 252.804 Q157.936 261.53 154.857 266.137 Q151.802 270.72 145.992 270.72 Q140.181 270.72 137.103 266.137 Q134.047 261.53 134.047 252.804 Q134.047 244.054 137.103 239.47 Q140.181 234.864 145.992 234.864 Z" fill="#000000" fill-rule="nonzero" fill-opacity="1" /><polyline clip-path="url(#clip252)" style="stroke:#009af9; stroke-linecap:round; stroke-linejoin:round; stroke-width:4; stroke-opacity:1; fill:none" points="255.035,750.034 258.278,745.062 261.521,740.09 264.764,735.118 268.007,730.149 271.25,725.181 274.493,720.216 277.736,715.254 280.979,710.295 284.222,705.341 287.465,700.391 290.708,695.445 293.951,690.505 297.194,685.572 300.437,680.644 303.68,675.724 306.923,670.811 310.166,665.906 313.409,661.009 316.652,656.121 319.895,651.243 323.138,646.374 326.381,641.516 329.624,636.669 332.867,631.833 336.11,627.009 339.353,622.197 342.596,617.398 345.84,612.612 349.083,607.84 352.326,603.082 355.569,598.339 358.812,593.611 362.055,588.899 365.298,584.203 368.541,579.523 371.784,574.86 375.027,570.215 378.27,565.588 381.513,560.98 384.756,556.39 387.999,551.82 391.242,547.269 394.485,542.739 397.728,538.229 400.971,533.741 404.214,529.274 407.457,524.83 410.7,520.407 413.943,516.008 417.186,511.633 420.429,507.281 423.672,502.953 426.915,498.65 430.158,494.372 433.401,490.12 436.644,485.894 439.887,481.694 443.13,477.521 446.373,473.375 449.616,469.257 452.859,465.167 456.103,461.106 459.346,457.073 462.589,453.07 465.832,449.096 469.075,445.152 472.318,441.239 475.561,437.357 478.804,433.506 482.047,429.687 485.29,425.9 488.533,422.145 491.776,418.423 495.019,414.734 498.262,411.079 501.505,407.457 504.748,403.87 507.991,400.318 511.234,396.8 514.477,393.318 517.72,389.871 520.963,386.461 524.206,383.087 527.449,379.749 530.692,376.448 533.935,373.185 537.178,369.96 540.421,366.772 543.664,363.623 546.907,360.513 550.15,357.441 553.393,354.409 556.636,351.416 559.879,348.464 563.122,345.551 566.366,342.679 569.609,339.847 572.852,337.057 576.095,334.307 579.338,331.6 582.581,328.934 585.824,326.31 589.067,323.729 592.31,321.19 595.553,318.695 598.796,316.242 602.039,313.833 605.282,311.467 608.525,309.145 611.768,306.868 615.011,304.634 618.254,302.445 621.497,300.301 624.74,298.202 627.983,296.148 631.226,294.14 634.469,292.177 637.712,290.26 640.955,288.388 644.198,286.563 647.441,284.785 650.684,283.053 653.927,281.367 657.17,279.729 660.413,278.137 663.656,276.593 666.899,275.096 670.142,273.646 673.385,272.244 676.629,270.89 679.872,269.584 683.115,268.326 686.358,267.116 689.601,265.954 692.844,264.841 696.087,263.776 699.33,262.76 702.573,261.792 705.816,260.874 709.059,260.004 712.302,259.184 715.545,258.412 718.788,257.69 722.031,257.016 725.274,256.392 728.517,255.818 731.76,255.293 735.003,254.817 738.246,254.391 741.489,254.015 744.732,253.688 747.975,253.41 751.218,253.183 754.461,253.005 757.704,252.876 760.947,252.798 764.19,252.769 767.433,252.79 770.676,252.861 773.919,252.981 777.162,253.151 780.405,253.371 783.648,253.64 786.892,253.959 790.135,254.328 793.378,254.746 796.621,255.214 799.864,255.731 803.107,256.298 806.35,256.914 809.593,257.579 812.836,258.294 816.079,259.057 819.322,259.87 822.565,260.732 825.808,261.643 829.051,262.603 832.294,263.611 835.537,264.668 838.78,265.774 842.023,266.928 845.266,268.13 848.509,269.38 851.752,270.679 854.995,272.025 858.238,273.42 861.481,274.862 864.724,276.351 867.967,277.888 871.21,279.472 874.453,281.103 877.696,282.781 880.939,284.506 884.182,286.277 887.425,288.095 890.668,289.959 893.911,291.868 897.155,293.824 900.398,295.825 903.641,297.872 906.884,299.964 910.127,302.101 913.37,304.283 916.613,306.509 919.856,308.78 923.099,311.094 926.342,313.453 929.585,315.855 932.828,318.301 936.071,320.79 939.314,323.322 942.557,325.896 945.8,328.513 949.043,331.172 952.286,333.873 955.529,336.616 958.772,339.4 962.015,342.225 965.258,345.091 968.501,347.997 971.744,350.943 974.987,353.93 978.23,356.956 981.473,360.021 984.716,363.125 987.959,366.268 991.202,369.45 994.445,372.669 997.688,375.926 1000.93,379.221 1004.17,382.552 1007.42,385.921 1010.66,389.326 1013.9,392.767 1017.15,396.243 1020.39,399.755 1023.63,403.302 1026.88,406.884 1030.12,410.5 1033.36,414.15 1036.6,417.833 1039.85,421.55 1043.09,425.3 1046.33,429.082 1049.58,432.896 1052.82,436.742 1056.06,440.619 1059.31,444.527 1062.55,448.466 1065.79,452.435 1069.04,456.433 1072.28,460.461 1075.52,464.518 1078.76,468.604 1082.01,472.717 1085.25,476.859 1088.49,481.027 1091.74,485.223 1094.98,489.445 1098.22,493.693 1101.47,497.967 1104.71,502.266 1107.95,506.59 1111.19,510.938 1114.44,515.31 1117.68,519.705 1120.92,524.124 1124.17,528.565 1127.41,533.028 1130.65,537.513 1133.9,542.019 1137.14,546.546 1140.38,551.094 1143.62,555.661 1146.87,560.247 1150.11,564.853 1153.35,569.477 1156.6,574.119 1159.84,578.779 1163.08,583.456 1166.33,588.15 1169.57,592.86 1172.81,597.585 1176.06,602.326 1179.3,607.081 1182.54,611.851 1185.78,616.635 1189.03,621.432 1192.27,626.242 1195.51,631.064 1198.76,635.898 1202,640.743 1205.24,645.6 1208.49,650.467 1211.73,655.344 1214.97,660.23 1218.21,665.125 1221.46,670.029 1224.7,674.941 1227.94,679.86 1231.19,684.786 1234.43,689.719 1237.67,694.658 1240.92,699.603 1244.16,704.552 1247.4,709.506 1250.64,714.464 1253.89,719.426 1257.13,724.39 1260.37,729.358 1263.62,734.327 1266.86,739.298 1270.1,744.27 1273.35,749.242 1276.59,754.215 1279.83,759.187 1283.08,764.158 1286.32,769.128 1289.56,774.096 1292.8,779.062 1296.05,784.024 1299.29,788.984 1302.53,793.939 1305.78,798.89 1309.02,803.836 1312.26,808.777 1315.51,813.711 1318.75,818.64 1321.99,823.561 1325.23,828.476 1328.48,833.382 1331.72,838.28 1334.96,843.169 1338.21,848.049 1341.45,852.919 1344.69,857.779 1347.94,862.628 1351.18,867.466 1354.42,872.292 1357.66,877.106 1360.91,881.907 1364.15,886.695 1367.39,891.469 1370.64,896.229 1373.88,900.975 1377.12,905.705 1380.37,910.42 1383.61,915.119 1386.85,919.801 1390.1,924.467 1393.34,929.114 1396.58,933.744 1399.82,938.356 1403.07,942.949 1406.31,947.522 1409.55,952.076 1412.8,956.609 1416.04,961.122 1419.28,965.614 1422.53,970.084 1425.77,974.532 1429.01,978.958 1432.25,983.361 1435.5,987.741 1438.74,992.096 1441.98,996.428 1445.23,1000.73 1448.47,1005.02 1451.71,1009.27 1454.96,1013.5 1458.2,1017.71 1461.44,1021.88 1464.68,1026.03 1467.93,1030.16 1471.17,1034.25 1474.41,1038.32 1477.66,1042.36 1480.9,1046.36 1484.14,1050.34 1487.39,1054.29 1490.63,1058.21 1493.87,1062.09 1497.11,1065.95 1500.36,1069.78 1503.6,1073.57 1506.84,1077.33 1510.09,1081.05 1513.33,1084.75 1516.57,1088.41 1519.82,1092.04 1523.06,1095.63 1526.3,1099.19 1529.55,1102.71 1532.79,1106.2 1536.03,1109.65 1539.27,1113.07 1542.52,1116.45 1545.76,1119.79 1549,1123.1 1552.25,1126.37 1555.49,1129.6 1558.73,1132.79 1561.98,1135.95 1565.22,1139.06 1568.46,1142.14 1571.7,1145.18 1574.95,1148.18 1578.19,1151.14 1581.43,1154.06 1584.68,1156.94 1587.92,1159.77 1591.16,1162.57 1594.41,1165.33 1597.65,1168.04 1600.89,1170.71 1604.13,1173.34 1607.38,1175.93 1610.62,1178.48 1613.86,1180.98 1617.11,1183.44 1620.35,1185.85 1623.59,1188.23 1626.84,1190.56 1630.08,1192.84 1633.32,1195.08 1636.57,1197.28 1639.81,1199.43 1643.05,1201.53 1646.29,1203.6 1649.54,1205.61 1652.78,1207.58 1656.02,1209.51 1659.27,1211.39 1662.51,1213.22 1665.75,1215 1669,1216.74 1672.24,1218.44 1675.48,1220.08 1678.72,1221.68 1681.97,1223.23 1685.21,1224.74 1688.45,1226.19 1691.7,1227.6 1694.94,1228.97 1698.18,1230.28 1701.43,1231.55 1704.67,1232.76 1707.91,1233.93 1711.15,1235.05 1714.4,1236.13 1717.64,1237.15 1720.88,1238.13 1724.13,1239.05 1727.37,1239.93 1730.61,1240.76 1733.86,1241.54 1737.1,1242.27 1740.34,1242.95 1743.59,1243.58 1746.83,1244.16 1750.07,1244.7 1753.31,1245.18 1756.56,1245.61 1759.8,1246 1763.04,1246.33 1766.29,1246.62 1769.53,1246.85 1772.77,1247.04 1776.02,1247.17 1779.26,1247.26 1782.5,1247.3 1785.74,1247.29 1788.99,1247.22 1792.23,1247.11 1795.47,1246.95 1798.72,1246.74 1801.96,1246.47 1805.2,1246.16 1808.45,1245.8 1811.69,1245.39 1814.93,1244.93 1818.17,1244.42 1821.42,1243.86 1824.66,1243.26 1827.9,1242.6 1831.15,1241.89 1834.39,1241.14 1837.63,1240.33 1840.88,1239.48 1844.12,1238.57 1847.36,1237.62 1850.61,1236.62 1853.85,1235.57 1857.09,1234.47 1860.33,1233.33 1863.58,1232.13 1866.82,1230.89 1870.06,1229.6 1873.31,1228.26 1876.55,1226.87 1879.79,1225.44 1883.04,1223.96 1886.28,1222.43 1889.52,1220.85 1892.76,1219.23 1896.01,1217.56 1899.25,1215.84 1902.49,1214.08 1905.74,1212.27 1908.98,1210.41 1912.22,1208.51 1915.47,1206.56 1918.71,1204.56 1921.95,1202.53 1925.19,1200.44 1928.44,1198.31 1931.68,1196.14 1934.92,1193.92 1938.17,1191.65 1941.41,1189.35 1944.65,1186.99 1947.9,1184.6 1951.14,1182.16 1954.38,1179.68 1957.63,1177.15 1960.87,1174.58 1964.11,1171.97 1967.35,1169.32 1970.6,1166.63 1973.84,1163.89 1977.08,1161.11 1980.33,1158.3 1983.57,1155.44 1986.81,1152.54 1990.06,1149.6 1993.3,1146.62 1996.54,1143.6 1999.78,1140.54 2003.03,1137.44 2006.27,1134.3 2009.51,1131.13 2012.76,1127.91 2016,1124.66 2019.24,1121.37 2022.49,1118.05 2025.73,1114.69 2028.97,1111.29 2032.21,1107.85 2035.46,1104.38 2038.7,1100.87 2041.94,1097.33 2045.19,1093.76 2048.43,1090.15 2051.67,1086.5 2054.92,1082.82 2058.16,1079.11 2061.4,1075.37 2064.65,1071.59 2067.89,1067.78 2071.13,1063.94 2074.37,1060.07 2077.62,1056.17 2080.86,1052.23 2084.1,1048.27 2087.35,1044.27 2090.59,1040.25 2093.83,1036.2 2097.08,1032.12 2100.32,1028.01 2103.56,1023.87 2106.8,1019.71 2110.05,1015.52 2113.29,1011.3 2116.53,1007.05 2119.78,1002.78 2123.02,998.489 2126.26,994.169 2129.51,989.825 2132.75,985.457 2135.99,981.065 2139.23,976.65 2142.48,972.212 2145.72,967.753 2148.96,963.271 2152.21,958.768 2155.45,954.245 2158.69,949.7 2161.94,945.136 2165.18,940.553 2168.42,935.95 2171.67,931.329 2174.91,926.689 2178.15,922.032 2181.39,917.358 2184.64,912.667 2187.88,907.96 2191.12,903.237 2194.37,898.499 2197.61,893.745 2200.85,888.978 2204.1,884.196 2207.34,879.402 2210.58,874.594 2213.82,869.773 2217.07,864.941 2220.31,860.097 2223.55,855.243 2226.8,850.377 2230.04,845.502 2233.28,840.617 2236.53,835.723 2239.77,830.821 2243.01,825.91 2246.25,820.992 2249.5,816.067 2252.74,811.135 2255.98,806.197 2259.23,801.254 2262.47,796.305 2265.71,791.352 2268.96,786.394 2272.2,781.433 2275.44,776.469 2278.69,771.502 2281.93,766.533 2285.17,761.562 2288.41,756.591 2291.66,751.618 "/>
<circle clip-path="url(#clip252)" cx="2129.51" cy="1011.65" r="14.4" fill="#e26f46" fill-rule="evenodd" fill-opacity="1" stroke="#000000" stroke-opacity="1" stroke-width="3.2"/>
<circle clip-path="url(#clip252)" cx="1928.44" cy="1284.46" r="14.4" fill="#e26f46" fill-rule="evenodd" fill-opacity="1" stroke="#000000" stroke-opacity="1" stroke-width="3.2"/>
<circle clip-path="url(#clip252)" cx="1639.81" cy="1298.06" r="14.4" fill="#e26f46" fill-rule="evenodd" fill-opacity="1" stroke="#000000" stroke-opacity="1" stroke-width="3.2"/>
<circle clip-path="url(#clip252)" cx="255.035" cy="648.002" r="14.4" fill="#e26f46" fill-rule="evenodd" fill-opacity="1" stroke="#000000" stroke-opacity="1" stroke-width="3.2"/>
<circle clip-path="url(#clip252)" cx="514.477" cy="406.595" r="14.4" fill="#e26f46" fill-rule="evenodd" fill-opacity="1" stroke="#000000" stroke-opacity="1" stroke-width="3.2"/>
<circle clip-path="url(#clip252)" cx="974.987" cy="240.977" r="14.4" fill="#e26f46" fill-rule="evenodd" fill-opacity="1" stroke="#000000" stroke-opacity="1" stroke-width="3.2"/>
<circle clip-path="url(#clip252)" cx="426.915" cy="377.93" r="14.4" fill="#e26f46" fill-rule="evenodd" fill-opacity="1" stroke="#000000" stroke-opacity="1" stroke-width="3.2"/>
<circle clip-path="url(#clip252)" cx="1555.49" cy="1041.7" r="14.4" fill="#e26f46" fill-rule="evenodd" fill-opacity="1" stroke="#000000" stroke-opacity="1" stroke-width="3.2"/>
<circle clip-path="url(#clip252)" cx="1117.68" cy="479.166" r="14.4" fill="#e26f46" fill-rule="evenodd" fill-opacity="1" stroke="#000000" stroke-opacity="1" stroke-width="3.2"/>
<circle clip-path="url(#clip252)" cx="718.788" cy="343.477" r="14.4" fill="#e26f46" fill-rule="evenodd" fill-opacity="1" stroke="#000000" stroke-opacity="1" stroke-width="3.2"/>
<circle clip-path="url(#clip252)" cx="1227.94" cy="703.546" r="14.4" fill="#e26f46" fill-rule="evenodd" fill-opacity="1" stroke="#000000" stroke-opacity="1" stroke-width="3.2"/>
<circle clip-path="url(#clip252)" cx="1279.83" cy="642.342" r="14.4" fill="#e26f46" fill-rule="evenodd" fill-opacity="1" stroke="#000000" stroke-opacity="1" stroke-width="3.2"/>
<circle clip-path="url(#clip252)" cx="1675.48" cy="1259.02" r="14.4" fill="#e26f46" fill-rule="evenodd" fill-opacity="1" stroke="#000000" stroke-opacity="1" stroke-width="3.2"/>
<circle clip-path="url(#clip252)" cx="1484.14" cy="1079.47" r="14.4" fill="#e26f46" fill-rule="evenodd" fill-opacity="1" stroke="#000000" stroke-opacity="1" stroke-width="3.2"/>
<circle clip-path="url(#clip252)" cx="472.318" cy="327.64" r="14.4" fill="#e26f46" fill-rule="evenodd" fill-opacity="1" stroke="#000000" stroke-opacity="1" stroke-width="3.2"/>
<circle clip-path="url(#clip252)" cx="1120.92" cy="428.781" r="14.4" fill="#e26f46" fill-rule="evenodd" fill-opacity="1" stroke="#000000" stroke-opacity="1" stroke-width="3.2"/>
<circle clip-path="url(#clip252)" cx="1727.37" cy="1242.64" r="14.4" fill="#e26f46" fill-rule="evenodd" fill-opacity="1" stroke="#000000" stroke-opacity="1" stroke-width="3.2"/>
<circle clip-path="url(#clip252)" cx="1571.7" cy="1193.3" r="14.4" fill="#e26f46" fill-rule="evenodd" fill-opacity="1" stroke="#000000" stroke-opacity="1" stroke-width="3.2"/>
<circle clip-path="url(#clip252)" cx="1231.19" cy="700.624" r="14.4" fill="#e26f46" fill-rule="evenodd" fill-opacity="1" stroke="#000000" stroke-opacity="1" stroke-width="3.2"/>
<circle clip-path="url(#clip252)" cx="1886.28" cy="1298.8" r="14.4" fill="#e26f46" fill-rule="evenodd" fill-opacity="1" stroke="#000000" stroke-opacity="1" stroke-width="3.2"/>
<path clip-path="url(#clip252)" d="M255.035 836.498 L258.278 832.181 L261.521 827.927 L264.764 823.732 L268.007 819.588 L271.25 815.489 L274.493 811.431 L277.736 807.406 L280.979 803.41 L284.222 799.435 L287.465 795.477 L290.708 791.529 L293.951 787.586 L297.194 783.643 L300.437 779.696 L303.68 775.739 L306.923 771.769 L310.166 767.781 L313.409 763.771 L316.652 759.737 L319.895 755.676 L323.138 751.584 L326.381 747.46 L329.624 743.303 L332.867 739.109 L336.11 734.88 L339.353 730.613 L342.596 726.309 L345.84 721.969 L349.083 717.592 L352.326 713.181 L355.569 708.736 L358.812 704.26 L362.055 699.755 L365.298 695.224 L368.541 690.671 L371.784 686.099 L375.027 681.514 L378.27 676.919 L381.513 672.321 L384.756 667.725 L387.999 663.139 L391.242 658.569 L394.485 654.022 L397.728 649.508 L400.971 645.034 L404.214 640.611 L407.457 636.249 L410.7 631.957 L413.943 627.748 L417.186 623.632 L420.429 619.621 L423.672 615.729 L426.915 611.969 L430.158 608.351 L433.401 604.879 L436.644 601.554 L439.887 598.379 L443.13 595.356 L446.373 592.488 L449.616 589.777 L452.859 587.228 L456.103 584.844 L459.346 582.63 L462.589 580.589 L465.832 578.728 L469.075 577.05 L472.318 575.562 L475.561 574.267 L478.804 573.159 L482.047 572.232 L485.29 571.479 L488.533 570.893 L491.776 570.467 L495.019 570.195 L498.262 570.072 L501.505 570.091 L504.748 570.248 L507.991 570.538 L511.234 570.956 L514.477 571.498 L517.72 572.158 L520.963 572.926 L524.206 573.788 L527.449 574.733 L530.692 575.75 L533.935 576.827 L537.178 577.954 L540.421 579.121 L543.664 580.318 L546.907 581.536 L550.15 582.767 L553.393 584.002 L556.636 585.235 L559.879 586.457 L563.122 587.663 L566.366 588.847 L569.609 590.002 L572.852 591.125 L576.095 592.209 L579.338 593.252 L582.581 594.248 L585.824 595.196 L589.067 596.091 L592.31 596.93 L595.553 597.713 L598.796 598.436 L602.039 599.098 L605.282 599.698 L608.525 600.235 L611.768 600.709 L615.011 601.118 L618.254 601.463 L621.497 601.745 L624.74 601.964 L627.983 602.121 L631.226 602.217 L634.469 602.254 L637.712 602.234 L640.955 602.159 L644.198 602.031 L647.441 601.854 L650.684 601.63 L653.927 601.362 L657.17 601.056 L660.413 600.713 L663.656 600.34 L666.899 599.94 L670.142 599.518 L673.385 599.08 L676.629 598.63 L679.872 598.175 L683.115 597.721 L686.358 597.274 L689.601 596.84 L692.844 596.426 L696.087 596.038 L699.33 595.684 L702.573 595.371 L705.816 595.105 L709.059 594.895 L712.302 594.747 L715.545 594.668 L718.788 594.666 L722.031 594.745 L725.274 594.901 L728.517 595.127 L731.76 595.418 L735.003 595.766 L738.246 596.166 L741.489 596.609 L744.732 597.091 L747.975 597.604 L751.218 598.142 L754.461 598.7 L757.704 599.271 L760.947 599.85 L764.19 600.431 L767.433 601.009 L770.676 601.58 L773.919 602.137 L777.162 602.678 L780.405 603.197 L783.648 603.691 L786.892 604.155 L790.135 604.587 L793.378 604.983 L796.621 605.339 L799.864 605.654 L803.107 605.925 L806.35 606.149 L809.593 606.324 L812.836 606.449 L816.079 606.521 L819.322 606.54 L822.565 606.505 L825.808 606.413 L829.051 606.265 L832.294 606.06 L835.537 605.798 L838.78 605.478 L842.023 605.101 L845.266 604.667 L848.509 604.177 L851.752 603.63 L854.995 603.028 L858.238 602.373 L861.481 601.664 L864.724 600.905 L867.967 600.096 L871.21 599.24 L874.453 598.338 L877.696 597.393 L880.939 596.407 L884.182 595.384 L887.425 594.326 L890.668 593.237 L893.911 592.119 L897.155 590.977 L900.398 589.814 L903.641 588.635 L906.884 587.445 L910.127 586.247 L913.37 585.047 L916.613 583.849 L919.856 582.66 L923.099 581.486 L926.342 580.331 L929.585 579.203 L932.828 578.108 L936.071 577.053 L939.314 576.045 L942.557 575.092 L945.8 574.2 L949.043 573.379 L952.286 572.635 L955.529 571.978 L958.772 571.417 L962.015 570.959 L965.258 570.614 L968.501 570.391 L971.744 570.299 L974.987 570.347 L978.23 570.542 L981.473 570.878 L984.716 571.348 L987.959 571.943 L991.202 572.656 L994.445 573.479 L997.688 574.404 L1000.93 575.425 L1004.17 576.534 L1007.42 577.725 L1010.66 578.99 L1013.9 580.324 L1017.15 581.722 L1020.39 583.178 L1023.63 584.686 L1026.88 586.243 L1030.12 587.845 L1033.36 589.487 L1036.6 591.168 L1039.85 592.884 L1043.09 594.633 L1046.33 596.413 L1049.58 598.224 L1052.82 600.066 L1056.06 601.938 L1059.31 603.84 L1062.55 605.774 L1065.79 607.743 L1069.04 609.747 L1072.28 611.79 L1075.52 613.876 L1078.76 616.009 L1082.01 618.193 L1085.25 620.434 L1088.49 622.738 L1091.74 625.11 L1094.98 627.559 L1098.22 630.091 L1101.47 632.715 L1104.71 635.438 L1107.95 638.271 L1111.19 641.22 L1114.44 644.297 L1117.68 647.509 L1120.92 650.866 L1124.17 654.366 L1127.41 658.001 L1130.65 661.759 L1133.9 665.629 L1137.14 669.6 L1140.38 673.661 L1143.62 677.801 L1146.87 682.012 L1150.11 686.284 L1153.35 690.607 L1156.6 694.975 L1159.84 699.38 L1163.08 703.816 L1166.33 708.277 L1169.57 712.758 L1172.81 717.255 L1176.06 721.766 L1179.3 726.288 L1182.54 730.821 L1185.78 735.363 L1189.03 739.916 L1192.27 744.482 L1195.51 749.062 L1198.76 753.661 L1202 758.282 L1205.24 762.931 L1208.49 767.613 L1211.73 772.335 L1214.97 777.103 L1218.21 781.926 L1221.46 786.812 L1224.7 791.769 L1227.94 796.805 L1231.19 801.927 L1234.43 807.141 L1237.67 812.443 L1240.92 817.832 L1244.16 823.307 L1247.4 828.864 L1250.64 834.503 L1253.89 840.221 L1257.13 846.017 L1260.37 851.891 L1263.62 857.842 L1266.86 863.869 L1270.1 869.972 L1273.35 876.153 L1276.59 882.412 L1279.83 888.749 L1283.08 895.164 L1286.32 901.648 L1289.56 908.19 L1292.8 914.779 L1296.05 921.405 L1299.29 928.057 L1302.53 934.727 L1305.78 941.406 L1309.02 948.084 L1312.26 954.753 L1315.51 961.407 L1318.75 968.037 L1321.99 974.637 L1325.23 981.201 L1328.48 987.722 L1331.72 994.195 L1334.96 1000.62 L1338.21 1006.98 L1341.45 1013.28 L1344.69 1019.51 L1347.94 1025.67 L1351.18 1031.76 L1354.42 1037.77 L1357.66 1043.7 L1360.91 1049.55 L1364.15 1055.31 L1367.39 1060.98 L1370.64 1066.57 L1373.88 1072.06 L1377.12 1077.46 L1380.37 1082.77 L1383.61 1087.98 L1386.85 1093.09 L1390.1 1098.11 L1393.34 1103.03 L1396.58 1107.86 L1399.82 1112.58 L1403.07 1117.21 L1406.31 1121.74 L1409.55 1126.18 L1412.8 1130.52 L1416.04 1134.77 L1419.28 1138.92 L1422.53 1142.98 L1425.77 1146.96 L1429.01 1150.84 L1432.25 1154.64 L1435.5 1158.36 L1438.74 1161.99 L1441.98 1165.55 L1445.23 1169.03 L1448.47 1172.45 L1451.71 1175.79 L1454.96 1179.08 L1458.2 1182.3 L1461.44 1185.47 L1464.68 1188.59 L1467.93 1191.67 L1471.17 1194.71 L1474.41 1197.71 L1477.66 1200.69 L1480.9 1203.64 L1484.14 1206.58 L1487.39 1209.51 L1490.63 1212.42 L1493.87 1215.33 L1497.11 1218.22 L1500.36 1221.11 L1503.6 1223.98 L1506.84 1226.84 L1510.09 1229.69 L1513.33 1232.54 L1516.57 1235.38 L1519.82 1238.21 L1523.06 1241.04 L1526.3 1243.87 L1529.55 1246.7 L1532.79 1249.55 L1536.03 1252.4 L1539.27 1255.28 L1542.52 1258.17 L1545.76 1261.1 L1549 1264.06 L1552.25 1267.06 L1555.49 1270.11 L1558.73 1273.22 L1561.98 1276.37 L1565.22 1279.57 L1568.46 1282.82 L1571.7 1286.1 L1574.95 1289.41 L1578.19 1292.74 L1581.43 1296.09 L1584.68 1299.45 L1587.92 1302.81 L1591.16 1306.15 L1594.41 1309.48 L1597.65 1312.79 L1600.89 1316.07 L1604.13 1319.32 L1607.38 1322.53 L1610.62 1325.69 L1613.86 1328.82 L1617.11 1331.9 L1620.35 1334.93 L1623.59 1337.91 L1626.84 1340.85 L1630.08 1343.74 L1633.32 1346.58 L1636.57 1349.38 L1639.81 1352.14 L1643.05 1354.86 L1646.29 1357.55 L1649.54 1360.19 L1652.78 1362.8 L1656.02 1365.37 L1659.27 1367.91 L1662.51 1370.42 L1665.75 1372.9 L1669 1375.35 L1672.24 1377.78 L1675.48 1380.19 L1678.72 1382.58 L1681.97 1384.95 L1685.21 1387.31 L1688.45 1389.64 L1691.7 1391.94 L1694.94 1394.23 L1698.18 1396.48 L1701.43 1398.7 L1704.67 1400.9 L1707.91 1403.07 L1711.15 1405.22 L1714.4 1407.33 L1717.64 1409.43 L1720.88 1411.49 L1724.13 1413.54 L1727.37 1415.56 L1730.61 1417.57 L1733.86 1419.55 L1737.1 1421.5 L1740.34 1423.4 L1743.59 1425.26 L1746.83 1427.07 L1750.07 1428.83 L1753.31 1430.51 L1756.56 1432.13 L1759.8 1433.68 L1763.04 1435.15 L1766.29 1436.53 L1769.53 1437.83 L1772.77 1439.04 L1776.02 1440.16 L1779.26 1441.18 L1782.5 1442.1 L1785.74 1442.92 L1788.99 1443.63 L1792.23 1444.25 L1795.47 1444.75 L1798.72 1445.15 L1801.96 1445.45 L1805.2 1445.64 L1808.45 1445.72 L1811.69 1445.69 L1814.93 1445.56 L1818.17 1445.32 L1821.42 1444.98 L1824.66 1444.54 L1827.9 1444 L1831.15 1443.36 L1834.39 1442.63 L1837.63 1441.81 L1840.88 1440.91 L1844.12 1439.92 L1847.36 1438.85 L1850.61 1437.71 L1853.85 1436.51 L1857.09 1435.24 L1860.33 1433.91 L1863.58 1432.54 L1866.82 1431.12 L1870.06 1429.67 L1873.31 1428.18 L1876.55 1426.68 L1879.79 1425.16 L1883.04 1423.64 L1886.28 1422.12 L1889.52 1420.6 L1892.76 1419.1 L1896.01 1417.61 L1899.25 1416.13 L1902.49 1414.67 L1905.74 1413.21 L1908.98 1411.78 L1912.22 1410.36 L1915.47 1408.96 L1918.71 1407.57 L1921.95 1406.2 L1925.19 1404.85 L1928.44 1403.53 L1931.68 1402.22 L1934.92 1400.92 L1938.17 1399.63 L1941.41 1398.34 L1944.65 1397.05 L1947.9 1395.75 L1951.14 1394.43 L1954.38 1393.09 L1957.63 1391.73 L1960.87 1390.33 L1964.11 1388.9 L1967.35 1387.43 L1970.6 1385.91 L1973.84 1384.35 L1977.08 1382.73 L1980.33 1381.07 L1983.57 1379.34 L1986.81 1377.56 L1990.06 1375.72 L1993.3 1373.82 L1996.54 1371.86 L1999.78 1369.84 L2003.03 1367.75 L2006.27 1365.6 L2009.51 1363.38 L2012.76 1361.1 L2016 1358.76 L2019.24 1356.36 L2022.49 1353.91 L2025.73 1351.39 L2028.97 1348.82 L2032.21 1346.19 L2035.46 1343.52 L2038.7 1340.8 L2041.94 1338.03 L2045.19 1335.22 L2048.43 1332.38 L2051.67 1329.5 L2054.92 1326.6 L2058.16 1323.67 L2061.4 1320.72 L2064.65 1317.76 L2067.89 1314.8 L2071.13 1311.83 L2074.37 1308.86 L2077.62 1305.91 L2080.86 1302.98 L2084.1 1300.07 L2087.35 1297.2 L2090.59 1294.36 L2093.83 1291.58 L2097.08 1288.85 L2100.32 1286.18 L2103.56 1283.59 L2106.8 1281.08 L2110.05 1278.67 L2113.29 1276.35 L2116.53 1274.14 L2119.78 1272.04 L2123.02 1270.08 L2126.26 1268.24 L2129.51 1266.55 L2132.75 1265.01 L2135.99 1263.61 L2139.23 1262.35 L2142.48 1261.23 L2145.72 1260.23 L2148.96 1259.35 L2152.21 1258.59 L2155.45 1257.94 L2158.69 1257.4 L2161.94 1256.95 L2165.18 1256.59 L2168.42 1256.32 L2171.67 1256.13 L2174.91 1256.01 L2178.15 1255.96 L2181.39 1255.98 L2184.64 1256.06 L2187.88 1256.2 L2191.12 1256.39 L2194.37 1256.62 L2197.61 1256.9 L2200.85 1257.21 L2204.1 1257.56 L2207.34 1257.95 L2210.58 1258.36 L2213.82 1258.8 L2217.07 1259.26 L2220.31 1259.74 L2223.55 1260.24 L2226.8 1260.76 L2230.04 1261.29 L2233.28 1261.83 L2236.53 1262.38 L2239.77 1262.93 L2243.01 1263.49 L2246.25 1264.06 L2249.5 1264.62 L2252.74 1265.19 L2255.98 1265.76 L2259.23 1266.32 L2262.47 1266.89 L2265.71 1267.45 L2268.96 1268 L2272.2 1268.55 L2275.44 1269.09 L2278.69 1269.62 L2281.93 1270.15 L2285.17 1270.67 L2288.41 1271.18 L2291.66 1271.68 L2291.66 528.241 L2288.41 532.531 L2285.17 536.872 L2281.93 541.263 L2278.69 545.704 L2275.44 550.195 L2272.2 554.735 L2268.96 559.323 L2265.71 563.96 L2262.47 568.645 L2259.23 573.377 L2255.98 578.154 L2252.74 582.977 L2249.5 587.844 L2246.25 592.754 L2243.01 597.706 L2239.77 602.699 L2236.53 607.731 L2233.28 612.8 L2230.04 617.906 L2226.8 623.046 L2223.55 628.218 L2220.31 633.421 L2217.07 638.652 L2213.82 643.908 L2210.58 649.187 L2207.34 654.487 L2204.1 659.804 L2200.85 665.135 L2197.61 670.477 L2194.37 675.827 L2191.12 681.18 L2187.88 686.533 L2184.64 691.882 L2181.39 697.223 L2178.15 702.55 L2174.91 707.859 L2171.67 713.145 L2168.42 718.403 L2165.18 723.628 L2161.94 728.814 L2158.69 733.955 L2155.45 739.046 L2152.21 744.08 L2148.96 749.052 L2145.72 753.955 L2142.48 758.783 L2139.23 763.53 L2135.99 768.19 L2132.75 772.757 L2129.51 777.225 L2126.26 781.59 L2123.02 785.858 L2119.78 790.034 L2116.53 794.127 L2113.29 798.144 L2110.05 802.091 L2106.8 805.977 L2103.56 809.809 L2100.32 813.593 L2097.08 817.338 L2093.83 821.049 L2090.59 824.733 L2087.35 828.398 L2084.1 832.049 L2080.86 835.693 L2077.62 839.334 L2074.37 842.979 L2071.13 846.631 L2067.89 850.297 L2064.65 853.98 L2061.4 857.685 L2058.16 861.415 L2054.92 865.173 L2051.67 868.962 L2048.43 872.785 L2045.19 876.644 L2041.94 880.54 L2038.7 884.476 L2035.46 888.453 L2032.21 892.47 L2028.97 896.529 L2025.73 900.63 L2022.49 904.772 L2019.24 908.953 L2016 913.175 L2012.76 917.433 L2009.51 921.728 L2006.27 926.056 L2003.03 930.415 L1999.78 934.801 L1996.54 939.212 L1993.3 943.642 L1990.06 948.089 L1986.81 952.547 L1983.57 957.011 L1980.33 961.475 L1977.08 965.933 L1973.84 970.378 L1970.6 974.804 L1967.35 979.203 L1964.11 983.567 L1960.87 987.887 L1957.63 992.155 L1954.38 996.361 L1951.14 1000.5 L1947.9 1004.55 L1944.65 1008.51 L1941.41 1012.36 L1938.17 1016.1 L1934.92 1019.72 L1931.68 1023.19 L1928.44 1026.52 L1925.19 1029.68 L1921.95 1032.68 L1918.71 1035.52 L1915.47 1038.2 L1912.22 1040.72 L1908.98 1043.09 L1905.74 1045.29 L1902.49 1047.34 L1899.25 1049.24 L1896.01 1050.98 L1892.76 1052.56 L1889.52 1053.99 L1886.28 1055.26 L1883.04 1056.38 L1879.79 1057.35 L1876.55 1058.2 L1873.31 1058.92 L1870.06 1059.55 L1866.82 1060.07 L1863.58 1060.51 L1860.33 1060.88 L1857.09 1061.19 L1853.85 1061.44 L1850.61 1061.65 L1847.36 1061.83 L1844.12 1061.98 L1840.88 1062.11 L1837.63 1062.23 L1834.39 1062.35 L1831.15 1062.47 L1827.9 1062.6 L1824.66 1062.74 L1821.42 1062.89 L1818.17 1063.07 L1814.93 1063.27 L1811.69 1063.5 L1808.45 1063.76 L1805.2 1064.06 L1801.96 1064.39 L1798.72 1064.75 L1795.47 1065.16 L1792.23 1065.6 L1788.99 1066.07 L1785.74 1066.58 L1782.5 1067.13 L1779.26 1067.71 L1776.02 1068.32 L1772.77 1068.96 L1769.53 1069.63 L1766.29 1070.32 L1763.04 1071.03 L1759.8 1071.75 L1756.56 1072.48 L1753.31 1073.22 L1750.07 1073.95 L1746.83 1074.67 L1743.59 1075.38 L1740.34 1076.07 L1737.1 1076.73 L1733.86 1077.35 L1730.61 1077.92 L1727.37 1078.44 L1724.13 1078.89 L1720.88 1079.28 L1717.64 1079.61 L1714.4 1079.87 L1711.15 1080.06 L1707.91 1080.18 L1704.67 1080.22 L1701.43 1080.19 L1698.18 1080.09 L1694.94 1079.89 L1691.7 1079.61 L1688.45 1079.24 L1685.21 1078.77 L1681.97 1078.19 L1678.72 1077.5 L1675.48 1076.7 L1672.24 1075.77 L1669 1074.72 L1665.75 1073.54 L1662.51 1072.24 L1659.27 1070.82 L1656.02 1069.29 L1652.78 1067.63 L1649.54 1065.84 L1646.29 1063.93 L1643.05 1061.9 L1639.81 1059.74 L1636.57 1057.44 L1633.32 1055.02 L1630.08 1052.49 L1626.84 1049.84 L1623.59 1047.09 L1620.35 1044.25 L1617.11 1041.31 L1613.86 1038.28 L1610.62 1035.17 L1607.38 1031.98 L1604.13 1028.71 L1600.89 1025.36 L1597.65 1021.93 L1594.41 1018.41 L1591.16 1014.82 L1587.92 1011.13 L1584.68 1007.36 L1581.43 1003.49 L1578.19 999.527 L1574.95 995.457 L1571.7 991.276 L1568.46 986.98 L1565.22 982.572 L1561.98 978.054 L1558.73 973.432 L1555.49 968.708 L1552.25 963.885 L1549 958.97 L1545.76 953.97 L1542.52 948.891 L1539.27 943.737 L1536.03 938.515 L1532.79 933.229 L1529.55 927.884 L1526.3 922.483 L1523.06 917.028 L1519.82 911.523 L1516.57 905.969 L1513.33 900.367 L1510.09 894.719 L1506.84 889.023 L1503.6 883.281 L1500.36 877.491 L1497.11 871.652 L1493.87 865.762 L1490.63 859.82 L1487.39 853.822 L1484.14 847.768 L1480.9 841.655 L1477.66 835.492 L1474.41 829.288 L1471.17 823.05 L1467.93 816.789 L1464.68 810.512 L1461.44 804.227 L1458.2 797.943 L1454.96 791.666 L1451.71 785.403 L1448.47 779.162 L1445.23 772.949 L1441.98 766.77 L1438.74 760.63 L1435.5 754.536 L1432.25 748.491 L1429.01 742.502 L1425.77 736.573 L1422.53 730.707 L1419.28 724.909 L1416.04 719.182 L1412.8 713.53 L1409.55 707.955 L1406.31 702.462 L1403.07 697.051 L1399.82 691.727 L1396.58 686.489 L1393.34 681.342 L1390.1 676.285 L1386.85 671.321 L1383.61 666.451 L1380.37 661.675 L1377.12 656.994 L1373.88 652.409 L1370.64 647.92 L1367.39 643.526 L1364.15 639.228 L1360.91 635.025 L1357.66 630.916 L1354.42 626.9 L1351.18 622.975 L1347.94 619.141 L1344.69 615.395 L1341.45 611.735 L1338.21 608.159 L1334.96 604.664 L1331.72 601.246 L1328.48 597.902 L1325.23 594.628 L1321.99 591.421 L1318.75 588.275 L1315.51 585.186 L1312.26 582.148 L1309.02 579.155 L1305.78 576.201 L1302.53 573.279 L1299.29 570.382 L1296.05 567.504 L1292.8 564.635 L1289.56 561.767 L1286.32 558.892 L1283.08 556 L1279.83 553.082 L1276.59 550.129 L1273.35 547.136 L1270.1 544.096 L1266.86 541.004 L1263.62 537.853 L1260.37 534.639 L1257.13 531.353 L1253.89 527.99 L1250.64 524.541 L1247.4 520.999 L1244.16 517.357 L1240.92 513.605 L1237.67 509.736 L1234.43 505.741 L1231.19 501.612 L1227.94 497.342 L1224.7 492.933 L1221.46 488.396 L1218.21 483.745 L1214.97 478.992 L1211.73 474.15 L1208.49 469.231 L1205.24 464.247 L1202 459.208 L1198.76 454.125 L1195.51 449.008 L1192.27 443.865 L1189.03 438.705 L1185.78 433.534 L1182.54 428.359 L1179.3 423.185 L1176.06 418.017 L1172.81 412.859 L1169.57 407.713 L1166.33 402.58 L1163.08 397.463 L1159.84 392.361 L1156.6 387.274 L1153.35 382.201 L1150.11 377.139 L1146.87 372.086 L1143.62 367.038 L1140.38 361.992 L1137.14 356.943 L1133.9 351.887 L1130.65 346.819 L1127.41 341.733 L1124.17 336.623 L1120.92 331.486 L1117.68 326.315 L1114.44 321.113 L1111.19 315.885 L1107.95 310.64 L1104.71 305.387 L1101.47 300.134 L1098.22 294.889 L1094.98 289.66 L1091.74 284.456 L1088.49 279.282 L1085.25 274.146 L1082.01 269.055 L1078.76 264.015 L1075.52 259.03 L1072.28 254.107 L1069.04 249.251 L1065.79 244.464 L1062.55 239.752 L1059.31 235.116 L1056.06 230.561 L1052.82 226.088 L1049.58 221.699 L1046.33 217.397 L1043.09 213.181 L1039.85 209.052 L1036.6 205.011 L1033.36 201.058 L1030.12 197.192 L1026.88 193.413 L1023.63 189.718 L1020.39 186.107 L1017.15 182.578 L1013.9 179.128 L1010.66 175.756 L1007.42 172.459 L1004.17 169.233 L1000.93 166.077 L997.688 162.986 L994.445 159.957 L991.202 156.987 L987.959 154.073 L984.716 151.212 L981.473 148.398 L978.23 145.63 L974.987 142.905 L971.744 140.219 L968.501 137.574 L965.258 134.973 L962.015 132.419 L958.772 129.914 L955.529 127.461 L952.286 125.062 L949.043 122.72 L945.8 120.439 L942.557 118.22 L939.314 116.066 L936.071 113.979 L932.828 111.963 L929.585 110.018 L926.342 108.147 L923.099 106.351 L919.856 104.634 L916.613 102.995 L913.37 101.437 L910.127 99.9606 L906.884 98.5672 L903.641 97.2579 L900.398 96.0334 L897.155 94.8946 L893.911 93.8419 L890.668 92.8759 L887.425 91.9968 L884.182 91.205 L880.939 90.5005 L877.696 89.8832 L874.453 89.3529 L871.21 88.9095 L867.967 88.5524 L864.724 88.2813 L861.481 88.0954 L858.238 87.994 L854.995 87.9763 L851.752 88.0413 L848.509 88.1878 L845.266 88.4149 L842.023 88.721 L838.78 89.1048 L835.537 89.5648 L832.294 90.0993 L829.051 90.7065 L825.808 91.3845 L822.565 92.1312 L819.322 92.9446 L816.079 93.8223 L812.836 94.7619 L809.593 95.7608 L806.35 96.8163 L803.107 97.9254 L799.864 99.0853 L796.621 100.293 L793.378 101.544 L790.135 102.836 L786.892 104.165 L783.648 105.528 L780.405 106.919 L777.162 108.335 L773.919 109.772 L770.676 111.224 L767.433 112.688 L764.19 114.158 L760.947 115.629 L757.704 117.096 L754.461 118.554 L751.218 119.996 L747.975 121.418 L744.732 122.813 L741.489 124.176 L738.246 125.5 L735.003 126.78 L731.76 128.01 L728.517 129.183 L725.274 130.294 L722.031 131.337 L718.788 132.306 L715.545 133.198 L712.302 134.016 L709.059 134.767 L705.816 135.457 L702.573 136.092 L699.33 136.679 L696.087 137.223 L692.844 137.732 L689.601 138.211 L686.358 138.667 L683.115 139.106 L679.872 139.534 L676.629 139.957 L673.385 140.38 L670.142 140.809 L666.899 141.249 L663.656 141.706 L660.413 142.183 L657.17 142.687 L653.927 143.22 L650.684 143.788 L647.441 144.393 L644.198 145.041 L640.955 145.734 L637.712 146.476 L634.469 147.269 L631.226 148.117 L627.983 149.021 L624.74 149.984 L621.497 151.009 L618.254 152.096 L615.011 153.247 L611.768 154.465 L608.525 155.748 L605.282 157.1 L602.039 158.519 L598.796 160.007 L595.553 161.563 L592.31 163.187 L589.067 164.879 L585.824 166.638 L582.581 168.462 L579.338 170.351 L576.095 172.303 L572.852 174.315 L569.609 176.385 L566.366 178.511 L563.122 180.689 L559.879 182.916 L556.636 185.189 L553.393 187.502 L550.15 189.852 L546.907 192.233 L543.664 194.64 L540.421 197.067 L537.178 199.507 L533.935 201.955 L530.692 204.401 L527.449 206.84 L524.206 209.263 L520.963 211.662 L517.72 214.027 L514.477 216.352 L511.234 218.627 L507.991 220.852 L504.748 223.028 L501.505 225.155 L498.262 227.234 L495.019 229.265 L491.776 231.247 L488.533 233.181 L485.29 235.066 L482.047 236.902 L478.804 238.688 L475.561 240.422 L472.318 242.105 L469.075 243.736 L465.832 245.317 L462.589 246.854 L459.346 248.348 L456.103 249.804 L452.859 251.225 L449.616 252.614 L446.373 253.974 L443.13 255.307 L439.887 256.617 L436.644 257.904 L433.401 259.172 L430.158 260.42 L426.915 261.652 L423.672 262.87 L420.429 264.079 L417.186 265.286 L413.943 266.499 L410.7 267.724 L407.457 268.967 L404.214 270.234 L400.971 271.529 L397.728 272.858 L394.485 274.225 L391.242 275.633 L387.999 277.087 L384.756 278.588 L381.513 280.14 L378.27 281.743 L375.027 283.401 L371.784 285.113 L368.541 286.88 L365.298 288.703 L362.055 290.58 L358.812 292.512 L355.569 294.497 L352.326 296.533 L349.083 298.618 L345.84 300.751 L342.596 302.928 L339.353 305.146 L336.11 307.401 L332.867 309.69 L329.624 312.009 L326.381 314.352 L323.138 316.714 L319.895 319.091 L316.652 321.476 L313.409 323.863 L310.166 326.245 L306.923 328.617 L303.68 330.97 L300.437 333.297 L297.194 335.591 L293.951 337.843 L290.708 340.044 L287.465 342.187 L284.222 344.262 L280.979 346.26 L277.736 348.172 L274.493 349.989 L271.25 351.701 L268.007 353.298 L264.764 354.771 L261.521 356.111 L258.278 357.307 L255.035 358.352  Z" fill="#3da44d" fill-rule="evenodd" fill-opacity="0.1"/>
<polyline clip-path="url(#clip252)" style="stroke:#3da44d; stroke-linecap:round; stroke-linejoin:round; stroke-width:8; stroke-opacity:1; fill:none" points="255.035,597.425 258.278,594.744 261.521,592.019 264.764,589.251 268.007,586.443 271.25,583.595 274.493,580.71 277.736,577.789 280.979,574.835 284.222,571.848 287.465,568.832 290.708,565.786 293.951,562.714 297.194,559.617 300.437,556.497 303.68,553.355 306.923,550.193 310.166,547.013 313.409,543.817 316.652,540.607 319.895,537.383 323.138,534.149 326.381,530.906 329.624,527.656 332.867,524.4 336.11,521.14 339.353,517.879 342.596,514.619 345.84,511.36 349.083,508.105 352.326,504.857 355.569,501.616 358.812,498.386 362.055,495.168 365.298,491.963 368.541,488.776 371.784,485.606 375.027,482.457 378.27,479.331 381.513,476.23 384.756,473.157 387.999,470.113 391.242,467.101 394.485,464.123 397.728,461.183 400.971,458.282 404.214,455.423 407.457,452.608 410.7,449.841 413.943,447.124 417.186,444.459 420.429,441.85 423.672,439.3 426.915,436.811 430.158,434.386 433.401,432.025 436.644,429.729 439.887,427.498 443.13,425.332 446.373,423.231 449.616,421.196 452.859,419.227 456.103,417.324 459.346,415.489 462.589,413.721 465.832,412.022 469.075,410.393 472.318,408.834 475.561,407.345 478.804,405.924 482.047,404.567 485.29,403.273 488.533,402.037 491.776,400.857 495.019,399.73 498.262,398.653 501.505,397.623 504.748,396.638 507.991,395.695 511.234,394.792 514.477,393.925 517.72,393.093 520.963,392.294 524.206,391.525 527.449,390.787 530.692,390.076 533.935,389.391 537.178,388.731 540.421,388.094 543.664,387.479 546.907,386.885 550.15,386.31 553.393,385.752 556.636,385.212 559.879,384.687 563.122,384.176 566.366,383.679 569.609,383.194 572.852,382.72 576.095,382.256 579.338,381.802 582.581,381.355 585.824,380.917 589.067,380.485 592.31,380.059 595.553,379.638 598.796,379.221 602.039,378.809 605.282,378.399 608.525,377.992 611.768,377.587 615.011,377.183 618.254,376.78 621.497,376.377 624.74,375.974 627.983,375.571 631.226,375.167 634.469,374.762 637.712,374.355 640.955,373.947 644.198,373.536 647.441,373.124 650.684,372.709 653.927,372.291 657.17,371.871 660.413,371.448 663.656,371.023 666.899,370.595 670.142,370.164 673.385,369.73 676.629,369.294 679.872,368.855 683.115,368.414 686.358,367.971 689.601,367.526 692.844,367.079 696.087,366.631 699.33,366.182 702.573,365.732 705.816,365.281 709.059,364.831 712.302,364.382 715.545,363.933 718.788,363.486 722.031,363.041 725.274,362.597 728.517,362.155 731.76,361.714 735.003,361.273 738.246,360.833 741.489,360.393 744.732,359.952 747.975,359.511 751.218,359.069 754.461,358.627 757.704,358.184 760.947,357.739 764.19,357.295 767.433,356.849 770.676,356.402 773.919,355.955 777.162,355.507 780.405,355.058 783.648,354.609 786.892,354.16 790.135,353.712 793.378,353.263 796.621,352.816 799.864,352.37 803.107,351.925 806.35,351.483 809.593,351.042 812.836,350.605 816.079,350.172 819.322,349.742 822.565,349.318 825.808,348.899 829.051,348.486 832.294,348.08 835.537,347.681 838.78,347.292 842.023,346.911 845.266,346.541 848.509,346.182 851.752,345.836 854.995,345.502 858.238,345.183 861.481,344.88 864.724,344.593 867.967,344.324 871.21,344.075 874.453,343.845 877.696,343.638 880.939,343.454 884.182,343.295 887.425,343.161 890.668,343.056 893.911,342.98 897.155,342.936 900.398,342.924 903.641,342.947 906.884,343.006 910.127,343.104 913.37,343.242 916.613,343.422 919.856,343.647 923.099,343.919 926.342,344.239 929.585,344.611 932.828,345.035 936.071,345.516 939.314,346.056 942.557,346.656 945.8,347.319 949.043,348.049 952.286,348.849 955.529,349.72 958.772,350.665 962.015,351.689 965.258,352.794 968.501,353.983 971.744,355.259 974.987,356.626 978.23,358.086 981.473,359.638 984.716,361.28 987.959,363.008 991.202,364.822 994.445,366.718 997.688,368.695 1000.93,370.751 1004.17,372.884 1007.42,375.092 1010.66,377.373 1013.9,379.726 1017.15,382.15 1020.39,384.642 1023.63,387.202 1026.88,389.828 1030.12,392.519 1033.36,395.273 1036.6,398.09 1039.85,400.968 1043.09,403.907 1046.33,406.905 1049.58,409.962 1052.82,413.077 1056.06,416.249 1059.31,419.478 1062.55,422.763 1065.79,426.103 1069.04,429.499 1072.28,432.949 1075.52,436.453 1078.76,440.012 1082.01,443.624 1085.25,447.29 1088.49,451.01 1091.74,454.783 1094.98,458.61 1098.22,462.49 1101.47,466.424 1104.71,470.413 1107.95,474.455 1111.19,478.553 1114.44,482.705 1117.68,486.912 1120.92,491.176 1124.17,495.495 1127.41,499.867 1130.65,504.289 1133.9,508.758 1137.14,513.271 1140.38,517.826 1143.62,522.42 1146.87,527.049 1150.11,531.711 1153.35,536.404 1156.6,541.125 1159.84,545.871 1163.08,550.639 1166.33,555.428 1169.57,560.235 1172.81,565.057 1176.06,569.892 1179.3,574.737 1182.54,579.59 1185.78,584.449 1189.03,589.311 1192.27,594.174 1195.51,599.035 1198.76,603.893 1202,608.745 1205.24,613.589 1208.49,618.422 1211.73,623.243 1214.97,628.048 1218.21,632.836 1221.46,637.604 1224.7,642.351 1227.94,647.073 1231.19,651.77 1234.43,656.441 1237.67,661.089 1240.92,665.719 1244.16,670.332 1247.4,674.932 1250.64,679.522 1253.89,684.105 1257.13,688.685 1260.37,693.265 1263.62,697.848 1266.86,702.436 1270.1,707.034 1273.35,711.644 1276.59,716.271 1279.83,720.916 1283.08,725.582 1286.32,730.27 1289.56,734.979 1292.8,739.707 1296.05,744.454 1299.29,749.22 1302.53,754.003 1305.78,758.803 1309.02,763.619 1312.26,768.45 1315.51,773.296 1318.75,778.156 1321.99,783.029 1325.23,787.915 1328.48,792.812 1331.72,797.721 1334.96,802.64 1338.21,807.568 1341.45,812.506 1344.69,817.453 1347.94,822.407 1351.18,827.368 1354.42,832.335 1357.66,837.308 1360.91,842.287 1364.15,847.269 1367.39,852.255 1370.64,857.244 1373.88,862.235 1377.12,867.228 1380.37,872.221 1383.61,877.215 1386.85,882.207 1390.1,887.198 1393.34,892.187 1396.58,897.172 1399.82,902.154 1403.07,907.131 1406.31,912.102 1409.55,917.067 1412.8,922.025 1416.04,926.974 1419.28,931.915 1422.53,936.845 1425.77,941.764 1429.01,946.672 1432.25,951.566 1435.5,956.446 1438.74,961.311 1441.98,966.16 1445.23,970.992 1448.47,975.805 1451.71,980.599 1454.96,985.372 1458.2,990.122 1461.44,994.85 1464.68,999.553 1467.93,1004.23 1471.17,1008.88 1474.41,1013.5 1477.66,1018.09 1480.9,1022.65 1484.14,1027.17 1487.39,1031.66 1490.63,1036.12 1493.87,1040.55 1497.11,1044.94 1500.36,1049.3 1503.6,1053.63 1506.84,1057.93 1510.09,1062.21 1513.33,1066.45 1516.57,1070.67 1519.82,1074.87 1523.06,1079.03 1526.3,1083.18 1529.55,1087.29 1532.79,1091.39 1536.03,1095.46 1539.27,1099.51 1542.52,1103.53 1545.76,1107.53 1549,1111.51 1552.25,1115.47 1555.49,1119.41 1558.73,1123.32 1561.98,1127.21 1565.22,1131.07 1568.46,1134.9 1571.7,1138.69 1574.95,1142.43 1578.19,1146.14 1581.43,1149.79 1584.68,1153.41 1587.92,1156.97 1591.16,1160.49 1594.41,1163.95 1597.65,1167.36 1600.89,1170.72 1604.13,1174.01 1607.38,1177.25 1610.62,1180.43 1613.86,1183.55 1617.11,1186.6 1620.35,1189.59 1623.59,1192.5 1626.84,1195.34 1630.08,1198.11 1633.32,1200.8 1636.57,1203.41 1639.81,1205.94 1643.05,1208.38 1646.29,1210.74 1649.54,1213.02 1652.78,1215.21 1656.02,1217.33 1659.27,1219.37 1662.51,1221.33 1665.75,1223.22 1669,1225.03 1672.24,1226.77 1675.48,1228.44 1678.72,1230.04 1681.97,1231.57 1685.21,1233.04 1688.45,1234.44 1691.7,1235.78 1694.94,1237.06 1698.18,1238.28 1701.43,1239.45 1704.67,1240.56 1707.91,1241.63 1711.15,1242.64 1714.4,1243.6 1717.64,1244.52 1720.88,1245.39 1724.13,1246.22 1727.37,1247 1730.61,1247.74 1733.86,1248.45 1737.1,1249.11 1740.34,1249.74 1743.59,1250.32 1746.83,1250.87 1750.07,1251.39 1753.31,1251.86 1756.56,1252.31 1759.8,1252.71 1763.04,1253.09 1766.29,1253.43 1769.53,1253.73 1772.77,1254 1776.02,1254.24 1779.26,1254.44 1782.5,1254.61 1785.74,1254.75 1788.99,1254.85 1792.23,1254.92 1795.47,1254.96 1798.72,1254.95 1801.96,1254.92 1805.2,1254.85 1808.45,1254.74 1811.69,1254.6 1814.93,1254.41 1818.17,1254.19 1821.42,1253.94 1824.66,1253.64 1827.9,1253.3 1831.15,1252.92 1834.39,1252.49 1837.63,1252.02 1840.88,1251.51 1844.12,1250.95 1847.36,1250.34 1850.61,1249.68 1853.85,1248.97 1857.09,1248.21 1860.33,1247.4 1863.58,1246.53 1866.82,1245.6 1870.06,1244.61 1873.31,1243.55 1876.55,1242.44 1879.79,1241.26 1883.04,1240.01 1886.28,1238.69 1889.52,1237.29 1892.76,1235.83 1896.01,1234.29 1899.25,1232.68 1902.49,1231 1905.74,1229.25 1908.98,1227.43 1912.22,1225.54 1915.47,1223.58 1918.71,1221.54 1921.95,1219.44 1925.19,1217.27 1928.44,1215.02 1931.68,1212.7 1934.92,1210.32 1938.17,1207.87 1941.41,1205.35 1944.65,1202.78 1947.9,1200.15 1951.14,1197.46 1954.38,1194.73 1957.63,1191.94 1960.87,1189.11 1964.11,1186.23 1967.35,1183.31 1970.6,1180.36 1973.84,1177.36 1977.08,1174.33 1980.33,1171.27 1983.57,1168.18 1986.81,1165.06 1990.06,1161.91 1993.3,1158.73 1996.54,1155.54 1999.78,1152.32 2003.03,1149.08 2006.27,1145.83 2009.51,1142.55 2012.76,1139.27 2016,1135.97 2019.24,1132.66 2022.49,1129.34 2025.73,1126.01 2028.97,1122.67 2032.21,1119.33 2035.46,1115.99 2038.7,1112.64 2041.94,1109.28 2045.19,1105.93 2048.43,1102.58 2051.67,1099.23 2054.92,1095.88 2058.16,1092.54 2061.4,1089.2 2064.65,1085.87 2067.89,1082.55 2071.13,1079.23 2074.37,1075.92 2077.62,1072.62 2080.86,1069.34 2084.1,1066.06 2087.35,1062.8 2090.59,1059.55 2093.83,1056.31 2097.08,1053.09 2100.32,1049.89 2103.56,1046.7 2106.8,1043.53 2110.05,1040.38 2113.29,1037.25 2116.53,1034.13 2119.78,1031.04 2123.02,1027.97 2126.26,1024.92 2129.51,1021.89 2132.75,1018.88 2135.99,1015.9 2139.23,1012.94 2142.48,1010 2145.72,1007.09 2148.96,1004.2 2152.21,1001.34 2155.45,998.494 2158.69,995.675 2161.94,992.88 2165.18,990.108 2168.42,987.36 2171.67,984.635 2174.91,981.934 2178.15,979.257 2181.39,976.603 2184.64,973.973 2187.88,971.366 2191.12,968.783 2194.37,966.223 2197.61,963.687 2200.85,961.174 2204.1,958.684 2207.34,956.217 2210.58,953.774 2213.82,951.354 2217.07,948.957 2220.31,946.583 2223.55,944.231 2226.8,941.903 2230.04,939.597 2233.28,937.314 2236.53,935.053 2239.77,932.815 2243.01,930.599 2246.25,928.405 2249.5,926.234 2252.74,924.084 2255.98,921.956 2259.23,919.85 2262.47,917.766 2265.71,915.703 2268.96,913.661 2272.2,911.641 2275.44,909.642 2278.69,907.664 2281.93,905.707 2285.17,903.77 2288.41,901.855 2291.66,899.959 "/>
<path clip-path="url(#clip250)" d="M1953.46 302.578 L2280.8 302.578 L2280.8 95.2176 L1953.46 95.2176  Z" fill="#ffffff" fill-rule="evenodd" fill-opacity="1"/>
<polyline clip-path="url(#clip250)" style="stroke:#000000; stroke-linecap:round; stroke-linejoin:round; stroke-width:4; stroke-opacity:1; fill:none" points="1953.46,302.578 2280.8,302.578 2280.8,95.2176 1953.46,95.2176 1953.46,302.578 "/>
<polyline clip-path="url(#clip250)" style="stroke:#009af9; stroke-linecap:round; stroke-linejoin:round; stroke-width:4; stroke-opacity:1; fill:none" points="1977.44,147.058 2121.36,147.058 "/>
<path clip-path="url(#clip250)" d="M2152.76 131.051 L2152.76 138.412 L2161.53 138.412 L2161.53 141.722 L2152.76 141.722 L2152.76 155.796 Q2152.76 158.967 2153.61 159.87 Q2154.49 160.773 2157.16 160.773 L2161.53 160.773 L2161.53 164.338 L2157.16 164.338 Q2152.23 164.338 2150.35 162.509 Q2148.48 160.657 2148.48 155.796 L2148.48 141.722 L2145.35 141.722 L2145.35 138.412 L2148.48 138.412 L2148.48 131.051 L2152.76 131.051 Z" fill="#000000" fill-rule="nonzero" fill-opacity="1" /><path clip-path="url(#clip250)" d="M2182.16 142.393 Q2181.44 141.977 2180.58 141.791 Q2179.75 141.583 2178.73 141.583 Q2175.12 141.583 2173.17 143.944 Q2171.25 146.282 2171.25 150.68 L2171.25 164.338 L2166.97 164.338 L2166.97 138.412 L2171.25 138.412 L2171.25 142.44 Q2172.6 140.078 2174.75 138.944 Q2176.9 137.787 2179.98 137.787 Q2180.42 137.787 2180.95 137.856 Q2181.48 137.903 2182.13 138.018 L2182.16 142.393 Z" fill="#000000" fill-rule="nonzero" fill-opacity="1" /><path clip-path="url(#clip250)" d="M2186.18 154.106 L2186.18 138.412 L2190.44 138.412 L2190.44 153.944 Q2190.44 157.625 2191.88 159.476 Q2193.31 161.305 2196.18 161.305 Q2199.63 161.305 2201.62 159.106 Q2203.64 156.907 2203.64 153.111 L2203.64 138.412 L2207.9 138.412 L2207.9 164.338 L2203.64 164.338 L2203.64 160.356 Q2202.09 162.717 2200.03 163.875 Q2197.99 165.009 2195.28 165.009 Q2190.81 165.009 2188.5 162.231 Q2186.18 159.453 2186.18 154.106 M2196.9 137.787 L2196.9 137.787 Z" fill="#000000" fill-rule="nonzero" fill-opacity="1" /><path clip-path="url(#clip250)" d="M2220.88 131.051 L2220.88 138.412 L2229.66 138.412 L2229.66 141.722 L2220.88 141.722 L2220.88 155.796 Q2220.88 158.967 2221.74 159.87 Q2222.62 160.773 2225.28 160.773 L2229.66 160.773 L2229.66 164.338 L2225.28 164.338 Q2220.35 164.338 2218.48 162.509 Q2216.6 160.657 2216.6 155.796 L2216.6 141.722 L2213.48 141.722 L2213.48 138.412 L2216.6 138.412 L2216.6 131.051 L2220.88 131.051 Z" fill="#000000" fill-rule="nonzero" fill-opacity="1" /><path clip-path="url(#clip250)" d="M2256.81 148.689 L2256.81 164.338 L2252.55 164.338 L2252.55 148.828 Q2252.55 145.148 2251.11 143.319 Q2249.68 141.49 2246.81 141.49 Q2243.36 141.49 2241.37 143.69 Q2239.38 145.889 2239.38 149.685 L2239.38 164.338 L2235.1 164.338 L2235.1 128.319 L2239.38 128.319 L2239.38 142.44 Q2240.91 140.102 2242.97 138.944 Q2245.05 137.787 2247.76 137.787 Q2252.23 137.787 2254.52 140.565 Q2256.81 143.319 2256.81 148.689 Z" fill="#000000" fill-rule="nonzero" fill-opacity="1" /><circle clip-path="url(#clip250)" cx="2049.4" cy="198.898" r="20.48" fill="#e26f46" fill-rule="evenodd" fill-opacity="1" stroke="#000000" stroke-opacity="1" stroke-width="4.55111"/>
<path clip-path="url(#clip250)" d="M2164.26 194.187 L2164.26 180.159 L2168.52 180.159 L2168.52 216.178 L2164.26 216.178 L2164.26 212.289 Q2162.92 214.603 2160.86 215.738 Q2158.82 216.849 2155.95 216.849 Q2151.25 216.849 2148.29 213.099 Q2145.35 209.349 2145.35 203.238 Q2145.35 197.127 2148.29 193.377 Q2151.25 189.627 2155.95 189.627 Q2158.82 189.627 2160.86 190.761 Q2162.92 191.872 2164.26 194.187 M2149.75 203.238 Q2149.75 207.937 2151.67 210.622 Q2153.61 213.284 2156.99 213.284 Q2160.37 213.284 2162.32 210.622 Q2164.26 207.937 2164.26 203.238 Q2164.26 198.539 2162.32 195.877 Q2160.37 193.192 2156.99 193.192 Q2153.61 193.192 2151.67 195.877 Q2149.75 198.539 2149.75 203.238 Z" fill="#000000" fill-rule="nonzero" fill-opacity="1" /><path clip-path="url(#clip250)" d="M2189.08 203.145 Q2183.92 203.145 2181.92 204.326 Q2179.93 205.506 2179.93 208.354 Q2179.93 210.622 2181.42 211.965 Q2182.92 213.284 2185.49 213.284 Q2189.03 213.284 2191.16 210.784 Q2193.31 208.261 2193.31 204.094 L2193.31 203.145 L2189.08 203.145 M2197.57 201.386 L2197.57 216.178 L2193.31 216.178 L2193.31 212.242 Q2191.85 214.603 2189.68 215.738 Q2187.5 216.849 2184.36 216.849 Q2180.37 216.849 2178.01 214.627 Q2175.67 212.381 2175.67 208.631 Q2175.67 204.256 2178.59 202.034 Q2181.53 199.812 2187.34 199.812 L2193.31 199.812 L2193.31 199.395 Q2193.31 196.455 2191.37 194.858 Q2189.45 193.238 2185.95 193.238 Q2183.73 193.238 2181.62 193.77 Q2179.52 194.303 2177.57 195.367 L2177.57 191.432 Q2179.91 190.53 2182.11 190.09 Q2184.31 189.627 2186.39 189.627 Q2192.02 189.627 2194.79 192.543 Q2197.57 195.46 2197.57 201.386 Z" fill="#000000" fill-rule="nonzero" fill-opacity="1" /><path clip-path="url(#clip250)" d="M2210.56 182.891 L2210.56 190.252 L2219.33 190.252 L2219.33 193.562 L2210.56 193.562 L2210.56 207.636 Q2210.56 210.807 2211.42 211.71 Q2212.29 212.613 2214.96 212.613 L2219.33 212.613 L2219.33 216.178 L2214.96 216.178 Q2210.03 216.178 2208.15 214.349 Q2206.28 212.497 2206.28 207.636 L2206.28 193.562 L2203.15 193.562 L2203.15 190.252 L2206.28 190.252 L2206.28 182.891 L2210.56 182.891 Z" fill="#000000" fill-rule="nonzero" fill-opacity="1" /><path clip-path="url(#clip250)" d="M2236.72 203.145 Q2231.55 203.145 2229.56 204.326 Q2227.57 205.506 2227.57 208.354 Q2227.57 210.622 2229.05 211.965 Q2230.56 213.284 2233.13 213.284 Q2236.67 213.284 2238.8 210.784 Q2240.95 208.261 2240.95 204.094 L2240.95 203.145 L2236.72 203.145 M2245.21 201.386 L2245.21 216.178 L2240.95 216.178 L2240.95 212.242 Q2239.49 214.603 2237.32 215.738 Q2235.14 216.849 2231.99 216.849 Q2228.01 216.849 2225.65 214.627 Q2223.31 212.381 2223.31 208.631 Q2223.31 204.256 2226.23 202.034 Q2229.17 199.812 2234.98 199.812 L2240.95 199.812 L2240.95 199.395 Q2240.95 196.455 2239.01 194.858 Q2237.09 193.238 2233.59 193.238 Q2231.37 193.238 2229.26 193.77 Q2227.16 194.303 2225.21 195.367 L2225.21 191.432 Q2227.55 190.53 2229.75 190.09 Q2231.95 189.627 2234.03 189.627 Q2239.66 189.627 2242.43 192.543 Q2245.21 195.46 2245.21 201.386 Z" fill="#000000" fill-rule="nonzero" fill-opacity="1" /><polyline clip-path="url(#clip250)" style="stroke:#3da44d; stroke-linecap:round; stroke-linejoin:round; stroke-width:8; stroke-opacity:1; fill:none" points="1977.44,250.738 2121.36,250.738 "/>
<path clip-path="url(#clip250)" d="M2170.91 263.087 L2170.91 253.805 L2163.27 253.805 L2163.27 249.962 L2175.54 249.962 L2175.54 264.8 Q2172.83 266.721 2169.56 267.717 Q2166.3 268.689 2162.6 268.689 Q2154.49 268.689 2149.91 263.967 Q2145.35 259.221 2145.35 250.772 Q2145.35 242.3 2149.91 237.578 Q2154.49 232.833 2162.6 232.833 Q2165.98 232.833 2169.01 233.666 Q2172.06 234.499 2174.63 236.12 L2174.63 241.096 Q2172.04 238.897 2169.12 237.786 Q2166.21 236.675 2162.99 236.675 Q2156.65 236.675 2153.45 240.217 Q2150.28 243.758 2150.28 250.772 Q2150.28 257.763 2153.45 261.305 Q2156.65 264.846 2162.99 264.846 Q2165.47 264.846 2167.41 264.43 Q2169.36 263.99 2170.91 263.087 Z" fill="#000000" fill-rule="nonzero" fill-opacity="1" /><path clip-path="url(#clip250)" d="M2188.75 237.3 L2188.75 250.286 L2194.63 250.286 Q2197.9 250.286 2199.68 248.596 Q2201.46 246.907 2201.46 243.782 Q2201.46 240.68 2199.68 238.99 Q2197.9 237.3 2194.63 237.3 L2188.75 237.3 M2184.08 233.458 L2194.63 233.458 Q2200.44 233.458 2203.41 236.096 Q2206.39 238.712 2206.39 243.782 Q2206.39 248.897 2203.41 251.513 Q2200.44 254.129 2194.63 254.129 L2188.75 254.129 L2188.75 268.018 L2184.08 268.018 L2184.08 233.458 Z" fill="#000000" fill-rule="nonzero" fill-opacity="1" /></svg>
