<?xml version="1.0" encoding="utf-8"?>
<svg xmlns="http://www.w3.org/2000/svg" xmlns:xlink="http://www.w3.org/1999/xlink" width="600" height="400" viewBox="0 0 2400 1600">
<defs>
  <clipPath id="clip080">
    <rect x="0" y="0" width="2400" height="1600"/>
  </clipPath>
</defs>
<path clip-path="url(#clip080)" d="M0 1600 L2400 1600 L2400 0 L0 0  Z" fill="#ffffff" fill-rule="evenodd" fill-opacity="1"/>
<defs>
  <clipPath id="clip081">
    <rect x="480" y="0" width="1681" height="1600"/>
  </clipPath>
</defs>
<path clip-path="url(#clip080)" d="M193.936 1486.45 L2352.76 1486.45 L2352.76 47.2441 L193.936 47.2441  Z" fill="#ffffff" fill-rule="evenodd" fill-opacity="1"/>
<defs>
  <clipPath id="clip082">
    <rect x="193" y="47" width="2160" height="1440"/>
  </clipPath>
</defs>
<polyline clip-path="url(#clip082)" style="stroke:#000000; stroke-linecap:round; stroke-linejoin:round; stroke-width:2; stroke-opacity:0.1; fill:none" points="255.035,1486.45 255.035,47.2441 "/>
<polyline clip-path="url(#clip082)" style="stroke:#000000; stroke-linecap:round; stroke-linejoin:round; stroke-width:2; stroke-opacity:0.1; fill:none" points="579.338,1486.45 579.338,47.2441 "/>
<polyline clip-path="url(#clip082)" style="stroke:#000000; stroke-linecap:round; stroke-linejoin:round; stroke-width:2; stroke-opacity:0.1; fill:none" points="903.641,1486.45 903.641,47.2441 "/>
<polyline clip-path="url(#clip082)" style="stroke:#000000; stroke-linecap:round; stroke-linejoin:round; stroke-width:2; stroke-opacity:0.1; fill:none" points="1227.94,1486.45 1227.94,47.2441 "/>
<polyline clip-path="url(#clip082)" style="stroke:#000000; stroke-linecap:round; stroke-linejoin:round; stroke-width:2; stroke-opacity:0.1; fill:none" points="1552.25,1486.45 1552.25,47.2441 "/>
<polyline clip-path="url(#clip082)" style="stroke:#000000; stroke-linecap:round; stroke-linejoin:round; stroke-width:2; stroke-opacity:0.1; fill:none" points="1876.55,1486.45 1876.55,47.2441 "/>
<polyline clip-path="url(#clip082)" style="stroke:#000000; stroke-linecap:round; stroke-linejoin:round; stroke-width:2; stroke-opacity:0.1; fill:none" points="2200.85,1486.45 2200.85,47.2441 "/>
<polyline clip-path="url(#clip082)" style="stroke:#000000; stroke-linecap:round; stroke-linejoin:round; stroke-width:2; stroke-opacity:0.1; fill:none" points="193.936,1445.72 2352.76,1445.72 "/>
<polyline clip-path="url(#clip082)" style="stroke:#000000; stroke-linecap:round; stroke-linejoin:round; stroke-width:2; stroke-opacity:0.1; fill:none" points="193.936,1130.86 2352.76,1130.86 "/>
<polyline clip-path="url(#clip082)" style="stroke:#000000; stroke-linecap:round; stroke-linejoin:round; stroke-width:2; stroke-opacity:0.1; fill:none" points="193.936,816.001 2352.76,816.001 "/>
<polyline clip-path="url(#clip082)" style="stroke:#000000; stroke-linecap:round; stroke-linejoin:round; stroke-width:2; stroke-opacity:0.1; fill:none" points="193.936,501.142 2352.76,501.142 "/>
<polyline clip-path="url(#clip082)" style="stroke:#000000; stroke-linecap:round; stroke-linejoin:round; stroke-width:2; stroke-opacity:0.1; fill:none" points="193.936,186.284 2352.76,186.284 "/>
<polyline clip-path="url(#clip080)" style="stroke:#000000; stroke-linecap:round; stroke-linejoin:round; stroke-width:4; stroke-opacity:1; fill:none" points="193.936,1486.45 2352.76,1486.45 "/>
<polyline clip-path="url(#clip080)" style="stroke:#000000; stroke-linecap:round; stroke-linejoin:round; stroke-width:4; stroke-opacity:1; fill:none" points="255.035,1486.45 255.035,1467.55 "/>
<polyline clip-path="url(#clip080)" style="stroke:#000000; stroke-linecap:round; stroke-linejoin:round; stroke-width:4; stroke-opacity:1; fill:none" points="579.338,1486.45 579.338,1467.55 "/>
<polyline clip-path="url(#clip080)" style="stroke:#000000; stroke-linecap:round; stroke-linejoin:round; stroke-width:4; stroke-opacity:1; fill:none" points="903.641,1486.45 903.641,1467.55 "/>
<polyline clip-path="url(#clip080)" style="stroke:#000000; stroke-linecap:round; stroke-linejoin:round; stroke-width:4; stroke-opacity:1; fill:none" points="1227.94,1486.45 1227.94,1467.55 "/>
<polyline clip-path="url(#clip080)" style="stroke:#000000; stroke-linecap:round; stroke-linejoin:round; stroke-width:4; stroke-opacity:1; fill:none" points="1552.25,1486.45 1552.25,1467.55 "/>
<polyline clip-path="url(#clip080)" style="stroke:#000000; stroke-linecap:round; stroke-linejoin:round; stroke-width:4; stroke-opacity:1; fill:none" points="1876.55,1486.45 1876.55,1467.55 "/>
<polyline clip-path="url(#clip080)" style="stroke:#000000; stroke-linecap:round; stroke-linejoin:round; stroke-width:4; stroke-opacity:1; fill:none" points="2200.85,1486.45 2200.85,1467.55 "/>
<path clip-path="url(#clip080)" d="M255.035 1517.37 Q251.424 1517.37 249.595 1520.93 Q247.789 1524.47 247.789 1531.6 Q247.789 1538.71 249.595 1542.27 Q251.424 1545.82 255.035 1545.82 Q258.669 1545.82 260.474 1542.27 Q262.303 1538.71 262.303 1531.6 Q262.303 1524.47 260.474 1520.93 Q258.669 1517.37 255.035 1517.37 M255.035 1513.66 Q260.845 1513.66 263.9 1518.27 Q266.979 1522.85 266.979 1531.6 Q266.979 1540.33 263.9 1544.94 Q260.845 1549.52 255.035 1549.52 Q249.225 1549.52 246.146 1544.94 Q243.09 1540.33 243.09 1531.6 Q243.09 1522.85 246.146 1518.27 Q249.225 1513.66 255.035 1513.66 Z" fill="#000000" fill-rule="nonzero" fill-opacity="1" /><path clip-path="url(#clip080)" d="M569.72 1544.91 L577.358 1544.91 L577.358 1518.55 L569.048 1520.21 L569.048 1515.95 L577.312 1514.29 L581.988 1514.29 L581.988 1544.91 L589.627 1544.91 L589.627 1548.85 L569.72 1548.85 L569.72 1544.91 Z" fill="#000000" fill-rule="nonzero" fill-opacity="1" /><path clip-path="url(#clip080)" d="M898.293 1544.91 L914.613 1544.91 L914.613 1548.85 L892.668 1548.85 L892.668 1544.91 Q895.33 1542.16 899.914 1537.53 Q904.52 1532.88 905.701 1531.53 Q907.946 1529.01 908.826 1527.27 Q909.729 1525.51 909.729 1523.82 Q909.729 1521.07 907.784 1519.33 Q905.863 1517.6 902.761 1517.6 Q900.562 1517.6 898.108 1518.36 Q895.678 1519.13 892.9 1520.68 L892.9 1515.95 Q895.724 1514.82 898.178 1514.24 Q900.631 1513.66 902.668 1513.66 Q908.039 1513.66 911.233 1516.35 Q914.428 1519.03 914.428 1523.52 Q914.428 1525.65 913.617 1527.57 Q912.83 1529.47 910.724 1532.07 Q910.145 1532.74 907.043 1535.95 Q903.942 1539.15 898.293 1544.91 Z" fill="#000000" fill-rule="nonzero" fill-opacity="1" /><path clip-path="url(#clip080)" d="M1232.19 1530.21 Q1235.55 1530.93 1237.42 1533.2 Q1239.32 1535.47 1239.32 1538.8 Q1239.32 1543.92 1235.8 1546.72 Q1232.28 1549.52 1225.8 1549.52 Q1223.63 1549.52 1221.31 1549.08 Q1219.02 1548.66 1216.57 1547.81 L1216.57 1543.29 Q1218.51 1544.43 1220.83 1545.01 Q1223.14 1545.58 1225.66 1545.58 Q1230.06 1545.58 1232.35 1543.85 Q1234.67 1542.11 1234.67 1538.8 Q1234.67 1535.75 1232.52 1534.03 Q1230.39 1532.3 1226.57 1532.3 L1222.54 1532.3 L1222.54 1528.45 L1226.75 1528.45 Q1230.2 1528.45 1232.03 1527.09 Q1233.86 1525.7 1233.86 1523.11 Q1233.86 1520.45 1231.96 1519.03 Q1230.08 1517.6 1226.57 1517.6 Q1224.64 1517.6 1222.45 1518.01 Q1220.25 1518.43 1217.61 1519.31 L1217.61 1515.14 Q1220.27 1514.4 1222.58 1514.03 Q1224.92 1513.66 1226.98 1513.66 Q1232.31 1513.66 1235.41 1516.09 Q1238.51 1518.5 1238.51 1522.62 Q1238.51 1525.49 1236.87 1527.48 Q1235.22 1529.45 1232.19 1530.21 Z" fill="#000000" fill-rule="nonzero" fill-opacity="1" /><path clip-path="url(#clip080)" d="M1555.26 1518.36 L1543.45 1536.81 L1555.26 1536.81 L1555.26 1518.36 M1554.03 1514.29 L1559.91 1514.29 L1559.91 1536.81 L1564.84 1536.81 L1564.84 1540.7 L1559.91 1540.7 L1559.91 1548.85 L1555.26 1548.85 L1555.26 1540.7 L1539.65 1540.7 L1539.65 1536.19 L1554.03 1514.29 Z" fill="#000000" fill-rule="nonzero" fill-opacity="1" /><path clip-path="url(#clip080)" d="M1866.83 1514.29 L1885.18 1514.29 L1885.18 1518.22 L1871.11 1518.22 L1871.11 1526.7 Q1872.13 1526.35 1873.15 1526.19 Q1874.17 1526 1875.18 1526 Q1880.97 1526 1884.35 1529.17 Q1887.73 1532.34 1887.73 1537.76 Q1887.73 1543.34 1884.26 1546.44 Q1880.79 1549.52 1874.47 1549.52 Q1872.29 1549.52 1870.02 1549.15 Q1867.78 1548.78 1865.37 1548.04 L1865.37 1543.34 Q1867.45 1544.47 1869.67 1545.03 Q1871.9 1545.58 1874.37 1545.58 Q1878.38 1545.58 1880.72 1543.48 Q1883.05 1541.37 1883.05 1537.76 Q1883.05 1534.15 1880.72 1532.04 Q1878.38 1529.94 1874.37 1529.94 Q1872.5 1529.94 1870.62 1530.35 Q1868.77 1530.77 1866.83 1531.65 L1866.83 1514.29 Z" fill="#000000" fill-rule="nonzero" fill-opacity="1" /><path clip-path="url(#clip080)" d="M2201.26 1529.7 Q2198.11 1529.7 2196.26 1531.86 Q2194.43 1534.01 2194.43 1537.76 Q2194.43 1541.49 2196.26 1543.66 Q2198.11 1545.82 2201.26 1545.82 Q2204.41 1545.82 2206.23 1543.66 Q2208.09 1541.49 2208.09 1537.76 Q2208.09 1534.01 2206.23 1531.86 Q2204.41 1529.7 2201.26 1529.7 M2210.54 1515.05 L2210.54 1519.31 Q2208.78 1518.48 2206.98 1518.04 Q2205.19 1517.6 2203.43 1517.6 Q2198.8 1517.6 2196.35 1520.72 Q2193.92 1523.85 2193.57 1530.17 Q2194.94 1528.15 2197 1527.09 Q2199.06 1526 2201.54 1526 Q2206.74 1526 2209.75 1529.17 Q2212.79 1532.32 2212.79 1537.76 Q2212.79 1543.08 2209.64 1546.3 Q2206.49 1549.52 2201.26 1549.52 Q2195.26 1549.52 2192.09 1544.94 Q2188.92 1540.33 2188.92 1531.6 Q2188.92 1523.41 2192.81 1518.55 Q2196.7 1513.66 2203.25 1513.66 Q2205.01 1513.66 2206.79 1514.01 Q2208.6 1514.36 2210.54 1515.05 Z" fill="#000000" fill-rule="nonzero" fill-opacity="1" /><polyline clip-path="url(#clip080)" style="stroke:#000000; stroke-linecap:round; stroke-linejoin:round; stroke-width:4; stroke-opacity:1; fill:none" points="193.936,1486.45 193.936,47.2441 "/>
<polyline clip-path="url(#clip080)" style="stroke:#000000; stroke-linecap:round; stroke-linejoin:round; stroke-width:4; stroke-opacity:1; fill:none" points="193.936,1445.72 212.834,1445.72 "/>
<polyline clip-path="url(#clip080)" style="stroke:#000000; stroke-linecap:round; stroke-linejoin:round; stroke-width:4; stroke-opacity:1; fill:none" points="193.936,1130.86 212.834,1130.86 "/>
<polyline clip-path="url(#clip080)" style="stroke:#000000; stroke-linecap:round; stroke-linejoin:round; stroke-width:4; stroke-opacity:1; fill:none" points="193.936,816.001 212.834,816.001 "/>
<polyline clip-path="url(#clip080)" style="stroke:#000000; stroke-linecap:round; stroke-linejoin:round; stroke-width:4; stroke-opacity:1; fill:none" points="193.936,501.142 212.834,501.142 "/>
<polyline clip-path="url(#clip080)" style="stroke:#000000; stroke-linecap:round; stroke-linejoin:round; stroke-width:4; stroke-opacity:1; fill:none" points="193.936,186.284 212.834,186.284 "/>
<path clip-path="url(#clip080)" d="M50.9921 1446.17 L80.6679 1446.17 L80.6679 1450.1 L50.9921 1450.1 L50.9921 1446.17 Z" fill="#000000" fill-rule="nonzero" fill-opacity="1" /><path clip-path="url(#clip080)" d="M91.5706 1459.06 L99.2095 1459.06 L99.2095 1432.7 L90.8993 1434.36 L90.8993 1430.1 L99.1632 1428.44 L103.839 1428.44 L103.839 1459.06 L111.478 1459.06 L111.478 1463 L91.5706 1463 L91.5706 1459.06 Z" fill="#000000" fill-rule="nonzero" fill-opacity="1" /><path clip-path="url(#clip080)" d="M120.922 1457.12 L125.807 1457.12 L125.807 1463 L120.922 1463 L120.922 1457.12 Z" fill="#000000" fill-rule="nonzero" fill-opacity="1" /><path clip-path="url(#clip080)" d="M145.992 1431.52 Q142.381 1431.52 140.552 1435.08 Q138.746 1438.62 138.746 1445.75 Q138.746 1452.86 140.552 1456.42 Q142.381 1459.97 145.992 1459.97 Q149.626 1459.97 151.431 1456.42 Q153.26 1452.86 153.26 1445.75 Q153.26 1438.62 151.431 1435.08 Q149.626 1431.52 145.992 1431.52 M145.992 1427.81 Q151.802 1427.81 154.857 1432.42 Q157.936 1437 157.936 1445.75 Q157.936 1454.48 154.857 1459.09 Q151.802 1463.67 145.992 1463.67 Q140.181 1463.67 137.103 1459.09 Q134.047 1454.48 134.047 1445.75 Q134.047 1437 137.103 1432.42 Q140.181 1427.81 145.992 1427.81 Z" fill="#000000" fill-rule="nonzero" fill-opacity="1" /><path clip-path="url(#clip080)" d="M51.9875 1131.31 L81.6633 1131.31 L81.6633 1135.25 L51.9875 1135.25 L51.9875 1131.31 Z" fill="#000000" fill-rule="nonzero" fill-opacity="1" /><path clip-path="url(#clip080)" d="M101.756 1116.66 Q98.1447 1116.66 96.316 1120.22 Q94.5104 1123.76 94.5104 1130.89 Q94.5104 1138 96.316 1141.57 Q98.1447 1145.11 101.756 1145.11 Q105.39 1145.11 107.196 1141.57 Q109.024 1138 109.024 1130.89 Q109.024 1123.76 107.196 1120.22 Q105.39 1116.66 101.756 1116.66 M101.756 1112.95 Q107.566 1112.95 110.621 1117.56 Q113.7 1122.14 113.7 1130.89 Q113.7 1139.62 110.621 1144.23 Q107.566 1148.81 101.756 1148.81 Q95.9456 1148.81 92.8669 1144.23 Q89.8114 1139.62 89.8114 1130.89 Q89.8114 1122.14 92.8669 1117.56 Q95.9456 1112.95 101.756 1112.95 Z" fill="#000000" fill-rule="nonzero" fill-opacity="1" /><path clip-path="url(#clip080)" d="M121.918 1142.26 L126.802 1142.26 L126.802 1148.14 L121.918 1148.14 L121.918 1142.26 Z" fill="#000000" fill-rule="nonzero" fill-opacity="1" /><path clip-path="url(#clip080)" d="M137.033 1113.58 L155.39 1113.58 L155.39 1117.51 L141.316 1117.51 L141.316 1125.99 Q142.334 1125.64 143.353 1125.48 Q144.371 1125.29 145.39 1125.29 Q151.177 1125.29 154.556 1128.46 Q157.936 1131.63 157.936 1137.05 Q157.936 1142.63 154.464 1145.73 Q150.992 1148.81 144.672 1148.81 Q142.496 1148.81 140.228 1148.44 Q137.982 1148.07 135.575 1147.33 L135.575 1142.63 Q137.658 1143.76 139.881 1144.32 Q142.103 1144.88 144.58 1144.88 Q148.584 1144.88 150.922 1142.77 Q153.26 1140.66 153.26 1137.05 Q153.26 1133.44 150.922 1131.33 Q148.584 1129.23 144.58 1129.23 Q142.705 1129.23 140.83 1129.64 Q138.978 1130.06 137.033 1130.94 L137.033 1113.58 Z" fill="#000000" fill-rule="nonzero" fill-opacity="1" /><path clip-path="url(#clip080)" d="M100.76 801.799 Q97.1493 801.799 95.3206 805.364 Q93.515 808.906 93.515 816.035 Q93.515 823.142 95.3206 826.707 Q97.1493 830.248 100.76 830.248 Q104.395 830.248 106.2 826.707 Q108.029 823.142 108.029 816.035 Q108.029 808.906 106.2 805.364 Q104.395 801.799 100.76 801.799 M100.76 798.096 Q106.571 798.096 109.626 802.702 Q112.705 807.285 112.705 816.035 Q112.705 824.762 109.626 829.369 Q106.571 833.952 100.76 833.952 Q94.9502 833.952 91.8715 829.369 Q88.816 824.762 88.816 816.035 Q88.816 807.285 91.8715 802.702 Q94.9502 798.096 100.76 798.096 Z" fill="#000000" fill-rule="nonzero" fill-opacity="1" /><path clip-path="url(#clip080)" d="M120.922 827.401 L125.807 827.401 L125.807 833.281 L120.922 833.281 L120.922 827.401 Z" fill="#000000" fill-rule="nonzero" fill-opacity="1" /><path clip-path="url(#clip080)" d="M145.992 801.799 Q142.381 801.799 140.552 805.364 Q138.746 808.906 138.746 816.035 Q138.746 823.142 140.552 826.707 Q142.381 830.248 145.992 830.248 Q149.626 830.248 151.431 826.707 Q153.26 823.142 153.26 816.035 Q153.26 808.906 151.431 805.364 Q149.626 801.799 145.992 801.799 M145.992 798.096 Q151.802 798.096 154.857 802.702 Q157.936 807.285 157.936 816.035 Q157.936 824.762 154.857 829.369 Q151.802 833.952 145.992 833.952 Q140.181 833.952 137.103 829.369 Q134.047 824.762 134.047 816.035 Q134.047 807.285 137.103 802.702 Q140.181 798.096 145.992 798.096 Z" fill="#000000" fill-rule="nonzero" fill-opacity="1" /><path clip-path="url(#clip080)" d="M101.756 486.941 Q98.1447 486.941 96.316 490.506 Q94.5104 494.047 94.5104 501.177 Q94.5104 508.283 96.316 511.848 Q98.1447 515.39 101.756 515.39 Q105.39 515.39 107.196 511.848 Q109.024 508.283 109.024 501.177 Q109.024 494.047 107.196 490.506 Q105.39 486.941 101.756 486.941 M101.756 483.237 Q107.566 483.237 110.621 487.844 Q113.7 492.427 113.7 501.177 Q113.7 509.904 110.621 514.51 Q107.566 519.093 101.756 519.093 Q95.9456 519.093 92.8669 514.51 Q89.8114 509.904 89.8114 501.177 Q89.8114 492.427 92.8669 487.844 Q95.9456 483.237 101.756 483.237 Z" fill="#000000" fill-rule="nonzero" fill-opacity="1" /><path clip-path="url(#clip080)" d="M121.918 512.543 L126.802 512.543 L126.802 518.422 L121.918 518.422 L121.918 512.543 Z" fill="#000000" fill-rule="nonzero" fill-opacity="1" /><path clip-path="url(#clip080)" d="M137.033 483.862 L155.39 483.862 L155.39 487.797 L141.316 487.797 L141.316 496.27 Q142.334 495.922 143.353 495.76 Q144.371 495.575 145.39 495.575 Q151.177 495.575 154.556 498.746 Q157.936 501.918 157.936 507.334 Q157.936 512.913 154.464 516.015 Q150.992 519.093 144.672 519.093 Q142.496 519.093 140.228 518.723 Q137.982 518.353 135.575 517.612 L135.575 512.913 Q137.658 514.047 139.881 514.603 Q142.103 515.158 144.58 515.158 Q148.584 515.158 150.922 513.052 Q153.26 510.945 153.26 507.334 Q153.26 503.723 150.922 501.617 Q148.584 499.51 144.58 499.51 Q142.705 499.51 140.83 499.927 Q138.978 500.344 137.033 501.223 L137.033 483.862 Z" fill="#000000" fill-rule="nonzero" fill-opacity="1" /><path clip-path="url(#clip080)" d="M91.5706 199.629 L99.2095 199.629 L99.2095 173.263 L90.8993 174.93 L90.8993 170.67 L99.1632 169.004 L103.839 169.004 L103.839 199.629 L111.478 199.629 L111.478 203.564 L91.5706 203.564 L91.5706 199.629 Z" fill="#000000" fill-rule="nonzero" fill-opacity="1" /><path clip-path="url(#clip080)" d="M120.922 197.684 L125.807 197.684 L125.807 203.564 L120.922 203.564 L120.922 197.684 Z" fill="#000000" fill-rule="nonzero" fill-opacity="1" /><path clip-path="url(#clip080)" d="M145.992 172.082 Q142.381 172.082 140.552 175.647 Q138.746 179.189 138.746 186.318 Q138.746 193.425 140.552 196.99 Q142.381 200.531 145.992 200.531 Q149.626 200.531 151.431 196.99 Q153.26 193.425 153.26 186.318 Q153.26 179.189 151.431 175.647 Q149.626 172.082 145.992 172.082 M145.992 168.379 Q151.802 168.379 154.857 172.985 Q157.936 177.569 157.936 186.318 Q157.936 195.045 154.857 199.652 Q151.802 204.235 145.992 204.235 Q140.181 204.235 137.103 199.652 Q134.047 195.045 134.047 186.318 Q134.047 177.569 137.103 172.985 Q140.181 168.379 145.992 168.379 Z" fill="#000000" fill-rule="nonzero" fill-opacity="1" /><polyline clip-path="url(#clip082)" style="stroke:#009af9; stroke-linecap:round; stroke-linejoin:round; stroke-width:4; stroke-opacity:1; fill:none" points="255.035,816.001 258.278,809.704 261.521,803.407 264.764,797.112 268.007,790.819 271.25,784.528 274.493,778.24 277.736,771.956 280.979,765.677 284.222,759.403 287.465,753.134 290.708,746.871 293.951,740.616 297.194,734.368 300.437,728.128 303.68,721.897 306.923,715.675 310.166,709.464 313.409,703.263 316.652,697.073 319.895,690.895 323.138,684.73 326.381,678.578 329.624,672.439 332.867,666.315 336.11,660.206 339.353,654.113 342.596,648.035 345.84,641.975 349.083,635.932 352.326,629.907 355.569,623.9 358.812,617.913 362.055,611.945 365.298,605.998 368.541,600.072 371.784,594.168 375.027,588.285 378.27,582.426 381.513,576.59 384.756,570.777 387.999,564.99 391.242,559.227 394.485,553.49 397.728,547.779 400.971,542.096 404.214,536.439 407.457,530.811 410.7,525.211 413.943,519.64 417.186,514.098 420.429,508.587 423.672,503.107 426.915,497.658 430.158,492.241 433.401,486.856 436.644,481.504 439.887,476.185 443.13,470.901 446.373,465.651 449.616,460.436 452.859,455.256 456.103,450.113 459.346,445.006 462.589,439.937 465.832,434.905 469.075,429.911 472.318,424.955 475.561,420.039 478.804,415.162 482.047,410.326 485.29,405.53 488.533,400.775 491.776,396.062 495.019,391.39 498.262,386.761 501.505,382.175 504.748,377.633 507.991,373.134 511.234,368.679 514.477,364.269 517.72,359.905 520.963,355.586 524.206,351.313 527.449,347.086 530.692,342.907 533.935,338.774 537.178,334.69 540.421,330.653 543.664,326.665 546.907,322.726 550.15,318.837 553.393,314.997 556.636,311.207 559.879,307.468 563.122,303.779 566.366,300.142 569.609,296.556 572.852,293.022 576.095,289.541 579.338,286.112 582.581,282.736 585.824,279.414 589.067,276.145 592.31,272.93 595.553,269.77 598.796,266.664 602.039,263.613 605.282,260.617 608.525,257.677 611.768,254.792 615.011,251.964 618.254,249.192 621.497,246.477 624.74,243.819 627.983,241.218 631.226,238.674 634.469,236.188 637.712,233.761 640.955,231.391 644.198,229.08 647.441,226.827 650.684,224.634 653.927,222.5 657.17,220.425 660.413,218.409 663.656,216.453 666.899,214.558 670.142,212.722 673.385,210.947 676.629,209.232 679.872,207.578 683.115,205.984 686.358,204.452 689.601,202.981 692.844,201.571 696.087,200.223 699.33,198.936 702.573,197.711 705.816,196.548 709.059,195.446 712.302,194.407 715.545,193.43 718.788,192.515 722.031,191.663 725.274,190.873 728.517,190.145 731.76,189.48 735.003,188.878 738.246,188.338 741.489,187.861 744.732,187.447 747.975,187.096 751.218,186.808 754.461,186.582 757.704,186.42 760.947,186.32 764.19,186.284 767.433,186.31 770.676,186.4 773.919,186.552 777.162,186.768 780.405,187.046 783.648,187.387 786.892,187.791 790.135,188.258 793.378,188.788 796.621,189.38 799.864,190.035 803.107,190.752 806.35,191.533 809.593,192.375 812.836,193.28 816.079,194.247 819.322,195.277 822.565,196.368 825.808,197.522 829.051,198.737 832.294,200.014 835.537,201.352 838.78,202.752 842.023,204.214 845.266,205.736 848.509,207.32 851.752,208.964 854.995,210.669 858.238,212.435 861.481,214.261 864.724,216.147 867.967,218.094 871.21,220.1 874.453,222.165 877.696,224.29 880.939,226.474 884.182,228.717 887.425,231.019 890.668,233.379 893.911,235.798 897.155,238.274 900.398,240.809 903.641,243.401 906.884,246.05 910.127,248.756 913.37,251.519 916.613,254.338 919.856,257.214 923.099,260.145 926.342,263.132 929.585,266.174 932.828,269.271 936.071,272.423 939.314,275.629 942.557,278.89 945.8,282.204 949.043,285.571 952.286,288.991 955.529,292.464 958.772,295.99 962.015,299.567 965.258,303.196 968.501,306.877 971.744,310.608 974.987,314.39 978.23,318.222 981.473,322.104 984.716,326.035 987.959,330.015 991.202,334.044 994.445,338.121 997.688,342.245 1000.93,346.417 1004.17,350.637 1007.42,354.902 1010.66,359.214 1013.9,363.571 1017.15,367.974 1020.39,372.421 1023.63,376.913 1026.88,381.449 1030.12,386.028 1033.36,390.65 1036.6,395.315 1039.85,400.022 1043.09,404.77 1046.33,409.559 1049.58,414.389 1052.82,419.26 1056.06,424.17 1059.31,429.119 1062.55,434.107 1065.79,439.133 1069.04,444.196 1072.28,449.297 1075.52,454.435 1078.76,459.608 1082.01,464.818 1085.25,470.062 1088.49,475.341 1091.74,480.654 1094.98,486.001 1098.22,491.381 1101.47,496.793 1104.71,502.237 1107.95,507.712 1111.19,513.219 1114.44,518.755 1117.68,524.321 1120.92,529.917 1124.17,535.541 1127.41,541.193 1130.65,546.872 1133.9,552.579 1137.14,558.312 1140.38,564.07 1143.62,569.854 1146.87,575.662 1150.11,581.495 1153.35,587.351 1156.6,593.229 1159.84,599.13 1163.08,605.053 1166.33,610.997 1169.57,616.961 1172.81,622.945 1176.06,628.949 1179.3,634.971 1182.54,641.011 1185.78,647.069 1189.03,653.144 1192.27,659.235 1195.51,665.341 1198.76,671.463 1202,677.599 1205.24,683.749 1208.49,689.912 1211.73,696.088 1214.97,702.276 1218.21,708.475 1221.46,714.685 1224.7,720.905 1227.94,727.135 1231.19,733.373 1234.43,739.62 1237.67,745.875 1240.92,752.136 1244.16,758.404 1247.4,764.677 1250.64,770.956 1253.89,777.239 1257.13,783.526 1260.37,789.817 1263.62,796.11 1266.86,802.404 1270.1,808.701 1273.35,814.998 1276.59,821.295 1279.83,827.591 1283.08,833.887 1286.32,840.18 1289.56,846.472 1292.8,852.76 1296.05,859.044 1299.29,865.324 1302.53,871.6 1305.78,877.869 1309.02,884.133 1312.26,890.39 1315.51,896.639 1318.75,902.88 1321.99,909.113 1325.23,915.336 1328.48,921.549 1331.72,927.752 1334.96,933.943 1338.21,940.123 1341.45,946.29 1344.69,952.445 1347.94,958.585 1351.18,964.712 1354.42,970.823 1357.66,976.919 1360.91,982.999 1364.15,989.062 1367.39,995.108 1370.64,1001.14 1373.88,1007.15 1377.12,1013.14 1380.37,1019.11 1383.61,1025.06 1386.85,1030.99 1390.1,1036.89 1393.34,1042.78 1396.58,1048.64 1399.82,1054.48 1403.07,1060.3 1406.31,1066.09 1409.55,1071.86 1412.8,1077.6 1416.04,1083.31 1419.28,1089 1422.53,1094.66 1425.77,1100.3 1429.01,1105.9 1432.25,1111.48 1435.5,1117.02 1438.74,1122.54 1441.98,1128.02 1445.23,1133.48 1448.47,1138.9 1451.71,1144.29 1454.96,1149.65 1458.2,1154.97 1461.44,1160.26 1464.68,1165.52 1467.93,1170.74 1471.17,1175.92 1474.41,1181.07 1477.66,1186.18 1480.9,1191.26 1484.14,1196.3 1487.39,1201.3 1490.63,1206.26 1493.87,1211.18 1497.11,1216.06 1500.36,1220.91 1503.6,1225.71 1506.84,1230.47 1510.09,1235.19 1513.33,1239.87 1516.57,1244.51 1519.82,1249.1 1523.06,1253.65 1526.3,1258.15 1529.55,1262.62 1532.79,1267.03 1536.03,1271.4 1539.27,1275.73 1542.52,1280.01 1545.76,1284.24 1549,1288.43 1552.25,1292.57 1555.49,1296.66 1558.73,1300.71 1561.98,1304.7 1565.22,1308.65 1568.46,1312.55 1571.7,1316.4 1574.95,1320.19 1578.19,1323.94 1581.43,1327.64 1584.68,1331.28 1587.92,1334.88 1591.16,1338.42 1594.41,1341.91 1597.65,1345.35 1600.89,1348.73 1604.13,1352.06 1607.38,1355.34 1610.62,1358.56 1613.86,1361.73 1617.11,1364.85 1620.35,1367.91 1623.59,1370.91 1626.84,1373.86 1630.08,1376.75 1633.32,1379.59 1636.57,1382.37 1639.81,1385.1 1643.05,1387.76 1646.29,1390.37 1649.54,1392.93 1652.78,1395.42 1656.02,1397.86 1659.27,1400.24 1662.51,1402.56 1665.75,1404.82 1669,1407.02 1672.24,1409.17 1675.48,1411.25 1678.72,1413.28 1681.97,1415.24 1685.21,1417.15 1688.45,1418.99 1691.7,1420.78 1694.94,1422.5 1698.18,1424.16 1701.43,1425.77 1704.67,1427.31 1707.91,1428.79 1711.15,1430.21 1714.4,1431.57 1717.64,1432.86 1720.88,1434.1 1724.13,1435.27 1727.37,1436.38 1730.61,1437.43 1733.86,1438.42 1737.1,1439.34 1740.34,1440.21 1743.59,1441.01 1746.83,1441.74 1750.07,1442.42 1753.31,1443.03 1756.56,1443.58 1759.8,1444.07 1763.04,1444.49 1766.29,1444.85 1769.53,1445.15 1772.77,1445.39 1776.02,1445.56 1779.26,1445.67 1782.5,1445.72 1785.74,1445.7 1788.99,1445.62 1792.23,1445.48 1795.47,1445.27 1798.72,1445 1801.96,1444.67 1805.2,1444.28 1808.45,1443.82 1811.69,1443.3 1814.93,1442.72 1818.17,1442.07 1821.42,1441.37 1824.66,1440.6 1827.9,1439.76 1831.15,1438.87 1834.39,1437.91 1837.63,1436.89 1840.88,1435.81 1844.12,1434.67 1847.36,1433.46 1850.61,1432.2 1853.85,1430.87 1857.09,1429.48 1860.33,1428.02 1863.58,1426.51 1866.82,1424.94 1870.06,1423.3 1873.31,1421.61 1876.55,1419.85 1879.79,1418.03 1883.04,1416.16 1886.28,1414.22 1889.52,1412.23 1892.76,1410.17 1896.01,1408.05 1899.25,1405.88 1902.49,1403.65 1905.74,1401.35 1908.98,1399 1912.22,1396.59 1915.47,1394.13 1918.71,1391.6 1921.95,1389.02 1925.19,1386.38 1928.44,1383.68 1931.68,1380.93 1934.92,1378.12 1938.17,1375.25 1941.41,1372.33 1944.65,1369.35 1947.9,1366.32 1951.14,1363.23 1954.38,1360.08 1957.63,1356.89 1960.87,1353.63 1964.11,1350.33 1967.35,1346.97 1970.6,1343.56 1973.84,1340.09 1977.08,1336.58 1980.33,1333.01 1983.57,1329.39 1986.81,1325.71 1990.06,1321.99 1993.3,1318.22 1996.54,1314.39 1999.78,1310.52 2003.03,1306.6 2006.27,1302.62 2009.51,1298.6 2012.76,1294.53 2016,1290.42 2019.24,1286.25 2022.49,1282.04 2025.73,1277.78 2028.97,1273.48 2032.21,1269.13 2035.46,1264.73 2038.7,1260.29 2041.94,1255.81 2045.19,1251.28 2048.43,1246.71 2051.67,1242.09 2054.92,1237.43 2058.16,1232.73 2061.4,1227.99 2064.65,1223.21 2067.89,1218.38 2071.13,1213.52 2074.37,1208.62 2077.62,1203.67 2080.86,1198.69 2084.1,1193.67 2087.35,1188.61 2090.59,1183.52 2093.83,1178.39 2097.08,1173.22 2100.32,1168.02 2103.56,1162.78 2106.8,1157.5 2110.05,1152.2 2113.29,1146.85 2116.53,1141.48 2119.78,1136.07 2123.02,1130.63 2126.26,1125.16 2129.51,1119.66 2132.75,1114.13 2135.99,1108.57 2139.23,1102.98 2142.48,1097.36 2145.72,1091.71 2148.96,1086.04 2152.21,1080.33 2155.45,1074.6 2158.69,1068.85 2161.94,1063.07 2165.18,1057.27 2168.42,1051.44 2171.67,1045.58 2174.91,1039.71 2178.15,1033.81 2181.39,1027.89 2184.64,1021.95 2187.88,1015.99 2191.12,1010.01 2194.37,1004.01 2197.61,997.991 2200.85,991.953 2204.1,985.898 2207.34,979.826 2210.58,973.738 2213.82,967.634 2217.07,961.514 2220.31,955.38 2223.55,949.232 2226.8,943.071 2230.04,936.897 2233.28,930.711 2236.53,924.514 2239.77,918.306 2243.01,912.087 2246.25,905.859 2249.5,899.622 2252.74,893.376 2255.98,887.123 2259.23,880.863 2262.47,874.596 2265.71,868.323 2268.96,862.046 2272.2,855.763 2275.44,849.477 2278.69,843.187 2281.93,836.894 2285.17,830.6 2288.41,824.303 2291.66,818.006 "/>
<circle clip-path="url(#clip082)" cx="397.728" cy="576.231" r="14.4" fill="#e26f46" fill-rule="evenodd" fill-opacity="1" stroke="#000000" stroke-opacity="1" stroke-width="3.2"/>
<circle clip-path="url(#clip082)" cx="2171.67" cy="1119.38" r="14.4" fill="#e26f46" fill-rule="evenodd" fill-opacity="1" stroke="#000000" stroke-opacity="1" stroke-width="3.2"/>
<circle clip-path="url(#clip082)" cx="718.788" cy="87.9763" r="14.4" fill="#e26f46" fill-rule="evenodd" fill-opacity="1" stroke="#000000" stroke-opacity="1" stroke-width="3.2"/>
<circle clip-path="url(#clip082)" cx="375.027" cy="483.202" r="14.4" fill="#e26f46" fill-rule="evenodd" fill-opacity="1" stroke="#000000" stroke-opacity="1" stroke-width="3.2"/>
<circle clip-path="url(#clip082)" cx="741.489" cy="101.191" r="14.4" fill="#e26f46" fill-rule="evenodd" fill-opacity="1" stroke="#000000" stroke-opacity="1" stroke-width="3.2"/>
<circle clip-path="url(#clip082)" cx="1091.74" cy="423.999" r="14.4" fill="#e26f46" fill-rule="evenodd" fill-opacity="1" stroke="#000000" stroke-opacity="1" stroke-width="3.2"/>
<circle clip-path="url(#clip082)" cx="443.13" cy="490.302" r="14.4" fill="#e26f46" fill-rule="evenodd" fill-opacity="1" stroke="#000000" stroke-opacity="1" stroke-width="3.2"/>
<circle clip-path="url(#clip082)" cx="1007.42" cy="217.495" r="14.4" fill="#e26f46" fill-rule="evenodd" fill-opacity="1" stroke="#000000" stroke-opacity="1" stroke-width="3.2"/>
<circle clip-path="url(#clip082)" cx="1140.38" cy="425.956" r="14.4" fill="#e26f46" fill-rule="evenodd" fill-opacity="1" stroke="#000000" stroke-opacity="1" stroke-width="3.2"/>
<circle clip-path="url(#clip082)" cx="1166.33" cy="642.627" r="14.4" fill="#e26f46" fill-rule="evenodd" fill-opacity="1" stroke="#000000" stroke-opacity="1" stroke-width="3.2"/>
<circle clip-path="url(#clip082)" cx="1036.6" cy="370.861" r="14.4" fill="#e26f46" fill-rule="evenodd" fill-opacity="1" stroke="#000000" stroke-opacity="1" stroke-width="3.2"/>
<circle clip-path="url(#clip082)" cx="1098.22" cy="372.524" r="14.4" fill="#e26f46" fill-rule="evenodd" fill-opacity="1" stroke="#000000" stroke-opacity="1" stroke-width="3.2"/>
<circle clip-path="url(#clip082)" cx="2003.03" cy="1301.41" r="14.4" fill="#e26f46" fill-rule="evenodd" fill-opacity="1" stroke="#000000" stroke-opacity="1" stroke-width="3.2"/>
<circle clip-path="url(#clip082)" cx="1659.27" cy="1434.37" r="14.4" fill="#e26f46" fill-rule="evenodd" fill-opacity="1" stroke="#000000" stroke-opacity="1" stroke-width="3.2"/>
<circle clip-path="url(#clip082)" cx="543.664" cy="347.636" r="14.4" fill="#e26f46" fill-rule="evenodd" fill-opacity="1" stroke="#000000" stroke-opacity="1" stroke-width="3.2"/>
<circle clip-path="url(#clip082)" cx="1159.84" cy="652.853" r="14.4" fill="#e26f46" fill-rule="evenodd" fill-opacity="1" stroke="#000000" stroke-opacity="1" stroke-width="3.2"/>
<circle clip-path="url(#clip082)" cx="1380.37" cy="895.045" r="14.4" fill="#e26f46" fill-rule="evenodd" fill-opacity="1" stroke="#000000" stroke-opacity="1" stroke-width="3.2"/>
<circle clip-path="url(#clip082)" cx="676.629" cy="224.568" r="14.4" fill="#e26f46" fill-rule="evenodd" fill-opacity="1" stroke="#000000" stroke-opacity="1" stroke-width="3.2"/>
<circle clip-path="url(#clip082)" cx="2275.44" cy="922.708" r="14.4" fill="#e26f46" fill-rule="evenodd" fill-opacity="1" stroke="#000000" stroke-opacity="1" stroke-width="3.2"/>
<circle clip-path="url(#clip082)" cx="520.963" cy="201.881" r="14.4" fill="#e26f46" fill-rule="evenodd" fill-opacity="1" stroke="#000000" stroke-opacity="1" stroke-width="3.2"/>
<path clip-path="url(#clip080)" d="M1953.46 250.738 L2280.8 250.738 L2280.8 95.2176 L1953.46 95.2176  Z" fill="#ffffff" fill-rule="evenodd" fill-opacity="1"/>
<polyline clip-path="url(#clip080)" style="stroke:#000000; stroke-linecap:round; stroke-linejoin:round; stroke-width:4; stroke-opacity:1; fill:none" points="1953.46,250.738 2280.8,250.738 2280.8,95.2176 1953.46,95.2176 1953.46,250.738 "/>
<polyline clip-path="url(#clip080)" style="stroke:#009af9; stroke-linecap:round; stroke-linejoin:round; stroke-width:4; stroke-opacity:1; fill:none" points="1977.44,147.058 2121.36,147.058 "/>
<path clip-path="url(#clip080)" d="M2152.76 131.051 L2152.76 138.412 L2161.53 138.412 L2161.53 141.722 L2152.76 141.722 L2152.76 155.796 Q2152.76 158.967 2153.61 159.87 Q2154.49 160.773 2157.16 160.773 L2161.53 160.773 L2161.53 164.338 L2157.16 164.338 Q2152.23 164.338 2150.35 162.509 Q2148.48 160.657 2148.48 155.796 L2148.48 141.722 L2145.35 141.722 L2145.35 138.412 L2148.48 138.412 L2148.48 131.051 L2152.76 131.051 Z" fill="#000000" fill-rule="nonzero" fill-opacity="1" /><path clip-path="url(#clip080)" d="M2182.16 142.393 Q2181.44 141.977 2180.58 141.791 Q2179.75 141.583 2178.73 141.583 Q2175.12 141.583 2173.17 143.944 Q2171.25 146.282 2171.25 150.68 L2171.25 164.338 L2166.97 164.338 L2166.97 138.412 L2171.25 138.412 L2171.25 142.44 Q2172.6 140.078 2174.75 138.944 Q2176.9 137.787 2179.98 137.787 Q2180.42 137.787 2180.95 137.856 Q2181.48 137.903 2182.13 138.018 L2182.16 142.393 Z" fill="#000000" fill-rule="nonzero" fill-opacity="1" /><path clip-path="url(#clip080)" d="M2186.18 154.106 L2186.18 138.412 L2190.44 138.412 L2190.44 153.944 Q2190.44 157.625 2191.88 159.476 Q2193.31 161.305 2196.18 161.305 Q2199.63 161.305 2201.62 159.106 Q2203.64 156.907 2203.64 153.111 L2203.64 138.412 L2207.9 138.412 L2207.9 164.338 L2203.64 164.338 L2203.64 160.356 Q2202.09 162.717 2200.03 163.875 Q2197.99 165.009 2195.28 165.009 Q2190.81 165.009 2188.5 162.231 Q2186.18 159.453 2186.18 154.106 M2196.9 137.787 L2196.9 137.787 Z" fill="#000000" fill-rule="nonzero" fill-opacity="1" /><path clip-path="url(#clip080)" d="M2220.88 131.051 L2220.88 138.412 L2229.66 138.412 L2229.66 141.722 L2220.88 141.722 L2220.88 155.796 Q2220.88 158.967 2221.74 159.87 Q2222.62 160.773 2225.28 160.773 L2229.66 160.773 L2229.66 164.338 L2225.28 164.338 Q2220.35 164.338 2218.48 162.509 Q2216.6 160.657 2216.6 155.796 L2216.6 141.722 L2213.48 141.722 L2213.48 138.412 L2216.6 138.412 L2216.6 131.051 L2220.88 131.051 Z" fill="#000000" fill-rule="nonzero" fill-opacity="1" /><path clip-path="url(#clip080)" d="M2256.81 148.689 L2256.81 164.338 L2252.55 164.338 L2252.55 148.828 Q2252.55 145.148 2251.11 143.319 Q2249.68 141.49 2246.81 141.49 Q2243.36 141.49 2241.37 143.69 Q2239.38 145.889 2239.38 149.685 L2239.38 164.338 L2235.1 164.338 L2235.1 128.319 L2239.38 128.319 L2239.38 142.44 Q2240.91 140.102 2242.97 138.944 Q2245.05 137.787 2247.76 137.787 Q2252.23 137.787 2254.52 140.565 Q2256.81 143.319 2256.81 148.689 Z" fill="#000000" fill-rule="nonzero" fill-opacity="1" /><circle clip-path="url(#clip080)" cx="2049.4" cy="198.898" r="20.48" fill="#e26f46" fill-rule="evenodd" fill-opacity="1" stroke="#000000" stroke-opacity="1" stroke-width="4.55111"/>
<path clip-path="url(#clip080)" d="M2164.26 194.187 L2164.26 180.159 L2168.52 180.159 L2168.52 216.178 L2164.26 216.178 L2164.26 212.289 Q2162.92 214.603 2160.86 215.738 Q2158.82 216.849 2155.95 216.849 Q2151.25 216.849 2148.29 213.099 Q2145.35 209.349 2145.35 203.238 Q2145.35 197.127 2148.29 193.377 Q2151.25 189.627 2155.95 189.627 Q2158.82 189.627 2160.86 190.761 Q2162.92 191.872 2164.26 194.187 M2149.75 203.238 Q2149.75 207.937 2151.67 210.622 Q2153.61 213.284 2156.99 213.284 Q2160.37 213.284 2162.32 210.622 Q2164.26 207.937 2164.26 203.238 Q2164.26 198.539 2162.32 195.877 Q2160.37 193.192 2156.99 193.192 Q2153.61 193.192 2151.67 195.877 Q2149.75 198.539 2149.75 203.238 Z" fill="#000000" fill-rule="nonzero" fill-opacity="1" /><path clip-path="url(#clip080)" d="M2189.08 203.145 Q2183.92 203.145 2181.92 204.326 Q2179.93 205.506 2179.93 208.354 Q2179.93 210.622 2181.42 211.965 Q2182.92 213.284 2185.49 213.284 Q2189.03 213.284 2191.16 210.784 Q2193.31 208.261 2193.31 204.094 L2193.31 203.145 L2189.08 203.145 M2197.57 201.386 L2197.57 216.178 L2193.31 216.178 L2193.31 212.242 Q2191.85 214.603 2189.68 215.738 Q2187.5 216.849 2184.36 216.849 Q2180.37 216.849 2178.01 214.627 Q2175.67 212.381 2175.67 208.631 Q2175.67 204.256 2178.59 202.034 Q2181.53 199.812 2187.34 199.812 L2193.31 199.812 L2193.31 199.395 Q2193.31 196.455 2191.37 194.858 Q2189.45 193.238 2185.95 193.238 Q2183.73 193.238 2181.62 193.77 Q2179.52 194.303 2177.57 195.367 L2177.57 191.432 Q2179.91 190.53 2182.11 190.09 Q2184.31 189.627 2186.39 189.627 Q2192.02 189.627 2194.79 192.543 Q2197.57 195.46 2197.57 201.386 Z" fill="#000000" fill-rule="nonzero" fill-opacity="1" /><path clip-path="url(#clip080)" d="M2210.56 182.891 L2210.56 190.252 L2219.33 190.252 L2219.33 193.562 L2210.56 193.562 L2210.56 207.636 Q2210.56 210.807 2211.42 211.71 Q2212.29 212.613 2214.96 212.613 L2219.33 212.613 L2219.33 216.178 L2214.96 216.178 Q2210.03 216.178 2208.15 214.349 Q2206.28 212.497 2206.28 207.636 L2206.28 193.562 L2203.15 193.562 L2203.15 190.252 L2206.28 190.252 L2206.28 182.891 L2210.56 182.891 Z" fill="#000000" fill-rule="nonzero" fill-opacity="1" /><path clip-path="url(#clip080)" d="M2236.72 203.145 Q2231.55 203.145 2229.56 204.326 Q2227.57 205.506 2227.57 208.354 Q2227.57 210.622 2229.05 211.965 Q2230.56 213.284 2233.13 213.284 Q2236.67 213.284 2238.8 210.784 Q2240.95 208.261 2240.95 204.094 L2240.95 203.145 L2236.72 203.145 M2245.21 201.386 L2245.21 216.178 L2240.95 216.178 L2240.95 212.242 Q2239.49 214.603 2237.32 215.738 Q2235.14 216.849 2231.99 216.849 Q2228.01 216.849 2225.65 214.627 Q2223.31 212.381 2223.31 208.631 Q2223.31 204.256 2226.23 202.034 Q2229.17 199.812 2234.98 199.812 L2240.95 199.812 L2240.95 199.395 Q2240.95 196.455 2239.01 194.858 Q2237.09 193.238 2233.59 193.238 Q2231.37 193.238 2229.26 193.77 Q2227.16 194.303 2225.21 195.367 L2225.21 191.432 Q2227.55 190.53 2229.75 190.09 Q2231.95 189.627 2234.03 189.627 Q2239.66 189.627 2242.43 192.543 Q2245.21 195.46 2245.21 201.386 Z" fill="#000000" fill-rule="nonzero" fill-opacity="1" /></svg>
