<?xml version="1.0" encoding="utf-8"?>
<svg xmlns="http://www.w3.org/2000/svg" xmlns:xlink="http://www.w3.org/1999/xlink" width="600" height="400" viewBox="0 0 2400 1600">
<defs>
  <clipPath id="clip940">
    <rect x="0" y="0" width="2400" height="1600"/>
  </clipPath>
</defs>
<path clip-path="url(#clip940)" d="M0 1600 L2400 1600 L2400 0 L0 0  Z" fill="#ffffff" fill-rule="evenodd" fill-opacity="1"/>
<defs>
  <clipPath id="clip941">
    <rect x="141" y="47" width="2212" height="1440"/>
  </clipPath>
</defs>
<path clip-path="url(#clip940)" d="M141.853 1486.45 L2352.76 1486.45 L2352.76 47.2441 L141.853 47.2441  Z" fill="#ffffff" fill-rule="evenodd" fill-opacity="1"/>
<polyline clip-path="url(#clip941)" style="stroke:#000000; stroke-linecap:round; stroke-linejoin:round; stroke-width:2; stroke-opacity:0.1; fill:none" points="204.426,1486.45 204.426,47.2441 "/>
<polyline clip-path="url(#clip941)" style="stroke:#000000; stroke-linecap:round; stroke-linejoin:round; stroke-width:2; stroke-opacity:0.1; fill:none" points="725.865,1486.45 725.865,47.2441 "/>
<polyline clip-path="url(#clip941)" style="stroke:#000000; stroke-linecap:round; stroke-linejoin:round; stroke-width:2; stroke-opacity:0.1; fill:none" points="1247.3,1486.45 1247.3,47.2441 "/>
<polyline clip-path="url(#clip941)" style="stroke:#000000; stroke-linecap:round; stroke-linejoin:round; stroke-width:2; stroke-opacity:0.1; fill:none" points="1768.74,1486.45 1768.74,47.2441 "/>
<polyline clip-path="url(#clip941)" style="stroke:#000000; stroke-linecap:round; stroke-linejoin:round; stroke-width:2; stroke-opacity:0.1; fill:none" points="2290.18,1486.45 2290.18,47.2441 "/>
<polyline clip-path="url(#clip941)" style="stroke:#000000; stroke-linecap:round; stroke-linejoin:round; stroke-width:2; stroke-opacity:0.1; fill:none" points="141.853,1445.72 2352.76,1445.72 "/>
<polyline clip-path="url(#clip941)" style="stroke:#000000; stroke-linecap:round; stroke-linejoin:round; stroke-width:2; stroke-opacity:0.1; fill:none" points="141.853,1117.93 2352.76,1117.93 "/>
<polyline clip-path="url(#clip941)" style="stroke:#000000; stroke-linecap:round; stroke-linejoin:round; stroke-width:2; stroke-opacity:0.1; fill:none" points="141.853,790.137 2352.76,790.137 "/>
<polyline clip-path="url(#clip941)" style="stroke:#000000; stroke-linecap:round; stroke-linejoin:round; stroke-width:2; stroke-opacity:0.1; fill:none" points="141.853,462.348 2352.76,462.348 "/>
<polyline clip-path="url(#clip941)" style="stroke:#000000; stroke-linecap:round; stroke-linejoin:round; stroke-width:2; stroke-opacity:0.1; fill:none" points="141.853,134.559 2352.76,134.559 "/>
<polyline clip-path="url(#clip940)" style="stroke:#000000; stroke-linecap:round; stroke-linejoin:round; stroke-width:4; stroke-opacity:1; fill:none" points="141.853,1486.45 2352.76,1486.45 "/>
<polyline clip-path="url(#clip940)" style="stroke:#000000; stroke-linecap:round; stroke-linejoin:round; stroke-width:4; stroke-opacity:1; fill:none" points="204.426,1486.45 204.426,1467.55 "/>
<polyline clip-path="url(#clip940)" style="stroke:#000000; stroke-linecap:round; stroke-linejoin:round; stroke-width:4; stroke-opacity:1; fill:none" points="725.865,1486.45 725.865,1467.55 "/>
<polyline clip-path="url(#clip940)" style="stroke:#000000; stroke-linecap:round; stroke-linejoin:round; stroke-width:4; stroke-opacity:1; fill:none" points="1247.3,1486.45 1247.3,1467.55 "/>
<polyline clip-path="url(#clip940)" style="stroke:#000000; stroke-linecap:round; stroke-linejoin:round; stroke-width:4; stroke-opacity:1; fill:none" points="1768.74,1486.45 1768.74,1467.55 "/>
<polyline clip-path="url(#clip940)" style="stroke:#000000; stroke-linecap:round; stroke-linejoin:round; stroke-width:4; stroke-opacity:1; fill:none" points="2290.18,1486.45 2290.18,1467.55 "/>
<path clip-path="url(#clip940)" d="M158.488 1532.02 L188.164 1532.02 L188.164 1535.95 L158.488 1535.95 L158.488 1532.02 Z" fill="#000000" fill-rule="nonzero" fill-opacity="1" /><path clip-path="url(#clip940)" d="M202.284 1544.91 L218.604 1544.91 L218.604 1548.85 L196.66 1548.85 L196.66 1544.91 Q199.322 1542.16 203.905 1537.53 Q208.511 1532.88 209.692 1531.53 Q211.937 1529.01 212.817 1527.27 Q213.72 1525.51 213.72 1523.82 Q213.72 1521.07 211.775 1519.33 Q209.854 1517.6 206.752 1517.6 Q204.553 1517.6 202.099 1518.36 Q199.669 1519.13 196.891 1520.68 L196.891 1515.95 Q199.715 1514.82 202.169 1514.24 Q204.622 1513.66 206.659 1513.66 Q212.03 1513.66 215.224 1516.35 Q218.419 1519.03 218.419 1523.52 Q218.419 1525.65 217.608 1527.57 Q216.821 1529.47 214.715 1532.07 Q214.136 1532.74 211.034 1535.95 Q207.933 1539.15 202.284 1544.91 Z" fill="#000000" fill-rule="nonzero" fill-opacity="1" /><path clip-path="url(#clip940)" d="M238.419 1517.37 Q234.807 1517.37 232.979 1520.93 Q231.173 1524.47 231.173 1531.6 Q231.173 1538.71 232.979 1542.27 Q234.807 1545.82 238.419 1545.82 Q242.053 1545.82 243.858 1542.27 Q245.687 1538.71 245.687 1531.6 Q245.687 1524.47 243.858 1520.93 Q242.053 1517.37 238.419 1517.37 M238.419 1513.66 Q244.229 1513.66 247.284 1518.27 Q250.363 1522.85 250.363 1531.6 Q250.363 1540.33 247.284 1544.94 Q244.229 1549.52 238.419 1549.52 Q232.608 1549.52 229.53 1544.94 Q226.474 1540.33 226.474 1531.6 Q226.474 1522.85 229.53 1518.27 Q232.608 1513.66 238.419 1513.66 Z" fill="#000000" fill-rule="nonzero" fill-opacity="1" /><path clip-path="url(#clip940)" d="M679.928 1532.02 L709.604 1532.02 L709.604 1535.95 L679.928 1535.95 L679.928 1532.02 Z" fill="#000000" fill-rule="nonzero" fill-opacity="1" /><path clip-path="url(#clip940)" d="M720.506 1544.91 L728.145 1544.91 L728.145 1518.55 L719.835 1520.21 L719.835 1515.95 L728.099 1514.29 L732.775 1514.29 L732.775 1544.91 L740.414 1544.91 L740.414 1548.85 L720.506 1548.85 L720.506 1544.91 Z" fill="#000000" fill-rule="nonzero" fill-opacity="1" /><path clip-path="url(#clip940)" d="M759.858 1517.37 Q756.247 1517.37 754.418 1520.93 Q752.613 1524.47 752.613 1531.6 Q752.613 1538.71 754.418 1542.27 Q756.247 1545.82 759.858 1545.82 Q763.492 1545.82 765.298 1542.27 Q767.126 1538.71 767.126 1531.6 Q767.126 1524.47 765.298 1520.93 Q763.492 1517.37 759.858 1517.37 M759.858 1513.66 Q765.668 1513.66 768.724 1518.27 Q771.802 1522.85 771.802 1531.6 Q771.802 1540.33 768.724 1544.94 Q765.668 1549.52 759.858 1549.52 Q754.048 1549.52 750.969 1544.94 Q747.914 1540.33 747.914 1531.6 Q747.914 1522.85 750.969 1518.27 Q754.048 1513.66 759.858 1513.66 Z" fill="#000000" fill-rule="nonzero" fill-opacity="1" /><path clip-path="url(#clip940)" d="M1247.3 1517.37 Q1243.69 1517.37 1241.86 1520.93 Q1240.06 1524.47 1240.06 1531.6 Q1240.06 1538.71 1241.86 1542.27 Q1243.69 1545.82 1247.3 1545.82 Q1250.94 1545.82 1252.74 1542.27 Q1254.57 1538.71 1254.57 1531.6 Q1254.57 1524.47 1252.74 1520.93 Q1250.94 1517.37 1247.3 1517.37 M1247.3 1513.66 Q1253.11 1513.66 1256.17 1518.27 Q1259.25 1522.85 1259.25 1531.6 Q1259.25 1540.33 1256.17 1544.94 Q1253.11 1549.52 1247.3 1549.52 Q1241.49 1549.52 1238.42 1544.94 Q1235.36 1540.33 1235.36 1531.6 Q1235.36 1522.85 1238.42 1518.27 Q1241.49 1513.66 1247.3 1513.66 Z" fill="#000000" fill-rule="nonzero" fill-opacity="1" /><path clip-path="url(#clip940)" d="M1743.43 1544.91 L1751.07 1544.91 L1751.07 1518.55 L1742.76 1520.21 L1742.76 1515.95 L1751.02 1514.29 L1755.7 1514.29 L1755.7 1544.91 L1763.34 1544.91 L1763.34 1548.85 L1743.43 1548.85 L1743.43 1544.91 Z" fill="#000000" fill-rule="nonzero" fill-opacity="1" /><path clip-path="url(#clip940)" d="M1782.78 1517.37 Q1779.17 1517.37 1777.34 1520.93 Q1775.54 1524.47 1775.54 1531.6 Q1775.54 1538.71 1777.34 1542.27 Q1779.17 1545.82 1782.78 1545.82 Q1786.42 1545.82 1788.22 1542.27 Q1790.05 1538.71 1790.05 1531.6 Q1790.05 1524.47 1788.22 1520.93 Q1786.42 1517.37 1782.78 1517.37 M1782.78 1513.66 Q1788.59 1513.66 1791.65 1518.27 Q1794.73 1522.85 1794.73 1531.6 Q1794.73 1540.33 1791.65 1544.94 Q1788.59 1549.52 1782.78 1549.52 Q1776.97 1549.52 1773.89 1544.94 Q1770.84 1540.33 1770.84 1531.6 Q1770.84 1522.85 1773.89 1518.27 Q1776.97 1513.66 1782.78 1513.66 Z" fill="#000000" fill-rule="nonzero" fill-opacity="1" /><path clip-path="url(#clip940)" d="M2268.96 1544.91 L2285.28 1544.91 L2285.28 1548.85 L2263.33 1548.85 L2263.33 1544.91 Q2265.99 1542.16 2270.58 1537.53 Q2275.18 1532.88 2276.36 1531.53 Q2278.61 1529.01 2279.49 1527.27 Q2280.39 1525.51 2280.39 1523.82 Q2280.39 1521.07 2278.45 1519.33 Q2276.53 1517.6 2273.42 1517.6 Q2271.22 1517.6 2268.77 1518.36 Q2266.34 1519.13 2263.56 1520.68 L2263.56 1515.95 Q2266.39 1514.82 2268.84 1514.24 Q2271.29 1513.66 2273.33 1513.66 Q2278.7 1513.66 2281.9 1516.35 Q2285.09 1519.03 2285.09 1523.52 Q2285.09 1525.65 2284.28 1527.57 Q2283.49 1529.47 2281.39 1532.07 Q2280.81 1532.74 2277.71 1535.95 Q2274.6 1539.15 2268.96 1544.91 Z" fill="#000000" fill-rule="nonzero" fill-opacity="1" /><path clip-path="url(#clip940)" d="M2305.09 1517.37 Q2301.48 1517.37 2299.65 1520.93 Q2297.85 1524.47 2297.85 1531.6 Q2297.85 1538.71 2299.65 1542.27 Q2301.48 1545.82 2305.09 1545.82 Q2308.72 1545.82 2310.53 1542.27 Q2312.36 1538.71 2312.36 1531.6 Q2312.36 1524.47 2310.53 1520.93 Q2308.72 1517.37 2305.09 1517.37 M2305.09 1513.66 Q2310.9 1513.66 2313.96 1518.27 Q2317.03 1522.85 2317.03 1531.6 Q2317.03 1540.33 2313.96 1544.94 Q2310.9 1549.52 2305.09 1549.52 Q2299.28 1549.52 2296.2 1544.94 Q2293.15 1540.33 2293.15 1531.6 Q2293.15 1522.85 2296.2 1518.27 Q2299.28 1513.66 2305.09 1513.66 Z" fill="#000000" fill-rule="nonzero" fill-opacity="1" /><polyline clip-path="url(#clip940)" style="stroke:#000000; stroke-linecap:round; stroke-linejoin:round; stroke-width:4; stroke-opacity:1; fill:none" points="141.853,1486.45 141.853,47.2441 "/>
<polyline clip-path="url(#clip940)" style="stroke:#000000; stroke-linecap:round; stroke-linejoin:round; stroke-width:4; stroke-opacity:1; fill:none" points="141.853,1445.72 160.751,1445.72 "/>
<polyline clip-path="url(#clip940)" style="stroke:#000000; stroke-linecap:round; stroke-linejoin:round; stroke-width:4; stroke-opacity:1; fill:none" points="141.853,1117.93 160.751,1117.93 "/>
<polyline clip-path="url(#clip940)" style="stroke:#000000; stroke-linecap:round; stroke-linejoin:round; stroke-width:4; stroke-opacity:1; fill:none" points="141.853,790.137 160.751,790.137 "/>
<polyline clip-path="url(#clip940)" style="stroke:#000000; stroke-linecap:round; stroke-linejoin:round; stroke-width:4; stroke-opacity:1; fill:none" points="141.853,462.348 160.751,462.348 "/>
<polyline clip-path="url(#clip940)" style="stroke:#000000; stroke-linecap:round; stroke-linejoin:round; stroke-width:4; stroke-opacity:1; fill:none" points="141.853,134.559 160.751,134.559 "/>
<path clip-path="url(#clip940)" d="M93.9086 1431.51 Q90.2975 1431.51 88.4688 1435.08 Q86.6632 1438.62 86.6632 1445.75 Q86.6632 1452.86 88.4688 1456.42 Q90.2975 1459.96 93.9086 1459.96 Q97.5428 1459.96 99.3483 1456.42 Q101.177 1452.86 101.177 1445.75 Q101.177 1438.62 99.3483 1435.08 Q97.5428 1431.51 93.9086 1431.51 M93.9086 1427.81 Q99.7187 1427.81 102.774 1432.42 Q105.853 1437 105.853 1445.75 Q105.853 1454.48 102.774 1459.08 Q99.7187 1463.67 93.9086 1463.67 Q88.0984 1463.67 85.0197 1459.08 Q81.9642 1454.48 81.9642 1445.75 Q81.9642 1437 85.0197 1432.42 Q88.0984 1427.81 93.9086 1427.81 Z" fill="#000000" fill-rule="nonzero" fill-opacity="1" /><path clip-path="url(#clip940)" d="M54.5569 1131.27 L62.1958 1131.27 L62.1958 1104.91 L53.8856 1106.57 L53.8856 1102.31 L62.1495 1100.65 L66.8254 1100.65 L66.8254 1131.27 L74.4642 1131.27 L74.4642 1135.21 L54.5569 1135.21 L54.5569 1131.27 Z" fill="#000000" fill-rule="nonzero" fill-opacity="1" /><path clip-path="url(#clip940)" d="M93.9086 1103.73 Q90.2975 1103.73 88.4688 1107.29 Q86.6632 1110.83 86.6632 1117.96 Q86.6632 1125.07 88.4688 1128.63 Q90.2975 1132.17 93.9086 1132.17 Q97.5428 1132.17 99.3483 1128.63 Q101.177 1125.07 101.177 1117.96 Q101.177 1110.83 99.3483 1107.29 Q97.5428 1103.73 93.9086 1103.73 M93.9086 1100.02 Q99.7187 1100.02 102.774 1104.63 Q105.853 1109.21 105.853 1117.96 Q105.853 1126.69 102.774 1131.29 Q99.7187 1135.88 93.9086 1135.88 Q88.0984 1135.88 85.0197 1131.29 Q81.9642 1126.69 81.9642 1117.96 Q81.9642 1109.21 85.0197 1104.63 Q88.0984 1100.02 93.9086 1100.02 Z" fill="#000000" fill-rule="nonzero" fill-opacity="1" /><path clip-path="url(#clip940)" d="M57.7745 803.482 L74.0939 803.482 L74.0939 807.417 L52.1495 807.417 L52.1495 803.482 Q54.8115 800.727 59.3949 796.098 Q64.0013 791.445 65.1819 790.102 Q67.4272 787.579 68.3068 785.843 Q69.2096 784.084 69.2096 782.394 Q69.2096 779.64 67.2652 777.903 Q65.3439 776.167 62.2421 776.167 Q60.043 776.167 57.5893 776.931 Q55.1588 777.695 52.381 779.246 L52.381 774.524 Q55.2051 773.39 57.6588 772.811 Q60.1124 772.232 62.1495 772.232 Q67.5198 772.232 70.7142 774.917 Q73.9087 777.602 73.9087 782.093 Q73.9087 784.223 73.0985 786.144 Q72.3115 788.042 70.205 790.635 Q69.6263 791.306 66.5245 794.524 Q63.4226 797.718 57.7745 803.482 Z" fill="#000000" fill-rule="nonzero" fill-opacity="1" /><path clip-path="url(#clip940)" d="M93.9086 775.936 Q90.2975 775.936 88.4688 779.501 Q86.6632 783.042 86.6632 790.172 Q86.6632 797.278 88.4688 800.843 Q90.2975 804.385 93.9086 804.385 Q97.5428 804.385 99.3483 800.843 Q101.177 797.278 101.177 790.172 Q101.177 783.042 99.3483 779.501 Q97.5428 775.936 93.9086 775.936 M93.9086 772.232 Q99.7187 772.232 102.774 776.839 Q105.853 781.422 105.853 790.172 Q105.853 798.899 102.774 803.505 Q99.7187 808.088 93.9086 808.088 Q88.0984 808.088 85.0197 803.505 Q81.9642 798.899 81.9642 790.172 Q81.9642 781.422 85.0197 776.839 Q88.0984 772.232 93.9086 772.232 Z" fill="#000000" fill-rule="nonzero" fill-opacity="1" /><path clip-path="url(#clip940)" d="M67.9133 460.994 Q71.2698 461.711 73.1448 463.98 Q75.0429 466.248 75.0429 469.582 Q75.0429 474.697 71.5244 477.498 Q68.0059 480.299 61.5245 480.299 Q59.3486 480.299 57.0338 479.859 Q54.7421 479.443 52.2884 478.586 L52.2884 474.072 Q54.2328 475.207 56.5477 475.785 Q58.8625 476.364 61.3856 476.364 Q65.7837 476.364 68.0754 474.628 Q70.3902 472.892 70.3902 469.582 Q70.3902 466.526 68.2374 464.813 Q66.1078 463.077 62.2884 463.077 L58.2606 463.077 L58.2606 459.234 L62.4735 459.234 Q65.9226 459.234 67.7513 457.869 Q69.58 456.48 69.58 453.887 Q69.58 451.225 67.6819 449.813 Q65.8069 448.378 62.2884 448.378 Q60.3671 448.378 58.168 448.795 Q55.969 449.211 53.3301 450.091 L53.3301 445.924 Q55.9921 445.184 58.3069 444.813 Q60.6449 444.443 62.705 444.443 Q68.0291 444.443 71.1309 446.873 Q74.2327 449.281 74.2327 453.401 Q74.2327 456.272 72.5892 458.262 Q70.9457 460.23 67.9133 460.994 Z" fill="#000000" fill-rule="nonzero" fill-opacity="1" /><path clip-path="url(#clip940)" d="M93.9086 448.147 Q90.2975 448.147 88.4688 451.711 Q86.6632 455.253 86.6632 462.383 Q86.6632 469.489 88.4688 473.054 Q90.2975 476.595 93.9086 476.595 Q97.5428 476.595 99.3483 473.054 Q101.177 469.489 101.177 462.383 Q101.177 455.253 99.3483 451.711 Q97.5428 448.147 93.9086 448.147 M93.9086 444.443 Q99.7187 444.443 102.774 449.049 Q105.853 453.633 105.853 462.383 Q105.853 471.109 102.774 475.716 Q99.7187 480.299 93.9086 480.299 Q88.0984 480.299 85.0197 475.716 Q81.9642 471.109 81.9642 462.383 Q81.9642 453.633 85.0197 449.049 Q88.0984 444.443 93.9086 444.443 Z" fill="#000000" fill-rule="nonzero" fill-opacity="1" /><path clip-path="url(#clip940)" d="M66.5939 121.353 L54.7884 139.802 L66.5939 139.802 L66.5939 121.353 M65.367 117.279 L71.2466 117.279 L71.2466 139.802 L76.1772 139.802 L76.1772 143.691 L71.2466 143.691 L71.2466 151.839 L66.5939 151.839 L66.5939 143.691 L50.9921 143.691 L50.9921 139.177 L65.367 117.279 Z" fill="#000000" fill-rule="nonzero" fill-opacity="1" /><path clip-path="url(#clip940)" d="M93.9086 120.357 Q90.2975 120.357 88.4688 123.922 Q86.6632 127.464 86.6632 134.593 Q86.6632 141.7 88.4688 145.265 Q90.2975 148.806 93.9086 148.806 Q97.5428 148.806 99.3483 145.265 Q101.177 141.7 101.177 134.593 Q101.177 127.464 99.3483 123.922 Q97.5428 120.357 93.9086 120.357 M93.9086 116.654 Q99.7187 116.654 102.774 121.26 Q105.853 125.843 105.853 134.593 Q105.853 143.32 102.774 147.927 Q99.7187 152.51 93.9086 152.51 Q88.0984 152.51 85.0197 147.927 Q81.9642 143.32 81.9642 134.593 Q81.9642 125.843 85.0197 121.26 Q88.0984 116.654 93.9086 116.654 Z" fill="#000000" fill-rule="nonzero" fill-opacity="1" /><polyline clip-path="url(#clip941)" style="stroke:#009af9; stroke-linecap:round; stroke-linejoin:round; stroke-width:4; stroke-opacity:1; fill:none" points="204.426,87.9763 256.57,155.208 308.714,222.44 360.857,289.671 413.001,356.903 465.145,424.135 517.289,491.366 569.433,558.598 621.577,625.83 673.721,693.061 725.865,760.293 778.009,827.525 830.153,894.756 882.297,961.988 934.441,1029.22 986.585,1096.45 1038.73,1163.68 1090.87,1230.91 1143.02,1298.15 1195.16,1364.93 1247.3,1422.32 1299.45,1445.72 1351.59,1445.72 1403.74,1445.72 1455.88,1445.72 1508.02,1445.72 1560.17,1445.72 1612.31,1445.72 1664.46,1445.72 1716.6,1445.72 1768.74,1445.72 1820.89,1445.72 1873.03,1445.72 1925.18,1445.72 1977.32,1445.72 2029.46,1445.72 2081.61,1445.72 2133.75,1445.72 2185.9,1445.72 2238.04,1445.72 2290.18,1445.72 "/>
<path clip-path="url(#clip940)" d="M2005.54 198.898 L2279.06 198.898 L2279.06 95.2176 L2005.54 95.2176  Z" fill="#ffffff" fill-rule="evenodd" fill-opacity="1"/>
<polyline clip-path="url(#clip940)" style="stroke:#000000; stroke-linecap:round; stroke-linejoin:round; stroke-width:4; stroke-opacity:1; fill:none" points="2005.54,198.898 2279.06,198.898 2279.06,95.2176 2005.54,95.2176 2005.54,198.898 "/>
<polyline clip-path="url(#clip940)" style="stroke:#009af9; stroke-linecap:round; stroke-linejoin:round; stroke-width:4; stroke-opacity:1; fill:none" points="2030.1,147.058 2177.5,147.058 "/>
<path clip-path="url(#clip940)" d="M2215.91 166.745 Q2214.1 171.375 2212.39 172.787 Q2210.67 174.199 2207.8 174.199 L2204.4 174.199 L2204.4 170.634 L2206.9 170.634 Q2208.66 170.634 2209.63 169.8 Q2210.6 168.967 2211.79 165.865 L2212.55 163.921 L2202.06 138.412 L2206.58 138.412 L2214.68 158.689 L2222.78 138.412 L2227.29 138.412 L2215.91 166.745 Z" fill="#000000" fill-rule="nonzero" fill-opacity="1" /><path clip-path="url(#clip940)" d="M2234.59 160.402 L2242.23 160.402 L2242.23 134.037 L2233.91 135.703 L2233.91 131.444 L2242.18 129.778 L2246.85 129.778 L2246.85 160.402 L2254.49 160.402 L2254.49 164.338 L2234.59 164.338 L2234.59 160.402 Z" fill="#000000" fill-rule="nonzero" fill-opacity="1" /></svg>
