<?xml version="1.0" encoding="utf-8"?>
<svg xmlns="http://www.w3.org/2000/svg" xmlns:xlink="http://www.w3.org/1999/xlink" width="600" height="400" viewBox="0 0 2400 1600">
<defs>
  <clipPath id="clip000">
    <rect x="0" y="0" width="2400" height="1600"/>
  </clipPath>
</defs>
<path clip-path="url(#clip000)" d="M0 1600 L2400 1600 L2400 0 L0 0  Z" fill="#ffffff" fill-rule="evenodd" fill-opacity="1"/>
<defs>
  <clipPath id="clip001">
    <rect x="480" y="0" width="1681" height="1600"/>
  </clipPath>
</defs>
<path clip-path="url(#clip000)" d="M193.936 1486.45 L2352.76 1486.45 L2352.76 47.2441 L193.936 47.2441  Z" fill="#ffffff" fill-rule="evenodd" fill-opacity="1"/>
<defs>
  <clipPath id="clip002">
    <rect x="193" y="47" width="2160" height="1440"/>
  </clipPath>
</defs>
<polyline clip-path="url(#clip002)" style="stroke:#000000; stroke-linecap:round; stroke-linejoin:round; stroke-width:2; stroke-opacity:0.1; fill:none" points="255.035,1486.45 255.035,47.2441 "/>
<polyline clip-path="url(#clip002)" style="stroke:#000000; stroke-linecap:round; stroke-linejoin:round; stroke-width:2; stroke-opacity:0.1; fill:none" points="579.338,1486.45 579.338,47.2441 "/>
<polyline clip-path="url(#clip002)" style="stroke:#000000; stroke-linecap:round; stroke-linejoin:round; stroke-width:2; stroke-opacity:0.1; fill:none" points="903.641,1486.45 903.641,47.2441 "/>
<polyline clip-path="url(#clip002)" style="stroke:#000000; stroke-linecap:round; stroke-linejoin:round; stroke-width:2; stroke-opacity:0.1; fill:none" points="1227.94,1486.45 1227.94,47.2441 "/>
<polyline clip-path="url(#clip002)" style="stroke:#000000; stroke-linecap:round; stroke-linejoin:round; stroke-width:2; stroke-opacity:0.1; fill:none" points="1552.25,1486.45 1552.25,47.2441 "/>
<polyline clip-path="url(#clip002)" style="stroke:#000000; stroke-linecap:round; stroke-linejoin:round; stroke-width:2; stroke-opacity:0.1; fill:none" points="1876.55,1486.45 1876.55,47.2441 "/>
<polyline clip-path="url(#clip002)" style="stroke:#000000; stroke-linecap:round; stroke-linejoin:round; stroke-width:2; stroke-opacity:0.1; fill:none" points="2200.85,1486.45 2200.85,47.2441 "/>
<polyline clip-path="url(#clip002)" style="stroke:#000000; stroke-linecap:round; stroke-linejoin:round; stroke-width:2; stroke-opacity:0.1; fill:none" points="193.936,1283.86 2352.76,1283.86 "/>
<polyline clip-path="url(#clip002)" style="stroke:#000000; stroke-linecap:round; stroke-linejoin:round; stroke-width:2; stroke-opacity:0.1; fill:none" points="193.936,1028.77 2352.76,1028.77 "/>
<polyline clip-path="url(#clip002)" style="stroke:#000000; stroke-linecap:round; stroke-linejoin:round; stroke-width:2; stroke-opacity:0.1; fill:none" points="193.936,773.674 2352.76,773.674 "/>
<polyline clip-path="url(#clip002)" style="stroke:#000000; stroke-linecap:round; stroke-linejoin:round; stroke-width:2; stroke-opacity:0.1; fill:none" points="193.936,518.582 2352.76,518.582 "/>
<polyline clip-path="url(#clip002)" style="stroke:#000000; stroke-linecap:round; stroke-linejoin:round; stroke-width:2; stroke-opacity:0.1; fill:none" points="193.936,263.49 2352.76,263.49 "/>
<polyline clip-path="url(#clip000)" style="stroke:#000000; stroke-linecap:round; stroke-linejoin:round; stroke-width:4; stroke-opacity:1; fill:none" points="193.936,1486.45 2352.76,1486.45 "/>
<polyline clip-path="url(#clip000)" style="stroke:#000000; stroke-linecap:round; stroke-linejoin:round; stroke-width:4; stroke-opacity:1; fill:none" points="255.035,1486.45 255.035,1467.55 "/>
<polyline clip-path="url(#clip000)" style="stroke:#000000; stroke-linecap:round; stroke-linejoin:round; stroke-width:4; stroke-opacity:1; fill:none" points="579.338,1486.45 579.338,1467.55 "/>
<polyline clip-path="url(#clip000)" style="stroke:#000000; stroke-linecap:round; stroke-linejoin:round; stroke-width:4; stroke-opacity:1; fill:none" points="903.641,1486.45 903.641,1467.55 "/>
<polyline clip-path="url(#clip000)" style="stroke:#000000; stroke-linecap:round; stroke-linejoin:round; stroke-width:4; stroke-opacity:1; fill:none" points="1227.94,1486.45 1227.94,1467.55 "/>
<polyline clip-path="url(#clip000)" style="stroke:#000000; stroke-linecap:round; stroke-linejoin:round; stroke-width:4; stroke-opacity:1; fill:none" points="1552.25,1486.45 1552.25,1467.55 "/>
<polyline clip-path="url(#clip000)" style="stroke:#000000; stroke-linecap:round; stroke-linejoin:round; stroke-width:4; stroke-opacity:1; fill:none" points="1876.55,1486.45 1876.55,1467.55 "/>
<polyline clip-path="url(#clip000)" style="stroke:#000000; stroke-linecap:round; stroke-linejoin:round; stroke-width:4; stroke-opacity:1; fill:none" points="2200.85,1486.45 2200.85,1467.55 "/>
<path clip-path="url(#clip000)" d="M255.035 1517.37 Q251.424 1517.37 249.595 1520.93 Q247.789 1524.47 247.789 1531.6 Q247.789 1538.71 249.595 1542.27 Q251.424 1545.82 255.035 1545.82 Q258.669 1545.82 260.474 1542.27 Q262.303 1538.71 262.303 1531.6 Q262.303 1524.47 260.474 1520.93 Q258.669 1517.37 255.035 1517.37 M255.035 1513.66 Q260.845 1513.66 263.9 1518.27 Q266.979 1522.85 266.979 1531.6 Q266.979 1540.33 263.9 1544.94 Q260.845 1549.52 255.035 1549.52 Q249.225 1549.52 246.146 1544.94 Q243.09 1540.33 243.09 1531.6 Q243.09 1522.85 246.146 1518.27 Q249.225 1513.66 255.035 1513.66 Z" fill="#000000" fill-rule="nonzero" fill-opacity="1" /><path clip-path="url(#clip000)" d="M569.72 1544.91 L577.358 1544.91 L577.358 1518.55 L569.048 1520.21 L569.048 1515.95 L577.312 1514.29 L581.988 1514.29 L581.988 1544.91 L589.627 1544.91 L589.627 1548.85 L569.72 1548.85 L569.72 1544.91 Z" fill="#000000" fill-rule="nonzero" fill-opacity="1" /><path clip-path="url(#clip000)" d="M898.293 1544.91 L914.613 1544.91 L914.613 1548.85 L892.668 1548.85 L892.668 1544.91 Q895.33 1542.16 899.914 1537.53 Q904.52 1532.88 905.701 1531.53 Q907.946 1529.01 908.826 1527.27 Q909.729 1525.51 909.729 1523.82 Q909.729 1521.07 907.784 1519.33 Q905.863 1517.6 902.761 1517.6 Q900.562 1517.6 898.108 1518.36 Q895.678 1519.13 892.9 1520.68 L892.9 1515.95 Q895.724 1514.82 898.178 1514.24 Q900.631 1513.66 902.668 1513.66 Q908.039 1513.66 911.233 1516.35 Q914.428 1519.03 914.428 1523.52 Q914.428 1525.65 913.617 1527.57 Q912.83 1529.47 910.724 1532.07 Q910.145 1532.74 907.043 1535.95 Q903.942 1539.15 898.293 1544.91 Z" fill="#000000" fill-rule="nonzero" fill-opacity="1" /><path clip-path="url(#clip000)" d="M1232.19 1530.21 Q1235.55 1530.93 1237.42 1533.2 Q1239.32 1535.47 1239.32 1538.8 Q1239.32 1543.92 1235.8 1546.72 Q1232.28 1549.52 1225.8 1549.52 Q1223.63 1549.52 1221.31 1549.08 Q1219.02 1548.66 1216.57 1547.81 L1216.57 1543.29 Q1218.51 1544.43 1220.83 1545.01 Q1223.14 1545.58 1225.66 1545.58 Q1230.06 1545.58 1232.35 1543.85 Q1234.67 1542.11 1234.67 1538.8 Q1234.67 1535.75 1232.52 1534.03 Q1230.39 1532.3 1226.57 1532.3 L1222.54 1532.3 L1222.54 1528.45 L1226.75 1528.45 Q1230.2 1528.45 1232.03 1527.09 Q1233.86 1525.7 1233.86 1523.11 Q1233.86 1520.45 1231.96 1519.03 Q1230.08 1517.6 1226.57 1517.6 Q1224.64 1517.6 1222.45 1518.01 Q1220.25 1518.43 1217.61 1519.31 L1217.61 1515.14 Q1220.27 1514.4 1222.58 1514.03 Q1224.92 1513.66 1226.98 1513.66 Q1232.31 1513.66 1235.41 1516.09 Q1238.51 1518.5 1238.51 1522.62 Q1238.51 1525.49 1236.87 1527.48 Q1235.22 1529.45 1232.19 1530.21 Z" fill="#000000" fill-rule="nonzero" fill-opacity="1" /><path clip-path="url(#clip000)" d="M1555.26 1518.36 L1543.45 1536.81 L1555.26 1536.81 L1555.26 1518.36 M1554.03 1514.29 L1559.91 1514.29 L1559.91 1536.81 L1564.84 1536.81 L1564.84 1540.7 L1559.91 1540.7 L1559.91 1548.85 L1555.26 1548.85 L1555.26 1540.7 L1539.65 1540.7 L1539.65 1536.19 L1554.03 1514.29 Z" fill="#000000" fill-rule="nonzero" fill-opacity="1" /><path clip-path="url(#clip000)" d="M1866.83 1514.29 L1885.18 1514.29 L1885.18 1518.22 L1871.11 1518.22 L1871.11 1526.7 Q1872.13 1526.35 1873.15 1526.19 Q1874.17 1526 1875.18 1526 Q1880.97 1526 1884.35 1529.17 Q1887.73 1532.34 1887.73 1537.76 Q1887.73 1543.34 1884.26 1546.44 Q1880.79 1549.52 1874.47 1549.52 Q1872.29 1549.52 1870.02 1549.15 Q1867.78 1548.78 1865.37 1548.04 L1865.37 1543.34 Q1867.45 1544.47 1869.67 1545.03 Q1871.9 1545.58 1874.37 1545.58 Q1878.38 1545.58 1880.72 1543.48 Q1883.05 1541.37 1883.05 1537.76 Q1883.05 1534.15 1880.72 1532.04 Q1878.38 1529.94 1874.37 1529.94 Q1872.5 1529.94 1870.62 1530.35 Q1868.77 1530.77 1866.83 1531.65 L1866.83 1514.29 Z" fill="#000000" fill-rule="nonzero" fill-opacity="1" /><path clip-path="url(#clip000)" d="M2201.26 1529.7 Q2198.11 1529.7 2196.26 1531.86 Q2194.43 1534.01 2194.43 1537.76 Q2194.43 1541.49 2196.26 1543.66 Q2198.11 1545.82 2201.26 1545.82 Q2204.41 1545.82 2206.23 1543.66 Q2208.09 1541.49 2208.09 1537.76 Q2208.09 1534.01 2206.23 1531.86 Q2204.41 1529.7 2201.26 1529.7 M2210.54 1515.05 L2210.54 1519.31 Q2208.78 1518.48 2206.98 1518.04 Q2205.19 1517.6 2203.43 1517.6 Q2198.8 1517.6 2196.35 1520.72 Q2193.92 1523.85 2193.57 1530.17 Q2194.94 1528.15 2197 1527.09 Q2199.06 1526 2201.54 1526 Q2206.74 1526 2209.75 1529.17 Q2212.79 1532.32 2212.79 1537.76 Q2212.79 1543.08 2209.64 1546.3 Q2206.49 1549.52 2201.26 1549.52 Q2195.26 1549.52 2192.09 1544.94 Q2188.92 1540.33 2188.92 1531.6 Q2188.92 1523.41 2192.81 1518.55 Q2196.7 1513.66 2203.25 1513.66 Q2205.01 1513.66 2206.79 1514.01 Q2208.6 1514.36 2210.54 1515.05 Z" fill="#000000" fill-rule="nonzero" fill-opacity="1" /><polyline clip-path="url(#clip000)" style="stroke:#000000; stroke-linecap:round; stroke-linejoin:round; stroke-width:4; stroke-opacity:1; fill:none" points="193.936,1486.45 193.936,47.2441 "/>
<polyline clip-path="url(#clip000)" style="stroke:#000000; stroke-linecap:round; stroke-linejoin:round; stroke-width:4; stroke-opacity:1; fill:none" points="193.936,1283.86 212.834,1283.86 "/>
<polyline clip-path="url(#clip000)" style="stroke:#000000; stroke-linecap:round; stroke-linejoin:round; stroke-width:4; stroke-opacity:1; fill:none" points="193.936,1028.77 212.834,1028.77 "/>
<polyline clip-path="url(#clip000)" style="stroke:#000000; stroke-linecap:round; stroke-linejoin:round; stroke-width:4; stroke-opacity:1; fill:none" points="193.936,773.674 212.834,773.674 "/>
<polyline clip-path="url(#clip000)" style="stroke:#000000; stroke-linecap:round; stroke-linejoin:round; stroke-width:4; stroke-opacity:1; fill:none" points="193.936,518.582 212.834,518.582 "/>
<polyline clip-path="url(#clip000)" style="stroke:#000000; stroke-linecap:round; stroke-linejoin:round; stroke-width:4; stroke-opacity:1; fill:none" points="193.936,263.49 212.834,263.49 "/>
<path clip-path="url(#clip000)" d="M50.9921 1284.31 L80.6679 1284.31 L80.6679 1288.25 L50.9921 1288.25 L50.9921 1284.31 Z" fill="#000000" fill-rule="nonzero" fill-opacity="1" /><path clip-path="url(#clip000)" d="M91.5706 1297.2 L99.2095 1297.2 L99.2095 1270.84 L90.8993 1272.5 L90.8993 1268.25 L99.1632 1266.58 L103.839 1266.58 L103.839 1297.2 L111.478 1297.2 L111.478 1301.14 L91.5706 1301.14 L91.5706 1297.2 Z" fill="#000000" fill-rule="nonzero" fill-opacity="1" /><path clip-path="url(#clip000)" d="M120.922 1295.26 L125.807 1295.26 L125.807 1301.14 L120.922 1301.14 L120.922 1295.26 Z" fill="#000000" fill-rule="nonzero" fill-opacity="1" /><path clip-path="url(#clip000)" d="M145.992 1269.66 Q142.381 1269.66 140.552 1273.22 Q138.746 1276.76 138.746 1283.89 Q138.746 1291 140.552 1294.56 Q142.381 1298.11 145.992 1298.11 Q149.626 1298.11 151.431 1294.56 Q153.26 1291 153.26 1283.89 Q153.26 1276.76 151.431 1273.22 Q149.626 1269.66 145.992 1269.66 M145.992 1265.95 Q151.802 1265.95 154.857 1270.56 Q157.936 1275.14 157.936 1283.89 Q157.936 1292.62 154.857 1297.23 Q151.802 1301.81 145.992 1301.81 Q140.181 1301.81 137.103 1297.23 Q134.047 1292.62 134.047 1283.89 Q134.047 1275.14 137.103 1270.56 Q140.181 1265.95 145.992 1265.95 Z" fill="#000000" fill-rule="nonzero" fill-opacity="1" /><path clip-path="url(#clip000)" d="M51.9875 1029.22 L81.6633 1029.22 L81.6633 1033.15 L51.9875 1033.15 L51.9875 1029.22 Z" fill="#000000" fill-rule="nonzero" fill-opacity="1" /><path clip-path="url(#clip000)" d="M101.756 1014.57 Q98.1447 1014.57 96.316 1018.13 Q94.5104 1021.67 94.5104 1028.8 Q94.5104 1035.91 96.316 1039.47 Q98.1447 1043.01 101.756 1043.01 Q105.39 1043.01 107.196 1039.47 Q109.024 1035.91 109.024 1028.8 Q109.024 1021.67 107.196 1018.13 Q105.39 1014.57 101.756 1014.57 M101.756 1010.86 Q107.566 1010.86 110.621 1015.47 Q113.7 1020.05 113.7 1028.8 Q113.7 1037.53 110.621 1042.13 Q107.566 1046.72 101.756 1046.72 Q95.9456 1046.72 92.8669 1042.13 Q89.8114 1037.53 89.8114 1028.8 Q89.8114 1020.05 92.8669 1015.47 Q95.9456 1010.86 101.756 1010.86 Z" fill="#000000" fill-rule="nonzero" fill-opacity="1" /><path clip-path="url(#clip000)" d="M121.918 1040.17 L126.802 1040.17 L126.802 1046.05 L121.918 1046.05 L121.918 1040.17 Z" fill="#000000" fill-rule="nonzero" fill-opacity="1" /><path clip-path="url(#clip000)" d="M137.033 1011.49 L155.39 1011.49 L155.39 1015.42 L141.316 1015.42 L141.316 1023.89 Q142.334 1023.55 143.353 1023.38 Q144.371 1023.2 145.39 1023.2 Q151.177 1023.2 154.556 1026.37 Q157.936 1029.54 157.936 1034.96 Q157.936 1040.54 154.464 1043.64 Q150.992 1046.72 144.672 1046.72 Q142.496 1046.72 140.228 1046.35 Q137.982 1045.98 135.575 1045.24 L135.575 1040.54 Q137.658 1041.67 139.881 1042.23 Q142.103 1042.78 144.58 1042.78 Q148.584 1042.78 150.922 1040.68 Q153.26 1038.57 153.26 1034.96 Q153.26 1031.35 150.922 1029.24 Q148.584 1027.13 144.58 1027.13 Q142.705 1027.13 140.83 1027.55 Q138.978 1027.97 137.033 1028.85 L137.033 1011.49 Z" fill="#000000" fill-rule="nonzero" fill-opacity="1" /><path clip-path="url(#clip000)" d="M100.76 759.473 Q97.1493 759.473 95.3206 763.038 Q93.515 766.58 93.515 773.709 Q93.515 780.816 95.3206 784.38 Q97.1493 787.922 100.76 787.922 Q104.395 787.922 106.2 784.38 Q108.029 780.816 108.029 773.709 Q108.029 766.58 106.2 763.038 Q104.395 759.473 100.76 759.473 M100.76 755.769 Q106.571 755.769 109.626 760.376 Q112.705 764.959 112.705 773.709 Q112.705 782.436 109.626 787.042 Q106.571 791.626 100.76 791.626 Q94.9502 791.626 91.8715 787.042 Q88.816 782.436 88.816 773.709 Q88.816 764.959 91.8715 760.376 Q94.9502 755.769 100.76 755.769 Z" fill="#000000" fill-rule="nonzero" fill-opacity="1" /><path clip-path="url(#clip000)" d="M120.922 785.075 L125.807 785.075 L125.807 790.954 L120.922 790.954 L120.922 785.075 Z" fill="#000000" fill-rule="nonzero" fill-opacity="1" /><path clip-path="url(#clip000)" d="M145.992 759.473 Q142.381 759.473 140.552 763.038 Q138.746 766.58 138.746 773.709 Q138.746 780.816 140.552 784.38 Q142.381 787.922 145.992 787.922 Q149.626 787.922 151.431 784.38 Q153.26 780.816 153.26 773.709 Q153.26 766.58 151.431 763.038 Q149.626 759.473 145.992 759.473 M145.992 755.769 Q151.802 755.769 154.857 760.376 Q157.936 764.959 157.936 773.709 Q157.936 782.436 154.857 787.042 Q151.802 791.626 145.992 791.626 Q140.181 791.626 137.103 787.042 Q134.047 782.436 134.047 773.709 Q134.047 764.959 137.103 760.376 Q140.181 755.769 145.992 755.769 Z" fill="#000000" fill-rule="nonzero" fill-opacity="1" /><path clip-path="url(#clip000)" d="M101.756 504.381 Q98.1447 504.381 96.316 507.946 Q94.5104 511.487 94.5104 518.617 Q94.5104 525.724 96.316 529.288 Q98.1447 532.83 101.756 532.83 Q105.39 532.83 107.196 529.288 Q109.024 525.724 109.024 518.617 Q109.024 511.487 107.196 507.946 Q105.39 504.381 101.756 504.381 M101.756 500.677 Q107.566 500.677 110.621 505.284 Q113.7 509.867 113.7 518.617 Q113.7 527.344 110.621 531.95 Q107.566 536.534 101.756 536.534 Q95.9456 536.534 92.8669 531.95 Q89.8114 527.344 89.8114 518.617 Q89.8114 509.867 92.8669 505.284 Q95.9456 500.677 101.756 500.677 Z" fill="#000000" fill-rule="nonzero" fill-opacity="1" /><path clip-path="url(#clip000)" d="M121.918 529.983 L126.802 529.983 L126.802 535.862 L121.918 535.862 L121.918 529.983 Z" fill="#000000" fill-rule="nonzero" fill-opacity="1" /><path clip-path="url(#clip000)" d="M137.033 501.302 L155.39 501.302 L155.39 505.238 L141.316 505.238 L141.316 513.71 Q142.334 513.362 143.353 513.2 Q144.371 513.015 145.39 513.015 Q151.177 513.015 154.556 516.187 Q157.936 519.358 157.936 524.774 Q157.936 530.353 154.464 533.455 Q150.992 536.534 144.672 536.534 Q142.496 536.534 140.228 536.163 Q137.982 535.793 135.575 535.052 L135.575 530.353 Q137.658 531.487 139.881 532.043 Q142.103 532.598 144.58 532.598 Q148.584 532.598 150.922 530.492 Q153.26 528.386 153.26 524.774 Q153.26 521.163 150.922 519.057 Q148.584 516.95 144.58 516.95 Q142.705 516.95 140.83 517.367 Q138.978 517.784 137.033 518.663 L137.033 501.302 Z" fill="#000000" fill-rule="nonzero" fill-opacity="1" /><path clip-path="url(#clip000)" d="M91.5706 276.835 L99.2095 276.835 L99.2095 250.469 L90.8993 252.136 L90.8993 247.877 L99.1632 246.21 L103.839 246.21 L103.839 276.835 L111.478 276.835 L111.478 280.77 L91.5706 280.77 L91.5706 276.835 Z" fill="#000000" fill-rule="nonzero" fill-opacity="1" /><path clip-path="url(#clip000)" d="M120.922 274.891 L125.807 274.891 L125.807 280.77 L120.922 280.77 L120.922 274.891 Z" fill="#000000" fill-rule="nonzero" fill-opacity="1" /><path clip-path="url(#clip000)" d="M145.992 249.289 Q142.381 249.289 140.552 252.854 Q138.746 256.395 138.746 263.525 Q138.746 270.631 140.552 274.196 Q142.381 277.738 145.992 277.738 Q149.626 277.738 151.431 274.196 Q153.26 270.631 153.26 263.525 Q153.26 256.395 151.431 252.854 Q149.626 249.289 145.992 249.289 M145.992 245.585 Q151.802 245.585 154.857 250.192 Q157.936 254.775 157.936 263.525 Q157.936 272.252 154.857 276.858 Q151.802 281.442 145.992 281.442 Q140.181 281.442 137.103 276.858 Q134.047 272.252 134.047 263.525 Q134.047 254.775 137.103 250.192 Q140.181 245.585 145.992 245.585 Z" fill="#000000" fill-rule="nonzero" fill-opacity="1" /><polyline clip-path="url(#clip002)" style="stroke:#009af9; stroke-linecap:round; stroke-linejoin:round; stroke-width:4; stroke-opacity:1; fill:none" points="255.035,773.674 258.278,768.573 261.521,763.471 264.764,758.371 268.007,753.272 271.25,748.176 274.493,743.082 277.736,737.991 280.979,732.903 284.222,727.82 287.465,722.741 290.708,717.667 293.951,712.599 297.194,707.537 300.437,702.482 303.68,697.433 306.923,692.393 310.166,687.36 313.409,682.336 316.652,677.322 319.895,672.316 323.138,667.321 326.381,662.337 329.624,657.364 332.867,652.402 336.11,647.453 339.353,642.516 342.596,637.592 345.84,632.682 349.083,627.786 352.326,622.905 355.569,618.038 358.812,613.188 362.055,608.353 365.298,603.535 368.541,598.733 371.784,593.95 375.027,589.184 378.27,584.437 381.513,579.708 384.756,574.999 387.999,570.31 391.242,565.641 394.485,560.994 397.728,556.367 400.971,551.762 404.214,547.179 407.457,542.619 410.7,538.082 413.943,533.569 417.186,529.079 420.429,524.614 423.672,520.174 426.915,515.759 430.158,511.37 433.401,507.008 436.644,502.672 439.887,498.363 443.13,494.081 446.373,489.828 449.616,485.603 452.859,481.407 456.103,477.239 459.346,473.102 462.589,468.995 465.832,464.918 469.075,460.872 472.318,456.857 475.561,452.874 478.804,448.923 482.047,445.005 485.29,441.119 488.533,437.267 491.776,433.448 495.019,429.663 498.262,425.913 501.505,422.198 504.748,418.517 507.991,414.872 511.234,411.263 514.477,407.691 517.72,404.155 520.963,400.655 524.206,397.194 527.449,393.769 530.692,390.383 533.935,387.035 537.178,383.726 540.421,380.456 543.664,377.225 546.907,374.033 550.15,370.882 553.393,367.771 556.636,364.701 559.879,361.671 563.122,358.683 566.366,355.736 569.609,352.831 572.852,349.968 576.095,347.147 579.338,344.369 582.581,341.634 585.824,338.942 589.067,336.294 592.31,333.689 595.553,331.129 598.796,328.612 602.039,326.141 605.282,323.714 608.525,321.331 611.768,318.995 615.011,316.703 618.254,314.457 621.497,312.258 624.74,310.104 627.983,307.997 631.226,305.936 634.469,303.922 637.712,301.955 640.955,300.035 644.198,298.163 647.441,296.338 650.684,294.561 653.927,292.832 657.17,291.15 660.413,289.517 663.656,287.933 666.899,286.397 670.142,284.91 673.385,283.472 676.629,282.082 679.872,280.742 683.115,279.451 686.358,278.21 689.601,277.018 692.844,275.876 696.087,274.783 699.33,273.741 702.573,272.748 705.816,271.806 709.059,270.914 712.302,270.072 715.545,269.28 718.788,268.539 722.031,267.848 725.274,267.208 728.517,266.619 731.76,266.08 735.003,265.592 738.246,265.155 741.489,264.768 744.732,264.433 747.975,264.148 751.218,263.915 754.461,263.732 757.704,263.601 760.947,263.52 764.19,263.49 767.433,263.512 770.676,263.584 773.919,263.708 777.162,263.882 780.405,264.108 783.648,264.384 786.892,264.711 790.135,265.09 793.378,265.519 796.621,265.999 799.864,266.529 803.107,267.111 806.35,267.743 809.593,268.425 812.836,269.159 816.079,269.942 819.322,270.776 822.565,271.66 825.808,272.595 829.051,273.579 832.294,274.614 835.537,275.698 838.78,276.833 842.023,278.017 845.266,279.25 848.509,280.533 851.752,281.866 854.995,283.247 858.238,284.678 861.481,286.157 864.724,287.685 867.967,289.262 871.21,290.887 874.453,292.561 877.696,294.282 880.939,296.052 884.182,297.869 887.425,299.734 890.668,301.646 893.911,303.606 897.155,305.612 900.398,307.665 903.641,309.765 906.884,311.912 910.127,314.104 913.37,316.342 916.613,318.627 919.856,320.956 923.099,323.331 926.342,325.751 929.585,328.216 932.828,330.725 936.071,333.279 939.314,335.876 942.557,338.518 945.8,341.203 949.043,343.931 952.286,346.702 955.529,349.516 958.772,352.372 962.015,355.27 965.258,358.211 968.501,361.192 971.744,364.215 974.987,367.279 978.23,370.384 981.473,373.529 984.716,376.714 987.959,379.938 991.202,383.202 994.445,386.506 997.688,389.847 1000.93,393.227 1004.17,396.646 1007.42,400.102 1010.66,403.595 1013.9,407.125 1017.15,410.692 1020.39,414.295 1023.63,417.934 1026.88,421.609 1030.12,425.319 1033.36,429.064 1036.6,432.843 1039.85,436.656 1043.09,440.503 1046.33,444.384 1049.58,448.297 1052.82,452.243 1056.06,456.221 1059.31,460.23 1062.55,464.271 1065.79,468.343 1069.04,472.446 1072.28,476.579 1075.52,480.741 1078.76,484.933 1082.01,489.153 1085.25,493.402 1088.49,497.679 1091.74,501.984 1094.98,506.315 1098.22,510.674 1101.47,515.059 1104.71,519.469 1107.95,523.905 1111.19,528.366 1114.44,532.852 1117.68,537.362 1120.92,541.895 1124.17,546.451 1127.41,551.031 1130.65,555.632 1133.9,560.255 1137.14,564.9 1140.38,569.565 1143.62,574.251 1146.87,578.957 1150.11,583.682 1153.35,588.427 1156.6,593.189 1159.84,597.97 1163.08,602.769 1166.33,607.584 1169.57,612.416 1172.81,617.265 1176.06,622.129 1179.3,627.008 1182.54,631.901 1185.78,636.809 1189.03,641.731 1192.27,646.666 1195.51,651.613 1198.76,656.573 1202,661.544 1205.24,666.527 1208.49,671.52 1211.73,676.524 1214.97,681.537 1218.21,686.56 1221.46,691.591 1224.7,696.63 1227.94,701.677 1231.19,706.732 1234.43,711.793 1237.67,716.86 1240.92,721.933 1244.16,727.011 1247.4,732.093 1250.64,737.18 1253.89,742.271 1257.13,747.364 1260.37,752.461 1263.62,757.559 1266.86,762.659 1270.1,767.76 1273.35,772.862 1276.59,777.964 1279.83,783.065 1283.08,788.165 1286.32,793.264 1289.56,798.361 1292.8,803.456 1296.05,808.548 1299.29,813.636 1302.53,818.72 1305.78,823.799 1309.02,828.874 1312.26,833.943 1315.51,839.006 1318.75,844.062 1321.99,849.112 1325.23,854.154 1328.48,859.188 1331.72,864.213 1334.96,869.229 1338.21,874.236 1341.45,879.233 1344.69,884.219 1347.94,889.194 1351.18,894.157 1354.42,899.109 1357.66,904.047 1360.91,908.973 1364.15,913.886 1367.39,918.784 1370.64,923.668 1373.88,928.536 1377.12,933.39 1380.37,938.227 1383.61,943.048 1386.85,947.852 1390.1,952.638 1393.34,957.407 1396.58,962.157 1399.82,966.889 1403.07,971.601 1406.31,976.293 1409.55,980.965 1412.8,985.616 1416.04,990.247 1419.28,994.855 1422.53,999.441 1425.77,1004.01 1429.01,1008.55 1432.25,1013.06 1435.5,1017.56 1438.74,1022.03 1441.98,1026.47 1445.23,1030.89 1448.47,1035.28 1451.71,1039.65 1454.96,1043.99 1458.2,1048.3 1461.44,1052.59 1464.68,1056.85 1467.93,1061.08 1471.17,1065.28 1474.41,1069.45 1477.66,1073.59 1480.9,1077.7 1484.14,1081.78 1487.39,1085.83 1490.63,1089.85 1493.87,1093.84 1497.11,1097.8 1500.36,1101.72 1503.6,1105.61 1506.84,1109.47 1510.09,1113.29 1513.33,1117.08 1516.57,1120.84 1519.82,1124.56 1523.06,1128.25 1526.3,1131.9 1529.55,1135.51 1532.79,1139.09 1536.03,1142.63 1539.27,1146.14 1542.52,1149.61 1545.76,1153.04 1549,1156.43 1552.25,1159.78 1555.49,1163.1 1558.73,1166.37 1561.98,1169.61 1565.22,1172.81 1568.46,1175.97 1571.7,1179.08 1574.95,1182.16 1578.19,1185.2 1581.43,1188.19 1584.68,1191.15 1587.92,1194.06 1591.16,1196.93 1594.41,1199.76 1597.65,1202.54 1600.89,1205.28 1604.13,1207.98 1607.38,1210.64 1610.62,1213.25 1613.86,1215.82 1617.11,1218.34 1620.35,1220.82 1623.59,1223.25 1626.84,1225.64 1630.08,1227.99 1633.32,1230.28 1636.57,1232.54 1639.81,1234.74 1643.05,1236.9 1646.29,1239.02 1649.54,1241.09 1652.78,1243.11 1656.02,1245.08 1659.27,1247.01 1662.51,1248.89 1665.75,1250.72 1669,1252.51 1672.24,1254.25 1675.48,1255.93 1678.72,1257.57 1681.97,1259.17 1685.21,1260.71 1688.45,1262.21 1691.7,1263.65 1694.94,1265.05 1698.18,1266.4 1701.43,1267.7 1704.67,1268.94 1707.91,1270.14 1711.15,1271.29 1714.4,1272.39 1717.64,1273.45 1720.88,1274.45 1724.13,1275.4 1727.37,1276.3 1730.61,1277.15 1733.86,1277.95 1737.1,1278.7 1740.34,1279.39 1743.59,1280.04 1746.83,1280.64 1750.07,1281.19 1753.31,1281.68 1756.56,1282.13 1759.8,1282.52 1763.04,1282.87 1766.29,1283.16 1769.53,1283.4 1772.77,1283.59 1776.02,1283.73 1779.26,1283.82 1782.5,1283.86 1785.74,1283.84 1788.99,1283.78 1792.23,1283.66 1795.47,1283.5 1798.72,1283.28 1801.96,1283.01 1805.2,1282.69 1808.45,1282.32 1811.69,1281.9 1814.93,1281.43 1818.17,1280.91 1821.42,1280.33 1824.66,1279.71 1827.9,1279.04 1831.15,1278.31 1834.39,1277.53 1837.63,1276.71 1840.88,1275.83 1844.12,1274.91 1847.36,1273.93 1850.61,1272.9 1853.85,1271.83 1857.09,1270.7 1860.33,1269.52 1863.58,1268.3 1866.82,1267.02 1870.06,1265.7 1873.31,1264.33 1876.55,1262.9 1879.79,1261.43 1883.04,1259.91 1886.28,1258.34 1889.52,1256.72 1892.76,1255.06 1896.01,1253.34 1899.25,1251.58 1902.49,1249.77 1905.74,1247.92 1908.98,1246.01 1912.22,1244.06 1915.47,1242.06 1918.71,1240.01 1921.95,1237.92 1925.19,1235.78 1928.44,1233.6 1931.68,1231.37 1934.92,1229.09 1938.17,1226.77 1941.41,1224.4 1944.65,1221.99 1947.9,1219.53 1951.14,1217.03 1954.38,1214.48 1957.63,1211.89 1960.87,1209.25 1964.11,1206.58 1967.35,1203.86 1970.6,1201.09 1973.84,1198.28 1977.08,1195.43 1980.33,1192.54 1983.57,1189.61 1986.81,1186.63 1990.06,1183.62 1993.3,1180.56 1996.54,1177.46 1999.78,1174.32 2003.03,1171.14 2006.27,1167.93 2009.51,1164.67 2012.76,1161.37 2016,1158.04 2019.24,1154.66 2022.49,1151.25 2025.73,1147.8 2028.97,1144.31 2032.21,1140.79 2035.46,1137.23 2038.7,1133.63 2041.94,1130 2045.19,1126.33 2048.43,1122.62 2051.67,1118.88 2054.92,1115.11 2058.16,1111.3 2061.4,1107.46 2064.65,1103.59 2067.89,1099.68 2071.13,1095.74 2074.37,1091.76 2077.62,1087.76 2080.86,1083.72 2084.1,1079.66 2087.35,1075.56 2090.59,1071.43 2093.83,1067.27 2097.08,1063.09 2100.32,1058.87 2103.56,1054.63 2106.8,1050.35 2110.05,1046.05 2113.29,1041.73 2116.53,1037.37 2119.78,1032.99 2123.02,1028.58 2126.26,1024.15 2129.51,1019.69 2132.75,1015.21 2135.99,1010.71 2139.23,1006.18 2142.48,1001.62 2145.72,997.049 2148.96,992.451 2152.21,987.831 2155.45,983.19 2158.69,978.528 2161.94,973.845 2165.18,969.143 2168.42,964.42 2171.67,959.679 2174.91,954.919 2178.15,950.141 2181.39,945.345 2184.64,940.533 2187.88,935.703 2191.12,930.857 2194.37,925.996 2197.61,921.119 2200.85,916.228 2204.1,911.322 2207.34,906.403 2210.58,901.47 2213.82,896.524 2217.07,891.567 2220.31,886.597 2223.55,881.616 2226.8,876.625 2230.04,871.623 2233.28,866.611 2236.53,861.59 2239.77,856.56 2243.01,851.522 2246.25,846.476 2249.5,841.423 2252.74,836.363 2255.98,831.297 2259.23,826.225 2262.47,821.147 2265.71,816.065 2268.96,810.979 2272.2,805.889 2275.44,800.796 2278.69,795.7 2281.93,790.602 2285.17,785.502 2288.41,780.401 2291.66,775.3 "/>
<circle clip-path="url(#clip002)" cx="2006.27" cy="1090.69" r="14.4" fill="#e26f46" fill-rule="evenodd" fill-opacity="1" stroke="#000000" stroke-opacity="1" stroke-width="3.2"/>
<circle clip-path="url(#clip002)" cx="1649.54" cy="1294.65" r="14.4" fill="#e26f46" fill-rule="evenodd" fill-opacity="1" stroke="#000000" stroke-opacity="1" stroke-width="3.2"/>
<circle clip-path="url(#clip002)" cx="2236.53" cy="864.329" r="14.4" fill="#e26f46" fill-rule="evenodd" fill-opacity="1" stroke="#000000" stroke-opacity="1" stroke-width="3.2"/>
<circle clip-path="url(#clip002)" cx="1185.78" cy="759.547" r="14.4" fill="#e26f46" fill-rule="evenodd" fill-opacity="1" stroke="#000000" stroke-opacity="1" stroke-width="3.2"/>
<circle clip-path="url(#clip002)" cx="1730.61" cy="1266.68" r="14.4" fill="#e26f46" fill-rule="evenodd" fill-opacity="1" stroke="#000000" stroke-opacity="1" stroke-width="3.2"/>
<circle clip-path="url(#clip002)" cx="300.437" cy="739.907" r="14.4" fill="#e26f46" fill-rule="evenodd" fill-opacity="1" stroke="#000000" stroke-opacity="1" stroke-width="3.2"/>
<circle clip-path="url(#clip002)" cx="1091.74" cy="523.315" r="14.4" fill="#e26f46" fill-rule="evenodd" fill-opacity="1" stroke="#000000" stroke-opacity="1" stroke-width="3.2"/>
<circle clip-path="url(#clip002)" cx="488.533" cy="437.871" r="14.4" fill="#e26f46" fill-rule="evenodd" fill-opacity="1" stroke="#000000" stroke-opacity="1" stroke-width="3.2"/>
<circle clip-path="url(#clip002)" cx="319.895" cy="672.198" r="14.4" fill="#e26f46" fill-rule="evenodd" fill-opacity="1" stroke="#000000" stroke-opacity="1" stroke-width="3.2"/>
<circle clip-path="url(#clip002)" cx="958.772" cy="238.731" r="14.4" fill="#e26f46" fill-rule="evenodd" fill-opacity="1" stroke="#000000" stroke-opacity="1" stroke-width="3.2"/>
<circle clip-path="url(#clip002)" cx="987.959" cy="372.144" r="14.4" fill="#e26f46" fill-rule="evenodd" fill-opacity="1" stroke="#000000" stroke-opacity="1" stroke-width="3.2"/>
<circle clip-path="url(#clip002)" cx="482.047" cy="520.659" r="14.4" fill="#e26f46" fill-rule="evenodd" fill-opacity="1" stroke="#000000" stroke-opacity="1" stroke-width="3.2"/>
<circle clip-path="url(#clip002)" cx="1970.6" cy="1148.9" r="14.4" fill="#e26f46" fill-rule="evenodd" fill-opacity="1" stroke="#000000" stroke-opacity="1" stroke-width="3.2"/>
<circle clip-path="url(#clip002)" cx="997.688" cy="286.811" r="14.4" fill="#e26f46" fill-rule="evenodd" fill-opacity="1" stroke="#000000" stroke-opacity="1" stroke-width="3.2"/>
<circle clip-path="url(#clip002)" cx="274.493" cy="713.777" r="14.4" fill="#e26f46" fill-rule="evenodd" fill-opacity="1" stroke="#000000" stroke-opacity="1" stroke-width="3.2"/>
<circle clip-path="url(#clip002)" cx="1763.04" cy="1369.87" r="14.4" fill="#e26f46" fill-rule="evenodd" fill-opacity="1" stroke="#000000" stroke-opacity="1" stroke-width="3.2"/>
<circle clip-path="url(#clip002)" cx="903.641" cy="376.884" r="14.4" fill="#e26f46" fill-rule="evenodd" fill-opacity="1" stroke="#000000" stroke-opacity="1" stroke-width="3.2"/>
<circle clip-path="url(#clip002)" cx="459.346" cy="397.101" r="14.4" fill="#e26f46" fill-rule="evenodd" fill-opacity="1" stroke="#000000" stroke-opacity="1" stroke-width="3.2"/>
<circle clip-path="url(#clip002)" cx="439.887" cy="610.855" r="14.4" fill="#e26f46" fill-rule="evenodd" fill-opacity="1" stroke="#000000" stroke-opacity="1" stroke-width="3.2"/>
<circle clip-path="url(#clip002)" cx="1448.47" cy="1072.31" r="14.4" fill="#e26f46" fill-rule="evenodd" fill-opacity="1" stroke="#000000" stroke-opacity="1" stroke-width="3.2"/>
<path clip-path="url(#clip002)" d="M255.035 914.317 L258.278 908.985 L261.521 903.707 L264.764 898.493 L268.007 893.351 L271.25 888.293 L274.493 883.329 L277.736 878.469 L280.979 873.715 L284.222 869.069 L287.465 864.533 L290.708 860.109 L293.951 855.797 L297.194 851.598 L300.437 847.514 L303.68 843.544 L306.923 839.684 L310.166 835.927 L313.409 832.269 L316.652 828.702 L319.895 825.221 L323.138 821.818 L326.381 818.481 L329.624 815.196 L332.867 811.948 L336.11 808.726 L339.353 805.517 L342.596 802.309 L345.84 799.092 L349.083 795.855 L352.326 792.591 L355.569 789.29 L358.812 785.946 L362.055 782.553 L365.298 779.107 L368.541 775.602 L371.784 772.036 L375.027 768.408 L378.27 764.717 L381.513 760.962 L384.756 757.145 L387.999 753.269 L391.242 749.336 L394.485 745.351 L397.728 741.32 L400.971 737.249 L404.214 733.146 L407.457 729.02 L410.7 724.881 L413.943 720.74 L417.186 716.609 L420.429 712.503 L423.672 708.435 L426.915 704.423 L430.158 700.482 L433.401 696.631 L436.644 692.889 L439.887 689.276 L443.13 685.811 L446.373 682.512 L449.616 679.397 L452.859 676.482 L456.103 673.786 L459.346 671.326 L462.589 669.118 L465.832 667.168 L469.075 665.478 L472.318 664.052 L475.561 662.891 L478.804 661.998 L482.047 661.375 L485.29 661.022 L488.533 660.934 L491.776 661.103 L495.019 661.511 L498.262 662.141 L501.505 662.975 L504.748 663.995 L507.991 665.184 L511.234 666.526 L514.477 668.005 L517.72 669.607 L520.963 671.316 L524.206 673.121 L527.449 675.007 L530.692 676.965 L533.935 678.981 L537.178 681.047 L540.421 683.152 L543.664 685.287 L546.907 687.444 L550.15 689.614 L553.393 691.791 L556.636 693.968 L559.879 696.138 L563.122 698.295 L566.366 700.433 L569.609 702.547 L572.852 704.633 L576.095 706.685 L579.338 708.699 L582.581 710.672 L585.824 712.599 L589.067 714.477 L592.31 716.303 L595.553 718.073 L598.796 719.785 L602.039 721.436 L605.282 723.023 L608.525 724.545 L611.768 725.998 L615.011 727.38 L618.254 728.691 L621.497 729.927 L624.74 731.088 L627.983 732.171 L631.226 733.175 L634.469 734.099 L637.712 734.942 L640.955 735.701 L644.198 736.377 L647.441 736.968 L650.684 737.472 L653.927 737.89 L657.17 738.22 L660.413 738.462 L663.656 738.615 L666.899 738.677 L670.142 738.65 L673.385 738.532 L676.629 738.322 L679.872 738.021 L683.115 737.628 L686.358 737.142 L689.601 736.564 L692.844 735.893 L696.087 735.13 L699.33 734.273 L702.573 733.324 L705.816 732.281 L709.059 731.146 L712.302 729.918 L715.545 728.597 L718.788 727.184 L722.031 725.679 L725.274 724.082 L728.517 722.394 L731.76 720.615 L735.003 718.745 L738.246 716.786 L741.489 714.737 L744.732 712.6 L747.975 710.374 L751.218 708.061 L754.461 705.662 L757.704 703.178 L760.947 700.609 L764.19 697.957 L767.433 695.223 L770.676 692.408 L773.919 689.513 L777.162 686.54 L780.405 683.491 L783.648 680.366 L786.892 677.167 L790.135 673.897 L793.378 670.558 L796.621 667.15 L799.864 663.677 L803.107 660.141 L806.35 656.544 L809.593 652.889 L812.836 649.178 L816.079 645.415 L819.322 641.602 L822.565 637.743 L825.808 633.841 L829.051 629.9 L832.294 625.924 L835.537 621.917 L838.78 617.883 L842.023 613.826 L845.266 609.752 L848.509 605.666 L851.752 601.574 L854.995 597.48 L858.238 593.392 L861.481 589.315 L864.724 585.256 L867.967 581.224 L871.21 577.224 L874.453 573.266 L877.696 569.357 L880.939 565.506 L884.182 561.724 L887.425 558.019 L890.668 554.401 L893.911 550.882 L897.155 547.472 L900.398 544.183 L903.641 541.026 L906.884 538.013 L910.127 535.147 L913.37 532.435 L916.613 529.879 L919.856 527.485 L923.099 525.259 L926.342 523.207 L929.585 521.335 L932.828 519.651 L936.071 518.162 L939.314 516.878 L942.557 515.807 L945.8 514.96 L949.043 514.347 L952.286 513.981 L955.529 513.872 L958.772 514.034 L962.015 514.477 L965.258 515.202 L968.501 516.209 L971.744 517.497 L974.987 519.067 L978.23 520.918 L981.473 523.051 L984.716 525.468 L987.959 528.169 L991.202 531.155 L994.445 534.42 L997.688 537.958 L1000.93 541.761 L1004.17 545.812 L1007.42 550.091 L1010.66 554.582 L1013.9 559.267 L1017.15 564.13 L1020.39 569.155 L1023.63 574.327 L1026.88 579.633 L1030.12 585.062 L1033.36 590.6 L1036.6 596.238 L1039.85 601.966 L1043.09 607.776 L1046.33 613.66 L1049.58 619.612 L1052.82 625.627 L1056.06 631.699 L1059.31 637.825 L1062.55 644.002 L1065.79 650.228 L1069.04 656.5 L1072.28 662.819 L1075.52 669.184 L1078.76 675.596 L1082.01 682.055 L1085.25 688.563 L1088.49 695.122 L1091.74 701.734 L1094.98 708.4 L1098.22 715.115 L1101.47 721.873 L1104.71 728.668 L1107.95 735.495 L1111.19 742.348 L1114.44 749.222 L1117.68 756.113 L1120.92 763.018 L1124.17 769.932 L1127.41 776.852 L1130.65 783.777 L1133.9 790.704 L1137.14 797.63 L1140.38 804.556 L1143.62 811.479 L1146.87 818.4 L1150.11 825.318 L1153.35 832.234 L1156.6 839.148 L1159.84 846.061 L1163.08 852.975 L1166.33 859.891 L1169.57 866.81 L1172.81 873.735 L1176.06 880.667 L1179.3 887.608 L1182.54 894.561 L1185.78 901.528 L1189.03 908.509 L1192.27 915.501 L1195.51 922.497 L1198.76 929.492 L1202 936.48 L1205.24 943.457 L1208.49 950.417 L1211.73 957.354 L1214.97 964.264 L1218.21 971.141 L1221.46 977.981 L1224.7 984.779 L1227.94 991.531 L1231.19 998.233 L1234.43 1004.88 L1237.67 1011.47 L1240.92 1018 L1244.16 1024.47 L1247.4 1030.87 L1250.64 1037.19 L1253.89 1043.45 L1257.13 1049.63 L1260.37 1055.73 L1263.62 1061.76 L1266.86 1067.7 L1270.1 1073.56 L1273.35 1079.33 L1276.59 1085.02 L1279.83 1090.63 L1283.08 1096.14 L1286.32 1101.57 L1289.56 1106.91 L1292.8 1112.16 L1296.05 1117.31 L1299.29 1122.38 L1302.53 1127.36 L1305.78 1132.25 L1309.02 1137.04 L1312.26 1141.75 L1315.51 1146.37 L1318.75 1150.9 L1321.99 1155.34 L1325.23 1159.69 L1328.48 1163.96 L1331.72 1168.14 L1334.96 1172.24 L1338.21 1176.26 L1341.45 1180.19 L1344.69 1184.05 L1347.94 1187.82 L1351.18 1191.53 L1354.42 1195.16 L1357.66 1198.71 L1360.91 1202.2 L1364.15 1205.63 L1367.39 1208.99 L1370.64 1212.29 L1373.88 1215.53 L1377.12 1218.72 L1380.37 1221.86 L1383.61 1224.96 L1386.85 1228.01 L1390.1 1231.02 L1393.34 1234 L1396.58 1236.95 L1399.82 1239.88 L1403.07 1242.78 L1406.31 1245.67 L1409.55 1248.55 L1412.8 1251.43 L1416.04 1254.31 L1419.28 1257.19 L1422.53 1260.09 L1425.77 1263 L1429.01 1265.94 L1432.25 1268.92 L1435.5 1271.93 L1438.74 1274.98 L1441.98 1278.08 L1445.23 1281.23 L1448.47 1284.45 L1451.71 1287.73 L1454.96 1291.07 L1458.2 1294.46 L1461.44 1297.9 L1464.68 1301.39 L1467.93 1304.9 L1471.17 1308.45 L1474.41 1312.02 L1477.66 1315.6 L1480.9 1319.19 L1484.14 1322.79 L1487.39 1326.38 L1490.63 1329.96 L1493.87 1333.53 L1497.11 1337.08 L1500.36 1340.6 L1503.6 1344.09 L1506.84 1347.55 L1510.09 1350.96 L1513.33 1354.33 L1516.57 1357.66 L1519.82 1360.92 L1523.06 1364.13 L1526.3 1367.28 L1529.55 1370.37 L1532.79 1373.39 L1536.03 1376.33 L1539.27 1379.21 L1542.52 1382.01 L1545.76 1384.73 L1549 1387.38 L1552.25 1389.94 L1555.49 1392.42 L1558.73 1394.82 L1561.98 1397.13 L1565.22 1399.35 L1568.46 1401.49 L1571.7 1403.55 L1574.95 1405.52 L1578.19 1407.4 L1581.43 1409.19 L1584.68 1410.9 L1587.92 1412.52 L1591.16 1414.07 L1594.41 1415.52 L1597.65 1416.9 L1600.89 1418.2 L1604.13 1419.42 L1607.38 1420.57 L1610.62 1421.65 L1613.86 1422.66 L1617.11 1423.6 L1620.35 1424.49 L1623.59 1425.31 L1626.84 1426.08 L1630.08 1426.8 L1633.32 1427.48 L1636.57 1428.12 L1639.81 1428.72 L1643.05 1429.29 L1646.29 1429.84 L1649.54 1430.37 L1652.78 1430.88 L1656.02 1431.38 L1659.27 1431.86 L1662.51 1432.33 L1665.75 1432.77 L1669 1433.2 L1672.24 1433.6 L1675.48 1433.98 L1678.72 1434.34 L1681.97 1434.67 L1685.21 1434.99 L1688.45 1435.28 L1691.7 1435.56 L1694.94 1435.82 L1698.18 1436.06 L1701.43 1436.29 L1704.67 1436.51 L1707.91 1436.72 L1711.15 1436.93 L1714.4 1437.15 L1717.64 1437.37 L1720.88 1437.6 L1724.13 1437.86 L1727.37 1438.13 L1730.61 1438.43 L1733.86 1438.76 L1737.1 1439.13 L1740.34 1439.52 L1743.59 1439.93 L1746.83 1440.36 L1750.07 1440.8 L1753.31 1441.26 L1756.56 1441.72 L1759.8 1442.18 L1763.04 1442.64 L1766.29 1443.1 L1769.53 1443.54 L1772.77 1443.97 L1776.02 1444.36 L1779.26 1444.72 L1782.5 1445.03 L1785.74 1445.29 L1788.99 1445.5 L1792.23 1445.64 L1795.47 1445.72 L1798.72 1445.71 L1801.96 1445.63 L1805.2 1445.46 L1808.45 1445.2 L1811.69 1444.85 L1814.93 1444.4 L1818.17 1443.85 L1821.42 1443.2 L1824.66 1442.44 L1827.9 1441.57 L1831.15 1440.59 L1834.39 1439.5 L1837.63 1438.29 L1840.88 1436.97 L1844.12 1435.54 L1847.36 1433.98 L1850.61 1432.32 L1853.85 1430.53 L1857.09 1428.63 L1860.33 1426.62 L1863.58 1424.49 L1866.82 1422.25 L1870.06 1419.89 L1873.31 1417.43 L1876.55 1414.85 L1879.79 1412.17 L1883.04 1409.39 L1886.28 1406.51 L1889.52 1403.52 L1892.76 1400.44 L1896.01 1397.27 L1899.25 1394.01 L1902.49 1390.67 L1905.74 1387.25 L1908.98 1383.75 L1912.22 1380.18 L1915.47 1376.55 L1918.71 1372.86 L1921.95 1369.12 L1925.19 1365.34 L1928.44 1361.51 L1931.68 1357.66 L1934.92 1353.79 L1938.17 1349.9 L1941.41 1346 L1944.65 1342.11 L1947.9 1338.23 L1951.14 1334.38 L1954.38 1330.56 L1957.63 1326.78 L1960.87 1323.06 L1964.11 1319.41 L1967.35 1315.83 L1970.6 1312.34 L1973.84 1308.95 L1977.08 1305.66 L1980.33 1302.47 L1983.57 1299.39 L1986.81 1296.41 L1990.06 1293.55 L1993.3 1290.79 L1996.54 1288.14 L1999.78 1285.61 L2003.03 1283.19 L2006.27 1280.89 L2009.51 1278.69 L2012.76 1276.61 L2016 1274.62 L2019.24 1272.72 L2022.49 1270.89 L2025.73 1269.14 L2028.97 1267.44 L2032.21 1265.8 L2035.46 1264.19 L2038.7 1262.63 L2041.94 1261.08 L2045.19 1259.56 L2048.43 1258.05 L2051.67 1256.55 L2054.92 1255.04 L2058.16 1253.53 L2061.4 1252.01 L2064.65 1250.48 L2067.89 1248.92 L2071.13 1247.34 L2074.37 1245.74 L2077.62 1244.1 L2080.86 1242.43 L2084.1 1240.72 L2087.35 1238.97 L2090.59 1237.19 L2093.83 1235.36 L2097.08 1233.49 L2100.32 1231.57 L2103.56 1229.61 L2106.8 1227.61 L2110.05 1225.56 L2113.29 1223.46 L2116.53 1221.32 L2119.78 1219.14 L2123.02 1216.91 L2126.26 1214.64 L2129.51 1212.34 L2132.75 1209.99 L2135.99 1207.61 L2139.23 1205.2 L2142.48 1202.76 L2145.72 1200.28 L2148.96 1197.79 L2152.21 1195.27 L2155.45 1192.74 L2158.69 1190.2 L2161.94 1187.64 L2165.18 1185.09 L2168.42 1182.53 L2171.67 1179.99 L2174.91 1177.45 L2178.15 1174.94 L2181.39 1172.45 L2184.64 1169.99 L2187.88 1167.58 L2191.12 1165.21 L2194.37 1162.89 L2197.61 1160.64 L2200.85 1158.45 L2204.1 1156.34 L2207.34 1154.32 L2210.58 1152.4 L2213.82 1150.58 L2217.07 1148.87 L2220.31 1147.29 L2223.55 1145.83 L2226.8 1144.52 L2230.04 1143.35 L2233.28 1142.34 L2236.53 1141.5 L2239.77 1140.83 L2243.01 1140.33 L2246.25 1139.99 L2249.5 1139.81 L2252.74 1139.77 L2255.98 1139.87 L2259.23 1140.11 L2262.47 1140.47 L2265.71 1140.96 L2268.96 1141.55 L2272.2 1142.26 L2275.44 1143.06 L2278.69 1143.95 L2281.93 1144.93 L2285.17 1146 L2288.41 1147.14 L2291.66 1148.34 L2291.66 566.21 L2288.41 570.364 L2285.17 574.5 L2281.93 578.614 L2278.69 582.702 L2275.44 586.757 L2272.2 590.774 L2268.96 594.749 L2265.71 598.675 L2262.47 602.547 L2259.23 606.359 L2255.98 610.105 L2252.74 613.779 L2249.5 617.375 L2246.25 620.887 L2243.01 624.31 L2239.77 627.638 L2236.53 630.864 L2233.28 633.987 L2230.04 637.012 L2226.8 639.945 L2223.55 642.795 L2220.31 645.569 L2217.07 648.276 L2213.82 650.924 L2210.58 653.52 L2207.34 656.072 L2204.1 658.589 L2200.85 661.078 L2197.61 663.547 L2194.37 666.003 L2191.12 668.453 L2187.88 670.905 L2184.64 673.364 L2181.39 675.838 L2178.15 678.332 L2174.91 680.853 L2171.67 683.405 L2168.42 685.994 L2165.18 688.625 L2161.94 691.302 L2158.69 694.03 L2155.45 696.812 L2152.21 699.653 L2148.96 702.556 L2145.72 705.523 L2142.48 708.557 L2139.23 711.662 L2135.99 714.838 L2132.75 718.088 L2129.51 721.414 L2126.26 724.816 L2123.02 728.296 L2119.78 731.854 L2116.53 735.49 L2113.29 739.206 L2110.05 742.999 L2106.8 746.871 L2103.56 750.821 L2100.32 754.846 L2097.08 758.946 L2093.83 763.12 L2090.59 767.364 L2087.35 771.677 L2084.1 776.056 L2080.86 780.498 L2077.62 785 L2074.37 789.557 L2071.13 794.166 L2067.89 798.822 L2064.65 803.52 L2061.4 808.254 L2058.16 813.02 L2054.92 817.811 L2051.67 822.619 L2048.43 827.439 L2045.19 832.262 L2041.94 837.081 L2038.7 841.886 L2035.46 846.67 L2032.21 851.422 L2028.97 856.132 L2025.73 860.792 L2022.49 865.389 L2019.24 869.914 L2016 874.354 L2012.76 878.699 L2009.51 882.937 L2006.27 887.056 L2003.03 891.046 L1999.78 894.906 L1996.54 898.633 L1993.3 902.228 L1990.06 905.69 L1986.81 909.018 L1983.57 912.212 L1980.33 915.272 L1977.08 918.196 L1973.84 920.986 L1970.6 923.641 L1967.35 926.162 L1964.11 928.559 L1960.87 930.845 L1957.63 933.03 L1954.38 935.127 L1951.14 937.146 L1947.9 939.099 L1944.65 940.995 L1941.41 942.846 L1938.17 944.66 L1934.92 946.447 L1931.68 948.216 L1928.44 949.975 L1925.19 951.732 L1921.95 953.493 L1918.71 955.266 L1915.47 957.057 L1912.22 958.871 L1908.98 960.714 L1905.74 962.591 L1902.49 964.505 L1899.25 966.462 L1896.01 968.463 L1892.76 970.513 L1889.52 972.613 L1886.28 974.766 L1883.04 976.974 L1879.79 979.238 L1876.55 981.558 L1873.31 983.937 L1870.06 986.373 L1866.82 988.867 L1863.58 991.419 L1860.33 994.026 L1857.09 996.689 L1853.85 999.406 L1850.61 1002.17 L1847.36 1004.99 L1844.12 1007.86 L1840.88 1010.76 L1837.63 1013.71 L1834.39 1016.69 L1831.15 1019.71 L1827.9 1022.75 L1824.66 1025.81 L1821.42 1028.89 L1818.17 1031.98 L1814.93 1035.08 L1811.69 1038.17 L1808.45 1041.25 L1805.2 1044.31 L1801.96 1047.34 L1798.72 1050.33 L1795.47 1053.28 L1792.23 1056.18 L1788.99 1059 L1785.74 1061.75 L1782.5 1064.4 L1779.26 1066.95 L1776.02 1069.39 L1772.77 1071.69 L1769.53 1073.86 L1766.29 1075.86 L1763.04 1077.7 L1759.8 1079.35 L1756.56 1080.81 L1753.31 1082.09 L1750.07 1083.18 L1746.83 1084.09 L1743.59 1084.81 L1740.34 1085.34 L1737.1 1085.69 L1733.86 1085.84 L1730.61 1085.81 L1727.37 1085.59 L1724.13 1085.19 L1720.88 1084.61 L1717.64 1083.87 L1714.4 1082.97 L1711.15 1081.92 L1707.91 1080.73 L1704.67 1079.4 L1701.43 1077.93 L1698.18 1076.34 L1694.94 1074.62 L1691.7 1072.79 L1688.45 1070.84 L1685.21 1068.78 L1681.97 1066.61 L1678.72 1064.33 L1675.48 1061.94 L1672.24 1059.44 L1669 1056.83 L1665.75 1054.12 L1662.51 1051.29 L1659.27 1048.35 L1656.02 1045.3 L1652.78 1042.14 L1649.54 1038.86 L1646.29 1035.45 L1643.05 1031.94 L1639.81 1028.33 L1636.57 1024.62 L1633.32 1020.84 L1630.08 1016.98 L1626.84 1013.07 L1623.59 1009.1 L1620.35 1005.08 L1617.11 1001.03 L1613.86 996.946 L1610.62 992.841 L1607.38 988.72 L1604.13 984.589 L1600.89 980.455 L1597.65 976.322 L1594.41 972.195 L1591.16 968.08 L1587.92 963.98 L1584.68 959.9 L1581.43 955.843 L1578.19 951.812 L1574.95 947.81 L1571.7 943.839 L1568.46 939.902 L1565.22 936 L1561.98 932.135 L1558.73 928.307 L1555.49 924.519 L1552.25 920.769 L1549 917.059 L1545.76 913.387 L1542.52 909.754 L1539.27 906.159 L1536.03 902.6 L1532.79 899.076 L1529.55 895.586 L1526.3 892.127 L1523.06 888.696 L1519.82 885.291 L1516.57 881.91 L1513.33 878.547 L1510.09 875.201 L1506.84 871.867 L1503.6 868.54 L1500.36 865.215 L1497.11 861.889 L1493.87 858.556 L1490.63 855.21 L1487.39 851.845 L1484.14 848.455 L1480.9 845.035 L1477.66 841.577 L1474.41 838.075 L1471.17 834.521 L1467.93 830.909 L1464.68 827.232 L1461.44 823.482 L1458.2 819.652 L1454.96 815.734 L1451.71 811.722 L1448.47 807.607 L1445.23 803.386 L1441.98 799.063 L1438.74 794.644 L1435.5 790.138 L1432.25 785.551 L1429.01 780.89 L1425.77 776.163 L1422.53 771.377 L1419.28 766.538 L1416.04 761.654 L1412.8 756.731 L1409.55 751.776 L1406.31 746.794 L1403.07 741.792 L1399.82 736.777 L1396.58 731.752 L1393.34 726.725 L1390.1 721.699 L1386.85 716.68 L1383.61 711.673 L1380.37 706.681 L1377.12 701.71 L1373.88 696.762 L1370.64 691.842 L1367.39 686.952 L1364.15 682.097 L1360.91 677.279 L1357.66 672.501 L1354.42 667.765 L1351.18 663.074 L1347.94 658.43 L1344.69 653.834 L1341.45 649.289 L1338.21 644.795 L1334.96 640.355 L1331.72 635.97 L1328.48 631.64 L1325.23 627.366 L1321.99 623.148 L1318.75 618.988 L1315.51 614.885 L1312.26 610.84 L1309.02 606.852 L1305.78 602.921 L1302.53 599.046 L1299.29 595.228 L1296.05 591.465 L1292.8 587.756 L1289.56 584.1 L1286.32 580.496 L1283.08 576.942 L1279.83 573.437 L1276.59 569.979 L1273.35 566.565 L1270.1 563.194 L1266.86 559.862 L1263.62 556.568 L1260.37 553.308 L1257.13 550.08 L1253.89 546.879 L1250.64 543.703 L1247.4 540.548 L1244.16 537.41 L1240.92 534.284 L1237.67 531.166 L1234.43 528.051 L1231.19 524.935 L1227.94 521.812 L1224.7 518.677 L1221.46 515.523 L1218.21 512.346 L1214.97 509.138 L1211.73 505.894 L1208.49 502.606 L1205.24 499.268 L1202 495.873 L1198.76 492.413 L1195.51 488.881 L1192.27 485.27 L1189.03 481.572 L1185.78 477.779 L1182.54 473.887 L1179.3 469.9 L1176.06 465.826 L1172.81 461.67 L1169.57 457.442 L1166.33 453.148 L1163.08 448.794 L1159.84 444.387 L1156.6 439.935 L1153.35 435.443 L1150.11 430.916 L1146.87 426.362 L1143.62 421.785 L1140.38 417.189 L1137.14 412.581 L1133.9 407.963 L1130.65 403.339 L1127.41 398.714 L1124.17 394.09 L1120.92 389.47 L1117.68 384.855 L1114.44 380.248 L1111.19 375.65 L1107.95 371.062 L1104.71 366.485 L1101.47 361.919 L1098.22 357.364 L1094.98 352.82 L1091.74 348.286 L1088.49 343.763 L1085.25 339.258 L1082.01 334.779 L1078.76 330.334 L1075.52 325.929 L1072.28 321.573 L1069.04 317.272 L1065.79 313.032 L1062.55 308.858 L1059.31 304.756 L1056.06 300.729 L1052.82 296.783 L1049.58 292.92 L1046.33 289.142 L1043.09 285.45 L1039.85 281.847 L1036.6 278.332 L1033.36 274.904 L1030.12 271.562 L1026.88 268.303 L1023.63 265.124 L1020.39 262.021 L1017.15 258.989 L1013.9 256.022 L1010.66 253.114 L1007.42 250.257 L1004.17 247.444 L1000.93 244.667 L997.688 241.916 L994.445 239.183 L991.202 236.461 L987.959 233.744 L984.716 231.026 L981.473 228.307 L978.23 225.588 L974.987 222.87 L971.744 220.152 L968.501 217.438 L965.258 214.725 L962.015 212.017 L958.772 209.312 L955.529 206.611 L952.286 203.916 L949.043 201.229 L945.8 198.55 L942.557 195.881 L939.314 193.222 L936.071 190.573 L932.828 187.934 L929.585 185.304 L926.342 182.68 L923.099 180.063 L919.856 177.448 L916.613 174.833 L913.37 172.216 L910.127 169.592 L906.884 166.958 L903.641 164.309 L900.398 161.644 L897.155 158.967 L893.911 156.285 L890.668 153.604 L887.425 150.93 L884.182 148.269 L880.939 145.626 L877.696 143.007 L874.453 140.417 L871.21 137.86 L867.967 135.34 L864.724 132.862 L861.481 130.429 L858.238 128.045 L854.995 125.712 L851.752 123.434 L848.509 121.213 L845.266 119.051 L842.023 116.952 L838.78 114.916 L835.537 112.946 L832.294 111.044 L829.051 109.211 L825.808 107.448 L822.565 105.756 L819.322 104.137 L816.079 102.592 L812.836 101.122 L809.593 99.7263 L806.35 98.4071 L803.107 97.1646 L799.864 95.9992 L796.621 94.9116 L793.378 93.9021 L790.135 92.9711 L786.892 92.1189 L783.648 91.3458 L780.405 90.652 L777.162 90.0378 L773.919 89.5032 L770.676 89.0485 L767.433 88.6738 L764.19 88.3791 L760.947 88.1646 L757.704 88.0303 L754.461 87.9763 L751.218 88.0026 L747.975 88.1093 L744.732 88.2965 L741.489 88.5641 L738.246 88.9122 L735.003 89.3408 L731.76 89.85 L728.517 90.4398 L725.274 91.1103 L722.031 91.8614 L718.788 92.6933 L715.545 93.606 L712.302 94.5996 L709.059 95.6742 L705.816 96.8297 L702.573 98.0664 L699.33 99.3843 L696.087 100.784 L692.844 102.264 L689.601 103.826 L686.358 105.47 L683.115 107.196 L679.872 109.003 L676.629 110.893 L673.385 112.865 L670.142 114.919 L666.899 117.056 L663.656 119.275 L660.413 121.577 L657.17 123.962 L653.927 126.431 L650.684 128.982 L647.441 131.617 L644.198 134.335 L640.955 137.137 L637.712 140.022 L634.469 142.991 L631.226 146.044 L627.983 149.181 L624.74 152.401 L621.497 155.705 L618.254 159.092 L615.011 162.563 L611.768 166.117 L608.525 169.754 L605.282 173.473 L602.039 177.275 L598.796 181.158 L595.553 185.123 L592.31 189.167 L589.067 193.292 L585.824 197.495 L582.581 201.776 L579.338 206.133 L576.095 210.565 L572.852 215.071 L569.609 219.649 L566.366 224.296 L563.122 229.011 L559.879 233.791 L556.636 238.634 L553.393 243.536 L550.15 248.493 L546.907 253.503 L543.664 258.561 L540.421 263.662 L537.178 268.801 L533.935 273.973 L530.692 279.172 L527.449 284.391 L524.206 289.622 L520.963 294.858 L517.72 300.091 L514.477 305.311 L511.234 310.507 L507.991 315.671 L504.748 320.79 L501.505 325.852 L498.262 330.846 L495.019 335.758 L491.776 340.576 L488.533 345.286 L485.29 349.877 L482.047 354.338 L478.804 358.664 L475.561 362.856 L472.318 366.914 L469.075 370.843 L465.832 374.644 L462.589 378.321 L459.346 381.878 L456.103 385.32 L452.859 388.65 L449.616 391.876 L446.373 395.003 L443.13 398.035 L439.887 400.979 L436.644 403.84 L433.401 406.633 L430.158 409.373 L426.915 412.074 L423.672 414.748 L420.429 417.409 L417.186 420.067 L413.943 422.732 L410.7 425.415 L407.457 428.122 L404.214 430.86 L400.971 433.636 L397.728 436.453 L394.485 439.315 L391.242 442.225 L387.999 445.183 L384.756 448.191 L381.513 451.246 L378.27 454.348 L375.027 457.492 L371.784 460.677 L368.541 463.895 L365.298 467.142 L362.055 470.411 L358.812 473.694 L355.569 476.98 L352.326 480.262 L349.083 483.526 L345.84 486.763 L342.596 489.957 L339.353 493.096 L336.11 496.165 L332.867 499.147 L329.624 502.027 L326.381 504.786 L323.138 507.409 L319.895 509.875 L316.652 512.17 L313.409 514.28 L310.166 516.196 L306.923 517.908 L303.68 519.406 L300.437 520.681 L297.194 521.725 L293.951 522.537 L290.708 523.121 L287.465 523.479 L284.222 523.615 L280.979 523.53 L277.736 523.228 L274.493 522.712 L271.25 521.986 L268.007 521.062 L264.764 519.954 L261.521 518.672 L258.278 517.231 L255.035 515.641  Z" fill="#3da44d" fill-rule="evenodd" fill-opacity="0.1"/>
<polyline clip-path="url(#clip002)" style="stroke:#3da44d; stroke-linecap:round; stroke-linejoin:round; stroke-width:8; stroke-opacity:1; fill:none" points="255.035,714.979 258.278,713.108 261.521,711.19 264.764,709.223 268.007,707.207 271.25,705.14 274.493,703.02 277.736,700.848 280.979,698.622 284.222,696.342 287.465,694.006 290.708,691.615 293.951,689.167 297.194,686.661 300.437,684.098 303.68,681.475 306.923,678.796 310.166,676.062 313.409,673.274 316.652,670.436 319.895,667.548 323.138,664.614 326.381,661.634 329.624,658.611 332.867,655.548 336.11,652.445 339.353,649.307 342.596,646.133 345.84,642.927 349.083,639.691 352.326,636.426 355.569,633.135 358.812,629.82 362.055,626.482 365.298,623.125 368.541,619.749 371.784,616.356 375.027,612.95 378.27,609.532 381.513,606.104 384.756,602.668 387.999,599.226 391.242,595.78 394.485,592.333 397.728,588.887 400.971,585.442 404.214,582.003 407.457,578.571 410.7,575.148 413.943,571.736 417.186,568.338 420.429,564.956 423.672,561.592 426.915,558.248 430.158,554.928 433.401,551.632 436.644,548.365 439.887,545.127 443.13,541.923 446.373,538.757 449.616,535.636 452.859,532.566 456.103,529.553 459.346,526.602 462.589,523.72 465.832,520.906 469.075,518.161 472.318,515.483 475.561,512.873 478.804,510.331 482.047,507.857 485.29,505.45 488.533,503.11 491.776,500.839 495.019,498.635 498.262,496.493 501.505,494.413 504.748,492.392 507.991,490.427 511.234,488.517 514.477,486.658 517.72,484.849 520.963,483.087 524.206,481.372 527.449,479.699 530.692,478.068 533.935,476.477 537.178,474.924 540.421,473.407 543.664,471.924 546.907,470.473 550.15,469.054 553.393,467.664 556.636,466.301 559.879,464.965 563.122,463.653 566.366,462.365 569.609,461.098 572.852,459.852 576.095,458.625 579.338,457.416 582.581,456.224 585.824,455.047 589.067,453.884 592.31,452.735 595.553,451.598 598.796,450.472 602.039,449.355 605.282,448.248 608.525,447.149 611.768,446.057 615.011,444.972 618.254,443.892 621.497,442.816 624.74,441.744 627.983,440.676 631.226,439.61 634.469,438.545 637.712,437.482 640.955,436.419 644.198,435.356 647.441,434.292 650.684,433.227 653.927,432.16 657.17,431.091 660.413,430.02 663.656,428.945 666.899,427.867 670.142,426.784 673.385,425.698 676.629,424.607 679.872,423.512 683.115,422.412 686.358,421.306 689.601,420.195 692.844,419.079 696.087,417.957 699.33,416.829 702.573,415.695 705.816,414.555 709.059,413.41 712.302,412.259 715.545,411.102 718.788,409.939 722.031,408.77 725.274,407.596 728.517,406.417 731.76,405.233 735.003,404.043 738.246,402.849 741.489,401.651 744.732,400.448 747.975,399.242 751.218,398.032 754.461,396.819 757.704,395.604 760.947,394.387 764.19,393.168 767.433,391.949 770.676,390.728 773.919,389.508 777.162,388.289 780.405,387.071 783.648,385.856 786.892,384.643 790.135,383.434 793.378,382.23 796.621,381.031 799.864,379.838 803.107,378.653 806.35,377.476 809.593,376.308 812.836,375.15 816.079,374.004 819.322,372.87 822.565,371.75 825.808,370.645 829.051,369.556 832.294,368.484 835.537,367.432 838.78,366.399 842.023,365.389 845.266,364.402 848.509,363.44 851.752,362.504 854.995,361.596 858.238,360.718 861.481,359.872 864.724,359.059 867.967,358.282 871.21,357.542 874.453,356.841 877.696,356.182 880.939,355.566 884.182,354.996 887.425,354.474 890.668,354.003 893.911,353.584 897.155,353.22 900.398,352.914 903.641,352.668 906.884,352.485 910.127,352.37 913.37,352.325 916.613,352.356 919.856,352.467 923.099,352.661 926.342,352.944 929.585,353.319 932.828,353.792 936.071,354.368 939.314,355.05 942.557,355.844 945.8,356.755 949.043,357.788 952.286,358.949 955.529,360.242 958.772,361.673 962.015,363.247 965.258,364.964 968.501,366.823 971.744,368.825 974.987,370.968 978.23,373.253 981.473,375.679 984.716,378.247 987.959,380.957 991.202,383.808 994.445,386.801 997.688,389.937 1000.93,393.214 1004.17,396.628 1007.42,400.174 1010.66,403.848 1013.9,407.645 1017.15,411.559 1020.39,415.588 1023.63,419.725 1026.88,423.968 1030.12,428.312 1033.36,432.752 1036.6,437.285 1039.85,441.906 1043.09,446.613 1046.33,451.401 1049.58,456.266 1052.82,461.205 1056.06,466.214 1059.31,471.29 1062.55,476.43 1065.79,481.63 1069.04,486.886 1072.28,492.196 1075.52,497.557 1078.76,502.965 1082.01,508.417 1085.25,513.91 1088.49,519.442 1091.74,525.01 1094.98,530.61 1098.22,536.24 1101.47,541.896 1104.71,547.577 1107.95,553.279 1111.19,558.999 1114.44,564.735 1117.68,570.484 1120.92,576.244 1124.17,582.011 1127.41,587.783 1130.65,593.558 1133.9,599.333 1137.14,605.105 1140.38,610.873 1143.62,616.632 1146.87,622.381 1150.11,628.117 1153.35,633.838 1156.6,639.542 1159.84,645.224 1163.08,650.885 1166.33,656.519 1169.57,662.126 1172.81,667.703 1176.06,673.246 1179.3,678.754 1182.54,684.224 1185.78,689.654 1189.03,695.041 1192.27,700.385 1195.51,705.689 1198.76,710.952 1202,716.177 1205.24,721.363 1208.49,726.511 1211.73,731.624 1214.97,736.701 1218.21,741.743 1221.46,746.752 1224.7,751.728 1227.94,756.672 1231.19,761.584 1234.43,766.466 1237.67,771.319 1240.92,776.143 1244.16,780.938 1247.4,785.707 1250.64,790.448 1253.89,795.164 1257.13,799.854 1260.37,804.52 1263.62,809.162 1266.86,813.78 1270.1,818.376 1273.35,822.949 1276.59,827.501 1279.83,832.032 1283.08,836.542 1286.32,841.033 1289.56,845.504 1292.8,849.956 1296.05,854.39 1299.29,858.805 1302.53,863.203 1305.78,867.584 1309.02,871.948 1312.26,876.296 1315.51,880.627 1318.75,884.943 1321.99,889.244 1325.23,893.529 1328.48,897.8 1331.72,902.056 1334.96,906.298 1338.21,910.526 1341.45,914.74 1344.69,918.94 1347.94,923.127 1351.18,927.3 1354.42,931.461 1357.66,935.608 1360.91,939.742 1364.15,943.863 1367.39,947.971 1370.64,952.066 1373.88,956.148 1377.12,960.217 1380.37,964.273 1383.61,968.315 1386.85,972.345 1390.1,976.361 1393.34,980.363 1396.58,984.352 1399.82,988.326 1403.07,992.287 1406.31,996.232 1409.55,1000.16 1412.8,1004.08 1416.04,1007.98 1419.28,1011.86 1422.53,1015.73 1425.77,1019.58 1429.01,1023.42 1432.25,1027.23 1435.5,1031.03 1438.74,1034.81 1441.98,1038.57 1445.23,1042.31 1448.47,1046.03 1451.71,1049.72 1454.96,1053.4 1458.2,1057.06 1461.44,1060.69 1464.68,1064.31 1467.93,1067.91 1471.17,1071.48 1474.41,1075.05 1477.66,1078.59 1480.9,1082.11 1484.14,1085.62 1487.39,1089.11 1490.63,1092.59 1493.87,1096.04 1497.11,1099.48 1500.36,1102.91 1503.6,1106.32 1506.84,1109.71 1510.09,1113.08 1513.33,1116.44 1516.57,1119.78 1519.82,1123.11 1523.06,1126.41 1526.3,1129.7 1529.55,1132.98 1532.79,1136.23 1536.03,1139.47 1539.27,1142.68 1542.52,1145.88 1545.76,1149.06 1549,1152.22 1552.25,1155.35 1555.49,1158.47 1558.73,1161.56 1561.98,1164.63 1565.22,1167.68 1568.46,1170.7 1571.7,1173.69 1574.95,1176.66 1578.19,1179.6 1581.43,1182.52 1584.68,1185.4 1587.92,1188.25 1591.16,1191.07 1594.41,1193.86 1597.65,1196.61 1600.89,1199.33 1604.13,1202.01 1607.38,1204.65 1610.62,1207.25 1613.86,1209.8 1617.11,1212.32 1620.35,1214.78 1623.59,1217.2 1626.84,1219.57 1630.08,1221.89 1633.32,1224.16 1636.57,1226.37 1639.81,1228.52 1643.05,1230.61 1646.29,1232.64 1649.54,1234.61 1652.78,1236.51 1656.02,1238.34 1659.27,1240.11 1662.51,1241.81 1665.75,1243.44 1669,1245.01 1672.24,1246.52 1675.48,1247.96 1678.72,1249.33 1681.97,1250.64 1685.21,1251.88 1688.45,1253.06 1691.7,1254.17 1694.94,1255.22 1698.18,1256.2 1701.43,1257.11 1704.67,1257.95 1707.91,1258.72 1711.15,1259.43 1714.4,1260.06 1717.64,1260.62 1720.88,1261.11 1724.13,1261.52 1727.37,1261.86 1730.61,1262.12 1733.86,1262.3 1737.1,1262.41 1740.34,1262.43 1743.59,1262.37 1746.83,1262.22 1750.07,1261.99 1753.31,1261.67 1756.56,1261.26 1759.8,1260.76 1763.04,1260.17 1766.29,1259.48 1769.53,1258.7 1772.77,1257.83 1776.02,1256.87 1779.26,1255.83 1782.5,1254.72 1785.74,1253.52 1788.99,1252.25 1792.23,1250.91 1795.47,1249.5 1798.72,1248.02 1801.96,1246.48 1805.2,1244.88 1808.45,1243.23 1811.69,1241.51 1814.93,1239.74 1818.17,1237.92 1821.42,1236.05 1824.66,1234.13 1827.9,1232.16 1831.15,1230.15 1834.39,1228.09 1837.63,1226 1840.88,1223.87 1844.12,1221.7 1847.36,1219.49 1850.61,1217.25 1853.85,1214.97 1857.09,1212.66 1860.33,1210.32 1863.58,1207.95 1866.82,1205.56 1870.06,1203.13 1873.31,1200.68 1876.55,1198.21 1879.79,1195.71 1883.04,1193.18 1886.28,1190.64 1889.52,1188.07 1892.76,1185.48 1896.01,1182.87 1899.25,1180.24 1902.49,1177.59 1905.74,1174.92 1908.98,1172.23 1912.22,1169.53 1915.47,1166.8 1918.71,1164.06 1921.95,1161.31 1925.19,1158.53 1928.44,1155.74 1931.68,1152.94 1934.92,1150.12 1938.17,1147.28 1941.41,1144.42 1944.65,1141.55 1947.9,1138.67 1951.14,1135.76 1954.38,1132.84 1957.63,1129.91 1960.87,1126.95 1964.11,1123.98 1967.35,1121 1970.6,1117.99 1973.84,1114.97 1977.08,1111.93 1980.33,1108.87 1983.57,1105.8 1986.81,1102.72 1990.06,1099.62 1993.3,1096.51 1996.54,1093.39 1999.78,1090.26 2003.03,1087.12 2006.27,1083.97 2009.51,1080.82 2012.76,1077.65 2016,1074.49 2019.24,1071.32 2022.49,1068.14 2025.73,1064.97 2028.97,1061.79 2032.21,1058.61 2035.46,1055.43 2038.7,1052.26 2041.94,1049.08 2045.19,1045.91 2048.43,1042.75 2051.67,1039.58 2054.92,1036.43 2058.16,1033.28 2061.4,1030.13 2064.65,1027 2067.89,1023.87 2071.13,1020.75 2074.37,1017.65 2077.62,1014.55 2080.86,1011.46 2084.1,1008.39 2087.35,1005.33 2090.59,1002.28 2093.83,999.239 2097.08,996.217 2100.32,993.209 2103.56,990.216 2106.8,987.239 2110.05,984.278 2113.29,981.333 2116.53,978.405 2119.78,975.495 2123.02,972.603 2126.26,969.73 2129.51,966.876 2132.75,964.04 2135.99,961.225 2139.23,958.43 2142.48,955.656 2145.72,952.903 2148.96,950.172 2152.21,947.463 2155.45,944.776 2158.69,942.113 2161.94,939.472 2165.18,936.856 2168.42,934.263 2171.67,931.696 2174.91,929.153 2178.15,926.636 2181.39,924.144 2184.64,921.679 2187.88,919.241 2191.12,916.83 2194.37,914.447 2197.61,912.091 2200.85,909.764 2204.1,907.466 2207.34,905.198 2210.58,902.959 2213.82,900.751 2217.07,898.574 2220.31,896.427 2223.55,894.313 2226.8,892.231 2230.04,890.181 2233.28,888.165 2236.53,886.183 2239.77,884.235 2243.01,882.32 2246.25,880.439 2249.5,878.59 2252.74,876.773 2255.98,874.988 2259.23,873.234 2262.47,871.51 2265.71,869.815 2268.96,868.151 2272.2,866.515 2275.44,864.907 2278.69,863.327 2281.93,861.775 2285.17,860.249 2288.41,858.75 2291.66,857.277 "/>
<path clip-path="url(#clip000)" d="M1953.46 302.578 L2280.8 302.578 L2280.8 95.2176 L1953.46 95.2176  Z" fill="#ffffff" fill-rule="evenodd" fill-opacity="1"/>
<polyline clip-path="url(#clip000)" style="stroke:#000000; stroke-linecap:round; stroke-linejoin:round; stroke-width:4; stroke-opacity:1; fill:none" points="1953.46,302.578 2280.8,302.578 2280.8,95.2176 1953.46,95.2176 1953.46,302.578 "/>
<polyline clip-path="url(#clip000)" style="stroke:#009af9; stroke-linecap:round; stroke-linejoin:round; stroke-width:4; stroke-opacity:1; fill:none" points="1977.44,147.058 2121.36,147.058 "/>
<path clip-path="url(#clip000)" d="M2152.76 131.051 L2152.76 138.412 L2161.53 138.412 L2161.53 141.722 L2152.76 141.722 L2152.76 155.796 Q2152.76 158.967 2153.61 159.87 Q2154.49 160.773 2157.16 160.773 L2161.53 160.773 L2161.53 164.338 L2157.16 164.338 Q2152.23 164.338 2150.35 162.509 Q2148.48 160.657 2148.48 155.796 L2148.48 141.722 L2145.35 141.722 L2145.35 138.412 L2148.48 138.412 L2148.48 131.051 L2152.76 131.051 Z" fill="#000000" fill-rule="nonzero" fill-opacity="1" /><path clip-path="url(#clip000)" d="M2182.16 142.393 Q2181.44 141.977 2180.58 141.791 Q2179.75 141.583 2178.73 141.583 Q2175.12 141.583 2173.17 143.944 Q2171.25 146.282 2171.25 150.68 L2171.25 164.338 L2166.97 164.338 L2166.97 138.412 L2171.25 138.412 L2171.25 142.44 Q2172.6 140.078 2174.75 138.944 Q2176.9 137.787 2179.98 137.787 Q2180.42 137.787 2180.95 137.856 Q2181.48 137.903 2182.13 138.018 L2182.16 142.393 Z" fill="#000000" fill-rule="nonzero" fill-opacity="1" /><path clip-path="url(#clip000)" d="M2186.18 154.106 L2186.18 138.412 L2190.44 138.412 L2190.44 153.944 Q2190.44 157.625 2191.88 159.476 Q2193.31 161.305 2196.18 161.305 Q2199.63 161.305 2201.62 159.106 Q2203.64 156.907 2203.64 153.111 L2203.64 138.412 L2207.9 138.412 L2207.9 164.338 L2203.64 164.338 L2203.64 160.356 Q2202.09 162.717 2200.03 163.875 Q2197.99 165.009 2195.28 165.009 Q2190.81 165.009 2188.5 162.231 Q2186.18 159.453 2186.18 154.106 M2196.9 137.787 L2196.9 137.787 Z" fill="#000000" fill-rule="nonzero" fill-opacity="1" /><path clip-path="url(#clip000)" d="M2220.88 131.051 L2220.88 138.412 L2229.66 138.412 L2229.66 141.722 L2220.88 141.722 L2220.88 155.796 Q2220.88 158.967 2221.74 159.87 Q2222.62 160.773 2225.28 160.773 L2229.66 160.773 L2229.66 164.338 L2225.28 164.338 Q2220.35 164.338 2218.48 162.509 Q2216.6 160.657 2216.6 155.796 L2216.6 141.722 L2213.48 141.722 L2213.48 138.412 L2216.6 138.412 L2216.6 131.051 L2220.88 131.051 Z" fill="#000000" fill-rule="nonzero" fill-opacity="1" /><path clip-path="url(#clip000)" d="M2256.81 148.689 L2256.81 164.338 L2252.55 164.338 L2252.55 148.828 Q2252.55 145.148 2251.11 143.319 Q2249.68 141.49 2246.81 141.49 Q2243.36 141.49 2241.37 143.69 Q2239.38 145.889 2239.38 149.685 L2239.38 164.338 L2235.1 164.338 L2235.1 128.319 L2239.38 128.319 L2239.38 142.44 Q2240.91 140.102 2242.97 138.944 Q2245.05 137.787 2247.76 137.787 Q2252.23 137.787 2254.52 140.565 Q2256.81 143.319 2256.81 148.689 Z" fill="#000000" fill-rule="nonzero" fill-opacity="1" /><circle clip-path="url(#clip000)" cx="2049.4" cy="198.898" r="20.48" fill="#e26f46" fill-rule="evenodd" fill-opacity="1" stroke="#000000" stroke-opacity="1" stroke-width="4.55111"/>
<path clip-path="url(#clip000)" d="M2164.26 194.187 L2164.26 180.159 L2168.52 180.159 L2168.52 216.178 L2164.26 216.178 L2164.26 212.289 Q2162.92 214.603 2160.86 215.738 Q2158.82 216.849 2155.95 216.849 Q2151.25 216.849 2148.29 213.099 Q2145.35 209.349 2145.35 203.238 Q2145.35 197.127 2148.29 193.377 Q2151.25 189.627 2155.95 189.627 Q2158.82 189.627 2160.86 190.761 Q2162.92 191.872 2164.26 194.187 M2149.75 203.238 Q2149.75 207.937 2151.67 210.622 Q2153.61 213.284 2156.99 213.284 Q2160.37 213.284 2162.32 210.622 Q2164.26 207.937 2164.26 203.238 Q2164.26 198.539 2162.32 195.877 Q2160.37 193.192 2156.99 193.192 Q2153.61 193.192 2151.67 195.877 Q2149.75 198.539 2149.75 203.238 Z" fill="#000000" fill-rule="nonzero" fill-opacity="1" /><path clip-path="url(#clip000)" d="M2189.08 203.145 Q2183.92 203.145 2181.92 204.326 Q2179.93 205.506 2179.93 208.354 Q2179.93 210.622 2181.42 211.965 Q2182.92 213.284 2185.49 213.284 Q2189.03 213.284 2191.16 210.784 Q2193.31 208.261 2193.31 204.094 L2193.31 203.145 L2189.08 203.145 M2197.57 201.386 L2197.57 216.178 L2193.31 216.178 L2193.31 212.242 Q2191.85 214.603 2189.68 215.738 Q2187.5 216.849 2184.36 216.849 Q2180.37 216.849 2178.01 214.627 Q2175.67 212.381 2175.67 208.631 Q2175.67 204.256 2178.59 202.034 Q2181.53 199.812 2187.34 199.812 L2193.31 199.812 L2193.31 199.395 Q2193.31 196.455 2191.37 194.858 Q2189.45 193.238 2185.95 193.238 Q2183.73 193.238 2181.62 193.77 Q2179.52 194.303 2177.57 195.367 L2177.57 191.432 Q2179.91 190.53 2182.11 190.09 Q2184.31 189.627 2186.39 189.627 Q2192.02 189.627 2194.79 192.543 Q2197.57 195.46 2197.57 201.386 Z" fill="#000000" fill-rule="nonzero" fill-opacity="1" /><path clip-path="url(#clip000)" d="M2210.56 182.891 L2210.56 190.252 L2219.33 190.252 L2219.33 193.562 L2210.56 193.562 L2210.56 207.636 Q2210.56 210.807 2211.42 211.71 Q2212.29 212.613 2214.96 212.613 L2219.33 212.613 L2219.33 216.178 L2214.96 216.178 Q2210.03 216.178 2208.15 214.349 Q2206.28 212.497 2206.28 207.636 L2206.28 193.562 L2203.15 193.562 L2203.15 190.252 L2206.28 190.252 L2206.28 182.891 L2210.56 182.891 Z" fill="#000000" fill-rule="nonzero" fill-opacity="1" /><path clip-path="url(#clip000)" d="M2236.72 203.145 Q2231.55 203.145 2229.56 204.326 Q2227.57 205.506 2227.57 208.354 Q2227.57 210.622 2229.05 211.965 Q2230.56 213.284 2233.13 213.284 Q2236.67 213.284 2238.8 210.784 Q2240.95 208.261 2240.95 204.094 L2240.95 203.145 L2236.72 203.145 M2245.21 201.386 L2245.21 216.178 L2240.95 216.178 L2240.95 212.242 Q2239.49 214.603 2237.32 215.738 Q2235.14 216.849 2231.99 216.849 Q2228.01 216.849 2225.65 214.627 Q2223.31 212.381 2223.31 208.631 Q2223.31 204.256 2226.23 202.034 Q2229.17 199.812 2234.98 199.812 L2240.95 199.812 L2240.95 199.395 Q2240.95 196.455 2239.01 194.858 Q2237.09 193.238 2233.59 193.238 Q2231.37 193.238 2229.26 193.77 Q2227.16 194.303 2225.21 195.367 L2225.21 191.432 Q2227.55 190.53 2229.75 190.09 Q2231.95 189.627 2234.03 189.627 Q2239.66 189.627 2242.43 192.543 Q2245.21 195.46 2245.21 201.386 Z" fill="#000000" fill-rule="nonzero" fill-opacity="1" /><polyline clip-path="url(#clip000)" style="stroke:#3da44d; stroke-linecap:round; stroke-linejoin:round; stroke-width:8; stroke-opacity:1; fill:none" points="1977.44,250.738 2121.36,250.738 "/>
<path clip-path="url(#clip000)" d="M2170.91 263.087 L2170.91 253.805 L2163.27 253.805 L2163.27 249.962 L2175.54 249.962 L2175.54 264.8 Q2172.83 266.721 2169.56 267.717 Q2166.3 268.689 2162.6 268.689 Q2154.49 268.689 2149.91 263.967 Q2145.35 259.221 2145.35 250.772 Q2145.35 242.3 2149.91 237.578 Q2154.49 232.833 2162.6 232.833 Q2165.98 232.833 2169.01 233.666 Q2172.06 234.499 2174.63 236.12 L2174.63 241.096 Q2172.04 238.897 2169.12 237.786 Q2166.21 236.675 2162.99 236.675 Q2156.65 236.675 2153.45 240.217 Q2150.28 243.758 2150.28 250.772 Q2150.28 257.763 2153.45 261.305 Q2156.65 264.846 2162.99 264.846 Q2165.47 264.846 2167.41 264.43 Q2169.36 263.99 2170.91 263.087 Z" fill="#000000" fill-rule="nonzero" fill-opacity="1" /><path clip-path="url(#clip000)" d="M2188.75 237.3 L2188.75 250.286 L2194.63 250.286 Q2197.9 250.286 2199.68 248.596 Q2201.46 246.907 2201.46 243.782 Q2201.46 240.68 2199.68 238.99 Q2197.9 237.3 2194.63 237.3 L2188.75 237.3 M2184.08 233.458 L2194.63 233.458 Q2200.44 233.458 2203.41 236.096 Q2206.39 238.712 2206.39 243.782 Q2206.39 248.897 2203.41 251.513 Q2200.44 254.129 2194.63 254.129 L2188.75 254.129 L2188.75 268.018 L2184.08 268.018 L2184.08 233.458 Z" fill="#000000" fill-rule="nonzero" fill-opacity="1" /></svg>
