<?xml version="1.0" encoding="utf-8"?>
<svg xmlns="http://www.w3.org/2000/svg" xmlns:xlink="http://www.w3.org/1999/xlink" width="600" height="400" viewBox="0 0 2400 1600">
<defs>
  <clipPath id="clip350">
    <rect x="0" y="0" width="2400" height="1600"/>
  </clipPath>
</defs>
<path clip-path="url(#clip350)" d="M0 1600 L2400 1600 L2400 0 L0 0  Z" fill="#ffffff" fill-rule="evenodd" fill-opacity="1"/>
<defs>
  <clipPath id="clip351">
    <rect x="480" y="0" width="1681" height="1600"/>
  </clipPath>
</defs>
<path clip-path="url(#clip350)" d="M193.936 1486.45 L2352.76 1486.45 L2352.76 47.2441 L193.936 47.2441  Z" fill="#ffffff" fill-rule="evenodd" fill-opacity="1"/>
<defs>
  <clipPath id="clip352">
    <rect x="193" y="47" width="2160" height="1440"/>
  </clipPath>
</defs>
<polyline clip-path="url(#clip352)" style="stroke:#000000; stroke-linecap:round; stroke-linejoin:round; stroke-width:2; stroke-opacity:0.1; fill:none" points="255.035,1486.45 255.035,47.2441 "/>
<polyline clip-path="url(#clip352)" style="stroke:#000000; stroke-linecap:round; stroke-linejoin:round; stroke-width:2; stroke-opacity:0.1; fill:none" points="579.338,1486.45 579.338,47.2441 "/>
<polyline clip-path="url(#clip352)" style="stroke:#000000; stroke-linecap:round; stroke-linejoin:round; stroke-width:2; stroke-opacity:0.1; fill:none" points="903.641,1486.45 903.641,47.2441 "/>
<polyline clip-path="url(#clip352)" style="stroke:#000000; stroke-linecap:round; stroke-linejoin:round; stroke-width:2; stroke-opacity:0.1; fill:none" points="1227.94,1486.45 1227.94,47.2441 "/>
<polyline clip-path="url(#clip352)" style="stroke:#000000; stroke-linecap:round; stroke-linejoin:round; stroke-width:2; stroke-opacity:0.1; fill:none" points="1552.25,1486.45 1552.25,47.2441 "/>
<polyline clip-path="url(#clip352)" style="stroke:#000000; stroke-linecap:round; stroke-linejoin:round; stroke-width:2; stroke-opacity:0.1; fill:none" points="1876.55,1486.45 1876.55,47.2441 "/>
<polyline clip-path="url(#clip352)" style="stroke:#000000; stroke-linecap:round; stroke-linejoin:round; stroke-width:2; stroke-opacity:0.1; fill:none" points="2200.85,1486.45 2200.85,47.2441 "/>
<polyline clip-path="url(#clip352)" style="stroke:#000000; stroke-linecap:round; stroke-linejoin:round; stroke-width:2; stroke-opacity:0.1; fill:none" points="193.936,1445.72 2352.76,1445.72 "/>
<polyline clip-path="url(#clip352)" style="stroke:#000000; stroke-linecap:round; stroke-linejoin:round; stroke-width:2; stroke-opacity:0.1; fill:none" points="193.936,1119.29 2352.76,1119.29 "/>
<polyline clip-path="url(#clip352)" style="stroke:#000000; stroke-linecap:round; stroke-linejoin:round; stroke-width:2; stroke-opacity:0.1; fill:none" points="193.936,792.86 2352.76,792.86 "/>
<polyline clip-path="url(#clip352)" style="stroke:#000000; stroke-linecap:round; stroke-linejoin:round; stroke-width:2; stroke-opacity:0.1; fill:none" points="193.936,466.431 2352.76,466.431 "/>
<polyline clip-path="url(#clip352)" style="stroke:#000000; stroke-linecap:round; stroke-linejoin:round; stroke-width:2; stroke-opacity:0.1; fill:none" points="193.936,140.002 2352.76,140.002 "/>
<polyline clip-path="url(#clip350)" style="stroke:#000000; stroke-linecap:round; stroke-linejoin:round; stroke-width:4; stroke-opacity:1; fill:none" points="193.936,1486.45 2352.76,1486.45 "/>
<polyline clip-path="url(#clip350)" style="stroke:#000000; stroke-linecap:round; stroke-linejoin:round; stroke-width:4; stroke-opacity:1; fill:none" points="255.035,1486.45 255.035,1467.55 "/>
<polyline clip-path="url(#clip350)" style="stroke:#000000; stroke-linecap:round; stroke-linejoin:round; stroke-width:4; stroke-opacity:1; fill:none" points="579.338,1486.45 579.338,1467.55 "/>
<polyline clip-path="url(#clip350)" style="stroke:#000000; stroke-linecap:round; stroke-linejoin:round; stroke-width:4; stroke-opacity:1; fill:none" points="903.641,1486.45 903.641,1467.55 "/>
<polyline clip-path="url(#clip350)" style="stroke:#000000; stroke-linecap:round; stroke-linejoin:round; stroke-width:4; stroke-opacity:1; fill:none" points="1227.94,1486.45 1227.94,1467.55 "/>
<polyline clip-path="url(#clip350)" style="stroke:#000000; stroke-linecap:round; stroke-linejoin:round; stroke-width:4; stroke-opacity:1; fill:none" points="1552.25,1486.45 1552.25,1467.55 "/>
<polyline clip-path="url(#clip350)" style="stroke:#000000; stroke-linecap:round; stroke-linejoin:round; stroke-width:4; stroke-opacity:1; fill:none" points="1876.55,1486.45 1876.55,1467.55 "/>
<polyline clip-path="url(#clip350)" style="stroke:#000000; stroke-linecap:round; stroke-linejoin:round; stroke-width:4; stroke-opacity:1; fill:none" points="2200.85,1486.45 2200.85,1467.55 "/>
<path clip-path="url(#clip350)" d="M255.035 1517.37 Q251.424 1517.37 249.595 1520.93 Q247.789 1524.47 247.789 1531.6 Q247.789 1538.71 249.595 1542.27 Q251.424 1545.82 255.035 1545.82 Q258.669 1545.82 260.474 1542.27 Q262.303 1538.71 262.303 1531.6 Q262.303 1524.47 260.474 1520.93 Q258.669 1517.37 255.035 1517.37 M255.035 1513.66 Q260.845 1513.66 263.9 1518.27 Q266.979 1522.85 266.979 1531.6 Q266.979 1540.33 263.9 1544.94 Q260.845 1549.52 255.035 1549.52 Q249.225 1549.52 246.146 1544.94 Q243.09 1540.33 243.09 1531.6 Q243.09 1522.85 246.146 1518.27 Q249.225 1513.66 255.035 1513.66 Z" fill="#000000" fill-rule="nonzero" fill-opacity="1" /><path clip-path="url(#clip350)" d="M569.72 1544.91 L577.358 1544.91 L577.358 1518.55 L569.048 1520.21 L569.048 1515.95 L577.312 1514.29 L581.988 1514.29 L581.988 1544.91 L589.627 1544.91 L589.627 1548.85 L569.72 1548.85 L569.72 1544.91 Z" fill="#000000" fill-rule="nonzero" fill-opacity="1" /><path clip-path="url(#clip350)" d="M898.293 1544.91 L914.613 1544.91 L914.613 1548.85 L892.668 1548.85 L892.668 1544.91 Q895.33 1542.16 899.914 1537.53 Q904.52 1532.88 905.701 1531.53 Q907.946 1529.01 908.826 1527.27 Q909.729 1525.51 909.729 1523.82 Q909.729 1521.07 907.784 1519.33 Q905.863 1517.6 902.761 1517.6 Q900.562 1517.6 898.108 1518.36 Q895.678 1519.13 892.9 1520.68 L892.9 1515.95 Q895.724 1514.82 898.178 1514.24 Q900.631 1513.66 902.668 1513.66 Q908.039 1513.66 911.233 1516.35 Q914.428 1519.03 914.428 1523.52 Q914.428 1525.65 913.617 1527.57 Q912.83 1529.47 910.724 1532.07 Q910.145 1532.74 907.043 1535.95 Q903.942 1539.15 898.293 1544.91 Z" fill="#000000" fill-rule="nonzero" fill-opacity="1" /><path clip-path="url(#clip350)" d="M1232.19 1530.21 Q1235.55 1530.93 1237.42 1533.2 Q1239.32 1535.47 1239.32 1538.8 Q1239.32 1543.92 1235.8 1546.72 Q1232.28 1549.52 1225.8 1549.52 Q1223.63 1549.52 1221.31 1549.08 Q1219.02 1548.66 1216.57 1547.81 L1216.57 1543.29 Q1218.51 1544.43 1220.83 1545.01 Q1223.14 1545.58 1225.66 1545.58 Q1230.06 1545.58 1232.35 1543.85 Q1234.67 1542.11 1234.67 1538.8 Q1234.67 1535.75 1232.52 1534.03 Q1230.39 1532.3 1226.57 1532.3 L1222.54 1532.3 L1222.54 1528.45 L1226.75 1528.45 Q1230.2 1528.45 1232.03 1527.09 Q1233.86 1525.7 1233.86 1523.11 Q1233.86 1520.45 1231.96 1519.03 Q1230.08 1517.6 1226.57 1517.6 Q1224.64 1517.6 1222.45 1518.01 Q1220.25 1518.43 1217.61 1519.31 L1217.61 1515.14 Q1220.27 1514.4 1222.58 1514.03 Q1224.92 1513.66 1226.98 1513.66 Q1232.31 1513.66 1235.41 1516.09 Q1238.51 1518.5 1238.51 1522.62 Q1238.51 1525.49 1236.87 1527.48 Q1235.22 1529.45 1232.19 1530.21 Z" fill="#000000" fill-rule="nonzero" fill-opacity="1" /><path clip-path="url(#clip350)" d="M1555.26 1518.36 L1543.45 1536.81 L1555.26 1536.81 L1555.26 1518.36 M1554.03 1514.29 L1559.91 1514.29 L1559.91 1536.81 L1564.84 1536.81 L1564.84 1540.7 L1559.91 1540.7 L1559.91 1548.85 L1555.26 1548.85 L1555.26 1540.7 L1539.65 1540.7 L1539.65 1536.19 L1554.03 1514.29 Z" fill="#000000" fill-rule="nonzero" fill-opacity="1" /><path clip-path="url(#clip350)" d="M1866.83 1514.29 L1885.18 1514.29 L1885.18 1518.22 L1871.11 1518.22 L1871.11 1526.7 Q1872.13 1526.35 1873.15 1526.19 Q1874.17 1526 1875.18 1526 Q1880.97 1526 1884.35 1529.17 Q1887.73 1532.34 1887.73 1537.76 Q1887.73 1543.34 1884.26 1546.44 Q1880.79 1549.52 1874.47 1549.52 Q1872.29 1549.52 1870.02 1549.15 Q1867.78 1548.78 1865.37 1548.04 L1865.37 1543.34 Q1867.45 1544.47 1869.67 1545.03 Q1871.9 1545.58 1874.37 1545.58 Q1878.38 1545.58 1880.72 1543.48 Q1883.05 1541.37 1883.05 1537.76 Q1883.05 1534.15 1880.72 1532.04 Q1878.38 1529.94 1874.37 1529.94 Q1872.5 1529.94 1870.62 1530.35 Q1868.77 1530.77 1866.83 1531.65 L1866.83 1514.29 Z" fill="#000000" fill-rule="nonzero" fill-opacity="1" /><path clip-path="url(#clip350)" d="M2201.26 1529.7 Q2198.11 1529.7 2196.26 1531.86 Q2194.43 1534.01 2194.43 1537.76 Q2194.43 1541.49 2196.26 1543.66 Q2198.11 1545.82 2201.26 1545.82 Q2204.41 1545.82 2206.23 1543.66 Q2208.09 1541.49 2208.09 1537.76 Q2208.09 1534.01 2206.23 1531.86 Q2204.41 1529.7 2201.26 1529.7 M2210.54 1515.05 L2210.54 1519.31 Q2208.78 1518.48 2206.98 1518.04 Q2205.19 1517.6 2203.43 1517.6 Q2198.8 1517.6 2196.35 1520.72 Q2193.92 1523.85 2193.57 1530.17 Q2194.94 1528.15 2197 1527.09 Q2199.06 1526 2201.54 1526 Q2206.74 1526 2209.75 1529.17 Q2212.79 1532.32 2212.79 1537.76 Q2212.79 1543.08 2209.64 1546.3 Q2206.49 1549.52 2201.26 1549.52 Q2195.26 1549.52 2192.09 1544.94 Q2188.92 1540.33 2188.92 1531.6 Q2188.92 1523.41 2192.81 1518.55 Q2196.7 1513.66 2203.25 1513.66 Q2205.01 1513.66 2206.79 1514.01 Q2208.6 1514.36 2210.54 1515.05 Z" fill="#000000" fill-rule="nonzero" fill-opacity="1" /><polyline clip-path="url(#clip350)" style="stroke:#000000; stroke-linecap:round; stroke-linejoin:round; stroke-width:4; stroke-opacity:1; fill:none" points="193.936,1486.45 193.936,47.2441 "/>
<polyline clip-path="url(#clip350)" style="stroke:#000000; stroke-linecap:round; stroke-linejoin:round; stroke-width:4; stroke-opacity:1; fill:none" points="193.936,1445.72 212.834,1445.72 "/>
<polyline clip-path="url(#clip350)" style="stroke:#000000; stroke-linecap:round; stroke-linejoin:round; stroke-width:4; stroke-opacity:1; fill:none" points="193.936,1119.29 212.834,1119.29 "/>
<polyline clip-path="url(#clip350)" style="stroke:#000000; stroke-linecap:round; stroke-linejoin:round; stroke-width:4; stroke-opacity:1; fill:none" points="193.936,792.86 212.834,792.86 "/>
<polyline clip-path="url(#clip350)" style="stroke:#000000; stroke-linecap:round; stroke-linejoin:round; stroke-width:4; stroke-opacity:1; fill:none" points="193.936,466.431 212.834,466.431 "/>
<polyline clip-path="url(#clip350)" style="stroke:#000000; stroke-linecap:round; stroke-linejoin:round; stroke-width:4; stroke-opacity:1; fill:none" points="193.936,140.002 212.834,140.002 "/>
<path clip-path="url(#clip350)" d="M50.9921 1446.17 L80.6679 1446.17 L80.6679 1450.1 L50.9921 1450.1 L50.9921 1446.17 Z" fill="#000000" fill-rule="nonzero" fill-opacity="1" /><path clip-path="url(#clip350)" d="M91.5706 1459.06 L99.2095 1459.06 L99.2095 1432.7 L90.8993 1434.36 L90.8993 1430.1 L99.1632 1428.44 L103.839 1428.44 L103.839 1459.06 L111.478 1459.06 L111.478 1463 L91.5706 1463 L91.5706 1459.06 Z" fill="#000000" fill-rule="nonzero" fill-opacity="1" /><path clip-path="url(#clip350)" d="M120.922 1457.12 L125.807 1457.12 L125.807 1463 L120.922 1463 L120.922 1457.12 Z" fill="#000000" fill-rule="nonzero" fill-opacity="1" /><path clip-path="url(#clip350)" d="M145.992 1431.52 Q142.381 1431.52 140.552 1435.08 Q138.746 1438.62 138.746 1445.75 Q138.746 1452.86 140.552 1456.42 Q142.381 1459.97 145.992 1459.97 Q149.626 1459.97 151.431 1456.42 Q153.26 1452.86 153.26 1445.75 Q153.26 1438.62 151.431 1435.08 Q149.626 1431.52 145.992 1431.52 M145.992 1427.81 Q151.802 1427.81 154.857 1432.42 Q157.936 1437 157.936 1445.75 Q157.936 1454.48 154.857 1459.09 Q151.802 1463.67 145.992 1463.67 Q140.181 1463.67 137.103 1459.09 Q134.047 1454.48 134.047 1445.75 Q134.047 1437 137.103 1432.42 Q140.181 1427.81 145.992 1427.81 Z" fill="#000000" fill-rule="nonzero" fill-opacity="1" /><path clip-path="url(#clip350)" d="M51.9875 1119.74 L81.6633 1119.74 L81.6633 1123.68 L51.9875 1123.68 L51.9875 1119.74 Z" fill="#000000" fill-rule="nonzero" fill-opacity="1" /><path clip-path="url(#clip350)" d="M101.756 1105.09 Q98.1447 1105.09 96.316 1108.65 Q94.5104 1112.19 94.5104 1119.32 Q94.5104 1126.43 96.316 1129.99 Q98.1447 1133.54 101.756 1133.54 Q105.39 1133.54 107.196 1129.99 Q109.024 1126.43 109.024 1119.32 Q109.024 1112.19 107.196 1108.65 Q105.39 1105.09 101.756 1105.09 M101.756 1101.38 Q107.566 1101.38 110.621 1105.99 Q113.7 1110.57 113.7 1119.32 Q113.7 1128.05 110.621 1132.66 Q107.566 1137.24 101.756 1137.24 Q95.9456 1137.24 92.8669 1132.66 Q89.8114 1128.05 89.8114 1119.32 Q89.8114 1110.57 92.8669 1105.99 Q95.9456 1101.38 101.756 1101.38 Z" fill="#000000" fill-rule="nonzero" fill-opacity="1" /><path clip-path="url(#clip350)" d="M121.918 1130.69 L126.802 1130.69 L126.802 1136.57 L121.918 1136.57 L121.918 1130.69 Z" fill="#000000" fill-rule="nonzero" fill-opacity="1" /><path clip-path="url(#clip350)" d="M137.033 1102.01 L155.39 1102.01 L155.39 1105.94 L141.316 1105.94 L141.316 1114.42 Q142.334 1114.07 143.353 1113.91 Q144.371 1113.72 145.39 1113.72 Q151.177 1113.72 154.556 1116.89 Q157.936 1120.06 157.936 1125.48 Q157.936 1131.06 154.464 1134.16 Q150.992 1137.24 144.672 1137.24 Q142.496 1137.24 140.228 1136.87 Q137.982 1136.5 135.575 1135.76 L135.575 1131.06 Q137.658 1132.19 139.881 1132.75 Q142.103 1133.3 144.58 1133.3 Q148.584 1133.3 150.922 1131.2 Q153.26 1129.09 153.26 1125.48 Q153.26 1121.87 150.922 1119.76 Q148.584 1117.66 144.58 1117.66 Q142.705 1117.66 140.83 1118.07 Q138.978 1118.49 137.033 1119.37 L137.033 1102.01 Z" fill="#000000" fill-rule="nonzero" fill-opacity="1" /><path clip-path="url(#clip350)" d="M100.76 778.658 Q97.1493 778.658 95.3206 782.223 Q93.515 785.765 93.515 792.894 Q93.515 800.001 95.3206 803.566 Q97.1493 807.107 100.76 807.107 Q104.395 807.107 106.2 803.566 Q108.029 800.001 108.029 792.894 Q108.029 785.765 106.2 782.223 Q104.395 778.658 100.76 778.658 M100.76 774.955 Q106.571 774.955 109.626 779.561 Q112.705 784.144 112.705 792.894 Q112.705 801.621 109.626 806.228 Q106.571 810.811 100.76 810.811 Q94.9502 810.811 91.8715 806.228 Q88.816 801.621 88.816 792.894 Q88.816 784.144 91.8715 779.561 Q94.9502 774.955 100.76 774.955 Z" fill="#000000" fill-rule="nonzero" fill-opacity="1" /><path clip-path="url(#clip350)" d="M120.922 804.26 L125.807 804.26 L125.807 810.14 L120.922 810.14 L120.922 804.26 Z" fill="#000000" fill-rule="nonzero" fill-opacity="1" /><path clip-path="url(#clip350)" d="M145.992 778.658 Q142.381 778.658 140.552 782.223 Q138.746 785.765 138.746 792.894 Q138.746 800.001 140.552 803.566 Q142.381 807.107 145.992 807.107 Q149.626 807.107 151.431 803.566 Q153.26 800.001 153.26 792.894 Q153.26 785.765 151.431 782.223 Q149.626 778.658 145.992 778.658 M145.992 774.955 Q151.802 774.955 154.857 779.561 Q157.936 784.144 157.936 792.894 Q157.936 801.621 154.857 806.228 Q151.802 810.811 145.992 810.811 Q140.181 810.811 137.103 806.228 Q134.047 801.621 134.047 792.894 Q134.047 784.144 137.103 779.561 Q140.181 774.955 145.992 774.955 Z" fill="#000000" fill-rule="nonzero" fill-opacity="1" /><path clip-path="url(#clip350)" d="M101.756 452.229 Q98.1447 452.229 96.316 455.794 Q94.5104 459.336 94.5104 466.465 Q94.5104 473.572 96.316 477.137 Q98.1447 480.678 101.756 480.678 Q105.39 480.678 107.196 477.137 Q109.024 473.572 109.024 466.465 Q109.024 459.336 107.196 455.794 Q105.39 452.229 101.756 452.229 M101.756 448.526 Q107.566 448.526 110.621 453.132 Q113.7 457.715 113.7 466.465 Q113.7 475.192 110.621 479.799 Q107.566 484.382 101.756 484.382 Q95.9456 484.382 92.8669 479.799 Q89.8114 475.192 89.8114 466.465 Q89.8114 457.715 92.8669 453.132 Q95.9456 448.526 101.756 448.526 Z" fill="#000000" fill-rule="nonzero" fill-opacity="1" /><path clip-path="url(#clip350)" d="M121.918 477.831 L126.802 477.831 L126.802 483.711 L121.918 483.711 L121.918 477.831 Z" fill="#000000" fill-rule="nonzero" fill-opacity="1" /><path clip-path="url(#clip350)" d="M137.033 449.151 L155.39 449.151 L155.39 453.086 L141.316 453.086 L141.316 461.558 Q142.334 461.211 143.353 461.049 Q144.371 460.864 145.39 460.864 Q151.177 460.864 154.556 464.035 Q157.936 467.206 157.936 472.623 Q157.936 478.201 154.464 481.303 Q150.992 484.382 144.672 484.382 Q142.496 484.382 140.228 484.012 Q137.982 483.641 135.575 482.9 L135.575 478.201 Q137.658 479.336 139.881 479.891 Q142.103 480.447 144.58 480.447 Q148.584 480.447 150.922 478.34 Q153.26 476.234 153.26 472.623 Q153.26 469.012 150.922 466.905 Q148.584 464.799 144.58 464.799 Q142.705 464.799 140.83 465.215 Q138.978 465.632 137.033 466.512 L137.033 449.151 Z" fill="#000000" fill-rule="nonzero" fill-opacity="1" /><path clip-path="url(#clip350)" d="M91.5706 153.347 L99.2095 153.347 L99.2095 126.981 L90.8993 128.648 L90.8993 124.388 L99.1632 122.722 L103.839 122.722 L103.839 153.347 L111.478 153.347 L111.478 157.282 L91.5706 157.282 L91.5706 153.347 Z" fill="#000000" fill-rule="nonzero" fill-opacity="1" /><path clip-path="url(#clip350)" d="M120.922 151.402 L125.807 151.402 L125.807 157.282 L120.922 157.282 L120.922 151.402 Z" fill="#000000" fill-rule="nonzero" fill-opacity="1" /><path clip-path="url(#clip350)" d="M145.992 125.8 Q142.381 125.8 140.552 129.365 Q138.746 132.907 138.746 140.036 Q138.746 147.143 140.552 150.708 Q142.381 154.249 145.992 154.249 Q149.626 154.249 151.431 150.708 Q153.26 147.143 153.26 140.036 Q153.26 132.907 151.431 129.365 Q149.626 125.8 145.992 125.8 M145.992 122.097 Q151.802 122.097 154.857 126.703 Q157.936 131.286 157.936 140.036 Q157.936 148.763 154.857 153.37 Q151.802 157.953 145.992 157.953 Q140.181 157.953 137.103 153.37 Q134.047 148.763 134.047 140.036 Q134.047 131.286 137.103 126.703 Q140.181 122.097 145.992 122.097 Z" fill="#000000" fill-rule="nonzero" fill-opacity="1" /><polyline clip-path="url(#clip352)" style="stroke:#009af9; stroke-linecap:round; stroke-linejoin:round; stroke-width:4; stroke-opacity:1; fill:none" points="255.035,792.86 258.278,786.331 261.521,779.803 264.764,773.277 268.007,766.752 271.25,760.23 274.493,753.712 277.736,747.197 280.979,740.687 284.222,734.182 287.465,727.683 290.708,721.19 293.951,714.705 297.194,708.227 300.437,701.758 303.68,695.298 306.923,688.847 310.166,682.408 313.409,675.979 316.652,669.562 319.895,663.157 323.138,656.765 326.381,650.387 329.624,644.023 332.867,637.674 336.11,631.34 339.353,625.023 342.596,618.722 345.84,612.439 349.083,606.173 352.326,599.927 355.569,593.7 358.812,587.492 362.055,581.306 365.298,575.14 368.541,568.996 371.784,562.875 375.027,556.776 378.27,550.701 381.513,544.651 384.756,538.625 387.999,532.624 391.242,526.65 394.485,520.702 397.728,514.782 400.971,508.889 404.214,503.025 407.457,497.189 410.7,491.383 413.943,485.608 417.186,479.863 420.429,474.149 423.672,468.467 426.915,462.818 430.158,457.202 433.401,451.619 436.644,446.07 439.887,440.557 443.13,435.078 446.373,429.635 449.616,424.228 452.859,418.859 456.103,413.526 459.346,408.232 462.589,402.976 465.832,397.759 469.075,392.581 472.318,387.444 475.561,382.347 478.804,377.291 482.047,372.277 485.29,367.305 488.533,362.375 491.776,357.488 495.019,352.645 498.262,347.846 501.505,343.092 504.748,338.382 507.991,333.718 511.234,329.1 514.477,324.528 517.72,320.003 520.963,315.525 524.206,311.095 527.449,306.713 530.692,302.38 533.935,298.096 537.178,293.861 540.421,289.677 543.664,285.542 546.907,281.458 550.15,277.426 553.393,273.445 556.636,269.516 559.879,265.639 563.122,261.815 566.366,258.044 569.609,254.326 572.852,250.663 576.095,247.053 579.338,243.499 582.581,239.999 585.824,236.554 589.067,233.165 592.31,229.832 595.553,226.555 598.796,223.335 602.039,220.172 605.282,217.066 608.525,214.018 611.768,211.028 615.011,208.096 618.254,205.222 621.497,202.407 624.74,199.651 627.983,196.954 631.226,194.317 634.469,191.74 637.712,189.223 640.955,186.767 644.198,184.371 647.441,182.035 650.684,179.761 653.927,177.548 657.17,175.397 660.413,173.307 663.656,171.28 666.899,169.314 670.142,167.411 673.385,165.571 676.629,163.793 679.872,162.078 683.115,160.426 686.358,158.838 689.601,157.313 692.844,155.851 696.087,154.453 699.33,153.119 702.573,151.849 705.816,150.643 709.059,149.501 712.302,148.423 715.545,147.41 718.788,146.462 722.031,145.578 725.274,144.759 728.517,144.005 731.76,143.315 735.003,142.691 738.246,142.131 741.489,141.637 744.732,141.208 747.975,140.844 751.218,140.545 754.461,140.311 757.704,140.143 760.947,140.04 764.19,140.002 767.433,140.029 770.676,140.122 773.919,140.28 777.162,140.503 780.405,140.792 783.648,141.146 786.892,141.564 790.135,142.048 793.378,142.597 796.621,143.212 799.864,143.891 803.107,144.635 806.35,145.443 809.593,146.317 812.836,147.255 816.079,148.258 819.322,149.325 822.565,150.457 825.808,151.652 829.051,152.912 832.294,154.236 835.537,155.624 838.78,157.075 842.023,158.591 845.266,160.169 848.509,161.811 851.752,163.516 854.995,165.283 858.238,167.114 861.481,169.007 864.724,170.963 867.967,172.98 871.21,175.06 874.453,177.202 877.696,179.405 880.939,181.669 884.182,183.995 887.425,186.381 890.668,188.828 893.911,191.335 897.155,193.903 900.398,196.53 903.641,199.218 906.884,201.964 910.127,204.77 913.37,207.634 916.613,210.557 919.856,213.538 923.099,216.577 926.342,219.674 929.585,222.828 932.828,226.039 936.071,229.307 939.314,232.631 942.557,236.011 945.8,239.446 949.043,242.938 952.286,246.484 955.529,250.084 958.772,253.739 962.015,257.448 965.258,261.211 968.501,265.026 971.744,268.895 974.987,272.816 978.23,276.788 981.473,280.813 984.716,284.888 987.959,289.015 991.202,293.192 994.445,297.418 997.688,301.695 1000.93,306.02 1004.17,310.394 1007.42,314.817 1010.66,319.287 1013.9,323.804 1017.15,328.369 1020.39,332.979 1023.63,337.636 1026.88,342.339 1030.12,347.086 1033.36,351.878 1036.6,356.714 1039.85,361.594 1043.09,366.517 1046.33,371.482 1049.58,376.49 1052.82,381.539 1056.06,386.63 1059.31,391.761 1062.55,396.932 1065.79,402.142 1069.04,407.392 1072.28,412.68 1075.52,418.007 1078.76,423.371 1082.01,428.771 1085.25,434.209 1088.49,439.682 1091.74,445.19 1094.98,450.733 1098.22,456.31 1101.47,461.921 1104.71,467.566 1107.95,473.242 1111.19,478.951 1114.44,484.691 1117.68,490.462 1120.92,496.263 1124.17,502.093 1127.41,507.953 1130.65,513.841 1133.9,519.757 1137.14,525.701 1140.38,531.671 1143.62,537.667 1146.87,543.689 1150.11,549.736 1153.35,555.807 1156.6,561.902 1159.84,568.02 1163.08,574.16 1166.33,580.322 1169.57,586.506 1172.81,592.71 1176.06,598.934 1179.3,605.177 1182.54,611.44 1185.78,617.72 1189.03,624.018 1192.27,630.333 1195.51,636.664 1198.76,643.01 1202,649.372 1205.24,655.748 1208.49,662.138 1211.73,668.541 1214.97,674.956 1218.21,681.383 1221.46,687.821 1224.7,694.27 1227.94,700.728 1231.19,707.196 1234.43,713.672 1237.67,720.157 1240.92,726.648 1244.16,733.146 1247.4,739.65 1250.64,746.16 1253.89,752.674 1257.13,759.192 1260.37,765.713 1263.62,772.238 1266.86,778.764 1270.1,785.291 1273.35,791.82 1276.59,798.348 1279.83,804.876 1283.08,811.403 1286.32,817.928 1289.56,824.45 1292.8,830.97 1296.05,837.485 1299.29,843.996 1302.53,850.502 1305.78,857.002 1309.02,863.496 1312.26,869.982 1315.51,876.461 1318.75,882.932 1321.99,889.393 1325.23,895.845 1328.48,902.287 1331.72,908.717 1334.96,915.136 1338.21,921.543 1341.45,927.937 1344.69,934.318 1347.94,940.684 1351.18,947.035 1354.42,953.372 1357.66,959.692 1360.91,965.995 1364.15,972.281 1367.39,978.549 1370.64,984.799 1373.88,991.029 1377.12,997.24 1380.37,1003.43 1383.61,1009.6 1386.85,1015.75 1390.1,1021.87 1393.34,1027.97 1396.58,1034.05 1399.82,1040.11 1403.07,1046.14 1406.31,1052.14 1409.55,1058.12 1412.8,1064.07 1416.04,1070 1419.28,1075.89 1422.53,1081.76 1425.77,1087.6 1429.01,1093.41 1432.25,1099.19 1435.5,1104.94 1438.74,1110.66 1441.98,1116.35 1445.23,1122 1448.47,1127.63 1451.71,1133.21 1454.96,1138.77 1458.2,1144.29 1461.44,1149.77 1464.68,1155.22 1467.93,1160.63 1471.17,1166.01 1474.41,1171.35 1477.66,1176.65 1480.9,1181.91 1484.14,1187.13 1487.39,1192.32 1490.63,1197.46 1493.87,1202.56 1497.11,1207.63 1500.36,1212.65 1503.6,1217.63 1506.84,1222.56 1510.09,1227.46 1513.33,1232.31 1516.57,1237.11 1519.82,1241.87 1523.06,1246.59 1526.3,1251.26 1529.55,1255.89 1532.79,1260.47 1536.03,1265 1539.27,1269.48 1542.52,1273.92 1545.76,1278.31 1549,1282.65 1552.25,1286.94 1555.49,1291.19 1558.73,1295.38 1561.98,1299.52 1565.22,1303.61 1568.46,1307.65 1571.7,1311.64 1574.95,1315.58 1578.19,1319.47 1581.43,1323.3 1584.68,1327.08 1587.92,1330.8 1591.16,1334.48 1594.41,1338.09 1597.65,1341.66 1600.89,1345.17 1604.13,1348.62 1607.38,1352.02 1610.62,1355.36 1613.86,1358.65 1617.11,1361.87 1620.35,1365.05 1623.59,1368.16 1626.84,1371.22 1630.08,1374.22 1633.32,1377.16 1636.57,1380.04 1639.81,1382.87 1643.05,1385.63 1646.29,1388.34 1649.54,1390.99 1652.78,1393.57 1656.02,1396.1 1659.27,1398.57 1662.51,1400.97 1665.75,1403.32 1669,1405.6 1672.24,1407.82 1675.48,1409.98 1678.72,1412.08 1681.97,1414.12 1685.21,1416.1 1688.45,1418.01 1691.7,1419.86 1694.94,1421.65 1698.18,1423.37 1701.43,1425.03 1704.67,1426.63 1707.91,1428.17 1711.15,1429.64 1714.4,1431.05 1717.64,1432.39 1720.88,1433.67 1724.13,1434.89 1727.37,1436.04 1730.61,1437.13 1733.86,1438.15 1737.1,1439.11 1740.34,1440 1743.59,1440.83 1746.83,1441.6 1750.07,1442.3 1753.31,1442.93 1756.56,1443.5 1759.8,1444.01 1763.04,1444.45 1766.29,1444.82 1769.53,1445.13 1772.77,1445.38 1776.02,1445.55 1779.26,1445.67 1782.5,1445.72 1785.74,1445.7 1788.99,1445.62 1792.23,1445.47 1795.47,1445.26 1798.72,1444.98 1801.96,1444.63 1805.2,1444.23 1808.45,1443.75 1811.69,1443.21 1814.93,1442.61 1818.17,1441.94 1821.42,1441.21 1824.66,1440.41 1827.9,1439.55 1831.15,1438.62 1834.39,1437.63 1837.63,1436.57 1840.88,1435.45 1844.12,1434.26 1847.36,1433.01 1850.61,1431.7 1853.85,1430.32 1857.09,1428.88 1860.33,1427.37 1863.58,1425.81 1866.82,1424.17 1870.06,1422.48 1873.31,1420.72 1876.55,1418.9 1879.79,1417.02 1883.04,1415.07 1886.28,1413.06 1889.52,1410.99 1892.76,1408.86 1896.01,1406.67 1899.25,1404.41 1902.49,1402.1 1905.74,1399.72 1908.98,1397.29 1912.22,1394.79 1915.47,1392.23 1918.71,1389.61 1921.95,1386.93 1925.19,1384.2 1928.44,1381.4 1931.68,1378.55 1934.92,1375.63 1938.17,1372.66 1941.41,1369.63 1944.65,1366.54 1947.9,1363.4 1951.14,1360.2 1954.38,1356.94 1957.63,1353.62 1960.87,1350.25 1964.11,1346.82 1967.35,1343.34 1970.6,1339.8 1973.84,1336.21 1977.08,1332.57 1980.33,1328.87 1983.57,1325.11 1986.81,1321.3 1990.06,1317.44 1993.3,1313.53 1996.54,1309.57 1999.78,1305.55 2003.03,1301.48 2006.27,1297.37 2009.51,1293.2 2012.76,1288.98 2016,1284.71 2019.24,1280.39 2022.49,1276.02 2025.73,1271.61 2028.97,1267.15 2032.21,1262.64 2035.46,1258.08 2038.7,1253.48 2041.94,1248.83 2045.19,1244.13 2048.43,1239.39 2051.67,1234.61 2054.92,1229.78 2058.16,1224.91 2061.4,1219.99 2064.65,1215.03 2067.89,1210.03 2071.13,1204.99 2074.37,1199.9 2077.62,1194.78 2080.86,1189.61 2084.1,1184.41 2087.35,1179.17 2090.59,1173.88 2093.83,1168.56 2097.08,1163.21 2100.32,1157.81 2103.56,1152.38 2106.8,1146.91 2110.05,1141.41 2113.29,1135.87 2116.53,1130.3 2119.78,1124.69 2123.02,1119.05 2126.26,1113.38 2129.51,1107.68 2132.75,1101.94 2135.99,1096.18 2139.23,1090.38 2142.48,1084.56 2145.72,1078.7 2148.96,1072.82 2152.21,1066.91 2155.45,1060.97 2158.69,1055 2161.94,1049.01 2165.18,1042.99 2168.42,1036.95 2171.67,1030.88 2174.91,1024.79 2178.15,1018.68 2181.39,1012.54 2184.64,1006.38 2187.88,1000.2 2191.12,993.999 2194.37,987.778 2197.61,981.538 2200.85,975.278 2204.1,969.001 2207.34,962.706 2210.58,956.393 2213.82,950.065 2217.07,943.721 2220.31,937.361 2223.55,930.987 2226.8,924.6 2230.04,918.199 2233.28,911.786 2236.53,905.361 2239.77,898.924 2243.01,892.477 2246.25,886.02 2249.5,879.554 2252.74,873.079 2255.98,866.596 2259.23,860.105 2262.47,853.608 2265.71,847.105 2268.96,840.597 2272.2,834.083 2275.44,827.566 2278.69,821.045 2281.93,814.521 2285.17,807.995 2288.41,801.468 2291.66,794.939 "/>
<circle clip-path="url(#clip352)" cx="1098.22" cy="351.117" r="14.4" fill="#e26f46" fill-rule="evenodd" fill-opacity="1" stroke="#000000" stroke-opacity="1" stroke-width="3.2"/>
<circle clip-path="url(#clip352)" cx="916.613" cy="87.9763" r="14.4" fill="#e26f46" fill-rule="evenodd" fill-opacity="1" stroke="#000000" stroke-opacity="1" stroke-width="3.2"/>
<circle clip-path="url(#clip352)" cx="757.704" cy="232.477" r="14.4" fill="#e26f46" fill-rule="evenodd" fill-opacity="1" stroke="#000000" stroke-opacity="1" stroke-width="3.2"/>
<circle clip-path="url(#clip352)" cx="576.095" cy="199.962" r="14.4" fill="#e26f46" fill-rule="evenodd" fill-opacity="1" stroke="#000000" stroke-opacity="1" stroke-width="3.2"/>
<circle clip-path="url(#clip352)" cx="932.828" cy="242.482" r="14.4" fill="#e26f46" fill-rule="evenodd" fill-opacity="1" stroke="#000000" stroke-opacity="1" stroke-width="3.2"/>
<circle clip-path="url(#clip352)" cx="569.609" cy="190.799" r="14.4" fill="#e26f46" fill-rule="evenodd" fill-opacity="1" stroke="#000000" stroke-opacity="1" stroke-width="3.2"/>
<circle clip-path="url(#clip352)" cx="326.381" cy="553.84" r="14.4" fill="#e26f46" fill-rule="evenodd" fill-opacity="1" stroke="#000000" stroke-opacity="1" stroke-width="3.2"/>
<circle clip-path="url(#clip352)" cx="413.943" cy="464.94" r="14.4" fill="#e26f46" fill-rule="evenodd" fill-opacity="1" stroke="#000000" stroke-opacity="1" stroke-width="3.2"/>
<circle clip-path="url(#clip352)" cx="978.23" cy="186.506" r="14.4" fill="#e26f46" fill-rule="evenodd" fill-opacity="1" stroke="#000000" stroke-opacity="1" stroke-width="3.2"/>
<circle clip-path="url(#clip352)" cx="400.971" cy="460.339" r="14.4" fill="#e26f46" fill-rule="evenodd" fill-opacity="1" stroke="#000000" stroke-opacity="1" stroke-width="3.2"/>
<circle clip-path="url(#clip352)" cx="2243.01" cy="777.383" r="14.4" fill="#e26f46" fill-rule="evenodd" fill-opacity="1" stroke="#000000" stroke-opacity="1" stroke-width="3.2"/>
<circle clip-path="url(#clip352)" cx="2113.29" cy="1293.26" r="14.4" fill="#e26f46" fill-rule="evenodd" fill-opacity="1" stroke="#000000" stroke-opacity="1" stroke-width="3.2"/>
<circle clip-path="url(#clip352)" cx="780.405" cy="137.138" r="14.4" fill="#e26f46" fill-rule="evenodd" fill-opacity="1" stroke="#000000" stroke-opacity="1" stroke-width="3.2"/>
<circle clip-path="url(#clip352)" cx="1062.55" cy="267.505" r="14.4" fill="#e26f46" fill-rule="evenodd" fill-opacity="1" stroke="#000000" stroke-opacity="1" stroke-width="3.2"/>
<circle clip-path="url(#clip352)" cx="1493.87" cy="1288.93" r="14.4" fill="#e26f46" fill-rule="evenodd" fill-opacity="1" stroke="#000000" stroke-opacity="1" stroke-width="3.2"/>
<circle clip-path="url(#clip352)" cx="1805.2" cy="1326.26" r="14.4" fill="#e26f46" fill-rule="evenodd" fill-opacity="1" stroke="#000000" stroke-opacity="1" stroke-width="3.2"/>
<circle clip-path="url(#clip352)" cx="1325.23" cy="787.98" r="14.4" fill="#e26f46" fill-rule="evenodd" fill-opacity="1" stroke="#000000" stroke-opacity="1" stroke-width="3.2"/>
<circle clip-path="url(#clip352)" cx="838.78" cy="274.991" r="14.4" fill="#e26f46" fill-rule="evenodd" fill-opacity="1" stroke="#000000" stroke-opacity="1" stroke-width="3.2"/>
<circle clip-path="url(#clip352)" cx="919.856" cy="126.999" r="14.4" fill="#e26f46" fill-rule="evenodd" fill-opacity="1" stroke="#000000" stroke-opacity="1" stroke-width="3.2"/>
<circle clip-path="url(#clip352)" cx="2058.16" cy="1144.3" r="14.4" fill="#e26f46" fill-rule="evenodd" fill-opacity="1" stroke="#000000" stroke-opacity="1" stroke-width="3.2"/>
<path clip-path="url(#clip350)" d="M1953.46 250.738 L2280.8 250.738 L2280.8 95.2176 L1953.46 95.2176  Z" fill="#ffffff" fill-rule="evenodd" fill-opacity="1"/>
<polyline clip-path="url(#clip350)" style="stroke:#000000; stroke-linecap:round; stroke-linejoin:round; stroke-width:4; stroke-opacity:1; fill:none" points="1953.46,250.738 2280.8,250.738 2280.8,95.2176 1953.46,95.2176 1953.46,250.738 "/>
<polyline clip-path="url(#clip350)" style="stroke:#009af9; stroke-linecap:round; stroke-linejoin:round; stroke-width:4; stroke-opacity:1; fill:none" points="1977.44,147.058 2121.36,147.058 "/>
<path clip-path="url(#clip350)" d="M2152.76 131.051 L2152.76 138.412 L2161.53 138.412 L2161.53 141.722 L2152.76 141.722 L2152.76 155.796 Q2152.76 158.967 2153.61 159.87 Q2154.49 160.773 2157.16 160.773 L2161.53 160.773 L2161.53 164.338 L2157.16 164.338 Q2152.23 164.338 2150.35 162.509 Q2148.48 160.657 2148.48 155.796 L2148.48 141.722 L2145.35 141.722 L2145.35 138.412 L2148.48 138.412 L2148.48 131.051 L2152.76 131.051 Z" fill="#000000" fill-rule="nonzero" fill-opacity="1" /><path clip-path="url(#clip350)" d="M2182.16 142.393 Q2181.44 141.977 2180.58 141.791 Q2179.75 141.583 2178.73 141.583 Q2175.12 141.583 2173.17 143.944 Q2171.25 146.282 2171.25 150.68 L2171.25 164.338 L2166.97 164.338 L2166.97 138.412 L2171.25 138.412 L2171.25 142.44 Q2172.6 140.078 2174.75 138.944 Q2176.9 137.787 2179.98 137.787 Q2180.42 137.787 2180.95 137.856 Q2181.48 137.903 2182.13 138.018 L2182.16 142.393 Z" fill="#000000" fill-rule="nonzero" fill-opacity="1" /><path clip-path="url(#clip350)" d="M2186.18 154.106 L2186.18 138.412 L2190.44 138.412 L2190.44 153.944 Q2190.44 157.625 2191.88 159.476 Q2193.31 161.305 2196.18 161.305 Q2199.63 161.305 2201.62 159.106 Q2203.64 156.907 2203.64 153.111 L2203.64 138.412 L2207.9 138.412 L2207.9 164.338 L2203.64 164.338 L2203.64 160.356 Q2202.09 162.717 2200.03 163.875 Q2197.99 165.009 2195.28 165.009 Q2190.81 165.009 2188.5 162.231 Q2186.18 159.453 2186.18 154.106 M2196.9 137.787 L2196.9 137.787 Z" fill="#000000" fill-rule="nonzero" fill-opacity="1" /><path clip-path="url(#clip350)" d="M2220.88 131.051 L2220.88 138.412 L2229.66 138.412 L2229.66 141.722 L2220.88 141.722 L2220.88 155.796 Q2220.88 158.967 2221.74 159.87 Q2222.62 160.773 2225.28 160.773 L2229.66 160.773 L2229.66 164.338 L2225.28 164.338 Q2220.35 164.338 2218.48 162.509 Q2216.6 160.657 2216.6 155.796 L2216.6 141.722 L2213.48 141.722 L2213.48 138.412 L2216.6 138.412 L2216.6 131.051 L2220.88 131.051 Z" fill="#000000" fill-rule="nonzero" fill-opacity="1" /><path clip-path="url(#clip350)" d="M2256.81 148.689 L2256.81 164.338 L2252.55 164.338 L2252.55 148.828 Q2252.55 145.148 2251.11 143.319 Q2249.68 141.49 2246.81 141.49 Q2243.36 141.49 2241.37 143.69 Q2239.38 145.889 2239.38 149.685 L2239.38 164.338 L2235.1 164.338 L2235.1 128.319 L2239.38 128.319 L2239.38 142.44 Q2240.91 140.102 2242.97 138.944 Q2245.05 137.787 2247.76 137.787 Q2252.23 137.787 2254.52 140.565 Q2256.81 143.319 2256.81 148.689 Z" fill="#000000" fill-rule="nonzero" fill-opacity="1" /><circle clip-path="url(#clip350)" cx="2049.4" cy="198.898" r="20.48" fill="#e26f46" fill-rule="evenodd" fill-opacity="1" stroke="#000000" stroke-opacity="1" stroke-width="4.55111"/>
<path clip-path="url(#clip350)" d="M2164.26 194.187 L2164.26 180.159 L2168.52 180.159 L2168.52 216.178 L2164.26 216.178 L2164.26 212.289 Q2162.92 214.603 2160.86 215.738 Q2158.82 216.849 2155.95 216.849 Q2151.25 216.849 2148.29 213.099 Q2145.35 209.349 2145.35 203.238 Q2145.35 197.127 2148.29 193.377 Q2151.25 189.627 2155.95 189.627 Q2158.82 189.627 2160.86 190.761 Q2162.92 191.872 2164.26 194.187 M2149.75 203.238 Q2149.75 207.937 2151.67 210.622 Q2153.61 213.284 2156.99 213.284 Q2160.37 213.284 2162.32 210.622 Q2164.26 207.937 2164.26 203.238 Q2164.26 198.539 2162.32 195.877 Q2160.37 193.192 2156.99 193.192 Q2153.61 193.192 2151.67 195.877 Q2149.75 198.539 2149.75 203.238 Z" fill="#000000" fill-rule="nonzero" fill-opacity="1" /><path clip-path="url(#clip350)" d="M2189.08 203.145 Q2183.92 203.145 2181.92 204.326 Q2179.93 205.506 2179.93 208.354 Q2179.93 210.622 2181.42 211.965 Q2182.92 213.284 2185.49 213.284 Q2189.03 213.284 2191.16 210.784 Q2193.31 208.261 2193.31 204.094 L2193.31 203.145 L2189.08 203.145 M2197.57 201.386 L2197.57 216.178 L2193.31 216.178 L2193.31 212.242 Q2191.85 214.603 2189.68 215.738 Q2187.5 216.849 2184.36 216.849 Q2180.37 216.849 2178.01 214.627 Q2175.67 212.381 2175.67 208.631 Q2175.67 204.256 2178.59 202.034 Q2181.53 199.812 2187.34 199.812 L2193.31 199.812 L2193.31 199.395 Q2193.31 196.455 2191.37 194.858 Q2189.45 193.238 2185.95 193.238 Q2183.73 193.238 2181.62 193.77 Q2179.52 194.303 2177.57 195.367 L2177.57 191.432 Q2179.91 190.53 2182.11 190.09 Q2184.31 189.627 2186.39 189.627 Q2192.02 189.627 2194.79 192.543 Q2197.57 195.46 2197.57 201.386 Z" fill="#000000" fill-rule="nonzero" fill-opacity="1" /><path clip-path="url(#clip350)" d="M2210.56 182.891 L2210.56 190.252 L2219.33 190.252 L2219.33 193.562 L2210.56 193.562 L2210.56 207.636 Q2210.56 210.807 2211.42 211.71 Q2212.29 212.613 2214.96 212.613 L2219.33 212.613 L2219.33 216.178 L2214.96 216.178 Q2210.03 216.178 2208.15 214.349 Q2206.28 212.497 2206.28 207.636 L2206.28 193.562 L2203.15 193.562 L2203.15 190.252 L2206.28 190.252 L2206.28 182.891 L2210.56 182.891 Z" fill="#000000" fill-rule="nonzero" fill-opacity="1" /><path clip-path="url(#clip350)" d="M2236.72 203.145 Q2231.55 203.145 2229.56 204.326 Q2227.57 205.506 2227.57 208.354 Q2227.57 210.622 2229.05 211.965 Q2230.56 213.284 2233.13 213.284 Q2236.67 213.284 2238.8 210.784 Q2240.95 208.261 2240.95 204.094 L2240.95 203.145 L2236.72 203.145 M2245.21 201.386 L2245.21 216.178 L2240.95 216.178 L2240.95 212.242 Q2239.49 214.603 2237.32 215.738 Q2235.14 216.849 2231.99 216.849 Q2228.01 216.849 2225.65 214.627 Q2223.31 212.381 2223.31 208.631 Q2223.31 204.256 2226.23 202.034 Q2229.17 199.812 2234.98 199.812 L2240.95 199.812 L2240.95 199.395 Q2240.95 196.455 2239.01 194.858 Q2237.09 193.238 2233.59 193.238 Q2231.37 193.238 2229.26 193.77 Q2227.16 194.303 2225.21 195.367 L2225.21 191.432 Q2227.55 190.53 2229.75 190.09 Q2231.95 189.627 2234.03 189.627 Q2239.66 189.627 2242.43 192.543 Q2245.21 195.46 2245.21 201.386 Z" fill="#000000" fill-rule="nonzero" fill-opacity="1" /></svg>
