<?xml version="1.0" encoding="utf-8"?>
<svg xmlns="http://www.w3.org/2000/svg" xmlns:xlink="http://www.w3.org/1999/xlink" width="600" height="400" viewBox="0 0 2400 1600">
<defs>
  <clipPath id="clip990">
    <rect x="0" y="0" width="2400" height="1600"/>
  </clipPath>
</defs>
<path clip-path="url(#clip990)" d="M0 1600 L2400 1600 L2400 0 L0 0  Z" fill="#ffffff" fill-rule="evenodd" fill-opacity="1"/>
<defs>
  <clipPath id="clip991">
    <rect x="480" y="0" width="1681" height="1600"/>
  </clipPath>
</defs>
<path clip-path="url(#clip990)" d="M193.936 1486.45 L2352.76 1486.45 L2352.76 47.2441 L193.936 47.2441  Z" fill="#ffffff" fill-rule="evenodd" fill-opacity="1"/>
<defs>
  <clipPath id="clip992">
    <rect x="193" y="47" width="2160" height="1440"/>
  </clipPath>
</defs>
<polyline clip-path="url(#clip992)" style="stroke:#000000; stroke-linecap:round; stroke-linejoin:round; stroke-width:2; stroke-opacity:0.1; fill:none" points="255.035,1486.45 255.035,47.2441 "/>
<polyline clip-path="url(#clip992)" style="stroke:#000000; stroke-linecap:round; stroke-linejoin:round; stroke-width:2; stroke-opacity:0.1; fill:none" points="579.173,1486.45 579.173,47.2441 "/>
<polyline clip-path="url(#clip992)" style="stroke:#000000; stroke-linecap:round; stroke-linejoin:round; stroke-width:2; stroke-opacity:0.1; fill:none" points="903.312,1486.45 903.312,47.2441 "/>
<polyline clip-path="url(#clip992)" style="stroke:#000000; stroke-linecap:round; stroke-linejoin:round; stroke-width:2; stroke-opacity:0.1; fill:none" points="1227.45,1486.45 1227.45,47.2441 "/>
<polyline clip-path="url(#clip992)" style="stroke:#000000; stroke-linecap:round; stroke-linejoin:round; stroke-width:2; stroke-opacity:0.1; fill:none" points="1551.59,1486.45 1551.59,47.2441 "/>
<polyline clip-path="url(#clip992)" style="stroke:#000000; stroke-linecap:round; stroke-linejoin:round; stroke-width:2; stroke-opacity:0.1; fill:none" points="1875.73,1486.45 1875.73,47.2441 "/>
<polyline clip-path="url(#clip992)" style="stroke:#000000; stroke-linecap:round; stroke-linejoin:round; stroke-width:2; stroke-opacity:0.1; fill:none" points="2199.87,1486.45 2199.87,47.2441 "/>
<polyline clip-path="url(#clip992)" style="stroke:#000000; stroke-linecap:round; stroke-linejoin:round; stroke-width:2; stroke-opacity:0.1; fill:none" points="193.936,1289.06 2352.76,1289.06 "/>
<polyline clip-path="url(#clip992)" style="stroke:#000000; stroke-linecap:round; stroke-linejoin:round; stroke-width:2; stroke-opacity:0.1; fill:none" points="193.936,1043.84 2352.76,1043.84 "/>
<polyline clip-path="url(#clip992)" style="stroke:#000000; stroke-linecap:round; stroke-linejoin:round; stroke-width:2; stroke-opacity:0.1; fill:none" points="193.936,798.613 2352.76,798.613 "/>
<polyline clip-path="url(#clip992)" style="stroke:#000000; stroke-linecap:round; stroke-linejoin:round; stroke-width:2; stroke-opacity:0.1; fill:none" points="193.936,553.39 2352.76,553.39 "/>
<polyline clip-path="url(#clip992)" style="stroke:#000000; stroke-linecap:round; stroke-linejoin:round; stroke-width:2; stroke-opacity:0.1; fill:none" points="193.936,308.168 2352.76,308.168 "/>
<polyline clip-path="url(#clip992)" style="stroke:#000000; stroke-linecap:round; stroke-linejoin:round; stroke-width:2; stroke-opacity:0.1; fill:none" points="193.936,62.9455 2352.76,62.9455 "/>
<polyline clip-path="url(#clip990)" style="stroke:#000000; stroke-linecap:round; stroke-linejoin:round; stroke-width:4; stroke-opacity:1; fill:none" points="193.936,1486.45 2352.76,1486.45 "/>
<polyline clip-path="url(#clip990)" style="stroke:#000000; stroke-linecap:round; stroke-linejoin:round; stroke-width:4; stroke-opacity:1; fill:none" points="255.035,1486.45 255.035,1467.55 "/>
<polyline clip-path="url(#clip990)" style="stroke:#000000; stroke-linecap:round; stroke-linejoin:round; stroke-width:4; stroke-opacity:1; fill:none" points="579.173,1486.45 579.173,1467.55 "/>
<polyline clip-path="url(#clip990)" style="stroke:#000000; stroke-linecap:round; stroke-linejoin:round; stroke-width:4; stroke-opacity:1; fill:none" points="903.312,1486.45 903.312,1467.55 "/>
<polyline clip-path="url(#clip990)" style="stroke:#000000; stroke-linecap:round; stroke-linejoin:round; stroke-width:4; stroke-opacity:1; fill:none" points="1227.45,1486.45 1227.45,1467.55 "/>
<polyline clip-path="url(#clip990)" style="stroke:#000000; stroke-linecap:round; stroke-linejoin:round; stroke-width:4; stroke-opacity:1; fill:none" points="1551.59,1486.45 1551.59,1467.55 "/>
<polyline clip-path="url(#clip990)" style="stroke:#000000; stroke-linecap:round; stroke-linejoin:round; stroke-width:4; stroke-opacity:1; fill:none" points="1875.73,1486.45 1875.73,1467.55 "/>
<polyline clip-path="url(#clip990)" style="stroke:#000000; stroke-linecap:round; stroke-linejoin:round; stroke-width:4; stroke-opacity:1; fill:none" points="2199.87,1486.45 2199.87,1467.55 "/>
<path clip-path="url(#clip990)" d="M255.035 1517.37 Q251.424 1517.37 249.595 1520.93 Q247.789 1524.47 247.789 1531.6 Q247.789 1538.71 249.595 1542.27 Q251.424 1545.82 255.035 1545.82 Q258.669 1545.82 260.474 1542.27 Q262.303 1538.71 262.303 1531.6 Q262.303 1524.47 260.474 1520.93 Q258.669 1517.37 255.035 1517.37 M255.035 1513.66 Q260.845 1513.66 263.9 1518.27 Q266.979 1522.85 266.979 1531.6 Q266.979 1540.33 263.9 1544.94 Q260.845 1549.52 255.035 1549.52 Q249.225 1549.52 246.146 1544.94 Q243.09 1540.33 243.09 1531.6 Q243.09 1522.85 246.146 1518.27 Q249.225 1513.66 255.035 1513.66 Z" fill="#000000" fill-rule="nonzero" fill-opacity="1" /><path clip-path="url(#clip990)" d="M569.555 1544.91 L577.194 1544.91 L577.194 1518.55 L568.884 1520.21 L568.884 1515.95 L577.148 1514.29 L581.824 1514.29 L581.824 1544.91 L589.463 1544.91 L589.463 1548.85 L569.555 1548.85 L569.555 1544.91 Z" fill="#000000" fill-rule="nonzero" fill-opacity="1" /><path clip-path="url(#clip990)" d="M897.965 1544.91 L914.284 1544.91 L914.284 1548.85 L892.34 1548.85 L892.34 1544.91 Q895.002 1542.16 899.585 1537.53 Q904.191 1532.88 905.372 1531.53 Q907.617 1529.01 908.497 1527.27 Q909.4 1525.51 909.4 1523.82 Q909.4 1521.07 907.455 1519.33 Q905.534 1517.6 902.432 1517.6 Q900.233 1517.6 897.779 1518.36 Q895.349 1519.13 892.571 1520.68 L892.571 1515.95 Q895.395 1514.82 897.849 1514.24 Q900.303 1513.66 902.34 1513.66 Q907.71 1513.66 910.904 1516.35 Q914.099 1519.03 914.099 1523.52 Q914.099 1525.65 913.289 1527.57 Q912.502 1529.47 910.395 1532.07 Q909.816 1532.74 906.715 1535.95 Q903.613 1539.15 897.965 1544.91 Z" fill="#000000" fill-rule="nonzero" fill-opacity="1" /><path clip-path="url(#clip990)" d="M1231.7 1530.21 Q1235.05 1530.93 1236.93 1533.2 Q1238.83 1535.47 1238.83 1538.8 Q1238.83 1543.92 1235.31 1546.72 Q1231.79 1549.52 1225.31 1549.52 Q1223.13 1549.52 1220.82 1549.08 Q1218.53 1548.66 1216.07 1547.81 L1216.07 1543.29 Q1218.02 1544.43 1220.33 1545.01 Q1222.65 1545.58 1225.17 1545.58 Q1229.57 1545.58 1231.86 1543.85 Q1234.17 1542.11 1234.17 1538.8 Q1234.17 1535.75 1232.02 1534.03 Q1229.89 1532.3 1226.07 1532.3 L1222.05 1532.3 L1222.05 1528.45 L1226.26 1528.45 Q1229.71 1528.45 1231.54 1527.09 Q1233.36 1525.7 1233.36 1523.11 Q1233.36 1520.45 1231.47 1519.03 Q1229.59 1517.6 1226.07 1517.6 Q1224.15 1517.6 1221.95 1518.01 Q1219.75 1518.43 1217.11 1519.31 L1217.11 1515.14 Q1219.78 1514.4 1222.09 1514.03 Q1224.43 1513.66 1226.49 1513.66 Q1231.81 1513.66 1234.92 1516.09 Q1238.02 1518.5 1238.02 1522.62 Q1238.02 1525.49 1236.37 1527.48 Q1234.73 1529.45 1231.7 1530.21 Z" fill="#000000" fill-rule="nonzero" fill-opacity="1" /><path clip-path="url(#clip990)" d="M1554.6 1518.36 L1542.79 1536.81 L1554.6 1536.81 L1554.6 1518.36 M1553.37 1514.29 L1559.25 1514.29 L1559.25 1536.81 L1564.18 1536.81 L1564.18 1540.7 L1559.25 1540.7 L1559.25 1548.85 L1554.6 1548.85 L1554.6 1540.7 L1539 1540.7 L1539 1536.19 L1553.37 1514.29 Z" fill="#000000" fill-rule="nonzero" fill-opacity="1" /><path clip-path="url(#clip990)" d="M1866.01 1514.29 L1884.36 1514.29 L1884.36 1518.22 L1870.29 1518.22 L1870.29 1526.7 Q1871.31 1526.35 1872.32 1526.19 Q1873.34 1526 1874.36 1526 Q1880.15 1526 1883.53 1529.17 Q1886.91 1532.34 1886.91 1537.76 Q1886.91 1543.34 1883.44 1546.44 Q1879.96 1549.52 1873.64 1549.52 Q1871.47 1549.52 1869.2 1549.15 Q1866.95 1548.78 1864.55 1548.04 L1864.55 1543.34 Q1866.63 1544.47 1868.85 1545.03 Q1871.07 1545.58 1873.55 1545.58 Q1877.56 1545.58 1879.89 1543.48 Q1882.23 1541.37 1882.23 1537.76 Q1882.23 1534.15 1879.89 1532.04 Q1877.56 1529.94 1873.55 1529.94 Q1871.68 1529.94 1869.8 1530.35 Q1867.95 1530.77 1866.01 1531.65 L1866.01 1514.29 Z" fill="#000000" fill-rule="nonzero" fill-opacity="1" /><path clip-path="url(#clip990)" d="M2200.27 1529.7 Q2197.12 1529.7 2195.27 1531.86 Q2193.44 1534.01 2193.44 1537.76 Q2193.44 1541.49 2195.27 1543.66 Q2197.12 1545.82 2200.27 1545.82 Q2203.42 1545.82 2205.25 1543.66 Q2207.1 1541.49 2207.1 1537.76 Q2207.1 1534.01 2205.25 1531.86 Q2203.42 1529.7 2200.27 1529.7 M2209.55 1515.05 L2209.55 1519.31 Q2207.79 1518.48 2205.99 1518.04 Q2204.21 1517.6 2202.45 1517.6 Q2197.82 1517.6 2195.36 1520.72 Q2192.93 1523.85 2192.59 1530.17 Q2193.95 1528.15 2196.01 1527.09 Q2198.07 1526 2200.55 1526 Q2205.76 1526 2208.77 1529.17 Q2211.8 1532.32 2211.8 1537.76 Q2211.8 1543.08 2208.65 1546.3 Q2205.5 1549.52 2200.27 1549.52 Q2194.28 1549.52 2191.1 1544.94 Q2187.93 1540.33 2187.93 1531.6 Q2187.93 1523.41 2191.82 1518.55 Q2195.71 1513.66 2202.26 1513.66 Q2204.02 1513.66 2205.8 1514.01 Q2207.61 1514.36 2209.55 1515.05 Z" fill="#000000" fill-rule="nonzero" fill-opacity="1" /><polyline clip-path="url(#clip990)" style="stroke:#000000; stroke-linecap:round; stroke-linejoin:round; stroke-width:4; stroke-opacity:1; fill:none" points="193.936,1486.45 193.936,47.2441 "/>
<polyline clip-path="url(#clip990)" style="stroke:#000000; stroke-linecap:round; stroke-linejoin:round; stroke-width:4; stroke-opacity:1; fill:none" points="193.936,1289.06 212.834,1289.06 "/>
<polyline clip-path="url(#clip990)" style="stroke:#000000; stroke-linecap:round; stroke-linejoin:round; stroke-width:4; stroke-opacity:1; fill:none" points="193.936,1043.84 212.834,1043.84 "/>
<polyline clip-path="url(#clip990)" style="stroke:#000000; stroke-linecap:round; stroke-linejoin:round; stroke-width:4; stroke-opacity:1; fill:none" points="193.936,798.613 212.834,798.613 "/>
<polyline clip-path="url(#clip990)" style="stroke:#000000; stroke-linecap:round; stroke-linejoin:round; stroke-width:4; stroke-opacity:1; fill:none" points="193.936,553.39 212.834,553.39 "/>
<polyline clip-path="url(#clip990)" style="stroke:#000000; stroke-linecap:round; stroke-linejoin:round; stroke-width:4; stroke-opacity:1; fill:none" points="193.936,308.168 212.834,308.168 "/>
<polyline clip-path="url(#clip990)" style="stroke:#000000; stroke-linecap:round; stroke-linejoin:round; stroke-width:4; stroke-opacity:1; fill:none" points="193.936,62.9455 212.834,62.9455 "/>
<path clip-path="url(#clip990)" d="M50.9921 1289.51 L80.6679 1289.51 L80.6679 1293.44 L50.9921 1293.44 L50.9921 1289.51 Z" fill="#000000" fill-rule="nonzero" fill-opacity="1" /><path clip-path="url(#clip990)" d="M91.5706 1302.4 L99.2095 1302.4 L99.2095 1276.04 L90.8993 1277.7 L90.8993 1273.44 L99.1632 1271.78 L103.839 1271.78 L103.839 1302.4 L111.478 1302.4 L111.478 1306.34 L91.5706 1306.34 L91.5706 1302.4 Z" fill="#000000" fill-rule="nonzero" fill-opacity="1" /><path clip-path="url(#clip990)" d="M120.922 1300.46 L125.807 1300.46 L125.807 1306.34 L120.922 1306.34 L120.922 1300.46 Z" fill="#000000" fill-rule="nonzero" fill-opacity="1" /><path clip-path="url(#clip990)" d="M145.992 1274.86 Q142.381 1274.86 140.552 1278.42 Q138.746 1281.96 138.746 1289.09 Q138.746 1296.2 140.552 1299.76 Q142.381 1303.31 145.992 1303.31 Q149.626 1303.31 151.431 1299.76 Q153.26 1296.2 153.26 1289.09 Q153.26 1281.96 151.431 1278.42 Q149.626 1274.86 145.992 1274.86 M145.992 1271.15 Q151.802 1271.15 154.857 1275.76 Q157.936 1280.34 157.936 1289.09 Q157.936 1297.82 154.857 1302.43 Q151.802 1307.01 145.992 1307.01 Q140.181 1307.01 137.103 1302.43 Q134.047 1297.82 134.047 1289.09 Q134.047 1280.34 137.103 1275.76 Q140.181 1271.15 145.992 1271.15 Z" fill="#000000" fill-rule="nonzero" fill-opacity="1" /><path clip-path="url(#clip990)" d="M51.9875 1044.29 L81.6633 1044.29 L81.6633 1048.22 L51.9875 1048.22 L51.9875 1044.29 Z" fill="#000000" fill-rule="nonzero" fill-opacity="1" /><path clip-path="url(#clip990)" d="M101.756 1029.63 Q98.1447 1029.63 96.316 1033.2 Q94.5104 1036.74 94.5104 1043.87 Q94.5104 1050.98 96.316 1054.54 Q98.1447 1058.08 101.756 1058.08 Q105.39 1058.08 107.196 1054.54 Q109.024 1050.98 109.024 1043.87 Q109.024 1036.74 107.196 1033.2 Q105.39 1029.63 101.756 1029.63 M101.756 1025.93 Q107.566 1025.93 110.621 1030.54 Q113.7 1035.12 113.7 1043.87 Q113.7 1052.6 110.621 1057.2 Q107.566 1061.79 101.756 1061.79 Q95.9456 1061.79 92.8669 1057.2 Q89.8114 1052.6 89.8114 1043.87 Q89.8114 1035.12 92.8669 1030.54 Q95.9456 1025.93 101.756 1025.93 Z" fill="#000000" fill-rule="nonzero" fill-opacity="1" /><path clip-path="url(#clip990)" d="M121.918 1055.24 L126.802 1055.24 L126.802 1061.12 L121.918 1061.12 L121.918 1055.24 Z" fill="#000000" fill-rule="nonzero" fill-opacity="1" /><path clip-path="url(#clip990)" d="M137.033 1026.56 L155.39 1026.56 L155.39 1030.49 L141.316 1030.49 L141.316 1038.96 Q142.334 1038.62 143.353 1038.45 Q144.371 1038.27 145.39 1038.27 Q151.177 1038.27 154.556 1041.44 Q157.936 1044.61 157.936 1050.03 Q157.936 1055.61 154.464 1058.71 Q150.992 1061.79 144.672 1061.79 Q142.496 1061.79 140.228 1061.42 Q137.982 1061.05 135.575 1060.3 L135.575 1055.61 Q137.658 1056.74 139.881 1057.3 Q142.103 1057.85 144.58 1057.85 Q148.584 1057.85 150.922 1055.74 Q153.26 1053.64 153.26 1050.03 Q153.26 1046.42 150.922 1044.31 Q148.584 1042.2 144.58 1042.2 Q142.705 1042.2 140.83 1042.62 Q138.978 1043.04 137.033 1043.92 L137.033 1026.56 Z" fill="#000000" fill-rule="nonzero" fill-opacity="1" /><path clip-path="url(#clip990)" d="M100.76 784.411 Q97.1493 784.411 95.3206 787.976 Q93.515 791.518 93.515 798.647 Q93.515 805.754 95.3206 809.319 Q97.1493 812.86 100.76 812.86 Q104.395 812.86 106.2 809.319 Q108.029 805.754 108.029 798.647 Q108.029 791.518 106.2 787.976 Q104.395 784.411 100.76 784.411 M100.76 780.708 Q106.571 780.708 109.626 785.314 Q112.705 789.897 112.705 798.647 Q112.705 807.374 109.626 811.981 Q106.571 816.564 100.76 816.564 Q94.9502 816.564 91.8715 811.981 Q88.816 807.374 88.816 798.647 Q88.816 789.897 91.8715 785.314 Q94.9502 780.708 100.76 780.708 Z" fill="#000000" fill-rule="nonzero" fill-opacity="1" /><path clip-path="url(#clip990)" d="M120.922 810.013 L125.807 810.013 L125.807 815.893 L120.922 815.893 L120.922 810.013 Z" fill="#000000" fill-rule="nonzero" fill-opacity="1" /><path clip-path="url(#clip990)" d="M145.992 784.411 Q142.381 784.411 140.552 787.976 Q138.746 791.518 138.746 798.647 Q138.746 805.754 140.552 809.319 Q142.381 812.86 145.992 812.86 Q149.626 812.86 151.431 809.319 Q153.26 805.754 153.26 798.647 Q153.26 791.518 151.431 787.976 Q149.626 784.411 145.992 784.411 M145.992 780.708 Q151.802 780.708 154.857 785.314 Q157.936 789.897 157.936 798.647 Q157.936 807.374 154.857 811.981 Q151.802 816.564 145.992 816.564 Q140.181 816.564 137.103 811.981 Q134.047 807.374 134.047 798.647 Q134.047 789.897 137.103 785.314 Q140.181 780.708 145.992 780.708 Z" fill="#000000" fill-rule="nonzero" fill-opacity="1" /><path clip-path="url(#clip990)" d="M101.756 539.189 Q98.1447 539.189 96.316 542.754 Q94.5104 546.295 94.5104 553.425 Q94.5104 560.531 96.316 564.096 Q98.1447 567.638 101.756 567.638 Q105.39 567.638 107.196 564.096 Q109.024 560.531 109.024 553.425 Q109.024 546.295 107.196 542.754 Q105.39 539.189 101.756 539.189 M101.756 535.485 Q107.566 535.485 110.621 540.092 Q113.7 544.675 113.7 553.425 Q113.7 562.152 110.621 566.758 Q107.566 571.342 101.756 571.342 Q95.9456 571.342 92.8669 566.758 Q89.8114 562.152 89.8114 553.425 Q89.8114 544.675 92.8669 540.092 Q95.9456 535.485 101.756 535.485 Z" fill="#000000" fill-rule="nonzero" fill-opacity="1" /><path clip-path="url(#clip990)" d="M121.918 564.791 L126.802 564.791 L126.802 570.67 L121.918 570.67 L121.918 564.791 Z" fill="#000000" fill-rule="nonzero" fill-opacity="1" /><path clip-path="url(#clip990)" d="M137.033 536.11 L155.39 536.11 L155.39 540.045 L141.316 540.045 L141.316 548.518 Q142.334 548.17 143.353 548.008 Q144.371 547.823 145.39 547.823 Q151.177 547.823 154.556 550.994 Q157.936 554.166 157.936 559.582 Q157.936 565.161 154.464 568.263 Q150.992 571.342 144.672 571.342 Q142.496 571.342 140.228 570.971 Q137.982 570.601 135.575 569.86 L135.575 565.161 Q137.658 566.295 139.881 566.851 Q142.103 567.406 144.58 567.406 Q148.584 567.406 150.922 565.3 Q153.26 563.193 153.26 559.582 Q153.26 555.971 150.922 553.865 Q148.584 551.758 144.58 551.758 Q142.705 551.758 140.83 552.175 Q138.978 552.592 137.033 553.471 L137.033 536.11 Z" fill="#000000" fill-rule="nonzero" fill-opacity="1" /><path clip-path="url(#clip990)" d="M91.5706 321.513 L99.2095 321.513 L99.2095 295.147 L90.8993 296.814 L90.8993 292.555 L99.1632 290.888 L103.839 290.888 L103.839 321.513 L111.478 321.513 L111.478 325.448 L91.5706 325.448 L91.5706 321.513 Z" fill="#000000" fill-rule="nonzero" fill-opacity="1" /><path clip-path="url(#clip990)" d="M120.922 319.568 L125.807 319.568 L125.807 325.448 L120.922 325.448 L120.922 319.568 Z" fill="#000000" fill-rule="nonzero" fill-opacity="1" /><path clip-path="url(#clip990)" d="M145.992 293.967 Q142.381 293.967 140.552 297.531 Q138.746 301.073 138.746 308.203 Q138.746 315.309 140.552 318.874 Q142.381 322.415 145.992 322.415 Q149.626 322.415 151.431 318.874 Q153.26 315.309 153.26 308.203 Q153.26 301.073 151.431 297.531 Q149.626 293.967 145.992 293.967 M145.992 290.263 Q151.802 290.263 154.857 294.869 Q157.936 299.453 157.936 308.203 Q157.936 316.929 154.857 321.536 Q151.802 326.119 145.992 326.119 Q140.181 326.119 137.103 321.536 Q134.047 316.929 134.047 308.203 Q134.047 299.453 137.103 294.869 Q140.181 290.263 145.992 290.263 Z" fill="#000000" fill-rule="nonzero" fill-opacity="1" /><path clip-path="url(#clip990)" d="M92.566 76.2903 L100.205 76.2903 L100.205 49.9247 L91.8947 51.5914 L91.8947 47.3322 L100.159 45.6655 L104.834 45.6655 L104.834 76.2903 L112.473 76.2903 L112.473 80.2255 L92.566 80.2255 L92.566 76.2903 Z" fill="#000000" fill-rule="nonzero" fill-opacity="1" /><path clip-path="url(#clip990)" d="M121.918 74.3459 L126.802 74.3459 L126.802 80.2255 L121.918 80.2255 L121.918 74.3459 Z" fill="#000000" fill-rule="nonzero" fill-opacity="1" /><path clip-path="url(#clip990)" d="M137.033 45.6655 L155.39 45.6655 L155.39 49.6007 L141.316 49.6007 L141.316 58.0728 Q142.334 57.7256 143.353 57.5636 Q144.371 57.3784 145.39 57.3784 Q151.177 57.3784 154.556 60.5497 Q157.936 63.721 157.936 69.1376 Q157.936 74.7163 154.464 77.8181 Q150.992 80.8968 144.672 80.8968 Q142.496 80.8968 140.228 80.5264 Q137.982 80.1561 135.575 79.4153 L135.575 74.7163 Q137.658 75.8505 139.881 76.4061 Q142.103 76.9616 144.58 76.9616 Q148.584 76.9616 150.922 74.8552 Q153.26 72.7487 153.26 69.1376 Q153.26 65.5265 150.922 63.42 Q148.584 61.3136 144.58 61.3136 Q142.705 61.3136 140.83 61.7302 Q138.978 62.1469 137.033 63.0265 L137.033 45.6655 Z" fill="#000000" fill-rule="nonzero" fill-opacity="1" /><polyline clip-path="url(#clip992)" style="stroke:#009af9; stroke-linecap:round; stroke-linejoin:round; stroke-width:4; stroke-opacity:1; fill:none" points="255.035,798.613 258.276,793.708 261.517,788.804 264.759,783.902 268,779 271.242,774.101 274.483,769.204 277.724,764.31 280.966,759.419 284.207,754.532 287.449,749.65 290.69,744.772 293.931,739.9 297.173,735.034 300.414,730.174 303.655,725.321 306.897,720.476 310.138,715.638 313.38,710.809 316.621,705.988 319.862,701.176 323.104,696.375 326.345,691.583 329.587,686.802 332.828,682.033 336.069,677.275 339.311,672.529 342.552,667.796 345.793,663.075 349.035,658.369 352.276,653.676 355.518,648.998 358.759,644.335 362,639.687 365.242,635.056 368.483,630.44 371.725,625.842 374.966,621.26 378.207,616.697 381.449,612.151 384.69,607.624 387.931,603.117 391.173,598.629 394.414,594.161 397.656,589.713 400.897,585.286 404.138,580.881 407.38,576.497 410.621,572.135 413.863,567.797 417.104,563.481 420.345,559.189 423.587,554.92 426.828,550.676 430.069,546.457 433.311,542.263 436.552,538.095 439.794,533.953 443.035,529.837 446.276,525.748 449.518,521.687 452.759,517.653 456.001,513.647 459.242,509.67 462.483,505.721 465.725,501.802 468.966,497.913 472.208,494.053 475.449,490.224 478.69,486.426 481.932,482.659 485.173,478.924 488.414,475.221 491.656,471.55 494.897,467.912 498.139,464.306 501.38,460.735 504.621,457.197 507.863,453.693 511.104,450.224 514.346,446.789 517.587,443.39 520.828,440.026 524.07,436.698 527.311,433.406 530.552,430.151 533.794,426.933 537.035,423.752 540.277,420.608 543.518,417.502 546.759,414.434 550.001,411.405 553.242,408.414 556.484,405.462 559.725,402.55 562.966,399.677 566.208,396.844 569.449,394.052 572.69,391.3 575.932,388.588 579.173,385.918 582.415,383.288 585.656,380.701 588.897,378.155 592.139,375.651 595.38,373.189 598.622,370.77 601.863,368.394 605.104,366.061 608.346,363.771 611.587,361.525 614.828,359.322 618.07,357.163 621.311,355.048 624.553,352.978 627.794,350.952 631.035,348.971 634.277,347.035 637.518,345.144 640.76,343.299 644.001,341.499 647.242,339.745 650.484,338.036 653.725,336.374 656.966,334.758 660.208,333.188 663.449,331.665 666.691,330.188 669.932,328.759 673.173,327.376 676.415,326.041 679.656,324.752 682.898,323.511 686.139,322.318 689.38,321.172 692.622,320.074 695.863,319.024 699.104,318.022 702.346,317.068 705.587,316.162 708.829,315.304 712.07,314.495 715.311,313.734 718.553,313.021 721.794,312.357 725.036,311.742 728.277,311.175 731.518,310.657 734.76,310.188 738.001,309.768 741.242,309.396 744.484,309.074 747.725,308.8 750.967,308.576 754.208,308.4 757.449,308.274 760.691,308.196 763.932,308.168 767.174,308.189 770.415,308.258 773.656,308.377 776.898,308.545 780.139,308.761 783.381,309.027 786.622,309.342 789.863,309.705 793.105,310.118 796.346,310.579 799.587,311.089 802.829,311.648 806.07,312.256 809.312,312.912 812.553,313.617 815.794,314.37 819.036,315.172 822.277,316.022 825.519,316.92 828.76,317.867 832.001,318.861 835.243,319.904 838.484,320.994 841.725,322.132 844.967,323.318 848.208,324.551 851.45,325.832 854.691,327.16 857.932,328.535 861.174,329.958 864.415,331.427 867.657,332.942 870.898,334.505 874.139,336.113 877.381,337.768 880.622,339.47 883.863,341.216 887.105,343.009 890.346,344.847 893.588,346.731 896.829,348.66 900.07,350.634 903.312,352.652 906.553,354.716 909.795,356.823 913.036,358.975 916.277,361.171 919.519,363.41 922.76,365.693 926.001,368.02 929.243,370.389 932.484,372.801 935.726,375.256 938.967,377.753 942.208,380.292 945.45,382.873 948.691,385.496 951.933,388.16 955.174,390.865 958.415,393.611 961.657,396.397 964.898,399.223 968.139,402.09 971.381,404.996 974.622,407.941 977.864,410.926 981.105,413.949 984.346,417.011 987.588,420.111 990.829,423.248 994.071,426.424 997.312,429.636 1000.55,432.885 1003.79,436.171 1007.04,439.494 1010.28,442.852 1013.52,446.245 1016.76,449.674 1020,453.138 1023.24,456.636 1026.48,460.169 1029.73,463.735 1032.97,467.335 1036.21,470.968 1039.45,474.634 1042.69,478.332 1045.93,482.062 1049.17,485.824 1052.42,489.617 1055.66,493.441 1058.9,497.296 1062.14,501.181 1065.38,505.095 1068.62,509.039 1071.86,513.012 1075.11,517.013 1078.35,521.042 1081.59,525.1 1084.83,529.184 1088.07,533.296 1091.31,537.434 1094.55,541.598 1097.79,545.788 1101.04,550.003 1104.28,554.243 1107.52,558.507 1110.76,562.796 1114,567.108 1117.24,571.443 1120.48,575.801 1123.73,580.181 1126.97,584.583 1130.21,589.006 1133.45,593.451 1136.69,597.916 1139.93,602.401 1143.17,606.905 1146.42,611.429 1149.66,615.971 1152.9,620.532 1156.14,625.111 1159.38,629.707 1162.62,634.319 1165.86,638.949 1169.11,643.594 1172.35,648.255 1175.59,652.93 1178.83,657.621 1182.07,662.325 1185.31,667.043 1188.55,671.774 1191.8,676.518 1195.04,681.274 1198.28,686.042 1201.52,690.821 1204.76,695.611 1208,700.411 1211.24,705.221 1214.48,710.04 1217.73,714.868 1220.97,719.705 1224.21,724.549 1227.45,729.401 1230.69,734.26 1233.93,739.125 1237.17,743.996 1240.42,748.873 1243.66,753.754 1246.9,758.64 1250.14,763.53 1253.38,768.424 1256.62,773.321 1259.86,778.22 1263.11,783.121 1266.35,788.023 1269.59,792.927 1272.83,797.832 1276.07,802.736 1279.31,807.64 1282.55,812.543 1285.8,817.445 1289.04,822.345 1292.28,827.242 1295.52,832.137 1298.76,837.028 1302,841.915 1305.24,846.798 1308.48,851.676 1311.73,856.549 1314.97,861.416 1318.21,866.277 1321.45,871.131 1324.69,875.978 1327.93,880.817 1331.17,885.648 1334.42,890.47 1337.66,895.283 1340.9,900.087 1344.14,904.88 1347.38,909.662 1350.62,914.434 1353.86,919.194 1357.11,923.941 1360.35,928.677 1363.59,933.399 1366.83,938.108 1370.07,942.803 1373.31,947.483 1376.55,952.149 1379.8,956.799 1383.04,961.433 1386.28,966.051 1389.52,970.652 1392.76,975.237 1396,979.803 1399.24,984.351 1402.49,988.881 1405.73,993.392 1408.97,997.883 1412.21,1002.35 1415.45,1006.81 1418.69,1011.24 1421.93,1015.64 1425.17,1020.03 1428.42,1024.4 1431.66,1028.74 1434.9,1033.06 1438.14,1037.35 1441.38,1041.63 1444.62,1045.87 1447.86,1050.1 1451.11,1054.3 1454.35,1058.47 1457.59,1062.61 1460.83,1066.73 1464.07,1070.83 1467.31,1074.89 1470.55,1078.93 1473.8,1082.94 1477.04,1086.92 1480.28,1090.88 1483.52,1094.8 1486.76,1098.7 1490,1102.56 1493.24,1106.39 1496.49,1110.2 1499.73,1113.97 1502.97,1117.71 1506.21,1121.42 1509.45,1125.09 1512.69,1128.74 1515.93,1132.35 1519.18,1135.92 1522.42,1139.47 1525.66,1142.98 1528.9,1146.45 1532.14,1149.89 1535.38,1153.3 1538.62,1156.67 1541.86,1160 1545.11,1163.3 1548.35,1166.56 1551.59,1169.78 1554.83,1172.97 1558.07,1176.12 1561.31,1179.23 1564.55,1182.31 1567.8,1185.34 1571.04,1188.34 1574.28,1191.3 1577.52,1194.21 1580.76,1197.09 1584,1199.93 1587.24,1202.73 1590.49,1205.49 1593.73,1208.21 1596.97,1210.89 1600.21,1213.52 1603.45,1216.12 1606.69,1218.67 1609.93,1221.18 1613.18,1223.65 1616.42,1226.07 1619.66,1228.46 1622.9,1230.8 1626.14,1233.09 1629.38,1235.35 1632.62,1237.56 1635.86,1239.72 1639.11,1241.84 1642.35,1243.92 1645.59,1245.95 1648.83,1247.94 1652.07,1249.88 1655.31,1251.78 1658.55,1253.64 1661.8,1255.44 1665.04,1257.2 1668.28,1258.92 1671.52,1260.59 1674.76,1262.21 1678,1263.79 1681.24,1265.32 1684.49,1266.8 1687.73,1268.24 1690.97,1269.63 1694.21,1270.98 1697.45,1272.27 1700.69,1273.52 1703.93,1274.72 1707.18,1275.87 1710.42,1276.98 1713.66,1278.04 1716.9,1279.05 1720.14,1280.01 1723.38,1280.92 1726.62,1281.79 1729.87,1282.61 1733.11,1283.37 1736.35,1284.09 1739.59,1284.77 1742.83,1285.39 1746.07,1285.96 1749.31,1286.49 1752.55,1286.97 1755.8,1287.39 1759.04,1287.77 1762.28,1288.1 1765.52,1288.38 1768.76,1288.62 1772,1288.8 1775.24,1288.93 1778.49,1289.02 1781.73,1289.06 1784.97,1289.04 1788.21,1288.98 1791.45,1288.87 1794.69,1288.71 1797.93,1288.5 1801.18,1288.24 1804.42,1287.94 1807.66,1287.58 1810.9,1287.18 1814.14,1286.72 1817.38,1286.22 1820.62,1285.67 1823.87,1285.07 1827.11,1284.42 1830.35,1283.72 1833.59,1282.98 1836.83,1282.18 1840.07,1281.34 1843.31,1280.45 1846.55,1279.51 1849.8,1278.53 1853.04,1277.49 1856.28,1276.41 1859.52,1275.28 1862.76,1274.1 1866,1272.87 1869.24,1271.6 1872.49,1270.28 1875.73,1268.91 1878.97,1267.5 1882.21,1266.04 1885.45,1264.53 1888.69,1262.97 1891.93,1261.37 1895.18,1259.72 1898.42,1258.03 1901.66,1256.29 1904.9,1254.5 1908.14,1252.67 1911.38,1250.8 1914.62,1248.88 1917.87,1246.91 1921.11,1244.9 1924.35,1242.84 1927.59,1240.74 1930.83,1238.6 1934.07,1236.41 1937.31,1234.17 1940.56,1231.9 1943.8,1229.58 1947.04,1227.22 1950.28,1224.81 1953.52,1222.36 1956.76,1219.87 1960,1217.34 1963.24,1214.77 1966.49,1212.15 1969.73,1209.49 1972.97,1206.79 1976.21,1204.05 1979.45,1201.27 1982.69,1198.45 1985.93,1195.59 1989.18,1192.69 1992.42,1189.76 1995.66,1186.78 1998.9,1183.76 2002.14,1180.7 2005.38,1177.61 2008.62,1174.48 2011.87,1171.31 2015.11,1168.1 2018.35,1164.86 2021.59,1161.58 2024.83,1158.26 2028.07,1154.91 2031.31,1151.52 2034.56,1148.1 2037.8,1144.64 2041.04,1141.15 2044.28,1137.62 2047.52,1134.06 2050.76,1130.47 2054,1126.84 2057.24,1123.18 2060.49,1119.48 2063.73,1115.76 2066.97,1112 2070.21,1108.21 2073.45,1104.39 2076.69,1100.55 2079.93,1096.67 2083.18,1092.76 2086.42,1088.82 2089.66,1084.85 2092.9,1080.85 2096.14,1076.83 2099.38,1072.77 2102.62,1068.69 2105.87,1064.59 2109.11,1060.45 2112.35,1056.29 2115.59,1052.11 2118.83,1047.9 2122.07,1043.66 2125.31,1039.4 2128.56,1035.11 2131.8,1030.81 2135.04,1026.47 2138.28,1022.12 2141.52,1017.74 2144.76,1013.34 2148,1008.92 2151.25,1004.48 2154.49,1000.02 2157.73,995.54 2160.97,991.039 2164.21,986.518 2167.45,981.979 2170.69,977.421 2173.93,972.845 2177.18,968.252 2180.42,963.642 2183.66,959.015 2186.9,954.372 2190.14,949.714 2193.38,945.041 2196.62,940.353 2199.87,935.651 2203.11,930.935 2206.35,926.206 2209.59,921.464 2212.83,916.71 2216.07,911.944 2219.31,907.166 2222.56,902.378 2225.8,897.58 2229.04,892.771 2232.28,887.953 2235.52,883.127 2238.76,878.291 2242,873.448 2245.25,868.597 2248.49,863.74 2251.73,858.876 2254.97,854.005 2258.21,849.13 2261.45,844.249 2264.69,839.363 2267.94,834.474 2271.18,829.581 2274.42,824.685 2277.66,819.786 2280.9,814.885 2284.14,809.983 2287.38,805.079 2290.62,800.175 "/>
<circle clip-path="url(#clip992)" cx="1600.21" cy="1163.75" r="14.4" fill="#e26f46" fill-rule="evenodd" fill-opacity="1" stroke="#000000" stroke-opacity="1" stroke-width="3.2"/>
<circle clip-path="url(#clip992)" cx="1775.24" cy="1383.76" r="14.4" fill="#e26f46" fill-rule="evenodd" fill-opacity="1" stroke="#000000" stroke-opacity="1" stroke-width="3.2"/>
<circle clip-path="url(#clip992)" cx="2232.28" cy="838.039" r="14.4" fill="#e26f46" fill-rule="evenodd" fill-opacity="1" stroke="#000000" stroke-opacity="1" stroke-width="3.2"/>
<circle clip-path="url(#clip992)" cx="1123.73" cy="477.77" r="14.4" fill="#e26f46" fill-rule="evenodd" fill-opacity="1" stroke="#000000" stroke-opacity="1" stroke-width="3.2"/>
<circle clip-path="url(#clip992)" cx="1515.93" cy="1177.95" r="14.4" fill="#e26f46" fill-rule="evenodd" fill-opacity="1" stroke="#000000" stroke-opacity="1" stroke-width="3.2"/>
<circle clip-path="url(#clip992)" cx="371.725" cy="728.843" r="14.4" fill="#e26f46" fill-rule="evenodd" fill-opacity="1" stroke="#000000" stroke-opacity="1" stroke-width="3.2"/>
<circle clip-path="url(#clip992)" cx="1512.69" cy="1209.53" r="14.4" fill="#e26f46" fill-rule="evenodd" fill-opacity="1" stroke="#000000" stroke-opacity="1" stroke-width="3.2"/>
<circle clip-path="url(#clip992)" cx="1846.55" cy="1342.01" r="14.4" fill="#e26f46" fill-rule="evenodd" fill-opacity="1" stroke="#000000" stroke-opacity="1" stroke-width="3.2"/>
<circle clip-path="url(#clip992)" cx="712.07" cy="235.368" r="14.4" fill="#e26f46" fill-rule="evenodd" fill-opacity="1" stroke="#000000" stroke-opacity="1" stroke-width="3.2"/>
<circle clip-path="url(#clip992)" cx="1577.52" cy="1169.1" r="14.4" fill="#e26f46" fill-rule="evenodd" fill-opacity="1" stroke="#000000" stroke-opacity="1" stroke-width="3.2"/>
<circle clip-path="url(#clip992)" cx="339.311" cy="653.619" r="14.4" fill="#e26f46" fill-rule="evenodd" fill-opacity="1" stroke="#000000" stroke-opacity="1" stroke-width="3.2"/>
<circle clip-path="url(#clip992)" cx="2005.38" cy="1097.48" r="14.4" fill="#e26f46" fill-rule="evenodd" fill-opacity="1" stroke="#000000" stroke-opacity="1" stroke-width="3.2"/>
<circle clip-path="url(#clip992)" cx="468.966" cy="409.083" r="14.4" fill="#e26f46" fill-rule="evenodd" fill-opacity="1" stroke="#000000" stroke-opacity="1" stroke-width="3.2"/>
<circle clip-path="url(#clip992)" cx="624.553" cy="329.551" r="14.4" fill="#e26f46" fill-rule="evenodd" fill-opacity="1" stroke="#000000" stroke-opacity="1" stroke-width="3.2"/>
<circle clip-path="url(#clip992)" cx="540.277" cy="470.36" r="14.4" fill="#e26f46" fill-rule="evenodd" fill-opacity="1" stroke="#000000" stroke-opacity="1" stroke-width="3.2"/>
<circle clip-path="url(#clip992)" cx="1742.83" cy="1294.1" r="14.4" fill="#e26f46" fill-rule="evenodd" fill-opacity="1" stroke="#000000" stroke-opacity="1" stroke-width="3.2"/>
<circle clip-path="url(#clip992)" cx="1490" cy="1175.72" r="14.4" fill="#e26f46" fill-rule="evenodd" fill-opacity="1" stroke="#000000" stroke-opacity="1" stroke-width="3.2"/>
<circle clip-path="url(#clip992)" cx="1895.18" cy="1248.82" r="14.4" fill="#e26f46" fill-rule="evenodd" fill-opacity="1" stroke="#000000" stroke-opacity="1" stroke-width="3.2"/>
<circle clip-path="url(#clip992)" cx="1810.9" cy="1324.37" r="14.4" fill="#e26f46" fill-rule="evenodd" fill-opacity="1" stroke="#000000" stroke-opacity="1" stroke-width="3.2"/>
<circle clip-path="url(#clip992)" cx="1862.76" cy="1342.95" r="14.4" fill="#e26f46" fill-rule="evenodd" fill-opacity="1" stroke="#000000" stroke-opacity="1" stroke-width="3.2"/>
<path clip-path="url(#clip992)" d="M255.035 991.957 L258.276 986.779 L261.517 981.553 L264.759 976.281 L268 970.965 L271.242 965.608 L274.483 960.211 L277.724 954.78 L280.966 949.315 L284.207 943.822 L287.449 938.304 L290.69 932.765 L293.931 927.209 L297.173 921.641 L300.414 916.066 L303.655 910.491 L306.897 904.919 L310.138 899.359 L313.38 893.815 L316.621 888.296 L319.862 882.808 L323.104 877.358 L326.345 871.956 L329.587 866.607 L332.828 861.322 L336.069 856.108 L339.311 850.973 L342.552 845.924 L345.793 840.962 L349.035 836.083 L352.276 831.285 L355.518 826.566 L358.759 821.924 L362 817.355 L365.242 812.858 L368.483 808.43 L371.725 804.068 L374.966 799.767 L378.207 795.523 L381.449 791.328 L384.69 787.176 L387.931 783.059 L391.173 778.971 L394.414 774.907 L397.656 770.861 L400.897 766.828 L404.138 762.803 L407.38 758.783 L410.621 754.765 L413.863 750.745 L417.104 746.723 L420.345 742.697 L423.587 738.667 L426.828 734.632 L430.069 730.595 L433.311 726.557 L436.552 722.521 L439.794 718.489 L443.035 714.465 L446.276 710.454 L449.518 706.46 L452.759 702.491 L456.001 698.55 L459.242 694.647 L462.483 690.787 L465.725 686.978 L468.966 683.229 L472.208 679.545 L475.449 675.923 L478.69 672.358 L481.932 668.845 L485.173 665.38 L488.414 661.958 L491.656 658.576 L494.897 655.231 L498.139 651.92 L501.38 648.641 L504.621 645.393 L507.863 642.174 L511.104 638.984 L514.346 635.823 L517.587 632.692 L520.828 629.592 L524.07 626.524 L527.311 623.49 L530.552 620.492 L533.794 617.535 L537.035 614.62 L540.277 611.751 L543.518 608.931 L546.759 606.158 L550.001 603.429 L553.242 600.741 L556.484 598.091 L559.725 595.478 L562.966 592.901 L566.208 590.357 L569.449 587.848 L572.69 585.372 L575.932 582.931 L579.173 580.525 L582.415 578.157 L585.656 575.828 L588.897 573.542 L592.139 571.302 L595.38 569.112 L598.622 566.977 L601.863 564.903 L605.104 562.894 L608.346 560.957 L611.587 559.099 L614.828 557.327 L618.07 555.649 L621.311 554.072 L624.553 552.606 L627.794 551.256 L631.035 550.021 L634.277 548.899 L637.518 547.889 L640.76 546.987 L644.001 546.192 L647.242 545.503 L650.484 544.92 L653.725 544.442 L656.966 544.069 L660.208 543.803 L663.449 543.644 L666.691 543.594 L669.932 543.655 L673.173 543.83 L676.415 544.123 L679.656 544.536 L682.898 545.074 L686.139 545.74 L689.38 546.541 L692.622 547.481 L695.863 548.565 L699.104 549.8 L702.346 551.191 L705.587 552.744 L708.829 554.465 L712.07 556.362 L715.311 558.437 L718.553 560.683 L721.794 563.09 L725.036 565.648 L728.277 568.346 L731.518 571.176 L734.76 574.127 L738.001 577.189 L741.242 580.355 L744.484 583.616 L747.725 586.962 L750.967 590.385 L754.208 593.879 L757.449 597.434 L760.691 601.045 L763.932 604.704 L767.174 608.404 L770.415 612.139 L773.656 615.903 L776.898 619.691 L780.139 623.496 L783.381 627.314 L786.622 631.139 L789.863 634.968 L793.105 638.794 L796.346 642.614 L799.587 646.425 L802.829 650.221 L806.07 654 L809.312 657.758 L812.553 661.491 L815.794 665.197 L819.036 668.872 L822.277 672.515 L825.519 676.121 L828.76 679.69 L832.001 683.217 L835.243 686.702 L838.484 690.142 L841.725 693.535 L844.967 696.88 L848.208 700.174 L851.45 703.416 L854.691 706.604 L857.932 709.738 L861.174 712.816 L864.415 715.836 L867.657 718.798 L870.898 721.7 L874.139 724.542 L877.381 727.322 L880.622 730.041 L883.863 732.696 L887.105 735.289 L890.346 737.818 L893.588 740.282 L896.829 742.682 L900.07 745.017 L903.312 747.287 L906.553 749.491 L909.795 751.63 L913.036 753.704 L916.277 755.713 L919.519 757.656 L922.76 759.534 L926.001 761.348 L929.243 763.097 L932.484 764.782 L935.726 766.404 L938.967 767.963 L942.208 769.46 L945.45 770.896 L948.691 772.27 L951.933 773.585 L955.174 774.842 L958.415 776.04 L961.657 777.182 L964.898 778.269 L968.139 779.302 L971.381 780.282 L974.622 781.211 L977.864 782.091 L981.105 782.924 L984.346 783.711 L987.588 784.454 L990.829 785.156 L994.071 785.818 L997.312 786.443 L1000.55 787.035 L1003.79 787.594 L1007.04 788.125 L1010.28 788.629 L1013.52 789.111 L1016.76 789.574 L1020 790.021 L1023.24 790.455 L1026.48 790.881 L1029.73 791.304 L1032.97 791.726 L1036.21 792.153 L1039.45 792.59 L1042.69 793.041 L1045.93 793.511 L1049.17 794.007 L1052.42 794.535 L1055.66 795.099 L1058.9 795.706 L1062.14 796.364 L1065.38 797.078 L1068.62 797.856 L1071.86 798.706 L1075.11 799.634 L1078.35 800.65 L1081.59 801.761 L1084.83 802.976 L1088.07 804.303 L1091.31 805.751 L1094.55 807.331 L1097.79 809.05 L1101.04 810.919 L1104.28 812.947 L1107.52 815.143 L1110.76 817.519 L1114 820.082 L1117.24 822.844 L1120.48 825.813 L1123.73 828.999 L1126.97 832.408 L1130.21 836.034 L1133.45 839.867 L1136.69 843.898 L1139.93 848.116 L1143.17 852.513 L1146.42 857.077 L1149.66 861.799 L1152.9 866.669 L1156.14 871.678 L1159.38 876.816 L1162.62 882.073 L1165.86 887.441 L1169.11 892.911 L1172.35 898.474 L1175.59 904.121 L1178.83 909.845 L1182.07 915.637 L1185.31 921.491 L1188.55 927.398 L1191.8 933.352 L1195.04 939.345 L1198.28 945.373 L1201.52 951.427 L1204.76 957.503 L1208 963.595 L1211.24 969.697 L1214.48 975.803 L1217.73 981.911 L1220.97 988.013 L1224.21 994.107 L1227.45 1000.19 L1230.69 1006.25 L1233.93 1012.29 L1237.17 1018.31 L1240.42 1024.29 L1243.66 1030.25 L1246.9 1036.17 L1250.14 1042.05 L1253.38 1047.89 L1256.62 1053.69 L1259.86 1059.44 L1263.11 1065.14 L1266.35 1070.78 L1269.59 1076.38 L1272.83 1081.92 L1276.07 1087.39 L1279.31 1092.81 L1282.55 1098.17 L1285.8 1103.46 L1289.04 1108.68 L1292.28 1113.84 L1295.52 1118.93 L1298.76 1123.94 L1302 1128.89 L1305.24 1133.76 L1308.48 1138.55 L1311.73 1143.27 L1314.97 1147.91 L1318.21 1152.47 L1321.45 1156.95 L1324.69 1161.34 L1327.93 1165.66 L1331.17 1169.89 L1334.42 1174.04 L1337.66 1178.1 L1340.9 1182.07 L1344.14 1185.96 L1347.38 1189.76 L1350.62 1193.47 L1353.86 1197.09 L1357.11 1200.63 L1360.35 1204.07 L1363.59 1207.42 L1366.83 1210.68 L1370.07 1213.85 L1373.31 1216.93 L1376.55 1219.91 L1379.8 1222.81 L1383.04 1225.61 L1386.28 1228.32 L1389.52 1230.94 L1392.76 1233.47 L1396 1235.9 L1399.24 1238.25 L1402.49 1240.51 L1405.73 1242.68 L1408.97 1244.76 L1412.21 1246.75 L1415.45 1248.67 L1418.69 1250.49 L1421.93 1252.24 L1425.17 1253.9 L1428.42 1255.49 L1431.66 1257.01 L1434.9 1258.45 L1438.14 1259.83 L1441.38 1261.14 L1444.62 1262.39 L1447.86 1263.59 L1451.11 1264.73 L1454.35 1265.83 L1457.59 1266.89 L1460.83 1267.92 L1464.07 1268.92 L1467.31 1269.9 L1470.55 1270.87 L1473.8 1271.84 L1477.04 1272.82 L1480.28 1273.81 L1483.52 1274.83 L1486.76 1275.89 L1490 1277 L1493.24 1278.17 L1496.49 1279.4 L1499.73 1280.71 L1502.97 1282.1 L1506.21 1283.57 L1509.45 1285.13 L1512.69 1286.78 L1515.93 1288.54 L1519.18 1290.4 L1522.42 1292.35 L1525.66 1294.39 L1528.9 1296.52 L1532.14 1298.73 L1535.38 1301.01 L1538.62 1303.35 L1541.86 1305.76 L1545.11 1308.23 L1548.35 1310.75 L1551.59 1313.32 L1554.83 1315.94 L1558.07 1318.61 L1561.31 1321.33 L1564.55 1324.1 L1567.8 1326.92 L1571.04 1329.79 L1574.28 1332.72 L1577.52 1335.71 L1580.76 1338.75 L1584 1341.85 L1587.24 1345.01 L1590.49 1348.21 L1593.73 1351.46 L1596.97 1354.76 L1600.21 1358.09 L1603.45 1361.47 L1606.69 1364.87 L1609.93 1368.28 L1613.18 1371.7 L1616.42 1375.11 L1619.66 1378.51 L1622.9 1381.88 L1626.14 1385.22 L1629.38 1388.51 L1632.62 1391.75 L1635.86 1394.94 L1639.11 1398.06 L1642.35 1401.11 L1645.59 1404.08 L1648.83 1406.96 L1652.07 1409.76 L1655.31 1412.47 L1658.55 1415.08 L1661.8 1417.6 L1665.04 1420.01 L1668.28 1422.31 L1671.52 1424.51 L1674.76 1426.59 L1678 1428.57 L1681.24 1430.43 L1684.49 1432.18 L1687.73 1433.82 L1690.97 1435.34 L1694.21 1436.75 L1697.45 1438.04 L1700.69 1439.23 L1703.93 1440.3 L1707.18 1441.26 L1710.42 1442.12 L1713.66 1442.88 L1716.9 1443.54 L1720.14 1444.1 L1723.38 1444.57 L1726.62 1444.95 L1729.87 1445.25 L1733.11 1445.47 L1736.35 1445.61 L1739.59 1445.69 L1742.83 1445.72 L1746.07 1445.68 L1749.31 1445.59 L1752.55 1445.45 L1755.8 1445.25 L1759.04 1444.99 L1762.28 1444.68 L1765.52 1444.3 L1768.76 1443.88 L1772 1443.39 L1775.24 1442.86 L1778.49 1442.27 L1781.73 1441.63 L1784.97 1440.94 L1788.21 1440.19 L1791.45 1439.39 L1794.69 1438.53 L1797.93 1437.63 L1801.18 1436.67 L1804.42 1435.67 L1807.66 1434.62 L1810.9 1433.53 L1814.14 1432.4 L1817.38 1431.24 L1820.62 1430.04 L1823.87 1428.79 L1827.11 1427.52 L1830.35 1426.2 L1833.59 1424.85 L1836.83 1423.46 L1840.07 1422.05 L1843.31 1420.61 L1846.55 1419.14 L1849.8 1417.66 L1853.04 1416.16 L1856.28 1414.64 L1859.52 1413.11 L1862.76 1411.55 L1866 1409.99 L1869.24 1408.4 L1872.49 1406.8 L1875.73 1405.18 L1878.97 1403.54 L1882.21 1401.87 L1885.45 1400.18 L1888.69 1398.47 L1891.93 1396.74 L1895.18 1394.99 L1898.42 1393.22 L1901.66 1391.42 L1904.9 1389.59 L1908.14 1387.73 L1911.38 1385.82 L1914.62 1383.87 L1917.87 1381.88 L1921.11 1379.83 L1924.35 1377.73 L1927.59 1375.58 L1930.83 1373.37 L1934.07 1371.11 L1937.31 1368.79 L1940.56 1366.41 L1943.8 1363.98 L1947.04 1361.5 L1950.28 1358.97 L1953.52 1356.38 L1956.76 1353.75 L1960 1351.08 L1963.24 1348.38 L1966.49 1345.63 L1969.73 1342.86 L1972.97 1340.07 L1976.21 1337.25 L1979.45 1334.42 L1982.69 1331.59 L1985.93 1328.75 L1989.18 1325.92 L1992.42 1323.09 L1995.66 1320.29 L1998.9 1317.51 L2002.14 1314.76 L2005.38 1312.05 L2008.62 1309.38 L2011.87 1306.75 L2015.11 1304.15 L2018.35 1301.59 L2021.59 1299.05 L2024.83 1296.53 L2028.07 1294.03 L2031.31 1291.54 L2034.56 1289.05 L2037.8 1286.58 L2041.04 1284.1 L2044.28 1281.62 L2047.52 1279.13 L2050.76 1276.63 L2054 1274.11 L2057.24 1271.59 L2060.49 1269.04 L2063.73 1266.47 L2066.97 1263.87 L2070.21 1261.26 L2073.45 1258.61 L2076.69 1255.94 L2079.93 1253.23 L2083.18 1250.5 L2086.42 1247.73 L2089.66 1244.93 L2092.9 1242.1 L2096.14 1239.24 L2099.38 1236.34 L2102.62 1233.41 L2105.87 1230.45 L2109.11 1227.45 L2112.35 1224.43 L2115.59 1221.38 L2118.83 1218.29 L2122.07 1215.19 L2125.31 1212.05 L2128.56 1208.9 L2131.8 1205.73 L2135.04 1202.53 L2138.28 1199.33 L2141.52 1196.11 L2144.76 1192.88 L2148 1189.65 L2151.25 1186.42 L2154.49 1183.2 L2157.73 1179.98 L2160.97 1176.78 L2164.21 1173.59 L2167.45 1170.43 L2170.69 1167.29 L2173.93 1164.2 L2177.18 1161.14 L2180.42 1158.13 L2183.66 1155.18 L2186.9 1152.29 L2190.14 1149.47 L2193.38 1146.73 L2196.62 1144.07 L2199.87 1141.51 L2203.11 1139.05 L2206.35 1136.7 L2209.59 1134.47 L2212.83 1132.37 L2216.07 1130.41 L2219.31 1128.59 L2222.56 1126.93 L2225.8 1125.43 L2229.04 1124.11 L2232.28 1122.96 L2235.52 1122.01 L2238.76 1121.23 L2242 1120.63 L2245.25 1120.2 L2248.49 1119.94 L2251.73 1119.82 L2254.97 1119.85 L2258.21 1120.03 L2261.45 1120.33 L2264.69 1120.76 L2267.94 1121.3 L2271.18 1121.96 L2274.42 1122.72 L2277.66 1123.58 L2280.9 1124.53 L2284.14 1125.57 L2287.38 1126.68 L2290.62 1127.87 L2290.62 562.652 L2287.38 566.642 L2284.14 570.628 L2280.9 574.606 L2277.66 578.57 L2274.42 582.518 L2271.18 586.445 L2267.94 590.344 L2264.69 594.212 L2261.45 598.044 L2258.21 601.833 L2254.97 605.576 L2251.73 609.265 L2248.49 612.897 L2245.25 616.465 L2242 619.965 L2238.76 623.391 L2235.52 626.737 L2232.28 630 L2229.04 633.177 L2225.8 636.271 L2222.56 639.29 L2219.31 642.242 L2216.07 645.132 L2212.83 647.97 L2209.59 650.761 L2206.35 653.514 L2203.11 656.235 L2199.87 658.933 L2196.62 661.614 L2193.38 664.285 L2190.14 666.954 L2186.9 669.626 L2183.66 672.309 L2180.42 675.008 L2177.18 677.731 L2173.93 680.481 L2170.69 683.265 L2167.45 686.088 L2164.21 688.955 L2160.97 691.871 L2157.73 694.839 L2154.49 697.864 L2151.25 700.949 L2148 704.099 L2144.76 707.316 L2141.52 710.604 L2138.28 713.964 L2135.04 717.4 L2131.8 720.913 L2128.56 724.506 L2125.31 728.18 L2122.07 731.936 L2118.83 735.776 L2115.59 739.701 L2112.35 743.711 L2109.11 747.807 L2105.87 751.99 L2102.62 756.258 L2099.38 760.612 L2096.14 765.052 L2092.9 769.576 L2089.66 774.184 L2086.42 778.875 L2083.18 783.648 L2079.93 788.5 L2076.69 793.43 L2073.45 798.437 L2070.21 803.517 L2066.97 808.668 L2063.73 813.888 L2060.49 819.173 L2057.24 824.52 L2054 829.927 L2050.76 835.388 L2047.52 840.9 L2044.28 846.46 L2041.04 852.062 L2037.8 857.701 L2034.56 863.374 L2031.31 869.074 L2028.07 874.797 L2024.83 880.536 L2021.59 886.287 L2018.35 892.043 L2015.11 897.798 L2011.87 903.546 L2008.62 909.282 L2005.38 914.998 L2002.14 920.69 L1998.9 926.359 L1995.66 932.01 L1992.42 937.646 L1989.18 943.269 L1985.93 948.882 L1982.69 954.489 L1979.45 960.092 L1976.21 965.693 L1972.97 971.295 L1969.73 976.9 L1966.49 982.507 L1963.24 988.12 L1960 993.737 L1956.76 999.36 L1953.52 1004.99 L1950.28 1010.62 L1947.04 1016.25 L1943.8 1021.88 L1940.56 1027.51 L1937.31 1033.14 L1934.07 1038.76 L1930.83 1044.36 L1927.59 1049.94 L1924.35 1055.5 L1921.11 1061.03 L1917.87 1066.52 L1914.62 1071.96 L1911.38 1077.35 L1908.14 1082.68 L1904.9 1087.93 L1901.66 1093.1 L1898.42 1098.17 L1895.18 1103.13 L1891.93 1107.98 L1888.69 1112.7 L1885.45 1117.28 L1882.21 1121.73 L1878.97 1126.04 L1875.73 1130.19 L1872.49 1134.18 L1869.24 1138 L1866 1141.64 L1862.76 1145.09 L1859.52 1148.34 L1856.28 1151.39 L1853.04 1154.23 L1849.8 1156.87 L1846.55 1159.31 L1843.31 1161.54 L1840.07 1163.56 L1836.83 1165.39 L1833.59 1167.03 L1830.35 1168.48 L1827.11 1169.75 L1823.87 1170.84 L1820.62 1171.75 L1817.38 1172.48 L1814.14 1173.04 L1810.9 1173.43 L1807.66 1173.64 L1804.42 1173.67 L1801.18 1173.55 L1797.93 1173.26 L1794.69 1172.82 L1791.45 1172.22 L1788.21 1171.47 L1784.97 1170.58 L1781.73 1169.53 L1778.49 1168.34 L1775.24 1166.99 L1772 1165.5 L1768.76 1163.87 L1765.52 1162.11 L1762.28 1160.22 L1759.04 1158.23 L1755.8 1156.12 L1752.55 1153.91 L1749.31 1151.61 L1746.07 1149.22 L1742.83 1146.75 L1739.59 1144.21 L1736.35 1141.6 L1733.11 1138.94 L1729.87 1136.23 L1726.62 1133.5 L1723.38 1130.74 L1720.14 1127.98 L1716.9 1125.21 L1713.66 1122.45 L1710.42 1119.71 L1707.18 1117 L1703.93 1114.31 L1700.69 1111.66 L1697.45 1109.06 L1694.21 1106.5 L1690.97 1104 L1687.73 1101.56 L1684.49 1099.19 L1681.24 1096.87 L1678 1094.63 L1674.76 1092.46 L1671.52 1090.37 L1668.28 1088.35 L1665.04 1086.41 L1661.8 1084.54 L1658.55 1082.75 L1655.31 1081.04 L1652.07 1079.4 L1648.83 1077.84 L1645.59 1076.35 L1642.35 1074.93 L1639.11 1073.58 L1635.86 1072.29 L1632.62 1071.06 L1629.38 1069.88 L1626.14 1068.75 L1622.9 1067.66 L1619.66 1066.61 L1616.42 1065.59 L1613.18 1064.59 L1609.93 1063.6 L1606.69 1062.61 L1603.45 1061.62 L1600.21 1060.6 L1596.97 1059.57 L1593.73 1058.5 L1590.49 1057.39 L1587.24 1056.23 L1584 1055.02 L1580.76 1053.75 L1577.52 1052.42 L1574.28 1051 L1571.04 1049.51 L1567.8 1047.94 L1564.55 1046.27 L1561.31 1044.51 L1558.07 1042.66 L1554.83 1040.7 L1551.59 1038.63 L1548.35 1036.43 L1545.11 1034.11 L1541.86 1031.65 L1538.62 1029.03 L1535.38 1026.25 L1532.14 1023.29 L1528.9 1020.15 L1525.66 1016.8 L1522.42 1013.23 L1519.18 1009.43 L1515.93 1005.38 L1512.69 1001.07 L1509.45 996.497 L1506.21 991.663 L1502.97 986.575 L1499.73 981.239 L1496.49 975.662 L1493.24 969.849 L1490 963.808 L1486.76 957.546 L1483.52 951.078 L1480.28 944.42 L1477.04 937.589 L1473.8 930.599 L1470.55 923.466 L1467.31 916.204 L1464.07 908.826 L1460.83 901.345 L1457.59 893.773 L1454.35 886.121 L1451.11 878.4 L1447.86 870.62 L1444.62 862.79 L1441.38 854.92 L1438.14 847.016 L1434.9 839.088 L1431.66 831.143 L1428.42 823.186 L1425.17 815.226 L1421.93 807.267 L1418.69 799.315 L1415.45 791.375 L1412.21 783.453 L1408.97 775.552 L1405.73 767.678 L1402.49 759.834 L1399.24 752.025 L1396 744.253 L1392.76 736.521 L1389.52 728.834 L1386.28 721.194 L1383.04 713.604 L1379.8 706.067 L1376.55 698.584 L1373.31 691.158 L1370.07 683.792 L1366.83 676.487 L1363.59 669.245 L1360.35 662.069 L1357.11 654.959 L1353.86 647.917 L1350.62 640.945 L1347.38 634.044 L1344.14 627.215 L1340.9 620.46 L1337.66 613.78 L1334.42 607.175 L1331.17 600.647 L1327.93 594.197 L1324.69 587.825 L1321.45 581.532 L1318.21 575.319 L1314.97 569.186 L1311.73 563.134 L1308.48 557.163 L1305.24 551.275 L1302 545.468 L1298.76 539.744 L1295.52 534.102 L1292.28 528.544 L1289.04 523.068 L1285.8 517.675 L1282.55 512.365 L1279.31 507.138 L1276.07 501.994 L1272.83 496.932 L1269.59 491.952 L1266.35 487.054 L1263.11 482.237 L1259.86 477.5 L1256.62 472.844 L1253.38 468.267 L1250.14 463.768 L1246.9 459.346 L1243.66 455.001 L1240.42 450.732 L1237.17 446.536 L1233.93 442.413 L1230.69 438.361 L1227.45 434.379 L1224.21 430.464 L1220.97 426.615 L1217.73 422.829 L1214.48 419.106 L1211.24 415.441 L1208 411.832 L1204.76 408.278 L1201.52 404.774 L1198.28 401.318 L1195.04 397.906 L1191.8 394.535 L1188.55 391.201 L1185.31 387.901 L1182.07 384.629 L1178.83 381.383 L1175.59 378.156 L1172.35 374.945 L1169.11 371.745 L1165.86 368.55 L1162.62 365.355 L1159.38 362.155 L1156.14 358.944 L1152.9 355.716 L1149.66 352.467 L1146.42 349.189 L1143.17 345.878 L1139.93 342.527 L1136.69 339.13 L1133.45 335.683 L1130.21 332.179 L1126.97 328.614 L1123.73 324.983 L1120.48 321.282 L1117.24 317.514 L1114 313.683 L1110.76 309.793 L1107.52 305.85 L1104.28 301.858 L1101.04 297.822 L1097.79 293.748 L1094.55 289.64 L1091.31 285.503 L1088.07 281.343 L1084.83 277.164 L1081.59 272.972 L1078.35 268.772 L1075.11 264.567 L1071.86 260.363 L1068.62 256.163 L1065.38 251.972 L1062.14 247.794 L1058.9 243.633 L1055.66 239.492 L1052.42 235.374 L1049.17 231.284 L1045.93 227.223 L1042.69 223.195 L1039.45 219.203 L1036.21 215.249 L1032.97 211.335 L1029.73 207.463 L1026.48 203.636 L1023.24 199.856 L1020 196.124 L1016.76 192.443 L1013.52 188.812 L1010.28 185.235 L1007.04 181.712 L1003.79 178.245 L1000.55 174.834 L997.312 171.481 L994.071 168.187 L990.829 164.952 L987.588 161.777 L984.346 158.664 L981.105 155.613 L977.864 152.624 L974.622 149.698 L971.381 146.836 L968.139 144.037 L964.898 141.304 L961.657 138.635 L958.415 136.032 L955.174 133.495 L951.933 131.023 L948.691 128.618 L945.45 126.28 L942.208 124.009 L938.967 121.805 L935.726 119.669 L932.484 117.6 L929.243 115.599 L926.001 113.667 L922.76 111.803 L919.519 110.008 L916.277 108.281 L913.036 106.624 L909.795 105.036 L906.553 103.517 L903.312 102.068 L900.07 100.689 L896.829 99.3793 L893.588 98.1402 L890.346 96.9715 L887.105 95.8734 L883.863 94.846 L880.622 93.8895 L877.381 93.0041 L874.139 92.1899 L870.898 91.4472 L867.657 90.776 L864.415 90.1765 L861.174 89.6489 L857.932 89.1933 L854.691 88.8097 L851.45 88.4984 L848.208 88.2593 L844.967 88.0926 L841.725 87.9982 L838.484 87.9763 L835.243 88.0267 L832.001 88.1495 L828.76 88.3446 L825.519 88.6118 L822.277 88.9511 L819.036 89.3621 L815.794 89.8447 L812.553 90.3986 L809.312 91.0233 L806.07 91.7185 L802.829 92.4837 L799.587 93.3182 L796.346 94.2214 L793.105 95.1925 L789.863 96.2308 L786.622 97.3352 L783.381 98.5047 L780.139 99.7381 L776.898 101.034 L773.656 102.391 L770.415 103.808 L767.174 105.283 L763.932 106.814 L760.691 108.398 L757.449 110.035 L754.208 111.721 L750.967 113.455 L747.725 115.233 L744.484 117.052 L741.242 118.91 L738.001 120.803 L734.76 122.729 L731.518 124.684 L728.277 126.664 L725.036 128.666 L721.794 130.687 L718.553 132.722 L715.311 134.768 L712.07 136.821 L708.829 138.88 L705.587 140.945 L702.346 143.019 L699.104 145.102 L695.863 147.199 L692.622 149.31 L689.38 151.439 L686.139 153.586 L682.898 155.755 L679.656 157.947 L676.415 160.164 L673.173 162.406 L669.932 164.676 L666.691 166.973 L663.449 169.299 L660.208 171.653 L656.966 174.036 L653.725 176.447 L650.484 178.885 L647.242 181.349 L644.001 183.838 L640.76 186.349 L637.518 188.882 L634.277 191.433 L631.035 194.001 L627.794 196.581 L624.553 199.173 L621.311 201.773 L618.07 204.384 L614.828 207.01 L611.587 209.655 L608.346 212.322 L605.104 215.013 L601.863 217.732 L598.622 220.48 L595.38 223.261 L592.139 226.074 L588.897 228.922 L585.656 231.804 L582.415 234.722 L579.173 237.675 L575.932 240.662 L572.69 243.681 L569.449 246.732 L566.208 249.813 L562.966 252.919 L559.725 256.05 L556.484 259.2 L553.242 262.367 L550.001 265.545 L546.759 268.732 L543.518 271.921 L540.277 275.108 L537.035 278.29 L533.794 281.469 L530.552 284.65 L527.311 287.838 L524.07 291.037 L520.828 294.25 L517.587 297.481 L514.346 300.734 L511.104 304.01 L507.863 307.313 L504.621 310.643 L501.38 314.004 L498.139 317.395 L494.897 320.817 L491.656 324.27 L488.414 327.755 L485.173 331.27 L481.932 334.814 L478.69 338.385 L475.449 341.983 L472.208 345.605 L468.966 349.248 L465.725 352.911 L462.483 356.593 L459.242 360.294 L456.001 364.015 L452.759 367.755 L449.518 371.512 L446.276 375.286 L443.035 379.074 L439.794 382.875 L436.552 386.684 L433.311 390.5 L430.069 394.317 L426.828 398.131 L423.587 401.935 L420.345 405.726 L417.104 409.494 L413.863 413.233 L410.621 416.935 L407.38 420.591 L404.138 424.191 L400.897 427.725 L397.656 431.181 L394.414 434.55 L391.173 437.818 L387.931 440.973 L384.69 444.002 L381.449 446.891 L378.207 449.627 L374.966 452.195 L371.725 454.582 L368.483 456.775 L365.242 458.773 L362 460.575 L358.759 462.182 L355.518 463.594 L352.276 464.811 L349.035 465.833 L345.793 466.662 L342.552 467.297 L339.311 467.738 L336.069 467.988 L332.828 468.057 L329.587 467.953 L326.345 467.687 L323.104 467.27 L319.862 466.71 L316.621 466.019 L313.38 465.204 L310.138 464.276 L306.897 463.242 L303.655 462.111 L300.414 460.89 L297.173 459.588 L293.931 458.21 L290.69 456.764 L287.449 455.256 L284.207 453.692 L280.966 452.077 L277.724 450.417 L274.483 448.716 L271.242 446.979 L268 445.211 L264.759 443.416 L261.517 441.597 L258.276 439.758 L255.035 437.902  Z" fill="#3da44d" fill-rule="evenodd" fill-opacity="0.1"/>
<polyline clip-path="url(#clip992)" style="stroke:#3da44d; stroke-linecap:round; stroke-linejoin:round; stroke-width:8; stroke-opacity:1; fill:none" points="255.035,714.929 258.276,713.268 261.517,711.575 264.759,709.848 268,708.088 271.242,706.293 274.483,704.464 277.724,702.598 280.966,700.696 284.207,698.757 287.449,696.78 290.69,694.764 293.931,692.709 297.173,690.614 300.414,688.478 303.655,686.301 306.897,684.081 310.138,681.817 313.38,679.51 316.621,677.157 319.862,674.759 323.104,672.314 326.345,669.821 329.587,667.28 332.828,664.689 336.069,662.048 339.311,659.356 342.552,656.61 345.793,653.812 349.035,650.958 352.276,648.048 355.518,645.08 358.759,642.053 362,638.965 365.242,635.816 368.483,632.603 371.725,629.325 374.966,625.981 378.207,622.575 381.449,619.11 384.69,615.589 387.931,612.016 391.173,608.395 394.414,604.729 397.656,601.021 400.897,597.276 404.138,593.497 407.38,589.687 410.621,585.85 413.863,581.989 417.104,578.108 420.345,574.211 423.587,570.301 426.828,566.381 430.069,562.456 433.311,558.529 436.552,554.603 439.794,550.682 443.035,546.769 446.276,542.87 449.518,538.986 452.759,535.123 456.001,531.283 459.242,527.471 462.483,523.69 465.725,519.944 468.966,516.238 472.208,512.575 475.449,508.953 478.69,505.372 481.932,501.829 485.173,498.325 488.414,494.857 491.656,491.423 494.897,488.024 498.139,484.657 501.38,481.323 504.621,478.018 507.863,474.743 511.104,471.497 514.346,468.279 517.587,465.087 520.828,461.921 524.07,458.78 527.311,455.664 530.552,452.571 533.794,449.502 537.035,446.455 540.277,443.43 543.518,440.426 546.759,437.445 550.001,434.487 553.242,431.554 556.484,428.646 559.725,425.764 562.966,422.91 566.208,420.085 569.449,417.29 572.69,414.527 575.932,411.796 579.173,409.1 582.415,406.439 585.656,403.816 588.897,401.232 592.139,398.688 595.38,396.186 598.622,393.729 601.863,391.317 605.104,388.953 608.346,386.639 611.587,384.377 614.828,382.169 618.07,380.016 621.311,377.923 624.553,375.889 627.794,373.918 631.035,372.011 634.277,370.166 637.518,368.385 640.76,366.668 644.001,365.015 647.242,363.426 650.484,361.902 653.725,360.444 656.966,359.053 660.208,357.728 663.449,356.471 666.691,355.284 669.932,354.166 673.173,353.118 676.415,352.143 679.656,351.242 682.898,350.415 686.139,349.663 689.38,348.99 692.622,348.396 695.863,347.882 699.104,347.451 702.346,347.105 705.587,346.845 708.829,346.673 712.07,346.592 715.311,346.602 718.553,346.702 721.794,346.888 725.036,347.157 728.277,347.505 731.518,347.93 734.76,348.428 738.001,348.996 741.242,349.633 744.484,350.334 747.725,351.097 750.967,351.92 754.208,352.8 757.449,353.735 760.691,354.722 763.932,355.759 767.174,356.843 770.415,357.974 773.656,359.147 776.898,360.363 780.139,361.617 783.381,362.909 786.622,364.237 789.863,365.599 793.105,366.993 796.346,368.418 799.587,369.871 802.829,371.352 806.07,372.859 809.312,374.39 812.553,375.945 815.794,377.521 819.036,379.117 822.277,380.733 825.519,382.367 828.76,384.017 832.001,385.683 835.243,387.364 838.484,389.059 841.725,390.767 844.967,392.486 848.208,394.217 851.45,395.957 854.691,397.707 857.932,399.466 861.174,401.232 864.415,403.006 867.657,404.787 870.898,406.573 874.139,408.366 877.381,410.163 880.622,411.965 883.863,413.771 887.105,415.581 890.346,417.395 893.588,419.211 896.829,421.031 900.07,422.853 903.312,424.677 906.553,426.504 909.795,428.333 913.036,430.164 916.277,431.997 919.519,433.832 922.76,435.669 926.001,437.507 929.243,439.348 932.484,441.191 935.726,443.036 938.967,444.884 942.208,446.734 945.45,448.588 948.691,450.444 951.933,452.304 955.174,454.168 958.415,456.036 961.657,457.909 964.898,459.786 968.139,461.67 971.381,463.559 974.622,465.455 977.864,467.358 981.105,469.268 984.346,471.187 987.588,473.116 990.829,475.054 994.071,477.002 997.312,478.962 1000.55,480.934 1003.79,482.919 1007.04,484.918 1010.28,486.932 1013.52,488.962 1016.76,491.008 1020,493.072 1023.24,495.156 1026.48,497.259 1029.73,499.383 1032.97,501.53 1036.21,503.701 1039.45,505.896 1042.69,508.118 1045.93,510.367 1049.17,512.646 1052.42,514.954 1055.66,517.295 1058.9,519.67 1062.14,522.079 1065.38,524.525 1068.62,527.01 1071.86,529.534 1075.11,532.101 1078.35,534.711 1081.59,537.367 1084.83,540.07 1088.07,542.823 1091.31,545.627 1094.55,548.485 1097.79,551.399 1101.04,554.371 1104.28,557.402 1107.52,560.497 1110.76,563.656 1114,566.882 1117.24,570.179 1120.48,573.547 1123.73,576.991 1126.97,580.511 1130.21,584.107 1133.45,587.775 1136.69,591.514 1139.93,595.322 1143.17,599.195 1146.42,603.133 1149.66,607.133 1152.9,611.193 1156.14,615.311 1159.38,619.485 1162.62,623.714 1165.86,627.996 1169.11,632.328 1172.35,636.71 1175.59,641.139 1178.83,645.614 1182.07,650.133 1185.31,654.696 1188.55,659.3 1191.8,663.943 1195.04,668.626 1198.28,673.345 1201.52,678.101 1204.76,682.89 1208,687.714 1211.24,692.569 1214.48,697.455 1217.73,702.37 1220.97,707.314 1224.21,712.285 1227.45,717.283 1230.69,722.305 1233.93,727.352 1237.17,732.421 1240.42,737.513 1243.66,742.625 1246.9,747.758 1250.14,752.909 1253.38,758.079 1256.62,763.265 1259.86,768.468 1263.11,773.686 1266.35,778.919 1269.59,784.165 1272.83,789.424 1276.07,794.694 1279.31,799.975 1282.55,805.267 1285.8,810.567 1289.04,815.876 1292.28,821.192 1295.52,826.515 1298.76,831.844 1302,837.178 1305.24,842.516 1308.48,847.857 1311.73,853.201 1314.97,858.547 1318.21,863.893 1321.45,869.239 1324.69,874.584 1327.93,879.928 1331.17,885.269 1334.42,890.606 1337.66,895.939 1340.9,901.266 1344.14,906.588 1347.38,911.902 1350.62,917.208 1353.86,922.506 1357.11,927.793 1360.35,933.069 1363.59,938.333 1366.83,943.584 1370.07,948.821 1373.31,954.043 1376.55,959.249 1379.8,964.437 1383.04,969.607 1386.28,974.757 1389.52,979.887 1392.76,984.994 1396,990.078 1399.24,995.138 1402.49,1000.17 1405.73,1005.18 1408.97,1010.16 1412.21,1015.1 1415.45,1020.02 1418.69,1024.9 1421.93,1029.75 1425.17,1034.57 1428.42,1039.34 1431.66,1044.08 1434.9,1048.77 1438.14,1053.42 1441.38,1058.03 1444.62,1062.59 1447.86,1067.1 1451.11,1071.57 1454.35,1075.98 1457.59,1080.33 1460.83,1084.63 1464.07,1088.87 1467.31,1093.05 1470.55,1097.17 1473.8,1101.22 1477.04,1105.2 1480.28,1109.12 1483.52,1112.95 1486.76,1116.72 1490,1120.4 1493.24,1124.01 1496.49,1127.53 1499.73,1130.97 1502.97,1134.34 1506.21,1137.61 1509.45,1140.81 1512.69,1143.93 1515.93,1146.96 1519.18,1149.91 1522.42,1152.79 1525.66,1155.6 1528.9,1158.33 1532.14,1161.01 1535.38,1163.63 1538.62,1166.19 1541.86,1168.7 1545.11,1171.17 1548.35,1173.59 1551.59,1175.97 1554.83,1178.32 1558.07,1180.64 1561.31,1182.92 1564.55,1185.19 1567.8,1187.43 1571.04,1189.65 1574.28,1191.86 1577.52,1194.06 1580.76,1196.25 1584,1198.44 1587.24,1200.62 1590.49,1202.8 1593.73,1204.98 1596.97,1207.16 1600.21,1209.35 1603.45,1211.54 1606.69,1213.74 1609.93,1215.94 1613.18,1218.14 1616.42,1220.35 1619.66,1222.56 1622.9,1224.77 1626.14,1226.98 1629.38,1229.2 1632.62,1231.41 1635.86,1233.61 1639.11,1235.82 1642.35,1238.02 1645.59,1240.21 1648.83,1242.4 1652.07,1244.58 1655.31,1246.76 1658.55,1248.92 1661.8,1251.07 1665.04,1253.21 1668.28,1255.33 1671.52,1257.44 1674.76,1259.53 1678,1261.6 1681.24,1263.65 1684.49,1265.68 1687.73,1267.69 1690.97,1269.67 1694.21,1271.62 1697.45,1273.55 1700.69,1275.44 1703.93,1277.3 1707.18,1279.13 1710.42,1280.92 1713.66,1282.67 1716.9,1284.37 1720.14,1286.04 1723.38,1287.65 1726.62,1289.22 1729.87,1290.74 1733.11,1292.2 1736.35,1293.61 1739.59,1294.95 1742.83,1296.24 1746.07,1297.45 1749.31,1298.6 1752.55,1299.68 1755.8,1300.68 1759.04,1301.61 1762.28,1302.45 1765.52,1303.21 1768.76,1303.87 1772,1304.45 1775.24,1304.93 1778.49,1305.3 1781.73,1305.58 1784.97,1305.76 1788.21,1305.83 1791.45,1305.8 1794.69,1305.67 1797.93,1305.44 1801.18,1305.11 1804.42,1304.67 1807.66,1304.13 1810.9,1303.48 1814.14,1302.72 1817.38,1301.86 1820.62,1300.89 1823.87,1299.82 1827.11,1298.63 1830.35,1297.34 1833.59,1295.94 1836.83,1294.43 1840.07,1292.8 1843.31,1291.07 1846.55,1289.23 1849.8,1287.27 1853.04,1285.2 1856.28,1283.01 1859.52,1280.72 1862.76,1278.32 1866,1275.81 1869.24,1273.2 1872.49,1270.49 1875.73,1267.68 1878.97,1264.79 1882.21,1261.8 1885.45,1258.73 1888.69,1255.58 1891.93,1252.36 1895.18,1249.06 1898.42,1245.69 1901.66,1242.26 1904.9,1238.76 1908.14,1235.2 1911.38,1231.59 1914.62,1227.92 1917.87,1224.2 1921.11,1220.43 1924.35,1216.62 1927.59,1212.76 1930.83,1208.87 1934.07,1204.93 1937.31,1200.96 1940.56,1196.96 1943.8,1192.93 1947.04,1188.88 1950.28,1184.79 1953.52,1180.68 1956.76,1176.56 1960,1172.41 1963.24,1168.25 1966.49,1164.07 1969.73,1159.88 1972.97,1155.68 1976.21,1151.47 1979.45,1147.26 1982.69,1143.04 1985.93,1138.82 1989.18,1134.59 1992.42,1130.37 1995.66,1126.15 1998.9,1121.93 2002.14,1117.72 2005.38,1113.52 2008.62,1109.33 2011.87,1105.15 2015.11,1100.97 2018.35,1096.81 2021.59,1092.67 2024.83,1088.53 2028.07,1084.41 2031.31,1080.3 2034.56,1076.21 2037.8,1072.14 2041.04,1068.08 2044.28,1064.04 2047.52,1060.01 2050.76,1056.01 2054,1052.02 2057.24,1048.05 2060.49,1044.11 2063.73,1040.18 2066.97,1036.27 2070.21,1032.39 2073.45,1028.52 2076.69,1024.68 2079.93,1020.87 2083.18,1017.07 2086.42,1013.3 2089.66,1009.56 2092.9,1005.84 2096.14,1002.14 2099.38,998.476 2102.62,994.833 2105.87,991.218 2109.11,987.63 2112.35,984.07 2115.59,980.538 2118.83,977.035 2122.07,973.561 2125.31,970.117 2128.56,966.703 2131.8,963.319 2135.04,959.967 2138.28,956.646 2141.52,953.357 2144.76,950.1 2148,946.877 2151.25,943.687 2154.49,940.531 2157.73,937.41 2160.97,934.323 2164.21,931.272 2167.45,928.258 2170.69,925.28 2173.93,922.339 2177.18,919.436 2180.42,916.571 2183.66,913.745 2186.9,910.959 2190.14,908.213 2193.38,905.508 2196.62,902.844 2199.87,900.223 2203.11,897.644 2206.35,895.109 2209.59,892.618 2212.83,890.171 2216.07,887.771 2219.31,885.417 2222.56,883.11 2225.8,880.851 2229.04,878.641 2232.28,876.481 2235.52,874.371 2238.76,872.311 2242,870.299 2245.25,868.334 2248.49,866.416 2251.73,864.543 2254.97,862.715 2258.21,860.929 2261.45,859.186 2264.69,857.485 2267.94,855.824 2271.18,854.203 2274.42,852.621 2277.66,851.076 2280.9,849.569 2284.14,848.098 2287.38,846.663 2290.62,845.262 "/>
<polyline clip-path="url(#clip992)" style="stroke:#c271d2; stroke-linecap:round; stroke-linejoin:round; stroke-width:12; stroke-opacity:1; fill:none" points="255.035,901.782 362.225,759.005 469.416,628.358 576.607,526.702 683.797,481.756 790.988,548.338 898.179,638.889 1005.37,688.911 1112.56,736.408 1219.75,894.493 1326.94,1071.23 1434.13,1189.61 1541.32,1260.74 1648.51,1353.14 1755.7,1398.19 1862.89,1368.11 1970.09,1282.94 2077.28,1180.11 2184.47,1075.88 2291.66,1036 "/>
<polyline clip-path="url(#clip992)" style="stroke:#ac8d18; stroke-linecap:round; stroke-linejoin:round; stroke-width:12; stroke-opacity:1; fill:none" points="255.035,528.077 362.225,518.492 469.416,403.096 576.607,295.762 683.797,218.641 790.988,183.821 898.179,204.689 1005.37,278.866 1112.56,394.469 1219.75,516.416 1326.94,685.352 1434.13,905.714 1541.32,1075.84 1648.51,1131.24 1755.7,1203.12 1862.89,1188.33 1970.09,1035.89 2077.28,867.88 2184.47,750.22 2291.66,653.644 "/>
<path clip-path="url(#clip990)" d="M1953.46 406.258 L2280.8 406.258 L2280.8 95.2176 L1953.46 95.2176  Z" fill="#ffffff" fill-rule="evenodd" fill-opacity="1"/>
<polyline clip-path="url(#clip990)" style="stroke:#000000; stroke-linecap:round; stroke-linejoin:round; stroke-width:4; stroke-opacity:1; fill:none" points="1953.46,406.258 2280.8,406.258 2280.8,95.2176 1953.46,95.2176 1953.46,406.258 "/>
<polyline clip-path="url(#clip990)" style="stroke:#009af9; stroke-linecap:round; stroke-linejoin:round; stroke-width:4; stroke-opacity:1; fill:none" points="1977.44,147.058 2121.36,147.058 "/>
<path clip-path="url(#clip990)" d="M2152.76 131.051 L2152.76 138.412 L2161.53 138.412 L2161.53 141.722 L2152.76 141.722 L2152.76 155.796 Q2152.76 158.967 2153.61 159.87 Q2154.49 160.773 2157.16 160.773 L2161.53 160.773 L2161.53 164.338 L2157.16 164.338 Q2152.23 164.338 2150.35 162.509 Q2148.48 160.657 2148.48 155.796 L2148.48 141.722 L2145.35 141.722 L2145.35 138.412 L2148.48 138.412 L2148.48 131.051 L2152.76 131.051 Z" fill="#000000" fill-rule="nonzero" fill-opacity="1" /><path clip-path="url(#clip990)" d="M2182.16 142.393 Q2181.44 141.977 2180.58 141.791 Q2179.75 141.583 2178.73 141.583 Q2175.12 141.583 2173.17 143.944 Q2171.25 146.282 2171.25 150.68 L2171.25 164.338 L2166.97 164.338 L2166.97 138.412 L2171.25 138.412 L2171.25 142.44 Q2172.6 140.078 2174.75 138.944 Q2176.9 137.787 2179.98 137.787 Q2180.42 137.787 2180.95 137.856 Q2181.48 137.903 2182.13 138.018 L2182.16 142.393 Z" fill="#000000" fill-rule="nonzero" fill-opacity="1" /><path clip-path="url(#clip990)" d="M2186.18 154.106 L2186.18 138.412 L2190.44 138.412 L2190.44 153.944 Q2190.44 157.625 2191.88 159.476 Q2193.31 161.305 2196.18 161.305 Q2199.63 161.305 2201.62 159.106 Q2203.64 156.907 2203.64 153.111 L2203.64 138.412 L2207.9 138.412 L2207.9 164.338 L2203.64 164.338 L2203.64 160.356 Q2202.09 162.717 2200.03 163.875 Q2197.99 165.009 2195.28 165.009 Q2190.81 165.009 2188.5 162.231 Q2186.18 159.453 2186.18 154.106 M2196.9 137.787 L2196.9 137.787 Z" fill="#000000" fill-rule="nonzero" fill-opacity="1" /><path clip-path="url(#clip990)" d="M2220.88 131.051 L2220.88 138.412 L2229.66 138.412 L2229.66 141.722 L2220.88 141.722 L2220.88 155.796 Q2220.88 158.967 2221.74 159.87 Q2222.62 160.773 2225.28 160.773 L2229.66 160.773 L2229.66 164.338 L2225.28 164.338 Q2220.35 164.338 2218.48 162.509 Q2216.6 160.657 2216.6 155.796 L2216.6 141.722 L2213.48 141.722 L2213.48 138.412 L2216.6 138.412 L2216.6 131.051 L2220.88 131.051 Z" fill="#000000" fill-rule="nonzero" fill-opacity="1" /><path clip-path="url(#clip990)" d="M2256.81 148.689 L2256.81 164.338 L2252.55 164.338 L2252.55 148.828 Q2252.55 145.148 2251.11 143.319 Q2249.68 141.49 2246.81 141.49 Q2243.36 141.49 2241.37 143.69 Q2239.38 145.889 2239.38 149.685 L2239.38 164.338 L2235.1 164.338 L2235.1 128.319 L2239.38 128.319 L2239.38 142.44 Q2240.91 140.102 2242.97 138.944 Q2245.05 137.787 2247.76 137.787 Q2252.23 137.787 2254.52 140.565 Q2256.81 143.319 2256.81 148.689 Z" fill="#000000" fill-rule="nonzero" fill-opacity="1" /><circle clip-path="url(#clip990)" cx="2049.4" cy="198.898" r="20.48" fill="#e26f46" fill-rule="evenodd" fill-opacity="1" stroke="#000000" stroke-opacity="1" stroke-width="4.55111"/>
<path clip-path="url(#clip990)" d="M2164.26 194.187 L2164.26 180.159 L2168.52 180.159 L2168.52 216.178 L2164.26 216.178 L2164.26 212.289 Q2162.92 214.603 2160.86 215.738 Q2158.82 216.849 2155.95 216.849 Q2151.25 216.849 2148.29 213.099 Q2145.35 209.349 2145.35 203.238 Q2145.35 197.127 2148.29 193.377 Q2151.25 189.627 2155.95 189.627 Q2158.82 189.627 2160.86 190.761 Q2162.92 191.872 2164.26 194.187 M2149.75 203.238 Q2149.75 207.937 2151.67 210.622 Q2153.61 213.284 2156.99 213.284 Q2160.37 213.284 2162.32 210.622 Q2164.26 207.937 2164.26 203.238 Q2164.26 198.539 2162.32 195.877 Q2160.37 193.192 2156.99 193.192 Q2153.61 193.192 2151.67 195.877 Q2149.75 198.539 2149.75 203.238 Z" fill="#000000" fill-rule="nonzero" fill-opacity="1" /><path clip-path="url(#clip990)" d="M2189.08 203.145 Q2183.92 203.145 2181.92 204.326 Q2179.93 205.506 2179.93 208.354 Q2179.93 210.622 2181.42 211.965 Q2182.92 213.284 2185.49 213.284 Q2189.03 213.284 2191.16 210.784 Q2193.31 208.261 2193.31 204.094 L2193.31 203.145 L2189.08 203.145 M2197.57 201.386 L2197.57 216.178 L2193.31 216.178 L2193.31 212.242 Q2191.85 214.603 2189.68 215.738 Q2187.5 216.849 2184.36 216.849 Q2180.37 216.849 2178.01 214.627 Q2175.67 212.381 2175.67 208.631 Q2175.67 204.256 2178.59 202.034 Q2181.53 199.812 2187.34 199.812 L2193.31 199.812 L2193.31 199.395 Q2193.31 196.455 2191.37 194.858 Q2189.45 193.238 2185.95 193.238 Q2183.73 193.238 2181.62 193.77 Q2179.52 194.303 2177.57 195.367 L2177.57 191.432 Q2179.91 190.53 2182.11 190.09 Q2184.31 189.627 2186.39 189.627 Q2192.02 189.627 2194.79 192.543 Q2197.57 195.46 2197.57 201.386 Z" fill="#000000" fill-rule="nonzero" fill-opacity="1" /><path clip-path="url(#clip990)" d="M2210.56 182.891 L2210.56 190.252 L2219.33 190.252 L2219.33 193.562 L2210.56 193.562 L2210.56 207.636 Q2210.56 210.807 2211.42 211.71 Q2212.29 212.613 2214.96 212.613 L2219.33 212.613 L2219.33 216.178 L2214.96 216.178 Q2210.03 216.178 2208.15 214.349 Q2206.28 212.497 2206.28 207.636 L2206.28 193.562 L2203.15 193.562 L2203.15 190.252 L2206.28 190.252 L2206.28 182.891 L2210.56 182.891 Z" fill="#000000" fill-rule="nonzero" fill-opacity="1" /><path clip-path="url(#clip990)" d="M2236.72 203.145 Q2231.55 203.145 2229.56 204.326 Q2227.57 205.506 2227.57 208.354 Q2227.57 210.622 2229.05 211.965 Q2230.56 213.284 2233.13 213.284 Q2236.67 213.284 2238.8 210.784 Q2240.95 208.261 2240.95 204.094 L2240.95 203.145 L2236.72 203.145 M2245.21 201.386 L2245.21 216.178 L2240.95 216.178 L2240.95 212.242 Q2239.49 214.603 2237.32 215.738 Q2235.14 216.849 2231.99 216.849 Q2228.01 216.849 2225.65 214.627 Q2223.31 212.381 2223.31 208.631 Q2223.31 204.256 2226.23 202.034 Q2229.17 199.812 2234.98 199.812 L2240.95 199.812 L2240.95 199.395 Q2240.95 196.455 2239.01 194.858 Q2237.09 193.238 2233.59 193.238 Q2231.37 193.238 2229.26 193.77 Q2227.16 194.303 2225.21 195.367 L2225.21 191.432 Q2227.55 190.53 2229.75 190.09 Q2231.95 189.627 2234.03 189.627 Q2239.66 189.627 2242.43 192.543 Q2245.21 195.46 2245.21 201.386 Z" fill="#000000" fill-rule="nonzero" fill-opacity="1" /><polyline clip-path="url(#clip990)" style="stroke:#3da44d; stroke-linecap:round; stroke-linejoin:round; stroke-width:8; stroke-opacity:1; fill:none" points="1977.44,250.738 2121.36,250.738 "/>
<path clip-path="url(#clip990)" d="M2170.91 263.087 L2170.91 253.805 L2163.27 253.805 L2163.27 249.962 L2175.54 249.962 L2175.54 264.8 Q2172.83 266.721 2169.56 267.717 Q2166.3 268.689 2162.6 268.689 Q2154.49 268.689 2149.91 263.967 Q2145.35 259.221 2145.35 250.772 Q2145.35 242.3 2149.91 237.578 Q2154.49 232.833 2162.6 232.833 Q2165.98 232.833 2169.01 233.666 Q2172.06 234.499 2174.63 236.12 L2174.63 241.096 Q2172.04 238.897 2169.12 237.786 Q2166.21 236.675 2162.99 236.675 Q2156.65 236.675 2153.45 240.217 Q2150.28 243.758 2150.28 250.772 Q2150.28 257.763 2153.45 261.305 Q2156.65 264.846 2162.99 264.846 Q2165.47 264.846 2167.41 264.43 Q2169.36 263.99 2170.91 263.087 Z" fill="#000000" fill-rule="nonzero" fill-opacity="1" /><path clip-path="url(#clip990)" d="M2188.75 237.3 L2188.75 250.286 L2194.63 250.286 Q2197.9 250.286 2199.68 248.596 Q2201.46 246.907 2201.46 243.782 Q2201.46 240.68 2199.68 238.99 Q2197.9 237.3 2194.63 237.3 L2188.75 237.3 M2184.08 233.458 L2194.63 233.458 Q2200.44 233.458 2203.41 236.096 Q2206.39 238.712 2206.39 243.782 Q2206.39 248.897 2203.41 251.513 Q2200.44 254.129 2194.63 254.129 L2188.75 254.129 L2188.75 268.018 L2184.08 268.018 L2184.08 233.458 Z" fill="#000000" fill-rule="nonzero" fill-opacity="1" /><polyline clip-path="url(#clip990)" style="stroke:#c271d2; stroke-linecap:round; stroke-linejoin:round; stroke-width:12; stroke-opacity:1; fill:none" points="1977.44,302.578 2121.36,302.578 "/>
<path clip-path="url(#clip990)" d="M2150.03 289.14 L2150.03 302.126 L2155.91 302.126 Q2159.17 302.126 2160.95 300.436 Q2162.73 298.747 2162.73 295.622 Q2162.73 292.52 2160.95 290.83 Q2159.17 289.14 2155.91 289.14 L2150.03 289.14 M2145.35 285.298 L2155.91 285.298 Q2161.72 285.298 2164.68 287.936 Q2167.67 290.552 2167.67 295.622 Q2167.67 300.737 2164.68 303.353 Q2161.72 305.969 2155.91 305.969 L2150.03 305.969 L2150.03 319.858 L2145.35 319.858 L2145.35 285.298 Z" fill="#000000" fill-rule="nonzero" fill-opacity="1" /><path clip-path="url(#clip990)" d="M2178.38 315.922 L2194.7 315.922 L2194.7 319.858 L2172.76 319.858 L2172.76 315.922 Q2175.42 313.168 2180 308.538 Q2184.61 303.885 2185.79 302.543 Q2188.04 300.02 2188.92 298.284 Q2189.82 296.524 2189.82 294.835 Q2189.82 292.08 2187.87 290.344 Q2185.95 288.608 2182.85 288.608 Q2180.65 288.608 2178.2 289.372 Q2175.77 290.135 2172.99 291.686 L2172.99 286.964 Q2175.81 285.83 2178.27 285.251 Q2180.72 284.673 2182.76 284.673 Q2188.13 284.673 2191.32 287.358 Q2194.52 290.043 2194.52 294.534 Q2194.52 296.663 2193.71 298.585 Q2192.92 300.483 2190.81 303.075 Q2190.23 303.747 2187.13 306.964 Q2184.03 310.159 2178.38 315.922 Z" fill="#000000" fill-rule="nonzero" fill-opacity="1" /><path clip-path="url(#clip990)" d="M2204.56 285.298 L2222.92 285.298 L2222.92 289.233 L2208.85 289.233 L2208.85 297.705 Q2209.86 297.358 2210.88 297.196 Q2211.9 297.01 2212.92 297.01 Q2218.71 297.01 2222.09 300.182 Q2225.47 303.353 2225.47 308.77 Q2225.47 314.348 2221.99 317.45 Q2218.52 320.529 2212.2 320.529 Q2210.03 320.529 2207.76 320.158 Q2205.51 319.788 2203.1 319.047 L2203.1 314.348 Q2205.19 315.483 2207.41 316.038 Q2209.63 316.594 2212.11 316.594 Q2216.11 316.594 2218.45 314.487 Q2220.79 312.381 2220.79 308.77 Q2220.79 305.159 2218.45 303.052 Q2216.11 300.946 2212.11 300.946 Q2210.23 300.946 2208.36 301.362 Q2206.51 301.779 2204.56 302.659 L2204.56 285.298 Z" fill="#000000" fill-rule="nonzero" fill-opacity="1" /><polyline clip-path="url(#clip990)" style="stroke:#ac8d18; stroke-linecap:round; stroke-linejoin:round; stroke-width:12; stroke-opacity:1; fill:none" points="1977.44,354.418 2121.36,354.418 "/>
<path clip-path="url(#clip990)" d="M2150.03 340.98 L2150.03 353.966 L2155.91 353.966 Q2159.17 353.966 2160.95 352.276 Q2162.73 350.587 2162.73 347.462 Q2162.73 344.36 2160.95 342.67 Q2159.17 340.98 2155.91 340.98 L2150.03 340.98 M2145.35 337.138 L2155.91 337.138 Q2161.72 337.138 2164.68 339.776 Q2167.67 342.392 2167.67 347.462 Q2167.67 352.577 2164.68 355.193 Q2161.72 357.809 2155.91 357.809 L2150.03 357.809 L2150.03 371.698 L2145.35 371.698 L2145.35 337.138 Z" fill="#000000" fill-rule="nonzero" fill-opacity="1" /><path clip-path="url(#clip990)" d="M2173.17 337.138 L2195.4 337.138 L2195.4 339.128 L2182.85 371.698 L2177.97 371.698 L2189.77 341.073 L2173.17 341.073 L2173.17 337.138 Z" fill="#000000" fill-rule="nonzero" fill-opacity="1" /><path clip-path="url(#clip990)" d="M2204.56 337.138 L2222.92 337.138 L2222.92 341.073 L2208.85 341.073 L2208.85 349.545 Q2209.86 349.198 2210.88 349.036 Q2211.9 348.85 2212.92 348.85 Q2218.71 348.85 2222.09 352.022 Q2225.47 355.193 2225.47 360.61 Q2225.47 366.188 2221.99 369.29 Q2218.52 372.369 2212.2 372.369 Q2210.03 372.369 2207.76 371.998 Q2205.51 371.628 2203.1 370.887 L2203.1 366.188 Q2205.19 367.323 2207.41 367.878 Q2209.63 368.434 2212.11 368.434 Q2216.11 368.434 2218.45 366.327 Q2220.79 364.221 2220.79 360.61 Q2220.79 356.999 2218.45 354.892 Q2216.11 352.786 2212.11 352.786 Q2210.23 352.786 2208.36 353.202 Q2206.51 353.619 2204.56 354.499 L2204.56 337.138 Z" fill="#000000" fill-rule="nonzero" fill-opacity="1" /></svg>
