<?xml version="1.0" encoding="utf-8"?>
<svg xmlns="http://www.w3.org/2000/svg" xmlns:xlink="http://www.w3.org/1999/xlink" width="600" height="400" viewBox="0 0 2400 1600">
<defs>
  <clipPath id="clip400">
    <rect x="0" y="0" width="2400" height="1600"/>
  </clipPath>
</defs>
<path clip-path="url(#clip400)" d="M0 1600 L2400 1600 L2400 0 L0 0  Z" fill="#ffffff" fill-rule="evenodd" fill-opacity="1"/>
<defs>
  <clipPath id="clip401">
    <rect x="193" y="47" width="2160" height="1440"/>
  </clipPath>
</defs>
<path clip-path="url(#clip400)" d="M193.936 1486.45 L2352.76 1486.45 L2352.76 47.2441 L193.936 47.2441  Z" fill="#ffffff" fill-rule="evenodd" fill-opacity="1"/>
<polyline clip-path="url(#clip401)" style="stroke:#000000; stroke-linecap:round; stroke-linejoin:round; stroke-width:2; stroke-opacity:0.1; fill:none" points="255.035,1486.45 255.035,47.2441 "/>
<polyline clip-path="url(#clip401)" style="stroke:#000000; stroke-linecap:round; stroke-linejoin:round; stroke-width:2; stroke-opacity:0.1; fill:none" points="579.338,1486.45 579.338,47.2441 "/>
<polyline clip-path="url(#clip401)" style="stroke:#000000; stroke-linecap:round; stroke-linejoin:round; stroke-width:2; stroke-opacity:0.1; fill:none" points="903.641,1486.45 903.641,47.2441 "/>
<polyline clip-path="url(#clip401)" style="stroke:#000000; stroke-linecap:round; stroke-linejoin:round; stroke-width:2; stroke-opacity:0.1; fill:none" points="1227.94,1486.45 1227.94,47.2441 "/>
<polyline clip-path="url(#clip401)" style="stroke:#000000; stroke-linecap:round; stroke-linejoin:round; stroke-width:2; stroke-opacity:0.1; fill:none" points="1552.25,1486.45 1552.25,47.2441 "/>
<polyline clip-path="url(#clip401)" style="stroke:#000000; stroke-linecap:round; stroke-linejoin:round; stroke-width:2; stroke-opacity:0.1; fill:none" points="1876.55,1486.45 1876.55,47.2441 "/>
<polyline clip-path="url(#clip401)" style="stroke:#000000; stroke-linecap:round; stroke-linejoin:round; stroke-width:2; stroke-opacity:0.1; fill:none" points="2200.85,1486.45 2200.85,47.2441 "/>
<polyline clip-path="url(#clip401)" style="stroke:#000000; stroke-linecap:round; stroke-linejoin:round; stroke-width:2; stroke-opacity:0.1; fill:none" points="193.936,1374.63 2352.76,1374.63 "/>
<polyline clip-path="url(#clip401)" style="stroke:#000000; stroke-linecap:round; stroke-linejoin:round; stroke-width:2; stroke-opacity:0.1; fill:none" points="193.936,1062.83 2352.76,1062.83 "/>
<polyline clip-path="url(#clip401)" style="stroke:#000000; stroke-linecap:round; stroke-linejoin:round; stroke-width:2; stroke-opacity:0.1; fill:none" points="193.936,751.033 2352.76,751.033 "/>
<polyline clip-path="url(#clip401)" style="stroke:#000000; stroke-linecap:round; stroke-linejoin:round; stroke-width:2; stroke-opacity:0.1; fill:none" points="193.936,439.237 2352.76,439.237 "/>
<polyline clip-path="url(#clip401)" style="stroke:#000000; stroke-linecap:round; stroke-linejoin:round; stroke-width:2; stroke-opacity:0.1; fill:none" points="193.936,127.442 2352.76,127.442 "/>
<polyline clip-path="url(#clip400)" style="stroke:#000000; stroke-linecap:round; stroke-linejoin:round; stroke-width:4; stroke-opacity:1; fill:none" points="193.936,1486.45 2352.76,1486.45 "/>
<polyline clip-path="url(#clip400)" style="stroke:#000000; stroke-linecap:round; stroke-linejoin:round; stroke-width:4; stroke-opacity:1; fill:none" points="255.035,1486.45 255.035,1467.55 "/>
<polyline clip-path="url(#clip400)" style="stroke:#000000; stroke-linecap:round; stroke-linejoin:round; stroke-width:4; stroke-opacity:1; fill:none" points="579.338,1486.45 579.338,1467.55 "/>
<polyline clip-path="url(#clip400)" style="stroke:#000000; stroke-linecap:round; stroke-linejoin:round; stroke-width:4; stroke-opacity:1; fill:none" points="903.641,1486.45 903.641,1467.55 "/>
<polyline clip-path="url(#clip400)" style="stroke:#000000; stroke-linecap:round; stroke-linejoin:round; stroke-width:4; stroke-opacity:1; fill:none" points="1227.94,1486.45 1227.94,1467.55 "/>
<polyline clip-path="url(#clip400)" style="stroke:#000000; stroke-linecap:round; stroke-linejoin:round; stroke-width:4; stroke-opacity:1; fill:none" points="1552.25,1486.45 1552.25,1467.55 "/>
<polyline clip-path="url(#clip400)" style="stroke:#000000; stroke-linecap:round; stroke-linejoin:round; stroke-width:4; stroke-opacity:1; fill:none" points="1876.55,1486.45 1876.55,1467.55 "/>
<polyline clip-path="url(#clip400)" style="stroke:#000000; stroke-linecap:round; stroke-linejoin:round; stroke-width:4; stroke-opacity:1; fill:none" points="2200.85,1486.45 2200.85,1467.55 "/>
<path clip-path="url(#clip400)" d="M255.035 1517.37 Q251.424 1517.37 249.595 1520.93 Q247.789 1524.47 247.789 1531.6 Q247.789 1538.71 249.595 1542.27 Q251.424 1545.82 255.035 1545.82 Q258.669 1545.82 260.474 1542.27 Q262.303 1538.71 262.303 1531.6 Q262.303 1524.47 260.474 1520.93 Q258.669 1517.37 255.035 1517.37 M255.035 1513.66 Q260.845 1513.66 263.9 1518.27 Q266.979 1522.85 266.979 1531.6 Q266.979 1540.33 263.9 1544.94 Q260.845 1549.52 255.035 1549.52 Q249.225 1549.52 246.146 1544.94 Q243.09 1540.33 243.09 1531.6 Q243.09 1522.85 246.146 1518.27 Q249.225 1513.66 255.035 1513.66 Z" fill="#000000" fill-rule="nonzero" fill-opacity="1" /><path clip-path="url(#clip400)" d="M569.72 1544.91 L577.358 1544.91 L577.358 1518.55 L569.048 1520.21 L569.048 1515.95 L577.312 1514.29 L581.988 1514.29 L581.988 1544.91 L589.627 1544.91 L589.627 1548.85 L569.72 1548.85 L569.72 1544.91 Z" fill="#000000" fill-rule="nonzero" fill-opacity="1" /><path clip-path="url(#clip400)" d="M898.293 1544.91 L914.613 1544.91 L914.613 1548.85 L892.668 1548.85 L892.668 1544.91 Q895.33 1542.16 899.914 1537.53 Q904.52 1532.88 905.701 1531.53 Q907.946 1529.01 908.826 1527.27 Q909.729 1525.51 909.729 1523.82 Q909.729 1521.07 907.784 1519.33 Q905.863 1517.6 902.761 1517.6 Q900.562 1517.6 898.108 1518.36 Q895.678 1519.13 892.9 1520.68 L892.9 1515.95 Q895.724 1514.82 898.178 1514.24 Q900.631 1513.66 902.668 1513.66 Q908.039 1513.66 911.233 1516.35 Q914.428 1519.03 914.428 1523.52 Q914.428 1525.65 913.617 1527.57 Q912.83 1529.47 910.724 1532.07 Q910.145 1532.74 907.043 1535.95 Q903.942 1539.15 898.293 1544.91 Z" fill="#000000" fill-rule="nonzero" fill-opacity="1" /><path clip-path="url(#clip400)" d="M1232.19 1530.21 Q1235.55 1530.93 1237.42 1533.2 Q1239.32 1535.47 1239.32 1538.8 Q1239.32 1543.92 1235.8 1546.72 Q1232.28 1549.52 1225.8 1549.52 Q1223.63 1549.52 1221.31 1549.08 Q1219.02 1548.66 1216.57 1547.81 L1216.57 1543.29 Q1218.51 1544.43 1220.83 1545.01 Q1223.14 1545.58 1225.66 1545.58 Q1230.06 1545.58 1232.35 1543.85 Q1234.67 1542.11 1234.67 1538.8 Q1234.67 1535.75 1232.52 1534.03 Q1230.39 1532.3 1226.57 1532.3 L1222.54 1532.3 L1222.54 1528.45 L1226.75 1528.45 Q1230.2 1528.45 1232.03 1527.09 Q1233.86 1525.7 1233.86 1523.11 Q1233.86 1520.45 1231.96 1519.03 Q1230.08 1517.6 1226.57 1517.6 Q1224.64 1517.6 1222.45 1518.01 Q1220.25 1518.43 1217.61 1519.31 L1217.61 1515.14 Q1220.27 1514.4 1222.58 1514.03 Q1224.92 1513.66 1226.98 1513.66 Q1232.31 1513.66 1235.41 1516.09 Q1238.51 1518.5 1238.51 1522.62 Q1238.51 1525.49 1236.87 1527.48 Q1235.22 1529.45 1232.19 1530.21 Z" fill="#000000" fill-rule="nonzero" fill-opacity="1" /><path clip-path="url(#clip400)" d="M1555.26 1518.36 L1543.45 1536.81 L1555.26 1536.81 L1555.26 1518.36 M1554.03 1514.29 L1559.91 1514.29 L1559.91 1536.81 L1564.84 1536.81 L1564.84 1540.7 L1559.91 1540.7 L1559.91 1548.85 L1555.26 1548.85 L1555.26 1540.7 L1539.65 1540.7 L1539.65 1536.19 L1554.03 1514.29 Z" fill="#000000" fill-rule="nonzero" fill-opacity="1" /><path clip-path="url(#clip400)" d="M1866.83 1514.29 L1885.18 1514.29 L1885.18 1518.22 L1871.11 1518.22 L1871.11 1526.7 Q1872.13 1526.35 1873.15 1526.19 Q1874.17 1526 1875.18 1526 Q1880.97 1526 1884.35 1529.17 Q1887.73 1532.34 1887.73 1537.76 Q1887.73 1543.34 1884.26 1546.44 Q1880.79 1549.52 1874.47 1549.52 Q1872.29 1549.52 1870.02 1549.15 Q1867.78 1548.78 1865.37 1548.04 L1865.37 1543.34 Q1867.45 1544.47 1869.67 1545.03 Q1871.9 1545.58 1874.37 1545.58 Q1878.38 1545.58 1880.72 1543.48 Q1883.05 1541.37 1883.05 1537.76 Q1883.05 1534.15 1880.72 1532.04 Q1878.38 1529.94 1874.37 1529.94 Q1872.5 1529.94 1870.62 1530.35 Q1868.77 1530.77 1866.83 1531.65 L1866.83 1514.29 Z" fill="#000000" fill-rule="nonzero" fill-opacity="1" /><path clip-path="url(#clip400)" d="M2201.26 1529.7 Q2198.11 1529.7 2196.26 1531.86 Q2194.43 1534.01 2194.43 1537.76 Q2194.43 1541.49 2196.26 1543.66 Q2198.11 1545.82 2201.26 1545.82 Q2204.41 1545.82 2206.23 1543.66 Q2208.09 1541.49 2208.09 1537.76 Q2208.09 1534.01 2206.23 1531.86 Q2204.41 1529.7 2201.26 1529.7 M2210.54 1515.05 L2210.54 1519.31 Q2208.78 1518.48 2206.98 1518.04 Q2205.19 1517.6 2203.43 1517.6 Q2198.8 1517.6 2196.35 1520.72 Q2193.92 1523.85 2193.57 1530.17 Q2194.94 1528.15 2197 1527.09 Q2199.06 1526 2201.54 1526 Q2206.74 1526 2209.75 1529.17 Q2212.79 1532.32 2212.79 1537.76 Q2212.79 1543.08 2209.64 1546.3 Q2206.49 1549.52 2201.26 1549.52 Q2195.26 1549.52 2192.09 1544.94 Q2188.92 1540.33 2188.92 1531.6 Q2188.92 1523.41 2192.81 1518.55 Q2196.7 1513.66 2203.25 1513.66 Q2205.01 1513.66 2206.79 1514.01 Q2208.6 1514.36 2210.54 1515.05 Z" fill="#000000" fill-rule="nonzero" fill-opacity="1" /><polyline clip-path="url(#clip400)" style="stroke:#000000; stroke-linecap:round; stroke-linejoin:round; stroke-width:4; stroke-opacity:1; fill:none" points="193.936,1486.45 193.936,47.2441 "/>
<polyline clip-path="url(#clip400)" style="stroke:#000000; stroke-linecap:round; stroke-linejoin:round; stroke-width:4; stroke-opacity:1; fill:none" points="193.936,1374.63 212.834,1374.63 "/>
<polyline clip-path="url(#clip400)" style="stroke:#000000; stroke-linecap:round; stroke-linejoin:round; stroke-width:4; stroke-opacity:1; fill:none" points="193.936,1062.83 212.834,1062.83 "/>
<polyline clip-path="url(#clip400)" style="stroke:#000000; stroke-linecap:round; stroke-linejoin:round; stroke-width:4; stroke-opacity:1; fill:none" points="193.936,751.033 212.834,751.033 "/>
<polyline clip-path="url(#clip400)" style="stroke:#000000; stroke-linecap:round; stroke-linejoin:round; stroke-width:4; stroke-opacity:1; fill:none" points="193.936,439.237 212.834,439.237 "/>
<polyline clip-path="url(#clip400)" style="stroke:#000000; stroke-linecap:round; stroke-linejoin:round; stroke-width:4; stroke-opacity:1; fill:none" points="193.936,127.442 212.834,127.442 "/>
<path clip-path="url(#clip400)" d="M50.9921 1375.08 L80.6679 1375.08 L80.6679 1379.01 L50.9921 1379.01 L50.9921 1375.08 Z" fill="#000000" fill-rule="nonzero" fill-opacity="1" /><path clip-path="url(#clip400)" d="M91.5706 1387.97 L99.2095 1387.97 L99.2095 1361.6 L90.8993 1363.27 L90.8993 1359.01 L99.1632 1357.35 L103.839 1357.35 L103.839 1387.97 L111.478 1387.97 L111.478 1391.91 L91.5706 1391.91 L91.5706 1387.97 Z" fill="#000000" fill-rule="nonzero" fill-opacity="1" /><path clip-path="url(#clip400)" d="M120.922 1386.03 L125.807 1386.03 L125.807 1391.91 L120.922 1391.91 L120.922 1386.03 Z" fill="#000000" fill-rule="nonzero" fill-opacity="1" /><path clip-path="url(#clip400)" d="M145.992 1360.42 Q142.381 1360.42 140.552 1363.99 Q138.746 1367.53 138.746 1374.66 Q138.746 1381.77 140.552 1385.33 Q142.381 1388.87 145.992 1388.87 Q149.626 1388.87 151.431 1385.33 Q153.26 1381.77 153.26 1374.66 Q153.26 1367.53 151.431 1363.99 Q149.626 1360.42 145.992 1360.42 M145.992 1356.72 Q151.802 1356.72 154.857 1361.33 Q157.936 1365.91 157.936 1374.66 Q157.936 1383.39 154.857 1387.99 Q151.802 1392.58 145.992 1392.58 Q140.181 1392.58 137.103 1387.99 Q134.047 1383.39 134.047 1374.66 Q134.047 1365.91 137.103 1361.33 Q140.181 1356.72 145.992 1356.72 Z" fill="#000000" fill-rule="nonzero" fill-opacity="1" /><path clip-path="url(#clip400)" d="M51.9875 1063.28 L81.6633 1063.28 L81.6633 1067.22 L51.9875 1067.22 L51.9875 1063.28 Z" fill="#000000" fill-rule="nonzero" fill-opacity="1" /><path clip-path="url(#clip400)" d="M101.756 1048.63 Q98.1447 1048.63 96.316 1052.19 Q94.5104 1055.73 94.5104 1062.86 Q94.5104 1069.97 96.316 1073.54 Q98.1447 1077.08 101.756 1077.08 Q105.39 1077.08 107.196 1073.54 Q109.024 1069.97 109.024 1062.86 Q109.024 1055.73 107.196 1052.19 Q105.39 1048.63 101.756 1048.63 M101.756 1044.92 Q107.566 1044.92 110.621 1049.53 Q113.7 1054.11 113.7 1062.86 Q113.7 1071.59 110.621 1076.2 Q107.566 1080.78 101.756 1080.78 Q95.9456 1080.78 92.8669 1076.2 Q89.8114 1071.59 89.8114 1062.86 Q89.8114 1054.11 92.8669 1049.53 Q95.9456 1044.92 101.756 1044.92 Z" fill="#000000" fill-rule="nonzero" fill-opacity="1" /><path clip-path="url(#clip400)" d="M121.918 1074.23 L126.802 1074.23 L126.802 1080.11 L121.918 1080.11 L121.918 1074.23 Z" fill="#000000" fill-rule="nonzero" fill-opacity="1" /><path clip-path="url(#clip400)" d="M137.033 1045.55 L155.39 1045.55 L155.39 1049.48 L141.316 1049.48 L141.316 1057.96 Q142.334 1057.61 143.353 1057.45 Q144.371 1057.26 145.39 1057.26 Q151.177 1057.26 154.556 1060.43 Q157.936 1063.6 157.936 1069.02 Q157.936 1074.6 154.464 1077.7 Q150.992 1080.78 144.672 1080.78 Q142.496 1080.78 140.228 1080.41 Q137.982 1080.04 135.575 1079.3 L135.575 1074.6 Q137.658 1075.73 139.881 1076.29 Q142.103 1076.85 144.58 1076.85 Q148.584 1076.85 150.922 1074.74 Q153.26 1072.63 153.26 1069.02 Q153.26 1065.41 150.922 1063.3 Q148.584 1061.2 144.58 1061.2 Q142.705 1061.2 140.83 1061.61 Q138.978 1062.03 137.033 1062.91 L137.033 1045.55 Z" fill="#000000" fill-rule="nonzero" fill-opacity="1" /><path clip-path="url(#clip400)" d="M100.76 736.832 Q97.1493 736.832 95.3206 740.397 Q93.515 743.939 93.515 751.068 Q93.515 758.175 95.3206 761.739 Q97.1493 765.281 100.76 765.281 Q104.395 765.281 106.2 761.739 Q108.029 758.175 108.029 751.068 Q108.029 743.939 106.2 740.397 Q104.395 736.832 100.76 736.832 M100.76 733.128 Q106.571 733.128 109.626 737.735 Q112.705 742.318 112.705 751.068 Q112.705 759.795 109.626 764.401 Q106.571 768.985 100.76 768.985 Q94.9502 768.985 91.8715 764.401 Q88.816 759.795 88.816 751.068 Q88.816 742.318 91.8715 737.735 Q94.9502 733.128 100.76 733.128 Z" fill="#000000" fill-rule="nonzero" fill-opacity="1" /><path clip-path="url(#clip400)" d="M120.922 762.434 L125.807 762.434 L125.807 768.313 L120.922 768.313 L120.922 762.434 Z" fill="#000000" fill-rule="nonzero" fill-opacity="1" /><path clip-path="url(#clip400)" d="M145.992 736.832 Q142.381 736.832 140.552 740.397 Q138.746 743.939 138.746 751.068 Q138.746 758.175 140.552 761.739 Q142.381 765.281 145.992 765.281 Q149.626 765.281 151.431 761.739 Q153.26 758.175 153.26 751.068 Q153.26 743.939 151.431 740.397 Q149.626 736.832 145.992 736.832 M145.992 733.128 Q151.802 733.128 154.857 737.735 Q157.936 742.318 157.936 751.068 Q157.936 759.795 154.857 764.401 Q151.802 768.985 145.992 768.985 Q140.181 768.985 137.103 764.401 Q134.047 759.795 134.047 751.068 Q134.047 742.318 137.103 737.735 Q140.181 733.128 145.992 733.128 Z" fill="#000000" fill-rule="nonzero" fill-opacity="1" /><path clip-path="url(#clip400)" d="M101.756 425.036 Q98.1447 425.036 96.316 428.601 Q94.5104 432.143 94.5104 439.272 Q94.5104 446.379 96.316 449.943 Q98.1447 453.485 101.756 453.485 Q105.39 453.485 107.196 449.943 Q109.024 446.379 109.024 439.272 Q109.024 432.143 107.196 428.601 Q105.39 425.036 101.756 425.036 M101.756 421.333 Q107.566 421.333 110.621 425.939 Q113.7 430.522 113.7 439.272 Q113.7 447.999 110.621 452.605 Q107.566 457.189 101.756 457.189 Q95.9456 457.189 92.8669 452.605 Q89.8114 447.999 89.8114 439.272 Q89.8114 430.522 92.8669 425.939 Q95.9456 421.333 101.756 421.333 Z" fill="#000000" fill-rule="nonzero" fill-opacity="1" /><path clip-path="url(#clip400)" d="M121.918 450.638 L126.802 450.638 L126.802 456.517 L121.918 456.517 L121.918 450.638 Z" fill="#000000" fill-rule="nonzero" fill-opacity="1" /><path clip-path="url(#clip400)" d="M137.033 421.957 L155.39 421.957 L155.39 425.893 L141.316 425.893 L141.316 434.365 Q142.334 434.018 143.353 433.856 Q144.371 433.67 145.39 433.67 Q151.177 433.67 154.556 436.842 Q157.936 440.013 157.936 445.43 Q157.936 451.008 154.464 454.11 Q150.992 457.189 144.672 457.189 Q142.496 457.189 140.228 456.818 Q137.982 456.448 135.575 455.707 L135.575 451.008 Q137.658 452.143 139.881 452.698 Q142.103 453.254 144.58 453.254 Q148.584 453.254 150.922 451.147 Q153.26 449.041 153.26 445.43 Q153.26 441.819 150.922 439.712 Q148.584 437.606 144.58 437.606 Q142.705 437.606 140.83 438.022 Q138.978 438.439 137.033 439.319 L137.033 421.957 Z" fill="#000000" fill-rule="nonzero" fill-opacity="1" /><path clip-path="url(#clip400)" d="M91.5706 140.786 L99.2095 140.786 L99.2095 114.421 L90.8993 116.088 L90.8993 111.828 L99.1632 110.162 L103.839 110.162 L103.839 140.786 L111.478 140.786 L111.478 144.722 L91.5706 144.722 L91.5706 140.786 Z" fill="#000000" fill-rule="nonzero" fill-opacity="1" /><path clip-path="url(#clip400)" d="M120.922 138.842 L125.807 138.842 L125.807 144.722 L120.922 144.722 L120.922 138.842 Z" fill="#000000" fill-rule="nonzero" fill-opacity="1" /><path clip-path="url(#clip400)" d="M145.992 113.24 Q142.381 113.24 140.552 116.805 Q138.746 120.347 138.746 127.476 Q138.746 134.583 140.552 138.148 Q142.381 141.689 145.992 141.689 Q149.626 141.689 151.431 138.148 Q153.26 134.583 153.26 127.476 Q153.26 120.347 151.431 116.805 Q149.626 113.24 145.992 113.24 M145.992 109.537 Q151.802 109.537 154.857 114.143 Q157.936 118.726 157.936 127.476 Q157.936 136.203 154.857 140.81 Q151.802 145.393 145.992 145.393 Q140.181 145.393 137.103 140.81 Q134.047 136.203 134.047 127.476 Q134.047 118.726 137.103 114.143 Q140.181 109.537 145.992 109.537 Z" fill="#000000" fill-rule="nonzero" fill-opacity="1" /><polyline clip-path="url(#clip401)" style="stroke:#009af9; stroke-linecap:round; stroke-linejoin:round; stroke-width:4; stroke-opacity:1; fill:none" points="255.035,751.033 258.278,744.798 261.521,738.562 264.764,732.328 268.007,726.096 271.25,719.867 274.493,713.64 277.736,707.418 280.979,701.199 284.222,694.986 287.465,688.778 290.708,682.577 293.951,676.382 297.194,670.195 300.437,664.015 303.68,657.845 306.923,651.684 310.166,645.533 313.409,639.392 316.652,633.263 319.895,627.145 323.138,621.04 326.381,614.947 329.624,608.868 332.867,602.804 336.11,596.754 339.353,590.72 342.596,584.702 345.84,578.7 349.083,572.716 352.326,566.749 355.569,560.801 358.812,554.872 362.055,548.963 365.298,543.074 368.541,537.205 371.784,531.358 375.027,525.533 378.27,519.73 381.513,513.951 384.756,508.195 387.999,502.464 391.242,496.757 394.485,491.076 397.728,485.421 400.971,479.792 404.214,474.191 407.457,468.617 410.7,463.072 413.943,457.555 417.186,452.068 420.429,446.61 423.672,441.183 426.915,435.787 430.158,430.422 433.401,425.09 436.644,419.79 439.887,414.523 443.13,409.29 446.373,404.091 449.616,398.927 452.859,393.798 456.103,388.705 459.346,383.648 462.589,378.627 465.832,373.644 469.075,368.699 472.318,363.792 475.561,358.923 478.804,354.094 482.047,349.305 485.29,344.555 488.533,339.847 491.776,335.179 495.019,330.553 498.262,325.969 501.505,321.428 504.748,316.929 507.991,312.474 511.234,308.063 514.477,303.696 517.72,299.374 520.963,295.097 524.206,290.865 527.449,286.68 530.692,282.541 533.935,278.449 537.178,274.404 540.421,270.407 543.664,266.458 546.907,262.557 550.15,258.705 553.393,254.903 556.636,251.15 559.879,247.447 563.122,243.794 566.366,240.192 569.609,236.641 572.852,233.142 576.095,229.694 579.338,226.299 582.581,222.956 585.824,219.666 589.067,216.429 592.31,213.245 595.553,210.115 598.796,207.04 602.039,204.018 605.282,201.052 608.525,198.14 611.768,195.284 615.011,192.483 618.254,189.738 621.497,187.049 624.74,184.417 627.983,181.841 631.226,179.323 634.469,176.861 637.712,174.457 640.955,172.11 644.198,169.821 647.441,167.591 650.684,165.419 653.927,163.305 657.17,161.25 660.413,159.254 663.656,157.318 666.899,155.44 670.142,153.623 673.385,151.865 676.629,150.166 679.872,148.528 683.115,146.951 686.358,145.433 689.601,143.976 692.844,142.58 696.087,141.245 699.33,139.971 702.573,138.758 705.816,137.606 709.059,136.515 712.302,135.486 715.545,134.518 718.788,133.612 722.031,132.768 725.274,131.986 728.517,131.265 731.76,130.607 735.003,130.01 738.246,129.476 741.489,129.004 744.732,128.594 747.975,128.246 751.218,127.96 754.461,127.737 757.704,127.576 760.947,127.478 764.19,127.442 767.433,127.468 770.676,127.557 773.919,127.708 777.162,127.921 780.405,128.196 783.648,128.534 786.892,128.934 790.135,129.397 793.378,129.921 796.621,130.508 799.864,131.156 803.107,131.867 806.35,132.639 809.593,133.474 812.836,134.37 816.079,135.328 819.322,136.347 822.565,137.428 825.808,138.57 829.051,139.773 832.294,141.038 835.537,142.364 838.78,143.75 842.023,145.197 845.266,146.705 848.509,148.273 851.752,149.902 854.995,151.59 858.238,153.339 861.481,155.147 864.724,157.015 867.967,158.942 871.21,160.928 874.453,162.974 877.696,165.078 880.939,167.241 884.182,169.462 887.425,171.742 890.668,174.079 893.911,176.474 897.155,178.927 900.398,181.436 903.641,184.003 906.884,186.626 910.127,189.306 913.37,192.042 916.613,194.834 919.856,197.682 923.099,200.584 926.342,203.542 929.585,206.555 932.828,209.622 936.071,212.743 939.314,215.918 942.557,219.147 945.8,222.428 949.043,225.763 952.286,229.15 955.529,232.589 958.772,236.081 962.015,239.623 965.258,243.217 968.501,246.862 971.744,250.557 974.987,254.302 978.23,258.096 981.473,261.94 984.716,265.833 987.959,269.775 991.202,273.764 994.445,277.802 997.688,281.886 1000.93,286.018 1004.17,290.196 1007.42,294.42 1010.66,298.69 1013.9,303.005 1017.15,307.364 1020.39,311.769 1023.63,316.217 1026.88,320.708 1030.12,325.243 1033.36,329.82 1036.6,334.439 1039.85,339.1 1043.09,343.803 1046.33,348.545 1049.58,353.329 1052.82,358.151 1056.06,363.014 1059.31,367.915 1062.55,372.854 1065.79,377.831 1069.04,382.846 1072.28,387.897 1075.52,392.984 1078.76,398.108 1082.01,403.266 1085.25,408.46 1088.49,413.688 1091.74,418.949 1094.98,424.244 1098.22,429.571 1101.47,434.93 1104.71,440.322 1107.95,445.744 1111.19,451.196 1114.44,456.679 1117.68,462.191 1120.92,467.732 1124.17,473.301 1127.41,478.899 1130.65,484.523 1133.9,490.174 1137.14,495.851 1140.38,501.553 1143.62,507.281 1146.87,513.033 1150.11,518.808 1153.35,524.607 1156.6,530.429 1159.84,536.272 1163.08,542.138 1166.33,548.024 1169.57,553.93 1172.81,559.856 1176.06,565.801 1179.3,571.764 1182.54,577.746 1185.78,583.745 1189.03,589.76 1192.27,595.792 1195.51,601.839 1198.76,607.902 1202,613.978 1205.24,620.068 1208.49,626.172 1211.73,632.287 1214.97,638.415 1218.21,644.554 1221.46,650.704 1224.7,656.863 1227.94,663.032 1231.19,669.21 1234.43,675.396 1237.67,681.589 1240.92,687.79 1244.16,693.997 1247.4,700.209 1250.64,706.427 1253.89,712.649 1257.13,718.875 1260.37,725.104 1263.62,731.336 1266.86,737.569 1270.1,743.804 1273.35,750.04 1276.59,756.276 1279.83,762.511 1283.08,768.746 1286.32,774.978 1289.56,781.208 1292.8,787.435 1296.05,793.658 1299.29,799.877 1302.53,806.092 1305.78,812.3 1309.02,818.503 1312.26,824.699 1315.51,830.887 1318.75,837.068 1321.99,843.24 1325.23,849.402 1328.48,855.555 1331.72,861.697 1334.96,867.829 1338.21,873.948 1341.45,880.056 1344.69,886.15 1347.94,892.231 1351.18,898.298 1354.42,904.35 1357.66,910.387 1360.91,916.408 1364.15,922.412 1367.39,928.399 1370.64,934.368 1373.88,940.319 1377.12,946.252 1380.37,952.164 1383.61,958.057 1386.85,963.928 1390.1,969.779 1393.34,975.608 1396.58,981.414 1399.82,987.197 1403.07,992.956 1406.31,998.692 1409.55,1004.4 1412.8,1010.09 1416.04,1015.75 1419.28,1021.38 1422.53,1026.99 1425.77,1032.56 1429.01,1038.11 1432.25,1043.64 1435.5,1049.13 1438.74,1054.59 1441.98,1060.02 1445.23,1065.42 1448.47,1070.79 1451.71,1076.13 1454.96,1081.43 1458.2,1086.71 1461.44,1091.95 1464.68,1097.15 1467.93,1102.32 1471.17,1107.45 1474.41,1112.55 1477.66,1117.62 1480.9,1122.64 1484.14,1127.63 1487.39,1132.58 1490.63,1137.5 1493.87,1142.37 1497.11,1147.21 1500.36,1152 1503.6,1156.76 1506.84,1161.47 1510.09,1166.15 1513.33,1170.78 1516.57,1175.37 1519.82,1179.92 1523.06,1184.42 1526.3,1188.89 1529.55,1193.3 1532.79,1197.68 1536.03,1202.01 1539.27,1206.29 1542.52,1210.53 1545.76,1214.72 1549,1218.87 1552.25,1222.97 1555.49,1227.02 1558.73,1231.03 1561.98,1234.98 1565.22,1238.89 1568.46,1242.75 1571.7,1246.56 1574.95,1250.32 1578.19,1254.03 1581.43,1257.69 1584.68,1261.3 1587.92,1264.86 1591.16,1268.37 1594.41,1271.83 1597.65,1275.23 1600.89,1278.58 1604.13,1281.88 1607.38,1285.13 1610.62,1288.32 1613.86,1291.46 1617.11,1294.54 1620.35,1297.57 1623.59,1300.55 1626.84,1303.47 1630.08,1306.33 1633.32,1309.14 1636.57,1311.9 1639.81,1314.59 1643.05,1317.23 1646.29,1319.82 1649.54,1322.35 1652.78,1324.82 1656.02,1327.23 1659.27,1329.59 1662.51,1331.88 1665.75,1334.12 1669,1336.31 1672.24,1338.43 1675.48,1340.49 1678.72,1342.5 1681.97,1344.44 1685.21,1346.33 1688.45,1348.16 1691.7,1349.93 1694.94,1351.63 1698.18,1353.28 1701.43,1354.87 1704.67,1356.4 1707.91,1357.86 1711.15,1359.27 1714.4,1360.61 1717.64,1361.9 1720.88,1363.12 1724.13,1364.28 1727.37,1365.38 1730.61,1366.42 1733.86,1367.4 1737.1,1368.31 1740.34,1369.17 1743.59,1369.96 1746.83,1370.69 1750.07,1371.36 1753.31,1371.97 1756.56,1372.51 1759.8,1372.99 1763.04,1373.41 1766.29,1373.77 1769.53,1374.07 1772.77,1374.3 1776.02,1374.47 1779.26,1374.58 1782.5,1374.62 1785.74,1374.61 1788.99,1374.53 1792.23,1374.39 1795.47,1374.18 1798.72,1373.92 1801.96,1373.59 1805.2,1373.2 1808.45,1372.75 1811.69,1372.23 1814.93,1371.66 1818.17,1371.02 1821.42,1370.32 1824.66,1369.55 1827.9,1368.73 1831.15,1367.84 1834.39,1366.9 1837.63,1365.89 1840.88,1364.82 1844.12,1363.68 1847.36,1362.49 1850.61,1361.23 1853.85,1359.92 1857.09,1358.54 1860.33,1357.1 1863.58,1355.61 1866.82,1354.05 1870.06,1352.43 1873.31,1350.75 1876.55,1349.01 1879.79,1347.21 1883.04,1345.35 1886.28,1343.44 1889.52,1341.46 1892.76,1339.42 1896.01,1337.33 1899.25,1335.17 1902.49,1332.96 1905.74,1330.69 1908.98,1328.36 1912.22,1325.98 1915.47,1323.53 1918.71,1321.03 1921.95,1318.48 1925.19,1315.86 1928.44,1313.19 1931.68,1310.46 1934.92,1307.68 1938.17,1304.84 1941.41,1301.95 1944.65,1299 1947.9,1296 1951.14,1292.94 1954.38,1289.82 1957.63,1286.66 1960.87,1283.44 1964.11,1280.16 1967.35,1276.84 1970.6,1273.46 1973.84,1270.03 1977.08,1266.55 1980.33,1263.01 1983.57,1259.43 1986.81,1255.79 1990.06,1252.1 1993.3,1248.36 1996.54,1244.58 1999.78,1240.74 2003.03,1236.86 2006.27,1232.92 2009.51,1228.94 2012.76,1224.91 2016,1220.83 2019.24,1216.71 2022.49,1212.54 2025.73,1208.32 2028.97,1204.06 2032.21,1199.75 2035.46,1195.4 2038.7,1191 2041.94,1186.56 2045.19,1182.08 2048.43,1177.55 2051.67,1172.98 2054.92,1168.37 2058.16,1163.71 2061.4,1159.02 2064.65,1154.28 2067.89,1149.5 2071.13,1144.69 2074.37,1139.83 2077.62,1134.94 2080.86,1130 2084.1,1125.03 2087.35,1120.02 2090.59,1114.98 2093.83,1109.9 2097.08,1104.78 2100.32,1099.62 2103.56,1094.44 2106.8,1089.21 2110.05,1083.96 2113.29,1078.67 2116.53,1073.35 2119.78,1067.99 2123.02,1062.61 2126.26,1057.19 2129.51,1051.74 2132.75,1046.26 2135.99,1040.76 2139.23,1035.22 2142.48,1029.65 2145.72,1024.06 2148.96,1018.44 2152.21,1012.79 2155.45,1007.12 2158.69,1001.42 2161.94,995.7 2165.18,989.952 2168.42,984.18 2171.67,978.385 2174.91,972.567 2178.15,966.726 2181.39,960.865 2184.64,954.982 2187.88,949.079 2191.12,943.156 2194.37,937.214 2197.61,931.253 2200.85,925.275 2204.1,919.278 2207.34,913.265 2210.58,907.236 2213.82,901.191 2217.07,895.132 2220.31,889.057 2223.55,882.969 2226.8,876.868 2230.04,870.754 2233.28,864.628 2236.53,858.491 2239.77,852.343 2243.01,846.185 2246.25,840.018 2249.5,833.841 2252.74,827.657 2255.98,821.464 2259.23,815.265 2262.47,809.059 2265.71,802.847 2268.96,796.63 2272.2,790.409 2275.44,784.184 2278.69,777.955 2281.93,771.724 2285.17,765.49 2288.41,759.255 2291.66,753.02 "/>
<circle clip-path="url(#clip401)" cx="2103.56" cy="990.957" r="14.4" fill="#e26f46" fill-rule="evenodd" fill-opacity="1" stroke="#000000" stroke-opacity="1" stroke-width="3.2"/>
<circle clip-path="url(#clip401)" cx="770.676" cy="87.9763" r="14.4" fill="#e26f46" fill-rule="evenodd" fill-opacity="1" stroke="#000000" stroke-opacity="1" stroke-width="3.2"/>
<circle clip-path="url(#clip401)" cx="1938.17" cy="1229.74" r="14.4" fill="#e26f46" fill-rule="evenodd" fill-opacity="1" stroke="#000000" stroke-opacity="1" stroke-width="3.2"/>
<circle clip-path="url(#clip401)" cx="932.828" cy="211.612" r="14.4" fill="#e26f46" fill-rule="evenodd" fill-opacity="1" stroke="#000000" stroke-opacity="1" stroke-width="3.2"/>
<circle clip-path="url(#clip401)" cx="1467.93" cy="952.042" r="14.4" fill="#e26f46" fill-rule="evenodd" fill-opacity="1" stroke="#000000" stroke-opacity="1" stroke-width="3.2"/>
<circle clip-path="url(#clip401)" cx="2022.49" cy="1101.27" r="14.4" fill="#e26f46" fill-rule="evenodd" fill-opacity="1" stroke="#000000" stroke-opacity="1" stroke-width="3.2"/>
<circle clip-path="url(#clip401)" cx="472.318" cy="271.479" r="14.4" fill="#e26f46" fill-rule="evenodd" fill-opacity="1" stroke="#000000" stroke-opacity="1" stroke-width="3.2"/>
<circle clip-path="url(#clip401)" cx="1957.63" cy="1190.15" r="14.4" fill="#e26f46" fill-rule="evenodd" fill-opacity="1" stroke="#000000" stroke-opacity="1" stroke-width="3.2"/>
<circle clip-path="url(#clip401)" cx="874.453" cy="93.636" r="14.4" fill="#e26f46" fill-rule="evenodd" fill-opacity="1" stroke="#000000" stroke-opacity="1" stroke-width="3.2"/>
<circle clip-path="url(#clip401)" cx="400.971" cy="435.01" r="14.4" fill="#e26f46" fill-rule="evenodd" fill-opacity="1" stroke="#000000" stroke-opacity="1" stroke-width="3.2"/>
<circle clip-path="url(#clip401)" cx="812.836" cy="177.209" r="14.4" fill="#e26f46" fill-rule="evenodd" fill-opacity="1" stroke="#000000" stroke-opacity="1" stroke-width="3.2"/>
<circle clip-path="url(#clip401)" cx="1798.72" cy="1344.04" r="14.4" fill="#e26f46" fill-rule="evenodd" fill-opacity="1" stroke="#000000" stroke-opacity="1" stroke-width="3.2"/>
<circle clip-path="url(#clip401)" cx="1743.59" cy="1291.63" r="14.4" fill="#e26f46" fill-rule="evenodd" fill-opacity="1" stroke="#000000" stroke-opacity="1" stroke-width="3.2"/>
<circle clip-path="url(#clip401)" cx="1912.22" cy="1445.72" r="14.4" fill="#e26f46" fill-rule="evenodd" fill-opacity="1" stroke="#000000" stroke-opacity="1" stroke-width="3.2"/>
<circle clip-path="url(#clip401)" cx="1717.64" cy="1313.11" r="14.4" fill="#e26f46" fill-rule="evenodd" fill-opacity="1" stroke="#000000" stroke-opacity="1" stroke-width="3.2"/>
<circle clip-path="url(#clip401)" cx="647.441" cy="226.437" r="14.4" fill="#e26f46" fill-rule="evenodd" fill-opacity="1" stroke="#000000" stroke-opacity="1" stroke-width="3.2"/>
<circle clip-path="url(#clip401)" cx="647.441" cy="287.714" r="14.4" fill="#e26f46" fill-rule="evenodd" fill-opacity="1" stroke="#000000" stroke-opacity="1" stroke-width="3.2"/>
<circle clip-path="url(#clip401)" cx="1561.98" cy="1181.1" r="14.4" fill="#e26f46" fill-rule="evenodd" fill-opacity="1" stroke="#000000" stroke-opacity="1" stroke-width="3.2"/>
<circle clip-path="url(#clip401)" cx="2071.13" cy="1076.63" r="14.4" fill="#e26f46" fill-rule="evenodd" fill-opacity="1" stroke="#000000" stroke-opacity="1" stroke-width="3.2"/>
<circle clip-path="url(#clip401)" cx="1137.14" cy="431.024" r="14.4" fill="#e26f46" fill-rule="evenodd" fill-opacity="1" stroke="#000000" stroke-opacity="1" stroke-width="3.2"/>
<path clip-path="url(#clip400)" d="M1953.46 250.738 L2280.8 250.738 L2280.8 95.2176 L1953.46 95.2176  Z" fill="#ffffff" fill-rule="evenodd" fill-opacity="1"/>
<polyline clip-path="url(#clip400)" style="stroke:#000000; stroke-linecap:round; stroke-linejoin:round; stroke-width:4; stroke-opacity:1; fill:none" points="1953.46,250.738 2280.8,250.738 2280.8,95.2176 1953.46,95.2176 1953.46,250.738 "/>
<polyline clip-path="url(#clip400)" style="stroke:#009af9; stroke-linecap:round; stroke-linejoin:round; stroke-width:4; stroke-opacity:1; fill:none" points="1977.44,147.058 2121.36,147.058 "/>
<path clip-path="url(#clip400)" d="M2152.76 131.051 L2152.76 138.412 L2161.53 138.412 L2161.53 141.722 L2152.76 141.722 L2152.76 155.796 Q2152.76 158.967 2153.61 159.87 Q2154.49 160.773 2157.16 160.773 L2161.53 160.773 L2161.53 164.338 L2157.16 164.338 Q2152.23 164.338 2150.35 162.509 Q2148.48 160.657 2148.48 155.796 L2148.48 141.722 L2145.35 141.722 L2145.35 138.412 L2148.48 138.412 L2148.48 131.051 L2152.76 131.051 Z" fill="#000000" fill-rule="nonzero" fill-opacity="1" /><path clip-path="url(#clip400)" d="M2182.16 142.393 Q2181.44 141.977 2180.58 141.791 Q2179.75 141.583 2178.73 141.583 Q2175.12 141.583 2173.17 143.944 Q2171.25 146.282 2171.25 150.68 L2171.25 164.338 L2166.97 164.338 L2166.97 138.412 L2171.25 138.412 L2171.25 142.44 Q2172.6 140.078 2174.75 138.944 Q2176.9 137.787 2179.98 137.787 Q2180.42 137.787 2180.95 137.856 Q2181.48 137.903 2182.13 138.018 L2182.16 142.393 Z" fill="#000000" fill-rule="nonzero" fill-opacity="1" /><path clip-path="url(#clip400)" d="M2186.18 154.106 L2186.18 138.412 L2190.44 138.412 L2190.44 153.944 Q2190.44 157.625 2191.88 159.476 Q2193.31 161.305 2196.18 161.305 Q2199.63 161.305 2201.62 159.106 Q2203.64 156.907 2203.64 153.111 L2203.64 138.412 L2207.9 138.412 L2207.9 164.338 L2203.64 164.338 L2203.64 160.356 Q2202.09 162.717 2200.03 163.875 Q2197.99 165.009 2195.28 165.009 Q2190.81 165.009 2188.5 162.231 Q2186.18 159.453 2186.18 154.106 M2196.9 137.787 L2196.9 137.787 Z" fill="#000000" fill-rule="nonzero" fill-opacity="1" /><path clip-path="url(#clip400)" d="M2220.88 131.051 L2220.88 138.412 L2229.66 138.412 L2229.66 141.722 L2220.88 141.722 L2220.88 155.796 Q2220.88 158.967 2221.74 159.87 Q2222.62 160.773 2225.28 160.773 L2229.66 160.773 L2229.66 164.338 L2225.28 164.338 Q2220.35 164.338 2218.48 162.509 Q2216.6 160.657 2216.6 155.796 L2216.6 141.722 L2213.48 141.722 L2213.48 138.412 L2216.6 138.412 L2216.6 131.051 L2220.88 131.051 Z" fill="#000000" fill-rule="nonzero" fill-opacity="1" /><path clip-path="url(#clip400)" d="M2256.81 148.689 L2256.81 164.338 L2252.55 164.338 L2252.55 148.828 Q2252.55 145.148 2251.11 143.319 Q2249.68 141.49 2246.81 141.49 Q2243.36 141.49 2241.37 143.69 Q2239.38 145.889 2239.38 149.685 L2239.38 164.338 L2235.1 164.338 L2235.1 128.319 L2239.38 128.319 L2239.38 142.44 Q2240.91 140.102 2242.97 138.944 Q2245.05 137.787 2247.76 137.787 Q2252.23 137.787 2254.52 140.565 Q2256.81 143.319 2256.81 148.689 Z" fill="#000000" fill-rule="nonzero" fill-opacity="1" /><circle clip-path="url(#clip400)" cx="2049.4" cy="198.898" r="20.48" fill="#e26f46" fill-rule="evenodd" fill-opacity="1" stroke="#000000" stroke-opacity="1" stroke-width="4.55111"/>
<path clip-path="url(#clip400)" d="M2164.26 194.187 L2164.26 180.159 L2168.52 180.159 L2168.52 216.178 L2164.26 216.178 L2164.26 212.289 Q2162.92 214.603 2160.86 215.738 Q2158.82 216.849 2155.95 216.849 Q2151.25 216.849 2148.29 213.099 Q2145.35 209.349 2145.35 203.238 Q2145.35 197.127 2148.29 193.377 Q2151.25 189.627 2155.95 189.627 Q2158.82 189.627 2160.86 190.761 Q2162.92 191.872 2164.26 194.187 M2149.75 203.238 Q2149.75 207.937 2151.67 210.622 Q2153.61 213.284 2156.99 213.284 Q2160.37 213.284 2162.32 210.622 Q2164.26 207.937 2164.26 203.238 Q2164.26 198.539 2162.32 195.877 Q2160.37 193.192 2156.99 193.192 Q2153.61 193.192 2151.67 195.877 Q2149.75 198.539 2149.75 203.238 Z" fill="#000000" fill-rule="nonzero" fill-opacity="1" /><path clip-path="url(#clip400)" d="M2189.08 203.145 Q2183.92 203.145 2181.92 204.326 Q2179.93 205.506 2179.93 208.354 Q2179.93 210.622 2181.42 211.965 Q2182.92 213.284 2185.49 213.284 Q2189.03 213.284 2191.16 210.784 Q2193.31 208.261 2193.31 204.094 L2193.31 203.145 L2189.08 203.145 M2197.57 201.386 L2197.57 216.178 L2193.31 216.178 L2193.31 212.242 Q2191.85 214.603 2189.68 215.738 Q2187.5 216.849 2184.36 216.849 Q2180.37 216.849 2178.01 214.627 Q2175.67 212.381 2175.67 208.631 Q2175.67 204.256 2178.59 202.034 Q2181.53 199.812 2187.34 199.812 L2193.31 199.812 L2193.31 199.395 Q2193.31 196.455 2191.37 194.858 Q2189.45 193.238 2185.95 193.238 Q2183.73 193.238 2181.62 193.77 Q2179.52 194.303 2177.57 195.367 L2177.57 191.432 Q2179.91 190.53 2182.11 190.09 Q2184.31 189.627 2186.39 189.627 Q2192.02 189.627 2194.79 192.543 Q2197.57 195.46 2197.57 201.386 Z" fill="#000000" fill-rule="nonzero" fill-opacity="1" /><path clip-path="url(#clip400)" d="M2210.56 182.891 L2210.56 190.252 L2219.33 190.252 L2219.33 193.562 L2210.56 193.562 L2210.56 207.636 Q2210.56 210.807 2211.42 211.71 Q2212.29 212.613 2214.96 212.613 L2219.33 212.613 L2219.33 216.178 L2214.96 216.178 Q2210.03 216.178 2208.15 214.349 Q2206.28 212.497 2206.28 207.636 L2206.28 193.562 L2203.15 193.562 L2203.15 190.252 L2206.28 190.252 L2206.28 182.891 L2210.56 182.891 Z" fill="#000000" fill-rule="nonzero" fill-opacity="1" /><path clip-path="url(#clip400)" d="M2236.72 203.145 Q2231.55 203.145 2229.56 204.326 Q2227.57 205.506 2227.57 208.354 Q2227.57 210.622 2229.05 211.965 Q2230.56 213.284 2233.13 213.284 Q2236.67 213.284 2238.8 210.784 Q2240.95 208.261 2240.95 204.094 L2240.95 203.145 L2236.72 203.145 M2245.21 201.386 L2245.21 216.178 L2240.95 216.178 L2240.95 212.242 Q2239.49 214.603 2237.32 215.738 Q2235.14 216.849 2231.99 216.849 Q2228.01 216.849 2225.65 214.627 Q2223.31 212.381 2223.31 208.631 Q2223.31 204.256 2226.23 202.034 Q2229.17 199.812 2234.98 199.812 L2240.95 199.812 L2240.95 199.395 Q2240.95 196.455 2239.01 194.858 Q2237.09 193.238 2233.59 193.238 Q2231.37 193.238 2229.26 193.77 Q2227.16 194.303 2225.21 195.367 L2225.21 191.432 Q2227.55 190.53 2229.75 190.09 Q2231.95 189.627 2234.03 189.627 Q2239.66 189.627 2242.43 192.543 Q2245.21 195.46 2245.21 201.386 Z" fill="#000000" fill-rule="nonzero" fill-opacity="1" /></svg>
