<?xml version="1.0" encoding="utf-8"?>
<svg xmlns="http://www.w3.org/2000/svg" xmlns:xlink="http://www.w3.org/1999/xlink" width="600" height="400" viewBox="0 0 2400 1600">
<defs>
  <clipPath id="clip430">
    <rect x="0" y="0" width="2400" height="1600"/>
  </clipPath>
</defs>
<path clip-path="url(#clip430)" d="M0 1600 L2400 1600 L2400 0 L0 0  Z" fill="#ffffff" fill-rule="evenodd" fill-opacity="1"/>
<defs>
  <clipPath id="clip431">
    <rect x="193" y="47" width="2160" height="1440"/>
  </clipPath>
</defs>
<path clip-path="url(#clip430)" d="M193.936 1486.45 L2352.76 1486.45 L2352.76 47.2441 L193.936 47.2441  Z" fill="#ffffff" fill-rule="evenodd" fill-opacity="1"/>
<polyline clip-path="url(#clip431)" style="stroke:#000000; stroke-linecap:round; stroke-linejoin:round; stroke-width:2; stroke-opacity:0.1; fill:none" points="255.035,1486.45 255.035,47.2441 "/>
<polyline clip-path="url(#clip431)" style="stroke:#000000; stroke-linecap:round; stroke-linejoin:round; stroke-width:2; stroke-opacity:0.1; fill:none" points="579.338,1486.45 579.338,47.2441 "/>
<polyline clip-path="url(#clip431)" style="stroke:#000000; stroke-linecap:round; stroke-linejoin:round; stroke-width:2; stroke-opacity:0.1; fill:none" points="903.641,1486.45 903.641,47.2441 "/>
<polyline clip-path="url(#clip431)" style="stroke:#000000; stroke-linecap:round; stroke-linejoin:round; stroke-width:2; stroke-opacity:0.1; fill:none" points="1227.94,1486.45 1227.94,47.2441 "/>
<polyline clip-path="url(#clip431)" style="stroke:#000000; stroke-linecap:round; stroke-linejoin:round; stroke-width:2; stroke-opacity:0.1; fill:none" points="1552.25,1486.45 1552.25,47.2441 "/>
<polyline clip-path="url(#clip431)" style="stroke:#000000; stroke-linecap:round; stroke-linejoin:round; stroke-width:2; stroke-opacity:0.1; fill:none" points="1876.55,1486.45 1876.55,47.2441 "/>
<polyline clip-path="url(#clip431)" style="stroke:#000000; stroke-linecap:round; stroke-linejoin:round; stroke-width:2; stroke-opacity:0.1; fill:none" points="2200.85,1486.45 2200.85,47.2441 "/>
<polyline clip-path="url(#clip431)" style="stroke:#000000; stroke-linecap:round; stroke-linejoin:round; stroke-width:2; stroke-opacity:0.1; fill:none" points="193.936,1330.23 2352.76,1330.23 "/>
<polyline clip-path="url(#clip431)" style="stroke:#000000; stroke-linecap:round; stroke-linejoin:round; stroke-width:2; stroke-opacity:0.1; fill:none" points="193.936,1052.64 2352.76,1052.64 "/>
<polyline clip-path="url(#clip431)" style="stroke:#000000; stroke-linecap:round; stroke-linejoin:round; stroke-width:2; stroke-opacity:0.1; fill:none" points="193.936,775.058 2352.76,775.058 "/>
<polyline clip-path="url(#clip431)" style="stroke:#000000; stroke-linecap:round; stroke-linejoin:round; stroke-width:2; stroke-opacity:0.1; fill:none" points="193.936,497.474 2352.76,497.474 "/>
<polyline clip-path="url(#clip431)" style="stroke:#000000; stroke-linecap:round; stroke-linejoin:round; stroke-width:2; stroke-opacity:0.1; fill:none" points="193.936,219.889 2352.76,219.889 "/>
<polyline clip-path="url(#clip430)" style="stroke:#000000; stroke-linecap:round; stroke-linejoin:round; stroke-width:4; stroke-opacity:1; fill:none" points="193.936,1486.45 2352.76,1486.45 "/>
<polyline clip-path="url(#clip430)" style="stroke:#000000; stroke-linecap:round; stroke-linejoin:round; stroke-width:4; stroke-opacity:1; fill:none" points="255.035,1486.45 255.035,1467.55 "/>
<polyline clip-path="url(#clip430)" style="stroke:#000000; stroke-linecap:round; stroke-linejoin:round; stroke-width:4; stroke-opacity:1; fill:none" points="579.338,1486.45 579.338,1467.55 "/>
<polyline clip-path="url(#clip430)" style="stroke:#000000; stroke-linecap:round; stroke-linejoin:round; stroke-width:4; stroke-opacity:1; fill:none" points="903.641,1486.45 903.641,1467.55 "/>
<polyline clip-path="url(#clip430)" style="stroke:#000000; stroke-linecap:round; stroke-linejoin:round; stroke-width:4; stroke-opacity:1; fill:none" points="1227.94,1486.45 1227.94,1467.55 "/>
<polyline clip-path="url(#clip430)" style="stroke:#000000; stroke-linecap:round; stroke-linejoin:round; stroke-width:4; stroke-opacity:1; fill:none" points="1552.25,1486.45 1552.25,1467.55 "/>
<polyline clip-path="url(#clip430)" style="stroke:#000000; stroke-linecap:round; stroke-linejoin:round; stroke-width:4; stroke-opacity:1; fill:none" points="1876.55,1486.45 1876.55,1467.55 "/>
<polyline clip-path="url(#clip430)" style="stroke:#000000; stroke-linecap:round; stroke-linejoin:round; stroke-width:4; stroke-opacity:1; fill:none" points="2200.85,1486.45 2200.85,1467.55 "/>
<path clip-path="url(#clip430)" d="M255.035 1517.37 Q251.424 1517.37 249.595 1520.93 Q247.789 1524.47 247.789 1531.6 Q247.789 1538.71 249.595 1542.27 Q251.424 1545.82 255.035 1545.82 Q258.669 1545.82 260.474 1542.27 Q262.303 1538.71 262.303 1531.6 Q262.303 1524.47 260.474 1520.93 Q258.669 1517.37 255.035 1517.37 M255.035 1513.66 Q260.845 1513.66 263.9 1518.27 Q266.979 1522.85 266.979 1531.6 Q266.979 1540.33 263.9 1544.94 Q260.845 1549.52 255.035 1549.52 Q249.225 1549.52 246.146 1544.94 Q243.09 1540.33 243.09 1531.6 Q243.09 1522.85 246.146 1518.27 Q249.225 1513.66 255.035 1513.66 Z" fill="#000000" fill-rule="nonzero" fill-opacity="1" /><path clip-path="url(#clip430)" d="M569.72 1544.91 L577.358 1544.91 L577.358 1518.55 L569.048 1520.21 L569.048 1515.95 L577.312 1514.29 L581.988 1514.29 L581.988 1544.91 L589.627 1544.91 L589.627 1548.85 L569.72 1548.85 L569.72 1544.91 Z" fill="#000000" fill-rule="nonzero" fill-opacity="1" /><path clip-path="url(#clip430)" d="M898.293 1544.91 L914.613 1544.91 L914.613 1548.85 L892.668 1548.85 L892.668 1544.91 Q895.33 1542.16 899.914 1537.53 Q904.52 1532.88 905.701 1531.53 Q907.946 1529.01 908.826 1527.27 Q909.729 1525.51 909.729 1523.82 Q909.729 1521.07 907.784 1519.33 Q905.863 1517.6 902.761 1517.6 Q900.562 1517.6 898.108 1518.36 Q895.678 1519.13 892.9 1520.68 L892.9 1515.95 Q895.724 1514.82 898.178 1514.24 Q900.631 1513.66 902.668 1513.66 Q908.039 1513.66 911.233 1516.35 Q914.428 1519.03 914.428 1523.52 Q914.428 1525.65 913.617 1527.57 Q912.83 1529.47 910.724 1532.07 Q910.145 1532.74 907.043 1535.95 Q903.942 1539.15 898.293 1544.91 Z" fill="#000000" fill-rule="nonzero" fill-opacity="1" /><path clip-path="url(#clip430)" d="M1232.19 1530.21 Q1235.55 1530.93 1237.42 1533.2 Q1239.32 1535.47 1239.32 1538.8 Q1239.32 1543.92 1235.8 1546.72 Q1232.28 1549.52 1225.8 1549.52 Q1223.63 1549.52 1221.31 1549.08 Q1219.02 1548.66 1216.57 1547.81 L1216.57 1543.29 Q1218.51 1544.43 1220.83 1545.01 Q1223.14 1545.58 1225.66 1545.58 Q1230.06 1545.58 1232.35 1543.85 Q1234.67 1542.11 1234.67 1538.8 Q1234.67 1535.75 1232.52 1534.03 Q1230.39 1532.3 1226.57 1532.3 L1222.54 1532.3 L1222.54 1528.45 L1226.75 1528.45 Q1230.2 1528.45 1232.03 1527.09 Q1233.86 1525.7 1233.86 1523.11 Q1233.86 1520.45 1231.96 1519.03 Q1230.08 1517.6 1226.57 1517.6 Q1224.64 1517.6 1222.45 1518.01 Q1220.25 1518.43 1217.61 1519.31 L1217.61 1515.14 Q1220.27 1514.4 1222.58 1514.03 Q1224.92 1513.66 1226.98 1513.66 Q1232.31 1513.66 1235.41 1516.09 Q1238.51 1518.5 1238.51 1522.62 Q1238.51 1525.49 1236.87 1527.48 Q1235.22 1529.45 1232.19 1530.21 Z" fill="#000000" fill-rule="nonzero" fill-opacity="1" /><path clip-path="url(#clip430)" d="M1555.26 1518.36 L1543.45 1536.81 L1555.26 1536.81 L1555.26 1518.36 M1554.03 1514.29 L1559.91 1514.29 L1559.91 1536.81 L1564.84 1536.81 L1564.84 1540.7 L1559.91 1540.7 L1559.91 1548.85 L1555.26 1548.85 L1555.26 1540.7 L1539.65 1540.7 L1539.65 1536.19 L1554.03 1514.29 Z" fill="#000000" fill-rule="nonzero" fill-opacity="1" /><path clip-path="url(#clip430)" d="M1866.83 1514.29 L1885.18 1514.29 L1885.18 1518.22 L1871.11 1518.22 L1871.11 1526.7 Q1872.13 1526.35 1873.15 1526.19 Q1874.17 1526 1875.18 1526 Q1880.97 1526 1884.35 1529.17 Q1887.73 1532.34 1887.73 1537.76 Q1887.73 1543.34 1884.26 1546.44 Q1880.79 1549.52 1874.47 1549.52 Q1872.29 1549.52 1870.02 1549.15 Q1867.78 1548.78 1865.37 1548.04 L1865.37 1543.34 Q1867.45 1544.47 1869.67 1545.03 Q1871.9 1545.58 1874.37 1545.58 Q1878.38 1545.58 1880.72 1543.48 Q1883.05 1541.37 1883.05 1537.76 Q1883.05 1534.15 1880.72 1532.04 Q1878.38 1529.94 1874.37 1529.94 Q1872.5 1529.94 1870.62 1530.35 Q1868.77 1530.77 1866.83 1531.65 L1866.83 1514.29 Z" fill="#000000" fill-rule="nonzero" fill-opacity="1" /><path clip-path="url(#clip430)" d="M2201.26 1529.7 Q2198.11 1529.7 2196.26 1531.86 Q2194.43 1534.01 2194.43 1537.76 Q2194.43 1541.49 2196.26 1543.66 Q2198.11 1545.82 2201.26 1545.82 Q2204.41 1545.82 2206.23 1543.66 Q2208.09 1541.49 2208.09 1537.76 Q2208.09 1534.01 2206.23 1531.86 Q2204.41 1529.7 2201.26 1529.7 M2210.54 1515.05 L2210.54 1519.31 Q2208.78 1518.48 2206.98 1518.04 Q2205.19 1517.6 2203.43 1517.6 Q2198.8 1517.6 2196.35 1520.72 Q2193.92 1523.85 2193.57 1530.17 Q2194.94 1528.15 2197 1527.09 Q2199.06 1526 2201.54 1526 Q2206.74 1526 2209.75 1529.17 Q2212.79 1532.32 2212.79 1537.76 Q2212.79 1543.08 2209.64 1546.3 Q2206.49 1549.52 2201.26 1549.52 Q2195.26 1549.52 2192.09 1544.94 Q2188.92 1540.33 2188.92 1531.6 Q2188.92 1523.41 2192.81 1518.55 Q2196.7 1513.66 2203.25 1513.66 Q2205.01 1513.66 2206.79 1514.01 Q2208.6 1514.36 2210.54 1515.05 Z" fill="#000000" fill-rule="nonzero" fill-opacity="1" /><polyline clip-path="url(#clip430)" style="stroke:#000000; stroke-linecap:round; stroke-linejoin:round; stroke-width:4; stroke-opacity:1; fill:none" points="193.936,1486.45 193.936,47.2441 "/>
<polyline clip-path="url(#clip430)" style="stroke:#000000; stroke-linecap:round; stroke-linejoin:round; stroke-width:4; stroke-opacity:1; fill:none" points="193.936,1330.23 212.834,1330.23 "/>
<polyline clip-path="url(#clip430)" style="stroke:#000000; stroke-linecap:round; stroke-linejoin:round; stroke-width:4; stroke-opacity:1; fill:none" points="193.936,1052.64 212.834,1052.64 "/>
<polyline clip-path="url(#clip430)" style="stroke:#000000; stroke-linecap:round; stroke-linejoin:round; stroke-width:4; stroke-opacity:1; fill:none" points="193.936,775.058 212.834,775.058 "/>
<polyline clip-path="url(#clip430)" style="stroke:#000000; stroke-linecap:round; stroke-linejoin:round; stroke-width:4; stroke-opacity:1; fill:none" points="193.936,497.474 212.834,497.474 "/>
<polyline clip-path="url(#clip430)" style="stroke:#000000; stroke-linecap:round; stroke-linejoin:round; stroke-width:4; stroke-opacity:1; fill:none" points="193.936,219.889 212.834,219.889 "/>
<path clip-path="url(#clip430)" d="M50.9921 1330.68 L80.6679 1330.68 L80.6679 1334.61 L50.9921 1334.61 L50.9921 1330.68 Z" fill="#000000" fill-rule="nonzero" fill-opacity="1" /><path clip-path="url(#clip430)" d="M91.5706 1343.57 L99.2095 1343.57 L99.2095 1317.21 L90.8993 1318.87 L90.8993 1314.61 L99.1632 1312.95 L103.839 1312.95 L103.839 1343.57 L111.478 1343.57 L111.478 1347.51 L91.5706 1347.51 L91.5706 1343.57 Z" fill="#000000" fill-rule="nonzero" fill-opacity="1" /><path clip-path="url(#clip430)" d="M120.922 1341.63 L125.807 1341.63 L125.807 1347.51 L120.922 1347.51 L120.922 1341.63 Z" fill="#000000" fill-rule="nonzero" fill-opacity="1" /><path clip-path="url(#clip430)" d="M145.992 1316.03 Q142.381 1316.03 140.552 1319.59 Q138.746 1323.13 138.746 1330.26 Q138.746 1337.37 140.552 1340.93 Q142.381 1344.47 145.992 1344.47 Q149.626 1344.47 151.431 1340.93 Q153.26 1337.37 153.26 1330.26 Q153.26 1323.13 151.431 1319.59 Q149.626 1316.03 145.992 1316.03 M145.992 1312.32 Q151.802 1312.32 154.857 1316.93 Q157.936 1321.51 157.936 1330.26 Q157.936 1338.99 154.857 1343.59 Q151.802 1348.18 145.992 1348.18 Q140.181 1348.18 137.103 1343.59 Q134.047 1338.99 134.047 1330.26 Q134.047 1321.51 137.103 1316.93 Q140.181 1312.32 145.992 1312.32 Z" fill="#000000" fill-rule="nonzero" fill-opacity="1" /><path clip-path="url(#clip430)" d="M51.9875 1053.09 L81.6633 1053.09 L81.6633 1057.03 L51.9875 1057.03 L51.9875 1053.09 Z" fill="#000000" fill-rule="nonzero" fill-opacity="1" /><path clip-path="url(#clip430)" d="M101.756 1038.44 Q98.1447 1038.44 96.316 1042.01 Q94.5104 1045.55 94.5104 1052.68 Q94.5104 1059.78 96.316 1063.35 Q98.1447 1066.89 101.756 1066.89 Q105.39 1066.89 107.196 1063.35 Q109.024 1059.78 109.024 1052.68 Q109.024 1045.55 107.196 1042.01 Q105.39 1038.44 101.756 1038.44 M101.756 1034.74 Q107.566 1034.74 110.621 1039.34 Q113.7 1043.93 113.7 1052.68 Q113.7 1061.4 110.621 1066.01 Q107.566 1070.59 101.756 1070.59 Q95.9456 1070.59 92.8669 1066.01 Q89.8114 1061.4 89.8114 1052.68 Q89.8114 1043.93 92.8669 1039.34 Q95.9456 1034.74 101.756 1034.74 Z" fill="#000000" fill-rule="nonzero" fill-opacity="1" /><path clip-path="url(#clip430)" d="M121.918 1064.04 L126.802 1064.04 L126.802 1069.92 L121.918 1069.92 L121.918 1064.04 Z" fill="#000000" fill-rule="nonzero" fill-opacity="1" /><path clip-path="url(#clip430)" d="M137.033 1035.36 L155.39 1035.36 L155.39 1039.3 L141.316 1039.3 L141.316 1047.77 Q142.334 1047.42 143.353 1047.26 Q144.371 1047.08 145.39 1047.08 Q151.177 1047.08 154.556 1050.25 Q157.936 1053.42 157.936 1058.83 Q157.936 1064.41 154.464 1067.51 Q150.992 1070.59 144.672 1070.59 Q142.496 1070.59 140.228 1070.22 Q137.982 1069.85 135.575 1069.11 L135.575 1064.41 Q137.658 1065.55 139.881 1066.1 Q142.103 1066.66 144.58 1066.66 Q148.584 1066.66 150.922 1064.55 Q153.26 1062.45 153.26 1058.83 Q153.26 1055.22 150.922 1053.12 Q148.584 1051.01 144.58 1051.01 Q142.705 1051.01 140.83 1051.43 Q138.978 1051.84 137.033 1052.72 L137.033 1035.36 Z" fill="#000000" fill-rule="nonzero" fill-opacity="1" /><path clip-path="url(#clip430)" d="M100.76 760.857 Q97.1493 760.857 95.3206 764.421 Q93.515 767.963 93.515 775.093 Q93.515 782.199 95.3206 785.764 Q97.1493 789.306 100.76 789.306 Q104.395 789.306 106.2 785.764 Q108.029 782.199 108.029 775.093 Q108.029 767.963 106.2 764.421 Q104.395 760.857 100.76 760.857 M100.76 757.153 Q106.571 757.153 109.626 761.759 Q112.705 766.343 112.705 775.093 Q112.705 783.819 109.626 788.426 Q106.571 793.009 100.76 793.009 Q94.9502 793.009 91.8715 788.426 Q88.816 783.819 88.816 775.093 Q88.816 766.343 91.8715 761.759 Q94.9502 757.153 100.76 757.153 Z" fill="#000000" fill-rule="nonzero" fill-opacity="1" /><path clip-path="url(#clip430)" d="M120.922 786.458 L125.807 786.458 L125.807 792.338 L120.922 792.338 L120.922 786.458 Z" fill="#000000" fill-rule="nonzero" fill-opacity="1" /><path clip-path="url(#clip430)" d="M145.992 760.857 Q142.381 760.857 140.552 764.421 Q138.746 767.963 138.746 775.093 Q138.746 782.199 140.552 785.764 Q142.381 789.306 145.992 789.306 Q149.626 789.306 151.431 785.764 Q153.26 782.199 153.26 775.093 Q153.26 767.963 151.431 764.421 Q149.626 760.857 145.992 760.857 M145.992 757.153 Q151.802 757.153 154.857 761.759 Q157.936 766.343 157.936 775.093 Q157.936 783.819 154.857 788.426 Q151.802 793.009 145.992 793.009 Q140.181 793.009 137.103 788.426 Q134.047 783.819 134.047 775.093 Q134.047 766.343 137.103 761.759 Q140.181 757.153 145.992 757.153 Z" fill="#000000" fill-rule="nonzero" fill-opacity="1" /><path clip-path="url(#clip430)" d="M101.756 483.272 Q98.1447 483.272 96.316 486.837 Q94.5104 490.379 94.5104 497.508 Q94.5104 504.615 96.316 508.179 Q98.1447 511.721 101.756 511.721 Q105.39 511.721 107.196 508.179 Q109.024 504.615 109.024 497.508 Q109.024 490.379 107.196 486.837 Q105.39 483.272 101.756 483.272 M101.756 479.569 Q107.566 479.569 110.621 484.175 Q113.7 488.758 113.7 497.508 Q113.7 506.235 110.621 510.842 Q107.566 515.425 101.756 515.425 Q95.9456 515.425 92.8669 510.842 Q89.8114 506.235 89.8114 497.508 Q89.8114 488.758 92.8669 484.175 Q95.9456 479.569 101.756 479.569 Z" fill="#000000" fill-rule="nonzero" fill-opacity="1" /><path clip-path="url(#clip430)" d="M121.918 508.874 L126.802 508.874 L126.802 514.754 L121.918 514.754 L121.918 508.874 Z" fill="#000000" fill-rule="nonzero" fill-opacity="1" /><path clip-path="url(#clip430)" d="M137.033 480.194 L155.39 480.194 L155.39 484.129 L141.316 484.129 L141.316 492.601 Q142.334 492.254 143.353 492.092 Q144.371 491.906 145.39 491.906 Q151.177 491.906 154.556 495.078 Q157.936 498.249 157.936 503.666 Q157.936 509.244 154.464 512.346 Q150.992 515.425 144.672 515.425 Q142.496 515.425 140.228 515.054 Q137.982 514.684 135.575 513.943 L135.575 509.244 Q137.658 510.379 139.881 510.934 Q142.103 511.49 144.58 511.49 Q148.584 511.49 150.922 509.383 Q153.26 507.277 153.26 503.666 Q153.26 500.055 150.922 497.948 Q148.584 495.842 144.58 495.842 Q142.705 495.842 140.83 496.258 Q138.978 496.675 137.033 497.555 L137.033 480.194 Z" fill="#000000" fill-rule="nonzero" fill-opacity="1" /><path clip-path="url(#clip430)" d="M91.5706 233.234 L99.2095 233.234 L99.2095 206.868 L90.8993 208.535 L90.8993 204.276 L99.1632 202.609 L103.839 202.609 L103.839 233.234 L111.478 233.234 L111.478 237.169 L91.5706 237.169 L91.5706 233.234 Z" fill="#000000" fill-rule="nonzero" fill-opacity="1" /><path clip-path="url(#clip430)" d="M120.922 231.29 L125.807 231.29 L125.807 237.169 L120.922 237.169 L120.922 231.29 Z" fill="#000000" fill-rule="nonzero" fill-opacity="1" /><path clip-path="url(#clip430)" d="M145.992 205.688 Q142.381 205.688 140.552 209.253 Q138.746 212.794 138.746 219.924 Q138.746 227.03 140.552 230.595 Q142.381 234.137 145.992 234.137 Q149.626 234.137 151.431 230.595 Q153.26 227.03 153.26 219.924 Q153.26 212.794 151.431 209.253 Q149.626 205.688 145.992 205.688 M145.992 201.984 Q151.802 201.984 154.857 206.591 Q157.936 211.174 157.936 219.924 Q157.936 228.651 154.857 233.257 Q151.802 237.84 145.992 237.84 Q140.181 237.84 137.103 233.257 Q134.047 228.651 134.047 219.924 Q134.047 211.174 137.103 206.591 Q140.181 201.984 145.992 201.984 Z" fill="#000000" fill-rule="nonzero" fill-opacity="1" /><polyline clip-path="url(#clip431)" style="stroke:#009af9; stroke-linecap:round; stroke-linejoin:round; stroke-width:4; stroke-opacity:1; fill:none" points="255.035,775.058 258.278,769.506 261.521,763.955 264.764,758.405 268.007,752.857 271.25,747.311 274.493,741.768 277.736,736.228 280.979,730.692 284.222,725.16 287.465,719.634 290.708,714.112 293.951,708.597 297.194,703.089 300.437,697.588 303.68,692.095 306.923,686.609 310.166,681.133 313.409,675.666 316.652,670.209 319.895,664.763 323.138,659.327 326.381,653.904 329.624,648.492 332.867,643.093 336.11,637.707 339.353,632.335 342.596,626.977 345.84,621.634 349.083,616.306 352.326,610.994 355.569,605.699 358.812,600.42 362.055,595.159 365.298,589.916 368.541,584.692 371.784,579.486 375.027,574.3 378.27,569.134 381.513,563.989 384.756,558.865 387.999,553.762 391.242,548.682 394.485,543.624 397.728,538.59 400.971,533.579 404.214,528.592 407.457,523.63 410.7,518.693 413.943,513.781 417.186,508.896 420.429,504.037 423.672,499.206 426.915,494.402 430.158,489.626 433.401,484.878 436.644,480.16 439.887,475.471 443.13,470.812 446.373,466.184 449.616,461.586 452.859,457.02 456.103,452.485 459.346,447.983 462.589,443.514 465.832,439.077 469.075,434.675 472.318,430.306 475.561,425.972 478.804,421.672 482.047,417.408 485.29,413.18 488.533,408.988 491.776,404.833 495.019,400.714 498.262,396.633 501.505,392.59 504.748,388.585 507.991,384.619 511.234,380.692 514.477,376.804 517.72,372.956 520.963,369.149 524.206,365.381 527.449,361.655 530.692,357.971 533.935,354.327 537.178,350.726 540.421,347.168 543.664,343.652 546.907,340.179 550.15,336.75 553.393,333.365 556.636,330.024 559.879,326.727 563.122,323.475 566.366,320.268 569.609,317.107 572.852,313.992 576.095,310.922 579.338,307.9 582.581,304.923 585.824,301.994 589.067,299.112 592.31,296.278 595.553,293.492 598.796,290.753 602.039,288.064 605.282,285.422 608.525,282.83 611.768,280.287 615.011,277.794 618.254,275.35 621.497,272.957 624.74,270.613 627.983,268.32 631.226,266.077 634.469,263.886 637.712,261.746 640.955,259.656 644.198,257.619 647.441,255.633 650.684,253.699 653.927,251.818 657.17,249.988 660.413,248.211 663.656,246.487 666.899,244.816 670.142,243.197 673.385,241.632 676.629,240.121 679.872,238.662 683.115,237.258 686.358,235.907 689.601,234.61 692.844,233.367 696.087,232.178 699.33,231.044 702.573,229.964 705.816,228.938 709.059,227.967 712.302,227.051 715.545,226.189 718.788,225.383 722.031,224.631 725.274,223.935 728.517,223.293 731.76,222.707 735.003,222.176 738.246,221.7 741.489,221.28 744.732,220.915 747.975,220.605 751.218,220.351 754.461,220.152 757.704,220.009 760.947,219.922 764.19,219.889 767.433,219.913 770.676,219.992 773.919,220.126 777.162,220.316 780.405,220.561 783.648,220.862 786.892,221.218 790.135,221.63 793.378,222.097 796.621,222.619 799.864,223.196 803.107,223.829 806.35,224.517 809.593,225.259 812.836,226.057 816.079,226.91 819.322,227.817 822.565,228.78 825.808,229.797 829.051,230.868 832.294,231.994 835.537,233.174 838.78,234.408 842.023,235.697 845.266,237.039 848.509,238.435 851.752,239.885 854.995,241.388 858.238,242.945 861.481,244.554 864.724,246.217 867.967,247.933 871.21,249.702 874.453,251.523 877.696,253.396 880.939,255.322 884.182,257.299 887.425,259.329 890.668,261.409 893.911,263.542 897.155,265.725 900.398,267.959 903.641,270.244 906.884,272.58 910.127,274.966 913.37,277.401 916.613,279.887 919.856,282.422 923.099,285.006 926.342,287.64 929.585,290.322 932.828,293.052 936.071,295.831 939.314,298.658 942.557,301.532 945.8,304.454 949.043,307.422 952.286,310.438 955.529,313.5 958.772,316.608 962.015,319.762 965.258,322.961 968.501,326.206 971.744,329.496 974.987,332.83 978.23,336.208 981.473,339.63 984.716,343.096 987.959,346.605 991.202,350.157 994.445,353.751 997.688,357.387 1000.93,361.066 1004.17,364.785 1007.42,368.546 1010.66,372.347 1013.9,376.189 1017.15,380.07 1020.39,383.991 1023.63,387.951 1026.88,391.95 1030.12,395.987 1033.36,400.062 1036.6,404.174 1039.85,408.324 1043.09,412.51 1046.33,416.733 1049.58,420.991 1052.82,425.285 1056.06,429.613 1059.31,433.977 1062.55,438.374 1065.79,442.805 1069.04,447.269 1072.28,451.766 1075.52,456.295 1078.76,460.857 1082.01,465.449 1085.25,470.073 1088.49,474.727 1091.74,479.411 1094.98,484.125 1098.22,488.868 1101.47,493.639 1104.71,498.439 1107.95,503.266 1111.19,508.12 1114.44,513.001 1117.68,517.909 1120.92,522.842 1124.17,527.8 1127.41,532.783 1130.65,537.79 1133.9,542.821 1137.14,547.875 1140.38,552.952 1143.62,558.051 1146.87,563.172 1150.11,568.314 1153.35,573.476 1156.6,578.659 1159.84,583.861 1163.08,589.083 1166.33,594.323 1169.57,599.581 1172.81,604.857 1176.06,610.15 1179.3,615.459 1182.54,620.784 1185.78,626.125 1189.03,631.481 1192.27,636.85 1195.51,642.234 1198.76,647.631 1202,653.041 1205.24,658.463 1208.49,663.896 1211.73,669.341 1214.97,674.796 1218.21,680.262 1221.46,685.737 1224.7,691.22 1227.94,696.712 1231.19,702.212 1234.43,707.72 1237.67,713.234 1240.92,718.754 1244.16,724.28 1247.4,729.81 1250.64,735.346 1253.89,740.885 1257.13,746.428 1260.37,751.974 1263.62,757.522 1266.86,763.071 1270.1,768.622 1273.35,774.174 1276.59,779.725 1279.83,785.277 1283.08,790.827 1286.32,796.375 1289.56,801.922 1292.8,807.465 1296.05,813.006 1299.29,818.543 1302.53,824.075 1305.78,829.602 1309.02,835.124 1312.26,840.64 1315.51,846.15 1318.75,851.652 1321.99,857.147 1325.23,862.633 1328.48,868.111 1331.72,873.579 1334.96,879.038 1338.21,884.486 1341.45,889.923 1344.69,895.349 1347.94,900.763 1351.18,906.164 1354.42,911.552 1357.66,916.926 1360.91,922.287 1364.15,927.632 1367.39,932.962 1370.64,938.277 1373.88,943.575 1377.12,948.856 1380.37,954.12 1383.61,959.366 1386.85,964.593 1390.1,969.802 1393.34,974.991 1396.58,980.16 1399.82,985.309 1403.07,990.436 1406.31,995.542 1409.55,1000.63 1412.8,1005.69 1416.04,1010.73 1419.28,1015.74 1422.53,1020.73 1425.77,1025.7 1429.01,1030.64 1432.25,1035.55 1435.5,1040.44 1438.74,1045.31 1441.98,1050.14 1445.23,1054.95 1448.47,1059.73 1451.71,1064.48 1454.96,1069.21 1458.2,1073.9 1461.44,1078.56 1464.68,1083.2 1467.93,1087.8 1471.17,1092.37 1474.41,1096.91 1477.66,1101.42 1480.9,1105.89 1484.14,1110.33 1487.39,1114.74 1490.63,1119.12 1493.87,1123.46 1497.11,1127.76 1500.36,1132.03 1503.6,1136.26 1506.84,1140.46 1510.09,1144.62 1513.33,1148.75 1516.57,1152.83 1519.82,1156.88 1523.06,1160.9 1526.3,1164.87 1529.55,1168.8 1532.79,1172.7 1536.03,1176.55 1539.27,1180.36 1542.52,1184.14 1545.76,1187.87 1549,1191.56 1552.25,1195.21 1555.49,1198.82 1558.73,1202.38 1561.98,1205.91 1565.22,1209.39 1568.46,1212.82 1571.7,1216.21 1574.95,1219.56 1578.19,1222.87 1581.43,1226.13 1584.68,1229.34 1587.92,1232.51 1591.16,1235.63 1594.41,1238.71 1597.65,1241.74 1600.89,1244.72 1604.13,1247.66 1607.38,1250.55 1610.62,1253.39 1613.86,1256.18 1617.11,1258.93 1620.35,1261.63 1623.59,1264.28 1626.84,1266.88 1630.08,1269.43 1633.32,1271.93 1636.57,1274.38 1639.81,1276.78 1643.05,1279.13 1646.29,1281.43 1649.54,1283.68 1652.78,1285.88 1656.02,1288.03 1659.27,1290.13 1662.51,1292.18 1665.75,1294.17 1669,1296.11 1672.24,1298 1675.48,1299.84 1678.72,1301.63 1681.97,1303.36 1685.21,1305.04 1688.45,1306.66 1691.7,1308.24 1694.94,1309.76 1698.18,1311.22 1701.43,1312.64 1704.67,1314 1707.91,1315.3 1711.15,1316.55 1714.4,1317.75 1717.64,1318.9 1720.88,1319.98 1724.13,1321.02 1727.37,1322 1730.61,1322.92 1733.86,1323.79 1737.1,1324.61 1740.34,1325.37 1743.59,1326.07 1746.83,1326.72 1750.07,1327.32 1753.31,1327.86 1756.56,1328.34 1759.8,1328.77 1763.04,1329.15 1766.29,1329.46 1769.53,1329.73 1772.77,1329.94 1776.02,1330.09 1779.26,1330.18 1782.5,1330.23 1785.74,1330.21 1788.99,1330.14 1792.23,1330.02 1795.47,1329.83 1798.72,1329.6 1801.96,1329.31 1805.2,1328.96 1808.45,1328.56 1811.69,1328.1 1814.93,1327.58 1818.17,1327.02 1821.42,1326.39 1824.66,1325.71 1827.9,1324.98 1831.15,1324.19 1834.39,1323.35 1837.63,1322.45 1840.88,1321.49 1844.12,1320.48 1847.36,1319.42 1850.61,1318.31 1853.85,1317.13 1857.09,1315.91 1860.33,1314.63 1863.58,1313.29 1866.82,1311.91 1870.06,1310.47 1873.31,1308.97 1876.55,1307.42 1879.79,1305.82 1883.04,1304.17 1886.28,1302.46 1889.52,1300.7 1892.76,1298.89 1896.01,1297.02 1899.25,1295.1 1902.49,1293.14 1905.74,1291.11 1908.98,1289.04 1912.22,1286.92 1915.47,1284.74 1918.71,1282.52 1921.95,1280.24 1925.19,1277.91 1928.44,1275.53 1931.68,1273.11 1934.92,1270.63 1938.17,1268.1 1941.41,1265.52 1944.65,1262.9 1947.9,1260.22 1951.14,1257.5 1954.38,1254.73 1957.63,1251.91 1960.87,1249.04 1964.11,1246.13 1967.35,1243.17 1970.6,1240.16 1973.84,1237.11 1977.08,1234.01 1980.33,1230.86 1983.57,1227.67 1986.81,1224.43 1990.06,1221.15 1993.3,1217.82 1996.54,1214.45 1999.78,1211.03 2003.03,1207.57 2006.27,1204.07 2009.51,1200.53 2012.76,1196.94 2016,1193.31 2019.24,1189.64 2022.49,1185.93 2025.73,1182.17 2028.97,1178.38 2032.21,1174.54 2035.46,1170.67 2038.7,1166.75 2041.94,1162.8 2045.19,1158.81 2048.43,1154.77 2051.67,1150.71 2054.92,1146.6 2058.16,1142.46 2061.4,1138.27 2064.65,1134.06 2067.89,1129.81 2071.13,1125.52 2074.37,1121.19 2077.62,1116.84 2080.86,1112.44 2084.1,1108.02 2087.35,1103.56 2090.59,1099.07 2093.83,1094.54 2097.08,1089.99 2100.32,1085.4 2103.56,1080.78 2106.8,1076.13 2110.05,1071.45 2113.29,1066.74 2116.53,1062.01 2119.78,1057.24 2123.02,1052.44 2126.26,1047.62 2129.51,1042.77 2132.75,1037.89 2135.99,1032.99 2139.23,1028.06 2142.48,1023.11 2145.72,1018.13 2148.96,1013.12 2152.21,1008.1 2155.45,1003.05 2158.69,997.974 2161.94,992.878 2165.18,987.761 2168.42,982.623 2171.67,977.463 2174.91,972.284 2178.15,967.084 2181.39,961.866 2184.64,956.629 2187.88,951.373 2191.12,946.1 2194.37,940.81 2197.61,935.503 2200.85,930.181 2204.1,924.842 2207.34,919.489 2210.58,914.122 2213.82,908.74 2217.07,903.345 2220.31,897.937 2223.55,892.517 2226.8,887.085 2230.04,881.642 2233.28,876.189 2236.53,870.725 2239.77,865.252 2243.01,859.769 2246.25,854.279 2249.5,848.78 2252.74,843.274 2255.98,837.761 2259.23,832.242 2262.47,826.717 2265.71,821.187 2268.96,815.652 2272.2,810.113 2275.44,804.571 2278.69,799.026 2281.93,793.478 2285.17,787.929 2288.41,782.378 2291.66,776.826 "/>
<circle clip-path="url(#clip431)" cx="2103.56" cy="988.656" r="14.4" fill="#e26f46" fill-rule="evenodd" fill-opacity="1" stroke="#000000" stroke-opacity="1" stroke-width="3.2"/>
<circle clip-path="url(#clip431)" cx="770.676" cy="184.754" r="14.4" fill="#e26f46" fill-rule="evenodd" fill-opacity="1" stroke="#000000" stroke-opacity="1" stroke-width="3.2"/>
<circle clip-path="url(#clip431)" cx="1938.17" cy="1201.23" r="14.4" fill="#e26f46" fill-rule="evenodd" fill-opacity="1" stroke="#000000" stroke-opacity="1" stroke-width="3.2"/>
<circle clip-path="url(#clip431)" cx="932.828" cy="294.824" r="14.4" fill="#e26f46" fill-rule="evenodd" fill-opacity="1" stroke="#000000" stroke-opacity="1" stroke-width="3.2"/>
<circle clip-path="url(#clip431)" cx="1467.93" cy="954.011" r="14.4" fill="#e26f46" fill-rule="evenodd" fill-opacity="1" stroke="#000000" stroke-opacity="1" stroke-width="3.2"/>
<circle clip-path="url(#clip431)" cx="2022.49" cy="1086.87" r="14.4" fill="#e26f46" fill-rule="evenodd" fill-opacity="1" stroke="#000000" stroke-opacity="1" stroke-width="3.2"/>
<circle clip-path="url(#clip431)" cx="472.318" cy="348.122" r="14.4" fill="#e26f46" fill-rule="evenodd" fill-opacity="1" stroke="#000000" stroke-opacity="1" stroke-width="3.2"/>
<circle clip-path="url(#clip431)" cx="1957.63" cy="1166" r="14.4" fill="#e26f46" fill-rule="evenodd" fill-opacity="1" stroke="#000000" stroke-opacity="1" stroke-width="3.2"/>
<circle clip-path="url(#clip431)" cx="874.453" cy="189.793" r="14.4" fill="#e26f46" fill-rule="evenodd" fill-opacity="1" stroke="#000000" stroke-opacity="1" stroke-width="3.2"/>
<circle clip-path="url(#clip431)" cx="400.971" cy="493.71" r="14.4" fill="#e26f46" fill-rule="evenodd" fill-opacity="1" stroke="#000000" stroke-opacity="1" stroke-width="3.2"/>
<circle clip-path="url(#clip431)" cx="812.836" cy="264.196" r="14.4" fill="#e26f46" fill-rule="evenodd" fill-opacity="1" stroke="#000000" stroke-opacity="1" stroke-width="3.2"/>
<circle clip-path="url(#clip431)" cx="1798.72" cy="1303" r="14.4" fill="#e26f46" fill-rule="evenodd" fill-opacity="1" stroke="#000000" stroke-opacity="1" stroke-width="3.2"/>
<circle clip-path="url(#clip431)" cx="1743.59" cy="1256.34" r="14.4" fill="#e26f46" fill-rule="evenodd" fill-opacity="1" stroke="#000000" stroke-opacity="1" stroke-width="3.2"/>
<circle clip-path="url(#clip431)" cx="1912.22" cy="1393.52" r="14.4" fill="#e26f46" fill-rule="evenodd" fill-opacity="1" stroke="#000000" stroke-opacity="1" stroke-width="3.2"/>
<circle clip-path="url(#clip431)" cx="1717.64" cy="1275.46" r="14.4" fill="#e26f46" fill-rule="evenodd" fill-opacity="1" stroke="#000000" stroke-opacity="1" stroke-width="3.2"/>
<circle clip-path="url(#clip431)" cx="647.441" cy="308.023" r="14.4" fill="#e26f46" fill-rule="evenodd" fill-opacity="1" stroke="#000000" stroke-opacity="1" stroke-width="3.2"/>
<circle clip-path="url(#clip431)" cx="647.441" cy="362.576" r="14.4" fill="#e26f46" fill-rule="evenodd" fill-opacity="1" stroke="#000000" stroke-opacity="1" stroke-width="3.2"/>
<circle clip-path="url(#clip431)" cx="1561.98" cy="1157.93" r="14.4" fill="#e26f46" fill-rule="evenodd" fill-opacity="1" stroke="#000000" stroke-opacity="1" stroke-width="3.2"/>
<circle clip-path="url(#clip431)" cx="2071.13" cy="1064.93" r="14.4" fill="#e26f46" fill-rule="evenodd" fill-opacity="1" stroke="#000000" stroke-opacity="1" stroke-width="3.2"/>
<circle clip-path="url(#clip431)" cx="1137.14" cy="490.161" r="14.4" fill="#e26f46" fill-rule="evenodd" fill-opacity="1" stroke="#000000" stroke-opacity="1" stroke-width="3.2"/>
<path clip-path="url(#clip431)" d="M255.035 981.64 L258.278 976.454 L261.521 971.213 L264.764 965.917 L268.007 960.567 L271.25 955.162 L274.493 949.704 L277.736 944.194 L280.979 938.633 L284.222 933.021 L287.465 927.361 L290.708 921.653 L293.951 915.898 L297.194 910.099 L300.437 904.257 L303.68 898.374 L306.923 892.452 L310.166 886.492 L313.409 880.499 L316.652 874.473 L319.895 868.419 L323.138 862.338 L326.381 856.234 L329.624 850.111 L332.867 843.972 L336.11 837.821 L339.353 831.663 L342.596 825.501 L345.84 819.342 L349.083 813.189 L352.326 807.049 L355.569 800.927 L358.812 794.829 L362.055 788.761 L365.298 782.732 L368.541 776.747 L371.784 770.814 L375.027 764.94 L378.27 759.136 L381.513 753.407 L384.756 747.764 L387.999 742.216 L391.242 736.771 L394.485 731.439 L397.728 726.229 L400.971 721.152 L404.214 716.214 L407.457 711.416 L410.7 706.754 L413.943 702.227 L417.186 697.831 L420.429 693.565 L423.672 689.426 L426.915 685.413 L430.158 681.523 L433.401 677.755 L436.644 674.107 L439.887 670.579 L443.13 667.17 L446.373 663.879 L449.616 660.707 L452.859 657.653 L456.103 654.719 L459.346 651.905 L462.589 649.212 L465.832 646.642 L469.075 644.196 L472.318 641.876 L475.561 639.683 L478.804 637.604 L482.047 635.627 L485.29 633.739 L488.533 631.928 L491.776 630.182 L495.019 628.489 L498.262 626.837 L501.505 625.217 L504.748 623.617 L507.991 622.029 L511.234 620.443 L514.477 618.851 L517.72 617.244 L520.963 615.615 L524.206 613.957 L527.449 612.265 L530.692 610.532 L533.935 608.752 L537.178 606.923 L540.421 605.038 L543.664 603.095 L546.907 601.091 L550.15 599.023 L553.393 596.889 L556.636 594.688 L559.879 592.419 L563.122 590.081 L566.366 587.675 L569.609 585.2 L572.852 582.659 L576.095 580.053 L579.338 577.384 L582.581 574.654 L585.824 571.868 L589.067 569.03 L592.31 566.142 L595.553 563.211 L598.796 560.243 L602.039 557.242 L605.282 554.216 L608.525 551.173 L611.768 548.119 L615.011 545.063 L618.254 542.015 L621.497 538.983 L624.74 535.977 L627.983 533.007 L631.226 530.084 L634.469 527.219 L637.712 524.422 L640.955 521.705 L644.198 519.078 L647.441 516.552 L650.684 514.135 L653.927 511.821 L657.17 509.601 L660.413 507.466 L663.656 505.405 L666.899 503.411 L670.142 501.474 L673.385 499.585 L676.629 497.736 L679.872 495.918 L683.115 494.125 L686.358 492.35 L689.601 490.585 L692.844 488.826 L696.087 487.068 L699.33 485.306 L702.573 483.536 L705.816 481.757 L709.059 479.965 L712.302 478.16 L715.545 476.341 L718.788 474.509 L722.031 472.664 L725.274 470.807 L728.517 468.943 L731.76 467.073 L735.003 465.202 L738.246 463.335 L741.489 461.477 L744.732 459.635 L747.975 457.816 L751.218 456.027 L754.461 454.277 L757.704 452.575 L760.947 450.93 L764.19 449.354 L767.433 447.857 L770.676 446.45 L773.919 445.143 L777.162 443.937 L780.405 442.83 L783.648 441.823 L786.892 440.915 L790.135 440.106 L793.378 439.398 L796.621 438.792 L799.864 438.29 L803.107 437.895 L806.35 437.61 L809.593 437.438 L812.836 437.384 L816.079 437.45 L819.322 437.635 L822.565 437.933 L825.808 438.343 L829.051 438.862 L832.294 439.487 L835.537 440.217 L838.78 441.052 L842.023 441.992 L845.266 443.037 L848.509 444.19 L851.752 445.452 L854.995 446.827 L858.238 448.318 L861.481 449.931 L864.724 451.669 L867.967 453.539 L871.21 455.547 L874.453 457.7 L877.696 460.002 L880.939 462.449 L884.182 465.036 L887.425 467.757 L890.668 470.606 L893.911 473.578 L897.155 476.671 L900.398 479.879 L903.641 483.2 L906.884 486.631 L910.127 490.171 L913.37 493.817 L916.613 497.568 L919.856 501.424 L923.099 505.385 L926.342 509.45 L929.585 513.62 L932.828 517.896 L936.071 522.276 L939.314 526.751 L942.557 531.311 L945.8 535.946 L949.043 540.646 L952.286 545.402 L955.529 550.203 L958.772 555.042 L962.015 559.91 L965.258 564.798 L968.501 569.7 L971.744 574.608 L974.987 579.516 L978.23 584.417 L981.473 589.306 L984.716 594.176 L987.959 599.024 L991.202 603.845 L994.445 608.633 L997.688 613.387 L1000.93 618.102 L1004.17 622.776 L1007.42 627.405 L1010.66 631.988 L1013.9 636.523 L1017.15 641.008 L1020.39 645.443 L1023.63 649.826 L1026.88 654.157 L1030.12 658.436 L1033.36 662.664 L1036.6 666.84 L1039.85 670.967 L1043.09 675.044 L1046.33 679.075 L1049.58 683.06 L1052.82 687.003 L1056.06 690.906 L1059.31 694.772 L1062.55 698.604 L1065.79 702.406 L1069.04 706.183 L1072.28 709.938 L1075.52 713.677 L1078.76 717.405 L1082.01 721.126 L1085.25 724.848 L1088.49 728.575 L1091.74 732.316 L1094.98 736.075 L1098.22 739.861 L1101.47 743.681 L1104.71 747.542 L1107.95 751.452 L1111.19 755.42 L1114.44 759.454 L1117.68 763.562 L1120.92 767.752 L1124.17 772.034 L1127.41 776.416 L1130.65 780.907 L1133.9 785.515 L1137.14 790.249 L1140.38 795.114 L1143.62 800.105 L1146.87 805.214 L1150.11 810.435 L1153.35 815.758 L1156.6 821.175 L1159.84 826.679 L1163.08 832.262 L1166.33 837.915 L1169.57 843.632 L1172.81 849.404 L1176.06 855.225 L1179.3 861.086 L1182.54 866.982 L1185.78 872.905 L1189.03 878.849 L1192.27 884.808 L1195.51 890.776 L1198.76 896.746 L1202 902.714 L1205.24 908.674 L1208.49 914.622 L1211.73 920.552 L1214.97 926.46 L1218.21 932.341 L1221.46 938.193 L1224.7 944.01 L1227.94 949.789 L1231.19 955.526 L1234.43 961.219 L1237.67 966.865 L1240.92 972.46 L1244.16 978.002 L1247.4 983.488 L1250.64 988.916 L1253.89 994.283 L1257.13 999.589 L1260.37 1004.83 L1263.62 1010 L1266.86 1015.11 L1270.1 1020.15 L1273.35 1025.12 L1276.59 1030.01 L1279.83 1034.83 L1283.08 1039.58 L1286.32 1044.26 L1289.56 1048.85 L1292.8 1053.37 L1296.05 1057.82 L1299.29 1062.18 L1302.53 1066.47 L1305.78 1070.68 L1309.02 1074.81 L1312.26 1078.87 L1315.51 1082.84 L1318.75 1086.74 L1321.99 1090.55 L1325.23 1094.29 L1328.48 1097.95 L1331.72 1101.54 L1334.96 1105.05 L1338.21 1108.48 L1341.45 1111.83 L1344.69 1115.11 L1347.94 1118.32 L1351.18 1121.46 L1354.42 1124.52 L1357.66 1127.52 L1360.91 1130.45 L1364.15 1133.31 L1367.39 1136.1 L1370.64 1138.84 L1373.88 1141.51 L1377.12 1144.12 L1380.37 1146.68 L1383.61 1149.19 L1386.85 1151.64 L1390.1 1154.05 L1393.34 1156.41 L1396.58 1158.73 L1399.82 1161.01 L1403.07 1163.26 L1406.31 1165.47 L1409.55 1167.66 L1412.8 1169.83 L1416.04 1171.99 L1419.28 1174.13 L1422.53 1176.26 L1425.77 1178.4 L1429.01 1180.54 L1432.25 1182.69 L1435.5 1184.85 L1438.74 1187.04 L1441.98 1189.26 L1445.23 1191.52 L1448.47 1193.82 L1451.71 1196.18 L1454.96 1198.59 L1458.2 1201.07 L1461.44 1203.63 L1464.68 1206.27 L1467.93 1209 L1471.17 1211.83 L1474.41 1214.75 L1477.66 1217.76 L1480.9 1220.85 L1484.14 1224.01 L1487.39 1227.25 L1490.63 1230.55 L1493.87 1233.91 L1497.11 1237.32 L1500.36 1240.78 L1503.6 1244.28 L1506.84 1247.82 L1510.09 1251.4 L1513.33 1255 L1516.57 1258.64 L1519.82 1262.3 L1523.06 1265.98 L1526.3 1269.67 L1529.55 1273.39 L1532.79 1277.12 L1536.03 1280.86 L1539.27 1284.61 L1542.52 1288.38 L1545.76 1292.15 L1549 1295.94 L1552.25 1299.73 L1555.49 1303.54 L1558.73 1307.36 L1561.98 1311.18 L1565.22 1315.02 L1568.46 1318.85 L1571.7 1322.69 L1574.95 1326.51 L1578.19 1330.3 L1581.43 1334.08 L1584.68 1337.81 L1587.92 1341.51 L1591.16 1345.15 L1594.41 1348.74 L1597.65 1352.27 L1600.89 1355.73 L1604.13 1359.12 L1607.38 1362.44 L1610.62 1365.67 L1613.86 1368.82 L1617.11 1371.87 L1620.35 1374.84 L1623.59 1377.71 L1626.84 1380.48 L1630.08 1383.15 L1633.32 1385.72 L1636.57 1388.18 L1639.81 1390.54 L1643.05 1392.8 L1646.29 1394.95 L1649.54 1397 L1652.78 1398.94 L1656.02 1400.78 L1659.27 1402.52 L1662.51 1404.16 L1665.75 1405.71 L1669 1407.16 L1672.24 1408.52 L1675.48 1409.8 L1678.72 1410.99 L1681.97 1412.11 L1685.21 1413.15 L1688.45 1414.13 L1691.7 1415.06 L1694.94 1415.93 L1698.18 1416.75 L1701.43 1417.54 L1704.67 1418.31 L1707.91 1419.05 L1711.15 1419.78 L1714.4 1420.51 L1717.64 1421.24 L1720.88 1421.99 L1724.13 1422.76 L1727.37 1423.55 L1730.61 1424.37 L1733.86 1425.21 L1737.1 1426.07 L1740.34 1426.96 L1743.59 1427.88 L1746.83 1428.84 L1750.07 1429.81 L1753.31 1430.81 L1756.56 1431.81 L1759.8 1432.82 L1763.04 1433.83 L1766.29 1434.82 L1769.53 1435.8 L1772.77 1436.76 L1776.02 1437.7 L1779.26 1438.6 L1782.5 1439.47 L1785.74 1440.3 L1788.99 1441.09 L1792.23 1441.83 L1795.47 1442.53 L1798.72 1443.17 L1801.96 1443.76 L1805.2 1444.29 L1808.45 1444.75 L1811.69 1445.13 L1814.93 1445.42 L1818.17 1445.62 L1821.42 1445.72 L1824.66 1445.7 L1827.9 1445.57 L1831.15 1445.32 L1834.39 1444.94 L1837.63 1444.42 L1840.88 1443.78 L1844.12 1442.99 L1847.36 1442.06 L1850.61 1440.99 L1853.85 1439.77 L1857.09 1438.4 L1860.33 1436.88 L1863.58 1435.21 L1866.82 1433.4 L1870.06 1431.44 L1873.31 1429.33 L1876.55 1427.08 L1879.79 1424.7 L1883.04 1422.17 L1886.28 1419.51 L1889.52 1416.73 L1892.76 1413.83 L1896.01 1410.81 L1899.25 1407.68 L1902.49 1404.45 L1905.74 1401.13 L1908.98 1397.72 L1912.22 1394.24 L1915.47 1390.69 L1918.71 1387.08 L1921.95 1383.43 L1925.19 1379.73 L1928.44 1376.01 L1931.68 1372.26 L1934.92 1368.51 L1938.17 1364.76 L1941.41 1361.02 L1944.65 1357.3 L1947.9 1353.59 L1951.14 1349.9 L1954.38 1346.24 L1957.63 1342.6 L1960.87 1338.99 L1964.11 1335.41 L1967.35 1331.84 L1970.6 1328.29 L1973.84 1324.75 L1977.08 1321.21 L1980.33 1317.68 L1983.57 1314.15 L1986.81 1310.63 L1990.06 1307.1 L1993.3 1303.59 L1996.54 1300.07 L1999.78 1296.57 L2003.03 1293.08 L2006.27 1289.62 L2009.51 1286.17 L2012.76 1282.77 L2016 1279.4 L2019.24 1276.08 L2022.49 1272.83 L2025.73 1269.64 L2028.97 1266.53 L2032.21 1263.48 L2035.46 1260.52 L2038.7 1257.64 L2041.94 1254.84 L2045.19 1252.14 L2048.43 1249.52 L2051.67 1247.02 L2054.92 1244.62 L2058.16 1242.33 L2061.4 1240.17 L2064.65 1238.15 L2067.89 1236.27 L2071.13 1234.54 L2074.37 1232.97 L2077.62 1231.56 L2080.86 1230.31 L2084.1 1229.23 L2087.35 1228.31 L2090.59 1227.55 L2093.83 1226.97 L2097.08 1226.55 L2100.32 1226.3 L2103.56 1226.22 L2106.8 1226.31 L2110.05 1226.56 L2113.29 1226.96 L2116.53 1227.51 L2119.78 1228.18 L2123.02 1228.98 L2126.26 1229.89 L2129.51 1230.89 L2132.75 1232 L2135.99 1233.19 L2139.23 1234.45 L2142.48 1235.79 L2145.72 1237.19 L2148.96 1238.64 L2152.21 1240.15 L2155.45 1241.7 L2158.69 1243.29 L2161.94 1244.91 L2165.18 1246.57 L2168.42 1248.25 L2171.67 1249.95 L2174.91 1251.67 L2178.15 1253.4 L2181.39 1255.14 L2184.64 1256.89 L2187.88 1258.64 L2191.12 1260.4 L2194.37 1262.15 L2197.61 1263.9 L2200.85 1265.65 L2204.1 1267.38 L2207.34 1269.11 L2210.58 1270.83 L2213.82 1272.54 L2217.07 1274.23 L2220.31 1275.91 L2223.55 1277.57 L2226.8 1279.22 L2230.04 1280.85 L2233.28 1282.46 L2236.53 1284.04 L2239.77 1285.61 L2243.01 1287.16 L2246.25 1288.69 L2249.5 1290.19 L2252.74 1291.67 L2255.98 1293.13 L2259.23 1294.56 L2262.47 1295.97 L2265.71 1297.36 L2268.96 1298.72 L2272.2 1300.06 L2275.44 1301.38 L2278.69 1302.67 L2281.93 1303.93 L2285.17 1305.17 L2288.41 1306.39 L2291.66 1307.58 L2291.66 465.411 L2288.41 469.743 L2285.17 474.142 L2281.93 478.607 L2278.69 483.139 L2275.44 487.739 L2272.2 492.408 L2268.96 497.144 L2265.71 501.95 L2262.47 506.826 L2259.23 511.771 L2255.98 516.786 L2252.74 521.871 L2249.5 527.027 L2246.25 532.253 L2243.01 537.55 L2239.77 542.917 L2236.53 548.356 L2233.28 553.865 L2230.04 559.444 L2226.8 565.094 L2223.55 570.814 L2220.31 576.603 L2217.07 582.462 L2213.82 588.389 L2210.58 594.384 L2207.34 600.446 L2204.1 606.574 L2200.85 612.768 L2197.61 619.025 L2194.37 625.345 L2191.12 631.726 L2187.88 638.167 L2184.64 644.665 L2181.39 651.219 L2178.15 657.827 L2174.91 664.485 L2171.67 671.192 L2168.42 677.944 L2165.18 684.739 L2161.94 691.572 L2158.69 698.441 L2155.45 705.34 L2152.21 712.266 L2148.96 719.214 L2145.72 726.179 L2142.48 733.155 L2139.23 740.136 L2135.99 747.117 L2132.75 754.09 L2129.51 761.048 L2126.26 767.985 L2123.02 774.892 L2119.78 781.76 L2116.53 788.581 L2113.29 795.346 L2110.05 802.046 L2106.8 808.67 L2103.56 815.209 L2100.32 821.655 L2097.08 828.004 L2093.83 834.257 L2090.59 840.411 L2087.35 846.466 L2084.1 852.419 L2080.86 858.27 L2077.62 864.017 L2074.37 869.658 L2071.13 875.191 L2067.89 880.616 L2064.65 885.938 L2061.4 891.165 L2058.16 896.305 L2054.92 901.365 L2051.67 906.35 L2048.43 911.267 L2045.19 916.121 L2041.94 920.916 L2038.7 925.657 L2035.46 930.345 L2032.21 934.985 L2028.97 939.577 L2025.73 944.122 L2022.49 948.619 L2019.24 953.071 L2016 957.481 L2012.76 961.854 L2009.51 966.195 L2006.27 970.507 L2003.03 974.792 L1999.78 979.053 L1996.54 983.289 L1993.3 987.5 L1990.06 991.683 L1986.81 995.837 L1983.57 999.957 L1980.33 1004.04 L1977.08 1008.07 L1973.84 1012.06 L1970.6 1015.98 L1967.35 1019.84 L1964.11 1023.62 L1960.87 1027.3 L1957.63 1030.89 L1954.38 1034.36 L1951.14 1037.72 L1947.9 1040.96 L1944.65 1044.06 L1941.41 1047.03 L1938.17 1049.86 L1934.92 1052.54 L1931.68 1055.07 L1928.44 1057.46 L1925.19 1059.69 L1921.95 1061.78 L1918.71 1063.72 L1915.47 1065.51 L1912.22 1067.15 L1908.98 1068.64 L1905.74 1069.99 L1902.49 1071.21 L1899.25 1072.32 L1896.01 1073.33 L1892.76 1074.25 L1889.52 1075.09 L1886.28 1075.87 L1883.04 1076.6 L1879.79 1077.27 L1876.55 1077.9 L1873.31 1078.5 L1870.06 1079.08 L1866.82 1079.63 L1863.58 1080.16 L1860.33 1080.69 L1857.09 1081.2 L1853.85 1081.7 L1850.61 1082.2 L1847.36 1082.69 L1844.12 1083.17 L1840.88 1083.65 L1837.63 1084.12 L1834.39 1084.58 L1831.15 1085.03 L1827.9 1085.46 L1824.66 1085.86 L1821.42 1086.24 L1818.17 1086.59 L1814.93 1086.89 L1811.69 1087.15 L1808.45 1087.35 L1805.2 1087.49 L1801.96 1087.55 L1798.72 1087.53 L1795.47 1087.42 L1792.23 1087.21 L1788.99 1086.92 L1785.74 1086.53 L1782.5 1086.05 L1779.26 1085.47 L1776.02 1084.8 L1772.77 1084.03 L1769.53 1083.15 L1766.29 1082.17 L1763.04 1081.08 L1759.8 1079.88 L1756.56 1078.56 L1753.31 1077.11 L1750.07 1075.53 L1746.83 1073.81 L1743.59 1071.95 L1740.34 1069.93 L1737.1 1067.77 L1733.86 1065.46 L1730.61 1063.01 L1727.37 1060.41 L1724.13 1057.67 L1720.88 1054.8 L1717.64 1051.79 L1714.4 1048.64 L1711.15 1045.37 L1707.91 1041.99 L1704.67 1038.52 L1701.43 1034.95 L1698.18 1031.32 L1694.94 1027.62 L1691.7 1023.87 L1688.45 1020.08 L1685.21 1016.25 L1681.97 1012.4 L1678.72 1008.53 L1675.48 1004.65 L1672.24 1000.77 L1669 996.893 L1665.75 993.026 L1662.51 989.173 L1659.27 985.339 L1656.02 981.526 L1652.78 977.74 L1649.54 973.981 L1646.29 970.253 L1643.05 966.556 L1639.81 962.892 L1636.57 959.261 L1633.32 955.664 L1630.08 952.098 L1626.84 948.564 L1623.59 945.059 L1620.35 941.582 L1617.11 938.129 L1613.86 934.697 L1610.62 931.283 L1607.38 927.883 L1604.13 924.491 L1600.89 921.102 L1597.65 917.712 L1594.41 914.312 L1591.16 910.897 L1587.92 907.46 L1584.68 903.993 L1581.43 900.487 L1578.19 896.936 L1574.95 893.328 L1571.7 889.657 L1568.46 885.911 L1565.22 882.082 L1561.98 878.159 L1558.73 874.136 L1555.49 870.013 L1552.25 865.796 L1549 861.489 L1545.76 857.095 L1542.52 852.619 L1539.27 848.063 L1536.03 843.432 L1532.79 838.727 L1529.55 833.951 L1526.3 829.106 L1523.06 824.194 L1519.82 819.215 L1516.57 814.17 L1513.33 809.06 L1510.09 803.884 L1506.84 798.642 L1503.6 793.333 L1500.36 787.954 L1497.11 782.505 L1493.87 776.984 L1490.63 771.387 L1487.39 765.712 L1484.14 759.957 L1480.9 754.118 L1477.66 748.191 L1474.41 742.174 L1471.17 736.062 L1467.93 729.853 L1464.68 723.545 L1461.44 717.145 L1458.2 710.66 L1454.96 704.1 L1451.71 697.473 L1448.47 690.786 L1445.23 684.048 L1441.98 677.267 L1438.74 670.451 L1435.5 663.607 L1432.25 656.741 L1429.01 649.862 L1425.77 642.976 L1422.53 636.088 L1419.28 629.206 L1416.04 622.334 L1412.8 615.479 L1409.55 608.645 L1406.31 601.838 L1403.07 595.061 L1399.82 588.32 L1396.58 581.618 L1393.34 574.96 L1390.1 568.349 L1386.85 561.789 L1383.61 555.282 L1380.37 548.832 L1377.12 542.441 L1373.88 536.113 L1370.64 529.849 L1367.39 523.653 L1364.15 517.525 L1360.91 511.468 L1357.66 505.484 L1354.42 499.574 L1351.18 493.741 L1347.94 487.984 L1344.69 482.307 L1341.45 476.708 L1338.21 471.191 L1334.96 465.755 L1331.72 460.402 L1328.48 455.132 L1325.23 449.945 L1321.99 444.843 L1318.75 439.825 L1315.51 434.893 L1312.26 430.045 L1309.02 425.283 L1305.78 420.606 L1302.53 416.014 L1299.29 411.508 L1296.05 407.086 L1292.8 402.749 L1289.56 398.496 L1286.32 394.327 L1283.08 390.241 L1279.83 386.237 L1276.59 382.315 L1273.35 378.474 L1270.1 374.712 L1266.86 371.03 L1263.62 367.425 L1260.37 363.897 L1257.13 360.443 L1253.89 357.063 L1250.64 353.756 L1247.4 350.518 L1244.16 347.349 L1240.92 344.246 L1237.67 341.207 L1234.43 338.231 L1231.19 335.314 L1227.94 332.454 L1224.7 329.648 L1221.46 326.894 L1218.21 324.189 L1214.97 321.528 L1211.73 318.91 L1208.49 316.33 L1205.24 313.784 L1202 311.268 L1198.76 308.779 L1195.51 306.312 L1192.27 303.862 L1189.03 301.425 L1185.78 298.995 L1182.54 296.567 L1179.3 294.137 L1176.06 291.697 L1172.81 289.244 L1169.57 286.77 L1166.33 284.27 L1163.08 281.737 L1159.84 279.165 L1156.6 276.548 L1153.35 273.88 L1150.11 271.153 L1146.87 268.362 L1143.62 265.501 L1140.38 262.563 L1137.14 259.542 L1133.9 256.434 L1130.65 253.245 L1127.41 249.981 L1124.17 246.649 L1120.92 243.256 L1117.68 239.81 L1114.44 236.318 L1111.19 232.788 L1107.95 229.227 L1104.71 225.642 L1101.47 222.039 L1098.22 218.427 L1094.98 214.813 L1091.74 211.201 L1088.49 207.6 L1085.25 204.015 L1082.01 200.452 L1078.76 196.917 L1075.52 193.415 L1072.28 189.952 L1069.04 186.531 L1065.79 183.159 L1062.55 179.839 L1059.31 176.575 L1056.06 173.372 L1052.82 170.232 L1049.58 167.159 L1046.33 164.156 L1043.09 161.225 L1039.85 158.37 L1036.6 155.592 L1033.36 152.893 L1030.12 150.274 L1026.88 147.739 L1023.63 145.286 L1020.39 142.918 L1017.15 140.635 L1013.9 138.437 L1010.66 136.324 L1007.42 134.297 L1004.17 132.354 L1000.93 130.496 L997.688 128.721 L994.445 127.027 L991.202 125.414 L987.959 123.88 L984.716 122.421 L981.473 121.037 L978.23 119.723 L974.987 118.478 L971.744 117.297 L968.501 116.177 L965.258 115.113 L962.015 114.103 L958.772 113.14 L955.529 112.219 L952.286 111.337 L949.043 110.486 L945.8 109.661 L942.557 108.857 L939.314 108.065 L936.071 107.282 L932.828 106.498 L929.585 105.711 L926.342 104.92 L923.099 104.13 L919.856 103.344 L916.613 102.563 L913.37 101.791 L910.127 101.03 L906.884 100.283 L903.641 99.5513 L900.398 98.8362 L897.155 98.139 L893.911 97.4606 L890.668 96.8014 L887.425 96.1615 L884.182 95.5407 L880.939 94.9384 L877.696 94.3538 L874.453 93.7858 L871.21 93.2339 L867.967 92.7009 L864.724 92.19 L861.481 91.7044 L858.238 91.2466 L854.995 90.8191 L851.752 90.4235 L848.509 90.0613 L845.266 89.7332 L842.023 89.4394 L838.78 89.1797 L835.537 88.9531 L832.294 88.7581 L829.051 88.5928 L825.808 88.4546 L822.565 88.3404 L819.322 88.2468 L816.079 88.1699 L812.836 88.1054 L809.593 88.0504 L806.35 88.0078 L803.107 87.9818 L799.864 87.9763 L796.621 87.9949 L793.378 88.0409 L790.135 88.1171 L786.892 88.2259 L783.648 88.3696 L780.405 88.5498 L777.162 88.768 L773.919 89.0252 L770.676 89.3223 L767.433 89.6607 L764.19 90.0448 L760.947 90.4799 L757.704 90.9706 L754.461 91.5214 L751.218 92.1363 L747.975 92.8186 L744.732 93.5715 L741.489 94.3973 L738.246 95.2978 L735.003 96.2744 L731.76 97.3277 L728.517 98.4578 L725.274 99.6641 L722.031 100.945 L718.788 102.3 L715.545 103.725 L712.302 105.218 L709.059 106.775 L705.816 108.391 L702.573 110.061 L699.33 111.78 L696.087 113.541 L692.844 115.338 L689.601 117.162 L686.358 119.006 L683.115 120.861 L679.872 122.717 L676.629 124.565 L673.385 126.393 L670.142 128.193 L666.899 129.952 L663.656 131.659 L660.413 133.302 L657.17 134.871 L653.927 136.352 L650.684 137.736 L647.441 139.01 L644.198 140.167 L640.955 141.213 L637.712 142.16 L634.469 143.017 L631.226 143.795 L627.983 144.506 L624.74 145.16 L621.497 145.768 L618.254 146.339 L615.011 146.883 L611.768 147.411 L608.525 147.93 L605.282 148.451 L602.039 148.981 L598.796 149.527 L595.553 150.097 L592.31 150.699 L589.067 151.337 L585.824 152.018 L582.581 152.747 L579.338 153.529 L576.095 154.368 L572.852 155.268 L569.609 156.232 L566.366 157.264 L563.122 158.365 L559.879 159.538 L556.636 160.784 L553.393 162.104 L550.15 163.499 L546.907 164.969 L543.664 166.513 L540.421 168.132 L537.178 169.824 L533.935 171.587 L530.692 173.419 L527.449 175.318 L524.206 177.28 L520.963 179.303 L517.72 181.382 L514.477 183.513 L511.234 185.691 L507.991 187.911 L504.748 190.166 L501.505 192.451 L498.262 194.758 L495.019 197.081 L491.776 199.412 L488.533 201.743 L485.29 204.065 L482.047 206.369 L478.804 208.648 L475.561 210.891 L472.318 213.089 L469.075 215.234 L465.832 217.322 L462.589 219.351 L459.346 221.319 L456.103 223.223 L452.859 225.059 L449.616 226.826 L446.373 228.519 L443.13 230.135 L439.887 231.672 L436.644 233.124 L433.401 234.487 L430.158 235.758 L426.915 236.932 L423.672 238.003 L420.429 238.967 L417.186 239.819 L413.943 240.553 L410.7 241.165 L407.457 241.648 L404.214 241.998 L400.971 242.208 L397.728 242.278 L394.485 242.211 L391.242 242.017 L387.999 241.703 L384.756 241.278 L381.513 240.749 L378.27 240.125 L375.027 239.413 L371.784 238.62 L368.541 237.754 L365.298 236.821 L362.055 235.828 L358.812 234.781 L355.569 233.685 L352.326 232.548 L349.083 231.372 L345.84 230.165 L342.596 228.93 L339.353 227.671 L336.11 226.394 L332.867 225.101 L329.624 223.796 L326.381 222.483 L323.138 221.164 L319.895 219.843 L316.652 218.523 L313.409 217.205 L310.166 215.892 L306.923 214.586 L303.68 213.289 L300.437 212.003 L297.194 210.73 L293.951 209.471 L290.708 208.227 L287.465 206.999 L284.222 205.79 L280.979 204.599 L277.736 203.428 L274.493 202.277 L271.25 201.147 L268.007 200.04 L264.764 198.954 L261.521 197.892 L258.278 196.853 L255.035 195.838  Z" fill="#3da44d" fill-rule="evenodd" fill-opacity="0.1"/>
<polyline clip-path="url(#clip431)" style="stroke:#3da44d; stroke-linecap:round; stroke-linejoin:round; stroke-width:8; stroke-opacity:1; fill:none" points="255.035,588.739 258.278,586.654 261.521,584.553 264.764,582.436 268.007,580.303 271.25,578.155 274.493,575.99 277.736,573.811 280.979,571.616 284.222,569.406 287.465,567.18 290.708,564.94 293.951,562.685 297.194,560.415 300.437,558.13 303.68,555.832 306.923,553.519 310.166,551.192 313.409,548.852 316.652,546.498 319.895,544.131 323.138,541.751 326.381,539.358 329.624,536.953 332.867,534.536 336.11,532.107 339.353,529.667 342.596,527.216 345.84,524.753 349.083,522.281 352.326,519.798 355.569,517.306 358.812,514.805 362.055,512.295 365.298,509.776 368.541,507.25 371.784,504.717 375.027,502.177 378.27,499.63 381.513,497.078 384.756,494.521 387.999,491.959 391.242,489.394 394.485,486.825 397.728,484.253 400.971,481.68 404.214,479.106 407.457,476.532 410.7,473.959 413.943,471.39 417.186,468.825 420.429,466.266 423.672,463.715 426.915,461.172 430.158,458.641 433.401,456.121 436.644,453.615 439.887,451.125 443.13,448.653 446.373,446.199 449.616,443.766 452.859,441.356 456.103,438.971 459.346,436.612 462.589,434.282 465.832,431.982 469.075,429.715 472.318,427.483 475.561,425.287 478.804,423.126 482.047,420.998 485.29,418.902 488.533,416.835 491.776,414.797 495.019,412.785 498.262,410.798 501.505,408.834 504.748,406.892 507.991,404.97 511.234,403.067 514.477,401.182 517.72,399.313 520.963,397.459 524.206,395.619 527.449,393.791 530.692,391.975 533.935,390.17 537.178,388.373 540.421,386.585 543.664,384.804 546.907,383.03 550.15,381.261 553.393,379.496 556.636,377.736 559.879,375.978 563.122,374.223 566.366,372.469 569.609,370.716 572.852,368.963 576.095,367.21 579.338,365.456 582.581,363.701 585.824,361.943 589.067,360.183 592.31,358.42 595.553,356.654 598.796,354.885 602.039,353.111 605.282,351.334 608.525,349.551 611.768,347.765 615.011,345.973 618.254,344.177 621.497,342.375 624.74,340.568 627.983,338.757 631.226,336.94 634.469,335.118 637.712,333.291 640.955,331.459 644.198,329.622 647.441,327.781 650.684,325.936 653.927,324.087 657.17,322.236 660.413,320.384 663.656,318.532 666.899,316.682 670.142,314.833 673.385,312.989 676.629,311.15 679.872,309.318 683.115,307.493 686.358,305.678 689.601,303.874 692.844,302.082 696.087,300.305 699.33,298.543 702.573,296.799 705.816,295.074 709.059,293.37 712.302,291.689 715.545,290.033 718.788,288.404 722.031,286.805 725.274,285.236 728.517,283.7 731.76,282.2 735.003,280.738 738.246,279.316 741.489,277.937 744.732,276.603 747.975,275.317 751.218,274.082 754.461,272.899 757.704,271.773 760.947,270.705 764.19,269.699 767.433,268.759 770.676,267.886 773.919,267.084 777.162,266.352 780.405,265.69 783.648,265.096 786.892,264.57 790.135,264.112 793.378,263.72 796.621,263.394 799.864,263.133 803.107,262.939 806.35,262.809 809.593,262.744 812.836,262.745 816.079,262.81 819.322,262.941 822.565,263.137 825.808,263.399 829.051,263.727 832.294,264.122 835.537,264.585 838.78,265.116 842.023,265.716 845.266,266.385 848.509,267.126 851.752,267.938 854.995,268.823 858.238,269.782 861.481,270.817 864.724,271.929 867.967,273.12 871.21,274.39 874.453,275.743 877.696,277.178 880.939,278.694 884.182,280.288 887.425,281.959 890.668,283.704 893.911,285.519 897.155,287.405 900.398,289.357 903.641,291.376 906.884,293.457 910.127,295.601 913.37,297.804 916.613,300.066 919.856,302.384 923.099,304.758 926.342,307.185 929.585,309.666 932.828,312.197 936.071,314.779 939.314,317.408 942.557,320.084 945.8,322.804 949.043,325.566 952.286,328.369 955.529,331.211 958.772,334.091 962.015,337.006 965.258,339.956 968.501,342.938 971.744,345.953 974.987,348.997 978.23,352.07 981.473,355.171 984.716,358.299 987.959,361.452 991.202,364.629 994.445,367.83 997.688,371.054 1000.93,374.299 1004.17,377.565 1007.42,380.851 1010.66,384.156 1013.9,387.48 1017.15,390.822 1020.39,394.18 1023.63,397.556 1026.88,400.948 1030.12,404.355 1033.36,407.778 1036.6,411.216 1039.85,414.668 1043.09,418.135 1046.33,421.615 1049.58,425.11 1052.82,428.618 1056.06,432.139 1059.31,435.674 1062.55,439.222 1065.79,442.783 1069.04,446.357 1072.28,449.945 1075.52,453.546 1078.76,457.161 1082.01,460.789 1085.25,464.431 1088.49,468.088 1091.74,471.758 1094.98,475.444 1098.22,479.144 1101.47,482.86 1104.71,486.592 1107.95,490.34 1111.19,494.104 1114.44,497.886 1117.68,501.686 1120.92,505.504 1124.17,509.342 1127.41,513.199 1130.65,517.076 1133.9,520.975 1137.14,524.895 1140.38,528.838 1143.62,532.803 1146.87,536.788 1150.11,540.794 1153.35,544.819 1156.6,548.862 1159.84,552.922 1163.08,556.999 1166.33,561.093 1169.57,565.201 1172.81,569.324 1176.06,573.461 1179.3,577.611 1182.54,581.775 1185.78,585.95 1189.03,590.137 1192.27,594.335 1195.51,598.544 1198.76,602.763 1202,606.991 1205.24,611.229 1208.49,615.476 1211.73,619.731 1214.97,623.994 1218.21,628.265 1221.46,632.543 1224.7,636.829 1227.94,641.121 1231.19,645.42 1234.43,649.725 1237.67,654.036 1240.92,658.353 1244.16,662.675 1247.4,667.003 1250.64,671.336 1253.89,675.673 1257.13,680.016 1260.37,684.363 1263.62,688.715 1266.86,693.071 1270.1,697.431 1273.35,701.795 1276.59,706.163 1279.83,710.536 1283.08,714.912 1286.32,719.291 1289.56,723.675 1292.8,728.062 1296.05,732.452 1299.29,736.846 1302.53,741.244 1305.78,745.645 1309.02,750.049 1312.26,754.456 1315.51,758.867 1318.75,763.281 1321.99,767.699 1325.23,772.119 1328.48,776.543 1331.72,780.97 1334.96,785.401 1338.21,789.834 1341.45,794.271 1344.69,798.711 1347.94,803.154 1351.18,807.6 1354.42,812.049 1357.66,816.502 1360.91,820.958 1364.15,825.416 1367.39,829.878 1370.64,834.343 1373.88,838.811 1377.12,843.283 1380.37,847.757 1383.61,852.234 1386.85,856.714 1390.1,861.197 1393.34,865.683 1396.58,870.172 1399.82,874.664 1403.07,879.158 1406.31,883.655 1409.55,888.155 1412.8,892.657 1416.04,897.161 1419.28,901.667 1422.53,906.176 1425.77,910.687 1429.01,915.199 1432.25,919.713 1435.5,924.229 1438.74,928.746 1441.98,933.265 1445.23,937.784 1448.47,942.304 1451.71,946.825 1454.96,951.346 1458.2,955.867 1461.44,960.388 1464.68,964.908 1467.93,969.428 1471.17,973.946 1474.41,978.462 1477.66,982.975 1480.9,987.483 1484.14,991.985 1487.39,996.48 1490.63,1000.97 1493.87,1005.44 1497.11,1009.91 1500.36,1014.37 1503.6,1018.81 1506.84,1023.23 1510.09,1027.64 1513.33,1032.03 1516.57,1036.4 1519.82,1040.76 1523.06,1045.09 1526.3,1049.39 1529.55,1053.67 1532.79,1057.92 1536.03,1062.15 1539.27,1066.34 1542.52,1070.5 1545.76,1074.62 1549,1078.71 1552.25,1082.77 1555.49,1086.78 1558.73,1090.75 1561.98,1094.67 1565.22,1098.55 1568.46,1102.38 1571.7,1106.17 1574.95,1109.92 1578.19,1113.62 1581.43,1117.28 1584.68,1120.9 1587.92,1124.48 1591.16,1128.02 1594.41,1131.53 1597.65,1134.99 1600.89,1138.42 1604.13,1141.81 1607.38,1145.16 1610.62,1148.48 1613.86,1151.76 1617.11,1155 1620.35,1158.21 1623.59,1161.38 1626.84,1164.52 1630.08,1167.62 1633.32,1170.69 1636.57,1173.72 1639.81,1176.72 1643.05,1179.68 1646.29,1182.6 1649.54,1185.49 1652.78,1188.34 1656.02,1191.15 1659.27,1193.93 1662.51,1196.67 1665.75,1199.37 1669,1202.03 1672.24,1204.65 1675.48,1207.22 1678.72,1209.76 1681.97,1212.25 1685.21,1214.7 1688.45,1217.11 1691.7,1219.46 1694.94,1221.77 1698.18,1224.04 1701.43,1226.25 1704.67,1228.41 1707.91,1230.52 1711.15,1232.57 1714.4,1234.57 1717.64,1236.51 1720.88,1238.4 1724.13,1240.22 1727.37,1241.98 1730.61,1243.69 1733.86,1245.33 1737.1,1246.92 1740.34,1248.45 1743.59,1249.92 1746.83,1251.32 1750.07,1252.67 1753.31,1253.96 1756.56,1255.19 1759.8,1256.35 1763.04,1257.46 1766.29,1258.5 1769.53,1259.48 1772.77,1260.4 1776.02,1261.25 1779.26,1262.04 1782.5,1262.76 1785.74,1263.42 1788.99,1264 1792.23,1264.52 1795.47,1264.97 1798.72,1265.35 1801.96,1265.66 1805.2,1265.89 1808.45,1266.05 1811.69,1266.14 1814.93,1266.16 1818.17,1266.1 1821.42,1265.98 1824.66,1265.78 1827.9,1265.51 1831.15,1265.17 1834.39,1264.76 1837.63,1264.27 1840.88,1263.72 1844.12,1263.08 1847.36,1262.38 1850.61,1261.59 1853.85,1260.73 1857.09,1259.8 1860.33,1258.78 1863.58,1257.69 1866.82,1256.51 1870.06,1255.26 1873.31,1253.92 1876.55,1252.49 1879.79,1250.98 1883.04,1249.38 1886.28,1247.69 1889.52,1245.91 1892.76,1244.04 1896.01,1242.07 1899.25,1240 1902.49,1237.83 1905.74,1235.56 1908.98,1233.18 1912.22,1230.7 1915.47,1228.1 1918.71,1225.4 1921.95,1222.6 1925.19,1219.71 1928.44,1216.73 1931.68,1213.67 1934.92,1210.52 1938.17,1207.31 1941.41,1204.03 1944.65,1200.68 1947.9,1197.27 1951.14,1193.81 1954.38,1190.3 1957.63,1186.75 1960.87,1183.15 1964.11,1179.51 1967.35,1175.84 1970.6,1172.14 1973.84,1168.4 1977.08,1164.64 1980.33,1160.86 1983.57,1157.06 1986.81,1153.23 1990.06,1149.39 1993.3,1145.54 1996.54,1141.68 1999.78,1137.81 2003.03,1133.94 2006.27,1130.06 2009.51,1126.18 2012.76,1122.31 2016,1118.44 2019.24,1114.58 2022.49,1110.72 2025.73,1106.88 2028.97,1103.05 2032.21,1099.23 2035.46,1095.43 2038.7,1091.65 2041.94,1087.88 2045.19,1084.13 2048.43,1080.4 2051.67,1076.68 2054.92,1072.99 2058.16,1069.32 2061.4,1065.67 2064.65,1062.04 2067.89,1058.44 2071.13,1054.86 2074.37,1051.31 2077.62,1047.79 2080.86,1044.29 2084.1,1040.82 2087.35,1037.39 2090.59,1033.98 2093.83,1030.61 2097.08,1027.28 2100.32,1023.98 2103.56,1020.71 2106.8,1017.49 2110.05,1014.3 2113.29,1011.16 2116.53,1008.04 2119.78,1004.97 2123.02,1001.94 2126.26,998.935 2129.51,995.972 2132.75,993.044 2135.99,990.151 2139.23,987.293 2142.48,984.471 2145.72,981.682 2148.96,978.928 2152.21,976.207 2155.45,973.52 2158.69,970.865 2161.94,968.243 2165.18,965.654 2168.42,963.096 2171.67,960.571 2174.91,958.076 2178.15,955.612 2181.39,953.179 2184.64,950.777 2187.88,948.404 2191.12,946.061 2194.37,943.747 2197.61,941.463 2200.85,939.207 2204.1,936.979 2207.34,934.78 2210.58,932.609 2213.82,930.464 2217.07,928.348 2220.31,926.257 2223.55,924.194 2226.8,922.157 2230.04,920.146 2233.28,918.16 2236.53,916.2 2239.77,914.265 2243.01,912.355 2246.25,910.469 2249.5,908.608 2252.74,906.771 2255.98,904.957 2259.23,903.167 2262.47,901.4 2265.71,899.656 2268.96,897.935 2272.2,896.236 2275.44,894.559 2278.69,892.904 2281.93,891.27 2285.17,889.658 2288.41,888.067 2291.66,886.497 "/>
<path clip-path="url(#clip430)" d="M1953.46 302.578 L2280.8 302.578 L2280.8 95.2176 L1953.46 95.2176  Z" fill="#ffffff" fill-rule="evenodd" fill-opacity="1"/>
<polyline clip-path="url(#clip430)" style="stroke:#000000; stroke-linecap:round; stroke-linejoin:round; stroke-width:4; stroke-opacity:1; fill:none" points="1953.46,302.578 2280.8,302.578 2280.8,95.2176 1953.46,95.2176 1953.46,302.578 "/>
<polyline clip-path="url(#clip430)" style="stroke:#009af9; stroke-linecap:round; stroke-linejoin:round; stroke-width:4; stroke-opacity:1; fill:none" points="1977.44,147.058 2121.36,147.058 "/>
<path clip-path="url(#clip430)" d="M2152.76 131.051 L2152.76 138.412 L2161.53 138.412 L2161.53 141.722 L2152.76 141.722 L2152.76 155.796 Q2152.76 158.967 2153.61 159.87 Q2154.49 160.773 2157.16 160.773 L2161.53 160.773 L2161.53 164.338 L2157.16 164.338 Q2152.23 164.338 2150.35 162.509 Q2148.48 160.657 2148.48 155.796 L2148.48 141.722 L2145.35 141.722 L2145.35 138.412 L2148.48 138.412 L2148.48 131.051 L2152.76 131.051 Z" fill="#000000" fill-rule="nonzero" fill-opacity="1" /><path clip-path="url(#clip430)" d="M2182.16 142.393 Q2181.44 141.977 2180.58 141.791 Q2179.75 141.583 2178.73 141.583 Q2175.12 141.583 2173.17 143.944 Q2171.25 146.282 2171.25 150.68 L2171.25 164.338 L2166.97 164.338 L2166.97 138.412 L2171.25 138.412 L2171.25 142.44 Q2172.6 140.078 2174.75 138.944 Q2176.9 137.787 2179.98 137.787 Q2180.42 137.787 2180.95 137.856 Q2181.48 137.903 2182.13 138.018 L2182.16 142.393 Z" fill="#000000" fill-rule="nonzero" fill-opacity="1" /><path clip-path="url(#clip430)" d="M2186.18 154.106 L2186.18 138.412 L2190.44 138.412 L2190.44 153.944 Q2190.44 157.625 2191.88 159.476 Q2193.31 161.305 2196.18 161.305 Q2199.63 161.305 2201.62 159.106 Q2203.64 156.907 2203.64 153.111 L2203.64 138.412 L2207.9 138.412 L2207.9 164.338 L2203.64 164.338 L2203.64 160.356 Q2202.09 162.717 2200.03 163.875 Q2197.99 165.009 2195.28 165.009 Q2190.81 165.009 2188.5 162.231 Q2186.18 159.453 2186.18 154.106 M2196.9 137.787 L2196.9 137.787 Z" fill="#000000" fill-rule="nonzero" fill-opacity="1" /><path clip-path="url(#clip430)" d="M2220.88 131.051 L2220.88 138.412 L2229.66 138.412 L2229.66 141.722 L2220.88 141.722 L2220.88 155.796 Q2220.88 158.967 2221.74 159.87 Q2222.62 160.773 2225.28 160.773 L2229.66 160.773 L2229.66 164.338 L2225.28 164.338 Q2220.35 164.338 2218.48 162.509 Q2216.6 160.657 2216.6 155.796 L2216.6 141.722 L2213.48 141.722 L2213.48 138.412 L2216.6 138.412 L2216.6 131.051 L2220.88 131.051 Z" fill="#000000" fill-rule="nonzero" fill-opacity="1" /><path clip-path="url(#clip430)" d="M2256.81 148.689 L2256.81 164.338 L2252.55 164.338 L2252.55 148.828 Q2252.55 145.148 2251.11 143.319 Q2249.68 141.49 2246.81 141.49 Q2243.36 141.49 2241.37 143.69 Q2239.38 145.889 2239.38 149.685 L2239.38 164.338 L2235.1 164.338 L2235.1 128.319 L2239.38 128.319 L2239.38 142.44 Q2240.91 140.102 2242.97 138.944 Q2245.05 137.787 2247.76 137.787 Q2252.23 137.787 2254.52 140.565 Q2256.81 143.319 2256.81 148.689 Z" fill="#000000" fill-rule="nonzero" fill-opacity="1" /><circle clip-path="url(#clip430)" cx="2049.4" cy="198.898" r="20.48" fill="#e26f46" fill-rule="evenodd" fill-opacity="1" stroke="#000000" stroke-opacity="1" stroke-width="4.55111"/>
<path clip-path="url(#clip430)" d="M2164.26 194.187 L2164.26 180.159 L2168.52 180.159 L2168.52 216.178 L2164.26 216.178 L2164.26 212.289 Q2162.92 214.603 2160.86 215.738 Q2158.82 216.849 2155.95 216.849 Q2151.25 216.849 2148.29 213.099 Q2145.35 209.349 2145.35 203.238 Q2145.35 197.127 2148.29 193.377 Q2151.25 189.627 2155.95 189.627 Q2158.82 189.627 2160.86 190.761 Q2162.92 191.872 2164.26 194.187 M2149.75 203.238 Q2149.75 207.937 2151.67 210.622 Q2153.61 213.284 2156.99 213.284 Q2160.37 213.284 2162.32 210.622 Q2164.26 207.937 2164.26 203.238 Q2164.26 198.539 2162.32 195.877 Q2160.37 193.192 2156.99 193.192 Q2153.61 193.192 2151.67 195.877 Q2149.75 198.539 2149.75 203.238 Z" fill="#000000" fill-rule="nonzero" fill-opacity="1" /><path clip-path="url(#clip430)" d="M2189.08 203.145 Q2183.92 203.145 2181.92 204.326 Q2179.93 205.506 2179.93 208.354 Q2179.93 210.622 2181.42 211.965 Q2182.92 213.284 2185.49 213.284 Q2189.03 213.284 2191.16 210.784 Q2193.31 208.261 2193.31 204.094 L2193.31 203.145 L2189.08 203.145 M2197.57 201.386 L2197.57 216.178 L2193.31 216.178 L2193.31 212.242 Q2191.85 214.603 2189.68 215.738 Q2187.5 216.849 2184.36 216.849 Q2180.37 216.849 2178.01 214.627 Q2175.67 212.381 2175.67 208.631 Q2175.67 204.256 2178.59 202.034 Q2181.53 199.812 2187.34 199.812 L2193.31 199.812 L2193.31 199.395 Q2193.31 196.455 2191.37 194.858 Q2189.45 193.238 2185.95 193.238 Q2183.73 193.238 2181.62 193.77 Q2179.52 194.303 2177.57 195.367 L2177.57 191.432 Q2179.91 190.53 2182.11 190.09 Q2184.31 189.627 2186.39 189.627 Q2192.02 189.627 2194.79 192.543 Q2197.57 195.46 2197.57 201.386 Z" fill="#000000" fill-rule="nonzero" fill-opacity="1" /><path clip-path="url(#clip430)" d="M2210.56 182.891 L2210.56 190.252 L2219.33 190.252 L2219.33 193.562 L2210.56 193.562 L2210.56 207.636 Q2210.56 210.807 2211.42 211.71 Q2212.29 212.613 2214.96 212.613 L2219.33 212.613 L2219.33 216.178 L2214.96 216.178 Q2210.03 216.178 2208.15 214.349 Q2206.28 212.497 2206.28 207.636 L2206.28 193.562 L2203.15 193.562 L2203.15 190.252 L2206.28 190.252 L2206.28 182.891 L2210.56 182.891 Z" fill="#000000" fill-rule="nonzero" fill-opacity="1" /><path clip-path="url(#clip430)" d="M2236.72 203.145 Q2231.55 203.145 2229.56 204.326 Q2227.57 205.506 2227.57 208.354 Q2227.57 210.622 2229.05 211.965 Q2230.56 213.284 2233.13 213.284 Q2236.67 213.284 2238.8 210.784 Q2240.95 208.261 2240.95 204.094 L2240.95 203.145 L2236.72 203.145 M2245.21 201.386 L2245.21 216.178 L2240.95 216.178 L2240.95 212.242 Q2239.49 214.603 2237.32 215.738 Q2235.14 216.849 2231.99 216.849 Q2228.01 216.849 2225.65 214.627 Q2223.31 212.381 2223.31 208.631 Q2223.31 204.256 2226.23 202.034 Q2229.17 199.812 2234.98 199.812 L2240.95 199.812 L2240.95 199.395 Q2240.95 196.455 2239.01 194.858 Q2237.09 193.238 2233.59 193.238 Q2231.37 193.238 2229.26 193.77 Q2227.16 194.303 2225.21 195.367 L2225.21 191.432 Q2227.55 190.53 2229.75 190.09 Q2231.95 189.627 2234.03 189.627 Q2239.66 189.627 2242.43 192.543 Q2245.21 195.46 2245.21 201.386 Z" fill="#000000" fill-rule="nonzero" fill-opacity="1" /><polyline clip-path="url(#clip430)" style="stroke:#3da44d; stroke-linecap:round; stroke-linejoin:round; stroke-width:8; stroke-opacity:1; fill:none" points="1977.44,250.738 2121.36,250.738 "/>
<path clip-path="url(#clip430)" d="M2170.91 263.087 L2170.91 253.805 L2163.27 253.805 L2163.27 249.962 L2175.54 249.962 L2175.54 264.8 Q2172.83 266.721 2169.56 267.717 Q2166.3 268.689 2162.6 268.689 Q2154.49 268.689 2149.91 263.967 Q2145.35 259.221 2145.35 250.772 Q2145.35 242.3 2149.91 237.578 Q2154.49 232.833 2162.6 232.833 Q2165.98 232.833 2169.01 233.666 Q2172.06 234.499 2174.63 236.12 L2174.63 241.096 Q2172.04 238.897 2169.12 237.786 Q2166.21 236.675 2162.99 236.675 Q2156.65 236.675 2153.45 240.217 Q2150.28 243.758 2150.28 250.772 Q2150.28 257.763 2153.45 261.305 Q2156.65 264.846 2162.99 264.846 Q2165.47 264.846 2167.41 264.43 Q2169.36 263.99 2170.91 263.087 Z" fill="#000000" fill-rule="nonzero" fill-opacity="1" /><path clip-path="url(#clip430)" d="M2188.75 237.3 L2188.75 250.286 L2194.63 250.286 Q2197.9 250.286 2199.68 248.596 Q2201.46 246.907 2201.46 243.782 Q2201.46 240.68 2199.68 238.99 Q2197.9 237.3 2194.63 237.3 L2188.75 237.3 M2184.08 233.458 L2194.63 233.458 Q2200.44 233.458 2203.41 236.096 Q2206.39 238.712 2206.39 243.782 Q2206.39 248.897 2203.41 251.513 Q2200.44 254.129 2194.63 254.129 L2188.75 254.129 L2188.75 268.018 L2184.08 268.018 L2184.08 233.458 Z" fill="#000000" fill-rule="nonzero" fill-opacity="1" /></svg>
