<?xml version="1.0" encoding="utf-8"?>
<svg xmlns="http://www.w3.org/2000/svg" xmlns:xlink="http://www.w3.org/1999/xlink" width="600" height="400" viewBox="0 0 2400 1600">
<defs>
  <clipPath id="clip980">
    <rect x="0" y="0" width="2400" height="1600"/>
  </clipPath>
</defs>
<path clip-path="url(#clip980)" d="M0 1600 L2400 1600 L2400 0 L0 0  Z" fill="#ffffff" fill-rule="evenodd" fill-opacity="1"/>
<defs>
  <clipPath id="clip981">
    <rect x="480" y="0" width="1681" height="1600"/>
  </clipPath>
</defs>
<path clip-path="url(#clip980)" d="M193.936 1486.45 L2352.76 1486.45 L2352.76 47.2441 L193.936 47.2441  Z" fill="#ffffff" fill-rule="evenodd" fill-opacity="1"/>
<defs>
  <clipPath id="clip982">
    <rect x="193" y="47" width="2160" height="1440"/>
  </clipPath>
</defs>
<polyline clip-path="url(#clip982)" style="stroke:#000000; stroke-linecap:round; stroke-linejoin:round; stroke-width:2; stroke-opacity:0.1; fill:none" points="255.035,1486.45 255.035,47.2441 "/>
<polyline clip-path="url(#clip982)" style="stroke:#000000; stroke-linecap:round; stroke-linejoin:round; stroke-width:2; stroke-opacity:0.1; fill:none" points="579.173,1486.45 579.173,47.2441 "/>
<polyline clip-path="url(#clip982)" style="stroke:#000000; stroke-linecap:round; stroke-linejoin:round; stroke-width:2; stroke-opacity:0.1; fill:none" points="903.312,1486.45 903.312,47.2441 "/>
<polyline clip-path="url(#clip982)" style="stroke:#000000; stroke-linecap:round; stroke-linejoin:round; stroke-width:2; stroke-opacity:0.1; fill:none" points="1227.45,1486.45 1227.45,47.2441 "/>
<polyline clip-path="url(#clip982)" style="stroke:#000000; stroke-linecap:round; stroke-linejoin:round; stroke-width:2; stroke-opacity:0.1; fill:none" points="1551.59,1486.45 1551.59,47.2441 "/>
<polyline clip-path="url(#clip982)" style="stroke:#000000; stroke-linecap:round; stroke-linejoin:round; stroke-width:2; stroke-opacity:0.1; fill:none" points="1875.73,1486.45 1875.73,47.2441 "/>
<polyline clip-path="url(#clip982)" style="stroke:#000000; stroke-linecap:round; stroke-linejoin:round; stroke-width:2; stroke-opacity:0.1; fill:none" points="2199.87,1486.45 2199.87,47.2441 "/>
<polyline clip-path="url(#clip982)" style="stroke:#000000; stroke-linecap:round; stroke-linejoin:round; stroke-width:2; stroke-opacity:0.1; fill:none" points="193.936,1309.09 2352.76,1309.09 "/>
<polyline clip-path="url(#clip982)" style="stroke:#000000; stroke-linecap:round; stroke-linejoin:round; stroke-width:2; stroke-opacity:0.1; fill:none" points="193.936,1041.03 2352.76,1041.03 "/>
<polyline clip-path="url(#clip982)" style="stroke:#000000; stroke-linecap:round; stroke-linejoin:round; stroke-width:2; stroke-opacity:0.1; fill:none" points="193.936,772.968 2352.76,772.968 "/>
<polyline clip-path="url(#clip982)" style="stroke:#000000; stroke-linecap:round; stroke-linejoin:round; stroke-width:2; stroke-opacity:0.1; fill:none" points="193.936,504.907 2352.76,504.907 "/>
<polyline clip-path="url(#clip982)" style="stroke:#000000; stroke-linecap:round; stroke-linejoin:round; stroke-width:2; stroke-opacity:0.1; fill:none" points="193.936,236.846 2352.76,236.846 "/>
<polyline clip-path="url(#clip980)" style="stroke:#000000; stroke-linecap:round; stroke-linejoin:round; stroke-width:4; stroke-opacity:1; fill:none" points="193.936,1486.45 2352.76,1486.45 "/>
<polyline clip-path="url(#clip980)" style="stroke:#000000; stroke-linecap:round; stroke-linejoin:round; stroke-width:4; stroke-opacity:1; fill:none" points="255.035,1486.45 255.035,1467.55 "/>
<polyline clip-path="url(#clip980)" style="stroke:#000000; stroke-linecap:round; stroke-linejoin:round; stroke-width:4; stroke-opacity:1; fill:none" points="579.173,1486.45 579.173,1467.55 "/>
<polyline clip-path="url(#clip980)" style="stroke:#000000; stroke-linecap:round; stroke-linejoin:round; stroke-width:4; stroke-opacity:1; fill:none" points="903.312,1486.45 903.312,1467.55 "/>
<polyline clip-path="url(#clip980)" style="stroke:#000000; stroke-linecap:round; stroke-linejoin:round; stroke-width:4; stroke-opacity:1; fill:none" points="1227.45,1486.45 1227.45,1467.55 "/>
<polyline clip-path="url(#clip980)" style="stroke:#000000; stroke-linecap:round; stroke-linejoin:round; stroke-width:4; stroke-opacity:1; fill:none" points="1551.59,1486.45 1551.59,1467.55 "/>
<polyline clip-path="url(#clip980)" style="stroke:#000000; stroke-linecap:round; stroke-linejoin:round; stroke-width:4; stroke-opacity:1; fill:none" points="1875.73,1486.45 1875.73,1467.55 "/>
<polyline clip-path="url(#clip980)" style="stroke:#000000; stroke-linecap:round; stroke-linejoin:round; stroke-width:4; stroke-opacity:1; fill:none" points="2199.87,1486.45 2199.87,1467.55 "/>
<path clip-path="url(#clip980)" d="M255.035 1517.37 Q251.424 1517.37 249.595 1520.93 Q247.789 1524.47 247.789 1531.6 Q247.789 1538.71 249.595 1542.27 Q251.424 1545.82 255.035 1545.82 Q258.669 1545.82 260.474 1542.27 Q262.303 1538.71 262.303 1531.6 Q262.303 1524.47 260.474 1520.93 Q258.669 1517.37 255.035 1517.37 M255.035 1513.66 Q260.845 1513.66 263.9 1518.27 Q266.979 1522.85 266.979 1531.6 Q266.979 1540.33 263.9 1544.94 Q260.845 1549.52 255.035 1549.52 Q249.225 1549.52 246.146 1544.94 Q243.09 1540.33 243.09 1531.6 Q243.09 1522.85 246.146 1518.27 Q249.225 1513.66 255.035 1513.66 Z" fill="#000000" fill-rule="nonzero" fill-opacity="1" /><path clip-path="url(#clip980)" d="M569.555 1544.91 L577.194 1544.91 L577.194 1518.55 L568.884 1520.21 L568.884 1515.95 L577.148 1514.29 L581.824 1514.29 L581.824 1544.91 L589.463 1544.91 L589.463 1548.85 L569.555 1548.85 L569.555 1544.91 Z" fill="#000000" fill-rule="nonzero" fill-opacity="1" /><path clip-path="url(#clip980)" d="M897.965 1544.91 L914.284 1544.91 L914.284 1548.85 L892.34 1548.85 L892.34 1544.91 Q895.002 1542.16 899.585 1537.53 Q904.191 1532.88 905.372 1531.53 Q907.617 1529.01 908.497 1527.27 Q909.4 1525.51 909.4 1523.82 Q909.4 1521.07 907.455 1519.33 Q905.534 1517.6 902.432 1517.6 Q900.233 1517.6 897.779 1518.36 Q895.349 1519.13 892.571 1520.68 L892.571 1515.95 Q895.395 1514.82 897.849 1514.24 Q900.303 1513.66 902.34 1513.66 Q907.71 1513.66 910.904 1516.35 Q914.099 1519.03 914.099 1523.52 Q914.099 1525.65 913.289 1527.57 Q912.502 1529.47 910.395 1532.07 Q909.816 1532.74 906.715 1535.95 Q903.613 1539.15 897.965 1544.91 Z" fill="#000000" fill-rule="nonzero" fill-opacity="1" /><path clip-path="url(#clip980)" d="M1231.7 1530.21 Q1235.05 1530.93 1236.93 1533.2 Q1238.83 1535.47 1238.83 1538.8 Q1238.83 1543.92 1235.31 1546.72 Q1231.79 1549.52 1225.31 1549.52 Q1223.13 1549.52 1220.82 1549.08 Q1218.53 1548.66 1216.07 1547.81 L1216.07 1543.29 Q1218.02 1544.43 1220.33 1545.01 Q1222.65 1545.58 1225.17 1545.58 Q1229.57 1545.58 1231.86 1543.85 Q1234.17 1542.11 1234.17 1538.8 Q1234.17 1535.75 1232.02 1534.03 Q1229.89 1532.3 1226.07 1532.3 L1222.05 1532.3 L1222.05 1528.45 L1226.26 1528.45 Q1229.71 1528.45 1231.54 1527.09 Q1233.36 1525.7 1233.36 1523.11 Q1233.36 1520.45 1231.47 1519.03 Q1229.59 1517.6 1226.07 1517.6 Q1224.15 1517.6 1221.95 1518.01 Q1219.75 1518.43 1217.11 1519.31 L1217.11 1515.14 Q1219.78 1514.4 1222.09 1514.03 Q1224.43 1513.66 1226.49 1513.66 Q1231.81 1513.66 1234.92 1516.09 Q1238.02 1518.5 1238.02 1522.62 Q1238.02 1525.49 1236.37 1527.48 Q1234.73 1529.45 1231.7 1530.21 Z" fill="#000000" fill-rule="nonzero" fill-opacity="1" /><path clip-path="url(#clip980)" d="M1554.6 1518.36 L1542.79 1536.81 L1554.6 1536.81 L1554.6 1518.36 M1553.37 1514.29 L1559.25 1514.29 L1559.25 1536.81 L1564.18 1536.81 L1564.18 1540.7 L1559.25 1540.7 L1559.25 1548.85 L1554.6 1548.85 L1554.6 1540.7 L1539 1540.7 L1539 1536.19 L1553.37 1514.29 Z" fill="#000000" fill-rule="nonzero" fill-opacity="1" /><path clip-path="url(#clip980)" d="M1866.01 1514.29 L1884.36 1514.29 L1884.36 1518.22 L1870.29 1518.22 L1870.29 1526.7 Q1871.31 1526.35 1872.32 1526.19 Q1873.34 1526 1874.36 1526 Q1880.15 1526 1883.53 1529.17 Q1886.91 1532.34 1886.91 1537.76 Q1886.91 1543.34 1883.44 1546.44 Q1879.96 1549.52 1873.64 1549.52 Q1871.47 1549.52 1869.2 1549.15 Q1866.95 1548.78 1864.55 1548.04 L1864.55 1543.34 Q1866.63 1544.47 1868.85 1545.03 Q1871.07 1545.58 1873.55 1545.58 Q1877.56 1545.58 1879.89 1543.48 Q1882.23 1541.37 1882.23 1537.76 Q1882.23 1534.15 1879.89 1532.04 Q1877.56 1529.94 1873.55 1529.94 Q1871.68 1529.94 1869.8 1530.35 Q1867.95 1530.77 1866.01 1531.65 L1866.01 1514.29 Z" fill="#000000" fill-rule="nonzero" fill-opacity="1" /><path clip-path="url(#clip980)" d="M2200.27 1529.7 Q2197.12 1529.7 2195.27 1531.86 Q2193.44 1534.01 2193.44 1537.76 Q2193.44 1541.49 2195.27 1543.66 Q2197.12 1545.82 2200.27 1545.82 Q2203.42 1545.82 2205.25 1543.66 Q2207.1 1541.49 2207.1 1537.76 Q2207.1 1534.01 2205.25 1531.86 Q2203.42 1529.7 2200.27 1529.7 M2209.55 1515.05 L2209.55 1519.31 Q2207.79 1518.48 2205.99 1518.04 Q2204.21 1517.6 2202.45 1517.6 Q2197.82 1517.6 2195.36 1520.72 Q2192.93 1523.85 2192.59 1530.17 Q2193.95 1528.15 2196.01 1527.09 Q2198.07 1526 2200.55 1526 Q2205.76 1526 2208.77 1529.17 Q2211.8 1532.32 2211.8 1537.76 Q2211.8 1543.08 2208.65 1546.3 Q2205.5 1549.52 2200.27 1549.52 Q2194.28 1549.52 2191.1 1544.94 Q2187.93 1540.33 2187.93 1531.6 Q2187.93 1523.41 2191.82 1518.55 Q2195.71 1513.66 2202.26 1513.66 Q2204.02 1513.66 2205.8 1514.01 Q2207.61 1514.36 2209.55 1515.05 Z" fill="#000000" fill-rule="nonzero" fill-opacity="1" /><polyline clip-path="url(#clip980)" style="stroke:#000000; stroke-linecap:round; stroke-linejoin:round; stroke-width:4; stroke-opacity:1; fill:none" points="193.936,1486.45 193.936,47.2441 "/>
<polyline clip-path="url(#clip980)" style="stroke:#000000; stroke-linecap:round; stroke-linejoin:round; stroke-width:4; stroke-opacity:1; fill:none" points="193.936,1309.09 212.834,1309.09 "/>
<polyline clip-path="url(#clip980)" style="stroke:#000000; stroke-linecap:round; stroke-linejoin:round; stroke-width:4; stroke-opacity:1; fill:none" points="193.936,1041.03 212.834,1041.03 "/>
<polyline clip-path="url(#clip980)" style="stroke:#000000; stroke-linecap:round; stroke-linejoin:round; stroke-width:4; stroke-opacity:1; fill:none" points="193.936,772.968 212.834,772.968 "/>
<polyline clip-path="url(#clip980)" style="stroke:#000000; stroke-linecap:round; stroke-linejoin:round; stroke-width:4; stroke-opacity:1; fill:none" points="193.936,504.907 212.834,504.907 "/>
<polyline clip-path="url(#clip980)" style="stroke:#000000; stroke-linecap:round; stroke-linejoin:round; stroke-width:4; stroke-opacity:1; fill:none" points="193.936,236.846 212.834,236.846 "/>
<path clip-path="url(#clip980)" d="M50.9921 1309.54 L80.6679 1309.54 L80.6679 1313.48 L50.9921 1313.48 L50.9921 1309.54 Z" fill="#000000" fill-rule="nonzero" fill-opacity="1" /><path clip-path="url(#clip980)" d="M91.5706 1322.43 L99.2095 1322.43 L99.2095 1296.07 L90.8993 1297.74 L90.8993 1293.48 L99.1632 1291.81 L103.839 1291.81 L103.839 1322.43 L111.478 1322.43 L111.478 1326.37 L91.5706 1326.37 L91.5706 1322.43 Z" fill="#000000" fill-rule="nonzero" fill-opacity="1" /><path clip-path="url(#clip980)" d="M120.922 1320.49 L125.807 1320.49 L125.807 1326.37 L120.922 1326.37 L120.922 1320.49 Z" fill="#000000" fill-rule="nonzero" fill-opacity="1" /><path clip-path="url(#clip980)" d="M145.992 1294.89 Q142.381 1294.89 140.552 1298.45 Q138.746 1301.99 138.746 1309.12 Q138.746 1316.23 140.552 1319.8 Q142.381 1323.34 145.992 1323.34 Q149.626 1323.34 151.431 1319.8 Q153.26 1316.23 153.26 1309.12 Q153.26 1301.99 151.431 1298.45 Q149.626 1294.89 145.992 1294.89 M145.992 1291.18 Q151.802 1291.18 154.857 1295.79 Q157.936 1300.37 157.936 1309.12 Q157.936 1317.85 154.857 1322.46 Q151.802 1327.04 145.992 1327.04 Q140.181 1327.04 137.103 1322.46 Q134.047 1317.85 134.047 1309.12 Q134.047 1300.37 137.103 1295.79 Q140.181 1291.18 145.992 1291.18 Z" fill="#000000" fill-rule="nonzero" fill-opacity="1" /><path clip-path="url(#clip980)" d="M51.9875 1041.48 L81.6633 1041.48 L81.6633 1045.41 L51.9875 1045.41 L51.9875 1041.48 Z" fill="#000000" fill-rule="nonzero" fill-opacity="1" /><path clip-path="url(#clip980)" d="M101.756 1026.83 Q98.1447 1026.83 96.316 1030.39 Q94.5104 1033.93 94.5104 1041.06 Q94.5104 1048.17 96.316 1051.73 Q98.1447 1055.28 101.756 1055.28 Q105.39 1055.28 107.196 1051.73 Q109.024 1048.17 109.024 1041.06 Q109.024 1033.93 107.196 1030.39 Q105.39 1026.83 101.756 1026.83 M101.756 1023.12 Q107.566 1023.12 110.621 1027.73 Q113.7 1032.31 113.7 1041.06 Q113.7 1049.79 110.621 1054.4 Q107.566 1058.98 101.756 1058.98 Q95.9456 1058.98 92.8669 1054.4 Q89.8114 1049.79 89.8114 1041.06 Q89.8114 1032.31 92.8669 1027.73 Q95.9456 1023.12 101.756 1023.12 Z" fill="#000000" fill-rule="nonzero" fill-opacity="1" /><path clip-path="url(#clip980)" d="M121.918 1052.43 L126.802 1052.43 L126.802 1058.31 L121.918 1058.31 L121.918 1052.43 Z" fill="#000000" fill-rule="nonzero" fill-opacity="1" /><path clip-path="url(#clip980)" d="M137.033 1023.75 L155.39 1023.75 L155.39 1027.68 L141.316 1027.68 L141.316 1036.16 Q142.334 1035.81 143.353 1035.65 Q144.371 1035.46 145.39 1035.46 Q151.177 1035.46 154.556 1038.63 Q157.936 1041.8 157.936 1047.22 Q157.936 1052.8 154.464 1055.9 Q150.992 1058.98 144.672 1058.98 Q142.496 1058.98 140.228 1058.61 Q137.982 1058.24 135.575 1057.5 L135.575 1052.8 Q137.658 1053.93 139.881 1054.49 Q142.103 1055.04 144.58 1055.04 Q148.584 1055.04 150.922 1052.94 Q153.26 1050.83 153.26 1047.22 Q153.26 1043.61 150.922 1041.5 Q148.584 1039.4 144.58 1039.4 Q142.705 1039.4 140.83 1039.81 Q138.978 1040.23 137.033 1041.11 L137.033 1023.75 Z" fill="#000000" fill-rule="nonzero" fill-opacity="1" /><path clip-path="url(#clip980)" d="M100.76 758.766 Q97.1493 758.766 95.3206 762.331 Q93.515 765.873 93.515 773.002 Q93.515 780.109 95.3206 783.673 Q97.1493 787.215 100.76 787.215 Q104.395 787.215 106.2 783.673 Q108.029 780.109 108.029 773.002 Q108.029 765.873 106.2 762.331 Q104.395 758.766 100.76 758.766 M100.76 755.063 Q106.571 755.063 109.626 759.669 Q112.705 764.252 112.705 773.002 Q112.705 781.729 109.626 786.336 Q106.571 790.919 100.76 790.919 Q94.9502 790.919 91.8715 786.336 Q88.816 781.729 88.816 773.002 Q88.816 764.252 91.8715 759.669 Q94.9502 755.063 100.76 755.063 Z" fill="#000000" fill-rule="nonzero" fill-opacity="1" /><path clip-path="url(#clip980)" d="M120.922 784.368 L125.807 784.368 L125.807 790.248 L120.922 790.248 L120.922 784.368 Z" fill="#000000" fill-rule="nonzero" fill-opacity="1" /><path clip-path="url(#clip980)" d="M145.992 758.766 Q142.381 758.766 140.552 762.331 Q138.746 765.873 138.746 773.002 Q138.746 780.109 140.552 783.673 Q142.381 787.215 145.992 787.215 Q149.626 787.215 151.431 783.673 Q153.26 780.109 153.26 773.002 Q153.26 765.873 151.431 762.331 Q149.626 758.766 145.992 758.766 M145.992 755.063 Q151.802 755.063 154.857 759.669 Q157.936 764.252 157.936 773.002 Q157.936 781.729 154.857 786.336 Q151.802 790.919 145.992 790.919 Q140.181 790.919 137.103 786.336 Q134.047 781.729 134.047 773.002 Q134.047 764.252 137.103 759.669 Q140.181 755.063 145.992 755.063 Z" fill="#000000" fill-rule="nonzero" fill-opacity="1" /><path clip-path="url(#clip980)" d="M101.756 490.705 Q98.1447 490.705 96.316 494.27 Q94.5104 497.812 94.5104 504.941 Q94.5104 512.048 96.316 515.613 Q98.1447 519.154 101.756 519.154 Q105.39 519.154 107.196 515.613 Q109.024 512.048 109.024 504.941 Q109.024 497.812 107.196 494.27 Q105.39 490.705 101.756 490.705 M101.756 487.002 Q107.566 487.002 110.621 491.608 Q113.7 496.191 113.7 504.941 Q113.7 513.668 110.621 518.275 Q107.566 522.858 101.756 522.858 Q95.9456 522.858 92.8669 518.275 Q89.8114 513.668 89.8114 504.941 Q89.8114 496.191 92.8669 491.608 Q95.9456 487.002 101.756 487.002 Z" fill="#000000" fill-rule="nonzero" fill-opacity="1" /><path clip-path="url(#clip980)" d="M121.918 516.307 L126.802 516.307 L126.802 522.187 L121.918 522.187 L121.918 516.307 Z" fill="#000000" fill-rule="nonzero" fill-opacity="1" /><path clip-path="url(#clip980)" d="M137.033 487.627 L155.39 487.627 L155.39 491.562 L141.316 491.562 L141.316 500.034 Q142.334 499.687 143.353 499.525 Q144.371 499.34 145.39 499.34 Q151.177 499.34 154.556 502.511 Q157.936 505.682 157.936 511.099 Q157.936 516.677 154.464 519.779 Q150.992 522.858 144.672 522.858 Q142.496 522.858 140.228 522.488 Q137.982 522.117 135.575 521.376 L135.575 516.677 Q137.658 517.812 139.881 518.367 Q142.103 518.923 144.58 518.923 Q148.584 518.923 150.922 516.816 Q153.26 514.71 153.26 511.099 Q153.26 507.488 150.922 505.381 Q148.584 503.275 144.58 503.275 Q142.705 503.275 140.83 503.691 Q138.978 504.108 137.033 504.988 L137.033 487.627 Z" fill="#000000" fill-rule="nonzero" fill-opacity="1" /><path clip-path="url(#clip980)" d="M91.5706 250.191 L99.2095 250.191 L99.2095 223.825 L90.8993 225.492 L90.8993 221.232 L99.1632 219.566 L103.839 219.566 L103.839 250.191 L111.478 250.191 L111.478 254.126 L91.5706 254.126 L91.5706 250.191 Z" fill="#000000" fill-rule="nonzero" fill-opacity="1" /><path clip-path="url(#clip980)" d="M120.922 248.246 L125.807 248.246 L125.807 254.126 L120.922 254.126 L120.922 248.246 Z" fill="#000000" fill-rule="nonzero" fill-opacity="1" /><path clip-path="url(#clip980)" d="M145.992 222.644 Q142.381 222.644 140.552 226.209 Q138.746 229.751 138.746 236.88 Q138.746 243.987 140.552 247.552 Q142.381 251.093 145.992 251.093 Q149.626 251.093 151.431 247.552 Q153.26 243.987 153.26 236.88 Q153.26 229.751 151.431 226.209 Q149.626 222.644 145.992 222.644 M145.992 218.941 Q151.802 218.941 154.857 223.547 Q157.936 228.13 157.936 236.88 Q157.936 245.607 154.857 250.214 Q151.802 254.797 145.992 254.797 Q140.181 254.797 137.103 250.214 Q134.047 245.607 134.047 236.88 Q134.047 228.13 137.103 223.547 Q140.181 218.941 145.992 218.941 Z" fill="#000000" fill-rule="nonzero" fill-opacity="1" /><polyline clip-path="url(#clip982)" style="stroke:#009af9; stroke-linecap:round; stroke-linejoin:round; stroke-width:4; stroke-opacity:1; fill:none" points="255.035,772.968 258.276,767.606 261.517,762.246 264.759,756.886 268,751.528 271.242,746.173 274.483,740.82 277.724,735.47 280.966,730.124 284.207,724.782 287.449,719.445 290.69,714.113 293.931,708.787 297.173,703.468 300.414,698.155 303.655,692.85 306.897,687.554 310.138,682.265 313.38,676.986 316.621,671.716 319.862,666.457 323.104,661.208 326.345,655.97 329.587,650.744 332.828,645.53 336.069,640.329 339.311,635.141 342.552,629.967 345.793,624.807 349.035,619.662 352.276,614.533 355.518,609.419 358.759,604.322 362,599.241 365.242,594.178 368.483,589.133 371.725,584.106 374.966,579.098 378.207,574.109 381.449,569.14 384.69,564.192 387.931,559.264 391.173,554.358 394.414,549.474 397.656,544.612 400.897,539.773 404.138,534.957 407.38,530.165 410.621,525.398 413.863,520.655 417.104,515.937 420.345,511.245 423.587,506.579 426.828,501.94 430.069,497.328 433.311,492.743 436.552,488.187 439.794,483.659 443.035,479.16 446.276,474.69 449.518,470.25 452.759,465.841 456.001,461.462 459.242,457.114 462.483,452.798 465.725,448.514 468.966,444.262 472.208,440.043 475.449,435.858 478.69,431.706 481.932,427.588 485.173,423.505 488.414,419.457 491.656,415.444 494.897,411.467 498.139,407.526 501.38,403.622 504.621,399.754 507.863,395.924 511.104,392.132 514.346,388.377 517.587,384.661 520.828,380.984 524.07,377.346 527.311,373.748 530.552,370.19 533.794,366.672 537.035,363.194 540.277,359.758 543.518,356.362 546.759,353.009 550.001,349.697 553.242,346.428 556.484,343.202 559.725,340.018 562.966,336.878 566.208,333.781 569.449,330.728 572.69,327.72 575.932,324.756 579.173,321.837 582.415,318.962 585.656,316.134 588.897,313.351 592.139,310.614 595.38,307.923 598.622,305.279 601.863,302.681 605.104,300.131 608.346,297.627 611.587,295.172 614.828,292.764 618.07,290.404 621.311,288.092 624.553,285.829 627.794,283.615 631.035,281.449 634.277,279.333 637.518,277.266 640.76,275.249 644.001,273.281 647.242,271.363 650.484,269.496 653.725,267.679 656.966,265.912 660.208,264.196 663.449,262.531 666.691,260.917 669.932,259.354 673.173,257.843 676.415,256.383 679.656,254.975 682.898,253.618 686.139,252.314 689.38,251.061 692.622,249.861 695.863,248.713 699.104,247.617 702.346,246.574 705.587,245.584 708.829,244.646 712.07,243.762 715.311,242.93 718.553,242.151 721.794,241.425 725.036,240.752 728.277,240.133 731.518,239.567 734.76,239.054 738.001,238.595 741.242,238.189 744.484,237.836 747.725,237.537 750.967,237.292 754.208,237.1 757.449,236.962 760.691,236.877 763.932,236.846 767.174,236.868 770.415,236.945 773.656,237.074 776.898,237.258 780.139,237.495 783.381,237.785 786.622,238.129 789.863,238.526 793.105,238.977 796.346,239.482 799.587,240.039 802.829,240.65 806.07,241.314 809.312,242.032 812.553,242.802 815.794,243.626 819.036,244.502 822.277,245.431 825.519,246.413 828.76,247.448 832.001,248.535 835.243,249.675 838.484,250.867 841.725,252.111 844.967,253.407 848.208,254.755 851.45,256.155 854.691,257.607 857.932,259.11 861.174,260.665 864.415,262.271 867.657,263.928 870.898,265.635 874.139,267.394 877.381,269.203 880.622,271.063 883.863,272.972 887.105,274.932 890.346,276.941 893.588,279.001 896.829,281.109 900.07,283.267 903.312,285.473 906.553,287.729 909.795,290.033 913.036,292.385 916.277,294.785 919.519,297.233 922.76,299.729 926.001,302.272 929.243,304.862 932.484,307.499 935.726,310.182 938.967,312.912 942.208,315.688 945.45,318.509 948.691,321.376 951.933,324.288 955.174,327.245 958.415,330.246 961.657,333.292 964.898,336.382 968.139,339.515 971.381,342.692 974.622,345.911 977.864,349.174 981.105,352.479 984.346,355.825 987.588,359.214 990.829,362.644 994.071,366.115 997.312,369.627 1000.55,373.179 1003.79,376.771 1007.04,380.402 1010.28,384.073 1013.52,387.783 1016.76,391.531 1020,395.318 1023.24,399.142 1026.48,403.003 1029.73,406.902 1032.97,410.837 1036.21,414.808 1039.45,418.816 1042.69,422.858 1045.93,426.936 1049.17,431.048 1052.42,435.194 1055.66,439.375 1058.9,443.588 1062.14,447.835 1065.38,452.114 1068.62,456.425 1071.86,460.767 1075.11,465.141 1078.35,469.546 1081.59,473.981 1084.83,478.446 1088.07,482.94 1091.31,487.464 1094.55,492.016 1097.79,496.596 1101.04,501.204 1104.28,505.839 1107.52,510.5 1110.76,515.188 1114,519.902 1117.24,524.641 1120.48,529.404 1123.73,534.192 1126.97,539.004 1130.21,543.84 1133.45,548.698 1136.69,553.579 1139.93,558.482 1143.17,563.406 1146.42,568.351 1149.66,573.316 1152.9,578.302 1156.14,583.307 1159.38,588.331 1162.62,593.373 1165.86,598.433 1169.11,603.511 1172.35,608.606 1175.59,613.717 1178.83,618.844 1182.07,623.987 1185.31,629.144 1188.55,634.316 1191.8,639.502 1195.04,644.701 1198.28,649.913 1201.52,655.137 1204.76,660.373 1208,665.62 1211.24,670.878 1214.48,676.146 1217.73,681.424 1220.97,686.711 1224.21,692.006 1227.45,697.31 1230.69,702.621 1233.93,707.94 1237.17,713.264 1240.42,718.595 1243.66,723.931 1246.9,729.272 1250.14,734.618 1253.38,739.967 1256.62,745.32 1259.86,750.675 1263.11,756.033 1266.35,761.392 1269.59,766.753 1272.83,772.114 1276.07,777.475 1279.31,782.836 1282.55,788.195 1285.8,793.553 1289.04,798.91 1292.28,804.263 1295.52,809.614 1298.76,814.96 1302,820.303 1305.24,825.641 1308.48,830.973 1311.73,836.3 1314.97,841.62 1318.21,846.934 1321.45,852.24 1324.69,857.538 1327.93,862.828 1331.17,868.109 1334.42,873.38 1337.66,878.642 1340.9,883.892 1344.14,889.132 1347.38,894.36 1350.62,899.576 1353.86,904.779 1357.11,909.969 1360.35,915.145 1363.59,920.307 1366.83,925.454 1370.07,930.586 1373.31,935.703 1376.55,940.803 1379.8,945.886 1383.04,950.952 1386.28,956 1389.52,961.03 1392.76,966.041 1396,971.033 1399.24,976.005 1402.49,980.956 1405.73,985.887 1408.97,990.797 1412.21,995.685 1415.45,1000.55 1418.69,1005.39 1421.93,1010.21 1425.17,1015.01 1428.42,1019.78 1431.66,1024.53 1434.9,1029.25 1438.14,1033.94 1441.38,1038.61 1444.62,1043.26 1447.86,1047.87 1451.11,1052.46 1454.35,1057.02 1457.59,1061.56 1460.83,1066.06 1464.07,1070.53 1467.31,1074.98 1470.55,1079.39 1473.8,1083.78 1477.04,1088.13 1480.28,1092.45 1483.52,1096.74 1486.76,1101 1490,1105.22 1493.24,1109.41 1496.49,1113.57 1499.73,1117.69 1502.97,1121.78 1506.21,1125.84 1509.45,1129.85 1512.69,1133.84 1515.93,1137.78 1519.18,1141.69 1522.42,1145.57 1525.66,1149.4 1528.9,1153.2 1532.14,1156.96 1535.38,1160.68 1538.62,1164.37 1541.86,1168.01 1545.11,1171.62 1548.35,1175.18 1551.59,1178.71 1554.83,1182.19 1558.07,1185.63 1561.31,1189.03 1564.55,1192.39 1567.8,1195.71 1571.04,1198.99 1574.28,1202.22 1577.52,1205.41 1580.76,1208.56 1584,1211.66 1587.24,1214.72 1590.49,1217.74 1593.73,1220.71 1596.97,1223.64 1600.21,1226.52 1603.45,1229.35 1606.69,1232.14 1609.93,1234.89 1613.18,1237.59 1616.42,1240.24 1619.66,1242.84 1622.9,1245.4 1626.14,1247.91 1629.38,1250.38 1632.62,1252.79 1635.86,1255.16 1639.11,1257.48 1642.35,1259.75 1645.59,1261.97 1648.83,1264.14 1652.07,1266.27 1655.31,1268.34 1658.55,1270.37 1661.8,1272.34 1665.04,1274.27 1668.28,1276.15 1671.52,1277.97 1674.76,1279.74 1678,1281.47 1681.24,1283.14 1684.49,1284.76 1687.73,1286.34 1690.97,1287.85 1694.21,1289.32 1697.45,1290.74 1700.69,1292.1 1703.93,1293.42 1707.18,1294.68 1710.42,1295.89 1713.66,1297.04 1716.9,1298.15 1720.14,1299.2 1723.38,1300.2 1726.62,1301.14 1729.87,1302.04 1733.11,1302.88 1736.35,1303.66 1739.59,1304.4 1742.83,1305.08 1746.07,1305.71 1749.31,1306.28 1752.55,1306.8 1755.8,1307.27 1759.04,1307.69 1762.28,1308.05 1765.52,1308.35 1768.76,1308.61 1772,1308.81 1775.24,1308.95 1778.49,1309.05 1781.73,1309.09 1784.97,1309.07 1788.21,1309.01 1791.45,1308.89 1794.69,1308.71 1797.93,1308.48 1801.18,1308.2 1804.42,1307.86 1807.66,1307.48 1810.9,1307.03 1814.14,1306.54 1817.38,1305.99 1820.62,1305.39 1823.87,1304.73 1827.11,1304.02 1830.35,1303.26 1833.59,1302.44 1836.83,1301.58 1840.07,1300.66 1843.31,1299.68 1846.55,1298.66 1849.8,1297.58 1853.04,1296.45 1856.28,1295.26 1859.52,1294.03 1862.76,1292.74 1866,1291.4 1869.24,1290.01 1872.49,1288.56 1875.73,1287.07 1878.97,1285.52 1882.21,1283.92 1885.45,1282.27 1888.69,1280.58 1891.93,1278.82 1895.18,1277.02 1898.42,1275.17 1901.66,1273.27 1904.9,1271.32 1908.14,1269.32 1911.38,1267.27 1914.62,1265.17 1917.87,1263.02 1921.11,1260.82 1924.35,1258.57 1927.59,1256.27 1930.83,1253.93 1934.07,1251.54 1937.31,1249.09 1940.56,1246.61 1943.8,1244.07 1947.04,1241.49 1950.28,1238.86 1953.52,1236.18 1956.76,1233.46 1960,1230.69 1963.24,1227.88 1966.49,1225.02 1969.73,1222.11 1972.97,1219.16 1976.21,1216.17 1979.45,1213.13 1982.69,1210.05 1985.93,1206.92 1989.18,1203.75 1992.42,1200.54 1995.66,1197.28 1998.9,1193.99 2002.14,1190.65 2005.38,1187.26 2008.62,1183.84 2011.87,1180.38 2015.11,1176.87 2018.35,1173.32 2021.59,1169.74 2024.83,1166.11 2028.07,1162.45 2031.31,1158.75 2034.56,1155 2037.8,1151.22 2041.04,1147.4 2044.28,1143.55 2047.52,1139.66 2050.76,1135.73 2054,1131.76 2057.24,1127.76 2060.49,1123.72 2063.73,1119.65 2066.97,1115.54 2070.21,1111.4 2073.45,1107.23 2076.69,1103.02 2079.93,1098.78 2083.18,1094.51 2086.42,1090.2 2089.66,1085.86 2092.9,1081.49 2096.14,1077.09 2099.38,1072.66 2102.62,1068.2 2105.87,1063.71 2109.11,1059.19 2112.35,1054.65 2115.59,1050.07 2118.83,1045.47 2122.07,1040.84 2125.31,1036.18 2128.56,1031.5 2131.8,1026.79 2135.04,1022.05 2138.28,1017.29 2141.52,1012.51 2144.76,1007.7 2148,1002.87 2151.25,998.012 2154.49,993.135 2157.73,988.236 2160.97,983.315 2164.21,978.373 2167.45,973.411 2170.69,968.429 2173.93,963.427 2177.18,958.406 2180.42,953.366 2183.66,948.309 2186.9,943.234 2190.14,938.142 2193.38,933.033 2196.62,927.908 2199.87,922.768 2203.11,917.613 2206.35,912.444 2209.59,907.26 2212.83,902.063 2216.07,896.853 2219.31,891.631 2222.56,886.397 2225.8,881.152 2229.04,875.895 2232.28,870.629 2235.52,865.353 2238.76,860.067 2242,854.773 2245.25,849.47 2248.49,844.16 2251.73,838.843 2254.97,833.519 2258.21,828.189 2261.45,822.854 2264.69,817.514 2267.94,812.169 2271.18,806.82 2274.42,801.468 2277.66,796.113 2280.9,790.756 2284.14,785.397 2287.38,780.036 2290.62,774.675 "/>
<circle clip-path="url(#clip982)" cx="903.312" cy="338.685" r="14.4" fill="#e26f46" fill-rule="evenodd" fill-opacity="1" stroke="#000000" stroke-opacity="1" stroke-width="3.2"/>
<circle clip-path="url(#clip982)" cx="1859.52" cy="1246.99" r="14.4" fill="#e26f46" fill-rule="evenodd" fill-opacity="1" stroke="#000000" stroke-opacity="1" stroke-width="3.2"/>
<circle clip-path="url(#clip982)" cx="1058.9" cy="461.319" r="14.4" fill="#e26f46" fill-rule="evenodd" fill-opacity="1" stroke="#000000" stroke-opacity="1" stroke-width="3.2"/>
<circle clip-path="url(#clip982)" cx="1058.9" cy="473.988" r="14.4" fill="#e26f46" fill-rule="evenodd" fill-opacity="1" stroke="#000000" stroke-opacity="1" stroke-width="3.2"/>
<circle clip-path="url(#clip982)" cx="909.795" cy="161.988" r="14.4" fill="#e26f46" fill-rule="evenodd" fill-opacity="1" stroke="#000000" stroke-opacity="1" stroke-width="3.2"/>
<circle clip-path="url(#clip982)" cx="1739.59" cy="1192.06" r="14.4" fill="#e26f46" fill-rule="evenodd" fill-opacity="1" stroke="#000000" stroke-opacity="1" stroke-width="3.2"/>
<circle clip-path="url(#clip982)" cx="2005.38" cy="1146.24" r="14.4" fill="#e26f46" fill-rule="evenodd" fill-opacity="1" stroke="#000000" stroke-opacity="1" stroke-width="3.2"/>
<circle clip-path="url(#clip982)" cx="1716.9" cy="1342.31" r="14.4" fill="#e26f46" fill-rule="evenodd" fill-opacity="1" stroke="#000000" stroke-opacity="1" stroke-width="3.2"/>
<circle clip-path="url(#clip982)" cx="355.518" cy="704.909" r="14.4" fill="#e26f46" fill-rule="evenodd" fill-opacity="1" stroke="#000000" stroke-opacity="1" stroke-width="3.2"/>
<circle clip-path="url(#clip982)" cx="368.483" cy="565.223" r="14.4" fill="#e26f46" fill-rule="evenodd" fill-opacity="1" stroke="#000000" stroke-opacity="1" stroke-width="3.2"/>
<circle clip-path="url(#clip982)" cx="1840.07" cy="1345.32" r="14.4" fill="#e26f46" fill-rule="evenodd" fill-opacity="1" stroke="#000000" stroke-opacity="1" stroke-width="3.2"/>
<circle clip-path="url(#clip982)" cx="1363.59" cy="991.072" r="14.4" fill="#e26f46" fill-rule="evenodd" fill-opacity="1" stroke="#000000" stroke-opacity="1" stroke-width="3.2"/>
<circle clip-path="url(#clip982)" cx="569.449" cy="458.468" r="14.4" fill="#e26f46" fill-rule="evenodd" fill-opacity="1" stroke="#000000" stroke-opacity="1" stroke-width="3.2"/>
<circle clip-path="url(#clip982)" cx="1224.21" cy="687.879" r="14.4" fill="#e26f46" fill-rule="evenodd" fill-opacity="1" stroke="#000000" stroke-opacity="1" stroke-width="3.2"/>
<circle clip-path="url(#clip982)" cx="1208" cy="605.25" r="14.4" fill="#e26f46" fill-rule="evenodd" fill-opacity="1" stroke="#000000" stroke-opacity="1" stroke-width="3.2"/>
<circle clip-path="url(#clip982)" cx="1353.86" cy="961.907" r="14.4" fill="#e26f46" fill-rule="evenodd" fill-opacity="1" stroke="#000000" stroke-opacity="1" stroke-width="3.2"/>
<circle clip-path="url(#clip982)" cx="974.622" cy="440.942" r="14.4" fill="#e26f46" fill-rule="evenodd" fill-opacity="1" stroke="#000000" stroke-opacity="1" stroke-width="3.2"/>
<circle clip-path="url(#clip982)" cx="355.518" cy="662.46" r="14.4" fill="#e26f46" fill-rule="evenodd" fill-opacity="1" stroke="#000000" stroke-opacity="1" stroke-width="3.2"/>
<circle clip-path="url(#clip982)" cx="355.518" cy="703.455" r="14.4" fill="#e26f46" fill-rule="evenodd" fill-opacity="1" stroke="#000000" stroke-opacity="1" stroke-width="3.2"/>
<circle clip-path="url(#clip982)" cx="2102.62" cy="1200.63" r="14.4" fill="#e26f46" fill-rule="evenodd" fill-opacity="1" stroke="#000000" stroke-opacity="1" stroke-width="3.2"/>
<path clip-path="url(#clip982)" d="M255.035 983.527 L258.276 977.851 L261.517 972.124 L264.759 966.348 L268 960.526 L271.242 954.663 L274.483 948.763 L277.724 942.83 L280.966 936.868 L284.207 930.885 L287.449 924.886 L290.69 918.877 L293.931 912.868 L297.173 906.866 L300.414 900.881 L303.655 894.922 L306.897 889.002 L310.138 883.133 L313.38 877.327 L316.621 871.601 L319.862 865.97 L323.104 860.45 L326.345 855.061 L329.587 849.822 L332.828 844.754 L336.069 839.877 L339.311 835.215 L342.552 830.789 L345.793 826.623 L349.035 822.738 L352.276 819.157 L355.518 815.898 L358.759 812.977 L362 810.392 L365.242 808.136 L368.483 806.201 L371.725 804.574 L374.966 803.232 L378.207 802.149 L381.449 801.299 L384.69 800.656 L387.931 800.194 L391.173 799.888 L394.414 799.714 L397.656 799.649 L400.897 799.673 L404.138 799.765 L407.38 799.906 L410.621 800.081 L413.863 800.274 L417.104 800.47 L420.345 800.657 L423.587 800.824 L426.828 800.96 L430.069 801.057 L433.311 801.106 L436.552 801.101 L439.794 801.036 L443.035 800.905 L446.276 800.704 L449.518 800.428 L452.759 800.077 L456.001 799.646 L459.242 799.134 L462.483 798.54 L465.725 797.863 L468.966 797.104 L472.208 796.263 L475.449 795.34 L478.69 794.337 L481.932 793.256 L485.173 792.099 L488.414 790.868 L491.656 789.567 L494.897 788.198 L498.139 786.767 L501.38 785.276 L504.621 783.73 L507.863 782.135 L511.104 780.495 L514.346 778.816 L517.587 777.104 L520.828 775.366 L524.07 773.607 L527.311 771.835 L530.552 770.057 L533.794 768.28 L537.035 766.513 L540.277 764.763 L543.518 763.038 L546.759 761.347 L550.001 759.698 L553.242 758.1 L556.484 756.562 L559.725 755.093 L562.966 753.7 L566.208 752.394 L569.449 751.182 L572.69 750.071 L575.932 749.057 L579.173 748.131 L582.415 747.287 L585.656 746.518 L588.897 745.817 L592.139 745.176 L595.38 744.588 L598.622 744.046 L601.863 743.543 L605.104 743.073 L608.346 742.628 L611.587 742.203 L614.828 741.792 L618.07 741.387 L621.311 740.985 L624.553 740.578 L627.794 740.162 L631.035 739.731 L634.277 739.282 L637.518 738.808 L640.76 738.306 L644.001 737.772 L647.242 737.201 L650.484 736.59 L653.725 735.936 L656.966 735.234 L660.208 734.482 L663.449 733.677 L666.691 732.816 L669.932 731.897 L673.173 730.917 L676.415 729.873 L679.656 728.764 L682.898 727.588 L686.139 726.343 L689.38 725.028 L692.622 723.641 L695.863 722.18 L699.104 720.645 L702.346 719.034 L705.587 717.347 L708.829 715.583 L712.07 713.742 L715.311 711.822 L718.553 709.823 L721.794 707.746 L725.036 705.589 L728.277 703.354 L731.518 701.039 L734.76 698.646 L738.001 696.175 L741.242 693.626 L744.484 691 L747.725 688.297 L750.967 685.519 L754.208 682.666 L757.449 679.74 L760.691 676.742 L763.932 673.673 L767.174 670.535 L770.415 667.33 L773.656 664.059 L776.898 660.724 L780.139 657.328 L783.381 653.873 L786.622 650.362 L789.863 646.796 L793.105 643.18 L796.346 639.516 L799.587 635.807 L802.829 632.057 L806.07 628.27 L809.312 624.45 L812.553 620.601 L815.794 616.727 L819.036 612.833 L822.277 608.925 L825.519 605.008 L828.76 601.088 L832.001 597.17 L835.243 593.261 L838.484 589.369 L841.725 585.499 L844.967 581.661 L848.208 577.862 L851.45 574.11 L854.691 570.416 L857.932 566.788 L861.174 563.237 L864.415 559.773 L867.657 556.408 L870.898 553.153 L874.139 550.021 L877.381 547.026 L880.622 544.179 L883.863 541.497 L887.105 538.992 L890.346 536.68 L893.588 534.578 L896.829 532.699 L900.07 531.061 L903.312 529.68 L906.553 528.57 L909.795 527.738 L913.036 527.187 L916.277 526.907 L919.519 526.885 L922.76 527.106 L926.001 527.557 L929.243 528.225 L932.484 529.098 L935.726 530.162 L938.967 531.406 L942.208 532.818 L945.45 534.388 L948.691 536.106 L951.933 537.962 L955.174 539.948 L958.415 542.056 L961.657 544.279 L964.898 546.612 L968.139 549.048 L971.381 551.583 L974.622 554.213 L977.864 556.933 L981.105 559.736 L984.346 562.613 L987.588 565.558 L990.829 568.563 L994.071 571.622 L997.312 574.731 L1000.55 577.885 L1003.79 581.081 L1007.04 584.317 L1010.28 587.59 L1013.52 590.901 L1016.76 594.25 L1020 597.637 L1023.24 601.065 L1026.48 604.536 L1029.73 608.054 L1032.97 611.623 L1036.21 615.248 L1039.45 618.935 L1042.69 622.69 L1045.93 626.519 L1049.17 630.429 L1052.42 634.428 L1055.66 638.523 L1058.9 642.722 L1062.14 647.028 L1065.38 651.434 L1068.62 655.929 L1071.86 660.502 L1075.11 665.142 L1078.35 669.838 L1081.59 674.58 L1084.83 679.358 L1088.07 684.164 L1091.31 688.987 L1094.55 693.821 L1097.79 698.656 L1101.04 703.487 L1104.28 708.307 L1107.52 713.11 L1110.76 717.891 L1114 722.645 L1117.24 727.368 L1120.48 732.058 L1123.73 736.711 L1126.97 741.325 L1130.21 745.9 L1133.45 750.434 L1136.69 754.927 L1139.93 759.379 L1143.17 763.793 L1146.42 768.168 L1149.66 772.509 L1152.9 776.817 L1156.14 781.096 L1159.38 785.35 L1162.62 789.584 L1165.86 793.804 L1169.11 798.015 L1172.35 802.223 L1175.59 806.437 L1178.83 810.664 L1182.07 814.911 L1185.31 819.189 L1188.55 823.506 L1191.8 827.872 L1195.04 832.298 L1198.28 836.795 L1201.52 841.372 L1204.76 846.042 L1208 850.817 L1211.24 855.704 L1214.48 860.706 L1217.73 865.821 L1220.97 871.047 L1224.21 876.383 L1227.45 881.826 L1230.69 887.367 L1233.93 892.993 L1237.17 898.694 L1240.42 904.459 L1243.66 910.277 L1246.9 916.139 L1250.14 922.034 L1253.38 927.953 L1256.62 933.889 L1259.86 939.832 L1263.11 945.776 L1266.35 951.713 L1269.59 957.639 L1272.83 963.547 L1276.07 969.434 L1279.31 975.294 L1282.55 981.127 L1285.8 986.928 L1289.04 992.696 L1292.28 998.432 L1295.52 1004.13 L1298.76 1009.8 L1302 1015.44 L1305.24 1021.05 L1308.48 1026.63 L1311.73 1032.2 L1314.97 1037.74 L1318.21 1043.27 L1321.45 1048.8 L1324.69 1054.32 L1327.93 1059.85 L1331.17 1065.39 L1334.42 1070.96 L1337.66 1076.55 L1340.9 1082.19 L1344.14 1087.87 L1347.38 1093.6 L1350.62 1099.4 L1353.86 1105.27 L1357.11 1111.22 L1360.35 1117.24 L1363.59 1123.35 L1366.83 1129.54 L1370.07 1135.79 L1373.31 1142.11 L1376.55 1148.47 L1379.8 1154.88 L1383.04 1161.33 L1386.28 1167.8 L1389.52 1174.29 L1392.76 1180.78 L1396 1187.28 L1399.24 1193.76 L1402.49 1200.24 L1405.73 1206.69 L1408.97 1213.11 L1412.21 1219.5 L1415.45 1225.85 L1418.69 1232.15 L1421.93 1238.4 L1425.17 1244.59 L1428.42 1250.72 L1431.66 1256.79 L1434.9 1262.79 L1438.14 1268.71 L1441.38 1274.56 L1444.62 1280.34 L1447.86 1286.03 L1451.11 1291.63 L1454.35 1297.15 L1457.59 1302.59 L1460.83 1307.93 L1464.07 1313.18 L1467.31 1318.33 L1470.55 1323.4 L1473.8 1328.36 L1477.04 1333.23 L1480.28 1337.99 L1483.52 1342.66 L1486.76 1347.23 L1490 1351.7 L1493.24 1356.06 L1496.49 1360.32 L1499.73 1364.48 L1502.97 1368.53 L1506.21 1372.48 L1509.45 1376.33 L1512.69 1380.07 L1515.93 1383.71 L1519.18 1387.24 L1522.42 1390.66 L1525.66 1393.98 L1528.9 1397.2 L1532.14 1400.3 L1535.38 1403.31 L1538.62 1406.2 L1541.86 1408.99 L1545.11 1411.68 L1548.35 1414.26 L1551.59 1416.74 L1554.83 1419.11 L1558.07 1421.37 L1561.31 1423.54 L1564.55 1425.59 L1567.8 1427.55 L1571.04 1429.4 L1574.28 1431.14 L1577.52 1432.79 L1580.76 1434.33 L1584 1435.77 L1587.24 1437.11 L1590.49 1438.35 L1593.73 1439.48 L1596.97 1440.52 L1600.21 1441.47 L1603.45 1442.31 L1606.69 1443.06 L1609.93 1443.71 L1613.18 1444.27 L1616.42 1444.73 L1619.66 1445.11 L1622.9 1445.39 L1626.14 1445.58 L1629.38 1445.69 L1632.62 1445.72 L1635.86 1445.66 L1639.11 1445.51 L1642.35 1445.3 L1645.59 1445 L1648.83 1444.63 L1652.07 1444.19 L1655.31 1443.69 L1658.55 1443.12 L1661.8 1442.49 L1665.04 1441.81 L1668.28 1441.08 L1671.52 1440.29 L1674.76 1439.47 L1678 1438.61 L1681.24 1437.72 L1684.49 1436.81 L1687.73 1435.88 L1690.97 1434.94 L1694.21 1433.99 L1697.45 1433.05 L1700.69 1432.11 L1703.93 1431.2 L1707.18 1430.31 L1710.42 1429.46 L1713.66 1428.66 L1716.9 1427.9 L1720.14 1427.21 L1723.38 1426.58 L1726.62 1426.02 L1729.87 1425.53 L1733.11 1425.11 L1736.35 1424.78 L1739.59 1424.52 L1742.83 1424.35 L1746.07 1424.25 L1749.31 1424.22 L1752.55 1424.24 L1755.8 1424.3 L1759.04 1424.41 L1762.28 1424.54 L1765.52 1424.69 L1768.76 1424.85 L1772 1425.01 L1775.24 1425.17 L1778.49 1425.32 L1781.73 1425.46 L1784.97 1425.58 L1788.21 1425.67 L1791.45 1425.74 L1794.69 1425.78 L1797.93 1425.79 L1801.18 1425.77 L1804.42 1425.72 L1807.66 1425.64 L1810.9 1425.54 L1814.14 1425.4 L1817.38 1425.24 L1820.62 1425.06 L1823.87 1424.87 L1827.11 1424.66 L1830.35 1424.45 L1833.59 1424.23 L1836.83 1424.02 L1840.07 1423.82 L1843.31 1423.63 L1846.55 1423.46 L1849.8 1423.3 L1853.04 1423.17 L1856.28 1423.05 L1859.52 1422.96 L1862.76 1422.89 L1866 1422.84 L1869.24 1422.79 L1872.49 1422.74 L1875.73 1422.69 L1878.97 1422.62 L1882.21 1422.52 L1885.45 1422.4 L1888.69 1422.25 L1891.93 1422.05 L1895.18 1421.81 L1898.42 1421.51 L1901.66 1421.17 L1904.9 1420.76 L1908.14 1420.3 L1911.38 1419.77 L1914.62 1419.17 L1917.87 1418.51 L1921.11 1417.78 L1924.35 1416.98 L1927.59 1416.1 L1930.83 1415.16 L1934.07 1414.15 L1937.31 1413.08 L1940.56 1411.93 L1943.8 1410.73 L1947.04 1409.46 L1950.28 1408.13 L1953.52 1406.75 L1956.76 1405.32 L1960 1403.85 L1963.24 1402.33 L1966.49 1400.78 L1969.73 1399.19 L1972.97 1397.59 L1976.21 1395.96 L1979.45 1394.32 L1982.69 1392.68 L1985.93 1391.05 L1989.18 1389.43 L1992.42 1387.83 L1995.66 1386.25 L1998.9 1384.72 L2002.14 1383.23 L2005.38 1381.8 L2008.62 1380.43 L2011.87 1379.13 L2015.11 1377.88 L2018.35 1376.69 L2021.59 1375.56 L2024.83 1374.48 L2028.07 1373.44 L2031.31 1372.46 L2034.56 1371.52 L2037.8 1370.62 L2041.04 1369.77 L2044.28 1368.96 L2047.52 1368.2 L2050.76 1367.47 L2054 1366.8 L2057.24 1366.16 L2060.49 1365.58 L2063.73 1365.04 L2066.97 1364.55 L2070.21 1364.11 L2073.45 1363.73 L2076.69 1363.4 L2079.93 1363.14 L2083.18 1362.94 L2086.42 1362.8 L2089.66 1362.74 L2092.9 1362.76 L2096.14 1362.85 L2099.38 1363.02 L2102.62 1363.28 L2105.87 1363.63 L2109.11 1364.06 L2112.35 1364.56 L2115.59 1365.14 L2118.83 1365.79 L2122.07 1366.49 L2125.31 1367.25 L2128.56 1368.07 L2131.8 1368.92 L2135.04 1369.82 L2138.28 1370.75 L2141.52 1371.71 L2144.76 1372.69 L2148 1373.7 L2151.25 1374.72 L2154.49 1375.75 L2157.73 1376.8 L2160.97 1377.84 L2164.21 1378.9 L2167.45 1379.95 L2170.69 1381 L2173.93 1382.04 L2177.18 1383.07 L2180.42 1384.1 L2183.66 1385.11 L2186.9 1386.11 L2190.14 1387.09 L2193.38 1388.05 L2196.62 1388.99 L2199.87 1389.92 L2203.11 1390.82 L2206.35 1391.7 L2209.59 1392.56 L2212.83 1393.39 L2216.07 1394.19 L2219.31 1394.98 L2222.56 1395.73 L2225.8 1396.46 L2229.04 1397.16 L2232.28 1397.83 L2235.52 1398.48 L2238.76 1399.1 L2242 1399.69 L2245.25 1400.25 L2248.49 1400.78 L2251.73 1401.29 L2254.97 1401.77 L2258.21 1402.22 L2261.45 1402.64 L2264.69 1403.03 L2267.94 1403.4 L2271.18 1403.74 L2274.42 1404.05 L2277.66 1404.34 L2280.9 1404.6 L2284.14 1404.83 L2287.38 1405.04 L2290.62 1405.22 L2290.62 570.747 L2287.38 575.397 L2284.14 580.097 L2280.9 584.847 L2277.66 589.647 L2274.42 594.497 L2271.18 599.396 L2267.94 604.344 L2264.69 609.341 L2261.45 614.386 L2258.21 619.479 L2254.97 624.619 L2251.73 629.806 L2248.49 635.038 L2245.25 640.316 L2242 645.638 L2238.76 651.003 L2235.52 656.411 L2232.28 661.861 L2229.04 667.35 L2225.8 672.878 L2222.56 678.444 L2219.31 684.046 L2216.07 689.682 L2212.83 695.351 L2209.59 701.051 L2206.35 706.779 L2203.11 712.534 L2199.87 718.313 L2196.62 724.114 L2193.38 729.935 L2190.14 735.771 L2186.9 741.621 L2183.66 747.481 L2180.42 753.348 L2177.18 759.217 L2173.93 765.087 L2170.69 770.951 L2167.45 776.806 L2164.21 782.647 L2160.97 788.469 L2157.73 794.268 L2154.49 800.038 L2151.25 805.772 L2148 811.466 L2144.76 817.113 L2141.52 822.706 L2138.28 828.238 L2135.04 833.703 L2131.8 839.092 L2128.56 844.399 L2125.31 849.614 L2122.07 854.73 L2118.83 859.738 L2115.59 864.629 L2112.35 869.395 L2109.11 874.026 L2105.87 878.514 L2102.62 882.849 L2099.38 887.026 L2096.14 891.048 L2092.9 894.923 L2089.66 898.659 L2086.42 902.265 L2083.18 905.746 L2079.93 909.111 L2076.69 912.366 L2073.45 915.519 L2070.21 918.576 L2066.97 921.544 L2063.73 924.428 L2060.49 927.234 L2057.24 929.967 L2054 932.632 L2050.76 935.234 L2047.52 937.776 L2044.28 940.261 L2041.04 942.694 L2037.8 945.075 L2034.56 947.408 L2031.31 949.693 L2028.07 951.933 L2024.83 954.127 L2021.59 956.277 L2018.35 958.382 L2015.11 960.442 L2011.87 962.457 L2008.62 964.425 L2005.38 966.347 L2002.14 968.222 L1998.9 970.057 L1995.66 971.86 L1992.42 973.639 L1989.18 975.402 L1985.93 977.156 L1982.69 978.908 L1979.45 980.664 L1976.21 982.431 L1972.97 984.215 L1969.73 986.021 L1966.49 987.853 L1963.24 989.717 L1960 991.615 L1956.76 993.553 L1953.52 995.531 L1950.28 997.553 L1947.04 999.62 L1943.8 1001.73 L1940.56 1003.9 L1937.31 1006.11 L1934.07 1008.36 L1930.83 1010.66 L1927.59 1013.01 L1924.35 1015.4 L1921.11 1017.83 L1917.87 1020.3 L1914.62 1022.81 L1911.38 1025.34 L1908.14 1027.89 L1904.9 1030.47 L1901.66 1033.05 L1898.42 1035.65 L1895.18 1038.24 L1891.93 1040.82 L1888.69 1043.38 L1885.45 1045.92 L1882.21 1048.42 L1878.97 1050.87 L1875.73 1053.26 L1872.49 1055.59 L1869.24 1057.83 L1866 1059.97 L1862.76 1062.01 L1859.52 1063.93 L1856.28 1065.72 L1853.04 1067.37 L1849.8 1068.88 L1846.55 1070.25 L1843.31 1071.46 L1840.07 1072.53 L1836.83 1073.43 L1833.59 1074.19 L1830.35 1074.81 L1827.11 1075.3 L1823.87 1075.68 L1820.62 1075.93 L1817.38 1076.09 L1814.14 1076.15 L1810.9 1076.11 L1807.66 1075.99 L1804.42 1075.79 L1801.18 1075.51 L1797.93 1075.16 L1794.69 1074.74 L1791.45 1074.25 L1788.21 1073.68 L1784.97 1073.05 L1781.73 1072.34 L1778.49 1071.56 L1775.24 1070.7 L1772 1069.76 L1768.76 1068.73 L1765.52 1067.61 L1762.28 1066.39 L1759.04 1065.06 L1755.8 1063.62 L1752.55 1062.05 L1749.31 1060.35 L1746.07 1058.51 L1742.83 1056.52 L1739.59 1054.37 L1736.35 1052.04 L1733.11 1049.55 L1729.87 1046.87 L1726.62 1044.02 L1723.38 1040.99 L1720.14 1037.77 L1716.9 1034.36 L1713.66 1030.77 L1710.42 1027 L1707.18 1023.07 L1703.93 1018.99 L1700.69 1014.78 L1697.45 1010.44 L1694.21 1005.99 L1690.97 1001.44 L1687.73 996.801 L1684.49 992.088 L1681.24 987.309 L1678 982.474 L1674.76 977.592 L1671.52 972.674 L1668.28 967.727 L1665.04 962.76 L1661.8 957.779 L1658.55 952.794 L1655.31 947.81 L1652.07 942.834 L1648.83 937.873 L1645.59 932.931 L1642.35 928.014 L1639.11 923.128 L1635.86 918.277 L1632.62 913.466 L1629.38 908.699 L1626.14 903.979 L1622.9 899.31 L1619.66 894.697 L1616.42 890.142 L1613.18 885.647 L1609.93 881.217 L1606.69 876.853 L1603.45 872.557 L1600.21 868.333 L1596.97 864.182 L1593.73 860.106 L1590.49 856.107 L1587.24 852.186 L1584 848.345 L1580.76 844.585 L1577.52 840.907 L1574.28 837.313 L1571.04 833.802 L1567.8 830.378 L1564.55 827.038 L1561.31 823.786 L1558.07 820.62 L1554.83 817.542 L1551.59 814.551 L1548.35 811.647 L1545.11 808.832 L1541.86 806.104 L1538.62 803.464 L1535.38 800.911 L1532.14 798.445 L1528.9 796.065 L1525.66 793.771 L1522.42 791.563 L1519.18 789.439 L1515.93 787.399 L1512.69 785.441 L1509.45 783.565 L1506.21 781.769 L1502.97 780.053 L1499.73 778.413 L1496.49 776.85 L1493.24 775.36 L1490 773.943 L1486.76 772.596 L1483.52 771.317 L1480.28 770.104 L1477.04 768.955 L1473.8 767.866 L1470.55 766.834 L1467.31 765.858 L1464.07 764.933 L1460.83 764.055 L1457.59 763.223 L1454.35 762.43 L1451.11 761.674 L1447.86 760.95 L1444.62 760.253 L1441.38 759.579 L1438.14 758.921 L1434.9 758.274 L1431.66 757.632 L1428.42 756.99 L1425.17 756.34 L1421.93 755.675 L1418.69 754.987 L1415.45 754.269 L1412.21 753.513 L1408.97 752.709 L1405.73 751.849 L1402.49 750.922 L1399.24 749.918 L1396 748.827 L1392.76 747.637 L1389.52 746.337 L1386.28 744.915 L1383.04 743.358 L1379.8 741.653 L1376.55 739.788 L1373.31 737.749 L1370.07 735.522 L1366.83 733.094 L1363.59 730.452 L1360.35 727.585 L1357.11 724.491 L1353.86 721.171 L1350.62 717.628 L1347.38 713.876 L1344.14 709.928 L1340.9 705.799 L1337.66 701.504 L1334.42 697.058 L1331.17 692.475 L1327.93 687.768 L1324.69 682.951 L1321.45 678.039 L1318.21 673.042 L1314.97 667.973 L1311.73 662.843 L1308.48 657.664 L1305.24 652.443 L1302 647.191 L1298.76 641.917 L1295.52 636.626 L1292.28 631.327 L1289.04 626.024 L1285.8 620.724 L1282.55 615.43 L1279.31 610.146 L1276.07 604.875 L1272.83 599.619 L1269.59 594.379 L1266.35 589.156 L1263.11 583.95 L1259.86 578.759 L1256.62 573.582 L1253.38 568.416 L1250.14 563.26 L1246.9 558.109 L1243.66 552.96 L1240.42 547.808 L1237.17 542.648 L1233.93 537.474 L1230.69 532.282 L1227.45 527.065 L1224.21 521.818 L1220.97 516.535 L1217.73 511.219 L1214.48 505.873 L1211.24 500.498 L1208 495.099 L1204.76 489.68 L1201.52 484.249 L1198.28 478.814 L1195.04 473.386 L1191.8 467.972 L1188.55 462.582 L1185.31 457.224 L1182.07 451.905 L1178.83 446.634 L1175.59 441.417 L1172.35 436.26 L1169.11 431.171 L1165.86 426.155 L1162.62 421.216 L1159.38 416.359 L1156.14 411.588 L1152.9 406.906 L1149.66 402.318 L1146.42 397.824 L1143.17 393.426 L1139.93 389.127 L1136.69 384.926 L1133.45 380.823 L1130.21 376.82 L1126.97 372.913 L1123.73 369.103 L1120.48 365.387 L1117.24 361.762 L1114 358.226 L1110.76 354.775 L1107.52 351.404 L1104.28 348.109 L1101.04 344.885 L1097.79 341.726 L1094.55 338.624 L1091.31 335.574 L1088.07 332.568 L1084.83 329.597 L1081.59 326.654 L1078.35 323.729 L1075.11 320.813 L1071.86 317.896 L1068.62 314.969 L1065.38 312.021 L1062.14 309.043 L1058.9 306.023 L1055.66 302.955 L1052.42 299.843 L1049.17 296.694 L1045.93 293.516 L1042.69 290.315 L1039.45 287.099 L1036.21 283.875 L1032.97 280.649 L1029.73 277.426 L1026.48 274.212 L1023.24 271.012 L1020 267.831 L1016.76 264.67 L1013.52 261.534 L1010.28 258.425 L1007.04 255.342 L1003.79 252.288 L1000.55 249.261 L997.312 246.261 L994.071 243.286 L990.829 240.332 L987.588 237.397 L984.346 234.477 L981.105 231.566 L977.864 228.659 L974.622 225.751 L971.381 222.836 L968.139 219.916 L964.898 216.996 L961.657 214.079 L958.415 211.167 L955.174 208.262 L951.933 205.366 L948.691 202.479 L945.45 199.601 L942.208 196.732 L938.967 193.871 L935.726 191.016 L932.484 188.165 L929.243 185.315 L926.001 182.465 L922.76 179.61 L919.519 176.748 L916.277 173.876 L913.036 170.989 L909.795 168.087 L906.553 165.165 L903.312 162.221 L900.07 159.256 L896.829 156.275 L893.588 153.286 L890.346 150.297 L887.105 147.316 L883.863 144.351 L880.622 141.41 L877.381 138.499 L874.139 135.626 L870.898 132.799 L867.657 130.022 L864.415 127.302 L861.174 124.645 L857.932 122.056 L854.691 119.54 L851.45 117.1 L848.208 114.742 L844.967 112.469 L841.725 110.283 L838.484 108.189 L835.243 106.189 L832.001 104.285 L828.76 102.479 L825.519 100.774 L822.277 99.1708 L819.036 97.6714 L815.794 96.277 L812.553 94.9885 L809.312 93.8069 L806.07 92.7331 L802.829 91.7675 L799.587 90.9108 L796.346 90.1632 L793.105 89.525 L789.863 88.9963 L786.622 88.5772 L783.381 88.2676 L780.139 88.0674 L776.898 87.9763 L773.656 87.994 L770.415 88.1203 L767.174 88.3545 L763.932 88.6964 L760.691 89.1452 L757.449 89.7004 L754.208 90.3614 L750.967 91.1275 L747.725 91.9978 L744.484 92.9717 L741.242 94.0482 L738.001 95.2265 L734.76 96.5057 L731.518 97.8847 L728.277 99.3626 L725.036 100.938 L721.794 102.611 L718.553 104.379 L715.311 106.241 L712.07 108.196 L708.829 110.244 L705.587 112.381 L702.346 114.608 L699.104 116.923 L695.863 119.323 L692.622 121.808 L689.38 124.375 L686.139 127.024 L682.898 129.752 L679.656 132.557 L676.415 135.438 L673.173 138.392 L669.932 141.417 L666.691 144.511 L663.449 147.672 L660.208 150.896 L656.966 154.182 L653.725 157.527 L650.484 160.927 L647.242 164.381 L644.001 167.884 L640.76 171.433 L637.518 175.026 L634.277 178.658 L631.035 182.326 L627.794 186.026 L624.553 189.753 L621.311 193.505 L618.07 197.275 L614.828 201.06 L611.587 204.855 L608.346 208.656 L605.104 212.456 L601.863 216.252 L598.622 220.037 L595.38 223.807 L592.139 227.556 L588.897 231.278 L585.656 234.968 L582.415 238.62 L579.173 242.23 L575.932 245.79 L572.69 249.297 L569.449 252.745 L566.208 256.13 L562.966 259.458 L559.725 262.734 L556.484 265.965 L553.242 269.157 L550.001 272.317 L546.759 275.452 L543.518 278.567 L540.277 281.671 L537.035 284.769 L533.794 287.868 L530.552 290.973 L527.311 294.091 L524.07 297.228 L520.828 300.388 L517.587 303.578 L514.346 306.802 L511.104 310.066 L507.863 313.373 L504.621 316.728 L501.38 320.134 L498.139 323.596 L494.897 327.116 L491.656 330.697 L488.414 334.342 L485.173 338.054 L481.932 341.833 L478.69 345.681 L475.449 349.6 L472.208 353.591 L468.966 357.652 L465.725 361.785 L462.483 365.989 L459.242 370.263 L456.001 374.605 L452.759 379.014 L449.518 383.485 L446.276 388.018 L443.035 392.607 L439.794 397.249 L436.552 401.937 L433.311 406.667 L430.069 411.431 L426.828 416.221 L423.587 421.03 L420.345 425.846 L417.104 430.66 L413.863 435.46 L410.621 440.232 L407.38 444.961 L404.138 449.631 L400.897 454.226 L397.656 458.726 L394.414 463.111 L391.173 467.359 L387.931 471.446 L384.69 475.349 L381.449 479.041 L378.207 482.496 L374.966 485.688 L371.725 488.59 L368.483 491.175 L365.242 493.419 L362 495.301 L358.759 496.804 L355.518 497.91 L352.276 498.613 L349.035 498.925 L345.793 498.867 L342.552 498.463 L339.311 497.735 L336.069 496.706 L332.828 495.402 L329.587 493.845 L326.345 492.057 L323.104 490.061 L319.862 487.876 L316.621 485.523 L313.38 483.018 L310.138 480.38 L306.897 477.623 L303.655 474.763 L300.414 471.812 L297.173 468.783 L293.931 465.686 L290.69 462.533 L287.449 459.333 L284.207 456.093 L280.966 452.822 L277.724 449.527 L274.483 446.214 L271.242 442.89 L268 439.559 L264.759 436.226 L261.517 432.896 L258.276 429.573 L255.035 426.261  Z" fill="#3da44d" fill-rule="evenodd" fill-opacity="0.1"/>
<polyline clip-path="url(#clip982)" style="stroke:#3da44d; stroke-linecap:round; stroke-linejoin:round; stroke-width:8; stroke-opacity:1; fill:none" points="255.035,704.894 258.276,703.712 261.517,702.51 264.759,701.287 268,700.042 271.242,698.776 274.483,697.488 277.724,696.178 280.966,694.845 284.207,693.489 287.449,692.109 290.69,690.705 293.931,689.277 297.173,687.824 300.414,686.346 303.655,684.843 306.897,683.313 310.138,681.756 313.38,680.173 316.621,678.562 319.862,676.923 323.104,675.256 326.345,673.559 329.587,671.834 332.828,670.078 336.069,668.292 339.311,666.475 342.552,664.626 345.793,662.745 349.035,660.832 352.276,658.885 355.518,656.904 358.759,654.89 362,652.847 365.242,650.778 368.483,648.688 371.725,646.582 374.966,644.46 378.207,642.323 381.449,640.17 384.69,638.002 387.931,635.82 391.173,633.623 394.414,631.413 397.656,629.188 400.897,626.95 404.138,624.698 407.38,622.434 410.621,620.156 413.863,617.867 417.104,615.565 420.345,613.252 423.587,610.927 426.828,608.591 430.069,606.244 433.311,603.887 436.552,601.519 439.794,599.142 443.035,596.756 446.276,594.361 449.518,591.957 452.759,589.545 456.001,587.125 459.242,584.698 462.483,582.265 465.725,579.824 468.966,577.378 472.208,574.927 475.449,572.47 478.69,570.009 481.932,567.544 485.173,565.076 488.414,562.605 491.656,560.132 494.897,557.657 498.139,555.181 501.38,552.705 504.621,550.229 507.863,547.754 511.104,545.28 514.346,542.809 517.587,540.341 520.828,537.877 524.07,535.417 527.311,532.963 530.552,530.515 533.794,528.074 537.035,525.641 540.277,523.217 543.518,520.803 546.759,518.399 550.001,516.008 553.242,513.629 556.484,511.263 559.725,508.913 562.966,506.579 566.208,504.262 569.449,501.964 572.69,499.684 575.932,497.423 579.173,495.18 582.415,492.954 585.656,490.743 588.897,488.547 592.139,486.366 595.38,484.197 598.622,482.041 601.863,479.897 605.104,477.765 608.346,475.642 611.587,473.529 614.828,471.426 618.07,469.331 621.311,467.245 624.553,465.166 627.794,463.094 631.035,461.029 634.277,458.97 637.518,456.917 640.76,454.87 644.001,452.828 647.242,450.791 650.484,448.759 653.725,446.731 656.966,444.708 660.208,442.689 663.449,440.675 666.691,438.664 669.932,436.657 673.173,434.654 676.415,432.656 679.656,430.661 682.898,428.67 686.139,426.684 689.38,424.702 692.622,422.724 695.863,420.751 699.104,418.784 702.346,416.821 705.587,414.864 708.829,412.914 712.07,410.969 715.311,409.031 718.553,407.101 721.794,405.178 725.036,403.264 728.277,401.358 731.518,399.462 734.76,397.576 738.001,395.701 741.242,393.837 744.484,391.986 747.725,390.147 750.967,388.323 754.208,386.514 757.449,384.72 760.691,382.944 763.932,381.185 767.174,379.445 770.415,377.725 773.656,376.026 776.898,374.35 780.139,372.698 783.381,371.07 786.622,369.469 789.863,367.896 793.105,366.352 796.346,364.839 799.587,363.359 802.829,361.912 806.07,360.502 809.312,359.128 812.553,357.795 815.794,356.502 819.036,355.252 822.277,354.048 825.519,352.891 828.76,351.783 832.001,350.727 835.243,349.725 838.484,348.779 841.725,347.891 844.967,347.065 848.208,346.302 851.45,345.605 854.691,344.978 857.932,344.422 861.174,343.941 864.415,343.538 867.657,343.215 870.898,342.976 874.139,342.824 877.381,342.762 880.622,342.794 883.863,342.924 887.105,343.154 890.346,343.489 893.588,343.932 896.829,344.487 900.07,345.159 903.312,345.951 906.553,346.867 909.795,347.912 913.036,349.088 916.277,350.391 919.519,351.816 922.76,353.358 926.001,355.011 929.243,356.77 932.484,358.631 935.726,360.589 938.967,362.638 942.208,364.775 945.45,366.994 948.691,369.292 951.933,371.664 955.174,374.105 958.415,376.612 961.657,379.179 964.898,381.804 968.139,384.482 971.381,387.209 974.622,389.982 977.864,392.796 981.105,395.651 984.346,398.545 987.588,401.478 990.829,404.447 994.071,407.454 997.312,410.496 1000.55,413.573 1003.79,416.685 1007.04,419.83 1010.28,423.007 1013.52,426.218 1016.76,429.46 1020,432.734 1023.24,436.039 1026.48,439.374 1029.73,442.74 1032.97,446.136 1036.21,449.562 1039.45,453.017 1042.69,456.503 1045.93,460.017 1049.17,463.562 1052.42,467.136 1055.66,470.739 1058.9,474.372 1062.14,478.035 1065.38,481.728 1068.62,485.449 1071.86,489.199 1075.11,492.977 1078.35,496.783 1081.59,500.617 1084.83,504.478 1088.07,508.366 1091.31,512.281 1094.55,516.222 1097.79,520.191 1101.04,524.186 1104.28,528.208 1107.52,532.257 1110.76,536.333 1114,540.435 1117.24,544.565 1120.48,548.722 1123.73,552.907 1126.97,557.119 1130.21,561.36 1133.45,565.628 1136.69,569.926 1139.93,574.253 1143.17,578.609 1146.42,582.996 1149.66,587.413 1152.9,591.862 1156.14,596.342 1159.38,600.854 1162.62,605.4 1165.86,609.979 1169.11,614.593 1172.35,619.242 1175.59,623.927 1178.83,628.649 1182.07,633.408 1185.31,638.206 1188.55,643.044 1191.8,647.922 1195.04,652.842 1198.28,657.804 1201.52,662.81 1204.76,667.861 1208,672.958 1211.24,678.101 1214.48,683.289 1217.73,688.52 1220.97,693.791 1224.21,699.101 1227.45,704.446 1230.69,709.825 1233.93,715.234 1237.17,720.671 1240.42,726.133 1243.66,731.619 1246.9,737.124 1250.14,742.647 1253.38,748.185 1256.62,753.735 1259.86,759.295 1263.11,764.863 1266.35,770.435 1269.59,776.009 1272.83,781.583 1276.07,787.154 1279.31,792.72 1282.55,798.278 1285.8,803.826 1289.04,809.36 1292.28,814.879 1295.52,820.38 1298.76,825.86 1302,831.317 1305.24,836.747 1308.48,842.149 1311.73,847.52 1314.97,852.857 1318.21,858.157 1321.45,863.417 1324.69,868.635 1327.93,873.809 1331.17,878.934 1334.42,884.008 1337.66,889.029 1340.9,893.992 1344.14,898.897 1347.38,903.738 1350.62,908.513 1353.86,913.219 1357.11,917.854 1360.35,922.415 1363.59,926.902 1366.83,931.316 1370.07,935.656 1373.31,939.927 1376.55,944.131 1379.8,948.268 1383.04,952.343 1386.28,956.357 1389.52,960.311 1392.76,964.209 1396,968.052 1399.24,971.841 1402.49,975.58 1405.73,979.269 1408.97,982.91 1412.21,986.506 1415.45,990.058 1418.69,993.567 1421.93,997.035 1425.17,1000.46 1428.42,1003.86 1431.66,1007.21 1434.9,1010.53 1438.14,1013.82 1441.38,1017.07 1444.62,1020.29 1447.86,1023.49 1451.11,1026.65 1454.35,1029.79 1457.59,1032.9 1460.83,1035.99 1464.07,1039.06 1467.31,1042.1 1470.55,1045.11 1473.8,1048.11 1477.04,1051.09 1480.28,1054.05 1483.52,1056.99 1486.76,1059.91 1490,1062.82 1493.24,1065.71 1496.49,1068.59 1499.73,1071.45 1502.97,1074.29 1506.21,1077.13 1509.45,1079.95 1512.69,1082.76 1515.93,1085.55 1519.18,1088.34 1522.42,1091.11 1525.66,1093.88 1528.9,1096.63 1532.14,1099.37 1535.38,1102.11 1538.62,1104.83 1541.86,1107.55 1545.11,1110.26 1548.35,1112.95 1551.59,1115.64 1554.83,1118.32 1558.07,1121 1561.31,1123.66 1564.55,1126.32 1567.8,1128.96 1571.04,1131.6 1574.28,1134.23 1577.52,1136.85 1580.76,1139.46 1584,1142.06 1587.24,1144.65 1590.49,1147.23 1593.73,1149.8 1596.97,1152.35 1600.21,1154.9 1603.45,1157.43 1606.69,1159.96 1609.93,1162.46 1613.18,1164.96 1616.42,1167.44 1619.66,1169.9 1622.9,1172.35 1626.14,1174.78 1629.38,1177.2 1632.62,1179.59 1635.86,1181.97 1639.11,1184.32 1642.35,1186.65 1645.59,1188.97 1648.83,1191.25 1652.07,1193.51 1655.31,1195.75 1658.55,1197.96 1661.8,1200.14 1665.04,1202.28 1668.28,1204.4 1671.52,1206.48 1674.76,1208.53 1678,1210.54 1681.24,1212.52 1684.49,1214.45 1687.73,1216.34 1690.97,1218.19 1694.21,1219.99 1697.45,1221.74 1700.69,1223.44 1703.93,1225.1 1707.18,1226.69 1710.42,1228.23 1713.66,1229.71 1716.9,1231.13 1720.14,1232.49 1723.38,1233.78 1726.62,1235.02 1729.87,1236.2 1733.11,1237.33 1736.35,1238.41 1739.59,1239.45 1742.83,1240.44 1746.07,1241.38 1749.31,1242.29 1752.55,1243.15 1755.8,1243.96 1759.04,1244.73 1762.28,1245.46 1765.52,1246.15 1768.76,1246.79 1772,1247.38 1775.24,1247.94 1778.49,1248.44 1781.73,1248.9 1784.97,1249.31 1788.21,1249.68 1791.45,1249.99 1794.69,1250.26 1797.93,1250.48 1801.18,1250.64 1804.42,1250.76 1807.66,1250.82 1810.9,1250.82 1814.14,1250.77 1817.38,1250.67 1820.62,1250.5 1823.87,1250.27 1827.11,1249.98 1830.35,1249.63 1833.59,1249.21 1836.83,1248.73 1840.07,1248.17 1843.31,1247.55 1846.55,1246.85 1849.8,1246.09 1853.04,1245.27 1856.28,1244.39 1859.52,1243.45 1862.76,1242.45 1866,1241.41 1869.24,1240.31 1872.49,1239.16 1875.73,1237.97 1878.97,1236.74 1882.21,1235.47 1885.45,1234.16 1888.69,1232.81 1891.93,1231.43 1895.18,1230.02 1898.42,1228.58 1901.66,1227.11 1904.9,1225.62 1908.14,1224.09 1911.38,1222.55 1914.62,1220.99 1917.87,1219.41 1921.11,1217.81 1924.35,1216.19 1927.59,1214.56 1930.83,1212.91 1934.07,1211.26 1937.31,1209.59 1940.56,1207.91 1943.8,1206.23 1947.04,1204.54 1950.28,1202.84 1953.52,1201.14 1956.76,1199.44 1960,1197.73 1963.24,1196.02 1966.49,1194.32 1969.73,1192.61 1972.97,1190.9 1976.21,1189.2 1979.45,1187.49 1982.69,1185.8 1985.93,1184.1 1989.18,1182.41 1992.42,1180.73 1995.66,1179.06 1998.9,1177.39 2002.14,1175.73 2005.38,1174.07 2008.62,1172.43 2011.87,1170.79 2015.11,1169.16 2018.35,1167.54 2021.59,1165.92 2024.83,1164.3 2028.07,1162.69 2031.31,1161.08 2034.56,1159.46 2037.8,1157.85 2041.04,1156.23 2044.28,1154.61 2047.52,1152.99 2050.76,1151.35 2054,1149.71 2057.24,1148.06 2060.49,1146.4 2063.73,1144.73 2066.97,1143.04 2070.21,1141.34 2073.45,1139.62 2076.69,1137.88 2079.93,1136.12 2083.18,1134.34 2086.42,1132.53 2089.66,1130.7 2092.9,1128.84 2096.14,1126.95 2099.38,1125.02 2102.62,1123.06 2105.87,1121.07 2109.11,1119.04 2112.35,1116.98 2115.59,1114.89 2118.83,1112.76 2122.07,1110.61 2125.31,1108.43 2128.56,1106.23 2131.8,1104.01 2135.04,1101.76 2138.28,1099.49 2141.52,1097.21 2144.76,1094.9 2148,1092.58 2151.25,1090.24 2154.49,1087.89 2157.73,1085.53 2160.97,1083.16 2164.21,1080.77 2167.45,1078.38 2170.69,1075.97 2173.93,1073.56 2177.18,1071.15 2180.42,1068.72 2183.66,1066.3 2186.9,1063.86 2190.14,1061.43 2193.38,1058.99 2196.62,1056.55 2199.87,1054.12 2203.11,1051.68 2206.35,1049.24 2209.59,1046.8 2212.83,1044.37 2216.07,1041.94 2219.31,1039.51 2222.56,1037.09 2225.8,1034.67 2229.04,1032.25 2232.28,1029.85 2235.52,1027.45 2238.76,1025.05 2242,1022.66 2245.25,1020.28 2248.49,1017.91 2251.73,1015.55 2254.97,1013.19 2258.21,1010.85 2261.45,1008.51 2264.69,1006.19 2267.94,1003.87 2271.18,1001.57 2274.42,999.274 2277.66,996.992 2280.9,994.722 2284.14,992.463 2287.38,990.217 2290.62,987.984 "/>
<polyline clip-path="url(#clip982)" style="stroke:#c271d2; stroke-linecap:round; stroke-linejoin:round; stroke-width:12; stroke-opacity:1; fill:none" points="255.035,892.83 362.225,758.951 469.416,725.396 576.607,666.861 683.797,629.88 790.988,554.994 898.179,471.041 1005.37,529.122 1112.56,661.315 1219.75,811.371 1326.94,997.636 1434.13,1179.47 1541.32,1310.41 1648.51,1362.11 1755.7,1365.59 1862.89,1364.14 1970.09,1331.77 2077.28,1289.85 2184.47,1281.3 2291.66,1269.21 "/>
<polyline clip-path="url(#clip982)" style="stroke:#ac8d18; stroke-linecap:round; stroke-linejoin:round; stroke-width:12; stroke-opacity:1; fill:none" points="255.035,516.958 362.225,546.457 469.416,428.681 576.607,327.05 683.797,226.357 790.988,179.721 898.179,218.464 1005.37,307.295 1112.56,415.899 1219.75,572.244 1326.94,746.825 1434.13,840.028 1541.32,903.778 1648.51,1019.95 1755.7,1122.28 1862.89,1120.68 1970.09,1053.07 2077.28,985.282 2184.47,850.076 2291.66,705.339 "/>
<path clip-path="url(#clip980)" d="M1953.46 406.258 L2280.8 406.258 L2280.8 95.2176 L1953.46 95.2176  Z" fill="#ffffff" fill-rule="evenodd" fill-opacity="1"/>
<polyline clip-path="url(#clip980)" style="stroke:#000000; stroke-linecap:round; stroke-linejoin:round; stroke-width:4; stroke-opacity:1; fill:none" points="1953.46,406.258 2280.8,406.258 2280.8,95.2176 1953.46,95.2176 1953.46,406.258 "/>
<polyline clip-path="url(#clip980)" style="stroke:#009af9; stroke-linecap:round; stroke-linejoin:round; stroke-width:4; stroke-opacity:1; fill:none" points="1977.44,147.058 2121.36,147.058 "/>
<path clip-path="url(#clip980)" d="M2152.76 131.051 L2152.76 138.412 L2161.53 138.412 L2161.53 141.722 L2152.76 141.722 L2152.76 155.796 Q2152.76 158.967 2153.61 159.87 Q2154.49 160.773 2157.16 160.773 L2161.53 160.773 L2161.53 164.338 L2157.16 164.338 Q2152.23 164.338 2150.35 162.509 Q2148.48 160.657 2148.48 155.796 L2148.48 141.722 L2145.35 141.722 L2145.35 138.412 L2148.48 138.412 L2148.48 131.051 L2152.76 131.051 Z" fill="#000000" fill-rule="nonzero" fill-opacity="1" /><path clip-path="url(#clip980)" d="M2182.16 142.393 Q2181.44 141.977 2180.58 141.791 Q2179.75 141.583 2178.73 141.583 Q2175.12 141.583 2173.17 143.944 Q2171.25 146.282 2171.25 150.68 L2171.25 164.338 L2166.97 164.338 L2166.97 138.412 L2171.25 138.412 L2171.25 142.44 Q2172.6 140.078 2174.75 138.944 Q2176.9 137.787 2179.98 137.787 Q2180.42 137.787 2180.95 137.856 Q2181.48 137.903 2182.13 138.018 L2182.16 142.393 Z" fill="#000000" fill-rule="nonzero" fill-opacity="1" /><path clip-path="url(#clip980)" d="M2186.18 154.106 L2186.18 138.412 L2190.44 138.412 L2190.44 153.944 Q2190.44 157.625 2191.88 159.476 Q2193.31 161.305 2196.18 161.305 Q2199.63 161.305 2201.62 159.106 Q2203.64 156.907 2203.64 153.111 L2203.64 138.412 L2207.9 138.412 L2207.9 164.338 L2203.64 164.338 L2203.64 160.356 Q2202.09 162.717 2200.03 163.875 Q2197.99 165.009 2195.28 165.009 Q2190.81 165.009 2188.5 162.231 Q2186.18 159.453 2186.18 154.106 M2196.9 137.787 L2196.9 137.787 Z" fill="#000000" fill-rule="nonzero" fill-opacity="1" /><path clip-path="url(#clip980)" d="M2220.88 131.051 L2220.88 138.412 L2229.66 138.412 L2229.66 141.722 L2220.88 141.722 L2220.88 155.796 Q2220.88 158.967 2221.74 159.87 Q2222.62 160.773 2225.28 160.773 L2229.66 160.773 L2229.66 164.338 L2225.28 164.338 Q2220.35 164.338 2218.48 162.509 Q2216.6 160.657 2216.6 155.796 L2216.6 141.722 L2213.48 141.722 L2213.48 138.412 L2216.6 138.412 L2216.6 131.051 L2220.88 131.051 Z" fill="#000000" fill-rule="nonzero" fill-opacity="1" /><path clip-path="url(#clip980)" d="M2256.81 148.689 L2256.81 164.338 L2252.55 164.338 L2252.55 148.828 Q2252.55 145.148 2251.11 143.319 Q2249.68 141.49 2246.81 141.49 Q2243.36 141.49 2241.37 143.69 Q2239.38 145.889 2239.38 149.685 L2239.38 164.338 L2235.1 164.338 L2235.1 128.319 L2239.38 128.319 L2239.38 142.44 Q2240.91 140.102 2242.97 138.944 Q2245.05 137.787 2247.76 137.787 Q2252.23 137.787 2254.52 140.565 Q2256.81 143.319 2256.81 148.689 Z" fill="#000000" fill-rule="nonzero" fill-opacity="1" /><circle clip-path="url(#clip980)" cx="2049.4" cy="198.898" r="20.48" fill="#e26f46" fill-rule="evenodd" fill-opacity="1" stroke="#000000" stroke-opacity="1" stroke-width="4.55111"/>
<path clip-path="url(#clip980)" d="M2164.26 194.187 L2164.26 180.159 L2168.52 180.159 L2168.52 216.178 L2164.26 216.178 L2164.26 212.289 Q2162.92 214.603 2160.86 215.738 Q2158.82 216.849 2155.95 216.849 Q2151.25 216.849 2148.29 213.099 Q2145.35 209.349 2145.35 203.238 Q2145.35 197.127 2148.29 193.377 Q2151.25 189.627 2155.95 189.627 Q2158.82 189.627 2160.86 190.761 Q2162.92 191.872 2164.26 194.187 M2149.75 203.238 Q2149.75 207.937 2151.67 210.622 Q2153.61 213.284 2156.99 213.284 Q2160.37 213.284 2162.32 210.622 Q2164.26 207.937 2164.26 203.238 Q2164.26 198.539 2162.32 195.877 Q2160.37 193.192 2156.99 193.192 Q2153.61 193.192 2151.67 195.877 Q2149.75 198.539 2149.75 203.238 Z" fill="#000000" fill-rule="nonzero" fill-opacity="1" /><path clip-path="url(#clip980)" d="M2189.08 203.145 Q2183.92 203.145 2181.92 204.326 Q2179.93 205.506 2179.93 208.354 Q2179.93 210.622 2181.42 211.965 Q2182.92 213.284 2185.49 213.284 Q2189.03 213.284 2191.16 210.784 Q2193.31 208.261 2193.31 204.094 L2193.31 203.145 L2189.08 203.145 M2197.57 201.386 L2197.57 216.178 L2193.31 216.178 L2193.31 212.242 Q2191.85 214.603 2189.68 215.738 Q2187.5 216.849 2184.36 216.849 Q2180.37 216.849 2178.01 214.627 Q2175.67 212.381 2175.67 208.631 Q2175.67 204.256 2178.59 202.034 Q2181.53 199.812 2187.34 199.812 L2193.31 199.812 L2193.31 199.395 Q2193.31 196.455 2191.37 194.858 Q2189.45 193.238 2185.95 193.238 Q2183.73 193.238 2181.62 193.77 Q2179.52 194.303 2177.57 195.367 L2177.57 191.432 Q2179.91 190.53 2182.11 190.09 Q2184.31 189.627 2186.39 189.627 Q2192.02 189.627 2194.79 192.543 Q2197.57 195.46 2197.57 201.386 Z" fill="#000000" fill-rule="nonzero" fill-opacity="1" /><path clip-path="url(#clip980)" d="M2210.56 182.891 L2210.56 190.252 L2219.33 190.252 L2219.33 193.562 L2210.56 193.562 L2210.56 207.636 Q2210.56 210.807 2211.42 211.71 Q2212.29 212.613 2214.96 212.613 L2219.33 212.613 L2219.33 216.178 L2214.96 216.178 Q2210.03 216.178 2208.15 214.349 Q2206.28 212.497 2206.28 207.636 L2206.28 193.562 L2203.15 193.562 L2203.15 190.252 L2206.28 190.252 L2206.28 182.891 L2210.56 182.891 Z" fill="#000000" fill-rule="nonzero" fill-opacity="1" /><path clip-path="url(#clip980)" d="M2236.72 203.145 Q2231.55 203.145 2229.56 204.326 Q2227.57 205.506 2227.57 208.354 Q2227.57 210.622 2229.05 211.965 Q2230.56 213.284 2233.13 213.284 Q2236.67 213.284 2238.8 210.784 Q2240.95 208.261 2240.95 204.094 L2240.95 203.145 L2236.72 203.145 M2245.21 201.386 L2245.21 216.178 L2240.95 216.178 L2240.95 212.242 Q2239.49 214.603 2237.32 215.738 Q2235.14 216.849 2231.99 216.849 Q2228.01 216.849 2225.65 214.627 Q2223.31 212.381 2223.31 208.631 Q2223.31 204.256 2226.23 202.034 Q2229.17 199.812 2234.98 199.812 L2240.95 199.812 L2240.95 199.395 Q2240.95 196.455 2239.01 194.858 Q2237.09 193.238 2233.59 193.238 Q2231.37 193.238 2229.26 193.77 Q2227.16 194.303 2225.21 195.367 L2225.21 191.432 Q2227.55 190.53 2229.75 190.09 Q2231.95 189.627 2234.03 189.627 Q2239.66 189.627 2242.43 192.543 Q2245.21 195.46 2245.21 201.386 Z" fill="#000000" fill-rule="nonzero" fill-opacity="1" /><polyline clip-path="url(#clip980)" style="stroke:#3da44d; stroke-linecap:round; stroke-linejoin:round; stroke-width:8; stroke-opacity:1; fill:none" points="1977.44,250.738 2121.36,250.738 "/>
<path clip-path="url(#clip980)" d="M2170.91 263.087 L2170.91 253.805 L2163.27 253.805 L2163.27 249.962 L2175.54 249.962 L2175.54 264.8 Q2172.83 266.721 2169.56 267.717 Q2166.3 268.689 2162.6 268.689 Q2154.49 268.689 2149.91 263.967 Q2145.35 259.221 2145.35 250.772 Q2145.35 242.3 2149.91 237.578 Q2154.49 232.833 2162.6 232.833 Q2165.98 232.833 2169.01 233.666 Q2172.06 234.499 2174.63 236.12 L2174.63 241.096 Q2172.04 238.897 2169.12 237.786 Q2166.21 236.675 2162.99 236.675 Q2156.65 236.675 2153.45 240.217 Q2150.28 243.758 2150.28 250.772 Q2150.28 257.763 2153.45 261.305 Q2156.65 264.846 2162.99 264.846 Q2165.47 264.846 2167.41 264.43 Q2169.36 263.99 2170.91 263.087 Z" fill="#000000" fill-rule="nonzero" fill-opacity="1" /><path clip-path="url(#clip980)" d="M2188.75 237.3 L2188.75 250.286 L2194.63 250.286 Q2197.9 250.286 2199.68 248.596 Q2201.46 246.907 2201.46 243.782 Q2201.46 240.68 2199.68 238.99 Q2197.9 237.3 2194.63 237.3 L2188.75 237.3 M2184.08 233.458 L2194.63 233.458 Q2200.44 233.458 2203.41 236.096 Q2206.39 238.712 2206.39 243.782 Q2206.39 248.897 2203.41 251.513 Q2200.44 254.129 2194.63 254.129 L2188.75 254.129 L2188.75 268.018 L2184.08 268.018 L2184.08 233.458 Z" fill="#000000" fill-rule="nonzero" fill-opacity="1" /><polyline clip-path="url(#clip980)" style="stroke:#c271d2; stroke-linecap:round; stroke-linejoin:round; stroke-width:12; stroke-opacity:1; fill:none" points="1977.44,302.578 2121.36,302.578 "/>
<path clip-path="url(#clip980)" d="M2150.03 289.14 L2150.03 302.126 L2155.91 302.126 Q2159.17 302.126 2160.95 300.436 Q2162.73 298.747 2162.73 295.622 Q2162.73 292.52 2160.95 290.83 Q2159.17 289.14 2155.91 289.14 L2150.03 289.14 M2145.35 285.298 L2155.91 285.298 Q2161.72 285.298 2164.68 287.936 Q2167.67 290.552 2167.67 295.622 Q2167.67 300.737 2164.68 303.353 Q2161.72 305.969 2155.91 305.969 L2150.03 305.969 L2150.03 319.858 L2145.35 319.858 L2145.35 285.298 Z" fill="#000000" fill-rule="nonzero" fill-opacity="1" /><path clip-path="url(#clip980)" d="M2178.38 315.922 L2194.7 315.922 L2194.7 319.858 L2172.76 319.858 L2172.76 315.922 Q2175.42 313.168 2180 308.538 Q2184.61 303.885 2185.79 302.543 Q2188.04 300.02 2188.92 298.284 Q2189.82 296.524 2189.82 294.835 Q2189.82 292.08 2187.87 290.344 Q2185.95 288.608 2182.85 288.608 Q2180.65 288.608 2178.2 289.372 Q2175.77 290.135 2172.99 291.686 L2172.99 286.964 Q2175.81 285.83 2178.27 285.251 Q2180.72 284.673 2182.76 284.673 Q2188.13 284.673 2191.32 287.358 Q2194.52 290.043 2194.52 294.534 Q2194.52 296.663 2193.71 298.585 Q2192.92 300.483 2190.81 303.075 Q2190.23 303.747 2187.13 306.964 Q2184.03 310.159 2178.38 315.922 Z" fill="#000000" fill-rule="nonzero" fill-opacity="1" /><path clip-path="url(#clip980)" d="M2204.56 285.298 L2222.92 285.298 L2222.92 289.233 L2208.85 289.233 L2208.85 297.705 Q2209.86 297.358 2210.88 297.196 Q2211.9 297.01 2212.92 297.01 Q2218.71 297.01 2222.09 300.182 Q2225.47 303.353 2225.47 308.77 Q2225.47 314.348 2221.99 317.45 Q2218.52 320.529 2212.2 320.529 Q2210.03 320.529 2207.76 320.158 Q2205.51 319.788 2203.1 319.047 L2203.1 314.348 Q2205.19 315.483 2207.41 316.038 Q2209.63 316.594 2212.11 316.594 Q2216.11 316.594 2218.45 314.487 Q2220.79 312.381 2220.79 308.77 Q2220.79 305.159 2218.45 303.052 Q2216.11 300.946 2212.11 300.946 Q2210.23 300.946 2208.36 301.362 Q2206.51 301.779 2204.56 302.659 L2204.56 285.298 Z" fill="#000000" fill-rule="nonzero" fill-opacity="1" /><polyline clip-path="url(#clip980)" style="stroke:#ac8d18; stroke-linecap:round; stroke-linejoin:round; stroke-width:12; stroke-opacity:1; fill:none" points="1977.44,354.418 2121.36,354.418 "/>
<path clip-path="url(#clip980)" d="M2150.03 340.98 L2150.03 353.966 L2155.91 353.966 Q2159.17 353.966 2160.95 352.276 Q2162.73 350.587 2162.73 347.462 Q2162.73 344.36 2160.95 342.67 Q2159.17 340.98 2155.91 340.98 L2150.03 340.98 M2145.35 337.138 L2155.91 337.138 Q2161.72 337.138 2164.68 339.776 Q2167.67 342.392 2167.67 347.462 Q2167.67 352.577 2164.68 355.193 Q2161.72 357.809 2155.91 357.809 L2150.03 357.809 L2150.03 371.698 L2145.35 371.698 L2145.35 337.138 Z" fill="#000000" fill-rule="nonzero" fill-opacity="1" /><path clip-path="url(#clip980)" d="M2173.17 337.138 L2195.4 337.138 L2195.4 339.128 L2182.85 371.698 L2177.97 371.698 L2189.77 341.073 L2173.17 341.073 L2173.17 337.138 Z" fill="#000000" fill-rule="nonzero" fill-opacity="1" /><path clip-path="url(#clip980)" d="M2204.56 337.138 L2222.92 337.138 L2222.92 341.073 L2208.85 341.073 L2208.85 349.545 Q2209.86 349.198 2210.88 349.036 Q2211.9 348.85 2212.92 348.85 Q2218.71 348.85 2222.09 352.022 Q2225.47 355.193 2225.47 360.61 Q2225.47 366.188 2221.99 369.29 Q2218.52 372.369 2212.2 372.369 Q2210.03 372.369 2207.76 371.998 Q2205.51 371.628 2203.1 370.887 L2203.1 366.188 Q2205.19 367.323 2207.41 367.878 Q2209.63 368.434 2212.11 368.434 Q2216.11 368.434 2218.45 366.327 Q2220.79 364.221 2220.79 360.61 Q2220.79 356.999 2218.45 354.892 Q2216.11 352.786 2212.11 352.786 Q2210.23 352.786 2208.36 353.202 Q2206.51 353.619 2204.56 354.499 L2204.56 337.138 Z" fill="#000000" fill-rule="nonzero" fill-opacity="1" /></svg>
