<?xml version="1.0" encoding="utf-8"?>
<svg xmlns="http://www.w3.org/2000/svg" xmlns:xlink="http://www.w3.org/1999/xlink" width="600" height="400" viewBox="0 0 2400 1600">
<defs>
  <clipPath id="clip920">
    <rect x="0" y="0" width="2400" height="1600"/>
  </clipPath>
</defs>
<path clip-path="url(#clip920)" d="M0 1600 L2400 1600 L2400 0 L0 0  Z" fill="#ffffff" fill-rule="evenodd" fill-opacity="1"/>
<defs>
  <clipPath id="clip921">
    <rect x="480" y="0" width="1681" height="1600"/>
  </clipPath>
</defs>
<path clip-path="url(#clip920)" d="M193.936 1486.45 L2352.76 1486.45 L2352.76 47.2441 L193.936 47.2441  Z" fill="#ffffff" fill-rule="evenodd" fill-opacity="1"/>
<defs>
  <clipPath id="clip922">
    <rect x="193" y="47" width="2160" height="1440"/>
  </clipPath>
</defs>
<polyline clip-path="url(#clip922)" style="stroke:#000000; stroke-linecap:round; stroke-linejoin:round; stroke-width:2; stroke-opacity:0.1; fill:none" points="255.035,1486.45 255.035,47.2441 "/>
<polyline clip-path="url(#clip922)" style="stroke:#000000; stroke-linecap:round; stroke-linejoin:round; stroke-width:2; stroke-opacity:0.1; fill:none" points="579.338,1486.45 579.338,47.2441 "/>
<polyline clip-path="url(#clip922)" style="stroke:#000000; stroke-linecap:round; stroke-linejoin:round; stroke-width:2; stroke-opacity:0.1; fill:none" points="903.641,1486.45 903.641,47.2441 "/>
<polyline clip-path="url(#clip922)" style="stroke:#000000; stroke-linecap:round; stroke-linejoin:round; stroke-width:2; stroke-opacity:0.1; fill:none" points="1227.94,1486.45 1227.94,47.2441 "/>
<polyline clip-path="url(#clip922)" style="stroke:#000000; stroke-linecap:round; stroke-linejoin:round; stroke-width:2; stroke-opacity:0.1; fill:none" points="1552.25,1486.45 1552.25,47.2441 "/>
<polyline clip-path="url(#clip922)" style="stroke:#000000; stroke-linecap:round; stroke-linejoin:round; stroke-width:2; stroke-opacity:0.1; fill:none" points="1876.55,1486.45 1876.55,47.2441 "/>
<polyline clip-path="url(#clip922)" style="stroke:#000000; stroke-linecap:round; stroke-linejoin:round; stroke-width:2; stroke-opacity:0.1; fill:none" points="2200.85,1486.45 2200.85,47.2441 "/>
<polyline clip-path="url(#clip922)" style="stroke:#000000; stroke-linecap:round; stroke-linejoin:round; stroke-width:2; stroke-opacity:0.1; fill:none" points="193.936,1404.15 2352.76,1404.15 "/>
<polyline clip-path="url(#clip922)" style="stroke:#000000; stroke-linecap:round; stroke-linejoin:round; stroke-width:2; stroke-opacity:0.1; fill:none" points="193.936,1096.58 2352.76,1096.58 "/>
<polyline clip-path="url(#clip922)" style="stroke:#000000; stroke-linecap:round; stroke-linejoin:round; stroke-width:2; stroke-opacity:0.1; fill:none" points="193.936,789.007 2352.76,789.007 "/>
<polyline clip-path="url(#clip922)" style="stroke:#000000; stroke-linecap:round; stroke-linejoin:round; stroke-width:2; stroke-opacity:0.1; fill:none" points="193.936,481.437 2352.76,481.437 "/>
<polyline clip-path="url(#clip922)" style="stroke:#000000; stroke-linecap:round; stroke-linejoin:round; stroke-width:2; stroke-opacity:0.1; fill:none" points="193.936,173.867 2352.76,173.867 "/>
<polyline clip-path="url(#clip920)" style="stroke:#000000; stroke-linecap:round; stroke-linejoin:round; stroke-width:4; stroke-opacity:1; fill:none" points="193.936,1486.45 2352.76,1486.45 "/>
<polyline clip-path="url(#clip920)" style="stroke:#000000; stroke-linecap:round; stroke-linejoin:round; stroke-width:4; stroke-opacity:1; fill:none" points="255.035,1486.45 255.035,1467.55 "/>
<polyline clip-path="url(#clip920)" style="stroke:#000000; stroke-linecap:round; stroke-linejoin:round; stroke-width:4; stroke-opacity:1; fill:none" points="579.338,1486.45 579.338,1467.55 "/>
<polyline clip-path="url(#clip920)" style="stroke:#000000; stroke-linecap:round; stroke-linejoin:round; stroke-width:4; stroke-opacity:1; fill:none" points="903.641,1486.45 903.641,1467.55 "/>
<polyline clip-path="url(#clip920)" style="stroke:#000000; stroke-linecap:round; stroke-linejoin:round; stroke-width:4; stroke-opacity:1; fill:none" points="1227.94,1486.45 1227.94,1467.55 "/>
<polyline clip-path="url(#clip920)" style="stroke:#000000; stroke-linecap:round; stroke-linejoin:round; stroke-width:4; stroke-opacity:1; fill:none" points="1552.25,1486.45 1552.25,1467.55 "/>
<polyline clip-path="url(#clip920)" style="stroke:#000000; stroke-linecap:round; stroke-linejoin:round; stroke-width:4; stroke-opacity:1; fill:none" points="1876.55,1486.45 1876.55,1467.55 "/>
<polyline clip-path="url(#clip920)" style="stroke:#000000; stroke-linecap:round; stroke-linejoin:round; stroke-width:4; stroke-opacity:1; fill:none" points="2200.85,1486.45 2200.85,1467.55 "/>
<path clip-path="url(#clip920)" d="M255.035 1517.37 Q251.424 1517.37 249.595 1520.93 Q247.789 1524.47 247.789 1531.6 Q247.789 1538.71 249.595 1542.27 Q251.424 1545.82 255.035 1545.82 Q258.669 1545.82 260.474 1542.27 Q262.303 1538.71 262.303 1531.6 Q262.303 1524.47 260.474 1520.93 Q258.669 1517.37 255.035 1517.37 M255.035 1513.66 Q260.845 1513.66 263.9 1518.27 Q266.979 1522.85 266.979 1531.6 Q266.979 1540.33 263.9 1544.94 Q260.845 1549.52 255.035 1549.52 Q249.225 1549.52 246.146 1544.94 Q243.09 1540.33 243.09 1531.6 Q243.09 1522.85 246.146 1518.27 Q249.225 1513.66 255.035 1513.66 Z" fill="#000000" fill-rule="nonzero" fill-opacity="1" /><path clip-path="url(#clip920)" d="M569.72 1544.91 L577.358 1544.91 L577.358 1518.55 L569.048 1520.21 L569.048 1515.95 L577.312 1514.29 L581.988 1514.29 L581.988 1544.91 L589.627 1544.91 L589.627 1548.85 L569.72 1548.85 L569.72 1544.91 Z" fill="#000000" fill-rule="nonzero" fill-opacity="1" /><path clip-path="url(#clip920)" d="M898.293 1544.91 L914.613 1544.91 L914.613 1548.85 L892.668 1548.85 L892.668 1544.91 Q895.33 1542.16 899.914 1537.53 Q904.52 1532.88 905.701 1531.53 Q907.946 1529.01 908.826 1527.27 Q909.729 1525.51 909.729 1523.82 Q909.729 1521.07 907.784 1519.33 Q905.863 1517.6 902.761 1517.6 Q900.562 1517.6 898.108 1518.36 Q895.678 1519.13 892.9 1520.68 L892.9 1515.95 Q895.724 1514.82 898.178 1514.24 Q900.631 1513.66 902.668 1513.66 Q908.039 1513.66 911.233 1516.35 Q914.428 1519.03 914.428 1523.52 Q914.428 1525.65 913.617 1527.57 Q912.83 1529.47 910.724 1532.07 Q910.145 1532.74 907.043 1535.95 Q903.942 1539.15 898.293 1544.91 Z" fill="#000000" fill-rule="nonzero" fill-opacity="1" /><path clip-path="url(#clip920)" d="M1232.19 1530.21 Q1235.55 1530.93 1237.42 1533.2 Q1239.32 1535.47 1239.32 1538.8 Q1239.32 1543.92 1235.8 1546.72 Q1232.28 1549.52 1225.8 1549.52 Q1223.63 1549.52 1221.31 1549.08 Q1219.02 1548.66 1216.57 1547.81 L1216.57 1543.29 Q1218.51 1544.43 1220.83 1545.01 Q1223.14 1545.58 1225.66 1545.58 Q1230.06 1545.58 1232.35 1543.85 Q1234.67 1542.11 1234.67 1538.8 Q1234.67 1535.75 1232.52 1534.03 Q1230.39 1532.3 1226.57 1532.3 L1222.54 1532.3 L1222.54 1528.45 L1226.75 1528.45 Q1230.2 1528.45 1232.03 1527.09 Q1233.86 1525.7 1233.86 1523.11 Q1233.86 1520.45 1231.96 1519.03 Q1230.08 1517.6 1226.57 1517.6 Q1224.64 1517.6 1222.45 1518.01 Q1220.25 1518.43 1217.61 1519.31 L1217.61 1515.14 Q1220.27 1514.4 1222.58 1514.03 Q1224.92 1513.66 1226.98 1513.66 Q1232.31 1513.66 1235.41 1516.09 Q1238.51 1518.5 1238.51 1522.62 Q1238.51 1525.49 1236.87 1527.48 Q1235.22 1529.45 1232.19 1530.21 Z" fill="#000000" fill-rule="nonzero" fill-opacity="1" /><path clip-path="url(#clip920)" d="M1555.26 1518.36 L1543.45 1536.81 L1555.26 1536.81 L1555.26 1518.36 M1554.03 1514.29 L1559.91 1514.29 L1559.91 1536.81 L1564.84 1536.81 L1564.84 1540.7 L1559.91 1540.7 L1559.91 1548.85 L1555.26 1548.85 L1555.26 1540.7 L1539.65 1540.7 L1539.65 1536.19 L1554.03 1514.29 Z" fill="#000000" fill-rule="nonzero" fill-opacity="1" /><path clip-path="url(#clip920)" d="M1866.83 1514.29 L1885.18 1514.29 L1885.18 1518.22 L1871.11 1518.22 L1871.11 1526.7 Q1872.13 1526.35 1873.15 1526.19 Q1874.17 1526 1875.18 1526 Q1880.97 1526 1884.35 1529.17 Q1887.73 1532.34 1887.73 1537.76 Q1887.73 1543.34 1884.26 1546.44 Q1880.79 1549.52 1874.47 1549.52 Q1872.29 1549.52 1870.02 1549.15 Q1867.78 1548.78 1865.37 1548.04 L1865.37 1543.34 Q1867.45 1544.47 1869.67 1545.03 Q1871.9 1545.58 1874.37 1545.58 Q1878.38 1545.58 1880.72 1543.48 Q1883.05 1541.37 1883.05 1537.76 Q1883.05 1534.15 1880.72 1532.04 Q1878.38 1529.94 1874.37 1529.94 Q1872.5 1529.94 1870.62 1530.35 Q1868.77 1530.77 1866.83 1531.65 L1866.83 1514.29 Z" fill="#000000" fill-rule="nonzero" fill-opacity="1" /><path clip-path="url(#clip920)" d="M2201.26 1529.7 Q2198.11 1529.7 2196.26 1531.86 Q2194.43 1534.01 2194.43 1537.76 Q2194.43 1541.49 2196.26 1543.66 Q2198.11 1545.82 2201.26 1545.82 Q2204.41 1545.82 2206.23 1543.66 Q2208.09 1541.49 2208.09 1537.76 Q2208.09 1534.01 2206.23 1531.86 Q2204.41 1529.7 2201.26 1529.7 M2210.54 1515.05 L2210.54 1519.31 Q2208.78 1518.48 2206.98 1518.04 Q2205.19 1517.6 2203.43 1517.6 Q2198.8 1517.6 2196.35 1520.72 Q2193.92 1523.85 2193.57 1530.17 Q2194.94 1528.15 2197 1527.09 Q2199.06 1526 2201.54 1526 Q2206.74 1526 2209.75 1529.17 Q2212.79 1532.32 2212.79 1537.76 Q2212.79 1543.08 2209.64 1546.3 Q2206.49 1549.52 2201.26 1549.52 Q2195.26 1549.52 2192.09 1544.94 Q2188.92 1540.33 2188.92 1531.6 Q2188.92 1523.41 2192.81 1518.55 Q2196.7 1513.66 2203.25 1513.66 Q2205.01 1513.66 2206.79 1514.01 Q2208.6 1514.36 2210.54 1515.05 Z" fill="#000000" fill-rule="nonzero" fill-opacity="1" /><polyline clip-path="url(#clip920)" style="stroke:#000000; stroke-linecap:round; stroke-linejoin:round; stroke-width:4; stroke-opacity:1; fill:none" points="193.936,1486.45 193.936,47.2441 "/>
<polyline clip-path="url(#clip920)" style="stroke:#000000; stroke-linecap:round; stroke-linejoin:round; stroke-width:4; stroke-opacity:1; fill:none" points="193.936,1404.15 212.834,1404.15 "/>
<polyline clip-path="url(#clip920)" style="stroke:#000000; stroke-linecap:round; stroke-linejoin:round; stroke-width:4; stroke-opacity:1; fill:none" points="193.936,1096.58 212.834,1096.58 "/>
<polyline clip-path="url(#clip920)" style="stroke:#000000; stroke-linecap:round; stroke-linejoin:round; stroke-width:4; stroke-opacity:1; fill:none" points="193.936,789.007 212.834,789.007 "/>
<polyline clip-path="url(#clip920)" style="stroke:#000000; stroke-linecap:round; stroke-linejoin:round; stroke-width:4; stroke-opacity:1; fill:none" points="193.936,481.437 212.834,481.437 "/>
<polyline clip-path="url(#clip920)" style="stroke:#000000; stroke-linecap:round; stroke-linejoin:round; stroke-width:4; stroke-opacity:1; fill:none" points="193.936,173.867 212.834,173.867 "/>
<path clip-path="url(#clip920)" d="M50.9921 1404.6 L80.6679 1404.6 L80.6679 1408.53 L50.9921 1408.53 L50.9921 1404.6 Z" fill="#000000" fill-rule="nonzero" fill-opacity="1" /><path clip-path="url(#clip920)" d="M91.5706 1417.49 L99.2095 1417.49 L99.2095 1391.13 L90.8993 1392.79 L90.8993 1388.53 L99.1632 1386.87 L103.839 1386.87 L103.839 1417.49 L111.478 1417.49 L111.478 1421.43 L91.5706 1421.43 L91.5706 1417.49 Z" fill="#000000" fill-rule="nonzero" fill-opacity="1" /><path clip-path="url(#clip920)" d="M120.922 1415.55 L125.807 1415.55 L125.807 1421.43 L120.922 1421.43 L120.922 1415.55 Z" fill="#000000" fill-rule="nonzero" fill-opacity="1" /><path clip-path="url(#clip920)" d="M145.992 1389.95 Q142.381 1389.95 140.552 1393.51 Q138.746 1397.05 138.746 1404.18 Q138.746 1411.29 140.552 1414.85 Q142.381 1418.39 145.992 1418.39 Q149.626 1418.39 151.431 1414.85 Q153.26 1411.29 153.26 1404.18 Q153.26 1397.05 151.431 1393.51 Q149.626 1389.95 145.992 1389.95 M145.992 1386.24 Q151.802 1386.24 154.857 1390.85 Q157.936 1395.43 157.936 1404.18 Q157.936 1412.91 154.857 1417.52 Q151.802 1422.1 145.992 1422.1 Q140.181 1422.1 137.103 1417.52 Q134.047 1412.91 134.047 1404.18 Q134.047 1395.43 137.103 1390.85 Q140.181 1386.24 145.992 1386.24 Z" fill="#000000" fill-rule="nonzero" fill-opacity="1" /><path clip-path="url(#clip920)" d="M51.9875 1097.03 L81.6633 1097.03 L81.6633 1100.96 L51.9875 1100.96 L51.9875 1097.03 Z" fill="#000000" fill-rule="nonzero" fill-opacity="1" /><path clip-path="url(#clip920)" d="M101.756 1082.38 Q98.1447 1082.38 96.316 1085.94 Q94.5104 1089.48 94.5104 1096.61 Q94.5104 1103.72 96.316 1107.28 Q98.1447 1110.82 101.756 1110.82 Q105.39 1110.82 107.196 1107.28 Q109.024 1103.72 109.024 1096.61 Q109.024 1089.48 107.196 1085.94 Q105.39 1082.38 101.756 1082.38 M101.756 1078.67 Q107.566 1078.67 110.621 1083.28 Q113.7 1087.86 113.7 1096.61 Q113.7 1105.34 110.621 1109.95 Q107.566 1114.53 101.756 1114.53 Q95.9456 1114.53 92.8669 1109.95 Q89.8114 1105.34 89.8114 1096.61 Q89.8114 1087.86 92.8669 1083.28 Q95.9456 1078.67 101.756 1078.67 Z" fill="#000000" fill-rule="nonzero" fill-opacity="1" /><path clip-path="url(#clip920)" d="M121.918 1107.98 L126.802 1107.98 L126.802 1113.86 L121.918 1113.86 L121.918 1107.98 Z" fill="#000000" fill-rule="nonzero" fill-opacity="1" /><path clip-path="url(#clip920)" d="M137.033 1079.3 L155.39 1079.3 L155.39 1083.23 L141.316 1083.23 L141.316 1091.7 Q142.334 1091.36 143.353 1091.2 Q144.371 1091.01 145.39 1091.01 Q151.177 1091.01 154.556 1094.18 Q157.936 1097.35 157.936 1102.77 Q157.936 1108.35 154.464 1111.45 Q150.992 1114.53 144.672 1114.53 Q142.496 1114.53 140.228 1114.16 Q137.982 1113.79 135.575 1113.05 L135.575 1108.35 Q137.658 1109.48 139.881 1110.04 Q142.103 1110.59 144.58 1110.59 Q148.584 1110.59 150.922 1108.49 Q153.26 1106.38 153.26 1102.77 Q153.26 1099.16 150.922 1097.05 Q148.584 1094.95 144.58 1094.95 Q142.705 1094.95 140.83 1095.36 Q138.978 1095.78 137.033 1096.66 L137.033 1079.3 Z" fill="#000000" fill-rule="nonzero" fill-opacity="1" /><path clip-path="url(#clip920)" d="M100.76 774.806 Q97.1493 774.806 95.3206 778.371 Q93.515 781.912 93.515 789.042 Q93.515 796.148 95.3206 799.713 Q97.1493 803.255 100.76 803.255 Q104.395 803.255 106.2 799.713 Q108.029 796.148 108.029 789.042 Q108.029 781.912 106.2 778.371 Q104.395 774.806 100.76 774.806 M100.76 771.102 Q106.571 771.102 109.626 775.709 Q112.705 780.292 112.705 789.042 Q112.705 797.769 109.626 802.375 Q106.571 806.958 100.76 806.958 Q94.9502 806.958 91.8715 802.375 Q88.816 797.769 88.816 789.042 Q88.816 780.292 91.8715 775.709 Q94.9502 771.102 100.76 771.102 Z" fill="#000000" fill-rule="nonzero" fill-opacity="1" /><path clip-path="url(#clip920)" d="M120.922 800.408 L125.807 800.408 L125.807 806.287 L120.922 806.287 L120.922 800.408 Z" fill="#000000" fill-rule="nonzero" fill-opacity="1" /><path clip-path="url(#clip920)" d="M145.992 774.806 Q142.381 774.806 140.552 778.371 Q138.746 781.912 138.746 789.042 Q138.746 796.148 140.552 799.713 Q142.381 803.255 145.992 803.255 Q149.626 803.255 151.431 799.713 Q153.26 796.148 153.26 789.042 Q153.26 781.912 151.431 778.371 Q149.626 774.806 145.992 774.806 M145.992 771.102 Q151.802 771.102 154.857 775.709 Q157.936 780.292 157.936 789.042 Q157.936 797.769 154.857 802.375 Q151.802 806.958 145.992 806.958 Q140.181 806.958 137.103 802.375 Q134.047 797.769 134.047 789.042 Q134.047 780.292 137.103 775.709 Q140.181 771.102 145.992 771.102 Z" fill="#000000" fill-rule="nonzero" fill-opacity="1" /><path clip-path="url(#clip920)" d="M101.756 467.236 Q98.1447 467.236 96.316 470.801 Q94.5104 474.342 94.5104 481.472 Q94.5104 488.578 96.316 492.143 Q98.1447 495.685 101.756 495.685 Q105.39 495.685 107.196 492.143 Q109.024 488.578 109.024 481.472 Q109.024 474.342 107.196 470.801 Q105.39 467.236 101.756 467.236 M101.756 463.532 Q107.566 463.532 110.621 468.139 Q113.7 472.722 113.7 481.472 Q113.7 490.199 110.621 494.805 Q107.566 499.388 101.756 499.388 Q95.9456 499.388 92.8669 494.805 Q89.8114 490.199 89.8114 481.472 Q89.8114 472.722 92.8669 468.139 Q95.9456 463.532 101.756 463.532 Z" fill="#000000" fill-rule="nonzero" fill-opacity="1" /><path clip-path="url(#clip920)" d="M121.918 492.837 L126.802 492.837 L126.802 498.717 L121.918 498.717 L121.918 492.837 Z" fill="#000000" fill-rule="nonzero" fill-opacity="1" /><path clip-path="url(#clip920)" d="M137.033 464.157 L155.39 464.157 L155.39 468.092 L141.316 468.092 L141.316 476.564 Q142.334 476.217 143.353 476.055 Q144.371 475.87 145.39 475.87 Q151.177 475.87 154.556 479.041 Q157.936 482.213 157.936 487.629 Q157.936 493.208 154.464 496.31 Q150.992 499.388 144.672 499.388 Q142.496 499.388 140.228 499.018 Q137.982 498.648 135.575 497.907 L135.575 493.208 Q137.658 494.342 139.881 494.898 Q142.103 495.453 144.58 495.453 Q148.584 495.453 150.922 493.347 Q153.26 491.24 153.26 487.629 Q153.26 484.018 150.922 481.912 Q148.584 479.805 144.58 479.805 Q142.705 479.805 140.83 480.222 Q138.978 480.638 137.033 481.518 L137.033 464.157 Z" fill="#000000" fill-rule="nonzero" fill-opacity="1" /><path clip-path="url(#clip920)" d="M91.5706 187.212 L99.2095 187.212 L99.2095 160.846 L90.8993 162.513 L90.8993 158.254 L99.1632 156.587 L103.839 156.587 L103.839 187.212 L111.478 187.212 L111.478 191.147 L91.5706 191.147 L91.5706 187.212 Z" fill="#000000" fill-rule="nonzero" fill-opacity="1" /><path clip-path="url(#clip920)" d="M120.922 185.267 L125.807 185.267 L125.807 191.147 L120.922 191.147 L120.922 185.267 Z" fill="#000000" fill-rule="nonzero" fill-opacity="1" /><path clip-path="url(#clip920)" d="M145.992 159.666 Q142.381 159.666 140.552 163.231 Q138.746 166.772 138.746 173.902 Q138.746 181.008 140.552 184.573 Q142.381 188.115 145.992 188.115 Q149.626 188.115 151.431 184.573 Q153.26 181.008 153.26 173.902 Q153.26 166.772 151.431 163.231 Q149.626 159.666 145.992 159.666 M145.992 155.962 Q151.802 155.962 154.857 160.568 Q157.936 165.152 157.936 173.902 Q157.936 182.629 154.857 187.235 Q151.802 191.818 145.992 191.818 Q140.181 191.818 137.103 187.235 Q134.047 182.629 134.047 173.902 Q134.047 165.152 137.103 160.568 Q140.181 155.962 145.992 155.962 Z" fill="#000000" fill-rule="nonzero" fill-opacity="1" /><polyline clip-path="url(#clip922)" style="stroke:#009af9; stroke-linecap:round; stroke-linejoin:round; stroke-width:4; stroke-opacity:1; fill:none" points="255.035,789.007 258.278,782.856 261.521,776.705 264.764,770.556 268.007,764.408 271.25,758.263 274.493,752.121 277.736,745.982 280.979,739.848 284.222,733.719 287.465,727.596 290.708,721.478 293.951,715.367 297.194,709.264 300.437,703.169 303.68,697.082 306.923,691.004 310.166,684.936 313.409,678.879 316.652,672.832 319.895,666.798 323.138,660.775 326.381,654.765 329.624,648.769 332.867,642.787 336.11,636.819 339.353,630.867 342.596,624.93 345.84,619.01 349.083,613.106 352.326,607.221 355.569,601.353 358.812,595.505 362.055,589.675 365.298,583.866 368.541,578.077 371.784,572.309 375.027,566.563 378.27,560.839 381.513,555.138 384.756,549.46 387.999,543.807 391.242,538.177 394.485,532.573 397.728,526.995 400.971,521.442 404.214,515.917 407.457,510.419 410.7,504.948 413.943,499.506 417.186,494.093 420.429,488.71 423.672,483.356 426.915,478.033 430.158,472.741 433.401,467.481 436.644,462.253 439.887,457.058 443.13,451.896 446.373,446.767 449.616,441.673 452.859,436.613 456.103,431.589 459.346,426.601 462.589,421.648 465.832,416.733 469.075,411.854 472.318,407.014 475.561,402.211 478.804,397.448 482.047,392.723 485.29,388.038 488.533,383.393 491.776,378.789 495.019,374.226 498.262,369.704 501.505,365.224 504.748,360.786 507.991,356.392 511.234,352.04 514.477,347.733 517.72,343.469 520.963,339.25 524.206,335.076 527.449,330.947 530.692,326.864 533.935,322.828 537.178,318.838 540.421,314.895 543.664,310.999 546.907,307.151 550.15,303.352 553.393,299.601 556.636,295.899 559.879,292.246 563.122,288.643 566.366,285.09 569.609,281.587 572.852,278.135 576.095,274.734 579.338,271.385 582.581,268.087 585.824,264.841 589.067,261.648 592.31,258.508 595.553,255.42 598.796,252.386 602.039,249.406 605.282,246.48 608.525,243.607 611.768,240.79 615.011,238.027 618.254,235.319 621.497,232.667 624.74,230.07 627.983,227.529 631.226,225.045 634.469,222.617 637.712,220.245 640.955,217.93 644.198,215.673 647.441,213.472 650.684,211.329 653.927,209.244 657.17,207.217 660.413,205.249 663.656,203.338 666.899,201.486 670.142,199.693 673.385,197.959 676.629,196.284 679.872,194.668 683.115,193.112 686.358,191.615 689.601,190.178 692.844,188.801 696.087,187.483 699.33,186.226 702.573,185.03 705.816,183.893 709.059,182.817 712.302,181.802 715.545,180.848 718.788,179.954 722.031,179.121 725.274,178.35 728.517,177.639 731.76,176.989 735.003,176.401 738.246,175.874 741.489,175.408 744.732,175.004 747.975,174.66 751.218,174.379 754.461,174.159 757.704,174 760.947,173.903 764.19,173.867 767.433,173.893 770.676,173.98 773.919,174.129 777.162,174.34 780.405,174.612 783.648,174.945 786.892,175.339 790.135,175.795 793.378,176.313 796.621,176.891 799.864,177.531 803.107,178.232 806.35,178.994 809.593,179.817 812.836,180.701 816.079,181.646 819.322,182.652 822.565,183.718 825.808,184.845 829.051,186.032 832.294,187.279 835.537,188.587 838.78,189.954 842.023,191.382 845.266,192.869 848.509,194.416 851.752,196.023 854.995,197.688 858.238,199.413 861.481,201.197 864.724,203.039 867.967,204.94 871.21,206.9 874.453,208.918 877.696,210.994 880.939,213.127 884.182,215.318 887.425,217.567 890.668,219.872 893.911,222.235 897.155,224.654 900.398,227.13 903.641,229.662 906.884,232.25 910.127,234.893 913.37,237.592 916.613,240.346 919.856,243.155 923.099,246.018 926.342,248.936 929.585,251.908 932.828,254.934 936.071,258.012 939.314,261.144 942.557,264.329 945.8,267.566 949.043,270.856 952.286,274.197 955.529,277.59 958.772,281.034 962.015,284.528 965.258,288.073 968.501,291.669 971.744,295.313 974.987,299.008 978.23,302.751 981.473,306.543 984.716,310.383 987.959,314.271 991.202,318.207 994.445,322.189 997.688,326.218 1000.93,330.294 1004.17,334.415 1007.42,338.582 1010.66,342.794 1013.9,347.051 1017.15,351.351 1020.39,355.696 1023.63,360.084 1026.88,364.514 1030.12,368.987 1033.36,373.503 1036.6,378.059 1039.85,382.657 1043.09,387.296 1046.33,391.974 1049.58,396.692 1052.82,401.45 1056.06,406.246 1059.31,411.081 1062.55,415.953 1065.79,420.863 1069.04,425.809 1072.28,430.792 1075.52,435.811 1078.76,440.865 1082.01,445.954 1085.25,451.077 1088.49,456.233 1091.74,461.424 1094.98,466.646 1098.22,471.902 1101.47,477.188 1104.71,482.506 1107.95,487.855 1111.19,493.234 1114.44,498.642 1117.68,504.08 1120.92,509.545 1124.17,515.039 1127.41,520.561 1130.65,526.109 1133.9,531.683 1137.14,537.283 1140.38,542.908 1143.62,548.558 1146.87,554.232 1150.11,559.93 1153.35,565.65 1156.6,571.392 1159.84,577.157 1163.08,582.942 1166.33,588.749 1169.57,594.575 1172.81,600.421 1176.06,606.285 1179.3,612.168 1182.54,618.068 1185.78,623.986 1189.03,629.92 1192.27,635.87 1195.51,641.835 1198.76,647.815 1202,653.809 1205.24,659.817 1208.49,665.838 1211.73,671.871 1214.97,677.915 1218.21,683.971 1221.46,690.037 1224.7,696.113 1227.94,702.199 1231.19,708.293 1234.43,714.395 1237.67,720.504 1240.92,726.621 1244.16,732.744 1247.4,738.872 1250.64,745.005 1253.89,751.143 1257.13,757.284 1260.37,763.429 1263.62,769.576 1266.86,775.726 1270.1,781.876 1273.35,788.027 1276.59,794.179 1279.83,800.33 1283.08,806.479 1286.32,812.627 1289.56,818.773 1292.8,824.915 1296.05,831.054 1299.29,837.189 1302.53,843.319 1305.78,849.444 1309.02,855.562 1312.26,861.674 1315.51,867.779 1318.75,873.875 1321.99,879.964 1325.23,886.043 1328.48,892.112 1331.72,898.171 1334.96,904.22 1338.21,910.256 1341.45,916.281 1344.69,922.293 1347.94,928.291 1351.18,934.276 1354.42,940.246 1357.66,946.201 1360.91,952.14 1364.15,958.063 1367.39,963.969 1370.64,969.857 1373.88,975.728 1377.12,981.579 1380.37,987.412 1383.61,993.225 1386.85,999.017 1390.1,1004.79 1393.34,1010.54 1396.58,1016.27 1399.82,1021.97 1403.07,1027.65 1406.31,1033.31 1409.55,1038.94 1412.8,1044.55 1416.04,1050.13 1419.28,1055.69 1422.53,1061.22 1425.77,1066.72 1429.01,1072.2 1432.25,1077.64 1435.5,1083.06 1438.74,1088.45 1441.98,1093.81 1445.23,1099.14 1448.47,1104.43 1451.71,1109.7 1454.96,1114.93 1458.2,1120.13 1461.44,1125.3 1464.68,1130.43 1467.93,1135.53 1471.17,1140.6 1474.41,1145.63 1477.66,1150.62 1480.9,1155.58 1484.14,1160.5 1487.39,1165.39 1490.63,1170.23 1493.87,1175.04 1497.11,1179.81 1500.36,1184.54 1503.6,1189.23 1506.84,1193.88 1510.09,1198.49 1513.33,1203.06 1516.57,1207.59 1519.82,1212.08 1523.06,1216.52 1526.3,1220.93 1529.55,1225.28 1532.79,1229.6 1536.03,1233.87 1539.27,1238.1 1542.52,1242.28 1545.76,1246.41 1549,1250.5 1552.25,1254.55 1555.49,1258.54 1558.73,1262.49 1561.98,1266.4 1565.22,1270.25 1568.46,1274.06 1571.7,1277.82 1574.95,1281.53 1578.19,1285.19 1581.43,1288.8 1584.68,1292.36 1587.92,1295.87 1591.16,1299.33 1594.41,1302.74 1597.65,1306.1 1600.89,1309.41 1604.13,1312.66 1607.38,1315.86 1610.62,1319.01 1613.86,1322.11 1617.11,1325.15 1620.35,1328.14 1623.59,1331.07 1626.84,1333.95 1630.08,1336.78 1633.32,1339.55 1636.57,1342.27 1639.81,1344.93 1643.05,1347.53 1646.29,1350.08 1649.54,1352.58 1652.78,1355.01 1656.02,1357.4 1659.27,1359.72 1662.51,1361.99 1665.75,1364.2 1669,1366.35 1672.24,1368.44 1675.48,1370.48 1678.72,1372.46 1681.97,1374.38 1685.21,1376.24 1688.45,1378.04 1691.7,1379.78 1694.94,1381.47 1698.18,1383.09 1701.43,1384.66 1704.67,1386.17 1707.91,1387.61 1711.15,1389 1714.4,1390.33 1717.64,1391.59 1720.88,1392.8 1724.13,1393.94 1727.37,1395.03 1730.61,1396.05 1733.86,1397.02 1737.1,1397.92 1740.34,1398.76 1743.59,1399.55 1746.83,1400.27 1750.07,1400.93 1753.31,1401.52 1756.56,1402.06 1759.8,1402.54 1763.04,1402.95 1766.29,1403.3 1769.53,1403.59 1772.77,1403.82 1776.02,1403.99 1779.26,1404.1 1782.5,1404.15 1785.74,1404.13 1788.99,1404.05 1792.23,1403.91 1795.47,1403.71 1798.72,1403.45 1801.96,1403.13 1805.2,1402.74 1808.45,1402.3 1811.69,1401.79 1814.93,1401.22 1818.17,1400.59 1821.42,1399.9 1824.66,1399.15 1827.9,1398.33 1831.15,1397.46 1834.39,1396.52 1837.63,1395.53 1840.88,1394.47 1844.12,1393.35 1847.36,1392.18 1850.61,1390.94 1853.85,1389.64 1857.09,1388.28 1860.33,1386.86 1863.58,1385.39 1866.82,1383.85 1870.06,1382.25 1873.31,1380.6 1876.55,1378.88 1879.79,1377.11 1883.04,1375.27 1886.28,1373.38 1889.52,1371.43 1892.76,1369.42 1896.01,1367.36 1899.25,1365.23 1902.49,1363.05 1905.74,1360.81 1908.98,1358.51 1912.22,1356.16 1915.47,1353.75 1918.71,1351.28 1921.95,1348.76 1925.19,1346.18 1928.44,1343.55 1931.68,1340.86 1934.92,1338.11 1938.17,1335.31 1941.41,1332.46 1944.65,1329.55 1947.9,1326.58 1951.14,1323.57 1954.38,1320.5 1957.63,1317.37 1960.87,1314.2 1964.11,1310.97 1967.35,1307.69 1970.6,1304.35 1973.84,1300.97 1977.08,1297.53 1980.33,1294.05 1983.57,1290.51 1986.81,1286.92 1990.06,1283.28 1993.3,1279.6 1996.54,1275.86 1999.78,1272.08 2003.03,1268.25 2006.27,1264.37 2009.51,1260.44 2012.76,1256.46 2016,1252.44 2019.24,1248.37 2022.49,1244.26 2025.73,1240.1 2028.97,1235.89 2032.21,1231.64 2035.46,1227.35 2038.7,1223.01 2041.94,1218.63 2045.19,1214.21 2048.43,1209.74 2051.67,1205.23 2054.92,1200.68 2058.16,1196.09 2061.4,1191.46 2064.65,1186.79 2067.89,1182.08 2071.13,1177.32 2074.37,1172.53 2077.62,1167.71 2080.86,1162.84 2084.1,1157.94 2087.35,1153 2090.59,1148.02 2093.83,1143.01 2097.08,1137.96 2100.32,1132.87 2103.56,1127.76 2106.8,1122.6 2110.05,1117.42 2113.29,1112.2 2116.53,1106.95 2119.78,1101.67 2123.02,1096.36 2126.26,1091.01 2129.51,1085.64 2132.75,1080.24 2135.99,1074.8 2139.23,1069.34 2142.48,1063.85 2145.72,1058.33 2148.96,1052.79 2152.21,1047.22 2155.45,1041.62 2158.69,1036 2161.94,1030.36 2165.18,1024.69 2168.42,1018.99 2171.67,1013.28 2174.91,1007.54 2178.15,1001.78 2181.39,995.995 2184.64,990.192 2187.88,984.369 2191.12,978.526 2194.37,972.664 2197.61,966.785 2200.85,960.887 2204.1,954.972 2207.34,949.04 2210.58,943.093 2213.82,937.13 2217.07,931.152 2220.31,925.16 2223.55,919.155 2226.8,913.136 2230.04,907.105 2233.28,901.063 2236.53,895.009 2239.77,888.944 2243.01,882.869 2246.25,876.785 2249.5,870.693 2252.74,864.592 2255.98,858.483 2259.23,852.368 2262.47,846.246 2265.71,840.119 2268.96,833.986 2272.2,827.849 2275.44,821.708 2278.69,815.564 2281.93,809.417 2285.17,803.268 2288.41,797.118 2291.66,790.967 "/>
<circle clip-path="url(#clip922)" cx="903.641" cy="290.716" r="14.4" fill="#e26f46" fill-rule="evenodd" fill-opacity="1" stroke="#000000" stroke-opacity="1" stroke-width="3.2"/>
<circle clip-path="url(#clip922)" cx="1860.33" cy="1332.89" r="14.4" fill="#e26f46" fill-rule="evenodd" fill-opacity="1" stroke="#000000" stroke-opacity="1" stroke-width="3.2"/>
<circle clip-path="url(#clip922)" cx="1059.31" cy="431.425" r="14.4" fill="#e26f46" fill-rule="evenodd" fill-opacity="1" stroke="#000000" stroke-opacity="1" stroke-width="3.2"/>
<circle clip-path="url(#clip922)" cx="1059.31" cy="445.961" r="14.4" fill="#e26f46" fill-rule="evenodd" fill-opacity="1" stroke="#000000" stroke-opacity="1" stroke-width="3.2"/>
<circle clip-path="url(#clip922)" cx="910.127" cy="87.9763" r="14.4" fill="#e26f46" fill-rule="evenodd" fill-opacity="1" stroke="#000000" stroke-opacity="1" stroke-width="3.2"/>
<circle clip-path="url(#clip922)" cx="1740.34" cy="1269.87" r="14.4" fill="#e26f46" fill-rule="evenodd" fill-opacity="1" stroke="#000000" stroke-opacity="1" stroke-width="3.2"/>
<circle clip-path="url(#clip922)" cx="2006.27" cy="1217.29" r="14.4" fill="#e26f46" fill-rule="evenodd" fill-opacity="1" stroke="#000000" stroke-opacity="1" stroke-width="3.2"/>
<circle clip-path="url(#clip922)" cx="1717.64" cy="1442.27" r="14.4" fill="#e26f46" fill-rule="evenodd" fill-opacity="1" stroke="#000000" stroke-opacity="1" stroke-width="3.2"/>
<circle clip-path="url(#clip922)" cx="355.569" cy="710.918" r="14.4" fill="#e26f46" fill-rule="evenodd" fill-opacity="1" stroke="#000000" stroke-opacity="1" stroke-width="3.2"/>
<circle clip-path="url(#clip922)" cx="368.541" cy="550.644" r="14.4" fill="#e26f46" fill-rule="evenodd" fill-opacity="1" stroke="#000000" stroke-opacity="1" stroke-width="3.2"/>
<circle clip-path="url(#clip922)" cx="1840.88" cy="1445.72" r="14.4" fill="#e26f46" fill-rule="evenodd" fill-opacity="1" stroke="#000000" stroke-opacity="1" stroke-width="3.2"/>
<circle clip-path="url(#clip922)" cx="1364.15" cy="1039.26" r="14.4" fill="#e26f46" fill-rule="evenodd" fill-opacity="1" stroke="#000000" stroke-opacity="1" stroke-width="3.2"/>
<circle clip-path="url(#clip922)" cx="569.609" cy="428.154" r="14.4" fill="#e26f46" fill-rule="evenodd" fill-opacity="1" stroke="#000000" stroke-opacity="1" stroke-width="3.2"/>
<circle clip-path="url(#clip922)" cx="1224.7" cy="691.377" r="14.4" fill="#e26f46" fill-rule="evenodd" fill-opacity="1" stroke="#000000" stroke-opacity="1" stroke-width="3.2"/>
<circle clip-path="url(#clip922)" cx="1208.49" cy="596.57" r="14.4" fill="#e26f46" fill-rule="evenodd" fill-opacity="1" stroke="#000000" stroke-opacity="1" stroke-width="3.2"/>
<circle clip-path="url(#clip922)" cx="1354.42" cy="1005.79" r="14.4" fill="#e26f46" fill-rule="evenodd" fill-opacity="1" stroke="#000000" stroke-opacity="1" stroke-width="3.2"/>
<circle clip-path="url(#clip922)" cx="974.987" cy="408.045" r="14.4" fill="#e26f46" fill-rule="evenodd" fill-opacity="1" stroke="#000000" stroke-opacity="1" stroke-width="3.2"/>
<circle clip-path="url(#clip922)" cx="355.569" cy="662.212" r="14.4" fill="#e26f46" fill-rule="evenodd" fill-opacity="1" stroke="#000000" stroke-opacity="1" stroke-width="3.2"/>
<circle clip-path="url(#clip922)" cx="355.569" cy="709.249" r="14.4" fill="#e26f46" fill-rule="evenodd" fill-opacity="1" stroke="#000000" stroke-opacity="1" stroke-width="3.2"/>
<circle clip-path="url(#clip922)" cx="2103.56" cy="1279.7" r="14.4" fill="#e26f46" fill-rule="evenodd" fill-opacity="1" stroke="#000000" stroke-opacity="1" stroke-width="3.2"/>
<path clip-path="url(#clip920)" d="M1953.46 250.738 L2280.8 250.738 L2280.8 95.2176 L1953.46 95.2176  Z" fill="#ffffff" fill-rule="evenodd" fill-opacity="1"/>
<polyline clip-path="url(#clip920)" style="stroke:#000000; stroke-linecap:round; stroke-linejoin:round; stroke-width:4; stroke-opacity:1; fill:none" points="1953.46,250.738 2280.8,250.738 2280.8,95.2176 1953.46,95.2176 1953.46,250.738 "/>
<polyline clip-path="url(#clip920)" style="stroke:#009af9; stroke-linecap:round; stroke-linejoin:round; stroke-width:4; stroke-opacity:1; fill:none" points="1977.44,147.058 2121.36,147.058 "/>
<path clip-path="url(#clip920)" d="M2152.76 131.051 L2152.76 138.412 L2161.53 138.412 L2161.53 141.722 L2152.76 141.722 L2152.76 155.796 Q2152.76 158.967 2153.61 159.87 Q2154.49 160.773 2157.16 160.773 L2161.53 160.773 L2161.53 164.338 L2157.16 164.338 Q2152.23 164.338 2150.35 162.509 Q2148.48 160.657 2148.48 155.796 L2148.48 141.722 L2145.35 141.722 L2145.35 138.412 L2148.48 138.412 L2148.48 131.051 L2152.76 131.051 Z" fill="#000000" fill-rule="nonzero" fill-opacity="1" /><path clip-path="url(#clip920)" d="M2182.16 142.393 Q2181.44 141.977 2180.58 141.791 Q2179.75 141.583 2178.73 141.583 Q2175.12 141.583 2173.17 143.944 Q2171.25 146.282 2171.25 150.68 L2171.25 164.338 L2166.97 164.338 L2166.97 138.412 L2171.25 138.412 L2171.25 142.44 Q2172.6 140.078 2174.75 138.944 Q2176.9 137.787 2179.98 137.787 Q2180.42 137.787 2180.95 137.856 Q2181.48 137.903 2182.13 138.018 L2182.16 142.393 Z" fill="#000000" fill-rule="nonzero" fill-opacity="1" /><path clip-path="url(#clip920)" d="M2186.18 154.106 L2186.18 138.412 L2190.44 138.412 L2190.44 153.944 Q2190.44 157.625 2191.88 159.476 Q2193.31 161.305 2196.18 161.305 Q2199.63 161.305 2201.62 159.106 Q2203.64 156.907 2203.64 153.111 L2203.64 138.412 L2207.9 138.412 L2207.9 164.338 L2203.64 164.338 L2203.64 160.356 Q2202.09 162.717 2200.03 163.875 Q2197.99 165.009 2195.28 165.009 Q2190.81 165.009 2188.5 162.231 Q2186.18 159.453 2186.18 154.106 M2196.9 137.787 L2196.9 137.787 Z" fill="#000000" fill-rule="nonzero" fill-opacity="1" /><path clip-path="url(#clip920)" d="M2220.88 131.051 L2220.88 138.412 L2229.66 138.412 L2229.66 141.722 L2220.88 141.722 L2220.88 155.796 Q2220.88 158.967 2221.74 159.87 Q2222.62 160.773 2225.28 160.773 L2229.66 160.773 L2229.66 164.338 L2225.28 164.338 Q2220.35 164.338 2218.48 162.509 Q2216.6 160.657 2216.6 155.796 L2216.6 141.722 L2213.48 141.722 L2213.48 138.412 L2216.6 138.412 L2216.6 131.051 L2220.88 131.051 Z" fill="#000000" fill-rule="nonzero" fill-opacity="1" /><path clip-path="url(#clip920)" d="M2256.81 148.689 L2256.81 164.338 L2252.55 164.338 L2252.55 148.828 Q2252.55 145.148 2251.11 143.319 Q2249.68 141.49 2246.81 141.49 Q2243.36 141.49 2241.37 143.69 Q2239.38 145.889 2239.38 149.685 L2239.38 164.338 L2235.1 164.338 L2235.1 128.319 L2239.38 128.319 L2239.38 142.44 Q2240.91 140.102 2242.97 138.944 Q2245.05 137.787 2247.76 137.787 Q2252.23 137.787 2254.52 140.565 Q2256.81 143.319 2256.81 148.689 Z" fill="#000000" fill-rule="nonzero" fill-opacity="1" /><circle clip-path="url(#clip920)" cx="2049.4" cy="198.898" r="20.48" fill="#e26f46" fill-rule="evenodd" fill-opacity="1" stroke="#000000" stroke-opacity="1" stroke-width="4.55111"/>
<path clip-path="url(#clip920)" d="M2164.26 194.187 L2164.26 180.159 L2168.52 180.159 L2168.52 216.178 L2164.26 216.178 L2164.26 212.289 Q2162.92 214.603 2160.86 215.738 Q2158.82 216.849 2155.95 216.849 Q2151.25 216.849 2148.29 213.099 Q2145.35 209.349 2145.35 203.238 Q2145.35 197.127 2148.29 193.377 Q2151.25 189.627 2155.95 189.627 Q2158.82 189.627 2160.86 190.761 Q2162.92 191.872 2164.26 194.187 M2149.75 203.238 Q2149.75 207.937 2151.67 210.622 Q2153.61 213.284 2156.99 213.284 Q2160.37 213.284 2162.32 210.622 Q2164.26 207.937 2164.26 203.238 Q2164.26 198.539 2162.32 195.877 Q2160.37 193.192 2156.99 193.192 Q2153.61 193.192 2151.67 195.877 Q2149.75 198.539 2149.75 203.238 Z" fill="#000000" fill-rule="nonzero" fill-opacity="1" /><path clip-path="url(#clip920)" d="M2189.08 203.145 Q2183.92 203.145 2181.92 204.326 Q2179.93 205.506 2179.93 208.354 Q2179.93 210.622 2181.42 211.965 Q2182.92 213.284 2185.49 213.284 Q2189.03 213.284 2191.16 210.784 Q2193.31 208.261 2193.31 204.094 L2193.31 203.145 L2189.08 203.145 M2197.57 201.386 L2197.57 216.178 L2193.31 216.178 L2193.31 212.242 Q2191.85 214.603 2189.68 215.738 Q2187.5 216.849 2184.36 216.849 Q2180.37 216.849 2178.01 214.627 Q2175.67 212.381 2175.67 208.631 Q2175.67 204.256 2178.59 202.034 Q2181.53 199.812 2187.34 199.812 L2193.31 199.812 L2193.31 199.395 Q2193.31 196.455 2191.37 194.858 Q2189.45 193.238 2185.95 193.238 Q2183.73 193.238 2181.62 193.77 Q2179.52 194.303 2177.57 195.367 L2177.57 191.432 Q2179.91 190.53 2182.11 190.09 Q2184.31 189.627 2186.39 189.627 Q2192.02 189.627 2194.79 192.543 Q2197.57 195.46 2197.57 201.386 Z" fill="#000000" fill-rule="nonzero" fill-opacity="1" /><path clip-path="url(#clip920)" d="M2210.56 182.891 L2210.56 190.252 L2219.33 190.252 L2219.33 193.562 L2210.56 193.562 L2210.56 207.636 Q2210.56 210.807 2211.42 211.71 Q2212.29 212.613 2214.96 212.613 L2219.33 212.613 L2219.33 216.178 L2214.96 216.178 Q2210.03 216.178 2208.15 214.349 Q2206.28 212.497 2206.28 207.636 L2206.28 193.562 L2203.15 193.562 L2203.15 190.252 L2206.28 190.252 L2206.28 182.891 L2210.56 182.891 Z" fill="#000000" fill-rule="nonzero" fill-opacity="1" /><path clip-path="url(#clip920)" d="M2236.72 203.145 Q2231.55 203.145 2229.56 204.326 Q2227.57 205.506 2227.57 208.354 Q2227.57 210.622 2229.05 211.965 Q2230.56 213.284 2233.13 213.284 Q2236.67 213.284 2238.8 210.784 Q2240.95 208.261 2240.95 204.094 L2240.95 203.145 L2236.72 203.145 M2245.21 201.386 L2245.21 216.178 L2240.95 216.178 L2240.95 212.242 Q2239.49 214.603 2237.32 215.738 Q2235.14 216.849 2231.99 216.849 Q2228.01 216.849 2225.65 214.627 Q2223.31 212.381 2223.31 208.631 Q2223.31 204.256 2226.23 202.034 Q2229.17 199.812 2234.98 199.812 L2240.95 199.812 L2240.95 199.395 Q2240.95 196.455 2239.01 194.858 Q2237.09 193.238 2233.59 193.238 Q2231.37 193.238 2229.26 193.77 Q2227.16 194.303 2225.21 195.367 L2225.21 191.432 Q2227.55 190.53 2229.75 190.09 Q2231.95 189.627 2234.03 189.627 Q2239.66 189.627 2242.43 192.543 Q2245.21 195.46 2245.21 201.386 Z" fill="#000000" fill-rule="nonzero" fill-opacity="1" /></svg>
