<?xml version="1.0" encoding="utf-8"?>
<svg xmlns="http://www.w3.org/2000/svg" xmlns:xlink="http://www.w3.org/1999/xlink" width="600" height="400" viewBox="0 0 2400 1600">
<defs>
  <clipPath id="clip950">
    <rect x="0" y="0" width="2400" height="1600"/>
  </clipPath>
</defs>
<path clip-path="url(#clip950)" d="M0 1600 L2400 1600 L2400 0 L0 0  Z" fill="#ffffff" fill-rule="evenodd" fill-opacity="1"/>
<defs>
  <clipPath id="clip951">
    <rect x="480" y="0" width="1681" height="1600"/>
  </clipPath>
</defs>
<path clip-path="url(#clip950)" d="M193.936 1486.45 L2352.76 1486.45 L2352.76 47.2441 L193.936 47.2441  Z" fill="#ffffff" fill-rule="evenodd" fill-opacity="1"/>
<defs>
  <clipPath id="clip952">
    <rect x="193" y="47" width="2160" height="1440"/>
  </clipPath>
</defs>
<polyline clip-path="url(#clip952)" style="stroke:#000000; stroke-linecap:round; stroke-linejoin:round; stroke-width:2; stroke-opacity:0.1; fill:none" points="255.035,1486.45 255.035,47.2441 "/>
<polyline clip-path="url(#clip952)" style="stroke:#000000; stroke-linecap:round; stroke-linejoin:round; stroke-width:2; stroke-opacity:0.1; fill:none" points="579.338,1486.45 579.338,47.2441 "/>
<polyline clip-path="url(#clip952)" style="stroke:#000000; stroke-linecap:round; stroke-linejoin:round; stroke-width:2; stroke-opacity:0.1; fill:none" points="903.641,1486.45 903.641,47.2441 "/>
<polyline clip-path="url(#clip952)" style="stroke:#000000; stroke-linecap:round; stroke-linejoin:round; stroke-width:2; stroke-opacity:0.1; fill:none" points="1227.94,1486.45 1227.94,47.2441 "/>
<polyline clip-path="url(#clip952)" style="stroke:#000000; stroke-linecap:round; stroke-linejoin:round; stroke-width:2; stroke-opacity:0.1; fill:none" points="1552.25,1486.45 1552.25,47.2441 "/>
<polyline clip-path="url(#clip952)" style="stroke:#000000; stroke-linecap:round; stroke-linejoin:round; stroke-width:2; stroke-opacity:0.1; fill:none" points="1876.55,1486.45 1876.55,47.2441 "/>
<polyline clip-path="url(#clip952)" style="stroke:#000000; stroke-linecap:round; stroke-linejoin:round; stroke-width:2; stroke-opacity:0.1; fill:none" points="2200.85,1486.45 2200.85,47.2441 "/>
<polyline clip-path="url(#clip952)" style="stroke:#000000; stroke-linecap:round; stroke-linejoin:round; stroke-width:2; stroke-opacity:0.1; fill:none" points="193.936,1309.09 2352.76,1309.09 "/>
<polyline clip-path="url(#clip952)" style="stroke:#000000; stroke-linecap:round; stroke-linejoin:round; stroke-width:2; stroke-opacity:0.1; fill:none" points="193.936,1041.03 2352.76,1041.03 "/>
<polyline clip-path="url(#clip952)" style="stroke:#000000; stroke-linecap:round; stroke-linejoin:round; stroke-width:2; stroke-opacity:0.1; fill:none" points="193.936,772.968 2352.76,772.968 "/>
<polyline clip-path="url(#clip952)" style="stroke:#000000; stroke-linecap:round; stroke-linejoin:round; stroke-width:2; stroke-opacity:0.1; fill:none" points="193.936,504.907 2352.76,504.907 "/>
<polyline clip-path="url(#clip952)" style="stroke:#000000; stroke-linecap:round; stroke-linejoin:round; stroke-width:2; stroke-opacity:0.1; fill:none" points="193.936,236.846 2352.76,236.846 "/>
<polyline clip-path="url(#clip950)" style="stroke:#000000; stroke-linecap:round; stroke-linejoin:round; stroke-width:4; stroke-opacity:1; fill:none" points="193.936,1486.45 2352.76,1486.45 "/>
<polyline clip-path="url(#clip950)" style="stroke:#000000; stroke-linecap:round; stroke-linejoin:round; stroke-width:4; stroke-opacity:1; fill:none" points="255.035,1486.45 255.035,1467.55 "/>
<polyline clip-path="url(#clip950)" style="stroke:#000000; stroke-linecap:round; stroke-linejoin:round; stroke-width:4; stroke-opacity:1; fill:none" points="579.338,1486.45 579.338,1467.55 "/>
<polyline clip-path="url(#clip950)" style="stroke:#000000; stroke-linecap:round; stroke-linejoin:round; stroke-width:4; stroke-opacity:1; fill:none" points="903.641,1486.45 903.641,1467.55 "/>
<polyline clip-path="url(#clip950)" style="stroke:#000000; stroke-linecap:round; stroke-linejoin:round; stroke-width:4; stroke-opacity:1; fill:none" points="1227.94,1486.45 1227.94,1467.55 "/>
<polyline clip-path="url(#clip950)" style="stroke:#000000; stroke-linecap:round; stroke-linejoin:round; stroke-width:4; stroke-opacity:1; fill:none" points="1552.25,1486.45 1552.25,1467.55 "/>
<polyline clip-path="url(#clip950)" style="stroke:#000000; stroke-linecap:round; stroke-linejoin:round; stroke-width:4; stroke-opacity:1; fill:none" points="1876.55,1486.45 1876.55,1467.55 "/>
<polyline clip-path="url(#clip950)" style="stroke:#000000; stroke-linecap:round; stroke-linejoin:round; stroke-width:4; stroke-opacity:1; fill:none" points="2200.85,1486.45 2200.85,1467.55 "/>
<path clip-path="url(#clip950)" d="M255.035 1517.37 Q251.424 1517.37 249.595 1520.93 Q247.789 1524.47 247.789 1531.6 Q247.789 1538.71 249.595 1542.27 Q251.424 1545.82 255.035 1545.82 Q258.669 1545.82 260.474 1542.27 Q262.303 1538.71 262.303 1531.6 Q262.303 1524.47 260.474 1520.93 Q258.669 1517.37 255.035 1517.37 M255.035 1513.66 Q260.845 1513.66 263.9 1518.27 Q266.979 1522.85 266.979 1531.6 Q266.979 1540.33 263.9 1544.94 Q260.845 1549.52 255.035 1549.52 Q249.225 1549.52 246.146 1544.94 Q243.09 1540.33 243.09 1531.6 Q243.09 1522.85 246.146 1518.27 Q249.225 1513.66 255.035 1513.66 Z" fill="#000000" fill-rule="nonzero" fill-opacity="1" /><path clip-path="url(#clip950)" d="M569.72 1544.91 L577.358 1544.91 L577.358 1518.55 L569.048 1520.21 L569.048 1515.95 L577.312 1514.29 L581.988 1514.29 L581.988 1544.91 L589.627 1544.91 L589.627 1548.85 L569.72 1548.85 L569.72 1544.91 Z" fill="#000000" fill-rule="nonzero" fill-opacity="1" /><path clip-path="url(#clip950)" d="M898.293 1544.91 L914.613 1544.91 L914.613 1548.85 L892.668 1548.85 L892.668 1544.91 Q895.33 1542.16 899.914 1537.53 Q904.52 1532.88 905.701 1531.53 Q907.946 1529.01 908.826 1527.27 Q909.729 1525.51 909.729 1523.82 Q909.729 1521.07 907.784 1519.33 Q905.863 1517.6 902.761 1517.6 Q900.562 1517.6 898.108 1518.36 Q895.678 1519.13 892.9 1520.68 L892.9 1515.95 Q895.724 1514.82 898.178 1514.24 Q900.631 1513.66 902.668 1513.66 Q908.039 1513.66 911.233 1516.35 Q914.428 1519.03 914.428 1523.52 Q914.428 1525.65 913.617 1527.57 Q912.83 1529.47 910.724 1532.07 Q910.145 1532.74 907.043 1535.95 Q903.942 1539.15 898.293 1544.91 Z" fill="#000000" fill-rule="nonzero" fill-opacity="1" /><path clip-path="url(#clip950)" d="M1232.19 1530.21 Q1235.55 1530.93 1237.42 1533.2 Q1239.32 1535.47 1239.32 1538.8 Q1239.32 1543.92 1235.8 1546.72 Q1232.28 1549.52 1225.8 1549.52 Q1223.63 1549.52 1221.31 1549.08 Q1219.02 1548.66 1216.57 1547.81 L1216.57 1543.29 Q1218.51 1544.43 1220.83 1545.01 Q1223.14 1545.58 1225.66 1545.58 Q1230.06 1545.58 1232.35 1543.85 Q1234.67 1542.11 1234.67 1538.8 Q1234.67 1535.75 1232.52 1534.03 Q1230.39 1532.3 1226.57 1532.3 L1222.54 1532.3 L1222.54 1528.45 L1226.75 1528.45 Q1230.2 1528.45 1232.03 1527.09 Q1233.86 1525.7 1233.86 1523.11 Q1233.86 1520.45 1231.96 1519.03 Q1230.08 1517.6 1226.57 1517.6 Q1224.64 1517.6 1222.45 1518.01 Q1220.25 1518.43 1217.61 1519.31 L1217.61 1515.14 Q1220.27 1514.4 1222.58 1514.03 Q1224.92 1513.66 1226.98 1513.66 Q1232.31 1513.66 1235.41 1516.09 Q1238.51 1518.5 1238.51 1522.62 Q1238.51 1525.49 1236.87 1527.48 Q1235.22 1529.45 1232.19 1530.21 Z" fill="#000000" fill-rule="nonzero" fill-opacity="1" /><path clip-path="url(#clip950)" d="M1555.26 1518.36 L1543.45 1536.81 L1555.26 1536.81 L1555.26 1518.36 M1554.03 1514.29 L1559.91 1514.29 L1559.91 1536.81 L1564.84 1536.81 L1564.84 1540.7 L1559.91 1540.7 L1559.91 1548.85 L1555.26 1548.85 L1555.26 1540.7 L1539.65 1540.7 L1539.65 1536.19 L1554.03 1514.29 Z" fill="#000000" fill-rule="nonzero" fill-opacity="1" /><path clip-path="url(#clip950)" d="M1866.83 1514.29 L1885.18 1514.29 L1885.18 1518.22 L1871.11 1518.22 L1871.11 1526.7 Q1872.13 1526.35 1873.15 1526.19 Q1874.17 1526 1875.18 1526 Q1880.97 1526 1884.35 1529.17 Q1887.73 1532.34 1887.73 1537.76 Q1887.73 1543.34 1884.26 1546.44 Q1880.79 1549.52 1874.47 1549.52 Q1872.29 1549.52 1870.02 1549.15 Q1867.78 1548.78 1865.37 1548.04 L1865.37 1543.34 Q1867.45 1544.47 1869.67 1545.03 Q1871.9 1545.58 1874.37 1545.58 Q1878.38 1545.58 1880.72 1543.48 Q1883.05 1541.37 1883.05 1537.76 Q1883.05 1534.15 1880.72 1532.04 Q1878.38 1529.94 1874.37 1529.94 Q1872.5 1529.94 1870.62 1530.35 Q1868.77 1530.77 1866.83 1531.65 L1866.83 1514.29 Z" fill="#000000" fill-rule="nonzero" fill-opacity="1" /><path clip-path="url(#clip950)" d="M2201.26 1529.7 Q2198.11 1529.7 2196.26 1531.86 Q2194.43 1534.01 2194.43 1537.76 Q2194.43 1541.49 2196.26 1543.66 Q2198.11 1545.82 2201.26 1545.82 Q2204.41 1545.82 2206.23 1543.66 Q2208.09 1541.49 2208.09 1537.76 Q2208.09 1534.01 2206.23 1531.86 Q2204.41 1529.7 2201.26 1529.7 M2210.54 1515.05 L2210.54 1519.31 Q2208.78 1518.48 2206.98 1518.04 Q2205.19 1517.6 2203.43 1517.6 Q2198.8 1517.6 2196.35 1520.72 Q2193.92 1523.85 2193.57 1530.17 Q2194.94 1528.15 2197 1527.09 Q2199.06 1526 2201.54 1526 Q2206.74 1526 2209.75 1529.17 Q2212.79 1532.32 2212.79 1537.76 Q2212.79 1543.08 2209.64 1546.3 Q2206.49 1549.52 2201.26 1549.52 Q2195.26 1549.52 2192.09 1544.94 Q2188.92 1540.33 2188.92 1531.6 Q2188.92 1523.41 2192.81 1518.55 Q2196.7 1513.66 2203.25 1513.66 Q2205.01 1513.66 2206.79 1514.01 Q2208.6 1514.36 2210.54 1515.05 Z" fill="#000000" fill-rule="nonzero" fill-opacity="1" /><polyline clip-path="url(#clip950)" style="stroke:#000000; stroke-linecap:round; stroke-linejoin:round; stroke-width:4; stroke-opacity:1; fill:none" points="193.936,1486.45 193.936,47.2441 "/>
<polyline clip-path="url(#clip950)" style="stroke:#000000; stroke-linecap:round; stroke-linejoin:round; stroke-width:4; stroke-opacity:1; fill:none" points="193.936,1309.09 212.834,1309.09 "/>
<polyline clip-path="url(#clip950)" style="stroke:#000000; stroke-linecap:round; stroke-linejoin:round; stroke-width:4; stroke-opacity:1; fill:none" points="193.936,1041.03 212.834,1041.03 "/>
<polyline clip-path="url(#clip950)" style="stroke:#000000; stroke-linecap:round; stroke-linejoin:round; stroke-width:4; stroke-opacity:1; fill:none" points="193.936,772.968 212.834,772.968 "/>
<polyline clip-path="url(#clip950)" style="stroke:#000000; stroke-linecap:round; stroke-linejoin:round; stroke-width:4; stroke-opacity:1; fill:none" points="193.936,504.907 212.834,504.907 "/>
<polyline clip-path="url(#clip950)" style="stroke:#000000; stroke-linecap:round; stroke-linejoin:round; stroke-width:4; stroke-opacity:1; fill:none" points="193.936,236.846 212.834,236.846 "/>
<path clip-path="url(#clip950)" d="M50.9921 1309.54 L80.6679 1309.54 L80.6679 1313.48 L50.9921 1313.48 L50.9921 1309.54 Z" fill="#000000" fill-rule="nonzero" fill-opacity="1" /><path clip-path="url(#clip950)" d="M91.5706 1322.43 L99.2095 1322.43 L99.2095 1296.07 L90.8993 1297.74 L90.8993 1293.48 L99.1632 1291.81 L103.839 1291.81 L103.839 1322.43 L111.478 1322.43 L111.478 1326.37 L91.5706 1326.37 L91.5706 1322.43 Z" fill="#000000" fill-rule="nonzero" fill-opacity="1" /><path clip-path="url(#clip950)" d="M120.922 1320.49 L125.807 1320.49 L125.807 1326.37 L120.922 1326.37 L120.922 1320.49 Z" fill="#000000" fill-rule="nonzero" fill-opacity="1" /><path clip-path="url(#clip950)" d="M145.992 1294.89 Q142.381 1294.89 140.552 1298.45 Q138.746 1301.99 138.746 1309.12 Q138.746 1316.23 140.552 1319.8 Q142.381 1323.34 145.992 1323.34 Q149.626 1323.34 151.431 1319.8 Q153.26 1316.23 153.26 1309.12 Q153.26 1301.99 151.431 1298.45 Q149.626 1294.89 145.992 1294.89 M145.992 1291.18 Q151.802 1291.18 154.857 1295.79 Q157.936 1300.37 157.936 1309.12 Q157.936 1317.85 154.857 1322.46 Q151.802 1327.04 145.992 1327.04 Q140.181 1327.04 137.103 1322.46 Q134.047 1317.85 134.047 1309.12 Q134.047 1300.37 137.103 1295.79 Q140.181 1291.18 145.992 1291.18 Z" fill="#000000" fill-rule="nonzero" fill-opacity="1" /><path clip-path="url(#clip950)" d="M51.9875 1041.48 L81.6633 1041.48 L81.6633 1045.41 L51.9875 1045.41 L51.9875 1041.48 Z" fill="#000000" fill-rule="nonzero" fill-opacity="1" /><path clip-path="url(#clip950)" d="M101.756 1026.83 Q98.1447 1026.83 96.316 1030.39 Q94.5104 1033.93 94.5104 1041.06 Q94.5104 1048.17 96.316 1051.73 Q98.1447 1055.28 101.756 1055.28 Q105.39 1055.28 107.196 1051.73 Q109.024 1048.17 109.024 1041.06 Q109.024 1033.93 107.196 1030.39 Q105.39 1026.83 101.756 1026.83 M101.756 1023.12 Q107.566 1023.12 110.621 1027.73 Q113.7 1032.31 113.7 1041.06 Q113.7 1049.79 110.621 1054.4 Q107.566 1058.98 101.756 1058.98 Q95.9456 1058.98 92.8669 1054.4 Q89.8114 1049.79 89.8114 1041.06 Q89.8114 1032.31 92.8669 1027.73 Q95.9456 1023.12 101.756 1023.12 Z" fill="#000000" fill-rule="nonzero" fill-opacity="1" /><path clip-path="url(#clip950)" d="M121.918 1052.43 L126.802 1052.43 L126.802 1058.31 L121.918 1058.31 L121.918 1052.43 Z" fill="#000000" fill-rule="nonzero" fill-opacity="1" /><path clip-path="url(#clip950)" d="M137.033 1023.75 L155.39 1023.75 L155.39 1027.68 L141.316 1027.68 L141.316 1036.16 Q142.334 1035.81 143.353 1035.65 Q144.371 1035.46 145.39 1035.46 Q151.177 1035.46 154.556 1038.63 Q157.936 1041.8 157.936 1047.22 Q157.936 1052.8 154.464 1055.9 Q150.992 1058.98 144.672 1058.98 Q142.496 1058.98 140.228 1058.61 Q137.982 1058.24 135.575 1057.5 L135.575 1052.8 Q137.658 1053.93 139.881 1054.49 Q142.103 1055.04 144.58 1055.04 Q148.584 1055.04 150.922 1052.94 Q153.26 1050.83 153.26 1047.22 Q153.26 1043.61 150.922 1041.5 Q148.584 1039.4 144.58 1039.4 Q142.705 1039.4 140.83 1039.81 Q138.978 1040.23 137.033 1041.11 L137.033 1023.75 Z" fill="#000000" fill-rule="nonzero" fill-opacity="1" /><path clip-path="url(#clip950)" d="M100.76 758.766 Q97.1493 758.766 95.3206 762.331 Q93.515 765.873 93.515 773.002 Q93.515 780.109 95.3206 783.673 Q97.1493 787.215 100.76 787.215 Q104.395 787.215 106.2 783.673 Q108.029 780.109 108.029 773.002 Q108.029 765.873 106.2 762.331 Q104.395 758.766 100.76 758.766 M100.76 755.063 Q106.571 755.063 109.626 759.669 Q112.705 764.252 112.705 773.002 Q112.705 781.729 109.626 786.336 Q106.571 790.919 100.76 790.919 Q94.9502 790.919 91.8715 786.336 Q88.816 781.729 88.816 773.002 Q88.816 764.252 91.8715 759.669 Q94.9502 755.063 100.76 755.063 Z" fill="#000000" fill-rule="nonzero" fill-opacity="1" /><path clip-path="url(#clip950)" d="M120.922 784.368 L125.807 784.368 L125.807 790.248 L120.922 790.248 L120.922 784.368 Z" fill="#000000" fill-rule="nonzero" fill-opacity="1" /><path clip-path="url(#clip950)" d="M145.992 758.766 Q142.381 758.766 140.552 762.331 Q138.746 765.873 138.746 773.002 Q138.746 780.109 140.552 783.673 Q142.381 787.215 145.992 787.215 Q149.626 787.215 151.431 783.673 Q153.26 780.109 153.26 773.002 Q153.26 765.873 151.431 762.331 Q149.626 758.766 145.992 758.766 M145.992 755.063 Q151.802 755.063 154.857 759.669 Q157.936 764.252 157.936 773.002 Q157.936 781.729 154.857 786.336 Q151.802 790.919 145.992 790.919 Q140.181 790.919 137.103 786.336 Q134.047 781.729 134.047 773.002 Q134.047 764.252 137.103 759.669 Q140.181 755.063 145.992 755.063 Z" fill="#000000" fill-rule="nonzero" fill-opacity="1" /><path clip-path="url(#clip950)" d="M101.756 490.705 Q98.1447 490.705 96.316 494.27 Q94.5104 497.812 94.5104 504.941 Q94.5104 512.048 96.316 515.613 Q98.1447 519.154 101.756 519.154 Q105.39 519.154 107.196 515.613 Q109.024 512.048 109.024 504.941 Q109.024 497.812 107.196 494.27 Q105.39 490.705 101.756 490.705 M101.756 487.002 Q107.566 487.002 110.621 491.608 Q113.7 496.191 113.7 504.941 Q113.7 513.668 110.621 518.275 Q107.566 522.858 101.756 522.858 Q95.9456 522.858 92.8669 518.275 Q89.8114 513.668 89.8114 504.941 Q89.8114 496.191 92.8669 491.608 Q95.9456 487.002 101.756 487.002 Z" fill="#000000" fill-rule="nonzero" fill-opacity="1" /><path clip-path="url(#clip950)" d="M121.918 516.307 L126.802 516.307 L126.802 522.187 L121.918 522.187 L121.918 516.307 Z" fill="#000000" fill-rule="nonzero" fill-opacity="1" /><path clip-path="url(#clip950)" d="M137.033 487.627 L155.39 487.627 L155.39 491.562 L141.316 491.562 L141.316 500.034 Q142.334 499.687 143.353 499.525 Q144.371 499.34 145.39 499.34 Q151.177 499.34 154.556 502.511 Q157.936 505.682 157.936 511.099 Q157.936 516.677 154.464 519.779 Q150.992 522.858 144.672 522.858 Q142.496 522.858 140.228 522.488 Q137.982 522.117 135.575 521.376 L135.575 516.677 Q137.658 517.812 139.881 518.367 Q142.103 518.923 144.58 518.923 Q148.584 518.923 150.922 516.816 Q153.26 514.71 153.26 511.099 Q153.26 507.488 150.922 505.381 Q148.584 503.275 144.58 503.275 Q142.705 503.275 140.83 503.691 Q138.978 504.108 137.033 504.988 L137.033 487.627 Z" fill="#000000" fill-rule="nonzero" fill-opacity="1" /><path clip-path="url(#clip950)" d="M91.5706 250.191 L99.2095 250.191 L99.2095 223.825 L90.8993 225.492 L90.8993 221.232 L99.1632 219.566 L103.839 219.566 L103.839 250.191 L111.478 250.191 L111.478 254.126 L91.5706 254.126 L91.5706 250.191 Z" fill="#000000" fill-rule="nonzero" fill-opacity="1" /><path clip-path="url(#clip950)" d="M120.922 248.246 L125.807 248.246 L125.807 254.126 L120.922 254.126 L120.922 248.246 Z" fill="#000000" fill-rule="nonzero" fill-opacity="1" /><path clip-path="url(#clip950)" d="M145.992 222.644 Q142.381 222.644 140.552 226.209 Q138.746 229.751 138.746 236.88 Q138.746 243.987 140.552 247.552 Q142.381 251.093 145.992 251.093 Q149.626 251.093 151.431 247.552 Q153.26 243.987 153.26 236.88 Q153.26 229.751 151.431 226.209 Q149.626 222.644 145.992 222.644 M145.992 218.941 Q151.802 218.941 154.857 223.547 Q157.936 228.13 157.936 236.88 Q157.936 245.607 154.857 250.214 Q151.802 254.797 145.992 254.797 Q140.181 254.797 137.103 250.214 Q134.047 245.607 134.047 236.88 Q134.047 228.13 137.103 223.547 Q140.181 218.941 145.992 218.941 Z" fill="#000000" fill-rule="nonzero" fill-opacity="1" /><polyline clip-path="url(#clip952)" style="stroke:#009af9; stroke-linecap:round; stroke-linejoin:round; stroke-width:4; stroke-opacity:1; fill:none" points="255.035,772.968 258.278,767.606 261.521,762.246 264.764,756.886 268.007,751.528 271.25,746.173 274.493,740.82 277.736,735.47 280.979,730.124 284.222,724.782 287.465,719.445 290.708,714.113 293.951,708.787 297.194,703.468 300.437,698.155 303.68,692.85 306.923,687.554 310.166,682.265 313.409,676.986 316.652,671.716 319.895,666.457 323.138,661.208 326.381,655.97 329.624,650.744 332.867,645.53 336.11,640.329 339.353,635.141 342.596,629.967 345.84,624.807 349.083,619.662 352.326,614.533 355.569,609.419 358.812,604.322 362.055,599.241 365.298,594.178 368.541,589.133 371.784,584.106 375.027,579.098 378.27,574.109 381.513,569.14 384.756,564.192 387.999,559.264 391.242,554.358 394.485,549.474 397.728,544.612 400.971,539.773 404.214,534.957 407.457,530.165 410.7,525.398 413.943,520.655 417.186,515.937 420.429,511.245 423.672,506.579 426.915,501.94 430.158,497.328 433.401,492.743 436.644,488.187 439.887,483.659 443.13,479.16 446.373,474.69 449.616,470.25 452.859,465.841 456.103,461.462 459.346,457.114 462.589,452.798 465.832,448.514 469.075,444.262 472.318,440.043 475.561,435.858 478.804,431.706 482.047,427.588 485.29,423.505 488.533,419.457 491.776,415.444 495.019,411.467 498.262,407.526 501.505,403.622 504.748,399.754 507.991,395.924 511.234,392.132 514.477,388.377 517.72,384.661 520.963,380.984 524.206,377.346 527.449,373.748 530.692,370.19 533.935,366.672 537.178,363.194 540.421,359.758 543.664,356.362 546.907,353.009 550.15,349.697 553.393,346.428 556.636,343.202 559.879,340.018 563.122,336.878 566.366,333.781 569.609,330.728 572.852,327.72 576.095,324.756 579.338,321.837 582.581,318.962 585.824,316.134 589.067,313.351 592.31,310.614 595.553,307.923 598.796,305.279 602.039,302.681 605.282,300.131 608.525,297.627 611.768,295.172 615.011,292.764 618.254,290.404 621.497,288.092 624.74,285.829 627.983,283.615 631.226,281.449 634.469,279.333 637.712,277.266 640.955,275.249 644.198,273.281 647.441,271.363 650.684,269.496 653.927,267.679 657.17,265.912 660.413,264.196 663.656,262.531 666.899,260.917 670.142,259.354 673.385,257.843 676.629,256.383 679.872,254.975 683.115,253.618 686.358,252.314 689.601,251.061 692.844,249.861 696.087,248.713 699.33,247.617 702.573,246.574 705.816,245.584 709.059,244.646 712.302,243.762 715.545,242.93 718.788,242.151 722.031,241.425 725.274,240.752 728.517,240.133 731.76,239.567 735.003,239.054 738.246,238.595 741.489,238.189 744.732,237.836 747.975,237.537 751.218,237.292 754.461,237.1 757.704,236.962 760.947,236.877 764.19,236.846 767.433,236.868 770.676,236.945 773.919,237.074 777.162,237.258 780.405,237.495 783.648,237.785 786.892,238.129 790.135,238.526 793.378,238.977 796.621,239.482 799.864,240.039 803.107,240.65 806.35,241.314 809.593,242.032 812.836,242.802 816.079,243.626 819.322,244.502 822.565,245.431 825.808,246.413 829.051,247.448 832.294,248.535 835.537,249.675 838.78,250.867 842.023,252.111 845.266,253.407 848.509,254.755 851.752,256.155 854.995,257.607 858.238,259.11 861.481,260.665 864.724,262.271 867.967,263.928 871.21,265.635 874.453,267.394 877.696,269.203 880.939,271.063 884.182,272.972 887.425,274.932 890.668,276.941 893.911,279.001 897.155,281.109 900.398,283.267 903.641,285.473 906.884,287.729 910.127,290.033 913.37,292.385 916.613,294.785 919.856,297.233 923.099,299.729 926.342,302.272 929.585,304.862 932.828,307.499 936.071,310.182 939.314,312.912 942.557,315.688 945.8,318.509 949.043,321.376 952.286,324.288 955.529,327.245 958.772,330.246 962.015,333.292 965.258,336.382 968.501,339.515 971.744,342.692 974.987,345.911 978.23,349.174 981.473,352.479 984.716,355.825 987.959,359.214 991.202,362.644 994.445,366.115 997.688,369.627 1000.93,373.179 1004.17,376.771 1007.42,380.402 1010.66,384.073 1013.9,387.783 1017.15,391.531 1020.39,395.318 1023.63,399.142 1026.88,403.003 1030.12,406.902 1033.36,410.837 1036.6,414.808 1039.85,418.816 1043.09,422.858 1046.33,426.936 1049.58,431.048 1052.82,435.194 1056.06,439.375 1059.31,443.588 1062.55,447.835 1065.79,452.114 1069.04,456.425 1072.28,460.767 1075.52,465.141 1078.76,469.546 1082.01,473.981 1085.25,478.446 1088.49,482.94 1091.74,487.464 1094.98,492.016 1098.22,496.596 1101.47,501.204 1104.71,505.839 1107.95,510.5 1111.19,515.188 1114.44,519.902 1117.68,524.641 1120.92,529.404 1124.17,534.192 1127.41,539.004 1130.65,543.84 1133.9,548.698 1137.14,553.579 1140.38,558.482 1143.62,563.406 1146.87,568.351 1150.11,573.316 1153.35,578.302 1156.6,583.307 1159.84,588.331 1163.08,593.373 1166.33,598.433 1169.57,603.511 1172.81,608.606 1176.06,613.717 1179.3,618.844 1182.54,623.987 1185.78,629.144 1189.03,634.316 1192.27,639.502 1195.51,644.701 1198.76,649.913 1202,655.137 1205.24,660.373 1208.49,665.62 1211.73,670.878 1214.97,676.146 1218.21,681.424 1221.46,686.711 1224.7,692.006 1227.94,697.31 1231.19,702.621 1234.43,707.94 1237.67,713.264 1240.92,718.595 1244.16,723.931 1247.4,729.272 1250.64,734.618 1253.89,739.967 1257.13,745.32 1260.37,750.675 1263.62,756.033 1266.86,761.392 1270.1,766.753 1273.35,772.114 1276.59,777.475 1279.83,782.836 1283.08,788.195 1286.32,793.553 1289.56,798.91 1292.8,804.263 1296.05,809.614 1299.29,814.96 1302.53,820.303 1305.78,825.641 1309.02,830.973 1312.26,836.3 1315.51,841.62 1318.75,846.934 1321.99,852.24 1325.23,857.538 1328.48,862.828 1331.72,868.109 1334.96,873.38 1338.21,878.642 1341.45,883.892 1344.69,889.132 1347.94,894.36 1351.18,899.576 1354.42,904.779 1357.66,909.969 1360.91,915.145 1364.15,920.307 1367.39,925.454 1370.64,930.586 1373.88,935.703 1377.12,940.803 1380.37,945.886 1383.61,950.952 1386.85,956 1390.1,961.03 1393.34,966.041 1396.58,971.033 1399.82,976.005 1403.07,980.956 1406.31,985.887 1409.55,990.797 1412.8,995.685 1416.04,1000.55 1419.28,1005.39 1422.53,1010.21 1425.77,1015.01 1429.01,1019.78 1432.25,1024.53 1435.5,1029.25 1438.74,1033.94 1441.98,1038.61 1445.23,1043.26 1448.47,1047.87 1451.71,1052.46 1454.96,1057.02 1458.2,1061.56 1461.44,1066.06 1464.68,1070.53 1467.93,1074.98 1471.17,1079.39 1474.41,1083.78 1477.66,1088.13 1480.9,1092.45 1484.14,1096.74 1487.39,1101 1490.63,1105.22 1493.87,1109.41 1497.11,1113.57 1500.36,1117.69 1503.6,1121.78 1506.84,1125.84 1510.09,1129.85 1513.33,1133.84 1516.57,1137.78 1519.82,1141.69 1523.06,1145.57 1526.3,1149.4 1529.55,1153.2 1532.79,1156.96 1536.03,1160.68 1539.27,1164.37 1542.52,1168.01 1545.76,1171.62 1549,1175.18 1552.25,1178.71 1555.49,1182.19 1558.73,1185.63 1561.98,1189.03 1565.22,1192.39 1568.46,1195.71 1571.7,1198.99 1574.95,1202.22 1578.19,1205.41 1581.43,1208.56 1584.68,1211.66 1587.92,1214.72 1591.16,1217.74 1594.41,1220.71 1597.65,1223.64 1600.89,1226.52 1604.13,1229.35 1607.38,1232.14 1610.62,1234.89 1613.86,1237.59 1617.11,1240.24 1620.35,1242.84 1623.59,1245.4 1626.84,1247.91 1630.08,1250.38 1633.32,1252.79 1636.57,1255.16 1639.81,1257.48 1643.05,1259.75 1646.29,1261.97 1649.54,1264.14 1652.78,1266.27 1656.02,1268.34 1659.27,1270.37 1662.51,1272.34 1665.75,1274.27 1669,1276.15 1672.24,1277.97 1675.48,1279.74 1678.72,1281.47 1681.97,1283.14 1685.21,1284.76 1688.45,1286.34 1691.7,1287.85 1694.94,1289.32 1698.18,1290.74 1701.43,1292.1 1704.67,1293.42 1707.91,1294.68 1711.15,1295.89 1714.4,1297.04 1717.64,1298.15 1720.88,1299.2 1724.13,1300.2 1727.37,1301.14 1730.61,1302.04 1733.86,1302.88 1737.1,1303.66 1740.34,1304.4 1743.59,1305.08 1746.83,1305.71 1750.07,1306.28 1753.31,1306.8 1756.56,1307.27 1759.8,1307.69 1763.04,1308.05 1766.29,1308.35 1769.53,1308.61 1772.77,1308.81 1776.02,1308.95 1779.26,1309.05 1782.5,1309.09 1785.74,1309.07 1788.99,1309.01 1792.23,1308.89 1795.47,1308.71 1798.72,1308.48 1801.96,1308.2 1805.2,1307.86 1808.45,1307.48 1811.69,1307.03 1814.93,1306.54 1818.17,1305.99 1821.42,1305.39 1824.66,1304.73 1827.9,1304.02 1831.15,1303.26 1834.39,1302.44 1837.63,1301.58 1840.88,1300.66 1844.12,1299.68 1847.36,1298.66 1850.61,1297.58 1853.85,1296.45 1857.09,1295.26 1860.33,1294.03 1863.58,1292.74 1866.82,1291.4 1870.06,1290.01 1873.31,1288.56 1876.55,1287.07 1879.79,1285.52 1883.04,1283.92 1886.28,1282.27 1889.52,1280.58 1892.76,1278.82 1896.01,1277.02 1899.25,1275.17 1902.49,1273.27 1905.74,1271.32 1908.98,1269.32 1912.22,1267.27 1915.47,1265.17 1918.71,1263.02 1921.95,1260.82 1925.19,1258.57 1928.44,1256.27 1931.68,1253.93 1934.92,1251.54 1938.17,1249.09 1941.41,1246.61 1944.65,1244.07 1947.9,1241.49 1951.14,1238.86 1954.38,1236.18 1957.63,1233.46 1960.87,1230.69 1964.11,1227.88 1967.35,1225.02 1970.6,1222.11 1973.84,1219.16 1977.08,1216.17 1980.33,1213.13 1983.57,1210.05 1986.81,1206.92 1990.06,1203.75 1993.3,1200.54 1996.54,1197.28 1999.78,1193.99 2003.03,1190.65 2006.27,1187.26 2009.51,1183.84 2012.76,1180.38 2016,1176.87 2019.24,1173.32 2022.49,1169.74 2025.73,1166.11 2028.97,1162.45 2032.21,1158.75 2035.46,1155 2038.7,1151.22 2041.94,1147.4 2045.19,1143.55 2048.43,1139.66 2051.67,1135.73 2054.92,1131.76 2058.16,1127.76 2061.4,1123.72 2064.65,1119.65 2067.89,1115.54 2071.13,1111.4 2074.37,1107.23 2077.62,1103.02 2080.86,1098.78 2084.1,1094.51 2087.35,1090.2 2090.59,1085.86 2093.83,1081.49 2097.08,1077.09 2100.32,1072.66 2103.56,1068.2 2106.8,1063.71 2110.05,1059.19 2113.29,1054.65 2116.53,1050.07 2119.78,1045.47 2123.02,1040.84 2126.26,1036.18 2129.51,1031.5 2132.75,1026.79 2135.99,1022.05 2139.23,1017.29 2142.48,1012.51 2145.72,1007.7 2148.96,1002.87 2152.21,998.012 2155.45,993.135 2158.69,988.236 2161.94,983.315 2165.18,978.373 2168.42,973.411 2171.67,968.429 2174.91,963.427 2178.15,958.406 2181.39,953.366 2184.64,948.309 2187.88,943.234 2191.12,938.142 2194.37,933.033 2197.61,927.908 2200.85,922.768 2204.1,917.613 2207.34,912.444 2210.58,907.26 2213.82,902.063 2217.07,896.853 2220.31,891.631 2223.55,886.397 2226.8,881.152 2230.04,875.895 2233.28,870.629 2236.53,865.353 2239.77,860.067 2243.01,854.773 2246.25,849.47 2249.5,844.16 2252.74,838.843 2255.98,833.519 2259.23,828.189 2262.47,822.854 2265.71,817.514 2268.96,812.169 2272.2,806.82 2275.44,801.468 2278.69,796.113 2281.93,790.756 2285.17,785.397 2288.41,780.036 2291.66,774.675 "/>
<circle clip-path="url(#clip952)" cx="903.641" cy="338.685" r="14.4" fill="#e26f46" fill-rule="evenodd" fill-opacity="1" stroke="#000000" stroke-opacity="1" stroke-width="3.2"/>
<circle clip-path="url(#clip952)" cx="1860.33" cy="1246.99" r="14.4" fill="#e26f46" fill-rule="evenodd" fill-opacity="1" stroke="#000000" stroke-opacity="1" stroke-width="3.2"/>
<circle clip-path="url(#clip952)" cx="1059.31" cy="461.319" r="14.4" fill="#e26f46" fill-rule="evenodd" fill-opacity="1" stroke="#000000" stroke-opacity="1" stroke-width="3.2"/>
<circle clip-path="url(#clip952)" cx="1059.31" cy="473.988" r="14.4" fill="#e26f46" fill-rule="evenodd" fill-opacity="1" stroke="#000000" stroke-opacity="1" stroke-width="3.2"/>
<circle clip-path="url(#clip952)" cx="910.127" cy="161.988" r="14.4" fill="#e26f46" fill-rule="evenodd" fill-opacity="1" stroke="#000000" stroke-opacity="1" stroke-width="3.2"/>
<circle clip-path="url(#clip952)" cx="1740.34" cy="1192.06" r="14.4" fill="#e26f46" fill-rule="evenodd" fill-opacity="1" stroke="#000000" stroke-opacity="1" stroke-width="3.2"/>
<circle clip-path="url(#clip952)" cx="2006.27" cy="1146.24" r="14.4" fill="#e26f46" fill-rule="evenodd" fill-opacity="1" stroke="#000000" stroke-opacity="1" stroke-width="3.2"/>
<circle clip-path="url(#clip952)" cx="1717.64" cy="1342.31" r="14.4" fill="#e26f46" fill-rule="evenodd" fill-opacity="1" stroke="#000000" stroke-opacity="1" stroke-width="3.2"/>
<circle clip-path="url(#clip952)" cx="355.569" cy="704.909" r="14.4" fill="#e26f46" fill-rule="evenodd" fill-opacity="1" stroke="#000000" stroke-opacity="1" stroke-width="3.2"/>
<circle clip-path="url(#clip952)" cx="368.541" cy="565.223" r="14.4" fill="#e26f46" fill-rule="evenodd" fill-opacity="1" stroke="#000000" stroke-opacity="1" stroke-width="3.2"/>
<circle clip-path="url(#clip952)" cx="1840.88" cy="1345.32" r="14.4" fill="#e26f46" fill-rule="evenodd" fill-opacity="1" stroke="#000000" stroke-opacity="1" stroke-width="3.2"/>
<circle clip-path="url(#clip952)" cx="1364.15" cy="991.072" r="14.4" fill="#e26f46" fill-rule="evenodd" fill-opacity="1" stroke="#000000" stroke-opacity="1" stroke-width="3.2"/>
<circle clip-path="url(#clip952)" cx="569.609" cy="458.468" r="14.4" fill="#e26f46" fill-rule="evenodd" fill-opacity="1" stroke="#000000" stroke-opacity="1" stroke-width="3.2"/>
<circle clip-path="url(#clip952)" cx="1224.7" cy="687.879" r="14.4" fill="#e26f46" fill-rule="evenodd" fill-opacity="1" stroke="#000000" stroke-opacity="1" stroke-width="3.2"/>
<circle clip-path="url(#clip952)" cx="1208.49" cy="605.25" r="14.4" fill="#e26f46" fill-rule="evenodd" fill-opacity="1" stroke="#000000" stroke-opacity="1" stroke-width="3.2"/>
<circle clip-path="url(#clip952)" cx="1354.42" cy="961.907" r="14.4" fill="#e26f46" fill-rule="evenodd" fill-opacity="1" stroke="#000000" stroke-opacity="1" stroke-width="3.2"/>
<circle clip-path="url(#clip952)" cx="974.987" cy="440.942" r="14.4" fill="#e26f46" fill-rule="evenodd" fill-opacity="1" stroke="#000000" stroke-opacity="1" stroke-width="3.2"/>
<circle clip-path="url(#clip952)" cx="355.569" cy="662.46" r="14.4" fill="#e26f46" fill-rule="evenodd" fill-opacity="1" stroke="#000000" stroke-opacity="1" stroke-width="3.2"/>
<circle clip-path="url(#clip952)" cx="355.569" cy="703.455" r="14.4" fill="#e26f46" fill-rule="evenodd" fill-opacity="1" stroke="#000000" stroke-opacity="1" stroke-width="3.2"/>
<circle clip-path="url(#clip952)" cx="2103.56" cy="1200.63" r="14.4" fill="#e26f46" fill-rule="evenodd" fill-opacity="1" stroke="#000000" stroke-opacity="1" stroke-width="3.2"/>
<path clip-path="url(#clip952)" d="M255.035 983.527 L258.278 977.851 L261.521 972.124 L264.764 966.348 L268.007 960.526 L271.25 954.663 L274.493 948.763 L277.736 942.83 L280.979 936.868 L284.222 930.885 L287.465 924.886 L290.708 918.877 L293.951 912.868 L297.194 906.866 L300.437 900.881 L303.68 894.922 L306.923 889.002 L310.166 883.133 L313.409 877.327 L316.652 871.601 L319.895 865.97 L323.138 860.45 L326.381 855.061 L329.624 849.822 L332.867 844.754 L336.11 839.877 L339.353 835.215 L342.596 830.789 L345.84 826.623 L349.083 822.738 L352.326 819.157 L355.569 815.898 L358.812 812.977 L362.055 810.392 L365.298 808.136 L368.541 806.201 L371.784 804.574 L375.027 803.232 L378.27 802.149 L381.513 801.299 L384.756 800.656 L387.999 800.194 L391.242 799.888 L394.485 799.714 L397.728 799.649 L400.971 799.673 L404.214 799.765 L407.457 799.906 L410.7 800.081 L413.943 800.274 L417.186 800.47 L420.429 800.657 L423.672 800.824 L426.915 800.96 L430.158 801.057 L433.401 801.106 L436.644 801.101 L439.887 801.036 L443.13 800.905 L446.373 800.704 L449.616 800.428 L452.859 800.077 L456.103 799.646 L459.346 799.134 L462.589 798.54 L465.832 797.863 L469.075 797.104 L472.318 796.263 L475.561 795.34 L478.804 794.337 L482.047 793.256 L485.29 792.099 L488.533 790.868 L491.776 789.567 L495.019 788.198 L498.262 786.767 L501.505 785.276 L504.748 783.73 L507.991 782.135 L511.234 780.495 L514.477 778.816 L517.72 777.104 L520.963 775.366 L524.206 773.607 L527.449 771.835 L530.692 770.057 L533.935 768.28 L537.178 766.513 L540.421 764.763 L543.664 763.038 L546.907 761.347 L550.15 759.698 L553.393 758.1 L556.636 756.562 L559.879 755.093 L563.122 753.7 L566.366 752.394 L569.609 751.182 L572.852 750.071 L576.095 749.057 L579.338 748.131 L582.581 747.287 L585.824 746.518 L589.067 745.817 L592.31 745.176 L595.553 744.588 L598.796 744.046 L602.039 743.543 L605.282 743.073 L608.525 742.628 L611.768 742.203 L615.011 741.792 L618.254 741.387 L621.497 740.985 L624.74 740.578 L627.983 740.162 L631.226 739.731 L634.469 739.282 L637.712 738.808 L640.955 738.306 L644.198 737.772 L647.441 737.201 L650.684 736.59 L653.927 735.936 L657.17 735.234 L660.413 734.482 L663.656 733.677 L666.899 732.816 L670.142 731.897 L673.385 730.917 L676.629 729.873 L679.872 728.764 L683.115 727.588 L686.358 726.343 L689.601 725.028 L692.844 723.641 L696.087 722.18 L699.33 720.645 L702.573 719.034 L705.816 717.347 L709.059 715.583 L712.302 713.742 L715.545 711.822 L718.788 709.823 L722.031 707.746 L725.274 705.589 L728.517 703.354 L731.76 701.039 L735.003 698.646 L738.246 696.175 L741.489 693.626 L744.732 691 L747.975 688.297 L751.218 685.519 L754.461 682.666 L757.704 679.74 L760.947 676.742 L764.19 673.673 L767.433 670.535 L770.676 667.33 L773.919 664.059 L777.162 660.724 L780.405 657.328 L783.648 653.873 L786.892 650.362 L790.135 646.796 L793.378 643.18 L796.621 639.516 L799.864 635.807 L803.107 632.057 L806.35 628.27 L809.593 624.45 L812.836 620.601 L816.079 616.727 L819.322 612.833 L822.565 608.925 L825.808 605.008 L829.051 601.088 L832.294 597.17 L835.537 593.261 L838.78 589.369 L842.023 585.499 L845.266 581.661 L848.509 577.862 L851.752 574.11 L854.995 570.416 L858.238 566.788 L861.481 563.237 L864.724 559.773 L867.967 556.408 L871.21 553.153 L874.453 550.021 L877.696 547.026 L880.939 544.179 L884.182 541.497 L887.425 538.992 L890.668 536.68 L893.911 534.578 L897.155 532.699 L900.398 531.061 L903.641 529.68 L906.884 528.57 L910.127 527.738 L913.37 527.187 L916.613 526.907 L919.856 526.885 L923.099 527.106 L926.342 527.557 L929.585 528.225 L932.828 529.098 L936.071 530.162 L939.314 531.406 L942.557 532.818 L945.8 534.388 L949.043 536.106 L952.286 537.962 L955.529 539.948 L958.772 542.056 L962.015 544.279 L965.258 546.612 L968.501 549.048 L971.744 551.583 L974.987 554.213 L978.23 556.933 L981.473 559.736 L984.716 562.613 L987.959 565.558 L991.202 568.563 L994.445 571.622 L997.688 574.731 L1000.93 577.885 L1004.17 581.081 L1007.42 584.317 L1010.66 587.59 L1013.9 590.901 L1017.15 594.25 L1020.39 597.637 L1023.63 601.065 L1026.88 604.536 L1030.12 608.054 L1033.36 611.623 L1036.6 615.248 L1039.85 618.935 L1043.09 622.69 L1046.33 626.519 L1049.58 630.429 L1052.82 634.428 L1056.06 638.523 L1059.31 642.722 L1062.55 647.028 L1065.79 651.434 L1069.04 655.929 L1072.28 660.502 L1075.52 665.142 L1078.76 669.838 L1082.01 674.58 L1085.25 679.358 L1088.49 684.164 L1091.74 688.987 L1094.98 693.821 L1098.22 698.656 L1101.47 703.487 L1104.71 708.307 L1107.95 713.11 L1111.19 717.891 L1114.44 722.645 L1117.68 727.368 L1120.92 732.058 L1124.17 736.711 L1127.41 741.325 L1130.65 745.9 L1133.9 750.434 L1137.14 754.927 L1140.38 759.379 L1143.62 763.793 L1146.87 768.168 L1150.11 772.509 L1153.35 776.817 L1156.6 781.096 L1159.84 785.35 L1163.08 789.584 L1166.33 793.804 L1169.57 798.015 L1172.81 802.223 L1176.06 806.437 L1179.3 810.664 L1182.54 814.911 L1185.78 819.189 L1189.03 823.506 L1192.27 827.872 L1195.51 832.298 L1198.76 836.795 L1202 841.372 L1205.24 846.042 L1208.49 850.817 L1211.73 855.704 L1214.97 860.706 L1218.21 865.821 L1221.46 871.047 L1224.7 876.383 L1227.94 881.826 L1231.19 887.367 L1234.43 892.993 L1237.67 898.694 L1240.92 904.459 L1244.16 910.277 L1247.4 916.139 L1250.64 922.034 L1253.89 927.953 L1257.13 933.889 L1260.37 939.832 L1263.62 945.776 L1266.86 951.713 L1270.1 957.639 L1273.35 963.547 L1276.59 969.434 L1279.83 975.294 L1283.08 981.127 L1286.32 986.928 L1289.56 992.696 L1292.8 998.432 L1296.05 1004.13 L1299.29 1009.8 L1302.53 1015.44 L1305.78 1021.05 L1309.02 1026.63 L1312.26 1032.2 L1315.51 1037.74 L1318.75 1043.27 L1321.99 1048.8 L1325.23 1054.32 L1328.48 1059.85 L1331.72 1065.39 L1334.96 1070.96 L1338.21 1076.55 L1341.45 1082.19 L1344.69 1087.87 L1347.94 1093.6 L1351.18 1099.4 L1354.42 1105.27 L1357.66 1111.22 L1360.91 1117.24 L1364.15 1123.35 L1367.39 1129.54 L1370.64 1135.79 L1373.88 1142.11 L1377.12 1148.47 L1380.37 1154.88 L1383.61 1161.33 L1386.85 1167.8 L1390.1 1174.29 L1393.34 1180.78 L1396.58 1187.28 L1399.82 1193.76 L1403.07 1200.24 L1406.31 1206.69 L1409.55 1213.11 L1412.8 1219.5 L1416.04 1225.85 L1419.28 1232.15 L1422.53 1238.4 L1425.77 1244.59 L1429.01 1250.72 L1432.25 1256.79 L1435.5 1262.79 L1438.74 1268.71 L1441.98 1274.56 L1445.23 1280.34 L1448.47 1286.03 L1451.71 1291.63 L1454.96 1297.15 L1458.2 1302.59 L1461.44 1307.93 L1464.68 1313.18 L1467.93 1318.33 L1471.17 1323.4 L1474.41 1328.36 L1477.66 1333.23 L1480.9 1337.99 L1484.14 1342.66 L1487.39 1347.23 L1490.63 1351.7 L1493.87 1356.06 L1497.11 1360.32 L1500.36 1364.48 L1503.6 1368.53 L1506.84 1372.48 L1510.09 1376.33 L1513.33 1380.07 L1516.57 1383.71 L1519.82 1387.24 L1523.06 1390.66 L1526.3 1393.98 L1529.55 1397.2 L1532.79 1400.3 L1536.03 1403.31 L1539.27 1406.2 L1542.52 1408.99 L1545.76 1411.68 L1549 1414.26 L1552.25 1416.74 L1555.49 1419.11 L1558.73 1421.37 L1561.98 1423.54 L1565.22 1425.59 L1568.46 1427.55 L1571.7 1429.4 L1574.95 1431.14 L1578.19 1432.79 L1581.43 1434.33 L1584.68 1435.77 L1587.92 1437.11 L1591.16 1438.35 L1594.41 1439.48 L1597.65 1440.52 L1600.89 1441.47 L1604.13 1442.31 L1607.38 1443.06 L1610.62 1443.71 L1613.86 1444.27 L1617.11 1444.73 L1620.35 1445.11 L1623.59 1445.39 L1626.84 1445.58 L1630.08 1445.69 L1633.32 1445.72 L1636.57 1445.66 L1639.81 1445.51 L1643.05 1445.3 L1646.29 1445 L1649.54 1444.63 L1652.78 1444.19 L1656.02 1443.69 L1659.27 1443.12 L1662.51 1442.49 L1665.75 1441.81 L1669 1441.08 L1672.24 1440.29 L1675.48 1439.47 L1678.72 1438.61 L1681.97 1437.72 L1685.21 1436.81 L1688.45 1435.88 L1691.7 1434.94 L1694.94 1433.99 L1698.18 1433.05 L1701.43 1432.11 L1704.67 1431.2 L1707.91 1430.31 L1711.15 1429.46 L1714.4 1428.66 L1717.64 1427.9 L1720.88 1427.21 L1724.13 1426.58 L1727.37 1426.02 L1730.61 1425.53 L1733.86 1425.11 L1737.1 1424.78 L1740.34 1424.52 L1743.59 1424.35 L1746.83 1424.25 L1750.07 1424.22 L1753.31 1424.24 L1756.56 1424.3 L1759.8 1424.41 L1763.04 1424.54 L1766.29 1424.69 L1769.53 1424.85 L1772.77 1425.01 L1776.02 1425.17 L1779.26 1425.32 L1782.5 1425.46 L1785.74 1425.58 L1788.99 1425.67 L1792.23 1425.74 L1795.47 1425.78 L1798.72 1425.79 L1801.96 1425.77 L1805.2 1425.72 L1808.45 1425.64 L1811.69 1425.54 L1814.93 1425.4 L1818.17 1425.24 L1821.42 1425.06 L1824.66 1424.87 L1827.9 1424.66 L1831.15 1424.45 L1834.39 1424.23 L1837.63 1424.02 L1840.88 1423.82 L1844.12 1423.63 L1847.36 1423.46 L1850.61 1423.3 L1853.85 1423.17 L1857.09 1423.05 L1860.33 1422.96 L1863.58 1422.89 L1866.82 1422.84 L1870.06 1422.79 L1873.31 1422.74 L1876.55 1422.69 L1879.79 1422.62 L1883.04 1422.52 L1886.28 1422.4 L1889.52 1422.25 L1892.76 1422.05 L1896.01 1421.81 L1899.25 1421.51 L1902.49 1421.17 L1905.74 1420.76 L1908.98 1420.3 L1912.22 1419.77 L1915.47 1419.17 L1918.71 1418.51 L1921.95 1417.78 L1925.19 1416.98 L1928.44 1416.1 L1931.68 1415.16 L1934.92 1414.15 L1938.17 1413.08 L1941.41 1411.93 L1944.65 1410.73 L1947.9 1409.46 L1951.14 1408.13 L1954.38 1406.75 L1957.63 1405.32 L1960.87 1403.85 L1964.11 1402.33 L1967.35 1400.78 L1970.6 1399.19 L1973.84 1397.59 L1977.08 1395.96 L1980.33 1394.32 L1983.57 1392.68 L1986.81 1391.05 L1990.06 1389.43 L1993.3 1387.83 L1996.54 1386.25 L1999.78 1384.72 L2003.03 1383.23 L2006.27 1381.8 L2009.51 1380.43 L2012.76 1379.13 L2016 1377.88 L2019.24 1376.69 L2022.49 1375.56 L2025.73 1374.48 L2028.97 1373.44 L2032.21 1372.46 L2035.46 1371.52 L2038.7 1370.62 L2041.94 1369.77 L2045.19 1368.96 L2048.43 1368.2 L2051.67 1367.47 L2054.92 1366.8 L2058.16 1366.16 L2061.4 1365.58 L2064.65 1365.04 L2067.89 1364.55 L2071.13 1364.11 L2074.37 1363.73 L2077.62 1363.4 L2080.86 1363.14 L2084.1 1362.94 L2087.35 1362.8 L2090.59 1362.74 L2093.83 1362.76 L2097.08 1362.85 L2100.32 1363.02 L2103.56 1363.28 L2106.8 1363.63 L2110.05 1364.06 L2113.29 1364.56 L2116.53 1365.14 L2119.78 1365.79 L2123.02 1366.49 L2126.26 1367.25 L2129.51 1368.07 L2132.75 1368.92 L2135.99 1369.82 L2139.23 1370.75 L2142.48 1371.71 L2145.72 1372.69 L2148.96 1373.7 L2152.21 1374.72 L2155.45 1375.75 L2158.69 1376.8 L2161.94 1377.84 L2165.18 1378.9 L2168.42 1379.95 L2171.67 1381 L2174.91 1382.04 L2178.15 1383.07 L2181.39 1384.1 L2184.64 1385.11 L2187.88 1386.11 L2191.12 1387.09 L2194.37 1388.05 L2197.61 1388.99 L2200.85 1389.92 L2204.1 1390.82 L2207.34 1391.7 L2210.58 1392.56 L2213.82 1393.39 L2217.07 1394.19 L2220.31 1394.98 L2223.55 1395.73 L2226.8 1396.46 L2230.04 1397.16 L2233.28 1397.83 L2236.53 1398.48 L2239.77 1399.1 L2243.01 1399.69 L2246.25 1400.25 L2249.5 1400.78 L2252.74 1401.29 L2255.98 1401.77 L2259.23 1402.22 L2262.47 1402.64 L2265.71 1403.03 L2268.96 1403.4 L2272.2 1403.74 L2275.44 1404.05 L2278.69 1404.34 L2281.93 1404.6 L2285.17 1404.83 L2288.41 1405.04 L2291.66 1405.22 L2291.66 570.747 L2288.41 575.397 L2285.17 580.097 L2281.93 584.847 L2278.69 589.647 L2275.44 594.497 L2272.2 599.396 L2268.96 604.344 L2265.71 609.341 L2262.47 614.386 L2259.23 619.479 L2255.98 624.619 L2252.74 629.806 L2249.5 635.038 L2246.25 640.316 L2243.01 645.638 L2239.77 651.003 L2236.53 656.411 L2233.28 661.861 L2230.04 667.35 L2226.8 672.878 L2223.55 678.444 L2220.31 684.046 L2217.07 689.682 L2213.82 695.351 L2210.58 701.051 L2207.34 706.779 L2204.1 712.534 L2200.85 718.313 L2197.61 724.114 L2194.37 729.935 L2191.12 735.771 L2187.88 741.621 L2184.64 747.481 L2181.39 753.348 L2178.15 759.217 L2174.91 765.087 L2171.67 770.951 L2168.42 776.806 L2165.18 782.647 L2161.94 788.469 L2158.69 794.268 L2155.45 800.038 L2152.21 805.772 L2148.96 811.466 L2145.72 817.113 L2142.48 822.706 L2139.23 828.238 L2135.99 833.703 L2132.75 839.092 L2129.51 844.399 L2126.26 849.614 L2123.02 854.73 L2119.78 859.738 L2116.53 864.629 L2113.29 869.395 L2110.05 874.026 L2106.8 878.514 L2103.56 882.849 L2100.32 887.026 L2097.08 891.048 L2093.83 894.923 L2090.59 898.659 L2087.35 902.265 L2084.1 905.746 L2080.86 909.111 L2077.62 912.366 L2074.37 915.519 L2071.13 918.576 L2067.89 921.544 L2064.65 924.428 L2061.4 927.234 L2058.16 929.967 L2054.92 932.632 L2051.67 935.234 L2048.43 937.776 L2045.19 940.261 L2041.94 942.694 L2038.7 945.075 L2035.46 947.408 L2032.21 949.693 L2028.97 951.933 L2025.73 954.127 L2022.49 956.277 L2019.24 958.382 L2016 960.442 L2012.76 962.457 L2009.51 964.425 L2006.27 966.347 L2003.03 968.222 L1999.78 970.057 L1996.54 971.86 L1993.3 973.639 L1990.06 975.402 L1986.81 977.156 L1983.57 978.908 L1980.33 980.664 L1977.08 982.431 L1973.84 984.215 L1970.6 986.021 L1967.35 987.853 L1964.11 989.717 L1960.87 991.615 L1957.63 993.553 L1954.38 995.531 L1951.14 997.553 L1947.9 999.62 L1944.65 1001.73 L1941.41 1003.9 L1938.17 1006.11 L1934.92 1008.36 L1931.68 1010.66 L1928.44 1013.01 L1925.19 1015.4 L1921.95 1017.83 L1918.71 1020.3 L1915.47 1022.81 L1912.22 1025.34 L1908.98 1027.89 L1905.74 1030.47 L1902.49 1033.05 L1899.25 1035.65 L1896.01 1038.24 L1892.76 1040.82 L1889.52 1043.38 L1886.28 1045.92 L1883.04 1048.42 L1879.79 1050.87 L1876.55 1053.26 L1873.31 1055.59 L1870.06 1057.83 L1866.82 1059.97 L1863.58 1062.01 L1860.33 1063.93 L1857.09 1065.72 L1853.85 1067.37 L1850.61 1068.88 L1847.36 1070.25 L1844.12 1071.46 L1840.88 1072.53 L1837.63 1073.43 L1834.39 1074.19 L1831.15 1074.81 L1827.9 1075.3 L1824.66 1075.68 L1821.42 1075.93 L1818.17 1076.09 L1814.93 1076.15 L1811.69 1076.11 L1808.45 1075.99 L1805.2 1075.79 L1801.96 1075.51 L1798.72 1075.16 L1795.47 1074.74 L1792.23 1074.25 L1788.99 1073.68 L1785.74 1073.05 L1782.5 1072.34 L1779.26 1071.56 L1776.02 1070.7 L1772.77 1069.76 L1769.53 1068.73 L1766.29 1067.61 L1763.04 1066.39 L1759.8 1065.06 L1756.56 1063.62 L1753.31 1062.05 L1750.07 1060.35 L1746.83 1058.51 L1743.59 1056.52 L1740.34 1054.37 L1737.1 1052.04 L1733.86 1049.55 L1730.61 1046.87 L1727.37 1044.02 L1724.13 1040.99 L1720.88 1037.77 L1717.64 1034.36 L1714.4 1030.77 L1711.15 1027 L1707.91 1023.07 L1704.67 1018.99 L1701.43 1014.78 L1698.18 1010.44 L1694.94 1005.99 L1691.7 1001.44 L1688.45 996.801 L1685.21 992.088 L1681.97 987.309 L1678.72 982.474 L1675.48 977.592 L1672.24 972.674 L1669 967.727 L1665.75 962.76 L1662.51 957.779 L1659.27 952.794 L1656.02 947.81 L1652.78 942.834 L1649.54 937.873 L1646.29 932.931 L1643.05 928.014 L1639.81 923.128 L1636.57 918.277 L1633.32 913.466 L1630.08 908.699 L1626.84 903.979 L1623.59 899.31 L1620.35 894.697 L1617.11 890.142 L1613.86 885.647 L1610.62 881.217 L1607.38 876.853 L1604.13 872.557 L1600.89 868.333 L1597.65 864.182 L1594.41 860.106 L1591.16 856.107 L1587.92 852.186 L1584.68 848.345 L1581.43 844.585 L1578.19 840.907 L1574.95 837.313 L1571.7 833.802 L1568.46 830.378 L1565.22 827.038 L1561.98 823.786 L1558.73 820.62 L1555.49 817.542 L1552.25 814.551 L1549 811.647 L1545.76 808.832 L1542.52 806.104 L1539.27 803.464 L1536.03 800.911 L1532.79 798.445 L1529.55 796.065 L1526.3 793.771 L1523.06 791.563 L1519.82 789.439 L1516.57 787.399 L1513.33 785.441 L1510.09 783.565 L1506.84 781.769 L1503.6 780.053 L1500.36 778.413 L1497.11 776.85 L1493.87 775.36 L1490.63 773.943 L1487.39 772.596 L1484.14 771.317 L1480.9 770.104 L1477.66 768.955 L1474.41 767.866 L1471.17 766.834 L1467.93 765.858 L1464.68 764.933 L1461.44 764.055 L1458.2 763.223 L1454.96 762.43 L1451.71 761.674 L1448.47 760.95 L1445.23 760.253 L1441.98 759.579 L1438.74 758.921 L1435.5 758.274 L1432.25 757.632 L1429.01 756.99 L1425.77 756.34 L1422.53 755.675 L1419.28 754.987 L1416.04 754.269 L1412.8 753.513 L1409.55 752.709 L1406.31 751.849 L1403.07 750.922 L1399.82 749.918 L1396.58 748.827 L1393.34 747.637 L1390.1 746.337 L1386.85 744.915 L1383.61 743.358 L1380.37 741.653 L1377.12 739.788 L1373.88 737.749 L1370.64 735.522 L1367.39 733.094 L1364.15 730.452 L1360.91 727.585 L1357.66 724.491 L1354.42 721.171 L1351.18 717.628 L1347.94 713.876 L1344.69 709.928 L1341.45 705.799 L1338.21 701.504 L1334.96 697.058 L1331.72 692.475 L1328.48 687.768 L1325.23 682.951 L1321.99 678.039 L1318.75 673.042 L1315.51 667.973 L1312.26 662.843 L1309.02 657.664 L1305.78 652.443 L1302.53 647.191 L1299.29 641.917 L1296.05 636.626 L1292.8 631.327 L1289.56 626.024 L1286.32 620.724 L1283.08 615.43 L1279.83 610.146 L1276.59 604.875 L1273.35 599.619 L1270.1 594.379 L1266.86 589.156 L1263.62 583.95 L1260.37 578.759 L1257.13 573.582 L1253.89 568.416 L1250.64 563.26 L1247.4 558.109 L1244.16 552.96 L1240.92 547.808 L1237.67 542.648 L1234.43 537.474 L1231.19 532.282 L1227.94 527.065 L1224.7 521.818 L1221.46 516.535 L1218.21 511.219 L1214.97 505.873 L1211.73 500.498 L1208.49 495.099 L1205.24 489.68 L1202 484.249 L1198.76 478.814 L1195.51 473.386 L1192.27 467.972 L1189.03 462.582 L1185.78 457.224 L1182.54 451.905 L1179.3 446.634 L1176.06 441.417 L1172.81 436.26 L1169.57 431.171 L1166.33 426.155 L1163.08 421.216 L1159.84 416.359 L1156.6 411.588 L1153.35 406.906 L1150.11 402.318 L1146.87 397.824 L1143.62 393.426 L1140.38 389.127 L1137.14 384.926 L1133.9 380.823 L1130.65 376.82 L1127.41 372.913 L1124.17 369.103 L1120.92 365.387 L1117.68 361.762 L1114.44 358.226 L1111.19 354.775 L1107.95 351.404 L1104.71 348.109 L1101.47 344.885 L1098.22 341.726 L1094.98 338.624 L1091.74 335.574 L1088.49 332.568 L1085.25 329.597 L1082.01 326.654 L1078.76 323.729 L1075.52 320.813 L1072.28 317.896 L1069.04 314.969 L1065.79 312.021 L1062.55 309.043 L1059.31 306.023 L1056.06 302.955 L1052.82 299.843 L1049.58 296.694 L1046.33 293.516 L1043.09 290.315 L1039.85 287.099 L1036.6 283.875 L1033.36 280.649 L1030.12 277.426 L1026.88 274.212 L1023.63 271.012 L1020.39 267.831 L1017.15 264.67 L1013.9 261.534 L1010.66 258.425 L1007.42 255.342 L1004.17 252.288 L1000.93 249.261 L997.688 246.261 L994.445 243.286 L991.202 240.332 L987.959 237.397 L984.716 234.477 L981.473 231.566 L978.23 228.659 L974.987 225.751 L971.744 222.836 L968.501 219.916 L965.258 216.996 L962.015 214.079 L958.772 211.167 L955.529 208.262 L952.286 205.366 L949.043 202.479 L945.8 199.601 L942.557 196.732 L939.314 193.871 L936.071 191.016 L932.828 188.165 L929.585 185.315 L926.342 182.465 L923.099 179.61 L919.856 176.748 L916.613 173.876 L913.37 170.989 L910.127 168.087 L906.884 165.165 L903.641 162.221 L900.398 159.256 L897.155 156.275 L893.911 153.286 L890.668 150.297 L887.425 147.316 L884.182 144.351 L880.939 141.41 L877.696 138.499 L874.453 135.626 L871.21 132.799 L867.967 130.022 L864.724 127.302 L861.481 124.645 L858.238 122.056 L854.995 119.54 L851.752 117.1 L848.509 114.742 L845.266 112.469 L842.023 110.283 L838.78 108.189 L835.537 106.189 L832.294 104.285 L829.051 102.479 L825.808 100.774 L822.565 99.1708 L819.322 97.6714 L816.079 96.277 L812.836 94.9885 L809.593 93.8069 L806.35 92.7331 L803.107 91.7675 L799.864 90.9108 L796.621 90.1632 L793.378 89.525 L790.135 88.9963 L786.892 88.5772 L783.648 88.2676 L780.405 88.0674 L777.162 87.9763 L773.919 87.994 L770.676 88.1203 L767.433 88.3545 L764.19 88.6964 L760.947 89.1452 L757.704 89.7004 L754.461 90.3614 L751.218 91.1275 L747.975 91.9978 L744.732 92.9717 L741.489 94.0482 L738.246 95.2265 L735.003 96.5057 L731.76 97.8847 L728.517 99.3626 L725.274 100.938 L722.031 102.611 L718.788 104.379 L715.545 106.241 L712.302 108.196 L709.059 110.244 L705.816 112.381 L702.573 114.608 L699.33 116.923 L696.087 119.323 L692.844 121.808 L689.601 124.375 L686.358 127.024 L683.115 129.752 L679.872 132.557 L676.629 135.438 L673.385 138.392 L670.142 141.417 L666.899 144.511 L663.656 147.672 L660.413 150.896 L657.17 154.182 L653.927 157.527 L650.684 160.927 L647.441 164.381 L644.198 167.884 L640.955 171.433 L637.712 175.026 L634.469 178.658 L631.226 182.326 L627.983 186.026 L624.74 189.753 L621.497 193.505 L618.254 197.275 L615.011 201.06 L611.768 204.855 L608.525 208.656 L605.282 212.456 L602.039 216.252 L598.796 220.037 L595.553 223.807 L592.31 227.556 L589.067 231.278 L585.824 234.968 L582.581 238.62 L579.338 242.23 L576.095 245.79 L572.852 249.297 L569.609 252.745 L566.366 256.13 L563.122 259.458 L559.879 262.734 L556.636 265.965 L553.393 269.157 L550.15 272.317 L546.907 275.452 L543.664 278.567 L540.421 281.671 L537.178 284.769 L533.935 287.868 L530.692 290.973 L527.449 294.091 L524.206 297.228 L520.963 300.388 L517.72 303.578 L514.477 306.802 L511.234 310.066 L507.991 313.373 L504.748 316.728 L501.505 320.134 L498.262 323.596 L495.019 327.116 L491.776 330.697 L488.533 334.342 L485.29 338.054 L482.047 341.833 L478.804 345.681 L475.561 349.6 L472.318 353.591 L469.075 357.652 L465.832 361.785 L462.589 365.989 L459.346 370.263 L456.103 374.605 L452.859 379.014 L449.616 383.485 L446.373 388.018 L443.13 392.607 L439.887 397.249 L436.644 401.937 L433.401 406.667 L430.158 411.431 L426.915 416.221 L423.672 421.03 L420.429 425.846 L417.186 430.66 L413.943 435.46 L410.7 440.232 L407.457 444.961 L404.214 449.631 L400.971 454.226 L397.728 458.726 L394.485 463.111 L391.242 467.359 L387.999 471.446 L384.756 475.349 L381.513 479.041 L378.27 482.496 L375.027 485.688 L371.784 488.59 L368.541 491.175 L365.298 493.419 L362.055 495.301 L358.812 496.804 L355.569 497.91 L352.326 498.613 L349.083 498.925 L345.84 498.867 L342.596 498.463 L339.353 497.735 L336.11 496.706 L332.867 495.402 L329.624 493.845 L326.381 492.057 L323.138 490.061 L319.895 487.876 L316.652 485.523 L313.409 483.018 L310.166 480.38 L306.923 477.623 L303.68 474.763 L300.437 471.812 L297.194 468.783 L293.951 465.686 L290.708 462.533 L287.465 459.333 L284.222 456.093 L280.979 452.822 L277.736 449.527 L274.493 446.214 L271.25 442.89 L268.007 439.559 L264.764 436.226 L261.521 432.896 L258.278 429.573 L255.035 426.261  Z" fill="#3da44d" fill-rule="evenodd" fill-opacity="0.1"/>
<polyline clip-path="url(#clip952)" style="stroke:#3da44d; stroke-linecap:round; stroke-linejoin:round; stroke-width:8; stroke-opacity:1; fill:none" points="255.035,704.894 258.278,703.712 261.521,702.51 264.764,701.287 268.007,700.042 271.25,698.776 274.493,697.488 277.736,696.178 280.979,694.845 284.222,693.489 287.465,692.109 290.708,690.705 293.951,689.277 297.194,687.824 300.437,686.346 303.68,684.843 306.923,683.313 310.166,681.756 313.409,680.173 316.652,678.562 319.895,676.923 323.138,675.256 326.381,673.559 329.624,671.834 332.867,670.078 336.11,668.292 339.353,666.475 342.596,664.626 345.84,662.745 349.083,660.832 352.326,658.885 355.569,656.904 358.812,654.89 362.055,652.847 365.298,650.778 368.541,648.688 371.784,646.582 375.027,644.46 378.27,642.323 381.513,640.17 384.756,638.002 387.999,635.82 391.242,633.623 394.485,631.413 397.728,629.188 400.971,626.95 404.214,624.698 407.457,622.434 410.7,620.156 413.943,617.867 417.186,615.565 420.429,613.252 423.672,610.927 426.915,608.591 430.158,606.244 433.401,603.887 436.644,601.519 439.887,599.142 443.13,596.756 446.373,594.361 449.616,591.957 452.859,589.545 456.103,587.125 459.346,584.698 462.589,582.265 465.832,579.824 469.075,577.378 472.318,574.927 475.561,572.47 478.804,570.009 482.047,567.544 485.29,565.076 488.533,562.605 491.776,560.132 495.019,557.657 498.262,555.181 501.505,552.705 504.748,550.229 507.991,547.754 511.234,545.28 514.477,542.809 517.72,540.341 520.963,537.877 524.206,535.417 527.449,532.963 530.692,530.515 533.935,528.074 537.178,525.641 540.421,523.217 543.664,520.803 546.907,518.399 550.15,516.008 553.393,513.629 556.636,511.263 559.879,508.913 563.122,506.579 566.366,504.262 569.609,501.964 572.852,499.684 576.095,497.423 579.338,495.18 582.581,492.954 585.824,490.743 589.067,488.547 592.31,486.366 595.553,484.197 598.796,482.041 602.039,479.897 605.282,477.765 608.525,475.642 611.768,473.529 615.011,471.426 618.254,469.331 621.497,467.245 624.74,465.166 627.983,463.094 631.226,461.029 634.469,458.97 637.712,456.917 640.955,454.87 644.198,452.828 647.441,450.791 650.684,448.759 653.927,446.731 657.17,444.708 660.413,442.689 663.656,440.675 666.899,438.664 670.142,436.657 673.385,434.654 676.629,432.656 679.872,430.661 683.115,428.67 686.358,426.684 689.601,424.702 692.844,422.724 696.087,420.751 699.33,418.784 702.573,416.821 705.816,414.864 709.059,412.914 712.302,410.969 715.545,409.031 718.788,407.101 722.031,405.178 725.274,403.264 728.517,401.358 731.76,399.462 735.003,397.576 738.246,395.701 741.489,393.837 744.732,391.986 747.975,390.147 751.218,388.323 754.461,386.514 757.704,384.72 760.947,382.944 764.19,381.185 767.433,379.445 770.676,377.725 773.919,376.026 777.162,374.35 780.405,372.698 783.648,371.07 786.892,369.469 790.135,367.896 793.378,366.352 796.621,364.839 799.864,363.359 803.107,361.912 806.35,360.502 809.593,359.128 812.836,357.795 816.079,356.502 819.322,355.252 822.565,354.048 825.808,352.891 829.051,351.783 832.294,350.727 835.537,349.725 838.78,348.779 842.023,347.891 845.266,347.065 848.509,346.302 851.752,345.605 854.995,344.978 858.238,344.422 861.481,343.941 864.724,343.538 867.967,343.215 871.21,342.976 874.453,342.824 877.696,342.762 880.939,342.794 884.182,342.924 887.425,343.154 890.668,343.489 893.911,343.932 897.155,344.487 900.398,345.159 903.641,345.951 906.884,346.867 910.127,347.912 913.37,349.088 916.613,350.391 919.856,351.816 923.099,353.358 926.342,355.011 929.585,356.77 932.828,358.631 936.071,360.589 939.314,362.638 942.557,364.775 945.8,366.994 949.043,369.292 952.286,371.664 955.529,374.105 958.772,376.612 962.015,379.179 965.258,381.804 968.501,384.482 971.744,387.209 974.987,389.982 978.23,392.796 981.473,395.651 984.716,398.545 987.959,401.478 991.202,404.447 994.445,407.454 997.688,410.496 1000.93,413.573 1004.17,416.685 1007.42,419.83 1010.66,423.007 1013.9,426.218 1017.15,429.46 1020.39,432.734 1023.63,436.039 1026.88,439.374 1030.12,442.74 1033.36,446.136 1036.6,449.562 1039.85,453.017 1043.09,456.503 1046.33,460.017 1049.58,463.562 1052.82,467.136 1056.06,470.739 1059.31,474.372 1062.55,478.035 1065.79,481.728 1069.04,485.449 1072.28,489.199 1075.52,492.977 1078.76,496.783 1082.01,500.617 1085.25,504.478 1088.49,508.366 1091.74,512.281 1094.98,516.222 1098.22,520.191 1101.47,524.186 1104.71,528.208 1107.95,532.257 1111.19,536.333 1114.44,540.435 1117.68,544.565 1120.92,548.722 1124.17,552.907 1127.41,557.119 1130.65,561.36 1133.9,565.628 1137.14,569.926 1140.38,574.253 1143.62,578.609 1146.87,582.996 1150.11,587.413 1153.35,591.862 1156.6,596.342 1159.84,600.854 1163.08,605.4 1166.33,609.979 1169.57,614.593 1172.81,619.242 1176.06,623.927 1179.3,628.649 1182.54,633.408 1185.78,638.206 1189.03,643.044 1192.27,647.922 1195.51,652.842 1198.76,657.804 1202,662.81 1205.24,667.861 1208.49,672.958 1211.73,678.101 1214.97,683.289 1218.21,688.52 1221.46,693.791 1224.7,699.101 1227.94,704.446 1231.19,709.825 1234.43,715.234 1237.67,720.671 1240.92,726.133 1244.16,731.619 1247.4,737.124 1250.64,742.647 1253.89,748.185 1257.13,753.735 1260.37,759.295 1263.62,764.863 1266.86,770.435 1270.1,776.009 1273.35,781.583 1276.59,787.154 1279.83,792.72 1283.08,798.278 1286.32,803.826 1289.56,809.36 1292.8,814.879 1296.05,820.38 1299.29,825.86 1302.53,831.317 1305.78,836.747 1309.02,842.149 1312.26,847.52 1315.51,852.857 1318.75,858.157 1321.99,863.417 1325.23,868.635 1328.48,873.809 1331.72,878.934 1334.96,884.008 1338.21,889.029 1341.45,893.992 1344.69,898.897 1347.94,903.738 1351.18,908.513 1354.42,913.219 1357.66,917.854 1360.91,922.415 1364.15,926.902 1367.39,931.316 1370.64,935.656 1373.88,939.927 1377.12,944.131 1380.37,948.268 1383.61,952.343 1386.85,956.357 1390.1,960.311 1393.34,964.209 1396.58,968.052 1399.82,971.841 1403.07,975.58 1406.31,979.269 1409.55,982.91 1412.8,986.506 1416.04,990.058 1419.28,993.567 1422.53,997.035 1425.77,1000.46 1429.01,1003.86 1432.25,1007.21 1435.5,1010.53 1438.74,1013.82 1441.98,1017.07 1445.23,1020.29 1448.47,1023.49 1451.71,1026.65 1454.96,1029.79 1458.2,1032.9 1461.44,1035.99 1464.68,1039.06 1467.93,1042.1 1471.17,1045.11 1474.41,1048.11 1477.66,1051.09 1480.9,1054.05 1484.14,1056.99 1487.39,1059.91 1490.63,1062.82 1493.87,1065.71 1497.11,1068.59 1500.36,1071.45 1503.6,1074.29 1506.84,1077.13 1510.09,1079.95 1513.33,1082.76 1516.57,1085.55 1519.82,1088.34 1523.06,1091.11 1526.3,1093.88 1529.55,1096.63 1532.79,1099.37 1536.03,1102.11 1539.27,1104.83 1542.52,1107.55 1545.76,1110.26 1549,1112.95 1552.25,1115.64 1555.49,1118.32 1558.73,1121 1561.98,1123.66 1565.22,1126.32 1568.46,1128.96 1571.7,1131.6 1574.95,1134.23 1578.19,1136.85 1581.43,1139.46 1584.68,1142.06 1587.92,1144.65 1591.16,1147.23 1594.41,1149.8 1597.65,1152.35 1600.89,1154.9 1604.13,1157.43 1607.38,1159.96 1610.62,1162.46 1613.86,1164.96 1617.11,1167.44 1620.35,1169.9 1623.59,1172.35 1626.84,1174.78 1630.08,1177.2 1633.32,1179.59 1636.57,1181.97 1639.81,1184.32 1643.05,1186.65 1646.29,1188.97 1649.54,1191.25 1652.78,1193.51 1656.02,1195.75 1659.27,1197.96 1662.51,1200.14 1665.75,1202.28 1669,1204.4 1672.24,1206.48 1675.48,1208.53 1678.72,1210.54 1681.97,1212.52 1685.21,1214.45 1688.45,1216.34 1691.7,1218.19 1694.94,1219.99 1698.18,1221.74 1701.43,1223.44 1704.67,1225.1 1707.91,1226.69 1711.15,1228.23 1714.4,1229.71 1717.64,1231.13 1720.88,1232.49 1724.13,1233.78 1727.37,1235.02 1730.61,1236.2 1733.86,1237.33 1737.1,1238.41 1740.34,1239.45 1743.59,1240.44 1746.83,1241.38 1750.07,1242.29 1753.31,1243.15 1756.56,1243.96 1759.8,1244.73 1763.04,1245.46 1766.29,1246.15 1769.53,1246.79 1772.77,1247.38 1776.02,1247.94 1779.26,1248.44 1782.5,1248.9 1785.74,1249.31 1788.99,1249.68 1792.23,1249.99 1795.47,1250.26 1798.72,1250.48 1801.96,1250.64 1805.2,1250.76 1808.45,1250.82 1811.69,1250.82 1814.93,1250.77 1818.17,1250.67 1821.42,1250.5 1824.66,1250.27 1827.9,1249.98 1831.15,1249.63 1834.39,1249.21 1837.63,1248.73 1840.88,1248.17 1844.12,1247.55 1847.36,1246.85 1850.61,1246.09 1853.85,1245.27 1857.09,1244.39 1860.33,1243.45 1863.58,1242.45 1866.82,1241.41 1870.06,1240.31 1873.31,1239.16 1876.55,1237.97 1879.79,1236.74 1883.04,1235.47 1886.28,1234.16 1889.52,1232.81 1892.76,1231.43 1896.01,1230.02 1899.25,1228.58 1902.49,1227.11 1905.74,1225.62 1908.98,1224.09 1912.22,1222.55 1915.47,1220.99 1918.71,1219.41 1921.95,1217.81 1925.19,1216.19 1928.44,1214.56 1931.68,1212.91 1934.92,1211.26 1938.17,1209.59 1941.41,1207.91 1944.65,1206.23 1947.9,1204.54 1951.14,1202.84 1954.38,1201.14 1957.63,1199.44 1960.87,1197.73 1964.11,1196.02 1967.35,1194.32 1970.6,1192.61 1973.84,1190.9 1977.08,1189.2 1980.33,1187.49 1983.57,1185.8 1986.81,1184.1 1990.06,1182.41 1993.3,1180.73 1996.54,1179.06 1999.78,1177.39 2003.03,1175.73 2006.27,1174.07 2009.51,1172.43 2012.76,1170.79 2016,1169.16 2019.24,1167.54 2022.49,1165.92 2025.73,1164.3 2028.97,1162.69 2032.21,1161.08 2035.46,1159.46 2038.7,1157.85 2041.94,1156.23 2045.19,1154.61 2048.43,1152.99 2051.67,1151.35 2054.92,1149.71 2058.16,1148.06 2061.4,1146.4 2064.65,1144.73 2067.89,1143.04 2071.13,1141.34 2074.37,1139.62 2077.62,1137.88 2080.86,1136.12 2084.1,1134.34 2087.35,1132.53 2090.59,1130.7 2093.83,1128.84 2097.08,1126.95 2100.32,1125.02 2103.56,1123.06 2106.8,1121.07 2110.05,1119.04 2113.29,1116.98 2116.53,1114.89 2119.78,1112.76 2123.02,1110.61 2126.26,1108.43 2129.51,1106.23 2132.75,1104.01 2135.99,1101.76 2139.23,1099.49 2142.48,1097.21 2145.72,1094.9 2148.96,1092.58 2152.21,1090.24 2155.45,1087.89 2158.69,1085.53 2161.94,1083.16 2165.18,1080.77 2168.42,1078.38 2171.67,1075.97 2174.91,1073.56 2178.15,1071.15 2181.39,1068.72 2184.64,1066.3 2187.88,1063.86 2191.12,1061.43 2194.37,1058.99 2197.61,1056.55 2200.85,1054.12 2204.1,1051.68 2207.34,1049.24 2210.58,1046.8 2213.82,1044.37 2217.07,1041.94 2220.31,1039.51 2223.55,1037.09 2226.8,1034.67 2230.04,1032.25 2233.28,1029.85 2236.53,1027.45 2239.77,1025.05 2243.01,1022.66 2246.25,1020.28 2249.5,1017.91 2252.74,1015.55 2255.98,1013.19 2259.23,1010.85 2262.47,1008.51 2265.71,1006.19 2268.96,1003.87 2272.2,1001.57 2275.44,999.274 2278.69,996.992 2281.93,994.722 2285.17,992.463 2288.41,990.217 2291.66,987.984 "/>
<path clip-path="url(#clip950)" d="M1953.46 302.578 L2280.8 302.578 L2280.8 95.2176 L1953.46 95.2176  Z" fill="#ffffff" fill-rule="evenodd" fill-opacity="1"/>
<polyline clip-path="url(#clip950)" style="stroke:#000000; stroke-linecap:round; stroke-linejoin:round; stroke-width:4; stroke-opacity:1; fill:none" points="1953.46,302.578 2280.8,302.578 2280.8,95.2176 1953.46,95.2176 1953.46,302.578 "/>
<polyline clip-path="url(#clip950)" style="stroke:#009af9; stroke-linecap:round; stroke-linejoin:round; stroke-width:4; stroke-opacity:1; fill:none" points="1977.44,147.058 2121.36,147.058 "/>
<path clip-path="url(#clip950)" d="M2152.76 131.051 L2152.76 138.412 L2161.53 138.412 L2161.53 141.722 L2152.76 141.722 L2152.76 155.796 Q2152.76 158.967 2153.61 159.87 Q2154.49 160.773 2157.16 160.773 L2161.53 160.773 L2161.53 164.338 L2157.16 164.338 Q2152.23 164.338 2150.35 162.509 Q2148.48 160.657 2148.48 155.796 L2148.48 141.722 L2145.35 141.722 L2145.35 138.412 L2148.48 138.412 L2148.48 131.051 L2152.76 131.051 Z" fill="#000000" fill-rule="nonzero" fill-opacity="1" /><path clip-path="url(#clip950)" d="M2182.16 142.393 Q2181.44 141.977 2180.58 141.791 Q2179.75 141.583 2178.73 141.583 Q2175.12 141.583 2173.17 143.944 Q2171.25 146.282 2171.25 150.68 L2171.25 164.338 L2166.97 164.338 L2166.97 138.412 L2171.25 138.412 L2171.25 142.44 Q2172.6 140.078 2174.75 138.944 Q2176.9 137.787 2179.98 137.787 Q2180.42 137.787 2180.95 137.856 Q2181.48 137.903 2182.13 138.018 L2182.16 142.393 Z" fill="#000000" fill-rule="nonzero" fill-opacity="1" /><path clip-path="url(#clip950)" d="M2186.18 154.106 L2186.18 138.412 L2190.44 138.412 L2190.44 153.944 Q2190.44 157.625 2191.88 159.476 Q2193.31 161.305 2196.18 161.305 Q2199.63 161.305 2201.62 159.106 Q2203.64 156.907 2203.64 153.111 L2203.64 138.412 L2207.9 138.412 L2207.9 164.338 L2203.64 164.338 L2203.64 160.356 Q2202.09 162.717 2200.03 163.875 Q2197.99 165.009 2195.28 165.009 Q2190.81 165.009 2188.5 162.231 Q2186.18 159.453 2186.18 154.106 M2196.9 137.787 L2196.9 137.787 Z" fill="#000000" fill-rule="nonzero" fill-opacity="1" /><path clip-path="url(#clip950)" d="M2220.88 131.051 L2220.88 138.412 L2229.66 138.412 L2229.66 141.722 L2220.88 141.722 L2220.88 155.796 Q2220.88 158.967 2221.74 159.87 Q2222.62 160.773 2225.28 160.773 L2229.66 160.773 L2229.66 164.338 L2225.28 164.338 Q2220.35 164.338 2218.48 162.509 Q2216.6 160.657 2216.6 155.796 L2216.6 141.722 L2213.48 141.722 L2213.48 138.412 L2216.6 138.412 L2216.6 131.051 L2220.88 131.051 Z" fill="#000000" fill-rule="nonzero" fill-opacity="1" /><path clip-path="url(#clip950)" d="M2256.81 148.689 L2256.81 164.338 L2252.55 164.338 L2252.55 148.828 Q2252.55 145.148 2251.11 143.319 Q2249.68 141.49 2246.81 141.49 Q2243.36 141.49 2241.37 143.69 Q2239.38 145.889 2239.38 149.685 L2239.38 164.338 L2235.1 164.338 L2235.1 128.319 L2239.38 128.319 L2239.38 142.44 Q2240.91 140.102 2242.97 138.944 Q2245.05 137.787 2247.76 137.787 Q2252.23 137.787 2254.52 140.565 Q2256.81 143.319 2256.81 148.689 Z" fill="#000000" fill-rule="nonzero" fill-opacity="1" /><circle clip-path="url(#clip950)" cx="2049.4" cy="198.898" r="20.48" fill="#e26f46" fill-rule="evenodd" fill-opacity="1" stroke="#000000" stroke-opacity="1" stroke-width="4.55111"/>
<path clip-path="url(#clip950)" d="M2164.26 194.187 L2164.26 180.159 L2168.52 180.159 L2168.52 216.178 L2164.26 216.178 L2164.26 212.289 Q2162.92 214.603 2160.86 215.738 Q2158.82 216.849 2155.95 216.849 Q2151.25 216.849 2148.29 213.099 Q2145.35 209.349 2145.35 203.238 Q2145.35 197.127 2148.29 193.377 Q2151.25 189.627 2155.95 189.627 Q2158.82 189.627 2160.86 190.761 Q2162.92 191.872 2164.26 194.187 M2149.75 203.238 Q2149.75 207.937 2151.67 210.622 Q2153.61 213.284 2156.99 213.284 Q2160.37 213.284 2162.32 210.622 Q2164.26 207.937 2164.26 203.238 Q2164.26 198.539 2162.32 195.877 Q2160.37 193.192 2156.99 193.192 Q2153.61 193.192 2151.67 195.877 Q2149.75 198.539 2149.75 203.238 Z" fill="#000000" fill-rule="nonzero" fill-opacity="1" /><path clip-path="url(#clip950)" d="M2189.08 203.145 Q2183.92 203.145 2181.92 204.326 Q2179.93 205.506 2179.93 208.354 Q2179.93 210.622 2181.42 211.965 Q2182.92 213.284 2185.49 213.284 Q2189.03 213.284 2191.16 210.784 Q2193.31 208.261 2193.31 204.094 L2193.31 203.145 L2189.08 203.145 M2197.57 201.386 L2197.57 216.178 L2193.31 216.178 L2193.31 212.242 Q2191.85 214.603 2189.68 215.738 Q2187.5 216.849 2184.36 216.849 Q2180.37 216.849 2178.01 214.627 Q2175.67 212.381 2175.67 208.631 Q2175.67 204.256 2178.59 202.034 Q2181.53 199.812 2187.34 199.812 L2193.31 199.812 L2193.31 199.395 Q2193.31 196.455 2191.37 194.858 Q2189.45 193.238 2185.95 193.238 Q2183.73 193.238 2181.62 193.77 Q2179.52 194.303 2177.57 195.367 L2177.57 191.432 Q2179.91 190.53 2182.11 190.09 Q2184.31 189.627 2186.39 189.627 Q2192.02 189.627 2194.79 192.543 Q2197.57 195.46 2197.57 201.386 Z" fill="#000000" fill-rule="nonzero" fill-opacity="1" /><path clip-path="url(#clip950)" d="M2210.56 182.891 L2210.56 190.252 L2219.33 190.252 L2219.33 193.562 L2210.56 193.562 L2210.56 207.636 Q2210.56 210.807 2211.42 211.71 Q2212.29 212.613 2214.96 212.613 L2219.33 212.613 L2219.33 216.178 L2214.96 216.178 Q2210.03 216.178 2208.15 214.349 Q2206.28 212.497 2206.28 207.636 L2206.28 193.562 L2203.15 193.562 L2203.15 190.252 L2206.28 190.252 L2206.28 182.891 L2210.56 182.891 Z" fill="#000000" fill-rule="nonzero" fill-opacity="1" /><path clip-path="url(#clip950)" d="M2236.72 203.145 Q2231.55 203.145 2229.56 204.326 Q2227.57 205.506 2227.57 208.354 Q2227.57 210.622 2229.05 211.965 Q2230.56 213.284 2233.13 213.284 Q2236.67 213.284 2238.8 210.784 Q2240.95 208.261 2240.95 204.094 L2240.95 203.145 L2236.72 203.145 M2245.21 201.386 L2245.21 216.178 L2240.95 216.178 L2240.95 212.242 Q2239.49 214.603 2237.32 215.738 Q2235.14 216.849 2231.99 216.849 Q2228.01 216.849 2225.65 214.627 Q2223.31 212.381 2223.31 208.631 Q2223.31 204.256 2226.23 202.034 Q2229.17 199.812 2234.98 199.812 L2240.95 199.812 L2240.95 199.395 Q2240.95 196.455 2239.01 194.858 Q2237.09 193.238 2233.59 193.238 Q2231.37 193.238 2229.26 193.77 Q2227.16 194.303 2225.21 195.367 L2225.21 191.432 Q2227.55 190.53 2229.75 190.09 Q2231.95 189.627 2234.03 189.627 Q2239.66 189.627 2242.43 192.543 Q2245.21 195.46 2245.21 201.386 Z" fill="#000000" fill-rule="nonzero" fill-opacity="1" /><polyline clip-path="url(#clip950)" style="stroke:#3da44d; stroke-linecap:round; stroke-linejoin:round; stroke-width:8; stroke-opacity:1; fill:none" points="1977.44,250.738 2121.36,250.738 "/>
<path clip-path="url(#clip950)" d="M2170.91 263.087 L2170.91 253.805 L2163.27 253.805 L2163.27 249.962 L2175.54 249.962 L2175.54 264.8 Q2172.83 266.721 2169.56 267.717 Q2166.3 268.689 2162.6 268.689 Q2154.49 268.689 2149.91 263.967 Q2145.35 259.221 2145.35 250.772 Q2145.35 242.3 2149.91 237.578 Q2154.49 232.833 2162.6 232.833 Q2165.98 232.833 2169.01 233.666 Q2172.06 234.499 2174.63 236.12 L2174.63 241.096 Q2172.04 238.897 2169.12 237.786 Q2166.21 236.675 2162.99 236.675 Q2156.65 236.675 2153.45 240.217 Q2150.28 243.758 2150.28 250.772 Q2150.28 257.763 2153.45 261.305 Q2156.65 264.846 2162.99 264.846 Q2165.47 264.846 2167.41 264.43 Q2169.36 263.99 2170.91 263.087 Z" fill="#000000" fill-rule="nonzero" fill-opacity="1" /><path clip-path="url(#clip950)" d="M2188.75 237.3 L2188.75 250.286 L2194.63 250.286 Q2197.9 250.286 2199.68 248.596 Q2201.46 246.907 2201.46 243.782 Q2201.46 240.68 2199.68 238.99 Q2197.9 237.3 2194.63 237.3 L2188.75 237.3 M2184.08 233.458 L2194.63 233.458 Q2200.44 233.458 2203.41 236.096 Q2206.39 238.712 2206.39 243.782 Q2206.39 248.897 2203.41 251.513 Q2200.44 254.129 2194.63 254.129 L2188.75 254.129 L2188.75 268.018 L2184.08 268.018 L2184.08 233.458 Z" fill="#000000" fill-rule="nonzero" fill-opacity="1" /></svg>
