<?xml version="1.0" encoding="utf-8"?>
<svg xmlns="http://www.w3.org/2000/svg" xmlns:xlink="http://www.w3.org/1999/xlink" width="600" height="400" viewBox="0 0 2400 1600">
<defs>
  <clipPath id="clip910">
    <rect x="0" y="0" width="2400" height="1600"/>
  </clipPath>
</defs>
<path clip-path="url(#clip910)" d="M0 1600 L2400 1600 L2400 0 L0 0  Z" fill="#ffffff" fill-rule="evenodd" fill-opacity="1"/>
<defs>
  <clipPath id="clip911">
    <rect x="193" y="47" width="2160" height="1440"/>
  </clipPath>
</defs>
<path clip-path="url(#clip910)" d="M193.936 1486.45 L2352.76 1486.45 L2352.76 47.2441 L193.936 47.2441  Z" fill="#ffffff" fill-rule="evenodd" fill-opacity="1"/>
<polyline clip-path="url(#clip911)" style="stroke:#000000; stroke-linecap:round; stroke-linejoin:round; stroke-width:2; stroke-opacity:0.1; fill:none" points="255.035,1486.45 255.035,47.2441 "/>
<polyline clip-path="url(#clip911)" style="stroke:#000000; stroke-linecap:round; stroke-linejoin:round; stroke-width:2; stroke-opacity:0.1; fill:none" points="579.173,1486.45 579.173,47.2441 "/>
<polyline clip-path="url(#clip911)" style="stroke:#000000; stroke-linecap:round; stroke-linejoin:round; stroke-width:2; stroke-opacity:0.1; fill:none" points="903.312,1486.45 903.312,47.2441 "/>
<polyline clip-path="url(#clip911)" style="stroke:#000000; stroke-linecap:round; stroke-linejoin:round; stroke-width:2; stroke-opacity:0.1; fill:none" points="1227.45,1486.45 1227.45,47.2441 "/>
<polyline clip-path="url(#clip911)" style="stroke:#000000; stroke-linecap:round; stroke-linejoin:round; stroke-width:2; stroke-opacity:0.1; fill:none" points="1551.59,1486.45 1551.59,47.2441 "/>
<polyline clip-path="url(#clip911)" style="stroke:#000000; stroke-linecap:round; stroke-linejoin:round; stroke-width:2; stroke-opacity:0.1; fill:none" points="1875.73,1486.45 1875.73,47.2441 "/>
<polyline clip-path="url(#clip911)" style="stroke:#000000; stroke-linecap:round; stroke-linejoin:round; stroke-width:2; stroke-opacity:0.1; fill:none" points="2199.87,1486.45 2199.87,47.2441 "/>
<polyline clip-path="url(#clip911)" style="stroke:#000000; stroke-linecap:round; stroke-linejoin:round; stroke-width:2; stroke-opacity:0.1; fill:none" points="193.936,1250.96 2352.76,1250.96 "/>
<polyline clip-path="url(#clip911)" style="stroke:#000000; stroke-linecap:round; stroke-linejoin:round; stroke-width:2; stroke-opacity:0.1; fill:none" points="193.936,1002.1 2352.76,1002.1 "/>
<polyline clip-path="url(#clip911)" style="stroke:#000000; stroke-linecap:round; stroke-linejoin:round; stroke-width:2; stroke-opacity:0.1; fill:none" points="193.936,753.24 2352.76,753.24 "/>
<polyline clip-path="url(#clip911)" style="stroke:#000000; stroke-linecap:round; stroke-linejoin:round; stroke-width:2; stroke-opacity:0.1; fill:none" points="193.936,504.377 2352.76,504.377 "/>
<polyline clip-path="url(#clip911)" style="stroke:#000000; stroke-linecap:round; stroke-linejoin:round; stroke-width:2; stroke-opacity:0.1; fill:none" points="193.936,255.515 2352.76,255.515 "/>
<polyline clip-path="url(#clip910)" style="stroke:#000000; stroke-linecap:round; stroke-linejoin:round; stroke-width:4; stroke-opacity:1; fill:none" points="193.936,1486.45 2352.76,1486.45 "/>
<polyline clip-path="url(#clip910)" style="stroke:#000000; stroke-linecap:round; stroke-linejoin:round; stroke-width:4; stroke-opacity:1; fill:none" points="255.035,1486.45 255.035,1467.55 "/>
<polyline clip-path="url(#clip910)" style="stroke:#000000; stroke-linecap:round; stroke-linejoin:round; stroke-width:4; stroke-opacity:1; fill:none" points="579.173,1486.45 579.173,1467.55 "/>
<polyline clip-path="url(#clip910)" style="stroke:#000000; stroke-linecap:round; stroke-linejoin:round; stroke-width:4; stroke-opacity:1; fill:none" points="903.312,1486.45 903.312,1467.55 "/>
<polyline clip-path="url(#clip910)" style="stroke:#000000; stroke-linecap:round; stroke-linejoin:round; stroke-width:4; stroke-opacity:1; fill:none" points="1227.45,1486.45 1227.45,1467.55 "/>
<polyline clip-path="url(#clip910)" style="stroke:#000000; stroke-linecap:round; stroke-linejoin:round; stroke-width:4; stroke-opacity:1; fill:none" points="1551.59,1486.45 1551.59,1467.55 "/>
<polyline clip-path="url(#clip910)" style="stroke:#000000; stroke-linecap:round; stroke-linejoin:round; stroke-width:4; stroke-opacity:1; fill:none" points="1875.73,1486.45 1875.73,1467.55 "/>
<polyline clip-path="url(#clip910)" style="stroke:#000000; stroke-linecap:round; stroke-linejoin:round; stroke-width:4; stroke-opacity:1; fill:none" points="2199.87,1486.45 2199.87,1467.55 "/>
<path clip-path="url(#clip910)" d="M255.035 1517.37 Q251.424 1517.37 249.595 1520.93 Q247.789 1524.47 247.789 1531.6 Q247.789 1538.71 249.595 1542.27 Q251.424 1545.82 255.035 1545.82 Q258.669 1545.82 260.474 1542.27 Q262.303 1538.71 262.303 1531.6 Q262.303 1524.47 260.474 1520.93 Q258.669 1517.37 255.035 1517.37 M255.035 1513.66 Q260.845 1513.66 263.9 1518.27 Q266.979 1522.85 266.979 1531.6 Q266.979 1540.33 263.9 1544.94 Q260.845 1549.52 255.035 1549.52 Q249.225 1549.52 246.146 1544.94 Q243.09 1540.33 243.09 1531.6 Q243.09 1522.85 246.146 1518.27 Q249.225 1513.66 255.035 1513.66 Z" fill="#000000" fill-rule="nonzero" fill-opacity="1" /><path clip-path="url(#clip910)" d="M569.555 1544.91 L577.194 1544.91 L577.194 1518.55 L568.884 1520.21 L568.884 1515.95 L577.148 1514.29 L581.824 1514.29 L581.824 1544.91 L589.463 1544.91 L589.463 1548.85 L569.555 1548.85 L569.555 1544.91 Z" fill="#000000" fill-rule="nonzero" fill-opacity="1" /><path clip-path="url(#clip910)" d="M897.965 1544.91 L914.284 1544.91 L914.284 1548.85 L892.34 1548.85 L892.34 1544.91 Q895.002 1542.16 899.585 1537.53 Q904.191 1532.88 905.372 1531.53 Q907.617 1529.01 908.497 1527.27 Q909.4 1525.51 909.4 1523.82 Q909.4 1521.07 907.455 1519.33 Q905.534 1517.6 902.432 1517.6 Q900.233 1517.6 897.779 1518.36 Q895.349 1519.13 892.571 1520.68 L892.571 1515.95 Q895.395 1514.82 897.849 1514.24 Q900.303 1513.66 902.34 1513.66 Q907.71 1513.66 910.904 1516.35 Q914.099 1519.03 914.099 1523.52 Q914.099 1525.65 913.289 1527.57 Q912.502 1529.47 910.395 1532.07 Q909.816 1532.74 906.715 1535.95 Q903.613 1539.15 897.965 1544.91 Z" fill="#000000" fill-rule="nonzero" fill-opacity="1" /><path clip-path="url(#clip910)" d="M1231.7 1530.21 Q1235.05 1530.93 1236.93 1533.2 Q1238.83 1535.47 1238.83 1538.8 Q1238.83 1543.92 1235.31 1546.72 Q1231.79 1549.52 1225.31 1549.52 Q1223.13 1549.52 1220.82 1549.08 Q1218.53 1548.66 1216.07 1547.81 L1216.07 1543.29 Q1218.02 1544.43 1220.33 1545.01 Q1222.65 1545.58 1225.17 1545.58 Q1229.57 1545.58 1231.86 1543.85 Q1234.17 1542.11 1234.17 1538.8 Q1234.17 1535.75 1232.02 1534.03 Q1229.89 1532.3 1226.07 1532.3 L1222.05 1532.3 L1222.05 1528.45 L1226.26 1528.45 Q1229.71 1528.45 1231.54 1527.09 Q1233.36 1525.7 1233.36 1523.11 Q1233.36 1520.45 1231.47 1519.03 Q1229.59 1517.6 1226.07 1517.6 Q1224.15 1517.6 1221.95 1518.01 Q1219.75 1518.43 1217.11 1519.31 L1217.11 1515.14 Q1219.78 1514.4 1222.09 1514.03 Q1224.43 1513.66 1226.49 1513.66 Q1231.81 1513.66 1234.92 1516.09 Q1238.02 1518.5 1238.02 1522.62 Q1238.02 1525.49 1236.37 1527.48 Q1234.73 1529.45 1231.7 1530.21 Z" fill="#000000" fill-rule="nonzero" fill-opacity="1" /><path clip-path="url(#clip910)" d="M1554.6 1518.36 L1542.79 1536.81 L1554.6 1536.81 L1554.6 1518.36 M1553.37 1514.29 L1559.25 1514.29 L1559.25 1536.81 L1564.18 1536.81 L1564.18 1540.7 L1559.25 1540.7 L1559.25 1548.85 L1554.6 1548.85 L1554.6 1540.7 L1539 1540.7 L1539 1536.19 L1553.37 1514.29 Z" fill="#000000" fill-rule="nonzero" fill-opacity="1" /><path clip-path="url(#clip910)" d="M1866.01 1514.29 L1884.36 1514.29 L1884.36 1518.22 L1870.29 1518.22 L1870.29 1526.7 Q1871.31 1526.35 1872.32 1526.19 Q1873.34 1526 1874.36 1526 Q1880.15 1526 1883.53 1529.17 Q1886.91 1532.34 1886.91 1537.76 Q1886.91 1543.34 1883.44 1546.44 Q1879.96 1549.52 1873.64 1549.52 Q1871.47 1549.52 1869.2 1549.15 Q1866.95 1548.78 1864.55 1548.04 L1864.55 1543.34 Q1866.63 1544.47 1868.85 1545.03 Q1871.07 1545.58 1873.55 1545.58 Q1877.56 1545.58 1879.89 1543.48 Q1882.23 1541.37 1882.23 1537.76 Q1882.23 1534.15 1879.89 1532.04 Q1877.56 1529.94 1873.55 1529.94 Q1871.68 1529.94 1869.8 1530.35 Q1867.95 1530.77 1866.01 1531.65 L1866.01 1514.29 Z" fill="#000000" fill-rule="nonzero" fill-opacity="1" /><path clip-path="url(#clip910)" d="M2200.27 1529.7 Q2197.12 1529.7 2195.27 1531.86 Q2193.44 1534.01 2193.44 1537.76 Q2193.44 1541.49 2195.27 1543.66 Q2197.12 1545.82 2200.27 1545.82 Q2203.42 1545.82 2205.25 1543.66 Q2207.1 1541.49 2207.1 1537.76 Q2207.1 1534.01 2205.25 1531.86 Q2203.42 1529.7 2200.27 1529.7 M2209.55 1515.05 L2209.55 1519.31 Q2207.79 1518.48 2205.99 1518.04 Q2204.21 1517.6 2202.45 1517.6 Q2197.82 1517.6 2195.36 1520.72 Q2192.93 1523.85 2192.59 1530.17 Q2193.95 1528.15 2196.01 1527.09 Q2198.07 1526 2200.55 1526 Q2205.76 1526 2208.77 1529.17 Q2211.8 1532.32 2211.8 1537.76 Q2211.8 1543.08 2208.65 1546.3 Q2205.5 1549.52 2200.27 1549.52 Q2194.28 1549.52 2191.1 1544.94 Q2187.93 1540.33 2187.93 1531.6 Q2187.93 1523.41 2191.82 1518.55 Q2195.71 1513.66 2202.26 1513.66 Q2204.02 1513.66 2205.8 1514.01 Q2207.61 1514.36 2209.55 1515.05 Z" fill="#000000" fill-rule="nonzero" fill-opacity="1" /><polyline clip-path="url(#clip910)" style="stroke:#000000; stroke-linecap:round; stroke-linejoin:round; stroke-width:4; stroke-opacity:1; fill:none" points="193.936,1486.45 193.936,47.2441 "/>
<polyline clip-path="url(#clip910)" style="stroke:#000000; stroke-linecap:round; stroke-linejoin:round; stroke-width:4; stroke-opacity:1; fill:none" points="193.936,1250.96 212.834,1250.96 "/>
<polyline clip-path="url(#clip910)" style="stroke:#000000; stroke-linecap:round; stroke-linejoin:round; stroke-width:4; stroke-opacity:1; fill:none" points="193.936,1002.1 212.834,1002.1 "/>
<polyline clip-path="url(#clip910)" style="stroke:#000000; stroke-linecap:round; stroke-linejoin:round; stroke-width:4; stroke-opacity:1; fill:none" points="193.936,753.24 212.834,753.24 "/>
<polyline clip-path="url(#clip910)" style="stroke:#000000; stroke-linecap:round; stroke-linejoin:round; stroke-width:4; stroke-opacity:1; fill:none" points="193.936,504.377 212.834,504.377 "/>
<polyline clip-path="url(#clip910)" style="stroke:#000000; stroke-linecap:round; stroke-linejoin:round; stroke-width:4; stroke-opacity:1; fill:none" points="193.936,255.515 212.834,255.515 "/>
<path clip-path="url(#clip910)" d="M50.9921 1251.42 L80.6679 1251.42 L80.6679 1255.35 L50.9921 1255.35 L50.9921 1251.42 Z" fill="#000000" fill-rule="nonzero" fill-opacity="1" /><path clip-path="url(#clip910)" d="M91.5706 1264.31 L99.2095 1264.31 L99.2095 1237.94 L90.8993 1239.61 L90.8993 1235.35 L99.1632 1233.68 L103.839 1233.68 L103.839 1264.31 L111.478 1264.31 L111.478 1268.24 L91.5706 1268.24 L91.5706 1264.31 Z" fill="#000000" fill-rule="nonzero" fill-opacity="1" /><path clip-path="url(#clip910)" d="M120.922 1262.36 L125.807 1262.36 L125.807 1268.24 L120.922 1268.24 L120.922 1262.36 Z" fill="#000000" fill-rule="nonzero" fill-opacity="1" /><path clip-path="url(#clip910)" d="M145.992 1236.76 Q142.381 1236.76 140.552 1240.33 Q138.746 1243.87 138.746 1251 Q138.746 1258.1 140.552 1261.67 Q142.381 1265.21 145.992 1265.21 Q149.626 1265.21 151.431 1261.67 Q153.26 1258.1 153.26 1251 Q153.26 1243.87 151.431 1240.33 Q149.626 1236.76 145.992 1236.76 M145.992 1233.06 Q151.802 1233.06 154.857 1237.67 Q157.936 1242.25 157.936 1251 Q157.936 1259.73 154.857 1264.33 Q151.802 1268.92 145.992 1268.92 Q140.181 1268.92 137.103 1264.33 Q134.047 1259.73 134.047 1251 Q134.047 1242.25 137.103 1237.67 Q140.181 1233.06 145.992 1233.06 Z" fill="#000000" fill-rule="nonzero" fill-opacity="1" /><path clip-path="url(#clip910)" d="M51.9875 1002.55 L81.6633 1002.55 L81.6633 1006.49 L51.9875 1006.49 L51.9875 1002.55 Z" fill="#000000" fill-rule="nonzero" fill-opacity="1" /><path clip-path="url(#clip910)" d="M101.756 987.9 Q98.1447 987.9 96.316 991.465 Q94.5104 995.007 94.5104 1002.14 Q94.5104 1009.24 96.316 1012.81 Q98.1447 1016.35 101.756 1016.35 Q105.39 1016.35 107.196 1012.81 Q109.024 1009.24 109.024 1002.14 Q109.024 995.007 107.196 991.465 Q105.39 987.9 101.756 987.9 M101.756 984.197 Q107.566 984.197 110.621 988.803 Q113.7 993.386 113.7 1002.14 Q113.7 1010.86 110.621 1015.47 Q107.566 1020.05 101.756 1020.05 Q95.9456 1020.05 92.8669 1015.47 Q89.8114 1010.86 89.8114 1002.14 Q89.8114 993.386 92.8669 988.803 Q95.9456 984.197 101.756 984.197 Z" fill="#000000" fill-rule="nonzero" fill-opacity="1" /><path clip-path="url(#clip910)" d="M121.918 1013.5 L126.802 1013.5 L126.802 1019.38 L121.918 1019.38 L121.918 1013.5 Z" fill="#000000" fill-rule="nonzero" fill-opacity="1" /><path clip-path="url(#clip910)" d="M137.033 984.822 L155.39 984.822 L155.39 988.757 L141.316 988.757 L141.316 997.229 Q142.334 996.882 143.353 996.72 Q144.371 996.535 145.39 996.535 Q151.177 996.535 154.556 999.706 Q157.936 1002.88 157.936 1008.29 Q157.936 1013.87 154.464 1016.97 Q150.992 1020.05 144.672 1020.05 Q142.496 1020.05 140.228 1019.68 Q137.982 1019.31 135.575 1018.57 L135.575 1013.87 Q137.658 1015.01 139.881 1015.56 Q142.103 1016.12 144.58 1016.12 Q148.584 1016.12 150.922 1014.01 Q153.26 1011.9 153.26 1008.29 Q153.26 1004.68 150.922 1002.58 Q148.584 1000.47 144.58 1000.47 Q142.705 1000.47 140.83 1000.89 Q138.978 1001.3 137.033 1002.18 L137.033 984.822 Z" fill="#000000" fill-rule="nonzero" fill-opacity="1" /><path clip-path="url(#clip910)" d="M100.76 739.038 Q97.1493 739.038 95.3206 742.603 Q93.515 746.145 93.515 753.274 Q93.515 760.381 95.3206 763.945 Q97.1493 767.487 100.76 767.487 Q104.395 767.487 106.2 763.945 Q108.029 760.381 108.029 753.274 Q108.029 746.145 106.2 742.603 Q104.395 739.038 100.76 739.038 M100.76 735.335 Q106.571 735.335 109.626 739.941 Q112.705 744.524 112.705 753.274 Q112.705 762.001 109.626 766.607 Q106.571 771.191 100.76 771.191 Q94.9502 771.191 91.8715 766.607 Q88.816 762.001 88.816 753.274 Q88.816 744.524 91.8715 739.941 Q94.9502 735.335 100.76 735.335 Z" fill="#000000" fill-rule="nonzero" fill-opacity="1" /><path clip-path="url(#clip910)" d="M120.922 764.64 L125.807 764.64 L125.807 770.52 L120.922 770.52 L120.922 764.64 Z" fill="#000000" fill-rule="nonzero" fill-opacity="1" /><path clip-path="url(#clip910)" d="M145.992 739.038 Q142.381 739.038 140.552 742.603 Q138.746 746.145 138.746 753.274 Q138.746 760.381 140.552 763.945 Q142.381 767.487 145.992 767.487 Q149.626 767.487 151.431 763.945 Q153.26 760.381 153.26 753.274 Q153.26 746.145 151.431 742.603 Q149.626 739.038 145.992 739.038 M145.992 735.335 Q151.802 735.335 154.857 739.941 Q157.936 744.524 157.936 753.274 Q157.936 762.001 154.857 766.607 Q151.802 771.191 145.992 771.191 Q140.181 771.191 137.103 766.607 Q134.047 762.001 134.047 753.274 Q134.047 744.524 137.103 739.941 Q140.181 735.335 145.992 735.335 Z" fill="#000000" fill-rule="nonzero" fill-opacity="1" /><path clip-path="url(#clip910)" d="M101.756 490.176 Q98.1447 490.176 96.316 493.741 Q94.5104 497.283 94.5104 504.412 Q94.5104 511.519 96.316 515.083 Q98.1447 518.625 101.756 518.625 Q105.39 518.625 107.196 515.083 Q109.024 511.519 109.024 504.412 Q109.024 497.283 107.196 493.741 Q105.39 490.176 101.756 490.176 M101.756 486.472 Q107.566 486.472 110.621 491.079 Q113.7 495.662 113.7 504.412 Q113.7 513.139 110.621 517.745 Q107.566 522.329 101.756 522.329 Q95.9456 522.329 92.8669 517.745 Q89.8114 513.139 89.8114 504.412 Q89.8114 495.662 92.8669 491.079 Q95.9456 486.472 101.756 486.472 Z" fill="#000000" fill-rule="nonzero" fill-opacity="1" /><path clip-path="url(#clip910)" d="M121.918 515.778 L126.802 515.778 L126.802 521.657 L121.918 521.657 L121.918 515.778 Z" fill="#000000" fill-rule="nonzero" fill-opacity="1" /><path clip-path="url(#clip910)" d="M137.033 487.097 L155.39 487.097 L155.39 491.033 L141.316 491.033 L141.316 499.505 Q142.334 499.158 143.353 498.995 Q144.371 498.81 145.39 498.81 Q151.177 498.81 154.556 501.982 Q157.936 505.153 157.936 510.569 Q157.936 516.148 154.464 519.25 Q150.992 522.329 144.672 522.329 Q142.496 522.329 140.228 521.958 Q137.982 521.588 135.575 520.847 L135.575 516.148 Q137.658 517.282 139.881 517.838 Q142.103 518.394 144.58 518.394 Q148.584 518.394 150.922 516.287 Q153.26 514.181 153.26 510.569 Q153.26 506.958 150.922 504.852 Q148.584 502.745 144.58 502.745 Q142.705 502.745 140.83 503.162 Q138.978 503.579 137.033 504.458 L137.033 487.097 Z" fill="#000000" fill-rule="nonzero" fill-opacity="1" /><path clip-path="url(#clip910)" d="M91.5706 268.86 L99.2095 268.86 L99.2095 242.495 L90.8993 244.161 L90.8993 239.902 L99.1632 238.235 L103.839 238.235 L103.839 268.86 L111.478 268.86 L111.478 272.795 L91.5706 272.795 L91.5706 268.86 Z" fill="#000000" fill-rule="nonzero" fill-opacity="1" /><path clip-path="url(#clip910)" d="M120.922 266.916 L125.807 266.916 L125.807 272.795 L120.922 272.795 L120.922 266.916 Z" fill="#000000" fill-rule="nonzero" fill-opacity="1" /><path clip-path="url(#clip910)" d="M145.992 241.314 Q142.381 241.314 140.552 244.879 Q138.746 248.42 138.746 255.55 Q138.746 262.656 140.552 266.221 Q142.381 269.763 145.992 269.763 Q149.626 269.763 151.431 266.221 Q153.26 262.656 153.26 255.55 Q153.26 248.42 151.431 244.879 Q149.626 241.314 145.992 241.314 M145.992 237.61 Q151.802 237.61 154.857 242.217 Q157.936 246.8 157.936 255.55 Q157.936 264.277 154.857 268.883 Q151.802 273.467 145.992 273.467 Q140.181 273.467 137.103 268.883 Q134.047 264.277 134.047 255.55 Q134.047 246.8 137.103 242.217 Q140.181 237.61 145.992 237.61 Z" fill="#000000" fill-rule="nonzero" fill-opacity="1" /><polyline clip-path="url(#clip911)" style="stroke:#009af9; stroke-linecap:round; stroke-linejoin:round; stroke-width:4; stroke-opacity:1; fill:none" points="255.035,753.24 258.276,748.262 261.517,743.286 264.759,738.31 268,733.336 271.242,728.364 274.483,723.394 277.724,718.427 280.966,713.464 284.207,708.505 287.449,703.55 290.69,698.6 293.931,693.656 297.173,688.717 300.414,683.786 303.655,678.861 306.897,673.943 310.138,669.033 313.38,664.132 316.621,659.24 319.862,654.357 323.104,649.484 326.345,644.621 329.587,639.77 332.828,634.929 336.069,630.101 339.311,625.284 342.552,620.481 345.793,615.691 349.035,610.914 352.276,606.152 355.518,601.404 358.759,596.672 362,591.955 365.242,587.255 368.483,582.571 371.725,577.904 374.966,573.255 378.207,568.623 381.449,564.011 384.69,559.417 387.931,554.842 391.173,550.287 394.414,545.753 397.656,541.239 400.897,536.747 404.138,532.276 407.38,527.827 410.621,523.401 413.863,518.998 417.104,514.618 420.345,510.262 423.587,505.93 426.828,501.623 430.069,497.342 433.311,493.085 436.552,488.855 439.794,484.652 443.035,480.475 446.276,476.325 449.518,472.203 452.759,468.109 456.001,464.044 459.242,460.008 462.483,456.001 465.725,452.024 468.966,448.076 472.208,444.16 475.449,440.274 478.69,436.42 481.932,432.597 485.173,428.806 488.414,425.048 491.656,421.322 494.897,417.63 498.139,413.971 501.38,410.347 504.621,406.756 507.863,403.2 511.104,399.679 514.346,396.194 517.587,392.744 520.828,389.331 524.07,385.953 527.311,382.613 530.552,379.309 533.794,376.043 537.035,372.814 540.277,369.624 543.518,366.472 546.759,363.359 550.001,360.284 553.242,357.249 556.484,354.254 559.725,351.298 562.966,348.383 566.208,345.508 569.449,342.674 572.69,339.881 575.932,337.129 579.173,334.419 582.415,331.751 585.656,329.125 588.897,326.541 592.139,324 595.38,321.502 598.622,319.047 601.863,316.636 605.104,314.268 608.346,311.944 611.587,309.664 614.828,307.429 618.07,305.238 621.311,303.092 624.553,300.991 627.794,298.935 631.035,296.924 634.277,294.96 637.518,293.041 640.76,291.168 644.001,289.341 647.242,287.561 650.484,285.827 653.725,284.14 656.966,282.5 660.208,280.907 663.449,279.361 666.691,277.863 669.932,276.412 673.173,275.009 676.415,273.653 679.656,272.346 682.898,271.087 686.139,269.875 689.38,268.713 692.622,267.598 695.863,266.533 699.104,265.516 702.346,264.547 705.587,263.628 708.829,262.757 712.07,261.936 715.311,261.164 718.553,260.44 721.794,259.767 725.036,259.142 728.277,258.567 731.518,258.042 734.76,257.565 738.001,257.139 741.242,256.762 744.484,256.435 747.725,256.157 750.967,255.929 754.208,255.751 757.449,255.623 760.691,255.544 763.932,255.515 767.174,255.536 770.415,255.607 773.656,255.728 776.898,255.898 780.139,256.118 783.381,256.387 786.622,256.707 789.863,257.076 793.105,257.494 796.346,257.962 799.587,258.48 802.829,259.047 806.07,259.664 809.312,260.33 812.553,261.045 815.794,261.81 819.036,262.623 822.277,263.486 825.519,264.398 828.76,265.358 832.001,266.367 835.243,267.425 838.484,268.532 841.725,269.687 844.967,270.89 848.208,272.142 851.45,273.442 854.691,274.79 857.932,276.185 861.174,277.628 864.415,279.119 867.657,280.658 870.898,282.243 874.139,283.876 877.381,285.555 880.622,287.282 883.863,289.054 887.105,290.874 890.346,292.739 893.588,294.651 896.829,296.608 900.07,298.612 903.312,300.66 906.553,302.754 909.795,304.893 913.036,307.077 916.277,309.305 919.519,311.578 922.76,313.895 926.001,316.256 929.243,318.66 932.484,321.108 935.726,323.599 938.967,326.133 942.208,328.71 945.45,331.33 948.691,333.991 951.933,336.695 955.174,339.44 958.415,342.226 961.657,345.054 964.898,347.922 968.139,350.831 971.381,353.78 974.622,356.77 977.864,359.798 981.105,362.866 984.346,365.974 987.588,369.12 990.829,372.304 994.071,375.526 997.312,378.786 1000.55,382.084 1003.79,385.419 1007.04,388.79 1010.28,392.198 1013.52,395.642 1016.76,399.122 1020,402.637 1023.24,406.187 1026.48,409.772 1029.73,413.392 1032.97,417.045 1036.21,420.732 1039.45,424.452 1042.69,428.205 1045.93,431.991 1049.17,435.809 1052.42,439.658 1055.66,443.539 1058.9,447.451 1062.14,451.393 1065.38,455.365 1068.62,459.368 1071.86,463.399 1075.11,467.46 1078.35,471.549 1081.59,475.667 1084.83,479.812 1088.07,483.985 1091.31,488.184 1094.55,492.41 1097.79,496.662 1101.04,500.94 1104.28,505.243 1107.52,509.57 1110.76,513.922 1114,518.298 1117.24,522.698 1120.48,527.121 1123.73,531.566 1126.97,536.033 1130.21,540.522 1133.45,545.033 1136.69,549.564 1139.93,554.115 1143.17,558.687 1146.42,563.278 1149.66,567.887 1152.9,572.516 1156.14,577.162 1159.38,581.827 1162.62,586.508 1165.86,591.206 1169.11,595.92 1172.35,600.65 1175.59,605.395 1178.83,610.155 1182.07,614.929 1185.31,619.717 1188.55,624.518 1191.8,629.333 1195.04,634.159 1198.28,638.998 1201.52,643.848 1204.76,648.709 1208,653.58 1211.24,658.462 1214.48,663.352 1217.73,668.252 1220.97,673.16 1224.21,678.077 1227.45,683.001 1230.69,687.932 1233.93,692.869 1237.17,697.812 1240.42,702.761 1243.66,707.715 1246.9,712.674 1250.14,717.637 1253.38,722.603 1256.62,727.572 1259.86,732.544 1263.11,737.518 1266.35,742.493 1269.59,747.47 1272.83,752.447 1276.07,757.424 1279.31,762.401 1282.55,767.377 1285.8,772.351 1289.04,777.324 1292.28,782.294 1295.52,787.261 1298.76,792.225 1302,797.185 1305.24,802.14 1308.48,807.091 1311.73,812.036 1314.97,816.975 1318.21,821.908 1321.45,826.835 1324.69,831.753 1327.93,836.664 1331.17,841.567 1334.42,846.461 1337.66,851.345 1340.9,856.22 1344.14,861.084 1347.38,865.937 1350.62,870.78 1353.86,875.61 1357.11,880.429 1360.35,885.234 1363.59,890.026 1366.83,894.805 1370.07,899.57 1373.31,904.319 1376.55,909.054 1379.8,913.773 1383.04,918.477 1386.28,923.163 1389.52,927.833 1392.76,932.485 1396,937.119 1399.24,941.735 1402.49,946.332 1405.73,950.91 1408.97,955.468 1412.21,960.005 1415.45,964.522 1418.69,969.018 1421.93,973.493 1425.17,977.945 1428.42,982.375 1431.66,986.782 1434.9,991.165 1438.14,995.525 1441.38,999.861 1444.62,1004.17 1447.86,1008.46 1451.11,1012.72 1454.35,1016.95 1457.59,1021.16 1460.83,1025.34 1464.07,1029.49 1467.31,1033.62 1470.55,1037.72 1473.8,1041.79 1477.04,1045.83 1480.28,1049.84 1483.52,1053.82 1486.76,1057.78 1490,1061.7 1493.24,1065.59 1496.49,1069.45 1499.73,1073.28 1502.97,1077.07 1506.21,1080.83 1509.45,1084.57 1512.69,1088.26 1515.93,1091.93 1519.18,1095.56 1522.42,1099.15 1525.66,1102.71 1528.9,1106.24 1532.14,1109.73 1535.38,1113.19 1538.62,1116.61 1541.86,1119.99 1545.11,1123.34 1548.35,1126.65 1551.59,1129.92 1554.83,1133.15 1558.07,1136.35 1561.31,1139.51 1564.55,1142.63 1567.8,1145.71 1571.04,1148.75 1574.28,1151.75 1577.52,1154.71 1580.76,1157.63 1584,1160.52 1587.24,1163.36 1590.49,1166.16 1593.73,1168.91 1596.97,1171.63 1600.21,1174.31 1603.45,1176.94 1606.69,1179.53 1609.93,1182.08 1613.18,1184.58 1616.42,1187.04 1619.66,1189.46 1622.9,1191.84 1626.14,1194.17 1629.38,1196.45 1632.62,1198.7 1635.86,1200.9 1639.11,1203.05 1642.35,1205.16 1645.59,1207.22 1648.83,1209.24 1652.07,1211.21 1655.31,1213.14 1658.55,1215.02 1661.8,1216.85 1665.04,1218.64 1668.28,1220.38 1671.52,1222.07 1674.76,1223.72 1678,1225.32 1681.24,1226.87 1684.49,1228.38 1687.73,1229.84 1690.97,1231.25 1694.21,1232.61 1697.45,1233.93 1700.69,1235.2 1703.93,1236.41 1707.18,1237.58 1710.42,1238.71 1713.66,1239.78 1716.9,1240.8 1720.14,1241.78 1723.38,1242.71 1726.62,1243.59 1729.87,1244.42 1733.11,1245.2 1736.35,1245.93 1739.59,1246.61 1742.83,1247.24 1746.07,1247.82 1749.31,1248.36 1752.55,1248.84 1755.8,1249.28 1759.04,1249.66 1762.28,1250 1765.52,1250.28 1768.76,1250.52 1772,1250.7 1775.24,1250.84 1778.49,1250.93 1781.73,1250.96 1784.97,1250.95 1788.21,1250.89 1791.45,1250.77 1794.69,1250.61 1797.93,1250.4 1801.18,1250.14 1804.42,1249.83 1807.66,1249.47 1810.9,1249.05 1814.14,1248.59 1817.38,1248.08 1820.62,1247.53 1823.87,1246.92 1827.11,1246.26 1830.35,1245.55 1833.59,1244.79 1836.83,1243.99 1840.07,1243.13 1843.31,1242.23 1846.55,1241.28 1849.8,1240.28 1853.04,1239.23 1856.28,1238.13 1859.52,1236.98 1862.76,1235.78 1866,1234.54 1869.24,1233.25 1872.49,1231.91 1875.73,1230.52 1878.97,1229.08 1882.21,1227.6 1885.45,1226.07 1888.69,1224.49 1891.93,1222.87 1895.18,1221.19 1898.42,1219.48 1901.66,1217.71 1904.9,1215.9 1908.14,1214.04 1911.38,1212.14 1914.62,1210.19 1917.87,1208.19 1921.11,1206.15 1924.35,1204.06 1927.59,1201.93 1930.83,1199.75 1934.07,1197.53 1937.31,1195.27 1940.56,1192.96 1943.8,1190.6 1947.04,1188.2 1950.28,1185.76 1953.52,1183.28 1956.76,1180.75 1960,1178.18 1963.24,1175.57 1966.49,1172.91 1969.73,1170.22 1972.97,1167.48 1976.21,1164.7 1979.45,1161.88 1982.69,1159.02 1985.93,1156.11 1989.18,1153.17 1992.42,1150.19 1995.66,1147.17 1998.9,1144.1 2002.14,1141 2005.38,1137.86 2008.62,1134.68 2011.87,1131.47 2015.11,1128.21 2018.35,1124.92 2021.59,1121.59 2024.83,1118.23 2028.07,1114.83 2031.31,1111.39 2034.56,1107.91 2037.8,1104.4 2041.04,1100.86 2044.28,1097.28 2047.52,1093.67 2050.76,1090.02 2054,1086.34 2057.24,1082.62 2060.49,1078.87 2063.73,1075.09 2066.97,1071.28 2070.21,1067.44 2073.45,1063.56 2076.69,1059.65 2079.93,1055.72 2083.18,1051.75 2086.42,1047.75 2089.66,1043.72 2092.9,1039.67 2096.14,1035.58 2099.38,1031.47 2102.62,1027.33 2105.87,1023.16 2109.11,1018.97 2112.35,1014.74 2115.59,1010.5 2118.83,1006.22 2122.07,1001.92 2125.31,997.6 2128.56,993.251 2131.8,988.879 2135.04,984.483 2138.28,980.064 2141.52,975.623 2144.76,971.159 2148,966.673 2151.25,962.166 2154.49,957.638 2157.73,953.09 2160.97,948.522 2164.21,943.934 2167.45,939.327 2170.69,934.701 2173.93,930.058 2177.18,925.396 2180.42,920.718 2183.66,916.023 2186.9,911.311 2190.14,906.584 2193.38,901.841 2196.62,897.083 2199.87,892.311 2203.11,887.525 2206.35,882.726 2209.59,877.914 2212.83,873.089 2216.07,868.253 2219.31,863.404 2222.56,858.545 2225.8,853.675 2229.04,848.796 2232.28,843.906 2235.52,839.008 2238.76,834.101 2242,829.186 2245.25,824.263 2248.49,819.333 2251.73,814.397 2254.97,809.454 2258.21,804.506 2261.45,799.553 2264.69,794.595 2267.94,789.633 2271.18,784.667 2274.42,779.699 2277.66,774.727 2280.9,769.754 2284.14,764.778 2287.38,759.802 2290.62,754.825 "/>
<circle clip-path="url(#clip911)" cx="1509.45" cy="1102.79" r="14.4" fill="#e26f46" fill-rule="evenodd" fill-opacity="1" stroke="#000000" stroke-opacity="1" stroke-width="3.2"/>
<circle clip-path="url(#clip911)" cx="2267.94" cy="870.728" r="14.4" fill="#e26f46" fill-rule="evenodd" fill-opacity="1" stroke="#000000" stroke-opacity="1" stroke-width="3.2"/>
<circle clip-path="url(#clip911)" cx="2002.14" cy="1257.08" r="14.4" fill="#e26f46" fill-rule="evenodd" fill-opacity="1" stroke="#000000" stroke-opacity="1" stroke-width="3.2"/>
<circle clip-path="url(#clip911)" cx="1736.35" cy="1320.61" r="14.4" fill="#e26f46" fill-rule="evenodd" fill-opacity="1" stroke="#000000" stroke-opacity="1" stroke-width="3.2"/>
<circle clip-path="url(#clip911)" cx="1930.83" cy="1261.28" r="14.4" fill="#e26f46" fill-rule="evenodd" fill-opacity="1" stroke="#000000" stroke-opacity="1" stroke-width="3.2"/>
<circle clip-path="url(#clip911)" cx="1331.17" cy="929.53" r="14.4" fill="#e26f46" fill-rule="evenodd" fill-opacity="1" stroke="#000000" stroke-opacity="1" stroke-width="3.2"/>
<circle clip-path="url(#clip911)" cx="1240.42" cy="670.963" r="14.4" fill="#e26f46" fill-rule="evenodd" fill-opacity="1" stroke="#000000" stroke-opacity="1" stroke-width="3.2"/>
<circle clip-path="url(#clip911)" cx="1606.69" cy="1195.03" r="14.4" fill="#e26f46" fill-rule="evenodd" fill-opacity="1" stroke="#000000" stroke-opacity="1" stroke-width="3.2"/>
<circle clip-path="url(#clip911)" cx="627.794" cy="221.302" r="14.4" fill="#e26f46" fill-rule="evenodd" fill-opacity="1" stroke="#000000" stroke-opacity="1" stroke-width="3.2"/>
<circle clip-path="url(#clip911)" cx="1493.24" cy="1151.05" r="14.4" fill="#e26f46" fill-rule="evenodd" fill-opacity="1" stroke="#000000" stroke-opacity="1" stroke-width="3.2"/>
<circle clip-path="url(#clip911)" cx="2083.18" cy="1043.56" r="14.4" fill="#e26f46" fill-rule="evenodd" fill-opacity="1" stroke="#000000" stroke-opacity="1" stroke-width="3.2"/>
<circle clip-path="url(#clip911)" cx="1191.8" cy="648.736" r="14.4" fill="#e26f46" fill-rule="evenodd" fill-opacity="1" stroke="#000000" stroke-opacity="1" stroke-width="3.2"/>
<circle clip-path="url(#clip911)" cx="2254.97" cy="712.793" r="14.4" fill="#e26f46" fill-rule="evenodd" fill-opacity="1" stroke="#000000" stroke-opacity="1" stroke-width="3.2"/>
<circle clip-path="url(#clip911)" cx="1152.9" cy="664.505" r="14.4" fill="#e26f46" fill-rule="evenodd" fill-opacity="1" stroke="#000000" stroke-opacity="1" stroke-width="3.2"/>
<circle clip-path="url(#clip911)" cx="1178.83" cy="561.666" r="14.4" fill="#e26f46" fill-rule="evenodd" fill-opacity="1" stroke="#000000" stroke-opacity="1" stroke-width="3.2"/>
<circle clip-path="url(#clip911)" cx="1943.8" cy="1168.15" r="14.4" fill="#e26f46" fill-rule="evenodd" fill-opacity="1" stroke="#000000" stroke-opacity="1" stroke-width="3.2"/>
<circle clip-path="url(#clip911)" cx="400.897" cy="596.397" r="14.4" fill="#e26f46" fill-rule="evenodd" fill-opacity="1" stroke="#000000" stroke-opacity="1" stroke-width="3.2"/>
<circle clip-path="url(#clip911)" cx="1149.66" cy="674.718" r="14.4" fill="#e26f46" fill-rule="evenodd" fill-opacity="1" stroke="#000000" stroke-opacity="1" stroke-width="3.2"/>
<circle clip-path="url(#clip911)" cx="1551.59" cy="1198.42" r="14.4" fill="#e26f46" fill-rule="evenodd" fill-opacity="1" stroke="#000000" stroke-opacity="1" stroke-width="3.2"/>
<circle clip-path="url(#clip911)" cx="1956.76" cy="1088.98" r="14.4" fill="#e26f46" fill-rule="evenodd" fill-opacity="1" stroke="#000000" stroke-opacity="1" stroke-width="3.2"/>
<path clip-path="url(#clip911)" d="M255.035 1012.3 L258.276 1008.32 L261.517 1004.29 L264.759 1000.22 L268 996.1 L271.242 991.936 L274.483 987.728 L277.724 983.477 L280.966 979.183 L284.207 974.849 L287.449 970.475 L290.69 966.063 L293.931 961.614 L297.173 957.129 L300.414 952.61 L303.655 948.059 L306.897 943.478 L310.138 938.869 L313.38 934.235 L316.621 929.577 L319.862 924.899 L323.104 920.203 L326.345 915.492 L329.587 910.769 L332.828 906.039 L336.069 901.304 L339.311 896.568 L342.552 891.836 L345.793 887.111 L349.035 882.399 L352.276 877.703 L355.518 873.029 L358.759 868.383 L362 863.768 L365.242 859.191 L368.483 854.658 L371.725 850.175 L374.966 845.747 L378.207 841.381 L381.449 837.082 L384.69 832.858 L387.931 828.714 L391.173 824.657 L394.414 820.693 L397.656 816.828 L400.897 813.068 L404.138 809.417 L407.38 805.869 L410.621 802.421 L413.863 799.063 L417.104 795.792 L420.345 792.598 L423.587 789.477 L426.828 786.421 L430.069 783.423 L433.311 780.478 L436.552 777.579 L439.794 774.719 L443.035 771.893 L446.276 769.094 L449.518 766.319 L452.759 763.561 L456.001 760.815 L459.242 758.077 L462.483 755.344 L465.725 752.61 L468.966 749.872 L472.208 747.128 L475.449 744.374 L478.69 741.607 L481.932 738.827 L485.173 736.03 L488.414 733.215 L491.656 730.382 L494.897 727.529 L498.139 724.657 L501.38 721.765 L504.621 718.852 L507.863 715.921 L511.104 712.972 L514.346 710.006 L517.587 707.025 L520.828 704.031 L524.07 701.027 L527.311 698.014 L530.552 694.996 L533.794 691.977 L537.035 688.96 L540.277 685.949 L543.518 682.949 L546.759 679.965 L550.001 677.002 L553.242 674.065 L556.484 671.16 L559.725 668.294 L562.966 665.474 L566.208 662.706 L569.449 659.998 L572.69 657.358 L575.932 654.793 L579.173 652.314 L582.415 649.928 L585.656 647.644 L588.897 645.473 L592.139 643.425 L595.38 641.509 L598.622 639.736 L601.863 638.116 L605.104 636.662 L608.346 635.384 L611.587 634.293 L614.828 633.401 L618.07 632.72 L621.311 632.26 L624.553 632.034 L627.794 632.052 L631.035 632.323 L634.277 632.84 L637.518 633.592 L640.76 634.569 L644.001 635.76 L647.242 637.155 L650.484 638.744 L653.725 640.516 L656.966 642.461 L660.208 644.569 L663.449 646.831 L666.691 649.236 L669.932 651.776 L673.173 654.441 L676.415 657.223 L679.656 660.113 L682.898 663.103 L686.139 666.186 L689.38 669.352 L692.622 672.596 L695.863 675.91 L699.104 679.288 L702.346 682.722 L705.587 686.207 L708.829 689.737 L712.07 693.306 L715.311 696.908 L718.553 700.539 L721.794 704.194 L725.036 707.867 L728.277 711.554 L731.518 715.252 L734.76 718.955 L738.001 722.66 L741.242 726.363 L744.484 730.06 L747.725 733.749 L750.967 737.425 L754.208 741.087 L757.449 744.73 L760.691 748.352 L763.932 751.951 L767.174 755.523 L770.415 759.067 L773.656 762.579 L776.898 766.059 L780.139 769.503 L783.381 772.91 L786.622 776.278 L789.863 779.604 L793.105 782.888 L796.346 786.127 L799.587 789.321 L802.829 792.467 L806.07 795.563 L809.312 798.61 L812.553 801.605 L815.794 804.547 L819.036 807.434 L822.277 810.267 L825.519 813.043 L828.76 815.762 L832.001 818.423 L835.243 821.024 L838.484 823.565 L841.725 826.045 L844.967 828.464 L848.208 830.819 L851.45 833.112 L854.691 835.34 L857.932 837.504 L861.174 839.602 L864.415 841.635 L867.657 843.601 L870.898 845.499 L874.139 847.331 L877.381 849.094 L880.622 850.789 L883.863 852.414 L887.105 853.971 L890.346 855.458 L893.588 856.874 L896.829 858.22 L900.07 859.495 L903.312 860.7 L906.553 861.833 L909.795 862.894 L913.036 863.883 L916.277 864.801 L919.519 865.646 L922.76 866.419 L926.001 867.119 L929.243 867.747 L932.484 868.302 L935.726 868.784 L938.967 869.194 L942.208 869.53 L945.45 869.794 L948.691 869.985 L951.933 870.103 L955.174 870.149 L958.415 870.122 L961.657 870.023 L964.898 869.851 L968.139 869.608 L971.381 869.293 L974.622 868.906 L977.864 868.448 L981.105 867.92 L984.346 867.321 L987.588 866.652 L990.829 865.914 L994.071 865.107 L997.312 864.232 L1000.55 863.289 L1003.79 862.28 L1007.04 861.204 L1010.28 860.064 L1013.52 858.859 L1016.76 857.591 L1020 856.261 L1023.24 854.87 L1026.48 853.42 L1029.73 851.912 L1032.97 850.347 L1036.21 848.726 L1039.45 847.053 L1042.69 845.329 L1045.93 843.555 L1049.17 841.734 L1052.42 839.868 L1055.66 837.96 L1058.9 836.013 L1062.14 834.03 L1065.38 832.013 L1068.62 829.967 L1071.86 827.895 L1075.11 825.801 L1078.35 823.689 L1081.59 821.565 L1084.83 819.433 L1088.07 817.298 L1091.31 815.168 L1094.55 813.047 L1097.79 810.943 L1101.04 808.864 L1104.28 806.818 L1107.52 804.812 L1110.76 802.857 L1114 800.962 L1117.24 799.139 L1120.48 797.399 L1123.73 795.754 L1126.97 794.217 L1130.21 792.803 L1133.45 791.527 L1136.69 790.404 L1139.93 789.451 L1143.17 788.686 L1146.42 788.124 L1149.66 787.786 L1152.9 787.688 L1156.14 787.842 L1159.38 788.255 L1162.62 788.932 L1165.86 789.879 L1169.11 791.101 L1172.35 792.602 L1175.59 794.388 L1178.83 796.461 L1182.07 798.826 L1185.31 801.474 L1188.55 804.399 L1191.8 807.591 L1195.04 811.04 L1198.28 814.732 L1201.52 818.65 L1204.76 822.779 L1208 827.105 L1211.24 831.614 L1214.48 836.292 L1217.73 841.129 L1220.97 846.115 L1224.21 851.239 L1227.45 856.494 L1230.69 861.874 L1233.93 867.371 L1237.17 872.981 L1240.42 878.7 L1243.66 884.522 L1246.9 890.437 L1250.14 896.432 L1253.38 902.495 L1256.62 908.615 L1259.86 914.782 L1263.11 920.986 L1266.35 927.219 L1269.59 933.474 L1272.83 939.742 L1276.07 946.017 L1279.31 952.295 L1282.55 958.568 L1285.8 964.834 L1289.04 971.088 L1292.28 977.327 L1295.52 983.548 L1298.76 989.749 L1302 995.928 L1305.24 1002.08 L1308.48 1008.21 L1311.73 1014.32 L1314.97 1020.4 L1318.21 1026.45 L1321.45 1032.48 L1324.69 1038.48 L1327.93 1044.46 L1331.17 1050.42 L1334.42 1056.35 L1337.66 1062.25 L1340.9 1068.12 L1344.14 1073.94 L1347.38 1079.72 L1350.62 1085.45 L1353.86 1091.13 L1357.11 1096.74 L1360.35 1102.29 L1363.59 1107.77 L1366.83 1113.17 L1370.07 1118.49 L1373.31 1123.73 L1376.55 1128.89 L1379.8 1133.96 L1383.04 1138.93 L1386.28 1143.81 L1389.52 1148.59 L1392.76 1153.27 L1396 1157.86 L1399.24 1162.33 L1402.49 1166.71 L1405.73 1170.98 L1408.97 1175.14 L1412.21 1179.2 L1415.45 1183.15 L1418.69 1186.99 L1421.93 1190.73 L1425.17 1194.37 L1428.42 1197.9 L1431.66 1201.34 L1434.9 1204.67 L1438.14 1207.91 L1441.38 1211.05 L1444.62 1214.11 L1447.86 1217.08 L1451.11 1219.96 L1454.35 1222.78 L1457.59 1225.51 L1460.83 1228.19 L1464.07 1230.8 L1467.31 1233.36 L1470.55 1235.88 L1473.8 1238.36 L1477.04 1240.81 L1480.28 1243.24 L1483.52 1245.67 L1486.76 1248.09 L1490 1250.52 L1493.24 1252.97 L1496.49 1255.45 L1499.73 1257.96 L1502.97 1260.52 L1506.21 1263.12 L1509.45 1265.77 L1512.69 1268.48 L1515.93 1271.24 L1519.18 1274.06 L1522.42 1276.92 L1525.66 1279.82 L1528.9 1282.76 L1532.14 1285.74 L1535.38 1288.76 L1538.62 1291.81 L1541.86 1294.9 L1545.11 1298.01 L1548.35 1301.16 L1551.59 1304.33 L1554.83 1307.53 L1558.07 1310.76 L1561.31 1314 L1564.55 1317.26 L1567.8 1320.53 L1571.04 1323.8 L1574.28 1327.07 L1577.52 1330.34 L1580.76 1333.61 L1584 1336.87 L1587.24 1340.12 L1590.49 1343.37 L1593.73 1346.6 L1596.97 1349.83 L1600.21 1353.04 L1603.45 1356.25 L1606.69 1359.45 L1609.93 1362.65 L1613.18 1365.83 L1616.42 1368.99 L1619.66 1372.13 L1622.9 1375.23 L1626.14 1378.29 L1629.38 1381.31 L1632.62 1384.28 L1635.86 1387.19 L1639.11 1390.05 L1642.35 1392.84 L1645.59 1395.56 L1648.83 1398.22 L1652.07 1400.8 L1655.31 1403.3 L1658.55 1405.73 L1661.8 1408.08 L1665.04 1410.35 L1668.28 1412.54 L1671.52 1414.64 L1674.76 1416.67 L1678 1418.6 L1681.24 1420.46 L1684.49 1422.24 L1687.73 1423.93 L1690.97 1425.55 L1694.21 1427.08 L1697.45 1428.54 L1700.69 1429.93 L1703.93 1431.25 L1707.18 1432.49 L1710.42 1433.67 L1713.66 1434.78 L1716.9 1435.83 L1720.14 1436.82 L1723.38 1437.76 L1726.62 1438.65 L1729.87 1439.48 L1733.11 1440.27 L1736.35 1441.02 L1739.59 1441.72 L1742.83 1442.38 L1746.07 1443 L1749.31 1443.56 L1752.55 1444.06 L1755.8 1444.51 L1759.04 1444.89 L1762.28 1445.21 L1765.52 1445.45 L1768.76 1445.62 L1772 1445.71 L1775.24 1445.72 L1778.49 1445.64 L1781.73 1445.47 L1784.97 1445.21 L1788.21 1444.86 L1791.45 1444.41 L1794.69 1443.87 L1797.93 1443.22 L1801.18 1442.46 L1804.42 1441.6 L1807.66 1440.64 L1810.9 1439.56 L1814.14 1438.38 L1817.38 1437.08 L1820.62 1435.68 L1823.87 1434.16 L1827.11 1432.52 L1830.35 1430.78 L1833.59 1428.92 L1836.83 1426.94 L1840.07 1424.86 L1843.31 1422.66 L1846.55 1420.36 L1849.8 1417.94 L1853.04 1415.41 L1856.28 1412.78 L1859.52 1410.05 L1862.76 1407.21 L1866 1404.28 L1869.24 1401.24 L1872.49 1398.12 L1875.73 1394.91 L1878.97 1391.62 L1882.21 1388.25 L1885.45 1384.8 L1888.69 1381.29 L1891.93 1377.72 L1895.18 1374.09 L1898.42 1370.42 L1901.66 1366.71 L1904.9 1362.98 L1908.14 1359.22 L1911.38 1355.46 L1914.62 1351.7 L1917.87 1347.96 L1921.11 1344.24 L1924.35 1340.57 L1927.59 1336.94 L1930.83 1333.39 L1934.07 1329.91 L1937.31 1326.52 L1940.56 1323.23 L1943.8 1320.05 L1947.04 1316.99 L1950.28 1314.04 L1953.52 1311.22 L1956.76 1308.51 L1960 1305.93 L1963.24 1303.45 L1966.49 1301.07 L1969.73 1298.77 L1972.97 1296.55 L1976.21 1294.39 L1979.45 1292.29 L1982.69 1290.22 L1985.93 1288.19 L1989.18 1286.18 L1992.42 1284.18 L1995.66 1282.19 L1998.9 1280.2 L2002.14 1278.21 L2005.38 1276.19 L2008.62 1274.16 L2011.87 1272.1 L2015.11 1270.01 L2018.35 1267.88 L2021.59 1265.71 L2024.83 1263.49 L2028.07 1261.22 L2031.31 1258.9 L2034.56 1256.52 L2037.8 1254.09 L2041.04 1251.61 L2044.28 1249.07 L2047.52 1246.47 L2050.76 1243.82 L2054 1241.11 L2057.24 1238.36 L2060.49 1235.56 L2063.73 1232.71 L2066.97 1229.82 L2070.21 1226.9 L2073.45 1223.94 L2076.69 1220.95 L2079.93 1217.94 L2083.18 1214.91 L2086.42 1211.86 L2089.66 1208.8 L2092.9 1205.71 L2096.14 1202.59 L2099.38 1199.45 L2102.62 1196.27 L2105.87 1193.05 L2109.11 1189.79 L2112.35 1186.49 L2115.59 1183.14 L2118.83 1179.74 L2122.07 1176.3 L2125.31 1172.8 L2128.56 1169.25 L2131.8 1165.65 L2135.04 1161.99 L2138.28 1158.28 L2141.52 1154.52 L2144.76 1150.7 L2148 1146.83 L2151.25 1142.91 L2154.49 1138.94 L2157.73 1134.92 L2160.97 1130.86 L2164.21 1126.75 L2167.45 1122.61 L2170.69 1118.43 L2173.93 1114.23 L2177.18 1109.99 L2180.42 1105.74 L2183.66 1101.47 L2186.9 1097.19 L2190.14 1092.91 L2193.38 1088.64 L2196.62 1084.38 L2199.87 1080.15 L2203.11 1075.95 L2206.35 1071.78 L2209.59 1067.67 L2212.83 1063.63 L2216.07 1059.66 L2219.31 1055.77 L2222.56 1051.99 L2225.8 1048.32 L2229.04 1044.78 L2232.28 1041.38 L2235.52 1038.14 L2238.76 1035.07 L2242 1032.19 L2245.25 1029.52 L2248.49 1027.06 L2251.73 1024.84 L2254.97 1022.87 L2258.21 1021.17 L2261.45 1019.73 L2264.69 1018.55 L2267.94 1017.64 L2271.18 1016.97 L2274.42 1016.56 L2277.66 1016.37 L2280.9 1016.41 L2284.14 1016.66 L2287.38 1017.1 L2290.62 1017.73 L2290.62 597.344 L2287.38 601.985 L2284.14 606.548 L2280.9 611.023 L2277.66 615.401 L2274.42 619.673 L2271.18 623.829 L2267.94 627.86 L2264.69 631.759 L2261.45 635.53 L2258.21 639.177 L2254.97 642.706 L2251.73 646.124 L2248.49 649.442 L2245.25 652.67 L2242 655.82 L2238.76 658.903 L2235.52 661.932 L2232.28 664.917 L2229.04 667.871 L2225.8 670.804 L2222.56 673.728 L2219.31 676.652 L2216.07 679.586 L2212.83 682.54 L2209.59 685.523 L2206.35 688.542 L2203.11 691.605 L2199.87 694.72 L2196.62 697.892 L2193.38 701.127 L2190.14 704.431 L2186.9 707.808 L2183.66 711.262 L2180.42 714.797 L2177.18 718.416 L2173.93 722.121 L2170.69 725.914 L2167.45 729.796 L2164.21 733.769 L2160.97 737.833 L2157.73 741.988 L2154.49 746.233 L2151.25 750.569 L2148 754.993 L2144.76 759.504 L2141.52 764.101 L2138.28 768.78 L2135.04 773.538 L2131.8 778.373 L2128.56 783.281 L2125.31 788.259 L2122.07 793.3 L2118.83 798.402 L2115.59 803.558 L2112.35 808.764 L2109.11 814.013 L2105.87 819.299 L2102.62 824.616 L2099.38 829.958 L2096.14 835.316 L2092.9 840.683 L2089.66 846.053 L2086.42 851.416 L2083.18 856.765 L2079.93 862.094 L2076.69 867.401 L2073.45 872.689 L2070.21 877.957 L2066.97 883.207 L2063.73 888.439 L2060.49 893.653 L2057.24 898.849 L2054 904.025 L2050.76 909.18 L2047.52 914.312 L2044.28 919.419 L2041.04 924.496 L2037.8 929.541 L2034.56 934.549 L2031.31 939.513 L2028.07 944.429 L2024.83 949.289 L2021.59 954.085 L2018.35 958.81 L2015.11 963.453 L2011.87 968.005 L2008.62 972.455 L2005.38 976.791 L2002.14 981.001 L1998.9 985.074 L1995.66 989.008 L1992.42 992.804 L1989.18 996.46 L1985.93 999.976 L1982.69 1003.35 L1979.45 1006.58 L1976.21 1009.65 L1972.97 1012.58 L1969.73 1015.34 L1966.49 1017.95 L1963.24 1020.38 L1960 1022.63 L1956.76 1024.71 L1953.52 1026.59 L1950.28 1028.29 L1947.04 1029.78 L1943.8 1031.09 L1940.56 1032.19 L1937.31 1033.1 L1934.07 1033.81 L1930.83 1034.35 L1927.59 1034.71 L1924.35 1034.9 L1921.11 1034.95 L1917.87 1034.87 L1914.62 1034.67 L1911.38 1034.38 L1908.14 1034 L1904.9 1033.54 L1901.66 1033.03 L1898.42 1032.48 L1895.18 1031.88 L1891.93 1031.26 L1888.69 1030.63 L1885.45 1029.99 L1882.21 1029.35 L1878.97 1028.72 L1875.73 1028.1 L1872.49 1027.51 L1869.24 1026.94 L1866 1026.4 L1862.76 1025.9 L1859.52 1025.45 L1856.28 1025.03 L1853.04 1024.66 L1849.8 1024.35 L1846.55 1024.08 L1843.31 1023.87 L1840.07 1023.71 L1836.83 1023.61 L1833.59 1023.57 L1830.35 1023.58 L1827.11 1023.65 L1823.87 1023.77 L1820.62 1023.95 L1817.38 1024.18 L1814.14 1024.46 L1810.9 1024.79 L1807.66 1025.17 L1804.42 1025.6 L1801.18 1026.07 L1797.93 1026.58 L1794.69 1027.12 L1791.45 1027.7 L1788.21 1028.3 L1784.97 1028.92 L1781.73 1029.57 L1778.49 1030.23 L1775.24 1030.89 L1772 1031.56 L1768.76 1032.22 L1765.52 1032.87 L1762.28 1033.51 L1759.04 1034.12 L1755.8 1034.7 L1752.55 1035.25 L1749.31 1035.74 L1746.07 1036.19 L1742.83 1036.57 L1739.59 1036.88 L1736.35 1037.12 L1733.11 1037.27 L1729.87 1037.35 L1726.62 1037.35 L1723.38 1037.29 L1720.14 1037.17 L1716.9 1037 L1713.66 1036.79 L1710.42 1036.53 L1707.18 1036.24 L1703.93 1035.92 L1700.69 1035.58 L1697.45 1035.22 L1694.21 1034.85 L1690.97 1034.46 L1687.73 1034.08 L1684.49 1033.68 L1681.24 1033.29 L1678 1032.9 L1674.76 1032.52 L1671.52 1032.14 L1668.28 1031.78 L1665.04 1031.42 L1661.8 1031.07 L1658.55 1030.72 L1655.31 1030.39 L1652.07 1030.06 L1648.83 1029.74 L1645.59 1029.43 L1642.35 1029.11 L1639.11 1028.79 L1635.86 1028.47 L1632.62 1028.13 L1629.38 1027.78 L1626.14 1027.41 L1622.9 1027.01 L1619.66 1026.59 L1616.42 1026.12 L1613.18 1025.6 L1609.93 1025.03 L1606.69 1024.4 L1603.45 1023.7 L1600.21 1022.93 L1596.97 1022.09 L1593.73 1021.18 L1590.49 1020.2 L1587.24 1019.14 L1584 1018.01 L1580.76 1016.79 L1577.52 1015.5 L1574.28 1014.12 L1571.04 1012.64 L1567.8 1011.08 L1564.55 1009.4 L1561.31 1007.62 L1558.07 1005.73 L1554.83 1003.71 L1551.59 1001.56 L1548.35 999.264 L1545.11 996.832 L1541.86 994.26 L1538.62 991.549 L1535.38 988.699 L1532.14 985.708 L1528.9 982.576 L1525.66 979.302 L1522.42 975.882 L1519.18 972.314 L1515.93 968.596 L1512.69 964.724 L1509.45 960.696 L1506.21 956.508 L1502.97 952.164 L1499.73 947.667 L1496.49 943.021 L1493.24 938.23 L1490 933.297 L1486.76 928.237 L1483.52 923.063 L1480.28 917.789 L1477.04 912.427 L1473.8 906.99 L1470.55 901.491 L1467.31 895.941 L1464.07 890.351 L1460.83 884.73 L1457.59 879.09 L1454.35 873.438 L1451.11 867.783 L1447.86 862.132 L1444.62 856.494 L1441.38 850.874 L1438.14 845.279 L1434.9 839.713 L1431.66 834.182 L1428.42 828.691 L1425.17 823.243 L1421.93 817.842 L1418.69 812.49 L1415.45 807.191 L1412.21 801.946 L1408.97 796.758 L1405.73 791.627 L1402.49 786.555 L1399.24 781.542 L1396 776.588 L1392.76 771.693 L1389.52 766.857 L1386.28 762.078 L1383.04 757.356 L1379.8 752.688 L1376.55 748.073 L1373.31 743.508 L1370.07 738.992 L1366.83 734.52 L1363.59 730.09 L1360.35 725.698 L1357.11 721.341 L1353.86 717.013 L1350.62 712.711 L1347.38 708.43 L1344.14 704.165 L1340.9 699.911 L1337.66 695.663 L1334.42 691.415 L1331.17 687.161 L1327.93 682.898 L1324.69 678.632 L1321.45 674.368 L1318.21 670.113 L1314.97 665.875 L1311.73 661.658 L1308.48 657.471 L1305.24 653.317 L1302 649.203 L1298.76 645.134 L1295.52 641.114 L1292.28 637.148 L1289.04 633.24 L1285.8 629.392 L1282.55 625.608 L1279.31 621.89 L1276.07 618.24 L1272.83 614.659 L1269.59 611.147 L1266.35 607.704 L1263.11 604.33 L1259.86 601.023 L1256.62 597.781 L1253.38 594.601 L1250.14 591.479 L1246.9 588.412 L1243.66 585.394 L1240.42 582.419 L1237.17 579.482 L1233.93 576.58 L1230.69 573.71 L1227.45 570.867 L1224.21 568.046 L1220.97 565.243 L1217.73 562.449 L1214.48 559.658 L1211.24 556.86 L1208 554.045 L1204.76 551.202 L1201.52 548.32 L1198.28 545.386 L1195.04 542.386 L1191.8 539.307 L1188.55 536.135 L1185.31 532.86 L1182.07 529.474 L1178.83 525.969 L1175.59 522.336 L1172.35 518.569 L1169.11 514.663 L1165.86 510.613 L1162.62 506.413 L1159.38 502.058 L1156.14 497.545 L1152.9 492.869 L1149.66 488.027 L1146.42 483.026 L1143.17 477.879 L1139.93 472.601 L1136.69 467.207 L1133.45 461.711 L1130.21 456.128 L1126.97 450.47 L1123.73 444.749 L1120.48 438.978 L1117.24 433.166 L1114 427.324 L1110.76 421.462 L1107.52 415.587 L1104.28 409.708 L1101.04 403.831 L1097.79 397.963 L1094.55 392.11 L1091.31 386.277 L1088.07 380.47 L1084.83 374.693 L1081.59 368.949 L1078.35 363.243 L1075.11 357.577 L1071.86 351.955 L1068.62 346.379 L1065.38 340.852 L1062.14 335.376 L1058.9 329.952 L1055.66 324.582 L1052.42 319.268 L1049.17 314.012 L1045.93 308.813 L1042.69 303.674 L1039.45 298.595 L1036.21 293.576 L1032.97 288.619 L1029.73 283.724 L1026.48 278.891 L1023.24 274.122 L1020 269.415 L1016.76 264.771 L1013.52 260.191 L1010.28 255.675 L1007.04 251.222 L1003.79 246.832 L1000.55 242.506 L997.312 238.244 L994.071 234.044 L990.829 229.908 L987.588 225.835 L984.346 221.825 L981.105 217.878 L977.864 213.993 L974.622 210.17 L971.381 206.409 L968.139 202.71 L964.898 199.072 L961.657 195.496 L958.415 191.981 L955.174 188.526 L951.933 185.131 L948.691 181.797 L945.45 178.523 L942.208 175.308 L938.967 172.153 L935.726 169.057 L932.484 166.02 L929.243 163.042 L926.001 160.122 L922.76 157.26 L919.519 154.457 L916.277 151.712 L913.036 149.024 L909.795 146.394 L906.553 143.822 L903.312 141.307 L900.07 138.849 L896.829 136.449 L893.588 134.105 L890.346 131.819 L887.105 129.589 L883.863 127.417 L880.622 125.301 L877.381 123.243 L874.139 121.241 L870.898 119.296 L867.657 117.409 L864.415 115.578 L861.174 113.805 L857.932 112.089 L854.691 110.43 L851.45 108.828 L848.208 107.285 L844.967 105.799 L841.725 104.371 L838.484 103.001 L835.243 101.689 L832.001 100.435 L828.76 99.2406 L825.519 98.1047 L822.277 97.0278 L819.036 96.0103 L815.794 95.0522 L812.553 94.1539 L809.312 93.3156 L806.07 92.5374 L802.829 91.8198 L799.587 91.1628 L796.346 90.5667 L793.105 90.0317 L789.863 89.5582 L786.622 89.1461 L783.381 88.7959 L780.139 88.5075 L776.898 88.2812 L773.656 88.1172 L770.415 88.0155 L767.174 87.9763 L763.932 87.9995 L760.691 88.0853 L757.449 88.2335 L754.208 88.4442 L750.967 88.7173 L747.725 89.0525 L744.484 89.4497 L741.242 89.9086 L738.001 90.4289 L734.76 91.0102 L731.518 91.652 L728.277 92.3536 L725.036 93.1146 L721.794 93.9341 L718.553 94.8113 L715.311 95.7452 L712.07 96.7347 L708.829 97.7788 L705.587 98.8761 L702.346 100.025 L699.104 101.224 L695.863 102.472 L692.622 103.766 L689.38 105.105 L686.139 106.487 L682.898 107.909 L679.656 109.368 L676.415 110.863 L673.173 112.39 L669.932 113.947 L666.691 115.531 L663.449 117.138 L660.208 118.765 L656.966 120.409 L653.725 122.068 L650.484 123.736 L647.242 125.411 L644.001 127.09 L640.76 128.769 L637.518 130.446 L634.277 132.116 L631.035 133.778 L627.794 135.43 L624.553 137.068 L621.311 138.696 L618.07 140.317 L614.828 141.934 L611.587 143.551 L608.346 145.171 L605.104 146.798 L601.863 148.437 L598.622 150.091 L595.38 151.764 L592.139 153.46 L588.897 155.183 L585.656 156.937 L582.415 158.725 L579.173 160.551 L575.932 162.417 L572.69 164.328 L569.449 166.285 L566.208 168.291 L562.966 170.349 L559.725 172.46 L556.484 174.627 L553.242 176.851 L550.001 179.133 L546.759 181.474 L543.518 183.875 L540.277 186.336 L537.035 188.859 L533.794 191.442 L530.552 194.085 L527.311 196.789 L524.07 199.551 L520.828 202.371 L517.587 205.248 L514.346 208.18 L511.104 211.165 L507.863 214.201 L504.621 217.286 L501.38 220.416 L498.139 223.589 L494.897 226.802 L491.656 230.051 L488.414 233.332 L485.173 236.642 L481.932 239.975 L478.69 243.327 L475.449 246.693 L472.208 250.068 L468.966 253.446 L465.725 256.821 L462.483 260.186 L459.242 263.537 L456.001 266.864 L452.759 270.163 L449.518 273.424 L446.276 276.64 L443.035 279.803 L439.794 282.906 L436.552 285.939 L433.311 288.893 L430.069 291.761 L426.828 294.532 L423.587 297.197 L420.345 299.748 L417.104 302.174 L413.863 304.467 L410.621 306.616 L407.38 308.614 L404.138 310.45 L400.897 312.115 L397.656 313.604 L394.414 314.92 L391.173 316.071 L387.931 317.062 L384.69 317.9 L381.449 318.594 L378.207 319.149 L374.966 319.573 L371.725 319.873 L368.483 320.056 L365.242 320.128 L362 320.096 L358.759 319.966 L355.518 319.746 L352.276 319.44 L349.035 319.055 L345.793 318.596 L342.552 318.069 L339.311 317.479 L336.069 316.83 L332.828 316.128 L329.587 315.377 L326.345 314.582 L323.104 313.746 L319.862 312.873 L316.621 311.966 L313.38 311.03 L310.138 310.068 L306.897 309.082 L303.655 308.076 L300.414 307.051 L297.173 306.012 L293.931 304.96 L290.69 303.897 L287.449 302.825 L284.207 301.747 L280.966 300.665 L277.724 299.579 L274.483 298.492 L271.242 297.406 L268 296.32 L264.759 295.238 L261.517 294.16 L258.276 293.087 L255.035 292.02  Z" fill="#3da44d" fill-rule="evenodd" fill-opacity="0.1"/>
<polyline clip-path="url(#clip911)" style="stroke:#3da44d; stroke-linecap:round; stroke-linejoin:round; stroke-width:8; stroke-opacity:1; fill:none" points="255.035,652.163 258.276,650.705 261.517,649.227 264.759,647.729 268,646.21 271.242,644.671 274.483,643.11 277.724,641.528 280.966,639.924 284.207,638.298 287.449,636.65 290.69,634.98 293.931,633.287 297.173,631.57 300.414,629.831 303.655,628.067 306.897,626.28 310.138,624.469 313.38,622.633 316.621,620.772 319.862,618.886 323.104,616.974 326.345,615.037 329.587,613.073 332.828,611.084 336.069,609.067 339.311,607.023 342.552,604.952 345.793,602.854 349.035,600.727 352.276,598.572 355.518,596.388 358.759,594.174 362,591.932 365.242,589.66 368.483,587.357 371.725,585.024 374.966,582.66 378.207,580.265 381.449,577.838 384.69,575.379 387.931,572.888 391.173,570.364 394.414,567.807 397.656,565.216 400.897,562.592 404.138,559.933 407.38,557.242 410.621,554.518 413.863,551.765 417.104,548.983 420.345,546.173 423.587,543.337 426.828,540.476 430.069,537.592 433.311,534.686 436.552,531.759 439.794,528.812 443.035,525.848 446.276,522.867 449.518,519.871 452.759,516.862 456.001,513.84 459.242,510.807 462.483,507.765 465.725,504.715 468.966,501.659 472.208,498.598 475.449,495.533 478.69,492.467 481.932,489.401 485.173,486.336 488.414,483.274 491.656,480.217 494.897,477.166 498.139,474.123 501.38,471.09 504.621,468.069 507.863,465.061 511.104,462.069 514.346,459.093 517.587,456.137 520.828,453.201 524.07,450.289 527.311,447.401 530.552,444.541 533.794,441.709 537.035,438.909 540.277,436.143 543.518,433.412 546.759,430.719 550.001,428.067 553.242,425.458 556.484,422.894 559.725,420.377 562.966,417.911 566.208,415.499 569.449,413.141 572.69,410.843 575.932,408.605 579.173,406.432 582.415,404.326 585.656,402.291 588.897,400.328 592.139,398.442 595.38,396.636 598.622,394.913 601.863,393.277 605.104,391.73 608.346,390.278 611.587,388.922 614.828,387.668 618.07,386.519 621.311,385.478 624.553,384.551 627.794,383.741 631.035,383.051 634.277,382.478 637.518,382.019 640.76,381.669 644.001,381.425 647.242,381.283 650.484,381.24 653.725,381.292 656.966,381.435 660.208,381.667 663.449,381.984 666.691,382.384 669.932,382.862 673.173,383.416 676.415,384.043 679.656,384.741 682.898,385.506 686.139,386.336 689.38,387.229 692.622,388.181 695.863,389.191 699.104,390.256 702.346,391.374 705.587,392.542 708.829,393.758 712.07,395.02 715.311,396.327 718.553,397.675 721.794,399.064 725.036,400.491 728.277,401.954 731.518,403.452 734.76,404.982 738.001,406.544 741.242,408.136 744.484,409.755 747.725,411.401 750.967,413.071 754.208,414.765 757.449,416.482 760.691,418.219 763.932,419.975 767.174,421.75 770.415,423.541 773.656,425.348 776.898,427.17 780.139,429.005 783.381,430.853 786.622,432.712 789.863,434.581 793.105,436.46 796.346,438.347 799.587,440.242 802.829,442.143 806.07,444.05 809.312,445.963 812.553,447.879 815.794,449.799 819.036,451.722 822.277,453.647 825.519,455.574 828.76,457.501 832.001,459.429 835.243,461.356 838.484,463.283 841.725,465.208 844.967,467.131 848.208,469.052 851.45,470.97 854.691,472.885 857.932,474.796 861.174,476.704 864.415,478.606 867.657,480.505 870.898,482.398 874.139,484.286 877.381,486.168 880.622,488.045 883.863,489.916 887.105,491.78 890.346,493.638 893.588,495.49 896.829,497.334 900.07,499.172 903.312,501.003 906.553,502.827 909.795,504.644 913.036,506.454 916.277,508.256 919.519,510.052 922.76,511.84 926.001,513.621 929.243,515.394 932.484,517.161 935.726,518.921 938.967,520.673 942.208,522.419 945.45,524.159 948.691,525.891 951.933,527.617 955.174,529.337 958.415,531.051 961.657,532.759 964.898,534.462 968.139,536.159 971.381,537.851 974.622,539.538 977.864,541.22 981.105,542.899 984.346,544.573 987.588,546.244 990.829,547.911 994.071,549.576 997.312,551.238 1000.55,552.898 1003.79,554.556 1007.04,556.213 1010.28,557.869 1013.52,559.525 1016.76,561.181 1020,562.838 1023.24,564.496 1026.48,566.156 1029.73,567.818 1032.97,569.483 1036.21,571.151 1039.45,572.824 1042.69,574.501 1045.93,576.184 1049.17,577.873 1052.42,579.568 1055.66,581.271 1058.9,582.982 1062.14,584.703 1065.38,586.433 1068.62,588.173 1071.86,589.925 1075.11,591.689 1078.35,593.466 1081.59,595.257 1084.83,597.063 1088.07,598.884 1091.31,600.722 1094.55,602.578 1097.79,604.453 1101.04,606.347 1104.28,608.263 1107.52,610.2 1110.76,612.159 1114,614.143 1117.24,616.153 1120.48,618.188 1123.73,620.251 1126.97,622.344 1130.21,624.466 1133.45,626.619 1136.69,628.806 1139.93,631.026 1143.17,633.282 1146.42,635.575 1149.66,637.907 1152.9,640.278 1156.14,642.693 1159.38,645.156 1162.62,647.672 1165.86,650.246 1169.11,652.882 1172.35,655.586 1175.59,658.362 1178.83,661.215 1182.07,664.15 1185.31,667.167 1188.55,670.267 1191.8,673.449 1195.04,676.713 1198.28,680.059 1201.52,683.485 1204.76,686.991 1208,690.575 1211.24,694.237 1214.48,697.975 1217.73,701.789 1220.97,705.679 1224.21,709.643 1227.45,713.681 1230.69,717.792 1233.93,721.975 1237.17,726.232 1240.42,730.559 1243.66,734.958 1246.9,739.425 1250.14,743.956 1253.38,748.548 1256.62,753.198 1259.86,757.903 1263.11,762.658 1266.35,767.462 1269.59,772.31 1272.83,777.2 1276.07,782.129 1279.31,787.093 1282.55,792.088 1285.8,797.113 1289.04,802.164 1292.28,807.238 1295.52,812.331 1298.76,817.441 1302,822.565 1305.24,827.7 1308.48,832.842 1311.73,837.988 1314.97,843.136 1318.21,848.283 1321.45,853.424 1324.69,858.558 1327.93,863.681 1331.17,868.789 1334.42,873.881 1337.66,878.956 1340.9,884.014 1344.14,889.054 1347.38,894.077 1350.62,899.083 1353.86,904.071 1357.11,909.041 1360.35,913.994 1363.59,918.928 1366.83,923.845 1370.07,928.743 1373.31,933.622 1376.55,938.481 1379.8,943.322 1383.04,948.143 1386.28,952.944 1389.52,957.724 1392.76,962.484 1396,967.221 1399.24,971.938 1402.49,976.631 1405.73,981.302 1408.97,985.949 1412.21,990.572 1415.45,995.17 1418.69,999.742 1421.93,1004.29 1425.17,1008.81 1428.42,1013.3 1431.66,1017.76 1434.9,1022.19 1438.14,1026.59 1441.38,1030.96 1444.62,1035.3 1447.86,1039.6 1451.11,1043.87 1454.35,1048.11 1457.59,1052.3 1460.83,1056.46 1464.07,1060.58 1467.31,1064.65 1470.55,1068.69 1473.8,1072.68 1477.04,1076.62 1480.28,1080.52 1483.52,1084.36 1486.76,1088.16 1490,1091.91 1493.24,1095.6 1496.49,1099.23 1499.73,1102.81 1502.97,1106.34 1506.21,1109.81 1509.45,1113.23 1512.69,1116.6 1515.93,1119.92 1519.18,1123.19 1522.42,1126.4 1525.66,1129.56 1528.9,1132.67 1532.14,1135.73 1535.38,1138.73 1538.62,1141.68 1541.86,1144.58 1545.11,1147.42 1548.35,1150.21 1551.59,1152.94 1554.83,1155.62 1558.07,1158.24 1561.31,1160.81 1564.55,1163.33 1567.8,1165.8 1571.04,1168.22 1574.28,1170.59 1577.52,1172.92 1580.76,1175.2 1584,1177.44 1587.24,1179.63 1590.49,1181.78 1593.73,1183.89 1596.97,1185.96 1600.21,1187.99 1603.45,1189.98 1606.69,1191.93 1609.93,1193.84 1613.18,1195.72 1616.42,1197.55 1619.66,1199.36 1622.9,1201.12 1626.14,1202.85 1629.38,1204.55 1632.62,1206.2 1635.86,1207.83 1639.11,1209.42 1642.35,1210.97 1645.59,1212.49 1648.83,1213.98 1652.07,1215.43 1655.31,1216.85 1658.55,1218.23 1661.8,1219.57 1665.04,1220.88 1668.28,1222.16 1671.52,1223.39 1674.76,1224.59 1678,1225.75 1681.24,1226.88 1684.49,1227.96 1687.73,1229 1690.97,1230.01 1694.21,1230.97 1697.45,1231.88 1700.69,1232.76 1703.93,1233.58 1707.18,1234.37 1710.42,1235.1 1713.66,1235.78 1716.9,1236.42 1720.14,1237 1723.38,1237.53 1726.62,1238 1729.87,1238.42 1733.11,1238.77 1736.35,1239.07 1739.59,1239.3 1742.83,1239.48 1746.07,1239.59 1749.31,1239.65 1752.55,1239.65 1755.8,1239.61 1759.04,1239.51 1762.28,1239.36 1765.52,1239.16 1768.76,1238.92 1772,1238.63 1775.24,1238.3 1778.49,1237.93 1781.73,1237.52 1784.97,1237.07 1788.21,1236.58 1791.45,1236.06 1794.69,1235.49 1797.93,1234.9 1801.18,1234.27 1804.42,1233.6 1807.66,1232.91 1810.9,1232.18 1814.14,1231.42 1817.38,1230.63 1820.62,1229.81 1823.87,1228.96 1827.11,1228.08 1830.35,1227.18 1833.59,1226.24 1836.83,1225.28 1840.07,1224.29 1843.31,1223.27 1846.55,1222.22 1849.8,1221.14 1853.04,1220.04 1856.28,1218.91 1859.52,1217.75 1862.76,1216.56 1866,1215.34 1869.24,1214.09 1872.49,1212.81 1875.73,1211.51 1878.97,1210.17 1882.21,1208.8 1885.45,1207.39 1888.69,1205.96 1891.93,1204.49 1895.18,1202.99 1898.42,1201.45 1901.66,1199.87 1904.9,1198.26 1908.14,1196.61 1911.38,1194.92 1914.62,1193.19 1917.87,1191.41 1921.11,1189.6 1924.35,1187.73 1927.59,1185.82 1930.83,1183.87 1934.07,1181.86 1937.31,1179.81 1940.56,1177.71 1943.8,1175.57 1947.04,1173.39 1950.28,1171.16 1953.52,1168.91 1956.76,1166.61 1960,1164.28 1963.24,1161.91 1966.49,1159.51 1969.73,1157.06 1972.97,1154.57 1976.21,1152.02 1979.45,1149.43 1982.69,1146.78 1985.93,1144.08 1989.18,1141.32 1992.42,1138.49 1995.66,1135.6 1998.9,1132.64 2002.14,1129.6 2005.38,1126.49 2008.62,1123.31 2011.87,1120.05 2015.11,1116.73 2018.35,1113.35 2021.59,1109.9 2024.83,1106.39 2028.07,1102.82 2031.31,1099.21 2034.56,1095.54 2037.8,1091.82 2041.04,1088.05 2044.28,1084.24 2047.52,1080.39 2050.76,1076.5 2054,1072.57 2057.24,1068.6 2060.49,1064.61 2063.73,1060.57 2066.97,1056.52 2070.21,1052.43 2073.45,1048.31 2076.69,1044.18 2079.93,1040.02 2083.18,1035.84 2086.42,1031.64 2089.66,1027.43 2092.9,1023.2 2096.14,1018.95 2099.38,1014.7 2102.62,1010.44 2105.87,1006.17 2109.11,1001.9 2112.35,997.625 2115.59,993.348 2118.83,989.072 2122.07,984.799 2125.31,980.53 2128.56,976.266 2131.8,972.011 2135.04,967.765 2138.28,963.531 2141.52,959.309 2144.76,955.102 2148,950.912 2151.25,946.739 2154.49,942.586 2157.73,938.454 2160.97,934.345 2164.21,930.261 2167.45,926.203 2170.69,922.173 2173.93,918.173 2177.18,914.204 2180.42,910.268 2183.66,906.366 2186.9,902.5 2190.14,898.673 2193.38,894.885 2196.62,891.138 2199.87,887.434 2203.11,883.775 2206.35,880.162 2209.59,876.598 2212.83,873.084 2216.07,869.621 2219.31,866.212 2222.56,862.858 2225.8,859.562 2229.04,856.324 2232.28,853.148 2235.52,850.035 2238.76,846.986 2242,844.005 2245.25,841.093 2248.49,838.251 2251.73,835.483 2254.97,832.79 2258.21,830.173 2261.45,827.63 2264.69,825.156 2267.94,822.747 2271.18,820.401 2274.42,818.114 2277.66,815.886 2280.9,813.716 2284.14,811.602 2287.38,809.542 2290.62,807.536 "/>
<polyline clip-path="url(#clip911)" style="stroke:#c271d2; stroke-linecap:round; stroke-linejoin:round; stroke-width:12; stroke-opacity:1; fill:none" points="255.035,895.075 362.225,775.017 469.416,668.682 576.607,574.155 683.797,573.387 790.988,668.28 898.179,741.362 1005.37,762.028 1112.56,740.426 1219.75,798.65 1326.94,983.874 1434.13,1144.41 1541.32,1245.46 1648.51,1338.03 1755.7,1377.8 1862.89,1345.06 1970.09,1252.39 2077.28,1162.81 2184.47,1036.93 2291.66,949.265 "/>
<polyline clip-path="url(#clip911)" style="stroke:#ac8d18; stroke-linecap:round; stroke-linejoin:round; stroke-width:12; stroke-opacity:1; fill:none" points="255.035,409.25 362.225,408.534 469.416,333.787 576.607,242.14 683.797,198.073 790.988,202.184 898.179,254.839 1005.37,348.694 1112.56,486.09 1219.75,609.769 1326.94,740.354 1434.13,897.886 1541.32,1042.73 1648.51,1089.65 1755.7,1101.41 1862.89,1087.96 1970.09,1061.18 2077.28,924.058 2184.47,773.87 2291.66,664.551 "/>
<path clip-path="url(#clip910)" d="M1953.46 406.258 L2280.8 406.258 L2280.8 95.2176 L1953.46 95.2176  Z" fill="#ffffff" fill-rule="evenodd" fill-opacity="1"/>
<polyline clip-path="url(#clip910)" style="stroke:#000000; stroke-linecap:round; stroke-linejoin:round; stroke-width:4; stroke-opacity:1; fill:none" points="1953.46,406.258 2280.8,406.258 2280.8,95.2176 1953.46,95.2176 1953.46,406.258 "/>
<polyline clip-path="url(#clip910)" style="stroke:#009af9; stroke-linecap:round; stroke-linejoin:round; stroke-width:4; stroke-opacity:1; fill:none" points="1977.44,147.058 2121.36,147.058 "/>
<path clip-path="url(#clip910)" d="M2152.76 131.051 L2152.76 138.412 L2161.53 138.412 L2161.53 141.722 L2152.76 141.722 L2152.76 155.796 Q2152.76 158.967 2153.61 159.87 Q2154.49 160.773 2157.16 160.773 L2161.53 160.773 L2161.53 164.338 L2157.16 164.338 Q2152.23 164.338 2150.35 162.509 Q2148.48 160.657 2148.48 155.796 L2148.48 141.722 L2145.35 141.722 L2145.35 138.412 L2148.48 138.412 L2148.48 131.051 L2152.76 131.051 Z" fill="#000000" fill-rule="nonzero" fill-opacity="1" /><path clip-path="url(#clip910)" d="M2182.16 142.393 Q2181.44 141.977 2180.58 141.791 Q2179.75 141.583 2178.73 141.583 Q2175.12 141.583 2173.17 143.944 Q2171.25 146.282 2171.25 150.68 L2171.25 164.338 L2166.97 164.338 L2166.97 138.412 L2171.25 138.412 L2171.25 142.44 Q2172.6 140.078 2174.75 138.944 Q2176.9 137.787 2179.98 137.787 Q2180.42 137.787 2180.95 137.856 Q2181.48 137.903 2182.13 138.018 L2182.16 142.393 Z" fill="#000000" fill-rule="nonzero" fill-opacity="1" /><path clip-path="url(#clip910)" d="M2186.18 154.106 L2186.18 138.412 L2190.44 138.412 L2190.44 153.944 Q2190.44 157.625 2191.88 159.476 Q2193.31 161.305 2196.18 161.305 Q2199.63 161.305 2201.62 159.106 Q2203.64 156.907 2203.64 153.111 L2203.64 138.412 L2207.9 138.412 L2207.9 164.338 L2203.64 164.338 L2203.64 160.356 Q2202.09 162.717 2200.03 163.875 Q2197.99 165.009 2195.28 165.009 Q2190.81 165.009 2188.5 162.231 Q2186.18 159.453 2186.18 154.106 M2196.9 137.787 L2196.9 137.787 Z" fill="#000000" fill-rule="nonzero" fill-opacity="1" /><path clip-path="url(#clip910)" d="M2220.88 131.051 L2220.88 138.412 L2229.66 138.412 L2229.66 141.722 L2220.88 141.722 L2220.88 155.796 Q2220.88 158.967 2221.74 159.87 Q2222.62 160.773 2225.28 160.773 L2229.66 160.773 L2229.66 164.338 L2225.28 164.338 Q2220.35 164.338 2218.48 162.509 Q2216.6 160.657 2216.6 155.796 L2216.6 141.722 L2213.48 141.722 L2213.48 138.412 L2216.6 138.412 L2216.6 131.051 L2220.88 131.051 Z" fill="#000000" fill-rule="nonzero" fill-opacity="1" /><path clip-path="url(#clip910)" d="M2256.81 148.689 L2256.81 164.338 L2252.55 164.338 L2252.55 148.828 Q2252.55 145.148 2251.11 143.319 Q2249.68 141.49 2246.81 141.49 Q2243.36 141.49 2241.37 143.69 Q2239.38 145.889 2239.38 149.685 L2239.38 164.338 L2235.1 164.338 L2235.1 128.319 L2239.38 128.319 L2239.38 142.44 Q2240.91 140.102 2242.97 138.944 Q2245.05 137.787 2247.76 137.787 Q2252.23 137.787 2254.52 140.565 Q2256.81 143.319 2256.81 148.689 Z" fill="#000000" fill-rule="nonzero" fill-opacity="1" /><circle clip-path="url(#clip910)" cx="2049.4" cy="198.898" r="20.48" fill="#e26f46" fill-rule="evenodd" fill-opacity="1" stroke="#000000" stroke-opacity="1" stroke-width="4.55111"/>
<path clip-path="url(#clip910)" d="M2164.26 194.187 L2164.26 180.159 L2168.52 180.159 L2168.52 216.178 L2164.26 216.178 L2164.26 212.289 Q2162.92 214.603 2160.86 215.738 Q2158.82 216.849 2155.95 216.849 Q2151.25 216.849 2148.29 213.099 Q2145.35 209.349 2145.35 203.238 Q2145.35 197.127 2148.29 193.377 Q2151.25 189.627 2155.95 189.627 Q2158.82 189.627 2160.86 190.761 Q2162.92 191.872 2164.26 194.187 M2149.75 203.238 Q2149.75 207.937 2151.67 210.622 Q2153.61 213.284 2156.99 213.284 Q2160.37 213.284 2162.32 210.622 Q2164.26 207.937 2164.26 203.238 Q2164.26 198.539 2162.32 195.877 Q2160.37 193.192 2156.99 193.192 Q2153.61 193.192 2151.67 195.877 Q2149.75 198.539 2149.75 203.238 Z" fill="#000000" fill-rule="nonzero" fill-opacity="1" /><path clip-path="url(#clip910)" d="M2189.08 203.145 Q2183.92 203.145 2181.92 204.326 Q2179.93 205.506 2179.93 208.354 Q2179.93 210.622 2181.42 211.965 Q2182.92 213.284 2185.49 213.284 Q2189.03 213.284 2191.16 210.784 Q2193.31 208.261 2193.31 204.094 L2193.31 203.145 L2189.08 203.145 M2197.57 201.386 L2197.57 216.178 L2193.31 216.178 L2193.31 212.242 Q2191.85 214.603 2189.68 215.738 Q2187.5 216.849 2184.36 216.849 Q2180.37 216.849 2178.01 214.627 Q2175.67 212.381 2175.67 208.631 Q2175.67 204.256 2178.59 202.034 Q2181.53 199.812 2187.34 199.812 L2193.31 199.812 L2193.31 199.395 Q2193.31 196.455 2191.37 194.858 Q2189.45 193.238 2185.95 193.238 Q2183.73 193.238 2181.62 193.77 Q2179.52 194.303 2177.57 195.367 L2177.57 191.432 Q2179.91 190.53 2182.11 190.09 Q2184.31 189.627 2186.39 189.627 Q2192.02 189.627 2194.79 192.543 Q2197.57 195.46 2197.57 201.386 Z" fill="#000000" fill-rule="nonzero" fill-opacity="1" /><path clip-path="url(#clip910)" d="M2210.56 182.891 L2210.56 190.252 L2219.33 190.252 L2219.33 193.562 L2210.56 193.562 L2210.56 207.636 Q2210.56 210.807 2211.42 211.71 Q2212.29 212.613 2214.96 212.613 L2219.33 212.613 L2219.33 216.178 L2214.96 216.178 Q2210.03 216.178 2208.15 214.349 Q2206.28 212.497 2206.28 207.636 L2206.28 193.562 L2203.15 193.562 L2203.15 190.252 L2206.28 190.252 L2206.28 182.891 L2210.56 182.891 Z" fill="#000000" fill-rule="nonzero" fill-opacity="1" /><path clip-path="url(#clip910)" d="M2236.72 203.145 Q2231.55 203.145 2229.56 204.326 Q2227.57 205.506 2227.57 208.354 Q2227.57 210.622 2229.05 211.965 Q2230.56 213.284 2233.13 213.284 Q2236.67 213.284 2238.8 210.784 Q2240.95 208.261 2240.95 204.094 L2240.95 203.145 L2236.72 203.145 M2245.21 201.386 L2245.21 216.178 L2240.95 216.178 L2240.95 212.242 Q2239.49 214.603 2237.32 215.738 Q2235.14 216.849 2231.99 216.849 Q2228.01 216.849 2225.65 214.627 Q2223.31 212.381 2223.31 208.631 Q2223.31 204.256 2226.23 202.034 Q2229.17 199.812 2234.98 199.812 L2240.95 199.812 L2240.95 199.395 Q2240.95 196.455 2239.01 194.858 Q2237.09 193.238 2233.59 193.238 Q2231.37 193.238 2229.26 193.77 Q2227.16 194.303 2225.21 195.367 L2225.21 191.432 Q2227.55 190.53 2229.75 190.09 Q2231.95 189.627 2234.03 189.627 Q2239.66 189.627 2242.43 192.543 Q2245.21 195.46 2245.21 201.386 Z" fill="#000000" fill-rule="nonzero" fill-opacity="1" /><polyline clip-path="url(#clip910)" style="stroke:#3da44d; stroke-linecap:round; stroke-linejoin:round; stroke-width:8; stroke-opacity:1; fill:none" points="1977.44,250.738 2121.36,250.738 "/>
<path clip-path="url(#clip910)" d="M2170.91 263.087 L2170.91 253.805 L2163.27 253.805 L2163.27 249.962 L2175.54 249.962 L2175.54 264.8 Q2172.83 266.721 2169.56 267.717 Q2166.3 268.689 2162.6 268.689 Q2154.49 268.689 2149.91 263.967 Q2145.35 259.221 2145.35 250.772 Q2145.35 242.3 2149.91 237.578 Q2154.49 232.833 2162.6 232.833 Q2165.98 232.833 2169.01 233.666 Q2172.06 234.499 2174.63 236.12 L2174.63 241.096 Q2172.04 238.897 2169.12 237.786 Q2166.21 236.675 2162.99 236.675 Q2156.65 236.675 2153.45 240.217 Q2150.28 243.758 2150.28 250.772 Q2150.28 257.763 2153.45 261.305 Q2156.65 264.846 2162.99 264.846 Q2165.47 264.846 2167.41 264.43 Q2169.36 263.99 2170.91 263.087 Z" fill="#000000" fill-rule="nonzero" fill-opacity="1" /><path clip-path="url(#clip910)" d="M2188.75 237.3 L2188.75 250.286 L2194.63 250.286 Q2197.9 250.286 2199.68 248.596 Q2201.46 246.907 2201.46 243.782 Q2201.46 240.68 2199.68 238.99 Q2197.9 237.3 2194.63 237.3 L2188.75 237.3 M2184.08 233.458 L2194.63 233.458 Q2200.44 233.458 2203.41 236.096 Q2206.39 238.712 2206.39 243.782 Q2206.39 248.897 2203.41 251.513 Q2200.44 254.129 2194.63 254.129 L2188.75 254.129 L2188.75 268.018 L2184.08 268.018 L2184.08 233.458 Z" fill="#000000" fill-rule="nonzero" fill-opacity="1" /><polyline clip-path="url(#clip910)" style="stroke:#c271d2; stroke-linecap:round; stroke-linejoin:round; stroke-width:12; stroke-opacity:1; fill:none" points="1977.44,302.578 2121.36,302.578 "/>
<path clip-path="url(#clip910)" d="M2150.03 289.14 L2150.03 302.126 L2155.91 302.126 Q2159.17 302.126 2160.95 300.436 Q2162.73 298.747 2162.73 295.622 Q2162.73 292.52 2160.95 290.83 Q2159.17 289.14 2155.91 289.14 L2150.03 289.14 M2145.35 285.298 L2155.91 285.298 Q2161.72 285.298 2164.68 287.936 Q2167.67 290.552 2167.67 295.622 Q2167.67 300.737 2164.68 303.353 Q2161.72 305.969 2155.91 305.969 L2150.03 305.969 L2150.03 319.858 L2145.35 319.858 L2145.35 285.298 Z" fill="#000000" fill-rule="nonzero" fill-opacity="1" /><path clip-path="url(#clip910)" d="M2178.38 315.922 L2194.7 315.922 L2194.7 319.858 L2172.76 319.858 L2172.76 315.922 Q2175.42 313.168 2180 308.538 Q2184.61 303.885 2185.79 302.543 Q2188.04 300.02 2188.92 298.284 Q2189.82 296.524 2189.82 294.835 Q2189.82 292.08 2187.87 290.344 Q2185.95 288.608 2182.85 288.608 Q2180.65 288.608 2178.2 289.372 Q2175.77 290.135 2172.99 291.686 L2172.99 286.964 Q2175.81 285.83 2178.27 285.251 Q2180.72 284.673 2182.76 284.673 Q2188.13 284.673 2191.32 287.358 Q2194.52 290.043 2194.52 294.534 Q2194.52 296.663 2193.71 298.585 Q2192.92 300.483 2190.81 303.075 Q2190.23 303.747 2187.13 306.964 Q2184.03 310.159 2178.38 315.922 Z" fill="#000000" fill-rule="nonzero" fill-opacity="1" /><path clip-path="url(#clip910)" d="M2204.56 285.298 L2222.92 285.298 L2222.92 289.233 L2208.85 289.233 L2208.85 297.705 Q2209.86 297.358 2210.88 297.196 Q2211.9 297.01 2212.92 297.01 Q2218.71 297.01 2222.09 300.182 Q2225.47 303.353 2225.47 308.77 Q2225.47 314.348 2221.99 317.45 Q2218.52 320.529 2212.2 320.529 Q2210.03 320.529 2207.76 320.158 Q2205.51 319.788 2203.1 319.047 L2203.1 314.348 Q2205.19 315.483 2207.41 316.038 Q2209.63 316.594 2212.11 316.594 Q2216.11 316.594 2218.45 314.487 Q2220.79 312.381 2220.79 308.77 Q2220.79 305.159 2218.45 303.052 Q2216.11 300.946 2212.11 300.946 Q2210.23 300.946 2208.36 301.362 Q2206.51 301.779 2204.56 302.659 L2204.56 285.298 Z" fill="#000000" fill-rule="nonzero" fill-opacity="1" /><polyline clip-path="url(#clip910)" style="stroke:#ac8d18; stroke-linecap:round; stroke-linejoin:round; stroke-width:12; stroke-opacity:1; fill:none" points="1977.44,354.418 2121.36,354.418 "/>
<path clip-path="url(#clip910)" d="M2150.03 340.98 L2150.03 353.966 L2155.91 353.966 Q2159.17 353.966 2160.95 352.276 Q2162.73 350.587 2162.73 347.462 Q2162.73 344.36 2160.95 342.67 Q2159.17 340.98 2155.91 340.98 L2150.03 340.98 M2145.35 337.138 L2155.91 337.138 Q2161.72 337.138 2164.68 339.776 Q2167.67 342.392 2167.67 347.462 Q2167.67 352.577 2164.68 355.193 Q2161.72 357.809 2155.91 357.809 L2150.03 357.809 L2150.03 371.698 L2145.35 371.698 L2145.35 337.138 Z" fill="#000000" fill-rule="nonzero" fill-opacity="1" /><path clip-path="url(#clip910)" d="M2173.17 337.138 L2195.4 337.138 L2195.4 339.128 L2182.85 371.698 L2177.97 371.698 L2189.77 341.073 L2173.17 341.073 L2173.17 337.138 Z" fill="#000000" fill-rule="nonzero" fill-opacity="1" /><path clip-path="url(#clip910)" d="M2204.56 337.138 L2222.92 337.138 L2222.92 341.073 L2208.85 341.073 L2208.85 349.545 Q2209.86 349.198 2210.88 349.036 Q2211.9 348.85 2212.92 348.85 Q2218.71 348.85 2222.09 352.022 Q2225.47 355.193 2225.47 360.61 Q2225.47 366.188 2221.99 369.29 Q2218.52 372.369 2212.2 372.369 Q2210.03 372.369 2207.76 371.998 Q2205.51 371.628 2203.1 370.887 L2203.1 366.188 Q2205.19 367.323 2207.41 367.878 Q2209.63 368.434 2212.11 368.434 Q2216.11 368.434 2218.45 366.327 Q2220.79 364.221 2220.79 360.61 Q2220.79 356.999 2218.45 354.892 Q2216.11 352.786 2212.11 352.786 Q2210.23 352.786 2208.36 353.202 Q2206.51 353.619 2204.56 354.499 L2204.56 337.138 Z" fill="#000000" fill-rule="nonzero" fill-opacity="1" /></svg>
