<?xml version="1.0" encoding="utf-8"?>
<svg xmlns="http://www.w3.org/2000/svg" xmlns:xlink="http://www.w3.org/1999/xlink" width="600" height="400" viewBox="0 0 2400 1600">
<defs>
  <clipPath id="clip850">
    <rect x="0" y="0" width="2400" height="1600"/>
  </clipPath>
</defs>
<path clip-path="url(#clip850)" d="M0 1600 L2400 1600 L2400 0 L0 0  Z" fill="#ffffff" fill-rule="evenodd" fill-opacity="1"/>
<defs>
  <clipPath id="clip851">
    <rect x="193" y="47" width="2160" height="1440"/>
  </clipPath>
</defs>
<path clip-path="url(#clip850)" d="M193.936 1486.45 L2352.76 1486.45 L2352.76 47.2441 L193.936 47.2441  Z" fill="#ffffff" fill-rule="evenodd" fill-opacity="1"/>
<polyline clip-path="url(#clip851)" style="stroke:#000000; stroke-linecap:round; stroke-linejoin:round; stroke-width:2; stroke-opacity:0.1; fill:none" points="255.035,1486.45 255.035,47.2441 "/>
<polyline clip-path="url(#clip851)" style="stroke:#000000; stroke-linecap:round; stroke-linejoin:round; stroke-width:2; stroke-opacity:0.1; fill:none" points="579.338,1486.45 579.338,47.2441 "/>
<polyline clip-path="url(#clip851)" style="stroke:#000000; stroke-linecap:round; stroke-linejoin:round; stroke-width:2; stroke-opacity:0.1; fill:none" points="903.641,1486.45 903.641,47.2441 "/>
<polyline clip-path="url(#clip851)" style="stroke:#000000; stroke-linecap:round; stroke-linejoin:round; stroke-width:2; stroke-opacity:0.1; fill:none" points="1227.94,1486.45 1227.94,47.2441 "/>
<polyline clip-path="url(#clip851)" style="stroke:#000000; stroke-linecap:round; stroke-linejoin:round; stroke-width:2; stroke-opacity:0.1; fill:none" points="1552.25,1486.45 1552.25,47.2441 "/>
<polyline clip-path="url(#clip851)" style="stroke:#000000; stroke-linecap:round; stroke-linejoin:round; stroke-width:2; stroke-opacity:0.1; fill:none" points="1876.55,1486.45 1876.55,47.2441 "/>
<polyline clip-path="url(#clip851)" style="stroke:#000000; stroke-linecap:round; stroke-linejoin:round; stroke-width:2; stroke-opacity:0.1; fill:none" points="2200.85,1486.45 2200.85,47.2441 "/>
<polyline clip-path="url(#clip851)" style="stroke:#000000; stroke-linecap:round; stroke-linejoin:round; stroke-width:2; stroke-opacity:0.1; fill:none" points="193.936,1359.69 2352.76,1359.69 "/>
<polyline clip-path="url(#clip851)" style="stroke:#000000; stroke-linecap:round; stroke-linejoin:round; stroke-width:2; stroke-opacity:0.1; fill:none" points="193.936,1052.33 2352.76,1052.33 "/>
<polyline clip-path="url(#clip851)" style="stroke:#000000; stroke-linecap:round; stroke-linejoin:round; stroke-width:2; stroke-opacity:0.1; fill:none" points="193.936,744.963 2352.76,744.963 "/>
<polyline clip-path="url(#clip851)" style="stroke:#000000; stroke-linecap:round; stroke-linejoin:round; stroke-width:2; stroke-opacity:0.1; fill:none" points="193.936,437.598 2352.76,437.598 "/>
<polyline clip-path="url(#clip851)" style="stroke:#000000; stroke-linecap:round; stroke-linejoin:round; stroke-width:2; stroke-opacity:0.1; fill:none" points="193.936,130.233 2352.76,130.233 "/>
<polyline clip-path="url(#clip850)" style="stroke:#000000; stroke-linecap:round; stroke-linejoin:round; stroke-width:4; stroke-opacity:1; fill:none" points="193.936,1486.45 2352.76,1486.45 "/>
<polyline clip-path="url(#clip850)" style="stroke:#000000; stroke-linecap:round; stroke-linejoin:round; stroke-width:4; stroke-opacity:1; fill:none" points="255.035,1486.45 255.035,1467.55 "/>
<polyline clip-path="url(#clip850)" style="stroke:#000000; stroke-linecap:round; stroke-linejoin:round; stroke-width:4; stroke-opacity:1; fill:none" points="579.338,1486.45 579.338,1467.55 "/>
<polyline clip-path="url(#clip850)" style="stroke:#000000; stroke-linecap:round; stroke-linejoin:round; stroke-width:4; stroke-opacity:1; fill:none" points="903.641,1486.45 903.641,1467.55 "/>
<polyline clip-path="url(#clip850)" style="stroke:#000000; stroke-linecap:round; stroke-linejoin:round; stroke-width:4; stroke-opacity:1; fill:none" points="1227.94,1486.45 1227.94,1467.55 "/>
<polyline clip-path="url(#clip850)" style="stroke:#000000; stroke-linecap:round; stroke-linejoin:round; stroke-width:4; stroke-opacity:1; fill:none" points="1552.25,1486.45 1552.25,1467.55 "/>
<polyline clip-path="url(#clip850)" style="stroke:#000000; stroke-linecap:round; stroke-linejoin:round; stroke-width:4; stroke-opacity:1; fill:none" points="1876.55,1486.45 1876.55,1467.55 "/>
<polyline clip-path="url(#clip850)" style="stroke:#000000; stroke-linecap:round; stroke-linejoin:round; stroke-width:4; stroke-opacity:1; fill:none" points="2200.85,1486.45 2200.85,1467.55 "/>
<path clip-path="url(#clip850)" d="M255.035 1517.37 Q251.424 1517.37 249.595 1520.93 Q247.789 1524.47 247.789 1531.6 Q247.789 1538.71 249.595 1542.27 Q251.424 1545.82 255.035 1545.82 Q258.669 1545.82 260.474 1542.27 Q262.303 1538.71 262.303 1531.6 Q262.303 1524.47 260.474 1520.93 Q258.669 1517.37 255.035 1517.37 M255.035 1513.66 Q260.845 1513.66 263.9 1518.27 Q266.979 1522.85 266.979 1531.6 Q266.979 1540.33 263.9 1544.94 Q260.845 1549.52 255.035 1549.52 Q249.225 1549.52 246.146 1544.94 Q243.09 1540.33 243.09 1531.6 Q243.09 1522.85 246.146 1518.27 Q249.225 1513.66 255.035 1513.66 Z" fill="#000000" fill-rule="nonzero" fill-opacity="1" /><path clip-path="url(#clip850)" d="M569.72 1544.91 L577.358 1544.91 L577.358 1518.55 L569.048 1520.21 L569.048 1515.95 L577.312 1514.29 L581.988 1514.29 L581.988 1544.91 L589.627 1544.91 L589.627 1548.85 L569.72 1548.85 L569.72 1544.91 Z" fill="#000000" fill-rule="nonzero" fill-opacity="1" /><path clip-path="url(#clip850)" d="M898.293 1544.91 L914.613 1544.91 L914.613 1548.85 L892.668 1548.85 L892.668 1544.91 Q895.33 1542.16 899.914 1537.53 Q904.52 1532.88 905.701 1531.53 Q907.946 1529.01 908.826 1527.27 Q909.729 1525.51 909.729 1523.82 Q909.729 1521.07 907.784 1519.33 Q905.863 1517.6 902.761 1517.6 Q900.562 1517.6 898.108 1518.36 Q895.678 1519.13 892.9 1520.68 L892.9 1515.95 Q895.724 1514.82 898.178 1514.24 Q900.631 1513.66 902.668 1513.66 Q908.039 1513.66 911.233 1516.35 Q914.428 1519.03 914.428 1523.52 Q914.428 1525.65 913.617 1527.57 Q912.83 1529.47 910.724 1532.07 Q910.145 1532.74 907.043 1535.95 Q903.942 1539.15 898.293 1544.91 Z" fill="#000000" fill-rule="nonzero" fill-opacity="1" /><path clip-path="url(#clip850)" d="M1232.19 1530.21 Q1235.55 1530.93 1237.42 1533.2 Q1239.32 1535.47 1239.32 1538.8 Q1239.32 1543.92 1235.8 1546.72 Q1232.28 1549.52 1225.8 1549.52 Q1223.63 1549.52 1221.31 1549.08 Q1219.02 1548.66 1216.57 1547.81 L1216.57 1543.29 Q1218.51 1544.43 1220.83 1545.01 Q1223.14 1545.58 1225.66 1545.58 Q1230.06 1545.58 1232.35 1543.85 Q1234.67 1542.11 1234.67 1538.8 Q1234.67 1535.75 1232.52 1534.03 Q1230.39 1532.3 1226.57 1532.3 L1222.54 1532.3 L1222.54 1528.45 L1226.75 1528.45 Q1230.2 1528.45 1232.03 1527.09 Q1233.86 1525.7 1233.86 1523.11 Q1233.86 1520.45 1231.96 1519.03 Q1230.08 1517.6 1226.57 1517.6 Q1224.64 1517.6 1222.45 1518.01 Q1220.25 1518.43 1217.61 1519.31 L1217.61 1515.14 Q1220.27 1514.4 1222.58 1514.03 Q1224.92 1513.66 1226.98 1513.66 Q1232.31 1513.66 1235.41 1516.09 Q1238.51 1518.5 1238.51 1522.62 Q1238.51 1525.49 1236.87 1527.48 Q1235.22 1529.45 1232.19 1530.21 Z" fill="#000000" fill-rule="nonzero" fill-opacity="1" /><path clip-path="url(#clip850)" d="M1555.26 1518.36 L1543.45 1536.81 L1555.26 1536.81 L1555.26 1518.36 M1554.03 1514.29 L1559.91 1514.29 L1559.91 1536.81 L1564.84 1536.81 L1564.84 1540.7 L1559.91 1540.7 L1559.91 1548.85 L1555.26 1548.85 L1555.26 1540.7 L1539.65 1540.7 L1539.65 1536.19 L1554.03 1514.29 Z" fill="#000000" fill-rule="nonzero" fill-opacity="1" /><path clip-path="url(#clip850)" d="M1866.83 1514.29 L1885.18 1514.29 L1885.18 1518.22 L1871.11 1518.22 L1871.11 1526.7 Q1872.13 1526.35 1873.15 1526.19 Q1874.17 1526 1875.18 1526 Q1880.97 1526 1884.35 1529.17 Q1887.73 1532.34 1887.73 1537.76 Q1887.73 1543.34 1884.26 1546.44 Q1880.79 1549.52 1874.47 1549.52 Q1872.29 1549.52 1870.02 1549.15 Q1867.78 1548.78 1865.37 1548.04 L1865.37 1543.34 Q1867.45 1544.47 1869.67 1545.03 Q1871.9 1545.58 1874.37 1545.58 Q1878.38 1545.58 1880.72 1543.48 Q1883.05 1541.37 1883.05 1537.76 Q1883.05 1534.15 1880.72 1532.04 Q1878.38 1529.94 1874.37 1529.94 Q1872.5 1529.94 1870.62 1530.35 Q1868.77 1530.77 1866.83 1531.65 L1866.83 1514.29 Z" fill="#000000" fill-rule="nonzero" fill-opacity="1" /><path clip-path="url(#clip850)" d="M2201.26 1529.7 Q2198.11 1529.7 2196.26 1531.86 Q2194.43 1534.01 2194.43 1537.76 Q2194.43 1541.49 2196.26 1543.66 Q2198.11 1545.82 2201.26 1545.82 Q2204.41 1545.82 2206.23 1543.66 Q2208.09 1541.49 2208.09 1537.76 Q2208.09 1534.01 2206.23 1531.86 Q2204.41 1529.7 2201.26 1529.7 M2210.54 1515.05 L2210.54 1519.31 Q2208.78 1518.48 2206.98 1518.04 Q2205.19 1517.6 2203.43 1517.6 Q2198.8 1517.6 2196.35 1520.72 Q2193.92 1523.85 2193.57 1530.17 Q2194.94 1528.15 2197 1527.09 Q2199.06 1526 2201.54 1526 Q2206.74 1526 2209.75 1529.17 Q2212.79 1532.32 2212.79 1537.76 Q2212.79 1543.08 2209.64 1546.3 Q2206.49 1549.52 2201.26 1549.52 Q2195.26 1549.52 2192.09 1544.94 Q2188.92 1540.33 2188.92 1531.6 Q2188.92 1523.41 2192.81 1518.55 Q2196.7 1513.66 2203.25 1513.66 Q2205.01 1513.66 2206.79 1514.01 Q2208.6 1514.36 2210.54 1515.05 Z" fill="#000000" fill-rule="nonzero" fill-opacity="1" /><polyline clip-path="url(#clip850)" style="stroke:#000000; stroke-linecap:round; stroke-linejoin:round; stroke-width:4; stroke-opacity:1; fill:none" points="193.936,1486.45 193.936,47.2441 "/>
<polyline clip-path="url(#clip850)" style="stroke:#000000; stroke-linecap:round; stroke-linejoin:round; stroke-width:4; stroke-opacity:1; fill:none" points="193.936,1359.69 212.834,1359.69 "/>
<polyline clip-path="url(#clip850)" style="stroke:#000000; stroke-linecap:round; stroke-linejoin:round; stroke-width:4; stroke-opacity:1; fill:none" points="193.936,1052.33 212.834,1052.33 "/>
<polyline clip-path="url(#clip850)" style="stroke:#000000; stroke-linecap:round; stroke-linejoin:round; stroke-width:4; stroke-opacity:1; fill:none" points="193.936,744.963 212.834,744.963 "/>
<polyline clip-path="url(#clip850)" style="stroke:#000000; stroke-linecap:round; stroke-linejoin:round; stroke-width:4; stroke-opacity:1; fill:none" points="193.936,437.598 212.834,437.598 "/>
<polyline clip-path="url(#clip850)" style="stroke:#000000; stroke-linecap:round; stroke-linejoin:round; stroke-width:4; stroke-opacity:1; fill:none" points="193.936,130.233 212.834,130.233 "/>
<path clip-path="url(#clip850)" d="M50.9921 1360.15 L80.6679 1360.15 L80.6679 1364.08 L50.9921 1364.08 L50.9921 1360.15 Z" fill="#000000" fill-rule="nonzero" fill-opacity="1" /><path clip-path="url(#clip850)" d="M91.5706 1373.04 L99.2095 1373.04 L99.2095 1346.67 L90.8993 1348.34 L90.8993 1344.08 L99.1632 1342.41 L103.839 1342.41 L103.839 1373.04 L111.478 1373.04 L111.478 1376.97 L91.5706 1376.97 L91.5706 1373.04 Z" fill="#000000" fill-rule="nonzero" fill-opacity="1" /><path clip-path="url(#clip850)" d="M120.922 1371.09 L125.807 1371.09 L125.807 1376.97 L120.922 1376.97 L120.922 1371.09 Z" fill="#000000" fill-rule="nonzero" fill-opacity="1" /><path clip-path="url(#clip850)" d="M145.992 1345.49 Q142.381 1345.49 140.552 1349.06 Q138.746 1352.6 138.746 1359.73 Q138.746 1366.84 140.552 1370.4 Q142.381 1373.94 145.992 1373.94 Q149.626 1373.94 151.431 1370.4 Q153.26 1366.84 153.26 1359.73 Q153.26 1352.6 151.431 1349.06 Q149.626 1345.49 145.992 1345.49 M145.992 1341.79 Q151.802 1341.79 154.857 1346.4 Q157.936 1350.98 157.936 1359.73 Q157.936 1368.46 154.857 1373.06 Q151.802 1377.65 145.992 1377.65 Q140.181 1377.65 137.103 1373.06 Q134.047 1368.46 134.047 1359.73 Q134.047 1350.98 137.103 1346.4 Q140.181 1341.79 145.992 1341.79 Z" fill="#000000" fill-rule="nonzero" fill-opacity="1" /><path clip-path="url(#clip850)" d="M51.9875 1052.78 L81.6633 1052.78 L81.6633 1056.72 L51.9875 1056.72 L51.9875 1052.78 Z" fill="#000000" fill-rule="nonzero" fill-opacity="1" /><path clip-path="url(#clip850)" d="M101.756 1038.13 Q98.1447 1038.13 96.316 1041.69 Q94.5104 1045.23 94.5104 1052.36 Q94.5104 1059.47 96.316 1063.03 Q98.1447 1066.58 101.756 1066.58 Q105.39 1066.58 107.196 1063.03 Q109.024 1059.47 109.024 1052.36 Q109.024 1045.23 107.196 1041.69 Q105.39 1038.13 101.756 1038.13 M101.756 1034.42 Q107.566 1034.42 110.621 1039.03 Q113.7 1043.61 113.7 1052.36 Q113.7 1061.09 110.621 1065.7 Q107.566 1070.28 101.756 1070.28 Q95.9456 1070.28 92.8669 1065.7 Q89.8114 1061.09 89.8114 1052.36 Q89.8114 1043.61 92.8669 1039.03 Q95.9456 1034.42 101.756 1034.42 Z" fill="#000000" fill-rule="nonzero" fill-opacity="1" /><path clip-path="url(#clip850)" d="M121.918 1063.73 L126.802 1063.73 L126.802 1069.61 L121.918 1069.61 L121.918 1063.73 Z" fill="#000000" fill-rule="nonzero" fill-opacity="1" /><path clip-path="url(#clip850)" d="M137.033 1035.05 L155.39 1035.05 L155.39 1038.98 L141.316 1038.98 L141.316 1047.46 Q142.334 1047.11 143.353 1046.95 Q144.371 1046.76 145.39 1046.76 Q151.177 1046.76 154.556 1049.93 Q157.936 1053.1 157.936 1058.52 Q157.936 1064.1 154.464 1067.2 Q150.992 1070.28 144.672 1070.28 Q142.496 1070.28 140.228 1069.91 Q137.982 1069.54 135.575 1068.8 L135.575 1064.1 Q137.658 1065.23 139.881 1065.79 Q142.103 1066.34 144.58 1066.34 Q148.584 1066.34 150.922 1064.24 Q153.26 1062.13 153.26 1058.52 Q153.26 1054.91 150.922 1052.8 Q148.584 1050.7 144.58 1050.7 Q142.705 1050.7 140.83 1051.11 Q138.978 1051.53 137.033 1052.41 L137.033 1035.05 Z" fill="#000000" fill-rule="nonzero" fill-opacity="1" /><path clip-path="url(#clip850)" d="M100.76 730.762 Q97.1493 730.762 95.3206 734.327 Q93.515 737.869 93.515 744.998 Q93.515 752.105 95.3206 755.669 Q97.1493 759.211 100.76 759.211 Q104.395 759.211 106.2 755.669 Q108.029 752.105 108.029 744.998 Q108.029 737.869 106.2 734.327 Q104.395 730.762 100.76 730.762 M100.76 727.058 Q106.571 727.058 109.626 731.665 Q112.705 736.248 112.705 744.998 Q112.705 753.725 109.626 758.331 Q106.571 762.915 100.76 762.915 Q94.9502 762.915 91.8715 758.331 Q88.816 753.725 88.816 744.998 Q88.816 736.248 91.8715 731.665 Q94.9502 727.058 100.76 727.058 Z" fill="#000000" fill-rule="nonzero" fill-opacity="1" /><path clip-path="url(#clip850)" d="M120.922 756.364 L125.807 756.364 L125.807 762.243 L120.922 762.243 L120.922 756.364 Z" fill="#000000" fill-rule="nonzero" fill-opacity="1" /><path clip-path="url(#clip850)" d="M145.992 730.762 Q142.381 730.762 140.552 734.327 Q138.746 737.869 138.746 744.998 Q138.746 752.105 140.552 755.669 Q142.381 759.211 145.992 759.211 Q149.626 759.211 151.431 755.669 Q153.26 752.105 153.26 744.998 Q153.26 737.869 151.431 734.327 Q149.626 730.762 145.992 730.762 M145.992 727.058 Q151.802 727.058 154.857 731.665 Q157.936 736.248 157.936 744.998 Q157.936 753.725 154.857 758.331 Q151.802 762.915 145.992 762.915 Q140.181 762.915 137.103 758.331 Q134.047 753.725 134.047 744.998 Q134.047 736.248 137.103 731.665 Q140.181 727.058 145.992 727.058 Z" fill="#000000" fill-rule="nonzero" fill-opacity="1" /><path clip-path="url(#clip850)" d="M101.756 423.397 Q98.1447 423.397 96.316 426.962 Q94.5104 430.503 94.5104 437.633 Q94.5104 444.739 96.316 448.304 Q98.1447 451.846 101.756 451.846 Q105.39 451.846 107.196 448.304 Q109.024 444.739 109.024 437.633 Q109.024 430.503 107.196 426.962 Q105.39 423.397 101.756 423.397 M101.756 419.693 Q107.566 419.693 110.621 424.3 Q113.7 428.883 113.7 437.633 Q113.7 446.36 110.621 450.966 Q107.566 455.549 101.756 455.549 Q95.9456 455.549 92.8669 450.966 Q89.8114 446.36 89.8114 437.633 Q89.8114 428.883 92.8669 424.3 Q95.9456 419.693 101.756 419.693 Z" fill="#000000" fill-rule="nonzero" fill-opacity="1" /><path clip-path="url(#clip850)" d="M121.918 448.999 L126.802 448.999 L126.802 454.878 L121.918 454.878 L121.918 448.999 Z" fill="#000000" fill-rule="nonzero" fill-opacity="1" /><path clip-path="url(#clip850)" d="M137.033 420.318 L155.39 420.318 L155.39 424.253 L141.316 424.253 L141.316 432.726 Q142.334 432.378 143.353 432.216 Q144.371 432.031 145.39 432.031 Q151.177 432.031 154.556 435.202 Q157.936 438.374 157.936 443.79 Q157.936 449.369 154.464 452.471 Q150.992 455.549 144.672 455.549 Q142.496 455.549 140.228 455.179 Q137.982 454.809 135.575 454.068 L135.575 449.369 Q137.658 450.503 139.881 451.059 Q142.103 451.614 144.58 451.614 Q148.584 451.614 150.922 449.508 Q153.26 447.401 153.26 443.79 Q153.26 440.179 150.922 438.073 Q148.584 435.966 144.58 435.966 Q142.705 435.966 140.83 436.383 Q138.978 436.8 137.033 437.679 L137.033 420.318 Z" fill="#000000" fill-rule="nonzero" fill-opacity="1" /><path clip-path="url(#clip850)" d="M91.5706 143.578 L99.2095 143.578 L99.2095 117.212 L90.8993 118.879 L90.8993 114.62 L99.1632 112.953 L103.839 112.953 L103.839 143.578 L111.478 143.578 L111.478 147.513 L91.5706 147.513 L91.5706 143.578 Z" fill="#000000" fill-rule="nonzero" fill-opacity="1" /><path clip-path="url(#clip850)" d="M120.922 141.633 L125.807 141.633 L125.807 147.513 L120.922 147.513 L120.922 141.633 Z" fill="#000000" fill-rule="nonzero" fill-opacity="1" /><path clip-path="url(#clip850)" d="M145.992 116.032 Q142.381 116.032 140.552 119.596 Q138.746 123.138 138.746 130.268 Q138.746 137.374 140.552 140.939 Q142.381 144.481 145.992 144.481 Q149.626 144.481 151.431 140.939 Q153.26 137.374 153.26 130.268 Q153.26 123.138 151.431 119.596 Q149.626 116.032 145.992 116.032 M145.992 112.328 Q151.802 112.328 154.857 116.934 Q157.936 121.518 157.936 130.268 Q157.936 138.994 154.857 143.601 Q151.802 148.184 145.992 148.184 Q140.181 148.184 137.103 143.601 Q134.047 138.994 134.047 130.268 Q134.047 121.518 137.103 116.934 Q140.181 112.328 145.992 112.328 Z" fill="#000000" fill-rule="nonzero" fill-opacity="1" /><polyline clip-path="url(#clip851)" style="stroke:#009af9; stroke-linecap:round; stroke-linejoin:round; stroke-width:4; stroke-opacity:1; fill:none" points="255.035,744.963 258.278,738.816 261.521,732.67 264.764,726.524 268.007,720.381 271.25,714.24 274.493,708.102 277.736,701.967 280.979,695.837 284.222,689.712 287.465,683.593 290.708,677.479 293.951,671.373 297.194,665.273 300.437,659.182 303.68,653.099 306.923,647.026 310.166,640.962 313.409,634.909 316.652,628.866 319.895,622.835 323.138,616.817 326.381,610.811 329.624,604.819 332.867,598.84 336.11,592.877 339.353,586.928 342.596,580.995 345.84,575.079 349.083,569.18 352.326,563.298 355.569,557.435 358.812,551.59 362.055,545.764 365.298,539.959 368.541,534.174 371.784,528.41 375.027,522.667 378.27,516.947 381.513,511.25 384.756,505.576 387.999,499.926 391.242,494.301 394.485,488.7 397.728,483.125 400.971,477.577 404.214,472.055 407.457,466.56 410.7,461.094 413.943,455.655 417.186,450.246 420.429,444.866 423.672,439.516 426.915,434.197 430.158,428.908 433.401,423.652 436.644,418.427 439.887,413.235 443.13,408.076 446.373,402.951 449.616,397.86 452.859,392.804 456.103,387.783 459.346,382.798 462.589,377.849 465.832,372.937 469.075,368.062 472.318,363.224 475.561,358.425 478.804,353.665 482.047,348.943 485.29,344.261 488.533,339.62 491.776,335.018 495.019,330.458 498.262,325.939 501.505,321.462 504.748,317.028 507.991,312.636 511.234,308.288 514.477,303.983 517.72,299.722 520.963,295.506 524.206,291.334 527.449,287.209 530.692,283.128 533.935,279.094 537.178,275.107 540.421,271.167 543.664,267.274 546.907,263.428 550.15,259.631 553.393,255.883 556.636,252.183 559.879,248.533 563.122,244.932 566.366,241.381 569.609,237.881 572.852,234.431 576.095,231.033 579.338,227.686 582.581,224.39 585.824,221.147 589.067,217.956 592.31,214.817 595.553,211.732 598.796,208.7 602.039,205.722 605.282,202.797 608.525,199.927 611.768,197.111 615.011,194.35 618.254,191.644 621.497,188.994 624.74,186.399 627.983,183.86 631.226,181.377 634.469,178.95 637.712,176.58 640.955,174.267 644.198,172.011 647.441,169.812 650.684,167.67 653.927,165.587 657.17,163.561 660.413,161.594 663.656,159.684 666.899,157.834 670.142,156.042 673.385,154.309 676.629,152.635 679.872,151.02 683.115,149.465 686.358,147.969 689.601,146.533 692.844,145.156 696.087,143.84 699.33,142.584 702.573,141.388 705.816,140.253 709.059,139.177 712.302,138.163 715.545,137.209 718.788,136.316 722.031,135.484 725.274,134.712 728.517,134.002 731.76,133.353 735.003,132.765 738.246,132.238 741.489,131.773 744.732,131.369 747.975,131.026 751.218,130.744 754.461,130.524 757.704,130.366 760.947,130.269 764.19,130.233 767.433,130.259 770.676,130.346 773.919,130.495 777.162,130.705 780.405,130.977 783.648,131.31 786.892,131.704 790.135,132.16 793.378,132.677 796.621,133.255 799.864,133.895 803.107,134.595 806.35,135.357 809.593,136.179 812.836,137.063 816.079,138.007 819.322,139.012 822.565,140.077 825.808,141.203 829.051,142.39 832.294,143.636 835.537,144.943 838.78,146.31 842.023,147.736 845.266,149.222 848.509,150.768 851.752,152.374 854.995,154.038 858.238,155.762 861.481,157.544 864.724,159.386 867.967,161.286 871.21,163.244 874.453,165.26 877.696,167.335 880.939,169.467 884.182,171.657 887.425,173.904 890.668,176.208 893.911,178.569 897.155,180.986 900.398,183.46 903.641,185.991 906.884,188.577 910.127,191.218 913.37,193.915 916.613,196.668 919.856,199.475 923.099,202.336 926.342,205.252 929.585,208.222 932.828,211.245 936.071,214.322 939.314,217.452 942.557,220.635 945.8,223.87 949.043,227.157 952.286,230.496 955.529,233.887 958.772,237.328 962.015,240.821 965.258,244.363 968.501,247.956 971.744,251.599 974.987,255.29 978.23,259.031 981.473,262.82 984.716,266.658 987.959,270.544 991.202,274.476 994.445,278.456 997.688,282.483 1000.93,286.556 1004.17,290.674 1007.42,294.838 1010.66,299.048 1013.9,303.301 1017.15,307.599 1020.39,311.941 1023.63,316.326 1026.88,320.753 1030.12,325.223 1033.36,329.736 1036.6,334.289 1039.85,338.884 1043.09,343.519 1046.33,348.195 1049.58,352.91 1052.82,357.664 1056.06,362.457 1059.31,367.289 1062.55,372.158 1065.79,377.064 1069.04,382.008 1072.28,386.987 1075.52,392.002 1078.76,397.053 1082.01,402.138 1085.25,407.258 1088.49,412.411 1091.74,417.598 1094.98,422.817 1098.22,428.069 1101.47,433.352 1104.71,438.667 1107.95,444.012 1111.19,449.387 1114.44,454.792 1117.68,460.226 1120.92,465.688 1124.17,471.178 1127.41,476.696 1130.65,482.24 1133.9,487.811 1137.14,493.407 1140.38,499.029 1143.62,504.675 1146.87,510.345 1150.11,516.038 1153.35,521.755 1156.6,527.494 1159.84,533.254 1163.08,539.036 1166.33,544.838 1169.57,550.661 1172.81,556.502 1176.06,562.363 1179.3,568.242 1182.54,574.138 1185.78,580.052 1189.03,585.982 1192.27,591.928 1195.51,597.89 1198.76,603.866 1202,609.856 1205.24,615.859 1208.49,621.876 1211.73,627.905 1214.97,633.945 1218.21,639.997 1221.46,646.059 1224.7,652.131 1227.94,658.213 1231.19,664.303 1234.43,670.401 1237.67,676.506 1240.92,682.619 1244.16,688.737 1247.4,694.862 1250.64,700.991 1253.89,707.125 1257.13,713.262 1260.37,719.403 1263.62,725.546 1266.86,731.691 1270.1,737.837 1273.35,743.984 1276.59,750.132 1279.83,756.278 1283.08,762.424 1286.32,768.568 1289.56,774.709 1292.8,780.848 1296.05,786.983 1299.29,793.113 1302.53,799.239 1305.78,805.36 1309.02,811.474 1312.26,817.582 1315.51,823.683 1318.75,829.775 1321.99,835.859 1325.23,841.935 1328.48,848 1331.72,854.055 1334.96,860.099 1338.21,866.132 1341.45,872.152 1344.69,878.16 1347.94,884.155 1351.18,890.135 1354.42,896.101 1357.66,902.052 1360.91,907.988 1364.15,913.907 1367.39,919.809 1370.64,925.693 1373.88,931.56 1377.12,937.408 1380.37,943.236 1383.61,949.045 1386.85,954.833 1390.1,960.601 1393.34,966.346 1396.58,972.07 1399.82,977.771 1403.07,983.449 1406.31,989.103 1409.55,994.732 1412.8,1000.34 1416.04,1005.92 1419.28,1011.47 1422.53,1016.99 1425.77,1022.49 1429.01,1027.96 1432.25,1033.41 1435.5,1038.82 1438.74,1044.21 1441.98,1049.56 1445.23,1054.89 1448.47,1060.18 1451.71,1065.44 1454.96,1070.67 1458.2,1075.87 1461.44,1081.03 1464.68,1086.16 1467.93,1091.26 1471.17,1096.32 1474.41,1101.35 1477.66,1106.34 1480.9,1111.29 1484.14,1116.21 1487.39,1121.09 1490.63,1125.93 1493.87,1130.74 1497.11,1135.51 1500.36,1140.23 1503.6,1144.92 1506.84,1149.57 1510.09,1154.18 1513.33,1158.75 1516.57,1163.27 1519.82,1167.75 1523.06,1172.2 1526.3,1176.59 1529.55,1180.95 1532.79,1185.26 1536.03,1189.53 1539.27,1193.75 1542.52,1197.93 1545.76,1202.06 1549,1206.15 1552.25,1210.19 1555.49,1214.19 1558.73,1218.14 1561.98,1222.04 1565.22,1225.89 1568.46,1229.69 1571.7,1233.45 1574.95,1237.16 1578.19,1240.82 1581.43,1244.42 1584.68,1247.98 1587.92,1251.49 1591.16,1254.95 1594.41,1258.36 1597.65,1261.71 1600.89,1265.02 1604.13,1268.27 1607.38,1271.47 1610.62,1274.61 1613.86,1277.71 1617.11,1280.75 1620.35,1283.73 1623.59,1286.67 1626.84,1289.55 1630.08,1292.37 1633.32,1295.14 1636.57,1297.86 1639.81,1300.51 1643.05,1303.12 1646.29,1305.67 1649.54,1308.16 1652.78,1310.59 1656.02,1312.97 1659.27,1315.3 1662.51,1317.56 1665.75,1319.77 1669,1321.92 1672.24,1324.01 1675.48,1326.05 1678.72,1328.02 1681.97,1329.94 1685.21,1331.8 1688.45,1333.6 1691.7,1335.35 1694.94,1337.03 1698.18,1338.65 1701.43,1340.22 1704.67,1341.72 1707.91,1343.17 1711.15,1344.56 1714.4,1345.88 1717.64,1347.15 1720.88,1348.35 1724.13,1349.5 1727.37,1350.58 1730.61,1351.61 1733.86,1352.57 1737.1,1353.47 1740.34,1354.31 1743.59,1355.1 1746.83,1355.82 1750.07,1356.47 1753.31,1357.07 1756.56,1357.61 1759.8,1358.08 1763.04,1358.5 1766.29,1358.85 1769.53,1359.14 1772.77,1359.37 1776.02,1359.54 1779.26,1359.65 1782.5,1359.69 1785.74,1359.68 1788.99,1359.6 1792.23,1359.46 1795.47,1359.26 1798.72,1359 1801.96,1358.67 1805.2,1358.29 1808.45,1357.84 1811.69,1357.34 1814.93,1356.77 1818.17,1356.14 1821.42,1355.45 1824.66,1354.7 1827.9,1353.88 1831.15,1353.01 1834.39,1352.07 1837.63,1351.08 1840.88,1350.02 1844.12,1348.91 1847.36,1347.73 1850.61,1346.49 1853.85,1345.2 1857.09,1343.84 1860.33,1342.42 1863.58,1340.95 1866.82,1339.41 1870.06,1337.81 1873.31,1336.16 1876.55,1334.44 1879.79,1332.67 1883.04,1330.84 1886.28,1328.95 1889.52,1327 1892.76,1324.99 1896.01,1322.93 1899.25,1320.8 1902.49,1318.62 1905.74,1316.39 1908.98,1314.09 1912.22,1311.74 1915.47,1309.33 1918.71,1306.86 1921.95,1304.34 1925.19,1301.77 1928.44,1299.13 1931.68,1296.44 1934.92,1293.7 1938.17,1290.9 1941.41,1288.05 1944.65,1285.14 1947.9,1282.18 1951.14,1279.17 1954.38,1276.1 1957.63,1272.98 1960.87,1269.8 1964.11,1266.58 1967.35,1263.3 1970.6,1259.97 1973.84,1256.58 1977.08,1253.15 1980.33,1249.67 1983.57,1246.13 1986.81,1242.55 1990.06,1238.91 1993.3,1235.23 1996.54,1231.49 1999.78,1227.71 2003.03,1223.88 2006.27,1220.01 2009.51,1216.08 2012.76,1212.11 2016,1208.09 2019.24,1204.02 2022.49,1199.91 2025.73,1195.75 2028.97,1191.55 2032.21,1187.31 2035.46,1183.02 2038.7,1178.68 2041.94,1174.3 2045.19,1169.88 2048.43,1165.42 2051.67,1160.91 2054.92,1156.37 2058.16,1151.78 2061.4,1147.15 2064.65,1142.48 2067.89,1137.77 2071.13,1133.02 2074.37,1128.24 2077.62,1123.41 2080.86,1118.55 2084.1,1113.65 2087.35,1108.71 2090.59,1103.74 2093.83,1098.73 2097.08,1093.68 2100.32,1088.6 2103.56,1083.49 2106.8,1078.34 2110.05,1073.16 2113.29,1067.94 2116.53,1062.7 2119.78,1057.42 2123.02,1052.11 2126.26,1046.77 2129.51,1041.4 2132.75,1036 2135.99,1030.57 2139.23,1025.11 2142.48,1019.63 2145.72,1014.11 2148.96,1008.57 2152.21,1003.01 2155.45,997.413 2158.69,991.795 2161.94,986.153 2165.18,980.487 2168.42,974.797 2171.67,969.084 2174.91,963.349 2178.15,957.592 2181.39,951.813 2184.64,946.014 2187.88,940.195 2191.12,934.356 2194.37,928.498 2197.61,922.622 2200.85,916.729 2204.1,910.818 2207.34,904.89 2210.58,898.947 2213.82,892.988 2217.07,887.014 2220.31,881.026 2223.55,875.025 2226.8,869.01 2230.04,862.983 2233.28,856.944 2236.53,850.894 2239.77,844.834 2243.01,838.763 2246.25,832.683 2249.5,826.595 2252.74,820.498 2255.98,814.393 2259.23,808.282 2262.47,802.164 2265.71,796.041 2268.96,789.913 2272.2,783.78 2275.44,777.643 2278.69,771.503 2281.93,765.36 2285.17,759.215 2288.41,753.069 2291.66,746.922 "/>
<circle clip-path="url(#clip851)" cx="1510.09" cy="1176.68" r="14.4" fill="#e26f46" fill-rule="evenodd" fill-opacity="1" stroke="#000000" stroke-opacity="1" stroke-width="3.2"/>
<circle clip-path="url(#clip851)" cx="2268.96" cy="890.071" r="14.4" fill="#e26f46" fill-rule="evenodd" fill-opacity="1" stroke="#000000" stroke-opacity="1" stroke-width="3.2"/>
<circle clip-path="url(#clip851)" cx="2003.03" cy="1367.25" r="14.4" fill="#e26f46" fill-rule="evenodd" fill-opacity="1" stroke="#000000" stroke-opacity="1" stroke-width="3.2"/>
<circle clip-path="url(#clip851)" cx="1737.1" cy="1445.72" r="14.4" fill="#e26f46" fill-rule="evenodd" fill-opacity="1" stroke="#000000" stroke-opacity="1" stroke-width="3.2"/>
<circle clip-path="url(#clip851)" cx="1931.68" cy="1372.43" r="14.4" fill="#e26f46" fill-rule="evenodd" fill-opacity="1" stroke="#000000" stroke-opacity="1" stroke-width="3.2"/>
<circle clip-path="url(#clip851)" cx="1331.72" cy="962.697" r="14.4" fill="#e26f46" fill-rule="evenodd" fill-opacity="1" stroke="#000000" stroke-opacity="1" stroke-width="3.2"/>
<circle clip-path="url(#clip851)" cx="1240.92" cy="643.345" r="14.4" fill="#e26f46" fill-rule="evenodd" fill-opacity="1" stroke="#000000" stroke-opacity="1" stroke-width="3.2"/>
<circle clip-path="url(#clip851)" cx="1607.38" cy="1290.61" r="14.4" fill="#e26f46" fill-rule="evenodd" fill-opacity="1" stroke="#000000" stroke-opacity="1" stroke-width="3.2"/>
<circle clip-path="url(#clip851)" cx="627.983" cy="87.9763" r="14.4" fill="#e26f46" fill-rule="evenodd" fill-opacity="1" stroke="#000000" stroke-opacity="1" stroke-width="3.2"/>
<circle clip-path="url(#clip851)" cx="1493.87" cy="1236.29" r="14.4" fill="#e26f46" fill-rule="evenodd" fill-opacity="1" stroke="#000000" stroke-opacity="1" stroke-width="3.2"/>
<circle clip-path="url(#clip851)" cx="2084.1" cy="1103.54" r="14.4" fill="#e26f46" fill-rule="evenodd" fill-opacity="1" stroke="#000000" stroke-opacity="1" stroke-width="3.2"/>
<circle clip-path="url(#clip851)" cx="1192.27" cy="615.894" r="14.4" fill="#e26f46" fill-rule="evenodd" fill-opacity="1" stroke="#000000" stroke-opacity="1" stroke-width="3.2"/>
<circle clip-path="url(#clip851)" cx="2255.98" cy="695.009" r="14.4" fill="#e26f46" fill-rule="evenodd" fill-opacity="1" stroke="#000000" stroke-opacity="1" stroke-width="3.2"/>
<circle clip-path="url(#clip851)" cx="1153.35" cy="635.37" r="14.4" fill="#e26f46" fill-rule="evenodd" fill-opacity="1" stroke="#000000" stroke-opacity="1" stroke-width="3.2"/>
<circle clip-path="url(#clip851)" cx="1179.3" cy="508.354" r="14.4" fill="#e26f46" fill-rule="evenodd" fill-opacity="1" stroke="#000000" stroke-opacity="1" stroke-width="3.2"/>
<circle clip-path="url(#clip851)" cx="1944.65" cy="1257.41" r="14.4" fill="#e26f46" fill-rule="evenodd" fill-opacity="1" stroke="#000000" stroke-opacity="1" stroke-width="3.2"/>
<circle clip-path="url(#clip851)" cx="400.971" cy="551.25" r="14.4" fill="#e26f46" fill-rule="evenodd" fill-opacity="1" stroke="#000000" stroke-opacity="1" stroke-width="3.2"/>
<circle clip-path="url(#clip851)" cx="1150.11" cy="647.983" r="14.4" fill="#e26f46" fill-rule="evenodd" fill-opacity="1" stroke="#000000" stroke-opacity="1" stroke-width="3.2"/>
<circle clip-path="url(#clip851)" cx="1552.25" cy="1294.8" r="14.4" fill="#e26f46" fill-rule="evenodd" fill-opacity="1" stroke="#000000" stroke-opacity="1" stroke-width="3.2"/>
<circle clip-path="url(#clip851)" cx="1957.63" cy="1159.63" r="14.4" fill="#e26f46" fill-rule="evenodd" fill-opacity="1" stroke="#000000" stroke-opacity="1" stroke-width="3.2"/>
<path clip-path="url(#clip850)" d="M1953.46 250.738 L2280.8 250.738 L2280.8 95.2176 L1953.46 95.2176  Z" fill="#ffffff" fill-rule="evenodd" fill-opacity="1"/>
<polyline clip-path="url(#clip850)" style="stroke:#000000; stroke-linecap:round; stroke-linejoin:round; stroke-width:4; stroke-opacity:1; fill:none" points="1953.46,250.738 2280.8,250.738 2280.8,95.2176 1953.46,95.2176 1953.46,250.738 "/>
<polyline clip-path="url(#clip850)" style="stroke:#009af9; stroke-linecap:round; stroke-linejoin:round; stroke-width:4; stroke-opacity:1; fill:none" points="1977.44,147.058 2121.36,147.058 "/>
<path clip-path="url(#clip850)" d="M2152.76 131.051 L2152.76 138.412 L2161.53 138.412 L2161.53 141.722 L2152.76 141.722 L2152.76 155.796 Q2152.76 158.967 2153.61 159.87 Q2154.49 160.773 2157.16 160.773 L2161.53 160.773 L2161.53 164.338 L2157.16 164.338 Q2152.23 164.338 2150.35 162.509 Q2148.48 160.657 2148.48 155.796 L2148.48 141.722 L2145.35 141.722 L2145.35 138.412 L2148.48 138.412 L2148.48 131.051 L2152.76 131.051 Z" fill="#000000" fill-rule="nonzero" fill-opacity="1" /><path clip-path="url(#clip850)" d="M2182.16 142.393 Q2181.44 141.977 2180.58 141.791 Q2179.75 141.583 2178.73 141.583 Q2175.12 141.583 2173.17 143.944 Q2171.25 146.282 2171.25 150.68 L2171.25 164.338 L2166.97 164.338 L2166.97 138.412 L2171.25 138.412 L2171.25 142.44 Q2172.6 140.078 2174.75 138.944 Q2176.9 137.787 2179.98 137.787 Q2180.42 137.787 2180.95 137.856 Q2181.48 137.903 2182.13 138.018 L2182.16 142.393 Z" fill="#000000" fill-rule="nonzero" fill-opacity="1" /><path clip-path="url(#clip850)" d="M2186.18 154.106 L2186.18 138.412 L2190.44 138.412 L2190.44 153.944 Q2190.44 157.625 2191.88 159.476 Q2193.31 161.305 2196.18 161.305 Q2199.63 161.305 2201.62 159.106 Q2203.64 156.907 2203.64 153.111 L2203.64 138.412 L2207.9 138.412 L2207.9 164.338 L2203.64 164.338 L2203.64 160.356 Q2202.09 162.717 2200.03 163.875 Q2197.99 165.009 2195.28 165.009 Q2190.81 165.009 2188.5 162.231 Q2186.18 159.453 2186.18 154.106 M2196.9 137.787 L2196.9 137.787 Z" fill="#000000" fill-rule="nonzero" fill-opacity="1" /><path clip-path="url(#clip850)" d="M2220.88 131.051 L2220.88 138.412 L2229.66 138.412 L2229.66 141.722 L2220.88 141.722 L2220.88 155.796 Q2220.88 158.967 2221.74 159.87 Q2222.62 160.773 2225.28 160.773 L2229.66 160.773 L2229.66 164.338 L2225.28 164.338 Q2220.35 164.338 2218.48 162.509 Q2216.6 160.657 2216.6 155.796 L2216.6 141.722 L2213.48 141.722 L2213.48 138.412 L2216.6 138.412 L2216.6 131.051 L2220.88 131.051 Z" fill="#000000" fill-rule="nonzero" fill-opacity="1" /><path clip-path="url(#clip850)" d="M2256.81 148.689 L2256.81 164.338 L2252.55 164.338 L2252.55 148.828 Q2252.55 145.148 2251.11 143.319 Q2249.68 141.49 2246.81 141.49 Q2243.36 141.49 2241.37 143.69 Q2239.38 145.889 2239.38 149.685 L2239.38 164.338 L2235.1 164.338 L2235.1 128.319 L2239.38 128.319 L2239.38 142.44 Q2240.91 140.102 2242.97 138.944 Q2245.05 137.787 2247.76 137.787 Q2252.23 137.787 2254.52 140.565 Q2256.81 143.319 2256.81 148.689 Z" fill="#000000" fill-rule="nonzero" fill-opacity="1" /><circle clip-path="url(#clip850)" cx="2049.4" cy="198.898" r="20.48" fill="#e26f46" fill-rule="evenodd" fill-opacity="1" stroke="#000000" stroke-opacity="1" stroke-width="4.55111"/>
<path clip-path="url(#clip850)" d="M2164.26 194.187 L2164.26 180.159 L2168.52 180.159 L2168.52 216.178 L2164.26 216.178 L2164.26 212.289 Q2162.92 214.603 2160.86 215.738 Q2158.82 216.849 2155.95 216.849 Q2151.25 216.849 2148.29 213.099 Q2145.35 209.349 2145.35 203.238 Q2145.35 197.127 2148.29 193.377 Q2151.25 189.627 2155.95 189.627 Q2158.82 189.627 2160.86 190.761 Q2162.92 191.872 2164.26 194.187 M2149.75 203.238 Q2149.75 207.937 2151.67 210.622 Q2153.61 213.284 2156.99 213.284 Q2160.37 213.284 2162.32 210.622 Q2164.26 207.937 2164.26 203.238 Q2164.26 198.539 2162.32 195.877 Q2160.37 193.192 2156.99 193.192 Q2153.61 193.192 2151.67 195.877 Q2149.75 198.539 2149.75 203.238 Z" fill="#000000" fill-rule="nonzero" fill-opacity="1" /><path clip-path="url(#clip850)" d="M2189.08 203.145 Q2183.92 203.145 2181.92 204.326 Q2179.93 205.506 2179.93 208.354 Q2179.93 210.622 2181.42 211.965 Q2182.92 213.284 2185.49 213.284 Q2189.03 213.284 2191.16 210.784 Q2193.31 208.261 2193.31 204.094 L2193.31 203.145 L2189.08 203.145 M2197.57 201.386 L2197.57 216.178 L2193.31 216.178 L2193.31 212.242 Q2191.85 214.603 2189.68 215.738 Q2187.5 216.849 2184.36 216.849 Q2180.37 216.849 2178.01 214.627 Q2175.67 212.381 2175.67 208.631 Q2175.67 204.256 2178.59 202.034 Q2181.53 199.812 2187.34 199.812 L2193.31 199.812 L2193.31 199.395 Q2193.31 196.455 2191.37 194.858 Q2189.45 193.238 2185.95 193.238 Q2183.73 193.238 2181.62 193.77 Q2179.52 194.303 2177.57 195.367 L2177.57 191.432 Q2179.91 190.53 2182.11 190.09 Q2184.31 189.627 2186.39 189.627 Q2192.02 189.627 2194.79 192.543 Q2197.57 195.46 2197.57 201.386 Z" fill="#000000" fill-rule="nonzero" fill-opacity="1" /><path clip-path="url(#clip850)" d="M2210.56 182.891 L2210.56 190.252 L2219.33 190.252 L2219.33 193.562 L2210.56 193.562 L2210.56 207.636 Q2210.56 210.807 2211.42 211.71 Q2212.29 212.613 2214.96 212.613 L2219.33 212.613 L2219.33 216.178 L2214.96 216.178 Q2210.03 216.178 2208.15 214.349 Q2206.28 212.497 2206.28 207.636 L2206.28 193.562 L2203.15 193.562 L2203.15 190.252 L2206.28 190.252 L2206.28 182.891 L2210.56 182.891 Z" fill="#000000" fill-rule="nonzero" fill-opacity="1" /><path clip-path="url(#clip850)" d="M2236.72 203.145 Q2231.55 203.145 2229.56 204.326 Q2227.57 205.506 2227.57 208.354 Q2227.57 210.622 2229.05 211.965 Q2230.56 213.284 2233.13 213.284 Q2236.67 213.284 2238.8 210.784 Q2240.95 208.261 2240.95 204.094 L2240.95 203.145 L2236.72 203.145 M2245.21 201.386 L2245.21 216.178 L2240.95 216.178 L2240.95 212.242 Q2239.49 214.603 2237.32 215.738 Q2235.14 216.849 2231.99 216.849 Q2228.01 216.849 2225.65 214.627 Q2223.31 212.381 2223.31 208.631 Q2223.31 204.256 2226.23 202.034 Q2229.17 199.812 2234.98 199.812 L2240.95 199.812 L2240.95 199.395 Q2240.95 196.455 2239.01 194.858 Q2237.09 193.238 2233.59 193.238 Q2231.37 193.238 2229.26 193.77 Q2227.16 194.303 2225.21 195.367 L2225.21 191.432 Q2227.55 190.53 2229.75 190.09 Q2231.95 189.627 2234.03 189.627 Q2239.66 189.627 2242.43 192.543 Q2245.21 195.46 2245.21 201.386 Z" fill="#000000" fill-rule="nonzero" fill-opacity="1" /></svg>
