<?xml version="1.0" encoding="utf-8"?>
<svg xmlns="http://www.w3.org/2000/svg" xmlns:xlink="http://www.w3.org/1999/xlink" width="600" height="400" viewBox="0 0 2400 1600">
<defs>
  <clipPath id="clip840">
    <rect x="0" y="0" width="2400" height="1600"/>
  </clipPath>
</defs>
<path clip-path="url(#clip840)" d="M0 1600 L2400 1600 L2400 0 L0 0  Z" fill="#ffffff" fill-rule="evenodd" fill-opacity="1"/>
<defs>
  <clipPath id="clip841">
    <rect x="193" y="47" width="2160" height="1440"/>
  </clipPath>
</defs>
<path clip-path="url(#clip840)" d="M193.936 1486.45 L2352.76 1486.45 L2352.76 47.2441 L193.936 47.2441  Z" fill="#ffffff" fill-rule="evenodd" fill-opacity="1"/>
<polyline clip-path="url(#clip841)" style="stroke:#000000; stroke-linecap:round; stroke-linejoin:round; stroke-width:2; stroke-opacity:0.1; fill:none" points="255.035,1486.45 255.035,47.2441 "/>
<polyline clip-path="url(#clip841)" style="stroke:#000000; stroke-linecap:round; stroke-linejoin:round; stroke-width:2; stroke-opacity:0.1; fill:none" points="579.173,1486.45 579.173,47.2441 "/>
<polyline clip-path="url(#clip841)" style="stroke:#000000; stroke-linecap:round; stroke-linejoin:round; stroke-width:2; stroke-opacity:0.1; fill:none" points="903.312,1486.45 903.312,47.2441 "/>
<polyline clip-path="url(#clip841)" style="stroke:#000000; stroke-linecap:round; stroke-linejoin:round; stroke-width:2; stroke-opacity:0.1; fill:none" points="1227.45,1486.45 1227.45,47.2441 "/>
<polyline clip-path="url(#clip841)" style="stroke:#000000; stroke-linecap:round; stroke-linejoin:round; stroke-width:2; stroke-opacity:0.1; fill:none" points="1551.59,1486.45 1551.59,47.2441 "/>
<polyline clip-path="url(#clip841)" style="stroke:#000000; stroke-linecap:round; stroke-linejoin:round; stroke-width:2; stroke-opacity:0.1; fill:none" points="1875.73,1486.45 1875.73,47.2441 "/>
<polyline clip-path="url(#clip841)" style="stroke:#000000; stroke-linecap:round; stroke-linejoin:round; stroke-width:2; stroke-opacity:0.1; fill:none" points="2199.87,1486.45 2199.87,47.2441 "/>
<polyline clip-path="url(#clip841)" style="stroke:#000000; stroke-linecap:round; stroke-linejoin:round; stroke-width:2; stroke-opacity:0.1; fill:none" points="193.936,1254.78 2352.76,1254.78 "/>
<polyline clip-path="url(#clip841)" style="stroke:#000000; stroke-linecap:round; stroke-linejoin:round; stroke-width:2; stroke-opacity:0.1; fill:none" points="193.936,1006.69 2352.76,1006.69 "/>
<polyline clip-path="url(#clip841)" style="stroke:#000000; stroke-linecap:round; stroke-linejoin:round; stroke-width:2; stroke-opacity:0.1; fill:none" points="193.936,758.6 2352.76,758.6 "/>
<polyline clip-path="url(#clip841)" style="stroke:#000000; stroke-linecap:round; stroke-linejoin:round; stroke-width:2; stroke-opacity:0.1; fill:none" points="193.936,510.513 2352.76,510.513 "/>
<polyline clip-path="url(#clip841)" style="stroke:#000000; stroke-linecap:round; stroke-linejoin:round; stroke-width:2; stroke-opacity:0.1; fill:none" points="193.936,262.425 2352.76,262.425 "/>
<polyline clip-path="url(#clip840)" style="stroke:#000000; stroke-linecap:round; stroke-linejoin:round; stroke-width:4; stroke-opacity:1; fill:none" points="193.936,1486.45 2352.76,1486.45 "/>
<polyline clip-path="url(#clip840)" style="stroke:#000000; stroke-linecap:round; stroke-linejoin:round; stroke-width:4; stroke-opacity:1; fill:none" points="255.035,1486.45 255.035,1467.55 "/>
<polyline clip-path="url(#clip840)" style="stroke:#000000; stroke-linecap:round; stroke-linejoin:round; stroke-width:4; stroke-opacity:1; fill:none" points="579.173,1486.45 579.173,1467.55 "/>
<polyline clip-path="url(#clip840)" style="stroke:#000000; stroke-linecap:round; stroke-linejoin:round; stroke-width:4; stroke-opacity:1; fill:none" points="903.312,1486.45 903.312,1467.55 "/>
<polyline clip-path="url(#clip840)" style="stroke:#000000; stroke-linecap:round; stroke-linejoin:round; stroke-width:4; stroke-opacity:1; fill:none" points="1227.45,1486.45 1227.45,1467.55 "/>
<polyline clip-path="url(#clip840)" style="stroke:#000000; stroke-linecap:round; stroke-linejoin:round; stroke-width:4; stroke-opacity:1; fill:none" points="1551.59,1486.45 1551.59,1467.55 "/>
<polyline clip-path="url(#clip840)" style="stroke:#000000; stroke-linecap:round; stroke-linejoin:round; stroke-width:4; stroke-opacity:1; fill:none" points="1875.73,1486.45 1875.73,1467.55 "/>
<polyline clip-path="url(#clip840)" style="stroke:#000000; stroke-linecap:round; stroke-linejoin:round; stroke-width:4; stroke-opacity:1; fill:none" points="2199.87,1486.45 2199.87,1467.55 "/>
<path clip-path="url(#clip840)" d="M255.035 1517.37 Q251.424 1517.37 249.595 1520.93 Q247.789 1524.47 247.789 1531.6 Q247.789 1538.71 249.595 1542.27 Q251.424 1545.82 255.035 1545.82 Q258.669 1545.82 260.474 1542.27 Q262.303 1538.71 262.303 1531.6 Q262.303 1524.47 260.474 1520.93 Q258.669 1517.37 255.035 1517.37 M255.035 1513.66 Q260.845 1513.66 263.9 1518.27 Q266.979 1522.85 266.979 1531.6 Q266.979 1540.33 263.9 1544.94 Q260.845 1549.52 255.035 1549.52 Q249.225 1549.52 246.146 1544.94 Q243.09 1540.33 243.09 1531.6 Q243.09 1522.85 246.146 1518.27 Q249.225 1513.66 255.035 1513.66 Z" fill="#000000" fill-rule="nonzero" fill-opacity="1" /><path clip-path="url(#clip840)" d="M569.555 1544.91 L577.194 1544.91 L577.194 1518.55 L568.884 1520.21 L568.884 1515.95 L577.148 1514.29 L581.824 1514.29 L581.824 1544.91 L589.463 1544.91 L589.463 1548.85 L569.555 1548.85 L569.555 1544.91 Z" fill="#000000" fill-rule="nonzero" fill-opacity="1" /><path clip-path="url(#clip840)" d="M897.965 1544.91 L914.284 1544.91 L914.284 1548.85 L892.34 1548.85 L892.34 1544.91 Q895.002 1542.16 899.585 1537.53 Q904.191 1532.88 905.372 1531.53 Q907.617 1529.01 908.497 1527.27 Q909.4 1525.51 909.4 1523.82 Q909.4 1521.07 907.455 1519.33 Q905.534 1517.6 902.432 1517.6 Q900.233 1517.6 897.779 1518.36 Q895.349 1519.13 892.571 1520.68 L892.571 1515.95 Q895.395 1514.82 897.849 1514.24 Q900.303 1513.66 902.34 1513.66 Q907.71 1513.66 910.904 1516.35 Q914.099 1519.03 914.099 1523.52 Q914.099 1525.65 913.289 1527.57 Q912.502 1529.47 910.395 1532.07 Q909.816 1532.74 906.715 1535.95 Q903.613 1539.15 897.965 1544.91 Z" fill="#000000" fill-rule="nonzero" fill-opacity="1" /><path clip-path="url(#clip840)" d="M1231.7 1530.21 Q1235.05 1530.93 1236.93 1533.2 Q1238.83 1535.47 1238.83 1538.8 Q1238.83 1543.92 1235.31 1546.72 Q1231.79 1549.52 1225.31 1549.52 Q1223.13 1549.52 1220.82 1549.08 Q1218.53 1548.66 1216.07 1547.81 L1216.07 1543.29 Q1218.02 1544.43 1220.33 1545.01 Q1222.65 1545.58 1225.17 1545.58 Q1229.57 1545.58 1231.86 1543.85 Q1234.17 1542.11 1234.17 1538.8 Q1234.17 1535.75 1232.02 1534.03 Q1229.89 1532.3 1226.07 1532.3 L1222.05 1532.3 L1222.05 1528.45 L1226.26 1528.45 Q1229.71 1528.45 1231.54 1527.09 Q1233.36 1525.7 1233.36 1523.11 Q1233.36 1520.45 1231.47 1519.03 Q1229.59 1517.6 1226.07 1517.6 Q1224.15 1517.6 1221.95 1518.01 Q1219.75 1518.43 1217.11 1519.31 L1217.11 1515.14 Q1219.78 1514.4 1222.09 1514.03 Q1224.43 1513.66 1226.49 1513.66 Q1231.81 1513.66 1234.92 1516.09 Q1238.02 1518.5 1238.02 1522.62 Q1238.02 1525.49 1236.37 1527.48 Q1234.73 1529.45 1231.7 1530.21 Z" fill="#000000" fill-rule="nonzero" fill-opacity="1" /><path clip-path="url(#clip840)" d="M1554.6 1518.36 L1542.79 1536.81 L1554.6 1536.81 L1554.6 1518.36 M1553.37 1514.29 L1559.25 1514.29 L1559.25 1536.81 L1564.18 1536.81 L1564.18 1540.7 L1559.25 1540.7 L1559.25 1548.85 L1554.6 1548.85 L1554.6 1540.7 L1539 1540.7 L1539 1536.19 L1553.37 1514.29 Z" fill="#000000" fill-rule="nonzero" fill-opacity="1" /><path clip-path="url(#clip840)" d="M1866.01 1514.29 L1884.36 1514.29 L1884.36 1518.22 L1870.29 1518.22 L1870.29 1526.7 Q1871.31 1526.35 1872.32 1526.19 Q1873.34 1526 1874.36 1526 Q1880.15 1526 1883.53 1529.17 Q1886.91 1532.34 1886.91 1537.76 Q1886.91 1543.34 1883.44 1546.44 Q1879.96 1549.52 1873.64 1549.52 Q1871.47 1549.52 1869.2 1549.15 Q1866.95 1548.78 1864.55 1548.04 L1864.55 1543.34 Q1866.63 1544.47 1868.85 1545.03 Q1871.07 1545.58 1873.55 1545.58 Q1877.56 1545.58 1879.89 1543.48 Q1882.23 1541.37 1882.23 1537.76 Q1882.23 1534.15 1879.89 1532.04 Q1877.56 1529.94 1873.55 1529.94 Q1871.68 1529.94 1869.8 1530.35 Q1867.95 1530.77 1866.01 1531.65 L1866.01 1514.29 Z" fill="#000000" fill-rule="nonzero" fill-opacity="1" /><path clip-path="url(#clip840)" d="M2200.27 1529.7 Q2197.12 1529.7 2195.27 1531.86 Q2193.44 1534.01 2193.44 1537.76 Q2193.44 1541.49 2195.27 1543.66 Q2197.12 1545.82 2200.27 1545.82 Q2203.42 1545.82 2205.25 1543.66 Q2207.1 1541.49 2207.1 1537.76 Q2207.1 1534.01 2205.25 1531.86 Q2203.42 1529.7 2200.27 1529.7 M2209.55 1515.05 L2209.55 1519.31 Q2207.79 1518.48 2205.99 1518.04 Q2204.21 1517.6 2202.45 1517.6 Q2197.82 1517.6 2195.36 1520.72 Q2192.93 1523.85 2192.59 1530.17 Q2193.95 1528.15 2196.01 1527.09 Q2198.07 1526 2200.55 1526 Q2205.76 1526 2208.77 1529.17 Q2211.8 1532.32 2211.8 1537.76 Q2211.8 1543.08 2208.65 1546.3 Q2205.5 1549.52 2200.27 1549.52 Q2194.28 1549.52 2191.1 1544.94 Q2187.93 1540.33 2187.93 1531.6 Q2187.93 1523.41 2191.82 1518.55 Q2195.71 1513.66 2202.26 1513.66 Q2204.02 1513.66 2205.8 1514.01 Q2207.61 1514.36 2209.55 1515.05 Z" fill="#000000" fill-rule="nonzero" fill-opacity="1" /><polyline clip-path="url(#clip840)" style="stroke:#000000; stroke-linecap:round; stroke-linejoin:round; stroke-width:4; stroke-opacity:1; fill:none" points="193.936,1486.45 193.936,47.2441 "/>
<polyline clip-path="url(#clip840)" style="stroke:#000000; stroke-linecap:round; stroke-linejoin:round; stroke-width:4; stroke-opacity:1; fill:none" points="193.936,1254.78 212.834,1254.78 "/>
<polyline clip-path="url(#clip840)" style="stroke:#000000; stroke-linecap:round; stroke-linejoin:round; stroke-width:4; stroke-opacity:1; fill:none" points="193.936,1006.69 212.834,1006.69 "/>
<polyline clip-path="url(#clip840)" style="stroke:#000000; stroke-linecap:round; stroke-linejoin:round; stroke-width:4; stroke-opacity:1; fill:none" points="193.936,758.6 212.834,758.6 "/>
<polyline clip-path="url(#clip840)" style="stroke:#000000; stroke-linecap:round; stroke-linejoin:round; stroke-width:4; stroke-opacity:1; fill:none" points="193.936,510.513 212.834,510.513 "/>
<polyline clip-path="url(#clip840)" style="stroke:#000000; stroke-linecap:round; stroke-linejoin:round; stroke-width:4; stroke-opacity:1; fill:none" points="193.936,262.425 212.834,262.425 "/>
<path clip-path="url(#clip840)" d="M50.9921 1255.23 L80.6679 1255.23 L80.6679 1259.16 L50.9921 1259.16 L50.9921 1255.23 Z" fill="#000000" fill-rule="nonzero" fill-opacity="1" /><path clip-path="url(#clip840)" d="M91.5706 1268.12 L99.2095 1268.12 L99.2095 1241.76 L90.8993 1243.42 L90.8993 1239.16 L99.1632 1237.5 L103.839 1237.5 L103.839 1268.12 L111.478 1268.12 L111.478 1272.06 L91.5706 1272.06 L91.5706 1268.12 Z" fill="#000000" fill-rule="nonzero" fill-opacity="1" /><path clip-path="url(#clip840)" d="M120.922 1266.18 L125.807 1266.18 L125.807 1272.06 L120.922 1272.06 L120.922 1266.18 Z" fill="#000000" fill-rule="nonzero" fill-opacity="1" /><path clip-path="url(#clip840)" d="M145.992 1240.57 Q142.381 1240.57 140.552 1244.14 Q138.746 1247.68 138.746 1254.81 Q138.746 1261.92 140.552 1265.48 Q142.381 1269.02 145.992 1269.02 Q149.626 1269.02 151.431 1265.48 Q153.26 1261.92 153.26 1254.81 Q153.26 1247.68 151.431 1244.14 Q149.626 1240.57 145.992 1240.57 M145.992 1236.87 Q151.802 1236.87 154.857 1241.48 Q157.936 1246.06 157.936 1254.81 Q157.936 1263.54 154.857 1268.14 Q151.802 1272.73 145.992 1272.73 Q140.181 1272.73 137.103 1268.14 Q134.047 1263.54 134.047 1254.81 Q134.047 1246.06 137.103 1241.48 Q140.181 1236.87 145.992 1236.87 Z" fill="#000000" fill-rule="nonzero" fill-opacity="1" /><path clip-path="url(#clip840)" d="M51.9875 1007.14 L81.6633 1007.14 L81.6633 1011.07 L51.9875 1011.07 L51.9875 1007.14 Z" fill="#000000" fill-rule="nonzero" fill-opacity="1" /><path clip-path="url(#clip840)" d="M101.756 992.487 Q98.1447 992.487 96.316 996.052 Q94.5104 999.593 94.5104 1006.72 Q94.5104 1013.83 96.316 1017.39 Q98.1447 1020.94 101.756 1020.94 Q105.39 1020.94 107.196 1017.39 Q109.024 1013.83 109.024 1006.72 Q109.024 999.593 107.196 996.052 Q105.39 992.487 101.756 992.487 M101.756 988.783 Q107.566 988.783 110.621 993.39 Q113.7 997.973 113.7 1006.72 Q113.7 1015.45 110.621 1020.06 Q107.566 1024.64 101.756 1024.64 Q95.9456 1024.64 92.8669 1020.06 Q89.8114 1015.45 89.8114 1006.72 Q89.8114 997.973 92.8669 993.39 Q95.9456 988.783 101.756 988.783 Z" fill="#000000" fill-rule="nonzero" fill-opacity="1" /><path clip-path="url(#clip840)" d="M121.918 1018.09 L126.802 1018.09 L126.802 1023.97 L121.918 1023.97 L121.918 1018.09 Z" fill="#000000" fill-rule="nonzero" fill-opacity="1" /><path clip-path="url(#clip840)" d="M137.033 989.408 L155.39 989.408 L155.39 993.343 L141.316 993.343 L141.316 1001.82 Q142.334 1001.47 143.353 1001.31 Q144.371 1001.12 145.39 1001.12 Q151.177 1001.12 154.556 1004.29 Q157.936 1007.46 157.936 1012.88 Q157.936 1018.46 154.464 1021.56 Q150.992 1024.64 144.672 1024.64 Q142.496 1024.64 140.228 1024.27 Q137.982 1023.9 135.575 1023.16 L135.575 1018.46 Q137.658 1019.59 139.881 1020.15 Q142.103 1020.7 144.58 1020.7 Q148.584 1020.7 150.922 1018.6 Q153.26 1016.49 153.26 1012.88 Q153.26 1009.27 150.922 1007.16 Q148.584 1005.06 144.58 1005.06 Q142.705 1005.06 140.83 1005.47 Q138.978 1005.89 137.033 1006.77 L137.033 989.408 Z" fill="#000000" fill-rule="nonzero" fill-opacity="1" /><path clip-path="url(#clip840)" d="M100.76 744.399 Q97.1493 744.399 95.3206 747.964 Q93.515 751.506 93.515 758.635 Q93.515 765.742 95.3206 769.306 Q97.1493 772.848 100.76 772.848 Q104.395 772.848 106.2 769.306 Q108.029 765.742 108.029 758.635 Q108.029 751.506 106.2 747.964 Q104.395 744.399 100.76 744.399 M100.76 740.695 Q106.571 740.695 109.626 745.302 Q112.705 749.885 112.705 758.635 Q112.705 767.362 109.626 771.968 Q106.571 776.552 100.76 776.552 Q94.9502 776.552 91.8715 771.968 Q88.816 767.362 88.816 758.635 Q88.816 749.885 91.8715 745.302 Q94.9502 740.695 100.76 740.695 Z" fill="#000000" fill-rule="nonzero" fill-opacity="1" /><path clip-path="url(#clip840)" d="M120.922 770.001 L125.807 770.001 L125.807 775.88 L120.922 775.88 L120.922 770.001 Z" fill="#000000" fill-rule="nonzero" fill-opacity="1" /><path clip-path="url(#clip840)" d="M145.992 744.399 Q142.381 744.399 140.552 747.964 Q138.746 751.506 138.746 758.635 Q138.746 765.742 140.552 769.306 Q142.381 772.848 145.992 772.848 Q149.626 772.848 151.431 769.306 Q153.26 765.742 153.26 758.635 Q153.26 751.506 151.431 747.964 Q149.626 744.399 145.992 744.399 M145.992 740.695 Q151.802 740.695 154.857 745.302 Q157.936 749.885 157.936 758.635 Q157.936 767.362 154.857 771.968 Q151.802 776.552 145.992 776.552 Q140.181 776.552 137.103 771.968 Q134.047 767.362 134.047 758.635 Q134.047 749.885 137.103 745.302 Q140.181 740.695 145.992 740.695 Z" fill="#000000" fill-rule="nonzero" fill-opacity="1" /><path clip-path="url(#clip840)" d="M101.756 496.311 Q98.1447 496.311 96.316 499.876 Q94.5104 503.418 94.5104 510.547 Q94.5104 517.654 96.316 521.219 Q98.1447 524.76 101.756 524.76 Q105.39 524.76 107.196 521.219 Q109.024 517.654 109.024 510.547 Q109.024 503.418 107.196 499.876 Q105.39 496.311 101.756 496.311 M101.756 492.608 Q107.566 492.608 110.621 497.214 Q113.7 501.797 113.7 510.547 Q113.7 519.274 110.621 523.881 Q107.566 528.464 101.756 528.464 Q95.9456 528.464 92.8669 523.881 Q89.8114 519.274 89.8114 510.547 Q89.8114 501.797 92.8669 497.214 Q95.9456 492.608 101.756 492.608 Z" fill="#000000" fill-rule="nonzero" fill-opacity="1" /><path clip-path="url(#clip840)" d="M121.918 521.913 L126.802 521.913 L126.802 527.793 L121.918 527.793 L121.918 521.913 Z" fill="#000000" fill-rule="nonzero" fill-opacity="1" /><path clip-path="url(#clip840)" d="M137.033 493.233 L155.39 493.233 L155.39 497.168 L141.316 497.168 L141.316 505.64 Q142.334 505.293 143.353 505.131 Q144.371 504.946 145.39 504.946 Q151.177 504.946 154.556 508.117 Q157.936 511.288 157.936 516.705 Q157.936 522.283 154.464 525.385 Q150.992 528.464 144.672 528.464 Q142.496 528.464 140.228 528.094 Q137.982 527.723 135.575 526.982 L135.575 522.283 Q137.658 523.418 139.881 523.973 Q142.103 524.529 144.58 524.529 Q148.584 524.529 150.922 522.422 Q153.26 520.316 153.26 516.705 Q153.26 513.094 150.922 510.987 Q148.584 508.881 144.58 508.881 Q142.705 508.881 140.83 509.297 Q138.978 509.714 137.033 510.594 L137.033 493.233 Z" fill="#000000" fill-rule="nonzero" fill-opacity="1" /><path clip-path="url(#clip840)" d="M91.5706 275.77 L99.2095 275.77 L99.2095 249.404 L90.8993 251.071 L90.8993 246.811 L99.1632 245.145 L103.839 245.145 L103.839 275.77 L111.478 275.77 L111.478 279.705 L91.5706 279.705 L91.5706 275.77 Z" fill="#000000" fill-rule="nonzero" fill-opacity="1" /><path clip-path="url(#clip840)" d="M120.922 273.825 L125.807 273.825 L125.807 279.705 L120.922 279.705 L120.922 273.825 Z" fill="#000000" fill-rule="nonzero" fill-opacity="1" /><path clip-path="url(#clip840)" d="M145.992 248.223 Q142.381 248.223 140.552 251.788 Q138.746 255.33 138.746 262.46 Q138.746 269.566 140.552 273.131 Q142.381 276.672 145.992 276.672 Q149.626 276.672 151.431 273.131 Q153.26 269.566 153.26 262.46 Q153.26 255.33 151.431 251.788 Q149.626 248.223 145.992 248.223 M145.992 244.52 Q151.802 244.52 154.857 249.126 Q157.936 253.71 157.936 262.46 Q157.936 271.186 154.857 275.793 Q151.802 280.376 145.992 280.376 Q140.181 280.376 137.103 275.793 Q134.047 271.186 134.047 262.46 Q134.047 253.71 137.103 249.126 Q140.181 244.52 145.992 244.52 Z" fill="#000000" fill-rule="nonzero" fill-opacity="1" /><polyline clip-path="url(#clip841)" style="stroke:#009af9; stroke-linecap:round; stroke-linejoin:round; stroke-width:4; stroke-opacity:1; fill:none" points="255.035,758.6 258.276,753.639 261.517,748.678 264.759,743.717 268,738.759 271.242,733.802 274.483,728.848 277.724,723.896 280.966,718.949 284.207,714.005 287.449,709.066 290.69,704.131 293.931,699.202 297.173,694.279 300.414,689.363 303.655,684.453 306.897,679.551 310.138,674.656 313.38,669.77 316.621,664.893 319.862,660.026 323.104,655.168 326.345,650.32 329.587,645.484 332.828,640.658 336.069,635.845 339.311,631.043 342.552,626.255 345.793,621.479 349.035,616.718 352.276,611.97 355.518,607.238 358.759,602.52 362,597.818 365.242,593.132 368.483,588.463 371.725,583.811 374.966,579.176 378.207,574.559 381.449,569.96 384.69,565.381 387.931,560.82 391.173,556.28 394.414,551.759 397.656,547.26 400.897,542.781 404.138,538.324 407.38,533.889 410.621,529.477 413.863,525.087 417.104,520.721 420.345,516.379 423.587,512.061 426.828,507.767 430.069,503.499 433.311,499.256 436.552,495.039 439.794,490.848 443.035,486.684 446.276,482.548 449.518,478.439 452.759,474.358 456.001,470.305 459.242,466.281 462.483,462.287 465.725,458.322 468.966,454.387 472.208,450.482 475.449,446.609 478.69,442.766 481.932,438.955 485.173,435.176 488.414,431.43 491.656,427.716 494.897,424.035 498.139,420.388 501.38,416.774 504.621,413.195 507.863,409.65 511.104,406.14 514.346,402.666 517.587,399.227 520.828,395.824 524.07,392.457 527.311,389.127 530.552,385.833 533.794,382.577 537.035,379.359 540.277,376.179 543.518,373.036 546.759,369.933 550.001,366.868 553.242,363.842 556.484,360.856 559.725,357.91 562.966,355.003 566.208,352.138 569.449,349.312 572.69,346.528 575.932,343.785 579.173,341.083 582.415,338.423 585.656,335.805 588.897,333.23 592.139,330.696 595.38,328.206 598.622,325.759 601.863,323.355 605.104,320.994 608.346,318.678 611.587,316.405 614.828,314.177 618.07,311.993 621.311,309.853 624.553,307.759 627.794,305.709 631.035,303.705 634.277,301.746 637.518,299.833 640.76,297.966 644.001,296.145 647.242,294.371 650.484,292.642 653.725,290.96 656.966,289.325 660.208,287.737 663.449,286.196 666.691,284.703 669.932,283.256 673.173,281.857 676.415,280.506 679.656,279.203 682.898,277.948 686.139,276.74 689.38,275.581 692.622,274.47 695.863,273.408 699.104,272.394 702.346,271.429 705.587,270.512 708.829,269.644 712.07,268.825 715.311,268.056 718.553,267.335 721.794,266.663 725.036,266.04 728.277,265.467 731.518,264.943 734.76,264.469 738.001,264.043 741.242,263.668 744.484,263.341 747.725,263.065 750.967,262.838 754.208,262.66 757.449,262.532 760.691,262.454 763.932,262.425 767.174,262.446 770.415,262.516 773.656,262.636 776.898,262.806 780.139,263.025 783.381,263.294 786.622,263.612 789.863,263.98 793.105,264.398 796.346,264.864 799.587,265.38 802.829,265.946 806.07,266.561 809.312,267.224 812.553,267.937 815.794,268.7 819.036,269.511 822.277,270.371 825.519,271.279 828.76,272.237 832.001,273.243 835.243,274.298 838.484,275.401 841.725,276.552 844.967,277.752 848.208,279 851.45,280.296 854.691,281.639 857.932,283.03 861.174,284.469 864.415,285.955 867.657,287.489 870.898,289.069 874.139,290.697 877.381,292.371 880.622,294.092 883.863,295.86 887.105,297.673 890.346,299.533 893.588,301.439 896.829,303.39 900.07,305.387 903.312,307.429 906.553,309.517 909.795,311.649 913.036,313.826 916.277,316.047 919.519,318.313 922.76,320.623 926.001,322.976 929.243,325.373 932.484,327.813 935.726,330.297 938.967,332.823 942.208,335.392 945.45,338.003 948.691,340.657 951.933,343.352 955.174,346.088 958.415,348.866 961.657,351.685 964.898,354.544 968.139,357.444 971.381,360.384 974.622,363.364 977.864,366.383 981.105,369.442 984.346,372.539 987.588,375.676 990.829,378.85 994.071,382.062 997.312,385.312 1000.55,388.6 1003.79,391.924 1007.04,395.285 1010.28,398.682 1013.52,402.116 1016.76,405.585 1020,409.089 1023.24,412.628 1026.48,416.202 1029.73,419.81 1032.97,423.452 1036.21,427.128 1039.45,430.836 1042.69,434.578 1045.93,438.351 1049.17,442.157 1052.42,445.995 1055.66,449.863 1058.9,453.763 1062.14,457.693 1065.38,461.653 1068.62,465.643 1071.86,469.662 1075.11,473.71 1078.35,477.787 1081.59,481.891 1084.83,486.024 1088.07,490.183 1091.31,494.37 1094.55,498.582 1097.79,502.821 1101.04,507.086 1104.28,511.375 1107.52,515.689 1110.76,520.028 1114,524.39 1117.24,528.776 1120.48,533.185 1123.73,537.616 1126.97,542.07 1130.21,546.545 1133.45,551.041 1136.69,555.558 1139.93,560.096 1143.17,564.653 1146.42,569.23 1149.66,573.825 1152.9,578.439 1156.14,583.071 1159.38,587.721 1162.62,592.387 1165.86,597.071 1169.11,601.77 1172.35,606.485 1175.59,611.216 1178.83,615.961 1182.07,620.72 1185.31,625.493 1188.55,630.28 1191.8,635.079 1195.04,639.891 1198.28,644.714 1201.52,649.549 1204.76,654.395 1208,659.251 1211.24,664.117 1214.48,668.993 1217.73,673.878 1220.97,678.771 1224.21,683.672 1227.45,688.58 1230.69,693.496 1233.93,698.418 1237.17,703.346 1240.42,708.279 1243.66,713.218 1246.9,718.161 1250.14,723.108 1253.38,728.059 1256.62,733.013 1259.86,737.969 1263.11,742.928 1266.35,747.887 1269.59,752.849 1272.83,757.81 1276.07,762.772 1279.31,767.733 1282.55,772.694 1285.8,777.653 1289.04,782.61 1292.28,787.564 1295.52,792.516 1298.76,797.464 1302,802.409 1305.24,807.349 1308.48,812.284 1311.73,817.214 1314.97,822.138 1318.21,827.056 1321.45,831.967 1324.69,836.87 1327.93,841.766 1331.17,846.653 1334.42,851.531 1337.66,856.401 1340.9,861.26 1344.14,866.109 1347.38,870.948 1350.62,875.775 1353.86,880.59 1357.11,885.394 1360.35,890.184 1363.59,894.962 1366.83,899.726 1370.07,904.475 1373.31,909.21 1376.55,913.93 1379.8,918.635 1383.04,923.323 1386.28,927.995 1389.52,932.651 1392.76,937.288 1396,941.908 1399.24,946.51 1402.49,951.092 1405.73,955.656 1408.97,960.199 1412.21,964.723 1415.45,969.226 1418.69,973.708 1421.93,978.168 1425.17,982.607 1428.42,987.023 1431.66,991.416 1434.9,995.786 1438.14,1000.13 1441.38,1004.45 1444.62,1008.75 1447.86,1013.02 1451.11,1017.27 1454.35,1021.49 1457.59,1025.69 1460.83,1029.86 1464.07,1034 1467.31,1038.11 1470.55,1042.2 1473.8,1046.25 1477.04,1050.28 1480.28,1054.28 1483.52,1058.25 1486.76,1062.19 1490,1066.1 1493.24,1069.98 1496.49,1073.82 1499.73,1077.64 1502.97,1081.42 1506.21,1085.18 1509.45,1088.9 1512.69,1092.58 1515.93,1096.23 1519.18,1099.85 1522.42,1103.44 1525.66,1106.99 1528.9,1110.5 1532.14,1113.98 1535.38,1117.43 1538.62,1120.84 1541.86,1124.21 1545.11,1127.55 1548.35,1130.85 1551.59,1134.11 1554.83,1137.33 1558.07,1140.52 1561.31,1143.67 1564.55,1146.78 1567.8,1149.85 1571.04,1152.88 1574.28,1155.87 1577.52,1158.82 1580.76,1161.74 1584,1164.61 1587.24,1167.44 1590.49,1170.23 1593.73,1172.98 1596.97,1175.69 1600.21,1178.36 1603.45,1180.98 1606.69,1183.56 1609.93,1186.1 1613.18,1188.6 1616.42,1191.06 1619.66,1193.47 1622.9,1195.83 1626.14,1198.16 1629.38,1200.44 1632.62,1202.67 1635.86,1204.86 1639.11,1207.01 1642.35,1209.11 1645.59,1211.17 1648.83,1213.18 1652.07,1215.15 1655.31,1217.07 1658.55,1218.94 1661.8,1220.77 1665.04,1222.55 1668.28,1224.29 1671.52,1225.98 1674.76,1227.62 1678,1229.21 1681.24,1230.76 1684.49,1232.26 1687.73,1233.72 1690.97,1235.12 1694.21,1236.48 1697.45,1237.79 1700.69,1239.06 1703.93,1240.27 1707.18,1241.44 1710.42,1242.56 1713.66,1243.63 1716.9,1244.65 1720.14,1245.62 1723.38,1246.55 1726.62,1247.42 1729.87,1248.25 1733.11,1249.03 1736.35,1249.75 1739.59,1250.43 1742.83,1251.06 1746.07,1251.65 1749.31,1252.18 1752.55,1252.66 1755.8,1253.09 1759.04,1253.48 1762.28,1253.81 1765.52,1254.1 1768.76,1254.33 1772,1254.52 1775.24,1254.65 1778.49,1254.74 1781.73,1254.77 1784.97,1254.76 1788.21,1254.7 1791.45,1254.59 1794.69,1254.43 1797.93,1254.21 1801.18,1253.95 1804.42,1253.64 1807.66,1253.28 1810.9,1252.87 1814.14,1252.41 1817.38,1251.91 1820.62,1251.35 1823.87,1250.74 1827.11,1250.09 1830.35,1249.38 1833.59,1248.63 1836.83,1247.82 1840.07,1246.97 1843.31,1246.07 1846.55,1245.12 1849.8,1244.12 1853.04,1243.07 1856.28,1241.98 1859.52,1240.84 1862.76,1239.64 1866,1238.4 1869.24,1237.11 1872.49,1235.78 1875.73,1234.4 1878.97,1232.96 1882.21,1231.49 1885.45,1229.96 1888.69,1228.39 1891.93,1226.77 1895.18,1225.1 1898.42,1223.39 1901.66,1221.63 1904.9,1219.82 1908.14,1217.97 1911.38,1216.07 1914.62,1214.12 1917.87,1212.13 1921.11,1210.1 1924.35,1208.02 1927.59,1205.89 1930.83,1203.72 1934.07,1201.51 1937.31,1199.25 1940.56,1196.95 1943.8,1194.6 1947.04,1192.21 1950.28,1189.78 1953.52,1187.3 1956.76,1184.78 1960,1182.22 1963.24,1179.62 1966.49,1176.97 1969.73,1174.28 1972.97,1171.55 1976.21,1168.78 1979.45,1165.97 1982.69,1163.11 1985.93,1160.22 1989.18,1157.29 1992.42,1154.31 1995.66,1151.3 1998.9,1148.25 2002.14,1145.16 2005.38,1142.03 2008.62,1138.86 2011.87,1135.65 2015.11,1132.41 2018.35,1129.13 2021.59,1125.81 2024.83,1122.45 2028.07,1119.06 2031.31,1115.63 2034.56,1112.17 2037.8,1108.67 2041.04,1105.14 2044.28,1101.57 2047.52,1097.97 2050.76,1094.33 2054,1090.66 2057.24,1086.96 2060.49,1083.22 2063.73,1079.45 2066.97,1075.65 2070.21,1071.82 2073.45,1067.96 2076.69,1064.06 2079.93,1060.14 2083.18,1056.18 2086.42,1052.2 2089.66,1048.18 2092.9,1044.14 2096.14,1040.07 2099.38,1035.97 2102.62,1031.84 2105.87,1027.68 2109.11,1023.5 2112.35,1019.29 2115.59,1015.06 2118.83,1010.8 2122.07,1006.51 2125.31,1002.2 2128.56,997.865 2131.8,993.507 2135.04,989.125 2138.28,984.72 2141.52,980.292 2144.76,975.842 2148,971.37 2151.25,966.877 2154.49,962.363 2157.73,957.829 2160.97,953.275 2164.21,948.701 2167.45,944.109 2170.69,939.498 2173.93,934.869 2177.18,930.222 2180.42,925.558 2183.66,920.877 2186.9,916.18 2190.14,911.467 2193.38,906.739 2196.62,901.997 2199.87,897.24 2203.11,892.469 2206.35,887.684 2209.59,882.887 2212.83,878.077 2216.07,873.256 2219.31,868.422 2222.56,863.578 2225.8,858.724 2229.04,853.859 2232.28,848.985 2235.52,844.102 2238.76,839.21 2242,834.31 2245.25,829.403 2248.49,824.489 2251.73,819.567 2254.97,814.64 2258.21,809.708 2261.45,804.77 2264.69,799.827 2267.94,794.881 2271.18,789.931 2274.42,784.977 2277.66,780.021 2280.9,775.063 2284.14,770.103 2287.38,765.142 2290.62,760.181 "/>
<circle clip-path="url(#clip841)" cx="981.105" cy="468.784" r="14.4" fill="#e26f46" fill-rule="evenodd" fill-opacity="1" stroke="#000000" stroke-opacity="1" stroke-width="3.2"/>
<circle clip-path="url(#clip841)" cx="400.897" cy="429.675" r="14.4" fill="#e26f46" fill-rule="evenodd" fill-opacity="1" stroke="#000000" stroke-opacity="1" stroke-width="3.2"/>
<circle clip-path="url(#clip841)" cx="1875.73" cy="1252.9" r="14.4" fill="#e26f46" fill-rule="evenodd" fill-opacity="1" stroke="#000000" stroke-opacity="1" stroke-width="3.2"/>
<circle clip-path="url(#clip841)" cx="1616.42" cy="1273.13" r="14.4" fill="#e26f46" fill-rule="evenodd" fill-opacity="1" stroke="#000000" stroke-opacity="1" stroke-width="3.2"/>
<circle clip-path="url(#clip841)" cx="2112.35" cy="907.622" r="14.4" fill="#e26f46" fill-rule="evenodd" fill-opacity="1" stroke="#000000" stroke-opacity="1" stroke-width="3.2"/>
<circle clip-path="url(#clip841)" cx="734.76" cy="146.087" r="14.4" fill="#e26f46" fill-rule="evenodd" fill-opacity="1" stroke="#000000" stroke-opacity="1" stroke-width="3.2"/>
<circle clip-path="url(#clip841)" cx="1191.8" cy="654.879" r="14.4" fill="#e26f46" fill-rule="evenodd" fill-opacity="1" stroke="#000000" stroke-opacity="1" stroke-width="3.2"/>
<circle clip-path="url(#clip841)" cx="799.587" cy="321.168" r="14.4" fill="#e26f46" fill-rule="evenodd" fill-opacity="1" stroke="#000000" stroke-opacity="1" stroke-width="3.2"/>
<circle clip-path="url(#clip841)" cx="1117.24" cy="482.519" r="14.4" fill="#e26f46" fill-rule="evenodd" fill-opacity="1" stroke="#000000" stroke-opacity="1" stroke-width="3.2"/>
<circle clip-path="url(#clip841)" cx="2216.07" cy="983.232" r="14.4" fill="#e26f46" fill-rule="evenodd" fill-opacity="1" stroke="#000000" stroke-opacity="1" stroke-width="3.2"/>
<circle clip-path="url(#clip841)" cx="1156.14" cy="507.616" r="14.4" fill="#e26f46" fill-rule="evenodd" fill-opacity="1" stroke="#000000" stroke-opacity="1" stroke-width="3.2"/>
<circle clip-path="url(#clip841)" cx="819.036" cy="145.621" r="14.4" fill="#e26f46" fill-rule="evenodd" fill-opacity="1" stroke="#000000" stroke-opacity="1" stroke-width="3.2"/>
<circle clip-path="url(#clip841)" cx="1133.45" cy="430.641" r="14.4" fill="#e26f46" fill-rule="evenodd" fill-opacity="1" stroke="#000000" stroke-opacity="1" stroke-width="3.2"/>
<circle clip-path="url(#clip841)" cx="815.794" cy="240.685" r="14.4" fill="#e26f46" fill-rule="evenodd" fill-opacity="1" stroke="#000000" stroke-opacity="1" stroke-width="3.2"/>
<circle clip-path="url(#clip841)" cx="1972.97" cy="1093.78" r="14.4" fill="#e26f46" fill-rule="evenodd" fill-opacity="1" stroke="#000000" stroke-opacity="1" stroke-width="3.2"/>
<circle clip-path="url(#clip841)" cx="582.415" cy="361.85" r="14.4" fill="#e26f46" fill-rule="evenodd" fill-opacity="1" stroke="#000000" stroke-opacity="1" stroke-width="3.2"/>
<circle clip-path="url(#clip841)" cx="1982.69" cy="1171.71" r="14.4" fill="#e26f46" fill-rule="evenodd" fill-opacity="1" stroke="#000000" stroke-opacity="1" stroke-width="3.2"/>
<circle clip-path="url(#clip841)" cx="1305.24" cy="751.45" r="14.4" fill="#e26f46" fill-rule="evenodd" fill-opacity="1" stroke="#000000" stroke-opacity="1" stroke-width="3.2"/>
<circle clip-path="url(#clip841)" cx="2254.97" cy="864.414" r="14.4" fill="#e26f46" fill-rule="evenodd" fill-opacity="1" stroke="#000000" stroke-opacity="1" stroke-width="3.2"/>
<circle clip-path="url(#clip841)" cx="1943.8" cy="1127.78" r="14.4" fill="#e26f46" fill-rule="evenodd" fill-opacity="1" stroke="#000000" stroke-opacity="1" stroke-width="3.2"/>
<path clip-path="url(#clip841)" d="M255.035 926.912 L258.276 922.367 L261.517 917.783 L264.759 913.16 L268 908.5 L271.242 903.802 L274.483 899.068 L277.724 894.301 L280.966 889.499 L284.207 884.667 L287.449 879.804 L290.69 874.912 L293.931 869.994 L297.173 865.052 L300.414 860.086 L303.655 855.101 L306.897 850.097 L310.138 845.078 L313.38 840.046 L316.621 835.005 L319.862 829.956 L323.104 824.905 L326.345 819.853 L329.587 814.805 L332.828 809.764 L336.069 804.736 L339.311 799.723 L342.552 794.731 L345.793 789.764 L349.035 784.827 L352.276 779.926 L355.518 775.067 L358.759 770.254 L362 765.494 L365.242 760.792 L368.483 756.157 L371.725 751.593 L374.966 747.107 L378.207 742.708 L381.449 738.401 L384.69 734.193 L387.931 730.093 L391.173 726.107 L394.414 722.242 L397.656 718.506 L400.897 714.905 L404.138 711.444 L407.38 708.117 L410.621 704.916 L413.863 701.832 L417.104 698.857 L420.345 695.982 L423.587 693.197 L426.828 690.496 L430.069 687.869 L433.311 685.307 L436.552 682.804 L439.794 680.35 L443.035 677.939 L446.276 675.563 L449.518 673.214 L452.759 670.887 L456.001 668.575 L459.242 666.271 L462.483 663.969 L465.725 661.666 L468.966 659.355 L472.208 657.032 L475.449 654.692 L478.69 652.333 L481.932 649.949 L485.173 647.539 L488.414 645.099 L491.656 642.628 L494.897 640.122 L498.139 637.581 L501.38 635.003 L504.621 632.388 L507.863 629.734 L511.104 627.042 L514.346 624.312 L517.587 621.544 L520.828 618.74 L524.07 615.9 L527.311 613.027 L530.552 610.122 L533.794 607.187 L537.035 604.225 L540.277 601.24 L543.518 598.233 L546.759 595.21 L550.001 592.173 L553.242 589.126 L556.484 586.075 L559.725 583.024 L562.966 579.977 L566.208 576.94 L569.449 573.917 L572.69 570.915 L575.932 567.938 L579.173 564.992 L582.415 562.082 L585.656 559.212 L588.897 556.379 L592.139 553.577 L595.38 550.802 L598.622 548.048 L601.863 545.311 L605.104 542.585 L608.346 539.865 L611.587 537.148 L614.828 534.429 L618.07 531.705 L621.311 528.97 L624.553 526.223 L627.794 523.46 L631.035 520.678 L634.277 517.874 L637.518 515.047 L640.76 512.196 L644.001 509.318 L647.242 506.413 L650.484 503.48 L653.725 500.519 L656.966 497.53 L660.208 494.515 L663.449 491.473 L666.691 488.407 L669.932 485.319 L673.173 482.211 L676.415 479.085 L679.656 475.946 L682.898 472.796 L686.139 469.64 L689.38 466.483 L692.622 463.331 L695.863 460.188 L699.104 457.06 L702.346 453.956 L705.587 450.882 L708.829 447.845 L712.07 444.855 L715.311 441.921 L718.553 439.051 L721.794 436.256 L725.036 433.548 L728.277 430.936 L731.518 428.432 L734.76 426.05 L738.001 423.799 L741.242 421.68 L744.484 419.693 L747.725 417.836 L750.967 416.11 L754.208 414.517 L757.449 413.057 L760.691 411.733 L763.932 410.547 L767.174 409.505 L770.415 408.611 L773.656 407.869 L776.898 407.287 L780.139 406.872 L783.381 406.631 L786.622 406.574 L789.863 406.708 L793.105 407.044 L796.346 407.592 L799.587 408.362 L802.829 409.363 L806.07 410.601 L809.312 412.082 L812.553 413.812 L815.794 415.794 L819.036 418.031 L822.277 420.519 L825.519 423.24 L828.76 426.174 L832.001 429.303 L835.243 432.608 L838.484 436.069 L841.725 439.67 L844.967 443.393 L848.208 447.222 L851.45 451.141 L854.691 455.135 L857.932 459.191 L861.174 463.296 L864.415 467.437 L867.657 471.603 L870.898 475.784 L874.139 479.969 L877.381 484.149 L880.622 488.317 L883.863 492.463 L887.105 496.582 L890.346 500.667 L893.588 504.712 L896.829 508.711 L900.07 512.661 L903.312 516.556 L906.553 520.394 L909.795 524.171 L913.036 527.883 L916.277 531.53 L919.519 535.109 L922.76 538.618 L926.001 542.057 L929.243 545.425 L932.484 548.722 L935.726 551.948 L938.967 555.103 L942.208 558.189 L945.45 561.206 L948.691 564.156 L951.933 567.04 L955.174 569.861 L958.415 572.622 L961.657 575.324 L964.898 577.97 L968.139 580.564 L971.381 583.108 L974.622 585.607 L977.864 588.062 L981.105 590.478 L984.346 592.858 L987.588 595.198 L990.829 597.497 L994.071 599.751 L997.312 601.957 L1000.55 604.114 L1003.79 606.218 L1007.04 608.266 L1010.28 610.258 L1013.52 612.191 L1016.76 614.064 L1020 615.876 L1023.24 617.625 L1026.48 619.311 L1029.73 620.935 L1032.97 622.496 L1036.21 623.995 L1039.45 625.433 L1042.69 626.813 L1045.93 628.135 L1049.17 629.402 L1052.42 630.619 L1055.66 631.787 L1058.9 632.911 L1062.14 633.997 L1065.38 635.048 L1068.62 636.072 L1071.86 637.074 L1075.11 638.062 L1078.35 639.044 L1081.59 640.029 L1084.83 641.025 L1088.07 642.043 L1091.31 643.095 L1094.55 644.191 L1097.79 645.344 L1101.04 646.568 L1104.28 647.876 L1107.52 649.284 L1110.76 650.807 L1114 652.462 L1117.24 654.265 L1120.48 656.231 L1123.73 658.371 L1126.97 660.694 L1130.21 663.208 L1133.45 665.923 L1136.69 668.846 L1139.93 671.976 L1143.17 675.311 L1146.42 678.847 L1149.66 682.582 L1152.9 686.514 L1156.14 690.64 L1159.38 694.956 L1162.62 699.454 L1165.86 704.12 L1169.11 708.945 L1172.35 713.918 L1175.59 719.029 L1178.83 724.268 L1182.07 729.627 L1185.31 735.096 L1188.55 740.669 L1191.8 746.338 L1195.04 752.095 L1198.28 757.931 L1201.52 763.835 L1204.76 769.796 L1208 775.806 L1211.24 781.856 L1214.48 787.939 L1217.73 794.048 L1220.97 800.175 L1224.21 806.316 L1227.45 812.466 L1230.69 818.62 L1233.93 824.776 L1237.17 830.93 L1240.42 837.081 L1243.66 843.227 L1246.9 849.367 L1250.14 855.501 L1253.38 861.629 L1256.62 867.752 L1259.86 873.872 L1263.11 879.991 L1266.35 886.11 L1269.59 892.233 L1272.83 898.363 L1276.07 904.503 L1279.31 910.658 L1282.55 916.831 L1285.8 923.028 L1289.04 929.252 L1292.28 935.509 L1295.52 941.803 L1298.76 948.141 L1302 954.526 L1305.24 960.965 L1308.48 967.461 L1311.73 974.008 L1314.97 980.603 L1318.21 987.237 L1321.45 993.907 L1324.69 1000.61 L1327.93 1007.33 L1331.17 1014.06 L1334.42 1020.81 L1337.66 1027.57 L1340.9 1034.33 L1344.14 1041.08 L1347.38 1047.83 L1350.62 1054.56 L1353.86 1061.28 L1357.11 1067.97 L1360.35 1074.63 L1363.59 1081.27 L1366.83 1087.87 L1370.07 1094.44 L1373.31 1100.96 L1376.55 1107.44 L1379.8 1113.87 L1383.04 1120.26 L1386.28 1126.59 L1389.52 1132.86 L1392.76 1139.08 L1396 1145.24 L1399.24 1151.34 L1402.49 1157.37 L1405.73 1163.34 L1408.97 1169.24 L1412.21 1175.07 L1415.45 1180.83 L1418.69 1186.51 L1421.93 1192.13 L1425.17 1197.67 L1428.42 1203.13 L1431.66 1208.51 L1434.9 1213.82 L1438.14 1219.04 L1441.38 1224.19 L1444.62 1229.26 L1447.86 1234.24 L1451.11 1239.14 L1454.35 1243.96 L1457.59 1248.69 L1460.83 1253.35 L1464.07 1257.91 L1467.31 1262.4 L1470.55 1266.79 L1473.8 1271.11 L1477.04 1275.34 L1480.28 1279.48 L1483.52 1283.54 L1486.76 1287.51 L1490 1291.41 L1493.24 1295.21 L1496.49 1298.94 L1499.73 1302.58 L1502.97 1306.14 L1506.21 1309.61 L1509.45 1313.01 L1512.69 1316.33 L1515.93 1319.57 L1519.18 1322.73 L1522.42 1325.81 L1525.66 1328.82 L1528.9 1331.76 L1532.14 1334.62 L1535.38 1337.42 L1538.62 1340.15 L1541.86 1342.81 L1545.11 1345.41 L1548.35 1347.94 L1551.59 1350.42 L1554.83 1352.84 L1558.07 1355.21 L1561.31 1357.53 L1564.55 1359.81 L1567.8 1362.04 L1571.04 1364.23 L1574.28 1366.38 L1577.52 1368.5 L1580.76 1370.6 L1584 1372.66 L1587.24 1374.71 L1590.49 1376.74 L1593.73 1378.76 L1596.97 1380.77 L1600.21 1382.77 L1603.45 1384.78 L1606.69 1386.79 L1609.93 1388.81 L1613.18 1390.84 L1616.42 1392.88 L1619.66 1394.94 L1622.9 1397.02 L1626.14 1399.1 L1629.38 1401.19 L1632.62 1403.28 L1635.86 1405.37 L1639.11 1407.45 L1642.35 1409.52 L1645.59 1411.57 L1648.83 1413.6 L1652.07 1415.6 L1655.31 1417.58 L1658.55 1419.51 L1661.8 1421.4 L1665.04 1423.25 L1668.28 1425.05 L1671.52 1426.8 L1674.76 1428.49 L1678 1430.12 L1681.24 1431.68 L1684.49 1433.18 L1687.73 1434.6 L1690.97 1435.96 L1694.21 1437.23 L1697.45 1438.42 L1700.69 1439.53 L1703.93 1440.56 L1707.18 1441.5 L1710.42 1442.35 L1713.66 1443.1 L1716.9 1443.77 L1720.14 1444.34 L1723.38 1444.81 L1726.62 1445.19 L1729.87 1445.47 L1733.11 1445.64 L1736.35 1445.72 L1739.59 1445.69 L1742.83 1445.56 L1746.07 1445.32 L1749.31 1444.98 L1752.55 1444.54 L1755.8 1443.99 L1759.04 1443.33 L1762.28 1442.57 L1765.52 1441.7 L1768.76 1440.72 L1772 1439.64 L1775.24 1438.45 L1778.49 1437.16 L1781.73 1435.76 L1784.97 1434.26 L1788.21 1432.65 L1791.45 1430.94 L1794.69 1429.13 L1797.93 1427.21 L1801.18 1425.19 L1804.42 1423.08 L1807.66 1420.87 L1810.9 1418.56 L1814.14 1416.15 L1817.38 1413.66 L1820.62 1411.07 L1823.87 1408.4 L1827.11 1405.64 L1830.35 1402.8 L1833.59 1399.87 L1836.83 1396.88 L1840.07 1393.8 L1843.31 1390.66 L1846.55 1387.46 L1849.8 1384.19 L1853.04 1380.86 L1856.28 1377.48 L1859.52 1374.06 L1862.76 1370.59 L1866 1367.08 L1869.24 1363.55 L1872.49 1359.99 L1875.73 1356.4 L1878.97 1352.81 L1882.21 1349.2 L1885.45 1345.58 L1888.69 1341.94 L1891.93 1338.3 L1895.18 1334.65 L1898.42 1330.99 L1901.66 1327.33 L1904.9 1323.67 L1908.14 1320.01 L1911.38 1316.35 L1914.62 1312.71 L1917.87 1309.08 L1921.11 1305.47 L1924.35 1301.88 L1927.59 1298.33 L1930.83 1294.83 L1934.07 1291.36 L1937.31 1287.96 L1940.56 1284.62 L1943.8 1281.35 L1947.04 1278.17 L1950.28 1275.07 L1953.52 1272.06 L1956.76 1269.13 L1960 1266.3 L1963.24 1263.55 L1966.49 1260.9 L1969.73 1258.34 L1972.97 1255.88 L1976.21 1253.52 L1979.45 1251.24 L1982.69 1249.05 L1985.93 1246.94 L1989.18 1244.89 L1992.42 1242.89 L1995.66 1240.94 L1998.9 1239.02 L2002.14 1237.13 L2005.38 1235.24 L2008.62 1233.36 L2011.87 1231.48 L2015.11 1229.59 L2018.35 1227.68 L2021.59 1225.75 L2024.83 1223.79 L2028.07 1221.79 L2031.31 1219.76 L2034.56 1217.69 L2037.8 1215.58 L2041.04 1213.42 L2044.28 1211.22 L2047.52 1208.97 L2050.76 1206.67 L2054 1204.34 L2057.24 1201.95 L2060.49 1199.53 L2063.73 1197.06 L2066.97 1194.56 L2070.21 1192.02 L2073.45 1189.46 L2076.69 1186.86 L2079.93 1184.25 L2083.18 1181.62 L2086.42 1178.98 L2089.66 1176.33 L2092.9 1173.68 L2096.14 1171.05 L2099.38 1168.42 L2102.62 1165.82 L2105.87 1163.25 L2109.11 1160.72 L2112.35 1158.23 L2115.59 1155.79 L2118.83 1153.41 L2122.07 1151.06 L2125.31 1148.76 L2128.56 1146.49 L2131.8 1144.26 L2135.04 1142.05 L2138.28 1139.87 L2141.52 1137.71 L2144.76 1135.58 L2148 1133.46 L2151.25 1131.36 L2154.49 1129.28 L2157.73 1127.21 L2160.97 1125.17 L2164.21 1123.14 L2167.45 1121.13 L2170.69 1119.15 L2173.93 1117.19 L2177.18 1115.26 L2180.42 1113.37 L2183.66 1111.51 L2186.9 1109.7 L2190.14 1107.94 L2193.38 1106.23 L2196.62 1104.59 L2199.87 1103.02 L2203.11 1101.52 L2206.35 1100.12 L2209.59 1098.81 L2212.83 1097.61 L2216.07 1096.52 L2219.31 1095.56 L2222.56 1094.72 L2225.8 1094.01 L2229.04 1093.43 L2232.28 1092.99 L2235.52 1092.69 L2238.76 1092.53 L2242 1092.51 L2245.25 1092.65 L2248.49 1092.93 L2251.73 1093.36 L2254.97 1093.95 L2258.21 1094.7 L2261.45 1095.6 L2264.69 1096.63 L2267.94 1097.8 L2271.18 1099.08 L2274.42 1100.48 L2277.66 1101.99 L2280.9 1103.58 L2284.14 1105.26 L2287.38 1107.03 L2290.62 1108.86 L2290.62 648.262 L2287.38 653.08 L2284.14 657.858 L2280.9 662.589 L2277.66 667.265 L2274.42 671.878 L2271.18 676.419 L2267.94 680.881 L2264.69 685.253 L2261.45 689.528 L2258.21 693.696 L2254.97 697.747 L2251.73 701.674 L2248.49 705.474 L2245.25 709.148 L2242 712.695 L2238.76 716.114 L2235.52 719.406 L2232.28 722.57 L2229.04 725.605 L2225.8 728.513 L2222.56 731.291 L2219.31 733.941 L2216.07 736.461 L2212.83 738.854 L2209.59 741.131 L2206.35 743.303 L2203.11 745.383 L2199.87 747.384 L2196.62 749.318 L2193.38 751.195 L2190.14 753.027 L2186.9 754.824 L2183.66 756.597 L2180.42 758.354 L2177.18 760.105 L2173.93 761.858 L2170.69 763.619 L2167.45 765.397 L2164.21 767.197 L2160.97 769.025 L2157.73 770.886 L2154.49 772.784 L2151.25 774.723 L2148 776.707 L2144.76 778.737 L2141.52 780.816 L2138.28 782.946 L2135.04 785.128 L2131.8 787.363 L2128.56 789.65 L2125.31 791.99 L2122.07 794.382 L2118.83 796.826 L2115.59 799.32 L2112.35 801.864 L2109.11 804.457 L2105.87 807.102 L2102.62 809.803 L2099.38 812.565 L2096.14 815.389 L2092.9 818.281 L2089.66 821.242 L2086.42 824.275 L2083.18 827.383 L2079.93 830.568 L2076.69 833.83 L2073.45 837.171 L2070.21 840.592 L2066.97 844.092 L2063.73 847.672 L2060.49 851.33 L2057.24 855.065 L2054 858.875 L2050.76 862.758 L2047.52 866.71 L2044.28 870.728 L2041.04 874.808 L2037.8 878.946 L2034.56 883.134 L2031.31 887.368 L2028.07 891.64 L2024.83 895.942 L2021.59 900.267 L2018.35 904.605 L2015.11 908.947 L2011.87 913.281 L2008.62 917.597 L2005.38 921.881 L2002.14 926.121 L1998.9 930.303 L1995.66 934.413 L1992.42 938.435 L1989.18 942.354 L1985.93 946.152 L1982.69 949.815 L1979.45 953.325 L1976.21 956.677 L1972.97 959.865 L1969.73 962.884 L1966.49 965.735 L1963.24 968.42 L1960 970.939 L1956.76 973.296 L1953.52 975.489 L1950.28 977.522 L1947.04 979.394 L1943.8 981.107 L1940.56 982.662 L1937.31 984.066 L1934.07 985.326 L1930.83 986.449 L1927.59 987.442 L1924.35 988.311 L1921.11 989.061 L1917.87 989.696 L1914.62 990.221 L1911.38 990.64 L1908.14 990.953 L1904.9 991.163 L1901.66 991.272 L1898.42 991.279 L1895.18 991.185 L1891.93 990.988 L1888.69 990.688 L1885.45 990.282 L1882.21 989.768 L1878.97 989.144 L1875.73 988.406 L1872.49 987.554 L1869.24 986.596 L1866 985.541 L1862.76 984.4 L1859.52 983.182 L1856.28 981.896 L1853.04 980.55 L1849.8 979.153 L1846.55 977.713 L1843.31 976.237 L1840.07 974.733 L1836.83 973.207 L1833.59 971.665 L1830.35 970.114 L1827.11 968.56 L1823.87 967.006 L1820.62 965.46 L1817.38 963.924 L1814.14 962.403 L1810.9 960.902 L1807.66 959.424 L1804.42 957.972 L1801.18 956.549 L1797.93 955.158 L1794.69 953.802 L1791.45 952.483 L1788.21 951.202 L1784.97 949.963 L1781.73 948.765 L1778.49 947.611 L1775.24 946.501 L1772 945.437 L1768.76 944.419 L1765.52 943.447 L1762.28 942.522 L1759.04 941.643 L1755.8 940.81 L1752.55 940.023 L1749.31 939.281 L1746.07 938.582 L1742.83 937.927 L1739.59 937.314 L1736.35 936.74 L1733.11 936.204 L1729.87 935.705 L1726.62 935.24 L1723.38 934.806 L1720.14 934.4 L1716.9 934.021 L1713.66 933.663 L1710.42 933.325 L1707.18 933.002 L1703.93 932.691 L1700.69 932.386 L1697.45 932.084 L1694.21 931.779 L1690.97 931.467 L1687.73 931.142 L1684.49 930.799 L1681.24 930.431 L1678 930.032 L1674.76 929.595 L1671.52 929.114 L1668.28 928.582 L1665.04 927.99 L1661.8 927.331 L1658.55 926.598 L1655.31 925.78 L1652.07 924.871 L1648.83 923.86 L1645.59 922.739 L1642.35 921.498 L1639.11 920.128 L1635.86 918.619 L1632.62 916.961 L1629.38 915.144 L1626.14 913.159 L1622.9 910.994 L1619.66 908.64 L1616.42 906.087 L1613.18 903.328 L1609.93 900.371 L1606.69 897.224 L1603.45 893.896 L1600.21 890.399 L1596.97 886.741 L1593.73 882.933 L1590.49 878.983 L1587.24 874.902 L1584 870.698 L1580.76 866.381 L1577.52 861.96 L1574.28 857.443 L1571.04 852.84 L1567.8 848.157 L1564.55 843.403 L1561.31 838.586 L1558.07 833.713 L1554.83 828.791 L1551.59 823.827 L1548.35 818.828 L1545.11 813.8 L1541.86 808.749 L1538.62 803.68 L1535.38 798.6 L1532.14 793.513 L1528.9 788.425 L1525.66 783.34 L1522.42 778.262 L1519.18 773.197 L1515.93 768.148 L1512.69 763.119 L1509.45 758.113 L1506.21 753.135 L1502.97 748.187 L1499.73 743.273 L1496.49 738.396 L1493.24 733.557 L1490 728.76 L1486.76 724.008 L1483.52 719.302 L1480.28 714.644 L1477.04 710.037 L1473.8 705.483 L1470.55 700.982 L1467.31 696.537 L1464.07 692.149 L1460.83 687.819 L1457.59 683.549 L1454.35 679.339 L1451.11 675.19 L1447.86 671.104 L1444.62 667.08 L1441.38 663.119 L1438.14 659.222 L1434.9 655.389 L1431.66 651.62 L1428.42 647.916 L1425.17 644.275 L1421.93 640.698 L1418.69 637.185 L1415.45 633.735 L1412.21 630.348 L1408.97 627.023 L1405.73 623.758 L1402.49 620.554 L1399.24 617.408 L1396 614.321 L1392.76 611.289 L1389.52 608.313 L1386.28 605.389 L1383.04 602.517 L1379.8 599.693 L1376.55 596.917 L1373.31 594.185 L1370.07 591.496 L1366.83 588.845 L1363.59 586.232 L1360.35 583.651 L1357.11 581.1 L1353.86 578.576 L1350.62 576.075 L1347.38 573.593 L1344.14 571.125 L1340.9 568.668 L1337.66 566.217 L1334.42 563.767 L1331.17 561.314 L1327.93 558.853 L1324.69 556.377 L1321.45 553.883 L1318.21 551.364 L1314.97 548.815 L1311.73 546.231 L1308.48 543.605 L1305.24 540.932 L1302 538.209 L1298.76 535.439 L1295.52 532.628 L1292.28 529.781 L1289.04 526.904 L1285.8 524.002 L1282.55 521.081 L1279.31 518.146 L1276.07 515.202 L1272.83 512.253 L1269.59 509.304 L1266.35 506.359 L1263.11 503.421 L1259.86 500.495 L1256.62 497.583 L1253.38 494.687 L1250.14 491.81 L1246.9 488.953 L1243.66 486.117 L1240.42 483.303 L1237.17 480.509 L1233.93 477.737 L1230.69 474.984 L1227.45 472.248 L1224.21 469.527 L1220.97 466.818 L1217.73 464.116 L1214.48 461.417 L1211.24 458.716 L1208 456.006 L1204.76 453.282 L1201.52 450.535 L1198.28 447.757 L1195.04 444.94 L1191.8 442.075 L1188.55 439.153 L1185.31 436.173 L1182.07 433.137 L1178.83 430.043 L1175.59 426.892 L1172.35 423.682 L1169.11 420.412 L1165.86 417.08 L1162.62 413.682 L1159.38 410.218 L1156.14 406.682 L1152.9 403.074 L1149.66 399.395 L1146.42 395.646 L1143.17 391.829 L1139.93 387.948 L1136.69 384.002 L1133.45 379.995 L1130.21 375.93 L1126.97 371.809 L1123.73 367.639 L1120.48 363.424 L1117.24 359.168 L1114 354.878 L1110.76 350.562 L1107.52 346.232 L1104.28 341.898 L1101.04 337.568 L1097.79 333.253 L1094.55 328.96 L1091.31 324.696 L1088.07 320.47 L1084.83 316.286 L1081.59 312.151 L1078.35 308.07 L1075.11 304.046 L1071.86 300.083 L1068.62 296.184 L1065.38 292.351 L1062.14 288.586 L1058.9 284.89 L1055.66 281.263 L1052.42 277.706 L1049.17 274.217 L1045.93 270.797 L1042.69 267.443 L1039.45 264.154 L1036.21 260.928 L1032.97 257.761 L1029.73 254.65 L1026.48 251.593 L1023.24 248.585 L1020 245.622 L1016.76 242.699 L1013.52 239.813 L1010.28 236.957 L1007.04 234.126 L1003.79 231.314 L1000.55 228.517 L997.312 225.727 L994.071 222.938 L990.829 220.144 L987.588 217.339 L984.346 214.516 L981.105 211.668 L977.864 208.792 L974.622 205.891 L971.381 202.972 L968.139 200.043 L964.898 197.11 L961.657 194.181 L958.415 191.261 L955.174 188.357 L951.933 185.475 L948.691 182.622 L945.45 179.804 L942.208 177.025 L938.967 174.291 L935.726 171.608 L932.484 168.98 L929.243 166.413 L926.001 163.909 L922.76 161.473 L919.519 159.109 L916.277 156.82 L913.036 154.609 L909.795 152.479 L906.553 150.432 L903.312 148.469 L900.07 146.594 L896.829 144.806 L893.588 143.107 L890.346 141.496 L887.105 139.974 L883.863 138.541 L880.622 137.194 L877.381 135.934 L874.139 134.757 L870.898 133.66 L867.657 132.642 L864.415 131.697 L861.174 130.821 L857.932 130.01 L854.691 129.257 L851.45 128.556 L848.208 127.9 L844.967 127.281 L841.725 126.69 L838.484 126.119 L835.243 125.557 L832.001 124.994 L828.76 124.42 L825.519 123.824 L822.277 123.193 L819.036 122.519 L815.794 121.788 L812.553 120.995 L809.312 120.134 L806.07 119.204 L802.829 118.204 L799.587 117.132 L796.346 115.99 L793.105 114.786 L789.863 113.53 L786.622 112.233 L783.381 110.905 L780.139 109.556 L776.898 108.196 L773.656 106.832 L770.415 105.475 L767.174 104.132 L763.932 102.81 L760.691 101.516 L757.449 100.256 L754.208 99.0355 L750.967 97.8591 L747.725 96.7312 L744.484 95.6557 L741.242 94.6358 L738.001 93.6745 L734.76 92.7745 L731.518 91.9384 L728.277 91.1708 L725.036 90.4762 L721.794 89.8588 L718.553 89.3228 L715.311 88.8718 L712.07 88.5089 L708.829 88.2371 L705.587 88.0589 L702.346 87.9763 L699.104 87.9911 L695.863 88.1045 L692.622 88.3176 L689.38 88.6309 L686.139 89.0445 L682.898 89.5584 L679.656 90.172 L676.415 90.8844 L673.173 91.6945 L669.932 92.6007 L666.691 93.6012 L663.449 94.6937 L660.208 95.8759 L656.966 97.1448 L653.725 98.4975 L650.484 99.9304 L647.242 101.44 L644.001 103.022 L640.76 104.673 L637.518 106.387 L634.277 108.16 L631.035 109.987 L627.794 111.862 L624.553 113.78 L621.311 115.735 L618.07 117.721 L614.828 119.731 L611.587 121.759 L608.346 123.798 L605.104 125.841 L601.863 127.881 L598.622 129.911 L595.38 131.923 L592.139 133.911 L588.897 135.866 L585.656 137.781 L582.415 139.649 L579.173 141.465 L575.932 143.232 L572.69 144.953 L569.449 146.634 L566.208 148.279 L562.966 149.893 L559.725 151.48 L556.484 153.046 L553.242 154.593 L550.001 156.128 L546.759 157.653 L543.518 159.172 L540.277 160.689 L537.035 162.208 L533.794 163.731 L530.552 165.261 L527.311 166.802 L524.07 168.354 L520.828 169.921 L517.587 171.504 L514.346 173.105 L511.104 174.724 L507.863 176.363 L504.621 178.022 L501.38 179.701 L498.139 181.401 L494.897 183.121 L491.656 184.86 L488.414 186.617 L485.173 188.392 L481.932 190.182 L478.69 191.986 L475.449 193.801 L472.208 195.624 L468.966 197.453 L465.725 199.285 L462.483 201.116 L459.242 202.941 L456.001 204.758 L452.759 206.56 L449.518 208.345 L446.276 210.105 L443.035 211.837 L439.794 213.535 L436.552 215.191 L433.311 216.802 L430.069 218.359 L426.828 219.857 L423.587 221.29 L420.345 222.65 L417.104 223.931 L413.863 225.125 L410.621 226.228 L407.38 227.231 L404.138 228.128 L400.897 228.914 L397.656 229.584 L394.414 230.14 L391.173 230.589 L387.931 230.934 L384.69 231.182 L381.449 231.337 L378.207 231.406 L374.966 231.393 L371.725 231.304 L368.483 231.144 L365.242 230.919 L362 230.633 L358.759 230.291 L355.518 229.899 L352.276 229.46 L349.035 228.979 L345.793 228.461 L342.552 227.909 L339.311 227.327 L336.069 226.719 L332.828 226.088 L329.587 225.437 L326.345 224.771 L323.104 224.09 L319.862 223.399 L316.621 222.7 L313.38 221.995 L310.138 221.286 L306.897 220.575 L303.655 219.865 L300.414 219.157 L297.173 218.453 L293.931 217.755 L290.69 217.063 L287.449 216.379 L284.207 215.705 L280.966 215.041 L277.724 214.389 L274.483 213.749 L271.242 213.122 L268 212.509 L264.759 211.91 L261.517 211.327 L258.276 210.76 L255.035 210.209  Z" fill="#3da44d" fill-rule="evenodd" fill-opacity="0.1"/>
<polyline clip-path="url(#clip841)" style="stroke:#3da44d; stroke-linecap:round; stroke-linejoin:round; stroke-width:8; stroke-opacity:1; fill:none" points="255.035,568.56 258.276,566.564 261.517,564.555 264.759,562.535 268,560.504 271.242,558.462 274.483,556.409 277.724,554.345 280.966,552.27 284.207,550.186 287.449,548.092 290.69,545.988 293.931,543.875 297.173,541.753 300.414,539.622 303.655,537.483 306.897,535.336 310.138,533.182 313.38,531.02 316.621,528.852 319.862,526.678 323.104,524.497 326.345,522.312 329.587,520.121 332.828,517.926 336.069,515.727 339.311,513.525 342.552,511.32 345.793,509.112 349.035,506.903 352.276,504.693 355.518,502.483 358.759,500.272 362,498.063 365.242,495.856 368.483,493.65 371.725,491.448 374.966,489.25 378.207,487.057 381.449,484.869 384.69,482.688 387.931,480.514 391.173,478.348 394.414,476.191 397.656,474.045 400.897,471.91 404.138,469.786 407.38,467.674 410.621,465.572 413.863,463.479 417.104,461.394 420.345,459.316 423.587,457.244 426.828,455.177 430.069,453.114 433.311,451.054 436.552,448.998 439.794,446.942 443.035,444.888 446.276,442.834 449.518,440.78 452.759,438.724 456.001,436.666 459.242,434.606 462.483,432.543 465.725,430.475 468.966,428.404 472.208,426.328 475.449,424.246 478.69,422.159 481.932,420.066 485.173,417.965 488.414,415.858 491.656,413.744 494.897,411.621 498.139,409.491 501.38,407.352 504.621,405.205 507.863,403.048 511.104,400.883 514.346,398.708 517.587,396.524 520.828,394.331 524.07,392.127 527.311,389.914 530.552,387.691 533.794,385.459 537.035,383.217 540.277,380.964 543.518,378.703 546.759,376.431 550.001,374.15 553.242,371.86 556.484,369.56 559.725,367.252 562.966,364.935 566.208,362.609 569.449,360.275 572.69,357.934 575.932,355.585 579.173,353.228 582.415,350.866 585.656,348.496 588.897,346.122 592.139,343.744 595.38,341.363 598.622,338.98 601.863,336.596 605.104,334.213 608.346,331.832 611.587,329.454 614.828,327.08 618.07,324.713 621.311,322.353 624.553,320.002 627.794,317.661 631.035,315.332 634.277,313.017 637.518,310.717 640.76,308.434 644.001,306.17 647.242,303.926 650.484,301.705 653.725,299.508 656.966,297.337 660.208,295.195 663.449,293.083 666.691,291.004 669.932,288.96 673.173,286.953 676.415,284.985 679.656,283.059 682.898,281.177 686.139,279.342 689.38,277.557 692.622,275.824 695.863,274.146 699.104,272.526 702.346,270.966 705.587,269.47 708.829,268.041 712.07,266.682 715.311,265.396 718.553,264.187 721.794,263.058 725.036,262.012 728.277,261.053 731.518,260.185 734.76,259.412 738.001,258.737 741.242,258.158 744.484,257.674 747.725,257.284 750.967,256.985 754.208,256.776 757.449,256.656 760.691,256.624 763.932,256.679 767.174,256.819 770.415,257.043 773.656,257.351 776.898,257.741 780.139,258.214 783.381,258.768 786.622,259.403 789.863,260.119 793.105,260.915 796.346,261.791 799.587,262.747 802.829,263.783 806.07,264.903 809.312,266.108 812.553,267.403 815.794,268.791 819.036,270.275 822.277,271.856 825.519,273.532 828.76,275.297 832.001,277.149 835.243,279.082 838.484,281.094 841.725,283.18 844.967,285.337 848.208,287.561 851.45,289.849 854.691,292.196 857.932,294.601 861.174,297.059 864.415,299.567 867.657,302.122 870.898,304.722 874.139,307.363 877.381,310.041 880.622,312.756 883.863,315.502 887.105,318.278 890.346,321.082 893.588,323.909 896.829,326.759 900.07,329.627 903.312,332.513 906.553,335.413 909.795,338.325 913.036,341.246 916.277,344.175 919.519,347.109 922.76,350.046 926.001,352.983 929.243,355.919 932.484,358.851 935.726,361.778 938.967,364.697 942.208,367.607 945.45,370.505 948.691,373.389 951.933,376.258 955.174,379.109 958.415,381.941 961.657,384.752 964.898,387.54 968.139,390.303 971.381,393.04 974.622,395.749 977.864,398.427 981.105,401.073 984.346,403.687 987.588,406.269 990.829,408.821 994.071,411.345 997.312,413.842 1000.55,416.315 1003.79,418.766 1007.04,421.196 1010.28,423.607 1013.52,426.002 1016.76,428.382 1020,430.749 1023.24,433.105 1026.48,435.452 1029.73,437.792 1032.97,440.128 1036.21,442.461 1039.45,444.794 1042.69,447.128 1045.93,449.466 1049.17,451.81 1052.42,454.162 1055.66,456.525 1058.9,458.9 1062.14,461.291 1065.38,463.7 1068.62,466.128 1071.86,468.579 1075.11,471.054 1078.35,473.557 1081.59,476.09 1084.83,478.656 1088.07,481.257 1091.31,483.896 1094.55,486.575 1097.79,489.298 1101.04,492.068 1104.28,494.887 1107.52,497.758 1110.76,500.685 1114,503.67 1117.24,506.716 1120.48,509.827 1123.73,513.005 1126.97,516.251 1130.21,519.569 1133.45,522.959 1136.69,526.424 1139.93,529.962 1143.17,533.57 1146.42,537.246 1149.66,540.988 1152.9,544.794 1156.14,548.661 1159.38,552.587 1162.62,556.568 1165.86,560.6 1169.11,564.679 1172.35,568.8 1175.59,572.961 1178.83,577.156 1182.07,581.382 1185.31,585.635 1188.55,589.911 1191.8,594.206 1195.04,598.518 1198.28,602.844 1201.52,607.185 1204.76,611.539 1208,615.906 1211.24,620.286 1214.48,624.678 1217.73,629.082 1220.97,633.496 1224.21,637.921 1227.45,642.357 1230.69,646.802 1233.93,651.256 1237.17,655.72 1240.42,660.192 1243.66,664.672 1246.9,669.16 1250.14,673.655 1253.38,678.158 1256.62,682.668 1259.86,687.184 1263.11,691.706 1266.35,696.234 1269.59,700.768 1272.83,705.308 1276.07,709.852 1279.31,714.402 1282.55,718.956 1285.8,723.515 1289.04,728.078 1292.28,732.645 1295.52,737.216 1298.76,741.79 1302,746.368 1305.24,750.949 1308.48,755.533 1311.73,760.12 1314.97,764.709 1318.21,769.301 1321.45,773.895 1324.69,778.491 1327.93,783.089 1331.17,787.69 1334.42,792.291 1337.66,796.894 1340.9,801.499 1344.14,806.104 1347.38,810.711 1350.62,815.318 1353.86,819.926 1357.11,824.534 1360.35,829.142 1363.59,833.75 1366.83,838.358 1370.07,842.966 1373.31,847.573 1376.55,852.179 1379.8,856.784 1383.04,861.387 1386.28,865.989 1389.52,870.589 1392.76,875.186 1396,879.781 1399.24,884.374 1402.49,888.963 1405.73,893.549 1408.97,898.131 1412.21,902.708 1415.45,907.282 1418.69,911.85 1421.93,916.413 1425.17,920.97 1428.42,925.521 1431.66,930.066 1434.9,934.603 1438.14,939.133 1441.38,943.655 1444.62,948.168 1447.86,952.672 1451.11,957.166 1454.35,961.649 1457.59,966.122 1460.83,970.583 1464.07,975.031 1467.31,979.466 1470.55,983.888 1473.8,988.295 1477.04,992.687 1480.28,997.062 1483.52,1001.42 1486.76,1005.76 1490,1010.08 1493.24,1014.38 1496.49,1018.67 1499.73,1022.93 1502.97,1027.16 1506.21,1031.37 1509.45,1035.56 1512.69,1039.72 1515.93,1043.86 1519.18,1047.96 1522.42,1052.04 1525.66,1056.08 1528.9,1060.09 1532.14,1064.07 1535.38,1068.01 1538.62,1071.91 1541.86,1075.78 1545.11,1079.6 1548.35,1083.39 1551.59,1087.12 1554.83,1090.82 1558.07,1094.46 1561.31,1098.06 1564.55,1101.61 1567.8,1105.1 1571.04,1108.53 1574.28,1111.91 1577.52,1115.23 1580.76,1118.49 1584,1121.68 1587.24,1124.81 1590.49,1127.86 1593.73,1130.85 1596.97,1133.76 1600.21,1136.59 1603.45,1139.34 1606.69,1142.01 1609.93,1144.59 1613.18,1147.08 1616.42,1149.48 1619.66,1151.79 1622.9,1154.01 1626.14,1156.13 1629.38,1158.17 1632.62,1160.12 1635.86,1162 1639.11,1163.79 1642.35,1165.51 1645.59,1167.16 1648.83,1168.73 1652.07,1170.24 1655.31,1171.68 1658.55,1173.05 1661.8,1174.37 1665.04,1175.62 1668.28,1176.82 1671.52,1177.96 1674.76,1179.04 1678,1180.08 1681.24,1181.06 1684.49,1181.99 1687.73,1182.87 1690.97,1183.71 1694.21,1184.5 1697.45,1185.25 1700.69,1185.96 1703.93,1186.62 1707.18,1187.25 1710.42,1187.84 1713.66,1188.38 1716.9,1188.9 1720.14,1189.37 1723.38,1189.81 1726.62,1190.21 1729.87,1190.59 1733.11,1190.92 1736.35,1191.23 1739.59,1191.5 1742.83,1191.74 1746.07,1191.95 1749.31,1192.13 1752.55,1192.28 1755.8,1192.4 1759.04,1192.49 1762.28,1192.54 1765.52,1192.57 1768.76,1192.57 1772,1192.54 1775.24,1192.48 1778.49,1192.39 1781.73,1192.26 1784.97,1192.11 1788.21,1191.93 1791.45,1191.71 1794.69,1191.46 1797.93,1191.18 1801.18,1190.87 1804.42,1190.53 1807.66,1190.15 1810.9,1189.73 1814.14,1189.28 1817.38,1188.79 1820.62,1188.27 1823.87,1187.7 1827.11,1187.1 1830.35,1186.46 1833.59,1185.77 1836.83,1185.04 1840.07,1184.27 1843.31,1183.45 1846.55,1182.58 1849.8,1181.67 1853.04,1180.71 1856.28,1179.69 1859.52,1178.62 1862.76,1177.49 1866,1176.31 1869.24,1175.07 1872.49,1173.77 1875.73,1172.4 1878.97,1170.98 1882.21,1169.48 1885.45,1167.93 1888.69,1166.32 1891.93,1164.64 1895.18,1162.92 1898.42,1161.14 1901.66,1159.3 1904.9,1157.42 1908.14,1155.48 1911.38,1153.5 1914.62,1151.46 1917.87,1149.39 1921.11,1147.26 1924.35,1145.1 1927.59,1142.89 1930.83,1140.64 1934.07,1138.34 1937.31,1136.01 1940.56,1133.64 1943.8,1131.23 1947.04,1128.78 1950.28,1126.3 1953.52,1123.77 1956.76,1121.21 1960,1118.62 1963.24,1115.99 1966.49,1113.32 1969.73,1110.61 1972.97,1107.87 1976.21,1105.1 1979.45,1102.28 1982.69,1099.43 1985.93,1096.54 1989.18,1093.62 1992.42,1090.66 1995.66,1087.68 1998.9,1084.66 2002.14,1081.62 2005.38,1078.56 2008.62,1075.48 2011.87,1072.38 2015.11,1069.27 2018.35,1066.14 2021.59,1063.01 2024.83,1059.86 2028.07,1056.72 2031.31,1053.56 2034.56,1050.41 2037.8,1047.26 2041.04,1044.11 2044.28,1040.97 2047.52,1037.84 2050.76,1034.72 2054,1031.61 2057.24,1028.51 2060.49,1025.43 2063.73,1022.37 2066.97,1019.33 2070.21,1016.31 2073.45,1013.31 2076.69,1010.35 2079.93,1007.41 2083.18,1004.5 2086.42,1001.63 2089.66,998.786 2092.9,995.982 2096.14,993.218 2099.38,990.494 2102.62,987.813 2105.87,985.177 2109.11,982.587 2112.35,980.047 2115.59,977.557 2118.83,975.116 2122.07,972.722 2125.31,970.374 2128.56,968.071 2131.8,965.81 2135.04,963.589 2138.28,961.408 2141.52,959.264 2144.76,957.156 2148,955.083 2151.25,953.041 2154.49,951.031 2157.73,949.05 2160.97,947.096 2164.21,945.168 2167.45,943.265 2170.69,941.384 2173.93,939.524 2177.18,937.684 2180.42,935.861 2183.66,934.054 2186.9,932.261 2190.14,930.481 2193.38,928.712 2196.62,926.953 2199.87,925.2 2203.11,923.454 2206.35,921.712 2209.59,919.972 2212.83,918.232 2216.07,916.492 2219.31,914.749 2222.56,913.005 2225.8,911.261 2229.04,909.519 2232.28,907.781 2235.52,906.048 2238.76,904.322 2242,902.604 2245.25,900.896 2248.49,899.2 2251.73,897.518 2254.97,895.85 2258.21,894.198 2261.45,892.562 2264.69,890.942 2267.94,889.339 2271.18,887.752 2274.42,886.18 2277.66,884.625 2280.9,883.085 2284.14,881.561 2287.38,880.053 2290.62,878.56 "/>
<polyline clip-path="url(#clip841)" style="stroke:#c271d2; stroke-linecap:round; stroke-linejoin:round; stroke-width:12; stroke-opacity:1; fill:none" points="255.035,810.265 362.225,678.171 469.416,583.868 576.607,498.24 683.797,409.665 790.988,359.142 898.179,450.986 1005.37,546.262 1112.56,603.086 1219.75,743.827 1326.94,932.488 1434.13,1121.74 "/>
<polyline clip-path="url(#clip841)" style="stroke:#c271d2; stroke-linecap:round; stroke-linejoin:round; stroke-width:12; stroke-opacity:1; fill:none" points="1648.51,1333.71 1755.7,1362.1 1862.89,1307.62 1970.09,1209.97 2077.28,1128.92 2184.47,1053.29 2291.66,1034.14 "/>
<polyline clip-path="url(#clip841)" style="stroke:#ac8d18; stroke-linecap:round; stroke-linejoin:round; stroke-width:12; stroke-opacity:1; fill:none" points="255.035,326.855 362.225,317.649 469.416,272.365 576.607,211.949 683.797,151.662 790.988,161.63 898.179,204.916 1005.37,293.636 1112.56,401.583 1219.75,519.848 1326.94,630.876 1434.13,745.321 "/>
<polyline clip-path="url(#clip841)" style="stroke:#ac8d18; stroke-linecap:round; stroke-linejoin:round; stroke-width:12; stroke-opacity:1; fill:none" points="1648.51,1003.45 1755.7,1022.69 1862.89,1047.27 1970.09,1010.65 2077.28,890.716 2184.47,813.918 2291.66,722.032 "/>
<path clip-path="url(#clip840)" d="M1953.46 406.258 L2280.8 406.258 L2280.8 95.2176 L1953.46 95.2176  Z" fill="#ffffff" fill-rule="evenodd" fill-opacity="1"/>
<polyline clip-path="url(#clip840)" style="stroke:#000000; stroke-linecap:round; stroke-linejoin:round; stroke-width:4; stroke-opacity:1; fill:none" points="1953.46,406.258 2280.8,406.258 2280.8,95.2176 1953.46,95.2176 1953.46,406.258 "/>
<polyline clip-path="url(#clip840)" style="stroke:#009af9; stroke-linecap:round; stroke-linejoin:round; stroke-width:4; stroke-opacity:1; fill:none" points="1977.44,147.058 2121.36,147.058 "/>
<path clip-path="url(#clip840)" d="M2152.76 131.051 L2152.76 138.412 L2161.53 138.412 L2161.53 141.722 L2152.76 141.722 L2152.76 155.796 Q2152.76 158.967 2153.61 159.87 Q2154.49 160.773 2157.16 160.773 L2161.53 160.773 L2161.53 164.338 L2157.16 164.338 Q2152.23 164.338 2150.35 162.509 Q2148.48 160.657 2148.48 155.796 L2148.48 141.722 L2145.35 141.722 L2145.35 138.412 L2148.48 138.412 L2148.48 131.051 L2152.76 131.051 Z" fill="#000000" fill-rule="nonzero" fill-opacity="1" /><path clip-path="url(#clip840)" d="M2182.16 142.393 Q2181.44 141.977 2180.58 141.791 Q2179.75 141.583 2178.73 141.583 Q2175.12 141.583 2173.17 143.944 Q2171.25 146.282 2171.25 150.68 L2171.25 164.338 L2166.97 164.338 L2166.97 138.412 L2171.25 138.412 L2171.25 142.44 Q2172.6 140.078 2174.75 138.944 Q2176.9 137.787 2179.98 137.787 Q2180.42 137.787 2180.95 137.856 Q2181.48 137.903 2182.13 138.018 L2182.16 142.393 Z" fill="#000000" fill-rule="nonzero" fill-opacity="1" /><path clip-path="url(#clip840)" d="M2186.18 154.106 L2186.18 138.412 L2190.44 138.412 L2190.44 153.944 Q2190.44 157.625 2191.88 159.476 Q2193.31 161.305 2196.18 161.305 Q2199.63 161.305 2201.62 159.106 Q2203.64 156.907 2203.64 153.111 L2203.64 138.412 L2207.9 138.412 L2207.9 164.338 L2203.64 164.338 L2203.64 160.356 Q2202.09 162.717 2200.03 163.875 Q2197.99 165.009 2195.28 165.009 Q2190.81 165.009 2188.5 162.231 Q2186.18 159.453 2186.18 154.106 M2196.9 137.787 L2196.9 137.787 Z" fill="#000000" fill-rule="nonzero" fill-opacity="1" /><path clip-path="url(#clip840)" d="M2220.88 131.051 L2220.88 138.412 L2229.66 138.412 L2229.66 141.722 L2220.88 141.722 L2220.88 155.796 Q2220.88 158.967 2221.74 159.87 Q2222.62 160.773 2225.28 160.773 L2229.66 160.773 L2229.66 164.338 L2225.28 164.338 Q2220.35 164.338 2218.48 162.509 Q2216.6 160.657 2216.6 155.796 L2216.6 141.722 L2213.48 141.722 L2213.48 138.412 L2216.6 138.412 L2216.6 131.051 L2220.88 131.051 Z" fill="#000000" fill-rule="nonzero" fill-opacity="1" /><path clip-path="url(#clip840)" d="M2256.81 148.689 L2256.81 164.338 L2252.55 164.338 L2252.55 148.828 Q2252.55 145.148 2251.11 143.319 Q2249.68 141.49 2246.81 141.49 Q2243.36 141.49 2241.37 143.69 Q2239.38 145.889 2239.38 149.685 L2239.38 164.338 L2235.1 164.338 L2235.1 128.319 L2239.38 128.319 L2239.38 142.44 Q2240.91 140.102 2242.97 138.944 Q2245.05 137.787 2247.76 137.787 Q2252.23 137.787 2254.52 140.565 Q2256.81 143.319 2256.81 148.689 Z" fill="#000000" fill-rule="nonzero" fill-opacity="1" /><circle clip-path="url(#clip840)" cx="2049.4" cy="198.898" r="20.48" fill="#e26f46" fill-rule="evenodd" fill-opacity="1" stroke="#000000" stroke-opacity="1" stroke-width="4.55111"/>
<path clip-path="url(#clip840)" d="M2164.26 194.187 L2164.26 180.159 L2168.52 180.159 L2168.52 216.178 L2164.26 216.178 L2164.26 212.289 Q2162.92 214.603 2160.86 215.738 Q2158.82 216.849 2155.95 216.849 Q2151.25 216.849 2148.29 213.099 Q2145.35 209.349 2145.35 203.238 Q2145.35 197.127 2148.29 193.377 Q2151.25 189.627 2155.95 189.627 Q2158.82 189.627 2160.86 190.761 Q2162.92 191.872 2164.26 194.187 M2149.75 203.238 Q2149.75 207.937 2151.67 210.622 Q2153.61 213.284 2156.99 213.284 Q2160.37 213.284 2162.32 210.622 Q2164.26 207.937 2164.26 203.238 Q2164.26 198.539 2162.32 195.877 Q2160.37 193.192 2156.99 193.192 Q2153.61 193.192 2151.67 195.877 Q2149.75 198.539 2149.75 203.238 Z" fill="#000000" fill-rule="nonzero" fill-opacity="1" /><path clip-path="url(#clip840)" d="M2189.08 203.145 Q2183.92 203.145 2181.92 204.326 Q2179.93 205.506 2179.93 208.354 Q2179.93 210.622 2181.42 211.965 Q2182.92 213.284 2185.49 213.284 Q2189.03 213.284 2191.16 210.784 Q2193.31 208.261 2193.31 204.094 L2193.31 203.145 L2189.08 203.145 M2197.57 201.386 L2197.57 216.178 L2193.31 216.178 L2193.31 212.242 Q2191.85 214.603 2189.68 215.738 Q2187.5 216.849 2184.36 216.849 Q2180.37 216.849 2178.01 214.627 Q2175.67 212.381 2175.67 208.631 Q2175.67 204.256 2178.59 202.034 Q2181.53 199.812 2187.34 199.812 L2193.31 199.812 L2193.31 199.395 Q2193.31 196.455 2191.37 194.858 Q2189.45 193.238 2185.95 193.238 Q2183.73 193.238 2181.62 193.77 Q2179.52 194.303 2177.57 195.367 L2177.57 191.432 Q2179.91 190.53 2182.11 190.09 Q2184.31 189.627 2186.39 189.627 Q2192.02 189.627 2194.79 192.543 Q2197.57 195.46 2197.57 201.386 Z" fill="#000000" fill-rule="nonzero" fill-opacity="1" /><path clip-path="url(#clip840)" d="M2210.56 182.891 L2210.56 190.252 L2219.33 190.252 L2219.33 193.562 L2210.56 193.562 L2210.56 207.636 Q2210.56 210.807 2211.42 211.71 Q2212.29 212.613 2214.96 212.613 L2219.33 212.613 L2219.33 216.178 L2214.96 216.178 Q2210.03 216.178 2208.15 214.349 Q2206.28 212.497 2206.28 207.636 L2206.28 193.562 L2203.15 193.562 L2203.15 190.252 L2206.28 190.252 L2206.28 182.891 L2210.56 182.891 Z" fill="#000000" fill-rule="nonzero" fill-opacity="1" /><path clip-path="url(#clip840)" d="M2236.72 203.145 Q2231.55 203.145 2229.56 204.326 Q2227.57 205.506 2227.57 208.354 Q2227.57 210.622 2229.05 211.965 Q2230.56 213.284 2233.13 213.284 Q2236.67 213.284 2238.8 210.784 Q2240.95 208.261 2240.95 204.094 L2240.95 203.145 L2236.72 203.145 M2245.21 201.386 L2245.21 216.178 L2240.95 216.178 L2240.95 212.242 Q2239.49 214.603 2237.32 215.738 Q2235.14 216.849 2231.99 216.849 Q2228.01 216.849 2225.65 214.627 Q2223.31 212.381 2223.31 208.631 Q2223.31 204.256 2226.23 202.034 Q2229.17 199.812 2234.98 199.812 L2240.95 199.812 L2240.95 199.395 Q2240.95 196.455 2239.01 194.858 Q2237.09 193.238 2233.59 193.238 Q2231.37 193.238 2229.26 193.77 Q2227.16 194.303 2225.21 195.367 L2225.21 191.432 Q2227.55 190.53 2229.75 190.09 Q2231.95 189.627 2234.03 189.627 Q2239.66 189.627 2242.43 192.543 Q2245.21 195.46 2245.21 201.386 Z" fill="#000000" fill-rule="nonzero" fill-opacity="1" /><polyline clip-path="url(#clip840)" style="stroke:#3da44d; stroke-linecap:round; stroke-linejoin:round; stroke-width:8; stroke-opacity:1; fill:none" points="1977.44,250.738 2121.36,250.738 "/>
<path clip-path="url(#clip840)" d="M2170.91 263.087 L2170.91 253.805 L2163.27 253.805 L2163.27 249.962 L2175.54 249.962 L2175.54 264.8 Q2172.83 266.721 2169.56 267.717 Q2166.3 268.689 2162.6 268.689 Q2154.49 268.689 2149.91 263.967 Q2145.35 259.221 2145.35 250.772 Q2145.35 242.3 2149.91 237.578 Q2154.49 232.833 2162.6 232.833 Q2165.98 232.833 2169.01 233.666 Q2172.06 234.499 2174.63 236.12 L2174.63 241.096 Q2172.04 238.897 2169.12 237.786 Q2166.21 236.675 2162.99 236.675 Q2156.65 236.675 2153.45 240.217 Q2150.28 243.758 2150.28 250.772 Q2150.28 257.763 2153.45 261.305 Q2156.65 264.846 2162.99 264.846 Q2165.47 264.846 2167.41 264.43 Q2169.36 263.99 2170.91 263.087 Z" fill="#000000" fill-rule="nonzero" fill-opacity="1" /><path clip-path="url(#clip840)" d="M2188.75 237.3 L2188.75 250.286 L2194.63 250.286 Q2197.9 250.286 2199.68 248.596 Q2201.46 246.907 2201.46 243.782 Q2201.46 240.68 2199.68 238.99 Q2197.9 237.3 2194.63 237.3 L2188.75 237.3 M2184.08 233.458 L2194.63 233.458 Q2200.44 233.458 2203.41 236.096 Q2206.39 238.712 2206.39 243.782 Q2206.39 248.897 2203.41 251.513 Q2200.44 254.129 2194.63 254.129 L2188.75 254.129 L2188.75 268.018 L2184.08 268.018 L2184.08 233.458 Z" fill="#000000" fill-rule="nonzero" fill-opacity="1" /><polyline clip-path="url(#clip840)" style="stroke:#c271d2; stroke-linecap:round; stroke-linejoin:round; stroke-width:12; stroke-opacity:1; fill:none" points="1977.44,302.578 2121.36,302.578 "/>
<path clip-path="url(#clip840)" d="M2150.03 289.14 L2150.03 302.126 L2155.91 302.126 Q2159.17 302.126 2160.95 300.436 Q2162.73 298.747 2162.73 295.622 Q2162.73 292.52 2160.95 290.83 Q2159.17 289.14 2155.91 289.14 L2150.03 289.14 M2145.35 285.298 L2155.91 285.298 Q2161.72 285.298 2164.68 287.936 Q2167.67 290.552 2167.67 295.622 Q2167.67 300.737 2164.68 303.353 Q2161.72 305.969 2155.91 305.969 L2150.03 305.969 L2150.03 319.858 L2145.35 319.858 L2145.35 285.298 Z" fill="#000000" fill-rule="nonzero" fill-opacity="1" /><path clip-path="url(#clip840)" d="M2178.38 315.922 L2194.7 315.922 L2194.7 319.858 L2172.76 319.858 L2172.76 315.922 Q2175.42 313.168 2180 308.538 Q2184.61 303.885 2185.79 302.543 Q2188.04 300.02 2188.92 298.284 Q2189.82 296.524 2189.82 294.835 Q2189.82 292.08 2187.87 290.344 Q2185.95 288.608 2182.85 288.608 Q2180.65 288.608 2178.2 289.372 Q2175.77 290.135 2172.99 291.686 L2172.99 286.964 Q2175.81 285.83 2178.27 285.251 Q2180.72 284.673 2182.76 284.673 Q2188.13 284.673 2191.32 287.358 Q2194.52 290.043 2194.52 294.534 Q2194.52 296.663 2193.71 298.585 Q2192.92 300.483 2190.81 303.075 Q2190.23 303.747 2187.13 306.964 Q2184.03 310.159 2178.38 315.922 Z" fill="#000000" fill-rule="nonzero" fill-opacity="1" /><path clip-path="url(#clip840)" d="M2204.56 285.298 L2222.92 285.298 L2222.92 289.233 L2208.85 289.233 L2208.85 297.705 Q2209.86 297.358 2210.88 297.196 Q2211.9 297.01 2212.92 297.01 Q2218.71 297.01 2222.09 300.182 Q2225.47 303.353 2225.47 308.77 Q2225.47 314.348 2221.99 317.45 Q2218.52 320.529 2212.2 320.529 Q2210.03 320.529 2207.76 320.158 Q2205.51 319.788 2203.1 319.047 L2203.1 314.348 Q2205.19 315.483 2207.41 316.038 Q2209.63 316.594 2212.11 316.594 Q2216.11 316.594 2218.45 314.487 Q2220.79 312.381 2220.79 308.77 Q2220.79 305.159 2218.45 303.052 Q2216.11 300.946 2212.11 300.946 Q2210.23 300.946 2208.36 301.362 Q2206.51 301.779 2204.56 302.659 L2204.56 285.298 Z" fill="#000000" fill-rule="nonzero" fill-opacity="1" /><polyline clip-path="url(#clip840)" style="stroke:#ac8d18; stroke-linecap:round; stroke-linejoin:round; stroke-width:12; stroke-opacity:1; fill:none" points="1977.44,354.418 2121.36,354.418 "/>
<path clip-path="url(#clip840)" d="M2150.03 340.98 L2150.03 353.966 L2155.91 353.966 Q2159.17 353.966 2160.95 352.276 Q2162.73 350.587 2162.73 347.462 Q2162.73 344.36 2160.95 342.67 Q2159.17 340.98 2155.91 340.98 L2150.03 340.98 M2145.35 337.138 L2155.91 337.138 Q2161.72 337.138 2164.68 339.776 Q2167.67 342.392 2167.67 347.462 Q2167.67 352.577 2164.68 355.193 Q2161.72 357.809 2155.91 357.809 L2150.03 357.809 L2150.03 371.698 L2145.35 371.698 L2145.35 337.138 Z" fill="#000000" fill-rule="nonzero" fill-opacity="1" /><path clip-path="url(#clip840)" d="M2173.17 337.138 L2195.4 337.138 L2195.4 339.128 L2182.85 371.698 L2177.97 371.698 L2189.77 341.073 L2173.17 341.073 L2173.17 337.138 Z" fill="#000000" fill-rule="nonzero" fill-opacity="1" /><path clip-path="url(#clip840)" d="M2204.56 337.138 L2222.92 337.138 L2222.92 341.073 L2208.85 341.073 L2208.85 349.545 Q2209.86 349.198 2210.88 349.036 Q2211.9 348.85 2212.92 348.85 Q2218.71 348.85 2222.09 352.022 Q2225.47 355.193 2225.47 360.61 Q2225.47 366.188 2221.99 369.29 Q2218.52 372.369 2212.2 372.369 Q2210.03 372.369 2207.76 371.998 Q2205.51 371.628 2203.1 370.887 L2203.1 366.188 Q2205.19 367.323 2207.41 367.878 Q2209.63 368.434 2212.11 368.434 Q2216.11 368.434 2218.45 366.327 Q2220.79 364.221 2220.79 360.61 Q2220.79 356.999 2218.45 354.892 Q2216.11 352.786 2212.11 352.786 Q2210.23 352.786 2208.36 353.202 Q2206.51 353.619 2204.56 354.499 L2204.56 337.138 Z" fill="#000000" fill-rule="nonzero" fill-opacity="1" /></svg>
