<?xml version="1.0" encoding="utf-8"?>
<svg xmlns="http://www.w3.org/2000/svg" xmlns:xlink="http://www.w3.org/1999/xlink" width="600" height="400" viewBox="0 0 2400 1600">
<defs>
  <clipPath id="clip810">
    <rect x="0" y="0" width="2400" height="1600"/>
  </clipPath>
</defs>
<path clip-path="url(#clip810)" d="M0 1600 L2400 1600 L2400 0 L0 0  Z" fill="#ffffff" fill-rule="evenodd" fill-opacity="1"/>
<defs>
  <clipPath id="clip811">
    <rect x="193" y="47" width="2160" height="1440"/>
  </clipPath>
</defs>
<path clip-path="url(#clip810)" d="M193.936 1486.45 L2352.76 1486.45 L2352.76 47.2441 L193.936 47.2441  Z" fill="#ffffff" fill-rule="evenodd" fill-opacity="1"/>
<polyline clip-path="url(#clip811)" style="stroke:#000000; stroke-linecap:round; stroke-linejoin:round; stroke-width:2; stroke-opacity:0.1; fill:none" points="255.035,1486.45 255.035,47.2441 "/>
<polyline clip-path="url(#clip811)" style="stroke:#000000; stroke-linecap:round; stroke-linejoin:round; stroke-width:2; stroke-opacity:0.1; fill:none" points="579.338,1486.45 579.338,47.2441 "/>
<polyline clip-path="url(#clip811)" style="stroke:#000000; stroke-linecap:round; stroke-linejoin:round; stroke-width:2; stroke-opacity:0.1; fill:none" points="903.641,1486.45 903.641,47.2441 "/>
<polyline clip-path="url(#clip811)" style="stroke:#000000; stroke-linecap:round; stroke-linejoin:round; stroke-width:2; stroke-opacity:0.1; fill:none" points="1227.94,1486.45 1227.94,47.2441 "/>
<polyline clip-path="url(#clip811)" style="stroke:#000000; stroke-linecap:round; stroke-linejoin:round; stroke-width:2; stroke-opacity:0.1; fill:none" points="1552.25,1486.45 1552.25,47.2441 "/>
<polyline clip-path="url(#clip811)" style="stroke:#000000; stroke-linecap:round; stroke-linejoin:round; stroke-width:2; stroke-opacity:0.1; fill:none" points="1876.55,1486.45 1876.55,47.2441 "/>
<polyline clip-path="url(#clip811)" style="stroke:#000000; stroke-linecap:round; stroke-linejoin:round; stroke-width:2; stroke-opacity:0.1; fill:none" points="2200.85,1486.45 2200.85,47.2441 "/>
<polyline clip-path="url(#clip811)" style="stroke:#000000; stroke-linecap:round; stroke-linejoin:round; stroke-width:2; stroke-opacity:0.1; fill:none" points="193.936,1254.78 2352.76,1254.78 "/>
<polyline clip-path="url(#clip811)" style="stroke:#000000; stroke-linecap:round; stroke-linejoin:round; stroke-width:2; stroke-opacity:0.1; fill:none" points="193.936,1006.69 2352.76,1006.69 "/>
<polyline clip-path="url(#clip811)" style="stroke:#000000; stroke-linecap:round; stroke-linejoin:round; stroke-width:2; stroke-opacity:0.1; fill:none" points="193.936,758.6 2352.76,758.6 "/>
<polyline clip-path="url(#clip811)" style="stroke:#000000; stroke-linecap:round; stroke-linejoin:round; stroke-width:2; stroke-opacity:0.1; fill:none" points="193.936,510.513 2352.76,510.513 "/>
<polyline clip-path="url(#clip811)" style="stroke:#000000; stroke-linecap:round; stroke-linejoin:round; stroke-width:2; stroke-opacity:0.1; fill:none" points="193.936,262.425 2352.76,262.425 "/>
<polyline clip-path="url(#clip810)" style="stroke:#000000; stroke-linecap:round; stroke-linejoin:round; stroke-width:4; stroke-opacity:1; fill:none" points="193.936,1486.45 2352.76,1486.45 "/>
<polyline clip-path="url(#clip810)" style="stroke:#000000; stroke-linecap:round; stroke-linejoin:round; stroke-width:4; stroke-opacity:1; fill:none" points="255.035,1486.45 255.035,1467.55 "/>
<polyline clip-path="url(#clip810)" style="stroke:#000000; stroke-linecap:round; stroke-linejoin:round; stroke-width:4; stroke-opacity:1; fill:none" points="579.338,1486.45 579.338,1467.55 "/>
<polyline clip-path="url(#clip810)" style="stroke:#000000; stroke-linecap:round; stroke-linejoin:round; stroke-width:4; stroke-opacity:1; fill:none" points="903.641,1486.45 903.641,1467.55 "/>
<polyline clip-path="url(#clip810)" style="stroke:#000000; stroke-linecap:round; stroke-linejoin:round; stroke-width:4; stroke-opacity:1; fill:none" points="1227.94,1486.45 1227.94,1467.55 "/>
<polyline clip-path="url(#clip810)" style="stroke:#000000; stroke-linecap:round; stroke-linejoin:round; stroke-width:4; stroke-opacity:1; fill:none" points="1552.25,1486.45 1552.25,1467.55 "/>
<polyline clip-path="url(#clip810)" style="stroke:#000000; stroke-linecap:round; stroke-linejoin:round; stroke-width:4; stroke-opacity:1; fill:none" points="1876.55,1486.45 1876.55,1467.55 "/>
<polyline clip-path="url(#clip810)" style="stroke:#000000; stroke-linecap:round; stroke-linejoin:round; stroke-width:4; stroke-opacity:1; fill:none" points="2200.85,1486.45 2200.85,1467.55 "/>
<path clip-path="url(#clip810)" d="M255.035 1517.37 Q251.424 1517.37 249.595 1520.93 Q247.789 1524.47 247.789 1531.6 Q247.789 1538.71 249.595 1542.27 Q251.424 1545.82 255.035 1545.82 Q258.669 1545.82 260.474 1542.27 Q262.303 1538.71 262.303 1531.6 Q262.303 1524.47 260.474 1520.93 Q258.669 1517.37 255.035 1517.37 M255.035 1513.66 Q260.845 1513.66 263.9 1518.27 Q266.979 1522.85 266.979 1531.6 Q266.979 1540.33 263.9 1544.94 Q260.845 1549.52 255.035 1549.52 Q249.225 1549.52 246.146 1544.94 Q243.09 1540.33 243.09 1531.6 Q243.09 1522.85 246.146 1518.27 Q249.225 1513.66 255.035 1513.66 Z" fill="#000000" fill-rule="nonzero" fill-opacity="1" /><path clip-path="url(#clip810)" d="M569.72 1544.91 L577.358 1544.91 L577.358 1518.55 L569.048 1520.21 L569.048 1515.95 L577.312 1514.29 L581.988 1514.29 L581.988 1544.91 L589.627 1544.91 L589.627 1548.85 L569.72 1548.85 L569.72 1544.91 Z" fill="#000000" fill-rule="nonzero" fill-opacity="1" /><path clip-path="url(#clip810)" d="M898.293 1544.91 L914.613 1544.91 L914.613 1548.85 L892.668 1548.85 L892.668 1544.91 Q895.33 1542.16 899.914 1537.53 Q904.52 1532.88 905.701 1531.53 Q907.946 1529.01 908.826 1527.27 Q909.729 1525.51 909.729 1523.82 Q909.729 1521.07 907.784 1519.33 Q905.863 1517.6 902.761 1517.6 Q900.562 1517.6 898.108 1518.36 Q895.678 1519.13 892.9 1520.68 L892.9 1515.95 Q895.724 1514.82 898.178 1514.24 Q900.631 1513.66 902.668 1513.66 Q908.039 1513.66 911.233 1516.35 Q914.428 1519.03 914.428 1523.52 Q914.428 1525.65 913.617 1527.57 Q912.83 1529.47 910.724 1532.07 Q910.145 1532.74 907.043 1535.95 Q903.942 1539.15 898.293 1544.91 Z" fill="#000000" fill-rule="nonzero" fill-opacity="1" /><path clip-path="url(#clip810)" d="M1232.19 1530.21 Q1235.55 1530.93 1237.42 1533.2 Q1239.32 1535.47 1239.32 1538.8 Q1239.32 1543.92 1235.8 1546.72 Q1232.28 1549.52 1225.8 1549.52 Q1223.63 1549.52 1221.31 1549.08 Q1219.02 1548.66 1216.57 1547.81 L1216.57 1543.29 Q1218.51 1544.43 1220.83 1545.01 Q1223.14 1545.58 1225.66 1545.58 Q1230.06 1545.58 1232.35 1543.85 Q1234.67 1542.11 1234.67 1538.8 Q1234.67 1535.75 1232.52 1534.03 Q1230.39 1532.3 1226.57 1532.3 L1222.54 1532.3 L1222.54 1528.45 L1226.75 1528.45 Q1230.2 1528.45 1232.03 1527.09 Q1233.86 1525.7 1233.86 1523.11 Q1233.86 1520.45 1231.96 1519.03 Q1230.08 1517.6 1226.57 1517.6 Q1224.64 1517.6 1222.45 1518.01 Q1220.25 1518.43 1217.61 1519.31 L1217.61 1515.14 Q1220.27 1514.4 1222.58 1514.03 Q1224.92 1513.66 1226.98 1513.66 Q1232.31 1513.66 1235.41 1516.09 Q1238.51 1518.5 1238.51 1522.62 Q1238.51 1525.49 1236.87 1527.48 Q1235.22 1529.45 1232.19 1530.21 Z" fill="#000000" fill-rule="nonzero" fill-opacity="1" /><path clip-path="url(#clip810)" d="M1555.26 1518.36 L1543.45 1536.81 L1555.26 1536.81 L1555.26 1518.36 M1554.03 1514.29 L1559.91 1514.29 L1559.91 1536.81 L1564.84 1536.81 L1564.84 1540.7 L1559.91 1540.7 L1559.91 1548.85 L1555.26 1548.85 L1555.26 1540.7 L1539.65 1540.7 L1539.65 1536.19 L1554.03 1514.29 Z" fill="#000000" fill-rule="nonzero" fill-opacity="1" /><path clip-path="url(#clip810)" d="M1866.83 1514.29 L1885.18 1514.29 L1885.18 1518.22 L1871.11 1518.22 L1871.11 1526.7 Q1872.13 1526.35 1873.15 1526.19 Q1874.17 1526 1875.18 1526 Q1880.97 1526 1884.35 1529.17 Q1887.73 1532.34 1887.73 1537.76 Q1887.73 1543.34 1884.26 1546.44 Q1880.79 1549.52 1874.47 1549.52 Q1872.29 1549.52 1870.02 1549.15 Q1867.78 1548.78 1865.37 1548.04 L1865.37 1543.34 Q1867.45 1544.47 1869.67 1545.03 Q1871.9 1545.58 1874.37 1545.58 Q1878.38 1545.58 1880.72 1543.48 Q1883.05 1541.37 1883.05 1537.76 Q1883.05 1534.15 1880.72 1532.04 Q1878.38 1529.94 1874.37 1529.94 Q1872.5 1529.94 1870.62 1530.35 Q1868.77 1530.77 1866.83 1531.65 L1866.83 1514.29 Z" fill="#000000" fill-rule="nonzero" fill-opacity="1" /><path clip-path="url(#clip810)" d="M2201.26 1529.7 Q2198.11 1529.7 2196.26 1531.86 Q2194.43 1534.01 2194.43 1537.76 Q2194.43 1541.49 2196.26 1543.66 Q2198.11 1545.82 2201.26 1545.82 Q2204.41 1545.82 2206.23 1543.66 Q2208.09 1541.49 2208.09 1537.76 Q2208.09 1534.01 2206.23 1531.86 Q2204.41 1529.7 2201.26 1529.7 M2210.54 1515.05 L2210.54 1519.31 Q2208.78 1518.48 2206.98 1518.04 Q2205.19 1517.6 2203.43 1517.6 Q2198.8 1517.6 2196.35 1520.72 Q2193.92 1523.85 2193.57 1530.17 Q2194.94 1528.15 2197 1527.09 Q2199.06 1526 2201.54 1526 Q2206.74 1526 2209.75 1529.17 Q2212.79 1532.32 2212.79 1537.76 Q2212.79 1543.08 2209.64 1546.3 Q2206.49 1549.52 2201.26 1549.52 Q2195.26 1549.52 2192.09 1544.94 Q2188.92 1540.33 2188.92 1531.6 Q2188.92 1523.41 2192.81 1518.55 Q2196.7 1513.66 2203.25 1513.66 Q2205.01 1513.66 2206.79 1514.01 Q2208.6 1514.36 2210.54 1515.05 Z" fill="#000000" fill-rule="nonzero" fill-opacity="1" /><polyline clip-path="url(#clip810)" style="stroke:#000000; stroke-linecap:round; stroke-linejoin:round; stroke-width:4; stroke-opacity:1; fill:none" points="193.936,1486.45 193.936,47.2441 "/>
<polyline clip-path="url(#clip810)" style="stroke:#000000; stroke-linecap:round; stroke-linejoin:round; stroke-width:4; stroke-opacity:1; fill:none" points="193.936,1254.78 212.834,1254.78 "/>
<polyline clip-path="url(#clip810)" style="stroke:#000000; stroke-linecap:round; stroke-linejoin:round; stroke-width:4; stroke-opacity:1; fill:none" points="193.936,1006.69 212.834,1006.69 "/>
<polyline clip-path="url(#clip810)" style="stroke:#000000; stroke-linecap:round; stroke-linejoin:round; stroke-width:4; stroke-opacity:1; fill:none" points="193.936,758.6 212.834,758.6 "/>
<polyline clip-path="url(#clip810)" style="stroke:#000000; stroke-linecap:round; stroke-linejoin:round; stroke-width:4; stroke-opacity:1; fill:none" points="193.936,510.513 212.834,510.513 "/>
<polyline clip-path="url(#clip810)" style="stroke:#000000; stroke-linecap:round; stroke-linejoin:round; stroke-width:4; stroke-opacity:1; fill:none" points="193.936,262.425 212.834,262.425 "/>
<path clip-path="url(#clip810)" d="M50.9921 1255.23 L80.6679 1255.23 L80.6679 1259.16 L50.9921 1259.16 L50.9921 1255.23 Z" fill="#000000" fill-rule="nonzero" fill-opacity="1" /><path clip-path="url(#clip810)" d="M91.5706 1268.12 L99.2095 1268.12 L99.2095 1241.76 L90.8993 1243.42 L90.8993 1239.16 L99.1632 1237.5 L103.839 1237.5 L103.839 1268.12 L111.478 1268.12 L111.478 1272.06 L91.5706 1272.06 L91.5706 1268.12 Z" fill="#000000" fill-rule="nonzero" fill-opacity="1" /><path clip-path="url(#clip810)" d="M120.922 1266.18 L125.807 1266.18 L125.807 1272.06 L120.922 1272.06 L120.922 1266.18 Z" fill="#000000" fill-rule="nonzero" fill-opacity="1" /><path clip-path="url(#clip810)" d="M145.992 1240.57 Q142.381 1240.57 140.552 1244.14 Q138.746 1247.68 138.746 1254.81 Q138.746 1261.92 140.552 1265.48 Q142.381 1269.02 145.992 1269.02 Q149.626 1269.02 151.431 1265.48 Q153.26 1261.92 153.26 1254.81 Q153.26 1247.68 151.431 1244.14 Q149.626 1240.57 145.992 1240.57 M145.992 1236.87 Q151.802 1236.87 154.857 1241.48 Q157.936 1246.06 157.936 1254.81 Q157.936 1263.54 154.857 1268.14 Q151.802 1272.73 145.992 1272.73 Q140.181 1272.73 137.103 1268.14 Q134.047 1263.54 134.047 1254.81 Q134.047 1246.06 137.103 1241.48 Q140.181 1236.87 145.992 1236.87 Z" fill="#000000" fill-rule="nonzero" fill-opacity="1" /><path clip-path="url(#clip810)" d="M51.9875 1007.14 L81.6633 1007.14 L81.6633 1011.07 L51.9875 1011.07 L51.9875 1007.14 Z" fill="#000000" fill-rule="nonzero" fill-opacity="1" /><path clip-path="url(#clip810)" d="M101.756 992.487 Q98.1447 992.487 96.316 996.052 Q94.5104 999.593 94.5104 1006.72 Q94.5104 1013.83 96.316 1017.39 Q98.1447 1020.94 101.756 1020.94 Q105.39 1020.94 107.196 1017.39 Q109.024 1013.83 109.024 1006.72 Q109.024 999.593 107.196 996.052 Q105.39 992.487 101.756 992.487 M101.756 988.783 Q107.566 988.783 110.621 993.39 Q113.7 997.973 113.7 1006.72 Q113.7 1015.45 110.621 1020.06 Q107.566 1024.64 101.756 1024.64 Q95.9456 1024.64 92.8669 1020.06 Q89.8114 1015.45 89.8114 1006.72 Q89.8114 997.973 92.8669 993.39 Q95.9456 988.783 101.756 988.783 Z" fill="#000000" fill-rule="nonzero" fill-opacity="1" /><path clip-path="url(#clip810)" d="M121.918 1018.09 L126.802 1018.09 L126.802 1023.97 L121.918 1023.97 L121.918 1018.09 Z" fill="#000000" fill-rule="nonzero" fill-opacity="1" /><path clip-path="url(#clip810)" d="M137.033 989.408 L155.39 989.408 L155.39 993.343 L141.316 993.343 L141.316 1001.82 Q142.334 1001.47 143.353 1001.31 Q144.371 1001.12 145.39 1001.12 Q151.177 1001.12 154.556 1004.29 Q157.936 1007.46 157.936 1012.88 Q157.936 1018.46 154.464 1021.56 Q150.992 1024.64 144.672 1024.64 Q142.496 1024.64 140.228 1024.27 Q137.982 1023.9 135.575 1023.16 L135.575 1018.46 Q137.658 1019.59 139.881 1020.15 Q142.103 1020.7 144.58 1020.7 Q148.584 1020.7 150.922 1018.6 Q153.26 1016.49 153.26 1012.88 Q153.26 1009.27 150.922 1007.16 Q148.584 1005.06 144.58 1005.06 Q142.705 1005.06 140.83 1005.47 Q138.978 1005.89 137.033 1006.77 L137.033 989.408 Z" fill="#000000" fill-rule="nonzero" fill-opacity="1" /><path clip-path="url(#clip810)" d="M100.76 744.399 Q97.1493 744.399 95.3206 747.964 Q93.515 751.506 93.515 758.635 Q93.515 765.742 95.3206 769.306 Q97.1493 772.848 100.76 772.848 Q104.395 772.848 106.2 769.306 Q108.029 765.742 108.029 758.635 Q108.029 751.506 106.2 747.964 Q104.395 744.399 100.76 744.399 M100.76 740.695 Q106.571 740.695 109.626 745.302 Q112.705 749.885 112.705 758.635 Q112.705 767.362 109.626 771.968 Q106.571 776.552 100.76 776.552 Q94.9502 776.552 91.8715 771.968 Q88.816 767.362 88.816 758.635 Q88.816 749.885 91.8715 745.302 Q94.9502 740.695 100.76 740.695 Z" fill="#000000" fill-rule="nonzero" fill-opacity="1" /><path clip-path="url(#clip810)" d="M120.922 770.001 L125.807 770.001 L125.807 775.88 L120.922 775.88 L120.922 770.001 Z" fill="#000000" fill-rule="nonzero" fill-opacity="1" /><path clip-path="url(#clip810)" d="M145.992 744.399 Q142.381 744.399 140.552 747.964 Q138.746 751.506 138.746 758.635 Q138.746 765.742 140.552 769.306 Q142.381 772.848 145.992 772.848 Q149.626 772.848 151.431 769.306 Q153.26 765.742 153.26 758.635 Q153.26 751.506 151.431 747.964 Q149.626 744.399 145.992 744.399 M145.992 740.695 Q151.802 740.695 154.857 745.302 Q157.936 749.885 157.936 758.635 Q157.936 767.362 154.857 771.968 Q151.802 776.552 145.992 776.552 Q140.181 776.552 137.103 771.968 Q134.047 767.362 134.047 758.635 Q134.047 749.885 137.103 745.302 Q140.181 740.695 145.992 740.695 Z" fill="#000000" fill-rule="nonzero" fill-opacity="1" /><path clip-path="url(#clip810)" d="M101.756 496.311 Q98.1447 496.311 96.316 499.876 Q94.5104 503.418 94.5104 510.547 Q94.5104 517.654 96.316 521.219 Q98.1447 524.76 101.756 524.76 Q105.39 524.76 107.196 521.219 Q109.024 517.654 109.024 510.547 Q109.024 503.418 107.196 499.876 Q105.39 496.311 101.756 496.311 M101.756 492.608 Q107.566 492.608 110.621 497.214 Q113.7 501.797 113.7 510.547 Q113.7 519.274 110.621 523.881 Q107.566 528.464 101.756 528.464 Q95.9456 528.464 92.8669 523.881 Q89.8114 519.274 89.8114 510.547 Q89.8114 501.797 92.8669 497.214 Q95.9456 492.608 101.756 492.608 Z" fill="#000000" fill-rule="nonzero" fill-opacity="1" /><path clip-path="url(#clip810)" d="M121.918 521.913 L126.802 521.913 L126.802 527.793 L121.918 527.793 L121.918 521.913 Z" fill="#000000" fill-rule="nonzero" fill-opacity="1" /><path clip-path="url(#clip810)" d="M137.033 493.233 L155.39 493.233 L155.39 497.168 L141.316 497.168 L141.316 505.64 Q142.334 505.293 143.353 505.131 Q144.371 504.946 145.39 504.946 Q151.177 504.946 154.556 508.117 Q157.936 511.288 157.936 516.705 Q157.936 522.283 154.464 525.385 Q150.992 528.464 144.672 528.464 Q142.496 528.464 140.228 528.094 Q137.982 527.723 135.575 526.982 L135.575 522.283 Q137.658 523.418 139.881 523.973 Q142.103 524.529 144.58 524.529 Q148.584 524.529 150.922 522.422 Q153.26 520.316 153.26 516.705 Q153.26 513.094 150.922 510.987 Q148.584 508.881 144.58 508.881 Q142.705 508.881 140.83 509.297 Q138.978 509.714 137.033 510.594 L137.033 493.233 Z" fill="#000000" fill-rule="nonzero" fill-opacity="1" /><path clip-path="url(#clip810)" d="M91.5706 275.77 L99.2095 275.77 L99.2095 249.404 L90.8993 251.071 L90.8993 246.811 L99.1632 245.145 L103.839 245.145 L103.839 275.77 L111.478 275.77 L111.478 279.705 L91.5706 279.705 L91.5706 275.77 Z" fill="#000000" fill-rule="nonzero" fill-opacity="1" /><path clip-path="url(#clip810)" d="M120.922 273.825 L125.807 273.825 L125.807 279.705 L120.922 279.705 L120.922 273.825 Z" fill="#000000" fill-rule="nonzero" fill-opacity="1" /><path clip-path="url(#clip810)" d="M145.992 248.223 Q142.381 248.223 140.552 251.788 Q138.746 255.33 138.746 262.46 Q138.746 269.566 140.552 273.131 Q142.381 276.672 145.992 276.672 Q149.626 276.672 151.431 273.131 Q153.26 269.566 153.26 262.46 Q153.26 255.33 151.431 251.788 Q149.626 248.223 145.992 248.223 M145.992 244.52 Q151.802 244.52 154.857 249.126 Q157.936 253.71 157.936 262.46 Q157.936 271.186 154.857 275.793 Q151.802 280.376 145.992 280.376 Q140.181 280.376 137.103 275.793 Q134.047 271.186 134.047 262.46 Q134.047 253.71 137.103 249.126 Q140.181 244.52 145.992 244.52 Z" fill="#000000" fill-rule="nonzero" fill-opacity="1" /><polyline clip-path="url(#clip811)" style="stroke:#009af9; stroke-linecap:round; stroke-linejoin:round; stroke-width:4; stroke-opacity:1; fill:none" points="255.035,758.6 258.278,753.639 261.521,748.678 264.764,743.717 268.007,738.759 271.25,733.802 274.493,728.848 277.736,723.896 280.979,718.949 284.222,714.005 287.465,709.066 290.708,704.131 293.951,699.202 297.194,694.279 300.437,689.363 303.68,684.453 306.923,679.551 310.166,674.656 313.409,669.77 316.652,664.893 319.895,660.026 323.138,655.168 326.381,650.32 329.624,645.484 332.867,640.658 336.11,635.845 339.353,631.043 342.596,626.255 345.84,621.479 349.083,616.718 352.326,611.97 355.569,607.238 358.812,602.52 362.055,597.818 365.298,593.132 368.541,588.463 371.784,583.811 375.027,579.176 378.27,574.559 381.513,569.96 384.756,565.381 387.999,560.82 391.242,556.28 394.485,551.759 397.728,547.26 400.971,542.781 404.214,538.324 407.457,533.889 410.7,529.477 413.943,525.087 417.186,520.721 420.429,516.379 423.672,512.061 426.915,507.767 430.158,503.499 433.401,499.256 436.644,495.039 439.887,490.848 443.13,486.684 446.373,482.548 449.616,478.439 452.859,474.358 456.103,470.305 459.346,466.281 462.589,462.287 465.832,458.322 469.075,454.387 472.318,450.482 475.561,446.609 478.804,442.766 482.047,438.955 485.29,435.176 488.533,431.43 491.776,427.716 495.019,424.035 498.262,420.388 501.505,416.774 504.748,413.195 507.991,409.65 511.234,406.14 514.477,402.666 517.72,399.227 520.963,395.824 524.206,392.457 527.449,389.127 530.692,385.833 533.935,382.577 537.178,379.359 540.421,376.179 543.664,373.036 546.907,369.933 550.15,366.868 553.393,363.842 556.636,360.856 559.879,357.91 563.122,355.003 566.366,352.138 569.609,349.312 572.852,346.528 576.095,343.785 579.338,341.083 582.581,338.423 585.824,335.805 589.067,333.23 592.31,330.696 595.553,328.206 598.796,325.759 602.039,323.355 605.282,320.994 608.525,318.678 611.768,316.405 615.011,314.177 618.254,311.993 621.497,309.853 624.74,307.759 627.983,305.709 631.226,303.705 634.469,301.746 637.712,299.833 640.955,297.966 644.198,296.145 647.441,294.371 650.684,292.642 653.927,290.96 657.17,289.325 660.413,287.737 663.656,286.196 666.899,284.703 670.142,283.256 673.385,281.857 676.629,280.506 679.872,279.203 683.115,277.948 686.358,276.74 689.601,275.581 692.844,274.47 696.087,273.408 699.33,272.394 702.573,271.429 705.816,270.512 709.059,269.644 712.302,268.825 715.545,268.056 718.788,267.335 722.031,266.663 725.274,266.04 728.517,265.467 731.76,264.943 735.003,264.469 738.246,264.043 741.489,263.668 744.732,263.341 747.975,263.065 751.218,262.838 754.461,262.66 757.704,262.532 760.947,262.454 764.19,262.425 767.433,262.446 770.676,262.516 773.919,262.636 777.162,262.806 780.405,263.025 783.648,263.294 786.892,263.612 790.135,263.98 793.378,264.398 796.621,264.864 799.864,265.38 803.107,265.946 806.35,266.561 809.593,267.224 812.836,267.937 816.079,268.7 819.322,269.511 822.565,270.371 825.808,271.279 829.051,272.237 832.294,273.243 835.537,274.298 838.78,275.401 842.023,276.552 845.266,277.752 848.509,279 851.752,280.296 854.995,281.639 858.238,283.03 861.481,284.469 864.724,285.955 867.967,287.489 871.21,289.069 874.453,290.697 877.696,292.371 880.939,294.092 884.182,295.86 887.425,297.673 890.668,299.533 893.911,301.439 897.155,303.39 900.398,305.387 903.641,307.429 906.884,309.517 910.127,311.649 913.37,313.826 916.613,316.047 919.856,318.313 923.099,320.623 926.342,322.976 929.585,325.373 932.828,327.813 936.071,330.297 939.314,332.823 942.557,335.392 945.8,338.003 949.043,340.657 952.286,343.352 955.529,346.088 958.772,348.866 962.015,351.685 965.258,354.544 968.501,357.444 971.744,360.384 974.987,363.364 978.23,366.383 981.473,369.442 984.716,372.539 987.959,375.676 991.202,378.85 994.445,382.062 997.688,385.312 1000.93,388.6 1004.17,391.924 1007.42,395.285 1010.66,398.682 1013.9,402.116 1017.15,405.585 1020.39,409.089 1023.63,412.628 1026.88,416.202 1030.12,419.81 1033.36,423.452 1036.6,427.128 1039.85,430.836 1043.09,434.578 1046.33,438.351 1049.58,442.157 1052.82,445.995 1056.06,449.863 1059.31,453.763 1062.55,457.693 1065.79,461.653 1069.04,465.643 1072.28,469.662 1075.52,473.71 1078.76,477.787 1082.01,481.891 1085.25,486.024 1088.49,490.183 1091.74,494.37 1094.98,498.582 1098.22,502.821 1101.47,507.086 1104.71,511.375 1107.95,515.689 1111.19,520.028 1114.44,524.39 1117.68,528.776 1120.92,533.185 1124.17,537.616 1127.41,542.07 1130.65,546.545 1133.9,551.041 1137.14,555.558 1140.38,560.096 1143.62,564.653 1146.87,569.23 1150.11,573.825 1153.35,578.439 1156.6,583.071 1159.84,587.721 1163.08,592.387 1166.33,597.071 1169.57,601.77 1172.81,606.485 1176.06,611.216 1179.3,615.961 1182.54,620.72 1185.78,625.493 1189.03,630.28 1192.27,635.079 1195.51,639.891 1198.76,644.714 1202,649.549 1205.24,654.395 1208.49,659.251 1211.73,664.117 1214.97,668.993 1218.21,673.878 1221.46,678.771 1224.7,683.672 1227.94,688.58 1231.19,693.496 1234.43,698.418 1237.67,703.346 1240.92,708.279 1244.16,713.218 1247.4,718.161 1250.64,723.108 1253.89,728.059 1257.13,733.013 1260.37,737.969 1263.62,742.928 1266.86,747.887 1270.1,752.849 1273.35,757.81 1276.59,762.772 1279.83,767.733 1283.08,772.694 1286.32,777.653 1289.56,782.61 1292.8,787.564 1296.05,792.516 1299.29,797.464 1302.53,802.409 1305.78,807.349 1309.02,812.284 1312.26,817.214 1315.51,822.138 1318.75,827.056 1321.99,831.967 1325.23,836.87 1328.48,841.766 1331.72,846.653 1334.96,851.531 1338.21,856.401 1341.45,861.26 1344.69,866.109 1347.94,870.948 1351.18,875.775 1354.42,880.59 1357.66,885.394 1360.91,890.184 1364.15,894.962 1367.39,899.726 1370.64,904.475 1373.88,909.21 1377.12,913.93 1380.37,918.635 1383.61,923.323 1386.85,927.995 1390.1,932.651 1393.34,937.288 1396.58,941.908 1399.82,946.51 1403.07,951.092 1406.31,955.656 1409.55,960.199 1412.8,964.723 1416.04,969.226 1419.28,973.708 1422.53,978.168 1425.77,982.607 1429.01,987.023 1432.25,991.416 1435.5,995.786 1438.74,1000.13 1441.98,1004.45 1445.23,1008.75 1448.47,1013.02 1451.71,1017.27 1454.96,1021.49 1458.2,1025.69 1461.44,1029.86 1464.68,1034 1467.93,1038.11 1471.17,1042.2 1474.41,1046.25 1477.66,1050.28 1480.9,1054.28 1484.14,1058.25 1487.39,1062.19 1490.63,1066.1 1493.87,1069.98 1497.11,1073.82 1500.36,1077.64 1503.6,1081.42 1506.84,1085.18 1510.09,1088.9 1513.33,1092.58 1516.57,1096.23 1519.82,1099.85 1523.06,1103.44 1526.3,1106.99 1529.55,1110.5 1532.79,1113.98 1536.03,1117.43 1539.27,1120.84 1542.52,1124.21 1545.76,1127.55 1549,1130.85 1552.25,1134.11 1555.49,1137.33 1558.73,1140.52 1561.98,1143.67 1565.22,1146.78 1568.46,1149.85 1571.7,1152.88 1574.95,1155.87 1578.19,1158.82 1581.43,1161.74 1584.68,1164.61 1587.92,1167.44 1591.16,1170.23 1594.41,1172.98 1597.65,1175.69 1600.89,1178.36 1604.13,1180.98 1607.38,1183.56 1610.62,1186.1 1613.86,1188.6 1617.11,1191.06 1620.35,1193.47 1623.59,1195.83 1626.84,1198.16 1630.08,1200.44 1633.32,1202.67 1636.57,1204.86 1639.81,1207.01 1643.05,1209.11 1646.29,1211.17 1649.54,1213.18 1652.78,1215.15 1656.02,1217.07 1659.27,1218.94 1662.51,1220.77 1665.75,1222.55 1669,1224.29 1672.24,1225.98 1675.48,1227.62 1678.72,1229.21 1681.97,1230.76 1685.21,1232.26 1688.45,1233.72 1691.7,1235.12 1694.94,1236.48 1698.18,1237.79 1701.43,1239.06 1704.67,1240.27 1707.91,1241.44 1711.15,1242.56 1714.4,1243.63 1717.64,1244.65 1720.88,1245.62 1724.13,1246.55 1727.37,1247.42 1730.61,1248.25 1733.86,1249.03 1737.1,1249.75 1740.34,1250.43 1743.59,1251.06 1746.83,1251.65 1750.07,1252.18 1753.31,1252.66 1756.56,1253.09 1759.8,1253.48 1763.04,1253.81 1766.29,1254.1 1769.53,1254.33 1772.77,1254.52 1776.02,1254.65 1779.26,1254.74 1782.5,1254.77 1785.74,1254.76 1788.99,1254.7 1792.23,1254.59 1795.47,1254.43 1798.72,1254.21 1801.96,1253.95 1805.2,1253.64 1808.45,1253.28 1811.69,1252.87 1814.93,1252.41 1818.17,1251.91 1821.42,1251.35 1824.66,1250.74 1827.9,1250.09 1831.15,1249.38 1834.39,1248.63 1837.63,1247.82 1840.88,1246.97 1844.12,1246.07 1847.36,1245.12 1850.61,1244.12 1853.85,1243.07 1857.09,1241.98 1860.33,1240.84 1863.58,1239.64 1866.82,1238.4 1870.06,1237.11 1873.31,1235.78 1876.55,1234.4 1879.79,1232.96 1883.04,1231.49 1886.28,1229.96 1889.52,1228.39 1892.76,1226.77 1896.01,1225.1 1899.25,1223.39 1902.49,1221.63 1905.74,1219.82 1908.98,1217.97 1912.22,1216.07 1915.47,1214.12 1918.71,1212.13 1921.95,1210.1 1925.19,1208.02 1928.44,1205.89 1931.68,1203.72 1934.92,1201.51 1938.17,1199.25 1941.41,1196.95 1944.65,1194.6 1947.9,1192.21 1951.14,1189.78 1954.38,1187.3 1957.63,1184.78 1960.87,1182.22 1964.11,1179.62 1967.35,1176.97 1970.6,1174.28 1973.84,1171.55 1977.08,1168.78 1980.33,1165.97 1983.57,1163.11 1986.81,1160.22 1990.06,1157.29 1993.3,1154.31 1996.54,1151.3 1999.78,1148.25 2003.03,1145.16 2006.27,1142.03 2009.51,1138.86 2012.76,1135.65 2016,1132.41 2019.24,1129.13 2022.49,1125.81 2025.73,1122.45 2028.97,1119.06 2032.21,1115.63 2035.46,1112.17 2038.7,1108.67 2041.94,1105.14 2045.19,1101.57 2048.43,1097.97 2051.67,1094.33 2054.92,1090.66 2058.16,1086.96 2061.4,1083.22 2064.65,1079.45 2067.89,1075.65 2071.13,1071.82 2074.37,1067.96 2077.62,1064.06 2080.86,1060.14 2084.1,1056.18 2087.35,1052.2 2090.59,1048.18 2093.83,1044.14 2097.08,1040.07 2100.32,1035.97 2103.56,1031.84 2106.8,1027.68 2110.05,1023.5 2113.29,1019.29 2116.53,1015.06 2119.78,1010.8 2123.02,1006.51 2126.26,1002.2 2129.51,997.865 2132.75,993.507 2135.99,989.125 2139.23,984.72 2142.48,980.292 2145.72,975.842 2148.96,971.37 2152.21,966.877 2155.45,962.363 2158.69,957.829 2161.94,953.275 2165.18,948.701 2168.42,944.109 2171.67,939.498 2174.91,934.869 2178.15,930.222 2181.39,925.558 2184.64,920.877 2187.88,916.18 2191.12,911.467 2194.37,906.739 2197.61,901.997 2200.85,897.24 2204.1,892.469 2207.34,887.684 2210.58,882.887 2213.82,878.077 2217.07,873.256 2220.31,868.422 2223.55,863.578 2226.8,858.724 2230.04,853.859 2233.28,848.985 2236.53,844.102 2239.77,839.21 2243.01,834.31 2246.25,829.403 2249.5,824.489 2252.74,819.567 2255.98,814.64 2259.23,809.708 2262.47,804.77 2265.71,799.827 2268.96,794.881 2272.2,789.931 2275.44,784.977 2278.69,780.021 2281.93,775.063 2285.17,770.103 2288.41,765.142 2291.66,760.181 "/>
<circle clip-path="url(#clip811)" cx="981.473" cy="468.784" r="14.4" fill="#e26f46" fill-rule="evenodd" fill-opacity="1" stroke="#000000" stroke-opacity="1" stroke-width="3.2"/>
<circle clip-path="url(#clip811)" cx="400.971" cy="429.675" r="14.4" fill="#e26f46" fill-rule="evenodd" fill-opacity="1" stroke="#000000" stroke-opacity="1" stroke-width="3.2"/>
<circle clip-path="url(#clip811)" cx="1876.55" cy="1252.9" r="14.4" fill="#e26f46" fill-rule="evenodd" fill-opacity="1" stroke="#000000" stroke-opacity="1" stroke-width="3.2"/>
<circle clip-path="url(#clip811)" cx="1617.11" cy="1273.13" r="14.4" fill="#e26f46" fill-rule="evenodd" fill-opacity="1" stroke="#000000" stroke-opacity="1" stroke-width="3.2"/>
<circle clip-path="url(#clip811)" cx="2113.29" cy="907.622" r="14.4" fill="#e26f46" fill-rule="evenodd" fill-opacity="1" stroke="#000000" stroke-opacity="1" stroke-width="3.2"/>
<circle clip-path="url(#clip811)" cx="735.003" cy="146.087" r="14.4" fill="#e26f46" fill-rule="evenodd" fill-opacity="1" stroke="#000000" stroke-opacity="1" stroke-width="3.2"/>
<circle clip-path="url(#clip811)" cx="1192.27" cy="654.879" r="14.4" fill="#e26f46" fill-rule="evenodd" fill-opacity="1" stroke="#000000" stroke-opacity="1" stroke-width="3.2"/>
<circle clip-path="url(#clip811)" cx="799.864" cy="321.168" r="14.4" fill="#e26f46" fill-rule="evenodd" fill-opacity="1" stroke="#000000" stroke-opacity="1" stroke-width="3.2"/>
<circle clip-path="url(#clip811)" cx="1117.68" cy="482.519" r="14.4" fill="#e26f46" fill-rule="evenodd" fill-opacity="1" stroke="#000000" stroke-opacity="1" stroke-width="3.2"/>
<circle clip-path="url(#clip811)" cx="2217.07" cy="983.232" r="14.4" fill="#e26f46" fill-rule="evenodd" fill-opacity="1" stroke="#000000" stroke-opacity="1" stroke-width="3.2"/>
<circle clip-path="url(#clip811)" cx="1156.6" cy="507.616" r="14.4" fill="#e26f46" fill-rule="evenodd" fill-opacity="1" stroke="#000000" stroke-opacity="1" stroke-width="3.2"/>
<circle clip-path="url(#clip811)" cx="819.322" cy="145.621" r="14.4" fill="#e26f46" fill-rule="evenodd" fill-opacity="1" stroke="#000000" stroke-opacity="1" stroke-width="3.2"/>
<circle clip-path="url(#clip811)" cx="1133.9" cy="430.641" r="14.4" fill="#e26f46" fill-rule="evenodd" fill-opacity="1" stroke="#000000" stroke-opacity="1" stroke-width="3.2"/>
<circle clip-path="url(#clip811)" cx="816.079" cy="240.685" r="14.4" fill="#e26f46" fill-rule="evenodd" fill-opacity="1" stroke="#000000" stroke-opacity="1" stroke-width="3.2"/>
<circle clip-path="url(#clip811)" cx="1973.84" cy="1093.78" r="14.4" fill="#e26f46" fill-rule="evenodd" fill-opacity="1" stroke="#000000" stroke-opacity="1" stroke-width="3.2"/>
<circle clip-path="url(#clip811)" cx="582.581" cy="361.85" r="14.4" fill="#e26f46" fill-rule="evenodd" fill-opacity="1" stroke="#000000" stroke-opacity="1" stroke-width="3.2"/>
<circle clip-path="url(#clip811)" cx="1983.57" cy="1171.71" r="14.4" fill="#e26f46" fill-rule="evenodd" fill-opacity="1" stroke="#000000" stroke-opacity="1" stroke-width="3.2"/>
<circle clip-path="url(#clip811)" cx="1305.78" cy="751.45" r="14.4" fill="#e26f46" fill-rule="evenodd" fill-opacity="1" stroke="#000000" stroke-opacity="1" stroke-width="3.2"/>
<circle clip-path="url(#clip811)" cx="2255.98" cy="864.414" r="14.4" fill="#e26f46" fill-rule="evenodd" fill-opacity="1" stroke="#000000" stroke-opacity="1" stroke-width="3.2"/>
<circle clip-path="url(#clip811)" cx="1944.65" cy="1127.78" r="14.4" fill="#e26f46" fill-rule="evenodd" fill-opacity="1" stroke="#000000" stroke-opacity="1" stroke-width="3.2"/>
<path clip-path="url(#clip811)" d="M255.035 926.912 L258.278 922.367 L261.521 917.783 L264.764 913.16 L268.007 908.5 L271.25 903.802 L274.493 899.068 L277.736 894.301 L280.979 889.499 L284.222 884.667 L287.465 879.804 L290.708 874.912 L293.951 869.994 L297.194 865.052 L300.437 860.086 L303.68 855.101 L306.923 850.097 L310.166 845.078 L313.409 840.046 L316.652 835.005 L319.895 829.956 L323.138 824.905 L326.381 819.853 L329.624 814.805 L332.867 809.764 L336.11 804.736 L339.353 799.723 L342.596 794.731 L345.84 789.764 L349.083 784.827 L352.326 779.926 L355.569 775.067 L358.812 770.254 L362.055 765.494 L365.298 760.792 L368.541 756.157 L371.784 751.593 L375.027 747.107 L378.27 742.708 L381.513 738.401 L384.756 734.193 L387.999 730.093 L391.242 726.107 L394.485 722.242 L397.728 718.506 L400.971 714.905 L404.214 711.444 L407.457 708.117 L410.7 704.916 L413.943 701.832 L417.186 698.857 L420.429 695.982 L423.672 693.197 L426.915 690.496 L430.158 687.869 L433.401 685.307 L436.644 682.804 L439.887 680.35 L443.13 677.939 L446.373 675.563 L449.616 673.214 L452.859 670.887 L456.103 668.575 L459.346 666.271 L462.589 663.969 L465.832 661.666 L469.075 659.355 L472.318 657.032 L475.561 654.692 L478.804 652.333 L482.047 649.949 L485.29 647.539 L488.533 645.099 L491.776 642.628 L495.019 640.122 L498.262 637.581 L501.505 635.003 L504.748 632.388 L507.991 629.734 L511.234 627.042 L514.477 624.312 L517.72 621.544 L520.963 618.74 L524.206 615.9 L527.449 613.027 L530.692 610.122 L533.935 607.187 L537.178 604.225 L540.421 601.24 L543.664 598.233 L546.907 595.21 L550.15 592.173 L553.393 589.126 L556.636 586.075 L559.879 583.024 L563.122 579.977 L566.366 576.94 L569.609 573.917 L572.852 570.915 L576.095 567.938 L579.338 564.992 L582.581 562.082 L585.824 559.212 L589.067 556.379 L592.31 553.577 L595.553 550.802 L598.796 548.048 L602.039 545.311 L605.282 542.585 L608.525 539.865 L611.768 537.148 L615.011 534.429 L618.254 531.705 L621.497 528.97 L624.74 526.223 L627.983 523.46 L631.226 520.678 L634.469 517.874 L637.712 515.047 L640.955 512.196 L644.198 509.318 L647.441 506.413 L650.684 503.48 L653.927 500.519 L657.17 497.53 L660.413 494.515 L663.656 491.473 L666.899 488.407 L670.142 485.319 L673.385 482.211 L676.629 479.085 L679.872 475.946 L683.115 472.796 L686.358 469.64 L689.601 466.483 L692.844 463.331 L696.087 460.188 L699.33 457.06 L702.573 453.956 L705.816 450.882 L709.059 447.845 L712.302 444.855 L715.545 441.921 L718.788 439.051 L722.031 436.256 L725.274 433.548 L728.517 430.936 L731.76 428.432 L735.003 426.05 L738.246 423.799 L741.489 421.68 L744.732 419.693 L747.975 417.836 L751.218 416.11 L754.461 414.517 L757.704 413.057 L760.947 411.733 L764.19 410.547 L767.433 409.505 L770.676 408.611 L773.919 407.869 L777.162 407.287 L780.405 406.872 L783.648 406.631 L786.892 406.574 L790.135 406.708 L793.378 407.044 L796.621 407.592 L799.864 408.362 L803.107 409.363 L806.35 410.601 L809.593 412.082 L812.836 413.812 L816.079 415.794 L819.322 418.031 L822.565 420.519 L825.808 423.24 L829.051 426.174 L832.294 429.303 L835.537 432.608 L838.78 436.069 L842.023 439.67 L845.266 443.393 L848.509 447.222 L851.752 451.141 L854.995 455.135 L858.238 459.191 L861.481 463.296 L864.724 467.437 L867.967 471.603 L871.21 475.784 L874.453 479.969 L877.696 484.149 L880.939 488.317 L884.182 492.463 L887.425 496.582 L890.668 500.667 L893.911 504.712 L897.155 508.711 L900.398 512.661 L903.641 516.556 L906.884 520.394 L910.127 524.171 L913.37 527.883 L916.613 531.53 L919.856 535.109 L923.099 538.618 L926.342 542.057 L929.585 545.425 L932.828 548.722 L936.071 551.948 L939.314 555.103 L942.557 558.189 L945.8 561.206 L949.043 564.156 L952.286 567.04 L955.529 569.861 L958.772 572.622 L962.015 575.324 L965.258 577.97 L968.501 580.564 L971.744 583.108 L974.987 585.607 L978.23 588.062 L981.473 590.478 L984.716 592.858 L987.959 595.198 L991.202 597.497 L994.445 599.751 L997.688 601.957 L1000.93 604.114 L1004.17 606.218 L1007.42 608.266 L1010.66 610.258 L1013.9 612.191 L1017.15 614.064 L1020.39 615.876 L1023.63 617.625 L1026.88 619.311 L1030.12 620.935 L1033.36 622.496 L1036.6 623.995 L1039.85 625.433 L1043.09 626.813 L1046.33 628.135 L1049.58 629.402 L1052.82 630.619 L1056.06 631.787 L1059.31 632.911 L1062.55 633.997 L1065.79 635.048 L1069.04 636.072 L1072.28 637.074 L1075.52 638.062 L1078.76 639.044 L1082.01 640.029 L1085.25 641.025 L1088.49 642.043 L1091.74 643.095 L1094.98 644.191 L1098.22 645.344 L1101.47 646.568 L1104.71 647.876 L1107.95 649.284 L1111.19 650.807 L1114.44 652.462 L1117.68 654.265 L1120.92 656.231 L1124.17 658.371 L1127.41 660.694 L1130.65 663.208 L1133.9 665.923 L1137.14 668.846 L1140.38 671.976 L1143.62 675.311 L1146.87 678.847 L1150.11 682.582 L1153.35 686.514 L1156.6 690.64 L1159.84 694.956 L1163.08 699.454 L1166.33 704.12 L1169.57 708.945 L1172.81 713.918 L1176.06 719.029 L1179.3 724.268 L1182.54 729.627 L1185.78 735.096 L1189.03 740.669 L1192.27 746.338 L1195.51 752.095 L1198.76 757.931 L1202 763.835 L1205.24 769.796 L1208.49 775.806 L1211.73 781.856 L1214.97 787.939 L1218.21 794.048 L1221.46 800.175 L1224.7 806.316 L1227.94 812.466 L1231.19 818.62 L1234.43 824.776 L1237.67 830.93 L1240.92 837.081 L1244.16 843.227 L1247.4 849.367 L1250.64 855.501 L1253.89 861.629 L1257.13 867.752 L1260.37 873.872 L1263.62 879.991 L1266.86 886.11 L1270.1 892.233 L1273.35 898.363 L1276.59 904.503 L1279.83 910.658 L1283.08 916.831 L1286.32 923.028 L1289.56 929.252 L1292.8 935.509 L1296.05 941.803 L1299.29 948.141 L1302.53 954.526 L1305.78 960.965 L1309.02 967.461 L1312.26 974.008 L1315.51 980.603 L1318.75 987.237 L1321.99 993.907 L1325.23 1000.61 L1328.48 1007.33 L1331.72 1014.06 L1334.96 1020.81 L1338.21 1027.57 L1341.45 1034.33 L1344.69 1041.08 L1347.94 1047.83 L1351.18 1054.56 L1354.42 1061.28 L1357.66 1067.97 L1360.91 1074.63 L1364.15 1081.27 L1367.39 1087.87 L1370.64 1094.44 L1373.88 1100.96 L1377.12 1107.44 L1380.37 1113.87 L1383.61 1120.26 L1386.85 1126.59 L1390.1 1132.86 L1393.34 1139.08 L1396.58 1145.24 L1399.82 1151.34 L1403.07 1157.37 L1406.31 1163.34 L1409.55 1169.24 L1412.8 1175.07 L1416.04 1180.83 L1419.28 1186.51 L1422.53 1192.13 L1425.77 1197.67 L1429.01 1203.13 L1432.25 1208.51 L1435.5 1213.82 L1438.74 1219.04 L1441.98 1224.19 L1445.23 1229.26 L1448.47 1234.24 L1451.71 1239.14 L1454.96 1243.96 L1458.2 1248.69 L1461.44 1253.35 L1464.68 1257.91 L1467.93 1262.4 L1471.17 1266.79 L1474.41 1271.11 L1477.66 1275.34 L1480.9 1279.48 L1484.14 1283.54 L1487.39 1287.51 L1490.63 1291.41 L1493.87 1295.21 L1497.11 1298.94 L1500.36 1302.58 L1503.6 1306.14 L1506.84 1309.61 L1510.09 1313.01 L1513.33 1316.33 L1516.57 1319.57 L1519.82 1322.73 L1523.06 1325.81 L1526.3 1328.82 L1529.55 1331.76 L1532.79 1334.62 L1536.03 1337.42 L1539.27 1340.15 L1542.52 1342.81 L1545.76 1345.41 L1549 1347.94 L1552.25 1350.42 L1555.49 1352.84 L1558.73 1355.21 L1561.98 1357.53 L1565.22 1359.81 L1568.46 1362.04 L1571.7 1364.23 L1574.95 1366.38 L1578.19 1368.5 L1581.43 1370.6 L1584.68 1372.66 L1587.92 1374.71 L1591.16 1376.74 L1594.41 1378.76 L1597.65 1380.77 L1600.89 1382.77 L1604.13 1384.78 L1607.38 1386.79 L1610.62 1388.81 L1613.86 1390.84 L1617.11 1392.88 L1620.35 1394.94 L1623.59 1397.02 L1626.84 1399.1 L1630.08 1401.19 L1633.32 1403.28 L1636.57 1405.37 L1639.81 1407.45 L1643.05 1409.52 L1646.29 1411.57 L1649.54 1413.6 L1652.78 1415.6 L1656.02 1417.58 L1659.27 1419.51 L1662.51 1421.4 L1665.75 1423.25 L1669 1425.05 L1672.24 1426.8 L1675.48 1428.49 L1678.72 1430.12 L1681.97 1431.68 L1685.21 1433.18 L1688.45 1434.6 L1691.7 1435.96 L1694.94 1437.23 L1698.18 1438.42 L1701.43 1439.53 L1704.67 1440.56 L1707.91 1441.5 L1711.15 1442.35 L1714.4 1443.1 L1717.64 1443.77 L1720.88 1444.34 L1724.13 1444.81 L1727.37 1445.19 L1730.61 1445.47 L1733.86 1445.64 L1737.1 1445.72 L1740.34 1445.69 L1743.59 1445.56 L1746.83 1445.32 L1750.07 1444.98 L1753.31 1444.54 L1756.56 1443.99 L1759.8 1443.33 L1763.04 1442.57 L1766.29 1441.7 L1769.53 1440.72 L1772.77 1439.64 L1776.02 1438.45 L1779.26 1437.16 L1782.5 1435.76 L1785.74 1434.26 L1788.99 1432.65 L1792.23 1430.94 L1795.47 1429.13 L1798.72 1427.21 L1801.96 1425.19 L1805.2 1423.08 L1808.45 1420.87 L1811.69 1418.56 L1814.93 1416.15 L1818.17 1413.66 L1821.42 1411.07 L1824.66 1408.4 L1827.9 1405.64 L1831.15 1402.8 L1834.39 1399.87 L1837.63 1396.88 L1840.88 1393.8 L1844.12 1390.66 L1847.36 1387.46 L1850.61 1384.19 L1853.85 1380.86 L1857.09 1377.48 L1860.33 1374.06 L1863.58 1370.59 L1866.82 1367.08 L1870.06 1363.55 L1873.31 1359.99 L1876.55 1356.4 L1879.79 1352.81 L1883.04 1349.2 L1886.28 1345.58 L1889.52 1341.94 L1892.76 1338.3 L1896.01 1334.65 L1899.25 1330.99 L1902.49 1327.33 L1905.74 1323.67 L1908.98 1320.01 L1912.22 1316.35 L1915.47 1312.71 L1918.71 1309.08 L1921.95 1305.47 L1925.19 1301.88 L1928.44 1298.33 L1931.68 1294.83 L1934.92 1291.36 L1938.17 1287.96 L1941.41 1284.62 L1944.65 1281.35 L1947.9 1278.17 L1951.14 1275.07 L1954.38 1272.06 L1957.63 1269.13 L1960.87 1266.3 L1964.11 1263.55 L1967.35 1260.9 L1970.6 1258.34 L1973.84 1255.88 L1977.08 1253.52 L1980.33 1251.24 L1983.57 1249.05 L1986.81 1246.94 L1990.06 1244.89 L1993.3 1242.89 L1996.54 1240.94 L1999.78 1239.02 L2003.03 1237.13 L2006.27 1235.24 L2009.51 1233.36 L2012.76 1231.48 L2016 1229.59 L2019.24 1227.68 L2022.49 1225.75 L2025.73 1223.79 L2028.97 1221.79 L2032.21 1219.76 L2035.46 1217.69 L2038.7 1215.58 L2041.94 1213.42 L2045.19 1211.22 L2048.43 1208.97 L2051.67 1206.67 L2054.92 1204.34 L2058.16 1201.95 L2061.4 1199.53 L2064.65 1197.06 L2067.89 1194.56 L2071.13 1192.02 L2074.37 1189.46 L2077.62 1186.86 L2080.86 1184.25 L2084.1 1181.62 L2087.35 1178.98 L2090.59 1176.33 L2093.83 1173.68 L2097.08 1171.05 L2100.32 1168.42 L2103.56 1165.82 L2106.8 1163.25 L2110.05 1160.72 L2113.29 1158.23 L2116.53 1155.79 L2119.78 1153.41 L2123.02 1151.06 L2126.26 1148.76 L2129.51 1146.49 L2132.75 1144.26 L2135.99 1142.05 L2139.23 1139.87 L2142.48 1137.71 L2145.72 1135.58 L2148.96 1133.46 L2152.21 1131.36 L2155.45 1129.28 L2158.69 1127.21 L2161.94 1125.17 L2165.18 1123.14 L2168.42 1121.13 L2171.67 1119.15 L2174.91 1117.19 L2178.15 1115.26 L2181.39 1113.37 L2184.64 1111.51 L2187.88 1109.7 L2191.12 1107.94 L2194.37 1106.23 L2197.61 1104.59 L2200.85 1103.02 L2204.1 1101.52 L2207.34 1100.12 L2210.58 1098.81 L2213.82 1097.61 L2217.07 1096.52 L2220.31 1095.56 L2223.55 1094.72 L2226.8 1094.01 L2230.04 1093.43 L2233.28 1092.99 L2236.53 1092.69 L2239.77 1092.53 L2243.01 1092.51 L2246.25 1092.65 L2249.5 1092.93 L2252.74 1093.36 L2255.98 1093.95 L2259.23 1094.7 L2262.47 1095.6 L2265.71 1096.63 L2268.96 1097.8 L2272.2 1099.08 L2275.44 1100.48 L2278.69 1101.99 L2281.93 1103.58 L2285.17 1105.26 L2288.41 1107.03 L2291.66 1108.86 L2291.66 648.262 L2288.41 653.08 L2285.17 657.858 L2281.93 662.589 L2278.69 667.265 L2275.44 671.878 L2272.2 676.419 L2268.96 680.881 L2265.71 685.253 L2262.47 689.528 L2259.23 693.696 L2255.98 697.747 L2252.74 701.674 L2249.5 705.474 L2246.25 709.148 L2243.01 712.695 L2239.77 716.114 L2236.53 719.406 L2233.28 722.57 L2230.04 725.605 L2226.8 728.513 L2223.55 731.291 L2220.31 733.941 L2217.07 736.461 L2213.82 738.854 L2210.58 741.131 L2207.34 743.303 L2204.1 745.383 L2200.85 747.384 L2197.61 749.318 L2194.37 751.195 L2191.12 753.027 L2187.88 754.824 L2184.64 756.597 L2181.39 758.354 L2178.15 760.105 L2174.91 761.858 L2171.67 763.619 L2168.42 765.397 L2165.18 767.197 L2161.94 769.025 L2158.69 770.886 L2155.45 772.784 L2152.21 774.723 L2148.96 776.707 L2145.72 778.737 L2142.48 780.816 L2139.23 782.946 L2135.99 785.128 L2132.75 787.363 L2129.51 789.65 L2126.26 791.99 L2123.02 794.382 L2119.78 796.826 L2116.53 799.32 L2113.29 801.864 L2110.05 804.457 L2106.8 807.102 L2103.56 809.803 L2100.32 812.565 L2097.08 815.389 L2093.83 818.281 L2090.59 821.242 L2087.35 824.275 L2084.1 827.383 L2080.86 830.568 L2077.62 833.83 L2074.37 837.171 L2071.13 840.592 L2067.89 844.092 L2064.65 847.672 L2061.4 851.33 L2058.16 855.065 L2054.92 858.875 L2051.67 862.758 L2048.43 866.71 L2045.19 870.728 L2041.94 874.808 L2038.7 878.946 L2035.46 883.134 L2032.21 887.368 L2028.97 891.64 L2025.73 895.942 L2022.49 900.267 L2019.24 904.605 L2016 908.947 L2012.76 913.281 L2009.51 917.597 L2006.27 921.881 L2003.03 926.121 L1999.78 930.303 L1996.54 934.413 L1993.3 938.435 L1990.06 942.354 L1986.81 946.152 L1983.57 949.815 L1980.33 953.325 L1977.08 956.677 L1973.84 959.865 L1970.6 962.884 L1967.35 965.735 L1964.11 968.42 L1960.87 970.939 L1957.63 973.296 L1954.38 975.489 L1951.14 977.522 L1947.9 979.394 L1944.65 981.107 L1941.41 982.662 L1938.17 984.066 L1934.92 985.326 L1931.68 986.449 L1928.44 987.442 L1925.19 988.311 L1921.95 989.061 L1918.71 989.696 L1915.47 990.221 L1912.22 990.64 L1908.98 990.953 L1905.74 991.163 L1902.49 991.272 L1899.25 991.279 L1896.01 991.185 L1892.76 990.988 L1889.52 990.688 L1886.28 990.282 L1883.04 989.768 L1879.79 989.144 L1876.55 988.406 L1873.31 987.554 L1870.06 986.596 L1866.82 985.541 L1863.58 984.4 L1860.33 983.182 L1857.09 981.896 L1853.85 980.55 L1850.61 979.153 L1847.36 977.713 L1844.12 976.237 L1840.88 974.733 L1837.63 973.207 L1834.39 971.665 L1831.15 970.114 L1827.9 968.56 L1824.66 967.006 L1821.42 965.46 L1818.17 963.924 L1814.93 962.403 L1811.69 960.902 L1808.45 959.424 L1805.2 957.972 L1801.96 956.549 L1798.72 955.158 L1795.47 953.802 L1792.23 952.483 L1788.99 951.202 L1785.74 949.963 L1782.5 948.765 L1779.26 947.611 L1776.02 946.501 L1772.77 945.437 L1769.53 944.419 L1766.29 943.447 L1763.04 942.522 L1759.8 941.643 L1756.56 940.81 L1753.31 940.023 L1750.07 939.281 L1746.83 938.582 L1743.59 937.927 L1740.34 937.314 L1737.1 936.74 L1733.86 936.204 L1730.61 935.705 L1727.37 935.24 L1724.13 934.806 L1720.88 934.4 L1717.64 934.021 L1714.4 933.663 L1711.15 933.325 L1707.91 933.002 L1704.67 932.691 L1701.43 932.386 L1698.18 932.084 L1694.94 931.779 L1691.7 931.467 L1688.45 931.142 L1685.21 930.799 L1681.97 930.431 L1678.72 930.032 L1675.48 929.595 L1672.24 929.114 L1669 928.582 L1665.75 927.99 L1662.51 927.331 L1659.27 926.598 L1656.02 925.78 L1652.78 924.871 L1649.54 923.86 L1646.29 922.739 L1643.05 921.498 L1639.81 920.128 L1636.57 918.619 L1633.32 916.961 L1630.08 915.144 L1626.84 913.159 L1623.59 910.994 L1620.35 908.64 L1617.11 906.087 L1613.86 903.328 L1610.62 900.371 L1607.38 897.224 L1604.13 893.896 L1600.89 890.399 L1597.65 886.741 L1594.41 882.933 L1591.16 878.983 L1587.92 874.902 L1584.68 870.698 L1581.43 866.381 L1578.19 861.96 L1574.95 857.443 L1571.7 852.84 L1568.46 848.157 L1565.22 843.403 L1561.98 838.586 L1558.73 833.713 L1555.49 828.791 L1552.25 823.827 L1549 818.828 L1545.76 813.8 L1542.52 808.749 L1539.27 803.68 L1536.03 798.6 L1532.79 793.513 L1529.55 788.425 L1526.3 783.34 L1523.06 778.262 L1519.82 773.197 L1516.57 768.148 L1513.33 763.119 L1510.09 758.113 L1506.84 753.135 L1503.6 748.187 L1500.36 743.273 L1497.11 738.396 L1493.87 733.557 L1490.63 728.76 L1487.39 724.008 L1484.14 719.302 L1480.9 714.644 L1477.66 710.037 L1474.41 705.483 L1471.17 700.982 L1467.93 696.537 L1464.68 692.149 L1461.44 687.819 L1458.2 683.549 L1454.96 679.339 L1451.71 675.19 L1448.47 671.104 L1445.23 667.08 L1441.98 663.119 L1438.74 659.222 L1435.5 655.389 L1432.25 651.62 L1429.01 647.916 L1425.77 644.275 L1422.53 640.698 L1419.28 637.185 L1416.04 633.735 L1412.8 630.348 L1409.55 627.023 L1406.31 623.758 L1403.07 620.554 L1399.82 617.408 L1396.58 614.321 L1393.34 611.289 L1390.1 608.313 L1386.85 605.389 L1383.61 602.517 L1380.37 599.693 L1377.12 596.917 L1373.88 594.185 L1370.64 591.496 L1367.39 588.845 L1364.15 586.232 L1360.91 583.651 L1357.66 581.1 L1354.42 578.576 L1351.18 576.075 L1347.94 573.593 L1344.69 571.125 L1341.45 568.668 L1338.21 566.217 L1334.96 563.767 L1331.72 561.314 L1328.48 558.853 L1325.23 556.377 L1321.99 553.883 L1318.75 551.364 L1315.51 548.815 L1312.26 546.231 L1309.02 543.605 L1305.78 540.932 L1302.53 538.209 L1299.29 535.439 L1296.05 532.628 L1292.8 529.781 L1289.56 526.904 L1286.32 524.002 L1283.08 521.081 L1279.83 518.146 L1276.59 515.202 L1273.35 512.253 L1270.1 509.304 L1266.86 506.359 L1263.62 503.421 L1260.37 500.495 L1257.13 497.583 L1253.89 494.687 L1250.64 491.81 L1247.4 488.953 L1244.16 486.117 L1240.92 483.303 L1237.67 480.509 L1234.43 477.737 L1231.19 474.984 L1227.94 472.248 L1224.7 469.527 L1221.46 466.818 L1218.21 464.116 L1214.97 461.417 L1211.73 458.716 L1208.49 456.006 L1205.24 453.282 L1202 450.535 L1198.76 447.757 L1195.51 444.94 L1192.27 442.075 L1189.03 439.153 L1185.78 436.173 L1182.54 433.137 L1179.3 430.043 L1176.06 426.892 L1172.81 423.682 L1169.57 420.412 L1166.33 417.08 L1163.08 413.682 L1159.84 410.218 L1156.6 406.682 L1153.35 403.074 L1150.11 399.395 L1146.87 395.646 L1143.62 391.829 L1140.38 387.948 L1137.14 384.002 L1133.9 379.995 L1130.65 375.93 L1127.41 371.809 L1124.17 367.639 L1120.92 363.424 L1117.68 359.168 L1114.44 354.878 L1111.19 350.562 L1107.95 346.232 L1104.71 341.898 L1101.47 337.568 L1098.22 333.253 L1094.98 328.96 L1091.74 324.696 L1088.49 320.47 L1085.25 316.286 L1082.01 312.151 L1078.76 308.07 L1075.52 304.046 L1072.28 300.083 L1069.04 296.184 L1065.79 292.351 L1062.55 288.586 L1059.31 284.89 L1056.06 281.263 L1052.82 277.706 L1049.58 274.217 L1046.33 270.797 L1043.09 267.443 L1039.85 264.154 L1036.6 260.928 L1033.36 257.761 L1030.12 254.65 L1026.88 251.593 L1023.63 248.585 L1020.39 245.622 L1017.15 242.699 L1013.9 239.813 L1010.66 236.957 L1007.42 234.126 L1004.17 231.314 L1000.93 228.517 L997.688 225.727 L994.445 222.938 L991.202 220.144 L987.959 217.339 L984.716 214.516 L981.473 211.668 L978.23 208.792 L974.987 205.891 L971.744 202.972 L968.501 200.043 L965.258 197.11 L962.015 194.181 L958.772 191.261 L955.529 188.357 L952.286 185.475 L949.043 182.622 L945.8 179.804 L942.557 177.025 L939.314 174.291 L936.071 171.608 L932.828 168.98 L929.585 166.413 L926.342 163.909 L923.099 161.473 L919.856 159.109 L916.613 156.82 L913.37 154.609 L910.127 152.479 L906.884 150.432 L903.641 148.469 L900.398 146.594 L897.155 144.806 L893.911 143.107 L890.668 141.496 L887.425 139.974 L884.182 138.541 L880.939 137.194 L877.696 135.934 L874.453 134.757 L871.21 133.66 L867.967 132.642 L864.724 131.697 L861.481 130.821 L858.238 130.01 L854.995 129.257 L851.752 128.556 L848.509 127.9 L845.266 127.281 L842.023 126.69 L838.78 126.119 L835.537 125.557 L832.294 124.994 L829.051 124.42 L825.808 123.824 L822.565 123.193 L819.322 122.519 L816.079 121.788 L812.836 120.995 L809.593 120.134 L806.35 119.204 L803.107 118.204 L799.864 117.132 L796.621 115.99 L793.378 114.786 L790.135 113.53 L786.892 112.233 L783.648 110.905 L780.405 109.556 L777.162 108.196 L773.919 106.832 L770.676 105.475 L767.433 104.132 L764.19 102.81 L760.947 101.516 L757.704 100.256 L754.461 99.0355 L751.218 97.8591 L747.975 96.7312 L744.732 95.6557 L741.489 94.6358 L738.246 93.6745 L735.003 92.7745 L731.76 91.9384 L728.517 91.1708 L725.274 90.4762 L722.031 89.8588 L718.788 89.3228 L715.545 88.8718 L712.302 88.5089 L709.059 88.2371 L705.816 88.0589 L702.573 87.9763 L699.33 87.9911 L696.087 88.1045 L692.844 88.3176 L689.601 88.6309 L686.358 89.0445 L683.115 89.5584 L679.872 90.172 L676.629 90.8844 L673.385 91.6945 L670.142 92.6007 L666.899 93.6012 L663.656 94.6937 L660.413 95.8759 L657.17 97.1448 L653.927 98.4975 L650.684 99.9304 L647.441 101.44 L644.198 103.022 L640.955 104.673 L637.712 106.387 L634.469 108.16 L631.226 109.987 L627.983 111.862 L624.74 113.78 L621.497 115.735 L618.254 117.721 L615.011 119.731 L611.768 121.759 L608.525 123.798 L605.282 125.841 L602.039 127.881 L598.796 129.911 L595.553 131.923 L592.31 133.911 L589.067 135.866 L585.824 137.781 L582.581 139.649 L579.338 141.465 L576.095 143.232 L572.852 144.953 L569.609 146.634 L566.366 148.279 L563.122 149.893 L559.879 151.48 L556.636 153.046 L553.393 154.593 L550.15 156.128 L546.907 157.653 L543.664 159.172 L540.421 160.689 L537.178 162.208 L533.935 163.731 L530.692 165.261 L527.449 166.802 L524.206 168.354 L520.963 169.921 L517.72 171.504 L514.477 173.105 L511.234 174.724 L507.991 176.363 L504.748 178.022 L501.505 179.701 L498.262 181.401 L495.019 183.121 L491.776 184.86 L488.533 186.617 L485.29 188.392 L482.047 190.182 L478.804 191.986 L475.561 193.801 L472.318 195.624 L469.075 197.453 L465.832 199.285 L462.589 201.116 L459.346 202.941 L456.103 204.758 L452.859 206.56 L449.616 208.345 L446.373 210.105 L443.13 211.837 L439.887 213.535 L436.644 215.191 L433.401 216.802 L430.158 218.359 L426.915 219.857 L423.672 221.29 L420.429 222.65 L417.186 223.931 L413.943 225.125 L410.7 226.228 L407.457 227.231 L404.214 228.128 L400.971 228.914 L397.728 229.584 L394.485 230.14 L391.242 230.589 L387.999 230.934 L384.756 231.182 L381.513 231.337 L378.27 231.406 L375.027 231.393 L371.784 231.304 L368.541 231.144 L365.298 230.919 L362.055 230.633 L358.812 230.291 L355.569 229.899 L352.326 229.46 L349.083 228.979 L345.84 228.461 L342.596 227.909 L339.353 227.327 L336.11 226.719 L332.867 226.088 L329.624 225.437 L326.381 224.771 L323.138 224.09 L319.895 223.399 L316.652 222.7 L313.409 221.995 L310.166 221.286 L306.923 220.575 L303.68 219.865 L300.437 219.157 L297.194 218.453 L293.951 217.755 L290.708 217.063 L287.465 216.379 L284.222 215.705 L280.979 215.041 L277.736 214.389 L274.493 213.749 L271.25 213.122 L268.007 212.509 L264.764 211.91 L261.521 211.327 L258.278 210.76 L255.035 210.209  Z" fill="#3da44d" fill-rule="evenodd" fill-opacity="0.1"/>
<polyline clip-path="url(#clip811)" style="stroke:#3da44d; stroke-linecap:round; stroke-linejoin:round; stroke-width:8; stroke-opacity:1; fill:none" points="255.035,568.56 258.278,566.564 261.521,564.555 264.764,562.535 268.007,560.504 271.25,558.462 274.493,556.409 277.736,554.345 280.979,552.27 284.222,550.186 287.465,548.092 290.708,545.988 293.951,543.875 297.194,541.753 300.437,539.622 303.68,537.483 306.923,535.336 310.166,533.182 313.409,531.02 316.652,528.852 319.895,526.678 323.138,524.497 326.381,522.312 329.624,520.121 332.867,517.926 336.11,515.727 339.353,513.525 342.596,511.32 345.84,509.112 349.083,506.903 352.326,504.693 355.569,502.483 358.812,500.272 362.055,498.063 365.298,495.856 368.541,493.65 371.784,491.448 375.027,489.25 378.27,487.057 381.513,484.869 384.756,482.688 387.999,480.514 391.242,478.348 394.485,476.191 397.728,474.045 400.971,471.91 404.214,469.786 407.457,467.674 410.7,465.572 413.943,463.479 417.186,461.394 420.429,459.316 423.672,457.244 426.915,455.177 430.158,453.114 433.401,451.054 436.644,448.998 439.887,446.942 443.13,444.888 446.373,442.834 449.616,440.78 452.859,438.724 456.103,436.666 459.346,434.606 462.589,432.543 465.832,430.475 469.075,428.404 472.318,426.328 475.561,424.246 478.804,422.159 482.047,420.066 485.29,417.965 488.533,415.858 491.776,413.744 495.019,411.621 498.262,409.491 501.505,407.352 504.748,405.205 507.991,403.048 511.234,400.883 514.477,398.708 517.72,396.524 520.963,394.331 524.206,392.127 527.449,389.914 530.692,387.691 533.935,385.459 537.178,383.217 540.421,380.964 543.664,378.703 546.907,376.431 550.15,374.15 553.393,371.86 556.636,369.56 559.879,367.252 563.122,364.935 566.366,362.609 569.609,360.275 572.852,357.934 576.095,355.585 579.338,353.228 582.581,350.866 585.824,348.496 589.067,346.122 592.31,343.744 595.553,341.363 598.796,338.98 602.039,336.596 605.282,334.213 608.525,331.832 611.768,329.454 615.011,327.08 618.254,324.713 621.497,322.353 624.74,320.002 627.983,317.661 631.226,315.332 634.469,313.017 637.712,310.717 640.955,308.434 644.198,306.17 647.441,303.926 650.684,301.705 653.927,299.508 657.17,297.337 660.413,295.195 663.656,293.083 666.899,291.004 670.142,288.96 673.385,286.953 676.629,284.985 679.872,283.059 683.115,281.177 686.358,279.342 689.601,277.557 692.844,275.824 696.087,274.146 699.33,272.526 702.573,270.966 705.816,269.47 709.059,268.041 712.302,266.682 715.545,265.396 718.788,264.187 722.031,263.058 725.274,262.012 728.517,261.053 731.76,260.185 735.003,259.412 738.246,258.737 741.489,258.158 744.732,257.674 747.975,257.284 751.218,256.985 754.461,256.776 757.704,256.656 760.947,256.624 764.19,256.679 767.433,256.819 770.676,257.043 773.919,257.351 777.162,257.741 780.405,258.214 783.648,258.768 786.892,259.403 790.135,260.119 793.378,260.915 796.621,261.791 799.864,262.747 803.107,263.783 806.35,264.903 809.593,266.108 812.836,267.403 816.079,268.791 819.322,270.275 822.565,271.856 825.808,273.532 829.051,275.297 832.294,277.149 835.537,279.082 838.78,281.094 842.023,283.18 845.266,285.337 848.509,287.561 851.752,289.849 854.995,292.196 858.238,294.601 861.481,297.059 864.724,299.567 867.967,302.122 871.21,304.722 874.453,307.363 877.696,310.041 880.939,312.756 884.182,315.502 887.425,318.278 890.668,321.082 893.911,323.909 897.155,326.759 900.398,329.627 903.641,332.513 906.884,335.413 910.127,338.325 913.37,341.246 916.613,344.175 919.856,347.109 923.099,350.046 926.342,352.983 929.585,355.919 932.828,358.851 936.071,361.778 939.314,364.697 942.557,367.607 945.8,370.505 949.043,373.389 952.286,376.258 955.529,379.109 958.772,381.941 962.015,384.752 965.258,387.54 968.501,390.303 971.744,393.04 974.987,395.749 978.23,398.427 981.473,401.073 984.716,403.687 987.959,406.269 991.202,408.821 994.445,411.345 997.688,413.842 1000.93,416.315 1004.17,418.766 1007.42,421.196 1010.66,423.607 1013.9,426.002 1017.15,428.382 1020.39,430.749 1023.63,433.105 1026.88,435.452 1030.12,437.792 1033.36,440.128 1036.6,442.461 1039.85,444.794 1043.09,447.128 1046.33,449.466 1049.58,451.81 1052.82,454.162 1056.06,456.525 1059.31,458.9 1062.55,461.291 1065.79,463.7 1069.04,466.128 1072.28,468.579 1075.52,471.054 1078.76,473.557 1082.01,476.09 1085.25,478.656 1088.49,481.257 1091.74,483.896 1094.98,486.575 1098.22,489.298 1101.47,492.068 1104.71,494.887 1107.95,497.758 1111.19,500.685 1114.44,503.67 1117.68,506.716 1120.92,509.827 1124.17,513.005 1127.41,516.251 1130.65,519.569 1133.9,522.959 1137.14,526.424 1140.38,529.962 1143.62,533.57 1146.87,537.246 1150.11,540.988 1153.35,544.794 1156.6,548.661 1159.84,552.587 1163.08,556.568 1166.33,560.6 1169.57,564.679 1172.81,568.8 1176.06,572.961 1179.3,577.156 1182.54,581.382 1185.78,585.635 1189.03,589.911 1192.27,594.206 1195.51,598.518 1198.76,602.844 1202,607.185 1205.24,611.539 1208.49,615.906 1211.73,620.286 1214.97,624.678 1218.21,629.082 1221.46,633.496 1224.7,637.921 1227.94,642.357 1231.19,646.802 1234.43,651.256 1237.67,655.72 1240.92,660.192 1244.16,664.672 1247.4,669.16 1250.64,673.655 1253.89,678.158 1257.13,682.668 1260.37,687.184 1263.62,691.706 1266.86,696.234 1270.1,700.768 1273.35,705.308 1276.59,709.852 1279.83,714.402 1283.08,718.956 1286.32,723.515 1289.56,728.078 1292.8,732.645 1296.05,737.216 1299.29,741.79 1302.53,746.368 1305.78,750.949 1309.02,755.533 1312.26,760.12 1315.51,764.709 1318.75,769.301 1321.99,773.895 1325.23,778.491 1328.48,783.089 1331.72,787.69 1334.96,792.291 1338.21,796.894 1341.45,801.499 1344.69,806.104 1347.94,810.711 1351.18,815.318 1354.42,819.926 1357.66,824.534 1360.91,829.142 1364.15,833.75 1367.39,838.358 1370.64,842.966 1373.88,847.573 1377.12,852.179 1380.37,856.784 1383.61,861.387 1386.85,865.989 1390.1,870.589 1393.34,875.186 1396.58,879.781 1399.82,884.374 1403.07,888.963 1406.31,893.549 1409.55,898.131 1412.8,902.708 1416.04,907.282 1419.28,911.85 1422.53,916.413 1425.77,920.97 1429.01,925.521 1432.25,930.066 1435.5,934.603 1438.74,939.133 1441.98,943.655 1445.23,948.168 1448.47,952.672 1451.71,957.166 1454.96,961.649 1458.2,966.122 1461.44,970.583 1464.68,975.031 1467.93,979.466 1471.17,983.888 1474.41,988.295 1477.66,992.687 1480.9,997.062 1484.14,1001.42 1487.39,1005.76 1490.63,1010.08 1493.87,1014.38 1497.11,1018.67 1500.36,1022.93 1503.6,1027.16 1506.84,1031.37 1510.09,1035.56 1513.33,1039.72 1516.57,1043.86 1519.82,1047.96 1523.06,1052.04 1526.3,1056.08 1529.55,1060.09 1532.79,1064.07 1536.03,1068.01 1539.27,1071.91 1542.52,1075.78 1545.76,1079.6 1549,1083.39 1552.25,1087.12 1555.49,1090.82 1558.73,1094.46 1561.98,1098.06 1565.22,1101.61 1568.46,1105.1 1571.7,1108.53 1574.95,1111.91 1578.19,1115.23 1581.43,1118.49 1584.68,1121.68 1587.92,1124.81 1591.16,1127.86 1594.41,1130.85 1597.65,1133.76 1600.89,1136.59 1604.13,1139.34 1607.38,1142.01 1610.62,1144.59 1613.86,1147.08 1617.11,1149.48 1620.35,1151.79 1623.59,1154.01 1626.84,1156.13 1630.08,1158.17 1633.32,1160.12 1636.57,1162 1639.81,1163.79 1643.05,1165.51 1646.29,1167.16 1649.54,1168.73 1652.78,1170.24 1656.02,1171.68 1659.27,1173.05 1662.51,1174.37 1665.75,1175.62 1669,1176.82 1672.24,1177.96 1675.48,1179.04 1678.72,1180.08 1681.97,1181.06 1685.21,1181.99 1688.45,1182.87 1691.7,1183.71 1694.94,1184.5 1698.18,1185.25 1701.43,1185.96 1704.67,1186.62 1707.91,1187.25 1711.15,1187.84 1714.4,1188.38 1717.64,1188.9 1720.88,1189.37 1724.13,1189.81 1727.37,1190.21 1730.61,1190.59 1733.86,1190.92 1737.1,1191.23 1740.34,1191.5 1743.59,1191.74 1746.83,1191.95 1750.07,1192.13 1753.31,1192.28 1756.56,1192.4 1759.8,1192.49 1763.04,1192.54 1766.29,1192.57 1769.53,1192.57 1772.77,1192.54 1776.02,1192.48 1779.26,1192.39 1782.5,1192.26 1785.74,1192.11 1788.99,1191.93 1792.23,1191.71 1795.47,1191.46 1798.72,1191.18 1801.96,1190.87 1805.2,1190.53 1808.45,1190.15 1811.69,1189.73 1814.93,1189.28 1818.17,1188.79 1821.42,1188.27 1824.66,1187.7 1827.9,1187.1 1831.15,1186.46 1834.39,1185.77 1837.63,1185.04 1840.88,1184.27 1844.12,1183.45 1847.36,1182.58 1850.61,1181.67 1853.85,1180.71 1857.09,1179.69 1860.33,1178.62 1863.58,1177.49 1866.82,1176.31 1870.06,1175.07 1873.31,1173.77 1876.55,1172.4 1879.79,1170.98 1883.04,1169.48 1886.28,1167.93 1889.52,1166.32 1892.76,1164.64 1896.01,1162.92 1899.25,1161.14 1902.49,1159.3 1905.74,1157.42 1908.98,1155.48 1912.22,1153.5 1915.47,1151.46 1918.71,1149.39 1921.95,1147.26 1925.19,1145.1 1928.44,1142.89 1931.68,1140.64 1934.92,1138.34 1938.17,1136.01 1941.41,1133.64 1944.65,1131.23 1947.9,1128.78 1951.14,1126.3 1954.38,1123.77 1957.63,1121.21 1960.87,1118.62 1964.11,1115.99 1967.35,1113.32 1970.6,1110.61 1973.84,1107.87 1977.08,1105.1 1980.33,1102.28 1983.57,1099.43 1986.81,1096.54 1990.06,1093.62 1993.3,1090.66 1996.54,1087.68 1999.78,1084.66 2003.03,1081.62 2006.27,1078.56 2009.51,1075.48 2012.76,1072.38 2016,1069.27 2019.24,1066.14 2022.49,1063.01 2025.73,1059.86 2028.97,1056.72 2032.21,1053.56 2035.46,1050.41 2038.7,1047.26 2041.94,1044.11 2045.19,1040.97 2048.43,1037.84 2051.67,1034.72 2054.92,1031.61 2058.16,1028.51 2061.4,1025.43 2064.65,1022.37 2067.89,1019.33 2071.13,1016.31 2074.37,1013.31 2077.62,1010.35 2080.86,1007.41 2084.1,1004.5 2087.35,1001.63 2090.59,998.786 2093.83,995.982 2097.08,993.218 2100.32,990.494 2103.56,987.813 2106.8,985.177 2110.05,982.587 2113.29,980.047 2116.53,977.557 2119.78,975.116 2123.02,972.722 2126.26,970.374 2129.51,968.071 2132.75,965.81 2135.99,963.589 2139.23,961.408 2142.48,959.264 2145.72,957.156 2148.96,955.083 2152.21,953.041 2155.45,951.031 2158.69,949.05 2161.94,947.096 2165.18,945.168 2168.42,943.265 2171.67,941.384 2174.91,939.524 2178.15,937.684 2181.39,935.861 2184.64,934.054 2187.88,932.261 2191.12,930.481 2194.37,928.712 2197.61,926.953 2200.85,925.2 2204.1,923.454 2207.34,921.712 2210.58,919.972 2213.82,918.232 2217.07,916.492 2220.31,914.749 2223.55,913.005 2226.8,911.261 2230.04,909.519 2233.28,907.781 2236.53,906.048 2239.77,904.322 2243.01,902.604 2246.25,900.896 2249.5,899.2 2252.74,897.518 2255.98,895.85 2259.23,894.198 2262.47,892.562 2265.71,890.942 2268.96,889.339 2272.2,887.752 2275.44,886.18 2278.69,884.625 2281.93,883.085 2285.17,881.561 2288.41,880.053 2291.66,878.56 "/>
<path clip-path="url(#clip810)" d="M1953.46 302.578 L2280.8 302.578 L2280.8 95.2176 L1953.46 95.2176  Z" fill="#ffffff" fill-rule="evenodd" fill-opacity="1"/>
<polyline clip-path="url(#clip810)" style="stroke:#000000; stroke-linecap:round; stroke-linejoin:round; stroke-width:4; stroke-opacity:1; fill:none" points="1953.46,302.578 2280.8,302.578 2280.8,95.2176 1953.46,95.2176 1953.46,302.578 "/>
<polyline clip-path="url(#clip810)" style="stroke:#009af9; stroke-linecap:round; stroke-linejoin:round; stroke-width:4; stroke-opacity:1; fill:none" points="1977.44,147.058 2121.36,147.058 "/>
<path clip-path="url(#clip810)" d="M2152.76 131.051 L2152.76 138.412 L2161.53 138.412 L2161.53 141.722 L2152.76 141.722 L2152.76 155.796 Q2152.76 158.967 2153.61 159.87 Q2154.49 160.773 2157.16 160.773 L2161.53 160.773 L2161.53 164.338 L2157.16 164.338 Q2152.23 164.338 2150.35 162.509 Q2148.48 160.657 2148.48 155.796 L2148.48 141.722 L2145.35 141.722 L2145.35 138.412 L2148.48 138.412 L2148.48 131.051 L2152.76 131.051 Z" fill="#000000" fill-rule="nonzero" fill-opacity="1" /><path clip-path="url(#clip810)" d="M2182.16 142.393 Q2181.44 141.977 2180.58 141.791 Q2179.75 141.583 2178.73 141.583 Q2175.12 141.583 2173.17 143.944 Q2171.25 146.282 2171.25 150.68 L2171.25 164.338 L2166.97 164.338 L2166.97 138.412 L2171.25 138.412 L2171.25 142.44 Q2172.6 140.078 2174.75 138.944 Q2176.9 137.787 2179.98 137.787 Q2180.42 137.787 2180.95 137.856 Q2181.48 137.903 2182.13 138.018 L2182.16 142.393 Z" fill="#000000" fill-rule="nonzero" fill-opacity="1" /><path clip-path="url(#clip810)" d="M2186.18 154.106 L2186.18 138.412 L2190.44 138.412 L2190.44 153.944 Q2190.44 157.625 2191.88 159.476 Q2193.31 161.305 2196.18 161.305 Q2199.63 161.305 2201.62 159.106 Q2203.64 156.907 2203.64 153.111 L2203.64 138.412 L2207.9 138.412 L2207.9 164.338 L2203.64 164.338 L2203.64 160.356 Q2202.09 162.717 2200.03 163.875 Q2197.99 165.009 2195.28 165.009 Q2190.81 165.009 2188.5 162.231 Q2186.18 159.453 2186.18 154.106 M2196.9 137.787 L2196.9 137.787 Z" fill="#000000" fill-rule="nonzero" fill-opacity="1" /><path clip-path="url(#clip810)" d="M2220.88 131.051 L2220.88 138.412 L2229.66 138.412 L2229.66 141.722 L2220.88 141.722 L2220.88 155.796 Q2220.88 158.967 2221.74 159.87 Q2222.62 160.773 2225.28 160.773 L2229.66 160.773 L2229.66 164.338 L2225.28 164.338 Q2220.35 164.338 2218.48 162.509 Q2216.6 160.657 2216.6 155.796 L2216.6 141.722 L2213.48 141.722 L2213.48 138.412 L2216.6 138.412 L2216.6 131.051 L2220.88 131.051 Z" fill="#000000" fill-rule="nonzero" fill-opacity="1" /><path clip-path="url(#clip810)" d="M2256.81 148.689 L2256.81 164.338 L2252.55 164.338 L2252.55 148.828 Q2252.55 145.148 2251.11 143.319 Q2249.68 141.49 2246.81 141.49 Q2243.36 141.49 2241.37 143.69 Q2239.38 145.889 2239.38 149.685 L2239.38 164.338 L2235.1 164.338 L2235.1 128.319 L2239.38 128.319 L2239.38 142.44 Q2240.91 140.102 2242.97 138.944 Q2245.05 137.787 2247.76 137.787 Q2252.23 137.787 2254.52 140.565 Q2256.81 143.319 2256.81 148.689 Z" fill="#000000" fill-rule="nonzero" fill-opacity="1" /><circle clip-path="url(#clip810)" cx="2049.4" cy="198.898" r="20.48" fill="#e26f46" fill-rule="evenodd" fill-opacity="1" stroke="#000000" stroke-opacity="1" stroke-width="4.55111"/>
<path clip-path="url(#clip810)" d="M2164.26 194.187 L2164.26 180.159 L2168.52 180.159 L2168.52 216.178 L2164.26 216.178 L2164.26 212.289 Q2162.92 214.603 2160.86 215.738 Q2158.82 216.849 2155.95 216.849 Q2151.25 216.849 2148.29 213.099 Q2145.35 209.349 2145.35 203.238 Q2145.35 197.127 2148.29 193.377 Q2151.25 189.627 2155.95 189.627 Q2158.82 189.627 2160.86 190.761 Q2162.92 191.872 2164.26 194.187 M2149.75 203.238 Q2149.75 207.937 2151.67 210.622 Q2153.61 213.284 2156.99 213.284 Q2160.37 213.284 2162.32 210.622 Q2164.26 207.937 2164.26 203.238 Q2164.26 198.539 2162.32 195.877 Q2160.37 193.192 2156.99 193.192 Q2153.61 193.192 2151.67 195.877 Q2149.75 198.539 2149.75 203.238 Z" fill="#000000" fill-rule="nonzero" fill-opacity="1" /><path clip-path="url(#clip810)" d="M2189.08 203.145 Q2183.92 203.145 2181.92 204.326 Q2179.93 205.506 2179.93 208.354 Q2179.93 210.622 2181.42 211.965 Q2182.92 213.284 2185.49 213.284 Q2189.03 213.284 2191.16 210.784 Q2193.31 208.261 2193.31 204.094 L2193.31 203.145 L2189.08 203.145 M2197.57 201.386 L2197.57 216.178 L2193.31 216.178 L2193.31 212.242 Q2191.85 214.603 2189.68 215.738 Q2187.5 216.849 2184.36 216.849 Q2180.37 216.849 2178.01 214.627 Q2175.67 212.381 2175.67 208.631 Q2175.67 204.256 2178.59 202.034 Q2181.53 199.812 2187.34 199.812 L2193.31 199.812 L2193.31 199.395 Q2193.31 196.455 2191.37 194.858 Q2189.45 193.238 2185.95 193.238 Q2183.73 193.238 2181.62 193.77 Q2179.52 194.303 2177.57 195.367 L2177.57 191.432 Q2179.91 190.53 2182.11 190.09 Q2184.31 189.627 2186.39 189.627 Q2192.02 189.627 2194.79 192.543 Q2197.57 195.46 2197.57 201.386 Z" fill="#000000" fill-rule="nonzero" fill-opacity="1" /><path clip-path="url(#clip810)" d="M2210.56 182.891 L2210.56 190.252 L2219.33 190.252 L2219.33 193.562 L2210.56 193.562 L2210.56 207.636 Q2210.56 210.807 2211.42 211.71 Q2212.29 212.613 2214.96 212.613 L2219.33 212.613 L2219.33 216.178 L2214.96 216.178 Q2210.03 216.178 2208.15 214.349 Q2206.28 212.497 2206.28 207.636 L2206.28 193.562 L2203.15 193.562 L2203.15 190.252 L2206.28 190.252 L2206.28 182.891 L2210.56 182.891 Z" fill="#000000" fill-rule="nonzero" fill-opacity="1" /><path clip-path="url(#clip810)" d="M2236.72 203.145 Q2231.55 203.145 2229.56 204.326 Q2227.57 205.506 2227.57 208.354 Q2227.57 210.622 2229.05 211.965 Q2230.56 213.284 2233.13 213.284 Q2236.67 213.284 2238.8 210.784 Q2240.95 208.261 2240.95 204.094 L2240.95 203.145 L2236.72 203.145 M2245.21 201.386 L2245.21 216.178 L2240.95 216.178 L2240.95 212.242 Q2239.49 214.603 2237.32 215.738 Q2235.14 216.849 2231.99 216.849 Q2228.01 216.849 2225.65 214.627 Q2223.31 212.381 2223.31 208.631 Q2223.31 204.256 2226.23 202.034 Q2229.17 199.812 2234.98 199.812 L2240.95 199.812 L2240.95 199.395 Q2240.95 196.455 2239.01 194.858 Q2237.09 193.238 2233.59 193.238 Q2231.37 193.238 2229.26 193.77 Q2227.16 194.303 2225.21 195.367 L2225.21 191.432 Q2227.55 190.53 2229.75 190.09 Q2231.95 189.627 2234.03 189.627 Q2239.66 189.627 2242.43 192.543 Q2245.21 195.46 2245.21 201.386 Z" fill="#000000" fill-rule="nonzero" fill-opacity="1" /><polyline clip-path="url(#clip810)" style="stroke:#3da44d; stroke-linecap:round; stroke-linejoin:round; stroke-width:8; stroke-opacity:1; fill:none" points="1977.44,250.738 2121.36,250.738 "/>
<path clip-path="url(#clip810)" d="M2170.91 263.087 L2170.91 253.805 L2163.27 253.805 L2163.27 249.962 L2175.54 249.962 L2175.54 264.8 Q2172.83 266.721 2169.56 267.717 Q2166.3 268.689 2162.6 268.689 Q2154.49 268.689 2149.91 263.967 Q2145.35 259.221 2145.35 250.772 Q2145.35 242.3 2149.91 237.578 Q2154.49 232.833 2162.6 232.833 Q2165.98 232.833 2169.01 233.666 Q2172.06 234.499 2174.63 236.12 L2174.63 241.096 Q2172.04 238.897 2169.12 237.786 Q2166.21 236.675 2162.99 236.675 Q2156.65 236.675 2153.45 240.217 Q2150.28 243.758 2150.28 250.772 Q2150.28 257.763 2153.45 261.305 Q2156.65 264.846 2162.99 264.846 Q2165.47 264.846 2167.41 264.43 Q2169.36 263.99 2170.91 263.087 Z" fill="#000000" fill-rule="nonzero" fill-opacity="1" /><path clip-path="url(#clip810)" d="M2188.75 237.3 L2188.75 250.286 L2194.63 250.286 Q2197.9 250.286 2199.68 248.596 Q2201.46 246.907 2201.46 243.782 Q2201.46 240.68 2199.68 238.99 Q2197.9 237.3 2194.63 237.3 L2188.75 237.3 M2184.08 233.458 L2194.63 233.458 Q2200.44 233.458 2203.41 236.096 Q2206.39 238.712 2206.39 243.782 Q2206.39 248.897 2203.41 251.513 Q2200.44 254.129 2194.63 254.129 L2188.75 254.129 L2188.75 268.018 L2184.08 268.018 L2184.08 233.458 Z" fill="#000000" fill-rule="nonzero" fill-opacity="1" /></svg>
