<?xml version="1.0" encoding="utf-8"?>
<svg xmlns="http://www.w3.org/2000/svg" xmlns:xlink="http://www.w3.org/1999/xlink" width="600" height="400" viewBox="0 0 2400 1600">
<defs>
  <clipPath id="clip150">
    <rect x="0" y="0" width="2400" height="1600"/>
  </clipPath>
</defs>
<path clip-path="url(#clip150)" d="M0 1600 L2400 1600 L2400 0 L0 0  Z" fill="#ffffff" fill-rule="evenodd" fill-opacity="1"/>
<defs>
  <clipPath id="clip151">
    <rect x="480" y="0" width="1681" height="1600"/>
  </clipPath>
</defs>
<path clip-path="url(#clip150)" d="M193.936 1486.45 L2352.76 1486.45 L2352.76 47.2441 L193.936 47.2441  Z" fill="#ffffff" fill-rule="evenodd" fill-opacity="1"/>
<defs>
  <clipPath id="clip152">
    <rect x="193" y="47" width="2160" height="1440"/>
  </clipPath>
</defs>
<polyline clip-path="url(#clip152)" style="stroke:#000000; stroke-linecap:round; stroke-linejoin:round; stroke-width:2; stroke-opacity:0.1; fill:none" points="255.035,1486.45 255.035,47.2441 "/>
<polyline clip-path="url(#clip152)" style="stroke:#000000; stroke-linecap:round; stroke-linejoin:round; stroke-width:2; stroke-opacity:0.1; fill:none" points="579.173,1486.45 579.173,47.2441 "/>
<polyline clip-path="url(#clip152)" style="stroke:#000000; stroke-linecap:round; stroke-linejoin:round; stroke-width:2; stroke-opacity:0.1; fill:none" points="903.312,1486.45 903.312,47.2441 "/>
<polyline clip-path="url(#clip152)" style="stroke:#000000; stroke-linecap:round; stroke-linejoin:round; stroke-width:2; stroke-opacity:0.1; fill:none" points="1227.45,1486.45 1227.45,47.2441 "/>
<polyline clip-path="url(#clip152)" style="stroke:#000000; stroke-linecap:round; stroke-linejoin:round; stroke-width:2; stroke-opacity:0.1; fill:none" points="1551.59,1486.45 1551.59,47.2441 "/>
<polyline clip-path="url(#clip152)" style="stroke:#000000; stroke-linecap:round; stroke-linejoin:round; stroke-width:2; stroke-opacity:0.1; fill:none" points="1875.73,1486.45 1875.73,47.2441 "/>
<polyline clip-path="url(#clip152)" style="stroke:#000000; stroke-linecap:round; stroke-linejoin:round; stroke-width:2; stroke-opacity:0.1; fill:none" points="2199.87,1486.45 2199.87,47.2441 "/>
<polyline clip-path="url(#clip152)" style="stroke:#000000; stroke-linecap:round; stroke-linejoin:round; stroke-width:2; stroke-opacity:0.1; fill:none" points="193.936,1301.32 2352.76,1301.32 "/>
<polyline clip-path="url(#clip152)" style="stroke:#000000; stroke-linecap:round; stroke-linejoin:round; stroke-width:2; stroke-opacity:0.1; fill:none" points="193.936,1039.96 2352.76,1039.96 "/>
<polyline clip-path="url(#clip152)" style="stroke:#000000; stroke-linecap:round; stroke-linejoin:round; stroke-width:2; stroke-opacity:0.1; fill:none" points="193.936,778.591 2352.76,778.591 "/>
<polyline clip-path="url(#clip152)" style="stroke:#000000; stroke-linecap:round; stroke-linejoin:round; stroke-width:2; stroke-opacity:0.1; fill:none" points="193.936,517.227 2352.76,517.227 "/>
<polyline clip-path="url(#clip152)" style="stroke:#000000; stroke-linecap:round; stroke-linejoin:round; stroke-width:2; stroke-opacity:0.1; fill:none" points="193.936,255.862 2352.76,255.862 "/>
<polyline clip-path="url(#clip150)" style="stroke:#000000; stroke-linecap:round; stroke-linejoin:round; stroke-width:4; stroke-opacity:1; fill:none" points="193.936,1486.45 2352.76,1486.45 "/>
<polyline clip-path="url(#clip150)" style="stroke:#000000; stroke-linecap:round; stroke-linejoin:round; stroke-width:4; stroke-opacity:1; fill:none" points="255.035,1486.45 255.035,1467.55 "/>
<polyline clip-path="url(#clip150)" style="stroke:#000000; stroke-linecap:round; stroke-linejoin:round; stroke-width:4; stroke-opacity:1; fill:none" points="579.173,1486.45 579.173,1467.55 "/>
<polyline clip-path="url(#clip150)" style="stroke:#000000; stroke-linecap:round; stroke-linejoin:round; stroke-width:4; stroke-opacity:1; fill:none" points="903.312,1486.45 903.312,1467.55 "/>
<polyline clip-path="url(#clip150)" style="stroke:#000000; stroke-linecap:round; stroke-linejoin:round; stroke-width:4; stroke-opacity:1; fill:none" points="1227.45,1486.45 1227.45,1467.55 "/>
<polyline clip-path="url(#clip150)" style="stroke:#000000; stroke-linecap:round; stroke-linejoin:round; stroke-width:4; stroke-opacity:1; fill:none" points="1551.59,1486.45 1551.59,1467.55 "/>
<polyline clip-path="url(#clip150)" style="stroke:#000000; stroke-linecap:round; stroke-linejoin:round; stroke-width:4; stroke-opacity:1; fill:none" points="1875.73,1486.45 1875.73,1467.55 "/>
<polyline clip-path="url(#clip150)" style="stroke:#000000; stroke-linecap:round; stroke-linejoin:round; stroke-width:4; stroke-opacity:1; fill:none" points="2199.87,1486.45 2199.87,1467.55 "/>
<path clip-path="url(#clip150)" d="M255.035 1517.37 Q251.424 1517.37 249.595 1520.93 Q247.789 1524.47 247.789 1531.6 Q247.789 1538.71 249.595 1542.27 Q251.424 1545.82 255.035 1545.82 Q258.669 1545.82 260.474 1542.27 Q262.303 1538.71 262.303 1531.6 Q262.303 1524.47 260.474 1520.93 Q258.669 1517.37 255.035 1517.37 M255.035 1513.66 Q260.845 1513.66 263.9 1518.27 Q266.979 1522.85 266.979 1531.6 Q266.979 1540.33 263.9 1544.94 Q260.845 1549.52 255.035 1549.52 Q249.225 1549.52 246.146 1544.94 Q243.09 1540.33 243.09 1531.6 Q243.09 1522.85 246.146 1518.27 Q249.225 1513.66 255.035 1513.66 Z" fill="#000000" fill-rule="nonzero" fill-opacity="1" /><path clip-path="url(#clip150)" d="M569.555 1544.91 L577.194 1544.91 L577.194 1518.55 L568.884 1520.21 L568.884 1515.95 L577.148 1514.29 L581.824 1514.29 L581.824 1544.91 L589.463 1544.91 L589.463 1548.85 L569.555 1548.85 L569.555 1544.91 Z" fill="#000000" fill-rule="nonzero" fill-opacity="1" /><path clip-path="url(#clip150)" d="M897.965 1544.91 L914.284 1544.91 L914.284 1548.85 L892.34 1548.85 L892.34 1544.91 Q895.002 1542.16 899.585 1537.53 Q904.191 1532.88 905.372 1531.53 Q907.617 1529.01 908.497 1527.27 Q909.4 1525.51 909.4 1523.82 Q909.4 1521.07 907.455 1519.33 Q905.534 1517.6 902.432 1517.6 Q900.233 1517.6 897.779 1518.36 Q895.349 1519.13 892.571 1520.68 L892.571 1515.95 Q895.395 1514.82 897.849 1514.24 Q900.303 1513.66 902.34 1513.66 Q907.71 1513.66 910.904 1516.35 Q914.099 1519.03 914.099 1523.52 Q914.099 1525.65 913.289 1527.57 Q912.502 1529.47 910.395 1532.07 Q909.816 1532.74 906.715 1535.95 Q903.613 1539.15 897.965 1544.91 Z" fill="#000000" fill-rule="nonzero" fill-opacity="1" /><path clip-path="url(#clip150)" d="M1231.7 1530.21 Q1235.05 1530.93 1236.93 1533.2 Q1238.83 1535.47 1238.83 1538.8 Q1238.83 1543.92 1235.31 1546.72 Q1231.79 1549.52 1225.31 1549.52 Q1223.13 1549.52 1220.82 1549.08 Q1218.53 1548.66 1216.07 1547.81 L1216.07 1543.29 Q1218.02 1544.43 1220.33 1545.01 Q1222.65 1545.58 1225.17 1545.58 Q1229.57 1545.58 1231.86 1543.85 Q1234.17 1542.11 1234.17 1538.8 Q1234.17 1535.75 1232.02 1534.03 Q1229.89 1532.3 1226.07 1532.3 L1222.05 1532.3 L1222.05 1528.45 L1226.26 1528.45 Q1229.71 1528.45 1231.54 1527.09 Q1233.36 1525.7 1233.36 1523.11 Q1233.36 1520.45 1231.47 1519.03 Q1229.59 1517.6 1226.07 1517.6 Q1224.15 1517.6 1221.95 1518.01 Q1219.75 1518.43 1217.11 1519.31 L1217.11 1515.14 Q1219.78 1514.4 1222.09 1514.03 Q1224.43 1513.66 1226.49 1513.66 Q1231.81 1513.66 1234.92 1516.09 Q1238.02 1518.5 1238.02 1522.62 Q1238.02 1525.49 1236.37 1527.48 Q1234.73 1529.45 1231.7 1530.21 Z" fill="#000000" fill-rule="nonzero" fill-opacity="1" /><path clip-path="url(#clip150)" d="M1554.6 1518.36 L1542.79 1536.81 L1554.6 1536.81 L1554.6 1518.36 M1553.37 1514.29 L1559.25 1514.29 L1559.25 1536.81 L1564.18 1536.81 L1564.18 1540.7 L1559.25 1540.7 L1559.25 1548.85 L1554.6 1548.85 L1554.6 1540.7 L1539 1540.7 L1539 1536.19 L1553.37 1514.29 Z" fill="#000000" fill-rule="nonzero" fill-opacity="1" /><path clip-path="url(#clip150)" d="M1866.01 1514.29 L1884.36 1514.29 L1884.36 1518.22 L1870.29 1518.22 L1870.29 1526.7 Q1871.31 1526.35 1872.32 1526.19 Q1873.34 1526 1874.36 1526 Q1880.15 1526 1883.53 1529.17 Q1886.91 1532.34 1886.91 1537.76 Q1886.91 1543.34 1883.44 1546.44 Q1879.96 1549.52 1873.64 1549.52 Q1871.47 1549.52 1869.2 1549.15 Q1866.95 1548.78 1864.55 1548.04 L1864.55 1543.34 Q1866.63 1544.47 1868.85 1545.03 Q1871.07 1545.58 1873.55 1545.58 Q1877.56 1545.58 1879.89 1543.48 Q1882.23 1541.37 1882.23 1537.76 Q1882.23 1534.15 1879.89 1532.04 Q1877.56 1529.94 1873.55 1529.94 Q1871.68 1529.94 1869.8 1530.35 Q1867.95 1530.77 1866.01 1531.65 L1866.01 1514.29 Z" fill="#000000" fill-rule="nonzero" fill-opacity="1" /><path clip-path="url(#clip150)" d="M2200.27 1529.7 Q2197.12 1529.7 2195.27 1531.86 Q2193.44 1534.01 2193.44 1537.76 Q2193.44 1541.49 2195.27 1543.66 Q2197.12 1545.82 2200.27 1545.82 Q2203.42 1545.82 2205.25 1543.66 Q2207.1 1541.49 2207.1 1537.76 Q2207.1 1534.01 2205.25 1531.86 Q2203.42 1529.7 2200.27 1529.7 M2209.55 1515.05 L2209.55 1519.31 Q2207.79 1518.48 2205.99 1518.04 Q2204.21 1517.6 2202.45 1517.6 Q2197.82 1517.6 2195.36 1520.72 Q2192.93 1523.85 2192.59 1530.17 Q2193.95 1528.15 2196.01 1527.09 Q2198.07 1526 2200.55 1526 Q2205.76 1526 2208.77 1529.17 Q2211.8 1532.32 2211.8 1537.76 Q2211.8 1543.08 2208.65 1546.3 Q2205.5 1549.52 2200.27 1549.52 Q2194.28 1549.52 2191.1 1544.94 Q2187.93 1540.33 2187.93 1531.6 Q2187.93 1523.41 2191.82 1518.55 Q2195.71 1513.66 2202.26 1513.66 Q2204.02 1513.66 2205.8 1514.01 Q2207.61 1514.36 2209.55 1515.05 Z" fill="#000000" fill-rule="nonzero" fill-opacity="1" /><polyline clip-path="url(#clip150)" style="stroke:#000000; stroke-linecap:round; stroke-linejoin:round; stroke-width:4; stroke-opacity:1; fill:none" points="193.936,1486.45 193.936,47.2441 "/>
<polyline clip-path="url(#clip150)" style="stroke:#000000; stroke-linecap:round; stroke-linejoin:round; stroke-width:4; stroke-opacity:1; fill:none" points="193.936,1301.32 212.834,1301.32 "/>
<polyline clip-path="url(#clip150)" style="stroke:#000000; stroke-linecap:round; stroke-linejoin:round; stroke-width:4; stroke-opacity:1; fill:none" points="193.936,1039.96 212.834,1039.96 "/>
<polyline clip-path="url(#clip150)" style="stroke:#000000; stroke-linecap:round; stroke-linejoin:round; stroke-width:4; stroke-opacity:1; fill:none" points="193.936,778.591 212.834,778.591 "/>
<polyline clip-path="url(#clip150)" style="stroke:#000000; stroke-linecap:round; stroke-linejoin:round; stroke-width:4; stroke-opacity:1; fill:none" points="193.936,517.227 212.834,517.227 "/>
<polyline clip-path="url(#clip150)" style="stroke:#000000; stroke-linecap:round; stroke-linejoin:round; stroke-width:4; stroke-opacity:1; fill:none" points="193.936,255.862 212.834,255.862 "/>
<path clip-path="url(#clip150)" d="M50.9921 1301.77 L80.6679 1301.77 L80.6679 1305.71 L50.9921 1305.71 L50.9921 1301.77 Z" fill="#000000" fill-rule="nonzero" fill-opacity="1" /><path clip-path="url(#clip150)" d="M91.5706 1314.67 L99.2095 1314.67 L99.2095 1288.3 L90.8993 1289.97 L90.8993 1285.71 L99.1632 1284.04 L103.839 1284.04 L103.839 1314.67 L111.478 1314.67 L111.478 1318.6 L91.5706 1318.6 L91.5706 1314.67 Z" fill="#000000" fill-rule="nonzero" fill-opacity="1" /><path clip-path="url(#clip150)" d="M120.922 1312.72 L125.807 1312.72 L125.807 1318.6 L120.922 1318.6 L120.922 1312.72 Z" fill="#000000" fill-rule="nonzero" fill-opacity="1" /><path clip-path="url(#clip150)" d="M145.992 1287.12 Q142.381 1287.12 140.552 1290.68 Q138.746 1294.23 138.746 1301.35 Q138.746 1308.46 140.552 1312.03 Q142.381 1315.57 145.992 1315.57 Q149.626 1315.57 151.431 1312.03 Q153.26 1308.46 153.26 1301.35 Q153.26 1294.23 151.431 1290.68 Q149.626 1287.12 145.992 1287.12 M145.992 1283.42 Q151.802 1283.42 154.857 1288.02 Q157.936 1292.6 157.936 1301.35 Q157.936 1310.08 154.857 1314.69 Q151.802 1319.27 145.992 1319.27 Q140.181 1319.27 137.103 1314.69 Q134.047 1310.08 134.047 1301.35 Q134.047 1292.6 137.103 1288.02 Q140.181 1283.42 145.992 1283.42 Z" fill="#000000" fill-rule="nonzero" fill-opacity="1" /><path clip-path="url(#clip150)" d="M51.9875 1040.41 L81.6633 1040.41 L81.6633 1044.34 L51.9875 1044.34 L51.9875 1040.41 Z" fill="#000000" fill-rule="nonzero" fill-opacity="1" /><path clip-path="url(#clip150)" d="M101.756 1025.75 Q98.1447 1025.75 96.316 1029.32 Q94.5104 1032.86 94.5104 1039.99 Q94.5104 1047.1 96.316 1050.66 Q98.1447 1054.2 101.756 1054.2 Q105.39 1054.2 107.196 1050.66 Q109.024 1047.1 109.024 1039.99 Q109.024 1032.86 107.196 1029.32 Q105.39 1025.75 101.756 1025.75 M101.756 1022.05 Q107.566 1022.05 110.621 1026.66 Q113.7 1031.24 113.7 1039.99 Q113.7 1048.72 110.621 1053.32 Q107.566 1057.91 101.756 1057.91 Q95.9456 1057.91 92.8669 1053.32 Q89.8114 1048.72 89.8114 1039.99 Q89.8114 1031.24 92.8669 1026.66 Q95.9456 1022.05 101.756 1022.05 Z" fill="#000000" fill-rule="nonzero" fill-opacity="1" /><path clip-path="url(#clip150)" d="M121.918 1051.36 L126.802 1051.36 L126.802 1057.24 L121.918 1057.24 L121.918 1051.36 Z" fill="#000000" fill-rule="nonzero" fill-opacity="1" /><path clip-path="url(#clip150)" d="M137.033 1022.68 L155.39 1022.68 L155.39 1026.61 L141.316 1026.61 L141.316 1035.08 Q142.334 1034.74 143.353 1034.57 Q144.371 1034.39 145.39 1034.39 Q151.177 1034.39 154.556 1037.56 Q157.936 1040.73 157.936 1046.15 Q157.936 1051.73 154.464 1054.83 Q150.992 1057.91 144.672 1057.91 Q142.496 1057.91 140.228 1057.54 Q137.982 1057.17 135.575 1056.43 L135.575 1051.73 Q137.658 1052.86 139.881 1053.42 Q142.103 1053.97 144.58 1053.97 Q148.584 1053.97 150.922 1051.87 Q153.26 1049.76 153.26 1046.15 Q153.26 1042.54 150.922 1040.43 Q148.584 1038.32 144.58 1038.32 Q142.705 1038.32 140.83 1038.74 Q138.978 1039.16 137.033 1040.04 L137.033 1022.68 Z" fill="#000000" fill-rule="nonzero" fill-opacity="1" /><path clip-path="url(#clip150)" d="M100.76 764.39 Q97.1493 764.39 95.3206 767.955 Q93.515 771.496 93.515 778.626 Q93.515 785.732 95.3206 789.297 Q97.1493 792.839 100.76 792.839 Q104.395 792.839 106.2 789.297 Q108.029 785.732 108.029 778.626 Q108.029 771.496 106.2 767.955 Q104.395 764.39 100.76 764.39 M100.76 760.686 Q106.571 760.686 109.626 765.293 Q112.705 769.876 112.705 778.626 Q112.705 787.353 109.626 791.959 Q106.571 796.543 100.76 796.543 Q94.9502 796.543 91.8715 791.959 Q88.816 787.353 88.816 778.626 Q88.816 769.876 91.8715 765.293 Q94.9502 760.686 100.76 760.686 Z" fill="#000000" fill-rule="nonzero" fill-opacity="1" /><path clip-path="url(#clip150)" d="M120.922 789.992 L125.807 789.992 L125.807 795.871 L120.922 795.871 L120.922 789.992 Z" fill="#000000" fill-rule="nonzero" fill-opacity="1" /><path clip-path="url(#clip150)" d="M145.992 764.39 Q142.381 764.39 140.552 767.955 Q138.746 771.496 138.746 778.626 Q138.746 785.732 140.552 789.297 Q142.381 792.839 145.992 792.839 Q149.626 792.839 151.431 789.297 Q153.26 785.732 153.26 778.626 Q153.26 771.496 151.431 767.955 Q149.626 764.39 145.992 764.39 M145.992 760.686 Q151.802 760.686 154.857 765.293 Q157.936 769.876 157.936 778.626 Q157.936 787.353 154.857 791.959 Q151.802 796.543 145.992 796.543 Q140.181 796.543 137.103 791.959 Q134.047 787.353 134.047 778.626 Q134.047 769.876 137.103 765.293 Q140.181 760.686 145.992 760.686 Z" fill="#000000" fill-rule="nonzero" fill-opacity="1" /><path clip-path="url(#clip150)" d="M101.756 503.026 Q98.1447 503.026 96.316 506.59 Q94.5104 510.132 94.5104 517.262 Q94.5104 524.368 96.316 527.933 Q98.1447 531.474 101.756 531.474 Q105.39 531.474 107.196 527.933 Q109.024 524.368 109.024 517.262 Q109.024 510.132 107.196 506.59 Q105.39 503.026 101.756 503.026 M101.756 499.322 Q107.566 499.322 110.621 503.928 Q113.7 508.512 113.7 517.262 Q113.7 525.988 110.621 530.595 Q107.566 535.178 101.756 535.178 Q95.9456 535.178 92.8669 530.595 Q89.8114 525.988 89.8114 517.262 Q89.8114 508.512 92.8669 503.928 Q95.9456 499.322 101.756 499.322 Z" fill="#000000" fill-rule="nonzero" fill-opacity="1" /><path clip-path="url(#clip150)" d="M121.918 528.627 L126.802 528.627 L126.802 534.507 L121.918 534.507 L121.918 528.627 Z" fill="#000000" fill-rule="nonzero" fill-opacity="1" /><path clip-path="url(#clip150)" d="M137.033 499.947 L155.39 499.947 L155.39 503.882 L141.316 503.882 L141.316 512.354 Q142.334 512.007 143.353 511.845 Q144.371 511.66 145.39 511.66 Q151.177 511.66 154.556 514.831 Q157.936 518.002 157.936 523.419 Q157.936 528.998 154.464 532.099 Q150.992 535.178 144.672 535.178 Q142.496 535.178 140.228 534.808 Q137.982 534.437 135.575 533.697 L135.575 528.998 Q137.658 530.132 139.881 530.687 Q142.103 531.243 144.58 531.243 Q148.584 531.243 150.922 529.137 Q153.26 527.03 153.26 523.419 Q153.26 519.808 150.922 517.701 Q148.584 515.595 144.58 515.595 Q142.705 515.595 140.83 516.012 Q138.978 516.428 137.033 517.308 L137.033 499.947 Z" fill="#000000" fill-rule="nonzero" fill-opacity="1" /><path clip-path="url(#clip150)" d="M91.5706 269.207 L99.2095 269.207 L99.2095 242.842 L90.8993 244.508 L90.8993 240.249 L99.1632 238.582 L103.839 238.582 L103.839 269.207 L111.478 269.207 L111.478 273.142 L91.5706 273.142 L91.5706 269.207 Z" fill="#000000" fill-rule="nonzero" fill-opacity="1" /><path clip-path="url(#clip150)" d="M120.922 267.263 L125.807 267.263 L125.807 273.142 L120.922 273.142 L120.922 267.263 Z" fill="#000000" fill-rule="nonzero" fill-opacity="1" /><path clip-path="url(#clip150)" d="M145.992 241.661 Q142.381 241.661 140.552 245.226 Q138.746 248.768 138.746 255.897 Q138.746 263.004 140.552 266.568 Q142.381 270.11 145.992 270.11 Q149.626 270.11 151.431 266.568 Q153.26 263.004 153.26 255.897 Q153.26 248.768 151.431 245.226 Q149.626 241.661 145.992 241.661 M145.992 237.957 Q151.802 237.957 154.857 242.564 Q157.936 247.147 157.936 255.897 Q157.936 264.624 154.857 269.23 Q151.802 273.814 145.992 273.814 Q140.181 273.814 137.103 269.23 Q134.047 264.624 134.047 255.897 Q134.047 247.147 137.103 242.564 Q140.181 237.957 145.992 237.957 Z" fill="#000000" fill-rule="nonzero" fill-opacity="1" /><polyline clip-path="url(#clip152)" style="stroke:#009af9; stroke-linecap:round; stroke-linejoin:round; stroke-width:4; stroke-opacity:1; fill:none" points="255.035,778.591 258.276,773.364 261.517,768.137 264.759,762.912 268,757.688 271.242,752.466 274.483,747.246 277.724,742.03 280.966,736.818 284.207,731.609 287.449,726.405 290.69,721.207 293.931,716.014 297.173,710.828 300.414,705.648 303.655,700.476 306.897,695.311 310.138,690.155 313.38,685.007 316.621,679.869 319.862,674.741 323.104,669.623 326.345,664.516 329.587,659.421 332.828,654.337 336.069,649.266 339.311,644.208 342.552,639.163 345.793,634.132 349.035,629.116 352.276,624.114 355.518,619.128 358.759,614.158 362,609.205 365.242,604.268 368.483,599.349 371.725,594.447 374.966,589.564 378.207,584.7 381.449,579.856 384.69,575.031 387.931,570.227 391.173,565.443 394.414,560.681 397.656,555.94 400.897,551.222 404.138,546.527 407.38,541.855 410.621,537.206 413.863,532.582 417.104,527.982 420.345,523.407 423.587,518.858 426.828,514.334 430.069,509.838 433.311,505.368 436.552,500.925 439.794,496.51 443.035,492.123 446.276,487.765 449.518,483.436 452.759,479.137 456.001,474.867 459.242,470.628 462.483,466.42 465.725,462.243 468.966,458.097 472.208,453.984 475.449,449.903 478.69,445.855 481.932,441.84 485.173,437.859 488.414,433.912 491.656,429.999 494.897,426.122 498.139,422.279 501.38,418.472 504.621,414.701 507.863,410.967 511.104,407.269 514.346,403.609 517.587,399.985 520.828,396.4 524.07,392.853 527.311,389.345 530.552,385.875 533.794,382.445 537.035,379.054 540.277,375.704 543.518,372.393 546.759,369.124 550.001,365.895 553.242,362.707 556.484,359.561 559.725,356.457 562.966,353.396 566.208,350.376 569.449,347.4 572.69,344.466 575.932,341.576 579.173,338.73 582.415,335.928 585.656,333.17 588.897,330.456 592.139,327.788 595.38,325.164 598.622,322.586 601.863,320.053 605.104,317.566 608.346,315.126 611.587,312.731 614.828,310.384 618.07,308.083 621.311,305.829 624.553,303.622 627.794,301.463 631.035,299.352 634.277,297.288 637.518,295.273 640.76,293.306 644.001,291.388 647.242,289.518 650.484,287.697 653.725,285.925 656.966,284.203 660.208,282.53 663.449,280.906 666.691,279.333 669.932,277.809 673.173,276.335 676.415,274.912 679.656,273.539 682.898,272.216 686.139,270.944 689.38,269.723 692.622,268.553 695.863,267.433 699.104,266.365 702.346,265.348 705.587,264.382 708.829,263.468 712.07,262.606 715.311,261.794 718.553,261.035 721.794,260.327 725.036,259.672 728.277,259.068 731.518,258.516 734.76,258.016 738.001,257.568 741.242,257.172 744.484,256.828 747.725,256.537 750.967,256.297 754.208,256.11 757.449,255.975 760.691,255.893 763.932,255.863 767.174,255.885 770.415,255.959 773.656,256.085 776.898,256.264 780.139,256.495 783.381,256.778 786.622,257.114 789.863,257.501 793.105,257.941 796.346,258.432 799.587,258.976 802.829,259.572 806.07,260.219 809.312,260.919 812.553,261.67 815.794,262.473 819.036,263.327 822.277,264.233 825.519,265.191 828.76,266.2 832.001,267.26 835.243,268.371 838.484,269.533 841.725,270.746 844.967,272.01 848.208,273.324 851.45,274.69 854.691,276.105 857.932,277.571 861.174,279.086 864.415,280.652 867.657,282.268 870.898,283.933 874.139,285.648 877.381,287.411 880.622,289.225 883.863,291.087 887.105,292.997 890.346,294.957 893.588,296.964 896.829,299.02 900.07,301.124 903.312,303.275 906.553,305.474 909.795,307.721 913.036,310.014 916.277,312.354 919.519,314.741 922.76,317.175 926.001,319.654 929.243,322.179 932.484,324.75 935.726,327.367 938.967,330.028 942.208,332.735 945.45,335.486 948.691,338.281 951.933,341.12 955.174,344.003 958.415,346.93 961.657,349.899 964.898,352.912 968.139,355.967 971.381,359.064 974.622,362.204 977.864,365.384 981.105,368.607 984.346,371.87 987.588,375.174 990.829,378.518 994.071,381.902 997.312,385.326 1000.55,388.79 1003.79,392.292 1007.04,395.833 1010.28,399.412 1013.52,403.029 1016.76,406.684 1020,410.375 1023.24,414.104 1026.48,417.869 1029.73,421.67 1032.97,425.507 1036.21,429.379 1039.45,433.286 1042.69,437.228 1045.93,441.204 1049.17,445.213 1052.42,449.256 1055.66,453.332 1058.9,457.44 1062.14,461.581 1065.38,465.753 1068.62,469.956 1071.86,474.19 1075.11,478.455 1078.35,482.75 1081.59,487.074 1084.83,491.427 1088.07,495.81 1091.31,500.22 1094.55,504.658 1097.79,509.124 1101.04,513.616 1104.28,518.136 1107.52,522.681 1110.76,527.251 1114,531.847 1117.24,536.468 1120.48,541.113 1123.73,545.781 1126.97,550.473 1130.21,555.187 1133.45,559.924 1136.69,564.683 1139.93,569.463 1143.17,574.265 1146.42,579.086 1149.66,583.928 1152.9,588.789 1156.14,593.668 1159.38,598.567 1162.62,603.483 1165.86,608.417 1169.11,613.368 1172.35,618.336 1175.59,623.319 1178.83,628.318 1182.07,633.332 1185.31,638.361 1188.55,643.404 1191.8,648.46 1195.04,653.529 1198.28,658.61 1201.52,663.704 1204.76,668.809 1208,673.925 1211.24,679.052 1214.48,684.188 1217.73,689.334 1220.97,694.489 1224.21,699.653 1227.45,704.824 1230.69,710.002 1233.93,715.188 1237.17,720.38 1240.42,725.577 1243.66,730.78 1246.9,735.988 1250.14,741.2 1253.38,746.415 1256.62,751.634 1259.86,756.856 1263.11,762.08 1266.35,767.305 1269.59,772.532 1272.83,777.759 1276.07,782.986 1279.31,788.213 1282.55,793.439 1285.8,798.663 1289.04,803.885 1292.28,809.105 1295.52,814.322 1298.76,819.535 1302,824.744 1305.24,829.949 1308.48,835.148 1311.73,840.342 1314.97,845.529 1318.21,850.71 1321.45,855.884 1324.69,861.05 1327.93,866.207 1331.17,871.356 1334.42,876.496 1337.66,881.625 1340.9,886.745 1344.14,891.854 1347.38,896.951 1350.62,902.037 1353.86,907.11 1357.11,912.17 1360.35,917.217 1363.59,922.25 1366.83,927.269 1370.07,932.273 1373.31,937.261 1376.55,942.234 1379.8,947.19 1383.04,952.13 1386.28,957.052 1389.52,961.956 1392.76,966.842 1396,971.709 1399.24,976.557 1402.49,981.384 1405.73,986.192 1408.97,990.979 1412.21,995.745 1415.45,1000.49 1418.69,1005.21 1421.93,1009.91 1425.17,1014.59 1428.42,1019.24 1431.66,1023.87 1434.9,1028.47 1438.14,1033.05 1441.38,1037.6 1444.62,1042.13 1447.86,1046.63 1451.11,1051.1 1454.35,1055.55 1457.59,1059.97 1460.83,1064.36 1464.07,1068.73 1467.31,1073.06 1470.55,1077.36 1473.8,1081.64 1477.04,1085.88 1480.28,1090.09 1483.52,1094.28 1486.76,1098.43 1490,1102.55 1493.24,1106.63 1496.49,1110.69 1499.73,1114.71 1502.97,1118.69 1506.21,1122.64 1509.45,1126.56 1512.69,1130.45 1515.93,1134.29 1519.18,1138.11 1522.42,1141.88 1525.66,1145.62 1528.9,1149.33 1532.14,1152.99 1535.38,1156.62 1538.62,1160.21 1541.86,1163.77 1545.11,1167.28 1548.35,1170.76 1551.59,1174.19 1554.83,1177.59 1558.07,1180.95 1561.31,1184.26 1564.55,1187.54 1567.8,1190.78 1571.04,1193.97 1574.28,1197.12 1577.52,1200.23 1580.76,1203.3 1584,1206.33 1587.24,1209.31 1590.49,1212.25 1593.73,1215.15 1596.97,1218 1600.21,1220.81 1603.45,1223.58 1606.69,1226.3 1609.93,1228.97 1613.18,1231.6 1616.42,1234.19 1619.66,1236.73 1622.9,1239.22 1626.14,1241.67 1629.38,1244.07 1632.62,1246.43 1635.86,1248.74 1639.11,1251 1642.35,1253.21 1645.59,1255.38 1648.83,1257.5 1652.07,1259.57 1655.31,1261.59 1658.55,1263.57 1661.8,1265.49 1665.04,1267.37 1668.28,1269.2 1671.52,1270.98 1674.76,1272.71 1678,1274.39 1681.24,1276.02 1684.49,1277.6 1687.73,1279.13 1690.97,1280.62 1694.21,1282.05 1697.45,1283.43 1700.69,1284.76 1703.93,1286.04 1707.18,1287.27 1710.42,1288.45 1713.66,1289.57 1716.9,1290.65 1720.14,1291.68 1723.38,1292.65 1726.62,1293.57 1729.87,1294.44 1733.11,1295.26 1736.35,1296.03 1739.59,1296.75 1742.83,1297.41 1746.07,1298.02 1749.31,1298.58 1752.55,1299.09 1755.8,1299.55 1759.04,1299.95 1762.28,1300.3 1765.52,1300.6 1768.76,1300.85 1772,1301.05 1775.24,1301.19 1778.49,1301.28 1781.73,1301.32 1784.97,1301.31 1788.21,1301.24 1791.45,1301.12 1794.69,1300.95 1797.93,1300.73 1801.18,1300.45 1804.42,1300.13 1807.66,1299.75 1810.9,1299.32 1814.14,1298.83 1817.38,1298.3 1820.62,1297.71 1823.87,1297.07 1827.11,1296.38 1830.35,1295.64 1833.59,1294.84 1836.83,1293.99 1840.07,1293.1 1843.31,1292.15 1846.55,1291.15 1849.8,1290.1 1853.04,1288.99 1856.28,1287.84 1859.52,1286.63 1862.76,1285.38 1866,1284.07 1869.24,1282.71 1872.49,1281.31 1875.73,1279.85 1878.97,1278.34 1882.21,1276.78 1885.45,1275.18 1888.69,1273.52 1891.93,1271.81 1895.18,1270.06 1898.42,1268.25 1901.66,1266.4 1904.9,1264.49 1908.14,1262.54 1911.38,1260.54 1914.62,1258.49 1917.87,1256.4 1921.11,1254.25 1924.35,1252.06 1927.59,1249.82 1930.83,1247.54 1934.07,1245.2 1937.31,1242.82 1940.56,1240.4 1943.8,1237.93 1947.04,1235.41 1950.28,1232.84 1953.52,1230.24 1956.76,1227.58 1960,1224.88 1963.24,1222.14 1966.49,1219.35 1969.73,1216.52 1972.97,1213.64 1976.21,1210.72 1979.45,1207.76 1982.69,1204.75 1985.93,1201.71 1989.18,1198.61 1992.42,1195.48 1995.66,1192.31 1998.9,1189.09 2002.14,1185.84 2005.38,1182.54 2008.62,1179.2 2011.87,1175.82 2015.11,1172.4 2018.35,1168.95 2021.59,1165.45 2024.83,1161.92 2028.07,1158.34 2031.31,1154.73 2034.56,1151.08 2037.8,1147.4 2041.04,1143.67 2044.28,1139.92 2047.52,1136.12 2050.76,1132.29 2054,1128.42 2057.24,1124.52 2060.49,1120.58 2063.73,1116.61 2066.97,1112.61 2070.21,1108.57 2073.45,1104.5 2076.69,1100.4 2079.93,1096.26 2083.18,1092.1 2086.42,1087.9 2089.66,1083.67 2092.9,1079.41 2096.14,1075.12 2099.38,1070.8 2102.62,1066.45 2105.87,1062.07 2109.11,1057.67 2112.35,1053.23 2115.59,1048.77 2118.83,1044.28 2122.07,1039.77 2125.31,1035.23 2128.56,1030.66 2131.8,1026.07 2135.04,1021.45 2138.28,1016.81 2141.52,1012.15 2144.76,1007.46 2148,1002.75 2151.25,998.014 2154.49,993.259 2157.73,988.482 2160.97,983.684 2164.21,978.866 2167.45,974.027 2170.69,969.17 2173.93,964.293 2177.18,959.397 2180.42,954.483 2183.66,949.552 2186.9,944.604 2190.14,939.639 2193.38,934.658 2196.62,929.662 2199.87,924.65 2203.11,919.624 2206.35,914.583 2209.59,909.529 2212.83,904.462 2216.07,899.382 2219.31,894.291 2222.56,889.187 2225.8,884.073 2229.04,878.948 2232.28,873.813 2235.52,868.668 2238.76,863.515 2242,858.353 2245.25,853.183 2248.49,848.005 2251.73,842.821 2254.97,837.63 2258.21,832.434 2261.45,827.231 2264.69,822.025 2267.94,816.813 2271.18,811.598 2274.42,806.38 2277.66,801.158 2280.9,795.935 2284.14,790.71 2287.38,785.483 2290.62,780.256 "/>
<circle clip-path="url(#clip152)" cx="2021.59" cy="1216.78" r="14.4" fill="#e26f46" fill-rule="evenodd" fill-opacity="1" stroke="#000000" stroke-opacity="1" stroke-width="3.2"/>
<circle clip-path="url(#clip152)" cx="1000.55" cy="489.601" r="14.4" fill="#e26f46" fill-rule="evenodd" fill-opacity="1" stroke="#000000" stroke-opacity="1" stroke-width="3.2"/>
<circle clip-path="url(#clip152)" cx="614.828" cy="414.242" r="14.4" fill="#e26f46" fill-rule="evenodd" fill-opacity="1" stroke="#000000" stroke-opacity="1" stroke-width="3.2"/>
<circle clip-path="url(#clip152)" cx="1554.83" cy="1202.35" r="14.4" fill="#e26f46" fill-rule="evenodd" fill-opacity="1" stroke="#000000" stroke-opacity="1" stroke-width="3.2"/>
<circle clip-path="url(#clip152)" cx="1412.21" cy="872.496" r="14.4" fill="#e26f46" fill-rule="evenodd" fill-opacity="1" stroke="#000000" stroke-opacity="1" stroke-width="3.2"/>
<circle clip-path="url(#clip152)" cx="1541.86" cy="1268.72" r="14.4" fill="#e26f46" fill-rule="evenodd" fill-opacity="1" stroke="#000000" stroke-opacity="1" stroke-width="3.2"/>
<circle clip-path="url(#clip152)" cx="2229.04" cy="766.402" r="14.4" fill="#e26f46" fill-rule="evenodd" fill-opacity="1" stroke="#000000" stroke-opacity="1" stroke-width="3.2"/>
<circle clip-path="url(#clip152)" cx="1195.04" cy="772.889" r="14.4" fill="#e26f46" fill-rule="evenodd" fill-opacity="1" stroke="#000000" stroke-opacity="1" stroke-width="3.2"/>
<circle clip-path="url(#clip152)" cx="1156.14" cy="624.122" r="14.4" fill="#e26f46" fill-rule="evenodd" fill-opacity="1" stroke="#000000" stroke-opacity="1" stroke-width="3.2"/>
<circle clip-path="url(#clip152)" cx="734.76" cy="252.87" r="14.4" fill="#e26f46" fill-rule="evenodd" fill-opacity="1" stroke="#000000" stroke-opacity="1" stroke-width="3.2"/>
<circle clip-path="url(#clip152)" cx="2060.49" cy="1203.62" r="14.4" fill="#e26f46" fill-rule="evenodd" fill-opacity="1" stroke="#000000" stroke-opacity="1" stroke-width="3.2"/>
<circle clip-path="url(#clip152)" cx="1801.18" cy="1367.58" r="14.4" fill="#e26f46" fill-rule="evenodd" fill-opacity="1" stroke="#000000" stroke-opacity="1" stroke-width="3.2"/>
<circle clip-path="url(#clip152)" cx="556.484" cy="481.072" r="14.4" fill="#e26f46" fill-rule="evenodd" fill-opacity="1" stroke="#000000" stroke-opacity="1" stroke-width="3.2"/>
<circle clip-path="url(#clip152)" cx="1716.9" cy="1336.78" r="14.4" fill="#e26f46" fill-rule="evenodd" fill-opacity="1" stroke="#000000" stroke-opacity="1" stroke-width="3.2"/>
<circle clip-path="url(#clip152)" cx="1898.42" cy="1218.47" r="14.4" fill="#e26f46" fill-rule="evenodd" fill-opacity="1" stroke="#000000" stroke-opacity="1" stroke-width="3.2"/>
<circle clip-path="url(#clip152)" cx="1386.28" cy="1036.5" r="14.4" fill="#e26f46" fill-rule="evenodd" fill-opacity="1" stroke="#000000" stroke-opacity="1" stroke-width="3.2"/>
<circle clip-path="url(#clip152)" cx="958.415" cy="227.811" r="14.4" fill="#e26f46" fill-rule="evenodd" fill-opacity="1" stroke="#000000" stroke-opacity="1" stroke-width="3.2"/>
<circle clip-path="url(#clip152)" cx="297.173" cy="741.79" r="14.4" fill="#e26f46" fill-rule="evenodd" fill-opacity="1" stroke="#000000" stroke-opacity="1" stroke-width="3.2"/>
<circle clip-path="url(#clip152)" cx="1781.73" cy="1172.04" r="14.4" fill="#e26f46" fill-rule="evenodd" fill-opacity="1" stroke="#000000" stroke-opacity="1" stroke-width="3.2"/>
<circle clip-path="url(#clip152)" cx="550.001" cy="395.478" r="14.4" fill="#e26f46" fill-rule="evenodd" fill-opacity="1" stroke="#000000" stroke-opacity="1" stroke-width="3.2"/>
<path clip-path="url(#clip152)" d="M255.035 1012.37 L258.276 1008.36 L261.517 1004.37 L264.759 1000.43 L268 996.522 L271.242 992.668 L274.483 988.868 L277.724 985.129 L280.966 981.455 L284.207 977.854 L287.449 974.33 L290.69 970.889 L293.931 967.536 L297.173 964.277 L300.414 961.115 L303.655 958.044 L306.897 955.057 L310.138 952.147 L313.38 949.305 L316.621 946.525 L319.862 943.797 L323.104 941.115 L326.345 938.47 L329.587 935.854 L332.828 933.26 L336.069 930.68 L339.311 928.107 L342.552 925.533 L345.793 922.952 L349.035 920.357 L352.276 917.742 L355.518 915.1 L358.759 912.425 L362 909.713 L365.242 906.957 L368.483 904.152 L371.725 901.295 L374.966 898.38 L378.207 895.404 L381.449 892.363 L384.69 889.252 L387.931 886.07 L391.173 882.812 L394.414 879.476 L397.656 876.061 L400.897 872.562 L404.138 868.98 L407.38 865.311 L410.621 861.556 L413.863 857.711 L417.104 853.778 L420.345 849.754 L423.587 845.639 L426.828 841.435 L430.069 837.139 L433.311 832.754 L436.552 828.279 L439.794 823.715 L443.035 819.063 L446.276 814.325 L449.518 809.503 L452.759 804.598 L456.001 799.612 L459.242 794.549 L462.483 789.41 L465.725 784.199 L468.966 778.92 L472.208 773.576 L475.449 768.172 L478.69 762.711 L481.932 757.2 L485.173 751.643 L488.414 746.047 L491.656 740.417 L494.897 734.76 L498.139 729.084 L501.38 723.397 L504.621 717.706 L507.863 712.022 L511.104 706.353 L514.346 700.709 L517.587 695.102 L520.828 689.543 L524.07 684.043 L527.311 678.616 L530.552 673.274 L533.794 668.031 L537.035 662.902 L540.277 657.901 L543.518 653.042 L546.759 648.341 L550.001 643.813 L553.242 639.471 L556.484 635.319 L559.725 631.357 L562.966 627.58 L566.208 623.98 L569.449 620.551 L572.69 617.286 L575.932 614.176 L579.173 611.217 L582.415 608.4 L585.656 605.721 L588.897 603.172 L592.139 600.749 L595.38 598.446 L598.622 596.26 L601.863 594.187 L605.104 592.222 L608.346 590.364 L611.587 588.61 L614.828 586.958 L618.07 585.404 L621.311 583.941 L624.553 582.559 L627.794 581.248 L631.035 580 L634.277 578.807 L637.518 577.661 L640.76 576.557 L644.001 575.487 L647.242 574.446 L650.484 573.43 L653.725 572.435 L656.966 571.458 L660.208 570.496 L663.449 569.547 L666.691 568.609 L669.932 567.683 L673.173 566.769 L676.415 565.866 L679.656 564.977 L682.898 564.102 L686.139 563.245 L689.38 562.408 L692.622 561.594 L695.863 560.808 L699.104 560.054 L702.346 559.337 L705.587 558.662 L708.829 558.034 L712.07 557.461 L715.311 556.947 L718.553 556.5 L721.794 556.126 L725.036 555.834 L728.277 555.629 L731.518 555.52 L734.76 555.514 L738.001 555.616 L741.242 555.82 L744.484 556.118 L747.725 556.503 L750.967 556.966 L754.208 557.499 L757.449 558.094 L760.691 558.745 L763.932 559.444 L767.174 560.184 L770.415 560.958 L773.656 561.76 L776.898 562.585 L780.139 563.425 L783.381 564.276 L786.622 565.132 L789.863 565.989 L793.105 566.842 L796.346 567.686 L799.587 568.518 L802.829 569.335 L806.07 570.132 L809.312 570.907 L812.553 571.656 L815.794 572.378 L819.036 573.071 L822.277 573.731 L825.519 574.359 L828.76 574.952 L832.001 575.509 L835.243 576.03 L838.484 576.514 L841.725 576.962 L844.967 577.372 L848.208 577.746 L851.45 578.083 L854.691 578.386 L857.932 578.656 L861.174 578.893 L864.415 579.1 L867.657 579.278 L870.898 579.431 L874.139 579.562 L877.381 579.672 L880.622 579.766 L883.863 579.848 L887.105 579.922 L890.346 579.992 L893.588 580.063 L896.829 580.141 L900.07 580.231 L903.312 580.339 L906.553 580.473 L909.795 580.639 L913.036 580.844 L916.277 581.096 L919.519 581.405 L922.76 581.778 L926.001 582.225 L929.243 582.756 L932.484 583.381 L935.726 584.111 L938.967 584.957 L942.208 585.931 L945.45 587.044 L948.691 588.31 L951.933 589.739 L955.174 591.347 L958.415 593.144 L961.657 595.143 L964.898 597.339 L968.139 599.727 L971.381 602.301 L974.622 605.056 L977.864 607.986 L981.105 611.086 L984.346 614.351 L987.588 617.774 L990.829 621.352 L994.071 625.079 L997.312 628.95 L1000.55 632.961 L1003.79 637.106 L1007.04 641.374 L1010.28 645.752 L1013.52 650.229 L1016.76 654.792 L1020 659.432 L1023.24 664.136 L1026.48 668.895 L1029.73 673.697 L1032.97 678.534 L1036.21 683.397 L1039.45 688.276 L1042.69 693.165 L1045.93 698.055 L1049.17 702.939 L1052.42 707.813 L1055.66 712.669 L1058.9 717.502 L1062.14 722.309 L1065.38 727.085 L1068.62 731.826 L1071.86 736.53 L1075.11 741.195 L1078.35 745.818 L1081.59 750.398 L1084.83 754.935 L1088.07 759.428 L1091.31 763.878 L1094.55 768.286 L1097.79 772.652 L1101.04 776.98 L1104.28 781.272 L1107.52 785.53 L1110.76 789.758 L1114 793.961 L1117.24 798.142 L1120.48 802.308 L1123.73 806.464 L1126.97 810.616 L1130.21 814.771 L1133.45 818.936 L1136.69 823.119 L1139.93 827.328 L1143.17 831.571 L1146.42 835.857 L1149.66 840.194 L1152.9 844.594 L1156.14 849.063 L1159.38 853.611 L1162.62 858.237 L1165.86 862.938 L1169.11 867.713 L1172.35 872.558 L1175.59 877.472 L1178.83 882.452 L1182.07 887.497 L1185.31 892.604 L1188.55 897.771 L1191.8 902.996 L1195.04 908.277 L1198.28 913.61 L1201.52 918.989 L1204.76 924.402 L1208 929.842 L1211.24 935.299 L1214.48 940.765 L1217.73 946.231 L1220.97 951.688 L1224.21 957.13 L1227.45 962.548 L1230.69 967.936 L1233.93 973.286 L1237.17 978.593 L1240.42 983.851 L1243.66 989.054 L1246.9 994.197 L1250.14 999.276 L1253.38 1004.29 L1256.62 1009.22 L1259.86 1014.09 L1263.11 1018.87 L1266.35 1023.57 L1269.59 1028.19 L1272.83 1032.72 L1276.07 1037.17 L1279.31 1041.52 L1282.55 1045.79 L1285.8 1049.97 L1289.04 1054.06 L1292.28 1058.05 L1295.52 1061.96 L1298.76 1065.78 L1302 1069.51 L1305.24 1073.16 L1308.48 1076.72 L1311.73 1080.2 L1314.97 1083.61 L1318.21 1086.93 L1321.45 1090.18 L1324.69 1093.36 L1327.93 1096.48 L1331.17 1099.54 L1334.42 1102.54 L1337.66 1105.49 L1340.9 1108.39 L1344.14 1111.25 L1347.38 1114.09 L1350.62 1116.89 L1353.86 1119.68 L1357.11 1122.46 L1360.35 1125.23 L1363.59 1128.01 L1366.83 1130.81 L1370.07 1133.63 L1373.31 1136.48 L1376.55 1139.38 L1379.8 1142.33 L1383.04 1145.34 L1386.28 1148.43 L1389.52 1151.61 L1392.76 1154.87 L1396 1158.23 L1399.24 1161.68 L1402.49 1165.24 L1405.73 1168.9 L1408.97 1172.68 L1412.21 1176.57 L1415.45 1180.57 L1418.69 1184.68 L1421.93 1188.89 L1425.17 1193.18 L1428.42 1197.54 L1431.66 1201.96 L1434.9 1206.43 L1438.14 1210.94 L1441.38 1215.48 L1444.62 1220.03 L1447.86 1224.6 L1451.11 1229.17 L1454.35 1233.73 L1457.59 1238.28 L1460.83 1242.81 L1464.07 1247.31 L1467.31 1251.78 L1470.55 1256.21 L1473.8 1260.61 L1477.04 1264.95 L1480.28 1269.26 L1483.52 1273.51 L1486.76 1277.71 L1490 1281.86 L1493.24 1285.96 L1496.49 1290 L1499.73 1294 L1502.97 1297.94 L1506.21 1301.84 L1509.45 1305.69 L1512.69 1309.5 L1515.93 1313.27 L1519.18 1317.01 L1522.42 1320.71 L1525.66 1324.39 L1528.9 1328.06 L1532.14 1331.7 L1535.38 1335.34 L1538.62 1338.97 L1541.86 1342.61 L1545.11 1346.25 L1548.35 1349.9 L1551.59 1353.56 L1554.83 1357.22 L1558.07 1360.9 L1561.31 1364.57 L1564.55 1368.24 L1567.8 1371.89 L1571.04 1375.52 L1574.28 1379.12 L1577.52 1382.68 L1580.76 1386.19 L1584 1389.64 L1587.24 1393.03 L1590.49 1396.35 L1593.73 1399.59 L1596.97 1402.75 L1600.21 1405.83 L1603.45 1408.81 L1606.69 1411.69 L1609.93 1414.47 L1613.18 1417.14 L1616.42 1419.7 L1619.66 1422.15 L1622.9 1424.48 L1626.14 1426.7 L1629.38 1428.79 L1632.62 1430.76 L1635.86 1432.61 L1639.11 1434.33 L1642.35 1435.93 L1645.59 1437.4 L1648.83 1438.75 L1652.07 1439.97 L1655.31 1441.07 L1658.55 1442.05 L1661.8 1442.91 L1665.04 1443.64 L1668.28 1444.26 L1671.52 1444.77 L1674.76 1445.16 L1678 1445.45 L1681.24 1445.63 L1684.49 1445.72 L1687.73 1445.7 L1690.97 1445.6 L1694.21 1445.41 L1697.45 1445.14 L1700.69 1444.8 L1703.93 1444.39 L1707.18 1443.92 L1710.42 1443.39 L1713.66 1442.81 L1716.9 1442.2 L1720.14 1441.55 L1723.38 1440.87 L1726.62 1440.16 L1729.87 1439.43 L1733.11 1438.67 L1736.35 1437.89 L1739.59 1437.09 L1742.83 1436.28 L1746.07 1435.46 L1749.31 1434.63 L1752.55 1433.81 L1755.8 1432.99 L1759.04 1432.18 L1762.28 1431.38 L1765.52 1430.62 L1768.76 1429.88 L1772 1429.18 L1775.24 1428.53 L1778.49 1427.93 L1781.73 1427.4 L1784.97 1426.94 L1788.21 1426.54 L1791.45 1426.2 L1794.69 1425.91 L1797.93 1425.68 L1801.18 1425.49 L1804.42 1425.35 L1807.66 1425.23 L1810.9 1425.14 L1814.14 1425.06 L1817.38 1424.99 L1820.62 1424.92 L1823.87 1424.85 L1827.11 1424.76 L1830.35 1424.66 L1833.59 1424.53 L1836.83 1424.37 L1840.07 1424.18 L1843.31 1423.96 L1846.55 1423.69 L1849.8 1423.39 L1853.04 1423.04 L1856.28 1422.64 L1859.52 1422.21 L1862.76 1421.72 L1866 1421.2 L1869.24 1420.62 L1872.49 1420.01 L1875.73 1419.35 L1878.97 1418.66 L1882.21 1417.93 L1885.45 1417.17 L1888.69 1416.38 L1891.93 1415.56 L1895.18 1414.72 L1898.42 1413.86 L1901.66 1412.98 L1904.9 1412.08 L1908.14 1411.16 L1911.38 1410.2 L1914.62 1409.2 L1917.87 1408.16 L1921.11 1407.07 L1924.35 1405.93 L1927.59 1404.72 L1930.83 1403.46 L1934.07 1402.12 L1937.31 1400.72 L1940.56 1399.24 L1943.8 1397.69 L1947.04 1396.06 L1950.28 1394.35 L1953.52 1392.55 L1956.76 1390.67 L1960 1388.71 L1963.24 1386.67 L1966.49 1384.54 L1969.73 1382.33 L1972.97 1380.04 L1976.21 1377.66 L1979.45 1375.22 L1982.69 1372.69 L1985.93 1370.1 L1989.18 1367.44 L1992.42 1364.71 L1995.66 1361.93 L1998.9 1359.09 L2002.14 1356.2 L2005.38 1353.27 L2008.62 1350.31 L2011.87 1347.31 L2015.11 1344.29 L2018.35 1341.25 L2021.59 1338.21 L2024.83 1335.16 L2028.07 1332.11 L2031.31 1329.05 L2034.56 1325.99 L2037.8 1322.94 L2041.04 1319.88 L2044.28 1316.82 L2047.52 1313.77 L2050.76 1310.71 L2054 1307.65 L2057.24 1304.6 L2060.49 1301.55 L2063.73 1298.5 L2066.97 1295.45 L2070.21 1292.39 L2073.45 1289.32 L2076.69 1286.24 L2079.93 1283.13 L2083.18 1280 L2086.42 1276.85 L2089.66 1273.66 L2092.9 1270.43 L2096.14 1267.17 L2099.38 1263.87 L2102.62 1260.52 L2105.87 1257.14 L2109.11 1253.71 L2112.35 1250.23 L2115.59 1246.71 L2118.83 1243.15 L2122.07 1239.54 L2125.31 1235.89 L2128.56 1232.2 L2131.8 1228.48 L2135.04 1224.71 L2138.28 1220.92 L2141.52 1217.1 L2144.76 1213.25 L2148 1209.38 L2151.25 1205.49 L2154.49 1201.59 L2157.73 1197.69 L2160.97 1193.79 L2164.21 1189.9 L2167.45 1186.02 L2170.69 1182.16 L2173.93 1178.34 L2177.18 1174.54 L2180.42 1170.8 L2183.66 1167.11 L2186.9 1163.48 L2190.14 1159.93 L2193.38 1156.46 L2196.62 1153.08 L2199.87 1149.81 L2203.11 1146.65 L2206.35 1143.61 L2209.59 1140.72 L2212.83 1137.97 L2216.07 1135.37 L2219.31 1132.95 L2222.56 1130.71 L2225.8 1128.66 L2229.04 1126.82 L2232.28 1125.19 L2235.52 1123.76 L2238.76 1122.54 L2242 1121.5 L2245.25 1120.65 L2248.49 1119.97 L2251.73 1119.46 L2254.97 1119.11 L2258.21 1118.9 L2261.45 1118.84 L2264.69 1118.92 L2267.94 1119.12 L2271.18 1119.45 L2274.42 1119.89 L2277.66 1120.43 L2280.9 1121.08 L2284.14 1121.82 L2287.38 1122.64 L2290.62 1123.56 L2290.62 524.081 L2287.38 529.275 L2284.14 534.508 L2280.9 539.778 L2277.66 545.082 L2274.42 550.416 L2271.18 555.777 L2267.94 561.162 L2264.69 566.567 L2261.45 571.988 L2258.21 577.422 L2254.97 582.864 L2251.73 588.31 L2248.49 593.757 L2245.25 599.199 L2242 604.633 L2238.76 610.054 L2235.52 615.458 L2232.28 620.841 L2229.04 626.2 L2225.8 631.532 L2222.56 636.839 L2219.31 642.126 L2216.07 647.398 L2212.83 652.658 L2209.59 657.912 L2206.35 663.164 L2203.11 668.419 L2199.87 673.681 L2196.62 678.954 L2193.38 684.244 L2190.14 689.553 L2186.9 694.886 L2183.66 700.246 L2180.42 705.637 L2177.18 711.061 L2173.93 716.522 L2170.69 722.02 L2167.45 727.559 L2164.21 733.14 L2160.97 738.763 L2157.73 744.43 L2154.49 750.141 L2151.25 755.896 L2148 761.694 L2144.76 767.533 L2141.52 773.414 L2138.28 779.333 L2135.04 785.289 L2131.8 791.278 L2128.56 797.298 L2125.31 803.344 L2122.07 809.412 L2118.83 815.498 L2115.59 821.596 L2112.35 827.701 L2109.11 833.806 L2105.87 839.903 L2102.62 845.987 L2099.38 852.049 L2096.14 858.081 L2092.9 864.073 L2089.66 870.017 L2086.42 875.901 L2083.18 881.717 L2079.93 887.452 L2076.69 893.096 L2073.45 898.636 L2070.21 904.06 L2066.97 909.356 L2063.73 914.51 L2060.49 919.51 L2057.24 924.344 L2054 929.013 L2050.76 933.516 L2047.52 937.856 L2044.28 942.032 L2041.04 946.048 L2037.8 949.902 L2034.56 953.596 L2031.31 957.129 L2028.07 960.503 L2024.83 963.717 L2021.59 966.771 L2018.35 969.667 L2015.11 972.415 L2011.87 975.028 L2008.62 977.519 L2005.38 979.898 L2002.14 982.179 L1998.9 984.371 L1995.66 986.486 L1992.42 988.533 L1989.18 990.523 L1985.93 992.463 L1982.69 994.363 L1979.45 996.231 L1976.21 998.073 L1972.97 999.896 L1969.73 1001.71 L1966.49 1003.51 L1963.24 1005.31 L1960 1007.11 L1956.76 1008.92 L1953.52 1010.73 L1950.28 1012.56 L1947.04 1014.39 L1943.8 1016.25 L1940.56 1018.11 L1937.31 1019.99 L1934.07 1021.89 L1930.83 1023.79 L1927.59 1025.71 L1924.35 1027.64 L1921.11 1029.58 L1917.87 1031.52 L1914.62 1033.47 L1911.38 1035.41 L1908.14 1037.35 L1904.9 1039.28 L1901.66 1041.19 L1898.42 1043.09 L1895.18 1044.96 L1891.93 1046.81 L1888.69 1048.64 L1885.45 1050.47 L1882.21 1052.28 L1878.97 1054.08 L1875.73 1055.88 L1872.49 1057.68 L1869.24 1059.47 L1866 1061.26 L1862.76 1063.06 L1859.52 1064.85 L1856.28 1066.64 L1853.04 1068.43 L1849.8 1070.21 L1846.55 1071.98 L1843.31 1073.74 L1840.07 1075.49 L1836.83 1077.22 L1833.59 1078.92 L1830.35 1080.59 L1827.11 1082.22 L1823.87 1083.8 L1820.62 1085.32 L1817.38 1086.79 L1814.14 1088.17 L1810.9 1089.48 L1807.66 1090.69 L1804.42 1091.79 L1801.18 1092.77 L1797.93 1093.63 L1794.69 1094.37 L1791.45 1094.97 L1788.21 1095.46 L1784.97 1095.83 L1781.73 1096.07 L1778.49 1096.21 L1775.24 1096.23 L1772 1096.15 L1768.76 1095.97 L1765.52 1095.69 L1762.28 1095.33 L1759.04 1094.88 L1755.8 1094.35 L1752.55 1093.74 L1749.31 1093.05 L1746.07 1092.29 L1742.83 1091.46 L1739.59 1090.56 L1736.35 1089.58 L1733.11 1088.54 L1729.87 1087.42 L1726.62 1086.22 L1723.38 1084.95 L1720.14 1083.61 L1716.9 1082.18 L1713.66 1080.67 L1710.42 1079.08 L1707.18 1077.43 L1703.93 1075.73 L1700.69 1073.98 L1697.45 1072.2 L1694.21 1070.39 L1690.97 1068.55 L1687.73 1066.7 L1684.49 1064.85 L1681.24 1062.99 L1678 1061.14 L1674.76 1059.3 L1671.52 1057.47 L1668.28 1055.66 L1665.04 1053.87 L1661.8 1052.11 L1658.55 1050.38 L1655.31 1048.67 L1652.07 1047 L1648.83 1045.36 L1645.59 1043.75 L1642.35 1042.18 L1639.11 1040.64 L1635.86 1039.14 L1632.62 1037.66 L1629.38 1036.21 L1626.14 1034.79 L1622.9 1033.4 L1619.66 1032.02 L1616.42 1030.67 L1613.18 1029.32 L1609.93 1027.98 L1606.69 1026.65 L1603.45 1025.31 L1600.21 1023.96 L1596.97 1022.59 L1593.73 1021.2 L1590.49 1019.77 L1587.24 1018.31 L1584 1016.78 L1580.76 1015.2 L1577.52 1013.55 L1574.28 1011.81 L1571.04 1009.98 L1567.8 1008.04 L1564.55 1005.99 L1561.31 1003.8 L1558.07 1001.47 L1554.83 998.985 L1551.59 996.333 L1548.35 993.511 L1545.11 990.517 L1541.86 987.35 L1538.62 984.009 L1535.38 980.507 L1532.14 976.855 L1528.9 973.068 L1525.66 969.159 L1522.42 965.139 L1519.18 961.022 L1515.93 956.818 L1512.69 952.541 L1509.45 948.199 L1506.21 943.805 L1502.97 939.367 L1499.73 934.894 L1496.49 930.395 L1493.24 925.878 L1490 921.349 L1486.76 916.815 L1483.52 912.281 L1480.28 907.752 L1477.04 903.233 L1473.8 898.727 L1470.55 894.236 L1467.31 889.763 L1464.07 885.309 L1460.83 880.875 L1457.59 876.46 L1454.35 872.064 L1451.11 867.685 L1447.86 863.322 L1444.62 858.971 L1441.38 854.629 L1438.14 850.293 L1434.9 845.957 L1431.66 841.617 L1428.42 837.268 L1425.17 832.903 L1421.93 828.515 L1418.69 824.099 L1415.45 819.648 L1412.21 815.154 L1408.97 810.612 L1405.73 806.016 L1402.49 801.364 L1399.24 796.651 L1396 791.873 L1392.76 787.027 L1389.52 782.109 L1386.28 777.116 L1383.04 772.047 L1379.8 766.908 L1376.55 761.71 L1373.31 756.464 L1370.07 751.178 L1366.83 745.862 L1363.59 740.525 L1360.35 735.176 L1357.11 729.824 L1353.86 724.477 L1350.62 719.141 L1347.38 713.825 L1344.14 708.535 L1340.9 703.277 L1337.66 698.057 L1334.42 692.88 L1331.17 687.752 L1327.93 682.676 L1324.69 677.658 L1321.45 672.7 L1318.21 667.805 L1314.97 662.978 L1311.73 658.219 L1308.48 653.531 L1305.24 648.916 L1302 644.374 L1298.76 639.908 L1295.52 635.517 L1292.28 631.201 L1289.04 626.961 L1285.8 622.795 L1282.55 618.704 L1279.31 614.685 L1276.07 610.737 L1272.83 606.858 L1269.59 603.047 L1266.35 599.299 L1263.11 595.612 L1259.86 591.983 L1256.62 588.407 L1253.38 584.881 L1250.14 581.399 L1246.9 577.957 L1243.66 574.55 L1240.42 571.17 L1237.17 567.813 L1233.93 564.47 L1230.69 561.136 L1227.45 557.802 L1224.21 554.46 L1220.97 551.102 L1217.73 547.719 L1214.48 544.301 L1211.24 540.839 L1208 537.323 L1204.76 533.743 L1201.52 530.088 L1198.28 526.347 L1195.04 522.51 L1191.8 518.567 L1188.55 514.52 L1185.31 510.37 L1182.07 506.12 L1178.83 501.771 L1175.59 497.327 L1172.35 492.788 L1169.11 488.158 L1165.86 483.438 L1162.62 478.63 L1159.38 473.737 L1156.14 468.76 L1152.9 463.703 L1149.66 458.575 L1146.42 453.385 L1143.17 448.144 L1139.93 442.862 L1136.69 437.548 L1133.45 432.212 L1130.21 426.863 L1126.97 421.508 L1123.73 416.157 L1120.48 410.818 L1117.24 405.496 L1114 400.2 L1110.76 394.935 L1107.52 389.708 L1104.28 384.523 L1101.04 379.385 L1097.79 374.3 L1094.55 369.27 L1091.31 364.298 L1088.07 359.389 L1084.83 354.544 L1081.59 349.765 L1078.35 345.054 L1075.11 340.411 L1071.86 335.837 L1068.62 331.332 L1065.38 326.894 L1062.14 322.525 L1058.9 318.22 L1055.66 313.98 L1052.42 309.801 L1049.17 305.68 L1045.93 301.613 L1042.69 297.598 L1039.45 293.629 L1036.21 289.701 L1032.97 285.809 L1029.73 281.947 L1026.48 278.109 L1023.24 274.288 L1020 270.476 L1016.76 266.666 L1013.52 262.851 L1010.28 259.022 L1007.04 255.17 L1003.79 251.288 L1000.55 247.366 L997.312 243.398 L994.071 239.386 L990.829 235.335 L987.588 231.248 L984.346 227.129 L981.105 222.984 L977.864 218.816 L974.622 214.63 L971.381 210.43 L968.139 206.221 L964.898 202.007 L961.657 197.793 L958.415 193.583 L955.174 189.383 L951.933 185.199 L948.691 181.038 L945.45 176.907 L942.208 172.813 L938.967 168.763 L935.726 164.763 L932.484 160.82 L929.243 156.939 L926.001 153.127 L922.76 149.39 L919.519 145.733 L916.277 142.16 L913.036 138.676 L909.795 135.286 L906.553 131.994 L903.312 128.803 L900.07 125.718 L896.829 122.74 L893.588 119.874 L890.346 117.122 L887.105 114.486 L883.863 111.968 L880.622 109.571 L877.381 107.295 L874.139 105.143 L870.898 103.116 L867.657 101.214 L864.415 99.4396 L861.174 97.7921 L857.932 96.2725 L854.691 94.8811 L851.45 93.618 L848.208 92.4834 L844.967 91.4771 L841.725 90.5987 L838.484 89.8478 L835.243 89.2238 L832.001 88.726 L828.76 88.3535 L825.519 88.1052 L822.277 87.9799 L819.036 87.9763 L815.794 88.0928 L812.553 88.328 L809.312 88.6798 L806.07 89.1464 L802.829 89.7257 L799.587 90.4154 L796.346 91.213 L793.105 92.116 L789.863 93.1215 L786.622 94.2267 L783.381 95.4284 L780.139 96.7234 L776.898 98.1082 L773.656 99.5792 L770.415 101.133 L767.174 102.765 L763.932 104.471 L760.691 106.248 L757.449 108.09 L754.208 109.994 L750.967 111.955 L747.725 113.968 L744.484 116.029 L741.242 118.133 L738.001 120.275 L734.76 122.452 L731.518 124.659 L728.277 126.899 L725.036 129.173 L721.794 131.486 L718.553 133.839 L715.311 136.235 L712.07 138.678 L708.829 141.17 L705.587 143.713 L702.346 146.309 L699.104 148.962 L695.863 151.671 L692.622 154.44 L689.38 157.269 L686.139 160.158 L682.898 163.11 L679.656 166.122 L676.415 169.196 L673.173 172.33 L669.932 175.524 L666.691 178.774 L663.449 182.08 L660.208 185.439 L656.966 188.846 L653.725 192.299 L650.484 195.793 L647.242 199.323 L644.001 202.883 L640.76 206.468 L637.518 210.071 L634.277 213.684 L631.035 217.299 L627.794 220.909 L624.553 224.504 L621.311 228.074 L618.07 231.61 L614.828 235.102 L611.587 238.539 L608.346 241.919 L605.104 245.24 L601.863 248.5 L598.622 251.695 L595.38 254.823 L592.139 257.881 L588.897 260.863 L585.656 263.765 L582.415 266.584 L579.173 269.313 L575.932 271.947 L572.69 274.481 L569.449 276.908 L566.208 279.222 L562.966 281.418 L559.725 283.489 L556.484 285.431 L553.242 287.238 L550.001 288.915 L546.759 290.468 L543.518 291.907 L540.277 293.245 L537.035 294.493 L533.794 295.662 L530.552 296.764 L527.311 297.81 L524.07 298.81 L520.828 299.775 L517.587 300.715 L514.346 301.637 L511.104 302.552 L507.863 303.468 L504.621 304.39 L501.38 305.328 L498.139 306.286 L494.897 307.272 L491.656 308.29 L488.414 309.346 L485.173 310.443 L481.932 311.586 L478.69 312.779 L475.449 314.025 L472.208 315.327 L468.966 316.687 L465.725 318.108 L462.483 319.59 L459.242 321.137 L456.001 322.749 L452.759 324.426 L449.518 326.171 L446.276 327.982 L443.035 329.861 L439.794 331.806 L436.552 333.819 L433.311 335.898 L430.069 338.041 L426.828 340.249 L423.587 342.52 L420.345 344.853 L417.104 347.245 L413.863 349.694 L410.621 352.199 L407.38 354.757 L404.138 357.365 L400.897 360.02 L397.656 362.719 L394.414 365.459 L391.173 368.235 L387.931 371.045 L384.69 373.883 L381.449 376.745 L378.207 379.626 L374.966 382.522 L371.725 385.426 L368.483 388.334 L365.242 391.239 L362 394.135 L358.759 397.015 L355.518 399.872 L352.276 402.7 L349.035 405.491 L345.793 408.236 L342.552 410.929 L339.311 413.56 L336.069 416.12 L332.828 418.602 L329.587 420.996 L326.345 423.292 L323.104 425.481 L319.862 427.553 L316.621 429.499 L313.38 431.308 L310.138 432.972 L306.897 434.479 L303.655 435.821 L300.414 436.987 L297.173 437.969 L293.931 438.759 L290.69 439.363 L287.449 439.786 L284.207 440.037 L280.966 440.123 L277.724 440.052 L274.483 439.831 L271.242 439.468 L268 438.97 L264.759 438.345 L261.517 437.599 L258.276 436.742 L255.035 435.778  Z" fill="#3da44d" fill-rule="evenodd" fill-opacity="0.1"/>
<polyline clip-path="url(#clip152)" style="stroke:#3da44d; stroke-linecap:round; stroke-linejoin:round; stroke-width:8; stroke-opacity:1; fill:none" points="255.035,724.075 258.276,722.549 261.517,720.986 264.759,719.385 268,717.746 271.242,716.068 274.483,714.35 277.724,712.59 280.966,710.789 284.207,708.946 287.449,707.058 290.69,705.126 293.931,703.148 297.173,701.123 300.414,699.051 303.655,696.932 306.897,694.768 310.138,692.559 313.38,690.307 316.621,688.012 319.862,685.675 323.104,683.298 326.345,680.881 329.587,678.425 332.828,675.931 336.069,673.4 339.311,670.833 342.552,668.231 345.793,665.594 349.035,662.924 352.276,660.221 355.518,657.486 358.759,654.72 362,651.924 365.242,649.098 368.483,646.243 371.725,643.361 374.966,640.451 378.207,637.515 381.449,634.554 384.69,631.567 387.931,628.557 391.173,625.524 394.414,622.468 397.656,619.39 400.897,616.291 404.138,613.172 407.38,610.034 410.621,606.877 413.863,603.703 417.104,600.511 420.345,597.303 423.587,594.08 426.828,590.842 430.069,587.59 433.311,584.326 436.552,581.049 439.794,577.761 443.035,574.462 446.276,571.154 449.518,567.837 452.759,564.512 456.001,561.18 459.242,557.843 462.483,554.5 465.725,551.154 468.966,547.804 472.208,544.452 475.449,541.099 478.69,537.745 481.932,534.393 485.173,531.043 488.414,527.696 491.656,524.353 494.897,521.016 498.139,517.685 501.38,514.362 504.621,511.048 507.863,507.745 511.104,504.452 514.346,501.173 517.587,497.908 520.828,494.659 524.07,491.427 527.311,488.213 530.552,485.019 533.794,481.846 537.035,478.697 540.277,475.573 543.518,472.474 546.759,469.404 550.001,466.364 553.242,463.355 556.484,460.375 559.725,457.423 562.966,454.499 566.208,451.601 569.449,448.729 572.69,445.883 575.932,443.062 579.173,440.265 582.415,437.492 585.656,434.743 588.897,432.017 592.139,429.315 595.38,426.635 598.622,423.978 601.863,421.343 605.104,418.731 608.346,416.142 611.587,413.574 614.828,411.03 618.07,408.507 621.311,406.008 624.553,403.531 627.794,401.079 631.035,398.65 634.277,396.245 637.518,393.866 640.76,391.512 644.001,389.185 647.242,386.884 650.484,384.611 653.725,382.367 656.966,380.152 660.208,377.967 663.449,375.813 666.691,373.692 669.932,371.604 673.173,369.55 676.415,367.531 679.656,365.549 682.898,363.606 686.139,361.702 689.38,359.838 692.622,358.017 695.863,356.24 699.104,354.508 702.346,352.823 705.587,351.187 708.829,349.602 712.07,348.069 715.311,346.591 718.553,345.169 721.794,343.806 725.036,342.503 728.277,341.264 731.518,340.09 734.76,338.983 738.001,337.946 741.242,336.976 744.484,336.074 747.725,335.236 750.967,334.46 754.208,333.746 757.449,333.092 760.691,332.496 763.932,331.957 767.174,331.474 770.415,331.045 773.656,330.67 776.898,330.346 780.139,330.074 783.381,329.852 786.622,329.679 789.863,329.555 793.105,329.479 796.346,329.45 799.587,329.467 802.829,329.53 806.07,329.639 809.312,329.793 812.553,329.992 815.794,330.236 819.036,330.523 822.277,330.856 825.519,331.232 828.76,331.653 832.001,332.118 835.243,332.627 838.484,333.181 841.725,333.78 844.967,334.424 848.208,335.115 851.45,335.851 854.691,336.634 857.932,337.464 861.174,338.342 864.415,339.27 867.657,340.246 870.898,341.274 874.139,342.352 877.381,343.484 880.622,344.669 883.863,345.908 887.105,347.204 890.346,348.557 893.588,349.969 896.829,351.441 900.07,352.974 903.312,354.571 906.553,356.233 909.795,357.962 913.036,359.76 916.277,361.628 919.519,363.569 922.76,365.584 926.001,367.676 929.243,369.848 932.484,372.1 935.726,374.437 938.967,376.86 942.208,379.372 945.45,381.976 948.691,384.674 951.933,387.469 955.174,390.365 958.415,393.364 961.657,396.468 964.898,399.673 968.139,402.974 971.381,406.366 974.622,409.843 977.864,413.401 981.105,417.035 984.346,420.74 987.588,424.511 990.829,428.343 994.071,432.233 997.312,436.174 1000.55,440.164 1003.79,444.197 1007.04,448.272 1010.28,452.387 1013.52,456.54 1016.76,460.729 1020,464.954 1023.24,469.212 1026.48,473.502 1029.73,477.822 1032.97,482.172 1036.21,486.549 1039.45,490.953 1042.69,495.381 1045.93,499.834 1049.17,504.31 1052.42,508.807 1055.66,513.324 1058.9,517.861 1062.14,522.417 1065.38,526.99 1068.62,531.579 1071.86,536.184 1075.11,540.803 1078.35,545.436 1081.59,550.082 1084.83,554.739 1088.07,559.409 1091.31,564.088 1094.55,568.778 1097.79,573.476 1101.04,578.183 1104.28,582.897 1107.52,587.619 1110.76,592.347 1114,597.08 1117.24,601.819 1120.48,606.563 1123.73,611.311 1126.97,616.062 1130.21,620.817 1133.45,625.574 1136.69,630.334 1139.93,635.095 1143.17,639.858 1146.42,644.621 1149.66,649.385 1152.9,654.148 1156.14,658.912 1159.38,663.674 1162.62,668.434 1165.86,673.188 1169.11,677.935 1172.35,682.673 1175.59,687.399 1178.83,692.112 1182.07,696.808 1185.31,701.487 1188.55,706.145 1191.8,710.782 1195.04,715.393 1198.28,719.979 1201.52,724.538 1204.76,729.073 1208,733.583 1211.24,738.069 1214.48,742.533 1217.73,746.975 1220.97,751.395 1224.21,755.795 1227.45,760.175 1230.69,764.536 1233.93,768.878 1237.17,773.203 1240.42,777.511 1243.66,781.802 1246.9,786.077 1250.14,790.338 1253.38,794.584 1256.62,798.816 1259.86,803.035 1263.11,807.241 1266.35,811.435 1269.59,815.618 1272.83,819.79 1276.07,823.952 1279.31,828.104 1282.55,832.248 1285.8,836.382 1289.04,840.509 1292.28,844.627 1295.52,848.739 1298.76,852.845 1302,856.944 1305.24,861.038 1308.48,865.127 1311.73,869.211 1314.97,873.291 1318.21,877.368 1321.45,881.441 1324.69,885.511 1327.93,889.579 1331.17,893.644 1334.42,897.709 1337.66,901.771 1340.9,905.833 1344.14,909.894 1347.38,913.955 1350.62,918.016 1353.86,922.078 1357.11,926.14 1360.35,930.203 1363.59,934.268 1366.83,938.334 1370.07,942.401 1373.31,946.471 1376.55,950.543 1379.8,954.618 1383.04,958.695 1386.28,962.775 1389.52,966.858 1392.76,970.949 1396,975.05 1399.24,979.167 1402.49,983.302 1405.73,987.46 1408.97,991.645 1412.21,995.861 1415.45,1000.11 1418.69,1004.39 1421.93,1008.7 1425.17,1013.04 1428.42,1017.4 1431.66,1021.79 1434.9,1026.19 1438.14,1030.62 1441.38,1035.05 1444.62,1039.5 1447.86,1043.96 1451.11,1048.43 1454.35,1052.9 1457.59,1057.37 1460.83,1061.84 1464.07,1066.31 1467.31,1070.77 1470.55,1075.22 1473.8,1079.67 1477.04,1084.09 1480.28,1088.5 1483.52,1092.89 1486.76,1097.26 1490,1101.6 1493.24,1105.92 1496.49,1110.2 1499.73,1114.45 1502.97,1118.65 1506.21,1122.82 1509.45,1126.94 1512.69,1131.02 1515.93,1135.04 1519.18,1139.01 1522.42,1142.93 1525.66,1146.78 1528.9,1150.56 1532.14,1154.28 1535.38,1157.92 1538.62,1161.49 1541.86,1164.98 1545.11,1168.38 1548.35,1171.7 1551.59,1174.94 1554.83,1178.1 1558.07,1181.18 1561.31,1184.19 1564.55,1187.11 1567.8,1189.97 1571.04,1192.75 1574.28,1195.47 1577.52,1198.11 1580.76,1200.69 1584,1203.21 1587.24,1205.67 1590.49,1208.06 1593.73,1210.4 1596.97,1212.67 1600.21,1214.89 1603.45,1217.06 1606.69,1219.17 1609.93,1221.23 1613.18,1223.23 1616.42,1225.18 1619.66,1227.09 1622.9,1228.94 1626.14,1230.75 1629.38,1232.5 1632.62,1234.21 1635.86,1235.87 1639.11,1237.49 1642.35,1239.06 1645.59,1240.58 1648.83,1242.06 1652.07,1243.49 1655.31,1244.87 1658.55,1246.21 1661.8,1247.51 1665.04,1248.76 1668.28,1249.96 1671.52,1251.12 1674.76,1252.23 1678,1253.29 1681.24,1254.31 1684.49,1255.28 1687.73,1256.2 1690.97,1257.08 1694.21,1257.9 1697.45,1258.67 1700.69,1259.39 1703.93,1260.06 1707.18,1260.67 1710.42,1261.23 1713.66,1261.74 1716.9,1262.19 1720.14,1262.58 1723.38,1262.91 1726.62,1263.19 1729.87,1263.42 1733.11,1263.6 1736.35,1263.74 1739.59,1263.83 1742.83,1263.87 1746.07,1263.88 1749.31,1263.84 1752.55,1263.77 1755.8,1263.67 1759.04,1263.53 1762.28,1263.36 1765.52,1263.15 1768.76,1262.92 1772,1262.66 1775.24,1262.38 1778.49,1262.07 1781.73,1261.74 1784.97,1261.38 1788.21,1261 1791.45,1260.59 1794.69,1260.14 1797.93,1259.66 1801.18,1259.13 1804.42,1258.57 1807.66,1257.96 1810.9,1257.31 1814.14,1256.62 1817.38,1255.89 1820.62,1255.12 1823.87,1254.32 1827.11,1253.49 1830.35,1252.62 1833.59,1251.72 1836.83,1250.79 1840.07,1249.84 1843.31,1248.85 1846.55,1247.84 1849.8,1246.8 1853.04,1245.73 1856.28,1244.64 1859.52,1243.53 1862.76,1242.39 1866,1241.23 1869.24,1240.05 1872.49,1238.84 1875.73,1237.62 1878.97,1236.37 1882.21,1235.1 1885.45,1233.82 1888.69,1232.51 1891.93,1231.18 1895.18,1229.84 1898.42,1228.47 1901.66,1227.09 1904.9,1225.68 1908.14,1224.25 1911.38,1222.81 1914.62,1221.34 1917.87,1219.84 1921.11,1218.33 1924.35,1216.79 1927.59,1215.22 1930.83,1213.63 1934.07,1212.01 1937.31,1210.36 1940.56,1208.68 1943.8,1206.97 1947.04,1205.23 1950.28,1203.45 1953.52,1201.64 1956.76,1199.8 1960,1197.91 1963.24,1195.99 1966.49,1194.02 1969.73,1192.02 1972.97,1189.97 1976.21,1187.87 1979.45,1185.72 1982.69,1183.53 1985.93,1181.28 1989.18,1178.98 1992.42,1176.62 1995.66,1174.21 1998.9,1171.73 2002.14,1169.19 2005.38,1166.59 2008.62,1163.91 2011.87,1161.17 2015.11,1158.35 2018.35,1155.46 2021.59,1152.49 2024.83,1149.44 2028.07,1146.3 2031.31,1143.09 2034.56,1139.8 2037.8,1136.42 2041.04,1132.96 2044.28,1129.43 2047.52,1125.81 2050.76,1122.11 2054,1118.33 2057.24,1114.47 2060.49,1110.53 2063.73,1106.51 2066.97,1102.4 2070.21,1098.23 2073.45,1093.98 2076.69,1089.67 2079.93,1085.29 2083.18,1080.86 2086.42,1076.37 2089.66,1071.84 2092.9,1067.25 2096.14,1062.63 2099.38,1057.96 2102.62,1053.26 2105.87,1048.52 2109.11,1043.76 2112.35,1038.97 2115.59,1034.15 2118.83,1029.32 2122.07,1024.48 2125.31,1019.62 2128.56,1014.75 2131.8,1009.88 2135.04,1005 2138.28,1000.13 2141.52,995.255 2144.76,990.39 2148,985.535 2151.25,980.693 2154.49,975.868 2157.73,971.062 2160.97,966.278 2164.21,961.52 2167.45,956.79 2170.69,952.092 2173.93,947.429 2177.18,942.803 2180.42,938.218 2183.66,933.678 2186.9,929.184 2190.14,924.741 2193.38,920.351 2196.62,916.017 2199.87,911.744 2203.11,907.533 2206.35,903.389 2209.59,899.314 2212.83,895.312 2216.07,891.386 2219.31,887.539 2222.56,883.775 2225.8,880.098 2229.04,876.51 2232.28,873.015 2235.52,869.611 2238.76,866.295 2242,863.067 2245.25,859.924 2248.49,856.864 2251.73,853.885 2254.97,850.986 2258.21,848.163 2261.45,845.416 2264.69,842.744 2267.94,840.143 2271.18,837.612 2274.42,835.151 2277.66,832.756 2280.9,830.427 2284.14,828.162 2287.38,825.96 2290.62,823.818 "/>
<polyline clip-path="url(#clip152)" style="stroke:#c271d2; stroke-linecap:round; stroke-linejoin:round; stroke-width:12; stroke-opacity:1; fill:none" points="255.035,918.529 362.225,825.609 469.416,703.041 576.607,557.863 683.797,498.504 790.988,489.217 898.179,505.926 1005.37,576.344 1112.56,727.93 1219.75,884.571 1326.94,1028.09 1434.13,1146.71 1541.32,1284.19 1648.51,1374.59 1755.7,1377.89 1862.89,1363.32 1970.09,1320.14 2077.28,1221.62 2184.47,1090.15 2291.66,1025.98 "/>
<polyline clip-path="url(#clip152)" style="stroke:#ac8d18; stroke-linecap:round; stroke-linejoin:round; stroke-width:12; stroke-opacity:1; fill:none" points="255.035,529.621 362.225,477.848 469.416,391.636 576.607,327.091 683.797,227.643 790.988,169.829 898.179,198.217 1005.37,315.999 1112.56,462.018 1219.75,614.905 1326.94,748.58 1434.13,903.593 1541.32,1044.61 1648.51,1109.23 1755.7,1149.45 1862.89,1121.37 1970.09,1063.45 2077.28,956.148 2184.47,774.962 2291.66,620.32 "/>
<path clip-path="url(#clip150)" d="M1953.46 406.258 L2280.8 406.258 L2280.8 95.2176 L1953.46 95.2176  Z" fill="#ffffff" fill-rule="evenodd" fill-opacity="1"/>
<polyline clip-path="url(#clip150)" style="stroke:#000000; stroke-linecap:round; stroke-linejoin:round; stroke-width:4; stroke-opacity:1; fill:none" points="1953.46,406.258 2280.8,406.258 2280.8,95.2176 1953.46,95.2176 1953.46,406.258 "/>
<polyline clip-path="url(#clip150)" style="stroke:#009af9; stroke-linecap:round; stroke-linejoin:round; stroke-width:4; stroke-opacity:1; fill:none" points="1977.44,147.058 2121.36,147.058 "/>
<path clip-path="url(#clip150)" d="M2152.76 131.051 L2152.76 138.412 L2161.53 138.412 L2161.53 141.722 L2152.76 141.722 L2152.76 155.796 Q2152.76 158.967 2153.61 159.87 Q2154.49 160.773 2157.16 160.773 L2161.53 160.773 L2161.53 164.338 L2157.16 164.338 Q2152.23 164.338 2150.35 162.509 Q2148.48 160.657 2148.48 155.796 L2148.48 141.722 L2145.35 141.722 L2145.35 138.412 L2148.48 138.412 L2148.48 131.051 L2152.76 131.051 Z" fill="#000000" fill-rule="nonzero" fill-opacity="1" /><path clip-path="url(#clip150)" d="M2182.16 142.393 Q2181.44 141.977 2180.58 141.791 Q2179.75 141.583 2178.73 141.583 Q2175.12 141.583 2173.17 143.944 Q2171.25 146.282 2171.25 150.68 L2171.25 164.338 L2166.97 164.338 L2166.97 138.412 L2171.25 138.412 L2171.25 142.44 Q2172.6 140.078 2174.75 138.944 Q2176.9 137.787 2179.98 137.787 Q2180.42 137.787 2180.95 137.856 Q2181.48 137.903 2182.13 138.018 L2182.16 142.393 Z" fill="#000000" fill-rule="nonzero" fill-opacity="1" /><path clip-path="url(#clip150)" d="M2186.18 154.106 L2186.18 138.412 L2190.44 138.412 L2190.44 153.944 Q2190.44 157.625 2191.88 159.476 Q2193.31 161.305 2196.18 161.305 Q2199.63 161.305 2201.62 159.106 Q2203.64 156.907 2203.64 153.111 L2203.64 138.412 L2207.9 138.412 L2207.9 164.338 L2203.64 164.338 L2203.64 160.356 Q2202.09 162.717 2200.03 163.875 Q2197.99 165.009 2195.28 165.009 Q2190.81 165.009 2188.5 162.231 Q2186.18 159.453 2186.18 154.106 M2196.9 137.787 L2196.9 137.787 Z" fill="#000000" fill-rule="nonzero" fill-opacity="1" /><path clip-path="url(#clip150)" d="M2220.88 131.051 L2220.88 138.412 L2229.66 138.412 L2229.66 141.722 L2220.88 141.722 L2220.88 155.796 Q2220.88 158.967 2221.74 159.87 Q2222.62 160.773 2225.28 160.773 L2229.66 160.773 L2229.66 164.338 L2225.28 164.338 Q2220.35 164.338 2218.48 162.509 Q2216.6 160.657 2216.6 155.796 L2216.6 141.722 L2213.48 141.722 L2213.48 138.412 L2216.6 138.412 L2216.6 131.051 L2220.88 131.051 Z" fill="#000000" fill-rule="nonzero" fill-opacity="1" /><path clip-path="url(#clip150)" d="M2256.81 148.689 L2256.81 164.338 L2252.55 164.338 L2252.55 148.828 Q2252.55 145.148 2251.11 143.319 Q2249.68 141.49 2246.81 141.49 Q2243.36 141.49 2241.37 143.69 Q2239.38 145.889 2239.38 149.685 L2239.38 164.338 L2235.1 164.338 L2235.1 128.319 L2239.38 128.319 L2239.38 142.44 Q2240.91 140.102 2242.97 138.944 Q2245.05 137.787 2247.76 137.787 Q2252.23 137.787 2254.52 140.565 Q2256.81 143.319 2256.81 148.689 Z" fill="#000000" fill-rule="nonzero" fill-opacity="1" /><circle clip-path="url(#clip150)" cx="2049.4" cy="198.898" r="20.48" fill="#e26f46" fill-rule="evenodd" fill-opacity="1" stroke="#000000" stroke-opacity="1" stroke-width="4.55111"/>
<path clip-path="url(#clip150)" d="M2164.26 194.187 L2164.26 180.159 L2168.52 180.159 L2168.52 216.178 L2164.26 216.178 L2164.26 212.289 Q2162.92 214.603 2160.86 215.738 Q2158.82 216.849 2155.95 216.849 Q2151.25 216.849 2148.29 213.099 Q2145.35 209.349 2145.35 203.238 Q2145.35 197.127 2148.29 193.377 Q2151.25 189.627 2155.95 189.627 Q2158.82 189.627 2160.86 190.761 Q2162.92 191.872 2164.26 194.187 M2149.75 203.238 Q2149.75 207.937 2151.67 210.622 Q2153.61 213.284 2156.99 213.284 Q2160.37 213.284 2162.32 210.622 Q2164.26 207.937 2164.26 203.238 Q2164.26 198.539 2162.32 195.877 Q2160.37 193.192 2156.99 193.192 Q2153.61 193.192 2151.67 195.877 Q2149.75 198.539 2149.75 203.238 Z" fill="#000000" fill-rule="nonzero" fill-opacity="1" /><path clip-path="url(#clip150)" d="M2189.08 203.145 Q2183.92 203.145 2181.92 204.326 Q2179.93 205.506 2179.93 208.354 Q2179.93 210.622 2181.42 211.965 Q2182.92 213.284 2185.49 213.284 Q2189.03 213.284 2191.16 210.784 Q2193.31 208.261 2193.31 204.094 L2193.31 203.145 L2189.08 203.145 M2197.57 201.386 L2197.57 216.178 L2193.31 216.178 L2193.31 212.242 Q2191.85 214.603 2189.68 215.738 Q2187.5 216.849 2184.36 216.849 Q2180.37 216.849 2178.01 214.627 Q2175.67 212.381 2175.67 208.631 Q2175.67 204.256 2178.59 202.034 Q2181.53 199.812 2187.34 199.812 L2193.31 199.812 L2193.31 199.395 Q2193.31 196.455 2191.37 194.858 Q2189.45 193.238 2185.95 193.238 Q2183.73 193.238 2181.62 193.77 Q2179.52 194.303 2177.57 195.367 L2177.57 191.432 Q2179.91 190.53 2182.11 190.09 Q2184.31 189.627 2186.39 189.627 Q2192.02 189.627 2194.79 192.543 Q2197.57 195.46 2197.57 201.386 Z" fill="#000000" fill-rule="nonzero" fill-opacity="1" /><path clip-path="url(#clip150)" d="M2210.56 182.891 L2210.56 190.252 L2219.33 190.252 L2219.33 193.562 L2210.56 193.562 L2210.56 207.636 Q2210.56 210.807 2211.42 211.71 Q2212.29 212.613 2214.96 212.613 L2219.33 212.613 L2219.33 216.178 L2214.96 216.178 Q2210.03 216.178 2208.15 214.349 Q2206.28 212.497 2206.28 207.636 L2206.28 193.562 L2203.15 193.562 L2203.15 190.252 L2206.28 190.252 L2206.28 182.891 L2210.56 182.891 Z" fill="#000000" fill-rule="nonzero" fill-opacity="1" /><path clip-path="url(#clip150)" d="M2236.72 203.145 Q2231.55 203.145 2229.56 204.326 Q2227.57 205.506 2227.57 208.354 Q2227.57 210.622 2229.05 211.965 Q2230.56 213.284 2233.13 213.284 Q2236.67 213.284 2238.8 210.784 Q2240.95 208.261 2240.95 204.094 L2240.95 203.145 L2236.72 203.145 M2245.21 201.386 L2245.21 216.178 L2240.95 216.178 L2240.95 212.242 Q2239.49 214.603 2237.32 215.738 Q2235.14 216.849 2231.99 216.849 Q2228.01 216.849 2225.65 214.627 Q2223.31 212.381 2223.31 208.631 Q2223.31 204.256 2226.23 202.034 Q2229.17 199.812 2234.98 199.812 L2240.95 199.812 L2240.95 199.395 Q2240.95 196.455 2239.01 194.858 Q2237.09 193.238 2233.59 193.238 Q2231.37 193.238 2229.26 193.77 Q2227.16 194.303 2225.21 195.367 L2225.21 191.432 Q2227.55 190.53 2229.75 190.09 Q2231.95 189.627 2234.03 189.627 Q2239.66 189.627 2242.43 192.543 Q2245.21 195.46 2245.21 201.386 Z" fill="#000000" fill-rule="nonzero" fill-opacity="1" /><polyline clip-path="url(#clip150)" style="stroke:#3da44d; stroke-linecap:round; stroke-linejoin:round; stroke-width:8; stroke-opacity:1; fill:none" points="1977.44,250.738 2121.36,250.738 "/>
<path clip-path="url(#clip150)" d="M2170.91 263.087 L2170.91 253.805 L2163.27 253.805 L2163.27 249.962 L2175.54 249.962 L2175.54 264.8 Q2172.83 266.721 2169.56 267.717 Q2166.3 268.689 2162.6 268.689 Q2154.49 268.689 2149.91 263.967 Q2145.35 259.221 2145.35 250.772 Q2145.35 242.3 2149.91 237.578 Q2154.49 232.833 2162.6 232.833 Q2165.98 232.833 2169.01 233.666 Q2172.06 234.499 2174.63 236.12 L2174.63 241.096 Q2172.04 238.897 2169.12 237.786 Q2166.21 236.675 2162.99 236.675 Q2156.65 236.675 2153.45 240.217 Q2150.28 243.758 2150.28 250.772 Q2150.28 257.763 2153.45 261.305 Q2156.65 264.846 2162.99 264.846 Q2165.47 264.846 2167.41 264.43 Q2169.36 263.99 2170.91 263.087 Z" fill="#000000" fill-rule="nonzero" fill-opacity="1" /><path clip-path="url(#clip150)" d="M2188.75 237.3 L2188.75 250.286 L2194.63 250.286 Q2197.9 250.286 2199.68 248.596 Q2201.46 246.907 2201.46 243.782 Q2201.46 240.68 2199.68 238.99 Q2197.9 237.3 2194.63 237.3 L2188.75 237.3 M2184.08 233.458 L2194.63 233.458 Q2200.44 233.458 2203.41 236.096 Q2206.39 238.712 2206.39 243.782 Q2206.39 248.897 2203.41 251.513 Q2200.44 254.129 2194.63 254.129 L2188.75 254.129 L2188.75 268.018 L2184.08 268.018 L2184.08 233.458 Z" fill="#000000" fill-rule="nonzero" fill-opacity="1" /><polyline clip-path="url(#clip150)" style="stroke:#c271d2; stroke-linecap:round; stroke-linejoin:round; stroke-width:12; stroke-opacity:1; fill:none" points="1977.44,302.578 2121.36,302.578 "/>
<path clip-path="url(#clip150)" d="M2150.03 289.14 L2150.03 302.126 L2155.91 302.126 Q2159.17 302.126 2160.95 300.436 Q2162.73 298.747 2162.73 295.622 Q2162.73 292.52 2160.95 290.83 Q2159.17 289.14 2155.91 289.14 L2150.03 289.14 M2145.35 285.298 L2155.91 285.298 Q2161.72 285.298 2164.68 287.936 Q2167.67 290.552 2167.67 295.622 Q2167.67 300.737 2164.68 303.353 Q2161.72 305.969 2155.91 305.969 L2150.03 305.969 L2150.03 319.858 L2145.35 319.858 L2145.35 285.298 Z" fill="#000000" fill-rule="nonzero" fill-opacity="1" /><path clip-path="url(#clip150)" d="M2178.38 315.922 L2194.7 315.922 L2194.7 319.858 L2172.76 319.858 L2172.76 315.922 Q2175.42 313.168 2180 308.538 Q2184.61 303.885 2185.79 302.543 Q2188.04 300.02 2188.92 298.284 Q2189.82 296.524 2189.82 294.835 Q2189.82 292.08 2187.87 290.344 Q2185.95 288.608 2182.85 288.608 Q2180.65 288.608 2178.2 289.372 Q2175.77 290.135 2172.99 291.686 L2172.99 286.964 Q2175.81 285.83 2178.27 285.251 Q2180.72 284.673 2182.76 284.673 Q2188.13 284.673 2191.32 287.358 Q2194.52 290.043 2194.52 294.534 Q2194.52 296.663 2193.71 298.585 Q2192.92 300.483 2190.81 303.075 Q2190.23 303.747 2187.13 306.964 Q2184.03 310.159 2178.38 315.922 Z" fill="#000000" fill-rule="nonzero" fill-opacity="1" /><path clip-path="url(#clip150)" d="M2204.56 285.298 L2222.92 285.298 L2222.92 289.233 L2208.85 289.233 L2208.85 297.705 Q2209.86 297.358 2210.88 297.196 Q2211.9 297.01 2212.92 297.01 Q2218.71 297.01 2222.09 300.182 Q2225.47 303.353 2225.47 308.77 Q2225.47 314.348 2221.99 317.45 Q2218.52 320.529 2212.2 320.529 Q2210.03 320.529 2207.76 320.158 Q2205.51 319.788 2203.1 319.047 L2203.1 314.348 Q2205.19 315.483 2207.41 316.038 Q2209.63 316.594 2212.11 316.594 Q2216.11 316.594 2218.45 314.487 Q2220.79 312.381 2220.79 308.77 Q2220.79 305.159 2218.45 303.052 Q2216.11 300.946 2212.11 300.946 Q2210.23 300.946 2208.36 301.362 Q2206.51 301.779 2204.56 302.659 L2204.56 285.298 Z" fill="#000000" fill-rule="nonzero" fill-opacity="1" /><polyline clip-path="url(#clip150)" style="stroke:#ac8d18; stroke-linecap:round; stroke-linejoin:round; stroke-width:12; stroke-opacity:1; fill:none" points="1977.44,354.418 2121.36,354.418 "/>
<path clip-path="url(#clip150)" d="M2150.03 340.98 L2150.03 353.966 L2155.91 353.966 Q2159.17 353.966 2160.95 352.276 Q2162.73 350.587 2162.73 347.462 Q2162.73 344.36 2160.95 342.67 Q2159.17 340.98 2155.91 340.98 L2150.03 340.98 M2145.35 337.138 L2155.91 337.138 Q2161.72 337.138 2164.68 339.776 Q2167.67 342.392 2167.67 347.462 Q2167.67 352.577 2164.68 355.193 Q2161.72 357.809 2155.91 357.809 L2150.03 357.809 L2150.03 371.698 L2145.35 371.698 L2145.35 337.138 Z" fill="#000000" fill-rule="nonzero" fill-opacity="1" /><path clip-path="url(#clip150)" d="M2173.17 337.138 L2195.4 337.138 L2195.4 339.128 L2182.85 371.698 L2177.97 371.698 L2189.77 341.073 L2173.17 341.073 L2173.17 337.138 Z" fill="#000000" fill-rule="nonzero" fill-opacity="1" /><path clip-path="url(#clip150)" d="M2204.56 337.138 L2222.92 337.138 L2222.92 341.073 L2208.85 341.073 L2208.85 349.545 Q2209.86 349.198 2210.88 349.036 Q2211.9 348.85 2212.92 348.85 Q2218.71 348.85 2222.09 352.022 Q2225.47 355.193 2225.47 360.61 Q2225.47 366.188 2221.99 369.29 Q2218.52 372.369 2212.2 372.369 Q2210.03 372.369 2207.76 371.998 Q2205.51 371.628 2203.1 370.887 L2203.1 366.188 Q2205.19 367.323 2207.41 367.878 Q2209.63 368.434 2212.11 368.434 Q2216.11 368.434 2218.45 366.327 Q2220.79 364.221 2220.79 360.61 Q2220.79 356.999 2218.45 354.892 Q2216.11 352.786 2212.11 352.786 Q2210.23 352.786 2208.36 353.202 Q2206.51 353.619 2204.56 354.499 L2204.56 337.138 Z" fill="#000000" fill-rule="nonzero" fill-opacity="1" /></svg>
