<?xml version="1.0" encoding="utf-8"?>
<svg xmlns="http://www.w3.org/2000/svg" xmlns:xlink="http://www.w3.org/1999/xlink" width="600" height="400" viewBox="0 0 2400 1600">
<defs>
  <clipPath id="clip130">
    <rect x="0" y="0" width="2400" height="1600"/>
  </clipPath>
</defs>
<path clip-path="url(#clip130)" d="M0 1600 L2400 1600 L2400 0 L0 0  Z" fill="#ffffff" fill-rule="evenodd" fill-opacity="1"/>
<defs>
  <clipPath id="clip131">
    <rect x="480" y="0" width="1681" height="1600"/>
  </clipPath>
</defs>
<path clip-path="url(#clip130)" d="M193.936 1486.45 L2352.76 1486.45 L2352.76 47.2441 L193.936 47.2441  Z" fill="#ffffff" fill-rule="evenodd" fill-opacity="1"/>
<defs>
  <clipPath id="clip132">
    <rect x="193" y="47" width="2160" height="1440"/>
  </clipPath>
</defs>
<polyline clip-path="url(#clip132)" style="stroke:#000000; stroke-linecap:round; stroke-linejoin:round; stroke-width:2; stroke-opacity:0.1; fill:none" points="255.035,1486.45 255.035,47.2441 "/>
<polyline clip-path="url(#clip132)" style="stroke:#000000; stroke-linecap:round; stroke-linejoin:round; stroke-width:2; stroke-opacity:0.1; fill:none" points="579.173,1486.45 579.173,47.2441 "/>
<polyline clip-path="url(#clip132)" style="stroke:#000000; stroke-linecap:round; stroke-linejoin:round; stroke-width:2; stroke-opacity:0.1; fill:none" points="903.312,1486.45 903.312,47.2441 "/>
<polyline clip-path="url(#clip132)" style="stroke:#000000; stroke-linecap:round; stroke-linejoin:round; stroke-width:2; stroke-opacity:0.1; fill:none" points="1227.45,1486.45 1227.45,47.2441 "/>
<polyline clip-path="url(#clip132)" style="stroke:#000000; stroke-linecap:round; stroke-linejoin:round; stroke-width:2; stroke-opacity:0.1; fill:none" points="1551.59,1486.45 1551.59,47.2441 "/>
<polyline clip-path="url(#clip132)" style="stroke:#000000; stroke-linecap:round; stroke-linejoin:round; stroke-width:2; stroke-opacity:0.1; fill:none" points="1875.73,1486.45 1875.73,47.2441 "/>
<polyline clip-path="url(#clip132)" style="stroke:#000000; stroke-linecap:round; stroke-linejoin:round; stroke-width:2; stroke-opacity:0.1; fill:none" points="2199.87,1486.45 2199.87,47.2441 "/>
<polyline clip-path="url(#clip132)" style="stroke:#000000; stroke-linecap:round; stroke-linejoin:round; stroke-width:2; stroke-opacity:0.1; fill:none" points="193.936,1261.03 2352.76,1261.03 "/>
<polyline clip-path="url(#clip132)" style="stroke:#000000; stroke-linecap:round; stroke-linejoin:round; stroke-width:2; stroke-opacity:0.1; fill:none" points="193.936,1010.34 2352.76,1010.34 "/>
<polyline clip-path="url(#clip132)" style="stroke:#000000; stroke-linecap:round; stroke-linejoin:round; stroke-width:2; stroke-opacity:0.1; fill:none" points="193.936,759.652 2352.76,759.652 "/>
<polyline clip-path="url(#clip132)" style="stroke:#000000; stroke-linecap:round; stroke-linejoin:round; stroke-width:2; stroke-opacity:0.1; fill:none" points="193.936,508.966 2352.76,508.966 "/>
<polyline clip-path="url(#clip132)" style="stroke:#000000; stroke-linecap:round; stroke-linejoin:round; stroke-width:2; stroke-opacity:0.1; fill:none" points="193.936,258.279 2352.76,258.279 "/>
<polyline clip-path="url(#clip130)" style="stroke:#000000; stroke-linecap:round; stroke-linejoin:round; stroke-width:4; stroke-opacity:1; fill:none" points="193.936,1486.45 2352.76,1486.45 "/>
<polyline clip-path="url(#clip130)" style="stroke:#000000; stroke-linecap:round; stroke-linejoin:round; stroke-width:4; stroke-opacity:1; fill:none" points="255.035,1486.45 255.035,1467.55 "/>
<polyline clip-path="url(#clip130)" style="stroke:#000000; stroke-linecap:round; stroke-linejoin:round; stroke-width:4; stroke-opacity:1; fill:none" points="579.173,1486.45 579.173,1467.55 "/>
<polyline clip-path="url(#clip130)" style="stroke:#000000; stroke-linecap:round; stroke-linejoin:round; stroke-width:4; stroke-opacity:1; fill:none" points="903.312,1486.45 903.312,1467.55 "/>
<polyline clip-path="url(#clip130)" style="stroke:#000000; stroke-linecap:round; stroke-linejoin:round; stroke-width:4; stroke-opacity:1; fill:none" points="1227.45,1486.45 1227.45,1467.55 "/>
<polyline clip-path="url(#clip130)" style="stroke:#000000; stroke-linecap:round; stroke-linejoin:round; stroke-width:4; stroke-opacity:1; fill:none" points="1551.59,1486.45 1551.59,1467.55 "/>
<polyline clip-path="url(#clip130)" style="stroke:#000000; stroke-linecap:round; stroke-linejoin:round; stroke-width:4; stroke-opacity:1; fill:none" points="1875.73,1486.45 1875.73,1467.55 "/>
<polyline clip-path="url(#clip130)" style="stroke:#000000; stroke-linecap:round; stroke-linejoin:round; stroke-width:4; stroke-opacity:1; fill:none" points="2199.87,1486.45 2199.87,1467.55 "/>
<path clip-path="url(#clip130)" d="M255.035 1517.37 Q251.424 1517.37 249.595 1520.93 Q247.789 1524.47 247.789 1531.6 Q247.789 1538.71 249.595 1542.27 Q251.424 1545.82 255.035 1545.82 Q258.669 1545.82 260.474 1542.27 Q262.303 1538.71 262.303 1531.6 Q262.303 1524.47 260.474 1520.93 Q258.669 1517.37 255.035 1517.37 M255.035 1513.66 Q260.845 1513.66 263.9 1518.27 Q266.979 1522.85 266.979 1531.6 Q266.979 1540.33 263.9 1544.94 Q260.845 1549.52 255.035 1549.52 Q249.225 1549.52 246.146 1544.94 Q243.09 1540.33 243.09 1531.6 Q243.09 1522.85 246.146 1518.27 Q249.225 1513.66 255.035 1513.66 Z" fill="#000000" fill-rule="nonzero" fill-opacity="1" /><path clip-path="url(#clip130)" d="M569.555 1544.91 L577.194 1544.91 L577.194 1518.55 L568.884 1520.21 L568.884 1515.95 L577.148 1514.29 L581.824 1514.29 L581.824 1544.91 L589.463 1544.91 L589.463 1548.85 L569.555 1548.85 L569.555 1544.91 Z" fill="#000000" fill-rule="nonzero" fill-opacity="1" /><path clip-path="url(#clip130)" d="M897.965 1544.91 L914.284 1544.91 L914.284 1548.85 L892.34 1548.85 L892.34 1544.91 Q895.002 1542.16 899.585 1537.53 Q904.191 1532.88 905.372 1531.53 Q907.617 1529.01 908.497 1527.27 Q909.4 1525.51 909.4 1523.82 Q909.4 1521.07 907.455 1519.33 Q905.534 1517.6 902.432 1517.6 Q900.233 1517.6 897.779 1518.36 Q895.349 1519.13 892.571 1520.68 L892.571 1515.95 Q895.395 1514.82 897.849 1514.24 Q900.303 1513.66 902.34 1513.66 Q907.71 1513.66 910.904 1516.35 Q914.099 1519.03 914.099 1523.52 Q914.099 1525.65 913.289 1527.57 Q912.502 1529.47 910.395 1532.07 Q909.816 1532.74 906.715 1535.95 Q903.613 1539.15 897.965 1544.91 Z" fill="#000000" fill-rule="nonzero" fill-opacity="1" /><path clip-path="url(#clip130)" d="M1231.7 1530.21 Q1235.05 1530.93 1236.93 1533.2 Q1238.83 1535.47 1238.83 1538.8 Q1238.83 1543.92 1235.31 1546.72 Q1231.79 1549.52 1225.31 1549.52 Q1223.13 1549.52 1220.82 1549.08 Q1218.53 1548.66 1216.07 1547.81 L1216.07 1543.29 Q1218.02 1544.43 1220.33 1545.01 Q1222.65 1545.58 1225.17 1545.58 Q1229.57 1545.58 1231.86 1543.85 Q1234.17 1542.11 1234.17 1538.8 Q1234.17 1535.75 1232.02 1534.03 Q1229.89 1532.3 1226.07 1532.3 L1222.05 1532.3 L1222.05 1528.45 L1226.26 1528.45 Q1229.71 1528.45 1231.54 1527.09 Q1233.36 1525.7 1233.36 1523.11 Q1233.36 1520.45 1231.47 1519.03 Q1229.59 1517.6 1226.07 1517.6 Q1224.15 1517.6 1221.95 1518.01 Q1219.75 1518.43 1217.11 1519.31 L1217.11 1515.14 Q1219.78 1514.4 1222.09 1514.03 Q1224.43 1513.66 1226.49 1513.66 Q1231.81 1513.66 1234.92 1516.09 Q1238.02 1518.5 1238.02 1522.62 Q1238.02 1525.49 1236.37 1527.48 Q1234.73 1529.45 1231.7 1530.21 Z" fill="#000000" fill-rule="nonzero" fill-opacity="1" /><path clip-path="url(#clip130)" d="M1554.6 1518.36 L1542.79 1536.81 L1554.6 1536.81 L1554.6 1518.36 M1553.37 1514.29 L1559.25 1514.29 L1559.25 1536.81 L1564.18 1536.81 L1564.18 1540.7 L1559.25 1540.7 L1559.25 1548.85 L1554.6 1548.85 L1554.6 1540.7 L1539 1540.7 L1539 1536.19 L1553.37 1514.29 Z" fill="#000000" fill-rule="nonzero" fill-opacity="1" /><path clip-path="url(#clip130)" d="M1866.01 1514.29 L1884.36 1514.29 L1884.36 1518.22 L1870.29 1518.22 L1870.29 1526.7 Q1871.31 1526.35 1872.32 1526.19 Q1873.34 1526 1874.36 1526 Q1880.15 1526 1883.53 1529.17 Q1886.91 1532.34 1886.91 1537.76 Q1886.91 1543.34 1883.44 1546.44 Q1879.96 1549.52 1873.64 1549.52 Q1871.47 1549.52 1869.2 1549.15 Q1866.95 1548.78 1864.55 1548.04 L1864.55 1543.34 Q1866.63 1544.47 1868.85 1545.03 Q1871.07 1545.58 1873.55 1545.58 Q1877.56 1545.58 1879.89 1543.48 Q1882.23 1541.37 1882.23 1537.76 Q1882.23 1534.15 1879.89 1532.04 Q1877.56 1529.94 1873.55 1529.94 Q1871.68 1529.94 1869.8 1530.35 Q1867.95 1530.77 1866.01 1531.65 L1866.01 1514.29 Z" fill="#000000" fill-rule="nonzero" fill-opacity="1" /><path clip-path="url(#clip130)" d="M2200.27 1529.7 Q2197.12 1529.7 2195.27 1531.86 Q2193.44 1534.01 2193.44 1537.76 Q2193.44 1541.49 2195.27 1543.66 Q2197.12 1545.82 2200.27 1545.82 Q2203.42 1545.82 2205.25 1543.66 Q2207.1 1541.49 2207.1 1537.76 Q2207.1 1534.01 2205.25 1531.86 Q2203.42 1529.7 2200.27 1529.7 M2209.55 1515.05 L2209.55 1519.31 Q2207.79 1518.48 2205.99 1518.04 Q2204.21 1517.6 2202.45 1517.6 Q2197.82 1517.6 2195.36 1520.72 Q2192.93 1523.85 2192.59 1530.17 Q2193.95 1528.15 2196.01 1527.09 Q2198.07 1526 2200.55 1526 Q2205.76 1526 2208.77 1529.17 Q2211.8 1532.32 2211.8 1537.76 Q2211.8 1543.08 2208.65 1546.3 Q2205.5 1549.52 2200.27 1549.52 Q2194.28 1549.52 2191.1 1544.94 Q2187.93 1540.33 2187.93 1531.6 Q2187.93 1523.41 2191.82 1518.55 Q2195.71 1513.66 2202.26 1513.66 Q2204.02 1513.66 2205.8 1514.01 Q2207.61 1514.36 2209.55 1515.05 Z" fill="#000000" fill-rule="nonzero" fill-opacity="1" /><polyline clip-path="url(#clip130)" style="stroke:#000000; stroke-linecap:round; stroke-linejoin:round; stroke-width:4; stroke-opacity:1; fill:none" points="193.936,1486.45 193.936,47.2441 "/>
<polyline clip-path="url(#clip130)" style="stroke:#000000; stroke-linecap:round; stroke-linejoin:round; stroke-width:4; stroke-opacity:1; fill:none" points="193.936,1261.03 212.834,1261.03 "/>
<polyline clip-path="url(#clip130)" style="stroke:#000000; stroke-linecap:round; stroke-linejoin:round; stroke-width:4; stroke-opacity:1; fill:none" points="193.936,1010.34 212.834,1010.34 "/>
<polyline clip-path="url(#clip130)" style="stroke:#000000; stroke-linecap:round; stroke-linejoin:round; stroke-width:4; stroke-opacity:1; fill:none" points="193.936,759.652 212.834,759.652 "/>
<polyline clip-path="url(#clip130)" style="stroke:#000000; stroke-linecap:round; stroke-linejoin:round; stroke-width:4; stroke-opacity:1; fill:none" points="193.936,508.966 212.834,508.966 "/>
<polyline clip-path="url(#clip130)" style="stroke:#000000; stroke-linecap:round; stroke-linejoin:round; stroke-width:4; stroke-opacity:1; fill:none" points="193.936,258.279 212.834,258.279 "/>
<path clip-path="url(#clip130)" d="M50.9921 1261.48 L80.6679 1261.48 L80.6679 1265.41 L50.9921 1265.41 L50.9921 1261.48 Z" fill="#000000" fill-rule="nonzero" fill-opacity="1" /><path clip-path="url(#clip130)" d="M91.5706 1274.37 L99.2095 1274.37 L99.2095 1248 L90.8993 1249.67 L90.8993 1245.41 L99.1632 1243.75 L103.839 1243.75 L103.839 1274.37 L111.478 1274.37 L111.478 1278.31 L91.5706 1278.31 L91.5706 1274.37 Z" fill="#000000" fill-rule="nonzero" fill-opacity="1" /><path clip-path="url(#clip130)" d="M120.922 1272.43 L125.807 1272.43 L125.807 1278.31 L120.922 1278.31 L120.922 1272.43 Z" fill="#000000" fill-rule="nonzero" fill-opacity="1" /><path clip-path="url(#clip130)" d="M145.992 1246.82 Q142.381 1246.82 140.552 1250.39 Q138.746 1253.93 138.746 1261.06 Q138.746 1268.17 140.552 1271.73 Q142.381 1275.27 145.992 1275.27 Q149.626 1275.27 151.431 1271.73 Q153.26 1268.17 153.26 1261.06 Q153.26 1253.93 151.431 1250.39 Q149.626 1246.82 145.992 1246.82 M145.992 1243.12 Q151.802 1243.12 154.857 1247.73 Q157.936 1252.31 157.936 1261.06 Q157.936 1269.79 154.857 1274.39 Q151.802 1278.98 145.992 1278.98 Q140.181 1278.98 137.103 1274.39 Q134.047 1269.79 134.047 1261.06 Q134.047 1252.31 137.103 1247.73 Q140.181 1243.12 145.992 1243.12 Z" fill="#000000" fill-rule="nonzero" fill-opacity="1" /><path clip-path="url(#clip130)" d="M51.9875 1010.79 L81.6633 1010.79 L81.6633 1014.73 L51.9875 1014.73 L51.9875 1010.79 Z" fill="#000000" fill-rule="nonzero" fill-opacity="1" /><path clip-path="url(#clip130)" d="M101.756 996.138 Q98.1447 996.138 96.316 999.702 Q94.5104 1003.24 94.5104 1010.37 Q94.5104 1017.48 96.316 1021.04 Q98.1447 1024.59 101.756 1024.59 Q105.39 1024.59 107.196 1021.04 Q109.024 1017.48 109.024 1010.37 Q109.024 1003.24 107.196 999.702 Q105.39 996.138 101.756 996.138 M101.756 992.434 Q107.566 992.434 110.621 997.04 Q113.7 1001.62 113.7 1010.37 Q113.7 1019.1 110.621 1023.71 Q107.566 1028.29 101.756 1028.29 Q95.9456 1028.29 92.8669 1023.71 Q89.8114 1019.1 89.8114 1010.37 Q89.8114 1001.62 92.8669 997.04 Q95.9456 992.434 101.756 992.434 Z" fill="#000000" fill-rule="nonzero" fill-opacity="1" /><path clip-path="url(#clip130)" d="M121.918 1021.74 L126.802 1021.74 L126.802 1027.62 L121.918 1027.62 L121.918 1021.74 Z" fill="#000000" fill-rule="nonzero" fill-opacity="1" /><path clip-path="url(#clip130)" d="M137.033 993.059 L155.39 993.059 L155.39 996.994 L141.316 996.994 L141.316 1005.47 Q142.334 1005.12 143.353 1004.96 Q144.371 1004.77 145.39 1004.77 Q151.177 1004.77 154.556 1007.94 Q157.936 1011.11 157.936 1016.53 Q157.936 1022.11 154.464 1025.21 Q150.992 1028.29 144.672 1028.29 Q142.496 1028.29 140.228 1027.92 Q137.982 1027.55 135.575 1026.81 L135.575 1022.11 Q137.658 1023.24 139.881 1023.8 Q142.103 1024.36 144.58 1024.36 Q148.584 1024.36 150.922 1022.25 Q153.26 1020.14 153.26 1016.53 Q153.26 1012.92 150.922 1010.81 Q148.584 1008.71 144.58 1008.71 Q142.705 1008.71 140.83 1009.12 Q138.978 1009.54 137.033 1010.42 L137.033 993.059 Z" fill="#000000" fill-rule="nonzero" fill-opacity="1" /><path clip-path="url(#clip130)" d="M100.76 745.451 Q97.1493 745.451 95.3206 749.016 Q93.515 752.558 93.515 759.687 Q93.515 766.794 95.3206 770.358 Q97.1493 773.9 100.76 773.9 Q104.395 773.9 106.2 770.358 Q108.029 766.794 108.029 759.687 Q108.029 752.558 106.2 749.016 Q104.395 745.451 100.76 745.451 M100.76 741.747 Q106.571 741.747 109.626 746.354 Q112.705 750.937 112.705 759.687 Q112.705 768.414 109.626 773.02 Q106.571 777.604 100.76 777.604 Q94.9502 777.604 91.8715 773.02 Q88.816 768.414 88.816 759.687 Q88.816 750.937 91.8715 746.354 Q94.9502 741.747 100.76 741.747 Z" fill="#000000" fill-rule="nonzero" fill-opacity="1" /><path clip-path="url(#clip130)" d="M120.922 771.053 L125.807 771.053 L125.807 776.932 L120.922 776.932 L120.922 771.053 Z" fill="#000000" fill-rule="nonzero" fill-opacity="1" /><path clip-path="url(#clip130)" d="M145.992 745.451 Q142.381 745.451 140.552 749.016 Q138.746 752.558 138.746 759.687 Q138.746 766.794 140.552 770.358 Q142.381 773.9 145.992 773.9 Q149.626 773.9 151.431 770.358 Q153.26 766.794 153.26 759.687 Q153.26 752.558 151.431 749.016 Q149.626 745.451 145.992 745.451 M145.992 741.747 Q151.802 741.747 154.857 746.354 Q157.936 750.937 157.936 759.687 Q157.936 768.414 154.857 773.02 Q151.802 777.604 145.992 777.604 Q140.181 777.604 137.103 773.02 Q134.047 768.414 134.047 759.687 Q134.047 750.937 137.103 746.354 Q140.181 741.747 145.992 741.747 Z" fill="#000000" fill-rule="nonzero" fill-opacity="1" /><path clip-path="url(#clip130)" d="M101.756 494.765 Q98.1447 494.765 96.316 498.329 Q94.5104 501.871 94.5104 509.001 Q94.5104 516.107 96.316 519.672 Q98.1447 523.213 101.756 523.213 Q105.39 523.213 107.196 519.672 Q109.024 516.107 109.024 509.001 Q109.024 501.871 107.196 498.329 Q105.39 494.765 101.756 494.765 M101.756 491.061 Q107.566 491.061 110.621 495.667 Q113.7 500.251 113.7 509.001 Q113.7 517.727 110.621 522.334 Q107.566 526.917 101.756 526.917 Q95.9456 526.917 92.8669 522.334 Q89.8114 517.727 89.8114 509.001 Q89.8114 500.251 92.8669 495.667 Q95.9456 491.061 101.756 491.061 Z" fill="#000000" fill-rule="nonzero" fill-opacity="1" /><path clip-path="url(#clip130)" d="M121.918 520.366 L126.802 520.366 L126.802 526.246 L121.918 526.246 L121.918 520.366 Z" fill="#000000" fill-rule="nonzero" fill-opacity="1" /><path clip-path="url(#clip130)" d="M137.033 491.686 L155.39 491.686 L155.39 495.621 L141.316 495.621 L141.316 504.093 Q142.334 503.746 143.353 503.584 Q144.371 503.399 145.39 503.399 Q151.177 503.399 154.556 506.57 Q157.936 509.741 157.936 515.158 Q157.936 520.737 154.464 523.838 Q150.992 526.917 144.672 526.917 Q142.496 526.917 140.228 526.547 Q137.982 526.176 135.575 525.436 L135.575 520.737 Q137.658 521.871 139.881 522.426 Q142.103 522.982 144.58 522.982 Q148.584 522.982 150.922 520.876 Q153.26 518.769 153.26 515.158 Q153.26 511.547 150.922 509.44 Q148.584 507.334 144.58 507.334 Q142.705 507.334 140.83 507.751 Q138.978 508.167 137.033 509.047 L137.033 491.686 Z" fill="#000000" fill-rule="nonzero" fill-opacity="1" /><path clip-path="url(#clip130)" d="M91.5706 271.624 L99.2095 271.624 L99.2095 245.259 L90.8993 246.925 L90.8993 242.666 L99.1632 240.999 L103.839 240.999 L103.839 271.624 L111.478 271.624 L111.478 275.559 L91.5706 275.559 L91.5706 271.624 Z" fill="#000000" fill-rule="nonzero" fill-opacity="1" /><path clip-path="url(#clip130)" d="M120.922 269.68 L125.807 269.68 L125.807 275.559 L120.922 275.559 L120.922 269.68 Z" fill="#000000" fill-rule="nonzero" fill-opacity="1" /><path clip-path="url(#clip130)" d="M145.992 244.078 Q142.381 244.078 140.552 247.643 Q138.746 251.184 138.746 258.314 Q138.746 265.42 140.552 268.985 Q142.381 272.527 145.992 272.527 Q149.626 272.527 151.431 268.985 Q153.26 265.42 153.26 258.314 Q153.26 251.184 151.431 247.643 Q149.626 244.078 145.992 244.078 M145.992 240.374 Q151.802 240.374 154.857 244.981 Q157.936 249.564 157.936 258.314 Q157.936 267.041 154.857 271.647 Q151.802 276.231 145.992 276.231 Q140.181 276.231 137.103 271.647 Q134.047 267.041 134.047 258.314 Q134.047 249.564 137.103 244.981 Q140.181 240.374 145.992 240.374 Z" fill="#000000" fill-rule="nonzero" fill-opacity="1" /><polyline clip-path="url(#clip132)" style="stroke:#009af9; stroke-linecap:round; stroke-linejoin:round; stroke-width:4; stroke-opacity:1; fill:none" points="255.035,759.652 258.276,754.639 261.517,749.626 264.759,744.613 268,739.603 271.242,734.594 274.483,729.588 277.724,724.585 280.966,719.585 284.207,714.59 287.449,709.599 290.69,704.612 293.931,699.632 297.173,694.657 300.414,689.689 303.655,684.728 306.897,679.775 310.138,674.829 313.38,669.892 316.621,664.964 319.862,660.045 323.104,655.136 326.345,650.238 329.587,645.351 332.828,640.475 336.069,635.611 339.311,630.759 342.552,625.92 345.793,621.095 349.035,616.284 352.276,611.487 355.518,606.704 358.759,601.937 362,597.186 365.242,592.451 368.483,587.733 371.725,583.032 374.966,578.348 378.207,573.683 381.449,569.036 384.69,564.409 387.931,559.8 391.173,555.212 394.414,550.645 397.656,546.098 400.897,541.572 404.138,537.069 407.38,532.587 410.621,528.129 413.863,523.693 417.104,519.281 420.345,514.893 423.587,510.53 426.828,506.192 430.069,501.878 433.311,497.591 436.552,493.33 439.794,489.095 443.035,484.888 446.276,480.708 449.518,476.556 452.759,472.432 456.001,468.337 459.242,464.271 462.483,460.235 465.725,456.228 468.966,452.252 472.208,448.307 475.449,444.392 478.69,440.51 481.932,436.659 485.173,432.84 488.414,429.055 491.656,425.302 494.897,421.583 498.139,417.897 501.38,414.246 504.621,410.629 507.863,407.047 511.104,403.5 514.346,399.989 517.587,396.514 520.828,393.076 524.07,389.673 527.311,386.308 530.552,382.981 533.794,379.691 537.035,376.438 540.277,373.225 543.518,370.05 546.759,366.913 550.001,363.816 553.242,360.759 556.484,357.742 559.725,354.764 562.966,351.828 566.208,348.932 569.449,346.077 572.69,343.263 575.932,340.491 579.173,337.761 582.415,335.074 585.656,332.428 588.897,329.826 592.139,327.266 595.38,324.75 598.622,322.277 601.863,319.848 605.104,317.462 608.346,315.122 611.587,312.825 614.828,310.573 618.07,308.366 621.311,306.204 624.553,304.088 627.794,302.017 631.035,299.992 634.277,298.013 637.518,296.08 640.76,294.193 644.001,292.353 647.242,290.56 650.484,288.813 653.725,287.114 656.966,285.462 660.208,283.857 663.449,282.3 666.691,280.791 669.932,279.329 673.173,277.916 676.415,276.55 679.656,275.233 682.898,273.965 686.139,272.745 689.38,271.573 692.622,270.451 695.863,269.377 699.104,268.353 702.346,267.377 705.587,266.451 708.829,265.574 712.07,264.747 715.311,263.969 718.553,263.241 721.794,262.562 725.036,261.933 728.277,261.354 731.518,260.824 734.76,260.345 738.001,259.915 741.242,259.535 744.484,259.206 747.725,258.926 750.967,258.696 754.208,258.517 757.449,258.388 760.691,258.309 763.932,258.279 767.174,258.301 770.415,258.372 773.656,258.493 776.898,258.665 780.139,258.886 783.381,259.158 786.622,259.479 789.863,259.851 793.105,260.273 796.346,260.744 799.587,261.266 802.829,261.837 806.07,262.458 809.312,263.129 812.553,263.85 815.794,264.62 819.036,265.439 822.277,266.308 825.519,267.227 828.76,268.194 832.001,269.211 835.243,270.277 838.484,271.391 841.725,272.555 844.967,273.767 848.208,275.028 851.45,276.337 854.691,277.695 857.932,279.101 861.174,280.555 864.415,282.056 867.657,283.606 870.898,285.203 874.139,286.848 877.381,288.539 880.622,290.278 883.863,292.064 887.105,293.897 890.346,295.776 893.588,297.702 896.829,299.674 900.07,301.692 903.312,303.755 906.553,305.864 909.795,308.019 913.036,310.219 916.277,312.463 919.519,314.753 922.76,317.087 926.001,319.465 929.243,321.887 932.484,324.353 935.726,326.862 938.967,329.415 942.208,332.011 945.45,334.65 948.691,337.331 951.933,340.054 955.174,342.819 958.415,345.626 961.657,348.474 964.898,351.364 968.139,354.294 971.381,357.265 974.622,360.276 977.864,363.327 981.105,366.417 984.346,369.547 987.588,372.716 990.829,375.924 994.071,379.17 997.312,382.454 1000.55,385.776 1003.79,389.135 1007.04,392.531 1010.28,395.964 1013.52,399.433 1016.76,402.939 1020,406.48 1023.24,410.056 1026.48,413.667 1029.73,417.313 1032.97,420.993 1036.21,424.707 1039.45,428.455 1042.69,432.235 1045.93,436.049 1049.17,439.894 1052.42,443.772 1055.66,447.681 1058.9,451.622 1062.14,455.593 1065.38,459.595 1068.62,463.626 1071.86,467.687 1075.11,471.778 1078.35,475.897 1081.59,480.045 1084.83,484.22 1088.07,488.423 1091.31,492.654 1094.55,496.911 1097.79,501.194 1101.04,505.503 1104.28,509.837 1107.52,514.197 1110.76,518.581 1114,522.989 1117.24,527.421 1120.48,531.876 1123.73,536.354 1126.97,540.854 1130.21,545.376 1133.45,549.919 1136.69,554.483 1139.93,559.068 1143.17,563.673 1146.42,568.298 1149.66,572.942 1152.9,577.604 1156.14,582.284 1159.38,586.983 1162.62,591.698 1165.86,596.431 1169.11,601.179 1172.35,605.944 1175.59,610.724 1178.83,615.519 1182.07,620.328 1185.31,625.151 1188.55,629.988 1191.8,634.837 1195.04,639.699 1198.28,644.573 1201.52,649.459 1204.76,654.355 1208,659.262 1211.24,664.18 1214.48,669.106 1217.73,674.042 1220.97,678.986 1224.21,683.939 1227.45,688.899 1230.69,693.866 1233.93,698.839 1237.17,703.819 1240.42,708.804 1243.66,713.794 1246.9,718.789 1250.14,723.788 1253.38,728.791 1256.62,733.797 1259.86,738.805 1263.11,743.815 1266.35,748.827 1269.59,753.84 1272.83,758.854 1276.07,763.868 1279.31,768.881 1282.55,773.893 1285.8,778.904 1289.04,783.913 1292.28,788.92 1295.52,793.923 1298.76,798.923 1302,803.92 1305.24,808.912 1308.48,813.899 1311.73,818.88 1314.97,823.856 1318.21,828.825 1321.45,833.787 1324.69,838.742 1327.93,843.689 1331.17,848.627 1334.42,853.557 1337.66,858.477 1340.9,863.387 1344.14,868.287 1347.38,873.177 1350.62,878.054 1353.86,882.92 1357.11,887.774 1360.35,892.615 1363.59,897.442 1366.83,902.256 1370.07,907.055 1373.31,911.84 1376.55,916.609 1379.8,921.363 1383.04,926.101 1386.28,930.822 1389.52,935.526 1392.76,940.212 1396,944.88 1399.24,949.53 1402.49,954.161 1405.73,958.772 1408.97,963.363 1412.21,967.934 1415.45,972.484 1418.69,977.013 1421.93,981.52 1425.17,986.005 1428.42,990.467 1431.66,994.907 1434.9,999.322 1438.14,1003.71 1441.38,1008.08 1444.62,1012.42 1447.86,1016.74 1451.11,1021.03 1454.35,1025.3 1457.59,1029.54 1460.83,1033.75 1464.07,1037.93 1467.31,1042.09 1470.55,1046.22 1473.8,1050.32 1477.04,1054.39 1480.28,1058.43 1483.52,1062.44 1486.76,1066.42 1490,1070.37 1493.24,1074.29 1496.49,1078.18 1499.73,1082.03 1502.97,1085.86 1506.21,1089.65 1509.45,1093.41 1512.69,1097.13 1515.93,1100.82 1519.18,1104.48 1522.42,1108.1 1525.66,1111.69 1528.9,1115.24 1532.14,1118.76 1535.38,1122.24 1538.62,1125.68 1541.86,1129.09 1545.11,1132.46 1548.35,1135.8 1551.59,1139.09 1554.83,1142.35 1558.07,1145.57 1561.31,1148.75 1564.55,1151.89 1567.8,1155 1571.04,1158.06 1574.28,1161.09 1577.52,1164.07 1580.76,1167.01 1584,1169.91 1587.24,1172.78 1590.49,1175.6 1593.73,1178.37 1596.97,1181.11 1600.21,1183.81 1603.45,1186.46 1606.69,1189.07 1609.93,1191.63 1613.18,1194.16 1616.42,1196.64 1619.66,1199.07 1622.9,1201.47 1626.14,1203.81 1629.38,1206.12 1632.62,1208.38 1635.86,1210.59 1639.11,1212.76 1642.35,1214.88 1645.59,1216.96 1648.83,1218.99 1652.07,1220.98 1655.31,1222.92 1658.55,1224.81 1661.8,1226.66 1665.04,1228.46 1668.28,1230.22 1671.52,1231.92 1674.76,1233.58 1678,1235.2 1681.24,1236.76 1684.49,1238.28 1687.73,1239.75 1690.97,1241.17 1694.21,1242.54 1697.45,1243.86 1700.69,1245.14 1703.93,1246.37 1707.18,1247.55 1710.42,1248.68 1713.66,1249.76 1716.9,1250.79 1720.14,1251.78 1723.38,1252.71 1726.62,1253.59 1729.87,1254.43 1733.11,1255.22 1736.35,1255.95 1739.59,1256.64 1742.83,1257.28 1746.07,1257.86 1749.31,1258.4 1752.55,1258.89 1755.8,1259.32 1759.04,1259.71 1762.28,1260.05 1765.52,1260.34 1768.76,1260.58 1772,1260.76 1775.24,1260.9 1778.49,1260.99 1781.73,1261.02 1784.97,1261.01 1788.21,1260.95 1791.45,1260.83 1794.69,1260.67 1797.93,1260.46 1801.18,1260.19 1804.42,1259.88 1807.66,1259.52 1810.9,1259.1 1814.14,1258.64 1817.38,1258.13 1820.62,1257.56 1823.87,1256.95 1827.11,1256.29 1830.35,1255.57 1833.59,1254.81 1836.83,1254 1840.07,1253.14 1843.31,1252.23 1846.55,1251.27 1849.8,1250.26 1853.04,1249.2 1856.28,1248.09 1859.52,1246.94 1862.76,1245.73 1866,1244.48 1869.24,1243.18 1872.49,1241.83 1875.73,1240.43 1878.97,1238.98 1882.21,1237.49 1885.45,1235.95 1888.69,1234.36 1891.93,1232.72 1895.18,1231.04 1898.42,1229.31 1901.66,1227.53 1904.9,1225.7 1908.14,1223.83 1911.38,1221.91 1914.62,1219.95 1917.87,1217.94 1921.11,1215.88 1924.35,1213.78 1927.59,1211.63 1930.83,1209.44 1934.07,1207.2 1937.31,1204.92 1940.56,1202.59 1943.8,1200.22 1947.04,1197.81 1950.28,1195.35 1953.52,1192.84 1956.76,1190.3 1960,1187.71 1963.24,1185.08 1966.49,1182.4 1969.73,1179.69 1972.97,1176.93 1976.21,1174.13 1979.45,1171.29 1982.69,1168.4 1985.93,1165.48 1989.18,1162.52 1992.42,1159.51 1995.66,1156.47 1998.9,1153.38 2002.14,1150.26 2005.38,1147.1 2008.62,1143.89 2011.87,1140.65 2015.11,1137.38 2018.35,1134.06 2021.59,1130.71 2024.83,1127.32 2028.07,1123.89 2031.31,1120.43 2034.56,1116.93 2037.8,1113.39 2041.04,1109.82 2044.28,1106.21 2047.52,1102.57 2050.76,1098.9 2054,1095.19 2057.24,1091.45 2060.49,1087.67 2063.73,1083.87 2066.97,1080.03 2070.21,1076.15 2073.45,1072.25 2076.69,1068.31 2079.93,1064.35 2083.18,1060.35 2086.42,1056.32 2089.66,1052.27 2092.9,1048.18 2096.14,1044.07 2099.38,1039.92 2102.62,1035.75 2105.87,1031.55 2109.11,1027.33 2112.35,1023.07 2115.59,1018.79 2118.83,1014.49 2122.07,1010.16 2125.31,1005.8 2128.56,1001.42 2131.8,997.019 2135.04,992.591 2138.28,988.14 2141.52,983.666 2144.76,979.169 2148,974.651 2151.25,970.111 2154.49,965.55 2157.73,960.968 2160.97,956.366 2164.21,951.745 2167.45,947.104 2170.69,942.445 2173.93,937.767 2177.18,933.071 2180.42,928.359 2183.66,923.629 2186.9,918.883 2190.14,914.121 2193.38,909.343 2196.62,904.551 2199.87,899.744 2203.11,894.923 2206.35,890.088 2209.59,885.241 2212.83,880.381 2216.07,875.509 2219.31,870.625 2222.56,865.73 2225.8,860.825 2229.04,855.909 2232.28,850.984 2235.52,846.049 2238.76,841.106 2242,836.155 2245.25,831.197 2248.49,826.231 2251.73,821.258 2254.97,816.279 2258.21,811.295 2261.45,806.305 2264.69,801.311 2267.94,796.313 2271.18,791.311 2274.42,786.305 2277.66,781.298 2280.9,776.288 2284.14,771.276 2287.38,766.263 2290.62,761.249 "/>
<circle clip-path="url(#clip132)" cx="1094.55" cy="490.064" r="14.4" fill="#e26f46" fill-rule="evenodd" fill-opacity="1" stroke="#000000" stroke-opacity="1" stroke-width="3.2"/>
<circle clip-path="url(#clip132)" cx="1013.52" cy="444.104" r="14.4" fill="#e26f46" fill-rule="evenodd" fill-opacity="1" stroke="#000000" stroke-opacity="1" stroke-width="3.2"/>
<circle clip-path="url(#clip132)" cx="2164.21" cy="991.348" r="14.4" fill="#e26f46" fill-rule="evenodd" fill-opacity="1" stroke="#000000" stroke-opacity="1" stroke-width="3.2"/>
<circle clip-path="url(#clip132)" cx="1752.55" cy="1314.17" r="14.4" fill="#e26f46" fill-rule="evenodd" fill-opacity="1" stroke="#000000" stroke-opacity="1" stroke-width="3.2"/>
<circle clip-path="url(#clip132)" cx="2089.66" cy="1004.59" r="14.4" fill="#e26f46" fill-rule="evenodd" fill-opacity="1" stroke="#000000" stroke-opacity="1" stroke-width="3.2"/>
<circle clip-path="url(#clip132)" cx="1671.52" cy="1116.08" r="14.4" fill="#e26f46" fill-rule="evenodd" fill-opacity="1" stroke="#000000" stroke-opacity="1" stroke-width="3.2"/>
<circle clip-path="url(#clip132)" cx="741.242" cy="182.528" r="14.4" fill="#e26f46" fill-rule="evenodd" fill-opacity="1" stroke="#000000" stroke-opacity="1" stroke-width="3.2"/>
<circle clip-path="url(#clip132)" cx="887.105" cy="254.354" r="14.4" fill="#e26f46" fill-rule="evenodd" fill-opacity="1" stroke="#000000" stroke-opacity="1" stroke-width="3.2"/>
<circle clip-path="url(#clip132)" cx="1619.66" cy="1236.36" r="14.4" fill="#e26f46" fill-rule="evenodd" fill-opacity="1" stroke="#000000" stroke-opacity="1" stroke-width="3.2"/>
<circle clip-path="url(#clip132)" cx="2109.11" cy="1129.03" r="14.4" fill="#e26f46" fill-rule="evenodd" fill-opacity="1" stroke="#000000" stroke-opacity="1" stroke-width="3.2"/>
<circle clip-path="url(#clip132)" cx="2057.24" cy="1159.4" r="14.4" fill="#e26f46" fill-rule="evenodd" fill-opacity="1" stroke="#000000" stroke-opacity="1" stroke-width="3.2"/>
<circle clip-path="url(#clip132)" cx="316.621" cy="564.378" r="14.4" fill="#e26f46" fill-rule="evenodd" fill-opacity="1" stroke="#000000" stroke-opacity="1" stroke-width="3.2"/>
<circle clip-path="url(#clip132)" cx="712.07" cy="285.052" r="14.4" fill="#e26f46" fill-rule="evenodd" fill-opacity="1" stroke="#000000" stroke-opacity="1" stroke-width="3.2"/>
<circle clip-path="url(#clip132)" cx="2258.21" cy="793.089" r="14.4" fill="#e26f46" fill-rule="evenodd" fill-opacity="1" stroke="#000000" stroke-opacity="1" stroke-width="3.2"/>
<circle clip-path="url(#clip132)" cx="1473.8" cy="1010.72" r="14.4" fill="#e26f46" fill-rule="evenodd" fill-opacity="1" stroke="#000000" stroke-opacity="1" stroke-width="3.2"/>
<circle clip-path="url(#clip132)" cx="277.724" cy="643.958" r="14.4" fill="#e26f46" fill-rule="evenodd" fill-opacity="1" stroke="#000000" stroke-opacity="1" stroke-width="3.2"/>
<circle clip-path="url(#clip132)" cx="1820.62" cy="1359.09" r="14.4" fill="#e26f46" fill-rule="evenodd" fill-opacity="1" stroke="#000000" stroke-opacity="1" stroke-width="3.2"/>
<circle clip-path="url(#clip132)" cx="1311.73" cy="698.963" r="14.4" fill="#e26f46" fill-rule="evenodd" fill-opacity="1" stroke="#000000" stroke-opacity="1" stroke-width="3.2"/>
<circle clip-path="url(#clip132)" cx="1729.87" cy="1162.39" r="14.4" fill="#e26f46" fill-rule="evenodd" fill-opacity="1" stroke="#000000" stroke-opacity="1" stroke-width="3.2"/>
<circle clip-path="url(#clip132)" cx="1007.04" cy="300.881" r="14.4" fill="#e26f46" fill-rule="evenodd" fill-opacity="1" stroke="#000000" stroke-opacity="1" stroke-width="3.2"/>
<path clip-path="url(#clip132)" d="M255.035 855.564 L258.276 851.327 L261.517 847.208 L264.759 843.217 L268 839.367 L271.242 835.67 L274.483 832.139 L277.724 828.785 L280.966 825.619 L284.207 822.646 L287.449 819.866 L290.69 817.282 L293.931 814.894 L297.173 812.704 L300.414 810.713 L303.655 808.919 L306.897 807.324 L310.138 805.928 L313.38 804.728 L316.621 803.725 L319.862 802.916 L323.104 802.288 L326.345 801.827 L329.587 801.519 L332.828 801.351 L336.069 801.308 L339.311 801.377 L342.552 801.546 L345.793 801.801 L349.035 802.13 L352.276 802.522 L355.518 802.966 L358.759 803.451 L362 803.968 L365.242 804.507 L368.483 805.06 L371.725 805.617 L374.966 806.172 L378.207 806.716 L381.449 807.244 L384.69 807.749 L387.931 808.225 L391.173 808.666 L394.414 809.068 L397.656 809.425 L400.897 809.733 L404.138 809.988 L407.38 810.186 L410.621 810.324 L413.863 810.398 L417.104 810.405 L420.345 810.342 L423.587 810.208 L426.828 809.998 L430.069 809.712 L433.311 809.347 L436.552 808.901 L439.794 808.372 L443.035 807.759 L446.276 807.061 L449.518 806.275 L452.759 805.401 L456.001 804.438 L459.242 803.385 L462.483 802.24 L465.725 801.004 L468.966 799.675 L472.208 798.252 L475.449 796.735 L478.69 795.124 L481.932 793.419 L485.173 791.618 L488.414 789.721 L491.656 787.73 L494.897 785.642 L498.139 783.459 L501.38 781.179 L504.621 778.805 L507.863 776.334 L511.104 773.768 L514.346 771.107 L517.587 768.351 L520.828 765.5 L524.07 762.556 L527.311 759.517 L530.552 756.386 L533.794 753.162 L537.035 749.846 L540.277 746.438 L543.518 742.941 L546.759 739.354 L550.001 735.678 L553.242 731.914 L556.484 728.064 L559.725 724.129 L562.966 720.109 L566.208 716.007 L569.449 711.823 L572.69 707.559 L575.932 703.216 L579.173 698.797 L582.415 694.304 L585.656 689.737 L588.897 685.099 L592.139 680.393 L595.38 675.62 L598.622 670.784 L601.863 665.886 L605.104 660.929 L608.346 655.917 L611.587 650.852 L614.828 645.739 L618.07 640.579 L621.311 635.377 L624.553 630.138 L627.794 624.864 L631.035 619.562 L634.277 614.234 L637.518 608.887 L640.76 603.525 L644.001 598.154 L647.242 592.78 L650.484 587.41 L653.725 582.049 L656.966 576.705 L660.208 571.386 L663.449 566.099 L666.691 560.852 L669.932 555.654 L673.173 550.514 L676.415 545.443 L679.656 540.448 L682.898 535.543 L686.139 530.736 L689.38 526.04 L692.622 521.467 L695.863 517.028 L699.104 512.736 L702.346 508.604 L705.587 504.645 L708.829 500.873 L712.07 497.3 L715.311 493.938 L718.553 490.791 L721.794 487.861 L725.036 485.149 L728.277 482.657 L731.518 480.387 L734.76 478.34 L738.001 476.518 L741.242 474.922 L744.484 473.55 L747.725 472.39 L750.967 471.429 L754.208 470.653 L757.449 470.046 L760.691 469.597 L763.932 469.291 L767.174 469.116 L770.415 469.059 L773.656 469.109 L776.898 469.254 L780.139 469.484 L783.381 469.789 L786.622 470.16 L789.863 470.587 L793.105 471.064 L796.346 471.583 L799.587 472.137 L802.829 472.72 L806.07 473.326 L809.312 473.952 L812.553 474.593 L815.794 475.245 L819.036 475.906 L822.277 476.573 L825.519 477.244 L828.76 477.918 L832.001 478.595 L835.243 479.274 L838.484 479.956 L841.725 480.641 L844.967 481.331 L848.208 482.027 L851.45 482.732 L854.691 483.45 L857.932 484.181 L861.174 484.932 L864.415 485.705 L867.657 486.505 L870.898 487.336 L874.139 488.205 L877.381 489.115 L880.622 490.074 L883.863 491.086 L887.105 492.159 L890.346 493.295 L893.588 494.492 L896.829 495.743 L900.07 497.043 L903.312 498.386 L906.553 499.767 L909.795 501.182 L913.036 502.626 L916.277 504.094 L919.519 505.584 L922.76 507.092 L926.001 508.616 L929.243 510.154 L932.484 511.703 L935.726 513.262 L938.967 514.833 L942.208 516.413 L945.45 518.005 L948.691 519.609 L951.933 521.228 L955.174 522.864 L958.415 524.52 L961.657 526.201 L964.898 527.912 L968.139 529.657 L971.381 531.443 L974.622 533.277 L977.864 535.166 L981.105 537.119 L984.346 539.144 L987.588 541.251 L990.829 543.449 L994.071 545.751 L997.312 548.165 L1000.55 550.704 L1003.79 553.38 L1007.04 556.203 L1010.28 559.183 L1013.52 562.321 L1016.76 565.614 L1020 569.054 L1023.24 572.633 L1026.48 576.342 L1029.73 580.174 L1032.97 584.121 L1036.21 588.174 L1039.45 592.327 L1042.69 596.573 L1045.93 600.906 L1049.17 605.319 L1052.42 609.808 L1055.66 614.368 L1058.9 618.995 L1062.14 623.686 L1065.38 628.437 L1068.62 633.246 L1071.86 638.112 L1075.11 643.034 L1078.35 648.009 L1081.59 653.039 L1084.83 658.122 L1088.07 663.259 L1091.31 668.451 L1094.55 673.698 L1097.79 679 L1101.04 684.35 L1104.28 689.74 L1107.52 695.161 L1110.76 700.606 L1114 706.066 L1117.24 711.536 L1120.48 717.008 L1123.73 722.475 L1126.97 727.931 L1130.21 733.37 L1133.45 738.788 L1136.69 744.177 L1139.93 749.534 L1143.17 754.855 L1146.42 760.134 L1149.66 765.368 L1152.9 770.555 L1156.14 775.689 L1159.38 780.769 L1162.62 785.792 L1165.86 790.756 L1169.11 795.658 L1172.35 800.498 L1175.59 805.272 L1178.83 809.981 L1182.07 814.623 L1185.31 819.198 L1188.55 823.704 L1191.8 828.143 L1195.04 832.513 L1198.28 836.815 L1201.52 841.05 L1204.76 845.218 L1208 849.321 L1211.24 853.359 L1214.48 857.334 L1217.73 861.247 L1220.97 865.101 L1224.21 868.897 L1227.45 872.638 L1230.69 876.327 L1233.93 879.966 L1237.17 883.558 L1240.42 887.107 L1243.66 890.617 L1246.9 894.091 L1250.14 897.533 L1253.38 900.947 L1256.62 904.339 L1259.86 907.713 L1263.11 911.074 L1266.35 914.428 L1269.59 917.78 L1272.83 921.136 L1276.07 924.502 L1279.31 927.885 L1282.55 931.291 L1285.8 934.726 L1289.04 938.198 L1292.28 941.714 L1295.52 945.281 L1298.76 948.907 L1302 952.598 L1305.24 956.363 L1308.48 960.208 L1311.73 964.141 L1314.97 968.167 L1318.21 972.282 L1321.45 976.479 L1324.69 980.75 L1327.93 985.09 L1331.17 989.492 L1334.42 993.947 L1337.66 998.451 L1340.9 1003 L1344.14 1007.58 L1347.38 1012.19 L1350.62 1016.82 L1353.86 1021.47 L1357.11 1026.13 L1360.35 1030.8 L1363.59 1035.47 L1366.83 1040.13 L1370.07 1044.79 L1373.31 1049.44 L1376.55 1054.07 L1379.8 1058.69 L1383.04 1063.28 L1386.28 1067.85 L1389.52 1072.4 L1392.76 1076.91 L1396 1081.4 L1399.24 1085.85 L1402.49 1090.27 L1405.73 1094.66 L1408.97 1099.01 L1412.21 1103.33 L1415.45 1107.61 L1418.69 1111.86 L1421.93 1116.07 L1425.17 1120.26 L1428.42 1124.41 L1431.66 1128.53 L1434.9 1132.62 L1438.14 1136.69 L1441.38 1140.74 L1444.62 1144.76 L1447.86 1148.77 L1451.11 1152.76 L1454.35 1156.74 L1457.59 1160.71 L1460.83 1164.68 L1464.07 1168.64 L1467.31 1172.61 L1470.55 1176.58 L1473.8 1180.56 L1477.04 1184.55 L1480.28 1188.55 L1483.52 1192.56 L1486.76 1196.55 L1490 1200.54 L1493.24 1204.51 L1496.49 1208.46 L1499.73 1212.38 L1502.97 1216.27 L1506.21 1220.12 L1509.45 1223.93 L1512.69 1227.7 L1515.93 1231.41 L1519.18 1235.06 L1522.42 1238.66 L1525.66 1242.19 L1528.9 1245.66 L1532.14 1249.05 L1535.38 1252.37 L1538.62 1255.62 L1541.86 1258.79 L1545.11 1261.88 L1548.35 1264.89 L1551.59 1267.81 L1554.83 1270.65 L1558.07 1273.41 L1561.31 1276.08 L1564.55 1278.67 L1567.8 1281.18 L1571.04 1283.6 L1574.28 1285.94 L1577.52 1288.2 L1580.76 1290.38 L1584 1292.48 L1587.24 1294.51 L1590.49 1296.47 L1593.73 1298.36 L1596.97 1300.18 L1600.21 1301.95 L1603.45 1303.66 L1606.69 1305.32 L1609.93 1306.93 L1613.18 1308.5 L1616.42 1310.04 L1619.66 1311.54 L1622.9 1313.03 L1626.14 1314.48 L1629.38 1315.92 L1632.62 1317.34 L1635.86 1318.75 L1639.11 1320.14 L1642.35 1321.52 L1645.59 1322.89 L1648.83 1324.27 L1652.07 1325.64 L1655.31 1327.02 L1658.55 1328.42 L1661.8 1329.83 L1665.04 1331.26 L1668.28 1332.73 L1671.52 1334.23 L1674.76 1335.77 L1678 1337.35 L1681.24 1338.97 L1684.49 1340.62 L1687.73 1342.3 L1690.97 1344.01 L1694.21 1345.74 L1697.45 1347.51 L1700.69 1349.29 L1703.93 1351.11 L1707.18 1352.95 L1710.42 1354.81 L1713.66 1356.71 L1716.9 1358.65 L1720.14 1360.62 L1723.38 1362.63 L1726.62 1364.69 L1729.87 1366.8 L1733.11 1368.96 L1736.35 1371.18 L1739.59 1373.44 L1742.83 1375.74 L1746.07 1378.07 L1749.31 1380.44 L1752.55 1382.84 L1755.8 1385.25 L1759.04 1387.68 L1762.28 1390.12 L1765.52 1392.56 L1768.76 1394.99 L1772 1397.41 L1775.24 1399.81 L1778.49 1402.19 L1781.73 1404.53 L1784.97 1406.84 L1788.21 1409.11 L1791.45 1411.34 L1794.69 1413.52 L1797.93 1415.65 L1801.18 1417.74 L1804.42 1419.77 L1807.66 1421.74 L1810.9 1423.66 L1814.14 1425.51 L1817.38 1427.31 L1820.62 1429.05 L1823.87 1430.73 L1827.11 1432.34 L1830.35 1433.88 L1833.59 1435.34 L1836.83 1436.72 L1840.07 1438.02 L1843.31 1439.23 L1846.55 1440.35 L1849.8 1441.37 L1853.04 1442.29 L1856.28 1443.11 L1859.52 1443.83 L1862.76 1444.43 L1866 1444.92 L1869.24 1445.3 L1872.49 1445.55 L1875.73 1445.7 L1878.97 1445.72 L1882.21 1445.61 L1885.45 1445.39 L1888.69 1445.04 L1891.93 1444.56 L1895.18 1443.95 L1898.42 1443.22 L1901.66 1442.35 L1904.9 1441.36 L1908.14 1440.23 L1911.38 1438.98 L1914.62 1437.59 L1917.87 1436.07 L1921.11 1434.42 L1924.35 1432.64 L1927.59 1430.73 L1930.83 1428.68 L1934.07 1426.51 L1937.31 1424.2 L1940.56 1421.77 L1943.8 1419.2 L1947.04 1416.51 L1950.28 1413.69 L1953.52 1410.75 L1956.76 1407.68 L1960 1404.48 L1963.24 1401.17 L1966.49 1397.73 L1969.73 1394.18 L1972.97 1390.5 L1976.21 1386.72 L1979.45 1382.82 L1982.69 1378.8 L1985.93 1374.69 L1989.18 1370.46 L1992.42 1366.14 L1995.66 1361.71 L1998.9 1357.19 L2002.14 1352.58 L2005.38 1347.88 L2008.62 1343.1 L2011.87 1338.24 L2015.11 1333.31 L2018.35 1328.32 L2021.59 1323.26 L2024.83 1318.14 L2028.07 1312.98 L2031.31 1307.78 L2034.56 1302.55 L2037.8 1297.29 L2041.04 1292.02 L2044.28 1286.74 L2047.52 1281.46 L2050.76 1276.2 L2054 1270.96 L2057.24 1265.76 L2060.49 1260.61 L2063.73 1255.5 L2066.97 1250.46 L2070.21 1245.48 L2073.45 1240.57 L2076.69 1235.75 L2079.93 1231.01 L2083.18 1226.36 L2086.42 1221.81 L2089.66 1217.38 L2092.9 1213.06 L2096.14 1208.85 L2099.38 1204.76 L2102.62 1200.77 L2105.87 1196.88 L2109.11 1193.1 L2112.35 1189.41 L2115.59 1185.81 L2118.83 1182.3 L2122.07 1178.87 L2125.31 1175.51 L2128.56 1172.22 L2131.8 1169 L2135.04 1165.83 L2138.28 1162.73 L2141.52 1159.68 L2144.76 1156.68 L2148 1153.74 L2151.25 1150.86 L2154.49 1148.03 L2157.73 1145.25 L2160.97 1142.54 L2164.21 1139.88 L2167.45 1137.29 L2170.69 1134.76 L2173.93 1132.28 L2177.18 1129.86 L2180.42 1127.49 L2183.66 1125.16 L2186.9 1122.89 L2190.14 1120.66 L2193.38 1118.47 L2196.62 1116.33 L2199.87 1114.24 L2203.11 1112.2 L2206.35 1110.21 L2209.59 1108.28 L2212.83 1106.4 L2216.07 1104.59 L2219.31 1102.84 L2222.56 1101.17 L2225.8 1099.58 L2229.04 1098.07 L2232.28 1096.64 L2235.52 1095.32 L2238.76 1094.1 L2242 1093 L2245.25 1092.01 L2248.49 1091.15 L2251.73 1090.42 L2254.97 1089.84 L2258.21 1089.41 L2261.45 1089.14 L2264.69 1089.02 L2267.94 1089.04 L2271.18 1089.21 L2274.42 1089.5 L2277.66 1089.91 L2280.9 1090.44 L2284.14 1091.08 L2287.38 1091.83 L2290.62 1092.66 L2290.62 599.447 L2287.38 605.063 L2284.14 610.697 L2280.9 616.345 L2277.66 622.003 L2274.42 627.668 L2271.18 633.334 L2267.94 638.998 L2264.69 644.654 L2261.45 650.299 L2258.21 655.927 L2254.97 661.537 L2251.73 667.128 L2248.49 672.705 L2245.25 678.269 L2242 683.825 L2238.76 689.375 L2235.52 694.922 L2232.28 700.467 L2229.04 706.014 L2225.8 711.565 L2222.56 717.12 L2219.31 722.681 L2216.07 728.25 L2212.83 733.826 L2209.59 739.41 L2206.35 745.001 L2203.11 750.597 L2199.87 756.198 L2196.62 761.8 L2193.38 767.401 L2190.14 772.997 L2186.9 778.585 L2183.66 784.158 L2180.42 789.713 L2177.18 795.242 L2173.93 800.739 L2170.69 806.196 L2167.45 811.606 L2164.21 816.96 L2160.97 822.249 L2157.73 827.473 L2154.49 832.631 L2151.25 837.719 L2148 842.737 L2144.76 847.681 L2141.52 852.548 L2138.28 857.332 L2135.04 862.029 L2131.8 866.632 L2128.56 871.135 L2125.31 875.529 L2122.07 879.807 L2118.83 883.959 L2115.59 887.976 L2112.35 891.846 L2109.11 895.56 L2105.87 899.108 L2102.62 902.49 L2099.38 905.706 L2096.14 908.756 L2092.9 911.642 L2089.66 914.363 L2086.42 916.921 L2083.18 919.319 L2079.93 921.563 L2076.69 923.658 L2073.45 925.607 L2070.21 927.415 L2066.97 929.085 L2063.73 930.621 L2060.49 932.026 L2057.24 933.302 L2054 934.454 L2050.76 935.494 L2047.52 936.434 L2044.28 937.288 L2041.04 938.067 L2037.8 938.785 L2034.56 939.451 L2031.31 940.076 L2028.07 940.672 L2024.83 941.246 L2021.59 941.808 L2018.35 942.365 L2015.11 942.927 L2011.87 943.499 L2008.62 944.089 L2005.38 944.702 L2002.14 945.345 L1998.9 946.022 L1995.66 946.738 L1992.42 947.499 L1989.18 948.307 L1985.93 949.167 L1982.69 950.081 L1979.45 951.054 L1976.21 952.086 L1972.97 953.182 L1969.73 954.343 L1966.49 955.57 L1963.24 956.865 L1960 958.23 L1956.76 959.665 L1953.52 961.171 L1950.28 962.749 L1947.04 964.399 L1943.8 966.121 L1940.56 967.915 L1937.31 969.779 L1934.07 971.715 L1930.83 973.72 L1927.59 975.794 L1924.35 977.936 L1921.11 980.143 L1917.87 982.414 L1914.62 984.748 L1911.38 987.141 L1908.14 989.592 L1904.9 992.097 L1901.66 994.654 L1898.42 997.259 L1895.18 999.91 L1891.93 1002.6 L1888.69 1005.33 L1885.45 1008.09 L1882.21 1010.88 L1878.97 1013.7 L1875.73 1016.53 L1872.49 1019.37 L1869.24 1022.23 L1866 1025.08 L1862.76 1027.92 L1859.52 1030.76 L1856.28 1033.57 L1853.04 1036.36 L1849.8 1039.11 L1846.55 1041.82 L1843.31 1044.47 L1840.07 1047.06 L1836.83 1049.58 L1833.59 1052.02 L1830.35 1054.37 L1827.11 1056.61 L1823.87 1058.74 L1820.62 1060.75 L1817.38 1062.62 L1814.14 1064.36 L1810.9 1065.97 L1807.66 1067.46 L1804.42 1068.82 L1801.18 1070.07 L1797.93 1071.19 L1794.69 1072.2 L1791.45 1073.1 L1788.21 1073.88 L1784.97 1074.54 L1781.73 1075.09 L1778.49 1075.52 L1775.24 1075.84 L1772 1076.03 L1768.76 1076.1 L1765.52 1076.03 L1762.28 1075.84 L1759.04 1075.51 L1755.8 1075.03 L1752.55 1074.4 L1749.31 1073.62 L1746.07 1072.68 L1742.83 1071.6 L1739.59 1070.38 L1736.35 1069.03 L1733.11 1067.54 L1729.87 1065.93 L1726.62 1064.19 L1723.38 1062.34 L1720.14 1060.39 L1716.9 1058.33 L1713.66 1056.18 L1710.42 1053.95 L1707.18 1051.64 L1703.93 1049.25 L1700.69 1046.8 L1697.45 1044.27 L1694.21 1041.69 L1690.97 1039.04 L1687.73 1036.33 L1684.49 1033.56 L1681.24 1030.73 L1678 1027.85 L1674.76 1024.89 L1671.52 1021.88 L1668.28 1018.8 L1665.04 1015.66 L1661.8 1012.45 L1658.55 1009.19 L1655.31 1005.86 L1652.07 1002.47 L1648.83 999.029 L1645.59 995.523 L1642.35 991.955 L1639.11 988.323 L1635.86 984.626 L1632.62 980.859 L1629.38 977.021 L1626.14 973.106 L1622.9 969.112 L1619.66 965.034 L1616.42 960.869 L1613.18 956.625 L1609.93 952.31 L1606.69 947.933 L1603.45 943.503 L1600.21 939.027 L1596.97 934.513 L1593.73 929.967 L1590.49 925.398 L1587.24 920.809 L1584 916.209 L1580.76 911.6 L1577.52 906.989 L1574.28 902.379 L1571.04 897.775 L1567.8 893.179 L1564.55 888.594 L1561.31 884.024 L1558.07 879.469 L1554.83 874.931 L1551.59 870.412 L1548.35 865.912 L1545.11 861.431 L1541.86 856.969 L1538.62 852.525 L1535.38 848.099 L1532.14 843.689 L1528.9 839.292 L1525.66 834.908 L1522.42 830.532 L1519.18 826.163 L1515.93 821.796 L1512.69 817.429 L1509.45 813.056 L1506.21 808.674 L1502.97 804.278 L1499.73 799.862 L1496.49 795.423 L1493.24 790.953 L1490 786.447 L1486.76 781.9 L1483.52 777.305 L1480.28 772.655 L1477.04 767.946 L1473.8 763.17 L1470.55 758.323 L1467.31 753.409 L1464.07 748.436 L1460.83 743.41 L1457.59 738.338 L1454.35 733.225 L1451.11 728.079 L1447.86 722.905 L1444.62 717.71 L1441.38 712.498 L1438.14 707.277 L1434.9 702.05 L1431.66 696.823 L1428.42 691.6 L1425.17 686.386 L1421.93 681.185 L1418.69 675.999 L1415.45 670.834 L1412.21 665.692 L1408.97 660.575 L1405.73 655.486 L1402.49 650.426 L1399.24 645.399 L1396 640.404 L1392.76 635.444 L1389.52 630.518 L1386.28 625.628 L1383.04 620.772 L1379.8 615.952 L1376.55 611.166 L1373.31 606.413 L1370.07 601.692 L1366.83 597.002 L1363.59 592.34 L1360.35 587.705 L1357.11 583.094 L1353.86 578.504 L1350.62 573.933 L1347.38 569.376 L1344.14 564.831 L1340.9 560.293 L1337.66 555.759 L1334.42 551.225 L1331.17 546.686 L1327.93 542.138 L1324.69 537.576 L1321.45 532.996 L1318.21 528.394 L1314.97 523.765 L1311.73 519.105 L1308.48 514.41 L1305.24 509.685 L1302 504.936 L1298.76 500.167 L1295.52 495.385 L1292.28 490.595 L1289.04 485.802 L1285.8 481.013 L1282.55 476.232 L1279.31 471.465 L1276.07 466.717 L1272.83 461.993 L1269.59 457.298 L1266.35 452.636 L1263.11 448.012 L1259.86 443.43 L1256.62 438.894 L1253.38 434.408 L1250.14 429.975 L1246.9 425.598 L1243.66 421.281 L1240.42 417.027 L1237.17 412.838 L1233.93 408.717 L1230.69 404.666 L1227.45 400.686 L1224.21 396.78 L1220.97 392.95 L1217.73 389.196 L1214.48 385.52 L1211.24 381.923 L1208 378.406 L1204.76 374.969 L1201.52 371.612 L1198.28 368.337 L1195.04 365.142 L1191.8 362.027 L1188.55 358.994 L1185.31 356.039 L1182.07 353.164 L1178.83 350.366 L1175.59 347.645 L1172.35 344.999 L1169.11 342.427 L1165.86 339.927 L1162.62 337.496 L1159.38 335.132 L1156.14 332.833 L1152.9 330.596 L1149.66 328.418 L1146.42 326.296 L1143.17 324.225 L1139.93 322.202 L1136.69 320.223 L1133.45 318.283 L1130.21 316.378 L1126.97 314.502 L1123.73 312.651 L1120.48 310.818 L1117.24 308.997 L1114 307.183 L1110.76 305.368 L1107.52 303.546 L1104.28 301.71 L1101.04 299.853 L1097.79 297.966 L1094.55 296.042 L1091.31 294.076 L1088.07 292.067 L1084.83 290.018 L1081.59 287.931 L1078.35 285.807 L1075.11 283.648 L1071.86 281.456 L1068.62 279.23 L1065.38 276.971 L1062.14 274.68 L1058.9 272.356 L1055.66 269.997 L1052.42 267.602 L1049.17 265.17 L1045.93 262.698 L1042.69 260.183 L1039.45 257.621 L1036.21 255.009 L1032.97 252.343 L1029.73 249.617 L1026.48 246.827 L1023.24 243.967 L1020 241.033 L1016.76 238.018 L1013.52 234.918 L1010.28 231.729 L1007.04 228.456 L1003.79 225.104 L1000.55 221.685 L997.312 218.209 L994.071 214.685 L990.829 211.124 L987.588 207.537 L984.346 203.932 L981.105 200.321 L977.864 196.711 L974.622 193.11 L971.381 189.528 L968.139 185.971 L964.898 182.447 L961.657 178.96 L958.415 175.518 L955.174 172.124 L951.933 168.784 L948.691 165.502 L945.45 162.28 L942.208 159.121 L938.967 156.029 L935.726 153.004 L932.484 150.048 L929.243 147.162 L926.001 144.346 L922.76 141.599 L919.519 138.922 L916.277 136.314 L913.036 133.773 L909.795 131.298 L906.553 128.887 L903.312 126.538 L900.07 124.248 L896.829 122.015 L893.588 119.837 L890.346 117.71 L887.105 115.632 L883.863 113.602 L880.622 111.621 L877.381 109.696 L874.139 107.829 L870.898 106.027 L867.657 104.292 L864.415 102.628 L861.174 101.04 L857.932 99.5318 L854.691 98.1056 L851.45 96.7652 L848.208 95.5132 L844.967 94.3522 L841.725 93.2844 L838.484 92.3118 L835.243 91.4358 L832.001 90.6578 L828.76 89.9785 L825.519 89.3984 L822.277 88.9177 L819.036 88.536 L815.794 88.2527 L812.553 88.0667 L809.312 87.9763 L806.07 87.9796 L802.829 88.0743 L799.587 88.2573 L796.346 88.5254 L793.105 88.8747 L789.863 89.3008 L786.622 89.799 L783.381 90.3639 L780.139 90.9897 L776.898 91.67 L773.656 92.398 L770.415 93.1666 L767.174 93.9678 L763.932 94.7937 L760.691 95.6356 L757.449 96.4847 L754.208 97.3319 L750.967 98.1679 L747.725 98.9832 L744.484 99.7684 L741.242 100.514 L738.001 101.212 L734.76 101.857 L731.518 102.444 L728.277 102.97 L725.036 103.43 L721.794 103.823 L718.553 104.143 L715.311 104.39 L712.07 104.559 L708.829 104.651 L705.587 104.671 L702.346 104.627 L699.104 104.527 L695.863 104.378 L692.622 104.189 L689.38 103.966 L686.139 103.717 L682.898 103.45 L679.656 103.171 L676.415 102.886 L673.173 102.602 L669.932 102.324 L666.691 102.058 L663.449 101.81 L660.208 101.583 L656.966 101.383 L653.725 101.214 L650.484 101.079 L647.242 100.983 L644.001 100.928 L640.76 100.918 L637.518 100.955 L634.277 101.042 L631.035 101.181 L627.794 101.375 L624.553 101.626 L621.311 101.935 L618.07 102.304 L614.828 102.734 L611.587 103.227 L608.346 103.784 L605.104 104.406 L601.863 105.094 L598.622 105.849 L595.38 106.672 L592.139 107.563 L588.897 108.522 L585.656 109.551 L582.415 110.65 L579.173 111.819 L575.932 113.058 L572.69 114.369 L569.449 115.75 L566.208 117.202 L562.966 118.726 L559.725 120.321 L556.484 121.988 L553.242 123.726 L550.001 125.535 L546.759 127.416 L543.518 129.368 L540.277 131.392 L537.035 133.487 L533.794 135.652 L530.552 137.889 L527.311 140.196 L524.07 142.574 L520.828 145.022 L517.587 147.541 L514.346 150.129 L511.104 152.787 L507.863 155.514 L504.621 158.309 L501.38 161.174 L498.139 164.107 L494.897 167.108 L491.656 170.176 L488.414 173.311 L485.173 176.513 L481.932 179.782 L478.69 183.115 L475.449 186.514 L472.208 189.977 L468.966 193.504 L465.725 197.094 L462.483 200.747 L459.242 204.461 L456.001 208.235 L452.759 212.07 L449.518 215.963 L446.276 219.914 L443.035 223.921 L439.794 227.983 L436.552 232.1 L433.311 236.268 L430.069 240.488 L426.828 244.757 L423.587 249.072 L420.345 253.434 L417.104 257.838 L413.863 262.283 L410.621 266.766 L407.38 271.284 L404.138 275.835 L400.897 280.415 L397.656 285.022 L394.414 289.65 L391.173 294.296 L387.931 298.956 L384.69 303.626 L381.449 308.299 L378.207 312.971 L374.966 317.636 L371.725 322.288 L368.483 326.919 L365.242 331.524 L362 336.093 L358.759 340.62 L355.518 345.094 L352.276 349.508 L349.035 353.852 L345.793 358.114 L342.552 362.285 L339.311 366.352 L336.069 370.305 L332.828 374.131 L329.587 377.817 L326.345 381.351 L323.104 384.719 L319.862 387.909 L316.621 390.906 L313.38 393.701 L310.138 396.287 L306.897 398.661 L303.655 400.821 L300.414 402.762 L297.173 404.484 L293.931 405.984 L290.69 407.26 L287.449 408.311 L284.207 409.136 L280.966 409.734 L277.724 410.104 L274.483 410.248 L271.242 410.178 L268 409.905 L264.759 409.442 L261.517 408.801 L258.276 407.995 L255.035 407.037  Z" fill="#3da44d" fill-rule="evenodd" fill-opacity="0.1"/>
<polyline clip-path="url(#clip132)" style="stroke:#3da44d; stroke-linecap:round; stroke-linejoin:round; stroke-width:8; stroke-opacity:1; fill:none" points="255.035,631.3 258.276,629.661 261.517,628.004 264.759,626.329 268,624.636 271.242,622.924 274.483,621.194 277.724,619.444 280.966,617.676 284.207,615.891 287.449,614.089 290.69,612.271 293.931,610.439 297.173,608.594 300.414,606.737 303.655,604.87 306.897,602.993 310.138,601.107 313.38,599.215 316.621,597.316 319.862,595.412 323.104,593.503 326.345,591.589 329.587,589.668 332.828,587.741 336.069,585.807 339.311,583.865 342.552,581.915 345.793,579.957 349.035,577.991 352.276,576.015 355.518,574.03 358.759,572.035 362,570.031 365.242,568.015 368.483,565.989 371.725,563.952 374.966,561.904 378.207,559.844 381.449,557.772 384.69,555.687 387.931,553.591 391.173,551.481 394.414,549.359 397.656,547.223 400.897,545.074 404.138,542.912 407.38,540.735 410.621,538.545 413.863,536.34 417.104,534.121 420.345,531.888 423.587,529.64 426.828,527.377 430.069,525.1 433.311,522.808 436.552,520.5 439.794,518.178 443.035,515.84 446.276,513.487 449.518,511.119 452.759,508.736 456.001,506.337 459.242,503.923 462.483,501.494 465.725,499.049 468.966,496.589 472.208,494.115 475.449,491.625 478.69,489.12 481.932,486.6 485.173,484.066 488.414,481.516 491.656,478.953 494.897,476.375 498.139,473.783 501.38,471.177 504.621,468.557 507.863,465.924 511.104,463.277 514.346,460.618 517.587,457.946 520.828,455.261 524.07,452.565 527.311,449.857 530.552,447.137 533.794,444.407 537.035,441.666 540.277,438.915 543.518,436.155 546.759,433.385 550.001,430.606 553.242,427.82 556.484,425.026 559.725,422.225 562.966,419.418 566.208,416.604 569.449,413.786 572.69,410.964 575.932,408.137 579.173,405.308 582.415,402.477 585.656,399.644 588.897,396.811 592.139,393.978 595.38,391.146 598.622,388.317 601.863,385.49 605.104,382.668 608.346,379.851 611.587,377.04 614.828,374.236 618.07,371.441 621.311,368.656 624.553,365.882 627.794,363.12 631.035,360.371 634.277,357.638 637.518,354.921 640.76,352.221 644.001,349.541 647.242,346.881 650.484,344.244 653.725,341.631 656.966,339.044 660.208,336.485 663.449,333.954 666.691,331.455 669.932,328.989 673.173,326.558 676.415,324.164 679.656,321.81 682.898,319.496 686.139,317.227 689.38,315.003 692.622,312.828 695.863,310.703 699.104,308.631 702.346,306.615 705.587,304.658 708.829,302.762 712.07,300.929 715.311,299.164 718.553,297.467 721.794,295.842 725.036,294.29 728.277,292.813 731.518,291.415 734.76,290.098 738.001,288.865 741.242,287.718 744.484,286.659 747.725,285.687 750.967,284.799 754.208,283.992 757.449,283.266 760.691,282.616 763.932,282.042 767.174,281.542 770.415,281.113 773.656,280.753 776.898,280.462 780.139,280.237 783.381,280.076 786.622,279.979 789.863,279.944 793.105,279.969 796.346,280.054 799.587,280.197 802.829,280.397 806.07,280.653 809.312,280.964 812.553,281.33 815.794,281.749 819.036,282.221 822.277,282.745 825.519,283.321 828.76,283.948 832.001,284.626 835.243,285.355 838.484,286.134 841.725,286.963 844.967,287.841 848.208,288.77 851.45,289.749 854.691,290.778 857.932,291.857 861.174,292.986 864.415,294.167 867.657,295.398 870.898,296.682 874.139,298.017 877.381,299.406 880.622,300.848 883.863,302.344 887.105,303.896 890.346,305.503 893.588,307.164 896.829,308.879 900.07,310.645 903.312,312.462 906.553,314.327 909.795,316.24 913.036,318.199 916.277,320.204 919.519,322.253 922.76,324.346 926.001,326.481 929.243,328.658 932.484,330.875 935.726,333.133 938.967,335.431 942.208,337.767 945.45,340.142 948.691,342.555 951.933,345.006 955.174,347.494 958.415,350.019 961.657,352.581 964.898,355.179 968.139,357.814 971.381,360.486 974.622,363.194 977.864,365.938 981.105,368.72 984.346,371.538 987.588,374.394 990.829,377.287 994.071,380.218 997.312,383.187 1000.55,386.195 1003.79,389.242 1007.04,392.329 1010.28,395.456 1013.52,398.62 1016.76,401.816 1020,405.043 1023.24,408.3 1026.48,411.584 1029.73,414.896 1032.97,418.232 1036.21,421.592 1039.45,424.974 1042.69,428.378 1045.93,431.802 1049.17,435.245 1052.42,438.705 1055.66,442.182 1058.9,445.675 1062.14,449.183 1065.38,452.704 1068.62,456.238 1071.86,459.784 1075.11,463.341 1078.35,466.908 1081.59,470.485 1084.83,474.07 1088.07,477.663 1091.31,481.263 1094.55,484.87 1097.79,488.483 1101.04,492.101 1104.28,495.725 1107.52,499.354 1110.76,502.987 1114,506.625 1117.24,510.267 1120.48,513.913 1123.73,517.563 1126.97,521.217 1130.21,524.874 1133.45,528.535 1136.69,532.2 1139.93,535.868 1143.17,539.54 1146.42,543.215 1149.66,546.893 1152.9,550.576 1156.14,554.261 1159.38,557.951 1162.62,561.644 1165.86,565.341 1169.11,569.043 1172.35,572.749 1175.59,576.459 1178.83,580.174 1182.07,583.894 1185.31,587.619 1188.55,591.349 1191.8,595.085 1195.04,598.827 1198.28,602.576 1201.52,606.331 1204.76,610.094 1208,613.863 1211.24,617.641 1214.48,621.427 1217.73,625.222 1220.97,629.025 1224.21,632.839 1227.45,636.662 1230.69,640.496 1233.93,644.341 1237.17,648.198 1240.42,652.067 1243.66,655.949 1246.9,659.844 1250.14,663.754 1253.38,667.677 1256.62,671.617 1259.86,675.572 1263.11,679.543 1266.35,683.532 1269.59,687.539 1272.83,691.565 1276.07,695.61 1279.31,699.675 1282.55,703.761 1285.8,707.869 1289.04,712 1292.28,716.155 1295.52,720.333 1298.76,724.537 1302,728.767 1305.24,733.024 1308.48,737.309 1311.73,741.623 1314.97,745.966 1318.21,750.338 1321.45,754.738 1324.69,759.163 1327.93,763.614 1331.17,768.089 1334.42,772.586 1337.66,777.105 1340.9,781.645 1344.14,786.203 1347.38,790.781 1350.62,795.375 1353.86,799.986 1357.11,804.611 1360.35,809.251 1363.59,813.903 1366.83,818.567 1370.07,823.242 1373.31,827.927 1376.55,832.62 1379.8,837.321 1383.04,842.028 1386.28,846.741 1389.52,851.458 1392.76,856.179 1396,860.901 1399.24,865.625 1402.49,870.349 1405.73,875.071 1408.97,879.792 1412.21,884.509 1415.45,889.221 1418.69,893.928 1421.93,898.628 1425.17,903.32 1428.42,908.003 1431.66,912.676 1434.9,917.336 1438.14,921.984 1441.38,926.617 1444.62,931.235 1447.86,935.836 1451.11,940.419 1454.35,944.982 1457.59,949.524 1460.83,954.043 1464.07,958.539 1467.31,963.009 1470.55,967.452 1473.8,971.866 1477.04,976.25 1480.28,980.605 1483.52,984.93 1486.76,989.226 1490,993.492 1493.24,997.73 1496.49,1001.94 1499.73,1006.12 1502.97,1010.27 1506.21,1014.4 1509.45,1018.49 1512.69,1022.56 1515.93,1026.6 1519.18,1030.61 1522.42,1034.6 1525.66,1038.55 1528.9,1042.47 1532.14,1046.37 1535.38,1050.24 1538.62,1054.07 1541.86,1057.88 1545.11,1061.66 1548.35,1065.4 1551.59,1069.11 1554.83,1072.79 1558.07,1076.44 1561.31,1080.05 1564.55,1083.63 1567.8,1087.18 1571.04,1090.69 1574.28,1094.16 1577.52,1097.59 1580.76,1100.99 1584,1104.34 1587.24,1107.66 1590.49,1110.93 1593.73,1114.16 1596.97,1117.35 1600.21,1120.49 1603.45,1123.58 1606.69,1126.63 1609.93,1129.62 1613.18,1132.56 1616.42,1135.45 1619.66,1138.29 1622.9,1141.07 1626.14,1143.79 1629.38,1146.47 1632.62,1149.1 1635.86,1151.69 1639.11,1154.23 1642.35,1156.74 1645.59,1159.21 1648.83,1161.65 1652.07,1164.06 1655.31,1166.44 1658.55,1168.8 1661.8,1171.14 1665.04,1173.46 1668.28,1175.76 1671.52,1178.05 1674.76,1180.33 1678,1182.6 1681.24,1184.85 1684.49,1187.09 1687.73,1189.32 1690.97,1191.52 1694.21,1193.72 1697.45,1195.89 1700.69,1198.04 1703.93,1200.18 1707.18,1202.29 1710.42,1204.38 1713.66,1206.45 1716.9,1208.49 1720.14,1210.5 1723.38,1212.49 1726.62,1214.44 1729.87,1216.36 1733.11,1218.25 1736.35,1220.1 1739.59,1221.91 1742.83,1223.67 1746.07,1225.38 1749.31,1227.03 1752.55,1228.62 1755.8,1230.14 1759.04,1231.59 1762.28,1232.98 1765.52,1234.3 1768.76,1235.54 1772,1236.72 1775.24,1237.82 1778.49,1238.85 1781.73,1239.81 1784.97,1240.69 1788.21,1241.49 1791.45,1242.22 1794.69,1242.86 1797.93,1243.42 1801.18,1243.9 1804.42,1244.29 1807.66,1244.6 1810.9,1244.81 1814.14,1244.94 1817.38,1244.97 1820.62,1244.9 1823.87,1244.74 1827.11,1244.48 1830.35,1244.12 1833.59,1243.68 1836.83,1243.15 1840.07,1242.54 1843.31,1241.85 1846.55,1241.08 1849.8,1240.24 1853.04,1239.33 1856.28,1238.34 1859.52,1237.29 1862.76,1236.18 1866,1235 1869.24,1233.76 1872.49,1232.46 1875.73,1231.11 1878.97,1229.71 1882.21,1228.25 1885.45,1226.74 1888.69,1225.18 1891.93,1223.58 1895.18,1221.93 1898.42,1220.24 1901.66,1218.5 1904.9,1216.73 1908.14,1214.91 1911.38,1213.06 1914.62,1211.17 1917.87,1209.24 1921.11,1207.28 1924.35,1205.29 1927.59,1203.26 1930.83,1201.2 1934.07,1199.11 1937.31,1196.99 1940.56,1194.84 1943.8,1192.66 1947.04,1190.46 1950.28,1188.22 1953.52,1185.96 1956.76,1183.67 1960,1181.36 1963.24,1179.02 1966.49,1176.65 1969.73,1174.26 1972.97,1171.84 1976.21,1169.4 1979.45,1166.93 1982.69,1164.44 1985.93,1161.93 1989.18,1159.38 1992.42,1156.82 1995.66,1154.22 1998.9,1151.61 2002.14,1148.96 2005.38,1146.29 2008.62,1143.6 2011.87,1140.87 2015.11,1138.12 2018.35,1135.34 2021.59,1132.53 2024.83,1129.69 2028.07,1126.83 2031.31,1123.93 2034.56,1121 2037.8,1118.04 2041.04,1115.04 2044.28,1112.01 2047.52,1108.95 2050.76,1105.85 2054,1102.71 2057.24,1099.53 2060.49,1096.32 2063.73,1093.06 2066.97,1089.77 2070.21,1086.45 2073.45,1083.09 2076.69,1079.7 2079.93,1076.28 2083.18,1072.84 2086.42,1069.37 2089.66,1065.87 2092.9,1062.35 2096.14,1058.8 2099.38,1055.23 2102.62,1051.63 2105.87,1047.99 2109.11,1044.33 2112.35,1040.63 2115.59,1036.89 2118.83,1033.13 2122.07,1029.34 2125.31,1025.52 2128.56,1021.68 2131.8,1017.81 2135.04,1013.93 2138.28,1010.03 2141.52,1006.11 2144.76,1002.18 2148,998.241 2151.25,994.289 2154.49,990.329 2157.73,986.364 2160.97,982.394 2164.21,978.422 2167.45,974.449 2170.69,970.478 2173.93,966.511 2177.18,962.551 2180.42,958.601 2183.66,954.661 2186.9,950.736 2190.14,946.827 2193.38,942.936 2196.62,939.067 2199.87,935.22 2203.11,931.4 2206.35,927.607 2209.59,923.845 2212.83,920.115 2216.07,916.42 2219.31,912.763 2222.56,909.146 2225.8,905.57 2229.04,902.04 2232.28,898.556 2235.52,895.122 2238.76,891.739 2242,888.411 2245.25,885.139 2248.49,881.927 2251.73,878.776 2254.97,875.69 2258.21,872.67 2261.45,869.72 2264.69,866.837 2267.94,864.021 2271.18,861.27 2274.42,858.583 2277.66,855.958 2280.9,853.394 2284.14,850.89 2287.38,848.444 2290.62,846.055 "/>
<polyline clip-path="url(#clip132)" style="stroke:#c271d2; stroke-linecap:round; stroke-linejoin:round; stroke-width:12; stroke-opacity:1; fill:none" points="255.035,782.564 362.225,727.799 469.416,700.777 576.607,606.358 683.797,464.104 790.988,408.64 898.179,435.516 1005.37,501.35 1112.56,638.98 1219.75,786.82 1326.94,911.653 1434.13,1061.53 1541.32,1192.83 1648.51,1271.17 1755.7,1334.7 1862.89,1376.64 1970.09,1322.24 2077.28,1184.17 2184.47,1068.96 2291.66,1012.34 "/>
<polyline clip-path="url(#clip132)" style="stroke:#ac8d18; stroke-linecap:round; stroke-linejoin:round; stroke-width:12; stroke-opacity:1; fill:none" points="255.035,480.036 362.225,411.983 469.416,291.717 576.607,208.74 683.797,173.62 790.988,151.252 898.179,183.701 1005.37,280.123 1112.56,371.032 1219.75,468.373 1326.94,612.845 1434.13,770.934 1541.32,921.658 1648.51,1051.66 1755.7,1125.49 1862.89,1095.62 1970.09,1025.75 2077.28,974.006 2184.47,838.404 2291.66,678.273 "/>
<path clip-path="url(#clip130)" d="M1953.46 406.258 L2280.8 406.258 L2280.8 95.2176 L1953.46 95.2176  Z" fill="#ffffff" fill-rule="evenodd" fill-opacity="1"/>
<polyline clip-path="url(#clip130)" style="stroke:#000000; stroke-linecap:round; stroke-linejoin:round; stroke-width:4; stroke-opacity:1; fill:none" points="1953.46,406.258 2280.8,406.258 2280.8,95.2176 1953.46,95.2176 1953.46,406.258 "/>
<polyline clip-path="url(#clip130)" style="stroke:#009af9; stroke-linecap:round; stroke-linejoin:round; stroke-width:4; stroke-opacity:1; fill:none" points="1977.44,147.058 2121.36,147.058 "/>
<path clip-path="url(#clip130)" d="M2152.76 131.051 L2152.76 138.412 L2161.53 138.412 L2161.53 141.722 L2152.76 141.722 L2152.76 155.796 Q2152.76 158.967 2153.61 159.87 Q2154.49 160.773 2157.16 160.773 L2161.53 160.773 L2161.53 164.338 L2157.16 164.338 Q2152.23 164.338 2150.35 162.509 Q2148.48 160.657 2148.48 155.796 L2148.48 141.722 L2145.35 141.722 L2145.35 138.412 L2148.48 138.412 L2148.48 131.051 L2152.76 131.051 Z" fill="#000000" fill-rule="nonzero" fill-opacity="1" /><path clip-path="url(#clip130)" d="M2182.16 142.393 Q2181.44 141.977 2180.58 141.791 Q2179.75 141.583 2178.73 141.583 Q2175.12 141.583 2173.17 143.944 Q2171.25 146.282 2171.25 150.68 L2171.25 164.338 L2166.97 164.338 L2166.97 138.412 L2171.25 138.412 L2171.25 142.44 Q2172.6 140.078 2174.75 138.944 Q2176.9 137.787 2179.98 137.787 Q2180.42 137.787 2180.95 137.856 Q2181.48 137.903 2182.13 138.018 L2182.16 142.393 Z" fill="#000000" fill-rule="nonzero" fill-opacity="1" /><path clip-path="url(#clip130)" d="M2186.18 154.106 L2186.18 138.412 L2190.44 138.412 L2190.44 153.944 Q2190.44 157.625 2191.88 159.476 Q2193.31 161.305 2196.18 161.305 Q2199.63 161.305 2201.62 159.106 Q2203.64 156.907 2203.64 153.111 L2203.64 138.412 L2207.9 138.412 L2207.9 164.338 L2203.64 164.338 L2203.64 160.356 Q2202.09 162.717 2200.03 163.875 Q2197.99 165.009 2195.28 165.009 Q2190.81 165.009 2188.5 162.231 Q2186.18 159.453 2186.18 154.106 M2196.9 137.787 L2196.9 137.787 Z" fill="#000000" fill-rule="nonzero" fill-opacity="1" /><path clip-path="url(#clip130)" d="M2220.88 131.051 L2220.88 138.412 L2229.66 138.412 L2229.66 141.722 L2220.88 141.722 L2220.88 155.796 Q2220.88 158.967 2221.74 159.87 Q2222.62 160.773 2225.28 160.773 L2229.66 160.773 L2229.66 164.338 L2225.28 164.338 Q2220.35 164.338 2218.48 162.509 Q2216.6 160.657 2216.6 155.796 L2216.6 141.722 L2213.48 141.722 L2213.48 138.412 L2216.6 138.412 L2216.6 131.051 L2220.88 131.051 Z" fill="#000000" fill-rule="nonzero" fill-opacity="1" /><path clip-path="url(#clip130)" d="M2256.81 148.689 L2256.81 164.338 L2252.55 164.338 L2252.55 148.828 Q2252.55 145.148 2251.11 143.319 Q2249.68 141.49 2246.81 141.49 Q2243.36 141.49 2241.37 143.69 Q2239.38 145.889 2239.38 149.685 L2239.38 164.338 L2235.1 164.338 L2235.1 128.319 L2239.38 128.319 L2239.38 142.44 Q2240.91 140.102 2242.97 138.944 Q2245.05 137.787 2247.76 137.787 Q2252.23 137.787 2254.52 140.565 Q2256.81 143.319 2256.81 148.689 Z" fill="#000000" fill-rule="nonzero" fill-opacity="1" /><circle clip-path="url(#clip130)" cx="2049.4" cy="198.898" r="20.48" fill="#e26f46" fill-rule="evenodd" fill-opacity="1" stroke="#000000" stroke-opacity="1" stroke-width="4.55111"/>
<path clip-path="url(#clip130)" d="M2164.26 194.187 L2164.26 180.159 L2168.52 180.159 L2168.52 216.178 L2164.26 216.178 L2164.26 212.289 Q2162.92 214.603 2160.86 215.738 Q2158.82 216.849 2155.95 216.849 Q2151.25 216.849 2148.29 213.099 Q2145.35 209.349 2145.35 203.238 Q2145.35 197.127 2148.29 193.377 Q2151.25 189.627 2155.95 189.627 Q2158.82 189.627 2160.86 190.761 Q2162.92 191.872 2164.26 194.187 M2149.75 203.238 Q2149.75 207.937 2151.67 210.622 Q2153.61 213.284 2156.99 213.284 Q2160.37 213.284 2162.32 210.622 Q2164.26 207.937 2164.26 203.238 Q2164.26 198.539 2162.32 195.877 Q2160.37 193.192 2156.99 193.192 Q2153.61 193.192 2151.67 195.877 Q2149.75 198.539 2149.75 203.238 Z" fill="#000000" fill-rule="nonzero" fill-opacity="1" /><path clip-path="url(#clip130)" d="M2189.08 203.145 Q2183.92 203.145 2181.92 204.326 Q2179.93 205.506 2179.93 208.354 Q2179.93 210.622 2181.42 211.965 Q2182.92 213.284 2185.49 213.284 Q2189.03 213.284 2191.16 210.784 Q2193.31 208.261 2193.31 204.094 L2193.31 203.145 L2189.08 203.145 M2197.57 201.386 L2197.57 216.178 L2193.31 216.178 L2193.31 212.242 Q2191.85 214.603 2189.68 215.738 Q2187.5 216.849 2184.36 216.849 Q2180.37 216.849 2178.01 214.627 Q2175.67 212.381 2175.67 208.631 Q2175.67 204.256 2178.59 202.034 Q2181.53 199.812 2187.34 199.812 L2193.31 199.812 L2193.31 199.395 Q2193.31 196.455 2191.37 194.858 Q2189.45 193.238 2185.95 193.238 Q2183.73 193.238 2181.62 193.77 Q2179.52 194.303 2177.57 195.367 L2177.57 191.432 Q2179.91 190.53 2182.11 190.09 Q2184.31 189.627 2186.39 189.627 Q2192.02 189.627 2194.79 192.543 Q2197.57 195.46 2197.57 201.386 Z" fill="#000000" fill-rule="nonzero" fill-opacity="1" /><path clip-path="url(#clip130)" d="M2210.56 182.891 L2210.56 190.252 L2219.33 190.252 L2219.33 193.562 L2210.56 193.562 L2210.56 207.636 Q2210.56 210.807 2211.42 211.71 Q2212.29 212.613 2214.96 212.613 L2219.33 212.613 L2219.33 216.178 L2214.96 216.178 Q2210.03 216.178 2208.15 214.349 Q2206.28 212.497 2206.28 207.636 L2206.28 193.562 L2203.15 193.562 L2203.15 190.252 L2206.28 190.252 L2206.28 182.891 L2210.56 182.891 Z" fill="#000000" fill-rule="nonzero" fill-opacity="1" /><path clip-path="url(#clip130)" d="M2236.72 203.145 Q2231.55 203.145 2229.56 204.326 Q2227.57 205.506 2227.57 208.354 Q2227.57 210.622 2229.05 211.965 Q2230.56 213.284 2233.13 213.284 Q2236.67 213.284 2238.8 210.784 Q2240.95 208.261 2240.95 204.094 L2240.95 203.145 L2236.72 203.145 M2245.21 201.386 L2245.21 216.178 L2240.95 216.178 L2240.95 212.242 Q2239.49 214.603 2237.32 215.738 Q2235.14 216.849 2231.99 216.849 Q2228.01 216.849 2225.65 214.627 Q2223.31 212.381 2223.31 208.631 Q2223.31 204.256 2226.23 202.034 Q2229.17 199.812 2234.98 199.812 L2240.95 199.812 L2240.95 199.395 Q2240.95 196.455 2239.01 194.858 Q2237.09 193.238 2233.59 193.238 Q2231.37 193.238 2229.26 193.77 Q2227.16 194.303 2225.21 195.367 L2225.21 191.432 Q2227.55 190.53 2229.75 190.09 Q2231.95 189.627 2234.03 189.627 Q2239.66 189.627 2242.43 192.543 Q2245.21 195.46 2245.21 201.386 Z" fill="#000000" fill-rule="nonzero" fill-opacity="1" /><polyline clip-path="url(#clip130)" style="stroke:#3da44d; stroke-linecap:round; stroke-linejoin:round; stroke-width:8; stroke-opacity:1; fill:none" points="1977.44,250.738 2121.36,250.738 "/>
<path clip-path="url(#clip130)" d="M2170.91 263.087 L2170.91 253.805 L2163.27 253.805 L2163.27 249.962 L2175.54 249.962 L2175.54 264.8 Q2172.83 266.721 2169.56 267.717 Q2166.3 268.689 2162.6 268.689 Q2154.49 268.689 2149.91 263.967 Q2145.35 259.221 2145.35 250.772 Q2145.35 242.3 2149.91 237.578 Q2154.49 232.833 2162.6 232.833 Q2165.98 232.833 2169.01 233.666 Q2172.06 234.499 2174.63 236.12 L2174.63 241.096 Q2172.04 238.897 2169.12 237.786 Q2166.21 236.675 2162.99 236.675 Q2156.65 236.675 2153.45 240.217 Q2150.28 243.758 2150.28 250.772 Q2150.28 257.763 2153.45 261.305 Q2156.65 264.846 2162.99 264.846 Q2165.47 264.846 2167.41 264.43 Q2169.36 263.99 2170.91 263.087 Z" fill="#000000" fill-rule="nonzero" fill-opacity="1" /><path clip-path="url(#clip130)" d="M2188.75 237.3 L2188.75 250.286 L2194.63 250.286 Q2197.9 250.286 2199.68 248.596 Q2201.46 246.907 2201.46 243.782 Q2201.46 240.68 2199.68 238.99 Q2197.9 237.3 2194.63 237.3 L2188.75 237.3 M2184.08 233.458 L2194.63 233.458 Q2200.44 233.458 2203.41 236.096 Q2206.39 238.712 2206.39 243.782 Q2206.39 248.897 2203.41 251.513 Q2200.44 254.129 2194.63 254.129 L2188.75 254.129 L2188.75 268.018 L2184.08 268.018 L2184.08 233.458 Z" fill="#000000" fill-rule="nonzero" fill-opacity="1" /><polyline clip-path="url(#clip130)" style="stroke:#c271d2; stroke-linecap:round; stroke-linejoin:round; stroke-width:12; stroke-opacity:1; fill:none" points="1977.44,302.578 2121.36,302.578 "/>
<path clip-path="url(#clip130)" d="M2150.03 289.14 L2150.03 302.126 L2155.91 302.126 Q2159.17 302.126 2160.95 300.436 Q2162.73 298.747 2162.73 295.622 Q2162.73 292.52 2160.95 290.83 Q2159.17 289.14 2155.91 289.14 L2150.03 289.14 M2145.35 285.298 L2155.91 285.298 Q2161.72 285.298 2164.68 287.936 Q2167.67 290.552 2167.67 295.622 Q2167.67 300.737 2164.68 303.353 Q2161.72 305.969 2155.91 305.969 L2150.03 305.969 L2150.03 319.858 L2145.35 319.858 L2145.35 285.298 Z" fill="#000000" fill-rule="nonzero" fill-opacity="1" /><path clip-path="url(#clip130)" d="M2178.38 315.922 L2194.7 315.922 L2194.7 319.858 L2172.76 319.858 L2172.76 315.922 Q2175.42 313.168 2180 308.538 Q2184.61 303.885 2185.79 302.543 Q2188.04 300.02 2188.92 298.284 Q2189.82 296.524 2189.82 294.835 Q2189.82 292.08 2187.87 290.344 Q2185.95 288.608 2182.85 288.608 Q2180.65 288.608 2178.2 289.372 Q2175.77 290.135 2172.99 291.686 L2172.99 286.964 Q2175.81 285.83 2178.27 285.251 Q2180.72 284.673 2182.76 284.673 Q2188.13 284.673 2191.32 287.358 Q2194.52 290.043 2194.52 294.534 Q2194.52 296.663 2193.71 298.585 Q2192.92 300.483 2190.81 303.075 Q2190.23 303.747 2187.13 306.964 Q2184.03 310.159 2178.38 315.922 Z" fill="#000000" fill-rule="nonzero" fill-opacity="1" /><path clip-path="url(#clip130)" d="M2204.56 285.298 L2222.92 285.298 L2222.92 289.233 L2208.85 289.233 L2208.85 297.705 Q2209.86 297.358 2210.88 297.196 Q2211.9 297.01 2212.92 297.01 Q2218.71 297.01 2222.09 300.182 Q2225.47 303.353 2225.47 308.77 Q2225.47 314.348 2221.99 317.45 Q2218.52 320.529 2212.2 320.529 Q2210.03 320.529 2207.76 320.158 Q2205.51 319.788 2203.1 319.047 L2203.1 314.348 Q2205.19 315.483 2207.41 316.038 Q2209.63 316.594 2212.11 316.594 Q2216.11 316.594 2218.45 314.487 Q2220.79 312.381 2220.79 308.77 Q2220.79 305.159 2218.45 303.052 Q2216.11 300.946 2212.11 300.946 Q2210.23 300.946 2208.36 301.362 Q2206.51 301.779 2204.56 302.659 L2204.56 285.298 Z" fill="#000000" fill-rule="nonzero" fill-opacity="1" /><polyline clip-path="url(#clip130)" style="stroke:#ac8d18; stroke-linecap:round; stroke-linejoin:round; stroke-width:12; stroke-opacity:1; fill:none" points="1977.44,354.418 2121.36,354.418 "/>
<path clip-path="url(#clip130)" d="M2150.03 340.98 L2150.03 353.966 L2155.91 353.966 Q2159.17 353.966 2160.95 352.276 Q2162.73 350.587 2162.73 347.462 Q2162.73 344.36 2160.95 342.67 Q2159.17 340.98 2155.91 340.98 L2150.03 340.98 M2145.35 337.138 L2155.91 337.138 Q2161.72 337.138 2164.68 339.776 Q2167.67 342.392 2167.67 347.462 Q2167.67 352.577 2164.68 355.193 Q2161.72 357.809 2155.91 357.809 L2150.03 357.809 L2150.03 371.698 L2145.35 371.698 L2145.35 337.138 Z" fill="#000000" fill-rule="nonzero" fill-opacity="1" /><path clip-path="url(#clip130)" d="M2173.17 337.138 L2195.4 337.138 L2195.4 339.128 L2182.85 371.698 L2177.97 371.698 L2189.77 341.073 L2173.17 341.073 L2173.17 337.138 Z" fill="#000000" fill-rule="nonzero" fill-opacity="1" /><path clip-path="url(#clip130)" d="M2204.56 337.138 L2222.92 337.138 L2222.92 341.073 L2208.85 341.073 L2208.85 349.545 Q2209.86 349.198 2210.88 349.036 Q2211.9 348.85 2212.92 348.85 Q2218.71 348.85 2222.09 352.022 Q2225.47 355.193 2225.47 360.61 Q2225.47 366.188 2221.99 369.29 Q2218.52 372.369 2212.2 372.369 Q2210.03 372.369 2207.76 371.998 Q2205.51 371.628 2203.1 370.887 L2203.1 366.188 Q2205.19 367.323 2207.41 367.878 Q2209.63 368.434 2212.11 368.434 Q2216.11 368.434 2218.45 366.327 Q2220.79 364.221 2220.79 360.61 Q2220.79 356.999 2218.45 354.892 Q2216.11 352.786 2212.11 352.786 Q2210.23 352.786 2208.36 353.202 Q2206.51 353.619 2204.56 354.499 L2204.56 337.138 Z" fill="#000000" fill-rule="nonzero" fill-opacity="1" /></svg>
