<?xml version="1.0" encoding="utf-8"?>
<svg xmlns="http://www.w3.org/2000/svg" xmlns:xlink="http://www.w3.org/1999/xlink" width="600" height="400" viewBox="0 0 2400 1600">
<defs>
  <clipPath id="clip860">
    <rect x="0" y="0" width="2400" height="1600"/>
  </clipPath>
</defs>
<path clip-path="url(#clip860)" d="M0 1600 L2400 1600 L2400 0 L0 0  Z" fill="#ffffff" fill-rule="evenodd" fill-opacity="1"/>
<defs>
  <clipPath id="clip861">
    <rect x="480" y="0" width="1681" height="1600"/>
  </clipPath>
</defs>
<path clip-path="url(#clip860)" d="M193.936 1486.45 L2352.76 1486.45 L2352.76 47.2441 L193.936 47.2441  Z" fill="#ffffff" fill-rule="evenodd" fill-opacity="1"/>
<defs>
  <clipPath id="clip862">
    <rect x="193" y="47" width="2160" height="1440"/>
  </clipPath>
</defs>
<polyline clip-path="url(#clip862)" style="stroke:#000000; stroke-linecap:round; stroke-linejoin:round; stroke-width:2; stroke-opacity:0.1; fill:none" points="255.035,1486.45 255.035,47.2441 "/>
<polyline clip-path="url(#clip862)" style="stroke:#000000; stroke-linecap:round; stroke-linejoin:round; stroke-width:2; stroke-opacity:0.1; fill:none" points="579.338,1486.45 579.338,47.2441 "/>
<polyline clip-path="url(#clip862)" style="stroke:#000000; stroke-linecap:round; stroke-linejoin:round; stroke-width:2; stroke-opacity:0.1; fill:none" points="903.641,1486.45 903.641,47.2441 "/>
<polyline clip-path="url(#clip862)" style="stroke:#000000; stroke-linecap:round; stroke-linejoin:round; stroke-width:2; stroke-opacity:0.1; fill:none" points="1227.94,1486.45 1227.94,47.2441 "/>
<polyline clip-path="url(#clip862)" style="stroke:#000000; stroke-linecap:round; stroke-linejoin:round; stroke-width:2; stroke-opacity:0.1; fill:none" points="1552.25,1486.45 1552.25,47.2441 "/>
<polyline clip-path="url(#clip862)" style="stroke:#000000; stroke-linecap:round; stroke-linejoin:round; stroke-width:2; stroke-opacity:0.1; fill:none" points="1876.55,1486.45 1876.55,47.2441 "/>
<polyline clip-path="url(#clip862)" style="stroke:#000000; stroke-linecap:round; stroke-linejoin:round; stroke-width:2; stroke-opacity:0.1; fill:none" points="2200.85,1486.45 2200.85,47.2441 "/>
<polyline clip-path="url(#clip862)" style="stroke:#000000; stroke-linecap:round; stroke-linejoin:round; stroke-width:2; stroke-opacity:0.1; fill:none" points="193.936,1368.22 2352.76,1368.22 "/>
<polyline clip-path="url(#clip862)" style="stroke:#000000; stroke-linecap:round; stroke-linejoin:round; stroke-width:2; stroke-opacity:0.1; fill:none" points="193.936,1054.95 2352.76,1054.95 "/>
<polyline clip-path="url(#clip862)" style="stroke:#000000; stroke-linecap:round; stroke-linejoin:round; stroke-width:2; stroke-opacity:0.1; fill:none" points="193.936,741.678 2352.76,741.678 "/>
<polyline clip-path="url(#clip862)" style="stroke:#000000; stroke-linecap:round; stroke-linejoin:round; stroke-width:2; stroke-opacity:0.1; fill:none" points="193.936,428.408 2352.76,428.408 "/>
<polyline clip-path="url(#clip862)" style="stroke:#000000; stroke-linecap:round; stroke-linejoin:round; stroke-width:2; stroke-opacity:0.1; fill:none" points="193.936,115.138 2352.76,115.138 "/>
<polyline clip-path="url(#clip860)" style="stroke:#000000; stroke-linecap:round; stroke-linejoin:round; stroke-width:4; stroke-opacity:1; fill:none" points="193.936,1486.45 2352.76,1486.45 "/>
<polyline clip-path="url(#clip860)" style="stroke:#000000; stroke-linecap:round; stroke-linejoin:round; stroke-width:4; stroke-opacity:1; fill:none" points="255.035,1486.45 255.035,1467.55 "/>
<polyline clip-path="url(#clip860)" style="stroke:#000000; stroke-linecap:round; stroke-linejoin:round; stroke-width:4; stroke-opacity:1; fill:none" points="579.338,1486.45 579.338,1467.55 "/>
<polyline clip-path="url(#clip860)" style="stroke:#000000; stroke-linecap:round; stroke-linejoin:round; stroke-width:4; stroke-opacity:1; fill:none" points="903.641,1486.45 903.641,1467.55 "/>
<polyline clip-path="url(#clip860)" style="stroke:#000000; stroke-linecap:round; stroke-linejoin:round; stroke-width:4; stroke-opacity:1; fill:none" points="1227.94,1486.45 1227.94,1467.55 "/>
<polyline clip-path="url(#clip860)" style="stroke:#000000; stroke-linecap:round; stroke-linejoin:round; stroke-width:4; stroke-opacity:1; fill:none" points="1552.25,1486.45 1552.25,1467.55 "/>
<polyline clip-path="url(#clip860)" style="stroke:#000000; stroke-linecap:round; stroke-linejoin:round; stroke-width:4; stroke-opacity:1; fill:none" points="1876.55,1486.45 1876.55,1467.55 "/>
<polyline clip-path="url(#clip860)" style="stroke:#000000; stroke-linecap:round; stroke-linejoin:round; stroke-width:4; stroke-opacity:1; fill:none" points="2200.85,1486.45 2200.85,1467.55 "/>
<path clip-path="url(#clip860)" d="M255.035 1517.37 Q251.424 1517.37 249.595 1520.93 Q247.789 1524.47 247.789 1531.6 Q247.789 1538.71 249.595 1542.27 Q251.424 1545.82 255.035 1545.82 Q258.669 1545.82 260.474 1542.27 Q262.303 1538.71 262.303 1531.6 Q262.303 1524.47 260.474 1520.93 Q258.669 1517.37 255.035 1517.37 M255.035 1513.66 Q260.845 1513.66 263.9 1518.27 Q266.979 1522.85 266.979 1531.6 Q266.979 1540.33 263.9 1544.94 Q260.845 1549.52 255.035 1549.52 Q249.225 1549.52 246.146 1544.94 Q243.09 1540.33 243.09 1531.6 Q243.09 1522.85 246.146 1518.27 Q249.225 1513.66 255.035 1513.66 Z" fill="#000000" fill-rule="nonzero" fill-opacity="1" /><path clip-path="url(#clip860)" d="M569.72 1544.91 L577.358 1544.91 L577.358 1518.55 L569.048 1520.21 L569.048 1515.95 L577.312 1514.29 L581.988 1514.29 L581.988 1544.91 L589.627 1544.91 L589.627 1548.85 L569.72 1548.85 L569.72 1544.91 Z" fill="#000000" fill-rule="nonzero" fill-opacity="1" /><path clip-path="url(#clip860)" d="M898.293 1544.91 L914.613 1544.91 L914.613 1548.85 L892.668 1548.85 L892.668 1544.91 Q895.33 1542.16 899.914 1537.53 Q904.52 1532.88 905.701 1531.53 Q907.946 1529.01 908.826 1527.27 Q909.729 1525.51 909.729 1523.82 Q909.729 1521.07 907.784 1519.33 Q905.863 1517.6 902.761 1517.6 Q900.562 1517.6 898.108 1518.36 Q895.678 1519.13 892.9 1520.68 L892.9 1515.95 Q895.724 1514.82 898.178 1514.24 Q900.631 1513.66 902.668 1513.66 Q908.039 1513.66 911.233 1516.35 Q914.428 1519.03 914.428 1523.52 Q914.428 1525.65 913.617 1527.57 Q912.83 1529.47 910.724 1532.07 Q910.145 1532.74 907.043 1535.95 Q903.942 1539.15 898.293 1544.91 Z" fill="#000000" fill-rule="nonzero" fill-opacity="1" /><path clip-path="url(#clip860)" d="M1232.19 1530.21 Q1235.55 1530.93 1237.42 1533.2 Q1239.32 1535.47 1239.32 1538.8 Q1239.32 1543.92 1235.8 1546.72 Q1232.28 1549.52 1225.8 1549.52 Q1223.63 1549.52 1221.31 1549.08 Q1219.02 1548.66 1216.57 1547.81 L1216.57 1543.29 Q1218.51 1544.43 1220.83 1545.01 Q1223.14 1545.58 1225.66 1545.58 Q1230.06 1545.58 1232.35 1543.85 Q1234.67 1542.11 1234.67 1538.8 Q1234.67 1535.75 1232.52 1534.03 Q1230.39 1532.3 1226.57 1532.3 L1222.54 1532.3 L1222.54 1528.45 L1226.75 1528.45 Q1230.2 1528.45 1232.03 1527.09 Q1233.86 1525.7 1233.86 1523.11 Q1233.86 1520.45 1231.96 1519.03 Q1230.08 1517.6 1226.57 1517.6 Q1224.64 1517.6 1222.45 1518.01 Q1220.25 1518.43 1217.61 1519.31 L1217.61 1515.14 Q1220.27 1514.4 1222.58 1514.03 Q1224.92 1513.66 1226.98 1513.66 Q1232.31 1513.66 1235.41 1516.09 Q1238.51 1518.5 1238.51 1522.62 Q1238.51 1525.49 1236.87 1527.48 Q1235.22 1529.45 1232.19 1530.21 Z" fill="#000000" fill-rule="nonzero" fill-opacity="1" /><path clip-path="url(#clip860)" d="M1555.26 1518.36 L1543.45 1536.81 L1555.26 1536.81 L1555.26 1518.36 M1554.03 1514.29 L1559.91 1514.29 L1559.91 1536.81 L1564.84 1536.81 L1564.84 1540.7 L1559.91 1540.7 L1559.91 1548.85 L1555.26 1548.85 L1555.26 1540.7 L1539.65 1540.7 L1539.65 1536.19 L1554.03 1514.29 Z" fill="#000000" fill-rule="nonzero" fill-opacity="1" /><path clip-path="url(#clip860)" d="M1866.83 1514.29 L1885.18 1514.29 L1885.18 1518.22 L1871.11 1518.22 L1871.11 1526.7 Q1872.13 1526.35 1873.15 1526.19 Q1874.17 1526 1875.18 1526 Q1880.97 1526 1884.35 1529.17 Q1887.73 1532.34 1887.73 1537.76 Q1887.73 1543.34 1884.26 1546.44 Q1880.79 1549.52 1874.47 1549.52 Q1872.29 1549.52 1870.02 1549.15 Q1867.78 1548.78 1865.37 1548.04 L1865.37 1543.34 Q1867.45 1544.47 1869.67 1545.03 Q1871.9 1545.58 1874.37 1545.58 Q1878.38 1545.58 1880.72 1543.48 Q1883.05 1541.37 1883.05 1537.76 Q1883.05 1534.15 1880.72 1532.04 Q1878.38 1529.94 1874.37 1529.94 Q1872.5 1529.94 1870.62 1530.35 Q1868.77 1530.77 1866.83 1531.65 L1866.83 1514.29 Z" fill="#000000" fill-rule="nonzero" fill-opacity="1" /><path clip-path="url(#clip860)" d="M2201.26 1529.7 Q2198.11 1529.7 2196.26 1531.86 Q2194.43 1534.01 2194.43 1537.76 Q2194.43 1541.49 2196.26 1543.66 Q2198.11 1545.82 2201.26 1545.82 Q2204.41 1545.82 2206.23 1543.66 Q2208.09 1541.49 2208.09 1537.76 Q2208.09 1534.01 2206.23 1531.86 Q2204.41 1529.7 2201.26 1529.7 M2210.54 1515.05 L2210.54 1519.31 Q2208.78 1518.48 2206.98 1518.04 Q2205.19 1517.6 2203.43 1517.6 Q2198.8 1517.6 2196.35 1520.72 Q2193.92 1523.85 2193.57 1530.17 Q2194.94 1528.15 2197 1527.09 Q2199.06 1526 2201.54 1526 Q2206.74 1526 2209.75 1529.17 Q2212.79 1532.32 2212.79 1537.76 Q2212.79 1543.08 2209.64 1546.3 Q2206.49 1549.52 2201.26 1549.52 Q2195.26 1549.52 2192.09 1544.94 Q2188.92 1540.33 2188.92 1531.6 Q2188.92 1523.41 2192.81 1518.55 Q2196.7 1513.66 2203.25 1513.66 Q2205.01 1513.66 2206.79 1514.01 Q2208.6 1514.36 2210.54 1515.05 Z" fill="#000000" fill-rule="nonzero" fill-opacity="1" /><polyline clip-path="url(#clip860)" style="stroke:#000000; stroke-linecap:round; stroke-linejoin:round; stroke-width:4; stroke-opacity:1; fill:none" points="193.936,1486.45 193.936,47.2441 "/>
<polyline clip-path="url(#clip860)" style="stroke:#000000; stroke-linecap:round; stroke-linejoin:round; stroke-width:4; stroke-opacity:1; fill:none" points="193.936,1368.22 212.834,1368.22 "/>
<polyline clip-path="url(#clip860)" style="stroke:#000000; stroke-linecap:round; stroke-linejoin:round; stroke-width:4; stroke-opacity:1; fill:none" points="193.936,1054.95 212.834,1054.95 "/>
<polyline clip-path="url(#clip860)" style="stroke:#000000; stroke-linecap:round; stroke-linejoin:round; stroke-width:4; stroke-opacity:1; fill:none" points="193.936,741.678 212.834,741.678 "/>
<polyline clip-path="url(#clip860)" style="stroke:#000000; stroke-linecap:round; stroke-linejoin:round; stroke-width:4; stroke-opacity:1; fill:none" points="193.936,428.408 212.834,428.408 "/>
<polyline clip-path="url(#clip860)" style="stroke:#000000; stroke-linecap:round; stroke-linejoin:round; stroke-width:4; stroke-opacity:1; fill:none" points="193.936,115.138 212.834,115.138 "/>
<path clip-path="url(#clip860)" d="M50.9921 1368.67 L80.6679 1368.67 L80.6679 1372.6 L50.9921 1372.6 L50.9921 1368.67 Z" fill="#000000" fill-rule="nonzero" fill-opacity="1" /><path clip-path="url(#clip860)" d="M91.5706 1381.56 L99.2095 1381.56 L99.2095 1355.2 L90.8993 1356.86 L90.8993 1352.6 L99.1632 1350.94 L103.839 1350.94 L103.839 1381.56 L111.478 1381.56 L111.478 1385.5 L91.5706 1385.5 L91.5706 1381.56 Z" fill="#000000" fill-rule="nonzero" fill-opacity="1" /><path clip-path="url(#clip860)" d="M120.922 1379.62 L125.807 1379.62 L125.807 1385.5 L120.922 1385.5 L120.922 1379.62 Z" fill="#000000" fill-rule="nonzero" fill-opacity="1" /><path clip-path="url(#clip860)" d="M145.992 1354.02 Q142.381 1354.02 140.552 1357.58 Q138.746 1361.12 138.746 1368.25 Q138.746 1375.36 140.552 1378.92 Q142.381 1382.46 145.992 1382.46 Q149.626 1382.46 151.431 1378.92 Q153.26 1375.36 153.26 1368.25 Q153.26 1361.12 151.431 1357.58 Q149.626 1354.02 145.992 1354.02 M145.992 1350.31 Q151.802 1350.31 154.857 1354.92 Q157.936 1359.5 157.936 1368.25 Q157.936 1376.98 154.857 1381.58 Q151.802 1386.17 145.992 1386.17 Q140.181 1386.17 137.103 1381.58 Q134.047 1376.98 134.047 1368.25 Q134.047 1359.5 137.103 1354.92 Q140.181 1350.31 145.992 1350.31 Z" fill="#000000" fill-rule="nonzero" fill-opacity="1" /><path clip-path="url(#clip860)" d="M51.9875 1055.4 L81.6633 1055.4 L81.6633 1059.33 L51.9875 1059.33 L51.9875 1055.4 Z" fill="#000000" fill-rule="nonzero" fill-opacity="1" /><path clip-path="url(#clip860)" d="M101.756 1040.75 Q98.1447 1040.75 96.316 1044.31 Q94.5104 1047.85 94.5104 1054.98 Q94.5104 1062.09 96.316 1065.65 Q98.1447 1069.19 101.756 1069.19 Q105.39 1069.19 107.196 1065.65 Q109.024 1062.09 109.024 1054.98 Q109.024 1047.85 107.196 1044.31 Q105.39 1040.75 101.756 1040.75 M101.756 1037.04 Q107.566 1037.04 110.621 1041.65 Q113.7 1046.23 113.7 1054.98 Q113.7 1063.71 110.621 1068.32 Q107.566 1072.9 101.756 1072.9 Q95.9456 1072.9 92.8669 1068.32 Q89.8114 1063.71 89.8114 1054.98 Q89.8114 1046.23 92.8669 1041.65 Q95.9456 1037.04 101.756 1037.04 Z" fill="#000000" fill-rule="nonzero" fill-opacity="1" /><path clip-path="url(#clip860)" d="M121.918 1066.35 L126.802 1066.35 L126.802 1072.23 L121.918 1072.23 L121.918 1066.35 Z" fill="#000000" fill-rule="nonzero" fill-opacity="1" /><path clip-path="url(#clip860)" d="M137.033 1037.67 L155.39 1037.67 L155.39 1041.6 L141.316 1041.6 L141.316 1050.07 Q142.334 1049.73 143.353 1049.57 Q144.371 1049.38 145.39 1049.38 Q151.177 1049.38 154.556 1052.55 Q157.936 1055.72 157.936 1061.14 Q157.936 1066.72 154.464 1069.82 Q150.992 1072.9 144.672 1072.9 Q142.496 1072.9 140.228 1072.53 Q137.982 1072.16 135.575 1071.42 L135.575 1066.72 Q137.658 1067.85 139.881 1068.41 Q142.103 1068.96 144.58 1068.96 Q148.584 1068.96 150.922 1066.86 Q153.26 1064.75 153.26 1061.14 Q153.26 1057.53 150.922 1055.42 Q148.584 1053.32 144.58 1053.32 Q142.705 1053.32 140.83 1053.73 Q138.978 1054.15 137.033 1055.03 L137.033 1037.67 Z" fill="#000000" fill-rule="nonzero" fill-opacity="1" /><path clip-path="url(#clip860)" d="M100.76 727.476 Q97.1493 727.476 95.3206 731.041 Q93.515 734.583 93.515 741.712 Q93.515 748.819 95.3206 752.384 Q97.1493 755.925 100.76 755.925 Q104.395 755.925 106.2 752.384 Q108.029 748.819 108.029 741.712 Q108.029 734.583 106.2 731.041 Q104.395 727.476 100.76 727.476 M100.76 723.773 Q106.571 723.773 109.626 728.379 Q112.705 732.962 112.705 741.712 Q112.705 750.439 109.626 755.046 Q106.571 759.629 100.76 759.629 Q94.9502 759.629 91.8715 755.046 Q88.816 750.439 88.816 741.712 Q88.816 732.962 91.8715 728.379 Q94.9502 723.773 100.76 723.773 Z" fill="#000000" fill-rule="nonzero" fill-opacity="1" /><path clip-path="url(#clip860)" d="M120.922 753.078 L125.807 753.078 L125.807 758.958 L120.922 758.958 L120.922 753.078 Z" fill="#000000" fill-rule="nonzero" fill-opacity="1" /><path clip-path="url(#clip860)" d="M145.992 727.476 Q142.381 727.476 140.552 731.041 Q138.746 734.583 138.746 741.712 Q138.746 748.819 140.552 752.384 Q142.381 755.925 145.992 755.925 Q149.626 755.925 151.431 752.384 Q153.26 748.819 153.26 741.712 Q153.26 734.583 151.431 731.041 Q149.626 727.476 145.992 727.476 M145.992 723.773 Q151.802 723.773 154.857 728.379 Q157.936 732.962 157.936 741.712 Q157.936 750.439 154.857 755.046 Q151.802 759.629 145.992 759.629 Q140.181 759.629 137.103 755.046 Q134.047 750.439 134.047 741.712 Q134.047 732.962 137.103 728.379 Q140.181 723.773 145.992 723.773 Z" fill="#000000" fill-rule="nonzero" fill-opacity="1" /><path clip-path="url(#clip860)" d="M101.756 414.207 Q98.1447 414.207 96.316 417.771 Q94.5104 421.313 94.5104 428.443 Q94.5104 435.549 96.316 439.114 Q98.1447 442.656 101.756 442.656 Q105.39 442.656 107.196 439.114 Q109.024 435.549 109.024 428.443 Q109.024 421.313 107.196 417.771 Q105.39 414.207 101.756 414.207 M101.756 410.503 Q107.566 410.503 110.621 415.109 Q113.7 419.693 113.7 428.443 Q113.7 437.169 110.621 441.776 Q107.566 446.359 101.756 446.359 Q95.9456 446.359 92.8669 441.776 Q89.8114 437.169 89.8114 428.443 Q89.8114 419.693 92.8669 415.109 Q95.9456 410.503 101.756 410.503 Z" fill="#000000" fill-rule="nonzero" fill-opacity="1" /><path clip-path="url(#clip860)" d="M121.918 439.808 L126.802 439.808 L126.802 445.688 L121.918 445.688 L121.918 439.808 Z" fill="#000000" fill-rule="nonzero" fill-opacity="1" /><path clip-path="url(#clip860)" d="M137.033 411.128 L155.39 411.128 L155.39 415.063 L141.316 415.063 L141.316 423.535 Q142.334 423.188 143.353 423.026 Q144.371 422.841 145.39 422.841 Q151.177 422.841 154.556 426.012 Q157.936 429.183 157.936 434.6 Q157.936 440.179 154.464 443.281 Q150.992 446.359 144.672 446.359 Q142.496 446.359 140.228 445.989 Q137.982 445.618 135.575 444.878 L135.575 440.179 Q137.658 441.313 139.881 441.869 Q142.103 442.424 144.58 442.424 Q148.584 442.424 150.922 440.318 Q153.26 438.211 153.26 434.6 Q153.26 430.989 150.922 428.882 Q148.584 426.776 144.58 426.776 Q142.705 426.776 140.83 427.193 Q138.978 427.609 137.033 428.489 L137.033 411.128 Z" fill="#000000" fill-rule="nonzero" fill-opacity="1" /><path clip-path="url(#clip860)" d="M91.5706 128.483 L99.2095 128.483 L99.2095 102.118 L90.8993 103.784 L90.8993 99.525 L99.1632 97.8583 L103.839 97.8583 L103.839 128.483 L111.478 128.483 L111.478 132.418 L91.5706 132.418 L91.5706 128.483 Z" fill="#000000" fill-rule="nonzero" fill-opacity="1" /><path clip-path="url(#clip860)" d="M120.922 126.539 L125.807 126.539 L125.807 132.418 L120.922 132.418 L120.922 126.539 Z" fill="#000000" fill-rule="nonzero" fill-opacity="1" /><path clip-path="url(#clip860)" d="M145.992 100.937 Q142.381 100.937 140.552 104.502 Q138.746 108.043 138.746 115.173 Q138.746 122.279 140.552 125.844 Q142.381 129.386 145.992 129.386 Q149.626 129.386 151.431 125.844 Q153.26 122.279 153.26 115.173 Q153.26 108.043 151.431 104.502 Q149.626 100.937 145.992 100.937 M145.992 97.2333 Q151.802 97.2333 154.857 101.84 Q157.936 106.423 157.936 115.173 Q157.936 123.9 154.857 128.506 Q151.802 133.09 145.992 133.09 Q140.181 133.09 137.103 128.506 Q134.047 123.9 134.047 115.173 Q134.047 106.423 137.103 101.84 Q140.181 97.2333 145.992 97.2333 Z" fill="#000000" fill-rule="nonzero" fill-opacity="1" /><polyline clip-path="url(#clip862)" style="stroke:#009af9; stroke-linecap:round; stroke-linejoin:round; stroke-width:4; stroke-opacity:1; fill:none" points="255.035,741.678 258.278,735.412 261.521,729.148 264.764,722.884 268.007,716.623 271.25,710.364 274.493,704.108 277.736,697.856 280.979,691.608 284.222,685.365 287.465,679.128 290.708,672.897 293.951,666.673 297.194,660.457 300.437,654.248 303.68,648.049 306.923,641.858 310.166,635.678 313.409,629.509 316.652,623.35 319.895,617.203 323.138,611.069 326.381,604.948 329.624,598.841 332.867,592.748 336.11,586.669 339.353,580.607 342.596,574.56 345.84,568.53 349.083,562.517 352.326,556.523 355.569,550.546 358.812,544.589 362.055,538.652 365.298,532.735 368.541,526.839 371.784,520.964 375.027,515.111 378.27,509.281 381.513,503.475 384.756,497.692 387.999,491.933 391.242,486.2 394.485,480.492 397.728,474.81 400.971,469.155 404.214,463.527 407.457,457.927 410.7,452.355 413.943,446.812 417.186,441.299 420.429,435.815 423.672,430.363 426.915,424.941 430.158,419.551 433.401,414.193 436.644,408.869 439.887,403.577 443.13,398.319 446.373,393.096 449.616,387.907 452.859,382.754 456.103,377.636 459.346,372.555 462.589,367.511 465.832,362.505 469.075,357.536 472.318,352.605 475.561,347.714 478.804,342.862 482.047,338.05 485.29,333.278 488.533,328.547 491.776,323.858 495.019,319.21 498.262,314.604 501.505,310.041 504.748,305.522 507.991,301.045 511.234,296.613 514.477,292.226 517.72,287.883 520.963,283.586 524.206,279.335 527.449,275.129 530.692,270.971 533.935,266.859 537.178,262.795 540.421,258.779 543.664,254.812 546.907,250.893 550.15,247.022 553.393,243.202 556.636,239.431 559.879,235.711 563.122,232.041 566.366,228.422 569.609,224.854 572.852,221.338 576.095,217.874 579.338,214.463 582.581,211.104 585.824,207.798 589.067,204.546 592.31,201.347 595.553,198.203 598.796,195.113 602.039,192.077 605.282,189.096 608.525,186.171 611.768,183.301 615.011,180.487 618.254,177.729 621.497,175.028 624.74,172.383 627.983,169.795 631.226,167.264 634.469,164.791 637.712,162.376 640.955,160.018 644.198,157.718 647.441,155.477 650.684,153.295 653.927,151.171 657.17,149.107 660.413,147.101 663.656,145.156 666.899,143.269 670.142,141.443 673.385,139.677 676.629,137.971 679.872,136.325 683.115,134.74 686.358,133.215 689.601,131.751 692.844,130.349 696.087,129.007 699.33,127.727 702.573,126.508 705.816,125.35 709.059,124.255 712.302,123.221 715.545,122.248 718.788,121.338 722.031,120.49 725.274,119.704 728.517,118.98 731.76,118.318 735.003,117.719 738.246,117.182 741.489,116.708 744.732,116.296 747.975,115.946 751.218,115.66 754.461,115.435 757.704,115.274 760.947,115.175 764.19,115.138 767.433,115.165 770.676,115.254 773.919,115.405 777.162,115.62 780.405,115.897 783.648,116.236 786.892,116.638 790.135,117.102 793.378,117.629 796.621,118.219 799.864,118.87 803.107,119.584 806.35,120.361 809.593,121.199 812.836,122.099 816.079,123.062 819.322,124.086 822.565,125.172 825.808,126.319 829.051,127.528 832.294,128.799 835.537,130.131 838.78,131.524 842.023,132.978 845.266,134.493 848.509,136.068 851.752,137.704 854.995,139.401 858.238,141.158 861.481,142.974 864.724,144.851 867.967,146.788 871.21,148.783 874.453,150.839 877.696,152.953 880.939,155.126 884.182,157.358 887.425,159.648 890.668,161.996 893.911,164.403 897.155,166.867 900.398,169.388 903.641,171.967 906.884,174.603 910.127,177.295 913.37,180.044 916.613,182.849 919.856,185.71 923.099,188.627 926.342,191.599 929.585,194.625 932.828,197.707 936.071,200.843 939.314,204.033 942.557,207.277 945.8,210.574 949.043,213.924 952.286,217.328 955.529,220.783 958.772,224.291 962.015,227.85 965.258,231.461 968.501,235.123 971.744,238.835 974.987,242.598 978.23,246.411 981.473,250.273 984.716,254.184 987.959,258.144 991.202,262.153 994.445,266.209 997.688,270.313 1000.93,274.464 1004.17,278.662 1007.42,282.906 1010.66,287.196 1013.9,291.531 1017.15,295.912 1020.39,300.337 1023.63,304.806 1026.88,309.318 1030.12,313.875 1033.36,318.473 1036.6,323.115 1039.85,327.798 1043.09,332.522 1046.33,337.287 1049.58,342.093 1052.82,346.939 1056.06,351.824 1059.31,356.748 1062.55,361.711 1065.79,366.711 1069.04,371.749 1072.28,376.825 1075.52,381.936 1078.76,387.084 1082.01,392.267 1085.25,397.485 1088.49,402.737 1091.74,408.024 1094.98,413.343 1098.22,418.696 1101.47,424.081 1104.71,429.497 1107.95,434.945 1111.19,440.423 1114.44,445.932 1117.68,451.47 1120.92,457.037 1124.17,462.633 1127.41,468.256 1130.65,473.907 1133.9,479.585 1137.14,485.289 1140.38,491.018 1143.62,496.773 1146.87,502.552 1150.11,508.355 1153.35,514.181 1156.6,520.03 1159.84,525.902 1163.08,531.794 1166.33,537.708 1169.57,543.642 1172.81,549.596 1176.06,555.57 1179.3,561.561 1182.54,567.571 1185.78,573.598 1189.03,579.642 1192.27,585.703 1195.51,591.778 1198.76,597.869 1202,603.975 1205.24,610.093 1208.49,616.226 1211.73,622.37 1214.97,628.527 1218.21,634.695 1221.46,640.873 1224.7,647.062 1227.94,653.26 1231.19,659.467 1234.43,665.683 1237.67,671.905 1240.92,678.135 1244.16,684.371 1247.4,690.613 1250.64,696.86 1253.89,703.112 1257.13,709.367 1260.37,715.626 1263.62,721.887 1266.86,728.15 1270.1,734.414 1273.35,740.68 1276.59,746.945 1279.83,753.21 1283.08,759.473 1286.32,765.735 1289.56,771.995 1292.8,778.251 1296.05,784.504 1299.29,790.753 1302.53,796.996 1305.78,803.234 1309.02,809.466 1312.26,815.691 1315.51,821.909 1318.75,828.119 1321.99,834.32 1325.23,840.511 1328.48,846.693 1331.72,852.865 1334.96,859.025 1338.21,865.174 1341.45,871.31 1344.69,877.433 1347.94,883.543 1351.18,889.638 1354.42,895.719 1357.66,901.784 1360.91,907.833 1364.15,913.866 1367.39,919.881 1370.64,925.879 1373.88,931.858 1377.12,937.818 1380.37,943.759 1383.61,949.679 1386.85,955.579 1390.1,961.457 1393.34,967.313 1396.58,973.147 1399.82,978.957 1403.07,984.744 1406.31,990.507 1409.55,996.244 1412.8,1001.96 1416.04,1007.64 1419.28,1013.3 1422.53,1018.93 1425.77,1024.54 1429.01,1030.11 1432.25,1035.66 1435.5,1041.18 1438.74,1046.67 1441.98,1052.13 1445.23,1057.55 1448.47,1062.95 1451.71,1068.31 1454.96,1073.64 1458.2,1078.94 1461.44,1084.2 1464.68,1089.43 1467.93,1094.62 1471.17,1099.78 1474.41,1104.91 1477.66,1109.99 1480.9,1115.04 1484.14,1120.06 1487.39,1125.03 1490.63,1129.97 1493.87,1134.86 1497.11,1139.72 1500.36,1144.54 1503.6,1149.32 1506.84,1154.06 1510.09,1158.75 1513.33,1163.41 1516.57,1168.02 1519.82,1172.59 1523.06,1177.12 1526.3,1181.6 1529.55,1186.04 1532.79,1190.43 1536.03,1194.78 1539.27,1199.09 1542.52,1203.35 1545.76,1207.56 1549,1211.73 1552.25,1215.84 1555.49,1219.92 1558.73,1223.94 1561.98,1227.91 1565.22,1231.84 1568.46,1235.72 1571.7,1239.55 1574.95,1243.33 1578.19,1247.06 1581.43,1250.73 1584.68,1254.36 1587.92,1257.94 1591.16,1261.46 1594.41,1264.93 1597.65,1268.35 1600.89,1271.72 1604.13,1275.03 1607.38,1278.29 1610.62,1281.5 1613.86,1284.66 1617.11,1287.75 1620.35,1290.8 1623.59,1293.79 1626.84,1296.72 1630.08,1299.6 1633.32,1302.42 1636.57,1305.19 1639.81,1307.9 1643.05,1310.55 1646.29,1313.15 1649.54,1315.69 1652.78,1318.17 1656.02,1320.6 1659.27,1322.97 1662.51,1325.27 1665.75,1327.52 1669,1329.72 1672.24,1331.85 1675.48,1333.92 1678.72,1335.94 1681.97,1337.89 1685.21,1339.79 1688.45,1341.63 1691.7,1343.4 1694.94,1345.12 1698.18,1346.77 1701.43,1348.37 1704.67,1349.9 1707.91,1351.37 1711.15,1352.79 1714.4,1354.14 1717.64,1355.43 1720.88,1356.66 1724.13,1357.82 1727.37,1358.93 1730.61,1359.97 1733.86,1360.96 1737.1,1361.88 1740.34,1362.73 1743.59,1363.53 1746.83,1364.26 1750.07,1364.94 1753.31,1365.54 1756.56,1366.09 1759.8,1366.58 1763.04,1367 1766.29,1367.36 1769.53,1367.65 1772.77,1367.89 1776.02,1368.06 1779.26,1368.17 1782.5,1368.22 1785.74,1368.2 1788.99,1368.12 1792.23,1367.98 1795.47,1367.77 1798.72,1367.51 1801.96,1367.18 1805.2,1366.79 1808.45,1366.33 1811.69,1365.81 1814.93,1365.23 1818.17,1364.59 1821.42,1363.89 1824.66,1363.12 1827.9,1362.29 1831.15,1361.4 1834.39,1360.45 1837.63,1359.44 1840.88,1358.36 1844.12,1357.22 1847.36,1356.02 1850.61,1354.76 1853.85,1353.44 1857.09,1352.06 1860.33,1350.61 1863.58,1349.11 1866.82,1347.54 1870.06,1345.92 1873.31,1344.23 1876.55,1342.48 1879.79,1340.67 1883.04,1338.81 1886.28,1336.88 1889.52,1334.89 1892.76,1332.85 1896.01,1330.74 1899.25,1328.58 1902.49,1326.36 1905.74,1324.08 1908.98,1321.74 1912.22,1319.34 1915.47,1316.88 1918.71,1314.37 1921.95,1311.8 1925.19,1309.18 1928.44,1306.49 1931.68,1303.75 1934.92,1300.96 1938.17,1298.1 1941.41,1295.2 1944.65,1292.23 1947.9,1289.22 1951.14,1286.14 1954.38,1283.02 1957.63,1279.83 1960.87,1276.6 1964.11,1273.31 1967.35,1269.97 1970.6,1266.57 1973.84,1263.13 1977.08,1259.63 1980.33,1256.08 1983.57,1252.47 1986.81,1248.82 1990.06,1245.11 1993.3,1241.36 1996.54,1237.56 1999.78,1233.7 2003.03,1229.8 2006.27,1225.84 2009.51,1221.84 2012.76,1217.8 2016,1213.7 2019.24,1209.56 2022.49,1205.37 2025.73,1201.13 2028.97,1196.85 2032.21,1192.52 2035.46,1188.14 2038.7,1183.73 2041.94,1179.26 2045.19,1174.76 2048.43,1170.21 2051.67,1165.62 2054.92,1160.98 2058.16,1156.31 2061.4,1151.59 2064.65,1146.83 2067.89,1142.03 2071.13,1137.19 2074.37,1132.31 2077.62,1127.39 2080.86,1122.44 2084.1,1117.44 2087.35,1112.41 2090.59,1107.34 2093.83,1102.24 2097.08,1097.09 2100.32,1091.92 2103.56,1086.7 2106.8,1081.46 2110.05,1076.18 2113.29,1070.86 2116.53,1065.51 2119.78,1060.13 2123.02,1054.72 2126.26,1049.28 2129.51,1043.81 2132.75,1038.3 2135.99,1032.77 2139.23,1027.21 2142.48,1021.62 2145.72,1016 2148.96,1010.35 2152.21,1004.68 2155.45,998.976 2158.69,993.251 2161.94,987.5 2165.18,981.725 2168.42,975.926 2171.67,970.103 2174.91,964.258 2178.15,958.39 2181.39,952.501 2184.64,946.59 2187.88,940.659 2191.12,934.708 2194.37,928.738 2197.61,922.749 2200.85,916.742 2204.1,910.718 2207.34,904.676 2210.58,898.619 2213.82,892.545 2217.07,886.457 2220.31,880.354 2223.55,874.237 2226.8,868.107 2230.04,861.964 2233.28,855.81 2236.53,849.643 2239.77,843.466 2243.01,837.279 2246.25,831.083 2249.5,824.877 2252.74,818.663 2255.98,812.441 2259.23,806.213 2262.47,799.977 2265.71,793.736 2268.96,787.49 2272.2,781.239 2275.44,774.985 2278.69,768.726 2281.93,762.466 2285.17,756.203 2288.41,749.938 2291.66,743.673 "/>
<circle clip-path="url(#clip862)" cx="2243.01" cy="883.73" r="14.4" fill="#e26f46" fill-rule="evenodd" fill-opacity="1" stroke="#000000" stroke-opacity="1" stroke-width="3.2"/>
<circle clip-path="url(#clip862)" cx="1870.06" cy="1433.76" r="14.4" fill="#e26f46" fill-rule="evenodd" fill-opacity="1" stroke="#000000" stroke-opacity="1" stroke-width="3.2"/>
<circle clip-path="url(#clip862)" cx="1030.12" cy="242.142" r="14.4" fill="#e26f46" fill-rule="evenodd" fill-opacity="1" stroke="#000000" stroke-opacity="1" stroke-width="3.2"/>
<circle clip-path="url(#clip862)" cx="2155.45" cy="1105.2" r="14.4" fill="#e26f46" fill-rule="evenodd" fill-opacity="1" stroke="#000000" stroke-opacity="1" stroke-width="3.2"/>
<circle clip-path="url(#clip862)" cx="1983.57" cy="1287.3" r="14.4" fill="#e26f46" fill-rule="evenodd" fill-opacity="1" stroke="#000000" stroke-opacity="1" stroke-width="3.2"/>
<circle clip-path="url(#clip862)" cx="1276.59" cy="722.925" r="14.4" fill="#e26f46" fill-rule="evenodd" fill-opacity="1" stroke="#000000" stroke-opacity="1" stroke-width="3.2"/>
<circle clip-path="url(#clip862)" cx="1782.5" cy="1445.72" r="14.4" fill="#e26f46" fill-rule="evenodd" fill-opacity="1" stroke="#000000" stroke-opacity="1" stroke-width="3.2"/>
<circle clip-path="url(#clip862)" cx="900.398" cy="256.08" r="14.4" fill="#e26f46" fill-rule="evenodd" fill-opacity="1" stroke="#000000" stroke-opacity="1" stroke-width="3.2"/>
<circle clip-path="url(#clip862)" cx="858.238" cy="256.605" r="14.4" fill="#e26f46" fill-rule="evenodd" fill-opacity="1" stroke="#000000" stroke-opacity="1" stroke-width="3.2"/>
<circle clip-path="url(#clip862)" cx="1367.39" cy="851.761" r="14.4" fill="#e26f46" fill-rule="evenodd" fill-opacity="1" stroke="#000000" stroke-opacity="1" stroke-width="3.2"/>
<circle clip-path="url(#clip862)" cx="735.003" cy="263.152" r="14.4" fill="#e26f46" fill-rule="evenodd" fill-opacity="1" stroke="#000000" stroke-opacity="1" stroke-width="3.2"/>
<circle clip-path="url(#clip862)" cx="2158.69" cy="927.131" r="14.4" fill="#e26f46" fill-rule="evenodd" fill-opacity="1" stroke="#000000" stroke-opacity="1" stroke-width="3.2"/>
<circle clip-path="url(#clip862)" cx="1474.41" cy="993.459" r="14.4" fill="#e26f46" fill-rule="evenodd" fill-opacity="1" stroke="#000000" stroke-opacity="1" stroke-width="3.2"/>
<circle clip-path="url(#clip862)" cx="1587.92" cy="1111.05" r="14.4" fill="#e26f46" fill-rule="evenodd" fill-opacity="1" stroke="#000000" stroke-opacity="1" stroke-width="3.2"/>
<circle clip-path="url(#clip862)" cx="2158.69" cy="946.815" r="14.4" fill="#e26f46" fill-rule="evenodd" fill-opacity="1" stroke="#000000" stroke-opacity="1" stroke-width="3.2"/>
<circle clip-path="url(#clip862)" cx="848.509" cy="87.9763" r="14.4" fill="#e26f46" fill-rule="evenodd" fill-opacity="1" stroke="#000000" stroke-opacity="1" stroke-width="3.2"/>
<circle clip-path="url(#clip862)" cx="1192.27" cy="608.061" r="14.4" fill="#e26f46" fill-rule="evenodd" fill-opacity="1" stroke="#000000" stroke-opacity="1" stroke-width="3.2"/>
<circle clip-path="url(#clip862)" cx="410.7" cy="458.207" r="14.4" fill="#e26f46" fill-rule="evenodd" fill-opacity="1" stroke="#000000" stroke-opacity="1" stroke-width="3.2"/>
<circle clip-path="url(#clip862)" cx="1056.06" cy="391.203" r="14.4" fill="#e26f46" fill-rule="evenodd" fill-opacity="1" stroke="#000000" stroke-opacity="1" stroke-width="3.2"/>
<circle clip-path="url(#clip862)" cx="430.158" cy="428.505" r="14.4" fill="#e26f46" fill-rule="evenodd" fill-opacity="1" stroke="#000000" stroke-opacity="1" stroke-width="3.2"/>
<path clip-path="url(#clip860)" d="M1953.46 250.738 L2280.8 250.738 L2280.8 95.2176 L1953.46 95.2176  Z" fill="#ffffff" fill-rule="evenodd" fill-opacity="1"/>
<polyline clip-path="url(#clip860)" style="stroke:#000000; stroke-linecap:round; stroke-linejoin:round; stroke-width:4; stroke-opacity:1; fill:none" points="1953.46,250.738 2280.8,250.738 2280.8,95.2176 1953.46,95.2176 1953.46,250.738 "/>
<polyline clip-path="url(#clip860)" style="stroke:#009af9; stroke-linecap:round; stroke-linejoin:round; stroke-width:4; stroke-opacity:1; fill:none" points="1977.44,147.058 2121.36,147.058 "/>
<path clip-path="url(#clip860)" d="M2152.76 131.051 L2152.76 138.412 L2161.53 138.412 L2161.53 141.722 L2152.76 141.722 L2152.76 155.796 Q2152.76 158.967 2153.61 159.87 Q2154.49 160.773 2157.16 160.773 L2161.53 160.773 L2161.53 164.338 L2157.16 164.338 Q2152.23 164.338 2150.35 162.509 Q2148.48 160.657 2148.48 155.796 L2148.48 141.722 L2145.35 141.722 L2145.35 138.412 L2148.48 138.412 L2148.48 131.051 L2152.76 131.051 Z" fill="#000000" fill-rule="nonzero" fill-opacity="1" /><path clip-path="url(#clip860)" d="M2182.16 142.393 Q2181.44 141.977 2180.58 141.791 Q2179.75 141.583 2178.73 141.583 Q2175.12 141.583 2173.17 143.944 Q2171.25 146.282 2171.25 150.68 L2171.25 164.338 L2166.97 164.338 L2166.97 138.412 L2171.25 138.412 L2171.25 142.44 Q2172.6 140.078 2174.75 138.944 Q2176.9 137.787 2179.98 137.787 Q2180.42 137.787 2180.95 137.856 Q2181.48 137.903 2182.13 138.018 L2182.16 142.393 Z" fill="#000000" fill-rule="nonzero" fill-opacity="1" /><path clip-path="url(#clip860)" d="M2186.18 154.106 L2186.18 138.412 L2190.44 138.412 L2190.44 153.944 Q2190.44 157.625 2191.88 159.476 Q2193.31 161.305 2196.18 161.305 Q2199.63 161.305 2201.62 159.106 Q2203.64 156.907 2203.64 153.111 L2203.64 138.412 L2207.9 138.412 L2207.9 164.338 L2203.64 164.338 L2203.64 160.356 Q2202.09 162.717 2200.03 163.875 Q2197.99 165.009 2195.28 165.009 Q2190.81 165.009 2188.5 162.231 Q2186.18 159.453 2186.18 154.106 M2196.9 137.787 L2196.9 137.787 Z" fill="#000000" fill-rule="nonzero" fill-opacity="1" /><path clip-path="url(#clip860)" d="M2220.88 131.051 L2220.88 138.412 L2229.66 138.412 L2229.66 141.722 L2220.88 141.722 L2220.88 155.796 Q2220.88 158.967 2221.74 159.87 Q2222.62 160.773 2225.28 160.773 L2229.66 160.773 L2229.66 164.338 L2225.28 164.338 Q2220.35 164.338 2218.48 162.509 Q2216.6 160.657 2216.6 155.796 L2216.6 141.722 L2213.48 141.722 L2213.48 138.412 L2216.6 138.412 L2216.6 131.051 L2220.88 131.051 Z" fill="#000000" fill-rule="nonzero" fill-opacity="1" /><path clip-path="url(#clip860)" d="M2256.81 148.689 L2256.81 164.338 L2252.55 164.338 L2252.55 148.828 Q2252.55 145.148 2251.11 143.319 Q2249.68 141.49 2246.81 141.49 Q2243.36 141.49 2241.37 143.69 Q2239.38 145.889 2239.38 149.685 L2239.38 164.338 L2235.1 164.338 L2235.1 128.319 L2239.38 128.319 L2239.38 142.44 Q2240.91 140.102 2242.97 138.944 Q2245.05 137.787 2247.76 137.787 Q2252.23 137.787 2254.52 140.565 Q2256.81 143.319 2256.81 148.689 Z" fill="#000000" fill-rule="nonzero" fill-opacity="1" /><circle clip-path="url(#clip860)" cx="2049.4" cy="198.898" r="20.48" fill="#e26f46" fill-rule="evenodd" fill-opacity="1" stroke="#000000" stroke-opacity="1" stroke-width="4.55111"/>
<path clip-path="url(#clip860)" d="M2164.26 194.187 L2164.26 180.159 L2168.52 180.159 L2168.52 216.178 L2164.26 216.178 L2164.26 212.289 Q2162.92 214.603 2160.86 215.738 Q2158.82 216.849 2155.95 216.849 Q2151.25 216.849 2148.29 213.099 Q2145.35 209.349 2145.35 203.238 Q2145.35 197.127 2148.29 193.377 Q2151.25 189.627 2155.95 189.627 Q2158.82 189.627 2160.86 190.761 Q2162.92 191.872 2164.26 194.187 M2149.75 203.238 Q2149.75 207.937 2151.67 210.622 Q2153.61 213.284 2156.99 213.284 Q2160.37 213.284 2162.32 210.622 Q2164.26 207.937 2164.26 203.238 Q2164.26 198.539 2162.32 195.877 Q2160.37 193.192 2156.99 193.192 Q2153.61 193.192 2151.67 195.877 Q2149.75 198.539 2149.75 203.238 Z" fill="#000000" fill-rule="nonzero" fill-opacity="1" /><path clip-path="url(#clip860)" d="M2189.08 203.145 Q2183.92 203.145 2181.92 204.326 Q2179.93 205.506 2179.93 208.354 Q2179.93 210.622 2181.42 211.965 Q2182.92 213.284 2185.49 213.284 Q2189.03 213.284 2191.16 210.784 Q2193.31 208.261 2193.31 204.094 L2193.31 203.145 L2189.08 203.145 M2197.57 201.386 L2197.57 216.178 L2193.31 216.178 L2193.31 212.242 Q2191.85 214.603 2189.68 215.738 Q2187.5 216.849 2184.36 216.849 Q2180.37 216.849 2178.01 214.627 Q2175.67 212.381 2175.67 208.631 Q2175.67 204.256 2178.59 202.034 Q2181.53 199.812 2187.34 199.812 L2193.31 199.812 L2193.31 199.395 Q2193.31 196.455 2191.37 194.858 Q2189.45 193.238 2185.95 193.238 Q2183.73 193.238 2181.62 193.77 Q2179.52 194.303 2177.57 195.367 L2177.57 191.432 Q2179.91 190.53 2182.11 190.09 Q2184.31 189.627 2186.39 189.627 Q2192.02 189.627 2194.79 192.543 Q2197.57 195.46 2197.57 201.386 Z" fill="#000000" fill-rule="nonzero" fill-opacity="1" /><path clip-path="url(#clip860)" d="M2210.56 182.891 L2210.56 190.252 L2219.33 190.252 L2219.33 193.562 L2210.56 193.562 L2210.56 207.636 Q2210.56 210.807 2211.42 211.71 Q2212.29 212.613 2214.96 212.613 L2219.33 212.613 L2219.33 216.178 L2214.96 216.178 Q2210.03 216.178 2208.15 214.349 Q2206.28 212.497 2206.28 207.636 L2206.28 193.562 L2203.15 193.562 L2203.15 190.252 L2206.28 190.252 L2206.28 182.891 L2210.56 182.891 Z" fill="#000000" fill-rule="nonzero" fill-opacity="1" /><path clip-path="url(#clip860)" d="M2236.72 203.145 Q2231.55 203.145 2229.56 204.326 Q2227.57 205.506 2227.57 208.354 Q2227.57 210.622 2229.05 211.965 Q2230.56 213.284 2233.13 213.284 Q2236.67 213.284 2238.8 210.784 Q2240.95 208.261 2240.95 204.094 L2240.95 203.145 L2236.72 203.145 M2245.21 201.386 L2245.21 216.178 L2240.95 216.178 L2240.95 212.242 Q2239.49 214.603 2237.32 215.738 Q2235.14 216.849 2231.99 216.849 Q2228.01 216.849 2225.65 214.627 Q2223.31 212.381 2223.31 208.631 Q2223.31 204.256 2226.23 202.034 Q2229.17 199.812 2234.98 199.812 L2240.95 199.812 L2240.95 199.395 Q2240.95 196.455 2239.01 194.858 Q2237.09 193.238 2233.59 193.238 Q2231.37 193.238 2229.26 193.77 Q2227.16 194.303 2225.21 195.367 L2225.21 191.432 Q2227.55 190.53 2229.75 190.09 Q2231.95 189.627 2234.03 189.627 Q2239.66 189.627 2242.43 192.543 Q2245.21 195.46 2245.21 201.386 Z" fill="#000000" fill-rule="nonzero" fill-opacity="1" /></svg>
