<?xml version="1.0" encoding="utf-8"?>
<svg xmlns="http://www.w3.org/2000/svg" xmlns:xlink="http://www.w3.org/1999/xlink" width="600" height="400" viewBox="0 0 2400 1600">
<defs>
  <clipPath id="clip500">
    <rect x="0" y="0" width="2400" height="1600"/>
  </clipPath>
</defs>
<path clip-path="url(#clip500)" d="M0 1600 L2400 1600 L2400 0 L0 0  Z" fill="#ffffff" fill-rule="evenodd" fill-opacity="1"/>
<defs>
  <clipPath id="clip501">
    <rect x="480" y="0" width="1681" height="1600"/>
  </clipPath>
</defs>
<path clip-path="url(#clip500)" d="M193.936 1486.45 L2352.76 1486.45 L2352.76 47.2441 L193.936 47.2441  Z" fill="#ffffff" fill-rule="evenodd" fill-opacity="1"/>
<defs>
  <clipPath id="clip502">
    <rect x="193" y="47" width="2160" height="1440"/>
  </clipPath>
</defs>
<polyline clip-path="url(#clip502)" style="stroke:#000000; stroke-linecap:round; stroke-linejoin:round; stroke-width:2; stroke-opacity:0.1; fill:none" points="255.035,1486.45 255.035,47.2441 "/>
<polyline clip-path="url(#clip502)" style="stroke:#000000; stroke-linecap:round; stroke-linejoin:round; stroke-width:2; stroke-opacity:0.1; fill:none" points="579.338,1486.45 579.338,47.2441 "/>
<polyline clip-path="url(#clip502)" style="stroke:#000000; stroke-linecap:round; stroke-linejoin:round; stroke-width:2; stroke-opacity:0.1; fill:none" points="903.641,1486.45 903.641,47.2441 "/>
<polyline clip-path="url(#clip502)" style="stroke:#000000; stroke-linecap:round; stroke-linejoin:round; stroke-width:2; stroke-opacity:0.1; fill:none" points="1227.94,1486.45 1227.94,47.2441 "/>
<polyline clip-path="url(#clip502)" style="stroke:#000000; stroke-linecap:round; stroke-linejoin:round; stroke-width:2; stroke-opacity:0.1; fill:none" points="1552.25,1486.45 1552.25,47.2441 "/>
<polyline clip-path="url(#clip502)" style="stroke:#000000; stroke-linecap:round; stroke-linejoin:round; stroke-width:2; stroke-opacity:0.1; fill:none" points="1876.55,1486.45 1876.55,47.2441 "/>
<polyline clip-path="url(#clip502)" style="stroke:#000000; stroke-linecap:round; stroke-linejoin:round; stroke-width:2; stroke-opacity:0.1; fill:none" points="2200.85,1486.45 2200.85,47.2441 "/>
<polyline clip-path="url(#clip502)" style="stroke:#000000; stroke-linecap:round; stroke-linejoin:round; stroke-width:2; stroke-opacity:0.1; fill:none" points="193.936,1368.69 2352.76,1368.69 "/>
<polyline clip-path="url(#clip502)" style="stroke:#000000; stroke-linecap:round; stroke-linejoin:round; stroke-width:2; stroke-opacity:0.1; fill:none" points="193.936,1074.16 2352.76,1074.16 "/>
<polyline clip-path="url(#clip502)" style="stroke:#000000; stroke-linecap:round; stroke-linejoin:round; stroke-width:2; stroke-opacity:0.1; fill:none" points="193.936,779.627 2352.76,779.627 "/>
<polyline clip-path="url(#clip502)" style="stroke:#000000; stroke-linecap:round; stroke-linejoin:round; stroke-width:2; stroke-opacity:0.1; fill:none" points="193.936,485.094 2352.76,485.094 "/>
<polyline clip-path="url(#clip502)" style="stroke:#000000; stroke-linecap:round; stroke-linejoin:round; stroke-width:2; stroke-opacity:0.1; fill:none" points="193.936,190.56 2352.76,190.56 "/>
<polyline clip-path="url(#clip500)" style="stroke:#000000; stroke-linecap:round; stroke-linejoin:round; stroke-width:4; stroke-opacity:1; fill:none" points="193.936,1486.45 2352.76,1486.45 "/>
<polyline clip-path="url(#clip500)" style="stroke:#000000; stroke-linecap:round; stroke-linejoin:round; stroke-width:4; stroke-opacity:1; fill:none" points="255.035,1486.45 255.035,1467.55 "/>
<polyline clip-path="url(#clip500)" style="stroke:#000000; stroke-linecap:round; stroke-linejoin:round; stroke-width:4; stroke-opacity:1; fill:none" points="579.338,1486.45 579.338,1467.55 "/>
<polyline clip-path="url(#clip500)" style="stroke:#000000; stroke-linecap:round; stroke-linejoin:round; stroke-width:4; stroke-opacity:1; fill:none" points="903.641,1486.45 903.641,1467.55 "/>
<polyline clip-path="url(#clip500)" style="stroke:#000000; stroke-linecap:round; stroke-linejoin:round; stroke-width:4; stroke-opacity:1; fill:none" points="1227.94,1486.45 1227.94,1467.55 "/>
<polyline clip-path="url(#clip500)" style="stroke:#000000; stroke-linecap:round; stroke-linejoin:round; stroke-width:4; stroke-opacity:1; fill:none" points="1552.25,1486.45 1552.25,1467.55 "/>
<polyline clip-path="url(#clip500)" style="stroke:#000000; stroke-linecap:round; stroke-linejoin:round; stroke-width:4; stroke-opacity:1; fill:none" points="1876.55,1486.45 1876.55,1467.55 "/>
<polyline clip-path="url(#clip500)" style="stroke:#000000; stroke-linecap:round; stroke-linejoin:round; stroke-width:4; stroke-opacity:1; fill:none" points="2200.85,1486.45 2200.85,1467.55 "/>
<path clip-path="url(#clip500)" d="M255.035 1517.37 Q251.424 1517.37 249.595 1520.93 Q247.789 1524.47 247.789 1531.6 Q247.789 1538.71 249.595 1542.27 Q251.424 1545.82 255.035 1545.82 Q258.669 1545.82 260.474 1542.27 Q262.303 1538.71 262.303 1531.6 Q262.303 1524.47 260.474 1520.93 Q258.669 1517.37 255.035 1517.37 M255.035 1513.66 Q260.845 1513.66 263.9 1518.27 Q266.979 1522.85 266.979 1531.6 Q266.979 1540.33 263.9 1544.94 Q260.845 1549.52 255.035 1549.52 Q249.225 1549.52 246.146 1544.94 Q243.09 1540.33 243.09 1531.6 Q243.09 1522.85 246.146 1518.27 Q249.225 1513.66 255.035 1513.66 Z" fill="#000000" fill-rule="nonzero" fill-opacity="1" /><path clip-path="url(#clip500)" d="M569.72 1544.91 L577.358 1544.91 L577.358 1518.55 L569.048 1520.21 L569.048 1515.95 L577.312 1514.29 L581.988 1514.29 L581.988 1544.91 L589.627 1544.91 L589.627 1548.85 L569.72 1548.85 L569.72 1544.91 Z" fill="#000000" fill-rule="nonzero" fill-opacity="1" /><path clip-path="url(#clip500)" d="M898.293 1544.91 L914.613 1544.91 L914.613 1548.85 L892.668 1548.85 L892.668 1544.91 Q895.33 1542.16 899.914 1537.53 Q904.52 1532.88 905.701 1531.53 Q907.946 1529.01 908.826 1527.27 Q909.729 1525.51 909.729 1523.82 Q909.729 1521.07 907.784 1519.33 Q905.863 1517.6 902.761 1517.6 Q900.562 1517.6 898.108 1518.36 Q895.678 1519.13 892.9 1520.68 L892.9 1515.95 Q895.724 1514.82 898.178 1514.24 Q900.631 1513.66 902.668 1513.66 Q908.039 1513.66 911.233 1516.35 Q914.428 1519.03 914.428 1523.52 Q914.428 1525.65 913.617 1527.57 Q912.83 1529.47 910.724 1532.07 Q910.145 1532.74 907.043 1535.95 Q903.942 1539.15 898.293 1544.91 Z" fill="#000000" fill-rule="nonzero" fill-opacity="1" /><path clip-path="url(#clip500)" d="M1232.19 1530.21 Q1235.55 1530.93 1237.42 1533.2 Q1239.32 1535.47 1239.32 1538.8 Q1239.32 1543.92 1235.8 1546.72 Q1232.28 1549.52 1225.8 1549.52 Q1223.63 1549.52 1221.31 1549.08 Q1219.02 1548.66 1216.57 1547.81 L1216.57 1543.29 Q1218.51 1544.43 1220.83 1545.01 Q1223.14 1545.58 1225.66 1545.58 Q1230.06 1545.58 1232.35 1543.85 Q1234.67 1542.11 1234.67 1538.8 Q1234.67 1535.75 1232.52 1534.03 Q1230.39 1532.3 1226.57 1532.3 L1222.54 1532.3 L1222.54 1528.45 L1226.75 1528.45 Q1230.2 1528.45 1232.03 1527.09 Q1233.86 1525.7 1233.86 1523.11 Q1233.86 1520.45 1231.96 1519.03 Q1230.08 1517.6 1226.57 1517.6 Q1224.64 1517.6 1222.45 1518.01 Q1220.25 1518.43 1217.61 1519.31 L1217.61 1515.14 Q1220.27 1514.4 1222.58 1514.03 Q1224.92 1513.66 1226.98 1513.66 Q1232.31 1513.66 1235.41 1516.09 Q1238.51 1518.5 1238.51 1522.62 Q1238.51 1525.49 1236.87 1527.48 Q1235.22 1529.45 1232.19 1530.21 Z" fill="#000000" fill-rule="nonzero" fill-opacity="1" /><path clip-path="url(#clip500)" d="M1555.26 1518.36 L1543.45 1536.81 L1555.26 1536.81 L1555.26 1518.36 M1554.03 1514.29 L1559.91 1514.29 L1559.91 1536.81 L1564.84 1536.81 L1564.84 1540.7 L1559.91 1540.7 L1559.91 1548.85 L1555.26 1548.85 L1555.26 1540.7 L1539.65 1540.7 L1539.65 1536.19 L1554.03 1514.29 Z" fill="#000000" fill-rule="nonzero" fill-opacity="1" /><path clip-path="url(#clip500)" d="M1866.83 1514.29 L1885.18 1514.29 L1885.18 1518.22 L1871.11 1518.22 L1871.11 1526.7 Q1872.13 1526.35 1873.15 1526.19 Q1874.17 1526 1875.18 1526 Q1880.97 1526 1884.35 1529.17 Q1887.73 1532.34 1887.73 1537.76 Q1887.73 1543.34 1884.26 1546.44 Q1880.79 1549.52 1874.47 1549.52 Q1872.29 1549.52 1870.02 1549.15 Q1867.78 1548.78 1865.37 1548.04 L1865.37 1543.34 Q1867.45 1544.47 1869.67 1545.03 Q1871.9 1545.58 1874.37 1545.58 Q1878.38 1545.58 1880.72 1543.48 Q1883.05 1541.37 1883.05 1537.76 Q1883.05 1534.15 1880.72 1532.04 Q1878.38 1529.94 1874.37 1529.94 Q1872.5 1529.94 1870.62 1530.35 Q1868.77 1530.77 1866.83 1531.65 L1866.83 1514.29 Z" fill="#000000" fill-rule="nonzero" fill-opacity="1" /><path clip-path="url(#clip500)" d="M2201.26 1529.7 Q2198.11 1529.7 2196.26 1531.86 Q2194.43 1534.01 2194.43 1537.76 Q2194.43 1541.49 2196.26 1543.66 Q2198.11 1545.82 2201.26 1545.82 Q2204.41 1545.82 2206.23 1543.66 Q2208.09 1541.49 2208.09 1537.76 Q2208.09 1534.01 2206.23 1531.86 Q2204.41 1529.7 2201.26 1529.7 M2210.54 1515.05 L2210.54 1519.31 Q2208.78 1518.48 2206.98 1518.04 Q2205.19 1517.6 2203.43 1517.6 Q2198.8 1517.6 2196.35 1520.72 Q2193.92 1523.85 2193.57 1530.17 Q2194.94 1528.15 2197 1527.09 Q2199.06 1526 2201.54 1526 Q2206.74 1526 2209.75 1529.17 Q2212.79 1532.32 2212.79 1537.76 Q2212.79 1543.08 2209.64 1546.3 Q2206.49 1549.52 2201.26 1549.52 Q2195.26 1549.52 2192.09 1544.94 Q2188.92 1540.33 2188.92 1531.6 Q2188.92 1523.41 2192.81 1518.55 Q2196.7 1513.66 2203.25 1513.66 Q2205.01 1513.66 2206.79 1514.01 Q2208.6 1514.36 2210.54 1515.05 Z" fill="#000000" fill-rule="nonzero" fill-opacity="1" /><polyline clip-path="url(#clip500)" style="stroke:#000000; stroke-linecap:round; stroke-linejoin:round; stroke-width:4; stroke-opacity:1; fill:none" points="193.936,1486.45 193.936,47.2441 "/>
<polyline clip-path="url(#clip500)" style="stroke:#000000; stroke-linecap:round; stroke-linejoin:round; stroke-width:4; stroke-opacity:1; fill:none" points="193.936,1368.69 212.834,1368.69 "/>
<polyline clip-path="url(#clip500)" style="stroke:#000000; stroke-linecap:round; stroke-linejoin:round; stroke-width:4; stroke-opacity:1; fill:none" points="193.936,1074.16 212.834,1074.16 "/>
<polyline clip-path="url(#clip500)" style="stroke:#000000; stroke-linecap:round; stroke-linejoin:round; stroke-width:4; stroke-opacity:1; fill:none" points="193.936,779.627 212.834,779.627 "/>
<polyline clip-path="url(#clip500)" style="stroke:#000000; stroke-linecap:round; stroke-linejoin:round; stroke-width:4; stroke-opacity:1; fill:none" points="193.936,485.094 212.834,485.094 "/>
<polyline clip-path="url(#clip500)" style="stroke:#000000; stroke-linecap:round; stroke-linejoin:round; stroke-width:4; stroke-opacity:1; fill:none" points="193.936,190.56 212.834,190.56 "/>
<path clip-path="url(#clip500)" d="M50.9921 1369.15 L80.6679 1369.15 L80.6679 1373.08 L50.9921 1373.08 L50.9921 1369.15 Z" fill="#000000" fill-rule="nonzero" fill-opacity="1" /><path clip-path="url(#clip500)" d="M91.5706 1382.04 L99.2095 1382.04 L99.2095 1355.67 L90.8993 1357.34 L90.8993 1353.08 L99.1632 1351.41 L103.839 1351.41 L103.839 1382.04 L111.478 1382.04 L111.478 1385.97 L91.5706 1385.97 L91.5706 1382.04 Z" fill="#000000" fill-rule="nonzero" fill-opacity="1" /><path clip-path="url(#clip500)" d="M120.922 1380.09 L125.807 1380.09 L125.807 1385.97 L120.922 1385.97 L120.922 1380.09 Z" fill="#000000" fill-rule="nonzero" fill-opacity="1" /><path clip-path="url(#clip500)" d="M145.992 1354.49 Q142.381 1354.49 140.552 1358.06 Q138.746 1361.6 138.746 1368.73 Q138.746 1375.84 140.552 1379.4 Q142.381 1382.94 145.992 1382.94 Q149.626 1382.94 151.431 1379.4 Q153.26 1375.84 153.26 1368.73 Q153.26 1361.6 151.431 1358.06 Q149.626 1354.49 145.992 1354.49 M145.992 1350.79 Q151.802 1350.79 154.857 1355.4 Q157.936 1359.98 157.936 1368.73 Q157.936 1377.46 154.857 1382.06 Q151.802 1386.65 145.992 1386.65 Q140.181 1386.65 137.103 1382.06 Q134.047 1377.46 134.047 1368.73 Q134.047 1359.98 137.103 1355.4 Q140.181 1350.79 145.992 1350.79 Z" fill="#000000" fill-rule="nonzero" fill-opacity="1" /><path clip-path="url(#clip500)" d="M51.9875 1074.61 L81.6633 1074.61 L81.6633 1078.55 L51.9875 1078.55 L51.9875 1074.61 Z" fill="#000000" fill-rule="nonzero" fill-opacity="1" /><path clip-path="url(#clip500)" d="M101.756 1059.96 Q98.1447 1059.96 96.316 1063.52 Q94.5104 1067.07 94.5104 1074.2 Q94.5104 1081.3 96.316 1084.87 Q98.1447 1088.41 101.756 1088.41 Q105.39 1088.41 107.196 1084.87 Q109.024 1081.3 109.024 1074.2 Q109.024 1067.07 107.196 1063.52 Q105.39 1059.96 101.756 1059.96 M101.756 1056.26 Q107.566 1056.26 110.621 1060.86 Q113.7 1065.45 113.7 1074.2 Q113.7 1082.92 110.621 1087.53 Q107.566 1092.11 101.756 1092.11 Q95.9456 1092.11 92.8669 1087.53 Q89.8114 1082.92 89.8114 1074.2 Q89.8114 1065.45 92.8669 1060.86 Q95.9456 1056.26 101.756 1056.26 Z" fill="#000000" fill-rule="nonzero" fill-opacity="1" /><path clip-path="url(#clip500)" d="M121.918 1085.56 L126.802 1085.56 L126.802 1091.44 L121.918 1091.44 L121.918 1085.56 Z" fill="#000000" fill-rule="nonzero" fill-opacity="1" /><path clip-path="url(#clip500)" d="M137.033 1056.88 L155.39 1056.88 L155.39 1060.82 L141.316 1060.82 L141.316 1069.29 Q142.334 1068.94 143.353 1068.78 Q144.371 1068.59 145.39 1068.59 Q151.177 1068.59 154.556 1071.76 Q157.936 1074.94 157.936 1080.35 Q157.936 1085.93 154.464 1089.03 Q150.992 1092.11 144.672 1092.11 Q142.496 1092.11 140.228 1091.74 Q137.982 1091.37 135.575 1090.63 L135.575 1085.93 Q137.658 1087.07 139.881 1087.62 Q142.103 1088.18 144.58 1088.18 Q148.584 1088.18 150.922 1086.07 Q153.26 1083.96 153.26 1080.35 Q153.26 1076.74 150.922 1074.64 Q148.584 1072.53 144.58 1072.53 Q142.705 1072.53 140.83 1072.95 Q138.978 1073.36 137.033 1074.24 L137.033 1056.88 Z" fill="#000000" fill-rule="nonzero" fill-opacity="1" /><path clip-path="url(#clip500)" d="M100.76 765.426 Q97.1493 765.426 95.3206 768.991 Q93.515 772.532 93.515 779.662 Q93.515 786.768 95.3206 790.333 Q97.1493 793.875 100.76 793.875 Q104.395 793.875 106.2 790.333 Q108.029 786.768 108.029 779.662 Q108.029 772.532 106.2 768.991 Q104.395 765.426 100.76 765.426 M100.76 761.722 Q106.571 761.722 109.626 766.329 Q112.705 770.912 112.705 779.662 Q112.705 788.389 109.626 792.995 Q106.571 797.578 100.76 797.578 Q94.9502 797.578 91.8715 792.995 Q88.816 788.389 88.816 779.662 Q88.816 770.912 91.8715 766.329 Q94.9502 761.722 100.76 761.722 Z" fill="#000000" fill-rule="nonzero" fill-opacity="1" /><path clip-path="url(#clip500)" d="M120.922 791.028 L125.807 791.028 L125.807 796.907 L120.922 796.907 L120.922 791.028 Z" fill="#000000" fill-rule="nonzero" fill-opacity="1" /><path clip-path="url(#clip500)" d="M145.992 765.426 Q142.381 765.426 140.552 768.991 Q138.746 772.532 138.746 779.662 Q138.746 786.768 140.552 790.333 Q142.381 793.875 145.992 793.875 Q149.626 793.875 151.431 790.333 Q153.26 786.768 153.26 779.662 Q153.26 772.532 151.431 768.991 Q149.626 765.426 145.992 765.426 M145.992 761.722 Q151.802 761.722 154.857 766.329 Q157.936 770.912 157.936 779.662 Q157.936 788.389 154.857 792.995 Q151.802 797.578 145.992 797.578 Q140.181 797.578 137.103 792.995 Q134.047 788.389 134.047 779.662 Q134.047 770.912 137.103 766.329 Q140.181 761.722 145.992 761.722 Z" fill="#000000" fill-rule="nonzero" fill-opacity="1" /><path clip-path="url(#clip500)" d="M101.756 470.892 Q98.1447 470.892 96.316 474.457 Q94.5104 477.999 94.5104 485.128 Q94.5104 492.235 96.316 495.8 Q98.1447 499.341 101.756 499.341 Q105.39 499.341 107.196 495.8 Q109.024 492.235 109.024 485.128 Q109.024 477.999 107.196 474.457 Q105.39 470.892 101.756 470.892 M101.756 467.189 Q107.566 467.189 110.621 471.795 Q113.7 476.378 113.7 485.128 Q113.7 493.855 110.621 498.462 Q107.566 503.045 101.756 503.045 Q95.9456 503.045 92.8669 498.462 Q89.8114 493.855 89.8114 485.128 Q89.8114 476.378 92.8669 471.795 Q95.9456 467.189 101.756 467.189 Z" fill="#000000" fill-rule="nonzero" fill-opacity="1" /><path clip-path="url(#clip500)" d="M121.918 496.494 L126.802 496.494 L126.802 502.374 L121.918 502.374 L121.918 496.494 Z" fill="#000000" fill-rule="nonzero" fill-opacity="1" /><path clip-path="url(#clip500)" d="M137.033 467.814 L155.39 467.814 L155.39 471.749 L141.316 471.749 L141.316 480.221 Q142.334 479.874 143.353 479.712 Q144.371 479.526 145.39 479.526 Q151.177 479.526 154.556 482.698 Q157.936 485.869 157.936 491.286 Q157.936 496.864 154.464 499.966 Q150.992 503.045 144.672 503.045 Q142.496 503.045 140.228 502.674 Q137.982 502.304 135.575 501.563 L135.575 496.864 Q137.658 497.999 139.881 498.554 Q142.103 499.11 144.58 499.11 Q148.584 499.11 150.922 497.003 Q153.26 494.897 153.26 491.286 Q153.26 487.675 150.922 485.568 Q148.584 483.462 144.58 483.462 Q142.705 483.462 140.83 483.878 Q138.978 484.295 137.033 485.175 L137.033 467.814 Z" fill="#000000" fill-rule="nonzero" fill-opacity="1" /><path clip-path="url(#clip500)" d="M91.5706 203.905 L99.2095 203.905 L99.2095 177.539 L90.8993 179.206 L90.8993 174.947 L99.1632 173.28 L103.839 173.28 L103.839 203.905 L111.478 203.905 L111.478 207.84 L91.5706 207.84 L91.5706 203.905 Z" fill="#000000" fill-rule="nonzero" fill-opacity="1" /><path clip-path="url(#clip500)" d="M120.922 201.96 L125.807 201.96 L125.807 207.84 L120.922 207.84 L120.922 201.96 Z" fill="#000000" fill-rule="nonzero" fill-opacity="1" /><path clip-path="url(#clip500)" d="M145.992 176.359 Q142.381 176.359 140.552 179.923 Q138.746 183.465 138.746 190.595 Q138.746 197.701 140.552 201.266 Q142.381 204.808 145.992 204.808 Q149.626 204.808 151.431 201.266 Q153.26 197.701 153.26 190.595 Q153.26 183.465 151.431 179.923 Q149.626 176.359 145.992 176.359 M145.992 172.655 Q151.802 172.655 154.857 177.261 Q157.936 181.845 157.936 190.595 Q157.936 199.321 154.857 203.928 Q151.802 208.511 145.992 208.511 Q140.181 208.511 137.103 203.928 Q134.047 199.321 134.047 190.595 Q134.047 181.845 137.103 177.261 Q140.181 172.655 145.992 172.655 Z" fill="#000000" fill-rule="nonzero" fill-opacity="1" /><polyline clip-path="url(#clip502)" style="stroke:#009af9; stroke-linecap:round; stroke-linejoin:round; stroke-width:4; stroke-opacity:1; fill:none" points="255.035,779.627 258.278,773.737 261.521,767.847 264.764,761.958 268.007,756.071 271.25,750.186 274.493,744.304 277.736,738.426 280.979,732.552 284.222,726.683 287.465,720.819 290.708,714.96 293.951,709.109 297.194,703.264 300.437,697.427 303.68,691.598 306.923,685.778 310.166,679.967 313.409,674.167 316.652,668.377 319.895,662.598 323.138,656.83 326.381,651.075 329.624,645.333 332.867,639.604 336.11,633.89 339.353,628.189 342.596,622.504 345.84,616.835 349.083,611.182 352.326,605.546 355.569,599.927 358.812,594.326 362.055,588.744 365.298,583.181 368.541,577.637 371.784,572.114 375.027,566.611 378.27,561.13 381.513,555.671 384.756,550.234 387.999,544.819 391.242,539.429 394.485,534.062 397.728,528.72 400.971,523.403 404.214,518.112 407.457,512.847 410.7,507.608 413.943,502.397 417.186,497.213 420.429,492.058 423.672,486.931 426.915,481.834 430.158,476.766 433.401,471.729 436.644,466.723 439.887,461.748 443.13,456.804 446.373,451.893 449.616,447.015 452.859,442.17 456.103,437.358 459.346,432.581 462.589,427.839 465.832,423.132 469.075,418.46 472.318,413.825 475.561,409.226 478.804,404.664 482.047,400.14 485.29,395.653 488.533,391.205 491.776,386.796 495.019,382.426 498.262,378.096 501.505,373.806 504.748,369.557 507.991,365.348 511.234,361.181 514.477,357.056 517.72,352.973 520.963,348.933 524.206,344.936 527.449,340.982 530.692,337.072 533.935,333.207 537.178,329.386 540.421,325.61 543.664,321.88 546.907,318.195 550.15,314.556 553.393,310.964 556.636,307.419 559.879,303.921 563.122,300.471 566.366,297.068 569.609,293.714 572.852,290.408 576.095,287.152 579.338,283.944 582.581,280.786 585.824,277.678 589.067,274.62 592.31,271.613 595.553,268.657 598.796,265.751 602.039,262.897 605.282,260.095 608.525,257.344 611.768,254.646 615.011,252 618.254,249.407 621.497,246.868 624.74,244.381 627.983,241.948 631.226,239.568 634.469,237.243 637.712,234.972 640.955,232.755 644.198,230.593 647.441,228.486 650.684,226.434 653.927,224.438 657.17,222.497 660.413,220.611 663.656,218.782 666.899,217.009 670.142,215.291 673.385,213.631 676.629,212.027 679.872,210.479 683.115,208.989 686.358,207.555 689.601,206.179 692.844,204.86 696.087,203.599 699.33,202.395 702.573,201.249 705.816,200.161 709.059,199.131 712.302,198.159 715.545,197.245 718.788,196.389 722.031,195.592 725.274,194.852 728.517,194.172 731.76,193.55 735.003,192.986 738.246,192.482 741.489,192.036 744.732,191.648 747.975,191.32 751.218,191.05 754.461,190.839 757.704,190.687 760.947,190.594 764.19,190.56 767.433,190.585 770.676,190.669 773.919,190.811 777.162,191.013 780.405,191.273 783.648,191.592 786.892,191.97 790.135,192.407 793.378,192.902 796.621,193.456 799.864,194.069 803.107,194.74 806.35,195.47 809.593,196.258 812.836,197.105 816.079,198.009 819.322,198.972 822.565,199.993 825.808,201.072 829.051,202.209 832.294,203.404 835.537,204.656 838.78,205.965 842.023,207.332 845.266,208.757 848.509,210.238 851.752,211.776 854.995,213.371 858.238,215.023 861.481,216.731 864.724,218.496 867.967,220.316 871.21,222.193 874.453,224.125 877.696,226.113 880.939,228.156 884.182,230.254 887.425,232.407 890.668,234.615 893.911,236.878 897.155,239.195 900.398,241.565 903.641,243.99 906.884,246.468 910.127,248.999 913.37,251.584 916.613,254.221 919.856,256.911 923.099,259.653 926.342,262.447 929.585,265.293 932.828,268.19 936.071,271.139 939.314,274.138 942.557,277.188 945.8,280.288 949.043,283.438 952.286,286.637 955.529,289.886 958.772,293.184 962.015,296.531 965.258,299.926 968.501,303.368 971.744,306.859 974.987,310.397 978.23,313.981 981.473,317.612 984.716,321.29 987.959,325.013 991.202,328.782 994.445,332.595 997.688,336.454 1000.93,340.357 1004.17,344.303 1007.42,348.294 1010.66,352.327 1013.9,356.403 1017.15,360.522 1020.39,364.682 1023.63,368.884 1026.88,373.127 1030.12,377.41 1033.36,381.734 1036.6,386.097 1039.85,390.5 1043.09,394.942 1046.33,399.423 1049.58,403.941 1052.82,408.497 1056.06,413.09 1059.31,417.719 1062.55,422.385 1065.79,427.087 1069.04,431.824 1072.28,436.595 1075.52,441.401 1078.76,446.241 1082.01,451.114 1085.25,456.02 1088.49,460.958 1091.74,465.928 1094.98,470.93 1098.22,475.962 1101.47,481.025 1104.71,486.118 1107.95,491.24 1111.19,496.39 1114.44,501.569 1117.68,506.776 1120.92,512.011 1124.17,517.272 1127.41,522.559 1130.65,527.872 1133.9,533.21 1137.14,538.573 1140.38,543.959 1143.62,549.37 1146.87,554.803 1150.11,560.259 1153.35,565.737 1156.6,571.236 1159.84,576.756 1163.08,582.297 1166.33,587.857 1169.57,593.436 1172.81,599.034 1176.06,604.65 1179.3,610.283 1182.54,615.934 1185.78,621.6 1189.03,627.283 1192.27,632.981 1195.51,638.693 1198.76,644.42 1202,650.16 1205.24,655.913 1208.49,661.678 1211.73,667.455 1214.97,673.244 1218.21,679.043 1221.46,684.852 1224.7,690.671 1227.94,696.498 1231.19,702.334 1234.43,708.177 1237.67,714.028 1240.92,719.885 1244.16,725.748 1247.4,731.617 1250.64,737.49 1253.89,743.368 1257.13,749.249 1260.37,755.133 1263.62,761.02 1266.86,766.909 1270.1,772.798 1273.35,778.689 1276.59,784.58 1279.83,790.47 1283.08,796.359 1286.32,802.246 1289.56,808.131 1292.8,814.013 1296.05,819.892 1299.29,825.767 1302.53,831.637 1305.78,837.502 1309.02,843.361 1312.26,849.214 1315.51,855.06 1318.75,860.898 1321.99,866.729 1325.23,872.55 1328.48,878.362 1331.72,884.164 1334.96,889.956 1338.21,895.737 1341.45,901.506 1344.69,907.263 1347.94,913.008 1351.18,918.739 1354.42,924.456 1357.66,930.158 1360.91,935.846 1364.15,941.517 1367.39,947.173 1370.64,952.812 1373.88,958.434 1377.12,964.037 1380.37,969.623 1383.61,975.189 1386.85,980.735 1390.1,986.262 1393.34,991.768 1396.58,997.253 1399.82,1002.72 1403.07,1008.16 1406.31,1013.57 1409.55,1018.97 1412.8,1024.34 1416.04,1029.69 1419.28,1035.01 1422.53,1040.3 1425.77,1045.57 1429.01,1050.81 1432.25,1056.03 1435.5,1061.22 1438.74,1066.38 1441.98,1071.51 1445.23,1076.61 1448.47,1081.68 1451.71,1086.72 1454.96,1091.74 1458.2,1096.72 1461.44,1101.66 1464.68,1106.58 1467.93,1111.46 1471.17,1116.32 1474.41,1121.13 1477.66,1125.91 1480.9,1130.66 1484.14,1135.38 1487.39,1140.05 1490.63,1144.69 1493.87,1149.3 1497.11,1153.87 1500.36,1158.4 1503.6,1162.89 1506.84,1167.34 1510.09,1171.76 1513.33,1176.13 1516.57,1180.47 1519.82,1184.77 1523.06,1189.02 1526.3,1193.24 1529.55,1197.41 1532.79,1201.54 1536.03,1205.63 1539.27,1209.68 1542.52,1213.68 1545.76,1217.65 1549,1221.56 1552.25,1225.43 1555.49,1229.26 1558.73,1233.05 1561.98,1236.78 1565.22,1240.48 1568.46,1244.12 1571.7,1247.72 1574.95,1251.27 1578.19,1254.78 1581.43,1258.24 1584.68,1261.65 1587.92,1265.01 1591.16,1268.32 1594.41,1271.59 1597.65,1274.8 1600.89,1277.97 1604.13,1281.08 1607.38,1284.15 1610.62,1287.17 1613.86,1290.13 1617.11,1293.04 1620.35,1295.91 1623.59,1298.72 1626.84,1301.48 1630.08,1304.18 1633.32,1306.84 1636.57,1309.44 1639.81,1311.99 1643.05,1314.48 1646.29,1316.92 1649.54,1319.31 1652.78,1321.64 1656.02,1323.92 1659.27,1326.15 1662.51,1328.32 1665.75,1330.44 1669,1332.5 1672.24,1334.5 1675.48,1336.45 1678.72,1338.35 1681.97,1340.18 1685.21,1341.97 1688.45,1343.69 1691.7,1345.36 1694.94,1346.98 1698.18,1348.53 1701.43,1350.03 1704.67,1351.47 1707.91,1352.86 1711.15,1354.19 1714.4,1355.46 1717.64,1356.67 1720.88,1357.83 1724.13,1358.92 1727.37,1359.96 1730.61,1360.94 1733.86,1361.87 1737.1,1362.73 1740.34,1363.54 1743.59,1364.29 1746.83,1364.98 1750.07,1365.61 1753.31,1366.18 1756.56,1366.7 1759.8,1367.15 1763.04,1367.55 1766.29,1367.89 1769.53,1368.17 1772.77,1368.39 1776.02,1368.55 1779.26,1368.65 1782.5,1368.69 1785.74,1368.68 1788.99,1368.6 1792.23,1368.47 1795.47,1368.28 1798.72,1368.03 1801.96,1367.72 1805.2,1367.35 1808.45,1366.92 1811.69,1366.44 1814.93,1365.89 1818.17,1365.29 1821.42,1364.63 1824.66,1363.9 1827.9,1363.13 1831.15,1362.29 1834.39,1361.39 1837.63,1360.44 1840.88,1359.43 1844.12,1358.36 1847.36,1357.23 1850.61,1356.04 1853.85,1354.8 1857.09,1353.5 1860.33,1352.14 1863.58,1350.73 1866.82,1349.26 1870.06,1347.73 1873.31,1346.14 1876.55,1344.5 1879.79,1342.8 1883.04,1341.04 1886.28,1339.23 1889.52,1337.36 1892.76,1335.44 1896.01,1333.46 1899.25,1331.43 1902.49,1329.34 1905.74,1327.19 1908.98,1324.99 1912.22,1322.74 1915.47,1320.43 1918.71,1318.07 1921.95,1315.65 1925.19,1313.18 1928.44,1310.66 1931.68,1308.09 1934.92,1305.46 1938.17,1302.78 1941.41,1300.04 1944.65,1297.26 1947.9,1294.42 1951.14,1291.53 1954.38,1288.59 1957.63,1285.6 1960.87,1282.56 1964.11,1279.46 1967.35,1276.32 1970.6,1273.13 1973.84,1269.89 1977.08,1266.6 1980.33,1263.26 1983.57,1259.87 1986.81,1256.44 1990.06,1252.95 1993.3,1249.42 1996.54,1245.85 1999.78,1242.22 2003.03,1238.55 2006.27,1234.84 2009.51,1231.08 2012.76,1227.27 2016,1223.42 2019.24,1219.52 2022.49,1215.58 2025.73,1211.6 2028.97,1207.57 2032.21,1203.5 2035.46,1199.39 2038.7,1195.24 2041.94,1191.04 2045.19,1186.81 2048.43,1182.53 2051.67,1178.21 2054.92,1173.85 2058.16,1169.46 2061.4,1165.02 2064.65,1160.55 2067.89,1156.04 2071.13,1151.49 2074.37,1146.9 2077.62,1142.27 2080.86,1137.61 2084.1,1132.92 2087.35,1128.19 2090.59,1123.42 2093.83,1118.62 2097.08,1113.79 2100.32,1108.92 2103.56,1104.02 2106.8,1099.08 2110.05,1094.12 2113.29,1089.12 2116.53,1084.1 2119.78,1079.04 2123.02,1073.95 2126.26,1068.83 2129.51,1063.69 2132.75,1058.51 2135.99,1053.31 2139.23,1048.08 2142.48,1042.82 2145.72,1037.54 2148.96,1032.23 2152.21,1026.9 2155.45,1021.54 2158.69,1016.15 2161.94,1010.75 2165.18,1005.32 2168.42,999.866 2171.67,994.391 2174.91,988.895 2178.15,983.379 2181.39,977.841 2184.64,972.284 2187.88,966.708 2191.12,961.113 2194.37,955.5 2197.61,949.869 2200.85,944.222 2204.1,938.558 2207.34,932.877 2210.58,927.182 2213.82,921.472 2217.07,915.748 2220.31,910.01 2223.55,904.259 2226.8,898.495 2230.04,892.72 2233.28,886.933 2236.53,881.136 2239.77,875.328 2243.01,869.511 2246.25,863.685 2249.5,857.851 2252.74,852.008 2255.98,846.159 2259.23,840.302 2262.47,834.44 2265.71,828.572 2268.96,822.7 2272.2,816.823 2275.44,810.942 2278.69,805.058 2281.93,799.172 2285.17,793.284 2288.41,787.394 2291.66,781.504 "/>
<circle clip-path="url(#clip502)" cx="1296.05" cy="679.111" r="14.4" fill="#e26f46" fill-rule="evenodd" fill-opacity="1" stroke="#000000" stroke-opacity="1" stroke-width="3.2"/>
<circle clip-path="url(#clip502)" cx="310.166" cy="655.077" r="14.4" fill="#e26f46" fill-rule="evenodd" fill-opacity="1" stroke="#000000" stroke-opacity="1" stroke-width="3.2"/>
<circle clip-path="url(#clip502)" cx="482.047" cy="510.433" r="14.4" fill="#e26f46" fill-rule="evenodd" fill-opacity="1" stroke="#000000" stroke-opacity="1" stroke-width="3.2"/>
<circle clip-path="url(#clip502)" cx="407.457" cy="457.744" r="14.4" fill="#e26f46" fill-rule="evenodd" fill-opacity="1" stroke="#000000" stroke-opacity="1" stroke-width="3.2"/>
<circle clip-path="url(#clip502)" cx="2067.89" cy="1138.15" r="14.4" fill="#e26f46" fill-rule="evenodd" fill-opacity="1" stroke="#000000" stroke-opacity="1" stroke-width="3.2"/>
<circle clip-path="url(#clip502)" cx="2207.34" cy="883.639" r="14.4" fill="#e26f46" fill-rule="evenodd" fill-opacity="1" stroke="#000000" stroke-opacity="1" stroke-width="3.2"/>
<circle clip-path="url(#clip502)" cx="679.872" cy="113.077" r="14.4" fill="#e26f46" fill-rule="evenodd" fill-opacity="1" stroke="#000000" stroke-opacity="1" stroke-width="3.2"/>
<circle clip-path="url(#clip502)" cx="1672.24" cy="1286.6" r="14.4" fill="#e26f46" fill-rule="evenodd" fill-opacity="1" stroke="#000000" stroke-opacity="1" stroke-width="3.2"/>
<circle clip-path="url(#clip502)" cx="803.107" cy="87.9763" r="14.4" fill="#e26f46" fill-rule="evenodd" fill-opacity="1" stroke="#000000" stroke-opacity="1" stroke-width="3.2"/>
<circle clip-path="url(#clip502)" cx="2126.26" cy="1101.19" r="14.4" fill="#e26f46" fill-rule="evenodd" fill-opacity="1" stroke="#000000" stroke-opacity="1" stroke-width="3.2"/>
<circle clip-path="url(#clip502)" cx="842.023" cy="227.452" r="14.4" fill="#e26f46" fill-rule="evenodd" fill-opacity="1" stroke="#000000" stroke-opacity="1" stroke-width="3.2"/>
<circle clip-path="url(#clip502)" cx="871.21" cy="141.224" r="14.4" fill="#e26f46" fill-rule="evenodd" fill-opacity="1" stroke="#000000" stroke-opacity="1" stroke-width="3.2"/>
<circle clip-path="url(#clip502)" cx="1662.51" cy="1310.35" r="14.4" fill="#e26f46" fill-rule="evenodd" fill-opacity="1" stroke="#000000" stroke-opacity="1" stroke-width="3.2"/>
<circle clip-path="url(#clip502)" cx="1759.8" cy="1445.72" r="14.4" fill="#e26f46" fill-rule="evenodd" fill-opacity="1" stroke="#000000" stroke-opacity="1" stroke-width="3.2"/>
<circle clip-path="url(#clip502)" cx="1023.63" cy="259.64" r="14.4" fill="#e26f46" fill-rule="evenodd" fill-opacity="1" stroke="#000000" stroke-opacity="1" stroke-width="3.2"/>
<circle clip-path="url(#clip502)" cx="1578.19" cy="1132.72" r="14.4" fill="#e26f46" fill-rule="evenodd" fill-opacity="1" stroke="#000000" stroke-opacity="1" stroke-width="3.2"/>
<circle clip-path="url(#clip502)" cx="1033.36" cy="412.703" r="14.4" fill="#e26f46" fill-rule="evenodd" fill-opacity="1" stroke="#000000" stroke-opacity="1" stroke-width="3.2"/>
<circle clip-path="url(#clip502)" cx="274.493" cy="620.112" r="14.4" fill="#e26f46" fill-rule="evenodd" fill-opacity="1" stroke="#000000" stroke-opacity="1" stroke-width="3.2"/>
<circle clip-path="url(#clip502)" cx="274.493" cy="613.034" r="14.4" fill="#e26f46" fill-rule="evenodd" fill-opacity="1" stroke="#000000" stroke-opacity="1" stroke-width="3.2"/>
<circle clip-path="url(#clip502)" cx="1163.08" cy="722.263" r="14.4" fill="#e26f46" fill-rule="evenodd" fill-opacity="1" stroke="#000000" stroke-opacity="1" stroke-width="3.2"/>
<path clip-path="url(#clip500)" d="M1953.46 250.738 L2280.8 250.738 L2280.8 95.2176 L1953.46 95.2176  Z" fill="#ffffff" fill-rule="evenodd" fill-opacity="1"/>
<polyline clip-path="url(#clip500)" style="stroke:#000000; stroke-linecap:round; stroke-linejoin:round; stroke-width:4; stroke-opacity:1; fill:none" points="1953.46,250.738 2280.8,250.738 2280.8,95.2176 1953.46,95.2176 1953.46,250.738 "/>
<polyline clip-path="url(#clip500)" style="stroke:#009af9; stroke-linecap:round; stroke-linejoin:round; stroke-width:4; stroke-opacity:1; fill:none" points="1977.44,147.058 2121.36,147.058 "/>
<path clip-path="url(#clip500)" d="M2152.76 131.051 L2152.76 138.412 L2161.53 138.412 L2161.53 141.722 L2152.76 141.722 L2152.76 155.796 Q2152.76 158.967 2153.61 159.87 Q2154.49 160.773 2157.16 160.773 L2161.53 160.773 L2161.53 164.338 L2157.16 164.338 Q2152.23 164.338 2150.35 162.509 Q2148.48 160.657 2148.48 155.796 L2148.48 141.722 L2145.35 141.722 L2145.35 138.412 L2148.48 138.412 L2148.48 131.051 L2152.76 131.051 Z" fill="#000000" fill-rule="nonzero" fill-opacity="1" /><path clip-path="url(#clip500)" d="M2182.16 142.393 Q2181.44 141.977 2180.58 141.791 Q2179.75 141.583 2178.73 141.583 Q2175.12 141.583 2173.17 143.944 Q2171.25 146.282 2171.25 150.68 L2171.25 164.338 L2166.97 164.338 L2166.97 138.412 L2171.25 138.412 L2171.25 142.44 Q2172.6 140.078 2174.75 138.944 Q2176.9 137.787 2179.98 137.787 Q2180.42 137.787 2180.95 137.856 Q2181.48 137.903 2182.13 138.018 L2182.16 142.393 Z" fill="#000000" fill-rule="nonzero" fill-opacity="1" /><path clip-path="url(#clip500)" d="M2186.18 154.106 L2186.18 138.412 L2190.44 138.412 L2190.44 153.944 Q2190.44 157.625 2191.88 159.476 Q2193.31 161.305 2196.18 161.305 Q2199.63 161.305 2201.62 159.106 Q2203.64 156.907 2203.64 153.111 L2203.64 138.412 L2207.9 138.412 L2207.9 164.338 L2203.64 164.338 L2203.64 160.356 Q2202.09 162.717 2200.03 163.875 Q2197.99 165.009 2195.28 165.009 Q2190.81 165.009 2188.5 162.231 Q2186.18 159.453 2186.18 154.106 M2196.9 137.787 L2196.9 137.787 Z" fill="#000000" fill-rule="nonzero" fill-opacity="1" /><path clip-path="url(#clip500)" d="M2220.88 131.051 L2220.88 138.412 L2229.66 138.412 L2229.66 141.722 L2220.88 141.722 L2220.88 155.796 Q2220.88 158.967 2221.74 159.87 Q2222.62 160.773 2225.28 160.773 L2229.66 160.773 L2229.66 164.338 L2225.28 164.338 Q2220.35 164.338 2218.48 162.509 Q2216.6 160.657 2216.6 155.796 L2216.6 141.722 L2213.48 141.722 L2213.48 138.412 L2216.6 138.412 L2216.6 131.051 L2220.88 131.051 Z" fill="#000000" fill-rule="nonzero" fill-opacity="1" /><path clip-path="url(#clip500)" d="M2256.81 148.689 L2256.81 164.338 L2252.55 164.338 L2252.55 148.828 Q2252.55 145.148 2251.11 143.319 Q2249.68 141.49 2246.81 141.49 Q2243.36 141.49 2241.37 143.69 Q2239.38 145.889 2239.38 149.685 L2239.38 164.338 L2235.1 164.338 L2235.1 128.319 L2239.38 128.319 L2239.38 142.44 Q2240.91 140.102 2242.97 138.944 Q2245.05 137.787 2247.76 137.787 Q2252.23 137.787 2254.52 140.565 Q2256.81 143.319 2256.81 148.689 Z" fill="#000000" fill-rule="nonzero" fill-opacity="1" /><circle clip-path="url(#clip500)" cx="2049.4" cy="198.898" r="20.48" fill="#e26f46" fill-rule="evenodd" fill-opacity="1" stroke="#000000" stroke-opacity="1" stroke-width="4.55111"/>
<path clip-path="url(#clip500)" d="M2164.26 194.187 L2164.26 180.159 L2168.52 180.159 L2168.52 216.178 L2164.26 216.178 L2164.26 212.289 Q2162.92 214.603 2160.86 215.738 Q2158.82 216.849 2155.95 216.849 Q2151.25 216.849 2148.29 213.099 Q2145.35 209.349 2145.35 203.238 Q2145.35 197.127 2148.29 193.377 Q2151.25 189.627 2155.95 189.627 Q2158.82 189.627 2160.86 190.761 Q2162.92 191.872 2164.26 194.187 M2149.75 203.238 Q2149.75 207.937 2151.67 210.622 Q2153.61 213.284 2156.99 213.284 Q2160.37 213.284 2162.32 210.622 Q2164.26 207.937 2164.26 203.238 Q2164.26 198.539 2162.32 195.877 Q2160.37 193.192 2156.99 193.192 Q2153.61 193.192 2151.67 195.877 Q2149.75 198.539 2149.75 203.238 Z" fill="#000000" fill-rule="nonzero" fill-opacity="1" /><path clip-path="url(#clip500)" d="M2189.08 203.145 Q2183.92 203.145 2181.92 204.326 Q2179.93 205.506 2179.93 208.354 Q2179.93 210.622 2181.42 211.965 Q2182.92 213.284 2185.49 213.284 Q2189.03 213.284 2191.16 210.784 Q2193.31 208.261 2193.31 204.094 L2193.31 203.145 L2189.08 203.145 M2197.57 201.386 L2197.57 216.178 L2193.31 216.178 L2193.31 212.242 Q2191.85 214.603 2189.68 215.738 Q2187.5 216.849 2184.36 216.849 Q2180.37 216.849 2178.01 214.627 Q2175.67 212.381 2175.67 208.631 Q2175.67 204.256 2178.59 202.034 Q2181.53 199.812 2187.34 199.812 L2193.31 199.812 L2193.31 199.395 Q2193.31 196.455 2191.37 194.858 Q2189.45 193.238 2185.95 193.238 Q2183.73 193.238 2181.62 193.77 Q2179.52 194.303 2177.57 195.367 L2177.57 191.432 Q2179.91 190.53 2182.11 190.09 Q2184.31 189.627 2186.39 189.627 Q2192.02 189.627 2194.79 192.543 Q2197.57 195.46 2197.57 201.386 Z" fill="#000000" fill-rule="nonzero" fill-opacity="1" /><path clip-path="url(#clip500)" d="M2210.56 182.891 L2210.56 190.252 L2219.33 190.252 L2219.33 193.562 L2210.56 193.562 L2210.56 207.636 Q2210.56 210.807 2211.42 211.71 Q2212.29 212.613 2214.96 212.613 L2219.33 212.613 L2219.33 216.178 L2214.96 216.178 Q2210.03 216.178 2208.15 214.349 Q2206.28 212.497 2206.28 207.636 L2206.28 193.562 L2203.15 193.562 L2203.15 190.252 L2206.28 190.252 L2206.28 182.891 L2210.56 182.891 Z" fill="#000000" fill-rule="nonzero" fill-opacity="1" /><path clip-path="url(#clip500)" d="M2236.72 203.145 Q2231.55 203.145 2229.56 204.326 Q2227.57 205.506 2227.57 208.354 Q2227.57 210.622 2229.05 211.965 Q2230.56 213.284 2233.13 213.284 Q2236.67 213.284 2238.8 210.784 Q2240.95 208.261 2240.95 204.094 L2240.95 203.145 L2236.72 203.145 M2245.21 201.386 L2245.21 216.178 L2240.95 216.178 L2240.95 212.242 Q2239.49 214.603 2237.32 215.738 Q2235.14 216.849 2231.99 216.849 Q2228.01 216.849 2225.65 214.627 Q2223.31 212.381 2223.31 208.631 Q2223.31 204.256 2226.23 202.034 Q2229.17 199.812 2234.98 199.812 L2240.95 199.812 L2240.95 199.395 Q2240.95 196.455 2239.01 194.858 Q2237.09 193.238 2233.59 193.238 Q2231.37 193.238 2229.26 193.77 Q2227.16 194.303 2225.21 195.367 L2225.21 191.432 Q2227.55 190.53 2229.75 190.09 Q2231.95 189.627 2234.03 189.627 Q2239.66 189.627 2242.43 192.543 Q2245.21 195.46 2245.21 201.386 Z" fill="#000000" fill-rule="nonzero" fill-opacity="1" /></svg>
