<?xml version="1.0" encoding="utf-8"?>
<svg xmlns="http://www.w3.org/2000/svg" xmlns:xlink="http://www.w3.org/1999/xlink" width="600" height="400" viewBox="0 0 2400 1600">
<defs>
  <clipPath id="clip090">
    <rect x="0" y="0" width="2400" height="1600"/>
  </clipPath>
</defs>
<path clip-path="url(#clip090)" d="M0 1600 L2400 1600 L2400 0 L0 0  Z" fill="#ffffff" fill-rule="evenodd" fill-opacity="1"/>
<defs>
  <clipPath id="clip091">
    <rect x="480" y="0" width="1681" height="1600"/>
  </clipPath>
</defs>
<path clip-path="url(#clip090)" d="M193.936 1486.45 L2352.76 1486.45 L2352.76 47.2441 L193.936 47.2441  Z" fill="#ffffff" fill-rule="evenodd" fill-opacity="1"/>
<defs>
  <clipPath id="clip092">
    <rect x="193" y="47" width="2160" height="1440"/>
  </clipPath>
</defs>
<polyline clip-path="url(#clip092)" style="stroke:#000000; stroke-linecap:round; stroke-linejoin:round; stroke-width:2; stroke-opacity:0.1; fill:none" points="255.035,1486.45 255.035,47.2441 "/>
<polyline clip-path="url(#clip092)" style="stroke:#000000; stroke-linecap:round; stroke-linejoin:round; stroke-width:2; stroke-opacity:0.1; fill:none" points="579.338,1486.45 579.338,47.2441 "/>
<polyline clip-path="url(#clip092)" style="stroke:#000000; stroke-linecap:round; stroke-linejoin:round; stroke-width:2; stroke-opacity:0.1; fill:none" points="903.641,1486.45 903.641,47.2441 "/>
<polyline clip-path="url(#clip092)" style="stroke:#000000; stroke-linecap:round; stroke-linejoin:round; stroke-width:2; stroke-opacity:0.1; fill:none" points="1227.94,1486.45 1227.94,47.2441 "/>
<polyline clip-path="url(#clip092)" style="stroke:#000000; stroke-linecap:round; stroke-linejoin:round; stroke-width:2; stroke-opacity:0.1; fill:none" points="1552.25,1486.45 1552.25,47.2441 "/>
<polyline clip-path="url(#clip092)" style="stroke:#000000; stroke-linecap:round; stroke-linejoin:round; stroke-width:2; stroke-opacity:0.1; fill:none" points="1876.55,1486.45 1876.55,47.2441 "/>
<polyline clip-path="url(#clip092)" style="stroke:#000000; stroke-linecap:round; stroke-linejoin:round; stroke-width:2; stroke-opacity:0.1; fill:none" points="2200.85,1486.45 2200.85,47.2441 "/>
<polyline clip-path="url(#clip092)" style="stroke:#000000; stroke-linecap:round; stroke-linejoin:round; stroke-width:2; stroke-opacity:0.1; fill:none" points="193.936,1301.32 2352.76,1301.32 "/>
<polyline clip-path="url(#clip092)" style="stroke:#000000; stroke-linecap:round; stroke-linejoin:round; stroke-width:2; stroke-opacity:0.1; fill:none" points="193.936,1039.96 2352.76,1039.96 "/>
<polyline clip-path="url(#clip092)" style="stroke:#000000; stroke-linecap:round; stroke-linejoin:round; stroke-width:2; stroke-opacity:0.1; fill:none" points="193.936,778.591 2352.76,778.591 "/>
<polyline clip-path="url(#clip092)" style="stroke:#000000; stroke-linecap:round; stroke-linejoin:round; stroke-width:2; stroke-opacity:0.1; fill:none" points="193.936,517.227 2352.76,517.227 "/>
<polyline clip-path="url(#clip092)" style="stroke:#000000; stroke-linecap:round; stroke-linejoin:round; stroke-width:2; stroke-opacity:0.1; fill:none" points="193.936,255.862 2352.76,255.862 "/>
<polyline clip-path="url(#clip090)" style="stroke:#000000; stroke-linecap:round; stroke-linejoin:round; stroke-width:4; stroke-opacity:1; fill:none" points="193.936,1486.45 2352.76,1486.45 "/>
<polyline clip-path="url(#clip090)" style="stroke:#000000; stroke-linecap:round; stroke-linejoin:round; stroke-width:4; stroke-opacity:1; fill:none" points="255.035,1486.45 255.035,1467.55 "/>
<polyline clip-path="url(#clip090)" style="stroke:#000000; stroke-linecap:round; stroke-linejoin:round; stroke-width:4; stroke-opacity:1; fill:none" points="579.338,1486.45 579.338,1467.55 "/>
<polyline clip-path="url(#clip090)" style="stroke:#000000; stroke-linecap:round; stroke-linejoin:round; stroke-width:4; stroke-opacity:1; fill:none" points="903.641,1486.45 903.641,1467.55 "/>
<polyline clip-path="url(#clip090)" style="stroke:#000000; stroke-linecap:round; stroke-linejoin:round; stroke-width:4; stroke-opacity:1; fill:none" points="1227.94,1486.45 1227.94,1467.55 "/>
<polyline clip-path="url(#clip090)" style="stroke:#000000; stroke-linecap:round; stroke-linejoin:round; stroke-width:4; stroke-opacity:1; fill:none" points="1552.25,1486.45 1552.25,1467.55 "/>
<polyline clip-path="url(#clip090)" style="stroke:#000000; stroke-linecap:round; stroke-linejoin:round; stroke-width:4; stroke-opacity:1; fill:none" points="1876.55,1486.45 1876.55,1467.55 "/>
<polyline clip-path="url(#clip090)" style="stroke:#000000; stroke-linecap:round; stroke-linejoin:round; stroke-width:4; stroke-opacity:1; fill:none" points="2200.85,1486.45 2200.85,1467.55 "/>
<path clip-path="url(#clip090)" d="M255.035 1517.37 Q251.424 1517.37 249.595 1520.93 Q247.789 1524.47 247.789 1531.6 Q247.789 1538.71 249.595 1542.27 Q251.424 1545.82 255.035 1545.82 Q258.669 1545.82 260.474 1542.27 Q262.303 1538.71 262.303 1531.6 Q262.303 1524.47 260.474 1520.93 Q258.669 1517.37 255.035 1517.37 M255.035 1513.66 Q260.845 1513.66 263.9 1518.27 Q266.979 1522.85 266.979 1531.6 Q266.979 1540.33 263.9 1544.94 Q260.845 1549.52 255.035 1549.52 Q249.225 1549.52 246.146 1544.94 Q243.09 1540.33 243.09 1531.6 Q243.09 1522.85 246.146 1518.27 Q249.225 1513.66 255.035 1513.66 Z" fill="#000000" fill-rule="nonzero" fill-opacity="1" /><path clip-path="url(#clip090)" d="M569.72 1544.91 L577.358 1544.91 L577.358 1518.55 L569.048 1520.21 L569.048 1515.95 L577.312 1514.29 L581.988 1514.29 L581.988 1544.91 L589.627 1544.91 L589.627 1548.85 L569.72 1548.85 L569.72 1544.91 Z" fill="#000000" fill-rule="nonzero" fill-opacity="1" /><path clip-path="url(#clip090)" d="M898.293 1544.91 L914.613 1544.91 L914.613 1548.85 L892.668 1548.85 L892.668 1544.91 Q895.33 1542.16 899.914 1537.53 Q904.52 1532.88 905.701 1531.53 Q907.946 1529.01 908.826 1527.27 Q909.729 1525.51 909.729 1523.82 Q909.729 1521.07 907.784 1519.33 Q905.863 1517.6 902.761 1517.6 Q900.562 1517.6 898.108 1518.36 Q895.678 1519.13 892.9 1520.68 L892.9 1515.95 Q895.724 1514.82 898.178 1514.24 Q900.631 1513.66 902.668 1513.66 Q908.039 1513.66 911.233 1516.35 Q914.428 1519.03 914.428 1523.52 Q914.428 1525.65 913.617 1527.57 Q912.83 1529.47 910.724 1532.07 Q910.145 1532.74 907.043 1535.95 Q903.942 1539.15 898.293 1544.91 Z" fill="#000000" fill-rule="nonzero" fill-opacity="1" /><path clip-path="url(#clip090)" d="M1232.19 1530.21 Q1235.55 1530.93 1237.42 1533.2 Q1239.32 1535.47 1239.32 1538.8 Q1239.32 1543.92 1235.8 1546.72 Q1232.28 1549.52 1225.8 1549.52 Q1223.63 1549.52 1221.31 1549.08 Q1219.02 1548.66 1216.57 1547.81 L1216.57 1543.29 Q1218.51 1544.43 1220.83 1545.01 Q1223.14 1545.58 1225.66 1545.58 Q1230.06 1545.58 1232.35 1543.85 Q1234.67 1542.11 1234.67 1538.8 Q1234.67 1535.75 1232.52 1534.03 Q1230.39 1532.3 1226.57 1532.3 L1222.54 1532.3 L1222.54 1528.45 L1226.75 1528.45 Q1230.2 1528.45 1232.03 1527.09 Q1233.86 1525.7 1233.86 1523.11 Q1233.86 1520.45 1231.96 1519.03 Q1230.08 1517.6 1226.57 1517.6 Q1224.64 1517.6 1222.45 1518.01 Q1220.25 1518.43 1217.61 1519.31 L1217.61 1515.14 Q1220.27 1514.4 1222.58 1514.03 Q1224.92 1513.66 1226.98 1513.66 Q1232.31 1513.66 1235.41 1516.09 Q1238.51 1518.5 1238.51 1522.62 Q1238.51 1525.49 1236.87 1527.48 Q1235.22 1529.45 1232.19 1530.21 Z" fill="#000000" fill-rule="nonzero" fill-opacity="1" /><path clip-path="url(#clip090)" d="M1555.26 1518.36 L1543.45 1536.81 L1555.26 1536.81 L1555.26 1518.36 M1554.03 1514.29 L1559.91 1514.29 L1559.91 1536.81 L1564.84 1536.81 L1564.84 1540.7 L1559.91 1540.7 L1559.91 1548.85 L1555.26 1548.85 L1555.26 1540.7 L1539.65 1540.7 L1539.65 1536.19 L1554.03 1514.29 Z" fill="#000000" fill-rule="nonzero" fill-opacity="1" /><path clip-path="url(#clip090)" d="M1866.83 1514.29 L1885.18 1514.29 L1885.18 1518.22 L1871.11 1518.22 L1871.11 1526.7 Q1872.13 1526.35 1873.15 1526.19 Q1874.17 1526 1875.18 1526 Q1880.97 1526 1884.35 1529.17 Q1887.73 1532.34 1887.73 1537.76 Q1887.73 1543.34 1884.26 1546.44 Q1880.79 1549.52 1874.47 1549.52 Q1872.29 1549.52 1870.02 1549.15 Q1867.78 1548.78 1865.37 1548.04 L1865.37 1543.34 Q1867.45 1544.47 1869.67 1545.03 Q1871.9 1545.58 1874.37 1545.58 Q1878.38 1545.58 1880.72 1543.48 Q1883.05 1541.37 1883.05 1537.76 Q1883.05 1534.15 1880.72 1532.04 Q1878.38 1529.94 1874.37 1529.94 Q1872.5 1529.94 1870.62 1530.35 Q1868.77 1530.77 1866.83 1531.65 L1866.83 1514.29 Z" fill="#000000" fill-rule="nonzero" fill-opacity="1" /><path clip-path="url(#clip090)" d="M2201.26 1529.7 Q2198.11 1529.7 2196.26 1531.86 Q2194.43 1534.01 2194.43 1537.76 Q2194.43 1541.49 2196.26 1543.66 Q2198.11 1545.82 2201.26 1545.82 Q2204.41 1545.82 2206.23 1543.66 Q2208.09 1541.49 2208.09 1537.76 Q2208.09 1534.01 2206.23 1531.86 Q2204.41 1529.7 2201.26 1529.7 M2210.54 1515.05 L2210.54 1519.31 Q2208.78 1518.48 2206.98 1518.04 Q2205.19 1517.6 2203.43 1517.6 Q2198.8 1517.6 2196.35 1520.72 Q2193.92 1523.85 2193.57 1530.17 Q2194.94 1528.15 2197 1527.09 Q2199.06 1526 2201.54 1526 Q2206.74 1526 2209.75 1529.17 Q2212.79 1532.32 2212.79 1537.76 Q2212.79 1543.08 2209.64 1546.3 Q2206.49 1549.52 2201.26 1549.52 Q2195.26 1549.52 2192.09 1544.94 Q2188.92 1540.33 2188.92 1531.6 Q2188.92 1523.41 2192.81 1518.55 Q2196.7 1513.66 2203.25 1513.66 Q2205.01 1513.66 2206.79 1514.01 Q2208.6 1514.36 2210.54 1515.05 Z" fill="#000000" fill-rule="nonzero" fill-opacity="1" /><polyline clip-path="url(#clip090)" style="stroke:#000000; stroke-linecap:round; stroke-linejoin:round; stroke-width:4; stroke-opacity:1; fill:none" points="193.936,1486.45 193.936,47.2441 "/>
<polyline clip-path="url(#clip090)" style="stroke:#000000; stroke-linecap:round; stroke-linejoin:round; stroke-width:4; stroke-opacity:1; fill:none" points="193.936,1301.32 212.834,1301.32 "/>
<polyline clip-path="url(#clip090)" style="stroke:#000000; stroke-linecap:round; stroke-linejoin:round; stroke-width:4; stroke-opacity:1; fill:none" points="193.936,1039.96 212.834,1039.96 "/>
<polyline clip-path="url(#clip090)" style="stroke:#000000; stroke-linecap:round; stroke-linejoin:round; stroke-width:4; stroke-opacity:1; fill:none" points="193.936,778.591 212.834,778.591 "/>
<polyline clip-path="url(#clip090)" style="stroke:#000000; stroke-linecap:round; stroke-linejoin:round; stroke-width:4; stroke-opacity:1; fill:none" points="193.936,517.227 212.834,517.227 "/>
<polyline clip-path="url(#clip090)" style="stroke:#000000; stroke-linecap:round; stroke-linejoin:round; stroke-width:4; stroke-opacity:1; fill:none" points="193.936,255.862 212.834,255.862 "/>
<path clip-path="url(#clip090)" d="M50.9921 1301.77 L80.6679 1301.77 L80.6679 1305.71 L50.9921 1305.71 L50.9921 1301.77 Z" fill="#000000" fill-rule="nonzero" fill-opacity="1" /><path clip-path="url(#clip090)" d="M91.5706 1314.67 L99.2095 1314.67 L99.2095 1288.3 L90.8993 1289.97 L90.8993 1285.71 L99.1632 1284.04 L103.839 1284.04 L103.839 1314.67 L111.478 1314.67 L111.478 1318.6 L91.5706 1318.6 L91.5706 1314.67 Z" fill="#000000" fill-rule="nonzero" fill-opacity="1" /><path clip-path="url(#clip090)" d="M120.922 1312.72 L125.807 1312.72 L125.807 1318.6 L120.922 1318.6 L120.922 1312.72 Z" fill="#000000" fill-rule="nonzero" fill-opacity="1" /><path clip-path="url(#clip090)" d="M145.992 1287.12 Q142.381 1287.12 140.552 1290.68 Q138.746 1294.23 138.746 1301.35 Q138.746 1308.46 140.552 1312.03 Q142.381 1315.57 145.992 1315.57 Q149.626 1315.57 151.431 1312.03 Q153.26 1308.46 153.26 1301.35 Q153.26 1294.23 151.431 1290.68 Q149.626 1287.12 145.992 1287.12 M145.992 1283.42 Q151.802 1283.42 154.857 1288.02 Q157.936 1292.6 157.936 1301.35 Q157.936 1310.08 154.857 1314.69 Q151.802 1319.27 145.992 1319.27 Q140.181 1319.27 137.103 1314.69 Q134.047 1310.08 134.047 1301.35 Q134.047 1292.6 137.103 1288.02 Q140.181 1283.42 145.992 1283.42 Z" fill="#000000" fill-rule="nonzero" fill-opacity="1" /><path clip-path="url(#clip090)" d="M51.9875 1040.41 L81.6633 1040.41 L81.6633 1044.34 L51.9875 1044.34 L51.9875 1040.41 Z" fill="#000000" fill-rule="nonzero" fill-opacity="1" /><path clip-path="url(#clip090)" d="M101.756 1025.75 Q98.1447 1025.75 96.316 1029.32 Q94.5104 1032.86 94.5104 1039.99 Q94.5104 1047.1 96.316 1050.66 Q98.1447 1054.2 101.756 1054.2 Q105.39 1054.2 107.196 1050.66 Q109.024 1047.1 109.024 1039.99 Q109.024 1032.86 107.196 1029.32 Q105.39 1025.75 101.756 1025.75 M101.756 1022.05 Q107.566 1022.05 110.621 1026.66 Q113.7 1031.24 113.7 1039.99 Q113.7 1048.72 110.621 1053.32 Q107.566 1057.91 101.756 1057.91 Q95.9456 1057.91 92.8669 1053.32 Q89.8114 1048.72 89.8114 1039.99 Q89.8114 1031.24 92.8669 1026.66 Q95.9456 1022.05 101.756 1022.05 Z" fill="#000000" fill-rule="nonzero" fill-opacity="1" /><path clip-path="url(#clip090)" d="M121.918 1051.36 L126.802 1051.36 L126.802 1057.24 L121.918 1057.24 L121.918 1051.36 Z" fill="#000000" fill-rule="nonzero" fill-opacity="1" /><path clip-path="url(#clip090)" d="M137.033 1022.68 L155.39 1022.68 L155.39 1026.61 L141.316 1026.61 L141.316 1035.08 Q142.334 1034.74 143.353 1034.57 Q144.371 1034.39 145.39 1034.39 Q151.177 1034.39 154.556 1037.56 Q157.936 1040.73 157.936 1046.15 Q157.936 1051.73 154.464 1054.83 Q150.992 1057.91 144.672 1057.91 Q142.496 1057.91 140.228 1057.54 Q137.982 1057.17 135.575 1056.43 L135.575 1051.73 Q137.658 1052.86 139.881 1053.42 Q142.103 1053.97 144.58 1053.97 Q148.584 1053.97 150.922 1051.87 Q153.26 1049.76 153.26 1046.15 Q153.26 1042.54 150.922 1040.43 Q148.584 1038.32 144.58 1038.32 Q142.705 1038.32 140.83 1038.74 Q138.978 1039.16 137.033 1040.04 L137.033 1022.68 Z" fill="#000000" fill-rule="nonzero" fill-opacity="1" /><path clip-path="url(#clip090)" d="M100.76 764.39 Q97.1493 764.39 95.3206 767.955 Q93.515 771.496 93.515 778.626 Q93.515 785.732 95.3206 789.297 Q97.1493 792.839 100.76 792.839 Q104.395 792.839 106.2 789.297 Q108.029 785.732 108.029 778.626 Q108.029 771.496 106.2 767.955 Q104.395 764.39 100.76 764.39 M100.76 760.686 Q106.571 760.686 109.626 765.293 Q112.705 769.876 112.705 778.626 Q112.705 787.353 109.626 791.959 Q106.571 796.543 100.76 796.543 Q94.9502 796.543 91.8715 791.959 Q88.816 787.353 88.816 778.626 Q88.816 769.876 91.8715 765.293 Q94.9502 760.686 100.76 760.686 Z" fill="#000000" fill-rule="nonzero" fill-opacity="1" /><path clip-path="url(#clip090)" d="M120.922 789.992 L125.807 789.992 L125.807 795.871 L120.922 795.871 L120.922 789.992 Z" fill="#000000" fill-rule="nonzero" fill-opacity="1" /><path clip-path="url(#clip090)" d="M145.992 764.39 Q142.381 764.39 140.552 767.955 Q138.746 771.496 138.746 778.626 Q138.746 785.732 140.552 789.297 Q142.381 792.839 145.992 792.839 Q149.626 792.839 151.431 789.297 Q153.26 785.732 153.26 778.626 Q153.26 771.496 151.431 767.955 Q149.626 764.39 145.992 764.39 M145.992 760.686 Q151.802 760.686 154.857 765.293 Q157.936 769.876 157.936 778.626 Q157.936 787.353 154.857 791.959 Q151.802 796.543 145.992 796.543 Q140.181 796.543 137.103 791.959 Q134.047 787.353 134.047 778.626 Q134.047 769.876 137.103 765.293 Q140.181 760.686 145.992 760.686 Z" fill="#000000" fill-rule="nonzero" fill-opacity="1" /><path clip-path="url(#clip090)" d="M101.756 503.026 Q98.1447 503.026 96.316 506.59 Q94.5104 510.132 94.5104 517.262 Q94.5104 524.368 96.316 527.933 Q98.1447 531.474 101.756 531.474 Q105.39 531.474 107.196 527.933 Q109.024 524.368 109.024 517.262 Q109.024 510.132 107.196 506.59 Q105.39 503.026 101.756 503.026 M101.756 499.322 Q107.566 499.322 110.621 503.928 Q113.7 508.512 113.7 517.262 Q113.7 525.988 110.621 530.595 Q107.566 535.178 101.756 535.178 Q95.9456 535.178 92.8669 530.595 Q89.8114 525.988 89.8114 517.262 Q89.8114 508.512 92.8669 503.928 Q95.9456 499.322 101.756 499.322 Z" fill="#000000" fill-rule="nonzero" fill-opacity="1" /><path clip-path="url(#clip090)" d="M121.918 528.627 L126.802 528.627 L126.802 534.507 L121.918 534.507 L121.918 528.627 Z" fill="#000000" fill-rule="nonzero" fill-opacity="1" /><path clip-path="url(#clip090)" d="M137.033 499.947 L155.39 499.947 L155.39 503.882 L141.316 503.882 L141.316 512.354 Q142.334 512.007 143.353 511.845 Q144.371 511.66 145.39 511.66 Q151.177 511.66 154.556 514.831 Q157.936 518.002 157.936 523.419 Q157.936 528.998 154.464 532.099 Q150.992 535.178 144.672 535.178 Q142.496 535.178 140.228 534.808 Q137.982 534.437 135.575 533.697 L135.575 528.998 Q137.658 530.132 139.881 530.687 Q142.103 531.243 144.58 531.243 Q148.584 531.243 150.922 529.137 Q153.26 527.03 153.26 523.419 Q153.26 519.808 150.922 517.701 Q148.584 515.595 144.58 515.595 Q142.705 515.595 140.83 516.012 Q138.978 516.428 137.033 517.308 L137.033 499.947 Z" fill="#000000" fill-rule="nonzero" fill-opacity="1" /><path clip-path="url(#clip090)" d="M91.5706 269.207 L99.2095 269.207 L99.2095 242.842 L90.8993 244.508 L90.8993 240.249 L99.1632 238.582 L103.839 238.582 L103.839 269.207 L111.478 269.207 L111.478 273.142 L91.5706 273.142 L91.5706 269.207 Z" fill="#000000" fill-rule="nonzero" fill-opacity="1" /><path clip-path="url(#clip090)" d="M120.922 267.263 L125.807 267.263 L125.807 273.142 L120.922 273.142 L120.922 267.263 Z" fill="#000000" fill-rule="nonzero" fill-opacity="1" /><path clip-path="url(#clip090)" d="M145.992 241.661 Q142.381 241.661 140.552 245.226 Q138.746 248.768 138.746 255.897 Q138.746 263.004 140.552 266.568 Q142.381 270.11 145.992 270.11 Q149.626 270.11 151.431 266.568 Q153.26 263.004 153.26 255.897 Q153.26 248.768 151.431 245.226 Q149.626 241.661 145.992 241.661 M145.992 237.957 Q151.802 237.957 154.857 242.564 Q157.936 247.147 157.936 255.897 Q157.936 264.624 154.857 269.23 Q151.802 273.814 145.992 273.814 Q140.181 273.814 137.103 269.23 Q134.047 264.624 134.047 255.897 Q134.047 247.147 137.103 242.564 Q140.181 237.957 145.992 237.957 Z" fill="#000000" fill-rule="nonzero" fill-opacity="1" /><polyline clip-path="url(#clip092)" style="stroke:#009af9; stroke-linecap:round; stroke-linejoin:round; stroke-width:4; stroke-opacity:1; fill:none" points="255.035,778.591 258.278,773.364 261.521,768.137 264.764,762.912 268.007,757.688 271.25,752.466 274.493,747.246 277.736,742.03 280.979,736.818 284.222,731.609 287.465,726.405 290.708,721.207 293.951,716.014 297.194,710.828 300.437,705.648 303.68,700.476 306.923,695.311 310.166,690.155 313.409,685.007 316.652,679.869 319.895,674.741 323.138,669.623 326.381,664.516 329.624,659.421 332.867,654.337 336.11,649.266 339.353,644.208 342.596,639.163 345.84,634.132 349.083,629.116 352.326,624.114 355.569,619.128 358.812,614.158 362.055,609.205 365.298,604.268 368.541,599.349 371.784,594.447 375.027,589.564 378.27,584.7 381.513,579.856 384.756,575.031 387.999,570.227 391.242,565.443 394.485,560.681 397.728,555.94 400.971,551.222 404.214,546.527 407.457,541.855 410.7,537.206 413.943,532.582 417.186,527.982 420.429,523.407 423.672,518.858 426.915,514.334 430.158,509.838 433.401,505.368 436.644,500.925 439.887,496.51 443.13,492.123 446.373,487.765 449.616,483.436 452.859,479.137 456.103,474.867 459.346,470.628 462.589,466.42 465.832,462.243 469.075,458.097 472.318,453.984 475.561,449.903 478.804,445.855 482.047,441.84 485.29,437.859 488.533,433.912 491.776,429.999 495.019,426.122 498.262,422.279 501.505,418.472 504.748,414.701 507.991,410.967 511.234,407.269 514.477,403.609 517.72,399.985 520.963,396.4 524.206,392.853 527.449,389.345 530.692,385.875 533.935,382.445 537.178,379.054 540.421,375.704 543.664,372.393 546.907,369.124 550.15,365.895 553.393,362.707 556.636,359.561 559.879,356.457 563.122,353.396 566.366,350.376 569.609,347.4 572.852,344.466 576.095,341.576 579.338,338.73 582.581,335.928 585.824,333.17 589.067,330.456 592.31,327.788 595.553,325.164 598.796,322.586 602.039,320.053 605.282,317.566 608.525,315.126 611.768,312.731 615.011,310.384 618.254,308.083 621.497,305.829 624.74,303.622 627.983,301.463 631.226,299.352 634.469,297.288 637.712,295.273 640.955,293.306 644.198,291.388 647.441,289.518 650.684,287.697 653.927,285.925 657.17,284.203 660.413,282.53 663.656,280.906 666.899,279.333 670.142,277.809 673.385,276.335 676.629,274.912 679.872,273.539 683.115,272.216 686.358,270.944 689.601,269.723 692.844,268.553 696.087,267.433 699.33,266.365 702.573,265.348 705.816,264.382 709.059,263.468 712.302,262.606 715.545,261.794 718.788,261.035 722.031,260.327 725.274,259.672 728.517,259.068 731.76,258.516 735.003,258.016 738.246,257.568 741.489,257.172 744.732,256.828 747.975,256.537 751.218,256.297 754.461,256.11 757.704,255.975 760.947,255.893 764.19,255.863 767.433,255.885 770.676,255.959 773.919,256.085 777.162,256.264 780.405,256.495 783.648,256.778 786.892,257.114 790.135,257.501 793.378,257.941 796.621,258.432 799.864,258.976 803.107,259.572 806.35,260.219 809.593,260.919 812.836,261.67 816.079,262.473 819.322,263.327 822.565,264.233 825.808,265.191 829.051,266.2 832.294,267.26 835.537,268.371 838.78,269.533 842.023,270.746 845.266,272.01 848.509,273.324 851.752,274.69 854.995,276.105 858.238,277.571 861.481,279.086 864.724,280.652 867.967,282.268 871.21,283.933 874.453,285.648 877.696,287.411 880.939,289.225 884.182,291.087 887.425,292.997 890.668,294.957 893.911,296.964 897.155,299.02 900.398,301.124 903.641,303.275 906.884,305.474 910.127,307.721 913.37,310.014 916.613,312.354 919.856,314.741 923.099,317.175 926.342,319.654 929.585,322.179 932.828,324.75 936.071,327.367 939.314,330.028 942.557,332.735 945.8,335.486 949.043,338.281 952.286,341.12 955.529,344.003 958.772,346.93 962.015,349.899 965.258,352.912 968.501,355.967 971.744,359.064 974.987,362.204 978.23,365.384 981.473,368.607 984.716,371.87 987.959,375.174 991.202,378.518 994.445,381.902 997.688,385.326 1000.93,388.79 1004.17,392.292 1007.42,395.833 1010.66,399.412 1013.9,403.029 1017.15,406.684 1020.39,410.375 1023.63,414.104 1026.88,417.869 1030.12,421.67 1033.36,425.507 1036.6,429.379 1039.85,433.286 1043.09,437.228 1046.33,441.204 1049.58,445.213 1052.82,449.256 1056.06,453.332 1059.31,457.44 1062.55,461.581 1065.79,465.753 1069.04,469.956 1072.28,474.19 1075.52,478.455 1078.76,482.75 1082.01,487.074 1085.25,491.427 1088.49,495.81 1091.74,500.22 1094.98,504.658 1098.22,509.124 1101.47,513.616 1104.71,518.136 1107.95,522.681 1111.19,527.251 1114.44,531.847 1117.68,536.468 1120.92,541.113 1124.17,545.781 1127.41,550.473 1130.65,555.187 1133.9,559.924 1137.14,564.683 1140.38,569.463 1143.62,574.265 1146.87,579.086 1150.11,583.928 1153.35,588.789 1156.6,593.668 1159.84,598.567 1163.08,603.483 1166.33,608.417 1169.57,613.368 1172.81,618.336 1176.06,623.319 1179.3,628.318 1182.54,633.332 1185.78,638.361 1189.03,643.404 1192.27,648.46 1195.51,653.529 1198.76,658.61 1202,663.704 1205.24,668.809 1208.49,673.925 1211.73,679.052 1214.97,684.188 1218.21,689.334 1221.46,694.489 1224.7,699.653 1227.94,704.824 1231.19,710.002 1234.43,715.188 1237.67,720.38 1240.92,725.577 1244.16,730.78 1247.4,735.988 1250.64,741.2 1253.89,746.415 1257.13,751.634 1260.37,756.856 1263.62,762.08 1266.86,767.305 1270.1,772.532 1273.35,777.759 1276.59,782.986 1279.83,788.213 1283.08,793.439 1286.32,798.663 1289.56,803.885 1292.8,809.105 1296.05,814.322 1299.29,819.535 1302.53,824.744 1305.78,829.949 1309.02,835.148 1312.26,840.342 1315.51,845.529 1318.75,850.71 1321.99,855.884 1325.23,861.05 1328.48,866.207 1331.72,871.356 1334.96,876.496 1338.21,881.625 1341.45,886.745 1344.69,891.854 1347.94,896.951 1351.18,902.037 1354.42,907.11 1357.66,912.17 1360.91,917.217 1364.15,922.25 1367.39,927.269 1370.64,932.273 1373.88,937.261 1377.12,942.234 1380.37,947.19 1383.61,952.13 1386.85,957.052 1390.1,961.956 1393.34,966.842 1396.58,971.709 1399.82,976.557 1403.07,981.384 1406.31,986.192 1409.55,990.979 1412.8,995.745 1416.04,1000.49 1419.28,1005.21 1422.53,1009.91 1425.77,1014.59 1429.01,1019.24 1432.25,1023.87 1435.5,1028.47 1438.74,1033.05 1441.98,1037.6 1445.23,1042.13 1448.47,1046.63 1451.71,1051.1 1454.96,1055.55 1458.2,1059.97 1461.44,1064.36 1464.68,1068.73 1467.93,1073.06 1471.17,1077.36 1474.41,1081.64 1477.66,1085.88 1480.9,1090.09 1484.14,1094.28 1487.39,1098.43 1490.63,1102.55 1493.87,1106.63 1497.11,1110.69 1500.36,1114.71 1503.6,1118.69 1506.84,1122.64 1510.09,1126.56 1513.33,1130.45 1516.57,1134.29 1519.82,1138.11 1523.06,1141.88 1526.3,1145.62 1529.55,1149.33 1532.79,1152.99 1536.03,1156.62 1539.27,1160.21 1542.52,1163.77 1545.76,1167.28 1549,1170.76 1552.25,1174.19 1555.49,1177.59 1558.73,1180.95 1561.98,1184.26 1565.22,1187.54 1568.46,1190.78 1571.7,1193.97 1574.95,1197.12 1578.19,1200.23 1581.43,1203.3 1584.68,1206.33 1587.92,1209.31 1591.16,1212.25 1594.41,1215.15 1597.65,1218 1600.89,1220.81 1604.13,1223.58 1607.38,1226.3 1610.62,1228.97 1613.86,1231.6 1617.11,1234.19 1620.35,1236.73 1623.59,1239.22 1626.84,1241.67 1630.08,1244.07 1633.32,1246.43 1636.57,1248.74 1639.81,1251 1643.05,1253.21 1646.29,1255.38 1649.54,1257.5 1652.78,1259.57 1656.02,1261.59 1659.27,1263.57 1662.51,1265.49 1665.75,1267.37 1669,1269.2 1672.24,1270.98 1675.48,1272.71 1678.72,1274.39 1681.97,1276.02 1685.21,1277.6 1688.45,1279.13 1691.7,1280.62 1694.94,1282.05 1698.18,1283.43 1701.43,1284.76 1704.67,1286.04 1707.91,1287.27 1711.15,1288.45 1714.4,1289.57 1717.64,1290.65 1720.88,1291.68 1724.13,1292.65 1727.37,1293.57 1730.61,1294.44 1733.86,1295.26 1737.1,1296.03 1740.34,1296.75 1743.59,1297.41 1746.83,1298.02 1750.07,1298.58 1753.31,1299.09 1756.56,1299.55 1759.8,1299.95 1763.04,1300.3 1766.29,1300.6 1769.53,1300.85 1772.77,1301.05 1776.02,1301.19 1779.26,1301.28 1782.5,1301.32 1785.74,1301.31 1788.99,1301.24 1792.23,1301.12 1795.47,1300.95 1798.72,1300.73 1801.96,1300.45 1805.2,1300.13 1808.45,1299.75 1811.69,1299.32 1814.93,1298.83 1818.17,1298.3 1821.42,1297.71 1824.66,1297.07 1827.9,1296.38 1831.15,1295.64 1834.39,1294.84 1837.63,1293.99 1840.88,1293.1 1844.12,1292.15 1847.36,1291.15 1850.61,1290.1 1853.85,1288.99 1857.09,1287.84 1860.33,1286.63 1863.58,1285.38 1866.82,1284.07 1870.06,1282.71 1873.31,1281.31 1876.55,1279.85 1879.79,1278.34 1883.04,1276.78 1886.28,1275.18 1889.52,1273.52 1892.76,1271.81 1896.01,1270.06 1899.25,1268.25 1902.49,1266.4 1905.74,1264.49 1908.98,1262.54 1912.22,1260.54 1915.47,1258.49 1918.71,1256.4 1921.95,1254.25 1925.19,1252.06 1928.44,1249.82 1931.68,1247.54 1934.92,1245.2 1938.17,1242.82 1941.41,1240.4 1944.65,1237.93 1947.9,1235.41 1951.14,1232.84 1954.38,1230.24 1957.63,1227.58 1960.87,1224.88 1964.11,1222.14 1967.35,1219.35 1970.6,1216.52 1973.84,1213.64 1977.08,1210.72 1980.33,1207.76 1983.57,1204.75 1986.81,1201.71 1990.06,1198.61 1993.3,1195.48 1996.54,1192.31 1999.78,1189.09 2003.03,1185.84 2006.27,1182.54 2009.51,1179.2 2012.76,1175.82 2016,1172.4 2019.24,1168.95 2022.49,1165.45 2025.73,1161.92 2028.97,1158.34 2032.21,1154.73 2035.46,1151.08 2038.7,1147.4 2041.94,1143.67 2045.19,1139.92 2048.43,1136.12 2051.67,1132.29 2054.92,1128.42 2058.16,1124.52 2061.4,1120.58 2064.65,1116.61 2067.89,1112.61 2071.13,1108.57 2074.37,1104.5 2077.62,1100.4 2080.86,1096.26 2084.1,1092.1 2087.35,1087.9 2090.59,1083.67 2093.83,1079.41 2097.08,1075.12 2100.32,1070.8 2103.56,1066.45 2106.8,1062.07 2110.05,1057.67 2113.29,1053.23 2116.53,1048.77 2119.78,1044.28 2123.02,1039.77 2126.26,1035.23 2129.51,1030.66 2132.75,1026.07 2135.99,1021.45 2139.23,1016.81 2142.48,1012.15 2145.72,1007.46 2148.96,1002.75 2152.21,998.014 2155.45,993.259 2158.69,988.482 2161.94,983.684 2165.18,978.866 2168.42,974.027 2171.67,969.17 2174.91,964.293 2178.15,959.397 2181.39,954.483 2184.64,949.552 2187.88,944.604 2191.12,939.639 2194.37,934.658 2197.61,929.662 2200.85,924.65 2204.1,919.624 2207.34,914.583 2210.58,909.529 2213.82,904.462 2217.07,899.382 2220.31,894.291 2223.55,889.187 2226.8,884.073 2230.04,878.948 2233.28,873.813 2236.53,868.668 2239.77,863.515 2243.01,858.353 2246.25,853.183 2249.5,848.005 2252.74,842.821 2255.98,837.63 2259.23,832.434 2262.47,827.231 2265.71,822.025 2268.96,816.813 2272.2,811.598 2275.44,806.38 2278.69,801.158 2281.93,795.935 2285.17,790.71 2288.41,785.483 2291.66,780.256 "/>
<circle clip-path="url(#clip092)" cx="2022.49" cy="1216.78" r="14.4" fill="#e26f46" fill-rule="evenodd" fill-opacity="1" stroke="#000000" stroke-opacity="1" stroke-width="3.2"/>
<circle clip-path="url(#clip092)" cx="1000.93" cy="489.601" r="14.4" fill="#e26f46" fill-rule="evenodd" fill-opacity="1" stroke="#000000" stroke-opacity="1" stroke-width="3.2"/>
<circle clip-path="url(#clip092)" cx="615.011" cy="414.242" r="14.4" fill="#e26f46" fill-rule="evenodd" fill-opacity="1" stroke="#000000" stroke-opacity="1" stroke-width="3.2"/>
<circle clip-path="url(#clip092)" cx="1555.49" cy="1202.35" r="14.4" fill="#e26f46" fill-rule="evenodd" fill-opacity="1" stroke="#000000" stroke-opacity="1" stroke-width="3.2"/>
<circle clip-path="url(#clip092)" cx="1412.8" cy="872.496" r="14.4" fill="#e26f46" fill-rule="evenodd" fill-opacity="1" stroke="#000000" stroke-opacity="1" stroke-width="3.2"/>
<circle clip-path="url(#clip092)" cx="1542.52" cy="1268.72" r="14.4" fill="#e26f46" fill-rule="evenodd" fill-opacity="1" stroke="#000000" stroke-opacity="1" stroke-width="3.2"/>
<circle clip-path="url(#clip092)" cx="2230.04" cy="766.402" r="14.4" fill="#e26f46" fill-rule="evenodd" fill-opacity="1" stroke="#000000" stroke-opacity="1" stroke-width="3.2"/>
<circle clip-path="url(#clip092)" cx="1195.51" cy="772.889" r="14.4" fill="#e26f46" fill-rule="evenodd" fill-opacity="1" stroke="#000000" stroke-opacity="1" stroke-width="3.2"/>
<circle clip-path="url(#clip092)" cx="1156.6" cy="624.122" r="14.4" fill="#e26f46" fill-rule="evenodd" fill-opacity="1" stroke="#000000" stroke-opacity="1" stroke-width="3.2"/>
<circle clip-path="url(#clip092)" cx="735.003" cy="252.87" r="14.4" fill="#e26f46" fill-rule="evenodd" fill-opacity="1" stroke="#000000" stroke-opacity="1" stroke-width="3.2"/>
<circle clip-path="url(#clip092)" cx="2061.4" cy="1203.62" r="14.4" fill="#e26f46" fill-rule="evenodd" fill-opacity="1" stroke="#000000" stroke-opacity="1" stroke-width="3.2"/>
<circle clip-path="url(#clip092)" cx="1801.96" cy="1367.58" r="14.4" fill="#e26f46" fill-rule="evenodd" fill-opacity="1" stroke="#000000" stroke-opacity="1" stroke-width="3.2"/>
<circle clip-path="url(#clip092)" cx="556.636" cy="481.072" r="14.4" fill="#e26f46" fill-rule="evenodd" fill-opacity="1" stroke="#000000" stroke-opacity="1" stroke-width="3.2"/>
<circle clip-path="url(#clip092)" cx="1717.64" cy="1336.78" r="14.4" fill="#e26f46" fill-rule="evenodd" fill-opacity="1" stroke="#000000" stroke-opacity="1" stroke-width="3.2"/>
<circle clip-path="url(#clip092)" cx="1899.25" cy="1218.47" r="14.4" fill="#e26f46" fill-rule="evenodd" fill-opacity="1" stroke="#000000" stroke-opacity="1" stroke-width="3.2"/>
<circle clip-path="url(#clip092)" cx="1386.85" cy="1036.5" r="14.4" fill="#e26f46" fill-rule="evenodd" fill-opacity="1" stroke="#000000" stroke-opacity="1" stroke-width="3.2"/>
<circle clip-path="url(#clip092)" cx="958.772" cy="227.811" r="14.4" fill="#e26f46" fill-rule="evenodd" fill-opacity="1" stroke="#000000" stroke-opacity="1" stroke-width="3.2"/>
<circle clip-path="url(#clip092)" cx="297.194" cy="741.79" r="14.4" fill="#e26f46" fill-rule="evenodd" fill-opacity="1" stroke="#000000" stroke-opacity="1" stroke-width="3.2"/>
<circle clip-path="url(#clip092)" cx="1782.5" cy="1172.04" r="14.4" fill="#e26f46" fill-rule="evenodd" fill-opacity="1" stroke="#000000" stroke-opacity="1" stroke-width="3.2"/>
<circle clip-path="url(#clip092)" cx="550.15" cy="395.478" r="14.4" fill="#e26f46" fill-rule="evenodd" fill-opacity="1" stroke="#000000" stroke-opacity="1" stroke-width="3.2"/>
<path clip-path="url(#clip092)" d="M255.035 1012.37 L258.278 1008.36 L261.521 1004.37 L264.764 1000.43 L268.007 996.522 L271.25 992.668 L274.493 988.868 L277.736 985.129 L280.979 981.455 L284.222 977.854 L287.465 974.33 L290.708 970.889 L293.951 967.536 L297.194 964.277 L300.437 961.115 L303.68 958.044 L306.923 955.057 L310.166 952.147 L313.409 949.305 L316.652 946.525 L319.895 943.797 L323.138 941.115 L326.381 938.47 L329.624 935.854 L332.867 933.26 L336.11 930.68 L339.353 928.107 L342.596 925.533 L345.84 922.952 L349.083 920.357 L352.326 917.742 L355.569 915.1 L358.812 912.425 L362.055 909.713 L365.298 906.957 L368.541 904.152 L371.784 901.295 L375.027 898.38 L378.27 895.404 L381.513 892.363 L384.756 889.252 L387.999 886.07 L391.242 882.812 L394.485 879.476 L397.728 876.061 L400.971 872.562 L404.214 868.98 L407.457 865.311 L410.7 861.556 L413.943 857.711 L417.186 853.778 L420.429 849.754 L423.672 845.639 L426.915 841.435 L430.158 837.139 L433.401 832.754 L436.644 828.279 L439.887 823.715 L443.13 819.063 L446.373 814.325 L449.616 809.503 L452.859 804.598 L456.103 799.612 L459.346 794.549 L462.589 789.41 L465.832 784.199 L469.075 778.92 L472.318 773.576 L475.561 768.172 L478.804 762.711 L482.047 757.2 L485.29 751.643 L488.533 746.047 L491.776 740.417 L495.019 734.76 L498.262 729.084 L501.505 723.397 L504.748 717.706 L507.991 712.022 L511.234 706.353 L514.477 700.709 L517.72 695.102 L520.963 689.543 L524.206 684.043 L527.449 678.616 L530.692 673.274 L533.935 668.031 L537.178 662.902 L540.421 657.901 L543.664 653.042 L546.907 648.341 L550.15 643.813 L553.393 639.471 L556.636 635.319 L559.879 631.357 L563.122 627.58 L566.366 623.98 L569.609 620.551 L572.852 617.286 L576.095 614.176 L579.338 611.217 L582.581 608.4 L585.824 605.721 L589.067 603.172 L592.31 600.749 L595.553 598.446 L598.796 596.26 L602.039 594.187 L605.282 592.222 L608.525 590.364 L611.768 588.61 L615.011 586.958 L618.254 585.404 L621.497 583.941 L624.74 582.559 L627.983 581.248 L631.226 580 L634.469 578.807 L637.712 577.661 L640.955 576.557 L644.198 575.487 L647.441 574.446 L650.684 573.43 L653.927 572.435 L657.17 571.458 L660.413 570.496 L663.656 569.547 L666.899 568.609 L670.142 567.683 L673.385 566.769 L676.629 565.866 L679.872 564.977 L683.115 564.102 L686.358 563.245 L689.601 562.408 L692.844 561.594 L696.087 560.808 L699.33 560.054 L702.573 559.337 L705.816 558.662 L709.059 558.034 L712.302 557.461 L715.545 556.947 L718.788 556.5 L722.031 556.126 L725.274 555.834 L728.517 555.629 L731.76 555.52 L735.003 555.514 L738.246 555.616 L741.489 555.82 L744.732 556.118 L747.975 556.503 L751.218 556.966 L754.461 557.499 L757.704 558.094 L760.947 558.745 L764.19 559.444 L767.433 560.184 L770.676 560.958 L773.919 561.76 L777.162 562.585 L780.405 563.425 L783.648 564.276 L786.892 565.132 L790.135 565.989 L793.378 566.842 L796.621 567.686 L799.864 568.518 L803.107 569.335 L806.35 570.132 L809.593 570.907 L812.836 571.656 L816.079 572.378 L819.322 573.071 L822.565 573.731 L825.808 574.359 L829.051 574.952 L832.294 575.509 L835.537 576.03 L838.78 576.514 L842.023 576.962 L845.266 577.372 L848.509 577.746 L851.752 578.083 L854.995 578.386 L858.238 578.656 L861.481 578.893 L864.724 579.1 L867.967 579.278 L871.21 579.431 L874.453 579.562 L877.696 579.672 L880.939 579.766 L884.182 579.848 L887.425 579.922 L890.668 579.992 L893.911 580.063 L897.155 580.141 L900.398 580.231 L903.641 580.339 L906.884 580.473 L910.127 580.639 L913.37 580.844 L916.613 581.096 L919.856 581.405 L923.099 581.778 L926.342 582.225 L929.585 582.756 L932.828 583.381 L936.071 584.111 L939.314 584.957 L942.557 585.931 L945.8 587.044 L949.043 588.31 L952.286 589.739 L955.529 591.347 L958.772 593.144 L962.015 595.143 L965.258 597.339 L968.501 599.727 L971.744 602.301 L974.987 605.056 L978.23 607.986 L981.473 611.086 L984.716 614.351 L987.959 617.774 L991.202 621.352 L994.445 625.079 L997.688 628.95 L1000.93 632.961 L1004.17 637.106 L1007.42 641.374 L1010.66 645.752 L1013.9 650.229 L1017.15 654.792 L1020.39 659.432 L1023.63 664.136 L1026.88 668.895 L1030.12 673.697 L1033.36 678.534 L1036.6 683.397 L1039.85 688.276 L1043.09 693.165 L1046.33 698.055 L1049.58 702.939 L1052.82 707.813 L1056.06 712.669 L1059.31 717.502 L1062.55 722.309 L1065.79 727.085 L1069.04 731.826 L1072.28 736.53 L1075.52 741.195 L1078.76 745.818 L1082.01 750.398 L1085.25 754.935 L1088.49 759.428 L1091.74 763.878 L1094.98 768.286 L1098.22 772.652 L1101.47 776.98 L1104.71 781.272 L1107.95 785.53 L1111.19 789.758 L1114.44 793.961 L1117.68 798.142 L1120.92 802.308 L1124.17 806.464 L1127.41 810.616 L1130.65 814.771 L1133.9 818.936 L1137.14 823.119 L1140.38 827.328 L1143.62 831.571 L1146.87 835.857 L1150.11 840.194 L1153.35 844.594 L1156.6 849.063 L1159.84 853.611 L1163.08 858.237 L1166.33 862.938 L1169.57 867.713 L1172.81 872.558 L1176.06 877.472 L1179.3 882.452 L1182.54 887.497 L1185.78 892.604 L1189.03 897.771 L1192.27 902.996 L1195.51 908.277 L1198.76 913.61 L1202 918.989 L1205.24 924.402 L1208.49 929.842 L1211.73 935.299 L1214.97 940.765 L1218.21 946.231 L1221.46 951.688 L1224.7 957.13 L1227.94 962.548 L1231.19 967.936 L1234.43 973.286 L1237.67 978.593 L1240.92 983.851 L1244.16 989.054 L1247.4 994.197 L1250.64 999.276 L1253.89 1004.29 L1257.13 1009.22 L1260.37 1014.09 L1263.62 1018.87 L1266.86 1023.57 L1270.1 1028.19 L1273.35 1032.72 L1276.59 1037.17 L1279.83 1041.52 L1283.08 1045.79 L1286.32 1049.97 L1289.56 1054.06 L1292.8 1058.05 L1296.05 1061.96 L1299.29 1065.78 L1302.53 1069.51 L1305.78 1073.16 L1309.02 1076.72 L1312.26 1080.2 L1315.51 1083.61 L1318.75 1086.93 L1321.99 1090.18 L1325.23 1093.36 L1328.48 1096.48 L1331.72 1099.54 L1334.96 1102.54 L1338.21 1105.49 L1341.45 1108.39 L1344.69 1111.25 L1347.94 1114.09 L1351.18 1116.89 L1354.42 1119.68 L1357.66 1122.46 L1360.91 1125.23 L1364.15 1128.01 L1367.39 1130.81 L1370.64 1133.63 L1373.88 1136.48 L1377.12 1139.38 L1380.37 1142.33 L1383.61 1145.34 L1386.85 1148.43 L1390.1 1151.61 L1393.34 1154.87 L1396.58 1158.23 L1399.82 1161.68 L1403.07 1165.24 L1406.31 1168.9 L1409.55 1172.68 L1412.8 1176.57 L1416.04 1180.57 L1419.28 1184.68 L1422.53 1188.89 L1425.77 1193.18 L1429.01 1197.54 L1432.25 1201.96 L1435.5 1206.43 L1438.74 1210.94 L1441.98 1215.48 L1445.23 1220.03 L1448.47 1224.6 L1451.71 1229.17 L1454.96 1233.73 L1458.2 1238.28 L1461.44 1242.81 L1464.68 1247.31 L1467.93 1251.78 L1471.17 1256.21 L1474.41 1260.61 L1477.66 1264.95 L1480.9 1269.26 L1484.14 1273.51 L1487.39 1277.71 L1490.63 1281.86 L1493.87 1285.96 L1497.11 1290 L1500.36 1294 L1503.6 1297.94 L1506.84 1301.84 L1510.09 1305.69 L1513.33 1309.5 L1516.57 1313.27 L1519.82 1317.01 L1523.06 1320.71 L1526.3 1324.39 L1529.55 1328.06 L1532.79 1331.7 L1536.03 1335.34 L1539.27 1338.97 L1542.52 1342.61 L1545.76 1346.25 L1549 1349.9 L1552.25 1353.56 L1555.49 1357.22 L1558.73 1360.9 L1561.98 1364.57 L1565.22 1368.24 L1568.46 1371.89 L1571.7 1375.52 L1574.95 1379.12 L1578.19 1382.68 L1581.43 1386.19 L1584.68 1389.64 L1587.92 1393.03 L1591.16 1396.35 L1594.41 1399.59 L1597.65 1402.75 L1600.89 1405.83 L1604.13 1408.81 L1607.38 1411.69 L1610.62 1414.47 L1613.86 1417.14 L1617.11 1419.7 L1620.35 1422.15 L1623.59 1424.48 L1626.84 1426.7 L1630.08 1428.79 L1633.32 1430.76 L1636.57 1432.61 L1639.81 1434.33 L1643.05 1435.93 L1646.29 1437.4 L1649.54 1438.75 L1652.78 1439.97 L1656.02 1441.07 L1659.27 1442.05 L1662.51 1442.91 L1665.75 1443.64 L1669 1444.26 L1672.24 1444.77 L1675.48 1445.16 L1678.72 1445.45 L1681.97 1445.63 L1685.21 1445.72 L1688.45 1445.7 L1691.7 1445.6 L1694.94 1445.41 L1698.18 1445.14 L1701.43 1444.8 L1704.67 1444.39 L1707.91 1443.92 L1711.15 1443.39 L1714.4 1442.81 L1717.64 1442.2 L1720.88 1441.55 L1724.13 1440.87 L1727.37 1440.16 L1730.61 1439.43 L1733.86 1438.67 L1737.1 1437.89 L1740.34 1437.09 L1743.59 1436.28 L1746.83 1435.46 L1750.07 1434.63 L1753.31 1433.81 L1756.56 1432.99 L1759.8 1432.18 L1763.04 1431.38 L1766.29 1430.62 L1769.53 1429.88 L1772.77 1429.18 L1776.02 1428.53 L1779.26 1427.93 L1782.5 1427.4 L1785.74 1426.94 L1788.99 1426.54 L1792.23 1426.2 L1795.47 1425.91 L1798.72 1425.68 L1801.96 1425.49 L1805.2 1425.35 L1808.45 1425.23 L1811.69 1425.14 L1814.93 1425.06 L1818.17 1424.99 L1821.42 1424.92 L1824.66 1424.85 L1827.9 1424.76 L1831.15 1424.66 L1834.39 1424.53 L1837.63 1424.37 L1840.88 1424.18 L1844.12 1423.96 L1847.36 1423.69 L1850.61 1423.39 L1853.85 1423.04 L1857.09 1422.64 L1860.33 1422.21 L1863.58 1421.72 L1866.82 1421.2 L1870.06 1420.62 L1873.31 1420.01 L1876.55 1419.35 L1879.79 1418.66 L1883.04 1417.93 L1886.28 1417.17 L1889.52 1416.38 L1892.76 1415.56 L1896.01 1414.72 L1899.25 1413.86 L1902.49 1412.98 L1905.74 1412.08 L1908.98 1411.16 L1912.22 1410.2 L1915.47 1409.2 L1918.71 1408.16 L1921.95 1407.07 L1925.19 1405.93 L1928.44 1404.72 L1931.68 1403.46 L1934.92 1402.12 L1938.17 1400.72 L1941.41 1399.24 L1944.65 1397.69 L1947.9 1396.06 L1951.14 1394.35 L1954.38 1392.55 L1957.63 1390.67 L1960.87 1388.71 L1964.11 1386.67 L1967.35 1384.54 L1970.6 1382.33 L1973.84 1380.04 L1977.08 1377.66 L1980.33 1375.22 L1983.57 1372.69 L1986.81 1370.1 L1990.06 1367.44 L1993.3 1364.71 L1996.54 1361.93 L1999.78 1359.09 L2003.03 1356.2 L2006.27 1353.27 L2009.51 1350.31 L2012.76 1347.31 L2016 1344.29 L2019.24 1341.25 L2022.49 1338.21 L2025.73 1335.16 L2028.97 1332.11 L2032.21 1329.05 L2035.46 1325.99 L2038.7 1322.94 L2041.94 1319.88 L2045.19 1316.82 L2048.43 1313.77 L2051.67 1310.71 L2054.92 1307.65 L2058.16 1304.6 L2061.4 1301.55 L2064.65 1298.5 L2067.89 1295.45 L2071.13 1292.39 L2074.37 1289.32 L2077.62 1286.24 L2080.86 1283.13 L2084.1 1280 L2087.35 1276.85 L2090.59 1273.66 L2093.83 1270.43 L2097.08 1267.17 L2100.32 1263.87 L2103.56 1260.52 L2106.8 1257.14 L2110.05 1253.71 L2113.29 1250.23 L2116.53 1246.71 L2119.78 1243.15 L2123.02 1239.54 L2126.26 1235.89 L2129.51 1232.2 L2132.75 1228.48 L2135.99 1224.71 L2139.23 1220.92 L2142.48 1217.1 L2145.72 1213.25 L2148.96 1209.38 L2152.21 1205.49 L2155.45 1201.59 L2158.69 1197.69 L2161.94 1193.79 L2165.18 1189.9 L2168.42 1186.02 L2171.67 1182.16 L2174.91 1178.34 L2178.15 1174.54 L2181.39 1170.8 L2184.64 1167.11 L2187.88 1163.48 L2191.12 1159.93 L2194.37 1156.46 L2197.61 1153.08 L2200.85 1149.81 L2204.1 1146.65 L2207.34 1143.61 L2210.58 1140.72 L2213.82 1137.97 L2217.07 1135.37 L2220.31 1132.95 L2223.55 1130.71 L2226.8 1128.66 L2230.04 1126.82 L2233.28 1125.19 L2236.53 1123.76 L2239.77 1122.54 L2243.01 1121.5 L2246.25 1120.65 L2249.5 1119.97 L2252.74 1119.46 L2255.98 1119.11 L2259.23 1118.9 L2262.47 1118.84 L2265.71 1118.92 L2268.96 1119.12 L2272.2 1119.45 L2275.44 1119.89 L2278.69 1120.43 L2281.93 1121.08 L2285.17 1121.82 L2288.41 1122.64 L2291.66 1123.56 L2291.66 524.081 L2288.41 529.275 L2285.17 534.508 L2281.93 539.778 L2278.69 545.082 L2275.44 550.416 L2272.2 555.777 L2268.96 561.162 L2265.71 566.567 L2262.47 571.988 L2259.23 577.422 L2255.98 582.864 L2252.74 588.31 L2249.5 593.757 L2246.25 599.199 L2243.01 604.633 L2239.77 610.054 L2236.53 615.458 L2233.28 620.841 L2230.04 626.2 L2226.8 631.532 L2223.55 636.839 L2220.31 642.126 L2217.07 647.398 L2213.82 652.658 L2210.58 657.912 L2207.34 663.164 L2204.1 668.419 L2200.85 673.681 L2197.61 678.954 L2194.37 684.244 L2191.12 689.553 L2187.88 694.886 L2184.64 700.246 L2181.39 705.637 L2178.15 711.061 L2174.91 716.522 L2171.67 722.02 L2168.42 727.559 L2165.18 733.14 L2161.94 738.763 L2158.69 744.43 L2155.45 750.141 L2152.21 755.896 L2148.96 761.694 L2145.72 767.533 L2142.48 773.414 L2139.23 779.333 L2135.99 785.289 L2132.75 791.278 L2129.51 797.298 L2126.26 803.344 L2123.02 809.412 L2119.78 815.498 L2116.53 821.596 L2113.29 827.701 L2110.05 833.806 L2106.8 839.903 L2103.56 845.987 L2100.32 852.049 L2097.08 858.081 L2093.83 864.073 L2090.59 870.017 L2087.35 875.901 L2084.1 881.717 L2080.86 887.452 L2077.62 893.096 L2074.37 898.636 L2071.13 904.06 L2067.89 909.356 L2064.65 914.51 L2061.4 919.51 L2058.16 924.344 L2054.92 929.013 L2051.67 933.516 L2048.43 937.856 L2045.19 942.032 L2041.94 946.048 L2038.7 949.902 L2035.46 953.596 L2032.21 957.129 L2028.97 960.503 L2025.73 963.717 L2022.49 966.771 L2019.24 969.667 L2016 972.415 L2012.76 975.028 L2009.51 977.519 L2006.27 979.898 L2003.03 982.179 L1999.78 984.371 L1996.54 986.486 L1993.3 988.533 L1990.06 990.523 L1986.81 992.463 L1983.57 994.363 L1980.33 996.231 L1977.08 998.073 L1973.84 999.896 L1970.6 1001.71 L1967.35 1003.51 L1964.11 1005.31 L1960.87 1007.11 L1957.63 1008.92 L1954.38 1010.73 L1951.14 1012.56 L1947.9 1014.39 L1944.65 1016.25 L1941.41 1018.11 L1938.17 1019.99 L1934.92 1021.89 L1931.68 1023.79 L1928.44 1025.71 L1925.19 1027.64 L1921.95 1029.58 L1918.71 1031.52 L1915.47 1033.47 L1912.22 1035.41 L1908.98 1037.35 L1905.74 1039.28 L1902.49 1041.19 L1899.25 1043.09 L1896.01 1044.96 L1892.76 1046.81 L1889.52 1048.64 L1886.28 1050.47 L1883.04 1052.28 L1879.79 1054.08 L1876.55 1055.88 L1873.31 1057.68 L1870.06 1059.47 L1866.82 1061.26 L1863.58 1063.06 L1860.33 1064.85 L1857.09 1066.64 L1853.85 1068.43 L1850.61 1070.21 L1847.36 1071.98 L1844.12 1073.74 L1840.88 1075.49 L1837.63 1077.22 L1834.39 1078.92 L1831.15 1080.59 L1827.9 1082.22 L1824.66 1083.8 L1821.42 1085.32 L1818.17 1086.79 L1814.93 1088.17 L1811.69 1089.48 L1808.45 1090.69 L1805.2 1091.79 L1801.96 1092.77 L1798.72 1093.63 L1795.47 1094.37 L1792.23 1094.97 L1788.99 1095.46 L1785.74 1095.83 L1782.5 1096.07 L1779.26 1096.21 L1776.02 1096.23 L1772.77 1096.15 L1769.53 1095.97 L1766.29 1095.69 L1763.04 1095.33 L1759.8 1094.88 L1756.56 1094.35 L1753.31 1093.74 L1750.07 1093.05 L1746.83 1092.29 L1743.59 1091.46 L1740.34 1090.56 L1737.1 1089.58 L1733.86 1088.54 L1730.61 1087.42 L1727.37 1086.22 L1724.13 1084.95 L1720.88 1083.61 L1717.64 1082.18 L1714.4 1080.67 L1711.15 1079.08 L1707.91 1077.43 L1704.67 1075.73 L1701.43 1073.98 L1698.18 1072.2 L1694.94 1070.39 L1691.7 1068.55 L1688.45 1066.7 L1685.21 1064.85 L1681.97 1062.99 L1678.72 1061.14 L1675.48 1059.3 L1672.24 1057.47 L1669 1055.66 L1665.75 1053.87 L1662.51 1052.11 L1659.27 1050.38 L1656.02 1048.67 L1652.78 1047 L1649.54 1045.36 L1646.29 1043.75 L1643.05 1042.18 L1639.81 1040.64 L1636.57 1039.14 L1633.32 1037.66 L1630.08 1036.21 L1626.84 1034.79 L1623.59 1033.4 L1620.35 1032.02 L1617.11 1030.67 L1613.86 1029.32 L1610.62 1027.98 L1607.38 1026.65 L1604.13 1025.31 L1600.89 1023.96 L1597.65 1022.59 L1594.41 1021.2 L1591.16 1019.77 L1587.92 1018.31 L1584.68 1016.78 L1581.43 1015.2 L1578.19 1013.55 L1574.95 1011.81 L1571.7 1009.98 L1568.46 1008.04 L1565.22 1005.99 L1561.98 1003.8 L1558.73 1001.47 L1555.49 998.985 L1552.25 996.333 L1549 993.511 L1545.76 990.517 L1542.52 987.35 L1539.27 984.009 L1536.03 980.507 L1532.79 976.855 L1529.55 973.068 L1526.3 969.159 L1523.06 965.139 L1519.82 961.022 L1516.57 956.818 L1513.33 952.541 L1510.09 948.199 L1506.84 943.805 L1503.6 939.367 L1500.36 934.894 L1497.11 930.395 L1493.87 925.878 L1490.63 921.349 L1487.39 916.815 L1484.14 912.281 L1480.9 907.752 L1477.66 903.233 L1474.41 898.727 L1471.17 894.236 L1467.93 889.763 L1464.68 885.309 L1461.44 880.875 L1458.2 876.46 L1454.96 872.064 L1451.71 867.685 L1448.47 863.322 L1445.23 858.971 L1441.98 854.629 L1438.74 850.293 L1435.5 845.957 L1432.25 841.617 L1429.01 837.268 L1425.77 832.903 L1422.53 828.515 L1419.28 824.099 L1416.04 819.648 L1412.8 815.154 L1409.55 810.612 L1406.31 806.016 L1403.07 801.364 L1399.82 796.651 L1396.58 791.873 L1393.34 787.027 L1390.1 782.109 L1386.85 777.116 L1383.61 772.047 L1380.37 766.908 L1377.12 761.71 L1373.88 756.464 L1370.64 751.178 L1367.39 745.862 L1364.15 740.525 L1360.91 735.176 L1357.66 729.824 L1354.42 724.477 L1351.18 719.141 L1347.94 713.825 L1344.69 708.535 L1341.45 703.277 L1338.21 698.057 L1334.96 692.88 L1331.72 687.752 L1328.48 682.676 L1325.23 677.658 L1321.99 672.7 L1318.75 667.805 L1315.51 662.978 L1312.26 658.219 L1309.02 653.531 L1305.78 648.916 L1302.53 644.374 L1299.29 639.908 L1296.05 635.517 L1292.8 631.201 L1289.56 626.961 L1286.32 622.795 L1283.08 618.704 L1279.83 614.685 L1276.59 610.737 L1273.35 606.858 L1270.1 603.047 L1266.86 599.299 L1263.62 595.612 L1260.37 591.983 L1257.13 588.407 L1253.89 584.881 L1250.64 581.399 L1247.4 577.957 L1244.16 574.55 L1240.92 571.17 L1237.67 567.813 L1234.43 564.47 L1231.19 561.136 L1227.94 557.802 L1224.7 554.46 L1221.46 551.102 L1218.21 547.719 L1214.97 544.301 L1211.73 540.839 L1208.49 537.323 L1205.24 533.743 L1202 530.088 L1198.76 526.347 L1195.51 522.51 L1192.27 518.567 L1189.03 514.52 L1185.78 510.37 L1182.54 506.12 L1179.3 501.771 L1176.06 497.327 L1172.81 492.788 L1169.57 488.158 L1166.33 483.438 L1163.08 478.63 L1159.84 473.737 L1156.6 468.76 L1153.35 463.703 L1150.11 458.575 L1146.87 453.385 L1143.62 448.144 L1140.38 442.862 L1137.14 437.548 L1133.9 432.212 L1130.65 426.863 L1127.41 421.508 L1124.17 416.157 L1120.92 410.818 L1117.68 405.496 L1114.44 400.2 L1111.19 394.935 L1107.95 389.708 L1104.71 384.523 L1101.47 379.385 L1098.22 374.3 L1094.98 369.27 L1091.74 364.298 L1088.49 359.389 L1085.25 354.544 L1082.01 349.765 L1078.76 345.054 L1075.52 340.411 L1072.28 335.837 L1069.04 331.332 L1065.79 326.894 L1062.55 322.525 L1059.31 318.22 L1056.06 313.98 L1052.82 309.801 L1049.58 305.68 L1046.33 301.613 L1043.09 297.598 L1039.85 293.629 L1036.6 289.701 L1033.36 285.809 L1030.12 281.947 L1026.88 278.109 L1023.63 274.288 L1020.39 270.476 L1017.15 266.666 L1013.9 262.851 L1010.66 259.022 L1007.42 255.17 L1004.17 251.288 L1000.93 247.366 L997.688 243.398 L994.445 239.386 L991.202 235.335 L987.959 231.248 L984.716 227.129 L981.473 222.984 L978.23 218.816 L974.987 214.63 L971.744 210.43 L968.501 206.221 L965.258 202.007 L962.015 197.793 L958.772 193.583 L955.529 189.383 L952.286 185.199 L949.043 181.038 L945.8 176.907 L942.557 172.813 L939.314 168.763 L936.071 164.763 L932.828 160.82 L929.585 156.939 L926.342 153.127 L923.099 149.39 L919.856 145.733 L916.613 142.16 L913.37 138.676 L910.127 135.286 L906.884 131.994 L903.641 128.803 L900.398 125.718 L897.155 122.74 L893.911 119.874 L890.668 117.122 L887.425 114.486 L884.182 111.968 L880.939 109.571 L877.696 107.295 L874.453 105.143 L871.21 103.116 L867.967 101.214 L864.724 99.4396 L861.481 97.7921 L858.238 96.2725 L854.995 94.8811 L851.752 93.618 L848.509 92.4834 L845.266 91.4771 L842.023 90.5987 L838.78 89.8478 L835.537 89.2238 L832.294 88.726 L829.051 88.3535 L825.808 88.1052 L822.565 87.9799 L819.322 87.9763 L816.079 88.0928 L812.836 88.328 L809.593 88.6798 L806.35 89.1464 L803.107 89.7257 L799.864 90.4154 L796.621 91.213 L793.378 92.116 L790.135 93.1215 L786.892 94.2267 L783.648 95.4284 L780.405 96.7234 L777.162 98.1082 L773.919 99.5792 L770.676 101.133 L767.433 102.765 L764.19 104.471 L760.947 106.248 L757.704 108.09 L754.461 109.994 L751.218 111.955 L747.975 113.968 L744.732 116.029 L741.489 118.133 L738.246 120.275 L735.003 122.452 L731.76 124.659 L728.517 126.899 L725.274 129.173 L722.031 131.486 L718.788 133.839 L715.545 136.235 L712.302 138.678 L709.059 141.17 L705.816 143.713 L702.573 146.309 L699.33 148.962 L696.087 151.671 L692.844 154.44 L689.601 157.269 L686.358 160.158 L683.115 163.11 L679.872 166.122 L676.629 169.196 L673.385 172.33 L670.142 175.524 L666.899 178.774 L663.656 182.08 L660.413 185.439 L657.17 188.846 L653.927 192.299 L650.684 195.793 L647.441 199.323 L644.198 202.883 L640.955 206.468 L637.712 210.071 L634.469 213.684 L631.226 217.299 L627.983 220.909 L624.74 224.504 L621.497 228.074 L618.254 231.61 L615.011 235.102 L611.768 238.539 L608.525 241.919 L605.282 245.24 L602.039 248.5 L598.796 251.695 L595.553 254.823 L592.31 257.881 L589.067 260.863 L585.824 263.765 L582.581 266.584 L579.338 269.313 L576.095 271.947 L572.852 274.481 L569.609 276.908 L566.366 279.222 L563.122 281.418 L559.879 283.489 L556.636 285.431 L553.393 287.238 L550.15 288.915 L546.907 290.468 L543.664 291.907 L540.421 293.245 L537.178 294.493 L533.935 295.662 L530.692 296.764 L527.449 297.81 L524.206 298.81 L520.963 299.775 L517.72 300.715 L514.477 301.637 L511.234 302.552 L507.991 303.468 L504.748 304.39 L501.505 305.328 L498.262 306.286 L495.019 307.272 L491.776 308.29 L488.533 309.346 L485.29 310.443 L482.047 311.586 L478.804 312.779 L475.561 314.025 L472.318 315.327 L469.075 316.687 L465.832 318.108 L462.589 319.59 L459.346 321.137 L456.103 322.749 L452.859 324.426 L449.616 326.171 L446.373 327.982 L443.13 329.861 L439.887 331.806 L436.644 333.819 L433.401 335.898 L430.158 338.041 L426.915 340.249 L423.672 342.52 L420.429 344.853 L417.186 347.245 L413.943 349.694 L410.7 352.199 L407.457 354.757 L404.214 357.365 L400.971 360.02 L397.728 362.719 L394.485 365.459 L391.242 368.235 L387.999 371.045 L384.756 373.883 L381.513 376.745 L378.27 379.626 L375.027 382.522 L371.784 385.426 L368.541 388.334 L365.298 391.239 L362.055 394.135 L358.812 397.015 L355.569 399.872 L352.326 402.7 L349.083 405.491 L345.84 408.236 L342.596 410.929 L339.353 413.56 L336.11 416.12 L332.867 418.602 L329.624 420.996 L326.381 423.292 L323.138 425.481 L319.895 427.553 L316.652 429.499 L313.409 431.308 L310.166 432.972 L306.923 434.479 L303.68 435.821 L300.437 436.987 L297.194 437.969 L293.951 438.759 L290.708 439.363 L287.465 439.786 L284.222 440.037 L280.979 440.123 L277.736 440.052 L274.493 439.831 L271.25 439.468 L268.007 438.97 L264.764 438.345 L261.521 437.599 L258.278 436.742 L255.035 435.778  Z" fill="#3da44d" fill-rule="evenodd" fill-opacity="0.1"/>
<polyline clip-path="url(#clip092)" style="stroke:#3da44d; stroke-linecap:round; stroke-linejoin:round; stroke-width:8; stroke-opacity:1; fill:none" points="255.035,724.075 258.278,722.549 261.521,720.986 264.764,719.385 268.007,717.746 271.25,716.068 274.493,714.35 277.736,712.59 280.979,710.789 284.222,708.946 287.465,707.058 290.708,705.126 293.951,703.148 297.194,701.123 300.437,699.051 303.68,696.932 306.923,694.768 310.166,692.559 313.409,690.307 316.652,688.012 319.895,685.675 323.138,683.298 326.381,680.881 329.624,678.425 332.867,675.931 336.11,673.4 339.353,670.833 342.596,668.231 345.84,665.594 349.083,662.924 352.326,660.221 355.569,657.486 358.812,654.72 362.055,651.924 365.298,649.098 368.541,646.243 371.784,643.361 375.027,640.451 378.27,637.515 381.513,634.554 384.756,631.567 387.999,628.557 391.242,625.524 394.485,622.468 397.728,619.39 400.971,616.291 404.214,613.172 407.457,610.034 410.7,606.877 413.943,603.703 417.186,600.511 420.429,597.303 423.672,594.08 426.915,590.842 430.158,587.59 433.401,584.326 436.644,581.049 439.887,577.761 443.13,574.462 446.373,571.154 449.616,567.837 452.859,564.512 456.103,561.18 459.346,557.843 462.589,554.5 465.832,551.154 469.075,547.804 472.318,544.452 475.561,541.099 478.804,537.745 482.047,534.393 485.29,531.043 488.533,527.696 491.776,524.353 495.019,521.016 498.262,517.685 501.505,514.362 504.748,511.048 507.991,507.745 511.234,504.452 514.477,501.173 517.72,497.908 520.963,494.659 524.206,491.427 527.449,488.213 530.692,485.019 533.935,481.846 537.178,478.697 540.421,475.573 543.664,472.474 546.907,469.404 550.15,466.364 553.393,463.355 556.636,460.375 559.879,457.423 563.122,454.499 566.366,451.601 569.609,448.729 572.852,445.883 576.095,443.062 579.338,440.265 582.581,437.492 585.824,434.743 589.067,432.017 592.31,429.315 595.553,426.635 598.796,423.978 602.039,421.343 605.282,418.731 608.525,416.142 611.768,413.574 615.011,411.03 618.254,408.507 621.497,406.008 624.74,403.531 627.983,401.079 631.226,398.65 634.469,396.245 637.712,393.866 640.955,391.512 644.198,389.185 647.441,386.884 650.684,384.611 653.927,382.367 657.17,380.152 660.413,377.967 663.656,375.813 666.899,373.692 670.142,371.604 673.385,369.55 676.629,367.531 679.872,365.549 683.115,363.606 686.358,361.702 689.601,359.838 692.844,358.017 696.087,356.24 699.33,354.508 702.573,352.823 705.816,351.187 709.059,349.602 712.302,348.069 715.545,346.591 718.788,345.169 722.031,343.806 725.274,342.503 728.517,341.264 731.76,340.09 735.003,338.983 738.246,337.946 741.489,336.976 744.732,336.074 747.975,335.236 751.218,334.46 754.461,333.746 757.704,333.092 760.947,332.496 764.19,331.957 767.433,331.474 770.676,331.045 773.919,330.67 777.162,330.346 780.405,330.074 783.648,329.852 786.892,329.679 790.135,329.555 793.378,329.479 796.621,329.45 799.864,329.467 803.107,329.53 806.35,329.639 809.593,329.793 812.836,329.992 816.079,330.236 819.322,330.523 822.565,330.856 825.808,331.232 829.051,331.653 832.294,332.118 835.537,332.627 838.78,333.181 842.023,333.78 845.266,334.424 848.509,335.115 851.752,335.851 854.995,336.634 858.238,337.464 861.481,338.342 864.724,339.27 867.967,340.246 871.21,341.274 874.453,342.352 877.696,343.484 880.939,344.669 884.182,345.908 887.425,347.204 890.668,348.557 893.911,349.969 897.155,351.441 900.398,352.974 903.641,354.571 906.884,356.233 910.127,357.962 913.37,359.76 916.613,361.628 919.856,363.569 923.099,365.584 926.342,367.676 929.585,369.848 932.828,372.1 936.071,374.437 939.314,376.86 942.557,379.372 945.8,381.976 949.043,384.674 952.286,387.469 955.529,390.365 958.772,393.364 962.015,396.468 965.258,399.673 968.501,402.974 971.744,406.366 974.987,409.843 978.23,413.401 981.473,417.035 984.716,420.74 987.959,424.511 991.202,428.343 994.445,432.233 997.688,436.174 1000.93,440.164 1004.17,444.197 1007.42,448.272 1010.66,452.387 1013.9,456.54 1017.15,460.729 1020.39,464.954 1023.63,469.212 1026.88,473.502 1030.12,477.822 1033.36,482.172 1036.6,486.549 1039.85,490.953 1043.09,495.381 1046.33,499.834 1049.58,504.31 1052.82,508.807 1056.06,513.324 1059.31,517.861 1062.55,522.417 1065.79,526.99 1069.04,531.579 1072.28,536.184 1075.52,540.803 1078.76,545.436 1082.01,550.082 1085.25,554.739 1088.49,559.409 1091.74,564.088 1094.98,568.778 1098.22,573.476 1101.47,578.183 1104.71,582.897 1107.95,587.619 1111.19,592.347 1114.44,597.08 1117.68,601.819 1120.92,606.563 1124.17,611.311 1127.41,616.062 1130.65,620.817 1133.9,625.574 1137.14,630.334 1140.38,635.095 1143.62,639.858 1146.87,644.621 1150.11,649.385 1153.35,654.148 1156.6,658.912 1159.84,663.674 1163.08,668.434 1166.33,673.188 1169.57,677.935 1172.81,682.673 1176.06,687.399 1179.3,692.112 1182.54,696.808 1185.78,701.487 1189.03,706.145 1192.27,710.782 1195.51,715.393 1198.76,719.979 1202,724.538 1205.24,729.073 1208.49,733.583 1211.73,738.069 1214.97,742.533 1218.21,746.975 1221.46,751.395 1224.7,755.795 1227.94,760.175 1231.19,764.536 1234.43,768.878 1237.67,773.203 1240.92,777.511 1244.16,781.802 1247.4,786.077 1250.64,790.338 1253.89,794.584 1257.13,798.816 1260.37,803.035 1263.62,807.241 1266.86,811.435 1270.1,815.618 1273.35,819.79 1276.59,823.952 1279.83,828.104 1283.08,832.248 1286.32,836.382 1289.56,840.509 1292.8,844.627 1296.05,848.739 1299.29,852.845 1302.53,856.944 1305.78,861.038 1309.02,865.127 1312.26,869.211 1315.51,873.291 1318.75,877.368 1321.99,881.441 1325.23,885.511 1328.48,889.579 1331.72,893.644 1334.96,897.709 1338.21,901.771 1341.45,905.833 1344.69,909.894 1347.94,913.955 1351.18,918.016 1354.42,922.078 1357.66,926.14 1360.91,930.203 1364.15,934.268 1367.39,938.334 1370.64,942.401 1373.88,946.471 1377.12,950.543 1380.37,954.618 1383.61,958.695 1386.85,962.775 1390.1,966.858 1393.34,970.949 1396.58,975.05 1399.82,979.167 1403.07,983.302 1406.31,987.46 1409.55,991.645 1412.8,995.861 1416.04,1000.11 1419.28,1004.39 1422.53,1008.7 1425.77,1013.04 1429.01,1017.4 1432.25,1021.79 1435.5,1026.19 1438.74,1030.62 1441.98,1035.05 1445.23,1039.5 1448.47,1043.96 1451.71,1048.43 1454.96,1052.9 1458.2,1057.37 1461.44,1061.84 1464.68,1066.31 1467.93,1070.77 1471.17,1075.22 1474.41,1079.67 1477.66,1084.09 1480.9,1088.5 1484.14,1092.89 1487.39,1097.26 1490.63,1101.6 1493.87,1105.92 1497.11,1110.2 1500.36,1114.45 1503.6,1118.65 1506.84,1122.82 1510.09,1126.94 1513.33,1131.02 1516.57,1135.04 1519.82,1139.01 1523.06,1142.93 1526.3,1146.78 1529.55,1150.56 1532.79,1154.28 1536.03,1157.92 1539.27,1161.49 1542.52,1164.98 1545.76,1168.38 1549,1171.7 1552.25,1174.94 1555.49,1178.1 1558.73,1181.18 1561.98,1184.19 1565.22,1187.11 1568.46,1189.97 1571.7,1192.75 1574.95,1195.47 1578.19,1198.11 1581.43,1200.69 1584.68,1203.21 1587.92,1205.67 1591.16,1208.06 1594.41,1210.4 1597.65,1212.67 1600.89,1214.89 1604.13,1217.06 1607.38,1219.17 1610.62,1221.23 1613.86,1223.23 1617.11,1225.18 1620.35,1227.09 1623.59,1228.94 1626.84,1230.75 1630.08,1232.5 1633.32,1234.21 1636.57,1235.87 1639.81,1237.49 1643.05,1239.06 1646.29,1240.58 1649.54,1242.06 1652.78,1243.49 1656.02,1244.87 1659.27,1246.21 1662.51,1247.51 1665.75,1248.76 1669,1249.96 1672.24,1251.12 1675.48,1252.23 1678.72,1253.29 1681.97,1254.31 1685.21,1255.28 1688.45,1256.2 1691.7,1257.08 1694.94,1257.9 1698.18,1258.67 1701.43,1259.39 1704.67,1260.06 1707.91,1260.67 1711.15,1261.23 1714.4,1261.74 1717.64,1262.19 1720.88,1262.58 1724.13,1262.91 1727.37,1263.19 1730.61,1263.42 1733.86,1263.6 1737.1,1263.74 1740.34,1263.83 1743.59,1263.87 1746.83,1263.88 1750.07,1263.84 1753.31,1263.77 1756.56,1263.67 1759.8,1263.53 1763.04,1263.36 1766.29,1263.15 1769.53,1262.92 1772.77,1262.66 1776.02,1262.38 1779.26,1262.07 1782.5,1261.74 1785.74,1261.38 1788.99,1261 1792.23,1260.59 1795.47,1260.14 1798.72,1259.66 1801.96,1259.13 1805.2,1258.57 1808.45,1257.96 1811.69,1257.31 1814.93,1256.62 1818.17,1255.89 1821.42,1255.12 1824.66,1254.32 1827.9,1253.49 1831.15,1252.62 1834.39,1251.72 1837.63,1250.79 1840.88,1249.84 1844.12,1248.85 1847.36,1247.84 1850.61,1246.8 1853.85,1245.73 1857.09,1244.64 1860.33,1243.53 1863.58,1242.39 1866.82,1241.23 1870.06,1240.05 1873.31,1238.84 1876.55,1237.62 1879.79,1236.37 1883.04,1235.1 1886.28,1233.82 1889.52,1232.51 1892.76,1231.18 1896.01,1229.84 1899.25,1228.47 1902.49,1227.09 1905.74,1225.68 1908.98,1224.25 1912.22,1222.81 1915.47,1221.34 1918.71,1219.84 1921.95,1218.33 1925.19,1216.79 1928.44,1215.22 1931.68,1213.63 1934.92,1212.01 1938.17,1210.36 1941.41,1208.68 1944.65,1206.97 1947.9,1205.23 1951.14,1203.45 1954.38,1201.64 1957.63,1199.8 1960.87,1197.91 1964.11,1195.99 1967.35,1194.02 1970.6,1192.02 1973.84,1189.97 1977.08,1187.87 1980.33,1185.72 1983.57,1183.53 1986.81,1181.28 1990.06,1178.98 1993.3,1176.62 1996.54,1174.21 1999.78,1171.73 2003.03,1169.19 2006.27,1166.59 2009.51,1163.91 2012.76,1161.17 2016,1158.35 2019.24,1155.46 2022.49,1152.49 2025.73,1149.44 2028.97,1146.3 2032.21,1143.09 2035.46,1139.8 2038.7,1136.42 2041.94,1132.96 2045.19,1129.43 2048.43,1125.81 2051.67,1122.11 2054.92,1118.33 2058.16,1114.47 2061.4,1110.53 2064.65,1106.51 2067.89,1102.4 2071.13,1098.23 2074.37,1093.98 2077.62,1089.67 2080.86,1085.29 2084.1,1080.86 2087.35,1076.37 2090.59,1071.84 2093.83,1067.25 2097.08,1062.63 2100.32,1057.96 2103.56,1053.26 2106.8,1048.52 2110.05,1043.76 2113.29,1038.97 2116.53,1034.15 2119.78,1029.32 2123.02,1024.48 2126.26,1019.62 2129.51,1014.75 2132.75,1009.88 2135.99,1005 2139.23,1000.13 2142.48,995.255 2145.72,990.39 2148.96,985.535 2152.21,980.693 2155.45,975.868 2158.69,971.062 2161.94,966.278 2165.18,961.52 2168.42,956.79 2171.67,952.092 2174.91,947.429 2178.15,942.803 2181.39,938.218 2184.64,933.678 2187.88,929.184 2191.12,924.741 2194.37,920.351 2197.61,916.017 2200.85,911.744 2204.1,907.533 2207.34,903.389 2210.58,899.314 2213.82,895.312 2217.07,891.386 2220.31,887.539 2223.55,883.775 2226.8,880.098 2230.04,876.51 2233.28,873.015 2236.53,869.611 2239.77,866.295 2243.01,863.067 2246.25,859.924 2249.5,856.864 2252.74,853.885 2255.98,850.986 2259.23,848.163 2262.47,845.416 2265.71,842.744 2268.96,840.143 2272.2,837.612 2275.44,835.151 2278.69,832.756 2281.93,830.427 2285.17,828.162 2288.41,825.96 2291.66,823.818 "/>
<path clip-path="url(#clip090)" d="M1953.46 302.578 L2280.8 302.578 L2280.8 95.2176 L1953.46 95.2176  Z" fill="#ffffff" fill-rule="evenodd" fill-opacity="1"/>
<polyline clip-path="url(#clip090)" style="stroke:#000000; stroke-linecap:round; stroke-linejoin:round; stroke-width:4; stroke-opacity:1; fill:none" points="1953.46,302.578 2280.8,302.578 2280.8,95.2176 1953.46,95.2176 1953.46,302.578 "/>
<polyline clip-path="url(#clip090)" style="stroke:#009af9; stroke-linecap:round; stroke-linejoin:round; stroke-width:4; stroke-opacity:1; fill:none" points="1977.44,147.058 2121.36,147.058 "/>
<path clip-path="url(#clip090)" d="M2152.76 131.051 L2152.76 138.412 L2161.53 138.412 L2161.53 141.722 L2152.76 141.722 L2152.76 155.796 Q2152.76 158.967 2153.61 159.87 Q2154.49 160.773 2157.16 160.773 L2161.53 160.773 L2161.53 164.338 L2157.16 164.338 Q2152.23 164.338 2150.35 162.509 Q2148.48 160.657 2148.48 155.796 L2148.48 141.722 L2145.35 141.722 L2145.35 138.412 L2148.48 138.412 L2148.48 131.051 L2152.76 131.051 Z" fill="#000000" fill-rule="nonzero" fill-opacity="1" /><path clip-path="url(#clip090)" d="M2182.16 142.393 Q2181.44 141.977 2180.58 141.791 Q2179.75 141.583 2178.73 141.583 Q2175.12 141.583 2173.17 143.944 Q2171.25 146.282 2171.25 150.68 L2171.25 164.338 L2166.97 164.338 L2166.97 138.412 L2171.25 138.412 L2171.25 142.44 Q2172.6 140.078 2174.75 138.944 Q2176.9 137.787 2179.98 137.787 Q2180.42 137.787 2180.95 137.856 Q2181.48 137.903 2182.13 138.018 L2182.16 142.393 Z" fill="#000000" fill-rule="nonzero" fill-opacity="1" /><path clip-path="url(#clip090)" d="M2186.18 154.106 L2186.18 138.412 L2190.44 138.412 L2190.44 153.944 Q2190.44 157.625 2191.88 159.476 Q2193.31 161.305 2196.18 161.305 Q2199.63 161.305 2201.62 159.106 Q2203.64 156.907 2203.64 153.111 L2203.64 138.412 L2207.9 138.412 L2207.9 164.338 L2203.64 164.338 L2203.64 160.356 Q2202.09 162.717 2200.03 163.875 Q2197.99 165.009 2195.28 165.009 Q2190.81 165.009 2188.5 162.231 Q2186.18 159.453 2186.18 154.106 M2196.9 137.787 L2196.9 137.787 Z" fill="#000000" fill-rule="nonzero" fill-opacity="1" /><path clip-path="url(#clip090)" d="M2220.88 131.051 L2220.88 138.412 L2229.66 138.412 L2229.66 141.722 L2220.88 141.722 L2220.88 155.796 Q2220.88 158.967 2221.74 159.87 Q2222.62 160.773 2225.28 160.773 L2229.66 160.773 L2229.66 164.338 L2225.28 164.338 Q2220.35 164.338 2218.48 162.509 Q2216.6 160.657 2216.6 155.796 L2216.6 141.722 L2213.48 141.722 L2213.48 138.412 L2216.6 138.412 L2216.6 131.051 L2220.88 131.051 Z" fill="#000000" fill-rule="nonzero" fill-opacity="1" /><path clip-path="url(#clip090)" d="M2256.81 148.689 L2256.81 164.338 L2252.55 164.338 L2252.55 148.828 Q2252.55 145.148 2251.11 143.319 Q2249.68 141.49 2246.81 141.49 Q2243.36 141.49 2241.37 143.69 Q2239.38 145.889 2239.38 149.685 L2239.38 164.338 L2235.1 164.338 L2235.1 128.319 L2239.38 128.319 L2239.38 142.44 Q2240.91 140.102 2242.97 138.944 Q2245.05 137.787 2247.76 137.787 Q2252.23 137.787 2254.52 140.565 Q2256.81 143.319 2256.81 148.689 Z" fill="#000000" fill-rule="nonzero" fill-opacity="1" /><circle clip-path="url(#clip090)" cx="2049.4" cy="198.898" r="20.48" fill="#e26f46" fill-rule="evenodd" fill-opacity="1" stroke="#000000" stroke-opacity="1" stroke-width="4.55111"/>
<path clip-path="url(#clip090)" d="M2164.26 194.187 L2164.26 180.159 L2168.52 180.159 L2168.52 216.178 L2164.26 216.178 L2164.26 212.289 Q2162.92 214.603 2160.86 215.738 Q2158.82 216.849 2155.95 216.849 Q2151.25 216.849 2148.29 213.099 Q2145.35 209.349 2145.35 203.238 Q2145.35 197.127 2148.29 193.377 Q2151.25 189.627 2155.95 189.627 Q2158.82 189.627 2160.86 190.761 Q2162.92 191.872 2164.26 194.187 M2149.75 203.238 Q2149.75 207.937 2151.67 210.622 Q2153.61 213.284 2156.99 213.284 Q2160.37 213.284 2162.32 210.622 Q2164.26 207.937 2164.26 203.238 Q2164.26 198.539 2162.32 195.877 Q2160.37 193.192 2156.99 193.192 Q2153.61 193.192 2151.67 195.877 Q2149.75 198.539 2149.75 203.238 Z" fill="#000000" fill-rule="nonzero" fill-opacity="1" /><path clip-path="url(#clip090)" d="M2189.08 203.145 Q2183.92 203.145 2181.92 204.326 Q2179.93 205.506 2179.93 208.354 Q2179.93 210.622 2181.42 211.965 Q2182.92 213.284 2185.49 213.284 Q2189.03 213.284 2191.16 210.784 Q2193.31 208.261 2193.31 204.094 L2193.31 203.145 L2189.08 203.145 M2197.57 201.386 L2197.57 216.178 L2193.31 216.178 L2193.31 212.242 Q2191.85 214.603 2189.68 215.738 Q2187.5 216.849 2184.36 216.849 Q2180.37 216.849 2178.01 214.627 Q2175.67 212.381 2175.67 208.631 Q2175.67 204.256 2178.59 202.034 Q2181.53 199.812 2187.34 199.812 L2193.31 199.812 L2193.31 199.395 Q2193.31 196.455 2191.37 194.858 Q2189.45 193.238 2185.95 193.238 Q2183.73 193.238 2181.62 193.77 Q2179.52 194.303 2177.57 195.367 L2177.57 191.432 Q2179.91 190.53 2182.11 190.09 Q2184.31 189.627 2186.39 189.627 Q2192.02 189.627 2194.79 192.543 Q2197.57 195.46 2197.57 201.386 Z" fill="#000000" fill-rule="nonzero" fill-opacity="1" /><path clip-path="url(#clip090)" d="M2210.56 182.891 L2210.56 190.252 L2219.33 190.252 L2219.33 193.562 L2210.56 193.562 L2210.56 207.636 Q2210.56 210.807 2211.42 211.71 Q2212.29 212.613 2214.96 212.613 L2219.33 212.613 L2219.33 216.178 L2214.96 216.178 Q2210.03 216.178 2208.15 214.349 Q2206.28 212.497 2206.28 207.636 L2206.28 193.562 L2203.15 193.562 L2203.15 190.252 L2206.28 190.252 L2206.28 182.891 L2210.56 182.891 Z" fill="#000000" fill-rule="nonzero" fill-opacity="1" /><path clip-path="url(#clip090)" d="M2236.72 203.145 Q2231.55 203.145 2229.56 204.326 Q2227.57 205.506 2227.57 208.354 Q2227.57 210.622 2229.05 211.965 Q2230.56 213.284 2233.13 213.284 Q2236.67 213.284 2238.8 210.784 Q2240.95 208.261 2240.95 204.094 L2240.95 203.145 L2236.72 203.145 M2245.21 201.386 L2245.21 216.178 L2240.95 216.178 L2240.95 212.242 Q2239.49 214.603 2237.32 215.738 Q2235.14 216.849 2231.99 216.849 Q2228.01 216.849 2225.65 214.627 Q2223.31 212.381 2223.31 208.631 Q2223.31 204.256 2226.23 202.034 Q2229.17 199.812 2234.98 199.812 L2240.95 199.812 L2240.95 199.395 Q2240.95 196.455 2239.01 194.858 Q2237.09 193.238 2233.59 193.238 Q2231.37 193.238 2229.26 193.77 Q2227.16 194.303 2225.21 195.367 L2225.21 191.432 Q2227.55 190.53 2229.75 190.09 Q2231.95 189.627 2234.03 189.627 Q2239.66 189.627 2242.43 192.543 Q2245.21 195.46 2245.21 201.386 Z" fill="#000000" fill-rule="nonzero" fill-opacity="1" /><polyline clip-path="url(#clip090)" style="stroke:#3da44d; stroke-linecap:round; stroke-linejoin:round; stroke-width:8; stroke-opacity:1; fill:none" points="1977.44,250.738 2121.36,250.738 "/>
<path clip-path="url(#clip090)" d="M2170.91 263.087 L2170.91 253.805 L2163.27 253.805 L2163.27 249.962 L2175.54 249.962 L2175.54 264.8 Q2172.83 266.721 2169.56 267.717 Q2166.3 268.689 2162.6 268.689 Q2154.49 268.689 2149.91 263.967 Q2145.35 259.221 2145.35 250.772 Q2145.35 242.3 2149.91 237.578 Q2154.49 232.833 2162.6 232.833 Q2165.98 232.833 2169.01 233.666 Q2172.06 234.499 2174.63 236.12 L2174.63 241.096 Q2172.04 238.897 2169.12 237.786 Q2166.21 236.675 2162.99 236.675 Q2156.65 236.675 2153.45 240.217 Q2150.28 243.758 2150.28 250.772 Q2150.28 257.763 2153.45 261.305 Q2156.65 264.846 2162.99 264.846 Q2165.47 264.846 2167.41 264.43 Q2169.36 263.99 2170.91 263.087 Z" fill="#000000" fill-rule="nonzero" fill-opacity="1" /><path clip-path="url(#clip090)" d="M2188.75 237.3 L2188.75 250.286 L2194.63 250.286 Q2197.9 250.286 2199.68 248.596 Q2201.46 246.907 2201.46 243.782 Q2201.46 240.68 2199.68 238.99 Q2197.9 237.3 2194.63 237.3 L2188.75 237.3 M2184.08 233.458 L2194.63 233.458 Q2200.44 233.458 2203.41 236.096 Q2206.39 238.712 2206.39 243.782 Q2206.39 248.897 2203.41 251.513 Q2200.44 254.129 2194.63 254.129 L2188.75 254.129 L2188.75 268.018 L2184.08 268.018 L2184.08 233.458 Z" fill="#000000" fill-rule="nonzero" fill-opacity="1" /></svg>
