<?xml version="1.0" encoding="utf-8"?>
<svg xmlns="http://www.w3.org/2000/svg" xmlns:xlink="http://www.w3.org/1999/xlink" width="600" height="400" viewBox="0 0 2400 1600">
<defs>
  <clipPath id="clip920">
    <rect x="0" y="0" width="2400" height="1600"/>
  </clipPath>
</defs>
<path clip-path="url(#clip920)" d="M0 1600 L2400 1600 L2400 0 L0 0  Z" fill="#ffffff" fill-rule="evenodd" fill-opacity="1"/>
<defs>
  <clipPath id="clip921">
    <rect x="480" y="0" width="1681" height="1600"/>
  </clipPath>
</defs>
<path clip-path="url(#clip920)" d="M193.936 1486.45 L2352.76 1486.45 L2352.76 47.2441 L193.936 47.2441  Z" fill="#ffffff" fill-rule="evenodd" fill-opacity="1"/>
<defs>
  <clipPath id="clip922">
    <rect x="193" y="47" width="2160" height="1440"/>
  </clipPath>
</defs>
<polyline clip-path="url(#clip922)" style="stroke:#000000; stroke-linecap:round; stroke-linejoin:round; stroke-width:2; stroke-opacity:0.1; fill:none" points="255.035,1486.45 255.035,47.2441 "/>
<polyline clip-path="url(#clip922)" style="stroke:#000000; stroke-linecap:round; stroke-linejoin:round; stroke-width:2; stroke-opacity:0.1; fill:none" points="579.338,1486.45 579.338,47.2441 "/>
<polyline clip-path="url(#clip922)" style="stroke:#000000; stroke-linecap:round; stroke-linejoin:round; stroke-width:2; stroke-opacity:0.1; fill:none" points="903.641,1486.45 903.641,47.2441 "/>
<polyline clip-path="url(#clip922)" style="stroke:#000000; stroke-linecap:round; stroke-linejoin:round; stroke-width:2; stroke-opacity:0.1; fill:none" points="1227.94,1486.45 1227.94,47.2441 "/>
<polyline clip-path="url(#clip922)" style="stroke:#000000; stroke-linecap:round; stroke-linejoin:round; stroke-width:2; stroke-opacity:0.1; fill:none" points="1552.25,1486.45 1552.25,47.2441 "/>
<polyline clip-path="url(#clip922)" style="stroke:#000000; stroke-linecap:round; stroke-linejoin:round; stroke-width:2; stroke-opacity:0.1; fill:none" points="1876.55,1486.45 1876.55,47.2441 "/>
<polyline clip-path="url(#clip922)" style="stroke:#000000; stroke-linecap:round; stroke-linejoin:round; stroke-width:2; stroke-opacity:0.1; fill:none" points="2200.85,1486.45 2200.85,47.2441 "/>
<polyline clip-path="url(#clip922)" style="stroke:#000000; stroke-linecap:round; stroke-linejoin:round; stroke-width:2; stroke-opacity:0.1; fill:none" points="193.936,1445.72 2352.76,1445.72 "/>
<polyline clip-path="url(#clip922)" style="stroke:#000000; stroke-linecap:round; stroke-linejoin:round; stroke-width:2; stroke-opacity:0.1; fill:none" points="193.936,1136.52 2352.76,1136.52 "/>
<polyline clip-path="url(#clip922)" style="stroke:#000000; stroke-linecap:round; stroke-linejoin:round; stroke-width:2; stroke-opacity:0.1; fill:none" points="193.936,827.318 2352.76,827.318 "/>
<polyline clip-path="url(#clip922)" style="stroke:#000000; stroke-linecap:round; stroke-linejoin:round; stroke-width:2; stroke-opacity:0.1; fill:none" points="193.936,518.119 2352.76,518.119 "/>
<polyline clip-path="url(#clip922)" style="stroke:#000000; stroke-linecap:round; stroke-linejoin:round; stroke-width:2; stroke-opacity:0.1; fill:none" points="193.936,208.919 2352.76,208.919 "/>
<polyline clip-path="url(#clip920)" style="stroke:#000000; stroke-linecap:round; stroke-linejoin:round; stroke-width:4; stroke-opacity:1; fill:none" points="193.936,1486.45 2352.76,1486.45 "/>
<polyline clip-path="url(#clip920)" style="stroke:#000000; stroke-linecap:round; stroke-linejoin:round; stroke-width:4; stroke-opacity:1; fill:none" points="255.035,1486.45 255.035,1467.55 "/>
<polyline clip-path="url(#clip920)" style="stroke:#000000; stroke-linecap:round; stroke-linejoin:round; stroke-width:4; stroke-opacity:1; fill:none" points="579.338,1486.45 579.338,1467.55 "/>
<polyline clip-path="url(#clip920)" style="stroke:#000000; stroke-linecap:round; stroke-linejoin:round; stroke-width:4; stroke-opacity:1; fill:none" points="903.641,1486.45 903.641,1467.55 "/>
<polyline clip-path="url(#clip920)" style="stroke:#000000; stroke-linecap:round; stroke-linejoin:round; stroke-width:4; stroke-opacity:1; fill:none" points="1227.94,1486.45 1227.94,1467.55 "/>
<polyline clip-path="url(#clip920)" style="stroke:#000000; stroke-linecap:round; stroke-linejoin:round; stroke-width:4; stroke-opacity:1; fill:none" points="1552.25,1486.45 1552.25,1467.55 "/>
<polyline clip-path="url(#clip920)" style="stroke:#000000; stroke-linecap:round; stroke-linejoin:round; stroke-width:4; stroke-opacity:1; fill:none" points="1876.55,1486.45 1876.55,1467.55 "/>
<polyline clip-path="url(#clip920)" style="stroke:#000000; stroke-linecap:round; stroke-linejoin:round; stroke-width:4; stroke-opacity:1; fill:none" points="2200.85,1486.45 2200.85,1467.55 "/>
<path clip-path="url(#clip920)" d="M255.035 1517.37 Q251.424 1517.37 249.595 1520.93 Q247.789 1524.47 247.789 1531.6 Q247.789 1538.71 249.595 1542.27 Q251.424 1545.82 255.035 1545.82 Q258.669 1545.82 260.474 1542.27 Q262.303 1538.71 262.303 1531.6 Q262.303 1524.47 260.474 1520.93 Q258.669 1517.37 255.035 1517.37 M255.035 1513.66 Q260.845 1513.66 263.9 1518.27 Q266.979 1522.85 266.979 1531.6 Q266.979 1540.33 263.9 1544.94 Q260.845 1549.52 255.035 1549.52 Q249.225 1549.52 246.146 1544.94 Q243.09 1540.33 243.09 1531.6 Q243.09 1522.85 246.146 1518.27 Q249.225 1513.66 255.035 1513.66 Z" fill="#000000" fill-rule="nonzero" fill-opacity="1" /><path clip-path="url(#clip920)" d="M569.72 1544.91 L577.358 1544.91 L577.358 1518.55 L569.048 1520.21 L569.048 1515.95 L577.312 1514.29 L581.988 1514.29 L581.988 1544.91 L589.627 1544.91 L589.627 1548.85 L569.72 1548.85 L569.72 1544.91 Z" fill="#000000" fill-rule="nonzero" fill-opacity="1" /><path clip-path="url(#clip920)" d="M898.293 1544.91 L914.613 1544.91 L914.613 1548.85 L892.668 1548.85 L892.668 1544.91 Q895.33 1542.16 899.914 1537.53 Q904.52 1532.88 905.701 1531.53 Q907.946 1529.01 908.826 1527.27 Q909.729 1525.51 909.729 1523.82 Q909.729 1521.07 907.784 1519.33 Q905.863 1517.6 902.761 1517.6 Q900.562 1517.6 898.108 1518.36 Q895.678 1519.13 892.9 1520.68 L892.9 1515.95 Q895.724 1514.82 898.178 1514.24 Q900.631 1513.66 902.668 1513.66 Q908.039 1513.66 911.233 1516.35 Q914.428 1519.03 914.428 1523.52 Q914.428 1525.65 913.617 1527.57 Q912.83 1529.47 910.724 1532.07 Q910.145 1532.74 907.043 1535.95 Q903.942 1539.15 898.293 1544.91 Z" fill="#000000" fill-rule="nonzero" fill-opacity="1" /><path clip-path="url(#clip920)" d="M1232.19 1530.21 Q1235.55 1530.93 1237.42 1533.2 Q1239.32 1535.47 1239.32 1538.8 Q1239.32 1543.92 1235.8 1546.72 Q1232.28 1549.52 1225.8 1549.52 Q1223.63 1549.52 1221.31 1549.08 Q1219.02 1548.66 1216.57 1547.81 L1216.57 1543.29 Q1218.51 1544.43 1220.83 1545.01 Q1223.14 1545.58 1225.66 1545.58 Q1230.06 1545.58 1232.35 1543.85 Q1234.67 1542.11 1234.67 1538.8 Q1234.67 1535.75 1232.52 1534.03 Q1230.39 1532.3 1226.57 1532.3 L1222.54 1532.3 L1222.54 1528.45 L1226.75 1528.45 Q1230.2 1528.45 1232.03 1527.09 Q1233.86 1525.7 1233.86 1523.11 Q1233.86 1520.45 1231.96 1519.03 Q1230.08 1517.6 1226.57 1517.6 Q1224.64 1517.6 1222.45 1518.01 Q1220.25 1518.43 1217.61 1519.31 L1217.61 1515.14 Q1220.27 1514.4 1222.58 1514.03 Q1224.92 1513.66 1226.98 1513.66 Q1232.31 1513.66 1235.41 1516.09 Q1238.51 1518.5 1238.51 1522.62 Q1238.51 1525.49 1236.87 1527.48 Q1235.22 1529.45 1232.19 1530.21 Z" fill="#000000" fill-rule="nonzero" fill-opacity="1" /><path clip-path="url(#clip920)" d="M1555.26 1518.36 L1543.45 1536.81 L1555.26 1536.81 L1555.26 1518.36 M1554.03 1514.29 L1559.91 1514.29 L1559.91 1536.81 L1564.84 1536.81 L1564.84 1540.7 L1559.91 1540.7 L1559.91 1548.85 L1555.26 1548.85 L1555.26 1540.7 L1539.65 1540.7 L1539.65 1536.19 L1554.03 1514.29 Z" fill="#000000" fill-rule="nonzero" fill-opacity="1" /><path clip-path="url(#clip920)" d="M1866.83 1514.29 L1885.18 1514.29 L1885.18 1518.22 L1871.11 1518.22 L1871.11 1526.7 Q1872.13 1526.35 1873.15 1526.19 Q1874.17 1526 1875.18 1526 Q1880.97 1526 1884.35 1529.17 Q1887.73 1532.34 1887.73 1537.76 Q1887.73 1543.34 1884.26 1546.44 Q1880.79 1549.52 1874.47 1549.52 Q1872.29 1549.52 1870.02 1549.15 Q1867.78 1548.78 1865.37 1548.04 L1865.37 1543.34 Q1867.45 1544.47 1869.67 1545.03 Q1871.9 1545.58 1874.37 1545.58 Q1878.38 1545.58 1880.72 1543.48 Q1883.05 1541.37 1883.05 1537.76 Q1883.05 1534.15 1880.72 1532.04 Q1878.38 1529.94 1874.37 1529.94 Q1872.5 1529.94 1870.62 1530.35 Q1868.77 1530.77 1866.83 1531.65 L1866.83 1514.29 Z" fill="#000000" fill-rule="nonzero" fill-opacity="1" /><path clip-path="url(#clip920)" d="M2201.26 1529.7 Q2198.11 1529.7 2196.26 1531.86 Q2194.43 1534.01 2194.43 1537.76 Q2194.43 1541.49 2196.26 1543.66 Q2198.11 1545.82 2201.26 1545.82 Q2204.41 1545.82 2206.23 1543.66 Q2208.09 1541.49 2208.09 1537.76 Q2208.09 1534.01 2206.23 1531.86 Q2204.41 1529.7 2201.26 1529.7 M2210.54 1515.05 L2210.54 1519.31 Q2208.78 1518.48 2206.98 1518.04 Q2205.19 1517.6 2203.43 1517.6 Q2198.8 1517.6 2196.35 1520.72 Q2193.92 1523.85 2193.57 1530.17 Q2194.94 1528.15 2197 1527.09 Q2199.06 1526 2201.54 1526 Q2206.74 1526 2209.75 1529.17 Q2212.79 1532.32 2212.79 1537.76 Q2212.79 1543.08 2209.64 1546.3 Q2206.49 1549.52 2201.26 1549.52 Q2195.26 1549.52 2192.09 1544.94 Q2188.92 1540.33 2188.92 1531.6 Q2188.92 1523.41 2192.81 1518.55 Q2196.7 1513.66 2203.25 1513.66 Q2205.01 1513.66 2206.79 1514.01 Q2208.6 1514.36 2210.54 1515.05 Z" fill="#000000" fill-rule="nonzero" fill-opacity="1" /><polyline clip-path="url(#clip920)" style="stroke:#000000; stroke-linecap:round; stroke-linejoin:round; stroke-width:4; stroke-opacity:1; fill:none" points="193.936,1486.45 193.936,47.2441 "/>
<polyline clip-path="url(#clip920)" style="stroke:#000000; stroke-linecap:round; stroke-linejoin:round; stroke-width:4; stroke-opacity:1; fill:none" points="193.936,1445.72 212.834,1445.72 "/>
<polyline clip-path="url(#clip920)" style="stroke:#000000; stroke-linecap:round; stroke-linejoin:round; stroke-width:4; stroke-opacity:1; fill:none" points="193.936,1136.52 212.834,1136.52 "/>
<polyline clip-path="url(#clip920)" style="stroke:#000000; stroke-linecap:round; stroke-linejoin:round; stroke-width:4; stroke-opacity:1; fill:none" points="193.936,827.318 212.834,827.318 "/>
<polyline clip-path="url(#clip920)" style="stroke:#000000; stroke-linecap:round; stroke-linejoin:round; stroke-width:4; stroke-opacity:1; fill:none" points="193.936,518.119 212.834,518.119 "/>
<polyline clip-path="url(#clip920)" style="stroke:#000000; stroke-linecap:round; stroke-linejoin:round; stroke-width:4; stroke-opacity:1; fill:none" points="193.936,208.919 212.834,208.919 "/>
<path clip-path="url(#clip920)" d="M50.9921 1446.17 L80.6679 1446.17 L80.6679 1450.1 L50.9921 1450.1 L50.9921 1446.17 Z" fill="#000000" fill-rule="nonzero" fill-opacity="1" /><path clip-path="url(#clip920)" d="M91.5706 1459.06 L99.2095 1459.06 L99.2095 1432.7 L90.8993 1434.36 L90.8993 1430.1 L99.1632 1428.44 L103.839 1428.44 L103.839 1459.06 L111.478 1459.06 L111.478 1463 L91.5706 1463 L91.5706 1459.06 Z" fill="#000000" fill-rule="nonzero" fill-opacity="1" /><path clip-path="url(#clip920)" d="M120.922 1457.12 L125.807 1457.12 L125.807 1463 L120.922 1463 L120.922 1457.12 Z" fill="#000000" fill-rule="nonzero" fill-opacity="1" /><path clip-path="url(#clip920)" d="M145.992 1431.52 Q142.381 1431.52 140.552 1435.08 Q138.746 1438.62 138.746 1445.75 Q138.746 1452.86 140.552 1456.42 Q142.381 1459.97 145.992 1459.97 Q149.626 1459.97 151.431 1456.42 Q153.26 1452.86 153.26 1445.75 Q153.26 1438.62 151.431 1435.08 Q149.626 1431.52 145.992 1431.52 M145.992 1427.81 Q151.802 1427.81 154.857 1432.42 Q157.936 1437 157.936 1445.75 Q157.936 1454.48 154.857 1459.09 Q151.802 1463.67 145.992 1463.67 Q140.181 1463.67 137.103 1459.09 Q134.047 1454.48 134.047 1445.75 Q134.047 1437 137.103 1432.42 Q140.181 1427.81 145.992 1427.81 Z" fill="#000000" fill-rule="nonzero" fill-opacity="1" /><path clip-path="url(#clip920)" d="M51.9875 1136.97 L81.6633 1136.97 L81.6633 1140.9 L51.9875 1140.9 L51.9875 1136.97 Z" fill="#000000" fill-rule="nonzero" fill-opacity="1" /><path clip-path="url(#clip920)" d="M101.756 1122.32 Q98.1447 1122.32 96.316 1125.88 Q94.5104 1129.42 94.5104 1136.55 Q94.5104 1143.66 96.316 1147.22 Q98.1447 1150.77 101.756 1150.77 Q105.39 1150.77 107.196 1147.22 Q109.024 1143.66 109.024 1136.55 Q109.024 1129.42 107.196 1125.88 Q105.39 1122.32 101.756 1122.32 M101.756 1118.61 Q107.566 1118.61 110.621 1123.22 Q113.7 1127.8 113.7 1136.55 Q113.7 1145.28 110.621 1149.89 Q107.566 1154.47 101.756 1154.47 Q95.9456 1154.47 92.8669 1149.89 Q89.8114 1145.28 89.8114 1136.55 Q89.8114 1127.8 92.8669 1123.22 Q95.9456 1118.61 101.756 1118.61 Z" fill="#000000" fill-rule="nonzero" fill-opacity="1" /><path clip-path="url(#clip920)" d="M121.918 1147.92 L126.802 1147.92 L126.802 1153.8 L121.918 1153.8 L121.918 1147.92 Z" fill="#000000" fill-rule="nonzero" fill-opacity="1" /><path clip-path="url(#clip920)" d="M137.033 1119.24 L155.39 1119.24 L155.39 1123.17 L141.316 1123.17 L141.316 1131.65 Q142.334 1131.3 143.353 1131.14 Q144.371 1130.95 145.39 1130.95 Q151.177 1130.95 154.556 1134.12 Q157.936 1137.29 157.936 1142.71 Q157.936 1148.29 154.464 1151.39 Q150.992 1154.47 144.672 1154.47 Q142.496 1154.47 140.228 1154.1 Q137.982 1153.73 135.575 1152.99 L135.575 1148.29 Q137.658 1149.42 139.881 1149.98 Q142.103 1150.53 144.58 1150.53 Q148.584 1150.53 150.922 1148.43 Q153.26 1146.32 153.26 1142.71 Q153.26 1139.1 150.922 1136.99 Q148.584 1134.89 144.58 1134.89 Q142.705 1134.89 140.83 1135.3 Q138.978 1135.72 137.033 1136.6 L137.033 1119.24 Z" fill="#000000" fill-rule="nonzero" fill-opacity="1" /><path clip-path="url(#clip920)" d="M100.76 813.117 Q97.1493 813.117 95.3206 816.682 Q93.515 820.223 93.515 827.353 Q93.515 834.459 95.3206 838.024 Q97.1493 841.566 100.76 841.566 Q104.395 841.566 106.2 838.024 Q108.029 834.459 108.029 827.353 Q108.029 820.223 106.2 816.682 Q104.395 813.117 100.76 813.117 M100.76 809.413 Q106.571 809.413 109.626 814.02 Q112.705 818.603 112.705 827.353 Q112.705 836.08 109.626 840.686 Q106.571 845.27 100.76 845.27 Q94.9502 845.27 91.8715 840.686 Q88.816 836.08 88.816 827.353 Q88.816 818.603 91.8715 814.02 Q94.9502 809.413 100.76 809.413 Z" fill="#000000" fill-rule="nonzero" fill-opacity="1" /><path clip-path="url(#clip920)" d="M120.922 838.719 L125.807 838.719 L125.807 844.598 L120.922 844.598 L120.922 838.719 Z" fill="#000000" fill-rule="nonzero" fill-opacity="1" /><path clip-path="url(#clip920)" d="M145.992 813.117 Q142.381 813.117 140.552 816.682 Q138.746 820.223 138.746 827.353 Q138.746 834.459 140.552 838.024 Q142.381 841.566 145.992 841.566 Q149.626 841.566 151.431 838.024 Q153.26 834.459 153.26 827.353 Q153.26 820.223 151.431 816.682 Q149.626 813.117 145.992 813.117 M145.992 809.413 Q151.802 809.413 154.857 814.02 Q157.936 818.603 157.936 827.353 Q157.936 836.08 154.857 840.686 Q151.802 845.27 145.992 845.27 Q140.181 845.27 137.103 840.686 Q134.047 836.08 134.047 827.353 Q134.047 818.603 137.103 814.02 Q140.181 809.413 145.992 809.413 Z" fill="#000000" fill-rule="nonzero" fill-opacity="1" /><path clip-path="url(#clip920)" d="M101.756 503.917 Q98.1447 503.917 96.316 507.482 Q94.5104 511.024 94.5104 518.153 Q94.5104 525.26 96.316 528.825 Q98.1447 532.366 101.756 532.366 Q105.39 532.366 107.196 528.825 Q109.024 525.26 109.024 518.153 Q109.024 511.024 107.196 507.482 Q105.39 503.917 101.756 503.917 M101.756 500.214 Q107.566 500.214 110.621 504.82 Q113.7 509.403 113.7 518.153 Q113.7 526.88 110.621 531.487 Q107.566 536.07 101.756 536.07 Q95.9456 536.07 92.8669 531.487 Q89.8114 526.88 89.8114 518.153 Q89.8114 509.403 92.8669 504.82 Q95.9456 500.214 101.756 500.214 Z" fill="#000000" fill-rule="nonzero" fill-opacity="1" /><path clip-path="url(#clip920)" d="M121.918 529.519 L126.802 529.519 L126.802 535.399 L121.918 535.399 L121.918 529.519 Z" fill="#000000" fill-rule="nonzero" fill-opacity="1" /><path clip-path="url(#clip920)" d="M137.033 500.839 L155.39 500.839 L155.39 504.774 L141.316 504.774 L141.316 513.246 Q142.334 512.899 143.353 512.737 Q144.371 512.552 145.39 512.552 Q151.177 512.552 154.556 515.723 Q157.936 518.894 157.936 524.311 Q157.936 529.889 154.464 532.991 Q150.992 536.07 144.672 536.07 Q142.496 536.07 140.228 535.7 Q137.982 535.329 135.575 534.588 L135.575 529.889 Q137.658 531.024 139.881 531.579 Q142.103 532.135 144.58 532.135 Q148.584 532.135 150.922 530.028 Q153.26 527.922 153.26 524.311 Q153.26 520.7 150.922 518.593 Q148.584 516.487 144.58 516.487 Q142.705 516.487 140.83 516.903 Q138.978 517.32 137.033 518.2 L137.033 500.839 Z" fill="#000000" fill-rule="nonzero" fill-opacity="1" /><path clip-path="url(#clip920)" d="M91.5706 222.264 L99.2095 222.264 L99.2095 195.898 L90.8993 197.565 L90.8993 193.306 L99.1632 191.639 L103.839 191.639 L103.839 222.264 L111.478 222.264 L111.478 226.199 L91.5706 226.199 L91.5706 222.264 Z" fill="#000000" fill-rule="nonzero" fill-opacity="1" /><path clip-path="url(#clip920)" d="M120.922 220.319 L125.807 220.319 L125.807 226.199 L120.922 226.199 L120.922 220.319 Z" fill="#000000" fill-rule="nonzero" fill-opacity="1" /><path clip-path="url(#clip920)" d="M145.992 194.718 Q142.381 194.718 140.552 198.282 Q138.746 201.824 138.746 208.954 Q138.746 216.06 140.552 219.625 Q142.381 223.167 145.992 223.167 Q149.626 223.167 151.431 219.625 Q153.26 216.06 153.26 208.954 Q153.26 201.824 151.431 198.282 Q149.626 194.718 145.992 194.718 M145.992 191.014 Q151.802 191.014 154.857 195.62 Q157.936 200.204 157.936 208.954 Q157.936 217.681 154.857 222.287 Q151.802 226.87 145.992 226.87 Q140.181 226.87 137.103 222.287 Q134.047 217.681 134.047 208.954 Q134.047 200.204 137.103 195.62 Q140.181 191.014 145.992 191.014 Z" fill="#000000" fill-rule="nonzero" fill-opacity="1" /><polyline clip-path="url(#clip922)" style="stroke:#009af9; stroke-linecap:round; stroke-linejoin:round; stroke-width:4; stroke-opacity:1; fill:none" points="255.035,827.318 258.278,821.134 261.521,814.951 264.764,808.769 268.007,802.589 271.25,796.411 274.493,790.237 277.736,784.066 280.979,777.899 284.222,771.737 287.465,765.581 290.708,759.431 293.951,753.288 297.194,747.153 300.437,741.025 303.68,734.906 306.923,728.796 310.166,722.696 313.409,716.606 316.652,710.528 319.895,704.461 323.138,698.407 326.381,692.365 329.624,686.337 332.867,680.323 336.11,674.324 339.353,668.34 342.596,662.372 345.84,656.42 349.083,650.486 352.326,644.569 355.569,638.67 358.812,632.791 362.055,626.93 365.298,621.09 368.541,615.27 371.784,609.472 375.027,603.696 378.27,597.941 381.513,592.21 384.756,586.502 387.999,580.819 391.242,575.159 394.485,569.526 397.728,563.918 400.971,558.336 404.214,552.781 407.457,547.254 410.7,541.754 413.943,536.284 417.186,530.842 420.429,525.43 423.672,520.048 426.915,514.697 430.158,509.377 433.401,504.089 436.644,498.833 439.887,493.61 443.13,488.421 446.373,483.265 449.616,478.144 452.859,473.057 456.103,468.007 459.346,462.992 462.589,458.013 465.832,453.071 469.075,448.167 472.318,443.301 475.561,438.473 478.804,433.684 482.047,428.934 485.29,424.225 488.533,419.555 491.776,414.927 495.019,410.339 498.262,405.793 501.505,401.29 504.748,396.829 507.991,392.411 511.234,388.036 514.477,383.706 517.72,379.42 520.963,375.178 524.206,370.982 527.449,366.831 530.692,362.727 533.935,358.669 537.178,354.658 540.421,350.694 543.664,346.778 546.907,342.909 550.15,339.09 553.393,335.319 556.636,331.597 559.879,327.925 563.122,324.303 566.366,320.731 569.609,317.21 572.852,313.739 576.095,310.32 579.338,306.953 582.581,303.638 585.824,300.375 589.067,297.165 592.31,294.008 595.553,290.904 598.796,287.854 602.039,284.858 605.282,281.916 608.525,279.029 611.768,276.196 615.011,273.419 618.254,270.697 621.497,268.03 624.74,265.42 627.983,262.866 631.226,260.368 634.469,257.927 637.712,255.543 640.955,253.216 644.198,250.946 647.441,248.734 650.684,246.58 653.927,244.484 657.17,242.446 660.413,240.467 663.656,238.546 666.899,236.685 670.142,234.882 673.385,233.139 676.629,231.455 679.872,229.83 683.115,228.266 686.358,226.761 689.601,225.316 692.844,223.932 696.087,222.607 699.33,221.344 702.573,220.141 705.816,218.998 709.059,217.917 712.302,216.896 715.545,215.937 718.788,215.038 722.031,214.201 725.274,213.425 728.517,212.711 731.76,212.058 735.003,211.466 738.246,210.936 741.489,210.468 744.732,210.061 747.975,209.717 751.218,209.434 754.461,209.212 757.704,209.053 760.947,208.955 764.19,208.919 767.433,208.945 770.676,209.033 773.919,209.183 777.162,209.394 780.405,209.667 783.648,210.002 786.892,210.399 790.135,210.858 793.378,211.378 796.621,211.959 799.864,212.603 803.107,213.307 806.35,214.073 809.593,214.901 812.836,215.79 816.079,216.739 819.322,217.75 822.565,218.822 825.808,219.955 829.051,221.148 832.294,222.402 835.537,223.717 838.78,225.092 842.023,226.527 845.266,228.022 848.509,229.577 851.752,231.192 854.995,232.866 858.238,234.6 861.481,236.394 864.724,238.246 867.967,240.157 871.21,242.127 874.453,244.155 877.696,246.242 880.939,248.387 884.182,250.59 887.425,252.85 890.668,255.168 893.911,257.543 897.155,259.975 900.398,262.464 903.641,265.009 906.884,267.611 910.127,270.268 913.37,272.982 916.613,275.75 919.856,278.574 923.099,281.453 926.342,284.386 929.585,287.373 932.828,290.415 936.071,293.51 939.314,296.659 942.557,299.86 945.8,303.115 949.043,306.422 952.286,309.781 955.529,313.191 958.772,316.653 962.015,320.167 965.258,323.73 968.501,327.345 971.744,331.009 974.987,334.723 978.23,338.486 981.473,342.298 984.716,346.158 987.959,350.067 991.202,354.023 994.445,358.027 997.688,362.078 1000.93,366.175 1004.17,370.318 1007.42,374.507 1010.66,378.741 1013.9,383.02 1017.15,387.344 1020.39,391.711 1023.63,396.122 1026.88,400.576 1030.12,405.073 1033.36,409.612 1036.6,414.193 1039.85,418.815 1043.09,423.478 1046.33,428.182 1049.58,432.925 1052.82,437.708 1056.06,442.529 1059.31,447.39 1062.55,452.288 1065.79,457.224 1069.04,462.196 1072.28,467.205 1075.52,472.251 1078.76,477.331 1082.01,482.447 1085.25,487.597 1088.49,492.781 1091.74,497.999 1094.98,503.25 1098.22,508.533 1101.47,513.847 1104.71,519.194 1107.95,524.571 1111.19,529.978 1114.44,535.415 1117.68,540.881 1120.92,546.376 1124.17,551.899 1127.41,557.449 1130.65,563.027 1133.9,568.631 1137.14,574.26 1140.38,579.916 1143.62,585.595 1146.87,591.299 1150.11,597.027 1153.35,602.778 1156.6,608.551 1159.84,614.346 1163.08,620.162 1166.33,625.999 1169.57,631.856 1172.81,637.732 1176.06,643.628 1179.3,649.542 1182.54,655.474 1185.78,661.423 1189.03,667.388 1192.27,673.37 1195.51,679.367 1198.76,685.378 1202,691.404 1205.24,697.444 1208.49,703.496 1211.73,709.561 1214.97,715.638 1218.21,721.725 1221.46,727.824 1224.7,733.932 1227.94,740.05 1231.19,746.176 1234.43,752.311 1237.67,758.453 1240.92,764.601 1244.16,770.757 1247.4,776.917 1250.64,783.083 1253.89,789.253 1257.13,795.428 1260.37,801.605 1263.62,807.785 1266.86,813.966 1270.1,820.149 1273.35,826.333 1276.59,832.517 1279.83,838.701 1283.08,844.883 1286.32,851.063 1289.56,857.242 1292.8,863.417 1296.05,869.588 1299.29,875.756 1302.53,881.918 1305.78,888.075 1309.02,894.226 1312.26,900.37 1315.51,906.507 1318.75,912.636 1321.99,918.757 1325.23,924.868 1328.48,930.97 1331.72,937.061 1334.96,943.141 1338.21,949.21 1341.45,955.266 1344.69,961.31 1347.94,967.34 1351.18,973.356 1354.42,979.358 1357.66,985.345 1360.91,991.315 1364.15,997.27 1367.39,1003.21 1370.64,1009.13 1373.88,1015.03 1377.12,1020.91 1380.37,1026.77 1383.61,1032.62 1386.85,1038.44 1390.1,1044.24 1393.34,1050.02 1396.58,1055.78 1399.82,1061.52 1403.07,1067.23 1406.31,1072.91 1409.55,1078.58 1412.8,1084.22 1416.04,1089.83 1419.28,1095.41 1422.53,1100.97 1425.77,1106.5 1429.01,1112.01 1432.25,1117.48 1435.5,1122.93 1438.74,1128.35 1441.98,1133.73 1445.23,1139.09 1448.47,1144.41 1451.71,1149.71 1454.96,1154.97 1458.2,1160.2 1461.44,1165.39 1464.68,1170.55 1467.93,1175.68 1471.17,1180.77 1474.41,1185.83 1477.66,1190.85 1480.9,1195.83 1484.14,1200.78 1487.39,1205.69 1490.63,1210.56 1493.87,1215.4 1497.11,1220.19 1500.36,1224.95 1503.6,1229.66 1506.84,1234.34 1510.09,1238.98 1513.33,1243.57 1516.57,1248.12 1519.82,1252.63 1523.06,1257.1 1526.3,1261.52 1529.55,1265.91 1532.79,1270.24 1536.03,1274.54 1539.27,1278.79 1542.52,1282.99 1545.76,1287.15 1549,1291.26 1552.25,1295.32 1555.49,1299.34 1558.73,1303.31 1561.98,1307.24 1565.22,1311.11 1568.46,1314.94 1571.7,1318.72 1574.95,1322.45 1578.19,1326.13 1581.43,1329.76 1584.68,1333.34 1587.92,1336.87 1591.16,1340.35 1594.41,1343.77 1597.65,1347.15 1600.89,1350.47 1604.13,1353.75 1607.38,1356.96 1610.62,1360.13 1613.86,1363.24 1617.11,1366.3 1620.35,1369.3 1623.59,1372.26 1626.84,1375.15 1630.08,1377.99 1633.32,1380.78 1636.57,1383.51 1639.81,1386.19 1643.05,1388.8 1646.29,1391.37 1649.54,1393.87 1652.78,1396.32 1656.02,1398.72 1659.27,1401.05 1662.51,1403.33 1665.75,1405.55 1669,1407.72 1672.24,1409.82 1675.48,1411.87 1678.72,1413.86 1681.97,1415.79 1685.21,1417.66 1688.45,1419.47 1691.7,1421.22 1694.94,1422.92 1698.18,1424.55 1701.43,1426.13 1704.67,1427.64 1707.91,1429.09 1711.15,1430.49 1714.4,1431.82 1717.64,1433.1 1720.88,1434.31 1724.13,1435.46 1727.37,1436.55 1730.61,1437.58 1733.86,1438.55 1737.1,1439.46 1740.34,1440.31 1743.59,1441.09 1746.83,1441.82 1750.07,1442.48 1753.31,1443.08 1756.56,1443.62 1759.8,1444.1 1763.04,1444.51 1766.29,1444.87 1769.53,1445.16 1772.77,1445.39 1776.02,1445.56 1779.26,1445.67 1782.5,1445.72 1785.74,1445.7 1788.99,1445.62 1792.23,1445.48 1795.47,1445.28 1798.72,1445.02 1801.96,1444.69 1805.2,1444.3 1808.45,1443.86 1811.69,1443.35 1814.93,1442.77 1818.17,1442.14 1821.42,1441.45 1824.66,1440.69 1827.9,1439.87 1831.15,1438.99 1834.39,1438.05 1837.63,1437.05 1840.88,1435.99 1844.12,1434.87 1847.36,1433.68 1850.61,1432.44 1853.85,1431.13 1857.09,1429.77 1860.33,1428.34 1863.58,1426.86 1866.82,1425.31 1870.06,1423.71 1873.31,1422.04 1876.55,1420.32 1879.79,1418.53 1883.04,1416.69 1886.28,1414.79 1889.52,1412.83 1892.76,1410.81 1896.01,1408.73 1899.25,1406.59 1902.49,1404.4 1905.74,1402.15 1908.98,1399.84 1912.22,1397.48 1915.47,1395.05 1918.71,1392.57 1921.95,1390.04 1925.19,1387.44 1928.44,1384.8 1931.68,1382.09 1934.92,1379.33 1938.17,1376.52 1941.41,1373.65 1944.65,1370.72 1947.9,1367.74 1951.14,1364.71 1954.38,1361.62 1957.63,1358.48 1960.87,1355.29 1964.11,1352.04 1967.35,1348.74 1970.6,1345.39 1973.84,1341.99 1977.08,1338.54 1980.33,1335.03 1983.57,1331.48 1986.81,1327.87 1990.06,1324.21 1993.3,1320.51 1996.54,1316.75 1999.78,1312.95 2003.03,1309.1 2006.27,1305.2 2009.51,1301.25 2012.76,1297.25 2016,1293.21 2019.24,1289.12 2022.49,1284.98 2025.73,1280.8 2028.97,1276.57 2032.21,1272.3 2035.46,1267.98 2038.7,1263.62 2041.94,1259.22 2045.19,1254.77 2048.43,1250.28 2051.67,1245.75 2054.92,1241.18 2058.16,1236.56 2061.4,1231.9 2064.65,1227.21 2067.89,1222.47 2071.13,1217.69 2074.37,1212.88 2077.62,1208.02 2080.86,1203.13 2084.1,1198.2 2087.35,1193.23 2090.59,1188.23 2093.83,1183.19 2097.08,1178.12 2100.32,1173.01 2103.56,1167.86 2106.8,1162.68 2110.05,1157.47 2113.29,1152.23 2116.53,1146.95 2119.78,1141.64 2123.02,1136.3 2126.26,1130.92 2129.51,1125.52 2132.75,1120.09 2135.99,1114.63 2139.23,1109.14 2142.48,1103.62 2145.72,1098.07 2148.96,1092.5 2152.21,1086.9 2155.45,1081.27 2158.69,1075.62 2161.94,1069.95 2165.18,1064.25 2168.42,1058.52 2171.67,1052.78 2174.91,1047.01 2178.15,1041.22 2181.39,1035.4 2184.64,1029.57 2187.88,1023.71 2191.12,1017.84 2194.37,1011.95 2197.61,1006.04 2200.85,1000.11 2204.1,994.162 2207.34,988.199 2210.58,982.22 2213.82,976.226 2217.07,970.217 2220.31,964.193 2223.55,958.156 2226.8,952.105 2230.04,946.042 2233.28,939.967 2236.53,933.881 2239.77,927.785 2243.01,921.678 2246.25,915.562 2249.5,909.437 2252.74,903.303 2255.98,897.163 2259.23,891.015 2262.47,884.861 2265.71,878.701 2268.96,872.536 2272.2,866.366 2275.44,860.192 2278.69,854.016 2281.93,847.836 2285.17,841.655 2288.41,835.472 2291.66,829.288 "/>
<circle clip-path="url(#clip922)" cx="845.266" cy="87.9763" r="14.4" fill="#e26f46" fill-rule="evenodd" fill-opacity="1" stroke="#000000" stroke-opacity="1" stroke-width="3.2"/>
<circle clip-path="url(#clip922)" cx="1490.63" cy="1330.03" r="14.4" fill="#e26f46" fill-rule="evenodd" fill-opacity="1" stroke="#000000" stroke-opacity="1" stroke-width="3.2"/>
<circle clip-path="url(#clip922)" cx="2045.19" cy="1388.98" r="14.4" fill="#e26f46" fill-rule="evenodd" fill-opacity="1" stroke="#000000" stroke-opacity="1" stroke-width="3.2"/>
<circle clip-path="url(#clip922)" cx="728.517" cy="233.763" r="14.4" fill="#e26f46" fill-rule="evenodd" fill-opacity="1" stroke="#000000" stroke-opacity="1" stroke-width="3.2"/>
<circle clip-path="url(#clip922)" cx="1409.55" cy="936.343" r="14.4" fill="#e26f46" fill-rule="evenodd" fill-opacity="1" stroke="#000000" stroke-opacity="1" stroke-width="3.2"/>
<circle clip-path="url(#clip922)" cx="1493.87" cy="1109.93" r="14.4" fill="#e26f46" fill-rule="evenodd" fill-opacity="1" stroke="#000000" stroke-opacity="1" stroke-width="3.2"/>
<circle clip-path="url(#clip922)" cx="1195.51" cy="779.209" r="14.4" fill="#e26f46" fill-rule="evenodd" fill-opacity="1" stroke="#000000" stroke-opacity="1" stroke-width="3.2"/>
<circle clip-path="url(#clip922)" cx="971.744" cy="248.192" r="14.4" fill="#e26f46" fill-rule="evenodd" fill-opacity="1" stroke="#000000" stroke-opacity="1" stroke-width="3.2"/>
<circle clip-path="url(#clip922)" cx="1075.52" cy="445.493" r="14.4" fill="#e26f46" fill-rule="evenodd" fill-opacity="1" stroke="#000000" stroke-opacity="1" stroke-width="3.2"/>
<circle clip-path="url(#clip922)" cx="1672.24" cy="1442.54" r="14.4" fill="#e26f46" fill-rule="evenodd" fill-opacity="1" stroke="#000000" stroke-opacity="1" stroke-width="3.2"/>
<circle clip-path="url(#clip922)" cx="1302.53" cy="919.911" r="14.4" fill="#e26f46" fill-rule="evenodd" fill-opacity="1" stroke="#000000" stroke-opacity="1" stroke-width="3.2"/>
<circle clip-path="url(#clip922)" cx="864.724" cy="98.4969" r="14.4" fill="#e26f46" fill-rule="evenodd" fill-opacity="1" stroke="#000000" stroke-opacity="1" stroke-width="3.2"/>
<circle clip-path="url(#clip922)" cx="2194.37" cy="879.549" r="14.4" fill="#e26f46" fill-rule="evenodd" fill-opacity="1" stroke="#000000" stroke-opacity="1" stroke-width="3.2"/>
<circle clip-path="url(#clip922)" cx="469.075" cy="311.537" r="14.4" fill="#e26f46" fill-rule="evenodd" fill-opacity="1" stroke="#000000" stroke-opacity="1" stroke-width="3.2"/>
<circle clip-path="url(#clip922)" cx="1182.54" cy="803.302" r="14.4" fill="#e26f46" fill-rule="evenodd" fill-opacity="1" stroke="#000000" stroke-opacity="1" stroke-width="3.2"/>
<circle clip-path="url(#clip922)" cx="1552.25" cy="1300.01" r="14.4" fill="#e26f46" fill-rule="evenodd" fill-opacity="1" stroke="#000000" stroke-opacity="1" stroke-width="3.2"/>
<circle clip-path="url(#clip922)" cx="1532.79" cy="1417.48" r="14.4" fill="#e26f46" fill-rule="evenodd" fill-opacity="1" stroke="#000000" stroke-opacity="1" stroke-width="3.2"/>
<circle clip-path="url(#clip922)" cx="867.967" cy="295.101" r="14.4" fill="#e26f46" fill-rule="evenodd" fill-opacity="1" stroke="#000000" stroke-opacity="1" stroke-width="3.2"/>
<circle clip-path="url(#clip922)" cx="504.748" cy="245.426" r="14.4" fill="#e26f46" fill-rule="evenodd" fill-opacity="1" stroke="#000000" stroke-opacity="1" stroke-width="3.2"/>
<circle clip-path="url(#clip922)" cx="738.246" cy="110.135" r="14.4" fill="#e26f46" fill-rule="evenodd" fill-opacity="1" stroke="#000000" stroke-opacity="1" stroke-width="3.2"/>
<path clip-path="url(#clip920)" d="M1953.46 250.738 L2280.8 250.738 L2280.8 95.2176 L1953.46 95.2176  Z" fill="#ffffff" fill-rule="evenodd" fill-opacity="1"/>
<polyline clip-path="url(#clip920)" style="stroke:#000000; stroke-linecap:round; stroke-linejoin:round; stroke-width:4; stroke-opacity:1; fill:none" points="1953.46,250.738 2280.8,250.738 2280.8,95.2176 1953.46,95.2176 1953.46,250.738 "/>
<polyline clip-path="url(#clip920)" style="stroke:#009af9; stroke-linecap:round; stroke-linejoin:round; stroke-width:4; stroke-opacity:1; fill:none" points="1977.44,147.058 2121.36,147.058 "/>
<path clip-path="url(#clip920)" d="M2152.76 131.051 L2152.76 138.412 L2161.53 138.412 L2161.53 141.722 L2152.76 141.722 L2152.76 155.796 Q2152.76 158.967 2153.61 159.87 Q2154.49 160.773 2157.16 160.773 L2161.53 160.773 L2161.53 164.338 L2157.16 164.338 Q2152.23 164.338 2150.35 162.509 Q2148.48 160.657 2148.48 155.796 L2148.48 141.722 L2145.35 141.722 L2145.35 138.412 L2148.48 138.412 L2148.48 131.051 L2152.76 131.051 Z" fill="#000000" fill-rule="nonzero" fill-opacity="1" /><path clip-path="url(#clip920)" d="M2182.16 142.393 Q2181.44 141.977 2180.58 141.791 Q2179.75 141.583 2178.73 141.583 Q2175.12 141.583 2173.17 143.944 Q2171.25 146.282 2171.25 150.68 L2171.25 164.338 L2166.97 164.338 L2166.97 138.412 L2171.25 138.412 L2171.25 142.44 Q2172.6 140.078 2174.75 138.944 Q2176.9 137.787 2179.98 137.787 Q2180.42 137.787 2180.95 137.856 Q2181.48 137.903 2182.13 138.018 L2182.16 142.393 Z" fill="#000000" fill-rule="nonzero" fill-opacity="1" /><path clip-path="url(#clip920)" d="M2186.18 154.106 L2186.18 138.412 L2190.44 138.412 L2190.44 153.944 Q2190.44 157.625 2191.88 159.476 Q2193.31 161.305 2196.18 161.305 Q2199.63 161.305 2201.62 159.106 Q2203.64 156.907 2203.64 153.111 L2203.64 138.412 L2207.9 138.412 L2207.9 164.338 L2203.64 164.338 L2203.64 160.356 Q2202.09 162.717 2200.03 163.875 Q2197.99 165.009 2195.28 165.009 Q2190.81 165.009 2188.5 162.231 Q2186.18 159.453 2186.18 154.106 M2196.9 137.787 L2196.9 137.787 Z" fill="#000000" fill-rule="nonzero" fill-opacity="1" /><path clip-path="url(#clip920)" d="M2220.88 131.051 L2220.88 138.412 L2229.66 138.412 L2229.66 141.722 L2220.88 141.722 L2220.88 155.796 Q2220.88 158.967 2221.74 159.87 Q2222.62 160.773 2225.28 160.773 L2229.66 160.773 L2229.66 164.338 L2225.28 164.338 Q2220.35 164.338 2218.48 162.509 Q2216.6 160.657 2216.6 155.796 L2216.6 141.722 L2213.48 141.722 L2213.48 138.412 L2216.6 138.412 L2216.6 131.051 L2220.88 131.051 Z" fill="#000000" fill-rule="nonzero" fill-opacity="1" /><path clip-path="url(#clip920)" d="M2256.81 148.689 L2256.81 164.338 L2252.55 164.338 L2252.55 148.828 Q2252.55 145.148 2251.11 143.319 Q2249.68 141.49 2246.81 141.49 Q2243.36 141.49 2241.37 143.69 Q2239.38 145.889 2239.38 149.685 L2239.38 164.338 L2235.1 164.338 L2235.1 128.319 L2239.38 128.319 L2239.38 142.44 Q2240.91 140.102 2242.97 138.944 Q2245.05 137.787 2247.76 137.787 Q2252.23 137.787 2254.52 140.565 Q2256.81 143.319 2256.81 148.689 Z" fill="#000000" fill-rule="nonzero" fill-opacity="1" /><circle clip-path="url(#clip920)" cx="2049.4" cy="198.898" r="20.48" fill="#e26f46" fill-rule="evenodd" fill-opacity="1" stroke="#000000" stroke-opacity="1" stroke-width="4.55111"/>
<path clip-path="url(#clip920)" d="M2164.26 194.187 L2164.26 180.159 L2168.52 180.159 L2168.52 216.178 L2164.26 216.178 L2164.26 212.289 Q2162.92 214.603 2160.86 215.738 Q2158.82 216.849 2155.95 216.849 Q2151.25 216.849 2148.29 213.099 Q2145.35 209.349 2145.35 203.238 Q2145.35 197.127 2148.29 193.377 Q2151.25 189.627 2155.95 189.627 Q2158.82 189.627 2160.86 190.761 Q2162.92 191.872 2164.26 194.187 M2149.75 203.238 Q2149.75 207.937 2151.67 210.622 Q2153.61 213.284 2156.99 213.284 Q2160.37 213.284 2162.32 210.622 Q2164.26 207.937 2164.26 203.238 Q2164.26 198.539 2162.32 195.877 Q2160.37 193.192 2156.99 193.192 Q2153.61 193.192 2151.67 195.877 Q2149.75 198.539 2149.75 203.238 Z" fill="#000000" fill-rule="nonzero" fill-opacity="1" /><path clip-path="url(#clip920)" d="M2189.08 203.145 Q2183.92 203.145 2181.92 204.326 Q2179.93 205.506 2179.93 208.354 Q2179.93 210.622 2181.42 211.965 Q2182.92 213.284 2185.49 213.284 Q2189.03 213.284 2191.16 210.784 Q2193.31 208.261 2193.31 204.094 L2193.31 203.145 L2189.08 203.145 M2197.57 201.386 L2197.57 216.178 L2193.31 216.178 L2193.31 212.242 Q2191.85 214.603 2189.68 215.738 Q2187.5 216.849 2184.36 216.849 Q2180.37 216.849 2178.01 214.627 Q2175.67 212.381 2175.67 208.631 Q2175.67 204.256 2178.59 202.034 Q2181.53 199.812 2187.34 199.812 L2193.31 199.812 L2193.31 199.395 Q2193.31 196.455 2191.37 194.858 Q2189.45 193.238 2185.95 193.238 Q2183.73 193.238 2181.62 193.77 Q2179.52 194.303 2177.57 195.367 L2177.57 191.432 Q2179.91 190.53 2182.11 190.09 Q2184.31 189.627 2186.39 189.627 Q2192.02 189.627 2194.79 192.543 Q2197.57 195.46 2197.57 201.386 Z" fill="#000000" fill-rule="nonzero" fill-opacity="1" /><path clip-path="url(#clip920)" d="M2210.56 182.891 L2210.56 190.252 L2219.33 190.252 L2219.33 193.562 L2210.56 193.562 L2210.56 207.636 Q2210.56 210.807 2211.42 211.71 Q2212.29 212.613 2214.96 212.613 L2219.33 212.613 L2219.33 216.178 L2214.96 216.178 Q2210.03 216.178 2208.15 214.349 Q2206.28 212.497 2206.28 207.636 L2206.28 193.562 L2203.15 193.562 L2203.15 190.252 L2206.28 190.252 L2206.28 182.891 L2210.56 182.891 Z" fill="#000000" fill-rule="nonzero" fill-opacity="1" /><path clip-path="url(#clip920)" d="M2236.72 203.145 Q2231.55 203.145 2229.56 204.326 Q2227.57 205.506 2227.57 208.354 Q2227.57 210.622 2229.05 211.965 Q2230.56 213.284 2233.13 213.284 Q2236.67 213.284 2238.8 210.784 Q2240.95 208.261 2240.95 204.094 L2240.95 203.145 L2236.72 203.145 M2245.21 201.386 L2245.21 216.178 L2240.95 216.178 L2240.95 212.242 Q2239.49 214.603 2237.32 215.738 Q2235.14 216.849 2231.99 216.849 Q2228.01 216.849 2225.65 214.627 Q2223.31 212.381 2223.31 208.631 Q2223.31 204.256 2226.23 202.034 Q2229.17 199.812 2234.98 199.812 L2240.95 199.812 L2240.95 199.395 Q2240.95 196.455 2239.01 194.858 Q2237.09 193.238 2233.59 193.238 Q2231.37 193.238 2229.26 193.77 Q2227.16 194.303 2225.21 195.367 L2225.21 191.432 Q2227.55 190.53 2229.75 190.09 Q2231.95 189.627 2234.03 189.627 Q2239.66 189.627 2242.43 192.543 Q2245.21 195.46 2245.21 201.386 Z" fill="#000000" fill-rule="nonzero" fill-opacity="1" /></svg>
