<?xml version="1.0" encoding="utf-8"?>
<svg xmlns="http://www.w3.org/2000/svg" xmlns:xlink="http://www.w3.org/1999/xlink" width="600" height="400" viewBox="0 0 2400 1600">
<defs>
  <clipPath id="clip450">
    <rect x="0" y="0" width="2400" height="1600"/>
  </clipPath>
</defs>
<path clip-path="url(#clip450)" d="M0 1600 L2400 1600 L2400 0 L0 0  Z" fill="#ffffff" fill-rule="evenodd" fill-opacity="1"/>
<defs>
  <clipPath id="clip451">
    <rect x="480" y="0" width="1681" height="1600"/>
  </clipPath>
</defs>
<path clip-path="url(#clip450)" d="M193.936 1486.45 L2352.76 1486.45 L2352.76 47.2441 L193.936 47.2441  Z" fill="#ffffff" fill-rule="evenodd" fill-opacity="1"/>
<defs>
  <clipPath id="clip452">
    <rect x="193" y="47" width="2160" height="1440"/>
  </clipPath>
</defs>
<polyline clip-path="url(#clip452)" style="stroke:#000000; stroke-linecap:round; stroke-linejoin:round; stroke-width:2; stroke-opacity:0.1; fill:none" points="255.035,1486.45 255.035,47.2441 "/>
<polyline clip-path="url(#clip452)" style="stroke:#000000; stroke-linecap:round; stroke-linejoin:round; stroke-width:2; stroke-opacity:0.1; fill:none" points="579.338,1486.45 579.338,47.2441 "/>
<polyline clip-path="url(#clip452)" style="stroke:#000000; stroke-linecap:round; stroke-linejoin:round; stroke-width:2; stroke-opacity:0.1; fill:none" points="903.641,1486.45 903.641,47.2441 "/>
<polyline clip-path="url(#clip452)" style="stroke:#000000; stroke-linecap:round; stroke-linejoin:round; stroke-width:2; stroke-opacity:0.1; fill:none" points="1227.94,1486.45 1227.94,47.2441 "/>
<polyline clip-path="url(#clip452)" style="stroke:#000000; stroke-linecap:round; stroke-linejoin:round; stroke-width:2; stroke-opacity:0.1; fill:none" points="1552.25,1486.45 1552.25,47.2441 "/>
<polyline clip-path="url(#clip452)" style="stroke:#000000; stroke-linecap:round; stroke-linejoin:round; stroke-width:2; stroke-opacity:0.1; fill:none" points="1876.55,1486.45 1876.55,47.2441 "/>
<polyline clip-path="url(#clip452)" style="stroke:#000000; stroke-linecap:round; stroke-linejoin:round; stroke-width:2; stroke-opacity:0.1; fill:none" points="2200.85,1486.45 2200.85,47.2441 "/>
<polyline clip-path="url(#clip452)" style="stroke:#000000; stroke-linecap:round; stroke-linejoin:round; stroke-width:2; stroke-opacity:0.1; fill:none" points="193.936,1287.05 2352.76,1287.05 "/>
<polyline clip-path="url(#clip452)" style="stroke:#000000; stroke-linecap:round; stroke-linejoin:round; stroke-width:2; stroke-opacity:0.1; fill:none" points="193.936,1021.16 2352.76,1021.16 "/>
<polyline clip-path="url(#clip452)" style="stroke:#000000; stroke-linecap:round; stroke-linejoin:round; stroke-width:2; stroke-opacity:0.1; fill:none" points="193.936,755.266 2352.76,755.266 "/>
<polyline clip-path="url(#clip452)" style="stroke:#000000; stroke-linecap:round; stroke-linejoin:round; stroke-width:2; stroke-opacity:0.1; fill:none" points="193.936,489.373 2352.76,489.373 "/>
<polyline clip-path="url(#clip452)" style="stroke:#000000; stroke-linecap:round; stroke-linejoin:round; stroke-width:2; stroke-opacity:0.1; fill:none" points="193.936,223.481 2352.76,223.481 "/>
<polyline clip-path="url(#clip450)" style="stroke:#000000; stroke-linecap:round; stroke-linejoin:round; stroke-width:4; stroke-opacity:1; fill:none" points="193.936,1486.45 2352.76,1486.45 "/>
<polyline clip-path="url(#clip450)" style="stroke:#000000; stroke-linecap:round; stroke-linejoin:round; stroke-width:4; stroke-opacity:1; fill:none" points="255.035,1486.45 255.035,1467.55 "/>
<polyline clip-path="url(#clip450)" style="stroke:#000000; stroke-linecap:round; stroke-linejoin:round; stroke-width:4; stroke-opacity:1; fill:none" points="579.338,1486.45 579.338,1467.55 "/>
<polyline clip-path="url(#clip450)" style="stroke:#000000; stroke-linecap:round; stroke-linejoin:round; stroke-width:4; stroke-opacity:1; fill:none" points="903.641,1486.45 903.641,1467.55 "/>
<polyline clip-path="url(#clip450)" style="stroke:#000000; stroke-linecap:round; stroke-linejoin:round; stroke-width:4; stroke-opacity:1; fill:none" points="1227.94,1486.45 1227.94,1467.55 "/>
<polyline clip-path="url(#clip450)" style="stroke:#000000; stroke-linecap:round; stroke-linejoin:round; stroke-width:4; stroke-opacity:1; fill:none" points="1552.25,1486.45 1552.25,1467.55 "/>
<polyline clip-path="url(#clip450)" style="stroke:#000000; stroke-linecap:round; stroke-linejoin:round; stroke-width:4; stroke-opacity:1; fill:none" points="1876.55,1486.45 1876.55,1467.55 "/>
<polyline clip-path="url(#clip450)" style="stroke:#000000; stroke-linecap:round; stroke-linejoin:round; stroke-width:4; stroke-opacity:1; fill:none" points="2200.85,1486.45 2200.85,1467.55 "/>
<path clip-path="url(#clip450)" d="M255.035 1517.37 Q251.424 1517.37 249.595 1520.93 Q247.789 1524.47 247.789 1531.6 Q247.789 1538.71 249.595 1542.27 Q251.424 1545.82 255.035 1545.82 Q258.669 1545.82 260.474 1542.27 Q262.303 1538.71 262.303 1531.6 Q262.303 1524.47 260.474 1520.93 Q258.669 1517.37 255.035 1517.37 M255.035 1513.66 Q260.845 1513.66 263.9 1518.27 Q266.979 1522.85 266.979 1531.6 Q266.979 1540.33 263.9 1544.94 Q260.845 1549.52 255.035 1549.52 Q249.225 1549.52 246.146 1544.94 Q243.09 1540.33 243.09 1531.6 Q243.09 1522.85 246.146 1518.27 Q249.225 1513.66 255.035 1513.66 Z" fill="#000000" fill-rule="nonzero" fill-opacity="1" /><path clip-path="url(#clip450)" d="M569.72 1544.91 L577.358 1544.91 L577.358 1518.55 L569.048 1520.21 L569.048 1515.95 L577.312 1514.29 L581.988 1514.29 L581.988 1544.91 L589.627 1544.91 L589.627 1548.85 L569.72 1548.85 L569.72 1544.91 Z" fill="#000000" fill-rule="nonzero" fill-opacity="1" /><path clip-path="url(#clip450)" d="M898.293 1544.91 L914.613 1544.91 L914.613 1548.85 L892.668 1548.85 L892.668 1544.91 Q895.33 1542.16 899.914 1537.53 Q904.52 1532.88 905.701 1531.53 Q907.946 1529.01 908.826 1527.27 Q909.729 1525.51 909.729 1523.82 Q909.729 1521.07 907.784 1519.33 Q905.863 1517.6 902.761 1517.6 Q900.562 1517.6 898.108 1518.36 Q895.678 1519.13 892.9 1520.68 L892.9 1515.95 Q895.724 1514.82 898.178 1514.24 Q900.631 1513.66 902.668 1513.66 Q908.039 1513.66 911.233 1516.35 Q914.428 1519.03 914.428 1523.52 Q914.428 1525.65 913.617 1527.57 Q912.83 1529.47 910.724 1532.07 Q910.145 1532.74 907.043 1535.95 Q903.942 1539.15 898.293 1544.91 Z" fill="#000000" fill-rule="nonzero" fill-opacity="1" /><path clip-path="url(#clip450)" d="M1232.19 1530.21 Q1235.55 1530.93 1237.42 1533.2 Q1239.32 1535.47 1239.32 1538.8 Q1239.32 1543.92 1235.8 1546.72 Q1232.28 1549.52 1225.8 1549.52 Q1223.63 1549.52 1221.31 1549.08 Q1219.02 1548.66 1216.57 1547.81 L1216.57 1543.29 Q1218.51 1544.43 1220.83 1545.01 Q1223.14 1545.58 1225.66 1545.58 Q1230.06 1545.58 1232.35 1543.85 Q1234.67 1542.11 1234.67 1538.8 Q1234.67 1535.75 1232.52 1534.03 Q1230.39 1532.3 1226.57 1532.3 L1222.54 1532.3 L1222.54 1528.45 L1226.75 1528.45 Q1230.2 1528.45 1232.03 1527.09 Q1233.86 1525.7 1233.86 1523.11 Q1233.86 1520.45 1231.96 1519.03 Q1230.08 1517.6 1226.57 1517.6 Q1224.64 1517.6 1222.45 1518.01 Q1220.25 1518.43 1217.61 1519.31 L1217.61 1515.14 Q1220.27 1514.4 1222.58 1514.03 Q1224.92 1513.66 1226.98 1513.66 Q1232.31 1513.66 1235.41 1516.09 Q1238.51 1518.5 1238.51 1522.62 Q1238.51 1525.49 1236.87 1527.48 Q1235.22 1529.45 1232.19 1530.21 Z" fill="#000000" fill-rule="nonzero" fill-opacity="1" /><path clip-path="url(#clip450)" d="M1555.26 1518.36 L1543.45 1536.81 L1555.26 1536.81 L1555.26 1518.36 M1554.03 1514.29 L1559.91 1514.29 L1559.91 1536.81 L1564.84 1536.81 L1564.84 1540.7 L1559.91 1540.7 L1559.91 1548.85 L1555.26 1548.85 L1555.26 1540.7 L1539.65 1540.7 L1539.65 1536.19 L1554.03 1514.29 Z" fill="#000000" fill-rule="nonzero" fill-opacity="1" /><path clip-path="url(#clip450)" d="M1866.83 1514.29 L1885.18 1514.29 L1885.18 1518.22 L1871.11 1518.22 L1871.11 1526.7 Q1872.13 1526.35 1873.15 1526.19 Q1874.17 1526 1875.18 1526 Q1880.97 1526 1884.35 1529.17 Q1887.73 1532.34 1887.73 1537.76 Q1887.73 1543.34 1884.26 1546.44 Q1880.79 1549.52 1874.47 1549.52 Q1872.29 1549.52 1870.02 1549.15 Q1867.78 1548.78 1865.37 1548.04 L1865.37 1543.34 Q1867.45 1544.47 1869.67 1545.03 Q1871.9 1545.58 1874.37 1545.58 Q1878.38 1545.58 1880.72 1543.48 Q1883.05 1541.37 1883.05 1537.76 Q1883.05 1534.15 1880.72 1532.04 Q1878.38 1529.94 1874.37 1529.94 Q1872.5 1529.94 1870.62 1530.35 Q1868.77 1530.77 1866.83 1531.65 L1866.83 1514.29 Z" fill="#000000" fill-rule="nonzero" fill-opacity="1" /><path clip-path="url(#clip450)" d="M2201.26 1529.7 Q2198.11 1529.7 2196.26 1531.86 Q2194.43 1534.01 2194.43 1537.76 Q2194.43 1541.49 2196.26 1543.66 Q2198.11 1545.82 2201.26 1545.82 Q2204.41 1545.82 2206.23 1543.66 Q2208.09 1541.49 2208.09 1537.76 Q2208.09 1534.01 2206.23 1531.86 Q2204.41 1529.7 2201.26 1529.7 M2210.54 1515.05 L2210.54 1519.31 Q2208.78 1518.48 2206.98 1518.04 Q2205.19 1517.6 2203.43 1517.6 Q2198.8 1517.6 2196.35 1520.72 Q2193.92 1523.85 2193.57 1530.17 Q2194.94 1528.15 2197 1527.09 Q2199.06 1526 2201.54 1526 Q2206.74 1526 2209.75 1529.17 Q2212.79 1532.32 2212.79 1537.76 Q2212.79 1543.08 2209.64 1546.3 Q2206.49 1549.52 2201.26 1549.52 Q2195.26 1549.52 2192.09 1544.94 Q2188.92 1540.33 2188.92 1531.6 Q2188.92 1523.41 2192.81 1518.55 Q2196.7 1513.66 2203.25 1513.66 Q2205.01 1513.66 2206.79 1514.01 Q2208.6 1514.36 2210.54 1515.05 Z" fill="#000000" fill-rule="nonzero" fill-opacity="1" /><polyline clip-path="url(#clip450)" style="stroke:#000000; stroke-linecap:round; stroke-linejoin:round; stroke-width:4; stroke-opacity:1; fill:none" points="193.936,1486.45 193.936,47.2441 "/>
<polyline clip-path="url(#clip450)" style="stroke:#000000; stroke-linecap:round; stroke-linejoin:round; stroke-width:4; stroke-opacity:1; fill:none" points="193.936,1287.05 212.834,1287.05 "/>
<polyline clip-path="url(#clip450)" style="stroke:#000000; stroke-linecap:round; stroke-linejoin:round; stroke-width:4; stroke-opacity:1; fill:none" points="193.936,1021.16 212.834,1021.16 "/>
<polyline clip-path="url(#clip450)" style="stroke:#000000; stroke-linecap:round; stroke-linejoin:round; stroke-width:4; stroke-opacity:1; fill:none" points="193.936,755.266 212.834,755.266 "/>
<polyline clip-path="url(#clip450)" style="stroke:#000000; stroke-linecap:round; stroke-linejoin:round; stroke-width:4; stroke-opacity:1; fill:none" points="193.936,489.373 212.834,489.373 "/>
<polyline clip-path="url(#clip450)" style="stroke:#000000; stroke-linecap:round; stroke-linejoin:round; stroke-width:4; stroke-opacity:1; fill:none" points="193.936,223.481 212.834,223.481 "/>
<path clip-path="url(#clip450)" d="M50.9921 1287.5 L80.6679 1287.5 L80.6679 1291.44 L50.9921 1291.44 L50.9921 1287.5 Z" fill="#000000" fill-rule="nonzero" fill-opacity="1" /><path clip-path="url(#clip450)" d="M91.5706 1300.4 L99.2095 1300.4 L99.2095 1274.03 L90.8993 1275.7 L90.8993 1271.44 L99.1632 1269.77 L103.839 1269.77 L103.839 1300.4 L111.478 1300.4 L111.478 1304.33 L91.5706 1304.33 L91.5706 1300.4 Z" fill="#000000" fill-rule="nonzero" fill-opacity="1" /><path clip-path="url(#clip450)" d="M120.922 1298.45 L125.807 1298.45 L125.807 1304.33 L120.922 1304.33 L120.922 1298.45 Z" fill="#000000" fill-rule="nonzero" fill-opacity="1" /><path clip-path="url(#clip450)" d="M145.992 1272.85 Q142.381 1272.85 140.552 1276.41 Q138.746 1279.96 138.746 1287.09 Q138.746 1294.19 140.552 1297.76 Q142.381 1301.3 145.992 1301.3 Q149.626 1301.3 151.431 1297.76 Q153.26 1294.19 153.26 1287.09 Q153.26 1279.96 151.431 1276.41 Q149.626 1272.85 145.992 1272.85 M145.992 1269.15 Q151.802 1269.15 154.857 1273.75 Q157.936 1278.34 157.936 1287.09 Q157.936 1295.81 154.857 1300.42 Q151.802 1305 145.992 1305 Q140.181 1305 137.103 1300.42 Q134.047 1295.81 134.047 1287.09 Q134.047 1278.34 137.103 1273.75 Q140.181 1269.15 145.992 1269.15 Z" fill="#000000" fill-rule="nonzero" fill-opacity="1" /><path clip-path="url(#clip450)" d="M51.9875 1021.61 L81.6633 1021.61 L81.6633 1025.55 L51.9875 1025.55 L51.9875 1021.61 Z" fill="#000000" fill-rule="nonzero" fill-opacity="1" /><path clip-path="url(#clip450)" d="M101.756 1006.96 Q98.1447 1006.96 96.316 1010.52 Q94.5104 1014.06 94.5104 1021.19 Q94.5104 1028.3 96.316 1031.86 Q98.1447 1035.41 101.756 1035.41 Q105.39 1035.41 107.196 1031.86 Q109.024 1028.3 109.024 1021.19 Q109.024 1014.06 107.196 1010.52 Q105.39 1006.96 101.756 1006.96 M101.756 1003.25 Q107.566 1003.25 110.621 1007.86 Q113.7 1012.44 113.7 1021.19 Q113.7 1029.92 110.621 1034.53 Q107.566 1039.11 101.756 1039.11 Q95.9456 1039.11 92.8669 1034.53 Q89.8114 1029.92 89.8114 1021.19 Q89.8114 1012.44 92.8669 1007.86 Q95.9456 1003.25 101.756 1003.25 Z" fill="#000000" fill-rule="nonzero" fill-opacity="1" /><path clip-path="url(#clip450)" d="M121.918 1032.56 L126.802 1032.56 L126.802 1038.44 L121.918 1038.44 L121.918 1032.56 Z" fill="#000000" fill-rule="nonzero" fill-opacity="1" /><path clip-path="url(#clip450)" d="M137.033 1003.88 L155.39 1003.88 L155.39 1007.81 L141.316 1007.81 L141.316 1016.29 Q142.334 1015.94 143.353 1015.78 Q144.371 1015.59 145.39 1015.59 Q151.177 1015.59 154.556 1018.76 Q157.936 1021.93 157.936 1027.35 Q157.936 1032.93 154.464 1036.03 Q150.992 1039.11 144.672 1039.11 Q142.496 1039.11 140.228 1038.74 Q137.982 1038.37 135.575 1037.63 L135.575 1032.93 Q137.658 1034.06 139.881 1034.62 Q142.103 1035.17 144.58 1035.17 Q148.584 1035.17 150.922 1033.07 Q153.26 1030.96 153.26 1027.35 Q153.26 1023.74 150.922 1021.63 Q148.584 1019.53 144.58 1019.53 Q142.705 1019.53 140.83 1019.94 Q138.978 1020.36 137.033 1021.24 L137.033 1003.88 Z" fill="#000000" fill-rule="nonzero" fill-opacity="1" /><path clip-path="url(#clip450)" d="M100.76 741.065 Q97.1493 741.065 95.3206 744.629 Q93.515 748.171 93.515 755.301 Q93.515 762.407 95.3206 765.972 Q97.1493 769.514 100.76 769.514 Q104.395 769.514 106.2 765.972 Q108.029 762.407 108.029 755.301 Q108.029 748.171 106.2 744.629 Q104.395 741.065 100.76 741.065 M100.76 737.361 Q106.571 737.361 109.626 741.967 Q112.705 746.551 112.705 755.301 Q112.705 764.027 109.626 768.634 Q106.571 773.217 100.76 773.217 Q94.9502 773.217 91.8715 768.634 Q88.816 764.027 88.816 755.301 Q88.816 746.551 91.8715 741.967 Q94.9502 737.361 100.76 737.361 Z" fill="#000000" fill-rule="nonzero" fill-opacity="1" /><path clip-path="url(#clip450)" d="M120.922 766.666 L125.807 766.666 L125.807 772.546 L120.922 772.546 L120.922 766.666 Z" fill="#000000" fill-rule="nonzero" fill-opacity="1" /><path clip-path="url(#clip450)" d="M145.992 741.065 Q142.381 741.065 140.552 744.629 Q138.746 748.171 138.746 755.301 Q138.746 762.407 140.552 765.972 Q142.381 769.514 145.992 769.514 Q149.626 769.514 151.431 765.972 Q153.26 762.407 153.26 755.301 Q153.26 748.171 151.431 744.629 Q149.626 741.065 145.992 741.065 M145.992 737.361 Q151.802 737.361 154.857 741.967 Q157.936 746.551 157.936 755.301 Q157.936 764.027 154.857 768.634 Q151.802 773.217 145.992 773.217 Q140.181 773.217 137.103 768.634 Q134.047 764.027 134.047 755.301 Q134.047 746.551 137.103 741.967 Q140.181 737.361 145.992 737.361 Z" fill="#000000" fill-rule="nonzero" fill-opacity="1" /><path clip-path="url(#clip450)" d="M101.756 475.172 Q98.1447 475.172 96.316 478.737 Q94.5104 482.278 94.5104 489.408 Q94.5104 496.514 96.316 500.079 Q98.1447 503.621 101.756 503.621 Q105.39 503.621 107.196 500.079 Q109.024 496.514 109.024 489.408 Q109.024 482.278 107.196 478.737 Q105.39 475.172 101.756 475.172 M101.756 471.468 Q107.566 471.468 110.621 476.075 Q113.7 480.658 113.7 489.408 Q113.7 498.135 110.621 502.741 Q107.566 507.325 101.756 507.325 Q95.9456 507.325 92.8669 502.741 Q89.8114 498.135 89.8114 489.408 Q89.8114 480.658 92.8669 476.075 Q95.9456 471.468 101.756 471.468 Z" fill="#000000" fill-rule="nonzero" fill-opacity="1" /><path clip-path="url(#clip450)" d="M121.918 500.774 L126.802 500.774 L126.802 506.653 L121.918 506.653 L121.918 500.774 Z" fill="#000000" fill-rule="nonzero" fill-opacity="1" /><path clip-path="url(#clip450)" d="M137.033 472.093 L155.39 472.093 L155.39 476.028 L141.316 476.028 L141.316 484.501 Q142.334 484.153 143.353 483.991 Q144.371 483.806 145.39 483.806 Q151.177 483.806 154.556 486.977 Q157.936 490.149 157.936 495.565 Q157.936 501.144 154.464 504.246 Q150.992 507.325 144.672 507.325 Q142.496 507.325 140.228 506.954 Q137.982 506.584 135.575 505.843 L135.575 501.144 Q137.658 502.278 139.881 502.834 Q142.103 503.389 144.58 503.389 Q148.584 503.389 150.922 501.283 Q153.26 499.176 153.26 495.565 Q153.26 491.954 150.922 489.848 Q148.584 487.741 144.58 487.741 Q142.705 487.741 140.83 488.158 Q138.978 488.575 137.033 489.454 L137.033 472.093 Z" fill="#000000" fill-rule="nonzero" fill-opacity="1" /><path clip-path="url(#clip450)" d="M91.5706 236.825 L99.2095 236.825 L99.2095 210.46 L90.8993 212.126 L90.8993 207.867 L99.1632 206.201 L103.839 206.201 L103.839 236.825 L111.478 236.825 L111.478 240.761 L91.5706 240.761 L91.5706 236.825 Z" fill="#000000" fill-rule="nonzero" fill-opacity="1" /><path clip-path="url(#clip450)" d="M120.922 234.881 L125.807 234.881 L125.807 240.761 L120.922 240.761 L120.922 234.881 Z" fill="#000000" fill-rule="nonzero" fill-opacity="1" /><path clip-path="url(#clip450)" d="M145.992 209.279 Q142.381 209.279 140.552 212.844 Q138.746 216.386 138.746 223.515 Q138.746 230.622 140.552 234.187 Q142.381 237.728 145.992 237.728 Q149.626 237.728 151.431 234.187 Q153.26 230.622 153.26 223.515 Q153.26 216.386 151.431 212.844 Q149.626 209.279 145.992 209.279 M145.992 205.576 Q151.802 205.576 154.857 210.182 Q157.936 214.765 157.936 223.515 Q157.936 232.242 154.857 236.849 Q151.802 241.432 145.992 241.432 Q140.181 241.432 137.103 236.849 Q134.047 232.242 134.047 223.515 Q134.047 214.765 137.103 210.182 Q140.181 205.576 145.992 205.576 Z" fill="#000000" fill-rule="nonzero" fill-opacity="1" /><polyline clip-path="url(#clip452)" style="stroke:#009af9; stroke-linecap:round; stroke-linejoin:round; stroke-width:4; stroke-opacity:1; fill:none" points="255.035,755.266 258.278,749.948 261.521,744.631 264.764,739.315 268.007,734 271.25,728.688 274.493,723.378 277.736,718.071 280.979,712.768 284.222,707.47 287.465,702.176 290.708,696.887 293.951,691.605 297.194,686.328 300.437,681.059 303.68,675.797 306.923,670.543 310.166,665.297 313.409,660.061 316.652,654.833 319.895,649.616 323.138,644.41 326.381,639.215 329.624,634.031 332.867,628.859 336.11,623.7 339.353,618.554 342.596,613.422 345.84,608.304 349.083,603.201 352.326,598.113 355.569,593.04 358.812,587.984 362.055,582.945 365.298,577.922 368.541,572.918 371.784,567.932 375.027,562.964 378.27,558.016 381.513,553.087 384.756,548.179 387.999,543.291 391.242,538.425 394.485,533.58 397.728,528.758 400.971,523.958 404.214,519.181 407.457,514.428 410.7,509.698 413.943,504.994 417.186,500.314 420.429,495.66 423.672,491.032 426.915,486.431 430.158,481.856 433.401,477.308 436.644,472.789 439.887,468.297 443.13,463.835 446.373,459.401 449.616,454.997 452.859,450.623 456.103,446.28 459.346,441.967 462.589,437.686 465.832,433.437 469.075,429.219 472.318,425.035 475.561,420.883 478.804,416.765 482.047,412.68 485.29,408.63 488.533,404.615 491.776,400.634 495.019,396.689 498.262,392.78 501.505,388.908 504.748,385.071 507.991,381.272 511.234,377.51 514.477,373.786 517.72,370.101 520.963,366.453 524.206,362.845 527.449,359.276 530.692,355.746 533.935,352.256 537.178,348.807 540.421,345.398 543.664,342.031 546.907,338.704 550.15,335.419 553.393,332.177 556.636,328.976 559.879,325.818 563.122,322.703 566.366,319.632 569.609,316.604 572.852,313.62 576.095,310.68 579.338,307.784 582.581,304.933 585.824,302.127 589.067,299.367 592.31,296.652 595.553,293.983 598.796,291.36 602.039,288.784 605.282,286.254 608.525,283.771 611.768,281.335 615.011,278.946 618.254,276.606 621.497,274.313 624.74,272.068 627.983,269.871 631.226,267.723 634.469,265.624 637.712,263.574 640.955,261.573 644.198,259.621 647.441,257.719 650.684,255.867 653.927,254.064 657.17,252.312 660.413,250.61 663.656,248.958 666.899,247.357 670.142,245.807 673.385,244.308 676.629,242.86 679.872,241.463 683.115,240.117 686.358,238.823 689.601,237.581 692.844,236.391 696.087,235.252 699.33,234.165 702.573,233.131 705.816,232.148 709.059,231.218 712.302,230.341 715.545,229.515 718.788,228.743 722.031,228.023 725.274,227.356 728.517,226.741 731.76,226.18 735.003,225.671 738.246,225.215 741.489,224.813 744.732,224.463 747.975,224.166 751.218,223.923 754.461,223.733 757.704,223.596 760.947,223.512 764.19,223.481 767.433,223.503 770.676,223.579 773.919,223.707 777.162,223.889 780.405,224.124 783.648,224.412 786.892,224.753 790.135,225.148 793.378,225.595 796.621,226.095 799.864,226.648 803.107,227.254 806.35,227.913 809.593,228.625 812.836,229.389 816.079,230.206 819.322,231.075 822.565,231.997 825.808,232.971 829.051,233.997 832.294,235.075 835.537,236.206 838.78,237.388 842.023,238.622 845.266,239.908 848.509,241.245 851.752,242.634 854.995,244.074 858.238,245.565 861.481,247.107 864.724,248.7 867.967,250.343 871.21,252.037 874.453,253.782 877.696,255.576 880.939,257.421 884.182,259.315 887.425,261.259 890.668,263.252 893.911,265.294 897.155,267.386 900.398,269.526 903.641,271.715 906.884,273.952 910.127,276.237 913.37,278.57 916.613,280.951 919.856,283.38 923.099,285.855 926.342,288.377 929.585,290.947 932.828,293.562 936.071,296.224 939.314,298.931 942.557,301.685 945.8,304.483 949.043,307.327 952.286,310.215 955.529,313.148 958.772,316.126 962.015,319.147 965.258,322.211 968.501,325.319 971.744,328.47 974.987,331.664 978.23,334.9 981.473,338.178 984.716,341.498 987.959,344.859 991.202,348.261 994.445,351.704 997.688,355.188 1000.93,358.711 1004.17,362.274 1007.42,365.876 1010.66,369.517 1013.9,373.197 1017.15,376.915 1020.39,380.671 1023.63,384.464 1026.88,388.294 1030.12,392.161 1033.36,396.064 1036.6,400.004 1039.85,403.978 1043.09,407.988 1046.33,412.033 1049.58,416.112 1052.82,420.225 1056.06,424.371 1059.31,428.551 1062.55,432.763 1065.79,437.007 1069.04,441.283 1072.28,445.591 1075.52,449.93 1078.76,454.299 1082.01,458.698 1085.25,463.127 1088.49,467.585 1091.74,472.072 1094.98,476.587 1098.22,481.13 1101.47,485.7 1104.71,490.298 1107.95,494.922 1111.19,499.571 1114.44,504.247 1117.68,508.948 1120.92,513.673 1124.17,518.422 1127.41,523.195 1130.65,527.992 1133.9,532.811 1137.14,537.652 1140.38,542.515 1143.62,547.399 1146.87,552.304 1150.11,557.23 1153.35,562.175 1156.6,567.139 1159.84,572.122 1163.08,577.124 1166.33,582.144 1169.57,587.18 1172.81,592.234 1176.06,597.304 1179.3,602.389 1182.54,607.49 1185.78,612.606 1189.03,617.736 1192.27,622.88 1195.51,628.037 1198.76,633.206 1202,638.388 1205.24,643.582 1208.49,648.787 1211.73,654.002 1214.97,659.227 1218.21,664.463 1221.46,669.707 1224.7,674.96 1227.94,680.22 1231.19,685.489 1234.43,690.764 1237.67,696.046 1240.92,701.333 1244.16,706.626 1247.4,711.924 1250.64,717.226 1253.89,722.533 1257.13,727.842 1260.37,733.154 1263.62,738.468 1266.86,743.784 1270.1,749.101 1273.35,754.419 1276.59,759.737 1279.83,765.054 1283.08,770.37 1286.32,775.685 1289.56,780.998 1292.8,786.308 1296.05,791.616 1299.29,796.919 1302.53,802.218 1305.78,807.513 1309.02,812.802 1312.26,818.086 1315.51,823.364 1318.75,828.634 1321.99,833.897 1325.23,839.153 1328.48,844.4 1331.72,849.638 1334.96,854.866 1338.21,860.085 1341.45,865.293 1344.69,870.491 1347.94,875.676 1351.18,880.85 1354.42,886.011 1357.66,891.159 1360.91,896.293 1364.15,901.414 1367.39,906.519 1370.64,911.61 1373.88,916.685 1377.12,921.744 1380.37,926.786 1383.61,931.811 1386.85,936.818 1390.1,941.807 1393.34,946.778 1396.58,951.729 1399.82,956.661 1403.07,961.573 1406.31,966.463 1409.55,971.333 1412.8,976.182 1416.04,981.008 1419.28,985.811 1422.53,990.592 1425.77,995.349 1429.01,1000.08 1432.25,1004.79 1435.5,1009.47 1438.74,1014.13 1441.98,1018.76 1445.23,1023.37 1448.47,1027.95 1451.71,1032.5 1454.96,1037.02 1458.2,1041.52 1461.44,1045.99 1464.68,1050.43 1467.93,1054.84 1471.17,1059.21 1474.41,1063.56 1477.66,1067.88 1480.9,1072.17 1484.14,1076.42 1487.39,1080.64 1490.63,1084.83 1493.87,1088.99 1497.11,1093.11 1500.36,1097.2 1503.6,1101.26 1506.84,1105.28 1510.09,1109.27 1513.33,1113.22 1516.57,1117.13 1519.82,1121.01 1523.06,1124.85 1526.3,1128.66 1529.55,1132.42 1532.79,1136.15 1536.03,1139.85 1539.27,1143.5 1542.52,1147.11 1545.76,1150.69 1549,1154.23 1552.25,1157.72 1555.49,1161.18 1558.73,1164.59 1561.98,1167.97 1565.22,1171.3 1568.46,1174.59 1571.7,1177.84 1574.95,1181.05 1578.19,1184.21 1581.43,1187.34 1584.68,1190.41 1587.92,1193.45 1591.16,1196.44 1594.41,1199.39 1597.65,1202.29 1600.89,1205.15 1604.13,1207.96 1607.38,1210.73 1610.62,1213.45 1613.86,1216.13 1617.11,1218.76 1620.35,1221.34 1623.59,1223.88 1626.84,1226.37 1630.08,1228.81 1633.32,1231.21 1636.57,1233.56 1639.81,1235.86 1643.05,1238.11 1646.29,1240.31 1649.54,1242.47 1652.78,1244.58 1656.02,1246.63 1659.27,1248.64 1662.51,1250.6 1665.75,1252.51 1669,1254.37 1672.24,1256.18 1675.48,1257.94 1678.72,1259.65 1681.97,1261.31 1685.21,1262.92 1688.45,1264.48 1691.7,1265.99 1694.94,1267.44 1698.18,1268.85 1701.43,1270.2 1704.67,1271.51 1707.91,1272.76 1711.15,1273.96 1714.4,1275.1 1717.64,1276.2 1720.88,1277.24 1724.13,1278.23 1727.37,1279.17 1730.61,1280.06 1733.86,1280.89 1737.1,1281.67 1740.34,1282.4 1743.59,1283.07 1746.83,1283.7 1750.07,1284.27 1753.31,1284.78 1756.56,1285.25 1759.8,1285.66 1763.04,1286.02 1766.29,1286.32 1769.53,1286.57 1772.77,1286.77 1776.02,1286.92 1779.26,1287.01 1782.5,1287.05 1785.74,1287.04 1788.99,1286.97 1792.23,1286.85 1795.47,1286.68 1798.72,1286.45 1801.96,1286.17 1805.2,1285.84 1808.45,1285.45 1811.69,1285.01 1814.93,1284.52 1818.17,1283.98 1821.42,1283.38 1824.66,1282.73 1827.9,1282.02 1831.15,1281.27 1834.39,1280.46 1837.63,1279.6 1840.88,1278.69 1844.12,1277.72 1847.36,1276.7 1850.61,1275.63 1853.85,1274.51 1857.09,1273.34 1860.33,1272.11 1863.58,1270.83 1866.82,1269.5 1870.06,1268.12 1873.31,1266.69 1876.55,1265.21 1879.79,1263.67 1883.04,1262.09 1886.28,1260.45 1889.52,1258.77 1892.76,1257.03 1896.01,1255.24 1899.25,1253.41 1902.49,1251.52 1905.74,1249.59 1908.98,1247.6 1912.22,1245.57 1915.47,1243.48 1918.71,1241.35 1921.95,1239.17 1925.19,1236.94 1928.44,1234.66 1931.68,1232.34 1934.92,1229.96 1938.17,1227.54 1941.41,1225.07 1944.65,1222.56 1947.9,1220 1951.14,1217.39 1954.38,1214.73 1957.63,1212.03 1960.87,1209.29 1964.11,1206.5 1967.35,1203.66 1970.6,1200.78 1973.84,1197.85 1977.08,1194.88 1980.33,1191.87 1983.57,1188.81 1986.81,1185.71 1990.06,1182.57 1993.3,1179.38 1996.54,1176.15 1999.78,1172.88 2003.03,1169.57 2006.27,1166.21 2009.51,1162.82 2012.76,1159.38 2016,1155.9 2019.24,1152.38 2022.49,1148.83 2025.73,1145.23 2028.97,1141.6 2032.21,1137.92 2035.46,1134.21 2038.7,1130.46 2041.94,1126.67 2045.19,1122.85 2048.43,1118.99 2051.67,1115.09 2054.92,1111.16 2058.16,1107.19 2061.4,1103.18 2064.65,1099.15 2067.89,1095.07 2071.13,1090.96 2074.37,1086.82 2077.62,1082.65 2080.86,1078.44 2084.1,1074.2 2087.35,1069.93 2090.59,1065.63 2093.83,1061.3 2097.08,1056.93 2100.32,1052.54 2103.56,1048.11 2106.8,1043.66 2110.05,1039.18 2113.29,1034.67 2116.53,1030.13 2119.78,1025.56 2123.02,1020.97 2126.26,1016.35 2129.51,1011.7 2132.75,1007.03 2135.99,1002.33 2139.23,997.613 2142.48,992.868 2145.72,988.098 2148.96,983.306 2152.21,978.49 2155.45,973.653 2158.69,968.793 2161.94,963.912 2165.18,959.01 2168.42,954.088 2171.67,949.146 2174.91,944.185 2178.15,939.204 2181.39,934.205 2184.64,929.189 2187.88,924.155 2191.12,919.104 2194.37,914.037 2197.61,908.953 2200.85,903.855 2204.1,898.742 2207.34,893.614 2210.58,888.472 2213.82,883.317 2217.07,878.15 2220.31,872.97 2223.55,867.778 2226.8,862.575 2230.04,857.361 2233.28,852.137 2236.53,846.904 2239.77,841.661 2243.01,836.409 2246.25,831.15 2249.5,825.883 2252.74,820.608 2255.98,815.328 2259.23,810.041 2262.47,804.749 2265.71,799.452 2268.96,794.15 2272.2,788.845 2275.44,783.536 2278.69,778.224 2281.93,772.91 2285.17,767.594 2288.41,762.277 2291.66,756.96 "/>
<circle clip-path="url(#clip452)" cx="1753.31" cy="1275.63" r="14.4" fill="#e26f46" fill-rule="evenodd" fill-opacity="1" stroke="#000000" stroke-opacity="1" stroke-width="3.2"/>
<circle clip-path="url(#clip452)" cx="1636.57" cy="1292.58" r="14.4" fill="#e26f46" fill-rule="evenodd" fill-opacity="1" stroke="#000000" stroke-opacity="1" stroke-width="3.2"/>
<circle clip-path="url(#clip452)" cx="1983.57" cy="1222.59" r="14.4" fill="#e26f46" fill-rule="evenodd" fill-opacity="1" stroke="#000000" stroke-opacity="1" stroke-width="3.2"/>
<circle clip-path="url(#clip452)" cx="900.398" cy="281.993" r="14.4" fill="#e26f46" fill-rule="evenodd" fill-opacity="1" stroke="#000000" stroke-opacity="1" stroke-width="3.2"/>
<circle clip-path="url(#clip452)" cx="1143.62" cy="475.995" r="14.4" fill="#e26f46" fill-rule="evenodd" fill-opacity="1" stroke="#000000" stroke-opacity="1" stroke-width="3.2"/>
<circle clip-path="url(#clip452)" cx="1542.52" cy="1039.82" r="14.4" fill="#e26f46" fill-rule="evenodd" fill-opacity="1" stroke="#000000" stroke-opacity="1" stroke-width="3.2"/>
<circle clip-path="url(#clip452)" cx="342.596" cy="611.837" r="14.4" fill="#e26f46" fill-rule="evenodd" fill-opacity="1" stroke="#000000" stroke-opacity="1" stroke-width="3.2"/>
<circle clip-path="url(#clip452)" cx="264.764" cy="774.074" r="14.4" fill="#e26f46" fill-rule="evenodd" fill-opacity="1" stroke="#000000" stroke-opacity="1" stroke-width="3.2"/>
<circle clip-path="url(#clip452)" cx="897.155" cy="336.248" r="14.4" fill="#e26f46" fill-rule="evenodd" fill-opacity="1" stroke="#000000" stroke-opacity="1" stroke-width="3.2"/>
<circle clip-path="url(#clip452)" cx="384.756" cy="488.633" r="14.4" fill="#e26f46" fill-rule="evenodd" fill-opacity="1" stroke="#000000" stroke-opacity="1" stroke-width="3.2"/>
<circle clip-path="url(#clip452)" cx="1610.62" cy="1256.01" r="14.4" fill="#e26f46" fill-rule="evenodd" fill-opacity="1" stroke="#000000" stroke-opacity="1" stroke-width="3.2"/>
<circle clip-path="url(#clip452)" cx="2204.1" cy="880.618" r="14.4" fill="#e26f46" fill-rule="evenodd" fill-opacity="1" stroke="#000000" stroke-opacity="1" stroke-width="3.2"/>
<circle clip-path="url(#clip452)" cx="1857.09" cy="1300.33" r="14.4" fill="#e26f46" fill-rule="evenodd" fill-opacity="1" stroke="#000000" stroke-opacity="1" stroke-width="3.2"/>
<circle clip-path="url(#clip452)" cx="2093.83" cy="974.586" r="14.4" fill="#e26f46" fill-rule="evenodd" fill-opacity="1" stroke="#000000" stroke-opacity="1" stroke-width="3.2"/>
<circle clip-path="url(#clip452)" cx="1367.39" cy="831.897" r="14.4" fill="#e26f46" fill-rule="evenodd" fill-opacity="1" stroke="#000000" stroke-opacity="1" stroke-width="3.2"/>
<circle clip-path="url(#clip452)" cx="2113.29" cy="1073.34" r="14.4" fill="#e26f46" fill-rule="evenodd" fill-opacity="1" stroke="#000000" stroke-opacity="1" stroke-width="3.2"/>
<circle clip-path="url(#clip452)" cx="1646.29" cy="1134.26" r="14.4" fill="#e26f46" fill-rule="evenodd" fill-opacity="1" stroke="#000000" stroke-opacity="1" stroke-width="3.2"/>
<circle clip-path="url(#clip452)" cx="300.437" cy="615.381" r="14.4" fill="#e26f46" fill-rule="evenodd" fill-opacity="1" stroke="#000000" stroke-opacity="1" stroke-width="3.2"/>
<circle clip-path="url(#clip452)" cx="965.258" cy="424.99" r="14.4" fill="#e26f46" fill-rule="evenodd" fill-opacity="1" stroke="#000000" stroke-opacity="1" stroke-width="3.2"/>
<circle clip-path="url(#clip452)" cx="916.613" cy="393.353" r="14.4" fill="#e26f46" fill-rule="evenodd" fill-opacity="1" stroke="#000000" stroke-opacity="1" stroke-width="3.2"/>
<path clip-path="url(#clip452)" d="M255.035 887.149 L258.278 881.556 L261.521 876.032 L264.764 870.588 L268.007 865.235 L271.25 859.981 L274.493 854.833 L277.736 849.797 L280.979 844.883 L284.222 840.098 L287.465 835.45 L290.708 830.948 L293.951 826.602 L297.194 822.421 L300.437 818.415 L303.68 814.591 L306.923 810.952 L310.166 807.497 L313.409 804.225 L316.652 801.137 L319.895 798.234 L323.138 795.516 L326.381 792.985 L329.624 790.643 L332.867 788.491 L336.11 786.534 L339.353 784.773 L342.596 783.212 L345.84 781.853 L349.083 780.693 L352.326 779.727 L355.569 778.952 L358.812 778.362 L362.055 777.955 L365.298 777.728 L368.541 777.679 L371.784 777.806 L375.027 778.109 L378.27 778.586 L381.513 779.238 L384.756 780.065 L387.999 781.066 L391.242 782.228 L394.485 783.538 L397.728 784.983 L400.971 786.551 L404.214 788.229 L407.457 790.006 L410.7 791.871 L413.943 793.814 L417.186 795.824 L420.429 797.893 L423.672 800.011 L426.915 802.171 L430.158 804.365 L433.401 806.585 L436.644 808.825 L439.887 811.077 L443.13 813.337 L446.373 815.598 L449.616 817.855 L452.859 820.103 L456.103 822.337 L459.346 824.553 L462.589 826.747 L465.832 828.915 L469.075 831.053 L472.318 833.158 L475.561 835.226 L478.804 837.255 L482.047 839.242 L485.29 841.183 L488.533 843.078 L491.776 844.922 L495.019 846.714 L498.262 848.452 L501.505 850.134 L504.748 851.759 L507.991 853.323 L511.234 854.827 L514.477 856.267 L517.72 857.643 L520.963 858.954 L524.206 860.197 L527.449 861.373 L530.692 862.479 L533.935 863.516 L537.178 864.48 L540.421 865.373 L543.664 866.192 L546.907 866.938 L550.15 867.609 L553.393 868.204 L556.636 868.723 L559.879 869.166 L563.122 869.53 L566.366 869.817 L569.609 870.026 L572.852 870.155 L576.095 870.205 L579.338 870.175 L582.581 870.064 L585.824 869.873 L589.067 869.6 L592.31 869.246 L595.553 868.811 L598.796 868.293 L602.039 867.693 L605.282 867.011 L608.525 866.245 L611.768 865.397 L615.011 864.466 L618.254 863.451 L621.497 862.353 L624.74 861.171 L627.983 859.906 L631.226 858.557 L634.469 857.124 L637.712 855.607 L640.955 854.007 L644.198 852.323 L647.441 850.554 L650.684 848.702 L653.927 846.767 L657.17 844.747 L660.413 842.644 L663.656 840.458 L666.899 838.188 L670.142 835.835 L673.385 833.399 L676.629 830.88 L679.872 828.279 L683.115 825.595 L686.358 822.829 L689.601 819.982 L692.844 817.054 L696.087 814.044 L699.33 810.954 L702.573 807.785 L705.816 804.535 L709.059 801.207 L712.302 797.8 L715.545 794.315 L718.788 790.753 L722.031 787.115 L725.274 783.401 L728.517 779.613 L731.76 775.75 L735.003 771.815 L738.246 767.807 L741.489 763.729 L744.732 759.581 L747.975 755.365 L751.218 751.081 L754.461 746.732 L757.704 742.319 L760.947 737.843 L764.19 733.307 L767.433 728.712 L770.676 724.059 L773.919 719.352 L777.162 714.592 L780.405 709.783 L783.648 704.925 L786.892 700.023 L790.135 695.08 L793.378 690.097 L796.621 685.08 L799.864 680.03 L803.107 674.953 L806.35 669.853 L809.593 664.733 L812.836 659.599 L816.079 654.456 L819.322 649.309 L822.565 644.164 L825.808 639.028 L829.051 633.907 L832.294 628.809 L835.537 623.741 L838.78 618.712 L842.023 613.731 L845.266 608.808 L848.509 603.953 L851.752 599.177 L854.995 594.493 L858.238 589.913 L861.481 585.451 L864.724 581.122 L867.967 576.941 L871.21 572.926 L874.453 569.094 L877.696 565.462 L880.939 562.052 L884.182 558.883 L887.425 555.976 L890.668 553.353 L893.911 551.035 L897.155 549.044 L900.398 547.401 L903.641 546.114 L906.884 545.182 L910.127 544.599 L913.37 544.36 L916.613 544.456 L919.856 544.881 L923.099 545.619 L926.342 546.654 L929.585 547.969 L932.828 549.548 L936.071 551.374 L939.314 553.433 L942.557 555.709 L945.8 558.187 L949.043 560.854 L952.286 563.696 L955.529 566.702 L958.772 569.86 L962.015 573.161 L965.258 576.595 L968.501 580.151 L971.744 583.815 L974.987 587.572 L978.23 591.407 L981.473 595.308 L984.716 599.262 L987.959 603.256 L991.202 607.281 L994.445 611.326 L997.688 615.382 L1000.93 619.441 L1004.17 623.494 L1007.42 627.536 L1010.66 631.559 L1013.9 635.559 L1017.15 639.531 L1020.39 643.47 L1023.63 647.372 L1026.88 651.234 L1030.12 655.055 L1033.36 658.831 L1036.6 662.561 L1039.85 666.243 L1043.09 669.878 L1046.33 673.465 L1049.58 677.004 L1052.82 680.496 L1056.06 683.941 L1059.31 687.341 L1062.55 690.699 L1065.79 694.015 L1069.04 697.293 L1072.28 700.535 L1075.52 703.745 L1078.76 706.927 L1082.01 710.085 L1085.25 713.222 L1088.49 716.344 L1091.74 719.456 L1094.98 722.563 L1098.22 725.671 L1101.47 728.786 L1104.71 731.915 L1107.95 735.063 L1111.19 738.239 L1114.44 741.45 L1117.68 744.702 L1120.92 748.004 L1124.17 751.363 L1127.41 754.788 L1130.65 758.287 L1133.9 761.868 L1137.14 765.539 L1140.38 769.309 L1143.62 773.186 L1146.87 777.176 L1150.11 781.273 L1153.35 785.47 L1156.6 789.761 L1159.84 794.136 L1163.08 798.588 L1166.33 803.111 L1169.57 807.696 L1172.81 812.337 L1176.06 817.026 L1179.3 821.757 L1182.54 826.523 L1185.78 831.317 L1189.03 836.133 L1192.27 840.965 L1195.51 845.809 L1198.76 850.657 L1202 855.506 L1205.24 860.35 L1208.49 865.185 L1211.73 870.006 L1214.97 874.809 L1218.21 879.591 L1221.46 884.347 L1224.7 889.076 L1227.94 893.773 L1231.19 898.436 L1234.43 903.063 L1237.67 907.651 L1240.92 912.198 L1244.16 916.703 L1247.4 921.165 L1250.64 925.581 L1253.89 929.951 L1257.13 934.275 L1260.37 938.551 L1263.62 942.779 L1266.86 946.961 L1270.1 951.095 L1273.35 955.182 L1276.59 959.223 L1279.83 963.219 L1283.08 967.172 L1286.32 971.081 L1289.56 974.951 L1292.8 978.781 L1296.05 982.575 L1299.29 986.335 L1302.53 990.064 L1305.78 993.764 L1309.02 997.439 L1312.26 1001.09 L1315.51 1004.73 L1318.75 1008.35 L1321.99 1011.96 L1325.23 1015.57 L1328.48 1019.18 L1331.72 1022.79 L1334.96 1026.41 L1338.21 1030.04 L1341.45 1033.7 L1344.69 1037.38 L1347.94 1041.1 L1351.18 1044.85 L1354.42 1048.64 L1357.66 1052.49 L1360.91 1056.39 L1364.15 1060.36 L1367.39 1064.39 L1370.64 1068.49 L1373.88 1072.66 L1377.12 1076.89 L1380.37 1081.18 L1383.61 1085.51 L1386.85 1089.88 L1390.1 1094.29 L1393.34 1098.71 L1396.58 1103.16 L1399.82 1107.63 L1403.07 1112.1 L1406.31 1116.56 L1409.55 1121.03 L1412.8 1125.48 L1416.04 1129.91 L1419.28 1134.33 L1422.53 1138.71 L1425.77 1143.07 L1429.01 1147.39 L1432.25 1151.66 L1435.5 1155.9 L1438.74 1160.09 L1441.98 1164.22 L1445.23 1168.3 L1448.47 1172.33 L1451.71 1176.3 L1454.96 1180.2 L1458.2 1184.05 L1461.44 1187.83 L1464.68 1191.54 L1467.93 1195.19 L1471.17 1198.77 L1474.41 1202.29 L1477.66 1205.74 L1480.9 1209.12 L1484.14 1212.44 L1487.39 1215.7 L1490.63 1218.89 L1493.87 1222.03 L1497.11 1225.1 L1500.36 1228.12 L1503.6 1231.08 L1506.84 1234 L1510.09 1236.86 L1513.33 1239.69 L1516.57 1242.48 L1519.82 1245.23 L1523.06 1247.96 L1526.3 1250.66 L1529.55 1253.35 L1532.79 1256.02 L1536.03 1258.69 L1539.27 1261.37 L1542.52 1264.05 L1545.76 1266.74 L1549 1269.45 L1552.25 1272.16 L1555.49 1274.88 L1558.73 1277.6 L1561.98 1280.32 L1565.22 1283.03 L1568.46 1285.73 L1571.7 1288.42 L1574.95 1291.11 L1578.19 1293.78 L1581.43 1296.44 L1584.68 1299.09 L1587.92 1301.74 L1591.16 1304.37 L1594.41 1307.01 L1597.65 1309.65 L1600.89 1312.29 L1604.13 1314.94 L1607.38 1317.6 L1610.62 1320.29 L1613.86 1323 L1617.11 1325.73 L1620.35 1328.5 L1623.59 1331.3 L1626.84 1334.14 L1630.08 1337.02 L1633.32 1339.93 L1636.57 1342.9 L1639.81 1345.9 L1643.05 1348.96 L1646.29 1352.06 L1649.54 1355.2 L1652.78 1358.37 L1656.02 1361.57 L1659.27 1364.78 L1662.51 1367.98 L1665.75 1371.18 L1669 1374.35 L1672.24 1377.49 L1675.48 1380.59 L1678.72 1383.64 L1681.97 1386.63 L1685.21 1389.57 L1688.45 1392.43 L1691.7 1395.23 L1694.94 1397.94 L1698.18 1400.58 L1701.43 1403.13 L1704.67 1405.6 L1707.91 1407.99 L1711.15 1410.28 L1714.4 1412.49 L1717.64 1414.62 L1720.88 1416.66 L1724.13 1418.61 L1727.37 1420.48 L1730.61 1422.27 L1733.86 1423.99 L1737.1 1425.63 L1740.34 1427.2 L1743.59 1428.71 L1746.83 1430.15 L1750.07 1431.54 L1753.31 1432.87 L1756.56 1434.16 L1759.8 1435.39 L1763.04 1436.57 L1766.29 1437.68 L1769.53 1438.74 L1772.77 1439.73 L1776.02 1440.65 L1779.26 1441.5 L1782.5 1442.27 L1785.74 1442.97 L1788.99 1443.6 L1792.23 1444.14 L1795.47 1444.6 L1798.72 1444.99 L1801.96 1445.29 L1805.2 1445.51 L1808.45 1445.65 L1811.69 1445.72 L1814.93 1445.7 L1818.17 1445.6 L1821.42 1445.43 L1824.66 1445.18 L1827.9 1444.86 L1831.15 1444.47 L1834.39 1444.01 L1837.63 1443.49 L1840.88 1442.9 L1844.12 1442.26 L1847.36 1441.56 L1850.61 1440.81 L1853.85 1440.01 L1857.09 1439.17 L1860.33 1438.29 L1863.58 1437.36 L1866.82 1436.38 L1870.06 1435.34 L1873.31 1434.26 L1876.55 1433.11 L1879.79 1431.89 L1883.04 1430.61 L1886.28 1429.25 L1889.52 1427.83 L1892.76 1426.32 L1896.01 1424.74 L1899.25 1423.07 L1902.49 1421.31 L1905.74 1419.47 L1908.98 1417.55 L1912.22 1415.53 L1915.47 1413.43 L1918.71 1411.23 L1921.95 1408.94 L1925.19 1406.56 L1928.44 1404.1 L1931.68 1401.54 L1934.92 1398.89 L1938.17 1396.16 L1941.41 1393.34 L1944.65 1390.44 L1947.9 1387.46 L1951.14 1384.4 L1954.38 1381.26 L1957.63 1378.06 L1960.87 1374.78 L1964.11 1371.44 L1967.35 1368.04 L1970.6 1364.58 L1973.84 1361.07 L1977.08 1357.51 L1980.33 1353.91 L1983.57 1350.28 L1986.81 1346.6 L1990.06 1342.9 L1993.3 1339.15 L1996.54 1335.37 L1999.78 1331.54 L2003.03 1327.67 L2006.27 1323.76 L2009.51 1319.81 L2012.76 1315.81 L2016 1311.76 L2019.24 1307.67 L2022.49 1303.53 L2025.73 1299.35 L2028.97 1295.13 L2032.21 1290.87 L2035.46 1286.57 L2038.7 1282.24 L2041.94 1277.87 L2045.19 1273.48 L2048.43 1269.07 L2051.67 1264.64 L2054.92 1260.2 L2058.16 1255.76 L2061.4 1251.33 L2064.65 1246.91 L2067.89 1242.51 L2071.13 1238.14 L2074.37 1233.82 L2077.62 1229.54 L2080.86 1225.33 L2084.1 1221.2 L2087.35 1217.16 L2090.59 1213.21 L2093.83 1209.38 L2097.08 1205.68 L2100.32 1202.1 L2103.56 1198.65 L2106.8 1195.33 L2110.05 1192.14 L2113.29 1189.08 L2116.53 1186.15 L2119.78 1183.35 L2123.02 1180.67 L2126.26 1178.1 L2129.51 1175.65 L2132.75 1173.31 L2135.99 1171.06 L2139.23 1168.92 L2142.48 1166.88 L2145.72 1164.93 L2148.96 1163.07 L2152.21 1161.31 L2155.45 1159.64 L2158.69 1158.06 L2161.94 1156.57 L2165.18 1155.18 L2168.42 1153.88 L2171.67 1152.68 L2174.91 1151.58 L2178.15 1150.59 L2181.39 1149.71 L2184.64 1148.93 L2187.88 1148.28 L2191.12 1147.75 L2194.37 1147.35 L2197.61 1147.08 L2200.85 1146.95 L2204.1 1146.96 L2207.34 1147.12 L2210.58 1147.43 L2213.82 1147.86 L2217.07 1148.43 L2220.31 1149.11 L2223.55 1149.91 L2226.8 1150.8 L2230.04 1151.8 L2233.28 1152.88 L2236.53 1154.04 L2239.77 1155.28 L2243.01 1156.59 L2246.25 1157.96 L2249.5 1159.39 L2252.74 1160.88 L2255.98 1162.41 L2259.23 1163.98 L2262.47 1165.59 L2265.71 1167.24 L2268.96 1168.92 L2272.2 1170.62 L2275.44 1172.34 L2278.69 1174.09 L2281.93 1175.85 L2285.17 1177.62 L2288.41 1179.4 L2291.66 1181.19 L2291.66 543.195 L2288.41 548.543 L2285.17 553.943 L2281.93 559.392 L2278.69 564.888 L2275.44 570.431 L2272.2 576.018 L2268.96 581.646 L2265.71 587.313 L2262.47 593.016 L2259.23 598.752 L2255.98 604.519 L2252.74 610.312 L2249.5 616.128 L2246.25 621.964 L2243.01 627.814 L2239.77 633.675 L2236.53 639.542 L2233.28 645.41 L2230.04 651.274 L2226.8 657.129 L2223.55 662.968 L2220.31 668.786 L2217.07 674.576 L2213.82 680.333 L2210.58 686.05 L2207.34 691.72 L2204.1 697.337 L2200.85 702.895 L2197.61 708.396 L2194.37 713.842 L2191.12 719.238 L2187.88 724.584 L2184.64 729.884 L2181.39 735.14 L2178.15 740.354 L2174.91 745.528 L2171.67 750.662 L2168.42 755.758 L2165.18 760.816 L2161.94 765.836 L2158.69 770.816 L2155.45 775.756 L2152.21 780.653 L2148.96 785.506 L2145.72 790.31 L2142.48 795.062 L2139.23 799.757 L2135.99 804.39 L2132.75 808.957 L2129.51 813.449 L2126.26 817.861 L2123.02 822.186 L2119.78 826.416 L2116.53 830.542 L2113.29 834.557 L2110.05 838.455 L2106.8 842.238 L2103.56 845.91 L2100.32 849.476 L2097.08 852.938 L2093.83 856.302 L2090.59 859.572 L2087.35 862.758 L2084.1 865.869 L2080.86 868.916 L2077.62 871.906 L2074.37 874.849 L2071.13 877.754 L2067.89 880.628 L2064.65 883.477 L2061.4 886.309 L2058.16 889.128 L2054.92 891.941 L2051.67 894.75 L2048.43 897.56 L2045.19 900.373 L2041.94 903.191 L2038.7 906.015 L2035.46 908.847 L2032.21 911.685 L2028.97 914.53 L2025.73 917.379 L2022.49 920.231 L2019.24 923.084 L2016 925.933 L2012.76 928.775 L2009.51 931.607 L2006.27 934.422 L2003.03 937.216 L1999.78 939.983 L1996.54 942.718 L1993.3 945.412 L1990.06 948.061 L1986.81 950.656 L1983.57 953.191 L1980.33 955.66 L1977.08 958.068 L1973.84 960.421 L1970.6 962.726 L1967.35 964.987 L1964.11 967.211 L1960.87 969.403 L1957.63 971.569 L1954.38 973.712 L1951.14 975.837 L1947.9 977.948 L1944.65 980.048 L1941.41 982.141 L1938.17 984.228 L1934.92 986.313 L1931.68 988.396 L1928.44 990.479 L1925.19 992.562 L1921.95 994.647 L1918.71 996.733 L1915.47 998.818 L1912.22 1000.9 L1908.98 1002.99 L1905.74 1005.06 L1902.49 1007.13 L1899.25 1009.2 L1896.01 1011.24 L1892.76 1013.27 L1889.52 1015.28 L1886.28 1017.27 L1883.04 1019.22 L1879.79 1021.14 L1876.55 1023.02 L1873.31 1024.84 L1870.06 1026.62 L1866.82 1028.33 L1863.58 1029.98 L1860.33 1031.54 L1857.09 1033.03 L1853.85 1034.43 L1850.61 1035.75 L1847.36 1036.98 L1844.12 1038.15 L1840.88 1039.26 L1837.63 1040.3 L1834.39 1041.29 L1831.15 1042.23 L1827.9 1043.13 L1824.66 1043.98 L1821.42 1044.81 L1818.17 1045.59 L1814.93 1046.36 L1811.69 1047.09 L1808.45 1047.8 L1805.2 1048.49 L1801.96 1049.16 L1798.72 1049.8 L1795.47 1050.43 L1792.23 1051.04 L1788.99 1051.62 L1785.74 1052.19 L1782.5 1052.73 L1779.26 1053.24 L1776.02 1053.72 L1772.77 1054.18 L1769.53 1054.6 L1766.29 1054.98 L1763.04 1055.31 L1759.8 1055.6 L1756.56 1055.84 L1753.31 1056.02 L1750.07 1056.14 L1746.83 1056.2 L1743.59 1056.21 L1740.34 1056.18 L1737.1 1056.1 L1733.86 1055.99 L1730.61 1055.84 L1727.37 1055.67 L1724.13 1055.47 L1720.88 1055.24 L1717.64 1055 L1714.4 1054.74 L1711.15 1054.46 L1707.91 1054.16 L1704.67 1053.84 L1701.43 1053.49 L1698.18 1053.13 L1694.94 1052.74 L1691.7 1052.32 L1688.45 1051.86 L1685.21 1051.37 L1681.97 1050.82 L1678.72 1050.22 L1675.48 1049.56 L1672.24 1048.83 L1669 1048.01 L1665.75 1047.1 L1662.51 1046.08 L1659.27 1044.95 L1656.02 1043.68 L1652.78 1042.27 L1649.54 1040.69 L1646.29 1038.94 L1643.05 1037 L1639.81 1034.85 L1636.57 1032.49 L1633.32 1029.91 L1630.08 1027.11 L1626.84 1024.09 L1623.59 1020.85 L1620.35 1017.4 L1617.11 1013.74 L1613.86 1009.87 L1610.62 1005.79 L1607.38 1001.5 L1604.13 997.026 L1600.89 992.372 L1597.65 987.552 L1594.41 982.58 L1591.16 977.468 L1587.92 972.226 L1584.68 966.864 L1581.43 961.394 L1578.19 955.822 L1574.95 950.158 L1571.7 944.408 L1568.46 938.58 L1565.22 932.678 L1561.98 926.707 L1558.73 920.672 L1555.49 914.577 L1552.25 908.425 L1549 902.219 L1545.76 895.96 L1542.52 889.651 L1539.27 883.294 L1536.03 876.897 L1532.79 870.47 L1529.55 864.021 L1526.3 857.557 L1523.06 851.088 L1519.82 844.619 L1516.57 838.159 L1513.33 831.714 L1510.09 825.289 L1506.84 818.891 L1503.6 812.525 L1500.36 806.196 L1497.11 799.908 L1493.87 793.666 L1490.63 787.472 L1487.39 781.33 L1484.14 775.243 L1480.9 769.213 L1477.66 763.243 L1474.41 757.333 L1471.17 751.486 L1467.93 745.702 L1464.68 739.982 L1461.44 734.326 L1458.2 728.734 L1454.96 723.205 L1451.71 717.739 L1448.47 712.334 L1445.23 706.988 L1441.98 701.701 L1438.74 696.47 L1435.5 691.292 L1432.25 686.165 L1429.01 681.085 L1425.77 676.049 L1422.53 671.053 L1419.28 666.093 L1416.04 661.164 L1412.8 656.263 L1409.55 651.383 L1406.31 646.52 L1403.07 641.668 L1399.82 636.821 L1396.58 631.973 L1393.34 627.118 L1390.1 622.249 L1386.85 617.361 L1383.61 612.446 L1380.37 607.497 L1377.12 602.507 L1373.88 597.471 L1370.64 592.38 L1367.39 587.229 L1364.15 582.012 L1360.91 576.734 L1357.66 571.402 L1354.42 566.022 L1351.18 560.6 L1347.94 555.144 L1344.69 549.66 L1341.45 544.154 L1338.21 538.633 L1334.96 533.104 L1331.72 527.571 L1328.48 522.043 L1325.23 516.523 L1321.99 511.017 L1318.75 505.532 L1315.51 500.072 L1312.26 494.641 L1309.02 489.245 L1305.78 483.889 L1302.53 478.575 L1299.29 473.308 L1296.05 468.092 L1292.8 462.93 L1289.56 457.825 L1286.32 452.781 L1283.08 447.799 L1279.83 442.883 L1276.59 438.035 L1273.35 433.257 L1270.1 428.55 L1266.86 423.917 L1263.62 419.359 L1260.37 414.876 L1257.13 410.47 L1253.89 406.142 L1250.64 401.892 L1247.4 397.72 L1244.16 393.627 L1240.92 389.613 L1237.67 385.677 L1234.43 381.819 L1231.19 378.038 L1227.94 374.333 L1224.7 370.703 L1221.46 367.147 L1218.21 363.664 L1214.97 360.25 L1211.73 356.906 L1208.49 353.628 L1205.24 350.413 L1202 347.26 L1198.76 344.166 L1195.51 341.127 L1192.27 338.141 L1189.03 335.203 L1185.78 332.31 L1182.54 329.459 L1179.3 326.645 L1176.06 323.864 L1172.81 321.112 L1169.57 318.385 L1166.33 315.677 L1163.08 312.984 L1159.84 310.302 L1156.6 307.625 L1153.35 304.949 L1150.11 302.269 L1146.87 299.58 L1143.62 296.879 L1140.38 294.162 L1137.14 291.433 L1133.9 288.698 L1130.65 285.961 L1127.41 283.23 L1124.17 280.51 L1120.92 277.806 L1117.68 275.124 L1114.44 272.47 L1111.19 269.85 L1107.95 267.269 L1104.71 264.733 L1101.47 262.245 L1098.22 259.813 L1094.98 257.439 L1091.74 255.129 L1088.49 252.887 L1085.25 250.717 L1082.01 248.622 L1078.76 246.607 L1075.52 244.674 L1072.28 242.826 L1069.04 241.066 L1065.79 239.397 L1062.55 237.821 L1059.31 236.338 L1056.06 234.952 L1052.82 233.662 L1049.58 232.471 L1046.33 231.378 L1043.09 230.384 L1039.85 229.489 L1036.6 228.693 L1033.36 227.994 L1030.12 227.391 L1026.88 226.884 L1023.63 226.47 L1020.39 226.146 L1017.15 225.911 L1013.9 225.76 L1010.66 225.691 L1007.42 225.698 L1004.17 225.777 L1000.93 225.923 L997.688 226.129 L994.445 226.389 L991.202 226.696 L987.959 227.042 L984.716 227.418 L981.473 227.815 L978.23 228.222 L974.987 228.628 L971.744 229.023 L968.501 229.392 L965.258 229.724 L962.015 230.005 L958.772 230.23 L955.529 230.394 L952.286 230.491 L949.043 230.515 L945.8 230.458 L942.557 230.313 L939.314 230.07 L936.071 229.721 L932.828 229.255 L929.585 228.663 L926.342 227.934 L923.099 227.057 L919.856 226.022 L916.613 224.817 L913.37 223.436 L910.127 221.877 L906.884 220.139 L903.641 218.226 L900.398 216.138 L897.155 213.881 L893.911 211.462 L890.668 208.896 L887.425 206.198 L884.182 203.382 L880.939 200.465 L877.696 197.461 L874.453 194.384 L871.21 191.249 L867.967 188.068 L864.724 184.853 L861.481 181.616 L858.238 178.367 L854.995 175.116 L851.752 171.872 L848.509 168.643 L845.266 165.436 L842.023 162.258 L838.78 159.115 L835.537 156.013 L832.294 152.956 L829.051 149.949 L825.808 146.996 L822.565 144.099 L819.322 141.264 L816.079 138.491 L812.836 135.784 L809.593 133.144 L806.35 130.574 L803.107 128.075 L799.864 125.649 L796.621 123.296 L793.378 121.017 L790.135 118.814 L786.892 116.687 L783.648 114.636 L780.405 112.662 L777.162 110.765 L773.919 108.946 L770.676 107.204 L767.433 105.539 L764.19 103.952 L760.947 102.442 L757.704 101.009 L754.461 99.6535 L751.218 98.3742 L747.975 97.1712 L744.732 96.0442 L741.489 94.9928 L738.246 94.0166 L735.003 93.1153 L731.76 92.2883 L728.517 91.5353 L725.274 90.8559 L722.031 90.2495 L718.788 89.7158 L715.545 89.2543 L712.302 88.8645 L709.059 88.546 L705.816 88.2984 L702.573 88.1211 L699.33 88.0139 L696.087 87.9763 L692.844 88.0078 L689.601 88.1081 L686.358 88.2768 L683.115 88.5135 L679.872 88.8179 L676.629 89.1896 L673.385 89.6283 L670.142 90.1337 L666.899 90.7055 L663.656 91.3435 L660.413 92.0474 L657.17 92.8169 L653.927 93.6518 L650.684 94.552 L647.441 95.5173 L644.198 96.5475 L640.955 97.6424 L637.712 98.802 L634.469 100.026 L631.226 101.315 L627.983 102.668 L624.74 104.085 L621.497 105.567 L618.254 107.113 L615.011 108.723 L611.768 110.398 L608.525 112.138 L605.282 113.941 L602.039 115.81 L598.796 117.743 L595.553 119.741 L592.31 121.803 L589.067 123.931 L585.824 126.124 L582.581 128.383 L579.338 130.707 L576.095 133.096 L572.852 135.552 L569.609 138.074 L566.366 140.662 L563.122 143.317 L559.879 146.039 L556.636 148.828 L553.393 151.684 L550.15 154.608 L546.907 157.599 L543.664 160.658 L540.421 163.786 L537.178 166.981 L533.935 170.246 L530.692 173.579 L527.449 176.981 L524.206 180.451 L520.963 183.991 L517.72 187.601 L514.477 191.279 L511.234 195.027 L507.991 198.844 L504.748 202.73 L501.505 206.685 L498.262 210.709 L495.019 214.802 L491.776 218.963 L488.533 223.192 L485.29 227.489 L482.047 231.852 L478.804 236.282 L475.561 240.777 L472.318 245.337 L469.075 249.96 L465.832 254.646 L462.589 259.393 L459.346 264.2 L456.103 269.065 L452.859 273.985 L449.616 278.961 L446.373 283.988 L443.13 289.064 L439.887 294.187 L436.644 299.353 L433.401 304.56 L430.158 309.803 L426.915 315.078 L423.672 320.381 L420.429 325.707 L417.186 331.051 L413.943 336.408 L410.7 341.771 L407.457 347.133 L404.214 352.488 L400.971 357.828 L397.728 363.145 L394.485 368.431 L391.242 373.676 L387.999 378.872 L384.756 384.008 L381.513 389.076 L378.27 394.069 L375.027 398.983 L371.784 403.812 L368.541 408.55 L365.298 413.19 L362.055 417.726 L358.812 422.151 L355.569 426.456 L352.326 430.634 L349.083 434.675 L345.84 438.571 L342.596 442.311 L339.353 445.889 L336.11 449.3 L332.867 452.543 L329.624 455.618 L326.381 458.521 L323.138 461.251 L319.895 463.804 L316.652 466.177 L313.409 468.368 L310.166 470.371 L306.923 472.182 L303.68 473.797 L300.437 475.211 L297.194 476.42 L293.951 477.425 L290.708 478.228 L287.465 478.831 L284.222 479.234 L280.979 479.44 L277.736 479.449 L274.493 479.26 L271.25 478.875 L268.007 478.292 L264.764 477.51 L261.521 476.531 L258.278 475.367 L255.035 474.03  Z" fill="#3da44d" fill-rule="evenodd" fill-opacity="0.1"/>
<polyline clip-path="url(#clip452)" style="stroke:#3da44d; stroke-linecap:round; stroke-linejoin:round; stroke-width:8; stroke-opacity:1; fill:none" points="255.035,680.59 258.278,678.461 261.521,676.281 264.764,674.049 268.007,671.763 271.25,669.428 274.493,667.046 277.736,664.623 280.979,662.162 284.222,659.666 287.465,657.14 290.708,654.588 293.951,652.014 297.194,649.421 300.437,646.813 303.68,644.194 306.923,641.567 310.166,638.934 313.409,636.296 316.652,633.657 319.895,631.019 323.138,628.383 326.381,625.753 329.624,623.13 332.867,620.517 336.11,617.917 339.353,615.331 342.596,612.762 345.84,610.212 349.083,607.684 352.326,605.181 355.569,602.704 358.812,600.256 362.055,597.841 365.298,595.459 368.541,593.114 371.784,590.809 375.027,588.546 378.27,586.328 381.513,584.157 384.756,582.037 387.999,579.969 391.242,577.952 394.485,575.984 397.728,574.064 400.971,572.189 404.214,570.359 407.457,568.57 410.7,566.821 413.943,565.111 417.186,563.438 420.429,561.8 423.672,560.196 426.915,558.625 430.158,557.084 433.401,555.572 436.644,554.089 439.887,552.632 443.13,551.2 446.373,549.793 449.616,548.408 452.859,547.044 456.103,545.701 459.346,544.377 462.589,543.07 465.832,541.781 469.075,540.507 472.318,539.247 475.561,538.002 478.804,536.768 482.047,535.547 485.29,534.336 488.533,533.135 491.776,531.943 495.019,530.758 498.262,529.581 501.505,528.41 504.748,527.244 507.991,526.084 511.234,524.927 514.477,523.773 517.72,522.622 520.963,521.473 524.206,520.324 527.449,519.177 530.692,518.029 533.935,516.881 537.178,515.731 540.421,514.579 543.664,513.425 546.907,512.268 550.15,511.108 553.393,509.944 556.636,508.776 559.879,507.602 563.122,506.424 566.366,505.24 569.609,504.05 572.852,502.854 576.095,501.651 579.338,500.441 582.581,499.223 585.824,497.998 589.067,496.766 592.31,495.525 595.553,494.276 598.796,493.018 602.039,491.751 605.282,490.476 608.525,489.191 611.768,487.898 615.011,486.595 618.254,485.282 621.497,483.96 624.74,482.628 627.983,481.287 631.226,479.936 634.469,478.575 637.712,477.205 640.955,475.825 644.198,474.435 647.441,473.036 650.684,471.627 653.927,470.209 657.17,468.782 660.413,467.346 663.656,465.901 666.899,464.447 670.142,462.984 673.385,461.513 676.629,460.035 679.872,458.548 683.115,457.054 686.358,455.553 689.601,454.045 692.844,452.531 696.087,451.01 699.33,449.484 702.573,447.953 705.816,446.417 709.059,444.876 712.302,443.332 715.545,441.785 718.788,440.235 722.031,438.682 725.274,437.129 728.517,435.574 731.76,434.019 735.003,432.465 738.246,430.912 741.489,429.361 744.732,427.813 747.975,426.268 751.218,424.728 754.461,423.193 757.704,421.664 760.947,420.143 764.19,418.63 767.433,417.125 770.676,415.631 773.919,414.149 777.162,412.679 780.405,411.222 783.648,409.781 786.892,408.355 790.135,406.947 793.378,405.557 796.621,404.188 799.864,402.84 803.107,401.514 806.35,400.214 809.593,398.939 812.836,397.692 816.079,396.473 819.322,395.286 822.565,394.132 825.808,393.012 829.051,391.928 832.294,390.882 835.537,389.877 838.78,388.914 842.023,387.995 845.266,387.122 848.509,386.298 851.752,385.525 854.995,384.805 858.238,384.14 861.481,383.534 864.724,382.988 867.967,382.505 871.21,382.087 874.453,381.739 877.696,381.462 880.939,381.258 884.182,381.133 887.425,381.087 890.668,381.124 893.911,381.249 897.155,381.463 900.398,381.77 903.641,382.17 906.884,382.661 910.127,383.238 913.37,383.898 916.613,384.637 919.856,385.451 923.099,386.338 926.342,387.294 929.585,388.316 932.828,389.402 936.071,390.548 939.314,391.752 942.557,393.011 945.8,394.323 949.043,395.684 952.286,397.094 955.529,398.548 958.772,400.045 962.015,401.583 965.258,403.159 968.501,404.771 971.744,406.419 974.987,408.1 978.23,409.815 981.473,411.562 984.716,413.34 987.959,415.149 991.202,416.989 994.445,418.858 997.688,420.755 1000.93,422.682 1004.17,424.636 1007.42,426.617 1010.66,428.625 1013.9,430.66 1017.15,432.721 1020.39,434.808 1023.63,436.921 1026.88,439.059 1030.12,441.223 1033.36,443.412 1036.6,445.627 1039.85,447.866 1043.09,450.131 1046.33,452.422 1049.58,454.738 1052.82,457.079 1056.06,459.446 1059.31,461.84 1062.55,464.26 1065.79,466.706 1069.04,469.18 1072.28,471.681 1075.52,474.21 1078.76,476.767 1082.01,479.353 1085.25,481.969 1088.49,484.615 1091.74,487.292 1094.98,490.001 1098.22,492.742 1101.47,495.516 1104.71,498.324 1107.95,501.166 1111.19,504.045 1114.44,506.96 1117.68,509.913 1120.92,512.905 1124.17,515.936 1127.41,519.009 1130.65,522.124 1133.9,525.283 1137.14,528.486 1140.38,531.736 1143.62,535.033 1146.87,538.378 1150.11,541.771 1153.35,545.21 1156.6,548.693 1159.84,552.219 1163.08,555.786 1166.33,559.394 1169.57,563.041 1172.81,566.725 1176.06,570.445 1179.3,574.201 1182.54,577.991 1185.78,581.813 1189.03,585.668 1192.27,589.553 1195.51,593.468 1198.76,597.412 1202,601.383 1205.24,605.382 1208.49,609.406 1211.73,613.456 1214.97,617.53 1218.21,621.627 1221.46,625.747 1224.7,629.889 1227.94,634.053 1231.19,638.237 1234.43,642.441 1237.67,646.664 1240.92,650.906 1244.16,655.165 1247.4,659.442 1250.64,663.736 1253.89,668.046 1257.13,672.372 1260.37,676.713 1263.62,681.069 1266.86,685.439 1270.1,689.823 1273.35,694.219 1276.59,698.629 1279.83,703.051 1283.08,707.485 1286.32,711.931 1289.56,716.388 1292.8,720.855 1296.05,725.333 1299.29,729.822 1302.53,734.319 1305.78,738.826 1309.02,743.342 1312.26,747.867 1315.51,752.4 1318.75,756.941 1321.99,761.49 1325.23,766.046 1328.48,770.609 1331.72,775.179 1334.96,779.756 1338.21,784.338 1341.45,788.927 1344.69,793.521 1347.94,798.12 1351.18,802.724 1354.42,807.333 1357.66,811.946 1360.91,816.563 1364.15,821.184 1367.39,825.809 1370.64,830.436 1373.88,835.067 1377.12,839.701 1380.37,844.338 1383.61,848.978 1386.85,853.621 1390.1,858.267 1393.34,862.916 1396.58,867.569 1399.82,872.224 1403.07,876.881 1406.31,881.542 1409.55,886.205 1412.8,890.871 1416.04,895.54 1419.28,900.21 1422.53,904.883 1425.77,909.559 1429.01,914.236 1432.25,918.915 1435.5,923.596 1438.74,928.278 1441.98,932.961 1445.23,937.646 1448.47,942.331 1451.71,947.017 1454.96,951.703 1458.2,956.39 1461.44,961.076 1464.68,965.762 1467.93,970.446 1471.17,975.13 1474.41,979.812 1477.66,984.491 1480.9,989.169 1484.14,993.843 1487.39,998.515 1490.63,1003.18 1493.87,1007.85 1497.11,1012.5 1500.36,1017.16 1503.6,1021.8 1506.84,1026.44 1510.09,1031.08 1513.33,1035.7 1516.57,1040.32 1519.82,1044.93 1523.06,1049.52 1526.3,1054.11 1529.55,1058.68 1532.79,1063.25 1536.03,1067.8 1539.27,1072.33 1542.52,1076.85 1545.76,1081.35 1549,1085.83 1552.25,1090.29 1555.49,1094.73 1558.73,1099.14 1561.98,1103.51 1565.22,1107.85 1568.46,1112.15 1571.7,1116.42 1574.95,1120.63 1578.19,1124.8 1581.43,1128.92 1584.68,1132.98 1587.92,1136.98 1591.16,1140.92 1594.41,1144.79 1597.65,1148.6 1600.89,1152.33 1604.13,1155.98 1607.38,1159.55 1610.62,1163.04 1613.86,1166.43 1617.11,1169.74 1620.35,1172.95 1623.59,1176.08 1626.84,1179.11 1630.08,1182.06 1633.32,1184.92 1636.57,1187.69 1639.81,1190.38 1643.05,1192.98 1646.29,1195.5 1649.54,1197.95 1652.78,1200.32 1656.02,1202.63 1659.27,1204.86 1662.51,1207.03 1665.75,1209.14 1669,1211.18 1672.24,1213.16 1675.48,1215.07 1678.72,1216.93 1681.97,1218.73 1685.21,1220.47 1688.45,1222.15 1691.7,1223.77 1694.94,1225.34 1698.18,1226.86 1701.43,1228.31 1704.67,1229.72 1707.91,1231.07 1711.15,1232.37 1714.4,1233.62 1717.64,1234.81 1720.88,1235.95 1724.13,1237.04 1727.37,1238.07 1730.61,1239.06 1733.86,1239.99 1737.1,1240.86 1740.34,1241.69 1743.59,1242.46 1746.83,1243.18 1750.07,1243.84 1753.31,1244.45 1756.56,1245 1759.8,1245.5 1763.04,1245.94 1766.29,1246.33 1769.53,1246.67 1772.77,1246.95 1776.02,1247.19 1779.26,1247.37 1782.5,1247.5 1785.74,1247.58 1788.99,1247.61 1792.23,1247.59 1795.47,1247.52 1798.72,1247.4 1801.96,1247.22 1805.2,1247 1808.45,1246.73 1811.69,1246.4 1814.93,1246.03 1818.17,1245.6 1821.42,1245.12 1824.66,1244.58 1827.9,1243.99 1831.15,1243.35 1834.39,1242.65 1837.63,1241.89 1840.88,1241.08 1844.12,1240.21 1847.36,1239.27 1850.61,1238.28 1853.85,1237.22 1857.09,1236.1 1860.33,1234.91 1863.58,1233.67 1866.82,1232.35 1870.06,1230.98 1873.31,1229.55 1876.55,1228.06 1879.79,1226.52 1883.04,1224.92 1886.28,1223.26 1889.52,1221.56 1892.76,1219.8 1896.01,1217.99 1899.25,1216.13 1902.49,1214.22 1905.74,1212.27 1908.98,1210.27 1912.22,1208.22 1915.47,1206.12 1918.71,1203.98 1921.95,1201.79 1925.19,1199.56 1928.44,1197.29 1931.68,1194.97 1934.92,1192.6 1938.17,1190.19 1941.41,1187.74 1944.65,1185.24 1947.9,1182.7 1951.14,1180.12 1954.38,1177.49 1957.63,1174.81 1960.87,1172.09 1964.11,1169.33 1967.35,1166.51 1970.6,1163.65 1973.84,1160.75 1977.08,1157.79 1980.33,1154.79 1983.57,1151.73 1986.81,1148.63 1990.06,1145.48 1993.3,1142.28 1996.54,1139.04 1999.78,1135.76 2003.03,1132.44 2006.27,1129.09 2009.51,1125.71 2012.76,1122.29 2016,1118.85 2019.24,1115.38 2022.49,1111.88 2025.73,1108.37 2028.97,1104.83 2032.21,1101.28 2035.46,1097.71 2038.7,1094.13 2041.94,1090.53 2045.19,1086.93 2048.43,1083.31 2051.67,1079.7 2054.92,1076.07 2058.16,1072.45 2061.4,1068.82 2064.65,1065.19 2067.89,1061.57 2071.13,1057.95 2074.37,1054.33 2077.62,1050.72 2080.86,1047.12 2084.1,1043.54 2087.35,1039.96 2090.59,1036.39 2093.83,1032.84 2097.08,1029.31 2100.32,1025.79 2103.56,1022.28 2106.8,1018.78 2110.05,1015.3 2113.29,1011.82 2116.53,1008.35 2119.78,1004.88 2123.02,1001.43 2126.26,997.982 2129.51,994.55 2132.75,991.131 2135.99,987.727 2139.23,984.34 2142.48,980.97 2145.72,977.62 2148.96,974.29 2152.21,970.982 2155.45,967.698 2158.69,964.438 2161.94,961.204 2165.18,957.997 2168.42,954.82 2171.67,951.672 2174.91,948.556 2178.15,945.472 2181.39,942.423 2184.64,939.409 2187.88,936.432 2191.12,933.493 2194.37,930.594 2197.61,927.736 2200.85,924.92 2204.1,922.148 2207.34,919.421 2210.58,916.738 2213.82,914.099 2217.07,911.503 2220.31,908.949 2223.55,906.437 2226.8,903.966 2230.04,901.536 2233.28,899.144 2236.53,896.792 2239.77,894.478 2243.01,892.202 2246.25,889.963 2249.5,887.761 2252.74,885.594 2255.98,883.463 2259.23,881.367 2262.47,879.305 2265.71,877.276 2268.96,875.28 2272.2,873.318 2275.44,871.387 2278.69,869.487 2281.93,867.619 2285.17,865.781 2288.41,863.973 2291.66,862.195 "/>
<path clip-path="url(#clip450)" d="M1953.46 302.578 L2280.8 302.578 L2280.8 95.2176 L1953.46 95.2176  Z" fill="#ffffff" fill-rule="evenodd" fill-opacity="1"/>
<polyline clip-path="url(#clip450)" style="stroke:#000000; stroke-linecap:round; stroke-linejoin:round; stroke-width:4; stroke-opacity:1; fill:none" points="1953.46,302.578 2280.8,302.578 2280.8,95.2176 1953.46,95.2176 1953.46,302.578 "/>
<polyline clip-path="url(#clip450)" style="stroke:#009af9; stroke-linecap:round; stroke-linejoin:round; stroke-width:4; stroke-opacity:1; fill:none" points="1977.44,147.058 2121.36,147.058 "/>
<path clip-path="url(#clip450)" d="M2152.76 131.051 L2152.76 138.412 L2161.53 138.412 L2161.53 141.722 L2152.76 141.722 L2152.76 155.796 Q2152.76 158.967 2153.61 159.87 Q2154.49 160.773 2157.16 160.773 L2161.53 160.773 L2161.53 164.338 L2157.16 164.338 Q2152.23 164.338 2150.35 162.509 Q2148.48 160.657 2148.48 155.796 L2148.48 141.722 L2145.35 141.722 L2145.35 138.412 L2148.48 138.412 L2148.48 131.051 L2152.76 131.051 Z" fill="#000000" fill-rule="nonzero" fill-opacity="1" /><path clip-path="url(#clip450)" d="M2182.16 142.393 Q2181.44 141.977 2180.58 141.791 Q2179.75 141.583 2178.73 141.583 Q2175.12 141.583 2173.17 143.944 Q2171.25 146.282 2171.25 150.68 L2171.25 164.338 L2166.97 164.338 L2166.97 138.412 L2171.25 138.412 L2171.25 142.44 Q2172.6 140.078 2174.75 138.944 Q2176.9 137.787 2179.98 137.787 Q2180.42 137.787 2180.95 137.856 Q2181.48 137.903 2182.13 138.018 L2182.16 142.393 Z" fill="#000000" fill-rule="nonzero" fill-opacity="1" /><path clip-path="url(#clip450)" d="M2186.18 154.106 L2186.18 138.412 L2190.44 138.412 L2190.44 153.944 Q2190.44 157.625 2191.88 159.476 Q2193.31 161.305 2196.18 161.305 Q2199.63 161.305 2201.62 159.106 Q2203.64 156.907 2203.64 153.111 L2203.64 138.412 L2207.9 138.412 L2207.9 164.338 L2203.64 164.338 L2203.64 160.356 Q2202.09 162.717 2200.03 163.875 Q2197.99 165.009 2195.28 165.009 Q2190.81 165.009 2188.5 162.231 Q2186.18 159.453 2186.18 154.106 M2196.9 137.787 L2196.9 137.787 Z" fill="#000000" fill-rule="nonzero" fill-opacity="1" /><path clip-path="url(#clip450)" d="M2220.88 131.051 L2220.88 138.412 L2229.66 138.412 L2229.66 141.722 L2220.88 141.722 L2220.88 155.796 Q2220.88 158.967 2221.74 159.87 Q2222.62 160.773 2225.28 160.773 L2229.66 160.773 L2229.66 164.338 L2225.28 164.338 Q2220.35 164.338 2218.48 162.509 Q2216.6 160.657 2216.6 155.796 L2216.6 141.722 L2213.48 141.722 L2213.48 138.412 L2216.6 138.412 L2216.6 131.051 L2220.88 131.051 Z" fill="#000000" fill-rule="nonzero" fill-opacity="1" /><path clip-path="url(#clip450)" d="M2256.81 148.689 L2256.81 164.338 L2252.55 164.338 L2252.55 148.828 Q2252.55 145.148 2251.11 143.319 Q2249.68 141.49 2246.81 141.49 Q2243.36 141.49 2241.37 143.69 Q2239.38 145.889 2239.38 149.685 L2239.38 164.338 L2235.1 164.338 L2235.1 128.319 L2239.38 128.319 L2239.38 142.44 Q2240.91 140.102 2242.97 138.944 Q2245.05 137.787 2247.76 137.787 Q2252.23 137.787 2254.52 140.565 Q2256.81 143.319 2256.81 148.689 Z" fill="#000000" fill-rule="nonzero" fill-opacity="1" /><circle clip-path="url(#clip450)" cx="2049.4" cy="198.898" r="20.48" fill="#e26f46" fill-rule="evenodd" fill-opacity="1" stroke="#000000" stroke-opacity="1" stroke-width="4.55111"/>
<path clip-path="url(#clip450)" d="M2164.26 194.187 L2164.26 180.159 L2168.52 180.159 L2168.52 216.178 L2164.26 216.178 L2164.26 212.289 Q2162.92 214.603 2160.86 215.738 Q2158.82 216.849 2155.95 216.849 Q2151.25 216.849 2148.29 213.099 Q2145.35 209.349 2145.35 203.238 Q2145.35 197.127 2148.29 193.377 Q2151.25 189.627 2155.95 189.627 Q2158.82 189.627 2160.86 190.761 Q2162.92 191.872 2164.26 194.187 M2149.75 203.238 Q2149.75 207.937 2151.67 210.622 Q2153.61 213.284 2156.99 213.284 Q2160.37 213.284 2162.32 210.622 Q2164.26 207.937 2164.26 203.238 Q2164.26 198.539 2162.32 195.877 Q2160.37 193.192 2156.99 193.192 Q2153.61 193.192 2151.67 195.877 Q2149.75 198.539 2149.75 203.238 Z" fill="#000000" fill-rule="nonzero" fill-opacity="1" /><path clip-path="url(#clip450)" d="M2189.08 203.145 Q2183.92 203.145 2181.92 204.326 Q2179.93 205.506 2179.93 208.354 Q2179.93 210.622 2181.42 211.965 Q2182.92 213.284 2185.49 213.284 Q2189.03 213.284 2191.16 210.784 Q2193.31 208.261 2193.31 204.094 L2193.31 203.145 L2189.08 203.145 M2197.57 201.386 L2197.57 216.178 L2193.31 216.178 L2193.31 212.242 Q2191.85 214.603 2189.68 215.738 Q2187.5 216.849 2184.36 216.849 Q2180.37 216.849 2178.01 214.627 Q2175.67 212.381 2175.67 208.631 Q2175.67 204.256 2178.59 202.034 Q2181.53 199.812 2187.34 199.812 L2193.31 199.812 L2193.31 199.395 Q2193.31 196.455 2191.37 194.858 Q2189.45 193.238 2185.95 193.238 Q2183.73 193.238 2181.62 193.77 Q2179.52 194.303 2177.57 195.367 L2177.57 191.432 Q2179.91 190.53 2182.11 190.09 Q2184.31 189.627 2186.39 189.627 Q2192.02 189.627 2194.79 192.543 Q2197.57 195.46 2197.57 201.386 Z" fill="#000000" fill-rule="nonzero" fill-opacity="1" /><path clip-path="url(#clip450)" d="M2210.56 182.891 L2210.56 190.252 L2219.33 190.252 L2219.33 193.562 L2210.56 193.562 L2210.56 207.636 Q2210.56 210.807 2211.42 211.71 Q2212.29 212.613 2214.96 212.613 L2219.33 212.613 L2219.33 216.178 L2214.96 216.178 Q2210.03 216.178 2208.15 214.349 Q2206.28 212.497 2206.28 207.636 L2206.28 193.562 L2203.15 193.562 L2203.15 190.252 L2206.28 190.252 L2206.28 182.891 L2210.56 182.891 Z" fill="#000000" fill-rule="nonzero" fill-opacity="1" /><path clip-path="url(#clip450)" d="M2236.72 203.145 Q2231.55 203.145 2229.56 204.326 Q2227.57 205.506 2227.57 208.354 Q2227.57 210.622 2229.05 211.965 Q2230.56 213.284 2233.13 213.284 Q2236.67 213.284 2238.8 210.784 Q2240.95 208.261 2240.95 204.094 L2240.95 203.145 L2236.72 203.145 M2245.21 201.386 L2245.21 216.178 L2240.95 216.178 L2240.95 212.242 Q2239.49 214.603 2237.32 215.738 Q2235.14 216.849 2231.99 216.849 Q2228.01 216.849 2225.65 214.627 Q2223.31 212.381 2223.31 208.631 Q2223.31 204.256 2226.23 202.034 Q2229.17 199.812 2234.98 199.812 L2240.95 199.812 L2240.95 199.395 Q2240.95 196.455 2239.01 194.858 Q2237.09 193.238 2233.59 193.238 Q2231.37 193.238 2229.26 193.77 Q2227.16 194.303 2225.21 195.367 L2225.21 191.432 Q2227.55 190.53 2229.75 190.09 Q2231.95 189.627 2234.03 189.627 Q2239.66 189.627 2242.43 192.543 Q2245.21 195.46 2245.21 201.386 Z" fill="#000000" fill-rule="nonzero" fill-opacity="1" /><polyline clip-path="url(#clip450)" style="stroke:#3da44d; stroke-linecap:round; stroke-linejoin:round; stroke-width:8; stroke-opacity:1; fill:none" points="1977.44,250.738 2121.36,250.738 "/>
<path clip-path="url(#clip450)" d="M2170.91 263.087 L2170.91 253.805 L2163.27 253.805 L2163.27 249.962 L2175.54 249.962 L2175.54 264.8 Q2172.83 266.721 2169.56 267.717 Q2166.3 268.689 2162.6 268.689 Q2154.49 268.689 2149.91 263.967 Q2145.35 259.221 2145.35 250.772 Q2145.35 242.3 2149.91 237.578 Q2154.49 232.833 2162.6 232.833 Q2165.98 232.833 2169.01 233.666 Q2172.06 234.499 2174.63 236.12 L2174.63 241.096 Q2172.04 238.897 2169.12 237.786 Q2166.21 236.675 2162.99 236.675 Q2156.65 236.675 2153.45 240.217 Q2150.28 243.758 2150.28 250.772 Q2150.28 257.763 2153.45 261.305 Q2156.65 264.846 2162.99 264.846 Q2165.47 264.846 2167.41 264.43 Q2169.36 263.99 2170.91 263.087 Z" fill="#000000" fill-rule="nonzero" fill-opacity="1" /><path clip-path="url(#clip450)" d="M2188.75 237.3 L2188.75 250.286 L2194.63 250.286 Q2197.9 250.286 2199.68 248.596 Q2201.46 246.907 2201.46 243.782 Q2201.46 240.68 2199.68 238.99 Q2197.9 237.3 2194.63 237.3 L2188.75 237.3 M2184.08 233.458 L2194.63 233.458 Q2200.44 233.458 2203.41 236.096 Q2206.39 238.712 2206.39 243.782 Q2206.39 248.897 2203.41 251.513 Q2200.44 254.129 2194.63 254.129 L2188.75 254.129 L2188.75 268.018 L2184.08 268.018 L2184.08 233.458 Z" fill="#000000" fill-rule="nonzero" fill-opacity="1" /></svg>
