<?xml version="1.0" encoding="utf-8"?>
<svg xmlns="http://www.w3.org/2000/svg" xmlns:xlink="http://www.w3.org/1999/xlink" width="600" height="400" viewBox="0 0 2400 1600">
<defs>
  <clipPath id="clip140">
    <rect x="0" y="0" width="2400" height="1600"/>
  </clipPath>
</defs>
<path clip-path="url(#clip140)" d="M0 1600 L2400 1600 L2400 0 L0 0  Z" fill="#ffffff" fill-rule="evenodd" fill-opacity="1"/>
<defs>
  <clipPath id="clip141">
    <rect x="480" y="0" width="1681" height="1600"/>
  </clipPath>
</defs>
<path clip-path="url(#clip140)" d="M193.936 1486.45 L2352.76 1486.45 L2352.76 47.2441 L193.936 47.2441  Z" fill="#ffffff" fill-rule="evenodd" fill-opacity="1"/>
<defs>
  <clipPath id="clip142">
    <rect x="193" y="47" width="2160" height="1440"/>
  </clipPath>
</defs>
<polyline clip-path="url(#clip142)" style="stroke:#000000; stroke-linecap:round; stroke-linejoin:round; stroke-width:2; stroke-opacity:0.1; fill:none" points="255.035,1486.45 255.035,47.2441 "/>
<polyline clip-path="url(#clip142)" style="stroke:#000000; stroke-linecap:round; stroke-linejoin:round; stroke-width:2; stroke-opacity:0.1; fill:none" points="579.338,1486.45 579.338,47.2441 "/>
<polyline clip-path="url(#clip142)" style="stroke:#000000; stroke-linecap:round; stroke-linejoin:round; stroke-width:2; stroke-opacity:0.1; fill:none" points="903.641,1486.45 903.641,47.2441 "/>
<polyline clip-path="url(#clip142)" style="stroke:#000000; stroke-linecap:round; stroke-linejoin:round; stroke-width:2; stroke-opacity:0.1; fill:none" points="1227.94,1486.45 1227.94,47.2441 "/>
<polyline clip-path="url(#clip142)" style="stroke:#000000; stroke-linecap:round; stroke-linejoin:round; stroke-width:2; stroke-opacity:0.1; fill:none" points="1552.25,1486.45 1552.25,47.2441 "/>
<polyline clip-path="url(#clip142)" style="stroke:#000000; stroke-linecap:round; stroke-linejoin:round; stroke-width:2; stroke-opacity:0.1; fill:none" points="1876.55,1486.45 1876.55,47.2441 "/>
<polyline clip-path="url(#clip142)" style="stroke:#000000; stroke-linecap:round; stroke-linejoin:round; stroke-width:2; stroke-opacity:0.1; fill:none" points="2200.85,1486.45 2200.85,47.2441 "/>
<polyline clip-path="url(#clip142)" style="stroke:#000000; stroke-linecap:round; stroke-linejoin:round; stroke-width:2; stroke-opacity:0.1; fill:none" points="193.936,1328.64 2352.76,1328.64 "/>
<polyline clip-path="url(#clip142)" style="stroke:#000000; stroke-linecap:round; stroke-linejoin:round; stroke-width:2; stroke-opacity:0.1; fill:none" points="193.936,1042.95 2352.76,1042.95 "/>
<polyline clip-path="url(#clip142)" style="stroke:#000000; stroke-linecap:round; stroke-linejoin:round; stroke-width:2; stroke-opacity:0.1; fill:none" points="193.936,757.265 2352.76,757.265 "/>
<polyline clip-path="url(#clip142)" style="stroke:#000000; stroke-linecap:round; stroke-linejoin:round; stroke-width:2; stroke-opacity:0.1; fill:none" points="193.936,471.579 2352.76,471.579 "/>
<polyline clip-path="url(#clip142)" style="stroke:#000000; stroke-linecap:round; stroke-linejoin:round; stroke-width:2; stroke-opacity:0.1; fill:none" points="193.936,185.893 2352.76,185.893 "/>
<polyline clip-path="url(#clip140)" style="stroke:#000000; stroke-linecap:round; stroke-linejoin:round; stroke-width:4; stroke-opacity:1; fill:none" points="193.936,1486.45 2352.76,1486.45 "/>
<polyline clip-path="url(#clip140)" style="stroke:#000000; stroke-linecap:round; stroke-linejoin:round; stroke-width:4; stroke-opacity:1; fill:none" points="255.035,1486.45 255.035,1467.55 "/>
<polyline clip-path="url(#clip140)" style="stroke:#000000; stroke-linecap:round; stroke-linejoin:round; stroke-width:4; stroke-opacity:1; fill:none" points="579.338,1486.45 579.338,1467.55 "/>
<polyline clip-path="url(#clip140)" style="stroke:#000000; stroke-linecap:round; stroke-linejoin:round; stroke-width:4; stroke-opacity:1; fill:none" points="903.641,1486.45 903.641,1467.55 "/>
<polyline clip-path="url(#clip140)" style="stroke:#000000; stroke-linecap:round; stroke-linejoin:round; stroke-width:4; stroke-opacity:1; fill:none" points="1227.94,1486.45 1227.94,1467.55 "/>
<polyline clip-path="url(#clip140)" style="stroke:#000000; stroke-linecap:round; stroke-linejoin:round; stroke-width:4; stroke-opacity:1; fill:none" points="1552.25,1486.45 1552.25,1467.55 "/>
<polyline clip-path="url(#clip140)" style="stroke:#000000; stroke-linecap:round; stroke-linejoin:round; stroke-width:4; stroke-opacity:1; fill:none" points="1876.55,1486.45 1876.55,1467.55 "/>
<polyline clip-path="url(#clip140)" style="stroke:#000000; stroke-linecap:round; stroke-linejoin:round; stroke-width:4; stroke-opacity:1; fill:none" points="2200.85,1486.45 2200.85,1467.55 "/>
<path clip-path="url(#clip140)" d="M255.035 1517.37 Q251.424 1517.37 249.595 1520.93 Q247.789 1524.47 247.789 1531.6 Q247.789 1538.71 249.595 1542.27 Q251.424 1545.82 255.035 1545.82 Q258.669 1545.82 260.474 1542.27 Q262.303 1538.71 262.303 1531.6 Q262.303 1524.47 260.474 1520.93 Q258.669 1517.37 255.035 1517.37 M255.035 1513.66 Q260.845 1513.66 263.9 1518.27 Q266.979 1522.85 266.979 1531.6 Q266.979 1540.33 263.9 1544.94 Q260.845 1549.52 255.035 1549.52 Q249.225 1549.52 246.146 1544.94 Q243.09 1540.33 243.09 1531.6 Q243.09 1522.85 246.146 1518.27 Q249.225 1513.66 255.035 1513.66 Z" fill="#000000" fill-rule="nonzero" fill-opacity="1" /><path clip-path="url(#clip140)" d="M569.72 1544.91 L577.358 1544.91 L577.358 1518.55 L569.048 1520.21 L569.048 1515.95 L577.312 1514.29 L581.988 1514.29 L581.988 1544.91 L589.627 1544.91 L589.627 1548.85 L569.72 1548.85 L569.72 1544.91 Z" fill="#000000" fill-rule="nonzero" fill-opacity="1" /><path clip-path="url(#clip140)" d="M898.293 1544.91 L914.613 1544.91 L914.613 1548.85 L892.668 1548.85 L892.668 1544.91 Q895.33 1542.16 899.914 1537.53 Q904.52 1532.88 905.701 1531.53 Q907.946 1529.01 908.826 1527.27 Q909.729 1525.51 909.729 1523.82 Q909.729 1521.07 907.784 1519.33 Q905.863 1517.6 902.761 1517.6 Q900.562 1517.6 898.108 1518.36 Q895.678 1519.13 892.9 1520.68 L892.9 1515.95 Q895.724 1514.82 898.178 1514.24 Q900.631 1513.66 902.668 1513.66 Q908.039 1513.66 911.233 1516.35 Q914.428 1519.03 914.428 1523.52 Q914.428 1525.65 913.617 1527.57 Q912.83 1529.47 910.724 1532.07 Q910.145 1532.74 907.043 1535.95 Q903.942 1539.15 898.293 1544.91 Z" fill="#000000" fill-rule="nonzero" fill-opacity="1" /><path clip-path="url(#clip140)" d="M1232.19 1530.21 Q1235.55 1530.93 1237.42 1533.2 Q1239.32 1535.47 1239.32 1538.8 Q1239.32 1543.92 1235.8 1546.72 Q1232.28 1549.52 1225.8 1549.52 Q1223.63 1549.52 1221.31 1549.08 Q1219.02 1548.66 1216.57 1547.81 L1216.57 1543.29 Q1218.51 1544.43 1220.83 1545.01 Q1223.14 1545.58 1225.66 1545.58 Q1230.06 1545.58 1232.35 1543.85 Q1234.67 1542.11 1234.67 1538.8 Q1234.67 1535.75 1232.52 1534.03 Q1230.39 1532.3 1226.57 1532.3 L1222.54 1532.3 L1222.54 1528.45 L1226.75 1528.45 Q1230.2 1528.45 1232.03 1527.09 Q1233.86 1525.7 1233.86 1523.11 Q1233.86 1520.45 1231.96 1519.03 Q1230.08 1517.6 1226.57 1517.6 Q1224.64 1517.6 1222.45 1518.01 Q1220.25 1518.43 1217.61 1519.31 L1217.61 1515.14 Q1220.27 1514.4 1222.58 1514.03 Q1224.92 1513.66 1226.98 1513.66 Q1232.31 1513.66 1235.41 1516.09 Q1238.51 1518.5 1238.51 1522.62 Q1238.51 1525.49 1236.87 1527.48 Q1235.22 1529.45 1232.19 1530.21 Z" fill="#000000" fill-rule="nonzero" fill-opacity="1" /><path clip-path="url(#clip140)" d="M1555.26 1518.36 L1543.45 1536.81 L1555.26 1536.81 L1555.26 1518.36 M1554.03 1514.29 L1559.91 1514.29 L1559.91 1536.81 L1564.84 1536.81 L1564.84 1540.7 L1559.91 1540.7 L1559.91 1548.85 L1555.26 1548.85 L1555.26 1540.7 L1539.65 1540.7 L1539.65 1536.19 L1554.03 1514.29 Z" fill="#000000" fill-rule="nonzero" fill-opacity="1" /><path clip-path="url(#clip140)" d="M1866.83 1514.29 L1885.18 1514.29 L1885.18 1518.22 L1871.11 1518.22 L1871.11 1526.7 Q1872.13 1526.35 1873.15 1526.19 Q1874.17 1526 1875.18 1526 Q1880.97 1526 1884.35 1529.17 Q1887.73 1532.34 1887.73 1537.76 Q1887.73 1543.34 1884.26 1546.44 Q1880.79 1549.52 1874.47 1549.52 Q1872.29 1549.52 1870.02 1549.15 Q1867.78 1548.78 1865.37 1548.04 L1865.37 1543.34 Q1867.45 1544.47 1869.67 1545.03 Q1871.9 1545.58 1874.37 1545.58 Q1878.38 1545.58 1880.72 1543.48 Q1883.05 1541.37 1883.05 1537.76 Q1883.05 1534.15 1880.72 1532.04 Q1878.38 1529.94 1874.37 1529.94 Q1872.5 1529.94 1870.62 1530.35 Q1868.77 1530.77 1866.83 1531.65 L1866.83 1514.29 Z" fill="#000000" fill-rule="nonzero" fill-opacity="1" /><path clip-path="url(#clip140)" d="M2201.26 1529.7 Q2198.11 1529.7 2196.26 1531.86 Q2194.43 1534.01 2194.43 1537.76 Q2194.43 1541.49 2196.26 1543.66 Q2198.11 1545.82 2201.26 1545.82 Q2204.41 1545.82 2206.23 1543.66 Q2208.09 1541.49 2208.09 1537.76 Q2208.09 1534.01 2206.23 1531.86 Q2204.41 1529.7 2201.26 1529.7 M2210.54 1515.05 L2210.54 1519.31 Q2208.78 1518.48 2206.98 1518.04 Q2205.19 1517.6 2203.43 1517.6 Q2198.8 1517.6 2196.35 1520.72 Q2193.92 1523.85 2193.57 1530.17 Q2194.94 1528.15 2197 1527.09 Q2199.06 1526 2201.54 1526 Q2206.74 1526 2209.75 1529.17 Q2212.79 1532.32 2212.79 1537.76 Q2212.79 1543.08 2209.64 1546.3 Q2206.49 1549.52 2201.26 1549.52 Q2195.26 1549.52 2192.09 1544.94 Q2188.92 1540.33 2188.92 1531.6 Q2188.92 1523.41 2192.81 1518.55 Q2196.7 1513.66 2203.25 1513.66 Q2205.01 1513.66 2206.79 1514.01 Q2208.6 1514.36 2210.54 1515.05 Z" fill="#000000" fill-rule="nonzero" fill-opacity="1" /><polyline clip-path="url(#clip140)" style="stroke:#000000; stroke-linecap:round; stroke-linejoin:round; stroke-width:4; stroke-opacity:1; fill:none" points="193.936,1486.45 193.936,47.2441 "/>
<polyline clip-path="url(#clip140)" style="stroke:#000000; stroke-linecap:round; stroke-linejoin:round; stroke-width:4; stroke-opacity:1; fill:none" points="193.936,1328.64 212.834,1328.64 "/>
<polyline clip-path="url(#clip140)" style="stroke:#000000; stroke-linecap:round; stroke-linejoin:round; stroke-width:4; stroke-opacity:1; fill:none" points="193.936,1042.95 212.834,1042.95 "/>
<polyline clip-path="url(#clip140)" style="stroke:#000000; stroke-linecap:round; stroke-linejoin:round; stroke-width:4; stroke-opacity:1; fill:none" points="193.936,757.265 212.834,757.265 "/>
<polyline clip-path="url(#clip140)" style="stroke:#000000; stroke-linecap:round; stroke-linejoin:round; stroke-width:4; stroke-opacity:1; fill:none" points="193.936,471.579 212.834,471.579 "/>
<polyline clip-path="url(#clip140)" style="stroke:#000000; stroke-linecap:round; stroke-linejoin:round; stroke-width:4; stroke-opacity:1; fill:none" points="193.936,185.893 212.834,185.893 "/>
<path clip-path="url(#clip140)" d="M50.9921 1329.09 L80.6679 1329.09 L80.6679 1333.02 L50.9921 1333.02 L50.9921 1329.09 Z" fill="#000000" fill-rule="nonzero" fill-opacity="1" /><path clip-path="url(#clip140)" d="M91.5706 1341.98 L99.2095 1341.98 L99.2095 1315.62 L90.8993 1317.28 L90.8993 1313.02 L99.1632 1311.36 L103.839 1311.36 L103.839 1341.98 L111.478 1341.98 L111.478 1345.92 L91.5706 1345.92 L91.5706 1341.98 Z" fill="#000000" fill-rule="nonzero" fill-opacity="1" /><path clip-path="url(#clip140)" d="M120.922 1340.04 L125.807 1340.04 L125.807 1345.92 L120.922 1345.92 L120.922 1340.04 Z" fill="#000000" fill-rule="nonzero" fill-opacity="1" /><path clip-path="url(#clip140)" d="M145.992 1314.44 Q142.381 1314.44 140.552 1318 Q138.746 1321.54 138.746 1328.67 Q138.746 1335.78 140.552 1339.34 Q142.381 1342.88 145.992 1342.88 Q149.626 1342.88 151.431 1339.34 Q153.26 1335.78 153.26 1328.67 Q153.26 1321.54 151.431 1318 Q149.626 1314.44 145.992 1314.44 M145.992 1310.73 Q151.802 1310.73 154.857 1315.34 Q157.936 1319.92 157.936 1328.67 Q157.936 1337.4 154.857 1342 Q151.802 1346.59 145.992 1346.59 Q140.181 1346.59 137.103 1342 Q134.047 1337.4 134.047 1328.67 Q134.047 1319.92 137.103 1315.34 Q140.181 1310.73 145.992 1310.73 Z" fill="#000000" fill-rule="nonzero" fill-opacity="1" /><path clip-path="url(#clip140)" d="M51.9875 1043.4 L81.6633 1043.4 L81.6633 1047.34 L51.9875 1047.34 L51.9875 1043.4 Z" fill="#000000" fill-rule="nonzero" fill-opacity="1" /><path clip-path="url(#clip140)" d="M101.756 1028.75 Q98.1447 1028.75 96.316 1032.31 Q94.5104 1035.86 94.5104 1042.99 Q94.5104 1050.09 96.316 1053.66 Q98.1447 1057.2 101.756 1057.2 Q105.39 1057.2 107.196 1053.66 Q109.024 1050.09 109.024 1042.99 Q109.024 1035.86 107.196 1032.31 Q105.39 1028.75 101.756 1028.75 M101.756 1025.05 Q107.566 1025.05 110.621 1029.65 Q113.7 1034.24 113.7 1042.99 Q113.7 1051.71 110.621 1056.32 Q107.566 1060.9 101.756 1060.9 Q95.9456 1060.9 92.8669 1056.32 Q89.8114 1051.71 89.8114 1042.99 Q89.8114 1034.24 92.8669 1029.65 Q95.9456 1025.05 101.756 1025.05 Z" fill="#000000" fill-rule="nonzero" fill-opacity="1" /><path clip-path="url(#clip140)" d="M121.918 1054.35 L126.802 1054.35 L126.802 1060.23 L121.918 1060.23 L121.918 1054.35 Z" fill="#000000" fill-rule="nonzero" fill-opacity="1" /><path clip-path="url(#clip140)" d="M137.033 1025.67 L155.39 1025.67 L155.39 1029.61 L141.316 1029.61 L141.316 1038.08 Q142.334 1037.73 143.353 1037.57 Q144.371 1037.38 145.39 1037.38 Q151.177 1037.38 154.556 1040.55 Q157.936 1043.73 157.936 1049.14 Q157.936 1054.72 154.464 1057.82 Q150.992 1060.9 144.672 1060.9 Q142.496 1060.9 140.228 1060.53 Q137.982 1060.16 135.575 1059.42 L135.575 1054.72 Q137.658 1055.86 139.881 1056.41 Q142.103 1056.97 144.58 1056.97 Q148.584 1056.97 150.922 1054.86 Q153.26 1052.75 153.26 1049.14 Q153.26 1045.53 150.922 1043.43 Q148.584 1041.32 144.58 1041.32 Q142.705 1041.32 140.83 1041.74 Q138.978 1042.15 137.033 1043.03 L137.033 1025.67 Z" fill="#000000" fill-rule="nonzero" fill-opacity="1" /><path clip-path="url(#clip140)" d="M100.76 743.064 Q97.1493 743.064 95.3206 746.628 Q93.515 750.17 93.515 757.3 Q93.515 764.406 95.3206 767.971 Q97.1493 771.512 100.76 771.512 Q104.395 771.512 106.2 767.971 Q108.029 764.406 108.029 757.3 Q108.029 750.17 106.2 746.628 Q104.395 743.064 100.76 743.064 M100.76 739.36 Q106.571 739.36 109.626 743.966 Q112.705 748.55 112.705 757.3 Q112.705 766.026 109.626 770.633 Q106.571 775.216 100.76 775.216 Q94.9502 775.216 91.8715 770.633 Q88.816 766.026 88.816 757.3 Q88.816 748.55 91.8715 743.966 Q94.9502 739.36 100.76 739.36 Z" fill="#000000" fill-rule="nonzero" fill-opacity="1" /><path clip-path="url(#clip140)" d="M120.922 768.665 L125.807 768.665 L125.807 774.545 L120.922 774.545 L120.922 768.665 Z" fill="#000000" fill-rule="nonzero" fill-opacity="1" /><path clip-path="url(#clip140)" d="M145.992 743.064 Q142.381 743.064 140.552 746.628 Q138.746 750.17 138.746 757.3 Q138.746 764.406 140.552 767.971 Q142.381 771.512 145.992 771.512 Q149.626 771.512 151.431 767.971 Q153.26 764.406 153.26 757.3 Q153.26 750.17 151.431 746.628 Q149.626 743.064 145.992 743.064 M145.992 739.36 Q151.802 739.36 154.857 743.966 Q157.936 748.55 157.936 757.3 Q157.936 766.026 154.857 770.633 Q151.802 775.216 145.992 775.216 Q140.181 775.216 137.103 770.633 Q134.047 766.026 134.047 757.3 Q134.047 748.55 137.103 743.966 Q140.181 739.36 145.992 739.36 Z" fill="#000000" fill-rule="nonzero" fill-opacity="1" /><path clip-path="url(#clip140)" d="M101.756 457.378 Q98.1447 457.378 96.316 460.943 Q94.5104 464.484 94.5104 471.614 Q94.5104 478.72 96.316 482.285 Q98.1447 485.827 101.756 485.827 Q105.39 485.827 107.196 482.285 Q109.024 478.72 109.024 471.614 Q109.024 464.484 107.196 460.943 Q105.39 457.378 101.756 457.378 M101.756 453.674 Q107.566 453.674 110.621 458.281 Q113.7 462.864 113.7 471.614 Q113.7 480.341 110.621 484.947 Q107.566 489.53 101.756 489.53 Q95.9456 489.53 92.8669 484.947 Q89.8114 480.341 89.8114 471.614 Q89.8114 462.864 92.8669 458.281 Q95.9456 453.674 101.756 453.674 Z" fill="#000000" fill-rule="nonzero" fill-opacity="1" /><path clip-path="url(#clip140)" d="M121.918 482.979 L126.802 482.979 L126.802 488.859 L121.918 488.859 L121.918 482.979 Z" fill="#000000" fill-rule="nonzero" fill-opacity="1" /><path clip-path="url(#clip140)" d="M137.033 454.299 L155.39 454.299 L155.39 458.234 L141.316 458.234 L141.316 466.706 Q142.334 466.359 143.353 466.197 Q144.371 466.012 145.39 466.012 Q151.177 466.012 154.556 469.183 Q157.936 472.355 157.936 477.771 Q157.936 483.35 154.464 486.452 Q150.992 489.53 144.672 489.53 Q142.496 489.53 140.228 489.16 Q137.982 488.79 135.575 488.049 L135.575 483.35 Q137.658 484.484 139.881 485.04 Q142.103 485.595 144.58 485.595 Q148.584 485.595 150.922 483.489 Q153.26 481.382 153.26 477.771 Q153.26 474.16 150.922 472.054 Q148.584 469.947 144.58 469.947 Q142.705 469.947 140.83 470.364 Q138.978 470.78 137.033 471.66 L137.033 454.299 Z" fill="#000000" fill-rule="nonzero" fill-opacity="1" /><path clip-path="url(#clip140)" d="M91.5706 199.238 L99.2095 199.238 L99.2095 172.872 L90.8993 174.539 L90.8993 170.28 L99.1632 168.613 L103.839 168.613 L103.839 199.238 L111.478 199.238 L111.478 203.173 L91.5706 203.173 L91.5706 199.238 Z" fill="#000000" fill-rule="nonzero" fill-opacity="1" /><path clip-path="url(#clip140)" d="M120.922 197.294 L125.807 197.294 L125.807 203.173 L120.922 203.173 L120.922 197.294 Z" fill="#000000" fill-rule="nonzero" fill-opacity="1" /><path clip-path="url(#clip140)" d="M145.992 171.692 Q142.381 171.692 140.552 175.257 Q138.746 178.798 138.746 185.928 Q138.746 193.034 140.552 196.599 Q142.381 200.141 145.992 200.141 Q149.626 200.141 151.431 196.599 Q153.26 193.034 153.26 185.928 Q153.26 178.798 151.431 175.257 Q149.626 171.692 145.992 171.692 M145.992 167.988 Q151.802 167.988 154.857 172.595 Q157.936 177.178 157.936 185.928 Q157.936 194.655 154.857 199.261 Q151.802 203.845 145.992 203.845 Q140.181 203.845 137.103 199.261 Q134.047 194.655 134.047 185.928 Q134.047 177.178 137.103 172.595 Q140.181 167.988 145.992 167.988 Z" fill="#000000" fill-rule="nonzero" fill-opacity="1" /><polyline clip-path="url(#clip142)" style="stroke:#009af9; stroke-linecap:round; stroke-linejoin:round; stroke-width:4; stroke-opacity:1; fill:none" points="255.035,757.265 258.278,751.551 261.521,745.838 264.764,740.126 268.007,734.416 271.25,728.708 274.493,723.003 277.736,717.302 280.979,711.604 284.222,705.911 287.465,700.223 290.708,694.541 293.951,688.865 297.194,683.196 300.437,677.534 303.68,671.88 306.923,666.235 310.166,660.599 313.409,654.972 316.652,649.356 319.895,643.751 323.138,638.157 326.381,632.575 329.624,627.005 332.867,621.448 336.11,615.905 339.353,610.376 342.596,604.862 345.84,599.363 349.083,593.88 352.326,588.413 355.569,582.963 358.812,577.53 362.055,572.116 365.298,566.72 368.541,561.343 371.784,555.985 375.027,550.648 378.27,545.331 381.513,540.036 384.756,534.762 387.999,529.511 391.242,524.282 394.485,519.077 397.728,513.895 400.971,508.738 404.214,503.606 407.457,498.498 410.7,493.417 413.943,488.363 417.186,483.335 420.429,478.334 423.672,473.362 426.915,468.417 430.158,463.502 433.401,458.616 436.644,453.76 439.887,448.934 443.13,444.14 446.373,439.376 449.616,434.644 452.859,429.945 456.103,425.278 459.346,420.644 462.589,416.044 465.832,411.479 469.075,406.947 472.318,402.451 475.561,397.99 478.804,393.566 482.047,389.177 485.29,384.826 488.533,380.511 491.776,376.234 495.019,371.996 498.262,367.796 501.505,363.635 504.748,359.513 507.991,355.431 511.234,351.389 514.477,347.388 517.72,343.428 520.963,339.509 524.206,335.632 527.449,331.797 530.692,328.005 533.935,324.255 537.178,320.549 540.421,316.887 543.664,313.268 546.907,309.694 550.15,306.165 553.393,302.681 556.636,299.242 559.879,295.849 563.122,292.502 566.366,289.202 569.609,285.949 572.852,282.742 576.095,279.583 579.338,276.472 582.581,273.409 585.824,270.395 589.067,267.429 592.31,264.512 595.553,261.644 598.796,258.826 602.039,256.057 605.282,253.339 608.525,250.671 611.768,248.054 615.011,245.488 618.254,242.973 621.497,240.509 624.74,238.097 627.983,235.737 631.226,233.43 634.469,231.174 637.712,228.971 640.955,226.821 644.198,224.724 647.441,222.68 650.684,220.69 653.927,218.754 657.17,216.871 660.413,215.042 663.656,213.267 666.899,211.547 670.142,209.882 673.385,208.271 676.629,206.715 679.872,205.214 683.115,203.769 686.358,202.378 689.601,201.043 692.844,199.764 696.087,198.541 699.33,197.373 702.573,196.262 705.816,195.206 709.059,194.207 712.302,193.264 715.545,192.377 718.788,191.547 722.031,190.774 725.274,190.057 728.517,189.397 731.76,188.793 735.003,188.247 738.246,187.757 741.489,187.325 744.732,186.949 747.975,186.63 751.218,186.369 754.461,186.164 757.704,186.017 760.947,185.927 764.19,185.893 767.433,185.917 770.676,185.999 773.919,186.137 777.162,186.332 780.405,186.585 783.648,186.894 786.892,187.261 790.135,187.684 793.378,188.165 796.621,188.702 799.864,189.297 803.107,189.948 806.35,190.656 809.593,191.42 812.836,192.241 816.079,193.119 819.322,194.053 822.565,195.043 825.808,196.09 829.051,197.192 832.294,198.351 835.537,199.566 838.78,200.836 842.023,202.162 845.266,203.543 848.509,204.98 851.752,206.472 854.995,208.019 858.238,209.622 861.481,211.278 864.724,212.99 867.967,214.756 871.21,216.576 874.453,218.45 877.696,220.378 880.939,222.36 884.182,224.395 887.425,226.484 890.668,228.625 893.911,230.82 897.155,233.067 900.398,235.366 903.641,237.718 906.884,240.122 910.127,242.577 913.37,245.084 916.613,247.642 919.856,250.251 923.099,252.911 926.342,255.621 929.585,258.381 932.828,261.192 936.071,264.052 939.314,266.961 942.557,269.919 945.8,272.926 949.043,275.981 952.286,279.085 955.529,282.236 958.772,285.435 962.015,288.681 965.258,291.974 968.501,295.313 971.744,298.699 974.987,302.13 978.23,305.607 981.473,309.129 984.716,312.696 987.959,316.307 991.202,319.963 994.445,323.662 997.688,327.405 1000.93,331.19 1004.17,335.018 1007.42,338.889 1010.66,342.801 1013.9,346.754 1017.15,350.749 1020.39,354.785 1023.63,358.86 1026.88,362.976 1030.12,367.13 1033.36,371.324 1036.6,375.557 1039.85,379.828 1043.09,384.136 1046.33,388.482 1049.58,392.864 1052.82,397.283 1056.06,401.738 1059.31,406.229 1062.55,410.755 1065.79,415.315 1069.04,419.909 1072.28,424.538 1075.52,429.199 1078.76,433.894 1082.01,438.62 1085.25,443.379 1088.49,448.169 1091.74,452.99 1094.98,457.841 1098.22,462.722 1101.47,467.633 1104.71,472.572 1107.95,477.54 1111.19,482.536 1114.44,487.56 1117.68,492.611 1120.92,497.687 1124.17,502.79 1127.41,507.919 1130.65,513.072 1133.9,518.25 1137.14,523.452 1140.38,528.677 1143.62,533.924 1146.87,539.195 1150.11,544.487 1153.35,549.8 1156.6,555.134 1159.84,560.488 1163.08,565.862 1166.33,571.255 1169.57,576.667 1172.81,582.097 1176.06,587.544 1179.3,593.008 1182.54,598.489 1185.78,603.985 1189.03,609.497 1192.27,615.024 1195.51,620.565 1198.76,626.119 1202,631.687 1205.24,637.267 1208.49,642.859 1211.73,648.463 1214.97,654.077 1218.21,659.702 1221.46,665.337 1224.7,670.98 1227.94,676.633 1231.19,682.293 1234.43,687.961 1237.67,693.636 1240.92,699.318 1244.16,705.005 1247.4,710.697 1250.64,716.394 1253.89,722.095 1257.13,727.799 1260.37,733.507 1263.62,739.217 1266.86,744.928 1270.1,750.641 1273.35,756.355 1276.59,762.069 1279.83,767.782 1283.08,773.494 1286.32,779.204 1289.56,784.913 1292.8,790.618 1296.05,796.32 1299.29,802.019 1302.53,807.713 1305.78,813.401 1309.02,819.084 1312.26,824.761 1315.51,830.432 1318.75,836.095 1321.99,841.75 1325.23,847.396 1328.48,853.034 1331.72,858.662 1334.96,864.28 1338.21,869.887 1341.45,875.483 1344.69,881.067 1347.94,886.639 1351.18,892.197 1354.42,897.743 1357.66,903.274 1360.91,908.79 1364.15,914.292 1367.39,919.778 1370.64,925.247 1373.88,930.7 1377.12,936.135 1380.37,941.553 1383.61,946.952 1386.85,952.332 1390.1,957.692 1393.34,963.033 1396.58,968.353 1399.82,973.652 1403.07,978.929 1406.31,984.184 1409.55,989.416 1412.8,994.626 1416.04,999.811 1419.28,1004.97 1422.53,1010.11 1425.77,1015.22 1429.01,1020.3 1432.25,1025.36 1435.5,1030.4 1438.74,1035.4 1441.98,1040.38 1445.23,1045.33 1448.47,1050.25 1451.71,1055.14 1454.96,1060 1458.2,1064.83 1461.44,1069.63 1464.68,1074.4 1467.93,1079.13 1471.17,1083.84 1474.41,1088.51 1477.66,1093.15 1480.9,1097.76 1484.14,1102.33 1487.39,1106.86 1490.63,1111.36 1493.87,1115.83 1497.11,1120.26 1500.36,1124.66 1503.6,1129.01 1506.84,1133.33 1510.09,1137.62 1513.33,1141.86 1516.57,1146.07 1519.82,1150.23 1523.06,1154.36 1526.3,1158.45 1529.55,1162.5 1532.79,1166.51 1536.03,1170.47 1539.27,1174.4 1542.52,1178.28 1545.76,1182.12 1549,1185.92 1552.25,1189.68 1555.49,1193.39 1558.73,1197.06 1561.98,1200.69 1565.22,1204.27 1568.46,1207.81 1571.7,1211.3 1574.95,1214.74 1578.19,1218.14 1581.43,1221.5 1584.68,1224.81 1587.92,1228.07 1591.16,1231.28 1594.41,1234.45 1597.65,1237.57 1600.89,1240.64 1604.13,1243.66 1607.38,1246.63 1610.62,1249.56 1613.86,1252.43 1617.11,1255.26 1620.35,1258.03 1623.59,1260.76 1626.84,1263.44 1630.08,1266.06 1633.32,1268.64 1636.57,1271.16 1639.81,1273.63 1643.05,1276.05 1646.29,1278.42 1649.54,1280.74 1652.78,1283 1656.02,1285.21 1659.27,1287.37 1662.51,1289.48 1665.75,1291.53 1669,1293.53 1672.24,1295.47 1675.48,1297.36 1678.72,1299.2 1681.97,1300.98 1685.21,1302.71 1688.45,1304.39 1691.7,1306.01 1694.94,1307.57 1698.18,1309.08 1701.43,1310.53 1704.67,1311.93 1707.91,1313.28 1711.15,1314.57 1714.4,1315.8 1717.64,1316.97 1720.88,1318.09 1724.13,1319.16 1727.37,1320.17 1730.61,1321.12 1733.86,1322.01 1737.1,1322.85 1740.34,1323.64 1743.59,1324.36 1746.83,1325.03 1750.07,1325.64 1753.31,1326.2 1756.56,1326.7 1759.8,1327.14 1763.04,1327.52 1766.29,1327.85 1769.53,1328.12 1772.77,1328.34 1776.02,1328.49 1779.26,1328.59 1782.5,1328.63 1785.74,1328.62 1788.99,1328.55 1792.23,1328.42 1795.47,1328.23 1798.72,1327.99 1801.96,1327.69 1805.2,1327.33 1808.45,1326.92 1811.69,1326.45 1814.93,1325.92 1818.17,1325.33 1821.42,1324.69 1824.66,1323.99 1827.9,1323.24 1831.15,1322.42 1834.39,1321.55 1837.63,1320.63 1840.88,1319.65 1844.12,1318.61 1847.36,1317.52 1850.61,1316.37 1853.85,1315.16 1857.09,1313.9 1860.33,1312.58 1863.58,1311.21 1866.82,1309.78 1870.06,1308.3 1873.31,1306.76 1876.55,1305.17 1879.79,1303.52 1883.04,1301.82 1886.28,1300.06 1889.52,1298.25 1892.76,1296.38 1896.01,1294.46 1899.25,1292.49 1902.49,1290.46 1905.74,1288.38 1908.98,1286.25 1912.22,1284.06 1915.47,1281.82 1918.71,1279.53 1921.95,1277.19 1925.19,1274.79 1928.44,1272.35 1931.68,1269.85 1934.92,1267.3 1938.17,1264.7 1941.41,1262.05 1944.65,1259.34 1947.9,1256.59 1951.14,1253.79 1954.38,1250.94 1957.63,1248.04 1960.87,1245.09 1964.11,1242.09 1967.35,1239.04 1970.6,1235.94 1973.84,1232.8 1977.08,1229.61 1980.33,1226.37 1983.57,1223.08 1986.81,1219.75 1990.06,1216.37 1993.3,1212.95 1996.54,1209.48 1999.78,1205.96 2003.03,1202.4 2006.27,1198.8 2009.51,1195.15 2012.76,1191.46 2016,1187.72 2019.24,1183.95 2022.49,1180.12 2025.73,1176.26 2028.97,1172.35 2032.21,1168.41 2035.46,1164.42 2038.7,1160.39 2041.94,1156.32 2045.19,1152.21 2048.43,1148.06 2051.67,1143.88 2054.92,1139.65 2058.16,1135.38 2061.4,1131.08 2064.65,1126.74 2067.89,1122.37 2071.13,1117.95 2074.37,1113.5 2077.62,1109.02 2080.86,1104.5 2084.1,1099.94 2087.35,1095.35 2090.59,1090.73 2093.83,1086.08 2097.08,1081.39 2100.32,1076.66 2103.56,1071.91 2106.8,1067.13 2110.05,1062.31 2113.29,1057.46 2116.53,1052.59 2119.78,1047.68 2123.02,1042.75 2126.26,1037.78 2129.51,1032.79 2132.75,1027.77 2135.99,1022.73 2139.23,1017.65 2142.48,1012.55 2145.72,1007.43 2148.96,1002.28 2152.21,997.106 2155.45,991.908 2158.69,986.687 2161.94,981.443 2165.18,976.176 2168.42,970.887 2171.67,965.577 2174.91,960.247 2178.15,954.896 2181.39,949.525 2184.64,944.135 2187.88,938.726 2191.12,933.299 2194.37,927.855 2197.61,922.393 2200.85,916.915 2204.1,911.421 2207.34,905.911 2210.58,900.387 2213.82,894.849 2217.07,889.296 2220.31,883.731 2223.55,878.152 2226.8,872.562 2230.04,866.96 2233.28,861.347 2236.53,855.724 2239.77,850.091 2243.01,844.449 2246.25,838.798 2249.5,833.138 2252.74,827.472 2255.98,821.798 2259.23,816.117 2262.47,810.431 2265.71,804.74 2268.96,799.044 2272.2,793.343 2275.44,787.639 2278.69,781.932 2281.93,776.223 2285.17,770.511 2288.41,764.798 2291.66,759.085 "/>
<circle clip-path="url(#clip142)" cx="255.035" cy="739.178" r="14.4" fill="#e26f46" fill-rule="evenodd" fill-opacity="1" stroke="#000000" stroke-opacity="1" stroke-width="3.2"/>
<circle clip-path="url(#clip142)" cx="475.561" cy="486.163" r="14.4" fill="#e26f46" fill-rule="evenodd" fill-opacity="1" stroke="#000000" stroke-opacity="1" stroke-width="3.2"/>
<circle clip-path="url(#clip142)" cx="1714.4" cy="1188.25" r="14.4" fill="#e26f46" fill-rule="evenodd" fill-opacity="1" stroke="#000000" stroke-opacity="1" stroke-width="3.2"/>
<circle clip-path="url(#clip142)" cx="1973.84" cy="1292.21" r="14.4" fill="#e26f46" fill-rule="evenodd" fill-opacity="1" stroke="#000000" stroke-opacity="1" stroke-width="3.2"/>
<circle clip-path="url(#clip142)" cx="916.613" cy="130.902" r="14.4" fill="#e26f46" fill-rule="evenodd" fill-opacity="1" stroke="#000000" stroke-opacity="1" stroke-width="3.2"/>
<circle clip-path="url(#clip142)" cx="819.322" cy="246.049" r="14.4" fill="#e26f46" fill-rule="evenodd" fill-opacity="1" stroke="#000000" stroke-opacity="1" stroke-width="3.2"/>
<circle clip-path="url(#clip142)" cx="780.405" cy="312.254" r="14.4" fill="#e26f46" fill-rule="evenodd" fill-opacity="1" stroke="#000000" stroke-opacity="1" stroke-width="3.2"/>
<circle clip-path="url(#clip142)" cx="799.864" cy="209.875" r="14.4" fill="#e26f46" fill-rule="evenodd" fill-opacity="1" stroke="#000000" stroke-opacity="1" stroke-width="3.2"/>
<circle clip-path="url(#clip142)" cx="796.621" cy="87.9763" r="14.4" fill="#e26f46" fill-rule="evenodd" fill-opacity="1" stroke="#000000" stroke-opacity="1" stroke-width="3.2"/>
<circle clip-path="url(#clip142)" cx="2233.28" cy="927.112" r="14.4" fill="#e26f46" fill-rule="evenodd" fill-opacity="1" stroke="#000000" stroke-opacity="1" stroke-width="3.2"/>
<circle clip-path="url(#clip142)" cx="1023.63" cy="345.337" r="14.4" fill="#e26f46" fill-rule="evenodd" fill-opacity="1" stroke="#000000" stroke-opacity="1" stroke-width="3.2"/>
<circle clip-path="url(#clip142)" cx="1130.65" cy="638.285" r="14.4" fill="#e26f46" fill-rule="evenodd" fill-opacity="1" stroke="#000000" stroke-opacity="1" stroke-width="3.2"/>
<circle clip-path="url(#clip142)" cx="1412.8" cy="936.461" r="14.4" fill="#e26f46" fill-rule="evenodd" fill-opacity="1" stroke="#000000" stroke-opacity="1" stroke-width="3.2"/>
<circle clip-path="url(#clip142)" cx="2288.41" cy="768.203" r="14.4" fill="#e26f46" fill-rule="evenodd" fill-opacity="1" stroke="#000000" stroke-opacity="1" stroke-width="3.2"/>
<circle clip-path="url(#clip142)" cx="718.788" cy="185.709" r="14.4" fill="#e26f46" fill-rule="evenodd" fill-opacity="1" stroke="#000000" stroke-opacity="1" stroke-width="3.2"/>
<circle clip-path="url(#clip142)" cx="258.278" cy="768.19" r="14.4" fill="#e26f46" fill-rule="evenodd" fill-opacity="1" stroke="#000000" stroke-opacity="1" stroke-width="3.2"/>
<circle clip-path="url(#clip142)" cx="1724.13" cy="1445.72" r="14.4" fill="#e26f46" fill-rule="evenodd" fill-opacity="1" stroke="#000000" stroke-opacity="1" stroke-width="3.2"/>
<circle clip-path="url(#clip142)" cx="1156.6" cy="471.449" r="14.4" fill="#e26f46" fill-rule="evenodd" fill-opacity="1" stroke="#000000" stroke-opacity="1" stroke-width="3.2"/>
<circle clip-path="url(#clip142)" cx="530.692" cy="392.967" r="14.4" fill="#e26f46" fill-rule="evenodd" fill-opacity="1" stroke="#000000" stroke-opacity="1" stroke-width="3.2"/>
<circle clip-path="url(#clip142)" cx="932.828" cy="298.456" r="14.4" fill="#e26f46" fill-rule="evenodd" fill-opacity="1" stroke="#000000" stroke-opacity="1" stroke-width="3.2"/>
<path clip-path="url(#clip140)" d="M1953.46 250.738 L2280.8 250.738 L2280.8 95.2176 L1953.46 95.2176  Z" fill="#ffffff" fill-rule="evenodd" fill-opacity="1"/>
<polyline clip-path="url(#clip140)" style="stroke:#000000; stroke-linecap:round; stroke-linejoin:round; stroke-width:4; stroke-opacity:1; fill:none" points="1953.46,250.738 2280.8,250.738 2280.8,95.2176 1953.46,95.2176 1953.46,250.738 "/>
<polyline clip-path="url(#clip140)" style="stroke:#009af9; stroke-linecap:round; stroke-linejoin:round; stroke-width:4; stroke-opacity:1; fill:none" points="1977.44,147.058 2121.36,147.058 "/>
<path clip-path="url(#clip140)" d="M2152.76 131.051 L2152.76 138.412 L2161.53 138.412 L2161.53 141.722 L2152.76 141.722 L2152.76 155.796 Q2152.76 158.967 2153.61 159.87 Q2154.49 160.773 2157.16 160.773 L2161.53 160.773 L2161.53 164.338 L2157.16 164.338 Q2152.23 164.338 2150.35 162.509 Q2148.48 160.657 2148.48 155.796 L2148.48 141.722 L2145.35 141.722 L2145.35 138.412 L2148.48 138.412 L2148.48 131.051 L2152.76 131.051 Z" fill="#000000" fill-rule="nonzero" fill-opacity="1" /><path clip-path="url(#clip140)" d="M2182.16 142.393 Q2181.44 141.977 2180.58 141.791 Q2179.75 141.583 2178.73 141.583 Q2175.12 141.583 2173.17 143.944 Q2171.25 146.282 2171.25 150.68 L2171.25 164.338 L2166.97 164.338 L2166.97 138.412 L2171.25 138.412 L2171.25 142.44 Q2172.6 140.078 2174.75 138.944 Q2176.9 137.787 2179.98 137.787 Q2180.42 137.787 2180.95 137.856 Q2181.48 137.903 2182.13 138.018 L2182.16 142.393 Z" fill="#000000" fill-rule="nonzero" fill-opacity="1" /><path clip-path="url(#clip140)" d="M2186.18 154.106 L2186.18 138.412 L2190.44 138.412 L2190.44 153.944 Q2190.44 157.625 2191.88 159.476 Q2193.31 161.305 2196.18 161.305 Q2199.63 161.305 2201.62 159.106 Q2203.64 156.907 2203.64 153.111 L2203.64 138.412 L2207.9 138.412 L2207.9 164.338 L2203.64 164.338 L2203.64 160.356 Q2202.09 162.717 2200.03 163.875 Q2197.99 165.009 2195.28 165.009 Q2190.81 165.009 2188.5 162.231 Q2186.18 159.453 2186.18 154.106 M2196.9 137.787 L2196.9 137.787 Z" fill="#000000" fill-rule="nonzero" fill-opacity="1" /><path clip-path="url(#clip140)" d="M2220.88 131.051 L2220.88 138.412 L2229.66 138.412 L2229.66 141.722 L2220.88 141.722 L2220.88 155.796 Q2220.88 158.967 2221.74 159.87 Q2222.62 160.773 2225.28 160.773 L2229.66 160.773 L2229.66 164.338 L2225.28 164.338 Q2220.35 164.338 2218.48 162.509 Q2216.6 160.657 2216.6 155.796 L2216.6 141.722 L2213.48 141.722 L2213.48 138.412 L2216.6 138.412 L2216.6 131.051 L2220.88 131.051 Z" fill="#000000" fill-rule="nonzero" fill-opacity="1" /><path clip-path="url(#clip140)" d="M2256.81 148.689 L2256.81 164.338 L2252.55 164.338 L2252.55 148.828 Q2252.55 145.148 2251.11 143.319 Q2249.68 141.49 2246.81 141.49 Q2243.36 141.49 2241.37 143.69 Q2239.38 145.889 2239.38 149.685 L2239.38 164.338 L2235.1 164.338 L2235.1 128.319 L2239.38 128.319 L2239.38 142.44 Q2240.91 140.102 2242.97 138.944 Q2245.05 137.787 2247.76 137.787 Q2252.23 137.787 2254.52 140.565 Q2256.81 143.319 2256.81 148.689 Z" fill="#000000" fill-rule="nonzero" fill-opacity="1" /><circle clip-path="url(#clip140)" cx="2049.4" cy="198.898" r="20.48" fill="#e26f46" fill-rule="evenodd" fill-opacity="1" stroke="#000000" stroke-opacity="1" stroke-width="4.55111"/>
<path clip-path="url(#clip140)" d="M2164.26 194.187 L2164.26 180.159 L2168.52 180.159 L2168.52 216.178 L2164.26 216.178 L2164.26 212.289 Q2162.92 214.603 2160.86 215.738 Q2158.82 216.849 2155.95 216.849 Q2151.25 216.849 2148.29 213.099 Q2145.35 209.349 2145.35 203.238 Q2145.35 197.127 2148.29 193.377 Q2151.25 189.627 2155.95 189.627 Q2158.82 189.627 2160.86 190.761 Q2162.92 191.872 2164.26 194.187 M2149.75 203.238 Q2149.75 207.937 2151.67 210.622 Q2153.61 213.284 2156.99 213.284 Q2160.37 213.284 2162.32 210.622 Q2164.26 207.937 2164.26 203.238 Q2164.26 198.539 2162.32 195.877 Q2160.37 193.192 2156.99 193.192 Q2153.61 193.192 2151.67 195.877 Q2149.75 198.539 2149.75 203.238 Z" fill="#000000" fill-rule="nonzero" fill-opacity="1" /><path clip-path="url(#clip140)" d="M2189.08 203.145 Q2183.92 203.145 2181.92 204.326 Q2179.93 205.506 2179.93 208.354 Q2179.93 210.622 2181.42 211.965 Q2182.92 213.284 2185.49 213.284 Q2189.03 213.284 2191.16 210.784 Q2193.31 208.261 2193.31 204.094 L2193.31 203.145 L2189.08 203.145 M2197.57 201.386 L2197.57 216.178 L2193.31 216.178 L2193.31 212.242 Q2191.85 214.603 2189.68 215.738 Q2187.5 216.849 2184.36 216.849 Q2180.37 216.849 2178.01 214.627 Q2175.67 212.381 2175.67 208.631 Q2175.67 204.256 2178.59 202.034 Q2181.53 199.812 2187.34 199.812 L2193.31 199.812 L2193.31 199.395 Q2193.31 196.455 2191.37 194.858 Q2189.45 193.238 2185.95 193.238 Q2183.73 193.238 2181.62 193.77 Q2179.52 194.303 2177.57 195.367 L2177.57 191.432 Q2179.91 190.53 2182.11 190.09 Q2184.31 189.627 2186.39 189.627 Q2192.02 189.627 2194.79 192.543 Q2197.57 195.46 2197.57 201.386 Z" fill="#000000" fill-rule="nonzero" fill-opacity="1" /><path clip-path="url(#clip140)" d="M2210.56 182.891 L2210.56 190.252 L2219.33 190.252 L2219.33 193.562 L2210.56 193.562 L2210.56 207.636 Q2210.56 210.807 2211.42 211.71 Q2212.29 212.613 2214.96 212.613 L2219.33 212.613 L2219.33 216.178 L2214.96 216.178 Q2210.03 216.178 2208.15 214.349 Q2206.28 212.497 2206.28 207.636 L2206.28 193.562 L2203.15 193.562 L2203.15 190.252 L2206.28 190.252 L2206.28 182.891 L2210.56 182.891 Z" fill="#000000" fill-rule="nonzero" fill-opacity="1" /><path clip-path="url(#clip140)" d="M2236.72 203.145 Q2231.55 203.145 2229.56 204.326 Q2227.57 205.506 2227.57 208.354 Q2227.57 210.622 2229.05 211.965 Q2230.56 213.284 2233.13 213.284 Q2236.67 213.284 2238.8 210.784 Q2240.95 208.261 2240.95 204.094 L2240.95 203.145 L2236.72 203.145 M2245.21 201.386 L2245.21 216.178 L2240.95 216.178 L2240.95 212.242 Q2239.49 214.603 2237.32 215.738 Q2235.14 216.849 2231.99 216.849 Q2228.01 216.849 2225.65 214.627 Q2223.31 212.381 2223.31 208.631 Q2223.31 204.256 2226.23 202.034 Q2229.17 199.812 2234.98 199.812 L2240.95 199.812 L2240.95 199.395 Q2240.95 196.455 2239.01 194.858 Q2237.09 193.238 2233.59 193.238 Q2231.37 193.238 2229.26 193.77 Q2227.16 194.303 2225.21 195.367 L2225.21 191.432 Q2227.55 190.53 2229.75 190.09 Q2231.95 189.627 2234.03 189.627 Q2239.66 189.627 2242.43 192.543 Q2245.21 195.46 2245.21 201.386 Z" fill="#000000" fill-rule="nonzero" fill-opacity="1" /></svg>
