<?xml version="1.0" encoding="utf-8"?>
<svg xmlns="http://www.w3.org/2000/svg" xmlns:xlink="http://www.w3.org/1999/xlink" width="600" height="400" viewBox="0 0 2400 1600">
<defs>
  <clipPath id="clip560">
    <rect x="0" y="0" width="2400" height="1600"/>
  </clipPath>
</defs>
<path clip-path="url(#clip560)" d="M0 1600 L2400 1600 L2400 0 L0 0  Z" fill="#ffffff" fill-rule="evenodd" fill-opacity="1"/>
<defs>
  <clipPath id="clip561">
    <rect x="480" y="0" width="1681" height="1600"/>
  </clipPath>
</defs>
<path clip-path="url(#clip560)" d="M193.936 1486.45 L2352.76 1486.45 L2352.76 47.2441 L193.936 47.2441  Z" fill="#ffffff" fill-rule="evenodd" fill-opacity="1"/>
<defs>
  <clipPath id="clip562">
    <rect x="193" y="47" width="2160" height="1440"/>
  </clipPath>
</defs>
<polyline clip-path="url(#clip562)" style="stroke:#000000; stroke-linecap:round; stroke-linejoin:round; stroke-width:2; stroke-opacity:0.1; fill:none" points="255.035,1486.45 255.035,47.2441 "/>
<polyline clip-path="url(#clip562)" style="stroke:#000000; stroke-linecap:round; stroke-linejoin:round; stroke-width:2; stroke-opacity:0.1; fill:none" points="579.338,1486.45 579.338,47.2441 "/>
<polyline clip-path="url(#clip562)" style="stroke:#000000; stroke-linecap:round; stroke-linejoin:round; stroke-width:2; stroke-opacity:0.1; fill:none" points="903.641,1486.45 903.641,47.2441 "/>
<polyline clip-path="url(#clip562)" style="stroke:#000000; stroke-linecap:round; stroke-linejoin:round; stroke-width:2; stroke-opacity:0.1; fill:none" points="1227.94,1486.45 1227.94,47.2441 "/>
<polyline clip-path="url(#clip562)" style="stroke:#000000; stroke-linecap:round; stroke-linejoin:round; stroke-width:2; stroke-opacity:0.1; fill:none" points="1552.25,1486.45 1552.25,47.2441 "/>
<polyline clip-path="url(#clip562)" style="stroke:#000000; stroke-linecap:round; stroke-linejoin:round; stroke-width:2; stroke-opacity:0.1; fill:none" points="1876.55,1486.45 1876.55,47.2441 "/>
<polyline clip-path="url(#clip562)" style="stroke:#000000; stroke-linecap:round; stroke-linejoin:round; stroke-width:2; stroke-opacity:0.1; fill:none" points="2200.85,1486.45 2200.85,47.2441 "/>
<polyline clip-path="url(#clip562)" style="stroke:#000000; stroke-linecap:round; stroke-linejoin:round; stroke-width:2; stroke-opacity:0.1; fill:none" points="193.936,1267.23 2352.76,1267.23 "/>
<polyline clip-path="url(#clip562)" style="stroke:#000000; stroke-linecap:round; stroke-linejoin:round; stroke-width:2; stroke-opacity:0.1; fill:none" points="193.936,1019.08 2352.76,1019.08 "/>
<polyline clip-path="url(#clip562)" style="stroke:#000000; stroke-linecap:round; stroke-linejoin:round; stroke-width:2; stroke-opacity:0.1; fill:none" points="193.936,770.934 2352.76,770.934 "/>
<polyline clip-path="url(#clip562)" style="stroke:#000000; stroke-linecap:round; stroke-linejoin:round; stroke-width:2; stroke-opacity:0.1; fill:none" points="193.936,522.788 2352.76,522.788 "/>
<polyline clip-path="url(#clip562)" style="stroke:#000000; stroke-linecap:round; stroke-linejoin:round; stroke-width:2; stroke-opacity:0.1; fill:none" points="193.936,274.641 2352.76,274.641 "/>
<polyline clip-path="url(#clip560)" style="stroke:#000000; stroke-linecap:round; stroke-linejoin:round; stroke-width:4; stroke-opacity:1; fill:none" points="193.936,1486.45 2352.76,1486.45 "/>
<polyline clip-path="url(#clip560)" style="stroke:#000000; stroke-linecap:round; stroke-linejoin:round; stroke-width:4; stroke-opacity:1; fill:none" points="255.035,1486.45 255.035,1467.55 "/>
<polyline clip-path="url(#clip560)" style="stroke:#000000; stroke-linecap:round; stroke-linejoin:round; stroke-width:4; stroke-opacity:1; fill:none" points="579.338,1486.45 579.338,1467.55 "/>
<polyline clip-path="url(#clip560)" style="stroke:#000000; stroke-linecap:round; stroke-linejoin:round; stroke-width:4; stroke-opacity:1; fill:none" points="903.641,1486.45 903.641,1467.55 "/>
<polyline clip-path="url(#clip560)" style="stroke:#000000; stroke-linecap:round; stroke-linejoin:round; stroke-width:4; stroke-opacity:1; fill:none" points="1227.94,1486.45 1227.94,1467.55 "/>
<polyline clip-path="url(#clip560)" style="stroke:#000000; stroke-linecap:round; stroke-linejoin:round; stroke-width:4; stroke-opacity:1; fill:none" points="1552.25,1486.45 1552.25,1467.55 "/>
<polyline clip-path="url(#clip560)" style="stroke:#000000; stroke-linecap:round; stroke-linejoin:round; stroke-width:4; stroke-opacity:1; fill:none" points="1876.55,1486.45 1876.55,1467.55 "/>
<polyline clip-path="url(#clip560)" style="stroke:#000000; stroke-linecap:round; stroke-linejoin:round; stroke-width:4; stroke-opacity:1; fill:none" points="2200.85,1486.45 2200.85,1467.55 "/>
<path clip-path="url(#clip560)" d="M255.035 1517.37 Q251.424 1517.37 249.595 1520.93 Q247.789 1524.47 247.789 1531.6 Q247.789 1538.71 249.595 1542.27 Q251.424 1545.82 255.035 1545.82 Q258.669 1545.82 260.474 1542.27 Q262.303 1538.71 262.303 1531.6 Q262.303 1524.47 260.474 1520.93 Q258.669 1517.37 255.035 1517.37 M255.035 1513.66 Q260.845 1513.66 263.9 1518.27 Q266.979 1522.85 266.979 1531.6 Q266.979 1540.33 263.9 1544.94 Q260.845 1549.52 255.035 1549.52 Q249.225 1549.52 246.146 1544.94 Q243.09 1540.33 243.09 1531.6 Q243.09 1522.85 246.146 1518.27 Q249.225 1513.66 255.035 1513.66 Z" fill="#000000" fill-rule="nonzero" fill-opacity="1" /><path clip-path="url(#clip560)" d="M569.72 1544.91 L577.358 1544.91 L577.358 1518.55 L569.048 1520.21 L569.048 1515.95 L577.312 1514.29 L581.988 1514.29 L581.988 1544.91 L589.627 1544.91 L589.627 1548.85 L569.72 1548.85 L569.72 1544.91 Z" fill="#000000" fill-rule="nonzero" fill-opacity="1" /><path clip-path="url(#clip560)" d="M898.293 1544.91 L914.613 1544.91 L914.613 1548.85 L892.668 1548.85 L892.668 1544.91 Q895.33 1542.16 899.914 1537.53 Q904.52 1532.88 905.701 1531.53 Q907.946 1529.01 908.826 1527.27 Q909.729 1525.51 909.729 1523.82 Q909.729 1521.07 907.784 1519.33 Q905.863 1517.6 902.761 1517.6 Q900.562 1517.6 898.108 1518.36 Q895.678 1519.13 892.9 1520.68 L892.9 1515.95 Q895.724 1514.82 898.178 1514.24 Q900.631 1513.66 902.668 1513.66 Q908.039 1513.66 911.233 1516.35 Q914.428 1519.03 914.428 1523.52 Q914.428 1525.65 913.617 1527.57 Q912.83 1529.47 910.724 1532.07 Q910.145 1532.74 907.043 1535.95 Q903.942 1539.15 898.293 1544.91 Z" fill="#000000" fill-rule="nonzero" fill-opacity="1" /><path clip-path="url(#clip560)" d="M1232.19 1530.21 Q1235.55 1530.93 1237.42 1533.2 Q1239.32 1535.47 1239.32 1538.8 Q1239.32 1543.92 1235.8 1546.72 Q1232.28 1549.52 1225.8 1549.52 Q1223.63 1549.52 1221.31 1549.08 Q1219.02 1548.66 1216.57 1547.81 L1216.57 1543.29 Q1218.51 1544.43 1220.83 1545.01 Q1223.14 1545.58 1225.66 1545.58 Q1230.06 1545.58 1232.35 1543.85 Q1234.67 1542.11 1234.67 1538.8 Q1234.67 1535.75 1232.52 1534.03 Q1230.39 1532.3 1226.57 1532.3 L1222.54 1532.3 L1222.54 1528.45 L1226.75 1528.45 Q1230.2 1528.45 1232.03 1527.09 Q1233.86 1525.7 1233.86 1523.11 Q1233.86 1520.45 1231.96 1519.03 Q1230.08 1517.6 1226.57 1517.6 Q1224.64 1517.6 1222.45 1518.01 Q1220.25 1518.43 1217.61 1519.31 L1217.61 1515.14 Q1220.27 1514.4 1222.58 1514.03 Q1224.92 1513.66 1226.98 1513.66 Q1232.31 1513.66 1235.41 1516.09 Q1238.51 1518.5 1238.51 1522.62 Q1238.51 1525.49 1236.87 1527.48 Q1235.22 1529.45 1232.19 1530.21 Z" fill="#000000" fill-rule="nonzero" fill-opacity="1" /><path clip-path="url(#clip560)" d="M1555.26 1518.36 L1543.45 1536.81 L1555.26 1536.81 L1555.26 1518.36 M1554.03 1514.29 L1559.91 1514.29 L1559.91 1536.81 L1564.84 1536.81 L1564.84 1540.7 L1559.91 1540.7 L1559.91 1548.85 L1555.26 1548.85 L1555.26 1540.7 L1539.65 1540.7 L1539.65 1536.19 L1554.03 1514.29 Z" fill="#000000" fill-rule="nonzero" fill-opacity="1" /><path clip-path="url(#clip560)" d="M1866.83 1514.29 L1885.18 1514.29 L1885.18 1518.22 L1871.11 1518.22 L1871.11 1526.7 Q1872.13 1526.35 1873.15 1526.19 Q1874.17 1526 1875.18 1526 Q1880.97 1526 1884.35 1529.17 Q1887.73 1532.34 1887.73 1537.76 Q1887.73 1543.34 1884.26 1546.44 Q1880.79 1549.52 1874.47 1549.52 Q1872.29 1549.52 1870.02 1549.15 Q1867.78 1548.78 1865.37 1548.04 L1865.37 1543.34 Q1867.45 1544.47 1869.67 1545.03 Q1871.9 1545.58 1874.37 1545.58 Q1878.38 1545.58 1880.72 1543.48 Q1883.05 1541.37 1883.05 1537.76 Q1883.05 1534.15 1880.72 1532.04 Q1878.38 1529.94 1874.37 1529.94 Q1872.5 1529.94 1870.62 1530.35 Q1868.77 1530.77 1866.83 1531.65 L1866.83 1514.29 Z" fill="#000000" fill-rule="nonzero" fill-opacity="1" /><path clip-path="url(#clip560)" d="M2201.26 1529.7 Q2198.11 1529.7 2196.26 1531.86 Q2194.43 1534.01 2194.43 1537.76 Q2194.43 1541.49 2196.26 1543.66 Q2198.11 1545.82 2201.26 1545.82 Q2204.41 1545.82 2206.23 1543.66 Q2208.09 1541.49 2208.09 1537.76 Q2208.09 1534.01 2206.23 1531.86 Q2204.41 1529.7 2201.26 1529.7 M2210.54 1515.05 L2210.54 1519.31 Q2208.78 1518.48 2206.98 1518.04 Q2205.19 1517.6 2203.43 1517.6 Q2198.8 1517.6 2196.35 1520.72 Q2193.92 1523.85 2193.57 1530.17 Q2194.94 1528.15 2197 1527.09 Q2199.06 1526 2201.54 1526 Q2206.74 1526 2209.75 1529.17 Q2212.79 1532.32 2212.79 1537.76 Q2212.79 1543.08 2209.64 1546.3 Q2206.49 1549.52 2201.26 1549.52 Q2195.26 1549.52 2192.09 1544.94 Q2188.92 1540.33 2188.92 1531.6 Q2188.92 1523.41 2192.81 1518.55 Q2196.7 1513.66 2203.25 1513.66 Q2205.01 1513.66 2206.79 1514.01 Q2208.6 1514.36 2210.54 1515.05 Z" fill="#000000" fill-rule="nonzero" fill-opacity="1" /><polyline clip-path="url(#clip560)" style="stroke:#000000; stroke-linecap:round; stroke-linejoin:round; stroke-width:4; stroke-opacity:1; fill:none" points="193.936,1486.45 193.936,47.2441 "/>
<polyline clip-path="url(#clip560)" style="stroke:#000000; stroke-linecap:round; stroke-linejoin:round; stroke-width:4; stroke-opacity:1; fill:none" points="193.936,1267.23 212.834,1267.23 "/>
<polyline clip-path="url(#clip560)" style="stroke:#000000; stroke-linecap:round; stroke-linejoin:round; stroke-width:4; stroke-opacity:1; fill:none" points="193.936,1019.08 212.834,1019.08 "/>
<polyline clip-path="url(#clip560)" style="stroke:#000000; stroke-linecap:round; stroke-linejoin:round; stroke-width:4; stroke-opacity:1; fill:none" points="193.936,770.934 212.834,770.934 "/>
<polyline clip-path="url(#clip560)" style="stroke:#000000; stroke-linecap:round; stroke-linejoin:round; stroke-width:4; stroke-opacity:1; fill:none" points="193.936,522.788 212.834,522.788 "/>
<polyline clip-path="url(#clip560)" style="stroke:#000000; stroke-linecap:round; stroke-linejoin:round; stroke-width:4; stroke-opacity:1; fill:none" points="193.936,274.641 212.834,274.641 "/>
<path clip-path="url(#clip560)" d="M50.9921 1267.68 L80.6679 1267.68 L80.6679 1271.61 L50.9921 1271.61 L50.9921 1267.68 Z" fill="#000000" fill-rule="nonzero" fill-opacity="1" /><path clip-path="url(#clip560)" d="M91.5706 1280.57 L99.2095 1280.57 L99.2095 1254.21 L90.8993 1255.87 L90.8993 1251.61 L99.1632 1249.95 L103.839 1249.95 L103.839 1280.57 L111.478 1280.57 L111.478 1284.51 L91.5706 1284.51 L91.5706 1280.57 Z" fill="#000000" fill-rule="nonzero" fill-opacity="1" /><path clip-path="url(#clip560)" d="M120.922 1278.63 L125.807 1278.63 L125.807 1284.51 L120.922 1284.51 L120.922 1278.63 Z" fill="#000000" fill-rule="nonzero" fill-opacity="1" /><path clip-path="url(#clip560)" d="M145.992 1253.03 Q142.381 1253.03 140.552 1256.59 Q138.746 1260.13 138.746 1267.26 Q138.746 1274.37 140.552 1277.93 Q142.381 1281.48 145.992 1281.48 Q149.626 1281.48 151.431 1277.93 Q153.26 1274.37 153.26 1267.26 Q153.26 1260.13 151.431 1256.59 Q149.626 1253.03 145.992 1253.03 M145.992 1249.32 Q151.802 1249.32 154.857 1253.93 Q157.936 1258.51 157.936 1267.26 Q157.936 1275.99 154.857 1280.6 Q151.802 1285.18 145.992 1285.18 Q140.181 1285.18 137.103 1280.6 Q134.047 1275.99 134.047 1267.26 Q134.047 1258.51 137.103 1253.93 Q140.181 1249.32 145.992 1249.32 Z" fill="#000000" fill-rule="nonzero" fill-opacity="1" /><path clip-path="url(#clip560)" d="M51.9875 1019.53 L81.6633 1019.53 L81.6633 1023.47 L51.9875 1023.47 L51.9875 1019.53 Z" fill="#000000" fill-rule="nonzero" fill-opacity="1" /><path clip-path="url(#clip560)" d="M101.756 1004.88 Q98.1447 1004.88 96.316 1008.44 Q94.5104 1011.99 94.5104 1019.12 Q94.5104 1026.22 96.316 1029.79 Q98.1447 1033.33 101.756 1033.33 Q105.39 1033.33 107.196 1029.79 Q109.024 1026.22 109.024 1019.12 Q109.024 1011.99 107.196 1008.44 Q105.39 1004.88 101.756 1004.88 M101.756 1001.18 Q107.566 1001.18 110.621 1005.78 Q113.7 1010.37 113.7 1019.12 Q113.7 1027.84 110.621 1032.45 Q107.566 1037.03 101.756 1037.03 Q95.9456 1037.03 92.8669 1032.45 Q89.8114 1027.84 89.8114 1019.12 Q89.8114 1010.37 92.8669 1005.78 Q95.9456 1001.18 101.756 1001.18 Z" fill="#000000" fill-rule="nonzero" fill-opacity="1" /><path clip-path="url(#clip560)" d="M121.918 1030.48 L126.802 1030.48 L126.802 1036.36 L121.918 1036.36 L121.918 1030.48 Z" fill="#000000" fill-rule="nonzero" fill-opacity="1" /><path clip-path="url(#clip560)" d="M137.033 1001.8 L155.39 1001.8 L155.39 1005.74 L141.316 1005.74 L141.316 1014.21 Q142.334 1013.86 143.353 1013.7 Q144.371 1013.51 145.39 1013.51 Q151.177 1013.51 154.556 1016.69 Q157.936 1019.86 157.936 1025.27 Q157.936 1030.85 154.464 1033.95 Q150.992 1037.03 144.672 1037.03 Q142.496 1037.03 140.228 1036.66 Q137.982 1036.29 135.575 1035.55 L135.575 1030.85 Q137.658 1031.99 139.881 1032.54 Q142.103 1033.1 144.58 1033.1 Q148.584 1033.1 150.922 1030.99 Q153.26 1028.88 153.26 1025.27 Q153.26 1021.66 150.922 1019.56 Q148.584 1017.45 144.58 1017.45 Q142.705 1017.45 140.83 1017.87 Q138.978 1018.28 137.033 1019.16 L137.033 1001.8 Z" fill="#000000" fill-rule="nonzero" fill-opacity="1" /><path clip-path="url(#clip560)" d="M100.76 756.733 Q97.1493 756.733 95.3206 760.298 Q93.515 763.84 93.515 770.969 Q93.515 778.076 95.3206 781.64 Q97.1493 785.182 100.76 785.182 Q104.395 785.182 106.2 781.64 Q108.029 778.076 108.029 770.969 Q108.029 763.84 106.2 760.298 Q104.395 756.733 100.76 756.733 M100.76 753.029 Q106.571 753.029 109.626 757.636 Q112.705 762.219 112.705 770.969 Q112.705 779.696 109.626 784.302 Q106.571 788.886 100.76 788.886 Q94.9502 788.886 91.8715 784.302 Q88.816 779.696 88.816 770.969 Q88.816 762.219 91.8715 757.636 Q94.9502 753.029 100.76 753.029 Z" fill="#000000" fill-rule="nonzero" fill-opacity="1" /><path clip-path="url(#clip560)" d="M120.922 782.335 L125.807 782.335 L125.807 788.214 L120.922 788.214 L120.922 782.335 Z" fill="#000000" fill-rule="nonzero" fill-opacity="1" /><path clip-path="url(#clip560)" d="M145.992 756.733 Q142.381 756.733 140.552 760.298 Q138.746 763.84 138.746 770.969 Q138.746 778.076 140.552 781.64 Q142.381 785.182 145.992 785.182 Q149.626 785.182 151.431 781.64 Q153.26 778.076 153.26 770.969 Q153.26 763.84 151.431 760.298 Q149.626 756.733 145.992 756.733 M145.992 753.029 Q151.802 753.029 154.857 757.636 Q157.936 762.219 157.936 770.969 Q157.936 779.696 154.857 784.302 Q151.802 788.886 145.992 788.886 Q140.181 788.886 137.103 784.302 Q134.047 779.696 134.047 770.969 Q134.047 762.219 137.103 757.636 Q140.181 753.029 145.992 753.029 Z" fill="#000000" fill-rule="nonzero" fill-opacity="1" /><path clip-path="url(#clip560)" d="M101.756 508.587 Q98.1447 508.587 96.316 512.151 Q94.5104 515.693 94.5104 522.823 Q94.5104 529.929 96.316 533.494 Q98.1447 537.035 101.756 537.035 Q105.39 537.035 107.196 533.494 Q109.024 529.929 109.024 522.823 Q109.024 515.693 107.196 512.151 Q105.39 508.587 101.756 508.587 M101.756 504.883 Q107.566 504.883 110.621 509.489 Q113.7 514.073 113.7 522.823 Q113.7 531.549 110.621 536.156 Q107.566 540.739 101.756 540.739 Q95.9456 540.739 92.8669 536.156 Q89.8114 531.549 89.8114 522.823 Q89.8114 514.073 92.8669 509.489 Q95.9456 504.883 101.756 504.883 Z" fill="#000000" fill-rule="nonzero" fill-opacity="1" /><path clip-path="url(#clip560)" d="M121.918 534.188 L126.802 534.188 L126.802 540.068 L121.918 540.068 L121.918 534.188 Z" fill="#000000" fill-rule="nonzero" fill-opacity="1" /><path clip-path="url(#clip560)" d="M137.033 505.508 L155.39 505.508 L155.39 509.443 L141.316 509.443 L141.316 517.915 Q142.334 517.568 143.353 517.406 Q144.371 517.221 145.39 517.221 Q151.177 517.221 154.556 520.392 Q157.936 523.563 157.936 528.98 Q157.936 534.559 154.464 537.66 Q150.992 540.739 144.672 540.739 Q142.496 540.739 140.228 540.369 Q137.982 539.998 135.575 539.258 L135.575 534.559 Q137.658 535.693 139.881 536.248 Q142.103 536.804 144.58 536.804 Q148.584 536.804 150.922 534.698 Q153.26 532.591 153.26 528.98 Q153.26 525.369 150.922 523.262 Q148.584 521.156 144.58 521.156 Q142.705 521.156 140.83 521.573 Q138.978 521.989 137.033 522.869 L137.033 505.508 Z" fill="#000000" fill-rule="nonzero" fill-opacity="1" /><path clip-path="url(#clip560)" d="M91.5706 287.986 L99.2095 287.986 L99.2095 261.621 L90.8993 263.287 L90.8993 259.028 L99.1632 257.361 L103.839 257.361 L103.839 287.986 L111.478 287.986 L111.478 291.921 L91.5706 291.921 L91.5706 287.986 Z" fill="#000000" fill-rule="nonzero" fill-opacity="1" /><path clip-path="url(#clip560)" d="M120.922 286.042 L125.807 286.042 L125.807 291.921 L120.922 291.921 L120.922 286.042 Z" fill="#000000" fill-rule="nonzero" fill-opacity="1" /><path clip-path="url(#clip560)" d="M145.992 260.44 Q142.381 260.44 140.552 264.005 Q138.746 267.546 138.746 274.676 Q138.746 281.782 140.552 285.347 Q142.381 288.889 145.992 288.889 Q149.626 288.889 151.431 285.347 Q153.26 281.782 153.26 274.676 Q153.26 267.546 151.431 264.005 Q149.626 260.44 145.992 260.44 M145.992 256.736 Q151.802 256.736 154.857 261.343 Q157.936 265.926 157.936 274.676 Q157.936 283.403 154.857 288.009 Q151.802 292.593 145.992 292.593 Q140.181 292.593 137.103 288.009 Q134.047 283.403 134.047 274.676 Q134.047 265.926 137.103 261.343 Q140.181 256.736 145.992 256.736 Z" fill="#000000" fill-rule="nonzero" fill-opacity="1" /><polyline clip-path="url(#clip562)" style="stroke:#009af9; stroke-linecap:round; stroke-linejoin:round; stroke-width:4; stroke-opacity:1; fill:none" points="255.035,770.934 258.278,765.972 261.521,761.009 264.764,756.048 268.007,751.088 271.25,746.13 274.493,741.175 277.736,736.222 280.979,731.273 284.222,726.328 287.465,721.388 290.708,716.452 293.951,711.522 297.194,706.598 300.437,701.68 303.68,696.769 306.923,691.866 310.166,686.97 313.409,682.083 316.652,677.205 319.895,672.336 323.138,667.477 326.381,662.629 329.624,657.791 332.867,652.964 336.11,648.15 339.353,643.347 342.596,638.557 345.84,633.781 349.083,629.018 352.326,624.27 355.569,619.536 358.812,614.817 362.055,610.114 365.298,605.427 368.541,600.757 371.784,596.103 375.027,591.467 378.27,586.849 381.513,582.25 384.756,577.669 387.999,573.107 391.242,568.566 394.485,564.044 397.728,559.544 400.971,555.064 404.214,550.606 407.457,546.17 410.7,541.757 413.943,537.366 417.186,532.999 420.429,528.655 423.672,524.336 426.915,520.042 430.158,515.772 433.401,511.528 436.644,507.31 439.887,503.119 443.13,498.954 446.373,494.816 449.616,490.706 452.859,486.624 456.103,482.571 459.346,478.546 462.589,474.55 465.832,470.585 469.075,466.649 472.318,462.743 475.561,458.869 478.804,455.025 482.047,451.214 485.29,447.434 488.533,443.686 491.776,439.972 495.019,436.29 498.262,432.642 501.505,429.027 504.748,425.447 507.991,421.902 511.234,418.391 514.477,414.916 517.72,411.476 520.963,408.072 524.206,404.704 527.449,401.373 530.692,398.079 533.935,394.822 537.178,391.603 540.421,388.422 543.664,385.279 546.907,382.175 550.15,379.109 553.393,376.083 556.636,373.096 559.879,370.149 563.122,367.242 566.366,364.375 569.609,361.549 572.852,358.764 576.095,356.02 579.338,353.318 582.581,350.658 585.824,348.039 589.067,345.463 592.31,342.929 595.553,340.438 598.796,337.99 602.039,335.586 605.282,333.225 608.525,330.908 611.768,328.634 615.011,326.405 618.254,324.221 621.497,322.081 624.74,319.986 627.983,317.936 631.226,315.931 634.469,313.972 637.712,312.059 640.955,310.191 644.198,308.37 647.441,306.595 650.684,304.866 653.927,303.184 657.17,301.548 660.413,299.96 663.656,298.419 666.899,296.924 670.142,295.478 673.385,294.079 676.629,292.727 679.872,291.423 683.115,290.168 686.358,288.96 689.601,287.801 692.844,286.69 696.087,285.627 699.33,284.613 702.573,283.647 705.816,282.73 709.059,281.862 712.302,281.043 715.545,280.273 718.788,279.552 722.031,278.88 725.274,278.258 728.517,277.684 731.76,277.16 735.003,276.686 738.246,276.26 741.489,275.884 744.732,275.558 747.975,275.281 751.218,275.054 754.461,274.877 757.704,274.749 760.947,274.67 764.19,274.641 767.433,274.662 770.676,274.733 773.919,274.853 777.162,275.023 780.405,275.242 783.648,275.511 786.892,275.829 790.135,276.197 793.378,276.615 796.621,277.081 799.864,277.598 803.107,278.163 806.35,278.778 809.593,279.442 812.836,280.155 816.079,280.917 819.322,281.729 822.565,282.589 825.808,283.498 829.051,284.456 832.294,285.462 835.537,286.517 838.78,287.621 842.023,288.772 845.266,289.972 848.509,291.22 851.752,292.516 854.995,293.86 858.238,295.252 861.481,296.691 864.724,298.177 867.967,299.711 871.21,301.292 874.453,302.92 877.696,304.595 880.939,306.316 884.182,308.084 887.425,309.898 890.668,311.758 893.911,313.664 897.155,315.616 900.398,317.614 903.641,319.656 906.884,321.744 910.127,323.877 913.37,326.054 916.613,328.276 919.856,330.543 923.099,332.853 926.342,335.207 929.585,337.605 932.828,340.045 936.071,342.53 939.314,345.056 942.557,347.626 945.8,350.238 949.043,352.892 952.286,355.587 955.529,358.325 958.772,361.103 962.015,363.922 965.258,366.783 968.501,369.683 971.744,372.624 974.987,375.604 978.23,378.625 981.473,381.684 984.716,384.782 987.959,387.919 991.202,391.094 994.445,394.307 997.688,397.558 1000.93,400.846 1004.17,404.171 1007.42,407.533 1010.66,410.931 1013.9,414.365 1017.15,417.835 1020.39,421.34 1023.63,424.88 1026.88,428.455 1030.12,432.064 1033.36,435.707 1036.6,439.383 1039.85,443.093 1043.09,446.835 1046.33,450.609 1049.58,454.416 1052.82,458.255 1056.06,462.124 1059.31,466.025 1062.55,469.956 1065.79,473.917 1069.04,477.908 1072.28,481.928 1075.52,485.977 1078.76,490.054 1082.01,494.16 1085.25,498.293 1088.49,502.454 1091.74,506.641 1094.98,510.855 1098.22,515.095 1101.47,519.36 1104.71,523.651 1107.95,527.966 1111.19,532.305 1114.44,536.669 1117.68,541.056 1120.92,545.466 1124.17,549.898 1127.41,554.353 1130.65,558.829 1133.9,563.326 1137.14,567.844 1140.38,572.383 1143.62,576.941 1146.87,581.519 1150.11,586.115 1153.35,590.73 1156.6,595.364 1159.84,600.014 1163.08,604.682 1166.33,609.367 1169.57,614.067 1172.81,618.783 1176.06,623.515 1179.3,628.261 1182.54,633.022 1185.78,637.796 1189.03,642.583 1192.27,647.384 1195.51,652.197 1198.76,657.021 1202,661.857 1205.24,666.704 1208.49,671.562 1211.73,676.429 1214.97,681.306 1218.21,686.191 1221.46,691.086 1224.7,695.988 1227.94,700.898 1231.19,705.814 1234.43,710.737 1237.67,715.667 1240.92,720.601 1244.16,725.541 1247.4,730.485 1250.64,735.434 1253.89,740.386 1257.13,745.341 1260.37,750.298 1263.62,755.258 1266.86,760.219 1270.1,765.181 1273.35,770.144 1276.59,775.107 1279.83,780.069 1283.08,785.031 1286.32,789.991 1289.56,794.949 1292.8,799.905 1296.05,804.858 1299.29,809.808 1302.53,814.753 1305.78,819.695 1309.02,824.631 1312.26,829.562 1315.51,834.487 1318.75,839.406 1321.99,844.318 1325.23,849.223 1328.48,854.119 1331.72,859.008 1334.96,863.888 1338.21,868.758 1341.45,873.618 1344.69,878.469 1347.94,883.308 1351.18,888.137 1354.42,892.953 1357.66,897.758 1360.91,902.549 1364.15,907.328 1367.39,912.093 1370.64,916.844 1373.88,921.58 1377.12,926.301 1380.37,931.007 1383.61,935.696 1386.85,940.37 1390.1,945.026 1393.34,949.665 1396.58,954.285 1399.82,958.888 1403.07,963.472 1406.31,968.036 1409.55,972.581 1412.8,977.106 1416.04,981.61 1419.28,986.093 1422.53,990.554 1425.77,994.994 1429.01,999.411 1432.25,1003.81 1435.5,1008.18 1438.74,1012.52 1441.98,1016.85 1445.23,1021.14 1448.47,1025.42 1451.71,1029.67 1454.96,1033.89 1458.2,1038.08 1461.44,1042.25 1464.68,1046.4 1467.93,1050.51 1471.17,1054.6 1474.41,1058.65 1477.66,1062.68 1480.9,1066.68 1484.14,1070.65 1487.39,1074.6 1490.63,1078.51 1493.87,1082.39 1497.11,1086.23 1500.36,1090.05 1503.6,1093.84 1506.84,1097.59 1510.09,1101.31 1513.33,1104.99 1516.57,1108.65 1519.82,1112.27 1523.06,1115.85 1526.3,1119.4 1529.55,1122.92 1532.79,1126.4 1536.03,1129.85 1539.27,1133.26 1542.52,1136.63 1545.76,1139.97 1549,1143.27 1552.25,1146.53 1555.49,1149.76 1558.73,1152.94 1561.98,1156.09 1565.22,1159.2 1568.46,1162.27 1571.7,1165.31 1574.95,1168.3 1578.19,1171.25 1581.43,1174.17 1584.68,1177.04 1587.92,1179.87 1591.16,1182.66 1594.41,1185.41 1597.65,1188.12 1600.89,1190.79 1604.13,1193.42 1607.38,1196 1610.62,1198.54 1613.86,1201.04 1617.11,1203.49 1620.35,1205.9 1623.59,1208.27 1626.84,1210.6 1630.08,1212.88 1633.32,1215.11 1636.57,1217.3 1639.81,1219.45 1643.05,1221.55 1646.29,1223.61 1649.54,1225.62 1652.78,1227.59 1656.02,1229.51 1659.27,1231.38 1662.51,1233.21 1665.75,1234.99 1669,1236.73 1672.24,1238.42 1675.48,1240.06 1678.72,1241.66 1681.97,1243.21 1685.21,1244.71 1688.45,1246.16 1691.7,1247.57 1694.94,1248.93 1698.18,1250.24 1701.43,1251.5 1704.67,1252.72 1707.91,1253.89 1711.15,1255.01 1714.4,1256.08 1717.64,1257.1 1720.88,1258.07 1724.13,1259 1727.37,1259.87 1730.61,1260.7 1733.86,1261.48 1737.1,1262.21 1740.34,1262.88 1743.59,1263.52 1746.83,1264.1 1750.07,1264.63 1753.31,1265.11 1756.56,1265.54 1759.8,1265.93 1763.04,1266.26 1766.29,1266.55 1769.53,1266.78 1772.77,1266.97 1776.02,1267.1 1779.26,1267.19 1782.5,1267.23 1785.74,1267.21 1788.99,1267.15 1792.23,1267.04 1795.47,1266.88 1798.72,1266.67 1801.96,1266.4 1805.2,1266.09 1808.45,1265.73 1811.69,1265.32 1814.93,1264.87 1818.17,1264.36 1821.42,1263.8 1824.66,1263.19 1827.9,1262.54 1831.15,1261.83 1834.39,1261.08 1837.63,1260.27 1840.88,1259.42 1844.12,1258.52 1847.36,1257.57 1850.61,1256.57 1853.85,1255.52 1857.09,1254.43 1860.33,1253.28 1863.58,1252.09 1866.82,1250.85 1870.06,1249.56 1873.31,1248.23 1876.55,1246.84 1879.79,1245.41 1883.04,1243.93 1886.28,1242.41 1889.52,1240.83 1892.76,1239.21 1896.01,1237.54 1899.25,1235.83 1902.49,1234.07 1905.74,1232.26 1908.98,1230.41 1912.22,1228.51 1915.47,1226.57 1918.71,1224.58 1921.95,1222.54 1925.19,1220.46 1928.44,1218.33 1931.68,1216.16 1934.92,1213.95 1938.17,1211.69 1941.41,1209.39 1944.65,1207.04 1947.9,1204.65 1951.14,1202.22 1954.38,1199.74 1957.63,1197.22 1960.87,1194.66 1964.11,1192.05 1967.35,1189.4 1970.6,1186.71 1973.84,1183.98 1977.08,1181.21 1980.33,1178.4 1983.57,1175.54 1986.81,1172.65 1990.06,1169.72 1993.3,1166.74 1996.54,1163.73 1999.78,1160.67 2003.03,1157.58 2006.27,1154.45 2009.51,1151.28 2012.76,1148.08 2016,1144.83 2019.24,1141.55 2022.49,1138.23 2025.73,1134.87 2028.97,1131.48 2032.21,1128.05 2035.46,1124.59 2038.7,1121.09 2041.94,1117.55 2045.19,1113.99 2048.43,1110.38 2051.67,1106.74 2054.92,1103.07 2058.16,1099.37 2061.4,1095.63 2064.65,1091.86 2067.89,1088.06 2071.13,1084.23 2074.37,1080.36 2077.62,1076.47 2080.86,1072.54 2084.1,1068.58 2087.35,1064.6 2090.59,1060.58 2093.83,1056.54 2097.08,1052.47 2100.32,1048.36 2103.56,1044.24 2106.8,1040.08 2110.05,1035.9 2113.29,1031.69 2116.53,1027.45 2119.78,1023.19 2123.02,1018.9 2126.26,1014.59 2129.51,1010.26 2132.75,1005.9 2135.99,1001.51 2139.23,997.107 2142.48,992.678 2145.72,988.227 2148.96,983.754 2152.21,979.26 2155.45,974.746 2158.69,970.21 2161.94,965.655 2165.18,961.081 2168.42,956.487 2171.67,951.875 2174.91,947.244 2178.15,942.596 2181.39,937.931 2184.64,933.25 2187.88,928.551 2191.12,923.838 2194.37,919.109 2197.61,914.365 2200.85,909.606 2204.1,904.834 2207.34,900.049 2210.58,895.25 2213.82,890.44 2217.07,885.617 2220.31,880.783 2223.55,875.937 2226.8,871.082 2230.04,866.216 2233.28,861.34 2236.53,856.456 2239.77,851.563 2243.01,846.662 2246.25,841.754 2249.5,836.838 2252.74,831.916 2255.98,826.988 2259.23,822.054 2262.47,817.115 2265.71,812.171 2268.96,807.223 2272.2,802.272 2275.44,797.318 2278.69,792.36 2281.93,787.401 2285.17,782.44 2288.41,777.478 2291.66,772.515 "/>
<circle clip-path="url(#clip562)" cx="1296.05" cy="686.248" r="14.4" fill="#e26f46" fill-rule="evenodd" fill-opacity="1" stroke="#000000" stroke-opacity="1" stroke-width="3.2"/>
<circle clip-path="url(#clip562)" cx="310.166" cy="666" r="14.4" fill="#e26f46" fill-rule="evenodd" fill-opacity="1" stroke="#000000" stroke-opacity="1" stroke-width="3.2"/>
<circle clip-path="url(#clip562)" cx="482.047" cy="544.136" r="14.4" fill="#e26f46" fill-rule="evenodd" fill-opacity="1" stroke="#000000" stroke-opacity="1" stroke-width="3.2"/>
<circle clip-path="url(#clip562)" cx="407.457" cy="499.746" r="14.4" fill="#e26f46" fill-rule="evenodd" fill-opacity="1" stroke="#000000" stroke-opacity="1" stroke-width="3.2"/>
<circle clip-path="url(#clip562)" cx="2067.89" cy="1073" r="14.4" fill="#e26f46" fill-rule="evenodd" fill-opacity="1" stroke="#000000" stroke-opacity="1" stroke-width="3.2"/>
<circle clip-path="url(#clip562)" cx="2207.34" cy="858.565" r="14.4" fill="#e26f46" fill-rule="evenodd" fill-opacity="1" stroke="#000000" stroke-opacity="1" stroke-width="3.2"/>
<circle clip-path="url(#clip562)" cx="679.872" cy="209.362" r="14.4" fill="#e26f46" fill-rule="evenodd" fill-opacity="1" stroke="#000000" stroke-opacity="1" stroke-width="3.2"/>
<circle clip-path="url(#clip562)" cx="1672.24" cy="1198.07" r="14.4" fill="#e26f46" fill-rule="evenodd" fill-opacity="1" stroke="#000000" stroke-opacity="1" stroke-width="3.2"/>
<circle clip-path="url(#clip562)" cx="803.107" cy="188.214" r="14.4" fill="#e26f46" fill-rule="evenodd" fill-opacity="1" stroke="#000000" stroke-opacity="1" stroke-width="3.2"/>
<circle clip-path="url(#clip562)" cx="2126.26" cy="1041.85" r="14.4" fill="#e26f46" fill-rule="evenodd" fill-opacity="1" stroke="#000000" stroke-opacity="1" stroke-width="3.2"/>
<circle clip-path="url(#clip562)" cx="842.023" cy="305.723" r="14.4" fill="#e26f46" fill-rule="evenodd" fill-opacity="1" stroke="#000000" stroke-opacity="1" stroke-width="3.2"/>
<circle clip-path="url(#clip562)" cx="871.21" cy="233.076" r="14.4" fill="#e26f46" fill-rule="evenodd" fill-opacity="1" stroke="#000000" stroke-opacity="1" stroke-width="3.2"/>
<circle clip-path="url(#clip562)" cx="1662.51" cy="1218.07" r="14.4" fill="#e26f46" fill-rule="evenodd" fill-opacity="1" stroke="#000000" stroke-opacity="1" stroke-width="3.2"/>
<circle clip-path="url(#clip562)" cx="1759.8" cy="1332.12" r="14.4" fill="#e26f46" fill-rule="evenodd" fill-opacity="1" stroke="#000000" stroke-opacity="1" stroke-width="3.2"/>
<circle clip-path="url(#clip562)" cx="1023.63" cy="332.842" r="14.4" fill="#e26f46" fill-rule="evenodd" fill-opacity="1" stroke="#000000" stroke-opacity="1" stroke-width="3.2"/>
<circle clip-path="url(#clip562)" cx="1578.19" cy="1068.41" r="14.4" fill="#e26f46" fill-rule="evenodd" fill-opacity="1" stroke="#000000" stroke-opacity="1" stroke-width="3.2"/>
<circle clip-path="url(#clip562)" cx="1033.36" cy="461.799" r="14.4" fill="#e26f46" fill-rule="evenodd" fill-opacity="1" stroke="#000000" stroke-opacity="1" stroke-width="3.2"/>
<circle clip-path="url(#clip562)" cx="274.493" cy="636.542" r="14.4" fill="#e26f46" fill-rule="evenodd" fill-opacity="1" stroke="#000000" stroke-opacity="1" stroke-width="3.2"/>
<circle clip-path="url(#clip562)" cx="274.493" cy="630.578" r="14.4" fill="#e26f46" fill-rule="evenodd" fill-opacity="1" stroke="#000000" stroke-opacity="1" stroke-width="3.2"/>
<circle clip-path="url(#clip562)" cx="1163.08" cy="722.605" r="14.4" fill="#e26f46" fill-rule="evenodd" fill-opacity="1" stroke="#000000" stroke-opacity="1" stroke-width="3.2"/>
<path clip-path="url(#clip562)" d="M255.035 834.294 L258.278 829.717 L261.521 825.268 L264.764 820.959 L268.007 816.805 L271.25 812.818 L274.493 809.011 L277.736 805.394 L280.979 801.964 L284.222 798.714 L287.465 795.636 L290.708 792.724 L293.951 789.969 L297.194 787.364 L300.437 784.899 L303.68 782.567 L306.923 780.36 L310.166 778.269 L313.409 776.285 L316.652 774.396 L319.895 772.588 L323.138 770.849 L326.381 769.165 L329.624 767.525 L332.867 765.92 L336.11 764.338 L339.353 762.77 L342.596 761.209 L345.84 759.647 L349.083 758.078 L352.326 756.498 L355.569 754.901 L358.812 753.284 L362.055 751.646 L365.298 749.984 L368.541 748.297 L371.784 746.587 L375.027 744.854 L378.27 743.099 L381.513 741.325 L384.756 739.536 L387.999 737.735 L391.242 735.926 L394.485 734.115 L397.728 732.307 L400.971 730.507 L404.214 728.724 L407.457 726.962 L410.7 725.228 L413.943 723.518 L417.186 721.828 L420.429 720.154 L423.672 718.492 L426.915 716.84 L430.158 715.193 L433.401 713.55 L436.644 711.908 L439.887 710.265 L443.13 708.62 L446.373 706.971 L449.616 705.318 L452.859 703.661 L456.103 701.999 L459.346 700.334 L462.589 698.664 L465.832 696.993 L469.075 695.32 L472.318 693.647 L475.561 691.976 L478.804 690.308 L482.047 688.645 L485.29 686.988 L488.533 685.331 L491.776 683.669 L495.019 681.997 L498.262 680.309 L501.505 678.599 L504.748 676.862 L507.991 675.094 L511.234 673.289 L514.477 671.443 L517.72 669.551 L520.963 667.61 L524.206 665.617 L527.449 663.567 L530.692 661.458 L533.935 659.286 L537.178 657.05 L540.421 654.747 L543.664 652.375 L546.907 649.933 L550.15 647.419 L553.393 644.832 L556.636 642.172 L559.879 639.438 L563.122 636.63 L566.366 633.748 L569.609 630.793 L572.852 627.764 L576.095 624.663 L579.338 621.491 L582.581 618.249 L585.824 614.94 L589.067 611.564 L592.31 608.125 L595.553 604.625 L598.796 601.066 L602.039 597.452 L605.282 593.786 L608.525 590.071 L611.768 586.311 L615.011 582.512 L618.254 578.676 L621.497 574.808 L624.74 570.915 L627.983 567 L631.226 563.071 L634.469 559.131 L637.712 555.189 L640.955 551.249 L644.198 547.32 L647.441 543.408 L650.684 539.521 L653.927 535.665 L657.17 531.85 L660.413 528.083 L663.656 524.372 L666.899 520.727 L670.142 517.156 L673.385 513.668 L676.629 510.272 L679.872 506.977 L683.115 503.79 L686.358 500.707 L689.601 497.722 L692.844 494.829 L696.087 492.022 L699.33 489.294 L702.573 486.642 L705.816 484.058 L709.059 481.538 L712.302 479.078 L715.545 476.673 L718.788 474.319 L722.031 472.013 L725.274 469.751 L728.517 467.532 L731.76 465.352 L735.003 463.21 L738.246 461.106 L741.489 459.038 L744.732 457.006 L747.975 455.012 L751.218 453.055 L754.461 451.139 L757.704 449.264 L760.947 447.435 L764.19 445.655 L767.433 443.927 L770.676 442.257 L773.919 440.651 L777.162 439.114 L780.405 437.653 L783.648 436.276 L786.892 434.992 L790.135 433.808 L793.378 432.734 L796.621 431.78 L799.864 430.957 L803.107 430.275 L806.35 429.743 L809.593 429.363 L812.836 429.133 L816.079 429.055 L819.322 429.126 L822.565 429.349 L825.808 429.723 L829.051 430.249 L832.294 430.931 L835.537 431.768 L838.78 432.763 L842.023 433.919 L845.266 435.237 L848.509 436.714 L851.752 438.346 L854.995 440.129 L858.238 442.06 L861.481 444.136 L864.724 446.352 L867.967 448.708 L871.21 451.2 L874.453 453.825 L877.696 456.57 L880.939 459.424 L884.182 462.374 L887.425 465.407 L890.668 468.513 L893.911 471.681 L897.155 474.9 L900.398 478.162 L903.641 481.456 L906.884 484.775 L910.127 488.112 L913.37 491.459 L916.613 494.811 L919.856 498.161 L923.099 501.505 L926.342 504.839 L929.585 508.158 L932.828 511.461 L936.071 514.744 L939.314 518.006 L942.557 521.246 L945.8 524.463 L949.043 527.658 L952.286 530.83 L955.529 533.981 L958.772 537.113 L962.015 540.229 L965.258 543.331 L968.501 546.423 L971.744 549.509 L974.987 552.595 L978.23 555.685 L981.473 558.785 L984.716 561.903 L987.959 565.046 L991.202 568.221 L994.445 571.436 L997.688 574.701 L1000.93 578.026 L1004.17 581.419 L1007.42 584.891 L1010.66 588.454 L1013.9 592.117 L1017.15 595.893 L1020.39 599.792 L1023.63 603.827 L1026.88 608.005 L1030.12 612.327 L1033.36 616.788 L1036.6 621.386 L1039.85 626.108 L1043.09 630.944 L1046.33 635.882 L1049.58 640.91 L1052.82 646.017 L1056.06 651.191 L1059.31 656.422 L1062.55 661.699 L1065.79 667.013 L1069.04 672.354 L1072.28 677.712 L1075.52 683.08 L1078.76 688.449 L1082.01 693.811 L1085.25 699.161 L1088.49 704.492 L1091.74 709.798 L1094.98 715.073 L1098.22 720.314 L1101.47 725.516 L1104.71 730.675 L1107.95 735.789 L1111.19 740.855 L1114.44 745.871 L1117.68 750.835 L1120.92 755.746 L1124.17 760.605 L1127.41 765.41 L1130.65 770.161 L1133.9 774.86 L1137.14 779.508 L1140.38 784.106 L1143.62 788.655 L1146.87 793.158 L1150.11 797.616 L1153.35 802.033 L1156.6 806.41 L1159.84 810.752 L1163.08 815.059 L1166.33 819.335 L1169.57 823.579 L1172.81 827.787 L1176.06 831.959 L1179.3 836.093 L1182.54 840.187 L1185.78 844.239 L1189.03 848.249 L1192.27 852.215 L1195.51 856.136 L1198.76 860.013 L1202 863.845 L1205.24 867.633 L1208.49 871.377 L1211.73 875.077 L1214.97 878.736 L1218.21 882.355 L1221.46 885.936 L1224.7 889.481 L1227.94 892.994 L1231.19 896.476 L1234.43 899.933 L1237.67 903.368 L1240.92 906.784 L1244.16 910.187 L1247.4 913.582 L1250.64 916.974 L1253.89 920.369 L1257.13 923.772 L1260.37 927.191 L1263.62 930.631 L1266.86 934.1 L1270.1 937.604 L1273.35 941.151 L1276.59 944.749 L1279.83 948.404 L1283.08 952.126 L1286.32 955.922 L1289.56 959.799 L1292.8 963.766 L1296.05 967.83 L1299.29 971.998 L1302.53 976.264 L1305.78 980.62 L1309.02 985.061 L1312.26 989.579 L1315.51 994.167 L1318.75 998.817 L1321.99 1003.52 L1325.23 1008.28 L1328.48 1013.08 L1331.72 1017.91 L1334.96 1022.77 L1338.21 1027.66 L1341.45 1032.57 L1344.69 1037.48 L1347.94 1042.41 L1351.18 1047.33 L1354.42 1052.25 L1357.66 1057.17 L1360.91 1062.07 L1364.15 1066.96 L1367.39 1071.82 L1370.64 1076.66 L1373.88 1081.47 L1377.12 1086.25 L1380.37 1090.99 L1383.61 1095.7 L1386.85 1100.36 L1390.1 1104.98 L1393.34 1109.56 L1396.58 1114.08 L1399.82 1118.55 L1403.07 1122.97 L1406.31 1127.34 L1409.55 1131.64 L1412.8 1135.89 L1416.04 1140.08 L1419.28 1144.2 L1422.53 1148.26 L1425.77 1152.26 L1429.01 1156.19 L1432.25 1160.05 L1435.5 1163.85 L1438.74 1167.58 L1441.98 1171.24 L1445.23 1174.82 L1448.47 1178.34 L1451.71 1181.79 L1454.96 1185.17 L1458.2 1188.47 L1461.44 1191.71 L1464.68 1194.87 L1467.93 1197.96 L1471.17 1200.98 L1474.41 1203.93 L1477.66 1206.82 L1480.9 1209.63 L1484.14 1212.37 L1487.39 1215.05 L1490.63 1217.66 L1493.87 1220.21 L1497.11 1222.69 L1500.36 1225.11 L1503.6 1227.47 L1506.84 1229.77 L1510.09 1232.01 L1513.33 1234.2 L1516.57 1236.34 L1519.82 1238.42 L1523.06 1240.46 L1526.3 1242.45 L1529.55 1244.41 L1532.79 1246.32 L1536.03 1248.2 L1539.27 1250.06 L1542.52 1251.88 L1545.76 1253.68 L1549 1255.47 L1552.25 1257.24 L1555.49 1259.01 L1558.73 1260.78 L1561.98 1262.55 L1565.22 1264.33 L1568.46 1266.12 L1571.7 1267.94 L1574.95 1269.78 L1578.19 1271.67 L1581.43 1273.59 L1584.68 1275.55 L1587.92 1277.54 L1591.16 1279.57 L1594.41 1281.62 L1597.65 1283.69 L1600.89 1285.79 L1604.13 1287.91 L1607.38 1290.04 L1610.62 1292.18 L1613.86 1294.34 L1617.11 1296.52 L1620.35 1298.7 L1623.59 1300.9 L1626.84 1303.11 L1630.08 1305.33 L1633.32 1307.57 L1636.57 1309.84 L1639.81 1312.12 L1643.05 1314.43 L1646.29 1316.77 L1649.54 1319.15 L1652.78 1321.57 L1656.02 1324.03 L1659.27 1326.54 L1662.51 1329.11 L1665.75 1331.74 L1669 1334.44 L1672.24 1337.19 L1675.48 1340 L1678.72 1342.86 L1681.97 1345.76 L1685.21 1348.7 L1688.45 1351.66 L1691.7 1354.63 L1694.94 1357.62 L1698.18 1360.61 L1701.43 1363.59 L1704.67 1366.56 L1707.91 1369.52 L1711.15 1372.45 L1714.4 1375.35 L1717.64 1378.23 L1720.88 1381.06 L1724.13 1383.86 L1727.37 1386.62 L1730.61 1389.34 L1733.86 1392.01 L1737.1 1394.63 L1740.34 1397.21 L1743.59 1399.74 L1746.83 1402.23 L1750.07 1404.67 L1753.31 1407.06 L1756.56 1409.4 L1759.8 1411.7 L1763.04 1413.95 L1766.29 1416.15 L1769.53 1418.29 L1772.77 1420.38 L1776.02 1422.41 L1779.26 1424.37 L1782.5 1426.26 L1785.74 1428.08 L1788.99 1429.82 L1792.23 1431.49 L1795.47 1433.08 L1798.72 1434.58 L1801.96 1435.99 L1805.2 1437.32 L1808.45 1438.55 L1811.69 1439.69 L1814.93 1440.74 L1818.17 1441.69 L1821.42 1442.54 L1824.66 1443.29 L1827.9 1443.95 L1831.15 1444.5 L1834.39 1444.95 L1837.63 1445.3 L1840.88 1445.54 L1844.12 1445.68 L1847.36 1445.72 L1850.61 1445.65 L1853.85 1445.47 L1857.09 1445.19 L1860.33 1444.8 L1863.58 1444.31 L1866.82 1443.71 L1870.06 1443.01 L1873.31 1442.2 L1876.55 1441.29 L1879.79 1440.27 L1883.04 1439.14 L1886.28 1437.91 L1889.52 1436.58 L1892.76 1435.14 L1896.01 1433.6 L1899.25 1431.96 L1902.49 1430.21 L1905.74 1428.37 L1908.98 1426.42 L1912.22 1424.37 L1915.47 1422.22 L1918.71 1419.97 L1921.95 1417.63 L1925.19 1415.18 L1928.44 1412.64 L1931.68 1410 L1934.92 1407.27 L1938.17 1404.44 L1941.41 1401.53 L1944.65 1398.51 L1947.9 1395.41 L1951.14 1392.22 L1954.38 1388.94 L1957.63 1385.57 L1960.87 1382.12 L1964.11 1378.58 L1967.35 1374.96 L1970.6 1371.26 L1973.84 1367.48 L1977.08 1363.63 L1980.33 1359.69 L1983.57 1355.69 L1986.81 1351.61 L1990.06 1347.47 L1993.3 1343.26 L1996.54 1338.99 L1999.78 1334.66 L2003.03 1330.27 L2006.27 1325.83 L2009.51 1321.34 L2012.76 1316.81 L2016 1312.23 L2019.24 1307.61 L2022.49 1302.97 L2025.73 1298.29 L2028.97 1293.59 L2032.21 1288.88 L2035.46 1284.16 L2038.7 1279.43 L2041.94 1274.7 L2045.19 1269.98 L2048.43 1265.27 L2051.67 1260.59 L2054.92 1255.94 L2058.16 1251.33 L2061.4 1246.77 L2064.65 1242.26 L2067.89 1237.82 L2071.13 1233.45 L2074.37 1229.15 L2077.62 1224.92 L2080.86 1220.77 L2084.1 1216.69 L2087.35 1212.69 L2090.59 1208.77 L2093.83 1204.92 L2097.08 1201.15 L2100.32 1197.46 L2103.56 1193.85 L2106.8 1190.33 L2110.05 1186.89 L2113.29 1183.55 L2116.53 1180.3 L2119.78 1177.15 L2123.02 1174.1 L2126.26 1171.15 L2129.51 1168.31 L2132.75 1165.59 L2135.99 1162.96 L2139.23 1160.44 L2142.48 1158.01 L2145.72 1155.69 L2148.96 1153.46 L2152.21 1151.33 L2155.45 1149.3 L2158.69 1147.36 L2161.94 1145.52 L2165.18 1143.78 L2168.42 1142.14 L2171.67 1140.6 L2174.91 1139.16 L2178.15 1137.84 L2181.39 1136.62 L2184.64 1135.52 L2187.88 1134.54 L2191.12 1133.68 L2194.37 1132.95 L2197.61 1132.36 L2200.85 1131.9 L2204.1 1131.59 L2207.34 1131.43 L2210.58 1131.43 L2213.82 1131.57 L2217.07 1131.85 L2220.31 1132.26 L2223.55 1132.8 L2226.8 1133.45 L2230.04 1134.2 L2233.28 1135.06 L2236.53 1136.01 L2239.77 1137.04 L2243.01 1138.15 L2246.25 1139.34 L2249.5 1140.59 L2252.74 1141.9 L2255.98 1143.26 L2259.23 1144.68 L2262.47 1146.14 L2265.71 1147.64 L2268.96 1149.17 L2272.2 1150.74 L2275.44 1152.34 L2278.69 1153.96 L2281.93 1155.6 L2285.17 1157.26 L2288.41 1158.94 L2291.66 1160.62 L2291.66 571.406 L2288.41 576.401 L2285.17 581.441 L2281.93 586.526 L2278.69 591.652 L2275.44 596.817 L2272.2 602.02 L2268.96 607.258 L2265.71 612.528 L2262.47 617.827 L2259.23 623.151 L2255.98 628.498 L2252.74 633.864 L2249.5 639.244 L2246.25 644.634 L2243.01 650.031 L2239.77 655.428 L2236.53 660.821 L2233.28 666.205 L2230.04 671.574 L2226.8 676.923 L2223.55 682.244 L2220.31 687.532 L2217.07 692.779 L2213.82 697.98 L2210.58 703.128 L2207.34 708.214 L2204.1 713.235 L2200.85 718.188 L2197.61 723.076 L2194.37 727.898 L2191.12 732.656 L2187.88 737.349 L2184.64 741.978 L2181.39 746.543 L2178.15 751.043 L2174.91 755.478 L2171.67 759.846 L2168.42 764.146 L2165.18 768.375 L2161.94 772.531 L2158.69 776.61 L2155.45 780.61 L2152.21 784.525 L2148.96 788.352 L2145.72 792.084 L2142.48 795.716 L2139.23 799.243 L2135.99 802.656 L2132.75 805.95 L2129.51 809.117 L2126.26 812.15 L2123.02 815.042 L2119.78 817.795 L2116.53 820.414 L2113.29 822.903 L2110.05 825.263 L2106.8 827.5 L2103.56 829.614 L2100.32 831.609 L2097.08 833.486 L2093.83 835.248 L2090.59 836.894 L2087.35 838.427 L2084.1 839.846 L2080.86 841.151 L2077.62 842.343 L2074.37 843.421 L2071.13 844.385 L2067.89 845.232 L2064.65 845.965 L2061.4 846.593 L2058.16 847.125 L2054.92 847.572 L2051.67 847.944 L2048.43 848.252 L2045.19 848.503 L2041.94 848.709 L2038.7 848.876 L2035.46 849.013 L2032.21 849.129 L2028.97 849.231 L2025.73 849.325 L2022.49 849.419 L2019.24 849.519 L2016 849.631 L2012.76 849.76 L2009.51 849.912 L2006.27 850.092 L2003.03 850.304 L1999.78 850.552 L1996.54 850.842 L1993.3 851.175 L1990.06 851.557 L1986.81 851.989 L1983.57 852.476 L1980.33 853.019 L1977.08 853.622 L1973.84 854.286 L1970.6 855.015 L1967.35 855.809 L1964.11 856.67 L1960.87 857.601 L1957.63 858.602 L1954.38 859.675 L1951.14 860.821 L1947.9 862.041 L1944.65 863.335 L1941.41 864.705 L1938.17 866.15 L1934.92 867.671 L1931.68 869.269 L1928.44 870.943 L1925.19 872.694 L1921.95 874.52 L1918.71 876.423 L1915.47 878.402 L1912.22 880.456 L1908.98 882.584 L1905.74 884.786 L1902.49 887.061 L1899.25 889.408 L1896.01 891.826 L1892.76 894.313 L1889.52 896.869 L1886.28 899.491 L1883.04 902.178 L1879.79 904.928 L1876.55 907.739 L1873.31 910.61 L1870.06 913.538 L1866.82 916.52 L1863.58 919.555 L1860.33 922.639 L1857.09 925.769 L1853.85 928.944 L1850.61 932.158 L1847.36 935.41 L1844.12 938.694 L1840.88 942.009 L1837.63 945.349 L1834.39 948.71 L1831.15 952.088 L1827.9 955.478 L1824.66 958.876 L1821.42 962.275 L1818.17 965.671 L1814.93 969.058 L1811.69 972.429 L1808.45 975.779 L1805.2 979.101 L1801.96 982.387 L1798.72 985.63 L1795.47 988.823 L1792.23 991.957 L1788.99 995.025 L1785.74 998.018 L1782.5 1000.93 L1779.26 1003.74 L1776.02 1006.45 L1772.77 1009.05 L1769.53 1011.52 L1766.29 1013.86 L1763.04 1016.05 L1759.8 1018.08 L1756.56 1019.95 L1753.31 1021.66 L1750.07 1023.2 L1746.83 1024.59 L1743.59 1025.83 L1740.34 1026.93 L1737.1 1027.87 L1733.86 1028.68 L1730.61 1029.35 L1727.37 1029.88 L1724.13 1030.27 L1720.88 1030.53 L1717.64 1030.65 L1714.4 1030.63 L1711.15 1030.48 L1707.91 1030.18 L1704.67 1029.74 L1701.43 1029.14 L1698.18 1028.4 L1694.94 1027.5 L1691.7 1026.43 L1688.45 1025.19 L1685.21 1023.78 L1681.97 1022.17 L1678.72 1020.38 L1675.48 1018.37 L1672.24 1016.16 L1669 1013.73 L1665.75 1011.08 L1662.51 1008.21 L1659.27 1005.12 L1656.02 1001.83 L1652.78 998.337 L1649.54 994.664 L1646.29 990.817 L1643.05 986.809 L1639.81 982.649 L1636.57 978.347 L1633.32 973.911 L1630.08 969.35 L1626.84 964.672 L1623.59 959.884 L1620.35 954.992 L1617.11 950.002 L1613.86 944.918 L1610.62 939.744 L1607.38 934.485 L1604.13 929.144 L1600.89 923.721 L1597.65 918.221 L1594.41 912.643 L1591.16 906.989 L1587.92 901.259 L1584.68 895.454 L1581.43 889.573 L1578.19 883.617 L1574.95 877.585 L1571.7 871.487 L1568.46 865.33 L1565.22 859.123 L1561.98 852.875 L1558.73 846.594 L1555.49 840.287 L1552.25 833.963 L1549 827.629 L1545.76 821.292 L1542.52 814.958 L1539.27 808.634 L1536.03 802.326 L1532.79 796.04 L1529.55 789.781 L1526.3 783.554 L1523.06 777.364 L1519.82 771.216 L1516.57 765.114 L1513.33 759.062 L1510.09 753.065 L1506.84 747.125 L1503.6 741.246 L1500.36 735.431 L1497.11 729.684 L1493.87 724.006 L1490.63 718.401 L1487.39 712.87 L1484.14 707.417 L1480.9 702.042 L1477.66 696.749 L1474.41 691.538 L1471.17 686.412 L1467.93 681.371 L1464.68 676.417 L1461.44 671.551 L1458.2 666.775 L1454.96 662.088 L1451.71 657.492 L1448.47 652.988 L1445.23 648.575 L1441.98 644.255 L1438.74 640.028 L1435.5 635.893 L1432.25 631.851 L1429.01 627.902 L1425.77 624.045 L1422.53 620.281 L1419.28 616.609 L1416.04 613.028 L1412.8 609.538 L1409.55 606.137 L1406.31 602.826 L1403.07 599.603 L1399.82 596.466 L1396.58 593.415 L1393.34 590.448 L1390.1 587.564 L1386.85 584.76 L1383.61 582.035 L1380.37 579.387 L1377.12 576.814 L1373.88 574.312 L1370.64 571.881 L1367.39 569.517 L1364.15 567.216 L1360.91 564.977 L1357.66 562.796 L1354.42 560.669 L1351.18 558.592 L1347.94 556.563 L1344.69 554.576 L1341.45 552.628 L1338.21 550.713 L1334.96 548.829 L1331.72 546.968 L1328.48 545.127 L1325.23 543.301 L1321.99 541.483 L1318.75 539.669 L1315.51 537.852 L1312.26 536.028 L1309.02 534.189 L1305.78 532.331 L1302.53 530.447 L1299.29 528.531 L1296.05 526.579 L1292.8 524.584 L1289.56 522.55 L1286.32 520.479 L1283.08 518.373 L1279.83 516.237 L1276.59 514.073 L1273.35 511.884 L1270.1 509.674 L1266.86 507.445 L1263.62 505.199 L1260.37 502.94 L1257.13 500.669 L1253.89 498.389 L1250.64 496.101 L1247.4 493.806 L1244.16 491.507 L1240.92 489.202 L1237.67 486.894 L1234.43 484.582 L1231.19 482.265 L1227.94 479.944 L1224.7 477.616 L1221.46 475.281 L1218.21 472.937 L1214.97 470.582 L1211.73 468.212 L1208.49 465.826 L1205.24 463.42 L1202 460.99 L1198.76 458.531 L1195.51 456.041 L1192.27 453.513 L1189.03 450.942 L1185.78 448.324 L1182.54 445.652 L1179.3 442.92 L1176.06 440.122 L1172.81 437.252 L1169.57 434.302 L1166.33 431.266 L1163.08 428.136 L1159.84 424.909 L1156.6 421.589 L1153.35 418.185 L1150.11 414.705 L1146.87 411.156 L1143.62 407.547 L1140.38 403.884 L1137.14 400.175 L1133.9 396.427 L1130.65 392.645 L1127.41 388.836 L1124.17 385.006 L1120.92 381.16 L1117.68 377.302 L1114.44 373.438 L1111.19 369.57 L1107.95 365.704 L1104.71 361.84 L1101.47 357.983 L1098.22 354.134 L1094.98 350.294 L1091.74 346.465 L1088.49 342.646 L1085.25 338.839 L1082.01 335.043 L1078.76 331.256 L1075.52 327.476 L1072.28 323.703 L1069.04 319.932 L1065.79 316.162 L1062.55 312.388 L1059.31 308.607 L1056.06 304.813 L1052.82 301.004 L1049.58 297.173 L1046.33 293.315 L1043.09 289.424 L1039.85 285.496 L1036.6 281.524 L1033.36 277.503 L1030.12 273.43 L1026.88 269.306 L1023.63 265.138 L1020.39 260.931 L1017.15 256.694 L1013.9 252.435 L1010.66 248.164 L1007.42 243.891 L1004.17 239.625 L1000.93 235.375 L997.688 231.149 L994.445 226.956 L991.202 222.804 L987.959 218.702 L984.716 214.656 L981.473 210.674 L978.23 206.761 L974.987 202.924 L971.744 199.168 L968.501 195.499 L965.258 191.92 L962.015 188.437 L958.772 185.052 L955.529 181.769 L952.286 178.589 L949.043 175.517 L945.8 172.552 L942.557 169.697 L939.314 166.953 L936.071 164.318 L932.828 161.794 L929.585 159.379 L926.342 157.073 L923.099 154.874 L919.856 152.779 L916.613 150.787 L913.37 148.893 L910.127 147.095 L906.884 145.388 L903.641 143.767 L900.398 142.228 L897.155 140.764 L893.911 139.37 L890.668 138.038 L887.425 136.762 L884.182 135.533 L880.939 134.344 L877.696 133.186 L874.453 132.05 L871.21 130.927 L867.967 129.809 L864.724 128.69 L861.481 127.567 L858.238 126.435 L854.995 125.289 L851.752 124.126 L848.509 122.941 L845.266 121.728 L842.023 120.483 L838.78 119.204 L835.537 117.892 L832.294 116.554 L829.051 115.195 L825.808 113.818 L822.565 112.43 L819.322 111.033 L816.079 109.634 L812.836 108.235 L809.593 106.84 L806.35 105.454 L803.107 104.08 L799.864 102.722 L796.621 101.387 L793.378 100.083 L790.135 98.8158 L786.892 97.5935 L783.648 96.4224 L780.405 95.3085 L777.162 94.2576 L773.919 93.2748 L770.676 92.3649 L767.433 91.5321 L764.19 90.7803 L760.947 90.1127 L757.704 89.5322 L754.461 89.041 L751.218 88.6411 L747.975 88.3339 L744.732 88.1204 L741.489 88.0011 L738.246 87.9763 L735.003 88.0456 L731.76 88.2084 L728.517 88.4638 L725.274 88.8103 L722.031 89.2464 L718.788 89.7699 L715.545 90.3787 L712.302 91.0701 L709.059 91.8414 L705.816 92.6895 L702.573 93.6111 L699.33 94.603 L696.087 95.6616 L692.844 96.7832 L689.601 97.9643 L686.358 99.2011 L683.115 100.49 L679.872 101.827 L676.629 103.211 L673.385 104.642 L670.142 106.123 L666.899 107.656 L663.656 109.244 L660.413 110.89 L657.17 112.597 L653.927 114.366 L650.684 116.2 L647.441 118.102 L644.198 120.073 L640.955 122.116 L637.712 124.233 L634.469 126.425 L631.226 128.694 L627.983 131.042 L624.74 133.468 L621.497 135.976 L618.254 138.564 L615.011 141.235 L611.768 143.988 L608.525 146.824 L605.282 149.743 L602.039 152.745 L598.796 155.829 L595.553 158.995 L592.31 162.243 L589.067 165.571 L585.824 168.978 L582.581 172.464 L579.338 176.027 L576.095 179.665 L572.852 183.376 L569.609 187.158 L566.366 191.01 L563.122 194.929 L559.879 198.912 L556.636 202.956 L553.393 207.058 L550.15 211.215 L546.907 215.424 L543.664 219.68 L540.421 223.98 L537.178 228.32 L533.935 232.694 L530.692 237.099 L527.449 241.529 L524.206 245.979 L520.963 250.444 L517.72 254.917 L514.477 259.394 L511.234 263.866 L507.991 268.329 L504.748 272.774 L501.505 277.196 L498.262 281.586 L495.019 285.938 L491.776 290.243 L488.533 294.494 L485.29 298.683 L482.047 302.802 L478.804 306.846 L475.561 310.816 L472.318 314.717 L469.075 318.554 L465.832 322.331 L462.589 326.053 L459.346 329.723 L456.103 333.346 L452.859 336.925 L449.616 340.463 L446.373 343.964 L443.13 347.429 L439.887 350.862 L436.644 354.264 L433.401 357.637 L430.158 360.982 L426.915 364.3 L423.672 367.591 L420.429 370.857 L417.186 374.095 L413.943 377.307 L410.7 380.491 L407.457 383.645 L404.214 386.771 L400.971 389.871 L397.728 392.95 L394.485 396.012 L391.242 399.061 L387.999 402.099 L384.756 405.13 L381.513 408.155 L378.27 411.177 L375.027 414.197 L371.784 417.214 L368.541 420.229 L365.298 423.24 L362.055 426.245 L358.812 429.242 L355.569 432.227 L352.326 435.196 L349.083 438.143 L345.84 441.062 L342.596 443.946 L339.353 446.787 L336.11 449.575 L332.867 452.3 L329.624 454.952 L326.381 457.518 L323.138 459.986 L319.895 462.342 L316.652 464.572 L313.409 466.66 L310.166 468.592 L306.923 470.353 L303.68 471.936 L300.437 473.335 L297.194 474.545 L293.951 475.559 L290.708 476.371 L287.465 476.976 L284.222 477.368 L280.979 477.542 L277.736 477.493 L274.493 477.217 L271.25 476.712 L268.007 475.989 L264.764 475.061 L261.521 473.941 L258.278 472.644 L255.035 471.182  Z" fill="#3da44d" fill-rule="evenodd" fill-opacity="0.1"/>
<polyline clip-path="url(#clip562)" style="stroke:#3da44d; stroke-linecap:round; stroke-linejoin:round; stroke-width:8; stroke-opacity:1; fill:none" points="255.035,652.738 258.278,651.18 261.521,649.604 264.764,648.01 268.007,646.397 271.25,644.765 274.493,643.114 277.736,641.444 280.979,639.753 284.222,638.041 287.465,636.306 290.708,634.548 293.951,632.764 297.194,630.954 300.437,629.117 303.68,627.252 306.923,625.357 310.166,623.43 313.409,621.473 316.652,619.484 319.895,617.465 323.138,615.417 326.381,613.342 329.624,611.239 332.867,609.11 336.11,606.956 339.353,604.778 342.596,602.577 345.84,600.355 349.083,598.111 352.326,595.847 355.569,593.564 358.812,591.263 362.055,588.945 365.298,586.612 368.541,584.263 371.784,581.901 375.027,579.525 378.27,577.138 381.513,574.74 384.756,572.333 387.999,569.917 391.242,567.493 394.485,565.063 397.728,562.628 400.971,560.189 404.214,557.747 407.457,555.304 410.7,552.859 413.943,550.412 417.186,547.961 420.429,545.505 423.672,543.042 426.915,540.57 430.158,538.088 433.401,535.593 436.644,533.086 439.887,530.563 443.13,528.024 446.373,525.467 449.616,522.891 452.859,520.293 456.103,517.673 459.346,515.028 462.589,512.359 465.832,509.662 469.075,506.937 472.318,504.182 475.561,501.396 478.804,498.577 482.047,495.724 485.29,492.835 488.533,489.912 491.776,486.956 495.019,483.967 498.262,480.947 501.505,477.897 504.748,474.818 507.991,471.711 511.234,468.577 514.477,465.418 517.72,462.234 520.963,459.027 524.206,455.798 527.449,452.548 530.692,449.278 533.935,445.99 537.178,442.685 540.421,439.363 543.664,436.027 546.907,432.678 550.15,429.317 553.393,425.945 556.636,422.564 559.879,419.175 563.122,415.78 566.366,412.379 569.609,408.976 572.852,405.57 576.095,402.164 579.338,398.759 582.581,395.357 585.824,391.959 589.067,388.568 592.31,385.184 595.553,381.81 598.796,378.448 602.039,375.098 605.282,371.764 608.525,368.448 611.768,365.15 615.011,361.873 618.254,358.62 621.497,355.392 624.74,352.192 627.983,349.021 631.226,345.882 634.469,342.778 637.712,339.711 640.955,336.683 644.198,333.697 647.441,330.755 650.684,327.86 653.927,325.016 657.17,322.223 660.413,319.487 663.656,316.808 666.899,314.192 670.142,311.639 673.385,309.155 676.629,306.741 679.872,304.402 683.115,302.14 686.358,299.954 689.601,297.843 692.844,295.806 696.087,293.842 699.33,291.949 702.573,290.126 705.816,288.374 709.059,286.69 712.302,285.074 715.545,283.526 718.788,282.045 722.031,280.63 725.274,279.281 728.517,277.998 731.76,276.78 735.003,275.628 738.246,274.541 741.489,273.519 744.732,272.563 747.975,271.673 751.218,270.848 754.461,270.09 757.704,269.398 760.947,268.774 764.19,268.217 767.433,267.73 770.676,267.311 773.919,266.963 777.162,266.686 780.405,266.481 783.648,266.349 786.892,266.293 790.135,266.312 793.378,266.408 796.621,266.584 799.864,266.839 803.107,267.177 806.35,267.599 809.593,268.101 812.836,268.684 816.079,269.344 819.322,270.08 822.565,270.889 825.808,271.77 829.051,272.722 832.294,273.742 835.537,274.83 838.78,275.983 842.023,277.201 845.266,278.483 848.509,279.827 851.752,281.236 854.995,282.709 858.238,284.247 861.481,285.851 864.724,287.521 867.967,289.258 871.21,291.064 874.453,292.937 877.696,294.878 880.939,296.884 884.182,298.953 887.425,301.084 890.668,303.276 893.911,305.525 897.155,307.832 900.398,310.195 903.641,312.611 906.884,315.081 910.127,317.603 913.37,320.176 916.613,322.799 919.856,325.47 923.099,328.189 926.342,330.956 929.585,333.769 932.828,336.627 936.071,339.531 939.314,342.48 942.557,345.472 945.8,348.508 949.043,351.587 952.286,354.71 955.529,357.875 958.772,361.083 962.015,364.333 965.258,367.626 968.501,370.961 971.744,374.339 974.987,377.759 978.23,381.223 981.473,384.73 984.716,388.28 987.959,391.874 991.202,395.513 994.445,399.196 997.688,402.925 1000.93,406.7 1004.17,410.522 1007.42,414.391 1010.66,418.309 1013.9,422.276 1017.15,426.293 1020.39,430.362 1023.63,434.482 1026.88,438.656 1030.12,442.878 1033.36,447.146 1036.6,451.455 1039.85,455.802 1043.09,460.184 1046.33,464.598 1049.58,469.041 1052.82,473.51 1056.06,478.002 1059.31,482.514 1062.55,487.044 1065.79,491.587 1069.04,496.143 1072.28,500.707 1075.52,505.278 1078.76,509.852 1082.01,514.427 1085.25,519 1088.49,523.569 1091.74,528.131 1094.98,532.684 1098.22,537.224 1101.47,541.749 1104.71,546.258 1107.95,550.746 1111.19,555.213 1114.44,559.654 1117.68,564.069 1120.92,568.453 1124.17,572.805 1127.41,577.123 1130.65,581.403 1133.9,585.644 1137.14,589.842 1140.38,593.995 1143.62,598.101 1146.87,602.157 1150.11,606.16 1153.35,610.109 1156.6,614 1159.84,617.83 1163.08,621.598 1166.33,625.3 1169.57,628.94 1172.81,632.52 1176.06,636.041 1179.3,639.507 1182.54,642.919 1185.78,646.281 1189.03,649.595 1192.27,652.864 1195.51,656.088 1198.76,659.272 1202,662.417 1205.24,665.526 1208.49,668.601 1211.73,671.645 1214.97,674.659 1218.21,677.646 1221.46,680.609 1224.7,683.549 1227.94,686.469 1231.19,689.371 1234.43,692.257 1237.67,695.131 1240.92,697.993 1244.16,700.847 1247.4,703.694 1250.64,706.538 1253.89,709.379 1257.13,712.221 1260.37,715.065 1263.62,717.915 1266.86,720.772 1270.1,723.639 1273.35,726.518 1276.59,729.411 1279.83,732.321 1283.08,735.25 1286.32,738.2 1289.56,741.174 1292.8,744.175 1296.05,747.205 1299.29,750.265 1302.53,753.355 1305.78,756.476 1309.02,759.625 1312.26,762.803 1315.51,766.01 1318.75,769.243 1321.99,772.503 1325.23,775.79 1328.48,779.102 1331.72,782.439 1334.96,785.801 1338.21,789.187 1341.45,792.596 1344.69,796.029 1347.94,799.484 1351.18,802.962 1354.42,806.461 1357.66,809.982 1360.91,813.524 1364.15,817.086 1367.39,820.668 1370.64,824.27 1373.88,827.891 1377.12,831.531 1380.37,835.189 1383.61,838.866 1386.85,842.561 1390.1,846.273 1393.34,850.002 1396.58,853.747 1399.82,857.509 1403.07,861.287 1406.31,865.081 1409.55,868.89 1412.8,872.714 1416.04,876.553 1419.28,880.406 1422.53,884.272 1425.77,888.153 1429.01,892.046 1432.25,895.953 1435.5,899.872 1438.74,903.803 1441.98,907.745 1445.23,911.7 1448.47,915.665 1451.71,919.641 1454.96,923.627 1458.2,927.623 1461.44,931.628 1464.68,935.643 1467.93,939.666 1471.17,943.697 1474.41,947.736 1477.66,951.783 1480.9,955.836 1484.14,959.895 1487.39,963.961 1490.63,968.031 1493.87,972.107 1497.11,976.187 1500.36,980.27 1503.6,984.357 1506.84,988.447 1510.09,992.538 1513.33,996.631 1516.57,1000.72 1519.82,1004.82 1523.06,1008.91 1526.3,1013 1529.55,1017.09 1532.79,1021.18 1536.03,1025.27 1539.27,1029.34 1542.52,1033.42 1545.76,1037.49 1549,1041.55 1552.25,1045.6 1555.49,1049.65 1558.73,1053.69 1561.98,1057.71 1565.22,1061.72 1568.46,1065.73 1571.7,1069.71 1574.95,1073.69 1578.19,1077.64 1581.43,1081.58 1584.68,1085.5 1587.92,1089.4 1591.16,1093.28 1594.41,1097.13 1597.65,1100.96 1600.89,1104.76 1604.13,1108.53 1607.38,1112.26 1610.62,1115.96 1613.86,1119.63 1617.11,1123.26 1620.35,1126.85 1623.59,1130.39 1626.84,1133.89 1630.08,1137.34 1633.32,1140.74 1636.57,1144.09 1639.81,1147.38 1643.05,1150.62 1646.29,1153.8 1649.54,1156.91 1652.78,1159.95 1656.02,1162.93 1659.27,1165.83 1662.51,1168.66 1665.75,1171.41 1669,1174.08 1672.24,1176.68 1675.48,1179.19 1678.72,1181.62 1681.97,1183.97 1685.21,1186.24 1688.45,1188.42 1691.7,1190.53 1694.94,1192.56 1698.18,1194.5 1701.43,1196.37 1704.67,1198.15 1707.91,1199.85 1711.15,1201.46 1714.4,1202.99 1717.64,1204.44 1720.88,1205.8 1724.13,1207.07 1727.37,1208.25 1730.61,1209.34 1733.86,1210.34 1737.1,1211.25 1740.34,1212.07 1743.59,1212.79 1746.83,1213.41 1750.07,1213.93 1753.31,1214.36 1756.56,1214.68 1759.8,1214.89 1763.04,1215 1766.29,1215 1769.53,1214.91 1772.77,1214.71 1776.02,1214.43 1779.26,1214.05 1782.5,1213.59 1785.74,1213.05 1788.99,1212.43 1792.23,1211.72 1795.47,1210.95 1798.72,1210.1 1801.96,1209.19 1805.2,1208.21 1808.45,1207.16 1811.69,1206.06 1814.93,1204.9 1818.17,1203.68 1821.42,1202.41 1824.66,1201.09 1827.9,1199.71 1831.15,1198.29 1834.39,1196.83 1837.63,1195.32 1840.88,1193.78 1844.12,1192.19 1847.36,1190.56 1850.61,1188.9 1853.85,1187.21 1857.09,1185.48 1860.33,1183.72 1863.58,1181.93 1866.82,1180.12 1870.06,1178.27 1873.31,1176.41 1876.55,1174.51 1879.79,1172.6 1883.04,1170.66 1886.28,1168.7 1889.52,1166.72 1892.76,1164.73 1896.01,1162.71 1899.25,1160.68 1902.49,1158.64 1905.74,1156.58 1908.98,1154.5 1912.22,1152.41 1915.47,1150.31 1918.71,1148.2 1921.95,1146.07 1925.19,1143.94 1928.44,1141.79 1931.68,1139.64 1934.92,1137.47 1938.17,1135.3 1941.41,1133.12 1944.65,1130.92 1947.9,1128.73 1951.14,1126.52 1954.38,1124.31 1957.63,1122.09 1960.87,1119.86 1964.11,1117.63 1967.35,1115.39 1970.6,1113.14 1973.84,1110.88 1977.08,1108.62 1980.33,1106.36 1983.57,1104.08 1986.81,1101.8 1990.06,1099.51 1993.3,1097.22 1996.54,1094.92 1999.78,1092.61 2003.03,1090.29 2006.27,1087.96 2009.51,1085.63 2012.76,1083.28 2016,1080.93 2019.24,1078.57 2022.49,1076.19 2025.73,1073.81 2028.97,1071.41 2032.21,1069 2035.46,1066.58 2038.7,1064.15 2041.94,1061.7 2045.19,1059.24 2048.43,1056.76 2051.67,1054.27 2054.92,1051.76 2058.16,1049.23 2061.4,1046.68 2064.65,1044.11 2067.89,1041.53 2071.13,1038.92 2074.37,1036.28 2077.62,1033.63 2080.86,1030.96 2084.1,1028.27 2087.35,1025.56 2090.59,1022.83 2093.83,1020.08 2097.08,1017.32 2100.32,1014.53 2103.56,1011.73 2106.8,1008.91 2110.05,1006.08 2113.29,1003.23 2116.53,1000.36 2119.78,997.471 2123.02,994.569 2126.26,991.651 2129.51,988.716 2132.75,985.768 2135.99,982.808 2139.23,979.84 2142.48,976.865 2145.72,973.887 2148.96,970.907 2152.21,967.929 2155.45,964.955 2158.69,961.986 2161.94,959.027 2165.18,956.078 2168.42,953.142 2171.67,950.223 2174.91,947.321 2178.15,944.44 2181.39,941.582 2184.64,938.749 2187.88,935.943 2191.12,933.168 2194.37,930.425 2197.61,927.716 2200.85,925.045 2204.1,922.413 2207.34,919.823 2210.58,917.277 2213.82,914.774 2217.07,912.314 2220.31,909.896 2223.55,907.52 2226.8,905.184 2230.04,902.888 2233.28,900.632 2236.53,898.414 2239.77,896.234 2243.01,894.091 2246.25,891.985 2249.5,889.915 2252.74,887.88 2255.98,885.88 2259.23,883.914 2262.47,881.982 2265.71,880.083 2268.96,878.216 2272.2,876.382 2275.44,874.578 2278.69,872.806 2281.93,871.064 2285.17,869.351 2288.41,867.668 2291.66,866.014 "/>
<path clip-path="url(#clip560)" d="M1953.46 302.578 L2280.8 302.578 L2280.8 95.2176 L1953.46 95.2176  Z" fill="#ffffff" fill-rule="evenodd" fill-opacity="1"/>
<polyline clip-path="url(#clip560)" style="stroke:#000000; stroke-linecap:round; stroke-linejoin:round; stroke-width:4; stroke-opacity:1; fill:none" points="1953.46,302.578 2280.8,302.578 2280.8,95.2176 1953.46,95.2176 1953.46,302.578 "/>
<polyline clip-path="url(#clip560)" style="stroke:#009af9; stroke-linecap:round; stroke-linejoin:round; stroke-width:4; stroke-opacity:1; fill:none" points="1977.44,147.058 2121.36,147.058 "/>
<path clip-path="url(#clip560)" d="M2152.76 131.051 L2152.76 138.412 L2161.53 138.412 L2161.53 141.722 L2152.76 141.722 L2152.76 155.796 Q2152.76 158.967 2153.61 159.87 Q2154.49 160.773 2157.16 160.773 L2161.53 160.773 L2161.53 164.338 L2157.16 164.338 Q2152.23 164.338 2150.35 162.509 Q2148.48 160.657 2148.48 155.796 L2148.48 141.722 L2145.35 141.722 L2145.35 138.412 L2148.48 138.412 L2148.48 131.051 L2152.76 131.051 Z" fill="#000000" fill-rule="nonzero" fill-opacity="1" /><path clip-path="url(#clip560)" d="M2182.16 142.393 Q2181.44 141.977 2180.58 141.791 Q2179.75 141.583 2178.73 141.583 Q2175.12 141.583 2173.17 143.944 Q2171.25 146.282 2171.25 150.68 L2171.25 164.338 L2166.97 164.338 L2166.97 138.412 L2171.25 138.412 L2171.25 142.44 Q2172.6 140.078 2174.75 138.944 Q2176.9 137.787 2179.98 137.787 Q2180.42 137.787 2180.95 137.856 Q2181.48 137.903 2182.13 138.018 L2182.16 142.393 Z" fill="#000000" fill-rule="nonzero" fill-opacity="1" /><path clip-path="url(#clip560)" d="M2186.18 154.106 L2186.18 138.412 L2190.44 138.412 L2190.44 153.944 Q2190.44 157.625 2191.88 159.476 Q2193.31 161.305 2196.18 161.305 Q2199.63 161.305 2201.62 159.106 Q2203.64 156.907 2203.64 153.111 L2203.64 138.412 L2207.9 138.412 L2207.9 164.338 L2203.64 164.338 L2203.64 160.356 Q2202.09 162.717 2200.03 163.875 Q2197.99 165.009 2195.28 165.009 Q2190.81 165.009 2188.5 162.231 Q2186.18 159.453 2186.18 154.106 M2196.9 137.787 L2196.9 137.787 Z" fill="#000000" fill-rule="nonzero" fill-opacity="1" /><path clip-path="url(#clip560)" d="M2220.88 131.051 L2220.88 138.412 L2229.66 138.412 L2229.66 141.722 L2220.88 141.722 L2220.88 155.796 Q2220.88 158.967 2221.74 159.87 Q2222.62 160.773 2225.28 160.773 L2229.66 160.773 L2229.66 164.338 L2225.28 164.338 Q2220.35 164.338 2218.48 162.509 Q2216.6 160.657 2216.6 155.796 L2216.6 141.722 L2213.48 141.722 L2213.48 138.412 L2216.6 138.412 L2216.6 131.051 L2220.88 131.051 Z" fill="#000000" fill-rule="nonzero" fill-opacity="1" /><path clip-path="url(#clip560)" d="M2256.81 148.689 L2256.81 164.338 L2252.55 164.338 L2252.55 148.828 Q2252.55 145.148 2251.11 143.319 Q2249.68 141.49 2246.81 141.49 Q2243.36 141.49 2241.37 143.69 Q2239.38 145.889 2239.38 149.685 L2239.38 164.338 L2235.1 164.338 L2235.1 128.319 L2239.38 128.319 L2239.38 142.44 Q2240.91 140.102 2242.97 138.944 Q2245.05 137.787 2247.76 137.787 Q2252.23 137.787 2254.52 140.565 Q2256.81 143.319 2256.81 148.689 Z" fill="#000000" fill-rule="nonzero" fill-opacity="1" /><circle clip-path="url(#clip560)" cx="2049.4" cy="198.898" r="20.48" fill="#e26f46" fill-rule="evenodd" fill-opacity="1" stroke="#000000" stroke-opacity="1" stroke-width="4.55111"/>
<path clip-path="url(#clip560)" d="M2164.26 194.187 L2164.26 180.159 L2168.52 180.159 L2168.52 216.178 L2164.26 216.178 L2164.26 212.289 Q2162.92 214.603 2160.86 215.738 Q2158.82 216.849 2155.95 216.849 Q2151.25 216.849 2148.29 213.099 Q2145.35 209.349 2145.35 203.238 Q2145.35 197.127 2148.29 193.377 Q2151.25 189.627 2155.95 189.627 Q2158.82 189.627 2160.86 190.761 Q2162.92 191.872 2164.26 194.187 M2149.75 203.238 Q2149.75 207.937 2151.67 210.622 Q2153.61 213.284 2156.99 213.284 Q2160.37 213.284 2162.32 210.622 Q2164.26 207.937 2164.26 203.238 Q2164.26 198.539 2162.32 195.877 Q2160.37 193.192 2156.99 193.192 Q2153.61 193.192 2151.67 195.877 Q2149.75 198.539 2149.75 203.238 Z" fill="#000000" fill-rule="nonzero" fill-opacity="1" /><path clip-path="url(#clip560)" d="M2189.08 203.145 Q2183.92 203.145 2181.92 204.326 Q2179.93 205.506 2179.93 208.354 Q2179.93 210.622 2181.42 211.965 Q2182.92 213.284 2185.49 213.284 Q2189.03 213.284 2191.16 210.784 Q2193.31 208.261 2193.31 204.094 L2193.31 203.145 L2189.08 203.145 M2197.57 201.386 L2197.57 216.178 L2193.31 216.178 L2193.31 212.242 Q2191.85 214.603 2189.68 215.738 Q2187.5 216.849 2184.36 216.849 Q2180.37 216.849 2178.01 214.627 Q2175.67 212.381 2175.67 208.631 Q2175.67 204.256 2178.59 202.034 Q2181.53 199.812 2187.34 199.812 L2193.31 199.812 L2193.31 199.395 Q2193.31 196.455 2191.37 194.858 Q2189.45 193.238 2185.95 193.238 Q2183.73 193.238 2181.62 193.77 Q2179.52 194.303 2177.57 195.367 L2177.57 191.432 Q2179.91 190.53 2182.11 190.09 Q2184.31 189.627 2186.39 189.627 Q2192.02 189.627 2194.79 192.543 Q2197.57 195.46 2197.57 201.386 Z" fill="#000000" fill-rule="nonzero" fill-opacity="1" /><path clip-path="url(#clip560)" d="M2210.56 182.891 L2210.56 190.252 L2219.33 190.252 L2219.33 193.562 L2210.56 193.562 L2210.56 207.636 Q2210.56 210.807 2211.42 211.71 Q2212.29 212.613 2214.96 212.613 L2219.33 212.613 L2219.33 216.178 L2214.96 216.178 Q2210.03 216.178 2208.15 214.349 Q2206.28 212.497 2206.28 207.636 L2206.28 193.562 L2203.15 193.562 L2203.15 190.252 L2206.28 190.252 L2206.28 182.891 L2210.56 182.891 Z" fill="#000000" fill-rule="nonzero" fill-opacity="1" /><path clip-path="url(#clip560)" d="M2236.72 203.145 Q2231.55 203.145 2229.56 204.326 Q2227.57 205.506 2227.57 208.354 Q2227.57 210.622 2229.05 211.965 Q2230.56 213.284 2233.13 213.284 Q2236.67 213.284 2238.8 210.784 Q2240.95 208.261 2240.95 204.094 L2240.95 203.145 L2236.72 203.145 M2245.21 201.386 L2245.21 216.178 L2240.95 216.178 L2240.95 212.242 Q2239.49 214.603 2237.32 215.738 Q2235.14 216.849 2231.99 216.849 Q2228.01 216.849 2225.65 214.627 Q2223.31 212.381 2223.31 208.631 Q2223.31 204.256 2226.23 202.034 Q2229.17 199.812 2234.98 199.812 L2240.95 199.812 L2240.95 199.395 Q2240.95 196.455 2239.01 194.858 Q2237.09 193.238 2233.59 193.238 Q2231.37 193.238 2229.26 193.77 Q2227.16 194.303 2225.21 195.367 L2225.21 191.432 Q2227.55 190.53 2229.75 190.09 Q2231.95 189.627 2234.03 189.627 Q2239.66 189.627 2242.43 192.543 Q2245.21 195.46 2245.21 201.386 Z" fill="#000000" fill-rule="nonzero" fill-opacity="1" /><polyline clip-path="url(#clip560)" style="stroke:#3da44d; stroke-linecap:round; stroke-linejoin:round; stroke-width:8; stroke-opacity:1; fill:none" points="1977.44,250.738 2121.36,250.738 "/>
<path clip-path="url(#clip560)" d="M2170.91 263.087 L2170.91 253.805 L2163.27 253.805 L2163.27 249.962 L2175.54 249.962 L2175.54 264.8 Q2172.83 266.721 2169.56 267.717 Q2166.3 268.689 2162.6 268.689 Q2154.49 268.689 2149.91 263.967 Q2145.35 259.221 2145.35 250.772 Q2145.35 242.3 2149.91 237.578 Q2154.49 232.833 2162.6 232.833 Q2165.98 232.833 2169.01 233.666 Q2172.06 234.499 2174.63 236.12 L2174.63 241.096 Q2172.04 238.897 2169.12 237.786 Q2166.21 236.675 2162.99 236.675 Q2156.65 236.675 2153.45 240.217 Q2150.28 243.758 2150.28 250.772 Q2150.28 257.763 2153.45 261.305 Q2156.65 264.846 2162.99 264.846 Q2165.47 264.846 2167.41 264.43 Q2169.36 263.99 2170.91 263.087 Z" fill="#000000" fill-rule="nonzero" fill-opacity="1" /><path clip-path="url(#clip560)" d="M2188.75 237.3 L2188.75 250.286 L2194.63 250.286 Q2197.9 250.286 2199.68 248.596 Q2201.46 246.907 2201.46 243.782 Q2201.46 240.68 2199.68 238.99 Q2197.9 237.3 2194.63 237.3 L2188.75 237.3 M2184.08 233.458 L2194.63 233.458 Q2200.44 233.458 2203.41 236.096 Q2206.39 238.712 2206.39 243.782 Q2206.39 248.897 2203.41 251.513 Q2200.44 254.129 2194.63 254.129 L2188.75 254.129 L2188.75 268.018 L2184.08 268.018 L2184.08 233.458 Z" fill="#000000" fill-rule="nonzero" fill-opacity="1" /></svg>
