<?xml version="1.0" encoding="utf-8"?>
<svg xmlns="http://www.w3.org/2000/svg" xmlns:xlink="http://www.w3.org/1999/xlink" width="600" height="400" viewBox="0 0 2400 1600">
<defs>
  <clipPath id="clip790">
    <rect x="0" y="0" width="2400" height="1600"/>
  </clipPath>
</defs>
<path clip-path="url(#clip790)" d="M0 1600 L2400 1600 L2400 0 L0 0  Z" fill="#ffffff" fill-rule="evenodd" fill-opacity="1"/>
<defs>
  <clipPath id="clip791">
    <rect x="480" y="0" width="1681" height="1600"/>
  </clipPath>
</defs>
<path clip-path="url(#clip790)" d="M193.936 1486.45 L2352.76 1486.45 L2352.76 47.2441 L193.936 47.2441  Z" fill="#ffffff" fill-rule="evenodd" fill-opacity="1"/>
<defs>
  <clipPath id="clip792">
    <rect x="193" y="47" width="2160" height="1440"/>
  </clipPath>
</defs>
<polyline clip-path="url(#clip792)" style="stroke:#000000; stroke-linecap:round; stroke-linejoin:round; stroke-width:2; stroke-opacity:0.1; fill:none" points="255.035,1486.45 255.035,47.2441 "/>
<polyline clip-path="url(#clip792)" style="stroke:#000000; stroke-linecap:round; stroke-linejoin:round; stroke-width:2; stroke-opacity:0.1; fill:none" points="579.338,1486.45 579.338,47.2441 "/>
<polyline clip-path="url(#clip792)" style="stroke:#000000; stroke-linecap:round; stroke-linejoin:round; stroke-width:2; stroke-opacity:0.1; fill:none" points="903.641,1486.45 903.641,47.2441 "/>
<polyline clip-path="url(#clip792)" style="stroke:#000000; stroke-linecap:round; stroke-linejoin:round; stroke-width:2; stroke-opacity:0.1; fill:none" points="1227.94,1486.45 1227.94,47.2441 "/>
<polyline clip-path="url(#clip792)" style="stroke:#000000; stroke-linecap:round; stroke-linejoin:round; stroke-width:2; stroke-opacity:0.1; fill:none" points="1552.25,1486.45 1552.25,47.2441 "/>
<polyline clip-path="url(#clip792)" style="stroke:#000000; stroke-linecap:round; stroke-linejoin:round; stroke-width:2; stroke-opacity:0.1; fill:none" points="1876.55,1486.45 1876.55,47.2441 "/>
<polyline clip-path="url(#clip792)" style="stroke:#000000; stroke-linecap:round; stroke-linejoin:round; stroke-width:2; stroke-opacity:0.1; fill:none" points="2200.85,1486.45 2200.85,47.2441 "/>
<polyline clip-path="url(#clip792)" style="stroke:#000000; stroke-linecap:round; stroke-linejoin:round; stroke-width:2; stroke-opacity:0.1; fill:none" points="193.936,1267.38 2352.76,1267.38 "/>
<polyline clip-path="url(#clip792)" style="stroke:#000000; stroke-linecap:round; stroke-linejoin:round; stroke-width:2; stroke-opacity:0.1; fill:none" points="193.936,1004.56 2352.76,1004.56 "/>
<polyline clip-path="url(#clip792)" style="stroke:#000000; stroke-linecap:round; stroke-linejoin:round; stroke-width:2; stroke-opacity:0.1; fill:none" points="193.936,741.747 2352.76,741.747 "/>
<polyline clip-path="url(#clip792)" style="stroke:#000000; stroke-linecap:round; stroke-linejoin:round; stroke-width:2; stroke-opacity:0.1; fill:none" points="193.936,478.933 2352.76,478.933 "/>
<polyline clip-path="url(#clip792)" style="stroke:#000000; stroke-linecap:round; stroke-linejoin:round; stroke-width:2; stroke-opacity:0.1; fill:none" points="193.936,216.118 2352.76,216.118 "/>
<polyline clip-path="url(#clip790)" style="stroke:#000000; stroke-linecap:round; stroke-linejoin:round; stroke-width:4; stroke-opacity:1; fill:none" points="193.936,1486.45 2352.76,1486.45 "/>
<polyline clip-path="url(#clip790)" style="stroke:#000000; stroke-linecap:round; stroke-linejoin:round; stroke-width:4; stroke-opacity:1; fill:none" points="255.035,1486.45 255.035,1467.55 "/>
<polyline clip-path="url(#clip790)" style="stroke:#000000; stroke-linecap:round; stroke-linejoin:round; stroke-width:4; stroke-opacity:1; fill:none" points="579.338,1486.45 579.338,1467.55 "/>
<polyline clip-path="url(#clip790)" style="stroke:#000000; stroke-linecap:round; stroke-linejoin:round; stroke-width:4; stroke-opacity:1; fill:none" points="903.641,1486.45 903.641,1467.55 "/>
<polyline clip-path="url(#clip790)" style="stroke:#000000; stroke-linecap:round; stroke-linejoin:round; stroke-width:4; stroke-opacity:1; fill:none" points="1227.94,1486.45 1227.94,1467.55 "/>
<polyline clip-path="url(#clip790)" style="stroke:#000000; stroke-linecap:round; stroke-linejoin:round; stroke-width:4; stroke-opacity:1; fill:none" points="1552.25,1486.45 1552.25,1467.55 "/>
<polyline clip-path="url(#clip790)" style="stroke:#000000; stroke-linecap:round; stroke-linejoin:round; stroke-width:4; stroke-opacity:1; fill:none" points="1876.55,1486.45 1876.55,1467.55 "/>
<polyline clip-path="url(#clip790)" style="stroke:#000000; stroke-linecap:round; stroke-linejoin:round; stroke-width:4; stroke-opacity:1; fill:none" points="2200.85,1486.45 2200.85,1467.55 "/>
<path clip-path="url(#clip790)" d="M255.035 1517.37 Q251.424 1517.37 249.595 1520.93 Q247.789 1524.47 247.789 1531.6 Q247.789 1538.71 249.595 1542.27 Q251.424 1545.82 255.035 1545.82 Q258.669 1545.82 260.474 1542.27 Q262.303 1538.71 262.303 1531.6 Q262.303 1524.47 260.474 1520.93 Q258.669 1517.37 255.035 1517.37 M255.035 1513.66 Q260.845 1513.66 263.9 1518.27 Q266.979 1522.85 266.979 1531.6 Q266.979 1540.33 263.9 1544.94 Q260.845 1549.52 255.035 1549.52 Q249.225 1549.52 246.146 1544.94 Q243.09 1540.33 243.09 1531.6 Q243.09 1522.85 246.146 1518.27 Q249.225 1513.66 255.035 1513.66 Z" fill="#000000" fill-rule="nonzero" fill-opacity="1" /><path clip-path="url(#clip790)" d="M569.72 1544.91 L577.358 1544.91 L577.358 1518.55 L569.048 1520.21 L569.048 1515.95 L577.312 1514.29 L581.988 1514.29 L581.988 1544.91 L589.627 1544.91 L589.627 1548.85 L569.72 1548.85 L569.72 1544.91 Z" fill="#000000" fill-rule="nonzero" fill-opacity="1" /><path clip-path="url(#clip790)" d="M898.293 1544.91 L914.613 1544.91 L914.613 1548.85 L892.668 1548.85 L892.668 1544.91 Q895.33 1542.16 899.914 1537.53 Q904.52 1532.88 905.701 1531.53 Q907.946 1529.01 908.826 1527.27 Q909.729 1525.51 909.729 1523.82 Q909.729 1521.07 907.784 1519.33 Q905.863 1517.6 902.761 1517.6 Q900.562 1517.6 898.108 1518.36 Q895.678 1519.13 892.9 1520.68 L892.9 1515.95 Q895.724 1514.82 898.178 1514.24 Q900.631 1513.66 902.668 1513.66 Q908.039 1513.66 911.233 1516.35 Q914.428 1519.03 914.428 1523.52 Q914.428 1525.65 913.617 1527.57 Q912.83 1529.47 910.724 1532.07 Q910.145 1532.74 907.043 1535.95 Q903.942 1539.15 898.293 1544.91 Z" fill="#000000" fill-rule="nonzero" fill-opacity="1" /><path clip-path="url(#clip790)" d="M1232.19 1530.21 Q1235.55 1530.93 1237.42 1533.2 Q1239.32 1535.47 1239.32 1538.8 Q1239.32 1543.92 1235.8 1546.72 Q1232.28 1549.52 1225.8 1549.52 Q1223.63 1549.52 1221.31 1549.08 Q1219.02 1548.66 1216.57 1547.81 L1216.57 1543.29 Q1218.51 1544.43 1220.83 1545.01 Q1223.14 1545.58 1225.66 1545.58 Q1230.06 1545.58 1232.35 1543.85 Q1234.67 1542.11 1234.67 1538.8 Q1234.67 1535.75 1232.52 1534.03 Q1230.39 1532.3 1226.57 1532.3 L1222.54 1532.3 L1222.54 1528.45 L1226.75 1528.45 Q1230.2 1528.45 1232.03 1527.09 Q1233.86 1525.7 1233.86 1523.11 Q1233.86 1520.45 1231.96 1519.03 Q1230.08 1517.6 1226.57 1517.6 Q1224.64 1517.6 1222.45 1518.01 Q1220.25 1518.43 1217.61 1519.31 L1217.61 1515.14 Q1220.27 1514.4 1222.58 1514.03 Q1224.92 1513.66 1226.98 1513.66 Q1232.31 1513.66 1235.41 1516.09 Q1238.51 1518.5 1238.51 1522.62 Q1238.51 1525.49 1236.87 1527.48 Q1235.22 1529.45 1232.19 1530.21 Z" fill="#000000" fill-rule="nonzero" fill-opacity="1" /><path clip-path="url(#clip790)" d="M1555.26 1518.36 L1543.45 1536.81 L1555.26 1536.81 L1555.26 1518.36 M1554.03 1514.29 L1559.91 1514.29 L1559.91 1536.81 L1564.84 1536.81 L1564.84 1540.7 L1559.91 1540.7 L1559.91 1548.85 L1555.26 1548.85 L1555.26 1540.7 L1539.65 1540.7 L1539.65 1536.19 L1554.03 1514.29 Z" fill="#000000" fill-rule="nonzero" fill-opacity="1" /><path clip-path="url(#clip790)" d="M1866.83 1514.29 L1885.18 1514.29 L1885.18 1518.22 L1871.11 1518.22 L1871.11 1526.7 Q1872.13 1526.35 1873.15 1526.19 Q1874.17 1526 1875.18 1526 Q1880.97 1526 1884.35 1529.17 Q1887.73 1532.34 1887.73 1537.76 Q1887.73 1543.34 1884.26 1546.44 Q1880.79 1549.52 1874.47 1549.52 Q1872.29 1549.52 1870.02 1549.15 Q1867.78 1548.78 1865.37 1548.04 L1865.37 1543.34 Q1867.45 1544.47 1869.67 1545.03 Q1871.9 1545.58 1874.37 1545.58 Q1878.38 1545.58 1880.72 1543.48 Q1883.05 1541.37 1883.05 1537.76 Q1883.05 1534.15 1880.72 1532.04 Q1878.38 1529.94 1874.37 1529.94 Q1872.5 1529.94 1870.62 1530.35 Q1868.77 1530.77 1866.83 1531.65 L1866.83 1514.29 Z" fill="#000000" fill-rule="nonzero" fill-opacity="1" /><path clip-path="url(#clip790)" d="M2201.26 1529.7 Q2198.11 1529.7 2196.26 1531.86 Q2194.43 1534.01 2194.43 1537.76 Q2194.43 1541.49 2196.26 1543.66 Q2198.11 1545.82 2201.26 1545.82 Q2204.41 1545.82 2206.23 1543.66 Q2208.09 1541.49 2208.09 1537.76 Q2208.09 1534.01 2206.23 1531.86 Q2204.41 1529.7 2201.26 1529.7 M2210.54 1515.05 L2210.54 1519.31 Q2208.78 1518.48 2206.98 1518.04 Q2205.19 1517.6 2203.43 1517.6 Q2198.8 1517.6 2196.35 1520.72 Q2193.92 1523.85 2193.57 1530.17 Q2194.94 1528.15 2197 1527.09 Q2199.06 1526 2201.54 1526 Q2206.74 1526 2209.75 1529.17 Q2212.79 1532.32 2212.79 1537.76 Q2212.79 1543.08 2209.64 1546.3 Q2206.49 1549.52 2201.26 1549.52 Q2195.26 1549.52 2192.09 1544.94 Q2188.92 1540.33 2188.92 1531.6 Q2188.92 1523.41 2192.81 1518.55 Q2196.7 1513.66 2203.25 1513.66 Q2205.01 1513.66 2206.79 1514.01 Q2208.6 1514.36 2210.54 1515.05 Z" fill="#000000" fill-rule="nonzero" fill-opacity="1" /><polyline clip-path="url(#clip790)" style="stroke:#000000; stroke-linecap:round; stroke-linejoin:round; stroke-width:4; stroke-opacity:1; fill:none" points="193.936,1486.45 193.936,47.2441 "/>
<polyline clip-path="url(#clip790)" style="stroke:#000000; stroke-linecap:round; stroke-linejoin:round; stroke-width:4; stroke-opacity:1; fill:none" points="193.936,1267.38 212.834,1267.38 "/>
<polyline clip-path="url(#clip790)" style="stroke:#000000; stroke-linecap:round; stroke-linejoin:round; stroke-width:4; stroke-opacity:1; fill:none" points="193.936,1004.56 212.834,1004.56 "/>
<polyline clip-path="url(#clip790)" style="stroke:#000000; stroke-linecap:round; stroke-linejoin:round; stroke-width:4; stroke-opacity:1; fill:none" points="193.936,741.747 212.834,741.747 "/>
<polyline clip-path="url(#clip790)" style="stroke:#000000; stroke-linecap:round; stroke-linejoin:round; stroke-width:4; stroke-opacity:1; fill:none" points="193.936,478.933 212.834,478.933 "/>
<polyline clip-path="url(#clip790)" style="stroke:#000000; stroke-linecap:round; stroke-linejoin:round; stroke-width:4; stroke-opacity:1; fill:none" points="193.936,216.118 212.834,216.118 "/>
<path clip-path="url(#clip790)" d="M50.9921 1267.83 L80.6679 1267.83 L80.6679 1271.76 L50.9921 1271.76 L50.9921 1267.83 Z" fill="#000000" fill-rule="nonzero" fill-opacity="1" /><path clip-path="url(#clip790)" d="M91.5706 1280.72 L99.2095 1280.72 L99.2095 1254.36 L90.8993 1256.02 L90.8993 1251.76 L99.1632 1250.1 L103.839 1250.1 L103.839 1280.72 L111.478 1280.72 L111.478 1284.66 L91.5706 1284.66 L91.5706 1280.72 Z" fill="#000000" fill-rule="nonzero" fill-opacity="1" /><path clip-path="url(#clip790)" d="M120.922 1278.78 L125.807 1278.78 L125.807 1284.66 L120.922 1284.66 L120.922 1278.78 Z" fill="#000000" fill-rule="nonzero" fill-opacity="1" /><path clip-path="url(#clip790)" d="M145.992 1253.17 Q142.381 1253.17 140.552 1256.74 Q138.746 1260.28 138.746 1267.41 Q138.746 1274.52 140.552 1278.08 Q142.381 1281.62 145.992 1281.62 Q149.626 1281.62 151.431 1278.08 Q153.26 1274.52 153.26 1267.41 Q153.26 1260.28 151.431 1256.74 Q149.626 1253.17 145.992 1253.17 M145.992 1249.47 Q151.802 1249.47 154.857 1254.08 Q157.936 1258.66 157.936 1267.41 Q157.936 1276.14 154.857 1280.74 Q151.802 1285.33 145.992 1285.33 Q140.181 1285.33 137.103 1280.74 Q134.047 1276.14 134.047 1267.41 Q134.047 1258.66 137.103 1254.08 Q140.181 1249.47 145.992 1249.47 Z" fill="#000000" fill-rule="nonzero" fill-opacity="1" /><path clip-path="url(#clip790)" d="M51.9875 1005.01 L81.6633 1005.01 L81.6633 1008.95 L51.9875 1008.95 L51.9875 1005.01 Z" fill="#000000" fill-rule="nonzero" fill-opacity="1" /><path clip-path="url(#clip790)" d="M101.756 990.36 Q98.1447 990.36 96.316 993.925 Q94.5104 997.467 94.5104 1004.6 Q94.5104 1011.7 96.316 1015.27 Q98.1447 1018.81 101.756 1018.81 Q105.39 1018.81 107.196 1015.27 Q109.024 1011.7 109.024 1004.6 Q109.024 997.467 107.196 993.925 Q105.39 990.36 101.756 990.36 M101.756 986.657 Q107.566 986.657 110.621 991.263 Q113.7 995.847 113.7 1004.6 Q113.7 1013.32 110.621 1017.93 Q107.566 1022.51 101.756 1022.51 Q95.9456 1022.51 92.8669 1017.93 Q89.8114 1013.32 89.8114 1004.6 Q89.8114 995.847 92.8669 991.263 Q95.9456 986.657 101.756 986.657 Z" fill="#000000" fill-rule="nonzero" fill-opacity="1" /><path clip-path="url(#clip790)" d="M121.918 1015.96 L126.802 1015.96 L126.802 1021.84 L121.918 1021.84 L121.918 1015.96 Z" fill="#000000" fill-rule="nonzero" fill-opacity="1" /><path clip-path="url(#clip790)" d="M137.033 987.282 L155.39 987.282 L155.39 991.217 L141.316 991.217 L141.316 999.689 Q142.334 999.342 143.353 999.18 Q144.371 998.995 145.39 998.995 Q151.177 998.995 154.556 1002.17 Q157.936 1005.34 157.936 1010.75 Q157.936 1016.33 154.464 1019.43 Q150.992 1022.51 144.672 1022.51 Q142.496 1022.51 140.228 1022.14 Q137.982 1021.77 135.575 1021.03 L135.575 1016.33 Q137.658 1017.47 139.881 1018.02 Q142.103 1018.58 144.58 1018.58 Q148.584 1018.58 150.922 1016.47 Q153.26 1014.36 153.26 1010.75 Q153.26 1007.14 150.922 1005.04 Q148.584 1002.93 144.58 1002.93 Q142.705 1002.93 140.83 1003.35 Q138.978 1003.76 137.033 1004.64 L137.033 987.282 Z" fill="#000000" fill-rule="nonzero" fill-opacity="1" /><path clip-path="url(#clip790)" d="M100.76 727.546 Q97.1493 727.546 95.3206 731.111 Q93.515 734.652 93.515 741.782 Q93.515 748.888 95.3206 752.453 Q97.1493 755.995 100.76 755.995 Q104.395 755.995 106.2 752.453 Q108.029 748.888 108.029 741.782 Q108.029 734.652 106.2 731.111 Q104.395 727.546 100.76 727.546 M100.76 723.842 Q106.571 723.842 109.626 728.449 Q112.705 733.032 112.705 741.782 Q112.705 750.509 109.626 755.115 Q106.571 759.699 100.76 759.699 Q94.9502 759.699 91.8715 755.115 Q88.816 750.509 88.816 741.782 Q88.816 733.032 91.8715 728.449 Q94.9502 723.842 100.76 723.842 Z" fill="#000000" fill-rule="nonzero" fill-opacity="1" /><path clip-path="url(#clip790)" d="M120.922 753.148 L125.807 753.148 L125.807 759.027 L120.922 759.027 L120.922 753.148 Z" fill="#000000" fill-rule="nonzero" fill-opacity="1" /><path clip-path="url(#clip790)" d="M145.992 727.546 Q142.381 727.546 140.552 731.111 Q138.746 734.652 138.746 741.782 Q138.746 748.888 140.552 752.453 Q142.381 755.995 145.992 755.995 Q149.626 755.995 151.431 752.453 Q153.26 748.888 153.26 741.782 Q153.26 734.652 151.431 731.111 Q149.626 727.546 145.992 727.546 M145.992 723.842 Q151.802 723.842 154.857 728.449 Q157.936 733.032 157.936 741.782 Q157.936 750.509 154.857 755.115 Q151.802 759.699 145.992 759.699 Q140.181 759.699 137.103 755.115 Q134.047 750.509 134.047 741.782 Q134.047 733.032 137.103 728.449 Q140.181 723.842 145.992 723.842 Z" fill="#000000" fill-rule="nonzero" fill-opacity="1" /><path clip-path="url(#clip790)" d="M101.756 464.732 Q98.1447 464.732 96.316 468.296 Q94.5104 471.838 94.5104 478.968 Q94.5104 486.074 96.316 489.639 Q98.1447 493.18 101.756 493.18 Q105.39 493.18 107.196 489.639 Q109.024 486.074 109.024 478.968 Q109.024 471.838 107.196 468.296 Q105.39 464.732 101.756 464.732 M101.756 461.028 Q107.566 461.028 110.621 465.634 Q113.7 470.218 113.7 478.968 Q113.7 487.694 110.621 492.301 Q107.566 496.884 101.756 496.884 Q95.9456 496.884 92.8669 492.301 Q89.8114 487.694 89.8114 478.968 Q89.8114 470.218 92.8669 465.634 Q95.9456 461.028 101.756 461.028 Z" fill="#000000" fill-rule="nonzero" fill-opacity="1" /><path clip-path="url(#clip790)" d="M121.918 490.333 L126.802 490.333 L126.802 496.213 L121.918 496.213 L121.918 490.333 Z" fill="#000000" fill-rule="nonzero" fill-opacity="1" /><path clip-path="url(#clip790)" d="M137.033 461.653 L155.39 461.653 L155.39 465.588 L141.316 465.588 L141.316 474.06 Q142.334 473.713 143.353 473.551 Q144.371 473.366 145.39 473.366 Q151.177 473.366 154.556 476.537 Q157.936 479.708 157.936 485.125 Q157.936 490.704 154.464 493.805 Q150.992 496.884 144.672 496.884 Q142.496 496.884 140.228 496.514 Q137.982 496.143 135.575 495.403 L135.575 490.704 Q137.658 491.838 139.881 492.393 Q142.103 492.949 144.58 492.949 Q148.584 492.949 150.922 490.842 Q153.26 488.736 153.26 485.125 Q153.26 481.514 150.922 479.407 Q148.584 477.301 144.58 477.301 Q142.705 477.301 140.83 477.718 Q138.978 478.134 137.033 479.014 L137.033 461.653 Z" fill="#000000" fill-rule="nonzero" fill-opacity="1" /><path clip-path="url(#clip790)" d="M91.5706 229.463 L99.2095 229.463 L99.2095 203.098 L90.8993 204.764 L90.8993 200.505 L99.1632 198.838 L103.839 198.838 L103.839 229.463 L111.478 229.463 L111.478 233.398 L91.5706 233.398 L91.5706 229.463 Z" fill="#000000" fill-rule="nonzero" fill-opacity="1" /><path clip-path="url(#clip790)" d="M120.922 227.519 L125.807 227.519 L125.807 233.398 L120.922 233.398 L120.922 227.519 Z" fill="#000000" fill-rule="nonzero" fill-opacity="1" /><path clip-path="url(#clip790)" d="M145.992 201.917 Q142.381 201.917 140.552 205.482 Q138.746 209.023 138.746 216.153 Q138.746 223.26 140.552 226.824 Q142.381 230.366 145.992 230.366 Q149.626 230.366 151.431 226.824 Q153.26 223.26 153.26 216.153 Q153.26 209.023 151.431 205.482 Q149.626 201.917 145.992 201.917 M145.992 198.213 Q151.802 198.213 154.857 202.82 Q157.936 207.403 157.936 216.153 Q157.936 224.88 154.857 229.486 Q151.802 234.07 145.992 234.07 Q140.181 234.07 137.103 229.486 Q134.047 224.88 134.047 216.153 Q134.047 207.403 137.103 202.82 Q140.181 198.213 145.992 198.213 Z" fill="#000000" fill-rule="nonzero" fill-opacity="1" /><polyline clip-path="url(#clip792)" style="stroke:#009af9; stroke-linecap:round; stroke-linejoin:round; stroke-width:4; stroke-opacity:1; fill:none" points="255.035,741.747 258.278,736.491 261.521,731.235 264.764,725.981 268.007,720.728 271.25,715.477 274.493,710.228 277.736,704.983 280.979,699.742 284.222,694.505 287.465,689.272 290.708,684.045 293.951,678.823 297.194,673.608 300.437,668.399 303.68,663.198 306.923,658.005 310.166,652.82 313.409,647.644 316.652,642.478 319.895,637.321 323.138,632.175 326.381,627.039 329.624,621.916 332.867,616.804 336.11,611.705 339.353,606.618 342.596,601.546 345.84,596.487 349.083,591.443 352.326,586.413 355.569,581.4 358.812,576.402 362.055,571.421 365.298,566.457 368.541,561.51 371.784,556.582 375.027,551.672 378.27,546.781 381.513,541.909 384.756,537.058 387.999,532.227 391.242,527.417 394.485,522.628 397.728,517.861 400.971,513.117 404.214,508.395 407.457,503.697 410.7,499.023 413.943,494.373 417.186,489.747 420.429,485.147 423.672,480.573 426.915,476.024 430.158,471.503 433.401,467.008 436.644,462.54 439.887,458.101 443.13,453.69 446.373,449.308 449.616,444.955 452.859,440.632 456.103,436.338 459.346,432.076 462.589,427.844 465.832,423.644 469.075,419.475 472.318,415.339 475.561,411.235 478.804,407.165 482.047,403.128 485.29,399.125 488.533,395.156 491.776,391.221 495.019,387.322 498.262,383.458 501.505,379.63 504.748,375.838 507.991,372.083 511.234,368.365 514.477,364.684 517.72,361.041 520.963,357.436 524.206,353.869 527.449,350.341 530.692,346.853 533.935,343.403 537.178,339.994 540.421,336.625 543.664,333.296 546.907,330.008 550.15,326.761 553.393,323.556 556.636,320.393 559.879,317.271 563.122,314.193 566.366,311.156 569.609,308.163 572.852,305.214 576.095,302.308 579.338,299.446 582.581,296.628 585.824,293.855 589.067,291.126 592.31,288.443 595.553,285.805 598.796,283.212 602.039,280.665 605.282,278.165 608.525,275.711 611.768,273.303 615.011,270.942 618.254,268.628 621.497,266.362 624.74,264.143 627.983,261.972 631.226,259.849 634.469,257.774 637.712,255.748 640.955,253.77 644.198,251.841 647.441,249.96 650.684,248.129 653.927,246.348 657.17,244.616 660.413,242.934 663.656,241.301 666.899,239.719 670.142,238.186 673.385,236.705 676.629,235.273 679.872,233.893 683.115,232.563 686.358,231.284 689.601,230.056 692.844,228.879 696.087,227.753 699.33,226.679 702.573,225.657 705.816,224.686 709.059,223.766 712.302,222.899 715.545,222.083 718.788,221.32 722.031,220.608 725.274,219.949 728.517,219.341 731.76,218.786 735.003,218.283 738.246,217.833 741.489,217.435 744.732,217.089 747.975,216.796 751.218,216.556 754.461,216.368 757.704,216.232 760.947,216.149 764.19,216.119 767.433,216.141 770.676,216.215 773.919,216.342 777.162,216.522 780.405,216.754 783.648,217.039 786.892,217.376 790.135,217.766 793.378,218.208 796.621,218.703 799.864,219.249 803.107,219.848 806.35,220.5 809.593,221.203 812.836,221.958 816.079,222.766 819.322,223.625 822.565,224.536 825.808,225.499 829.051,226.513 832.294,227.579 835.537,228.696 838.78,229.865 842.023,231.085 845.266,232.355 848.509,233.677 851.752,235.05 854.995,236.473 858.238,237.947 861.481,239.471 864.724,241.046 867.967,242.67 871.21,244.345 874.453,246.069 877.696,247.842 880.939,249.666 884.182,251.538 887.425,253.459 890.668,255.429 893.911,257.448 897.155,259.515 900.398,261.631 903.641,263.794 906.884,266.005 910.127,268.264 913.37,270.57 916.613,272.924 919.856,275.324 923.099,277.771 926.342,280.264 929.585,282.803 932.828,285.389 936.071,288.019 939.314,290.696 942.557,293.417 945.8,296.183 949.043,298.994 952.286,301.849 955.529,304.748 958.772,307.691 962.015,310.677 965.258,313.706 968.501,316.778 971.744,319.893 974.987,323.049 978.23,326.248 981.473,329.488 984.716,332.769 987.959,336.092 991.202,339.455 994.445,342.858 997.688,346.301 1000.93,349.783 1004.17,353.305 1007.42,356.865 1010.66,360.464 1013.9,364.101 1017.15,367.776 1020.39,371.489 1023.63,375.238 1026.88,379.024 1030.12,382.846 1033.36,386.704 1036.6,390.598 1039.85,394.527 1043.09,398.49 1046.33,402.488 1049.58,406.52 1052.82,410.585 1056.06,414.683 1059.31,418.814 1062.55,422.978 1065.79,427.173 1069.04,431.4 1072.28,435.657 1075.52,439.946 1078.76,444.264 1082.01,448.613 1085.25,452.99 1088.49,457.397 1091.74,461.832 1094.98,466.294 1098.22,470.785 1101.47,475.302 1104.71,479.847 1107.95,484.417 1111.19,489.013 1114.44,493.634 1117.68,498.281 1120.92,502.951 1124.17,507.645 1127.41,512.363 1130.65,517.104 1133.9,521.867 1137.14,526.652 1140.38,531.459 1143.62,536.287 1146.87,541.135 1150.11,546.004 1153.35,550.892 1156.6,555.799 1159.84,560.724 1163.08,565.668 1166.33,570.629 1169.57,575.608 1172.81,580.603 1176.06,585.614 1179.3,590.641 1182.54,595.682 1185.78,600.739 1189.03,605.809 1192.27,610.894 1195.51,615.991 1198.76,621.101 1202,626.223 1205.24,631.356 1208.49,636.501 1211.73,641.656 1214.97,646.821 1218.21,651.995 1221.46,657.179 1224.7,662.371 1227.94,667.571 1231.19,672.778 1234.43,677.992 1237.67,683.213 1240.92,688.439 1244.16,693.671 1247.4,698.907 1250.64,704.148 1253.89,709.393 1257.13,714.641 1260.37,719.891 1263.62,725.144 1266.86,730.398 1270.1,735.654 1273.35,740.91 1276.59,746.166 1279.83,751.422 1283.08,756.677 1286.32,761.93 1289.56,767.182 1292.8,772.43 1296.05,777.676 1299.29,782.918 1302.53,788.156 1305.78,793.39 1309.02,798.618 1312.26,803.84 1315.51,809.057 1318.75,814.266 1321.99,819.468 1325.23,824.663 1328.48,829.849 1331.72,835.027 1334.96,840.195 1338.21,845.353 1341.45,850.501 1344.69,855.638 1347.94,860.764 1351.18,865.877 1354.42,870.979 1357.66,876.067 1360.91,881.142 1364.15,886.203 1367.39,891.25 1370.64,896.281 1373.88,901.298 1377.12,906.298 1380.37,911.282 1383.61,916.248 1386.85,921.198 1390.1,926.129 1393.34,931.042 1396.58,935.936 1399.82,940.811 1403.07,945.666 1406.31,950.5 1409.55,955.313 1412.8,960.105 1416.04,964.876 1419.28,969.624 1422.53,974.349 1425.77,979.051 1429.01,983.729 1432.25,988.383 1435.5,993.012 1438.74,997.616 1441.98,1002.2 1445.23,1006.75 1448.47,1011.27 1451.71,1015.77 1454.96,1020.24 1458.2,1024.69 1461.44,1029.1 1464.68,1033.49 1467.93,1037.85 1471.17,1042.18 1474.41,1046.47 1477.66,1050.74 1480.9,1054.98 1484.14,1059.18 1487.39,1063.36 1490.63,1067.5 1493.87,1071.61 1497.11,1075.68 1500.36,1079.73 1503.6,1083.73 1506.84,1087.71 1510.09,1091.65 1513.33,1095.55 1516.57,1099.42 1519.82,1103.26 1523.06,1107.05 1526.3,1110.82 1529.55,1114.54 1532.79,1118.23 1536.03,1121.88 1539.27,1125.49 1542.52,1129.06 1545.76,1132.59 1549,1136.09 1552.25,1139.54 1555.49,1142.96 1558.73,1146.34 1561.98,1149.67 1565.22,1152.97 1568.46,1156.22 1571.7,1159.43 1574.95,1162.6 1578.19,1165.73 1581.43,1168.81 1584.68,1171.86 1587.92,1174.86 1591.16,1177.81 1594.41,1180.73 1597.65,1183.6 1600.89,1186.42 1604.13,1189.2 1607.38,1191.94 1610.62,1194.63 1613.86,1197.27 1617.11,1199.87 1620.35,1202.43 1623.59,1204.93 1626.84,1207.4 1630.08,1209.81 1633.32,1212.18 1636.57,1214.5 1639.81,1216.77 1643.05,1219 1646.29,1221.18 1649.54,1223.31 1652.78,1225.39 1656.02,1227.43 1659.27,1229.41 1662.51,1231.35 1665.75,1233.24 1669,1235.08 1672.24,1236.87 1675.48,1238.61 1678.72,1240.3 1681.97,1241.94 1685.21,1243.53 1688.45,1245.07 1691.7,1246.56 1694.94,1248 1698.18,1249.39 1701.43,1250.72 1704.67,1252.01 1707.91,1253.25 1711.15,1254.43 1714.4,1255.57 1717.64,1256.65 1720.88,1257.68 1724.13,1258.66 1727.37,1259.59 1730.61,1260.46 1733.86,1261.28 1737.1,1262.06 1740.34,1262.78 1743.59,1263.44 1746.83,1264.06 1750.07,1264.62 1753.31,1265.13 1756.56,1265.59 1759.8,1266 1763.04,1266.35 1766.29,1266.66 1769.53,1266.9 1772.77,1267.1 1776.02,1267.24 1779.26,1267.34 1782.5,1267.37 1785.74,1267.36 1788.99,1267.29 1792.23,1267.18 1795.47,1267 1798.72,1266.78 1801.96,1266.5 1805.2,1266.18 1808.45,1265.79 1811.69,1265.36 1814.93,1264.87 1818.17,1264.34 1821.42,1263.75 1824.66,1263.1 1827.9,1262.41 1831.15,1261.66 1834.39,1260.86 1837.63,1260.01 1840.88,1259.11 1844.12,1258.15 1847.36,1257.15 1850.61,1256.09 1853.85,1254.98 1857.09,1253.82 1860.33,1252.61 1863.58,1251.34 1866.82,1250.03 1870.06,1248.67 1873.31,1247.25 1876.55,1245.79 1879.79,1244.27 1883.04,1242.7 1886.28,1241.09 1889.52,1239.42 1892.76,1237.7 1896.01,1235.94 1899.25,1234.12 1902.49,1232.26 1905.74,1230.34 1908.98,1228.38 1912.22,1226.37 1915.47,1224.31 1918.71,1222.2 1921.95,1220.05 1925.19,1217.84 1928.44,1215.59 1931.68,1213.29 1934.92,1210.95 1938.17,1208.56 1941.41,1206.12 1944.65,1203.63 1947.9,1201.1 1951.14,1198.52 1954.38,1195.9 1957.63,1193.23 1960.87,1190.51 1964.11,1187.75 1967.35,1184.95 1970.6,1182.1 1973.84,1179.21 1977.08,1176.28 1980.33,1173.3 1983.57,1170.27 1986.81,1167.21 1990.06,1164.1 1993.3,1160.95 1996.54,1157.76 1999.78,1154.53 2003.03,1151.25 2006.27,1147.93 2009.51,1144.58 2012.76,1141.18 2016,1137.75 2019.24,1134.27 2022.49,1130.75 2025.73,1127.2 2028.97,1123.61 2032.21,1119.98 2035.46,1116.31 2038.7,1112.6 2041.94,1108.86 2045.19,1105.08 2048.43,1101.26 2051.67,1097.41 2054.92,1093.52 2058.16,1089.6 2061.4,1085.64 2064.65,1081.65 2067.89,1077.62 2071.13,1073.56 2074.37,1069.47 2077.62,1065.34 2080.86,1061.18 2084.1,1056.99 2087.35,1052.77 2090.59,1048.52 2093.83,1044.23 2097.08,1039.92 2100.32,1035.58 2103.56,1031.2 2106.8,1026.8 2110.05,1022.37 2113.29,1017.91 2116.53,1013.43 2119.78,1008.91 2123.02,1004.37 2126.26,999.807 2129.51,995.215 2132.75,990.598 2135.99,985.956 2139.23,981.289 2142.48,976.598 2145.72,971.884 2148.96,967.147 2152.21,962.387 2155.45,957.606 2158.69,952.802 2161.94,947.978 2165.18,943.133 2168.42,938.268 2171.67,933.383 2174.91,928.479 2178.15,923.556 2181.39,918.615 2184.64,913.657 2187.88,908.681 2191.12,903.689 2194.37,898.68 2197.61,893.656 2200.85,888.616 2204.1,883.562 2207.34,878.494 2210.58,873.412 2213.82,868.316 2217.07,863.208 2220.31,858.088 2223.55,852.957 2226.8,847.814 2230.04,842.661 2233.28,837.497 2236.53,832.324 2239.77,827.142 2243.01,821.951 2246.25,816.753 2249.5,811.547 2252.74,806.333 2255.98,801.114 2259.23,795.888 2262.47,790.657 2265.71,785.421 2268.96,780.181 2272.2,774.937 2275.44,769.69 2278.69,764.44 2281.93,759.187 2285.17,753.933 2288.41,748.678 2291.66,743.422 "/>
<circle clip-path="url(#clip792)" cx="1111.19" cy="537.78" r="14.4" fill="#e26f46" fill-rule="evenodd" fill-opacity="1" stroke="#000000" stroke-opacity="1" stroke-width="3.2"/>
<circle clip-path="url(#clip792)" cx="786.892" cy="335.582" r="14.4" fill="#e26f46" fill-rule="evenodd" fill-opacity="1" stroke="#000000" stroke-opacity="1" stroke-width="3.2"/>
<circle clip-path="url(#clip792)" cx="955.529" cy="381.611" r="14.4" fill="#e26f46" fill-rule="evenodd" fill-opacity="1" stroke="#000000" stroke-opacity="1" stroke-width="3.2"/>
<circle clip-path="url(#clip792)" cx="773.919" cy="165.206" r="14.4" fill="#e26f46" fill-rule="evenodd" fill-opacity="1" stroke="#000000" stroke-opacity="1" stroke-width="3.2"/>
<circle clip-path="url(#clip792)" cx="936.071" cy="170.331" r="14.4" fill="#e26f46" fill-rule="evenodd" fill-opacity="1" stroke="#000000" stroke-opacity="1" stroke-width="3.2"/>
<circle clip-path="url(#clip792)" cx="1737.1" cy="1351.25" r="14.4" fill="#e26f46" fill-rule="evenodd" fill-opacity="1" stroke="#000000" stroke-opacity="1" stroke-width="3.2"/>
<circle clip-path="url(#clip792)" cx="2165.18" cy="830.427" r="14.4" fill="#e26f46" fill-rule="evenodd" fill-opacity="1" stroke="#000000" stroke-opacity="1" stroke-width="3.2"/>
<circle clip-path="url(#clip792)" cx="1069.04" cy="522.289" r="14.4" fill="#e26f46" fill-rule="evenodd" fill-opacity="1" stroke="#000000" stroke-opacity="1" stroke-width="3.2"/>
<circle clip-path="url(#clip792)" cx="939.314" cy="408.115" r="14.4" fill="#e26f46" fill-rule="evenodd" fill-opacity="1" stroke="#000000" stroke-opacity="1" stroke-width="3.2"/>
<circle clip-path="url(#clip792)" cx="1711.15" cy="1329.93" r="14.4" fill="#e26f46" fill-rule="evenodd" fill-opacity="1" stroke="#000000" stroke-opacity="1" stroke-width="3.2"/>
<circle clip-path="url(#clip792)" cx="1033.36" cy="398.547" r="14.4" fill="#e26f46" fill-rule="evenodd" fill-opacity="1" stroke="#000000" stroke-opacity="1" stroke-width="3.2"/>
<circle clip-path="url(#clip792)" cx="2129.51" cy="1054.25" r="14.4" fill="#e26f46" fill-rule="evenodd" fill-opacity="1" stroke="#000000" stroke-opacity="1" stroke-width="3.2"/>
<circle clip-path="url(#clip792)" cx="339.353" cy="549.076" r="14.4" fill="#e26f46" fill-rule="evenodd" fill-opacity="1" stroke="#000000" stroke-opacity="1" stroke-width="3.2"/>
<circle clip-path="url(#clip792)" cx="1795.47" cy="1140.54" r="14.4" fill="#e26f46" fill-rule="evenodd" fill-opacity="1" stroke="#000000" stroke-opacity="1" stroke-width="3.2"/>
<circle clip-path="url(#clip792)" cx="1688.45" cy="1325.38" r="14.4" fill="#e26f46" fill-rule="evenodd" fill-opacity="1" stroke="#000000" stroke-opacity="1" stroke-width="3.2"/>
<circle clip-path="url(#clip792)" cx="1059.31" cy="485.927" r="14.4" fill="#e26f46" fill-rule="evenodd" fill-opacity="1" stroke="#000000" stroke-opacity="1" stroke-width="3.2"/>
<circle clip-path="url(#clip792)" cx="1925.19" cy="1239.84" r="14.4" fill="#e26f46" fill-rule="evenodd" fill-opacity="1" stroke="#000000" stroke-opacity="1" stroke-width="3.2"/>
<circle clip-path="url(#clip792)" cx="527.449" cy="378.869" r="14.4" fill="#e26f46" fill-rule="evenodd" fill-opacity="1" stroke="#000000" stroke-opacity="1" stroke-width="3.2"/>
<circle clip-path="url(#clip792)" cx="657.17" cy="222.558" r="14.4" fill="#e26f46" fill-rule="evenodd" fill-opacity="1" stroke="#000000" stroke-opacity="1" stroke-width="3.2"/>
<circle clip-path="url(#clip792)" cx="1296.05" cy="808.48" r="14.4" fill="#e26f46" fill-rule="evenodd" fill-opacity="1" stroke="#000000" stroke-opacity="1" stroke-width="3.2"/>
<path clip-path="url(#clip792)" d="M255.035 923.647 L258.278 918.858 L261.521 914.055 L264.764 909.241 L268.007 904.418 L271.25 899.591 L274.493 894.763 L277.736 889.937 L280.979 885.119 L284.222 880.313 L287.465 875.523 L290.708 870.754 L293.951 866.011 L297.194 861.3 L300.437 856.627 L303.68 851.996 L306.923 847.413 L310.166 842.886 L313.409 838.42 L316.652 834.022 L319.895 829.698 L323.138 825.455 L326.381 821.299 L329.624 817.238 L332.867 813.277 L336.11 809.423 L339.353 805.683 L342.596 802.06 L345.84 798.549 L349.083 795.143 L352.326 791.833 L355.569 788.611 L358.812 785.47 L362.055 782.401 L365.298 779.395 L368.541 776.446 L371.784 773.545 L375.027 770.685 L378.27 767.857 L381.513 765.056 L384.756 762.273 L387.999 759.502 L391.242 756.738 L394.485 753.973 L397.728 751.202 L400.971 748.42 L404.214 745.622 L407.457 742.802 L410.7 739.958 L413.943 737.084 L417.186 734.179 L420.429 731.237 L423.672 728.257 L426.915 725.236 L430.158 722.173 L433.401 719.065 L436.644 715.911 L439.887 712.711 L443.13 709.464 L446.373 706.171 L449.616 702.83 L452.859 699.443 L456.103 696.011 L459.346 692.535 L462.589 689.016 L465.832 685.458 L469.075 681.862 L472.318 678.231 L475.561 674.569 L478.804 670.879 L482.047 667.164 L485.29 663.429 L488.533 659.678 L491.776 655.917 L495.019 652.15 L498.262 648.383 L501.505 644.623 L504.748 640.873 L507.991 637.142 L511.234 633.436 L514.477 629.761 L517.72 626.125 L520.963 622.533 L524.206 618.994 L527.449 615.515 L530.692 612.1 L533.935 608.746 L537.178 605.449 L540.421 602.201 L543.664 599 L546.907 595.839 L550.15 592.713 L553.393 589.618 L556.636 586.55 L559.879 583.504 L563.122 580.476 L566.366 577.463 L569.609 574.461 L572.852 571.468 L576.095 568.481 L579.338 565.499 L582.581 562.52 L585.824 559.541 L589.067 556.564 L592.31 553.587 L595.553 550.61 L598.796 547.635 L602.039 544.661 L605.282 541.692 L608.525 538.727 L611.768 535.771 L615.011 532.825 L618.254 529.894 L621.497 526.98 L624.74 524.088 L627.983 521.222 L631.226 518.389 L634.469 515.592 L637.712 512.838 L640.955 510.132 L644.198 507.483 L647.441 504.895 L650.684 502.377 L653.927 499.935 L657.17 497.578 L660.413 495.31 L663.656 493.127 L666.899 491.023 L670.142 488.992 L673.385 487.027 L676.629 485.123 L679.872 483.275 L683.115 481.477 L686.358 479.726 L689.601 478.017 L692.844 476.346 L696.087 474.711 L699.33 473.108 L702.573 471.537 L705.816 469.994 L709.059 468.48 L712.302 466.994 L715.545 465.536 L718.788 464.107 L722.031 462.71 L725.274 461.345 L728.517 460.016 L731.76 458.726 L735.003 457.479 L738.246 456.28 L741.489 455.134 L744.732 454.048 L747.975 453.027 L751.218 452.079 L754.461 451.211 L757.704 450.432 L760.947 449.749 L764.19 449.172 L767.433 448.71 L770.676 448.372 L773.919 448.168 L777.162 448.105 L780.405 448.18 L783.648 448.387 L786.892 448.721 L790.135 449.176 L793.378 449.741 L796.621 450.404 L799.864 451.154 L803.107 451.979 L806.35 452.87 L809.593 453.815 L812.836 454.805 L816.079 455.83 L819.322 456.88 L822.565 457.948 L825.808 459.026 L829.051 460.106 L832.294 461.182 L835.537 462.249 L838.78 463.3 L842.023 464.332 L845.266 465.339 L848.509 466.32 L851.752 467.272 L854.995 468.192 L858.238 469.08 L861.481 469.934 L864.724 470.756 L867.967 471.545 L871.21 472.304 L874.453 473.033 L877.696 473.738 L880.939 474.42 L884.182 475.084 L887.425 475.736 L890.668 476.38 L893.911 477.024 L897.155 477.676 L900.398 478.342 L903.641 479.032 L906.884 479.755 L910.127 480.523 L913.37 481.345 L916.613 482.235 L919.856 483.204 L923.099 484.266 L926.342 485.435 L929.585 486.726 L932.828 488.152 L936.071 489.729 L939.314 491.469 L942.557 493.373 L945.8 495.435 L949.043 497.649 L952.286 500.009 L955.529 502.51 L958.772 505.143 L962.015 507.899 L965.258 510.765 L968.501 513.73 L971.744 516.783 L974.987 519.915 L978.23 523.117 L981.473 526.38 L984.716 529.698 L987.959 533.064 L991.202 536.474 L994.445 539.924 L997.688 543.411 L1000.93 546.934 L1004.17 550.494 L1007.42 554.091 L1010.66 557.728 L1013.9 561.408 L1017.15 565.137 L1020.39 568.92 L1023.63 572.765 L1026.88 576.679 L1030.12 580.674 L1033.36 584.757 L1036.6 588.939 L1039.85 593.224 L1043.09 597.613 L1046.33 602.11 L1049.58 606.719 L1052.82 611.444 L1056.06 616.289 L1059.31 621.26 L1062.55 626.36 L1065.79 631.588 L1069.04 636.944 L1072.28 642.425 L1075.52 648.023 L1078.76 653.732 L1082.01 659.545 L1085.25 665.455 L1088.49 671.456 L1091.74 677.542 L1094.98 683.708 L1098.22 689.95 L1101.47 696.263 L1104.71 702.644 L1107.95 709.09 L1111.19 715.599 L1114.44 722.166 L1117.68 728.782 L1120.92 735.437 L1124.17 742.12 L1127.41 748.821 L1130.65 755.532 L1133.9 762.243 L1137.14 768.946 L1140.38 775.635 L1143.62 782.301 L1146.87 788.938 L1150.11 795.542 L1153.35 802.105 L1156.6 808.623 L1159.84 815.093 L1163.08 821.508 L1166.33 827.868 L1169.57 834.167 L1172.81 840.405 L1176.06 846.577 L1179.3 852.684 L1182.54 858.723 L1185.78 864.693 L1189.03 870.594 L1192.27 876.426 L1195.51 882.188 L1198.76 887.881 L1202 893.506 L1205.24 899.065 L1208.49 904.558 L1211.73 909.988 L1214.97 915.356 L1218.21 920.666 L1221.46 925.921 L1224.7 931.122 L1227.94 936.275 L1231.19 941.382 L1234.43 946.449 L1237.67 951.479 L1240.92 956.478 L1244.16 961.45 L1247.4 966.401 L1250.64 971.337 L1253.89 976.264 L1257.13 981.188 L1260.37 986.116 L1263.62 991.054 L1266.86 996.009 L1270.1 1000.99 L1273.35 1006 L1276.59 1011.05 L1279.83 1016.15 L1283.08 1021.3 L1286.32 1026.51 L1289.56 1031.8 L1292.8 1037.15 L1296.05 1042.6 L1299.29 1048.13 L1302.53 1053.74 L1305.78 1059.44 L1309.02 1065.21 L1312.26 1071.05 L1315.51 1076.95 L1318.75 1082.9 L1321.99 1088.91 L1325.23 1094.96 L1328.48 1101.05 L1331.72 1107.17 L1334.96 1113.32 L1338.21 1119.49 L1341.45 1125.67 L1344.69 1131.87 L1347.94 1138.07 L1351.18 1144.28 L1354.42 1150.48 L1357.66 1156.68 L1360.91 1162.86 L1364.15 1169.03 L1367.39 1175.18 L1370.64 1181.31 L1373.88 1187.41 L1377.12 1193.48 L1380.37 1199.51 L1383.61 1205.52 L1386.85 1211.48 L1390.1 1217.4 L1393.34 1223.28 L1396.58 1229.11 L1399.82 1234.9 L1403.07 1240.63 L1406.31 1246.31 L1409.55 1251.94 L1412.8 1257.51 L1416.04 1263.02 L1419.28 1268.47 L1422.53 1273.86 L1425.77 1279.18 L1429.01 1284.44 L1432.25 1289.64 L1435.5 1294.76 L1438.74 1299.82 L1441.98 1304.81 L1445.23 1309.72 L1448.47 1314.57 L1451.71 1319.34 L1454.96 1324.03 L1458.2 1328.65 L1461.44 1333.2 L1464.68 1337.66 L1467.93 1342.05 L1471.17 1346.36 L1474.41 1350.58 L1477.66 1354.73 L1480.9 1358.79 L1484.14 1362.77 L1487.39 1366.67 L1490.63 1370.48 L1493.87 1374.2 L1497.11 1377.84 L1500.36 1381.4 L1503.6 1384.86 L1506.84 1388.24 L1510.09 1391.52 L1513.33 1394.72 L1516.57 1397.82 L1519.82 1400.84 L1523.06 1403.76 L1526.3 1406.59 L1529.55 1409.32 L1532.79 1411.96 L1536.03 1414.51 L1539.27 1416.95 L1542.52 1419.31 L1545.76 1421.56 L1549 1423.72 L1552.25 1425.77 L1555.49 1427.73 L1558.73 1429.59 L1561.98 1431.35 L1565.22 1433.01 L1568.46 1434.57 L1571.7 1436.03 L1574.95 1437.38 L1578.19 1438.63 L1581.43 1439.78 L1584.68 1440.83 L1587.92 1441.78 L1591.16 1442.62 L1594.41 1443.36 L1597.65 1444 L1600.89 1444.54 L1604.13 1444.97 L1607.38 1445.31 L1610.62 1445.54 L1613.86 1445.68 L1617.11 1445.72 L1620.35 1445.66 L1623.59 1445.5 L1626.84 1445.26 L1630.08 1444.92 L1633.32 1444.49 L1636.57 1443.98 L1639.81 1443.38 L1643.05 1442.71 L1646.29 1441.96 L1649.54 1441.14 L1652.78 1440.25 L1656.02 1439.3 L1659.27 1438.29 L1662.51 1437.23 L1665.75 1436.13 L1669 1435 L1672.24 1433.83 L1675.48 1432.65 L1678.72 1431.45 L1681.97 1430.26 L1685.21 1429.06 L1688.45 1427.89 L1691.7 1426.74 L1694.94 1425.62 L1698.18 1424.54 L1701.43 1423.5 L1704.67 1422.5 L1707.91 1421.56 L1711.15 1420.66 L1714.4 1419.82 L1717.64 1419.04 L1720.88 1418.31 L1724.13 1417.63 L1727.37 1417.01 L1730.61 1416.43 L1733.86 1415.9 L1737.1 1415.42 L1740.34 1414.97 L1743.59 1414.57 L1746.83 1414.19 L1750.07 1413.84 L1753.31 1413.52 L1756.56 1413.21 L1759.8 1412.92 L1763.04 1412.64 L1766.29 1412.38 L1769.53 1412.12 L1772.77 1411.87 L1776.02 1411.63 L1779.26 1411.4 L1782.5 1411.19 L1785.74 1410.98 L1788.99 1410.8 L1792.23 1410.64 L1795.47 1410.5 L1798.72 1410.39 L1801.96 1410.3 L1805.2 1410.22 L1808.45 1410.15 L1811.69 1410.07 L1814.93 1409.98 L1818.17 1409.87 L1821.42 1409.74 L1824.66 1409.57 L1827.9 1409.37 L1831.15 1409.12 L1834.39 1408.83 L1837.63 1408.5 L1840.88 1408.1 L1844.12 1407.66 L1847.36 1407.15 L1850.61 1406.58 L1853.85 1405.96 L1857.09 1405.26 L1860.33 1404.51 L1863.58 1403.69 L1866.82 1402.81 L1870.06 1401.87 L1873.31 1400.86 L1876.55 1399.79 L1879.79 1398.66 L1883.04 1397.48 L1886.28 1396.23 L1889.52 1394.94 L1892.76 1393.59 L1896.01 1392.2 L1899.25 1390.76 L1902.49 1389.28 L1905.74 1387.77 L1908.98 1386.22 L1912.22 1384.64 L1915.47 1383.03 L1918.71 1381.4 L1921.95 1379.75 L1925.19 1378.08 L1928.44 1376.4 L1931.68 1374.71 L1934.92 1372.99 L1938.17 1371.25 L1941.41 1369.48 L1944.65 1367.68 L1947.9 1365.85 L1951.14 1363.97 L1954.38 1362.05 L1957.63 1360.08 L1960.87 1358.06 L1964.11 1355.98 L1967.35 1353.84 L1970.6 1351.64 L1973.84 1349.38 L1977.08 1347.05 L1980.33 1344.64 L1983.57 1342.17 L1986.81 1339.62 L1990.06 1336.99 L1993.3 1334.29 L1996.54 1331.5 L1999.78 1328.64 L2003.03 1325.69 L2006.27 1322.66 L2009.51 1319.55 L2012.76 1316.35 L2016 1313.07 L2019.24 1309.71 L2022.49 1306.26 L2025.73 1302.73 L2028.97 1299.13 L2032.21 1295.44 L2035.46 1291.68 L2038.7 1287.84 L2041.94 1283.93 L2045.19 1279.94 L2048.43 1275.89 L2051.67 1271.78 L2054.92 1267.61 L2058.16 1263.38 L2061.4 1259.09 L2064.65 1254.76 L2067.89 1250.39 L2071.13 1245.99 L2074.37 1241.55 L2077.62 1237.1 L2080.86 1232.63 L2084.1 1228.15 L2087.35 1223.67 L2090.59 1219.21 L2093.83 1214.76 L2097.08 1210.35 L2100.32 1205.97 L2103.56 1201.65 L2106.8 1197.39 L2110.05 1193.21 L2113.29 1189.12 L2116.53 1185.13 L2119.78 1181.26 L2123.02 1177.51 L2126.26 1173.91 L2129.51 1170.47 L2132.75 1167.19 L2135.99 1164.09 L2139.23 1161.18 L2142.48 1158.46 L2145.72 1155.93 L2148.96 1153.61 L2152.21 1151.5 L2155.45 1149.6 L2158.69 1147.93 L2161.94 1146.48 L2165.18 1145.26 L2168.42 1144.28 L2171.67 1143.52 L2174.91 1142.97 L2178.15 1142.63 L2181.39 1142.47 L2184.64 1142.49 L2187.88 1142.67 L2191.12 1143.01 L2194.37 1143.49 L2197.61 1144.1 L2200.85 1144.83 L2204.1 1145.68 L2207.34 1146.63 L2210.58 1147.67 L2213.82 1148.8 L2217.07 1150.01 L2220.31 1151.29 L2223.55 1152.64 L2226.8 1154.04 L2230.04 1155.5 L2233.28 1157 L2236.53 1158.55 L2239.77 1160.13 L2243.01 1161.74 L2246.25 1163.38 L2249.5 1165.04 L2252.74 1166.72 L2255.98 1168.42 L2259.23 1170.12 L2262.47 1171.84 L2265.71 1173.57 L2268.96 1175.3 L2272.2 1177.03 L2275.44 1178.76 L2278.69 1180.49 L2281.93 1182.22 L2285.17 1183.93 L2288.41 1185.64 L2291.66 1187.34 L2291.66 497.729 L2288.41 502.687 L2285.17 507.707 L2281.93 512.788 L2278.69 517.929 L2275.44 523.13 L2272.2 528.388 L2268.96 533.704 L2265.71 539.075 L2262.47 544.501 L2259.23 549.979 L2255.98 555.507 L2252.74 561.085 L2249.5 566.708 L2246.25 572.376 L2243.01 578.085 L2239.77 583.831 L2236.53 589.613 L2233.28 595.425 L2230.04 601.266 L2226.8 607.129 L2223.55 613.01 L2220.31 618.906 L2217.07 624.809 L2213.82 630.715 L2210.58 636.617 L2207.34 642.509 L2204.1 648.384 L2200.85 654.235 L2197.61 660.053 L2194.37 665.829 L2191.12 671.557 L2187.88 677.225 L2184.64 682.825 L2181.39 688.347 L2178.15 693.781 L2174.91 699.115 L2171.67 704.34 L2168.42 709.445 L2165.18 714.419 L2161.94 719.254 L2158.69 723.943 L2155.45 728.483 L2152.21 732.871 L2148.96 737.103 L2145.72 741.176 L2142.48 745.088 L2139.23 748.836 L2135.99 752.417 L2132.75 755.83 L2129.51 759.072 L2126.26 762.145 L2123.02 765.059 L2119.78 767.83 L2116.53 770.47 L2113.29 772.994 L2110.05 775.415 L2106.8 777.746 L2103.56 780.001 L2100.32 782.191 L2097.08 784.328 L2093.83 786.423 L2090.59 788.488 L2087.35 790.531 L2084.1 792.563 L2080.86 794.593 L2077.62 796.627 L2074.37 798.675 L2071.13 800.743 L2067.89 802.837 L2064.65 804.964 L2061.4 807.128 L2058.16 809.335 L2054.92 811.589 L2051.67 813.893 L2048.43 816.251 L2045.19 818.667 L2041.94 821.141 L2038.7 823.678 L2035.46 826.277 L2032.21 828.94 L2028.97 831.669 L2025.73 834.464 L2022.49 837.324 L2019.24 840.25 L2016 843.241 L2012.76 846.297 L2009.51 849.415 L2006.27 852.594 L2003.03 855.834 L1999.78 859.13 L1996.54 862.481 L1993.3 865.884 L1990.06 869.335 L1986.81 872.832 L1983.57 876.369 L1980.33 879.944 L1977.08 883.552 L1973.84 887.188 L1970.6 890.846 L1967.35 894.522 L1964.11 898.21 L1960.87 901.903 L1957.63 905.597 L1954.38 909.283 L1951.14 912.955 L1947.9 916.606 L1944.65 920.229 L1941.41 923.817 L1938.17 927.361 L1934.92 930.853 L1931.68 934.287 L1928.44 937.653 L1925.19 940.943 L1921.95 944.153 L1918.71 947.287 L1915.47 950.352 L1912.22 953.357 L1908.98 956.307 L1905.74 959.212 L1902.49 962.077 L1899.25 964.909 L1896.01 967.716 L1892.76 970.504 L1889.52 973.278 L1886.28 976.044 L1883.04 978.808 L1879.79 981.575 L1876.55 984.348 L1873.31 987.133 L1870.06 989.934 L1866.82 992.752 L1863.58 995.592 L1860.33 998.456 L1857.09 1001.34 L1853.85 1004.26 L1850.61 1007.2 L1847.36 1010.18 L1844.12 1013.18 L1840.88 1016.2 L1837.63 1019.26 L1834.39 1022.34 L1831.15 1025.44 L1827.9 1028.55 L1824.66 1031.69 L1821.42 1034.83 L1818.17 1037.99 L1814.93 1041.14 L1811.69 1044.29 L1808.45 1047.42 L1805.2 1050.54 L1801.96 1053.63 L1798.72 1056.68 L1795.47 1059.69 L1792.23 1062.65 L1788.99 1065.55 L1785.74 1068.38 L1782.5 1071.14 L1779.26 1073.82 L1776.02 1076.41 L1772.77 1078.91 L1769.53 1081.29 L1766.29 1083.56 L1763.04 1085.7 L1759.8 1087.7 L1756.56 1089.54 L1753.31 1091.21 L1750.07 1092.69 L1746.83 1093.98 L1743.59 1095.04 L1740.34 1095.87 L1737.1 1096.44 L1733.86 1096.75 L1730.61 1096.78 L1727.37 1096.52 L1724.13 1095.98 L1720.88 1095.14 L1717.64 1094 L1714.4 1092.56 L1711.15 1090.8 L1707.91 1088.72 L1704.67 1086.33 L1701.43 1083.63 L1698.18 1080.63 L1694.94 1077.34 L1691.7 1073.76 L1688.45 1069.9 L1685.21 1065.76 L1681.97 1061.36 L1678.72 1056.73 L1675.48 1051.87 L1672.24 1046.8 L1669 1041.55 L1665.75 1036.12 L1662.51 1030.54 L1659.27 1024.81 L1656.02 1018.95 L1652.78 1012.97 L1649.54 1006.89 L1646.29 1000.72 L1643.05 994.464 L1639.81 988.135 L1636.57 981.745 L1633.32 975.3 L1630.08 968.811 L1626.84 962.285 L1623.59 955.73 L1620.35 949.153 L1617.11 942.561 L1613.86 935.96 L1610.62 929.355 L1607.38 922.753 L1604.13 916.159 L1600.89 909.578 L1597.65 903.015 L1594.41 896.473 L1591.16 889.957 L1587.92 883.471 L1584.68 877.019 L1581.43 870.604 L1578.19 864.229 L1574.95 857.898 L1571.7 851.613 L1568.46 845.377 L1565.22 839.193 L1561.98 833.062 L1558.73 826.988 L1555.49 820.972 L1552.25 815.017 L1549 809.123 L1545.76 803.294 L1542.52 797.531 L1539.27 791.834 L1536.03 786.206 L1532.79 780.648 L1529.55 775.161 L1526.3 769.747 L1523.06 764.406 L1519.82 759.139 L1516.57 753.947 L1513.33 748.831 L1510.09 743.792 L1506.84 738.831 L1503.6 733.947 L1500.36 729.142 L1497.11 724.415 L1493.87 719.768 L1490.63 715.2 L1487.39 710.712 L1484.14 706.304 L1480.9 701.976 L1477.66 697.728 L1474.41 693.56 L1471.17 689.472 L1467.93 685.463 L1464.68 681.533 L1461.44 677.683 L1458.2 673.911 L1454.96 670.217 L1451.71 666.601 L1448.47 663.062 L1445.23 659.599 L1441.98 656.212 L1438.74 652.899 L1435.5 649.66 L1432.25 646.493 L1429.01 643.398 L1425.77 640.373 L1422.53 637.417 L1419.28 634.528 L1416.04 631.705 L1412.8 628.947 L1409.55 626.251 L1406.31 623.615 L1403.07 621.039 L1399.82 618.518 L1396.58 616.052 L1393.34 613.638 L1390.1 611.272 L1386.85 608.954 L1383.61 606.679 L1380.37 604.444 L1377.12 602.247 L1373.88 600.084 L1370.64 597.952 L1367.39 595.846 L1364.15 593.763 L1360.91 591.698 L1357.66 589.648 L1354.42 587.607 L1351.18 585.572 L1347.94 583.536 L1344.69 581.496 L1341.45 579.445 L1338.21 577.377 L1334.96 575.288 L1331.72 573.171 L1328.48 571.02 L1325.23 568.829 L1321.99 566.591 L1318.75 564.299 L1315.51 561.947 L1312.26 559.529 L1309.02 557.036 L1305.78 554.463 L1302.53 551.803 L1299.29 549.048 L1296.05 546.193 L1292.8 543.232 L1289.56 540.172 L1286.32 537.02 L1283.08 533.784 L1279.83 530.471 L1276.59 527.09 L1273.35 523.648 L1270.1 520.154 L1266.86 516.615 L1263.62 513.039 L1260.37 509.432 L1257.13 505.804 L1253.89 502.16 L1250.64 498.507 L1247.4 494.853 L1244.16 491.203 L1240.92 487.564 L1237.67 483.941 L1234.43 480.339 L1231.19 476.765 L1227.94 473.221 L1224.7 469.715 L1221.46 466.248 L1218.21 462.826 L1214.97 459.451 L1211.73 456.127 L1208.49 452.857 L1205.24 449.643 L1202 446.488 L1198.76 443.393 L1195.51 440.36 L1192.27 437.39 L1189.03 434.485 L1185.78 431.643 L1182.54 428.866 L1179.3 426.154 L1176.06 423.506 L1172.81 420.92 L1169.57 418.396 L1166.33 415.932 L1163.08 413.526 L1159.84 411.175 L1156.6 408.876 L1153.35 406.626 L1150.11 404.421 L1146.87 402.257 L1143.62 400.13 L1140.38 398.032 L1137.14 395.96 L1133.9 393.906 L1130.65 391.865 L1127.41 389.827 L1124.17 387.787 L1120.92 385.735 L1117.68 383.662 L1114.44 381.559 L1111.19 379.417 L1107.95 377.227 L1104.71 374.984 L1101.47 372.688 L1098.22 370.334 L1094.98 367.919 L1091.74 365.44 L1088.49 362.892 L1085.25 360.27 L1082.01 357.57 L1078.76 354.784 L1075.52 351.908 L1072.28 348.934 L1069.04 345.856 L1065.79 342.669 L1062.55 339.373 L1059.31 335.97 L1056.06 332.464 L1052.82 328.864 L1049.58 325.179 L1046.33 321.418 L1043.09 317.592 L1039.85 313.709 L1036.6 309.777 L1033.36 305.804 L1030.12 301.798 L1026.88 297.77 L1023.63 293.731 L1020.39 289.69 L1017.15 285.657 L1013.9 281.64 L1010.66 277.646 L1007.42 273.681 L1004.17 269.75 L1000.93 265.857 L997.688 262.005 L994.445 258.195 L991.202 254.428 L987.959 250.703 L984.716 247.017 L981.473 243.37 L978.23 239.755 L974.987 236.169 L971.744 232.606 L968.501 229.06 L965.258 225.523 L962.015 221.987 L958.772 218.444 L955.529 214.885 L952.286 211.303 L949.043 207.696 L945.8 204.063 L942.557 200.406 L939.314 196.722 L936.071 193.016 L932.828 189.295 L929.585 185.571 L926.342 181.855 L923.099 178.156 L919.856 174.484 L916.613 170.851 L913.37 167.265 L910.127 163.736 L906.884 160.271 L903.641 156.879 L900.398 153.566 L897.155 150.34 L893.911 147.207 L890.668 144.171 L887.425 141.237 L884.182 138.41 L880.939 135.693 L877.696 133.088 L874.453 130.599 L871.21 128.226 L867.967 125.97 L864.724 123.833 L861.481 121.814 L858.238 119.912 L854.995 118.126 L851.752 116.455 L848.509 114.896 L845.266 113.447 L842.023 112.104 L838.78 110.863 L835.537 109.719 L832.294 108.669 L829.051 107.706 L825.808 106.825 L822.565 106.018 L819.322 105.279 L816.079 104.6 L812.836 103.974 L809.593 103.391 L806.35 102.843 L803.107 102.321 L799.864 101.815 L796.621 101.315 L793.378 100.811 L790.135 100.294 L786.892 99.7527 L783.648 99.1795 L780.405 98.5749 L777.162 97.9418 L773.919 97.283 L770.676 96.6025 L767.433 95.9067 L764.19 95.2026 L760.947 94.4975 L757.704 93.7985 L754.461 93.1127 L751.218 92.4468 L747.975 91.8072 L744.732 91.2003 L741.489 90.6317 L738.246 90.1068 L735.003 89.6306 L731.76 89.2076 L728.517 88.8418 L725.274 88.5366 L722.031 88.2952 L718.788 88.1201 L715.545 88.0132 L712.302 87.9763 L709.059 88.0103 L705.816 88.1159 L702.573 88.2932 L699.33 88.5419 L696.087 88.8613 L692.844 89.2503 L689.601 89.7072 L686.358 90.2302 L683.115 90.8169 L679.872 91.4648 L676.629 92.1709 L673.385 92.932 L670.142 93.7449 L666.899 94.6057 L663.656 95.5108 L660.413 96.4564 L657.17 97.4386 L653.927 98.4545 L650.684 99.5057 L647.441 100.595 L644.198 101.725 L640.955 102.898 L637.712 104.117 L634.469 105.384 L631.226 106.701 L627.983 108.069 L624.74 109.491 L621.497 110.968 L618.254 112.5 L615.011 114.089 L611.768 115.734 L608.525 117.436 L605.282 119.195 L602.039 121.01 L598.796 122.88 L595.553 124.803 L592.31 126.779 L589.067 128.804 L585.824 130.878 L582.581 132.996 L579.338 135.156 L576.095 137.355 L572.852 139.589 L569.609 141.854 L566.366 144.146 L563.122 146.459 L559.879 148.789 L556.636 151.132 L553.393 153.481 L550.15 155.83 L546.907 158.175 L543.664 160.509 L540.421 162.826 L537.178 165.119 L533.935 167.383 L530.692 169.611 L527.449 171.798 L524.206 173.938 L520.963 176.034 L517.72 178.093 L514.477 180.117 L511.234 182.114 L507.991 184.086 L504.748 186.04 L501.505 187.98 L498.262 189.91 L495.019 191.834 L491.776 193.757 L488.533 195.683 L485.29 197.614 L482.047 199.555 L478.804 201.509 L475.561 203.478 L472.318 205.464 L469.075 207.471 L465.832 209.499 L462.589 211.551 L459.346 213.627 L456.103 215.728 L452.859 217.856 L449.616 220.01 L446.373 222.19 L443.13 224.397 L439.887 226.628 L436.644 228.884 L433.401 231.163 L430.158 233.462 L426.915 235.781 L423.672 238.117 L420.429 240.466 L417.186 242.826 L413.943 245.194 L410.7 247.565 L407.457 249.936 L404.214 252.301 L400.971 254.657 L397.728 256.998 L394.485 259.318 L391.242 261.612 L387.999 263.873 L384.756 266.095 L381.513 268.271 L378.27 270.393 L375.027 272.456 L371.784 274.45 L368.541 276.369 L365.298 278.204 L362.055 279.946 L358.812 281.588 L355.569 283.122 L352.326 284.538 L349.083 285.829 L345.84 286.986 L342.596 288.001 L339.353 288.866 L336.11 289.575 L332.867 290.133 L329.624 290.546 L326.381 290.819 L323.138 290.961 L319.895 290.977 L316.652 290.874 L313.409 290.659 L310.166 290.338 L306.923 289.918 L303.68 289.405 L300.437 288.806 L297.194 288.127 L293.951 287.372 L290.708 286.549 L287.465 285.662 L284.222 284.717 L280.979 283.719 L277.736 282.672 L274.493 281.581 L271.25 280.451 L268.007 279.285 L264.764 278.087 L261.521 276.861 L258.278 275.612 L255.035 274.341  Z" fill="#3da44d" fill-rule="evenodd" fill-opacity="0.1"/>
<polyline clip-path="url(#clip792)" style="stroke:#3da44d; stroke-linecap:round; stroke-linejoin:round; stroke-width:8; stroke-opacity:1; fill:none" points="255.035,598.994 258.278,597.235 261.521,595.458 264.764,593.664 268.007,591.851 271.25,590.021 274.493,588.172 277.736,586.305 280.979,584.419 284.222,582.515 287.465,580.593 290.708,578.652 293.951,576.692 297.194,574.714 300.437,572.716 303.68,570.701 306.923,568.666 310.166,566.612 313.409,564.54 316.652,562.448 319.895,560.337 323.138,558.208 326.381,556.059 329.624,553.892 332.867,551.705 336.11,549.499 339.353,547.274 342.596,545.03 345.84,542.768 349.083,540.486 352.326,538.186 355.569,535.867 358.812,533.529 362.055,531.173 365.298,528.799 368.541,526.408 371.784,523.998 375.027,521.57 378.27,519.125 381.513,516.663 384.756,514.184 387.999,511.688 391.242,509.175 394.485,506.645 397.728,504.1 400.971,501.538 404.214,498.961 407.457,496.369 410.7,493.761 413.943,491.139 417.186,488.502 420.429,485.851 423.672,483.187 426.915,480.509 430.158,477.818 433.401,475.114 436.644,472.398 439.887,469.67 443.13,466.931 446.373,464.18 449.616,461.42 452.859,458.649 456.103,455.869 459.346,453.081 462.589,450.283 465.832,447.479 469.075,444.666 472.318,441.848 475.561,439.023 478.804,436.194 482.047,433.36 485.29,430.522 488.533,427.68 491.776,424.837 495.019,421.992 498.262,419.147 501.505,416.301 504.748,413.457 507.991,410.614 511.234,407.775 514.477,404.939 517.72,402.109 520.963,399.284 524.206,396.466 527.449,393.656 530.692,390.856 533.935,388.065 537.178,385.284 540.421,382.514 543.664,379.754 546.907,377.007 550.15,374.272 553.393,371.55 556.636,368.841 559.879,366.147 563.122,363.467 566.366,360.804 569.609,358.158 572.852,355.529 576.095,352.918 579.338,350.328 582.581,347.758 585.824,345.21 589.067,342.684 592.31,340.183 595.553,337.707 598.796,335.257 602.039,332.836 605.282,330.443 608.525,328.082 611.768,325.752 615.011,323.457 618.254,321.197 621.497,318.974 624.74,316.789 627.983,314.646 631.226,312.545 634.469,310.488 637.712,308.477 640.955,306.515 644.198,304.604 647.441,302.745 650.684,300.941 653.927,299.195 657.17,297.508 660.413,295.883 663.656,294.319 666.899,292.814 670.142,291.368 673.385,289.979 676.629,288.647 679.872,287.37 683.115,286.147 686.358,284.978 689.601,283.862 692.844,282.798 696.087,281.786 699.33,280.825 702.573,279.915 705.816,279.055 709.059,278.245 712.302,277.485 715.545,276.775 718.788,276.114 722.031,275.502 725.274,274.941 728.517,274.429 731.76,273.967 735.003,273.555 738.246,273.193 741.489,272.883 744.732,272.624 747.975,272.417 751.218,272.263 754.461,272.162 757.704,272.115 760.947,272.123 764.19,272.187 767.433,272.308 770.676,272.487 773.919,272.726 777.162,273.023 780.405,273.377 783.648,273.783 786.892,274.237 790.135,274.735 793.378,275.276 796.621,275.859 799.864,276.484 803.107,277.15 806.35,277.857 809.593,278.603 812.836,279.39 816.079,280.215 819.322,281.08 822.565,281.983 825.808,282.925 829.051,283.906 832.294,284.926 835.537,285.984 838.78,287.081 842.023,288.218 845.266,289.393 848.509,290.608 851.752,291.863 854.995,293.159 858.238,294.496 861.481,295.874 864.724,297.294 867.967,298.758 871.21,300.265 874.453,301.816 877.696,303.413 880.939,305.056 884.182,306.747 887.425,308.486 890.668,310.276 893.911,312.116 897.155,314.008 900.398,315.954 903.641,317.955 906.884,320.013 910.127,322.129 913.37,324.305 916.613,326.543 919.856,328.844 923.099,331.211 926.342,333.645 929.585,336.148 932.828,338.723 936.071,341.372 939.314,344.096 942.557,346.889 945.8,349.749 949.043,352.672 952.286,355.656 955.529,358.697 958.772,361.793 962.015,364.943 965.258,368.144 968.501,371.395 971.744,374.695 974.987,378.042 978.23,381.436 981.473,384.875 984.716,388.358 987.959,391.884 991.202,395.451 994.445,399.06 997.688,402.708 1000.93,406.396 1004.17,410.122 1007.42,413.886 1010.66,417.687 1013.9,421.524 1017.15,425.397 1020.39,429.305 1023.63,433.248 1026.88,437.225 1030.12,441.236 1033.36,445.281 1036.6,449.358 1039.85,453.466 1043.09,457.603 1046.33,461.764 1049.58,465.949 1052.82,470.154 1056.06,474.377 1059.31,478.615 1062.55,482.866 1065.79,487.129 1069.04,491.4 1072.28,495.68 1075.52,499.966 1078.76,504.258 1082.01,508.557 1085.25,512.862 1088.49,517.174 1091.74,521.491 1094.98,525.813 1098.22,530.142 1101.47,534.475 1104.71,538.814 1107.95,543.158 1111.19,547.508 1114.44,551.863 1117.68,556.222 1120.92,560.586 1124.17,564.953 1127.41,569.324 1130.65,573.698 1133.9,578.075 1137.14,582.453 1140.38,586.833 1143.62,591.215 1146.87,595.598 1150.11,599.982 1153.35,604.366 1156.6,608.75 1159.84,613.134 1163.08,617.517 1166.33,621.9 1169.57,626.282 1172.81,630.662 1176.06,635.042 1179.3,639.419 1182.54,643.795 1185.78,648.168 1189.03,652.539 1192.27,656.908 1195.51,661.274 1198.76,665.637 1202,669.997 1205.24,674.354 1208.49,678.708 1211.73,683.057 1214.97,687.404 1218.21,691.746 1221.46,696.084 1224.7,700.418 1227.94,704.748 1231.19,709.073 1234.43,713.394 1237.67,717.71 1240.92,722.021 1244.16,726.327 1247.4,730.627 1250.64,734.922 1253.89,739.212 1257.13,743.496 1260.37,747.774 1263.62,752.046 1266.86,756.312 1270.1,760.571 1273.35,764.824 1276.59,769.071 1279.83,773.31 1283.08,777.542 1286.32,781.767 1289.56,785.984 1292.8,790.193 1296.05,794.395 1299.29,798.588 1302.53,802.774 1305.78,806.952 1309.02,811.124 1312.26,815.289 1315.51,819.448 1318.75,823.602 1321.99,827.75 1325.23,831.894 1328.48,836.034 1331.72,840.17 1334.96,844.303 1338.21,848.432 1341.45,852.559 1344.69,856.683 1347.94,860.805 1351.18,864.925 1354.42,869.044 1357.66,873.162 1360.91,877.28 1364.15,881.396 1367.39,885.512 1370.64,889.629 1373.88,893.745 1377.12,897.862 1380.37,901.979 1383.61,906.098 1386.85,910.217 1390.1,914.338 1393.34,918.46 1396.58,922.583 1399.82,926.708 1403.07,930.835 1406.31,934.964 1409.55,939.094 1412.8,943.227 1416.04,947.361 1419.28,951.498 1422.53,955.636 1425.77,959.777 1429.01,963.92 1432.25,968.064 1435.5,972.211 1438.74,976.359 1441.98,980.51 1445.23,984.661 1448.47,988.815 1451.71,992.969 1454.96,997.125 1458.2,1001.28 1461.44,1005.44 1464.68,1009.6 1467.93,1013.76 1471.17,1017.91 1474.41,1022.07 1477.66,1026.23 1480.9,1030.38 1484.14,1034.54 1487.39,1038.69 1490.63,1042.84 1493.87,1046.99 1497.11,1051.13 1500.36,1055.27 1503.6,1059.4 1506.84,1063.53 1510.09,1067.66 1513.33,1071.78 1516.57,1075.89 1519.82,1079.99 1523.06,1084.08 1526.3,1088.17 1529.55,1092.24 1532.79,1096.3 1536.03,1100.36 1539.27,1104.39 1542.52,1108.42 1545.76,1112.43 1549,1116.42 1552.25,1120.4 1555.49,1124.35 1558.73,1128.29 1561.98,1132.21 1565.22,1136.1 1568.46,1139.97 1571.7,1143.82 1574.95,1147.64 1578.19,1151.43 1581.43,1155.19 1584.68,1158.93 1587.92,1162.62 1591.16,1166.29 1594.41,1169.92 1597.65,1173.51 1600.89,1177.06 1604.13,1180.57 1607.38,1184.03 1610.62,1187.45 1613.86,1190.82 1617.11,1194.14 1620.35,1197.41 1623.59,1200.62 1626.84,1203.77 1630.08,1206.86 1633.32,1209.9 1636.57,1212.86 1639.81,1215.76 1643.05,1218.59 1646.29,1221.34 1649.54,1224.02 1652.78,1226.61 1656.02,1229.12 1659.27,1231.55 1662.51,1233.89 1665.75,1236.13 1669,1238.27 1672.24,1240.32 1675.48,1242.26 1678.72,1244.09 1681.97,1245.81 1685.21,1247.41 1688.45,1248.89 1691.7,1250.25 1694.94,1251.48 1698.18,1252.59 1701.43,1253.57 1704.67,1254.42 1707.91,1255.14 1711.15,1255.73 1714.4,1256.19 1717.64,1256.52 1720.88,1256.73 1724.13,1256.81 1727.37,1256.77 1730.61,1256.61 1733.86,1256.33 1737.1,1255.93 1740.34,1255.42 1743.59,1254.8 1746.83,1254.08 1750.07,1253.27 1753.31,1252.36 1756.56,1251.37 1759.8,1250.31 1763.04,1249.17 1766.29,1247.97 1769.53,1246.71 1772.77,1245.39 1776.02,1244.02 1779.26,1242.61 1782.5,1241.16 1785.74,1239.68 1788.99,1238.17 1792.23,1236.64 1795.47,1235.1 1798.72,1233.54 1801.96,1231.97 1805.2,1230.38 1808.45,1228.79 1811.69,1227.18 1814.93,1225.56 1818.17,1223.93 1821.42,1222.29 1824.66,1220.63 1827.9,1218.96 1831.15,1217.28 1834.39,1215.59 1837.63,1213.88 1840.88,1212.15 1844.12,1210.42 1847.36,1208.66 1850.61,1206.89 1853.85,1205.11 1857.09,1203.3 1860.33,1201.48 1863.58,1199.64 1866.82,1197.78 1870.06,1195.9 1873.31,1194 1876.55,1192.07 1879.79,1190.12 1883.04,1188.14 1886.28,1186.14 1889.52,1184.11 1892.76,1182.05 1896.01,1179.96 1899.25,1177.84 1902.49,1175.68 1905.74,1173.49 1908.98,1171.26 1912.22,1169 1915.47,1166.69 1918.71,1164.34 1921.95,1161.95 1925.19,1159.51 1928.44,1157.03 1931.68,1154.5 1934.92,1151.92 1938.17,1149.31 1941.41,1146.65 1944.65,1143.96 1947.9,1141.23 1951.14,1138.46 1954.38,1135.67 1957.63,1132.84 1960.87,1129.98 1964.11,1127.09 1967.35,1124.18 1970.6,1121.24 1973.84,1118.28 1977.08,1115.3 1980.33,1112.29 1983.57,1109.27 1986.81,1106.23 1990.06,1103.16 1993.3,1100.09 1996.54,1096.99 1999.78,1093.88 2003.03,1090.76 2006.27,1087.63 2009.51,1084.48 2012.76,1081.32 2016,1078.16 2019.24,1074.98 2022.49,1071.79 2025.73,1068.6 2028.97,1065.4 2032.21,1062.19 2035.46,1058.98 2038.7,1055.76 2041.94,1052.53 2045.19,1049.31 2048.43,1046.07 2051.67,1042.84 2054.92,1039.6 2058.16,1036.36 2061.4,1033.11 2064.65,1029.86 2067.89,1026.62 2071.13,1023.37 2074.37,1020.11 2077.62,1016.86 2080.86,1013.61 2084.1,1010.36 2087.35,1007.1 2090.59,1003.85 2093.83,1000.59 2097.08,997.337 2100.32,994.082 2103.56,990.826 2106.8,987.57 2110.05,984.314 2113.29,981.058 2116.53,977.801 2119.78,974.544 2123.02,971.287 2126.26,968.029 2129.51,964.77 2132.75,961.511 2135.99,958.255 2139.23,955.007 2142.48,951.772 2145.72,948.553 2148.96,945.356 2152.21,942.184 2155.45,939.042 2158.69,935.935 2161.94,932.866 2165.18,929.84 2168.42,926.862 2171.67,923.93 2174.91,921.044 2178.15,918.203 2181.39,915.407 2184.64,912.656 2187.88,909.947 2191.12,907.281 2194.37,904.657 2197.61,902.075 2200.85,899.533 2204.1,897.031 2207.34,894.568 2210.58,892.144 2213.82,889.759 2217.07,887.411 2220.31,885.1 2223.55,882.825 2226.8,880.586 2230.04,878.383 2233.28,876.214 2236.53,874.08 2239.77,871.979 2243.01,869.911 2246.25,867.876 2249.5,865.873 2252.74,863.902 2255.98,861.961 2259.23,860.052 2262.47,858.172 2265.71,856.322 2268.96,854.501 2272.2,852.709 2275.44,850.946 2278.69,849.21 2281.93,847.502 2285.17,845.82 2288.41,844.165 2291.66,842.537 "/>
<path clip-path="url(#clip790)" d="M1953.46 302.578 L2280.8 302.578 L2280.8 95.2176 L1953.46 95.2176  Z" fill="#ffffff" fill-rule="evenodd" fill-opacity="1"/>
<polyline clip-path="url(#clip790)" style="stroke:#000000; stroke-linecap:round; stroke-linejoin:round; stroke-width:4; stroke-opacity:1; fill:none" points="1953.46,302.578 2280.8,302.578 2280.8,95.2176 1953.46,95.2176 1953.46,302.578 "/>
<polyline clip-path="url(#clip790)" style="stroke:#009af9; stroke-linecap:round; stroke-linejoin:round; stroke-width:4; stroke-opacity:1; fill:none" points="1977.44,147.058 2121.36,147.058 "/>
<path clip-path="url(#clip790)" d="M2152.76 131.051 L2152.76 138.412 L2161.53 138.412 L2161.53 141.722 L2152.76 141.722 L2152.76 155.796 Q2152.76 158.967 2153.61 159.87 Q2154.49 160.773 2157.16 160.773 L2161.53 160.773 L2161.53 164.338 L2157.16 164.338 Q2152.23 164.338 2150.35 162.509 Q2148.48 160.657 2148.48 155.796 L2148.48 141.722 L2145.35 141.722 L2145.35 138.412 L2148.48 138.412 L2148.48 131.051 L2152.76 131.051 Z" fill="#000000" fill-rule="nonzero" fill-opacity="1" /><path clip-path="url(#clip790)" d="M2182.16 142.393 Q2181.44 141.977 2180.58 141.791 Q2179.75 141.583 2178.73 141.583 Q2175.12 141.583 2173.17 143.944 Q2171.25 146.282 2171.25 150.68 L2171.25 164.338 L2166.97 164.338 L2166.97 138.412 L2171.25 138.412 L2171.25 142.44 Q2172.6 140.078 2174.75 138.944 Q2176.9 137.787 2179.98 137.787 Q2180.42 137.787 2180.95 137.856 Q2181.48 137.903 2182.13 138.018 L2182.16 142.393 Z" fill="#000000" fill-rule="nonzero" fill-opacity="1" /><path clip-path="url(#clip790)" d="M2186.18 154.106 L2186.18 138.412 L2190.44 138.412 L2190.44 153.944 Q2190.44 157.625 2191.88 159.476 Q2193.31 161.305 2196.18 161.305 Q2199.63 161.305 2201.62 159.106 Q2203.64 156.907 2203.64 153.111 L2203.64 138.412 L2207.9 138.412 L2207.9 164.338 L2203.64 164.338 L2203.64 160.356 Q2202.09 162.717 2200.03 163.875 Q2197.99 165.009 2195.28 165.009 Q2190.81 165.009 2188.5 162.231 Q2186.18 159.453 2186.18 154.106 M2196.9 137.787 L2196.9 137.787 Z" fill="#000000" fill-rule="nonzero" fill-opacity="1" /><path clip-path="url(#clip790)" d="M2220.88 131.051 L2220.88 138.412 L2229.66 138.412 L2229.66 141.722 L2220.88 141.722 L2220.88 155.796 Q2220.88 158.967 2221.74 159.87 Q2222.62 160.773 2225.28 160.773 L2229.66 160.773 L2229.66 164.338 L2225.28 164.338 Q2220.35 164.338 2218.48 162.509 Q2216.6 160.657 2216.6 155.796 L2216.6 141.722 L2213.48 141.722 L2213.48 138.412 L2216.6 138.412 L2216.6 131.051 L2220.88 131.051 Z" fill="#000000" fill-rule="nonzero" fill-opacity="1" /><path clip-path="url(#clip790)" d="M2256.81 148.689 L2256.81 164.338 L2252.55 164.338 L2252.55 148.828 Q2252.55 145.148 2251.11 143.319 Q2249.68 141.49 2246.81 141.49 Q2243.36 141.49 2241.37 143.69 Q2239.38 145.889 2239.38 149.685 L2239.38 164.338 L2235.1 164.338 L2235.1 128.319 L2239.38 128.319 L2239.38 142.44 Q2240.91 140.102 2242.97 138.944 Q2245.05 137.787 2247.76 137.787 Q2252.23 137.787 2254.52 140.565 Q2256.81 143.319 2256.81 148.689 Z" fill="#000000" fill-rule="nonzero" fill-opacity="1" /><circle clip-path="url(#clip790)" cx="2049.4" cy="198.898" r="20.48" fill="#e26f46" fill-rule="evenodd" fill-opacity="1" stroke="#000000" stroke-opacity="1" stroke-width="4.55111"/>
<path clip-path="url(#clip790)" d="M2164.26 194.187 L2164.26 180.159 L2168.52 180.159 L2168.52 216.178 L2164.26 216.178 L2164.26 212.289 Q2162.92 214.603 2160.86 215.738 Q2158.82 216.849 2155.95 216.849 Q2151.25 216.849 2148.29 213.099 Q2145.35 209.349 2145.35 203.238 Q2145.35 197.127 2148.29 193.377 Q2151.25 189.627 2155.95 189.627 Q2158.82 189.627 2160.86 190.761 Q2162.92 191.872 2164.26 194.187 M2149.75 203.238 Q2149.75 207.937 2151.67 210.622 Q2153.61 213.284 2156.99 213.284 Q2160.37 213.284 2162.32 210.622 Q2164.26 207.937 2164.26 203.238 Q2164.26 198.539 2162.32 195.877 Q2160.37 193.192 2156.99 193.192 Q2153.61 193.192 2151.67 195.877 Q2149.75 198.539 2149.75 203.238 Z" fill="#000000" fill-rule="nonzero" fill-opacity="1" /><path clip-path="url(#clip790)" d="M2189.08 203.145 Q2183.92 203.145 2181.92 204.326 Q2179.93 205.506 2179.93 208.354 Q2179.93 210.622 2181.42 211.965 Q2182.92 213.284 2185.49 213.284 Q2189.03 213.284 2191.16 210.784 Q2193.31 208.261 2193.31 204.094 L2193.31 203.145 L2189.08 203.145 M2197.57 201.386 L2197.57 216.178 L2193.31 216.178 L2193.31 212.242 Q2191.85 214.603 2189.68 215.738 Q2187.5 216.849 2184.36 216.849 Q2180.37 216.849 2178.01 214.627 Q2175.67 212.381 2175.67 208.631 Q2175.67 204.256 2178.59 202.034 Q2181.53 199.812 2187.34 199.812 L2193.31 199.812 L2193.31 199.395 Q2193.31 196.455 2191.37 194.858 Q2189.45 193.238 2185.95 193.238 Q2183.73 193.238 2181.62 193.77 Q2179.52 194.303 2177.57 195.367 L2177.57 191.432 Q2179.91 190.53 2182.11 190.09 Q2184.31 189.627 2186.39 189.627 Q2192.02 189.627 2194.79 192.543 Q2197.57 195.46 2197.57 201.386 Z" fill="#000000" fill-rule="nonzero" fill-opacity="1" /><path clip-path="url(#clip790)" d="M2210.56 182.891 L2210.56 190.252 L2219.33 190.252 L2219.33 193.562 L2210.56 193.562 L2210.56 207.636 Q2210.56 210.807 2211.42 211.71 Q2212.29 212.613 2214.96 212.613 L2219.33 212.613 L2219.33 216.178 L2214.96 216.178 Q2210.03 216.178 2208.15 214.349 Q2206.28 212.497 2206.28 207.636 L2206.28 193.562 L2203.15 193.562 L2203.15 190.252 L2206.28 190.252 L2206.28 182.891 L2210.56 182.891 Z" fill="#000000" fill-rule="nonzero" fill-opacity="1" /><path clip-path="url(#clip790)" d="M2236.72 203.145 Q2231.55 203.145 2229.56 204.326 Q2227.57 205.506 2227.57 208.354 Q2227.57 210.622 2229.05 211.965 Q2230.56 213.284 2233.13 213.284 Q2236.67 213.284 2238.8 210.784 Q2240.95 208.261 2240.95 204.094 L2240.95 203.145 L2236.72 203.145 M2245.21 201.386 L2245.21 216.178 L2240.95 216.178 L2240.95 212.242 Q2239.49 214.603 2237.32 215.738 Q2235.14 216.849 2231.99 216.849 Q2228.01 216.849 2225.65 214.627 Q2223.31 212.381 2223.31 208.631 Q2223.31 204.256 2226.23 202.034 Q2229.17 199.812 2234.98 199.812 L2240.95 199.812 L2240.95 199.395 Q2240.95 196.455 2239.01 194.858 Q2237.09 193.238 2233.59 193.238 Q2231.37 193.238 2229.26 193.77 Q2227.16 194.303 2225.21 195.367 L2225.21 191.432 Q2227.55 190.53 2229.75 190.09 Q2231.95 189.627 2234.03 189.627 Q2239.66 189.627 2242.43 192.543 Q2245.21 195.46 2245.21 201.386 Z" fill="#000000" fill-rule="nonzero" fill-opacity="1" /><polyline clip-path="url(#clip790)" style="stroke:#3da44d; stroke-linecap:round; stroke-linejoin:round; stroke-width:8; stroke-opacity:1; fill:none" points="1977.44,250.738 2121.36,250.738 "/>
<path clip-path="url(#clip790)" d="M2170.91 263.087 L2170.91 253.805 L2163.27 253.805 L2163.27 249.962 L2175.54 249.962 L2175.54 264.8 Q2172.83 266.721 2169.56 267.717 Q2166.3 268.689 2162.6 268.689 Q2154.49 268.689 2149.91 263.967 Q2145.35 259.221 2145.35 250.772 Q2145.35 242.3 2149.91 237.578 Q2154.49 232.833 2162.6 232.833 Q2165.98 232.833 2169.01 233.666 Q2172.06 234.499 2174.63 236.12 L2174.63 241.096 Q2172.04 238.897 2169.12 237.786 Q2166.21 236.675 2162.99 236.675 Q2156.65 236.675 2153.45 240.217 Q2150.28 243.758 2150.28 250.772 Q2150.28 257.763 2153.45 261.305 Q2156.65 264.846 2162.99 264.846 Q2165.47 264.846 2167.41 264.43 Q2169.36 263.99 2170.91 263.087 Z" fill="#000000" fill-rule="nonzero" fill-opacity="1" /><path clip-path="url(#clip790)" d="M2188.75 237.3 L2188.75 250.286 L2194.63 250.286 Q2197.9 250.286 2199.68 248.596 Q2201.46 246.907 2201.46 243.782 Q2201.46 240.68 2199.68 238.99 Q2197.9 237.3 2194.63 237.3 L2188.75 237.3 M2184.08 233.458 L2194.63 233.458 Q2200.44 233.458 2203.41 236.096 Q2206.39 238.712 2206.39 243.782 Q2206.39 248.897 2203.41 251.513 Q2200.44 254.129 2194.63 254.129 L2188.75 254.129 L2188.75 268.018 L2184.08 268.018 L2184.08 233.458 Z" fill="#000000" fill-rule="nonzero" fill-opacity="1" /></svg>
