<?xml version="1.0" encoding="utf-8"?>
<svg xmlns="http://www.w3.org/2000/svg" xmlns:xlink="http://www.w3.org/1999/xlink" width="600" height="400" viewBox="0 0 2400 1600">
<defs>
  <clipPath id="clip140">
    <rect x="0" y="0" width="2400" height="1600"/>
  </clipPath>
</defs>
<path clip-path="url(#clip140)" d="M0 1600 L2400 1600 L2400 0 L0 0  Z" fill="#ffffff" fill-rule="evenodd" fill-opacity="1"/>
<defs>
  <clipPath id="clip141">
    <rect x="480" y="0" width="1681" height="1600"/>
  </clipPath>
</defs>
<path clip-path="url(#clip140)" d="M193.936 1486.45 L2352.76 1486.45 L2352.76 47.2441 L193.936 47.2441  Z" fill="#ffffff" fill-rule="evenodd" fill-opacity="1"/>
<defs>
  <clipPath id="clip142">
    <rect x="193" y="47" width="2160" height="1440"/>
  </clipPath>
</defs>
<polyline clip-path="url(#clip142)" style="stroke:#000000; stroke-linecap:round; stroke-linejoin:round; stroke-width:2; stroke-opacity:0.1; fill:none" points="255.035,1486.45 255.035,47.2441 "/>
<polyline clip-path="url(#clip142)" style="stroke:#000000; stroke-linecap:round; stroke-linejoin:round; stroke-width:2; stroke-opacity:0.1; fill:none" points="579.173,1486.45 579.173,47.2441 "/>
<polyline clip-path="url(#clip142)" style="stroke:#000000; stroke-linecap:round; stroke-linejoin:round; stroke-width:2; stroke-opacity:0.1; fill:none" points="903.312,1486.45 903.312,47.2441 "/>
<polyline clip-path="url(#clip142)" style="stroke:#000000; stroke-linecap:round; stroke-linejoin:round; stroke-width:2; stroke-opacity:0.1; fill:none" points="1227.45,1486.45 1227.45,47.2441 "/>
<polyline clip-path="url(#clip142)" style="stroke:#000000; stroke-linecap:round; stroke-linejoin:round; stroke-width:2; stroke-opacity:0.1; fill:none" points="1551.59,1486.45 1551.59,47.2441 "/>
<polyline clip-path="url(#clip142)" style="stroke:#000000; stroke-linecap:round; stroke-linejoin:round; stroke-width:2; stroke-opacity:0.1; fill:none" points="1875.73,1486.45 1875.73,47.2441 "/>
<polyline clip-path="url(#clip142)" style="stroke:#000000; stroke-linecap:round; stroke-linejoin:round; stroke-width:2; stroke-opacity:0.1; fill:none" points="2199.87,1486.45 2199.87,47.2441 "/>
<polyline clip-path="url(#clip142)" style="stroke:#000000; stroke-linecap:round; stroke-linejoin:round; stroke-width:2; stroke-opacity:0.1; fill:none" points="193.936,1278.69 2352.76,1278.69 "/>
<polyline clip-path="url(#clip142)" style="stroke:#000000; stroke-linecap:round; stroke-linejoin:round; stroke-width:2; stroke-opacity:0.1; fill:none" points="193.936,1015.73 2352.76,1015.73 "/>
<polyline clip-path="url(#clip142)" style="stroke:#000000; stroke-linecap:round; stroke-linejoin:round; stroke-width:2; stroke-opacity:0.1; fill:none" points="193.936,752.76 2352.76,752.76 "/>
<polyline clip-path="url(#clip142)" style="stroke:#000000; stroke-linecap:round; stroke-linejoin:round; stroke-width:2; stroke-opacity:0.1; fill:none" points="193.936,489.792 2352.76,489.792 "/>
<polyline clip-path="url(#clip142)" style="stroke:#000000; stroke-linecap:round; stroke-linejoin:round; stroke-width:2; stroke-opacity:0.1; fill:none" points="193.936,226.825 2352.76,226.825 "/>
<polyline clip-path="url(#clip140)" style="stroke:#000000; stroke-linecap:round; stroke-linejoin:round; stroke-width:4; stroke-opacity:1; fill:none" points="193.936,1486.45 2352.76,1486.45 "/>
<polyline clip-path="url(#clip140)" style="stroke:#000000; stroke-linecap:round; stroke-linejoin:round; stroke-width:4; stroke-opacity:1; fill:none" points="255.035,1486.45 255.035,1467.55 "/>
<polyline clip-path="url(#clip140)" style="stroke:#000000; stroke-linecap:round; stroke-linejoin:round; stroke-width:4; stroke-opacity:1; fill:none" points="579.173,1486.45 579.173,1467.55 "/>
<polyline clip-path="url(#clip140)" style="stroke:#000000; stroke-linecap:round; stroke-linejoin:round; stroke-width:4; stroke-opacity:1; fill:none" points="903.312,1486.45 903.312,1467.55 "/>
<polyline clip-path="url(#clip140)" style="stroke:#000000; stroke-linecap:round; stroke-linejoin:round; stroke-width:4; stroke-opacity:1; fill:none" points="1227.45,1486.45 1227.45,1467.55 "/>
<polyline clip-path="url(#clip140)" style="stroke:#000000; stroke-linecap:round; stroke-linejoin:round; stroke-width:4; stroke-opacity:1; fill:none" points="1551.59,1486.45 1551.59,1467.55 "/>
<polyline clip-path="url(#clip140)" style="stroke:#000000; stroke-linecap:round; stroke-linejoin:round; stroke-width:4; stroke-opacity:1; fill:none" points="1875.73,1486.45 1875.73,1467.55 "/>
<polyline clip-path="url(#clip140)" style="stroke:#000000; stroke-linecap:round; stroke-linejoin:round; stroke-width:4; stroke-opacity:1; fill:none" points="2199.87,1486.45 2199.87,1467.55 "/>
<path clip-path="url(#clip140)" d="M255.035 1517.37 Q251.424 1517.37 249.595 1520.93 Q247.789 1524.47 247.789 1531.6 Q247.789 1538.71 249.595 1542.27 Q251.424 1545.82 255.035 1545.82 Q258.669 1545.82 260.474 1542.27 Q262.303 1538.71 262.303 1531.6 Q262.303 1524.47 260.474 1520.93 Q258.669 1517.37 255.035 1517.37 M255.035 1513.66 Q260.845 1513.66 263.9 1518.27 Q266.979 1522.85 266.979 1531.6 Q266.979 1540.33 263.9 1544.94 Q260.845 1549.52 255.035 1549.52 Q249.225 1549.52 246.146 1544.94 Q243.09 1540.33 243.09 1531.6 Q243.09 1522.85 246.146 1518.27 Q249.225 1513.66 255.035 1513.66 Z" fill="#000000" fill-rule="nonzero" fill-opacity="1" /><path clip-path="url(#clip140)" d="M569.555 1544.91 L577.194 1544.91 L577.194 1518.55 L568.884 1520.21 L568.884 1515.95 L577.148 1514.29 L581.824 1514.29 L581.824 1544.91 L589.463 1544.91 L589.463 1548.85 L569.555 1548.85 L569.555 1544.91 Z" fill="#000000" fill-rule="nonzero" fill-opacity="1" /><path clip-path="url(#clip140)" d="M897.965 1544.91 L914.284 1544.91 L914.284 1548.85 L892.34 1548.85 L892.34 1544.91 Q895.002 1542.16 899.585 1537.53 Q904.191 1532.88 905.372 1531.53 Q907.617 1529.01 908.497 1527.27 Q909.4 1525.51 909.4 1523.82 Q909.4 1521.07 907.455 1519.33 Q905.534 1517.6 902.432 1517.6 Q900.233 1517.6 897.779 1518.36 Q895.349 1519.13 892.571 1520.68 L892.571 1515.95 Q895.395 1514.82 897.849 1514.24 Q900.303 1513.66 902.34 1513.66 Q907.71 1513.66 910.904 1516.35 Q914.099 1519.03 914.099 1523.52 Q914.099 1525.65 913.289 1527.57 Q912.502 1529.47 910.395 1532.07 Q909.816 1532.74 906.715 1535.95 Q903.613 1539.15 897.965 1544.91 Z" fill="#000000" fill-rule="nonzero" fill-opacity="1" /><path clip-path="url(#clip140)" d="M1231.7 1530.21 Q1235.05 1530.93 1236.93 1533.2 Q1238.83 1535.47 1238.83 1538.8 Q1238.83 1543.92 1235.31 1546.72 Q1231.79 1549.52 1225.31 1549.52 Q1223.13 1549.52 1220.82 1549.08 Q1218.53 1548.66 1216.07 1547.81 L1216.07 1543.29 Q1218.02 1544.43 1220.33 1545.01 Q1222.65 1545.58 1225.17 1545.58 Q1229.57 1545.58 1231.86 1543.85 Q1234.17 1542.11 1234.17 1538.8 Q1234.17 1535.75 1232.02 1534.03 Q1229.89 1532.3 1226.07 1532.3 L1222.05 1532.3 L1222.05 1528.45 L1226.26 1528.45 Q1229.71 1528.45 1231.54 1527.09 Q1233.36 1525.7 1233.36 1523.11 Q1233.36 1520.45 1231.47 1519.03 Q1229.59 1517.6 1226.07 1517.6 Q1224.15 1517.6 1221.95 1518.01 Q1219.75 1518.43 1217.11 1519.31 L1217.11 1515.14 Q1219.78 1514.4 1222.09 1514.03 Q1224.43 1513.66 1226.49 1513.66 Q1231.81 1513.66 1234.92 1516.09 Q1238.02 1518.5 1238.02 1522.62 Q1238.02 1525.49 1236.37 1527.48 Q1234.73 1529.45 1231.7 1530.21 Z" fill="#000000" fill-rule="nonzero" fill-opacity="1" /><path clip-path="url(#clip140)" d="M1554.6 1518.36 L1542.79 1536.81 L1554.6 1536.81 L1554.6 1518.36 M1553.37 1514.29 L1559.25 1514.29 L1559.25 1536.81 L1564.18 1536.81 L1564.18 1540.7 L1559.25 1540.7 L1559.25 1548.85 L1554.6 1548.85 L1554.6 1540.7 L1539 1540.7 L1539 1536.19 L1553.37 1514.29 Z" fill="#000000" fill-rule="nonzero" fill-opacity="1" /><path clip-path="url(#clip140)" d="M1866.01 1514.29 L1884.36 1514.29 L1884.36 1518.22 L1870.29 1518.22 L1870.29 1526.7 Q1871.31 1526.35 1872.32 1526.19 Q1873.34 1526 1874.36 1526 Q1880.15 1526 1883.53 1529.17 Q1886.91 1532.34 1886.91 1537.76 Q1886.91 1543.34 1883.44 1546.44 Q1879.96 1549.52 1873.64 1549.52 Q1871.47 1549.52 1869.2 1549.15 Q1866.95 1548.78 1864.55 1548.04 L1864.55 1543.34 Q1866.63 1544.47 1868.85 1545.03 Q1871.07 1545.58 1873.55 1545.58 Q1877.56 1545.58 1879.89 1543.48 Q1882.23 1541.37 1882.23 1537.76 Q1882.23 1534.15 1879.89 1532.04 Q1877.56 1529.94 1873.55 1529.94 Q1871.68 1529.94 1869.8 1530.35 Q1867.95 1530.77 1866.01 1531.65 L1866.01 1514.29 Z" fill="#000000" fill-rule="nonzero" fill-opacity="1" /><path clip-path="url(#clip140)" d="M2200.27 1529.7 Q2197.12 1529.7 2195.27 1531.86 Q2193.44 1534.01 2193.44 1537.76 Q2193.44 1541.49 2195.27 1543.66 Q2197.12 1545.82 2200.27 1545.82 Q2203.42 1545.82 2205.25 1543.66 Q2207.1 1541.49 2207.1 1537.76 Q2207.1 1534.01 2205.25 1531.86 Q2203.42 1529.7 2200.27 1529.7 M2209.55 1515.05 L2209.55 1519.31 Q2207.79 1518.48 2205.99 1518.04 Q2204.21 1517.6 2202.45 1517.6 Q2197.82 1517.6 2195.36 1520.72 Q2192.93 1523.85 2192.59 1530.17 Q2193.95 1528.15 2196.01 1527.09 Q2198.07 1526 2200.55 1526 Q2205.76 1526 2208.77 1529.17 Q2211.8 1532.32 2211.8 1537.76 Q2211.8 1543.08 2208.65 1546.3 Q2205.5 1549.52 2200.27 1549.52 Q2194.28 1549.52 2191.1 1544.94 Q2187.93 1540.33 2187.93 1531.6 Q2187.93 1523.41 2191.82 1518.55 Q2195.71 1513.66 2202.26 1513.66 Q2204.02 1513.66 2205.8 1514.01 Q2207.61 1514.36 2209.55 1515.05 Z" fill="#000000" fill-rule="nonzero" fill-opacity="1" /><polyline clip-path="url(#clip140)" style="stroke:#000000; stroke-linecap:round; stroke-linejoin:round; stroke-width:4; stroke-opacity:1; fill:none" points="193.936,1486.45 193.936,47.2441 "/>
<polyline clip-path="url(#clip140)" style="stroke:#000000; stroke-linecap:round; stroke-linejoin:round; stroke-width:4; stroke-opacity:1; fill:none" points="193.936,1278.69 212.834,1278.69 "/>
<polyline clip-path="url(#clip140)" style="stroke:#000000; stroke-linecap:round; stroke-linejoin:round; stroke-width:4; stroke-opacity:1; fill:none" points="193.936,1015.73 212.834,1015.73 "/>
<polyline clip-path="url(#clip140)" style="stroke:#000000; stroke-linecap:round; stroke-linejoin:round; stroke-width:4; stroke-opacity:1; fill:none" points="193.936,752.76 212.834,752.76 "/>
<polyline clip-path="url(#clip140)" style="stroke:#000000; stroke-linecap:round; stroke-linejoin:round; stroke-width:4; stroke-opacity:1; fill:none" points="193.936,489.792 212.834,489.792 "/>
<polyline clip-path="url(#clip140)" style="stroke:#000000; stroke-linecap:round; stroke-linejoin:round; stroke-width:4; stroke-opacity:1; fill:none" points="193.936,226.825 212.834,226.825 "/>
<path clip-path="url(#clip140)" d="M50.9921 1279.15 L80.6679 1279.15 L80.6679 1283.08 L50.9921 1283.08 L50.9921 1279.15 Z" fill="#000000" fill-rule="nonzero" fill-opacity="1" /><path clip-path="url(#clip140)" d="M91.5706 1292.04 L99.2095 1292.04 L99.2095 1265.67 L90.8993 1267.34 L90.8993 1263.08 L99.1632 1261.41 L103.839 1261.41 L103.839 1292.04 L111.478 1292.04 L111.478 1295.97 L91.5706 1295.97 L91.5706 1292.04 Z" fill="#000000" fill-rule="nonzero" fill-opacity="1" /><path clip-path="url(#clip140)" d="M120.922 1290.09 L125.807 1290.09 L125.807 1295.97 L120.922 1295.97 L120.922 1290.09 Z" fill="#000000" fill-rule="nonzero" fill-opacity="1" /><path clip-path="url(#clip140)" d="M145.992 1264.49 Q142.381 1264.49 140.552 1268.06 Q138.746 1271.6 138.746 1278.73 Q138.746 1285.84 140.552 1289.4 Q142.381 1292.94 145.992 1292.94 Q149.626 1292.94 151.431 1289.4 Q153.26 1285.84 153.26 1278.73 Q153.26 1271.6 151.431 1268.06 Q149.626 1264.49 145.992 1264.49 M145.992 1260.79 Q151.802 1260.79 154.857 1265.4 Q157.936 1269.98 157.936 1278.73 Q157.936 1287.46 154.857 1292.06 Q151.802 1296.65 145.992 1296.65 Q140.181 1296.65 137.103 1292.06 Q134.047 1287.46 134.047 1278.73 Q134.047 1269.98 137.103 1265.4 Q140.181 1260.79 145.992 1260.79 Z" fill="#000000" fill-rule="nonzero" fill-opacity="1" /><path clip-path="url(#clip140)" d="M51.9875 1016.18 L81.6633 1016.18 L81.6633 1020.11 L51.9875 1020.11 L51.9875 1016.18 Z" fill="#000000" fill-rule="nonzero" fill-opacity="1" /><path clip-path="url(#clip140)" d="M101.756 1001.53 Q98.1447 1001.53 96.316 1005.09 Q94.5104 1008.63 94.5104 1015.76 Q94.5104 1022.87 96.316 1026.43 Q98.1447 1029.97 101.756 1029.97 Q105.39 1029.97 107.196 1026.43 Q109.024 1022.87 109.024 1015.76 Q109.024 1008.63 107.196 1005.09 Q105.39 1001.53 101.756 1001.53 M101.756 997.822 Q107.566 997.822 110.621 1002.43 Q113.7 1007.01 113.7 1015.76 Q113.7 1024.49 110.621 1029.09 Q107.566 1033.68 101.756 1033.68 Q95.9456 1033.68 92.8669 1029.09 Q89.8114 1024.49 89.8114 1015.76 Q89.8114 1007.01 92.8669 1002.43 Q95.9456 997.822 101.756 997.822 Z" fill="#000000" fill-rule="nonzero" fill-opacity="1" /><path clip-path="url(#clip140)" d="M121.918 1027.13 L126.802 1027.13 L126.802 1033.01 L121.918 1033.01 L121.918 1027.13 Z" fill="#000000" fill-rule="nonzero" fill-opacity="1" /><path clip-path="url(#clip140)" d="M137.033 998.447 L155.39 998.447 L155.39 1002.38 L141.316 1002.38 L141.316 1010.85 Q142.334 1010.51 143.353 1010.34 Q144.371 1010.16 145.39 1010.16 Q151.177 1010.16 154.556 1013.33 Q157.936 1016.5 157.936 1021.92 Q157.936 1027.5 154.464 1030.6 Q150.992 1033.68 144.672 1033.68 Q142.496 1033.68 140.228 1033.31 Q137.982 1032.94 135.575 1032.2 L135.575 1027.5 Q137.658 1028.63 139.881 1029.19 Q142.103 1029.74 144.58 1029.74 Q148.584 1029.74 150.922 1027.64 Q153.26 1025.53 153.26 1021.92 Q153.26 1018.31 150.922 1016.2 Q148.584 1014.09 144.58 1014.09 Q142.705 1014.09 140.83 1014.51 Q138.978 1014.93 137.033 1015.81 L137.033 998.447 Z" fill="#000000" fill-rule="nonzero" fill-opacity="1" /><path clip-path="url(#clip140)" d="M100.76 738.558 Q97.1493 738.558 95.3206 742.123 Q93.515 745.665 93.515 752.794 Q93.515 759.901 95.3206 763.466 Q97.1493 767.007 100.76 767.007 Q104.395 767.007 106.2 763.466 Q108.029 759.901 108.029 752.794 Q108.029 745.665 106.2 742.123 Q104.395 738.558 100.76 738.558 M100.76 734.855 Q106.571 734.855 109.626 739.461 Q112.705 744.044 112.705 752.794 Q112.705 761.521 109.626 766.128 Q106.571 770.711 100.76 770.711 Q94.9502 770.711 91.8715 766.128 Q88.816 761.521 88.816 752.794 Q88.816 744.044 91.8715 739.461 Q94.9502 734.855 100.76 734.855 Z" fill="#000000" fill-rule="nonzero" fill-opacity="1" /><path clip-path="url(#clip140)" d="M120.922 764.16 L125.807 764.16 L125.807 770.04 L120.922 770.04 L120.922 764.16 Z" fill="#000000" fill-rule="nonzero" fill-opacity="1" /><path clip-path="url(#clip140)" d="M145.992 738.558 Q142.381 738.558 140.552 742.123 Q138.746 745.665 138.746 752.794 Q138.746 759.901 140.552 763.466 Q142.381 767.007 145.992 767.007 Q149.626 767.007 151.431 763.466 Q153.26 759.901 153.26 752.794 Q153.26 745.665 151.431 742.123 Q149.626 738.558 145.992 738.558 M145.992 734.855 Q151.802 734.855 154.857 739.461 Q157.936 744.044 157.936 752.794 Q157.936 761.521 154.857 766.128 Q151.802 770.711 145.992 770.711 Q140.181 770.711 137.103 766.128 Q134.047 761.521 134.047 752.794 Q134.047 744.044 137.103 739.461 Q140.181 734.855 145.992 734.855 Z" fill="#000000" fill-rule="nonzero" fill-opacity="1" /><path clip-path="url(#clip140)" d="M101.756 475.591 Q98.1447 475.591 96.316 479.156 Q94.5104 482.698 94.5104 489.827 Q94.5104 496.934 96.316 500.498 Q98.1447 504.04 101.756 504.04 Q105.39 504.04 107.196 500.498 Q109.024 496.934 109.024 489.827 Q109.024 482.698 107.196 479.156 Q105.39 475.591 101.756 475.591 M101.756 471.887 Q107.566 471.887 110.621 476.494 Q113.7 481.077 113.7 489.827 Q113.7 498.554 110.621 503.16 Q107.566 507.744 101.756 507.744 Q95.9456 507.744 92.8669 503.16 Q89.8114 498.554 89.8114 489.827 Q89.8114 481.077 92.8669 476.494 Q95.9456 471.887 101.756 471.887 Z" fill="#000000" fill-rule="nonzero" fill-opacity="1" /><path clip-path="url(#clip140)" d="M121.918 501.193 L126.802 501.193 L126.802 507.072 L121.918 507.072 L121.918 501.193 Z" fill="#000000" fill-rule="nonzero" fill-opacity="1" /><path clip-path="url(#clip140)" d="M137.033 472.512 L155.39 472.512 L155.39 476.448 L141.316 476.448 L141.316 484.92 Q142.334 484.573 143.353 484.411 Q144.371 484.225 145.39 484.225 Q151.177 484.225 154.556 487.397 Q157.936 490.568 157.936 495.985 Q157.936 501.563 154.464 504.665 Q150.992 507.744 144.672 507.744 Q142.496 507.744 140.228 507.373 Q137.982 507.003 135.575 506.262 L135.575 501.563 Q137.658 502.697 139.881 503.253 Q142.103 503.809 144.58 503.809 Q148.584 503.809 150.922 501.702 Q153.26 499.596 153.26 495.985 Q153.26 492.373 150.922 490.267 Q148.584 488.161 144.58 488.161 Q142.705 488.161 140.83 488.577 Q138.978 488.994 137.033 489.873 L137.033 472.512 Z" fill="#000000" fill-rule="nonzero" fill-opacity="1" /><path clip-path="url(#clip140)" d="M91.5706 240.17 L99.2095 240.17 L99.2095 213.805 L90.8993 215.471 L90.8993 211.212 L99.1632 209.545 L103.839 209.545 L103.839 240.17 L111.478 240.17 L111.478 244.105 L91.5706 244.105 L91.5706 240.17 Z" fill="#000000" fill-rule="nonzero" fill-opacity="1" /><path clip-path="url(#clip140)" d="M120.922 238.226 L125.807 238.226 L125.807 244.105 L120.922 244.105 L120.922 238.226 Z" fill="#000000" fill-rule="nonzero" fill-opacity="1" /><path clip-path="url(#clip140)" d="M145.992 212.624 Q142.381 212.624 140.552 216.189 Q138.746 219.73 138.746 226.86 Q138.746 233.966 140.552 237.531 Q142.381 241.073 145.992 241.073 Q149.626 241.073 151.431 237.531 Q153.26 233.966 153.26 226.86 Q153.26 219.73 151.431 216.189 Q149.626 212.624 145.992 212.624 M145.992 208.92 Q151.802 208.92 154.857 213.527 Q157.936 218.11 157.936 226.86 Q157.936 235.587 154.857 240.193 Q151.802 244.777 145.992 244.777 Q140.181 244.777 137.103 240.193 Q134.047 235.587 134.047 226.86 Q134.047 218.11 137.103 213.527 Q140.181 208.92 145.992 208.92 Z" fill="#000000" fill-rule="nonzero" fill-opacity="1" /><polyline clip-path="url(#clip142)" style="stroke:#009af9; stroke-linecap:round; stroke-linejoin:round; stroke-width:4; stroke-opacity:1; fill:none" points="255.035,752.76 258.276,747.5 261.517,742.242 264.759,736.984 268,731.728 271.242,726.474 274.483,721.222 277.724,715.974 280.966,710.73 284.207,705.489 287.449,700.254 290.69,695.023 293.931,689.799 297.173,684.581 300.414,679.369 303.655,674.165 306.897,668.969 310.138,663.781 313.38,658.602 316.621,653.432 319.862,648.273 323.104,643.123 326.345,637.985 329.587,632.858 332.828,627.744 336.069,622.641 339.311,617.552 342.552,612.476 345.793,607.415 349.035,602.368 352.276,597.335 355.518,592.319 358.759,587.318 362,582.334 365.242,577.367 368.483,572.418 371.725,567.486 374.966,562.574 378.207,557.68 381.449,552.805 384.69,547.951 387.931,543.117 391.173,538.304 394.414,533.513 397.656,528.743 400.897,523.996 404.138,519.272 407.38,514.571 410.621,509.894 413.863,505.241 417.104,500.613 420.345,496.01 423.587,491.433 426.828,486.882 430.069,482.358 433.311,477.86 436.552,473.391 439.794,468.949 443.035,464.535 446.276,460.15 449.518,455.795 452.759,451.469 456.001,447.173 459.242,442.908 462.483,438.674 465.725,434.471 468.966,430.3 472.208,426.162 475.449,422.056 478.69,417.983 481.932,413.943 485.173,409.938 488.414,405.967 491.656,402.03 494.897,398.128 498.139,394.262 501.38,390.432 504.621,386.638 507.863,382.881 511.104,379.16 514.346,375.477 517.587,371.832 520.828,368.225 524.07,364.656 527.311,361.126 530.552,357.635 533.794,354.184 537.035,350.773 540.277,347.402 543.518,344.071 546.759,340.781 550.001,337.533 553.242,334.325 556.484,331.16 559.725,328.037 562.966,324.956 566.208,321.919 569.449,318.924 572.69,315.973 575.932,313.065 579.173,310.201 582.415,307.382 585.656,304.607 588.897,301.877 592.139,299.192 595.38,296.552 598.622,293.958 601.863,291.41 605.104,288.908 608.346,286.452 611.587,284.043 614.828,281.681 618.07,279.366 621.311,277.098 624.553,274.878 627.794,272.706 631.035,270.581 634.277,268.505 637.518,266.478 640.76,264.499 644.001,262.568 647.242,260.687 650.484,258.855 653.725,257.072 656.966,255.339 660.208,253.656 663.449,252.023 666.691,250.439 669.932,248.906 673.173,247.423 676.415,245.991 679.656,244.61 682.898,243.279 686.139,241.999 689.38,240.771 692.622,239.593 695.863,238.467 699.104,237.392 702.346,236.369 705.587,235.398 708.829,234.478 712.07,233.61 715.311,232.794 718.553,232.03 721.794,231.318 725.036,230.658 728.277,230.05 731.518,229.495 734.76,228.992 738.001,228.541 741.242,228.143 744.484,227.797 747.725,227.504 750.967,227.263 754.208,227.075 757.449,226.939 760.691,226.856 763.932,226.825 767.174,226.848 770.415,226.922 773.656,227.05 776.898,227.229 780.139,227.462 783.381,227.747 786.622,228.084 789.863,228.474 793.105,228.916 796.346,229.411 799.587,229.958 802.829,230.558 806.07,231.209 809.312,231.913 812.553,232.669 815.794,233.476 819.036,234.336 822.277,235.248 825.519,236.211 828.76,237.226 832.001,238.292 835.243,239.41 838.484,240.58 841.725,241.8 844.967,243.072 848.208,244.394 851.45,245.768 854.691,247.192 857.932,248.667 861.174,250.192 864.415,251.767 867.657,253.393 870.898,255.068 874.139,256.793 877.381,258.568 880.622,260.392 883.863,262.265 887.105,264.188 890.346,266.159 893.588,268.179 896.829,270.248 900.07,272.364 903.312,274.529 906.553,276.741 909.795,279.002 913.036,281.309 916.277,283.664 919.519,286.065 922.76,288.514 926.001,291.008 929.243,293.549 932.484,296.136 935.726,298.768 938.967,301.446 942.208,304.169 945.45,306.937 948.691,309.749 951.933,312.606 955.174,315.507 958.415,318.451 961.657,321.439 964.898,324.47 968.139,327.544 971.381,330.66 974.622,333.818 977.864,337.019 981.105,340.261 984.346,343.544 987.588,346.868 990.829,350.233 994.071,353.638 997.312,357.083 1000.55,360.568 1003.79,364.091 1007.04,367.654 1010.28,371.255 1013.52,374.894 1016.76,378.571 1020,382.286 1023.24,386.037 1026.48,389.825 1029.73,393.65 1032.97,397.51 1036.21,401.406 1039.45,405.337 1042.69,409.303 1045.93,413.303 1049.17,417.337 1052.42,421.405 1055.66,425.506 1058.9,429.639 1062.14,433.805 1065.38,438.003 1068.62,442.232 1071.86,446.492 1075.11,450.783 1078.35,455.104 1081.59,459.455 1084.83,463.835 1088.07,468.244 1091.31,472.681 1094.55,477.147 1097.79,481.64 1101.04,486.16 1104.28,490.707 1107.52,495.28 1110.76,499.878 1114,504.503 1117.24,509.151 1120.48,513.825 1123.73,518.522 1126.97,523.242 1130.21,527.986 1133.45,532.752 1136.69,537.54 1139.93,542.349 1143.17,547.18 1146.42,552.031 1149.66,556.902 1152.9,561.793 1156.14,566.703 1159.38,571.631 1162.62,576.578 1165.86,581.542 1169.11,586.523 1172.35,591.521 1175.59,596.535 1178.83,601.565 1182.07,606.61 1185.31,611.669 1188.55,616.743 1191.8,621.83 1195.04,626.93 1198.28,632.043 1201.52,637.168 1204.76,642.304 1208,647.452 1211.24,652.61 1214.48,657.778 1217.73,662.955 1220.97,668.142 1224.21,673.337 1227.45,678.54 1230.69,683.75 1233.93,688.967 1237.17,694.191 1240.42,699.42 1243.66,704.655 1246.9,709.895 1250.14,715.139 1253.38,720.386 1256.62,725.637 1259.86,730.891 1263.11,736.147 1266.35,741.404 1269.59,746.663 1272.83,751.922 1276.07,757.181 1279.31,762.44 1282.55,767.698 1285.8,772.954 1289.04,778.209 1292.28,783.461 1295.52,788.709 1298.76,793.954 1302,799.195 1305.24,804.432 1308.48,809.663 1311.73,814.889 1314.97,820.108 1318.21,825.321 1321.45,830.526 1324.69,835.723 1327.93,840.913 1331.17,846.093 1334.42,851.264 1337.66,856.426 1340.9,861.576 1344.14,866.716 1347.38,871.845 1350.62,876.962 1353.86,882.066 1357.11,887.157 1360.35,892.235 1363.59,897.299 1366.83,902.349 1370.07,907.383 1373.31,912.402 1376.55,917.406 1379.8,922.392 1383.04,927.362 1386.28,932.314 1389.52,937.249 1392.76,942.164 1396,947.061 1399.24,951.939 1402.49,956.796 1405.73,961.633 1408.97,966.45 1412.21,971.245 1415.45,976.018 1418.69,980.768 1421.93,985.496 1425.17,990.201 1428.42,994.882 1431.66,999.538 1434.9,1004.17 1438.14,1008.78 1441.38,1013.36 1444.62,1017.91 1447.86,1022.44 1451.11,1026.94 1454.35,1031.42 1457.59,1035.87 1460.83,1040.28 1464.07,1044.67 1467.31,1049.03 1470.55,1053.36 1473.8,1057.66 1477.04,1061.93 1480.28,1066.17 1483.52,1070.38 1486.76,1074.56 1490,1078.7 1493.24,1082.81 1496.49,1086.89 1499.73,1090.93 1502.97,1094.95 1506.21,1098.92 1509.45,1102.86 1512.69,1106.77 1515.93,1110.64 1519.18,1114.48 1522.42,1118.28 1525.66,1122.04 1528.9,1125.77 1532.14,1129.46 1535.38,1133.11 1538.62,1136.72 1541.86,1140.3 1545.11,1143.83 1548.35,1147.33 1551.59,1150.79 1554.83,1154.21 1558.07,1157.58 1561.31,1160.92 1564.55,1164.22 1567.8,1167.47 1571.04,1170.69 1574.28,1173.86 1577.52,1176.99 1580.76,1180.07 1584,1183.12 1587.24,1186.12 1590.49,1189.08 1593.73,1191.99 1596.97,1194.86 1600.21,1197.69 1603.45,1200.47 1606.69,1203.21 1609.93,1205.9 1613.18,1208.55 1616.42,1211.15 1619.66,1213.71 1622.9,1216.22 1626.14,1218.68 1629.38,1221.1 1632.62,1223.47 1635.86,1225.79 1639.11,1228.06 1642.35,1230.29 1645.59,1232.47 1648.83,1234.6 1652.07,1236.69 1655.31,1238.72 1658.55,1240.71 1661.8,1242.65 1665.04,1244.54 1668.28,1246.38 1671.52,1248.17 1674.76,1249.91 1678,1251.6 1681.24,1253.24 1684.49,1254.83 1687.73,1256.37 1690.97,1257.86 1694.21,1259.3 1697.45,1260.69 1700.69,1262.03 1703.93,1263.32 1707.18,1264.56 1710.42,1265.74 1713.66,1266.88 1716.9,1267.96 1720.14,1268.99 1723.38,1269.97 1726.62,1270.9 1729.87,1271.77 1733.11,1272.6 1736.35,1273.37 1739.59,1274.09 1742.83,1274.76 1746.07,1275.38 1749.31,1275.94 1752.55,1276.45 1755.8,1276.91 1759.04,1277.32 1762.28,1277.67 1765.52,1277.97 1768.76,1278.22 1772,1278.42 1775.24,1278.56 1778.49,1278.65 1781.73,1278.69 1784.97,1278.68 1788.21,1278.61 1791.45,1278.49 1794.69,1278.32 1797.93,1278.1 1801.18,1277.82 1804.42,1277.49 1807.66,1277.11 1810.9,1276.68 1814.14,1276.19 1817.38,1275.65 1820.62,1275.06 1823.87,1274.42 1827.11,1273.72 1830.35,1272.97 1833.59,1272.17 1836.83,1271.32 1840.07,1270.42 1843.31,1269.47 1846.55,1268.46 1849.8,1267.4 1853.04,1266.29 1856.28,1265.13 1859.52,1263.92 1862.76,1262.65 1866,1261.34 1869.24,1259.97 1872.49,1258.56 1875.73,1257.09 1878.97,1255.57 1882.21,1254.01 1885.45,1252.39 1888.69,1250.72 1891.93,1249 1895.18,1247.24 1898.42,1245.42 1901.66,1243.56 1904.9,1241.64 1908.14,1239.68 1911.38,1237.67 1914.62,1235.6 1917.87,1233.5 1921.11,1231.34 1924.35,1229.13 1927.59,1226.88 1930.83,1224.58 1934.07,1222.23 1937.31,1219.84 1940.56,1217.4 1943.8,1214.91 1947.04,1212.38 1950.28,1209.8 1953.52,1207.17 1956.76,1204.5 1960,1201.79 1963.24,1199.03 1966.49,1196.22 1969.73,1193.37 1972.97,1190.48 1976.21,1187.54 1979.45,1184.56 1982.69,1181.53 1985.93,1178.47 1989.18,1175.36 1992.42,1172.21 1995.66,1169.01 1998.9,1165.78 2002.14,1162.5 2005.38,1159.18 2008.62,1155.82 2011.87,1152.43 2015.11,1148.99 2018.35,1145.51 2021.59,1141.99 2024.83,1138.44 2028.07,1134.84 2031.31,1131.21 2034.56,1127.54 2037.8,1123.83 2041.04,1120.08 2044.28,1116.3 2047.52,1112.48 2050.76,1108.63 2054,1104.74 2057.24,1100.81 2060.49,1096.85 2063.73,1092.86 2066.97,1088.83 2070.21,1084.76 2073.45,1080.67 2076.69,1076.54 2079.93,1072.38 2083.18,1068.19 2086.42,1063.96 2089.66,1059.71 2092.9,1055.42 2096.14,1051.11 2099.38,1046.76 2102.62,1042.38 2105.87,1037.98 2109.11,1033.55 2112.35,1029.09 2115.59,1024.6 2118.83,1020.08 2122.07,1015.54 2125.31,1010.97 2128.56,1006.37 2131.8,1001.75 2135.04,997.11 2138.28,992.44 2141.52,987.747 2144.76,983.03 2148,978.29 2151.25,973.528 2154.49,968.743 2157.73,963.937 2160.97,959.11 2164.21,954.262 2167.45,949.394 2170.69,944.506 2173.93,939.6 2177.18,934.674 2180.42,929.73 2183.66,924.769 2186.9,919.79 2190.14,914.795 2193.38,909.783 2196.62,904.756 2199.87,899.714 2203.11,894.657 2206.35,889.585 2209.59,884.5 2212.83,879.402 2216.07,874.291 2219.31,869.168 2222.56,864.034 2225.8,858.888 2229.04,853.732 2232.28,848.565 2235.52,843.389 2238.76,838.204 2242,833.01 2245.25,827.809 2248.49,822.599 2251.73,817.383 2254.97,812.161 2258.21,806.932 2261.45,801.698 2264.69,796.459 2267.94,791.216 2271.18,785.969 2274.42,780.718 2277.66,775.465 2280.9,770.21 2284.14,764.952 2287.38,759.694 2290.62,754.435 "/>
<circle clip-path="url(#clip142)" cx="1191.8" cy="612.209" r="14.4" fill="#e26f46" fill-rule="evenodd" fill-opacity="1" stroke="#000000" stroke-opacity="1" stroke-width="3.2"/>
<circle clip-path="url(#clip142)" cx="867.657" cy="314.008" r="14.4" fill="#e26f46" fill-rule="evenodd" fill-opacity="1" stroke="#000000" stroke-opacity="1" stroke-width="3.2"/>
<circle clip-path="url(#clip142)" cx="689.38" cy="234.234" r="14.4" fill="#e26f46" fill-rule="evenodd" fill-opacity="1" stroke="#000000" stroke-opacity="1" stroke-width="3.2"/>
<circle clip-path="url(#clip142)" cx="426.828" cy="603.494" r="14.4" fill="#e26f46" fill-rule="evenodd" fill-opacity="1" stroke="#000000" stroke-opacity="1" stroke-width="3.2"/>
<circle clip-path="url(#clip142)" cx="1117.24" cy="408.68" r="14.4" fill="#e26f46" fill-rule="evenodd" fill-opacity="1" stroke="#000000" stroke-opacity="1" stroke-width="3.2"/>
<circle clip-path="url(#clip142)" cx="355.518" cy="564.351" r="14.4" fill="#e26f46" fill-rule="evenodd" fill-opacity="1" stroke="#000000" stroke-opacity="1" stroke-width="3.2"/>
<circle clip-path="url(#clip142)" cx="689.38" cy="339.959" r="14.4" fill="#e26f46" fill-rule="evenodd" fill-opacity="1" stroke="#000000" stroke-opacity="1" stroke-width="3.2"/>
<circle clip-path="url(#clip142)" cx="2206.35" cy="944.537" r="14.4" fill="#e26f46" fill-rule="evenodd" fill-opacity="1" stroke="#000000" stroke-opacity="1" stroke-width="3.2"/>
<circle clip-path="url(#clip142)" cx="319.862" cy="708.724" r="14.4" fill="#e26f46" fill-rule="evenodd" fill-opacity="1" stroke="#000000" stroke-opacity="1" stroke-width="3.2"/>
<circle clip-path="url(#clip142)" cx="2131.8" cy="1017.64" r="14.4" fill="#e26f46" fill-rule="evenodd" fill-opacity="1" stroke="#000000" stroke-opacity="1" stroke-width="3.2"/>
<circle clip-path="url(#clip142)" cx="1707.18" cy="1376.08" r="14.4" fill="#e26f46" fill-rule="evenodd" fill-opacity="1" stroke="#000000" stroke-opacity="1" stroke-width="3.2"/>
<circle clip-path="url(#clip142)" cx="1736.35" cy="1223.97" r="14.4" fill="#e26f46" fill-rule="evenodd" fill-opacity="1" stroke="#000000" stroke-opacity="1" stroke-width="3.2"/>
<circle clip-path="url(#clip142)" cx="264.759" cy="854.316" r="14.4" fill="#e26f46" fill-rule="evenodd" fill-opacity="1" stroke="#000000" stroke-opacity="1" stroke-width="3.2"/>
<circle clip-path="url(#clip142)" cx="815.794" cy="102.281" r="14.4" fill="#e26f46" fill-rule="evenodd" fill-opacity="1" stroke="#000000" stroke-opacity="1" stroke-width="3.2"/>
<circle clip-path="url(#clip142)" cx="2044.28" cy="1039.09" r="14.4" fill="#e26f46" fill-rule="evenodd" fill-opacity="1" stroke="#000000" stroke-opacity="1" stroke-width="3.2"/>
<circle clip-path="url(#clip142)" cx="1428.42" cy="975.302" r="14.4" fill="#e26f46" fill-rule="evenodd" fill-opacity="1" stroke="#000000" stroke-opacity="1" stroke-width="3.2"/>
<circle clip-path="url(#clip142)" cx="763.932" cy="315.423" r="14.4" fill="#e26f46" fill-rule="evenodd" fill-opacity="1" stroke="#000000" stroke-opacity="1" stroke-width="3.2"/>
<circle clip-path="url(#clip142)" cx="1577.52" cy="1291.33" r="14.4" fill="#e26f46" fill-rule="evenodd" fill-opacity="1" stroke="#000000" stroke-opacity="1" stroke-width="3.2"/>
<circle clip-path="url(#clip142)" cx="789.863" cy="224.122" r="14.4" fill="#e26f46" fill-rule="evenodd" fill-opacity="1" stroke="#000000" stroke-opacity="1" stroke-width="3.2"/>
<circle clip-path="url(#clip142)" cx="413.863" cy="625.391" r="14.4" fill="#e26f46" fill-rule="evenodd" fill-opacity="1" stroke="#000000" stroke-opacity="1" stroke-width="3.2"/>
<path clip-path="url(#clip142)" d="M255.035 968.93 L258.276 963.371 L261.517 957.824 L264.759 952.297 L268 946.796 L271.242 941.322 L274.483 935.877 L277.724 930.463 L280.966 925.083 L284.207 919.738 L287.449 914.431 L290.69 909.166 L293.931 903.945 L297.173 898.773 L300.414 893.654 L303.655 888.593 L306.897 883.595 L310.138 878.666 L313.38 873.813 L316.621 869.042 L319.862 864.362 L323.104 859.777 L326.345 855.29 L329.587 850.9 L332.828 846.61 L336.069 842.419 L339.311 838.33 L342.552 834.345 L345.793 830.468 L349.035 826.701 L352.276 823.051 L355.518 819.521 L358.759 816.115 L362 812.827 L365.242 809.652 L368.483 806.583 L371.725 803.616 L374.966 800.745 L378.207 797.967 L381.449 795.279 L384.69 792.68 L387.931 790.169 L391.173 787.744 L394.414 785.407 L397.656 783.158 L400.897 781 L404.138 778.935 L407.38 776.965 L410.621 775.093 L413.863 773.323 L417.104 771.657 L420.345 770.092 L423.587 768.624 L426.828 767.248 L430.069 765.96 L433.311 764.748 L436.552 763.599 L439.794 762.502 L443.035 761.445 L446.276 760.417 L449.518 759.406 L452.759 758.402 L456.001 757.396 L459.242 756.378 L462.483 755.339 L465.725 754.271 L468.966 753.166 L472.208 752.017 L475.449 750.817 L478.69 749.56 L481.932 748.24 L485.173 746.851 L488.414 745.389 L491.656 743.849 L494.897 742.226 L498.139 740.517 L501.38 738.718 L504.621 736.827 L507.863 734.839 L511.104 732.753 L514.346 730.565 L517.587 728.275 L520.828 725.88 L524.07 723.378 L527.311 720.768 L530.552 718.05 L533.794 715.221 L537.035 712.282 L540.277 709.231 L543.518 706.07 L546.759 702.796 L550.001 699.411 L553.242 695.915 L556.484 692.308 L559.725 688.591 L562.966 684.765 L566.208 680.831 L569.449 676.789 L572.69 672.643 L575.932 668.392 L579.173 664.039 L582.415 659.586 L585.656 655.036 L588.897 650.39 L592.139 645.652 L595.38 640.824 L598.622 635.91 L601.863 630.913 L605.104 625.837 L608.346 620.686 L611.587 615.463 L614.828 610.175 L618.07 604.826 L621.311 599.42 L624.553 593.965 L627.794 588.465 L631.035 582.927 L634.277 577.359 L637.518 571.766 L640.76 566.158 L644.001 560.542 L647.242 554.926 L650.484 549.321 L653.725 543.735 L656.966 538.18 L660.208 532.664 L663.449 527.201 L666.691 521.801 L669.932 516.477 L673.173 511.241 L676.415 506.106 L679.656 501.087 L682.898 496.196 L686.139 491.448 L689.38 486.856 L692.622 482.431 L695.863 478.17 L699.104 474.065 L702.346 470.11 L705.587 466.297 L708.829 462.621 L712.07 459.075 L715.311 455.654 L718.553 452.353 L721.794 449.168 L725.036 446.094 L728.277 443.131 L731.518 440.275 L734.76 437.528 L738.001 434.888 L741.242 432.358 L744.484 429.94 L747.725 427.637 L750.967 425.455 L754.208 423.398 L757.449 421.474 L760.691 419.69 L763.932 418.055 L767.174 416.577 L770.415 415.26 L773.656 414.112 L776.898 413.137 L780.139 412.342 L783.381 411.735 L786.622 411.323 L789.863 411.115 L793.105 411.119 L796.346 411.335 L799.587 411.764 L802.829 412.407 L806.07 413.266 L809.312 414.341 L812.553 415.636 L815.794 417.154 L819.036 418.894 L822.277 420.849 L825.519 423.005 L828.76 425.351 L832.001 427.877 L835.243 430.572 L838.484 433.428 L841.725 436.436 L844.967 439.588 L848.208 442.876 L851.45 446.294 L854.691 449.837 L857.932 453.498 L861.174 457.273 L864.415 461.157 L867.657 465.146 L870.898 469.236 L874.139 473.415 L877.381 477.674 L880.622 482 L883.863 486.385 L887.105 490.818 L890.346 495.29 L893.588 499.792 L896.829 504.315 L900.07 508.851 L903.312 513.392 L906.553 517.932 L909.795 522.463 L913.036 526.979 L916.277 531.474 L919.519 535.942 L922.76 540.378 L926.001 544.777 L929.243 549.134 L932.484 553.446 L935.726 557.709 L938.967 561.917 L942.208 566.07 L945.45 570.162 L948.691 574.192 L951.933 578.158 L955.174 582.056 L958.415 585.885 L961.657 589.643 L964.898 593.328 L968.139 596.94 L971.381 600.477 L974.622 603.938 L977.864 607.322 L981.105 610.63 L984.346 613.861 L987.588 617.015 L990.829 620.093 L994.071 623.093 L997.312 626.018 L1000.55 628.868 L1003.79 631.644 L1007.04 634.348 L1010.28 636.98 L1013.52 639.543 L1016.76 642.038 L1020 644.468 L1023.24 646.835 L1026.48 649.141 L1029.73 651.39 L1032.97 653.585 L1036.21 655.729 L1039.45 657.825 L1042.69 659.879 L1045.93 661.893 L1049.17 663.873 L1052.42 665.823 L1055.66 667.75 L1058.9 669.657 L1062.14 671.552 L1065.38 673.441 L1068.62 675.329 L1071.86 677.225 L1075.11 679.135 L1078.35 681.068 L1081.59 683.031 L1084.83 685.034 L1088.07 687.085 L1091.31 689.193 L1094.55 691.369 L1097.79 693.622 L1101.04 695.963 L1104.28 698.402 L1107.52 700.952 L1110.76 703.623 L1114 706.426 L1117.24 709.373 L1120.48 712.474 L1123.73 715.727 L1126.97 719.128 L1130.21 722.673 L1133.45 726.359 L1136.69 730.182 L1139.93 734.139 L1143.17 738.227 L1146.42 742.442 L1149.66 746.783 L1152.9 751.248 L1156.14 755.833 L1159.38 760.538 L1162.62 765.36 L1165.86 770.3 L1169.11 775.356 L1172.35 780.528 L1175.59 785.815 L1178.83 791.218 L1182.07 796.736 L1185.31 802.37 L1188.55 808.12 L1191.8 813.986 L1195.04 819.968 L1198.28 826.056 L1201.52 832.241 L1204.76 838.513 L1208 844.862 L1211.24 851.278 L1214.48 857.752 L1217.73 864.274 L1220.97 870.837 L1224.21 877.432 L1227.45 884.05 L1230.69 890.685 L1233.93 897.328 L1237.17 903.973 L1240.42 910.613 L1243.66 917.241 L1246.9 923.853 L1250.14 930.443 L1253.38 937.005 L1256.62 943.534 L1259.86 950.027 L1263.11 956.479 L1266.35 962.886 L1269.59 969.245 L1272.83 975.553 L1276.07 981.806 L1279.31 988.001 L1282.55 994.137 L1285.8 1000.21 L1289.04 1006.22 L1292.28 1012.17 L1295.52 1018.05 L1298.76 1023.86 L1302 1029.6 L1305.24 1035.27 L1308.48 1040.87 L1311.73 1046.4 L1314.97 1051.86 L1318.21 1057.25 L1321.45 1062.57 L1324.69 1067.82 L1327.93 1073 L1331.17 1078.12 L1334.42 1083.16 L1337.66 1088.14 L1340.9 1093.06 L1344.14 1097.91 L1347.38 1102.7 L1350.62 1107.43 L1353.86 1112.11 L1357.11 1116.73 L1360.35 1121.31 L1363.59 1125.83 L1366.83 1130.32 L1370.07 1134.76 L1373.31 1139.16 L1376.55 1143.53 L1379.8 1147.87 L1383.04 1152.19 L1386.28 1156.49 L1389.52 1160.77 L1392.76 1165.05 L1396 1169.32 L1399.24 1173.59 L1402.49 1177.87 L1405.73 1182.16 L1408.97 1186.47 L1412.21 1190.8 L1415.45 1195.16 L1418.69 1199.56 L1421.93 1204.01 L1425.17 1208.5 L1428.42 1213.05 L1431.66 1217.66 L1434.9 1222.32 L1438.14 1227.03 L1441.38 1231.78 L1444.62 1236.56 L1447.86 1241.37 L1451.11 1246.2 L1454.35 1251.05 L1457.59 1255.9 L1460.83 1260.74 L1464.07 1265.58 L1467.31 1270.41 L1470.55 1275.22 L1473.8 1280 L1477.04 1284.75 L1480.28 1289.47 L1483.52 1294.14 L1486.76 1298.77 L1490 1303.34 L1493.24 1307.87 L1496.49 1312.33 L1499.73 1316.73 L1502.97 1321.07 L1506.21 1325.33 L1509.45 1329.53 L1512.69 1333.66 L1515.93 1337.7 L1519.18 1341.68 L1522.42 1345.57 L1525.66 1349.38 L1528.9 1353.12 L1532.14 1356.77 L1535.38 1360.35 L1538.62 1363.84 L1541.86 1367.26 L1545.11 1370.59 L1548.35 1373.85 L1551.59 1377.03 L1554.83 1380.14 L1558.07 1383.17 L1561.31 1386.13 L1564.55 1389.02 L1567.8 1391.84 L1571.04 1394.6 L1574.28 1397.29 L1577.52 1399.92 L1580.76 1402.49 L1584 1405 L1587.24 1407.44 L1590.49 1409.81 L1593.73 1412.1 L1596.97 1414.32 L1600.21 1416.45 L1603.45 1418.5 L1606.69 1420.46 L1609.93 1422.33 L1613.18 1424.1 L1616.42 1425.78 L1619.66 1427.36 L1622.9 1428.84 L1626.14 1430.22 L1629.38 1431.49 L1632.62 1432.67 L1635.86 1433.74 L1639.11 1434.71 L1642.35 1435.57 L1645.59 1436.34 L1648.83 1437.01 L1652.07 1437.58 L1655.31 1438.07 L1658.55 1438.46 L1661.8 1438.77 L1665.04 1438.99 L1668.28 1439.15 L1671.52 1439.23 L1674.76 1439.25 L1678 1439.21 L1681.24 1439.12 L1684.49 1438.99 L1687.73 1438.83 L1690.97 1438.64 L1694.21 1438.43 L1697.45 1438.21 L1700.69 1438 L1703.93 1437.79 L1707.18 1437.6 L1710.42 1437.44 L1713.66 1437.31 L1716.9 1437.22 L1720.14 1437.17 L1723.38 1437.17 L1726.62 1437.22 L1729.87 1437.32 L1733.11 1437.48 L1736.35 1437.7 L1739.59 1437.99 L1742.83 1438.33 L1746.07 1438.73 L1749.31 1439.16 L1752.55 1439.63 L1755.8 1440.12 L1759.04 1440.62 L1762.28 1441.14 L1765.52 1441.65 L1768.76 1442.16 L1772 1442.66 L1775.24 1443.14 L1778.49 1443.59 L1781.73 1444.01 L1784.97 1444.4 L1788.21 1444.75 L1791.45 1445.04 L1794.69 1445.29 L1797.93 1445.49 L1801.18 1445.63 L1804.42 1445.7 L1807.66 1445.72 L1810.9 1445.66 L1814.14 1445.54 L1817.38 1445.34 L1820.62 1445.07 L1823.87 1444.73 L1827.11 1444.3 L1830.35 1443.8 L1833.59 1443.22 L1836.83 1442.55 L1840.07 1441.81 L1843.31 1440.98 L1846.55 1440.06 L1849.8 1439.06 L1853.04 1437.98 L1856.28 1436.8 L1859.52 1435.55 L1862.76 1434.2 L1866 1432.77 L1869.24 1431.25 L1872.49 1429.65 L1875.73 1427.95 L1878.97 1426.17 L1882.21 1424.31 L1885.45 1422.36 L1888.69 1420.32 L1891.93 1418.2 L1895.18 1416 L1898.42 1413.71 L1901.66 1411.33 L1904.9 1408.88 L1908.14 1406.34 L1911.38 1403.73 L1914.62 1401.03 L1917.87 1398.25 L1921.11 1395.4 L1924.35 1392.47 L1927.59 1389.47 L1930.83 1386.39 L1934.07 1383.24 L1937.31 1380.02 L1940.56 1376.73 L1943.8 1373.37 L1947.04 1369.95 L1950.28 1366.46 L1953.52 1362.91 L1956.76 1359.31 L1960 1355.65 L1963.24 1351.93 L1966.49 1348.16 L1969.73 1344.35 L1972.97 1340.49 L1976.21 1336.58 L1979.45 1332.64 L1982.69 1328.67 L1985.93 1324.66 L1989.18 1320.62 L1992.42 1316.57 L1995.66 1312.49 L1998.9 1308.4 L2002.14 1304.3 L2005.38 1300.2 L2008.62 1296.1 L2011.87 1292.01 L2015.11 1287.93 L2018.35 1283.88 L2021.59 1279.85 L2024.83 1275.85 L2028.07 1271.89 L2031.31 1267.99 L2034.56 1264.13 L2037.8 1260.34 L2041.04 1256.62 L2044.28 1252.98 L2047.52 1249.43 L2050.76 1245.95 L2054 1242.56 L2057.24 1239.24 L2060.49 1235.99 L2063.73 1232.81 L2066.97 1229.7 L2070.21 1226.65 L2073.45 1223.67 L2076.69 1220.75 L2079.93 1217.88 L2083.18 1215.07 L2086.42 1212.32 L2089.66 1209.63 L2092.9 1206.99 L2096.14 1204.41 L2099.38 1201.89 L2102.62 1199.43 L2105.87 1197.04 L2109.11 1194.72 L2112.35 1192.46 L2115.59 1190.28 L2118.83 1188.18 L2122.07 1186.16 L2125.31 1184.23 L2128.56 1182.4 L2131.8 1180.67 L2135.04 1179.04 L2138.28 1177.52 L2141.52 1176.1 L2144.76 1174.78 L2148 1173.55 L2151.25 1172.43 L2154.49 1171.4 L2157.73 1170.46 L2160.97 1169.62 L2164.21 1168.88 L2167.45 1168.23 L2170.69 1167.67 L2173.93 1167.22 L2177.18 1166.86 L2180.42 1166.6 L2183.66 1166.45 L2186.9 1166.4 L2190.14 1166.47 L2193.38 1166.64 L2196.62 1166.93 L2199.87 1167.34 L2203.11 1167.88 L2206.35 1168.54 L2209.59 1169.33 L2212.83 1170.24 L2216.07 1171.26 L2219.31 1172.4 L2222.56 1173.63 L2225.8 1174.95 L2229.04 1176.35 L2232.28 1177.83 L2235.52 1179.38 L2238.76 1181 L2242 1182.67 L2245.25 1184.38 L2248.49 1186.15 L2251.73 1187.95 L2254.97 1189.79 L2258.21 1191.65 L2261.45 1193.54 L2264.69 1195.45 L2267.94 1197.38 L2271.18 1199.31 L2274.42 1201.26 L2277.66 1203.21 L2280.9 1205.17 L2284.14 1207.12 L2287.38 1209.07 L2290.62 1211.01 L2290.62 588.394 L2287.38 593.519 L2284.14 598.671 L2280.9 603.847 L2277.66 609.045 L2274.42 614.261 L2271.18 619.492 L2267.94 624.734 L2264.69 629.984 L2261.45 635.237 L2258.21 640.49 L2254.97 645.737 L2251.73 650.974 L2248.49 656.195 L2245.25 661.394 L2242 666.567 L2238.76 671.706 L2235.52 676.806 L2232.28 681.858 L2229.04 686.857 L2225.8 691.795 L2222.56 696.663 L2219.31 701.454 L2216.07 706.16 L2212.83 710.772 L2209.59 715.281 L2206.35 719.679 L2203.11 723.959 L2199.87 728.122 L2196.62 732.171 L2193.38 736.109 L2190.14 739.938 L2186.9 743.662 L2183.66 747.281 L2180.42 750.8 L2177.18 754.219 L2173.93 757.539 L2170.69 760.763 L2167.45 763.89 L2164.21 766.921 L2160.97 769.856 L2157.73 772.693 L2154.49 775.433 L2151.25 778.072 L2148 780.611 L2144.76 783.045 L2141.52 785.372 L2138.28 787.59 L2135.04 789.694 L2131.8 791.68 L2128.56 793.548 L2125.31 795.303 L2122.07 796.951 L2118.83 798.501 L2115.59 799.958 L2112.35 801.33 L2109.11 802.622 L2105.87 803.84 L2102.62 804.988 L2099.38 806.071 L2096.14 807.092 L2092.9 808.056 L2089.66 808.963 L2086.42 809.817 L2083.18 810.619 L2079.93 811.37 L2076.69 812.069 L2073.45 812.718 L2070.21 813.316 L2066.97 813.861 L2063.73 814.352 L2060.49 814.787 L2057.24 815.165 L2054 815.482 L2050.76 815.737 L2047.52 815.927 L2044.28 816.048 L2041.04 816.1 L2037.8 816.09 L2034.56 816.026 L2031.31 815.917 L2028.07 815.77 L2024.83 815.596 L2021.59 815.4 L2018.35 815.192 L2015.11 814.978 L2011.87 814.766 L2008.62 814.563 L2005.38 814.374 L2002.14 814.208 L1998.9 814.068 L1995.66 813.962 L1992.42 813.894 L1989.18 813.87 L1985.93 813.895 L1982.69 813.972 L1979.45 814.106 L1976.21 814.302 L1972.97 814.563 L1969.73 814.892 L1966.49 815.293 L1963.24 815.769 L1960 816.322 L1956.76 816.956 L1953.52 817.672 L1950.28 818.474 L1947.04 819.362 L1943.8 820.34 L1940.56 821.408 L1937.31 822.568 L1934.07 823.821 L1930.83 825.169 L1927.59 826.614 L1924.35 828.155 L1921.11 829.793 L1917.87 831.53 L1914.62 833.365 L1911.38 835.299 L1908.14 837.333 L1904.9 839.466 L1901.66 841.699 L1898.42 844.031 L1895.18 846.461 L1891.93 848.991 L1888.69 851.619 L1885.45 854.344 L1882.21 857.165 L1878.97 860.083 L1875.73 863.095 L1872.49 866.201 L1869.24 869.398 L1866 872.687 L1862.76 876.064 L1859.52 879.529 L1856.28 883.079 L1853.04 886.712 L1849.8 890.426 L1846.55 894.219 L1843.31 898.087 L1840.07 902.029 L1836.83 906.04 L1833.59 910.118 L1830.35 914.259 L1827.11 918.459 L1823.87 922.715 L1820.62 927.022 L1817.38 931.375 L1814.14 935.771 L1810.9 940.203 L1807.66 944.667 L1804.42 949.156 L1801.18 953.664 L1797.93 958.186 L1794.69 962.714 L1791.45 967.24 L1788.21 971.757 L1784.97 976.258 L1781.73 980.732 L1778.49 985.172 L1775.24 989.568 L1772 993.909 L1768.76 998.185 L1765.52 1002.39 L1762.28 1006.5 L1759.04 1010.51 L1755.8 1014.41 L1752.55 1018.19 L1749.31 1021.83 L1746.07 1025.32 L1742.83 1028.64 L1739.59 1031.78 L1736.35 1034.73 L1733.11 1037.47 L1729.87 1040 L1726.62 1042.31 L1723.38 1044.41 L1720.14 1046.27 L1716.9 1047.91 L1713.66 1049.31 L1710.42 1050.48 L1707.18 1051.41 L1703.93 1052.09 L1700.69 1052.54 L1697.45 1052.77 L1694.21 1052.8 L1690.97 1052.63 L1687.73 1052.28 L1684.49 1051.76 L1681.24 1051.09 L1678 1050.26 L1674.76 1049.3 L1671.52 1048.21 L1668.28 1047 L1665.04 1045.69 L1661.8 1044.27 L1658.55 1042.75 L1655.31 1041.14 L1652.07 1039.45 L1648.83 1037.68 L1645.59 1035.83 L1642.35 1033.9 L1639.11 1031.91 L1635.86 1029.84 L1632.62 1027.71 L1629.38 1025.51 L1626.14 1023.24 L1622.9 1020.91 L1619.66 1018.5 L1616.42 1016.02 L1613.18 1013.46 L1609.93 1010.83 L1606.69 1008.11 L1603.45 1005.3 L1600.21 1002.41 L1596.97 999.418 L1593.73 996.325 L1590.49 993.123 L1587.24 989.808 L1584 986.372 L1580.76 982.809 L1577.52 979.112 L1574.28 975.275 L1571.04 971.307 L1567.8 967.215 L1564.55 963.009 L1561.31 958.697 L1558.07 954.288 L1554.83 949.789 L1551.59 945.209 L1548.35 940.554 L1545.11 935.832 L1541.86 931.05 L1538.62 926.213 L1535.38 921.328 L1532.14 916.4 L1528.9 911.434 L1525.66 906.435 L1522.42 901.407 L1519.18 896.353 L1515.93 891.278 L1512.69 886.183 L1509.45 881.072 L1506.21 875.946 L1502.97 870.807 L1499.73 865.657 L1496.49 860.495 L1493.24 855.322 L1490 850.138 L1486.76 844.942 L1483.52 839.734 L1480.28 834.512 L1477.04 829.275 L1473.8 824.02 L1470.55 818.745 L1467.31 813.447 L1464.07 808.123 L1460.83 802.769 L1457.59 797.383 L1454.35 791.958 L1451.11 786.492 L1447.86 780.981 L1444.62 775.418 L1441.38 769.8 L1438.14 764.121 L1434.9 758.377 L1431.66 752.562 L1428.42 746.673 L1425.17 740.705 L1421.93 734.664 L1418.69 728.558 L1415.45 722.394 L1412.21 716.179 L1408.97 709.921 L1405.73 703.627 L1402.49 697.304 L1399.24 690.958 L1396 684.598 L1392.76 678.229 L1389.52 671.858 L1386.28 665.491 L1383.04 659.134 L1379.8 652.793 L1376.55 646.473 L1373.31 640.18 L1370.07 633.918 L1366.83 627.692 L1363.59 621.507 L1360.35 615.367 L1357.11 609.275 L1353.86 603.236 L1350.62 597.252 L1347.38 591.328 L1344.14 585.466 L1340.9 579.668 L1337.66 573.938 L1334.42 568.278 L1331.17 562.689 L1327.93 557.173 L1324.69 551.733 L1321.45 546.369 L1318.21 541.084 L1314.97 535.876 L1311.73 530.749 L1308.48 525.701 L1305.24 520.734 L1302 515.847 L1298.76 511.041 L1295.52 506.315 L1292.28 501.67 L1289.04 497.103 L1285.8 492.614 L1282.55 488.202 L1279.31 483.866 L1276.07 479.605 L1272.83 475.415 L1269.59 471.295 L1266.35 467.243 L1263.11 463.256 L1259.86 459.331 L1256.62 455.464 L1253.38 451.654 L1250.14 447.894 L1246.9 444.183 L1243.66 440.514 L1240.42 436.884 L1237.17 433.286 L1233.93 429.717 L1230.69 426.17 L1227.45 422.639 L1224.21 419.117 L1220.97 415.598 L1217.73 412.075 L1214.48 408.54 L1211.24 404.985 L1208 401.403 L1204.76 397.785 L1201.52 394.123 L1198.28 390.408 L1195.04 386.632 L1191.8 382.785 L1188.55 378.861 L1185.31 374.861 L1182.07 370.789 L1178.83 366.647 L1175.59 362.439 L1172.35 358.168 L1169.11 353.837 L1165.86 349.449 L1162.62 345.007 L1159.38 340.513 L1156.14 335.969 L1152.9 331.378 L1149.66 326.742 L1146.42 322.062 L1143.17 317.339 L1139.93 312.576 L1136.69 307.772 L1133.45 302.929 L1130.21 298.048 L1126.97 293.129 L1123.73 288.174 L1120.48 283.181 L1117.24 278.154 L1114 273.092 L1110.76 268.003 L1107.52 262.894 L1104.28 257.773 L1101.04 252.647 L1097.79 247.525 L1094.55 242.412 L1091.31 237.317 L1088.07 232.246 L1084.83 227.206 L1081.59 222.202 L1078.35 217.242 L1075.11 212.33 L1071.86 207.473 L1068.62 202.675 L1065.38 197.941 L1062.14 193.275 L1058.9 188.683 L1055.66 184.167 L1052.42 179.732 L1049.17 175.382 L1045.93 171.118 L1042.69 166.946 L1039.45 162.866 L1036.21 158.882 L1032.97 154.996 L1029.73 151.211 L1026.48 147.528 L1023.24 143.949 L1020 140.476 L1016.76 137.111 L1013.52 133.853 L1010.28 130.706 L1007.04 127.67 L1003.79 124.745 L1000.55 121.933 L997.312 119.234 L994.071 116.649 L990.829 114.178 L987.588 111.821 L984.346 109.579 L981.105 107.452 L977.864 105.439 L974.622 103.541 L971.381 101.757 L968.139 100.086 L964.898 98.529 L961.657 97.0844 L958.415 95.7516 L955.174 94.5296 L951.933 93.4174 L948.691 92.4139 L945.45 91.5177 L942.208 90.7272 L938.967 90.0409 L935.726 89.457 L932.484 88.9733 L929.243 88.5878 L926.001 88.2981 L922.76 88.1015 L919.519 87.9953 L916.277 87.9763 L913.036 88.0413 L909.795 88.1868 L906.553 88.4088 L903.312 88.7034 L900.07 89.0662 L896.829 89.4924 L893.588 89.9771 L890.346 90.5149 L887.105 91.1003 L883.863 91.7274 L880.622 92.3898 L877.381 93.081 L874.139 93.7943 L870.898 94.5226 L867.657 95.2585 L864.415 95.9966 L861.174 96.7387 L857.932 97.4885 L854.691 98.2494 L851.45 99.0243 L848.208 99.8162 L844.967 100.627 L841.725 101.46 L838.484 102.315 L835.243 103.194 L832.001 104.096 L828.76 105.024 L825.519 105.975 L822.277 106.948 L819.036 107.943 L815.794 108.958 L812.553 109.99 L809.312 111.037 L806.07 112.096 L802.829 113.164 L799.587 114.237 L796.346 115.311 L793.105 116.383 L789.863 117.448 L786.622 118.501 L783.381 119.543 L780.139 120.573 L776.898 121.592 L773.656 122.599 L770.415 123.593 L767.174 124.572 L763.932 125.534 L760.691 126.478 L757.449 127.409 L754.208 128.333 L750.967 129.256 L747.725 130.182 L744.484 131.116 L741.242 132.059 L738.001 133.015 L734.76 133.984 L731.518 134.966 L728.277 135.962 L725.036 136.969 L721.794 137.985 L718.553 139.007 L715.311 140.031 L712.07 141.053 L708.829 142.068 L705.587 143.07 L702.346 144.054 L699.104 145.013 L695.863 145.941 L692.622 146.831 L689.38 147.678 L686.139 148.478 L682.898 149.237 L679.656 149.965 L676.415 150.669 L673.173 151.36 L669.932 152.046 L666.691 152.735 L663.449 153.436 L660.208 154.157 L656.966 154.906 L653.725 155.69 L650.484 156.515 L647.242 157.388 L644.001 158.315 L640.76 159.303 L637.518 160.355 L634.277 161.477 L631.035 162.673 L627.794 163.948 L624.553 165.305 L621.311 166.749 L618.07 168.281 L614.828 169.905 L611.587 171.624 L608.346 173.44 L605.104 175.356 L601.863 177.372 L598.622 179.491 L595.38 181.715 L592.139 184.044 L588.897 186.48 L585.656 189.024 L582.415 191.677 L579.173 194.438 L575.932 197.309 L572.69 200.29 L569.449 203.38 L566.208 206.581 L562.966 209.891 L559.725 213.312 L556.484 216.841 L553.242 220.479 L550.001 224.225 L546.759 228.077 L543.518 232.036 L540.277 236.1 L537.035 240.268 L533.794 244.538 L530.552 248.909 L527.311 253.379 L524.07 257.946 L520.828 262.608 L517.587 267.362 L514.346 272.207 L511.104 277.14 L507.863 282.158 L504.621 287.257 L501.38 292.434 L498.139 297.686 L494.897 303.009 L491.656 308.398 L488.414 313.85 L485.173 319.359 L481.932 324.92 L478.69 330.527 L475.449 336.176 L472.208 341.858 L468.966 347.569 L465.725 353.3 L462.483 359.043 L459.242 364.791 L456.001 370.536 L452.759 376.267 L449.518 381.976 L446.276 387.651 L443.035 393.283 L439.794 398.86 L436.552 404.371 L433.311 409.804 L430.069 415.146 L426.828 420.384 L423.587 425.509 L420.345 430.514 L417.104 435.397 L413.863 440.154 L410.621 444.783 L407.38 449.29 L404.138 453.68 L400.897 457.959 L397.656 462.133 L394.414 466.207 L391.173 470.186 L387.931 474.073 L384.69 477.873 L381.449 481.587 L378.207 485.218 L374.966 488.766 L371.725 492.232 L368.483 495.616 L365.242 498.915 L362 502.129 L358.759 505.254 L355.518 508.286 L352.276 511.223 L349.035 514.062 L345.793 516.801 L342.552 519.437 L339.311 521.968 L336.069 524.388 L332.828 526.695 L329.587 528.881 L326.345 530.943 L323.104 532.873 L319.862 534.665 L316.621 536.314 L313.38 537.819 L310.138 539.182 L306.897 540.403 L303.655 541.482 L300.414 542.42 L297.173 543.216 L293.931 543.867 L290.69 544.373 L287.449 544.73 L284.207 544.935 L280.966 544.986 L277.724 544.878 L274.483 544.607 L271.242 544.168 L268 543.556 L264.759 542.766 L261.517 541.795 L258.276 540.652 L255.035 539.346  Z" fill="#3da44d" fill-rule="evenodd" fill-opacity="0.1"/>
<polyline clip-path="url(#clip142)" style="stroke:#3da44d; stroke-linecap:round; stroke-linejoin:round; stroke-width:8; stroke-opacity:1; fill:none" points="255.035,754.138 258.276,752.011 261.517,749.81 264.759,747.532 268,745.176 271.242,742.745 274.483,740.242 277.724,737.671 280.966,735.034 284.207,732.337 287.449,729.581 290.69,726.769 293.931,723.906 297.173,720.994 300.414,718.037 303.655,715.038 306.897,711.999 310.138,708.924 313.38,705.816 316.621,702.678 319.862,699.513 323.104,696.325 326.345,693.116 329.587,689.891 332.828,686.652 336.069,683.403 339.311,680.149 342.552,676.891 345.793,673.634 349.035,670.382 352.276,667.137 355.518,663.904 358.759,660.684 362,657.478 365.242,654.284 368.483,651.099 371.725,647.924 374.966,644.755 378.207,641.592 381.449,638.433 384.69,635.277 387.931,632.121 391.173,628.965 394.414,625.807 397.656,622.646 400.897,619.48 404.138,616.307 407.38,613.127 410.621,609.938 413.863,606.738 417.104,603.527 420.345,600.303 423.587,597.066 426.828,593.816 430.069,590.553 433.311,587.276 436.552,583.985 439.794,580.681 443.035,577.364 446.276,574.034 449.518,570.691 452.759,567.335 456.001,563.966 459.242,560.585 462.483,557.191 465.725,553.785 468.966,550.367 472.208,546.938 475.449,543.496 478.69,540.044 481.932,536.58 485.173,533.105 488.414,529.619 491.656,526.123 494.897,522.617 498.139,519.102 501.38,515.576 504.621,512.042 507.863,508.498 511.104,504.946 514.346,501.386 517.587,497.819 520.828,494.244 524.07,490.662 527.311,487.074 530.552,483.479 533.794,479.88 537.035,476.275 540.277,472.666 543.518,469.053 546.759,465.437 550.001,461.818 553.242,458.197 556.484,454.575 559.725,450.951 562.966,447.328 566.208,443.706 569.449,440.085 572.69,436.466 575.932,432.85 579.173,429.238 582.415,425.631 585.656,422.03 588.897,418.435 592.139,414.848 595.38,411.27 598.622,407.701 601.863,404.143 605.104,400.596 608.346,397.063 611.587,393.544 614.828,390.04 618.07,386.553 621.311,383.084 624.553,379.635 627.794,376.206 631.035,372.8 634.277,369.418 637.518,366.06 640.76,362.73 644.001,359.428 647.242,356.157 650.484,352.918 653.725,349.712 656.966,346.543 660.208,343.411 663.449,340.318 666.691,337.268 669.932,334.261 673.173,331.3 676.415,328.388 679.656,325.526 682.898,322.717 686.139,319.963 689.38,317.267 692.622,314.631 695.863,312.055 699.104,309.539 702.346,307.082 705.587,304.684 708.829,302.345 712.07,300.064 715.311,297.843 718.553,295.68 721.794,293.576 725.036,291.531 728.277,289.546 731.518,287.621 734.76,285.756 738.001,283.952 741.242,282.209 744.484,280.528 747.725,278.91 750.967,277.355 754.208,275.866 757.449,274.442 760.691,273.084 763.932,271.794 767.174,270.574 770.415,269.427 773.656,268.356 776.898,267.365 780.139,266.458 783.381,265.639 786.622,264.912 789.863,264.281 793.105,263.751 796.346,263.323 799.587,263 802.829,262.785 806.07,262.681 809.312,262.689 812.553,262.813 815.794,263.056 819.036,263.419 822.277,263.898 825.519,264.49 828.76,265.187 832.001,265.987 835.243,266.883 838.484,267.872 841.725,268.948 844.967,270.108 848.208,271.346 851.45,272.659 854.691,274.043 857.932,275.493 861.174,277.006 864.415,278.577 867.657,280.202 870.898,281.879 874.139,283.605 877.381,285.377 880.622,287.195 883.863,289.056 887.105,290.959 890.346,292.903 893.588,294.885 896.829,296.904 900.07,298.959 903.312,301.048 906.553,303.17 909.795,305.325 913.036,307.51 916.277,309.725 919.519,311.969 922.76,314.24 926.001,316.537 929.243,318.861 932.484,321.21 935.726,323.583 938.967,325.979 942.208,328.398 945.45,330.84 948.691,333.303 951.933,335.788 955.174,338.293 958.415,340.818 961.657,343.364 964.898,345.929 968.139,348.513 971.381,351.117 974.622,353.739 977.864,356.381 981.105,359.041 984.346,361.72 987.588,364.418 990.829,367.135 994.071,369.871 997.312,372.626 1000.55,375.401 1003.79,378.195 1007.04,381.009 1010.28,383.843 1013.52,386.698 1016.76,389.574 1020,392.472 1023.24,395.392 1026.48,398.335 1029.73,401.301 1032.97,404.291 1036.21,407.305 1039.45,410.346 1042.69,413.412 1045.93,416.506 1049.17,419.627 1052.42,422.778 1055.66,425.958 1058.9,429.17 1062.14,432.414 1065.38,435.691 1068.62,439.002 1071.86,442.349 1075.11,445.733 1078.35,449.155 1081.59,452.617 1084.83,456.12 1088.07,459.665 1091.31,463.255 1094.55,466.89 1097.79,470.573 1101.04,474.305 1104.28,478.088 1107.52,481.923 1110.76,485.813 1114,489.759 1117.24,493.763 1120.48,497.828 1123.73,501.95 1126.97,506.129 1130.21,510.361 1133.45,514.644 1136.69,518.977 1139.93,523.357 1143.17,527.783 1146.42,532.252 1149.66,536.763 1152.9,541.313 1156.14,545.901 1159.38,550.525 1162.62,555.184 1165.86,559.875 1169.11,564.597 1172.35,569.348 1175.59,574.127 1178.83,578.932 1182.07,583.762 1185.31,588.616 1188.55,593.491 1191.8,598.386 1195.04,603.3 1198.28,608.232 1201.52,613.182 1204.76,618.149 1208,623.132 1211.24,628.131 1214.48,633.146 1217.73,638.175 1220.97,643.218 1224.21,648.275 1227.45,653.345 1230.69,658.427 1233.93,663.523 1237.17,668.63 1240.42,673.748 1243.66,678.878 1246.9,684.018 1250.14,689.169 1253.38,694.329 1256.62,699.499 1259.86,704.679 1263.11,709.867 1266.35,715.065 1269.59,720.27 1272.83,725.484 1276.07,730.705 1279.31,735.934 1282.55,741.17 1285.8,746.413 1289.04,751.663 1292.28,756.919 1295.52,762.181 1298.76,767.449 1302,772.723 1305.24,778.002 1308.48,783.287 1311.73,788.576 1314.97,793.87 1318.21,799.169 1321.45,804.472 1324.69,809.778 1327.93,815.089 1331.17,820.402 1334.42,825.719 1337.66,831.039 1340.9,836.362 1344.14,841.687 1347.38,847.014 1350.62,852.343 1353.86,857.673 1357.11,863.005 1360.35,868.337 1363.59,873.67 1366.83,879.004 1370.07,884.337 1373.31,889.67 1376.55,895.003 1379.8,900.334 1383.04,905.663 1386.28,910.991 1389.52,916.316 1392.76,921.639 1396,926.958 1399.24,932.274 1402.49,937.585 1405.73,942.892 1408.97,948.193 1412.21,953.489 1415.45,958.779 1418.69,964.061 1421.93,969.336 1425.17,974.603 1428.42,979.861 1431.66,985.11 1434.9,990.348 1438.14,995.575 1441.38,1000.79 1444.62,1005.99 1447.86,1011.18 1451.11,1016.35 1454.35,1021.5 1457.59,1026.64 1460.83,1031.76 1464.07,1036.85 1467.31,1041.93 1470.55,1046.98 1473.8,1052.01 1477.04,1057.01 1480.28,1061.99 1483.52,1066.94 1486.76,1071.86 1490,1076.74 1493.24,1081.59 1496.49,1086.41 1499.73,1091.19 1502.97,1095.94 1506.21,1100.64 1509.45,1105.3 1512.69,1109.92 1515.93,1114.49 1519.18,1119.01 1522.42,1123.49 1525.66,1127.91 1528.9,1132.28 1532.14,1136.59 1535.38,1140.84 1538.62,1145.03 1541.86,1149.15 1545.11,1153.21 1548.35,1157.2 1551.59,1161.12 1554.83,1164.96 1558.07,1168.73 1561.31,1172.41 1564.55,1176.01 1567.8,1179.53 1571.04,1182.95 1574.28,1186.28 1577.52,1189.52 1580.76,1192.65 1584,1195.69 1587.24,1198.62 1590.49,1201.47 1593.73,1204.21 1596.97,1206.87 1600.21,1209.43 1603.45,1211.9 1606.69,1214.28 1609.93,1216.58 1613.18,1218.78 1616.42,1220.9 1619.66,1222.93 1622.9,1224.87 1626.14,1226.73 1629.38,1228.5 1632.62,1230.19 1635.86,1231.79 1639.11,1233.31 1642.35,1234.74 1645.59,1236.08 1648.83,1237.34 1652.07,1238.52 1655.31,1239.6 1658.55,1240.6 1661.8,1241.52 1665.04,1242.34 1668.28,1243.08 1671.52,1243.72 1674.76,1244.27 1678,1244.74 1681.24,1245.1 1684.49,1245.38 1687.73,1245.55 1690.97,1245.63 1694.21,1245.61 1697.45,1245.49 1700.69,1245.27 1703.93,1244.94 1707.18,1244.5 1710.42,1243.96 1713.66,1243.31 1716.9,1242.57 1720.14,1241.72 1723.38,1240.79 1726.62,1239.77 1729.87,1238.66 1733.11,1237.48 1736.35,1236.22 1739.59,1234.89 1742.83,1233.49 1746.07,1232.02 1749.31,1230.5 1752.55,1228.91 1755.8,1227.27 1759.04,1225.57 1762.28,1223.82 1765.52,1222.02 1768.76,1220.17 1772,1218.28 1775.24,1216.35 1778.49,1214.38 1781.73,1212.37 1784.97,1210.33 1788.21,1208.25 1791.45,1206.14 1794.69,1204 1797.93,1201.84 1801.18,1199.65 1804.42,1197.43 1807.66,1195.19 1810.9,1192.93 1814.14,1190.65 1817.38,1188.36 1820.62,1186.05 1823.87,1183.72 1827.11,1181.38 1830.35,1179.03 1833.59,1176.67 1836.83,1174.3 1840.07,1171.92 1843.31,1169.53 1846.55,1167.14 1849.8,1164.74 1853.04,1162.34 1856.28,1159.94 1859.52,1157.54 1862.76,1155.13 1866,1152.73 1869.24,1150.32 1872.49,1147.92 1875.73,1145.52 1878.97,1143.13 1882.21,1140.74 1885.45,1138.35 1888.69,1135.97 1891.93,1133.6 1895.18,1131.23 1898.42,1128.87 1901.66,1126.52 1904.9,1124.17 1908.14,1121.84 1911.38,1119.51 1914.62,1117.2 1917.87,1114.89 1921.11,1112.6 1924.35,1110.31 1927.59,1108.04 1930.83,1105.78 1934.07,1103.53 1937.31,1101.29 1940.56,1099.07 1943.8,1096.85 1947.04,1094.65 1950.28,1092.47 1953.52,1090.29 1956.76,1088.13 1960,1085.98 1963.24,1083.85 1966.49,1081.73 1969.73,1079.62 1972.97,1077.53 1976.21,1075.44 1979.45,1073.37 1982.69,1071.32 1985.93,1069.28 1989.18,1067.25 1992.42,1065.23 1995.66,1063.23 1998.9,1061.23 2002.14,1059.26 2005.38,1057.29 2008.62,1055.33 2011.87,1053.39 2015.11,1051.46 2018.35,1049.53 2021.59,1047.62 2024.83,1045.72 2028.07,1043.83 2031.31,1041.95 2034.56,1040.08 2037.8,1038.22 2041.04,1036.36 2044.28,1034.52 2047.52,1032.68 2050.76,1030.84 2054,1029.02 2057.24,1027.2 2060.49,1025.39 2063.73,1023.58 2066.97,1021.78 2070.21,1019.98 2073.45,1018.19 2076.69,1016.41 2079.93,1014.62 2083.18,1012.85 2086.42,1011.07 2089.66,1009.29 2092.9,1007.52 2096.14,1005.75 2099.38,1003.98 2102.62,1002.21 2105.87,1000.44 2109.11,998.669 2112.35,996.895 2115.59,995.119 2118.83,993.34 2122.07,991.556 2125.31,989.768 2128.56,987.975 2131.8,986.175 2135.04,984.368 2138.28,982.554 2141.52,980.735 2144.76,978.911 2148,977.083 2151.25,975.251 2154.49,973.416 2157.73,971.578 2160.97,969.739 2164.21,967.899 2167.45,966.059 2170.69,964.218 2173.93,962.378 2177.18,960.539 2180.42,958.701 2183.66,956.866 2186.9,955.033 2190.14,953.202 2193.38,951.375 2196.62,949.552 2199.87,947.733 2203.11,945.918 2206.35,944.109 2209.59,942.304 2212.83,940.505 2216.07,938.712 2219.31,936.925 2222.56,935.145 2225.8,933.371 2229.04,931.605 2232.28,929.846 2235.52,928.095 2238.76,926.351 2242,924.616 2245.25,922.889 2248.49,921.171 2251.73,919.462 2254.97,917.762 2258.21,916.07 2261.45,914.389 2264.69,912.717 2267.94,911.055 2271.18,909.402 2274.42,907.76 2277.66,906.128 2280.9,904.506 2284.14,902.895 2287.38,901.294 2290.62,899.705 "/>
<polyline clip-path="url(#clip142)" style="stroke:#c271d2; stroke-linecap:round; stroke-linejoin:round; stroke-width:12; stroke-opacity:1; fill:none" points="255.035,899.013 362.225,762.037 469.416,686.893 576.607,590.871 683.797,438.577 790.988,363.241 898.179,438.351 1005.37,550.48 1112.56,634.473 1219.75,794.464 1326.94,987.456 1434.13,1145.66 1541.32,1295.66 1648.51,1371.94 1755.7,1370.84 1862.89,1343.29 "/>
<polyline clip-path="url(#clip142)" style="stroke:#c271d2; stroke-linecap:round; stroke-linejoin:round; stroke-width:12; stroke-opacity:1; fill:none" points="2077.28,1153.78 2184.47,1098.07 2291.66,1109.93 "/>
<polyline clip-path="url(#clip142)" style="stroke:#ac8d18; stroke-linecap:round; stroke-linejoin:round; stroke-width:12; stroke-opacity:1; fill:none" points="255.035,609.262 362.225,552.475 469.416,412.891 576.607,273.325 683.797,205.316 790.988,164.931 898.179,157.159 1005.37,208.638 1112.56,341.52 1219.75,488.182 1326.94,639.47 1434.13,832.559 1541.32,1001.28 1648.51,1102.51 1755.7,1083.79 1862.89,966.777 "/>
<polyline clip-path="url(#clip142)" style="stroke:#ac8d18; stroke-linecap:round; stroke-linejoin:round; stroke-width:12; stroke-opacity:1; fill:none" points="2077.28,878.396 2184.47,814.752 2291.66,688.468 "/>
<path clip-path="url(#clip140)" d="M265.897 1438.47 L593.236 1438.47 L593.236 1127.43 L265.897 1127.43  Z" fill="#ffffff" fill-rule="evenodd" fill-opacity="1"/>
<polyline clip-path="url(#clip140)" style="stroke:#000000; stroke-linecap:round; stroke-linejoin:round; stroke-width:4; stroke-opacity:1; fill:none" points="265.897,1438.47 593.236,1438.47 593.236,1127.43 265.897,1127.43 265.897,1438.47 "/>
<polyline clip-path="url(#clip140)" style="stroke:#009af9; stroke-linecap:round; stroke-linejoin:round; stroke-width:4; stroke-opacity:1; fill:none" points="289.884,1179.27 433.805,1179.27 "/>
<path clip-path="url(#clip140)" d="M465.199 1163.27 L465.199 1170.63 L473.972 1170.63 L473.972 1173.94 L465.199 1173.94 L465.199 1188.01 Q465.199 1191.18 466.056 1192.09 Q466.935 1192.99 469.597 1192.99 L473.972 1192.99 L473.972 1196.55 L469.597 1196.55 Q464.667 1196.55 462.792 1194.73 Q460.917 1192.87 460.917 1188.01 L460.917 1173.94 L457.792 1173.94 L457.792 1170.63 L460.917 1170.63 L460.917 1163.27 L465.199 1163.27 Z" fill="#000000" fill-rule="nonzero" fill-opacity="1" /><path clip-path="url(#clip140)" d="M494.597 1174.61 Q493.88 1174.19 493.023 1174.01 Q492.19 1173.8 491.171 1173.8 Q487.56 1173.8 485.616 1176.16 Q483.694 1178.5 483.694 1182.9 L483.694 1196.55 L479.412 1196.55 L479.412 1170.63 L483.694 1170.63 L483.694 1174.66 Q485.037 1172.3 487.19 1171.16 Q489.343 1170 492.421 1170 Q492.861 1170 493.393 1170.07 Q493.926 1170.12 494.574 1170.24 L494.597 1174.61 Z" fill="#000000" fill-rule="nonzero" fill-opacity="1" /><path clip-path="url(#clip140)" d="M498.625 1186.32 L498.625 1170.63 L502.884 1170.63 L502.884 1186.16 Q502.884 1189.84 504.319 1191.69 Q505.754 1193.52 508.625 1193.52 Q512.074 1193.52 514.065 1191.32 Q516.078 1189.12 516.078 1185.33 L516.078 1170.63 L520.338 1170.63 L520.338 1196.55 L516.078 1196.55 L516.078 1192.57 Q514.528 1194.93 512.467 1196.09 Q510.43 1197.23 507.722 1197.23 Q503.254 1197.23 500.94 1194.45 Q498.625 1191.67 498.625 1186.32 M509.342 1170 L509.342 1170 Z" fill="#000000" fill-rule="nonzero" fill-opacity="1" /><path clip-path="url(#clip140)" d="M533.324 1163.27 L533.324 1170.63 L542.097 1170.63 L542.097 1173.94 L533.324 1173.94 L533.324 1188.01 Q533.324 1191.18 534.18 1192.09 Q535.06 1192.99 537.722 1192.99 L542.097 1192.99 L542.097 1196.55 L537.722 1196.55 Q532.791 1196.55 530.916 1194.73 Q529.041 1192.87 529.041 1188.01 L529.041 1173.94 L525.916 1173.94 L525.916 1170.63 L529.041 1170.63 L529.041 1163.27 L533.324 1163.27 Z" fill="#000000" fill-rule="nonzero" fill-opacity="1" /><path clip-path="url(#clip140)" d="M569.25 1180.91 L569.25 1196.55 L564.99 1196.55 L564.99 1181.05 Q564.99 1177.36 563.555 1175.54 Q562.12 1173.71 559.25 1173.71 Q555.8 1173.71 553.81 1175.91 Q551.819 1178.11 551.819 1181.9 L551.819 1196.55 L547.537 1196.55 L547.537 1160.54 L551.819 1160.54 L551.819 1174.66 Q553.347 1172.32 555.407 1171.16 Q557.49 1170 560.199 1170 Q564.666 1170 566.958 1172.78 Q569.25 1175.54 569.25 1180.91 Z" fill="#000000" fill-rule="nonzero" fill-opacity="1" /><circle clip-path="url(#clip140)" cx="361.844" cy="1231.11" r="20.48" fill="#e26f46" fill-rule="evenodd" fill-opacity="1" stroke="#000000" stroke-opacity="1" stroke-width="4.55111"/>
<path clip-path="url(#clip140)" d="M476.704 1226.4 L476.704 1212.38 L480.963 1212.38 L480.963 1248.39 L476.704 1248.39 L476.704 1244.51 Q475.361 1246.82 473.301 1247.95 Q471.264 1249.07 468.394 1249.07 Q463.695 1249.07 460.732 1245.32 Q457.792 1241.57 457.792 1235.45 Q457.792 1229.34 460.732 1225.59 Q463.695 1221.84 468.394 1221.84 Q471.264 1221.84 473.301 1222.98 Q475.361 1224.09 476.704 1226.4 M462.19 1235.45 Q462.19 1240.15 464.111 1242.84 Q466.056 1245.5 469.435 1245.5 Q472.815 1245.5 474.759 1242.84 Q476.704 1240.15 476.704 1235.45 Q476.704 1230.76 474.759 1228.09 Q472.815 1225.41 469.435 1225.41 Q466.056 1225.41 464.111 1228.09 Q462.19 1230.76 462.19 1235.45 Z" fill="#000000" fill-rule="nonzero" fill-opacity="1" /><path clip-path="url(#clip140)" d="M501.518 1235.36 Q496.356 1235.36 494.366 1236.54 Q492.375 1237.72 492.375 1240.57 Q492.375 1242.84 493.856 1244.18 Q495.361 1245.5 497.93 1245.5 Q501.472 1245.5 503.602 1243 Q505.754 1240.48 505.754 1236.31 L505.754 1235.36 L501.518 1235.36 M510.014 1233.6 L510.014 1248.39 L505.754 1248.39 L505.754 1244.46 Q504.296 1246.82 502.12 1247.95 Q499.944 1249.07 496.796 1249.07 Q492.815 1249.07 490.454 1246.84 Q488.116 1244.6 488.116 1240.85 Q488.116 1236.47 491.032 1234.25 Q493.972 1232.03 499.782 1232.03 L505.754 1232.03 L505.754 1231.61 Q505.754 1228.67 503.81 1227.08 Q501.889 1225.45 498.393 1225.45 Q496.171 1225.45 494.065 1225.99 Q491.958 1226.52 490.014 1227.58 L490.014 1223.65 Q492.352 1222.75 494.551 1222.31 Q496.75 1221.84 498.833 1221.84 Q504.458 1221.84 507.236 1224.76 Q510.014 1227.68 510.014 1233.6 Z" fill="#000000" fill-rule="nonzero" fill-opacity="1" /><path clip-path="url(#clip140)" d="M523 1215.11 L523 1222.47 L531.773 1222.47 L531.773 1225.78 L523 1225.78 L523 1239.85 Q523 1243.02 523.856 1243.93 Q524.736 1244.83 527.398 1244.83 L531.773 1244.83 L531.773 1248.39 L527.398 1248.39 Q522.467 1248.39 520.592 1246.57 Q518.717 1244.71 518.717 1239.85 L518.717 1225.78 L515.592 1225.78 L515.592 1222.47 L518.717 1222.47 L518.717 1215.11 L523 1215.11 Z" fill="#000000" fill-rule="nonzero" fill-opacity="1" /><path clip-path="url(#clip140)" d="M549.157 1235.36 Q543.995 1235.36 542.004 1236.54 Q540.014 1237.72 540.014 1240.57 Q540.014 1242.84 541.495 1244.18 Q543 1245.5 545.569 1245.5 Q549.111 1245.5 551.24 1243 Q553.393 1240.48 553.393 1236.31 L553.393 1235.36 L549.157 1235.36 M557.652 1233.6 L557.652 1248.39 L553.393 1248.39 L553.393 1244.46 Q551.935 1246.82 549.759 1247.95 Q547.583 1249.07 544.435 1249.07 Q540.453 1249.07 538.092 1246.84 Q535.754 1244.6 535.754 1240.85 Q535.754 1236.47 538.671 1234.25 Q541.611 1232.03 547.421 1232.03 L553.393 1232.03 L553.393 1231.61 Q553.393 1228.67 551.449 1227.08 Q549.527 1225.45 546.032 1225.45 Q543.81 1225.45 541.703 1225.99 Q539.597 1226.52 537.652 1227.58 L537.652 1223.65 Q539.99 1222.75 542.189 1222.31 Q544.389 1221.84 546.472 1221.84 Q552.097 1221.84 554.875 1224.76 Q557.652 1227.68 557.652 1233.6 Z" fill="#000000" fill-rule="nonzero" fill-opacity="1" /><polyline clip-path="url(#clip140)" style="stroke:#3da44d; stroke-linecap:round; stroke-linejoin:round; stroke-width:8; stroke-opacity:1; fill:none" points="289.884,1282.95 433.805,1282.95 "/>
<path clip-path="url(#clip140)" d="M483.347 1295.3 L483.347 1286.02 L475.708 1286.02 L475.708 1282.18 L487.977 1282.18 L487.977 1297.02 Q485.268 1298.94 482.005 1299.93 Q478.741 1300.91 475.037 1300.91 Q466.935 1300.91 462.352 1296.18 Q457.792 1291.44 457.792 1282.99 Q457.792 1274.52 462.352 1269.79 Q466.935 1265.05 475.037 1265.05 Q478.417 1265.05 481.449 1265.88 Q484.505 1266.72 487.074 1268.34 L487.074 1273.31 Q484.481 1271.11 481.565 1270 Q478.648 1268.89 475.431 1268.89 Q469.088 1268.89 465.894 1272.43 Q462.722 1275.98 462.722 1282.99 Q462.722 1289.98 465.894 1293.52 Q469.088 1297.06 475.431 1297.06 Q477.907 1297.06 479.852 1296.65 Q481.796 1296.21 483.347 1295.3 Z" fill="#000000" fill-rule="nonzero" fill-opacity="1" /><path clip-path="url(#clip140)" d="M501.194 1269.52 L501.194 1282.5 L507.074 1282.5 Q510.338 1282.5 512.12 1280.81 Q513.903 1279.12 513.903 1276 Q513.903 1272.9 512.12 1271.21 Q510.338 1269.52 507.074 1269.52 L501.194 1269.52 M496.518 1265.67 L507.074 1265.67 Q512.884 1265.67 515.847 1268.31 Q518.833 1270.93 518.833 1276 Q518.833 1281.11 515.847 1283.73 Q512.884 1286.35 507.074 1286.35 L501.194 1286.35 L501.194 1300.23 L496.518 1300.23 L496.518 1265.67 Z" fill="#000000" fill-rule="nonzero" fill-opacity="1" /><polyline clip-path="url(#clip140)" style="stroke:#c271d2; stroke-linecap:round; stroke-linejoin:round; stroke-width:12; stroke-opacity:1; fill:none" points="289.884,1334.79 433.805,1334.79 "/>
<path clip-path="url(#clip140)" d="M462.468 1321.36 L462.468 1334.34 L468.347 1334.34 Q471.611 1334.34 473.394 1332.65 Q475.176 1330.96 475.176 1327.84 Q475.176 1324.74 473.394 1323.05 Q471.611 1321.36 468.347 1321.36 L462.468 1321.36 M457.792 1317.51 L468.347 1317.51 Q474.157 1317.51 477.12 1320.15 Q480.106 1322.77 480.106 1327.84 Q480.106 1332.95 477.12 1335.57 Q474.157 1338.19 468.347 1338.19 L462.468 1338.19 L462.468 1352.07 L457.792 1352.07 L457.792 1317.51 Z" fill="#000000" fill-rule="nonzero" fill-opacity="1" /><path clip-path="url(#clip140)" d="M490.824 1348.14 L507.143 1348.14 L507.143 1352.07 L485.199 1352.07 L485.199 1348.14 Q487.861 1345.38 492.444 1340.76 Q497.051 1336.1 498.231 1334.76 Q500.477 1332.24 501.356 1330.5 Q502.259 1328.74 502.259 1327.05 Q502.259 1324.3 500.315 1322.56 Q498.393 1320.82 495.292 1320.82 Q493.093 1320.82 490.639 1321.59 Q488.208 1322.35 485.431 1323.9 L485.431 1319.18 Q488.255 1318.05 490.708 1317.47 Q493.162 1316.89 495.199 1316.89 Q500.569 1316.89 503.764 1319.57 Q506.958 1322.26 506.958 1326.75 Q506.958 1328.88 506.148 1330.8 Q505.361 1332.7 503.254 1335.29 Q502.676 1335.96 499.574 1339.18 Q496.472 1342.38 490.824 1348.14 Z" fill="#000000" fill-rule="nonzero" fill-opacity="1" /><path clip-path="url(#clip140)" d="M517.004 1317.51 L535.361 1317.51 L535.361 1321.45 L521.287 1321.45 L521.287 1329.92 Q522.305 1329.57 523.324 1329.41 Q524.342 1329.23 525.361 1329.23 Q531.148 1329.23 534.527 1332.4 Q537.907 1335.57 537.907 1340.99 Q537.907 1346.57 534.435 1349.67 Q530.963 1352.75 524.643 1352.75 Q522.467 1352.75 520.199 1352.38 Q517.953 1352 515.546 1351.26 L515.546 1346.57 Q517.629 1347.7 519.852 1348.25 Q522.074 1348.81 524.551 1348.81 Q528.555 1348.81 530.893 1346.7 Q533.231 1344.6 533.231 1340.99 Q533.231 1337.38 530.893 1335.27 Q528.555 1333.16 524.551 1333.16 Q522.676 1333.16 520.801 1333.58 Q518.949 1334 517.004 1334.88 L517.004 1317.51 Z" fill="#000000" fill-rule="nonzero" fill-opacity="1" /><polyline clip-path="url(#clip140)" style="stroke:#ac8d18; stroke-linecap:round; stroke-linejoin:round; stroke-width:12; stroke-opacity:1; fill:none" points="289.884,1386.63 433.805,1386.63 "/>
<path clip-path="url(#clip140)" d="M462.468 1373.2 L462.468 1386.18 L468.347 1386.18 Q471.611 1386.18 473.394 1384.49 Q475.176 1382.8 475.176 1379.68 Q475.176 1376.58 473.394 1374.89 Q471.611 1373.2 468.347 1373.2 L462.468 1373.2 M457.792 1369.35 L468.347 1369.35 Q474.157 1369.35 477.12 1371.99 Q480.106 1374.61 480.106 1379.68 Q480.106 1384.79 477.12 1387.41 Q474.157 1390.03 468.347 1390.03 L462.468 1390.03 L462.468 1403.91 L457.792 1403.91 L457.792 1369.35 Z" fill="#000000" fill-rule="nonzero" fill-opacity="1" /><path clip-path="url(#clip140)" d="M485.616 1369.35 L507.838 1369.35 L507.838 1371.35 L495.292 1403.91 L490.407 1403.91 L502.213 1373.29 L485.616 1373.29 L485.616 1369.35 Z" fill="#000000" fill-rule="nonzero" fill-opacity="1" /><path clip-path="url(#clip140)" d="M517.004 1369.35 L535.361 1369.35 L535.361 1373.29 L521.287 1373.29 L521.287 1381.76 Q522.305 1381.41 523.324 1381.25 Q524.342 1381.07 525.361 1381.07 Q531.148 1381.07 534.527 1384.24 Q537.907 1387.41 537.907 1392.83 Q537.907 1398.41 534.435 1401.51 Q530.963 1404.59 524.643 1404.59 Q522.467 1404.59 520.199 1404.22 Q517.953 1403.84 515.546 1403.1 L515.546 1398.41 Q517.629 1399.54 519.852 1400.09 Q522.074 1400.65 524.551 1400.65 Q528.555 1400.65 530.893 1398.54 Q533.231 1396.44 533.231 1392.83 Q533.231 1389.22 530.893 1387.11 Q528.555 1385 524.551 1385 Q522.676 1385 520.801 1385.42 Q518.949 1385.84 517.004 1386.72 L517.004 1369.35 Z" fill="#000000" fill-rule="nonzero" fill-opacity="1" /></svg>
