<?xml version="1.0" encoding="utf-8"?>
<svg xmlns="http://www.w3.org/2000/svg" xmlns:xlink="http://www.w3.org/1999/xlink" width="600" height="400" viewBox="0 0 2400 1600">
<defs>
  <clipPath id="clip390">
    <rect x="0" y="0" width="2400" height="1600"/>
  </clipPath>
</defs>
<path clip-path="url(#clip390)" d="M0 1600 L2400 1600 L2400 0 L0 0  Z" fill="#ffffff" fill-rule="evenodd" fill-opacity="1"/>
<defs>
  <clipPath id="clip391">
    <rect x="480" y="0" width="1681" height="1600"/>
  </clipPath>
</defs>
<path clip-path="url(#clip390)" d="M193.936 1486.45 L2352.76 1486.45 L2352.76 47.2441 L193.936 47.2441  Z" fill="#ffffff" fill-rule="evenodd" fill-opacity="1"/>
<defs>
  <clipPath id="clip392">
    <rect x="193" y="47" width="2160" height="1440"/>
  </clipPath>
</defs>
<polyline clip-path="url(#clip392)" style="stroke:#000000; stroke-linecap:round; stroke-linejoin:round; stroke-width:2; stroke-opacity:0.1; fill:none" points="255.035,1486.45 255.035,47.2441 "/>
<polyline clip-path="url(#clip392)" style="stroke:#000000; stroke-linecap:round; stroke-linejoin:round; stroke-width:2; stroke-opacity:0.1; fill:none" points="579.338,1486.45 579.338,47.2441 "/>
<polyline clip-path="url(#clip392)" style="stroke:#000000; stroke-linecap:round; stroke-linejoin:round; stroke-width:2; stroke-opacity:0.1; fill:none" points="903.641,1486.45 903.641,47.2441 "/>
<polyline clip-path="url(#clip392)" style="stroke:#000000; stroke-linecap:round; stroke-linejoin:round; stroke-width:2; stroke-opacity:0.1; fill:none" points="1227.94,1486.45 1227.94,47.2441 "/>
<polyline clip-path="url(#clip392)" style="stroke:#000000; stroke-linecap:round; stroke-linejoin:round; stroke-width:2; stroke-opacity:0.1; fill:none" points="1552.25,1486.45 1552.25,47.2441 "/>
<polyline clip-path="url(#clip392)" style="stroke:#000000; stroke-linecap:round; stroke-linejoin:round; stroke-width:2; stroke-opacity:0.1; fill:none" points="1876.55,1486.45 1876.55,47.2441 "/>
<polyline clip-path="url(#clip392)" style="stroke:#000000; stroke-linecap:round; stroke-linejoin:round; stroke-width:2; stroke-opacity:0.1; fill:none" points="2200.85,1486.45 2200.85,47.2441 "/>
<polyline clip-path="url(#clip392)" style="stroke:#000000; stroke-linecap:round; stroke-linejoin:round; stroke-width:2; stroke-opacity:0.1; fill:none" points="193.936,1428.97 2352.76,1428.97 "/>
<polyline clip-path="url(#clip392)" style="stroke:#000000; stroke-linecap:round; stroke-linejoin:round; stroke-width:2; stroke-opacity:0.1; fill:none" points="193.936,1093.72 2352.76,1093.72 "/>
<polyline clip-path="url(#clip392)" style="stroke:#000000; stroke-linecap:round; stroke-linejoin:round; stroke-width:2; stroke-opacity:0.1; fill:none" points="193.936,758.472 2352.76,758.472 "/>
<polyline clip-path="url(#clip392)" style="stroke:#000000; stroke-linecap:round; stroke-linejoin:round; stroke-width:2; stroke-opacity:0.1; fill:none" points="193.936,423.224 2352.76,423.224 "/>
<polyline clip-path="url(#clip392)" style="stroke:#000000; stroke-linecap:round; stroke-linejoin:round; stroke-width:2; stroke-opacity:0.1; fill:none" points="193.936,87.9761 2352.76,87.9761 "/>
<polyline clip-path="url(#clip390)" style="stroke:#000000; stroke-linecap:round; stroke-linejoin:round; stroke-width:4; stroke-opacity:1; fill:none" points="193.936,1486.45 2352.76,1486.45 "/>
<polyline clip-path="url(#clip390)" style="stroke:#000000; stroke-linecap:round; stroke-linejoin:round; stroke-width:4; stroke-opacity:1; fill:none" points="255.035,1486.45 255.035,1467.55 "/>
<polyline clip-path="url(#clip390)" style="stroke:#000000; stroke-linecap:round; stroke-linejoin:round; stroke-width:4; stroke-opacity:1; fill:none" points="579.338,1486.45 579.338,1467.55 "/>
<polyline clip-path="url(#clip390)" style="stroke:#000000; stroke-linecap:round; stroke-linejoin:round; stroke-width:4; stroke-opacity:1; fill:none" points="903.641,1486.45 903.641,1467.55 "/>
<polyline clip-path="url(#clip390)" style="stroke:#000000; stroke-linecap:round; stroke-linejoin:round; stroke-width:4; stroke-opacity:1; fill:none" points="1227.94,1486.45 1227.94,1467.55 "/>
<polyline clip-path="url(#clip390)" style="stroke:#000000; stroke-linecap:round; stroke-linejoin:round; stroke-width:4; stroke-opacity:1; fill:none" points="1552.25,1486.45 1552.25,1467.55 "/>
<polyline clip-path="url(#clip390)" style="stroke:#000000; stroke-linecap:round; stroke-linejoin:round; stroke-width:4; stroke-opacity:1; fill:none" points="1876.55,1486.45 1876.55,1467.55 "/>
<polyline clip-path="url(#clip390)" style="stroke:#000000; stroke-linecap:round; stroke-linejoin:round; stroke-width:4; stroke-opacity:1; fill:none" points="2200.85,1486.45 2200.85,1467.55 "/>
<path clip-path="url(#clip390)" d="M255.035 1517.37 Q251.424 1517.37 249.595 1520.93 Q247.789 1524.47 247.789 1531.6 Q247.789 1538.71 249.595 1542.27 Q251.424 1545.82 255.035 1545.82 Q258.669 1545.82 260.474 1542.27 Q262.303 1538.71 262.303 1531.6 Q262.303 1524.47 260.474 1520.93 Q258.669 1517.37 255.035 1517.37 M255.035 1513.66 Q260.845 1513.66 263.9 1518.27 Q266.979 1522.85 266.979 1531.6 Q266.979 1540.33 263.9 1544.94 Q260.845 1549.52 255.035 1549.52 Q249.225 1549.52 246.146 1544.94 Q243.09 1540.33 243.09 1531.6 Q243.09 1522.85 246.146 1518.27 Q249.225 1513.66 255.035 1513.66 Z" fill="#000000" fill-rule="nonzero" fill-opacity="1" /><path clip-path="url(#clip390)" d="M569.72 1544.91 L577.358 1544.91 L577.358 1518.55 L569.048 1520.21 L569.048 1515.95 L577.312 1514.29 L581.988 1514.29 L581.988 1544.91 L589.627 1544.91 L589.627 1548.85 L569.72 1548.85 L569.72 1544.91 Z" fill="#000000" fill-rule="nonzero" fill-opacity="1" /><path clip-path="url(#clip390)" d="M898.293 1544.91 L914.613 1544.91 L914.613 1548.85 L892.668 1548.85 L892.668 1544.91 Q895.33 1542.16 899.914 1537.53 Q904.52 1532.88 905.701 1531.53 Q907.946 1529.01 908.826 1527.27 Q909.729 1525.51 909.729 1523.82 Q909.729 1521.07 907.784 1519.33 Q905.863 1517.6 902.761 1517.6 Q900.562 1517.6 898.108 1518.36 Q895.678 1519.13 892.9 1520.68 L892.9 1515.95 Q895.724 1514.82 898.178 1514.24 Q900.631 1513.66 902.668 1513.66 Q908.039 1513.66 911.233 1516.35 Q914.428 1519.03 914.428 1523.52 Q914.428 1525.65 913.617 1527.57 Q912.83 1529.47 910.724 1532.07 Q910.145 1532.74 907.043 1535.95 Q903.942 1539.15 898.293 1544.91 Z" fill="#000000" fill-rule="nonzero" fill-opacity="1" /><path clip-path="url(#clip390)" d="M1232.19 1530.21 Q1235.55 1530.93 1237.42 1533.2 Q1239.32 1535.47 1239.32 1538.8 Q1239.32 1543.92 1235.8 1546.72 Q1232.28 1549.52 1225.8 1549.52 Q1223.63 1549.52 1221.31 1549.08 Q1219.02 1548.66 1216.57 1547.81 L1216.57 1543.29 Q1218.51 1544.43 1220.83 1545.01 Q1223.14 1545.58 1225.66 1545.58 Q1230.06 1545.58 1232.35 1543.85 Q1234.67 1542.11 1234.67 1538.8 Q1234.67 1535.75 1232.52 1534.03 Q1230.39 1532.3 1226.57 1532.3 L1222.54 1532.3 L1222.54 1528.45 L1226.75 1528.45 Q1230.2 1528.45 1232.03 1527.09 Q1233.86 1525.7 1233.86 1523.11 Q1233.86 1520.45 1231.96 1519.03 Q1230.08 1517.6 1226.57 1517.6 Q1224.64 1517.6 1222.45 1518.01 Q1220.25 1518.43 1217.61 1519.31 L1217.61 1515.14 Q1220.27 1514.4 1222.58 1514.03 Q1224.92 1513.66 1226.98 1513.66 Q1232.31 1513.66 1235.41 1516.09 Q1238.51 1518.5 1238.51 1522.62 Q1238.51 1525.49 1236.87 1527.48 Q1235.22 1529.45 1232.19 1530.21 Z" fill="#000000" fill-rule="nonzero" fill-opacity="1" /><path clip-path="url(#clip390)" d="M1555.26 1518.36 L1543.45 1536.81 L1555.26 1536.81 L1555.26 1518.36 M1554.03 1514.29 L1559.91 1514.29 L1559.91 1536.81 L1564.84 1536.81 L1564.84 1540.7 L1559.91 1540.7 L1559.91 1548.85 L1555.26 1548.85 L1555.26 1540.7 L1539.65 1540.7 L1539.65 1536.19 L1554.03 1514.29 Z" fill="#000000" fill-rule="nonzero" fill-opacity="1" /><path clip-path="url(#clip390)" d="M1866.83 1514.29 L1885.18 1514.29 L1885.18 1518.22 L1871.11 1518.22 L1871.11 1526.7 Q1872.13 1526.35 1873.15 1526.19 Q1874.17 1526 1875.18 1526 Q1880.97 1526 1884.35 1529.17 Q1887.73 1532.34 1887.73 1537.76 Q1887.73 1543.34 1884.26 1546.44 Q1880.79 1549.52 1874.47 1549.52 Q1872.29 1549.52 1870.02 1549.15 Q1867.78 1548.78 1865.37 1548.04 L1865.37 1543.34 Q1867.45 1544.47 1869.67 1545.03 Q1871.9 1545.58 1874.37 1545.58 Q1878.38 1545.58 1880.72 1543.48 Q1883.05 1541.37 1883.05 1537.76 Q1883.05 1534.15 1880.72 1532.04 Q1878.38 1529.94 1874.37 1529.94 Q1872.5 1529.94 1870.62 1530.35 Q1868.77 1530.77 1866.83 1531.65 L1866.83 1514.29 Z" fill="#000000" fill-rule="nonzero" fill-opacity="1" /><path clip-path="url(#clip390)" d="M2201.26 1529.7 Q2198.11 1529.7 2196.26 1531.86 Q2194.43 1534.01 2194.43 1537.76 Q2194.43 1541.49 2196.26 1543.66 Q2198.11 1545.82 2201.26 1545.82 Q2204.41 1545.82 2206.23 1543.66 Q2208.09 1541.49 2208.09 1537.76 Q2208.09 1534.01 2206.23 1531.86 Q2204.41 1529.7 2201.26 1529.7 M2210.54 1515.05 L2210.54 1519.31 Q2208.78 1518.48 2206.98 1518.04 Q2205.19 1517.6 2203.43 1517.6 Q2198.8 1517.6 2196.35 1520.72 Q2193.92 1523.85 2193.57 1530.17 Q2194.94 1528.15 2197 1527.09 Q2199.06 1526 2201.54 1526 Q2206.74 1526 2209.75 1529.17 Q2212.79 1532.32 2212.79 1537.76 Q2212.79 1543.08 2209.64 1546.3 Q2206.49 1549.52 2201.26 1549.52 Q2195.26 1549.52 2192.09 1544.94 Q2188.92 1540.33 2188.92 1531.6 Q2188.92 1523.41 2192.81 1518.55 Q2196.7 1513.66 2203.25 1513.66 Q2205.01 1513.66 2206.79 1514.01 Q2208.6 1514.36 2210.54 1515.05 Z" fill="#000000" fill-rule="nonzero" fill-opacity="1" /><polyline clip-path="url(#clip390)" style="stroke:#000000; stroke-linecap:round; stroke-linejoin:round; stroke-width:4; stroke-opacity:1; fill:none" points="193.936,1486.45 193.936,47.2441 "/>
<polyline clip-path="url(#clip390)" style="stroke:#000000; stroke-linecap:round; stroke-linejoin:round; stroke-width:4; stroke-opacity:1; fill:none" points="193.936,1428.97 212.834,1428.97 "/>
<polyline clip-path="url(#clip390)" style="stroke:#000000; stroke-linecap:round; stroke-linejoin:round; stroke-width:4; stroke-opacity:1; fill:none" points="193.936,1093.72 212.834,1093.72 "/>
<polyline clip-path="url(#clip390)" style="stroke:#000000; stroke-linecap:round; stroke-linejoin:round; stroke-width:4; stroke-opacity:1; fill:none" points="193.936,758.472 212.834,758.472 "/>
<polyline clip-path="url(#clip390)" style="stroke:#000000; stroke-linecap:round; stroke-linejoin:round; stroke-width:4; stroke-opacity:1; fill:none" points="193.936,423.224 212.834,423.224 "/>
<polyline clip-path="url(#clip390)" style="stroke:#000000; stroke-linecap:round; stroke-linejoin:round; stroke-width:4; stroke-opacity:1; fill:none" points="193.936,87.9761 212.834,87.9761 "/>
<path clip-path="url(#clip390)" d="M50.9921 1429.42 L80.6679 1429.42 L80.6679 1433.35 L50.9921 1433.35 L50.9921 1429.42 Z" fill="#000000" fill-rule="nonzero" fill-opacity="1" /><path clip-path="url(#clip390)" d="M91.5706 1442.31 L99.2095 1442.31 L99.2095 1415.95 L90.8993 1417.61 L90.8993 1413.35 L99.1632 1411.69 L103.839 1411.69 L103.839 1442.31 L111.478 1442.31 L111.478 1446.25 L91.5706 1446.25 L91.5706 1442.31 Z" fill="#000000" fill-rule="nonzero" fill-opacity="1" /><path clip-path="url(#clip390)" d="M120.922 1440.37 L125.807 1440.37 L125.807 1446.25 L120.922 1446.25 L120.922 1440.37 Z" fill="#000000" fill-rule="nonzero" fill-opacity="1" /><path clip-path="url(#clip390)" d="M145.992 1414.77 Q142.381 1414.77 140.552 1418.33 Q138.746 1421.87 138.746 1429 Q138.746 1436.11 140.552 1439.67 Q142.381 1443.21 145.992 1443.21 Q149.626 1443.21 151.431 1439.67 Q153.26 1436.11 153.26 1429 Q153.26 1421.87 151.431 1418.33 Q149.626 1414.77 145.992 1414.77 M145.992 1411.06 Q151.802 1411.06 154.857 1415.67 Q157.936 1420.25 157.936 1429 Q157.936 1437.73 154.857 1442.34 Q151.802 1446.92 145.992 1446.92 Q140.181 1446.92 137.103 1442.34 Q134.047 1437.73 134.047 1429 Q134.047 1420.25 137.103 1415.67 Q140.181 1411.06 145.992 1411.06 Z" fill="#000000" fill-rule="nonzero" fill-opacity="1" /><path clip-path="url(#clip390)" d="M51.9875 1094.17 L81.6633 1094.17 L81.6633 1098.11 L51.9875 1098.11 L51.9875 1094.17 Z" fill="#000000" fill-rule="nonzero" fill-opacity="1" /><path clip-path="url(#clip390)" d="M101.756 1079.52 Q98.1447 1079.52 96.316 1083.08 Q94.5104 1086.62 94.5104 1093.75 Q94.5104 1100.86 96.316 1104.43 Q98.1447 1107.97 101.756 1107.97 Q105.39 1107.97 107.196 1104.43 Q109.024 1100.86 109.024 1093.75 Q109.024 1086.62 107.196 1083.08 Q105.39 1079.52 101.756 1079.52 M101.756 1075.81 Q107.566 1075.81 110.621 1080.42 Q113.7 1085 113.7 1093.75 Q113.7 1102.48 110.621 1107.09 Q107.566 1111.67 101.756 1111.67 Q95.9456 1111.67 92.8669 1107.09 Q89.8114 1102.48 89.8114 1093.75 Q89.8114 1085 92.8669 1080.42 Q95.9456 1075.81 101.756 1075.81 Z" fill="#000000" fill-rule="nonzero" fill-opacity="1" /><path clip-path="url(#clip390)" d="M121.918 1105.12 L126.802 1105.12 L126.802 1111 L121.918 1111 L121.918 1105.12 Z" fill="#000000" fill-rule="nonzero" fill-opacity="1" /><path clip-path="url(#clip390)" d="M137.033 1076.44 L155.39 1076.44 L155.39 1080.37 L141.316 1080.37 L141.316 1088.85 Q142.334 1088.5 143.353 1088.34 Q144.371 1088.15 145.39 1088.15 Q151.177 1088.15 154.556 1091.32 Q157.936 1094.49 157.936 1099.91 Q157.936 1105.49 154.464 1108.59 Q150.992 1111.67 144.672 1111.67 Q142.496 1111.67 140.228 1111.3 Q137.982 1110.93 135.575 1110.19 L135.575 1105.49 Q137.658 1106.62 139.881 1107.18 Q142.103 1107.74 144.58 1107.74 Q148.584 1107.74 150.922 1105.63 Q153.26 1103.52 153.26 1099.91 Q153.26 1096.3 150.922 1094.19 Q148.584 1092.09 144.58 1092.09 Q142.705 1092.09 140.83 1092.5 Q138.978 1092.92 137.033 1093.8 L137.033 1076.44 Z" fill="#000000" fill-rule="nonzero" fill-opacity="1" /><path clip-path="url(#clip390)" d="M100.76 744.27 Q97.1493 744.27 95.3206 747.835 Q93.515 751.377 93.515 758.506 Q93.515 765.613 95.3206 769.178 Q97.1493 772.719 100.76 772.719 Q104.395 772.719 106.2 769.178 Q108.029 765.613 108.029 758.506 Q108.029 751.377 106.2 747.835 Q104.395 744.27 100.76 744.27 M100.76 740.567 Q106.571 740.567 109.626 745.173 Q112.705 749.756 112.705 758.506 Q112.705 767.233 109.626 771.84 Q106.571 776.423 100.76 776.423 Q94.9502 776.423 91.8715 771.84 Q88.816 767.233 88.816 758.506 Q88.816 749.756 91.8715 745.173 Q94.9502 740.567 100.76 740.567 Z" fill="#000000" fill-rule="nonzero" fill-opacity="1" /><path clip-path="url(#clip390)" d="M120.922 769.872 L125.807 769.872 L125.807 775.752 L120.922 775.752 L120.922 769.872 Z" fill="#000000" fill-rule="nonzero" fill-opacity="1" /><path clip-path="url(#clip390)" d="M145.992 744.27 Q142.381 744.27 140.552 747.835 Q138.746 751.377 138.746 758.506 Q138.746 765.613 140.552 769.178 Q142.381 772.719 145.992 772.719 Q149.626 772.719 151.431 769.178 Q153.26 765.613 153.26 758.506 Q153.26 751.377 151.431 747.835 Q149.626 744.27 145.992 744.27 M145.992 740.567 Q151.802 740.567 154.857 745.173 Q157.936 749.756 157.936 758.506 Q157.936 767.233 154.857 771.84 Q151.802 776.423 145.992 776.423 Q140.181 776.423 137.103 771.84 Q134.047 767.233 134.047 758.506 Q134.047 749.756 137.103 745.173 Q140.181 740.567 145.992 740.567 Z" fill="#000000" fill-rule="nonzero" fill-opacity="1" /><path clip-path="url(#clip390)" d="M101.756 409.023 Q98.1447 409.023 96.316 412.587 Q94.5104 416.129 94.5104 423.259 Q94.5104 430.365 96.316 433.93 Q98.1447 437.471 101.756 437.471 Q105.39 437.471 107.196 433.93 Q109.024 430.365 109.024 423.259 Q109.024 416.129 107.196 412.587 Q105.39 409.023 101.756 409.023 M101.756 405.319 Q107.566 405.319 110.621 409.925 Q113.7 414.509 113.7 423.259 Q113.7 431.985 110.621 436.592 Q107.566 441.175 101.756 441.175 Q95.9456 441.175 92.8669 436.592 Q89.8114 431.985 89.8114 423.259 Q89.8114 414.509 92.8669 409.925 Q95.9456 405.319 101.756 405.319 Z" fill="#000000" fill-rule="nonzero" fill-opacity="1" /><path clip-path="url(#clip390)" d="M121.918 434.624 L126.802 434.624 L126.802 440.504 L121.918 440.504 L121.918 434.624 Z" fill="#000000" fill-rule="nonzero" fill-opacity="1" /><path clip-path="url(#clip390)" d="M137.033 405.944 L155.39 405.944 L155.39 409.879 L141.316 409.879 L141.316 418.351 Q142.334 418.004 143.353 417.842 Q144.371 417.657 145.39 417.657 Q151.177 417.657 154.556 420.828 Q157.936 423.999 157.936 429.416 Q157.936 434.995 154.464 438.096 Q150.992 441.175 144.672 441.175 Q142.496 441.175 140.228 440.805 Q137.982 440.434 135.575 439.694 L135.575 434.995 Q137.658 436.129 139.881 436.684 Q142.103 437.24 144.58 437.24 Q148.584 437.24 150.922 435.134 Q153.26 433.027 153.26 429.416 Q153.26 425.805 150.922 423.698 Q148.584 421.592 144.58 421.592 Q142.705 421.592 140.83 422.009 Q138.978 422.425 137.033 423.305 L137.033 405.944 Z" fill="#000000" fill-rule="nonzero" fill-opacity="1" /><path clip-path="url(#clip390)" d="M91.5706 101.321 L99.2095 101.321 L99.2095 74.9553 L90.8993 76.622 L90.8993 72.3627 L99.1632 70.6961 L103.839 70.6961 L103.839 101.321 L111.478 101.321 L111.478 105.256 L91.5706 105.256 L91.5706 101.321 Z" fill="#000000" fill-rule="nonzero" fill-opacity="1" /><path clip-path="url(#clip390)" d="M120.922 99.3765 L125.807 99.3765 L125.807 105.256 L120.922 105.256 L120.922 99.3765 Z" fill="#000000" fill-rule="nonzero" fill-opacity="1" /><path clip-path="url(#clip390)" d="M145.992 73.7748 Q142.381 73.7748 140.552 77.3395 Q138.746 80.8812 138.746 88.0108 Q138.746 95.1172 140.552 98.682 Q142.381 102.224 145.992 102.224 Q149.626 102.224 151.431 98.682 Q153.26 95.1172 153.26 88.0108 Q153.26 80.8812 151.431 77.3395 Q149.626 73.7748 145.992 73.7748 M145.992 70.0711 Q151.802 70.0711 154.857 74.6775 Q157.936 79.2608 157.936 88.0108 Q157.936 96.7376 154.857 101.344 Q151.802 105.927 145.992 105.927 Q140.181 105.927 137.103 101.344 Q134.047 96.7376 134.047 88.0108 Q134.047 79.2608 137.103 74.6775 Q140.181 70.0711 145.992 70.0711 Z" fill="#000000" fill-rule="nonzero" fill-opacity="1" /><polyline clip-path="url(#clip392)" style="stroke:#009af9; stroke-linecap:round; stroke-linejoin:round; stroke-width:4; stroke-opacity:1; fill:none" points="255.035,758.472 258.278,751.767 261.521,745.063 264.764,738.36 268.007,731.659 271.25,724.961 274.493,718.266 277.736,711.575 280.979,704.889 284.222,698.208 287.465,691.534 290.708,684.866 293.951,678.205 297.194,671.553 300.437,664.909 303.68,658.274 306.923,651.65 310.166,645.036 313.409,638.433 316.652,631.843 319.895,625.265 323.138,618.7 326.381,612.15 329.624,605.614 332.867,599.093 336.11,592.588 339.353,586.1 342.596,579.629 345.84,573.176 349.083,566.742 352.326,560.327 355.569,553.931 358.812,547.556 362.055,541.202 365.298,534.87 368.541,528.56 371.784,522.273 375.027,516.01 378.27,509.771 381.513,503.557 384.756,497.368 387.999,491.206 391.242,485.07 394.485,478.962 397.728,472.881 400.971,466.829 404.214,460.806 407.457,454.813 410.7,448.851 413.943,442.919 417.186,437.019 420.429,431.151 423.672,425.316 426.915,419.514 430.158,413.746 433.401,408.012 436.644,402.314 439.887,396.651 443.13,391.024 446.373,385.434 449.616,379.881 452.859,374.367 456.103,368.89 459.346,363.453 462.589,358.055 465.832,352.697 469.075,347.38 472.318,342.103 475.561,336.869 478.804,331.676 482.047,326.527 485.29,321.42 488.533,316.357 491.776,311.339 495.019,306.365 498.262,301.436 501.505,296.553 504.748,291.716 507.991,286.926 511.234,282.183 514.477,277.488 517.72,272.84 520.963,268.242 524.206,263.692 527.449,259.192 530.692,254.741 533.935,250.342 537.178,245.992 540.421,241.695 543.664,237.448 546.907,233.254 550.15,229.113 553.393,225.024 556.636,220.989 559.879,217.008 563.122,213.08 566.366,209.207 569.609,205.389 572.852,201.627 576.095,197.92 579.338,194.269 582.581,190.675 585.824,187.137 589.067,183.656 592.31,180.233 595.553,176.868 598.796,173.561 602.039,170.313 605.282,167.123 608.525,163.992 611.768,160.921 615.011,157.91 618.254,154.958 621.497,152.067 624.74,149.237 627.983,146.467 631.226,143.759 634.469,141.112 637.712,138.527 640.955,136.004 644.198,133.544 647.441,131.145 650.684,128.81 653.927,126.537 657.17,124.328 660.413,122.182 663.656,120.099 666.899,118.081 670.142,116.126 673.385,114.236 676.629,112.41 679.872,110.649 683.115,108.952 686.358,107.321 689.601,105.755 692.844,104.253 696.087,102.818 699.33,101.448 702.573,100.143 705.816,98.9046 709.059,97.732 712.302,96.6254 715.545,95.585 718.788,94.6109 722.031,93.7032 725.274,92.862 728.517,92.0873 731.76,91.3793 735.003,90.7379 738.246,90.1634 741.489,89.6557 744.732,89.2148 747.975,88.8409 751.218,88.534 754.461,88.294 757.704,88.121 760.947,88.0151 764.19,87.9763 767.433,88.0045 770.676,88.0997 773.919,88.262 777.162,88.4913 780.405,88.7875 783.648,89.1508 786.892,89.581 790.135,90.078 793.378,90.642 796.621,91.2727 799.864,91.9701 803.107,92.7341 806.35,93.5648 809.593,94.4619 812.836,95.4254 816.079,96.4553 819.322,97.5513 822.565,98.7134 825.808,99.9415 829.051,101.235 832.294,102.595 835.537,104.02 838.78,105.511 842.023,107.067 845.266,108.688 848.509,110.374 851.752,112.125 854.995,113.941 858.238,115.821 861.481,117.765 864.724,119.774 867.967,121.846 871.21,123.982 874.453,126.181 877.696,128.444 880.939,130.769 884.182,133.157 887.425,135.608 890.668,138.121 893.911,140.697 897.155,143.334 900.398,146.032 903.641,148.792 906.884,151.612 910.127,154.494 913.37,157.436 916.613,160.437 919.856,163.499 923.099,166.62 926.342,169.801 929.585,173.04 932.828,176.338 936.071,179.694 939.314,183.107 942.557,186.579 945.8,190.107 949.043,193.693 952.286,197.335 955.529,201.033 958.772,204.786 962.015,208.596 965.258,212.46 968.501,216.378 971.744,220.351 974.987,224.378 978.23,228.458 981.473,232.591 984.716,236.777 987.959,241.015 991.202,245.305 994.445,249.645 997.688,254.037 1000.93,258.48 1004.17,262.972 1007.42,267.514 1010.66,272.105 1013.9,276.744 1017.15,281.432 1020.39,286.167 1023.63,290.95 1026.88,295.779 1030.12,300.655 1033.36,305.577 1036.6,310.543 1039.85,315.555 1043.09,320.611 1046.33,325.71 1049.58,330.853 1052.82,336.039 1056.06,341.267 1059.31,346.536 1062.55,351.847 1065.79,357.199 1069.04,362.59 1072.28,368.022 1075.52,373.492 1078.76,379.001 1082.01,384.547 1085.25,390.131 1088.49,395.752 1091.74,401.409 1094.98,407.102 1098.22,412.83 1101.47,418.593 1104.71,424.389 1107.95,430.219 1111.19,436.082 1114.44,441.977 1117.68,447.904 1120.92,453.862 1124.17,459.85 1127.41,465.868 1130.65,471.915 1133.9,477.991 1137.14,484.095 1140.38,490.227 1143.62,496.385 1146.87,502.57 1150.11,508.78 1153.35,515.015 1156.6,521.274 1159.84,527.557 1163.08,533.864 1166.33,540.192 1169.57,546.543 1172.81,552.914 1176.06,559.307 1179.3,565.719 1182.54,572.15 1185.78,578.6 1189.03,585.069 1192.27,591.554 1195.51,598.056 1198.76,604.574 1202,611.108 1205.24,617.656 1208.49,624.218 1211.73,630.794 1214.97,637.383 1218.21,643.983 1221.46,650.595 1224.7,657.218 1227.94,663.851 1231.19,670.494 1234.43,677.145 1237.67,683.804 1240.92,690.471 1244.16,697.145 1247.4,703.825 1250.64,710.51 1253.89,717.2 1257.13,723.894 1260.37,730.592 1263.62,737.292 1266.86,743.995 1270.1,750.699 1273.35,757.404 1276.59,764.109 1279.83,770.813 1283.08,777.516 1286.32,784.217 1289.56,790.916 1292.8,797.611 1296.05,804.303 1299.29,810.99 1302.53,817.671 1305.78,824.347 1309.02,831.016 1312.26,837.678 1315.51,844.332 1318.75,850.977 1321.99,857.613 1325.23,864.239 1328.48,870.855 1331.72,877.459 1334.96,884.052 1338.21,890.632 1341.45,897.199 1344.69,903.751 1347.94,910.29 1351.18,916.813 1354.42,923.32 1357.66,929.811 1360.91,936.285 1364.15,942.74 1367.39,949.178 1370.64,955.596 1373.88,961.995 1377.12,968.373 1380.37,974.731 1383.61,981.066 1386.85,987.38 1390.1,993.67 1393.34,999.937 1396.58,1006.18 1399.82,1012.4 1403.07,1018.59 1406.31,1024.76 1409.55,1030.9 1412.8,1037.01 1416.04,1043.1 1419.28,1049.15 1422.53,1055.18 1425.77,1061.18 1429.01,1067.14 1432.25,1073.08 1435.5,1078.99 1438.74,1084.86 1441.98,1090.7 1445.23,1096.51 1448.47,1102.28 1451.71,1108.02 1454.96,1113.72 1458.2,1119.39 1461.44,1125.03 1464.68,1130.62 1467.93,1136.18 1471.17,1141.7 1474.41,1147.18 1477.66,1152.63 1480.9,1158.03 1484.14,1163.4 1487.39,1168.72 1490.63,1174 1493.87,1179.24 1497.11,1184.44 1500.36,1189.6 1503.6,1194.71 1506.84,1199.78 1510.09,1204.81 1513.33,1209.79 1516.57,1214.73 1519.82,1219.62 1523.06,1224.46 1526.3,1229.26 1529.55,1234.01 1532.79,1238.71 1536.03,1243.37 1539.27,1247.97 1542.52,1252.53 1545.76,1257.04 1549,1261.5 1552.25,1265.9 1555.49,1270.26 1558.73,1274.57 1561.98,1278.82 1565.22,1283.02 1568.46,1287.17 1571.7,1291.27 1574.95,1295.32 1578.19,1299.31 1581.43,1303.24 1584.68,1307.12 1587.92,1310.95 1591.16,1314.72 1594.41,1318.44 1597.65,1322.1 1600.89,1325.7 1604.13,1329.25 1607.38,1332.74 1610.62,1336.17 1613.86,1339.54 1617.11,1342.86 1620.35,1346.12 1623.59,1349.32 1626.84,1352.46 1630.08,1355.54 1633.32,1358.56 1636.57,1361.52 1639.81,1364.42 1643.05,1367.26 1646.29,1370.04 1649.54,1372.76 1652.78,1375.41 1656.02,1378.01 1659.27,1380.54 1662.51,1383.01 1665.75,1385.42 1669,1387.77 1672.24,1390.05 1675.48,1392.27 1678.72,1394.42 1681.97,1396.52 1685.21,1398.55 1688.45,1400.51 1691.7,1402.41 1694.94,1404.25 1698.18,1406.02 1701.43,1407.73 1704.67,1409.37 1707.91,1410.94 1711.15,1412.46 1714.4,1413.9 1717.64,1415.28 1720.88,1416.6 1724.13,1417.85 1727.37,1419.03 1730.61,1420.15 1733.86,1421.2 1737.1,1422.18 1740.34,1423.1 1743.59,1423.95 1746.83,1424.74 1750.07,1425.46 1753.31,1426.11 1756.56,1426.69 1759.8,1427.21 1763.04,1427.66 1766.29,1428.05 1769.53,1428.36 1772.77,1428.62 1776.02,1428.8 1779.26,1428.92 1782.5,1428.97 1785.74,1428.95 1788.99,1428.86 1792.23,1428.71 1795.47,1428.49 1798.72,1428.21 1801.96,1427.85 1805.2,1427.44 1808.45,1426.95 1811.69,1426.4 1814.93,1425.78 1818.17,1425.09 1821.42,1424.34 1824.66,1423.52 1827.9,1422.63 1831.15,1421.68 1834.39,1420.66 1837.63,1419.57 1840.88,1418.42 1844.12,1417.2 1847.36,1415.92 1850.61,1414.57 1853.85,1413.15 1857.09,1411.67 1860.33,1410.13 1863.58,1408.52 1866.82,1406.84 1870.06,1405.1 1873.31,1403.3 1876.55,1401.43 1879.79,1399.49 1883.04,1397.49 1886.28,1395.43 1889.52,1393.31 1892.76,1391.12 1896.01,1388.86 1899.25,1386.55 1902.49,1384.17 1905.74,1381.73 1908.98,1379.23 1912.22,1376.66 1915.47,1374.03 1918.71,1371.35 1921.95,1368.6 1925.19,1365.78 1928.44,1362.91 1931.68,1359.98 1934.92,1356.99 1938.17,1353.94 1941.41,1350.82 1944.65,1347.65 1947.9,1344.42 1951.14,1341.13 1954.38,1337.79 1957.63,1334.38 1960.87,1330.92 1964.11,1327.4 1967.35,1323.83 1970.6,1320.19 1973.84,1316.5 1977.08,1312.76 1980.33,1308.96 1983.57,1305.1 1986.81,1301.19 1990.06,1297.23 1993.3,1293.21 1996.54,1289.14 1999.78,1285.01 2003.03,1280.84 2006.27,1276.61 2009.51,1272.33 2012.76,1267.99 2016,1263.61 2019.24,1259.17 2022.49,1254.69 2025.73,1250.16 2028.97,1245.57 2032.21,1240.94 2035.46,1236.26 2038.7,1231.53 2041.94,1226.76 2045.19,1221.94 2048.43,1217.07 2051.67,1212.15 2054.92,1207.19 2058.16,1202.19 2061.4,1197.14 2064.65,1192.05 2067.89,1186.91 2071.13,1181.73 2074.37,1176.51 2077.62,1171.25 2080.86,1165.94 2084.1,1160.6 2087.35,1155.21 2090.59,1149.79 2093.83,1144.33 2097.08,1138.82 2100.32,1133.28 2103.56,1127.7 2106.8,1122.09 2110.05,1116.44 2113.29,1110.75 2116.53,1105.03 2119.78,1099.27 2123.02,1093.48 2126.26,1087.65 2129.51,1081.8 2132.75,1075.91 2135.99,1069.99 2139.23,1064.03 2142.48,1058.05 2145.72,1052.04 2148.96,1045.99 2152.21,1039.92 2155.45,1033.82 2158.69,1027.69 2161.94,1021.54 2165.18,1015.36 2168.42,1009.15 2171.67,1002.92 2174.91,996.668 2178.15,990.388 2181.39,984.086 2184.64,977.76 2187.88,971.413 2191.12,965.045 2194.37,958.656 2197.61,952.247 2200.85,945.819 2204.1,939.371 2207.34,932.906 2210.58,926.423 2213.82,919.924 2217.07,913.408 2220.31,906.877 2223.55,900.331 2226.8,893.771 2230.04,887.197 2233.28,880.611 2236.53,874.012 2239.77,867.402 2243.01,860.781 2246.25,854.149 2249.5,847.508 2252.74,840.858 2255.98,834.2 2259.23,827.534 2262.47,820.862 2265.71,814.183 2268.96,807.498 2272.2,800.809 2275.44,794.115 2278.69,787.418 2281.93,780.718 2285.17,774.016 2288.41,767.312 2291.66,760.607 "/>
<circle clip-path="url(#clip392)" cx="1753.31" cy="1414.57" r="14.4" fill="#e26f46" fill-rule="evenodd" fill-opacity="1" stroke="#000000" stroke-opacity="1" stroke-width="3.2"/>
<circle clip-path="url(#clip392)" cx="1636.57" cy="1435.94" r="14.4" fill="#e26f46" fill-rule="evenodd" fill-opacity="1" stroke="#000000" stroke-opacity="1" stroke-width="3.2"/>
<circle clip-path="url(#clip392)" cx="1983.57" cy="1347.7" r="14.4" fill="#e26f46" fill-rule="evenodd" fill-opacity="1" stroke="#000000" stroke-opacity="1" stroke-width="3.2"/>
<circle clip-path="url(#clip392)" cx="900.398" cy="161.751" r="14.4" fill="#e26f46" fill-rule="evenodd" fill-opacity="1" stroke="#000000" stroke-opacity="1" stroke-width="3.2"/>
<circle clip-path="url(#clip392)" cx="1143.62" cy="406.357" r="14.4" fill="#e26f46" fill-rule="evenodd" fill-opacity="1" stroke="#000000" stroke-opacity="1" stroke-width="3.2"/>
<circle clip-path="url(#clip392)" cx="1542.52" cy="1117.25" r="14.4" fill="#e26f46" fill-rule="evenodd" fill-opacity="1" stroke="#000000" stroke-opacity="1" stroke-width="3.2"/>
<circle clip-path="url(#clip392)" cx="342.596" cy="577.631" r="14.4" fill="#e26f46" fill-rule="evenodd" fill-opacity="1" stroke="#000000" stroke-opacity="1" stroke-width="3.2"/>
<circle clip-path="url(#clip392)" cx="264.764" cy="782.186" r="14.4" fill="#e26f46" fill-rule="evenodd" fill-opacity="1" stroke="#000000" stroke-opacity="1" stroke-width="3.2"/>
<circle clip-path="url(#clip392)" cx="897.155" cy="230.157" r="14.4" fill="#e26f46" fill-rule="evenodd" fill-opacity="1" stroke="#000000" stroke-opacity="1" stroke-width="3.2"/>
<circle clip-path="url(#clip392)" cx="384.756" cy="422.29" r="14.4" fill="#e26f46" fill-rule="evenodd" fill-opacity="1" stroke="#000000" stroke-opacity="1" stroke-width="3.2"/>
<circle clip-path="url(#clip392)" cx="1610.62" cy="1389.83" r="14.4" fill="#e26f46" fill-rule="evenodd" fill-opacity="1" stroke="#000000" stroke-opacity="1" stroke-width="3.2"/>
<circle clip-path="url(#clip392)" cx="2204.1" cy="916.52" r="14.4" fill="#e26f46" fill-rule="evenodd" fill-opacity="1" stroke="#000000" stroke-opacity="1" stroke-width="3.2"/>
<circle clip-path="url(#clip392)" cx="1857.09" cy="1445.72" r="14.4" fill="#e26f46" fill-rule="evenodd" fill-opacity="1" stroke="#000000" stroke-opacity="1" stroke-width="3.2"/>
<circle clip-path="url(#clip392)" cx="2093.83" cy="1035" r="14.4" fill="#e26f46" fill-rule="evenodd" fill-opacity="1" stroke="#000000" stroke-opacity="1" stroke-width="3.2"/>
<circle clip-path="url(#clip392)" cx="1367.39" cy="855.091" r="14.4" fill="#e26f46" fill-rule="evenodd" fill-opacity="1" stroke="#000000" stroke-opacity="1" stroke-width="3.2"/>
<circle clip-path="url(#clip392)" cx="2113.29" cy="1159.51" r="14.4" fill="#e26f46" fill-rule="evenodd" fill-opacity="1" stroke="#000000" stroke-opacity="1" stroke-width="3.2"/>
<circle clip-path="url(#clip392)" cx="1646.29" cy="1236.33" r="14.4" fill="#e26f46" fill-rule="evenodd" fill-opacity="1" stroke="#000000" stroke-opacity="1" stroke-width="3.2"/>
<circle clip-path="url(#clip392)" cx="300.437" cy="582.099" r="14.4" fill="#e26f46" fill-rule="evenodd" fill-opacity="1" stroke="#000000" stroke-opacity="1" stroke-width="3.2"/>
<circle clip-path="url(#clip392)" cx="965.258" cy="342.046" r="14.4" fill="#e26f46" fill-rule="evenodd" fill-opacity="1" stroke="#000000" stroke-opacity="1" stroke-width="3.2"/>
<circle clip-path="url(#clip392)" cx="916.613" cy="302.158" r="14.4" fill="#e26f46" fill-rule="evenodd" fill-opacity="1" stroke="#000000" stroke-opacity="1" stroke-width="3.2"/>
<path clip-path="url(#clip390)" d="M1953.46 250.738 L2280.8 250.738 L2280.8 95.2176 L1953.46 95.2176  Z" fill="#ffffff" fill-rule="evenodd" fill-opacity="1"/>
<polyline clip-path="url(#clip390)" style="stroke:#000000; stroke-linecap:round; stroke-linejoin:round; stroke-width:4; stroke-opacity:1; fill:none" points="1953.46,250.738 2280.8,250.738 2280.8,95.2176 1953.46,95.2176 1953.46,250.738 "/>
<polyline clip-path="url(#clip390)" style="stroke:#009af9; stroke-linecap:round; stroke-linejoin:round; stroke-width:4; stroke-opacity:1; fill:none" points="1977.44,147.058 2121.36,147.058 "/>
<path clip-path="url(#clip390)" d="M2152.76 131.051 L2152.76 138.412 L2161.53 138.412 L2161.53 141.722 L2152.76 141.722 L2152.76 155.796 Q2152.76 158.967 2153.61 159.87 Q2154.49 160.773 2157.16 160.773 L2161.53 160.773 L2161.53 164.338 L2157.16 164.338 Q2152.23 164.338 2150.35 162.509 Q2148.48 160.657 2148.48 155.796 L2148.48 141.722 L2145.35 141.722 L2145.35 138.412 L2148.48 138.412 L2148.48 131.051 L2152.76 131.051 Z" fill="#000000" fill-rule="nonzero" fill-opacity="1" /><path clip-path="url(#clip390)" d="M2182.16 142.393 Q2181.44 141.977 2180.58 141.791 Q2179.75 141.583 2178.73 141.583 Q2175.12 141.583 2173.17 143.944 Q2171.25 146.282 2171.25 150.68 L2171.25 164.338 L2166.97 164.338 L2166.97 138.412 L2171.25 138.412 L2171.25 142.44 Q2172.6 140.078 2174.75 138.944 Q2176.9 137.787 2179.98 137.787 Q2180.42 137.787 2180.95 137.856 Q2181.48 137.903 2182.13 138.018 L2182.16 142.393 Z" fill="#000000" fill-rule="nonzero" fill-opacity="1" /><path clip-path="url(#clip390)" d="M2186.18 154.106 L2186.18 138.412 L2190.44 138.412 L2190.44 153.944 Q2190.44 157.625 2191.88 159.476 Q2193.31 161.305 2196.18 161.305 Q2199.63 161.305 2201.62 159.106 Q2203.64 156.907 2203.64 153.111 L2203.64 138.412 L2207.9 138.412 L2207.9 164.338 L2203.64 164.338 L2203.64 160.356 Q2202.09 162.717 2200.03 163.875 Q2197.99 165.009 2195.28 165.009 Q2190.81 165.009 2188.5 162.231 Q2186.18 159.453 2186.18 154.106 M2196.9 137.787 L2196.9 137.787 Z" fill="#000000" fill-rule="nonzero" fill-opacity="1" /><path clip-path="url(#clip390)" d="M2220.88 131.051 L2220.88 138.412 L2229.66 138.412 L2229.66 141.722 L2220.88 141.722 L2220.88 155.796 Q2220.88 158.967 2221.74 159.87 Q2222.62 160.773 2225.28 160.773 L2229.66 160.773 L2229.66 164.338 L2225.28 164.338 Q2220.35 164.338 2218.48 162.509 Q2216.6 160.657 2216.6 155.796 L2216.6 141.722 L2213.48 141.722 L2213.48 138.412 L2216.6 138.412 L2216.6 131.051 L2220.88 131.051 Z" fill="#000000" fill-rule="nonzero" fill-opacity="1" /><path clip-path="url(#clip390)" d="M2256.81 148.689 L2256.81 164.338 L2252.55 164.338 L2252.55 148.828 Q2252.55 145.148 2251.11 143.319 Q2249.68 141.49 2246.81 141.49 Q2243.36 141.49 2241.37 143.69 Q2239.38 145.889 2239.38 149.685 L2239.38 164.338 L2235.1 164.338 L2235.1 128.319 L2239.38 128.319 L2239.38 142.44 Q2240.91 140.102 2242.97 138.944 Q2245.05 137.787 2247.76 137.787 Q2252.23 137.787 2254.52 140.565 Q2256.81 143.319 2256.81 148.689 Z" fill="#000000" fill-rule="nonzero" fill-opacity="1" /><circle clip-path="url(#clip390)" cx="2049.4" cy="198.898" r="20.48" fill="#e26f46" fill-rule="evenodd" fill-opacity="1" stroke="#000000" stroke-opacity="1" stroke-width="4.55111"/>
<path clip-path="url(#clip390)" d="M2164.26 194.187 L2164.26 180.159 L2168.52 180.159 L2168.52 216.178 L2164.26 216.178 L2164.26 212.289 Q2162.92 214.603 2160.86 215.738 Q2158.82 216.849 2155.95 216.849 Q2151.25 216.849 2148.29 213.099 Q2145.35 209.349 2145.35 203.238 Q2145.35 197.127 2148.29 193.377 Q2151.25 189.627 2155.95 189.627 Q2158.82 189.627 2160.86 190.761 Q2162.92 191.872 2164.26 194.187 M2149.75 203.238 Q2149.75 207.937 2151.67 210.622 Q2153.61 213.284 2156.99 213.284 Q2160.37 213.284 2162.32 210.622 Q2164.26 207.937 2164.26 203.238 Q2164.26 198.539 2162.32 195.877 Q2160.37 193.192 2156.99 193.192 Q2153.61 193.192 2151.67 195.877 Q2149.75 198.539 2149.75 203.238 Z" fill="#000000" fill-rule="nonzero" fill-opacity="1" /><path clip-path="url(#clip390)" d="M2189.08 203.145 Q2183.92 203.145 2181.92 204.326 Q2179.93 205.506 2179.93 208.354 Q2179.93 210.622 2181.42 211.965 Q2182.92 213.284 2185.49 213.284 Q2189.03 213.284 2191.16 210.784 Q2193.31 208.261 2193.31 204.094 L2193.31 203.145 L2189.08 203.145 M2197.57 201.386 L2197.57 216.178 L2193.31 216.178 L2193.31 212.242 Q2191.85 214.603 2189.68 215.738 Q2187.5 216.849 2184.36 216.849 Q2180.37 216.849 2178.01 214.627 Q2175.67 212.381 2175.67 208.631 Q2175.67 204.256 2178.59 202.034 Q2181.53 199.812 2187.34 199.812 L2193.31 199.812 L2193.31 199.395 Q2193.31 196.455 2191.37 194.858 Q2189.45 193.238 2185.95 193.238 Q2183.73 193.238 2181.62 193.77 Q2179.52 194.303 2177.57 195.367 L2177.57 191.432 Q2179.91 190.53 2182.11 190.09 Q2184.31 189.627 2186.39 189.627 Q2192.02 189.627 2194.79 192.543 Q2197.57 195.46 2197.57 201.386 Z" fill="#000000" fill-rule="nonzero" fill-opacity="1" /><path clip-path="url(#clip390)" d="M2210.56 182.891 L2210.56 190.252 L2219.33 190.252 L2219.33 193.562 L2210.56 193.562 L2210.56 207.636 Q2210.56 210.807 2211.42 211.71 Q2212.29 212.613 2214.96 212.613 L2219.33 212.613 L2219.33 216.178 L2214.96 216.178 Q2210.03 216.178 2208.15 214.349 Q2206.28 212.497 2206.28 207.636 L2206.28 193.562 L2203.15 193.562 L2203.15 190.252 L2206.28 190.252 L2206.28 182.891 L2210.56 182.891 Z" fill="#000000" fill-rule="nonzero" fill-opacity="1" /><path clip-path="url(#clip390)" d="M2236.72 203.145 Q2231.55 203.145 2229.56 204.326 Q2227.57 205.506 2227.57 208.354 Q2227.57 210.622 2229.05 211.965 Q2230.56 213.284 2233.13 213.284 Q2236.67 213.284 2238.8 210.784 Q2240.95 208.261 2240.95 204.094 L2240.95 203.145 L2236.72 203.145 M2245.21 201.386 L2245.21 216.178 L2240.95 216.178 L2240.95 212.242 Q2239.49 214.603 2237.32 215.738 Q2235.14 216.849 2231.99 216.849 Q2228.01 216.849 2225.65 214.627 Q2223.31 212.381 2223.31 208.631 Q2223.31 204.256 2226.23 202.034 Q2229.17 199.812 2234.98 199.812 L2240.95 199.812 L2240.95 199.395 Q2240.95 196.455 2239.01 194.858 Q2237.09 193.238 2233.59 193.238 Q2231.37 193.238 2229.26 193.77 Q2227.16 194.303 2225.21 195.367 L2225.21 191.432 Q2227.55 190.53 2229.75 190.09 Q2231.95 189.627 2234.03 189.627 Q2239.66 189.627 2242.43 192.543 Q2245.21 195.46 2245.21 201.386 Z" fill="#000000" fill-rule="nonzero" fill-opacity="1" /></svg>
