<?xml version="1.0" encoding="utf-8"?>
<svg xmlns="http://www.w3.org/2000/svg" xmlns:xlink="http://www.w3.org/1999/xlink" width="600" height="400" viewBox="0 0 2400 1600">
<defs>
  <clipPath id="clip880">
    <rect x="0" y="0" width="2400" height="1600"/>
  </clipPath>
</defs>
<path clip-path="url(#clip880)" d="M0 1600 L2400 1600 L2400 0 L0 0  Z" fill="#ffffff" fill-rule="evenodd" fill-opacity="1"/>
<defs>
  <clipPath id="clip881">
    <rect x="480" y="0" width="1681" height="1600"/>
  </clipPath>
</defs>
<path clip-path="url(#clip880)" d="M193.936 1486.45 L2352.76 1486.45 L2352.76 47.2441 L193.936 47.2441  Z" fill="#ffffff" fill-rule="evenodd" fill-opacity="1"/>
<defs>
  <clipPath id="clip882">
    <rect x="193" y="47" width="2160" height="1440"/>
  </clipPath>
</defs>
<polyline clip-path="url(#clip882)" style="stroke:#000000; stroke-linecap:round; stroke-linejoin:round; stroke-width:2; stroke-opacity:0.1; fill:none" points="255.035,1486.45 255.035,47.2441 "/>
<polyline clip-path="url(#clip882)" style="stroke:#000000; stroke-linecap:round; stroke-linejoin:round; stroke-width:2; stroke-opacity:0.1; fill:none" points="579.338,1486.45 579.338,47.2441 "/>
<polyline clip-path="url(#clip882)" style="stroke:#000000; stroke-linecap:round; stroke-linejoin:round; stroke-width:2; stroke-opacity:0.1; fill:none" points="903.641,1486.45 903.641,47.2441 "/>
<polyline clip-path="url(#clip882)" style="stroke:#000000; stroke-linecap:round; stroke-linejoin:round; stroke-width:2; stroke-opacity:0.1; fill:none" points="1227.94,1486.45 1227.94,47.2441 "/>
<polyline clip-path="url(#clip882)" style="stroke:#000000; stroke-linecap:round; stroke-linejoin:round; stroke-width:2; stroke-opacity:0.1; fill:none" points="1552.25,1486.45 1552.25,47.2441 "/>
<polyline clip-path="url(#clip882)" style="stroke:#000000; stroke-linecap:round; stroke-linejoin:round; stroke-width:2; stroke-opacity:0.1; fill:none" points="1876.55,1486.45 1876.55,47.2441 "/>
<polyline clip-path="url(#clip882)" style="stroke:#000000; stroke-linecap:round; stroke-linejoin:round; stroke-width:2; stroke-opacity:0.1; fill:none" points="2200.85,1486.45 2200.85,47.2441 "/>
<polyline clip-path="url(#clip882)" style="stroke:#000000; stroke-linecap:round; stroke-linejoin:round; stroke-width:2; stroke-opacity:0.1; fill:none" points="193.936,1356.69 2352.76,1356.69 "/>
<polyline clip-path="url(#clip882)" style="stroke:#000000; stroke-linecap:round; stroke-linejoin:round; stroke-width:2; stroke-opacity:0.1; fill:none" points="193.936,1061.04 2352.76,1061.04 "/>
<polyline clip-path="url(#clip882)" style="stroke:#000000; stroke-linecap:round; stroke-linejoin:round; stroke-width:2; stroke-opacity:0.1; fill:none" points="193.936,765.391 2352.76,765.391 "/>
<polyline clip-path="url(#clip882)" style="stroke:#000000; stroke-linecap:round; stroke-linejoin:round; stroke-width:2; stroke-opacity:0.1; fill:none" points="193.936,469.742 2352.76,469.742 "/>
<polyline clip-path="url(#clip882)" style="stroke:#000000; stroke-linecap:round; stroke-linejoin:round; stroke-width:2; stroke-opacity:0.1; fill:none" points="193.936,174.094 2352.76,174.094 "/>
<polyline clip-path="url(#clip880)" style="stroke:#000000; stroke-linecap:round; stroke-linejoin:round; stroke-width:4; stroke-opacity:1; fill:none" points="193.936,1486.45 2352.76,1486.45 "/>
<polyline clip-path="url(#clip880)" style="stroke:#000000; stroke-linecap:round; stroke-linejoin:round; stroke-width:4; stroke-opacity:1; fill:none" points="255.035,1486.45 255.035,1467.55 "/>
<polyline clip-path="url(#clip880)" style="stroke:#000000; stroke-linecap:round; stroke-linejoin:round; stroke-width:4; stroke-opacity:1; fill:none" points="579.338,1486.45 579.338,1467.55 "/>
<polyline clip-path="url(#clip880)" style="stroke:#000000; stroke-linecap:round; stroke-linejoin:round; stroke-width:4; stroke-opacity:1; fill:none" points="903.641,1486.45 903.641,1467.55 "/>
<polyline clip-path="url(#clip880)" style="stroke:#000000; stroke-linecap:round; stroke-linejoin:round; stroke-width:4; stroke-opacity:1; fill:none" points="1227.94,1486.45 1227.94,1467.55 "/>
<polyline clip-path="url(#clip880)" style="stroke:#000000; stroke-linecap:round; stroke-linejoin:round; stroke-width:4; stroke-opacity:1; fill:none" points="1552.25,1486.45 1552.25,1467.55 "/>
<polyline clip-path="url(#clip880)" style="stroke:#000000; stroke-linecap:round; stroke-linejoin:round; stroke-width:4; stroke-opacity:1; fill:none" points="1876.55,1486.45 1876.55,1467.55 "/>
<polyline clip-path="url(#clip880)" style="stroke:#000000; stroke-linecap:round; stroke-linejoin:round; stroke-width:4; stroke-opacity:1; fill:none" points="2200.85,1486.45 2200.85,1467.55 "/>
<path clip-path="url(#clip880)" d="M255.035 1517.37 Q251.424 1517.37 249.595 1520.93 Q247.789 1524.47 247.789 1531.6 Q247.789 1538.71 249.595 1542.27 Q251.424 1545.82 255.035 1545.82 Q258.669 1545.82 260.474 1542.27 Q262.303 1538.71 262.303 1531.6 Q262.303 1524.47 260.474 1520.93 Q258.669 1517.37 255.035 1517.37 M255.035 1513.66 Q260.845 1513.66 263.9 1518.27 Q266.979 1522.85 266.979 1531.6 Q266.979 1540.33 263.9 1544.94 Q260.845 1549.52 255.035 1549.52 Q249.225 1549.52 246.146 1544.94 Q243.09 1540.33 243.09 1531.6 Q243.09 1522.85 246.146 1518.27 Q249.225 1513.66 255.035 1513.66 Z" fill="#000000" fill-rule="nonzero" fill-opacity="1" /><path clip-path="url(#clip880)" d="M569.72 1544.91 L577.358 1544.91 L577.358 1518.55 L569.048 1520.21 L569.048 1515.95 L577.312 1514.29 L581.988 1514.29 L581.988 1544.91 L589.627 1544.91 L589.627 1548.85 L569.72 1548.85 L569.72 1544.91 Z" fill="#000000" fill-rule="nonzero" fill-opacity="1" /><path clip-path="url(#clip880)" d="M898.293 1544.91 L914.613 1544.91 L914.613 1548.85 L892.668 1548.85 L892.668 1544.91 Q895.33 1542.16 899.914 1537.53 Q904.52 1532.88 905.701 1531.53 Q907.946 1529.01 908.826 1527.27 Q909.729 1525.51 909.729 1523.82 Q909.729 1521.07 907.784 1519.33 Q905.863 1517.6 902.761 1517.6 Q900.562 1517.6 898.108 1518.36 Q895.678 1519.13 892.9 1520.68 L892.9 1515.95 Q895.724 1514.82 898.178 1514.24 Q900.631 1513.66 902.668 1513.66 Q908.039 1513.66 911.233 1516.35 Q914.428 1519.03 914.428 1523.52 Q914.428 1525.65 913.617 1527.57 Q912.83 1529.47 910.724 1532.07 Q910.145 1532.74 907.043 1535.95 Q903.942 1539.15 898.293 1544.91 Z" fill="#000000" fill-rule="nonzero" fill-opacity="1" /><path clip-path="url(#clip880)" d="M1232.19 1530.21 Q1235.55 1530.93 1237.42 1533.2 Q1239.32 1535.47 1239.32 1538.8 Q1239.32 1543.92 1235.8 1546.72 Q1232.28 1549.52 1225.8 1549.52 Q1223.63 1549.52 1221.31 1549.08 Q1219.02 1548.66 1216.57 1547.81 L1216.57 1543.29 Q1218.51 1544.43 1220.83 1545.01 Q1223.14 1545.58 1225.66 1545.58 Q1230.06 1545.58 1232.35 1543.85 Q1234.67 1542.11 1234.67 1538.8 Q1234.67 1535.75 1232.52 1534.03 Q1230.39 1532.3 1226.57 1532.3 L1222.54 1532.3 L1222.54 1528.45 L1226.75 1528.45 Q1230.2 1528.45 1232.03 1527.09 Q1233.86 1525.7 1233.86 1523.11 Q1233.86 1520.45 1231.96 1519.03 Q1230.08 1517.6 1226.57 1517.6 Q1224.64 1517.6 1222.45 1518.01 Q1220.25 1518.43 1217.61 1519.31 L1217.61 1515.14 Q1220.27 1514.4 1222.58 1514.03 Q1224.92 1513.66 1226.98 1513.66 Q1232.31 1513.66 1235.41 1516.09 Q1238.51 1518.5 1238.51 1522.62 Q1238.51 1525.49 1236.87 1527.48 Q1235.22 1529.45 1232.19 1530.21 Z" fill="#000000" fill-rule="nonzero" fill-opacity="1" /><path clip-path="url(#clip880)" d="M1555.26 1518.36 L1543.45 1536.81 L1555.26 1536.81 L1555.26 1518.36 M1554.03 1514.29 L1559.91 1514.29 L1559.91 1536.81 L1564.84 1536.81 L1564.84 1540.7 L1559.91 1540.7 L1559.91 1548.85 L1555.26 1548.85 L1555.26 1540.7 L1539.65 1540.7 L1539.65 1536.19 L1554.03 1514.29 Z" fill="#000000" fill-rule="nonzero" fill-opacity="1" /><path clip-path="url(#clip880)" d="M1866.83 1514.29 L1885.18 1514.29 L1885.18 1518.22 L1871.11 1518.22 L1871.11 1526.7 Q1872.13 1526.35 1873.15 1526.19 Q1874.17 1526 1875.18 1526 Q1880.97 1526 1884.35 1529.17 Q1887.73 1532.34 1887.73 1537.76 Q1887.73 1543.34 1884.26 1546.44 Q1880.79 1549.52 1874.47 1549.52 Q1872.29 1549.52 1870.02 1549.15 Q1867.78 1548.78 1865.37 1548.04 L1865.37 1543.34 Q1867.45 1544.47 1869.67 1545.03 Q1871.9 1545.58 1874.37 1545.58 Q1878.38 1545.58 1880.72 1543.48 Q1883.05 1541.37 1883.05 1537.76 Q1883.05 1534.15 1880.72 1532.04 Q1878.38 1529.94 1874.37 1529.94 Q1872.5 1529.94 1870.62 1530.35 Q1868.77 1530.77 1866.83 1531.65 L1866.83 1514.29 Z" fill="#000000" fill-rule="nonzero" fill-opacity="1" /><path clip-path="url(#clip880)" d="M2201.26 1529.7 Q2198.11 1529.7 2196.26 1531.86 Q2194.43 1534.01 2194.43 1537.76 Q2194.43 1541.49 2196.26 1543.66 Q2198.11 1545.82 2201.26 1545.82 Q2204.41 1545.82 2206.23 1543.66 Q2208.09 1541.49 2208.09 1537.76 Q2208.09 1534.01 2206.23 1531.86 Q2204.41 1529.7 2201.26 1529.7 M2210.54 1515.05 L2210.54 1519.31 Q2208.78 1518.48 2206.98 1518.04 Q2205.19 1517.6 2203.43 1517.6 Q2198.8 1517.6 2196.35 1520.72 Q2193.92 1523.85 2193.57 1530.17 Q2194.94 1528.15 2197 1527.09 Q2199.06 1526 2201.54 1526 Q2206.74 1526 2209.75 1529.17 Q2212.79 1532.32 2212.79 1537.76 Q2212.79 1543.08 2209.64 1546.3 Q2206.49 1549.52 2201.26 1549.52 Q2195.26 1549.52 2192.09 1544.94 Q2188.92 1540.33 2188.92 1531.6 Q2188.92 1523.41 2192.81 1518.55 Q2196.7 1513.66 2203.25 1513.66 Q2205.01 1513.66 2206.79 1514.01 Q2208.6 1514.36 2210.54 1515.05 Z" fill="#000000" fill-rule="nonzero" fill-opacity="1" /><polyline clip-path="url(#clip880)" style="stroke:#000000; stroke-linecap:round; stroke-linejoin:round; stroke-width:4; stroke-opacity:1; fill:none" points="193.936,1486.45 193.936,47.2441 "/>
<polyline clip-path="url(#clip880)" style="stroke:#000000; stroke-linecap:round; stroke-linejoin:round; stroke-width:4; stroke-opacity:1; fill:none" points="193.936,1356.69 212.834,1356.69 "/>
<polyline clip-path="url(#clip880)" style="stroke:#000000; stroke-linecap:round; stroke-linejoin:round; stroke-width:4; stroke-opacity:1; fill:none" points="193.936,1061.04 212.834,1061.04 "/>
<polyline clip-path="url(#clip880)" style="stroke:#000000; stroke-linecap:round; stroke-linejoin:round; stroke-width:4; stroke-opacity:1; fill:none" points="193.936,765.391 212.834,765.391 "/>
<polyline clip-path="url(#clip880)" style="stroke:#000000; stroke-linecap:round; stroke-linejoin:round; stroke-width:4; stroke-opacity:1; fill:none" points="193.936,469.742 212.834,469.742 "/>
<polyline clip-path="url(#clip880)" style="stroke:#000000; stroke-linecap:round; stroke-linejoin:round; stroke-width:4; stroke-opacity:1; fill:none" points="193.936,174.094 212.834,174.094 "/>
<path clip-path="url(#clip880)" d="M50.9921 1357.14 L80.6679 1357.14 L80.6679 1361.07 L50.9921 1361.07 L50.9921 1357.14 Z" fill="#000000" fill-rule="nonzero" fill-opacity="1" /><path clip-path="url(#clip880)" d="M91.5706 1370.03 L99.2095 1370.03 L99.2095 1343.67 L90.8993 1345.33 L90.8993 1341.07 L99.1632 1339.41 L103.839 1339.41 L103.839 1370.03 L111.478 1370.03 L111.478 1373.97 L91.5706 1373.97 L91.5706 1370.03 Z" fill="#000000" fill-rule="nonzero" fill-opacity="1" /><path clip-path="url(#clip880)" d="M120.922 1368.09 L125.807 1368.09 L125.807 1373.97 L120.922 1373.97 L120.922 1368.09 Z" fill="#000000" fill-rule="nonzero" fill-opacity="1" /><path clip-path="url(#clip880)" d="M145.992 1342.49 Q142.381 1342.49 140.552 1346.05 Q138.746 1349.59 138.746 1356.72 Q138.746 1363.83 140.552 1367.39 Q142.381 1370.94 145.992 1370.94 Q149.626 1370.94 151.431 1367.39 Q153.26 1363.83 153.26 1356.72 Q153.26 1349.59 151.431 1346.05 Q149.626 1342.49 145.992 1342.49 M145.992 1338.78 Q151.802 1338.78 154.857 1343.39 Q157.936 1347.97 157.936 1356.72 Q157.936 1365.45 154.857 1370.06 Q151.802 1374.64 145.992 1374.64 Q140.181 1374.64 137.103 1370.06 Q134.047 1365.45 134.047 1356.72 Q134.047 1347.97 137.103 1343.39 Q140.181 1338.78 145.992 1338.78 Z" fill="#000000" fill-rule="nonzero" fill-opacity="1" /><path clip-path="url(#clip880)" d="M51.9875 1061.49 L81.6633 1061.49 L81.6633 1065.43 L51.9875 1065.43 L51.9875 1061.49 Z" fill="#000000" fill-rule="nonzero" fill-opacity="1" /><path clip-path="url(#clip880)" d="M101.756 1046.84 Q98.1447 1046.84 96.316 1050.4 Q94.5104 1053.94 94.5104 1061.07 Q94.5104 1068.18 96.316 1071.75 Q98.1447 1075.29 101.756 1075.29 Q105.39 1075.29 107.196 1071.75 Q109.024 1068.18 109.024 1061.07 Q109.024 1053.94 107.196 1050.4 Q105.39 1046.84 101.756 1046.84 M101.756 1043.13 Q107.566 1043.13 110.621 1047.74 Q113.7 1052.32 113.7 1061.07 Q113.7 1069.8 110.621 1074.41 Q107.566 1078.99 101.756 1078.99 Q95.9456 1078.99 92.8669 1074.41 Q89.8114 1069.8 89.8114 1061.07 Q89.8114 1052.32 92.8669 1047.74 Q95.9456 1043.13 101.756 1043.13 Z" fill="#000000" fill-rule="nonzero" fill-opacity="1" /><path clip-path="url(#clip880)" d="M121.918 1072.44 L126.802 1072.44 L126.802 1078.32 L121.918 1078.32 L121.918 1072.44 Z" fill="#000000" fill-rule="nonzero" fill-opacity="1" /><path clip-path="url(#clip880)" d="M137.033 1043.76 L155.39 1043.76 L155.39 1047.69 L141.316 1047.69 L141.316 1056.17 Q142.334 1055.82 143.353 1055.66 Q144.371 1055.47 145.39 1055.47 Q151.177 1055.47 154.556 1058.64 Q157.936 1061.81 157.936 1067.23 Q157.936 1072.81 154.464 1075.91 Q150.992 1078.99 144.672 1078.99 Q142.496 1078.99 140.228 1078.62 Q137.982 1078.25 135.575 1077.51 L135.575 1072.81 Q137.658 1073.94 139.881 1074.5 Q142.103 1075.06 144.58 1075.06 Q148.584 1075.06 150.922 1072.95 Q153.26 1070.84 153.26 1067.23 Q153.26 1063.62 150.922 1061.51 Q148.584 1059.41 144.58 1059.41 Q142.705 1059.41 140.83 1059.82 Q138.978 1060.24 137.033 1061.12 L137.033 1043.76 Z" fill="#000000" fill-rule="nonzero" fill-opacity="1" /><path clip-path="url(#clip880)" d="M100.76 751.19 Q97.1493 751.19 95.3206 754.754 Q93.515 758.296 93.515 765.426 Q93.515 772.532 95.3206 776.097 Q97.1493 779.638 100.76 779.638 Q104.395 779.638 106.2 776.097 Q108.029 772.532 108.029 765.426 Q108.029 758.296 106.2 754.754 Q104.395 751.19 100.76 751.19 M100.76 747.486 Q106.571 747.486 109.626 752.092 Q112.705 756.676 112.705 765.426 Q112.705 774.152 109.626 778.759 Q106.571 783.342 100.76 783.342 Q94.9502 783.342 91.8715 778.759 Q88.816 774.152 88.816 765.426 Q88.816 756.676 91.8715 752.092 Q94.9502 747.486 100.76 747.486 Z" fill="#000000" fill-rule="nonzero" fill-opacity="1" /><path clip-path="url(#clip880)" d="M120.922 776.791 L125.807 776.791 L125.807 782.671 L120.922 782.671 L120.922 776.791 Z" fill="#000000" fill-rule="nonzero" fill-opacity="1" /><path clip-path="url(#clip880)" d="M145.992 751.19 Q142.381 751.19 140.552 754.754 Q138.746 758.296 138.746 765.426 Q138.746 772.532 140.552 776.097 Q142.381 779.638 145.992 779.638 Q149.626 779.638 151.431 776.097 Q153.26 772.532 153.26 765.426 Q153.26 758.296 151.431 754.754 Q149.626 751.19 145.992 751.19 M145.992 747.486 Q151.802 747.486 154.857 752.092 Q157.936 756.676 157.936 765.426 Q157.936 774.152 154.857 778.759 Q151.802 783.342 145.992 783.342 Q140.181 783.342 137.103 778.759 Q134.047 774.152 134.047 765.426 Q134.047 756.676 137.103 752.092 Q140.181 747.486 145.992 747.486 Z" fill="#000000" fill-rule="nonzero" fill-opacity="1" /><path clip-path="url(#clip880)" d="M101.756 455.541 Q98.1447 455.541 96.316 459.106 Q94.5104 462.647 94.5104 469.777 Q94.5104 476.883 96.316 480.448 Q98.1447 483.99 101.756 483.99 Q105.39 483.99 107.196 480.448 Q109.024 476.883 109.024 469.777 Q109.024 462.647 107.196 459.106 Q105.39 455.541 101.756 455.541 M101.756 451.837 Q107.566 451.837 110.621 456.444 Q113.7 461.027 113.7 469.777 Q113.7 478.504 110.621 483.11 Q107.566 487.694 101.756 487.694 Q95.9456 487.694 92.8669 483.11 Q89.8114 478.504 89.8114 469.777 Q89.8114 461.027 92.8669 456.444 Q95.9456 451.837 101.756 451.837 Z" fill="#000000" fill-rule="nonzero" fill-opacity="1" /><path clip-path="url(#clip880)" d="M121.918 481.143 L126.802 481.143 L126.802 487.022 L121.918 487.022 L121.918 481.143 Z" fill="#000000" fill-rule="nonzero" fill-opacity="1" /><path clip-path="url(#clip880)" d="M137.033 452.462 L155.39 452.462 L155.39 456.397 L141.316 456.397 L141.316 464.87 Q142.334 464.522 143.353 464.36 Q144.371 464.175 145.39 464.175 Q151.177 464.175 154.556 467.346 Q157.936 470.518 157.936 475.934 Q157.936 481.513 154.464 484.615 Q150.992 487.694 144.672 487.694 Q142.496 487.694 140.228 487.323 Q137.982 486.953 135.575 486.212 L135.575 481.513 Q137.658 482.647 139.881 483.203 Q142.103 483.758 144.58 483.758 Q148.584 483.758 150.922 481.652 Q153.26 479.545 153.26 475.934 Q153.26 472.323 150.922 470.217 Q148.584 468.11 144.58 468.11 Q142.705 468.11 140.83 468.527 Q138.978 468.944 137.033 469.823 L137.033 452.462 Z" fill="#000000" fill-rule="nonzero" fill-opacity="1" /><path clip-path="url(#clip880)" d="M91.5706 187.438 L99.2095 187.438 L99.2095 161.073 L90.8993 162.739 L90.8993 158.48 L99.1632 156.814 L103.839 156.814 L103.839 187.438 L111.478 187.438 L111.478 191.374 L91.5706 191.374 L91.5706 187.438 Z" fill="#000000" fill-rule="nonzero" fill-opacity="1" /><path clip-path="url(#clip880)" d="M120.922 185.494 L125.807 185.494 L125.807 191.374 L120.922 191.374 L120.922 185.494 Z" fill="#000000" fill-rule="nonzero" fill-opacity="1" /><path clip-path="url(#clip880)" d="M145.992 159.892 Q142.381 159.892 140.552 163.457 Q138.746 166.999 138.746 174.128 Q138.746 181.235 140.552 184.8 Q142.381 188.341 145.992 188.341 Q149.626 188.341 151.431 184.8 Q153.26 181.235 153.26 174.128 Q153.26 166.999 151.431 163.457 Q149.626 159.892 145.992 159.892 M145.992 156.189 Q151.802 156.189 154.857 160.795 Q157.936 165.378 157.936 174.128 Q157.936 182.855 154.857 187.462 Q151.802 192.045 145.992 192.045 Q140.181 192.045 137.103 187.462 Q134.047 182.855 134.047 174.128 Q134.047 165.378 137.103 160.795 Q140.181 156.189 145.992 156.189 Z" fill="#000000" fill-rule="nonzero" fill-opacity="1" /><polyline clip-path="url(#clip882)" style="stroke:#009af9; stroke-linecap:round; stroke-linejoin:round; stroke-width:4; stroke-opacity:1; fill:none" points="255.035,765.391 258.278,759.478 261.521,753.566 264.764,747.655 268.007,741.745 271.25,735.838 274.493,729.934 277.736,724.034 280.979,718.137 284.222,712.246 287.465,706.36 290.708,700.479 293.951,694.605 297.194,688.739 300.437,682.879 303.68,677.028 306.923,671.186 310.166,665.354 313.409,659.531 316.652,653.719 319.895,647.918 323.138,642.129 326.381,636.352 329.624,630.588 332.867,624.838 336.11,619.102 339.353,613.38 342.596,607.673 345.84,601.982 349.083,596.308 352.326,590.651 355.569,585.011 358.812,579.388 362.055,573.785 365.298,568.201 368.541,562.636 371.784,557.092 375.027,551.569 378.27,546.067 381.513,540.586 384.756,535.129 387.999,529.694 391.242,524.283 394.485,518.896 397.728,513.534 400.971,508.197 404.214,502.886 407.457,497.6 410.7,492.342 413.943,487.111 417.186,481.908 420.429,476.733 423.672,471.587 426.915,466.47 430.158,461.384 433.401,456.327 436.644,451.302 439.887,446.308 443.13,441.346 446.373,436.416 449.616,431.519 452.859,426.656 456.103,421.826 459.346,417.031 462.589,412.271 465.832,407.546 469.075,402.857 472.318,398.204 475.561,393.587 478.804,389.008 482.047,384.467 485.29,379.963 488.533,375.499 491.776,371.073 495.019,366.686 498.262,362.34 501.505,358.033 504.748,353.768 507.991,349.544 511.234,345.361 514.477,341.22 517.72,337.122 520.963,333.066 524.206,329.054 527.449,325.085 530.692,321.161 533.935,317.281 537.178,313.445 540.421,309.655 543.664,305.91 546.907,302.212 550.15,298.559 553.393,294.954 556.636,291.395 559.879,287.884 563.122,284.42 566.366,281.005 569.609,277.638 572.852,274.32 576.095,271.051 579.338,267.831 582.581,264.662 585.824,261.542 589.067,258.472 592.31,255.454 595.553,252.486 598.796,249.569 602.039,246.705 605.282,243.892 608.525,241.131 611.768,238.422 615.011,235.767 618.254,233.164 621.497,230.614 624.74,228.118 627.983,225.676 631.226,223.288 634.469,220.954 637.712,218.674 640.955,216.449 644.198,214.279 647.441,212.164 650.684,210.104 653.927,208.1 657.17,206.151 660.413,204.259 663.656,202.422 666.899,200.642 670.142,198.919 673.385,197.252 676.629,195.642 679.872,194.088 683.115,192.592 686.358,191.153 689.601,189.772 692.844,188.448 696.087,187.182 699.33,185.974 702.573,184.824 705.816,183.731 709.059,182.697 712.302,181.721 715.545,180.804 718.788,179.945 722.031,179.144 725.274,178.402 728.517,177.719 731.76,177.095 735.003,176.529 738.246,176.023 741.489,175.575 744.732,175.186 747.975,174.856 751.218,174.586 754.461,174.374 757.704,174.221 760.947,174.128 764.19,174.094 767.433,174.119 770.676,174.203 773.919,174.346 777.162,174.548 780.405,174.809 783.648,175.13 786.892,175.509 790.135,175.947 793.378,176.445 796.621,177.001 799.864,177.616 803.107,178.29 806.35,179.022 809.593,179.813 812.836,180.663 816.079,181.571 819.322,182.538 822.565,183.563 825.808,184.646 829.051,185.787 832.294,186.986 835.537,188.243 838.78,189.557 842.023,190.93 845.266,192.359 848.509,193.846 851.752,195.39 854.995,196.991 858.238,198.649 861.481,200.364 864.724,202.135 867.967,203.963 871.21,205.846 874.453,207.786 877.696,209.781 880.939,211.832 884.182,213.938 887.425,216.1 890.668,218.316 893.911,220.587 897.155,222.912 900.398,225.292 903.641,227.726 906.884,230.213 910.127,232.754 913.37,235.349 916.613,237.996 919.856,240.696 923.099,243.448 926.342,246.253 929.585,249.11 932.828,252.018 936.071,254.978 939.314,257.988 942.557,261.049 945.8,264.161 949.043,267.323 952.286,270.535 955.529,273.796 958.772,277.106 962.015,280.466 965.258,283.873 968.501,287.329 971.744,290.833 974.987,294.384 978.23,297.982 981.473,301.627 984.716,305.318 987.959,309.056 991.202,312.839 994.445,316.667 997.688,320.54 1000.93,324.457 1004.17,328.419 1007.42,332.424 1010.66,336.473 1013.9,340.565 1017.15,344.699 1020.39,348.875 1023.63,353.092 1026.88,357.351 1030.12,361.651 1033.36,365.991 1036.6,370.371 1039.85,374.791 1043.09,379.25 1046.33,383.747 1049.58,388.282 1052.82,392.855 1056.06,397.466 1059.31,402.113 1062.55,406.797 1065.79,411.516 1069.04,416.271 1072.28,421.06 1075.52,425.884 1078.76,430.742 1082.01,435.634 1085.25,440.558 1088.49,445.515 1091.74,450.504 1094.98,455.525 1098.22,460.576 1101.47,465.658 1104.71,470.77 1107.95,475.911 1111.19,481.082 1114.44,486.28 1117.68,491.507 1120.92,496.761 1124.17,502.042 1127.41,507.349 1130.65,512.682 1133.9,518.041 1137.14,523.424 1140.38,528.831 1143.62,534.262 1146.87,539.716 1150.11,545.192 1153.35,550.691 1156.6,556.211 1159.84,561.752 1163.08,567.313 1166.33,572.894 1169.57,578.495 1172.81,584.114 1176.06,589.751 1179.3,595.406 1182.54,601.078 1185.78,606.766 1189.03,612.47 1192.27,618.189 1195.51,623.923 1198.76,629.672 1202,635.433 1205.24,641.208 1208.49,646.995 1211.73,652.794 1214.97,658.605 1218.21,664.426 1221.46,670.257 1224.7,676.097 1227.94,681.947 1231.19,687.805 1234.43,693.67 1237.67,699.543 1240.92,705.423 1244.16,711.308 1247.4,717.199 1250.64,723.094 1253.89,728.994 1257.13,734.898 1260.37,740.804 1263.62,746.713 1266.86,752.624 1270.1,758.536 1273.35,764.449 1276.59,770.362 1279.83,776.274 1283.08,782.186 1286.32,788.095 1289.56,794.003 1292.8,799.907 1296.05,805.808 1299.29,811.705 1302.53,817.598 1305.78,823.485 1309.02,829.366 1312.26,835.241 1315.51,841.109 1318.75,846.97 1321.99,852.822 1325.23,858.665 1328.48,864.5 1331.72,870.324 1334.96,876.138 1338.21,881.94 1341.45,887.731 1344.69,893.51 1347.94,899.276 1351.18,905.029 1354.42,910.767 1357.66,916.492 1360.91,922.201 1364.15,927.894 1367.39,933.571 1370.64,939.231 1373.88,944.874 1377.12,950.499 1380.37,956.105 1383.61,961.693 1386.85,967.26 1390.1,972.808 1393.34,978.335 1396.58,983.84 1399.82,989.324 1403.07,994.785 1406.31,1000.22 1409.55,1005.64 1412.8,1011.03 1416.04,1016.4 1419.28,1021.74 1422.53,1027.05 1425.77,1032.34 1429.01,1037.6 1432.25,1042.84 1435.5,1048.05 1438.74,1053.23 1441.98,1058.38 1445.23,1063.5 1448.47,1068.59 1451.71,1073.65 1454.96,1078.68 1458.2,1083.68 1461.44,1088.65 1464.68,1093.58 1467.93,1098.48 1471.17,1103.35 1474.41,1108.19 1477.66,1112.99 1480.9,1117.76 1484.14,1122.49 1487.39,1127.18 1490.63,1131.84 1493.87,1136.46 1497.11,1141.05 1500.36,1145.59 1503.6,1150.1 1506.84,1154.57 1510.09,1159.01 1513.33,1163.4 1516.57,1167.75 1519.82,1172.07 1523.06,1176.34 1526.3,1180.57 1529.55,1184.76 1532.79,1188.9 1536.03,1193.01 1539.27,1197.07 1542.52,1201.09 1545.76,1205.07 1549,1209 1552.25,1212.89 1555.49,1216.73 1558.73,1220.53 1561.98,1224.28 1565.22,1227.98 1568.46,1231.64 1571.7,1235.26 1574.95,1238.82 1578.19,1242.34 1581.43,1245.81 1584.68,1249.24 1587.92,1252.61 1591.16,1255.94 1594.41,1259.21 1597.65,1262.44 1600.89,1265.62 1604.13,1268.75 1607.38,1271.82 1610.62,1274.85 1613.86,1277.83 1617.11,1280.75 1620.35,1283.62 1623.59,1286.45 1626.84,1289.21 1630.08,1291.93 1633.32,1294.6 1636.57,1297.21 1639.81,1299.76 1643.05,1302.27 1646.29,1304.72 1649.54,1307.12 1652.78,1309.46 1656.02,1311.75 1659.27,1313.98 1662.51,1316.16 1665.75,1318.28 1669,1320.35 1672.24,1322.37 1675.48,1324.32 1678.72,1326.23 1681.97,1328.07 1685.21,1329.86 1688.45,1331.59 1691.7,1333.27 1694.94,1334.89 1698.18,1336.45 1701.43,1337.95 1704.67,1339.4 1707.91,1340.79 1711.15,1342.13 1714.4,1343.4 1717.64,1344.62 1720.88,1345.78 1724.13,1346.88 1727.37,1347.92 1730.61,1348.91 1733.86,1349.84 1737.1,1350.7 1740.34,1351.51 1743.59,1352.27 1746.83,1352.96 1750.07,1353.59 1753.31,1354.17 1756.56,1354.68 1759.8,1355.14 1763.04,1355.54 1766.29,1355.88 1769.53,1356.16 1772.77,1356.38 1776.02,1356.54 1779.26,1356.64 1782.5,1356.69 1785.74,1356.67 1788.99,1356.6 1792.23,1356.46 1795.47,1356.27 1798.72,1356.02 1801.96,1355.71 1805.2,1355.34 1808.45,1354.91 1811.69,1354.42 1814.93,1353.87 1818.17,1353.27 1821.42,1352.6 1824.66,1351.88 1827.9,1351.1 1831.15,1350.26 1834.39,1349.36 1837.63,1348.4 1840.88,1347.39 1844.12,1346.31 1847.36,1345.18 1850.61,1343.99 1853.85,1342.74 1857.09,1341.44 1860.33,1340.07 1863.58,1338.65 1866.82,1337.18 1870.06,1335.64 1873.31,1334.05 1876.55,1332.4 1879.79,1330.69 1883.04,1328.93 1886.28,1327.11 1889.52,1325.24 1892.76,1323.31 1896.01,1321.32 1899.25,1319.28 1902.49,1317.18 1905.74,1315.03 1908.98,1312.82 1912.22,1310.56 1915.47,1308.24 1918.71,1305.87 1921.95,1303.45 1925.19,1300.97 1928.44,1298.44 1931.68,1295.85 1934.92,1293.21 1938.17,1290.52 1941.41,1287.78 1944.65,1284.98 1947.9,1282.13 1951.14,1279.23 1954.38,1276.28 1957.63,1273.28 1960.87,1270.22 1964.11,1267.12 1967.35,1263.97 1970.6,1260.76 1973.84,1257.51 1977.08,1254.21 1980.33,1250.85 1983.57,1247.45 1986.81,1244.01 1990.06,1240.51 1993.3,1236.97 1996.54,1233.38 1999.78,1229.74 2003.03,1226.05 2006.27,1222.32 2009.51,1218.55 2012.76,1214.73 2016,1210.86 2019.24,1206.95 2022.49,1203 2025.73,1199 2028.97,1194.96 2032.21,1190.87 2035.46,1186.74 2038.7,1182.57 2041.94,1178.36 2045.19,1174.11 2048.43,1169.82 2051.67,1165.48 2054.92,1161.11 2058.16,1156.7 2061.4,1152.24 2064.65,1147.75 2067.89,1143.22 2071.13,1138.66 2074.37,1134.05 2077.62,1129.41 2080.86,1124.73 2084.1,1120.02 2087.35,1115.27 2090.59,1110.49 2093.83,1105.67 2097.08,1100.82 2100.32,1095.93 2103.56,1091.01 2106.8,1086.06 2110.05,1081.07 2113.29,1076.06 2116.53,1071.01 2119.78,1065.93 2123.02,1060.83 2126.26,1055.69 2129.51,1050.53 2132.75,1045.33 2135.99,1040.11 2139.23,1034.86 2142.48,1029.58 2145.72,1024.28 2148.96,1018.95 2152.21,1013.6 2155.45,1008.22 2158.69,1002.81 2161.94,997.386 2165.18,991.936 2168.42,986.463 2171.67,980.968 2174.91,975.451 2178.15,969.914 2181.39,964.355 2184.64,958.777 2187.88,953.18 2191.12,947.564 2194.37,941.93 2197.61,936.278 2200.85,930.608 2204.1,924.923 2207.34,919.221 2210.58,913.504 2213.82,907.772 2217.07,902.026 2220.31,896.267 2223.55,890.494 2226.8,884.709 2230.04,878.912 2233.28,873.103 2236.53,867.284 2239.77,861.454 2243.01,855.615 2246.25,849.767 2249.5,843.91 2252.74,838.046 2255.98,832.174 2259.23,826.296 2262.47,820.411 2265.71,814.521 2268.96,808.626 2272.2,802.727 2275.44,796.824 2278.69,790.918 2281.93,785.01 2285.17,779.099 2288.41,773.187 2291.66,767.274 "/>
<circle clip-path="url(#clip882)" cx="650.684" cy="287.722" r="14.4" fill="#e26f46" fill-rule="evenodd" fill-opacity="1" stroke="#000000" stroke-opacity="1" stroke-width="3.2"/>
<circle clip-path="url(#clip882)" cx="2045.19" cy="1296.42" r="14.4" fill="#e26f46" fill-rule="evenodd" fill-opacity="1" stroke="#000000" stroke-opacity="1" stroke-width="3.2"/>
<circle clip-path="url(#clip882)" cx="1847.36" cy="1385.29" r="14.4" fill="#e26f46" fill-rule="evenodd" fill-opacity="1" stroke="#000000" stroke-opacity="1" stroke-width="3.2"/>
<circle clip-path="url(#clip882)" cx="1662.51" cy="1429.74" r="14.4" fill="#e26f46" fill-rule="evenodd" fill-opacity="1" stroke="#000000" stroke-opacity="1" stroke-width="3.2"/>
<circle clip-path="url(#clip882)" cx="764.19" cy="241.717" r="14.4" fill="#e26f46" fill-rule="evenodd" fill-opacity="1" stroke="#000000" stroke-opacity="1" stroke-width="3.2"/>
<circle clip-path="url(#clip882)" cx="1827.9" cy="1367.17" r="14.4" fill="#e26f46" fill-rule="evenodd" fill-opacity="1" stroke="#000000" stroke-opacity="1" stroke-width="3.2"/>
<circle clip-path="url(#clip882)" cx="1403.07" cy="1003.11" r="14.4" fill="#e26f46" fill-rule="evenodd" fill-opacity="1" stroke="#000000" stroke-opacity="1" stroke-width="3.2"/>
<circle clip-path="url(#clip882)" cx="1263.62" cy="793.178" r="14.4" fill="#e26f46" fill-rule="evenodd" fill-opacity="1" stroke="#000000" stroke-opacity="1" stroke-width="3.2"/>
<circle clip-path="url(#clip882)" cx="2009.51" cy="1355.37" r="14.4" fill="#e26f46" fill-rule="evenodd" fill-opacity="1" stroke="#000000" stroke-opacity="1" stroke-width="3.2"/>
<circle clip-path="url(#clip882)" cx="1542.52" cy="1327.8" r="14.4" fill="#e26f46" fill-rule="evenodd" fill-opacity="1" stroke="#000000" stroke-opacity="1" stroke-width="3.2"/>
<circle clip-path="url(#clip882)" cx="491.776" cy="487.611" r="14.4" fill="#e26f46" fill-rule="evenodd" fill-opacity="1" stroke="#000000" stroke-opacity="1" stroke-width="3.2"/>
<circle clip-path="url(#clip882)" cx="1406.31" cy="884.221" r="14.4" fill="#e26f46" fill-rule="evenodd" fill-opacity="1" stroke="#000000" stroke-opacity="1" stroke-width="3.2"/>
<circle clip-path="url(#clip882)" cx="689.601" cy="87.9763" r="14.4" fill="#e26f46" fill-rule="evenodd" fill-opacity="1" stroke="#000000" stroke-opacity="1" stroke-width="3.2"/>
<circle clip-path="url(#clip882)" cx="1704.67" cy="1197.1" r="14.4" fill="#e26f46" fill-rule="evenodd" fill-opacity="1" stroke="#000000" stroke-opacity="1" stroke-width="3.2"/>
<circle clip-path="url(#clip882)" cx="738.246" cy="205.249" r="14.4" fill="#e26f46" fill-rule="evenodd" fill-opacity="1" stroke="#000000" stroke-opacity="1" stroke-width="3.2"/>
<circle clip-path="url(#clip882)" cx="1652.78" cy="1445.72" r="14.4" fill="#e26f46" fill-rule="evenodd" fill-opacity="1" stroke="#000000" stroke-opacity="1" stroke-width="3.2"/>
<circle clip-path="url(#clip882)" cx="942.557" cy="338.764" r="14.4" fill="#e26f46" fill-rule="evenodd" fill-opacity="1" stroke="#000000" stroke-opacity="1" stroke-width="3.2"/>
<circle clip-path="url(#clip882)" cx="1075.52" cy="309.112" r="14.4" fill="#e26f46" fill-rule="evenodd" fill-opacity="1" stroke="#000000" stroke-opacity="1" stroke-width="3.2"/>
<circle clip-path="url(#clip882)" cx="1179.3" cy="587.218" r="14.4" fill="#e26f46" fill-rule="evenodd" fill-opacity="1" stroke="#000000" stroke-opacity="1" stroke-width="3.2"/>
<circle clip-path="url(#clip882)" cx="1581.43" cy="1171.28" r="14.4" fill="#e26f46" fill-rule="evenodd" fill-opacity="1" stroke="#000000" stroke-opacity="1" stroke-width="3.2"/>
<path clip-path="url(#clip880)" d="M1953.46 250.738 L2280.8 250.738 L2280.8 95.2176 L1953.46 95.2176  Z" fill="#ffffff" fill-rule="evenodd" fill-opacity="1"/>
<polyline clip-path="url(#clip880)" style="stroke:#000000; stroke-linecap:round; stroke-linejoin:round; stroke-width:4; stroke-opacity:1; fill:none" points="1953.46,250.738 2280.8,250.738 2280.8,95.2176 1953.46,95.2176 1953.46,250.738 "/>
<polyline clip-path="url(#clip880)" style="stroke:#009af9; stroke-linecap:round; stroke-linejoin:round; stroke-width:4; stroke-opacity:1; fill:none" points="1977.44,147.058 2121.36,147.058 "/>
<path clip-path="url(#clip880)" d="M2152.76 131.051 L2152.76 138.412 L2161.53 138.412 L2161.53 141.722 L2152.76 141.722 L2152.76 155.796 Q2152.76 158.967 2153.61 159.87 Q2154.49 160.773 2157.16 160.773 L2161.53 160.773 L2161.53 164.338 L2157.16 164.338 Q2152.23 164.338 2150.35 162.509 Q2148.48 160.657 2148.48 155.796 L2148.48 141.722 L2145.35 141.722 L2145.35 138.412 L2148.48 138.412 L2148.48 131.051 L2152.76 131.051 Z" fill="#000000" fill-rule="nonzero" fill-opacity="1" /><path clip-path="url(#clip880)" d="M2182.16 142.393 Q2181.44 141.977 2180.58 141.791 Q2179.75 141.583 2178.73 141.583 Q2175.12 141.583 2173.17 143.944 Q2171.25 146.282 2171.25 150.68 L2171.25 164.338 L2166.97 164.338 L2166.97 138.412 L2171.25 138.412 L2171.25 142.44 Q2172.6 140.078 2174.75 138.944 Q2176.9 137.787 2179.98 137.787 Q2180.42 137.787 2180.95 137.856 Q2181.48 137.903 2182.13 138.018 L2182.16 142.393 Z" fill="#000000" fill-rule="nonzero" fill-opacity="1" /><path clip-path="url(#clip880)" d="M2186.18 154.106 L2186.18 138.412 L2190.44 138.412 L2190.44 153.944 Q2190.44 157.625 2191.88 159.476 Q2193.31 161.305 2196.18 161.305 Q2199.63 161.305 2201.62 159.106 Q2203.64 156.907 2203.64 153.111 L2203.64 138.412 L2207.9 138.412 L2207.9 164.338 L2203.64 164.338 L2203.64 160.356 Q2202.09 162.717 2200.03 163.875 Q2197.99 165.009 2195.28 165.009 Q2190.81 165.009 2188.5 162.231 Q2186.18 159.453 2186.18 154.106 M2196.9 137.787 L2196.9 137.787 Z" fill="#000000" fill-rule="nonzero" fill-opacity="1" /><path clip-path="url(#clip880)" d="M2220.88 131.051 L2220.88 138.412 L2229.66 138.412 L2229.66 141.722 L2220.88 141.722 L2220.88 155.796 Q2220.88 158.967 2221.74 159.87 Q2222.62 160.773 2225.28 160.773 L2229.66 160.773 L2229.66 164.338 L2225.28 164.338 Q2220.35 164.338 2218.48 162.509 Q2216.6 160.657 2216.6 155.796 L2216.6 141.722 L2213.48 141.722 L2213.48 138.412 L2216.6 138.412 L2216.6 131.051 L2220.88 131.051 Z" fill="#000000" fill-rule="nonzero" fill-opacity="1" /><path clip-path="url(#clip880)" d="M2256.81 148.689 L2256.81 164.338 L2252.55 164.338 L2252.55 148.828 Q2252.55 145.148 2251.11 143.319 Q2249.68 141.49 2246.81 141.49 Q2243.36 141.49 2241.37 143.69 Q2239.38 145.889 2239.38 149.685 L2239.38 164.338 L2235.1 164.338 L2235.1 128.319 L2239.38 128.319 L2239.38 142.44 Q2240.91 140.102 2242.97 138.944 Q2245.05 137.787 2247.76 137.787 Q2252.23 137.787 2254.52 140.565 Q2256.81 143.319 2256.81 148.689 Z" fill="#000000" fill-rule="nonzero" fill-opacity="1" /><circle clip-path="url(#clip880)" cx="2049.4" cy="198.898" r="20.48" fill="#e26f46" fill-rule="evenodd" fill-opacity="1" stroke="#000000" stroke-opacity="1" stroke-width="4.55111"/>
<path clip-path="url(#clip880)" d="M2164.26 194.187 L2164.26 180.159 L2168.52 180.159 L2168.52 216.178 L2164.26 216.178 L2164.26 212.289 Q2162.92 214.603 2160.86 215.738 Q2158.82 216.849 2155.95 216.849 Q2151.25 216.849 2148.29 213.099 Q2145.35 209.349 2145.35 203.238 Q2145.35 197.127 2148.29 193.377 Q2151.25 189.627 2155.95 189.627 Q2158.82 189.627 2160.86 190.761 Q2162.92 191.872 2164.26 194.187 M2149.75 203.238 Q2149.75 207.937 2151.67 210.622 Q2153.61 213.284 2156.99 213.284 Q2160.37 213.284 2162.32 210.622 Q2164.26 207.937 2164.26 203.238 Q2164.26 198.539 2162.32 195.877 Q2160.37 193.192 2156.99 193.192 Q2153.61 193.192 2151.67 195.877 Q2149.75 198.539 2149.75 203.238 Z" fill="#000000" fill-rule="nonzero" fill-opacity="1" /><path clip-path="url(#clip880)" d="M2189.08 203.145 Q2183.92 203.145 2181.92 204.326 Q2179.93 205.506 2179.93 208.354 Q2179.93 210.622 2181.42 211.965 Q2182.92 213.284 2185.49 213.284 Q2189.03 213.284 2191.16 210.784 Q2193.31 208.261 2193.31 204.094 L2193.31 203.145 L2189.08 203.145 M2197.57 201.386 L2197.57 216.178 L2193.31 216.178 L2193.31 212.242 Q2191.85 214.603 2189.68 215.738 Q2187.5 216.849 2184.36 216.849 Q2180.37 216.849 2178.01 214.627 Q2175.67 212.381 2175.67 208.631 Q2175.67 204.256 2178.59 202.034 Q2181.53 199.812 2187.34 199.812 L2193.31 199.812 L2193.31 199.395 Q2193.31 196.455 2191.37 194.858 Q2189.45 193.238 2185.95 193.238 Q2183.73 193.238 2181.62 193.77 Q2179.52 194.303 2177.57 195.367 L2177.57 191.432 Q2179.91 190.53 2182.11 190.09 Q2184.31 189.627 2186.39 189.627 Q2192.02 189.627 2194.79 192.543 Q2197.57 195.46 2197.57 201.386 Z" fill="#000000" fill-rule="nonzero" fill-opacity="1" /><path clip-path="url(#clip880)" d="M2210.56 182.891 L2210.56 190.252 L2219.33 190.252 L2219.33 193.562 L2210.56 193.562 L2210.56 207.636 Q2210.56 210.807 2211.42 211.71 Q2212.29 212.613 2214.96 212.613 L2219.33 212.613 L2219.33 216.178 L2214.96 216.178 Q2210.03 216.178 2208.15 214.349 Q2206.28 212.497 2206.28 207.636 L2206.28 193.562 L2203.15 193.562 L2203.15 190.252 L2206.28 190.252 L2206.28 182.891 L2210.56 182.891 Z" fill="#000000" fill-rule="nonzero" fill-opacity="1" /><path clip-path="url(#clip880)" d="M2236.72 203.145 Q2231.55 203.145 2229.56 204.326 Q2227.57 205.506 2227.57 208.354 Q2227.57 210.622 2229.05 211.965 Q2230.56 213.284 2233.13 213.284 Q2236.67 213.284 2238.8 210.784 Q2240.95 208.261 2240.95 204.094 L2240.95 203.145 L2236.72 203.145 M2245.21 201.386 L2245.21 216.178 L2240.95 216.178 L2240.95 212.242 Q2239.49 214.603 2237.32 215.738 Q2235.14 216.849 2231.99 216.849 Q2228.01 216.849 2225.65 214.627 Q2223.31 212.381 2223.31 208.631 Q2223.31 204.256 2226.23 202.034 Q2229.17 199.812 2234.98 199.812 L2240.95 199.812 L2240.95 199.395 Q2240.95 196.455 2239.01 194.858 Q2237.09 193.238 2233.59 193.238 Q2231.37 193.238 2229.26 193.77 Q2227.16 194.303 2225.21 195.367 L2225.21 191.432 Q2227.55 190.53 2229.75 190.09 Q2231.95 189.627 2234.03 189.627 Q2239.66 189.627 2242.43 192.543 Q2245.21 195.46 2245.21 201.386 Z" fill="#000000" fill-rule="nonzero" fill-opacity="1" /></svg>
