<?xml version="1.0" encoding="utf-8"?>
<svg xmlns="http://www.w3.org/2000/svg" xmlns:xlink="http://www.w3.org/1999/xlink" width="600" height="400" viewBox="0 0 2400 1600">
<defs>
  <clipPath id="clip160">
    <rect x="0" y="0" width="2400" height="1600"/>
  </clipPath>
</defs>
<path clip-path="url(#clip160)" d="M0 1600 L2400 1600 L2400 0 L0 0  Z" fill="#ffffff" fill-rule="evenodd" fill-opacity="1"/>
<defs>
  <clipPath id="clip161">
    <rect x="480" y="0" width="1681" height="1600"/>
  </clipPath>
</defs>
<path clip-path="url(#clip160)" d="M193.936 1486.45 L2352.76 1486.45 L2352.76 47.2441 L193.936 47.2441  Z" fill="#ffffff" fill-rule="evenodd" fill-opacity="1"/>
<defs>
  <clipPath id="clip162">
    <rect x="193" y="47" width="2160" height="1440"/>
  </clipPath>
</defs>
<polyline clip-path="url(#clip162)" style="stroke:#000000; stroke-linecap:round; stroke-linejoin:round; stroke-width:2; stroke-opacity:0.1; fill:none" points="255.035,1486.45 255.035,47.2441 "/>
<polyline clip-path="url(#clip162)" style="stroke:#000000; stroke-linecap:round; stroke-linejoin:round; stroke-width:2; stroke-opacity:0.1; fill:none" points="579.338,1486.45 579.338,47.2441 "/>
<polyline clip-path="url(#clip162)" style="stroke:#000000; stroke-linecap:round; stroke-linejoin:round; stroke-width:2; stroke-opacity:0.1; fill:none" points="903.641,1486.45 903.641,47.2441 "/>
<polyline clip-path="url(#clip162)" style="stroke:#000000; stroke-linecap:round; stroke-linejoin:round; stroke-width:2; stroke-opacity:0.1; fill:none" points="1227.94,1486.45 1227.94,47.2441 "/>
<polyline clip-path="url(#clip162)" style="stroke:#000000; stroke-linecap:round; stroke-linejoin:round; stroke-width:2; stroke-opacity:0.1; fill:none" points="1552.25,1486.45 1552.25,47.2441 "/>
<polyline clip-path="url(#clip162)" style="stroke:#000000; stroke-linecap:round; stroke-linejoin:round; stroke-width:2; stroke-opacity:0.1; fill:none" points="1876.55,1486.45 1876.55,47.2441 "/>
<polyline clip-path="url(#clip162)" style="stroke:#000000; stroke-linecap:round; stroke-linejoin:round; stroke-width:2; stroke-opacity:0.1; fill:none" points="2200.85,1486.45 2200.85,47.2441 "/>
<polyline clip-path="url(#clip162)" style="stroke:#000000; stroke-linecap:round; stroke-linejoin:round; stroke-width:2; stroke-opacity:0.1; fill:none" points="193.936,1287.78 2352.76,1287.78 "/>
<polyline clip-path="url(#clip162)" style="stroke:#000000; stroke-linecap:round; stroke-linejoin:round; stroke-width:2; stroke-opacity:0.1; fill:none" points="193.936,1027.61 2352.76,1027.61 "/>
<polyline clip-path="url(#clip162)" style="stroke:#000000; stroke-linecap:round; stroke-linejoin:round; stroke-width:2; stroke-opacity:0.1; fill:none" points="193.936,767.432 2352.76,767.432 "/>
<polyline clip-path="url(#clip162)" style="stroke:#000000; stroke-linecap:round; stroke-linejoin:round; stroke-width:2; stroke-opacity:0.1; fill:none" points="193.936,507.258 2352.76,507.258 "/>
<polyline clip-path="url(#clip162)" style="stroke:#000000; stroke-linecap:round; stroke-linejoin:round; stroke-width:2; stroke-opacity:0.1; fill:none" points="193.936,247.084 2352.76,247.084 "/>
<polyline clip-path="url(#clip160)" style="stroke:#000000; stroke-linecap:round; stroke-linejoin:round; stroke-width:4; stroke-opacity:1; fill:none" points="193.936,1486.45 2352.76,1486.45 "/>
<polyline clip-path="url(#clip160)" style="stroke:#000000; stroke-linecap:round; stroke-linejoin:round; stroke-width:4; stroke-opacity:1; fill:none" points="255.035,1486.45 255.035,1467.55 "/>
<polyline clip-path="url(#clip160)" style="stroke:#000000; stroke-linecap:round; stroke-linejoin:round; stroke-width:4; stroke-opacity:1; fill:none" points="579.338,1486.45 579.338,1467.55 "/>
<polyline clip-path="url(#clip160)" style="stroke:#000000; stroke-linecap:round; stroke-linejoin:round; stroke-width:4; stroke-opacity:1; fill:none" points="903.641,1486.45 903.641,1467.55 "/>
<polyline clip-path="url(#clip160)" style="stroke:#000000; stroke-linecap:round; stroke-linejoin:round; stroke-width:4; stroke-opacity:1; fill:none" points="1227.94,1486.45 1227.94,1467.55 "/>
<polyline clip-path="url(#clip160)" style="stroke:#000000; stroke-linecap:round; stroke-linejoin:round; stroke-width:4; stroke-opacity:1; fill:none" points="1552.25,1486.45 1552.25,1467.55 "/>
<polyline clip-path="url(#clip160)" style="stroke:#000000; stroke-linecap:round; stroke-linejoin:round; stroke-width:4; stroke-opacity:1; fill:none" points="1876.55,1486.45 1876.55,1467.55 "/>
<polyline clip-path="url(#clip160)" style="stroke:#000000; stroke-linecap:round; stroke-linejoin:round; stroke-width:4; stroke-opacity:1; fill:none" points="2200.85,1486.45 2200.85,1467.55 "/>
<path clip-path="url(#clip160)" d="M255.035 1517.37 Q251.424 1517.37 249.595 1520.93 Q247.789 1524.47 247.789 1531.6 Q247.789 1538.71 249.595 1542.27 Q251.424 1545.82 255.035 1545.82 Q258.669 1545.82 260.474 1542.27 Q262.303 1538.71 262.303 1531.6 Q262.303 1524.47 260.474 1520.93 Q258.669 1517.37 255.035 1517.37 M255.035 1513.66 Q260.845 1513.66 263.9 1518.27 Q266.979 1522.85 266.979 1531.6 Q266.979 1540.33 263.9 1544.94 Q260.845 1549.52 255.035 1549.52 Q249.225 1549.52 246.146 1544.94 Q243.09 1540.33 243.09 1531.6 Q243.09 1522.85 246.146 1518.27 Q249.225 1513.66 255.035 1513.66 Z" fill="#000000" fill-rule="nonzero" fill-opacity="1" /><path clip-path="url(#clip160)" d="M569.72 1544.91 L577.358 1544.91 L577.358 1518.55 L569.048 1520.21 L569.048 1515.95 L577.312 1514.29 L581.988 1514.29 L581.988 1544.91 L589.627 1544.91 L589.627 1548.85 L569.72 1548.85 L569.72 1544.91 Z" fill="#000000" fill-rule="nonzero" fill-opacity="1" /><path clip-path="url(#clip160)" d="M898.293 1544.91 L914.613 1544.91 L914.613 1548.85 L892.668 1548.85 L892.668 1544.91 Q895.33 1542.16 899.914 1537.53 Q904.52 1532.88 905.701 1531.53 Q907.946 1529.01 908.826 1527.27 Q909.729 1525.51 909.729 1523.82 Q909.729 1521.07 907.784 1519.33 Q905.863 1517.6 902.761 1517.6 Q900.562 1517.6 898.108 1518.36 Q895.678 1519.13 892.9 1520.68 L892.9 1515.95 Q895.724 1514.82 898.178 1514.24 Q900.631 1513.66 902.668 1513.66 Q908.039 1513.66 911.233 1516.35 Q914.428 1519.03 914.428 1523.52 Q914.428 1525.65 913.617 1527.57 Q912.83 1529.47 910.724 1532.07 Q910.145 1532.74 907.043 1535.95 Q903.942 1539.15 898.293 1544.91 Z" fill="#000000" fill-rule="nonzero" fill-opacity="1" /><path clip-path="url(#clip160)" d="M1232.19 1530.21 Q1235.55 1530.93 1237.42 1533.2 Q1239.32 1535.47 1239.32 1538.8 Q1239.32 1543.92 1235.8 1546.72 Q1232.28 1549.52 1225.8 1549.52 Q1223.63 1549.52 1221.31 1549.08 Q1219.02 1548.66 1216.57 1547.81 L1216.57 1543.29 Q1218.51 1544.43 1220.83 1545.01 Q1223.14 1545.58 1225.66 1545.58 Q1230.06 1545.58 1232.35 1543.85 Q1234.67 1542.11 1234.67 1538.8 Q1234.67 1535.75 1232.52 1534.03 Q1230.39 1532.3 1226.57 1532.3 L1222.54 1532.3 L1222.54 1528.45 L1226.75 1528.45 Q1230.2 1528.45 1232.03 1527.09 Q1233.86 1525.7 1233.86 1523.11 Q1233.86 1520.45 1231.96 1519.03 Q1230.08 1517.6 1226.57 1517.6 Q1224.64 1517.6 1222.45 1518.01 Q1220.25 1518.43 1217.61 1519.31 L1217.61 1515.14 Q1220.27 1514.4 1222.58 1514.03 Q1224.92 1513.66 1226.98 1513.66 Q1232.31 1513.66 1235.41 1516.09 Q1238.51 1518.5 1238.51 1522.62 Q1238.51 1525.49 1236.87 1527.48 Q1235.22 1529.45 1232.19 1530.21 Z" fill="#000000" fill-rule="nonzero" fill-opacity="1" /><path clip-path="url(#clip160)" d="M1555.26 1518.36 L1543.45 1536.81 L1555.26 1536.81 L1555.26 1518.36 M1554.03 1514.29 L1559.91 1514.29 L1559.91 1536.81 L1564.84 1536.81 L1564.84 1540.7 L1559.91 1540.7 L1559.91 1548.85 L1555.26 1548.85 L1555.26 1540.7 L1539.65 1540.7 L1539.65 1536.19 L1554.03 1514.29 Z" fill="#000000" fill-rule="nonzero" fill-opacity="1" /><path clip-path="url(#clip160)" d="M1866.83 1514.29 L1885.18 1514.29 L1885.18 1518.22 L1871.11 1518.22 L1871.11 1526.7 Q1872.13 1526.35 1873.15 1526.19 Q1874.17 1526 1875.18 1526 Q1880.97 1526 1884.35 1529.17 Q1887.73 1532.34 1887.73 1537.76 Q1887.73 1543.34 1884.26 1546.44 Q1880.79 1549.52 1874.47 1549.52 Q1872.29 1549.52 1870.02 1549.15 Q1867.78 1548.78 1865.37 1548.04 L1865.37 1543.34 Q1867.45 1544.47 1869.67 1545.03 Q1871.9 1545.58 1874.37 1545.58 Q1878.38 1545.58 1880.72 1543.48 Q1883.05 1541.37 1883.05 1537.76 Q1883.05 1534.15 1880.72 1532.04 Q1878.38 1529.94 1874.37 1529.94 Q1872.5 1529.94 1870.62 1530.35 Q1868.77 1530.77 1866.83 1531.65 L1866.83 1514.29 Z" fill="#000000" fill-rule="nonzero" fill-opacity="1" /><path clip-path="url(#clip160)" d="M2201.26 1529.7 Q2198.11 1529.7 2196.26 1531.86 Q2194.43 1534.01 2194.43 1537.76 Q2194.43 1541.49 2196.26 1543.66 Q2198.11 1545.82 2201.26 1545.82 Q2204.41 1545.82 2206.23 1543.66 Q2208.09 1541.49 2208.09 1537.76 Q2208.09 1534.01 2206.23 1531.86 Q2204.41 1529.7 2201.26 1529.7 M2210.54 1515.05 L2210.54 1519.31 Q2208.78 1518.48 2206.98 1518.04 Q2205.19 1517.6 2203.43 1517.6 Q2198.8 1517.6 2196.35 1520.72 Q2193.92 1523.85 2193.57 1530.17 Q2194.94 1528.15 2197 1527.09 Q2199.06 1526 2201.54 1526 Q2206.74 1526 2209.75 1529.17 Q2212.79 1532.32 2212.79 1537.76 Q2212.79 1543.08 2209.64 1546.3 Q2206.49 1549.52 2201.26 1549.52 Q2195.26 1549.52 2192.09 1544.94 Q2188.92 1540.33 2188.92 1531.6 Q2188.92 1523.41 2192.81 1518.55 Q2196.7 1513.66 2203.25 1513.66 Q2205.01 1513.66 2206.79 1514.01 Q2208.6 1514.36 2210.54 1515.05 Z" fill="#000000" fill-rule="nonzero" fill-opacity="1" /><polyline clip-path="url(#clip160)" style="stroke:#000000; stroke-linecap:round; stroke-linejoin:round; stroke-width:4; stroke-opacity:1; fill:none" points="193.936,1486.45 193.936,47.2441 "/>
<polyline clip-path="url(#clip160)" style="stroke:#000000; stroke-linecap:round; stroke-linejoin:round; stroke-width:4; stroke-opacity:1; fill:none" points="193.936,1287.78 212.834,1287.78 "/>
<polyline clip-path="url(#clip160)" style="stroke:#000000; stroke-linecap:round; stroke-linejoin:round; stroke-width:4; stroke-opacity:1; fill:none" points="193.936,1027.61 212.834,1027.61 "/>
<polyline clip-path="url(#clip160)" style="stroke:#000000; stroke-linecap:round; stroke-linejoin:round; stroke-width:4; stroke-opacity:1; fill:none" points="193.936,767.432 212.834,767.432 "/>
<polyline clip-path="url(#clip160)" style="stroke:#000000; stroke-linecap:round; stroke-linejoin:round; stroke-width:4; stroke-opacity:1; fill:none" points="193.936,507.258 212.834,507.258 "/>
<polyline clip-path="url(#clip160)" style="stroke:#000000; stroke-linecap:round; stroke-linejoin:round; stroke-width:4; stroke-opacity:1; fill:none" points="193.936,247.084 212.834,247.084 "/>
<path clip-path="url(#clip160)" d="M50.9921 1288.23 L80.6679 1288.23 L80.6679 1292.17 L50.9921 1292.17 L50.9921 1288.23 Z" fill="#000000" fill-rule="nonzero" fill-opacity="1" /><path clip-path="url(#clip160)" d="M91.5706 1301.13 L99.2095 1301.13 L99.2095 1274.76 L90.8993 1276.43 L90.8993 1272.17 L99.1632 1270.5 L103.839 1270.5 L103.839 1301.13 L111.478 1301.13 L111.478 1305.06 L91.5706 1305.06 L91.5706 1301.13 Z" fill="#000000" fill-rule="nonzero" fill-opacity="1" /><path clip-path="url(#clip160)" d="M120.922 1299.18 L125.807 1299.18 L125.807 1305.06 L120.922 1305.06 L120.922 1299.18 Z" fill="#000000" fill-rule="nonzero" fill-opacity="1" /><path clip-path="url(#clip160)" d="M145.992 1273.58 Q142.381 1273.58 140.552 1277.14 Q138.746 1280.69 138.746 1287.82 Q138.746 1294.92 140.552 1298.49 Q142.381 1302.03 145.992 1302.03 Q149.626 1302.03 151.431 1298.49 Q153.26 1294.92 153.26 1287.82 Q153.26 1280.69 151.431 1277.14 Q149.626 1273.58 145.992 1273.58 M145.992 1269.88 Q151.802 1269.88 154.857 1274.48 Q157.936 1279.07 157.936 1287.82 Q157.936 1296.54 154.857 1301.15 Q151.802 1305.73 145.992 1305.73 Q140.181 1305.73 137.103 1301.15 Q134.047 1296.54 134.047 1287.82 Q134.047 1279.07 137.103 1274.48 Q140.181 1269.88 145.992 1269.88 Z" fill="#000000" fill-rule="nonzero" fill-opacity="1" /><path clip-path="url(#clip160)" d="M51.9875 1028.06 L81.6633 1028.06 L81.6633 1031.99 L51.9875 1031.99 L51.9875 1028.06 Z" fill="#000000" fill-rule="nonzero" fill-opacity="1" /><path clip-path="url(#clip160)" d="M101.756 1013.41 Q98.1447 1013.41 96.316 1016.97 Q94.5104 1020.51 94.5104 1027.64 Q94.5104 1034.75 96.316 1038.31 Q98.1447 1041.85 101.756 1041.85 Q105.39 1041.85 107.196 1038.31 Q109.024 1034.75 109.024 1027.64 Q109.024 1020.51 107.196 1016.97 Q105.39 1013.41 101.756 1013.41 M101.756 1009.7 Q107.566 1009.7 110.621 1014.31 Q113.7 1018.89 113.7 1027.64 Q113.7 1036.37 110.621 1040.97 Q107.566 1045.56 101.756 1045.56 Q95.9456 1045.56 92.8669 1040.97 Q89.8114 1036.37 89.8114 1027.64 Q89.8114 1018.89 92.8669 1014.31 Q95.9456 1009.7 101.756 1009.7 Z" fill="#000000" fill-rule="nonzero" fill-opacity="1" /><path clip-path="url(#clip160)" d="M121.918 1039.01 L126.802 1039.01 L126.802 1044.89 L121.918 1044.89 L121.918 1039.01 Z" fill="#000000" fill-rule="nonzero" fill-opacity="1" /><path clip-path="url(#clip160)" d="M137.033 1010.33 L155.39 1010.33 L155.39 1014.26 L141.316 1014.26 L141.316 1022.73 Q142.334 1022.39 143.353 1022.22 Q144.371 1022.04 145.39 1022.04 Q151.177 1022.04 154.556 1025.21 Q157.936 1028.38 157.936 1033.8 Q157.936 1039.38 154.464 1042.48 Q150.992 1045.56 144.672 1045.56 Q142.496 1045.56 140.228 1045.19 Q137.982 1044.82 135.575 1044.08 L135.575 1039.38 Q137.658 1040.51 139.881 1041.07 Q142.103 1041.62 144.58 1041.62 Q148.584 1041.62 150.922 1039.52 Q153.26 1037.41 153.26 1033.8 Q153.26 1030.19 150.922 1028.08 Q148.584 1025.97 144.58 1025.97 Q142.705 1025.97 140.83 1026.39 Q138.978 1026.81 137.033 1027.69 L137.033 1010.33 Z" fill="#000000" fill-rule="nonzero" fill-opacity="1" /><path clip-path="url(#clip160)" d="M100.76 753.231 Q97.1493 753.231 95.3206 756.796 Q93.515 760.337 93.515 767.467 Q93.515 774.573 95.3206 778.138 Q97.1493 781.68 100.76 781.68 Q104.395 781.68 106.2 778.138 Q108.029 774.573 108.029 767.467 Q108.029 760.337 106.2 756.796 Q104.395 753.231 100.76 753.231 M100.76 749.527 Q106.571 749.527 109.626 754.134 Q112.705 758.717 112.705 767.467 Q112.705 776.194 109.626 780.8 Q106.571 785.384 100.76 785.384 Q94.9502 785.384 91.8715 780.8 Q88.816 776.194 88.816 767.467 Q88.816 758.717 91.8715 754.134 Q94.9502 749.527 100.76 749.527 Z" fill="#000000" fill-rule="nonzero" fill-opacity="1" /><path clip-path="url(#clip160)" d="M120.922 778.833 L125.807 778.833 L125.807 784.712 L120.922 784.712 L120.922 778.833 Z" fill="#000000" fill-rule="nonzero" fill-opacity="1" /><path clip-path="url(#clip160)" d="M145.992 753.231 Q142.381 753.231 140.552 756.796 Q138.746 760.337 138.746 767.467 Q138.746 774.573 140.552 778.138 Q142.381 781.68 145.992 781.68 Q149.626 781.68 151.431 778.138 Q153.26 774.573 153.26 767.467 Q153.26 760.337 151.431 756.796 Q149.626 753.231 145.992 753.231 M145.992 749.527 Q151.802 749.527 154.857 754.134 Q157.936 758.717 157.936 767.467 Q157.936 776.194 154.857 780.8 Q151.802 785.384 145.992 785.384 Q140.181 785.384 137.103 780.8 Q134.047 776.194 134.047 767.467 Q134.047 758.717 137.103 754.134 Q140.181 749.527 145.992 749.527 Z" fill="#000000" fill-rule="nonzero" fill-opacity="1" /><path clip-path="url(#clip160)" d="M101.756 493.057 Q98.1447 493.057 96.316 496.622 Q94.5104 500.163 94.5104 507.293 Q94.5104 514.399 96.316 517.964 Q98.1447 521.506 101.756 521.506 Q105.39 521.506 107.196 517.964 Q109.024 514.399 109.024 507.293 Q109.024 500.163 107.196 496.622 Q105.39 493.057 101.756 493.057 M101.756 489.353 Q107.566 489.353 110.621 493.96 Q113.7 498.543 113.7 507.293 Q113.7 516.02 110.621 520.626 Q107.566 525.209 101.756 525.209 Q95.9456 525.209 92.8669 520.626 Q89.8114 516.02 89.8114 507.293 Q89.8114 498.543 92.8669 493.96 Q95.9456 489.353 101.756 489.353 Z" fill="#000000" fill-rule="nonzero" fill-opacity="1" /><path clip-path="url(#clip160)" d="M121.918 518.659 L126.802 518.659 L126.802 524.538 L121.918 524.538 L121.918 518.659 Z" fill="#000000" fill-rule="nonzero" fill-opacity="1" /><path clip-path="url(#clip160)" d="M137.033 489.978 L155.39 489.978 L155.39 493.913 L141.316 493.913 L141.316 502.385 Q142.334 502.038 143.353 501.876 Q144.371 501.691 145.39 501.691 Q151.177 501.691 154.556 504.862 Q157.936 508.034 157.936 513.45 Q157.936 519.029 154.464 522.131 Q150.992 525.209 144.672 525.209 Q142.496 525.209 140.228 524.839 Q137.982 524.469 135.575 523.728 L135.575 519.029 Q137.658 520.163 139.881 520.719 Q142.103 521.274 144.58 521.274 Q148.584 521.274 150.922 519.168 Q153.26 517.061 153.26 513.45 Q153.26 509.839 150.922 507.733 Q148.584 505.626 144.58 505.626 Q142.705 505.626 140.83 506.043 Q138.978 506.46 137.033 507.339 L137.033 489.978 Z" fill="#000000" fill-rule="nonzero" fill-opacity="1" /><path clip-path="url(#clip160)" d="M91.5706 260.429 L99.2095 260.429 L99.2095 234.063 L90.8993 235.73 L90.8993 231.471 L99.1632 229.804 L103.839 229.804 L103.839 260.429 L111.478 260.429 L111.478 264.364 L91.5706 264.364 L91.5706 260.429 Z" fill="#000000" fill-rule="nonzero" fill-opacity="1" /><path clip-path="url(#clip160)" d="M120.922 258.484 L125.807 258.484 L125.807 264.364 L120.922 264.364 L120.922 258.484 Z" fill="#000000" fill-rule="nonzero" fill-opacity="1" /><path clip-path="url(#clip160)" d="M145.992 232.883 Q142.381 232.883 140.552 236.447 Q138.746 239.989 138.746 247.119 Q138.746 254.225 140.552 257.79 Q142.381 261.332 145.992 261.332 Q149.626 261.332 151.431 257.79 Q153.26 254.225 153.26 247.119 Q153.26 239.989 151.431 236.447 Q149.626 232.883 145.992 232.883 M145.992 229.179 Q151.802 229.179 154.857 233.785 Q157.936 238.369 157.936 247.119 Q157.936 255.845 154.857 260.452 Q151.802 265.035 145.992 265.035 Q140.181 265.035 137.103 260.452 Q134.047 255.845 134.047 247.119 Q134.047 238.369 137.103 233.785 Q140.181 229.179 145.992 229.179 Z" fill="#000000" fill-rule="nonzero" fill-opacity="1" /><polyline clip-path="url(#clip162)" style="stroke:#009af9; stroke-linecap:round; stroke-linejoin:round; stroke-width:4; stroke-opacity:1; fill:none" points="255.035,767.432 258.278,762.229 261.521,757.026 264.764,751.824 268.007,746.624 271.25,741.426 274.493,736.23 277.736,731.038 280.979,725.849 284.222,720.664 287.465,715.484 290.708,710.309 293.951,705.14 297.194,699.977 300.437,694.821 303.68,689.672 306.923,684.531 310.166,679.399 313.409,674.275 316.652,669.16 319.895,664.055 323.138,658.961 326.381,653.877 329.624,648.805 332.867,643.744 336.11,638.696 339.353,633.661 342.596,628.639 345.84,623.631 349.083,618.638 352.326,613.659 355.569,608.696 358.812,603.748 362.055,598.817 365.298,593.903 368.541,589.006 371.784,584.127 375.027,579.266 378.27,574.424 381.513,569.602 384.756,564.799 387.999,560.017 391.242,555.255 394.485,550.514 397.728,545.795 400.971,541.099 404.214,536.425 407.457,531.774 410.7,527.146 413.943,522.543 417.186,517.964 420.429,513.41 423.672,508.882 426.915,504.379 430.158,499.902 433.401,495.453 436.644,491.03 439.887,486.636 443.13,482.269 446.373,477.931 449.616,473.622 452.859,469.342 456.103,465.092 459.346,460.872 462.589,456.683 465.832,452.525 469.075,448.398 472.318,444.303 475.561,440.241 478.804,436.211 482.047,432.215 485.29,428.252 488.533,424.323 491.776,420.428 495.019,416.568 498.262,412.743 501.505,408.953 504.748,405.199 507.991,401.482 511.234,397.801 514.477,394.157 517.72,390.551 520.963,386.982 524.206,383.451 527.449,379.958 530.692,376.505 533.935,373.09 537.178,369.715 540.421,366.38 543.664,363.084 546.907,359.829 550.15,356.615 553.393,353.442 556.636,350.311 559.879,347.221 563.122,344.173 566.366,341.167 569.609,338.204 572.852,335.284 576.095,332.408 579.338,329.574 582.581,326.785 585.824,324.039 589.067,321.338 592.31,318.682 595.553,316.07 598.796,313.504 602.039,310.982 605.282,308.507 608.525,306.077 611.768,303.694 615.011,301.357 618.254,299.066 621.497,296.823 624.74,294.626 627.983,292.477 631.226,290.375 634.469,288.321 637.712,286.315 640.955,284.357 644.198,282.447 647.441,280.586 650.684,278.773 653.927,277.01 657.17,275.295 660.413,273.63 663.656,272.014 666.899,270.447 670.142,268.93 673.385,267.463 676.629,266.046 679.872,264.68 683.115,263.363 686.358,262.097 689.601,260.881 692.844,259.716 696.087,258.602 699.33,257.539 702.573,256.526 705.816,255.565 709.059,254.655 712.302,253.796 715.545,252.989 718.788,252.233 722.031,251.529 725.274,250.876 728.517,250.274 731.76,249.725 735.003,249.227 738.246,248.781 741.489,248.387 744.732,248.045 747.975,247.755 751.218,247.517 754.461,247.331 757.704,247.196 760.947,247.114 764.19,247.084 767.433,247.106 770.676,247.18 773.919,247.306 777.162,247.484 780.405,247.714 783.648,247.996 786.892,248.329 790.135,248.715 793.378,249.153 796.621,249.642 799.864,250.184 803.107,250.776 806.35,251.421 809.593,252.117 812.836,252.865 816.079,253.664 819.322,254.515 822.565,255.417 825.808,256.37 829.051,257.374 832.294,258.429 835.537,259.535 838.78,260.692 842.023,261.9 845.266,263.158 848.509,264.466 851.752,265.825 854.995,267.234 858.238,268.693 861.481,270.202 864.724,271.761 867.967,273.369 871.21,275.027 874.453,276.733 877.696,278.489 880.939,280.294 884.182,282.148 887.425,284.05 890.668,286 893.911,287.998 897.155,290.045 900.398,292.139 903.641,294.281 906.884,296.47 910.127,298.706 913.37,300.989 916.613,303.319 919.856,305.695 923.099,308.117 926.342,310.585 929.585,313.099 932.828,315.658 936.071,318.263 939.314,320.912 942.557,323.606 945.8,326.345 949.043,329.127 952.286,331.953 955.529,334.823 958.772,337.736 962.015,340.693 965.258,343.691 968.501,346.732 971.744,349.816 974.987,352.941 978.23,356.107 981.473,359.315 984.716,362.563 987.959,365.852 991.202,369.181 994.445,372.55 997.688,375.958 1000.93,379.406 1004.17,382.892 1007.42,386.417 1010.66,389.98 1013.9,393.58 1017.15,397.218 1020.39,400.893 1023.63,404.605 1026.88,408.353 1030.12,412.137 1033.36,415.956 1036.6,419.811 1039.85,423.7 1043.09,427.624 1046.33,431.581 1049.58,435.572 1052.82,439.597 1056.06,443.654 1059.31,447.744 1062.55,451.865 1065.79,456.018 1069.04,460.203 1072.28,464.417 1075.52,468.663 1078.76,472.938 1082.01,477.242 1085.25,481.576 1088.49,485.938 1091.74,490.329 1094.98,494.747 1098.22,499.192 1101.47,503.664 1104.71,508.163 1107.95,512.687 1111.19,517.237 1114.44,521.812 1117.68,526.411 1120.92,531.035 1124.17,535.682 1127.41,540.353 1130.65,545.046 1133.9,549.761 1137.14,554.498 1140.38,559.257 1143.62,564.036 1146.87,568.836 1150.11,573.655 1153.35,578.494 1156.6,583.352 1159.84,588.228 1163.08,593.122 1166.33,598.033 1169.57,602.962 1172.81,607.907 1176.06,612.867 1179.3,617.844 1182.54,622.835 1185.78,627.84 1189.03,632.86 1192.27,637.893 1195.51,642.939 1198.76,647.998 1202,653.068 1205.24,658.15 1208.49,663.243 1211.73,668.346 1214.97,673.459 1218.21,678.582 1221.46,683.713 1224.7,688.853 1227.94,694.001 1231.19,699.156 1234.43,704.318 1237.67,709.486 1240.92,714.66 1244.16,719.839 1247.4,725.023 1250.64,730.211 1253.89,735.403 1257.13,740.598 1260.37,745.796 1263.62,750.996 1266.86,756.197 1270.1,761.4 1273.35,766.604 1276.59,771.807 1279.83,777.01 1283.08,782.212 1286.32,787.413 1289.56,792.611 1292.8,797.807 1296.05,803 1299.29,808.19 1302.53,813.375 1305.78,818.556 1309.02,823.731 1312.26,828.902 1315.51,834.065 1318.75,839.223 1321.99,844.373 1325.23,849.515 1328.48,854.649 1331.72,859.775 1334.96,864.891 1338.21,869.997 1341.45,875.093 1344.69,880.179 1347.94,885.253 1351.18,890.315 1354.42,895.365 1357.66,900.403 1360.91,905.427 1364.15,910.437 1367.39,915.433 1370.64,920.414 1373.88,925.38 1377.12,930.33 1380.37,935.263 1383.61,940.18 1386.85,945.08 1390.1,949.962 1393.34,954.825 1396.58,959.67 1399.82,964.496 1403.07,969.302 1406.31,974.088 1409.55,978.853 1412.8,983.597 1416.04,988.319 1419.28,993.019 1422.53,997.697 1425.77,1002.35 1429.01,1006.98 1432.25,1011.59 1435.5,1016.17 1438.74,1020.73 1441.98,1025.26 1445.23,1029.77 1448.47,1034.25 1451.71,1038.7 1454.96,1043.13 1458.2,1047.53 1461.44,1051.9 1464.68,1056.24 1467.93,1060.56 1471.17,1064.84 1474.41,1069.1 1477.66,1073.32 1480.9,1077.52 1484.14,1081.68 1487.39,1085.81 1490.63,1089.91 1493.87,1093.98 1497.11,1098.01 1500.36,1102.02 1503.6,1105.98 1506.84,1109.92 1510.09,1113.82 1513.33,1117.68 1516.57,1121.52 1519.82,1125.31 1523.06,1129.07 1526.3,1132.79 1529.55,1136.48 1532.79,1140.13 1536.03,1143.74 1539.27,1147.32 1542.52,1150.85 1545.76,1154.35 1549,1157.81 1552.25,1161.23 1555.49,1164.61 1558.73,1167.96 1561.98,1171.26 1565.22,1174.52 1568.46,1177.74 1571.7,1180.92 1574.95,1184.06 1578.19,1187.15 1581.43,1190.21 1584.68,1193.22 1587.92,1196.19 1591.16,1199.12 1594.41,1202 1597.65,1204.84 1600.89,1207.64 1604.13,1210.39 1607.38,1213.1 1610.62,1215.76 1613.86,1218.38 1617.11,1220.96 1620.35,1223.48 1623.59,1225.97 1626.84,1228.4 1630.08,1230.79 1633.32,1233.14 1636.57,1235.44 1639.81,1237.69 1643.05,1239.89 1646.29,1242.05 1649.54,1244.16 1652.78,1246.22 1656.02,1248.23 1659.27,1250.2 1662.51,1252.12 1665.75,1253.99 1669,1255.81 1672.24,1257.58 1675.48,1259.3 1678.72,1260.97 1681.97,1262.6 1685.21,1264.17 1688.45,1265.7 1691.7,1267.17 1694.94,1268.6 1698.18,1269.97 1701.43,1271.3 1704.67,1272.57 1707.91,1273.79 1711.15,1274.97 1714.4,1276.09 1717.64,1277.16 1720.88,1278.18 1724.13,1279.15 1727.37,1280.07 1730.61,1280.93 1733.86,1281.75 1737.1,1282.51 1740.34,1283.23 1743.59,1283.89 1746.83,1284.5 1750.07,1285.06 1753.31,1285.56 1756.56,1286.02 1759.8,1286.42 1763.04,1286.77 1766.29,1287.07 1769.53,1287.31 1772.77,1287.51 1776.02,1287.65 1779.26,1287.74 1782.5,1287.78 1785.74,1287.77 1788.99,1287.7 1792.23,1287.58 1795.47,1287.41 1798.72,1287.19 1801.96,1286.92 1805.2,1286.59 1808.45,1286.21 1811.69,1285.78 1814.93,1285.3 1818.17,1284.77 1821.42,1284.19 1824.66,1283.55 1827.9,1282.86 1831.15,1282.12 1834.39,1281.33 1837.63,1280.49 1840.88,1279.59 1844.12,1278.65 1847.36,1277.65 1850.61,1276.61 1853.85,1275.51 1857.09,1274.36 1860.33,1273.16 1863.58,1271.91 1866.82,1270.61 1870.06,1269.26 1873.31,1267.86 1876.55,1266.41 1879.79,1264.91 1883.04,1263.36 1886.28,1261.76 1889.52,1260.11 1892.76,1258.41 1896.01,1256.66 1899.25,1254.86 1902.49,1253.02 1905.74,1251.12 1908.98,1249.18 1912.22,1247.19 1915.47,1245.15 1918.71,1243.06 1921.95,1240.93 1925.19,1238.75 1928.44,1236.52 1931.68,1234.24 1934.92,1231.92 1938.17,1229.55 1941.41,1227.14 1944.65,1224.68 1947.9,1222.17 1951.14,1219.62 1954.38,1217.02 1957.63,1214.38 1960.87,1211.69 1964.11,1208.96 1967.35,1206.18 1970.6,1203.36 1973.84,1200.5 1977.08,1197.6 1980.33,1194.65 1983.57,1191.65 1986.81,1188.62 1990.06,1185.54 1993.3,1182.42 1996.54,1179.26 1999.78,1176.06 2003.03,1172.82 2006.27,1169.54 2009.51,1166.22 2012.76,1162.85 2016,1159.45 2019.24,1156.01 2022.49,1152.53 2025.73,1149.01 2028.97,1145.45 2032.21,1141.86 2035.46,1138.23 2038.7,1134.56 2041.94,1130.85 2045.19,1127.11 2048.43,1123.33 2051.67,1119.52 2054.92,1115.67 2058.16,1111.79 2061.4,1107.87 2064.65,1103.92 2067.89,1099.93 2071.13,1095.91 2074.37,1091.86 2077.62,1087.77 2080.86,1083.66 2084.1,1079.51 2087.35,1075.33 2090.59,1071.12 2093.83,1066.88 2097.08,1062.61 2100.32,1058.31 2103.56,1053.98 2106.8,1049.62 2110.05,1045.24 2113.29,1040.82 2116.53,1036.38 2119.78,1031.91 2123.02,1027.42 2126.26,1022.9 2129.51,1018.35 2132.75,1013.78 2135.99,1009.19 2139.23,1004.57 2142.48,999.924 2145.72,995.257 2148.96,990.568 2152.21,985.856 2155.45,981.122 2158.69,976.367 2161.94,971.591 2165.18,966.795 2168.42,961.978 2171.67,957.143 2174.91,952.288 2178.15,947.415 2181.39,942.523 2184.64,937.615 2187.88,932.689 2191.12,927.747 2194.37,922.788 2197.61,917.815 2200.85,912.826 2204.1,907.822 2207.34,902.805 2210.58,897.774 2213.82,892.73 2217.07,887.673 2220.31,882.605 2223.55,877.525 2226.8,872.433 2230.04,867.332 2233.28,862.22 2236.53,857.099 2239.77,851.969 2243.01,846.831 2246.25,841.684 2249.5,836.53 2252.74,831.37 2255.98,826.202 2259.23,821.029 2262.47,815.851 2265.71,810.668 2268.96,805.48 2272.2,800.289 2275.44,795.094 2278.69,789.897 2281.93,784.697 2285.17,779.496 2288.41,774.293 2291.66,769.09 "/>
<circle clip-path="url(#clip162)" cx="1685.21" cy="1238.66" r="14.4" fill="#e26f46" fill-rule="evenodd" fill-opacity="1" stroke="#000000" stroke-opacity="1" stroke-width="3.2"/>
<circle clip-path="url(#clip162)" cx="1370.64" cy="925.424" r="14.4" fill="#e26f46" fill-rule="evenodd" fill-opacity="1" stroke="#000000" stroke-opacity="1" stroke-width="3.2"/>
<circle clip-path="url(#clip162)" cx="1526.3" cy="1041.56" r="14.4" fill="#e26f46" fill-rule="evenodd" fill-opacity="1" stroke="#000000" stroke-opacity="1" stroke-width="3.2"/>
<circle clip-path="url(#clip162)" cx="598.796" cy="304.8" r="14.4" fill="#e26f46" fill-rule="evenodd" fill-opacity="1" stroke="#000000" stroke-opacity="1" stroke-width="3.2"/>
<circle clip-path="url(#clip162)" cx="1364.15" cy="894.677" r="14.4" fill="#e26f46" fill-rule="evenodd" fill-opacity="1" stroke="#000000" stroke-opacity="1" stroke-width="3.2"/>
<circle clip-path="url(#clip162)" cx="1338.21" cy="839.155" r="14.4" fill="#e26f46" fill-rule="evenodd" fill-opacity="1" stroke="#000000" stroke-opacity="1" stroke-width="3.2"/>
<circle clip-path="url(#clip162)" cx="1101.47" cy="579.297" r="14.4" fill="#e26f46" fill-rule="evenodd" fill-opacity="1" stroke="#000000" stroke-opacity="1" stroke-width="3.2"/>
<circle clip-path="url(#clip162)" cx="2236.53" cy="936.194" r="14.4" fill="#e26f46" fill-rule="evenodd" fill-opacity="1" stroke="#000000" stroke-opacity="1" stroke-width="3.2"/>
<circle clip-path="url(#clip162)" cx="1986.81" cy="1130.12" r="14.4" fill="#e26f46" fill-rule="evenodd" fill-opacity="1" stroke="#000000" stroke-opacity="1" stroke-width="3.2"/>
<circle clip-path="url(#clip162)" cx="1224.7" cy="765.752" r="14.4" fill="#e26f46" fill-rule="evenodd" fill-opacity="1" stroke="#000000" stroke-opacity="1" stroke-width="3.2"/>
<circle clip-path="url(#clip162)" cx="1435.5" cy="984.928" r="14.4" fill="#e26f46" fill-rule="evenodd" fill-opacity="1" stroke="#000000" stroke-opacity="1" stroke-width="3.2"/>
<circle clip-path="url(#clip162)" cx="1707.91" cy="1286.44" r="14.4" fill="#e26f46" fill-rule="evenodd" fill-opacity="1" stroke="#000000" stroke-opacity="1" stroke-width="3.2"/>
<circle clip-path="url(#clip162)" cx="893.911" cy="249.89" r="14.4" fill="#e26f46" fill-rule="evenodd" fill-opacity="1" stroke="#000000" stroke-opacity="1" stroke-width="3.2"/>
<circle clip-path="url(#clip162)" cx="329.624" cy="680.199" r="14.4" fill="#e26f46" fill-rule="evenodd" fill-opacity="1" stroke="#000000" stroke-opacity="1" stroke-width="3.2"/>
<circle clip-path="url(#clip162)" cx="786.892" cy="277.157" r="14.4" fill="#e26f46" fill-rule="evenodd" fill-opacity="1" stroke="#000000" stroke-opacity="1" stroke-width="3.2"/>
<circle clip-path="url(#clip162)" cx="280.979" cy="631.108" r="14.4" fill="#e26f46" fill-rule="evenodd" fill-opacity="1" stroke="#000000" stroke-opacity="1" stroke-width="3.2"/>
<circle clip-path="url(#clip162)" cx="1610.62" cy="1320.85" r="14.4" fill="#e26f46" fill-rule="evenodd" fill-opacity="1" stroke="#000000" stroke-opacity="1" stroke-width="3.2"/>
<circle clip-path="url(#clip162)" cx="916.613" cy="341.85" r="14.4" fill="#e26f46" fill-rule="evenodd" fill-opacity="1" stroke="#000000" stroke-opacity="1" stroke-width="3.2"/>
<circle clip-path="url(#clip162)" cx="488.533" cy="354.233" r="14.4" fill="#e26f46" fill-rule="evenodd" fill-opacity="1" stroke="#000000" stroke-opacity="1" stroke-width="3.2"/>
<circle clip-path="url(#clip162)" cx="1169.57" cy="569.144" r="14.4" fill="#e26f46" fill-rule="evenodd" fill-opacity="1" stroke="#000000" stroke-opacity="1" stroke-width="3.2"/>
<path clip-path="url(#clip162)" d="M255.035 898.333 L258.278 893.342 L261.521 888.407 L264.764 883.536 L268.007 878.738 L271.25 874.022 L274.493 869.397 L277.736 864.872 L280.979 860.457 L284.222 856.158 L287.465 851.976 L290.708 847.905 L293.951 843.945 L297.194 840.091 L300.437 836.34 L303.68 832.688 L306.923 829.134 L310.166 825.672 L313.409 822.3 L316.652 819.015 L319.895 815.813 L323.138 812.692 L326.381 809.647 L329.624 806.676 L332.867 803.773 L336.11 800.932 L339.353 798.14 L342.596 795.389 L345.84 792.669 L349.083 789.97 L352.326 787.284 L355.569 784.602 L358.812 781.916 L362.055 779.218 L365.298 776.503 L368.541 773.762 L371.784 770.99 L375.027 768.182 L378.27 765.334 L381.513 762.44 L384.756 759.498 L387.999 756.504 L391.242 753.456 L394.485 750.352 L397.728 747.191 L400.971 743.971 L404.214 740.693 L407.457 737.357 L410.7 733.963 L413.943 730.512 L417.186 727.007 L420.429 723.449 L423.672 719.842 L426.915 716.187 L430.158 712.489 L433.401 708.753 L436.644 704.981 L439.887 701.179 L443.13 697.353 L446.373 693.509 L449.616 689.652 L452.859 685.789 L456.103 681.927 L459.346 678.074 L462.589 674.237 L465.832 670.425 L469.075 666.646 L472.318 662.909 L475.561 659.223 L478.804 655.598 L482.047 652.042 L485.29 648.566 L488.533 645.18 L491.776 641.891 L495.019 638.696 L498.262 635.591 L501.505 632.57 L504.748 629.629 L507.991 626.762 L511.234 623.967 L514.477 621.238 L517.72 618.572 L520.963 615.965 L524.206 613.416 L527.449 610.92 L530.692 608.476 L533.935 606.081 L537.178 603.736 L540.421 601.438 L543.664 599.187 L546.907 596.984 L550.15 594.827 L553.393 592.72 L556.636 590.662 L559.879 588.655 L563.122 586.702 L566.366 584.806 L569.609 582.968 L572.852 581.192 L576.095 579.483 L579.338 577.843 L582.581 576.277 L585.824 574.79 L589.067 573.386 L592.31 572.071 L595.553 570.848 L598.796 569.724 L602.039 568.701 L605.282 567.772 L608.525 566.929 L611.768 566.163 L615.011 565.466 L618.254 564.829 L621.497 564.245 L624.74 563.705 L627.983 563.203 L631.226 562.729 L634.469 562.279 L637.712 561.844 L640.955 561.418 L644.198 560.996 L647.441 560.572 L650.684 560.14 L653.927 559.696 L657.17 559.235 L660.413 558.752 L663.656 558.244 L666.899 557.707 L670.142 557.137 L673.385 556.533 L676.629 555.891 L679.872 555.21 L683.115 554.487 L686.358 553.72 L689.601 552.909 L692.844 552.054 L696.087 551.152 L699.33 550.205 L702.573 549.211 L705.816 548.173 L709.059 547.09 L712.302 545.963 L715.545 544.795 L718.788 543.587 L722.031 542.341 L725.274 541.059 L728.517 539.745 L731.76 538.401 L735.003 537.032 L738.246 535.641 L741.489 534.232 L744.732 532.809 L747.975 531.379 L751.218 529.946 L754.461 528.516 L757.704 527.095 L760.947 525.689 L764.19 524.304 L767.433 522.949 L770.676 521.63 L773.919 520.355 L777.162 519.132 L780.405 517.969 L783.648 516.873 L786.892 515.855 L790.135 514.919 L793.378 514.064 L796.621 513.287 L799.864 512.584 L803.107 511.952 L806.35 511.387 L809.593 510.887 L812.836 510.449 L816.079 510.072 L819.322 509.754 L822.565 509.493 L825.808 509.29 L829.051 509.144 L832.294 509.056 L835.537 509.027 L838.78 509.058 L842.023 509.152 L845.266 509.312 L848.509 509.542 L851.752 509.846 L854.995 510.228 L858.238 510.695 L861.481 511.253 L864.724 511.909 L867.967 512.67 L871.21 513.544 L874.453 514.541 L877.696 515.669 L880.939 516.938 L884.182 518.358 L887.425 519.94 L890.668 521.694 L893.911 523.632 L897.155 525.761 L900.398 528.081 L903.641 530.589 L906.884 533.28 L910.127 536.152 L913.37 539.2 L916.613 542.422 L919.856 545.813 L923.099 549.359 L926.342 553.047 L929.585 556.864 L932.828 560.796 L936.071 564.83 L939.314 568.952 L942.557 573.152 L945.8 577.417 L949.043 581.735 L952.286 586.097 L955.529 590.491 L958.772 594.908 L962.015 599.34 L965.258 603.777 L968.501 608.211 L971.744 612.635 L974.987 617.042 L978.23 621.426 L981.473 625.78 L984.716 630.099 L987.959 634.378 L991.202 638.612 L994.445 642.798 L997.688 646.931 L1000.93 651.008 L1004.17 655.027 L1007.42 658.984 L1010.66 662.878 L1013.9 666.708 L1017.15 670.471 L1020.39 674.167 L1023.63 677.795 L1026.88 681.355 L1030.12 684.848 L1033.36 688.273 L1036.6 691.632 L1039.85 694.926 L1043.09 698.156 L1046.33 701.325 L1049.58 704.435 L1052.82 707.488 L1056.06 710.489 L1059.31 713.439 L1062.55 716.344 L1065.79 719.207 L1069.04 722.033 L1072.28 724.827 L1075.52 727.595 L1078.76 730.341 L1082.01 733.073 L1085.25 735.796 L1088.49 738.518 L1091.74 741.244 L1094.98 743.984 L1098.22 746.743 L1101.47 749.529 L1104.71 752.35 L1107.95 755.204 L1111.19 758.092 L1114.44 761.013 L1117.68 763.965 L1120.92 766.95 L1124.17 769.966 L1127.41 773.014 L1130.65 776.095 L1133.9 779.21 L1137.14 782.36 L1140.38 785.547 L1143.62 788.774 L1146.87 792.043 L1150.11 795.358 L1153.35 798.723 L1156.6 802.14 L1159.84 805.616 L1163.08 809.153 L1166.33 812.759 L1169.57 816.437 L1172.81 820.192 L1176.06 824.018 L1179.3 827.909 L1182.54 831.857 L1185.78 835.857 L1189.03 839.902 L1192.27 843.988 L1195.51 848.107 L1198.76 852.257 L1202 856.432 L1205.24 860.628 L1208.49 864.842 L1211.73 869.071 L1214.97 873.312 L1218.21 877.563 L1221.46 881.821 L1224.7 886.085 L1227.94 890.352 L1231.19 894.616 L1234.43 898.869 L1237.67 903.105 L1240.92 907.316 L1244.16 911.497 L1247.4 915.641 L1250.64 919.744 L1253.89 923.801 L1257.13 927.807 L1260.37 931.759 L1263.62 935.654 L1266.86 939.489 L1270.1 943.262 L1273.35 946.973 L1276.59 950.619 L1279.83 954.203 L1283.08 957.723 L1286.32 961.182 L1289.56 964.582 L1292.8 967.925 L1296.05 971.215 L1299.29 974.456 L1302.53 977.653 L1305.78 980.812 L1309.02 983.938 L1312.26 987.04 L1315.51 990.125 L1318.75 993.202 L1321.99 996.28 L1325.23 999.369 L1328.48 1002.48 L1331.72 1005.63 L1334.96 1008.82 L1338.21 1012.07 L1341.45 1015.39 L1344.69 1018.78 L1347.94 1022.26 L1351.18 1025.82 L1354.42 1029.46 L1357.66 1033.21 L1360.91 1037.05 L1364.15 1040.99 L1367.39 1045.05 L1370.64 1049.21 L1373.88 1053.48 L1377.12 1057.84 L1380.37 1062.28 L1383.61 1066.8 L1386.85 1071.39 L1390.1 1076.04 L1393.34 1080.73 L1396.58 1085.48 L1399.82 1090.25 L1403.07 1095.06 L1406.31 1099.9 L1409.55 1104.75 L1412.8 1109.63 L1416.04 1114.51 L1419.28 1119.41 L1422.53 1124.32 L1425.77 1129.24 L1429.01 1134.16 L1432.25 1139.09 L1435.5 1144.04 L1438.74 1148.98 L1441.98 1153.94 L1445.23 1158.88 L1448.47 1163.82 L1451.71 1168.74 L1454.96 1173.64 L1458.2 1178.51 L1461.44 1183.34 L1464.68 1188.15 L1467.93 1192.91 L1471.17 1197.64 L1474.41 1202.32 L1477.66 1206.96 L1480.9 1211.55 L1484.14 1216.09 L1487.39 1220.59 L1490.63 1225.04 L1493.87 1229.45 L1497.11 1233.81 L1500.36 1238.13 L1503.6 1242.42 L1506.84 1246.66 L1510.09 1250.87 L1513.33 1255.06 L1516.57 1259.21 L1519.82 1263.34 L1523.06 1267.46 L1526.3 1271.56 L1529.55 1275.66 L1532.79 1279.73 L1536.03 1283.79 L1539.27 1287.81 L1542.52 1291.8 L1545.76 1295.74 L1549 1299.64 L1552.25 1303.49 L1555.49 1307.27 L1558.73 1310.99 L1561.98 1314.65 L1565.22 1318.23 L1568.46 1321.73 L1571.7 1325.16 L1574.95 1328.51 L1578.19 1331.77 L1581.43 1334.95 L1584.68 1338.04 L1587.92 1341.04 L1591.16 1343.96 L1594.41 1346.79 L1597.65 1349.53 L1600.89 1352.19 L1604.13 1354.76 L1607.38 1357.25 L1610.62 1359.67 L1613.86 1362 L1617.11 1364.25 L1620.35 1366.43 L1623.59 1368.54 L1626.84 1370.56 L1630.08 1372.52 L1633.32 1374.4 L1636.57 1376.22 L1639.81 1377.97 L1643.05 1379.66 L1646.29 1381.29 L1649.54 1382.87 L1652.78 1384.4 L1656.02 1385.89 L1659.27 1387.34 L1662.51 1388.77 L1665.75 1390.17 L1669 1391.56 L1672.24 1392.94 L1675.48 1394.33 L1678.72 1395.73 L1681.97 1397.15 L1685.21 1398.59 L1688.45 1400.07 L1691.7 1401.58 L1694.94 1403.13 L1698.18 1404.72 L1701.43 1406.34 L1704.67 1407.99 L1707.91 1409.68 L1711.15 1411.39 L1714.4 1413.13 L1717.64 1414.88 L1720.88 1416.64 L1724.13 1418.4 L1727.37 1420.15 L1730.61 1421.89 L1733.86 1423.6 L1737.1 1425.29 L1740.34 1426.93 L1743.59 1428.54 L1746.83 1430.1 L1750.07 1431.61 L1753.31 1433.06 L1756.56 1434.45 L1759.8 1435.77 L1763.04 1437.02 L1766.29 1438.2 L1769.53 1439.3 L1772.77 1440.32 L1776.02 1441.26 L1779.26 1442.12 L1782.5 1442.88 L1785.74 1443.56 L1788.99 1444.15 L1792.23 1444.65 L1795.47 1445.05 L1798.72 1445.36 L1801.96 1445.57 L1805.2 1445.69 L1808.45 1445.72 L1811.69 1445.64 L1814.93 1445.47 L1818.17 1445.2 L1821.42 1444.84 L1824.66 1444.38 L1827.9 1443.82 L1831.15 1443.16 L1834.39 1442.41 L1837.63 1441.57 L1840.88 1440.63 L1844.12 1439.6 L1847.36 1438.48 L1850.61 1437.26 L1853.85 1435.96 L1857.09 1434.56 L1860.33 1433.08 L1863.58 1431.52 L1866.82 1429.87 L1870.06 1428.14 L1873.31 1426.32 L1876.55 1424.43 L1879.79 1422.47 L1883.04 1420.43 L1886.28 1418.31 L1889.52 1416.13 L1892.76 1413.89 L1896.01 1411.58 L1899.25 1409.21 L1902.49 1406.78 L1905.74 1404.3 L1908.98 1401.77 L1912.22 1399.2 L1915.47 1396.58 L1918.71 1393.92 L1921.95 1391.23 L1925.19 1388.52 L1928.44 1385.77 L1931.68 1383.01 L1934.92 1380.23 L1938.17 1377.45 L1941.41 1374.66 L1944.65 1371.87 L1947.9 1369.09 L1951.14 1366.32 L1954.38 1363.58 L1957.63 1360.86 L1960.87 1358.17 L1964.11 1355.53 L1967.35 1352.93 L1970.6 1350.38 L1973.84 1347.89 L1977.08 1345.47 L1980.33 1343.12 L1983.57 1340.85 L1986.81 1338.67 L1990.06 1336.58 L1993.3 1334.57 L1996.54 1332.64 L1999.78 1330.79 L2003.03 1329 L2006.27 1327.28 L2009.51 1325.62 L2012.76 1324.01 L2016 1322.44 L2019.24 1320.91 L2022.49 1319.41 L2025.73 1317.95 L2028.97 1316.5 L2032.21 1315.08 L2035.46 1313.66 L2038.7 1312.25 L2041.94 1310.84 L2045.19 1309.44 L2048.43 1308.02 L2051.67 1306.6 L2054.92 1305.16 L2058.16 1303.7 L2061.4 1302.22 L2064.65 1300.72 L2067.89 1299.19 L2071.13 1297.63 L2074.37 1296.04 L2077.62 1294.42 L2080.86 1292.76 L2084.1 1291.06 L2087.35 1289.32 L2090.59 1287.55 L2093.83 1285.73 L2097.08 1283.87 L2100.32 1281.97 L2103.56 1280.03 L2106.8 1278.04 L2110.05 1276.02 L2113.29 1273.95 L2116.53 1271.84 L2119.78 1269.69 L2123.02 1267.5 L2126.26 1265.27 L2129.51 1263.01 L2132.75 1260.71 L2135.99 1258.38 L2139.23 1256.02 L2142.48 1253.63 L2145.72 1251.22 L2148.96 1248.79 L2152.21 1246.34 L2155.45 1243.87 L2158.69 1241.4 L2161.94 1238.92 L2165.18 1236.44 L2168.42 1233.96 L2171.67 1231.49 L2174.91 1229.03 L2178.15 1226.6 L2181.39 1224.19 L2184.64 1221.81 L2187.88 1219.47 L2191.12 1217.18 L2194.37 1214.94 L2197.61 1212.76 L2200.85 1210.65 L2204.1 1208.61 L2207.34 1206.66 L2210.58 1204.8 L2213.82 1203.05 L2217.07 1201.4 L2220.31 1199.87 L2223.55 1198.47 L2226.8 1197.2 L2230.04 1196.08 L2233.28 1195.1 L2236.53 1194.29 L2239.77 1193.64 L2243.01 1193.16 L2246.25 1192.82 L2249.5 1192.64 L2252.74 1192.59 L2255.98 1192.68 L2259.23 1192.9 L2262.47 1193.24 L2265.71 1193.69 L2268.96 1194.25 L2272.2 1194.91 L2275.44 1195.66 L2278.69 1196.5 L2281.93 1197.41 L2285.17 1198.41 L2288.41 1199.47 L2291.66 1200.59 L2291.66 604.458 L2288.41 608.612 L2285.17 612.726 L2281.93 616.795 L2278.69 620.813 L2275.44 624.773 L2272.2 628.67 L2268.96 632.496 L2265.71 636.245 L2262.47 639.91 L2259.23 643.484 L2255.98 646.96 L2252.74 650.33 L2249.5 653.588 L2246.25 656.725 L2243.01 659.736 L2239.77 662.613 L2236.53 665.35 L2233.28 667.942 L2230.04 670.395 L2226.8 672.717 L2223.55 674.917 L2220.31 677.004 L2217.07 678.986 L2213.82 680.871 L2210.58 682.669 L2207.34 684.389 L2204.1 686.038 L2200.85 687.626 L2197.61 689.16 L2194.37 690.649 L2191.12 692.101 L2187.88 693.523 L2184.64 694.922 L2181.39 696.305 L2178.15 697.68 L2174.91 699.052 L2171.67 700.428 L2168.42 701.812 L2165.18 703.212 L2161.94 704.631 L2158.69 706.075 L2155.45 707.548 L2152.21 709.054 L2148.96 710.597 L2145.72 712.18 L2142.48 713.807 L2139.23 715.481 L2135.99 717.203 L2132.75 718.977 L2129.51 720.805 L2126.26 722.688 L2123.02 724.627 L2119.78 726.625 L2116.53 728.681 L2113.29 730.796 L2110.05 732.972 L2106.8 735.208 L2103.56 737.503 L2100.32 739.858 L2097.08 742.271 L2093.83 744.743 L2090.59 747.271 L2087.35 749.855 L2084.1 752.492 L2080.86 755.181 L2077.62 757.92 L2074.37 760.705 L2071.13 763.534 L2067.89 766.405 L2064.65 769.313 L2061.4 772.256 L2058.16 775.228 L2054.92 778.227 L2051.67 781.248 L2048.43 784.286 L2045.19 787.335 L2041.94 790.391 L2038.7 793.448 L2035.46 796.5 L2032.21 799.541 L2028.97 802.564 L2025.73 805.563 L2022.49 808.53 L2019.24 811.46 L2016 814.343 L2012.76 817.174 L2009.51 819.943 L2006.27 822.643 L2003.03 825.266 L1999.78 827.804 L1996.54 830.248 L1993.3 832.592 L1990.06 834.827 L1986.81 836.944 L1983.57 838.94 L1980.33 840.818 L1977.08 842.588 L1973.84 844.256 L1970.6 845.832 L1967.35 847.324 L1964.11 848.739 L1960.87 850.087 L1957.63 851.374 L1954.38 852.608 L1951.14 853.798 L1947.9 854.951 L1944.65 856.074 L1941.41 857.174 L1938.17 858.258 L1934.92 859.332 L1931.68 860.404 L1928.44 861.478 L1925.19 862.561 L1921.95 863.659 L1918.71 864.775 L1915.47 865.916 L1912.22 867.086 L1908.98 868.29 L1905.74 869.531 L1902.49 870.813 L1899.25 872.141 L1896.01 873.517 L1892.76 874.945 L1889.52 876.428 L1886.28 877.967 L1883.04 879.567 L1879.79 881.228 L1876.55 882.953 L1873.31 884.744 L1870.06 886.602 L1866.82 888.529 L1863.58 890.526 L1860.33 892.593 L1857.09 894.732 L1853.85 896.943 L1850.61 899.227 L1847.36 901.583 L1844.12 904.012 L1840.88 906.513 L1837.63 909.087 L1834.39 911.732 L1831.15 914.447 L1827.9 917.233 L1824.66 920.086 L1821.42 923.007 L1818.17 925.993 L1814.93 929.043 L1811.69 932.154 L1808.45 935.324 L1805.2 938.551 L1801.96 941.832 L1798.72 945.163 L1795.47 948.542 L1792.23 951.965 L1788.99 955.429 L1785.74 958.927 L1782.5 962.458 L1779.26 966.015 L1776.02 969.593 L1772.77 973.187 L1769.53 976.791 L1766.29 980.399 L1763.04 984.004 L1759.8 987.599 L1756.56 991.176 L1753.31 994.728 L1750.07 998.245 L1746.83 1001.72 L1743.59 1005.14 L1740.34 1008.5 L1737.1 1011.79 L1733.86 1014.99 L1730.61 1018.09 L1727.37 1021.09 L1724.13 1023.97 L1720.88 1026.72 L1717.64 1029.31 L1714.4 1031.75 L1711.15 1034.02 L1707.91 1036.09 L1704.67 1037.97 L1701.43 1039.64 L1698.18 1041.1 L1694.94 1042.36 L1691.7 1043.41 L1688.45 1044.25 L1685.21 1044.87 L1681.97 1045.29 L1678.72 1045.5 L1675.48 1045.52 L1672.24 1045.35 L1669 1045.01 L1665.75 1044.49 L1662.51 1043.81 L1659.27 1042.97 L1656.02 1041.98 L1652.78 1040.85 L1649.54 1039.58 L1646.29 1038.17 L1643.05 1036.63 L1639.81 1034.96 L1636.57 1033.17 L1633.32 1031.24 L1630.08 1029.2 L1626.84 1027.03 L1623.59 1024.73 L1620.35 1022.31 L1617.11 1019.76 L1613.86 1017.07 L1610.62 1014.26 L1607.38 1011.3 L1604.13 1008.22 L1600.89 1005.03 L1597.65 1001.73 L1594.41 998.345 L1591.16 994.874 L1587.92 991.33 L1584.68 987.723 L1581.43 984.06 L1578.19 980.35 L1574.95 976.599 L1571.7 972.814 L1568.46 969.001 L1565.22 965.165 L1561.98 961.311 L1558.73 957.443 L1555.49 953.565 L1552.25 949.679 L1549 945.788 L1545.76 941.894 L1542.52 937.999 L1539.27 934.102 L1536.03 930.206 L1532.79 926.311 L1529.55 922.415 L1526.3 918.519 L1523.06 914.624 L1519.82 910.734 L1516.57 906.855 L1513.33 902.991 L1510.09 899.148 L1506.84 895.33 L1503.6 891.541 L1500.36 887.786 L1497.11 884.067 L1493.87 880.386 L1490.63 876.748 L1487.39 873.153 L1484.14 869.602 L1480.9 866.097 L1477.66 862.637 L1474.41 859.223 L1471.17 855.852 L1467.93 852.525 L1464.68 849.238 L1461.44 845.988 L1458.2 842.774 L1454.96 839.59 L1451.71 836.432 L1448.47 833.296 L1445.23 830.175 L1441.98 827.064 L1438.74 823.956 L1435.5 820.844 L1432.25 817.721 L1429.01 814.587 L1425.77 811.443 L1422.53 808.287 L1419.28 805.119 L1416.04 801.938 L1412.8 798.741 L1409.55 795.526 L1406.31 792.289 L1403.07 789.025 L1399.82 785.73 L1396.58 782.397 L1393.34 779.021 L1390.1 775.594 L1386.85 772.107 L1383.61 768.553 L1380.37 764.922 L1377.12 761.205 L1373.88 757.391 L1370.64 753.471 L1367.39 749.435 L1364.15 745.281 L1360.91 741.01 L1357.66 736.626 L1354.42 732.136 L1351.18 727.548 L1347.94 722.868 L1344.69 718.102 L1341.45 713.257 L1338.21 708.338 L1334.96 703.353 L1331.72 698.313 L1328.48 693.23 L1325.23 688.114 L1321.99 682.977 L1318.75 677.83 L1315.51 672.68 L1312.26 667.538 L1309.02 662.411 L1305.78 657.307 L1302.53 652.231 L1299.29 647.19 L1296.05 642.188 L1292.8 637.23 L1289.56 632.319 L1286.32 627.457 L1283.08 622.647 L1279.83 617.89 L1276.59 613.187 L1273.35 608.536 L1270.1 603.939 L1266.86 599.392 L1263.62 594.894 L1260.37 590.442 L1257.13 586.033 L1253.89 581.663 L1250.64 577.328 L1247.4 573.021 L1244.16 568.738 L1240.92 564.473 L1237.67 560.218 L1234.43 555.967 L1231.19 551.711 L1227.94 547.444 L1224.7 543.157 L1221.46 538.842 L1218.21 534.502 L1214.97 530.139 L1211.73 525.755 L1208.49 521.352 L1205.24 516.931 L1202 512.494 L1198.76 508.043 L1195.51 503.576 L1192.27 499.095 L1189.03 494.599 L1185.78 490.088 L1182.54 485.559 L1179.3 481.012 L1176.06 476.446 L1172.81 471.857 L1169.57 467.244 L1166.33 462.606 L1163.08 457.944 L1159.84 453.261 L1156.6 448.559 L1153.35 443.841 L1150.11 439.108 L1146.87 434.362 L1143.62 429.605 L1140.38 424.836 L1137.14 420.057 L1133.9 415.268 L1130.65 410.468 L1127.41 405.656 L1124.17 400.832 L1120.92 395.994 L1117.68 391.14 L1114.44 386.268 L1111.19 381.376 L1107.95 376.461 L1104.71 371.522 L1101.47 366.554 L1098.22 361.558 L1094.98 356.538 L1091.74 351.504 L1088.49 346.464 L1085.25 341.424 L1082.01 336.394 L1078.76 331.379 L1075.52 326.388 L1072.28 321.426 L1069.04 316.501 L1065.79 311.619 L1062.55 306.785 L1059.31 302.006 L1056.06 297.285 L1052.82 292.629 L1049.58 288.042 L1046.33 283.528 L1043.09 279.091 L1039.85 274.735 L1036.6 270.462 L1033.36 266.277 L1030.12 262.182 L1026.88 258.179 L1023.63 254.271 L1020.39 250.458 L1017.15 246.744 L1013.9 243.129 L1010.66 239.613 L1007.42 236.198 L1004.17 232.885 L1000.93 229.672 L997.688 226.56 L994.445 223.548 L991.202 220.636 L987.959 217.821 L984.716 215.103 L981.473 212.48 L978.23 209.949 L974.987 207.508 L971.744 205.153 L968.501 202.881 L965.258 200.688 L962.015 198.571 L958.772 196.524 L955.529 194.542 L952.286 192.62 L949.043 190.751 L945.8 188.93 L942.557 187.15 L939.314 185.403 L936.071 183.682 L932.828 181.979 L929.585 180.285 L926.342 178.592 L923.099 176.892 L919.856 175.175 L916.613 173.434 L913.37 171.659 L910.127 169.851 L906.884 168.009 L903.641 166.134 L900.398 164.228 L897.155 162.289 L893.911 160.321 L890.668 158.324 L887.425 156.304 L884.182 154.268 L880.939 152.222 L877.696 150.172 L874.453 148.124 L871.21 146.083 L867.967 144.056 L864.724 142.048 L861.481 140.063 L858.238 138.106 L854.995 136.18 L851.752 134.289 L848.509 132.436 L845.266 130.623 L842.023 128.852 L838.78 127.124 L835.537 125.439 L832.294 123.8 L829.051 122.204 L825.808 120.652 L822.565 119.142 L819.322 117.673 L816.079 116.243 L812.836 114.85 L809.593 113.49 L806.35 112.162 L803.107 110.862 L799.864 109.587 L796.621 108.332 L793.378 107.095 L790.135 105.872 L786.892 104.658 L783.648 103.451 L780.405 102.256 L777.162 101.078 L773.919 99.9208 L770.676 98.7909 L767.433 97.6933 L764.19 96.6327 L760.947 95.6142 L757.704 94.6423 L754.461 93.7216 L751.218 92.8562 L747.975 92.0502 L744.732 91.3074 L741.489 90.6314 L738.246 90.0255 L735.003 89.4928 L731.76 89.0361 L728.517 88.6581 L725.274 88.3611 L722.031 88.1473 L718.788 88.0184 L715.545 87.9763 L712.302 88.0222 L709.059 88.1575 L705.816 88.3831 L702.573 88.6996 L699.33 89.1077 L696.087 89.6076 L692.844 90.1993 L689.601 90.8828 L686.358 91.6576 L683.115 92.5232 L679.872 93.4786 L676.629 94.5229 L673.385 95.6548 L670.142 96.8727 L666.899 98.1749 L663.656 99.5594 L660.413 101.024 L657.17 102.566 L653.927 104.183 L650.684 105.873 L647.441 107.631 L644.198 109.454 L640.955 111.339 L637.712 113.283 L634.469 115.28 L631.226 117.326 L627.983 119.417 L624.74 121.548 L621.497 123.715 L618.254 125.911 L615.011 128.132 L611.768 130.373 L608.525 132.627 L605.282 134.89 L602.039 137.156 L598.796 139.42 L595.553 141.677 L592.31 143.929 L589.067 146.181 L585.824 148.435 L582.581 150.696 L579.338 152.966 L576.095 155.249 L572.852 157.549 L569.609 159.869 L566.366 162.211 L563.122 164.578 L559.879 166.974 L556.636 169.399 L553.393 171.856 L550.15 174.348 L546.907 176.874 L543.664 179.436 L540.421 182.036 L537.178 184.672 L533.935 187.346 L530.692 190.056 L527.449 192.803 L524.206 195.586 L520.963 198.403 L517.72 201.252 L514.477 204.133 L511.234 207.042 L507.991 209.979 L504.748 212.939 L501.505 215.922 L498.262 218.923 L495.019 221.941 L491.776 224.972 L488.533 228.013 L485.29 231.063 L482.047 234.124 L478.804 237.201 L475.561 240.297 L472.318 243.416 L469.075 246.562 L465.832 249.738 L462.589 252.948 L459.346 256.195 L456.103 259.481 L452.859 262.81 L449.616 266.183 L446.373 269.604 L443.13 273.072 L439.887 276.591 L436.644 280.16 L433.401 283.78 L430.158 287.453 L426.915 291.176 L423.672 294.951 L420.429 298.776 L417.186 302.649 L413.943 306.57 L410.7 310.535 L407.457 314.543 L404.214 318.589 L400.971 322.671 L397.728 326.785 L394.485 330.925 L391.242 335.087 L387.999 339.266 L384.756 343.455 L381.513 347.648 L378.27 351.837 L375.027 356.016 L371.784 360.175 L368.541 364.306 L365.298 368.399 L362.055 372.445 L358.812 376.432 L355.569 380.35 L352.326 384.188 L349.083 387.932 L345.84 391.57 L342.596 395.089 L339.353 398.475 L336.11 401.715 L332.867 404.795 L329.624 407.699 L326.381 410.417 L323.138 412.945 L319.895 415.284 L316.652 417.433 L313.409 419.392 L310.166 421.16 L306.923 422.739 L303.68 424.126 L300.437 425.322 L297.194 426.327 L293.951 427.14 L290.708 427.76 L287.465 428.187 L284.222 428.42 L280.979 428.46 L277.736 428.308 L274.493 427.973 L271.25 427.464 L268.007 426.794 L264.764 425.971 L261.521 425.006 L258.278 423.909 L255.035 422.69  Z" fill="#3da44d" fill-rule="evenodd" fill-opacity="0.1"/>
<polyline clip-path="url(#clip162)" style="stroke:#3da44d; stroke-linecap:round; stroke-linejoin:round; stroke-width:8; stroke-opacity:1; fill:none" points="255.035,660.512 258.278,658.626 261.521,656.706 264.764,654.753 268.007,652.766 271.25,650.743 274.493,648.685 277.736,646.59 280.979,644.459 284.222,642.289 287.465,640.081 290.708,637.832 293.951,635.542 297.194,633.209 300.437,630.831 303.68,628.407 306.923,625.936 310.166,623.416 313.409,620.846 316.652,618.224 319.895,615.548 323.138,612.818 326.381,610.032 329.624,607.187 332.867,604.284 336.11,601.323 339.353,598.308 342.596,595.239 345.84,592.119 349.083,588.951 352.326,585.736 355.569,582.476 358.812,579.174 362.055,575.831 365.298,572.451 368.541,569.034 371.784,565.582 375.027,562.099 378.27,558.585 381.513,555.044 384.756,551.476 387.999,547.885 391.242,544.272 394.485,540.638 397.728,536.988 400.971,533.321 404.214,529.641 407.457,525.95 410.7,522.249 413.943,518.541 417.186,514.828 420.429,511.113 423.672,507.396 426.915,503.682 430.158,499.971 433.401,496.266 436.644,492.57 439.887,488.885 443.13,485.213 446.373,481.556 449.616,477.918 452.859,474.299 456.103,470.704 459.346,467.134 462.589,463.593 465.832,460.082 469.075,456.604 472.318,453.163 475.561,449.76 478.804,446.399 482.047,443.083 485.29,439.815 488.533,436.597 491.776,433.431 495.019,430.319 498.262,427.257 501.505,424.246 504.748,421.284 507.991,418.37 511.234,415.505 514.477,412.685 517.72,409.912 520.963,407.184 524.206,404.501 527.449,401.862 530.692,399.266 533.935,396.714 537.178,394.204 540.421,391.737 543.664,389.312 546.907,386.929 550.15,384.588 553.393,382.288 556.636,380.03 559.879,377.814 563.122,375.64 566.366,373.508 569.609,371.418 572.852,369.371 576.095,367.366 579.338,365.404 582.581,363.486 585.824,361.613 589.067,359.784 592.31,358 595.553,356.262 598.796,354.572 602.039,352.928 605.282,351.331 608.525,349.778 611.768,348.268 615.011,346.799 618.254,345.37 621.497,343.98 624.74,342.627 627.983,341.31 631.226,340.028 634.469,338.779 637.712,337.563 640.955,336.379 644.198,335.225 647.441,334.101 650.684,333.007 653.927,331.94 657.17,330.901 660.413,329.888 663.656,328.902 666.899,327.941 670.142,327.005 673.385,326.094 676.629,325.207 679.872,324.344 683.115,323.505 686.358,322.689 689.601,321.896 692.844,321.126 696.087,320.38 699.33,319.656 702.573,318.955 705.816,318.278 709.059,317.624 712.302,316.993 715.545,316.386 718.788,315.803 722.031,315.244 725.274,314.71 728.517,314.202 731.76,313.719 735.003,313.262 738.246,312.833 741.489,312.431 744.732,312.058 747.975,311.715 751.218,311.401 754.461,311.119 757.704,310.868 760.947,310.651 764.19,310.469 767.433,310.321 770.676,310.211 773.919,310.138 777.162,310.105 780.405,310.112 783.648,310.162 786.892,310.256 790.135,310.395 793.378,310.58 796.621,310.81 799.864,311.085 803.107,311.407 806.35,311.775 809.593,312.189 812.836,312.649 816.079,313.158 819.322,313.713 822.565,314.318 825.808,314.971 829.051,315.674 832.294,316.428 835.537,317.233 838.78,318.091 842.023,319.002 845.266,319.968 848.509,320.989 851.752,322.068 854.995,323.204 858.238,324.401 861.481,325.658 864.724,326.979 867.967,328.363 871.21,329.814 874.453,331.332 877.696,332.92 880.939,334.58 884.182,336.313 887.425,338.122 890.668,340.009 893.911,341.976 897.155,344.025 900.398,346.154 903.641,348.362 906.884,350.645 910.127,353.001 913.37,355.43 916.613,357.928 919.856,360.494 923.099,363.125 926.342,365.82 929.585,368.574 932.828,371.387 936.071,374.256 939.314,377.178 942.557,380.151 945.8,383.174 949.043,386.243 952.286,389.358 955.529,392.516 958.772,395.716 962.015,398.955 965.258,402.233 968.501,405.546 971.744,408.894 974.987,412.275 978.23,415.688 981.473,419.13 984.716,422.601 987.959,426.1 991.202,429.624 994.445,433.173 997.688,436.745 1000.93,440.34 1004.17,443.956 1007.42,447.591 1010.66,451.246 1013.9,454.918 1017.15,458.607 1020.39,462.313 1023.63,466.033 1026.88,469.767 1030.12,473.515 1033.36,477.275 1036.6,481.047 1039.85,484.83 1043.09,488.623 1046.33,492.426 1049.58,496.238 1052.82,500.059 1056.06,503.887 1059.31,507.722 1062.55,511.565 1065.79,515.413 1069.04,519.267 1072.28,523.127 1075.52,526.991 1078.76,530.86 1082.01,534.733 1085.25,538.61 1088.49,542.491 1091.74,546.374 1094.98,550.261 1098.22,554.15 1101.47,558.042 1104.71,561.936 1107.95,565.833 1111.19,569.734 1114.44,573.64 1117.68,577.552 1120.92,581.472 1124.17,585.399 1127.41,589.335 1130.65,593.281 1133.9,597.239 1137.14,601.209 1140.38,605.192 1143.62,609.189 1146.87,613.203 1150.11,617.233 1153.35,621.282 1156.6,625.35 1159.84,629.438 1163.08,633.549 1166.33,637.682 1169.57,641.841 1172.81,646.025 1176.06,650.232 1179.3,654.461 1182.54,658.708 1185.78,662.972 1189.03,667.251 1192.27,671.541 1195.51,675.842 1198.76,680.15 1202,684.463 1205.24,688.78 1208.49,693.097 1211.73,697.413 1214.97,701.726 1218.21,706.033 1221.46,710.332 1224.7,714.621 1227.94,718.898 1231.19,723.164 1234.43,727.418 1237.67,731.661 1240.92,735.894 1244.16,740.118 1247.4,744.331 1250.64,748.536 1253.89,752.732 1257.13,756.92 1260.37,761.101 1263.62,765.274 1266.86,769.44 1270.1,773.6 1273.35,777.755 1276.59,781.903 1279.83,786.047 1283.08,790.185 1286.32,794.32 1289.56,798.45 1292.8,802.578 1296.05,806.702 1299.29,810.823 1302.53,814.942 1305.78,819.059 1309.02,823.175 1312.26,827.289 1315.51,831.403 1318.75,835.516 1321.99,839.629 1325.23,843.742 1328.48,847.855 1331.72,851.97 1334.96,856.086 1338.21,860.203 1341.45,864.322 1344.69,868.442 1347.94,872.562 1351.18,876.682 1354.42,880.8 1357.66,884.916 1360.91,889.029 1364.15,893.138 1367.39,897.242 1370.64,901.341 1373.88,905.434 1377.12,909.52 1380.37,913.601 1383.61,917.677 1386.85,921.748 1390.1,925.815 1393.34,929.878 1396.58,933.936 1399.82,937.991 1403.07,942.044 1406.31,946.093 1409.55,950.139 1412.8,954.183 1416.04,958.225 1419.28,962.265 1422.53,966.303 1425.77,970.339 1429.01,974.374 1432.25,978.407 1435.5,982.439 1438.74,986.47 1441.98,990.5 1445.23,994.529 1448.47,998.558 1451.71,1002.59 1454.96,1006.61 1458.2,1010.64 1461.44,1014.67 1464.68,1018.69 1467.93,1022.72 1471.17,1026.75 1474.41,1030.77 1477.66,1034.8 1480.9,1038.82 1484.14,1042.85 1487.39,1046.87 1490.63,1050.9 1493.87,1054.92 1497.11,1058.94 1500.36,1062.96 1503.6,1066.98 1506.84,1071 1510.09,1075.01 1513.33,1079.02 1516.57,1083.03 1519.82,1087.04 1523.06,1091.04 1526.3,1095.04 1529.55,1099.04 1532.79,1103.02 1536.03,1107 1539.27,1110.96 1542.52,1114.9 1545.76,1118.82 1549,1122.72 1552.25,1126.58 1555.49,1130.42 1558.73,1134.22 1561.98,1137.98 1565.22,1141.7 1568.46,1145.37 1571.7,1148.99 1574.95,1152.55 1578.19,1156.06 1581.43,1159.5 1584.68,1162.88 1587.92,1166.19 1591.16,1169.42 1594.41,1172.57 1597.65,1175.63 1600.89,1178.61 1604.13,1181.49 1607.38,1184.28 1610.62,1186.96 1613.86,1189.54 1617.11,1192.01 1620.35,1194.37 1623.59,1196.63 1626.84,1198.8 1630.08,1200.86 1633.32,1202.82 1636.57,1204.69 1639.81,1206.46 1643.05,1208.14 1646.29,1209.73 1649.54,1211.22 1652.78,1212.62 1656.02,1213.93 1659.27,1215.16 1662.51,1216.29 1665.75,1217.33 1669,1218.28 1672.24,1219.15 1675.48,1219.93 1678.72,1220.62 1681.97,1221.22 1685.21,1221.73 1688.45,1222.16 1691.7,1222.5 1694.94,1222.75 1698.18,1222.91 1701.43,1222.99 1704.67,1222.98 1707.91,1222.88 1711.15,1222.7 1714.4,1222.44 1717.64,1222.1 1720.88,1221.68 1724.13,1221.19 1727.37,1220.62 1730.61,1219.99 1733.86,1219.29 1737.1,1218.54 1740.34,1217.72 1743.59,1216.84 1746.83,1215.91 1750.07,1214.93 1753.31,1213.89 1756.56,1212.81 1759.8,1211.68 1763.04,1210.51 1766.29,1209.3 1769.53,1208.05 1772.77,1206.75 1776.02,1205.43 1779.26,1204.07 1782.5,1202.67 1785.74,1201.24 1788.99,1199.79 1792.23,1198.31 1795.47,1196.8 1798.72,1195.26 1801.96,1193.7 1805.2,1192.12 1808.45,1190.52 1811.69,1188.9 1814.93,1187.26 1818.17,1185.6 1821.42,1183.92 1824.66,1182.23 1827.9,1180.53 1831.15,1178.81 1834.39,1177.07 1837.63,1175.33 1840.88,1173.57 1844.12,1171.81 1847.36,1170.03 1850.61,1168.24 1853.85,1166.45 1857.09,1164.65 1860.33,1162.84 1863.58,1161.02 1866.82,1159.2 1870.06,1157.37 1873.31,1155.53 1876.55,1153.69 1879.79,1151.85 1883.04,1150 1886.28,1148.14 1889.52,1146.28 1892.76,1144.42 1896.01,1142.55 1899.25,1140.68 1902.49,1138.8 1905.74,1136.92 1908.98,1135.03 1912.22,1133.14 1915.47,1131.25 1918.71,1129.35 1921.95,1127.45 1925.19,1125.54 1928.44,1123.63 1931.68,1121.71 1934.92,1119.78 1938.17,1117.85 1941.41,1115.91 1944.65,1113.97 1947.9,1112.02 1951.14,1110.06 1954.38,1108.09 1957.63,1106.12 1960.87,1104.13 1964.11,1102.13 1967.35,1100.12 1970.6,1098.11 1973.84,1096.07 1977.08,1094.03 1980.33,1091.97 1983.57,1089.9 1986.81,1087.81 1990.06,1085.7 1993.3,1083.58 1996.54,1081.44 1999.78,1079.3 2003.03,1077.13 2006.27,1074.96 2009.51,1072.78 2012.76,1070.59 2016,1068.39 2019.24,1066.18 2022.49,1063.97 2025.73,1061.76 2028.97,1059.53 2032.21,1057.31 2035.46,1055.08 2038.7,1052.85 2041.94,1050.62 2045.19,1048.39 2048.43,1046.15 2051.67,1043.92 2054.92,1041.69 2058.16,1039.46 2061.4,1037.24 2064.65,1035.02 2067.89,1032.8 2071.13,1030.58 2074.37,1028.37 2077.62,1026.17 2080.86,1023.97 2084.1,1021.78 2087.35,1019.59 2090.59,1017.41 2093.83,1015.24 2097.08,1013.07 2100.32,1010.91 2103.56,1008.77 2106.8,1006.63 2110.05,1004.49 2113.29,1002.37 2116.53,1000.26 2119.78,998.156 2123.02,996.062 2126.26,993.979 2129.51,991.906 2132.75,989.843 2135.99,987.792 2139.23,985.75 2142.48,983.72 2145.72,981.701 2148.96,979.693 2152.21,977.696 2155.45,975.711 2158.69,973.737 2161.94,971.775 2165.18,969.824 2168.42,967.885 2171.67,965.958 2174.91,964.042 2178.15,962.138 2181.39,960.245 2184.64,958.365 2187.88,956.496 2191.12,954.639 2194.37,952.793 2197.61,950.959 2200.85,949.136 2204.1,947.325 2207.34,945.525 2210.58,943.737 2213.82,941.959 2217.07,940.193 2220.31,938.438 2223.55,936.693 2226.8,934.959 2230.04,933.236 2233.28,931.523 2236.53,929.821 2239.77,928.128 2243.01,926.446 2246.25,924.774 2249.5,923.113 2252.74,921.462 2255.98,919.822 2259.23,918.193 2262.47,916.576 2265.71,914.969 2268.96,913.373 2272.2,911.789 2275.44,910.216 2278.69,908.654 2281.93,907.104 2285.17,905.566 2288.41,904.039 2291.66,902.524 "/>
<path clip-path="url(#clip160)" d="M1953.46 302.578 L2280.8 302.578 L2280.8 95.2176 L1953.46 95.2176  Z" fill="#ffffff" fill-rule="evenodd" fill-opacity="1"/>
<polyline clip-path="url(#clip160)" style="stroke:#000000; stroke-linecap:round; stroke-linejoin:round; stroke-width:4; stroke-opacity:1; fill:none" points="1953.46,302.578 2280.8,302.578 2280.8,95.2176 1953.46,95.2176 1953.46,302.578 "/>
<polyline clip-path="url(#clip160)" style="stroke:#009af9; stroke-linecap:round; stroke-linejoin:round; stroke-width:4; stroke-opacity:1; fill:none" points="1977.44,147.058 2121.36,147.058 "/>
<path clip-path="url(#clip160)" d="M2152.76 131.051 L2152.76 138.412 L2161.53 138.412 L2161.53 141.722 L2152.76 141.722 L2152.76 155.796 Q2152.76 158.967 2153.61 159.87 Q2154.49 160.773 2157.16 160.773 L2161.53 160.773 L2161.53 164.338 L2157.16 164.338 Q2152.23 164.338 2150.35 162.509 Q2148.48 160.657 2148.48 155.796 L2148.48 141.722 L2145.35 141.722 L2145.35 138.412 L2148.48 138.412 L2148.48 131.051 L2152.76 131.051 Z" fill="#000000" fill-rule="nonzero" fill-opacity="1" /><path clip-path="url(#clip160)" d="M2182.16 142.393 Q2181.44 141.977 2180.58 141.791 Q2179.75 141.583 2178.73 141.583 Q2175.12 141.583 2173.17 143.944 Q2171.25 146.282 2171.25 150.68 L2171.25 164.338 L2166.97 164.338 L2166.97 138.412 L2171.25 138.412 L2171.25 142.44 Q2172.6 140.078 2174.75 138.944 Q2176.9 137.787 2179.98 137.787 Q2180.42 137.787 2180.95 137.856 Q2181.48 137.903 2182.13 138.018 L2182.16 142.393 Z" fill="#000000" fill-rule="nonzero" fill-opacity="1" /><path clip-path="url(#clip160)" d="M2186.18 154.106 L2186.18 138.412 L2190.44 138.412 L2190.44 153.944 Q2190.44 157.625 2191.88 159.476 Q2193.31 161.305 2196.18 161.305 Q2199.63 161.305 2201.62 159.106 Q2203.64 156.907 2203.64 153.111 L2203.64 138.412 L2207.9 138.412 L2207.9 164.338 L2203.64 164.338 L2203.64 160.356 Q2202.09 162.717 2200.03 163.875 Q2197.99 165.009 2195.28 165.009 Q2190.81 165.009 2188.5 162.231 Q2186.18 159.453 2186.18 154.106 M2196.9 137.787 L2196.9 137.787 Z" fill="#000000" fill-rule="nonzero" fill-opacity="1" /><path clip-path="url(#clip160)" d="M2220.88 131.051 L2220.88 138.412 L2229.66 138.412 L2229.66 141.722 L2220.88 141.722 L2220.88 155.796 Q2220.88 158.967 2221.74 159.87 Q2222.62 160.773 2225.28 160.773 L2229.66 160.773 L2229.66 164.338 L2225.28 164.338 Q2220.35 164.338 2218.48 162.509 Q2216.6 160.657 2216.6 155.796 L2216.6 141.722 L2213.48 141.722 L2213.48 138.412 L2216.6 138.412 L2216.6 131.051 L2220.88 131.051 Z" fill="#000000" fill-rule="nonzero" fill-opacity="1" /><path clip-path="url(#clip160)" d="M2256.81 148.689 L2256.81 164.338 L2252.55 164.338 L2252.55 148.828 Q2252.55 145.148 2251.11 143.319 Q2249.68 141.49 2246.81 141.49 Q2243.36 141.49 2241.37 143.69 Q2239.38 145.889 2239.38 149.685 L2239.38 164.338 L2235.1 164.338 L2235.1 128.319 L2239.38 128.319 L2239.38 142.44 Q2240.91 140.102 2242.97 138.944 Q2245.05 137.787 2247.76 137.787 Q2252.23 137.787 2254.52 140.565 Q2256.81 143.319 2256.81 148.689 Z" fill="#000000" fill-rule="nonzero" fill-opacity="1" /><circle clip-path="url(#clip160)" cx="2049.4" cy="198.898" r="20.48" fill="#e26f46" fill-rule="evenodd" fill-opacity="1" stroke="#000000" stroke-opacity="1" stroke-width="4.55111"/>
<path clip-path="url(#clip160)" d="M2164.26 194.187 L2164.26 180.159 L2168.52 180.159 L2168.52 216.178 L2164.26 216.178 L2164.26 212.289 Q2162.92 214.603 2160.86 215.738 Q2158.82 216.849 2155.95 216.849 Q2151.25 216.849 2148.29 213.099 Q2145.35 209.349 2145.35 203.238 Q2145.35 197.127 2148.29 193.377 Q2151.25 189.627 2155.95 189.627 Q2158.82 189.627 2160.86 190.761 Q2162.92 191.872 2164.26 194.187 M2149.75 203.238 Q2149.75 207.937 2151.67 210.622 Q2153.61 213.284 2156.99 213.284 Q2160.37 213.284 2162.32 210.622 Q2164.26 207.937 2164.26 203.238 Q2164.26 198.539 2162.32 195.877 Q2160.37 193.192 2156.99 193.192 Q2153.61 193.192 2151.67 195.877 Q2149.75 198.539 2149.75 203.238 Z" fill="#000000" fill-rule="nonzero" fill-opacity="1" /><path clip-path="url(#clip160)" d="M2189.08 203.145 Q2183.92 203.145 2181.92 204.326 Q2179.93 205.506 2179.93 208.354 Q2179.93 210.622 2181.42 211.965 Q2182.92 213.284 2185.49 213.284 Q2189.03 213.284 2191.16 210.784 Q2193.31 208.261 2193.31 204.094 L2193.31 203.145 L2189.08 203.145 M2197.57 201.386 L2197.57 216.178 L2193.31 216.178 L2193.31 212.242 Q2191.85 214.603 2189.68 215.738 Q2187.5 216.849 2184.36 216.849 Q2180.37 216.849 2178.01 214.627 Q2175.67 212.381 2175.67 208.631 Q2175.67 204.256 2178.59 202.034 Q2181.53 199.812 2187.34 199.812 L2193.31 199.812 L2193.31 199.395 Q2193.31 196.455 2191.37 194.858 Q2189.45 193.238 2185.95 193.238 Q2183.73 193.238 2181.62 193.77 Q2179.52 194.303 2177.57 195.367 L2177.57 191.432 Q2179.91 190.53 2182.11 190.09 Q2184.31 189.627 2186.39 189.627 Q2192.02 189.627 2194.79 192.543 Q2197.57 195.46 2197.57 201.386 Z" fill="#000000" fill-rule="nonzero" fill-opacity="1" /><path clip-path="url(#clip160)" d="M2210.56 182.891 L2210.56 190.252 L2219.33 190.252 L2219.33 193.562 L2210.56 193.562 L2210.56 207.636 Q2210.56 210.807 2211.42 211.71 Q2212.29 212.613 2214.96 212.613 L2219.33 212.613 L2219.33 216.178 L2214.96 216.178 Q2210.03 216.178 2208.15 214.349 Q2206.28 212.497 2206.28 207.636 L2206.28 193.562 L2203.15 193.562 L2203.15 190.252 L2206.28 190.252 L2206.28 182.891 L2210.56 182.891 Z" fill="#000000" fill-rule="nonzero" fill-opacity="1" /><path clip-path="url(#clip160)" d="M2236.72 203.145 Q2231.55 203.145 2229.56 204.326 Q2227.57 205.506 2227.57 208.354 Q2227.57 210.622 2229.05 211.965 Q2230.56 213.284 2233.13 213.284 Q2236.67 213.284 2238.8 210.784 Q2240.95 208.261 2240.95 204.094 L2240.95 203.145 L2236.72 203.145 M2245.21 201.386 L2245.21 216.178 L2240.95 216.178 L2240.95 212.242 Q2239.49 214.603 2237.32 215.738 Q2235.14 216.849 2231.99 216.849 Q2228.01 216.849 2225.65 214.627 Q2223.31 212.381 2223.31 208.631 Q2223.31 204.256 2226.23 202.034 Q2229.17 199.812 2234.98 199.812 L2240.95 199.812 L2240.95 199.395 Q2240.95 196.455 2239.01 194.858 Q2237.09 193.238 2233.59 193.238 Q2231.37 193.238 2229.26 193.77 Q2227.16 194.303 2225.21 195.367 L2225.21 191.432 Q2227.55 190.53 2229.75 190.09 Q2231.95 189.627 2234.03 189.627 Q2239.66 189.627 2242.43 192.543 Q2245.21 195.46 2245.21 201.386 Z" fill="#000000" fill-rule="nonzero" fill-opacity="1" /><polyline clip-path="url(#clip160)" style="stroke:#3da44d; stroke-linecap:round; stroke-linejoin:round; stroke-width:8; stroke-opacity:1; fill:none" points="1977.44,250.738 2121.36,250.738 "/>
<path clip-path="url(#clip160)" d="M2170.91 263.087 L2170.91 253.805 L2163.27 253.805 L2163.27 249.962 L2175.54 249.962 L2175.54 264.8 Q2172.83 266.721 2169.56 267.717 Q2166.3 268.689 2162.6 268.689 Q2154.49 268.689 2149.91 263.967 Q2145.35 259.221 2145.35 250.772 Q2145.35 242.3 2149.91 237.578 Q2154.49 232.833 2162.6 232.833 Q2165.98 232.833 2169.01 233.666 Q2172.06 234.499 2174.63 236.12 L2174.63 241.096 Q2172.04 238.897 2169.12 237.786 Q2166.21 236.675 2162.99 236.675 Q2156.65 236.675 2153.45 240.217 Q2150.28 243.758 2150.28 250.772 Q2150.28 257.763 2153.45 261.305 Q2156.65 264.846 2162.99 264.846 Q2165.47 264.846 2167.41 264.43 Q2169.36 263.99 2170.91 263.087 Z" fill="#000000" fill-rule="nonzero" fill-opacity="1" /><path clip-path="url(#clip160)" d="M2188.75 237.3 L2188.75 250.286 L2194.63 250.286 Q2197.9 250.286 2199.68 248.596 Q2201.46 246.907 2201.46 243.782 Q2201.46 240.68 2199.68 238.99 Q2197.9 237.3 2194.63 237.3 L2188.75 237.3 M2184.08 233.458 L2194.63 233.458 Q2200.44 233.458 2203.41 236.096 Q2206.39 238.712 2206.39 243.782 Q2206.39 248.897 2203.41 251.513 Q2200.44 254.129 2194.63 254.129 L2188.75 254.129 L2188.75 268.018 L2184.08 268.018 L2184.08 233.458 Z" fill="#000000" fill-rule="nonzero" fill-opacity="1" /></svg>
