<?xml version="1.0" encoding="utf-8"?>
<svg xmlns="http://www.w3.org/2000/svg" xmlns:xlink="http://www.w3.org/1999/xlink" width="600" height="400" viewBox="0 0 2400 1600">
<defs>
  <clipPath id="clip620">
    <rect x="0" y="0" width="2400" height="1600"/>
  </clipPath>
</defs>
<path clip-path="url(#clip620)" d="M0 1600 L2400 1600 L2400 0 L0 0  Z" fill="#ffffff" fill-rule="evenodd" fill-opacity="1"/>
<defs>
  <clipPath id="clip621">
    <rect x="480" y="0" width="1681" height="1600"/>
  </clipPath>
</defs>
<path clip-path="url(#clip620)" d="M193.936 1486.45 L2352.76 1486.45 L2352.76 47.2441 L193.936 47.2441  Z" fill="#ffffff" fill-rule="evenodd" fill-opacity="1"/>
<defs>
  <clipPath id="clip622">
    <rect x="193" y="47" width="2160" height="1440"/>
  </clipPath>
</defs>
<polyline clip-path="url(#clip622)" style="stroke:#000000; stroke-linecap:round; stroke-linejoin:round; stroke-width:2; stroke-opacity:0.1; fill:none" points="255.035,1486.45 255.035,47.2441 "/>
<polyline clip-path="url(#clip622)" style="stroke:#000000; stroke-linecap:round; stroke-linejoin:round; stroke-width:2; stroke-opacity:0.1; fill:none" points="579.173,1486.45 579.173,47.2441 "/>
<polyline clip-path="url(#clip622)" style="stroke:#000000; stroke-linecap:round; stroke-linejoin:round; stroke-width:2; stroke-opacity:0.1; fill:none" points="903.312,1486.45 903.312,47.2441 "/>
<polyline clip-path="url(#clip622)" style="stroke:#000000; stroke-linecap:round; stroke-linejoin:round; stroke-width:2; stroke-opacity:0.1; fill:none" points="1227.45,1486.45 1227.45,47.2441 "/>
<polyline clip-path="url(#clip622)" style="stroke:#000000; stroke-linecap:round; stroke-linejoin:round; stroke-width:2; stroke-opacity:0.1; fill:none" points="1551.59,1486.45 1551.59,47.2441 "/>
<polyline clip-path="url(#clip622)" style="stroke:#000000; stroke-linecap:round; stroke-linejoin:round; stroke-width:2; stroke-opacity:0.1; fill:none" points="1875.73,1486.45 1875.73,47.2441 "/>
<polyline clip-path="url(#clip622)" style="stroke:#000000; stroke-linecap:round; stroke-linejoin:round; stroke-width:2; stroke-opacity:0.1; fill:none" points="2199.87,1486.45 2199.87,47.2441 "/>
<polyline clip-path="url(#clip622)" style="stroke:#000000; stroke-linecap:round; stroke-linejoin:round; stroke-width:2; stroke-opacity:0.1; fill:none" points="193.936,1267.23 2352.76,1267.23 "/>
<polyline clip-path="url(#clip622)" style="stroke:#000000; stroke-linecap:round; stroke-linejoin:round; stroke-width:2; stroke-opacity:0.1; fill:none" points="193.936,1019.08 2352.76,1019.08 "/>
<polyline clip-path="url(#clip622)" style="stroke:#000000; stroke-linecap:round; stroke-linejoin:round; stroke-width:2; stroke-opacity:0.1; fill:none" points="193.936,770.934 2352.76,770.934 "/>
<polyline clip-path="url(#clip622)" style="stroke:#000000; stroke-linecap:round; stroke-linejoin:round; stroke-width:2; stroke-opacity:0.1; fill:none" points="193.936,522.788 2352.76,522.788 "/>
<polyline clip-path="url(#clip622)" style="stroke:#000000; stroke-linecap:round; stroke-linejoin:round; stroke-width:2; stroke-opacity:0.1; fill:none" points="193.936,274.641 2352.76,274.641 "/>
<polyline clip-path="url(#clip620)" style="stroke:#000000; stroke-linecap:round; stroke-linejoin:round; stroke-width:4; stroke-opacity:1; fill:none" points="193.936,1486.45 2352.76,1486.45 "/>
<polyline clip-path="url(#clip620)" style="stroke:#000000; stroke-linecap:round; stroke-linejoin:round; stroke-width:4; stroke-opacity:1; fill:none" points="255.035,1486.45 255.035,1467.55 "/>
<polyline clip-path="url(#clip620)" style="stroke:#000000; stroke-linecap:round; stroke-linejoin:round; stroke-width:4; stroke-opacity:1; fill:none" points="579.173,1486.45 579.173,1467.55 "/>
<polyline clip-path="url(#clip620)" style="stroke:#000000; stroke-linecap:round; stroke-linejoin:round; stroke-width:4; stroke-opacity:1; fill:none" points="903.312,1486.45 903.312,1467.55 "/>
<polyline clip-path="url(#clip620)" style="stroke:#000000; stroke-linecap:round; stroke-linejoin:round; stroke-width:4; stroke-opacity:1; fill:none" points="1227.45,1486.45 1227.45,1467.55 "/>
<polyline clip-path="url(#clip620)" style="stroke:#000000; stroke-linecap:round; stroke-linejoin:round; stroke-width:4; stroke-opacity:1; fill:none" points="1551.59,1486.45 1551.59,1467.55 "/>
<polyline clip-path="url(#clip620)" style="stroke:#000000; stroke-linecap:round; stroke-linejoin:round; stroke-width:4; stroke-opacity:1; fill:none" points="1875.73,1486.45 1875.73,1467.55 "/>
<polyline clip-path="url(#clip620)" style="stroke:#000000; stroke-linecap:round; stroke-linejoin:round; stroke-width:4; stroke-opacity:1; fill:none" points="2199.87,1486.45 2199.87,1467.55 "/>
<path clip-path="url(#clip620)" d="M255.035 1517.37 Q251.424 1517.37 249.595 1520.93 Q247.789 1524.47 247.789 1531.6 Q247.789 1538.71 249.595 1542.27 Q251.424 1545.82 255.035 1545.82 Q258.669 1545.82 260.474 1542.27 Q262.303 1538.71 262.303 1531.6 Q262.303 1524.47 260.474 1520.93 Q258.669 1517.37 255.035 1517.37 M255.035 1513.66 Q260.845 1513.66 263.9 1518.27 Q266.979 1522.85 266.979 1531.6 Q266.979 1540.33 263.9 1544.94 Q260.845 1549.52 255.035 1549.52 Q249.225 1549.52 246.146 1544.94 Q243.09 1540.33 243.09 1531.6 Q243.09 1522.85 246.146 1518.27 Q249.225 1513.66 255.035 1513.66 Z" fill="#000000" fill-rule="nonzero" fill-opacity="1" /><path clip-path="url(#clip620)" d="M569.555 1544.91 L577.194 1544.91 L577.194 1518.55 L568.884 1520.21 L568.884 1515.95 L577.148 1514.29 L581.824 1514.29 L581.824 1544.91 L589.463 1544.91 L589.463 1548.85 L569.555 1548.85 L569.555 1544.91 Z" fill="#000000" fill-rule="nonzero" fill-opacity="1" /><path clip-path="url(#clip620)" d="M897.965 1544.91 L914.284 1544.91 L914.284 1548.85 L892.34 1548.85 L892.34 1544.91 Q895.002 1542.16 899.585 1537.53 Q904.191 1532.88 905.372 1531.53 Q907.617 1529.01 908.497 1527.27 Q909.4 1525.51 909.4 1523.82 Q909.4 1521.07 907.455 1519.33 Q905.534 1517.6 902.432 1517.6 Q900.233 1517.6 897.779 1518.36 Q895.349 1519.13 892.571 1520.68 L892.571 1515.95 Q895.395 1514.82 897.849 1514.24 Q900.303 1513.66 902.34 1513.66 Q907.71 1513.66 910.904 1516.35 Q914.099 1519.03 914.099 1523.52 Q914.099 1525.65 913.289 1527.57 Q912.502 1529.47 910.395 1532.07 Q909.816 1532.74 906.715 1535.95 Q903.613 1539.15 897.965 1544.91 Z" fill="#000000" fill-rule="nonzero" fill-opacity="1" /><path clip-path="url(#clip620)" d="M1231.7 1530.21 Q1235.05 1530.93 1236.93 1533.2 Q1238.83 1535.47 1238.83 1538.8 Q1238.83 1543.92 1235.31 1546.72 Q1231.79 1549.52 1225.31 1549.52 Q1223.13 1549.52 1220.82 1549.08 Q1218.53 1548.66 1216.07 1547.81 L1216.07 1543.29 Q1218.02 1544.43 1220.33 1545.01 Q1222.65 1545.58 1225.17 1545.58 Q1229.57 1545.58 1231.86 1543.85 Q1234.17 1542.11 1234.17 1538.8 Q1234.17 1535.75 1232.02 1534.03 Q1229.89 1532.3 1226.07 1532.3 L1222.05 1532.3 L1222.05 1528.45 L1226.26 1528.45 Q1229.71 1528.45 1231.54 1527.09 Q1233.36 1525.7 1233.36 1523.11 Q1233.36 1520.45 1231.47 1519.03 Q1229.59 1517.6 1226.07 1517.6 Q1224.15 1517.6 1221.95 1518.01 Q1219.75 1518.43 1217.11 1519.31 L1217.11 1515.14 Q1219.78 1514.4 1222.09 1514.03 Q1224.43 1513.66 1226.49 1513.66 Q1231.81 1513.66 1234.92 1516.09 Q1238.02 1518.5 1238.02 1522.62 Q1238.02 1525.49 1236.37 1527.48 Q1234.73 1529.45 1231.7 1530.21 Z" fill="#000000" fill-rule="nonzero" fill-opacity="1" /><path clip-path="url(#clip620)" d="M1554.6 1518.36 L1542.79 1536.81 L1554.6 1536.81 L1554.6 1518.36 M1553.37 1514.29 L1559.25 1514.29 L1559.25 1536.81 L1564.18 1536.81 L1564.18 1540.7 L1559.25 1540.7 L1559.25 1548.85 L1554.6 1548.85 L1554.6 1540.7 L1539 1540.7 L1539 1536.19 L1553.37 1514.29 Z" fill="#000000" fill-rule="nonzero" fill-opacity="1" /><path clip-path="url(#clip620)" d="M1866.01 1514.29 L1884.36 1514.29 L1884.36 1518.22 L1870.29 1518.22 L1870.29 1526.7 Q1871.31 1526.35 1872.32 1526.19 Q1873.34 1526 1874.36 1526 Q1880.15 1526 1883.53 1529.17 Q1886.91 1532.34 1886.91 1537.76 Q1886.91 1543.34 1883.44 1546.44 Q1879.96 1549.52 1873.64 1549.52 Q1871.47 1549.52 1869.2 1549.15 Q1866.95 1548.78 1864.55 1548.04 L1864.55 1543.34 Q1866.63 1544.47 1868.85 1545.03 Q1871.07 1545.58 1873.55 1545.58 Q1877.56 1545.58 1879.89 1543.48 Q1882.23 1541.37 1882.23 1537.76 Q1882.23 1534.15 1879.89 1532.04 Q1877.56 1529.94 1873.55 1529.94 Q1871.68 1529.94 1869.8 1530.35 Q1867.95 1530.77 1866.01 1531.65 L1866.01 1514.29 Z" fill="#000000" fill-rule="nonzero" fill-opacity="1" /><path clip-path="url(#clip620)" d="M2200.27 1529.7 Q2197.12 1529.7 2195.27 1531.86 Q2193.44 1534.01 2193.44 1537.76 Q2193.44 1541.49 2195.27 1543.66 Q2197.12 1545.82 2200.27 1545.82 Q2203.42 1545.82 2205.25 1543.66 Q2207.1 1541.49 2207.1 1537.76 Q2207.1 1534.01 2205.25 1531.86 Q2203.42 1529.7 2200.27 1529.7 M2209.55 1515.05 L2209.55 1519.31 Q2207.79 1518.48 2205.99 1518.04 Q2204.21 1517.6 2202.45 1517.6 Q2197.82 1517.6 2195.36 1520.72 Q2192.93 1523.85 2192.59 1530.17 Q2193.95 1528.15 2196.01 1527.09 Q2198.07 1526 2200.55 1526 Q2205.76 1526 2208.77 1529.17 Q2211.8 1532.32 2211.8 1537.76 Q2211.8 1543.08 2208.65 1546.3 Q2205.5 1549.52 2200.27 1549.52 Q2194.28 1549.52 2191.1 1544.94 Q2187.93 1540.33 2187.93 1531.6 Q2187.93 1523.41 2191.82 1518.55 Q2195.71 1513.66 2202.26 1513.66 Q2204.02 1513.66 2205.8 1514.01 Q2207.61 1514.36 2209.55 1515.05 Z" fill="#000000" fill-rule="nonzero" fill-opacity="1" /><polyline clip-path="url(#clip620)" style="stroke:#000000; stroke-linecap:round; stroke-linejoin:round; stroke-width:4; stroke-opacity:1; fill:none" points="193.936,1486.45 193.936,47.2441 "/>
<polyline clip-path="url(#clip620)" style="stroke:#000000; stroke-linecap:round; stroke-linejoin:round; stroke-width:4; stroke-opacity:1; fill:none" points="193.936,1267.23 212.834,1267.23 "/>
<polyline clip-path="url(#clip620)" style="stroke:#000000; stroke-linecap:round; stroke-linejoin:round; stroke-width:4; stroke-opacity:1; fill:none" points="193.936,1019.08 212.834,1019.08 "/>
<polyline clip-path="url(#clip620)" style="stroke:#000000; stroke-linecap:round; stroke-linejoin:round; stroke-width:4; stroke-opacity:1; fill:none" points="193.936,770.934 212.834,770.934 "/>
<polyline clip-path="url(#clip620)" style="stroke:#000000; stroke-linecap:round; stroke-linejoin:round; stroke-width:4; stroke-opacity:1; fill:none" points="193.936,522.788 212.834,522.788 "/>
<polyline clip-path="url(#clip620)" style="stroke:#000000; stroke-linecap:round; stroke-linejoin:round; stroke-width:4; stroke-opacity:1; fill:none" points="193.936,274.641 212.834,274.641 "/>
<path clip-path="url(#clip620)" d="M50.9921 1267.68 L80.6679 1267.68 L80.6679 1271.61 L50.9921 1271.61 L50.9921 1267.68 Z" fill="#000000" fill-rule="nonzero" fill-opacity="1" /><path clip-path="url(#clip620)" d="M91.5706 1280.57 L99.2095 1280.57 L99.2095 1254.21 L90.8993 1255.87 L90.8993 1251.61 L99.1632 1249.95 L103.839 1249.95 L103.839 1280.57 L111.478 1280.57 L111.478 1284.51 L91.5706 1284.51 L91.5706 1280.57 Z" fill="#000000" fill-rule="nonzero" fill-opacity="1" /><path clip-path="url(#clip620)" d="M120.922 1278.63 L125.807 1278.63 L125.807 1284.51 L120.922 1284.51 L120.922 1278.63 Z" fill="#000000" fill-rule="nonzero" fill-opacity="1" /><path clip-path="url(#clip620)" d="M145.992 1253.03 Q142.381 1253.03 140.552 1256.59 Q138.746 1260.13 138.746 1267.26 Q138.746 1274.37 140.552 1277.93 Q142.381 1281.48 145.992 1281.48 Q149.626 1281.48 151.431 1277.93 Q153.26 1274.37 153.26 1267.26 Q153.26 1260.13 151.431 1256.59 Q149.626 1253.03 145.992 1253.03 M145.992 1249.32 Q151.802 1249.32 154.857 1253.93 Q157.936 1258.51 157.936 1267.26 Q157.936 1275.99 154.857 1280.6 Q151.802 1285.18 145.992 1285.18 Q140.181 1285.18 137.103 1280.6 Q134.047 1275.99 134.047 1267.26 Q134.047 1258.51 137.103 1253.93 Q140.181 1249.32 145.992 1249.32 Z" fill="#000000" fill-rule="nonzero" fill-opacity="1" /><path clip-path="url(#clip620)" d="M51.9875 1019.53 L81.6633 1019.53 L81.6633 1023.47 L51.9875 1023.47 L51.9875 1019.53 Z" fill="#000000" fill-rule="nonzero" fill-opacity="1" /><path clip-path="url(#clip620)" d="M101.756 1004.88 Q98.1447 1004.88 96.316 1008.44 Q94.5104 1011.99 94.5104 1019.12 Q94.5104 1026.22 96.316 1029.79 Q98.1447 1033.33 101.756 1033.33 Q105.39 1033.33 107.196 1029.79 Q109.024 1026.22 109.024 1019.12 Q109.024 1011.99 107.196 1008.44 Q105.39 1004.88 101.756 1004.88 M101.756 1001.18 Q107.566 1001.18 110.621 1005.78 Q113.7 1010.37 113.7 1019.12 Q113.7 1027.84 110.621 1032.45 Q107.566 1037.03 101.756 1037.03 Q95.9456 1037.03 92.8669 1032.45 Q89.8114 1027.84 89.8114 1019.12 Q89.8114 1010.37 92.8669 1005.78 Q95.9456 1001.18 101.756 1001.18 Z" fill="#000000" fill-rule="nonzero" fill-opacity="1" /><path clip-path="url(#clip620)" d="M121.918 1030.48 L126.802 1030.48 L126.802 1036.36 L121.918 1036.36 L121.918 1030.48 Z" fill="#000000" fill-rule="nonzero" fill-opacity="1" /><path clip-path="url(#clip620)" d="M137.033 1001.8 L155.39 1001.8 L155.39 1005.74 L141.316 1005.74 L141.316 1014.21 Q142.334 1013.86 143.353 1013.7 Q144.371 1013.51 145.39 1013.51 Q151.177 1013.51 154.556 1016.69 Q157.936 1019.86 157.936 1025.27 Q157.936 1030.85 154.464 1033.95 Q150.992 1037.03 144.672 1037.03 Q142.496 1037.03 140.228 1036.66 Q137.982 1036.29 135.575 1035.55 L135.575 1030.85 Q137.658 1031.99 139.881 1032.54 Q142.103 1033.1 144.58 1033.1 Q148.584 1033.1 150.922 1030.99 Q153.26 1028.88 153.26 1025.27 Q153.26 1021.66 150.922 1019.56 Q148.584 1017.45 144.58 1017.45 Q142.705 1017.45 140.83 1017.87 Q138.978 1018.28 137.033 1019.16 L137.033 1001.8 Z" fill="#000000" fill-rule="nonzero" fill-opacity="1" /><path clip-path="url(#clip620)" d="M100.76 756.733 Q97.1493 756.733 95.3206 760.298 Q93.515 763.84 93.515 770.969 Q93.515 778.076 95.3206 781.64 Q97.1493 785.182 100.76 785.182 Q104.395 785.182 106.2 781.64 Q108.029 778.076 108.029 770.969 Q108.029 763.84 106.2 760.298 Q104.395 756.733 100.76 756.733 M100.76 753.029 Q106.571 753.029 109.626 757.636 Q112.705 762.219 112.705 770.969 Q112.705 779.696 109.626 784.302 Q106.571 788.886 100.76 788.886 Q94.9502 788.886 91.8715 784.302 Q88.816 779.696 88.816 770.969 Q88.816 762.219 91.8715 757.636 Q94.9502 753.029 100.76 753.029 Z" fill="#000000" fill-rule="nonzero" fill-opacity="1" /><path clip-path="url(#clip620)" d="M120.922 782.335 L125.807 782.335 L125.807 788.214 L120.922 788.214 L120.922 782.335 Z" fill="#000000" fill-rule="nonzero" fill-opacity="1" /><path clip-path="url(#clip620)" d="M145.992 756.733 Q142.381 756.733 140.552 760.298 Q138.746 763.84 138.746 770.969 Q138.746 778.076 140.552 781.64 Q142.381 785.182 145.992 785.182 Q149.626 785.182 151.431 781.64 Q153.26 778.076 153.26 770.969 Q153.26 763.84 151.431 760.298 Q149.626 756.733 145.992 756.733 M145.992 753.029 Q151.802 753.029 154.857 757.636 Q157.936 762.219 157.936 770.969 Q157.936 779.696 154.857 784.302 Q151.802 788.886 145.992 788.886 Q140.181 788.886 137.103 784.302 Q134.047 779.696 134.047 770.969 Q134.047 762.219 137.103 757.636 Q140.181 753.029 145.992 753.029 Z" fill="#000000" fill-rule="nonzero" fill-opacity="1" /><path clip-path="url(#clip620)" d="M101.756 508.587 Q98.1447 508.587 96.316 512.151 Q94.5104 515.693 94.5104 522.823 Q94.5104 529.929 96.316 533.494 Q98.1447 537.035 101.756 537.035 Q105.39 537.035 107.196 533.494 Q109.024 529.929 109.024 522.823 Q109.024 515.693 107.196 512.151 Q105.39 508.587 101.756 508.587 M101.756 504.883 Q107.566 504.883 110.621 509.489 Q113.7 514.073 113.7 522.823 Q113.7 531.549 110.621 536.156 Q107.566 540.739 101.756 540.739 Q95.9456 540.739 92.8669 536.156 Q89.8114 531.549 89.8114 522.823 Q89.8114 514.073 92.8669 509.489 Q95.9456 504.883 101.756 504.883 Z" fill="#000000" fill-rule="nonzero" fill-opacity="1" /><path clip-path="url(#clip620)" d="M121.918 534.188 L126.802 534.188 L126.802 540.068 L121.918 540.068 L121.918 534.188 Z" fill="#000000" fill-rule="nonzero" fill-opacity="1" /><path clip-path="url(#clip620)" d="M137.033 505.508 L155.39 505.508 L155.39 509.443 L141.316 509.443 L141.316 517.915 Q142.334 517.568 143.353 517.406 Q144.371 517.221 145.39 517.221 Q151.177 517.221 154.556 520.392 Q157.936 523.563 157.936 528.98 Q157.936 534.559 154.464 537.66 Q150.992 540.739 144.672 540.739 Q142.496 540.739 140.228 540.369 Q137.982 539.998 135.575 539.258 L135.575 534.559 Q137.658 535.693 139.881 536.248 Q142.103 536.804 144.58 536.804 Q148.584 536.804 150.922 534.698 Q153.26 532.591 153.26 528.98 Q153.26 525.369 150.922 523.262 Q148.584 521.156 144.58 521.156 Q142.705 521.156 140.83 521.573 Q138.978 521.989 137.033 522.869 L137.033 505.508 Z" fill="#000000" fill-rule="nonzero" fill-opacity="1" /><path clip-path="url(#clip620)" d="M91.5706 287.986 L99.2095 287.986 L99.2095 261.621 L90.8993 263.287 L90.8993 259.028 L99.1632 257.361 L103.839 257.361 L103.839 287.986 L111.478 287.986 L111.478 291.921 L91.5706 291.921 L91.5706 287.986 Z" fill="#000000" fill-rule="nonzero" fill-opacity="1" /><path clip-path="url(#clip620)" d="M120.922 286.042 L125.807 286.042 L125.807 291.921 L120.922 291.921 L120.922 286.042 Z" fill="#000000" fill-rule="nonzero" fill-opacity="1" /><path clip-path="url(#clip620)" d="M145.992 260.44 Q142.381 260.44 140.552 264.005 Q138.746 267.546 138.746 274.676 Q138.746 281.782 140.552 285.347 Q142.381 288.889 145.992 288.889 Q149.626 288.889 151.431 285.347 Q153.26 281.782 153.26 274.676 Q153.26 267.546 151.431 264.005 Q149.626 260.44 145.992 260.44 M145.992 256.736 Q151.802 256.736 154.857 261.343 Q157.936 265.926 157.936 274.676 Q157.936 283.403 154.857 288.009 Q151.802 292.593 145.992 292.593 Q140.181 292.593 137.103 288.009 Q134.047 283.403 134.047 274.676 Q134.047 265.926 137.103 261.343 Q140.181 256.736 145.992 256.736 Z" fill="#000000" fill-rule="nonzero" fill-opacity="1" /><polyline clip-path="url(#clip622)" style="stroke:#009af9; stroke-linecap:round; stroke-linejoin:round; stroke-width:4; stroke-opacity:1; fill:none" points="255.035,770.934 258.276,765.972 261.517,761.009 264.759,756.048 268,751.088 271.242,746.13 274.483,741.175 277.724,736.222 280.966,731.273 284.207,726.328 287.449,721.388 290.69,716.452 293.931,711.522 297.173,706.598 300.414,701.68 303.655,696.769 306.897,691.866 310.138,686.97 313.38,682.083 316.621,677.205 319.862,672.336 323.104,667.477 326.345,662.629 329.587,657.791 332.828,652.964 336.069,648.15 339.311,643.347 342.552,638.557 345.793,633.781 349.035,629.018 352.276,624.27 355.518,619.536 358.759,614.817 362,610.114 365.242,605.427 368.483,600.757 371.725,596.103 374.966,591.467 378.207,586.849 381.449,582.25 384.69,577.669 387.931,573.107 391.173,568.566 394.414,564.044 397.656,559.544 400.897,555.064 404.138,550.606 407.38,546.17 410.621,541.757 413.863,537.366 417.104,532.999 420.345,528.655 423.587,524.336 426.828,520.042 430.069,515.772 433.311,511.528 436.552,507.31 439.794,503.119 443.035,498.954 446.276,494.816 449.518,490.706 452.759,486.624 456.001,482.571 459.242,478.546 462.483,474.55 465.725,470.585 468.966,466.649 472.208,462.743 475.449,458.869 478.69,455.025 481.932,451.214 485.173,447.434 488.414,443.686 491.656,439.972 494.897,436.29 498.139,432.642 501.38,429.027 504.621,425.447 507.863,421.902 511.104,418.391 514.346,414.916 517.587,411.476 520.828,408.072 524.07,404.704 527.311,401.373 530.552,398.079 533.794,394.822 537.035,391.603 540.277,388.422 543.518,385.279 546.759,382.175 550.001,379.109 553.242,376.083 556.484,373.096 559.725,370.149 562.966,367.242 566.208,364.375 569.449,361.549 572.69,358.764 575.932,356.02 579.173,353.318 582.415,350.658 585.656,348.039 588.897,345.463 592.139,342.929 595.38,340.438 598.622,337.99 601.863,335.586 605.104,333.225 608.346,330.908 611.587,328.634 614.828,326.405 618.07,324.221 621.311,322.081 624.553,319.986 627.794,317.936 631.035,315.931 634.277,313.972 637.518,312.059 640.76,310.191 644.001,308.37 647.242,306.595 650.484,304.866 653.725,303.184 656.966,301.548 660.208,299.96 663.449,298.419 666.691,296.924 669.932,295.478 673.173,294.079 676.415,292.727 679.656,291.423 682.898,290.168 686.139,288.96 689.38,287.801 692.622,286.69 695.863,285.627 699.104,284.613 702.346,283.647 705.587,282.73 708.829,281.862 712.07,281.043 715.311,280.273 718.553,279.552 721.794,278.88 725.036,278.258 728.277,277.684 731.518,277.16 734.76,276.686 738.001,276.26 741.242,275.884 744.484,275.558 747.725,275.281 750.967,275.054 754.208,274.877 757.449,274.749 760.691,274.67 763.932,274.641 767.174,274.662 770.415,274.733 773.656,274.853 776.898,275.023 780.139,275.242 783.381,275.511 786.622,275.829 789.863,276.197 793.105,276.615 796.346,277.081 799.587,277.598 802.829,278.163 806.07,278.778 809.312,279.442 812.553,280.155 815.794,280.917 819.036,281.729 822.277,282.589 825.519,283.498 828.76,284.456 832.001,285.462 835.243,286.517 838.484,287.621 841.725,288.772 844.967,289.972 848.208,291.22 851.45,292.516 854.691,293.86 857.932,295.252 861.174,296.691 864.415,298.177 867.657,299.711 870.898,301.292 874.139,302.92 877.381,304.595 880.622,306.316 883.863,308.084 887.105,309.898 890.346,311.758 893.588,313.664 896.829,315.616 900.07,317.614 903.312,319.656 906.553,321.744 909.795,323.877 913.036,326.054 916.277,328.276 919.519,330.543 922.76,332.853 926.001,335.207 929.243,337.605 932.484,340.045 935.726,342.53 938.967,345.056 942.208,347.626 945.45,350.238 948.691,352.892 951.933,355.587 955.174,358.325 958.415,361.103 961.657,363.922 964.898,366.783 968.139,369.683 971.381,372.624 974.622,375.604 977.864,378.625 981.105,381.684 984.346,384.782 987.588,387.919 990.829,391.094 994.071,394.307 997.312,397.558 1000.55,400.846 1003.79,404.171 1007.04,407.533 1010.28,410.931 1013.52,414.365 1016.76,417.835 1020,421.34 1023.24,424.88 1026.48,428.455 1029.73,432.064 1032.97,435.707 1036.21,439.383 1039.45,443.093 1042.69,446.835 1045.93,450.609 1049.17,454.416 1052.42,458.255 1055.66,462.124 1058.9,466.025 1062.14,469.956 1065.38,473.917 1068.62,477.908 1071.86,481.928 1075.11,485.977 1078.35,490.054 1081.59,494.16 1084.83,498.293 1088.07,502.454 1091.31,506.641 1094.55,510.855 1097.79,515.095 1101.04,519.36 1104.28,523.651 1107.52,527.966 1110.76,532.305 1114,536.669 1117.24,541.056 1120.48,545.466 1123.73,549.898 1126.97,554.353 1130.21,558.829 1133.45,563.326 1136.69,567.844 1139.93,572.383 1143.17,576.941 1146.42,581.519 1149.66,586.115 1152.9,590.73 1156.14,595.364 1159.38,600.014 1162.62,604.682 1165.86,609.367 1169.11,614.067 1172.35,618.783 1175.59,623.515 1178.83,628.261 1182.07,633.022 1185.31,637.796 1188.55,642.583 1191.8,647.384 1195.04,652.197 1198.28,657.021 1201.52,661.857 1204.76,666.704 1208,671.562 1211.24,676.429 1214.48,681.306 1217.73,686.191 1220.97,691.086 1224.21,695.988 1227.45,700.898 1230.69,705.814 1233.93,710.737 1237.17,715.667 1240.42,720.601 1243.66,725.541 1246.9,730.485 1250.14,735.434 1253.38,740.386 1256.62,745.341 1259.86,750.298 1263.11,755.258 1266.35,760.219 1269.59,765.181 1272.83,770.144 1276.07,775.107 1279.31,780.069 1282.55,785.031 1285.8,789.991 1289.04,794.949 1292.28,799.905 1295.52,804.858 1298.76,809.808 1302,814.753 1305.24,819.695 1308.48,824.631 1311.73,829.562 1314.97,834.487 1318.21,839.406 1321.45,844.318 1324.69,849.223 1327.93,854.119 1331.17,859.008 1334.42,863.888 1337.66,868.758 1340.9,873.618 1344.14,878.469 1347.38,883.308 1350.62,888.137 1353.86,892.953 1357.11,897.758 1360.35,902.549 1363.59,907.328 1366.83,912.093 1370.07,916.844 1373.31,921.58 1376.55,926.301 1379.8,931.007 1383.04,935.696 1386.28,940.37 1389.52,945.026 1392.76,949.665 1396,954.285 1399.24,958.888 1402.49,963.472 1405.73,968.036 1408.97,972.581 1412.21,977.106 1415.45,981.61 1418.69,986.093 1421.93,990.554 1425.17,994.994 1428.42,999.411 1431.66,1003.81 1434.9,1008.18 1438.14,1012.52 1441.38,1016.85 1444.62,1021.14 1447.86,1025.42 1451.11,1029.67 1454.35,1033.89 1457.59,1038.08 1460.83,1042.25 1464.07,1046.4 1467.31,1050.51 1470.55,1054.6 1473.8,1058.65 1477.04,1062.68 1480.28,1066.68 1483.52,1070.65 1486.76,1074.6 1490,1078.51 1493.24,1082.39 1496.49,1086.23 1499.73,1090.05 1502.97,1093.84 1506.21,1097.59 1509.45,1101.31 1512.69,1104.99 1515.93,1108.65 1519.18,1112.27 1522.42,1115.85 1525.66,1119.4 1528.9,1122.92 1532.14,1126.4 1535.38,1129.85 1538.62,1133.26 1541.86,1136.63 1545.11,1139.97 1548.35,1143.27 1551.59,1146.53 1554.83,1149.76 1558.07,1152.94 1561.31,1156.09 1564.55,1159.2 1567.8,1162.27 1571.04,1165.31 1574.28,1168.3 1577.52,1171.25 1580.76,1174.17 1584,1177.04 1587.24,1179.87 1590.49,1182.66 1593.73,1185.41 1596.97,1188.12 1600.21,1190.79 1603.45,1193.42 1606.69,1196 1609.93,1198.54 1613.18,1201.04 1616.42,1203.49 1619.66,1205.9 1622.9,1208.27 1626.14,1210.6 1629.38,1212.88 1632.62,1215.11 1635.86,1217.3 1639.11,1219.45 1642.35,1221.55 1645.59,1223.61 1648.83,1225.62 1652.07,1227.59 1655.31,1229.51 1658.55,1231.38 1661.8,1233.21 1665.04,1234.99 1668.28,1236.73 1671.52,1238.42 1674.76,1240.06 1678,1241.66 1681.24,1243.21 1684.49,1244.71 1687.73,1246.16 1690.97,1247.57 1694.21,1248.93 1697.45,1250.24 1700.69,1251.5 1703.93,1252.72 1707.18,1253.89 1710.42,1255.01 1713.66,1256.08 1716.9,1257.1 1720.14,1258.07 1723.38,1259 1726.62,1259.87 1729.87,1260.7 1733.11,1261.48 1736.35,1262.21 1739.59,1262.88 1742.83,1263.52 1746.07,1264.1 1749.31,1264.63 1752.55,1265.11 1755.8,1265.54 1759.04,1265.93 1762.28,1266.26 1765.52,1266.55 1768.76,1266.78 1772,1266.97 1775.24,1267.1 1778.49,1267.19 1781.73,1267.23 1784.97,1267.21 1788.21,1267.15 1791.45,1267.04 1794.69,1266.88 1797.93,1266.67 1801.18,1266.4 1804.42,1266.09 1807.66,1265.73 1810.9,1265.32 1814.14,1264.87 1817.38,1264.36 1820.62,1263.8 1823.87,1263.19 1827.11,1262.54 1830.35,1261.83 1833.59,1261.08 1836.83,1260.27 1840.07,1259.42 1843.31,1258.52 1846.55,1257.57 1849.8,1256.57 1853.04,1255.52 1856.28,1254.43 1859.52,1253.28 1862.76,1252.09 1866,1250.85 1869.24,1249.56 1872.49,1248.23 1875.73,1246.84 1878.97,1245.41 1882.21,1243.93 1885.45,1242.41 1888.69,1240.83 1891.93,1239.21 1895.18,1237.54 1898.42,1235.83 1901.66,1234.07 1904.9,1232.26 1908.14,1230.41 1911.38,1228.51 1914.62,1226.57 1917.87,1224.58 1921.11,1222.54 1924.35,1220.46 1927.59,1218.33 1930.83,1216.16 1934.07,1213.95 1937.31,1211.69 1940.56,1209.39 1943.8,1207.04 1947.04,1204.65 1950.28,1202.22 1953.52,1199.74 1956.76,1197.22 1960,1194.66 1963.24,1192.05 1966.49,1189.4 1969.73,1186.71 1972.97,1183.98 1976.21,1181.21 1979.45,1178.4 1982.69,1175.54 1985.93,1172.65 1989.18,1169.72 1992.42,1166.74 1995.66,1163.73 1998.9,1160.67 2002.14,1157.58 2005.38,1154.45 2008.62,1151.28 2011.87,1148.08 2015.11,1144.83 2018.35,1141.55 2021.59,1138.23 2024.83,1134.87 2028.07,1131.48 2031.31,1128.05 2034.56,1124.59 2037.8,1121.09 2041.04,1117.55 2044.28,1113.99 2047.52,1110.38 2050.76,1106.74 2054,1103.07 2057.24,1099.37 2060.49,1095.63 2063.73,1091.86 2066.97,1088.06 2070.21,1084.23 2073.45,1080.36 2076.69,1076.47 2079.93,1072.54 2083.18,1068.58 2086.42,1064.6 2089.66,1060.58 2092.9,1056.54 2096.14,1052.47 2099.38,1048.36 2102.62,1044.24 2105.87,1040.08 2109.11,1035.9 2112.35,1031.69 2115.59,1027.45 2118.83,1023.19 2122.07,1018.9 2125.31,1014.59 2128.56,1010.26 2131.8,1005.9 2135.04,1001.51 2138.28,997.107 2141.52,992.678 2144.76,988.227 2148,983.754 2151.25,979.26 2154.49,974.746 2157.73,970.21 2160.97,965.655 2164.21,961.081 2167.45,956.487 2170.69,951.875 2173.93,947.244 2177.18,942.596 2180.42,937.931 2183.66,933.25 2186.9,928.551 2190.14,923.838 2193.38,919.109 2196.62,914.365 2199.87,909.606 2203.11,904.834 2206.35,900.049 2209.59,895.25 2212.83,890.44 2216.07,885.617 2219.31,880.783 2222.56,875.937 2225.8,871.082 2229.04,866.216 2232.28,861.34 2235.52,856.456 2238.76,851.563 2242,846.662 2245.25,841.754 2248.49,836.838 2251.73,831.916 2254.97,826.988 2258.21,822.054 2261.45,817.115 2264.69,812.171 2267.94,807.223 2271.18,802.272 2274.42,797.318 2277.66,792.36 2280.9,787.401 2284.14,782.44 2287.38,777.478 2290.62,772.515 "/>
<circle clip-path="url(#clip622)" cx="1295.52" cy="686.248" r="14.4" fill="#e26f46" fill-rule="evenodd" fill-opacity="1" stroke="#000000" stroke-opacity="1" stroke-width="3.2"/>
<circle clip-path="url(#clip622)" cx="310.138" cy="666" r="14.4" fill="#e26f46" fill-rule="evenodd" fill-opacity="1" stroke="#000000" stroke-opacity="1" stroke-width="3.2"/>
<circle clip-path="url(#clip622)" cx="481.932" cy="544.136" r="14.4" fill="#e26f46" fill-rule="evenodd" fill-opacity="1" stroke="#000000" stroke-opacity="1" stroke-width="3.2"/>
<circle clip-path="url(#clip622)" cx="407.38" cy="499.746" r="14.4" fill="#e26f46" fill-rule="evenodd" fill-opacity="1" stroke="#000000" stroke-opacity="1" stroke-width="3.2"/>
<circle clip-path="url(#clip622)" cx="2066.97" cy="1073" r="14.4" fill="#e26f46" fill-rule="evenodd" fill-opacity="1" stroke="#000000" stroke-opacity="1" stroke-width="3.2"/>
<circle clip-path="url(#clip622)" cx="2206.35" cy="858.565" r="14.4" fill="#e26f46" fill-rule="evenodd" fill-opacity="1" stroke="#000000" stroke-opacity="1" stroke-width="3.2"/>
<circle clip-path="url(#clip622)" cx="679.656" cy="209.362" r="14.4" fill="#e26f46" fill-rule="evenodd" fill-opacity="1" stroke="#000000" stroke-opacity="1" stroke-width="3.2"/>
<circle clip-path="url(#clip622)" cx="1671.52" cy="1198.07" r="14.4" fill="#e26f46" fill-rule="evenodd" fill-opacity="1" stroke="#000000" stroke-opacity="1" stroke-width="3.2"/>
<circle clip-path="url(#clip622)" cx="802.829" cy="188.214" r="14.4" fill="#e26f46" fill-rule="evenodd" fill-opacity="1" stroke="#000000" stroke-opacity="1" stroke-width="3.2"/>
<circle clip-path="url(#clip622)" cx="2125.31" cy="1041.85" r="14.4" fill="#e26f46" fill-rule="evenodd" fill-opacity="1" stroke="#000000" stroke-opacity="1" stroke-width="3.2"/>
<circle clip-path="url(#clip622)" cx="841.725" cy="305.723" r="14.4" fill="#e26f46" fill-rule="evenodd" fill-opacity="1" stroke="#000000" stroke-opacity="1" stroke-width="3.2"/>
<circle clip-path="url(#clip622)" cx="870.898" cy="233.076" r="14.4" fill="#e26f46" fill-rule="evenodd" fill-opacity="1" stroke="#000000" stroke-opacity="1" stroke-width="3.2"/>
<circle clip-path="url(#clip622)" cx="1661.8" cy="1218.07" r="14.4" fill="#e26f46" fill-rule="evenodd" fill-opacity="1" stroke="#000000" stroke-opacity="1" stroke-width="3.2"/>
<circle clip-path="url(#clip622)" cx="1759.04" cy="1332.12" r="14.4" fill="#e26f46" fill-rule="evenodd" fill-opacity="1" stroke="#000000" stroke-opacity="1" stroke-width="3.2"/>
<circle clip-path="url(#clip622)" cx="1023.24" cy="332.842" r="14.4" fill="#e26f46" fill-rule="evenodd" fill-opacity="1" stroke="#000000" stroke-opacity="1" stroke-width="3.2"/>
<circle clip-path="url(#clip622)" cx="1577.52" cy="1068.41" r="14.4" fill="#e26f46" fill-rule="evenodd" fill-opacity="1" stroke="#000000" stroke-opacity="1" stroke-width="3.2"/>
<circle clip-path="url(#clip622)" cx="1032.97" cy="461.799" r="14.4" fill="#e26f46" fill-rule="evenodd" fill-opacity="1" stroke="#000000" stroke-opacity="1" stroke-width="3.2"/>
<circle clip-path="url(#clip622)" cx="274.483" cy="636.542" r="14.4" fill="#e26f46" fill-rule="evenodd" fill-opacity="1" stroke="#000000" stroke-opacity="1" stroke-width="3.2"/>
<circle clip-path="url(#clip622)" cx="274.483" cy="630.578" r="14.4" fill="#e26f46" fill-rule="evenodd" fill-opacity="1" stroke="#000000" stroke-opacity="1" stroke-width="3.2"/>
<circle clip-path="url(#clip622)" cx="1162.62" cy="722.605" r="14.4" fill="#e26f46" fill-rule="evenodd" fill-opacity="1" stroke="#000000" stroke-opacity="1" stroke-width="3.2"/>
<path clip-path="url(#clip622)" d="M255.035 834.294 L258.276 829.717 L261.517 825.268 L264.759 820.959 L268 816.805 L271.242 812.818 L274.483 809.011 L277.724 805.394 L280.966 801.964 L284.207 798.714 L287.449 795.636 L290.69 792.724 L293.931 789.969 L297.173 787.364 L300.414 784.899 L303.655 782.567 L306.897 780.36 L310.138 778.269 L313.38 776.285 L316.621 774.396 L319.862 772.588 L323.104 770.849 L326.345 769.165 L329.587 767.525 L332.828 765.92 L336.069 764.338 L339.311 762.77 L342.552 761.209 L345.793 759.647 L349.035 758.078 L352.276 756.498 L355.518 754.901 L358.759 753.284 L362 751.646 L365.242 749.984 L368.483 748.297 L371.725 746.587 L374.966 744.854 L378.207 743.099 L381.449 741.325 L384.69 739.536 L387.931 737.735 L391.173 735.926 L394.414 734.115 L397.656 732.307 L400.897 730.507 L404.138 728.724 L407.38 726.962 L410.621 725.228 L413.863 723.518 L417.104 721.828 L420.345 720.154 L423.587 718.492 L426.828 716.84 L430.069 715.193 L433.311 713.55 L436.552 711.908 L439.794 710.265 L443.035 708.62 L446.276 706.971 L449.518 705.318 L452.759 703.661 L456.001 701.999 L459.242 700.334 L462.483 698.664 L465.725 696.993 L468.966 695.32 L472.208 693.647 L475.449 691.976 L478.69 690.308 L481.932 688.645 L485.173 686.988 L488.414 685.331 L491.656 683.669 L494.897 681.997 L498.139 680.309 L501.38 678.599 L504.621 676.862 L507.863 675.094 L511.104 673.289 L514.346 671.443 L517.587 669.551 L520.828 667.61 L524.07 665.617 L527.311 663.567 L530.552 661.458 L533.794 659.286 L537.035 657.05 L540.277 654.747 L543.518 652.375 L546.759 649.933 L550.001 647.419 L553.242 644.832 L556.484 642.172 L559.725 639.438 L562.966 636.63 L566.208 633.748 L569.449 630.793 L572.69 627.764 L575.932 624.663 L579.173 621.491 L582.415 618.249 L585.656 614.94 L588.897 611.564 L592.139 608.125 L595.38 604.625 L598.622 601.066 L601.863 597.452 L605.104 593.786 L608.346 590.071 L611.587 586.311 L614.828 582.512 L618.07 578.676 L621.311 574.808 L624.553 570.915 L627.794 567 L631.035 563.071 L634.277 559.131 L637.518 555.189 L640.76 551.249 L644.001 547.32 L647.242 543.408 L650.484 539.521 L653.725 535.665 L656.966 531.85 L660.208 528.083 L663.449 524.372 L666.691 520.727 L669.932 517.156 L673.173 513.668 L676.415 510.272 L679.656 506.977 L682.898 503.79 L686.139 500.707 L689.38 497.722 L692.622 494.829 L695.863 492.022 L699.104 489.294 L702.346 486.642 L705.587 484.058 L708.829 481.538 L712.07 479.078 L715.311 476.673 L718.553 474.319 L721.794 472.013 L725.036 469.751 L728.277 467.532 L731.518 465.352 L734.76 463.21 L738.001 461.106 L741.242 459.038 L744.484 457.006 L747.725 455.012 L750.967 453.055 L754.208 451.139 L757.449 449.264 L760.691 447.435 L763.932 445.655 L767.174 443.927 L770.415 442.257 L773.656 440.651 L776.898 439.114 L780.139 437.653 L783.381 436.276 L786.622 434.992 L789.863 433.808 L793.105 432.734 L796.346 431.78 L799.587 430.957 L802.829 430.275 L806.07 429.743 L809.312 429.363 L812.553 429.133 L815.794 429.055 L819.036 429.126 L822.277 429.349 L825.519 429.723 L828.76 430.249 L832.001 430.931 L835.243 431.768 L838.484 432.763 L841.725 433.919 L844.967 435.237 L848.208 436.714 L851.45 438.346 L854.691 440.129 L857.932 442.06 L861.174 444.136 L864.415 446.352 L867.657 448.708 L870.898 451.2 L874.139 453.825 L877.381 456.57 L880.622 459.424 L883.863 462.374 L887.105 465.407 L890.346 468.513 L893.588 471.681 L896.829 474.9 L900.07 478.162 L903.312 481.456 L906.553 484.775 L909.795 488.112 L913.036 491.459 L916.277 494.811 L919.519 498.161 L922.76 501.505 L926.001 504.839 L929.243 508.158 L932.484 511.461 L935.726 514.744 L938.967 518.006 L942.208 521.246 L945.45 524.463 L948.691 527.658 L951.933 530.83 L955.174 533.981 L958.415 537.113 L961.657 540.229 L964.898 543.331 L968.139 546.423 L971.381 549.509 L974.622 552.595 L977.864 555.685 L981.105 558.785 L984.346 561.903 L987.588 565.046 L990.829 568.221 L994.071 571.436 L997.312 574.701 L1000.55 578.026 L1003.79 581.419 L1007.04 584.891 L1010.28 588.454 L1013.52 592.117 L1016.76 595.893 L1020 599.792 L1023.24 603.827 L1026.48 608.005 L1029.73 612.327 L1032.97 616.788 L1036.21 621.386 L1039.45 626.108 L1042.69 630.944 L1045.93 635.882 L1049.17 640.91 L1052.42 646.017 L1055.66 651.191 L1058.9 656.422 L1062.14 661.699 L1065.38 667.013 L1068.62 672.354 L1071.86 677.712 L1075.11 683.08 L1078.35 688.449 L1081.59 693.811 L1084.83 699.161 L1088.07 704.492 L1091.31 709.798 L1094.55 715.073 L1097.79 720.314 L1101.04 725.516 L1104.28 730.675 L1107.52 735.789 L1110.76 740.855 L1114 745.871 L1117.24 750.835 L1120.48 755.746 L1123.73 760.605 L1126.97 765.41 L1130.21 770.161 L1133.45 774.86 L1136.69 779.508 L1139.93 784.106 L1143.17 788.655 L1146.42 793.158 L1149.66 797.616 L1152.9 802.033 L1156.14 806.41 L1159.38 810.752 L1162.62 815.059 L1165.86 819.335 L1169.11 823.579 L1172.35 827.787 L1175.59 831.959 L1178.83 836.093 L1182.07 840.187 L1185.31 844.239 L1188.55 848.249 L1191.8 852.215 L1195.04 856.136 L1198.28 860.013 L1201.52 863.845 L1204.76 867.633 L1208 871.377 L1211.24 875.077 L1214.48 878.736 L1217.73 882.355 L1220.97 885.936 L1224.21 889.481 L1227.45 892.994 L1230.69 896.476 L1233.93 899.933 L1237.17 903.368 L1240.42 906.784 L1243.66 910.187 L1246.9 913.582 L1250.14 916.974 L1253.38 920.369 L1256.62 923.772 L1259.86 927.191 L1263.11 930.631 L1266.35 934.1 L1269.59 937.604 L1272.83 941.151 L1276.07 944.749 L1279.31 948.404 L1282.55 952.126 L1285.8 955.922 L1289.04 959.799 L1292.28 963.766 L1295.52 967.83 L1298.76 971.998 L1302 976.264 L1305.24 980.62 L1308.48 985.061 L1311.73 989.579 L1314.97 994.167 L1318.21 998.817 L1321.45 1003.52 L1324.69 1008.28 L1327.93 1013.08 L1331.17 1017.91 L1334.42 1022.77 L1337.66 1027.66 L1340.9 1032.57 L1344.14 1037.48 L1347.38 1042.41 L1350.62 1047.33 L1353.86 1052.25 L1357.11 1057.17 L1360.35 1062.07 L1363.59 1066.96 L1366.83 1071.82 L1370.07 1076.66 L1373.31 1081.47 L1376.55 1086.25 L1379.8 1090.99 L1383.04 1095.7 L1386.28 1100.36 L1389.52 1104.98 L1392.76 1109.56 L1396 1114.08 L1399.24 1118.55 L1402.49 1122.97 L1405.73 1127.34 L1408.97 1131.64 L1412.21 1135.89 L1415.45 1140.08 L1418.69 1144.2 L1421.93 1148.26 L1425.17 1152.26 L1428.42 1156.19 L1431.66 1160.05 L1434.9 1163.85 L1438.14 1167.58 L1441.38 1171.24 L1444.62 1174.82 L1447.86 1178.34 L1451.11 1181.79 L1454.35 1185.17 L1457.59 1188.47 L1460.83 1191.71 L1464.07 1194.87 L1467.31 1197.96 L1470.55 1200.98 L1473.8 1203.93 L1477.04 1206.82 L1480.28 1209.63 L1483.52 1212.37 L1486.76 1215.05 L1490 1217.66 L1493.24 1220.21 L1496.49 1222.69 L1499.73 1225.11 L1502.97 1227.47 L1506.21 1229.77 L1509.45 1232.01 L1512.69 1234.2 L1515.93 1236.34 L1519.18 1238.42 L1522.42 1240.46 L1525.66 1242.45 L1528.9 1244.41 L1532.14 1246.32 L1535.38 1248.2 L1538.62 1250.06 L1541.86 1251.88 L1545.11 1253.68 L1548.35 1255.47 L1551.59 1257.24 L1554.83 1259.01 L1558.07 1260.78 L1561.31 1262.55 L1564.55 1264.33 L1567.8 1266.12 L1571.04 1267.94 L1574.28 1269.78 L1577.52 1271.67 L1580.76 1273.59 L1584 1275.55 L1587.24 1277.54 L1590.49 1279.57 L1593.73 1281.62 L1596.97 1283.69 L1600.21 1285.79 L1603.45 1287.91 L1606.69 1290.04 L1609.93 1292.18 L1613.18 1294.34 L1616.42 1296.52 L1619.66 1298.7 L1622.9 1300.9 L1626.14 1303.11 L1629.38 1305.33 L1632.62 1307.57 L1635.86 1309.84 L1639.11 1312.12 L1642.35 1314.43 L1645.59 1316.77 L1648.83 1319.15 L1652.07 1321.57 L1655.31 1324.03 L1658.55 1326.54 L1661.8 1329.11 L1665.04 1331.74 L1668.28 1334.44 L1671.52 1337.19 L1674.76 1340 L1678 1342.86 L1681.24 1345.76 L1684.49 1348.7 L1687.73 1351.66 L1690.97 1354.63 L1694.21 1357.62 L1697.45 1360.61 L1700.69 1363.59 L1703.93 1366.56 L1707.18 1369.52 L1710.42 1372.45 L1713.66 1375.35 L1716.9 1378.23 L1720.14 1381.06 L1723.38 1383.86 L1726.62 1386.62 L1729.87 1389.34 L1733.11 1392.01 L1736.35 1394.63 L1739.59 1397.21 L1742.83 1399.74 L1746.07 1402.23 L1749.31 1404.67 L1752.55 1407.06 L1755.8 1409.4 L1759.04 1411.7 L1762.28 1413.95 L1765.52 1416.15 L1768.76 1418.29 L1772 1420.38 L1775.24 1422.41 L1778.49 1424.37 L1781.73 1426.26 L1784.97 1428.08 L1788.21 1429.82 L1791.45 1431.49 L1794.69 1433.08 L1797.93 1434.58 L1801.18 1435.99 L1804.42 1437.32 L1807.66 1438.55 L1810.9 1439.69 L1814.14 1440.74 L1817.38 1441.69 L1820.62 1442.54 L1823.87 1443.29 L1827.11 1443.95 L1830.35 1444.5 L1833.59 1444.95 L1836.83 1445.3 L1840.07 1445.54 L1843.31 1445.68 L1846.55 1445.72 L1849.8 1445.65 L1853.04 1445.47 L1856.28 1445.19 L1859.52 1444.8 L1862.76 1444.31 L1866 1443.71 L1869.24 1443.01 L1872.49 1442.2 L1875.73 1441.29 L1878.97 1440.27 L1882.21 1439.14 L1885.45 1437.91 L1888.69 1436.58 L1891.93 1435.14 L1895.18 1433.6 L1898.42 1431.96 L1901.66 1430.21 L1904.9 1428.37 L1908.14 1426.42 L1911.38 1424.37 L1914.62 1422.22 L1917.87 1419.97 L1921.11 1417.63 L1924.35 1415.18 L1927.59 1412.64 L1930.83 1410 L1934.07 1407.27 L1937.31 1404.44 L1940.56 1401.53 L1943.8 1398.51 L1947.04 1395.41 L1950.28 1392.22 L1953.52 1388.94 L1956.76 1385.57 L1960 1382.12 L1963.24 1378.58 L1966.49 1374.96 L1969.73 1371.26 L1972.97 1367.48 L1976.21 1363.63 L1979.45 1359.69 L1982.69 1355.69 L1985.93 1351.61 L1989.18 1347.47 L1992.42 1343.26 L1995.66 1338.99 L1998.9 1334.66 L2002.14 1330.27 L2005.38 1325.83 L2008.62 1321.34 L2011.87 1316.81 L2015.11 1312.23 L2018.35 1307.61 L2021.59 1302.97 L2024.83 1298.29 L2028.07 1293.59 L2031.31 1288.88 L2034.56 1284.16 L2037.8 1279.43 L2041.04 1274.7 L2044.28 1269.98 L2047.52 1265.27 L2050.76 1260.59 L2054 1255.94 L2057.24 1251.33 L2060.49 1246.77 L2063.73 1242.26 L2066.97 1237.82 L2070.21 1233.45 L2073.45 1229.15 L2076.69 1224.92 L2079.93 1220.77 L2083.18 1216.69 L2086.42 1212.69 L2089.66 1208.77 L2092.9 1204.92 L2096.14 1201.15 L2099.38 1197.46 L2102.62 1193.85 L2105.87 1190.33 L2109.11 1186.89 L2112.35 1183.55 L2115.59 1180.3 L2118.83 1177.15 L2122.07 1174.1 L2125.31 1171.15 L2128.56 1168.31 L2131.8 1165.59 L2135.04 1162.96 L2138.28 1160.44 L2141.52 1158.01 L2144.76 1155.69 L2148 1153.46 L2151.25 1151.33 L2154.49 1149.3 L2157.73 1147.36 L2160.97 1145.52 L2164.21 1143.78 L2167.45 1142.14 L2170.69 1140.6 L2173.93 1139.16 L2177.18 1137.84 L2180.42 1136.62 L2183.66 1135.52 L2186.9 1134.54 L2190.14 1133.68 L2193.38 1132.95 L2196.62 1132.36 L2199.87 1131.9 L2203.11 1131.59 L2206.35 1131.43 L2209.59 1131.43 L2212.83 1131.57 L2216.07 1131.85 L2219.31 1132.26 L2222.56 1132.8 L2225.8 1133.45 L2229.04 1134.2 L2232.28 1135.06 L2235.52 1136.01 L2238.76 1137.04 L2242 1138.15 L2245.25 1139.34 L2248.49 1140.59 L2251.73 1141.9 L2254.97 1143.26 L2258.21 1144.68 L2261.45 1146.14 L2264.69 1147.64 L2267.94 1149.17 L2271.18 1150.74 L2274.42 1152.34 L2277.66 1153.96 L2280.9 1155.6 L2284.14 1157.26 L2287.38 1158.94 L2290.62 1160.62 L2290.62 571.406 L2287.38 576.401 L2284.14 581.441 L2280.9 586.526 L2277.66 591.652 L2274.42 596.817 L2271.18 602.02 L2267.94 607.258 L2264.69 612.528 L2261.45 617.827 L2258.21 623.151 L2254.97 628.498 L2251.73 633.864 L2248.49 639.244 L2245.25 644.634 L2242 650.031 L2238.76 655.428 L2235.52 660.821 L2232.28 666.205 L2229.04 671.574 L2225.8 676.923 L2222.56 682.244 L2219.31 687.532 L2216.07 692.779 L2212.83 697.98 L2209.59 703.128 L2206.35 708.214 L2203.11 713.235 L2199.87 718.188 L2196.62 723.076 L2193.38 727.898 L2190.14 732.656 L2186.9 737.349 L2183.66 741.978 L2180.42 746.543 L2177.18 751.043 L2173.93 755.478 L2170.69 759.846 L2167.45 764.146 L2164.21 768.375 L2160.97 772.531 L2157.73 776.61 L2154.49 780.61 L2151.25 784.525 L2148 788.352 L2144.76 792.084 L2141.52 795.716 L2138.28 799.243 L2135.04 802.656 L2131.8 805.95 L2128.56 809.117 L2125.31 812.15 L2122.07 815.042 L2118.83 817.795 L2115.59 820.414 L2112.35 822.903 L2109.11 825.263 L2105.87 827.5 L2102.62 829.614 L2099.38 831.609 L2096.14 833.486 L2092.9 835.248 L2089.66 836.894 L2086.42 838.427 L2083.18 839.846 L2079.93 841.151 L2076.69 842.343 L2073.45 843.421 L2070.21 844.385 L2066.97 845.232 L2063.73 845.965 L2060.49 846.593 L2057.24 847.125 L2054 847.572 L2050.76 847.944 L2047.52 848.252 L2044.28 848.503 L2041.04 848.709 L2037.8 848.876 L2034.56 849.013 L2031.31 849.129 L2028.07 849.231 L2024.83 849.325 L2021.59 849.419 L2018.35 849.519 L2015.11 849.631 L2011.87 849.76 L2008.62 849.912 L2005.38 850.092 L2002.14 850.304 L1998.9 850.552 L1995.66 850.842 L1992.42 851.175 L1989.18 851.557 L1985.93 851.989 L1982.69 852.476 L1979.45 853.019 L1976.21 853.622 L1972.97 854.286 L1969.73 855.015 L1966.49 855.809 L1963.24 856.67 L1960 857.601 L1956.76 858.602 L1953.52 859.675 L1950.28 860.821 L1947.04 862.041 L1943.8 863.335 L1940.56 864.705 L1937.31 866.15 L1934.07 867.671 L1930.83 869.269 L1927.59 870.943 L1924.35 872.694 L1921.11 874.52 L1917.87 876.423 L1914.62 878.402 L1911.38 880.456 L1908.14 882.584 L1904.9 884.786 L1901.66 887.061 L1898.42 889.408 L1895.18 891.826 L1891.93 894.313 L1888.69 896.869 L1885.45 899.491 L1882.21 902.178 L1878.97 904.928 L1875.73 907.739 L1872.49 910.61 L1869.24 913.538 L1866 916.52 L1862.76 919.555 L1859.52 922.639 L1856.28 925.769 L1853.04 928.944 L1849.8 932.158 L1846.55 935.41 L1843.31 938.694 L1840.07 942.009 L1836.83 945.349 L1833.59 948.71 L1830.35 952.088 L1827.11 955.478 L1823.87 958.876 L1820.62 962.275 L1817.38 965.671 L1814.14 969.058 L1810.9 972.429 L1807.66 975.779 L1804.42 979.101 L1801.18 982.387 L1797.93 985.63 L1794.69 988.823 L1791.45 991.957 L1788.21 995.025 L1784.97 998.018 L1781.73 1000.93 L1778.49 1003.74 L1775.24 1006.45 L1772 1009.05 L1768.76 1011.52 L1765.52 1013.86 L1762.28 1016.05 L1759.04 1018.08 L1755.8 1019.95 L1752.55 1021.66 L1749.31 1023.2 L1746.07 1024.59 L1742.83 1025.83 L1739.59 1026.93 L1736.35 1027.87 L1733.11 1028.68 L1729.87 1029.35 L1726.62 1029.88 L1723.38 1030.27 L1720.14 1030.53 L1716.9 1030.65 L1713.66 1030.63 L1710.42 1030.48 L1707.18 1030.18 L1703.93 1029.74 L1700.69 1029.14 L1697.45 1028.4 L1694.21 1027.5 L1690.97 1026.43 L1687.73 1025.19 L1684.49 1023.78 L1681.24 1022.17 L1678 1020.38 L1674.76 1018.37 L1671.52 1016.16 L1668.28 1013.73 L1665.04 1011.08 L1661.8 1008.21 L1658.55 1005.12 L1655.31 1001.83 L1652.07 998.337 L1648.83 994.664 L1645.59 990.817 L1642.35 986.809 L1639.11 982.649 L1635.86 978.347 L1632.62 973.911 L1629.38 969.35 L1626.14 964.672 L1622.9 959.884 L1619.66 954.992 L1616.42 950.002 L1613.18 944.918 L1609.93 939.744 L1606.69 934.485 L1603.45 929.144 L1600.21 923.721 L1596.97 918.221 L1593.73 912.643 L1590.49 906.989 L1587.24 901.259 L1584 895.454 L1580.76 889.573 L1577.52 883.617 L1574.28 877.585 L1571.04 871.487 L1567.8 865.33 L1564.55 859.123 L1561.31 852.875 L1558.07 846.594 L1554.83 840.287 L1551.59 833.963 L1548.35 827.629 L1545.11 821.292 L1541.86 814.958 L1538.62 808.634 L1535.38 802.326 L1532.14 796.04 L1528.9 789.781 L1525.66 783.554 L1522.42 777.364 L1519.18 771.216 L1515.93 765.114 L1512.69 759.062 L1509.45 753.065 L1506.21 747.125 L1502.97 741.246 L1499.73 735.431 L1496.49 729.684 L1493.24 724.006 L1490 718.401 L1486.76 712.87 L1483.52 707.417 L1480.28 702.042 L1477.04 696.749 L1473.8 691.538 L1470.55 686.412 L1467.31 681.371 L1464.07 676.417 L1460.83 671.551 L1457.59 666.775 L1454.35 662.088 L1451.11 657.492 L1447.86 652.988 L1444.62 648.575 L1441.38 644.255 L1438.14 640.028 L1434.9 635.893 L1431.66 631.851 L1428.42 627.902 L1425.17 624.045 L1421.93 620.281 L1418.69 616.609 L1415.45 613.028 L1412.21 609.538 L1408.97 606.137 L1405.73 602.826 L1402.49 599.603 L1399.24 596.466 L1396 593.415 L1392.76 590.448 L1389.52 587.564 L1386.28 584.76 L1383.04 582.035 L1379.8 579.387 L1376.55 576.814 L1373.31 574.312 L1370.07 571.881 L1366.83 569.517 L1363.59 567.216 L1360.35 564.977 L1357.11 562.796 L1353.86 560.669 L1350.62 558.592 L1347.38 556.563 L1344.14 554.576 L1340.9 552.628 L1337.66 550.713 L1334.42 548.829 L1331.17 546.968 L1327.93 545.127 L1324.69 543.301 L1321.45 541.483 L1318.21 539.669 L1314.97 537.852 L1311.73 536.028 L1308.48 534.189 L1305.24 532.331 L1302 530.447 L1298.76 528.531 L1295.52 526.579 L1292.28 524.584 L1289.04 522.55 L1285.8 520.479 L1282.55 518.373 L1279.31 516.237 L1276.07 514.073 L1272.83 511.884 L1269.59 509.674 L1266.35 507.445 L1263.11 505.199 L1259.86 502.94 L1256.62 500.669 L1253.38 498.389 L1250.14 496.101 L1246.9 493.806 L1243.66 491.507 L1240.42 489.202 L1237.17 486.894 L1233.93 484.582 L1230.69 482.265 L1227.45 479.944 L1224.21 477.616 L1220.97 475.281 L1217.73 472.937 L1214.48 470.582 L1211.24 468.212 L1208 465.826 L1204.76 463.42 L1201.52 460.99 L1198.28 458.531 L1195.04 456.041 L1191.8 453.513 L1188.55 450.942 L1185.31 448.324 L1182.07 445.652 L1178.83 442.92 L1175.59 440.122 L1172.35 437.252 L1169.11 434.302 L1165.86 431.266 L1162.62 428.136 L1159.38 424.909 L1156.14 421.589 L1152.9 418.185 L1149.66 414.705 L1146.42 411.156 L1143.17 407.547 L1139.93 403.884 L1136.69 400.175 L1133.45 396.427 L1130.21 392.645 L1126.97 388.836 L1123.73 385.006 L1120.48 381.16 L1117.24 377.302 L1114 373.438 L1110.76 369.57 L1107.52 365.704 L1104.28 361.84 L1101.04 357.983 L1097.79 354.134 L1094.55 350.294 L1091.31 346.465 L1088.07 342.646 L1084.83 338.839 L1081.59 335.043 L1078.35 331.256 L1075.11 327.476 L1071.86 323.703 L1068.62 319.932 L1065.38 316.162 L1062.14 312.388 L1058.9 308.607 L1055.66 304.813 L1052.42 301.004 L1049.17 297.173 L1045.93 293.315 L1042.69 289.424 L1039.45 285.496 L1036.21 281.524 L1032.97 277.503 L1029.73 273.43 L1026.48 269.306 L1023.24 265.138 L1020 260.931 L1016.76 256.694 L1013.52 252.435 L1010.28 248.164 L1007.04 243.891 L1003.79 239.625 L1000.55 235.375 L997.312 231.149 L994.071 226.956 L990.829 222.804 L987.588 218.702 L984.346 214.656 L981.105 210.674 L977.864 206.761 L974.622 202.924 L971.381 199.168 L968.139 195.499 L964.898 191.92 L961.657 188.437 L958.415 185.052 L955.174 181.769 L951.933 178.589 L948.691 175.517 L945.45 172.552 L942.208 169.697 L938.967 166.953 L935.726 164.318 L932.484 161.794 L929.243 159.379 L926.001 157.073 L922.76 154.874 L919.519 152.779 L916.277 150.787 L913.036 148.893 L909.795 147.095 L906.553 145.388 L903.312 143.767 L900.07 142.228 L896.829 140.764 L893.588 139.37 L890.346 138.038 L887.105 136.762 L883.863 135.533 L880.622 134.344 L877.381 133.186 L874.139 132.05 L870.898 130.927 L867.657 129.809 L864.415 128.69 L861.174 127.567 L857.932 126.435 L854.691 125.289 L851.45 124.126 L848.208 122.941 L844.967 121.728 L841.725 120.483 L838.484 119.204 L835.243 117.892 L832.001 116.554 L828.76 115.195 L825.519 113.818 L822.277 112.43 L819.036 111.033 L815.794 109.634 L812.553 108.235 L809.312 106.84 L806.07 105.454 L802.829 104.08 L799.587 102.722 L796.346 101.387 L793.105 100.083 L789.863 98.8158 L786.622 97.5935 L783.381 96.4224 L780.139 95.3085 L776.898 94.2576 L773.656 93.2748 L770.415 92.3649 L767.174 91.5321 L763.932 90.7803 L760.691 90.1127 L757.449 89.5322 L754.208 89.041 L750.967 88.6411 L747.725 88.3339 L744.484 88.1204 L741.242 88.0011 L738.001 87.9763 L734.76 88.0456 L731.518 88.2084 L728.277 88.4638 L725.036 88.8103 L721.794 89.2464 L718.553 89.7699 L715.311 90.3787 L712.07 91.0701 L708.829 91.8414 L705.587 92.6895 L702.346 93.6111 L699.104 94.603 L695.863 95.6616 L692.622 96.7832 L689.38 97.9643 L686.139 99.2011 L682.898 100.49 L679.656 101.827 L676.415 103.211 L673.173 104.642 L669.932 106.123 L666.691 107.656 L663.449 109.244 L660.208 110.89 L656.966 112.597 L653.725 114.366 L650.484 116.2 L647.242 118.102 L644.001 120.073 L640.76 122.116 L637.518 124.233 L634.277 126.425 L631.035 128.694 L627.794 131.042 L624.553 133.468 L621.311 135.976 L618.07 138.564 L614.828 141.235 L611.587 143.988 L608.346 146.824 L605.104 149.743 L601.863 152.745 L598.622 155.829 L595.38 158.995 L592.139 162.243 L588.897 165.571 L585.656 168.978 L582.415 172.464 L579.173 176.027 L575.932 179.665 L572.69 183.376 L569.449 187.158 L566.208 191.01 L562.966 194.929 L559.725 198.912 L556.484 202.956 L553.242 207.058 L550.001 211.215 L546.759 215.424 L543.518 219.68 L540.277 223.98 L537.035 228.32 L533.794 232.694 L530.552 237.099 L527.311 241.529 L524.07 245.979 L520.828 250.444 L517.587 254.917 L514.346 259.394 L511.104 263.866 L507.863 268.329 L504.621 272.774 L501.38 277.196 L498.139 281.586 L494.897 285.938 L491.656 290.243 L488.414 294.494 L485.173 298.683 L481.932 302.802 L478.69 306.846 L475.449 310.816 L472.208 314.717 L468.966 318.554 L465.725 322.331 L462.483 326.053 L459.242 329.723 L456.001 333.346 L452.759 336.925 L449.518 340.463 L446.276 343.964 L443.035 347.429 L439.794 350.862 L436.552 354.264 L433.311 357.637 L430.069 360.982 L426.828 364.3 L423.587 367.591 L420.345 370.857 L417.104 374.095 L413.863 377.307 L410.621 380.491 L407.38 383.645 L404.138 386.771 L400.897 389.871 L397.656 392.95 L394.414 396.012 L391.173 399.061 L387.931 402.099 L384.69 405.13 L381.449 408.155 L378.207 411.177 L374.966 414.197 L371.725 417.214 L368.483 420.229 L365.242 423.24 L362 426.245 L358.759 429.242 L355.518 432.227 L352.276 435.196 L349.035 438.143 L345.793 441.062 L342.552 443.946 L339.311 446.787 L336.069 449.575 L332.828 452.3 L329.587 454.952 L326.345 457.518 L323.104 459.986 L319.862 462.342 L316.621 464.572 L313.38 466.66 L310.138 468.592 L306.897 470.353 L303.655 471.936 L300.414 473.335 L297.173 474.545 L293.931 475.559 L290.69 476.371 L287.449 476.976 L284.207 477.368 L280.966 477.542 L277.724 477.493 L274.483 477.217 L271.242 476.712 L268 475.989 L264.759 475.061 L261.517 473.941 L258.276 472.644 L255.035 471.182  Z" fill="#3da44d" fill-rule="evenodd" fill-opacity="0.1"/>
<polyline clip-path="url(#clip622)" style="stroke:#3da44d; stroke-linecap:round; stroke-linejoin:round; stroke-width:8; stroke-opacity:1; fill:none" points="255.035,652.738 258.276,651.18 261.517,649.604 264.759,648.01 268,646.397 271.242,644.765 274.483,643.114 277.724,641.444 280.966,639.753 284.207,638.041 287.449,636.306 290.69,634.548 293.931,632.764 297.173,630.954 300.414,629.117 303.655,627.252 306.897,625.357 310.138,623.43 313.38,621.473 316.621,619.484 319.862,617.465 323.104,615.417 326.345,613.342 329.587,611.239 332.828,609.11 336.069,606.956 339.311,604.778 342.552,602.577 345.793,600.355 349.035,598.111 352.276,595.847 355.518,593.564 358.759,591.263 362,588.945 365.242,586.612 368.483,584.263 371.725,581.901 374.966,579.525 378.207,577.138 381.449,574.74 384.69,572.333 387.931,569.917 391.173,567.493 394.414,565.063 397.656,562.628 400.897,560.189 404.138,557.747 407.38,555.304 410.621,552.859 413.863,550.412 417.104,547.961 420.345,545.505 423.587,543.042 426.828,540.57 430.069,538.088 433.311,535.593 436.552,533.086 439.794,530.563 443.035,528.024 446.276,525.467 449.518,522.891 452.759,520.293 456.001,517.673 459.242,515.028 462.483,512.359 465.725,509.662 468.966,506.937 472.208,504.182 475.449,501.396 478.69,498.577 481.932,495.724 485.173,492.835 488.414,489.912 491.656,486.956 494.897,483.967 498.139,480.947 501.38,477.897 504.621,474.818 507.863,471.711 511.104,468.577 514.346,465.418 517.587,462.234 520.828,459.027 524.07,455.798 527.311,452.548 530.552,449.278 533.794,445.99 537.035,442.685 540.277,439.363 543.518,436.027 546.759,432.678 550.001,429.317 553.242,425.945 556.484,422.564 559.725,419.175 562.966,415.78 566.208,412.379 569.449,408.976 572.69,405.57 575.932,402.164 579.173,398.759 582.415,395.357 585.656,391.959 588.897,388.568 592.139,385.184 595.38,381.81 598.622,378.448 601.863,375.098 605.104,371.764 608.346,368.448 611.587,365.15 614.828,361.873 618.07,358.62 621.311,355.392 624.553,352.192 627.794,349.021 631.035,345.882 634.277,342.778 637.518,339.711 640.76,336.683 644.001,333.697 647.242,330.755 650.484,327.86 653.725,325.016 656.966,322.223 660.208,319.487 663.449,316.808 666.691,314.192 669.932,311.639 673.173,309.155 676.415,306.741 679.656,304.402 682.898,302.14 686.139,299.954 689.38,297.843 692.622,295.806 695.863,293.842 699.104,291.949 702.346,290.126 705.587,288.374 708.829,286.69 712.07,285.074 715.311,283.526 718.553,282.045 721.794,280.63 725.036,279.281 728.277,277.998 731.518,276.78 734.76,275.628 738.001,274.541 741.242,273.519 744.484,272.563 747.725,271.673 750.967,270.848 754.208,270.09 757.449,269.398 760.691,268.774 763.932,268.217 767.174,267.73 770.415,267.311 773.656,266.963 776.898,266.686 780.139,266.481 783.381,266.349 786.622,266.293 789.863,266.312 793.105,266.408 796.346,266.584 799.587,266.839 802.829,267.177 806.07,267.599 809.312,268.101 812.553,268.684 815.794,269.344 819.036,270.08 822.277,270.889 825.519,271.77 828.76,272.722 832.001,273.742 835.243,274.83 838.484,275.983 841.725,277.201 844.967,278.483 848.208,279.827 851.45,281.236 854.691,282.709 857.932,284.247 861.174,285.851 864.415,287.521 867.657,289.258 870.898,291.064 874.139,292.937 877.381,294.878 880.622,296.884 883.863,298.953 887.105,301.084 890.346,303.276 893.588,305.525 896.829,307.832 900.07,310.195 903.312,312.611 906.553,315.081 909.795,317.603 913.036,320.176 916.277,322.799 919.519,325.47 922.76,328.189 926.001,330.956 929.243,333.769 932.484,336.627 935.726,339.531 938.967,342.48 942.208,345.472 945.45,348.508 948.691,351.587 951.933,354.71 955.174,357.875 958.415,361.083 961.657,364.333 964.898,367.626 968.139,370.961 971.381,374.339 974.622,377.759 977.864,381.223 981.105,384.73 984.346,388.28 987.588,391.874 990.829,395.513 994.071,399.196 997.312,402.925 1000.55,406.7 1003.79,410.522 1007.04,414.391 1010.28,418.309 1013.52,422.276 1016.76,426.293 1020,430.362 1023.24,434.482 1026.48,438.656 1029.73,442.878 1032.97,447.146 1036.21,451.455 1039.45,455.802 1042.69,460.184 1045.93,464.598 1049.17,469.041 1052.42,473.51 1055.66,478.002 1058.9,482.514 1062.14,487.044 1065.38,491.587 1068.62,496.143 1071.86,500.707 1075.11,505.278 1078.35,509.852 1081.59,514.427 1084.83,519 1088.07,523.569 1091.31,528.131 1094.55,532.684 1097.79,537.224 1101.04,541.749 1104.28,546.258 1107.52,550.746 1110.76,555.213 1114,559.654 1117.24,564.069 1120.48,568.453 1123.73,572.805 1126.97,577.123 1130.21,581.403 1133.45,585.644 1136.69,589.842 1139.93,593.995 1143.17,598.101 1146.42,602.157 1149.66,606.16 1152.9,610.109 1156.14,614 1159.38,617.83 1162.62,621.598 1165.86,625.3 1169.11,628.94 1172.35,632.52 1175.59,636.041 1178.83,639.507 1182.07,642.919 1185.31,646.281 1188.55,649.595 1191.8,652.864 1195.04,656.088 1198.28,659.272 1201.52,662.417 1204.76,665.526 1208,668.601 1211.24,671.645 1214.48,674.659 1217.73,677.646 1220.97,680.609 1224.21,683.549 1227.45,686.469 1230.69,689.371 1233.93,692.257 1237.17,695.131 1240.42,697.993 1243.66,700.847 1246.9,703.694 1250.14,706.538 1253.38,709.379 1256.62,712.221 1259.86,715.065 1263.11,717.915 1266.35,720.772 1269.59,723.639 1272.83,726.518 1276.07,729.411 1279.31,732.321 1282.55,735.25 1285.8,738.2 1289.04,741.174 1292.28,744.175 1295.52,747.205 1298.76,750.265 1302,753.355 1305.24,756.476 1308.48,759.625 1311.73,762.803 1314.97,766.01 1318.21,769.243 1321.45,772.503 1324.69,775.79 1327.93,779.102 1331.17,782.439 1334.42,785.801 1337.66,789.187 1340.9,792.596 1344.14,796.029 1347.38,799.484 1350.62,802.962 1353.86,806.461 1357.11,809.982 1360.35,813.524 1363.59,817.086 1366.83,820.668 1370.07,824.27 1373.31,827.891 1376.55,831.531 1379.8,835.189 1383.04,838.866 1386.28,842.561 1389.52,846.273 1392.76,850.002 1396,853.747 1399.24,857.509 1402.49,861.287 1405.73,865.081 1408.97,868.89 1412.21,872.714 1415.45,876.553 1418.69,880.406 1421.93,884.272 1425.17,888.153 1428.42,892.046 1431.66,895.953 1434.9,899.872 1438.14,903.803 1441.38,907.745 1444.62,911.7 1447.86,915.665 1451.11,919.641 1454.35,923.627 1457.59,927.623 1460.83,931.628 1464.07,935.643 1467.31,939.666 1470.55,943.697 1473.8,947.736 1477.04,951.783 1480.28,955.836 1483.52,959.895 1486.76,963.961 1490,968.031 1493.24,972.107 1496.49,976.187 1499.73,980.27 1502.97,984.357 1506.21,988.447 1509.45,992.538 1512.69,996.631 1515.93,1000.72 1519.18,1004.82 1522.42,1008.91 1525.66,1013 1528.9,1017.09 1532.14,1021.18 1535.38,1025.27 1538.62,1029.34 1541.86,1033.42 1545.11,1037.49 1548.35,1041.55 1551.59,1045.6 1554.83,1049.65 1558.07,1053.69 1561.31,1057.71 1564.55,1061.72 1567.8,1065.73 1571.04,1069.71 1574.28,1073.69 1577.52,1077.64 1580.76,1081.58 1584,1085.5 1587.24,1089.4 1590.49,1093.28 1593.73,1097.13 1596.97,1100.96 1600.21,1104.76 1603.45,1108.53 1606.69,1112.26 1609.93,1115.96 1613.18,1119.63 1616.42,1123.26 1619.66,1126.85 1622.9,1130.39 1626.14,1133.89 1629.38,1137.34 1632.62,1140.74 1635.86,1144.09 1639.11,1147.38 1642.35,1150.62 1645.59,1153.8 1648.83,1156.91 1652.07,1159.95 1655.31,1162.93 1658.55,1165.83 1661.8,1168.66 1665.04,1171.41 1668.28,1174.08 1671.52,1176.68 1674.76,1179.19 1678,1181.62 1681.24,1183.97 1684.49,1186.24 1687.73,1188.42 1690.97,1190.53 1694.21,1192.56 1697.45,1194.5 1700.69,1196.37 1703.93,1198.15 1707.18,1199.85 1710.42,1201.46 1713.66,1202.99 1716.9,1204.44 1720.14,1205.8 1723.38,1207.07 1726.62,1208.25 1729.87,1209.34 1733.11,1210.34 1736.35,1211.25 1739.59,1212.07 1742.83,1212.79 1746.07,1213.41 1749.31,1213.93 1752.55,1214.36 1755.8,1214.68 1759.04,1214.89 1762.28,1215 1765.52,1215 1768.76,1214.91 1772,1214.71 1775.24,1214.43 1778.49,1214.05 1781.73,1213.59 1784.97,1213.05 1788.21,1212.43 1791.45,1211.72 1794.69,1210.95 1797.93,1210.1 1801.18,1209.19 1804.42,1208.21 1807.66,1207.16 1810.9,1206.06 1814.14,1204.9 1817.38,1203.68 1820.62,1202.41 1823.87,1201.09 1827.11,1199.71 1830.35,1198.29 1833.59,1196.83 1836.83,1195.32 1840.07,1193.78 1843.31,1192.19 1846.55,1190.56 1849.8,1188.9 1853.04,1187.21 1856.28,1185.48 1859.52,1183.72 1862.76,1181.93 1866,1180.12 1869.24,1178.27 1872.49,1176.41 1875.73,1174.51 1878.97,1172.6 1882.21,1170.66 1885.45,1168.7 1888.69,1166.72 1891.93,1164.73 1895.18,1162.71 1898.42,1160.68 1901.66,1158.64 1904.9,1156.58 1908.14,1154.5 1911.38,1152.41 1914.62,1150.31 1917.87,1148.2 1921.11,1146.07 1924.35,1143.94 1927.59,1141.79 1930.83,1139.64 1934.07,1137.47 1937.31,1135.3 1940.56,1133.12 1943.8,1130.92 1947.04,1128.73 1950.28,1126.52 1953.52,1124.31 1956.76,1122.09 1960,1119.86 1963.24,1117.63 1966.49,1115.39 1969.73,1113.14 1972.97,1110.88 1976.21,1108.62 1979.45,1106.36 1982.69,1104.08 1985.93,1101.8 1989.18,1099.51 1992.42,1097.22 1995.66,1094.92 1998.9,1092.61 2002.14,1090.29 2005.38,1087.96 2008.62,1085.63 2011.87,1083.28 2015.11,1080.93 2018.35,1078.57 2021.59,1076.19 2024.83,1073.81 2028.07,1071.41 2031.31,1069 2034.56,1066.58 2037.8,1064.15 2041.04,1061.7 2044.28,1059.24 2047.52,1056.76 2050.76,1054.27 2054,1051.76 2057.24,1049.23 2060.49,1046.68 2063.73,1044.11 2066.97,1041.53 2070.21,1038.92 2073.45,1036.28 2076.69,1033.63 2079.93,1030.96 2083.18,1028.27 2086.42,1025.56 2089.66,1022.83 2092.9,1020.08 2096.14,1017.32 2099.38,1014.53 2102.62,1011.73 2105.87,1008.91 2109.11,1006.08 2112.35,1003.23 2115.59,1000.36 2118.83,997.471 2122.07,994.569 2125.31,991.651 2128.56,988.716 2131.8,985.768 2135.04,982.808 2138.28,979.84 2141.52,976.865 2144.76,973.887 2148,970.907 2151.25,967.929 2154.49,964.955 2157.73,961.986 2160.97,959.027 2164.21,956.078 2167.45,953.142 2170.69,950.223 2173.93,947.321 2177.18,944.44 2180.42,941.582 2183.66,938.749 2186.9,935.943 2190.14,933.168 2193.38,930.425 2196.62,927.716 2199.87,925.045 2203.11,922.413 2206.35,919.823 2209.59,917.277 2212.83,914.774 2216.07,912.314 2219.31,909.896 2222.56,907.52 2225.8,905.184 2229.04,902.888 2232.28,900.632 2235.52,898.414 2238.76,896.234 2242,894.091 2245.25,891.985 2248.49,889.915 2251.73,887.88 2254.97,885.88 2258.21,883.914 2261.45,881.982 2264.69,880.083 2267.94,878.216 2271.18,876.382 2274.42,874.578 2277.66,872.806 2280.9,871.064 2284.14,869.351 2287.38,867.668 2290.62,866.014 "/>
<polyline clip-path="url(#clip622)" style="stroke:#c271d2; stroke-linecap:round; stroke-linejoin:round; stroke-width:12; stroke-opacity:1; fill:none" points="255.035,775.196 362.225,698.556 469.416,633.719 576.607,551.565 683.797,437.367 790.988,379.034 898.179,421.749 1005.37,527.531 1112.56,683.113 1219.75,817.835 1326.94,935.592 1434.13,1077.02 1541.32,1180.34 1648.51,1266.08 1755.7,1345.97 1862.89,1358.87 1970.09,1286.88 2077.28,1161.99 2184.47,1071.07 2291.66,1064.92 "/>
<polyline clip-path="url(#clip622)" style="stroke:#ac8d18; stroke-linecap:round; stroke-linejoin:round; stroke-width:12; stroke-opacity:1; fill:none" points="255.035,530.28 362.225,479.012 469.416,379.394 576.607,251.344 683.797,165.684 790.988,153.638 898.179,195.869 1005.37,297.26 1112.56,432.25 1219.75,541.163 1326.94,620.579 1434.13,720.867 1541.32,885.133 1648.51,1047.13 1755.7,1083.37 1862.89,1004.85 1970.09,938.899 2077.28,904.315 2184.47,805.026 2291.66,666.068 "/>
<path clip-path="url(#clip620)" d="M1953.46 406.258 L2280.8 406.258 L2280.8 95.2176 L1953.46 95.2176  Z" fill="#ffffff" fill-rule="evenodd" fill-opacity="1"/>
<polyline clip-path="url(#clip620)" style="stroke:#000000; stroke-linecap:round; stroke-linejoin:round; stroke-width:4; stroke-opacity:1; fill:none" points="1953.46,406.258 2280.8,406.258 2280.8,95.2176 1953.46,95.2176 1953.46,406.258 "/>
<polyline clip-path="url(#clip620)" style="stroke:#009af9; stroke-linecap:round; stroke-linejoin:round; stroke-width:4; stroke-opacity:1; fill:none" points="1977.44,147.058 2121.36,147.058 "/>
<path clip-path="url(#clip620)" d="M2152.76 131.051 L2152.76 138.412 L2161.53 138.412 L2161.53 141.722 L2152.76 141.722 L2152.76 155.796 Q2152.76 158.967 2153.61 159.87 Q2154.49 160.773 2157.16 160.773 L2161.53 160.773 L2161.53 164.338 L2157.16 164.338 Q2152.23 164.338 2150.35 162.509 Q2148.48 160.657 2148.48 155.796 L2148.48 141.722 L2145.35 141.722 L2145.35 138.412 L2148.48 138.412 L2148.48 131.051 L2152.76 131.051 Z" fill="#000000" fill-rule="nonzero" fill-opacity="1" /><path clip-path="url(#clip620)" d="M2182.16 142.393 Q2181.44 141.977 2180.58 141.791 Q2179.75 141.583 2178.73 141.583 Q2175.12 141.583 2173.17 143.944 Q2171.25 146.282 2171.25 150.68 L2171.25 164.338 L2166.97 164.338 L2166.97 138.412 L2171.25 138.412 L2171.25 142.44 Q2172.6 140.078 2174.75 138.944 Q2176.9 137.787 2179.98 137.787 Q2180.42 137.787 2180.95 137.856 Q2181.48 137.903 2182.13 138.018 L2182.16 142.393 Z" fill="#000000" fill-rule="nonzero" fill-opacity="1" /><path clip-path="url(#clip620)" d="M2186.18 154.106 L2186.18 138.412 L2190.44 138.412 L2190.44 153.944 Q2190.44 157.625 2191.88 159.476 Q2193.31 161.305 2196.18 161.305 Q2199.63 161.305 2201.62 159.106 Q2203.64 156.907 2203.64 153.111 L2203.64 138.412 L2207.9 138.412 L2207.9 164.338 L2203.64 164.338 L2203.64 160.356 Q2202.09 162.717 2200.03 163.875 Q2197.99 165.009 2195.28 165.009 Q2190.81 165.009 2188.5 162.231 Q2186.18 159.453 2186.18 154.106 M2196.9 137.787 L2196.9 137.787 Z" fill="#000000" fill-rule="nonzero" fill-opacity="1" /><path clip-path="url(#clip620)" d="M2220.88 131.051 L2220.88 138.412 L2229.66 138.412 L2229.66 141.722 L2220.88 141.722 L2220.88 155.796 Q2220.88 158.967 2221.74 159.87 Q2222.62 160.773 2225.28 160.773 L2229.66 160.773 L2229.66 164.338 L2225.28 164.338 Q2220.35 164.338 2218.48 162.509 Q2216.6 160.657 2216.6 155.796 L2216.6 141.722 L2213.48 141.722 L2213.48 138.412 L2216.6 138.412 L2216.6 131.051 L2220.88 131.051 Z" fill="#000000" fill-rule="nonzero" fill-opacity="1" /><path clip-path="url(#clip620)" d="M2256.81 148.689 L2256.81 164.338 L2252.55 164.338 L2252.55 148.828 Q2252.55 145.148 2251.11 143.319 Q2249.68 141.49 2246.81 141.49 Q2243.36 141.49 2241.37 143.69 Q2239.38 145.889 2239.38 149.685 L2239.38 164.338 L2235.1 164.338 L2235.1 128.319 L2239.38 128.319 L2239.38 142.44 Q2240.91 140.102 2242.97 138.944 Q2245.05 137.787 2247.76 137.787 Q2252.23 137.787 2254.52 140.565 Q2256.81 143.319 2256.81 148.689 Z" fill="#000000" fill-rule="nonzero" fill-opacity="1" /><circle clip-path="url(#clip620)" cx="2049.4" cy="198.898" r="20.48" fill="#e26f46" fill-rule="evenodd" fill-opacity="1" stroke="#000000" stroke-opacity="1" stroke-width="4.55111"/>
<path clip-path="url(#clip620)" d="M2164.26 194.187 L2164.26 180.159 L2168.52 180.159 L2168.52 216.178 L2164.26 216.178 L2164.26 212.289 Q2162.92 214.603 2160.86 215.738 Q2158.82 216.849 2155.95 216.849 Q2151.25 216.849 2148.29 213.099 Q2145.35 209.349 2145.35 203.238 Q2145.35 197.127 2148.29 193.377 Q2151.25 189.627 2155.95 189.627 Q2158.82 189.627 2160.86 190.761 Q2162.92 191.872 2164.26 194.187 M2149.75 203.238 Q2149.75 207.937 2151.67 210.622 Q2153.61 213.284 2156.99 213.284 Q2160.37 213.284 2162.32 210.622 Q2164.26 207.937 2164.26 203.238 Q2164.26 198.539 2162.32 195.877 Q2160.37 193.192 2156.99 193.192 Q2153.61 193.192 2151.67 195.877 Q2149.75 198.539 2149.75 203.238 Z" fill="#000000" fill-rule="nonzero" fill-opacity="1" /><path clip-path="url(#clip620)" d="M2189.08 203.145 Q2183.92 203.145 2181.92 204.326 Q2179.93 205.506 2179.93 208.354 Q2179.93 210.622 2181.42 211.965 Q2182.92 213.284 2185.49 213.284 Q2189.03 213.284 2191.16 210.784 Q2193.31 208.261 2193.31 204.094 L2193.31 203.145 L2189.08 203.145 M2197.57 201.386 L2197.57 216.178 L2193.31 216.178 L2193.31 212.242 Q2191.85 214.603 2189.68 215.738 Q2187.5 216.849 2184.36 216.849 Q2180.37 216.849 2178.01 214.627 Q2175.67 212.381 2175.67 208.631 Q2175.67 204.256 2178.59 202.034 Q2181.53 199.812 2187.34 199.812 L2193.31 199.812 L2193.31 199.395 Q2193.31 196.455 2191.37 194.858 Q2189.45 193.238 2185.95 193.238 Q2183.73 193.238 2181.62 193.77 Q2179.52 194.303 2177.57 195.367 L2177.57 191.432 Q2179.91 190.53 2182.11 190.09 Q2184.31 189.627 2186.39 189.627 Q2192.02 189.627 2194.79 192.543 Q2197.57 195.46 2197.57 201.386 Z" fill="#000000" fill-rule="nonzero" fill-opacity="1" /><path clip-path="url(#clip620)" d="M2210.56 182.891 L2210.56 190.252 L2219.33 190.252 L2219.33 193.562 L2210.56 193.562 L2210.56 207.636 Q2210.56 210.807 2211.42 211.71 Q2212.29 212.613 2214.96 212.613 L2219.33 212.613 L2219.33 216.178 L2214.96 216.178 Q2210.03 216.178 2208.15 214.349 Q2206.28 212.497 2206.28 207.636 L2206.28 193.562 L2203.15 193.562 L2203.15 190.252 L2206.28 190.252 L2206.28 182.891 L2210.56 182.891 Z" fill="#000000" fill-rule="nonzero" fill-opacity="1" /><path clip-path="url(#clip620)" d="M2236.72 203.145 Q2231.55 203.145 2229.56 204.326 Q2227.57 205.506 2227.57 208.354 Q2227.57 210.622 2229.05 211.965 Q2230.56 213.284 2233.13 213.284 Q2236.67 213.284 2238.8 210.784 Q2240.95 208.261 2240.95 204.094 L2240.95 203.145 L2236.72 203.145 M2245.21 201.386 L2245.21 216.178 L2240.95 216.178 L2240.95 212.242 Q2239.49 214.603 2237.32 215.738 Q2235.14 216.849 2231.99 216.849 Q2228.01 216.849 2225.65 214.627 Q2223.31 212.381 2223.31 208.631 Q2223.31 204.256 2226.23 202.034 Q2229.17 199.812 2234.98 199.812 L2240.95 199.812 L2240.95 199.395 Q2240.95 196.455 2239.01 194.858 Q2237.09 193.238 2233.59 193.238 Q2231.37 193.238 2229.26 193.77 Q2227.16 194.303 2225.21 195.367 L2225.21 191.432 Q2227.55 190.53 2229.75 190.09 Q2231.95 189.627 2234.03 189.627 Q2239.66 189.627 2242.43 192.543 Q2245.21 195.46 2245.21 201.386 Z" fill="#000000" fill-rule="nonzero" fill-opacity="1" /><polyline clip-path="url(#clip620)" style="stroke:#3da44d; stroke-linecap:round; stroke-linejoin:round; stroke-width:8; stroke-opacity:1; fill:none" points="1977.44,250.738 2121.36,250.738 "/>
<path clip-path="url(#clip620)" d="M2170.91 263.087 L2170.91 253.805 L2163.27 253.805 L2163.27 249.962 L2175.54 249.962 L2175.54 264.8 Q2172.83 266.721 2169.56 267.717 Q2166.3 268.689 2162.6 268.689 Q2154.49 268.689 2149.91 263.967 Q2145.35 259.221 2145.35 250.772 Q2145.35 242.3 2149.91 237.578 Q2154.49 232.833 2162.6 232.833 Q2165.98 232.833 2169.01 233.666 Q2172.06 234.499 2174.63 236.12 L2174.63 241.096 Q2172.04 238.897 2169.12 237.786 Q2166.21 236.675 2162.99 236.675 Q2156.65 236.675 2153.45 240.217 Q2150.28 243.758 2150.28 250.772 Q2150.28 257.763 2153.45 261.305 Q2156.65 264.846 2162.99 264.846 Q2165.47 264.846 2167.41 264.43 Q2169.36 263.99 2170.91 263.087 Z" fill="#000000" fill-rule="nonzero" fill-opacity="1" /><path clip-path="url(#clip620)" d="M2188.75 237.3 L2188.75 250.286 L2194.63 250.286 Q2197.9 250.286 2199.68 248.596 Q2201.46 246.907 2201.46 243.782 Q2201.46 240.68 2199.68 238.99 Q2197.9 237.3 2194.63 237.3 L2188.75 237.3 M2184.08 233.458 L2194.63 233.458 Q2200.44 233.458 2203.41 236.096 Q2206.39 238.712 2206.39 243.782 Q2206.39 248.897 2203.41 251.513 Q2200.44 254.129 2194.63 254.129 L2188.75 254.129 L2188.75 268.018 L2184.08 268.018 L2184.08 233.458 Z" fill="#000000" fill-rule="nonzero" fill-opacity="1" /><polyline clip-path="url(#clip620)" style="stroke:#c271d2; stroke-linecap:round; stroke-linejoin:round; stroke-width:12; stroke-opacity:1; fill:none" points="1977.44,302.578 2121.36,302.578 "/>
<path clip-path="url(#clip620)" d="M2150.03 289.14 L2150.03 302.126 L2155.91 302.126 Q2159.17 302.126 2160.95 300.436 Q2162.73 298.747 2162.73 295.622 Q2162.73 292.52 2160.95 290.83 Q2159.17 289.14 2155.91 289.14 L2150.03 289.14 M2145.35 285.298 L2155.91 285.298 Q2161.72 285.298 2164.68 287.936 Q2167.67 290.552 2167.67 295.622 Q2167.67 300.737 2164.68 303.353 Q2161.72 305.969 2155.91 305.969 L2150.03 305.969 L2150.03 319.858 L2145.35 319.858 L2145.35 285.298 Z" fill="#000000" fill-rule="nonzero" fill-opacity="1" /><path clip-path="url(#clip620)" d="M2178.38 315.922 L2194.7 315.922 L2194.7 319.858 L2172.76 319.858 L2172.76 315.922 Q2175.42 313.168 2180 308.538 Q2184.61 303.885 2185.79 302.543 Q2188.04 300.02 2188.92 298.284 Q2189.82 296.524 2189.82 294.835 Q2189.82 292.08 2187.87 290.344 Q2185.95 288.608 2182.85 288.608 Q2180.65 288.608 2178.2 289.372 Q2175.77 290.135 2172.99 291.686 L2172.99 286.964 Q2175.81 285.83 2178.27 285.251 Q2180.72 284.673 2182.76 284.673 Q2188.13 284.673 2191.32 287.358 Q2194.52 290.043 2194.52 294.534 Q2194.52 296.663 2193.71 298.585 Q2192.92 300.483 2190.81 303.075 Q2190.23 303.747 2187.13 306.964 Q2184.03 310.159 2178.38 315.922 Z" fill="#000000" fill-rule="nonzero" fill-opacity="1" /><path clip-path="url(#clip620)" d="M2204.56 285.298 L2222.92 285.298 L2222.92 289.233 L2208.85 289.233 L2208.85 297.705 Q2209.86 297.358 2210.88 297.196 Q2211.9 297.01 2212.92 297.01 Q2218.71 297.01 2222.09 300.182 Q2225.47 303.353 2225.47 308.77 Q2225.47 314.348 2221.99 317.45 Q2218.52 320.529 2212.2 320.529 Q2210.03 320.529 2207.76 320.158 Q2205.51 319.788 2203.1 319.047 L2203.1 314.348 Q2205.19 315.483 2207.41 316.038 Q2209.63 316.594 2212.11 316.594 Q2216.11 316.594 2218.45 314.487 Q2220.79 312.381 2220.79 308.77 Q2220.79 305.159 2218.45 303.052 Q2216.11 300.946 2212.11 300.946 Q2210.23 300.946 2208.36 301.362 Q2206.51 301.779 2204.56 302.659 L2204.56 285.298 Z" fill="#000000" fill-rule="nonzero" fill-opacity="1" /><polyline clip-path="url(#clip620)" style="stroke:#ac8d18; stroke-linecap:round; stroke-linejoin:round; stroke-width:12; stroke-opacity:1; fill:none" points="1977.44,354.418 2121.36,354.418 "/>
<path clip-path="url(#clip620)" d="M2150.03 340.98 L2150.03 353.966 L2155.91 353.966 Q2159.17 353.966 2160.95 352.276 Q2162.73 350.587 2162.73 347.462 Q2162.73 344.36 2160.95 342.67 Q2159.17 340.98 2155.91 340.98 L2150.03 340.98 M2145.35 337.138 L2155.91 337.138 Q2161.72 337.138 2164.68 339.776 Q2167.67 342.392 2167.67 347.462 Q2167.67 352.577 2164.68 355.193 Q2161.72 357.809 2155.91 357.809 L2150.03 357.809 L2150.03 371.698 L2145.35 371.698 L2145.35 337.138 Z" fill="#000000" fill-rule="nonzero" fill-opacity="1" /><path clip-path="url(#clip620)" d="M2173.17 337.138 L2195.4 337.138 L2195.4 339.128 L2182.85 371.698 L2177.97 371.698 L2189.77 341.073 L2173.17 341.073 L2173.17 337.138 Z" fill="#000000" fill-rule="nonzero" fill-opacity="1" /><path clip-path="url(#clip620)" d="M2204.56 337.138 L2222.92 337.138 L2222.92 341.073 L2208.85 341.073 L2208.85 349.545 Q2209.86 349.198 2210.88 349.036 Q2211.9 348.85 2212.92 348.85 Q2218.71 348.85 2222.09 352.022 Q2225.47 355.193 2225.47 360.61 Q2225.47 366.188 2221.99 369.29 Q2218.52 372.369 2212.2 372.369 Q2210.03 372.369 2207.76 371.998 Q2205.51 371.628 2203.1 370.887 L2203.1 366.188 Q2205.19 367.323 2207.41 367.878 Q2209.63 368.434 2212.11 368.434 Q2216.11 368.434 2218.45 366.327 Q2220.79 364.221 2220.79 360.61 Q2220.79 356.999 2218.45 354.892 Q2216.11 352.786 2212.11 352.786 Q2210.23 352.786 2208.36 353.202 Q2206.51 353.619 2204.56 354.499 L2204.56 337.138 Z" fill="#000000" fill-rule="nonzero" fill-opacity="1" /></svg>
