<?xml version="1.0" encoding="utf-8"?>
<svg xmlns="http://www.w3.org/2000/svg" xmlns:xlink="http://www.w3.org/1999/xlink" width="600" height="400" viewBox="0 0 2400 1600">
<defs>
  <clipPath id="clip100">
    <rect x="0" y="0" width="2400" height="1600"/>
  </clipPath>
</defs>
<path clip-path="url(#clip100)" d="M0 1600 L2400 1600 L2400 0 L0 0  Z" fill="#ffffff" fill-rule="evenodd" fill-opacity="1"/>
<defs>
  <clipPath id="clip101">
    <rect x="480" y="0" width="1681" height="1600"/>
  </clipPath>
</defs>
<path clip-path="url(#clip100)" d="M193.936 1486.45 L2352.76 1486.45 L2352.76 47.2441 L193.936 47.2441  Z" fill="#ffffff" fill-rule="evenodd" fill-opacity="1"/>
<defs>
  <clipPath id="clip102">
    <rect x="193" y="47" width="2160" height="1440"/>
  </clipPath>
</defs>
<polyline clip-path="url(#clip102)" style="stroke:#000000; stroke-linecap:round; stroke-linejoin:round; stroke-width:2; stroke-opacity:0.1; fill:none" points="255.035,1486.45 255.035,47.2441 "/>
<polyline clip-path="url(#clip102)" style="stroke:#000000; stroke-linecap:round; stroke-linejoin:round; stroke-width:2; stroke-opacity:0.1; fill:none" points="579.338,1486.45 579.338,47.2441 "/>
<polyline clip-path="url(#clip102)" style="stroke:#000000; stroke-linecap:round; stroke-linejoin:round; stroke-width:2; stroke-opacity:0.1; fill:none" points="903.641,1486.45 903.641,47.2441 "/>
<polyline clip-path="url(#clip102)" style="stroke:#000000; stroke-linecap:round; stroke-linejoin:round; stroke-width:2; stroke-opacity:0.1; fill:none" points="1227.94,1486.45 1227.94,47.2441 "/>
<polyline clip-path="url(#clip102)" style="stroke:#000000; stroke-linecap:round; stroke-linejoin:round; stroke-width:2; stroke-opacity:0.1; fill:none" points="1552.25,1486.45 1552.25,47.2441 "/>
<polyline clip-path="url(#clip102)" style="stroke:#000000; stroke-linecap:round; stroke-linejoin:round; stroke-width:2; stroke-opacity:0.1; fill:none" points="1876.55,1486.45 1876.55,47.2441 "/>
<polyline clip-path="url(#clip102)" style="stroke:#000000; stroke-linecap:round; stroke-linejoin:round; stroke-width:2; stroke-opacity:0.1; fill:none" points="2200.85,1486.45 2200.85,47.2441 "/>
<polyline clip-path="url(#clip102)" style="stroke:#000000; stroke-linecap:round; stroke-linejoin:round; stroke-width:2; stroke-opacity:0.1; fill:none" points="193.936,1445.72 2352.76,1445.72 "/>
<polyline clip-path="url(#clip102)" style="stroke:#000000; stroke-linecap:round; stroke-linejoin:round; stroke-width:2; stroke-opacity:0.1; fill:none" points="193.936,1112.45 2352.76,1112.45 "/>
<polyline clip-path="url(#clip102)" style="stroke:#000000; stroke-linecap:round; stroke-linejoin:round; stroke-width:2; stroke-opacity:0.1; fill:none" points="193.936,779.177 2352.76,779.177 "/>
<polyline clip-path="url(#clip102)" style="stroke:#000000; stroke-linecap:round; stroke-linejoin:round; stroke-width:2; stroke-opacity:0.1; fill:none" points="193.936,445.907 2352.76,445.907 "/>
<polyline clip-path="url(#clip102)" style="stroke:#000000; stroke-linecap:round; stroke-linejoin:round; stroke-width:2; stroke-opacity:0.1; fill:none" points="193.936,112.636 2352.76,112.636 "/>
<polyline clip-path="url(#clip100)" style="stroke:#000000; stroke-linecap:round; stroke-linejoin:round; stroke-width:4; stroke-opacity:1; fill:none" points="193.936,1486.45 2352.76,1486.45 "/>
<polyline clip-path="url(#clip100)" style="stroke:#000000; stroke-linecap:round; stroke-linejoin:round; stroke-width:4; stroke-opacity:1; fill:none" points="255.035,1486.45 255.035,1467.55 "/>
<polyline clip-path="url(#clip100)" style="stroke:#000000; stroke-linecap:round; stroke-linejoin:round; stroke-width:4; stroke-opacity:1; fill:none" points="579.338,1486.45 579.338,1467.55 "/>
<polyline clip-path="url(#clip100)" style="stroke:#000000; stroke-linecap:round; stroke-linejoin:round; stroke-width:4; stroke-opacity:1; fill:none" points="903.641,1486.45 903.641,1467.55 "/>
<polyline clip-path="url(#clip100)" style="stroke:#000000; stroke-linecap:round; stroke-linejoin:round; stroke-width:4; stroke-opacity:1; fill:none" points="1227.94,1486.45 1227.94,1467.55 "/>
<polyline clip-path="url(#clip100)" style="stroke:#000000; stroke-linecap:round; stroke-linejoin:round; stroke-width:4; stroke-opacity:1; fill:none" points="1552.25,1486.45 1552.25,1467.55 "/>
<polyline clip-path="url(#clip100)" style="stroke:#000000; stroke-linecap:round; stroke-linejoin:round; stroke-width:4; stroke-opacity:1; fill:none" points="1876.55,1486.45 1876.55,1467.55 "/>
<polyline clip-path="url(#clip100)" style="stroke:#000000; stroke-linecap:round; stroke-linejoin:round; stroke-width:4; stroke-opacity:1; fill:none" points="2200.85,1486.45 2200.85,1467.55 "/>
<path clip-path="url(#clip100)" d="M255.035 1517.37 Q251.424 1517.37 249.595 1520.93 Q247.789 1524.47 247.789 1531.6 Q247.789 1538.71 249.595 1542.27 Q251.424 1545.82 255.035 1545.82 Q258.669 1545.82 260.474 1542.27 Q262.303 1538.71 262.303 1531.6 Q262.303 1524.47 260.474 1520.93 Q258.669 1517.37 255.035 1517.37 M255.035 1513.66 Q260.845 1513.66 263.9 1518.27 Q266.979 1522.85 266.979 1531.6 Q266.979 1540.33 263.9 1544.94 Q260.845 1549.52 255.035 1549.52 Q249.225 1549.52 246.146 1544.94 Q243.09 1540.33 243.09 1531.6 Q243.09 1522.85 246.146 1518.27 Q249.225 1513.66 255.035 1513.66 Z" fill="#000000" fill-rule="nonzero" fill-opacity="1" /><path clip-path="url(#clip100)" d="M569.72 1544.91 L577.358 1544.91 L577.358 1518.55 L569.048 1520.21 L569.048 1515.95 L577.312 1514.29 L581.988 1514.29 L581.988 1544.91 L589.627 1544.91 L589.627 1548.85 L569.72 1548.85 L569.72 1544.91 Z" fill="#000000" fill-rule="nonzero" fill-opacity="1" /><path clip-path="url(#clip100)" d="M898.293 1544.91 L914.613 1544.91 L914.613 1548.85 L892.668 1548.85 L892.668 1544.91 Q895.33 1542.16 899.914 1537.53 Q904.52 1532.88 905.701 1531.53 Q907.946 1529.01 908.826 1527.27 Q909.729 1525.51 909.729 1523.82 Q909.729 1521.07 907.784 1519.33 Q905.863 1517.6 902.761 1517.6 Q900.562 1517.6 898.108 1518.36 Q895.678 1519.13 892.9 1520.68 L892.9 1515.95 Q895.724 1514.82 898.178 1514.24 Q900.631 1513.66 902.668 1513.66 Q908.039 1513.66 911.233 1516.35 Q914.428 1519.03 914.428 1523.52 Q914.428 1525.65 913.617 1527.57 Q912.83 1529.47 910.724 1532.07 Q910.145 1532.74 907.043 1535.95 Q903.942 1539.15 898.293 1544.91 Z" fill="#000000" fill-rule="nonzero" fill-opacity="1" /><path clip-path="url(#clip100)" d="M1232.19 1530.21 Q1235.55 1530.93 1237.42 1533.2 Q1239.32 1535.47 1239.32 1538.8 Q1239.32 1543.92 1235.8 1546.72 Q1232.28 1549.52 1225.8 1549.52 Q1223.63 1549.52 1221.31 1549.08 Q1219.02 1548.66 1216.57 1547.81 L1216.57 1543.29 Q1218.51 1544.43 1220.83 1545.01 Q1223.14 1545.58 1225.66 1545.58 Q1230.06 1545.58 1232.35 1543.85 Q1234.67 1542.11 1234.67 1538.8 Q1234.67 1535.75 1232.52 1534.03 Q1230.39 1532.3 1226.57 1532.3 L1222.54 1532.3 L1222.54 1528.45 L1226.75 1528.45 Q1230.2 1528.45 1232.03 1527.09 Q1233.86 1525.7 1233.86 1523.11 Q1233.86 1520.45 1231.96 1519.03 Q1230.08 1517.6 1226.57 1517.6 Q1224.64 1517.6 1222.45 1518.01 Q1220.25 1518.43 1217.61 1519.31 L1217.61 1515.14 Q1220.27 1514.4 1222.58 1514.03 Q1224.92 1513.66 1226.98 1513.66 Q1232.31 1513.66 1235.41 1516.09 Q1238.51 1518.5 1238.51 1522.62 Q1238.51 1525.49 1236.87 1527.48 Q1235.22 1529.45 1232.19 1530.21 Z" fill="#000000" fill-rule="nonzero" fill-opacity="1" /><path clip-path="url(#clip100)" d="M1555.26 1518.36 L1543.45 1536.81 L1555.26 1536.81 L1555.26 1518.36 M1554.03 1514.29 L1559.91 1514.29 L1559.91 1536.81 L1564.84 1536.81 L1564.84 1540.7 L1559.91 1540.7 L1559.91 1548.85 L1555.26 1548.85 L1555.26 1540.7 L1539.65 1540.7 L1539.65 1536.19 L1554.03 1514.29 Z" fill="#000000" fill-rule="nonzero" fill-opacity="1" /><path clip-path="url(#clip100)" d="M1866.83 1514.29 L1885.18 1514.29 L1885.18 1518.22 L1871.11 1518.22 L1871.11 1526.7 Q1872.13 1526.35 1873.15 1526.19 Q1874.17 1526 1875.18 1526 Q1880.97 1526 1884.35 1529.17 Q1887.73 1532.34 1887.73 1537.76 Q1887.73 1543.34 1884.26 1546.44 Q1880.79 1549.52 1874.47 1549.52 Q1872.29 1549.52 1870.02 1549.15 Q1867.78 1548.78 1865.37 1548.04 L1865.37 1543.34 Q1867.45 1544.47 1869.67 1545.03 Q1871.9 1545.58 1874.37 1545.58 Q1878.38 1545.58 1880.72 1543.48 Q1883.05 1541.37 1883.05 1537.76 Q1883.05 1534.15 1880.72 1532.04 Q1878.38 1529.94 1874.37 1529.94 Q1872.5 1529.94 1870.62 1530.35 Q1868.77 1530.77 1866.83 1531.65 L1866.83 1514.29 Z" fill="#000000" fill-rule="nonzero" fill-opacity="1" /><path clip-path="url(#clip100)" d="M2201.26 1529.7 Q2198.11 1529.7 2196.26 1531.86 Q2194.43 1534.01 2194.43 1537.76 Q2194.43 1541.49 2196.26 1543.66 Q2198.11 1545.82 2201.26 1545.82 Q2204.41 1545.82 2206.23 1543.66 Q2208.09 1541.49 2208.09 1537.76 Q2208.09 1534.01 2206.23 1531.86 Q2204.41 1529.7 2201.26 1529.7 M2210.54 1515.05 L2210.54 1519.31 Q2208.78 1518.48 2206.98 1518.04 Q2205.19 1517.6 2203.43 1517.6 Q2198.8 1517.6 2196.35 1520.72 Q2193.92 1523.85 2193.57 1530.17 Q2194.94 1528.15 2197 1527.09 Q2199.06 1526 2201.54 1526 Q2206.74 1526 2209.75 1529.17 Q2212.79 1532.32 2212.79 1537.76 Q2212.79 1543.08 2209.64 1546.3 Q2206.49 1549.52 2201.26 1549.52 Q2195.26 1549.52 2192.09 1544.94 Q2188.92 1540.33 2188.92 1531.6 Q2188.92 1523.41 2192.81 1518.55 Q2196.7 1513.66 2203.25 1513.66 Q2205.01 1513.66 2206.79 1514.01 Q2208.6 1514.36 2210.54 1515.05 Z" fill="#000000" fill-rule="nonzero" fill-opacity="1" /><polyline clip-path="url(#clip100)" style="stroke:#000000; stroke-linecap:round; stroke-linejoin:round; stroke-width:4; stroke-opacity:1; fill:none" points="193.936,1486.45 193.936,47.2441 "/>
<polyline clip-path="url(#clip100)" style="stroke:#000000; stroke-linecap:round; stroke-linejoin:round; stroke-width:4; stroke-opacity:1; fill:none" points="193.936,1445.72 212.834,1445.72 "/>
<polyline clip-path="url(#clip100)" style="stroke:#000000; stroke-linecap:round; stroke-linejoin:round; stroke-width:4; stroke-opacity:1; fill:none" points="193.936,1112.45 212.834,1112.45 "/>
<polyline clip-path="url(#clip100)" style="stroke:#000000; stroke-linecap:round; stroke-linejoin:round; stroke-width:4; stroke-opacity:1; fill:none" points="193.936,779.177 212.834,779.177 "/>
<polyline clip-path="url(#clip100)" style="stroke:#000000; stroke-linecap:round; stroke-linejoin:round; stroke-width:4; stroke-opacity:1; fill:none" points="193.936,445.907 212.834,445.907 "/>
<polyline clip-path="url(#clip100)" style="stroke:#000000; stroke-linecap:round; stroke-linejoin:round; stroke-width:4; stroke-opacity:1; fill:none" points="193.936,112.636 212.834,112.636 "/>
<path clip-path="url(#clip100)" d="M50.9921 1446.17 L80.6679 1446.17 L80.6679 1450.1 L50.9921 1450.1 L50.9921 1446.17 Z" fill="#000000" fill-rule="nonzero" fill-opacity="1" /><path clip-path="url(#clip100)" d="M91.5706 1459.06 L99.2095 1459.06 L99.2095 1432.7 L90.8993 1434.36 L90.8993 1430.1 L99.1632 1428.44 L103.839 1428.44 L103.839 1459.06 L111.478 1459.06 L111.478 1463 L91.5706 1463 L91.5706 1459.06 Z" fill="#000000" fill-rule="nonzero" fill-opacity="1" /><path clip-path="url(#clip100)" d="M120.922 1457.12 L125.807 1457.12 L125.807 1463 L120.922 1463 L120.922 1457.12 Z" fill="#000000" fill-rule="nonzero" fill-opacity="1" /><path clip-path="url(#clip100)" d="M145.992 1431.52 Q142.381 1431.52 140.552 1435.08 Q138.746 1438.62 138.746 1445.75 Q138.746 1452.86 140.552 1456.42 Q142.381 1459.97 145.992 1459.97 Q149.626 1459.97 151.431 1456.42 Q153.26 1452.86 153.26 1445.75 Q153.26 1438.62 151.431 1435.08 Q149.626 1431.52 145.992 1431.52 M145.992 1427.81 Q151.802 1427.81 154.857 1432.42 Q157.936 1437 157.936 1445.75 Q157.936 1454.48 154.857 1459.09 Q151.802 1463.67 145.992 1463.67 Q140.181 1463.67 137.103 1459.09 Q134.047 1454.48 134.047 1445.75 Q134.047 1437 137.103 1432.42 Q140.181 1427.81 145.992 1427.81 Z" fill="#000000" fill-rule="nonzero" fill-opacity="1" /><path clip-path="url(#clip100)" d="M51.9875 1112.9 L81.6633 1112.9 L81.6633 1116.83 L51.9875 1116.83 L51.9875 1112.9 Z" fill="#000000" fill-rule="nonzero" fill-opacity="1" /><path clip-path="url(#clip100)" d="M101.756 1098.25 Q98.1447 1098.25 96.316 1101.81 Q94.5104 1105.35 94.5104 1112.48 Q94.5104 1119.59 96.316 1123.15 Q98.1447 1126.69 101.756 1126.69 Q105.39 1126.69 107.196 1123.15 Q109.024 1119.59 109.024 1112.48 Q109.024 1105.35 107.196 1101.81 Q105.39 1098.25 101.756 1098.25 M101.756 1094.54 Q107.566 1094.54 110.621 1099.15 Q113.7 1103.73 113.7 1112.48 Q113.7 1121.21 110.621 1125.82 Q107.566 1130.4 101.756 1130.4 Q95.9456 1130.4 92.8669 1125.82 Q89.8114 1121.21 89.8114 1112.48 Q89.8114 1103.73 92.8669 1099.15 Q95.9456 1094.54 101.756 1094.54 Z" fill="#000000" fill-rule="nonzero" fill-opacity="1" /><path clip-path="url(#clip100)" d="M121.918 1123.85 L126.802 1123.85 L126.802 1129.73 L121.918 1129.73 L121.918 1123.85 Z" fill="#000000" fill-rule="nonzero" fill-opacity="1" /><path clip-path="url(#clip100)" d="M137.033 1095.17 L155.39 1095.17 L155.39 1099.1 L141.316 1099.1 L141.316 1107.57 Q142.334 1107.23 143.353 1107.07 Q144.371 1106.88 145.39 1106.88 Q151.177 1106.88 154.556 1110.05 Q157.936 1113.22 157.936 1118.64 Q157.936 1124.22 154.464 1127.32 Q150.992 1130.4 144.672 1130.4 Q142.496 1130.4 140.228 1130.03 Q137.982 1129.66 135.575 1128.92 L135.575 1124.22 Q137.658 1125.35 139.881 1125.91 Q142.103 1126.46 144.58 1126.46 Q148.584 1126.46 150.922 1124.36 Q153.26 1122.25 153.26 1118.64 Q153.26 1115.03 150.922 1112.92 Q148.584 1110.82 144.58 1110.82 Q142.705 1110.82 140.83 1111.23 Q138.978 1111.65 137.033 1112.53 L137.033 1095.17 Z" fill="#000000" fill-rule="nonzero" fill-opacity="1" /><path clip-path="url(#clip100)" d="M100.76 764.976 Q97.1493 764.976 95.3206 768.54 Q93.515 772.082 93.515 779.212 Q93.515 786.318 95.3206 789.883 Q97.1493 793.425 100.76 793.425 Q104.395 793.425 106.2 789.883 Q108.029 786.318 108.029 779.212 Q108.029 772.082 106.2 768.54 Q104.395 764.976 100.76 764.976 M100.76 761.272 Q106.571 761.272 109.626 765.878 Q112.705 770.462 112.705 779.212 Q112.705 787.938 109.626 792.545 Q106.571 797.128 100.76 797.128 Q94.9502 797.128 91.8715 792.545 Q88.816 787.938 88.816 779.212 Q88.816 770.462 91.8715 765.878 Q94.9502 761.272 100.76 761.272 Z" fill="#000000" fill-rule="nonzero" fill-opacity="1" /><path clip-path="url(#clip100)" d="M120.922 790.577 L125.807 790.577 L125.807 796.457 L120.922 796.457 L120.922 790.577 Z" fill="#000000" fill-rule="nonzero" fill-opacity="1" /><path clip-path="url(#clip100)" d="M145.992 764.976 Q142.381 764.976 140.552 768.54 Q138.746 772.082 138.746 779.212 Q138.746 786.318 140.552 789.883 Q142.381 793.425 145.992 793.425 Q149.626 793.425 151.431 789.883 Q153.26 786.318 153.26 779.212 Q153.26 772.082 151.431 768.54 Q149.626 764.976 145.992 764.976 M145.992 761.272 Q151.802 761.272 154.857 765.878 Q157.936 770.462 157.936 779.212 Q157.936 787.938 154.857 792.545 Q151.802 797.128 145.992 797.128 Q140.181 797.128 137.103 792.545 Q134.047 787.938 134.047 779.212 Q134.047 770.462 137.103 765.878 Q140.181 761.272 145.992 761.272 Z" fill="#000000" fill-rule="nonzero" fill-opacity="1" /><path clip-path="url(#clip100)" d="M101.756 431.705 Q98.1447 431.705 96.316 435.27 Q94.5104 438.812 94.5104 445.941 Q94.5104 453.048 96.316 456.613 Q98.1447 460.154 101.756 460.154 Q105.39 460.154 107.196 456.613 Q109.024 453.048 109.024 445.941 Q109.024 438.812 107.196 435.27 Q105.39 431.705 101.756 431.705 M101.756 428.002 Q107.566 428.002 110.621 432.608 Q113.7 437.191 113.7 445.941 Q113.7 454.668 110.621 459.275 Q107.566 463.858 101.756 463.858 Q95.9456 463.858 92.8669 459.275 Q89.8114 454.668 89.8114 445.941 Q89.8114 437.191 92.8669 432.608 Q95.9456 428.002 101.756 428.002 Z" fill="#000000" fill-rule="nonzero" fill-opacity="1" /><path clip-path="url(#clip100)" d="M121.918 457.307 L126.802 457.307 L126.802 463.187 L121.918 463.187 L121.918 457.307 Z" fill="#000000" fill-rule="nonzero" fill-opacity="1" /><path clip-path="url(#clip100)" d="M137.033 428.627 L155.39 428.627 L155.39 432.562 L141.316 432.562 L141.316 441.034 Q142.334 440.687 143.353 440.525 Q144.371 440.339 145.39 440.339 Q151.177 440.339 154.556 443.511 Q157.936 446.682 157.936 452.099 Q157.936 457.677 154.464 460.779 Q150.992 463.858 144.672 463.858 Q142.496 463.858 140.228 463.488 Q137.982 463.117 135.575 462.376 L135.575 457.677 Q137.658 458.812 139.881 459.367 Q142.103 459.923 144.58 459.923 Q148.584 459.923 150.922 457.816 Q153.26 455.71 153.26 452.099 Q153.26 448.488 150.922 446.381 Q148.584 444.275 144.58 444.275 Q142.705 444.275 140.83 444.691 Q138.978 445.108 137.033 445.988 L137.033 428.627 Z" fill="#000000" fill-rule="nonzero" fill-opacity="1" /><path clip-path="url(#clip100)" d="M91.5706 125.981 L99.2095 125.981 L99.2095 99.6155 L90.8993 101.282 L90.8993 97.0229 L99.1632 95.3562 L103.839 95.3562 L103.839 125.981 L111.478 125.981 L111.478 129.916 L91.5706 129.916 L91.5706 125.981 Z" fill="#000000" fill-rule="nonzero" fill-opacity="1" /><path clip-path="url(#clip100)" d="M120.922 124.037 L125.807 124.037 L125.807 129.916 L120.922 129.916 L120.922 124.037 Z" fill="#000000" fill-rule="nonzero" fill-opacity="1" /><path clip-path="url(#clip100)" d="M145.992 98.4349 Q142.381 98.4349 140.552 102 Q138.746 105.541 138.746 112.671 Q138.746 119.777 140.552 123.342 Q142.381 126.884 145.992 126.884 Q149.626 126.884 151.431 123.342 Q153.26 119.777 153.26 112.671 Q153.26 105.541 151.431 102 Q149.626 98.4349 145.992 98.4349 M145.992 94.7313 Q151.802 94.7313 154.857 99.3377 Q157.936 103.921 157.936 112.671 Q157.936 121.398 154.857 126.004 Q151.802 130.588 145.992 130.588 Q140.181 130.588 137.103 126.004 Q134.047 121.398 134.047 112.671 Q134.047 103.921 137.103 99.3377 Q140.181 94.7313 145.992 94.7313 Z" fill="#000000" fill-rule="nonzero" fill-opacity="1" /><polyline clip-path="url(#clip102)" style="stroke:#009af9; stroke-linecap:round; stroke-linejoin:round; stroke-width:4; stroke-opacity:1; fill:none" points="255.035,779.177 258.278,772.512 261.521,765.847 264.764,759.184 268.007,752.522 271.25,745.864 274.493,739.208 277.736,732.557 280.979,725.911 284.222,719.269 287.465,712.634 290.708,706.005 293.951,699.384 297.194,692.77 300.437,686.166 303.68,679.57 306.923,672.985 310.166,666.41 313.409,659.846 316.652,653.295 319.895,646.756 323.138,640.23 326.381,633.718 329.624,627.221 332.867,620.738 336.11,614.272 339.353,607.822 342.596,601.39 345.84,594.975 349.083,588.578 352.326,582.201 355.569,575.843 358.812,569.506 362.055,563.189 365.298,556.894 368.541,550.622 371.784,544.372 375.027,538.146 378.27,531.943 381.513,525.766 384.756,519.614 387.999,513.488 391.242,507.388 394.485,501.316 397.728,495.271 400.971,489.255 404.214,483.267 407.457,477.31 410.7,471.382 413.943,465.486 417.186,459.62 420.429,453.787 423.672,447.986 426.915,442.218 430.158,436.484 433.401,430.785 436.644,425.12 439.887,419.49 443.13,413.897 446.373,408.34 449.616,402.82 452.859,397.337 456.103,391.893 459.346,386.488 462.589,381.122 465.832,375.796 469.075,370.51 472.318,365.265 475.561,360.061 478.804,354.899 482.047,349.78 485.29,344.703 488.533,339.67 491.776,334.681 495.019,329.737 498.262,324.837 501.505,319.983 504.748,315.174 507.991,310.413 511.234,305.698 514.477,301.03 517.72,296.41 520.963,291.838 524.206,287.316 527.449,282.842 530.692,278.418 533.935,274.044 537.178,269.721 540.421,265.448 543.664,261.227 546.907,257.058 550.15,252.941 553.393,248.876 556.636,244.865 559.879,240.907 563.122,237.002 566.366,233.152 569.609,229.357 572.852,225.617 576.095,221.932 579.338,218.302 582.581,214.729 585.824,211.212 589.067,207.752 592.31,204.349 595.553,201.004 598.796,197.717 602.039,194.487 605.282,191.316 608.525,188.204 611.768,185.151 615.011,182.157 618.254,179.223 621.497,176.349 624.74,173.536 627.983,170.783 631.226,168.09 634.469,165.459 637.712,162.889 640.955,160.381 644.198,157.935 647.441,155.551 650.684,153.229 653.927,150.97 657.17,148.773 660.413,146.64 663.656,144.57 666.899,142.563 670.142,140.62 673.385,138.741 676.629,136.926 679.872,135.175 683.115,133.489 686.358,131.867 689.601,130.31 692.844,128.818 696.087,127.39 699.33,126.028 702.573,124.732 705.816,123.5 709.059,122.335 712.302,121.235 715.545,120.2 718.788,119.232 722.031,118.33 725.274,117.493 728.517,116.723 731.76,116.019 735.003,115.382 738.246,114.811 741.489,114.306 744.732,113.868 747.975,113.496 751.218,113.191 754.461,112.952 757.704,112.78 760.947,112.675 764.19,112.636 767.433,112.664 770.676,112.759 773.919,112.92 777.162,113.148 780.405,113.443 783.648,113.804 786.892,114.232 790.135,114.726 793.378,115.286 796.621,115.913 799.864,116.607 803.107,117.366 806.35,118.192 809.593,119.084 812.836,120.042 816.079,121.065 819.322,122.155 822.565,123.31 825.808,124.531 829.051,125.817 832.294,127.169 835.537,128.586 838.78,130.068 842.023,131.615 845.266,133.226 848.509,134.902 851.752,136.643 854.995,138.448 858.238,140.317 861.481,142.25 864.724,144.246 867.967,146.306 871.21,148.429 874.453,150.616 877.696,152.865 880.939,155.177 884.182,157.551 887.425,159.987 890.668,162.486 893.911,165.046 897.155,167.667 900.398,170.35 903.641,173.093 906.884,175.897 910.127,178.762 913.37,181.686 916.613,184.67 919.856,187.714 923.099,190.817 926.342,193.978 929.585,197.198 932.828,200.477 936.071,203.813 939.314,207.206 942.557,210.657 945.8,214.165 949.043,217.729 952.286,221.35 955.529,225.026 958.772,228.758 962.015,232.544 965.258,236.386 968.501,240.281 971.744,244.231 974.987,248.234 978.23,252.29 981.473,256.398 984.716,260.559 987.959,264.772 991.202,269.037 994.445,273.352 997.688,277.718 1000.93,282.134 1004.17,286.6 1007.42,291.115 1010.66,295.679 1013.9,300.291 1017.15,304.951 1020.39,309.658 1023.63,314.413 1026.88,319.214 1030.12,324.061 1033.36,328.953 1036.6,333.891 1039.85,338.873 1043.09,343.899 1046.33,348.968 1049.58,354.081 1052.82,359.236 1056.06,364.433 1059.31,369.671 1062.55,374.951 1065.79,380.271 1069.04,385.631 1072.28,391.03 1075.52,396.468 1078.76,401.944 1082.01,407.458 1085.25,413.009 1088.49,418.597 1091.74,424.221 1094.98,429.88 1098.22,435.574 1101.47,441.303 1104.71,447.065 1107.95,452.861 1111.19,458.689 1114.44,464.549 1117.68,470.441 1120.92,476.364 1124.17,482.317 1127.41,488.299 1130.65,494.311 1133.9,500.351 1137.14,506.419 1140.38,512.514 1143.62,518.636 1146.87,524.784 1150.11,530.958 1153.35,537.156 1156.6,543.379 1159.84,549.625 1163.08,555.894 1166.33,562.185 1169.57,568.498 1172.81,574.832 1176.06,581.187 1179.3,587.561 1182.54,593.955 1185.78,600.367 1189.03,606.797 1192.27,613.244 1195.51,619.708 1198.76,626.187 1202,632.682 1205.24,639.192 1208.49,645.715 1211.73,652.252 1214.97,658.802 1218.21,665.364 1221.46,671.937 1224.7,678.521 1227.94,685.115 1231.19,691.718 1234.43,698.33 1237.67,704.95 1240.92,711.578 1244.16,718.212 1247.4,724.852 1250.64,731.498 1253.89,738.149 1257.13,744.804 1260.37,751.462 1263.62,758.123 1266.86,764.786 1270.1,771.45 1273.35,778.115 1276.59,784.781 1279.83,791.445 1283.08,798.109 1286.32,804.771 1289.56,811.43 1292.8,818.086 1296.05,824.738 1299.29,831.385 1302.53,838.027 1305.78,844.664 1309.02,851.293 1312.26,857.916 1315.51,864.531 1318.75,871.137 1321.99,877.734 1325.23,884.321 1328.48,890.897 1331.72,897.463 1334.96,904.016 1338.21,910.558 1341.45,917.086 1344.69,923.6 1347.94,930.099 1351.18,936.584 1354.42,943.053 1357.66,949.505 1360.91,955.941 1364.15,962.359 1367.39,968.758 1370.64,975.139 1373.88,981.5 1377.12,987.84 1380.37,994.16 1383.61,1000.46 1386.85,1006.73 1390.1,1012.99 1393.34,1019.22 1396.58,1025.42 1399.82,1031.61 1403.07,1037.76 1406.31,1043.89 1409.55,1050 1412.8,1056.07 1416.04,1062.12 1419.28,1068.14 1422.53,1074.13 1425.77,1080.1 1429.01,1086.03 1432.25,1091.93 1435.5,1097.8 1438.74,1103.64 1441.98,1109.45 1445.23,1115.22 1448.47,1120.96 1451.71,1126.66 1454.96,1132.33 1458.2,1137.97 1461.44,1143.57 1464.68,1149.13 1467.93,1154.66 1471.17,1160.15 1474.41,1165.6 1477.66,1171.01 1480.9,1176.38 1484.14,1181.71 1487.39,1187.01 1490.63,1192.26 1493.87,1197.47 1497.11,1202.64 1500.36,1207.76 1503.6,1212.85 1506.84,1217.88 1510.09,1222.88 1513.33,1227.83 1516.57,1232.74 1519.82,1237.6 1523.06,1242.42 1526.3,1247.19 1529.55,1251.91 1532.79,1256.58 1536.03,1261.21 1539.27,1265.79 1542.52,1270.32 1545.76,1274.8 1549,1279.23 1552.25,1283.62 1555.49,1287.95 1558.73,1292.23 1561.98,1296.46 1565.22,1300.64 1568.46,1304.76 1571.7,1308.83 1574.95,1312.85 1578.19,1316.82 1581.43,1320.73 1584.68,1324.59 1587.92,1328.4 1591.16,1332.15 1594.41,1335.84 1597.65,1339.48 1600.89,1343.06 1604.13,1346.59 1607.38,1350.05 1610.62,1353.47 1613.86,1356.82 1617.11,1360.12 1620.35,1363.36 1623.59,1366.54 1626.84,1369.66 1630.08,1372.72 1633.32,1375.72 1636.57,1378.67 1639.81,1381.55 1643.05,1384.37 1646.29,1387.14 1649.54,1389.84 1652.78,1392.48 1656.02,1395.06 1659.27,1397.58 1662.51,1400.03 1665.75,1402.43 1669,1404.76 1672.24,1407.03 1675.48,1409.23 1678.72,1411.38 1681.97,1413.46 1685.21,1415.48 1688.45,1417.43 1691.7,1419.32 1694.94,1421.14 1698.18,1422.9 1701.43,1424.6 1704.67,1426.23 1707.91,1427.8 1711.15,1429.3 1714.4,1430.74 1717.64,1432.11 1720.88,1433.42 1724.13,1434.66 1727.37,1435.84 1730.61,1436.95 1733.86,1437.99 1737.1,1438.97 1740.34,1439.88 1743.59,1440.73 1746.83,1441.51 1750.07,1442.23 1753.31,1442.87 1756.56,1443.46 1759.8,1443.97 1763.04,1444.42 1766.29,1444.8 1769.53,1445.12 1772.77,1445.37 1776.02,1445.55 1779.26,1445.67 1782.5,1445.72 1785.74,1445.7 1788.99,1445.61 1792.23,1445.46 1795.47,1445.25 1798.72,1444.96 1801.96,1444.61 1805.2,1444.19 1808.45,1443.71 1811.69,1443.16 1814.93,1442.54 1818.17,1441.86 1821.42,1441.11 1824.66,1440.3 1827.9,1439.42 1831.15,1438.47 1834.39,1437.46 1837.63,1436.38 1840.88,1435.23 1844.12,1434.02 1847.36,1432.75 1850.61,1431.4 1853.85,1430 1857.09,1428.53 1860.33,1426.99 1863.58,1425.39 1866.82,1423.72 1870.06,1421.99 1873.31,1420.2 1876.55,1418.34 1879.79,1416.42 1883.04,1414.43 1886.28,1412.38 1889.52,1410.27 1892.76,1408.09 1896.01,1405.85 1899.25,1403.55 1902.49,1401.19 1905.74,1398.76 1908.98,1396.27 1912.22,1393.72 1915.47,1391.11 1918.71,1388.44 1921.95,1385.7 1925.19,1382.91 1928.44,1380.05 1931.68,1377.14 1934.92,1374.16 1938.17,1371.13 1941.41,1368.04 1944.65,1364.88 1947.9,1361.67 1951.14,1358.4 1954.38,1355.08 1957.63,1351.69 1960.87,1348.25 1964.11,1344.75 1967.35,1341.2 1970.6,1337.58 1973.84,1333.92 1977.08,1330.19 1980.33,1326.42 1983.57,1322.58 1986.81,1318.7 1990.06,1314.76 1993.3,1310.76 1996.54,1306.71 1999.78,1302.61 2003.03,1298.46 2006.27,1294.26 2009.51,1290 2012.76,1285.69 2016,1281.33 2019.24,1276.93 2022.49,1272.47 2025.73,1267.96 2028.97,1263.41 2032.21,1258.8 2035.46,1254.15 2038.7,1249.45 2041.94,1244.7 2045.19,1239.91 2048.43,1235.07 2051.67,1230.18 2054.92,1225.25 2058.16,1220.28 2061.4,1215.26 2064.65,1210.2 2067.89,1205.09 2071.13,1199.94 2074.37,1194.75 2077.62,1189.52 2080.86,1184.25 2084.1,1178.93 2087.35,1173.58 2090.59,1168.19 2093.83,1162.75 2097.08,1157.28 2100.32,1151.78 2103.56,1146.23 2106.8,1140.65 2110.05,1135.03 2113.29,1129.38 2116.53,1123.69 2119.78,1117.97 2123.02,1112.21 2126.26,1106.42 2129.51,1100.6 2132.75,1094.74 2135.99,1088.85 2139.23,1082.94 2142.48,1076.99 2145.72,1071.01 2148.96,1065 2152.21,1058.97 2155.45,1052.9 2158.69,1046.81 2161.94,1040.69 2165.18,1034.55 2168.42,1028.38 2171.67,1022.19 2174.91,1015.97 2178.15,1009.73 2181.39,1003.46 2184.64,997.172 2187.88,990.863 2191.12,984.532 2194.37,978.18 2197.61,971.809 2200.85,965.419 2204.1,959.01 2207.34,952.582 2210.58,946.138 2213.82,939.677 2217.07,933.2 2220.31,926.707 2223.55,920.2 2226.8,913.678 2230.04,907.143 2233.28,900.596 2236.53,894.036 2239.77,887.464 2243.01,880.882 2246.25,874.29 2249.5,867.688 2252.74,861.077 2255.98,854.459 2259.23,847.832 2262.47,841.199 2265.71,834.559 2268.96,827.914 2272.2,821.264 2275.44,814.61 2278.69,807.953 2281.93,801.292 2285.17,794.629 2288.41,787.965 2291.66,781.3 "/>
<circle clip-path="url(#clip102)" cx="566.366" cy="202.738" r="14.4" fill="#e26f46" fill-rule="evenodd" fill-opacity="1" stroke="#000000" stroke-opacity="1" stroke-width="3.2"/>
<circle clip-path="url(#clip102)" cx="378.27" cy="417.042" r="14.4" fill="#e26f46" fill-rule="evenodd" fill-opacity="1" stroke="#000000" stroke-opacity="1" stroke-width="3.2"/>
<circle clip-path="url(#clip102)" cx="501.505" cy="304.709" r="14.4" fill="#e26f46" fill-rule="evenodd" fill-opacity="1" stroke="#000000" stroke-opacity="1" stroke-width="3.2"/>
<circle clip-path="url(#clip102)" cx="608.525" cy="276.975" r="14.4" fill="#e26f46" fill-rule="evenodd" fill-opacity="1" stroke="#000000" stroke-opacity="1" stroke-width="3.2"/>
<circle clip-path="url(#clip102)" cx="1464.68" cy="1190.3" r="14.4" fill="#e26f46" fill-rule="evenodd" fill-opacity="1" stroke="#000000" stroke-opacity="1" stroke-width="3.2"/>
<circle clip-path="url(#clip102)" cx="1954.38" cy="1425.15" r="14.4" fill="#e26f46" fill-rule="evenodd" fill-opacity="1" stroke="#000000" stroke-opacity="1" stroke-width="3.2"/>
<circle clip-path="url(#clip102)" cx="1422.53" cy="1015.2" r="14.4" fill="#e26f46" fill-rule="evenodd" fill-opacity="1" stroke="#000000" stroke-opacity="1" stroke-width="3.2"/>
<circle clip-path="url(#clip102)" cx="790.135" cy="212.181" r="14.4" fill="#e26f46" fill-rule="evenodd" fill-opacity="1" stroke="#000000" stroke-opacity="1" stroke-width="3.2"/>
<circle clip-path="url(#clip102)" cx="1451.71" cy="1265.22" r="14.4" fill="#e26f46" fill-rule="evenodd" fill-opacity="1" stroke="#000000" stroke-opacity="1" stroke-width="3.2"/>
<circle clip-path="url(#clip102)" cx="1685.21" cy="1422.71" r="14.4" fill="#e26f46" fill-rule="evenodd" fill-opacity="1" stroke="#000000" stroke-opacity="1" stroke-width="3.2"/>
<circle clip-path="url(#clip102)" cx="1558.73" cy="1161.37" r="14.4" fill="#e26f46" fill-rule="evenodd" fill-opacity="1" stroke="#000000" stroke-opacity="1" stroke-width="3.2"/>
<circle clip-path="url(#clip102)" cx="533.935" cy="122.434" r="14.4" fill="#e26f46" fill-rule="evenodd" fill-opacity="1" stroke="#000000" stroke-opacity="1" stroke-width="3.2"/>
<circle clip-path="url(#clip102)" cx="378.27" cy="456.245" r="14.4" fill="#e26f46" fill-rule="evenodd" fill-opacity="1" stroke="#000000" stroke-opacity="1" stroke-width="3.2"/>
<circle clip-path="url(#clip102)" cx="916.613" cy="87.9763" r="14.4" fill="#e26f46" fill-rule="evenodd" fill-opacity="1" stroke="#000000" stroke-opacity="1" stroke-width="3.2"/>
<circle clip-path="url(#clip102)" cx="1662.51" cy="1402.81" r="14.4" fill="#e26f46" fill-rule="evenodd" fill-opacity="1" stroke="#000000" stroke-opacity="1" stroke-width="3.2"/>
<circle clip-path="url(#clip102)" cx="572.852" cy="200.069" r="14.4" fill="#e26f46" fill-rule="evenodd" fill-opacity="1" stroke="#000000" stroke-opacity="1" stroke-width="3.2"/>
<circle clip-path="url(#clip102)" cx="543.664" cy="207.289" r="14.4" fill="#e26f46" fill-rule="evenodd" fill-opacity="1" stroke="#000000" stroke-opacity="1" stroke-width="3.2"/>
<circle clip-path="url(#clip102)" cx="2009.51" cy="1309.07" r="14.4" fill="#e26f46" fill-rule="evenodd" fill-opacity="1" stroke="#000000" stroke-opacity="1" stroke-width="3.2"/>
<circle clip-path="url(#clip102)" cx="368.541" cy="599.401" r="14.4" fill="#e26f46" fill-rule="evenodd" fill-opacity="1" stroke="#000000" stroke-opacity="1" stroke-width="3.2"/>
<circle clip-path="url(#clip102)" cx="1069.04" cy="476.503" r="14.4" fill="#e26f46" fill-rule="evenodd" fill-opacity="1" stroke="#000000" stroke-opacity="1" stroke-width="3.2"/>
<path clip-path="url(#clip100)" d="M1953.46 250.738 L2280.8 250.738 L2280.8 95.2176 L1953.46 95.2176  Z" fill="#ffffff" fill-rule="evenodd" fill-opacity="1"/>
<polyline clip-path="url(#clip100)" style="stroke:#000000; stroke-linecap:round; stroke-linejoin:round; stroke-width:4; stroke-opacity:1; fill:none" points="1953.46,250.738 2280.8,250.738 2280.8,95.2176 1953.46,95.2176 1953.46,250.738 "/>
<polyline clip-path="url(#clip100)" style="stroke:#009af9; stroke-linecap:round; stroke-linejoin:round; stroke-width:4; stroke-opacity:1; fill:none" points="1977.44,147.058 2121.36,147.058 "/>
<path clip-path="url(#clip100)" d="M2152.76 131.051 L2152.76 138.412 L2161.53 138.412 L2161.53 141.722 L2152.76 141.722 L2152.76 155.796 Q2152.76 158.967 2153.61 159.87 Q2154.49 160.773 2157.16 160.773 L2161.53 160.773 L2161.53 164.338 L2157.16 164.338 Q2152.23 164.338 2150.35 162.509 Q2148.48 160.657 2148.48 155.796 L2148.48 141.722 L2145.35 141.722 L2145.35 138.412 L2148.48 138.412 L2148.48 131.051 L2152.76 131.051 Z" fill="#000000" fill-rule="nonzero" fill-opacity="1" /><path clip-path="url(#clip100)" d="M2182.16 142.393 Q2181.44 141.977 2180.58 141.791 Q2179.75 141.583 2178.73 141.583 Q2175.12 141.583 2173.17 143.944 Q2171.25 146.282 2171.25 150.68 L2171.25 164.338 L2166.97 164.338 L2166.97 138.412 L2171.25 138.412 L2171.25 142.44 Q2172.6 140.078 2174.75 138.944 Q2176.9 137.787 2179.98 137.787 Q2180.42 137.787 2180.95 137.856 Q2181.48 137.903 2182.13 138.018 L2182.16 142.393 Z" fill="#000000" fill-rule="nonzero" fill-opacity="1" /><path clip-path="url(#clip100)" d="M2186.18 154.106 L2186.18 138.412 L2190.44 138.412 L2190.44 153.944 Q2190.44 157.625 2191.88 159.476 Q2193.31 161.305 2196.18 161.305 Q2199.63 161.305 2201.62 159.106 Q2203.64 156.907 2203.64 153.111 L2203.64 138.412 L2207.9 138.412 L2207.9 164.338 L2203.64 164.338 L2203.64 160.356 Q2202.09 162.717 2200.03 163.875 Q2197.99 165.009 2195.28 165.009 Q2190.81 165.009 2188.5 162.231 Q2186.18 159.453 2186.18 154.106 M2196.9 137.787 L2196.9 137.787 Z" fill="#000000" fill-rule="nonzero" fill-opacity="1" /><path clip-path="url(#clip100)" d="M2220.88 131.051 L2220.88 138.412 L2229.66 138.412 L2229.66 141.722 L2220.88 141.722 L2220.88 155.796 Q2220.88 158.967 2221.74 159.87 Q2222.62 160.773 2225.28 160.773 L2229.66 160.773 L2229.66 164.338 L2225.28 164.338 Q2220.35 164.338 2218.48 162.509 Q2216.6 160.657 2216.6 155.796 L2216.6 141.722 L2213.48 141.722 L2213.48 138.412 L2216.6 138.412 L2216.6 131.051 L2220.88 131.051 Z" fill="#000000" fill-rule="nonzero" fill-opacity="1" /><path clip-path="url(#clip100)" d="M2256.81 148.689 L2256.81 164.338 L2252.55 164.338 L2252.55 148.828 Q2252.55 145.148 2251.11 143.319 Q2249.68 141.49 2246.81 141.49 Q2243.36 141.49 2241.37 143.69 Q2239.38 145.889 2239.38 149.685 L2239.38 164.338 L2235.1 164.338 L2235.1 128.319 L2239.38 128.319 L2239.38 142.44 Q2240.91 140.102 2242.97 138.944 Q2245.05 137.787 2247.76 137.787 Q2252.23 137.787 2254.52 140.565 Q2256.81 143.319 2256.81 148.689 Z" fill="#000000" fill-rule="nonzero" fill-opacity="1" /><circle clip-path="url(#clip100)" cx="2049.4" cy="198.898" r="20.48" fill="#e26f46" fill-rule="evenodd" fill-opacity="1" stroke="#000000" stroke-opacity="1" stroke-width="4.55111"/>
<path clip-path="url(#clip100)" d="M2164.26 194.187 L2164.26 180.159 L2168.52 180.159 L2168.52 216.178 L2164.26 216.178 L2164.26 212.289 Q2162.92 214.603 2160.86 215.738 Q2158.82 216.849 2155.95 216.849 Q2151.25 216.849 2148.29 213.099 Q2145.35 209.349 2145.35 203.238 Q2145.35 197.127 2148.29 193.377 Q2151.25 189.627 2155.95 189.627 Q2158.82 189.627 2160.86 190.761 Q2162.92 191.872 2164.26 194.187 M2149.75 203.238 Q2149.75 207.937 2151.67 210.622 Q2153.61 213.284 2156.99 213.284 Q2160.37 213.284 2162.32 210.622 Q2164.26 207.937 2164.26 203.238 Q2164.26 198.539 2162.32 195.877 Q2160.37 193.192 2156.99 193.192 Q2153.61 193.192 2151.67 195.877 Q2149.75 198.539 2149.75 203.238 Z" fill="#000000" fill-rule="nonzero" fill-opacity="1" /><path clip-path="url(#clip100)" d="M2189.08 203.145 Q2183.92 203.145 2181.92 204.326 Q2179.93 205.506 2179.93 208.354 Q2179.93 210.622 2181.42 211.965 Q2182.92 213.284 2185.49 213.284 Q2189.03 213.284 2191.16 210.784 Q2193.31 208.261 2193.31 204.094 L2193.31 203.145 L2189.08 203.145 M2197.57 201.386 L2197.57 216.178 L2193.31 216.178 L2193.31 212.242 Q2191.85 214.603 2189.68 215.738 Q2187.5 216.849 2184.36 216.849 Q2180.37 216.849 2178.01 214.627 Q2175.67 212.381 2175.67 208.631 Q2175.67 204.256 2178.59 202.034 Q2181.53 199.812 2187.34 199.812 L2193.31 199.812 L2193.31 199.395 Q2193.31 196.455 2191.37 194.858 Q2189.45 193.238 2185.95 193.238 Q2183.73 193.238 2181.62 193.77 Q2179.52 194.303 2177.57 195.367 L2177.57 191.432 Q2179.91 190.53 2182.11 190.09 Q2184.31 189.627 2186.39 189.627 Q2192.02 189.627 2194.79 192.543 Q2197.57 195.46 2197.57 201.386 Z" fill="#000000" fill-rule="nonzero" fill-opacity="1" /><path clip-path="url(#clip100)" d="M2210.56 182.891 L2210.56 190.252 L2219.33 190.252 L2219.33 193.562 L2210.56 193.562 L2210.56 207.636 Q2210.56 210.807 2211.42 211.71 Q2212.29 212.613 2214.96 212.613 L2219.33 212.613 L2219.33 216.178 L2214.96 216.178 Q2210.03 216.178 2208.15 214.349 Q2206.28 212.497 2206.28 207.636 L2206.28 193.562 L2203.15 193.562 L2203.15 190.252 L2206.28 190.252 L2206.28 182.891 L2210.56 182.891 Z" fill="#000000" fill-rule="nonzero" fill-opacity="1" /><path clip-path="url(#clip100)" d="M2236.72 203.145 Q2231.55 203.145 2229.56 204.326 Q2227.57 205.506 2227.57 208.354 Q2227.57 210.622 2229.05 211.965 Q2230.56 213.284 2233.13 213.284 Q2236.67 213.284 2238.8 210.784 Q2240.95 208.261 2240.95 204.094 L2240.95 203.145 L2236.72 203.145 M2245.21 201.386 L2245.21 216.178 L2240.95 216.178 L2240.95 212.242 Q2239.49 214.603 2237.32 215.738 Q2235.14 216.849 2231.99 216.849 Q2228.01 216.849 2225.65 214.627 Q2223.31 212.381 2223.31 208.631 Q2223.31 204.256 2226.23 202.034 Q2229.17 199.812 2234.98 199.812 L2240.95 199.812 L2240.95 199.395 Q2240.95 196.455 2239.01 194.858 Q2237.09 193.238 2233.59 193.238 Q2231.37 193.238 2229.26 193.77 Q2227.16 194.303 2225.21 195.367 L2225.21 191.432 Q2227.55 190.53 2229.75 190.09 Q2231.95 189.627 2234.03 189.627 Q2239.66 189.627 2242.43 192.543 Q2245.21 195.46 2245.21 201.386 Z" fill="#000000" fill-rule="nonzero" fill-opacity="1" /></svg>
