<?xml version="1.0" encoding="utf-8"?>
<svg xmlns="http://www.w3.org/2000/svg" xmlns:xlink="http://www.w3.org/1999/xlink" width="600" height="400" viewBox="0 0 2400 1600">
<defs>
  <clipPath id="clip890">
    <rect x="0" y="0" width="2400" height="1600"/>
  </clipPath>
</defs>
<path clip-path="url(#clip890)" d="M0 1600 L2400 1600 L2400 0 L0 0  Z" fill="#ffffff" fill-rule="evenodd" fill-opacity="1"/>
<defs>
  <clipPath id="clip891">
    <rect x="480" y="0" width="1681" height="1600"/>
  </clipPath>
</defs>
<path clip-path="url(#clip890)" d="M193.936 1486.45 L2352.76 1486.45 L2352.76 47.2441 L193.936 47.2441  Z" fill="#ffffff" fill-rule="evenodd" fill-opacity="1"/>
<defs>
  <clipPath id="clip892">
    <rect x="193" y="47" width="2160" height="1440"/>
  </clipPath>
</defs>
<polyline clip-path="url(#clip892)" style="stroke:#000000; stroke-linecap:round; stroke-linejoin:round; stroke-width:2; stroke-opacity:0.1; fill:none" points="255.035,1486.45 255.035,47.2441 "/>
<polyline clip-path="url(#clip892)" style="stroke:#000000; stroke-linecap:round; stroke-linejoin:round; stroke-width:2; stroke-opacity:0.1; fill:none" points="579.173,1486.45 579.173,47.2441 "/>
<polyline clip-path="url(#clip892)" style="stroke:#000000; stroke-linecap:round; stroke-linejoin:round; stroke-width:2; stroke-opacity:0.1; fill:none" points="903.312,1486.45 903.312,47.2441 "/>
<polyline clip-path="url(#clip892)" style="stroke:#000000; stroke-linecap:round; stroke-linejoin:round; stroke-width:2; stroke-opacity:0.1; fill:none" points="1227.45,1486.45 1227.45,47.2441 "/>
<polyline clip-path="url(#clip892)" style="stroke:#000000; stroke-linecap:round; stroke-linejoin:round; stroke-width:2; stroke-opacity:0.1; fill:none" points="1551.59,1486.45 1551.59,47.2441 "/>
<polyline clip-path="url(#clip892)" style="stroke:#000000; stroke-linecap:round; stroke-linejoin:round; stroke-width:2; stroke-opacity:0.1; fill:none" points="1875.73,1486.45 1875.73,47.2441 "/>
<polyline clip-path="url(#clip892)" style="stroke:#000000; stroke-linecap:round; stroke-linejoin:round; stroke-width:2; stroke-opacity:0.1; fill:none" points="2199.87,1486.45 2199.87,47.2441 "/>
<polyline clip-path="url(#clip892)" style="stroke:#000000; stroke-linecap:round; stroke-linejoin:round; stroke-width:2; stroke-opacity:0.1; fill:none" points="193.936,1267.74 2352.76,1267.74 "/>
<polyline clip-path="url(#clip892)" style="stroke:#000000; stroke-linecap:round; stroke-linejoin:round; stroke-width:2; stroke-opacity:0.1; fill:none" points="193.936,1008.02 2352.76,1008.02 "/>
<polyline clip-path="url(#clip892)" style="stroke:#000000; stroke-linecap:round; stroke-linejoin:round; stroke-width:2; stroke-opacity:0.1; fill:none" points="193.936,748.294 2352.76,748.294 "/>
<polyline clip-path="url(#clip892)" style="stroke:#000000; stroke-linecap:round; stroke-linejoin:round; stroke-width:2; stroke-opacity:0.1; fill:none" points="193.936,488.572 2352.76,488.572 "/>
<polyline clip-path="url(#clip892)" style="stroke:#000000; stroke-linecap:round; stroke-linejoin:round; stroke-width:2; stroke-opacity:0.1; fill:none" points="193.936,228.849 2352.76,228.849 "/>
<polyline clip-path="url(#clip890)" style="stroke:#000000; stroke-linecap:round; stroke-linejoin:round; stroke-width:4; stroke-opacity:1; fill:none" points="193.936,1486.45 2352.76,1486.45 "/>
<polyline clip-path="url(#clip890)" style="stroke:#000000; stroke-linecap:round; stroke-linejoin:round; stroke-width:4; stroke-opacity:1; fill:none" points="255.035,1486.45 255.035,1467.55 "/>
<polyline clip-path="url(#clip890)" style="stroke:#000000; stroke-linecap:round; stroke-linejoin:round; stroke-width:4; stroke-opacity:1; fill:none" points="579.173,1486.45 579.173,1467.55 "/>
<polyline clip-path="url(#clip890)" style="stroke:#000000; stroke-linecap:round; stroke-linejoin:round; stroke-width:4; stroke-opacity:1; fill:none" points="903.312,1486.45 903.312,1467.55 "/>
<polyline clip-path="url(#clip890)" style="stroke:#000000; stroke-linecap:round; stroke-linejoin:round; stroke-width:4; stroke-opacity:1; fill:none" points="1227.45,1486.45 1227.45,1467.55 "/>
<polyline clip-path="url(#clip890)" style="stroke:#000000; stroke-linecap:round; stroke-linejoin:round; stroke-width:4; stroke-opacity:1; fill:none" points="1551.59,1486.45 1551.59,1467.55 "/>
<polyline clip-path="url(#clip890)" style="stroke:#000000; stroke-linecap:round; stroke-linejoin:round; stroke-width:4; stroke-opacity:1; fill:none" points="1875.73,1486.45 1875.73,1467.55 "/>
<polyline clip-path="url(#clip890)" style="stroke:#000000; stroke-linecap:round; stroke-linejoin:round; stroke-width:4; stroke-opacity:1; fill:none" points="2199.87,1486.45 2199.87,1467.55 "/>
<path clip-path="url(#clip890)" d="M255.035 1517.37 Q251.424 1517.37 249.595 1520.93 Q247.789 1524.47 247.789 1531.6 Q247.789 1538.71 249.595 1542.27 Q251.424 1545.82 255.035 1545.82 Q258.669 1545.82 260.474 1542.27 Q262.303 1538.71 262.303 1531.6 Q262.303 1524.47 260.474 1520.93 Q258.669 1517.37 255.035 1517.37 M255.035 1513.66 Q260.845 1513.66 263.9 1518.27 Q266.979 1522.85 266.979 1531.6 Q266.979 1540.33 263.9 1544.94 Q260.845 1549.52 255.035 1549.52 Q249.225 1549.52 246.146 1544.94 Q243.09 1540.33 243.09 1531.6 Q243.09 1522.85 246.146 1518.27 Q249.225 1513.66 255.035 1513.66 Z" fill="#000000" fill-rule="nonzero" fill-opacity="1" /><path clip-path="url(#clip890)" d="M569.555 1544.91 L577.194 1544.91 L577.194 1518.55 L568.884 1520.21 L568.884 1515.95 L577.148 1514.29 L581.824 1514.29 L581.824 1544.91 L589.463 1544.91 L589.463 1548.85 L569.555 1548.85 L569.555 1544.91 Z" fill="#000000" fill-rule="nonzero" fill-opacity="1" /><path clip-path="url(#clip890)" d="M897.965 1544.91 L914.284 1544.91 L914.284 1548.85 L892.34 1548.85 L892.34 1544.91 Q895.002 1542.16 899.585 1537.53 Q904.191 1532.88 905.372 1531.53 Q907.617 1529.01 908.497 1527.27 Q909.4 1525.51 909.4 1523.82 Q909.4 1521.07 907.455 1519.33 Q905.534 1517.6 902.432 1517.6 Q900.233 1517.6 897.779 1518.36 Q895.349 1519.13 892.571 1520.68 L892.571 1515.95 Q895.395 1514.82 897.849 1514.24 Q900.303 1513.66 902.34 1513.66 Q907.71 1513.66 910.904 1516.35 Q914.099 1519.03 914.099 1523.52 Q914.099 1525.65 913.289 1527.57 Q912.502 1529.47 910.395 1532.07 Q909.816 1532.74 906.715 1535.95 Q903.613 1539.15 897.965 1544.91 Z" fill="#000000" fill-rule="nonzero" fill-opacity="1" /><path clip-path="url(#clip890)" d="M1231.7 1530.21 Q1235.05 1530.93 1236.93 1533.2 Q1238.83 1535.47 1238.83 1538.8 Q1238.83 1543.92 1235.31 1546.72 Q1231.79 1549.52 1225.31 1549.52 Q1223.13 1549.52 1220.82 1549.08 Q1218.53 1548.66 1216.07 1547.81 L1216.07 1543.29 Q1218.02 1544.43 1220.33 1545.01 Q1222.65 1545.58 1225.17 1545.58 Q1229.57 1545.58 1231.86 1543.85 Q1234.17 1542.11 1234.17 1538.8 Q1234.17 1535.75 1232.02 1534.03 Q1229.89 1532.3 1226.07 1532.3 L1222.05 1532.3 L1222.05 1528.45 L1226.26 1528.45 Q1229.71 1528.45 1231.54 1527.09 Q1233.36 1525.7 1233.36 1523.11 Q1233.36 1520.45 1231.47 1519.03 Q1229.59 1517.6 1226.07 1517.6 Q1224.15 1517.6 1221.95 1518.01 Q1219.75 1518.43 1217.11 1519.31 L1217.11 1515.14 Q1219.78 1514.4 1222.09 1514.03 Q1224.43 1513.66 1226.49 1513.66 Q1231.81 1513.66 1234.92 1516.09 Q1238.02 1518.5 1238.02 1522.62 Q1238.02 1525.49 1236.37 1527.48 Q1234.73 1529.45 1231.7 1530.21 Z" fill="#000000" fill-rule="nonzero" fill-opacity="1" /><path clip-path="url(#clip890)" d="M1554.6 1518.36 L1542.79 1536.81 L1554.6 1536.81 L1554.6 1518.36 M1553.37 1514.29 L1559.25 1514.29 L1559.25 1536.81 L1564.18 1536.81 L1564.18 1540.7 L1559.25 1540.7 L1559.25 1548.85 L1554.6 1548.85 L1554.6 1540.7 L1539 1540.7 L1539 1536.19 L1553.37 1514.29 Z" fill="#000000" fill-rule="nonzero" fill-opacity="1" /><path clip-path="url(#clip890)" d="M1866.01 1514.29 L1884.36 1514.29 L1884.36 1518.22 L1870.29 1518.22 L1870.29 1526.7 Q1871.31 1526.35 1872.32 1526.19 Q1873.34 1526 1874.36 1526 Q1880.15 1526 1883.53 1529.17 Q1886.91 1532.34 1886.91 1537.76 Q1886.91 1543.34 1883.44 1546.44 Q1879.96 1549.52 1873.64 1549.52 Q1871.47 1549.52 1869.2 1549.15 Q1866.95 1548.78 1864.55 1548.04 L1864.55 1543.34 Q1866.63 1544.47 1868.85 1545.03 Q1871.07 1545.58 1873.55 1545.58 Q1877.56 1545.58 1879.89 1543.48 Q1882.23 1541.37 1882.23 1537.76 Q1882.23 1534.15 1879.89 1532.04 Q1877.56 1529.94 1873.55 1529.94 Q1871.68 1529.94 1869.8 1530.35 Q1867.95 1530.77 1866.01 1531.65 L1866.01 1514.29 Z" fill="#000000" fill-rule="nonzero" fill-opacity="1" /><path clip-path="url(#clip890)" d="M2200.27 1529.7 Q2197.12 1529.7 2195.27 1531.86 Q2193.44 1534.01 2193.44 1537.76 Q2193.44 1541.49 2195.27 1543.66 Q2197.12 1545.82 2200.27 1545.82 Q2203.42 1545.82 2205.25 1543.66 Q2207.1 1541.49 2207.1 1537.76 Q2207.1 1534.01 2205.25 1531.86 Q2203.42 1529.7 2200.27 1529.7 M2209.55 1515.05 L2209.55 1519.31 Q2207.79 1518.48 2205.99 1518.04 Q2204.21 1517.6 2202.45 1517.6 Q2197.82 1517.6 2195.36 1520.72 Q2192.93 1523.85 2192.59 1530.17 Q2193.95 1528.15 2196.01 1527.09 Q2198.07 1526 2200.55 1526 Q2205.76 1526 2208.77 1529.17 Q2211.8 1532.32 2211.8 1537.76 Q2211.8 1543.08 2208.65 1546.3 Q2205.5 1549.52 2200.27 1549.52 Q2194.28 1549.52 2191.1 1544.94 Q2187.93 1540.33 2187.93 1531.6 Q2187.93 1523.41 2191.82 1518.55 Q2195.71 1513.66 2202.26 1513.66 Q2204.02 1513.66 2205.8 1514.01 Q2207.61 1514.36 2209.55 1515.05 Z" fill="#000000" fill-rule="nonzero" fill-opacity="1" /><polyline clip-path="url(#clip890)" style="stroke:#000000; stroke-linecap:round; stroke-linejoin:round; stroke-width:4; stroke-opacity:1; fill:none" points="193.936,1486.45 193.936,47.2441 "/>
<polyline clip-path="url(#clip890)" style="stroke:#000000; stroke-linecap:round; stroke-linejoin:round; stroke-width:4; stroke-opacity:1; fill:none" points="193.936,1267.74 212.834,1267.74 "/>
<polyline clip-path="url(#clip890)" style="stroke:#000000; stroke-linecap:round; stroke-linejoin:round; stroke-width:4; stroke-opacity:1; fill:none" points="193.936,1008.02 212.834,1008.02 "/>
<polyline clip-path="url(#clip890)" style="stroke:#000000; stroke-linecap:round; stroke-linejoin:round; stroke-width:4; stroke-opacity:1; fill:none" points="193.936,748.294 212.834,748.294 "/>
<polyline clip-path="url(#clip890)" style="stroke:#000000; stroke-linecap:round; stroke-linejoin:round; stroke-width:4; stroke-opacity:1; fill:none" points="193.936,488.572 212.834,488.572 "/>
<polyline clip-path="url(#clip890)" style="stroke:#000000; stroke-linecap:round; stroke-linejoin:round; stroke-width:4; stroke-opacity:1; fill:none" points="193.936,228.849 212.834,228.849 "/>
<path clip-path="url(#clip890)" d="M50.9921 1268.19 L80.6679 1268.19 L80.6679 1272.13 L50.9921 1272.13 L50.9921 1268.19 Z" fill="#000000" fill-rule="nonzero" fill-opacity="1" /><path clip-path="url(#clip890)" d="M91.5706 1281.08 L99.2095 1281.08 L99.2095 1254.72 L90.8993 1256.39 L90.8993 1252.13 L99.1632 1250.46 L103.839 1250.46 L103.839 1281.08 L111.478 1281.08 L111.478 1285.02 L91.5706 1285.02 L91.5706 1281.08 Z" fill="#000000" fill-rule="nonzero" fill-opacity="1" /><path clip-path="url(#clip890)" d="M120.922 1279.14 L125.807 1279.14 L125.807 1285.02 L120.922 1285.02 L120.922 1279.14 Z" fill="#000000" fill-rule="nonzero" fill-opacity="1" /><path clip-path="url(#clip890)" d="M145.992 1253.54 Q142.381 1253.54 140.552 1257.1 Q138.746 1260.64 138.746 1267.77 Q138.746 1274.88 140.552 1278.45 Q142.381 1281.99 145.992 1281.99 Q149.626 1281.99 151.431 1278.45 Q153.26 1274.88 153.26 1267.77 Q153.26 1260.64 151.431 1257.1 Q149.626 1253.54 145.992 1253.54 M145.992 1249.83 Q151.802 1249.83 154.857 1254.44 Q157.936 1259.02 157.936 1267.77 Q157.936 1276.5 154.857 1281.11 Q151.802 1285.69 145.992 1285.69 Q140.181 1285.69 137.103 1281.11 Q134.047 1276.5 134.047 1267.77 Q134.047 1259.02 137.103 1254.44 Q140.181 1249.83 145.992 1249.83 Z" fill="#000000" fill-rule="nonzero" fill-opacity="1" /><path clip-path="url(#clip890)" d="M51.9875 1008.47 L81.6633 1008.47 L81.6633 1012.4 L51.9875 1012.4 L51.9875 1008.47 Z" fill="#000000" fill-rule="nonzero" fill-opacity="1" /><path clip-path="url(#clip890)" d="M101.756 993.815 Q98.1447 993.815 96.316 997.38 Q94.5104 1000.92 94.5104 1008.05 Q94.5104 1015.16 96.316 1018.72 Q98.1447 1022.26 101.756 1022.26 Q105.39 1022.26 107.196 1018.72 Q109.024 1015.16 109.024 1008.05 Q109.024 1000.92 107.196 997.38 Q105.39 993.815 101.756 993.815 M101.756 990.112 Q107.566 990.112 110.621 994.718 Q113.7 999.301 113.7 1008.05 Q113.7 1016.78 110.621 1021.38 Q107.566 1025.97 101.756 1025.97 Q95.9456 1025.97 92.8669 1021.38 Q89.8114 1016.78 89.8114 1008.05 Q89.8114 999.301 92.8669 994.718 Q95.9456 990.112 101.756 990.112 Z" fill="#000000" fill-rule="nonzero" fill-opacity="1" /><path clip-path="url(#clip890)" d="M121.918 1019.42 L126.802 1019.42 L126.802 1025.3 L121.918 1025.3 L121.918 1019.42 Z" fill="#000000" fill-rule="nonzero" fill-opacity="1" /><path clip-path="url(#clip890)" d="M137.033 990.737 L155.39 990.737 L155.39 994.672 L141.316 994.672 L141.316 1003.14 Q142.334 1002.8 143.353 1002.63 Q144.371 1002.45 145.39 1002.45 Q151.177 1002.45 154.556 1005.62 Q157.936 1008.79 157.936 1014.21 Q157.936 1019.79 154.464 1022.89 Q150.992 1025.97 144.672 1025.97 Q142.496 1025.97 140.228 1025.6 Q137.982 1025.23 135.575 1024.49 L135.575 1019.79 Q137.658 1020.92 139.881 1021.48 Q142.103 1022.03 144.58 1022.03 Q148.584 1022.03 150.922 1019.93 Q153.26 1017.82 153.26 1014.21 Q153.26 1010.6 150.922 1008.49 Q148.584 1006.38 144.58 1006.38 Q142.705 1006.38 140.83 1006.8 Q138.978 1007.22 137.033 1008.1 L137.033 990.737 Z" fill="#000000" fill-rule="nonzero" fill-opacity="1" /><path clip-path="url(#clip890)" d="M100.76 734.093 Q97.1493 734.093 95.3206 737.658 Q93.515 741.199 93.515 748.329 Q93.515 755.435 95.3206 759 Q97.1493 762.542 100.76 762.542 Q104.395 762.542 106.2 759 Q108.029 755.435 108.029 748.329 Q108.029 741.199 106.2 737.658 Q104.395 734.093 100.76 734.093 M100.76 730.389 Q106.571 730.389 109.626 734.996 Q112.705 739.579 112.705 748.329 Q112.705 757.056 109.626 761.662 Q106.571 766.246 100.76 766.246 Q94.9502 766.246 91.8715 761.662 Q88.816 757.056 88.816 748.329 Q88.816 739.579 91.8715 734.996 Q94.9502 730.389 100.76 730.389 Z" fill="#000000" fill-rule="nonzero" fill-opacity="1" /><path clip-path="url(#clip890)" d="M120.922 759.695 L125.807 759.695 L125.807 765.574 L120.922 765.574 L120.922 759.695 Z" fill="#000000" fill-rule="nonzero" fill-opacity="1" /><path clip-path="url(#clip890)" d="M145.992 734.093 Q142.381 734.093 140.552 737.658 Q138.746 741.199 138.746 748.329 Q138.746 755.435 140.552 759 Q142.381 762.542 145.992 762.542 Q149.626 762.542 151.431 759 Q153.26 755.435 153.26 748.329 Q153.26 741.199 151.431 737.658 Q149.626 734.093 145.992 734.093 M145.992 730.389 Q151.802 730.389 154.857 734.996 Q157.936 739.579 157.936 748.329 Q157.936 757.056 154.857 761.662 Q151.802 766.246 145.992 766.246 Q140.181 766.246 137.103 761.662 Q134.047 757.056 134.047 748.329 Q134.047 739.579 137.103 734.996 Q140.181 730.389 145.992 730.389 Z" fill="#000000" fill-rule="nonzero" fill-opacity="1" /><path clip-path="url(#clip890)" d="M101.756 474.371 Q98.1447 474.371 96.316 477.935 Q94.5104 481.477 94.5104 488.607 Q94.5104 495.713 96.316 499.278 Q98.1447 502.819 101.756 502.819 Q105.39 502.819 107.196 499.278 Q109.024 495.713 109.024 488.607 Q109.024 481.477 107.196 477.935 Q105.39 474.371 101.756 474.371 M101.756 470.667 Q107.566 470.667 110.621 475.273 Q113.7 479.857 113.7 488.607 Q113.7 497.333 110.621 501.94 Q107.566 506.523 101.756 506.523 Q95.9456 506.523 92.8669 501.94 Q89.8114 497.333 89.8114 488.607 Q89.8114 479.857 92.8669 475.273 Q95.9456 470.667 101.756 470.667 Z" fill="#000000" fill-rule="nonzero" fill-opacity="1" /><path clip-path="url(#clip890)" d="M121.918 499.972 L126.802 499.972 L126.802 505.852 L121.918 505.852 L121.918 499.972 Z" fill="#000000" fill-rule="nonzero" fill-opacity="1" /><path clip-path="url(#clip890)" d="M137.033 471.292 L155.39 471.292 L155.39 475.227 L141.316 475.227 L141.316 483.699 Q142.334 483.352 143.353 483.19 Q144.371 483.005 145.39 483.005 Q151.177 483.005 154.556 486.176 Q157.936 489.347 157.936 494.764 Q157.936 500.343 154.464 503.444 Q150.992 506.523 144.672 506.523 Q142.496 506.523 140.228 506.153 Q137.982 505.782 135.575 505.042 L135.575 500.343 Q137.658 501.477 139.881 502.032 Q142.103 502.588 144.58 502.588 Q148.584 502.588 150.922 500.482 Q153.26 498.375 153.26 494.764 Q153.26 491.153 150.922 489.046 Q148.584 486.94 144.58 486.94 Q142.705 486.94 140.83 487.357 Q138.978 487.773 137.033 488.653 L137.033 471.292 Z" fill="#000000" fill-rule="nonzero" fill-opacity="1" /><path clip-path="url(#clip890)" d="M91.5706 242.194 L99.2095 242.194 L99.2095 215.829 L90.8993 217.495 L90.8993 213.236 L99.1632 211.569 L103.839 211.569 L103.839 242.194 L111.478 242.194 L111.478 246.129 L91.5706 246.129 L91.5706 242.194 Z" fill="#000000" fill-rule="nonzero" fill-opacity="1" /><path clip-path="url(#clip890)" d="M120.922 240.25 L125.807 240.25 L125.807 246.129 L120.922 246.129 L120.922 240.25 Z" fill="#000000" fill-rule="nonzero" fill-opacity="1" /><path clip-path="url(#clip890)" d="M145.992 214.648 Q142.381 214.648 140.552 218.213 Q138.746 221.755 138.746 228.884 Q138.746 235.991 140.552 239.555 Q142.381 243.097 145.992 243.097 Q149.626 243.097 151.431 239.555 Q153.26 235.991 153.26 228.884 Q153.26 221.755 151.431 218.213 Q149.626 214.648 145.992 214.648 M145.992 210.944 Q151.802 210.944 154.857 215.551 Q157.936 220.134 157.936 228.884 Q157.936 237.611 154.857 242.217 Q151.802 246.801 145.992 246.801 Q140.181 246.801 137.103 242.217 Q134.047 237.611 134.047 228.884 Q134.047 220.134 137.103 215.551 Q140.181 210.944 145.992 210.944 Z" fill="#000000" fill-rule="nonzero" fill-opacity="1" /><polyline clip-path="url(#clip892)" style="stroke:#009af9; stroke-linecap:round; stroke-linejoin:round; stroke-width:4; stroke-opacity:1; fill:none" points="255.035,748.294 258.276,743.1 261.517,737.906 264.759,732.713 268,727.522 271.242,722.333 274.483,717.146 277.724,711.963 280.966,706.783 284.207,701.607 287.449,696.436 290.69,691.271 293.931,686.11 297.173,680.957 300.414,675.809 303.655,670.669 306.897,665.537 310.138,660.413 313.38,655.298 316.621,650.193 319.862,645.097 323.104,640.011 326.345,634.936 329.587,629.873 332.828,624.821 336.069,619.782 339.311,614.755 342.552,609.742 345.793,604.743 349.035,599.758 352.276,594.788 355.518,589.833 358.759,584.894 362,579.972 365.242,575.066 368.483,570.178 371.725,565.307 374.966,560.455 378.207,555.622 381.449,550.807 384.69,546.013 387.931,541.239 391.173,536.485 394.414,531.753 397.656,527.042 400.897,522.354 404.138,517.688 407.38,513.045 410.621,508.425 413.863,503.83 417.104,499.259 420.345,494.713 423.587,490.192 426.828,485.698 430.069,481.229 433.311,476.787 436.552,472.372 439.794,467.985 443.035,463.626 446.276,459.295 449.518,454.994 452.759,450.721 456.001,446.479 459.242,442.266 462.483,438.084 465.725,433.933 468.966,429.814 472.208,425.726 475.449,421.671 478.69,417.648 481.932,413.659 485.173,409.703 488.414,405.78 491.656,401.892 494.897,398.039 498.139,394.221 501.38,390.438 504.621,386.69 507.863,382.979 511.104,379.305 514.346,375.667 517.587,372.067 520.828,368.504 524.07,364.98 527.311,361.493 530.552,358.046 533.794,354.637 537.035,351.268 540.277,347.938 543.518,344.648 546.759,341.399 550.001,338.191 553.242,335.023 556.484,331.897 559.725,328.812 562.966,325.77 566.208,322.769 569.449,319.812 572.69,316.897 575.932,314.025 579.173,311.197 582.415,308.412 585.656,305.671 588.897,302.975 592.139,300.323 595.38,297.716 598.622,295.154 601.863,292.637 605.104,290.166 608.346,287.741 611.587,285.361 614.828,283.028 618.07,280.742 621.311,278.502 624.553,276.309 627.794,274.164 631.035,272.066 634.277,270.015 637.518,268.012 640.76,266.058 644.001,264.151 647.242,262.293 650.484,260.484 653.725,258.723 656.966,257.012 660.208,255.349 663.449,253.736 666.691,252.172 669.932,250.658 673.173,249.193 676.415,247.779 679.656,246.415 682.898,245.1 686.139,243.836 689.38,242.623 692.622,241.46 695.863,240.348 699.104,239.286 702.346,238.276 705.587,237.316 708.829,236.408 712.07,235.55 715.311,234.744 718.553,233.99 721.794,233.286 725.036,232.635 728.277,232.035 731.518,231.486 734.76,230.989 738.001,230.544 741.242,230.151 744.484,229.809 747.725,229.519 750.967,229.282 754.208,229.096 757.449,228.962 760.691,228.88 763.932,228.85 767.174,228.871 770.415,228.945 773.656,229.071 776.898,229.249 780.139,229.478 783.381,229.76 786.622,230.093 789.863,230.478 793.105,230.915 796.346,231.403 799.587,231.944 802.829,232.536 806.07,233.179 809.312,233.874 812.553,234.621 815.794,235.418 819.036,236.268 822.277,237.168 825.519,238.119 828.76,239.122 832.001,240.175 835.243,241.279 838.484,242.434 841.725,243.64 844.967,244.896 848.208,246.202 851.45,247.558 854.691,248.965 857.932,250.421 861.174,251.928 864.415,253.484 867.657,255.089 870.898,256.744 874.139,258.447 877.381,260.2 880.622,262.002 883.863,263.852 887.105,265.751 890.346,267.698 893.588,269.693 896.829,271.736 900.07,273.826 903.312,275.964 906.553,278.15 909.795,280.382 913.036,282.661 916.277,284.987 919.519,287.359 922.76,289.777 926.001,292.24 929.243,294.75 932.484,297.305 935.726,299.905 938.967,302.549 942.208,305.239 945.45,307.972 948.691,310.75 951.933,313.572 955.174,316.436 958.415,319.345 961.657,322.296 964.898,325.289 968.139,328.325 971.381,331.403 974.622,334.522 977.864,337.683 981.105,340.885 984.346,344.128 987.588,347.411 990.829,350.735 994.071,354.098 997.312,357.5 1000.55,360.942 1003.79,364.422 1007.04,367.94 1010.28,371.497 1013.52,375.091 1016.76,378.723 1020,382.392 1023.24,386.097 1026.48,389.838 1029.73,393.616 1032.97,397.428 1036.21,401.276 1039.45,405.159 1042.69,409.076 1045.93,413.026 1049.17,417.011 1052.42,421.028 1055.66,425.078 1058.9,429.161 1062.14,433.275 1065.38,437.421 1068.62,441.598 1071.86,445.806 1075.11,450.044 1078.35,454.311 1081.59,458.608 1084.83,462.934 1088.07,467.289 1091.31,471.672 1094.55,476.082 1097.79,480.52 1101.04,484.984 1104.28,489.475 1107.52,493.991 1110.76,498.533 1114,503.1 1117.24,507.692 1120.48,512.308 1123.73,516.947 1126.97,521.609 1130.21,526.294 1133.45,531.001 1136.69,535.73 1139.93,540.48 1143.17,545.251 1146.42,550.042 1149.66,554.854 1152.9,559.684 1156.14,564.533 1159.38,569.401 1162.62,574.286 1165.86,579.189 1169.11,584.109 1172.35,589.046 1175.59,593.998 1178.83,598.965 1182.07,603.948 1185.31,608.945 1188.55,613.956 1191.8,618.98 1195.04,624.017 1198.28,629.067 1201.52,634.129 1204.76,639.202 1208,644.286 1211.24,649.38 1214.48,654.484 1217.73,659.598 1220.97,664.721 1224.21,669.852 1227.45,674.99 1230.69,680.136 1233.93,685.289 1237.17,690.448 1240.42,695.613 1243.66,700.783 1246.9,705.958 1250.14,711.138 1253.38,716.321 1256.62,721.507 1259.86,726.695 1263.11,731.886 1266.35,737.079 1269.59,742.273 1272.83,747.467 1276.07,752.661 1279.31,757.855 1282.55,763.048 1285.8,768.24 1289.04,773.429 1292.28,778.616 1295.52,783.8 1298.76,788.981 1302,794.157 1305.24,799.329 1308.48,804.496 1311.73,809.657 1314.97,814.812 1318.21,819.96 1321.45,825.101 1324.69,830.234 1327.93,835.36 1331.17,840.476 1334.42,845.584 1337.66,850.681 1340.9,855.768 1344.14,860.845 1347.38,865.91 1350.62,870.964 1353.86,876.005 1357.11,881.034 1360.35,886.049 1363.59,891.051 1366.83,896.038 1370.07,901.01 1373.31,905.967 1376.55,910.909 1379.8,915.834 1383.04,920.742 1386.28,925.633 1389.52,930.507 1392.76,935.362 1396,940.198 1399.24,945.016 1402.49,949.813 1405.73,954.591 1408.97,959.348 1412.21,964.083 1415.45,968.798 1418.69,973.49 1421.93,978.159 1425.17,982.806 1428.42,987.429 1431.66,992.028 1434.9,996.603 1438.14,1001.15 1441.38,1005.68 1444.62,1010.18 1447.86,1014.65 1451.11,1019.1 1454.35,1023.51 1457.59,1027.91 1460.83,1032.27 1464.07,1036.61 1467.31,1040.91 1470.55,1045.19 1473.8,1049.44 1477.04,1053.65 1480.28,1057.84 1483.52,1062 1486.76,1066.12 1490,1070.21 1493.24,1074.27 1496.49,1078.3 1499.73,1082.3 1502.97,1086.26 1506.21,1090.19 1509.45,1094.08 1512.69,1097.94 1515.93,1101.76 1519.18,1105.55 1522.42,1109.3 1525.66,1113.02 1528.9,1116.7 1532.14,1120.34 1535.38,1123.95 1538.62,1127.52 1541.86,1131.05 1545.11,1134.54 1548.35,1138 1551.59,1141.41 1554.83,1144.79 1558.07,1148.12 1561.31,1151.42 1564.55,1154.67 1567.8,1157.89 1571.04,1161.06 1574.28,1164.2 1577.52,1167.29 1580.76,1170.34 1584,1173.34 1587.24,1176.31 1590.49,1179.23 1593.73,1182.11 1596.97,1184.94 1600.21,1187.74 1603.45,1190.48 1606.69,1193.19 1609.93,1195.85 1613.18,1198.46 1616.42,1201.03 1619.66,1203.55 1622.9,1206.03 1626.14,1208.46 1629.38,1210.85 1632.62,1213.19 1635.86,1215.49 1639.11,1217.73 1642.35,1219.93 1645.59,1222.09 1648.83,1224.19 1652.07,1226.25 1655.31,1228.26 1658.55,1230.22 1661.8,1232.14 1665.04,1234 1668.28,1235.82 1671.52,1237.59 1674.76,1239.31 1678,1240.98 1681.24,1242.6 1684.49,1244.17 1687.73,1245.69 1690.97,1247.17 1694.21,1248.59 1697.45,1249.96 1700.69,1251.28 1703.93,1252.55 1707.18,1253.78 1710.42,1254.95 1713.66,1256.07 1716.9,1257.14 1720.14,1258.16 1723.38,1259.12 1726.62,1260.04 1729.87,1260.91 1733.11,1261.72 1736.35,1262.48 1739.59,1263.19 1742.83,1263.85 1746.07,1264.46 1749.31,1265.02 1752.55,1265.52 1755.8,1265.98 1759.04,1266.38 1762.28,1266.73 1765.52,1267.03 1768.76,1267.27 1772,1267.47 1775.24,1267.61 1778.49,1267.7 1781.73,1267.74 1784.97,1267.72 1788.21,1267.66 1791.45,1267.54 1794.69,1267.37 1797.93,1267.15 1801.18,1266.88 1804.42,1266.55 1807.66,1266.18 1810.9,1265.75 1814.14,1265.27 1817.38,1264.73 1820.62,1264.15 1823.87,1263.52 1827.11,1262.83 1830.35,1262.09 1833.59,1261.3 1836.83,1260.46 1840.07,1259.57 1843.31,1258.62 1846.55,1257.63 1849.8,1256.58 1853.04,1255.49 1856.28,1254.34 1859.52,1253.14 1862.76,1251.9 1866,1250.6 1869.24,1249.25 1872.49,1247.85 1875.73,1246.4 1878.97,1244.9 1882.21,1243.36 1885.45,1241.76 1888.69,1240.11 1891.93,1238.42 1895.18,1236.67 1898.42,1234.88 1901.66,1233.03 1904.9,1231.14 1908.14,1229.2 1911.38,1227.22 1914.62,1225.18 1917.87,1223.1 1921.11,1220.97 1924.35,1218.79 1927.59,1216.57 1930.83,1214.29 1934.07,1211.98 1937.31,1209.61 1940.56,1207.2 1943.8,1204.74 1947.04,1202.24 1950.28,1199.69 1953.52,1197.1 1956.76,1194.46 1960,1191.78 1963.24,1189.05 1966.49,1186.28 1969.73,1183.47 1972.97,1180.61 1976.21,1177.71 1979.45,1174.77 1982.69,1171.78 1985.93,1168.75 1989.18,1165.68 1992.42,1162.57 1995.66,1159.41 1998.9,1156.22 2002.14,1152.98 2005.38,1149.7 2008.62,1146.39 2011.87,1143.03 2015.11,1139.63 2018.35,1136.2 2021.59,1132.72 2024.83,1129.21 2028.07,1125.66 2031.31,1122.07 2034.56,1118.45 2037.8,1114.78 2041.04,1111.08 2044.28,1107.35 2047.52,1103.58 2050.76,1099.77 2054,1095.93 2057.24,1092.05 2060.49,1088.14 2063.73,1084.19 2066.97,1080.21 2070.21,1076.2 2073.45,1072.16 2076.69,1068.08 2079.93,1063.97 2083.18,1059.83 2086.42,1055.66 2089.66,1051.46 2092.9,1047.22 2096.14,1042.96 2099.38,1038.67 2102.62,1034.35 2105.87,1029.99 2109.11,1025.62 2112.35,1021.21 2115.59,1016.78 2118.83,1012.32 2122.07,1007.83 2125.31,1003.32 2128.56,998.78 2131.8,994.217 2135.04,989.629 2138.28,985.018 2141.52,980.382 2144.76,975.724 2148,971.042 2151.25,966.339 2154.49,961.613 2157.73,956.866 2160.97,952.099 2164.21,947.311 2167.45,942.503 2170.69,937.675 2173.93,932.829 2177.18,927.964 2180.42,923.081 2183.66,918.181 2186.9,913.264 2190.14,908.33 2193.38,903.381 2196.62,898.415 2199.87,893.435 2203.11,888.44 2206.35,883.432 2209.59,878.409 2212.83,873.374 2216.07,868.326 2219.31,863.267 2222.56,858.195 2225.8,853.113 2229.04,848.02 2232.28,842.918 2235.52,837.805 2238.76,832.684 2242,827.555 2245.25,822.417 2248.49,817.272 2251.73,812.121 2254.97,806.962 2258.21,801.798 2261.45,796.629 2264.69,791.455 2267.94,786.276 2271.18,781.094 2274.42,775.908 2277.66,770.72 2280.9,765.529 2284.14,760.337 2287.38,755.143 2290.62,749.949 "/>
<circle clip-path="url(#clip892)" cx="391.173" cy="597.052" r="14.4" fill="#e26f46" fill-rule="evenodd" fill-opacity="1" stroke="#000000" stroke-opacity="1" stroke-width="3.2"/>
<circle clip-path="url(#clip892)" cx="1314.97" cy="889.935" r="14.4" fill="#e26f46" fill-rule="evenodd" fill-opacity="1" stroke="#000000" stroke-opacity="1" stroke-width="3.2"/>
<circle clip-path="url(#clip892)" cx="1840.07" cy="1355.32" r="14.4" fill="#e26f46" fill-rule="evenodd" fill-opacity="1" stroke="#000000" stroke-opacity="1" stroke-width="3.2"/>
<circle clip-path="url(#clip892)" cx="640.76" cy="390.27" r="14.4" fill="#e26f46" fill-rule="evenodd" fill-opacity="1" stroke="#000000" stroke-opacity="1" stroke-width="3.2"/>
<circle clip-path="url(#clip892)" cx="1460.83" cy="1023.97" r="14.4" fill="#e26f46" fill-rule="evenodd" fill-opacity="1" stroke="#000000" stroke-opacity="1" stroke-width="3.2"/>
<circle clip-path="url(#clip892)" cx="2222.56" cy="930.717" r="14.4" fill="#e26f46" fill-rule="evenodd" fill-opacity="1" stroke="#000000" stroke-opacity="1" stroke-width="3.2"/>
<circle clip-path="url(#clip892)" cx="929.243" cy="353.192" r="14.4" fill="#e26f46" fill-rule="evenodd" fill-opacity="1" stroke="#000000" stroke-opacity="1" stroke-width="3.2"/>
<circle clip-path="url(#clip892)" cx="1347.38" cy="884.305" r="14.4" fill="#e26f46" fill-rule="evenodd" fill-opacity="1" stroke="#000000" stroke-opacity="1" stroke-width="3.2"/>
<circle clip-path="url(#clip892)" cx="1525.66" cy="1020.32" r="14.4" fill="#e26f46" fill-rule="evenodd" fill-opacity="1" stroke="#000000" stroke-opacity="1" stroke-width="3.2"/>
<circle clip-path="url(#clip892)" cx="1713.66" cy="1146.8" r="14.4" fill="#e26f46" fill-rule="evenodd" fill-opacity="1" stroke="#000000" stroke-opacity="1" stroke-width="3.2"/>
<circle clip-path="url(#clip892)" cx="1729.87" cy="1189.16" r="14.4" fill="#e26f46" fill-rule="evenodd" fill-opacity="1" stroke="#000000" stroke-opacity="1" stroke-width="3.2"/>
<circle clip-path="url(#clip892)" cx="1020" cy="334.383" r="14.4" fill="#e26f46" fill-rule="evenodd" fill-opacity="1" stroke="#000000" stroke-opacity="1" stroke-width="3.2"/>
<circle clip-path="url(#clip892)" cx="1425.17" cy="866.442" r="14.4" fill="#e26f46" fill-rule="evenodd" fill-opacity="1" stroke="#000000" stroke-opacity="1" stroke-width="3.2"/>
<circle clip-path="url(#clip892)" cx="1201.52" cy="641.568" r="14.4" fill="#e26f46" fill-rule="evenodd" fill-opacity="1" stroke="#000000" stroke-opacity="1" stroke-width="3.2"/>
<circle clip-path="url(#clip892)" cx="640.76" cy="377.232" r="14.4" fill="#e26f46" fill-rule="evenodd" fill-opacity="1" stroke="#000000" stroke-opacity="1" stroke-width="3.2"/>
<circle clip-path="url(#clip892)" cx="637.518" cy="141.927" r="14.4" fill="#e26f46" fill-rule="evenodd" fill-opacity="1" stroke="#000000" stroke-opacity="1" stroke-width="3.2"/>
<circle clip-path="url(#clip892)" cx="997.312" cy="248.553" r="14.4" fill="#e26f46" fill-rule="evenodd" fill-opacity="1" stroke="#000000" stroke-opacity="1" stroke-width="3.2"/>
<circle clip-path="url(#clip892)" cx="712.07" cy="285.829" r="14.4" fill="#e26f46" fill-rule="evenodd" fill-opacity="1" stroke="#000000" stroke-opacity="1" stroke-width="3.2"/>
<circle clip-path="url(#clip892)" cx="1467.31" cy="1064.62" r="14.4" fill="#e26f46" fill-rule="evenodd" fill-opacity="1" stroke="#000000" stroke-opacity="1" stroke-width="3.2"/>
<circle clip-path="url(#clip892)" cx="770.415" cy="225.014" r="14.4" fill="#e26f46" fill-rule="evenodd" fill-opacity="1" stroke="#000000" stroke-opacity="1" stroke-width="3.2"/>
<path clip-path="url(#clip892)" d="M255.035 1021.08 L258.276 1016.93 L261.517 1012.73 L264.759 1008.48 L268 1004.2 L271.242 999.863 L274.483 995.488 L277.724 991.07 L280.966 986.612 L284.207 982.115 L287.449 977.579 L290.69 973.008 L293.931 968.402 L297.173 963.763 L300.414 959.093 L303.655 954.395 L306.897 949.671 L310.138 944.924 L313.38 940.155 L316.621 935.369 L319.862 930.567 L323.104 925.754 L326.345 920.932 L329.587 916.106 L332.828 911.279 L336.069 906.456 L339.311 901.64 L342.552 896.836 L345.793 892.049 L349.035 887.283 L352.276 882.545 L355.518 877.838 L358.759 873.169 L362 868.543 L365.242 863.966 L368.483 859.443 L371.725 854.981 L374.966 850.585 L378.207 846.261 L381.449 842.016 L384.69 837.855 L387.931 833.783 L391.173 829.806 L394.414 825.927 L397.656 822.141 L400.897 818.441 L404.138 814.818 L407.38 811.265 L410.621 807.774 L413.863 804.337 L417.104 800.946 L420.345 797.593 L423.587 794.27 L426.828 790.97 L430.069 787.684 L433.311 784.406 L436.552 781.129 L439.794 777.845 L443.035 774.548 L446.276 771.232 L449.518 767.891 L452.759 764.518 L456.001 761.109 L459.242 757.659 L462.483 754.162 L465.725 750.614 L468.966 747.011 L472.208 743.348 L475.449 739.624 L478.69 735.833 L481.932 731.974 L485.173 728.044 L488.414 724.039 L491.656 719.959 L494.897 715.801 L498.139 711.564 L501.38 707.246 L504.621 702.848 L507.863 698.367 L511.104 693.804 L514.346 689.159 L517.587 684.432 L520.828 679.624 L524.07 674.734 L527.311 669.765 L530.552 664.718 L533.794 659.594 L537.035 654.396 L540.277 649.126 L543.518 643.786 L546.759 638.381 L550.001 632.912 L553.242 627.384 L556.484 621.802 L559.725 616.169 L562.966 610.492 L566.208 604.775 L569.449 599.024 L572.69 593.247 L575.932 587.451 L579.173 581.643 L582.415 575.831 L585.656 570.025 L588.897 564.234 L592.139 558.469 L595.38 552.741 L598.622 547.062 L601.863 541.445 L605.104 535.902 L608.346 530.45 L611.587 525.102 L614.828 519.876 L618.07 514.787 L621.311 509.853 L624.553 505.093 L627.794 500.524 L631.035 496.166 L634.277 492.037 L637.518 488.157 L640.76 484.54 L644.001 481.188 L647.242 478.091 L650.484 475.238 L653.725 472.614 L656.966 470.209 L660.208 468.009 L663.449 466.003 L666.691 464.177 L669.932 462.52 L673.173 461.023 L676.415 459.674 L679.656 458.464 L682.898 457.386 L686.139 456.433 L689.38 455.597 L692.622 454.873 L695.863 454.259 L699.104 453.749 L702.346 453.343 L705.587 453.038 L708.829 452.833 L712.07 452.73 L715.311 452.727 L718.553 452.818 L721.794 452.998 L725.036 453.259 L728.277 453.596 L731.518 454.006 L734.76 454.484 L738.001 455.026 L741.242 455.632 L744.484 456.298 L747.725 457.023 L750.967 457.807 L754.208 458.65 L757.449 459.553 L760.691 460.516 L763.932 461.541 L767.174 462.63 L770.415 463.785 L773.656 465.007 L776.898 466.287 L780.139 467.617 L783.381 468.987 L786.622 470.388 L789.863 471.812 L793.105 473.251 L796.346 474.697 L799.587 476.143 L802.829 477.582 L806.07 479.007 L809.312 480.414 L812.553 481.795 L815.794 483.147 L819.036 484.464 L822.277 485.742 L825.519 486.977 L828.76 488.167 L832.001 489.307 L835.243 490.396 L838.484 491.431 L841.725 492.41 L844.967 493.332 L848.208 494.197 L851.45 495.003 L854.691 495.75 L857.932 496.439 L861.174 497.071 L864.415 497.645 L867.657 498.165 L870.898 498.632 L874.139 499.048 L877.381 499.416 L880.622 499.74 L883.863 500.022 L887.105 500.268 L890.346 500.481 L893.588 500.667 L896.829 500.832 L900.07 500.981 L903.312 501.121 L906.553 501.259 L909.795 501.402 L913.036 501.559 L916.277 501.737 L919.519 501.945 L922.76 502.193 L926.001 502.49 L929.243 502.846 L932.484 503.27 L935.726 503.765 L938.967 504.335 L942.208 504.983 L945.45 505.713 L948.691 506.527 L951.933 507.432 L955.174 508.431 L958.415 509.531 L961.657 510.737 L964.898 512.056 L968.139 513.496 L971.381 515.063 L974.622 516.767 L977.864 518.617 L981.105 520.621 L984.346 522.79 L987.588 525.133 L990.829 527.662 L994.071 530.388 L997.312 533.32 L1000.55 536.469 L1003.79 539.832 L1007.04 543.407 L1010.28 547.189 L1013.52 551.175 L1016.76 555.361 L1020 559.744 L1023.24 564.319 L1026.48 569.073 L1029.73 573.99 L1032.97 579.057 L1036.21 584.258 L1039.45 589.581 L1042.69 595.012 L1045.93 600.538 L1049.17 606.147 L1052.42 611.826 L1055.66 617.566 L1058.9 623.356 L1062.14 629.184 L1065.38 635.044 L1068.62 640.924 L1071.86 646.818 L1075.11 652.717 L1078.35 658.615 L1081.59 664.504 L1084.83 670.379 L1088.07 676.234 L1091.31 682.064 L1094.55 687.864 L1097.79 693.63 L1101.04 699.358 L1104.28 705.045 L1107.52 710.687 L1110.76 716.282 L1114 721.828 L1117.24 727.323 L1120.48 732.765 L1123.73 738.153 L1126.97 743.487 L1130.21 748.765 L1133.45 753.989 L1136.69 759.157 L1139.93 764.271 L1143.17 769.332 L1146.42 774.34 L1149.66 779.298 L1152.9 784.206 L1156.14 789.069 L1159.38 793.886 L1162.62 798.663 L1165.86 803.401 L1169.11 808.104 L1172.35 812.776 L1175.59 817.421 L1178.83 822.042 L1182.07 826.645 L1185.31 831.233 L1188.55 835.812 L1191.8 840.387 L1195.04 844.963 L1198.28 849.544 L1201.52 854.136 L1204.76 858.743 L1208 863.361 L1211.24 867.983 L1214.48 872.603 L1217.73 877.216 L1220.97 881.817 L1224.21 886.399 L1227.45 890.958 L1230.69 895.488 L1233.93 899.985 L1237.17 904.444 L1240.42 908.861 L1243.66 913.232 L1246.9 917.554 L1250.14 921.824 L1253.38 926.039 L1256.62 930.197 L1259.86 934.296 L1263.11 938.335 L1266.35 942.313 L1269.59 946.23 L1272.83 950.085 L1276.07 953.879 L1279.31 957.613 L1282.55 961.289 L1285.8 964.908 L1289.04 968.473 L1292.28 971.986 L1295.52 975.452 L1298.76 978.874 L1302 982.255 L1305.24 985.602 L1308.48 988.917 L1311.73 992.207 L1314.97 995.477 L1318.21 998.732 L1321.45 1001.97 L1324.69 1005.2 L1327.93 1008.41 L1331.17 1011.61 L1334.42 1014.8 L1337.66 1017.98 L1340.9 1021.15 L1344.14 1024.31 L1347.38 1027.46 L1350.62 1030.61 L1353.86 1033.75 L1357.11 1036.87 L1360.35 1039.98 L1363.59 1043.06 L1366.83 1046.12 L1370.07 1049.15 L1373.31 1052.14 L1376.55 1055.1 L1379.8 1058.03 L1383.04 1060.92 L1386.28 1063.78 L1389.52 1066.61 L1392.76 1069.4 L1396 1072.17 L1399.24 1074.91 L1402.49 1077.63 L1405.73 1080.34 L1408.97 1083.05 L1412.21 1085.75 L1415.45 1088.47 L1418.69 1091.2 L1421.93 1093.96 L1425.17 1096.77 L1428.42 1099.61 L1431.66 1102.51 L1434.9 1105.46 L1438.14 1108.46 L1441.38 1111.51 L1444.62 1114.61 L1447.86 1117.77 L1451.11 1120.99 L1454.35 1124.27 L1457.59 1127.61 L1460.83 1131.02 L1464.07 1134.5 L1467.31 1138.04 L1470.55 1141.66 L1473.8 1145.33 L1477.04 1149.05 L1480.28 1152.82 L1483.52 1156.63 L1486.76 1160.48 L1490 1164.36 L1493.24 1168.27 L1496.49 1172.2 L1499.73 1176.15 L1502.97 1180.12 L1506.21 1184.1 L1509.45 1188.1 L1512.69 1192.1 L1515.93 1196.12 L1519.18 1200.15 L1522.42 1204.2 L1525.66 1208.25 L1528.9 1212.32 L1532.14 1216.39 L1535.38 1220.46 L1538.62 1224.52 L1541.86 1228.56 L1545.11 1232.57 L1548.35 1236.54 L1551.59 1240.48 L1554.83 1244.37 L1558.07 1248.2 L1561.31 1251.98 L1564.55 1255.69 L1567.8 1259.34 L1571.04 1262.91 L1574.28 1266.41 L1577.52 1269.83 L1580.76 1273.17 L1584 1276.42 L1587.24 1279.58 L1590.49 1282.65 L1593.73 1285.63 L1596.97 1288.51 L1600.21 1291.3 L1603.45 1294 L1606.69 1296.6 L1609.93 1299.1 L1613.18 1301.5 L1616.42 1303.8 L1619.66 1306.01 L1622.9 1308.12 L1626.14 1310.14 L1629.38 1312.07 L1632.62 1313.9 L1635.86 1315.65 L1639.11 1317.31 L1642.35 1318.88 L1645.59 1320.37 L1648.83 1321.79 L1652.07 1323.13 L1655.31 1324.41 L1658.55 1325.62 L1661.8 1326.77 L1665.04 1327.86 L1668.28 1328.91 L1671.52 1329.92 L1674.76 1330.9 L1678 1331.84 L1681.24 1332.77 L1684.49 1333.69 L1687.73 1334.61 L1690.97 1335.54 L1694.21 1336.49 L1697.45 1337.46 L1700.69 1338.48 L1703.93 1339.54 L1707.18 1340.67 L1710.42 1341.86 L1713.66 1343.14 L1716.9 1344.52 L1720.14 1345.99 L1723.38 1347.55 L1726.62 1349.21 L1729.87 1350.97 L1733.11 1352.82 L1736.35 1354.75 L1739.59 1356.77 L1742.83 1358.85 L1746.07 1360.99 L1749.31 1363.19 L1752.55 1365.42 L1755.8 1367.69 L1759.04 1369.98 L1762.28 1372.29 L1765.52 1374.6 L1768.76 1376.93 L1772 1379.24 L1775.24 1381.55 L1778.49 1383.85 L1781.73 1386.13 L1784.97 1388.38 L1788.21 1390.61 L1791.45 1392.81 L1794.69 1394.98 L1797.93 1397.11 L1801.18 1399.21 L1804.42 1401.28 L1807.66 1403.3 L1810.9 1405.29 L1814.14 1407.24 L1817.38 1409.15 L1820.62 1411.03 L1823.87 1412.86 L1827.11 1414.67 L1830.35 1416.44 L1833.59 1418.17 L1836.83 1419.87 L1840.07 1421.54 L1843.31 1423.18 L1846.55 1424.78 L1849.8 1426.34 L1853.04 1427.87 L1856.28 1429.35 L1859.52 1430.78 L1862.76 1432.17 L1866 1433.5 L1869.24 1434.77 L1872.49 1435.99 L1875.73 1437.14 L1878.97 1438.23 L1882.21 1439.25 L1885.45 1440.21 L1888.69 1441.09 L1891.93 1441.91 L1895.18 1442.64 L1898.42 1443.3 L1901.66 1443.89 L1904.9 1444.39 L1908.14 1444.82 L1911.38 1445.16 L1914.62 1445.43 L1917.87 1445.61 L1921.11 1445.7 L1924.35 1445.72 L1927.59 1445.64 L1930.83 1445.49 L1934.07 1445.25 L1937.31 1444.92 L1940.56 1444.51 L1943.8 1444.02 L1947.04 1443.44 L1950.28 1442.77 L1953.52 1442.02 L1956.76 1441.19 L1960 1440.27 L1963.24 1439.27 L1966.49 1438.18 L1969.73 1437.01 L1972.97 1435.76 L1976.21 1434.43 L1979.45 1433.01 L1982.69 1431.52 L1985.93 1429.94 L1989.18 1428.28 L1992.42 1426.55 L1995.66 1424.73 L1998.9 1422.84 L2002.14 1420.87 L2005.38 1418.83 L2008.62 1416.71 L2011.87 1414.51 L2015.11 1412.24 L2018.35 1409.9 L2021.59 1407.48 L2024.83 1404.99 L2028.07 1402.44 L2031.31 1399.81 L2034.56 1397.12 L2037.8 1394.35 L2041.04 1391.52 L2044.28 1388.63 L2047.52 1385.67 L2050.76 1382.65 L2054 1379.57 L2057.24 1376.42 L2060.49 1373.22 L2063.73 1369.96 L2066.97 1366.64 L2070.21 1363.27 L2073.45 1359.84 L2076.69 1356.36 L2079.93 1352.84 L2083.18 1349.26 L2086.42 1345.64 L2089.66 1341.97 L2092.9 1338.26 L2096.14 1334.51 L2099.38 1330.72 L2102.62 1326.89 L2105.87 1323.04 L2109.11 1319.15 L2112.35 1315.23 L2115.59 1311.29 L2118.83 1307.33 L2122.07 1303.35 L2125.31 1299.36 L2128.56 1295.35 L2131.8 1291.34 L2135.04 1287.32 L2138.28 1283.31 L2141.52 1279.3 L2144.76 1275.3 L2148 1271.31 L2151.25 1267.35 L2154.49 1263.42 L2157.73 1259.51 L2160.97 1255.65 L2164.21 1251.82 L2167.45 1248.05 L2170.69 1244.34 L2173.93 1240.7 L2177.18 1237.12 L2180.42 1233.63 L2183.66 1230.23 L2186.9 1226.92 L2190.14 1223.72 L2193.38 1220.63 L2196.62 1217.66 L2199.87 1214.83 L2203.11 1212.13 L2206.35 1209.58 L2209.59 1207.19 L2212.83 1204.97 L2216.07 1202.92 L2219.31 1201.06 L2222.56 1199.38 L2225.8 1197.91 L2229.04 1196.62 L2232.28 1195.52 L2235.52 1194.6 L2238.76 1193.85 L2242 1193.26 L2245.25 1192.83 L2248.49 1192.54 L2251.73 1192.39 L2254.97 1192.38 L2258.21 1192.49 L2261.45 1192.71 L2264.69 1193.04 L2267.94 1193.48 L2271.18 1194.01 L2274.42 1194.62 L2277.66 1195.32 L2280.9 1196.09 L2284.14 1196.94 L2287.38 1197.84 L2290.62 1198.8 L2290.62 578.13 L2287.38 582.42 L2284.14 586.683 L2280.9 590.913 L2277.66 595.105 L2274.42 599.252 L2271.18 603.349 L2267.94 607.389 L2264.69 611.365 L2261.45 615.271 L2258.21 619.098 L2254.97 622.841 L2251.73 626.49 L2248.49 630.039 L2245.25 633.479 L2242 636.803 L2238.76 640.003 L2235.52 643.07 L2232.28 645.998 L2229.04 648.778 L2225.8 651.404 L2222.56 653.867 L2219.31 656.164 L2216.07 658.3 L2212.83 660.283 L2209.59 662.122 L2206.35 663.826 L2203.11 665.403 L2199.87 666.863 L2196.62 668.215 L2193.38 669.468 L2190.14 670.63 L2186.9 671.71 L2183.66 672.718 L2180.42 673.661 L2177.18 674.548 L2173.93 675.387 L2170.69 676.186 L2167.45 676.952 L2164.21 677.692 L2160.97 678.413 L2157.73 679.122 L2154.49 679.825 L2151.25 680.528 L2148 681.238 L2144.76 681.958 L2141.52 682.696 L2138.28 683.454 L2135.04 684.239 L2131.8 685.054 L2128.56 685.903 L2125.31 686.79 L2122.07 687.72 L2118.83 688.695 L2115.59 689.718 L2112.35 690.792 L2109.11 691.921 L2105.87 693.106 L2102.62 694.35 L2099.38 695.656 L2096.14 697.025 L2092.9 698.459 L2089.66 699.959 L2086.42 701.529 L2083.18 703.168 L2079.93 704.878 L2076.69 706.661 L2073.45 708.517 L2070.21 710.447 L2066.97 712.453 L2063.73 714.534 L2060.49 716.692 L2057.24 718.927 L2054 721.239 L2050.76 723.628 L2047.52 726.096 L2044.28 728.641 L2041.04 731.264 L2037.8 733.965 L2034.56 736.744 L2031.31 739.6 L2028.07 742.533 L2024.83 745.544 L2021.59 748.63 L2018.35 751.792 L2015.11 755.029 L2011.87 758.34 L2008.62 761.724 L2005.38 765.181 L2002.14 768.709 L1998.9 772.308 L1995.66 775.976 L1992.42 779.712 L1989.18 783.514 L1985.93 787.381 L1982.69 791.312 L1979.45 795.305 L1976.21 799.357 L1972.97 803.468 L1969.73 807.635 L1966.49 811.856 L1963.24 816.128 L1960 820.45 L1956.76 824.819 L1953.52 829.232 L1950.28 833.687 L1947.04 838.18 L1943.8 842.709 L1940.56 847.27 L1937.31 851.86 L1934.07 856.475 L1930.83 861.112 L1927.59 865.766 L1924.35 870.434 L1921.11 875.111 L1917.87 879.793 L1914.62 884.474 L1911.38 889.15 L1908.14 893.816 L1904.9 898.465 L1901.66 903.093 L1898.42 907.693 L1895.18 912.258 L1891.93 916.783 L1888.69 921.26 L1885.45 925.682 L1882.21 930.042 L1878.97 934.331 L1875.73 938.541 L1872.49 942.665 L1869.24 946.693 L1866 950.615 L1862.76 954.424 L1859.52 958.108 L1856.28 961.658 L1853.04 965.063 L1849.8 968.313 L1846.55 971.397 L1843.31 974.305 L1840.07 977.024 L1836.83 979.548 L1833.59 981.882 L1830.35 984.033 L1827.11 986.01 L1823.87 987.821 L1820.62 989.474 L1817.38 990.976 L1814.14 992.335 L1810.9 993.558 L1807.66 994.65 L1804.42 995.618 L1801.18 996.467 L1797.93 997.202 L1794.69 997.828 L1791.45 998.347 L1788.21 998.763 L1784.97 999.079 L1781.73 999.296 L1778.49 999.416 L1775.24 999.438 L1772 999.363 L1768.76 999.189 L1765.52 998.916 L1762.28 998.54 L1759.04 998.059 L1755.8 997.469 L1752.55 996.765 L1749.31 995.945 L1746.07 995.001 L1742.83 993.929 L1739.59 992.722 L1736.35 991.375 L1733.11 989.88 L1729.87 988.232 L1726.62 986.425 L1723.38 984.463 L1720.14 982.349 L1716.9 980.087 L1713.66 977.683 L1710.42 975.143 L1707.18 972.479 L1703.93 969.703 L1700.69 966.831 L1697.45 963.875 L1694.21 960.848 L1690.97 957.762 L1687.73 954.63 L1684.49 951.464 L1681.24 948.275 L1678 945.073 L1674.76 941.868 L1671.52 938.67 L1668.28 935.489 L1665.04 932.331 L1661.8 929.205 L1658.55 926.119 L1655.31 923.079 L1652.07 920.091 L1648.83 917.161 L1645.59 914.294 L1642.35 911.496 L1639.11 908.769 L1635.86 906.119 L1632.62 903.548 L1629.38 901.06 L1626.14 898.657 L1622.9 896.341 L1619.66 894.114 L1616.42 891.978 L1613.18 889.933 L1609.93 887.98 L1606.69 886.12 L1603.45 884.352 L1600.21 882.676 L1596.97 881.091 L1593.73 879.597 L1590.49 878.19 L1587.24 876.871 L1584 875.635 L1580.76 874.482 L1577.52 873.406 L1574.28 872.406 L1571.04 871.478 L1567.8 870.616 L1564.55 869.817 L1561.31 869.075 L1558.07 868.385 L1554.83 867.741 L1551.59 867.136 L1548.35 866.564 L1545.11 866.016 L1541.86 865.486 L1538.62 864.965 L1535.38 864.444 L1532.14 863.914 L1528.9 863.365 L1525.66 862.788 L1522.42 862.173 L1519.18 861.518 L1515.93 860.818 L1512.69 860.072 L1509.45 859.275 L1506.21 858.423 L1502.97 857.512 L1499.73 856.537 L1496.49 855.491 L1493.24 854.368 L1490 853.161 L1486.76 851.862 L1483.52 850.463 L1480.28 848.955 L1477.04 847.327 L1473.8 845.57 L1470.55 843.674 L1467.31 841.628 L1464.07 839.422 L1460.83 837.056 L1457.59 834.531 L1454.35 831.856 L1451.11 829.042 L1447.86 826.098 L1444.62 823.034 L1441.38 819.859 L1438.14 816.582 L1434.9 813.211 L1431.66 809.754 L1428.42 806.218 L1425.17 802.608 L1421.93 798.932 L1418.69 795.198 L1415.45 791.413 L1412.21 787.585 L1408.97 783.721 L1405.73 779.827 L1402.49 775.906 L1399.24 771.964 L1396 768.002 L1392.76 764.024 L1389.52 760.029 L1386.28 756.019 L1383.04 751.993 L1379.8 747.949 L1376.55 743.884 L1373.31 739.795 L1370.07 735.678 L1366.83 731.527 L1363.59 727.338 L1360.35 723.103 L1357.11 718.815 L1353.86 714.467 L1350.62 710.05 L1347.38 705.556 L1344.14 700.978 L1340.9 696.313 L1337.66 691.562 L1334.42 686.723 L1331.17 681.797 L1327.93 676.782 L1324.69 671.676 L1321.45 666.477 L1318.21 661.184 L1314.97 655.794 L1311.73 650.306 L1308.48 644.729 L1305.24 639.071 L1302 633.34 L1298.76 627.547 L1295.52 621.698 L1292.28 615.801 L1289.04 609.865 L1285.8 603.894 L1282.55 597.896 L1279.31 591.877 L1276.07 585.84 L1272.83 579.792 L1269.59 573.736 L1266.35 567.676 L1263.11 561.615 L1259.86 555.555 L1256.62 549.498 L1253.38 543.447 L1250.14 537.402 L1246.9 531.363 L1243.66 525.332 L1240.42 519.308 L1237.17 513.29 L1233.93 507.277 L1230.69 501.268 L1227.45 495.261 L1224.21 489.255 L1220.97 483.246 L1217.73 477.233 L1214.48 471.212 L1211.24 465.181 L1208 459.137 L1204.76 453.076 L1201.52 446.996 L1198.28 440.894 L1195.04 434.777 L1191.8 428.652 L1188.55 422.524 L1185.31 416.403 L1182.07 410.293 L1178.83 404.203 L1175.59 398.138 L1172.35 392.105 L1169.11 386.111 L1165.86 380.16 L1162.62 374.26 L1159.38 368.416 L1156.14 362.632 L1152.9 356.914 L1149.66 351.267 L1146.42 345.694 L1143.17 340.201 L1139.93 334.791 L1136.69 329.468 L1133.45 324.236 L1130.21 319.097 L1126.97 314.054 L1123.73 309.11 L1120.48 304.267 L1117.24 299.528 L1114 294.893 L1110.76 290.365 L1107.52 285.945 L1104.28 281.633 L1101.04 277.431 L1097.79 273.337 L1094.55 269.354 L1091.31 265.479 L1088.07 261.712 L1084.83 258.053 L1081.59 254.5 L1078.35 251.051 L1075.11 247.704 L1071.86 244.456 L1068.62 241.305 L1065.38 238.247 L1062.14 235.278 L1058.9 232.394 L1055.66 229.591 L1052.42 226.863 L1049.17 224.205 L1045.93 221.611 L1042.69 219.074 L1039.45 216.587 L1036.21 214.144 L1032.97 211.736 L1029.73 209.355 L1026.48 206.993 L1023.24 204.642 L1020 202.294 L1016.76 199.94 L1013.52 197.579 L1010.28 195.209 L1007.04 192.828 L1003.79 190.435 L1000.55 188.03 L997.312 185.611 L994.071 183.178 L990.829 180.733 L987.588 178.28 L984.346 175.82 L981.105 173.358 L977.864 170.894 L974.622 168.433 L971.381 165.975 L968.139 163.522 L964.898 161.076 L961.657 158.638 L958.415 156.208 L955.174 153.787 L951.933 151.373 L948.691 148.967 L945.45 146.566 L942.208 144.17 L938.967 141.777 L935.726 139.384 L932.484 136.989 L929.243 134.589 L926.001 132.185 L922.76 129.781 L919.519 127.386 L916.277 125.009 L913.036 122.657 L909.795 120.338 L906.553 118.059 L903.312 115.827 L900.07 113.648 L896.829 111.529 L893.588 109.475 L890.346 107.493 L887.105 105.586 L883.863 103.759 L880.622 102.018 L877.381 100.366 L874.139 98.8058 L870.898 97.342 L867.657 95.9772 L864.415 94.714 L861.174 93.5548 L857.932 92.5015 L854.691 91.5559 L851.45 90.7194 L848.208 89.9932 L844.967 89.378 L841.725 88.8744 L838.484 88.4826 L835.243 88.2026 L832.001 88.034 L828.76 87.9763 L825.519 88.0284 L822.277 88.1892 L819.036 88.4571 L815.794 88.8304 L812.553 89.307 L809.312 89.8844 L806.07 90.5598 L802.829 91.3305 L799.587 92.1929 L796.346 93.1434 L793.105 94.1783 L789.863 95.2931 L786.622 96.4836 L783.381 97.7449 L780.139 99.0719 L776.898 100.46 L773.656 101.902 L770.415 103.395 L767.174 104.932 L763.932 106.514 L760.691 108.141 L757.449 109.813 L754.208 111.531 L750.967 113.293 L747.725 115.1 L744.484 116.95 L741.242 118.842 L738.001 120.774 L734.76 122.744 L731.518 124.748 L728.277 126.784 L725.036 128.847 L721.794 130.933 L718.553 133.036 L715.311 135.151 L712.07 137.271 L708.829 139.392 L705.587 141.512 L702.346 143.632 L699.104 145.75 L695.863 147.866 L692.622 149.977 L689.38 152.081 L686.139 154.174 L682.898 156.252 L679.656 158.309 L676.415 160.339 L673.173 162.335 L669.932 164.29 L666.691 166.193 L663.449 168.038 L660.208 169.813 L656.966 171.508 L653.725 173.114 L650.484 174.619 L647.242 176.014 L644.001 177.288 L640.76 178.433 L637.518 179.442 L634.277 180.325 L631.035 181.097 L627.794 181.768 L624.553 182.353 L621.311 182.864 L618.07 183.316 L614.828 183.72 L611.587 184.09 L608.346 184.436 L605.104 184.77 L601.863 185.103 L598.622 185.443 L595.38 185.802 L592.139 186.185 L588.897 186.603 L585.656 187.06 L582.415 187.565 L579.173 188.122 L575.932 188.737 L572.69 189.414 L569.449 190.158 L566.208 190.972 L562.966 191.859 L559.725 192.823 L556.484 193.864 L553.242 194.985 L550.001 196.189 L546.759 197.475 L543.518 198.844 L540.277 200.298 L537.035 201.836 L533.794 203.459 L530.552 205.166 L527.311 206.956 L524.07 208.828 L520.828 210.782 L517.587 212.817 L514.346 214.929 L511.104 217.118 L507.863 219.382 L504.621 221.718 L501.38 224.123 L498.139 226.596 L494.897 229.132 L491.656 231.728 L488.414 234.381 L485.173 237.088 L481.932 239.843 L478.69 242.643 L475.449 245.484 L472.208 248.359 L468.966 251.265 L465.725 254.195 L462.483 257.144 L459.242 260.107 L456.001 263.076 L452.759 266.046 L449.518 269.009 L446.276 271.958 L443.035 274.885 L439.794 277.784 L436.552 280.646 L433.311 283.463 L430.069 286.225 L426.828 288.926 L423.587 291.554 L420.345 294.103 L417.104 296.561 L413.863 298.919 L410.621 301.168 L407.38 303.299 L404.138 305.301 L400.897 307.165 L397.656 308.882 L394.414 310.442 L391.173 311.836 L387.931 313.057 L384.69 314.109 L381.449 314.999 L378.207 315.733 L374.966 316.318 L371.725 316.761 L368.483 317.068 L365.242 317.247 L362 317.304 L358.759 317.247 L355.518 317.081 L352.276 316.813 L349.035 316.45 L345.793 315.997 L342.552 315.461 L339.311 314.847 L336.069 314.161 L332.828 313.408 L329.587 312.593 L326.345 311.722 L323.104 310.798 L319.862 309.827 L316.621 308.811 L313.38 307.757 L310.138 306.667 L306.897 305.544 L303.655 304.393 L300.414 303.217 L297.173 302.018 L293.931 300.8 L290.69 299.565 L287.449 298.315 L284.207 297.054 L280.966 295.784 L277.724 294.506 L274.483 293.223 L271.242 291.936 L268 290.647 L264.759 289.358 L261.517 288.071 L258.276 286.786 L255.035 285.506  Z" fill="#3da44d" fill-rule="evenodd" fill-opacity="0.1"/>
<polyline clip-path="url(#clip892)" style="stroke:#3da44d; stroke-linecap:round; stroke-linejoin:round; stroke-width:8; stroke-opacity:1; fill:none" points="255.035,653.292 258.276,651.856 261.517,650.4 264.759,648.922 268,647.422 271.242,645.9 274.483,644.355 277.724,642.788 280.966,641.198 284.207,639.585 287.449,637.947 290.69,636.286 293.931,634.601 297.173,632.89 300.414,631.155 303.655,629.394 306.897,627.608 310.138,625.795 313.38,623.956 316.621,622.09 319.862,620.197 323.104,618.276 326.345,616.327 329.587,614.35 332.828,612.344 336.069,610.308 339.311,608.243 342.552,606.148 345.793,604.023 349.035,601.866 352.276,599.679 355.518,597.459 358.759,595.208 362,592.924 365.242,590.606 368.483,588.256 371.725,585.871 374.966,583.451 378.207,580.997 381.449,578.507 384.69,575.982 387.931,573.42 391.173,570.821 394.414,568.184 397.656,565.512 400.897,562.803 404.138,560.06 407.38,557.282 410.621,554.471 413.863,551.628 417.104,548.753 420.345,545.848 423.587,542.912 426.828,539.948 430.069,536.955 433.311,533.934 436.552,530.887 439.794,527.814 443.035,524.717 446.276,521.595 449.518,518.45 452.759,515.282 456.001,512.093 459.242,508.883 462.483,505.653 465.725,502.404 468.966,499.138 472.208,495.854 475.449,492.554 478.69,489.238 481.932,485.909 485.173,482.566 488.414,479.21 491.656,475.843 494.897,472.466 498.139,469.08 501.38,465.685 504.621,462.283 507.863,458.875 511.104,455.461 514.346,452.044 517.587,448.624 520.828,445.203 524.07,441.781 527.311,438.361 530.552,434.942 533.794,431.527 537.035,428.116 540.277,424.712 543.518,421.315 546.759,417.928 550.001,414.55 553.242,411.185 556.484,407.833 559.725,404.496 562.966,401.176 566.208,397.873 569.449,394.591 572.69,391.331 575.932,388.094 579.173,384.882 582.415,381.698 585.656,378.543 588.897,375.418 592.139,372.327 595.38,369.271 598.622,366.253 601.863,363.274 605.104,360.336 608.346,357.443 611.587,354.596 614.828,351.798 618.07,349.052 621.311,346.359 624.553,343.723 627.794,341.146 631.035,338.631 634.277,336.181 637.518,333.799 640.76,331.486 644.001,329.238 647.242,327.053 650.484,324.928 653.725,322.864 656.966,320.859 660.208,318.911 663.449,317.02 666.691,315.185 669.932,313.405 673.173,311.679 676.415,310.006 679.656,308.387 682.898,306.819 686.139,305.303 689.38,303.839 692.622,302.425 695.863,301.062 699.104,299.75 702.346,298.487 705.587,297.275 708.829,296.113 712.07,295.001 715.311,293.939 718.553,292.927 721.794,291.965 725.036,291.053 728.277,290.19 731.518,289.377 734.76,288.614 738.001,287.9 741.242,287.237 744.484,286.624 747.725,286.061 750.967,285.55 754.208,285.091 757.449,284.683 760.691,284.329 763.932,284.028 767.174,283.781 770.415,283.59 773.656,283.455 776.898,283.373 780.139,283.344 783.381,283.366 786.622,283.436 789.863,283.552 793.105,283.714 796.346,283.92 799.587,284.168 802.829,284.456 806.07,284.784 809.312,285.149 812.553,285.551 815.794,285.989 819.036,286.46 822.277,286.966 825.519,287.503 828.76,288.072 832.001,288.671 835.243,289.299 838.484,289.957 841.725,290.642 844.967,291.355 848.208,292.095 851.45,292.861 854.691,293.653 857.932,294.47 861.174,295.313 864.415,296.18 867.657,297.071 870.898,297.987 874.139,298.927 877.381,299.891 880.622,300.879 883.863,301.891 887.105,302.927 890.346,303.987 893.588,305.071 896.829,306.181 900.07,307.315 903.312,308.474 906.553,309.659 909.795,310.87 913.036,312.108 916.277,313.373 919.519,314.666 922.76,315.987 926.001,317.337 929.243,318.718 932.484,320.129 935.726,321.575 938.967,323.056 942.208,324.577 945.45,326.139 948.691,327.747 951.933,329.402 955.174,331.109 958.415,332.87 961.657,334.688 964.898,336.566 968.139,338.509 971.381,340.519 974.622,342.6 977.864,344.756 981.105,346.989 984.346,349.305 987.588,351.707 990.829,354.198 994.071,356.783 997.312,359.465 1000.55,362.249 1003.79,365.134 1007.04,368.117 1010.28,371.199 1013.52,374.377 1016.76,377.651 1020,381.019 1023.24,384.481 1026.48,388.033 1029.73,391.672 1032.97,395.396 1036.21,399.201 1039.45,403.084 1042.69,407.043 1045.93,411.074 1049.17,415.176 1052.42,419.345 1055.66,423.579 1058.9,427.875 1062.14,432.231 1065.38,436.645 1068.62,441.114 1071.86,445.637 1075.11,450.21 1078.35,454.833 1081.59,459.502 1084.83,464.216 1088.07,468.973 1091.31,473.772 1094.55,478.609 1097.79,483.484 1101.04,488.394 1104.28,493.339 1107.52,498.316 1110.76,503.324 1114,508.361 1117.24,513.425 1120.48,518.516 1123.73,523.631 1126.97,528.77 1130.21,533.931 1133.45,539.112 1136.69,544.313 1139.93,549.531 1143.17,554.767 1146.42,560.017 1149.66,565.282 1152.9,570.56 1156.14,575.85 1159.38,581.151 1162.62,586.462 1165.86,591.781 1169.11,597.107 1172.35,602.441 1175.59,607.779 1178.83,613.122 1182.07,618.469 1185.31,623.818 1188.55,629.168 1191.8,634.519 1195.04,639.87 1198.28,645.219 1201.52,650.566 1204.76,655.91 1208,661.249 1211.24,666.582 1214.48,671.908 1217.73,677.225 1220.97,682.532 1224.21,687.827 1227.45,693.11 1230.69,698.378 1233.93,703.631 1237.17,708.867 1240.42,714.084 1243.66,719.282 1246.9,724.459 1250.14,729.613 1253.38,734.743 1256.62,739.848 1259.86,744.925 1263.11,749.975 1266.35,754.995 1269.59,759.983 1272.83,764.938 1276.07,769.86 1279.31,774.745 1282.55,779.592 1285.8,784.401 1289.04,789.169 1292.28,793.894 1295.52,798.575 1298.76,803.21 1302,807.798 1305.24,812.336 1308.48,816.823 1311.73,821.257 1314.97,825.636 1318.21,829.958 1321.45,834.225 1324.69,838.437 1327.93,842.597 1331.17,846.705 1334.42,850.762 1337.66,854.77 1340.9,858.73 1344.14,862.642 1347.38,866.508 1350.62,870.329 1353.86,874.108 1357.11,877.844 1360.35,881.541 1363.59,885.2 1366.83,888.824 1370.07,892.413 1373.31,895.969 1376.55,899.494 1379.8,902.99 1383.04,906.458 1386.28,909.9 1389.52,913.318 1392.76,916.712 1396,920.084 1399.24,923.436 1402.49,926.769 1405.73,930.085 1408.97,933.385 1412.21,936.67 1415.45,939.941 1418.69,943.2 1421.93,946.448 1425.17,949.687 1428.42,952.916 1431.66,956.134 1434.9,959.337 1438.14,962.522 1441.38,965.685 1444.62,968.824 1447.86,971.936 1451.11,975.016 1454.35,978.062 1457.59,981.07 1460.83,984.037 1464.07,986.96 1467.31,989.836 1470.55,992.665 1473.8,995.448 1477.04,998.189 1480.28,1000.89 1483.52,1003.55 1486.76,1006.17 1490,1008.76 1493.24,1011.32 1496.49,1013.85 1499.73,1016.34 1502.97,1018.81 1506.21,1021.26 1509.45,1023.69 1512.69,1026.09 1515.93,1028.47 1519.18,1030.84 1522.42,1033.19 1525.66,1035.52 1528.9,1037.84 1532.14,1040.15 1535.38,1042.45 1538.62,1044.74 1541.86,1047.02 1545.11,1049.29 1548.35,1051.55 1551.59,1053.81 1554.83,1056.05 1558.07,1058.29 1561.31,1060.53 1564.55,1062.76 1567.8,1064.98 1571.04,1067.2 1574.28,1069.41 1577.52,1071.62 1580.76,1073.82 1584,1076.03 1587.24,1078.23 1590.49,1080.42 1593.73,1082.61 1596.97,1084.8 1600.21,1086.99 1603.45,1089.18 1606.69,1091.36 1609.93,1093.54 1613.18,1095.72 1616.42,1097.89 1619.66,1100.06 1622.9,1102.23 1626.14,1104.4 1629.38,1106.56 1632.62,1108.73 1635.86,1110.88 1639.11,1113.04 1642.35,1115.19 1645.59,1117.33 1648.83,1119.48 1652.07,1121.61 1655.31,1123.74 1658.55,1125.87 1661.8,1127.99 1665.04,1130.1 1668.28,1132.2 1671.52,1134.3 1674.76,1136.38 1678,1138.46 1681.24,1140.52 1684.49,1142.58 1687.73,1144.62 1690.97,1146.65 1694.21,1148.67 1697.45,1150.67 1700.69,1152.65 1703.93,1154.62 1707.18,1156.57 1710.42,1158.5 1713.66,1160.41 1716.9,1162.3 1720.14,1164.17 1723.38,1166.01 1726.62,1167.82 1729.87,1169.6 1733.11,1171.35 1736.35,1173.06 1739.59,1174.75 1742.83,1176.39 1746.07,1178 1749.31,1179.57 1752.55,1181.09 1755.8,1182.58 1759.04,1184.02 1762.28,1185.41 1765.52,1186.76 1768.76,1188.06 1772,1189.3 1775.24,1190.5 1778.49,1191.63 1781.73,1192.71 1784.97,1193.73 1788.21,1194.69 1791.45,1195.58 1794.69,1196.4 1797.93,1197.16 1801.18,1197.84 1804.42,1198.45 1807.66,1198.98 1810.9,1199.42 1814.14,1199.79 1817.38,1200.06 1820.62,1200.25 1823.87,1200.34 1827.11,1200.34 1830.35,1200.23 1833.59,1200.03 1836.83,1199.71 1840.07,1199.28 1843.31,1198.74 1846.55,1198.09 1849.8,1197.33 1853.04,1196.47 1856.28,1195.5 1859.52,1194.45 1862.76,1193.3 1866,1192.06 1869.24,1190.73 1872.49,1189.33 1875.73,1187.84 1878.97,1186.28 1882.21,1184.65 1885.45,1182.95 1888.69,1181.18 1891.93,1179.34 1895.18,1177.45 1898.42,1175.5 1901.66,1173.49 1904.9,1171.43 1908.14,1169.32 1911.38,1167.16 1914.62,1164.95 1917.87,1162.7 1921.11,1160.41 1924.35,1158.08 1927.59,1155.71 1930.83,1153.3 1934.07,1150.86 1937.31,1148.39 1940.56,1145.89 1943.8,1143.36 1947.04,1140.81 1950.28,1138.23 1953.52,1135.63 1956.76,1133 1960,1130.36 1963.24,1127.7 1966.49,1125.02 1969.73,1122.32 1972.97,1119.62 1976.21,1116.89 1979.45,1114.16 1982.69,1111.41 1985.93,1108.66 1989.18,1105.9 1992.42,1103.13 1995.66,1100.35 1998.9,1097.57 2002.14,1094.79 2005.38,1092 2008.62,1089.21 2011.87,1086.42 2015.11,1083.63 2018.35,1080.84 2021.59,1078.06 2024.83,1075.27 2028.07,1072.49 2031.31,1069.71 2034.56,1066.93 2037.8,1064.16 2041.04,1061.39 2044.28,1058.64 2047.52,1055.88 2050.76,1053.14 2054,1050.4 2057.24,1047.67 2060.49,1044.96 2063.73,1042.25 2066.97,1039.55 2070.21,1036.86 2073.45,1034.18 2076.69,1031.51 2079.93,1028.86 2083.18,1026.21 2086.42,1023.58 2089.66,1020.96 2092.9,1018.36 2096.14,1015.77 2099.38,1013.19 2102.62,1010.62 2105.87,1008.07 2109.11,1005.53 2112.35,1003.01 2115.59,1000.51 2118.83,998.013 2122.07,995.536 2125.31,993.073 2128.56,990.627 2131.8,988.195 2135.04,985.78 2138.28,983.38 2141.52,980.996 2144.76,978.628 2148,976.276 2151.25,973.94 2154.49,971.62 2157.73,969.317 2160.97,967.029 2164.21,964.758 2167.45,962.503 2170.69,960.265 2173.93,958.042 2177.18,955.836 2180.42,953.646 2183.66,951.472 2186.9,949.315 2190.14,947.173 2193.38,945.048 2196.62,942.938 2199.87,940.845 2203.11,938.767 2206.35,936.705 2209.59,934.658 2212.83,932.627 2216.07,930.611 2219.31,928.611 2222.56,926.626 2225.8,924.656 2229.04,922.701 2232.28,920.761 2235.52,918.836 2238.76,916.927 2242,915.032 2245.25,913.154 2248.49,911.29 2251.73,909.442 2254.97,907.609 2258.21,905.792 2261.45,903.99 2264.69,902.204 2267.94,900.433 2271.18,898.677 2274.42,896.937 2277.66,895.212 2280.9,893.503 2284.14,891.809 2287.38,890.131 2290.62,888.468 "/>
<polyline clip-path="url(#clip892)" style="stroke:#c271d2; stroke-linecap:round; stroke-linejoin:round; stroke-width:12; stroke-opacity:1; fill:none" points="255.035,901.36 362.225,778.559 469.416,665.837 576.607,521.525 683.797,408.05 790.988,410.884 898.179,437.667 1005.37,484.588 1112.56,649.953 1219.75,815.136 1326.94,953.363 1434.13,1057.18 1541.32,1168.89 1648.51,1255.78 1755.7,1307.37 1862.89,1354.43 1970.09,1334.39 2077.28,1250.04 2184.47,1138.75 2291.66,1097.83 "/>
<polyline clip-path="url(#clip892)" style="stroke:#ac8d18; stroke-linecap:round; stroke-linejoin:round; stroke-width:12; stroke-opacity:1; fill:none" points="255.035,405.224 362.225,406.969 469.416,331.528 576.607,253.321 683.797,204.736 790.988,156.323 898.179,175.632 1005.37,248.553 1112.56,362.281 1219.75,545.945 1326.94,729.296 1434.13,859.983 1541.32,924.394 1648.51,982.757 1755.7,1057.7 1862.89,1032.06 1970.09,909.66 2077.28,812.028 2184.47,763.115 2291.66,678.052 "/>
<path clip-path="url(#clip890)" d="M1953.46 406.258 L2280.8 406.258 L2280.8 95.2176 L1953.46 95.2176  Z" fill="#ffffff" fill-rule="evenodd" fill-opacity="1"/>
<polyline clip-path="url(#clip890)" style="stroke:#000000; stroke-linecap:round; stroke-linejoin:round; stroke-width:4; stroke-opacity:1; fill:none" points="1953.46,406.258 2280.8,406.258 2280.8,95.2176 1953.46,95.2176 1953.46,406.258 "/>
<polyline clip-path="url(#clip890)" style="stroke:#009af9; stroke-linecap:round; stroke-linejoin:round; stroke-width:4; stroke-opacity:1; fill:none" points="1977.44,147.058 2121.36,147.058 "/>
<path clip-path="url(#clip890)" d="M2152.76 131.051 L2152.76 138.412 L2161.53 138.412 L2161.53 141.722 L2152.76 141.722 L2152.76 155.796 Q2152.76 158.967 2153.61 159.87 Q2154.49 160.773 2157.16 160.773 L2161.53 160.773 L2161.53 164.338 L2157.16 164.338 Q2152.23 164.338 2150.35 162.509 Q2148.48 160.657 2148.48 155.796 L2148.48 141.722 L2145.35 141.722 L2145.35 138.412 L2148.48 138.412 L2148.48 131.051 L2152.76 131.051 Z" fill="#000000" fill-rule="nonzero" fill-opacity="1" /><path clip-path="url(#clip890)" d="M2182.16 142.393 Q2181.44 141.977 2180.58 141.791 Q2179.75 141.583 2178.73 141.583 Q2175.12 141.583 2173.17 143.944 Q2171.25 146.282 2171.25 150.68 L2171.25 164.338 L2166.97 164.338 L2166.97 138.412 L2171.25 138.412 L2171.25 142.44 Q2172.6 140.078 2174.75 138.944 Q2176.9 137.787 2179.98 137.787 Q2180.42 137.787 2180.95 137.856 Q2181.48 137.903 2182.13 138.018 L2182.16 142.393 Z" fill="#000000" fill-rule="nonzero" fill-opacity="1" /><path clip-path="url(#clip890)" d="M2186.18 154.106 L2186.18 138.412 L2190.44 138.412 L2190.44 153.944 Q2190.44 157.625 2191.88 159.476 Q2193.31 161.305 2196.18 161.305 Q2199.63 161.305 2201.62 159.106 Q2203.64 156.907 2203.64 153.111 L2203.64 138.412 L2207.9 138.412 L2207.9 164.338 L2203.64 164.338 L2203.64 160.356 Q2202.09 162.717 2200.03 163.875 Q2197.99 165.009 2195.28 165.009 Q2190.81 165.009 2188.5 162.231 Q2186.18 159.453 2186.18 154.106 M2196.9 137.787 L2196.9 137.787 Z" fill="#000000" fill-rule="nonzero" fill-opacity="1" /><path clip-path="url(#clip890)" d="M2220.88 131.051 L2220.88 138.412 L2229.66 138.412 L2229.66 141.722 L2220.88 141.722 L2220.88 155.796 Q2220.88 158.967 2221.74 159.87 Q2222.62 160.773 2225.28 160.773 L2229.66 160.773 L2229.66 164.338 L2225.28 164.338 Q2220.35 164.338 2218.48 162.509 Q2216.6 160.657 2216.6 155.796 L2216.6 141.722 L2213.48 141.722 L2213.48 138.412 L2216.6 138.412 L2216.6 131.051 L2220.88 131.051 Z" fill="#000000" fill-rule="nonzero" fill-opacity="1" /><path clip-path="url(#clip890)" d="M2256.81 148.689 L2256.81 164.338 L2252.55 164.338 L2252.55 148.828 Q2252.55 145.148 2251.11 143.319 Q2249.68 141.49 2246.81 141.49 Q2243.36 141.49 2241.37 143.69 Q2239.38 145.889 2239.38 149.685 L2239.38 164.338 L2235.1 164.338 L2235.1 128.319 L2239.38 128.319 L2239.38 142.44 Q2240.91 140.102 2242.97 138.944 Q2245.05 137.787 2247.76 137.787 Q2252.23 137.787 2254.52 140.565 Q2256.81 143.319 2256.81 148.689 Z" fill="#000000" fill-rule="nonzero" fill-opacity="1" /><circle clip-path="url(#clip890)" cx="2049.4" cy="198.898" r="20.48" fill="#e26f46" fill-rule="evenodd" fill-opacity="1" stroke="#000000" stroke-opacity="1" stroke-width="4.55111"/>
<path clip-path="url(#clip890)" d="M2164.26 194.187 L2164.26 180.159 L2168.52 180.159 L2168.52 216.178 L2164.26 216.178 L2164.26 212.289 Q2162.92 214.603 2160.86 215.738 Q2158.82 216.849 2155.95 216.849 Q2151.25 216.849 2148.29 213.099 Q2145.35 209.349 2145.35 203.238 Q2145.35 197.127 2148.29 193.377 Q2151.25 189.627 2155.95 189.627 Q2158.82 189.627 2160.86 190.761 Q2162.92 191.872 2164.26 194.187 M2149.75 203.238 Q2149.75 207.937 2151.67 210.622 Q2153.61 213.284 2156.99 213.284 Q2160.37 213.284 2162.32 210.622 Q2164.26 207.937 2164.26 203.238 Q2164.26 198.539 2162.32 195.877 Q2160.37 193.192 2156.99 193.192 Q2153.61 193.192 2151.67 195.877 Q2149.75 198.539 2149.75 203.238 Z" fill="#000000" fill-rule="nonzero" fill-opacity="1" /><path clip-path="url(#clip890)" d="M2189.08 203.145 Q2183.92 203.145 2181.92 204.326 Q2179.93 205.506 2179.93 208.354 Q2179.93 210.622 2181.42 211.965 Q2182.92 213.284 2185.49 213.284 Q2189.03 213.284 2191.16 210.784 Q2193.31 208.261 2193.31 204.094 L2193.31 203.145 L2189.08 203.145 M2197.57 201.386 L2197.57 216.178 L2193.31 216.178 L2193.31 212.242 Q2191.85 214.603 2189.68 215.738 Q2187.5 216.849 2184.36 216.849 Q2180.37 216.849 2178.01 214.627 Q2175.67 212.381 2175.67 208.631 Q2175.67 204.256 2178.59 202.034 Q2181.53 199.812 2187.34 199.812 L2193.31 199.812 L2193.31 199.395 Q2193.31 196.455 2191.37 194.858 Q2189.45 193.238 2185.95 193.238 Q2183.73 193.238 2181.62 193.77 Q2179.52 194.303 2177.57 195.367 L2177.57 191.432 Q2179.91 190.53 2182.11 190.09 Q2184.31 189.627 2186.39 189.627 Q2192.02 189.627 2194.79 192.543 Q2197.57 195.46 2197.57 201.386 Z" fill="#000000" fill-rule="nonzero" fill-opacity="1" /><path clip-path="url(#clip890)" d="M2210.56 182.891 L2210.56 190.252 L2219.33 190.252 L2219.33 193.562 L2210.56 193.562 L2210.56 207.636 Q2210.56 210.807 2211.42 211.71 Q2212.29 212.613 2214.96 212.613 L2219.33 212.613 L2219.33 216.178 L2214.96 216.178 Q2210.03 216.178 2208.15 214.349 Q2206.28 212.497 2206.28 207.636 L2206.28 193.562 L2203.15 193.562 L2203.15 190.252 L2206.28 190.252 L2206.28 182.891 L2210.56 182.891 Z" fill="#000000" fill-rule="nonzero" fill-opacity="1" /><path clip-path="url(#clip890)" d="M2236.72 203.145 Q2231.55 203.145 2229.56 204.326 Q2227.57 205.506 2227.57 208.354 Q2227.57 210.622 2229.05 211.965 Q2230.56 213.284 2233.13 213.284 Q2236.67 213.284 2238.8 210.784 Q2240.95 208.261 2240.95 204.094 L2240.95 203.145 L2236.72 203.145 M2245.21 201.386 L2245.21 216.178 L2240.95 216.178 L2240.95 212.242 Q2239.49 214.603 2237.32 215.738 Q2235.14 216.849 2231.99 216.849 Q2228.01 216.849 2225.65 214.627 Q2223.31 212.381 2223.31 208.631 Q2223.31 204.256 2226.23 202.034 Q2229.17 199.812 2234.98 199.812 L2240.95 199.812 L2240.95 199.395 Q2240.95 196.455 2239.01 194.858 Q2237.09 193.238 2233.59 193.238 Q2231.37 193.238 2229.26 193.77 Q2227.16 194.303 2225.21 195.367 L2225.21 191.432 Q2227.55 190.53 2229.75 190.09 Q2231.95 189.627 2234.03 189.627 Q2239.66 189.627 2242.43 192.543 Q2245.21 195.46 2245.21 201.386 Z" fill="#000000" fill-rule="nonzero" fill-opacity="1" /><polyline clip-path="url(#clip890)" style="stroke:#3da44d; stroke-linecap:round; stroke-linejoin:round; stroke-width:8; stroke-opacity:1; fill:none" points="1977.44,250.738 2121.36,250.738 "/>
<path clip-path="url(#clip890)" d="M2170.91 263.087 L2170.91 253.805 L2163.27 253.805 L2163.27 249.962 L2175.54 249.962 L2175.54 264.8 Q2172.83 266.721 2169.56 267.717 Q2166.3 268.689 2162.6 268.689 Q2154.49 268.689 2149.91 263.967 Q2145.35 259.221 2145.35 250.772 Q2145.35 242.3 2149.91 237.578 Q2154.49 232.833 2162.6 232.833 Q2165.98 232.833 2169.01 233.666 Q2172.06 234.499 2174.63 236.12 L2174.63 241.096 Q2172.04 238.897 2169.12 237.786 Q2166.21 236.675 2162.99 236.675 Q2156.65 236.675 2153.45 240.217 Q2150.28 243.758 2150.28 250.772 Q2150.28 257.763 2153.45 261.305 Q2156.65 264.846 2162.99 264.846 Q2165.47 264.846 2167.41 264.43 Q2169.36 263.99 2170.91 263.087 Z" fill="#000000" fill-rule="nonzero" fill-opacity="1" /><path clip-path="url(#clip890)" d="M2188.75 237.3 L2188.75 250.286 L2194.63 250.286 Q2197.9 250.286 2199.68 248.596 Q2201.46 246.907 2201.46 243.782 Q2201.46 240.68 2199.68 238.99 Q2197.9 237.3 2194.63 237.3 L2188.75 237.3 M2184.08 233.458 L2194.63 233.458 Q2200.44 233.458 2203.41 236.096 Q2206.39 238.712 2206.39 243.782 Q2206.39 248.897 2203.41 251.513 Q2200.44 254.129 2194.63 254.129 L2188.75 254.129 L2188.75 268.018 L2184.08 268.018 L2184.08 233.458 Z" fill="#000000" fill-rule="nonzero" fill-opacity="1" /><polyline clip-path="url(#clip890)" style="stroke:#c271d2; stroke-linecap:round; stroke-linejoin:round; stroke-width:12; stroke-opacity:1; fill:none" points="1977.44,302.578 2121.36,302.578 "/>
<path clip-path="url(#clip890)" d="M2150.03 289.14 L2150.03 302.126 L2155.91 302.126 Q2159.17 302.126 2160.95 300.436 Q2162.73 298.747 2162.73 295.622 Q2162.73 292.52 2160.95 290.83 Q2159.17 289.14 2155.91 289.14 L2150.03 289.14 M2145.35 285.298 L2155.91 285.298 Q2161.72 285.298 2164.68 287.936 Q2167.67 290.552 2167.67 295.622 Q2167.67 300.737 2164.68 303.353 Q2161.72 305.969 2155.91 305.969 L2150.03 305.969 L2150.03 319.858 L2145.35 319.858 L2145.35 285.298 Z" fill="#000000" fill-rule="nonzero" fill-opacity="1" /><path clip-path="url(#clip890)" d="M2178.38 315.922 L2194.7 315.922 L2194.7 319.858 L2172.76 319.858 L2172.76 315.922 Q2175.42 313.168 2180 308.538 Q2184.61 303.885 2185.79 302.543 Q2188.04 300.02 2188.92 298.284 Q2189.82 296.524 2189.82 294.835 Q2189.82 292.08 2187.87 290.344 Q2185.95 288.608 2182.85 288.608 Q2180.65 288.608 2178.2 289.372 Q2175.77 290.135 2172.99 291.686 L2172.99 286.964 Q2175.81 285.83 2178.27 285.251 Q2180.72 284.673 2182.76 284.673 Q2188.13 284.673 2191.32 287.358 Q2194.52 290.043 2194.52 294.534 Q2194.52 296.663 2193.71 298.585 Q2192.92 300.483 2190.81 303.075 Q2190.23 303.747 2187.13 306.964 Q2184.03 310.159 2178.38 315.922 Z" fill="#000000" fill-rule="nonzero" fill-opacity="1" /><path clip-path="url(#clip890)" d="M2204.56 285.298 L2222.92 285.298 L2222.92 289.233 L2208.85 289.233 L2208.85 297.705 Q2209.86 297.358 2210.88 297.196 Q2211.9 297.01 2212.92 297.01 Q2218.71 297.01 2222.09 300.182 Q2225.47 303.353 2225.47 308.77 Q2225.47 314.348 2221.99 317.45 Q2218.52 320.529 2212.2 320.529 Q2210.03 320.529 2207.76 320.158 Q2205.51 319.788 2203.1 319.047 L2203.1 314.348 Q2205.19 315.483 2207.41 316.038 Q2209.63 316.594 2212.11 316.594 Q2216.11 316.594 2218.45 314.487 Q2220.79 312.381 2220.79 308.77 Q2220.79 305.159 2218.45 303.052 Q2216.11 300.946 2212.11 300.946 Q2210.23 300.946 2208.36 301.362 Q2206.51 301.779 2204.56 302.659 L2204.56 285.298 Z" fill="#000000" fill-rule="nonzero" fill-opacity="1" /><polyline clip-path="url(#clip890)" style="stroke:#ac8d18; stroke-linecap:round; stroke-linejoin:round; stroke-width:12; stroke-opacity:1; fill:none" points="1977.44,354.418 2121.36,354.418 "/>
<path clip-path="url(#clip890)" d="M2150.03 340.98 L2150.03 353.966 L2155.91 353.966 Q2159.17 353.966 2160.95 352.276 Q2162.73 350.587 2162.73 347.462 Q2162.73 344.36 2160.95 342.67 Q2159.17 340.98 2155.91 340.98 L2150.03 340.98 M2145.35 337.138 L2155.91 337.138 Q2161.72 337.138 2164.68 339.776 Q2167.67 342.392 2167.67 347.462 Q2167.67 352.577 2164.68 355.193 Q2161.72 357.809 2155.91 357.809 L2150.03 357.809 L2150.03 371.698 L2145.35 371.698 L2145.35 337.138 Z" fill="#000000" fill-rule="nonzero" fill-opacity="1" /><path clip-path="url(#clip890)" d="M2173.17 337.138 L2195.4 337.138 L2195.4 339.128 L2182.85 371.698 L2177.97 371.698 L2189.77 341.073 L2173.17 341.073 L2173.17 337.138 Z" fill="#000000" fill-rule="nonzero" fill-opacity="1" /><path clip-path="url(#clip890)" d="M2204.56 337.138 L2222.92 337.138 L2222.92 341.073 L2208.85 341.073 L2208.85 349.545 Q2209.86 349.198 2210.88 349.036 Q2211.9 348.85 2212.92 348.85 Q2218.71 348.85 2222.09 352.022 Q2225.47 355.193 2225.47 360.61 Q2225.47 366.188 2221.99 369.29 Q2218.52 372.369 2212.2 372.369 Q2210.03 372.369 2207.76 371.998 Q2205.51 371.628 2203.1 370.887 L2203.1 366.188 Q2205.19 367.323 2207.41 367.878 Q2209.63 368.434 2212.11 368.434 Q2216.11 368.434 2218.45 366.327 Q2220.79 364.221 2220.79 360.61 Q2220.79 356.999 2218.45 354.892 Q2216.11 352.786 2212.11 352.786 Q2210.23 352.786 2208.36 353.202 Q2206.51 353.619 2204.56 354.499 L2204.56 337.138 Z" fill="#000000" fill-rule="nonzero" fill-opacity="1" /></svg>
