<?xml version="1.0" encoding="utf-8"?>
<svg xmlns="http://www.w3.org/2000/svg" xmlns:xlink="http://www.w3.org/1999/xlink" width="600" height="400" viewBox="0 0 2400 1600">
<defs>
  <clipPath id="clip030">
    <rect x="0" y="0" width="2400" height="1600"/>
  </clipPath>
</defs>
<path clip-path="url(#clip030)" d="M0 1600 L2400 1600 L2400 0 L0 0  Z" fill="#ffffff" fill-rule="evenodd" fill-opacity="1"/>
<defs>
  <clipPath id="clip031">
    <rect x="480" y="0" width="1681" height="1600"/>
  </clipPath>
</defs>
<path clip-path="url(#clip030)" d="M193.936 1486.45 L2352.76 1486.45 L2352.76 47.2441 L193.936 47.2441  Z" fill="#ffffff" fill-rule="evenodd" fill-opacity="1"/>
<defs>
  <clipPath id="clip032">
    <rect x="193" y="47" width="2160" height="1440"/>
  </clipPath>
</defs>
<polyline clip-path="url(#clip032)" style="stroke:#000000; stroke-linecap:round; stroke-linejoin:round; stroke-width:2; stroke-opacity:0.1; fill:none" points="255.035,1486.45 255.035,47.2441 "/>
<polyline clip-path="url(#clip032)" style="stroke:#000000; stroke-linecap:round; stroke-linejoin:round; stroke-width:2; stroke-opacity:0.1; fill:none" points="579.338,1486.45 579.338,47.2441 "/>
<polyline clip-path="url(#clip032)" style="stroke:#000000; stroke-linecap:round; stroke-linejoin:round; stroke-width:2; stroke-opacity:0.1; fill:none" points="903.641,1486.45 903.641,47.2441 "/>
<polyline clip-path="url(#clip032)" style="stroke:#000000; stroke-linecap:round; stroke-linejoin:round; stroke-width:2; stroke-opacity:0.1; fill:none" points="1227.94,1486.45 1227.94,47.2441 "/>
<polyline clip-path="url(#clip032)" style="stroke:#000000; stroke-linecap:round; stroke-linejoin:round; stroke-width:2; stroke-opacity:0.1; fill:none" points="1552.25,1486.45 1552.25,47.2441 "/>
<polyline clip-path="url(#clip032)" style="stroke:#000000; stroke-linecap:round; stroke-linejoin:round; stroke-width:2; stroke-opacity:0.1; fill:none" points="1876.55,1486.45 1876.55,47.2441 "/>
<polyline clip-path="url(#clip032)" style="stroke:#000000; stroke-linecap:round; stroke-linejoin:round; stroke-width:2; stroke-opacity:0.1; fill:none" points="2200.85,1486.45 2200.85,47.2441 "/>
<polyline clip-path="url(#clip032)" style="stroke:#000000; stroke-linecap:round; stroke-linejoin:round; stroke-width:2; stroke-opacity:0.1; fill:none" points="193.936,1366.79 2352.76,1366.79 "/>
<polyline clip-path="url(#clip032)" style="stroke:#000000; stroke-linecap:round; stroke-linejoin:round; stroke-width:2; stroke-opacity:0.1; fill:none" points="193.936,1055.44 2352.76,1055.44 "/>
<polyline clip-path="url(#clip032)" style="stroke:#000000; stroke-linecap:round; stroke-linejoin:round; stroke-width:2; stroke-opacity:0.1; fill:none" points="193.936,744.09 2352.76,744.09 "/>
<polyline clip-path="url(#clip032)" style="stroke:#000000; stroke-linecap:round; stroke-linejoin:round; stroke-width:2; stroke-opacity:0.1; fill:none" points="193.936,432.741 2352.76,432.741 "/>
<polyline clip-path="url(#clip032)" style="stroke:#000000; stroke-linecap:round; stroke-linejoin:round; stroke-width:2; stroke-opacity:0.1; fill:none" points="193.936,121.392 2352.76,121.392 "/>
<polyline clip-path="url(#clip030)" style="stroke:#000000; stroke-linecap:round; stroke-linejoin:round; stroke-width:4; stroke-opacity:1; fill:none" points="193.936,1486.45 2352.76,1486.45 "/>
<polyline clip-path="url(#clip030)" style="stroke:#000000; stroke-linecap:round; stroke-linejoin:round; stroke-width:4; stroke-opacity:1; fill:none" points="255.035,1486.45 255.035,1467.55 "/>
<polyline clip-path="url(#clip030)" style="stroke:#000000; stroke-linecap:round; stroke-linejoin:round; stroke-width:4; stroke-opacity:1; fill:none" points="579.338,1486.45 579.338,1467.55 "/>
<polyline clip-path="url(#clip030)" style="stroke:#000000; stroke-linecap:round; stroke-linejoin:round; stroke-width:4; stroke-opacity:1; fill:none" points="903.641,1486.45 903.641,1467.55 "/>
<polyline clip-path="url(#clip030)" style="stroke:#000000; stroke-linecap:round; stroke-linejoin:round; stroke-width:4; stroke-opacity:1; fill:none" points="1227.94,1486.45 1227.94,1467.55 "/>
<polyline clip-path="url(#clip030)" style="stroke:#000000; stroke-linecap:round; stroke-linejoin:round; stroke-width:4; stroke-opacity:1; fill:none" points="1552.25,1486.45 1552.25,1467.55 "/>
<polyline clip-path="url(#clip030)" style="stroke:#000000; stroke-linecap:round; stroke-linejoin:round; stroke-width:4; stroke-opacity:1; fill:none" points="1876.55,1486.45 1876.55,1467.55 "/>
<polyline clip-path="url(#clip030)" style="stroke:#000000; stroke-linecap:round; stroke-linejoin:round; stroke-width:4; stroke-opacity:1; fill:none" points="2200.85,1486.45 2200.85,1467.55 "/>
<path clip-path="url(#clip030)" d="M255.035 1517.37 Q251.424 1517.37 249.595 1520.93 Q247.789 1524.47 247.789 1531.6 Q247.789 1538.71 249.595 1542.27 Q251.424 1545.82 255.035 1545.82 Q258.669 1545.82 260.474 1542.27 Q262.303 1538.71 262.303 1531.6 Q262.303 1524.47 260.474 1520.93 Q258.669 1517.37 255.035 1517.37 M255.035 1513.66 Q260.845 1513.66 263.9 1518.27 Q266.979 1522.85 266.979 1531.6 Q266.979 1540.33 263.9 1544.94 Q260.845 1549.52 255.035 1549.52 Q249.225 1549.52 246.146 1544.94 Q243.09 1540.33 243.09 1531.6 Q243.09 1522.85 246.146 1518.27 Q249.225 1513.66 255.035 1513.66 Z" fill="#000000" fill-rule="nonzero" fill-opacity="1" /><path clip-path="url(#clip030)" d="M569.72 1544.91 L577.358 1544.91 L577.358 1518.55 L569.048 1520.21 L569.048 1515.95 L577.312 1514.29 L581.988 1514.29 L581.988 1544.91 L589.627 1544.91 L589.627 1548.85 L569.72 1548.85 L569.72 1544.91 Z" fill="#000000" fill-rule="nonzero" fill-opacity="1" /><path clip-path="url(#clip030)" d="M898.293 1544.91 L914.613 1544.91 L914.613 1548.85 L892.668 1548.85 L892.668 1544.91 Q895.33 1542.16 899.914 1537.53 Q904.52 1532.88 905.701 1531.53 Q907.946 1529.01 908.826 1527.27 Q909.729 1525.51 909.729 1523.82 Q909.729 1521.07 907.784 1519.33 Q905.863 1517.6 902.761 1517.6 Q900.562 1517.6 898.108 1518.36 Q895.678 1519.13 892.9 1520.68 L892.9 1515.95 Q895.724 1514.82 898.178 1514.24 Q900.631 1513.66 902.668 1513.66 Q908.039 1513.66 911.233 1516.35 Q914.428 1519.03 914.428 1523.52 Q914.428 1525.65 913.617 1527.57 Q912.83 1529.47 910.724 1532.07 Q910.145 1532.74 907.043 1535.95 Q903.942 1539.15 898.293 1544.91 Z" fill="#000000" fill-rule="nonzero" fill-opacity="1" /><path clip-path="url(#clip030)" d="M1232.19 1530.21 Q1235.55 1530.93 1237.42 1533.2 Q1239.32 1535.47 1239.32 1538.8 Q1239.32 1543.92 1235.8 1546.72 Q1232.28 1549.52 1225.8 1549.52 Q1223.63 1549.52 1221.31 1549.08 Q1219.02 1548.66 1216.57 1547.81 L1216.57 1543.29 Q1218.51 1544.43 1220.83 1545.01 Q1223.14 1545.58 1225.66 1545.58 Q1230.06 1545.58 1232.35 1543.85 Q1234.67 1542.11 1234.67 1538.8 Q1234.67 1535.75 1232.52 1534.03 Q1230.39 1532.3 1226.57 1532.3 L1222.54 1532.3 L1222.54 1528.45 L1226.75 1528.45 Q1230.2 1528.45 1232.03 1527.09 Q1233.86 1525.7 1233.86 1523.11 Q1233.86 1520.45 1231.96 1519.03 Q1230.08 1517.6 1226.57 1517.6 Q1224.64 1517.6 1222.45 1518.01 Q1220.25 1518.43 1217.61 1519.31 L1217.61 1515.14 Q1220.27 1514.4 1222.58 1514.03 Q1224.92 1513.66 1226.98 1513.66 Q1232.31 1513.66 1235.41 1516.09 Q1238.51 1518.5 1238.51 1522.62 Q1238.51 1525.49 1236.87 1527.48 Q1235.22 1529.45 1232.19 1530.21 Z" fill="#000000" fill-rule="nonzero" fill-opacity="1" /><path clip-path="url(#clip030)" d="M1555.26 1518.36 L1543.45 1536.81 L1555.26 1536.81 L1555.26 1518.36 M1554.03 1514.29 L1559.91 1514.29 L1559.91 1536.81 L1564.84 1536.81 L1564.84 1540.7 L1559.91 1540.7 L1559.91 1548.85 L1555.26 1548.85 L1555.26 1540.7 L1539.65 1540.7 L1539.65 1536.19 L1554.03 1514.29 Z" fill="#000000" fill-rule="nonzero" fill-opacity="1" /><path clip-path="url(#clip030)" d="M1866.83 1514.29 L1885.18 1514.29 L1885.18 1518.22 L1871.11 1518.22 L1871.11 1526.7 Q1872.13 1526.35 1873.15 1526.19 Q1874.17 1526 1875.18 1526 Q1880.97 1526 1884.35 1529.17 Q1887.73 1532.34 1887.73 1537.76 Q1887.73 1543.34 1884.26 1546.44 Q1880.79 1549.52 1874.47 1549.52 Q1872.29 1549.52 1870.02 1549.15 Q1867.78 1548.78 1865.37 1548.04 L1865.37 1543.34 Q1867.45 1544.47 1869.67 1545.03 Q1871.9 1545.58 1874.37 1545.58 Q1878.38 1545.58 1880.72 1543.48 Q1883.05 1541.37 1883.05 1537.76 Q1883.05 1534.15 1880.72 1532.04 Q1878.38 1529.94 1874.37 1529.94 Q1872.5 1529.94 1870.62 1530.35 Q1868.77 1530.77 1866.83 1531.65 L1866.83 1514.29 Z" fill="#000000" fill-rule="nonzero" fill-opacity="1" /><path clip-path="url(#clip030)" d="M2201.26 1529.7 Q2198.11 1529.7 2196.26 1531.86 Q2194.43 1534.01 2194.43 1537.76 Q2194.43 1541.49 2196.26 1543.66 Q2198.11 1545.82 2201.26 1545.82 Q2204.41 1545.82 2206.23 1543.66 Q2208.09 1541.49 2208.09 1537.76 Q2208.09 1534.01 2206.23 1531.86 Q2204.41 1529.7 2201.26 1529.7 M2210.54 1515.05 L2210.54 1519.31 Q2208.78 1518.48 2206.98 1518.04 Q2205.19 1517.6 2203.43 1517.6 Q2198.8 1517.6 2196.35 1520.72 Q2193.92 1523.85 2193.57 1530.17 Q2194.94 1528.15 2197 1527.09 Q2199.06 1526 2201.54 1526 Q2206.74 1526 2209.75 1529.17 Q2212.79 1532.32 2212.79 1537.76 Q2212.79 1543.08 2209.64 1546.3 Q2206.49 1549.52 2201.26 1549.52 Q2195.26 1549.52 2192.09 1544.94 Q2188.92 1540.33 2188.92 1531.6 Q2188.92 1523.41 2192.81 1518.55 Q2196.7 1513.66 2203.25 1513.66 Q2205.01 1513.66 2206.79 1514.01 Q2208.6 1514.36 2210.54 1515.05 Z" fill="#000000" fill-rule="nonzero" fill-opacity="1" /><polyline clip-path="url(#clip030)" style="stroke:#000000; stroke-linecap:round; stroke-linejoin:round; stroke-width:4; stroke-opacity:1; fill:none" points="193.936,1486.45 193.936,47.2441 "/>
<polyline clip-path="url(#clip030)" style="stroke:#000000; stroke-linecap:round; stroke-linejoin:round; stroke-width:4; stroke-opacity:1; fill:none" points="193.936,1366.79 212.834,1366.79 "/>
<polyline clip-path="url(#clip030)" style="stroke:#000000; stroke-linecap:round; stroke-linejoin:round; stroke-width:4; stroke-opacity:1; fill:none" points="193.936,1055.44 212.834,1055.44 "/>
<polyline clip-path="url(#clip030)" style="stroke:#000000; stroke-linecap:round; stroke-linejoin:round; stroke-width:4; stroke-opacity:1; fill:none" points="193.936,744.09 212.834,744.09 "/>
<polyline clip-path="url(#clip030)" style="stroke:#000000; stroke-linecap:round; stroke-linejoin:round; stroke-width:4; stroke-opacity:1; fill:none" points="193.936,432.741 212.834,432.741 "/>
<polyline clip-path="url(#clip030)" style="stroke:#000000; stroke-linecap:round; stroke-linejoin:round; stroke-width:4; stroke-opacity:1; fill:none" points="193.936,121.392 212.834,121.392 "/>
<path clip-path="url(#clip030)" d="M50.9921 1367.24 L80.6679 1367.24 L80.6679 1371.17 L50.9921 1371.17 L50.9921 1367.24 Z" fill="#000000" fill-rule="nonzero" fill-opacity="1" /><path clip-path="url(#clip030)" d="M91.5706 1380.13 L99.2095 1380.13 L99.2095 1353.77 L90.8993 1355.43 L90.8993 1351.17 L99.1632 1349.51 L103.839 1349.51 L103.839 1380.13 L111.478 1380.13 L111.478 1384.07 L91.5706 1384.07 L91.5706 1380.13 Z" fill="#000000" fill-rule="nonzero" fill-opacity="1" /><path clip-path="url(#clip030)" d="M120.922 1378.19 L125.807 1378.19 L125.807 1384.07 L120.922 1384.07 L120.922 1378.19 Z" fill="#000000" fill-rule="nonzero" fill-opacity="1" /><path clip-path="url(#clip030)" d="M145.992 1352.59 Q142.381 1352.59 140.552 1356.15 Q138.746 1359.69 138.746 1366.82 Q138.746 1373.93 140.552 1377.49 Q142.381 1381.04 145.992 1381.04 Q149.626 1381.04 151.431 1377.49 Q153.26 1373.93 153.26 1366.82 Q153.26 1359.69 151.431 1356.15 Q149.626 1352.59 145.992 1352.59 M145.992 1348.88 Q151.802 1348.88 154.857 1353.49 Q157.936 1358.07 157.936 1366.82 Q157.936 1375.55 154.857 1380.16 Q151.802 1384.74 145.992 1384.74 Q140.181 1384.74 137.103 1380.16 Q134.047 1375.55 134.047 1366.82 Q134.047 1358.07 137.103 1353.49 Q140.181 1348.88 145.992 1348.88 Z" fill="#000000" fill-rule="nonzero" fill-opacity="1" /><path clip-path="url(#clip030)" d="M51.9875 1055.89 L81.6633 1055.89 L81.6633 1059.83 L51.9875 1059.83 L51.9875 1055.89 Z" fill="#000000" fill-rule="nonzero" fill-opacity="1" /><path clip-path="url(#clip030)" d="M101.756 1041.24 Q98.1447 1041.24 96.316 1044.8 Q94.5104 1048.34 94.5104 1055.47 Q94.5104 1062.58 96.316 1066.14 Q98.1447 1069.69 101.756 1069.69 Q105.39 1069.69 107.196 1066.14 Q109.024 1062.58 109.024 1055.47 Q109.024 1048.34 107.196 1044.8 Q105.39 1041.24 101.756 1041.24 M101.756 1037.53 Q107.566 1037.53 110.621 1042.14 Q113.7 1046.72 113.7 1055.47 Q113.7 1064.2 110.621 1068.81 Q107.566 1073.39 101.756 1073.39 Q95.9456 1073.39 92.8669 1068.81 Q89.8114 1064.2 89.8114 1055.47 Q89.8114 1046.72 92.8669 1042.14 Q95.9456 1037.53 101.756 1037.53 Z" fill="#000000" fill-rule="nonzero" fill-opacity="1" /><path clip-path="url(#clip030)" d="M121.918 1066.84 L126.802 1066.84 L126.802 1072.72 L121.918 1072.72 L121.918 1066.84 Z" fill="#000000" fill-rule="nonzero" fill-opacity="1" /><path clip-path="url(#clip030)" d="M137.033 1038.16 L155.39 1038.16 L155.39 1042.09 L141.316 1042.09 L141.316 1050.57 Q142.334 1050.22 143.353 1050.06 Q144.371 1049.87 145.39 1049.87 Q151.177 1049.87 154.556 1053.04 Q157.936 1056.21 157.936 1061.63 Q157.936 1067.21 154.464 1070.31 Q150.992 1073.39 144.672 1073.39 Q142.496 1073.39 140.228 1073.02 Q137.982 1072.65 135.575 1071.91 L135.575 1067.21 Q137.658 1068.34 139.881 1068.9 Q142.103 1069.45 144.58 1069.45 Q148.584 1069.45 150.922 1067.35 Q153.26 1065.24 153.26 1061.63 Q153.26 1058.02 150.922 1055.91 Q148.584 1053.81 144.58 1053.81 Q142.705 1053.81 140.83 1054.22 Q138.978 1054.64 137.033 1055.52 L137.033 1038.16 Z" fill="#000000" fill-rule="nonzero" fill-opacity="1" /><path clip-path="url(#clip030)" d="M100.76 729.889 Q97.1493 729.889 95.3206 733.453 Q93.515 736.995 93.515 744.125 Q93.515 751.231 95.3206 754.796 Q97.1493 758.337 100.76 758.337 Q104.395 758.337 106.2 754.796 Q108.029 751.231 108.029 744.125 Q108.029 736.995 106.2 733.453 Q104.395 729.889 100.76 729.889 M100.76 726.185 Q106.571 726.185 109.626 730.791 Q112.705 735.375 112.705 744.125 Q112.705 752.851 109.626 757.458 Q106.571 762.041 100.76 762.041 Q94.9502 762.041 91.8715 757.458 Q88.816 752.851 88.816 744.125 Q88.816 735.375 91.8715 730.791 Q94.9502 726.185 100.76 726.185 Z" fill="#000000" fill-rule="nonzero" fill-opacity="1" /><path clip-path="url(#clip030)" d="M120.922 755.49 L125.807 755.49 L125.807 761.37 L120.922 761.37 L120.922 755.49 Z" fill="#000000" fill-rule="nonzero" fill-opacity="1" /><path clip-path="url(#clip030)" d="M145.992 729.889 Q142.381 729.889 140.552 733.453 Q138.746 736.995 138.746 744.125 Q138.746 751.231 140.552 754.796 Q142.381 758.337 145.992 758.337 Q149.626 758.337 151.431 754.796 Q153.26 751.231 153.26 744.125 Q153.26 736.995 151.431 733.453 Q149.626 729.889 145.992 729.889 M145.992 726.185 Q151.802 726.185 154.857 730.791 Q157.936 735.375 157.936 744.125 Q157.936 752.851 154.857 757.458 Q151.802 762.041 145.992 762.041 Q140.181 762.041 137.103 757.458 Q134.047 752.851 134.047 744.125 Q134.047 735.375 137.103 730.791 Q140.181 726.185 145.992 726.185 Z" fill="#000000" fill-rule="nonzero" fill-opacity="1" /><path clip-path="url(#clip030)" d="M101.756 418.54 Q98.1447 418.54 96.316 422.105 Q94.5104 425.646 94.5104 432.776 Q94.5104 439.882 96.316 443.447 Q98.1447 446.989 101.756 446.989 Q105.39 446.989 107.196 443.447 Q109.024 439.882 109.024 432.776 Q109.024 425.646 107.196 422.105 Q105.39 418.54 101.756 418.54 M101.756 414.836 Q107.566 414.836 110.621 419.443 Q113.7 424.026 113.7 432.776 Q113.7 441.503 110.621 446.109 Q107.566 450.692 101.756 450.692 Q95.9456 450.692 92.8669 446.109 Q89.8114 441.503 89.8114 432.776 Q89.8114 424.026 92.8669 419.443 Q95.9456 414.836 101.756 414.836 Z" fill="#000000" fill-rule="nonzero" fill-opacity="1" /><path clip-path="url(#clip030)" d="M121.918 444.141 L126.802 444.141 L126.802 450.021 L121.918 450.021 L121.918 444.141 Z" fill="#000000" fill-rule="nonzero" fill-opacity="1" /><path clip-path="url(#clip030)" d="M137.033 415.461 L155.39 415.461 L155.39 419.396 L141.316 419.396 L141.316 427.868 Q142.334 427.521 143.353 427.359 Q144.371 427.174 145.39 427.174 Q151.177 427.174 154.556 430.345 Q157.936 433.517 157.936 438.933 Q157.936 444.512 154.464 447.614 Q150.992 450.692 144.672 450.692 Q142.496 450.692 140.228 450.322 Q137.982 449.952 135.575 449.211 L135.575 444.512 Q137.658 445.646 139.881 446.202 Q142.103 446.757 144.58 446.757 Q148.584 446.757 150.922 444.651 Q153.26 442.544 153.26 438.933 Q153.26 435.322 150.922 433.216 Q148.584 431.109 144.58 431.109 Q142.705 431.109 140.83 431.526 Q138.978 431.942 137.033 432.822 L137.033 415.461 Z" fill="#000000" fill-rule="nonzero" fill-opacity="1" /><path clip-path="url(#clip030)" d="M91.5706 134.737 L99.2095 134.737 L99.2095 108.372 L90.8993 110.038 L90.8993 105.779 L99.1632 104.112 L103.839 104.112 L103.839 134.737 L111.478 134.737 L111.478 138.672 L91.5706 138.672 L91.5706 134.737 Z" fill="#000000" fill-rule="nonzero" fill-opacity="1" /><path clip-path="url(#clip030)" d="M120.922 132.793 L125.807 132.793 L125.807 138.672 L120.922 138.672 L120.922 132.793 Z" fill="#000000" fill-rule="nonzero" fill-opacity="1" /><path clip-path="url(#clip030)" d="M145.992 107.191 Q142.381 107.191 140.552 110.756 Q138.746 114.297 138.746 121.427 Q138.746 128.533 140.552 132.098 Q142.381 135.64 145.992 135.64 Q149.626 135.64 151.431 132.098 Q153.26 128.533 153.26 121.427 Q153.26 114.297 151.431 110.756 Q149.626 107.191 145.992 107.191 M145.992 103.487 Q151.802 103.487 154.857 108.094 Q157.936 112.677 157.936 121.427 Q157.936 130.154 154.857 134.76 Q151.802 139.344 145.992 139.344 Q140.181 139.344 137.103 134.76 Q134.047 130.154 134.047 121.427 Q134.047 112.677 137.103 108.094 Q140.181 103.487 145.992 103.487 Z" fill="#000000" fill-rule="nonzero" fill-opacity="1" /><polyline clip-path="url(#clip032)" style="stroke:#009af9; stroke-linecap:round; stroke-linejoin:round; stroke-width:4; stroke-opacity:1; fill:none" points="255.035,744.09 258.278,737.863 261.521,731.637 264.764,725.412 268.007,719.189 271.25,712.968 274.493,706.75 277.736,700.537 280.979,694.327 284.222,688.123 287.465,681.924 290.708,675.731 293.951,669.545 297.194,663.367 300.437,657.197 303.68,651.035 306.923,644.883 310.166,638.74 313.409,632.609 316.652,626.488 319.895,620.379 323.138,614.282 326.381,608.199 329.624,602.129 332.867,596.073 336.11,590.032 339.353,584.006 342.596,577.997 345.84,572.004 349.083,566.028 352.326,560.07 355.569,554.131 358.812,548.21 362.055,542.309 365.298,536.428 368.541,530.568 371.784,524.73 375.027,518.913 378.27,513.119 381.513,507.347 384.756,501.6 387.999,495.877 391.242,490.178 394.485,484.505 397.728,478.858 400.971,473.238 404.214,467.644 407.457,462.079 410.7,456.541 413.943,451.032 417.186,445.553 420.429,440.103 423.672,434.684 426.915,429.295 430.158,423.939 433.401,418.614 436.644,413.322 439.887,408.062 443.13,402.837 446.373,397.645 449.616,392.488 452.859,387.367 456.103,382.281 459.346,377.231 462.589,372.218 465.832,367.242 469.075,362.303 472.318,357.403 475.561,352.542 478.804,347.72 482.047,342.937 485.29,338.195 488.533,333.493 491.776,328.832 495.019,324.212 498.262,319.635 501.505,315.1 504.748,310.608 507.991,306.159 511.234,301.755 514.477,297.394 517.72,293.078 520.963,288.807 524.206,284.582 527.449,280.402 530.692,276.269 533.935,272.183 537.178,268.144 540.421,264.153 543.664,260.209 546.907,256.314 550.15,252.468 553.393,248.671 556.636,244.923 559.879,241.225 563.122,237.578 566.366,233.981 569.609,230.436 572.852,226.941 576.095,223.499 579.338,220.108 582.581,216.77 585.824,213.484 589.067,210.252 592.31,207.073 595.553,203.948 598.796,200.876 602.039,197.859 605.282,194.897 608.525,191.989 611.768,189.137 615.011,186.34 618.254,183.6 621.497,180.915 624.74,178.286 627.983,175.714 631.226,173.199 634.469,170.741 637.712,168.34 640.955,165.997 644.198,163.711 647.441,161.484 650.684,159.315 653.927,157.204 657.17,155.152 660.413,153.159 663.656,151.226 666.899,149.351 670.142,147.536 673.385,145.78 676.629,144.085 679.872,142.449 683.115,140.873 686.358,139.358 689.601,137.903 692.844,136.509 696.087,135.176 699.33,133.903 702.573,132.692 705.816,131.542 709.059,130.453 712.302,129.425 715.545,128.459 718.788,127.554 722.031,126.711 725.274,125.93 728.517,125.21 731.76,124.553 735.003,123.957 738.246,123.424 741.489,122.952 744.732,122.543 747.975,122.195 751.218,121.91 754.461,121.688 757.704,121.527 760.947,121.429 764.19,121.392 767.433,121.419 770.676,121.507 773.919,121.658 777.162,121.871 780.405,122.146 783.648,122.483 786.892,122.883 790.135,123.344 793.378,123.868 796.621,124.454 799.864,125.102 803.107,125.811 806.35,126.583 809.593,127.416 812.836,128.311 816.079,129.267 819.322,130.285 822.565,131.364 825.808,132.505 829.051,133.706 832.294,134.969 835.537,136.293 838.78,137.677 842.023,139.122 845.266,140.628 848.509,142.194 851.752,143.82 854.995,145.506 858.238,147.252 861.481,149.058 864.724,150.923 867.967,152.847 871.21,154.831 874.453,156.874 877.696,158.975 880.939,161.135 884.182,163.353 887.425,165.629 890.668,167.963 893.911,170.355 897.155,172.803 900.398,175.31 903.641,177.873 906.884,180.492 910.127,183.168 913.37,185.9 916.613,188.688 919.856,191.531 923.099,194.43 926.342,197.384 929.585,200.392 932.828,203.455 936.071,206.571 939.314,209.742 942.557,212.966 945.8,216.243 949.043,219.573 952.286,222.955 955.529,226.389 958.772,229.876 962.015,233.413 965.258,237.002 968.501,240.641 971.744,244.331 974.987,248.07 978.23,251.86 981.473,255.698 984.716,259.586 987.959,263.521 991.202,267.505 994.445,271.537 997.688,275.615 1000.93,279.741 1004.17,283.913 1007.42,288.131 1010.66,292.395 1013.9,296.704 1017.15,301.057 1020.39,305.455 1023.63,309.897 1026.88,314.382 1030.12,318.91 1033.36,323.481 1036.6,328.093 1039.85,332.748 1043.09,337.443 1046.33,342.179 1049.58,346.955 1052.82,351.771 1056.06,356.627 1059.31,361.521 1062.55,366.453 1065.79,371.423 1069.04,376.43 1072.28,381.474 1075.52,386.554 1078.76,391.67 1082.01,396.822 1085.25,402.008 1088.49,407.228 1091.74,412.482 1094.98,417.769 1098.22,423.088 1101.47,428.44 1104.71,433.824 1107.95,439.238 1111.19,444.683 1114.44,450.158 1117.68,455.662 1120.92,461.195 1124.17,466.756 1127.41,472.345 1130.65,477.961 1133.9,483.604 1137.14,489.273 1140.38,494.968 1143.62,500.687 1146.87,506.43 1150.11,512.198 1153.35,517.988 1156.6,523.802 1159.84,529.637 1163.08,535.494 1166.33,541.371 1169.57,547.269 1172.81,553.186 1176.06,559.123 1179.3,565.078 1182.54,571.051 1185.78,577.041 1189.03,583.048 1192.27,589.071 1195.51,595.11 1198.76,601.163 1202,607.231 1205.24,613.313 1208.49,619.407 1211.73,625.514 1214.97,631.633 1218.21,637.763 1221.46,643.904 1224.7,650.055 1227.94,656.215 1231.19,662.384 1234.43,668.561 1237.67,674.746 1240.92,680.937 1244.16,687.135 1247.4,693.339 1250.64,699.547 1253.89,705.761 1257.13,711.977 1260.37,718.198 1263.62,724.42 1266.86,730.645 1270.1,736.871 1273.35,743.098 1276.59,749.325 1279.83,755.551 1283.08,761.777 1286.32,768 1289.56,774.221 1292.8,780.439 1296.05,786.654 1299.29,792.864 1302.53,799.069 1305.78,805.269 1309.02,811.463 1312.26,817.65 1315.51,823.829 1318.75,830.001 1321.99,836.164 1325.23,842.318 1328.48,848.462 1331.72,854.595 1334.96,860.718 1338.21,866.829 1341.45,872.927 1344.69,879.013 1347.94,885.085 1351.18,891.143 1354.42,897.187 1357.66,903.215 1360.91,909.227 1364.15,915.222 1367.39,921.201 1370.64,927.162 1373.88,933.104 1377.12,939.028 1380.37,944.932 1383.61,950.816 1386.85,956.68 1390.1,962.522 1393.34,968.342 1396.58,974.14 1399.82,979.915 1403.07,985.666 1406.31,991.393 1409.55,997.095 1412.8,1002.77 1416.04,1008.42 1419.28,1014.05 1422.53,1019.65 1425.77,1025.22 1429.01,1030.76 1432.25,1036.27 1435.5,1041.76 1438.74,1047.21 1441.98,1052.63 1445.23,1058.03 1448.47,1063.39 1451.71,1068.72 1454.96,1074.02 1458.2,1079.28 1461.44,1084.51 1464.68,1089.71 1467.93,1094.87 1471.17,1100 1474.41,1105.09 1477.66,1110.15 1480.9,1115.17 1484.14,1120.15 1487.39,1125.09 1490.63,1130 1493.87,1134.87 1497.11,1139.69 1500.36,1144.48 1503.6,1149.23 1506.84,1153.94 1510.09,1158.61 1513.33,1163.23 1516.57,1167.82 1519.82,1172.36 1523.06,1176.86 1526.3,1181.31 1529.55,1185.73 1532.79,1190.09 1536.03,1194.42 1539.27,1198.7 1542.52,1202.93 1545.76,1207.11 1549,1211.26 1552.25,1215.35 1555.49,1219.4 1558.73,1223.39 1561.98,1227.35 1565.22,1231.25 1568.46,1235.1 1571.7,1238.91 1574.95,1242.66 1578.19,1246.37 1581.43,1250.02 1584.68,1253.63 1587.92,1257.18 1591.16,1260.69 1594.41,1264.14 1597.65,1267.54 1600.89,1270.88 1604.13,1274.18 1607.38,1277.42 1610.62,1280.6 1613.86,1283.74 1617.11,1286.82 1620.35,1289.84 1623.59,1292.81 1626.84,1295.73 1630.08,1298.59 1633.32,1301.4 1636.57,1304.15 1639.81,1306.84 1643.05,1309.48 1646.29,1312.06 1649.54,1314.58 1652.78,1317.05 1656.02,1319.46 1659.27,1321.81 1662.51,1324.11 1665.75,1326.34 1669,1328.52 1672.24,1330.64 1675.48,1332.7 1678.72,1334.71 1681.97,1336.65 1685.21,1338.53 1688.45,1340.36 1691.7,1342.12 1694.94,1343.83 1698.18,1345.47 1701.43,1347.06 1704.67,1348.58 1707.91,1350.05 1711.15,1351.45 1714.4,1352.8 1717.64,1354.08 1720.88,1355.3 1724.13,1356.46 1727.37,1357.56 1730.61,1358.6 1733.86,1359.57 1737.1,1360.49 1740.34,1361.34 1743.59,1362.13 1746.83,1362.86 1750.07,1363.53 1753.31,1364.13 1756.56,1364.68 1759.8,1365.16 1763.04,1365.58 1766.29,1365.93 1769.53,1366.23 1772.77,1366.46 1776.02,1366.63 1779.26,1366.74 1782.5,1366.79 1785.74,1366.77 1788.99,1366.69 1792.23,1366.55 1795.47,1366.35 1798.72,1366.08 1801.96,1365.75 1805.2,1365.36 1808.45,1364.91 1811.69,1364.4 1814.93,1363.82 1818.17,1363.19 1821.42,1362.49 1824.66,1361.72 1827.9,1360.9 1831.15,1360.02 1834.39,1359.07 1837.63,1358.06 1840.88,1356.99 1844.12,1355.86 1847.36,1354.67 1850.61,1353.42 1853.85,1352.1 1857.09,1350.73 1860.33,1349.29 1863.58,1347.8 1866.82,1346.24 1870.06,1344.62 1873.31,1342.95 1876.55,1341.21 1879.79,1339.41 1883.04,1337.56 1886.28,1335.64 1889.52,1333.67 1892.76,1331.64 1896.01,1329.54 1899.25,1327.39 1902.49,1325.18 1905.74,1322.92 1908.98,1320.59 1912.22,1318.21 1915.47,1315.77 1918.71,1313.27 1921.95,1310.72 1925.19,1308.11 1928.44,1305.44 1931.68,1302.72 1934.92,1299.94 1938.17,1297.1 1941.41,1294.21 1944.65,1291.27 1947.9,1288.27 1951.14,1285.22 1954.38,1282.11 1957.63,1278.95 1960.87,1275.73 1964.11,1272.46 1967.35,1269.14 1970.6,1265.77 1973.84,1262.34 1977.08,1258.86 1980.33,1255.33 1983.57,1251.75 1986.81,1248.12 1990.06,1244.44 1993.3,1240.71 1996.54,1236.93 1999.78,1233.1 2003.03,1229.22 2006.27,1225.29 2009.51,1221.31 2012.76,1217.29 2016,1213.22 2019.24,1209.1 2022.49,1204.93 2025.73,1200.72 2028.97,1196.47 2032.21,1192.17 2035.46,1187.82 2038.7,1183.43 2041.94,1178.99 2045.19,1174.52 2048.43,1169.99 2051.67,1165.43 2054.92,1160.82 2058.16,1156.18 2061.4,1151.49 2064.65,1146.76 2067.89,1141.99 2071.13,1137.18 2074.37,1132.33 2077.62,1127.44 2080.86,1122.52 2084.1,1117.55 2087.35,1112.55 2090.59,1107.51 2093.83,1102.44 2097.08,1097.33 2100.32,1092.18 2103.56,1087 2106.8,1081.79 2110.05,1076.54 2113.29,1071.26 2116.53,1065.94 2119.78,1060.59 2123.02,1055.22 2126.26,1049.81 2129.51,1044.37 2132.75,1038.9 2135.99,1033.4 2139.23,1027.87 2142.48,1022.31 2145.72,1016.73 2148.96,1011.11 2152.21,1005.48 2155.45,999.811 2158.69,994.121 2161.94,988.405 2165.18,982.666 2168.42,976.902 2171.67,971.115 2174.91,965.305 2178.15,959.474 2181.39,953.62 2184.64,947.746 2187.88,941.851 2191.12,935.937 2194.37,930.004 2197.61,924.051 2200.85,918.081 2204.1,912.094 2207.34,906.089 2210.58,900.069 2213.82,894.033 2217.07,887.981 2220.31,881.916 2223.55,875.837 2226.8,869.744 2230.04,863.639 2233.28,857.522 2236.53,851.394 2239.77,845.255 2243.01,839.105 2246.25,832.947 2249.5,826.779 2252.74,820.603 2255.98,814.42 2259.23,808.229 2262.47,802.032 2265.71,795.829 2268.96,789.621 2272.2,783.409 2275.44,777.193 2278.69,770.973 2281.93,764.75 2285.17,758.526 2288.41,752.3 2291.66,746.073 "/>
<circle clip-path="url(#clip032)" cx="2022.49" cy="1266.08" r="14.4" fill="#e26f46" fill-rule="evenodd" fill-opacity="1" stroke="#000000" stroke-opacity="1" stroke-width="3.2"/>
<circle clip-path="url(#clip032)" cx="1000.93" cy="399.832" r="14.4" fill="#e26f46" fill-rule="evenodd" fill-opacity="1" stroke="#000000" stroke-opacity="1" stroke-width="3.2"/>
<circle clip-path="url(#clip032)" cx="615.011" cy="310.061" r="14.4" fill="#e26f46" fill-rule="evenodd" fill-opacity="1" stroke="#000000" stroke-opacity="1" stroke-width="3.2"/>
<circle clip-path="url(#clip032)" cx="1555.49" cy="1248.89" r="14.4" fill="#e26f46" fill-rule="evenodd" fill-opacity="1" stroke="#000000" stroke-opacity="1" stroke-width="3.2"/>
<circle clip-path="url(#clip032)" cx="1412.8" cy="855.953" r="14.4" fill="#e26f46" fill-rule="evenodd" fill-opacity="1" stroke="#000000" stroke-opacity="1" stroke-width="3.2"/>
<circle clip-path="url(#clip032)" cx="1542.52" cy="1327.95" r="14.4" fill="#e26f46" fill-rule="evenodd" fill-opacity="1" stroke="#000000" stroke-opacity="1" stroke-width="3.2"/>
<circle clip-path="url(#clip032)" cx="2230.04" cy="729.57" r="14.4" fill="#e26f46" fill-rule="evenodd" fill-opacity="1" stroke="#000000" stroke-opacity="1" stroke-width="3.2"/>
<circle clip-path="url(#clip032)" cx="1195.51" cy="737.297" r="14.4" fill="#e26f46" fill-rule="evenodd" fill-opacity="1" stroke="#000000" stroke-opacity="1" stroke-width="3.2"/>
<circle clip-path="url(#clip032)" cx="1156.6" cy="560.079" r="14.4" fill="#e26f46" fill-rule="evenodd" fill-opacity="1" stroke="#000000" stroke-opacity="1" stroke-width="3.2"/>
<circle clip-path="url(#clip032)" cx="735.003" cy="117.828" r="14.4" fill="#e26f46" fill-rule="evenodd" fill-opacity="1" stroke="#000000" stroke-opacity="1" stroke-width="3.2"/>
<circle clip-path="url(#clip032)" cx="2061.4" cy="1250.41" r="14.4" fill="#e26f46" fill-rule="evenodd" fill-opacity="1" stroke="#000000" stroke-opacity="1" stroke-width="3.2"/>
<circle clip-path="url(#clip032)" cx="1801.96" cy="1445.72" r="14.4" fill="#e26f46" fill-rule="evenodd" fill-opacity="1" stroke="#000000" stroke-opacity="1" stroke-width="3.2"/>
<circle clip-path="url(#clip032)" cx="556.636" cy="389.671" r="14.4" fill="#e26f46" fill-rule="evenodd" fill-opacity="1" stroke="#000000" stroke-opacity="1" stroke-width="3.2"/>
<circle clip-path="url(#clip032)" cx="1717.64" cy="1409.03" r="14.4" fill="#e26f46" fill-rule="evenodd" fill-opacity="1" stroke="#000000" stroke-opacity="1" stroke-width="3.2"/>
<circle clip-path="url(#clip032)" cx="1899.25" cy="1268.09" r="14.4" fill="#e26f46" fill-rule="evenodd" fill-opacity="1" stroke="#000000" stroke-opacity="1" stroke-width="3.2"/>
<circle clip-path="url(#clip032)" cx="1386.85" cy="1051.32" r="14.4" fill="#e26f46" fill-rule="evenodd" fill-opacity="1" stroke="#000000" stroke-opacity="1" stroke-width="3.2"/>
<circle clip-path="url(#clip032)" cx="958.772" cy="87.9763" r="14.4" fill="#e26f46" fill-rule="evenodd" fill-opacity="1" stroke="#000000" stroke-opacity="1" stroke-width="3.2"/>
<circle clip-path="url(#clip032)" cx="297.194" cy="700.251" r="14.4" fill="#e26f46" fill-rule="evenodd" fill-opacity="1" stroke="#000000" stroke-opacity="1" stroke-width="3.2"/>
<circle clip-path="url(#clip032)" cx="1782.5" cy="1212.79" r="14.4" fill="#e26f46" fill-rule="evenodd" fill-opacity="1" stroke="#000000" stroke-opacity="1" stroke-width="3.2"/>
<circle clip-path="url(#clip032)" cx="550.15" cy="287.709" r="14.4" fill="#e26f46" fill-rule="evenodd" fill-opacity="1" stroke="#000000" stroke-opacity="1" stroke-width="3.2"/>
<path clip-path="url(#clip030)" d="M1953.46 250.738 L2280.8 250.738 L2280.8 95.2176 L1953.46 95.2176  Z" fill="#ffffff" fill-rule="evenodd" fill-opacity="1"/>
<polyline clip-path="url(#clip030)" style="stroke:#000000; stroke-linecap:round; stroke-linejoin:round; stroke-width:4; stroke-opacity:1; fill:none" points="1953.46,250.738 2280.8,250.738 2280.8,95.2176 1953.46,95.2176 1953.46,250.738 "/>
<polyline clip-path="url(#clip030)" style="stroke:#009af9; stroke-linecap:round; stroke-linejoin:round; stroke-width:4; stroke-opacity:1; fill:none" points="1977.44,147.058 2121.36,147.058 "/>
<path clip-path="url(#clip030)" d="M2152.76 131.051 L2152.76 138.412 L2161.53 138.412 L2161.53 141.722 L2152.76 141.722 L2152.76 155.796 Q2152.76 158.967 2153.61 159.87 Q2154.49 160.773 2157.16 160.773 L2161.53 160.773 L2161.53 164.338 L2157.16 164.338 Q2152.23 164.338 2150.35 162.509 Q2148.48 160.657 2148.48 155.796 L2148.48 141.722 L2145.35 141.722 L2145.35 138.412 L2148.48 138.412 L2148.48 131.051 L2152.76 131.051 Z" fill="#000000" fill-rule="nonzero" fill-opacity="1" /><path clip-path="url(#clip030)" d="M2182.16 142.393 Q2181.44 141.977 2180.58 141.791 Q2179.75 141.583 2178.73 141.583 Q2175.12 141.583 2173.17 143.944 Q2171.25 146.282 2171.25 150.68 L2171.25 164.338 L2166.97 164.338 L2166.97 138.412 L2171.25 138.412 L2171.25 142.44 Q2172.6 140.078 2174.75 138.944 Q2176.9 137.787 2179.98 137.787 Q2180.42 137.787 2180.95 137.856 Q2181.48 137.903 2182.13 138.018 L2182.16 142.393 Z" fill="#000000" fill-rule="nonzero" fill-opacity="1" /><path clip-path="url(#clip030)" d="M2186.18 154.106 L2186.18 138.412 L2190.44 138.412 L2190.44 153.944 Q2190.44 157.625 2191.88 159.476 Q2193.31 161.305 2196.18 161.305 Q2199.63 161.305 2201.62 159.106 Q2203.64 156.907 2203.64 153.111 L2203.64 138.412 L2207.9 138.412 L2207.9 164.338 L2203.64 164.338 L2203.64 160.356 Q2202.09 162.717 2200.03 163.875 Q2197.99 165.009 2195.28 165.009 Q2190.81 165.009 2188.5 162.231 Q2186.18 159.453 2186.18 154.106 M2196.9 137.787 L2196.9 137.787 Z" fill="#000000" fill-rule="nonzero" fill-opacity="1" /><path clip-path="url(#clip030)" d="M2220.88 131.051 L2220.88 138.412 L2229.66 138.412 L2229.66 141.722 L2220.88 141.722 L2220.88 155.796 Q2220.88 158.967 2221.74 159.87 Q2222.62 160.773 2225.28 160.773 L2229.66 160.773 L2229.66 164.338 L2225.28 164.338 Q2220.35 164.338 2218.48 162.509 Q2216.6 160.657 2216.6 155.796 L2216.6 141.722 L2213.48 141.722 L2213.48 138.412 L2216.6 138.412 L2216.6 131.051 L2220.88 131.051 Z" fill="#000000" fill-rule="nonzero" fill-opacity="1" /><path clip-path="url(#clip030)" d="M2256.81 148.689 L2256.81 164.338 L2252.55 164.338 L2252.55 148.828 Q2252.55 145.148 2251.11 143.319 Q2249.68 141.49 2246.81 141.49 Q2243.36 141.49 2241.37 143.69 Q2239.38 145.889 2239.38 149.685 L2239.38 164.338 L2235.1 164.338 L2235.1 128.319 L2239.38 128.319 L2239.38 142.44 Q2240.91 140.102 2242.97 138.944 Q2245.05 137.787 2247.76 137.787 Q2252.23 137.787 2254.52 140.565 Q2256.81 143.319 2256.81 148.689 Z" fill="#000000" fill-rule="nonzero" fill-opacity="1" /><circle clip-path="url(#clip030)" cx="2049.4" cy="198.898" r="20.48" fill="#e26f46" fill-rule="evenodd" fill-opacity="1" stroke="#000000" stroke-opacity="1" stroke-width="4.55111"/>
<path clip-path="url(#clip030)" d="M2164.26 194.187 L2164.26 180.159 L2168.52 180.159 L2168.52 216.178 L2164.26 216.178 L2164.26 212.289 Q2162.92 214.603 2160.86 215.738 Q2158.82 216.849 2155.95 216.849 Q2151.25 216.849 2148.29 213.099 Q2145.35 209.349 2145.35 203.238 Q2145.35 197.127 2148.29 193.377 Q2151.25 189.627 2155.95 189.627 Q2158.82 189.627 2160.86 190.761 Q2162.92 191.872 2164.26 194.187 M2149.75 203.238 Q2149.75 207.937 2151.67 210.622 Q2153.61 213.284 2156.99 213.284 Q2160.37 213.284 2162.32 210.622 Q2164.26 207.937 2164.26 203.238 Q2164.26 198.539 2162.32 195.877 Q2160.37 193.192 2156.99 193.192 Q2153.61 193.192 2151.67 195.877 Q2149.75 198.539 2149.75 203.238 Z" fill="#000000" fill-rule="nonzero" fill-opacity="1" /><path clip-path="url(#clip030)" d="M2189.08 203.145 Q2183.92 203.145 2181.92 204.326 Q2179.93 205.506 2179.93 208.354 Q2179.93 210.622 2181.42 211.965 Q2182.92 213.284 2185.49 213.284 Q2189.03 213.284 2191.16 210.784 Q2193.31 208.261 2193.31 204.094 L2193.31 203.145 L2189.08 203.145 M2197.57 201.386 L2197.57 216.178 L2193.31 216.178 L2193.31 212.242 Q2191.85 214.603 2189.68 215.738 Q2187.5 216.849 2184.36 216.849 Q2180.37 216.849 2178.01 214.627 Q2175.67 212.381 2175.67 208.631 Q2175.67 204.256 2178.59 202.034 Q2181.53 199.812 2187.34 199.812 L2193.31 199.812 L2193.31 199.395 Q2193.31 196.455 2191.37 194.858 Q2189.45 193.238 2185.95 193.238 Q2183.73 193.238 2181.62 193.77 Q2179.52 194.303 2177.57 195.367 L2177.57 191.432 Q2179.91 190.53 2182.11 190.09 Q2184.31 189.627 2186.39 189.627 Q2192.02 189.627 2194.79 192.543 Q2197.57 195.46 2197.57 201.386 Z" fill="#000000" fill-rule="nonzero" fill-opacity="1" /><path clip-path="url(#clip030)" d="M2210.56 182.891 L2210.56 190.252 L2219.33 190.252 L2219.33 193.562 L2210.56 193.562 L2210.56 207.636 Q2210.56 210.807 2211.42 211.71 Q2212.29 212.613 2214.96 212.613 L2219.33 212.613 L2219.33 216.178 L2214.96 216.178 Q2210.03 216.178 2208.15 214.349 Q2206.28 212.497 2206.28 207.636 L2206.28 193.562 L2203.15 193.562 L2203.15 190.252 L2206.28 190.252 L2206.28 182.891 L2210.56 182.891 Z" fill="#000000" fill-rule="nonzero" fill-opacity="1" /><path clip-path="url(#clip030)" d="M2236.72 203.145 Q2231.55 203.145 2229.56 204.326 Q2227.57 205.506 2227.57 208.354 Q2227.57 210.622 2229.05 211.965 Q2230.56 213.284 2233.13 213.284 Q2236.67 213.284 2238.8 210.784 Q2240.95 208.261 2240.95 204.094 L2240.95 203.145 L2236.72 203.145 M2245.21 201.386 L2245.21 216.178 L2240.95 216.178 L2240.95 212.242 Q2239.49 214.603 2237.32 215.738 Q2235.14 216.849 2231.99 216.849 Q2228.01 216.849 2225.65 214.627 Q2223.31 212.381 2223.31 208.631 Q2223.31 204.256 2226.23 202.034 Q2229.17 199.812 2234.98 199.812 L2240.95 199.812 L2240.95 199.395 Q2240.95 196.455 2239.01 194.858 Q2237.09 193.238 2233.59 193.238 Q2231.37 193.238 2229.26 193.77 Q2227.16 194.303 2225.21 195.367 L2225.21 191.432 Q2227.55 190.53 2229.75 190.09 Q2231.95 189.627 2234.03 189.627 Q2239.66 189.627 2242.43 192.543 Q2245.21 195.46 2245.21 201.386 Z" fill="#000000" fill-rule="nonzero" fill-opacity="1" /></svg>
