<?xml version="1.0" encoding="utf-8"?>
<svg xmlns="http://www.w3.org/2000/svg" xmlns:xlink="http://www.w3.org/1999/xlink" width="600" height="400" viewBox="0 0 2400 1600">
<defs>
  <clipPath id="clip730">
    <rect x="0" y="0" width="2400" height="1600"/>
  </clipPath>
</defs>
<path clip-path="url(#clip730)" d="M0 1600 L2400 1600 L2400 0 L0 0  Z" fill="#ffffff" fill-rule="evenodd" fill-opacity="1"/>
<defs>
  <clipPath id="clip731">
    <rect x="480" y="0" width="1681" height="1600"/>
  </clipPath>
</defs>
<path clip-path="url(#clip730)" d="M193.936 1486.45 L2352.76 1486.45 L2352.76 47.2441 L193.936 47.2441  Z" fill="#ffffff" fill-rule="evenodd" fill-opacity="1"/>
<defs>
  <clipPath id="clip732">
    <rect x="193" y="47" width="2160" height="1440"/>
  </clipPath>
</defs>
<polyline clip-path="url(#clip732)" style="stroke:#000000; stroke-linecap:round; stroke-linejoin:round; stroke-width:2; stroke-opacity:0.1; fill:none" points="255.035,1486.45 255.035,47.2441 "/>
<polyline clip-path="url(#clip732)" style="stroke:#000000; stroke-linecap:round; stroke-linejoin:round; stroke-width:2; stroke-opacity:0.1; fill:none" points="579.338,1486.45 579.338,47.2441 "/>
<polyline clip-path="url(#clip732)" style="stroke:#000000; stroke-linecap:round; stroke-linejoin:round; stroke-width:2; stroke-opacity:0.1; fill:none" points="903.641,1486.45 903.641,47.2441 "/>
<polyline clip-path="url(#clip732)" style="stroke:#000000; stroke-linecap:round; stroke-linejoin:round; stroke-width:2; stroke-opacity:0.1; fill:none" points="1227.94,1486.45 1227.94,47.2441 "/>
<polyline clip-path="url(#clip732)" style="stroke:#000000; stroke-linecap:round; stroke-linejoin:round; stroke-width:2; stroke-opacity:0.1; fill:none" points="1552.25,1486.45 1552.25,47.2441 "/>
<polyline clip-path="url(#clip732)" style="stroke:#000000; stroke-linecap:round; stroke-linejoin:round; stroke-width:2; stroke-opacity:0.1; fill:none" points="1876.55,1486.45 1876.55,47.2441 "/>
<polyline clip-path="url(#clip732)" style="stroke:#000000; stroke-linecap:round; stroke-linejoin:round; stroke-width:2; stroke-opacity:0.1; fill:none" points="2200.85,1486.45 2200.85,47.2441 "/>
<polyline clip-path="url(#clip732)" style="stroke:#000000; stroke-linecap:round; stroke-linejoin:round; stroke-width:2; stroke-opacity:0.1; fill:none" points="193.936,1349.7 2352.76,1349.7 "/>
<polyline clip-path="url(#clip732)" style="stroke:#000000; stroke-linecap:round; stroke-linejoin:round; stroke-width:2; stroke-opacity:0.1; fill:none" points="193.936,1048.84 2352.76,1048.84 "/>
<polyline clip-path="url(#clip732)" style="stroke:#000000; stroke-linecap:round; stroke-linejoin:round; stroke-width:2; stroke-opacity:0.1; fill:none" points="193.936,747.98 2352.76,747.98 "/>
<polyline clip-path="url(#clip732)" style="stroke:#000000; stroke-linecap:round; stroke-linejoin:round; stroke-width:2; stroke-opacity:0.1; fill:none" points="193.936,447.12 2352.76,447.12 "/>
<polyline clip-path="url(#clip732)" style="stroke:#000000; stroke-linecap:round; stroke-linejoin:round; stroke-width:2; stroke-opacity:0.1; fill:none" points="193.936,146.259 2352.76,146.259 "/>
<polyline clip-path="url(#clip730)" style="stroke:#000000; stroke-linecap:round; stroke-linejoin:round; stroke-width:4; stroke-opacity:1; fill:none" points="193.936,1486.45 2352.76,1486.45 "/>
<polyline clip-path="url(#clip730)" style="stroke:#000000; stroke-linecap:round; stroke-linejoin:round; stroke-width:4; stroke-opacity:1; fill:none" points="255.035,1486.45 255.035,1467.55 "/>
<polyline clip-path="url(#clip730)" style="stroke:#000000; stroke-linecap:round; stroke-linejoin:round; stroke-width:4; stroke-opacity:1; fill:none" points="579.338,1486.45 579.338,1467.55 "/>
<polyline clip-path="url(#clip730)" style="stroke:#000000; stroke-linecap:round; stroke-linejoin:round; stroke-width:4; stroke-opacity:1; fill:none" points="903.641,1486.45 903.641,1467.55 "/>
<polyline clip-path="url(#clip730)" style="stroke:#000000; stroke-linecap:round; stroke-linejoin:round; stroke-width:4; stroke-opacity:1; fill:none" points="1227.94,1486.45 1227.94,1467.55 "/>
<polyline clip-path="url(#clip730)" style="stroke:#000000; stroke-linecap:round; stroke-linejoin:round; stroke-width:4; stroke-opacity:1; fill:none" points="1552.25,1486.45 1552.25,1467.55 "/>
<polyline clip-path="url(#clip730)" style="stroke:#000000; stroke-linecap:round; stroke-linejoin:round; stroke-width:4; stroke-opacity:1; fill:none" points="1876.55,1486.45 1876.55,1467.55 "/>
<polyline clip-path="url(#clip730)" style="stroke:#000000; stroke-linecap:round; stroke-linejoin:round; stroke-width:4; stroke-opacity:1; fill:none" points="2200.85,1486.45 2200.85,1467.55 "/>
<path clip-path="url(#clip730)" d="M255.035 1517.37 Q251.424 1517.37 249.595 1520.93 Q247.789 1524.47 247.789 1531.6 Q247.789 1538.71 249.595 1542.27 Q251.424 1545.82 255.035 1545.82 Q258.669 1545.82 260.474 1542.27 Q262.303 1538.71 262.303 1531.6 Q262.303 1524.47 260.474 1520.93 Q258.669 1517.37 255.035 1517.37 M255.035 1513.66 Q260.845 1513.66 263.9 1518.27 Q266.979 1522.85 266.979 1531.6 Q266.979 1540.33 263.9 1544.94 Q260.845 1549.52 255.035 1549.52 Q249.225 1549.52 246.146 1544.94 Q243.09 1540.33 243.09 1531.6 Q243.09 1522.85 246.146 1518.27 Q249.225 1513.66 255.035 1513.66 Z" fill="#000000" fill-rule="nonzero" fill-opacity="1" /><path clip-path="url(#clip730)" d="M569.72 1544.91 L577.358 1544.91 L577.358 1518.55 L569.048 1520.21 L569.048 1515.95 L577.312 1514.29 L581.988 1514.29 L581.988 1544.91 L589.627 1544.91 L589.627 1548.85 L569.72 1548.85 L569.72 1544.91 Z" fill="#000000" fill-rule="nonzero" fill-opacity="1" /><path clip-path="url(#clip730)" d="M898.293 1544.91 L914.613 1544.91 L914.613 1548.85 L892.668 1548.85 L892.668 1544.91 Q895.33 1542.16 899.914 1537.53 Q904.52 1532.88 905.701 1531.53 Q907.946 1529.01 908.826 1527.27 Q909.729 1525.51 909.729 1523.82 Q909.729 1521.07 907.784 1519.33 Q905.863 1517.6 902.761 1517.6 Q900.562 1517.6 898.108 1518.36 Q895.678 1519.13 892.9 1520.68 L892.9 1515.95 Q895.724 1514.82 898.178 1514.24 Q900.631 1513.66 902.668 1513.66 Q908.039 1513.66 911.233 1516.35 Q914.428 1519.03 914.428 1523.52 Q914.428 1525.65 913.617 1527.57 Q912.83 1529.47 910.724 1532.07 Q910.145 1532.74 907.043 1535.95 Q903.942 1539.15 898.293 1544.91 Z" fill="#000000" fill-rule="nonzero" fill-opacity="1" /><path clip-path="url(#clip730)" d="M1232.19 1530.21 Q1235.55 1530.93 1237.42 1533.2 Q1239.32 1535.47 1239.32 1538.8 Q1239.32 1543.92 1235.8 1546.72 Q1232.28 1549.52 1225.8 1549.52 Q1223.63 1549.52 1221.31 1549.08 Q1219.02 1548.66 1216.57 1547.81 L1216.57 1543.29 Q1218.51 1544.43 1220.83 1545.01 Q1223.14 1545.58 1225.66 1545.58 Q1230.06 1545.58 1232.35 1543.85 Q1234.67 1542.11 1234.67 1538.8 Q1234.67 1535.75 1232.52 1534.03 Q1230.39 1532.3 1226.57 1532.3 L1222.54 1532.3 L1222.54 1528.45 L1226.75 1528.45 Q1230.2 1528.45 1232.03 1527.09 Q1233.86 1525.7 1233.86 1523.11 Q1233.86 1520.45 1231.96 1519.03 Q1230.08 1517.6 1226.57 1517.6 Q1224.64 1517.6 1222.45 1518.01 Q1220.25 1518.43 1217.61 1519.31 L1217.61 1515.14 Q1220.27 1514.4 1222.58 1514.03 Q1224.92 1513.66 1226.98 1513.66 Q1232.31 1513.66 1235.41 1516.09 Q1238.51 1518.5 1238.51 1522.62 Q1238.51 1525.49 1236.87 1527.48 Q1235.22 1529.45 1232.19 1530.21 Z" fill="#000000" fill-rule="nonzero" fill-opacity="1" /><path clip-path="url(#clip730)" d="M1555.26 1518.36 L1543.45 1536.81 L1555.26 1536.81 L1555.26 1518.36 M1554.03 1514.29 L1559.91 1514.29 L1559.91 1536.81 L1564.84 1536.81 L1564.84 1540.7 L1559.91 1540.7 L1559.91 1548.85 L1555.26 1548.85 L1555.26 1540.7 L1539.65 1540.7 L1539.65 1536.19 L1554.03 1514.29 Z" fill="#000000" fill-rule="nonzero" fill-opacity="1" /><path clip-path="url(#clip730)" d="M1866.83 1514.29 L1885.18 1514.29 L1885.18 1518.22 L1871.11 1518.22 L1871.11 1526.7 Q1872.13 1526.35 1873.15 1526.19 Q1874.17 1526 1875.18 1526 Q1880.97 1526 1884.35 1529.17 Q1887.73 1532.34 1887.73 1537.76 Q1887.73 1543.34 1884.26 1546.44 Q1880.79 1549.52 1874.47 1549.52 Q1872.29 1549.52 1870.02 1549.15 Q1867.78 1548.78 1865.37 1548.04 L1865.37 1543.34 Q1867.45 1544.47 1869.67 1545.03 Q1871.9 1545.58 1874.37 1545.58 Q1878.38 1545.58 1880.72 1543.48 Q1883.05 1541.37 1883.05 1537.76 Q1883.05 1534.15 1880.72 1532.04 Q1878.38 1529.94 1874.37 1529.94 Q1872.5 1529.94 1870.62 1530.35 Q1868.77 1530.77 1866.83 1531.65 L1866.83 1514.29 Z" fill="#000000" fill-rule="nonzero" fill-opacity="1" /><path clip-path="url(#clip730)" d="M2201.26 1529.7 Q2198.11 1529.7 2196.26 1531.86 Q2194.43 1534.01 2194.43 1537.76 Q2194.43 1541.49 2196.26 1543.66 Q2198.11 1545.82 2201.26 1545.82 Q2204.41 1545.82 2206.23 1543.66 Q2208.09 1541.49 2208.09 1537.76 Q2208.09 1534.01 2206.23 1531.86 Q2204.41 1529.7 2201.26 1529.7 M2210.54 1515.05 L2210.54 1519.31 Q2208.78 1518.48 2206.98 1518.04 Q2205.19 1517.6 2203.43 1517.6 Q2198.8 1517.6 2196.35 1520.72 Q2193.92 1523.85 2193.57 1530.17 Q2194.94 1528.15 2197 1527.09 Q2199.06 1526 2201.54 1526 Q2206.74 1526 2209.75 1529.17 Q2212.79 1532.32 2212.79 1537.76 Q2212.79 1543.08 2209.64 1546.3 Q2206.49 1549.52 2201.26 1549.52 Q2195.26 1549.52 2192.09 1544.94 Q2188.92 1540.33 2188.92 1531.6 Q2188.92 1523.41 2192.81 1518.55 Q2196.7 1513.66 2203.25 1513.66 Q2205.01 1513.66 2206.79 1514.01 Q2208.6 1514.36 2210.54 1515.05 Z" fill="#000000" fill-rule="nonzero" fill-opacity="1" /><polyline clip-path="url(#clip730)" style="stroke:#000000; stroke-linecap:round; stroke-linejoin:round; stroke-width:4; stroke-opacity:1; fill:none" points="193.936,1486.45 193.936,47.2441 "/>
<polyline clip-path="url(#clip730)" style="stroke:#000000; stroke-linecap:round; stroke-linejoin:round; stroke-width:4; stroke-opacity:1; fill:none" points="193.936,1349.7 212.834,1349.7 "/>
<polyline clip-path="url(#clip730)" style="stroke:#000000; stroke-linecap:round; stroke-linejoin:round; stroke-width:4; stroke-opacity:1; fill:none" points="193.936,1048.84 212.834,1048.84 "/>
<polyline clip-path="url(#clip730)" style="stroke:#000000; stroke-linecap:round; stroke-linejoin:round; stroke-width:4; stroke-opacity:1; fill:none" points="193.936,747.98 212.834,747.98 "/>
<polyline clip-path="url(#clip730)" style="stroke:#000000; stroke-linecap:round; stroke-linejoin:round; stroke-width:4; stroke-opacity:1; fill:none" points="193.936,447.12 212.834,447.12 "/>
<polyline clip-path="url(#clip730)" style="stroke:#000000; stroke-linecap:round; stroke-linejoin:round; stroke-width:4; stroke-opacity:1; fill:none" points="193.936,146.259 212.834,146.259 "/>
<path clip-path="url(#clip730)" d="M50.9921 1350.15 L80.6679 1350.15 L80.6679 1354.09 L50.9921 1354.09 L50.9921 1350.15 Z" fill="#000000" fill-rule="nonzero" fill-opacity="1" /><path clip-path="url(#clip730)" d="M91.5706 1363.05 L99.2095 1363.05 L99.2095 1336.68 L90.8993 1338.35 L90.8993 1334.09 L99.1632 1332.42 L103.839 1332.42 L103.839 1363.05 L111.478 1363.05 L111.478 1366.98 L91.5706 1366.98 L91.5706 1363.05 Z" fill="#000000" fill-rule="nonzero" fill-opacity="1" /><path clip-path="url(#clip730)" d="M120.922 1361.1 L125.807 1361.1 L125.807 1366.98 L120.922 1366.98 L120.922 1361.1 Z" fill="#000000" fill-rule="nonzero" fill-opacity="1" /><path clip-path="url(#clip730)" d="M145.992 1335.5 Q142.381 1335.5 140.552 1339.06 Q138.746 1342.61 138.746 1349.74 Q138.746 1356.84 140.552 1360.41 Q142.381 1363.95 145.992 1363.95 Q149.626 1363.95 151.431 1360.41 Q153.26 1356.84 153.26 1349.74 Q153.26 1342.61 151.431 1339.06 Q149.626 1335.5 145.992 1335.5 M145.992 1331.8 Q151.802 1331.8 154.857 1336.4 Q157.936 1340.99 157.936 1349.74 Q157.936 1358.46 154.857 1363.07 Q151.802 1367.65 145.992 1367.65 Q140.181 1367.65 137.103 1363.07 Q134.047 1358.46 134.047 1349.74 Q134.047 1340.99 137.103 1336.4 Q140.181 1331.8 145.992 1331.8 Z" fill="#000000" fill-rule="nonzero" fill-opacity="1" /><path clip-path="url(#clip730)" d="M51.9875 1049.29 L81.6633 1049.29 L81.6633 1053.23 L51.9875 1053.23 L51.9875 1049.29 Z" fill="#000000" fill-rule="nonzero" fill-opacity="1" /><path clip-path="url(#clip730)" d="M101.756 1034.64 Q98.1447 1034.64 96.316 1038.2 Q94.5104 1041.75 94.5104 1048.88 Q94.5104 1055.98 96.316 1059.55 Q98.1447 1063.09 101.756 1063.09 Q105.39 1063.09 107.196 1059.55 Q109.024 1055.98 109.024 1048.88 Q109.024 1041.75 107.196 1038.2 Q105.39 1034.64 101.756 1034.64 M101.756 1030.94 Q107.566 1030.94 110.621 1035.54 Q113.7 1040.13 113.7 1048.88 Q113.7 1057.6 110.621 1062.21 Q107.566 1066.79 101.756 1066.79 Q95.9456 1066.79 92.8669 1062.21 Q89.8114 1057.6 89.8114 1048.88 Q89.8114 1040.13 92.8669 1035.54 Q95.9456 1030.94 101.756 1030.94 Z" fill="#000000" fill-rule="nonzero" fill-opacity="1" /><path clip-path="url(#clip730)" d="M121.918 1060.24 L126.802 1060.24 L126.802 1066.12 L121.918 1066.12 L121.918 1060.24 Z" fill="#000000" fill-rule="nonzero" fill-opacity="1" /><path clip-path="url(#clip730)" d="M137.033 1031.56 L155.39 1031.56 L155.39 1035.5 L141.316 1035.5 L141.316 1043.97 Q142.334 1043.62 143.353 1043.46 Q144.371 1043.27 145.39 1043.27 Q151.177 1043.27 154.556 1046.45 Q157.936 1049.62 157.936 1055.03 Q157.936 1060.61 154.464 1063.71 Q150.992 1066.79 144.672 1066.79 Q142.496 1066.79 140.228 1066.42 Q137.982 1066.05 135.575 1065.31 L135.575 1060.61 Q137.658 1061.75 139.881 1062.3 Q142.103 1062.86 144.58 1062.86 Q148.584 1062.86 150.922 1060.75 Q153.26 1058.64 153.26 1055.03 Q153.26 1051.42 150.922 1049.32 Q148.584 1047.21 144.58 1047.21 Q142.705 1047.21 140.83 1047.63 Q138.978 1048.04 137.033 1048.92 L137.033 1031.56 Z" fill="#000000" fill-rule="nonzero" fill-opacity="1" /><path clip-path="url(#clip730)" d="M100.76 733.779 Q97.1493 733.779 95.3206 737.344 Q93.515 740.886 93.515 748.015 Q93.515 755.122 95.3206 758.686 Q97.1493 762.228 100.76 762.228 Q104.395 762.228 106.2 758.686 Q108.029 755.122 108.029 748.015 Q108.029 740.886 106.2 737.344 Q104.395 733.779 100.76 733.779 M100.76 730.075 Q106.571 730.075 109.626 734.682 Q112.705 739.265 112.705 748.015 Q112.705 756.742 109.626 761.348 Q106.571 765.932 100.76 765.932 Q94.9502 765.932 91.8715 761.348 Q88.816 756.742 88.816 748.015 Q88.816 739.265 91.8715 734.682 Q94.9502 730.075 100.76 730.075 Z" fill="#000000" fill-rule="nonzero" fill-opacity="1" /><path clip-path="url(#clip730)" d="M120.922 759.381 L125.807 759.381 L125.807 765.26 L120.922 765.26 L120.922 759.381 Z" fill="#000000" fill-rule="nonzero" fill-opacity="1" /><path clip-path="url(#clip730)" d="M145.992 733.779 Q142.381 733.779 140.552 737.344 Q138.746 740.886 138.746 748.015 Q138.746 755.122 140.552 758.686 Q142.381 762.228 145.992 762.228 Q149.626 762.228 151.431 758.686 Q153.26 755.122 153.26 748.015 Q153.26 740.886 151.431 737.344 Q149.626 733.779 145.992 733.779 M145.992 730.075 Q151.802 730.075 154.857 734.682 Q157.936 739.265 157.936 748.015 Q157.936 756.742 154.857 761.348 Q151.802 765.932 145.992 765.932 Q140.181 765.932 137.103 761.348 Q134.047 756.742 134.047 748.015 Q134.047 739.265 137.103 734.682 Q140.181 730.075 145.992 730.075 Z" fill="#000000" fill-rule="nonzero" fill-opacity="1" /><path clip-path="url(#clip730)" d="M101.756 432.919 Q98.1447 432.919 96.316 436.483 Q94.5104 440.025 94.5104 447.155 Q94.5104 454.261 96.316 457.826 Q98.1447 461.368 101.756 461.368 Q105.39 461.368 107.196 457.826 Q109.024 454.261 109.024 447.155 Q109.024 440.025 107.196 436.483 Q105.39 432.919 101.756 432.919 M101.756 429.215 Q107.566 429.215 110.621 433.821 Q113.7 438.405 113.7 447.155 Q113.7 455.881 110.621 460.488 Q107.566 465.071 101.756 465.071 Q95.9456 465.071 92.8669 460.488 Q89.8114 455.881 89.8114 447.155 Q89.8114 438.405 92.8669 433.821 Q95.9456 429.215 101.756 429.215 Z" fill="#000000" fill-rule="nonzero" fill-opacity="1" /><path clip-path="url(#clip730)" d="M121.918 458.52 L126.802 458.52 L126.802 464.4 L121.918 464.4 L121.918 458.52 Z" fill="#000000" fill-rule="nonzero" fill-opacity="1" /><path clip-path="url(#clip730)" d="M137.033 429.84 L155.39 429.84 L155.39 433.775 L141.316 433.775 L141.316 442.247 Q142.334 441.9 143.353 441.738 Q144.371 441.553 145.39 441.553 Q151.177 441.553 154.556 444.724 Q157.936 447.895 157.936 453.312 Q157.936 458.891 154.464 461.993 Q150.992 465.071 144.672 465.071 Q142.496 465.071 140.228 464.701 Q137.982 464.331 135.575 463.59 L135.575 458.891 Q137.658 460.025 139.881 460.581 Q142.103 461.136 144.58 461.136 Q148.584 461.136 150.922 459.03 Q153.26 456.923 153.26 453.312 Q153.26 449.701 150.922 447.594 Q148.584 445.488 144.58 445.488 Q142.705 445.488 140.83 445.905 Q138.978 446.321 137.033 447.201 L137.033 429.84 Z" fill="#000000" fill-rule="nonzero" fill-opacity="1" /><path clip-path="url(#clip730)" d="M91.5706 159.604 L99.2095 159.604 L99.2095 133.239 L90.8993 134.905 L90.8993 130.646 L99.1632 128.979 L103.839 128.979 L103.839 159.604 L111.478 159.604 L111.478 163.539 L91.5706 163.539 L91.5706 159.604 Z" fill="#000000" fill-rule="nonzero" fill-opacity="1" /><path clip-path="url(#clip730)" d="M120.922 157.66 L125.807 157.66 L125.807 163.539 L120.922 163.539 L120.922 157.66 Z" fill="#000000" fill-rule="nonzero" fill-opacity="1" /><path clip-path="url(#clip730)" d="M145.992 132.058 Q142.381 132.058 140.552 135.623 Q138.746 139.165 138.746 146.294 Q138.746 153.401 140.552 156.965 Q142.381 160.507 145.992 160.507 Q149.626 160.507 151.431 156.965 Q153.26 153.401 153.26 146.294 Q153.26 139.165 151.431 135.623 Q149.626 132.058 145.992 132.058 M145.992 128.354 Q151.802 128.354 154.857 132.961 Q157.936 137.544 157.936 146.294 Q157.936 155.021 154.857 159.627 Q151.802 164.211 145.992 164.211 Q140.181 164.211 137.103 159.627 Q134.047 155.021 134.047 146.294 Q134.047 137.544 137.103 132.961 Q140.181 128.354 145.992 128.354 Z" fill="#000000" fill-rule="nonzero" fill-opacity="1" /><polyline clip-path="url(#clip732)" style="stroke:#009af9; stroke-linecap:round; stroke-linejoin:round; stroke-width:4; stroke-opacity:1; fill:none" points="255.035,747.98 258.278,741.963 261.521,735.947 264.764,729.932 268.007,723.918 271.25,717.907 274.493,711.899 277.736,705.894 280.979,699.894 284.222,693.899 287.465,687.909 290.708,681.925 293.951,675.947 297.194,669.977 300.437,664.014 303.68,658.06 306.923,652.115 310.166,646.18 313.409,640.255 316.652,634.34 319.895,628.437 323.138,622.546 326.381,616.667 329.624,610.802 332.867,604.95 336.11,599.112 339.353,593.29 342.596,587.483 345.84,581.691 349.083,575.917 352.326,570.16 355.569,564.42 358.812,558.699 362.055,552.997 365.298,547.314 368.541,541.652 371.784,536.01 375.027,530.389 378.27,524.79 381.513,519.213 384.756,513.659 387.999,508.129 391.242,502.622 394.485,497.141 397.728,491.684 400.971,486.253 404.214,480.848 407.457,475.469 410.7,470.118 413.943,464.795 417.186,459.5 420.429,454.234 423.672,448.997 426.915,443.79 430.158,438.614 433.401,433.469 436.644,428.355 439.887,423.273 443.13,418.223 446.373,413.206 449.616,408.223 452.859,403.274 456.103,398.359 459.346,393.48 462.589,388.635 465.832,383.827 469.075,379.055 472.318,374.32 475.561,369.622 478.804,364.963 482.047,360.341 485.29,355.758 488.533,351.215 491.776,346.711 495.019,342.247 498.262,337.824 501.505,333.442 504.748,329.101 507.991,324.802 511.234,320.546 514.477,316.332 517.72,312.162 520.963,308.035 524.206,303.952 527.449,299.913 530.692,295.919 533.935,291.971 537.178,288.068 540.421,284.211 543.664,280.4 546.907,276.636 550.15,272.919 553.393,269.25 556.636,265.629 559.879,262.056 563.122,258.531 566.366,255.056 569.609,251.629 572.852,248.253 576.095,244.926 579.338,241.65 582.581,238.424 585.824,235.249 589.067,232.126 592.31,229.054 595.553,226.034 598.796,223.066 602.039,220.15 605.282,217.288 608.525,214.478 611.768,211.722 615.011,209.02 618.254,206.371 621.497,203.777 624.74,201.237 627.983,198.751 631.226,196.321 634.469,193.945 637.712,191.626 640.955,189.361 644.198,187.153 647.441,185.001 650.684,182.905 653.927,180.865 657.17,178.882 660.413,176.956 663.656,175.088 666.899,173.276 670.142,171.522 673.385,169.826 676.629,168.187 679.872,166.607 683.115,165.084 686.358,163.62 689.601,162.214 692.844,160.867 696.087,159.579 699.33,158.349 702.573,157.179 705.816,156.067 709.059,155.015 712.302,154.022 715.545,153.088 718.788,152.214 722.031,151.399 725.274,150.644 728.517,149.949 731.76,149.314 735.003,148.738 738.246,148.222 741.489,147.767 744.732,147.371 747.975,147.036 751.218,146.76 754.461,146.545 757.704,146.39 760.947,146.295 764.19,146.26 767.433,146.285 770.676,146.37 773.919,146.516 777.162,146.722 780.405,146.988 783.648,147.314 786.892,147.7 790.135,148.146 793.378,148.652 796.621,149.218 799.864,149.844 803.107,150.529 806.35,151.275 809.593,152.08 812.836,152.945 816.079,153.869 819.322,154.853 822.565,155.895 825.808,156.998 829.051,158.159 832.294,159.379 835.537,160.658 838.78,161.996 842.023,163.392 845.266,164.847 848.509,166.36 851.752,167.932 854.995,169.561 858.238,171.248 861.481,172.993 864.724,174.795 867.967,176.655 871.21,178.572 874.453,180.546 877.696,182.576 880.939,184.663 884.182,186.806 887.425,189.006 890.668,191.261 893.911,193.572 897.155,195.939 900.398,198.36 903.641,200.837 906.884,203.368 910.127,205.954 913.37,208.594 916.613,211.288 919.856,214.036 923.099,216.837 926.342,219.691 929.585,222.598 932.828,225.558 936.071,228.569 939.314,231.633 942.557,234.748 945.8,237.915 949.043,241.133 952.286,244.401 955.529,247.72 958.772,251.088 962.015,254.507 965.258,257.974 968.501,261.491 971.744,265.057 974.987,268.67 978.23,272.332 981.473,276.041 984.716,279.797 987.959,283.601 991.202,287.45 994.445,291.346 997.688,295.287 1000.93,299.274 1004.17,303.305 1007.42,307.381 1010.66,311.501 1013.9,315.665 1017.15,319.872 1020.39,324.122 1023.63,328.414 1026.88,332.748 1030.12,337.123 1033.36,341.54 1036.6,345.997 1039.85,350.495 1043.09,355.032 1046.33,359.609 1049.58,364.224 1052.82,368.878 1056.06,373.569 1059.31,378.299 1062.55,383.065 1065.79,387.867 1069.04,392.706 1072.28,397.58 1075.52,402.489 1078.76,407.433 1082.01,412.41 1085.25,417.422 1088.49,422.466 1091.74,427.543 1094.98,432.652 1098.22,437.792 1101.47,442.964 1104.71,448.166 1107.95,453.398 1111.19,458.659 1114.44,463.95 1117.68,469.269 1120.92,474.615 1124.17,479.989 1127.41,485.39 1130.65,490.817 1133.9,496.27 1137.14,501.748 1140.38,507.25 1143.62,512.777 1146.87,518.327 1150.11,523.9 1153.35,529.496 1156.6,535.113 1159.84,540.752 1163.08,546.411 1166.33,552.091 1169.57,557.79 1172.81,563.508 1176.06,569.244 1179.3,574.999 1182.54,580.771 1185.78,586.559 1189.03,592.364 1192.27,598.184 1195.51,604.019 1198.76,609.869 1202,615.732 1205.24,621.609 1208.49,627.498 1211.73,633.399 1214.97,639.312 1218.21,645.236 1221.46,651.169 1224.7,657.113 1227.94,663.066 1231.19,669.027 1234.43,674.996 1237.67,680.972 1240.92,686.955 1244.16,692.944 1247.4,698.939 1250.64,704.938 1253.89,710.942 1257.13,716.95 1260.37,722.961 1263.62,728.974 1266.86,734.989 1270.1,741.005 1273.35,747.022 1276.59,753.039 1279.83,759.056 1283.08,765.071 1286.32,771.085 1289.56,777.097 1292.8,783.105 1296.05,789.111 1299.29,795.111 1302.53,801.108 1305.78,807.099 1309.02,813.084 1312.26,819.062 1315.51,825.034 1318.75,830.997 1321.99,836.953 1325.23,842.899 1328.48,848.836 1331.72,854.763 1334.96,860.68 1338.21,866.585 1341.45,872.478 1344.69,878.358 1347.94,884.226 1351.18,890.08 1354.42,895.92 1357.66,901.745 1360.91,907.555 1364.15,913.348 1367.39,919.125 1370.64,924.885 1373.88,930.628 1377.12,936.352 1380.37,942.057 1383.61,947.743 1386.85,953.409 1390.1,959.054 1393.34,964.678 1396.58,970.281 1399.82,975.861 1403.07,981.419 1406.31,986.953 1409.55,992.463 1412.8,997.949 1416.04,1003.41 1419.28,1008.85 1422.53,1014.25 1425.77,1019.64 1429.01,1024.99 1432.25,1030.32 1435.5,1035.62 1438.74,1040.89 1441.98,1046.13 1445.23,1051.34 1448.47,1056.52 1451.71,1061.67 1454.96,1066.79 1458.2,1071.88 1461.44,1076.94 1464.68,1081.96 1467.93,1086.95 1471.17,1091.9 1474.41,1096.82 1477.66,1101.71 1480.9,1106.56 1484.14,1111.37 1487.39,1116.15 1490.63,1120.89 1493.87,1125.59 1497.11,1130.26 1500.36,1134.89 1503.6,1139.48 1506.84,1144.03 1510.09,1148.54 1513.33,1153.01 1516.57,1157.44 1519.82,1161.82 1523.06,1166.17 1526.3,1170.48 1529.55,1174.74 1532.79,1178.96 1536.03,1183.14 1539.27,1187.27 1542.52,1191.36 1545.76,1195.41 1549,1199.41 1552.25,1203.36 1555.49,1207.27 1558.73,1211.14 1561.98,1214.96 1565.22,1218.73 1568.46,1222.45 1571.7,1226.13 1574.95,1229.76 1578.19,1233.34 1581.43,1236.87 1584.68,1240.36 1587.92,1243.79 1591.16,1247.17 1594.41,1250.51 1597.65,1253.79 1600.89,1257.03 1604.13,1260.21 1607.38,1263.34 1610.62,1266.42 1613.86,1269.45 1617.11,1272.43 1620.35,1275.35 1623.59,1278.22 1626.84,1281.04 1630.08,1283.8 1633.32,1286.51 1636.57,1289.17 1639.81,1291.77 1643.05,1294.32 1646.29,1296.82 1649.54,1299.26 1652.78,1301.64 1656.02,1303.97 1659.27,1306.24 1662.51,1308.46 1665.75,1310.62 1669,1312.73 1672.24,1314.77 1675.48,1316.77 1678.72,1318.7 1681.97,1320.58 1685.21,1322.4 1688.45,1324.16 1691.7,1325.87 1694.94,1327.52 1698.18,1329.11 1701.43,1330.64 1704.67,1332.11 1707.91,1333.53 1711.15,1334.88 1714.4,1336.18 1717.64,1337.42 1720.88,1338.6 1724.13,1339.72 1727.37,1340.78 1730.61,1341.79 1733.86,1342.73 1737.1,1343.61 1740.34,1344.44 1743.59,1345.2 1746.83,1345.91 1750.07,1346.55 1753.31,1347.14 1756.56,1347.66 1759.8,1348.13 1763.04,1348.53 1766.29,1348.88 1769.53,1349.16 1772.77,1349.39 1776.02,1349.55 1779.26,1349.66 1782.5,1349.7 1785.74,1349.68 1788.99,1349.61 1792.23,1349.47 1795.47,1349.28 1798.72,1349.02 1801.96,1348.7 1805.2,1348.33 1808.45,1347.89 1811.69,1347.39 1814.93,1346.84 1818.17,1346.22 1821.42,1345.54 1824.66,1344.81 1827.9,1344.01 1831.15,1343.16 1834.39,1342.24 1837.63,1341.27 1840.88,1340.24 1844.12,1339.14 1847.36,1337.99 1850.61,1336.78 1853.85,1335.51 1857.09,1334.18 1860.33,1332.79 1863.58,1331.35 1866.82,1329.85 1870.06,1328.28 1873.31,1326.66 1876.55,1324.99 1879.79,1323.25 1883.04,1321.46 1886.28,1319.61 1889.52,1317.7 1892.76,1315.73 1896.01,1313.71 1899.25,1311.63 1902.49,1309.5 1905.74,1307.31 1908.98,1305.06 1912.22,1302.76 1915.47,1300.4 1918.71,1297.99 1921.95,1295.52 1925.19,1293 1928.44,1290.42 1931.68,1287.79 1934.92,1285.11 1938.17,1282.37 1941.41,1279.57 1944.65,1276.73 1947.9,1273.83 1951.14,1270.88 1954.38,1267.87 1957.63,1264.82 1960.87,1261.71 1964.11,1258.55 1967.35,1255.34 1970.6,1252.08 1973.84,1248.77 1977.08,1245.41 1980.33,1242 1983.57,1238.54 1986.81,1235.03 1990.06,1231.48 1993.3,1227.87 1996.54,1224.22 1999.78,1220.51 2003.03,1216.76 2006.27,1212.97 2009.51,1209.13 2012.76,1205.24 2016,1201.3 2019.24,1197.32 2022.49,1193.3 2025.73,1189.23 2028.97,1185.12 2032.21,1180.96 2035.46,1176.76 2038.7,1172.52 2041.94,1168.23 2045.19,1163.91 2048.43,1159.54 2051.67,1155.13 2054.92,1150.68 2058.16,1146.19 2061.4,1141.65 2064.65,1137.08 2067.89,1132.47 2071.13,1127.83 2074.37,1123.14 2077.62,1118.42 2080.86,1113.66 2084.1,1108.86 2087.35,1104.03 2090.59,1099.16 2093.83,1094.26 2097.08,1089.32 2100.32,1084.35 2103.56,1079.34 2106.8,1074.3 2110.05,1069.23 2113.29,1064.12 2116.53,1058.99 2119.78,1053.82 2123.02,1048.63 2126.26,1043.4 2129.51,1038.14 2132.75,1032.86 2135.99,1027.54 2139.23,1022.2 2142.48,1016.83 2145.72,1011.43 2148.96,1006.01 2152.21,1000.56 2155.45,995.087 2158.69,989.589 2161.94,984.066 2165.18,978.519 2168.42,972.95 2171.67,967.358 2174.91,961.744 2178.15,956.109 2181.39,950.453 2184.64,944.776 2187.88,939.08 2191.12,933.365 2194.37,927.631 2197.61,921.88 2200.85,916.111 2204.1,910.325 2207.34,904.523 2210.58,898.705 2213.82,892.872 2217.07,887.025 2220.31,881.164 2223.55,875.289 2226.8,869.402 2230.04,863.502 2233.28,857.591 2236.53,851.67 2239.77,845.737 2243.01,839.795 2246.25,833.844 2249.5,827.884 2252.74,821.916 2255.98,815.941 2259.23,809.959 2262.47,803.971 2265.71,797.977 2268.96,791.978 2272.2,785.975 2275.44,779.968 2278.69,773.958 2281.93,767.945 2285.17,761.93 2288.41,755.914 2291.66,749.897 "/>
<circle clip-path="url(#clip732)" cx="1111.19" cy="514.486" r="14.4" fill="#e26f46" fill-rule="evenodd" fill-opacity="1" stroke="#000000" stroke-opacity="1" stroke-width="3.2"/>
<circle clip-path="url(#clip732)" cx="786.892" cy="283.018" r="14.4" fill="#e26f46" fill-rule="evenodd" fill-opacity="1" stroke="#000000" stroke-opacity="1" stroke-width="3.2"/>
<circle clip-path="url(#clip732)" cx="955.529" cy="335.71" r="14.4" fill="#e26f46" fill-rule="evenodd" fill-opacity="1" stroke="#000000" stroke-opacity="1" stroke-width="3.2"/>
<circle clip-path="url(#clip732)" cx="773.919" cy="87.9763" r="14.4" fill="#e26f46" fill-rule="evenodd" fill-opacity="1" stroke="#000000" stroke-opacity="1" stroke-width="3.2"/>
<circle clip-path="url(#clip732)" cx="936.071" cy="93.844" r="14.4" fill="#e26f46" fill-rule="evenodd" fill-opacity="1" stroke="#000000" stroke-opacity="1" stroke-width="3.2"/>
<circle clip-path="url(#clip732)" cx="1737.1" cy="1445.72" r="14.4" fill="#e26f46" fill-rule="evenodd" fill-opacity="1" stroke="#000000" stroke-opacity="1" stroke-width="3.2"/>
<circle clip-path="url(#clip732)" cx="2165.18" cy="849.498" r="14.4" fill="#e26f46" fill-rule="evenodd" fill-opacity="1" stroke="#000000" stroke-opacity="1" stroke-width="3.2"/>
<circle clip-path="url(#clip732)" cx="1069.04" cy="496.752" r="14.4" fill="#e26f46" fill-rule="evenodd" fill-opacity="1" stroke="#000000" stroke-opacity="1" stroke-width="3.2"/>
<circle clip-path="url(#clip732)" cx="939.314" cy="366.05" r="14.4" fill="#e26f46" fill-rule="evenodd" fill-opacity="1" stroke="#000000" stroke-opacity="1" stroke-width="3.2"/>
<circle clip-path="url(#clip732)" cx="1711.15" cy="1421.31" r="14.4" fill="#e26f46" fill-rule="evenodd" fill-opacity="1" stroke="#000000" stroke-opacity="1" stroke-width="3.2"/>
<circle clip-path="url(#clip732)" cx="1033.36" cy="355.097" r="14.4" fill="#e26f46" fill-rule="evenodd" fill-opacity="1" stroke="#000000" stroke-opacity="1" stroke-width="3.2"/>
<circle clip-path="url(#clip732)" cx="2129.51" cy="1105.72" r="14.4" fill="#e26f46" fill-rule="evenodd" fill-opacity="1" stroke="#000000" stroke-opacity="1" stroke-width="3.2"/>
<circle clip-path="url(#clip732)" cx="339.353" cy="527.418" r="14.4" fill="#e26f46" fill-rule="evenodd" fill-opacity="1" stroke="#000000" stroke-opacity="1" stroke-width="3.2"/>
<circle clip-path="url(#clip732)" cx="1795.47" cy="1204.51" r="14.4" fill="#e26f46" fill-rule="evenodd" fill-opacity="1" stroke="#000000" stroke-opacity="1" stroke-width="3.2"/>
<circle clip-path="url(#clip732)" cx="1688.45" cy="1416.1" r="14.4" fill="#e26f46" fill-rule="evenodd" fill-opacity="1" stroke="#000000" stroke-opacity="1" stroke-width="3.2"/>
<circle clip-path="url(#clip732)" cx="1059.31" cy="455.127" r="14.4" fill="#e26f46" fill-rule="evenodd" fill-opacity="1" stroke="#000000" stroke-opacity="1" stroke-width="3.2"/>
<circle clip-path="url(#clip732)" cx="1925.19" cy="1318.18" r="14.4" fill="#e26f46" fill-rule="evenodd" fill-opacity="1" stroke="#000000" stroke-opacity="1" stroke-width="3.2"/>
<circle clip-path="url(#clip732)" cx="527.449" cy="332.57" r="14.4" fill="#e26f46" fill-rule="evenodd" fill-opacity="1" stroke="#000000" stroke-opacity="1" stroke-width="3.2"/>
<circle clip-path="url(#clip732)" cx="657.17" cy="153.631" r="14.4" fill="#e26f46" fill-rule="evenodd" fill-opacity="1" stroke="#000000" stroke-opacity="1" stroke-width="3.2"/>
<circle clip-path="url(#clip732)" cx="1296.05" cy="824.374" r="14.4" fill="#e26f46" fill-rule="evenodd" fill-opacity="1" stroke="#000000" stroke-opacity="1" stroke-width="3.2"/>
<path clip-path="url(#clip730)" d="M1953.46 250.738 L2280.8 250.738 L2280.8 95.2176 L1953.46 95.2176  Z" fill="#ffffff" fill-rule="evenodd" fill-opacity="1"/>
<polyline clip-path="url(#clip730)" style="stroke:#000000; stroke-linecap:round; stroke-linejoin:round; stroke-width:4; stroke-opacity:1; fill:none" points="1953.46,250.738 2280.8,250.738 2280.8,95.2176 1953.46,95.2176 1953.46,250.738 "/>
<polyline clip-path="url(#clip730)" style="stroke:#009af9; stroke-linecap:round; stroke-linejoin:round; stroke-width:4; stroke-opacity:1; fill:none" points="1977.44,147.058 2121.36,147.058 "/>
<path clip-path="url(#clip730)" d="M2152.76 131.051 L2152.76 138.412 L2161.53 138.412 L2161.53 141.722 L2152.76 141.722 L2152.76 155.796 Q2152.76 158.967 2153.61 159.87 Q2154.49 160.773 2157.16 160.773 L2161.53 160.773 L2161.53 164.338 L2157.16 164.338 Q2152.23 164.338 2150.35 162.509 Q2148.48 160.657 2148.48 155.796 L2148.48 141.722 L2145.35 141.722 L2145.35 138.412 L2148.48 138.412 L2148.48 131.051 L2152.76 131.051 Z" fill="#000000" fill-rule="nonzero" fill-opacity="1" /><path clip-path="url(#clip730)" d="M2182.16 142.393 Q2181.44 141.977 2180.58 141.791 Q2179.75 141.583 2178.73 141.583 Q2175.12 141.583 2173.17 143.944 Q2171.25 146.282 2171.25 150.68 L2171.25 164.338 L2166.97 164.338 L2166.97 138.412 L2171.25 138.412 L2171.25 142.44 Q2172.6 140.078 2174.75 138.944 Q2176.9 137.787 2179.98 137.787 Q2180.42 137.787 2180.95 137.856 Q2181.48 137.903 2182.13 138.018 L2182.16 142.393 Z" fill="#000000" fill-rule="nonzero" fill-opacity="1" /><path clip-path="url(#clip730)" d="M2186.18 154.106 L2186.18 138.412 L2190.44 138.412 L2190.44 153.944 Q2190.44 157.625 2191.88 159.476 Q2193.31 161.305 2196.18 161.305 Q2199.63 161.305 2201.62 159.106 Q2203.64 156.907 2203.64 153.111 L2203.64 138.412 L2207.9 138.412 L2207.9 164.338 L2203.64 164.338 L2203.64 160.356 Q2202.09 162.717 2200.03 163.875 Q2197.99 165.009 2195.28 165.009 Q2190.81 165.009 2188.5 162.231 Q2186.18 159.453 2186.18 154.106 M2196.9 137.787 L2196.9 137.787 Z" fill="#000000" fill-rule="nonzero" fill-opacity="1" /><path clip-path="url(#clip730)" d="M2220.88 131.051 L2220.88 138.412 L2229.66 138.412 L2229.66 141.722 L2220.88 141.722 L2220.88 155.796 Q2220.88 158.967 2221.74 159.87 Q2222.62 160.773 2225.28 160.773 L2229.66 160.773 L2229.66 164.338 L2225.28 164.338 Q2220.35 164.338 2218.48 162.509 Q2216.6 160.657 2216.6 155.796 L2216.6 141.722 L2213.48 141.722 L2213.48 138.412 L2216.6 138.412 L2216.6 131.051 L2220.88 131.051 Z" fill="#000000" fill-rule="nonzero" fill-opacity="1" /><path clip-path="url(#clip730)" d="M2256.81 148.689 L2256.81 164.338 L2252.55 164.338 L2252.55 148.828 Q2252.55 145.148 2251.11 143.319 Q2249.68 141.49 2246.81 141.49 Q2243.36 141.49 2241.37 143.69 Q2239.38 145.889 2239.38 149.685 L2239.38 164.338 L2235.1 164.338 L2235.1 128.319 L2239.38 128.319 L2239.38 142.44 Q2240.91 140.102 2242.97 138.944 Q2245.05 137.787 2247.76 137.787 Q2252.23 137.787 2254.52 140.565 Q2256.81 143.319 2256.81 148.689 Z" fill="#000000" fill-rule="nonzero" fill-opacity="1" /><circle clip-path="url(#clip730)" cx="2049.4" cy="198.898" r="20.48" fill="#e26f46" fill-rule="evenodd" fill-opacity="1" stroke="#000000" stroke-opacity="1" stroke-width="4.55111"/>
<path clip-path="url(#clip730)" d="M2164.26 194.187 L2164.26 180.159 L2168.52 180.159 L2168.52 216.178 L2164.26 216.178 L2164.26 212.289 Q2162.92 214.603 2160.86 215.738 Q2158.82 216.849 2155.95 216.849 Q2151.25 216.849 2148.29 213.099 Q2145.35 209.349 2145.35 203.238 Q2145.35 197.127 2148.29 193.377 Q2151.25 189.627 2155.95 189.627 Q2158.82 189.627 2160.86 190.761 Q2162.92 191.872 2164.26 194.187 M2149.75 203.238 Q2149.75 207.937 2151.67 210.622 Q2153.61 213.284 2156.99 213.284 Q2160.37 213.284 2162.32 210.622 Q2164.26 207.937 2164.26 203.238 Q2164.26 198.539 2162.32 195.877 Q2160.37 193.192 2156.99 193.192 Q2153.61 193.192 2151.67 195.877 Q2149.75 198.539 2149.75 203.238 Z" fill="#000000" fill-rule="nonzero" fill-opacity="1" /><path clip-path="url(#clip730)" d="M2189.08 203.145 Q2183.92 203.145 2181.92 204.326 Q2179.93 205.506 2179.93 208.354 Q2179.93 210.622 2181.42 211.965 Q2182.92 213.284 2185.49 213.284 Q2189.03 213.284 2191.16 210.784 Q2193.31 208.261 2193.31 204.094 L2193.31 203.145 L2189.08 203.145 M2197.57 201.386 L2197.57 216.178 L2193.31 216.178 L2193.31 212.242 Q2191.85 214.603 2189.68 215.738 Q2187.5 216.849 2184.36 216.849 Q2180.37 216.849 2178.01 214.627 Q2175.67 212.381 2175.67 208.631 Q2175.67 204.256 2178.59 202.034 Q2181.53 199.812 2187.34 199.812 L2193.31 199.812 L2193.31 199.395 Q2193.31 196.455 2191.37 194.858 Q2189.45 193.238 2185.95 193.238 Q2183.73 193.238 2181.62 193.77 Q2179.52 194.303 2177.57 195.367 L2177.57 191.432 Q2179.91 190.53 2182.11 190.09 Q2184.31 189.627 2186.39 189.627 Q2192.02 189.627 2194.79 192.543 Q2197.57 195.46 2197.57 201.386 Z" fill="#000000" fill-rule="nonzero" fill-opacity="1" /><path clip-path="url(#clip730)" d="M2210.56 182.891 L2210.56 190.252 L2219.33 190.252 L2219.33 193.562 L2210.56 193.562 L2210.56 207.636 Q2210.56 210.807 2211.42 211.71 Q2212.29 212.613 2214.96 212.613 L2219.33 212.613 L2219.33 216.178 L2214.96 216.178 Q2210.03 216.178 2208.15 214.349 Q2206.28 212.497 2206.28 207.636 L2206.28 193.562 L2203.15 193.562 L2203.15 190.252 L2206.28 190.252 L2206.28 182.891 L2210.56 182.891 Z" fill="#000000" fill-rule="nonzero" fill-opacity="1" /><path clip-path="url(#clip730)" d="M2236.72 203.145 Q2231.55 203.145 2229.56 204.326 Q2227.57 205.506 2227.57 208.354 Q2227.57 210.622 2229.05 211.965 Q2230.56 213.284 2233.13 213.284 Q2236.67 213.284 2238.8 210.784 Q2240.95 208.261 2240.95 204.094 L2240.95 203.145 L2236.72 203.145 M2245.21 201.386 L2245.21 216.178 L2240.95 216.178 L2240.95 212.242 Q2239.49 214.603 2237.32 215.738 Q2235.14 216.849 2231.99 216.849 Q2228.01 216.849 2225.65 214.627 Q2223.31 212.381 2223.31 208.631 Q2223.31 204.256 2226.23 202.034 Q2229.17 199.812 2234.98 199.812 L2240.95 199.812 L2240.95 199.395 Q2240.95 196.455 2239.01 194.858 Q2237.09 193.238 2233.59 193.238 Q2231.37 193.238 2229.26 193.77 Q2227.16 194.303 2225.21 195.367 L2225.21 191.432 Q2227.55 190.53 2229.75 190.09 Q2231.95 189.627 2234.03 189.627 Q2239.66 189.627 2242.43 192.543 Q2245.21 195.46 2245.21 201.386 Z" fill="#000000" fill-rule="nonzero" fill-opacity="1" /></svg>
