<?xml version="1.0" encoding="utf-8"?>
<svg xmlns="http://www.w3.org/2000/svg" xmlns:xlink="http://www.w3.org/1999/xlink" width="600" height="400" viewBox="0 0 2400 1600">
<defs>
  <clipPath id="clip090">
    <rect x="0" y="0" width="2400" height="1600"/>
  </clipPath>
</defs>
<path clip-path="url(#clip090)" d="M0 1600 L2400 1600 L2400 0 L0 0  Z" fill="#ffffff" fill-rule="evenodd" fill-opacity="1"/>
<defs>
  <clipPath id="clip091">
    <rect x="480" y="0" width="1681" height="1600"/>
  </clipPath>
</defs>
<path clip-path="url(#clip090)" d="M193.936 1486.45 L2352.76 1486.45 L2352.76 47.2441 L193.936 47.2441  Z" fill="#ffffff" fill-rule="evenodd" fill-opacity="1"/>
<defs>
  <clipPath id="clip092">
    <rect x="193" y="47" width="2160" height="1440"/>
  </clipPath>
</defs>
<polyline clip-path="url(#clip092)" style="stroke:#000000; stroke-linecap:round; stroke-linejoin:round; stroke-width:2; stroke-opacity:0.1; fill:none" points="255.035,1486.45 255.035,47.2441 "/>
<polyline clip-path="url(#clip092)" style="stroke:#000000; stroke-linecap:round; stroke-linejoin:round; stroke-width:2; stroke-opacity:0.1; fill:none" points="579.338,1486.45 579.338,47.2441 "/>
<polyline clip-path="url(#clip092)" style="stroke:#000000; stroke-linecap:round; stroke-linejoin:round; stroke-width:2; stroke-opacity:0.1; fill:none" points="903.641,1486.45 903.641,47.2441 "/>
<polyline clip-path="url(#clip092)" style="stroke:#000000; stroke-linecap:round; stroke-linejoin:round; stroke-width:2; stroke-opacity:0.1; fill:none" points="1227.94,1486.45 1227.94,47.2441 "/>
<polyline clip-path="url(#clip092)" style="stroke:#000000; stroke-linecap:round; stroke-linejoin:round; stroke-width:2; stroke-opacity:0.1; fill:none" points="1552.25,1486.45 1552.25,47.2441 "/>
<polyline clip-path="url(#clip092)" style="stroke:#000000; stroke-linecap:round; stroke-linejoin:round; stroke-width:2; stroke-opacity:0.1; fill:none" points="1876.55,1486.45 1876.55,47.2441 "/>
<polyline clip-path="url(#clip092)" style="stroke:#000000; stroke-linecap:round; stroke-linejoin:round; stroke-width:2; stroke-opacity:0.1; fill:none" points="2200.85,1486.45 2200.85,47.2441 "/>
<polyline clip-path="url(#clip092)" style="stroke:#000000; stroke-linecap:round; stroke-linejoin:round; stroke-width:2; stroke-opacity:0.1; fill:none" points="193.936,1422.28 2352.76,1422.28 "/>
<polyline clip-path="url(#clip092)" style="stroke:#000000; stroke-linecap:round; stroke-linejoin:round; stroke-width:2; stroke-opacity:0.1; fill:none" points="193.936,1088.71 2352.76,1088.71 "/>
<polyline clip-path="url(#clip092)" style="stroke:#000000; stroke-linecap:round; stroke-linejoin:round; stroke-width:2; stroke-opacity:0.1; fill:none" points="193.936,755.13 2352.76,755.13 "/>
<polyline clip-path="url(#clip092)" style="stroke:#000000; stroke-linecap:round; stroke-linejoin:round; stroke-width:2; stroke-opacity:0.1; fill:none" points="193.936,421.553 2352.76,421.553 "/>
<polyline clip-path="url(#clip092)" style="stroke:#000000; stroke-linecap:round; stroke-linejoin:round; stroke-width:2; stroke-opacity:0.1; fill:none" points="193.936,87.9761 2352.76,87.9761 "/>
<polyline clip-path="url(#clip090)" style="stroke:#000000; stroke-linecap:round; stroke-linejoin:round; stroke-width:4; stroke-opacity:1; fill:none" points="193.936,1486.45 2352.76,1486.45 "/>
<polyline clip-path="url(#clip090)" style="stroke:#000000; stroke-linecap:round; stroke-linejoin:round; stroke-width:4; stroke-opacity:1; fill:none" points="255.035,1486.45 255.035,1467.55 "/>
<polyline clip-path="url(#clip090)" style="stroke:#000000; stroke-linecap:round; stroke-linejoin:round; stroke-width:4; stroke-opacity:1; fill:none" points="579.338,1486.45 579.338,1467.55 "/>
<polyline clip-path="url(#clip090)" style="stroke:#000000; stroke-linecap:round; stroke-linejoin:round; stroke-width:4; stroke-opacity:1; fill:none" points="903.641,1486.45 903.641,1467.55 "/>
<polyline clip-path="url(#clip090)" style="stroke:#000000; stroke-linecap:round; stroke-linejoin:round; stroke-width:4; stroke-opacity:1; fill:none" points="1227.94,1486.45 1227.94,1467.55 "/>
<polyline clip-path="url(#clip090)" style="stroke:#000000; stroke-linecap:round; stroke-linejoin:round; stroke-width:4; stroke-opacity:1; fill:none" points="1552.25,1486.45 1552.25,1467.55 "/>
<polyline clip-path="url(#clip090)" style="stroke:#000000; stroke-linecap:round; stroke-linejoin:round; stroke-width:4; stroke-opacity:1; fill:none" points="1876.55,1486.45 1876.55,1467.55 "/>
<polyline clip-path="url(#clip090)" style="stroke:#000000; stroke-linecap:round; stroke-linejoin:round; stroke-width:4; stroke-opacity:1; fill:none" points="2200.85,1486.45 2200.85,1467.55 "/>
<path clip-path="url(#clip090)" d="M255.035 1517.37 Q251.424 1517.37 249.595 1520.93 Q247.789 1524.47 247.789 1531.6 Q247.789 1538.71 249.595 1542.27 Q251.424 1545.82 255.035 1545.82 Q258.669 1545.82 260.474 1542.27 Q262.303 1538.71 262.303 1531.6 Q262.303 1524.47 260.474 1520.93 Q258.669 1517.37 255.035 1517.37 M255.035 1513.66 Q260.845 1513.66 263.9 1518.27 Q266.979 1522.85 266.979 1531.6 Q266.979 1540.33 263.9 1544.94 Q260.845 1549.52 255.035 1549.52 Q249.225 1549.52 246.146 1544.94 Q243.09 1540.33 243.09 1531.6 Q243.09 1522.85 246.146 1518.27 Q249.225 1513.66 255.035 1513.66 Z" fill="#000000" fill-rule="nonzero" fill-opacity="1" /><path clip-path="url(#clip090)" d="M569.72 1544.91 L577.358 1544.91 L577.358 1518.55 L569.048 1520.21 L569.048 1515.95 L577.312 1514.29 L581.988 1514.29 L581.988 1544.91 L589.627 1544.91 L589.627 1548.85 L569.72 1548.85 L569.72 1544.91 Z" fill="#000000" fill-rule="nonzero" fill-opacity="1" /><path clip-path="url(#clip090)" d="M898.293 1544.91 L914.613 1544.91 L914.613 1548.85 L892.668 1548.85 L892.668 1544.91 Q895.33 1542.16 899.914 1537.53 Q904.52 1532.88 905.701 1531.53 Q907.946 1529.01 908.826 1527.27 Q909.729 1525.51 909.729 1523.82 Q909.729 1521.07 907.784 1519.33 Q905.863 1517.6 902.761 1517.6 Q900.562 1517.6 898.108 1518.36 Q895.678 1519.13 892.9 1520.68 L892.9 1515.95 Q895.724 1514.82 898.178 1514.24 Q900.631 1513.66 902.668 1513.66 Q908.039 1513.66 911.233 1516.35 Q914.428 1519.03 914.428 1523.52 Q914.428 1525.65 913.617 1527.57 Q912.83 1529.47 910.724 1532.07 Q910.145 1532.74 907.043 1535.95 Q903.942 1539.15 898.293 1544.91 Z" fill="#000000" fill-rule="nonzero" fill-opacity="1" /><path clip-path="url(#clip090)" d="M1232.19 1530.21 Q1235.55 1530.93 1237.42 1533.2 Q1239.32 1535.47 1239.32 1538.8 Q1239.32 1543.92 1235.8 1546.72 Q1232.28 1549.52 1225.8 1549.52 Q1223.63 1549.52 1221.31 1549.08 Q1219.02 1548.66 1216.57 1547.81 L1216.57 1543.29 Q1218.51 1544.43 1220.83 1545.01 Q1223.14 1545.58 1225.66 1545.58 Q1230.06 1545.58 1232.35 1543.85 Q1234.67 1542.11 1234.67 1538.8 Q1234.67 1535.75 1232.52 1534.03 Q1230.39 1532.3 1226.57 1532.3 L1222.54 1532.3 L1222.54 1528.45 L1226.75 1528.45 Q1230.2 1528.45 1232.03 1527.09 Q1233.86 1525.7 1233.86 1523.11 Q1233.86 1520.45 1231.96 1519.03 Q1230.08 1517.6 1226.57 1517.6 Q1224.64 1517.6 1222.45 1518.01 Q1220.25 1518.43 1217.61 1519.31 L1217.61 1515.14 Q1220.27 1514.4 1222.58 1514.03 Q1224.92 1513.66 1226.98 1513.66 Q1232.31 1513.66 1235.41 1516.09 Q1238.51 1518.5 1238.51 1522.62 Q1238.51 1525.49 1236.87 1527.48 Q1235.22 1529.45 1232.19 1530.21 Z" fill="#000000" fill-rule="nonzero" fill-opacity="1" /><path clip-path="url(#clip090)" d="M1555.26 1518.36 L1543.45 1536.81 L1555.26 1536.81 L1555.26 1518.36 M1554.03 1514.29 L1559.91 1514.29 L1559.91 1536.81 L1564.84 1536.81 L1564.84 1540.7 L1559.91 1540.7 L1559.91 1548.85 L1555.26 1548.85 L1555.26 1540.7 L1539.65 1540.7 L1539.65 1536.19 L1554.03 1514.29 Z" fill="#000000" fill-rule="nonzero" fill-opacity="1" /><path clip-path="url(#clip090)" d="M1866.83 1514.29 L1885.18 1514.29 L1885.18 1518.22 L1871.11 1518.22 L1871.11 1526.7 Q1872.13 1526.35 1873.15 1526.19 Q1874.17 1526 1875.18 1526 Q1880.97 1526 1884.35 1529.17 Q1887.73 1532.34 1887.73 1537.76 Q1887.73 1543.34 1884.26 1546.44 Q1880.79 1549.52 1874.47 1549.52 Q1872.29 1549.52 1870.02 1549.15 Q1867.78 1548.78 1865.37 1548.04 L1865.37 1543.34 Q1867.45 1544.47 1869.67 1545.03 Q1871.9 1545.58 1874.37 1545.58 Q1878.38 1545.58 1880.72 1543.48 Q1883.05 1541.37 1883.05 1537.76 Q1883.05 1534.15 1880.72 1532.04 Q1878.38 1529.94 1874.37 1529.94 Q1872.5 1529.94 1870.62 1530.35 Q1868.77 1530.77 1866.83 1531.65 L1866.83 1514.29 Z" fill="#000000" fill-rule="nonzero" fill-opacity="1" /><path clip-path="url(#clip090)" d="M2201.26 1529.7 Q2198.11 1529.7 2196.26 1531.86 Q2194.43 1534.01 2194.43 1537.76 Q2194.43 1541.49 2196.26 1543.66 Q2198.11 1545.82 2201.26 1545.82 Q2204.41 1545.82 2206.23 1543.66 Q2208.09 1541.49 2208.09 1537.76 Q2208.09 1534.01 2206.23 1531.86 Q2204.41 1529.7 2201.26 1529.7 M2210.54 1515.05 L2210.54 1519.31 Q2208.78 1518.48 2206.98 1518.04 Q2205.19 1517.6 2203.43 1517.6 Q2198.8 1517.6 2196.35 1520.72 Q2193.92 1523.85 2193.57 1530.17 Q2194.94 1528.15 2197 1527.09 Q2199.06 1526 2201.54 1526 Q2206.74 1526 2209.75 1529.17 Q2212.79 1532.32 2212.79 1537.76 Q2212.79 1543.08 2209.64 1546.3 Q2206.49 1549.52 2201.26 1549.52 Q2195.26 1549.52 2192.09 1544.94 Q2188.92 1540.33 2188.92 1531.6 Q2188.92 1523.41 2192.81 1518.55 Q2196.7 1513.66 2203.25 1513.66 Q2205.01 1513.66 2206.79 1514.01 Q2208.6 1514.36 2210.54 1515.05 Z" fill="#000000" fill-rule="nonzero" fill-opacity="1" /><polyline clip-path="url(#clip090)" style="stroke:#000000; stroke-linecap:round; stroke-linejoin:round; stroke-width:4; stroke-opacity:1; fill:none" points="193.936,1486.45 193.936,47.2441 "/>
<polyline clip-path="url(#clip090)" style="stroke:#000000; stroke-linecap:round; stroke-linejoin:round; stroke-width:4; stroke-opacity:1; fill:none" points="193.936,1422.28 212.834,1422.28 "/>
<polyline clip-path="url(#clip090)" style="stroke:#000000; stroke-linecap:round; stroke-linejoin:round; stroke-width:4; stroke-opacity:1; fill:none" points="193.936,1088.71 212.834,1088.71 "/>
<polyline clip-path="url(#clip090)" style="stroke:#000000; stroke-linecap:round; stroke-linejoin:round; stroke-width:4; stroke-opacity:1; fill:none" points="193.936,755.13 212.834,755.13 "/>
<polyline clip-path="url(#clip090)" style="stroke:#000000; stroke-linecap:round; stroke-linejoin:round; stroke-width:4; stroke-opacity:1; fill:none" points="193.936,421.553 212.834,421.553 "/>
<polyline clip-path="url(#clip090)" style="stroke:#000000; stroke-linecap:round; stroke-linejoin:round; stroke-width:4; stroke-opacity:1; fill:none" points="193.936,87.9761 212.834,87.9761 "/>
<path clip-path="url(#clip090)" d="M50.9921 1422.74 L80.6679 1422.74 L80.6679 1426.67 L50.9921 1426.67 L50.9921 1422.74 Z" fill="#000000" fill-rule="nonzero" fill-opacity="1" /><path clip-path="url(#clip090)" d="M91.5706 1435.63 L99.2095 1435.63 L99.2095 1409.26 L90.8993 1410.93 L90.8993 1406.67 L99.1632 1405 L103.839 1405 L103.839 1435.63 L111.478 1435.63 L111.478 1439.56 L91.5706 1439.56 L91.5706 1435.63 Z" fill="#000000" fill-rule="nonzero" fill-opacity="1" /><path clip-path="url(#clip090)" d="M120.922 1433.68 L125.807 1433.68 L125.807 1439.56 L120.922 1439.56 L120.922 1433.68 Z" fill="#000000" fill-rule="nonzero" fill-opacity="1" /><path clip-path="url(#clip090)" d="M145.992 1408.08 Q142.381 1408.08 140.552 1411.65 Q138.746 1415.19 138.746 1422.32 Q138.746 1429.43 140.552 1432.99 Q142.381 1436.53 145.992 1436.53 Q149.626 1436.53 151.431 1432.99 Q153.26 1429.43 153.26 1422.32 Q153.26 1415.19 151.431 1411.65 Q149.626 1408.08 145.992 1408.08 M145.992 1404.38 Q151.802 1404.38 154.857 1408.99 Q157.936 1413.57 157.936 1422.32 Q157.936 1431.05 154.857 1435.65 Q151.802 1440.24 145.992 1440.24 Q140.181 1440.24 137.103 1435.65 Q134.047 1431.05 134.047 1422.32 Q134.047 1413.57 137.103 1408.99 Q140.181 1404.38 145.992 1404.38 Z" fill="#000000" fill-rule="nonzero" fill-opacity="1" /><path clip-path="url(#clip090)" d="M51.9875 1089.16 L81.6633 1089.16 L81.6633 1093.09 L51.9875 1093.09 L51.9875 1089.16 Z" fill="#000000" fill-rule="nonzero" fill-opacity="1" /><path clip-path="url(#clip090)" d="M101.756 1074.51 Q98.1447 1074.51 96.316 1078.07 Q94.5104 1081.61 94.5104 1088.74 Q94.5104 1095.85 96.316 1099.41 Q98.1447 1102.95 101.756 1102.95 Q105.39 1102.95 107.196 1099.41 Q109.024 1095.85 109.024 1088.74 Q109.024 1081.61 107.196 1078.07 Q105.39 1074.51 101.756 1074.51 M101.756 1070.8 Q107.566 1070.8 110.621 1075.41 Q113.7 1079.99 113.7 1088.74 Q113.7 1097.47 110.621 1102.08 Q107.566 1106.66 101.756 1106.66 Q95.9456 1106.66 92.8669 1102.08 Q89.8114 1097.47 89.8114 1088.74 Q89.8114 1079.99 92.8669 1075.41 Q95.9456 1070.8 101.756 1070.8 Z" fill="#000000" fill-rule="nonzero" fill-opacity="1" /><path clip-path="url(#clip090)" d="M121.918 1100.11 L126.802 1100.11 L126.802 1105.99 L121.918 1105.99 L121.918 1100.11 Z" fill="#000000" fill-rule="nonzero" fill-opacity="1" /><path clip-path="url(#clip090)" d="M137.033 1071.43 L155.39 1071.43 L155.39 1075.36 L141.316 1075.36 L141.316 1083.83 Q142.334 1083.49 143.353 1083.33 Q144.371 1083.14 145.39 1083.14 Q151.177 1083.14 154.556 1086.31 Q157.936 1089.48 157.936 1094.9 Q157.936 1100.48 154.464 1103.58 Q150.992 1106.66 144.672 1106.66 Q142.496 1106.66 140.228 1106.29 Q137.982 1105.92 135.575 1105.18 L135.575 1100.48 Q137.658 1101.61 139.881 1102.17 Q142.103 1102.72 144.58 1102.72 Q148.584 1102.72 150.922 1100.62 Q153.26 1098.51 153.26 1094.9 Q153.26 1091.29 150.922 1089.18 Q148.584 1087.08 144.58 1087.08 Q142.705 1087.08 140.83 1087.49 Q138.978 1087.91 137.033 1088.79 L137.033 1071.43 Z" fill="#000000" fill-rule="nonzero" fill-opacity="1" /><path clip-path="url(#clip090)" d="M100.76 740.929 Q97.1493 740.929 95.3206 744.494 Q93.515 748.035 93.515 755.165 Q93.515 762.271 95.3206 765.836 Q97.1493 769.378 100.76 769.378 Q104.395 769.378 106.2 765.836 Q108.029 762.271 108.029 755.165 Q108.029 748.035 106.2 744.494 Q104.395 740.929 100.76 740.929 M100.76 737.225 Q106.571 737.225 109.626 741.832 Q112.705 746.415 112.705 755.165 Q112.705 763.892 109.626 768.498 Q106.571 773.081 100.76 773.081 Q94.9502 773.081 91.8715 768.498 Q88.816 763.892 88.816 755.165 Q88.816 746.415 91.8715 741.832 Q94.9502 737.225 100.76 737.225 Z" fill="#000000" fill-rule="nonzero" fill-opacity="1" /><path clip-path="url(#clip090)" d="M120.922 766.531 L125.807 766.531 L125.807 772.41 L120.922 772.41 L120.922 766.531 Z" fill="#000000" fill-rule="nonzero" fill-opacity="1" /><path clip-path="url(#clip090)" d="M145.992 740.929 Q142.381 740.929 140.552 744.494 Q138.746 748.035 138.746 755.165 Q138.746 762.271 140.552 765.836 Q142.381 769.378 145.992 769.378 Q149.626 769.378 151.431 765.836 Q153.26 762.271 153.26 755.165 Q153.26 748.035 151.431 744.494 Q149.626 740.929 145.992 740.929 M145.992 737.225 Q151.802 737.225 154.857 741.832 Q157.936 746.415 157.936 755.165 Q157.936 763.892 154.857 768.498 Q151.802 773.081 145.992 773.081 Q140.181 773.081 137.103 768.498 Q134.047 763.892 134.047 755.165 Q134.047 746.415 137.103 741.832 Q140.181 737.225 145.992 737.225 Z" fill="#000000" fill-rule="nonzero" fill-opacity="1" /><path clip-path="url(#clip090)" d="M101.756 407.352 Q98.1447 407.352 96.316 410.917 Q94.5104 414.458 94.5104 421.588 Q94.5104 428.694 96.316 432.259 Q98.1447 435.801 101.756 435.801 Q105.39 435.801 107.196 432.259 Q109.024 428.694 109.024 421.588 Q109.024 414.458 107.196 410.917 Q105.39 407.352 101.756 407.352 M101.756 403.648 Q107.566 403.648 110.621 408.255 Q113.7 412.838 113.7 421.588 Q113.7 430.315 110.621 434.921 Q107.566 439.504 101.756 439.504 Q95.9456 439.504 92.8669 434.921 Q89.8114 430.315 89.8114 421.588 Q89.8114 412.838 92.8669 408.255 Q95.9456 403.648 101.756 403.648 Z" fill="#000000" fill-rule="nonzero" fill-opacity="1" /><path clip-path="url(#clip090)" d="M121.918 432.954 L126.802 432.954 L126.802 438.833 L121.918 438.833 L121.918 432.954 Z" fill="#000000" fill-rule="nonzero" fill-opacity="1" /><path clip-path="url(#clip090)" d="M137.033 404.273 L155.39 404.273 L155.39 408.208 L141.316 408.208 L141.316 416.68 Q142.334 416.333 143.353 416.171 Q144.371 415.986 145.39 415.986 Q151.177 415.986 154.556 419.157 Q157.936 422.329 157.936 427.745 Q157.936 433.324 154.464 436.426 Q150.992 439.504 144.672 439.504 Q142.496 439.504 140.228 439.134 Q137.982 438.764 135.575 438.023 L135.575 433.324 Q137.658 434.458 139.881 435.014 Q142.103 435.569 144.58 435.569 Q148.584 435.569 150.922 433.463 Q153.26 431.356 153.26 427.745 Q153.26 424.134 150.922 422.028 Q148.584 419.921 144.58 419.921 Q142.705 419.921 140.83 420.338 Q138.978 420.755 137.033 421.634 L137.033 404.273 Z" fill="#000000" fill-rule="nonzero" fill-opacity="1" /><path clip-path="url(#clip090)" d="M91.5706 101.321 L99.2095 101.321 L99.2095 74.9553 L90.8993 76.622 L90.8993 72.3627 L99.1632 70.6961 L103.839 70.6961 L103.839 101.321 L111.478 101.321 L111.478 105.256 L91.5706 105.256 L91.5706 101.321 Z" fill="#000000" fill-rule="nonzero" fill-opacity="1" /><path clip-path="url(#clip090)" d="M120.922 99.3765 L125.807 99.3765 L125.807 105.256 L120.922 105.256 L120.922 99.3765 Z" fill="#000000" fill-rule="nonzero" fill-opacity="1" /><path clip-path="url(#clip090)" d="M145.992 73.7748 Q142.381 73.7748 140.552 77.3395 Q138.746 80.8812 138.746 88.0108 Q138.746 95.1172 140.552 98.682 Q142.381 102.224 145.992 102.224 Q149.626 102.224 151.431 98.682 Q153.26 95.1172 153.26 88.0108 Q153.26 80.8812 151.431 77.3395 Q149.626 73.7748 145.992 73.7748 M145.992 70.0711 Q151.802 70.0711 154.857 74.6775 Q157.936 79.2608 157.936 88.0108 Q157.936 96.7376 154.857 101.344 Q151.802 105.927 145.992 105.927 Q140.181 105.927 137.103 101.344 Q134.047 96.7376 134.047 88.0108 Q134.047 79.2608 137.103 74.6775 Q140.181 70.0711 145.992 70.0711 Z" fill="#000000" fill-rule="nonzero" fill-opacity="1" /><polyline clip-path="url(#clip092)" style="stroke:#009af9; stroke-linecap:round; stroke-linejoin:round; stroke-width:4; stroke-opacity:1; fill:none" points="255.035,755.13 258.278,748.459 261.521,741.788 264.764,735.119 268.007,728.451 271.25,721.786 274.493,715.125 277.736,708.468 280.979,701.815 284.222,695.167 287.465,688.526 290.708,681.891 293.951,675.264 297.194,668.644 300.437,662.033 303.68,655.432 306.923,648.84 310.166,642.259 313.409,635.69 316.652,629.132 319.895,622.587 323.138,616.055 326.381,609.537 329.624,603.034 332.867,596.546 336.11,590.074 339.353,583.618 342.596,577.179 345.84,570.758 349.083,564.356 352.326,557.973 355.569,551.609 358.812,545.266 362.055,538.944 365.298,532.643 368.541,526.364 371.784,520.109 375.027,513.877 378.27,507.669 381.513,501.486 384.756,495.328 387.999,489.196 391.242,483.091 394.485,477.013 397.728,470.963 400.971,464.941 404.214,458.948 407.457,452.985 410.7,447.052 413.943,441.15 417.186,435.279 420.429,429.441 423.672,423.635 426.915,417.862 430.158,412.122 433.401,406.417 436.644,400.747 439.887,395.112 443.13,389.514 446.373,383.952 449.616,378.427 452.859,372.939 456.103,367.49 459.346,362.08 462.589,356.709 465.832,351.378 469.075,346.087 472.318,340.837 475.561,335.628 478.804,330.462 482.047,325.338 485.29,320.257 488.533,315.219 491.776,310.225 495.019,305.276 498.262,300.372 501.505,295.513 504.748,290.701 507.991,285.934 511.234,281.215 514.477,276.543 517.72,271.919 520.963,267.343 524.206,262.816 527.449,258.338 530.692,253.91 533.935,249.532 537.178,245.205 540.421,240.929 543.664,236.704 546.907,232.53 550.15,228.41 553.393,224.341 556.636,220.326 559.879,216.364 563.122,212.457 566.366,208.603 569.609,204.804 572.852,201.06 576.095,197.372 579.338,193.739 582.581,190.163 585.824,186.643 589.067,183.18 592.31,179.774 595.553,176.425 598.796,173.135 602.039,169.902 605.282,166.728 608.525,163.613 611.768,160.558 615.011,157.561 618.254,154.624 621.497,151.748 624.74,148.932 627.983,146.176 631.226,143.481 634.469,140.848 637.712,138.275 640.955,135.765 644.198,133.316 647.441,130.93 650.684,128.606 653.927,126.345 657.17,124.146 660.413,122.011 663.656,119.939 666.899,117.931 670.142,115.986 673.385,114.105 676.629,112.288 679.872,110.536 683.115,108.848 686.358,107.225 689.601,105.666 692.844,104.172 696.087,102.744 699.33,101.38 702.573,100.083 705.816,98.8501 709.059,97.6833 712.302,96.5823 715.545,95.5471 718.788,94.5778 722.031,93.6747 725.274,92.8376 728.517,92.0668 731.76,91.3623 735.003,90.7242 738.246,90.1525 741.489,89.6473 744.732,89.2087 747.975,88.8366 751.218,88.5312 754.461,88.2924 757.704,88.1203 760.947,88.0149 764.19,87.9763 767.433,88.0043 770.676,88.0991 773.919,88.2605 777.162,88.4887 780.405,88.7835 783.648,89.1449 786.892,89.573 790.135,90.0676 793.378,90.6287 796.621,91.2562 799.864,91.9502 803.107,92.7104 806.35,93.5369 809.593,94.4296 812.836,95.3883 816.079,96.413 819.322,97.5036 822.565,98.6599 825.808,99.8819 829.051,101.169 832.294,102.522 835.537,103.94 838.78,105.424 842.023,106.972 845.266,108.585 848.509,110.263 851.752,112.005 854.995,113.811 858.238,115.682 861.481,117.617 864.724,119.615 867.967,121.677 871.21,123.802 874.453,125.991 877.696,128.242 880.939,130.556 884.182,132.932 887.425,135.371 890.668,137.872 893.911,140.434 897.155,143.058 900.398,145.743 903.641,148.489 906.884,151.295 910.127,154.162 913.37,157.089 916.613,160.076 919.856,163.123 923.099,166.228 926.342,169.393 929.585,172.616 932.828,175.897 936.071,179.236 939.314,182.633 942.557,186.087 945.8,189.598 949.043,193.166 952.286,196.79 955.529,200.469 958.772,204.204 962.015,207.994 965.258,211.839 968.501,215.738 971.744,219.692 974.987,223.698 978.23,227.758 981.473,231.871 984.716,236.035 987.959,240.252 991.202,244.52 994.445,248.84 997.688,253.21 1000.93,257.63 1004.17,262.1 1007.42,266.619 1010.66,271.187 1013.9,275.803 1017.15,280.468 1020.39,285.18 1023.63,289.938 1026.88,294.744 1030.12,299.595 1033.36,304.492 1036.6,309.434 1039.85,314.421 1043.09,319.451 1046.33,324.526 1049.58,329.643 1052.82,334.803 1056.06,340.005 1059.31,345.248 1062.55,350.532 1065.79,355.857 1069.04,361.222 1072.28,366.626 1075.52,372.069 1078.76,377.55 1082.01,383.069 1085.25,388.625 1088.49,394.218 1091.74,399.847 1094.98,405.512 1098.22,411.211 1101.47,416.945 1104.71,422.713 1107.95,428.514 1111.19,434.347 1114.44,440.213 1117.68,446.11 1120.92,452.038 1124.17,457.997 1127.41,463.985 1130.65,470.002 1133.9,476.048 1137.14,482.121 1140.38,488.222 1143.62,494.35 1146.87,500.503 1150.11,506.683 1153.35,512.887 1156.6,519.115 1159.84,525.367 1163.08,531.641 1166.33,537.939 1169.57,544.257 1172.81,550.597 1176.06,556.958 1179.3,563.338 1182.54,569.737 1185.78,576.155 1189.03,582.591 1192.27,589.044 1195.51,595.514 1198.76,602 1202,608.501 1205.24,615.016 1208.49,621.546 1211.73,628.089 1214.97,634.645 1218.21,641.212 1221.46,647.792 1224.7,654.381 1227.94,660.981 1231.19,667.591 1234.43,674.209 1237.67,680.835 1240.92,687.469 1244.16,694.109 1247.4,700.756 1250.64,707.408 1253.89,714.064 1257.13,720.725 1260.37,727.389 1263.62,734.057 1266.86,740.726 1270.1,747.396 1273.35,754.068 1276.59,760.739 1279.83,767.41 1283.08,774.08 1286.32,780.747 1289.56,787.413 1292.8,794.075 1296.05,800.733 1299.29,807.386 1302.53,814.035 1305.78,820.677 1309.02,827.313 1312.26,833.942 1315.51,840.562 1318.75,847.175 1321.99,853.778 1325.23,860.371 1328.48,866.954 1331.72,873.525 1334.96,880.085 1338.21,886.632 1341.45,893.166 1344.69,899.686 1347.94,906.192 1351.18,912.682 1354.42,919.157 1357.66,925.615 1360.91,932.057 1364.15,938.481 1367.39,944.886 1370.64,951.272 1373.88,957.639 1377.12,963.986 1380.37,970.311 1383.61,976.615 1386.85,982.897 1390.1,989.157 1393.34,995.392 1396.58,1001.6 1399.82,1007.79 1403.07,1013.95 1406.31,1020.09 1409.55,1026.2 1412.8,1032.28 1416.04,1038.34 1419.28,1044.36 1422.53,1050.36 1425.77,1056.33 1429.01,1062.27 1432.25,1068.17 1435.5,1074.05 1438.74,1079.89 1441.98,1085.7 1445.23,1091.48 1448.47,1097.23 1451.71,1102.94 1454.96,1108.61 1458.2,1114.25 1461.44,1119.86 1464.68,1125.43 1467.93,1130.96 1471.17,1136.45 1474.41,1141.9 1477.66,1147.32 1480.9,1152.7 1484.14,1158.04 1487.39,1163.33 1490.63,1168.59 1493.87,1173.81 1497.11,1178.98 1500.36,1184.11 1503.6,1189.2 1506.84,1194.24 1510.09,1199.24 1513.33,1204.2 1516.57,1209.11 1519.82,1213.98 1523.06,1218.8 1526.3,1223.57 1529.55,1228.3 1532.79,1232.98 1536.03,1237.61 1539.27,1242.19 1542.52,1246.73 1545.76,1251.21 1549,1255.65 1552.25,1260.03 1555.49,1264.37 1558.73,1268.65 1561.98,1272.89 1565.22,1277.07 1568.46,1281.2 1571.7,1285.27 1574.95,1289.3 1578.19,1293.27 1581.43,1297.18 1584.68,1301.05 1587.92,1304.85 1591.16,1308.61 1594.41,1312.3 1597.65,1315.95 1600.89,1319.53 1604.13,1323.06 1607.38,1326.53 1610.62,1329.95 1613.86,1333.31 1617.11,1336.61 1620.35,1339.85 1623.59,1343.03 1626.84,1346.15 1630.08,1349.22 1633.32,1352.23 1636.57,1355.17 1639.81,1358.06 1643.05,1360.88 1646.29,1363.65 1649.54,1366.35 1652.78,1369 1656.02,1371.58 1659.27,1374.1 1662.51,1376.56 1665.75,1378.95 1669,1381.29 1672.24,1383.56 1675.48,1385.77 1678.72,1387.91 1681.97,1390 1685.21,1392.01 1688.45,1393.97 1691.7,1395.86 1694.94,1397.69 1698.18,1399.45 1701.43,1401.15 1704.67,1402.78 1707.91,1404.35 1711.15,1405.85 1714.4,1407.29 1717.64,1408.67 1720.88,1409.98 1724.13,1411.22 1727.37,1412.4 1730.61,1413.51 1733.86,1414.55 1737.1,1415.53 1740.34,1416.45 1743.59,1417.29 1746.83,1418.08 1750.07,1418.79 1753.31,1419.44 1756.56,1420.02 1759.8,1420.54 1763.04,1420.99 1766.29,1421.37 1769.53,1421.68 1772.77,1421.93 1776.02,1422.12 1779.26,1422.23 1782.5,1422.28 1785.74,1422.26 1788.99,1422.18 1792.23,1422.03 1795.47,1421.81 1798.72,1421.53 1801.96,1421.18 1805.2,1420.76 1808.45,1420.28 1811.69,1419.73 1814.93,1419.11 1818.17,1418.43 1821.42,1417.68 1824.66,1416.86 1827.9,1415.98 1831.15,1415.03 1834.39,1414.01 1837.63,1412.93 1840.88,1411.79 1844.12,1410.58 1847.36,1409.3 1850.61,1407.96 1853.85,1406.55 1857.09,1405.08 1860.33,1403.54 1863.58,1401.94 1866.82,1400.27 1870.06,1398.54 1873.31,1396.74 1876.55,1394.88 1879.79,1392.96 1883.04,1390.97 1886.28,1388.92 1889.52,1386.8 1892.76,1384.62 1896.01,1382.38 1899.25,1380.08 1902.49,1377.71 1905.74,1375.28 1908.98,1372.79 1912.22,1370.24 1915.47,1367.62 1918.71,1364.95 1921.95,1362.21 1925.19,1359.42 1928.44,1356.56 1931.68,1353.64 1934.92,1350.66 1938.17,1347.63 1941.41,1344.53 1944.65,1341.38 1947.9,1338.16 1951.14,1334.89 1954.38,1331.56 1957.63,1328.17 1960.87,1324.73 1964.11,1321.22 1967.35,1317.67 1970.6,1314.05 1973.84,1310.38 1977.08,1306.65 1980.33,1302.87 1983.57,1299.04 1986.81,1295.15 1990.06,1291.2 1993.3,1287.2 1996.54,1283.15 1999.78,1279.05 2003.03,1274.89 2006.27,1270.68 2009.51,1266.42 2012.76,1262.11 2016,1257.75 2019.24,1253.34 2022.49,1248.88 2025.73,1244.36 2028.97,1239.8 2032.21,1235.2 2035.46,1230.54 2038.7,1225.83 2041.94,1221.08 2045.19,1216.28 2048.43,1211.44 2051.67,1206.55 2054.92,1201.62 2058.16,1196.64 2061.4,1191.61 2064.65,1186.55 2067.89,1181.44 2071.13,1176.28 2074.37,1171.09 2077.62,1165.85 2080.86,1160.57 2084.1,1155.25 2087.35,1149.9 2090.59,1144.5 2093.83,1139.06 2097.08,1133.59 2100.32,1128.07 2103.56,1122.52 2106.8,1116.94 2110.05,1111.31 2113.29,1105.65 2116.53,1099.96 2119.78,1094.23 2123.02,1088.47 2126.26,1082.67 2129.51,1076.84 2132.75,1070.98 2135.99,1065.09 2139.23,1059.17 2142.48,1053.21 2145.72,1047.23 2148.96,1041.22 2152.21,1035.18 2155.45,1029.11 2158.69,1023.01 2161.94,1016.89 2165.18,1010.74 2168.42,1004.56 2171.67,998.363 2174.91,992.139 2178.15,985.891 2181.39,979.62 2184.64,973.326 2187.88,967.011 2191.12,960.674 2194.37,954.317 2197.61,947.94 2200.85,941.543 2204.1,935.128 2207.34,928.695 2210.58,922.245 2213.82,915.778 2217.07,909.295 2220.31,902.796 2223.55,896.283 2226.8,889.755 2230.04,883.214 2233.28,876.661 2236.53,870.095 2239.77,863.517 2243.01,856.929 2246.25,850.331 2249.5,843.723 2252.74,837.106 2255.98,830.481 2259.23,823.849 2262.47,817.209 2265.71,810.564 2268.96,803.912 2272.2,797.256 2275.44,790.596 2278.69,783.932 2281.93,777.266 2285.17,770.597 2288.41,763.927 2291.66,757.255 "/>
<circle clip-path="url(#clip092)" cx="2158.69" cy="1014.34" r="14.4" fill="#e26f46" fill-rule="evenodd" fill-opacity="1" stroke="#000000" stroke-opacity="1" stroke-width="3.2"/>
<circle clip-path="url(#clip092)" cx="426.915" cy="324.954" r="14.4" fill="#e26f46" fill-rule="evenodd" fill-opacity="1" stroke="#000000" stroke-opacity="1" stroke-width="3.2"/>
<circle clip-path="url(#clip092)" cx="1448.47" cy="1158.69" r="14.4" fill="#e26f46" fill-rule="evenodd" fill-opacity="1" stroke="#000000" stroke-opacity="1" stroke-width="3.2"/>
<circle clip-path="url(#clip092)" cx="890.668" cy="88.2671" r="14.4" fill="#e26f46" fill-rule="evenodd" fill-opacity="1" stroke="#000000" stroke-opacity="1" stroke-width="3.2"/>
<circle clip-path="url(#clip092)" cx="932.828" cy="91.4443" r="14.4" fill="#e26f46" fill-rule="evenodd" fill-opacity="1" stroke="#000000" stroke-opacity="1" stroke-width="3.2"/>
<circle clip-path="url(#clip092)" cx="475.561" cy="311.061" r="14.4" fill="#e26f46" fill-rule="evenodd" fill-opacity="1" stroke="#000000" stroke-opacity="1" stroke-width="3.2"/>
<circle clip-path="url(#clip092)" cx="1153.35" cy="611.438" r="14.4" fill="#e26f46" fill-rule="evenodd" fill-opacity="1" stroke="#000000" stroke-opacity="1" stroke-width="3.2"/>
<circle clip-path="url(#clip092)" cx="1542.52" cy="1121.74" r="14.4" fill="#e26f46" fill-rule="evenodd" fill-opacity="1" stroke="#000000" stroke-opacity="1" stroke-width="3.2"/>
<circle clip-path="url(#clip092)" cx="297.194" cy="594.313" r="14.4" fill="#e26f46" fill-rule="evenodd" fill-opacity="1" stroke="#000000" stroke-opacity="1" stroke-width="3.2"/>
<circle clip-path="url(#clip092)" cx="391.242" cy="571.682" r="14.4" fill="#e26f46" fill-rule="evenodd" fill-opacity="1" stroke="#000000" stroke-opacity="1" stroke-width="3.2"/>
<circle clip-path="url(#clip092)" cx="2272.2" cy="936.914" r="14.4" fill="#e26f46" fill-rule="evenodd" fill-opacity="1" stroke="#000000" stroke-opacity="1" stroke-width="3.2"/>
<circle clip-path="url(#clip092)" cx="1617.11" cy="1445.72" r="14.4" fill="#e26f46" fill-rule="evenodd" fill-opacity="1" stroke="#000000" stroke-opacity="1" stroke-width="3.2"/>
<circle clip-path="url(#clip092)" cx="413.943" cy="286.043" r="14.4" fill="#e26f46" fill-rule="evenodd" fill-opacity="1" stroke="#000000" stroke-opacity="1" stroke-width="3.2"/>
<circle clip-path="url(#clip092)" cx="1902.49" cy="1314.26" r="14.4" fill="#e26f46" fill-rule="evenodd" fill-opacity="1" stroke="#000000" stroke-opacity="1" stroke-width="3.2"/>
<circle clip-path="url(#clip092)" cx="1056.06" cy="226.455" r="14.4" fill="#e26f46" fill-rule="evenodd" fill-opacity="1" stroke="#000000" stroke-opacity="1" stroke-width="3.2"/>
<circle clip-path="url(#clip092)" cx="1127.41" cy="304.177" r="14.4" fill="#e26f46" fill-rule="evenodd" fill-opacity="1" stroke="#000000" stroke-opacity="1" stroke-width="3.2"/>
<circle clip-path="url(#clip092)" cx="579.338" cy="183.63" r="14.4" fill="#e26f46" fill-rule="evenodd" fill-opacity="1" stroke="#000000" stroke-opacity="1" stroke-width="3.2"/>
<circle clip-path="url(#clip092)" cx="1075.52" cy="524.727" r="14.4" fill="#e26f46" fill-rule="evenodd" fill-opacity="1" stroke="#000000" stroke-opacity="1" stroke-width="3.2"/>
<circle clip-path="url(#clip092)" cx="2032.21" cy="1111.49" r="14.4" fill="#e26f46" fill-rule="evenodd" fill-opacity="1" stroke="#000000" stroke-opacity="1" stroke-width="3.2"/>
<circle clip-path="url(#clip092)" cx="1036.6" cy="462.37" r="14.4" fill="#e26f46" fill-rule="evenodd" fill-opacity="1" stroke="#000000" stroke-opacity="1" stroke-width="3.2"/>
<path clip-path="url(#clip090)" d="M1953.46 250.738 L2280.8 250.738 L2280.8 95.2176 L1953.46 95.2176  Z" fill="#ffffff" fill-rule="evenodd" fill-opacity="1"/>
<polyline clip-path="url(#clip090)" style="stroke:#000000; stroke-linecap:round; stroke-linejoin:round; stroke-width:4; stroke-opacity:1; fill:none" points="1953.46,250.738 2280.8,250.738 2280.8,95.2176 1953.46,95.2176 1953.46,250.738 "/>
<polyline clip-path="url(#clip090)" style="stroke:#009af9; stroke-linecap:round; stroke-linejoin:round; stroke-width:4; stroke-opacity:1; fill:none" points="1977.44,147.058 2121.36,147.058 "/>
<path clip-path="url(#clip090)" d="M2152.76 131.051 L2152.76 138.412 L2161.53 138.412 L2161.53 141.722 L2152.76 141.722 L2152.76 155.796 Q2152.76 158.967 2153.61 159.87 Q2154.49 160.773 2157.16 160.773 L2161.53 160.773 L2161.53 164.338 L2157.16 164.338 Q2152.23 164.338 2150.35 162.509 Q2148.48 160.657 2148.48 155.796 L2148.48 141.722 L2145.35 141.722 L2145.35 138.412 L2148.48 138.412 L2148.48 131.051 L2152.76 131.051 Z" fill="#000000" fill-rule="nonzero" fill-opacity="1" /><path clip-path="url(#clip090)" d="M2182.16 142.393 Q2181.44 141.977 2180.58 141.791 Q2179.75 141.583 2178.73 141.583 Q2175.12 141.583 2173.17 143.944 Q2171.25 146.282 2171.25 150.68 L2171.25 164.338 L2166.97 164.338 L2166.97 138.412 L2171.25 138.412 L2171.25 142.44 Q2172.6 140.078 2174.75 138.944 Q2176.9 137.787 2179.98 137.787 Q2180.42 137.787 2180.95 137.856 Q2181.48 137.903 2182.13 138.018 L2182.16 142.393 Z" fill="#000000" fill-rule="nonzero" fill-opacity="1" /><path clip-path="url(#clip090)" d="M2186.18 154.106 L2186.18 138.412 L2190.44 138.412 L2190.44 153.944 Q2190.44 157.625 2191.88 159.476 Q2193.31 161.305 2196.18 161.305 Q2199.63 161.305 2201.62 159.106 Q2203.64 156.907 2203.64 153.111 L2203.64 138.412 L2207.9 138.412 L2207.9 164.338 L2203.64 164.338 L2203.64 160.356 Q2202.09 162.717 2200.03 163.875 Q2197.99 165.009 2195.28 165.009 Q2190.81 165.009 2188.5 162.231 Q2186.18 159.453 2186.18 154.106 M2196.9 137.787 L2196.9 137.787 Z" fill="#000000" fill-rule="nonzero" fill-opacity="1" /><path clip-path="url(#clip090)" d="M2220.88 131.051 L2220.88 138.412 L2229.66 138.412 L2229.66 141.722 L2220.88 141.722 L2220.88 155.796 Q2220.88 158.967 2221.74 159.87 Q2222.62 160.773 2225.28 160.773 L2229.66 160.773 L2229.66 164.338 L2225.28 164.338 Q2220.35 164.338 2218.48 162.509 Q2216.6 160.657 2216.6 155.796 L2216.6 141.722 L2213.48 141.722 L2213.48 138.412 L2216.6 138.412 L2216.6 131.051 L2220.88 131.051 Z" fill="#000000" fill-rule="nonzero" fill-opacity="1" /><path clip-path="url(#clip090)" d="M2256.81 148.689 L2256.81 164.338 L2252.55 164.338 L2252.55 148.828 Q2252.55 145.148 2251.11 143.319 Q2249.68 141.49 2246.81 141.49 Q2243.36 141.49 2241.37 143.69 Q2239.38 145.889 2239.38 149.685 L2239.38 164.338 L2235.1 164.338 L2235.1 128.319 L2239.38 128.319 L2239.38 142.44 Q2240.91 140.102 2242.97 138.944 Q2245.05 137.787 2247.76 137.787 Q2252.23 137.787 2254.52 140.565 Q2256.81 143.319 2256.81 148.689 Z" fill="#000000" fill-rule="nonzero" fill-opacity="1" /><circle clip-path="url(#clip090)" cx="2049.4" cy="198.898" r="20.48" fill="#e26f46" fill-rule="evenodd" fill-opacity="1" stroke="#000000" stroke-opacity="1" stroke-width="4.55111"/>
<path clip-path="url(#clip090)" d="M2164.26 194.187 L2164.26 180.159 L2168.52 180.159 L2168.52 216.178 L2164.26 216.178 L2164.26 212.289 Q2162.92 214.603 2160.86 215.738 Q2158.82 216.849 2155.95 216.849 Q2151.25 216.849 2148.29 213.099 Q2145.35 209.349 2145.35 203.238 Q2145.35 197.127 2148.29 193.377 Q2151.25 189.627 2155.95 189.627 Q2158.82 189.627 2160.86 190.761 Q2162.92 191.872 2164.26 194.187 M2149.75 203.238 Q2149.75 207.937 2151.67 210.622 Q2153.61 213.284 2156.99 213.284 Q2160.37 213.284 2162.32 210.622 Q2164.26 207.937 2164.26 203.238 Q2164.26 198.539 2162.32 195.877 Q2160.37 193.192 2156.99 193.192 Q2153.61 193.192 2151.67 195.877 Q2149.75 198.539 2149.75 203.238 Z" fill="#000000" fill-rule="nonzero" fill-opacity="1" /><path clip-path="url(#clip090)" d="M2189.08 203.145 Q2183.92 203.145 2181.92 204.326 Q2179.93 205.506 2179.93 208.354 Q2179.93 210.622 2181.42 211.965 Q2182.92 213.284 2185.49 213.284 Q2189.03 213.284 2191.16 210.784 Q2193.31 208.261 2193.31 204.094 L2193.31 203.145 L2189.08 203.145 M2197.57 201.386 L2197.57 216.178 L2193.31 216.178 L2193.31 212.242 Q2191.85 214.603 2189.68 215.738 Q2187.5 216.849 2184.36 216.849 Q2180.37 216.849 2178.01 214.627 Q2175.67 212.381 2175.67 208.631 Q2175.67 204.256 2178.59 202.034 Q2181.53 199.812 2187.34 199.812 L2193.31 199.812 L2193.31 199.395 Q2193.31 196.455 2191.37 194.858 Q2189.45 193.238 2185.95 193.238 Q2183.73 193.238 2181.62 193.77 Q2179.52 194.303 2177.57 195.367 L2177.57 191.432 Q2179.91 190.53 2182.11 190.09 Q2184.31 189.627 2186.39 189.627 Q2192.02 189.627 2194.79 192.543 Q2197.57 195.46 2197.57 201.386 Z" fill="#000000" fill-rule="nonzero" fill-opacity="1" /><path clip-path="url(#clip090)" d="M2210.56 182.891 L2210.56 190.252 L2219.33 190.252 L2219.33 193.562 L2210.56 193.562 L2210.56 207.636 Q2210.56 210.807 2211.42 211.71 Q2212.29 212.613 2214.96 212.613 L2219.33 212.613 L2219.33 216.178 L2214.96 216.178 Q2210.03 216.178 2208.15 214.349 Q2206.28 212.497 2206.28 207.636 L2206.28 193.562 L2203.15 193.562 L2203.15 190.252 L2206.28 190.252 L2206.28 182.891 L2210.56 182.891 Z" fill="#000000" fill-rule="nonzero" fill-opacity="1" /><path clip-path="url(#clip090)" d="M2236.72 203.145 Q2231.55 203.145 2229.56 204.326 Q2227.57 205.506 2227.57 208.354 Q2227.57 210.622 2229.05 211.965 Q2230.56 213.284 2233.13 213.284 Q2236.67 213.284 2238.8 210.784 Q2240.95 208.261 2240.95 204.094 L2240.95 203.145 L2236.72 203.145 M2245.21 201.386 L2245.21 216.178 L2240.95 216.178 L2240.95 212.242 Q2239.49 214.603 2237.32 215.738 Q2235.14 216.849 2231.99 216.849 Q2228.01 216.849 2225.65 214.627 Q2223.31 212.381 2223.31 208.631 Q2223.31 204.256 2226.23 202.034 Q2229.17 199.812 2234.98 199.812 L2240.95 199.812 L2240.95 199.395 Q2240.95 196.455 2239.01 194.858 Q2237.09 193.238 2233.59 193.238 Q2231.37 193.238 2229.26 193.77 Q2227.16 194.303 2225.21 195.367 L2225.21 191.432 Q2227.55 190.53 2229.75 190.09 Q2231.95 189.627 2234.03 189.627 Q2239.66 189.627 2242.43 192.543 Q2245.21 195.46 2245.21 201.386 Z" fill="#000000" fill-rule="nonzero" fill-opacity="1" /></svg>
