<?xml version="1.0" encoding="utf-8"?>
<svg xmlns="http://www.w3.org/2000/svg" xmlns:xlink="http://www.w3.org/1999/xlink" width="600" height="400" viewBox="0 0 2400 1600">
<defs>
  <clipPath id="clip020">
    <rect x="0" y="0" width="2400" height="1600"/>
  </clipPath>
</defs>
<path clip-path="url(#clip020)" d="M0 1600 L2400 1600 L2400 0 L0 0  Z" fill="#ffffff" fill-rule="evenodd" fill-opacity="1"/>
<defs>
  <clipPath id="clip021">
    <rect x="480" y="0" width="1681" height="1600"/>
  </clipPath>
</defs>
<path clip-path="url(#clip020)" d="M193.936 1486.45 L2352.76 1486.45 L2352.76 47.2441 L193.936 47.2441  Z" fill="#ffffff" fill-rule="evenodd" fill-opacity="1"/>
<defs>
  <clipPath id="clip022">
    <rect x="193" y="47" width="2160" height="1440"/>
  </clipPath>
</defs>
<polyline clip-path="url(#clip022)" style="stroke:#000000; stroke-linecap:round; stroke-linejoin:round; stroke-width:2; stroke-opacity:0.1; fill:none" points="255.035,1486.45 255.035,47.2441 "/>
<polyline clip-path="url(#clip022)" style="stroke:#000000; stroke-linecap:round; stroke-linejoin:round; stroke-width:2; stroke-opacity:0.1; fill:none" points="579.338,1486.45 579.338,47.2441 "/>
<polyline clip-path="url(#clip022)" style="stroke:#000000; stroke-linecap:round; stroke-linejoin:round; stroke-width:2; stroke-opacity:0.1; fill:none" points="903.641,1486.45 903.641,47.2441 "/>
<polyline clip-path="url(#clip022)" style="stroke:#000000; stroke-linecap:round; stroke-linejoin:round; stroke-width:2; stroke-opacity:0.1; fill:none" points="1227.94,1486.45 1227.94,47.2441 "/>
<polyline clip-path="url(#clip022)" style="stroke:#000000; stroke-linecap:round; stroke-linejoin:round; stroke-width:2; stroke-opacity:0.1; fill:none" points="1552.25,1486.45 1552.25,47.2441 "/>
<polyline clip-path="url(#clip022)" style="stroke:#000000; stroke-linecap:round; stroke-linejoin:round; stroke-width:2; stroke-opacity:0.1; fill:none" points="1876.55,1486.45 1876.55,47.2441 "/>
<polyline clip-path="url(#clip022)" style="stroke:#000000; stroke-linecap:round; stroke-linejoin:round; stroke-width:2; stroke-opacity:0.1; fill:none" points="2200.85,1486.45 2200.85,47.2441 "/>
<polyline clip-path="url(#clip022)" style="stroke:#000000; stroke-linecap:round; stroke-linejoin:round; stroke-width:2; stroke-opacity:0.1; fill:none" points="193.936,1341.91 2352.76,1341.91 "/>
<polyline clip-path="url(#clip022)" style="stroke:#000000; stroke-linecap:round; stroke-linejoin:round; stroke-width:2; stroke-opacity:0.1; fill:none" points="193.936,1061.62 2352.76,1061.62 "/>
<polyline clip-path="url(#clip022)" style="stroke:#000000; stroke-linecap:round; stroke-linejoin:round; stroke-width:2; stroke-opacity:0.1; fill:none" points="193.936,781.321 2352.76,781.321 "/>
<polyline clip-path="url(#clip022)" style="stroke:#000000; stroke-linecap:round; stroke-linejoin:round; stroke-width:2; stroke-opacity:0.1; fill:none" points="193.936,501.024 2352.76,501.024 "/>
<polyline clip-path="url(#clip022)" style="stroke:#000000; stroke-linecap:round; stroke-linejoin:round; stroke-width:2; stroke-opacity:0.1; fill:none" points="193.936,220.728 2352.76,220.728 "/>
<polyline clip-path="url(#clip020)" style="stroke:#000000; stroke-linecap:round; stroke-linejoin:round; stroke-width:4; stroke-opacity:1; fill:none" points="193.936,1486.45 2352.76,1486.45 "/>
<polyline clip-path="url(#clip020)" style="stroke:#000000; stroke-linecap:round; stroke-linejoin:round; stroke-width:4; stroke-opacity:1; fill:none" points="255.035,1486.45 255.035,1467.55 "/>
<polyline clip-path="url(#clip020)" style="stroke:#000000; stroke-linecap:round; stroke-linejoin:round; stroke-width:4; stroke-opacity:1; fill:none" points="579.338,1486.45 579.338,1467.55 "/>
<polyline clip-path="url(#clip020)" style="stroke:#000000; stroke-linecap:round; stroke-linejoin:round; stroke-width:4; stroke-opacity:1; fill:none" points="903.641,1486.45 903.641,1467.55 "/>
<polyline clip-path="url(#clip020)" style="stroke:#000000; stroke-linecap:round; stroke-linejoin:round; stroke-width:4; stroke-opacity:1; fill:none" points="1227.94,1486.45 1227.94,1467.55 "/>
<polyline clip-path="url(#clip020)" style="stroke:#000000; stroke-linecap:round; stroke-linejoin:round; stroke-width:4; stroke-opacity:1; fill:none" points="1552.25,1486.45 1552.25,1467.55 "/>
<polyline clip-path="url(#clip020)" style="stroke:#000000; stroke-linecap:round; stroke-linejoin:round; stroke-width:4; stroke-opacity:1; fill:none" points="1876.55,1486.45 1876.55,1467.55 "/>
<polyline clip-path="url(#clip020)" style="stroke:#000000; stroke-linecap:round; stroke-linejoin:round; stroke-width:4; stroke-opacity:1; fill:none" points="2200.85,1486.45 2200.85,1467.55 "/>
<path clip-path="url(#clip020)" d="M255.035 1517.37 Q251.424 1517.37 249.595 1520.93 Q247.789 1524.47 247.789 1531.6 Q247.789 1538.71 249.595 1542.27 Q251.424 1545.82 255.035 1545.82 Q258.669 1545.82 260.474 1542.27 Q262.303 1538.71 262.303 1531.6 Q262.303 1524.47 260.474 1520.93 Q258.669 1517.37 255.035 1517.37 M255.035 1513.66 Q260.845 1513.66 263.9 1518.27 Q266.979 1522.85 266.979 1531.6 Q266.979 1540.33 263.9 1544.94 Q260.845 1549.52 255.035 1549.52 Q249.225 1549.52 246.146 1544.94 Q243.09 1540.33 243.09 1531.6 Q243.09 1522.85 246.146 1518.27 Q249.225 1513.66 255.035 1513.66 Z" fill="#000000" fill-rule="nonzero" fill-opacity="1" /><path clip-path="url(#clip020)" d="M569.72 1544.91 L577.358 1544.91 L577.358 1518.55 L569.048 1520.21 L569.048 1515.95 L577.312 1514.29 L581.988 1514.29 L581.988 1544.91 L589.627 1544.91 L589.627 1548.85 L569.72 1548.85 L569.72 1544.91 Z" fill="#000000" fill-rule="nonzero" fill-opacity="1" /><path clip-path="url(#clip020)" d="M898.293 1544.91 L914.613 1544.91 L914.613 1548.85 L892.668 1548.85 L892.668 1544.91 Q895.33 1542.16 899.914 1537.53 Q904.52 1532.88 905.701 1531.53 Q907.946 1529.01 908.826 1527.27 Q909.729 1525.51 909.729 1523.82 Q909.729 1521.07 907.784 1519.33 Q905.863 1517.6 902.761 1517.6 Q900.562 1517.6 898.108 1518.36 Q895.678 1519.13 892.9 1520.68 L892.9 1515.95 Q895.724 1514.82 898.178 1514.24 Q900.631 1513.66 902.668 1513.66 Q908.039 1513.66 911.233 1516.35 Q914.428 1519.03 914.428 1523.52 Q914.428 1525.65 913.617 1527.57 Q912.83 1529.47 910.724 1532.07 Q910.145 1532.74 907.043 1535.95 Q903.942 1539.15 898.293 1544.91 Z" fill="#000000" fill-rule="nonzero" fill-opacity="1" /><path clip-path="url(#clip020)" d="M1232.19 1530.21 Q1235.55 1530.93 1237.42 1533.2 Q1239.32 1535.47 1239.32 1538.8 Q1239.32 1543.92 1235.8 1546.72 Q1232.28 1549.52 1225.8 1549.52 Q1223.63 1549.52 1221.31 1549.08 Q1219.02 1548.66 1216.57 1547.81 L1216.57 1543.29 Q1218.51 1544.43 1220.83 1545.01 Q1223.14 1545.58 1225.66 1545.58 Q1230.06 1545.58 1232.35 1543.85 Q1234.67 1542.11 1234.67 1538.8 Q1234.67 1535.75 1232.52 1534.03 Q1230.39 1532.3 1226.57 1532.3 L1222.54 1532.3 L1222.54 1528.45 L1226.75 1528.45 Q1230.2 1528.45 1232.03 1527.09 Q1233.86 1525.7 1233.86 1523.11 Q1233.86 1520.45 1231.96 1519.03 Q1230.08 1517.6 1226.57 1517.6 Q1224.64 1517.6 1222.45 1518.01 Q1220.25 1518.43 1217.61 1519.31 L1217.61 1515.14 Q1220.27 1514.4 1222.58 1514.03 Q1224.92 1513.66 1226.98 1513.66 Q1232.31 1513.66 1235.41 1516.09 Q1238.51 1518.5 1238.51 1522.62 Q1238.51 1525.49 1236.87 1527.48 Q1235.22 1529.45 1232.19 1530.21 Z" fill="#000000" fill-rule="nonzero" fill-opacity="1" /><path clip-path="url(#clip020)" d="M1555.26 1518.36 L1543.45 1536.81 L1555.26 1536.81 L1555.26 1518.36 M1554.03 1514.29 L1559.91 1514.29 L1559.91 1536.81 L1564.84 1536.81 L1564.84 1540.7 L1559.91 1540.7 L1559.91 1548.85 L1555.26 1548.85 L1555.26 1540.7 L1539.65 1540.7 L1539.65 1536.19 L1554.03 1514.29 Z" fill="#000000" fill-rule="nonzero" fill-opacity="1" /><path clip-path="url(#clip020)" d="M1866.83 1514.29 L1885.18 1514.29 L1885.18 1518.22 L1871.11 1518.22 L1871.11 1526.7 Q1872.13 1526.35 1873.15 1526.19 Q1874.17 1526 1875.18 1526 Q1880.97 1526 1884.35 1529.17 Q1887.73 1532.34 1887.73 1537.76 Q1887.73 1543.34 1884.26 1546.44 Q1880.79 1549.52 1874.47 1549.52 Q1872.29 1549.52 1870.02 1549.15 Q1867.78 1548.78 1865.37 1548.04 L1865.37 1543.34 Q1867.45 1544.47 1869.67 1545.03 Q1871.9 1545.58 1874.37 1545.58 Q1878.38 1545.58 1880.72 1543.48 Q1883.05 1541.37 1883.05 1537.76 Q1883.05 1534.15 1880.72 1532.04 Q1878.38 1529.94 1874.37 1529.94 Q1872.5 1529.94 1870.62 1530.35 Q1868.77 1530.77 1866.83 1531.65 L1866.83 1514.29 Z" fill="#000000" fill-rule="nonzero" fill-opacity="1" /><path clip-path="url(#clip020)" d="M2201.26 1529.7 Q2198.11 1529.7 2196.26 1531.86 Q2194.43 1534.01 2194.43 1537.76 Q2194.43 1541.49 2196.26 1543.66 Q2198.11 1545.82 2201.26 1545.82 Q2204.41 1545.82 2206.23 1543.66 Q2208.09 1541.49 2208.09 1537.76 Q2208.09 1534.01 2206.23 1531.86 Q2204.41 1529.7 2201.26 1529.7 M2210.54 1515.05 L2210.54 1519.31 Q2208.78 1518.48 2206.98 1518.04 Q2205.19 1517.6 2203.43 1517.6 Q2198.8 1517.6 2196.35 1520.72 Q2193.92 1523.85 2193.57 1530.17 Q2194.94 1528.15 2197 1527.09 Q2199.06 1526 2201.54 1526 Q2206.74 1526 2209.75 1529.17 Q2212.79 1532.32 2212.79 1537.76 Q2212.79 1543.08 2209.64 1546.3 Q2206.49 1549.52 2201.26 1549.52 Q2195.26 1549.52 2192.09 1544.94 Q2188.92 1540.33 2188.92 1531.6 Q2188.92 1523.41 2192.81 1518.55 Q2196.7 1513.66 2203.25 1513.66 Q2205.01 1513.66 2206.79 1514.01 Q2208.6 1514.36 2210.54 1515.05 Z" fill="#000000" fill-rule="nonzero" fill-opacity="1" /><polyline clip-path="url(#clip020)" style="stroke:#000000; stroke-linecap:round; stroke-linejoin:round; stroke-width:4; stroke-opacity:1; fill:none" points="193.936,1486.45 193.936,47.2441 "/>
<polyline clip-path="url(#clip020)" style="stroke:#000000; stroke-linecap:round; stroke-linejoin:round; stroke-width:4; stroke-opacity:1; fill:none" points="193.936,1341.91 212.834,1341.91 "/>
<polyline clip-path="url(#clip020)" style="stroke:#000000; stroke-linecap:round; stroke-linejoin:round; stroke-width:4; stroke-opacity:1; fill:none" points="193.936,1061.62 212.834,1061.62 "/>
<polyline clip-path="url(#clip020)" style="stroke:#000000; stroke-linecap:round; stroke-linejoin:round; stroke-width:4; stroke-opacity:1; fill:none" points="193.936,781.321 212.834,781.321 "/>
<polyline clip-path="url(#clip020)" style="stroke:#000000; stroke-linecap:round; stroke-linejoin:round; stroke-width:4; stroke-opacity:1; fill:none" points="193.936,501.024 212.834,501.024 "/>
<polyline clip-path="url(#clip020)" style="stroke:#000000; stroke-linecap:round; stroke-linejoin:round; stroke-width:4; stroke-opacity:1; fill:none" points="193.936,220.728 212.834,220.728 "/>
<path clip-path="url(#clip020)" d="M50.9921 1342.37 L80.6679 1342.37 L80.6679 1346.3 L50.9921 1346.3 L50.9921 1342.37 Z" fill="#000000" fill-rule="nonzero" fill-opacity="1" /><path clip-path="url(#clip020)" d="M91.5706 1355.26 L99.2095 1355.26 L99.2095 1328.89 L90.8993 1330.56 L90.8993 1326.3 L99.1632 1324.63 L103.839 1324.63 L103.839 1355.26 L111.478 1355.26 L111.478 1359.19 L91.5706 1359.19 L91.5706 1355.26 Z" fill="#000000" fill-rule="nonzero" fill-opacity="1" /><path clip-path="url(#clip020)" d="M120.922 1353.31 L125.807 1353.31 L125.807 1359.19 L120.922 1359.19 L120.922 1353.31 Z" fill="#000000" fill-rule="nonzero" fill-opacity="1" /><path clip-path="url(#clip020)" d="M145.992 1327.71 Q142.381 1327.71 140.552 1331.28 Q138.746 1334.82 138.746 1341.95 Q138.746 1349.06 140.552 1352.62 Q142.381 1356.16 145.992 1356.16 Q149.626 1356.16 151.431 1352.62 Q153.26 1349.06 153.26 1341.95 Q153.26 1334.82 151.431 1331.28 Q149.626 1327.71 145.992 1327.71 M145.992 1324.01 Q151.802 1324.01 154.857 1328.62 Q157.936 1333.2 157.936 1341.95 Q157.936 1350.68 154.857 1355.28 Q151.802 1359.87 145.992 1359.87 Q140.181 1359.87 137.103 1355.28 Q134.047 1350.68 134.047 1341.95 Q134.047 1333.2 137.103 1328.62 Q140.181 1324.01 145.992 1324.01 Z" fill="#000000" fill-rule="nonzero" fill-opacity="1" /><path clip-path="url(#clip020)" d="M51.9875 1062.07 L81.6633 1062.07 L81.6633 1066 L51.9875 1066 L51.9875 1062.07 Z" fill="#000000" fill-rule="nonzero" fill-opacity="1" /><path clip-path="url(#clip020)" d="M101.756 1047.42 Q98.1447 1047.42 96.316 1050.98 Q94.5104 1054.52 94.5104 1061.65 Q94.5104 1068.76 96.316 1072.32 Q98.1447 1075.87 101.756 1075.87 Q105.39 1075.87 107.196 1072.32 Q109.024 1068.76 109.024 1061.65 Q109.024 1054.52 107.196 1050.98 Q105.39 1047.42 101.756 1047.42 M101.756 1043.71 Q107.566 1043.71 110.621 1048.32 Q113.7 1052.9 113.7 1061.65 Q113.7 1070.38 110.621 1074.99 Q107.566 1079.57 101.756 1079.57 Q95.9456 1079.57 92.8669 1074.99 Q89.8114 1070.38 89.8114 1061.65 Q89.8114 1052.9 92.8669 1048.32 Q95.9456 1043.71 101.756 1043.71 Z" fill="#000000" fill-rule="nonzero" fill-opacity="1" /><path clip-path="url(#clip020)" d="M121.918 1073.02 L126.802 1073.02 L126.802 1078.9 L121.918 1078.9 L121.918 1073.02 Z" fill="#000000" fill-rule="nonzero" fill-opacity="1" /><path clip-path="url(#clip020)" d="M137.033 1044.34 L155.39 1044.34 L155.39 1048.27 L141.316 1048.27 L141.316 1056.75 Q142.334 1056.4 143.353 1056.24 Q144.371 1056.05 145.39 1056.05 Q151.177 1056.05 154.556 1059.22 Q157.936 1062.39 157.936 1067.81 Q157.936 1073.39 154.464 1076.49 Q150.992 1079.57 144.672 1079.57 Q142.496 1079.57 140.228 1079.2 Q137.982 1078.83 135.575 1078.09 L135.575 1073.39 Q137.658 1074.52 139.881 1075.08 Q142.103 1075.63 144.58 1075.63 Q148.584 1075.63 150.922 1073.53 Q153.26 1071.42 153.26 1067.81 Q153.26 1064.2 150.922 1062.09 Q148.584 1059.99 144.58 1059.99 Q142.705 1059.99 140.83 1060.4 Q138.978 1060.82 137.033 1061.7 L137.033 1044.34 Z" fill="#000000" fill-rule="nonzero" fill-opacity="1" /><path clip-path="url(#clip020)" d="M100.76 767.12 Q97.1493 767.12 95.3206 770.685 Q93.515 774.226 93.515 781.356 Q93.515 788.462 95.3206 792.027 Q97.1493 795.569 100.76 795.569 Q104.395 795.569 106.2 792.027 Q108.029 788.462 108.029 781.356 Q108.029 774.226 106.2 770.685 Q104.395 767.12 100.76 767.12 M100.76 763.416 Q106.571 763.416 109.626 768.023 Q112.705 772.606 112.705 781.356 Q112.705 790.083 109.626 794.689 Q106.571 799.272 100.76 799.272 Q94.9502 799.272 91.8715 794.689 Q88.816 790.083 88.816 781.356 Q88.816 772.606 91.8715 768.023 Q94.9502 763.416 100.76 763.416 Z" fill="#000000" fill-rule="nonzero" fill-opacity="1" /><path clip-path="url(#clip020)" d="M120.922 792.722 L125.807 792.722 L125.807 798.601 L120.922 798.601 L120.922 792.722 Z" fill="#000000" fill-rule="nonzero" fill-opacity="1" /><path clip-path="url(#clip020)" d="M145.992 767.12 Q142.381 767.12 140.552 770.685 Q138.746 774.226 138.746 781.356 Q138.746 788.462 140.552 792.027 Q142.381 795.569 145.992 795.569 Q149.626 795.569 151.431 792.027 Q153.26 788.462 153.26 781.356 Q153.26 774.226 151.431 770.685 Q149.626 767.12 145.992 767.12 M145.992 763.416 Q151.802 763.416 154.857 768.023 Q157.936 772.606 157.936 781.356 Q157.936 790.083 154.857 794.689 Q151.802 799.272 145.992 799.272 Q140.181 799.272 137.103 794.689 Q134.047 790.083 134.047 781.356 Q134.047 772.606 137.103 768.023 Q140.181 763.416 145.992 763.416 Z" fill="#000000" fill-rule="nonzero" fill-opacity="1" /><path clip-path="url(#clip020)" d="M101.756 486.823 Q98.1447 486.823 96.316 490.388 Q94.5104 493.93 94.5104 501.059 Q94.5104 508.166 96.316 511.73 Q98.1447 515.272 101.756 515.272 Q105.39 515.272 107.196 511.73 Q109.024 508.166 109.024 501.059 Q109.024 493.93 107.196 490.388 Q105.39 486.823 101.756 486.823 M101.756 483.119 Q107.566 483.119 110.621 487.726 Q113.7 492.309 113.7 501.059 Q113.7 509.786 110.621 514.392 Q107.566 518.976 101.756 518.976 Q95.9456 518.976 92.8669 514.392 Q89.8114 509.786 89.8114 501.059 Q89.8114 492.309 92.8669 487.726 Q95.9456 483.119 101.756 483.119 Z" fill="#000000" fill-rule="nonzero" fill-opacity="1" /><path clip-path="url(#clip020)" d="M121.918 512.425 L126.802 512.425 L126.802 518.304 L121.918 518.304 L121.918 512.425 Z" fill="#000000" fill-rule="nonzero" fill-opacity="1" /><path clip-path="url(#clip020)" d="M137.033 483.744 L155.39 483.744 L155.39 487.68 L141.316 487.68 L141.316 496.152 Q142.334 495.805 143.353 495.643 Q144.371 495.457 145.39 495.457 Q151.177 495.457 154.556 498.629 Q157.936 501.8 157.936 507.217 Q157.936 512.795 154.464 515.897 Q150.992 518.976 144.672 518.976 Q142.496 518.976 140.228 518.605 Q137.982 518.235 135.575 517.494 L135.575 512.795 Q137.658 513.93 139.881 514.485 Q142.103 515.041 144.58 515.041 Q148.584 515.041 150.922 512.934 Q153.26 510.828 153.26 507.217 Q153.26 503.605 150.922 501.499 Q148.584 499.393 144.58 499.393 Q142.705 499.393 140.83 499.809 Q138.978 500.226 137.033 501.106 L137.033 483.744 Z" fill="#000000" fill-rule="nonzero" fill-opacity="1" /><path clip-path="url(#clip020)" d="M91.5706 234.073 L99.2095 234.073 L99.2095 207.707 L90.8993 209.374 L90.8993 205.115 L99.1632 203.448 L103.839 203.448 L103.839 234.073 L111.478 234.073 L111.478 238.008 L91.5706 238.008 L91.5706 234.073 Z" fill="#000000" fill-rule="nonzero" fill-opacity="1" /><path clip-path="url(#clip020)" d="M120.922 232.128 L125.807 232.128 L125.807 238.008 L120.922 238.008 L120.922 232.128 Z" fill="#000000" fill-rule="nonzero" fill-opacity="1" /><path clip-path="url(#clip020)" d="M145.992 206.527 Q142.381 206.527 140.552 210.091 Q138.746 213.633 138.746 220.763 Q138.746 227.869 140.552 231.434 Q142.381 234.975 145.992 234.975 Q149.626 234.975 151.431 231.434 Q153.26 227.869 153.26 220.763 Q153.26 213.633 151.431 210.091 Q149.626 206.527 145.992 206.527 M145.992 202.823 Q151.802 202.823 154.857 207.429 Q157.936 212.013 157.936 220.763 Q157.936 229.489 154.857 234.096 Q151.802 238.679 145.992 238.679 Q140.181 238.679 137.103 234.096 Q134.047 229.489 134.047 220.763 Q134.047 212.013 137.103 207.429 Q140.181 202.823 145.992 202.823 Z" fill="#000000" fill-rule="nonzero" fill-opacity="1" /><polyline clip-path="url(#clip022)" style="stroke:#009af9; stroke-linecap:round; stroke-linejoin:round; stroke-width:4; stroke-opacity:1; fill:none" points="255.035,781.321 258.278,775.715 261.521,770.11 264.764,764.506 268.007,758.903 271.25,753.303 274.493,747.706 277.736,742.112 280.979,736.521 284.222,730.936 287.465,725.355 290.708,719.78 293.951,714.211 297.194,708.649 300.437,703.094 303.68,697.547 306.923,692.008 310.166,686.479 313.409,680.958 316.652,675.448 319.895,669.948 323.138,664.46 326.381,658.983 329.624,653.518 332.867,648.067 336.11,642.628 339.353,637.203 342.596,631.793 345.84,626.398 349.083,621.018 352.326,615.654 355.569,610.307 358.812,604.977 362.055,599.665 365.298,594.371 368.541,589.095 371.784,583.839 375.027,578.602 378.27,573.386 381.513,568.19 384.756,563.016 387.999,557.863 391.242,552.733 394.485,547.626 397.728,542.542 400.971,537.482 404.214,532.447 407.457,527.436 410.7,522.451 413.943,517.491 417.186,512.558 420.429,507.652 423.672,502.773 426.915,497.923 430.158,493.1 433.401,488.306 436.644,483.542 439.887,478.807 443.13,474.103 446.373,469.429 449.616,464.786 452.859,460.175 456.103,455.597 459.346,451.051 462.589,446.537 465.832,442.058 469.075,437.612 472.318,433.201 475.561,428.824 478.804,424.483 482.047,420.177 485.29,415.907 488.533,411.675 491.776,407.478 495.019,403.32 498.262,399.199 501.505,395.116 504.748,391.072 507.991,387.067 511.234,383.102 514.477,379.176 517.72,375.291 520.963,371.446 524.206,367.642 527.449,363.879 530.692,360.158 533.935,356.48 537.178,352.843 540.421,349.25 543.664,345.7 546.907,342.193 550.15,338.731 553.393,335.312 556.636,331.938 559.879,328.609 563.122,325.326 566.366,322.088 569.609,318.896 572.852,315.75 576.095,312.651 579.338,309.598 582.581,306.593 585.824,303.635 589.067,300.725 592.31,297.863 595.553,295.05 598.796,292.285 602.039,289.568 605.282,286.902 608.525,284.284 611.768,281.716 615.011,279.198 618.254,276.731 621.497,274.314 624.74,271.947 627.983,269.632 631.226,267.367 634.469,265.155 637.712,262.993 640.955,260.884 644.198,258.826 647.441,256.821 650.684,254.868 653.927,252.968 657.17,251.121 660.413,249.327 663.656,247.586 666.899,245.898 670.142,244.264 673.385,242.683 676.629,241.157 679.872,239.684 683.115,238.266 686.358,236.902 689.601,235.592 692.844,234.337 696.087,233.137 699.33,231.991 702.573,230.901 705.816,229.865 709.059,228.885 712.302,227.959 715.545,227.09 718.788,226.275 722.031,225.516 725.274,224.813 728.517,224.165 731.76,223.573 735.003,223.037 738.246,222.557 741.489,222.132 744.732,221.764 747.975,221.451 751.218,221.194 754.461,220.994 757.704,220.849 760.947,220.761 764.19,220.728 767.433,220.752 770.676,220.831 773.919,220.967 777.162,221.159 780.405,221.406 783.648,221.71 786.892,222.07 790.135,222.485 793.378,222.957 796.621,223.484 799.864,224.067 803.107,224.706 806.35,225.401 809.593,226.151 812.836,226.956 816.079,227.817 819.322,228.734 822.565,229.705 825.808,230.732 829.051,231.814 832.294,232.951 835.537,234.142 838.78,235.389 842.023,236.69 845.266,238.045 848.509,239.455 851.752,240.919 854.995,242.437 858.238,244.009 861.481,245.634 864.724,247.313 867.967,249.046 871.21,250.832 874.453,252.67 877.696,254.562 880.939,256.507 884.182,258.503 887.425,260.553 890.668,262.654 893.911,264.807 897.155,267.012 900.398,269.268 903.641,271.575 906.884,273.933 910.127,276.343 913.37,278.802 916.613,281.312 919.856,283.872 923.099,286.481 926.342,289.14 929.585,291.849 932.828,294.606 936.071,297.412 939.314,300.266 942.557,303.168 945.8,306.119 949.043,309.116 952.286,312.161 955.529,315.253 958.772,318.392 962.015,321.576 965.258,324.807 968.501,328.083 971.744,331.405 974.987,334.772 978.23,338.183 981.473,341.639 984.716,345.139 987.959,348.682 991.202,352.268 994.445,355.898 997.688,359.57 1000.93,363.284 1004.17,367.04 1007.42,370.837 1010.66,374.676 1013.9,378.555 1017.15,382.474 1020.39,386.433 1023.63,390.432 1026.88,394.47 1030.12,398.546 1033.36,402.661 1036.6,406.814 1039.85,411.004 1043.09,415.231 1046.33,419.495 1049.58,423.795 1052.82,428.13 1056.06,432.501 1059.31,436.907 1062.55,441.347 1065.79,445.822 1069.04,450.33 1072.28,454.87 1075.52,459.444 1078.76,464.05 1082.01,468.687 1085.25,473.356 1088.49,478.056 1091.74,482.786 1094.98,487.545 1098.22,492.335 1101.47,497.153 1104.71,501.999 1107.95,506.873 1111.19,511.775 1114.44,516.704 1117.68,521.659 1120.92,526.64 1124.17,531.647 1127.41,536.679 1130.65,541.735 1133.9,546.815 1137.14,551.918 1140.38,557.045 1143.62,562.194 1146.87,567.365 1150.11,572.557 1153.35,577.77 1156.6,583.003 1159.84,588.256 1163.08,593.529 1166.33,598.82 1169.57,604.13 1172.81,609.457 1176.06,614.802 1179.3,620.163 1182.54,625.54 1185.78,630.933 1189.03,636.341 1192.27,641.763 1195.51,647.2 1198.76,652.649 1202,658.112 1205.24,663.587 1208.49,669.074 1211.73,674.571 1214.97,680.08 1218.21,685.599 1221.46,691.127 1224.7,696.664 1227.94,702.21 1231.19,707.764 1234.43,713.325 1237.67,718.893 1240.92,724.467 1244.16,730.047 1247.4,735.632 1250.64,741.221 1253.89,746.815 1257.13,752.411 1260.37,758.011 1263.62,763.613 1266.86,769.217 1270.1,774.823 1273.35,780.428 1276.59,786.034 1279.83,791.64 1283.08,797.244 1286.32,802.847 1289.56,808.447 1292.8,814.045 1296.05,819.64 1299.29,825.231 1302.53,830.817 1305.78,836.399 1309.02,841.975 1312.26,847.544 1315.51,853.108 1318.75,858.664 1321.99,864.212 1325.23,869.752 1328.48,875.284 1331.72,880.805 1334.96,886.317 1338.21,891.819 1341.45,897.309 1344.69,902.788 1347.94,908.254 1351.18,913.708 1354.42,919.149 1357.66,924.576 1360.91,929.988 1364.15,935.386 1367.39,940.768 1370.64,946.135 1373.88,951.484 1377.12,956.817 1380.37,962.133 1383.61,967.43 1386.85,972.708 1390.1,977.968 1393.34,983.208 1396.58,988.427 1399.82,993.626 1403.07,998.804 1406.31,1003.96 1409.55,1009.09 1412.8,1014.2 1416.04,1019.29 1419.28,1024.36 1422.53,1029.4 1425.77,1034.41 1429.01,1039.4 1432.25,1044.36 1435.5,1049.3 1438.74,1054.21 1441.98,1059.09 1445.23,1063.95 1448.47,1068.78 1451.71,1073.57 1454.96,1078.34 1458.2,1083.08 1461.44,1087.79 1464.68,1092.47 1467.93,1097.12 1471.17,1101.73 1474.41,1106.32 1477.66,1110.87 1480.9,1115.39 1484.14,1119.87 1487.39,1124.32 1490.63,1128.74 1493.87,1133.12 1497.11,1137.47 1500.36,1141.78 1503.6,1146.06 1506.84,1150.3 1510.09,1154.5 1513.33,1158.66 1516.57,1162.79 1519.82,1166.88 1523.06,1170.93 1526.3,1174.94 1529.55,1178.91 1532.79,1182.84 1536.03,1186.74 1539.27,1190.59 1542.52,1194.4 1545.76,1198.17 1549,1201.89 1552.25,1205.58 1555.49,1209.22 1558.73,1212.82 1561.98,1216.38 1565.22,1219.89 1568.46,1223.36 1571.7,1226.79 1574.95,1230.17 1578.19,1233.51 1581.43,1236.8 1584.68,1240.04 1587.92,1243.24 1591.16,1246.39 1594.41,1249.5 1597.65,1252.56 1600.89,1255.57 1604.13,1258.54 1607.38,1261.46 1610.62,1264.33 1613.86,1267.15 1617.11,1269.92 1620.35,1272.64 1623.59,1275.32 1626.84,1277.94 1630.08,1280.52 1633.32,1283.05 1636.57,1285.52 1639.81,1287.95 1643.05,1290.32 1646.29,1292.65 1649.54,1294.92 1652.78,1297.14 1656.02,1299.31 1659.27,1301.43 1662.51,1303.49 1665.75,1305.51 1669,1307.47 1672.24,1309.37 1675.48,1311.23 1678.72,1313.03 1681.97,1314.78 1685.21,1316.48 1688.45,1318.12 1691.7,1319.71 1694.94,1321.25 1698.18,1322.73 1701.43,1324.15 1704.67,1325.53 1707.91,1326.85 1711.15,1328.11 1714.4,1329.32 1717.64,1330.47 1720.88,1331.57 1724.13,1332.62 1727.37,1333.61 1730.61,1334.54 1733.86,1335.42 1737.1,1336.24 1740.34,1337.01 1743.59,1337.72 1746.83,1338.38 1750.07,1338.98 1753.31,1339.52 1756.56,1340.01 1759.8,1340.45 1763.04,1340.82 1766.29,1341.15 1769.53,1341.41 1772.77,1341.62 1776.02,1341.77 1779.26,1341.87 1782.5,1341.91 1785.74,1341.9 1788.99,1341.83 1792.23,1341.7 1795.47,1341.52 1798.72,1341.28 1801.96,1340.98 1805.2,1340.63 1808.45,1340.23 1811.69,1339.76 1814.93,1339.25 1818.17,1338.67 1821.42,1338.04 1824.66,1337.36 1827.9,1336.61 1831.15,1335.82 1834.39,1334.97 1837.63,1334.06 1840.88,1333.1 1844.12,1332.08 1847.36,1331 1850.61,1329.88 1853.85,1328.69 1857.09,1327.46 1860.33,1326.16 1863.58,1324.82 1866.82,1323.42 1870.06,1321.96 1873.31,1320.45 1876.55,1318.89 1879.79,1317.27 1883.04,1315.6 1886.28,1313.88 1889.52,1312.1 1892.76,1310.27 1896.01,1308.38 1899.25,1306.45 1902.49,1304.46 1905.74,1302.42 1908.98,1300.33 1912.22,1298.18 1915.47,1295.99 1918.71,1293.74 1921.95,1291.44 1925.19,1289.09 1928.44,1286.69 1931.68,1284.24 1934.92,1281.73 1938.17,1279.18 1941.41,1276.58 1944.65,1273.93 1947.9,1271.23 1951.14,1268.48 1954.38,1265.68 1957.63,1262.83 1960.87,1259.94 1964.11,1257 1967.35,1254.01 1970.6,1250.97 1973.84,1247.88 1977.08,1244.75 1980.33,1241.58 1983.57,1238.35 1986.81,1235.08 1990.06,1231.77 1993.3,1228.41 1996.54,1225.01 1999.78,1221.56 2003.03,1218.06 2006.27,1214.53 2009.51,1210.95 2012.76,1207.33 2016,1203.66 2019.24,1199.95 2022.49,1196.2 2025.73,1192.41 2028.97,1188.58 2032.21,1184.71 2035.46,1180.8 2038.7,1176.84 2041.94,1172.85 2045.19,1168.82 2048.43,1164.75 2051.67,1160.64 2054.92,1156.49 2058.16,1152.31 2061.4,1148.09 2064.65,1143.83 2067.89,1139.53 2071.13,1135.2 2074.37,1130.84 2077.62,1126.44 2080.86,1122 2084.1,1117.54 2087.35,1113.03 2090.59,1108.5 2093.83,1103.93 2097.08,1099.33 2100.32,1094.7 2103.56,1090.03 2106.8,1085.34 2110.05,1080.61 2113.29,1075.86 2116.53,1071.07 2119.78,1066.26 2123.02,1061.42 2126.26,1056.55 2129.51,1051.65 2132.75,1046.73 2135.99,1041.77 2139.23,1036.8 2142.48,1031.79 2145.72,1026.77 2148.96,1021.71 2152.21,1016.64 2155.45,1011.54 2158.69,1006.42 2161.94,1001.27 2165.18,996.103 2168.42,990.914 2171.67,985.704 2174.91,980.474 2178.15,975.224 2181.39,969.954 2184.64,964.666 2187.88,959.359 2191.12,954.035 2194.37,948.693 2197.61,943.334 2200.85,937.96 2204.1,932.569 2207.34,927.164 2210.58,921.744 2213.82,916.309 2217.07,910.862 2220.31,905.401 2223.55,899.928 2226.8,894.443 2230.04,888.947 2233.28,883.44 2236.53,877.923 2239.77,872.396 2243.01,866.86 2246.25,861.316 2249.5,855.763 2252.74,850.203 2255.98,844.637 2259.23,839.064 2262.47,833.485 2265.71,827.9 2268.96,822.312 2272.2,816.719 2275.44,811.122 2278.69,805.523 2281.93,799.921 2285.17,794.317 2288.41,788.713 2291.66,783.107 "/>
<circle clip-path="url(#clip022)" cx="1192.27" cy="631.509" r="14.4" fill="#e26f46" fill-rule="evenodd" fill-opacity="1" stroke="#000000" stroke-opacity="1" stroke-width="3.2"/>
<circle clip-path="url(#clip022)" cx="867.967" cy="313.656" r="14.4" fill="#e26f46" fill-rule="evenodd" fill-opacity="1" stroke="#000000" stroke-opacity="1" stroke-width="3.2"/>
<circle clip-path="url(#clip022)" cx="689.601" cy="228.625" r="14.4" fill="#e26f46" fill-rule="evenodd" fill-opacity="1" stroke="#000000" stroke-opacity="1" stroke-width="3.2"/>
<circle clip-path="url(#clip022)" cx="426.915" cy="622.219" r="14.4" fill="#e26f46" fill-rule="evenodd" fill-opacity="1" stroke="#000000" stroke-opacity="1" stroke-width="3.2"/>
<circle clip-path="url(#clip022)" cx="1117.68" cy="414.567" r="14.4" fill="#e26f46" fill-rule="evenodd" fill-opacity="1" stroke="#000000" stroke-opacity="1" stroke-width="3.2"/>
<circle clip-path="url(#clip022)" cx="355.569" cy="580.497" r="14.4" fill="#e26f46" fill-rule="evenodd" fill-opacity="1" stroke="#000000" stroke-opacity="1" stroke-width="3.2"/>
<circle clip-path="url(#clip022)" cx="689.601" cy="341.317" r="14.4" fill="#e26f46" fill-rule="evenodd" fill-opacity="1" stroke="#000000" stroke-opacity="1" stroke-width="3.2"/>
<circle clip-path="url(#clip022)" cx="2207.34" cy="985.737" r="14.4" fill="#e26f46" fill-rule="evenodd" fill-opacity="1" stroke="#000000" stroke-opacity="1" stroke-width="3.2"/>
<circle clip-path="url(#clip022)" cx="319.895" cy="734.384" r="14.4" fill="#e26f46" fill-rule="evenodd" fill-opacity="1" stroke="#000000" stroke-opacity="1" stroke-width="3.2"/>
<circle clip-path="url(#clip022)" cx="2132.75" cy="1063.65" r="14.4" fill="#e26f46" fill-rule="evenodd" fill-opacity="1" stroke="#000000" stroke-opacity="1" stroke-width="3.2"/>
<circle clip-path="url(#clip022)" cx="1707.91" cy="1445.72" r="14.4" fill="#e26f46" fill-rule="evenodd" fill-opacity="1" stroke="#000000" stroke-opacity="1" stroke-width="3.2"/>
<circle clip-path="url(#clip022)" cx="1737.1" cy="1283.59" r="14.4" fill="#e26f46" fill-rule="evenodd" fill-opacity="1" stroke="#000000" stroke-opacity="1" stroke-width="3.2"/>
<circle clip-path="url(#clip022)" cx="264.764" cy="889.571" r="14.4" fill="#e26f46" fill-rule="evenodd" fill-opacity="1" stroke="#000000" stroke-opacity="1" stroke-width="3.2"/>
<circle clip-path="url(#clip022)" cx="816.079" cy="87.9763" r="14.4" fill="#e26f46" fill-rule="evenodd" fill-opacity="1" stroke="#000000" stroke-opacity="1" stroke-width="3.2"/>
<circle clip-path="url(#clip022)" cx="2045.19" cy="1086.52" r="14.4" fill="#e26f46" fill-rule="evenodd" fill-opacity="1" stroke="#000000" stroke-opacity="1" stroke-width="3.2"/>
<circle clip-path="url(#clip022)" cx="1429.01" cy="1018.53" r="14.4" fill="#e26f46" fill-rule="evenodd" fill-opacity="1" stroke="#000000" stroke-opacity="1" stroke-width="3.2"/>
<circle clip-path="url(#clip022)" cx="764.19" cy="315.164" r="14.4" fill="#e26f46" fill-rule="evenodd" fill-opacity="1" stroke="#000000" stroke-opacity="1" stroke-width="3.2"/>
<circle clip-path="url(#clip022)" cx="1578.19" cy="1355.39" r="14.4" fill="#e26f46" fill-rule="evenodd" fill-opacity="1" stroke="#000000" stroke-opacity="1" stroke-width="3.2"/>
<circle clip-path="url(#clip022)" cx="790.135" cy="217.847" r="14.4" fill="#e26f46" fill-rule="evenodd" fill-opacity="1" stroke="#000000" stroke-opacity="1" stroke-width="3.2"/>
<circle clip-path="url(#clip022)" cx="413.943" cy="645.559" r="14.4" fill="#e26f46" fill-rule="evenodd" fill-opacity="1" stroke="#000000" stroke-opacity="1" stroke-width="3.2"/>
<path clip-path="url(#clip020)" d="M1953.46 250.738 L2280.8 250.738 L2280.8 95.2176 L1953.46 95.2176  Z" fill="#ffffff" fill-rule="evenodd" fill-opacity="1"/>
<polyline clip-path="url(#clip020)" style="stroke:#000000; stroke-linecap:round; stroke-linejoin:round; stroke-width:4; stroke-opacity:1; fill:none" points="1953.46,250.738 2280.8,250.738 2280.8,95.2176 1953.46,95.2176 1953.46,250.738 "/>
<polyline clip-path="url(#clip020)" style="stroke:#009af9; stroke-linecap:round; stroke-linejoin:round; stroke-width:4; stroke-opacity:1; fill:none" points="1977.44,147.058 2121.36,147.058 "/>
<path clip-path="url(#clip020)" d="M2152.76 131.051 L2152.76 138.412 L2161.53 138.412 L2161.53 141.722 L2152.76 141.722 L2152.76 155.796 Q2152.76 158.967 2153.61 159.87 Q2154.49 160.773 2157.16 160.773 L2161.53 160.773 L2161.53 164.338 L2157.16 164.338 Q2152.23 164.338 2150.35 162.509 Q2148.48 160.657 2148.48 155.796 L2148.48 141.722 L2145.35 141.722 L2145.35 138.412 L2148.48 138.412 L2148.48 131.051 L2152.76 131.051 Z" fill="#000000" fill-rule="nonzero" fill-opacity="1" /><path clip-path="url(#clip020)" d="M2182.16 142.393 Q2181.44 141.977 2180.58 141.791 Q2179.75 141.583 2178.73 141.583 Q2175.12 141.583 2173.17 143.944 Q2171.25 146.282 2171.25 150.68 L2171.25 164.338 L2166.97 164.338 L2166.97 138.412 L2171.25 138.412 L2171.25 142.44 Q2172.6 140.078 2174.75 138.944 Q2176.9 137.787 2179.98 137.787 Q2180.42 137.787 2180.95 137.856 Q2181.48 137.903 2182.13 138.018 L2182.16 142.393 Z" fill="#000000" fill-rule="nonzero" fill-opacity="1" /><path clip-path="url(#clip020)" d="M2186.18 154.106 L2186.18 138.412 L2190.44 138.412 L2190.44 153.944 Q2190.44 157.625 2191.88 159.476 Q2193.31 161.305 2196.18 161.305 Q2199.63 161.305 2201.62 159.106 Q2203.64 156.907 2203.64 153.111 L2203.64 138.412 L2207.9 138.412 L2207.9 164.338 L2203.64 164.338 L2203.64 160.356 Q2202.09 162.717 2200.03 163.875 Q2197.99 165.009 2195.28 165.009 Q2190.81 165.009 2188.5 162.231 Q2186.18 159.453 2186.18 154.106 M2196.9 137.787 L2196.9 137.787 Z" fill="#000000" fill-rule="nonzero" fill-opacity="1" /><path clip-path="url(#clip020)" d="M2220.88 131.051 L2220.88 138.412 L2229.66 138.412 L2229.66 141.722 L2220.88 141.722 L2220.88 155.796 Q2220.88 158.967 2221.74 159.87 Q2222.62 160.773 2225.28 160.773 L2229.66 160.773 L2229.66 164.338 L2225.28 164.338 Q2220.35 164.338 2218.48 162.509 Q2216.6 160.657 2216.6 155.796 L2216.6 141.722 L2213.48 141.722 L2213.48 138.412 L2216.6 138.412 L2216.6 131.051 L2220.88 131.051 Z" fill="#000000" fill-rule="nonzero" fill-opacity="1" /><path clip-path="url(#clip020)" d="M2256.81 148.689 L2256.81 164.338 L2252.55 164.338 L2252.55 148.828 Q2252.55 145.148 2251.11 143.319 Q2249.68 141.49 2246.81 141.49 Q2243.36 141.49 2241.37 143.69 Q2239.38 145.889 2239.38 149.685 L2239.38 164.338 L2235.1 164.338 L2235.1 128.319 L2239.38 128.319 L2239.38 142.44 Q2240.91 140.102 2242.97 138.944 Q2245.05 137.787 2247.76 137.787 Q2252.23 137.787 2254.52 140.565 Q2256.81 143.319 2256.81 148.689 Z" fill="#000000" fill-rule="nonzero" fill-opacity="1" /><circle clip-path="url(#clip020)" cx="2049.4" cy="198.898" r="20.48" fill="#e26f46" fill-rule="evenodd" fill-opacity="1" stroke="#000000" stroke-opacity="1" stroke-width="4.55111"/>
<path clip-path="url(#clip020)" d="M2164.26 194.187 L2164.26 180.159 L2168.52 180.159 L2168.52 216.178 L2164.26 216.178 L2164.26 212.289 Q2162.92 214.603 2160.86 215.738 Q2158.82 216.849 2155.95 216.849 Q2151.25 216.849 2148.29 213.099 Q2145.35 209.349 2145.35 203.238 Q2145.35 197.127 2148.29 193.377 Q2151.25 189.627 2155.95 189.627 Q2158.82 189.627 2160.86 190.761 Q2162.92 191.872 2164.26 194.187 M2149.75 203.238 Q2149.75 207.937 2151.67 210.622 Q2153.61 213.284 2156.99 213.284 Q2160.37 213.284 2162.32 210.622 Q2164.26 207.937 2164.26 203.238 Q2164.26 198.539 2162.32 195.877 Q2160.37 193.192 2156.99 193.192 Q2153.61 193.192 2151.67 195.877 Q2149.75 198.539 2149.75 203.238 Z" fill="#000000" fill-rule="nonzero" fill-opacity="1" /><path clip-path="url(#clip020)" d="M2189.08 203.145 Q2183.92 203.145 2181.92 204.326 Q2179.93 205.506 2179.93 208.354 Q2179.93 210.622 2181.42 211.965 Q2182.92 213.284 2185.49 213.284 Q2189.03 213.284 2191.16 210.784 Q2193.31 208.261 2193.31 204.094 L2193.31 203.145 L2189.08 203.145 M2197.57 201.386 L2197.57 216.178 L2193.31 216.178 L2193.31 212.242 Q2191.85 214.603 2189.68 215.738 Q2187.5 216.849 2184.36 216.849 Q2180.37 216.849 2178.01 214.627 Q2175.67 212.381 2175.67 208.631 Q2175.67 204.256 2178.59 202.034 Q2181.53 199.812 2187.34 199.812 L2193.31 199.812 L2193.31 199.395 Q2193.31 196.455 2191.37 194.858 Q2189.45 193.238 2185.95 193.238 Q2183.73 193.238 2181.62 193.77 Q2179.52 194.303 2177.57 195.367 L2177.57 191.432 Q2179.91 190.53 2182.11 190.09 Q2184.31 189.627 2186.39 189.627 Q2192.02 189.627 2194.79 192.543 Q2197.57 195.46 2197.57 201.386 Z" fill="#000000" fill-rule="nonzero" fill-opacity="1" /><path clip-path="url(#clip020)" d="M2210.56 182.891 L2210.56 190.252 L2219.33 190.252 L2219.33 193.562 L2210.56 193.562 L2210.56 207.636 Q2210.56 210.807 2211.42 211.71 Q2212.29 212.613 2214.96 212.613 L2219.33 212.613 L2219.33 216.178 L2214.96 216.178 Q2210.03 216.178 2208.15 214.349 Q2206.28 212.497 2206.28 207.636 L2206.28 193.562 L2203.15 193.562 L2203.15 190.252 L2206.28 190.252 L2206.28 182.891 L2210.56 182.891 Z" fill="#000000" fill-rule="nonzero" fill-opacity="1" /><path clip-path="url(#clip020)" d="M2236.72 203.145 Q2231.55 203.145 2229.56 204.326 Q2227.57 205.506 2227.57 208.354 Q2227.57 210.622 2229.05 211.965 Q2230.56 213.284 2233.13 213.284 Q2236.67 213.284 2238.8 210.784 Q2240.95 208.261 2240.95 204.094 L2240.95 203.145 L2236.72 203.145 M2245.21 201.386 L2245.21 216.178 L2240.95 216.178 L2240.95 212.242 Q2239.49 214.603 2237.32 215.738 Q2235.14 216.849 2231.99 216.849 Q2228.01 216.849 2225.65 214.627 Q2223.31 212.381 2223.31 208.631 Q2223.31 204.256 2226.23 202.034 Q2229.17 199.812 2234.98 199.812 L2240.95 199.812 L2240.95 199.395 Q2240.95 196.455 2239.01 194.858 Q2237.09 193.238 2233.59 193.238 Q2231.37 193.238 2229.26 193.77 Q2227.16 194.303 2225.21 195.367 L2225.21 191.432 Q2227.55 190.53 2229.75 190.09 Q2231.95 189.627 2234.03 189.627 Q2239.66 189.627 2242.43 192.543 Q2245.21 195.46 2245.21 201.386 Z" fill="#000000" fill-rule="nonzero" fill-opacity="1" /></svg>
