<?xml version="1.0" encoding="utf-8"?>
<svg xmlns="http://www.w3.org/2000/svg" xmlns:xlink="http://www.w3.org/1999/xlink" width="600" height="400" viewBox="0 0 2400 1600">
<defs>
  <clipPath id="clip080">
    <rect x="0" y="0" width="2400" height="1600"/>
  </clipPath>
</defs>
<path clip-path="url(#clip080)" d="M0 1600 L2400 1600 L2400 0 L0 0  Z" fill="#ffffff" fill-rule="evenodd" fill-opacity="1"/>
<defs>
  <clipPath id="clip081">
    <rect x="480" y="0" width="1681" height="1600"/>
  </clipPath>
</defs>
<path clip-path="url(#clip080)" d="M193.936 1486.45 L2352.76 1486.45 L2352.76 47.2441 L193.936 47.2441  Z" fill="#ffffff" fill-rule="evenodd" fill-opacity="1"/>
<defs>
  <clipPath id="clip082">
    <rect x="193" y="47" width="2160" height="1440"/>
  </clipPath>
</defs>
<polyline clip-path="url(#clip082)" style="stroke:#000000; stroke-linecap:round; stroke-linejoin:round; stroke-width:2; stroke-opacity:0.1; fill:none" points="255.035,1486.45 255.035,47.2441 "/>
<polyline clip-path="url(#clip082)" style="stroke:#000000; stroke-linecap:round; stroke-linejoin:round; stroke-width:2; stroke-opacity:0.1; fill:none" points="579.338,1486.45 579.338,47.2441 "/>
<polyline clip-path="url(#clip082)" style="stroke:#000000; stroke-linecap:round; stroke-linejoin:round; stroke-width:2; stroke-opacity:0.1; fill:none" points="903.641,1486.45 903.641,47.2441 "/>
<polyline clip-path="url(#clip082)" style="stroke:#000000; stroke-linecap:round; stroke-linejoin:round; stroke-width:2; stroke-opacity:0.1; fill:none" points="1227.94,1486.45 1227.94,47.2441 "/>
<polyline clip-path="url(#clip082)" style="stroke:#000000; stroke-linecap:round; stroke-linejoin:round; stroke-width:2; stroke-opacity:0.1; fill:none" points="1552.25,1486.45 1552.25,47.2441 "/>
<polyline clip-path="url(#clip082)" style="stroke:#000000; stroke-linecap:round; stroke-linejoin:round; stroke-width:2; stroke-opacity:0.1; fill:none" points="1876.55,1486.45 1876.55,47.2441 "/>
<polyline clip-path="url(#clip082)" style="stroke:#000000; stroke-linecap:round; stroke-linejoin:round; stroke-width:2; stroke-opacity:0.1; fill:none" points="2200.85,1486.45 2200.85,47.2441 "/>
<polyline clip-path="url(#clip082)" style="stroke:#000000; stroke-linecap:round; stroke-linejoin:round; stroke-width:2; stroke-opacity:0.1; fill:none" points="193.936,1278.69 2352.76,1278.69 "/>
<polyline clip-path="url(#clip082)" style="stroke:#000000; stroke-linecap:round; stroke-linejoin:round; stroke-width:2; stroke-opacity:0.1; fill:none" points="193.936,1015.73 2352.76,1015.73 "/>
<polyline clip-path="url(#clip082)" style="stroke:#000000; stroke-linecap:round; stroke-linejoin:round; stroke-width:2; stroke-opacity:0.1; fill:none" points="193.936,752.76 2352.76,752.76 "/>
<polyline clip-path="url(#clip082)" style="stroke:#000000; stroke-linecap:round; stroke-linejoin:round; stroke-width:2; stroke-opacity:0.1; fill:none" points="193.936,489.792 2352.76,489.792 "/>
<polyline clip-path="url(#clip082)" style="stroke:#000000; stroke-linecap:round; stroke-linejoin:round; stroke-width:2; stroke-opacity:0.1; fill:none" points="193.936,226.825 2352.76,226.825 "/>
<polyline clip-path="url(#clip080)" style="stroke:#000000; stroke-linecap:round; stroke-linejoin:round; stroke-width:4; stroke-opacity:1; fill:none" points="193.936,1486.45 2352.76,1486.45 "/>
<polyline clip-path="url(#clip080)" style="stroke:#000000; stroke-linecap:round; stroke-linejoin:round; stroke-width:4; stroke-opacity:1; fill:none" points="255.035,1486.45 255.035,1467.55 "/>
<polyline clip-path="url(#clip080)" style="stroke:#000000; stroke-linecap:round; stroke-linejoin:round; stroke-width:4; stroke-opacity:1; fill:none" points="579.338,1486.45 579.338,1467.55 "/>
<polyline clip-path="url(#clip080)" style="stroke:#000000; stroke-linecap:round; stroke-linejoin:round; stroke-width:4; stroke-opacity:1; fill:none" points="903.641,1486.45 903.641,1467.55 "/>
<polyline clip-path="url(#clip080)" style="stroke:#000000; stroke-linecap:round; stroke-linejoin:round; stroke-width:4; stroke-opacity:1; fill:none" points="1227.94,1486.45 1227.94,1467.55 "/>
<polyline clip-path="url(#clip080)" style="stroke:#000000; stroke-linecap:round; stroke-linejoin:round; stroke-width:4; stroke-opacity:1; fill:none" points="1552.25,1486.45 1552.25,1467.55 "/>
<polyline clip-path="url(#clip080)" style="stroke:#000000; stroke-linecap:round; stroke-linejoin:round; stroke-width:4; stroke-opacity:1; fill:none" points="1876.55,1486.45 1876.55,1467.55 "/>
<polyline clip-path="url(#clip080)" style="stroke:#000000; stroke-linecap:round; stroke-linejoin:round; stroke-width:4; stroke-opacity:1; fill:none" points="2200.85,1486.45 2200.85,1467.55 "/>
<path clip-path="url(#clip080)" d="M255.035 1517.37 Q251.424 1517.37 249.595 1520.93 Q247.789 1524.47 247.789 1531.6 Q247.789 1538.71 249.595 1542.27 Q251.424 1545.82 255.035 1545.82 Q258.669 1545.82 260.474 1542.27 Q262.303 1538.71 262.303 1531.6 Q262.303 1524.47 260.474 1520.93 Q258.669 1517.37 255.035 1517.37 M255.035 1513.66 Q260.845 1513.66 263.9 1518.27 Q266.979 1522.85 266.979 1531.6 Q266.979 1540.33 263.9 1544.94 Q260.845 1549.52 255.035 1549.52 Q249.225 1549.52 246.146 1544.94 Q243.09 1540.33 243.09 1531.6 Q243.09 1522.85 246.146 1518.27 Q249.225 1513.66 255.035 1513.66 Z" fill="#000000" fill-rule="nonzero" fill-opacity="1" /><path clip-path="url(#clip080)" d="M569.72 1544.91 L577.358 1544.91 L577.358 1518.55 L569.048 1520.21 L569.048 1515.95 L577.312 1514.29 L581.988 1514.29 L581.988 1544.91 L589.627 1544.91 L589.627 1548.85 L569.72 1548.85 L569.72 1544.91 Z" fill="#000000" fill-rule="nonzero" fill-opacity="1" /><path clip-path="url(#clip080)" d="M898.293 1544.91 L914.613 1544.91 L914.613 1548.85 L892.668 1548.85 L892.668 1544.91 Q895.33 1542.16 899.914 1537.53 Q904.52 1532.88 905.701 1531.53 Q907.946 1529.01 908.826 1527.27 Q909.729 1525.51 909.729 1523.82 Q909.729 1521.07 907.784 1519.33 Q905.863 1517.6 902.761 1517.6 Q900.562 1517.6 898.108 1518.36 Q895.678 1519.13 892.9 1520.68 L892.9 1515.95 Q895.724 1514.82 898.178 1514.24 Q900.631 1513.66 902.668 1513.66 Q908.039 1513.66 911.233 1516.35 Q914.428 1519.03 914.428 1523.52 Q914.428 1525.65 913.617 1527.57 Q912.83 1529.47 910.724 1532.07 Q910.145 1532.74 907.043 1535.95 Q903.942 1539.15 898.293 1544.91 Z" fill="#000000" fill-rule="nonzero" fill-opacity="1" /><path clip-path="url(#clip080)" d="M1232.19 1530.21 Q1235.55 1530.93 1237.42 1533.2 Q1239.32 1535.47 1239.32 1538.8 Q1239.32 1543.92 1235.8 1546.72 Q1232.28 1549.52 1225.8 1549.52 Q1223.63 1549.52 1221.31 1549.08 Q1219.02 1548.66 1216.57 1547.81 L1216.57 1543.29 Q1218.51 1544.43 1220.83 1545.01 Q1223.14 1545.58 1225.66 1545.58 Q1230.06 1545.58 1232.35 1543.85 Q1234.67 1542.11 1234.67 1538.8 Q1234.67 1535.75 1232.52 1534.03 Q1230.39 1532.3 1226.57 1532.3 L1222.54 1532.3 L1222.54 1528.45 L1226.75 1528.45 Q1230.2 1528.45 1232.03 1527.09 Q1233.86 1525.7 1233.86 1523.11 Q1233.86 1520.45 1231.96 1519.03 Q1230.08 1517.6 1226.57 1517.6 Q1224.64 1517.6 1222.45 1518.01 Q1220.25 1518.43 1217.61 1519.31 L1217.61 1515.14 Q1220.27 1514.4 1222.58 1514.03 Q1224.92 1513.66 1226.98 1513.66 Q1232.31 1513.66 1235.41 1516.09 Q1238.51 1518.5 1238.51 1522.62 Q1238.51 1525.49 1236.87 1527.48 Q1235.22 1529.45 1232.19 1530.21 Z" fill="#000000" fill-rule="nonzero" fill-opacity="1" /><path clip-path="url(#clip080)" d="M1555.26 1518.36 L1543.45 1536.81 L1555.26 1536.81 L1555.26 1518.36 M1554.03 1514.29 L1559.91 1514.29 L1559.91 1536.81 L1564.84 1536.81 L1564.84 1540.7 L1559.91 1540.7 L1559.91 1548.85 L1555.26 1548.85 L1555.26 1540.7 L1539.65 1540.7 L1539.65 1536.19 L1554.03 1514.29 Z" fill="#000000" fill-rule="nonzero" fill-opacity="1" /><path clip-path="url(#clip080)" d="M1866.83 1514.29 L1885.18 1514.29 L1885.18 1518.22 L1871.11 1518.22 L1871.11 1526.7 Q1872.13 1526.35 1873.15 1526.19 Q1874.17 1526 1875.18 1526 Q1880.97 1526 1884.35 1529.17 Q1887.73 1532.34 1887.73 1537.76 Q1887.73 1543.34 1884.26 1546.44 Q1880.79 1549.52 1874.47 1549.52 Q1872.29 1549.52 1870.02 1549.15 Q1867.78 1548.78 1865.37 1548.04 L1865.37 1543.34 Q1867.45 1544.47 1869.67 1545.03 Q1871.9 1545.58 1874.37 1545.58 Q1878.38 1545.58 1880.72 1543.48 Q1883.05 1541.37 1883.05 1537.76 Q1883.05 1534.15 1880.72 1532.04 Q1878.38 1529.94 1874.37 1529.94 Q1872.5 1529.94 1870.62 1530.35 Q1868.77 1530.77 1866.83 1531.65 L1866.83 1514.29 Z" fill="#000000" fill-rule="nonzero" fill-opacity="1" /><path clip-path="url(#clip080)" d="M2201.26 1529.7 Q2198.11 1529.7 2196.26 1531.86 Q2194.43 1534.01 2194.43 1537.76 Q2194.43 1541.49 2196.26 1543.66 Q2198.11 1545.82 2201.26 1545.82 Q2204.41 1545.82 2206.23 1543.66 Q2208.09 1541.49 2208.09 1537.76 Q2208.09 1534.01 2206.23 1531.86 Q2204.41 1529.7 2201.26 1529.7 M2210.54 1515.05 L2210.54 1519.31 Q2208.78 1518.48 2206.98 1518.04 Q2205.19 1517.6 2203.43 1517.6 Q2198.8 1517.6 2196.35 1520.72 Q2193.92 1523.85 2193.57 1530.17 Q2194.94 1528.15 2197 1527.09 Q2199.06 1526 2201.54 1526 Q2206.74 1526 2209.75 1529.17 Q2212.79 1532.32 2212.79 1537.76 Q2212.79 1543.08 2209.64 1546.3 Q2206.49 1549.52 2201.26 1549.52 Q2195.26 1549.52 2192.09 1544.94 Q2188.92 1540.33 2188.92 1531.6 Q2188.92 1523.41 2192.81 1518.55 Q2196.7 1513.66 2203.25 1513.66 Q2205.01 1513.66 2206.79 1514.01 Q2208.6 1514.36 2210.54 1515.05 Z" fill="#000000" fill-rule="nonzero" fill-opacity="1" /><polyline clip-path="url(#clip080)" style="stroke:#000000; stroke-linecap:round; stroke-linejoin:round; stroke-width:4; stroke-opacity:1; fill:none" points="193.936,1486.45 193.936,47.2441 "/>
<polyline clip-path="url(#clip080)" style="stroke:#000000; stroke-linecap:round; stroke-linejoin:round; stroke-width:4; stroke-opacity:1; fill:none" points="193.936,1278.69 212.834,1278.69 "/>
<polyline clip-path="url(#clip080)" style="stroke:#000000; stroke-linecap:round; stroke-linejoin:round; stroke-width:4; stroke-opacity:1; fill:none" points="193.936,1015.73 212.834,1015.73 "/>
<polyline clip-path="url(#clip080)" style="stroke:#000000; stroke-linecap:round; stroke-linejoin:round; stroke-width:4; stroke-opacity:1; fill:none" points="193.936,752.76 212.834,752.76 "/>
<polyline clip-path="url(#clip080)" style="stroke:#000000; stroke-linecap:round; stroke-linejoin:round; stroke-width:4; stroke-opacity:1; fill:none" points="193.936,489.792 212.834,489.792 "/>
<polyline clip-path="url(#clip080)" style="stroke:#000000; stroke-linecap:round; stroke-linejoin:round; stroke-width:4; stroke-opacity:1; fill:none" points="193.936,226.825 212.834,226.825 "/>
<path clip-path="url(#clip080)" d="M50.9921 1279.15 L80.6679 1279.15 L80.6679 1283.08 L50.9921 1283.08 L50.9921 1279.15 Z" fill="#000000" fill-rule="nonzero" fill-opacity="1" /><path clip-path="url(#clip080)" d="M91.5706 1292.04 L99.2095 1292.04 L99.2095 1265.67 L90.8993 1267.34 L90.8993 1263.08 L99.1632 1261.41 L103.839 1261.41 L103.839 1292.04 L111.478 1292.04 L111.478 1295.97 L91.5706 1295.97 L91.5706 1292.04 Z" fill="#000000" fill-rule="nonzero" fill-opacity="1" /><path clip-path="url(#clip080)" d="M120.922 1290.09 L125.807 1290.09 L125.807 1295.97 L120.922 1295.97 L120.922 1290.09 Z" fill="#000000" fill-rule="nonzero" fill-opacity="1" /><path clip-path="url(#clip080)" d="M145.992 1264.49 Q142.381 1264.49 140.552 1268.06 Q138.746 1271.6 138.746 1278.73 Q138.746 1285.84 140.552 1289.4 Q142.381 1292.94 145.992 1292.94 Q149.626 1292.94 151.431 1289.4 Q153.26 1285.84 153.26 1278.73 Q153.26 1271.6 151.431 1268.06 Q149.626 1264.49 145.992 1264.49 M145.992 1260.79 Q151.802 1260.79 154.857 1265.4 Q157.936 1269.98 157.936 1278.73 Q157.936 1287.46 154.857 1292.06 Q151.802 1296.65 145.992 1296.65 Q140.181 1296.65 137.103 1292.06 Q134.047 1287.46 134.047 1278.73 Q134.047 1269.98 137.103 1265.4 Q140.181 1260.79 145.992 1260.79 Z" fill="#000000" fill-rule="nonzero" fill-opacity="1" /><path clip-path="url(#clip080)" d="M51.9875 1016.18 L81.6633 1016.18 L81.6633 1020.11 L51.9875 1020.11 L51.9875 1016.18 Z" fill="#000000" fill-rule="nonzero" fill-opacity="1" /><path clip-path="url(#clip080)" d="M101.756 1001.53 Q98.1447 1001.53 96.316 1005.09 Q94.5104 1008.63 94.5104 1015.76 Q94.5104 1022.87 96.316 1026.43 Q98.1447 1029.97 101.756 1029.97 Q105.39 1029.97 107.196 1026.43 Q109.024 1022.87 109.024 1015.76 Q109.024 1008.63 107.196 1005.09 Q105.39 1001.53 101.756 1001.53 M101.756 997.822 Q107.566 997.822 110.621 1002.43 Q113.7 1007.01 113.7 1015.76 Q113.7 1024.49 110.621 1029.09 Q107.566 1033.68 101.756 1033.68 Q95.9456 1033.68 92.8669 1029.09 Q89.8114 1024.49 89.8114 1015.76 Q89.8114 1007.01 92.8669 1002.43 Q95.9456 997.822 101.756 997.822 Z" fill="#000000" fill-rule="nonzero" fill-opacity="1" /><path clip-path="url(#clip080)" d="M121.918 1027.13 L126.802 1027.13 L126.802 1033.01 L121.918 1033.01 L121.918 1027.13 Z" fill="#000000" fill-rule="nonzero" fill-opacity="1" /><path clip-path="url(#clip080)" d="M137.033 998.447 L155.39 998.447 L155.39 1002.38 L141.316 1002.38 L141.316 1010.85 Q142.334 1010.51 143.353 1010.34 Q144.371 1010.16 145.39 1010.16 Q151.177 1010.16 154.556 1013.33 Q157.936 1016.5 157.936 1021.92 Q157.936 1027.5 154.464 1030.6 Q150.992 1033.68 144.672 1033.68 Q142.496 1033.68 140.228 1033.31 Q137.982 1032.94 135.575 1032.2 L135.575 1027.5 Q137.658 1028.63 139.881 1029.19 Q142.103 1029.74 144.58 1029.74 Q148.584 1029.74 150.922 1027.64 Q153.26 1025.53 153.26 1021.92 Q153.26 1018.31 150.922 1016.2 Q148.584 1014.09 144.58 1014.09 Q142.705 1014.09 140.83 1014.51 Q138.978 1014.93 137.033 1015.81 L137.033 998.447 Z" fill="#000000" fill-rule="nonzero" fill-opacity="1" /><path clip-path="url(#clip080)" d="M100.76 738.558 Q97.1493 738.558 95.3206 742.123 Q93.515 745.665 93.515 752.794 Q93.515 759.901 95.3206 763.466 Q97.1493 767.007 100.76 767.007 Q104.395 767.007 106.2 763.466 Q108.029 759.901 108.029 752.794 Q108.029 745.665 106.2 742.123 Q104.395 738.558 100.76 738.558 M100.76 734.855 Q106.571 734.855 109.626 739.461 Q112.705 744.044 112.705 752.794 Q112.705 761.521 109.626 766.128 Q106.571 770.711 100.76 770.711 Q94.9502 770.711 91.8715 766.128 Q88.816 761.521 88.816 752.794 Q88.816 744.044 91.8715 739.461 Q94.9502 734.855 100.76 734.855 Z" fill="#000000" fill-rule="nonzero" fill-opacity="1" /><path clip-path="url(#clip080)" d="M120.922 764.16 L125.807 764.16 L125.807 770.04 L120.922 770.04 L120.922 764.16 Z" fill="#000000" fill-rule="nonzero" fill-opacity="1" /><path clip-path="url(#clip080)" d="M145.992 738.558 Q142.381 738.558 140.552 742.123 Q138.746 745.665 138.746 752.794 Q138.746 759.901 140.552 763.466 Q142.381 767.007 145.992 767.007 Q149.626 767.007 151.431 763.466 Q153.26 759.901 153.26 752.794 Q153.26 745.665 151.431 742.123 Q149.626 738.558 145.992 738.558 M145.992 734.855 Q151.802 734.855 154.857 739.461 Q157.936 744.044 157.936 752.794 Q157.936 761.521 154.857 766.128 Q151.802 770.711 145.992 770.711 Q140.181 770.711 137.103 766.128 Q134.047 761.521 134.047 752.794 Q134.047 744.044 137.103 739.461 Q140.181 734.855 145.992 734.855 Z" fill="#000000" fill-rule="nonzero" fill-opacity="1" /><path clip-path="url(#clip080)" d="M101.756 475.591 Q98.1447 475.591 96.316 479.156 Q94.5104 482.698 94.5104 489.827 Q94.5104 496.934 96.316 500.498 Q98.1447 504.04 101.756 504.04 Q105.39 504.04 107.196 500.498 Q109.024 496.934 109.024 489.827 Q109.024 482.698 107.196 479.156 Q105.39 475.591 101.756 475.591 M101.756 471.887 Q107.566 471.887 110.621 476.494 Q113.7 481.077 113.7 489.827 Q113.7 498.554 110.621 503.16 Q107.566 507.744 101.756 507.744 Q95.9456 507.744 92.8669 503.16 Q89.8114 498.554 89.8114 489.827 Q89.8114 481.077 92.8669 476.494 Q95.9456 471.887 101.756 471.887 Z" fill="#000000" fill-rule="nonzero" fill-opacity="1" /><path clip-path="url(#clip080)" d="M121.918 501.193 L126.802 501.193 L126.802 507.072 L121.918 507.072 L121.918 501.193 Z" fill="#000000" fill-rule="nonzero" fill-opacity="1" /><path clip-path="url(#clip080)" d="M137.033 472.512 L155.39 472.512 L155.39 476.448 L141.316 476.448 L141.316 484.92 Q142.334 484.573 143.353 484.411 Q144.371 484.225 145.39 484.225 Q151.177 484.225 154.556 487.397 Q157.936 490.568 157.936 495.985 Q157.936 501.563 154.464 504.665 Q150.992 507.744 144.672 507.744 Q142.496 507.744 140.228 507.373 Q137.982 507.003 135.575 506.262 L135.575 501.563 Q137.658 502.697 139.881 503.253 Q142.103 503.809 144.58 503.809 Q148.584 503.809 150.922 501.702 Q153.26 499.596 153.26 495.985 Q153.26 492.373 150.922 490.267 Q148.584 488.161 144.58 488.161 Q142.705 488.161 140.83 488.577 Q138.978 488.994 137.033 489.873 L137.033 472.512 Z" fill="#000000" fill-rule="nonzero" fill-opacity="1" /><path clip-path="url(#clip080)" d="M91.5706 240.17 L99.2095 240.17 L99.2095 213.805 L90.8993 215.471 L90.8993 211.212 L99.1632 209.545 L103.839 209.545 L103.839 240.17 L111.478 240.17 L111.478 244.105 L91.5706 244.105 L91.5706 240.17 Z" fill="#000000" fill-rule="nonzero" fill-opacity="1" /><path clip-path="url(#clip080)" d="M120.922 238.226 L125.807 238.226 L125.807 244.105 L120.922 244.105 L120.922 238.226 Z" fill="#000000" fill-rule="nonzero" fill-opacity="1" /><path clip-path="url(#clip080)" d="M145.992 212.624 Q142.381 212.624 140.552 216.189 Q138.746 219.73 138.746 226.86 Q138.746 233.966 140.552 237.531 Q142.381 241.073 145.992 241.073 Q149.626 241.073 151.431 237.531 Q153.26 233.966 153.26 226.86 Q153.26 219.73 151.431 216.189 Q149.626 212.624 145.992 212.624 M145.992 208.92 Q151.802 208.92 154.857 213.527 Q157.936 218.11 157.936 226.86 Q157.936 235.587 154.857 240.193 Q151.802 244.777 145.992 244.777 Q140.181 244.777 137.103 240.193 Q134.047 235.587 134.047 226.86 Q134.047 218.11 137.103 213.527 Q140.181 208.92 145.992 208.92 Z" fill="#000000" fill-rule="nonzero" fill-opacity="1" /><polyline clip-path="url(#clip082)" style="stroke:#009af9; stroke-linecap:round; stroke-linejoin:round; stroke-width:4; stroke-opacity:1; fill:none" points="255.035,752.76 258.278,747.5 261.521,742.242 264.764,736.984 268.007,731.728 271.25,726.474 274.493,721.222 277.736,715.974 280.979,710.73 284.222,705.489 287.465,700.254 290.708,695.023 293.951,689.799 297.194,684.581 300.437,679.369 303.68,674.165 306.923,668.969 310.166,663.781 313.409,658.602 316.652,653.432 319.895,648.273 323.138,643.123 326.381,637.985 329.624,632.858 332.867,627.744 336.11,622.641 339.353,617.552 342.596,612.476 345.84,607.415 349.083,602.368 352.326,597.335 355.569,592.319 358.812,587.318 362.055,582.334 365.298,577.367 368.541,572.418 371.784,567.486 375.027,562.574 378.27,557.68 381.513,552.805 384.756,547.951 387.999,543.117 391.242,538.304 394.485,533.513 397.728,528.743 400.971,523.996 404.214,519.272 407.457,514.571 410.7,509.894 413.943,505.241 417.186,500.613 420.429,496.01 423.672,491.433 426.915,486.882 430.158,482.358 433.401,477.86 436.644,473.391 439.887,468.949 443.13,464.535 446.373,460.15 449.616,455.795 452.859,451.469 456.103,447.173 459.346,442.908 462.589,438.674 465.832,434.471 469.075,430.3 472.318,426.162 475.561,422.056 478.804,417.983 482.047,413.943 485.29,409.938 488.533,405.967 491.776,402.03 495.019,398.128 498.262,394.262 501.505,390.432 504.748,386.638 507.991,382.881 511.234,379.16 514.477,375.477 517.72,371.832 520.963,368.225 524.206,364.656 527.449,361.126 530.692,357.635 533.935,354.184 537.178,350.773 540.421,347.402 543.664,344.071 546.907,340.781 550.15,337.533 553.393,334.325 556.636,331.16 559.879,328.037 563.122,324.956 566.366,321.919 569.609,318.924 572.852,315.973 576.095,313.065 579.338,310.201 582.581,307.382 585.824,304.607 589.067,301.877 592.31,299.192 595.553,296.552 598.796,293.958 602.039,291.41 605.282,288.908 608.525,286.452 611.768,284.043 615.011,281.681 618.254,279.366 621.497,277.098 624.74,274.878 627.983,272.706 631.226,270.581 634.469,268.505 637.712,266.478 640.955,264.499 644.198,262.568 647.441,260.687 650.684,258.855 653.927,257.072 657.17,255.339 660.413,253.656 663.656,252.023 666.899,250.439 670.142,248.906 673.385,247.423 676.629,245.991 679.872,244.61 683.115,243.279 686.358,241.999 689.601,240.771 692.844,239.593 696.087,238.467 699.33,237.392 702.573,236.369 705.816,235.398 709.059,234.478 712.302,233.61 715.545,232.794 718.788,232.03 722.031,231.318 725.274,230.658 728.517,230.05 731.76,229.495 735.003,228.992 738.246,228.541 741.489,228.143 744.732,227.797 747.975,227.504 751.218,227.263 754.461,227.075 757.704,226.939 760.947,226.856 764.19,226.825 767.433,226.848 770.676,226.922 773.919,227.05 777.162,227.229 780.405,227.462 783.648,227.747 786.892,228.084 790.135,228.474 793.378,228.916 796.621,229.411 799.864,229.958 803.107,230.558 806.35,231.209 809.593,231.913 812.836,232.669 816.079,233.476 819.322,234.336 822.565,235.248 825.808,236.211 829.051,237.226 832.294,238.292 835.537,239.41 838.78,240.58 842.023,241.8 845.266,243.072 848.509,244.394 851.752,245.768 854.995,247.192 858.238,248.667 861.481,250.192 864.724,251.767 867.967,253.393 871.21,255.068 874.453,256.793 877.696,258.568 880.939,260.392 884.182,262.265 887.425,264.188 890.668,266.159 893.911,268.179 897.155,270.248 900.398,272.364 903.641,274.529 906.884,276.741 910.127,279.002 913.37,281.309 916.613,283.664 919.856,286.065 923.099,288.514 926.342,291.008 929.585,293.549 932.828,296.136 936.071,298.768 939.314,301.446 942.557,304.169 945.8,306.937 949.043,309.749 952.286,312.606 955.529,315.507 958.772,318.451 962.015,321.439 965.258,324.47 968.501,327.544 971.744,330.66 974.987,333.818 978.23,337.019 981.473,340.261 984.716,343.544 987.959,346.868 991.202,350.233 994.445,353.638 997.688,357.083 1000.93,360.568 1004.17,364.091 1007.42,367.654 1010.66,371.255 1013.9,374.894 1017.15,378.571 1020.39,382.286 1023.63,386.037 1026.88,389.825 1030.12,393.65 1033.36,397.51 1036.6,401.406 1039.85,405.337 1043.09,409.303 1046.33,413.303 1049.58,417.337 1052.82,421.405 1056.06,425.506 1059.31,429.639 1062.55,433.805 1065.79,438.003 1069.04,442.232 1072.28,446.492 1075.52,450.783 1078.76,455.104 1082.01,459.455 1085.25,463.835 1088.49,468.244 1091.74,472.681 1094.98,477.147 1098.22,481.64 1101.47,486.16 1104.71,490.707 1107.95,495.28 1111.19,499.878 1114.44,504.503 1117.68,509.151 1120.92,513.825 1124.17,518.522 1127.41,523.242 1130.65,527.986 1133.9,532.752 1137.14,537.54 1140.38,542.349 1143.62,547.18 1146.87,552.031 1150.11,556.902 1153.35,561.793 1156.6,566.703 1159.84,571.631 1163.08,576.578 1166.33,581.542 1169.57,586.523 1172.81,591.521 1176.06,596.535 1179.3,601.565 1182.54,606.61 1185.78,611.669 1189.03,616.743 1192.27,621.83 1195.51,626.93 1198.76,632.043 1202,637.168 1205.24,642.304 1208.49,647.452 1211.73,652.61 1214.97,657.778 1218.21,662.955 1221.46,668.142 1224.7,673.337 1227.94,678.54 1231.19,683.75 1234.43,688.967 1237.67,694.191 1240.92,699.42 1244.16,704.655 1247.4,709.895 1250.64,715.139 1253.89,720.386 1257.13,725.637 1260.37,730.891 1263.62,736.147 1266.86,741.404 1270.1,746.663 1273.35,751.922 1276.59,757.181 1279.83,762.44 1283.08,767.698 1286.32,772.954 1289.56,778.209 1292.8,783.461 1296.05,788.709 1299.29,793.954 1302.53,799.195 1305.78,804.432 1309.02,809.663 1312.26,814.889 1315.51,820.108 1318.75,825.321 1321.99,830.526 1325.23,835.723 1328.48,840.913 1331.72,846.093 1334.96,851.264 1338.21,856.426 1341.45,861.576 1344.69,866.716 1347.94,871.845 1351.18,876.962 1354.42,882.066 1357.66,887.157 1360.91,892.235 1364.15,897.299 1367.39,902.349 1370.64,907.383 1373.88,912.402 1377.12,917.406 1380.37,922.392 1383.61,927.362 1386.85,932.314 1390.1,937.249 1393.34,942.164 1396.58,947.061 1399.82,951.939 1403.07,956.796 1406.31,961.633 1409.55,966.45 1412.8,971.245 1416.04,976.018 1419.28,980.768 1422.53,985.496 1425.77,990.201 1429.01,994.882 1432.25,999.538 1435.5,1004.17 1438.74,1008.78 1441.98,1013.36 1445.23,1017.91 1448.47,1022.44 1451.71,1026.94 1454.96,1031.42 1458.2,1035.87 1461.44,1040.28 1464.68,1044.67 1467.93,1049.03 1471.17,1053.36 1474.41,1057.66 1477.66,1061.93 1480.9,1066.17 1484.14,1070.38 1487.39,1074.56 1490.63,1078.7 1493.87,1082.81 1497.11,1086.89 1500.36,1090.93 1503.6,1094.95 1506.84,1098.92 1510.09,1102.86 1513.33,1106.77 1516.57,1110.64 1519.82,1114.48 1523.06,1118.28 1526.3,1122.04 1529.55,1125.77 1532.79,1129.46 1536.03,1133.11 1539.27,1136.72 1542.52,1140.3 1545.76,1143.83 1549,1147.33 1552.25,1150.79 1555.49,1154.21 1558.73,1157.58 1561.98,1160.92 1565.22,1164.22 1568.46,1167.47 1571.7,1170.69 1574.95,1173.86 1578.19,1176.99 1581.43,1180.07 1584.68,1183.12 1587.92,1186.12 1591.16,1189.08 1594.41,1191.99 1597.65,1194.86 1600.89,1197.69 1604.13,1200.47 1607.38,1203.21 1610.62,1205.9 1613.86,1208.55 1617.11,1211.15 1620.35,1213.71 1623.59,1216.22 1626.84,1218.68 1630.08,1221.1 1633.32,1223.47 1636.57,1225.79 1639.81,1228.06 1643.05,1230.29 1646.29,1232.47 1649.54,1234.6 1652.78,1236.69 1656.02,1238.72 1659.27,1240.71 1662.51,1242.65 1665.75,1244.54 1669,1246.38 1672.24,1248.17 1675.48,1249.91 1678.72,1251.6 1681.97,1253.24 1685.21,1254.83 1688.45,1256.37 1691.7,1257.86 1694.94,1259.3 1698.18,1260.69 1701.43,1262.03 1704.67,1263.32 1707.91,1264.56 1711.15,1265.74 1714.4,1266.88 1717.64,1267.96 1720.88,1268.99 1724.13,1269.97 1727.37,1270.9 1730.61,1271.77 1733.86,1272.6 1737.1,1273.37 1740.34,1274.09 1743.59,1274.76 1746.83,1275.38 1750.07,1275.94 1753.31,1276.45 1756.56,1276.91 1759.8,1277.32 1763.04,1277.67 1766.29,1277.97 1769.53,1278.22 1772.77,1278.42 1776.02,1278.56 1779.26,1278.65 1782.5,1278.69 1785.74,1278.68 1788.99,1278.61 1792.23,1278.49 1795.47,1278.32 1798.72,1278.1 1801.96,1277.82 1805.2,1277.49 1808.45,1277.11 1811.69,1276.68 1814.93,1276.19 1818.17,1275.65 1821.42,1275.06 1824.66,1274.42 1827.9,1273.72 1831.15,1272.97 1834.39,1272.17 1837.63,1271.32 1840.88,1270.42 1844.12,1269.47 1847.36,1268.46 1850.61,1267.4 1853.85,1266.29 1857.09,1265.13 1860.33,1263.92 1863.58,1262.65 1866.82,1261.34 1870.06,1259.97 1873.31,1258.56 1876.55,1257.09 1879.79,1255.57 1883.04,1254.01 1886.28,1252.39 1889.52,1250.72 1892.76,1249 1896.01,1247.24 1899.25,1245.42 1902.49,1243.56 1905.74,1241.64 1908.98,1239.68 1912.22,1237.67 1915.47,1235.6 1918.71,1233.5 1921.95,1231.34 1925.19,1229.13 1928.44,1226.88 1931.68,1224.58 1934.92,1222.23 1938.17,1219.84 1941.41,1217.4 1944.65,1214.91 1947.9,1212.38 1951.14,1209.8 1954.38,1207.17 1957.63,1204.5 1960.87,1201.79 1964.11,1199.03 1967.35,1196.22 1970.6,1193.37 1973.84,1190.48 1977.08,1187.54 1980.33,1184.56 1983.57,1181.53 1986.81,1178.47 1990.06,1175.36 1993.3,1172.21 1996.54,1169.01 1999.78,1165.78 2003.03,1162.5 2006.27,1159.18 2009.51,1155.82 2012.76,1152.43 2016,1148.99 2019.24,1145.51 2022.49,1141.99 2025.73,1138.44 2028.97,1134.84 2032.21,1131.21 2035.46,1127.54 2038.7,1123.83 2041.94,1120.08 2045.19,1116.3 2048.43,1112.48 2051.67,1108.63 2054.92,1104.74 2058.16,1100.81 2061.4,1096.85 2064.65,1092.86 2067.89,1088.83 2071.13,1084.76 2074.37,1080.67 2077.62,1076.54 2080.86,1072.38 2084.1,1068.19 2087.35,1063.96 2090.59,1059.71 2093.83,1055.42 2097.08,1051.11 2100.32,1046.76 2103.56,1042.38 2106.8,1037.98 2110.05,1033.55 2113.29,1029.09 2116.53,1024.6 2119.78,1020.08 2123.02,1015.54 2126.26,1010.97 2129.51,1006.37 2132.75,1001.75 2135.99,997.11 2139.23,992.44 2142.48,987.747 2145.72,983.03 2148.96,978.29 2152.21,973.528 2155.45,968.743 2158.69,963.937 2161.94,959.11 2165.18,954.262 2168.42,949.394 2171.67,944.506 2174.91,939.6 2178.15,934.674 2181.39,929.73 2184.64,924.769 2187.88,919.79 2191.12,914.795 2194.37,909.783 2197.61,904.756 2200.85,899.714 2204.1,894.657 2207.34,889.585 2210.58,884.5 2213.82,879.402 2217.07,874.291 2220.31,869.168 2223.55,864.034 2226.8,858.888 2230.04,853.732 2233.28,848.565 2236.53,843.389 2239.77,838.204 2243.01,833.01 2246.25,827.809 2249.5,822.599 2252.74,817.383 2255.98,812.161 2259.23,806.932 2262.47,801.698 2265.71,796.459 2268.96,791.216 2272.2,785.969 2275.44,780.718 2278.69,775.465 2281.93,770.21 2285.17,764.952 2288.41,759.694 2291.66,754.435 "/>
<circle clip-path="url(#clip082)" cx="1192.27" cy="612.209" r="14.4" fill="#e26f46" fill-rule="evenodd" fill-opacity="1" stroke="#000000" stroke-opacity="1" stroke-width="3.2"/>
<circle clip-path="url(#clip082)" cx="867.967" cy="314.008" r="14.4" fill="#e26f46" fill-rule="evenodd" fill-opacity="1" stroke="#000000" stroke-opacity="1" stroke-width="3.2"/>
<circle clip-path="url(#clip082)" cx="689.601" cy="234.234" r="14.4" fill="#e26f46" fill-rule="evenodd" fill-opacity="1" stroke="#000000" stroke-opacity="1" stroke-width="3.2"/>
<circle clip-path="url(#clip082)" cx="426.915" cy="603.494" r="14.4" fill="#e26f46" fill-rule="evenodd" fill-opacity="1" stroke="#000000" stroke-opacity="1" stroke-width="3.2"/>
<circle clip-path="url(#clip082)" cx="1117.68" cy="408.68" r="14.4" fill="#e26f46" fill-rule="evenodd" fill-opacity="1" stroke="#000000" stroke-opacity="1" stroke-width="3.2"/>
<circle clip-path="url(#clip082)" cx="355.569" cy="564.351" r="14.4" fill="#e26f46" fill-rule="evenodd" fill-opacity="1" stroke="#000000" stroke-opacity="1" stroke-width="3.2"/>
<circle clip-path="url(#clip082)" cx="689.601" cy="339.959" r="14.4" fill="#e26f46" fill-rule="evenodd" fill-opacity="1" stroke="#000000" stroke-opacity="1" stroke-width="3.2"/>
<circle clip-path="url(#clip082)" cx="2207.34" cy="944.537" r="14.4" fill="#e26f46" fill-rule="evenodd" fill-opacity="1" stroke="#000000" stroke-opacity="1" stroke-width="3.2"/>
<circle clip-path="url(#clip082)" cx="319.895" cy="708.724" r="14.4" fill="#e26f46" fill-rule="evenodd" fill-opacity="1" stroke="#000000" stroke-opacity="1" stroke-width="3.2"/>
<circle clip-path="url(#clip082)" cx="2132.75" cy="1017.64" r="14.4" fill="#e26f46" fill-rule="evenodd" fill-opacity="1" stroke="#000000" stroke-opacity="1" stroke-width="3.2"/>
<circle clip-path="url(#clip082)" cx="1707.91" cy="1376.08" r="14.4" fill="#e26f46" fill-rule="evenodd" fill-opacity="1" stroke="#000000" stroke-opacity="1" stroke-width="3.2"/>
<circle clip-path="url(#clip082)" cx="1737.1" cy="1223.97" r="14.4" fill="#e26f46" fill-rule="evenodd" fill-opacity="1" stroke="#000000" stroke-opacity="1" stroke-width="3.2"/>
<circle clip-path="url(#clip082)" cx="264.764" cy="854.316" r="14.4" fill="#e26f46" fill-rule="evenodd" fill-opacity="1" stroke="#000000" stroke-opacity="1" stroke-width="3.2"/>
<circle clip-path="url(#clip082)" cx="816.079" cy="102.281" r="14.4" fill="#e26f46" fill-rule="evenodd" fill-opacity="1" stroke="#000000" stroke-opacity="1" stroke-width="3.2"/>
<circle clip-path="url(#clip082)" cx="2045.19" cy="1039.09" r="14.4" fill="#e26f46" fill-rule="evenodd" fill-opacity="1" stroke="#000000" stroke-opacity="1" stroke-width="3.2"/>
<circle clip-path="url(#clip082)" cx="1429.01" cy="975.302" r="14.4" fill="#e26f46" fill-rule="evenodd" fill-opacity="1" stroke="#000000" stroke-opacity="1" stroke-width="3.2"/>
<circle clip-path="url(#clip082)" cx="764.19" cy="315.423" r="14.4" fill="#e26f46" fill-rule="evenodd" fill-opacity="1" stroke="#000000" stroke-opacity="1" stroke-width="3.2"/>
<circle clip-path="url(#clip082)" cx="1578.19" cy="1291.33" r="14.4" fill="#e26f46" fill-rule="evenodd" fill-opacity="1" stroke="#000000" stroke-opacity="1" stroke-width="3.2"/>
<circle clip-path="url(#clip082)" cx="790.135" cy="224.122" r="14.4" fill="#e26f46" fill-rule="evenodd" fill-opacity="1" stroke="#000000" stroke-opacity="1" stroke-width="3.2"/>
<circle clip-path="url(#clip082)" cx="413.943" cy="625.391" r="14.4" fill="#e26f46" fill-rule="evenodd" fill-opacity="1" stroke="#000000" stroke-opacity="1" stroke-width="3.2"/>
<path clip-path="url(#clip082)" d="M255.035 968.93 L258.278 963.371 L261.521 957.824 L264.764 952.297 L268.007 946.796 L271.25 941.322 L274.493 935.877 L277.736 930.463 L280.979 925.083 L284.222 919.738 L287.465 914.431 L290.708 909.166 L293.951 903.945 L297.194 898.773 L300.437 893.654 L303.68 888.593 L306.923 883.595 L310.166 878.666 L313.409 873.813 L316.652 869.042 L319.895 864.362 L323.138 859.777 L326.381 855.29 L329.624 850.9 L332.867 846.61 L336.11 842.419 L339.353 838.33 L342.596 834.345 L345.84 830.468 L349.083 826.701 L352.326 823.051 L355.569 819.521 L358.812 816.115 L362.055 812.827 L365.298 809.652 L368.541 806.583 L371.784 803.616 L375.027 800.745 L378.27 797.967 L381.513 795.279 L384.756 792.68 L387.999 790.169 L391.242 787.744 L394.485 785.407 L397.728 783.158 L400.971 781 L404.214 778.935 L407.457 776.965 L410.7 775.093 L413.943 773.323 L417.186 771.657 L420.429 770.092 L423.672 768.624 L426.915 767.248 L430.158 765.96 L433.401 764.748 L436.644 763.599 L439.887 762.502 L443.13 761.445 L446.373 760.417 L449.616 759.406 L452.859 758.402 L456.103 757.396 L459.346 756.378 L462.589 755.339 L465.832 754.271 L469.075 753.166 L472.318 752.017 L475.561 750.817 L478.804 749.56 L482.047 748.24 L485.29 746.851 L488.533 745.389 L491.776 743.849 L495.019 742.226 L498.262 740.517 L501.505 738.718 L504.748 736.827 L507.991 734.839 L511.234 732.753 L514.477 730.565 L517.72 728.275 L520.963 725.88 L524.206 723.378 L527.449 720.768 L530.692 718.05 L533.935 715.221 L537.178 712.282 L540.421 709.231 L543.664 706.07 L546.907 702.796 L550.15 699.411 L553.393 695.915 L556.636 692.308 L559.879 688.591 L563.122 684.765 L566.366 680.831 L569.609 676.789 L572.852 672.643 L576.095 668.392 L579.338 664.039 L582.581 659.586 L585.824 655.036 L589.067 650.39 L592.31 645.652 L595.553 640.824 L598.796 635.91 L602.039 630.913 L605.282 625.837 L608.525 620.686 L611.768 615.463 L615.011 610.175 L618.254 604.826 L621.497 599.42 L624.74 593.965 L627.983 588.465 L631.226 582.927 L634.469 577.359 L637.712 571.766 L640.955 566.158 L644.198 560.542 L647.441 554.926 L650.684 549.321 L653.927 543.735 L657.17 538.18 L660.413 532.664 L663.656 527.201 L666.899 521.801 L670.142 516.477 L673.385 511.241 L676.629 506.106 L679.872 501.087 L683.115 496.196 L686.358 491.448 L689.601 486.856 L692.844 482.431 L696.087 478.17 L699.33 474.065 L702.573 470.11 L705.816 466.297 L709.059 462.621 L712.302 459.075 L715.545 455.654 L718.788 452.353 L722.031 449.168 L725.274 446.094 L728.517 443.131 L731.76 440.275 L735.003 437.528 L738.246 434.888 L741.489 432.358 L744.732 429.94 L747.975 427.637 L751.218 425.455 L754.461 423.398 L757.704 421.474 L760.947 419.69 L764.19 418.055 L767.433 416.577 L770.676 415.26 L773.919 414.112 L777.162 413.137 L780.405 412.342 L783.648 411.735 L786.892 411.323 L790.135 411.115 L793.378 411.119 L796.621 411.335 L799.864 411.764 L803.107 412.407 L806.35 413.266 L809.593 414.341 L812.836 415.636 L816.079 417.154 L819.322 418.894 L822.565 420.849 L825.808 423.005 L829.051 425.351 L832.294 427.877 L835.537 430.572 L838.78 433.428 L842.023 436.436 L845.266 439.588 L848.509 442.876 L851.752 446.294 L854.995 449.837 L858.238 453.498 L861.481 457.273 L864.724 461.157 L867.967 465.146 L871.21 469.236 L874.453 473.415 L877.696 477.674 L880.939 482 L884.182 486.385 L887.425 490.818 L890.668 495.29 L893.911 499.792 L897.155 504.315 L900.398 508.851 L903.641 513.392 L906.884 517.932 L910.127 522.463 L913.37 526.979 L916.613 531.474 L919.856 535.942 L923.099 540.378 L926.342 544.777 L929.585 549.134 L932.828 553.446 L936.071 557.709 L939.314 561.917 L942.557 566.07 L945.8 570.162 L949.043 574.192 L952.286 578.158 L955.529 582.056 L958.772 585.885 L962.015 589.643 L965.258 593.328 L968.501 596.94 L971.744 600.477 L974.987 603.938 L978.23 607.322 L981.473 610.63 L984.716 613.861 L987.959 617.015 L991.202 620.093 L994.445 623.093 L997.688 626.018 L1000.93 628.868 L1004.17 631.644 L1007.42 634.348 L1010.66 636.98 L1013.9 639.543 L1017.15 642.038 L1020.39 644.468 L1023.63 646.835 L1026.88 649.141 L1030.12 651.39 L1033.36 653.585 L1036.6 655.729 L1039.85 657.825 L1043.09 659.879 L1046.33 661.893 L1049.58 663.873 L1052.82 665.823 L1056.06 667.75 L1059.31 669.657 L1062.55 671.552 L1065.79 673.441 L1069.04 675.329 L1072.28 677.225 L1075.52 679.135 L1078.76 681.068 L1082.01 683.031 L1085.25 685.034 L1088.49 687.085 L1091.74 689.193 L1094.98 691.369 L1098.22 693.622 L1101.47 695.963 L1104.71 698.402 L1107.95 700.952 L1111.19 703.623 L1114.44 706.426 L1117.68 709.373 L1120.92 712.474 L1124.17 715.727 L1127.41 719.128 L1130.65 722.673 L1133.9 726.359 L1137.14 730.182 L1140.38 734.139 L1143.62 738.227 L1146.87 742.442 L1150.11 746.783 L1153.35 751.248 L1156.6 755.833 L1159.84 760.538 L1163.08 765.36 L1166.33 770.3 L1169.57 775.356 L1172.81 780.528 L1176.06 785.815 L1179.3 791.218 L1182.54 796.736 L1185.78 802.37 L1189.03 808.12 L1192.27 813.986 L1195.51 819.968 L1198.76 826.056 L1202 832.241 L1205.24 838.513 L1208.49 844.862 L1211.73 851.278 L1214.97 857.752 L1218.21 864.274 L1221.46 870.837 L1224.7 877.432 L1227.94 884.05 L1231.19 890.685 L1234.43 897.328 L1237.67 903.973 L1240.92 910.613 L1244.16 917.241 L1247.4 923.853 L1250.64 930.443 L1253.89 937.005 L1257.13 943.534 L1260.37 950.027 L1263.62 956.479 L1266.86 962.886 L1270.1 969.245 L1273.35 975.553 L1276.59 981.806 L1279.83 988.001 L1283.08 994.137 L1286.32 1000.21 L1289.56 1006.22 L1292.8 1012.17 L1296.05 1018.05 L1299.29 1023.86 L1302.53 1029.6 L1305.78 1035.27 L1309.02 1040.87 L1312.26 1046.4 L1315.51 1051.86 L1318.75 1057.25 L1321.99 1062.57 L1325.23 1067.82 L1328.48 1073 L1331.72 1078.12 L1334.96 1083.16 L1338.21 1088.14 L1341.45 1093.06 L1344.69 1097.91 L1347.94 1102.7 L1351.18 1107.43 L1354.42 1112.11 L1357.66 1116.73 L1360.91 1121.31 L1364.15 1125.83 L1367.39 1130.32 L1370.64 1134.76 L1373.88 1139.16 L1377.12 1143.53 L1380.37 1147.87 L1383.61 1152.19 L1386.85 1156.49 L1390.1 1160.77 L1393.34 1165.05 L1396.58 1169.32 L1399.82 1173.59 L1403.07 1177.87 L1406.31 1182.16 L1409.55 1186.47 L1412.8 1190.8 L1416.04 1195.16 L1419.28 1199.56 L1422.53 1204.01 L1425.77 1208.5 L1429.01 1213.05 L1432.25 1217.66 L1435.5 1222.32 L1438.74 1227.03 L1441.98 1231.78 L1445.23 1236.56 L1448.47 1241.37 L1451.71 1246.2 L1454.96 1251.05 L1458.2 1255.9 L1461.44 1260.74 L1464.68 1265.58 L1467.93 1270.41 L1471.17 1275.22 L1474.41 1280 L1477.66 1284.75 L1480.9 1289.47 L1484.14 1294.14 L1487.39 1298.77 L1490.63 1303.34 L1493.87 1307.87 L1497.11 1312.33 L1500.36 1316.73 L1503.6 1321.07 L1506.84 1325.33 L1510.09 1329.53 L1513.33 1333.66 L1516.57 1337.7 L1519.82 1341.68 L1523.06 1345.57 L1526.3 1349.38 L1529.55 1353.12 L1532.79 1356.77 L1536.03 1360.35 L1539.27 1363.84 L1542.52 1367.26 L1545.76 1370.59 L1549 1373.85 L1552.25 1377.03 L1555.49 1380.14 L1558.73 1383.17 L1561.98 1386.13 L1565.22 1389.02 L1568.46 1391.84 L1571.7 1394.6 L1574.95 1397.29 L1578.19 1399.92 L1581.43 1402.49 L1584.68 1405 L1587.92 1407.44 L1591.16 1409.81 L1594.41 1412.1 L1597.65 1414.32 L1600.89 1416.45 L1604.13 1418.5 L1607.38 1420.46 L1610.62 1422.33 L1613.86 1424.1 L1617.11 1425.78 L1620.35 1427.36 L1623.59 1428.84 L1626.84 1430.22 L1630.08 1431.49 L1633.32 1432.67 L1636.57 1433.74 L1639.81 1434.71 L1643.05 1435.57 L1646.29 1436.34 L1649.54 1437.01 L1652.78 1437.58 L1656.02 1438.07 L1659.27 1438.46 L1662.51 1438.77 L1665.75 1438.99 L1669 1439.15 L1672.24 1439.23 L1675.48 1439.25 L1678.72 1439.21 L1681.97 1439.12 L1685.21 1438.99 L1688.45 1438.83 L1691.7 1438.64 L1694.94 1438.43 L1698.18 1438.21 L1701.43 1438 L1704.67 1437.79 L1707.91 1437.6 L1711.15 1437.44 L1714.4 1437.31 L1717.64 1437.22 L1720.88 1437.17 L1724.13 1437.17 L1727.37 1437.22 L1730.61 1437.32 L1733.86 1437.48 L1737.1 1437.7 L1740.34 1437.99 L1743.59 1438.33 L1746.83 1438.73 L1750.07 1439.16 L1753.31 1439.63 L1756.56 1440.12 L1759.8 1440.62 L1763.04 1441.14 L1766.29 1441.65 L1769.53 1442.16 L1772.77 1442.66 L1776.02 1443.14 L1779.26 1443.59 L1782.5 1444.01 L1785.74 1444.4 L1788.99 1444.75 L1792.23 1445.04 L1795.47 1445.29 L1798.72 1445.49 L1801.96 1445.63 L1805.2 1445.7 L1808.45 1445.72 L1811.69 1445.66 L1814.93 1445.54 L1818.17 1445.34 L1821.42 1445.07 L1824.66 1444.73 L1827.9 1444.3 L1831.15 1443.8 L1834.39 1443.22 L1837.63 1442.55 L1840.88 1441.81 L1844.12 1440.98 L1847.36 1440.06 L1850.61 1439.06 L1853.85 1437.98 L1857.09 1436.8 L1860.33 1435.55 L1863.58 1434.2 L1866.82 1432.77 L1870.06 1431.25 L1873.31 1429.65 L1876.55 1427.95 L1879.79 1426.17 L1883.04 1424.31 L1886.28 1422.36 L1889.52 1420.32 L1892.76 1418.2 L1896.01 1416 L1899.25 1413.71 L1902.49 1411.33 L1905.74 1408.88 L1908.98 1406.34 L1912.22 1403.73 L1915.47 1401.03 L1918.71 1398.25 L1921.95 1395.4 L1925.19 1392.47 L1928.44 1389.47 L1931.68 1386.39 L1934.92 1383.24 L1938.17 1380.02 L1941.41 1376.73 L1944.65 1373.37 L1947.9 1369.95 L1951.14 1366.46 L1954.38 1362.91 L1957.63 1359.31 L1960.87 1355.65 L1964.11 1351.93 L1967.35 1348.16 L1970.6 1344.35 L1973.84 1340.49 L1977.08 1336.58 L1980.33 1332.64 L1983.57 1328.67 L1986.81 1324.66 L1990.06 1320.62 L1993.3 1316.57 L1996.54 1312.49 L1999.78 1308.4 L2003.03 1304.3 L2006.27 1300.2 L2009.51 1296.1 L2012.76 1292.01 L2016 1287.93 L2019.24 1283.88 L2022.49 1279.85 L2025.73 1275.85 L2028.97 1271.89 L2032.21 1267.99 L2035.46 1264.13 L2038.7 1260.34 L2041.94 1256.62 L2045.19 1252.98 L2048.43 1249.43 L2051.67 1245.95 L2054.92 1242.56 L2058.16 1239.24 L2061.4 1235.99 L2064.65 1232.81 L2067.89 1229.7 L2071.13 1226.65 L2074.37 1223.67 L2077.62 1220.75 L2080.86 1217.88 L2084.1 1215.07 L2087.35 1212.32 L2090.59 1209.63 L2093.83 1206.99 L2097.08 1204.41 L2100.32 1201.89 L2103.56 1199.43 L2106.8 1197.04 L2110.05 1194.72 L2113.29 1192.46 L2116.53 1190.28 L2119.78 1188.18 L2123.02 1186.16 L2126.26 1184.23 L2129.51 1182.4 L2132.75 1180.67 L2135.99 1179.04 L2139.23 1177.52 L2142.48 1176.1 L2145.72 1174.78 L2148.96 1173.55 L2152.21 1172.43 L2155.45 1171.4 L2158.69 1170.46 L2161.94 1169.62 L2165.18 1168.88 L2168.42 1168.23 L2171.67 1167.67 L2174.91 1167.22 L2178.15 1166.86 L2181.39 1166.6 L2184.64 1166.45 L2187.88 1166.4 L2191.12 1166.47 L2194.37 1166.64 L2197.61 1166.93 L2200.85 1167.34 L2204.1 1167.88 L2207.34 1168.54 L2210.58 1169.33 L2213.82 1170.24 L2217.07 1171.26 L2220.31 1172.4 L2223.55 1173.63 L2226.8 1174.95 L2230.04 1176.35 L2233.28 1177.83 L2236.53 1179.38 L2239.77 1181 L2243.01 1182.67 L2246.25 1184.38 L2249.5 1186.15 L2252.74 1187.95 L2255.98 1189.79 L2259.23 1191.65 L2262.47 1193.54 L2265.71 1195.45 L2268.96 1197.38 L2272.2 1199.31 L2275.44 1201.26 L2278.69 1203.21 L2281.93 1205.17 L2285.17 1207.12 L2288.41 1209.07 L2291.66 1211.01 L2291.66 588.394 L2288.41 593.519 L2285.17 598.671 L2281.93 603.847 L2278.69 609.045 L2275.44 614.261 L2272.2 619.492 L2268.96 624.734 L2265.71 629.984 L2262.47 635.237 L2259.23 640.49 L2255.98 645.737 L2252.74 650.974 L2249.5 656.195 L2246.25 661.394 L2243.01 666.567 L2239.77 671.706 L2236.53 676.806 L2233.28 681.858 L2230.04 686.857 L2226.8 691.795 L2223.55 696.663 L2220.31 701.454 L2217.07 706.16 L2213.82 710.772 L2210.58 715.281 L2207.34 719.679 L2204.1 723.959 L2200.85 728.122 L2197.61 732.171 L2194.37 736.109 L2191.12 739.938 L2187.88 743.662 L2184.64 747.281 L2181.39 750.8 L2178.15 754.219 L2174.91 757.539 L2171.67 760.763 L2168.42 763.89 L2165.18 766.921 L2161.94 769.856 L2158.69 772.693 L2155.45 775.433 L2152.21 778.072 L2148.96 780.611 L2145.72 783.045 L2142.48 785.372 L2139.23 787.59 L2135.99 789.694 L2132.75 791.68 L2129.51 793.548 L2126.26 795.303 L2123.02 796.951 L2119.78 798.501 L2116.53 799.958 L2113.29 801.33 L2110.05 802.622 L2106.8 803.84 L2103.56 804.988 L2100.32 806.071 L2097.08 807.092 L2093.83 808.056 L2090.59 808.963 L2087.35 809.817 L2084.1 810.619 L2080.86 811.37 L2077.62 812.069 L2074.37 812.718 L2071.13 813.316 L2067.89 813.861 L2064.65 814.352 L2061.4 814.787 L2058.16 815.165 L2054.92 815.482 L2051.67 815.737 L2048.43 815.927 L2045.19 816.048 L2041.94 816.1 L2038.7 816.09 L2035.46 816.026 L2032.21 815.917 L2028.97 815.77 L2025.73 815.596 L2022.49 815.4 L2019.24 815.192 L2016 814.978 L2012.76 814.766 L2009.51 814.563 L2006.27 814.374 L2003.03 814.208 L1999.78 814.068 L1996.54 813.962 L1993.3 813.894 L1990.06 813.87 L1986.81 813.895 L1983.57 813.972 L1980.33 814.106 L1977.08 814.302 L1973.84 814.563 L1970.6 814.892 L1967.35 815.293 L1964.11 815.769 L1960.87 816.322 L1957.63 816.956 L1954.38 817.672 L1951.14 818.474 L1947.9 819.362 L1944.65 820.34 L1941.41 821.408 L1938.17 822.568 L1934.92 823.821 L1931.68 825.169 L1928.44 826.614 L1925.19 828.155 L1921.95 829.793 L1918.71 831.53 L1915.47 833.365 L1912.22 835.299 L1908.98 837.333 L1905.74 839.466 L1902.49 841.699 L1899.25 844.031 L1896.01 846.461 L1892.76 848.991 L1889.52 851.619 L1886.28 854.344 L1883.04 857.165 L1879.79 860.083 L1876.55 863.095 L1873.31 866.201 L1870.06 869.398 L1866.82 872.687 L1863.58 876.064 L1860.33 879.529 L1857.09 883.079 L1853.85 886.712 L1850.61 890.426 L1847.36 894.219 L1844.12 898.087 L1840.88 902.029 L1837.63 906.04 L1834.39 910.118 L1831.15 914.259 L1827.9 918.459 L1824.66 922.715 L1821.42 927.022 L1818.17 931.375 L1814.93 935.771 L1811.69 940.203 L1808.45 944.667 L1805.2 949.156 L1801.96 953.664 L1798.72 958.186 L1795.47 962.714 L1792.23 967.24 L1788.99 971.757 L1785.74 976.258 L1782.5 980.732 L1779.26 985.172 L1776.02 989.568 L1772.77 993.909 L1769.53 998.185 L1766.29 1002.39 L1763.04 1006.5 L1759.8 1010.51 L1756.56 1014.41 L1753.31 1018.19 L1750.07 1021.83 L1746.83 1025.32 L1743.59 1028.64 L1740.34 1031.78 L1737.1 1034.73 L1733.86 1037.47 L1730.61 1040 L1727.37 1042.31 L1724.13 1044.41 L1720.88 1046.27 L1717.64 1047.91 L1714.4 1049.31 L1711.15 1050.48 L1707.91 1051.41 L1704.67 1052.09 L1701.43 1052.54 L1698.18 1052.77 L1694.94 1052.8 L1691.7 1052.63 L1688.45 1052.28 L1685.21 1051.76 L1681.97 1051.09 L1678.72 1050.26 L1675.48 1049.3 L1672.24 1048.21 L1669 1047 L1665.75 1045.69 L1662.51 1044.27 L1659.27 1042.75 L1656.02 1041.14 L1652.78 1039.45 L1649.54 1037.68 L1646.29 1035.83 L1643.05 1033.9 L1639.81 1031.91 L1636.57 1029.84 L1633.32 1027.71 L1630.08 1025.51 L1626.84 1023.24 L1623.59 1020.91 L1620.35 1018.5 L1617.11 1016.02 L1613.86 1013.46 L1610.62 1010.83 L1607.38 1008.11 L1604.13 1005.3 L1600.89 1002.41 L1597.65 999.418 L1594.41 996.325 L1591.16 993.123 L1587.92 989.808 L1584.68 986.372 L1581.43 982.809 L1578.19 979.112 L1574.95 975.275 L1571.7 971.307 L1568.46 967.215 L1565.22 963.009 L1561.98 958.697 L1558.73 954.288 L1555.49 949.789 L1552.25 945.209 L1549 940.554 L1545.76 935.832 L1542.52 931.05 L1539.27 926.213 L1536.03 921.328 L1532.79 916.4 L1529.55 911.434 L1526.3 906.435 L1523.06 901.407 L1519.82 896.353 L1516.57 891.278 L1513.33 886.183 L1510.09 881.072 L1506.84 875.946 L1503.6 870.807 L1500.36 865.657 L1497.11 860.495 L1493.87 855.322 L1490.63 850.138 L1487.39 844.942 L1484.14 839.734 L1480.9 834.512 L1477.66 829.275 L1474.41 824.02 L1471.17 818.745 L1467.93 813.447 L1464.68 808.123 L1461.44 802.769 L1458.2 797.383 L1454.96 791.958 L1451.71 786.492 L1448.47 780.981 L1445.23 775.418 L1441.98 769.8 L1438.74 764.121 L1435.5 758.377 L1432.25 752.562 L1429.01 746.673 L1425.77 740.705 L1422.53 734.664 L1419.28 728.558 L1416.04 722.394 L1412.8 716.179 L1409.55 709.921 L1406.31 703.627 L1403.07 697.304 L1399.82 690.958 L1396.58 684.598 L1393.34 678.229 L1390.1 671.858 L1386.85 665.491 L1383.61 659.134 L1380.37 652.793 L1377.12 646.473 L1373.88 640.18 L1370.64 633.918 L1367.39 627.692 L1364.15 621.507 L1360.91 615.367 L1357.66 609.275 L1354.42 603.236 L1351.18 597.252 L1347.94 591.328 L1344.69 585.466 L1341.45 579.668 L1338.21 573.938 L1334.96 568.278 L1331.72 562.689 L1328.48 557.173 L1325.23 551.733 L1321.99 546.369 L1318.75 541.084 L1315.51 535.876 L1312.26 530.749 L1309.02 525.701 L1305.78 520.734 L1302.53 515.847 L1299.29 511.041 L1296.05 506.315 L1292.8 501.67 L1289.56 497.103 L1286.32 492.614 L1283.08 488.202 L1279.83 483.866 L1276.59 479.605 L1273.35 475.415 L1270.1 471.295 L1266.86 467.243 L1263.62 463.256 L1260.37 459.331 L1257.13 455.464 L1253.89 451.654 L1250.64 447.894 L1247.4 444.183 L1244.16 440.514 L1240.92 436.884 L1237.67 433.286 L1234.43 429.717 L1231.19 426.17 L1227.94 422.639 L1224.7 419.117 L1221.46 415.598 L1218.21 412.075 L1214.97 408.54 L1211.73 404.985 L1208.49 401.403 L1205.24 397.785 L1202 394.123 L1198.76 390.408 L1195.51 386.632 L1192.27 382.785 L1189.03 378.861 L1185.78 374.861 L1182.54 370.789 L1179.3 366.647 L1176.06 362.439 L1172.81 358.168 L1169.57 353.837 L1166.33 349.449 L1163.08 345.007 L1159.84 340.513 L1156.6 335.969 L1153.35 331.378 L1150.11 326.742 L1146.87 322.062 L1143.62 317.339 L1140.38 312.576 L1137.14 307.772 L1133.9 302.929 L1130.65 298.048 L1127.41 293.129 L1124.17 288.174 L1120.92 283.181 L1117.68 278.154 L1114.44 273.092 L1111.19 268.003 L1107.95 262.894 L1104.71 257.773 L1101.47 252.647 L1098.22 247.525 L1094.98 242.412 L1091.74 237.317 L1088.49 232.246 L1085.25 227.206 L1082.01 222.202 L1078.76 217.242 L1075.52 212.33 L1072.28 207.473 L1069.04 202.675 L1065.79 197.941 L1062.55 193.275 L1059.31 188.683 L1056.06 184.167 L1052.82 179.732 L1049.58 175.382 L1046.33 171.118 L1043.09 166.946 L1039.85 162.866 L1036.6 158.882 L1033.36 154.996 L1030.12 151.211 L1026.88 147.528 L1023.63 143.949 L1020.39 140.476 L1017.15 137.111 L1013.9 133.853 L1010.66 130.706 L1007.42 127.67 L1004.17 124.745 L1000.93 121.933 L997.688 119.234 L994.445 116.649 L991.202 114.178 L987.959 111.821 L984.716 109.579 L981.473 107.452 L978.23 105.439 L974.987 103.541 L971.744 101.757 L968.501 100.086 L965.258 98.529 L962.015 97.0844 L958.772 95.7516 L955.529 94.5296 L952.286 93.4174 L949.043 92.4139 L945.8 91.5177 L942.557 90.7272 L939.314 90.0409 L936.071 89.457 L932.828 88.9733 L929.585 88.5878 L926.342 88.2981 L923.099 88.1015 L919.856 87.9953 L916.613 87.9763 L913.37 88.0413 L910.127 88.1868 L906.884 88.4088 L903.641 88.7034 L900.398 89.0662 L897.155 89.4924 L893.911 89.9771 L890.668 90.5149 L887.425 91.1003 L884.182 91.7274 L880.939 92.3898 L877.696 93.081 L874.453 93.7943 L871.21 94.5226 L867.967 95.2585 L864.724 95.9966 L861.481 96.7387 L858.238 97.4885 L854.995 98.2494 L851.752 99.0243 L848.509 99.8162 L845.266 100.627 L842.023 101.46 L838.78 102.315 L835.537 103.194 L832.294 104.096 L829.051 105.024 L825.808 105.975 L822.565 106.948 L819.322 107.943 L816.079 108.958 L812.836 109.99 L809.593 111.037 L806.35 112.096 L803.107 113.164 L799.864 114.237 L796.621 115.311 L793.378 116.383 L790.135 117.448 L786.892 118.501 L783.648 119.543 L780.405 120.573 L777.162 121.592 L773.919 122.599 L770.676 123.593 L767.433 124.572 L764.19 125.534 L760.947 126.478 L757.704 127.409 L754.461 128.333 L751.218 129.256 L747.975 130.182 L744.732 131.116 L741.489 132.059 L738.246 133.015 L735.003 133.984 L731.76 134.966 L728.517 135.962 L725.274 136.969 L722.031 137.985 L718.788 139.007 L715.545 140.031 L712.302 141.053 L709.059 142.068 L705.816 143.07 L702.573 144.054 L699.33 145.013 L696.087 145.941 L692.844 146.831 L689.601 147.678 L686.358 148.478 L683.115 149.237 L679.872 149.965 L676.629 150.669 L673.385 151.36 L670.142 152.046 L666.899 152.735 L663.656 153.436 L660.413 154.157 L657.17 154.906 L653.927 155.69 L650.684 156.515 L647.441 157.388 L644.198 158.315 L640.955 159.303 L637.712 160.355 L634.469 161.477 L631.226 162.673 L627.983 163.948 L624.74 165.305 L621.497 166.749 L618.254 168.281 L615.011 169.905 L611.768 171.624 L608.525 173.44 L605.282 175.356 L602.039 177.372 L598.796 179.491 L595.553 181.715 L592.31 184.044 L589.067 186.48 L585.824 189.024 L582.581 191.677 L579.338 194.438 L576.095 197.309 L572.852 200.29 L569.609 203.38 L566.366 206.581 L563.122 209.891 L559.879 213.312 L556.636 216.841 L553.393 220.479 L550.15 224.225 L546.907 228.077 L543.664 232.036 L540.421 236.1 L537.178 240.268 L533.935 244.538 L530.692 248.909 L527.449 253.379 L524.206 257.946 L520.963 262.608 L517.72 267.362 L514.477 272.207 L511.234 277.14 L507.991 282.158 L504.748 287.257 L501.505 292.434 L498.262 297.686 L495.019 303.009 L491.776 308.398 L488.533 313.85 L485.29 319.359 L482.047 324.92 L478.804 330.527 L475.561 336.176 L472.318 341.858 L469.075 347.569 L465.832 353.3 L462.589 359.043 L459.346 364.791 L456.103 370.536 L452.859 376.267 L449.616 381.976 L446.373 387.651 L443.13 393.283 L439.887 398.86 L436.644 404.371 L433.401 409.804 L430.158 415.146 L426.915 420.384 L423.672 425.509 L420.429 430.514 L417.186 435.397 L413.943 440.154 L410.7 444.783 L407.457 449.29 L404.214 453.68 L400.971 457.959 L397.728 462.133 L394.485 466.207 L391.242 470.186 L387.999 474.073 L384.756 477.873 L381.513 481.587 L378.27 485.218 L375.027 488.766 L371.784 492.232 L368.541 495.616 L365.298 498.915 L362.055 502.129 L358.812 505.254 L355.569 508.286 L352.326 511.223 L349.083 514.062 L345.84 516.801 L342.596 519.437 L339.353 521.968 L336.11 524.388 L332.867 526.695 L329.624 528.881 L326.381 530.943 L323.138 532.873 L319.895 534.665 L316.652 536.314 L313.409 537.819 L310.166 539.182 L306.923 540.403 L303.68 541.482 L300.437 542.42 L297.194 543.216 L293.951 543.867 L290.708 544.373 L287.465 544.73 L284.222 544.935 L280.979 544.986 L277.736 544.878 L274.493 544.607 L271.25 544.168 L268.007 543.556 L264.764 542.766 L261.521 541.795 L258.278 540.652 L255.035 539.346  Z" fill="#3da44d" fill-rule="evenodd" fill-opacity="0.1"/>
<polyline clip-path="url(#clip082)" style="stroke:#3da44d; stroke-linecap:round; stroke-linejoin:round; stroke-width:8; stroke-opacity:1; fill:none" points="255.035,754.138 258.278,752.011 261.521,749.81 264.764,747.532 268.007,745.176 271.25,742.745 274.493,740.242 277.736,737.671 280.979,735.034 284.222,732.337 287.465,729.581 290.708,726.769 293.951,723.906 297.194,720.994 300.437,718.037 303.68,715.038 306.923,711.999 310.166,708.924 313.409,705.816 316.652,702.678 319.895,699.513 323.138,696.325 326.381,693.116 329.624,689.891 332.867,686.652 336.11,683.403 339.353,680.149 342.596,676.891 345.84,673.634 349.083,670.382 352.326,667.137 355.569,663.904 358.812,660.684 362.055,657.478 365.298,654.284 368.541,651.099 371.784,647.924 375.027,644.755 378.27,641.592 381.513,638.433 384.756,635.277 387.999,632.121 391.242,628.965 394.485,625.807 397.728,622.646 400.971,619.48 404.214,616.307 407.457,613.127 410.7,609.938 413.943,606.738 417.186,603.527 420.429,600.303 423.672,597.066 426.915,593.816 430.158,590.553 433.401,587.276 436.644,583.985 439.887,580.681 443.13,577.364 446.373,574.034 449.616,570.691 452.859,567.335 456.103,563.966 459.346,560.585 462.589,557.191 465.832,553.785 469.075,550.367 472.318,546.938 475.561,543.496 478.804,540.044 482.047,536.58 485.29,533.105 488.533,529.619 491.776,526.123 495.019,522.617 498.262,519.102 501.505,515.576 504.748,512.042 507.991,508.498 511.234,504.946 514.477,501.386 517.72,497.819 520.963,494.244 524.206,490.662 527.449,487.074 530.692,483.479 533.935,479.88 537.178,476.275 540.421,472.666 543.664,469.053 546.907,465.437 550.15,461.818 553.393,458.197 556.636,454.575 559.879,450.951 563.122,447.328 566.366,443.706 569.609,440.085 572.852,436.466 576.095,432.85 579.338,429.238 582.581,425.631 585.824,422.03 589.067,418.435 592.31,414.848 595.553,411.27 598.796,407.701 602.039,404.143 605.282,400.596 608.525,397.063 611.768,393.544 615.011,390.04 618.254,386.553 621.497,383.084 624.74,379.635 627.983,376.206 631.226,372.8 634.469,369.418 637.712,366.06 640.955,362.73 644.198,359.428 647.441,356.157 650.684,352.918 653.927,349.712 657.17,346.543 660.413,343.411 663.656,340.318 666.899,337.268 670.142,334.261 673.385,331.3 676.629,328.388 679.872,325.526 683.115,322.717 686.358,319.963 689.601,317.267 692.844,314.631 696.087,312.055 699.33,309.539 702.573,307.082 705.816,304.684 709.059,302.345 712.302,300.064 715.545,297.843 718.788,295.68 722.031,293.576 725.274,291.531 728.517,289.546 731.76,287.621 735.003,285.756 738.246,283.952 741.489,282.209 744.732,280.528 747.975,278.91 751.218,277.355 754.461,275.866 757.704,274.442 760.947,273.084 764.19,271.794 767.433,270.574 770.676,269.427 773.919,268.356 777.162,267.365 780.405,266.458 783.648,265.639 786.892,264.912 790.135,264.281 793.378,263.751 796.621,263.323 799.864,263 803.107,262.785 806.35,262.681 809.593,262.689 812.836,262.813 816.079,263.056 819.322,263.419 822.565,263.898 825.808,264.49 829.051,265.187 832.294,265.987 835.537,266.883 838.78,267.872 842.023,268.948 845.266,270.108 848.509,271.346 851.752,272.659 854.995,274.043 858.238,275.493 861.481,277.006 864.724,278.577 867.967,280.202 871.21,281.879 874.453,283.605 877.696,285.377 880.939,287.195 884.182,289.056 887.425,290.959 890.668,292.903 893.911,294.885 897.155,296.904 900.398,298.959 903.641,301.048 906.884,303.17 910.127,305.325 913.37,307.51 916.613,309.725 919.856,311.969 923.099,314.24 926.342,316.537 929.585,318.861 932.828,321.21 936.071,323.583 939.314,325.979 942.557,328.398 945.8,330.84 949.043,333.303 952.286,335.788 955.529,338.293 958.772,340.818 962.015,343.364 965.258,345.929 968.501,348.513 971.744,351.117 974.987,353.739 978.23,356.381 981.473,359.041 984.716,361.72 987.959,364.418 991.202,367.135 994.445,369.871 997.688,372.626 1000.93,375.401 1004.17,378.195 1007.42,381.009 1010.66,383.843 1013.9,386.698 1017.15,389.574 1020.39,392.472 1023.63,395.392 1026.88,398.335 1030.12,401.301 1033.36,404.291 1036.6,407.305 1039.85,410.346 1043.09,413.412 1046.33,416.506 1049.58,419.627 1052.82,422.778 1056.06,425.958 1059.31,429.17 1062.55,432.414 1065.79,435.691 1069.04,439.002 1072.28,442.349 1075.52,445.733 1078.76,449.155 1082.01,452.617 1085.25,456.12 1088.49,459.665 1091.74,463.255 1094.98,466.89 1098.22,470.573 1101.47,474.305 1104.71,478.088 1107.95,481.923 1111.19,485.813 1114.44,489.759 1117.68,493.763 1120.92,497.828 1124.17,501.95 1127.41,506.129 1130.65,510.361 1133.9,514.644 1137.14,518.977 1140.38,523.357 1143.62,527.783 1146.87,532.252 1150.11,536.763 1153.35,541.313 1156.6,545.901 1159.84,550.525 1163.08,555.184 1166.33,559.875 1169.57,564.597 1172.81,569.348 1176.06,574.127 1179.3,578.932 1182.54,583.762 1185.78,588.616 1189.03,593.491 1192.27,598.386 1195.51,603.3 1198.76,608.232 1202,613.182 1205.24,618.149 1208.49,623.132 1211.73,628.131 1214.97,633.146 1218.21,638.175 1221.46,643.218 1224.7,648.275 1227.94,653.345 1231.19,658.427 1234.43,663.523 1237.67,668.63 1240.92,673.748 1244.16,678.878 1247.4,684.018 1250.64,689.169 1253.89,694.329 1257.13,699.499 1260.37,704.679 1263.62,709.867 1266.86,715.065 1270.1,720.27 1273.35,725.484 1276.59,730.705 1279.83,735.934 1283.08,741.17 1286.32,746.413 1289.56,751.663 1292.8,756.919 1296.05,762.181 1299.29,767.449 1302.53,772.723 1305.78,778.002 1309.02,783.287 1312.26,788.576 1315.51,793.87 1318.75,799.169 1321.99,804.472 1325.23,809.778 1328.48,815.089 1331.72,820.402 1334.96,825.719 1338.21,831.039 1341.45,836.362 1344.69,841.687 1347.94,847.014 1351.18,852.343 1354.42,857.673 1357.66,863.005 1360.91,868.337 1364.15,873.67 1367.39,879.004 1370.64,884.337 1373.88,889.67 1377.12,895.003 1380.37,900.334 1383.61,905.663 1386.85,910.991 1390.1,916.316 1393.34,921.639 1396.58,926.958 1399.82,932.274 1403.07,937.585 1406.31,942.892 1409.55,948.193 1412.8,953.489 1416.04,958.779 1419.28,964.061 1422.53,969.336 1425.77,974.603 1429.01,979.861 1432.25,985.11 1435.5,990.348 1438.74,995.575 1441.98,1000.79 1445.23,1005.99 1448.47,1011.18 1451.71,1016.35 1454.96,1021.5 1458.2,1026.64 1461.44,1031.76 1464.68,1036.85 1467.93,1041.93 1471.17,1046.98 1474.41,1052.01 1477.66,1057.01 1480.9,1061.99 1484.14,1066.94 1487.39,1071.86 1490.63,1076.74 1493.87,1081.59 1497.11,1086.41 1500.36,1091.19 1503.6,1095.94 1506.84,1100.64 1510.09,1105.3 1513.33,1109.92 1516.57,1114.49 1519.82,1119.01 1523.06,1123.49 1526.3,1127.91 1529.55,1132.28 1532.79,1136.59 1536.03,1140.84 1539.27,1145.03 1542.52,1149.15 1545.76,1153.21 1549,1157.2 1552.25,1161.12 1555.49,1164.96 1558.73,1168.73 1561.98,1172.41 1565.22,1176.01 1568.46,1179.53 1571.7,1182.95 1574.95,1186.28 1578.19,1189.52 1581.43,1192.65 1584.68,1195.69 1587.92,1198.62 1591.16,1201.47 1594.41,1204.21 1597.65,1206.87 1600.89,1209.43 1604.13,1211.9 1607.38,1214.28 1610.62,1216.58 1613.86,1218.78 1617.11,1220.9 1620.35,1222.93 1623.59,1224.87 1626.84,1226.73 1630.08,1228.5 1633.32,1230.19 1636.57,1231.79 1639.81,1233.31 1643.05,1234.74 1646.29,1236.08 1649.54,1237.34 1652.78,1238.52 1656.02,1239.6 1659.27,1240.6 1662.51,1241.52 1665.75,1242.34 1669,1243.08 1672.24,1243.72 1675.48,1244.27 1678.72,1244.74 1681.97,1245.1 1685.21,1245.38 1688.45,1245.55 1691.7,1245.63 1694.94,1245.61 1698.18,1245.49 1701.43,1245.27 1704.67,1244.94 1707.91,1244.5 1711.15,1243.96 1714.4,1243.31 1717.64,1242.57 1720.88,1241.72 1724.13,1240.79 1727.37,1239.77 1730.61,1238.66 1733.86,1237.48 1737.1,1236.22 1740.34,1234.89 1743.59,1233.49 1746.83,1232.02 1750.07,1230.5 1753.31,1228.91 1756.56,1227.27 1759.8,1225.57 1763.04,1223.82 1766.29,1222.02 1769.53,1220.17 1772.77,1218.28 1776.02,1216.35 1779.26,1214.38 1782.5,1212.37 1785.74,1210.33 1788.99,1208.25 1792.23,1206.14 1795.47,1204 1798.72,1201.84 1801.96,1199.65 1805.2,1197.43 1808.45,1195.19 1811.69,1192.93 1814.93,1190.65 1818.17,1188.36 1821.42,1186.05 1824.66,1183.72 1827.9,1181.38 1831.15,1179.03 1834.39,1176.67 1837.63,1174.3 1840.88,1171.92 1844.12,1169.53 1847.36,1167.14 1850.61,1164.74 1853.85,1162.34 1857.09,1159.94 1860.33,1157.54 1863.58,1155.13 1866.82,1152.73 1870.06,1150.32 1873.31,1147.92 1876.55,1145.52 1879.79,1143.13 1883.04,1140.74 1886.28,1138.35 1889.52,1135.97 1892.76,1133.6 1896.01,1131.23 1899.25,1128.87 1902.49,1126.52 1905.74,1124.17 1908.98,1121.84 1912.22,1119.51 1915.47,1117.2 1918.71,1114.89 1921.95,1112.6 1925.19,1110.31 1928.44,1108.04 1931.68,1105.78 1934.92,1103.53 1938.17,1101.29 1941.41,1099.07 1944.65,1096.85 1947.9,1094.65 1951.14,1092.47 1954.38,1090.29 1957.63,1088.13 1960.87,1085.98 1964.11,1083.85 1967.35,1081.73 1970.6,1079.62 1973.84,1077.53 1977.08,1075.44 1980.33,1073.37 1983.57,1071.32 1986.81,1069.28 1990.06,1067.25 1993.3,1065.23 1996.54,1063.23 1999.78,1061.23 2003.03,1059.26 2006.27,1057.29 2009.51,1055.33 2012.76,1053.39 2016,1051.46 2019.24,1049.53 2022.49,1047.62 2025.73,1045.72 2028.97,1043.83 2032.21,1041.95 2035.46,1040.08 2038.7,1038.22 2041.94,1036.36 2045.19,1034.52 2048.43,1032.68 2051.67,1030.84 2054.92,1029.02 2058.16,1027.2 2061.4,1025.39 2064.65,1023.58 2067.89,1021.78 2071.13,1019.98 2074.37,1018.19 2077.62,1016.41 2080.86,1014.62 2084.1,1012.85 2087.35,1011.07 2090.59,1009.29 2093.83,1007.52 2097.08,1005.75 2100.32,1003.98 2103.56,1002.21 2106.8,1000.44 2110.05,998.669 2113.29,996.895 2116.53,995.119 2119.78,993.34 2123.02,991.556 2126.26,989.768 2129.51,987.975 2132.75,986.175 2135.99,984.368 2139.23,982.554 2142.48,980.735 2145.72,978.911 2148.96,977.083 2152.21,975.251 2155.45,973.416 2158.69,971.578 2161.94,969.739 2165.18,967.899 2168.42,966.059 2171.67,964.218 2174.91,962.378 2178.15,960.539 2181.39,958.701 2184.64,956.866 2187.88,955.033 2191.12,953.202 2194.37,951.375 2197.61,949.552 2200.85,947.733 2204.1,945.918 2207.34,944.109 2210.58,942.304 2213.82,940.505 2217.07,938.712 2220.31,936.925 2223.55,935.145 2226.8,933.371 2230.04,931.605 2233.28,929.846 2236.53,928.095 2239.77,926.351 2243.01,924.616 2246.25,922.889 2249.5,921.171 2252.74,919.462 2255.98,917.762 2259.23,916.07 2262.47,914.389 2265.71,912.717 2268.96,911.055 2272.2,909.402 2275.44,907.76 2278.69,906.128 2281.93,904.506 2285.17,902.895 2288.41,901.294 2291.66,899.705 "/>
<path clip-path="url(#clip080)" d="M1953.46 302.578 L2280.8 302.578 L2280.8 95.2176 L1953.46 95.2176  Z" fill="#ffffff" fill-rule="evenodd" fill-opacity="1"/>
<polyline clip-path="url(#clip080)" style="stroke:#000000; stroke-linecap:round; stroke-linejoin:round; stroke-width:4; stroke-opacity:1; fill:none" points="1953.46,302.578 2280.8,302.578 2280.8,95.2176 1953.46,95.2176 1953.46,302.578 "/>
<polyline clip-path="url(#clip080)" style="stroke:#009af9; stroke-linecap:round; stroke-linejoin:round; stroke-width:4; stroke-opacity:1; fill:none" points="1977.44,147.058 2121.36,147.058 "/>
<path clip-path="url(#clip080)" d="M2152.76 131.051 L2152.76 138.412 L2161.53 138.412 L2161.53 141.722 L2152.76 141.722 L2152.76 155.796 Q2152.76 158.967 2153.61 159.87 Q2154.49 160.773 2157.16 160.773 L2161.53 160.773 L2161.53 164.338 L2157.16 164.338 Q2152.23 164.338 2150.35 162.509 Q2148.48 160.657 2148.48 155.796 L2148.48 141.722 L2145.35 141.722 L2145.35 138.412 L2148.48 138.412 L2148.48 131.051 L2152.76 131.051 Z" fill="#000000" fill-rule="nonzero" fill-opacity="1" /><path clip-path="url(#clip080)" d="M2182.16 142.393 Q2181.44 141.977 2180.58 141.791 Q2179.75 141.583 2178.73 141.583 Q2175.12 141.583 2173.17 143.944 Q2171.25 146.282 2171.25 150.68 L2171.25 164.338 L2166.97 164.338 L2166.97 138.412 L2171.25 138.412 L2171.25 142.44 Q2172.6 140.078 2174.75 138.944 Q2176.9 137.787 2179.98 137.787 Q2180.42 137.787 2180.95 137.856 Q2181.48 137.903 2182.13 138.018 L2182.16 142.393 Z" fill="#000000" fill-rule="nonzero" fill-opacity="1" /><path clip-path="url(#clip080)" d="M2186.18 154.106 L2186.18 138.412 L2190.44 138.412 L2190.44 153.944 Q2190.44 157.625 2191.88 159.476 Q2193.31 161.305 2196.18 161.305 Q2199.63 161.305 2201.62 159.106 Q2203.64 156.907 2203.64 153.111 L2203.64 138.412 L2207.9 138.412 L2207.9 164.338 L2203.64 164.338 L2203.64 160.356 Q2202.09 162.717 2200.03 163.875 Q2197.99 165.009 2195.28 165.009 Q2190.81 165.009 2188.5 162.231 Q2186.18 159.453 2186.18 154.106 M2196.9 137.787 L2196.9 137.787 Z" fill="#000000" fill-rule="nonzero" fill-opacity="1" /><path clip-path="url(#clip080)" d="M2220.88 131.051 L2220.88 138.412 L2229.66 138.412 L2229.66 141.722 L2220.88 141.722 L2220.88 155.796 Q2220.88 158.967 2221.74 159.87 Q2222.62 160.773 2225.28 160.773 L2229.66 160.773 L2229.66 164.338 L2225.28 164.338 Q2220.35 164.338 2218.48 162.509 Q2216.6 160.657 2216.6 155.796 L2216.6 141.722 L2213.48 141.722 L2213.48 138.412 L2216.6 138.412 L2216.6 131.051 L2220.88 131.051 Z" fill="#000000" fill-rule="nonzero" fill-opacity="1" /><path clip-path="url(#clip080)" d="M2256.81 148.689 L2256.81 164.338 L2252.55 164.338 L2252.55 148.828 Q2252.55 145.148 2251.11 143.319 Q2249.68 141.49 2246.81 141.49 Q2243.36 141.49 2241.37 143.69 Q2239.38 145.889 2239.38 149.685 L2239.38 164.338 L2235.1 164.338 L2235.1 128.319 L2239.38 128.319 L2239.38 142.44 Q2240.91 140.102 2242.97 138.944 Q2245.05 137.787 2247.76 137.787 Q2252.23 137.787 2254.52 140.565 Q2256.81 143.319 2256.81 148.689 Z" fill="#000000" fill-rule="nonzero" fill-opacity="1" /><circle clip-path="url(#clip080)" cx="2049.4" cy="198.898" r="20.48" fill="#e26f46" fill-rule="evenodd" fill-opacity="1" stroke="#000000" stroke-opacity="1" stroke-width="4.55111"/>
<path clip-path="url(#clip080)" d="M2164.26 194.187 L2164.26 180.159 L2168.52 180.159 L2168.52 216.178 L2164.26 216.178 L2164.26 212.289 Q2162.92 214.603 2160.86 215.738 Q2158.82 216.849 2155.95 216.849 Q2151.25 216.849 2148.29 213.099 Q2145.35 209.349 2145.35 203.238 Q2145.35 197.127 2148.29 193.377 Q2151.25 189.627 2155.95 189.627 Q2158.82 189.627 2160.86 190.761 Q2162.92 191.872 2164.26 194.187 M2149.75 203.238 Q2149.75 207.937 2151.67 210.622 Q2153.61 213.284 2156.99 213.284 Q2160.37 213.284 2162.32 210.622 Q2164.26 207.937 2164.26 203.238 Q2164.26 198.539 2162.32 195.877 Q2160.37 193.192 2156.99 193.192 Q2153.61 193.192 2151.67 195.877 Q2149.75 198.539 2149.75 203.238 Z" fill="#000000" fill-rule="nonzero" fill-opacity="1" /><path clip-path="url(#clip080)" d="M2189.08 203.145 Q2183.92 203.145 2181.92 204.326 Q2179.93 205.506 2179.93 208.354 Q2179.93 210.622 2181.42 211.965 Q2182.92 213.284 2185.49 213.284 Q2189.03 213.284 2191.16 210.784 Q2193.31 208.261 2193.31 204.094 L2193.31 203.145 L2189.08 203.145 M2197.57 201.386 L2197.57 216.178 L2193.31 216.178 L2193.31 212.242 Q2191.85 214.603 2189.68 215.738 Q2187.5 216.849 2184.36 216.849 Q2180.37 216.849 2178.01 214.627 Q2175.67 212.381 2175.67 208.631 Q2175.67 204.256 2178.59 202.034 Q2181.53 199.812 2187.34 199.812 L2193.31 199.812 L2193.31 199.395 Q2193.31 196.455 2191.37 194.858 Q2189.45 193.238 2185.95 193.238 Q2183.73 193.238 2181.62 193.77 Q2179.52 194.303 2177.57 195.367 L2177.57 191.432 Q2179.91 190.53 2182.11 190.09 Q2184.31 189.627 2186.39 189.627 Q2192.02 189.627 2194.79 192.543 Q2197.57 195.46 2197.57 201.386 Z" fill="#000000" fill-rule="nonzero" fill-opacity="1" /><path clip-path="url(#clip080)" d="M2210.56 182.891 L2210.56 190.252 L2219.33 190.252 L2219.33 193.562 L2210.56 193.562 L2210.56 207.636 Q2210.56 210.807 2211.42 211.71 Q2212.29 212.613 2214.96 212.613 L2219.33 212.613 L2219.33 216.178 L2214.96 216.178 Q2210.03 216.178 2208.15 214.349 Q2206.28 212.497 2206.28 207.636 L2206.28 193.562 L2203.15 193.562 L2203.15 190.252 L2206.28 190.252 L2206.28 182.891 L2210.56 182.891 Z" fill="#000000" fill-rule="nonzero" fill-opacity="1" /><path clip-path="url(#clip080)" d="M2236.72 203.145 Q2231.55 203.145 2229.56 204.326 Q2227.57 205.506 2227.57 208.354 Q2227.57 210.622 2229.05 211.965 Q2230.56 213.284 2233.13 213.284 Q2236.67 213.284 2238.8 210.784 Q2240.95 208.261 2240.95 204.094 L2240.95 203.145 L2236.72 203.145 M2245.21 201.386 L2245.21 216.178 L2240.95 216.178 L2240.95 212.242 Q2239.49 214.603 2237.32 215.738 Q2235.14 216.849 2231.99 216.849 Q2228.01 216.849 2225.65 214.627 Q2223.31 212.381 2223.31 208.631 Q2223.31 204.256 2226.23 202.034 Q2229.17 199.812 2234.98 199.812 L2240.95 199.812 L2240.95 199.395 Q2240.95 196.455 2239.01 194.858 Q2237.09 193.238 2233.59 193.238 Q2231.37 193.238 2229.26 193.77 Q2227.16 194.303 2225.21 195.367 L2225.21 191.432 Q2227.55 190.53 2229.75 190.09 Q2231.95 189.627 2234.03 189.627 Q2239.66 189.627 2242.43 192.543 Q2245.21 195.46 2245.21 201.386 Z" fill="#000000" fill-rule="nonzero" fill-opacity="1" /><polyline clip-path="url(#clip080)" style="stroke:#3da44d; stroke-linecap:round; stroke-linejoin:round; stroke-width:8; stroke-opacity:1; fill:none" points="1977.44,250.738 2121.36,250.738 "/>
<path clip-path="url(#clip080)" d="M2170.91 263.087 L2170.91 253.805 L2163.27 253.805 L2163.27 249.962 L2175.54 249.962 L2175.54 264.8 Q2172.83 266.721 2169.56 267.717 Q2166.3 268.689 2162.6 268.689 Q2154.49 268.689 2149.91 263.967 Q2145.35 259.221 2145.35 250.772 Q2145.35 242.3 2149.91 237.578 Q2154.49 232.833 2162.6 232.833 Q2165.98 232.833 2169.01 233.666 Q2172.06 234.499 2174.63 236.12 L2174.63 241.096 Q2172.04 238.897 2169.12 237.786 Q2166.21 236.675 2162.99 236.675 Q2156.65 236.675 2153.45 240.217 Q2150.28 243.758 2150.28 250.772 Q2150.28 257.763 2153.45 261.305 Q2156.65 264.846 2162.99 264.846 Q2165.47 264.846 2167.41 264.43 Q2169.36 263.99 2170.91 263.087 Z" fill="#000000" fill-rule="nonzero" fill-opacity="1" /><path clip-path="url(#clip080)" d="M2188.75 237.3 L2188.75 250.286 L2194.63 250.286 Q2197.9 250.286 2199.68 248.596 Q2201.46 246.907 2201.46 243.782 Q2201.46 240.68 2199.68 238.99 Q2197.9 237.3 2194.63 237.3 L2188.75 237.3 M2184.08 233.458 L2194.63 233.458 Q2200.44 233.458 2203.41 236.096 Q2206.39 238.712 2206.39 243.782 Q2206.39 248.897 2203.41 251.513 Q2200.44 254.129 2194.63 254.129 L2188.75 254.129 L2188.75 268.018 L2184.08 268.018 L2184.08 233.458 Z" fill="#000000" fill-rule="nonzero" fill-opacity="1" /></svg>
