<?xml version="1.0" encoding="utf-8"?>
<svg xmlns="http://www.w3.org/2000/svg" xmlns:xlink="http://www.w3.org/1999/xlink" width="600" height="400" viewBox="0 0 2400 1600">
<defs>
  <clipPath id="clip460">
    <rect x="0" y="0" width="2400" height="1600"/>
  </clipPath>
</defs>
<path clip-path="url(#clip460)" d="M0 1600 L2400 1600 L2400 0 L0 0  Z" fill="#ffffff" fill-rule="evenodd" fill-opacity="1"/>
<defs>
  <clipPath id="clip461">
    <rect x="480" y="0" width="1681" height="1600"/>
  </clipPath>
</defs>
<path clip-path="url(#clip460)" d="M193.936 1486.45 L2352.76 1486.45 L2352.76 47.2441 L193.936 47.2441  Z" fill="#ffffff" fill-rule="evenodd" fill-opacity="1"/>
<defs>
  <clipPath id="clip462">
    <rect x="193" y="47" width="2160" height="1440"/>
  </clipPath>
</defs>
<polyline clip-path="url(#clip462)" style="stroke:#000000; stroke-linecap:round; stroke-linejoin:round; stroke-width:2; stroke-opacity:0.1; fill:none" points="255.035,1486.45 255.035,47.2441 "/>
<polyline clip-path="url(#clip462)" style="stroke:#000000; stroke-linecap:round; stroke-linejoin:round; stroke-width:2; stroke-opacity:0.1; fill:none" points="579.338,1486.45 579.338,47.2441 "/>
<polyline clip-path="url(#clip462)" style="stroke:#000000; stroke-linecap:round; stroke-linejoin:round; stroke-width:2; stroke-opacity:0.1; fill:none" points="903.641,1486.45 903.641,47.2441 "/>
<polyline clip-path="url(#clip462)" style="stroke:#000000; stroke-linecap:round; stroke-linejoin:round; stroke-width:2; stroke-opacity:0.1; fill:none" points="1227.94,1486.45 1227.94,47.2441 "/>
<polyline clip-path="url(#clip462)" style="stroke:#000000; stroke-linecap:round; stroke-linejoin:round; stroke-width:2; stroke-opacity:0.1; fill:none" points="1552.25,1486.45 1552.25,47.2441 "/>
<polyline clip-path="url(#clip462)" style="stroke:#000000; stroke-linecap:round; stroke-linejoin:round; stroke-width:2; stroke-opacity:0.1; fill:none" points="1876.55,1486.45 1876.55,47.2441 "/>
<polyline clip-path="url(#clip462)" style="stroke:#000000; stroke-linecap:round; stroke-linejoin:round; stroke-width:2; stroke-opacity:0.1; fill:none" points="2200.85,1486.45 2200.85,47.2441 "/>
<polyline clip-path="url(#clip462)" style="stroke:#000000; stroke-linecap:round; stroke-linejoin:round; stroke-width:2; stroke-opacity:0.1; fill:none" points="193.936,1287.4 2352.76,1287.4 "/>
<polyline clip-path="url(#clip462)" style="stroke:#000000; stroke-linecap:round; stroke-linejoin:round; stroke-width:2; stroke-opacity:0.1; fill:none" points="193.936,1016.88 2352.76,1016.88 "/>
<polyline clip-path="url(#clip462)" style="stroke:#000000; stroke-linecap:round; stroke-linejoin:round; stroke-width:2; stroke-opacity:0.1; fill:none" points="193.936,746.362 2352.76,746.362 "/>
<polyline clip-path="url(#clip462)" style="stroke:#000000; stroke-linecap:round; stroke-linejoin:round; stroke-width:2; stroke-opacity:0.1; fill:none" points="193.936,475.845 2352.76,475.845 "/>
<polyline clip-path="url(#clip462)" style="stroke:#000000; stroke-linecap:round; stroke-linejoin:round; stroke-width:2; stroke-opacity:0.1; fill:none" points="193.936,205.327 2352.76,205.327 "/>
<polyline clip-path="url(#clip460)" style="stroke:#000000; stroke-linecap:round; stroke-linejoin:round; stroke-width:4; stroke-opacity:1; fill:none" points="193.936,1486.45 2352.76,1486.45 "/>
<polyline clip-path="url(#clip460)" style="stroke:#000000; stroke-linecap:round; stroke-linejoin:round; stroke-width:4; stroke-opacity:1; fill:none" points="255.035,1486.45 255.035,1467.55 "/>
<polyline clip-path="url(#clip460)" style="stroke:#000000; stroke-linecap:round; stroke-linejoin:round; stroke-width:4; stroke-opacity:1; fill:none" points="579.338,1486.45 579.338,1467.55 "/>
<polyline clip-path="url(#clip460)" style="stroke:#000000; stroke-linecap:round; stroke-linejoin:round; stroke-width:4; stroke-opacity:1; fill:none" points="903.641,1486.45 903.641,1467.55 "/>
<polyline clip-path="url(#clip460)" style="stroke:#000000; stroke-linecap:round; stroke-linejoin:round; stroke-width:4; stroke-opacity:1; fill:none" points="1227.94,1486.45 1227.94,1467.55 "/>
<polyline clip-path="url(#clip460)" style="stroke:#000000; stroke-linecap:round; stroke-linejoin:round; stroke-width:4; stroke-opacity:1; fill:none" points="1552.25,1486.45 1552.25,1467.55 "/>
<polyline clip-path="url(#clip460)" style="stroke:#000000; stroke-linecap:round; stroke-linejoin:round; stroke-width:4; stroke-opacity:1; fill:none" points="1876.55,1486.45 1876.55,1467.55 "/>
<polyline clip-path="url(#clip460)" style="stroke:#000000; stroke-linecap:round; stroke-linejoin:round; stroke-width:4; stroke-opacity:1; fill:none" points="2200.85,1486.45 2200.85,1467.55 "/>
<path clip-path="url(#clip460)" d="M255.035 1517.37 Q251.424 1517.37 249.595 1520.93 Q247.789 1524.47 247.789 1531.6 Q247.789 1538.71 249.595 1542.27 Q251.424 1545.82 255.035 1545.82 Q258.669 1545.82 260.474 1542.27 Q262.303 1538.71 262.303 1531.6 Q262.303 1524.47 260.474 1520.93 Q258.669 1517.37 255.035 1517.37 M255.035 1513.66 Q260.845 1513.66 263.9 1518.27 Q266.979 1522.85 266.979 1531.6 Q266.979 1540.33 263.9 1544.94 Q260.845 1549.52 255.035 1549.52 Q249.225 1549.52 246.146 1544.94 Q243.09 1540.33 243.09 1531.6 Q243.09 1522.85 246.146 1518.27 Q249.225 1513.66 255.035 1513.66 Z" fill="#000000" fill-rule="nonzero" fill-opacity="1" /><path clip-path="url(#clip460)" d="M569.72 1544.91 L577.358 1544.91 L577.358 1518.55 L569.048 1520.21 L569.048 1515.95 L577.312 1514.29 L581.988 1514.29 L581.988 1544.91 L589.627 1544.91 L589.627 1548.85 L569.72 1548.85 L569.72 1544.91 Z" fill="#000000" fill-rule="nonzero" fill-opacity="1" /><path clip-path="url(#clip460)" d="M898.293 1544.91 L914.613 1544.91 L914.613 1548.85 L892.668 1548.85 L892.668 1544.91 Q895.33 1542.16 899.914 1537.53 Q904.52 1532.88 905.701 1531.53 Q907.946 1529.01 908.826 1527.27 Q909.729 1525.51 909.729 1523.82 Q909.729 1521.07 907.784 1519.33 Q905.863 1517.6 902.761 1517.6 Q900.562 1517.6 898.108 1518.36 Q895.678 1519.13 892.9 1520.68 L892.9 1515.95 Q895.724 1514.82 898.178 1514.24 Q900.631 1513.66 902.668 1513.66 Q908.039 1513.66 911.233 1516.35 Q914.428 1519.03 914.428 1523.52 Q914.428 1525.65 913.617 1527.57 Q912.83 1529.47 910.724 1532.07 Q910.145 1532.74 907.043 1535.95 Q903.942 1539.15 898.293 1544.91 Z" fill="#000000" fill-rule="nonzero" fill-opacity="1" /><path clip-path="url(#clip460)" d="M1232.19 1530.21 Q1235.55 1530.93 1237.42 1533.2 Q1239.32 1535.47 1239.32 1538.8 Q1239.32 1543.92 1235.8 1546.72 Q1232.28 1549.52 1225.8 1549.52 Q1223.63 1549.52 1221.31 1549.08 Q1219.02 1548.66 1216.57 1547.81 L1216.57 1543.29 Q1218.51 1544.43 1220.83 1545.01 Q1223.14 1545.58 1225.66 1545.58 Q1230.06 1545.58 1232.35 1543.85 Q1234.67 1542.11 1234.67 1538.8 Q1234.67 1535.75 1232.52 1534.03 Q1230.39 1532.3 1226.57 1532.3 L1222.54 1532.3 L1222.54 1528.45 L1226.75 1528.45 Q1230.2 1528.45 1232.03 1527.09 Q1233.86 1525.7 1233.86 1523.11 Q1233.86 1520.45 1231.96 1519.03 Q1230.08 1517.6 1226.57 1517.6 Q1224.64 1517.6 1222.45 1518.01 Q1220.25 1518.43 1217.61 1519.31 L1217.61 1515.14 Q1220.27 1514.4 1222.58 1514.03 Q1224.92 1513.66 1226.98 1513.66 Q1232.31 1513.66 1235.41 1516.09 Q1238.51 1518.5 1238.51 1522.62 Q1238.51 1525.49 1236.87 1527.48 Q1235.22 1529.45 1232.19 1530.21 Z" fill="#000000" fill-rule="nonzero" fill-opacity="1" /><path clip-path="url(#clip460)" d="M1555.26 1518.36 L1543.45 1536.81 L1555.26 1536.81 L1555.26 1518.36 M1554.03 1514.29 L1559.91 1514.29 L1559.91 1536.81 L1564.84 1536.81 L1564.84 1540.7 L1559.91 1540.7 L1559.91 1548.85 L1555.26 1548.85 L1555.26 1540.7 L1539.65 1540.7 L1539.65 1536.19 L1554.03 1514.29 Z" fill="#000000" fill-rule="nonzero" fill-opacity="1" /><path clip-path="url(#clip460)" d="M1866.83 1514.29 L1885.18 1514.29 L1885.18 1518.22 L1871.11 1518.22 L1871.11 1526.7 Q1872.13 1526.35 1873.15 1526.19 Q1874.17 1526 1875.18 1526 Q1880.97 1526 1884.35 1529.17 Q1887.73 1532.34 1887.73 1537.76 Q1887.73 1543.34 1884.26 1546.44 Q1880.79 1549.52 1874.47 1549.52 Q1872.29 1549.52 1870.02 1549.15 Q1867.78 1548.78 1865.37 1548.04 L1865.37 1543.34 Q1867.45 1544.47 1869.67 1545.03 Q1871.9 1545.58 1874.37 1545.58 Q1878.38 1545.58 1880.72 1543.48 Q1883.05 1541.37 1883.05 1537.76 Q1883.05 1534.15 1880.72 1532.04 Q1878.38 1529.94 1874.37 1529.94 Q1872.5 1529.94 1870.62 1530.35 Q1868.77 1530.77 1866.83 1531.65 L1866.83 1514.29 Z" fill="#000000" fill-rule="nonzero" fill-opacity="1" /><path clip-path="url(#clip460)" d="M2201.26 1529.7 Q2198.11 1529.7 2196.26 1531.86 Q2194.43 1534.01 2194.43 1537.76 Q2194.43 1541.49 2196.26 1543.66 Q2198.11 1545.82 2201.26 1545.82 Q2204.41 1545.82 2206.23 1543.66 Q2208.09 1541.49 2208.09 1537.76 Q2208.09 1534.01 2206.23 1531.86 Q2204.41 1529.7 2201.26 1529.7 M2210.54 1515.05 L2210.54 1519.31 Q2208.78 1518.48 2206.98 1518.04 Q2205.19 1517.6 2203.43 1517.6 Q2198.8 1517.6 2196.35 1520.72 Q2193.92 1523.85 2193.57 1530.17 Q2194.94 1528.15 2197 1527.09 Q2199.06 1526 2201.54 1526 Q2206.74 1526 2209.75 1529.17 Q2212.79 1532.32 2212.79 1537.76 Q2212.79 1543.08 2209.64 1546.3 Q2206.49 1549.52 2201.26 1549.52 Q2195.26 1549.52 2192.09 1544.94 Q2188.92 1540.33 2188.92 1531.6 Q2188.92 1523.41 2192.81 1518.55 Q2196.7 1513.66 2203.25 1513.66 Q2205.01 1513.66 2206.79 1514.01 Q2208.6 1514.36 2210.54 1515.05 Z" fill="#000000" fill-rule="nonzero" fill-opacity="1" /><polyline clip-path="url(#clip460)" style="stroke:#000000; stroke-linecap:round; stroke-linejoin:round; stroke-width:4; stroke-opacity:1; fill:none" points="193.936,1486.45 193.936,47.2441 "/>
<polyline clip-path="url(#clip460)" style="stroke:#000000; stroke-linecap:round; stroke-linejoin:round; stroke-width:4; stroke-opacity:1; fill:none" points="193.936,1287.4 212.834,1287.4 "/>
<polyline clip-path="url(#clip460)" style="stroke:#000000; stroke-linecap:round; stroke-linejoin:round; stroke-width:4; stroke-opacity:1; fill:none" points="193.936,1016.88 212.834,1016.88 "/>
<polyline clip-path="url(#clip460)" style="stroke:#000000; stroke-linecap:round; stroke-linejoin:round; stroke-width:4; stroke-opacity:1; fill:none" points="193.936,746.362 212.834,746.362 "/>
<polyline clip-path="url(#clip460)" style="stroke:#000000; stroke-linecap:round; stroke-linejoin:round; stroke-width:4; stroke-opacity:1; fill:none" points="193.936,475.845 212.834,475.845 "/>
<polyline clip-path="url(#clip460)" style="stroke:#000000; stroke-linecap:round; stroke-linejoin:round; stroke-width:4; stroke-opacity:1; fill:none" points="193.936,205.327 212.834,205.327 "/>
<path clip-path="url(#clip460)" d="M50.9921 1287.85 L80.6679 1287.85 L80.6679 1291.78 L50.9921 1291.78 L50.9921 1287.85 Z" fill="#000000" fill-rule="nonzero" fill-opacity="1" /><path clip-path="url(#clip460)" d="M91.5706 1300.74 L99.2095 1300.74 L99.2095 1274.38 L90.8993 1276.04 L90.8993 1271.78 L99.1632 1270.12 L103.839 1270.12 L103.839 1300.74 L111.478 1300.74 L111.478 1304.68 L91.5706 1304.68 L91.5706 1300.74 Z" fill="#000000" fill-rule="nonzero" fill-opacity="1" /><path clip-path="url(#clip460)" d="M120.922 1298.8 L125.807 1298.8 L125.807 1304.68 L120.922 1304.68 L120.922 1298.8 Z" fill="#000000" fill-rule="nonzero" fill-opacity="1" /><path clip-path="url(#clip460)" d="M145.992 1273.2 Q142.381 1273.2 140.552 1276.76 Q138.746 1280.3 138.746 1287.43 Q138.746 1294.54 140.552 1298.1 Q142.381 1301.64 145.992 1301.64 Q149.626 1301.64 151.431 1298.1 Q153.26 1294.54 153.26 1287.43 Q153.26 1280.3 151.431 1276.76 Q149.626 1273.2 145.992 1273.2 M145.992 1269.49 Q151.802 1269.49 154.857 1274.1 Q157.936 1278.68 157.936 1287.43 Q157.936 1296.16 154.857 1300.77 Q151.802 1305.35 145.992 1305.35 Q140.181 1305.35 137.103 1300.77 Q134.047 1296.16 134.047 1287.43 Q134.047 1278.68 137.103 1274.1 Q140.181 1269.49 145.992 1269.49 Z" fill="#000000" fill-rule="nonzero" fill-opacity="1" /><path clip-path="url(#clip460)" d="M51.9875 1017.33 L81.6633 1017.33 L81.6633 1021.27 L51.9875 1021.27 L51.9875 1017.33 Z" fill="#000000" fill-rule="nonzero" fill-opacity="1" /><path clip-path="url(#clip460)" d="M101.756 1002.68 Q98.1447 1002.68 96.316 1006.24 Q94.5104 1009.78 94.5104 1016.91 Q94.5104 1024.02 96.316 1027.59 Q98.1447 1031.13 101.756 1031.13 Q105.39 1031.13 107.196 1027.59 Q109.024 1024.02 109.024 1016.91 Q109.024 1009.78 107.196 1006.24 Q105.39 1002.68 101.756 1002.68 M101.756 998.975 Q107.566 998.975 110.621 1003.58 Q113.7 1008.16 113.7 1016.91 Q113.7 1025.64 110.621 1030.25 Q107.566 1034.83 101.756 1034.83 Q95.9456 1034.83 92.8669 1030.25 Q89.8114 1025.64 89.8114 1016.91 Q89.8114 1008.16 92.8669 1003.58 Q95.9456 998.975 101.756 998.975 Z" fill="#000000" fill-rule="nonzero" fill-opacity="1" /><path clip-path="url(#clip460)" d="M121.918 1028.28 L126.802 1028.28 L126.802 1034.16 L121.918 1034.16 L121.918 1028.28 Z" fill="#000000" fill-rule="nonzero" fill-opacity="1" /><path clip-path="url(#clip460)" d="M137.033 999.6 L155.39 999.6 L155.39 1003.53 L141.316 1003.53 L141.316 1012.01 Q142.334 1011.66 143.353 1011.5 Q144.371 1011.31 145.39 1011.31 Q151.177 1011.31 154.556 1014.48 Q157.936 1017.66 157.936 1023.07 Q157.936 1028.65 154.464 1031.75 Q150.992 1034.83 144.672 1034.83 Q142.496 1034.83 140.228 1034.46 Q137.982 1034.09 135.575 1033.35 L135.575 1028.65 Q137.658 1029.78 139.881 1030.34 Q142.103 1030.9 144.58 1030.9 Q148.584 1030.9 150.922 1028.79 Q153.26 1026.68 153.26 1023.07 Q153.26 1019.46 150.922 1017.35 Q148.584 1015.25 144.58 1015.25 Q142.705 1015.25 140.83 1015.66 Q138.978 1016.08 137.033 1016.96 L137.033 999.6 Z" fill="#000000" fill-rule="nonzero" fill-opacity="1" /><path clip-path="url(#clip460)" d="M100.76 732.161 Q97.1493 732.161 95.3206 735.726 Q93.515 739.267 93.515 746.397 Q93.515 753.503 95.3206 757.068 Q97.1493 760.61 100.76 760.61 Q104.395 760.61 106.2 757.068 Q108.029 753.503 108.029 746.397 Q108.029 739.267 106.2 735.726 Q104.395 732.161 100.76 732.161 M100.76 728.457 Q106.571 728.457 109.626 733.064 Q112.705 737.647 112.705 746.397 Q112.705 755.124 109.626 759.73 Q106.571 764.314 100.76 764.314 Q94.9502 764.314 91.8715 759.73 Q88.816 755.124 88.816 746.397 Q88.816 737.647 91.8715 733.064 Q94.9502 728.457 100.76 728.457 Z" fill="#000000" fill-rule="nonzero" fill-opacity="1" /><path clip-path="url(#clip460)" d="M120.922 757.763 L125.807 757.763 L125.807 763.642 L120.922 763.642 L120.922 757.763 Z" fill="#000000" fill-rule="nonzero" fill-opacity="1" /><path clip-path="url(#clip460)" d="M145.992 732.161 Q142.381 732.161 140.552 735.726 Q138.746 739.267 138.746 746.397 Q138.746 753.503 140.552 757.068 Q142.381 760.61 145.992 760.61 Q149.626 760.61 151.431 757.068 Q153.26 753.503 153.26 746.397 Q153.26 739.267 151.431 735.726 Q149.626 732.161 145.992 732.161 M145.992 728.457 Q151.802 728.457 154.857 733.064 Q157.936 737.647 157.936 746.397 Q157.936 755.124 154.857 759.73 Q151.802 764.314 145.992 764.314 Q140.181 764.314 137.103 759.73 Q134.047 755.124 134.047 746.397 Q134.047 737.647 137.103 733.064 Q140.181 728.457 145.992 728.457 Z" fill="#000000" fill-rule="nonzero" fill-opacity="1" /><path clip-path="url(#clip460)" d="M101.756 461.643 Q98.1447 461.643 96.316 465.208 Q94.5104 468.75 94.5104 475.879 Q94.5104 482.986 96.316 486.551 Q98.1447 490.092 101.756 490.092 Q105.39 490.092 107.196 486.551 Q109.024 482.986 109.024 475.879 Q109.024 468.75 107.196 465.208 Q105.39 461.643 101.756 461.643 M101.756 457.94 Q107.566 457.94 110.621 462.546 Q113.7 467.129 113.7 475.879 Q113.7 484.606 110.621 489.213 Q107.566 493.796 101.756 493.796 Q95.9456 493.796 92.8669 489.213 Q89.8114 484.606 89.8114 475.879 Q89.8114 467.129 92.8669 462.546 Q95.9456 457.94 101.756 457.94 Z" fill="#000000" fill-rule="nonzero" fill-opacity="1" /><path clip-path="url(#clip460)" d="M121.918 487.245 L126.802 487.245 L126.802 493.125 L121.918 493.125 L121.918 487.245 Z" fill="#000000" fill-rule="nonzero" fill-opacity="1" /><path clip-path="url(#clip460)" d="M137.033 458.565 L155.39 458.565 L155.39 462.5 L141.316 462.5 L141.316 470.972 Q142.334 470.625 143.353 470.463 Q144.371 470.278 145.39 470.278 Q151.177 470.278 154.556 473.449 Q157.936 476.62 157.936 482.037 Q157.936 487.615 154.464 490.717 Q150.992 493.796 144.672 493.796 Q142.496 493.796 140.228 493.426 Q137.982 493.055 135.575 492.315 L135.575 487.615 Q137.658 488.75 139.881 489.305 Q142.103 489.861 144.58 489.861 Q148.584 489.861 150.922 487.754 Q153.26 485.648 153.26 482.037 Q153.26 478.426 150.922 476.319 Q148.584 474.213 144.58 474.213 Q142.705 474.213 140.83 474.629 Q138.978 475.046 137.033 475.926 L137.033 458.565 Z" fill="#000000" fill-rule="nonzero" fill-opacity="1" /><path clip-path="url(#clip460)" d="M91.5706 218.672 L99.2095 218.672 L99.2095 192.306 L90.8993 193.973 L90.8993 189.714 L99.1632 188.047 L103.839 188.047 L103.839 218.672 L111.478 218.672 L111.478 222.607 L91.5706 222.607 L91.5706 218.672 Z" fill="#000000" fill-rule="nonzero" fill-opacity="1" /><path clip-path="url(#clip460)" d="M120.922 216.728 L125.807 216.728 L125.807 222.607 L120.922 222.607 L120.922 216.728 Z" fill="#000000" fill-rule="nonzero" fill-opacity="1" /><path clip-path="url(#clip460)" d="M145.992 191.126 Q142.381 191.126 140.552 194.691 Q138.746 198.232 138.746 205.362 Q138.746 212.468 140.552 216.033 Q142.381 219.575 145.992 219.575 Q149.626 219.575 151.431 216.033 Q153.26 212.468 153.26 205.362 Q153.26 198.232 151.431 194.691 Q149.626 191.126 145.992 191.126 M145.992 187.422 Q151.802 187.422 154.857 192.029 Q157.936 196.612 157.936 205.362 Q157.936 214.089 154.857 218.695 Q151.802 223.278 145.992 223.278 Q140.181 223.278 137.103 218.695 Q134.047 214.089 134.047 205.362 Q134.047 196.612 137.103 192.029 Q140.181 187.422 145.992 187.422 Z" fill="#000000" fill-rule="nonzero" fill-opacity="1" /><polyline clip-path="url(#clip462)" style="stroke:#009af9; stroke-linecap:round; stroke-linejoin:round; stroke-width:4; stroke-opacity:1; fill:none" points="255.035,746.362 258.278,740.952 261.521,735.542 264.764,730.134 268.007,724.727 271.25,719.322 274.493,713.92 277.736,708.521 280.979,703.126 284.222,697.735 287.465,692.349 290.708,686.968 293.951,681.594 297.194,676.226 300.437,670.865 303.68,665.511 306.923,660.166 310.166,654.829 313.409,649.501 316.652,644.183 319.895,638.875 323.138,633.578 326.381,628.292 329.624,623.018 332.867,617.757 336.11,612.508 339.353,607.273 342.596,602.051 345.84,596.844 349.083,591.652 352.326,586.475 355.569,581.315 358.812,576.171 362.055,571.044 365.298,565.934 368.541,560.843 371.784,555.77 375.027,550.716 378.27,545.681 381.513,540.667 384.756,535.673 387.999,530.701 391.242,525.75 394.485,520.821 397.728,515.914 400.971,511.031 404.214,506.171 407.457,501.335 410.7,496.524 413.943,491.737 417.186,486.976 420.429,482.241 423.672,477.533 426.915,472.851 430.158,468.197 433.401,463.57 436.644,458.972 439.887,454.402 443.13,449.862 446.373,445.351 449.616,440.871 452.859,436.421 456.103,432.002 459.346,427.614 462.589,423.259 465.832,418.935 469.075,414.645 472.318,410.387 475.561,406.163 478.804,401.973 482.047,397.818 485.29,393.697 488.533,389.612 491.776,385.562 495.019,381.549 498.262,377.572 501.505,373.632 504.748,369.729 507.991,365.863 511.234,362.036 514.477,358.247 517.72,354.497 520.963,350.787 524.206,347.115 527.449,343.484 530.692,339.893 533.935,336.343 537.178,332.833 540.421,329.365 543.664,325.939 546.907,322.555 550.15,319.213 553.393,315.914 556.636,312.658 559.879,309.445 563.122,306.276 566.366,303.151 569.609,300.07 572.852,297.034 576.095,294.043 579.338,291.097 582.581,288.197 585.824,285.342 589.067,282.533 592.31,279.771 595.553,277.056 598.796,274.387 602.039,271.766 605.282,269.192 608.525,266.666 611.768,264.188 615.011,261.758 618.254,259.376 621.497,257.044 624.74,254.76 627.983,252.525 631.226,250.34 634.469,248.204 637.712,246.118 640.955,244.082 644.198,242.096 647.441,240.161 650.684,238.277 653.927,236.443 657.17,234.66 660.413,232.928 663.656,231.248 666.899,229.619 670.142,228.042 673.385,226.517 676.629,225.043 679.872,223.622 683.115,222.253 686.358,220.937 689.601,219.673 692.844,218.462 696.087,217.303 699.33,216.198 702.573,215.145 705.816,214.146 709.059,213.199 712.302,212.306 715.545,211.467 718.788,210.681 722.031,209.949 725.274,209.27 728.517,208.645 731.76,208.073 735.003,207.556 738.246,207.092 741.489,206.682 744.732,206.327 747.975,206.025 751.218,205.777 754.461,205.584 757.704,205.444 760.947,205.359 764.19,205.327 767.433,205.35 770.676,205.427 773.919,205.558 777.162,205.743 780.405,205.982 783.648,206.275 786.892,206.622 790.135,207.023 793.378,207.478 796.621,207.987 799.864,208.55 803.107,209.167 806.35,209.837 809.593,210.561 812.836,211.338 816.079,212.169 819.322,213.054 822.565,213.991 825.808,214.982 829.051,216.026 832.294,217.124 835.537,218.274 838.78,219.477 842.023,220.732 845.266,222.04 848.509,223.401 851.752,224.814 854.995,226.279 858.238,227.796 861.481,229.365 864.724,230.985 867.967,232.657 871.21,234.381 874.453,236.155 877.696,237.981 880.939,239.858 884.182,241.785 887.425,243.762 890.668,245.79 893.911,247.868 897.155,249.996 900.398,252.174 903.641,254.4 906.884,256.677 910.127,259.002 913.37,261.375 916.613,263.798 919.856,266.268 923.099,268.787 926.342,271.353 929.585,273.967 932.828,276.628 936.071,279.336 939.314,282.09 942.557,284.892 945.8,287.739 949.043,290.632 952.286,293.571 955.529,296.555 958.772,299.584 962.015,302.657 965.258,305.775 968.501,308.937 971.744,312.143 974.987,315.392 978.23,318.685 981.473,322.02 984.716,325.397 987.959,328.817 991.202,332.278 994.445,335.781 997.688,339.325 1000.93,342.91 1004.17,346.534 1007.42,350.199 1010.66,353.904 1013.9,357.648 1017.15,361.43 1020.39,365.251 1023.63,369.111 1026.88,373.007 1030.12,376.942 1033.36,380.913 1036.6,384.921 1039.85,388.965 1043.09,393.044 1046.33,397.159 1049.58,401.309 1052.82,405.494 1056.06,409.712 1059.31,413.964 1062.55,418.25 1065.79,422.568 1069.04,426.918 1072.28,431.301 1075.52,435.715 1078.76,440.16 1082.01,444.636 1085.25,449.142 1088.49,453.677 1091.74,458.242 1094.98,462.836 1098.22,467.458 1101.47,472.108 1104.71,476.785 1107.95,481.49 1111.19,486.22 1114.44,490.977 1117.68,495.76 1120.92,500.567 1124.17,505.399 1127.41,510.255 1130.65,515.135 1133.9,520.038 1137.14,524.963 1140.38,529.911 1143.62,534.88 1146.87,539.87 1150.11,544.881 1153.35,549.913 1156.6,554.963 1159.84,560.033 1163.08,565.122 1166.33,570.229 1169.57,575.353 1172.81,580.494 1176.06,585.652 1179.3,590.827 1182.54,596.016 1185.78,601.221 1189.03,606.44 1192.27,611.673 1195.51,616.92 1198.76,622.18 1202,627.452 1205.24,632.736 1208.49,638.031 1211.73,643.337 1214.97,648.653 1218.21,653.98 1221.46,659.315 1224.7,664.659 1227.94,670.011 1231.19,675.371 1234.43,680.738 1237.67,686.112 1240.92,691.492 1244.16,696.877 1247.4,702.267 1250.64,707.661 1253.89,713.06 1257.13,718.461 1260.37,723.866 1263.62,729.272 1266.86,734.681 1270.1,740.09 1273.35,745.501 1276.59,750.911 1279.83,756.321 1283.08,761.73 1286.32,767.137 1289.56,772.542 1292.8,777.945 1296.05,783.344 1299.29,788.74 1302.53,794.131 1305.78,799.518 1309.02,804.9 1312.26,810.275 1315.51,815.644 1318.75,821.007 1321.99,826.361 1325.23,831.708 1328.48,837.046 1331.72,842.376 1334.96,847.695 1338.21,853.005 1341.45,858.304 1344.69,863.591 1347.94,868.867 1351.18,874.131 1354.42,879.381 1357.66,884.619 1360.91,889.843 1364.15,895.052 1367.39,900.247 1370.64,905.426 1373.88,910.589 1377.12,915.736 1380.37,920.866 1383.61,925.978 1386.85,931.072 1390.1,936.148 1393.34,941.205 1396.58,946.243 1399.82,951.26 1403.07,956.257 1406.31,961.233 1409.55,966.188 1412.8,971.12 1416.04,976.031 1419.28,980.918 1422.53,985.781 1425.77,990.621 1429.01,995.436 1432.25,1000.23 1435.5,1004.99 1438.74,1009.73 1441.98,1014.44 1445.23,1019.13 1448.47,1023.79 1451.71,1028.42 1454.96,1033.02 1458.2,1037.6 1461.44,1042.14 1464.68,1046.66 1467.93,1051.14 1471.17,1055.6 1474.41,1060.02 1477.66,1064.41 1480.9,1068.77 1484.14,1073.1 1487.39,1077.4 1490.63,1081.66 1493.87,1085.89 1497.11,1090.09 1500.36,1094.25 1503.6,1098.37 1506.84,1102.46 1510.09,1106.52 1513.33,1110.54 1516.57,1114.52 1519.82,1118.47 1523.06,1122.38 1526.3,1126.25 1529.55,1130.08 1532.79,1133.88 1536.03,1137.63 1539.27,1141.35 1542.52,1145.03 1545.76,1148.66 1549,1152.26 1552.25,1155.82 1555.49,1159.33 1558.73,1162.81 1561.98,1166.24 1565.22,1169.63 1568.46,1172.98 1571.7,1176.29 1574.95,1179.55 1578.19,1182.77 1581.43,1185.95 1584.68,1189.08 1587.92,1192.17 1591.16,1195.21 1594.41,1198.21 1597.65,1201.16 1600.89,1204.07 1604.13,1206.93 1607.38,1209.75 1610.62,1212.52 1613.86,1215.24 1617.11,1217.92 1620.35,1220.54 1623.59,1223.13 1626.84,1225.66 1630.08,1228.15 1633.32,1230.58 1636.57,1232.97 1639.81,1235.31 1643.05,1237.6 1646.29,1239.85 1649.54,1242.04 1652.78,1244.18 1656.02,1246.28 1659.27,1248.32 1662.51,1250.32 1665.75,1252.26 1669,1254.15 1672.24,1255.99 1675.48,1257.78 1678.72,1259.52 1681.97,1261.21 1685.21,1262.85 1688.45,1264.43 1691.7,1265.97 1694.94,1267.45 1698.18,1268.88 1701.43,1270.26 1704.67,1271.58 1707.91,1272.85 1711.15,1274.07 1714.4,1275.24 1717.64,1276.35 1720.88,1277.42 1724.13,1278.42 1727.37,1279.38 1730.61,1280.28 1733.86,1281.13 1737.1,1281.92 1740.34,1282.66 1743.59,1283.35 1746.83,1283.98 1750.07,1284.56 1753.31,1285.09 1756.56,1285.56 1759.8,1285.98 1763.04,1286.34 1766.29,1286.66 1769.53,1286.91 1772.77,1287.11 1776.02,1287.26 1779.26,1287.36 1782.5,1287.4 1785.74,1287.38 1788.99,1287.31 1792.23,1287.19 1795.47,1287.01 1798.72,1286.78 1801.96,1286.5 1805.2,1286.16 1808.45,1285.77 1811.69,1285.32 1814.93,1284.82 1818.17,1284.27 1821.42,1283.66 1824.66,1283 1827.9,1282.28 1831.15,1281.51 1834.39,1280.69 1837.63,1279.82 1840.88,1278.89 1844.12,1277.9 1847.36,1276.87 1850.61,1275.78 1853.85,1274.64 1857.09,1273.44 1860.33,1272.2 1863.58,1270.9 1866.82,1269.54 1870.06,1268.14 1873.31,1266.68 1876.55,1265.17 1879.79,1263.61 1883.04,1262 1886.28,1260.34 1889.52,1258.62 1892.76,1256.86 1896.01,1255.04 1899.25,1253.17 1902.49,1251.25 1905.74,1249.28 1908.98,1247.26 1912.22,1245.19 1915.47,1243.07 1918.71,1240.9 1921.95,1238.68 1925.19,1236.41 1928.44,1234.1 1931.68,1231.73 1934.92,1229.32 1938.17,1226.85 1941.41,1224.34 1944.65,1221.78 1947.9,1219.18 1951.14,1216.52 1954.38,1213.82 1957.63,1211.08 1960.87,1208.28 1964.11,1205.44 1967.35,1202.56 1970.6,1199.62 1973.84,1196.65 1977.08,1193.63 1980.33,1190.56 1983.57,1187.45 1986.81,1184.29 1990.06,1181.09 1993.3,1177.85 1996.54,1174.57 1999.78,1171.24 2003.03,1167.87 2006.27,1164.45 2009.51,1161 2012.76,1157.5 2016,1153.97 2019.24,1150.39 2022.49,1146.77 2025.73,1143.11 2028.97,1139.41 2032.21,1135.68 2035.46,1131.9 2038.7,1128.08 2041.94,1124.23 2045.19,1120.34 2048.43,1116.41 2051.67,1112.45 2054.92,1108.44 2058.16,1104.41 2061.4,1100.33 2064.65,1096.22 2067.89,1092.08 2071.13,1087.9 2074.37,1083.69 2077.62,1079.44 2080.86,1075.16 2084.1,1070.85 2087.35,1066.5 2090.59,1062.12 2093.83,1057.71 2097.08,1053.27 2100.32,1048.8 2103.56,1044.3 2106.8,1039.77 2110.05,1035.21 2113.29,1030.62 2116.53,1026 2119.78,1021.36 2123.02,1016.69 2126.26,1011.99 2129.51,1007.26 2132.75,1002.51 2135.99,997.728 2139.23,992.925 2142.48,988.097 2145.72,983.244 2148.96,978.369 2152.21,973.469 2155.45,968.547 2158.69,963.603 2161.94,958.638 2165.18,953.65 2168.42,948.643 2171.67,943.615 2174.91,938.567 2178.15,933.5 2181.39,928.414 2184.64,923.31 2187.88,918.189 2191.12,913.05 2194.37,907.895 2197.61,902.723 2200.85,897.536 2204.1,892.334 2207.34,887.117 2210.58,881.886 2213.82,876.641 2217.07,871.383 2220.31,866.113 2223.55,860.831 2226.8,855.538 2230.04,850.233 2233.28,844.919 2236.53,839.594 2239.77,834.26 2243.01,828.917 2246.25,823.566 2249.5,818.207 2252.74,812.841 2255.98,807.469 2259.23,802.09 2262.47,796.706 2265.71,791.317 2268.96,785.923 2272.2,780.525 2275.44,775.124 2278.69,769.72 2281.93,764.313 2285.17,758.905 2288.41,753.496 2291.66,748.086 "/>
<circle clip-path="url(#clip462)" cx="615.011" cy="290.737" r="14.4" fill="#e26f46" fill-rule="evenodd" fill-opacity="1" stroke="#000000" stroke-opacity="1" stroke-width="3.2"/>
<circle clip-path="url(#clip462)" cx="1711.15" cy="1341.78" r="14.4" fill="#e26f46" fill-rule="evenodd" fill-opacity="1" stroke="#000000" stroke-opacity="1" stroke-width="3.2"/>
<circle clip-path="url(#clip462)" cx="1857.09" cy="1308.87" r="14.4" fill="#e26f46" fill-rule="evenodd" fill-opacity="1" stroke="#000000" stroke-opacity="1" stroke-width="3.2"/>
<circle clip-path="url(#clip462)" cx="2061.4" cy="1013.84" r="14.4" fill="#e26f46" fill-rule="evenodd" fill-opacity="1" stroke="#000000" stroke-opacity="1" stroke-width="3.2"/>
<circle clip-path="url(#clip462)" cx="1860.33" cy="1139.32" r="14.4" fill="#e26f46" fill-rule="evenodd" fill-opacity="1" stroke="#000000" stroke-opacity="1" stroke-width="3.2"/>
<circle clip-path="url(#clip462)" cx="1847.36" cy="1177.98" r="14.4" fill="#e26f46" fill-rule="evenodd" fill-opacity="1" stroke="#000000" stroke-opacity="1" stroke-width="3.2"/>
<circle clip-path="url(#clip462)" cx="1915.47" cy="1373.31" r="14.4" fill="#e26f46" fill-rule="evenodd" fill-opacity="1" stroke="#000000" stroke-opacity="1" stroke-width="3.2"/>
<circle clip-path="url(#clip462)" cx="790.135" cy="336.077" r="14.4" fill="#e26f46" fill-rule="evenodd" fill-opacity="1" stroke="#000000" stroke-opacity="1" stroke-width="3.2"/>
<circle clip-path="url(#clip462)" cx="517.72" cy="390.046" r="14.4" fill="#e26f46" fill-rule="evenodd" fill-opacity="1" stroke="#000000" stroke-opacity="1" stroke-width="3.2"/>
<circle clip-path="url(#clip462)" cx="2080.86" cy="1079.51" r="14.4" fill="#e26f46" fill-rule="evenodd" fill-opacity="1" stroke="#000000" stroke-opacity="1" stroke-width="3.2"/>
<circle clip-path="url(#clip462)" cx="1964.11" cy="1091.55" r="14.4" fill="#e26f46" fill-rule="evenodd" fill-opacity="1" stroke="#000000" stroke-opacity="1" stroke-width="3.2"/>
<circle clip-path="url(#clip462)" cx="482.047" cy="334.153" r="14.4" fill="#e26f46" fill-rule="evenodd" fill-opacity="1" stroke="#000000" stroke-opacity="1" stroke-width="3.2"/>
<circle clip-path="url(#clip462)" cx="595.553" cy="393.634" r="14.4" fill="#e26f46" fill-rule="evenodd" fill-opacity="1" stroke="#000000" stroke-opacity="1" stroke-width="3.2"/>
<circle clip-path="url(#clip462)" cx="2246.25" cy="953.06" r="14.4" fill="#e26f46" fill-rule="evenodd" fill-opacity="1" stroke="#000000" stroke-opacity="1" stroke-width="3.2"/>
<circle clip-path="url(#clip462)" cx="1140.38" cy="575.719" r="14.4" fill="#e26f46" fill-rule="evenodd" fill-opacity="1" stroke="#000000" stroke-opacity="1" stroke-width="3.2"/>
<circle clip-path="url(#clip462)" cx="793.378" cy="144.26" r="14.4" fill="#e26f46" fill-rule="evenodd" fill-opacity="1" stroke="#000000" stroke-opacity="1" stroke-width="3.2"/>
<circle clip-path="url(#clip462)" cx="906.884" cy="229.158" r="14.4" fill="#e26f46" fill-rule="evenodd" fill-opacity="1" stroke="#000000" stroke-opacity="1" stroke-width="3.2"/>
<circle clip-path="url(#clip462)" cx="527.449" cy="389.727" r="14.4" fill="#e26f46" fill-rule="evenodd" fill-opacity="1" stroke="#000000" stroke-opacity="1" stroke-width="3.2"/>
<circle clip-path="url(#clip462)" cx="611.768" cy="252.031" r="14.4" fill="#e26f46" fill-rule="evenodd" fill-opacity="1" stroke="#000000" stroke-opacity="1" stroke-width="3.2"/>
<circle clip-path="url(#clip462)" cx="1218.21" cy="566.108" r="14.4" fill="#e26f46" fill-rule="evenodd" fill-opacity="1" stroke="#000000" stroke-opacity="1" stroke-width="3.2"/>
<path clip-path="url(#clip462)" d="M255.035 1003.89 L258.278 999.649 L261.521 995.347 L264.764 990.989 L268.007 986.573 L271.25 982.1 L274.493 977.569 L277.736 972.98 L280.979 968.332 L284.222 963.626 L287.465 958.86 L290.708 954.036 L293.951 949.151 L297.194 944.207 L300.437 939.203 L303.68 934.139 L306.923 929.014 L310.166 923.83 L313.409 918.584 L316.652 913.279 L319.895 907.913 L323.138 902.487 L326.381 897.001 L329.624 891.454 L332.867 885.848 L336.11 880.183 L339.353 874.458 L342.596 868.674 L345.84 862.832 L349.083 856.933 L352.326 850.976 L355.569 844.963 L358.812 838.894 L362.055 832.77 L365.298 826.592 L368.541 820.362 L371.784 814.079 L375.027 807.747 L378.27 801.366 L381.513 794.937 L384.756 788.462 L387.999 781.944 L391.242 775.384 L394.485 768.785 L397.728 762.148 L400.971 755.476 L404.214 748.773 L407.457 742.04 L410.7 735.282 L413.943 728.502 L417.186 721.703 L420.429 714.889 L423.672 708.066 L426.915 701.237 L430.158 694.408 L433.401 687.583 L436.644 680.77 L439.887 673.973 L443.13 667.2 L446.373 660.458 L449.616 653.754 L452.859 647.097 L456.103 640.494 L459.346 633.955 L462.589 627.49 L465.832 621.11 L469.075 614.824 L472.318 608.644 L475.561 602.582 L478.804 596.651 L482.047 590.863 L485.29 585.229 L488.533 579.751 L491.776 574.431 L495.019 569.268 L498.262 564.264 L501.505 559.421 L504.748 554.739 L507.991 550.223 L511.234 545.874 L514.477 541.695 L517.72 537.69 L520.963 533.86 L524.206 530.202 L527.449 526.712 L530.692 523.385 L533.935 520.21 L537.178 517.178 L540.421 514.276 L543.664 511.497 L546.907 508.83 L550.15 506.269 L553.393 503.807 L556.636 501.437 L559.879 499.156 L563.122 496.961 L566.366 494.849 L569.609 492.821 L572.852 490.877 L576.095 489.02 L579.338 487.252 L582.581 485.579 L585.824 484.005 L589.067 482.537 L592.31 481.182 L595.553 479.947 L598.796 478.842 L602.039 477.869 L605.282 477.033 L608.525 476.339 L611.768 475.792 L615.011 475.393 L618.254 475.136 L621.497 475.007 L624.74 474.989 L627.983 475.065 L631.226 475.222 L634.469 475.443 L637.712 475.714 L640.955 476.024 L644.198 476.358 L647.441 476.706 L650.684 477.056 L653.927 477.399 L657.17 477.725 L660.413 478.026 L663.656 478.295 L666.899 478.525 L670.142 478.709 L673.385 478.842 L676.629 478.921 L679.872 478.94 L683.115 478.896 L686.358 478.787 L689.601 478.611 L692.844 478.366 L696.087 478.052 L699.33 477.668 L702.573 477.215 L705.816 476.693 L709.059 476.104 L712.302 475.45 L715.545 474.735 L718.788 473.96 L722.031 473.13 L725.274 472.25 L728.517 471.325 L731.76 470.359 L735.003 469.36 L738.246 468.335 L741.489 467.291 L744.732 466.235 L747.975 465.178 L751.218 464.129 L754.461 463.097 L757.704 462.094 L760.947 461.13 L764.19 460.219 L767.433 459.372 L770.676 458.602 L773.919 457.923 L777.162 457.349 L780.405 456.893 L783.648 456.572 L786.892 456.398 L790.135 456.386 L793.378 456.55 L796.621 456.895 L799.864 457.416 L803.107 458.103 L806.35 458.948 L809.593 459.941 L812.836 461.073 L816.079 462.337 L819.322 463.723 L822.565 465.223 L825.808 466.832 L829.051 468.54 L832.294 470.344 L835.537 472.236 L838.78 474.211 L842.023 476.266 L845.266 478.397 L848.509 480.6 L851.752 482.874 L854.995 485.216 L858.238 487.626 L861.481 490.103 L864.724 492.648 L867.967 495.261 L871.21 497.943 L874.453 500.698 L877.696 503.526 L880.939 506.432 L884.182 509.419 L887.425 512.49 L890.668 515.65 L893.911 518.903 L897.155 522.255 L900.398 525.711 L903.641 529.276 L906.884 532.955 L910.127 536.752 L913.37 540.659 L916.613 544.665 L919.856 548.762 L923.099 552.939 L926.342 557.186 L929.585 561.495 L932.828 565.857 L936.071 570.261 L939.314 574.701 L942.557 579.167 L945.8 583.653 L949.043 588.15 L952.286 592.651 L955.529 597.15 L958.772 601.639 L962.015 606.113 L965.258 610.566 L968.501 614.992 L971.744 619.386 L974.987 623.743 L978.23 628.058 L981.473 632.327 L984.716 636.546 L987.959 640.71 L991.202 644.817 L994.445 648.863 L997.688 652.845 L1000.93 656.76 L1004.17 660.606 L1007.42 664.38 L1010.66 668.081 L1013.9 671.706 L1017.15 675.254 L1020.39 678.724 L1023.63 682.115 L1026.88 685.425 L1030.12 688.655 L1033.36 691.804 L1036.6 694.872 L1039.85 697.859 L1043.09 700.766 L1046.33 703.593 L1049.58 706.341 L1052.82 709.011 L1056.06 711.606 L1059.31 714.126 L1062.55 716.574 L1065.79 718.952 L1069.04 721.264 L1072.28 723.511 L1075.52 725.698 L1078.76 727.828 L1082.01 729.905 L1085.25 731.934 L1088.49 733.92 L1091.74 735.867 L1094.98 737.782 L1098.22 739.67 L1101.47 741.539 L1104.71 743.394 L1107.95 745.244 L1111.19 747.095 L1114.44 748.957 L1117.68 750.837 L1120.92 752.745 L1124.17 754.69 L1127.41 756.682 L1130.65 758.73 L1133.9 760.844 L1137.14 763.036 L1140.38 765.316 L1143.62 767.692 L1146.87 770.167 L1150.11 772.741 L1153.35 775.416 L1156.6 778.193 L1159.84 781.071 L1163.08 784.054 L1166.33 787.142 L1169.57 790.336 L1172.81 793.64 L1176.06 797.055 L1179.3 800.583 L1182.54 804.228 L1185.78 807.994 L1189.03 811.882 L1192.27 815.898 L1195.51 820.044 L1198.76 824.326 L1202 828.748 L1205.24 833.313 L1208.49 838.028 L1211.73 842.897 L1214.97 847.924 L1218.21 853.115 L1221.46 858.471 L1224.7 863.986 L1227.94 869.648 L1231.19 875.448 L1234.43 881.376 L1237.67 887.421 L1240.92 893.574 L1244.16 899.827 L1247.4 906.168 L1250.64 912.591 L1253.89 919.087 L1257.13 925.647 L1260.37 932.264 L1263.62 938.93 L1266.86 945.64 L1270.1 952.385 L1273.35 959.16 L1276.59 965.96 L1279.83 972.777 L1283.08 979.608 L1286.32 986.447 L1289.56 993.29 L1292.8 1000.13 L1296.05 1006.97 L1299.29 1013.8 L1302.53 1020.61 L1305.78 1027.41 L1309.02 1034.2 L1312.26 1040.96 L1315.51 1047.69 L1318.75 1054.4 L1321.99 1061.08 L1325.23 1067.72 L1328.48 1074.34 L1331.72 1080.91 L1334.96 1087.45 L1338.21 1093.95 L1341.45 1100.41 L1344.69 1106.83 L1347.94 1113.2 L1351.18 1119.53 L1354.42 1125.81 L1357.66 1132.05 L1360.91 1138.24 L1364.15 1144.37 L1367.39 1150.46 L1370.64 1156.5 L1373.88 1162.48 L1377.12 1168.41 L1380.37 1174.29 L1383.61 1180.12 L1386.85 1185.89 L1390.1 1191.6 L1393.34 1197.26 L1396.58 1202.87 L1399.82 1208.42 L1403.07 1213.91 L1406.31 1219.34 L1409.55 1224.72 L1412.8 1230.04 L1416.04 1235.3 L1419.28 1240.51 L1422.53 1245.65 L1425.77 1250.74 L1429.01 1255.76 L1432.25 1260.73 L1435.5 1265.64 L1438.74 1270.48 L1441.98 1275.27 L1445.23 1280 L1448.47 1284.66 L1451.71 1289.27 L1454.96 1293.81 L1458.2 1298.3 L1461.44 1302.72 L1464.68 1307.08 L1467.93 1311.37 L1471.17 1315.61 L1474.41 1319.78 L1477.66 1323.89 L1480.9 1327.94 L1484.14 1331.92 L1487.39 1335.84 L1490.63 1339.69 L1493.87 1343.49 L1497.11 1347.21 L1500.36 1350.88 L1503.6 1354.47 L1506.84 1358 L1510.09 1361.47 L1513.33 1364.87 L1516.57 1368.2 L1519.82 1371.47 L1523.06 1374.67 L1526.3 1377.8 L1529.55 1380.87 L1532.79 1383.87 L1536.03 1386.8 L1539.27 1389.66 L1542.52 1392.45 L1545.76 1395.17 L1549 1397.82 L1552.25 1400.4 L1555.49 1402.92 L1558.73 1405.36 L1561.98 1407.73 L1565.22 1410.03 L1568.46 1412.25 L1571.7 1414.41 L1574.95 1416.49 L1578.19 1418.5 L1581.43 1420.44 L1584.68 1422.31 L1587.92 1424.1 L1591.16 1425.82 L1594.41 1427.47 L1597.65 1429.04 L1600.89 1430.54 L1604.13 1431.97 L1607.38 1433.32 L1610.62 1434.6 L1613.86 1435.81 L1617.11 1436.94 L1620.35 1438.01 L1623.59 1439 L1626.84 1439.92 L1630.08 1440.76 L1633.32 1441.54 L1636.57 1442.25 L1639.81 1442.88 L1643.05 1443.45 L1646.29 1443.96 L1649.54 1444.39 L1652.78 1444.76 L1656.02 1445.07 L1659.27 1445.32 L1662.51 1445.5 L1665.75 1445.63 L1669 1445.7 L1672.24 1445.72 L1675.48 1445.68 L1678.72 1445.59 L1681.97 1445.45 L1685.21 1445.27 L1688.45 1445.04 L1691.7 1444.77 L1694.94 1444.46 L1698.18 1444.12 L1701.43 1443.74 L1704.67 1443.33 L1707.91 1442.89 L1711.15 1442.43 L1714.4 1441.94 L1717.64 1441.42 L1720.88 1440.87 L1724.13 1440.28 L1727.37 1439.65 L1730.61 1438.98 L1733.86 1438.26 L1737.1 1437.49 L1740.34 1436.66 L1743.59 1435.77 L1746.83 1434.82 L1750.07 1433.8 L1753.31 1432.71 L1756.56 1431.55 L1759.8 1430.32 L1763.04 1429.01 L1766.29 1427.62 L1769.53 1426.15 L1772.77 1424.6 L1776.02 1422.97 L1779.26 1421.26 L1782.5 1419.47 L1785.74 1417.6 L1788.99 1415.65 L1792.23 1413.64 L1795.47 1411.55 L1798.72 1409.4 L1801.96 1407.18 L1805.2 1404.91 L1808.45 1402.59 L1811.69 1400.23 L1814.93 1397.83 L1818.17 1395.41 L1821.42 1392.97 L1824.66 1390.52 L1827.9 1388.08 L1831.15 1385.66 L1834.39 1383.26 L1837.63 1380.9 L1840.88 1378.6 L1844.12 1376.37 L1847.36 1374.22 L1850.61 1372.17 L1853.85 1370.22 L1857.09 1368.37 L1860.33 1366.63 L1863.58 1365 L1866.82 1363.46 L1870.06 1362.01 L1873.31 1360.62 L1876.55 1359.29 L1879.79 1358 L1883.04 1356.75 L1886.28 1355.51 L1889.52 1354.29 L1892.76 1353.06 L1896.01 1351.82 L1899.25 1350.56 L1902.49 1349.28 L1905.74 1347.96 L1908.98 1346.6 L1912.22 1345.2 L1915.47 1343.75 L1918.71 1342.25 L1921.95 1340.69 L1925.19 1339.07 L1928.44 1337.39 L1931.68 1335.66 L1934.92 1333.87 L1938.17 1332.02 L1941.41 1330.12 L1944.65 1328.17 L1947.9 1326.18 L1951.14 1324.13 L1954.38 1322.06 L1957.63 1319.94 L1960.87 1317.81 L1964.11 1315.65 L1967.35 1313.47 L1970.6 1311.28 L1973.84 1309.07 L1977.08 1306.83 L1980.33 1304.56 L1983.57 1302.26 L1986.81 1299.93 L1990.06 1297.56 L1993.3 1295.16 L1996.54 1292.72 L1999.78 1290.25 L2003.03 1287.75 L2006.27 1285.22 L2009.51 1282.66 L2012.76 1280.07 L2016 1277.47 L2019.24 1274.85 L2022.49 1272.22 L2025.73 1269.58 L2028.97 1266.95 L2032.21 1264.33 L2035.46 1261.73 L2038.7 1259.15 L2041.94 1256.62 L2045.19 1254.13 L2048.43 1251.69 L2051.67 1249.32 L2054.92 1247.04 L2058.16 1244.84 L2061.4 1242.74 L2064.65 1240.75 L2067.89 1238.87 L2071.13 1237.1 L2074.37 1235.44 L2077.62 1233.89 L2080.86 1232.45 L2084.1 1231.11 L2087.35 1229.87 L2090.59 1228.71 L2093.83 1227.64 L2097.08 1226.63 L2100.32 1225.68 L2103.56 1224.79 L2106.8 1223.94 L2110.05 1223.12 L2113.29 1222.34 L2116.53 1221.58 L2119.78 1220.83 L2123.02 1220.09 L2126.26 1219.37 L2129.51 1218.64 L2132.75 1217.9 L2135.99 1217.17 L2139.23 1216.42 L2142.48 1215.66 L2145.72 1214.88 L2148.96 1214.09 L2152.21 1213.28 L2155.45 1212.45 L2158.69 1211.6 L2161.94 1210.74 L2165.18 1209.85 L2168.42 1208.96 L2171.67 1208.04 L2174.91 1207.12 L2178.15 1206.18 L2181.39 1205.24 L2184.64 1204.3 L2187.88 1203.35 L2191.12 1202.41 L2194.37 1201.48 L2197.61 1200.56 L2200.85 1199.67 L2204.1 1198.8 L2207.34 1197.96 L2210.58 1197.16 L2213.82 1196.4 L2217.07 1195.7 L2220.31 1195.05 L2223.55 1194.48 L2226.8 1193.97 L2230.04 1193.55 L2233.28 1193.22 L2236.53 1192.98 L2239.77 1192.85 L2243.01 1192.83 L2246.25 1192.93 L2249.5 1193.15 L2252.74 1193.5 L2255.98 1193.96 L2259.23 1194.53 L2262.47 1195.2 L2265.71 1195.97 L2268.96 1196.84 L2272.2 1197.79 L2275.44 1198.82 L2278.69 1199.92 L2281.93 1201.09 L2285.17 1202.33 L2288.41 1203.62 L2291.66 1204.97 L2291.66 618.128 L2288.41 622.917 L2285.17 627.673 L2281.93 632.391 L2278.69 637.064 L2275.44 641.686 L2272.2 646.252 L2268.96 650.756 L2265.71 655.191 L2262.47 659.551 L2259.23 663.829 L2255.98 668.018 L2252.74 672.113 L2249.5 676.106 L2246.25 679.992 L2243.01 683.766 L2239.77 687.435 L2236.53 691.007 L2233.28 694.49 L2230.04 697.894 L2226.8 701.226 L2223.55 704.496 L2220.31 707.712 L2217.07 710.882 L2213.82 714.015 L2210.58 717.119 L2207.34 720.201 L2204.1 723.269 L2200.85 726.33 L2197.61 729.39 L2194.37 732.458 L2191.12 735.538 L2187.88 738.636 L2184.64 741.757 L2181.39 744.907 L2178.15 748.09 L2174.91 751.31 L2171.67 754.57 L2168.42 757.874 L2165.18 761.224 L2161.94 764.622 L2158.69 768.071 L2155.45 771.57 L2152.21 775.122 L2148.96 778.725 L2145.72 782.38 L2142.48 786.087 L2139.23 789.843 L2135.99 793.647 L2132.75 797.497 L2129.51 801.389 L2126.26 805.32 L2123.02 809.286 L2119.78 813.283 L2116.53 817.306 L2113.29 821.349 L2110.05 825.405 L2106.8 829.469 L2103.56 833.533 L2100.32 837.59 L2097.08 841.631 L2093.83 845.647 L2090.59 849.631 L2087.35 853.574 L2084.1 857.464 L2080.86 861.295 L2077.62 865.057 L2074.37 868.751 L2071.13 872.378 L2067.89 875.942 L2064.65 879.444 L2061.4 882.885 L2058.16 886.271 L2054.92 889.608 L2051.67 892.906 L2048.43 896.173 L2045.19 899.418 L2041.94 902.65 L2038.7 905.877 L2035.46 909.105 L2032.21 912.342 L2028.97 915.595 L2025.73 918.868 L2022.49 922.168 L2019.24 925.497 L2016 928.861 L2012.76 932.261 L2009.51 935.701 L2006.27 939.181 L2003.03 942.702 L1999.78 946.264 L1996.54 949.866 L1993.3 953.508 L1990.06 957.185 L1986.81 960.896 L1983.57 964.637 L1980.33 968.402 L1977.08 972.188 L1973.84 975.988 L1970.6 979.796 L1967.35 983.604 L1964.11 987.405 L1960.87 991.193 L1957.63 994.962 L1954.38 998.709 L1951.14 1002.43 L1947.9 1006.12 L1944.65 1009.77 L1941.41 1013.38 L1938.17 1016.94 L1934.92 1020.44 L1931.68 1023.87 L1928.44 1027.23 L1925.19 1030.5 L1921.95 1033.67 L1918.71 1036.73 L1915.47 1039.66 L1912.22 1042.46 L1908.98 1045.12 L1905.74 1047.65 L1902.49 1050.04 L1899.25 1052.3 L1896.01 1054.43 L1892.76 1056.42 L1889.52 1058.27 L1886.28 1059.98 L1883.04 1061.54 L1879.79 1062.95 L1876.55 1064.19 L1873.31 1065.27 L1870.06 1066.18 L1866.82 1066.9 L1863.58 1067.42 L1860.33 1067.75 L1857.09 1067.86 L1853.85 1067.76 L1850.61 1067.46 L1847.36 1066.96 L1844.12 1066.27 L1840.88 1065.4 L1837.63 1064.37 L1834.39 1063.19 L1831.15 1061.88 L1827.9 1060.45 L1824.66 1058.91 L1821.42 1057.27 L1818.17 1055.54 L1814.93 1053.73 L1811.69 1051.85 L1808.45 1049.91 L1805.2 1047.91 L1801.96 1045.86 L1798.72 1043.76 L1795.47 1041.62 L1792.23 1039.43 L1788.99 1037.21 L1785.74 1034.95 L1782.5 1032.65 L1779.26 1030.31 L1776.02 1027.94 L1772.77 1025.52 L1769.53 1023.05 L1766.29 1020.54 L1763.04 1017.98 L1759.8 1015.36 L1756.56 1012.67 L1753.31 1009.92 L1750.07 1007.1 L1746.83 1004.19 L1743.59 1001.19 L1740.34 998.098 L1737.1 994.899 L1733.86 991.586 L1730.61 988.15 L1727.37 984.581 L1724.13 980.87 L1720.88 977.007 L1717.64 972.983 L1714.4 968.786 L1711.15 964.408 L1707.91 959.841 L1704.67 955.091 L1701.43 950.168 L1698.18 945.082 L1694.94 939.842 L1691.7 934.458 L1688.45 928.938 L1685.21 923.292 L1681.97 917.528 L1678.72 911.654 L1675.48 905.68 L1672.24 899.613 L1669 893.46 L1665.75 887.23 L1662.51 880.93 L1659.27 874.566 L1656.02 868.145 L1652.78 861.673 L1649.54 855.157 L1646.29 848.603 L1643.05 842.015 L1639.81 835.401 L1636.57 828.763 L1633.32 822.109 L1630.08 815.441 L1626.84 808.766 L1623.59 802.086 L1620.35 795.406 L1617.11 788.73 L1613.86 782.062 L1610.62 775.405 L1607.38 768.763 L1604.13 762.138 L1600.89 755.534 L1597.65 748.954 L1594.41 742.4 L1591.16 735.875 L1587.92 729.381 L1584.68 722.922 L1581.43 716.499 L1578.19 710.113 L1574.95 703.769 L1571.7 697.466 L1568.46 691.208 L1565.22 684.995 L1561.98 678.831 L1558.73 672.715 L1555.49 666.65 L1552.25 660.637 L1549 654.677 L1545.76 648.772 L1542.52 642.923 L1539.27 637.131 L1536.03 631.397 L1532.79 625.723 L1529.55 620.109 L1526.3 614.556 L1523.06 609.065 L1519.82 603.637 L1516.57 598.273 L1513.33 592.974 L1510.09 587.74 L1506.84 582.572 L1503.6 577.47 L1500.36 572.436 L1497.11 567.469 L1493.87 562.571 L1490.63 557.742 L1487.39 552.982 L1484.14 548.293 L1480.9 543.673 L1477.66 539.125 L1474.41 534.647 L1471.17 530.241 L1467.93 525.907 L1464.68 521.646 L1461.44 517.457 L1458.2 513.34 L1454.96 509.297 L1451.71 505.327 L1448.47 501.431 L1445.23 497.609 L1441.98 493.86 L1438.74 490.186 L1435.5 486.586 L1432.25 483.061 L1429.01 479.61 L1425.77 476.233 L1422.53 472.932 L1419.28 469.705 L1416.04 466.553 L1412.8 463.476 L1409.55 460.474 L1406.31 457.546 L1403.07 454.694 L1399.82 451.916 L1396.58 449.212 L1393.34 446.583 L1390.1 444.028 L1386.85 441.547 L1383.61 439.139 L1380.37 436.805 L1377.12 434.545 L1373.88 432.357 L1370.64 430.241 L1367.39 428.197 L1364.15 426.225 L1360.91 424.324 L1357.66 422.493 L1354.42 420.731 L1351.18 419.039 L1347.94 417.414 L1344.69 415.857 L1341.45 414.366 L1338.21 412.94 L1334.96 411.578 L1331.72 410.279 L1328.48 409.041 L1325.23 407.863 L1321.99 406.744 L1318.75 405.682 L1315.51 404.674 L1312.26 403.72 L1309.02 402.817 L1305.78 401.962 L1302.53 401.153 L1299.29 400.388 L1296.05 399.663 L1292.8 398.977 L1289.56 398.325 L1286.32 397.703 L1283.08 397.109 L1279.83 396.539 L1276.59 395.987 L1273.35 395.45 L1270.1 394.923 L1266.86 394.401 L1263.62 393.878 L1260.37 393.348 L1257.13 392.806 L1253.89 392.246 L1250.64 391.66 L1247.4 391.041 L1244.16 390.383 L1240.92 389.677 L1237.67 388.917 L1234.43 388.092 L1231.19 387.196 L1227.94 386.22 L1224.7 385.154 L1221.46 383.991 L1218.21 382.721 L1214.97 381.338 L1211.73 379.84 L1208.49 378.228 L1205.24 376.505 L1202 374.67 L1198.76 372.725 L1195.51 370.672 L1192.27 368.51 L1189.03 366.241 L1185.78 363.864 L1182.54 361.382 L1179.3 358.793 L1176.06 356.097 L1172.81 353.294 L1169.57 350.383 L1166.33 347.364 L1163.08 344.235 L1159.84 340.995 L1156.6 337.642 L1153.35 334.173 L1150.11 330.589 L1146.87 326.885 L1143.62 323.06 L1140.38 319.111 L1137.14 315.039 L1133.9 310.852 L1130.65 306.562 L1127.41 302.179 L1124.17 297.714 L1120.92 293.177 L1117.68 288.58 L1114.44 283.931 L1111.19 279.241 L1107.95 274.519 L1104.71 269.773 L1101.47 265.012 L1098.22 260.245 L1094.98 255.479 L1091.74 250.72 L1088.49 245.978 L1085.25 241.256 L1082.01 236.563 L1078.76 231.904 L1075.52 227.284 L1072.28 222.709 L1069.04 218.183 L1065.79 213.711 L1062.55 209.298 L1059.31 204.946 L1056.06 200.661 L1052.82 196.444 L1049.58 192.301 L1046.33 188.232 L1043.09 184.243 L1039.85 180.333 L1036.6 176.507 L1033.36 172.766 L1030.12 169.112 L1026.88 165.547 L1023.63 162.073 L1020.39 158.689 L1017.15 155.399 L1013.9 152.202 L1010.66 149.1 L1007.42 146.094 L1004.17 143.182 L1000.93 140.367 L997.688 137.648 L994.445 135.026 L991.202 132.499 L987.959 130.067 L984.716 127.731 L981.473 125.488 L978.23 123.339 L974.987 121.283 L971.744 119.317 L968.501 117.44 L965.258 115.651 L962.015 113.948 L958.772 112.328 L955.529 110.79 L952.286 109.331 L949.043 107.948 L945.8 106.638 L942.557 105.399 L939.314 104.226 L936.071 103.117 L932.828 102.066 L929.585 101.072 L926.342 100.129 L923.099 99.2335 L919.856 98.3808 L916.613 97.5666 L913.37 96.7864 L910.127 96.0357 L906.884 95.31 L903.641 94.6059 L900.398 93.9251 L897.155 93.2702 L893.911 92.6439 L890.668 92.0491 L887.425 91.4883 L884.182 90.9641 L880.939 90.4787 L877.696 90.0341 L874.453 89.6323 L871.21 89.2746 L867.967 88.9622 L864.724 88.6959 L861.481 88.476 L858.238 88.3025 L854.995 88.1747 L851.752 88.0917 L848.509 88.052 L845.266 88.0536 L842.023 88.0939 L838.78 88.1699 L835.537 88.278 L832.294 88.4141 L829.051 88.5738 L825.808 88.7519 L822.565 88.9428 L819.322 89.1408 L816.079 89.3394 L812.836 89.532 L809.593 89.7116 L806.35 89.8713 L803.107 90.0037 L799.864 90.1017 L796.621 90.1582 L793.378 90.1663 L790.135 90.1199 L786.892 90.0176 L783.648 89.867 L780.405 89.6787 L777.162 89.463 L773.919 89.2305 L770.676 88.9918 L767.433 88.7572 L764.19 88.5367 L760.947 88.3403 L757.704 88.1772 L754.461 88.0566 L751.218 87.9869 L747.975 87.9763 L744.732 88.0322 L741.489 88.1617 L738.246 88.3714 L735.003 88.6673 L731.76 89.0548 L728.517 89.539 L725.274 90.1244 L722.031 90.8148 L718.788 91.6139 L715.545 92.5245 L712.302 93.5492 L709.059 94.6901 L705.816 95.9487 L702.573 97.3261 L699.33 98.8229 L696.087 100.439 L692.844 102.175 L689.601 104.029 L686.358 106.001 L683.115 108.088 L679.872 110.288 L676.629 112.599 L673.385 115.017 L670.142 117.539 L666.899 120.159 L663.656 122.873 L660.413 125.676 L657.17 128.561 L653.927 131.521 L650.684 134.548 L647.441 137.635 L644.198 140.772 L640.955 143.95 L637.712 147.158 L634.469 150.385 L631.226 153.619 L627.983 156.848 L624.74 160.058 L621.497 163.237 L618.254 166.37 L615.011 169.442 L611.768 172.44 L608.525 175.356 L605.282 178.186 L602.039 180.925 L598.796 183.57 L595.553 186.117 L592.31 188.563 L589.067 190.914 L585.824 193.175 L582.581 195.353 L579.338 197.452 L576.095 199.477 L572.852 201.431 L569.609 203.315 L566.366 205.132 L563.122 206.881 L559.879 208.56 L556.636 210.168 L553.393 211.699 L550.15 213.151 L546.907 214.516 L543.664 215.787 L540.421 216.956 L537.178 218.014 L533.935 218.951 L530.692 219.756 L527.449 220.419 L524.206 220.93 L520.963 221.285 L517.72 221.482 L514.477 221.519 L511.234 221.401 L507.991 221.135 L504.748 220.726 L501.505 220.182 L498.262 219.506 L495.019 218.705 L491.776 217.784 L488.533 216.747 L485.29 215.6 L482.047 214.345 L478.804 212.989 L475.561 211.541 L472.318 210.009 L469.075 208.404 L465.832 206.734 L462.589 205.008 L459.346 203.235 L456.103 201.421 L452.859 199.574 L449.616 197.701 L446.373 195.807 L443.13 193.9 L439.887 191.983 L436.644 190.062 L433.401 188.141 L430.158 186.225 L426.915 184.317 L423.672 182.422 L420.429 180.541 L417.186 178.678 L413.943 176.836 L410.7 175.016 L407.457 173.222 L404.214 171.455 L400.971 169.716 L397.728 168.008 L394.485 166.331 L391.242 164.687 L387.999 163.077 L384.756 161.501 L381.513 159.962 L378.27 158.458 L375.027 156.991 L371.784 155.562 L368.541 154.17 L365.298 152.816 L362.055 151.5 L358.812 150.222 L355.569 148.983 L352.326 147.782 L349.083 146.619 L345.84 145.495 L342.596 144.408 L339.353 143.36 L336.11 142.348 L332.867 141.375 L329.624 140.438 L326.381 139.538 L323.138 138.674 L319.895 137.846 L316.652 137.054 L313.409 136.297 L310.166 135.574 L306.923 134.886 L303.68 134.231 L300.437 133.609 L297.194 133.02 L293.951 132.463 L290.708 131.938 L287.465 131.444 L284.222 130.981 L280.979 130.547 L277.736 130.143 L274.493 129.768 L271.25 129.421 L268.007 129.101 L264.764 128.81 L261.521 128.544 L258.278 128.305 L255.035 128.091  Z" fill="#3da44d" fill-rule="evenodd" fill-opacity="0.1"/>
<polyline clip-path="url(#clip462)" style="stroke:#3da44d; stroke-linecap:round; stroke-linejoin:round; stroke-width:8; stroke-opacity:1; fill:none" points="255.035,565.993 258.278,563.977 261.521,561.946 264.764,559.899 268.007,557.837 271.25,555.76 274.493,553.668 277.736,551.561 280.979,549.44 284.222,547.303 287.465,545.152 290.708,542.987 293.951,540.807 297.194,538.614 300.437,536.406 303.68,534.185 306.923,531.95 310.166,529.702 313.409,527.441 316.652,525.166 319.895,522.88 323.138,520.58 326.381,518.269 329.624,515.946 332.867,513.611 336.11,511.265 339.353,508.909 342.596,506.541 345.84,504.163 349.083,501.776 352.326,499.379 355.569,496.973 358.812,494.558 362.055,492.135 365.298,489.704 368.541,487.266 371.784,484.821 375.027,482.369 378.27,479.912 381.513,477.449 384.756,474.982 387.999,472.511 391.242,470.036 394.485,467.558 397.728,465.078 400.971,462.596 404.214,460.114 407.457,457.631 410.7,455.149 413.943,452.669 417.186,450.19 420.429,447.715 423.672,445.244 426.915,442.777 430.158,440.316 433.401,437.862 436.644,435.416 439.887,432.978 443.13,430.55 446.373,428.133 449.616,425.727 452.859,423.335 456.103,420.957 459.346,418.595 462.589,416.249 465.832,413.922 469.075,411.614 472.318,409.326 475.561,407.061 478.804,404.82 482.047,402.604 485.29,400.414 488.533,398.249 491.776,396.107 495.019,393.987 498.262,391.885 501.505,389.801 504.748,387.733 507.991,385.679 511.234,383.638 514.477,381.607 517.72,379.586 520.963,377.572 524.206,375.566 527.449,373.566 530.692,371.571 533.935,369.58 537.178,367.596 540.421,365.616 543.664,363.642 546.907,361.673 550.15,359.71 553.393,357.753 556.636,355.802 559.879,353.858 563.122,351.921 566.366,349.991 569.609,348.068 572.852,346.154 576.095,344.249 579.338,342.352 582.581,340.466 585.824,338.59 589.067,336.725 592.31,334.872 595.553,333.032 598.796,331.206 602.039,329.397 605.282,327.61 608.525,325.848 611.768,324.116 615.011,322.417 618.254,320.753 621.497,319.122 624.74,317.524 627.983,315.957 631.226,314.42 634.469,312.914 637.712,311.436 640.955,309.987 644.198,308.565 647.441,307.17 650.684,305.802 653.927,304.46 657.17,303.143 660.413,301.851 663.656,300.584 666.899,299.342 670.142,298.124 673.385,296.93 676.629,295.76 679.872,294.614 683.115,293.492 686.358,292.394 689.601,291.32 692.844,290.271 696.087,289.246 699.33,288.245 702.573,287.27 705.816,286.321 709.059,285.397 712.302,284.5 715.545,283.63 718.788,282.787 722.031,281.973 725.274,281.187 728.517,280.432 731.76,279.707 735.003,279.014 738.246,278.353 741.489,277.726 744.732,277.134 747.975,276.577 751.218,276.058 754.461,275.577 757.704,275.136 760.947,274.735 764.19,274.378 767.433,274.064 770.676,273.797 773.919,273.577 777.162,273.406 780.405,273.286 783.648,273.219 786.892,273.208 790.135,273.253 793.378,273.358 796.621,273.527 799.864,273.759 803.107,274.053 806.35,274.41 809.593,274.826 812.836,275.303 816.079,275.838 819.322,276.432 822.565,277.083 825.808,277.792 829.051,278.557 832.294,279.379 835.537,280.257 838.78,281.191 842.023,282.18 845.266,283.225 848.509,284.326 851.752,285.483 854.995,286.696 858.238,287.964 861.481,289.29 864.724,290.672 867.967,292.112 871.21,293.609 874.453,295.165 877.696,296.78 880.939,298.455 884.182,300.191 887.425,301.989 890.668,303.849 893.911,305.774 897.155,307.763 900.398,309.818 903.641,311.941 906.884,314.132 910.127,316.394 913.37,318.722 916.613,321.116 919.856,323.571 923.099,326.086 926.342,328.658 929.585,331.284 932.828,333.961 936.071,336.689 939.314,339.463 942.557,342.283 945.8,345.146 949.043,348.049 952.286,350.991 955.529,353.97 958.772,356.984 962.015,360.031 965.258,363.109 968.501,366.216 971.744,369.351 974.987,372.513 978.23,375.699 981.473,378.908 984.716,382.138 987.959,385.389 991.202,388.658 994.445,391.944 997.688,395.247 1000.93,398.564 1004.17,401.894 1007.42,405.237 1010.66,408.59 1013.9,411.954 1017.15,415.326 1020.39,418.707 1023.63,422.094 1026.88,425.486 1030.12,428.884 1033.36,432.285 1036.6,435.69 1039.85,439.096 1043.09,442.504 1046.33,445.913 1049.58,449.321 1052.82,452.728 1056.06,456.133 1059.31,459.536 1062.55,462.936 1065.79,466.332 1069.04,469.723 1072.28,473.11 1075.52,476.491 1078.76,479.866 1082.01,483.234 1085.25,486.595 1088.49,489.949 1091.74,493.294 1094.98,496.63 1098.22,499.958 1101.47,503.276 1104.71,506.584 1107.95,509.881 1111.19,513.168 1114.44,516.444 1117.68,519.709 1120.92,522.961 1124.17,526.202 1127.41,529.43 1130.65,532.646 1133.9,535.848 1137.14,539.038 1140.38,542.213 1143.62,545.376 1146.87,548.526 1150.11,551.665 1153.35,554.795 1156.6,557.917 1159.84,561.033 1163.08,564.145 1166.33,567.253 1169.57,570.36 1172.81,573.467 1176.06,576.576 1179.3,579.688 1182.54,582.805 1185.78,585.929 1189.03,589.061 1192.27,592.204 1195.51,595.358 1198.76,598.526 1202,601.709 1205.24,604.909 1208.49,608.128 1211.73,611.368 1214.97,614.631 1218.21,617.918 1221.46,621.231 1224.7,624.57 1227.94,627.934 1231.19,631.322 1234.43,634.734 1237.67,638.169 1240.92,641.626 1244.16,645.105 1247.4,648.605 1250.64,652.126 1253.89,655.666 1257.13,659.227 1260.37,662.806 1263.62,666.404 1266.86,670.02 1270.1,673.654 1273.35,677.305 1276.59,680.973 1279.83,684.658 1283.08,688.359 1286.32,692.075 1289.56,695.807 1292.8,699.554 1296.05,703.316 1299.29,707.093 1302.53,710.883 1305.78,714.688 1309.02,718.506 1312.26,722.338 1315.51,726.182 1318.75,730.04 1321.99,733.911 1325.23,737.794 1328.48,741.689 1331.72,745.596 1334.96,749.516 1338.21,753.447 1341.45,757.39 1344.69,761.344 1347.94,765.309 1351.18,769.285 1354.42,773.273 1357.66,777.271 1360.91,781.28 1364.15,785.299 1367.39,789.328 1370.64,793.368 1373.88,797.418 1377.12,801.478 1380.37,805.548 1383.61,809.627 1386.85,813.716 1390.1,817.815 1393.34,821.923 1396.58,826.04 1399.82,830.166 1403.07,834.301 1406.31,838.445 1409.55,842.597 1412.8,846.758 1416.04,850.927 1419.28,855.105 1422.53,859.291 1425.77,863.485 1429.01,867.686 1432.25,871.895 1435.5,876.111 1438.74,880.335 1441.98,884.566 1445.23,888.804 1448.47,893.048 1451.71,897.299 1454.96,901.556 1458.2,905.819 1461.44,910.087 1464.68,914.361 1467.93,918.641 1471.17,922.925 1474.41,927.214 1477.66,931.508 1480.9,935.805 1484.14,940.106 1487.39,944.411 1490.63,948.719 1493.87,953.029 1497.11,957.341 1500.36,961.655 1503.6,965.971 1506.84,970.288 1510.09,974.605 1513.33,978.922 1516.57,983.238 1519.82,987.554 1523.06,991.868 1526.3,996.18 1529.55,1000.49 1532.79,1004.79 1536.03,1009.1 1539.27,1013.39 1542.52,1017.68 1545.76,1021.97 1549,1026.25 1552.25,1030.52 1555.49,1034.78 1558.73,1039.04 1561.98,1043.28 1565.22,1047.51 1568.46,1051.73 1571.7,1055.94 1574.95,1060.13 1578.19,1064.31 1581.43,1068.47 1584.68,1072.62 1587.92,1076.74 1591.16,1080.85 1594.41,1084.93 1597.65,1089 1600.89,1093.04 1604.13,1097.05 1607.38,1101.04 1610.62,1105 1613.86,1108.94 1617.11,1112.84 1620.35,1116.71 1623.59,1120.54 1626.84,1124.34 1630.08,1128.1 1633.32,1131.82 1636.57,1135.5 1639.81,1139.14 1643.05,1142.73 1646.29,1146.28 1649.54,1149.78 1652.78,1153.22 1656.02,1156.61 1659.27,1159.94 1662.51,1163.22 1665.75,1166.43 1669,1169.58 1672.24,1172.66 1675.48,1175.68 1678.72,1178.62 1681.97,1181.49 1685.21,1184.28 1688.45,1186.99 1691.7,1189.61 1694.94,1192.15 1698.18,1194.6 1701.43,1196.95 1704.67,1199.21 1707.91,1201.37 1711.15,1203.42 1714.4,1205.36 1717.64,1207.2 1720.88,1208.94 1724.13,1210.57 1727.37,1212.12 1730.61,1213.56 1733.86,1214.92 1737.1,1216.19 1740.34,1217.38 1743.59,1218.48 1746.83,1219.5 1750.07,1220.45 1753.31,1221.32 1756.56,1222.11 1759.8,1222.84 1763.04,1223.49 1766.29,1224.08 1769.53,1224.6 1772.77,1225.06 1776.02,1225.45 1779.26,1225.78 1782.5,1226.06 1785.74,1226.27 1788.99,1226.43 1792.23,1226.53 1795.47,1226.58 1798.72,1226.58 1801.96,1226.52 1805.2,1226.41 1808.45,1226.25 1811.69,1226.04 1814.93,1225.78 1818.17,1225.47 1821.42,1225.12 1824.66,1224.72 1827.9,1224.27 1831.15,1223.77 1834.39,1223.23 1837.63,1222.64 1840.88,1222 1844.12,1221.32 1847.36,1220.59 1850.61,1219.82 1853.85,1218.99 1857.09,1218.12 1860.33,1217.19 1863.58,1216.21 1866.82,1215.18 1870.06,1214.09 1873.31,1212.95 1876.55,1211.74 1879.79,1210.48 1883.04,1209.14 1886.28,1207.75 1889.52,1206.28 1892.76,1204.74 1896.01,1203.12 1899.25,1201.43 1902.49,1199.66 1905.74,1197.8 1908.98,1195.86 1912.22,1193.83 1915.47,1191.7 1918.71,1189.49 1921.95,1187.18 1925.19,1184.78 1928.44,1182.31 1931.68,1179.77 1934.92,1177.15 1938.17,1174.48 1941.41,1171.75 1944.65,1168.97 1947.9,1166.15 1951.14,1163.28 1954.38,1160.38 1957.63,1157.45 1960.87,1154.5 1964.11,1151.53 1967.35,1148.54 1970.6,1145.54 1973.84,1142.53 1977.08,1139.51 1980.33,1136.48 1983.57,1133.45 1986.81,1130.41 1990.06,1127.37 1993.3,1124.33 1996.54,1121.3 1999.78,1118.26 2003.03,1115.23 2006.27,1112.2 2009.51,1109.18 2012.76,1106.17 2016,1103.16 2019.24,1100.17 2022.49,1097.19 2025.73,1094.22 2028.97,1091.27 2032.21,1088.34 2035.46,1085.42 2038.7,1082.52 2041.94,1079.63 2045.19,1076.77 2048.43,1073.93 2051.67,1071.12 2054.92,1068.32 2058.16,1065.55 2061.4,1062.81 2064.65,1060.1 2067.89,1057.41 2071.13,1054.74 2074.37,1052.1 2077.62,1049.48 2080.86,1046.87 2084.1,1044.29 2087.35,1041.72 2090.59,1039.17 2093.83,1036.64 2097.08,1034.13 2100.32,1031.64 2103.56,1029.16 2106.8,1026.7 2110.05,1024.26 2113.29,1021.84 2116.53,1019.44 2119.78,1017.06 2123.02,1014.69 2126.26,1012.34 2129.51,1010.01 2132.75,1007.7 2135.99,1005.41 2139.23,1003.13 2142.48,1000.87 2145.72,998.63 2148.96,996.406 2152.21,994.199 2155.45,992.009 2158.69,989.836 2161.94,987.68 2165.18,985.539 2168.42,983.415 2171.67,981.307 2174.91,979.214 2178.15,977.136 2181.39,975.074 2184.64,973.026 2187.88,970.993 2191.12,968.974 2194.37,966.969 2197.61,964.977 2200.85,962.999 2204.1,961.033 2207.34,959.08 2210.58,957.139 2213.82,955.209 2217.07,953.291 2220.31,951.383 2223.55,949.486 2226.8,947.599 2230.04,945.721 2233.28,943.853 2236.53,941.993 2239.77,940.141 2243.01,938.296 2246.25,936.459 2249.5,934.628 2252.74,932.804 2255.98,930.987 2259.23,929.178 2262.47,927.376 2265.71,925.582 2268.96,923.797 2272.2,922.02 2275.44,920.252 2278.69,918.492 2281.93,916.742 2285.17,915.001 2288.41,913.27 2291.66,911.548 "/>
<path clip-path="url(#clip460)" d="M1953.46 302.578 L2280.8 302.578 L2280.8 95.2176 L1953.46 95.2176  Z" fill="#ffffff" fill-rule="evenodd" fill-opacity="1"/>
<polyline clip-path="url(#clip460)" style="stroke:#000000; stroke-linecap:round; stroke-linejoin:round; stroke-width:4; stroke-opacity:1; fill:none" points="1953.46,302.578 2280.8,302.578 2280.8,95.2176 1953.46,95.2176 1953.46,302.578 "/>
<polyline clip-path="url(#clip460)" style="stroke:#009af9; stroke-linecap:round; stroke-linejoin:round; stroke-width:4; stroke-opacity:1; fill:none" points="1977.44,147.058 2121.36,147.058 "/>
<path clip-path="url(#clip460)" d="M2152.76 131.051 L2152.76 138.412 L2161.53 138.412 L2161.53 141.722 L2152.76 141.722 L2152.76 155.796 Q2152.76 158.967 2153.61 159.87 Q2154.49 160.773 2157.16 160.773 L2161.53 160.773 L2161.53 164.338 L2157.16 164.338 Q2152.23 164.338 2150.35 162.509 Q2148.48 160.657 2148.48 155.796 L2148.48 141.722 L2145.35 141.722 L2145.35 138.412 L2148.48 138.412 L2148.48 131.051 L2152.76 131.051 Z" fill="#000000" fill-rule="nonzero" fill-opacity="1" /><path clip-path="url(#clip460)" d="M2182.16 142.393 Q2181.44 141.977 2180.58 141.791 Q2179.75 141.583 2178.73 141.583 Q2175.12 141.583 2173.17 143.944 Q2171.25 146.282 2171.25 150.68 L2171.25 164.338 L2166.97 164.338 L2166.97 138.412 L2171.25 138.412 L2171.25 142.44 Q2172.6 140.078 2174.75 138.944 Q2176.9 137.787 2179.98 137.787 Q2180.42 137.787 2180.95 137.856 Q2181.48 137.903 2182.13 138.018 L2182.16 142.393 Z" fill="#000000" fill-rule="nonzero" fill-opacity="1" /><path clip-path="url(#clip460)" d="M2186.18 154.106 L2186.18 138.412 L2190.44 138.412 L2190.44 153.944 Q2190.44 157.625 2191.88 159.476 Q2193.31 161.305 2196.18 161.305 Q2199.63 161.305 2201.62 159.106 Q2203.64 156.907 2203.64 153.111 L2203.64 138.412 L2207.9 138.412 L2207.9 164.338 L2203.64 164.338 L2203.64 160.356 Q2202.09 162.717 2200.03 163.875 Q2197.99 165.009 2195.28 165.009 Q2190.81 165.009 2188.5 162.231 Q2186.18 159.453 2186.18 154.106 M2196.9 137.787 L2196.9 137.787 Z" fill="#000000" fill-rule="nonzero" fill-opacity="1" /><path clip-path="url(#clip460)" d="M2220.88 131.051 L2220.88 138.412 L2229.66 138.412 L2229.66 141.722 L2220.88 141.722 L2220.88 155.796 Q2220.88 158.967 2221.74 159.87 Q2222.62 160.773 2225.28 160.773 L2229.66 160.773 L2229.66 164.338 L2225.28 164.338 Q2220.35 164.338 2218.48 162.509 Q2216.6 160.657 2216.6 155.796 L2216.6 141.722 L2213.48 141.722 L2213.48 138.412 L2216.6 138.412 L2216.6 131.051 L2220.88 131.051 Z" fill="#000000" fill-rule="nonzero" fill-opacity="1" /><path clip-path="url(#clip460)" d="M2256.81 148.689 L2256.81 164.338 L2252.55 164.338 L2252.55 148.828 Q2252.55 145.148 2251.11 143.319 Q2249.68 141.49 2246.81 141.49 Q2243.36 141.49 2241.37 143.69 Q2239.38 145.889 2239.38 149.685 L2239.38 164.338 L2235.1 164.338 L2235.1 128.319 L2239.38 128.319 L2239.38 142.44 Q2240.91 140.102 2242.97 138.944 Q2245.05 137.787 2247.76 137.787 Q2252.23 137.787 2254.52 140.565 Q2256.81 143.319 2256.81 148.689 Z" fill="#000000" fill-rule="nonzero" fill-opacity="1" /><circle clip-path="url(#clip460)" cx="2049.4" cy="198.898" r="20.48" fill="#e26f46" fill-rule="evenodd" fill-opacity="1" stroke="#000000" stroke-opacity="1" stroke-width="4.55111"/>
<path clip-path="url(#clip460)" d="M2164.26 194.187 L2164.26 180.159 L2168.52 180.159 L2168.52 216.178 L2164.26 216.178 L2164.26 212.289 Q2162.92 214.603 2160.86 215.738 Q2158.82 216.849 2155.95 216.849 Q2151.25 216.849 2148.29 213.099 Q2145.35 209.349 2145.35 203.238 Q2145.35 197.127 2148.29 193.377 Q2151.25 189.627 2155.95 189.627 Q2158.82 189.627 2160.86 190.761 Q2162.92 191.872 2164.26 194.187 M2149.75 203.238 Q2149.75 207.937 2151.67 210.622 Q2153.61 213.284 2156.99 213.284 Q2160.37 213.284 2162.32 210.622 Q2164.26 207.937 2164.26 203.238 Q2164.26 198.539 2162.32 195.877 Q2160.37 193.192 2156.99 193.192 Q2153.61 193.192 2151.67 195.877 Q2149.75 198.539 2149.75 203.238 Z" fill="#000000" fill-rule="nonzero" fill-opacity="1" /><path clip-path="url(#clip460)" d="M2189.08 203.145 Q2183.92 203.145 2181.92 204.326 Q2179.93 205.506 2179.93 208.354 Q2179.93 210.622 2181.42 211.965 Q2182.92 213.284 2185.49 213.284 Q2189.03 213.284 2191.16 210.784 Q2193.31 208.261 2193.31 204.094 L2193.31 203.145 L2189.08 203.145 M2197.57 201.386 L2197.57 216.178 L2193.31 216.178 L2193.31 212.242 Q2191.85 214.603 2189.68 215.738 Q2187.5 216.849 2184.36 216.849 Q2180.37 216.849 2178.01 214.627 Q2175.67 212.381 2175.67 208.631 Q2175.67 204.256 2178.59 202.034 Q2181.53 199.812 2187.34 199.812 L2193.31 199.812 L2193.31 199.395 Q2193.31 196.455 2191.37 194.858 Q2189.45 193.238 2185.95 193.238 Q2183.73 193.238 2181.62 193.77 Q2179.52 194.303 2177.57 195.367 L2177.57 191.432 Q2179.91 190.53 2182.11 190.09 Q2184.31 189.627 2186.39 189.627 Q2192.02 189.627 2194.79 192.543 Q2197.57 195.46 2197.57 201.386 Z" fill="#000000" fill-rule="nonzero" fill-opacity="1" /><path clip-path="url(#clip460)" d="M2210.56 182.891 L2210.56 190.252 L2219.33 190.252 L2219.33 193.562 L2210.56 193.562 L2210.56 207.636 Q2210.56 210.807 2211.42 211.71 Q2212.29 212.613 2214.96 212.613 L2219.33 212.613 L2219.33 216.178 L2214.96 216.178 Q2210.03 216.178 2208.15 214.349 Q2206.28 212.497 2206.28 207.636 L2206.28 193.562 L2203.15 193.562 L2203.15 190.252 L2206.28 190.252 L2206.28 182.891 L2210.56 182.891 Z" fill="#000000" fill-rule="nonzero" fill-opacity="1" /><path clip-path="url(#clip460)" d="M2236.72 203.145 Q2231.55 203.145 2229.56 204.326 Q2227.57 205.506 2227.57 208.354 Q2227.57 210.622 2229.05 211.965 Q2230.56 213.284 2233.13 213.284 Q2236.67 213.284 2238.8 210.784 Q2240.95 208.261 2240.95 204.094 L2240.95 203.145 L2236.72 203.145 M2245.21 201.386 L2245.21 216.178 L2240.95 216.178 L2240.95 212.242 Q2239.49 214.603 2237.32 215.738 Q2235.14 216.849 2231.99 216.849 Q2228.01 216.849 2225.65 214.627 Q2223.31 212.381 2223.31 208.631 Q2223.31 204.256 2226.23 202.034 Q2229.17 199.812 2234.98 199.812 L2240.95 199.812 L2240.95 199.395 Q2240.95 196.455 2239.01 194.858 Q2237.09 193.238 2233.59 193.238 Q2231.37 193.238 2229.26 193.77 Q2227.16 194.303 2225.21 195.367 L2225.21 191.432 Q2227.55 190.53 2229.75 190.09 Q2231.95 189.627 2234.03 189.627 Q2239.66 189.627 2242.43 192.543 Q2245.21 195.46 2245.21 201.386 Z" fill="#000000" fill-rule="nonzero" fill-opacity="1" /><polyline clip-path="url(#clip460)" style="stroke:#3da44d; stroke-linecap:round; stroke-linejoin:round; stroke-width:8; stroke-opacity:1; fill:none" points="1977.44,250.738 2121.36,250.738 "/>
<path clip-path="url(#clip460)" d="M2170.91 263.087 L2170.91 253.805 L2163.27 253.805 L2163.27 249.962 L2175.54 249.962 L2175.54 264.8 Q2172.83 266.721 2169.56 267.717 Q2166.3 268.689 2162.6 268.689 Q2154.49 268.689 2149.91 263.967 Q2145.35 259.221 2145.35 250.772 Q2145.35 242.3 2149.91 237.578 Q2154.49 232.833 2162.6 232.833 Q2165.98 232.833 2169.01 233.666 Q2172.06 234.499 2174.63 236.12 L2174.63 241.096 Q2172.04 238.897 2169.12 237.786 Q2166.21 236.675 2162.99 236.675 Q2156.65 236.675 2153.45 240.217 Q2150.28 243.758 2150.28 250.772 Q2150.28 257.763 2153.45 261.305 Q2156.65 264.846 2162.99 264.846 Q2165.47 264.846 2167.41 264.43 Q2169.36 263.99 2170.91 263.087 Z" fill="#000000" fill-rule="nonzero" fill-opacity="1" /><path clip-path="url(#clip460)" d="M2188.75 237.3 L2188.75 250.286 L2194.63 250.286 Q2197.9 250.286 2199.68 248.596 Q2201.46 246.907 2201.46 243.782 Q2201.46 240.68 2199.68 238.99 Q2197.9 237.3 2194.63 237.3 L2188.75 237.3 M2184.08 233.458 L2194.63 233.458 Q2200.44 233.458 2203.41 236.096 Q2206.39 238.712 2206.39 243.782 Q2206.39 248.897 2203.41 251.513 Q2200.44 254.129 2194.63 254.129 L2188.75 254.129 L2188.75 268.018 L2184.08 268.018 L2184.08 233.458 Z" fill="#000000" fill-rule="nonzero" fill-opacity="1" /></svg>
