<?xml version="1.0" encoding="utf-8"?>
<svg xmlns="http://www.w3.org/2000/svg" xmlns:xlink="http://www.w3.org/1999/xlink" width="600" height="400" viewBox="0 0 2400 1600">
<defs>
  <clipPath id="clip400">
    <rect x="0" y="0" width="2400" height="1600"/>
  </clipPath>
</defs>
<path clip-path="url(#clip400)" d="M0 1600 L2400 1600 L2400 0 L0 0  Z" fill="#ffffff" fill-rule="evenodd" fill-opacity="1"/>
<defs>
  <clipPath id="clip401">
    <rect x="480" y="0" width="1681" height="1600"/>
  </clipPath>
</defs>
<path clip-path="url(#clip400)" d="M193.936 1486.45 L2352.76 1486.45 L2352.76 47.2441 L193.936 47.2441  Z" fill="#ffffff" fill-rule="evenodd" fill-opacity="1"/>
<defs>
  <clipPath id="clip402">
    <rect x="193" y="47" width="2160" height="1440"/>
  </clipPath>
</defs>
<polyline clip-path="url(#clip402)" style="stroke:#000000; stroke-linecap:round; stroke-linejoin:round; stroke-width:2; stroke-opacity:0.1; fill:none" points="255.035,1486.45 255.035,47.2441 "/>
<polyline clip-path="url(#clip402)" style="stroke:#000000; stroke-linecap:round; stroke-linejoin:round; stroke-width:2; stroke-opacity:0.1; fill:none" points="579.338,1486.45 579.338,47.2441 "/>
<polyline clip-path="url(#clip402)" style="stroke:#000000; stroke-linecap:round; stroke-linejoin:round; stroke-width:2; stroke-opacity:0.1; fill:none" points="903.641,1486.45 903.641,47.2441 "/>
<polyline clip-path="url(#clip402)" style="stroke:#000000; stroke-linecap:round; stroke-linejoin:round; stroke-width:2; stroke-opacity:0.1; fill:none" points="1227.94,1486.45 1227.94,47.2441 "/>
<polyline clip-path="url(#clip402)" style="stroke:#000000; stroke-linecap:round; stroke-linejoin:round; stroke-width:2; stroke-opacity:0.1; fill:none" points="1552.25,1486.45 1552.25,47.2441 "/>
<polyline clip-path="url(#clip402)" style="stroke:#000000; stroke-linecap:round; stroke-linejoin:round; stroke-width:2; stroke-opacity:0.1; fill:none" points="1876.55,1486.45 1876.55,47.2441 "/>
<polyline clip-path="url(#clip402)" style="stroke:#000000; stroke-linecap:round; stroke-linejoin:round; stroke-width:2; stroke-opacity:0.1; fill:none" points="2200.85,1486.45 2200.85,47.2441 "/>
<polyline clip-path="url(#clip402)" style="stroke:#000000; stroke-linecap:round; stroke-linejoin:round; stroke-width:2; stroke-opacity:0.1; fill:none" points="193.936,1350.8 2352.76,1350.8 "/>
<polyline clip-path="url(#clip402)" style="stroke:#000000; stroke-linecap:round; stroke-linejoin:round; stroke-width:2; stroke-opacity:0.1; fill:none" points="193.936,1051.96 2352.76,1051.96 "/>
<polyline clip-path="url(#clip402)" style="stroke:#000000; stroke-linecap:round; stroke-linejoin:round; stroke-width:2; stroke-opacity:0.1; fill:none" points="193.936,753.121 2352.76,753.121 "/>
<polyline clip-path="url(#clip402)" style="stroke:#000000; stroke-linecap:round; stroke-linejoin:round; stroke-width:2; stroke-opacity:0.1; fill:none" points="193.936,454.279 2352.76,454.279 "/>
<polyline clip-path="url(#clip402)" style="stroke:#000000; stroke-linecap:round; stroke-linejoin:round; stroke-width:2; stroke-opacity:0.1; fill:none" points="193.936,155.437 2352.76,155.437 "/>
<polyline clip-path="url(#clip400)" style="stroke:#000000; stroke-linecap:round; stroke-linejoin:round; stroke-width:4; stroke-opacity:1; fill:none" points="193.936,1486.45 2352.76,1486.45 "/>
<polyline clip-path="url(#clip400)" style="stroke:#000000; stroke-linecap:round; stroke-linejoin:round; stroke-width:4; stroke-opacity:1; fill:none" points="255.035,1486.45 255.035,1467.55 "/>
<polyline clip-path="url(#clip400)" style="stroke:#000000; stroke-linecap:round; stroke-linejoin:round; stroke-width:4; stroke-opacity:1; fill:none" points="579.338,1486.45 579.338,1467.55 "/>
<polyline clip-path="url(#clip400)" style="stroke:#000000; stroke-linecap:round; stroke-linejoin:round; stroke-width:4; stroke-opacity:1; fill:none" points="903.641,1486.45 903.641,1467.55 "/>
<polyline clip-path="url(#clip400)" style="stroke:#000000; stroke-linecap:round; stroke-linejoin:round; stroke-width:4; stroke-opacity:1; fill:none" points="1227.94,1486.45 1227.94,1467.55 "/>
<polyline clip-path="url(#clip400)" style="stroke:#000000; stroke-linecap:round; stroke-linejoin:round; stroke-width:4; stroke-opacity:1; fill:none" points="1552.25,1486.45 1552.25,1467.55 "/>
<polyline clip-path="url(#clip400)" style="stroke:#000000; stroke-linecap:round; stroke-linejoin:round; stroke-width:4; stroke-opacity:1; fill:none" points="1876.55,1486.45 1876.55,1467.55 "/>
<polyline clip-path="url(#clip400)" style="stroke:#000000; stroke-linecap:round; stroke-linejoin:round; stroke-width:4; stroke-opacity:1; fill:none" points="2200.85,1486.45 2200.85,1467.55 "/>
<path clip-path="url(#clip400)" d="M255.035 1517.37 Q251.424 1517.37 249.595 1520.93 Q247.789 1524.47 247.789 1531.6 Q247.789 1538.71 249.595 1542.27 Q251.424 1545.82 255.035 1545.82 Q258.669 1545.82 260.474 1542.27 Q262.303 1538.71 262.303 1531.6 Q262.303 1524.47 260.474 1520.93 Q258.669 1517.37 255.035 1517.37 M255.035 1513.66 Q260.845 1513.66 263.9 1518.27 Q266.979 1522.85 266.979 1531.6 Q266.979 1540.33 263.9 1544.94 Q260.845 1549.52 255.035 1549.52 Q249.225 1549.52 246.146 1544.94 Q243.09 1540.33 243.09 1531.6 Q243.09 1522.85 246.146 1518.27 Q249.225 1513.66 255.035 1513.66 Z" fill="#000000" fill-rule="nonzero" fill-opacity="1" /><path clip-path="url(#clip400)" d="M569.72 1544.91 L577.358 1544.91 L577.358 1518.55 L569.048 1520.21 L569.048 1515.95 L577.312 1514.29 L581.988 1514.29 L581.988 1544.91 L589.627 1544.91 L589.627 1548.85 L569.72 1548.85 L569.72 1544.91 Z" fill="#000000" fill-rule="nonzero" fill-opacity="1" /><path clip-path="url(#clip400)" d="M898.293 1544.91 L914.613 1544.91 L914.613 1548.85 L892.668 1548.85 L892.668 1544.91 Q895.33 1542.16 899.914 1537.53 Q904.52 1532.88 905.701 1531.53 Q907.946 1529.01 908.826 1527.27 Q909.729 1525.51 909.729 1523.82 Q909.729 1521.07 907.784 1519.33 Q905.863 1517.6 902.761 1517.6 Q900.562 1517.6 898.108 1518.36 Q895.678 1519.13 892.9 1520.68 L892.9 1515.95 Q895.724 1514.82 898.178 1514.24 Q900.631 1513.66 902.668 1513.66 Q908.039 1513.66 911.233 1516.35 Q914.428 1519.03 914.428 1523.52 Q914.428 1525.65 913.617 1527.57 Q912.83 1529.47 910.724 1532.07 Q910.145 1532.74 907.043 1535.95 Q903.942 1539.15 898.293 1544.91 Z" fill="#000000" fill-rule="nonzero" fill-opacity="1" /><path clip-path="url(#clip400)" d="M1232.19 1530.21 Q1235.55 1530.93 1237.42 1533.2 Q1239.32 1535.47 1239.32 1538.8 Q1239.32 1543.92 1235.8 1546.72 Q1232.28 1549.52 1225.8 1549.52 Q1223.63 1549.52 1221.31 1549.08 Q1219.02 1548.66 1216.57 1547.81 L1216.57 1543.29 Q1218.51 1544.43 1220.83 1545.01 Q1223.14 1545.58 1225.66 1545.58 Q1230.06 1545.58 1232.35 1543.85 Q1234.67 1542.11 1234.67 1538.8 Q1234.67 1535.75 1232.52 1534.03 Q1230.39 1532.3 1226.57 1532.3 L1222.54 1532.3 L1222.54 1528.45 L1226.75 1528.45 Q1230.2 1528.45 1232.03 1527.09 Q1233.86 1525.7 1233.86 1523.11 Q1233.86 1520.45 1231.96 1519.03 Q1230.08 1517.6 1226.57 1517.6 Q1224.64 1517.6 1222.45 1518.01 Q1220.25 1518.43 1217.61 1519.31 L1217.61 1515.14 Q1220.27 1514.4 1222.58 1514.03 Q1224.92 1513.66 1226.98 1513.66 Q1232.31 1513.66 1235.41 1516.09 Q1238.51 1518.5 1238.51 1522.62 Q1238.51 1525.49 1236.87 1527.48 Q1235.22 1529.45 1232.19 1530.21 Z" fill="#000000" fill-rule="nonzero" fill-opacity="1" /><path clip-path="url(#clip400)" d="M1555.26 1518.36 L1543.45 1536.81 L1555.26 1536.81 L1555.26 1518.36 M1554.03 1514.29 L1559.91 1514.29 L1559.91 1536.81 L1564.84 1536.81 L1564.84 1540.7 L1559.91 1540.7 L1559.91 1548.85 L1555.26 1548.85 L1555.26 1540.7 L1539.65 1540.7 L1539.65 1536.19 L1554.03 1514.29 Z" fill="#000000" fill-rule="nonzero" fill-opacity="1" /><path clip-path="url(#clip400)" d="M1866.83 1514.29 L1885.18 1514.29 L1885.18 1518.22 L1871.11 1518.22 L1871.11 1526.7 Q1872.13 1526.35 1873.15 1526.19 Q1874.17 1526 1875.18 1526 Q1880.97 1526 1884.35 1529.17 Q1887.73 1532.34 1887.73 1537.76 Q1887.73 1543.34 1884.26 1546.44 Q1880.79 1549.52 1874.47 1549.52 Q1872.29 1549.52 1870.02 1549.15 Q1867.78 1548.78 1865.37 1548.04 L1865.37 1543.34 Q1867.45 1544.47 1869.67 1545.03 Q1871.9 1545.58 1874.37 1545.58 Q1878.38 1545.58 1880.72 1543.48 Q1883.05 1541.37 1883.05 1537.76 Q1883.05 1534.15 1880.72 1532.04 Q1878.38 1529.94 1874.37 1529.94 Q1872.5 1529.94 1870.62 1530.35 Q1868.77 1530.77 1866.83 1531.65 L1866.83 1514.29 Z" fill="#000000" fill-rule="nonzero" fill-opacity="1" /><path clip-path="url(#clip400)" d="M2201.26 1529.7 Q2198.11 1529.7 2196.26 1531.86 Q2194.43 1534.01 2194.43 1537.76 Q2194.43 1541.49 2196.26 1543.66 Q2198.11 1545.82 2201.26 1545.82 Q2204.41 1545.82 2206.23 1543.66 Q2208.09 1541.49 2208.09 1537.76 Q2208.09 1534.01 2206.23 1531.86 Q2204.41 1529.7 2201.26 1529.7 M2210.54 1515.05 L2210.54 1519.31 Q2208.78 1518.48 2206.98 1518.04 Q2205.19 1517.6 2203.43 1517.6 Q2198.8 1517.6 2196.35 1520.72 Q2193.92 1523.85 2193.57 1530.17 Q2194.94 1528.15 2197 1527.09 Q2199.06 1526 2201.54 1526 Q2206.74 1526 2209.75 1529.17 Q2212.79 1532.32 2212.79 1537.76 Q2212.79 1543.08 2209.64 1546.3 Q2206.49 1549.52 2201.26 1549.52 Q2195.26 1549.52 2192.09 1544.94 Q2188.92 1540.33 2188.92 1531.6 Q2188.92 1523.41 2192.81 1518.55 Q2196.7 1513.66 2203.25 1513.66 Q2205.01 1513.66 2206.79 1514.01 Q2208.6 1514.36 2210.54 1515.05 Z" fill="#000000" fill-rule="nonzero" fill-opacity="1" /><polyline clip-path="url(#clip400)" style="stroke:#000000; stroke-linecap:round; stroke-linejoin:round; stroke-width:4; stroke-opacity:1; fill:none" points="193.936,1486.45 193.936,47.2441 "/>
<polyline clip-path="url(#clip400)" style="stroke:#000000; stroke-linecap:round; stroke-linejoin:round; stroke-width:4; stroke-opacity:1; fill:none" points="193.936,1350.8 212.834,1350.8 "/>
<polyline clip-path="url(#clip400)" style="stroke:#000000; stroke-linecap:round; stroke-linejoin:round; stroke-width:4; stroke-opacity:1; fill:none" points="193.936,1051.96 212.834,1051.96 "/>
<polyline clip-path="url(#clip400)" style="stroke:#000000; stroke-linecap:round; stroke-linejoin:round; stroke-width:4; stroke-opacity:1; fill:none" points="193.936,753.121 212.834,753.121 "/>
<polyline clip-path="url(#clip400)" style="stroke:#000000; stroke-linecap:round; stroke-linejoin:round; stroke-width:4; stroke-opacity:1; fill:none" points="193.936,454.279 212.834,454.279 "/>
<polyline clip-path="url(#clip400)" style="stroke:#000000; stroke-linecap:round; stroke-linejoin:round; stroke-width:4; stroke-opacity:1; fill:none" points="193.936,155.437 212.834,155.437 "/>
<path clip-path="url(#clip400)" d="M50.9921 1351.26 L80.6679 1351.26 L80.6679 1355.19 L50.9921 1355.19 L50.9921 1351.26 Z" fill="#000000" fill-rule="nonzero" fill-opacity="1" /><path clip-path="url(#clip400)" d="M91.5706 1364.15 L99.2095 1364.15 L99.2095 1337.78 L90.8993 1339.45 L90.8993 1335.19 L99.1632 1333.52 L103.839 1333.52 L103.839 1364.15 L111.478 1364.15 L111.478 1368.08 L91.5706 1368.08 L91.5706 1364.15 Z" fill="#000000" fill-rule="nonzero" fill-opacity="1" /><path clip-path="url(#clip400)" d="M120.922 1362.2 L125.807 1362.2 L125.807 1368.08 L120.922 1368.08 L120.922 1362.2 Z" fill="#000000" fill-rule="nonzero" fill-opacity="1" /><path clip-path="url(#clip400)" d="M145.992 1336.6 Q142.381 1336.6 140.552 1340.17 Q138.746 1343.71 138.746 1350.84 Q138.746 1357.95 140.552 1361.51 Q142.381 1365.05 145.992 1365.05 Q149.626 1365.05 151.431 1361.51 Q153.26 1357.95 153.26 1350.84 Q153.26 1343.71 151.431 1340.17 Q149.626 1336.6 145.992 1336.6 M145.992 1332.9 Q151.802 1332.9 154.857 1337.51 Q157.936 1342.09 157.936 1350.84 Q157.936 1359.57 154.857 1364.17 Q151.802 1368.76 145.992 1368.76 Q140.181 1368.76 137.103 1364.17 Q134.047 1359.57 134.047 1350.84 Q134.047 1342.09 137.103 1337.51 Q140.181 1332.9 145.992 1332.9 Z" fill="#000000" fill-rule="nonzero" fill-opacity="1" /><path clip-path="url(#clip400)" d="M51.9875 1052.41 L81.6633 1052.41 L81.6633 1056.35 L51.9875 1056.35 L51.9875 1052.41 Z" fill="#000000" fill-rule="nonzero" fill-opacity="1" /><path clip-path="url(#clip400)" d="M101.756 1037.76 Q98.1447 1037.76 96.316 1041.33 Q94.5104 1044.87 94.5104 1052 Q94.5104 1059.1 96.316 1062.67 Q98.1447 1066.21 101.756 1066.21 Q105.39 1066.21 107.196 1062.67 Q109.024 1059.1 109.024 1052 Q109.024 1044.87 107.196 1041.33 Q105.39 1037.76 101.756 1037.76 M101.756 1034.06 Q107.566 1034.06 110.621 1038.66 Q113.7 1043.25 113.7 1052 Q113.7 1060.72 110.621 1065.33 Q107.566 1069.91 101.756 1069.91 Q95.9456 1069.91 92.8669 1065.33 Q89.8114 1060.72 89.8114 1052 Q89.8114 1043.25 92.8669 1038.66 Q95.9456 1034.06 101.756 1034.06 Z" fill="#000000" fill-rule="nonzero" fill-opacity="1" /><path clip-path="url(#clip400)" d="M121.918 1063.36 L126.802 1063.36 L126.802 1069.24 L121.918 1069.24 L121.918 1063.36 Z" fill="#000000" fill-rule="nonzero" fill-opacity="1" /><path clip-path="url(#clip400)" d="M137.033 1034.68 L155.39 1034.68 L155.39 1038.62 L141.316 1038.62 L141.316 1047.09 Q142.334 1046.74 143.353 1046.58 Q144.371 1046.4 145.39 1046.4 Q151.177 1046.4 154.556 1049.57 Q157.936 1052.74 157.936 1058.15 Q157.936 1063.73 154.464 1066.84 Q150.992 1069.91 144.672 1069.91 Q142.496 1069.91 140.228 1069.54 Q137.982 1069.17 135.575 1068.43 L135.575 1063.73 Q137.658 1064.87 139.881 1065.42 Q142.103 1065.98 144.58 1065.98 Q148.584 1065.98 150.922 1063.87 Q153.26 1061.77 153.26 1058.15 Q153.26 1054.54 150.922 1052.44 Q148.584 1050.33 144.58 1050.33 Q142.705 1050.33 140.83 1050.75 Q138.978 1051.16 137.033 1052.04 L137.033 1034.68 Z" fill="#000000" fill-rule="nonzero" fill-opacity="1" /><path clip-path="url(#clip400)" d="M100.76 738.919 Q97.1493 738.919 95.3206 742.484 Q93.515 746.026 93.515 753.155 Q93.515 760.262 95.3206 763.827 Q97.1493 767.368 100.76 767.368 Q104.395 767.368 106.2 763.827 Q108.029 760.262 108.029 753.155 Q108.029 746.026 106.2 742.484 Q104.395 738.919 100.76 738.919 M100.76 735.216 Q106.571 735.216 109.626 739.822 Q112.705 744.405 112.705 753.155 Q112.705 761.882 109.626 766.489 Q106.571 771.072 100.76 771.072 Q94.9502 771.072 91.8715 766.489 Q88.816 761.882 88.816 753.155 Q88.816 744.405 91.8715 739.822 Q94.9502 735.216 100.76 735.216 Z" fill="#000000" fill-rule="nonzero" fill-opacity="1" /><path clip-path="url(#clip400)" d="M120.922 764.521 L125.807 764.521 L125.807 770.401 L120.922 770.401 L120.922 764.521 Z" fill="#000000" fill-rule="nonzero" fill-opacity="1" /><path clip-path="url(#clip400)" d="M145.992 738.919 Q142.381 738.919 140.552 742.484 Q138.746 746.026 138.746 753.155 Q138.746 760.262 140.552 763.827 Q142.381 767.368 145.992 767.368 Q149.626 767.368 151.431 763.827 Q153.26 760.262 153.26 753.155 Q153.26 746.026 151.431 742.484 Q149.626 738.919 145.992 738.919 M145.992 735.216 Q151.802 735.216 154.857 739.822 Q157.936 744.405 157.936 753.155 Q157.936 761.882 154.857 766.489 Q151.802 771.072 145.992 771.072 Q140.181 771.072 137.103 766.489 Q134.047 761.882 134.047 753.155 Q134.047 744.405 137.103 739.822 Q140.181 735.216 145.992 735.216 Z" fill="#000000" fill-rule="nonzero" fill-opacity="1" /><path clip-path="url(#clip400)" d="M101.756 440.078 Q98.1447 440.078 96.316 443.642 Q94.5104 447.184 94.5104 454.314 Q94.5104 461.42 96.316 464.985 Q98.1447 468.527 101.756 468.527 Q105.39 468.527 107.196 464.985 Q109.024 461.42 109.024 454.314 Q109.024 447.184 107.196 443.642 Q105.39 440.078 101.756 440.078 M101.756 436.374 Q107.566 436.374 110.621 440.98 Q113.7 445.564 113.7 454.314 Q113.7 463.04 110.621 467.647 Q107.566 472.23 101.756 472.23 Q95.9456 472.23 92.8669 467.647 Q89.8114 463.04 89.8114 454.314 Q89.8114 445.564 92.8669 440.98 Q95.9456 436.374 101.756 436.374 Z" fill="#000000" fill-rule="nonzero" fill-opacity="1" /><path clip-path="url(#clip400)" d="M121.918 465.679 L126.802 465.679 L126.802 471.559 L121.918 471.559 L121.918 465.679 Z" fill="#000000" fill-rule="nonzero" fill-opacity="1" /><path clip-path="url(#clip400)" d="M137.033 436.999 L155.39 436.999 L155.39 440.934 L141.316 440.934 L141.316 449.406 Q142.334 449.059 143.353 448.897 Q144.371 448.712 145.39 448.712 Q151.177 448.712 154.556 451.883 Q157.936 455.054 157.936 460.471 Q157.936 466.05 154.464 469.152 Q150.992 472.23 144.672 472.23 Q142.496 472.23 140.228 471.86 Q137.982 471.489 135.575 470.749 L135.575 466.05 Q137.658 467.184 139.881 467.74 Q142.103 468.295 144.58 468.295 Q148.584 468.295 150.922 466.189 Q153.26 464.082 153.26 460.471 Q153.26 456.86 150.922 454.753 Q148.584 452.647 144.58 452.647 Q142.705 452.647 140.83 453.064 Q138.978 453.48 137.033 454.36 L137.033 436.999 Z" fill="#000000" fill-rule="nonzero" fill-opacity="1" /><path clip-path="url(#clip400)" d="M91.5706 168.782 L99.2095 168.782 L99.2095 142.416 L90.8993 144.083 L90.8993 139.824 L99.1632 138.157 L103.839 138.157 L103.839 168.782 L111.478 168.782 L111.478 172.717 L91.5706 172.717 L91.5706 168.782 Z" fill="#000000" fill-rule="nonzero" fill-opacity="1" /><path clip-path="url(#clip400)" d="M120.922 166.838 L125.807 166.838 L125.807 172.717 L120.922 172.717 L120.922 166.838 Z" fill="#000000" fill-rule="nonzero" fill-opacity="1" /><path clip-path="url(#clip400)" d="M145.992 141.236 Q142.381 141.236 140.552 144.801 Q138.746 148.342 138.746 155.472 Q138.746 162.578 140.552 166.143 Q142.381 169.685 145.992 169.685 Q149.626 169.685 151.431 166.143 Q153.26 162.578 153.26 155.472 Q153.26 148.342 151.431 144.801 Q149.626 141.236 145.992 141.236 M145.992 137.532 Q151.802 137.532 154.857 142.139 Q157.936 146.722 157.936 155.472 Q157.936 164.199 154.857 168.805 Q151.802 173.388 145.992 173.388 Q140.181 173.388 137.103 168.805 Q134.047 164.199 134.047 155.472 Q134.047 146.722 137.103 142.139 Q140.181 137.532 145.992 137.532 Z" fill="#000000" fill-rule="nonzero" fill-opacity="1" /><polyline clip-path="url(#clip402)" style="stroke:#009af9; stroke-linecap:round; stroke-linejoin:round; stroke-width:4; stroke-opacity:1; fill:none" points="255.035,753.121 258.278,747.144 261.521,741.168 264.764,735.193 268.007,729.22 271.25,723.249 274.493,717.281 277.736,711.317 280.979,705.357 284.222,699.402 287.465,693.452 290.708,687.508 293.951,681.571 297.194,675.641 300.437,669.718 303.68,663.804 306.923,657.899 310.166,652.003 313.409,646.118 316.652,640.243 319.895,634.379 323.138,628.528 326.381,622.688 329.624,616.862 332.867,611.05 336.11,605.251 339.353,599.468 342.596,593.7 345.84,587.947 349.083,582.212 352.326,576.493 355.569,570.792 358.812,565.109 362.055,559.446 365.298,553.801 368.541,548.176 371.784,542.572 375.027,536.989 378.27,531.428 381.513,525.888 384.756,520.372 387.999,514.878 391.242,509.409 394.485,503.964 397.728,498.544 400.971,493.149 404.214,487.78 407.457,482.438 410.7,477.123 413.943,471.835 417.186,466.576 420.429,461.345 423.672,456.144 426.915,450.972 430.158,445.83 433.401,440.719 436.644,435.639 439.887,430.592 443.13,425.576 446.373,420.593 449.616,415.643 452.859,410.727 456.103,405.846 459.346,400.999 462.589,396.187 465.832,391.411 469.075,386.671 472.318,381.968 475.561,377.301 478.804,372.673 482.047,368.082 485.29,363.53 488.533,359.017 491.776,354.544 495.019,350.11 498.262,345.716 501.505,341.364 504.748,337.052 507.991,332.782 511.234,328.554 514.477,324.369 517.72,320.226 520.963,316.127 524.206,312.071 527.449,308.06 530.692,304.093 533.935,300.171 537.178,296.294 540.421,292.463 543.664,288.678 546.907,284.939 550.15,281.247 553.393,277.603 556.636,274.006 559.879,270.457 563.122,266.956 566.366,263.503 569.609,260.1 572.852,256.746 576.095,253.442 579.338,250.187 582.581,246.983 585.824,243.83 589.067,240.727 592.31,237.676 595.553,234.676 598.796,231.728 602.039,228.832 605.282,225.989 608.525,223.198 611.768,220.461 615.011,217.776 618.254,215.146 621.497,212.568 624.74,210.045 627.983,207.577 631.226,205.163 634.469,202.803 637.712,200.499 640.955,198.25 644.198,196.056 647.441,193.918 650.684,191.836 653.927,189.811 657.17,187.841 660.413,185.928 663.656,184.072 666.899,182.273 670.142,180.53 673.385,178.845 676.629,177.218 679.872,175.648 683.115,174.136 686.358,172.681 689.601,171.285 692.844,169.947 696.087,168.667 699.33,167.446 702.573,166.283 705.816,165.179 709.059,164.134 712.302,163.147 715.545,162.22 718.788,161.352 722.031,160.542 725.274,159.793 728.517,159.102 731.76,158.471 735.003,157.899 738.246,157.387 741.489,156.934 744.732,156.541 747.975,156.208 751.218,155.934 754.461,155.721 757.704,155.566 760.947,155.472 764.19,155.437 767.433,155.462 770.676,155.547 773.919,155.692 777.162,155.896 780.405,156.161 783.648,156.484 786.892,156.868 790.135,157.311 793.378,157.814 796.621,158.376 799.864,158.997 803.107,159.679 806.35,160.419 809.593,161.219 812.836,162.078 816.079,162.996 819.322,163.973 822.565,165.009 825.808,166.103 829.051,167.257 832.294,168.469 835.537,169.739 838.78,171.068 842.023,172.455 845.266,173.9 848.509,175.403 851.752,176.964 854.995,178.582 858.238,180.258 861.481,181.991 864.724,183.782 867.967,185.629 871.21,187.533 874.453,189.493 877.696,191.51 880.939,193.583 884.182,195.712 887.425,197.897 890.668,200.137 893.911,202.433 897.155,204.783 900.398,207.189 903.641,209.649 906.884,212.163 910.127,214.731 913.37,217.354 916.613,220.03 919.856,222.759 923.099,225.541 926.342,228.376 929.585,231.264 932.828,234.203 936.071,237.195 939.314,240.238 942.557,243.332 945.8,246.478 949.043,249.674 952.286,252.92 955.529,256.217 958.772,259.563 962.015,262.958 965.258,266.403 968.501,269.896 971.744,273.437 974.987,277.027 978.23,280.664 981.473,284.348 984.716,288.079 987.959,291.857 991.202,295.681 994.445,299.55 997.688,303.465 1000.93,307.425 1004.17,311.429 1007.42,315.478 1010.66,319.57 1013.9,323.706 1017.15,327.885 1020.39,332.106 1023.63,336.369 1026.88,340.674 1030.12,345.02 1033.36,349.407 1036.6,353.835 1039.85,358.302 1043.09,362.809 1046.33,367.355 1049.58,371.939 1052.82,376.562 1056.06,381.222 1059.31,385.919 1062.55,390.653 1065.79,395.424 1069.04,400.23 1072.28,405.071 1075.52,409.947 1078.76,414.858 1082.01,419.802 1085.25,424.78 1088.49,429.791 1091.74,434.833 1094.98,439.908 1098.22,445.014 1101.47,450.151 1104.71,455.318 1107.95,460.515 1111.19,465.741 1114.44,470.996 1117.68,476.279 1120.92,481.59 1124.17,486.928 1127.41,492.292 1130.65,497.683 1133.9,503.099 1137.14,508.54 1140.38,514.006 1143.62,519.495 1146.87,525.008 1150.11,530.544 1153.35,536.102 1156.6,541.682 1159.84,547.282 1163.08,552.904 1166.33,558.545 1169.57,564.206 1172.81,569.886 1176.06,575.584 1179.3,581.3 1182.54,587.033 1185.78,592.783 1189.03,598.548 1192.27,604.329 1195.51,610.125 1198.76,615.936 1202,621.76 1205.24,627.597 1208.49,633.447 1211.73,639.308 1214.97,645.181 1218.21,651.065 1221.46,656.959 1224.7,662.863 1227.94,668.776 1231.19,674.697 1234.43,680.626 1237.67,686.562 1240.92,692.505 1244.16,698.454 1247.4,704.408 1250.64,710.367 1253.89,716.331 1257.13,722.298 1260.37,728.269 1263.62,734.241 1266.86,740.216 1270.1,746.192 1273.35,752.169 1276.59,758.146 1279.83,764.122 1283.08,770.097 1286.32,776.07 1289.56,782.042 1292.8,788.01 1296.05,793.975 1299.29,799.935 1302.53,805.892 1305.78,811.842 1309.02,817.787 1312.26,823.726 1315.51,829.657 1318.75,835.581 1321.99,841.496 1325.23,847.403 1328.48,853.3 1331.72,859.187 1334.96,865.064 1338.21,870.929 1341.45,876.783 1344.69,882.624 1347.94,888.452 1351.18,894.267 1354.42,900.067 1357.66,905.853 1360.91,911.624 1364.15,917.379 1367.39,923.117 1370.64,928.839 1373.88,934.542 1377.12,940.228 1380.37,945.895 1383.61,951.543 1386.85,957.171 1390.1,962.778 1393.34,968.365 1396.58,973.929 1399.82,979.472 1403.07,984.993 1406.31,990.49 1409.55,995.963 1412.8,1001.41 1416.04,1006.84 1419.28,1012.23 1422.53,1017.61 1425.77,1022.95 1429.01,1028.27 1432.25,1033.57 1435.5,1038.83 1438.74,1044.07 1441.98,1049.27 1445.23,1054.45 1448.47,1059.59 1451.71,1064.71 1454.96,1069.8 1458.2,1074.85 1461.44,1079.87 1464.68,1084.86 1467.93,1089.81 1471.17,1094.73 1474.41,1099.62 1477.66,1104.47 1480.9,1109.29 1484.14,1114.07 1487.39,1118.82 1490.63,1123.53 1493.87,1128.2 1497.11,1132.83 1500.36,1137.43 1503.6,1141.99 1506.84,1146.51 1510.09,1150.99 1513.33,1155.43 1516.57,1159.83 1519.82,1164.19 1523.06,1168.51 1526.3,1172.78 1529.55,1177.02 1532.79,1181.21 1536.03,1185.36 1539.27,1189.46 1542.52,1193.53 1545.76,1197.55 1549,1201.52 1552.25,1205.45 1555.49,1209.33 1558.73,1213.17 1561.98,1216.96 1565.22,1220.71 1568.46,1224.41 1571.7,1228.06 1574.95,1231.67 1578.19,1235.22 1581.43,1238.73 1584.68,1242.19 1587.92,1245.6 1591.16,1248.96 1594.41,1252.28 1597.65,1255.54 1600.89,1258.75 1604.13,1261.91 1607.38,1265.02 1610.62,1268.08 1613.86,1271.09 1617.11,1274.05 1620.35,1276.95 1623.59,1279.8 1626.84,1282.6 1630.08,1285.35 1633.32,1288.04 1636.57,1290.68 1639.81,1293.27 1643.05,1295.8 1646.29,1298.28 1649.54,1300.7 1652.78,1303.07 1656.02,1305.38 1659.27,1307.64 1662.51,1309.84 1665.75,1311.99 1669,1314.08 1672.24,1316.11 1675.48,1318.09 1678.72,1320.01 1681.97,1321.88 1685.21,1323.69 1688.45,1325.44 1691.7,1327.13 1694.94,1328.77 1698.18,1330.35 1701.43,1331.87 1704.67,1333.33 1707.91,1334.74 1711.15,1336.09 1714.4,1337.37 1717.64,1338.6 1720.88,1339.78 1724.13,1340.89 1727.37,1341.95 1730.61,1342.94 1733.86,1343.88 1737.1,1344.76 1740.34,1345.57 1743.59,1346.33 1746.83,1347.03 1750.07,1347.67 1753.31,1348.26 1756.56,1348.78 1759.8,1349.24 1763.04,1349.64 1766.29,1349.98 1769.53,1350.27 1772.77,1350.49 1776.02,1350.65 1779.26,1350.76 1782.5,1350.8 1785.74,1350.79 1788.99,1350.71 1792.23,1350.58 1795.47,1350.38 1798.72,1350.13 1801.96,1349.81 1805.2,1349.44 1808.45,1349.01 1811.69,1348.51 1814.93,1347.96 1818.17,1347.35 1821.42,1346.68 1824.66,1345.94 1827.9,1345.15 1831.15,1344.3 1834.39,1343.4 1837.63,1342.43 1840.88,1341.4 1844.12,1340.32 1847.36,1339.17 1850.61,1337.97 1853.85,1336.71 1857.09,1335.39 1860.33,1334.01 1863.58,1332.58 1866.82,1331.08 1870.06,1329.53 1873.31,1327.92 1876.55,1326.25 1879.79,1324.53 1883.04,1322.75 1886.28,1320.91 1889.52,1319.02 1892.76,1317.06 1896.01,1315.06 1899.25,1312.99 1902.49,1310.87 1905.74,1308.7 1908.98,1306.46 1912.22,1304.18 1915.47,1301.84 1918.71,1299.44 1921.95,1296.99 1925.19,1294.48 1928.44,1291.92 1931.68,1289.31 1934.92,1286.64 1938.17,1283.92 1941.41,1281.15 1944.65,1278.32 1947.9,1275.44 1951.14,1272.51 1954.38,1269.53 1957.63,1266.49 1960.87,1263.41 1964.11,1260.27 1967.35,1257.08 1970.6,1253.84 1973.84,1250.55 1977.08,1247.22 1980.33,1243.83 1983.57,1240.39 1986.81,1236.91 1990.06,1233.37 1993.3,1229.79 1996.54,1226.16 1999.78,1222.48 2003.03,1218.76 2006.27,1214.99 2009.51,1211.17 2012.76,1207.31 2016,1203.4 2019.24,1199.45 2022.49,1195.45 2025.73,1191.41 2028.97,1187.33 2032.21,1183.2 2035.46,1179.02 2038.7,1174.81 2041.94,1170.55 2045.19,1166.26 2048.43,1161.92 2051.67,1157.54 2054.92,1153.11 2058.16,1148.65 2061.4,1144.15 2064.65,1139.61 2067.89,1135.03 2071.13,1130.42 2074.37,1125.76 2077.62,1121.07 2080.86,1116.34 2084.1,1111.58 2087.35,1106.78 2090.59,1101.94 2093.83,1097.07 2097.08,1092.17 2100.32,1087.23 2103.56,1082.26 2106.8,1077.25 2110.05,1072.21 2113.29,1067.14 2116.53,1062.04 2119.78,1056.91 2123.02,1051.75 2126.26,1046.56 2129.51,1041.33 2132.75,1036.08 2135.99,1030.81 2139.23,1025.5 2142.48,1020.17 2145.72,1014.81 2148.96,1009.42 2152.21,1004.01 2155.45,998.57 2158.69,993.108 2161.94,987.622 2165.18,982.113 2168.42,976.581 2171.67,971.026 2174.91,965.45 2178.15,959.852 2181.39,954.234 2184.64,948.596 2187.88,942.938 2191.12,937.261 2194.37,931.566 2197.61,925.853 2200.85,920.123 2204.1,914.376 2207.34,908.613 2210.58,902.834 2213.82,897.04 2217.07,891.232 2220.31,885.41 2223.55,879.575 2226.8,873.727 2230.04,867.868 2233.28,861.996 2236.53,856.114 2239.77,850.222 2243.01,844.319 2246.25,838.408 2249.5,832.488 2252.74,826.56 2255.98,820.625 2259.23,814.683 2262.47,808.735 2265.71,802.782 2268.96,796.823 2272.2,790.86 2275.44,784.894 2278.69,778.924 2281.93,772.951 2285.17,766.977 2288.41,761.001 2291.66,755.025 "/>
<circle clip-path="url(#clip402)" cx="615.011" cy="249.79" r="14.4" fill="#e26f46" fill-rule="evenodd" fill-opacity="1" stroke="#000000" stroke-opacity="1" stroke-width="3.2"/>
<circle clip-path="url(#clip402)" cx="1711.15" cy="1410.88" r="14.4" fill="#e26f46" fill-rule="evenodd" fill-opacity="1" stroke="#000000" stroke-opacity="1" stroke-width="3.2"/>
<circle clip-path="url(#clip402)" cx="1857.09" cy="1374.52" r="14.4" fill="#e26f46" fill-rule="evenodd" fill-opacity="1" stroke="#000000" stroke-opacity="1" stroke-width="3.2"/>
<circle clip-path="url(#clip402)" cx="2061.4" cy="1048.6" r="14.4" fill="#e26f46" fill-rule="evenodd" fill-opacity="1" stroke="#000000" stroke-opacity="1" stroke-width="3.2"/>
<circle clip-path="url(#clip402)" cx="1860.33" cy="1187.22" r="14.4" fill="#e26f46" fill-rule="evenodd" fill-opacity="1" stroke="#000000" stroke-opacity="1" stroke-width="3.2"/>
<circle clip-path="url(#clip402)" cx="1847.36" cy="1229.93" r="14.4" fill="#e26f46" fill-rule="evenodd" fill-opacity="1" stroke="#000000" stroke-opacity="1" stroke-width="3.2"/>
<circle clip-path="url(#clip402)" cx="1915.47" cy="1445.72" r="14.4" fill="#e26f46" fill-rule="evenodd" fill-opacity="1" stroke="#000000" stroke-opacity="1" stroke-width="3.2"/>
<circle clip-path="url(#clip402)" cx="790.135" cy="299.877" r="14.4" fill="#e26f46" fill-rule="evenodd" fill-opacity="1" stroke="#000000" stroke-opacity="1" stroke-width="3.2"/>
<circle clip-path="url(#clip402)" cx="517.72" cy="359.497" r="14.4" fill="#e26f46" fill-rule="evenodd" fill-opacity="1" stroke="#000000" stroke-opacity="1" stroke-width="3.2"/>
<circle clip-path="url(#clip402)" cx="2080.86" cy="1121.15" r="14.4" fill="#e26f46" fill-rule="evenodd" fill-opacity="1" stroke="#000000" stroke-opacity="1" stroke-width="3.2"/>
<circle clip-path="url(#clip402)" cx="1964.11" cy="1134.45" r="14.4" fill="#e26f46" fill-rule="evenodd" fill-opacity="1" stroke="#000000" stroke-opacity="1" stroke-width="3.2"/>
<circle clip-path="url(#clip402)" cx="482.047" cy="297.751" r="14.4" fill="#e26f46" fill-rule="evenodd" fill-opacity="1" stroke="#000000" stroke-opacity="1" stroke-width="3.2"/>
<circle clip-path="url(#clip402)" cx="595.553" cy="363.46" r="14.4" fill="#e26f46" fill-rule="evenodd" fill-opacity="1" stroke="#000000" stroke-opacity="1" stroke-width="3.2"/>
<circle clip-path="url(#clip402)" cx="2246.25" cy="981.46" r="14.4" fill="#e26f46" fill-rule="evenodd" fill-opacity="1" stroke="#000000" stroke-opacity="1" stroke-width="3.2"/>
<circle clip-path="url(#clip402)" cx="1140.38" cy="564.611" r="14.4" fill="#e26f46" fill-rule="evenodd" fill-opacity="1" stroke="#000000" stroke-opacity="1" stroke-width="3.2"/>
<circle clip-path="url(#clip402)" cx="793.378" cy="87.9763" r="14.4" fill="#e26f46" fill-rule="evenodd" fill-opacity="1" stroke="#000000" stroke-opacity="1" stroke-width="3.2"/>
<circle clip-path="url(#clip402)" cx="906.884" cy="181.763" r="14.4" fill="#e26f46" fill-rule="evenodd" fill-opacity="1" stroke="#000000" stroke-opacity="1" stroke-width="3.2"/>
<circle clip-path="url(#clip402)" cx="527.449" cy="359.144" r="14.4" fill="#e26f46" fill-rule="evenodd" fill-opacity="1" stroke="#000000" stroke-opacity="1" stroke-width="3.2"/>
<circle clip-path="url(#clip402)" cx="611.768" cy="207.031" r="14.4" fill="#e26f46" fill-rule="evenodd" fill-opacity="1" stroke="#000000" stroke-opacity="1" stroke-width="3.2"/>
<circle clip-path="url(#clip402)" cx="1218.21" cy="553.993" r="14.4" fill="#e26f46" fill-rule="evenodd" fill-opacity="1" stroke="#000000" stroke-opacity="1" stroke-width="3.2"/>
<path clip-path="url(#clip400)" d="M1953.46 250.738 L2280.8 250.738 L2280.8 95.2176 L1953.46 95.2176  Z" fill="#ffffff" fill-rule="evenodd" fill-opacity="1"/>
<polyline clip-path="url(#clip400)" style="stroke:#000000; stroke-linecap:round; stroke-linejoin:round; stroke-width:4; stroke-opacity:1; fill:none" points="1953.46,250.738 2280.8,250.738 2280.8,95.2176 1953.46,95.2176 1953.46,250.738 "/>
<polyline clip-path="url(#clip400)" style="stroke:#009af9; stroke-linecap:round; stroke-linejoin:round; stroke-width:4; stroke-opacity:1; fill:none" points="1977.44,147.058 2121.36,147.058 "/>
<path clip-path="url(#clip400)" d="M2152.76 131.051 L2152.76 138.412 L2161.53 138.412 L2161.53 141.722 L2152.76 141.722 L2152.76 155.796 Q2152.76 158.967 2153.61 159.87 Q2154.49 160.773 2157.16 160.773 L2161.53 160.773 L2161.53 164.338 L2157.16 164.338 Q2152.23 164.338 2150.35 162.509 Q2148.48 160.657 2148.48 155.796 L2148.48 141.722 L2145.35 141.722 L2145.35 138.412 L2148.48 138.412 L2148.48 131.051 L2152.76 131.051 Z" fill="#000000" fill-rule="nonzero" fill-opacity="1" /><path clip-path="url(#clip400)" d="M2182.16 142.393 Q2181.44 141.977 2180.58 141.791 Q2179.75 141.583 2178.73 141.583 Q2175.12 141.583 2173.17 143.944 Q2171.25 146.282 2171.25 150.68 L2171.25 164.338 L2166.97 164.338 L2166.97 138.412 L2171.25 138.412 L2171.25 142.44 Q2172.6 140.078 2174.75 138.944 Q2176.9 137.787 2179.98 137.787 Q2180.42 137.787 2180.95 137.856 Q2181.48 137.903 2182.13 138.018 L2182.16 142.393 Z" fill="#000000" fill-rule="nonzero" fill-opacity="1" /><path clip-path="url(#clip400)" d="M2186.18 154.106 L2186.18 138.412 L2190.44 138.412 L2190.44 153.944 Q2190.44 157.625 2191.88 159.476 Q2193.31 161.305 2196.18 161.305 Q2199.63 161.305 2201.62 159.106 Q2203.64 156.907 2203.64 153.111 L2203.64 138.412 L2207.9 138.412 L2207.9 164.338 L2203.64 164.338 L2203.64 160.356 Q2202.09 162.717 2200.03 163.875 Q2197.99 165.009 2195.28 165.009 Q2190.81 165.009 2188.5 162.231 Q2186.18 159.453 2186.18 154.106 M2196.9 137.787 L2196.9 137.787 Z" fill="#000000" fill-rule="nonzero" fill-opacity="1" /><path clip-path="url(#clip400)" d="M2220.88 131.051 L2220.88 138.412 L2229.66 138.412 L2229.66 141.722 L2220.88 141.722 L2220.88 155.796 Q2220.88 158.967 2221.74 159.87 Q2222.62 160.773 2225.28 160.773 L2229.66 160.773 L2229.66 164.338 L2225.28 164.338 Q2220.35 164.338 2218.48 162.509 Q2216.6 160.657 2216.6 155.796 L2216.6 141.722 L2213.48 141.722 L2213.48 138.412 L2216.6 138.412 L2216.6 131.051 L2220.88 131.051 Z" fill="#000000" fill-rule="nonzero" fill-opacity="1" /><path clip-path="url(#clip400)" d="M2256.81 148.689 L2256.81 164.338 L2252.55 164.338 L2252.55 148.828 Q2252.55 145.148 2251.11 143.319 Q2249.68 141.49 2246.81 141.49 Q2243.36 141.49 2241.37 143.69 Q2239.38 145.889 2239.38 149.685 L2239.38 164.338 L2235.1 164.338 L2235.1 128.319 L2239.38 128.319 L2239.38 142.44 Q2240.91 140.102 2242.97 138.944 Q2245.05 137.787 2247.76 137.787 Q2252.23 137.787 2254.52 140.565 Q2256.81 143.319 2256.81 148.689 Z" fill="#000000" fill-rule="nonzero" fill-opacity="1" /><circle clip-path="url(#clip400)" cx="2049.4" cy="198.898" r="20.48" fill="#e26f46" fill-rule="evenodd" fill-opacity="1" stroke="#000000" stroke-opacity="1" stroke-width="4.55111"/>
<path clip-path="url(#clip400)" d="M2164.26 194.187 L2164.26 180.159 L2168.52 180.159 L2168.52 216.178 L2164.26 216.178 L2164.26 212.289 Q2162.92 214.603 2160.86 215.738 Q2158.82 216.849 2155.95 216.849 Q2151.25 216.849 2148.29 213.099 Q2145.35 209.349 2145.35 203.238 Q2145.35 197.127 2148.29 193.377 Q2151.25 189.627 2155.95 189.627 Q2158.82 189.627 2160.86 190.761 Q2162.92 191.872 2164.26 194.187 M2149.75 203.238 Q2149.75 207.937 2151.67 210.622 Q2153.61 213.284 2156.99 213.284 Q2160.37 213.284 2162.32 210.622 Q2164.26 207.937 2164.26 203.238 Q2164.26 198.539 2162.32 195.877 Q2160.37 193.192 2156.99 193.192 Q2153.61 193.192 2151.67 195.877 Q2149.75 198.539 2149.75 203.238 Z" fill="#000000" fill-rule="nonzero" fill-opacity="1" /><path clip-path="url(#clip400)" d="M2189.08 203.145 Q2183.92 203.145 2181.92 204.326 Q2179.93 205.506 2179.93 208.354 Q2179.93 210.622 2181.42 211.965 Q2182.92 213.284 2185.49 213.284 Q2189.03 213.284 2191.16 210.784 Q2193.31 208.261 2193.31 204.094 L2193.31 203.145 L2189.08 203.145 M2197.57 201.386 L2197.57 216.178 L2193.31 216.178 L2193.31 212.242 Q2191.85 214.603 2189.68 215.738 Q2187.5 216.849 2184.36 216.849 Q2180.37 216.849 2178.01 214.627 Q2175.67 212.381 2175.67 208.631 Q2175.67 204.256 2178.59 202.034 Q2181.53 199.812 2187.34 199.812 L2193.31 199.812 L2193.31 199.395 Q2193.31 196.455 2191.37 194.858 Q2189.45 193.238 2185.95 193.238 Q2183.73 193.238 2181.62 193.77 Q2179.52 194.303 2177.57 195.367 L2177.57 191.432 Q2179.91 190.53 2182.11 190.09 Q2184.31 189.627 2186.39 189.627 Q2192.02 189.627 2194.79 192.543 Q2197.57 195.46 2197.57 201.386 Z" fill="#000000" fill-rule="nonzero" fill-opacity="1" /><path clip-path="url(#clip400)" d="M2210.56 182.891 L2210.56 190.252 L2219.33 190.252 L2219.33 193.562 L2210.56 193.562 L2210.56 207.636 Q2210.56 210.807 2211.42 211.71 Q2212.29 212.613 2214.96 212.613 L2219.33 212.613 L2219.33 216.178 L2214.96 216.178 Q2210.03 216.178 2208.15 214.349 Q2206.28 212.497 2206.28 207.636 L2206.28 193.562 L2203.15 193.562 L2203.15 190.252 L2206.28 190.252 L2206.28 182.891 L2210.56 182.891 Z" fill="#000000" fill-rule="nonzero" fill-opacity="1" /><path clip-path="url(#clip400)" d="M2236.72 203.145 Q2231.55 203.145 2229.56 204.326 Q2227.57 205.506 2227.57 208.354 Q2227.57 210.622 2229.05 211.965 Q2230.56 213.284 2233.13 213.284 Q2236.67 213.284 2238.8 210.784 Q2240.95 208.261 2240.95 204.094 L2240.95 203.145 L2236.72 203.145 M2245.21 201.386 L2245.21 216.178 L2240.95 216.178 L2240.95 212.242 Q2239.49 214.603 2237.32 215.738 Q2235.14 216.849 2231.99 216.849 Q2228.01 216.849 2225.65 214.627 Q2223.31 212.381 2223.31 208.631 Q2223.31 204.256 2226.23 202.034 Q2229.17 199.812 2234.98 199.812 L2240.95 199.812 L2240.95 199.395 Q2240.95 196.455 2239.01 194.858 Q2237.09 193.238 2233.59 193.238 Q2231.37 193.238 2229.26 193.77 Q2227.16 194.303 2225.21 195.367 L2225.21 191.432 Q2227.55 190.53 2229.75 190.09 Q2231.95 189.627 2234.03 189.627 Q2239.66 189.627 2242.43 192.543 Q2245.21 195.46 2245.21 201.386 Z" fill="#000000" fill-rule="nonzero" fill-opacity="1" /></svg>
