<?xml version="1.0" encoding="utf-8"?>
<svg xmlns="http://www.w3.org/2000/svg" xmlns:xlink="http://www.w3.org/1999/xlink" width="600" height="400" viewBox="0 0 2400 1600">
<defs>
  <clipPath id="clip060">
    <rect x="0" y="0" width="2400" height="1600"/>
  </clipPath>
</defs>
<path clip-path="url(#clip060)" d="M0 1600 L2400 1600 L2400 0 L0 0  Z" fill="#ffffff" fill-rule="evenodd" fill-opacity="1"/>
<defs>
  <clipPath id="clip061">
    <rect x="480" y="0" width="1681" height="1600"/>
  </clipPath>
</defs>
<path clip-path="url(#clip060)" d="M193.936 1486.45 L2352.76 1486.45 L2352.76 47.2441 L193.936 47.2441  Z" fill="#ffffff" fill-rule="evenodd" fill-opacity="1"/>
<defs>
  <clipPath id="clip062">
    <rect x="193" y="47" width="2160" height="1440"/>
  </clipPath>
</defs>
<polyline clip-path="url(#clip062)" style="stroke:#000000; stroke-linecap:round; stroke-linejoin:round; stroke-width:2; stroke-opacity:0.1; fill:none" points="255.035,1486.45 255.035,47.2441 "/>
<polyline clip-path="url(#clip062)" style="stroke:#000000; stroke-linecap:round; stroke-linejoin:round; stroke-width:2; stroke-opacity:0.1; fill:none" points="579.338,1486.45 579.338,47.2441 "/>
<polyline clip-path="url(#clip062)" style="stroke:#000000; stroke-linecap:round; stroke-linejoin:round; stroke-width:2; stroke-opacity:0.1; fill:none" points="903.641,1486.45 903.641,47.2441 "/>
<polyline clip-path="url(#clip062)" style="stroke:#000000; stroke-linecap:round; stroke-linejoin:round; stroke-width:2; stroke-opacity:0.1; fill:none" points="1227.94,1486.45 1227.94,47.2441 "/>
<polyline clip-path="url(#clip062)" style="stroke:#000000; stroke-linecap:round; stroke-linejoin:round; stroke-width:2; stroke-opacity:0.1; fill:none" points="1552.25,1486.45 1552.25,47.2441 "/>
<polyline clip-path="url(#clip062)" style="stroke:#000000; stroke-linecap:round; stroke-linejoin:round; stroke-width:2; stroke-opacity:0.1; fill:none" points="1876.55,1486.45 1876.55,47.2441 "/>
<polyline clip-path="url(#clip062)" style="stroke:#000000; stroke-linecap:round; stroke-linejoin:round; stroke-width:2; stroke-opacity:0.1; fill:none" points="2200.85,1486.45 2200.85,47.2441 "/>
<polyline clip-path="url(#clip062)" style="stroke:#000000; stroke-linecap:round; stroke-linejoin:round; stroke-width:2; stroke-opacity:0.1; fill:none" points="193.936,1277.72 2352.76,1277.72 "/>
<polyline clip-path="url(#clip062)" style="stroke:#000000; stroke-linecap:round; stroke-linejoin:round; stroke-width:2; stroke-opacity:0.1; fill:none" points="193.936,1024.63 2352.76,1024.63 "/>
<polyline clip-path="url(#clip062)" style="stroke:#000000; stroke-linecap:round; stroke-linejoin:round; stroke-width:2; stroke-opacity:0.1; fill:none" points="193.936,771.535 2352.76,771.535 "/>
<polyline clip-path="url(#clip062)" style="stroke:#000000; stroke-linecap:round; stroke-linejoin:round; stroke-width:2; stroke-opacity:0.1; fill:none" points="193.936,518.444 2352.76,518.444 "/>
<polyline clip-path="url(#clip062)" style="stroke:#000000; stroke-linecap:round; stroke-linejoin:round; stroke-width:2; stroke-opacity:0.1; fill:none" points="193.936,265.353 2352.76,265.353 "/>
<polyline clip-path="url(#clip060)" style="stroke:#000000; stroke-linecap:round; stroke-linejoin:round; stroke-width:4; stroke-opacity:1; fill:none" points="193.936,1486.45 2352.76,1486.45 "/>
<polyline clip-path="url(#clip060)" style="stroke:#000000; stroke-linecap:round; stroke-linejoin:round; stroke-width:4; stroke-opacity:1; fill:none" points="255.035,1486.45 255.035,1467.55 "/>
<polyline clip-path="url(#clip060)" style="stroke:#000000; stroke-linecap:round; stroke-linejoin:round; stroke-width:4; stroke-opacity:1; fill:none" points="579.338,1486.45 579.338,1467.55 "/>
<polyline clip-path="url(#clip060)" style="stroke:#000000; stroke-linecap:round; stroke-linejoin:round; stroke-width:4; stroke-opacity:1; fill:none" points="903.641,1486.45 903.641,1467.55 "/>
<polyline clip-path="url(#clip060)" style="stroke:#000000; stroke-linecap:round; stroke-linejoin:round; stroke-width:4; stroke-opacity:1; fill:none" points="1227.94,1486.45 1227.94,1467.55 "/>
<polyline clip-path="url(#clip060)" style="stroke:#000000; stroke-linecap:round; stroke-linejoin:round; stroke-width:4; stroke-opacity:1; fill:none" points="1552.25,1486.45 1552.25,1467.55 "/>
<polyline clip-path="url(#clip060)" style="stroke:#000000; stroke-linecap:round; stroke-linejoin:round; stroke-width:4; stroke-opacity:1; fill:none" points="1876.55,1486.45 1876.55,1467.55 "/>
<polyline clip-path="url(#clip060)" style="stroke:#000000; stroke-linecap:round; stroke-linejoin:round; stroke-width:4; stroke-opacity:1; fill:none" points="2200.85,1486.45 2200.85,1467.55 "/>
<path clip-path="url(#clip060)" d="M255.035 1517.37 Q251.424 1517.37 249.595 1520.93 Q247.789 1524.47 247.789 1531.6 Q247.789 1538.71 249.595 1542.27 Q251.424 1545.82 255.035 1545.82 Q258.669 1545.82 260.474 1542.27 Q262.303 1538.71 262.303 1531.6 Q262.303 1524.47 260.474 1520.93 Q258.669 1517.37 255.035 1517.37 M255.035 1513.66 Q260.845 1513.66 263.9 1518.27 Q266.979 1522.85 266.979 1531.6 Q266.979 1540.33 263.9 1544.94 Q260.845 1549.52 255.035 1549.52 Q249.225 1549.52 246.146 1544.94 Q243.09 1540.33 243.09 1531.6 Q243.09 1522.85 246.146 1518.27 Q249.225 1513.66 255.035 1513.66 Z" fill="#000000" fill-rule="nonzero" fill-opacity="1" /><path clip-path="url(#clip060)" d="M569.72 1544.91 L577.358 1544.91 L577.358 1518.55 L569.048 1520.21 L569.048 1515.95 L577.312 1514.29 L581.988 1514.29 L581.988 1544.91 L589.627 1544.91 L589.627 1548.85 L569.72 1548.85 L569.72 1544.91 Z" fill="#000000" fill-rule="nonzero" fill-opacity="1" /><path clip-path="url(#clip060)" d="M898.293 1544.91 L914.613 1544.91 L914.613 1548.85 L892.668 1548.85 L892.668 1544.91 Q895.33 1542.16 899.914 1537.53 Q904.52 1532.88 905.701 1531.53 Q907.946 1529.01 908.826 1527.27 Q909.729 1525.51 909.729 1523.82 Q909.729 1521.07 907.784 1519.33 Q905.863 1517.6 902.761 1517.6 Q900.562 1517.6 898.108 1518.36 Q895.678 1519.13 892.9 1520.68 L892.9 1515.95 Q895.724 1514.82 898.178 1514.24 Q900.631 1513.66 902.668 1513.66 Q908.039 1513.66 911.233 1516.35 Q914.428 1519.03 914.428 1523.52 Q914.428 1525.65 913.617 1527.57 Q912.83 1529.47 910.724 1532.07 Q910.145 1532.74 907.043 1535.95 Q903.942 1539.15 898.293 1544.91 Z" fill="#000000" fill-rule="nonzero" fill-opacity="1" /><path clip-path="url(#clip060)" d="M1232.19 1530.21 Q1235.55 1530.93 1237.42 1533.2 Q1239.32 1535.47 1239.32 1538.8 Q1239.32 1543.92 1235.8 1546.72 Q1232.28 1549.52 1225.8 1549.52 Q1223.63 1549.52 1221.31 1549.08 Q1219.02 1548.66 1216.57 1547.81 L1216.57 1543.29 Q1218.51 1544.43 1220.83 1545.01 Q1223.14 1545.58 1225.66 1545.58 Q1230.06 1545.58 1232.35 1543.85 Q1234.67 1542.11 1234.67 1538.8 Q1234.67 1535.75 1232.52 1534.03 Q1230.39 1532.3 1226.57 1532.3 L1222.54 1532.3 L1222.54 1528.45 L1226.75 1528.45 Q1230.2 1528.45 1232.03 1527.09 Q1233.86 1525.7 1233.86 1523.11 Q1233.86 1520.45 1231.96 1519.03 Q1230.08 1517.6 1226.57 1517.6 Q1224.64 1517.6 1222.45 1518.01 Q1220.25 1518.43 1217.61 1519.31 L1217.61 1515.14 Q1220.27 1514.4 1222.58 1514.03 Q1224.92 1513.66 1226.98 1513.66 Q1232.31 1513.66 1235.41 1516.09 Q1238.51 1518.5 1238.51 1522.62 Q1238.51 1525.49 1236.87 1527.48 Q1235.22 1529.45 1232.19 1530.21 Z" fill="#000000" fill-rule="nonzero" fill-opacity="1" /><path clip-path="url(#clip060)" d="M1555.26 1518.36 L1543.45 1536.81 L1555.26 1536.81 L1555.26 1518.36 M1554.03 1514.29 L1559.91 1514.29 L1559.91 1536.81 L1564.84 1536.81 L1564.84 1540.7 L1559.91 1540.7 L1559.91 1548.85 L1555.26 1548.85 L1555.26 1540.7 L1539.65 1540.7 L1539.65 1536.19 L1554.03 1514.29 Z" fill="#000000" fill-rule="nonzero" fill-opacity="1" /><path clip-path="url(#clip060)" d="M1866.83 1514.29 L1885.18 1514.29 L1885.18 1518.22 L1871.11 1518.22 L1871.11 1526.7 Q1872.13 1526.35 1873.15 1526.19 Q1874.17 1526 1875.18 1526 Q1880.97 1526 1884.35 1529.17 Q1887.73 1532.34 1887.73 1537.76 Q1887.73 1543.34 1884.26 1546.44 Q1880.79 1549.52 1874.47 1549.52 Q1872.29 1549.52 1870.02 1549.15 Q1867.78 1548.78 1865.37 1548.04 L1865.37 1543.34 Q1867.45 1544.47 1869.67 1545.03 Q1871.9 1545.58 1874.37 1545.58 Q1878.38 1545.58 1880.72 1543.48 Q1883.05 1541.37 1883.05 1537.76 Q1883.05 1534.15 1880.72 1532.04 Q1878.38 1529.94 1874.37 1529.94 Q1872.5 1529.94 1870.62 1530.35 Q1868.77 1530.77 1866.83 1531.65 L1866.83 1514.29 Z" fill="#000000" fill-rule="nonzero" fill-opacity="1" /><path clip-path="url(#clip060)" d="M2201.26 1529.7 Q2198.11 1529.7 2196.26 1531.86 Q2194.43 1534.01 2194.43 1537.76 Q2194.43 1541.49 2196.26 1543.66 Q2198.11 1545.82 2201.26 1545.82 Q2204.41 1545.82 2206.23 1543.66 Q2208.09 1541.49 2208.09 1537.76 Q2208.09 1534.01 2206.23 1531.86 Q2204.41 1529.7 2201.26 1529.7 M2210.54 1515.05 L2210.54 1519.31 Q2208.78 1518.48 2206.98 1518.04 Q2205.19 1517.6 2203.43 1517.6 Q2198.8 1517.6 2196.35 1520.72 Q2193.92 1523.85 2193.57 1530.17 Q2194.94 1528.15 2197 1527.09 Q2199.06 1526 2201.54 1526 Q2206.74 1526 2209.75 1529.17 Q2212.79 1532.32 2212.79 1537.76 Q2212.79 1543.08 2209.64 1546.3 Q2206.49 1549.52 2201.26 1549.52 Q2195.26 1549.52 2192.09 1544.94 Q2188.92 1540.33 2188.92 1531.6 Q2188.92 1523.41 2192.81 1518.55 Q2196.7 1513.66 2203.25 1513.66 Q2205.01 1513.66 2206.79 1514.01 Q2208.6 1514.36 2210.54 1515.05 Z" fill="#000000" fill-rule="nonzero" fill-opacity="1" /><polyline clip-path="url(#clip060)" style="stroke:#000000; stroke-linecap:round; stroke-linejoin:round; stroke-width:4; stroke-opacity:1; fill:none" points="193.936,1486.45 193.936,47.2441 "/>
<polyline clip-path="url(#clip060)" style="stroke:#000000; stroke-linecap:round; stroke-linejoin:round; stroke-width:4; stroke-opacity:1; fill:none" points="193.936,1277.72 212.834,1277.72 "/>
<polyline clip-path="url(#clip060)" style="stroke:#000000; stroke-linecap:round; stroke-linejoin:round; stroke-width:4; stroke-opacity:1; fill:none" points="193.936,1024.63 212.834,1024.63 "/>
<polyline clip-path="url(#clip060)" style="stroke:#000000; stroke-linecap:round; stroke-linejoin:round; stroke-width:4; stroke-opacity:1; fill:none" points="193.936,771.535 212.834,771.535 "/>
<polyline clip-path="url(#clip060)" style="stroke:#000000; stroke-linecap:round; stroke-linejoin:round; stroke-width:4; stroke-opacity:1; fill:none" points="193.936,518.444 212.834,518.444 "/>
<polyline clip-path="url(#clip060)" style="stroke:#000000; stroke-linecap:round; stroke-linejoin:round; stroke-width:4; stroke-opacity:1; fill:none" points="193.936,265.353 212.834,265.353 "/>
<path clip-path="url(#clip060)" d="M50.9921 1278.17 L80.6679 1278.17 L80.6679 1282.1 L50.9921 1282.1 L50.9921 1278.17 Z" fill="#000000" fill-rule="nonzero" fill-opacity="1" /><path clip-path="url(#clip060)" d="M91.5706 1291.06 L99.2095 1291.06 L99.2095 1264.7 L90.8993 1266.36 L90.8993 1262.1 L99.1632 1260.44 L103.839 1260.44 L103.839 1291.06 L111.478 1291.06 L111.478 1295 L91.5706 1295 L91.5706 1291.06 Z" fill="#000000" fill-rule="nonzero" fill-opacity="1" /><path clip-path="url(#clip060)" d="M120.922 1289.12 L125.807 1289.12 L125.807 1295 L120.922 1295 L120.922 1289.12 Z" fill="#000000" fill-rule="nonzero" fill-opacity="1" /><path clip-path="url(#clip060)" d="M145.992 1263.51 Q142.381 1263.51 140.552 1267.08 Q138.746 1270.62 138.746 1277.75 Q138.746 1284.86 140.552 1288.42 Q142.381 1291.96 145.992 1291.96 Q149.626 1291.96 151.431 1288.42 Q153.26 1284.86 153.26 1277.75 Q153.26 1270.62 151.431 1267.08 Q149.626 1263.51 145.992 1263.51 M145.992 1259.81 Q151.802 1259.81 154.857 1264.42 Q157.936 1269 157.936 1277.75 Q157.936 1286.48 154.857 1291.08 Q151.802 1295.67 145.992 1295.67 Q140.181 1295.67 137.103 1291.08 Q134.047 1286.48 134.047 1277.75 Q134.047 1269 137.103 1264.42 Q140.181 1259.81 145.992 1259.81 Z" fill="#000000" fill-rule="nonzero" fill-opacity="1" /><path clip-path="url(#clip060)" d="M51.9875 1025.08 L81.6633 1025.08 L81.6633 1029.01 L51.9875 1029.01 L51.9875 1025.08 Z" fill="#000000" fill-rule="nonzero" fill-opacity="1" /><path clip-path="url(#clip060)" d="M101.756 1010.42 Q98.1447 1010.42 96.316 1013.99 Q94.5104 1017.53 94.5104 1024.66 Q94.5104 1031.77 96.316 1035.33 Q98.1447 1038.87 101.756 1038.87 Q105.39 1038.87 107.196 1035.33 Q109.024 1031.77 109.024 1024.66 Q109.024 1017.53 107.196 1013.99 Q105.39 1010.42 101.756 1010.42 M101.756 1006.72 Q107.566 1006.72 110.621 1011.33 Q113.7 1015.91 113.7 1024.66 Q113.7 1033.39 110.621 1037.99 Q107.566 1042.58 101.756 1042.58 Q95.9456 1042.58 92.8669 1037.99 Q89.8114 1033.39 89.8114 1024.66 Q89.8114 1015.91 92.8669 1011.33 Q95.9456 1006.72 101.756 1006.72 Z" fill="#000000" fill-rule="nonzero" fill-opacity="1" /><path clip-path="url(#clip060)" d="M121.918 1036.03 L126.802 1036.03 L126.802 1041.91 L121.918 1041.91 L121.918 1036.03 Z" fill="#000000" fill-rule="nonzero" fill-opacity="1" /><path clip-path="url(#clip060)" d="M137.033 1007.35 L155.39 1007.35 L155.39 1011.28 L141.316 1011.28 L141.316 1019.75 Q142.334 1019.41 143.353 1019.24 Q144.371 1019.06 145.39 1019.06 Q151.177 1019.06 154.556 1022.23 Q157.936 1025.4 157.936 1030.82 Q157.936 1036.4 154.464 1039.5 Q150.992 1042.58 144.672 1042.58 Q142.496 1042.58 140.228 1042.21 Q137.982 1041.84 135.575 1041.1 L135.575 1036.4 Q137.658 1037.53 139.881 1038.09 Q142.103 1038.64 144.58 1038.64 Q148.584 1038.64 150.922 1036.54 Q153.26 1034.43 153.26 1030.82 Q153.26 1027.21 150.922 1025.1 Q148.584 1022.99 144.58 1022.99 Q142.705 1022.99 140.83 1023.41 Q138.978 1023.83 137.033 1024.71 L137.033 1007.35 Z" fill="#000000" fill-rule="nonzero" fill-opacity="1" /><path clip-path="url(#clip060)" d="M100.76 757.333 Q97.1493 757.333 95.3206 760.898 Q93.515 764.44 93.515 771.569 Q93.515 778.676 95.3206 782.241 Q97.1493 785.782 100.76 785.782 Q104.395 785.782 106.2 782.241 Q108.029 778.676 108.029 771.569 Q108.029 764.44 106.2 760.898 Q104.395 757.333 100.76 757.333 M100.76 753.63 Q106.571 753.63 109.626 758.236 Q112.705 762.819 112.705 771.569 Q112.705 780.296 109.626 784.903 Q106.571 789.486 100.76 789.486 Q94.9502 789.486 91.8715 784.903 Q88.816 780.296 88.816 771.569 Q88.816 762.819 91.8715 758.236 Q94.9502 753.63 100.76 753.63 Z" fill="#000000" fill-rule="nonzero" fill-opacity="1" /><path clip-path="url(#clip060)" d="M120.922 782.935 L125.807 782.935 L125.807 788.815 L120.922 788.815 L120.922 782.935 Z" fill="#000000" fill-rule="nonzero" fill-opacity="1" /><path clip-path="url(#clip060)" d="M145.992 757.333 Q142.381 757.333 140.552 760.898 Q138.746 764.44 138.746 771.569 Q138.746 778.676 140.552 782.241 Q142.381 785.782 145.992 785.782 Q149.626 785.782 151.431 782.241 Q153.26 778.676 153.26 771.569 Q153.26 764.44 151.431 760.898 Q149.626 757.333 145.992 757.333 M145.992 753.63 Q151.802 753.63 154.857 758.236 Q157.936 762.819 157.936 771.569 Q157.936 780.296 154.857 784.903 Q151.802 789.486 145.992 789.486 Q140.181 789.486 137.103 784.903 Q134.047 780.296 134.047 771.569 Q134.047 762.819 137.103 758.236 Q140.181 753.63 145.992 753.63 Z" fill="#000000" fill-rule="nonzero" fill-opacity="1" /><path clip-path="url(#clip060)" d="M101.756 504.243 Q98.1447 504.243 96.316 507.807 Q94.5104 511.349 94.5104 518.479 Q94.5104 525.585 96.316 529.15 Q98.1447 532.692 101.756 532.692 Q105.39 532.692 107.196 529.15 Q109.024 525.585 109.024 518.479 Q109.024 511.349 107.196 507.807 Q105.39 504.243 101.756 504.243 M101.756 500.539 Q107.566 500.539 110.621 505.145 Q113.7 509.729 113.7 518.479 Q113.7 527.205 110.621 531.812 Q107.566 536.395 101.756 536.395 Q95.9456 536.395 92.8669 531.812 Q89.8114 527.205 89.8114 518.479 Q89.8114 509.729 92.8669 505.145 Q95.9456 500.539 101.756 500.539 Z" fill="#000000" fill-rule="nonzero" fill-opacity="1" /><path clip-path="url(#clip060)" d="M121.918 529.844 L126.802 529.844 L126.802 535.724 L121.918 535.724 L121.918 529.844 Z" fill="#000000" fill-rule="nonzero" fill-opacity="1" /><path clip-path="url(#clip060)" d="M137.033 501.164 L155.39 501.164 L155.39 505.099 L141.316 505.099 L141.316 513.571 Q142.334 513.224 143.353 513.062 Q144.371 512.877 145.39 512.877 Q151.177 512.877 154.556 516.048 Q157.936 519.219 157.936 524.636 Q157.936 530.215 154.464 533.317 Q150.992 536.395 144.672 536.395 Q142.496 536.395 140.228 536.025 Q137.982 535.654 135.575 534.914 L135.575 530.215 Q137.658 531.349 139.881 531.905 Q142.103 532.46 144.58 532.46 Q148.584 532.46 150.922 530.354 Q153.26 528.247 153.26 524.636 Q153.26 521.025 150.922 518.918 Q148.584 516.812 144.58 516.812 Q142.705 516.812 140.83 517.229 Q138.978 517.645 137.033 518.525 L137.033 501.164 Z" fill="#000000" fill-rule="nonzero" fill-opacity="1" /><path clip-path="url(#clip060)" d="M91.5706 278.698 L99.2095 278.698 L99.2095 252.332 L90.8993 253.999 L90.8993 249.74 L99.1632 248.073 L103.839 248.073 L103.839 278.698 L111.478 278.698 L111.478 282.633 L91.5706 282.633 L91.5706 278.698 Z" fill="#000000" fill-rule="nonzero" fill-opacity="1" /><path clip-path="url(#clip060)" d="M120.922 276.754 L125.807 276.754 L125.807 282.633 L120.922 282.633 L120.922 276.754 Z" fill="#000000" fill-rule="nonzero" fill-opacity="1" /><path clip-path="url(#clip060)" d="M145.992 251.152 Q142.381 251.152 140.552 254.717 Q138.746 258.258 138.746 265.388 Q138.746 272.494 140.552 276.059 Q142.381 279.601 145.992 279.601 Q149.626 279.601 151.431 276.059 Q153.26 272.494 153.26 265.388 Q153.26 258.258 151.431 254.717 Q149.626 251.152 145.992 251.152 M145.992 247.448 Q151.802 247.448 154.857 252.055 Q157.936 256.638 157.936 265.388 Q157.936 274.115 154.857 278.721 Q151.802 283.304 145.992 283.304 Q140.181 283.304 137.103 278.721 Q134.047 274.115 134.047 265.388 Q134.047 256.638 137.103 252.055 Q140.181 247.448 145.992 247.448 Z" fill="#000000" fill-rule="nonzero" fill-opacity="1" /><polyline clip-path="url(#clip062)" style="stroke:#009af9; stroke-linecap:round; stroke-linejoin:round; stroke-width:4; stroke-opacity:1; fill:none" points="255.035,771.535 258.278,766.473 261.521,761.412 264.764,756.352 268.007,751.293 271.25,746.236 274.493,741.182 277.736,736.131 280.979,731.083 284.222,726.04 287.465,721.001 290.708,715.967 293.951,710.939 297.194,705.916 300.437,700.901 303.68,695.892 306.923,690.891 310.166,685.898 313.409,680.913 316.652,675.938 319.895,670.972 323.138,666.016 326.381,661.071 329.624,656.137 332.867,651.214 336.11,646.303 339.353,641.405 342.596,636.52 345.84,631.649 349.083,626.791 352.326,621.948 355.569,617.12 358.812,612.307 362.055,607.51 365.298,602.73 368.541,597.966 371.784,593.22 375.027,588.492 378.27,583.782 381.513,579.09 384.756,574.418 387.999,569.766 391.242,565.134 394.485,560.522 397.728,555.932 400.971,551.363 404.214,546.816 407.457,542.292 410.7,537.791 413.943,533.313 417.186,528.858 420.429,524.428 423.672,520.023 426.915,515.643 430.158,511.289 433.401,506.96 436.644,502.658 439.887,498.383 443.13,494.135 446.373,489.915 449.616,485.723 452.859,481.56 456.103,477.425 459.346,473.321 462.589,469.245 465.832,465.201 469.075,461.186 472.318,457.203 475.561,453.251 478.804,449.331 482.047,445.444 485.29,441.588 488.533,437.766 491.776,433.978 495.019,430.223 498.262,426.502 501.505,422.815 504.748,419.164 507.991,415.548 511.234,411.967 514.477,408.422 517.72,404.914 520.963,401.442 524.206,398.007 527.449,394.61 530.692,391.25 533.935,387.929 537.178,384.646 540.421,381.401 543.664,378.195 546.907,375.029 550.15,371.902 553.393,368.816 556.636,365.769 559.879,362.764 563.122,359.799 566.366,356.875 569.609,353.993 572.852,351.152 576.095,348.354 579.338,345.598 582.581,342.884 585.824,340.213 589.067,337.586 592.31,335.002 595.553,332.461 598.796,329.964 602.039,327.512 605.282,325.104 608.525,322.741 611.768,320.422 615.011,318.149 618.254,315.92 621.497,313.738 624.74,311.601 627.983,309.51 631.226,307.466 634.469,305.468 637.712,303.516 640.955,301.611 644.198,299.754 647.441,297.943 650.684,296.18 653.927,294.464 657.17,292.796 660.413,291.176 663.656,289.604 666.899,288.08 670.142,286.605 673.385,285.178 676.629,283.799 679.872,282.47 683.115,281.189 686.358,279.957 689.601,278.775 692.844,277.642 696.087,276.558 699.33,275.523 702.573,274.539 705.816,273.604 709.059,272.718 712.302,271.883 715.545,271.097 718.788,270.362 722.031,269.677 725.274,269.042 728.517,268.457 731.76,267.922 735.003,267.438 738.246,267.004 741.489,266.621 744.732,266.288 747.975,266.006 751.218,265.774 754.461,265.593 757.704,265.463 760.947,265.383 764.19,265.353 767.433,265.375 770.676,265.446 773.919,265.569 777.162,265.742 780.405,265.966 783.648,266.24 786.892,266.565 790.135,266.94 793.378,267.366 796.621,267.842 799.864,268.368 803.107,268.945 806.35,269.572 809.593,270.25 812.836,270.977 816.079,271.754 819.322,272.582 822.565,273.459 825.808,274.386 829.051,275.363 832.294,276.39 835.537,277.466 838.78,278.591 842.023,279.766 845.266,280.99 848.509,282.262 851.752,283.584 854.995,284.955 858.238,286.374 861.481,287.842 864.724,289.358 867.967,290.923 871.21,292.535 874.453,294.195 877.696,295.904 880.939,297.659 884.182,299.462 887.425,301.312 890.668,303.21 893.911,305.154 897.155,307.145 900.398,309.182 903.641,311.265 906.884,313.395 910.127,315.57 913.37,317.791 916.613,320.057 919.856,322.368 923.099,324.725 926.342,327.126 929.585,329.571 932.828,332.061 936.071,334.594 939.314,337.171 942.557,339.792 945.8,342.456 949.043,345.163 952.286,347.912 955.529,350.704 958.772,353.538 962.015,356.413 965.258,359.33 968.501,362.289 971.744,365.288 974.987,368.328 978.23,371.408 981.473,374.528 984.716,377.688 987.959,380.888 991.202,384.126 994.445,387.403 997.688,390.719 1000.93,394.072 1004.17,397.464 1007.42,400.893 1010.66,404.359 1013.9,407.861 1017.15,411.4 1020.39,414.975 1023.63,418.586 1026.88,422.231 1030.12,425.912 1033.36,429.628 1036.6,433.377 1039.85,437.161 1043.09,440.978 1046.33,444.827 1049.58,448.71 1052.82,452.625 1056.06,456.572 1059.31,460.55 1062.55,464.559 1065.79,468.599 1069.04,472.669 1072.28,476.77 1075.52,480.899 1078.76,485.058 1082.01,489.246 1085.25,493.461 1088.49,497.705 1091.74,501.975 1094.98,506.273 1098.22,510.597 1101.47,514.948 1104.71,519.324 1107.95,523.725 1111.19,528.151 1114.44,532.602 1117.68,537.076 1120.92,541.574 1124.17,546.094 1127.41,550.638 1130.65,555.203 1133.9,559.79 1137.14,564.398 1140.38,569.027 1143.62,573.676 1146.87,578.345 1150.11,583.033 1153.35,587.74 1156.6,592.466 1159.84,597.209 1163.08,601.97 1166.33,606.748 1169.57,611.542 1172.81,616.352 1176.06,621.178 1179.3,626.019 1182.54,630.874 1185.78,635.743 1189.03,640.626 1192.27,645.522 1195.51,650.431 1198.76,655.352 1202,660.284 1205.24,665.228 1208.49,670.182 1211.73,675.146 1214.97,680.12 1218.21,685.103 1221.46,690.095 1224.7,695.095 1227.94,700.102 1231.19,705.117 1234.43,710.138 1237.67,715.166 1240.92,720.199 1244.16,725.237 1247.4,730.28 1250.64,735.327 1253.89,740.377 1257.13,745.431 1260.37,750.487 1263.62,755.546 1266.86,760.606 1270.1,765.667 1273.35,770.729 1276.59,775.79 1279.83,780.852 1283.08,785.912 1286.32,790.971 1289.56,796.028 1292.8,801.083 1296.05,806.134 1299.29,811.182 1302.53,816.227 1305.78,821.266 1309.02,826.301 1312.26,831.33 1315.51,836.354 1318.75,841.371 1321.99,846.38 1325.23,851.383 1328.48,856.377 1331.72,861.363 1334.96,866.34 1338.21,871.307 1341.45,876.265 1344.69,881.212 1347.94,886.148 1351.18,891.072 1354.42,895.985 1357.66,900.885 1360.91,905.772 1364.15,910.646 1367.39,915.506 1370.64,920.351 1373.88,925.182 1377.12,929.997 1380.37,934.796 1383.61,939.58 1386.85,944.346 1390.1,949.095 1393.34,953.826 1396.58,958.539 1399.82,963.233 1403.07,967.908 1406.31,972.564 1409.55,977.199 1412.8,981.814 1416.04,986.408 1419.28,990.98 1422.53,995.53 1425.77,1000.06 1429.01,1004.56 1432.25,1009.05 1435.5,1013.5 1438.74,1017.94 1441.98,1022.35 1445.23,1026.73 1448.47,1031.09 1451.71,1035.42 1454.96,1039.73 1458.2,1044.01 1461.44,1048.26 1464.68,1052.48 1467.93,1056.68 1471.17,1060.85 1474.41,1064.99 1477.66,1069.1 1480.9,1073.18 1484.14,1077.23 1487.39,1081.25 1490.63,1085.23 1493.87,1089.19 1497.11,1093.12 1500.36,1097.01 1503.6,1100.87 1506.84,1104.7 1510.09,1108.49 1513.33,1112.25 1516.57,1115.98 1519.82,1119.67 1523.06,1123.33 1526.3,1126.95 1529.55,1130.53 1532.79,1134.09 1536.03,1137.6 1539.27,1141.08 1542.52,1144.52 1545.76,1147.92 1549,1151.29 1552.25,1154.61 1555.49,1157.9 1558.73,1161.15 1561.98,1164.37 1565.22,1167.54 1568.46,1170.67 1571.7,1173.76 1574.95,1176.82 1578.19,1179.83 1581.43,1182.8 1584.68,1185.73 1587.92,1188.62 1591.16,1191.47 1594.41,1194.27 1597.65,1197.04 1600.89,1199.76 1604.13,1202.43 1607.38,1205.07 1610.62,1207.66 1613.86,1210.21 1617.11,1212.71 1620.35,1215.17 1623.59,1217.58 1626.84,1219.96 1630.08,1222.28 1633.32,1224.56 1636.57,1226.8 1639.81,1228.99 1643.05,1231.13 1646.29,1233.23 1649.54,1235.28 1652.78,1237.29 1656.02,1239.25 1659.27,1241.16 1662.51,1243.02 1665.75,1244.84 1669,1246.61 1672.24,1248.34 1675.48,1250.01 1678.72,1251.64 1681.97,1253.22 1685.21,1254.75 1688.45,1256.23 1691.7,1257.67 1694.94,1259.05 1698.18,1260.39 1701.43,1261.68 1704.67,1262.92 1707.91,1264.11 1711.15,1265.25 1714.4,1266.34 1717.64,1267.38 1720.88,1268.38 1724.13,1269.32 1727.37,1270.21 1730.61,1271.06 1733.86,1271.85 1737.1,1272.59 1740.34,1273.29 1743.59,1273.93 1746.83,1274.52 1750.07,1275.07 1753.31,1275.56 1756.56,1276 1759.8,1276.39 1763.04,1276.73 1766.29,1277.02 1769.53,1277.26 1772.77,1277.45 1776.02,1277.59 1779.26,1277.68 1782.5,1277.71 1785.74,1277.7 1788.99,1277.64 1792.23,1277.52 1795.47,1277.36 1798.72,1277.14 1801.96,1276.88 1805.2,1276.56 1808.45,1276.19 1811.69,1275.77 1814.93,1275.31 1818.17,1274.79 1821.42,1274.22 1824.66,1273.6 1827.9,1272.93 1831.15,1272.21 1834.39,1271.44 1837.63,1270.62 1840.88,1269.75 1844.12,1268.83 1847.36,1267.87 1850.61,1266.85 1853.85,1265.78 1857.09,1264.66 1860.33,1263.49 1863.58,1262.28 1866.82,1261.01 1870.06,1259.7 1873.31,1258.34 1876.55,1256.92 1879.79,1255.46 1883.04,1253.96 1886.28,1252.4 1889.52,1250.79 1892.76,1249.14 1896.01,1247.44 1899.25,1245.69 1902.49,1243.9 1905.74,1242.05 1908.98,1240.17 1912.22,1238.23 1915.47,1236.25 1918.71,1234.22 1921.95,1232.14 1925.19,1230.02 1928.44,1227.85 1931.68,1225.64 1934.92,1223.38 1938.17,1221.07 1941.41,1218.72 1944.65,1216.33 1947.9,1213.89 1951.14,1211.41 1954.38,1208.88 1957.63,1206.31 1960.87,1203.7 1964.11,1201.04 1967.35,1198.34 1970.6,1195.6 1973.84,1192.81 1977.08,1189.99 1980.33,1187.12 1983.57,1184.21 1986.81,1181.25 1990.06,1178.26 1993.3,1175.23 1996.54,1172.15 1999.78,1169.04 2003.03,1165.89 2006.27,1162.69 2009.51,1159.46 2012.76,1156.19 2016,1152.88 2019.24,1149.53 2022.49,1146.15 2025.73,1142.73 2028.97,1139.27 2032.21,1135.77 2035.46,1132.24 2038.7,1128.67 2041.94,1125.06 2045.19,1121.42 2048.43,1117.75 2051.67,1114.04 2054.92,1110.29 2058.16,1106.51 2061.4,1102.7 2064.65,1098.86 2067.89,1094.98 2071.13,1091.07 2074.37,1087.13 2077.62,1083.16 2080.86,1079.15 2084.1,1075.12 2087.35,1071.05 2090.59,1066.95 2093.83,1062.83 2097.08,1058.68 2100.32,1054.49 2103.56,1050.28 2106.8,1046.04 2110.05,1041.78 2113.29,1037.48 2116.53,1033.16 2119.78,1028.82 2123.02,1024.44 2126.26,1020.05 2129.51,1015.62 2132.75,1011.18 2135.99,1006.71 2139.23,1002.21 2142.48,997.697 2145.72,993.157 2148.96,988.595 2152.21,984.012 2155.45,979.407 2158.69,974.781 2161.94,970.135 2165.18,965.469 2168.42,960.784 2171.67,956.08 2174.91,951.358 2178.15,946.617 2181.39,941.859 2184.64,937.084 2187.88,932.292 2191.12,927.484 2194.37,922.661 2197.61,917.823 2200.85,912.97 2204.1,908.103 2207.34,903.222 2210.58,898.328 2213.82,893.421 2217.07,888.502 2220.31,883.571 2223.55,878.63 2226.8,873.677 2230.04,868.714 2233.28,863.742 2236.53,858.76 2239.77,853.77 2243.01,848.771 2246.25,843.765 2249.5,838.752 2252.74,833.731 2255.98,828.705 2259.23,823.673 2262.47,818.635 2265.71,813.593 2268.96,808.547 2272.2,803.497 2275.44,798.443 2278.69,793.388 2281.93,788.329 2285.17,783.27 2288.41,778.209 2291.66,773.147 "/>
<circle clip-path="url(#clip062)" cx="1918.71" cy="1335.84" r="14.4" fill="#e26f46" fill-rule="evenodd" fill-opacity="1" stroke="#000000" stroke-opacity="1" stroke-width="3.2"/>
<circle clip-path="url(#clip062)" cx="2268.96" cy="783.981" r="14.4" fill="#e26f46" fill-rule="evenodd" fill-opacity="1" stroke="#000000" stroke-opacity="1" stroke-width="3.2"/>
<circle clip-path="url(#clip062)" cx="939.314" cy="222.806" r="14.4" fill="#e26f46" fill-rule="evenodd" fill-opacity="1" stroke="#000000" stroke-opacity="1" stroke-width="3.2"/>
<circle clip-path="url(#clip062)" cx="1788.99" cy="1291.37" r="14.4" fill="#e26f46" fill-rule="evenodd" fill-opacity="1" stroke="#000000" stroke-opacity="1" stroke-width="3.2"/>
<circle clip-path="url(#clip062)" cx="1493.87" cy="974.465" r="14.4" fill="#e26f46" fill-rule="evenodd" fill-opacity="1" stroke="#000000" stroke-opacity="1" stroke-width="3.2"/>
<circle clip-path="url(#clip062)" cx="1840.88" cy="1387.45" r="14.4" fill="#e26f46" fill-rule="evenodd" fill-opacity="1" stroke="#000000" stroke-opacity="1" stroke-width="3.2"/>
<circle clip-path="url(#clip062)" cx="1571.7" cy="1130.11" r="14.4" fill="#e26f46" fill-rule="evenodd" fill-opacity="1" stroke="#000000" stroke-opacity="1" stroke-width="3.2"/>
<circle clip-path="url(#clip062)" cx="1523.06" cy="1151.16" r="14.4" fill="#e26f46" fill-rule="evenodd" fill-opacity="1" stroke="#000000" stroke-opacity="1" stroke-width="3.2"/>
<circle clip-path="url(#clip062)" cx="1866.82" cy="1349.11" r="14.4" fill="#e26f46" fill-rule="evenodd" fill-opacity="1" stroke="#000000" stroke-opacity="1" stroke-width="3.2"/>
<circle clip-path="url(#clip062)" cx="1574.95" cy="1070.06" r="14.4" fill="#e26f46" fill-rule="evenodd" fill-opacity="1" stroke="#000000" stroke-opacity="1" stroke-width="3.2"/>
<circle clip-path="url(#clip062)" cx="2233.28" cy="748.288" r="14.4" fill="#e26f46" fill-rule="evenodd" fill-opacity="1" stroke="#000000" stroke-opacity="1" stroke-width="3.2"/>
<circle clip-path="url(#clip062)" cx="1276.59" cy="837.005" r="14.4" fill="#e26f46" fill-rule="evenodd" fill-opacity="1" stroke="#000000" stroke-opacity="1" stroke-width="3.2"/>
<circle clip-path="url(#clip062)" cx="268.007" cy="724.747" r="14.4" fill="#e26f46" fill-rule="evenodd" fill-opacity="1" stroke="#000000" stroke-opacity="1" stroke-width="3.2"/>
<circle clip-path="url(#clip062)" cx="2077.62" cy="1200.54" r="14.4" fill="#e26f46" fill-rule="evenodd" fill-opacity="1" stroke="#000000" stroke-opacity="1" stroke-width="3.2"/>
<circle clip-path="url(#clip062)" cx="1876.55" cy="1291.18" r="14.4" fill="#e26f46" fill-rule="evenodd" fill-opacity="1" stroke="#000000" stroke-opacity="1" stroke-width="3.2"/>
<circle clip-path="url(#clip062)" cx="1046.33" cy="509.215" r="14.4" fill="#e26f46" fill-rule="evenodd" fill-opacity="1" stroke="#000000" stroke-opacity="1" stroke-width="3.2"/>
<circle clip-path="url(#clip062)" cx="2161.94" cy="998.336" r="14.4" fill="#e26f46" fill-rule="evenodd" fill-opacity="1" stroke="#000000" stroke-opacity="1" stroke-width="3.2"/>
<circle clip-path="url(#clip062)" cx="569.609" cy="268.173" r="14.4" fill="#e26f46" fill-rule="evenodd" fill-opacity="1" stroke="#000000" stroke-opacity="1" stroke-width="3.2"/>
<circle clip-path="url(#clip062)" cx="777.162" cy="296.644" r="14.4" fill="#e26f46" fill-rule="evenodd" fill-opacity="1" stroke="#000000" stroke-opacity="1" stroke-width="3.2"/>
<circle clip-path="url(#clip062)" cx="1931.68" cy="1134.54" r="14.4" fill="#e26f46" fill-rule="evenodd" fill-opacity="1" stroke="#000000" stroke-opacity="1" stroke-width="3.2"/>
<path clip-path="url(#clip062)" d="M255.035 954.997 L258.278 951.679 L261.521 948.458 L264.764 945.339 L268.007 942.329 L271.25 939.429 L274.493 936.636 L277.736 933.943 L280.979 931.342 L284.222 928.827 L287.465 926.389 L290.708 924.022 L293.951 921.717 L297.194 919.468 L300.437 917.266 L303.68 915.105 L306.923 912.976 L310.166 910.874 L313.409 908.79 L316.652 906.719 L319.895 904.654 L323.138 902.588 L326.381 900.516 L329.624 898.432 L332.867 896.33 L336.11 894.207 L339.353 892.056 L342.596 889.873 L345.84 887.654 L349.083 885.395 L352.326 883.092 L355.569 880.742 L358.812 878.341 L362.055 875.887 L365.298 873.376 L368.541 870.807 L371.784 868.177 L375.027 865.484 L378.27 862.726 L381.513 859.902 L384.756 857.01 L387.999 854.049 L391.242 851.019 L394.485 847.917 L397.728 844.744 L400.971 841.5 L404.214 838.183 L407.457 834.794 L410.7 831.333 L413.943 827.8 L417.186 824.196 L420.429 820.521 L423.672 816.775 L426.915 812.961 L430.158 809.078 L433.401 805.129 L436.644 801.113 L439.887 797.034 L443.13 792.893 L446.373 788.691 L449.616 784.431 L452.859 780.115 L456.103 775.746 L459.346 771.325 L462.589 766.857 L465.832 762.343 L469.075 757.787 L472.318 753.193 L475.561 748.564 L478.804 743.903 L482.047 739.215 L485.29 734.505 L488.533 729.776 L491.776 725.034 L495.019 720.283 L498.262 715.528 L501.505 710.776 L504.748 706.031 L507.991 701.301 L511.234 696.59 L514.477 691.907 L517.72 687.257 L520.963 682.647 L524.206 678.086 L527.449 673.581 L530.692 669.139 L533.935 664.77 L537.178 660.481 L540.421 656.28 L543.664 652.178 L546.907 648.183 L550.15 644.305 L553.393 640.552 L556.636 636.934 L559.879 633.462 L563.122 630.143 L566.366 626.99 L569.609 624.009 L572.852 621.209 L576.095 618.583 L579.338 616.121 L582.581 613.814 L585.824 611.653 L589.067 609.628 L592.31 607.73 L595.553 605.95 L598.796 604.279 L602.039 602.707 L605.282 601.226 L608.525 599.828 L611.768 598.505 L615.011 597.248 L618.254 596.05 L621.497 594.904 L624.74 593.803 L627.983 592.74 L631.226 591.709 L634.469 590.704 L637.712 589.72 L640.955 588.751 L644.198 587.793 L647.441 586.84 L650.684 585.889 L653.927 584.937 L657.17 583.979 L660.413 583.012 L663.656 582.034 L666.899 581.042 L670.142 580.034 L673.385 579.008 L676.629 577.964 L679.872 576.899 L683.115 575.813 L686.358 574.705 L689.601 573.577 L692.844 572.426 L696.087 571.256 L699.33 570.065 L702.573 568.856 L705.816 567.629 L709.059 566.388 L712.302 565.134 L715.545 563.869 L718.788 562.596 L722.031 561.32 L725.274 560.042 L728.517 558.768 L731.76 557.501 L735.003 556.246 L738.246 555.008 L741.489 553.791 L744.732 552.601 L747.975 551.444 L751.218 550.326 L754.461 549.253 L757.704 548.231 L760.947 547.268 L764.19 546.369 L767.433 545.542 L770.676 544.793 L773.919 544.13 L777.162 543.559 L780.405 543.087 L783.648 542.707 L786.892 542.416 L790.135 542.206 L793.378 542.071 L796.621 542.007 L799.864 542.006 L803.107 542.064 L806.35 542.175 L809.593 542.334 L812.836 542.535 L816.079 542.776 L819.322 543.05 L822.565 543.355 L825.808 543.686 L829.051 544.041 L832.294 544.416 L835.537 544.81 L838.78 545.219 L842.023 545.643 L845.266 546.08 L848.509 546.529 L851.752 546.99 L854.995 547.462 L858.238 547.947 L861.481 548.444 L864.724 548.956 L867.967 549.483 L871.21 550.028 L874.453 550.594 L877.696 551.183 L880.939 551.799 L884.182 552.446 L887.425 553.128 L890.668 553.85 L893.911 554.617 L897.155 555.434 L900.398 556.309 L903.641 557.246 L906.884 558.255 L910.127 559.341 L913.37 560.512 L916.613 561.777 L919.856 563.145 L923.099 564.624 L926.342 566.223 L929.585 567.953 L932.828 569.822 L936.071 571.841 L939.314 574.021 L942.557 576.367 L945.8 578.876 L949.043 581.54 L952.286 584.351 L955.529 587.301 L958.772 590.384 L962.015 593.593 L965.258 596.92 L968.501 600.36 L971.744 603.907 L974.987 607.556 L978.23 611.301 L981.473 615.138 L984.716 619.062 L987.959 623.071 L991.202 627.16 L994.445 631.327 L997.688 635.569 L1000.93 639.885 L1004.17 644.274 L1007.42 648.734 L1010.66 653.264 L1013.9 657.865 L1017.15 662.537 L1020.39 667.28 L1023.63 672.095 L1026.88 676.984 L1030.12 681.947 L1033.36 686.988 L1036.6 692.106 L1039.85 697.305 L1043.09 702.586 L1046.33 707.952 L1049.58 713.403 L1052.82 718.933 L1056.06 724.533 L1059.31 730.195 L1062.55 735.91 L1065.79 741.672 L1069.04 747.471 L1072.28 753.301 L1075.52 759.154 L1078.76 765.023 L1082.01 770.9 L1085.25 776.78 L1088.49 782.655 L1091.74 788.521 L1094.98 794.37 L1098.22 800.198 L1101.47 806 L1104.71 811.77 L1107.95 817.503 L1111.19 823.197 L1114.44 828.846 L1117.68 834.447 L1120.92 839.997 L1124.17 845.491 L1127.41 850.928 L1130.65 856.305 L1133.9 861.618 L1137.14 866.867 L1140.38 872.048 L1143.62 877.161 L1146.87 882.204 L1150.11 887.175 L1153.35 892.074 L1156.6 896.9 L1159.84 901.652 L1163.08 906.329 L1166.33 910.933 L1169.57 915.462 L1172.81 919.917 L1176.06 924.298 L1179.3 928.607 L1182.54 932.844 L1185.78 937.01 L1189.03 941.106 L1192.27 945.135 L1195.51 949.098 L1198.76 952.997 L1202 956.835 L1205.24 960.613 L1208.49 964.334 L1211.73 968.002 L1214.97 971.619 L1218.21 975.19 L1221.46 978.716 L1224.7 982.204 L1227.94 985.655 L1231.19 989.076 L1234.43 992.469 L1237.67 995.84 L1240.92 999.194 L1244.16 1002.54 L1247.4 1005.87 L1250.64 1009.2 L1253.89 1012.54 L1257.13 1015.89 L1260.37 1019.25 L1263.62 1022.63 L1266.86 1026.04 L1270.1 1029.48 L1273.35 1032.96 L1276.59 1036.48 L1279.83 1040.05 L1283.08 1043.66 L1286.32 1047.3 L1289.56 1050.98 L1292.8 1054.68 L1296.05 1058.41 L1299.29 1062.15 L1302.53 1065.89 L1305.78 1069.64 L1309.02 1073.38 L1312.26 1077.11 L1315.51 1080.83 L1318.75 1084.53 L1321.99 1088.2 L1325.23 1091.85 L1328.48 1095.45 L1331.72 1099.02 L1334.96 1102.55 L1338.21 1106.03 L1341.45 1109.45 L1344.69 1112.82 L1347.94 1116.14 L1351.18 1119.39 L1354.42 1122.57 L1357.66 1125.69 L1360.91 1128.74 L1364.15 1131.72 L1367.39 1134.63 L1370.64 1137.46 L1373.88 1140.21 L1377.12 1142.89 L1380.37 1145.48 L1383.61 1148 L1386.85 1150.43 L1390.1 1152.78 L1393.34 1155.06 L1396.58 1157.25 L1399.82 1159.36 L1403.07 1161.39 L1406.31 1163.34 L1409.55 1165.21 L1412.8 1167 L1416.04 1168.72 L1419.28 1170.36 L1422.53 1171.94 L1425.77 1173.44 L1429.01 1174.88 L1432.25 1176.25 L1435.5 1177.56 L1438.74 1178.82 L1441.98 1180.03 L1445.23 1181.18 L1448.47 1182.3 L1451.71 1183.38 L1454.96 1184.42 L1458.2 1185.45 L1461.44 1186.45 L1464.68 1187.44 L1467.93 1188.43 L1471.17 1189.43 L1474.41 1190.44 L1477.66 1191.48 L1480.9 1192.55 L1484.14 1193.66 L1487.39 1194.83 L1490.63 1196.07 L1493.87 1197.39 L1497.11 1198.8 L1500.36 1200.31 L1503.6 1201.91 L1506.84 1203.6 L1510.09 1205.4 L1513.33 1207.3 L1516.57 1209.3 L1519.82 1211.41 L1523.06 1213.62 L1526.3 1215.96 L1529.55 1218.4 L1532.79 1220.96 L1536.03 1223.63 L1539.27 1226.42 L1542.52 1229.32 L1545.76 1232.34 L1549 1235.48 L1552.25 1238.74 L1555.49 1242.12 L1558.73 1245.62 L1561.98 1249.25 L1565.22 1253.01 L1568.46 1256.9 L1571.7 1260.93 L1574.95 1265.09 L1578.19 1269.38 L1581.43 1273.79 L1584.68 1278.3 L1587.92 1282.9 L1591.16 1287.57 L1594.41 1292.3 L1597.65 1297.08 L1600.89 1301.89 L1604.13 1306.73 L1607.38 1311.57 L1610.62 1316.41 L1613.86 1321.24 L1617.11 1326.05 L1620.35 1330.83 L1623.59 1335.57 L1626.84 1340.26 L1630.08 1344.9 L1633.32 1349.48 L1636.57 1353.99 L1639.81 1358.43 L1643.05 1362.79 L1646.29 1367.06 L1649.54 1371.25 L1652.78 1375.35 L1656.02 1379.35 L1659.27 1383.25 L1662.51 1387.05 L1665.75 1390.74 L1669 1394.32 L1672.24 1397.79 L1675.48 1401.15 L1678.72 1404.39 L1681.97 1407.51 L1685.21 1410.51 L1688.45 1413.39 L1691.7 1416.15 L1694.94 1418.79 L1698.18 1421.3 L1701.43 1423.68 L1704.67 1425.94 L1707.91 1428.08 L1711.15 1430.09 L1714.4 1431.97 L1717.64 1433.72 L1720.88 1435.35 L1724.13 1436.86 L1727.37 1438.24 L1730.61 1439.5 L1733.86 1440.64 L1737.1 1441.65 L1740.34 1442.55 L1743.59 1443.33 L1746.83 1443.99 L1750.07 1444.54 L1753.31 1444.98 L1756.56 1445.32 L1759.8 1445.55 L1763.04 1445.68 L1766.29 1445.72 L1769.53 1445.66 L1772.77 1445.51 L1776.02 1445.29 L1779.26 1444.98 L1782.5 1444.6 L1785.74 1444.16 L1788.99 1443.65 L1792.23 1443.09 L1795.47 1442.47 L1798.72 1441.8 L1801.96 1441.06 L1805.2 1440.27 L1808.45 1439.41 L1811.69 1438.5 L1814.93 1437.53 L1818.17 1436.5 L1821.42 1435.41 L1824.66 1434.27 L1827.9 1433.08 L1831.15 1431.84 L1834.39 1430.56 L1837.63 1429.24 L1840.88 1427.9 L1844.12 1426.52 L1847.36 1425.13 L1850.61 1423.71 L1853.85 1422.29 L1857.09 1420.86 L1860.33 1419.43 L1863.58 1418 L1866.82 1416.59 L1870.06 1415.2 L1873.31 1413.83 L1876.55 1412.48 L1879.79 1411.17 L1883.04 1409.88 L1886.28 1408.61 L1889.52 1407.36 L1892.76 1406.14 L1896.01 1404.93 L1899.25 1403.73 L1902.49 1402.56 L1905.74 1401.4 L1908.98 1400.26 L1912.22 1399.14 L1915.47 1398.04 L1918.71 1396.97 L1921.95 1395.92 L1925.19 1394.91 L1928.44 1393.91 L1931.68 1392.95 L1934.92 1392.01 L1938.17 1391.09 L1941.41 1390.17 L1944.65 1389.25 L1947.9 1388.3 L1951.14 1387.33 L1954.38 1386.32 L1957.63 1385.26 L1960.87 1384.15 L1964.11 1382.97 L1967.35 1381.72 L1970.6 1380.4 L1973.84 1378.98 L1977.08 1377.48 L1980.33 1375.89 L1983.57 1374.19 L1986.81 1372.39 L1990.06 1370.48 L1993.3 1368.47 L1996.54 1366.34 L1999.78 1364.09 L2003.03 1361.73 L2006.27 1359.25 L2009.51 1356.65 L2012.76 1353.93 L2016 1351.09 L2019.24 1348.13 L2022.49 1345.05 L2025.73 1341.85 L2028.97 1338.54 L2032.21 1335.1 L2035.46 1331.55 L2038.7 1327.89 L2041.94 1324.11 L2045.19 1320.23 L2048.43 1316.24 L2051.67 1312.14 L2054.92 1307.95 L2058.16 1303.66 L2061.4 1299.28 L2064.65 1294.81 L2067.89 1290.26 L2071.13 1285.63 L2074.37 1280.92 L2077.62 1276.15 L2080.86 1271.3 L2084.1 1266.39 L2087.35 1261.42 L2090.59 1256.38 L2093.83 1251.28 L2097.08 1246.12 L2100.32 1240.9 L2103.56 1235.62 L2106.8 1230.28 L2110.05 1224.88 L2113.29 1219.43 L2116.53 1213.93 L2119.78 1208.39 L2123.02 1202.8 L2126.26 1197.18 L2129.51 1191.52 L2132.75 1185.83 L2135.99 1180.12 L2139.23 1174.39 L2142.48 1168.65 L2145.72 1162.91 L2148.96 1157.17 L2152.21 1151.45 L2155.45 1145.74 L2158.69 1140.07 L2161.94 1134.43 L2165.18 1128.84 L2168.42 1123.31 L2171.67 1117.83 L2174.91 1112.4 L2178.15 1107.04 L2181.39 1101.75 L2184.64 1096.53 L2187.88 1091.38 L2191.12 1086.32 L2194.37 1081.36 L2197.61 1076.49 L2200.85 1071.72 L2204.1 1067.08 L2207.34 1062.56 L2210.58 1058.17 L2213.82 1053.94 L2217.07 1049.86 L2220.31 1045.95 L2223.55 1042.23 L2226.8 1038.7 L2230.04 1035.38 L2233.28 1032.29 L2236.53 1029.43 L2239.77 1026.81 L2243.01 1024.42 L2246.25 1022.27 L2249.5 1020.35 L2252.74 1018.66 L2255.98 1017.21 L2259.23 1015.98 L2262.47 1014.99 L2265.71 1014.23 L2268.96 1013.69 L2272.2 1013.39 L2275.44 1013.3 L2278.69 1013.42 L2281.93 1013.74 L2285.17 1014.23 L2288.41 1014.9 L2291.66 1015.73 L2291.66 582.247 L2288.41 588.058 L2285.17 593.867 L2281.93 599.665 L2278.69 605.447 L2275.44 611.205 L2272.2 616.93 L2268.96 622.616 L2265.71 628.256 L2262.47 633.849 L2259.23 639.396 L2255.98 644.899 L2252.74 650.357 L2249.5 655.773 L2246.25 661.146 L2243.01 666.477 L2239.77 671.768 L2236.53 677.019 L2233.28 682.232 L2230.04 687.407 L2226.8 692.549 L2223.55 697.662 L2220.31 702.75 L2217.07 707.818 L2213.82 712.869 L2210.58 717.907 L2207.34 722.934 L2204.1 727.952 L2200.85 732.965 L2197.61 737.972 L2194.37 742.974 L2191.12 747.972 L2187.88 752.964 L2184.64 757.949 L2181.39 762.926 L2178.15 767.891 L2174.91 772.841 L2171.67 777.772 L2168.42 782.681 L2165.18 787.562 L2161.94 792.41 L2158.69 797.221 L2155.45 801.998 L2152.21 806.746 L2148.96 811.468 L2145.72 816.169 L2142.48 820.851 L2139.23 825.518 L2135.99 830.17 L2132.75 834.81 L2129.51 839.438 L2126.26 844.055 L2123.02 848.661 L2119.78 853.255 L2116.53 857.836 L2113.29 862.401 L2110.05 866.95 L2106.8 871.478 L2103.56 875.983 L2100.32 880.461 L2097.08 884.908 L2093.83 889.319 L2090.59 893.689 L2087.35 898.012 L2084.1 902.284 L2080.86 906.498 L2077.62 910.648 L2074.37 914.731 L2071.13 918.753 L2067.89 922.721 L2064.65 926.646 L2061.4 930.534 L2058.16 934.393 L2054.92 938.231 L2051.67 942.056 L2048.43 945.874 L2045.19 949.691 L2041.94 953.513 L2038.7 957.347 L2035.46 961.197 L2032.21 965.068 L2028.97 968.965 L2025.73 972.892 L2022.49 976.852 L2019.24 980.848 L2016 984.883 L2012.76 988.96 L2009.51 993.079 L2006.27 997.243 L2003.03 1001.45 L1999.78 1005.71 L1996.54 1010 L1993.3 1014.35 L1990.06 1018.73 L1986.81 1023.16 L1983.57 1027.63 L1980.33 1032.13 L1977.08 1036.67 L1973.84 1041.23 L1970.6 1045.82 L1967.35 1050.43 L1964.11 1055.05 L1960.87 1059.68 L1957.63 1064.3 L1954.38 1068.91 L1951.14 1073.51 L1947.9 1078.08 L1944.65 1082.61 L1941.41 1087.08 L1938.17 1091.5 L1934.92 1095.84 L1931.68 1100.1 L1928.44 1104.25 L1925.19 1108.29 L1921.95 1112.21 L1918.71 1115.98 L1915.47 1119.61 L1912.22 1123.08 L1908.98 1126.39 L1905.74 1129.54 L1902.49 1132.52 L1899.25 1135.33 L1896.01 1137.96 L1892.76 1140.41 L1889.52 1142.67 L1886.28 1144.73 L1883.04 1146.58 L1879.79 1148.21 L1876.55 1149.62 L1873.31 1150.78 L1870.06 1151.71 L1866.82 1152.39 L1863.58 1152.82 L1860.33 1153 L1857.09 1152.95 L1853.85 1152.67 L1850.61 1152.15 L1847.36 1151.41 L1844.12 1150.45 L1840.88 1149.27 L1837.63 1147.87 L1834.39 1146.27 L1831.15 1144.48 L1827.9 1142.51 L1824.66 1140.37 L1821.42 1138.07 L1818.17 1135.63 L1814.93 1133.05 L1811.69 1130.33 L1808.45 1127.5 L1805.2 1124.54 L1801.96 1121.48 L1798.72 1118.3 L1795.47 1115.03 L1792.23 1111.65 L1788.99 1108.19 L1785.74 1104.63 L1782.5 1100.99 L1779.26 1097.28 L1776.02 1093.51 L1772.77 1089.7 L1769.53 1085.85 L1766.29 1081.97 L1763.04 1078.08 L1759.8 1074.18 L1756.56 1070.28 L1753.31 1066.39 L1750.07 1062.51 L1746.83 1058.66 L1743.59 1054.84 L1740.34 1051.05 L1737.1 1047.31 L1733.86 1043.61 L1730.61 1039.97 L1727.37 1036.38 L1724.13 1032.86 L1720.88 1029.41 L1717.64 1026.02 L1714.4 1022.71 L1711.15 1019.48 L1707.91 1016.33 L1704.67 1013.26 L1701.43 1010.27 L1698.18 1007.38 L1694.94 1004.57 L1691.7 1001.85 L1688.45 999.223 L1685.21 996.689 L1681.97 994.249 L1678.72 991.902 L1675.48 989.648 L1672.24 987.488 L1669 985.421 L1665.75 983.446 L1662.51 981.561 L1659.27 979.765 L1656.02 978.057 L1652.78 976.434 L1649.54 974.893 L1646.29 973.432 L1643.05 972.046 L1639.81 970.733 L1636.57 969.488 L1633.32 968.305 L1630.08 967.181 L1626.84 966.108 L1623.59 965.08 L1620.35 964.091 L1617.11 963.133 L1613.86 962.198 L1610.62 961.276 L1607.38 960.358 L1604.13 959.434 L1600.89 958.493 L1597.65 957.523 L1594.41 956.511 L1591.16 955.445 L1587.92 954.311 L1584.68 953.094 L1581.43 951.779 L1578.19 950.352 L1574.95 948.797 L1571.7 947.099 L1568.46 945.25 L1565.22 943.249 L1561.98 941.095 L1558.73 938.79 L1555.49 936.334 L1552.25 933.728 L1549 930.97 L1545.76 928.06 L1542.52 924.998 L1539.27 921.784 L1536.03 918.414 L1532.79 914.888 L1529.55 911.203 L1526.3 907.357 L1523.06 903.347 L1519.82 899.172 L1516.57 894.84 L1513.33 890.361 L1510.09 885.743 L1506.84 880.996 L1503.6 876.128 L1500.36 871.147 L1497.11 866.062 L1493.87 860.88 L1490.63 855.609 L1487.39 850.26 L1484.14 844.847 L1480.9 839.381 L1477.66 833.872 L1474.41 828.333 L1471.17 822.774 L1467.93 817.203 L1464.68 811.63 L1461.44 806.064 L1458.2 800.512 L1454.96 794.981 L1451.71 789.479 L1448.47 784.01 L1445.23 778.582 L1441.98 773.199 L1438.74 767.865 L1435.5 762.586 L1432.25 757.364 L1429.01 752.204 L1425.77 747.107 L1422.53 742.077 L1419.28 737.116 L1416.04 732.225 L1412.8 727.407 L1409.55 722.662 L1406.31 717.992 L1403.07 713.397 L1399.82 708.877 L1396.58 704.432 L1393.34 700.063 L1390.1 695.768 L1386.85 691.547 L1383.61 687.398 L1380.37 683.321 L1377.12 679.314 L1373.88 675.375 L1370.64 671.502 L1367.39 667.693 L1364.15 663.944 L1360.91 660.254 L1357.66 656.619 L1354.42 653.036 L1351.18 649.5 L1347.94 646.009 L1344.69 642.558 L1341.45 639.143 L1338.21 635.758 L1334.96 632.4 L1331.72 629.062 L1328.48 625.74 L1325.23 622.427 L1321.99 619.117 L1318.75 615.805 L1315.51 612.484 L1312.26 609.147 L1309.02 605.787 L1305.78 602.398 L1302.53 598.971 L1299.29 595.499 L1296.05 591.975 L1292.8 588.391 L1289.56 584.74 L1286.32 581.012 L1283.08 577.202 L1279.83 573.3 L1276.59 569.3 L1273.35 565.196 L1270.1 560.992 L1266.86 556.695 L1263.62 552.313 L1260.37 547.852 L1257.13 543.319 L1253.89 538.721 L1250.64 534.065 L1247.4 529.357 L1244.16 524.605 L1240.92 519.815 L1237.67 514.993 L1234.43 510.146 L1231.19 505.279 L1227.94 500.398 L1224.7 495.508 L1221.46 490.616 L1218.21 485.725 L1214.97 480.841 L1211.73 475.969 L1208.49 471.112 L1205.24 466.275 L1202 461.462 L1198.76 456.676 L1195.51 451.921 L1192.27 447.2 L1189.03 442.515 L1185.78 437.87 L1182.54 433.267 L1179.3 428.709 L1176.06 424.196 L1172.81 419.732 L1169.57 415.318 L1166.33 410.955 L1163.08 406.644 L1159.84 402.386 L1156.6 398.183 L1153.35 394.034 L1150.11 389.94 L1146.87 385.902 L1143.62 381.919 L1140.38 377.991 L1137.14 374.117 L1133.9 370.297 L1130.65 366.53 L1127.41 362.815 L1124.17 359.15 L1120.92 355.534 L1117.68 351.965 L1114.44 348.441 L1111.19 344.96 L1107.95 341.518 L1104.71 338.115 L1101.47 334.746 L1098.22 331.408 L1094.98 328.097 L1091.74 324.811 L1088.49 321.544 L1085.25 318.293 L1082.01 315.053 L1078.76 311.819 L1075.52 308.587 L1072.28 305.35 L1069.04 302.104 L1065.79 298.842 L1062.55 295.56 L1059.31 292.25 L1056.06 288.908 L1052.82 285.526 L1049.58 282.098 L1046.33 278.619 L1043.09 275.085 L1039.85 271.499 L1036.6 267.867 L1033.36 264.195 L1030.12 260.491 L1026.88 256.759 L1023.63 253.006 L1020.39 249.237 L1017.15 245.459 L1013.9 241.676 L1010.66 237.895 L1007.42 234.119 L1004.17 230.353 L1000.93 226.603 L997.688 222.871 L994.445 219.162 L991.202 215.48 L987.959 211.827 L984.716 208.205 L981.473 204.619 L978.23 201.069 L974.987 197.557 L971.744 194.085 L968.501 190.655 L965.258 187.266 L962.015 183.921 L958.772 180.619 L955.529 177.36 L952.286 174.146 L949.043 170.975 L945.8 167.848 L942.557 164.765 L939.314 161.726 L936.071 158.732 L932.828 155.785 L929.585 152.889 L926.342 150.048 L923.099 147.264 L919.856 144.542 L916.613 141.885 L913.37 139.295 L910.127 136.777 L906.884 134.332 L903.641 131.964 L900.398 129.674 L897.155 127.465 L893.911 125.339 L890.668 123.297 L887.425 121.34 L884.182 119.47 L880.939 117.686 L877.696 115.991 L874.453 114.382 L871.21 112.861 L867.967 111.427 L864.724 110.079 L861.481 108.816 L858.238 107.636 L854.995 106.538 L851.752 105.52 L848.509 104.58 L845.266 103.715 L842.023 102.921 L838.78 102.197 L835.537 101.538 L832.294 100.942 L829.051 100.403 L825.808 99.918 L822.565 99.4823 L819.322 99.0911 L816.079 98.7394 L812.836 98.422 L809.593 98.1337 L806.35 97.8686 L803.107 97.6212 L799.864 97.3855 L796.621 97.1555 L793.378 96.9251 L790.135 96.688 L786.892 96.4382 L783.648 96.1695 L780.405 95.8757 L777.162 95.551 L773.919 95.1914 L770.676 94.7998 L767.433 94.3815 L764.19 93.9416 L760.947 93.4854 L757.704 93.018 L754.461 92.5449 L751.218 92.0711 L747.975 91.6019 L744.732 91.1423 L741.489 90.6971 L738.246 90.2711 L735.003 89.8689 L731.76 89.4949 L728.517 89.1533 L725.274 88.848 L722.031 88.5828 L718.788 88.3614 L715.545 88.187 L712.302 88.0628 L709.059 87.9917 L705.816 87.9763 L702.573 88.0191 L699.33 88.1223 L696.087 88.288 L692.844 88.5178 L689.601 88.8134 L686.358 89.1761 L683.115 89.6068 L679.872 90.1066 L676.629 90.6761 L673.385 91.3157 L670.142 92.0256 L666.899 92.8057 L663.656 93.6559 L660.413 94.5757 L657.17 95.5643 L653.927 96.6208 L650.684 97.7441 L647.441 98.9327 L644.198 100.185 L640.955 101.499 L637.712 102.874 L634.469 104.305 L631.226 105.792 L627.983 107.331 L624.74 108.919 L621.497 110.553 L618.254 112.229 L615.011 113.945 L611.768 115.695 L608.525 117.477 L605.282 119.285 L602.039 121.116 L598.796 122.965 L595.553 124.827 L592.31 126.699 L589.067 128.574 L585.824 130.449 L582.581 132.319 L579.338 134.179 L576.095 136.024 L572.852 137.851 L569.609 139.656 L566.366 141.435 L563.122 143.191 L559.879 144.928 L556.636 146.648 L553.393 148.357 L550.15 150.058 L546.907 151.754 L543.664 153.451 L540.421 155.153 L537.178 156.863 L533.935 158.585 L530.692 160.323 L527.449 162.082 L524.206 163.865 L520.963 165.675 L517.72 167.516 L514.477 169.39 L511.234 171.302 L507.991 173.254 L504.748 175.248 L501.505 177.287 L498.262 179.374 L495.019 181.511 L491.776 183.699 L488.533 185.94 L485.29 188.237 L482.047 190.59 L478.804 193.001 L475.561 195.472 L472.318 198.002 L469.075 200.594 L465.832 203.247 L462.589 205.962 L459.346 208.74 L456.103 211.581 L452.859 214.486 L449.616 217.454 L446.373 220.485 L443.13 223.578 L439.887 226.735 L436.644 229.954 L433.401 233.234 L430.158 236.575 L426.915 239.977 L423.672 243.437 L420.429 246.955 L417.186 250.531 L413.943 254.161 L410.7 257.846 L407.457 261.583 L404.214 265.371 L400.971 269.208 L397.728 273.091 L394.485 277.019 L391.242 280.989 L387.999 284.999 L384.756 289.046 L381.513 293.128 L378.27 297.24 L375.027 301.381 L371.784 305.547 L368.541 309.733 L365.298 313.937 L362.055 318.155 L358.812 322.381 L355.569 326.612 L352.326 330.843 L349.083 335.069 L345.84 339.284 L342.596 343.484 L339.353 347.662 L336.11 351.812 L332.867 355.928 L329.624 360.004 L326.381 364.032 L323.138 368.006 L319.895 371.917 L316.652 375.759 L313.409 379.522 L310.166 383.199 L306.923 386.781 L303.68 390.259 L300.437 393.625 L297.194 396.868 L293.951 399.98 L290.708 402.95 L287.465 405.77 L284.222 408.43 L280.979 410.919 L277.736 413.229 L274.493 415.349 L271.25 417.271 L268.007 418.985 L264.764 420.485 L261.521 421.776 L258.278 422.866 L255.035 423.762  Z" fill="#3da44d" fill-rule="evenodd" fill-opacity="0.1"/>
<polyline clip-path="url(#clip062)" style="stroke:#3da44d; stroke-linecap:round; stroke-linejoin:round; stroke-width:8; stroke-opacity:1; fill:none" points="255.035,689.379 258.278,687.272 261.521,685.117 264.764,682.912 268.007,680.657 271.25,678.35 274.493,675.993 277.736,673.586 280.979,671.131 284.222,668.628 287.465,666.08 290.708,663.486 293.951,660.848 297.194,658.168 300.437,655.446 303.68,652.682 306.923,649.879 310.166,647.037 313.409,644.156 316.652,641.239 319.895,638.286 323.138,635.297 326.381,632.274 329.624,629.218 332.867,626.129 336.11,623.009 339.353,619.859 342.596,616.678 345.84,613.469 349.083,610.232 352.326,606.967 355.569,603.677 358.812,600.361 362.055,597.021 365.298,593.657 368.541,590.27 371.784,586.862 375.027,583.433 378.27,579.983 381.513,576.515 384.756,573.028 387.999,569.524 391.242,566.004 394.485,562.468 397.728,558.918 400.971,555.354 404.214,551.777 407.457,548.189 410.7,544.59 413.943,540.981 417.186,537.363 420.429,533.738 423.672,530.106 426.915,526.469 430.158,522.827 433.401,519.181 436.644,515.534 439.887,511.885 443.13,508.236 446.373,504.588 449.616,500.943 452.859,497.301 456.103,493.664 459.346,490.033 462.589,486.409 465.832,482.795 469.075,479.19 472.318,475.598 475.561,472.018 478.804,468.452 482.047,464.903 485.29,461.371 488.533,457.858 491.776,454.366 495.019,450.897 498.262,447.451 501.505,444.032 504.748,440.64 507.991,437.277 511.234,433.946 514.477,430.649 517.72,427.386 520.963,424.161 524.206,420.976 527.449,417.832 530.692,414.731 533.935,411.677 537.178,408.672 540.421,405.717 543.664,402.815 546.907,399.969 550.15,397.181 553.393,394.454 556.636,391.791 559.879,389.195 563.122,386.667 566.366,384.212 569.609,381.833 572.852,379.53 576.095,377.303 579.338,375.15 582.581,373.066 585.824,371.051 589.067,369.101 592.31,367.215 595.553,365.389 598.796,363.622 602.039,361.911 605.282,360.256 608.525,358.652 611.768,357.1 615.011,355.596 618.254,354.14 621.497,352.728 624.74,351.361 627.983,350.035 631.226,348.75 634.469,347.505 637.712,346.297 640.955,345.125 644.198,343.989 647.441,342.886 650.684,341.817 653.927,340.779 657.17,339.771 660.413,338.794 663.656,337.845 666.899,336.924 670.142,336.03 673.385,335.162 676.629,334.32 679.872,333.503 683.115,332.71 686.358,331.941 689.601,331.195 692.844,330.472 696.087,329.772 699.33,329.094 702.573,328.437 705.816,327.803 709.059,327.19 712.302,326.598 715.545,326.028 718.788,325.479 722.031,324.951 725.274,324.445 728.517,323.961 731.76,323.498 735.003,323.058 738.246,322.639 741.489,322.244 744.732,321.872 747.975,321.523 751.218,321.199 754.461,320.899 757.704,320.625 760.947,320.377 764.19,320.155 767.433,319.962 770.676,319.796 773.919,319.661 777.162,319.555 780.405,319.481 783.648,319.438 786.892,319.427 790.135,319.447 793.378,319.498 796.621,319.581 799.864,319.696 803.107,319.843 806.35,320.022 809.593,320.234 812.836,320.479 816.079,320.758 819.322,321.071 822.565,321.419 825.808,321.802 829.051,322.222 832.294,322.679 835.537,323.174 838.78,323.708 842.023,324.282 845.266,324.897 848.509,325.555 851.752,326.255 854.995,327 858.238,327.792 861.481,328.63 864.724,329.517 867.967,330.455 871.21,331.445 874.453,332.488 877.696,333.587 880.939,334.743 884.182,335.958 887.425,337.234 890.668,338.573 893.911,339.978 897.155,341.45 900.398,342.991 903.641,344.605 906.884,346.293 910.127,348.059 913.37,349.904 916.613,351.831 919.856,353.843 923.099,355.944 926.342,358.135 929.585,360.421 932.828,362.804 936.071,365.287 939.314,367.873 942.557,370.566 945.8,373.362 949.043,376.257 952.286,379.248 955.529,382.331 958.772,385.501 962.015,388.757 965.258,392.093 968.501,395.508 971.744,398.996 974.987,402.556 978.23,406.185 981.473,409.878 984.716,413.634 987.959,417.449 991.202,421.32 994.445,425.245 997.688,429.22 1000.93,433.244 1004.17,437.314 1007.42,441.426 1010.66,445.579 1013.9,449.771 1017.15,453.998 1020.39,458.259 1023.63,462.551 1026.88,466.872 1030.12,471.219 1033.36,475.592 1036.6,479.986 1039.85,484.402 1043.09,488.836 1046.33,493.286 1049.58,497.751 1052.82,502.229 1056.06,506.72 1059.31,511.222 1062.55,515.735 1065.79,520.257 1069.04,524.787 1072.28,529.326 1075.52,533.87 1078.76,538.421 1082.01,542.977 1085.25,547.537 1088.49,552.1 1091.74,556.666 1094.98,561.234 1098.22,565.803 1101.47,570.373 1104.71,574.942 1107.95,579.511 1111.19,584.078 1114.44,588.643 1117.68,593.206 1120.92,597.765 1124.17,602.32 1127.41,606.871 1130.65,611.417 1133.9,615.958 1137.14,620.492 1140.38,625.02 1143.62,629.54 1146.87,634.053 1150.11,638.558 1153.35,643.054 1156.6,647.541 1159.84,652.019 1163.08,656.487 1166.33,660.944 1169.57,665.39 1172.81,669.824 1176.06,674.247 1179.3,678.658 1182.54,683.056 1185.78,687.44 1189.03,691.811 1192.27,696.168 1195.51,700.51 1198.76,704.837 1202,709.148 1205.24,713.444 1208.49,717.723 1211.73,721.985 1214.97,726.23 1218.21,730.457 1221.46,734.666 1224.7,738.856 1227.94,743.026 1231.19,747.177 1234.43,751.307 1237.67,755.417 1240.92,759.505 1244.16,763.571 1247.4,767.614 1250.64,771.634 1253.89,775.631 1257.13,779.603 1260.37,783.55 1263.62,787.472 1266.86,791.367 1270.1,795.236 1273.35,799.077 1276.59,802.889 1279.83,806.673 1283.08,810.429 1286.32,814.158 1289.56,817.86 1292.8,821.538 1296.05,825.192 1299.29,828.822 1302.53,832.43 1305.78,836.017 1309.02,839.583 1312.26,843.13 1315.51,846.658 1318.75,850.167 1321.99,853.66 1325.23,857.136 1328.48,860.597 1331.72,864.043 1334.96,867.474 1338.21,870.892 1341.45,874.298 1344.69,877.691 1347.94,881.073 1351.18,884.444 1354.42,887.805 1357.66,891.157 1360.91,894.499 1364.15,897.834 1367.39,901.161 1370.64,904.48 1373.88,907.793 1377.12,911.1 1380.37,914.401 1383.61,917.697 1386.85,920.988 1390.1,924.276 1393.34,927.559 1396.58,930.839 1399.82,934.116 1403.07,937.391 1406.31,940.664 1409.55,943.935 1412.8,947.204 1416.04,950.472 1419.28,953.74 1422.53,957.007 1425.77,960.274 1429.01,963.541 1432.25,966.808 1435.5,970.075 1438.74,973.344 1441.98,976.613 1445.23,979.884 1448.47,983.155 1451.71,986.428 1454.96,989.703 1458.2,992.979 1461.44,996.257 1464.68,999.537 1467.93,1002.82 1471.17,1006.1 1474.41,1009.39 1477.66,1012.67 1480.9,1015.96 1484.14,1019.25 1487.39,1022.55 1490.63,1025.84 1493.87,1029.14 1497.11,1032.43 1500.36,1035.73 1503.6,1039.02 1506.84,1042.3 1510.09,1045.57 1513.33,1048.83 1516.57,1052.07 1519.82,1055.29 1523.06,1058.49 1526.3,1061.66 1529.55,1064.8 1532.79,1067.92 1536.03,1071.02 1539.27,1074.1 1542.52,1077.16 1545.76,1080.2 1549,1083.22 1552.25,1086.23 1555.49,1089.23 1558.73,1092.21 1561.98,1095.17 1565.22,1098.13 1568.46,1101.08 1571.7,1104.01 1574.95,1106.94 1578.19,1109.87 1581.43,1112.78 1584.68,1115.7 1587.92,1118.6 1591.16,1121.51 1594.41,1124.41 1597.65,1127.3 1600.89,1130.19 1604.13,1133.08 1607.38,1135.96 1610.62,1138.84 1613.86,1141.72 1617.11,1144.59 1620.35,1147.46 1623.59,1150.32 1626.84,1153.18 1630.08,1156.04 1633.32,1158.89 1636.57,1161.74 1639.81,1164.58 1643.05,1167.42 1646.29,1170.25 1649.54,1173.07 1652.78,1175.89 1656.02,1178.7 1659.27,1181.51 1662.51,1184.3 1665.75,1187.09 1669,1189.87 1672.24,1192.64 1675.48,1195.4 1678.72,1198.14 1681.97,1200.88 1685.21,1203.6 1688.45,1206.31 1691.7,1209 1694.94,1211.68 1698.18,1214.34 1701.43,1216.98 1704.67,1219.6 1707.91,1222.2 1711.15,1224.78 1714.4,1227.34 1717.64,1229.87 1720.88,1232.38 1724.13,1234.86 1727.37,1237.31 1730.61,1239.73 1733.86,1242.12 1737.1,1244.48 1740.34,1246.8 1743.59,1249.08 1746.83,1251.32 1750.07,1253.53 1753.31,1255.68 1756.56,1257.8 1759.8,1259.86 1763.04,1261.88 1766.29,1263.84 1769.53,1265.75 1772.77,1267.61 1776.02,1269.4 1779.26,1271.13 1782.5,1272.79 1785.74,1274.39 1788.99,1275.92 1792.23,1277.37 1795.47,1278.75 1798.72,1280.05 1801.96,1281.27 1805.2,1282.41 1808.45,1283.46 1811.69,1284.42 1814.93,1285.29 1818.17,1286.06 1821.42,1286.74 1824.66,1287.32 1827.9,1287.79 1831.15,1288.16 1834.39,1288.42 1837.63,1288.56 1840.88,1288.58 1844.12,1288.49 1847.36,1288.27 1850.61,1287.93 1853.85,1287.48 1857.09,1286.91 1860.33,1286.22 1863.58,1285.41 1866.82,1284.49 1870.06,1283.45 1873.31,1282.31 1876.55,1281.05 1879.79,1279.69 1883.04,1278.23 1886.28,1276.67 1889.52,1275.02 1892.76,1273.27 1896.01,1271.44 1899.25,1269.53 1902.49,1267.54 1905.74,1265.47 1908.98,1263.32 1912.22,1261.11 1915.47,1258.83 1918.71,1256.48 1921.95,1254.07 1925.19,1251.6 1928.44,1249.08 1931.68,1246.52 1934.92,1243.93 1938.17,1241.3 1941.41,1238.63 1944.65,1235.93 1947.9,1233.19 1951.14,1230.42 1954.38,1227.62 1957.63,1224.78 1960.87,1221.91 1964.11,1219.01 1967.35,1216.08 1970.6,1213.11 1973.84,1210.11 1977.08,1207.08 1980.33,1204.01 1983.57,1200.91 1986.81,1197.78 1990.06,1194.61 1993.3,1191.41 1996.54,1188.17 1999.78,1184.9 2003.03,1181.59 2006.27,1178.25 2009.51,1174.87 2012.76,1171.45 2016,1167.99 2019.24,1164.49 2022.49,1160.95 2025.73,1157.37 2028.97,1153.75 2032.21,1150.08 2035.46,1146.37 2038.7,1142.62 2041.94,1138.81 2045.19,1134.96 2048.43,1131.05 2051.67,1127.1 2054.92,1123.09 2058.16,1119.03 2061.4,1114.91 2064.65,1110.73 2067.89,1106.49 2071.13,1102.19 2074.37,1097.83 2077.62,1093.4 2080.86,1088.9 2084.1,1084.34 2087.35,1079.72 2090.59,1075.04 2093.83,1070.3 2097.08,1065.51 2100.32,1060.68 2103.56,1055.8 2106.8,1050.88 2110.05,1045.92 2113.29,1040.92 2116.53,1035.88 2119.78,1030.82 2123.02,1025.73 2126.26,1020.62 2129.51,1015.48 2132.75,1010.32 2135.99,1005.14 2139.23,999.953 2142.48,994.751 2145.72,989.539 2148.96,984.319 2152.21,979.095 2155.45,973.869 2158.69,968.644 2161.94,963.42 2165.18,958.203 2168.42,952.994 2171.67,947.8 2174.91,942.622 2178.15,937.467 2181.39,932.338 2184.64,927.239 2187.88,922.174 2191.12,917.148 2194.37,912.165 2197.61,907.229 2200.85,902.344 2204.1,897.515 2207.34,892.745 2210.58,888.04 2213.82,883.402 2217.07,878.838 2220.31,874.351 2223.55,869.945 2226.8,865.625 2230.04,861.396 2233.28,857.262 2236.53,853.226 2239.77,849.289 2243.01,845.45 2246.25,841.708 2249.5,838.061 2252.74,834.51 2255.98,831.053 2259.23,827.69 2262.47,824.419 2265.71,821.241 2268.96,818.155 2272.2,815.16 2275.44,812.254 2278.69,809.435 2281.93,806.701 2285.17,804.049 2288.41,801.478 2291.66,798.986 "/>
<path clip-path="url(#clip060)" d="M1953.46 302.578 L2280.8 302.578 L2280.8 95.2176 L1953.46 95.2176  Z" fill="#ffffff" fill-rule="evenodd" fill-opacity="1"/>
<polyline clip-path="url(#clip060)" style="stroke:#000000; stroke-linecap:round; stroke-linejoin:round; stroke-width:4; stroke-opacity:1; fill:none" points="1953.46,302.578 2280.8,302.578 2280.8,95.2176 1953.46,95.2176 1953.46,302.578 "/>
<polyline clip-path="url(#clip060)" style="stroke:#009af9; stroke-linecap:round; stroke-linejoin:round; stroke-width:4; stroke-opacity:1; fill:none" points="1977.44,147.058 2121.36,147.058 "/>
<path clip-path="url(#clip060)" d="M2152.76 131.051 L2152.76 138.412 L2161.53 138.412 L2161.53 141.722 L2152.76 141.722 L2152.76 155.796 Q2152.76 158.967 2153.61 159.87 Q2154.49 160.773 2157.16 160.773 L2161.53 160.773 L2161.53 164.338 L2157.16 164.338 Q2152.23 164.338 2150.35 162.509 Q2148.48 160.657 2148.48 155.796 L2148.48 141.722 L2145.35 141.722 L2145.35 138.412 L2148.48 138.412 L2148.48 131.051 L2152.76 131.051 Z" fill="#000000" fill-rule="nonzero" fill-opacity="1" /><path clip-path="url(#clip060)" d="M2182.16 142.393 Q2181.44 141.977 2180.58 141.791 Q2179.75 141.583 2178.73 141.583 Q2175.12 141.583 2173.17 143.944 Q2171.25 146.282 2171.25 150.68 L2171.25 164.338 L2166.97 164.338 L2166.97 138.412 L2171.25 138.412 L2171.25 142.44 Q2172.6 140.078 2174.75 138.944 Q2176.9 137.787 2179.98 137.787 Q2180.42 137.787 2180.95 137.856 Q2181.48 137.903 2182.13 138.018 L2182.16 142.393 Z" fill="#000000" fill-rule="nonzero" fill-opacity="1" /><path clip-path="url(#clip060)" d="M2186.18 154.106 L2186.18 138.412 L2190.44 138.412 L2190.44 153.944 Q2190.44 157.625 2191.88 159.476 Q2193.31 161.305 2196.18 161.305 Q2199.63 161.305 2201.62 159.106 Q2203.64 156.907 2203.64 153.111 L2203.64 138.412 L2207.9 138.412 L2207.9 164.338 L2203.64 164.338 L2203.64 160.356 Q2202.09 162.717 2200.03 163.875 Q2197.99 165.009 2195.28 165.009 Q2190.81 165.009 2188.5 162.231 Q2186.18 159.453 2186.18 154.106 M2196.9 137.787 L2196.9 137.787 Z" fill="#000000" fill-rule="nonzero" fill-opacity="1" /><path clip-path="url(#clip060)" d="M2220.88 131.051 L2220.88 138.412 L2229.66 138.412 L2229.66 141.722 L2220.88 141.722 L2220.88 155.796 Q2220.88 158.967 2221.74 159.87 Q2222.62 160.773 2225.28 160.773 L2229.66 160.773 L2229.66 164.338 L2225.28 164.338 Q2220.35 164.338 2218.48 162.509 Q2216.6 160.657 2216.6 155.796 L2216.6 141.722 L2213.48 141.722 L2213.48 138.412 L2216.6 138.412 L2216.6 131.051 L2220.88 131.051 Z" fill="#000000" fill-rule="nonzero" fill-opacity="1" /><path clip-path="url(#clip060)" d="M2256.81 148.689 L2256.81 164.338 L2252.55 164.338 L2252.55 148.828 Q2252.55 145.148 2251.11 143.319 Q2249.68 141.49 2246.81 141.49 Q2243.36 141.49 2241.37 143.69 Q2239.38 145.889 2239.38 149.685 L2239.38 164.338 L2235.1 164.338 L2235.1 128.319 L2239.38 128.319 L2239.38 142.44 Q2240.91 140.102 2242.97 138.944 Q2245.05 137.787 2247.76 137.787 Q2252.23 137.787 2254.52 140.565 Q2256.81 143.319 2256.81 148.689 Z" fill="#000000" fill-rule="nonzero" fill-opacity="1" /><circle clip-path="url(#clip060)" cx="2049.4" cy="198.898" r="20.48" fill="#e26f46" fill-rule="evenodd" fill-opacity="1" stroke="#000000" stroke-opacity="1" stroke-width="4.55111"/>
<path clip-path="url(#clip060)" d="M2164.26 194.187 L2164.26 180.159 L2168.52 180.159 L2168.52 216.178 L2164.26 216.178 L2164.26 212.289 Q2162.92 214.603 2160.86 215.738 Q2158.82 216.849 2155.95 216.849 Q2151.25 216.849 2148.29 213.099 Q2145.35 209.349 2145.35 203.238 Q2145.35 197.127 2148.29 193.377 Q2151.25 189.627 2155.95 189.627 Q2158.82 189.627 2160.86 190.761 Q2162.92 191.872 2164.26 194.187 M2149.75 203.238 Q2149.75 207.937 2151.67 210.622 Q2153.61 213.284 2156.99 213.284 Q2160.37 213.284 2162.32 210.622 Q2164.26 207.937 2164.26 203.238 Q2164.26 198.539 2162.32 195.877 Q2160.37 193.192 2156.99 193.192 Q2153.61 193.192 2151.67 195.877 Q2149.75 198.539 2149.75 203.238 Z" fill="#000000" fill-rule="nonzero" fill-opacity="1" /><path clip-path="url(#clip060)" d="M2189.08 203.145 Q2183.92 203.145 2181.92 204.326 Q2179.93 205.506 2179.93 208.354 Q2179.93 210.622 2181.42 211.965 Q2182.92 213.284 2185.49 213.284 Q2189.03 213.284 2191.16 210.784 Q2193.31 208.261 2193.31 204.094 L2193.31 203.145 L2189.08 203.145 M2197.57 201.386 L2197.57 216.178 L2193.31 216.178 L2193.31 212.242 Q2191.85 214.603 2189.68 215.738 Q2187.5 216.849 2184.36 216.849 Q2180.37 216.849 2178.01 214.627 Q2175.67 212.381 2175.67 208.631 Q2175.67 204.256 2178.59 202.034 Q2181.53 199.812 2187.34 199.812 L2193.31 199.812 L2193.31 199.395 Q2193.31 196.455 2191.37 194.858 Q2189.45 193.238 2185.95 193.238 Q2183.73 193.238 2181.62 193.77 Q2179.52 194.303 2177.57 195.367 L2177.57 191.432 Q2179.91 190.53 2182.11 190.09 Q2184.31 189.627 2186.39 189.627 Q2192.02 189.627 2194.79 192.543 Q2197.57 195.46 2197.57 201.386 Z" fill="#000000" fill-rule="nonzero" fill-opacity="1" /><path clip-path="url(#clip060)" d="M2210.56 182.891 L2210.56 190.252 L2219.33 190.252 L2219.33 193.562 L2210.56 193.562 L2210.56 207.636 Q2210.56 210.807 2211.42 211.71 Q2212.29 212.613 2214.96 212.613 L2219.33 212.613 L2219.33 216.178 L2214.96 216.178 Q2210.03 216.178 2208.15 214.349 Q2206.28 212.497 2206.28 207.636 L2206.28 193.562 L2203.15 193.562 L2203.15 190.252 L2206.28 190.252 L2206.28 182.891 L2210.56 182.891 Z" fill="#000000" fill-rule="nonzero" fill-opacity="1" /><path clip-path="url(#clip060)" d="M2236.72 203.145 Q2231.55 203.145 2229.56 204.326 Q2227.57 205.506 2227.57 208.354 Q2227.57 210.622 2229.05 211.965 Q2230.56 213.284 2233.13 213.284 Q2236.67 213.284 2238.8 210.784 Q2240.95 208.261 2240.95 204.094 L2240.95 203.145 L2236.72 203.145 M2245.21 201.386 L2245.21 216.178 L2240.95 216.178 L2240.95 212.242 Q2239.49 214.603 2237.32 215.738 Q2235.14 216.849 2231.99 216.849 Q2228.01 216.849 2225.65 214.627 Q2223.31 212.381 2223.31 208.631 Q2223.31 204.256 2226.23 202.034 Q2229.17 199.812 2234.98 199.812 L2240.95 199.812 L2240.95 199.395 Q2240.95 196.455 2239.01 194.858 Q2237.09 193.238 2233.59 193.238 Q2231.37 193.238 2229.26 193.77 Q2227.16 194.303 2225.21 195.367 L2225.21 191.432 Q2227.55 190.53 2229.75 190.09 Q2231.95 189.627 2234.03 189.627 Q2239.66 189.627 2242.43 192.543 Q2245.21 195.46 2245.21 201.386 Z" fill="#000000" fill-rule="nonzero" fill-opacity="1" /><polyline clip-path="url(#clip060)" style="stroke:#3da44d; stroke-linecap:round; stroke-linejoin:round; stroke-width:8; stroke-opacity:1; fill:none" points="1977.44,250.738 2121.36,250.738 "/>
<path clip-path="url(#clip060)" d="M2170.91 263.087 L2170.91 253.805 L2163.27 253.805 L2163.27 249.962 L2175.54 249.962 L2175.54 264.8 Q2172.83 266.721 2169.56 267.717 Q2166.3 268.689 2162.6 268.689 Q2154.49 268.689 2149.91 263.967 Q2145.35 259.221 2145.35 250.772 Q2145.35 242.3 2149.91 237.578 Q2154.49 232.833 2162.6 232.833 Q2165.98 232.833 2169.01 233.666 Q2172.06 234.499 2174.63 236.12 L2174.63 241.096 Q2172.04 238.897 2169.12 237.786 Q2166.21 236.675 2162.99 236.675 Q2156.65 236.675 2153.45 240.217 Q2150.28 243.758 2150.28 250.772 Q2150.28 257.763 2153.45 261.305 Q2156.65 264.846 2162.99 264.846 Q2165.47 264.846 2167.41 264.43 Q2169.36 263.99 2170.91 263.087 Z" fill="#000000" fill-rule="nonzero" fill-opacity="1" /><path clip-path="url(#clip060)" d="M2188.75 237.3 L2188.75 250.286 L2194.63 250.286 Q2197.9 250.286 2199.68 248.596 Q2201.46 246.907 2201.46 243.782 Q2201.46 240.68 2199.68 238.99 Q2197.9 237.3 2194.63 237.3 L2188.75 237.3 M2184.08 233.458 L2194.63 233.458 Q2200.44 233.458 2203.41 236.096 Q2206.39 238.712 2206.39 243.782 Q2206.39 248.897 2203.41 251.513 Q2200.44 254.129 2194.63 254.129 L2188.75 254.129 L2188.75 268.018 L2184.08 268.018 L2184.08 233.458 Z" fill="#000000" fill-rule="nonzero" fill-opacity="1" /></svg>
