<?xml version="1.0" encoding="utf-8"?>
<svg xmlns="http://www.w3.org/2000/svg" xmlns:xlink="http://www.w3.org/1999/xlink" width="600" height="400" viewBox="0 0 2400 1600">
<defs>
  <clipPath id="clip200">
    <rect x="0" y="0" width="2400" height="1600"/>
  </clipPath>
</defs>
<path clip-path="url(#clip200)" d="M0 1600 L2400 1600 L2400 0 L0 0  Z" fill="#ffffff" fill-rule="evenodd" fill-opacity="1"/>
<defs>
  <clipPath id="clip201">
    <rect x="480" y="0" width="1681" height="1600"/>
  </clipPath>
</defs>
<path clip-path="url(#clip200)" d="M193.936 1486.45 L2352.76 1486.45 L2352.76 47.2441 L193.936 47.2441  Z" fill="#ffffff" fill-rule="evenodd" fill-opacity="1"/>
<defs>
  <clipPath id="clip202">
    <rect x="193" y="47" width="2160" height="1440"/>
  </clipPath>
</defs>
<polyline clip-path="url(#clip202)" style="stroke:#000000; stroke-linecap:round; stroke-linejoin:round; stroke-width:2; stroke-opacity:0.1; fill:none" points="255.035,1486.45 255.035,47.2441 "/>
<polyline clip-path="url(#clip202)" style="stroke:#000000; stroke-linecap:round; stroke-linejoin:round; stroke-width:2; stroke-opacity:0.1; fill:none" points="579.338,1486.45 579.338,47.2441 "/>
<polyline clip-path="url(#clip202)" style="stroke:#000000; stroke-linecap:round; stroke-linejoin:round; stroke-width:2; stroke-opacity:0.1; fill:none" points="903.641,1486.45 903.641,47.2441 "/>
<polyline clip-path="url(#clip202)" style="stroke:#000000; stroke-linecap:round; stroke-linejoin:round; stroke-width:2; stroke-opacity:0.1; fill:none" points="1227.94,1486.45 1227.94,47.2441 "/>
<polyline clip-path="url(#clip202)" style="stroke:#000000; stroke-linecap:round; stroke-linejoin:round; stroke-width:2; stroke-opacity:0.1; fill:none" points="1552.25,1486.45 1552.25,47.2441 "/>
<polyline clip-path="url(#clip202)" style="stroke:#000000; stroke-linecap:round; stroke-linejoin:round; stroke-width:2; stroke-opacity:0.1; fill:none" points="1876.55,1486.45 1876.55,47.2441 "/>
<polyline clip-path="url(#clip202)" style="stroke:#000000; stroke-linecap:round; stroke-linejoin:round; stroke-width:2; stroke-opacity:0.1; fill:none" points="2200.85,1486.45 2200.85,47.2441 "/>
<polyline clip-path="url(#clip202)" style="stroke:#000000; stroke-linecap:round; stroke-linejoin:round; stroke-width:2; stroke-opacity:0.1; fill:none" points="193.936,1259.1 2352.76,1259.1 "/>
<polyline clip-path="url(#clip202)" style="stroke:#000000; stroke-linecap:round; stroke-linejoin:round; stroke-width:2; stroke-opacity:0.1; fill:none" points="193.936,994.345 2352.76,994.345 "/>
<polyline clip-path="url(#clip202)" style="stroke:#000000; stroke-linecap:round; stroke-linejoin:round; stroke-width:2; stroke-opacity:0.1; fill:none" points="193.936,729.587 2352.76,729.587 "/>
<polyline clip-path="url(#clip202)" style="stroke:#000000; stroke-linecap:round; stroke-linejoin:round; stroke-width:2; stroke-opacity:0.1; fill:none" points="193.936,464.829 2352.76,464.829 "/>
<polyline clip-path="url(#clip202)" style="stroke:#000000; stroke-linecap:round; stroke-linejoin:round; stroke-width:2; stroke-opacity:0.1; fill:none" points="193.936,200.071 2352.76,200.071 "/>
<polyline clip-path="url(#clip200)" style="stroke:#000000; stroke-linecap:round; stroke-linejoin:round; stroke-width:4; stroke-opacity:1; fill:none" points="193.936,1486.45 2352.76,1486.45 "/>
<polyline clip-path="url(#clip200)" style="stroke:#000000; stroke-linecap:round; stroke-linejoin:round; stroke-width:4; stroke-opacity:1; fill:none" points="255.035,1486.45 255.035,1467.55 "/>
<polyline clip-path="url(#clip200)" style="stroke:#000000; stroke-linecap:round; stroke-linejoin:round; stroke-width:4; stroke-opacity:1; fill:none" points="579.338,1486.45 579.338,1467.55 "/>
<polyline clip-path="url(#clip200)" style="stroke:#000000; stroke-linecap:round; stroke-linejoin:round; stroke-width:4; stroke-opacity:1; fill:none" points="903.641,1486.45 903.641,1467.55 "/>
<polyline clip-path="url(#clip200)" style="stroke:#000000; stroke-linecap:round; stroke-linejoin:round; stroke-width:4; stroke-opacity:1; fill:none" points="1227.94,1486.45 1227.94,1467.55 "/>
<polyline clip-path="url(#clip200)" style="stroke:#000000; stroke-linecap:round; stroke-linejoin:round; stroke-width:4; stroke-opacity:1; fill:none" points="1552.25,1486.45 1552.25,1467.55 "/>
<polyline clip-path="url(#clip200)" style="stroke:#000000; stroke-linecap:round; stroke-linejoin:round; stroke-width:4; stroke-opacity:1; fill:none" points="1876.55,1486.45 1876.55,1467.55 "/>
<polyline clip-path="url(#clip200)" style="stroke:#000000; stroke-linecap:round; stroke-linejoin:round; stroke-width:4; stroke-opacity:1; fill:none" points="2200.85,1486.45 2200.85,1467.55 "/>
<path clip-path="url(#clip200)" d="M255.035 1517.37 Q251.424 1517.37 249.595 1520.93 Q247.789 1524.47 247.789 1531.6 Q247.789 1538.71 249.595 1542.27 Q251.424 1545.82 255.035 1545.82 Q258.669 1545.82 260.474 1542.27 Q262.303 1538.71 262.303 1531.6 Q262.303 1524.47 260.474 1520.93 Q258.669 1517.37 255.035 1517.37 M255.035 1513.66 Q260.845 1513.66 263.9 1518.27 Q266.979 1522.85 266.979 1531.6 Q266.979 1540.33 263.9 1544.94 Q260.845 1549.52 255.035 1549.52 Q249.225 1549.52 246.146 1544.94 Q243.09 1540.33 243.09 1531.6 Q243.09 1522.85 246.146 1518.27 Q249.225 1513.66 255.035 1513.66 Z" fill="#000000" fill-rule="nonzero" fill-opacity="1" /><path clip-path="url(#clip200)" d="M569.72 1544.91 L577.358 1544.91 L577.358 1518.55 L569.048 1520.21 L569.048 1515.95 L577.312 1514.29 L581.988 1514.29 L581.988 1544.91 L589.627 1544.91 L589.627 1548.85 L569.72 1548.85 L569.72 1544.91 Z" fill="#000000" fill-rule="nonzero" fill-opacity="1" /><path clip-path="url(#clip200)" d="M898.293 1544.91 L914.613 1544.91 L914.613 1548.85 L892.668 1548.85 L892.668 1544.91 Q895.33 1542.16 899.914 1537.53 Q904.52 1532.88 905.701 1531.53 Q907.946 1529.01 908.826 1527.27 Q909.729 1525.51 909.729 1523.82 Q909.729 1521.07 907.784 1519.33 Q905.863 1517.6 902.761 1517.6 Q900.562 1517.6 898.108 1518.36 Q895.678 1519.13 892.9 1520.68 L892.9 1515.95 Q895.724 1514.82 898.178 1514.24 Q900.631 1513.66 902.668 1513.66 Q908.039 1513.66 911.233 1516.35 Q914.428 1519.03 914.428 1523.52 Q914.428 1525.65 913.617 1527.57 Q912.83 1529.47 910.724 1532.07 Q910.145 1532.74 907.043 1535.95 Q903.942 1539.15 898.293 1544.91 Z" fill="#000000" fill-rule="nonzero" fill-opacity="1" /><path clip-path="url(#clip200)" d="M1232.19 1530.21 Q1235.55 1530.93 1237.42 1533.2 Q1239.32 1535.47 1239.32 1538.8 Q1239.32 1543.92 1235.8 1546.72 Q1232.28 1549.52 1225.8 1549.52 Q1223.63 1549.52 1221.31 1549.08 Q1219.02 1548.66 1216.57 1547.81 L1216.57 1543.29 Q1218.51 1544.43 1220.83 1545.01 Q1223.14 1545.58 1225.66 1545.58 Q1230.06 1545.58 1232.35 1543.85 Q1234.67 1542.11 1234.67 1538.8 Q1234.67 1535.75 1232.52 1534.03 Q1230.39 1532.3 1226.57 1532.3 L1222.54 1532.3 L1222.54 1528.45 L1226.75 1528.45 Q1230.2 1528.45 1232.03 1527.09 Q1233.86 1525.7 1233.86 1523.11 Q1233.86 1520.45 1231.96 1519.03 Q1230.08 1517.6 1226.57 1517.6 Q1224.64 1517.6 1222.45 1518.01 Q1220.25 1518.43 1217.61 1519.31 L1217.61 1515.14 Q1220.27 1514.4 1222.58 1514.03 Q1224.92 1513.66 1226.98 1513.66 Q1232.31 1513.66 1235.41 1516.09 Q1238.51 1518.5 1238.51 1522.62 Q1238.51 1525.49 1236.87 1527.48 Q1235.22 1529.45 1232.19 1530.21 Z" fill="#000000" fill-rule="nonzero" fill-opacity="1" /><path clip-path="url(#clip200)" d="M1555.26 1518.36 L1543.45 1536.81 L1555.26 1536.81 L1555.26 1518.36 M1554.03 1514.29 L1559.91 1514.29 L1559.91 1536.81 L1564.84 1536.81 L1564.84 1540.7 L1559.91 1540.7 L1559.91 1548.85 L1555.26 1548.85 L1555.26 1540.7 L1539.65 1540.7 L1539.65 1536.19 L1554.03 1514.29 Z" fill="#000000" fill-rule="nonzero" fill-opacity="1" /><path clip-path="url(#clip200)" d="M1866.83 1514.29 L1885.18 1514.29 L1885.18 1518.22 L1871.11 1518.22 L1871.11 1526.7 Q1872.13 1526.35 1873.15 1526.19 Q1874.17 1526 1875.18 1526 Q1880.97 1526 1884.35 1529.17 Q1887.73 1532.34 1887.73 1537.76 Q1887.73 1543.34 1884.26 1546.44 Q1880.79 1549.52 1874.47 1549.52 Q1872.29 1549.52 1870.02 1549.15 Q1867.78 1548.78 1865.37 1548.04 L1865.37 1543.34 Q1867.45 1544.47 1869.67 1545.03 Q1871.9 1545.58 1874.37 1545.58 Q1878.38 1545.58 1880.72 1543.48 Q1883.05 1541.37 1883.05 1537.76 Q1883.05 1534.15 1880.72 1532.04 Q1878.38 1529.94 1874.37 1529.94 Q1872.5 1529.94 1870.62 1530.35 Q1868.77 1530.77 1866.83 1531.65 L1866.83 1514.29 Z" fill="#000000" fill-rule="nonzero" fill-opacity="1" /><path clip-path="url(#clip200)" d="M2201.26 1529.7 Q2198.11 1529.7 2196.26 1531.86 Q2194.43 1534.01 2194.43 1537.76 Q2194.43 1541.49 2196.26 1543.66 Q2198.11 1545.82 2201.26 1545.82 Q2204.41 1545.82 2206.23 1543.66 Q2208.09 1541.49 2208.09 1537.76 Q2208.09 1534.01 2206.23 1531.86 Q2204.41 1529.7 2201.26 1529.7 M2210.54 1515.05 L2210.54 1519.31 Q2208.78 1518.48 2206.98 1518.04 Q2205.19 1517.6 2203.43 1517.6 Q2198.8 1517.6 2196.35 1520.72 Q2193.92 1523.85 2193.57 1530.17 Q2194.94 1528.15 2197 1527.09 Q2199.06 1526 2201.54 1526 Q2206.74 1526 2209.75 1529.17 Q2212.79 1532.32 2212.79 1537.76 Q2212.79 1543.08 2209.64 1546.3 Q2206.49 1549.52 2201.26 1549.52 Q2195.26 1549.52 2192.09 1544.94 Q2188.92 1540.33 2188.92 1531.6 Q2188.92 1523.41 2192.81 1518.55 Q2196.7 1513.66 2203.25 1513.66 Q2205.01 1513.66 2206.79 1514.01 Q2208.6 1514.36 2210.54 1515.05 Z" fill="#000000" fill-rule="nonzero" fill-opacity="1" /><polyline clip-path="url(#clip200)" style="stroke:#000000; stroke-linecap:round; stroke-linejoin:round; stroke-width:4; stroke-opacity:1; fill:none" points="193.936,1486.45 193.936,47.2441 "/>
<polyline clip-path="url(#clip200)" style="stroke:#000000; stroke-linecap:round; stroke-linejoin:round; stroke-width:4; stroke-opacity:1; fill:none" points="193.936,1259.1 212.834,1259.1 "/>
<polyline clip-path="url(#clip200)" style="stroke:#000000; stroke-linecap:round; stroke-linejoin:round; stroke-width:4; stroke-opacity:1; fill:none" points="193.936,994.345 212.834,994.345 "/>
<polyline clip-path="url(#clip200)" style="stroke:#000000; stroke-linecap:round; stroke-linejoin:round; stroke-width:4; stroke-opacity:1; fill:none" points="193.936,729.587 212.834,729.587 "/>
<polyline clip-path="url(#clip200)" style="stroke:#000000; stroke-linecap:round; stroke-linejoin:round; stroke-width:4; stroke-opacity:1; fill:none" points="193.936,464.829 212.834,464.829 "/>
<polyline clip-path="url(#clip200)" style="stroke:#000000; stroke-linecap:round; stroke-linejoin:round; stroke-width:4; stroke-opacity:1; fill:none" points="193.936,200.071 212.834,200.071 "/>
<path clip-path="url(#clip200)" d="M50.9921 1259.55 L80.6679 1259.55 L80.6679 1263.49 L50.9921 1263.49 L50.9921 1259.55 Z" fill="#000000" fill-rule="nonzero" fill-opacity="1" /><path clip-path="url(#clip200)" d="M91.5706 1272.45 L99.2095 1272.45 L99.2095 1246.08 L90.8993 1247.75 L90.8993 1243.49 L99.1632 1241.82 L103.839 1241.82 L103.839 1272.45 L111.478 1272.45 L111.478 1276.38 L91.5706 1276.38 L91.5706 1272.45 Z" fill="#000000" fill-rule="nonzero" fill-opacity="1" /><path clip-path="url(#clip200)" d="M120.922 1270.5 L125.807 1270.5 L125.807 1276.38 L120.922 1276.38 L120.922 1270.5 Z" fill="#000000" fill-rule="nonzero" fill-opacity="1" /><path clip-path="url(#clip200)" d="M145.992 1244.9 Q142.381 1244.9 140.552 1248.47 Q138.746 1252.01 138.746 1259.14 Q138.746 1266.24 140.552 1269.81 Q142.381 1273.35 145.992 1273.35 Q149.626 1273.35 151.431 1269.81 Q153.26 1266.24 153.26 1259.14 Q153.26 1252.01 151.431 1248.47 Q149.626 1244.9 145.992 1244.9 M145.992 1241.2 Q151.802 1241.2 154.857 1245.8 Q157.936 1250.39 157.936 1259.14 Q157.936 1267.86 154.857 1272.47 Q151.802 1277.05 145.992 1277.05 Q140.181 1277.05 137.103 1272.47 Q134.047 1267.86 134.047 1259.14 Q134.047 1250.39 137.103 1245.8 Q140.181 1241.2 145.992 1241.2 Z" fill="#000000" fill-rule="nonzero" fill-opacity="1" /><path clip-path="url(#clip200)" d="M51.9875 994.796 L81.6633 994.796 L81.6633 998.731 L51.9875 998.731 L51.9875 994.796 Z" fill="#000000" fill-rule="nonzero" fill-opacity="1" /><path clip-path="url(#clip200)" d="M101.756 980.143 Q98.1447 980.143 96.316 983.708 Q94.5104 987.25 94.5104 994.379 Q94.5104 1001.49 96.316 1005.05 Q98.1447 1008.59 101.756 1008.59 Q105.39 1008.59 107.196 1005.05 Q109.024 1001.49 109.024 994.379 Q109.024 987.25 107.196 983.708 Q105.39 980.143 101.756 980.143 M101.756 976.44 Q107.566 976.44 110.621 981.046 Q113.7 985.629 113.7 994.379 Q113.7 1003.11 110.621 1007.71 Q107.566 1012.3 101.756 1012.3 Q95.9456 1012.3 92.8669 1007.71 Q89.8114 1003.11 89.8114 994.379 Q89.8114 985.629 92.8669 981.046 Q95.9456 976.44 101.756 976.44 Z" fill="#000000" fill-rule="nonzero" fill-opacity="1" /><path clip-path="url(#clip200)" d="M121.918 1005.75 L126.802 1005.75 L126.802 1011.62 L121.918 1011.62 L121.918 1005.75 Z" fill="#000000" fill-rule="nonzero" fill-opacity="1" /><path clip-path="url(#clip200)" d="M137.033 977.065 L155.39 977.065 L155.39 981 L141.316 981 L141.316 989.472 Q142.334 989.125 143.353 988.963 Q144.371 988.778 145.39 988.778 Q151.177 988.778 154.556 991.949 Q157.936 995.12 157.936 1000.54 Q157.936 1006.12 154.464 1009.22 Q150.992 1012.3 144.672 1012.3 Q142.496 1012.3 140.228 1011.93 Q137.982 1011.56 135.575 1010.81 L135.575 1006.12 Q137.658 1007.25 139.881 1007.81 Q142.103 1008.36 144.58 1008.36 Q148.584 1008.36 150.922 1006.25 Q153.26 1004.15 153.26 1000.54 Q153.26 996.926 150.922 994.819 Q148.584 992.713 144.58 992.713 Q142.705 992.713 140.83 993.129 Q138.978 993.546 137.033 994.426 L137.033 977.065 Z" fill="#000000" fill-rule="nonzero" fill-opacity="1" /><path clip-path="url(#clip200)" d="M100.76 715.385 Q97.1493 715.385 95.3206 718.95 Q93.515 722.492 93.515 729.621 Q93.515 736.728 95.3206 740.293 Q97.1493 743.834 100.76 743.834 Q104.395 743.834 106.2 740.293 Q108.029 736.728 108.029 729.621 Q108.029 722.492 106.2 718.95 Q104.395 715.385 100.76 715.385 M100.76 711.682 Q106.571 711.682 109.626 716.288 Q112.705 720.871 112.705 729.621 Q112.705 738.348 109.626 742.955 Q106.571 747.538 100.76 747.538 Q94.9502 747.538 91.8715 742.955 Q88.816 738.348 88.816 729.621 Q88.816 720.871 91.8715 716.288 Q94.9502 711.682 100.76 711.682 Z" fill="#000000" fill-rule="nonzero" fill-opacity="1" /><path clip-path="url(#clip200)" d="M120.922 740.987 L125.807 740.987 L125.807 746.867 L120.922 746.867 L120.922 740.987 Z" fill="#000000" fill-rule="nonzero" fill-opacity="1" /><path clip-path="url(#clip200)" d="M145.992 715.385 Q142.381 715.385 140.552 718.95 Q138.746 722.492 138.746 729.621 Q138.746 736.728 140.552 740.293 Q142.381 743.834 145.992 743.834 Q149.626 743.834 151.431 740.293 Q153.26 736.728 153.26 729.621 Q153.26 722.492 151.431 718.95 Q149.626 715.385 145.992 715.385 M145.992 711.682 Q151.802 711.682 154.857 716.288 Q157.936 720.871 157.936 729.621 Q157.936 738.348 154.857 742.955 Q151.802 747.538 145.992 747.538 Q140.181 747.538 137.103 742.955 Q134.047 738.348 134.047 729.621 Q134.047 720.871 137.103 716.288 Q140.181 711.682 145.992 711.682 Z" fill="#000000" fill-rule="nonzero" fill-opacity="1" /><path clip-path="url(#clip200)" d="M101.756 450.627 Q98.1447 450.627 96.316 454.192 Q94.5104 457.734 94.5104 464.863 Q94.5104 471.97 96.316 475.535 Q98.1447 479.076 101.756 479.076 Q105.39 479.076 107.196 475.535 Q109.024 471.97 109.024 464.863 Q109.024 457.734 107.196 454.192 Q105.39 450.627 101.756 450.627 M101.756 446.924 Q107.566 446.924 110.621 451.53 Q113.7 456.114 113.7 464.863 Q113.7 473.59 110.621 478.197 Q107.566 482.78 101.756 482.78 Q95.9456 482.78 92.8669 478.197 Q89.8114 473.59 89.8114 464.863 Q89.8114 456.114 92.8669 451.53 Q95.9456 446.924 101.756 446.924 Z" fill="#000000" fill-rule="nonzero" fill-opacity="1" /><path clip-path="url(#clip200)" d="M121.918 476.229 L126.802 476.229 L126.802 482.109 L121.918 482.109 L121.918 476.229 Z" fill="#000000" fill-rule="nonzero" fill-opacity="1" /><path clip-path="url(#clip200)" d="M137.033 447.549 L155.39 447.549 L155.39 451.484 L141.316 451.484 L141.316 459.956 Q142.334 459.609 143.353 459.447 Q144.371 459.262 145.39 459.262 Q151.177 459.262 154.556 462.433 Q157.936 465.604 157.936 471.021 Q157.936 476.6 154.464 479.701 Q150.992 482.78 144.672 482.78 Q142.496 482.78 140.228 482.41 Q137.982 482.039 135.575 481.299 L135.575 476.6 Q137.658 477.734 139.881 478.289 Q142.103 478.845 144.58 478.845 Q148.584 478.845 150.922 476.738 Q153.26 474.632 153.26 471.021 Q153.26 467.41 150.922 465.303 Q148.584 463.197 144.58 463.197 Q142.705 463.197 140.83 463.613 Q138.978 464.03 137.033 464.91 L137.033 447.549 Z" fill="#000000" fill-rule="nonzero" fill-opacity="1" /><path clip-path="url(#clip200)" d="M91.5706 213.416 L99.2095 213.416 L99.2095 187.05 L90.8993 188.717 L90.8993 184.457 L99.1632 182.791 L103.839 182.791 L103.839 213.416 L111.478 213.416 L111.478 217.351 L91.5706 217.351 L91.5706 213.416 Z" fill="#000000" fill-rule="nonzero" fill-opacity="1" /><path clip-path="url(#clip200)" d="M120.922 211.471 L125.807 211.471 L125.807 217.351 L120.922 217.351 L120.922 211.471 Z" fill="#000000" fill-rule="nonzero" fill-opacity="1" /><path clip-path="url(#clip200)" d="M145.992 185.87 Q142.381 185.87 140.552 189.434 Q138.746 192.976 138.746 200.106 Q138.746 207.212 140.552 210.777 Q142.381 214.318 145.992 214.318 Q149.626 214.318 151.431 210.777 Q153.26 207.212 153.26 200.106 Q153.26 192.976 151.431 189.434 Q149.626 185.87 145.992 185.87 M145.992 182.166 Q151.802 182.166 154.857 186.772 Q157.936 191.356 157.936 200.106 Q157.936 208.832 154.857 213.439 Q151.802 218.022 145.992 218.022 Q140.181 218.022 137.103 213.439 Q134.047 208.832 134.047 200.106 Q134.047 191.356 137.103 186.772 Q140.181 182.166 145.992 182.166 Z" fill="#000000" fill-rule="nonzero" fill-opacity="1" /><polyline clip-path="url(#clip202)" style="stroke:#009af9; stroke-linecap:round; stroke-linejoin:round; stroke-width:4; stroke-opacity:1; fill:none" points="255.035,729.587 258.278,724.292 261.521,718.997 264.764,713.704 268.007,708.412 271.25,703.122 274.493,697.835 277.736,692.551 280.979,687.271 284.222,681.995 287.465,676.723 290.708,671.457 293.951,666.197 297.194,660.943 300.437,655.696 303.68,650.457 306.923,645.225 310.166,640.002 313.409,634.788 316.652,629.583 319.895,624.388 323.138,619.204 326.381,614.031 329.624,608.869 332.867,603.719 336.11,598.582 339.353,593.458 342.596,588.348 345.84,583.252 349.083,578.17 352.326,573.104 355.569,568.053 358.812,563.019 362.055,558.001 365.298,553 368.541,548.017 371.784,543.052 375.027,538.106 378.27,533.178 381.513,528.271 384.756,523.383 387.999,518.517 391.242,513.671 394.485,508.847 397.728,504.045 400.971,499.266 404.214,494.509 407.457,489.776 410.7,485.067 413.943,480.383 417.186,475.723 420.429,471.089 423.672,466.481 426.915,461.899 430.158,457.344 433.401,452.816 436.644,448.315 439.887,443.843 443.13,439.399 446.373,434.985 449.616,430.6 452.859,426.244 456.103,421.919 459.346,417.625 462.589,413.362 465.832,409.131 469.075,404.932 472.318,400.765 475.561,396.631 478.804,392.53 482.047,388.463 485.29,384.43 488.533,380.432 491.776,376.469 495.019,372.541 498.262,368.648 501.505,364.792 504.748,360.972 507.991,357.189 511.234,353.443 514.477,349.735 517.72,346.065 520.963,342.433 524.206,338.84 527.449,335.286 530.692,331.772 533.935,328.297 537.178,324.862 540.421,321.468 543.664,318.115 546.907,314.803 550.15,311.532 553.393,308.303 556.636,305.116 559.879,301.972 563.122,298.87 566.366,295.812 569.609,292.797 572.852,289.825 576.095,286.898 579.338,284.014 582.581,281.176 585.824,278.382 589.067,275.633 592.31,272.93 595.553,270.272 598.796,267.661 602.039,265.095 605.282,262.576 608.525,260.104 611.768,257.678 615.011,255.3 618.254,252.969 621.497,250.686 624.74,248.451 627.983,246.264 631.226,244.125 634.469,242.035 637.712,239.993 640.955,238.001 644.198,236.057 647.441,234.163 650.684,232.319 653.927,230.524 657.17,228.779 660.413,227.084 663.656,225.44 666.899,223.846 670.142,222.302 673.385,220.809 676.629,219.367 679.872,217.976 683.115,216.637 686.358,215.348 689.601,214.111 692.844,212.926 696.087,211.792 699.33,210.71 702.573,209.68 705.816,208.702 709.059,207.775 712.302,206.902 715.545,206.08 718.788,205.311 722.031,204.594 725.274,203.929 728.517,203.318 731.76,202.758 735.003,202.252 738.246,201.798 741.489,201.397 744.732,201.049 747.975,200.754 751.218,200.511 754.461,200.322 757.704,200.185 760.947,200.102 764.19,200.071 767.433,200.093 770.676,200.168 773.919,200.297 777.162,200.478 780.405,200.712 783.648,200.999 786.892,201.338 790.135,201.731 793.378,202.176 796.621,202.674 799.864,203.225 803.107,203.828 806.35,204.484 809.593,205.193 812.836,205.954 816.079,206.767 819.322,207.633 822.565,208.551 825.808,209.52 829.051,210.542 832.294,211.616 835.537,212.742 838.78,213.919 842.023,215.148 845.266,216.428 848.509,217.76 851.752,219.142 854.995,220.576 858.238,222.061 861.481,223.596 864.724,225.182 867.967,226.819 871.21,228.506 874.453,230.243 877.696,232.03 880.939,233.866 884.182,235.752 887.425,237.688 890.668,239.673 893.911,241.706 897.155,243.789 900.398,245.92 903.641,248.099 906.884,250.327 910.127,252.602 913.37,254.926 916.613,257.296 919.856,259.714 923.099,262.179 926.342,264.691 929.585,267.249 932.828,269.853 936.071,272.504 939.314,275.2 942.557,277.941 945.8,280.728 949.043,283.559 952.286,286.436 955.529,289.356 958.772,292.32 962.015,295.329 965.258,298.38 968.501,301.475 971.744,304.613 974.987,307.793 978.23,311.015 981.473,314.279 984.716,317.585 987.959,320.931 991.202,324.319 994.445,327.747 997.688,331.216 1000.93,334.724 1004.17,338.272 1007.42,341.859 1010.66,345.484 1013.9,349.148 1017.15,352.85 1020.39,356.59 1023.63,360.367 1026.88,364.181 1030.12,368.032 1033.36,371.918 1036.6,375.841 1039.85,379.798 1043.09,383.791 1046.33,387.819 1049.58,391.88 1052.82,395.975 1056.06,400.104 1059.31,404.266 1062.55,408.46 1065.79,412.686 1069.04,416.944 1072.28,421.233 1075.52,425.553 1078.76,429.904 1082.01,434.284 1085.25,438.694 1088.49,443.133 1091.74,447.601 1094.98,452.097 1098.22,456.621 1101.47,461.171 1104.71,465.749 1107.95,470.353 1111.19,474.983 1114.44,479.639 1117.68,484.32 1120.92,489.025 1124.17,493.754 1127.41,498.506 1130.65,503.282 1133.9,508.081 1137.14,512.901 1140.38,517.744 1143.62,522.607 1146.87,527.491 1150.11,532.395 1153.35,537.32 1156.6,542.263 1159.84,547.225 1163.08,552.205 1166.33,557.203 1169.57,562.218 1172.81,567.25 1176.06,572.299 1179.3,577.363 1182.54,582.442 1185.78,587.536 1189.03,592.644 1192.27,597.765 1195.51,602.9 1198.76,608.048 1202,613.208 1205.24,618.379 1208.49,623.562 1211.73,628.755 1214.97,633.958 1218.21,639.171 1221.46,644.393 1224.7,649.623 1227.94,654.861 1231.19,660.107 1234.43,665.36 1237.67,670.619 1240.92,675.884 1244.16,681.155 1247.4,686.43 1250.64,691.71 1253.89,696.993 1257.13,702.28 1260.37,707.569 1263.62,712.861 1266.86,718.154 1270.1,723.448 1273.35,728.743 1276.59,734.038 1279.83,739.333 1283.08,744.627 1286.32,749.919 1289.56,755.209 1292.8,760.497 1296.05,765.781 1299.29,771.062 1302.53,776.339 1305.78,781.611 1309.02,786.878 1312.26,792.139 1315.51,797.394 1318.75,802.642 1321.99,807.883 1325.23,813.116 1328.48,818.34 1331.72,823.556 1334.96,828.762 1338.21,833.959 1341.45,839.145 1344.69,844.32 1347.94,849.483 1351.18,854.635 1354.42,859.774 1357.66,864.9 1360.91,870.012 1364.15,875.111 1367.39,880.195 1370.64,885.263 1373.88,890.317 1377.12,895.354 1380.37,900.375 1383.61,905.378 1386.85,910.364 1390.1,915.332 1393.34,920.281 1396.58,925.212 1399.82,930.122 1403.07,935.013 1406.31,939.883 1409.55,944.732 1412.8,949.56 1416.04,954.365 1419.28,959.148 1422.53,963.908 1425.77,968.645 1429.01,973.358 1432.25,978.046 1435.5,982.71 1438.74,987.348 1441.98,991.96 1445.23,996.547 1448.47,1001.11 1451.71,1005.64 1454.96,1010.14 1458.2,1014.62 1461.44,1019.07 1464.68,1023.49 1467.93,1027.88 1471.17,1032.24 1474.41,1036.57 1477.66,1040.87 1480.9,1045.13 1484.14,1049.37 1487.39,1053.58 1490.63,1057.75 1493.87,1061.89 1497.11,1065.99 1500.36,1070.06 1503.6,1074.1 1506.84,1078.11 1510.09,1082.08 1513.33,1086.01 1516.57,1089.91 1519.82,1093.77 1523.06,1097.6 1526.3,1101.38 1529.55,1105.14 1532.79,1108.85 1536.03,1112.53 1539.27,1116.16 1542.52,1119.76 1545.76,1123.32 1549,1126.84 1552.25,1130.33 1555.49,1133.77 1558.73,1137.17 1561.98,1140.53 1565.22,1143.85 1568.46,1147.12 1571.7,1150.36 1574.95,1153.55 1578.19,1156.7 1581.43,1159.81 1584.68,1162.88 1587.92,1165.9 1591.16,1168.88 1594.41,1171.81 1597.65,1174.7 1600.89,1177.55 1604.13,1180.35 1607.38,1183.11 1610.62,1185.82 1613.86,1188.48 1617.11,1191.1 1620.35,1193.67 1623.59,1196.2 1626.84,1198.68 1630.08,1201.11 1633.32,1203.5 1636.57,1205.84 1639.81,1208.13 1643.05,1210.37 1646.29,1212.56 1649.54,1214.71 1652.78,1216.81 1656.02,1218.86 1659.27,1220.86 1662.51,1222.81 1665.75,1224.71 1669,1226.56 1672.24,1228.37 1675.48,1230.12 1678.72,1231.82 1681.97,1233.48 1685.21,1235.08 1688.45,1236.63 1691.7,1238.13 1694.94,1239.58 1698.18,1240.98 1701.43,1242.33 1704.67,1243.62 1707.91,1244.87 1711.15,1246.06 1714.4,1247.2 1717.64,1248.29 1720.88,1249.33 1724.13,1250.32 1727.37,1251.25 1730.61,1252.14 1733.86,1252.97 1737.1,1253.74 1740.34,1254.47 1743.59,1255.14 1746.83,1255.76 1750.07,1256.33 1753.31,1256.84 1756.56,1257.31 1759.8,1257.72 1763.04,1258.07 1766.29,1258.38 1769.53,1258.63 1772.77,1258.82 1776.02,1258.97 1779.26,1259.06 1782.5,1259.1 1785.74,1259.09 1788.99,1259.02 1792.23,1258.9 1795.47,1258.73 1798.72,1258.5 1801.96,1258.22 1805.2,1257.89 1808.45,1257.51 1811.69,1257.07 1814.93,1256.58 1818.17,1256.04 1821.42,1255.44 1824.66,1254.8 1827.9,1254.1 1831.15,1253.34 1834.39,1252.54 1837.63,1251.68 1840.88,1250.77 1844.12,1249.81 1847.36,1248.8 1850.61,1247.73 1853.85,1246.61 1857.09,1245.45 1860.33,1244.22 1863.58,1242.95 1866.82,1241.63 1870.06,1240.25 1873.31,1238.83 1876.55,1237.35 1879.79,1235.82 1883.04,1234.25 1886.28,1232.62 1889.52,1230.94 1892.76,1229.21 1896.01,1227.43 1899.25,1225.6 1902.49,1223.72 1905.74,1221.8 1908.98,1219.82 1912.22,1217.79 1915.47,1215.72 1918.71,1213.6 1921.95,1211.42 1925.19,1209.2 1928.44,1206.94 1931.68,1204.62 1934.92,1202.26 1938.17,1199.85 1941.41,1197.39 1944.65,1194.89 1947.9,1192.33 1951.14,1189.74 1954.38,1187.09 1957.63,1184.41 1960.87,1181.67 1964.11,1178.89 1967.35,1176.07 1970.6,1173.2 1973.84,1170.29 1977.08,1167.33 1980.33,1164.33 1983.57,1161.28 1986.81,1158.19 1990.06,1155.06 1993.3,1151.89 1996.54,1148.67 1999.78,1145.42 2003.03,1142.12 2006.27,1138.78 2009.51,1135.4 2012.76,1131.97 2016,1128.51 2019.24,1125.01 2022.49,1121.47 2025.73,1117.89 2028.97,1114.27 2032.21,1110.61 2035.46,1106.92 2038.7,1103.18 2041.94,1099.41 2045.19,1095.6 2048.43,1091.76 2051.67,1087.88 2054.92,1083.96 2058.16,1080.01 2061.4,1076.02 2064.65,1072 2067.89,1067.94 2071.13,1063.85 2074.37,1059.73 2077.62,1055.57 2080.86,1051.38 2084.1,1047.16 2087.35,1042.91 2090.59,1038.63 2093.83,1034.31 2097.08,1029.96 2100.32,1025.59 2103.56,1021.18 2106.8,1016.75 2110.05,1012.29 2113.29,1007.79 2116.53,1003.28 2119.78,998.729 2123.02,994.155 2126.26,989.555 2129.51,984.929 2132.75,980.277 2135.99,975.601 2139.23,970.9 2142.48,966.174 2145.72,961.425 2148.96,956.653 2152.21,951.858 2155.45,947.041 2158.69,942.202 2161.94,937.342 2165.18,932.461 2168.42,927.56 2171.67,922.639 2174.91,917.699 2178.15,912.74 2181.39,907.763 2184.64,902.767 2187.88,897.755 2191.12,892.726 2194.37,887.68 2197.61,882.618 2200.85,877.542 2204.1,872.45 2207.34,867.344 2210.58,862.225 2213.82,857.092 2217.07,851.946 2220.31,846.788 2223.55,841.619 2226.8,836.438 2230.04,831.246 2233.28,826.045 2236.53,820.833 2239.77,815.613 2243.01,810.384 2246.25,805.147 2249.5,799.902 2252.74,794.65 2255.98,789.392 2259.23,784.128 2262.47,778.858 2265.71,773.584 2268.96,768.305 2272.2,763.022 2275.44,757.736 2278.69,752.447 2281.93,747.156 2285.17,741.863 2288.41,736.568 2291.66,731.273 "/>
<circle clip-path="url(#clip202)" cx="255.035" cy="712.825" r="14.4" fill="#e26f46" fill-rule="evenodd" fill-opacity="1" stroke="#000000" stroke-opacity="1" stroke-width="3.2"/>
<circle clip-path="url(#clip202)" cx="475.561" cy="478.344" r="14.4" fill="#e26f46" fill-rule="evenodd" fill-opacity="1" stroke="#000000" stroke-opacity="1" stroke-width="3.2"/>
<circle clip-path="url(#clip202)" cx="1714.4" cy="1129" r="14.4" fill="#e26f46" fill-rule="evenodd" fill-opacity="1" stroke="#000000" stroke-opacity="1" stroke-width="3.2"/>
<circle clip-path="url(#clip202)" cx="1973.84" cy="1225.35" r="14.4" fill="#e26f46" fill-rule="evenodd" fill-opacity="1" stroke="#000000" stroke-opacity="1" stroke-width="3.2"/>
<circle clip-path="url(#clip202)" cx="916.613" cy="149.108" r="14.4" fill="#e26f46" fill-rule="evenodd" fill-opacity="1" stroke="#000000" stroke-opacity="1" stroke-width="3.2"/>
<circle clip-path="url(#clip202)" cx="819.322" cy="255.819" r="14.4" fill="#e26f46" fill-rule="evenodd" fill-opacity="1" stroke="#000000" stroke-opacity="1" stroke-width="3.2"/>
<circle clip-path="url(#clip202)" cx="780.405" cy="317.175" r="14.4" fill="#e26f46" fill-rule="evenodd" fill-opacity="1" stroke="#000000" stroke-opacity="1" stroke-width="3.2"/>
<circle clip-path="url(#clip202)" cx="799.864" cy="222.296" r="14.4" fill="#e26f46" fill-rule="evenodd" fill-opacity="1" stroke="#000000" stroke-opacity="1" stroke-width="3.2"/>
<circle clip-path="url(#clip202)" cx="796.621" cy="109.327" r="14.4" fill="#e26f46" fill-rule="evenodd" fill-opacity="1" stroke="#000000" stroke-opacity="1" stroke-width="3.2"/>
<circle clip-path="url(#clip202)" cx="2233.28" cy="886.992" r="14.4" fill="#e26f46" fill-rule="evenodd" fill-opacity="1" stroke="#000000" stroke-opacity="1" stroke-width="3.2"/>
<circle clip-path="url(#clip202)" cx="1023.63" cy="347.834" r="14.4" fill="#e26f46" fill-rule="evenodd" fill-opacity="1" stroke="#000000" stroke-opacity="1" stroke-width="3.2"/>
<circle clip-path="url(#clip202)" cx="1130.65" cy="619.323" r="14.4" fill="#e26f46" fill-rule="evenodd" fill-opacity="1" stroke="#000000" stroke-opacity="1" stroke-width="3.2"/>
<circle clip-path="url(#clip202)" cx="1412.8" cy="895.656" r="14.4" fill="#e26f46" fill-rule="evenodd" fill-opacity="1" stroke="#000000" stroke-opacity="1" stroke-width="3.2"/>
<circle clip-path="url(#clip202)" cx="2288.41" cy="739.724" r="14.4" fill="#e26f46" fill-rule="evenodd" fill-opacity="1" stroke="#000000" stroke-opacity="1" stroke-width="3.2"/>
<circle clip-path="url(#clip202)" cx="718.788" cy="199.9" r="14.4" fill="#e26f46" fill-rule="evenodd" fill-opacity="1" stroke="#000000" stroke-opacity="1" stroke-width="3.2"/>
<circle clip-path="url(#clip202)" cx="258.278" cy="739.712" r="14.4" fill="#e26f46" fill-rule="evenodd" fill-opacity="1" stroke="#000000" stroke-opacity="1" stroke-width="3.2"/>
<circle clip-path="url(#clip202)" cx="1724.13" cy="1367.61" r="14.4" fill="#e26f46" fill-rule="evenodd" fill-opacity="1" stroke="#000000" stroke-opacity="1" stroke-width="3.2"/>
<circle clip-path="url(#clip202)" cx="1156.6" cy="464.708" r="14.4" fill="#e26f46" fill-rule="evenodd" fill-opacity="1" stroke="#000000" stroke-opacity="1" stroke-width="3.2"/>
<circle clip-path="url(#clip202)" cx="530.692" cy="391.975" r="14.4" fill="#e26f46" fill-rule="evenodd" fill-opacity="1" stroke="#000000" stroke-opacity="1" stroke-width="3.2"/>
<circle clip-path="url(#clip202)" cx="932.828" cy="304.388" r="14.4" fill="#e26f46" fill-rule="evenodd" fill-opacity="1" stroke="#000000" stroke-opacity="1" stroke-width="3.2"/>
<path clip-path="url(#clip202)" d="M255.035 907.926 L258.278 904.961 L261.521 902.174 L264.764 899.554 L268.007 897.09 L271.25 894.767 L274.493 892.573 L277.736 890.493 L280.979 888.513 L284.222 886.62 L287.465 884.8 L290.708 883.039 L293.951 881.323 L297.194 879.641 L300.437 877.98 L303.68 876.328 L306.923 874.674 L310.166 873.008 L313.409 871.32 L316.652 869.6 L319.895 867.84 L323.138 866.033 L326.381 864.17 L329.624 862.245 L332.867 860.252 L336.11 858.186 L339.353 856.041 L342.596 853.812 L345.84 851.497 L349.083 849.091 L352.326 846.591 L355.569 843.995 L358.812 841.301 L362.055 838.507 L365.298 835.611 L368.541 832.613 L371.784 829.512 L375.027 826.309 L378.27 823.002 L381.513 819.594 L384.756 816.084 L387.999 812.475 L391.242 808.767 L394.485 804.964 L397.728 801.066 L400.971 797.078 L404.214 793.001 L407.457 788.84 L410.7 784.598 L413.943 780.28 L417.186 775.89 L420.429 771.433 L423.672 766.915 L426.915 762.34 L430.158 757.716 L433.401 753.049 L436.644 748.346 L439.887 743.614 L443.13 738.862 L446.373 734.097 L449.616 729.328 L452.859 724.564 L456.103 719.815 L459.346 715.089 L462.589 710.399 L465.832 705.753 L469.075 701.162 L472.318 696.637 L475.561 692.189 L478.804 687.827 L482.047 683.553 L485.29 679.367 L488.533 675.267 L491.776 671.255 L495.019 667.331 L498.262 663.494 L501.505 659.745 L504.748 656.085 L507.991 652.513 L511.234 649.032 L514.477 645.642 L517.72 642.345 L520.963 639.142 L524.206 636.033 L527.449 633.022 L530.692 630.11 L533.935 627.296 L537.178 624.572 L540.421 621.927 L543.664 619.35 L546.907 616.832 L550.15 614.363 L553.393 611.933 L556.636 609.532 L559.879 607.151 L563.122 604.782 L566.366 602.418 L569.609 600.049 L572.852 597.669 L576.095 595.271 L579.338 592.848 L582.581 590.395 L585.824 587.905 L589.067 585.375 L592.31 582.798 L595.553 580.171 L598.796 577.491 L602.039 574.752 L605.282 571.953 L608.525 569.09 L611.768 566.162 L615.011 563.166 L618.254 560.1 L621.497 556.964 L624.74 553.757 L627.983 550.477 L631.226 547.125 L634.469 543.7 L637.712 540.204 L640.955 536.638 L644.198 533.001 L647.441 529.296 L650.684 525.525 L653.927 521.69 L657.17 517.793 L660.413 513.838 L663.656 509.827 L666.899 505.765 L670.142 501.655 L673.385 497.503 L676.629 493.313 L679.872 489.09 L683.115 484.84 L686.358 480.57 L689.601 476.286 L692.844 471.996 L696.087 467.706 L699.33 463.426 L702.573 459.164 L705.816 454.929 L709.059 450.73 L712.302 446.578 L715.545 442.483 L718.788 438.457 L722.031 434.508 L725.274 430.639 L728.517 426.848 L731.76 423.137 L735.003 419.507 L738.246 415.958 L741.489 412.494 L744.732 409.117 L747.975 405.831 L751.218 402.642 L754.461 399.554 L757.704 396.576 L760.947 393.713 L764.19 390.976 L767.433 388.373 L770.676 385.915 L773.919 383.613 L777.162 381.478 L780.405 379.525 L783.648 377.764 L786.892 376.206 L790.135 374.861 L793.378 373.739 L796.621 372.851 L799.864 372.203 L803.107 371.793 L806.35 371.61 L809.593 371.641 L812.836 371.876 L816.079 372.301 L819.322 372.905 L822.565 373.677 L825.808 374.6 L829.051 375.66 L832.294 376.84 L835.537 378.128 L838.78 379.51 L842.023 380.974 L845.266 382.51 L848.509 384.109 L851.752 385.762 L854.995 387.463 L858.238 389.207 L861.481 390.988 L864.724 392.804 L867.967 394.652 L871.21 396.532 L874.453 398.443 L877.696 400.388 L880.939 402.368 L884.182 404.387 L887.425 406.448 L890.668 408.557 L893.911 410.72 L897.155 412.944 L900.398 415.237 L903.641 417.606 L906.884 420.061 L910.127 422.611 L913.37 425.268 L916.613 428.04 L919.856 430.937 L923.099 433.957 L926.342 437.097 L929.585 440.354 L932.828 443.725 L936.071 447.207 L939.314 450.79 L942.557 454.466 L945.8 458.224 L949.043 462.056 L952.286 465.953 L955.529 469.908 L958.772 473.913 L962.015 477.962 L965.258 482.049 L968.501 486.167 L971.744 490.312 L974.987 494.479 L978.23 498.666 L981.473 502.868 L984.716 507.085 L987.959 511.313 L991.202 515.552 L994.445 519.802 L997.688 524.062 L1000.93 528.334 L1004.17 532.618 L1007.42 536.917 L1010.66 541.231 L1013.9 545.565 L1017.15 549.922 L1020.39 554.304 L1023.63 558.716 L1026.88 563.159 L1030.12 567.629 L1033.36 572.121 L1036.6 576.626 L1039.85 581.141 L1043.09 585.659 L1046.33 590.176 L1049.58 594.687 L1052.82 599.189 L1056.06 603.679 L1059.31 608.153 L1062.55 612.61 L1065.79 617.048 L1069.04 621.466 L1072.28 625.864 L1075.52 630.243 L1078.76 634.603 L1082.01 638.947 L1085.25 643.277 L1088.49 647.595 L1091.74 651.906 L1094.98 656.214 L1098.22 660.524 L1101.47 664.842 L1104.71 669.174 L1107.95 673.526 L1111.19 677.907 L1114.44 682.324 L1117.68 686.785 L1120.92 691.299 L1124.17 695.875 L1127.41 700.522 L1130.65 705.249 L1133.9 710.064 L1137.14 714.973 L1140.38 719.98 L1143.62 725.089 L1146.87 730.304 L1150.11 735.63 L1153.35 741.07 L1156.6 746.629 L1159.84 752.307 L1163.08 758.095 L1166.33 763.984 L1169.57 769.962 L1172.81 776.018 L1176.06 782.141 L1179.3 788.321 L1182.54 794.549 L1185.78 800.814 L1189.03 807.108 L1192.27 813.421 L1195.51 819.746 L1198.76 826.074 L1202 832.397 L1205.24 838.71 L1208.49 845.004 L1211.73 851.274 L1214.97 857.515 L1218.21 863.72 L1221.46 869.884 L1224.7 876.004 L1227.94 882.074 L1231.19 888.09 L1234.43 894.049 L1237.67 899.948 L1240.92 905.783 L1244.16 911.552 L1247.4 917.252 L1250.64 922.881 L1253.89 928.437 L1257.13 933.918 L1260.37 939.323 L1263.62 944.651 L1266.86 949.899 L1270.1 955.069 L1273.35 960.158 L1276.59 965.167 L1279.83 970.096 L1283.08 974.944 L1286.32 979.711 L1289.56 984.399 L1292.8 989.007 L1296.05 993.537 L1299.29 997.99 L1302.53 1002.37 L1305.78 1006.67 L1309.02 1010.9 L1312.26 1015.05 L1315.51 1019.14 L1318.75 1023.16 L1321.99 1027.12 L1325.23 1031.01 L1328.48 1034.85 L1331.72 1038.62 L1334.96 1042.35 L1338.21 1046.03 L1341.45 1049.66 L1344.69 1053.25 L1347.94 1056.81 L1351.18 1060.33 L1354.42 1063.83 L1357.66 1067.3 L1360.91 1070.75 L1364.15 1074.2 L1367.39 1077.64 L1370.64 1081.07 L1373.88 1084.52 L1377.12 1087.98 L1380.37 1091.45 L1383.61 1094.95 L1386.85 1098.49 L1390.1 1102.06 L1393.34 1105.69 L1396.58 1109.36 L1399.82 1113.1 L1403.07 1116.9 L1406.31 1120.78 L1409.55 1124.74 L1412.8 1128.79 L1416.04 1132.93 L1419.28 1137.16 L1422.53 1141.47 L1425.77 1145.86 L1429.01 1150.32 L1432.25 1154.84 L1435.5 1159.41 L1438.74 1164.04 L1441.98 1168.71 L1445.23 1173.41 L1448.47 1178.14 L1451.71 1182.89 L1454.96 1187.67 L1458.2 1192.45 L1461.44 1197.23 L1464.68 1202.02 L1467.93 1206.79 L1471.17 1211.56 L1474.41 1216.3 L1477.66 1221.03 L1480.9 1225.72 L1484.14 1230.39 L1487.39 1235.02 L1490.63 1239.61 L1493.87 1244.15 L1497.11 1248.65 L1500.36 1253.1 L1503.6 1257.49 L1506.84 1261.82 L1510.09 1266.09 L1513.33 1270.3 L1516.57 1274.45 L1519.82 1278.52 L1523.06 1282.52 L1526.3 1286.45 L1529.55 1290.3 L1532.79 1294.07 L1536.03 1297.77 L1539.27 1301.38 L1542.52 1304.91 L1545.76 1308.36 L1549 1311.72 L1552.25 1314.99 L1555.49 1318.18 L1558.73 1321.28 L1561.98 1324.28 L1565.22 1327.2 L1568.46 1330.03 L1571.7 1332.76 L1574.95 1335.4 L1578.19 1337.95 L1581.43 1340.4 L1584.68 1342.76 L1587.92 1345.03 L1591.16 1347.21 L1594.41 1349.29 L1597.65 1351.29 L1600.89 1353.19 L1604.13 1355 L1607.38 1356.72 L1610.62 1358.35 L1613.86 1359.9 L1617.11 1361.36 L1620.35 1362.74 L1623.59 1364.04 L1626.84 1365.25 L1630.08 1366.39 L1633.32 1367.46 L1636.57 1368.45 L1639.81 1369.38 L1643.05 1370.25 L1646.29 1371.05 L1649.54 1371.8 L1652.78 1372.5 L1656.02 1373.16 L1659.27 1373.77 L1662.51 1374.35 L1665.75 1374.91 L1669 1375.44 L1672.24 1375.96 L1675.48 1376.48 L1678.72 1377.01 L1681.97 1377.54 L1685.21 1378.1 L1688.45 1378.69 L1691.7 1379.32 L1694.94 1380 L1698.18 1380.74 L1701.43 1381.56 L1704.67 1382.45 L1707.91 1383.45 L1711.15 1384.54 L1714.4 1385.74 L1717.64 1387.07 L1720.88 1388.5 L1724.13 1390.05 L1727.37 1391.7 L1730.61 1393.45 L1733.86 1395.27 L1737.1 1397.17 L1740.34 1399.14 L1743.59 1401.15 L1746.83 1403.21 L1750.07 1405.3 L1753.31 1407.42 L1756.56 1409.54 L1759.8 1411.67 L1763.04 1413.78 L1766.29 1415.89 L1769.53 1417.96 L1772.77 1420 L1776.02 1422.01 L1779.26 1423.96 L1782.5 1425.86 L1785.74 1427.69 L1788.99 1429.47 L1792.23 1431.16 L1795.47 1432.79 L1798.72 1434.33 L1801.96 1435.78 L1805.2 1437.15 L1808.45 1438.42 L1811.69 1439.6 L1814.93 1440.68 L1818.17 1441.66 L1821.42 1442.53 L1824.66 1443.31 L1827.9 1443.98 L1831.15 1444.54 L1834.39 1444.99 L1837.63 1445.34 L1840.88 1445.57 L1844.12 1445.7 L1847.36 1445.72 L1850.61 1445.62 L1853.85 1445.42 L1857.09 1445.11 L1860.33 1444.7 L1863.58 1444.17 L1866.82 1443.54 L1870.06 1442.81 L1873.31 1441.97 L1876.55 1441.03 L1879.79 1440 L1883.04 1438.86 L1886.28 1437.63 L1889.52 1436.3 L1892.76 1434.89 L1896.01 1433.38 L1899.25 1431.79 L1902.49 1430.12 L1905.74 1428.37 L1908.98 1426.54 L1912.22 1424.65 L1915.47 1422.68 L1918.71 1420.65 L1921.95 1418.56 L1925.19 1416.42 L1928.44 1414.23 L1931.68 1411.99 L1934.92 1409.71 L1938.17 1407.39 L1941.41 1405.05 L1944.65 1402.67 L1947.9 1400.28 L1951.14 1397.88 L1954.38 1395.47 L1957.63 1393.05 L1960.87 1390.64 L1964.11 1388.24 L1967.35 1385.84 L1970.6 1383.47 L1973.84 1381.12 L1977.08 1378.8 L1980.33 1376.5 L1983.57 1374.23 L1986.81 1371.96 L1990.06 1369.71 L1993.3 1367.47 L1996.54 1365.23 L1999.78 1362.99 L2003.03 1360.73 L2006.27 1358.47 L2009.51 1356.19 L2012.76 1353.89 L2016 1351.57 L2019.24 1349.21 L2022.49 1346.82 L2025.73 1344.39 L2028.97 1341.93 L2032.21 1339.41 L2035.46 1336.85 L2038.7 1334.24 L2041.94 1331.57 L2045.19 1328.84 L2048.43 1326.05 L2051.67 1323.2 L2054.92 1320.29 L2058.16 1317.31 L2061.4 1314.26 L2064.65 1311.13 L2067.89 1307.94 L2071.13 1304.67 L2074.37 1301.33 L2077.62 1297.91 L2080.86 1294.42 L2084.1 1290.84 L2087.35 1287.19 L2090.59 1283.47 L2093.83 1279.66 L2097.08 1275.77 L2100.32 1271.81 L2103.56 1267.77 L2106.8 1263.65 L2110.05 1259.45 L2113.29 1255.18 L2116.53 1250.84 L2119.78 1246.42 L2123.02 1241.92 L2126.26 1237.36 L2129.51 1232.73 L2132.75 1228.03 L2135.99 1223.27 L2139.23 1218.44 L2142.48 1213.55 L2145.72 1208.61 L2148.96 1203.62 L2152.21 1198.57 L2155.45 1193.48 L2158.69 1188.34 L2161.94 1183.17 L2165.18 1177.96 L2168.42 1172.73 L2171.67 1167.47 L2174.91 1162.2 L2178.15 1156.92 L2181.39 1151.63 L2184.64 1146.35 L2187.88 1141.07 L2191.12 1135.82 L2194.37 1130.59 L2197.61 1125.4 L2200.85 1120.25 L2204.1 1115.16 L2207.34 1110.14 L2210.58 1105.19 L2213.82 1100.34 L2217.07 1095.58 L2220.31 1090.94 L2223.55 1086.42 L2226.8 1082.04 L2230.04 1077.81 L2233.28 1073.75 L2236.53 1069.87 L2239.77 1066.16 L2243.01 1062.65 L2246.25 1059.32 L2249.5 1056.18 L2252.74 1053.24 L2255.98 1050.5 L2259.23 1047.96 L2262.47 1045.63 L2265.71 1043.5 L2268.96 1041.59 L2272.2 1039.9 L2275.44 1038.42 L2278.69 1037.17 L2281.93 1036.15 L2285.17 1035.35 L2288.41 1034.79 L2291.66 1034.47 L2291.66 580.406 L2288.41 584.884 L2285.17 589.246 L2281.93 593.49 L2278.69 597.615 L2275.44 601.62 L2272.2 605.504 L2268.96 609.265 L2265.71 612.905 L2262.47 616.42 L2259.23 619.812 L2255.98 623.079 L2252.74 626.22 L2249.5 629.235 L2246.25 632.124 L2243.01 634.884 L2239.77 637.516 L2236.53 640.019 L2233.28 642.393 L2230.04 644.638 L2226.8 646.766 L2223.55 648.788 L2220.31 650.716 L2217.07 652.563 L2213.82 654.34 L2210.58 656.058 L2207.34 657.728 L2204.1 659.361 L2200.85 660.967 L2197.61 662.555 L2194.37 664.134 L2191.12 665.712 L2187.88 667.298 L2184.64 668.899 L2181.39 670.522 L2178.15 672.174 L2174.91 673.86 L2171.67 675.586 L2168.42 677.357 L2165.18 679.178 L2161.94 681.053 L2158.69 682.986 L2155.45 684.98 L2152.21 687.039 L2148.96 689.165 L2145.72 691.361 L2142.48 693.628 L2139.23 695.97 L2135.99 698.387 L2132.75 700.881 L2129.51 703.452 L2126.26 706.102 L2123.02 708.83 L2119.78 711.638 L2116.53 714.525 L2113.29 717.49 L2110.05 720.534 L2106.8 723.656 L2103.56 726.854 L2100.32 730.128 L2097.08 733.476 L2093.83 736.897 L2090.59 740.389 L2087.35 743.95 L2084.1 747.577 L2080.86 751.268 L2077.62 755.021 L2074.37 758.832 L2071.13 762.699 L2067.89 766.618 L2064.65 770.585 L2061.4 774.596 L2058.16 778.648 L2054.92 782.735 L2051.67 786.854 L2048.43 791 L2045.19 795.166 L2041.94 799.348 L2038.7 803.54 L2035.46 807.736 L2032.21 811.93 L2028.97 816.115 L2025.73 820.284 L2022.49 824.43 L2019.24 828.546 L2016 832.624 L2012.76 836.656 L2009.51 840.634 L2006.27 844.548 L2003.03 848.392 L1999.78 852.155 L1996.54 855.828 L1993.3 859.403 L1990.06 862.87 L1986.81 866.219 L1983.57 869.44 L1980.33 872.525 L1977.08 875.463 L1973.84 878.245 L1970.6 880.865 L1967.35 883.328 L1964.11 885.644 L1960.87 887.822 L1957.63 889.87 L1954.38 891.798 L1951.14 893.615 L1947.9 895.33 L1944.65 896.951 L1941.41 898.488 L1938.17 899.947 L1934.92 901.339 L1931.68 902.67 L1928.44 903.948 L1925.19 905.181 L1921.95 906.375 L1918.71 907.538 L1915.47 908.675 L1912.22 909.794 L1908.98 910.899 L1905.74 911.996 L1902.49 913.091 L1899.25 914.188 L1896.01 915.292 L1892.76 916.407 L1889.52 917.537 L1886.28 918.685 L1883.04 919.855 L1879.79 921.05 L1876.55 922.271 L1873.31 923.523 L1870.06 924.806 L1866.82 926.123 L1863.58 927.474 L1860.33 928.861 L1857.09 930.285 L1853.85 931.746 L1850.61 933.244 L1847.36 934.78 L1844.12 936.352 L1840.88 937.961 L1837.63 939.604 L1834.39 941.281 L1831.15 942.99 L1827.9 944.728 L1824.66 946.493 L1821.42 948.283 L1818.17 950.094 L1814.93 951.922 L1811.69 953.763 L1808.45 955.613 L1805.2 957.467 L1801.96 959.319 L1798.72 961.164 L1795.47 962.994 L1792.23 964.804 L1788.99 966.586 L1785.74 968.331 L1782.5 970.031 L1779.26 971.677 L1776.02 973.259 L1772.77 974.767 L1769.53 976.188 L1766.29 977.513 L1763.04 978.728 L1759.8 979.82 L1756.56 980.775 L1753.31 981.58 L1750.07 982.22 L1746.83 982.68 L1743.59 982.943 L1740.34 982.994 L1737.1 982.817 L1733.86 982.395 L1730.61 981.711 L1727.37 980.751 L1724.13 979.497 L1720.88 977.937 L1717.64 976.074 L1714.4 973.913 L1711.15 971.462 L1707.91 968.735 L1704.67 965.746 L1701.43 962.513 L1698.18 959.05 L1694.94 955.374 L1691.7 951.501 L1688.45 947.445 L1685.21 943.223 L1681.97 938.849 L1678.72 934.338 L1675.48 929.702 L1672.24 924.957 L1669 920.114 L1665.75 915.185 L1662.51 910.183 L1659.27 905.118 L1656.02 900 L1652.78 894.84 L1649.54 889.646 L1646.29 884.428 L1643.05 879.193 L1639.81 873.95 L1636.57 868.705 L1633.32 863.465 L1630.08 858.237 L1626.84 853.026 L1623.59 847.839 L1620.35 842.679 L1617.11 837.553 L1613.86 832.464 L1610.62 827.416 L1607.38 822.414 L1604.13 817.461 L1600.89 812.559 L1597.65 807.713 L1594.41 802.924 L1591.16 798.195 L1587.92 793.528 L1584.68 788.926 L1581.43 784.39 L1578.19 779.922 L1574.95 775.522 L1571.7 771.193 L1568.46 766.934 L1565.22 762.748 L1561.98 758.634 L1558.73 754.592 L1555.49 750.624 L1552.25 746.729 L1549 742.906 L1545.76 739.156 L1542.52 735.479 L1539.27 731.872 L1536.03 728.337 L1532.79 724.87 L1529.55 721.472 L1526.3 718.141 L1523.06 714.876 L1519.82 711.674 L1516.57 708.533 L1513.33 705.452 L1510.09 702.428 L1506.84 699.458 L1503.6 696.54 L1500.36 693.671 L1497.11 690.847 L1493.87 688.065 L1490.63 685.322 L1487.39 682.612 L1484.14 679.933 L1480.9 677.28 L1477.66 674.648 L1474.41 672.033 L1471.17 669.428 L1467.93 666.829 L1464.68 664.231 L1461.44 661.626 L1458.2 659.01 L1454.96 656.375 L1451.71 653.715 L1448.47 651.023 L1445.23 648.292 L1441.98 645.515 L1438.74 642.684 L1435.5 639.793 L1432.25 636.832 L1429.01 633.795 L1425.77 630.673 L1422.53 627.46 L1419.28 624.146 L1416.04 620.726 L1412.8 617.19 L1409.55 613.534 L1406.31 609.763 L1403.07 605.885 L1399.82 601.908 L1396.58 597.839 L1393.34 593.687 L1390.1 589.459 L1386.85 585.164 L1383.61 580.809 L1380.37 576.402 L1377.12 571.95 L1373.88 567.461 L1370.64 562.943 L1367.39 558.402 L1364.15 553.845 L1360.91 549.278 L1357.66 544.709 L1354.42 540.142 L1351.18 535.585 L1347.94 531.041 L1344.69 526.518 L1341.45 522.019 L1338.21 517.549 L1334.96 513.114 L1331.72 508.717 L1328.48 504.362 L1325.23 500.053 L1321.99 495.793 L1318.75 491.587 L1315.51 487.436 L1312.26 483.344 L1309.02 479.313 L1305.78 475.345 L1302.53 471.444 L1299.29 467.61 L1296.05 463.846 L1292.8 460.152 L1289.56 456.531 L1286.32 452.983 L1283.08 449.51 L1279.83 446.112 L1276.59 442.789 L1273.35 439.543 L1270.1 436.372 L1266.86 433.278 L1263.62 430.259 L1260.37 427.315 L1257.13 424.446 L1253.89 421.65 L1250.64 418.927 L1247.4 416.274 L1244.16 413.692 L1240.92 411.176 L1237.67 408.726 L1234.43 406.339 L1231.19 404.012 L1227.94 401.743 L1224.7 399.528 L1221.46 397.363 L1218.21 395.245 L1214.97 393.17 L1211.73 391.133 L1208.49 389.128 L1205.24 387.152 L1202 385.197 L1198.76 383.259 L1195.51 381.33 L1192.27 379.404 L1189.03 377.473 L1185.78 375.53 L1182.54 373.567 L1179.3 371.575 L1176.06 369.546 L1172.81 367.47 L1169.57 365.337 L1166.33 363.139 L1163.08 360.865 L1159.84 358.505 L1156.6 356.05 L1153.35 353.489 L1150.11 350.819 L1146.87 348.034 L1143.62 345.132 L1140.38 342.107 L1137.14 338.958 L1133.9 335.679 L1130.65 332.268 L1127.41 328.725 L1124.17 325.057 L1120.92 321.278 L1117.68 317.399 L1114.44 313.431 L1111.19 309.387 L1107.95 305.276 L1104.71 301.11 L1101.47 296.899 L1098.22 292.653 L1094.98 288.381 L1091.74 284.092 L1088.49 279.793 L1085.25 275.492 L1082.01 271.196 L1078.76 266.911 L1075.52 262.643 L1072.28 258.396 L1069.04 254.175 L1065.79 249.984 L1062.55 245.826 L1059.31 241.704 L1056.06 237.619 L1052.82 233.573 L1049.58 229.566 L1046.33 225.601 L1043.09 221.675 L1039.85 217.79 L1036.6 213.944 L1033.36 210.136 L1030.12 206.364 L1026.88 202.626 L1023.63 198.921 L1020.39 195.248 L1017.15 191.61 L1013.9 188.012 L1010.66 184.461 L1007.42 180.96 L1004.17 177.513 L1000.93 174.126 L997.688 170.801 L994.445 167.543 L991.202 164.352 L987.959 161.234 L984.716 158.188 L981.473 155.216 L978.23 152.32 L974.987 149.5 L971.744 146.756 L968.501 144.087 L965.258 141.492 L962.015 138.97 L958.772 136.518 L955.529 134.134 L952.286 131.814 L949.043 129.556 L945.8 127.356 L942.557 125.208 L939.314 123.109 L936.071 121.054 L932.828 119.038 L929.585 117.058 L926.342 115.116 L923.099 113.217 L919.856 111.366 L916.613 109.568 L913.37 107.826 L910.127 106.149 L906.884 104.542 L903.641 103.011 L900.398 101.563 L897.155 100.203 L893.911 98.9362 L890.668 97.7674 L887.425 96.7006 L884.182 95.739 L880.939 94.8854 L877.696 94.1415 L874.453 93.5085 L871.21 92.9868 L867.967 92.5757 L864.724 92.2737 L861.481 92.0785 L858.238 91.9868 L854.995 91.9941 L851.752 92.0952 L848.509 92.2838 L845.266 92.5522 L842.023 92.8922 L838.78 93.2941 L835.537 93.7472 L832.294 94.24 L829.051 94.7598 L825.808 95.293 L822.565 95.8253 L819.322 96.3416 L816.079 96.8275 L812.836 97.2741 L809.593 97.6732 L806.35 98.0168 L803.107 98.2966 L799.864 98.5044 L796.621 98.6334 L793.378 98.6815 L790.135 98.6486 L786.892 98.5349 L783.648 98.3408 L780.405 98.0669 L777.162 97.7158 L773.919 97.2973 L770.676 96.8232 L767.433 96.3046 L764.19 95.7524 L760.947 95.1765 L757.704 94.5864 L754.461 93.9905 L751.218 93.3966 L747.975 92.8117 L744.732 92.242 L741.489 91.6929 L738.246 91.169 L735.003 90.6745 L731.76 90.2127 L728.517 89.7864 L725.274 89.3979 L722.031 89.049 L718.788 88.7414 L715.545 88.4772 L712.302 88.2622 L709.059 88.103 L705.816 88.0057 L702.573 87.9763 L699.33 88.0203 L696.087 88.1431 L692.844 88.3494 L689.601 88.6438 L686.358 89.0305 L683.115 89.5133 L679.872 90.0957 L676.629 90.7808 L673.385 91.5715 L670.142 92.4703 L666.899 93.4792 L663.656 94.6004 L660.413 95.8353 L657.17 97.1854 L653.927 98.6516 L650.684 100.235 L647.441 101.935 L644.198 103.754 L640.955 105.69 L637.712 107.744 L634.469 109.915 L631.226 112.202 L627.983 114.605 L624.74 117.122 L621.497 119.751 L618.254 122.492 L615.011 125.342 L611.768 128.299 L608.525 131.36 L605.282 134.522 L602.039 137.783 L598.796 141.14 L595.553 144.588 L592.31 148.124 L589.067 151.743 L585.824 155.441 L582.581 159.213 L579.338 163.054 L576.095 166.959 L572.852 170.921 L569.609 174.933 L566.366 178.991 L563.122 183.086 L559.879 187.211 L556.636 191.358 L553.393 195.521 L550.15 199.689 L546.907 203.855 L543.664 208.01 L540.421 212.144 L537.178 216.249 L533.935 220.314 L530.692 224.331 L527.449 228.292 L524.206 232.194 L520.963 236.037 L517.72 239.819 L514.477 243.542 L511.234 247.203 L507.991 250.803 L504.748 254.34 L501.505 257.813 L498.262 261.221 L495.019 264.563 L491.776 267.838 L488.533 271.045 L485.29 274.181 L482.047 277.245 L478.804 280.237 L475.561 283.153 L472.318 285.994 L469.075 288.768 L465.832 291.482 L462.589 294.146 L459.346 296.768 L456.103 299.356 L452.859 301.919 L449.616 304.463 L446.373 306.997 L443.13 309.528 L439.887 312.061 L436.644 314.605 L433.401 317.164 L430.158 319.744 L426.915 322.35 L423.672 324.988 L420.429 327.662 L417.186 330.375 L413.943 333.132 L410.7 335.936 L407.457 338.789 L404.214 341.694 L400.971 344.654 L397.728 347.67 L394.485 350.743 L391.242 353.876 L387.999 357.068 L384.756 360.32 L381.513 363.632 L378.27 367.003 L375.027 370.434 L371.784 373.923 L368.541 377.469 L365.298 381.07 L362.055 384.724 L358.812 388.428 L355.569 392.179 L352.326 395.975 L349.083 399.811 L345.84 403.683 L342.596 407.586 L339.353 411.516 L336.11 415.466 L332.867 419.431 L329.624 423.402 L326.381 427.375 L323.138 431.339 L319.895 435.287 L316.652 439.21 L313.409 443.097 L310.166 446.938 L306.923 450.723 L303.68 454.438 L300.437 458.073 L297.194 461.612 L293.951 465.044 L290.708 468.353 L287.465 471.524 L284.222 474.542 L280.979 477.391 L277.736 480.056 L274.493 482.519 L271.25 484.764 L268.007 486.775 L264.764 488.535 L261.521 490.03 L258.278 491.243 L255.035 492.163  Z" fill="#3da44d" fill-rule="evenodd" fill-opacity="0.1"/>
<polyline clip-path="url(#clip202)" style="stroke:#3da44d; stroke-linecap:round; stroke-linejoin:round; stroke-width:8; stroke-opacity:1; fill:none" points="255.035,700.045 258.278,698.102 261.521,696.102 264.764,694.045 268.007,691.932 271.25,689.765 274.493,687.546 277.736,685.274 280.979,682.952 284.222,680.581 287.465,678.162 290.708,675.696 293.951,673.184 297.194,670.627 300.437,668.026 303.68,665.383 306.923,662.699 310.166,659.973 313.409,657.208 316.652,654.405 319.895,651.564 323.138,648.686 326.381,645.772 329.624,642.824 332.867,639.841 336.11,636.826 339.353,633.778 342.596,630.699 345.84,627.59 349.083,624.451 352.326,621.283 355.569,618.087 358.812,614.864 362.055,611.615 365.298,608.34 368.541,605.041 371.784,601.718 375.027,598.371 378.27,595.003 381.513,591.613 384.756,588.202 387.999,584.771 391.242,581.322 394.485,577.854 397.728,574.368 400.971,570.866 404.214,567.348 407.457,563.814 410.7,560.267 413.943,556.706 417.186,553.133 420.429,549.548 423.672,545.951 426.915,542.345 430.158,538.73 433.401,535.106 436.644,531.475 439.887,527.838 443.13,524.195 446.373,520.547 449.616,516.896 452.859,513.241 456.103,509.585 459.346,505.929 462.589,502.272 465.832,498.617 469.075,494.965 472.318,491.316 475.561,487.671 478.804,484.032 482.047,480.399 485.29,476.774 488.533,473.156 491.776,469.547 495.019,465.947 498.262,462.357 501.505,458.779 504.748,455.212 507.991,451.658 511.234,448.118 514.477,444.592 517.72,441.082 520.963,437.589 524.206,434.114 527.449,430.657 530.692,427.221 533.935,423.805 537.178,420.41 540.421,417.035 543.664,413.68 546.907,410.344 550.15,407.026 553.393,403.727 556.636,400.445 559.879,397.181 563.122,393.934 566.366,390.704 569.609,387.491 572.852,384.295 576.095,381.115 579.338,377.951 582.581,374.804 585.824,371.673 589.067,368.559 592.31,365.461 595.553,362.38 598.796,359.315 602.039,356.268 605.282,353.238 608.525,350.225 611.768,347.23 615.011,344.254 618.254,341.296 621.497,338.358 624.74,335.439 627.983,332.541 631.226,329.663 634.469,326.808 637.712,323.974 640.955,321.164 644.198,318.377 647.441,315.616 650.684,312.88 653.927,310.171 657.17,307.489 660.413,304.836 663.656,302.214 666.899,299.622 670.142,297.063 673.385,294.537 676.629,292.047 679.872,289.593 683.115,287.177 686.358,284.8 689.601,282.465 692.844,280.173 696.087,277.925 699.33,275.723 702.573,273.57 705.816,271.467 709.059,269.416 712.302,267.42 715.545,265.48 718.788,263.599 722.031,261.779 725.274,260.018 728.517,258.317 731.76,256.675 735.003,255.091 738.246,253.563 741.489,252.093 744.732,250.679 747.975,249.321 751.218,248.019 754.461,246.772 757.704,245.581 760.947,244.445 764.19,243.364 767.433,242.339 770.676,241.369 773.919,240.455 777.162,239.597 780.405,238.796 783.648,238.052 786.892,237.37 790.135,236.755 793.378,236.21 796.621,235.742 799.864,235.354 803.107,235.045 806.35,234.813 809.593,234.657 812.836,234.575 816.079,234.564 819.322,234.623 822.565,234.751 825.808,234.947 829.051,235.21 832.294,235.54 835.537,235.937 838.78,236.402 842.023,236.933 845.266,237.531 848.509,238.196 851.752,238.929 854.995,239.729 858.238,240.597 861.481,241.533 864.724,242.539 867.967,243.614 871.21,244.759 874.453,245.976 877.696,247.265 880.939,248.627 884.182,250.063 887.425,251.574 890.668,253.162 893.911,254.828 897.155,256.573 900.398,258.4 903.641,260.308 906.884,262.301 910.127,264.38 913.37,266.547 916.613,268.804 919.856,271.151 923.099,273.587 926.342,276.106 929.585,278.706 932.828,281.382 936.071,284.131 939.314,286.95 942.557,289.837 945.8,292.79 949.043,295.806 952.286,298.884 955.529,302.021 958.772,305.216 962.015,308.466 965.258,311.77 968.501,315.127 971.744,318.534 974.987,321.99 978.23,325.493 981.473,329.042 984.716,332.636 987.959,336.273 991.202,339.952 994.445,343.672 997.688,347.432 1000.93,351.23 1004.17,355.066 1007.42,358.938 1010.66,362.846 1013.9,366.789 1017.15,370.766 1020.39,374.776 1023.63,378.818 1026.88,382.893 1030.12,386.997 1033.36,391.128 1036.6,395.285 1039.85,399.465 1043.09,403.667 1046.33,407.888 1049.58,412.127 1052.82,416.381 1056.06,420.649 1059.31,424.928 1062.55,429.218 1065.79,433.516 1069.04,437.821 1072.28,442.13 1075.52,446.443 1078.76,450.757 1082.01,455.072 1085.25,459.384 1088.49,463.694 1091.74,467.999 1094.98,472.298 1098.22,476.589 1101.47,480.871 1104.71,485.142 1107.95,489.401 1111.19,493.647 1114.44,497.878 1117.68,502.092 1120.92,506.289 1124.17,510.466 1127.41,514.624 1130.65,518.759 1133.9,522.872 1137.14,526.965 1140.38,531.044 1143.62,535.11 1146.87,539.169 1150.11,543.224 1153.35,547.28 1156.6,551.339 1159.84,555.406 1163.08,559.48 1166.33,563.562 1169.57,567.65 1172.81,571.744 1176.06,575.843 1179.3,579.948 1182.54,584.058 1185.78,588.172 1189.03,592.291 1192.27,596.413 1195.51,600.538 1198.76,604.666 1202,608.797 1205.24,612.931 1208.49,617.066 1211.73,621.203 1214.97,625.342 1218.21,629.483 1221.46,633.624 1224.7,637.766 1227.94,641.908 1231.19,646.051 1234.43,650.194 1237.67,654.337 1240.92,658.48 1244.16,662.622 1247.4,666.763 1250.64,670.904 1253.89,675.044 1257.13,679.182 1260.37,683.319 1263.62,687.455 1266.86,691.589 1270.1,695.721 1273.35,699.85 1276.59,703.978 1279.83,708.104 1283.08,712.227 1286.32,716.347 1289.56,720.465 1292.8,724.58 1296.05,728.691 1299.29,732.8 1302.53,736.905 1305.78,741.006 1309.02,745.104 1312.26,749.198 1315.51,753.288 1318.75,757.374 1321.99,761.455 1325.23,765.532 1328.48,769.604 1331.72,773.671 1334.96,777.733 1338.21,781.789 1341.45,785.84 1344.69,789.886 1347.94,793.925 1351.18,797.958 1354.42,801.984 1357.66,806.004 1360.91,810.016 1364.15,814.021 1367.39,818.019 1370.64,822.009 1373.88,825.99 1377.12,829.963 1380.37,833.927 1383.61,837.882 1386.85,841.827 1390.1,845.762 1393.34,849.686 1396.58,853.6 1399.82,857.502 1403.07,861.393 1406.31,865.271 1409.55,869.137 1412.8,872.989 1416.04,876.828 1419.28,880.653 1422.53,884.466 1425.77,888.267 1429.01,892.056 1432.25,895.835 1435.5,899.603 1438.74,903.361 1441.98,907.11 1445.23,910.85 1448.47,914.581 1451.71,918.304 1454.96,922.02 1458.2,925.728 1461.44,929.429 1464.68,933.123 1467.93,936.811 1471.17,940.492 1474.41,944.168 1477.66,947.838 1480.9,951.503 1484.14,955.162 1487.39,958.816 1490.63,962.465 1493.87,966.11 1497.11,969.749 1500.36,973.384 1503.6,977.015 1506.84,980.64 1510.09,984.261 1513.33,987.878 1516.57,991.489 1519.82,995.096 1523.06,998.698 1526.3,1002.29 1529.55,1005.89 1532.79,1009.47 1536.03,1013.05 1539.27,1016.63 1542.52,1020.2 1545.76,1023.76 1549,1027.31 1552.25,1030.86 1555.49,1034.4 1558.73,1037.93 1561.98,1041.46 1565.22,1044.97 1568.46,1048.48 1571.7,1051.98 1574.95,1055.46 1578.19,1058.93 1581.43,1062.4 1584.68,1065.84 1587.92,1069.28 1591.16,1072.7 1594.41,1076.11 1597.65,1079.5 1600.89,1082.87 1604.13,1086.23 1607.38,1089.57 1610.62,1092.88 1613.86,1096.18 1617.11,1099.46 1620.35,1102.71 1623.59,1105.94 1626.84,1109.14 1630.08,1112.31 1633.32,1115.46 1636.57,1118.58 1639.81,1121.67 1643.05,1124.72 1646.29,1127.74 1649.54,1130.72 1652.78,1133.67 1656.02,1136.58 1659.27,1139.44 1662.51,1142.27 1665.75,1145.05 1669,1147.78 1672.24,1150.46 1675.48,1153.09 1678.72,1155.67 1681.97,1158.19 1685.21,1160.66 1688.45,1163.07 1691.7,1165.41 1694.94,1167.69 1698.18,1169.9 1701.43,1172.03 1704.67,1174.1 1707.91,1176.09 1711.15,1178 1714.4,1179.83 1717.64,1181.57 1720.88,1183.22 1724.13,1184.77 1727.37,1186.23 1730.61,1187.58 1733.86,1188.83 1737.1,1189.99 1740.34,1191.07 1743.59,1192.05 1746.83,1192.95 1750.07,1193.76 1753.31,1194.5 1756.56,1195.16 1759.8,1195.74 1763.04,1196.26 1766.29,1196.7 1769.53,1197.08 1772.77,1197.39 1776.02,1197.63 1779.26,1197.82 1782.5,1197.94 1785.74,1198.01 1788.99,1198.03 1792.23,1197.98 1795.47,1197.89 1798.72,1197.74 1801.96,1197.55 1805.2,1197.31 1808.45,1197.02 1811.69,1196.68 1814.93,1196.3 1818.17,1195.88 1821.42,1195.41 1824.66,1194.9 1827.9,1194.35 1831.15,1193.76 1834.39,1193.14 1837.63,1192.47 1840.88,1191.77 1844.12,1191.03 1847.36,1190.25 1850.61,1189.43 1853.85,1188.58 1857.09,1187.7 1860.33,1186.78 1863.58,1185.82 1866.82,1184.83 1870.06,1183.81 1873.31,1182.75 1876.55,1181.65 1879.79,1180.52 1883.04,1179.36 1886.28,1178.16 1889.52,1176.92 1892.76,1175.65 1896.01,1174.34 1899.25,1172.99 1902.49,1171.61 1905.74,1170.18 1908.98,1168.72 1912.22,1167.22 1915.47,1165.68 1918.71,1164.1 1921.95,1162.47 1925.19,1160.8 1928.44,1159.09 1931.68,1157.33 1934.92,1155.52 1938.17,1153.67 1941.41,1151.77 1944.65,1149.81 1947.9,1147.81 1951.14,1145.75 1954.38,1143.63 1957.63,1141.46 1960.87,1139.23 1964.11,1136.94 1967.35,1134.59 1970.6,1132.17 1973.84,1129.68 1977.08,1127.13 1980.33,1124.51 1983.57,1121.83 1986.81,1119.09 1990.06,1116.29 1993.3,1113.44 1996.54,1110.53 1999.78,1107.57 2003.03,1104.56 2006.27,1101.51 2009.51,1098.41 2012.76,1095.27 2016,1092.1 2019.24,1088.88 2022.49,1085.63 2025.73,1082.34 2028.97,1079.02 2032.21,1075.67 2035.46,1072.29 2038.7,1068.89 2041.94,1065.46 2045.19,1062 2048.43,1058.53 2051.67,1055.03 2054.92,1051.51 2058.16,1047.98 2061.4,1044.43 2064.65,1040.86 2067.89,1037.28 2071.13,1033.69 2074.37,1030.08 2077.62,1026.47 2080.86,1022.84 2084.1,1019.21 2087.35,1015.57 2090.59,1011.93 2093.83,1008.28 2097.08,1004.63 2100.32,1000.97 2103.56,997.312 2106.8,993.653 2110.05,989.995 2113.29,986.337 2116.53,982.681 2119.78,979.027 2123.02,975.377 2126.26,971.732 2129.51,968.091 2132.75,964.456 2135.99,960.827 2139.23,957.205 2142.48,953.591 2145.72,949.986 2148.96,946.39 2152.21,942.804 2155.45,939.229 2158.69,935.664 2161.94,932.112 2165.18,928.571 2168.42,925.044 2171.67,921.53 2174.91,918.031 2178.15,914.546 2181.39,911.076 2184.64,907.622 2187.88,904.185 2191.12,900.764 2194.37,897.361 2197.61,893.976 2200.85,890.609 2204.1,887.261 2207.34,883.933 2210.58,880.625 2213.82,877.338 2217.07,874.071 2220.31,870.826 2223.55,867.603 2226.8,864.403 2230.04,861.226 2233.28,858.072 2236.53,854.943 2239.77,851.84 2243.01,848.765 2246.25,845.721 2249.5,842.709 2252.74,839.731 2255.98,836.789 2259.23,833.886 2262.47,831.023 2265.71,828.203 2268.96,825.428 2272.2,822.7 2275.44,820.02 2278.69,817.392 2281.93,814.818 2285.17,812.299 2288.41,809.838 2291.66,807.436 "/>
<path clip-path="url(#clip200)" d="M1953.46 302.578 L2280.8 302.578 L2280.8 95.2176 L1953.46 95.2176  Z" fill="#ffffff" fill-rule="evenodd" fill-opacity="1"/>
<polyline clip-path="url(#clip200)" style="stroke:#000000; stroke-linecap:round; stroke-linejoin:round; stroke-width:4; stroke-opacity:1; fill:none" points="1953.46,302.578 2280.8,302.578 2280.8,95.2176 1953.46,95.2176 1953.46,302.578 "/>
<polyline clip-path="url(#clip200)" style="stroke:#009af9; stroke-linecap:round; stroke-linejoin:round; stroke-width:4; stroke-opacity:1; fill:none" points="1977.44,147.058 2121.36,147.058 "/>
<path clip-path="url(#clip200)" d="M2152.76 131.051 L2152.76 138.412 L2161.53 138.412 L2161.53 141.722 L2152.76 141.722 L2152.76 155.796 Q2152.76 158.967 2153.61 159.87 Q2154.49 160.773 2157.16 160.773 L2161.53 160.773 L2161.53 164.338 L2157.16 164.338 Q2152.23 164.338 2150.35 162.509 Q2148.48 160.657 2148.48 155.796 L2148.48 141.722 L2145.35 141.722 L2145.35 138.412 L2148.48 138.412 L2148.48 131.051 L2152.76 131.051 Z" fill="#000000" fill-rule="nonzero" fill-opacity="1" /><path clip-path="url(#clip200)" d="M2182.16 142.393 Q2181.44 141.977 2180.58 141.791 Q2179.75 141.583 2178.73 141.583 Q2175.12 141.583 2173.17 143.944 Q2171.25 146.282 2171.25 150.68 L2171.25 164.338 L2166.97 164.338 L2166.97 138.412 L2171.25 138.412 L2171.25 142.44 Q2172.6 140.078 2174.75 138.944 Q2176.9 137.787 2179.98 137.787 Q2180.42 137.787 2180.95 137.856 Q2181.48 137.903 2182.13 138.018 L2182.16 142.393 Z" fill="#000000" fill-rule="nonzero" fill-opacity="1" /><path clip-path="url(#clip200)" d="M2186.18 154.106 L2186.18 138.412 L2190.44 138.412 L2190.44 153.944 Q2190.44 157.625 2191.88 159.476 Q2193.31 161.305 2196.18 161.305 Q2199.63 161.305 2201.62 159.106 Q2203.64 156.907 2203.64 153.111 L2203.64 138.412 L2207.9 138.412 L2207.9 164.338 L2203.64 164.338 L2203.64 160.356 Q2202.09 162.717 2200.03 163.875 Q2197.99 165.009 2195.28 165.009 Q2190.81 165.009 2188.5 162.231 Q2186.18 159.453 2186.18 154.106 M2196.9 137.787 L2196.9 137.787 Z" fill="#000000" fill-rule="nonzero" fill-opacity="1" /><path clip-path="url(#clip200)" d="M2220.88 131.051 L2220.88 138.412 L2229.66 138.412 L2229.66 141.722 L2220.88 141.722 L2220.88 155.796 Q2220.88 158.967 2221.74 159.87 Q2222.62 160.773 2225.28 160.773 L2229.66 160.773 L2229.66 164.338 L2225.28 164.338 Q2220.35 164.338 2218.48 162.509 Q2216.6 160.657 2216.6 155.796 L2216.6 141.722 L2213.48 141.722 L2213.48 138.412 L2216.6 138.412 L2216.6 131.051 L2220.88 131.051 Z" fill="#000000" fill-rule="nonzero" fill-opacity="1" /><path clip-path="url(#clip200)" d="M2256.81 148.689 L2256.81 164.338 L2252.55 164.338 L2252.55 148.828 Q2252.55 145.148 2251.11 143.319 Q2249.68 141.49 2246.81 141.49 Q2243.36 141.49 2241.37 143.69 Q2239.38 145.889 2239.38 149.685 L2239.38 164.338 L2235.1 164.338 L2235.1 128.319 L2239.38 128.319 L2239.38 142.44 Q2240.91 140.102 2242.97 138.944 Q2245.05 137.787 2247.76 137.787 Q2252.23 137.787 2254.52 140.565 Q2256.81 143.319 2256.81 148.689 Z" fill="#000000" fill-rule="nonzero" fill-opacity="1" /><circle clip-path="url(#clip200)" cx="2049.4" cy="198.898" r="20.48" fill="#e26f46" fill-rule="evenodd" fill-opacity="1" stroke="#000000" stroke-opacity="1" stroke-width="4.55111"/>
<path clip-path="url(#clip200)" d="M2164.26 194.187 L2164.26 180.159 L2168.52 180.159 L2168.52 216.178 L2164.26 216.178 L2164.26 212.289 Q2162.92 214.603 2160.86 215.738 Q2158.82 216.849 2155.95 216.849 Q2151.25 216.849 2148.29 213.099 Q2145.35 209.349 2145.35 203.238 Q2145.35 197.127 2148.29 193.377 Q2151.25 189.627 2155.95 189.627 Q2158.82 189.627 2160.86 190.761 Q2162.92 191.872 2164.26 194.187 M2149.75 203.238 Q2149.75 207.937 2151.67 210.622 Q2153.61 213.284 2156.99 213.284 Q2160.37 213.284 2162.32 210.622 Q2164.26 207.937 2164.26 203.238 Q2164.26 198.539 2162.32 195.877 Q2160.37 193.192 2156.99 193.192 Q2153.61 193.192 2151.67 195.877 Q2149.75 198.539 2149.75 203.238 Z" fill="#000000" fill-rule="nonzero" fill-opacity="1" /><path clip-path="url(#clip200)" d="M2189.08 203.145 Q2183.92 203.145 2181.92 204.326 Q2179.93 205.506 2179.93 208.354 Q2179.93 210.622 2181.42 211.965 Q2182.92 213.284 2185.49 213.284 Q2189.03 213.284 2191.16 210.784 Q2193.31 208.261 2193.31 204.094 L2193.31 203.145 L2189.08 203.145 M2197.57 201.386 L2197.57 216.178 L2193.31 216.178 L2193.31 212.242 Q2191.85 214.603 2189.68 215.738 Q2187.5 216.849 2184.36 216.849 Q2180.37 216.849 2178.01 214.627 Q2175.67 212.381 2175.67 208.631 Q2175.67 204.256 2178.59 202.034 Q2181.53 199.812 2187.34 199.812 L2193.31 199.812 L2193.31 199.395 Q2193.31 196.455 2191.37 194.858 Q2189.45 193.238 2185.95 193.238 Q2183.73 193.238 2181.62 193.77 Q2179.52 194.303 2177.57 195.367 L2177.57 191.432 Q2179.91 190.53 2182.11 190.09 Q2184.31 189.627 2186.39 189.627 Q2192.02 189.627 2194.79 192.543 Q2197.57 195.46 2197.57 201.386 Z" fill="#000000" fill-rule="nonzero" fill-opacity="1" /><path clip-path="url(#clip200)" d="M2210.56 182.891 L2210.56 190.252 L2219.33 190.252 L2219.33 193.562 L2210.56 193.562 L2210.56 207.636 Q2210.56 210.807 2211.42 211.71 Q2212.29 212.613 2214.96 212.613 L2219.33 212.613 L2219.33 216.178 L2214.96 216.178 Q2210.03 216.178 2208.15 214.349 Q2206.28 212.497 2206.28 207.636 L2206.28 193.562 L2203.15 193.562 L2203.15 190.252 L2206.28 190.252 L2206.28 182.891 L2210.56 182.891 Z" fill="#000000" fill-rule="nonzero" fill-opacity="1" /><path clip-path="url(#clip200)" d="M2236.72 203.145 Q2231.55 203.145 2229.56 204.326 Q2227.57 205.506 2227.57 208.354 Q2227.57 210.622 2229.05 211.965 Q2230.56 213.284 2233.13 213.284 Q2236.67 213.284 2238.8 210.784 Q2240.95 208.261 2240.95 204.094 L2240.95 203.145 L2236.72 203.145 M2245.21 201.386 L2245.21 216.178 L2240.95 216.178 L2240.95 212.242 Q2239.49 214.603 2237.32 215.738 Q2235.14 216.849 2231.99 216.849 Q2228.01 216.849 2225.65 214.627 Q2223.31 212.381 2223.31 208.631 Q2223.31 204.256 2226.23 202.034 Q2229.17 199.812 2234.98 199.812 L2240.95 199.812 L2240.95 199.395 Q2240.95 196.455 2239.01 194.858 Q2237.09 193.238 2233.59 193.238 Q2231.37 193.238 2229.26 193.77 Q2227.16 194.303 2225.21 195.367 L2225.21 191.432 Q2227.55 190.53 2229.75 190.09 Q2231.95 189.627 2234.03 189.627 Q2239.66 189.627 2242.43 192.543 Q2245.21 195.46 2245.21 201.386 Z" fill="#000000" fill-rule="nonzero" fill-opacity="1" /><polyline clip-path="url(#clip200)" style="stroke:#3da44d; stroke-linecap:round; stroke-linejoin:round; stroke-width:8; stroke-opacity:1; fill:none" points="1977.44,250.738 2121.36,250.738 "/>
<path clip-path="url(#clip200)" d="M2170.91 263.087 L2170.91 253.805 L2163.27 253.805 L2163.27 249.962 L2175.54 249.962 L2175.54 264.8 Q2172.83 266.721 2169.56 267.717 Q2166.3 268.689 2162.6 268.689 Q2154.49 268.689 2149.91 263.967 Q2145.35 259.221 2145.35 250.772 Q2145.35 242.3 2149.91 237.578 Q2154.49 232.833 2162.6 232.833 Q2165.98 232.833 2169.01 233.666 Q2172.06 234.499 2174.63 236.12 L2174.63 241.096 Q2172.04 238.897 2169.12 237.786 Q2166.21 236.675 2162.99 236.675 Q2156.65 236.675 2153.45 240.217 Q2150.28 243.758 2150.28 250.772 Q2150.28 257.763 2153.45 261.305 Q2156.65 264.846 2162.99 264.846 Q2165.47 264.846 2167.41 264.43 Q2169.36 263.99 2170.91 263.087 Z" fill="#000000" fill-rule="nonzero" fill-opacity="1" /><path clip-path="url(#clip200)" d="M2188.75 237.3 L2188.75 250.286 L2194.63 250.286 Q2197.9 250.286 2199.68 248.596 Q2201.46 246.907 2201.46 243.782 Q2201.46 240.68 2199.68 238.99 Q2197.9 237.3 2194.63 237.3 L2188.75 237.3 M2184.08 233.458 L2194.63 233.458 Q2200.44 233.458 2203.41 236.096 Q2206.39 238.712 2206.39 243.782 Q2206.39 248.897 2203.41 251.513 Q2200.44 254.129 2194.63 254.129 L2188.75 254.129 L2188.75 268.018 L2184.08 268.018 L2184.08 233.458 Z" fill="#000000" fill-rule="nonzero" fill-opacity="1" /></svg>
