<?xml version="1.0" encoding="utf-8"?>
<svg xmlns="http://www.w3.org/2000/svg" xmlns:xlink="http://www.w3.org/1999/xlink" width="600" height="400" viewBox="0 0 2400 1600">
<defs>
  <clipPath id="clip040">
    <rect x="0" y="0" width="2400" height="1600"/>
  </clipPath>
</defs>
<path clip-path="url(#clip040)" d="M0 1600 L2400 1600 L2400 0 L0 0  Z" fill="#ffffff" fill-rule="evenodd" fill-opacity="1"/>
<defs>
  <clipPath id="clip041">
    <rect x="480" y="0" width="1681" height="1600"/>
  </clipPath>
</defs>
<path clip-path="url(#clip040)" d="M193.936 1486.45 L2352.76 1486.45 L2352.76 47.2441 L193.936 47.2441  Z" fill="#ffffff" fill-rule="evenodd" fill-opacity="1"/>
<defs>
  <clipPath id="clip042">
    <rect x="193" y="47" width="2160" height="1440"/>
  </clipPath>
</defs>
<polyline clip-path="url(#clip042)" style="stroke:#000000; stroke-linecap:round; stroke-linejoin:round; stroke-width:2; stroke-opacity:0.1; fill:none" points="255.035,1486.45 255.035,47.2441 "/>
<polyline clip-path="url(#clip042)" style="stroke:#000000; stroke-linecap:round; stroke-linejoin:round; stroke-width:2; stroke-opacity:0.1; fill:none" points="579.173,1486.45 579.173,47.2441 "/>
<polyline clip-path="url(#clip042)" style="stroke:#000000; stroke-linecap:round; stroke-linejoin:round; stroke-width:2; stroke-opacity:0.1; fill:none" points="903.312,1486.45 903.312,47.2441 "/>
<polyline clip-path="url(#clip042)" style="stroke:#000000; stroke-linecap:round; stroke-linejoin:round; stroke-width:2; stroke-opacity:0.1; fill:none" points="1227.45,1486.45 1227.45,47.2441 "/>
<polyline clip-path="url(#clip042)" style="stroke:#000000; stroke-linecap:round; stroke-linejoin:round; stroke-width:2; stroke-opacity:0.1; fill:none" points="1551.59,1486.45 1551.59,47.2441 "/>
<polyline clip-path="url(#clip042)" style="stroke:#000000; stroke-linecap:round; stroke-linejoin:round; stroke-width:2; stroke-opacity:0.1; fill:none" points="1875.73,1486.45 1875.73,47.2441 "/>
<polyline clip-path="url(#clip042)" style="stroke:#000000; stroke-linecap:round; stroke-linejoin:round; stroke-width:2; stroke-opacity:0.1; fill:none" points="2199.87,1486.45 2199.87,47.2441 "/>
<polyline clip-path="url(#clip042)" style="stroke:#000000; stroke-linecap:round; stroke-linejoin:round; stroke-width:2; stroke-opacity:0.1; fill:none" points="193.936,1237.02 2352.76,1237.02 "/>
<polyline clip-path="url(#clip042)" style="stroke:#000000; stroke-linecap:round; stroke-linejoin:round; stroke-width:2; stroke-opacity:0.1; fill:none" points="193.936,983.349 2352.76,983.349 "/>
<polyline clip-path="url(#clip042)" style="stroke:#000000; stroke-linecap:round; stroke-linejoin:round; stroke-width:2; stroke-opacity:0.1; fill:none" points="193.936,729.675 2352.76,729.675 "/>
<polyline clip-path="url(#clip042)" style="stroke:#000000; stroke-linecap:round; stroke-linejoin:round; stroke-width:2; stroke-opacity:0.1; fill:none" points="193.936,476 2352.76,476 "/>
<polyline clip-path="url(#clip042)" style="stroke:#000000; stroke-linecap:round; stroke-linejoin:round; stroke-width:2; stroke-opacity:0.1; fill:none" points="193.936,222.326 2352.76,222.326 "/>
<polyline clip-path="url(#clip040)" style="stroke:#000000; stroke-linecap:round; stroke-linejoin:round; stroke-width:4; stroke-opacity:1; fill:none" points="193.936,1486.45 2352.76,1486.45 "/>
<polyline clip-path="url(#clip040)" style="stroke:#000000; stroke-linecap:round; stroke-linejoin:round; stroke-width:4; stroke-opacity:1; fill:none" points="255.035,1486.45 255.035,1467.55 "/>
<polyline clip-path="url(#clip040)" style="stroke:#000000; stroke-linecap:round; stroke-linejoin:round; stroke-width:4; stroke-opacity:1; fill:none" points="579.173,1486.45 579.173,1467.55 "/>
<polyline clip-path="url(#clip040)" style="stroke:#000000; stroke-linecap:round; stroke-linejoin:round; stroke-width:4; stroke-opacity:1; fill:none" points="903.312,1486.45 903.312,1467.55 "/>
<polyline clip-path="url(#clip040)" style="stroke:#000000; stroke-linecap:round; stroke-linejoin:round; stroke-width:4; stroke-opacity:1; fill:none" points="1227.45,1486.45 1227.45,1467.55 "/>
<polyline clip-path="url(#clip040)" style="stroke:#000000; stroke-linecap:round; stroke-linejoin:round; stroke-width:4; stroke-opacity:1; fill:none" points="1551.59,1486.45 1551.59,1467.55 "/>
<polyline clip-path="url(#clip040)" style="stroke:#000000; stroke-linecap:round; stroke-linejoin:round; stroke-width:4; stroke-opacity:1; fill:none" points="1875.73,1486.45 1875.73,1467.55 "/>
<polyline clip-path="url(#clip040)" style="stroke:#000000; stroke-linecap:round; stroke-linejoin:round; stroke-width:4; stroke-opacity:1; fill:none" points="2199.87,1486.45 2199.87,1467.55 "/>
<path clip-path="url(#clip040)" d="M255.035 1517.37 Q251.424 1517.37 249.595 1520.93 Q247.789 1524.47 247.789 1531.6 Q247.789 1538.71 249.595 1542.27 Q251.424 1545.82 255.035 1545.82 Q258.669 1545.82 260.474 1542.27 Q262.303 1538.71 262.303 1531.6 Q262.303 1524.47 260.474 1520.93 Q258.669 1517.37 255.035 1517.37 M255.035 1513.66 Q260.845 1513.66 263.9 1518.27 Q266.979 1522.85 266.979 1531.6 Q266.979 1540.33 263.9 1544.94 Q260.845 1549.52 255.035 1549.52 Q249.225 1549.52 246.146 1544.94 Q243.09 1540.33 243.09 1531.6 Q243.09 1522.85 246.146 1518.27 Q249.225 1513.66 255.035 1513.66 Z" fill="#000000" fill-rule="nonzero" fill-opacity="1" /><path clip-path="url(#clip040)" d="M569.555 1544.91 L577.194 1544.91 L577.194 1518.55 L568.884 1520.21 L568.884 1515.95 L577.148 1514.29 L581.824 1514.29 L581.824 1544.91 L589.463 1544.91 L589.463 1548.85 L569.555 1548.85 L569.555 1544.91 Z" fill="#000000" fill-rule="nonzero" fill-opacity="1" /><path clip-path="url(#clip040)" d="M897.965 1544.91 L914.284 1544.91 L914.284 1548.85 L892.34 1548.85 L892.34 1544.91 Q895.002 1542.16 899.585 1537.53 Q904.191 1532.88 905.372 1531.53 Q907.617 1529.01 908.497 1527.27 Q909.4 1525.51 909.4 1523.82 Q909.4 1521.07 907.455 1519.33 Q905.534 1517.6 902.432 1517.6 Q900.233 1517.6 897.779 1518.36 Q895.349 1519.13 892.571 1520.68 L892.571 1515.95 Q895.395 1514.82 897.849 1514.24 Q900.303 1513.66 902.34 1513.66 Q907.71 1513.66 910.904 1516.35 Q914.099 1519.03 914.099 1523.52 Q914.099 1525.65 913.289 1527.57 Q912.502 1529.47 910.395 1532.07 Q909.816 1532.74 906.715 1535.95 Q903.613 1539.15 897.965 1544.91 Z" fill="#000000" fill-rule="nonzero" fill-opacity="1" /><path clip-path="url(#clip040)" d="M1231.7 1530.21 Q1235.05 1530.93 1236.93 1533.2 Q1238.83 1535.47 1238.83 1538.8 Q1238.83 1543.92 1235.31 1546.72 Q1231.79 1549.52 1225.31 1549.52 Q1223.13 1549.52 1220.82 1549.08 Q1218.53 1548.66 1216.07 1547.81 L1216.07 1543.29 Q1218.02 1544.43 1220.33 1545.01 Q1222.65 1545.58 1225.17 1545.58 Q1229.57 1545.58 1231.86 1543.85 Q1234.17 1542.11 1234.17 1538.8 Q1234.17 1535.75 1232.02 1534.03 Q1229.89 1532.3 1226.07 1532.3 L1222.05 1532.3 L1222.05 1528.45 L1226.26 1528.45 Q1229.71 1528.45 1231.54 1527.09 Q1233.36 1525.7 1233.36 1523.11 Q1233.36 1520.45 1231.47 1519.03 Q1229.59 1517.6 1226.07 1517.6 Q1224.15 1517.6 1221.95 1518.01 Q1219.75 1518.43 1217.11 1519.31 L1217.11 1515.14 Q1219.78 1514.4 1222.09 1514.03 Q1224.43 1513.66 1226.49 1513.66 Q1231.81 1513.66 1234.92 1516.09 Q1238.02 1518.5 1238.02 1522.62 Q1238.02 1525.49 1236.37 1527.48 Q1234.73 1529.45 1231.7 1530.21 Z" fill="#000000" fill-rule="nonzero" fill-opacity="1" /><path clip-path="url(#clip040)" d="M1554.6 1518.36 L1542.79 1536.81 L1554.6 1536.81 L1554.6 1518.36 M1553.37 1514.29 L1559.25 1514.29 L1559.25 1536.81 L1564.18 1536.81 L1564.18 1540.7 L1559.25 1540.7 L1559.25 1548.85 L1554.6 1548.85 L1554.6 1540.7 L1539 1540.7 L1539 1536.19 L1553.37 1514.29 Z" fill="#000000" fill-rule="nonzero" fill-opacity="1" /><path clip-path="url(#clip040)" d="M1866.01 1514.29 L1884.36 1514.29 L1884.36 1518.22 L1870.29 1518.22 L1870.29 1526.7 Q1871.31 1526.35 1872.32 1526.19 Q1873.34 1526 1874.36 1526 Q1880.15 1526 1883.53 1529.17 Q1886.91 1532.34 1886.91 1537.76 Q1886.91 1543.34 1883.44 1546.44 Q1879.96 1549.52 1873.64 1549.52 Q1871.47 1549.52 1869.2 1549.15 Q1866.95 1548.78 1864.55 1548.04 L1864.55 1543.34 Q1866.63 1544.47 1868.85 1545.03 Q1871.07 1545.58 1873.55 1545.58 Q1877.56 1545.58 1879.89 1543.48 Q1882.23 1541.37 1882.23 1537.76 Q1882.23 1534.15 1879.89 1532.04 Q1877.56 1529.94 1873.55 1529.94 Q1871.68 1529.94 1869.8 1530.35 Q1867.95 1530.77 1866.01 1531.65 L1866.01 1514.29 Z" fill="#000000" fill-rule="nonzero" fill-opacity="1" /><path clip-path="url(#clip040)" d="M2200.27 1529.7 Q2197.12 1529.7 2195.27 1531.86 Q2193.44 1534.01 2193.44 1537.76 Q2193.44 1541.49 2195.27 1543.66 Q2197.12 1545.82 2200.27 1545.82 Q2203.42 1545.82 2205.25 1543.66 Q2207.1 1541.49 2207.1 1537.76 Q2207.1 1534.01 2205.25 1531.86 Q2203.42 1529.7 2200.27 1529.7 M2209.55 1515.05 L2209.55 1519.31 Q2207.79 1518.48 2205.99 1518.04 Q2204.21 1517.6 2202.45 1517.6 Q2197.82 1517.6 2195.36 1520.72 Q2192.93 1523.85 2192.59 1530.17 Q2193.95 1528.15 2196.01 1527.09 Q2198.07 1526 2200.55 1526 Q2205.76 1526 2208.77 1529.17 Q2211.8 1532.32 2211.8 1537.76 Q2211.8 1543.08 2208.65 1546.3 Q2205.5 1549.52 2200.27 1549.52 Q2194.28 1549.52 2191.1 1544.94 Q2187.93 1540.33 2187.93 1531.6 Q2187.93 1523.41 2191.82 1518.55 Q2195.71 1513.66 2202.26 1513.66 Q2204.02 1513.66 2205.8 1514.01 Q2207.61 1514.36 2209.55 1515.05 Z" fill="#000000" fill-rule="nonzero" fill-opacity="1" /><polyline clip-path="url(#clip040)" style="stroke:#000000; stroke-linecap:round; stroke-linejoin:round; stroke-width:4; stroke-opacity:1; fill:none" points="193.936,1486.45 193.936,47.2441 "/>
<polyline clip-path="url(#clip040)" style="stroke:#000000; stroke-linecap:round; stroke-linejoin:round; stroke-width:4; stroke-opacity:1; fill:none" points="193.936,1237.02 212.834,1237.02 "/>
<polyline clip-path="url(#clip040)" style="stroke:#000000; stroke-linecap:round; stroke-linejoin:round; stroke-width:4; stroke-opacity:1; fill:none" points="193.936,983.349 212.834,983.349 "/>
<polyline clip-path="url(#clip040)" style="stroke:#000000; stroke-linecap:round; stroke-linejoin:round; stroke-width:4; stroke-opacity:1; fill:none" points="193.936,729.675 212.834,729.675 "/>
<polyline clip-path="url(#clip040)" style="stroke:#000000; stroke-linecap:round; stroke-linejoin:round; stroke-width:4; stroke-opacity:1; fill:none" points="193.936,476 212.834,476 "/>
<polyline clip-path="url(#clip040)" style="stroke:#000000; stroke-linecap:round; stroke-linejoin:round; stroke-width:4; stroke-opacity:1; fill:none" points="193.936,222.326 212.834,222.326 "/>
<path clip-path="url(#clip040)" d="M50.9921 1237.47 L80.6679 1237.47 L80.6679 1241.41 L50.9921 1241.41 L50.9921 1237.47 Z" fill="#000000" fill-rule="nonzero" fill-opacity="1" /><path clip-path="url(#clip040)" d="M91.5706 1250.37 L99.2095 1250.37 L99.2095 1224 L90.8993 1225.67 L90.8993 1221.41 L99.1632 1219.74 L103.839 1219.74 L103.839 1250.37 L111.478 1250.37 L111.478 1254.3 L91.5706 1254.3 L91.5706 1250.37 Z" fill="#000000" fill-rule="nonzero" fill-opacity="1" /><path clip-path="url(#clip040)" d="M120.922 1248.42 L125.807 1248.42 L125.807 1254.3 L120.922 1254.3 L120.922 1248.42 Z" fill="#000000" fill-rule="nonzero" fill-opacity="1" /><path clip-path="url(#clip040)" d="M145.992 1222.82 Q142.381 1222.82 140.552 1226.39 Q138.746 1229.93 138.746 1237.06 Q138.746 1244.16 140.552 1247.73 Q142.381 1251.27 145.992 1251.27 Q149.626 1251.27 151.431 1247.73 Q153.26 1244.16 153.26 1237.06 Q153.26 1229.93 151.431 1226.39 Q149.626 1222.82 145.992 1222.82 M145.992 1219.12 Q151.802 1219.12 154.857 1223.72 Q157.936 1228.31 157.936 1237.06 Q157.936 1245.78 154.857 1250.39 Q151.802 1254.97 145.992 1254.97 Q140.181 1254.97 137.103 1250.39 Q134.047 1245.78 134.047 1237.06 Q134.047 1228.31 137.103 1223.72 Q140.181 1219.12 145.992 1219.12 Z" fill="#000000" fill-rule="nonzero" fill-opacity="1" /><path clip-path="url(#clip040)" d="M51.9875 983.8 L81.6633 983.8 L81.6633 987.736 L51.9875 987.736 L51.9875 983.8 Z" fill="#000000" fill-rule="nonzero" fill-opacity="1" /><path clip-path="url(#clip040)" d="M101.756 969.148 Q98.1447 969.148 96.316 972.712 Q94.5104 976.254 94.5104 983.384 Q94.5104 990.49 96.316 994.055 Q98.1447 997.597 101.756 997.597 Q105.39 997.597 107.196 994.055 Q109.024 990.49 109.024 983.384 Q109.024 976.254 107.196 972.712 Q105.39 969.148 101.756 969.148 M101.756 965.444 Q107.566 965.444 110.621 970.05 Q113.7 974.634 113.7 983.384 Q113.7 992.11 110.621 996.717 Q107.566 1001.3 101.756 1001.3 Q95.9456 1001.3 92.8669 996.717 Q89.8114 992.11 89.8114 983.384 Q89.8114 974.634 92.8669 970.05 Q95.9456 965.444 101.756 965.444 Z" fill="#000000" fill-rule="nonzero" fill-opacity="1" /><path clip-path="url(#clip040)" d="M121.918 994.749 L126.802 994.749 L126.802 1000.63 L121.918 1000.63 L121.918 994.749 Z" fill="#000000" fill-rule="nonzero" fill-opacity="1" /><path clip-path="url(#clip040)" d="M137.033 966.069 L155.39 966.069 L155.39 970.004 L141.316 970.004 L141.316 978.476 Q142.334 978.129 143.353 977.967 Q144.371 977.782 145.39 977.782 Q151.177 977.782 154.556 980.953 Q157.936 984.124 157.936 989.541 Q157.936 995.12 154.464 998.222 Q150.992 1001.3 144.672 1001.3 Q142.496 1001.3 140.228 1000.93 Q137.982 1000.56 135.575 999.819 L135.575 995.12 Q137.658 996.254 139.881 996.81 Q142.103 997.365 144.58 997.365 Q148.584 997.365 150.922 995.259 Q153.26 993.152 153.26 989.541 Q153.26 985.93 150.922 983.823 Q148.584 981.717 144.58 981.717 Q142.705 981.717 140.83 982.134 Q138.978 982.55 137.033 983.43 L137.033 966.069 Z" fill="#000000" fill-rule="nonzero" fill-opacity="1" /><path clip-path="url(#clip040)" d="M100.76 715.473 Q97.1493 715.473 95.3206 719.038 Q93.515 722.58 93.515 729.709 Q93.515 736.816 95.3206 740.381 Q97.1493 743.922 100.76 743.922 Q104.395 743.922 106.2 740.381 Q108.029 736.816 108.029 729.709 Q108.029 722.58 106.2 719.038 Q104.395 715.473 100.76 715.473 M100.76 711.77 Q106.571 711.77 109.626 716.376 Q112.705 720.959 112.705 729.709 Q112.705 738.436 109.626 743.043 Q106.571 747.626 100.76 747.626 Q94.9502 747.626 91.8715 743.043 Q88.816 738.436 88.816 729.709 Q88.816 720.959 91.8715 716.376 Q94.9502 711.77 100.76 711.77 Z" fill="#000000" fill-rule="nonzero" fill-opacity="1" /><path clip-path="url(#clip040)" d="M120.922 741.075 L125.807 741.075 L125.807 746.955 L120.922 746.955 L120.922 741.075 Z" fill="#000000" fill-rule="nonzero" fill-opacity="1" /><path clip-path="url(#clip040)" d="M145.992 715.473 Q142.381 715.473 140.552 719.038 Q138.746 722.58 138.746 729.709 Q138.746 736.816 140.552 740.381 Q142.381 743.922 145.992 743.922 Q149.626 743.922 151.431 740.381 Q153.26 736.816 153.26 729.709 Q153.26 722.58 151.431 719.038 Q149.626 715.473 145.992 715.473 M145.992 711.77 Q151.802 711.77 154.857 716.376 Q157.936 720.959 157.936 729.709 Q157.936 738.436 154.857 743.043 Q151.802 747.626 145.992 747.626 Q140.181 747.626 137.103 743.043 Q134.047 738.436 134.047 729.709 Q134.047 720.959 137.103 716.376 Q140.181 711.77 145.992 711.77 Z" fill="#000000" fill-rule="nonzero" fill-opacity="1" /><path clip-path="url(#clip040)" d="M101.756 461.799 Q98.1447 461.799 96.316 465.364 Q94.5104 468.905 94.5104 476.035 Q94.5104 483.141 96.316 486.706 Q98.1447 490.248 101.756 490.248 Q105.39 490.248 107.196 486.706 Q109.024 483.141 109.024 476.035 Q109.024 468.905 107.196 465.364 Q105.39 461.799 101.756 461.799 M101.756 458.095 Q107.566 458.095 110.621 462.702 Q113.7 467.285 113.7 476.035 Q113.7 484.762 110.621 489.368 Q107.566 493.952 101.756 493.952 Q95.9456 493.952 92.8669 489.368 Q89.8114 484.762 89.8114 476.035 Q89.8114 467.285 92.8669 462.702 Q95.9456 458.095 101.756 458.095 Z" fill="#000000" fill-rule="nonzero" fill-opacity="1" /><path clip-path="url(#clip040)" d="M121.918 487.401 L126.802 487.401 L126.802 493.28 L121.918 493.28 L121.918 487.401 Z" fill="#000000" fill-rule="nonzero" fill-opacity="1" /><path clip-path="url(#clip040)" d="M137.033 458.72 L155.39 458.72 L155.39 462.655 L141.316 462.655 L141.316 471.128 Q142.334 470.78 143.353 470.618 Q144.371 470.433 145.39 470.433 Q151.177 470.433 154.556 473.604 Q157.936 476.776 157.936 482.192 Q157.936 487.771 154.464 490.873 Q150.992 493.952 144.672 493.952 Q142.496 493.952 140.228 493.581 Q137.982 493.211 135.575 492.47 L135.575 487.771 Q137.658 488.905 139.881 489.461 Q142.103 490.016 144.58 490.016 Q148.584 490.016 150.922 487.91 Q153.26 485.803 153.26 482.192 Q153.26 478.581 150.922 476.475 Q148.584 474.368 144.58 474.368 Q142.705 474.368 140.83 474.785 Q138.978 475.202 137.033 476.081 L137.033 458.72 Z" fill="#000000" fill-rule="nonzero" fill-opacity="1" /><path clip-path="url(#clip040)" d="M91.5706 235.671 L99.2095 235.671 L99.2095 209.305 L90.8993 210.972 L90.8993 206.713 L99.1632 205.046 L103.839 205.046 L103.839 235.671 L111.478 235.671 L111.478 239.606 L91.5706 239.606 L91.5706 235.671 Z" fill="#000000" fill-rule="nonzero" fill-opacity="1" /><path clip-path="url(#clip040)" d="M120.922 233.726 L125.807 233.726 L125.807 239.606 L120.922 239.606 L120.922 233.726 Z" fill="#000000" fill-rule="nonzero" fill-opacity="1" /><path clip-path="url(#clip040)" d="M145.992 208.125 Q142.381 208.125 140.552 211.689 Q138.746 215.231 138.746 222.361 Q138.746 229.467 140.552 233.032 Q142.381 236.574 145.992 236.574 Q149.626 236.574 151.431 233.032 Q153.26 229.467 153.26 222.361 Q153.26 215.231 151.431 211.689 Q149.626 208.125 145.992 208.125 M145.992 204.421 Q151.802 204.421 154.857 209.027 Q157.936 213.611 157.936 222.361 Q157.936 231.087 154.857 235.694 Q151.802 240.277 145.992 240.277 Q140.181 240.277 137.103 235.694 Q134.047 231.087 134.047 222.361 Q134.047 213.611 137.103 209.027 Q140.181 204.421 145.992 204.421 Z" fill="#000000" fill-rule="nonzero" fill-opacity="1" /><polyline clip-path="url(#clip042)" style="stroke:#009af9; stroke-linecap:round; stroke-linejoin:round; stroke-width:4; stroke-opacity:1; fill:none" points="255.035,729.675 258.276,724.601 261.517,719.528 264.759,714.456 268,709.386 271.242,704.318 274.483,699.252 277.724,694.189 280.966,689.13 284.207,684.075 287.449,679.024 290.69,673.979 293.931,668.939 297.173,663.905 300.414,658.878 303.655,653.857 306.897,648.845 310.138,643.84 313.38,638.844 316.621,633.857 319.862,628.88 323.104,623.913 326.345,618.956 329.587,614.011 332.828,609.076 336.069,604.155 339.311,599.245 342.552,594.349 345.793,589.466 349.035,584.597 352.276,579.743 355.518,574.904 358.759,570.08 362,565.272 365.242,560.48 368.483,555.706 371.725,550.949 374.966,546.209 378.207,541.489 381.449,536.787 384.69,532.104 387.931,527.441 391.173,522.798 394.414,518.176 397.656,513.575 400.897,508.995 404.138,504.438 407.38,499.903 410.621,495.392 413.863,490.903 417.104,486.439 420.345,481.999 423.587,477.583 426.828,473.193 430.069,468.828 433.311,464.49 436.552,460.178 439.794,455.893 443.035,451.635 446.276,447.406 449.518,443.204 452.759,439.031 456.001,434.887 459.242,430.773 462.483,426.688 465.725,422.634 468.966,418.611 472.208,414.618 475.449,410.657 478.69,406.728 481.932,402.832 485.173,398.968 488.414,395.137 491.656,391.339 494.897,387.576 498.139,383.846 501.38,380.151 504.621,376.491 507.863,372.867 511.104,369.278 514.346,365.725 517.587,362.208 520.828,358.729 524.07,355.286 527.311,351.881 530.552,348.513 533.794,345.184 537.035,341.893 540.277,338.641 543.518,335.428 546.759,332.255 550.001,329.121 553.242,326.027 556.484,322.974 559.725,319.961 562.966,316.989 566.208,314.059 569.449,311.17 572.69,308.323 575.932,305.518 579.173,302.755 582.415,300.036 585.656,297.359 588.897,294.725 592.139,292.135 595.38,289.589 598.622,287.086 601.863,284.628 605.104,282.214 608.346,279.846 611.587,277.522 614.828,275.243 618.07,273.01 621.311,270.822 624.553,268.681 627.794,266.585 631.035,264.536 634.277,262.533 637.518,260.577 640.76,258.668 644.001,256.806 647.242,254.991 650.484,253.224 653.725,251.504 656.966,249.832 660.208,248.208 663.449,246.633 666.691,245.105 669.932,243.627 673.173,242.196 676.415,240.815 679.656,239.482 682.898,238.198 686.139,236.964 689.38,235.778 692.622,234.643 695.863,233.556 699.104,232.52 702.346,231.532 705.587,230.595 708.829,229.708 712.07,228.871 715.311,228.083 718.553,227.346 721.794,226.66 725.036,226.023 728.277,225.437 731.518,224.901 734.76,224.416 738.001,223.981 741.242,223.597 744.484,223.263 747.725,222.98 750.967,222.748 754.208,222.566 757.449,222.436 760.691,222.355 763.932,222.326 767.174,222.347 770.415,222.419 773.656,222.542 776.898,222.716 780.139,222.94 783.381,223.215 786.622,223.54 789.863,223.916 793.105,224.343 796.346,224.82 799.587,225.348 802.829,225.926 806.07,226.555 809.312,227.234 812.553,227.963 815.794,228.742 819.036,229.571 822.277,230.451 825.519,231.38 828.76,232.359 832.001,233.388 835.243,234.466 838.484,235.594 841.725,236.772 844.967,237.998 848.208,239.274 851.45,240.599 854.691,241.973 857.932,243.395 861.174,244.867 864.415,246.386 867.657,247.954 870.898,249.57 874.139,251.235 877.381,252.947 880.622,254.706 883.863,256.514 887.105,258.368 890.346,260.27 893.588,262.218 896.829,264.214 900.07,266.256 903.312,268.344 906.553,270.478 909.795,272.658 913.036,274.884 916.277,277.156 919.519,279.472 922.76,281.834 926.001,284.241 929.243,286.692 932.484,289.187 935.726,291.726 938.967,294.31 942.208,296.936 945.45,299.606 948.691,302.319 951.933,305.075 955.174,307.873 958.415,310.714 961.657,313.596 964.898,316.52 968.139,319.485 971.381,322.491 974.622,325.538 977.864,328.625 981.105,331.753 984.346,334.92 987.588,338.127 990.829,341.373 994.071,344.657 997.312,347.981 1000.55,351.342 1003.79,354.741 1007.04,358.178 1010.28,361.652 1013.52,365.162 1016.76,368.71 1020,372.293 1023.24,375.912 1026.48,379.566 1029.73,383.255 1032.97,386.979 1036.21,390.737 1039.45,394.53 1042.69,398.355 1045.93,402.214 1049.17,406.106 1052.42,410.029 1055.66,413.985 1058.9,417.973 1062.14,421.991 1065.38,426.041 1068.62,430.12 1071.86,434.23 1075.11,438.369 1078.35,442.537 1081.59,446.735 1084.83,450.96 1088.07,455.213 1091.31,459.494 1094.55,463.801 1097.79,468.136 1101.04,472.496 1104.28,476.882 1107.52,481.294 1110.76,485.73 1114,490.191 1117.24,494.675 1120.48,499.183 1123.73,503.714 1126.97,508.268 1130.21,512.844 1133.45,517.442 1136.69,522.06 1139.93,526.7 1143.17,531.36 1146.42,536.039 1149.66,540.738 1152.9,545.456 1156.14,550.193 1159.38,554.947 1162.62,559.719 1165.86,564.508 1169.11,569.313 1172.35,574.134 1175.59,578.971 1178.83,583.823 1182.07,588.69 1185.31,593.57 1188.55,598.464 1191.8,603.372 1195.04,608.292 1198.28,613.224 1201.52,618.168 1204.76,623.123 1208,628.088 1211.24,633.064 1214.48,638.049 1217.73,643.044 1220.97,648.047 1224.21,653.059 1227.45,658.078 1230.69,663.104 1233.93,668.137 1237.17,673.176 1240.42,678.22 1243.66,683.27 1246.9,688.325 1250.14,693.383 1253.38,698.445 1256.62,703.511 1259.86,708.579 1263.11,713.649 1266.35,718.72 1269.59,723.793 1272.83,728.867 1276.07,733.94 1279.31,739.013 1282.55,744.085 1285.8,749.156 1289.04,754.224 1292.28,759.291 1295.52,764.354 1298.76,769.414 1302,774.47 1305.24,779.521 1308.48,784.567 1311.73,789.608 1314.97,794.643 1318.21,799.671 1321.45,804.693 1324.69,809.707 1327.93,814.713 1331.17,819.71 1334.42,824.698 1337.66,829.677 1340.9,834.646 1344.14,839.604 1347.38,844.552 1350.62,849.488 1353.86,854.412 1357.11,859.323 1360.35,864.222 1363.59,869.107 1366.83,873.978 1370.07,878.834 1373.31,883.676 1376.55,888.502 1379.8,893.313 1383.04,898.107 1386.28,902.884 1389.52,907.644 1392.76,912.386 1396,917.11 1399.24,921.815 1402.49,926.501 1405.73,931.167 1408.97,935.813 1412.21,940.439 1415.45,945.043 1418.69,949.626 1421.93,954.187 1425.17,958.725 1428.42,963.241 1431.66,967.733 1434.9,972.201 1438.14,976.645 1441.38,981.065 1444.62,985.459 1447.86,989.827 1451.11,994.17 1454.35,998.486 1457.59,1002.78 1460.83,1007.04 1464.07,1011.27 1467.31,1015.48 1470.55,1019.66 1473.8,1023.8 1477.04,1027.92 1480.28,1032.01 1483.52,1036.07 1486.76,1040.1 1490,1044.1 1493.24,1048.06 1496.49,1052 1499.73,1055.9 1502.97,1059.77 1506.21,1063.6 1509.45,1067.41 1512.69,1071.18 1515.93,1074.91 1519.18,1078.61 1522.42,1082.28 1525.66,1085.91 1528.9,1089.5 1532.14,1093.06 1535.38,1096.58 1538.62,1100.07 1541.86,1103.52 1545.11,1106.93 1548.35,1110.3 1551.59,1113.64 1554.83,1116.93 1558.07,1120.19 1561.31,1123.41 1564.55,1126.59 1567.8,1129.73 1571.04,1132.83 1574.28,1135.89 1577.52,1138.91 1580.76,1141.89 1584,1144.83 1587.24,1147.72 1590.49,1150.58 1593.73,1153.39 1596.97,1156.16 1600.21,1158.88 1603.45,1161.57 1606.69,1164.21 1609.93,1166.8 1613.18,1169.36 1616.42,1171.87 1619.66,1174.33 1622.9,1176.75 1626.14,1179.13 1629.38,1181.46 1632.62,1183.75 1635.86,1185.99 1639.11,1188.18 1642.35,1190.33 1645.59,1192.43 1648.83,1194.49 1652.07,1196.5 1655.31,1198.46 1658.55,1200.38 1661.8,1202.25 1665.04,1204.07 1668.28,1205.85 1671.52,1207.57 1674.76,1209.25 1678,1210.89 1681.24,1212.47 1684.49,1214 1687.73,1215.49 1690.97,1216.93 1694.21,1218.32 1697.45,1219.66 1700.69,1220.95 1703.93,1222.19 1707.18,1223.39 1710.42,1224.53 1713.66,1225.62 1716.9,1226.67 1720.14,1227.66 1723.38,1228.61 1726.62,1229.5 1729.87,1230.35 1733.11,1231.14 1736.35,1231.89 1739.59,1232.58 1742.83,1233.23 1746.07,1233.82 1749.31,1234.37 1752.55,1234.86 1755.8,1235.3 1759.04,1235.69 1762.28,1236.04 1765.52,1236.33 1768.76,1236.57 1772,1236.76 1775.24,1236.9 1778.49,1236.98 1781.73,1237.02 1784.97,1237.01 1788.21,1236.94 1791.45,1236.83 1794.69,1236.66 1797.93,1236.45 1801.18,1236.18 1804.42,1235.86 1807.66,1235.5 1810.9,1235.08 1814.14,1234.61 1817.38,1234.09 1820.62,1233.52 1823.87,1232.9 1827.11,1232.23 1830.35,1231.51 1833.59,1230.73 1836.83,1229.91 1840.07,1229.04 1843.31,1228.12 1846.55,1227.15 1849.8,1226.13 1853.04,1225.06 1856.28,1223.94 1859.52,1222.77 1862.76,1221.55 1866,1220.28 1869.24,1218.96 1872.49,1217.6 1875.73,1216.18 1878.97,1214.72 1882.21,1213.21 1885.45,1211.65 1888.69,1210.04 1891.93,1208.38 1895.18,1206.68 1898.42,1204.93 1901.66,1203.13 1904.9,1201.28 1908.14,1199.39 1911.38,1197.44 1914.62,1195.46 1917.87,1193.42 1921.11,1191.34 1924.35,1189.21 1927.59,1187.04 1930.83,1184.82 1934.07,1182.56 1937.31,1180.25 1940.56,1177.89 1943.8,1175.49 1947.04,1173.05 1950.28,1170.56 1953.52,1168.03 1956.76,1165.45 1960,1162.83 1963.24,1160.17 1966.49,1157.46 1969.73,1154.72 1972.97,1151.92 1976.21,1149.09 1979.45,1146.22 1982.69,1143.3 1985.93,1140.34 1989.18,1137.34 1992.42,1134.3 1995.66,1131.22 1998.9,1128.1 2002.14,1124.94 2005.38,1121.74 2008.62,1118.5 2011.87,1115.22 2015.11,1111.9 2018.35,1108.55 2021.59,1105.15 2024.83,1101.72 2028.07,1098.25 2031.31,1094.75 2034.56,1091.21 2037.8,1087.63 2041.04,1084.02 2044.28,1080.37 2047.52,1076.68 2050.76,1072.97 2054,1069.21 2057.24,1065.43 2060.49,1061.61 2063.73,1057.75 2066.97,1053.87 2070.21,1049.95 2073.45,1046 2076.69,1042.01 2079.93,1038 2083.18,1033.96 2086.42,1029.88 2089.66,1025.78 2092.9,1021.64 2096.14,1017.48 2099.38,1013.29 2102.62,1009.06 2105.87,1004.82 2109.11,1000.54 2112.35,996.236 2115.59,991.906 2118.83,987.549 2122.07,983.167 2125.31,978.76 2128.56,974.328 2131.8,969.871 2135.04,965.39 2138.28,960.886 2141.52,956.358 2144.76,951.808 2148,947.235 2151.25,942.641 2154.49,938.026 2157.73,933.39 2160.97,928.733 2164.21,924.056 2167.45,919.36 2170.69,914.645 2173.93,909.912 2177.18,905.161 2180.42,900.392 2183.66,895.605 2186.9,890.803 2190.14,885.984 2193.38,881.15 2196.62,876.3 2199.87,871.436 2203.11,866.557 2206.35,861.665 2209.59,856.76 2212.83,851.842 2216.07,846.912 2219.31,841.97 2222.56,837.016 2225.8,832.053 2229.04,827.078 2232.28,822.095 2235.52,817.101 2238.76,812.1 2242,807.089 2245.25,802.072 2248.49,797.046 2251.73,792.015 2254.97,786.976 2258.21,781.933 2261.45,776.884 2264.69,771.83 2267.94,766.772 2271.18,761.71 2274.42,756.645 2277.66,751.578 2280.9,746.508 2284.14,741.437 2287.38,736.364 2290.62,731.291 "/>
<circle clip-path="url(#clip042)" cx="780.139" cy="293.581" r="14.4" fill="#e26f46" fill-rule="evenodd" fill-opacity="1" stroke="#000000" stroke-opacity="1" stroke-width="3.2"/>
<circle clip-path="url(#clip042)" cx="530.552" cy="377.587" r="14.4" fill="#e26f46" fill-rule="evenodd" fill-opacity="1" stroke="#000000" stroke-opacity="1" stroke-width="3.2"/>
<circle clip-path="url(#clip042)" cx="1869.24" cy="1310.46" r="14.4" fill="#e26f46" fill-rule="evenodd" fill-opacity="1" stroke="#000000" stroke-opacity="1" stroke-width="3.2"/>
<circle clip-path="url(#clip042)" cx="1402.49" cy="1035.02" r="14.4" fill="#e26f46" fill-rule="evenodd" fill-opacity="1" stroke="#000000" stroke-opacity="1" stroke-width="3.2"/>
<circle clip-path="url(#clip042)" cx="1444.62" cy="940.343" r="14.4" fill="#e26f46" fill-rule="evenodd" fill-opacity="1" stroke="#000000" stroke-opacity="1" stroke-width="3.2"/>
<circle clip-path="url(#clip042)" cx="1007.04" cy="284.706" r="14.4" fill="#e26f46" fill-rule="evenodd" fill-opacity="1" stroke="#000000" stroke-opacity="1" stroke-width="3.2"/>
<circle clip-path="url(#clip042)" cx="1075.11" cy="351.674" r="14.4" fill="#e26f46" fill-rule="evenodd" fill-opacity="1" stroke="#000000" stroke-opacity="1" stroke-width="3.2"/>
<circle clip-path="url(#clip042)" cx="1071.86" cy="390.533" r="14.4" fill="#e26f46" fill-rule="evenodd" fill-opacity="1" stroke="#000000" stroke-opacity="1" stroke-width="3.2"/>
<circle clip-path="url(#clip042)" cx="1172.35" cy="465.642" r="14.4" fill="#e26f46" fill-rule="evenodd" fill-opacity="1" stroke="#000000" stroke-opacity="1" stroke-width="3.2"/>
<circle clip-path="url(#clip042)" cx="942.208" cy="294.216" r="14.4" fill="#e26f46" fill-rule="evenodd" fill-opacity="1" stroke="#000000" stroke-opacity="1" stroke-width="3.2"/>
<circle clip-path="url(#clip042)" cx="1736.35" cy="1148.14" r="14.4" fill="#e26f46" fill-rule="evenodd" fill-opacity="1" stroke="#000000" stroke-opacity="1" stroke-width="3.2"/>
<circle clip-path="url(#clip042)" cx="1574.28" cy="1179.86" r="14.4" fill="#e26f46" fill-rule="evenodd" fill-opacity="1" stroke="#000000" stroke-opacity="1" stroke-width="3.2"/>
<circle clip-path="url(#clip042)" cx="1716.9" cy="1163.85" r="14.4" fill="#e26f46" fill-rule="evenodd" fill-opacity="1" stroke="#000000" stroke-opacity="1" stroke-width="3.2"/>
<circle clip-path="url(#clip042)" cx="1690.97" cy="1214.5" r="14.4" fill="#e26f46" fill-rule="evenodd" fill-opacity="1" stroke="#000000" stroke-opacity="1" stroke-width="3.2"/>
<circle clip-path="url(#clip042)" cx="1344.14" cy="776.509" r="14.4" fill="#e26f46" fill-rule="evenodd" fill-opacity="1" stroke="#000000" stroke-opacity="1" stroke-width="3.2"/>
<circle clip-path="url(#clip042)" cx="1178.83" cy="610.984" r="14.4" fill="#e26f46" fill-rule="evenodd" fill-opacity="1" stroke="#000000" stroke-opacity="1" stroke-width="3.2"/>
<circle clip-path="url(#clip042)" cx="618.07" cy="179.714" r="14.4" fill="#e26f46" fill-rule="evenodd" fill-opacity="1" stroke="#000000" stroke-opacity="1" stroke-width="3.2"/>
<circle clip-path="url(#clip042)" cx="1917.87" cy="1294.33" r="14.4" fill="#e26f46" fill-rule="evenodd" fill-opacity="1" stroke="#000000" stroke-opacity="1" stroke-width="3.2"/>
<circle clip-path="url(#clip042)" cx="336.069" cy="653.2" r="14.4" fill="#e26f46" fill-rule="evenodd" fill-opacity="1" stroke="#000000" stroke-opacity="1" stroke-width="3.2"/>
<circle clip-path="url(#clip042)" cx="896.829" cy="383.263" r="14.4" fill="#e26f46" fill-rule="evenodd" fill-opacity="1" stroke="#000000" stroke-opacity="1" stroke-width="3.2"/>
<path clip-path="url(#clip042)" d="M255.035 966.114 L258.276 961.578 L261.517 957.015 L264.759 952.427 L268 947.816 L271.242 943.187 L274.483 938.541 L277.724 933.882 L280.966 929.214 L284.207 924.54 L287.449 919.865 L290.69 915.192 L293.931 910.526 L297.173 905.872 L300.414 901.233 L303.655 896.616 L306.897 892.024 L310.138 887.464 L313.38 882.94 L316.621 878.457 L319.862 874.022 L323.104 869.639 L326.345 865.313 L329.587 861.051 L332.828 856.856 L336.069 852.735 L339.311 848.689 L342.552 844.715 L345.793 840.807 L349.035 836.957 L352.276 833.16 L355.518 829.408 L358.759 825.695 L362 822.015 L365.242 818.36 L368.483 814.725 L371.725 811.102 L374.966 807.485 L378.207 803.869 L381.449 800.248 L384.69 796.616 L387.931 792.968 L391.173 789.299 L394.414 785.605 L397.656 781.88 L400.897 778.122 L404.138 774.326 L407.38 770.489 L410.621 766.609 L413.863 762.682 L417.104 758.706 L420.345 754.679 L423.587 750.601 L426.828 746.468 L430.069 742.282 L433.311 738.04 L436.552 733.743 L439.794 729.392 L443.035 724.986 L446.276 720.526 L449.518 716.015 L452.759 711.453 L456.001 706.842 L459.242 702.184 L462.483 697.483 L465.725 692.742 L468.966 687.963 L472.208 683.15 L475.449 678.309 L478.69 673.442 L481.932 668.556 L485.173 663.655 L488.414 658.746 L491.656 653.833 L494.897 648.924 L498.139 644.026 L501.38 639.146 L504.621 634.291 L507.863 629.469 L511.104 624.688 L514.346 619.958 L517.587 615.286 L520.828 610.682 L524.07 606.155 L527.311 601.715 L530.552 597.371 L533.794 593.132 L537.035 588.996 L540.277 584.963 L543.518 581.031 L546.759 577.198 L550.001 573.464 L553.242 569.827 L556.484 566.287 L559.725 562.844 L562.966 559.496 L566.208 556.246 L569.449 553.093 L572.69 550.038 L575.932 547.084 L579.173 544.232 L582.415 541.484 L585.656 538.844 L588.897 536.315 L592.139 533.9 L595.38 531.604 L598.622 529.431 L601.863 527.386 L605.104 525.473 L608.346 523.699 L611.587 522.069 L614.828 520.59 L618.07 519.266 L621.311 518.102 L624.553 517.088 L627.794 516.215 L631.035 515.47 L634.277 514.843 L637.518 514.324 L640.76 513.901 L644.001 513.567 L647.242 513.31 L650.484 513.122 L653.725 512.994 L656.966 512.918 L660.208 512.887 L663.449 512.892 L666.691 512.926 L669.932 512.984 L673.173 513.059 L676.415 513.145 L679.656 513.237 L682.898 513.33 L686.139 513.421 L689.38 513.504 L692.622 513.577 L695.863 513.637 L699.104 513.679 L702.346 513.703 L705.587 513.707 L708.829 513.688 L712.07 513.646 L715.311 513.579 L718.553 513.488 L721.794 513.373 L725.036 513.233 L728.277 513.07 L731.518 512.885 L734.76 512.679 L738.001 512.455 L741.242 512.213 L744.484 511.958 L747.725 511.691 L750.967 511.416 L754.208 511.137 L757.449 510.857 L760.691 510.58 L763.932 510.311 L767.174 510.055 L770.415 509.815 L773.656 509.598 L776.898 509.407 L780.139 509.249 L783.381 509.126 L786.622 509.034 L789.863 508.968 L793.105 508.921 L796.346 508.887 L799.587 508.861 L802.829 508.837 L806.07 508.81 L809.312 508.776 L812.553 508.729 L815.794 508.665 L819.036 508.58 L822.277 508.471 L825.519 508.335 L828.76 508.168 L832.001 507.969 L835.243 507.735 L838.484 507.466 L841.725 507.159 L844.967 506.816 L848.208 506.435 L851.45 506.017 L854.691 505.564 L857.932 505.076 L861.174 504.556 L864.415 504.006 L867.657 503.429 L870.898 502.829 L874.139 502.209 L877.381 501.575 L880.622 500.93 L883.863 500.281 L887.105 499.633 L890.346 498.992 L893.588 498.365 L896.829 497.759 L900.07 497.179 L903.312 496.628 L906.553 496.107 L909.795 495.618 L913.036 495.162 L916.277 494.743 L919.519 494.363 L922.76 494.024 L926.001 493.731 L929.243 493.487 L932.484 493.296 L935.726 493.164 L938.967 493.094 L942.208 493.093 L945.45 493.165 L948.691 493.306 L951.933 493.514 L955.174 493.783 L958.415 494.112 L961.657 494.496 L964.898 494.936 L968.139 495.428 L971.381 495.973 L974.622 496.57 L977.864 497.22 L981.105 497.925 L984.346 498.685 L987.588 499.505 L990.829 500.387 L994.071 501.336 L997.312 502.357 L1000.55 503.455 L1003.79 504.637 L1007.04 505.909 L1010.28 507.276 L1013.52 508.737 L1016.76 510.289 L1020 511.929 L1023.24 513.656 L1026.48 515.467 L1029.73 517.363 L1032.97 519.343 L1036.21 521.409 L1039.45 523.563 L1042.69 525.806 L1045.93 528.143 L1049.17 530.577 L1052.42 533.113 L1055.66 535.757 L1058.9 538.514 L1062.14 541.392 L1065.38 544.396 L1068.62 547.536 L1071.86 550.819 L1075.11 554.251 L1078.35 557.832 L1081.59 561.554 L1084.83 565.405 L1088.07 569.375 L1091.31 573.456 L1094.55 577.638 L1097.79 581.912 L1101.04 586.27 L1104.28 590.706 L1107.52 595.213 L1110.76 599.786 L1114 604.419 L1117.24 609.11 L1120.48 613.854 L1123.73 618.65 L1126.97 623.497 L1130.21 628.393 L1133.45 633.34 L1136.69 638.338 L1139.93 643.389 L1143.17 648.496 L1146.42 653.663 L1149.66 658.892 L1152.9 664.19 L1156.14 669.56 L1159.38 675.009 L1162.62 680.543 L1165.86 686.168 L1169.11 691.89 L1172.35 697.716 L1175.59 703.65 L1178.83 709.689 L1182.07 715.827 L1185.31 722.052 L1188.55 728.354 L1191.8 734.722 L1195.04 741.145 L1198.28 747.612 L1201.52 754.114 L1204.76 760.64 L1208 767.18 L1211.24 773.726 L1214.48 780.27 L1217.73 786.802 L1220.97 793.316 L1224.21 799.803 L1227.45 806.259 L1230.69 812.676 L1233.93 819.049 L1237.17 825.372 L1240.42 831.641 L1243.66 837.852 L1246.9 844 L1250.14 850.083 L1253.38 856.098 L1256.62 862.041 L1259.86 867.911 L1263.11 873.707 L1266.35 879.426 L1269.59 885.069 L1272.83 890.634 L1276.07 896.122 L1279.31 901.532 L1282.55 906.867 L1285.8 912.126 L1289.04 917.311 L1292.28 922.425 L1295.52 927.47 L1298.76 932.448 L1302 937.362 L1305.24 942.217 L1308.48 947.016 L1311.73 951.764 L1314.97 956.466 L1318.21 961.126 L1321.45 965.75 L1324.69 970.345 L1327.93 974.917 L1331.17 979.473 L1334.42 984.019 L1337.66 988.564 L1340.9 993.116 L1344.14 997.681 L1347.38 1002.27 L1350.62 1006.87 L1353.86 1011.49 L1357.11 1016.13 L1360.35 1020.78 L1363.59 1025.43 L1366.83 1030.09 L1370.07 1034.76 L1373.31 1039.43 L1376.55 1044.1 L1379.8 1048.78 L1383.04 1053.46 L1386.28 1058.14 L1389.52 1062.83 L1392.76 1067.52 L1396 1072.22 L1399.24 1076.93 L1402.49 1081.64 L1405.73 1086.37 L1408.97 1091.11 L1412.21 1095.85 L1415.45 1100.61 L1418.69 1105.38 L1421.93 1110.15 L1425.17 1114.94 L1428.42 1119.73 L1431.66 1124.54 L1434.9 1129.35 L1438.14 1134.18 L1441.38 1139.03 L1444.62 1143.88 L1447.86 1148.76 L1451.11 1153.64 L1454.35 1158.52 L1457.59 1163.39 L1460.83 1168.25 L1464.07 1173.07 L1467.31 1177.87 L1470.55 1182.63 L1473.8 1187.33 L1477.04 1191.99 L1480.28 1196.59 L1483.52 1201.12 L1486.76 1205.58 L1490 1209.97 L1493.24 1214.28 L1496.49 1218.51 L1499.73 1222.66 L1502.97 1226.72 L1506.21 1230.69 L1509.45 1234.56 L1512.69 1238.35 L1515.93 1242.04 L1519.18 1245.63 L1522.42 1249.13 L1525.66 1252.54 L1528.9 1255.85 L1532.14 1259.06 L1535.38 1262.18 L1538.62 1265.21 L1541.86 1268.15 L1545.11 1271 L1548.35 1273.77 L1551.59 1276.45 L1554.83 1279.05 L1558.07 1281.57 L1561.31 1284.02 L1564.55 1286.39 L1567.8 1288.7 L1571.04 1290.94 L1574.28 1293.12 L1577.52 1295.24 L1580.76 1297.3 L1584 1299.29 L1587.24 1301.23 L1590.49 1303.09 L1593.73 1304.88 L1596.97 1306.6 L1600.21 1308.25 L1603.45 1309.82 L1606.69 1311.32 L1609.93 1312.73 L1613.18 1314.07 L1616.42 1315.33 L1619.66 1316.52 L1622.9 1317.62 L1626.14 1318.65 L1629.38 1319.6 L1632.62 1320.48 L1635.86 1321.28 L1639.11 1322.02 L1642.35 1322.7 L1645.59 1323.31 L1648.83 1323.87 L1652.07 1324.37 L1655.31 1324.83 L1658.55 1325.25 L1661.8 1325.64 L1665.04 1326 L1668.28 1326.34 L1671.52 1326.68 L1674.76 1327.02 L1678 1327.37 L1681.24 1327.74 L1684.49 1328.14 L1687.73 1328.59 L1690.97 1329.09 L1694.21 1329.65 L1697.45 1330.29 L1700.69 1331.01 L1703.93 1331.81 L1707.18 1332.71 L1710.42 1333.7 L1713.66 1334.79 L1716.9 1335.99 L1720.14 1337.31 L1723.38 1338.73 L1726.62 1340.27 L1729.87 1341.91 L1733.11 1343.65 L1736.35 1345.49 L1739.59 1347.43 L1742.83 1349.44 L1746.07 1351.53 L1749.31 1353.67 L1752.55 1355.85 L1755.8 1358.07 L1759.04 1360.3 L1762.28 1362.54 L1765.52 1364.78 L1768.76 1367 L1772 1369.21 L1775.24 1371.38 L1778.49 1373.52 L1781.73 1375.61 L1784.97 1377.65 L1788.21 1379.64 L1791.45 1381.56 L1794.69 1383.42 L1797.93 1385.21 L1801.18 1386.93 L1804.42 1388.57 L1807.66 1390.14 L1810.9 1391.63 L1814.14 1393.04 L1817.38 1394.37 L1820.62 1395.63 L1823.87 1396.81 L1827.11 1397.91 L1830.35 1398.95 L1833.59 1399.91 L1836.83 1400.82 L1840.07 1401.66 L1843.31 1402.45 L1846.55 1403.18 L1849.8 1403.88 L1853.04 1404.53 L1856.28 1405.15 L1859.52 1405.75 L1862.76 1406.33 L1866 1406.9 L1869.24 1407.47 L1872.49 1408.04 L1875.73 1408.62 L1878.97 1409.21 L1882.21 1409.81 L1885.45 1410.43 L1888.69 1411.06 L1891.93 1411.72 L1895.18 1412.39 L1898.42 1413.09 L1901.66 1413.81 L1904.9 1414.56 L1908.14 1415.35 L1911.38 1416.16 L1914.62 1417.01 L1917.87 1417.9 L1921.11 1418.83 L1924.35 1419.79 L1927.59 1420.78 L1930.83 1421.79 L1934.07 1422.82 L1937.31 1423.87 L1940.56 1424.92 L1943.8 1425.98 L1947.04 1427.04 L1950.28 1428.1 L1953.52 1429.15 L1956.76 1430.18 L1960 1431.2 L1963.24 1432.2 L1966.49 1433.18 L1969.73 1434.13 L1972.97 1435.06 L1976.21 1435.96 L1979.45 1436.82 L1982.69 1437.65 L1985.93 1438.45 L1989.18 1439.2 L1992.42 1439.92 L1995.66 1440.61 L1998.9 1441.25 L2002.14 1441.84 L2005.38 1442.4 L2008.62 1442.92 L2011.87 1443.39 L2015.11 1443.82 L2018.35 1444.2 L2021.59 1444.54 L2024.83 1444.84 L2028.07 1445.09 L2031.31 1445.3 L2034.56 1445.47 L2037.8 1445.59 L2041.04 1445.68 L2044.28 1445.72 L2047.52 1445.71 L2050.76 1445.67 L2054 1445.59 L2057.24 1445.46 L2060.49 1445.3 L2063.73 1445.09 L2066.97 1444.85 L2070.21 1444.57 L2073.45 1444.26 L2076.69 1443.9 L2079.93 1443.51 L2083.18 1443.09 L2086.42 1442.63 L2089.66 1442.14 L2092.9 1441.62 L2096.14 1441.07 L2099.38 1440.48 L2102.62 1439.86 L2105.87 1439.22 L2109.11 1438.54 L2112.35 1437.84 L2115.59 1437.11 L2118.83 1436.36 L2122.07 1435.57 L2125.31 1434.77 L2128.56 1433.94 L2131.8 1433.08 L2135.04 1432.21 L2138.28 1431.31 L2141.52 1430.39 L2144.76 1429.45 L2148 1428.49 L2151.25 1427.51 L2154.49 1426.52 L2157.73 1425.5 L2160.97 1424.47 L2164.21 1423.43 L2167.45 1422.37 L2170.69 1421.29 L2173.93 1420.2 L2177.18 1419.09 L2180.42 1417.98 L2183.66 1416.85 L2186.9 1415.7 L2190.14 1414.55 L2193.38 1413.39 L2196.62 1412.21 L2199.87 1411.03 L2203.11 1409.84 L2206.35 1408.64 L2209.59 1407.43 L2212.83 1406.22 L2216.07 1404.99 L2219.31 1403.77 L2222.56 1402.53 L2225.8 1401.29 L2229.04 1400.05 L2232.28 1398.8 L2235.52 1397.55 L2238.76 1396.29 L2242 1395.03 L2245.25 1393.77 L2248.49 1392.5 L2251.73 1391.24 L2254.97 1389.97 L2258.21 1388.7 L2261.45 1387.43 L2264.69 1386.15 L2267.94 1384.88 L2271.18 1383.61 L2274.42 1382.34 L2277.66 1381.07 L2280.9 1379.8 L2284.14 1378.54 L2287.38 1377.27 L2290.62 1376.01 L2290.62 427.802 L2287.38 430.669 L2284.14 433.573 L2280.9 436.515 L2277.66 439.494 L2274.42 442.512 L2271.18 445.569 L2267.94 448.665 L2264.69 451.801 L2261.45 454.976 L2258.21 458.192 L2254.97 461.448 L2251.73 464.746 L2248.49 468.085 L2245.25 471.466 L2242 474.89 L2238.76 478.356 L2235.52 481.864 L2232.28 485.417 L2229.04 489.013 L2225.8 492.653 L2222.56 496.337 L2219.31 500.066 L2216.07 503.841 L2212.83 507.661 L2209.59 511.526 L2206.35 515.438 L2203.11 519.396 L2199.87 523.401 L2196.62 527.453 L2193.38 531.552 L2190.14 535.699 L2186.9 539.894 L2183.66 544.137 L2180.42 548.428 L2177.18 552.768 L2173.93 557.157 L2170.69 561.595 L2167.45 566.082 L2164.21 570.619 L2160.97 575.205 L2157.73 579.841 L2154.49 584.527 L2151.25 589.263 L2148 594.049 L2144.76 598.885 L2141.52 603.771 L2138.28 608.708 L2135.04 613.695 L2131.8 618.732 L2128.56 623.819 L2125.31 628.956 L2122.07 634.144 L2118.83 639.38 L2115.59 644.667 L2112.35 650.003 L2109.11 655.388 L2105.87 660.821 L2102.62 666.303 L2099.38 671.833 L2096.14 677.411 L2092.9 683.036 L2089.66 688.707 L2086.42 694.424 L2083.18 700.187 L2079.93 705.994 L2076.69 711.845 L2073.45 717.738 L2070.21 723.674 L2066.97 729.651 L2063.73 735.668 L2060.49 741.723 L2057.24 747.816 L2054 753.945 L2050.76 760.109 L2047.52 766.306 L2044.28 772.535 L2041.04 778.793 L2037.8 785.079 L2034.56 791.391 L2031.31 797.727 L2028.07 804.084 L2024.83 810.461 L2021.59 816.853 L2018.35 823.259 L2015.11 829.676 L2011.87 836.101 L2008.62 842.53 L2005.38 848.959 L2002.14 855.386 L1998.9 861.806 L1995.66 868.215 L1992.42 874.608 L1989.18 880.981 L1985.93 887.328 L1982.69 893.646 L1979.45 899.927 L1976.21 906.166 L1972.97 912.357 L1969.73 918.493 L1966.49 924.568 L1963.24 930.574 L1960 936.503 L1956.76 942.348 L1953.52 948.1 L1950.28 953.75 L1947.04 959.289 L1943.8 964.707 L1940.56 969.995 L1937.31 975.142 L1934.07 980.136 L1930.83 984.968 L1927.59 989.626 L1924.35 994.098 L1921.11 998.372 L1917.87 1002.44 L1914.62 1006.28 L1911.38 1009.91 L1908.14 1013.32 L1904.9 1016.52 L1901.66 1019.51 L1898.42 1022.3 L1895.18 1024.88 L1891.93 1027.26 L1888.69 1029.44 L1885.45 1031.42 L1882.21 1033.22 L1878.97 1034.81 L1875.73 1036.22 L1872.49 1037.44 L1869.24 1038.47 L1866 1039.32 L1862.76 1039.99 L1859.52 1040.51 L1856.28 1040.88 L1853.04 1041.13 L1849.8 1041.26 L1846.55 1041.29 L1843.31 1041.23 L1840.07 1041.09 L1836.83 1040.89 L1833.59 1040.64 L1830.35 1040.34 L1827.11 1040 L1823.87 1039.64 L1820.62 1039.26 L1817.38 1038.87 L1814.14 1038.48 L1810.9 1038.08 L1807.66 1037.69 L1804.42 1037.32 L1801.18 1036.95 L1797.93 1036.6 L1794.69 1036.27 L1791.45 1035.96 L1788.21 1035.67 L1784.97 1035.39 L1781.73 1035.14 L1778.49 1034.9 L1775.24 1034.68 L1772 1034.46 L1768.76 1034.25 L1765.52 1034.05 L1762.28 1033.83 L1759.04 1033.61 L1755.8 1033.37 L1752.55 1033.1 L1749.31 1032.79 L1746.07 1032.44 L1742.83 1032.04 L1739.59 1031.57 L1736.35 1031.02 L1733.11 1030.39 L1729.87 1029.66 L1726.62 1028.84 L1723.38 1027.91 L1720.14 1026.88 L1716.9 1025.73 L1713.66 1024.46 L1710.42 1023.08 L1707.18 1021.58 L1703.93 1019.97 L1700.69 1018.24 L1697.45 1016.41 L1694.21 1014.47 L1690.97 1012.42 L1687.73 1010.27 L1684.49 1008.02 L1681.24 1005.69 L1678 1003.29 L1674.76 1000.83 L1671.52 998.315 L1668.28 995.756 L1665.04 993.162 L1661.8 990.541 L1658.55 987.901 L1655.31 985.246 L1652.07 982.584 L1648.83 979.918 L1645.59 977.254 L1642.35 974.594 L1639.11 971.941 L1635.86 969.298 L1632.62 966.666 L1629.38 964.046 L1626.14 961.438 L1622.9 958.841 L1619.66 956.255 L1616.42 953.679 L1613.18 951.109 L1609.93 948.544 L1606.69 945.98 L1603.45 943.415 L1600.21 940.843 L1596.97 938.26 L1593.73 935.662 L1590.49 933.043 L1587.24 930.398 L1584 927.721 L1580.76 925.005 L1577.52 922.245 L1574.28 919.433 L1571.04 916.565 L1567.8 913.646 L1564.55 910.683 L1561.31 907.681 L1558.07 904.647 L1554.83 901.588 L1551.59 898.508 L1548.35 895.413 L1545.11 892.309 L1541.86 889.2 L1538.62 886.09 L1535.38 882.984 L1532.14 879.884 L1528.9 876.795 L1525.66 873.718 L1522.42 870.656 L1519.18 867.611 L1515.93 864.585 L1512.69 861.577 L1509.45 858.589 L1506.21 855.62 L1502.97 852.671 L1499.73 849.739 L1496.49 846.823 L1493.24 843.921 L1490 841.031 L1486.76 838.15 L1483.52 835.273 L1480.28 832.397 L1477.04 829.516 L1473.8 826.626 L1470.55 823.721 L1467.31 820.794 L1464.07 817.839 L1460.83 814.848 L1457.59 811.812 L1454.35 808.725 L1451.11 805.577 L1447.86 802.358 L1444.62 799.06 L1441.38 795.675 L1438.14 792.197 L1434.9 788.625 L1431.66 784.955 L1428.42 781.185 L1425.17 777.31 L1421.93 773.327 L1418.69 769.231 L1415.45 765.018 L1412.21 760.683 L1408.97 756.22 L1405.73 751.625 L1402.49 746.891 L1399.24 742.015 L1396 737.003 L1392.76 731.865 L1389.52 726.608 L1386.28 721.241 L1383.04 715.771 L1379.8 710.206 L1376.55 704.552 L1373.31 698.817 L1370.07 693.006 L1366.83 687.124 L1363.59 681.177 L1360.35 675.17 L1357.11 669.106 L1353.86 662.99 L1350.62 656.825 L1347.38 650.614 L1344.14 644.361 L1340.9 638.069 L1337.66 631.747 L1334.42 625.403 L1331.17 619.047 L1327.93 612.689 L1324.69 606.335 L1321.45 599.994 L1318.21 593.674 L1314.97 587.382 L1311.73 581.124 L1308.48 574.908 L1305.24 568.739 L1302 562.622 L1298.76 556.564 L1295.52 550.568 L1292.28 544.638 L1289.04 538.78 L1285.8 532.995 L1282.55 527.288 L1279.31 521.66 L1276.07 516.115 L1272.83 510.653 L1269.59 505.277 L1266.35 499.988 L1263.11 494.786 L1259.86 489.671 L1256.62 484.644 L1253.38 479.704 L1250.14 474.85 L1246.9 470.081 L1243.66 465.395 L1240.42 460.79 L1237.17 456.263 L1233.93 451.813 L1230.69 447.434 L1227.45 443.124 L1224.21 438.879 L1220.97 434.693 L1217.73 430.561 L1214.48 426.478 L1211.24 422.438 L1208 418.435 L1204.76 414.46 L1201.52 410.508 L1198.28 406.57 L1195.04 402.638 L1191.8 398.703 L1188.55 394.758 L1185.31 390.793 L1182.07 386.799 L1178.83 382.768 L1175.59 378.691 L1172.35 374.571 L1169.11 370.412 L1165.86 366.221 L1162.62 362.006 L1159.38 357.776 L1156.14 353.539 L1152.9 349.304 L1149.66 345.077 L1146.42 340.867 L1143.17 336.68 L1139.93 332.523 L1136.69 328.402 L1133.45 324.321 L1130.21 320.287 L1126.97 316.302 L1123.73 312.37 L1120.48 308.493 L1117.24 304.674 L1114 300.913 L1110.76 297.211 L1107.52 293.568 L1104.28 289.981 L1101.04 286.451 L1097.79 282.973 L1094.55 279.545 L1091.31 276.164 L1088.07 272.825 L1084.83 269.524 L1081.59 266.255 L1078.35 263.013 L1075.11 259.792 L1071.86 256.589 L1068.62 253.402 L1065.38 250.236 L1062.14 247.099 L1058.9 243.995 L1055.66 240.931 L1052.42 237.913 L1049.17 234.945 L1045.93 232.032 L1042.69 229.178 L1039.45 226.387 L1036.21 223.662 L1032.97 221.004 L1029.73 218.417 L1026.48 215.9 L1023.24 213.454 L1020 211.08 L1016.76 208.776 L1013.52 206.542 L1010.28 204.375 L1007.04 202.275 L1003.79 200.238 L1000.55 198.266 L997.312 196.36 L994.071 194.52 L990.829 192.747 L987.588 191.041 L984.346 189.401 L981.105 187.825 L977.864 186.311 L974.622 184.857 L971.381 183.46 L968.139 182.116 L964.898 180.821 L961.657 179.57 L958.415 178.357 L955.174 177.178 L951.933 176.025 L948.691 174.891 L945.45 173.771 L942.208 172.656 L938.967 171.541 L935.726 170.422 L932.484 169.297 L929.243 168.166 L926.001 167.026 L922.76 165.874 L919.519 164.708 L916.277 163.524 L913.036 162.32 L909.795 161.092 L906.553 159.835 L903.312 158.546 L900.07 157.22 L896.829 155.853 L893.588 154.441 L890.346 152.99 L887.105 151.507 L883.863 149.998 L880.622 148.469 L877.381 146.926 L874.139 145.375 L870.898 143.821 L867.657 142.27 L864.415 140.724 L861.174 139.19 L857.932 137.669 L854.691 136.165 L851.45 134.681 L848.208 133.22 L844.967 131.782 L841.725 130.37 L838.484 128.984 L835.243 127.624 L832.001 126.292 L828.76 124.987 L825.519 123.707 L822.277 122.453 L819.036 121.223 L815.794 120.014 L812.553 118.826 L809.312 117.655 L806.07 116.499 L802.829 115.355 L799.587 114.221 L796.346 113.092 L793.105 111.965 L789.863 110.837 L786.622 109.704 L783.381 108.563 L780.139 107.409 L776.898 106.24 L773.656 105.062 L770.415 103.879 L767.174 102.699 L763.932 101.528 L760.691 100.372 L757.449 99.2358 L754.208 98.1264 L750.967 97.0493 L747.725 96.0099 L744.484 95.0136 L741.242 94.0655 L738.001 93.1704 L734.76 92.333 L731.518 91.5578 L728.277 90.8489 L725.036 90.2101 L721.794 89.6451 L718.553 89.1574 L715.311 88.7499 L712.07 88.4257 L708.829 88.1871 L705.587 88.0367 L702.346 87.9763 L699.104 88.0078 L695.863 88.1326 L692.622 88.352 L689.38 88.6669 L686.139 89.078 L682.898 89.5856 L679.656 90.1898 L676.415 90.8905 L673.173 91.687 L669.932 92.5788 L666.691 93.5646 L663.449 94.6432 L660.208 95.8128 L656.966 97.0716 L653.725 98.4173 L650.484 99.8475 L647.242 101.359 L644.001 102.95 L640.76 104.616 L637.518 106.354 L634.277 108.16 L631.035 110.03 L627.794 111.961 L624.553 113.949 L621.311 115.988 L618.07 118.076 L614.828 120.208 L611.587 122.383 L608.346 124.601 L605.104 126.861 L601.863 129.162 L598.622 131.503 L595.38 133.884 L592.139 136.303 L588.897 138.76 L585.656 141.252 L582.415 143.778 L579.173 146.336 L575.932 148.925 L572.69 151.54 L569.449 154.181 L566.208 156.842 L562.966 159.522 L559.725 162.217 L556.484 164.923 L553.242 167.635 L550.001 170.349 L546.759 173.061 L543.518 175.767 L540.277 178.461 L537.035 181.138 L533.794 183.794 L530.552 186.423 L527.311 189.023 L524.07 191.597 L520.828 194.15 L517.587 196.686 L514.346 199.212 L511.104 201.733 L507.863 204.252 L504.621 206.775 L501.38 209.305 L498.139 211.848 L494.897 214.406 L491.656 216.984 L488.414 219.584 L485.173 222.21 L481.932 224.865 L478.69 227.549 L475.449 230.266 L472.208 233.017 L468.966 235.804 L465.725 238.627 L462.483 241.487 L459.242 244.385 L456.001 247.32 L452.759 250.293 L449.518 253.302 L446.276 256.347 L443.035 259.426 L439.794 262.538 L436.552 265.681 L433.311 268.853 L430.069 272.05 L426.828 275.271 L423.587 278.512 L420.345 281.77 L417.104 285.039 L413.863 288.318 L410.621 291.6 L407.38 294.88 L404.138 298.155 L400.897 301.417 L397.656 304.662 L394.414 307.882 L391.173 311.072 L387.931 314.223 L384.69 317.33 L381.449 320.384 L378.207 323.378 L374.966 326.304 L371.725 329.152 L368.483 331.914 L365.242 334.582 L362 337.146 L358.759 339.597 L355.518 341.926 L352.276 344.123 L349.035 346.178 L345.793 348.082 L342.552 349.826 L339.311 351.4 L336.069 352.795 L332.828 354.005 L329.587 355.033 L326.345 355.887 L323.104 356.575 L319.862 357.102 L316.621 357.478 L313.38 357.708 L310.138 357.801 L306.897 357.764 L303.655 357.603 L300.414 357.326 L297.173 356.939 L293.931 356.45 L290.69 355.864 L287.449 355.188 L284.207 354.427 L280.966 353.588 L277.724 352.676 L274.483 351.696 L271.242 350.654 L268 349.554 L264.759 348.401 L261.517 347.2 L258.276 345.953 L255.035 344.667  Z" fill="#3da44d" fill-rule="evenodd" fill-opacity="0.1"/>
<polyline clip-path="url(#clip042)" style="stroke:#3da44d; stroke-linecap:round; stroke-linejoin:round; stroke-width:8; stroke-opacity:1; fill:none" points="255.035,655.39 258.276,653.766 261.517,652.107 264.759,650.414 268,648.685 271.242,646.92 274.483,645.119 277.724,643.279 280.966,641.401 284.207,639.484 287.449,637.526 290.69,635.528 293.931,633.488 297.173,631.406 300.414,629.28 303.655,627.109 306.897,624.894 310.138,622.633 313.38,620.324 316.621,617.968 319.862,615.562 323.104,613.107 326.345,610.6 329.587,608.042 332.828,605.431 336.069,602.765 339.311,600.045 342.552,597.271 345.793,594.445 349.035,591.568 352.276,588.641 355.518,585.667 358.759,582.646 362,579.581 365.242,576.471 368.483,573.319 371.725,570.127 374.966,566.894 378.207,563.624 381.449,560.316 384.69,556.973 387.931,553.596 391.173,550.185 394.414,546.743 397.656,543.271 400.897,539.77 404.138,536.241 407.38,532.685 410.621,529.104 413.863,525.5 417.104,521.873 420.345,518.224 423.587,514.556 426.828,510.87 430.069,507.166 433.311,503.446 436.552,499.712 439.794,495.965 443.035,492.206 446.276,488.437 449.518,484.658 452.759,480.873 456.001,477.081 459.242,473.285 462.483,469.485 465.725,465.684 468.966,461.883 472.208,458.084 475.449,454.287 478.69,450.496 481.932,446.71 485.173,442.933 488.414,439.165 491.656,435.409 494.897,431.665 498.139,427.937 501.38,424.226 504.621,420.533 507.863,416.86 511.104,413.21 514.346,409.585 517.587,405.986 520.828,402.416 524.07,398.876 527.311,395.369 530.552,391.897 533.794,388.463 537.035,385.067 540.277,381.712 543.518,378.399 546.759,375.13 550.001,371.907 553.242,368.731 556.484,365.605 559.725,362.53 562.966,359.509 566.208,356.544 569.449,353.637 572.69,350.789 575.932,348.004 579.173,345.284 582.415,342.631 585.656,340.048 588.897,337.537 592.139,335.102 595.38,332.744 598.622,330.467 601.863,328.274 605.104,326.167 608.346,324.15 611.587,322.226 614.828,320.399 618.07,318.671 621.311,317.045 624.553,315.518 627.794,314.088 631.035,312.75 634.277,311.501 637.518,310.339 640.76,309.259 644.001,308.258 647.242,307.335 650.484,306.485 653.725,305.706 656.966,304.995 660.208,304.35 663.449,303.767 666.691,303.245 669.932,302.781 673.173,302.373 676.415,302.018 679.656,301.713 682.898,301.458 686.139,301.249 689.38,301.086 692.622,300.965 695.863,300.885 699.104,300.844 702.346,300.84 705.587,300.872 708.829,300.937 712.07,301.036 715.311,301.165 718.553,301.323 721.794,301.509 725.036,301.722 728.277,301.96 731.518,302.221 734.76,302.506 738.001,302.812 741.242,303.139 744.484,303.486 747.725,303.85 750.967,304.233 754.208,304.632 757.449,305.046 760.691,305.476 763.932,305.92 767.174,306.377 770.415,306.847 773.656,307.33 776.898,307.824 780.139,308.329 783.381,308.844 786.622,309.369 789.863,309.902 793.105,310.443 796.346,310.989 799.587,311.541 802.829,312.096 806.07,312.655 809.312,313.215 812.553,313.777 815.794,314.339 819.036,314.901 822.277,315.462 825.519,316.021 828.76,316.577 832.001,317.131 835.243,317.68 838.484,318.225 841.725,318.765 844.967,319.299 848.208,319.827 851.45,320.349 854.691,320.864 857.932,321.372 861.174,321.873 864.415,322.365 867.657,322.849 870.898,323.325 874.139,323.792 877.381,324.25 880.622,324.699 883.863,325.139 887.105,325.57 890.346,325.991 893.588,326.403 896.829,326.806 900.07,327.2 903.312,327.587 906.553,327.971 909.795,328.355 913.036,328.741 916.277,329.134 919.519,329.535 922.76,329.949 926.001,330.378 929.243,330.826 932.484,331.297 935.726,331.793 938.967,332.317 942.208,332.875 945.45,333.468 948.691,334.099 951.933,334.769 955.174,335.48 958.415,336.234 961.657,337.033 964.898,337.878 968.139,338.772 971.381,339.717 974.622,340.714 977.864,341.766 981.105,342.875 984.346,344.043 987.588,345.273 990.829,346.567 994.071,347.928 997.312,349.358 1000.55,350.86 1003.79,352.437 1007.04,354.092 1010.28,355.826 1013.52,357.64 1016.76,359.533 1020,361.505 1023.24,363.555 1026.48,365.683 1029.73,367.89 1032.97,370.174 1036.21,372.536 1039.45,374.975 1042.69,377.492 1045.93,380.088 1049.17,382.761 1052.42,385.513 1055.66,388.344 1058.9,391.255 1062.14,394.245 1065.38,397.316 1068.62,400.469 1071.86,403.704 1075.11,407.022 1078.35,410.423 1081.59,413.904 1084.83,417.464 1088.07,421.1 1091.31,424.81 1094.55,428.592 1097.79,432.442 1101.04,436.36 1104.28,440.344 1107.52,444.39 1110.76,448.499 1114,452.666 1117.24,456.892 1120.48,461.174 1123.73,465.51 1126.97,469.899 1130.21,474.34 1133.45,478.831 1136.69,483.37 1139.93,487.956 1143.17,492.588 1146.42,497.265 1149.66,501.985 1152.9,506.747 1156.14,511.55 1159.38,516.393 1162.62,521.275 1165.86,526.194 1169.11,531.151 1172.35,536.144 1175.59,541.171 1178.83,546.229 1182.07,551.313 1185.31,556.422 1188.55,561.556 1191.8,566.713 1195.04,571.891 1198.28,577.091 1201.52,582.311 1204.76,587.55 1208,592.807 1211.24,598.082 1214.48,603.374 1217.73,608.682 1220.97,614.004 1224.21,619.341 1227.45,624.692 1230.69,630.055 1233.93,635.431 1237.17,640.818 1240.42,646.215 1243.66,651.623 1246.9,657.04 1250.14,662.467 1253.38,667.901 1256.62,673.343 1259.86,678.791 1263.11,684.246 1266.35,689.707 1269.59,695.173 1272.83,700.644 1276.07,706.118 1279.31,711.596 1282.55,717.077 1285.8,722.56 1289.04,728.045 1292.28,733.532 1295.52,739.019 1298.76,744.506 1302,749.992 1305.24,755.478 1308.48,760.962 1311.73,766.444 1314.97,771.924 1318.21,777.4 1321.45,782.872 1324.69,788.34 1327.93,793.803 1331.17,799.26 1334.42,804.711 1337.66,810.156 1340.9,815.592 1344.14,821.021 1347.38,826.441 1350.62,831.849 1353.86,837.242 1357.11,842.618 1360.35,847.973 1363.59,853.304 1366.83,858.608 1370.07,863.882 1373.31,869.123 1376.55,874.328 1379.8,879.493 1383.04,884.616 1386.28,889.692 1389.52,894.72 1392.76,899.694 1396,904.612 1399.24,909.471 1402.49,914.267 1405.73,918.997 1408.97,923.663 1412.21,928.268 1415.45,932.814 1418.69,937.303 1421.93,941.739 1425.17,946.123 1428.42,950.458 1431.66,954.746 1434.9,958.989 1438.14,963.19 1441.38,967.35 1444.62,971.473 1447.86,975.558 1451.11,979.608 1454.35,983.623 1457.59,987.602 1460.83,991.547 1464.07,995.457 1467.31,999.332 1470.55,1003.17 1473.8,1006.98 1477.04,1010.75 1480.28,1014.49 1483.52,1018.2 1486.76,1021.87 1490,1025.5 1493.24,1029.1 1496.49,1032.67 1499.73,1036.2 1502.97,1039.69 1506.21,1043.15 1509.45,1046.58 1512.69,1049.96 1515.93,1053.31 1519.18,1056.62 1522.42,1059.9 1525.66,1063.13 1528.9,1066.32 1532.14,1069.47 1535.38,1072.58 1538.62,1075.65 1541.86,1078.68 1545.11,1081.66 1548.35,1084.59 1551.59,1087.48 1554.83,1090.32 1558.07,1093.11 1561.31,1095.85 1564.55,1098.54 1567.8,1101.17 1571.04,1103.75 1574.28,1106.28 1577.52,1108.74 1580.76,1111.15 1584,1113.51 1587.24,1115.81 1590.49,1118.07 1593.73,1120.27 1596.97,1122.43 1600.21,1124.55 1603.45,1126.62 1606.69,1128.65 1609.93,1130.64 1613.18,1132.59 1616.42,1134.51 1619.66,1136.39 1622.9,1138.23 1626.14,1140.04 1629.38,1141.82 1632.62,1143.57 1635.86,1145.29 1639.11,1146.98 1642.35,1148.65 1645.59,1150.28 1648.83,1151.89 1652.07,1153.48 1655.31,1155.04 1658.55,1156.57 1661.8,1158.09 1665.04,1159.58 1668.28,1161.05 1671.52,1162.5 1674.76,1163.92 1678,1165.33 1681.24,1166.72 1684.49,1168.08 1687.73,1169.43 1690.97,1170.75 1694.21,1172.06 1697.45,1173.35 1700.69,1174.63 1703.93,1175.89 1707.18,1177.14 1710.42,1178.39 1713.66,1179.62 1716.9,1180.86 1720.14,1182.09 1723.38,1183.32 1726.62,1184.55 1729.87,1185.78 1733.11,1187.02 1736.35,1188.26 1739.59,1189.5 1742.83,1190.74 1746.07,1191.99 1749.31,1193.23 1752.55,1194.48 1755.8,1195.72 1759.04,1196.95 1762.28,1198.19 1765.52,1199.41 1768.76,1200.63 1772,1201.83 1775.24,1203.03 1778.49,1204.21 1781.73,1205.37 1784.97,1206.52 1788.21,1207.65 1791.45,1208.76 1794.69,1209.85 1797.93,1210.91 1801.18,1211.94 1804.42,1212.94 1807.66,1213.92 1810.9,1214.85 1814.14,1215.76 1817.38,1216.62 1820.62,1217.44 1823.87,1218.22 1827.11,1218.96 1830.35,1219.64 1833.59,1220.28 1836.83,1220.86 1840.07,1221.38 1843.31,1221.84 1846.55,1222.24 1849.8,1222.57 1853.04,1222.83 1856.28,1223.02 1859.52,1223.13 1862.76,1223.16 1866,1223.11 1869.24,1222.97 1872.49,1222.74 1875.73,1222.42 1878.97,1222.01 1882.21,1221.52 1885.45,1220.93 1888.69,1220.25 1891.93,1219.49 1895.18,1218.63 1898.42,1217.69 1901.66,1216.66 1904.9,1215.54 1908.14,1214.33 1911.38,1213.04 1914.62,1211.65 1917.87,1210.17 1921.11,1208.6 1924.35,1206.94 1927.59,1205.2 1930.83,1203.38 1934.07,1201.48 1937.31,1199.51 1940.56,1197.46 1943.8,1195.35 1947.04,1193.17 1950.28,1190.92 1953.52,1188.62 1956.76,1186.26 1960,1183.85 1963.24,1181.39 1966.49,1178.87 1969.73,1176.31 1972.97,1173.71 1976.21,1171.06 1979.45,1168.37 1982.69,1165.65 1985.93,1162.89 1989.18,1160.09 1992.42,1157.27 1995.66,1154.41 1998.9,1151.53 2002.14,1148.62 2005.38,1145.68 2008.62,1142.72 2011.87,1139.74 2015.11,1136.75 2018.35,1133.73 2021.59,1130.7 2024.83,1127.65 2028.07,1124.59 2031.31,1121.52 2034.56,1118.43 2037.8,1115.34 2041.04,1112.23 2044.28,1109.13 2047.52,1106.01 2050.76,1102.89 2054,1099.77 2057.24,1096.64 2060.49,1093.51 2063.73,1090.38 2066.97,1087.25 2070.21,1084.12 2073.45,1081 2076.69,1077.87 2079.93,1074.75 2083.18,1071.64 2086.42,1068.53 2089.66,1065.43 2092.9,1062.33 2096.14,1059.24 2099.38,1056.16 2102.62,1053.08 2105.87,1050.02 2109.11,1046.97 2112.35,1043.92 2115.59,1040.89 2118.83,1037.87 2122.07,1034.86 2125.31,1031.86 2128.56,1028.88 2131.8,1025.91 2135.04,1022.95 2138.28,1020.01 2141.52,1017.08 2144.76,1014.17 2148,1011.27 2151.25,1008.39 2154.49,1005.52 2157.73,1002.67 2160.97,999.84 2164.21,997.023 2167.45,994.224 2170.69,991.442 2173.93,988.677 2177.18,985.931 2180.42,983.202 2183.66,980.491 2186.9,977.799 2190.14,975.125 2193.38,972.47 2196.62,969.834 2199.87,967.216 2203.11,964.618 2206.35,962.039 2209.59,959.479 2212.83,956.939 2216.07,954.418 2219.31,951.916 2222.56,949.435 2225.8,946.973 2229.04,944.53 2232.28,942.108 2235.52,939.705 2238.76,937.322 2242,934.96 2245.25,932.617 2248.49,930.294 2251.73,927.991 2254.97,925.708 2258.21,923.444 2261.45,921.201 2264.69,918.978 2267.94,916.774 2271.18,914.591 2274.42,912.427 2277.66,910.283 2280.9,908.159 2284.14,906.054 2287.38,903.969 2290.62,901.904 "/>
<polyline clip-path="url(#clip042)" style="stroke:#c271d2; stroke-linecap:round; stroke-linejoin:round; stroke-width:12; stroke-opacity:1; fill:none" points="255.035,864.97 362.225,742.859 469.416,613.751 576.607,481.689 683.797,444.361 790.988,444.219 898.179,442.001 1005.37,455.762 1112.56,553.022 1219.75,732.65 1326.94,914.477 1434.13,1072.8 1541.32,1205.99 1648.51,1267.8 1755.7,1305.17 1862.89,1346.72 1970.09,1350.19 2077.28,1324.53 2184.47,1274.4 2291.66,1221.2 "/>
<polyline clip-path="url(#clip042)" style="stroke:#ac8d18; stroke-linecap:round; stroke-linejoin:round; stroke-width:12; stroke-opacity:1; fill:none" points="255.035,445.81 362.225,415.873 469.416,308.961 576.607,213.176 683.797,158.43 790.988,175.96 898.179,211.941 1005.37,250.7 1112.56,348.588 1219.75,491.359 1326.94,669.786 1434.13,843.174 1541.32,950.362 1648.51,1035.67 1755.7,1086.2 1862.89,1099.6 1970.09,1001.87 2077.28,830.096 2184.47,685.239 2291.66,581.304 "/>
<path clip-path="url(#clip040)" d="M1953.46 406.258 L2280.8 406.258 L2280.8 95.2176 L1953.46 95.2176  Z" fill="#ffffff" fill-rule="evenodd" fill-opacity="1"/>
<polyline clip-path="url(#clip040)" style="stroke:#000000; stroke-linecap:round; stroke-linejoin:round; stroke-width:4; stroke-opacity:1; fill:none" points="1953.46,406.258 2280.8,406.258 2280.8,95.2176 1953.46,95.2176 1953.46,406.258 "/>
<polyline clip-path="url(#clip040)" style="stroke:#009af9; stroke-linecap:round; stroke-linejoin:round; stroke-width:4; stroke-opacity:1; fill:none" points="1977.44,147.058 2121.36,147.058 "/>
<path clip-path="url(#clip040)" d="M2152.76 131.051 L2152.76 138.412 L2161.53 138.412 L2161.53 141.722 L2152.76 141.722 L2152.76 155.796 Q2152.76 158.967 2153.61 159.87 Q2154.49 160.773 2157.16 160.773 L2161.53 160.773 L2161.53 164.338 L2157.16 164.338 Q2152.23 164.338 2150.35 162.509 Q2148.48 160.657 2148.48 155.796 L2148.48 141.722 L2145.35 141.722 L2145.35 138.412 L2148.48 138.412 L2148.48 131.051 L2152.76 131.051 Z" fill="#000000" fill-rule="nonzero" fill-opacity="1" /><path clip-path="url(#clip040)" d="M2182.16 142.393 Q2181.44 141.977 2180.58 141.791 Q2179.75 141.583 2178.73 141.583 Q2175.12 141.583 2173.17 143.944 Q2171.25 146.282 2171.25 150.68 L2171.25 164.338 L2166.97 164.338 L2166.97 138.412 L2171.25 138.412 L2171.25 142.44 Q2172.6 140.078 2174.75 138.944 Q2176.9 137.787 2179.98 137.787 Q2180.42 137.787 2180.95 137.856 Q2181.48 137.903 2182.13 138.018 L2182.16 142.393 Z" fill="#000000" fill-rule="nonzero" fill-opacity="1" /><path clip-path="url(#clip040)" d="M2186.18 154.106 L2186.18 138.412 L2190.44 138.412 L2190.44 153.944 Q2190.44 157.625 2191.88 159.476 Q2193.31 161.305 2196.18 161.305 Q2199.63 161.305 2201.62 159.106 Q2203.64 156.907 2203.64 153.111 L2203.64 138.412 L2207.9 138.412 L2207.9 164.338 L2203.64 164.338 L2203.64 160.356 Q2202.09 162.717 2200.03 163.875 Q2197.99 165.009 2195.28 165.009 Q2190.81 165.009 2188.5 162.231 Q2186.18 159.453 2186.18 154.106 M2196.9 137.787 L2196.9 137.787 Z" fill="#000000" fill-rule="nonzero" fill-opacity="1" /><path clip-path="url(#clip040)" d="M2220.88 131.051 L2220.88 138.412 L2229.66 138.412 L2229.66 141.722 L2220.88 141.722 L2220.88 155.796 Q2220.88 158.967 2221.74 159.87 Q2222.62 160.773 2225.28 160.773 L2229.66 160.773 L2229.66 164.338 L2225.28 164.338 Q2220.35 164.338 2218.48 162.509 Q2216.6 160.657 2216.6 155.796 L2216.6 141.722 L2213.48 141.722 L2213.48 138.412 L2216.6 138.412 L2216.6 131.051 L2220.88 131.051 Z" fill="#000000" fill-rule="nonzero" fill-opacity="1" /><path clip-path="url(#clip040)" d="M2256.81 148.689 L2256.81 164.338 L2252.55 164.338 L2252.55 148.828 Q2252.55 145.148 2251.11 143.319 Q2249.68 141.49 2246.81 141.49 Q2243.36 141.49 2241.37 143.69 Q2239.38 145.889 2239.38 149.685 L2239.38 164.338 L2235.1 164.338 L2235.1 128.319 L2239.38 128.319 L2239.38 142.44 Q2240.91 140.102 2242.97 138.944 Q2245.05 137.787 2247.76 137.787 Q2252.23 137.787 2254.52 140.565 Q2256.81 143.319 2256.81 148.689 Z" fill="#000000" fill-rule="nonzero" fill-opacity="1" /><circle clip-path="url(#clip040)" cx="2049.4" cy="198.898" r="20.48" fill="#e26f46" fill-rule="evenodd" fill-opacity="1" stroke="#000000" stroke-opacity="1" stroke-width="4.55111"/>
<path clip-path="url(#clip040)" d="M2164.26 194.187 L2164.26 180.159 L2168.52 180.159 L2168.52 216.178 L2164.26 216.178 L2164.26 212.289 Q2162.92 214.603 2160.86 215.738 Q2158.82 216.849 2155.95 216.849 Q2151.25 216.849 2148.29 213.099 Q2145.35 209.349 2145.35 203.238 Q2145.35 197.127 2148.29 193.377 Q2151.25 189.627 2155.95 189.627 Q2158.82 189.627 2160.86 190.761 Q2162.92 191.872 2164.26 194.187 M2149.75 203.238 Q2149.75 207.937 2151.67 210.622 Q2153.61 213.284 2156.99 213.284 Q2160.37 213.284 2162.32 210.622 Q2164.26 207.937 2164.26 203.238 Q2164.26 198.539 2162.32 195.877 Q2160.37 193.192 2156.99 193.192 Q2153.61 193.192 2151.67 195.877 Q2149.75 198.539 2149.75 203.238 Z" fill="#000000" fill-rule="nonzero" fill-opacity="1" /><path clip-path="url(#clip040)" d="M2189.08 203.145 Q2183.92 203.145 2181.92 204.326 Q2179.93 205.506 2179.93 208.354 Q2179.93 210.622 2181.42 211.965 Q2182.92 213.284 2185.49 213.284 Q2189.03 213.284 2191.16 210.784 Q2193.31 208.261 2193.31 204.094 L2193.31 203.145 L2189.08 203.145 M2197.57 201.386 L2197.57 216.178 L2193.31 216.178 L2193.31 212.242 Q2191.85 214.603 2189.68 215.738 Q2187.5 216.849 2184.36 216.849 Q2180.37 216.849 2178.01 214.627 Q2175.67 212.381 2175.67 208.631 Q2175.67 204.256 2178.59 202.034 Q2181.53 199.812 2187.34 199.812 L2193.31 199.812 L2193.31 199.395 Q2193.31 196.455 2191.37 194.858 Q2189.45 193.238 2185.95 193.238 Q2183.73 193.238 2181.62 193.77 Q2179.52 194.303 2177.57 195.367 L2177.57 191.432 Q2179.91 190.53 2182.11 190.09 Q2184.31 189.627 2186.39 189.627 Q2192.02 189.627 2194.79 192.543 Q2197.57 195.46 2197.57 201.386 Z" fill="#000000" fill-rule="nonzero" fill-opacity="1" /><path clip-path="url(#clip040)" d="M2210.56 182.891 L2210.56 190.252 L2219.33 190.252 L2219.33 193.562 L2210.56 193.562 L2210.56 207.636 Q2210.56 210.807 2211.42 211.71 Q2212.29 212.613 2214.96 212.613 L2219.33 212.613 L2219.33 216.178 L2214.96 216.178 Q2210.03 216.178 2208.15 214.349 Q2206.28 212.497 2206.28 207.636 L2206.28 193.562 L2203.15 193.562 L2203.15 190.252 L2206.28 190.252 L2206.28 182.891 L2210.56 182.891 Z" fill="#000000" fill-rule="nonzero" fill-opacity="1" /><path clip-path="url(#clip040)" d="M2236.72 203.145 Q2231.55 203.145 2229.56 204.326 Q2227.57 205.506 2227.57 208.354 Q2227.57 210.622 2229.05 211.965 Q2230.56 213.284 2233.13 213.284 Q2236.67 213.284 2238.8 210.784 Q2240.95 208.261 2240.95 204.094 L2240.95 203.145 L2236.72 203.145 M2245.21 201.386 L2245.21 216.178 L2240.95 216.178 L2240.95 212.242 Q2239.49 214.603 2237.32 215.738 Q2235.14 216.849 2231.99 216.849 Q2228.01 216.849 2225.65 214.627 Q2223.31 212.381 2223.31 208.631 Q2223.31 204.256 2226.23 202.034 Q2229.17 199.812 2234.98 199.812 L2240.95 199.812 L2240.95 199.395 Q2240.95 196.455 2239.01 194.858 Q2237.09 193.238 2233.59 193.238 Q2231.37 193.238 2229.26 193.77 Q2227.16 194.303 2225.21 195.367 L2225.21 191.432 Q2227.55 190.53 2229.75 190.09 Q2231.95 189.627 2234.03 189.627 Q2239.66 189.627 2242.43 192.543 Q2245.21 195.46 2245.21 201.386 Z" fill="#000000" fill-rule="nonzero" fill-opacity="1" /><polyline clip-path="url(#clip040)" style="stroke:#3da44d; stroke-linecap:round; stroke-linejoin:round; stroke-width:8; stroke-opacity:1; fill:none" points="1977.44,250.738 2121.36,250.738 "/>
<path clip-path="url(#clip040)" d="M2170.91 263.087 L2170.91 253.805 L2163.27 253.805 L2163.27 249.962 L2175.54 249.962 L2175.54 264.8 Q2172.83 266.721 2169.56 267.717 Q2166.3 268.689 2162.6 268.689 Q2154.49 268.689 2149.91 263.967 Q2145.35 259.221 2145.35 250.772 Q2145.35 242.3 2149.91 237.578 Q2154.49 232.833 2162.6 232.833 Q2165.98 232.833 2169.01 233.666 Q2172.06 234.499 2174.63 236.12 L2174.63 241.096 Q2172.04 238.897 2169.12 237.786 Q2166.21 236.675 2162.99 236.675 Q2156.65 236.675 2153.45 240.217 Q2150.28 243.758 2150.28 250.772 Q2150.28 257.763 2153.45 261.305 Q2156.65 264.846 2162.99 264.846 Q2165.47 264.846 2167.41 264.43 Q2169.36 263.99 2170.91 263.087 Z" fill="#000000" fill-rule="nonzero" fill-opacity="1" /><path clip-path="url(#clip040)" d="M2188.75 237.3 L2188.75 250.286 L2194.63 250.286 Q2197.9 250.286 2199.68 248.596 Q2201.46 246.907 2201.46 243.782 Q2201.46 240.68 2199.68 238.99 Q2197.9 237.3 2194.63 237.3 L2188.75 237.3 M2184.08 233.458 L2194.63 233.458 Q2200.44 233.458 2203.41 236.096 Q2206.39 238.712 2206.39 243.782 Q2206.39 248.897 2203.41 251.513 Q2200.44 254.129 2194.63 254.129 L2188.75 254.129 L2188.75 268.018 L2184.08 268.018 L2184.08 233.458 Z" fill="#000000" fill-rule="nonzero" fill-opacity="1" /><polyline clip-path="url(#clip040)" style="stroke:#c271d2; stroke-linecap:round; stroke-linejoin:round; stroke-width:12; stroke-opacity:1; fill:none" points="1977.44,302.578 2121.36,302.578 "/>
<path clip-path="url(#clip040)" d="M2150.03 289.14 L2150.03 302.126 L2155.91 302.126 Q2159.17 302.126 2160.95 300.436 Q2162.73 298.747 2162.73 295.622 Q2162.73 292.52 2160.95 290.83 Q2159.17 289.14 2155.91 289.14 L2150.03 289.14 M2145.35 285.298 L2155.91 285.298 Q2161.72 285.298 2164.68 287.936 Q2167.67 290.552 2167.67 295.622 Q2167.67 300.737 2164.68 303.353 Q2161.72 305.969 2155.91 305.969 L2150.03 305.969 L2150.03 319.858 L2145.35 319.858 L2145.35 285.298 Z" fill="#000000" fill-rule="nonzero" fill-opacity="1" /><path clip-path="url(#clip040)" d="M2178.38 315.922 L2194.7 315.922 L2194.7 319.858 L2172.76 319.858 L2172.76 315.922 Q2175.42 313.168 2180 308.538 Q2184.61 303.885 2185.79 302.543 Q2188.04 300.02 2188.92 298.284 Q2189.82 296.524 2189.82 294.835 Q2189.82 292.08 2187.87 290.344 Q2185.95 288.608 2182.85 288.608 Q2180.65 288.608 2178.2 289.372 Q2175.77 290.135 2172.99 291.686 L2172.99 286.964 Q2175.81 285.83 2178.27 285.251 Q2180.72 284.673 2182.76 284.673 Q2188.13 284.673 2191.32 287.358 Q2194.52 290.043 2194.52 294.534 Q2194.52 296.663 2193.71 298.585 Q2192.92 300.483 2190.81 303.075 Q2190.23 303.747 2187.13 306.964 Q2184.03 310.159 2178.38 315.922 Z" fill="#000000" fill-rule="nonzero" fill-opacity="1" /><path clip-path="url(#clip040)" d="M2204.56 285.298 L2222.92 285.298 L2222.92 289.233 L2208.85 289.233 L2208.85 297.705 Q2209.86 297.358 2210.88 297.196 Q2211.9 297.01 2212.92 297.01 Q2218.71 297.01 2222.09 300.182 Q2225.47 303.353 2225.47 308.77 Q2225.47 314.348 2221.99 317.45 Q2218.52 320.529 2212.2 320.529 Q2210.03 320.529 2207.76 320.158 Q2205.51 319.788 2203.1 319.047 L2203.1 314.348 Q2205.19 315.483 2207.41 316.038 Q2209.63 316.594 2212.11 316.594 Q2216.11 316.594 2218.45 314.487 Q2220.79 312.381 2220.79 308.77 Q2220.79 305.159 2218.45 303.052 Q2216.11 300.946 2212.11 300.946 Q2210.23 300.946 2208.36 301.362 Q2206.51 301.779 2204.56 302.659 L2204.56 285.298 Z" fill="#000000" fill-rule="nonzero" fill-opacity="1" /><polyline clip-path="url(#clip040)" style="stroke:#ac8d18; stroke-linecap:round; stroke-linejoin:round; stroke-width:12; stroke-opacity:1; fill:none" points="1977.44,354.418 2121.36,354.418 "/>
<path clip-path="url(#clip040)" d="M2150.03 340.98 L2150.03 353.966 L2155.91 353.966 Q2159.17 353.966 2160.95 352.276 Q2162.73 350.587 2162.73 347.462 Q2162.73 344.36 2160.95 342.67 Q2159.17 340.98 2155.91 340.98 L2150.03 340.98 M2145.35 337.138 L2155.91 337.138 Q2161.72 337.138 2164.68 339.776 Q2167.67 342.392 2167.67 347.462 Q2167.67 352.577 2164.68 355.193 Q2161.72 357.809 2155.91 357.809 L2150.03 357.809 L2150.03 371.698 L2145.35 371.698 L2145.35 337.138 Z" fill="#000000" fill-rule="nonzero" fill-opacity="1" /><path clip-path="url(#clip040)" d="M2173.17 337.138 L2195.4 337.138 L2195.4 339.128 L2182.85 371.698 L2177.97 371.698 L2189.77 341.073 L2173.17 341.073 L2173.17 337.138 Z" fill="#000000" fill-rule="nonzero" fill-opacity="1" /><path clip-path="url(#clip040)" d="M2204.56 337.138 L2222.92 337.138 L2222.92 341.073 L2208.85 341.073 L2208.85 349.545 Q2209.86 349.198 2210.88 349.036 Q2211.9 348.85 2212.92 348.85 Q2218.71 348.85 2222.09 352.022 Q2225.47 355.193 2225.47 360.61 Q2225.47 366.188 2221.99 369.29 Q2218.52 372.369 2212.2 372.369 Q2210.03 372.369 2207.76 371.998 Q2205.51 371.628 2203.1 370.887 L2203.1 366.188 Q2205.19 367.323 2207.41 367.878 Q2209.63 368.434 2212.11 368.434 Q2216.11 368.434 2218.45 366.327 Q2220.79 364.221 2220.79 360.61 Q2220.79 356.999 2218.45 354.892 Q2216.11 352.786 2212.11 352.786 Q2210.23 352.786 2208.36 353.202 Q2206.51 353.619 2204.56 354.499 L2204.56 337.138 Z" fill="#000000" fill-rule="nonzero" fill-opacity="1" /></svg>
