<?xml version="1.0" encoding="utf-8"?>
<svg xmlns="http://www.w3.org/2000/svg" xmlns:xlink="http://www.w3.org/1999/xlink" width="600" height="400" viewBox="0 0 2400 1600">
<defs>
  <clipPath id="clip980">
    <rect x="0" y="0" width="2400" height="1600"/>
  </clipPath>
</defs>
<path clip-path="url(#clip980)" d="M0 1600 L2400 1600 L2400 0 L0 0  Z" fill="#ffffff" fill-rule="evenodd" fill-opacity="1"/>
<defs>
  <clipPath id="clip981">
    <rect x="480" y="0" width="1681" height="1600"/>
  </clipPath>
</defs>
<path clip-path="url(#clip980)" d="M193.936 1486.45 L2352.76 1486.45 L2352.76 47.2441 L193.936 47.2441  Z" fill="#ffffff" fill-rule="evenodd" fill-opacity="1"/>
<defs>
  <clipPath id="clip982">
    <rect x="193" y="47" width="2160" height="1440"/>
  </clipPath>
</defs>
<polyline clip-path="url(#clip982)" style="stroke:#000000; stroke-linecap:round; stroke-linejoin:round; stroke-width:2; stroke-opacity:0.1; fill:none" points="255.035,1486.45 255.035,47.2441 "/>
<polyline clip-path="url(#clip982)" style="stroke:#000000; stroke-linecap:round; stroke-linejoin:round; stroke-width:2; stroke-opacity:0.1; fill:none" points="579.338,1486.45 579.338,47.2441 "/>
<polyline clip-path="url(#clip982)" style="stroke:#000000; stroke-linecap:round; stroke-linejoin:round; stroke-width:2; stroke-opacity:0.1; fill:none" points="903.641,1486.45 903.641,47.2441 "/>
<polyline clip-path="url(#clip982)" style="stroke:#000000; stroke-linecap:round; stroke-linejoin:round; stroke-width:2; stroke-opacity:0.1; fill:none" points="1227.94,1486.45 1227.94,47.2441 "/>
<polyline clip-path="url(#clip982)" style="stroke:#000000; stroke-linecap:round; stroke-linejoin:round; stroke-width:2; stroke-opacity:0.1; fill:none" points="1552.25,1486.45 1552.25,47.2441 "/>
<polyline clip-path="url(#clip982)" style="stroke:#000000; stroke-linecap:round; stroke-linejoin:round; stroke-width:2; stroke-opacity:0.1; fill:none" points="1876.55,1486.45 1876.55,47.2441 "/>
<polyline clip-path="url(#clip982)" style="stroke:#000000; stroke-linecap:round; stroke-linejoin:round; stroke-width:2; stroke-opacity:0.1; fill:none" points="2200.85,1486.45 2200.85,47.2441 "/>
<polyline clip-path="url(#clip982)" style="stroke:#000000; stroke-linecap:round; stroke-linejoin:round; stroke-width:2; stroke-opacity:0.1; fill:none" points="193.936,1237.02 2352.76,1237.02 "/>
<polyline clip-path="url(#clip982)" style="stroke:#000000; stroke-linecap:round; stroke-linejoin:round; stroke-width:2; stroke-opacity:0.1; fill:none" points="193.936,983.349 2352.76,983.349 "/>
<polyline clip-path="url(#clip982)" style="stroke:#000000; stroke-linecap:round; stroke-linejoin:round; stroke-width:2; stroke-opacity:0.1; fill:none" points="193.936,729.675 2352.76,729.675 "/>
<polyline clip-path="url(#clip982)" style="stroke:#000000; stroke-linecap:round; stroke-linejoin:round; stroke-width:2; stroke-opacity:0.1; fill:none" points="193.936,476 2352.76,476 "/>
<polyline clip-path="url(#clip982)" style="stroke:#000000; stroke-linecap:round; stroke-linejoin:round; stroke-width:2; stroke-opacity:0.1; fill:none" points="193.936,222.326 2352.76,222.326 "/>
<polyline clip-path="url(#clip980)" style="stroke:#000000; stroke-linecap:round; stroke-linejoin:round; stroke-width:4; stroke-opacity:1; fill:none" points="193.936,1486.45 2352.76,1486.45 "/>
<polyline clip-path="url(#clip980)" style="stroke:#000000; stroke-linecap:round; stroke-linejoin:round; stroke-width:4; stroke-opacity:1; fill:none" points="255.035,1486.45 255.035,1467.55 "/>
<polyline clip-path="url(#clip980)" style="stroke:#000000; stroke-linecap:round; stroke-linejoin:round; stroke-width:4; stroke-opacity:1; fill:none" points="579.338,1486.45 579.338,1467.55 "/>
<polyline clip-path="url(#clip980)" style="stroke:#000000; stroke-linecap:round; stroke-linejoin:round; stroke-width:4; stroke-opacity:1; fill:none" points="903.641,1486.45 903.641,1467.55 "/>
<polyline clip-path="url(#clip980)" style="stroke:#000000; stroke-linecap:round; stroke-linejoin:round; stroke-width:4; stroke-opacity:1; fill:none" points="1227.94,1486.45 1227.94,1467.55 "/>
<polyline clip-path="url(#clip980)" style="stroke:#000000; stroke-linecap:round; stroke-linejoin:round; stroke-width:4; stroke-opacity:1; fill:none" points="1552.25,1486.45 1552.25,1467.55 "/>
<polyline clip-path="url(#clip980)" style="stroke:#000000; stroke-linecap:round; stroke-linejoin:round; stroke-width:4; stroke-opacity:1; fill:none" points="1876.55,1486.45 1876.55,1467.55 "/>
<polyline clip-path="url(#clip980)" style="stroke:#000000; stroke-linecap:round; stroke-linejoin:round; stroke-width:4; stroke-opacity:1; fill:none" points="2200.85,1486.45 2200.85,1467.55 "/>
<path clip-path="url(#clip980)" d="M255.035 1517.37 Q251.424 1517.37 249.595 1520.93 Q247.789 1524.47 247.789 1531.6 Q247.789 1538.71 249.595 1542.27 Q251.424 1545.82 255.035 1545.82 Q258.669 1545.82 260.474 1542.27 Q262.303 1538.71 262.303 1531.6 Q262.303 1524.47 260.474 1520.93 Q258.669 1517.37 255.035 1517.37 M255.035 1513.66 Q260.845 1513.66 263.9 1518.27 Q266.979 1522.85 266.979 1531.6 Q266.979 1540.33 263.9 1544.94 Q260.845 1549.52 255.035 1549.52 Q249.225 1549.52 246.146 1544.94 Q243.09 1540.33 243.09 1531.6 Q243.09 1522.85 246.146 1518.27 Q249.225 1513.66 255.035 1513.66 Z" fill="#000000" fill-rule="nonzero" fill-opacity="1" /><path clip-path="url(#clip980)" d="M569.72 1544.91 L577.358 1544.91 L577.358 1518.55 L569.048 1520.21 L569.048 1515.95 L577.312 1514.29 L581.988 1514.29 L581.988 1544.91 L589.627 1544.91 L589.627 1548.85 L569.72 1548.85 L569.72 1544.91 Z" fill="#000000" fill-rule="nonzero" fill-opacity="1" /><path clip-path="url(#clip980)" d="M898.293 1544.91 L914.613 1544.91 L914.613 1548.85 L892.668 1548.85 L892.668 1544.91 Q895.33 1542.16 899.914 1537.53 Q904.52 1532.88 905.701 1531.53 Q907.946 1529.01 908.826 1527.27 Q909.729 1525.51 909.729 1523.82 Q909.729 1521.07 907.784 1519.33 Q905.863 1517.6 902.761 1517.6 Q900.562 1517.6 898.108 1518.36 Q895.678 1519.13 892.9 1520.68 L892.9 1515.95 Q895.724 1514.82 898.178 1514.24 Q900.631 1513.66 902.668 1513.66 Q908.039 1513.66 911.233 1516.35 Q914.428 1519.03 914.428 1523.52 Q914.428 1525.65 913.617 1527.57 Q912.83 1529.47 910.724 1532.07 Q910.145 1532.74 907.043 1535.95 Q903.942 1539.15 898.293 1544.91 Z" fill="#000000" fill-rule="nonzero" fill-opacity="1" /><path clip-path="url(#clip980)" d="M1232.19 1530.21 Q1235.55 1530.93 1237.42 1533.2 Q1239.32 1535.47 1239.32 1538.8 Q1239.32 1543.92 1235.8 1546.72 Q1232.28 1549.52 1225.8 1549.52 Q1223.63 1549.52 1221.31 1549.08 Q1219.02 1548.66 1216.57 1547.81 L1216.57 1543.29 Q1218.51 1544.43 1220.83 1545.01 Q1223.14 1545.58 1225.66 1545.58 Q1230.06 1545.58 1232.35 1543.85 Q1234.67 1542.11 1234.67 1538.8 Q1234.67 1535.75 1232.52 1534.03 Q1230.39 1532.3 1226.57 1532.3 L1222.54 1532.3 L1222.54 1528.45 L1226.75 1528.45 Q1230.2 1528.45 1232.03 1527.09 Q1233.86 1525.7 1233.86 1523.11 Q1233.86 1520.45 1231.96 1519.03 Q1230.08 1517.6 1226.57 1517.6 Q1224.64 1517.6 1222.45 1518.01 Q1220.25 1518.43 1217.61 1519.31 L1217.61 1515.14 Q1220.27 1514.4 1222.58 1514.03 Q1224.92 1513.66 1226.98 1513.66 Q1232.31 1513.66 1235.41 1516.09 Q1238.51 1518.5 1238.51 1522.62 Q1238.51 1525.49 1236.87 1527.48 Q1235.22 1529.45 1232.19 1530.21 Z" fill="#000000" fill-rule="nonzero" fill-opacity="1" /><path clip-path="url(#clip980)" d="M1555.26 1518.36 L1543.45 1536.81 L1555.26 1536.81 L1555.26 1518.36 M1554.03 1514.29 L1559.91 1514.29 L1559.91 1536.81 L1564.84 1536.81 L1564.84 1540.7 L1559.91 1540.7 L1559.91 1548.85 L1555.26 1548.85 L1555.26 1540.7 L1539.65 1540.7 L1539.65 1536.19 L1554.03 1514.29 Z" fill="#000000" fill-rule="nonzero" fill-opacity="1" /><path clip-path="url(#clip980)" d="M1866.83 1514.29 L1885.18 1514.29 L1885.18 1518.22 L1871.11 1518.22 L1871.11 1526.7 Q1872.13 1526.35 1873.15 1526.19 Q1874.17 1526 1875.18 1526 Q1880.97 1526 1884.35 1529.17 Q1887.73 1532.34 1887.73 1537.76 Q1887.73 1543.34 1884.26 1546.44 Q1880.79 1549.52 1874.47 1549.52 Q1872.29 1549.52 1870.02 1549.15 Q1867.78 1548.78 1865.37 1548.04 L1865.37 1543.34 Q1867.45 1544.47 1869.67 1545.03 Q1871.9 1545.58 1874.37 1545.58 Q1878.38 1545.58 1880.72 1543.48 Q1883.05 1541.37 1883.05 1537.76 Q1883.05 1534.15 1880.72 1532.04 Q1878.38 1529.94 1874.37 1529.94 Q1872.5 1529.94 1870.62 1530.35 Q1868.77 1530.77 1866.83 1531.65 L1866.83 1514.29 Z" fill="#000000" fill-rule="nonzero" fill-opacity="1" /><path clip-path="url(#clip980)" d="M2201.26 1529.7 Q2198.11 1529.7 2196.26 1531.86 Q2194.43 1534.01 2194.43 1537.76 Q2194.43 1541.49 2196.26 1543.66 Q2198.11 1545.82 2201.26 1545.82 Q2204.41 1545.82 2206.23 1543.66 Q2208.09 1541.49 2208.09 1537.76 Q2208.09 1534.01 2206.23 1531.86 Q2204.41 1529.7 2201.26 1529.7 M2210.54 1515.05 L2210.54 1519.31 Q2208.78 1518.48 2206.98 1518.04 Q2205.19 1517.6 2203.43 1517.6 Q2198.8 1517.6 2196.35 1520.72 Q2193.92 1523.85 2193.57 1530.17 Q2194.94 1528.15 2197 1527.09 Q2199.06 1526 2201.54 1526 Q2206.74 1526 2209.75 1529.17 Q2212.79 1532.32 2212.79 1537.76 Q2212.79 1543.08 2209.64 1546.3 Q2206.49 1549.52 2201.26 1549.52 Q2195.26 1549.52 2192.09 1544.94 Q2188.92 1540.33 2188.92 1531.6 Q2188.92 1523.41 2192.81 1518.55 Q2196.7 1513.66 2203.25 1513.66 Q2205.01 1513.66 2206.79 1514.01 Q2208.6 1514.36 2210.54 1515.05 Z" fill="#000000" fill-rule="nonzero" fill-opacity="1" /><polyline clip-path="url(#clip980)" style="stroke:#000000; stroke-linecap:round; stroke-linejoin:round; stroke-width:4; stroke-opacity:1; fill:none" points="193.936,1486.45 193.936,47.2441 "/>
<polyline clip-path="url(#clip980)" style="stroke:#000000; stroke-linecap:round; stroke-linejoin:round; stroke-width:4; stroke-opacity:1; fill:none" points="193.936,1237.02 212.834,1237.02 "/>
<polyline clip-path="url(#clip980)" style="stroke:#000000; stroke-linecap:round; stroke-linejoin:round; stroke-width:4; stroke-opacity:1; fill:none" points="193.936,983.349 212.834,983.349 "/>
<polyline clip-path="url(#clip980)" style="stroke:#000000; stroke-linecap:round; stroke-linejoin:round; stroke-width:4; stroke-opacity:1; fill:none" points="193.936,729.675 212.834,729.675 "/>
<polyline clip-path="url(#clip980)" style="stroke:#000000; stroke-linecap:round; stroke-linejoin:round; stroke-width:4; stroke-opacity:1; fill:none" points="193.936,476 212.834,476 "/>
<polyline clip-path="url(#clip980)" style="stroke:#000000; stroke-linecap:round; stroke-linejoin:round; stroke-width:4; stroke-opacity:1; fill:none" points="193.936,222.326 212.834,222.326 "/>
<path clip-path="url(#clip980)" d="M50.9921 1237.47 L80.6679 1237.47 L80.6679 1241.41 L50.9921 1241.41 L50.9921 1237.47 Z" fill="#000000" fill-rule="nonzero" fill-opacity="1" /><path clip-path="url(#clip980)" d="M91.5706 1250.37 L99.2095 1250.37 L99.2095 1224 L90.8993 1225.67 L90.8993 1221.41 L99.1632 1219.74 L103.839 1219.74 L103.839 1250.37 L111.478 1250.37 L111.478 1254.3 L91.5706 1254.3 L91.5706 1250.37 Z" fill="#000000" fill-rule="nonzero" fill-opacity="1" /><path clip-path="url(#clip980)" d="M120.922 1248.42 L125.807 1248.42 L125.807 1254.3 L120.922 1254.3 L120.922 1248.42 Z" fill="#000000" fill-rule="nonzero" fill-opacity="1" /><path clip-path="url(#clip980)" d="M145.992 1222.82 Q142.381 1222.82 140.552 1226.39 Q138.746 1229.93 138.746 1237.06 Q138.746 1244.16 140.552 1247.73 Q142.381 1251.27 145.992 1251.27 Q149.626 1251.27 151.431 1247.73 Q153.26 1244.16 153.26 1237.06 Q153.26 1229.93 151.431 1226.39 Q149.626 1222.82 145.992 1222.82 M145.992 1219.12 Q151.802 1219.12 154.857 1223.72 Q157.936 1228.31 157.936 1237.06 Q157.936 1245.78 154.857 1250.39 Q151.802 1254.97 145.992 1254.97 Q140.181 1254.97 137.103 1250.39 Q134.047 1245.78 134.047 1237.06 Q134.047 1228.31 137.103 1223.72 Q140.181 1219.12 145.992 1219.12 Z" fill="#000000" fill-rule="nonzero" fill-opacity="1" /><path clip-path="url(#clip980)" d="M51.9875 983.8 L81.6633 983.8 L81.6633 987.736 L51.9875 987.736 L51.9875 983.8 Z" fill="#000000" fill-rule="nonzero" fill-opacity="1" /><path clip-path="url(#clip980)" d="M101.756 969.148 Q98.1447 969.148 96.316 972.712 Q94.5104 976.254 94.5104 983.384 Q94.5104 990.49 96.316 994.055 Q98.1447 997.597 101.756 997.597 Q105.39 997.597 107.196 994.055 Q109.024 990.49 109.024 983.384 Q109.024 976.254 107.196 972.712 Q105.39 969.148 101.756 969.148 M101.756 965.444 Q107.566 965.444 110.621 970.05 Q113.7 974.634 113.7 983.384 Q113.7 992.11 110.621 996.717 Q107.566 1001.3 101.756 1001.3 Q95.9456 1001.3 92.8669 996.717 Q89.8114 992.11 89.8114 983.384 Q89.8114 974.634 92.8669 970.05 Q95.9456 965.444 101.756 965.444 Z" fill="#000000" fill-rule="nonzero" fill-opacity="1" /><path clip-path="url(#clip980)" d="M121.918 994.749 L126.802 994.749 L126.802 1000.63 L121.918 1000.63 L121.918 994.749 Z" fill="#000000" fill-rule="nonzero" fill-opacity="1" /><path clip-path="url(#clip980)" d="M137.033 966.069 L155.39 966.069 L155.39 970.004 L141.316 970.004 L141.316 978.476 Q142.334 978.129 143.353 977.967 Q144.371 977.782 145.39 977.782 Q151.177 977.782 154.556 980.953 Q157.936 984.124 157.936 989.541 Q157.936 995.12 154.464 998.222 Q150.992 1001.3 144.672 1001.3 Q142.496 1001.3 140.228 1000.93 Q137.982 1000.56 135.575 999.819 L135.575 995.12 Q137.658 996.254 139.881 996.81 Q142.103 997.365 144.58 997.365 Q148.584 997.365 150.922 995.259 Q153.26 993.152 153.26 989.541 Q153.26 985.93 150.922 983.823 Q148.584 981.717 144.58 981.717 Q142.705 981.717 140.83 982.134 Q138.978 982.55 137.033 983.43 L137.033 966.069 Z" fill="#000000" fill-rule="nonzero" fill-opacity="1" /><path clip-path="url(#clip980)" d="M100.76 715.473 Q97.1493 715.473 95.3206 719.038 Q93.515 722.58 93.515 729.709 Q93.515 736.816 95.3206 740.381 Q97.1493 743.922 100.76 743.922 Q104.395 743.922 106.2 740.381 Q108.029 736.816 108.029 729.709 Q108.029 722.58 106.2 719.038 Q104.395 715.473 100.76 715.473 M100.76 711.77 Q106.571 711.77 109.626 716.376 Q112.705 720.959 112.705 729.709 Q112.705 738.436 109.626 743.043 Q106.571 747.626 100.76 747.626 Q94.9502 747.626 91.8715 743.043 Q88.816 738.436 88.816 729.709 Q88.816 720.959 91.8715 716.376 Q94.9502 711.77 100.76 711.77 Z" fill="#000000" fill-rule="nonzero" fill-opacity="1" /><path clip-path="url(#clip980)" d="M120.922 741.075 L125.807 741.075 L125.807 746.955 L120.922 746.955 L120.922 741.075 Z" fill="#000000" fill-rule="nonzero" fill-opacity="1" /><path clip-path="url(#clip980)" d="M145.992 715.473 Q142.381 715.473 140.552 719.038 Q138.746 722.58 138.746 729.709 Q138.746 736.816 140.552 740.381 Q142.381 743.922 145.992 743.922 Q149.626 743.922 151.431 740.381 Q153.26 736.816 153.26 729.709 Q153.26 722.58 151.431 719.038 Q149.626 715.473 145.992 715.473 M145.992 711.77 Q151.802 711.77 154.857 716.376 Q157.936 720.959 157.936 729.709 Q157.936 738.436 154.857 743.043 Q151.802 747.626 145.992 747.626 Q140.181 747.626 137.103 743.043 Q134.047 738.436 134.047 729.709 Q134.047 720.959 137.103 716.376 Q140.181 711.77 145.992 711.77 Z" fill="#000000" fill-rule="nonzero" fill-opacity="1" /><path clip-path="url(#clip980)" d="M101.756 461.799 Q98.1447 461.799 96.316 465.364 Q94.5104 468.905 94.5104 476.035 Q94.5104 483.141 96.316 486.706 Q98.1447 490.248 101.756 490.248 Q105.39 490.248 107.196 486.706 Q109.024 483.141 109.024 476.035 Q109.024 468.905 107.196 465.364 Q105.39 461.799 101.756 461.799 M101.756 458.095 Q107.566 458.095 110.621 462.702 Q113.7 467.285 113.7 476.035 Q113.7 484.762 110.621 489.368 Q107.566 493.952 101.756 493.952 Q95.9456 493.952 92.8669 489.368 Q89.8114 484.762 89.8114 476.035 Q89.8114 467.285 92.8669 462.702 Q95.9456 458.095 101.756 458.095 Z" fill="#000000" fill-rule="nonzero" fill-opacity="1" /><path clip-path="url(#clip980)" d="M121.918 487.401 L126.802 487.401 L126.802 493.28 L121.918 493.28 L121.918 487.401 Z" fill="#000000" fill-rule="nonzero" fill-opacity="1" /><path clip-path="url(#clip980)" d="M137.033 458.72 L155.39 458.72 L155.39 462.655 L141.316 462.655 L141.316 471.128 Q142.334 470.78 143.353 470.618 Q144.371 470.433 145.39 470.433 Q151.177 470.433 154.556 473.604 Q157.936 476.776 157.936 482.192 Q157.936 487.771 154.464 490.873 Q150.992 493.952 144.672 493.952 Q142.496 493.952 140.228 493.581 Q137.982 493.211 135.575 492.47 L135.575 487.771 Q137.658 488.905 139.881 489.461 Q142.103 490.016 144.58 490.016 Q148.584 490.016 150.922 487.91 Q153.26 485.803 153.26 482.192 Q153.26 478.581 150.922 476.475 Q148.584 474.368 144.58 474.368 Q142.705 474.368 140.83 474.785 Q138.978 475.202 137.033 476.081 L137.033 458.72 Z" fill="#000000" fill-rule="nonzero" fill-opacity="1" /><path clip-path="url(#clip980)" d="M91.5706 235.671 L99.2095 235.671 L99.2095 209.305 L90.8993 210.972 L90.8993 206.713 L99.1632 205.046 L103.839 205.046 L103.839 235.671 L111.478 235.671 L111.478 239.606 L91.5706 239.606 L91.5706 235.671 Z" fill="#000000" fill-rule="nonzero" fill-opacity="1" /><path clip-path="url(#clip980)" d="M120.922 233.726 L125.807 233.726 L125.807 239.606 L120.922 239.606 L120.922 233.726 Z" fill="#000000" fill-rule="nonzero" fill-opacity="1" /><path clip-path="url(#clip980)" d="M145.992 208.125 Q142.381 208.125 140.552 211.689 Q138.746 215.231 138.746 222.361 Q138.746 229.467 140.552 233.032 Q142.381 236.574 145.992 236.574 Q149.626 236.574 151.431 233.032 Q153.26 229.467 153.26 222.361 Q153.26 215.231 151.431 211.689 Q149.626 208.125 145.992 208.125 M145.992 204.421 Q151.802 204.421 154.857 209.027 Q157.936 213.611 157.936 222.361 Q157.936 231.087 154.857 235.694 Q151.802 240.277 145.992 240.277 Q140.181 240.277 137.103 235.694 Q134.047 231.087 134.047 222.361 Q134.047 213.611 137.103 209.027 Q140.181 204.421 145.992 204.421 Z" fill="#000000" fill-rule="nonzero" fill-opacity="1" /><polyline clip-path="url(#clip982)" style="stroke:#009af9; stroke-linecap:round; stroke-linejoin:round; stroke-width:4; stroke-opacity:1; fill:none" points="255.035,729.675 258.278,724.601 261.521,719.528 264.764,714.456 268.007,709.386 271.25,704.318 274.493,699.252 277.736,694.189 280.979,689.13 284.222,684.075 287.465,679.024 290.708,673.979 293.951,668.939 297.194,663.905 300.437,658.878 303.68,653.857 306.923,648.845 310.166,643.84 313.409,638.844 316.652,633.857 319.895,628.88 323.138,623.913 326.381,618.956 329.624,614.011 332.867,609.076 336.11,604.155 339.353,599.245 342.596,594.349 345.84,589.466 349.083,584.597 352.326,579.743 355.569,574.904 358.812,570.08 362.055,565.272 365.298,560.48 368.541,555.706 371.784,550.949 375.027,546.209 378.27,541.489 381.513,536.787 384.756,532.104 387.999,527.441 391.242,522.798 394.485,518.176 397.728,513.575 400.971,508.995 404.214,504.438 407.457,499.903 410.7,495.392 413.943,490.903 417.186,486.439 420.429,481.999 423.672,477.583 426.915,473.193 430.158,468.828 433.401,464.49 436.644,460.178 439.887,455.893 443.13,451.635 446.373,447.406 449.616,443.204 452.859,439.031 456.103,434.887 459.346,430.773 462.589,426.688 465.832,422.634 469.075,418.611 472.318,414.618 475.561,410.657 478.804,406.728 482.047,402.832 485.29,398.968 488.533,395.137 491.776,391.339 495.019,387.576 498.262,383.846 501.505,380.151 504.748,376.491 507.991,372.867 511.234,369.278 514.477,365.725 517.72,362.208 520.963,358.729 524.206,355.286 527.449,351.881 530.692,348.513 533.935,345.184 537.178,341.893 540.421,338.641 543.664,335.428 546.907,332.255 550.15,329.121 553.393,326.027 556.636,322.974 559.879,319.961 563.122,316.989 566.366,314.059 569.609,311.17 572.852,308.323 576.095,305.518 579.338,302.755 582.581,300.036 585.824,297.359 589.067,294.725 592.31,292.135 595.553,289.589 598.796,287.086 602.039,284.628 605.282,282.214 608.525,279.846 611.768,277.522 615.011,275.243 618.254,273.01 621.497,270.822 624.74,268.681 627.983,266.585 631.226,264.536 634.469,262.533 637.712,260.577 640.955,258.668 644.198,256.806 647.441,254.991 650.684,253.224 653.927,251.504 657.17,249.832 660.413,248.208 663.656,246.633 666.899,245.105 670.142,243.627 673.385,242.196 676.629,240.815 679.872,239.482 683.115,238.198 686.358,236.964 689.601,235.778 692.844,234.643 696.087,233.556 699.33,232.52 702.573,231.532 705.816,230.595 709.059,229.708 712.302,228.871 715.545,228.083 718.788,227.346 722.031,226.66 725.274,226.023 728.517,225.437 731.76,224.901 735.003,224.416 738.246,223.981 741.489,223.597 744.732,223.263 747.975,222.98 751.218,222.748 754.461,222.566 757.704,222.436 760.947,222.355 764.19,222.326 767.433,222.347 770.676,222.419 773.919,222.542 777.162,222.716 780.405,222.94 783.648,223.215 786.892,223.54 790.135,223.916 793.378,224.343 796.621,224.82 799.864,225.348 803.107,225.926 806.35,226.555 809.593,227.234 812.836,227.963 816.079,228.742 819.322,229.571 822.565,230.451 825.808,231.38 829.051,232.359 832.294,233.388 835.537,234.466 838.78,235.594 842.023,236.772 845.266,237.998 848.509,239.274 851.752,240.599 854.995,241.973 858.238,243.395 861.481,244.867 864.724,246.386 867.967,247.954 871.21,249.57 874.453,251.235 877.696,252.947 880.939,254.706 884.182,256.514 887.425,258.368 890.668,260.27 893.911,262.218 897.155,264.214 900.398,266.256 903.641,268.344 906.884,270.478 910.127,272.658 913.37,274.884 916.613,277.156 919.856,279.472 923.099,281.834 926.342,284.241 929.585,286.692 932.828,289.187 936.071,291.726 939.314,294.31 942.557,296.936 945.8,299.606 949.043,302.319 952.286,305.075 955.529,307.873 958.772,310.714 962.015,313.596 965.258,316.52 968.501,319.485 971.744,322.491 974.987,325.538 978.23,328.625 981.473,331.753 984.716,334.92 987.959,338.127 991.202,341.373 994.445,344.657 997.688,347.981 1000.93,351.342 1004.17,354.741 1007.42,358.178 1010.66,361.652 1013.9,365.162 1017.15,368.71 1020.39,372.293 1023.63,375.912 1026.88,379.566 1030.12,383.255 1033.36,386.979 1036.6,390.737 1039.85,394.53 1043.09,398.355 1046.33,402.214 1049.58,406.106 1052.82,410.029 1056.06,413.985 1059.31,417.973 1062.55,421.991 1065.79,426.041 1069.04,430.12 1072.28,434.23 1075.52,438.369 1078.76,442.537 1082.01,446.735 1085.25,450.96 1088.49,455.213 1091.74,459.494 1094.98,463.801 1098.22,468.136 1101.47,472.496 1104.71,476.882 1107.95,481.294 1111.19,485.73 1114.44,490.191 1117.68,494.675 1120.92,499.183 1124.17,503.714 1127.41,508.268 1130.65,512.844 1133.9,517.442 1137.14,522.06 1140.38,526.7 1143.62,531.36 1146.87,536.039 1150.11,540.738 1153.35,545.456 1156.6,550.193 1159.84,554.947 1163.08,559.719 1166.33,564.508 1169.57,569.313 1172.81,574.134 1176.06,578.971 1179.3,583.823 1182.54,588.69 1185.78,593.57 1189.03,598.464 1192.27,603.372 1195.51,608.292 1198.76,613.224 1202,618.168 1205.24,623.123 1208.49,628.088 1211.73,633.064 1214.97,638.049 1218.21,643.044 1221.46,648.047 1224.7,653.059 1227.94,658.078 1231.19,663.104 1234.43,668.137 1237.67,673.176 1240.92,678.22 1244.16,683.27 1247.4,688.325 1250.64,693.383 1253.89,698.445 1257.13,703.511 1260.37,708.579 1263.62,713.649 1266.86,718.72 1270.1,723.793 1273.35,728.867 1276.59,733.94 1279.83,739.013 1283.08,744.085 1286.32,749.156 1289.56,754.224 1292.8,759.291 1296.05,764.354 1299.29,769.414 1302.53,774.47 1305.78,779.521 1309.02,784.567 1312.26,789.608 1315.51,794.643 1318.75,799.671 1321.99,804.693 1325.23,809.707 1328.48,814.713 1331.72,819.71 1334.96,824.698 1338.21,829.677 1341.45,834.646 1344.69,839.604 1347.94,844.552 1351.18,849.488 1354.42,854.412 1357.66,859.323 1360.91,864.222 1364.15,869.107 1367.39,873.978 1370.64,878.834 1373.88,883.676 1377.12,888.502 1380.37,893.313 1383.61,898.107 1386.85,902.884 1390.1,907.644 1393.34,912.386 1396.58,917.11 1399.82,921.815 1403.07,926.501 1406.31,931.167 1409.55,935.813 1412.8,940.439 1416.04,945.043 1419.28,949.626 1422.53,954.187 1425.77,958.725 1429.01,963.241 1432.25,967.733 1435.5,972.201 1438.74,976.645 1441.98,981.065 1445.23,985.459 1448.47,989.827 1451.71,994.17 1454.96,998.486 1458.2,1002.78 1461.44,1007.04 1464.68,1011.27 1467.93,1015.48 1471.17,1019.66 1474.41,1023.8 1477.66,1027.92 1480.9,1032.01 1484.14,1036.07 1487.39,1040.1 1490.63,1044.1 1493.87,1048.06 1497.11,1052 1500.36,1055.9 1503.6,1059.77 1506.84,1063.6 1510.09,1067.41 1513.33,1071.18 1516.57,1074.91 1519.82,1078.61 1523.06,1082.28 1526.3,1085.91 1529.55,1089.5 1532.79,1093.06 1536.03,1096.58 1539.27,1100.07 1542.52,1103.52 1545.76,1106.93 1549,1110.3 1552.25,1113.64 1555.49,1116.93 1558.73,1120.19 1561.98,1123.41 1565.22,1126.59 1568.46,1129.73 1571.7,1132.83 1574.95,1135.89 1578.19,1138.91 1581.43,1141.89 1584.68,1144.83 1587.92,1147.72 1591.16,1150.58 1594.41,1153.39 1597.65,1156.16 1600.89,1158.88 1604.13,1161.57 1607.38,1164.21 1610.62,1166.8 1613.86,1169.36 1617.11,1171.87 1620.35,1174.33 1623.59,1176.75 1626.84,1179.13 1630.08,1181.46 1633.32,1183.75 1636.57,1185.99 1639.81,1188.18 1643.05,1190.33 1646.29,1192.43 1649.54,1194.49 1652.78,1196.5 1656.02,1198.46 1659.27,1200.38 1662.51,1202.25 1665.75,1204.07 1669,1205.85 1672.24,1207.57 1675.48,1209.25 1678.72,1210.89 1681.97,1212.47 1685.21,1214 1688.45,1215.49 1691.7,1216.93 1694.94,1218.32 1698.18,1219.66 1701.43,1220.95 1704.67,1222.19 1707.91,1223.39 1711.15,1224.53 1714.4,1225.62 1717.64,1226.67 1720.88,1227.66 1724.13,1228.61 1727.37,1229.5 1730.61,1230.35 1733.86,1231.14 1737.1,1231.89 1740.34,1232.58 1743.59,1233.23 1746.83,1233.82 1750.07,1234.37 1753.31,1234.86 1756.56,1235.3 1759.8,1235.69 1763.04,1236.04 1766.29,1236.33 1769.53,1236.57 1772.77,1236.76 1776.02,1236.9 1779.26,1236.98 1782.5,1237.02 1785.74,1237.01 1788.99,1236.94 1792.23,1236.83 1795.47,1236.66 1798.72,1236.45 1801.96,1236.18 1805.2,1235.86 1808.45,1235.5 1811.69,1235.08 1814.93,1234.61 1818.17,1234.09 1821.42,1233.52 1824.66,1232.9 1827.9,1232.23 1831.15,1231.51 1834.39,1230.73 1837.63,1229.91 1840.88,1229.04 1844.12,1228.12 1847.36,1227.15 1850.61,1226.13 1853.85,1225.06 1857.09,1223.94 1860.33,1222.77 1863.58,1221.55 1866.82,1220.28 1870.06,1218.96 1873.31,1217.6 1876.55,1216.18 1879.79,1214.72 1883.04,1213.21 1886.28,1211.65 1889.52,1210.04 1892.76,1208.38 1896.01,1206.68 1899.25,1204.93 1902.49,1203.13 1905.74,1201.28 1908.98,1199.39 1912.22,1197.44 1915.47,1195.46 1918.71,1193.42 1921.95,1191.34 1925.19,1189.21 1928.44,1187.04 1931.68,1184.82 1934.92,1182.56 1938.17,1180.25 1941.41,1177.89 1944.65,1175.49 1947.9,1173.05 1951.14,1170.56 1954.38,1168.03 1957.63,1165.45 1960.87,1162.83 1964.11,1160.17 1967.35,1157.46 1970.6,1154.72 1973.84,1151.92 1977.08,1149.09 1980.33,1146.22 1983.57,1143.3 1986.81,1140.34 1990.06,1137.34 1993.3,1134.3 1996.54,1131.22 1999.78,1128.1 2003.03,1124.94 2006.27,1121.74 2009.51,1118.5 2012.76,1115.22 2016,1111.9 2019.24,1108.55 2022.49,1105.15 2025.73,1101.72 2028.97,1098.25 2032.21,1094.75 2035.46,1091.21 2038.7,1087.63 2041.94,1084.02 2045.19,1080.37 2048.43,1076.68 2051.67,1072.97 2054.92,1069.21 2058.16,1065.43 2061.4,1061.61 2064.65,1057.75 2067.89,1053.87 2071.13,1049.95 2074.37,1046 2077.62,1042.01 2080.86,1038 2084.1,1033.96 2087.35,1029.88 2090.59,1025.78 2093.83,1021.64 2097.08,1017.48 2100.32,1013.29 2103.56,1009.06 2106.8,1004.82 2110.05,1000.54 2113.29,996.236 2116.53,991.906 2119.78,987.549 2123.02,983.167 2126.26,978.76 2129.51,974.328 2132.75,969.871 2135.99,965.39 2139.23,960.886 2142.48,956.358 2145.72,951.808 2148.96,947.235 2152.21,942.641 2155.45,938.026 2158.69,933.39 2161.94,928.733 2165.18,924.056 2168.42,919.36 2171.67,914.645 2174.91,909.912 2178.15,905.161 2181.39,900.392 2184.64,895.605 2187.88,890.803 2191.12,885.984 2194.37,881.15 2197.61,876.3 2200.85,871.436 2204.1,866.557 2207.34,861.665 2210.58,856.76 2213.82,851.842 2217.07,846.912 2220.31,841.97 2223.55,837.016 2226.8,832.053 2230.04,827.078 2233.28,822.095 2236.53,817.101 2239.77,812.1 2243.01,807.089 2246.25,802.072 2249.5,797.046 2252.74,792.015 2255.98,786.976 2259.23,781.933 2262.47,776.884 2265.71,771.83 2268.96,766.772 2272.2,761.71 2275.44,756.645 2278.69,751.578 2281.93,746.508 2285.17,741.437 2288.41,736.364 2291.66,731.291 "/>
<circle clip-path="url(#clip982)" cx="780.405" cy="293.581" r="14.4" fill="#e26f46" fill-rule="evenodd" fill-opacity="1" stroke="#000000" stroke-opacity="1" stroke-width="3.2"/>
<circle clip-path="url(#clip982)" cx="530.692" cy="377.587" r="14.4" fill="#e26f46" fill-rule="evenodd" fill-opacity="1" stroke="#000000" stroke-opacity="1" stroke-width="3.2"/>
<circle clip-path="url(#clip982)" cx="1870.06" cy="1310.46" r="14.4" fill="#e26f46" fill-rule="evenodd" fill-opacity="1" stroke="#000000" stroke-opacity="1" stroke-width="3.2"/>
<circle clip-path="url(#clip982)" cx="1403.07" cy="1035.02" r="14.4" fill="#e26f46" fill-rule="evenodd" fill-opacity="1" stroke="#000000" stroke-opacity="1" stroke-width="3.2"/>
<circle clip-path="url(#clip982)" cx="1445.23" cy="940.343" r="14.4" fill="#e26f46" fill-rule="evenodd" fill-opacity="1" stroke="#000000" stroke-opacity="1" stroke-width="3.2"/>
<circle clip-path="url(#clip982)" cx="1007.42" cy="284.706" r="14.4" fill="#e26f46" fill-rule="evenodd" fill-opacity="1" stroke="#000000" stroke-opacity="1" stroke-width="3.2"/>
<circle clip-path="url(#clip982)" cx="1075.52" cy="351.674" r="14.4" fill="#e26f46" fill-rule="evenodd" fill-opacity="1" stroke="#000000" stroke-opacity="1" stroke-width="3.2"/>
<circle clip-path="url(#clip982)" cx="1072.28" cy="390.533" r="14.4" fill="#e26f46" fill-rule="evenodd" fill-opacity="1" stroke="#000000" stroke-opacity="1" stroke-width="3.2"/>
<circle clip-path="url(#clip982)" cx="1172.81" cy="465.642" r="14.4" fill="#e26f46" fill-rule="evenodd" fill-opacity="1" stroke="#000000" stroke-opacity="1" stroke-width="3.2"/>
<circle clip-path="url(#clip982)" cx="942.557" cy="294.216" r="14.4" fill="#e26f46" fill-rule="evenodd" fill-opacity="1" stroke="#000000" stroke-opacity="1" stroke-width="3.2"/>
<circle clip-path="url(#clip982)" cx="1737.1" cy="1148.14" r="14.4" fill="#e26f46" fill-rule="evenodd" fill-opacity="1" stroke="#000000" stroke-opacity="1" stroke-width="3.2"/>
<circle clip-path="url(#clip982)" cx="1574.95" cy="1179.86" r="14.4" fill="#e26f46" fill-rule="evenodd" fill-opacity="1" stroke="#000000" stroke-opacity="1" stroke-width="3.2"/>
<circle clip-path="url(#clip982)" cx="1717.64" cy="1163.85" r="14.4" fill="#e26f46" fill-rule="evenodd" fill-opacity="1" stroke="#000000" stroke-opacity="1" stroke-width="3.2"/>
<circle clip-path="url(#clip982)" cx="1691.7" cy="1214.5" r="14.4" fill="#e26f46" fill-rule="evenodd" fill-opacity="1" stroke="#000000" stroke-opacity="1" stroke-width="3.2"/>
<circle clip-path="url(#clip982)" cx="1344.69" cy="776.509" r="14.4" fill="#e26f46" fill-rule="evenodd" fill-opacity="1" stroke="#000000" stroke-opacity="1" stroke-width="3.2"/>
<circle clip-path="url(#clip982)" cx="1179.3" cy="610.984" r="14.4" fill="#e26f46" fill-rule="evenodd" fill-opacity="1" stroke="#000000" stroke-opacity="1" stroke-width="3.2"/>
<circle clip-path="url(#clip982)" cx="618.254" cy="179.714" r="14.4" fill="#e26f46" fill-rule="evenodd" fill-opacity="1" stroke="#000000" stroke-opacity="1" stroke-width="3.2"/>
<circle clip-path="url(#clip982)" cx="1918.71" cy="1294.33" r="14.4" fill="#e26f46" fill-rule="evenodd" fill-opacity="1" stroke="#000000" stroke-opacity="1" stroke-width="3.2"/>
<circle clip-path="url(#clip982)" cx="336.11" cy="653.2" r="14.4" fill="#e26f46" fill-rule="evenodd" fill-opacity="1" stroke="#000000" stroke-opacity="1" stroke-width="3.2"/>
<circle clip-path="url(#clip982)" cx="897.155" cy="383.263" r="14.4" fill="#e26f46" fill-rule="evenodd" fill-opacity="1" stroke="#000000" stroke-opacity="1" stroke-width="3.2"/>
<path clip-path="url(#clip982)" d="M255.035 966.114 L258.278 961.578 L261.521 957.015 L264.764 952.427 L268.007 947.816 L271.25 943.187 L274.493 938.541 L277.736 933.882 L280.979 929.214 L284.222 924.54 L287.465 919.865 L290.708 915.192 L293.951 910.526 L297.194 905.872 L300.437 901.233 L303.68 896.616 L306.923 892.024 L310.166 887.464 L313.409 882.94 L316.652 878.457 L319.895 874.022 L323.138 869.639 L326.381 865.313 L329.624 861.051 L332.867 856.856 L336.11 852.735 L339.353 848.689 L342.596 844.715 L345.84 840.807 L349.083 836.957 L352.326 833.16 L355.569 829.408 L358.812 825.695 L362.055 822.015 L365.298 818.36 L368.541 814.725 L371.784 811.102 L375.027 807.485 L378.27 803.869 L381.513 800.248 L384.756 796.616 L387.999 792.968 L391.242 789.299 L394.485 785.605 L397.728 781.88 L400.971 778.122 L404.214 774.326 L407.457 770.489 L410.7 766.609 L413.943 762.682 L417.186 758.706 L420.429 754.679 L423.672 750.601 L426.915 746.468 L430.158 742.282 L433.401 738.04 L436.644 733.743 L439.887 729.392 L443.13 724.986 L446.373 720.526 L449.616 716.015 L452.859 711.453 L456.103 706.842 L459.346 702.184 L462.589 697.483 L465.832 692.742 L469.075 687.963 L472.318 683.15 L475.561 678.309 L478.804 673.442 L482.047 668.556 L485.29 663.655 L488.533 658.746 L491.776 653.833 L495.019 648.924 L498.262 644.026 L501.505 639.146 L504.748 634.291 L507.991 629.469 L511.234 624.688 L514.477 619.958 L517.72 615.286 L520.963 610.682 L524.206 606.155 L527.449 601.715 L530.692 597.371 L533.935 593.132 L537.178 588.996 L540.421 584.963 L543.664 581.031 L546.907 577.198 L550.15 573.464 L553.393 569.827 L556.636 566.287 L559.879 562.844 L563.122 559.496 L566.366 556.246 L569.609 553.093 L572.852 550.038 L576.095 547.084 L579.338 544.232 L582.581 541.484 L585.824 538.844 L589.067 536.315 L592.31 533.9 L595.553 531.604 L598.796 529.431 L602.039 527.386 L605.282 525.473 L608.525 523.699 L611.768 522.069 L615.011 520.59 L618.254 519.266 L621.497 518.102 L624.74 517.088 L627.983 516.215 L631.226 515.47 L634.469 514.843 L637.712 514.324 L640.955 513.901 L644.198 513.567 L647.441 513.31 L650.684 513.122 L653.927 512.994 L657.17 512.918 L660.413 512.887 L663.656 512.892 L666.899 512.926 L670.142 512.984 L673.385 513.059 L676.629 513.145 L679.872 513.237 L683.115 513.33 L686.358 513.421 L689.601 513.504 L692.844 513.577 L696.087 513.637 L699.33 513.679 L702.573 513.703 L705.816 513.707 L709.059 513.688 L712.302 513.646 L715.545 513.579 L718.788 513.488 L722.031 513.373 L725.274 513.233 L728.517 513.07 L731.76 512.885 L735.003 512.679 L738.246 512.455 L741.489 512.213 L744.732 511.958 L747.975 511.691 L751.218 511.416 L754.461 511.137 L757.704 510.857 L760.947 510.58 L764.19 510.311 L767.433 510.055 L770.676 509.815 L773.919 509.598 L777.162 509.407 L780.405 509.249 L783.648 509.126 L786.892 509.034 L790.135 508.968 L793.378 508.921 L796.621 508.887 L799.864 508.861 L803.107 508.837 L806.35 508.81 L809.593 508.776 L812.836 508.729 L816.079 508.665 L819.322 508.58 L822.565 508.471 L825.808 508.335 L829.051 508.168 L832.294 507.969 L835.537 507.735 L838.78 507.466 L842.023 507.159 L845.266 506.816 L848.509 506.435 L851.752 506.017 L854.995 505.564 L858.238 505.076 L861.481 504.556 L864.724 504.006 L867.967 503.429 L871.21 502.829 L874.453 502.209 L877.696 501.575 L880.939 500.93 L884.182 500.281 L887.425 499.633 L890.668 498.992 L893.911 498.365 L897.155 497.759 L900.398 497.179 L903.641 496.628 L906.884 496.107 L910.127 495.618 L913.37 495.162 L916.613 494.743 L919.856 494.363 L923.099 494.024 L926.342 493.731 L929.585 493.487 L932.828 493.296 L936.071 493.164 L939.314 493.094 L942.557 493.093 L945.8 493.165 L949.043 493.306 L952.286 493.514 L955.529 493.783 L958.772 494.112 L962.015 494.496 L965.258 494.936 L968.501 495.428 L971.744 495.973 L974.987 496.57 L978.23 497.22 L981.473 497.925 L984.716 498.685 L987.959 499.505 L991.202 500.387 L994.445 501.336 L997.688 502.357 L1000.93 503.455 L1004.17 504.637 L1007.42 505.909 L1010.66 507.276 L1013.9 508.737 L1017.15 510.289 L1020.39 511.929 L1023.63 513.656 L1026.88 515.467 L1030.12 517.363 L1033.36 519.343 L1036.6 521.409 L1039.85 523.563 L1043.09 525.806 L1046.33 528.143 L1049.58 530.577 L1052.82 533.113 L1056.06 535.757 L1059.31 538.514 L1062.55 541.392 L1065.79 544.396 L1069.04 547.536 L1072.28 550.819 L1075.52 554.251 L1078.76 557.832 L1082.01 561.554 L1085.25 565.405 L1088.49 569.375 L1091.74 573.456 L1094.98 577.638 L1098.22 581.912 L1101.47 586.27 L1104.71 590.706 L1107.95 595.213 L1111.19 599.786 L1114.44 604.419 L1117.68 609.11 L1120.92 613.854 L1124.17 618.65 L1127.41 623.497 L1130.65 628.393 L1133.9 633.34 L1137.14 638.338 L1140.38 643.389 L1143.62 648.496 L1146.87 653.663 L1150.11 658.892 L1153.35 664.19 L1156.6 669.56 L1159.84 675.009 L1163.08 680.543 L1166.33 686.168 L1169.57 691.89 L1172.81 697.716 L1176.06 703.65 L1179.3 709.689 L1182.54 715.827 L1185.78 722.052 L1189.03 728.354 L1192.27 734.722 L1195.51 741.145 L1198.76 747.612 L1202 754.114 L1205.24 760.64 L1208.49 767.18 L1211.73 773.726 L1214.97 780.27 L1218.21 786.802 L1221.46 793.316 L1224.7 799.803 L1227.94 806.259 L1231.19 812.676 L1234.43 819.049 L1237.67 825.372 L1240.92 831.641 L1244.16 837.852 L1247.4 844 L1250.64 850.083 L1253.89 856.098 L1257.13 862.041 L1260.37 867.911 L1263.62 873.707 L1266.86 879.426 L1270.1 885.069 L1273.35 890.634 L1276.59 896.122 L1279.83 901.532 L1283.08 906.867 L1286.32 912.126 L1289.56 917.311 L1292.8 922.425 L1296.05 927.47 L1299.29 932.448 L1302.53 937.362 L1305.78 942.217 L1309.02 947.016 L1312.26 951.764 L1315.51 956.466 L1318.75 961.126 L1321.99 965.75 L1325.23 970.345 L1328.48 974.917 L1331.72 979.473 L1334.96 984.019 L1338.21 988.564 L1341.45 993.116 L1344.69 997.681 L1347.94 1002.27 L1351.18 1006.87 L1354.42 1011.49 L1357.66 1016.13 L1360.91 1020.78 L1364.15 1025.43 L1367.39 1030.09 L1370.64 1034.76 L1373.88 1039.43 L1377.12 1044.1 L1380.37 1048.78 L1383.61 1053.46 L1386.85 1058.14 L1390.1 1062.83 L1393.34 1067.52 L1396.58 1072.22 L1399.82 1076.93 L1403.07 1081.64 L1406.31 1086.37 L1409.55 1091.11 L1412.8 1095.85 L1416.04 1100.61 L1419.28 1105.38 L1422.53 1110.15 L1425.77 1114.94 L1429.01 1119.73 L1432.25 1124.54 L1435.5 1129.35 L1438.74 1134.18 L1441.98 1139.03 L1445.23 1143.88 L1448.47 1148.76 L1451.71 1153.64 L1454.96 1158.52 L1458.2 1163.39 L1461.44 1168.25 L1464.68 1173.07 L1467.93 1177.87 L1471.17 1182.63 L1474.41 1187.33 L1477.66 1191.99 L1480.9 1196.59 L1484.14 1201.12 L1487.39 1205.58 L1490.63 1209.97 L1493.87 1214.28 L1497.11 1218.51 L1500.36 1222.66 L1503.6 1226.72 L1506.84 1230.69 L1510.09 1234.56 L1513.33 1238.35 L1516.57 1242.04 L1519.82 1245.63 L1523.06 1249.13 L1526.3 1252.54 L1529.55 1255.85 L1532.79 1259.06 L1536.03 1262.18 L1539.27 1265.21 L1542.52 1268.15 L1545.76 1271 L1549 1273.77 L1552.25 1276.45 L1555.49 1279.05 L1558.73 1281.57 L1561.98 1284.02 L1565.22 1286.39 L1568.46 1288.7 L1571.7 1290.94 L1574.95 1293.12 L1578.19 1295.24 L1581.43 1297.3 L1584.68 1299.29 L1587.92 1301.23 L1591.16 1303.09 L1594.41 1304.88 L1597.65 1306.6 L1600.89 1308.25 L1604.13 1309.82 L1607.38 1311.32 L1610.62 1312.73 L1613.86 1314.07 L1617.11 1315.33 L1620.35 1316.52 L1623.59 1317.62 L1626.84 1318.65 L1630.08 1319.6 L1633.32 1320.48 L1636.57 1321.28 L1639.81 1322.02 L1643.05 1322.7 L1646.29 1323.31 L1649.54 1323.87 L1652.78 1324.37 L1656.02 1324.83 L1659.27 1325.25 L1662.51 1325.64 L1665.75 1326 L1669 1326.34 L1672.24 1326.68 L1675.48 1327.02 L1678.72 1327.37 L1681.97 1327.74 L1685.21 1328.14 L1688.45 1328.59 L1691.7 1329.09 L1694.94 1329.65 L1698.18 1330.29 L1701.43 1331.01 L1704.67 1331.81 L1707.91 1332.71 L1711.15 1333.7 L1714.4 1334.79 L1717.64 1335.99 L1720.88 1337.31 L1724.13 1338.73 L1727.37 1340.27 L1730.61 1341.91 L1733.86 1343.65 L1737.1 1345.49 L1740.34 1347.43 L1743.59 1349.44 L1746.83 1351.53 L1750.07 1353.67 L1753.31 1355.85 L1756.56 1358.07 L1759.8 1360.3 L1763.04 1362.54 L1766.29 1364.78 L1769.53 1367 L1772.77 1369.21 L1776.02 1371.38 L1779.26 1373.52 L1782.5 1375.61 L1785.74 1377.65 L1788.99 1379.64 L1792.23 1381.56 L1795.47 1383.42 L1798.72 1385.21 L1801.96 1386.93 L1805.2 1388.57 L1808.45 1390.14 L1811.69 1391.63 L1814.93 1393.04 L1818.17 1394.37 L1821.42 1395.63 L1824.66 1396.81 L1827.9 1397.91 L1831.15 1398.95 L1834.39 1399.91 L1837.63 1400.82 L1840.88 1401.66 L1844.12 1402.45 L1847.36 1403.18 L1850.61 1403.88 L1853.85 1404.53 L1857.09 1405.15 L1860.33 1405.75 L1863.58 1406.33 L1866.82 1406.9 L1870.06 1407.47 L1873.31 1408.04 L1876.55 1408.62 L1879.79 1409.21 L1883.04 1409.81 L1886.28 1410.43 L1889.52 1411.06 L1892.76 1411.72 L1896.01 1412.39 L1899.25 1413.09 L1902.49 1413.81 L1905.74 1414.56 L1908.98 1415.35 L1912.22 1416.16 L1915.47 1417.01 L1918.71 1417.9 L1921.95 1418.83 L1925.19 1419.79 L1928.44 1420.78 L1931.68 1421.79 L1934.92 1422.82 L1938.17 1423.87 L1941.41 1424.92 L1944.65 1425.98 L1947.9 1427.04 L1951.14 1428.1 L1954.38 1429.15 L1957.63 1430.18 L1960.87 1431.2 L1964.11 1432.2 L1967.35 1433.18 L1970.6 1434.13 L1973.84 1435.06 L1977.08 1435.96 L1980.33 1436.82 L1983.57 1437.65 L1986.81 1438.45 L1990.06 1439.2 L1993.3 1439.92 L1996.54 1440.61 L1999.78 1441.25 L2003.03 1441.84 L2006.27 1442.4 L2009.51 1442.92 L2012.76 1443.39 L2016 1443.82 L2019.24 1444.2 L2022.49 1444.54 L2025.73 1444.84 L2028.97 1445.09 L2032.21 1445.3 L2035.46 1445.47 L2038.7 1445.59 L2041.94 1445.68 L2045.19 1445.72 L2048.43 1445.71 L2051.67 1445.67 L2054.92 1445.59 L2058.16 1445.46 L2061.4 1445.3 L2064.65 1445.09 L2067.89 1444.85 L2071.13 1444.57 L2074.37 1444.26 L2077.62 1443.9 L2080.86 1443.51 L2084.1 1443.09 L2087.35 1442.63 L2090.59 1442.14 L2093.83 1441.62 L2097.08 1441.07 L2100.32 1440.48 L2103.56 1439.86 L2106.8 1439.22 L2110.05 1438.54 L2113.29 1437.84 L2116.53 1437.11 L2119.78 1436.36 L2123.02 1435.57 L2126.26 1434.77 L2129.51 1433.94 L2132.75 1433.08 L2135.99 1432.21 L2139.23 1431.31 L2142.48 1430.39 L2145.72 1429.45 L2148.96 1428.49 L2152.21 1427.51 L2155.45 1426.52 L2158.69 1425.5 L2161.94 1424.47 L2165.18 1423.43 L2168.42 1422.37 L2171.67 1421.29 L2174.91 1420.2 L2178.15 1419.09 L2181.39 1417.98 L2184.64 1416.85 L2187.88 1415.7 L2191.12 1414.55 L2194.37 1413.39 L2197.61 1412.21 L2200.85 1411.03 L2204.1 1409.84 L2207.34 1408.64 L2210.58 1407.43 L2213.82 1406.22 L2217.07 1404.99 L2220.31 1403.77 L2223.55 1402.53 L2226.8 1401.29 L2230.04 1400.05 L2233.28 1398.8 L2236.53 1397.55 L2239.77 1396.29 L2243.01 1395.03 L2246.25 1393.77 L2249.5 1392.5 L2252.74 1391.24 L2255.98 1389.97 L2259.23 1388.7 L2262.47 1387.43 L2265.71 1386.15 L2268.96 1384.88 L2272.2 1383.61 L2275.44 1382.34 L2278.69 1381.07 L2281.93 1379.8 L2285.17 1378.54 L2288.41 1377.27 L2291.66 1376.01 L2291.66 427.802 L2288.41 430.669 L2285.17 433.573 L2281.93 436.515 L2278.69 439.494 L2275.44 442.512 L2272.2 445.569 L2268.96 448.665 L2265.71 451.801 L2262.47 454.976 L2259.23 458.192 L2255.98 461.448 L2252.74 464.746 L2249.5 468.085 L2246.25 471.466 L2243.01 474.89 L2239.77 478.356 L2236.53 481.864 L2233.28 485.417 L2230.04 489.013 L2226.8 492.653 L2223.55 496.337 L2220.31 500.066 L2217.07 503.841 L2213.82 507.661 L2210.58 511.526 L2207.34 515.438 L2204.1 519.396 L2200.85 523.401 L2197.61 527.453 L2194.37 531.552 L2191.12 535.699 L2187.88 539.894 L2184.64 544.137 L2181.39 548.428 L2178.15 552.768 L2174.91 557.157 L2171.67 561.595 L2168.42 566.082 L2165.18 570.619 L2161.94 575.205 L2158.69 579.841 L2155.45 584.527 L2152.21 589.263 L2148.96 594.049 L2145.72 598.885 L2142.48 603.771 L2139.23 608.708 L2135.99 613.695 L2132.75 618.732 L2129.51 623.819 L2126.26 628.956 L2123.02 634.144 L2119.78 639.38 L2116.53 644.667 L2113.29 650.003 L2110.05 655.388 L2106.8 660.821 L2103.56 666.303 L2100.32 671.833 L2097.08 677.411 L2093.83 683.036 L2090.59 688.707 L2087.35 694.424 L2084.1 700.187 L2080.86 705.994 L2077.62 711.845 L2074.37 717.738 L2071.13 723.674 L2067.89 729.651 L2064.65 735.668 L2061.4 741.723 L2058.16 747.816 L2054.92 753.945 L2051.67 760.109 L2048.43 766.306 L2045.19 772.535 L2041.94 778.793 L2038.7 785.079 L2035.46 791.391 L2032.21 797.727 L2028.97 804.084 L2025.73 810.461 L2022.49 816.853 L2019.24 823.259 L2016 829.676 L2012.76 836.101 L2009.51 842.53 L2006.27 848.959 L2003.03 855.386 L1999.78 861.806 L1996.54 868.215 L1993.3 874.608 L1990.06 880.981 L1986.81 887.328 L1983.57 893.646 L1980.33 899.927 L1977.08 906.166 L1973.84 912.357 L1970.6 918.493 L1967.35 924.568 L1964.11 930.574 L1960.87 936.503 L1957.63 942.348 L1954.38 948.1 L1951.14 953.75 L1947.9 959.289 L1944.65 964.707 L1941.41 969.995 L1938.17 975.142 L1934.92 980.136 L1931.68 984.968 L1928.44 989.626 L1925.19 994.098 L1921.95 998.372 L1918.71 1002.44 L1915.47 1006.28 L1912.22 1009.91 L1908.98 1013.32 L1905.74 1016.52 L1902.49 1019.51 L1899.25 1022.3 L1896.01 1024.88 L1892.76 1027.26 L1889.52 1029.44 L1886.28 1031.42 L1883.04 1033.22 L1879.79 1034.81 L1876.55 1036.22 L1873.31 1037.44 L1870.06 1038.47 L1866.82 1039.32 L1863.58 1039.99 L1860.33 1040.51 L1857.09 1040.88 L1853.85 1041.13 L1850.61 1041.26 L1847.36 1041.29 L1844.12 1041.23 L1840.88 1041.09 L1837.63 1040.89 L1834.39 1040.64 L1831.15 1040.34 L1827.9 1040 L1824.66 1039.64 L1821.42 1039.26 L1818.17 1038.87 L1814.93 1038.48 L1811.69 1038.08 L1808.45 1037.69 L1805.2 1037.32 L1801.96 1036.95 L1798.72 1036.6 L1795.47 1036.27 L1792.23 1035.96 L1788.99 1035.67 L1785.74 1035.39 L1782.5 1035.14 L1779.26 1034.9 L1776.02 1034.68 L1772.77 1034.46 L1769.53 1034.25 L1766.29 1034.05 L1763.04 1033.83 L1759.8 1033.61 L1756.56 1033.37 L1753.31 1033.1 L1750.07 1032.79 L1746.83 1032.44 L1743.59 1032.04 L1740.34 1031.57 L1737.1 1031.02 L1733.86 1030.39 L1730.61 1029.66 L1727.37 1028.84 L1724.13 1027.91 L1720.88 1026.88 L1717.64 1025.73 L1714.4 1024.46 L1711.15 1023.08 L1707.91 1021.58 L1704.67 1019.97 L1701.43 1018.24 L1698.18 1016.41 L1694.94 1014.47 L1691.7 1012.42 L1688.45 1010.27 L1685.21 1008.02 L1681.97 1005.69 L1678.72 1003.29 L1675.48 1000.83 L1672.24 998.315 L1669 995.756 L1665.75 993.162 L1662.51 990.541 L1659.27 987.901 L1656.02 985.246 L1652.78 982.584 L1649.54 979.918 L1646.29 977.254 L1643.05 974.594 L1639.81 971.941 L1636.57 969.298 L1633.32 966.666 L1630.08 964.046 L1626.84 961.438 L1623.59 958.841 L1620.35 956.255 L1617.11 953.679 L1613.86 951.109 L1610.62 948.544 L1607.38 945.98 L1604.13 943.415 L1600.89 940.843 L1597.65 938.26 L1594.41 935.662 L1591.16 933.043 L1587.92 930.398 L1584.68 927.721 L1581.43 925.005 L1578.19 922.245 L1574.95 919.433 L1571.7 916.565 L1568.46 913.646 L1565.22 910.683 L1561.98 907.681 L1558.73 904.647 L1555.49 901.588 L1552.25 898.508 L1549 895.413 L1545.76 892.309 L1542.52 889.2 L1539.27 886.09 L1536.03 882.984 L1532.79 879.884 L1529.55 876.795 L1526.3 873.718 L1523.06 870.656 L1519.82 867.611 L1516.57 864.585 L1513.33 861.577 L1510.09 858.589 L1506.84 855.62 L1503.6 852.671 L1500.36 849.739 L1497.11 846.823 L1493.87 843.921 L1490.63 841.031 L1487.39 838.15 L1484.14 835.273 L1480.9 832.397 L1477.66 829.516 L1474.41 826.626 L1471.17 823.721 L1467.93 820.794 L1464.68 817.839 L1461.44 814.848 L1458.2 811.812 L1454.96 808.725 L1451.71 805.577 L1448.47 802.358 L1445.23 799.06 L1441.98 795.675 L1438.74 792.197 L1435.5 788.625 L1432.25 784.955 L1429.01 781.185 L1425.77 777.31 L1422.53 773.327 L1419.28 769.231 L1416.04 765.018 L1412.8 760.683 L1409.55 756.22 L1406.31 751.625 L1403.07 746.891 L1399.82 742.015 L1396.58 737.003 L1393.34 731.865 L1390.1 726.608 L1386.85 721.241 L1383.61 715.771 L1380.37 710.206 L1377.12 704.552 L1373.88 698.817 L1370.64 693.006 L1367.39 687.124 L1364.15 681.177 L1360.91 675.17 L1357.66 669.106 L1354.42 662.99 L1351.18 656.825 L1347.94 650.614 L1344.69 644.361 L1341.45 638.069 L1338.21 631.747 L1334.96 625.403 L1331.72 619.047 L1328.48 612.689 L1325.23 606.335 L1321.99 599.994 L1318.75 593.674 L1315.51 587.382 L1312.26 581.124 L1309.02 574.908 L1305.78 568.739 L1302.53 562.622 L1299.29 556.564 L1296.05 550.568 L1292.8 544.638 L1289.56 538.78 L1286.32 532.995 L1283.08 527.288 L1279.83 521.66 L1276.59 516.115 L1273.35 510.653 L1270.1 505.277 L1266.86 499.988 L1263.62 494.786 L1260.37 489.671 L1257.13 484.644 L1253.89 479.704 L1250.64 474.85 L1247.4 470.081 L1244.16 465.395 L1240.92 460.79 L1237.67 456.263 L1234.43 451.813 L1231.19 447.434 L1227.94 443.124 L1224.7 438.879 L1221.46 434.693 L1218.21 430.561 L1214.97 426.478 L1211.73 422.438 L1208.49 418.435 L1205.24 414.46 L1202 410.508 L1198.76 406.57 L1195.51 402.638 L1192.27 398.703 L1189.03 394.758 L1185.78 390.793 L1182.54 386.799 L1179.3 382.768 L1176.06 378.691 L1172.81 374.571 L1169.57 370.412 L1166.33 366.221 L1163.08 362.006 L1159.84 357.776 L1156.6 353.539 L1153.35 349.304 L1150.11 345.077 L1146.87 340.867 L1143.62 336.68 L1140.38 332.523 L1137.14 328.402 L1133.9 324.321 L1130.65 320.287 L1127.41 316.302 L1124.17 312.37 L1120.92 308.493 L1117.68 304.674 L1114.44 300.913 L1111.19 297.211 L1107.95 293.568 L1104.71 289.981 L1101.47 286.451 L1098.22 282.973 L1094.98 279.545 L1091.74 276.164 L1088.49 272.825 L1085.25 269.524 L1082.01 266.255 L1078.76 263.013 L1075.52 259.792 L1072.28 256.589 L1069.04 253.402 L1065.79 250.236 L1062.55 247.099 L1059.31 243.995 L1056.06 240.931 L1052.82 237.913 L1049.58 234.945 L1046.33 232.032 L1043.09 229.178 L1039.85 226.387 L1036.6 223.662 L1033.36 221.004 L1030.12 218.417 L1026.88 215.9 L1023.63 213.454 L1020.39 211.08 L1017.15 208.776 L1013.9 206.542 L1010.66 204.375 L1007.42 202.275 L1004.17 200.238 L1000.93 198.266 L997.688 196.36 L994.445 194.52 L991.202 192.747 L987.959 191.041 L984.716 189.401 L981.473 187.825 L978.23 186.311 L974.987 184.857 L971.744 183.46 L968.501 182.116 L965.258 180.821 L962.015 179.57 L958.772 178.357 L955.529 177.178 L952.286 176.025 L949.043 174.891 L945.8 173.771 L942.557 172.656 L939.314 171.541 L936.071 170.422 L932.828 169.297 L929.585 168.166 L926.342 167.026 L923.099 165.874 L919.856 164.708 L916.613 163.524 L913.37 162.32 L910.127 161.092 L906.884 159.835 L903.641 158.546 L900.398 157.22 L897.155 155.853 L893.911 154.441 L890.668 152.99 L887.425 151.507 L884.182 149.998 L880.939 148.469 L877.696 146.926 L874.453 145.375 L871.21 143.821 L867.967 142.27 L864.724 140.724 L861.481 139.19 L858.238 137.669 L854.995 136.165 L851.752 134.681 L848.509 133.22 L845.266 131.782 L842.023 130.37 L838.78 128.984 L835.537 127.624 L832.294 126.292 L829.051 124.987 L825.808 123.707 L822.565 122.453 L819.322 121.223 L816.079 120.014 L812.836 118.826 L809.593 117.655 L806.35 116.499 L803.107 115.355 L799.864 114.221 L796.621 113.092 L793.378 111.965 L790.135 110.837 L786.892 109.704 L783.648 108.563 L780.405 107.409 L777.162 106.24 L773.919 105.062 L770.676 103.879 L767.433 102.699 L764.19 101.528 L760.947 100.372 L757.704 99.2358 L754.461 98.1264 L751.218 97.0493 L747.975 96.0099 L744.732 95.0136 L741.489 94.0655 L738.246 93.1704 L735.003 92.333 L731.76 91.5578 L728.517 90.8489 L725.274 90.2101 L722.031 89.6451 L718.788 89.1574 L715.545 88.7499 L712.302 88.4257 L709.059 88.1871 L705.816 88.0367 L702.573 87.9763 L699.33 88.0078 L696.087 88.1326 L692.844 88.352 L689.601 88.6669 L686.358 89.078 L683.115 89.5856 L679.872 90.1898 L676.629 90.8905 L673.385 91.687 L670.142 92.5788 L666.899 93.5646 L663.656 94.6432 L660.413 95.8128 L657.17 97.0716 L653.927 98.4173 L650.684 99.8475 L647.441 101.359 L644.198 102.95 L640.955 104.616 L637.712 106.354 L634.469 108.16 L631.226 110.03 L627.983 111.961 L624.74 113.949 L621.497 115.988 L618.254 118.076 L615.011 120.208 L611.768 122.383 L608.525 124.601 L605.282 126.861 L602.039 129.162 L598.796 131.503 L595.553 133.884 L592.31 136.303 L589.067 138.76 L585.824 141.252 L582.581 143.778 L579.338 146.336 L576.095 148.925 L572.852 151.54 L569.609 154.181 L566.366 156.842 L563.122 159.522 L559.879 162.217 L556.636 164.923 L553.393 167.635 L550.15 170.349 L546.907 173.061 L543.664 175.767 L540.421 178.461 L537.178 181.138 L533.935 183.794 L530.692 186.423 L527.449 189.023 L524.206 191.597 L520.963 194.15 L517.72 196.686 L514.477 199.212 L511.234 201.733 L507.991 204.252 L504.748 206.775 L501.505 209.305 L498.262 211.848 L495.019 214.406 L491.776 216.984 L488.533 219.584 L485.29 222.21 L482.047 224.865 L478.804 227.549 L475.561 230.266 L472.318 233.017 L469.075 235.804 L465.832 238.627 L462.589 241.487 L459.346 244.385 L456.103 247.32 L452.859 250.293 L449.616 253.302 L446.373 256.347 L443.13 259.426 L439.887 262.538 L436.644 265.681 L433.401 268.853 L430.158 272.05 L426.915 275.271 L423.672 278.512 L420.429 281.77 L417.186 285.039 L413.943 288.318 L410.7 291.6 L407.457 294.88 L404.214 298.155 L400.971 301.417 L397.728 304.662 L394.485 307.882 L391.242 311.072 L387.999 314.223 L384.756 317.33 L381.513 320.384 L378.27 323.378 L375.027 326.304 L371.784 329.152 L368.541 331.914 L365.298 334.582 L362.055 337.146 L358.812 339.597 L355.569 341.926 L352.326 344.123 L349.083 346.178 L345.84 348.082 L342.596 349.826 L339.353 351.4 L336.11 352.795 L332.867 354.005 L329.624 355.033 L326.381 355.887 L323.138 356.575 L319.895 357.102 L316.652 357.478 L313.409 357.708 L310.166 357.801 L306.923 357.764 L303.68 357.603 L300.437 357.326 L297.194 356.939 L293.951 356.45 L290.708 355.864 L287.465 355.188 L284.222 354.427 L280.979 353.588 L277.736 352.676 L274.493 351.696 L271.25 350.654 L268.007 349.554 L264.764 348.401 L261.521 347.2 L258.278 345.953 L255.035 344.667  Z" fill="#3da44d" fill-rule="evenodd" fill-opacity="0.1"/>
<polyline clip-path="url(#clip982)" style="stroke:#3da44d; stroke-linecap:round; stroke-linejoin:round; stroke-width:8; stroke-opacity:1; fill:none" points="255.035,655.39 258.278,653.766 261.521,652.107 264.764,650.414 268.007,648.685 271.25,646.92 274.493,645.119 277.736,643.279 280.979,641.401 284.222,639.484 287.465,637.526 290.708,635.528 293.951,633.488 297.194,631.406 300.437,629.28 303.68,627.109 306.923,624.894 310.166,622.633 313.409,620.324 316.652,617.968 319.895,615.562 323.138,613.107 326.381,610.6 329.624,608.042 332.867,605.431 336.11,602.765 339.353,600.045 342.596,597.271 345.84,594.445 349.083,591.568 352.326,588.641 355.569,585.667 358.812,582.646 362.055,579.581 365.298,576.471 368.541,573.319 371.784,570.127 375.027,566.894 378.27,563.624 381.513,560.316 384.756,556.973 387.999,553.596 391.242,550.185 394.485,546.743 397.728,543.271 400.971,539.77 404.214,536.241 407.457,532.685 410.7,529.104 413.943,525.5 417.186,521.873 420.429,518.224 423.672,514.556 426.915,510.87 430.158,507.166 433.401,503.446 436.644,499.712 439.887,495.965 443.13,492.206 446.373,488.437 449.616,484.658 452.859,480.873 456.103,477.081 459.346,473.285 462.589,469.485 465.832,465.684 469.075,461.883 472.318,458.084 475.561,454.287 478.804,450.496 482.047,446.71 485.29,442.933 488.533,439.165 491.776,435.409 495.019,431.665 498.262,427.937 501.505,424.226 504.748,420.533 507.991,416.86 511.234,413.21 514.477,409.585 517.72,405.986 520.963,402.416 524.206,398.876 527.449,395.369 530.692,391.897 533.935,388.463 537.178,385.067 540.421,381.712 543.664,378.399 546.907,375.13 550.15,371.907 553.393,368.731 556.636,365.605 559.879,362.53 563.122,359.509 566.366,356.544 569.609,353.637 572.852,350.789 576.095,348.004 579.338,345.284 582.581,342.631 585.824,340.048 589.067,337.537 592.31,335.102 595.553,332.744 598.796,330.467 602.039,328.274 605.282,326.167 608.525,324.15 611.768,322.226 615.011,320.399 618.254,318.671 621.497,317.045 624.74,315.518 627.983,314.088 631.226,312.75 634.469,311.501 637.712,310.339 640.955,309.259 644.198,308.258 647.441,307.335 650.684,306.485 653.927,305.706 657.17,304.995 660.413,304.35 663.656,303.767 666.899,303.245 670.142,302.781 673.385,302.373 676.629,302.018 679.872,301.713 683.115,301.458 686.358,301.249 689.601,301.086 692.844,300.965 696.087,300.885 699.33,300.844 702.573,300.84 705.816,300.872 709.059,300.937 712.302,301.036 715.545,301.165 718.788,301.323 722.031,301.509 725.274,301.722 728.517,301.96 731.76,302.221 735.003,302.506 738.246,302.812 741.489,303.139 744.732,303.486 747.975,303.85 751.218,304.233 754.461,304.632 757.704,305.046 760.947,305.476 764.19,305.92 767.433,306.377 770.676,306.847 773.919,307.33 777.162,307.824 780.405,308.329 783.648,308.844 786.892,309.369 790.135,309.902 793.378,310.443 796.621,310.989 799.864,311.541 803.107,312.096 806.35,312.655 809.593,313.215 812.836,313.777 816.079,314.339 819.322,314.901 822.565,315.462 825.808,316.021 829.051,316.577 832.294,317.131 835.537,317.68 838.78,318.225 842.023,318.765 845.266,319.299 848.509,319.827 851.752,320.349 854.995,320.864 858.238,321.372 861.481,321.873 864.724,322.365 867.967,322.849 871.21,323.325 874.453,323.792 877.696,324.25 880.939,324.699 884.182,325.139 887.425,325.57 890.668,325.991 893.911,326.403 897.155,326.806 900.398,327.2 903.641,327.587 906.884,327.971 910.127,328.355 913.37,328.741 916.613,329.134 919.856,329.535 923.099,329.949 926.342,330.378 929.585,330.826 932.828,331.297 936.071,331.793 939.314,332.317 942.557,332.875 945.8,333.468 949.043,334.099 952.286,334.769 955.529,335.48 958.772,336.234 962.015,337.033 965.258,337.878 968.501,338.772 971.744,339.717 974.987,340.714 978.23,341.766 981.473,342.875 984.716,344.043 987.959,345.273 991.202,346.567 994.445,347.928 997.688,349.358 1000.93,350.86 1004.17,352.437 1007.42,354.092 1010.66,355.826 1013.9,357.64 1017.15,359.533 1020.39,361.505 1023.63,363.555 1026.88,365.683 1030.12,367.89 1033.36,370.174 1036.6,372.536 1039.85,374.975 1043.09,377.492 1046.33,380.088 1049.58,382.761 1052.82,385.513 1056.06,388.344 1059.31,391.255 1062.55,394.245 1065.79,397.316 1069.04,400.469 1072.28,403.704 1075.52,407.022 1078.76,410.423 1082.01,413.904 1085.25,417.464 1088.49,421.1 1091.74,424.81 1094.98,428.592 1098.22,432.442 1101.47,436.36 1104.71,440.344 1107.95,444.39 1111.19,448.499 1114.44,452.666 1117.68,456.892 1120.92,461.174 1124.17,465.51 1127.41,469.899 1130.65,474.34 1133.9,478.831 1137.14,483.37 1140.38,487.956 1143.62,492.588 1146.87,497.265 1150.11,501.985 1153.35,506.747 1156.6,511.55 1159.84,516.393 1163.08,521.275 1166.33,526.194 1169.57,531.151 1172.81,536.144 1176.06,541.171 1179.3,546.229 1182.54,551.313 1185.78,556.422 1189.03,561.556 1192.27,566.713 1195.51,571.891 1198.76,577.091 1202,582.311 1205.24,587.55 1208.49,592.807 1211.73,598.082 1214.97,603.374 1218.21,608.682 1221.46,614.004 1224.7,619.341 1227.94,624.692 1231.19,630.055 1234.43,635.431 1237.67,640.818 1240.92,646.215 1244.16,651.623 1247.4,657.04 1250.64,662.467 1253.89,667.901 1257.13,673.343 1260.37,678.791 1263.62,684.246 1266.86,689.707 1270.1,695.173 1273.35,700.644 1276.59,706.118 1279.83,711.596 1283.08,717.077 1286.32,722.56 1289.56,728.045 1292.8,733.532 1296.05,739.019 1299.29,744.506 1302.53,749.992 1305.78,755.478 1309.02,760.962 1312.26,766.444 1315.51,771.924 1318.75,777.4 1321.99,782.872 1325.23,788.34 1328.48,793.803 1331.72,799.26 1334.96,804.711 1338.21,810.156 1341.45,815.592 1344.69,821.021 1347.94,826.441 1351.18,831.849 1354.42,837.242 1357.66,842.618 1360.91,847.973 1364.15,853.304 1367.39,858.608 1370.64,863.882 1373.88,869.123 1377.12,874.328 1380.37,879.493 1383.61,884.616 1386.85,889.692 1390.1,894.72 1393.34,899.694 1396.58,904.612 1399.82,909.471 1403.07,914.267 1406.31,918.997 1409.55,923.663 1412.8,928.268 1416.04,932.814 1419.28,937.303 1422.53,941.739 1425.77,946.123 1429.01,950.458 1432.25,954.746 1435.5,958.989 1438.74,963.19 1441.98,967.35 1445.23,971.473 1448.47,975.558 1451.71,979.608 1454.96,983.623 1458.2,987.602 1461.44,991.547 1464.68,995.457 1467.93,999.332 1471.17,1003.17 1474.41,1006.98 1477.66,1010.75 1480.9,1014.49 1484.14,1018.2 1487.39,1021.87 1490.63,1025.5 1493.87,1029.1 1497.11,1032.67 1500.36,1036.2 1503.6,1039.69 1506.84,1043.15 1510.09,1046.58 1513.33,1049.96 1516.57,1053.31 1519.82,1056.62 1523.06,1059.9 1526.3,1063.13 1529.55,1066.32 1532.79,1069.47 1536.03,1072.58 1539.27,1075.65 1542.52,1078.68 1545.76,1081.66 1549,1084.59 1552.25,1087.48 1555.49,1090.32 1558.73,1093.11 1561.98,1095.85 1565.22,1098.54 1568.46,1101.17 1571.7,1103.75 1574.95,1106.28 1578.19,1108.74 1581.43,1111.15 1584.68,1113.51 1587.92,1115.81 1591.16,1118.07 1594.41,1120.27 1597.65,1122.43 1600.89,1124.55 1604.13,1126.62 1607.38,1128.65 1610.62,1130.64 1613.86,1132.59 1617.11,1134.51 1620.35,1136.39 1623.59,1138.23 1626.84,1140.04 1630.08,1141.82 1633.32,1143.57 1636.57,1145.29 1639.81,1146.98 1643.05,1148.65 1646.29,1150.28 1649.54,1151.89 1652.78,1153.48 1656.02,1155.04 1659.27,1156.57 1662.51,1158.09 1665.75,1159.58 1669,1161.05 1672.24,1162.5 1675.48,1163.92 1678.72,1165.33 1681.97,1166.72 1685.21,1168.08 1688.45,1169.43 1691.7,1170.75 1694.94,1172.06 1698.18,1173.35 1701.43,1174.63 1704.67,1175.89 1707.91,1177.14 1711.15,1178.39 1714.4,1179.62 1717.64,1180.86 1720.88,1182.09 1724.13,1183.32 1727.37,1184.55 1730.61,1185.78 1733.86,1187.02 1737.1,1188.26 1740.34,1189.5 1743.59,1190.74 1746.83,1191.99 1750.07,1193.23 1753.31,1194.48 1756.56,1195.72 1759.8,1196.95 1763.04,1198.19 1766.29,1199.41 1769.53,1200.63 1772.77,1201.83 1776.02,1203.03 1779.26,1204.21 1782.5,1205.37 1785.74,1206.52 1788.99,1207.65 1792.23,1208.76 1795.47,1209.85 1798.72,1210.91 1801.96,1211.94 1805.2,1212.94 1808.45,1213.92 1811.69,1214.85 1814.93,1215.76 1818.17,1216.62 1821.42,1217.44 1824.66,1218.22 1827.9,1218.96 1831.15,1219.64 1834.39,1220.28 1837.63,1220.86 1840.88,1221.38 1844.12,1221.84 1847.36,1222.24 1850.61,1222.57 1853.85,1222.83 1857.09,1223.02 1860.33,1223.13 1863.58,1223.16 1866.82,1223.11 1870.06,1222.97 1873.31,1222.74 1876.55,1222.42 1879.79,1222.01 1883.04,1221.52 1886.28,1220.93 1889.52,1220.25 1892.76,1219.49 1896.01,1218.63 1899.25,1217.69 1902.49,1216.66 1905.74,1215.54 1908.98,1214.33 1912.22,1213.04 1915.47,1211.65 1918.71,1210.17 1921.95,1208.6 1925.19,1206.94 1928.44,1205.2 1931.68,1203.38 1934.92,1201.48 1938.17,1199.51 1941.41,1197.46 1944.65,1195.35 1947.9,1193.17 1951.14,1190.92 1954.38,1188.62 1957.63,1186.26 1960.87,1183.85 1964.11,1181.39 1967.35,1178.87 1970.6,1176.31 1973.84,1173.71 1977.08,1171.06 1980.33,1168.37 1983.57,1165.65 1986.81,1162.89 1990.06,1160.09 1993.3,1157.27 1996.54,1154.41 1999.78,1151.53 2003.03,1148.62 2006.27,1145.68 2009.51,1142.72 2012.76,1139.74 2016,1136.75 2019.24,1133.73 2022.49,1130.7 2025.73,1127.65 2028.97,1124.59 2032.21,1121.52 2035.46,1118.43 2038.7,1115.34 2041.94,1112.23 2045.19,1109.13 2048.43,1106.01 2051.67,1102.89 2054.92,1099.77 2058.16,1096.64 2061.4,1093.51 2064.65,1090.38 2067.89,1087.25 2071.13,1084.12 2074.37,1081 2077.62,1077.87 2080.86,1074.75 2084.1,1071.64 2087.35,1068.53 2090.59,1065.43 2093.83,1062.33 2097.08,1059.24 2100.32,1056.16 2103.56,1053.08 2106.8,1050.02 2110.05,1046.97 2113.29,1043.92 2116.53,1040.89 2119.78,1037.87 2123.02,1034.86 2126.26,1031.86 2129.51,1028.88 2132.75,1025.91 2135.99,1022.95 2139.23,1020.01 2142.48,1017.08 2145.72,1014.17 2148.96,1011.27 2152.21,1008.39 2155.45,1005.52 2158.69,1002.67 2161.94,999.84 2165.18,997.023 2168.42,994.224 2171.67,991.442 2174.91,988.677 2178.15,985.931 2181.39,983.202 2184.64,980.491 2187.88,977.799 2191.12,975.125 2194.37,972.47 2197.61,969.834 2200.85,967.216 2204.1,964.618 2207.34,962.039 2210.58,959.479 2213.82,956.939 2217.07,954.418 2220.31,951.916 2223.55,949.435 2226.8,946.973 2230.04,944.53 2233.28,942.108 2236.53,939.705 2239.77,937.322 2243.01,934.96 2246.25,932.617 2249.5,930.294 2252.74,927.991 2255.98,925.708 2259.23,923.444 2262.47,921.201 2265.71,918.978 2268.96,916.774 2272.2,914.591 2275.44,912.427 2278.69,910.283 2281.93,908.159 2285.17,906.054 2288.41,903.969 2291.66,901.904 "/>
<path clip-path="url(#clip980)" d="M1953.46 302.578 L2280.8 302.578 L2280.8 95.2176 L1953.46 95.2176  Z" fill="#ffffff" fill-rule="evenodd" fill-opacity="1"/>
<polyline clip-path="url(#clip980)" style="stroke:#000000; stroke-linecap:round; stroke-linejoin:round; stroke-width:4; stroke-opacity:1; fill:none" points="1953.46,302.578 2280.8,302.578 2280.8,95.2176 1953.46,95.2176 1953.46,302.578 "/>
<polyline clip-path="url(#clip980)" style="stroke:#009af9; stroke-linecap:round; stroke-linejoin:round; stroke-width:4; stroke-opacity:1; fill:none" points="1977.44,147.058 2121.36,147.058 "/>
<path clip-path="url(#clip980)" d="M2152.76 131.051 L2152.76 138.412 L2161.53 138.412 L2161.53 141.722 L2152.76 141.722 L2152.76 155.796 Q2152.76 158.967 2153.61 159.87 Q2154.49 160.773 2157.16 160.773 L2161.53 160.773 L2161.53 164.338 L2157.16 164.338 Q2152.23 164.338 2150.35 162.509 Q2148.48 160.657 2148.48 155.796 L2148.48 141.722 L2145.35 141.722 L2145.35 138.412 L2148.48 138.412 L2148.48 131.051 L2152.76 131.051 Z" fill="#000000" fill-rule="nonzero" fill-opacity="1" /><path clip-path="url(#clip980)" d="M2182.16 142.393 Q2181.44 141.977 2180.58 141.791 Q2179.75 141.583 2178.73 141.583 Q2175.12 141.583 2173.17 143.944 Q2171.25 146.282 2171.25 150.68 L2171.25 164.338 L2166.97 164.338 L2166.97 138.412 L2171.25 138.412 L2171.25 142.44 Q2172.6 140.078 2174.75 138.944 Q2176.9 137.787 2179.98 137.787 Q2180.42 137.787 2180.95 137.856 Q2181.48 137.903 2182.13 138.018 L2182.16 142.393 Z" fill="#000000" fill-rule="nonzero" fill-opacity="1" /><path clip-path="url(#clip980)" d="M2186.18 154.106 L2186.18 138.412 L2190.44 138.412 L2190.44 153.944 Q2190.44 157.625 2191.88 159.476 Q2193.31 161.305 2196.18 161.305 Q2199.63 161.305 2201.62 159.106 Q2203.64 156.907 2203.64 153.111 L2203.64 138.412 L2207.9 138.412 L2207.9 164.338 L2203.64 164.338 L2203.64 160.356 Q2202.09 162.717 2200.03 163.875 Q2197.99 165.009 2195.28 165.009 Q2190.81 165.009 2188.5 162.231 Q2186.18 159.453 2186.18 154.106 M2196.9 137.787 L2196.9 137.787 Z" fill="#000000" fill-rule="nonzero" fill-opacity="1" /><path clip-path="url(#clip980)" d="M2220.88 131.051 L2220.88 138.412 L2229.66 138.412 L2229.66 141.722 L2220.88 141.722 L2220.88 155.796 Q2220.88 158.967 2221.74 159.87 Q2222.62 160.773 2225.28 160.773 L2229.66 160.773 L2229.66 164.338 L2225.28 164.338 Q2220.35 164.338 2218.48 162.509 Q2216.6 160.657 2216.6 155.796 L2216.6 141.722 L2213.48 141.722 L2213.48 138.412 L2216.6 138.412 L2216.6 131.051 L2220.88 131.051 Z" fill="#000000" fill-rule="nonzero" fill-opacity="1" /><path clip-path="url(#clip980)" d="M2256.81 148.689 L2256.81 164.338 L2252.55 164.338 L2252.55 148.828 Q2252.55 145.148 2251.11 143.319 Q2249.68 141.49 2246.81 141.49 Q2243.36 141.49 2241.37 143.69 Q2239.38 145.889 2239.38 149.685 L2239.38 164.338 L2235.1 164.338 L2235.1 128.319 L2239.38 128.319 L2239.38 142.44 Q2240.91 140.102 2242.97 138.944 Q2245.05 137.787 2247.76 137.787 Q2252.23 137.787 2254.52 140.565 Q2256.81 143.319 2256.81 148.689 Z" fill="#000000" fill-rule="nonzero" fill-opacity="1" /><circle clip-path="url(#clip980)" cx="2049.4" cy="198.898" r="20.48" fill="#e26f46" fill-rule="evenodd" fill-opacity="1" stroke="#000000" stroke-opacity="1" stroke-width="4.55111"/>
<path clip-path="url(#clip980)" d="M2164.26 194.187 L2164.26 180.159 L2168.52 180.159 L2168.52 216.178 L2164.26 216.178 L2164.26 212.289 Q2162.92 214.603 2160.86 215.738 Q2158.82 216.849 2155.95 216.849 Q2151.25 216.849 2148.29 213.099 Q2145.35 209.349 2145.35 203.238 Q2145.35 197.127 2148.29 193.377 Q2151.25 189.627 2155.95 189.627 Q2158.82 189.627 2160.86 190.761 Q2162.92 191.872 2164.26 194.187 M2149.75 203.238 Q2149.75 207.937 2151.67 210.622 Q2153.61 213.284 2156.99 213.284 Q2160.37 213.284 2162.32 210.622 Q2164.26 207.937 2164.26 203.238 Q2164.26 198.539 2162.32 195.877 Q2160.37 193.192 2156.99 193.192 Q2153.61 193.192 2151.67 195.877 Q2149.75 198.539 2149.75 203.238 Z" fill="#000000" fill-rule="nonzero" fill-opacity="1" /><path clip-path="url(#clip980)" d="M2189.08 203.145 Q2183.92 203.145 2181.92 204.326 Q2179.93 205.506 2179.93 208.354 Q2179.93 210.622 2181.42 211.965 Q2182.92 213.284 2185.49 213.284 Q2189.03 213.284 2191.16 210.784 Q2193.31 208.261 2193.31 204.094 L2193.31 203.145 L2189.08 203.145 M2197.57 201.386 L2197.57 216.178 L2193.31 216.178 L2193.31 212.242 Q2191.85 214.603 2189.68 215.738 Q2187.5 216.849 2184.36 216.849 Q2180.37 216.849 2178.01 214.627 Q2175.67 212.381 2175.67 208.631 Q2175.67 204.256 2178.59 202.034 Q2181.53 199.812 2187.34 199.812 L2193.31 199.812 L2193.31 199.395 Q2193.31 196.455 2191.37 194.858 Q2189.45 193.238 2185.95 193.238 Q2183.73 193.238 2181.62 193.77 Q2179.52 194.303 2177.57 195.367 L2177.57 191.432 Q2179.91 190.53 2182.11 190.09 Q2184.31 189.627 2186.39 189.627 Q2192.02 189.627 2194.79 192.543 Q2197.57 195.46 2197.57 201.386 Z" fill="#000000" fill-rule="nonzero" fill-opacity="1" /><path clip-path="url(#clip980)" d="M2210.56 182.891 L2210.56 190.252 L2219.33 190.252 L2219.33 193.562 L2210.56 193.562 L2210.56 207.636 Q2210.56 210.807 2211.42 211.71 Q2212.29 212.613 2214.96 212.613 L2219.33 212.613 L2219.33 216.178 L2214.96 216.178 Q2210.03 216.178 2208.15 214.349 Q2206.28 212.497 2206.28 207.636 L2206.28 193.562 L2203.15 193.562 L2203.15 190.252 L2206.28 190.252 L2206.28 182.891 L2210.56 182.891 Z" fill="#000000" fill-rule="nonzero" fill-opacity="1" /><path clip-path="url(#clip980)" d="M2236.72 203.145 Q2231.55 203.145 2229.56 204.326 Q2227.57 205.506 2227.57 208.354 Q2227.57 210.622 2229.05 211.965 Q2230.56 213.284 2233.13 213.284 Q2236.67 213.284 2238.8 210.784 Q2240.95 208.261 2240.95 204.094 L2240.95 203.145 L2236.72 203.145 M2245.21 201.386 L2245.21 216.178 L2240.95 216.178 L2240.95 212.242 Q2239.49 214.603 2237.32 215.738 Q2235.14 216.849 2231.99 216.849 Q2228.01 216.849 2225.65 214.627 Q2223.31 212.381 2223.31 208.631 Q2223.31 204.256 2226.23 202.034 Q2229.17 199.812 2234.98 199.812 L2240.95 199.812 L2240.95 199.395 Q2240.95 196.455 2239.01 194.858 Q2237.09 193.238 2233.59 193.238 Q2231.37 193.238 2229.26 193.77 Q2227.16 194.303 2225.21 195.367 L2225.21 191.432 Q2227.55 190.53 2229.75 190.09 Q2231.95 189.627 2234.03 189.627 Q2239.66 189.627 2242.43 192.543 Q2245.21 195.46 2245.21 201.386 Z" fill="#000000" fill-rule="nonzero" fill-opacity="1" /><polyline clip-path="url(#clip980)" style="stroke:#3da44d; stroke-linecap:round; stroke-linejoin:round; stroke-width:8; stroke-opacity:1; fill:none" points="1977.44,250.738 2121.36,250.738 "/>
<path clip-path="url(#clip980)" d="M2170.91 263.087 L2170.91 253.805 L2163.27 253.805 L2163.27 249.962 L2175.54 249.962 L2175.54 264.8 Q2172.83 266.721 2169.56 267.717 Q2166.3 268.689 2162.6 268.689 Q2154.49 268.689 2149.91 263.967 Q2145.35 259.221 2145.35 250.772 Q2145.35 242.3 2149.91 237.578 Q2154.49 232.833 2162.6 232.833 Q2165.98 232.833 2169.01 233.666 Q2172.06 234.499 2174.63 236.12 L2174.63 241.096 Q2172.04 238.897 2169.12 237.786 Q2166.21 236.675 2162.99 236.675 Q2156.65 236.675 2153.45 240.217 Q2150.28 243.758 2150.28 250.772 Q2150.28 257.763 2153.45 261.305 Q2156.65 264.846 2162.99 264.846 Q2165.47 264.846 2167.41 264.43 Q2169.36 263.99 2170.91 263.087 Z" fill="#000000" fill-rule="nonzero" fill-opacity="1" /><path clip-path="url(#clip980)" d="M2188.75 237.3 L2188.75 250.286 L2194.63 250.286 Q2197.9 250.286 2199.68 248.596 Q2201.46 246.907 2201.46 243.782 Q2201.46 240.68 2199.68 238.99 Q2197.9 237.3 2194.63 237.3 L2188.75 237.3 M2184.08 233.458 L2194.63 233.458 Q2200.44 233.458 2203.41 236.096 Q2206.39 238.712 2206.39 243.782 Q2206.39 248.897 2203.41 251.513 Q2200.44 254.129 2194.63 254.129 L2188.75 254.129 L2188.75 268.018 L2184.08 268.018 L2184.08 233.458 Z" fill="#000000" fill-rule="nonzero" fill-opacity="1" /></svg>
