<?xml version="1.0" encoding="utf-8"?>
<svg xmlns="http://www.w3.org/2000/svg" xmlns:xlink="http://www.w3.org/1999/xlink" width="600" height="400" viewBox="0 0 2400 1600">
<defs>
  <clipPath id="clip000">
    <rect x="0" y="0" width="2400" height="1600"/>
  </clipPath>
</defs>
<path clip-path="url(#clip000)" d="M0 1600 L2400 1600 L2400 0 L0 0  Z" fill="#ffffff" fill-rule="evenodd" fill-opacity="1"/>
<defs>
  <clipPath id="clip001">
    <rect x="480" y="0" width="1681" height="1600"/>
  </clipPath>
</defs>
<path clip-path="url(#clip000)" d="M193.936 1486.45 L2352.76 1486.45 L2352.76 47.2441 L193.936 47.2441  Z" fill="#ffffff" fill-rule="evenodd" fill-opacity="1"/>
<defs>
  <clipPath id="clip002">
    <rect x="193" y="47" width="2160" height="1440"/>
  </clipPath>
</defs>
<polyline clip-path="url(#clip002)" style="stroke:#000000; stroke-linecap:round; stroke-linejoin:round; stroke-width:2; stroke-opacity:0.1; fill:none" points="255.035,1486.45 255.035,47.2441 "/>
<polyline clip-path="url(#clip002)" style="stroke:#000000; stroke-linecap:round; stroke-linejoin:round; stroke-width:2; stroke-opacity:0.1; fill:none" points="579.173,1486.45 579.173,47.2441 "/>
<polyline clip-path="url(#clip002)" style="stroke:#000000; stroke-linecap:round; stroke-linejoin:round; stroke-width:2; stroke-opacity:0.1; fill:none" points="903.312,1486.45 903.312,47.2441 "/>
<polyline clip-path="url(#clip002)" style="stroke:#000000; stroke-linecap:round; stroke-linejoin:round; stroke-width:2; stroke-opacity:0.1; fill:none" points="1227.45,1486.45 1227.45,47.2441 "/>
<polyline clip-path="url(#clip002)" style="stroke:#000000; stroke-linecap:round; stroke-linejoin:round; stroke-width:2; stroke-opacity:0.1; fill:none" points="1551.59,1486.45 1551.59,47.2441 "/>
<polyline clip-path="url(#clip002)" style="stroke:#000000; stroke-linecap:round; stroke-linejoin:round; stroke-width:2; stroke-opacity:0.1; fill:none" points="1875.73,1486.45 1875.73,47.2441 "/>
<polyline clip-path="url(#clip002)" style="stroke:#000000; stroke-linecap:round; stroke-linejoin:round; stroke-width:2; stroke-opacity:0.1; fill:none" points="2199.87,1486.45 2199.87,47.2441 "/>
<polyline clip-path="url(#clip002)" style="stroke:#000000; stroke-linecap:round; stroke-linejoin:round; stroke-width:2; stroke-opacity:0.1; fill:none" points="193.936,1272.87 2352.76,1272.87 "/>
<polyline clip-path="url(#clip002)" style="stroke:#000000; stroke-linecap:round; stroke-linejoin:round; stroke-width:2; stroke-opacity:0.1; fill:none" points="193.936,1008.29 2352.76,1008.29 "/>
<polyline clip-path="url(#clip002)" style="stroke:#000000; stroke-linecap:round; stroke-linejoin:round; stroke-width:2; stroke-opacity:0.1; fill:none" points="193.936,743.72 2352.76,743.72 "/>
<polyline clip-path="url(#clip002)" style="stroke:#000000; stroke-linecap:round; stroke-linejoin:round; stroke-width:2; stroke-opacity:0.1; fill:none" points="193.936,479.147 2352.76,479.147 "/>
<polyline clip-path="url(#clip002)" style="stroke:#000000; stroke-linecap:round; stroke-linejoin:round; stroke-width:2; stroke-opacity:0.1; fill:none" points="193.936,214.574 2352.76,214.574 "/>
<polyline clip-path="url(#clip000)" style="stroke:#000000; stroke-linecap:round; stroke-linejoin:round; stroke-width:4; stroke-opacity:1; fill:none" points="193.936,1486.45 2352.76,1486.45 "/>
<polyline clip-path="url(#clip000)" style="stroke:#000000; stroke-linecap:round; stroke-linejoin:round; stroke-width:4; stroke-opacity:1; fill:none" points="255.035,1486.45 255.035,1467.55 "/>
<polyline clip-path="url(#clip000)" style="stroke:#000000; stroke-linecap:round; stroke-linejoin:round; stroke-width:4; stroke-opacity:1; fill:none" points="579.173,1486.45 579.173,1467.55 "/>
<polyline clip-path="url(#clip000)" style="stroke:#000000; stroke-linecap:round; stroke-linejoin:round; stroke-width:4; stroke-opacity:1; fill:none" points="903.312,1486.45 903.312,1467.55 "/>
<polyline clip-path="url(#clip000)" style="stroke:#000000; stroke-linecap:round; stroke-linejoin:round; stroke-width:4; stroke-opacity:1; fill:none" points="1227.45,1486.45 1227.45,1467.55 "/>
<polyline clip-path="url(#clip000)" style="stroke:#000000; stroke-linecap:round; stroke-linejoin:round; stroke-width:4; stroke-opacity:1; fill:none" points="1551.59,1486.45 1551.59,1467.55 "/>
<polyline clip-path="url(#clip000)" style="stroke:#000000; stroke-linecap:round; stroke-linejoin:round; stroke-width:4; stroke-opacity:1; fill:none" points="1875.73,1486.45 1875.73,1467.55 "/>
<polyline clip-path="url(#clip000)" style="stroke:#000000; stroke-linecap:round; stroke-linejoin:round; stroke-width:4; stroke-opacity:1; fill:none" points="2199.87,1486.45 2199.87,1467.55 "/>
<path clip-path="url(#clip000)" d="M255.035 1517.37 Q251.424 1517.37 249.595 1520.93 Q247.789 1524.47 247.789 1531.6 Q247.789 1538.71 249.595 1542.27 Q251.424 1545.82 255.035 1545.82 Q258.669 1545.82 260.474 1542.27 Q262.303 1538.71 262.303 1531.6 Q262.303 1524.47 260.474 1520.93 Q258.669 1517.37 255.035 1517.37 M255.035 1513.66 Q260.845 1513.66 263.9 1518.27 Q266.979 1522.85 266.979 1531.6 Q266.979 1540.33 263.9 1544.94 Q260.845 1549.52 255.035 1549.52 Q249.225 1549.52 246.146 1544.94 Q243.09 1540.33 243.09 1531.6 Q243.09 1522.85 246.146 1518.27 Q249.225 1513.66 255.035 1513.66 Z" fill="#000000" fill-rule="nonzero" fill-opacity="1" /><path clip-path="url(#clip000)" d="M569.555 1544.91 L577.194 1544.91 L577.194 1518.55 L568.884 1520.21 L568.884 1515.95 L577.148 1514.29 L581.824 1514.29 L581.824 1544.91 L589.463 1544.91 L589.463 1548.85 L569.555 1548.85 L569.555 1544.91 Z" fill="#000000" fill-rule="nonzero" fill-opacity="1" /><path clip-path="url(#clip000)" d="M897.965 1544.91 L914.284 1544.91 L914.284 1548.85 L892.34 1548.85 L892.34 1544.91 Q895.002 1542.16 899.585 1537.53 Q904.191 1532.88 905.372 1531.53 Q907.617 1529.01 908.497 1527.27 Q909.4 1525.51 909.4 1523.82 Q909.4 1521.07 907.455 1519.33 Q905.534 1517.6 902.432 1517.6 Q900.233 1517.6 897.779 1518.36 Q895.349 1519.13 892.571 1520.68 L892.571 1515.95 Q895.395 1514.82 897.849 1514.24 Q900.303 1513.66 902.34 1513.66 Q907.71 1513.66 910.904 1516.35 Q914.099 1519.03 914.099 1523.52 Q914.099 1525.65 913.289 1527.57 Q912.502 1529.47 910.395 1532.07 Q909.816 1532.74 906.715 1535.95 Q903.613 1539.15 897.965 1544.91 Z" fill="#000000" fill-rule="nonzero" fill-opacity="1" /><path clip-path="url(#clip000)" d="M1231.7 1530.21 Q1235.05 1530.93 1236.93 1533.2 Q1238.83 1535.47 1238.83 1538.8 Q1238.83 1543.92 1235.31 1546.72 Q1231.79 1549.52 1225.31 1549.52 Q1223.13 1549.52 1220.82 1549.08 Q1218.53 1548.66 1216.07 1547.81 L1216.07 1543.29 Q1218.02 1544.43 1220.33 1545.01 Q1222.65 1545.58 1225.17 1545.58 Q1229.57 1545.58 1231.86 1543.85 Q1234.17 1542.11 1234.17 1538.8 Q1234.17 1535.75 1232.02 1534.03 Q1229.89 1532.3 1226.07 1532.3 L1222.05 1532.3 L1222.05 1528.45 L1226.26 1528.45 Q1229.71 1528.45 1231.54 1527.09 Q1233.36 1525.7 1233.36 1523.11 Q1233.36 1520.45 1231.47 1519.03 Q1229.59 1517.6 1226.07 1517.6 Q1224.15 1517.6 1221.95 1518.01 Q1219.75 1518.43 1217.11 1519.31 L1217.11 1515.14 Q1219.78 1514.4 1222.09 1514.03 Q1224.43 1513.66 1226.49 1513.66 Q1231.81 1513.66 1234.92 1516.09 Q1238.02 1518.5 1238.02 1522.62 Q1238.02 1525.49 1236.37 1527.48 Q1234.73 1529.45 1231.7 1530.21 Z" fill="#000000" fill-rule="nonzero" fill-opacity="1" /><path clip-path="url(#clip000)" d="M1554.6 1518.36 L1542.79 1536.81 L1554.6 1536.81 L1554.6 1518.36 M1553.37 1514.29 L1559.25 1514.29 L1559.25 1536.81 L1564.18 1536.81 L1564.18 1540.7 L1559.25 1540.7 L1559.25 1548.85 L1554.6 1548.85 L1554.6 1540.7 L1539 1540.7 L1539 1536.19 L1553.37 1514.29 Z" fill="#000000" fill-rule="nonzero" fill-opacity="1" /><path clip-path="url(#clip000)" d="M1866.01 1514.29 L1884.36 1514.29 L1884.36 1518.22 L1870.29 1518.22 L1870.29 1526.7 Q1871.31 1526.35 1872.32 1526.19 Q1873.34 1526 1874.36 1526 Q1880.15 1526 1883.53 1529.17 Q1886.91 1532.34 1886.91 1537.76 Q1886.91 1543.34 1883.44 1546.44 Q1879.96 1549.52 1873.64 1549.52 Q1871.47 1549.52 1869.2 1549.15 Q1866.95 1548.78 1864.55 1548.04 L1864.55 1543.34 Q1866.63 1544.47 1868.85 1545.03 Q1871.07 1545.58 1873.55 1545.58 Q1877.56 1545.58 1879.89 1543.48 Q1882.23 1541.37 1882.23 1537.76 Q1882.23 1534.15 1879.89 1532.04 Q1877.56 1529.94 1873.55 1529.94 Q1871.68 1529.94 1869.8 1530.35 Q1867.95 1530.77 1866.01 1531.65 L1866.01 1514.29 Z" fill="#000000" fill-rule="nonzero" fill-opacity="1" /><path clip-path="url(#clip000)" d="M2200.27 1529.7 Q2197.12 1529.7 2195.27 1531.86 Q2193.44 1534.01 2193.44 1537.76 Q2193.44 1541.49 2195.27 1543.66 Q2197.12 1545.82 2200.27 1545.82 Q2203.42 1545.82 2205.25 1543.66 Q2207.1 1541.49 2207.1 1537.76 Q2207.1 1534.01 2205.25 1531.86 Q2203.42 1529.7 2200.27 1529.7 M2209.55 1515.05 L2209.55 1519.31 Q2207.79 1518.48 2205.99 1518.04 Q2204.21 1517.6 2202.45 1517.6 Q2197.82 1517.6 2195.36 1520.72 Q2192.93 1523.85 2192.59 1530.17 Q2193.95 1528.15 2196.01 1527.09 Q2198.07 1526 2200.55 1526 Q2205.76 1526 2208.77 1529.17 Q2211.8 1532.32 2211.8 1537.76 Q2211.8 1543.08 2208.65 1546.3 Q2205.5 1549.52 2200.27 1549.52 Q2194.28 1549.52 2191.1 1544.94 Q2187.93 1540.33 2187.93 1531.6 Q2187.93 1523.41 2191.82 1518.55 Q2195.71 1513.66 2202.26 1513.66 Q2204.02 1513.66 2205.8 1514.01 Q2207.61 1514.36 2209.55 1515.05 Z" fill="#000000" fill-rule="nonzero" fill-opacity="1" /><polyline clip-path="url(#clip000)" style="stroke:#000000; stroke-linecap:round; stroke-linejoin:round; stroke-width:4; stroke-opacity:1; fill:none" points="193.936,1486.45 193.936,47.2441 "/>
<polyline clip-path="url(#clip000)" style="stroke:#000000; stroke-linecap:round; stroke-linejoin:round; stroke-width:4; stroke-opacity:1; fill:none" points="193.936,1272.87 212.834,1272.87 "/>
<polyline clip-path="url(#clip000)" style="stroke:#000000; stroke-linecap:round; stroke-linejoin:round; stroke-width:4; stroke-opacity:1; fill:none" points="193.936,1008.29 212.834,1008.29 "/>
<polyline clip-path="url(#clip000)" style="stroke:#000000; stroke-linecap:round; stroke-linejoin:round; stroke-width:4; stroke-opacity:1; fill:none" points="193.936,743.72 212.834,743.72 "/>
<polyline clip-path="url(#clip000)" style="stroke:#000000; stroke-linecap:round; stroke-linejoin:round; stroke-width:4; stroke-opacity:1; fill:none" points="193.936,479.147 212.834,479.147 "/>
<polyline clip-path="url(#clip000)" style="stroke:#000000; stroke-linecap:round; stroke-linejoin:round; stroke-width:4; stroke-opacity:1; fill:none" points="193.936,214.574 212.834,214.574 "/>
<path clip-path="url(#clip000)" d="M50.9921 1273.32 L80.6679 1273.32 L80.6679 1277.25 L50.9921 1277.25 L50.9921 1273.32 Z" fill="#000000" fill-rule="nonzero" fill-opacity="1" /><path clip-path="url(#clip000)" d="M91.5706 1286.21 L99.2095 1286.21 L99.2095 1259.85 L90.8993 1261.51 L90.8993 1257.25 L99.1632 1255.59 L103.839 1255.59 L103.839 1286.21 L111.478 1286.21 L111.478 1290.15 L91.5706 1290.15 L91.5706 1286.21 Z" fill="#000000" fill-rule="nonzero" fill-opacity="1" /><path clip-path="url(#clip000)" d="M120.922 1284.27 L125.807 1284.27 L125.807 1290.15 L120.922 1290.15 L120.922 1284.27 Z" fill="#000000" fill-rule="nonzero" fill-opacity="1" /><path clip-path="url(#clip000)" d="M145.992 1258.67 Q142.381 1258.67 140.552 1262.23 Q138.746 1265.77 138.746 1272.9 Q138.746 1280.01 140.552 1283.57 Q142.381 1287.11 145.992 1287.11 Q149.626 1287.11 151.431 1283.57 Q153.26 1280.01 153.26 1272.9 Q153.26 1265.77 151.431 1262.23 Q149.626 1258.67 145.992 1258.67 M145.992 1254.96 Q151.802 1254.96 154.857 1259.57 Q157.936 1264.15 157.936 1272.9 Q157.936 1281.63 154.857 1286.23 Q151.802 1290.82 145.992 1290.82 Q140.181 1290.82 137.103 1286.23 Q134.047 1281.63 134.047 1272.9 Q134.047 1264.15 137.103 1259.57 Q140.181 1254.96 145.992 1254.96 Z" fill="#000000" fill-rule="nonzero" fill-opacity="1" /><path clip-path="url(#clip000)" d="M51.9875 1008.74 L81.6633 1008.74 L81.6633 1012.68 L51.9875 1012.68 L51.9875 1008.74 Z" fill="#000000" fill-rule="nonzero" fill-opacity="1" /><path clip-path="url(#clip000)" d="M101.756 994.092 Q98.1447 994.092 96.316 997.657 Q94.5104 1001.2 94.5104 1008.33 Q94.5104 1015.43 96.316 1019 Q98.1447 1022.54 101.756 1022.54 Q105.39 1022.54 107.196 1019 Q109.024 1015.43 109.024 1008.33 Q109.024 1001.2 107.196 997.657 Q105.39 994.092 101.756 994.092 M101.756 990.389 Q107.566 990.389 110.621 994.995 Q113.7 999.578 113.7 1008.33 Q113.7 1017.06 110.621 1021.66 Q107.566 1026.24 101.756 1026.24 Q95.9456 1026.24 92.8669 1021.66 Q89.8114 1017.06 89.8114 1008.33 Q89.8114 999.578 92.8669 994.995 Q95.9456 990.389 101.756 990.389 Z" fill="#000000" fill-rule="nonzero" fill-opacity="1" /><path clip-path="url(#clip000)" d="M121.918 1019.69 L126.802 1019.69 L126.802 1025.57 L121.918 1025.57 L121.918 1019.69 Z" fill="#000000" fill-rule="nonzero" fill-opacity="1" /><path clip-path="url(#clip000)" d="M137.033 991.014 L155.39 991.014 L155.39 994.949 L141.316 994.949 L141.316 1003.42 Q142.334 1003.07 143.353 1002.91 Q144.371 1002.73 145.39 1002.73 Q151.177 1002.73 154.556 1005.9 Q157.936 1009.07 157.936 1014.49 Q157.936 1020.06 154.464 1023.17 Q150.992 1026.24 144.672 1026.24 Q142.496 1026.24 140.228 1025.87 Q137.982 1025.5 135.575 1024.76 L135.575 1020.06 Q137.658 1021.2 139.881 1021.75 Q142.103 1022.31 144.58 1022.31 Q148.584 1022.31 150.922 1020.2 Q153.26 1018.1 153.26 1014.49 Q153.26 1010.87 150.922 1008.77 Q148.584 1006.66 144.58 1006.66 Q142.705 1006.66 140.83 1007.08 Q138.978 1007.49 137.033 1008.37 L137.033 991.014 Z" fill="#000000" fill-rule="nonzero" fill-opacity="1" /><path clip-path="url(#clip000)" d="M100.76 729.519 Q97.1493 729.519 95.3206 733.084 Q93.515 736.626 93.515 743.755 Q93.515 750.862 95.3206 754.426 Q97.1493 757.968 100.76 757.968 Q104.395 757.968 106.2 754.426 Q108.029 750.862 108.029 743.755 Q108.029 736.626 106.2 733.084 Q104.395 729.519 100.76 729.519 M100.76 725.815 Q106.571 725.815 109.626 730.422 Q112.705 735.005 112.705 743.755 Q112.705 752.482 109.626 757.088 Q106.571 761.672 100.76 761.672 Q94.9502 761.672 91.8715 757.088 Q88.816 752.482 88.816 743.755 Q88.816 735.005 91.8715 730.422 Q94.9502 725.815 100.76 725.815 Z" fill="#000000" fill-rule="nonzero" fill-opacity="1" /><path clip-path="url(#clip000)" d="M120.922 755.121 L125.807 755.121 L125.807 761 L120.922 761 L120.922 755.121 Z" fill="#000000" fill-rule="nonzero" fill-opacity="1" /><path clip-path="url(#clip000)" d="M145.992 729.519 Q142.381 729.519 140.552 733.084 Q138.746 736.626 138.746 743.755 Q138.746 750.862 140.552 754.426 Q142.381 757.968 145.992 757.968 Q149.626 757.968 151.431 754.426 Q153.26 750.862 153.26 743.755 Q153.26 736.626 151.431 733.084 Q149.626 729.519 145.992 729.519 M145.992 725.815 Q151.802 725.815 154.857 730.422 Q157.936 735.005 157.936 743.755 Q157.936 752.482 154.857 757.088 Q151.802 761.672 145.992 761.672 Q140.181 761.672 137.103 757.088 Q134.047 752.482 134.047 743.755 Q134.047 735.005 137.103 730.422 Q140.181 725.815 145.992 725.815 Z" fill="#000000" fill-rule="nonzero" fill-opacity="1" /><path clip-path="url(#clip000)" d="M101.756 464.946 Q98.1447 464.946 96.316 468.511 Q94.5104 472.052 94.5104 479.182 Q94.5104 486.288 96.316 489.853 Q98.1447 493.395 101.756 493.395 Q105.39 493.395 107.196 489.853 Q109.024 486.288 109.024 479.182 Q109.024 472.052 107.196 468.511 Q105.39 464.946 101.756 464.946 M101.756 461.242 Q107.566 461.242 110.621 465.849 Q113.7 470.432 113.7 479.182 Q113.7 487.909 110.621 492.515 Q107.566 497.099 101.756 497.099 Q95.9456 497.099 92.8669 492.515 Q89.8114 487.909 89.8114 479.182 Q89.8114 470.432 92.8669 465.849 Q95.9456 461.242 101.756 461.242 Z" fill="#000000" fill-rule="nonzero" fill-opacity="1" /><path clip-path="url(#clip000)" d="M121.918 490.548 L126.802 490.548 L126.802 496.427 L121.918 496.427 L121.918 490.548 Z" fill="#000000" fill-rule="nonzero" fill-opacity="1" /><path clip-path="url(#clip000)" d="M137.033 461.867 L155.39 461.867 L155.39 465.802 L141.316 465.802 L141.316 474.275 Q142.334 473.927 143.353 473.765 Q144.371 473.58 145.39 473.58 Q151.177 473.58 154.556 476.751 Q157.936 479.923 157.936 485.339 Q157.936 490.918 154.464 494.02 Q150.992 497.099 144.672 497.099 Q142.496 497.099 140.228 496.728 Q137.982 496.358 135.575 495.617 L135.575 490.918 Q137.658 492.052 139.881 492.608 Q142.103 493.163 144.58 493.163 Q148.584 493.163 150.922 491.057 Q153.26 488.95 153.26 485.339 Q153.26 481.728 150.922 479.622 Q148.584 477.515 144.58 477.515 Q142.705 477.515 140.83 477.932 Q138.978 478.349 137.033 479.228 L137.033 461.867 Z" fill="#000000" fill-rule="nonzero" fill-opacity="1" /><path clip-path="url(#clip000)" d="M91.5706 227.919 L99.2095 227.919 L99.2095 201.553 L90.8993 203.22 L90.8993 198.961 L99.1632 197.294 L103.839 197.294 L103.839 227.919 L111.478 227.919 L111.478 231.854 L91.5706 231.854 L91.5706 227.919 Z" fill="#000000" fill-rule="nonzero" fill-opacity="1" /><path clip-path="url(#clip000)" d="M120.922 225.974 L125.807 225.974 L125.807 231.854 L120.922 231.854 L120.922 225.974 Z" fill="#000000" fill-rule="nonzero" fill-opacity="1" /><path clip-path="url(#clip000)" d="M145.992 200.373 Q142.381 200.373 140.552 203.938 Q138.746 207.479 138.746 214.609 Q138.746 221.715 140.552 225.28 Q142.381 228.822 145.992 228.822 Q149.626 228.822 151.431 225.28 Q153.26 221.715 153.26 214.609 Q153.26 207.479 151.431 203.938 Q149.626 200.373 145.992 200.373 M145.992 196.669 Q151.802 196.669 154.857 201.276 Q157.936 205.859 157.936 214.609 Q157.936 223.336 154.857 227.942 Q151.802 232.525 145.992 232.525 Q140.181 232.525 137.103 227.942 Q134.047 223.336 134.047 214.609 Q134.047 205.859 137.103 201.276 Q140.181 196.669 145.992 196.669 Z" fill="#000000" fill-rule="nonzero" fill-opacity="1" /><polyline clip-path="url(#clip002)" style="stroke:#009af9; stroke-linecap:round; stroke-linejoin:round; stroke-width:4; stroke-opacity:1; fill:none" points="255.035,743.72 258.276,738.429 261.517,733.138 264.759,727.848 268,722.56 271.242,717.274 274.483,711.991 277.724,706.71 280.966,701.434 284.207,696.162 287.449,690.894 290.69,685.632 293.931,680.375 297.173,675.125 300.414,669.882 303.655,664.646 306.897,659.418 310.138,654.198 313.38,648.988 316.621,643.786 319.862,638.595 323.104,633.415 326.345,628.245 329.587,623.087 332.828,617.941 336.069,612.808 339.311,607.687 342.552,602.58 345.793,597.488 349.035,592.41 352.276,587.347 355.518,582.3 358.759,577.269 362,572.254 365.242,567.257 368.483,562.277 371.725,557.316 374.966,552.373 378.207,547.449 381.449,542.545 384.69,537.661 387.931,532.798 391.173,527.955 394.414,523.135 397.656,518.336 400.897,513.56 404.138,508.807 407.38,504.077 410.621,499.372 413.863,494.69 417.104,490.034 420.345,485.403 423.587,480.798 426.828,476.219 430.069,471.667 433.311,467.142 436.552,462.645 439.794,458.176 443.035,453.736 446.276,449.324 449.518,444.942 452.759,440.59 456.001,436.268 459.242,431.977 462.483,427.717 465.725,423.488 468.966,419.292 472.208,415.128 475.449,410.997 478.69,406.899 481.932,402.835 485.173,398.805 488.414,394.809 491.656,390.849 494.897,386.923 498.139,383.034 501.38,379.18 504.621,375.363 507.863,371.583 511.104,367.84 514.346,364.134 517.587,360.467 520.828,356.837 524.07,353.247 527.311,349.695 530.552,346.183 533.794,342.711 537.035,339.279 540.277,335.887 543.518,332.536 546.759,329.226 550.001,325.957 553.242,322.731 556.484,319.546 559.725,316.404 562.966,313.305 566.208,310.248 569.449,307.235 572.69,304.266 575.932,301.34 579.173,298.459 582.415,295.622 585.656,292.831 588.897,290.084 592.139,287.382 595.38,284.727 598.622,282.117 601.863,279.553 605.104,277.036 608.346,274.565 611.587,272.141 614.828,269.765 618.07,267.436 621.311,265.154 624.553,262.92 627.794,260.735 631.035,258.597 634.277,256.509 637.518,254.469 640.76,252.477 644.001,250.535 647.242,248.643 650.484,246.799 653.725,245.006 656.966,243.262 660.208,241.569 663.449,239.925 666.691,238.332 669.932,236.79 673.173,235.298 676.415,233.857 679.656,232.467 682.898,231.128 686.139,229.841 689.38,228.605 692.622,227.42 695.863,226.287 699.104,225.206 702.346,224.176 705.587,223.199 708.829,222.273 712.07,221.4 715.311,220.579 718.553,219.81 721.794,219.094 725.036,218.43 728.277,217.819 731.518,217.26 734.76,216.754 738.001,216.3 741.242,215.9 744.484,215.552 747.725,215.257 750.967,215.014 754.208,214.825 757.449,214.688 760.691,214.605 763.932,214.574 767.174,214.596 770.415,214.672 773.656,214.8 776.898,214.981 780.139,215.214 783.381,215.501 786.622,215.841 789.863,216.233 793.105,216.678 796.346,217.176 799.587,217.726 802.829,218.329 806.07,218.985 809.312,219.693 812.553,220.453 815.794,221.266 819.036,222.131 822.277,223.048 825.519,224.017 828.76,225.038 832.001,226.111 835.243,227.236 838.484,228.413 841.725,229.64 844.967,230.92 848.208,232.251 851.45,233.632 854.691,235.065 857.932,236.549 861.174,238.083 864.415,239.668 867.657,241.304 870.898,242.989 874.139,244.725 877.381,246.51 880.622,248.346 883.863,250.231 887.105,252.165 890.346,254.148 893.588,256.18 896.829,258.261 900.07,260.391 903.312,262.569 906.553,264.795 909.795,267.069 913.036,269.391 916.277,271.76 919.519,274.176 922.76,276.639 926.001,279.149 929.243,281.705 932.484,284.308 935.726,286.956 938.967,289.651 942.208,292.39 945.45,295.175 948.691,298.004 951.933,300.878 955.174,303.797 958.415,306.759 961.657,309.765 964.898,312.815 968.139,315.907 971.381,319.043 974.622,322.221 977.864,325.441 981.105,328.703 984.346,332.006 987.588,335.35 990.829,338.736 994.071,342.161 997.312,345.627 1000.55,349.133 1003.79,352.678 1007.04,356.263 1010.28,359.886 1013.52,363.547 1016.76,367.247 1020,370.984 1023.24,374.758 1026.48,378.57 1029.73,382.418 1032.97,386.302 1036.21,390.221 1039.45,394.176 1042.69,398.166 1045.93,402.191 1049.17,406.25 1052.42,410.342 1055.66,414.468 1058.9,418.627 1062.14,422.818 1065.38,427.041 1068.62,431.296 1071.86,435.582 1075.11,439.899 1078.35,444.247 1081.59,448.624 1084.83,453.031 1088.07,457.467 1091.31,461.932 1094.55,466.424 1097.79,470.945 1101.04,475.493 1104.28,480.067 1107.52,484.668 1110.76,489.295 1114,493.947 1117.24,498.624 1120.48,503.326 1123.73,508.052 1126.97,512.801 1130.21,517.574 1133.45,522.369 1136.69,527.186 1139.93,532.025 1143.17,536.885 1146.42,541.766 1149.66,546.667 1152.9,551.587 1156.14,556.527 1159.38,561.486 1162.62,566.463 1165.86,571.457 1169.11,576.469 1172.35,581.497 1175.59,586.542 1178.83,591.602 1182.07,596.678 1185.31,601.768 1188.55,606.873 1191.8,611.991 1195.04,617.123 1198.28,622.267 1201.52,627.423 1204.76,632.591 1208,637.769 1211.24,642.959 1214.48,648.159 1217.73,653.368 1220.97,658.586 1224.21,663.813 1227.45,669.047 1230.69,674.289 1233.93,679.539 1237.17,684.794 1240.42,690.055 1243.66,695.322 1246.9,700.594 1250.14,705.87 1253.38,711.149 1256.62,716.432 1259.86,721.718 1263.11,727.006 1266.35,732.296 1269.59,737.586 1272.83,742.878 1276.07,748.169 1279.31,753.46 1282.55,758.75 1285.8,764.039 1289.04,769.325 1292.28,774.609 1295.52,779.89 1298.76,785.167 1302,790.44 1305.24,795.708 1308.48,800.971 1311.73,806.229 1314.97,811.48 1318.21,816.725 1321.45,821.962 1324.69,827.191 1327.93,832.412 1331.17,837.624 1334.42,842.827 1337.66,848.019 1340.9,853.202 1344.14,858.373 1347.38,863.533 1350.62,868.681 1353.86,873.817 1357.11,878.939 1360.35,884.048 1363.59,889.143 1366.83,894.223 1370.07,899.289 1373.31,904.338 1376.55,909.372 1379.8,914.389 1383.04,919.389 1386.28,924.372 1389.52,929.336 1392.76,934.282 1396,939.209 1399.24,944.116 1402.49,949.003 1405.73,953.87 1408.97,958.716 1412.21,963.54 1415.45,968.342 1418.69,973.122 1421.93,977.878 1425.17,982.612 1428.42,987.321 1431.66,992.006 1434.9,996.667 1438.14,1001.3 1441.38,1005.91 1444.62,1010.49 1447.86,1015.05 1451.11,1019.58 1454.35,1024.08 1457.59,1028.55 1460.83,1033 1464.07,1037.42 1467.31,1041.8 1470.55,1046.16 1473.8,1050.49 1477.04,1054.78 1480.28,1059.05 1483.52,1063.28 1486.76,1067.48 1490,1071.65 1493.24,1075.79 1496.49,1079.89 1499.73,1083.96 1502.97,1088 1506.21,1092 1509.45,1095.96 1512.69,1099.89 1515.93,1103.79 1519.18,1107.65 1522.42,1111.47 1525.66,1115.26 1528.9,1119.01 1532.14,1122.72 1535.38,1126.39 1538.62,1130.03 1541.86,1133.62 1545.11,1137.18 1548.35,1140.7 1551.59,1144.18 1554.83,1147.62 1558.07,1151.02 1561.31,1154.37 1564.55,1157.69 1567.8,1160.97 1571.04,1164.2 1574.28,1167.39 1577.52,1170.54 1580.76,1173.65 1584,1176.71 1587.24,1179.73 1590.49,1182.71 1593.73,1185.64 1596.97,1188.53 1600.21,1191.37 1603.45,1194.17 1606.69,1196.92 1609.93,1199.63 1613.18,1202.29 1616.42,1204.91 1619.66,1207.48 1622.9,1210.01 1626.14,1212.49 1629.38,1214.92 1632.62,1217.3 1635.86,1219.64 1639.11,1221.93 1642.35,1224.17 1645.59,1226.36 1648.83,1228.51 1652.07,1230.6 1655.31,1232.65 1658.55,1234.65 1661.8,1236.6 1665.04,1238.5 1668.28,1240.35 1671.52,1242.15 1674.76,1243.9 1678,1245.61 1681.24,1247.26 1684.49,1248.86 1687.73,1250.41 1690.97,1251.91 1694.21,1253.36 1697.45,1254.76 1700.69,1256.1 1703.93,1257.4 1707.18,1258.64 1710.42,1259.84 1713.66,1260.98 1716.9,1262.07 1720.14,1263.1 1723.38,1264.09 1726.62,1265.02 1729.87,1265.91 1733.11,1266.73 1736.35,1267.51 1739.59,1268.24 1742.83,1268.91 1746.07,1269.53 1749.31,1270.1 1752.55,1270.61 1755.8,1271.07 1759.04,1271.48 1762.28,1271.84 1765.52,1272.14 1768.76,1272.39 1772,1272.59 1775.24,1272.73 1778.49,1272.83 1781.73,1272.87 1784.97,1272.85 1788.21,1272.78 1791.45,1272.67 1794.69,1272.49 1797.93,1272.27 1801.18,1271.99 1804.42,1271.66 1807.66,1271.27 1810.9,1270.84 1814.14,1270.35 1817.38,1269.81 1820.62,1269.21 1823.87,1268.56 1827.11,1267.86 1830.35,1267.11 1833.59,1266.31 1836.83,1265.45 1840.07,1264.54 1843.31,1263.58 1846.55,1262.57 1849.8,1261.5 1853.04,1260.39 1856.28,1259.22 1859.52,1258 1862.76,1256.73 1866,1255.41 1869.24,1254.03 1872.49,1252.61 1875.73,1251.13 1878.97,1249.61 1882.21,1248.03 1885.45,1246.4 1888.69,1244.72 1891.93,1243 1895.18,1241.22 1898.42,1239.39 1901.66,1237.51 1904.9,1235.59 1908.14,1233.61 1911.38,1231.59 1914.62,1229.51 1917.87,1227.39 1921.11,1225.22 1924.35,1223 1927.59,1220.74 1930.83,1218.42 1934.07,1216.06 1937.31,1213.65 1940.56,1211.2 1943.8,1208.69 1947.04,1206.15 1950.28,1203.55 1953.52,1200.91 1956.76,1198.22 1960,1195.49 1963.24,1192.71 1966.49,1189.89 1969.73,1187.02 1972.97,1184.11 1976.21,1181.16 1979.45,1178.16 1982.69,1175.11 1985.93,1172.03 1989.18,1168.9 1992.42,1165.73 1995.66,1162.52 1998.9,1159.26 2002.14,1155.96 2005.38,1152.63 2008.62,1149.25 2011.87,1145.83 2015.11,1142.37 2018.35,1138.87 2021.59,1135.33 2024.83,1131.75 2028.07,1128.13 2031.31,1124.48 2034.56,1120.79 2037.8,1117.05 2041.04,1113.29 2044.28,1109.48 2047.52,1105.64 2050.76,1101.76 2054,1097.85 2057.24,1093.9 2060.49,1089.91 2063.73,1085.89 2066.97,1081.84 2070.21,1077.75 2073.45,1073.63 2076.69,1069.48 2079.93,1065.29 2083.18,1061.07 2086.42,1056.82 2089.66,1052.54 2092.9,1048.23 2096.14,1043.89 2099.38,1039.52 2102.62,1035.11 2105.87,1030.68 2109.11,1026.22 2112.35,1021.73 2115.59,1017.22 2118.83,1012.67 2122.07,1008.1 2125.31,1003.51 2128.56,998.885 2131.8,994.236 2135.04,989.563 2138.28,984.865 2141.52,980.143 2144.76,975.397 2148,970.629 2151.25,965.837 2154.49,961.023 2157.73,956.188 2160.97,951.331 2164.21,946.454 2167.45,941.556 2170.69,936.638 2173.93,931.702 2177.18,926.746 2180.42,921.772 2183.66,916.78 2186.9,911.771 2190.14,906.745 2193.38,901.703 2196.62,896.645 2199.87,891.572 2203.11,886.484 2206.35,881.382 2209.59,876.266 2212.83,871.136 2216.07,865.994 2219.31,860.84 2222.56,855.674 2225.8,850.497 2229.04,845.309 2232.28,840.111 2235.52,834.903 2238.76,829.687 2242,824.461 2245.25,819.228 2248.49,813.987 2251.73,808.739 2254.97,803.484 2258.21,798.224 2261.45,792.958 2264.69,787.687 2267.94,782.412 2271.18,777.132 2274.42,771.85 2277.66,766.565 2280.9,761.277 2284.14,755.988 2287.38,750.697 2290.62,745.406 "/>
<circle clip-path="url(#clip002)" cx="650.484" cy="316.259" r="14.4" fill="#e26f46" fill-rule="evenodd" fill-opacity="1" stroke="#000000" stroke-opacity="1" stroke-width="3.2"/>
<circle clip-path="url(#clip002)" cx="2044.28" cy="1218.94" r="14.4" fill="#e26f46" fill-rule="evenodd" fill-opacity="1" stroke="#000000" stroke-opacity="1" stroke-width="3.2"/>
<circle clip-path="url(#clip002)" cx="1846.55" cy="1298.46" r="14.4" fill="#e26f46" fill-rule="evenodd" fill-opacity="1" stroke="#000000" stroke-opacity="1" stroke-width="3.2"/>
<circle clip-path="url(#clip002)" cx="1661.8" cy="1338.24" r="14.4" fill="#e26f46" fill-rule="evenodd" fill-opacity="1" stroke="#000000" stroke-opacity="1" stroke-width="3.2"/>
<circle clip-path="url(#clip002)" cx="763.932" cy="275.089" r="14.4" fill="#e26f46" fill-rule="evenodd" fill-opacity="1" stroke="#000000" stroke-opacity="1" stroke-width="3.2"/>
<circle clip-path="url(#clip002)" cx="1827.11" cy="1282.25" r="14.4" fill="#e26f46" fill-rule="evenodd" fill-opacity="1" stroke="#000000" stroke-opacity="1" stroke-width="3.2"/>
<circle clip-path="url(#clip002)" cx="1402.49" cy="956.457" r="14.4" fill="#e26f46" fill-rule="evenodd" fill-opacity="1" stroke="#000000" stroke-opacity="1" stroke-width="3.2"/>
<circle clip-path="url(#clip002)" cx="1263.11" cy="768.587" r="14.4" fill="#e26f46" fill-rule="evenodd" fill-opacity="1" stroke="#000000" stroke-opacity="1" stroke-width="3.2"/>
<circle clip-path="url(#clip002)" cx="2008.62" cy="1271.68" r="14.4" fill="#e26f46" fill-rule="evenodd" fill-opacity="1" stroke="#000000" stroke-opacity="1" stroke-width="3.2"/>
<circle clip-path="url(#clip002)" cx="1541.86" cy="1247.02" r="14.4" fill="#e26f46" fill-rule="evenodd" fill-opacity="1" stroke="#000000" stroke-opacity="1" stroke-width="3.2"/>
<circle clip-path="url(#clip002)" cx="491.656" cy="495.138" r="14.4" fill="#e26f46" fill-rule="evenodd" fill-opacity="1" stroke="#000000" stroke-opacity="1" stroke-width="3.2"/>
<circle clip-path="url(#clip002)" cx="1405.73" cy="850.06" r="14.4" fill="#e26f46" fill-rule="evenodd" fill-opacity="1" stroke="#000000" stroke-opacity="1" stroke-width="3.2"/>
<circle clip-path="url(#clip002)" cx="689.38" cy="137.508" r="14.4" fill="#e26f46" fill-rule="evenodd" fill-opacity="1" stroke="#000000" stroke-opacity="1" stroke-width="3.2"/>
<circle clip-path="url(#clip002)" cx="1703.93" cy="1130.05" r="14.4" fill="#e26f46" fill-rule="evenodd" fill-opacity="1" stroke="#000000" stroke-opacity="1" stroke-width="3.2"/>
<circle clip-path="url(#clip002)" cx="738.001" cy="242.454" r="14.4" fill="#e26f46" fill-rule="evenodd" fill-opacity="1" stroke="#000000" stroke-opacity="1" stroke-width="3.2"/>
<circle clip-path="url(#clip002)" cx="1652.07" cy="1352.54" r="14.4" fill="#e26f46" fill-rule="evenodd" fill-opacity="1" stroke="#000000" stroke-opacity="1" stroke-width="3.2"/>
<circle clip-path="url(#clip002)" cx="942.208" cy="361.936" r="14.4" fill="#e26f46" fill-rule="evenodd" fill-opacity="1" stroke="#000000" stroke-opacity="1" stroke-width="3.2"/>
<circle clip-path="url(#clip002)" cx="1075.11" cy="335.4" r="14.4" fill="#e26f46" fill-rule="evenodd" fill-opacity="1" stroke="#000000" stroke-opacity="1" stroke-width="3.2"/>
<circle clip-path="url(#clip002)" cx="1178.83" cy="584.275" r="14.4" fill="#e26f46" fill-rule="evenodd" fill-opacity="1" stroke="#000000" stroke-opacity="1" stroke-width="3.2"/>
<circle clip-path="url(#clip002)" cx="1580.76" cy="1106.95" r="14.4" fill="#e26f46" fill-rule="evenodd" fill-opacity="1" stroke="#000000" stroke-opacity="1" stroke-width="3.2"/>
<path clip-path="url(#clip002)" d="M255.035 1079.11 L258.276 1075.84 L261.517 1072.52 L264.759 1069.16 L268 1065.74 L271.242 1062.27 L274.483 1058.75 L277.724 1055.18 L280.966 1051.55 L284.207 1047.88 L287.449 1044.15 L290.69 1040.36 L293.931 1036.53 L297.173 1032.64 L300.414 1028.69 L303.655 1024.69 L306.897 1020.63 L310.138 1016.52 L313.38 1012.36 L316.621 1008.13 L319.862 1003.86 L323.104 999.524 L326.345 995.135 L329.587 990.69 L332.828 986.189 L336.069 981.632 L339.311 977.02 L342.552 972.352 L345.793 967.628 L349.035 962.85 L352.276 958.017 L355.518 953.129 L358.759 948.188 L362 943.194 L365.242 938.146 L368.483 933.047 L371.725 927.897 L374.966 922.696 L378.207 917.446 L381.449 912.148 L384.69 906.803 L387.931 901.412 L391.173 895.977 L394.414 890.499 L397.656 884.98 L400.897 879.422 L404.138 873.827 L407.38 868.196 L410.621 862.533 L413.863 856.839 L417.104 851.118 L420.345 845.372 L423.587 839.604 L426.828 833.817 L430.069 828.014 L433.311 822.2 L436.552 816.378 L439.794 810.552 L443.035 804.725 L446.276 798.904 L449.518 793.091 L452.759 787.293 L456.001 781.513 L459.242 775.758 L462.483 770.032 L465.725 764.341 L468.966 758.691 L472.208 753.088 L475.449 747.537 L478.69 742.044 L481.932 736.616 L485.173 731.258 L488.414 725.976 L491.656 720.777 L494.897 715.662 L498.139 710.629 L501.38 705.671 L504.621 700.78 L507.863 695.951 L511.104 691.175 L514.346 686.448 L517.587 681.761 L520.828 677.108 L524.07 672.484 L527.311 667.881 L530.552 663.295 L533.794 658.718 L537.035 654.147 L540.277 649.575 L543.518 644.999 L546.759 640.414 L550.001 635.817 L553.242 631.203 L556.484 626.57 L559.725 621.915 L562.966 617.236 L566.208 612.531 L569.449 607.799 L572.69 603.04 L575.932 598.253 L579.173 593.438 L582.415 588.596 L585.656 583.729 L588.897 578.837 L592.139 573.924 L595.38 568.991 L598.622 564.044 L601.863 559.084 L605.104 554.117 L608.346 549.148 L611.587 544.183 L614.828 539.228 L618.07 534.289 L621.311 529.374 L624.553 524.491 L627.794 519.649 L631.035 514.858 L634.277 510.127 L637.518 505.466 L640.76 500.888 L644.001 496.403 L647.242 492.025 L650.484 487.765 L653.725 483.636 L656.966 479.643 L660.208 475.792 L663.449 472.089 L666.691 468.538 L669.932 465.147 L673.173 461.922 L676.415 458.872 L679.656 456.004 L682.898 453.327 L686.139 450.851 L689.38 448.585 L692.622 446.536 L695.863 444.703 L699.104 443.078 L702.346 441.659 L705.587 440.441 L708.829 439.42 L712.07 438.594 L715.311 437.961 L718.553 437.518 L721.794 437.266 L725.036 437.204 L728.277 437.332 L731.518 437.652 L734.76 438.164 L738.001 438.871 L741.242 439.772 L744.484 440.862 L747.725 442.134 L750.967 443.578 L754.208 445.19 L757.449 446.961 L760.691 448.886 L763.932 450.959 L767.174 453.172 L770.415 455.512 L773.656 457.965 L776.898 460.518 L780.139 463.157 L783.381 465.869 L786.622 468.642 L789.863 471.465 L793.105 474.327 L796.346 477.218 L799.587 480.127 L802.829 483.047 L806.07 485.969 L809.312 488.884 L812.553 491.786 L815.794 494.668 L819.036 497.525 L822.277 500.349 L825.519 503.137 L828.76 505.885 L832.001 508.587 L835.243 511.24 L838.484 513.842 L841.725 516.389 L844.967 518.879 L848.208 521.311 L851.45 523.683 L854.691 525.994 L857.932 528.243 L861.174 530.43 L864.415 532.556 L867.657 534.62 L870.898 536.624 L874.139 538.569 L877.381 540.457 L880.622 542.289 L883.863 544.068 L887.105 545.796 L890.346 547.476 L893.588 549.113 L896.829 550.709 L900.07 552.269 L903.312 553.797 L906.553 555.297 L909.795 556.776 L913.036 558.237 L916.277 559.687 L919.519 561.132 L922.76 562.577 L926.001 564.029 L929.243 565.495 L932.484 566.98 L935.726 568.493 L938.967 570.039 L942.208 571.626 L945.45 573.259 L948.691 574.935 L951.933 576.651 L955.174 578.401 L958.415 580.183 L961.657 581.992 L964.898 583.825 L968.139 585.678 L971.381 587.548 L974.622 589.431 L977.864 591.326 L981.105 593.229 L984.346 595.139 L987.588 597.053 L990.829 598.971 L994.071 600.892 L997.312 602.814 L1000.55 604.739 L1003.79 606.665 L1007.04 608.594 L1010.28 610.527 L1013.52 612.465 L1016.76 614.411 L1020 616.367 L1023.24 618.335 L1026.48 620.319 L1029.73 622.323 L1032.97 624.35 L1036.21 626.407 L1039.45 628.497 L1042.69 630.626 L1045.93 632.8 L1049.17 635.026 L1052.42 637.31 L1055.66 639.658 L1058.9 642.08 L1062.14 644.582 L1065.38 647.172 L1068.62 649.86 L1071.86 652.652 L1075.11 655.558 L1078.35 658.585 L1081.59 661.726 L1084.83 664.975 L1088.07 668.324 L1091.31 671.765 L1094.55 675.292 L1097.79 678.897 L1101.04 682.575 L1104.28 686.32 L1107.52 690.126 L1110.76 693.987 L1114 697.899 L1117.24 701.859 L1120.48 705.861 L1123.73 709.902 L1126.97 713.981 L1130.21 718.094 L1133.45 722.239 L1136.69 726.416 L1139.93 730.624 L1143.17 734.862 L1146.42 739.13 L1149.66 743.429 L1152.9 747.761 L1156.14 752.126 L1159.38 756.528 L1162.62 760.968 L1165.86 765.449 L1169.11 769.974 L1172.35 774.547 L1175.59 779.171 L1178.83 783.851 L1182.07 788.588 L1185.31 793.379 L1188.55 798.216 L1191.8 803.095 L1195.04 808.009 L1198.28 812.953 L1201.52 817.922 L1204.76 822.911 L1208 827.916 L1211.24 832.933 L1214.48 837.958 L1217.73 842.988 L1220.97 848.021 L1224.21 853.054 L1227.45 858.085 L1230.69 863.113 L1233.93 868.136 L1237.17 873.155 L1240.42 878.169 L1243.66 883.179 L1246.9 888.183 L1250.14 893.185 L1253.38 898.184 L1256.62 903.182 L1259.86 908.181 L1263.11 913.182 L1266.35 918.186 L1269.59 923.188 L1272.83 928.183 L1276.07 933.165 L1279.31 938.13 L1282.55 943.072 L1285.8 947.986 L1289.04 952.869 L1292.28 957.716 L1295.52 962.524 L1298.76 967.289 L1302 972.009 L1305.24 976.681 L1308.48 981.304 L1311.73 985.875 L1314.97 990.395 L1318.21 994.862 L1321.45 999.277 L1324.69 1003.64 L1327.93 1007.95 L1331.17 1012.21 L1334.42 1016.43 L1337.66 1020.6 L1340.9 1024.73 L1344.14 1028.82 L1347.38 1032.87 L1350.62 1036.9 L1353.86 1040.9 L1357.11 1044.88 L1360.35 1048.86 L1363.59 1052.82 L1366.83 1056.79 L1370.07 1060.77 L1373.31 1064.77 L1376.55 1068.8 L1379.8 1072.86 L1383.04 1076.97 L1386.28 1081.14 L1389.52 1085.37 L1392.76 1089.68 L1396 1094.08 L1399.24 1098.57 L1402.49 1103.17 L1405.73 1107.9 L1408.97 1112.73 L1412.21 1117.68 L1415.45 1122.73 L1418.69 1127.86 L1421.93 1133.06 L1425.17 1138.32 L1428.42 1143.63 L1431.66 1148.98 L1434.9 1154.35 L1438.14 1159.74 L1441.38 1165.13 L1444.62 1170.52 L1447.86 1175.89 L1451.11 1181.23 L1454.35 1186.55 L1457.59 1191.82 L1460.83 1197.04 L1464.07 1202.21 L1467.31 1207.32 L1470.55 1212.36 L1473.8 1217.32 L1477.04 1222.21 L1480.28 1227.02 L1483.52 1231.74 L1486.76 1236.38 L1490 1240.93 L1493.24 1245.38 L1496.49 1249.74 L1499.73 1254 L1502.97 1258.17 L1506.21 1262.25 L1509.45 1266.23 L1512.69 1270.12 L1515.93 1273.92 L1519.18 1277.62 L1522.42 1281.24 L1525.66 1284.78 L1528.9 1288.23 L1532.14 1291.61 L1535.38 1294.92 L1538.62 1298.15 L1541.86 1301.33 L1545.11 1304.44 L1548.35 1307.49 L1551.59 1310.5 L1554.83 1313.44 L1558.07 1316.34 L1561.31 1319.2 L1564.55 1322.01 L1567.8 1324.78 L1571.04 1327.51 L1574.28 1330.21 L1577.52 1332.89 L1580.76 1335.55 L1584 1338.18 L1587.24 1340.8 L1590.49 1343.38 L1593.73 1345.93 L1596.97 1348.44 L1600.21 1350.91 L1603.45 1353.33 L1606.69 1355.69 L1609.93 1358 L1613.18 1360.26 L1616.42 1362.45 L1619.66 1364.59 L1622.9 1366.67 L1626.14 1368.68 L1629.38 1370.65 L1632.62 1372.55 L1635.86 1374.41 L1639.11 1376.22 L1642.35 1377.98 L1645.59 1379.7 L1648.83 1381.39 L1652.07 1383.05 L1655.31 1384.68 L1658.55 1386.29 L1661.8 1387.89 L1665.04 1389.47 L1668.28 1391.04 L1671.52 1392.59 L1674.76 1394.13 L1678 1395.67 L1681.24 1397.19 L1684.49 1398.71 L1687.73 1400.22 L1690.97 1401.74 L1694.21 1403.25 L1697.45 1404.77 L1700.69 1406.3 L1703.93 1407.85 L1707.18 1409.41 L1710.42 1410.97 L1713.66 1412.54 L1716.9 1414.1 L1720.14 1415.65 L1723.38 1417.16 L1726.62 1418.65 L1729.87 1420.1 L1733.11 1421.5 L1736.35 1422.86 L1739.59 1424.16 L1742.83 1425.4 L1746.07 1426.58 L1749.31 1427.7 L1752.55 1428.75 L1755.8 1429.73 L1759.04 1430.64 L1762.28 1431.48 L1765.52 1432.25 L1768.76 1432.96 L1772 1433.59 L1775.24 1434.16 L1778.49 1434.66 L1781.73 1435.1 L1784.97 1435.49 L1788.21 1435.82 L1791.45 1436.11 L1794.69 1436.35 L1797.93 1436.55 L1801.18 1436.73 L1804.42 1436.87 L1807.66 1437 L1810.9 1437.12 L1814.14 1437.24 L1817.38 1437.36 L1820.62 1437.5 L1823.87 1437.65 L1827.11 1437.84 L1830.35 1438.07 L1833.59 1438.33 L1836.83 1438.63 L1840.07 1438.97 L1843.31 1439.34 L1846.55 1439.76 L1849.8 1440.2 L1853.04 1440.68 L1856.28 1441.17 L1859.52 1441.67 L1862.76 1442.18 L1866 1442.68 L1869.24 1443.16 L1872.49 1443.62 L1875.73 1444.06 L1878.97 1444.45 L1882.21 1444.8 L1885.45 1445.11 L1888.69 1445.35 L1891.93 1445.54 L1895.18 1445.66 L1898.42 1445.72 L1901.66 1445.69 L1904.9 1445.6 L1908.14 1445.42 L1911.38 1445.15 L1914.62 1444.81 L1917.87 1444.37 L1921.11 1443.85 L1924.35 1443.25 L1927.59 1442.55 L1930.83 1441.76 L1934.07 1440.89 L1937.31 1439.93 L1940.56 1438.89 L1943.8 1437.77 L1947.04 1436.57 L1950.28 1435.29 L1953.52 1433.94 L1956.76 1432.52 L1960 1431.04 L1963.24 1429.51 L1966.49 1427.93 L1969.73 1426.3 L1972.97 1424.64 L1976.21 1422.94 L1979.45 1421.23 L1982.69 1419.51 L1985.93 1417.79 L1989.18 1416.08 L1992.42 1414.38 L1995.66 1412.72 L1998.9 1411.1 L2002.14 1409.53 L2005.38 1408.02 L2008.62 1406.59 L2011.87 1405.24 L2015.11 1403.99 L2018.35 1402.83 L2021.59 1401.76 L2024.83 1400.8 L2028.07 1399.94 L2031.31 1399.19 L2034.56 1398.55 L2037.8 1398.02 L2041.04 1397.61 L2044.28 1397.31 L2047.52 1397.13 L2050.76 1397.06 L2054 1397.09 L2057.24 1397.22 L2060.49 1397.44 L2063.73 1397.73 L2066.97 1398.1 L2070.21 1398.53 L2073.45 1399.01 L2076.69 1399.55 L2079.93 1400.12 L2083.18 1400.74 L2086.42 1401.38 L2089.66 1402.05 L2092.9 1402.74 L2096.14 1403.45 L2099.38 1404.16 L2102.62 1404.88 L2105.87 1405.61 L2109.11 1406.33 L2112.35 1407.05 L2115.59 1407.76 L2118.83 1408.46 L2122.07 1409.14 L2125.31 1409.82 L2128.56 1410.47 L2131.8 1411.11 L2135.04 1411.72 L2138.28 1412.31 L2141.52 1412.88 L2144.76 1413.43 L2148 1413.94 L2151.25 1414.44 L2154.49 1414.9 L2157.73 1415.33 L2160.97 1415.74 L2164.21 1416.12 L2167.45 1416.47 L2170.69 1416.78 L2173.93 1417.07 L2177.18 1417.33 L2180.42 1417.56 L2183.66 1417.75 L2186.9 1417.92 L2190.14 1418.06 L2193.38 1418.16 L2196.62 1418.24 L2199.87 1418.29 L2203.11 1418.31 L2206.35 1418.3 L2209.59 1418.26 L2212.83 1418.19 L2216.07 1418.09 L2219.31 1417.97 L2222.56 1417.82 L2225.8 1417.64 L2229.04 1417.44 L2232.28 1417.21 L2235.52 1416.96 L2238.76 1416.68 L2242 1416.38 L2245.25 1416.05 L2248.49 1415.71 L2251.73 1415.33 L2254.97 1414.94 L2258.21 1414.53 L2261.45 1414.09 L2264.69 1413.63 L2267.94 1413.16 L2271.18 1412.66 L2274.42 1412.15 L2277.66 1411.61 L2280.9 1411.06 L2284.14 1410.49 L2287.38 1409.91 L2290.62 1409.31 L2290.62 523.652 L2287.38 528.028 L2284.14 532.459 L2280.9 536.944 L2277.66 541.484 L2274.42 546.079 L2271.18 550.73 L2267.94 555.436 L2264.69 560.198 L2261.45 565.016 L2258.21 569.89 L2254.97 574.821 L2251.73 579.808 L2248.49 584.852 L2245.25 589.953 L2242 595.111 L2238.76 600.326 L2235.52 605.598 L2232.28 610.926 L2229.04 616.312 L2225.8 621.754 L2222.56 627.253 L2219.31 632.809 L2216.07 638.42 L2212.83 644.087 L2209.59 649.81 L2206.35 655.588 L2203.11 661.421 L2199.87 667.308 L2196.62 673.248 L2193.38 679.241 L2190.14 685.286 L2186.9 691.383 L2183.66 697.53 L2180.42 703.726 L2177.18 709.97 L2173.93 716.262 L2170.69 722.599 L2167.45 728.98 L2164.21 735.405 L2160.97 741.87 L2157.73 748.375 L2154.49 754.917 L2151.25 761.494 L2148 768.104 L2144.76 774.744 L2141.52 781.412 L2138.28 788.105 L2135.04 794.82 L2131.8 801.554 L2128.56 808.303 L2125.31 815.063 L2122.07 821.83 L2118.83 828.601 L2115.59 835.37 L2112.35 842.133 L2109.11 848.884 L2105.87 855.618 L2102.62 862.329 L2099.38 869.01 L2096.14 875.656 L2092.9 882.258 L2089.66 888.811 L2086.42 895.304 L2083.18 901.731 L2079.93 908.082 L2076.69 914.348 L2073.45 920.519 L2070.21 926.586 L2066.97 932.538 L2063.73 938.362 L2060.49 944.05 L2057.24 949.587 L2054 954.963 L2050.76 960.166 L2047.52 965.182 L2044.28 970 L2041.04 974.609 L2037.8 979.007 L2034.56 983.197 L2031.31 987.177 L2028.07 990.95 L2024.83 994.517 L2021.59 997.878 L2018.35 1001.04 L2015.11 1003.99 L2011.87 1006.74 L2008.62 1009.3 L2005.38 1011.65 L2002.14 1013.83 L1998.9 1015.83 L1995.66 1017.69 L1992.42 1019.4 L1989.18 1020.99 L1985.93 1022.47 L1982.69 1023.86 L1979.45 1025.16 L1976.21 1026.39 L1972.97 1027.56 L1969.73 1028.68 L1966.49 1029.77 L1963.24 1030.82 L1960 1031.86 L1956.76 1032.89 L1953.52 1033.91 L1950.28 1034.93 L1947.04 1035.97 L1943.8 1037.02 L1940.56 1038.09 L1937.31 1039.18 L1934.07 1040.3 L1930.83 1041.45 L1927.59 1042.63 L1924.35 1043.85 L1921.11 1045.1 L1917.87 1046.39 L1914.62 1047.71 L1911.38 1049.07 L1908.14 1050.46 L1904.9 1051.88 L1901.66 1053.33 L1898.42 1054.8 L1895.18 1056.3 L1891.93 1057.81 L1888.69 1059.34 L1885.45 1060.87 L1882.21 1062.4 L1878.97 1063.92 L1875.73 1065.44 L1872.49 1066.93 L1869.24 1068.39 L1866 1069.81 L1862.76 1071.18 L1859.52 1072.5 L1856.28 1073.75 L1853.04 1074.92 L1849.8 1076 L1846.55 1076.99 L1843.31 1077.86 L1840.07 1078.63 L1836.83 1079.28 L1833.59 1079.83 L1830.35 1080.28 L1827.11 1080.62 L1823.87 1080.85 L1820.62 1080.99 L1817.38 1081.05 L1814.14 1081.04 L1810.9 1080.97 L1807.66 1080.85 L1804.42 1080.69 L1801.18 1080.5 L1797.93 1080.3 L1794.69 1080.08 L1791.45 1079.86 L1788.21 1079.65 L1784.97 1079.45 L1781.73 1079.27 L1778.49 1079.12 L1775.24 1078.99 L1772 1078.9 L1768.76 1078.85 L1765.52 1078.84 L1762.28 1078.87 L1759.04 1078.95 L1755.8 1079.08 L1752.55 1079.25 L1749.31 1079.47 L1746.07 1079.74 L1742.83 1080.05 L1739.59 1080.4 L1736.35 1080.79 L1733.11 1081.21 L1729.87 1081.66 L1726.62 1082.14 L1723.38 1082.64 L1720.14 1083.14 L1716.9 1083.65 L1713.66 1084.16 L1710.42 1084.65 L1707.18 1085.13 L1703.93 1085.57 L1700.69 1085.97 L1697.45 1086.31 L1694.21 1086.6 L1690.97 1086.82 L1687.73 1086.96 L1684.49 1087.02 L1681.24 1086.97 L1678 1086.81 L1674.76 1086.53 L1671.52 1086.11 L1668.28 1085.54 L1665.04 1084.81 L1661.8 1083.91 L1658.55 1082.81 L1655.31 1081.53 L1652.07 1080.05 L1648.83 1078.38 L1645.59 1076.52 L1642.35 1074.5 L1639.11 1072.32 L1635.86 1069.99 L1632.62 1067.53 L1629.38 1064.94 L1626.14 1062.24 L1622.9 1059.43 L1619.66 1056.51 L1616.42 1053.5 L1613.18 1050.4 L1609.93 1047.22 L1606.69 1043.95 L1603.45 1040.61 L1600.21 1037.19 L1596.97 1033.69 L1593.73 1030.12 L1590.49 1026.48 L1587.24 1022.75 L1584 1018.95 L1580.76 1015.07 L1577.52 1011.11 L1574.28 1007.06 L1571.04 1002.94 L1567.8 998.735 L1564.55 994.453 L1561.31 990.091 L1558.07 985.651 L1554.83 981.129 L1551.59 976.526 L1548.35 971.839 L1545.11 967.066 L1541.86 962.204 L1538.62 957.252 L1535.38 952.22 L1532.14 947.119 L1528.9 941.96 L1525.66 936.752 L1522.42 931.505 L1519.18 926.23 L1515.93 920.934 L1512.69 915.626 L1509.45 910.313 L1506.21 905.003 L1502.97 899.702 L1499.73 894.415 L1496.49 889.148 L1493.24 883.906 L1490 878.692 L1486.76 873.51 L1483.52 868.362 L1480.28 863.251 L1477.04 858.179 L1473.8 853.145 L1470.55 848.151 L1467.31 843.196 L1464.07 838.279 L1460.83 833.398 L1457.59 828.552 L1454.35 823.737 L1451.11 818.951 L1447.86 814.188 L1444.62 809.445 L1441.38 804.716 L1438.14 799.996 L1434.9 795.277 L1431.66 790.554 L1428.42 785.819 L1425.17 781.064 L1421.93 776.281 L1418.69 771.462 L1415.45 766.598 L1412.21 761.682 L1408.97 756.703 L1405.73 751.654 L1402.49 746.527 L1399.24 741.321 L1396 736.042 L1392.76 730.699 L1389.52 725.3 L1386.28 719.855 L1383.04 714.373 L1379.8 708.862 L1376.55 703.33 L1373.31 697.786 L1370.07 692.238 L1366.83 686.691 L1363.59 681.154 L1360.35 675.633 L1357.11 670.133 L1353.86 664.659 L1350.62 659.216 L1347.38 653.808 L1344.14 648.44 L1340.9 643.112 L1337.66 637.829 L1334.42 632.592 L1331.17 627.403 L1327.93 622.261 L1324.69 617.168 L1321.45 612.123 L1318.21 607.125 L1314.97 602.173 L1311.73 597.265 L1308.48 592.399 L1305.24 587.572 L1302 582.78 L1298.76 578.019 L1295.52 573.286 L1292.28 568.576 L1289.04 563.884 L1285.8 559.203 L1282.55 554.528 L1279.31 549.853 L1276.07 545.171 L1272.83 540.474 L1269.59 535.757 L1266.35 531.01 L1263.11 526.227 L1259.86 521.402 L1256.62 516.538 L1253.38 511.638 L1250.14 506.708 L1246.9 501.752 L1243.66 496.774 L1240.42 491.777 L1237.17 486.766 L1233.93 481.742 L1230.69 476.709 L1227.45 471.668 L1224.21 466.623 L1220.97 461.574 L1217.73 456.522 L1214.48 451.468 L1211.24 446.413 L1208 441.356 L1204.76 436.296 L1201.52 431.232 L1198.28 426.164 L1195.04 421.089 L1191.8 416.006 L1188.55 410.912 L1185.31 405.804 L1182.07 400.681 L1178.83 395.539 L1175.59 390.377 L1172.35 385.199 L1169.11 380.014 L1165.86 374.827 L1162.62 369.645 L1159.38 364.475 L1156.14 359.321 L1152.9 354.189 L1149.66 349.086 L1146.42 344.015 L1143.17 338.981 L1139.93 333.988 L1136.69 329.041 L1133.45 324.142 L1130.21 319.294 L1126.97 314.5 L1123.73 309.761 L1120.48 305.081 L1117.24 300.458 L1114 295.896 L1110.76 291.393 L1107.52 286.951 L1104.28 282.568 L1101.04 278.245 L1097.79 273.98 L1094.55 269.773 L1091.31 265.622 L1088.07 261.525 L1084.83 257.481 L1081.59 253.487 L1078.35 249.542 L1075.11 245.644 L1071.86 241.792 L1068.62 237.987 L1065.38 234.233 L1062.14 230.532 L1058.9 226.887 L1055.66 223.301 L1052.42 219.776 L1049.17 216.315 L1045.93 212.919 L1042.69 209.59 L1039.45 206.331 L1036.21 203.142 L1032.97 200.024 L1029.73 196.978 L1026.48 194.004 L1023.24 191.103 L1020 188.274 L1016.76 185.516 L1013.52 182.829 L1010.28 180.212 L1007.04 177.662 L1003.79 175.178 L1000.55 172.758 L997.312 170.399 L994.071 168.098 L990.829 165.852 L987.588 163.658 L984.346 161.511 L981.105 159.407 L977.864 157.342 L974.622 155.312 L971.381 153.312 L968.139 151.335 L964.898 149.378 L961.657 147.435 L958.415 145.499 L955.174 143.565 L951.933 141.628 L948.691 139.681 L945.45 137.719 L942.208 135.736 L938.967 133.727 L935.726 131.698 L932.484 129.654 L929.243 127.602 L926.001 125.548 L922.76 123.499 L919.519 121.461 L916.277 119.44 L913.036 117.441 L909.795 115.471 L906.553 113.536 L903.312 111.641 L900.07 109.791 L896.829 107.991 L893.588 106.246 L890.346 104.561 L887.105 102.939 L883.863 101.385 L880.622 99.9033 L877.381 98.4964 L874.139 97.1679 L870.898 95.9209 L867.657 94.7579 L864.415 93.6816 L861.174 92.694 L857.932 91.7971 L854.691 90.9925 L851.45 90.2815 L848.208 89.6651 L844.967 89.1442 L841.725 88.7192 L838.484 88.3902 L835.243 88.1572 L832.001 88.0194 L828.76 87.9763 L825.519 88.0265 L822.277 88.1686 L819.036 88.4006 L815.794 88.7203 L812.553 89.125 L809.312 89.6116 L806.07 90.1765 L802.829 90.8157 L799.587 91.5248 L796.346 92.299 L793.105 93.1327 L789.863 94.0201 L786.622 94.9549 L783.381 95.93 L780.139 96.9382 L776.898 97.9715 L773.656 99.0218 L770.415 100.08 L767.174 101.138 L763.932 102.185 L760.691 103.214 L757.449 104.222 L754.208 105.209 L750.967 106.174 L747.725 107.115 L744.484 108.03 L741.242 108.92 L738.001 109.781 L734.76 110.614 L731.518 111.422 L728.277 112.21 L725.036 112.984 L721.794 113.747 L718.553 114.504 L715.311 115.259 L712.07 116.015 L708.829 116.775 L705.587 117.542 L702.346 118.317 L699.104 119.102 L695.863 119.898 L692.622 120.707 L689.38 121.528 L686.139 122.363 L682.898 123.211 L679.656 124.074 L676.415 124.952 L673.173 125.845 L669.932 126.753 L666.691 127.676 L663.449 128.612 L660.208 129.561 L656.966 130.52 L653.725 131.487 L650.484 132.46 L647.242 133.439 L644.001 134.428 L640.76 135.435 L637.518 136.465 L634.277 137.524 L631.035 138.617 L627.794 139.75 L624.553 140.928 L621.311 142.153 L618.07 143.43 L614.828 144.762 L611.587 146.151 L608.346 147.599 L605.104 149.108 L601.863 150.679 L598.622 152.312 L595.38 154.007 L592.139 155.764 L588.897 157.582 L585.656 159.459 L582.415 161.395 L579.173 163.386 L575.932 165.431 L572.69 167.525 L569.449 169.666 L566.208 171.849 L562.966 174.071 L559.725 176.327 L556.484 178.611 L553.242 180.918 L550.001 183.242 L546.759 185.576 L543.518 187.915 L540.277 190.252 L537.035 192.578 L533.794 194.886 L530.552 197.168 L527.311 199.417 L524.07 201.623 L520.828 203.778 L517.587 205.872 L514.346 207.897 L511.104 209.844 L507.863 211.702 L504.621 213.463 L501.38 215.117 L498.139 216.654 L494.897 218.066 L491.656 219.343 L488.414 220.479 L485.173 221.477 L481.932 222.342 L478.69 223.081 L475.449 223.7 L472.208 224.204 L468.966 224.6 L465.725 224.894 L462.483 225.092 L459.242 225.199 L456.001 225.222 L452.759 225.165 L449.518 225.035 L446.276 224.836 L443.035 224.574 L439.794 224.252 L436.552 223.877 L433.311 223.452 L430.069 222.982 L426.828 222.47 L423.587 221.921 L420.345 221.337 L417.104 220.723 L413.863 220.082 L410.621 219.417 L407.38 218.73 L404.138 218.025 L400.897 217.303 L397.656 216.569 L394.414 215.823 L391.173 215.068 L387.931 214.306 L384.69 213.538 L381.449 212.767 L378.207 211.995 L374.966 211.222 L371.725 210.45 L368.483 209.68 L365.242 208.914 L362 208.153 L358.759 207.398 L355.518 206.65 L352.276 205.909 L349.035 205.177 L345.793 204.454 L342.552 203.741 L339.311 203.038 L336.069 202.347 L332.828 201.668 L329.587 201 L326.345 200.345 L323.104 199.704 L319.862 199.075 L316.621 198.46 L313.38 197.859 L310.138 197.272 L306.897 196.699 L303.655 196.14 L300.414 195.596 L297.173 195.067 L293.931 194.552 L290.69 194.052 L287.449 193.567 L284.207 193.097 L280.966 192.641 L277.724 192.2 L274.483 191.774 L271.242 191.362 L268 190.965 L264.759 190.583 L261.517 190.214 L258.276 189.86 L255.035 189.52  Z" fill="#3da44d" fill-rule="evenodd" fill-opacity="0.1"/>
<polyline clip-path="url(#clip002)" style="stroke:#3da44d; stroke-linecap:round; stroke-linejoin:round; stroke-width:8; stroke-opacity:1; fill:none" points="255.035,634.315 258.276,632.851 261.517,631.369 264.759,629.87 268,628.352 271.242,626.817 274.483,625.262 277.724,623.689 280.966,622.098 284.207,620.487 287.449,618.857 290.69,617.208 293.931,615.539 297.173,613.851 300.414,612.143 303.655,610.415 306.897,608.666 310.138,606.897 313.38,605.108 316.621,603.297 319.862,601.466 323.104,599.614 326.345,597.74 329.587,595.845 332.828,593.928 336.069,591.99 339.311,590.029 342.552,588.046 345.793,586.041 349.035,584.013 352.276,581.963 355.518,579.89 358.759,577.793 362,575.673 365.242,573.53 368.483,571.364 371.725,569.173 374.966,566.959 378.207,564.72 381.449,562.458 384.69,560.17 387.931,557.859 391.173,555.522 394.414,553.161 397.656,550.774 400.897,548.363 404.138,545.926 407.38,543.463 410.621,540.975 413.863,538.461 417.104,535.921 420.345,533.354 423.587,530.762 426.828,528.143 430.069,525.498 433.311,522.826 436.552,520.128 439.794,517.402 443.035,514.65 446.276,511.87 449.518,509.063 452.759,506.229 456.001,503.368 459.242,500.479 462.483,497.562 465.725,494.618 468.966,491.646 472.208,488.646 475.449,485.618 478.69,482.563 481.932,479.479 485.173,476.368 488.414,473.228 491.656,470.06 494.897,466.864 498.139,463.642 501.38,460.394 504.621,457.121 507.863,453.826 511.104,450.509 514.346,447.172 517.587,443.816 520.828,440.443 524.07,437.053 527.311,433.649 530.552,430.232 533.794,426.802 537.035,423.362 540.277,419.913 543.518,416.457 546.759,412.995 550.001,409.529 553.242,406.06 556.484,402.59 559.725,399.121 562.966,395.653 566.208,392.19 569.449,388.733 572.69,385.283 575.932,381.842 579.173,378.412 582.415,374.996 585.656,371.594 588.897,368.209 592.139,364.844 595.38,361.499 598.622,358.178 601.863,354.881 605.104,351.613 608.346,348.374 611.587,345.167 614.828,341.995 618.07,338.86 621.311,335.764 624.553,332.709 627.794,329.7 631.035,326.738 634.277,323.825 637.518,320.965 640.76,318.161 644.001,315.416 647.242,312.732 650.484,310.113 653.725,307.561 656.966,305.081 660.208,302.677 663.449,300.35 666.691,298.107 669.932,295.95 673.173,293.884 676.415,291.912 679.656,290.039 682.898,288.269 686.139,286.607 689.38,285.057 692.622,283.622 695.863,282.3 699.104,281.09 702.346,279.988 705.587,278.991 708.829,278.098 712.07,277.305 715.311,276.61 718.553,276.011 721.794,275.507 725.036,275.094 728.277,274.771 731.518,274.537 734.76,274.389 738.001,274.326 741.242,274.346 744.484,274.446 747.725,274.624 750.967,274.876 754.208,275.199 757.449,275.592 760.691,276.05 763.932,276.572 767.174,277.155 770.415,277.796 773.656,278.493 776.898,279.245 780.139,280.047 783.381,280.899 786.622,281.798 789.863,282.743 793.105,283.73 796.346,284.758 799.587,285.826 802.829,286.931 806.07,288.073 809.312,289.248 812.553,290.456 815.794,291.694 819.036,292.963 822.277,294.259 825.519,295.582 828.76,296.93 832.001,298.303 835.243,299.699 838.484,301.116 841.725,302.554 844.967,304.012 848.208,305.488 851.45,306.982 854.691,308.493 857.932,310.02 861.174,311.562 864.415,313.119 867.657,314.689 870.898,316.273 874.139,317.869 877.381,319.477 880.622,321.096 883.863,322.726 887.105,324.367 890.346,326.019 893.588,327.68 896.829,329.35 900.07,331.03 903.312,332.719 906.553,334.417 909.795,336.124 913.036,337.839 916.277,339.563 919.519,341.296 922.76,343.038 926.001,344.789 929.243,346.548 932.484,348.317 935.726,350.095 938.967,351.883 942.208,353.681 945.45,355.489 948.691,357.308 951.933,359.139 955.174,360.983 958.415,362.841 961.657,364.714 964.898,366.602 968.139,368.507 971.381,370.43 974.622,372.372 977.864,374.334 981.105,376.318 984.346,378.325 987.588,380.355 990.829,382.412 994.071,384.495 997.312,386.607 1000.55,388.748 1003.79,390.922 1007.04,393.128 1010.28,395.369 1013.52,397.647 1016.76,399.964 1020,402.32 1023.24,404.719 1026.48,407.161 1029.73,409.65 1032.97,412.187 1036.21,414.774 1039.45,417.414 1042.69,420.108 1045.93,422.86 1049.17,425.67 1052.42,428.543 1055.66,431.48 1058.9,434.484 1062.14,437.557 1065.38,440.703 1068.62,443.923 1071.86,447.222 1075.11,450.601 1078.35,454.064 1081.59,457.607 1084.83,461.228 1088.07,464.924 1091.31,468.693 1094.55,472.532 1097.79,476.439 1101.04,480.41 1104.28,484.444 1107.52,488.538 1110.76,492.69 1114,496.898 1117.24,501.158 1120.48,505.471 1123.73,509.832 1126.97,514.24 1130.21,518.694 1133.45,523.19 1136.69,527.729 1139.93,532.306 1143.17,536.921 1146.42,541.572 1149.66,546.257 1152.9,550.975 1156.14,555.723 1159.38,560.501 1162.62,565.307 1165.86,570.138 1169.11,574.994 1172.35,579.873 1175.59,584.774 1178.83,589.695 1182.07,594.635 1185.31,599.591 1188.55,604.564 1191.8,609.55 1195.04,614.549 1198.28,619.558 1201.52,624.577 1204.76,629.603 1208,634.636 1211.24,639.673 1214.48,644.713 1217.73,649.755 1220.97,654.797 1224.21,659.838 1227.45,664.877 1230.69,669.911 1233.93,674.939 1237.17,679.96 1240.42,684.973 1243.66,689.976 1246.9,694.968 1250.14,699.947 1253.38,704.911 1256.62,709.86 1259.86,714.792 1263.11,719.705 1266.35,724.598 1269.59,729.472 1272.83,734.329 1276.07,739.168 1279.31,743.991 1282.55,748.8 1285.8,753.595 1289.04,758.376 1292.28,763.146 1295.52,767.905 1298.76,772.654 1302,777.394 1305.24,782.126 1308.48,786.851 1311.73,791.57 1314.97,796.284 1318.21,800.994 1321.45,805.7 1324.69,810.404 1327.93,815.106 1331.17,819.808 1334.42,824.51 1337.66,829.213 1340.9,833.919 1344.14,838.627 1347.38,843.34 1350.62,848.057 1353.86,852.779 1357.11,857.508 1360.35,862.244 1363.59,866.989 1366.83,871.742 1370.07,876.505 1373.31,881.279 1376.55,886.064 1379.8,890.861 1383.04,895.671 1386.28,900.495 1389.52,905.334 1392.76,910.188 1396,915.059 1399.24,919.946 1402.49,924.851 1405.73,929.775 1408.97,934.719 1412.21,939.682 1415.45,944.663 1418.69,949.659 1421.93,954.67 1425.17,959.692 1428.42,964.725 1431.66,969.766 1434.9,974.815 1438.14,979.868 1441.38,984.924 1444.62,989.981 1447.86,995.038 1451.11,1000.09 1454.35,1005.14 1457.59,1010.19 1460.83,1015.22 1464.07,1020.24 1467.31,1025.26 1470.55,1030.25 1473.8,1035.23 1477.04,1040.2 1480.28,1045.14 1483.52,1050.05 1486.76,1054.94 1490,1059.81 1493.24,1064.64 1496.49,1069.44 1499.73,1074.21 1502.97,1078.94 1506.21,1083.63 1509.45,1088.27 1512.69,1092.87 1515.93,1097.42 1519.18,1101.93 1522.42,1106.37 1525.66,1110.77 1528.9,1115.1 1532.14,1119.37 1535.38,1123.57 1538.62,1127.7 1541.86,1131.76 1545.11,1135.75 1548.35,1139.67 1551.59,1143.51 1554.83,1147.29 1558.07,1151 1561.31,1154.64 1564.55,1158.23 1567.8,1161.76 1571.04,1165.22 1574.28,1168.64 1577.52,1172 1580.76,1175.31 1584,1178.57 1587.24,1181.77 1590.49,1184.93 1593.73,1188.03 1596.97,1191.07 1600.21,1194.05 1603.45,1196.97 1606.69,1199.82 1609.93,1202.61 1613.18,1205.33 1616.42,1207.98 1619.66,1210.55 1622.9,1213.05 1626.14,1215.46 1629.38,1217.8 1632.62,1220.04 1635.86,1222.2 1639.11,1224.27 1642.35,1226.24 1645.59,1228.11 1648.83,1229.88 1652.07,1231.55 1655.31,1233.1 1658.55,1234.55 1661.8,1235.9 1665.04,1237.14 1668.28,1238.29 1671.52,1239.35 1674.76,1240.33 1678,1241.24 1681.24,1242.08 1684.49,1242.86 1687.73,1243.59 1690.97,1244.28 1694.21,1244.93 1697.45,1245.54 1700.69,1246.13 1703.93,1246.71 1707.18,1247.27 1710.42,1247.81 1713.66,1248.35 1716.9,1248.88 1720.14,1249.39 1723.38,1249.9 1726.62,1250.4 1729.87,1250.88 1733.11,1251.36 1736.35,1251.82 1739.59,1252.28 1742.83,1252.72 1746.07,1253.16 1749.31,1253.59 1752.55,1254 1755.8,1254.4 1759.04,1254.8 1762.28,1255.18 1765.52,1255.55 1768.76,1255.9 1772,1256.25 1775.24,1256.57 1778.49,1256.89 1781.73,1257.19 1784.97,1257.47 1788.21,1257.74 1791.45,1257.99 1794.69,1258.22 1797.93,1258.43 1801.18,1258.61 1804.42,1258.78 1807.66,1258.93 1810.9,1259.04 1814.14,1259.14 1817.38,1259.21 1820.62,1259.24 1823.87,1259.25 1827.11,1259.23 1830.35,1259.17 1833.59,1259.08 1836.83,1258.96 1840.07,1258.8 1843.31,1258.6 1846.55,1258.37 1849.8,1258.1 1853.04,1257.8 1856.28,1257.46 1859.52,1257.09 1862.76,1256.68 1866,1256.24 1869.24,1255.77 1872.49,1255.27 1875.73,1254.75 1878.97,1254.19 1882.21,1253.6 1885.45,1252.99 1888.69,1252.35 1891.93,1251.68 1895.18,1250.98 1898.42,1250.26 1901.66,1249.51 1904.9,1248.74 1908.14,1247.94 1911.38,1247.11 1914.62,1246.26 1917.87,1245.38 1921.11,1244.48 1924.35,1243.55 1927.59,1242.59 1930.83,1241.61 1934.07,1240.6 1937.31,1239.56 1940.56,1238.49 1943.8,1237.39 1947.04,1236.27 1950.28,1235.11 1953.52,1233.92 1956.76,1232.7 1960,1231.45 1963.24,1230.17 1966.49,1228.85 1969.73,1227.49 1972.97,1226.1 1976.21,1224.67 1979.45,1223.2 1982.69,1221.69 1985.93,1220.13 1989.18,1218.54 1992.42,1216.89 1995.66,1215.2 1998.9,1213.47 2002.14,1211.68 2005.38,1209.84 2008.62,1207.94 2011.87,1205.99 2015.11,1203.99 2018.35,1201.93 2021.59,1199.82 2024.83,1197.66 2028.07,1195.45 2031.31,1193.18 2034.56,1190.87 2037.8,1188.51 2041.04,1186.11 2044.28,1183.66 2047.52,1181.16 2050.76,1178.61 2054,1176.03 2057.24,1173.41 2060.49,1170.74 2063.73,1168.05 2066.97,1165.32 2070.21,1162.56 2073.45,1159.77 2076.69,1156.95 2079.93,1154.1 2083.18,1151.23 2086.42,1148.34 2089.66,1145.43 2092.9,1142.5 2096.14,1139.55 2099.38,1136.59 2102.62,1133.61 2105.87,1130.61 2109.11,1127.61 2112.35,1124.59 2115.59,1121.56 2118.83,1118.53 2122.07,1115.49 2125.31,1112.44 2128.56,1109.39 2131.8,1106.33 2135.04,1103.27 2138.28,1100.21 2141.52,1097.15 2144.76,1094.09 2148,1091.02 2151.25,1087.96 2154.49,1084.91 2157.73,1081.85 2160.97,1078.81 2164.21,1075.76 2167.45,1072.72 2170.69,1069.69 2173.93,1066.67 2177.18,1063.65 2180.42,1060.64 2183.66,1057.64 2186.9,1054.65 2190.14,1051.67 2193.38,1048.7 2196.62,1045.74 2199.87,1042.8 2203.11,1039.86 2206.35,1036.94 2209.59,1034.03 2212.83,1031.14 2216.07,1028.26 2219.31,1025.39 2222.56,1022.54 2225.8,1019.7 2229.04,1016.88 2232.28,1014.07 2235.52,1011.28 2238.76,1008.5 2242,1005.75 2245.25,1003 2248.49,1000.28 2251.73,997.571 2254.97,994.881 2258.21,992.208 2261.45,989.553 2264.69,986.915 2267.94,984.296 2271.18,981.695 2274.42,979.113 2277.66,976.549 2280.9,974.003 2284.14,971.477 2287.38,968.969 2290.62,966.48 "/>
<polyline clip-path="url(#clip002)" style="stroke:#c271d2; stroke-linecap:round; stroke-linejoin:round; stroke-width:12; stroke-opacity:1; fill:none" points="255.035,934.324 362.225,823.279 469.416,671.104 576.607,526.902 683.797,398.969 790.988,410.812 898.179,479.323 1005.37,537.418 1112.56,630.682 1219.75,783.235 1326.94,943.824 1434.13,1094.66 1541.32,1245.56 1648.51,1331.91 1755.7,1372.64 1862.89,1381.81 1970.09,1361.41 2077.28,1320.48 2184.47,1300.32 2291.66,1264.78 "/>
<polyline clip-path="url(#clip002)" style="stroke:#ac8d18; stroke-linecap:round; stroke-linejoin:round; stroke-width:12; stroke-opacity:1; fill:none" points="255.035,334.305 362.225,327.772 469.416,311.358 576.607,235.352 683.797,176.625 790.988,155.349 898.179,180.774 1005.37,246.56 1112.56,359.356 1219.75,522.574 1326.94,683.511 1434.13,852.575 1541.32,1016.62 1648.51,1127.52 1755.7,1136.15 1862.89,1131.52 1970.09,1093.27 2077.28,992.395 2184.47,813.471 2291.66,666.607 "/>
<path clip-path="url(#clip000)" d="M1953.46 406.258 L2280.8 406.258 L2280.8 95.2176 L1953.46 95.2176  Z" fill="#ffffff" fill-rule="evenodd" fill-opacity="1"/>
<polyline clip-path="url(#clip000)" style="stroke:#000000; stroke-linecap:round; stroke-linejoin:round; stroke-width:4; stroke-opacity:1; fill:none" points="1953.46,406.258 2280.8,406.258 2280.8,95.2176 1953.46,95.2176 1953.46,406.258 "/>
<polyline clip-path="url(#clip000)" style="stroke:#009af9; stroke-linecap:round; stroke-linejoin:round; stroke-width:4; stroke-opacity:1; fill:none" points="1977.44,147.058 2121.36,147.058 "/>
<path clip-path="url(#clip000)" d="M2152.76 131.051 L2152.76 138.412 L2161.53 138.412 L2161.53 141.722 L2152.76 141.722 L2152.76 155.796 Q2152.76 158.967 2153.61 159.87 Q2154.49 160.773 2157.16 160.773 L2161.53 160.773 L2161.53 164.338 L2157.16 164.338 Q2152.23 164.338 2150.35 162.509 Q2148.48 160.657 2148.48 155.796 L2148.48 141.722 L2145.35 141.722 L2145.35 138.412 L2148.48 138.412 L2148.48 131.051 L2152.76 131.051 Z" fill="#000000" fill-rule="nonzero" fill-opacity="1" /><path clip-path="url(#clip000)" d="M2182.16 142.393 Q2181.44 141.977 2180.58 141.791 Q2179.75 141.583 2178.73 141.583 Q2175.12 141.583 2173.17 143.944 Q2171.25 146.282 2171.25 150.68 L2171.25 164.338 L2166.97 164.338 L2166.97 138.412 L2171.25 138.412 L2171.25 142.44 Q2172.6 140.078 2174.75 138.944 Q2176.9 137.787 2179.98 137.787 Q2180.42 137.787 2180.95 137.856 Q2181.48 137.903 2182.13 138.018 L2182.16 142.393 Z" fill="#000000" fill-rule="nonzero" fill-opacity="1" /><path clip-path="url(#clip000)" d="M2186.18 154.106 L2186.18 138.412 L2190.44 138.412 L2190.44 153.944 Q2190.44 157.625 2191.88 159.476 Q2193.31 161.305 2196.18 161.305 Q2199.63 161.305 2201.62 159.106 Q2203.64 156.907 2203.64 153.111 L2203.64 138.412 L2207.9 138.412 L2207.9 164.338 L2203.64 164.338 L2203.64 160.356 Q2202.09 162.717 2200.03 163.875 Q2197.99 165.009 2195.28 165.009 Q2190.81 165.009 2188.5 162.231 Q2186.18 159.453 2186.18 154.106 M2196.9 137.787 L2196.9 137.787 Z" fill="#000000" fill-rule="nonzero" fill-opacity="1" /><path clip-path="url(#clip000)" d="M2220.88 131.051 L2220.88 138.412 L2229.66 138.412 L2229.66 141.722 L2220.88 141.722 L2220.88 155.796 Q2220.88 158.967 2221.74 159.87 Q2222.62 160.773 2225.28 160.773 L2229.66 160.773 L2229.66 164.338 L2225.28 164.338 Q2220.35 164.338 2218.48 162.509 Q2216.6 160.657 2216.6 155.796 L2216.6 141.722 L2213.48 141.722 L2213.48 138.412 L2216.6 138.412 L2216.6 131.051 L2220.88 131.051 Z" fill="#000000" fill-rule="nonzero" fill-opacity="1" /><path clip-path="url(#clip000)" d="M2256.81 148.689 L2256.81 164.338 L2252.55 164.338 L2252.55 148.828 Q2252.55 145.148 2251.11 143.319 Q2249.68 141.49 2246.81 141.49 Q2243.36 141.49 2241.37 143.69 Q2239.38 145.889 2239.38 149.685 L2239.38 164.338 L2235.1 164.338 L2235.1 128.319 L2239.38 128.319 L2239.38 142.44 Q2240.91 140.102 2242.97 138.944 Q2245.05 137.787 2247.76 137.787 Q2252.23 137.787 2254.52 140.565 Q2256.81 143.319 2256.81 148.689 Z" fill="#000000" fill-rule="nonzero" fill-opacity="1" /><circle clip-path="url(#clip000)" cx="2049.4" cy="198.898" r="20.48" fill="#e26f46" fill-rule="evenodd" fill-opacity="1" stroke="#000000" stroke-opacity="1" stroke-width="4.55111"/>
<path clip-path="url(#clip000)" d="M2164.26 194.187 L2164.26 180.159 L2168.52 180.159 L2168.52 216.178 L2164.26 216.178 L2164.26 212.289 Q2162.92 214.603 2160.86 215.738 Q2158.82 216.849 2155.95 216.849 Q2151.25 216.849 2148.29 213.099 Q2145.35 209.349 2145.35 203.238 Q2145.35 197.127 2148.29 193.377 Q2151.25 189.627 2155.95 189.627 Q2158.82 189.627 2160.86 190.761 Q2162.92 191.872 2164.26 194.187 M2149.75 203.238 Q2149.75 207.937 2151.67 210.622 Q2153.61 213.284 2156.99 213.284 Q2160.37 213.284 2162.32 210.622 Q2164.26 207.937 2164.26 203.238 Q2164.26 198.539 2162.32 195.877 Q2160.37 193.192 2156.99 193.192 Q2153.61 193.192 2151.67 195.877 Q2149.75 198.539 2149.75 203.238 Z" fill="#000000" fill-rule="nonzero" fill-opacity="1" /><path clip-path="url(#clip000)" d="M2189.08 203.145 Q2183.92 203.145 2181.92 204.326 Q2179.93 205.506 2179.93 208.354 Q2179.93 210.622 2181.42 211.965 Q2182.92 213.284 2185.49 213.284 Q2189.03 213.284 2191.16 210.784 Q2193.31 208.261 2193.31 204.094 L2193.31 203.145 L2189.08 203.145 M2197.57 201.386 L2197.57 216.178 L2193.31 216.178 L2193.31 212.242 Q2191.85 214.603 2189.68 215.738 Q2187.5 216.849 2184.36 216.849 Q2180.37 216.849 2178.01 214.627 Q2175.67 212.381 2175.67 208.631 Q2175.67 204.256 2178.59 202.034 Q2181.53 199.812 2187.34 199.812 L2193.31 199.812 L2193.31 199.395 Q2193.31 196.455 2191.37 194.858 Q2189.45 193.238 2185.95 193.238 Q2183.73 193.238 2181.62 193.77 Q2179.52 194.303 2177.57 195.367 L2177.57 191.432 Q2179.91 190.53 2182.11 190.09 Q2184.31 189.627 2186.39 189.627 Q2192.02 189.627 2194.79 192.543 Q2197.57 195.46 2197.57 201.386 Z" fill="#000000" fill-rule="nonzero" fill-opacity="1" /><path clip-path="url(#clip000)" d="M2210.56 182.891 L2210.56 190.252 L2219.33 190.252 L2219.33 193.562 L2210.56 193.562 L2210.56 207.636 Q2210.56 210.807 2211.42 211.71 Q2212.29 212.613 2214.96 212.613 L2219.33 212.613 L2219.33 216.178 L2214.96 216.178 Q2210.03 216.178 2208.15 214.349 Q2206.28 212.497 2206.28 207.636 L2206.28 193.562 L2203.15 193.562 L2203.15 190.252 L2206.28 190.252 L2206.28 182.891 L2210.56 182.891 Z" fill="#000000" fill-rule="nonzero" fill-opacity="1" /><path clip-path="url(#clip000)" d="M2236.72 203.145 Q2231.55 203.145 2229.56 204.326 Q2227.57 205.506 2227.57 208.354 Q2227.57 210.622 2229.05 211.965 Q2230.56 213.284 2233.13 213.284 Q2236.67 213.284 2238.8 210.784 Q2240.95 208.261 2240.95 204.094 L2240.95 203.145 L2236.72 203.145 M2245.21 201.386 L2245.21 216.178 L2240.95 216.178 L2240.95 212.242 Q2239.49 214.603 2237.32 215.738 Q2235.14 216.849 2231.99 216.849 Q2228.01 216.849 2225.65 214.627 Q2223.31 212.381 2223.31 208.631 Q2223.31 204.256 2226.23 202.034 Q2229.17 199.812 2234.98 199.812 L2240.95 199.812 L2240.95 199.395 Q2240.95 196.455 2239.01 194.858 Q2237.09 193.238 2233.59 193.238 Q2231.37 193.238 2229.26 193.77 Q2227.16 194.303 2225.21 195.367 L2225.21 191.432 Q2227.55 190.53 2229.75 190.09 Q2231.95 189.627 2234.03 189.627 Q2239.66 189.627 2242.43 192.543 Q2245.21 195.46 2245.21 201.386 Z" fill="#000000" fill-rule="nonzero" fill-opacity="1" /><polyline clip-path="url(#clip000)" style="stroke:#3da44d; stroke-linecap:round; stroke-linejoin:round; stroke-width:8; stroke-opacity:1; fill:none" points="1977.44,250.738 2121.36,250.738 "/>
<path clip-path="url(#clip000)" d="M2170.91 263.087 L2170.91 253.805 L2163.27 253.805 L2163.27 249.962 L2175.54 249.962 L2175.54 264.8 Q2172.83 266.721 2169.56 267.717 Q2166.3 268.689 2162.6 268.689 Q2154.49 268.689 2149.91 263.967 Q2145.35 259.221 2145.35 250.772 Q2145.35 242.3 2149.91 237.578 Q2154.49 232.833 2162.6 232.833 Q2165.98 232.833 2169.01 233.666 Q2172.06 234.499 2174.63 236.12 L2174.63 241.096 Q2172.04 238.897 2169.12 237.786 Q2166.21 236.675 2162.99 236.675 Q2156.65 236.675 2153.45 240.217 Q2150.28 243.758 2150.28 250.772 Q2150.28 257.763 2153.45 261.305 Q2156.65 264.846 2162.99 264.846 Q2165.47 264.846 2167.41 264.43 Q2169.36 263.99 2170.91 263.087 Z" fill="#000000" fill-rule="nonzero" fill-opacity="1" /><path clip-path="url(#clip000)" d="M2188.75 237.3 L2188.75 250.286 L2194.63 250.286 Q2197.9 250.286 2199.68 248.596 Q2201.46 246.907 2201.46 243.782 Q2201.46 240.68 2199.68 238.99 Q2197.9 237.3 2194.63 237.3 L2188.75 237.3 M2184.08 233.458 L2194.63 233.458 Q2200.44 233.458 2203.41 236.096 Q2206.39 238.712 2206.39 243.782 Q2206.39 248.897 2203.41 251.513 Q2200.44 254.129 2194.63 254.129 L2188.75 254.129 L2188.75 268.018 L2184.08 268.018 L2184.08 233.458 Z" fill="#000000" fill-rule="nonzero" fill-opacity="1" /><polyline clip-path="url(#clip000)" style="stroke:#c271d2; stroke-linecap:round; stroke-linejoin:round; stroke-width:12; stroke-opacity:1; fill:none" points="1977.44,302.578 2121.36,302.578 "/>
<path clip-path="url(#clip000)" d="M2150.03 289.14 L2150.03 302.126 L2155.91 302.126 Q2159.17 302.126 2160.95 300.436 Q2162.73 298.747 2162.73 295.622 Q2162.73 292.52 2160.95 290.83 Q2159.17 289.14 2155.91 289.14 L2150.03 289.14 M2145.35 285.298 L2155.91 285.298 Q2161.72 285.298 2164.68 287.936 Q2167.67 290.552 2167.67 295.622 Q2167.67 300.737 2164.68 303.353 Q2161.72 305.969 2155.91 305.969 L2150.03 305.969 L2150.03 319.858 L2145.35 319.858 L2145.35 285.298 Z" fill="#000000" fill-rule="nonzero" fill-opacity="1" /><path clip-path="url(#clip000)" d="M2178.38 315.922 L2194.7 315.922 L2194.7 319.858 L2172.76 319.858 L2172.76 315.922 Q2175.42 313.168 2180 308.538 Q2184.61 303.885 2185.79 302.543 Q2188.04 300.02 2188.92 298.284 Q2189.82 296.524 2189.82 294.835 Q2189.82 292.08 2187.87 290.344 Q2185.95 288.608 2182.85 288.608 Q2180.65 288.608 2178.2 289.372 Q2175.77 290.135 2172.99 291.686 L2172.99 286.964 Q2175.81 285.83 2178.27 285.251 Q2180.72 284.673 2182.76 284.673 Q2188.13 284.673 2191.32 287.358 Q2194.52 290.043 2194.52 294.534 Q2194.52 296.663 2193.71 298.585 Q2192.92 300.483 2190.81 303.075 Q2190.23 303.747 2187.13 306.964 Q2184.03 310.159 2178.38 315.922 Z" fill="#000000" fill-rule="nonzero" fill-opacity="1" /><path clip-path="url(#clip000)" d="M2204.56 285.298 L2222.92 285.298 L2222.92 289.233 L2208.85 289.233 L2208.85 297.705 Q2209.86 297.358 2210.88 297.196 Q2211.9 297.01 2212.92 297.01 Q2218.71 297.01 2222.09 300.182 Q2225.47 303.353 2225.47 308.77 Q2225.47 314.348 2221.99 317.45 Q2218.52 320.529 2212.2 320.529 Q2210.03 320.529 2207.76 320.158 Q2205.51 319.788 2203.1 319.047 L2203.1 314.348 Q2205.19 315.483 2207.41 316.038 Q2209.63 316.594 2212.11 316.594 Q2216.11 316.594 2218.45 314.487 Q2220.79 312.381 2220.79 308.77 Q2220.79 305.159 2218.45 303.052 Q2216.11 300.946 2212.11 300.946 Q2210.23 300.946 2208.36 301.362 Q2206.51 301.779 2204.56 302.659 L2204.56 285.298 Z" fill="#000000" fill-rule="nonzero" fill-opacity="1" /><polyline clip-path="url(#clip000)" style="stroke:#ac8d18; stroke-linecap:round; stroke-linejoin:round; stroke-width:12; stroke-opacity:1; fill:none" points="1977.44,354.418 2121.36,354.418 "/>
<path clip-path="url(#clip000)" d="M2150.03 340.98 L2150.03 353.966 L2155.91 353.966 Q2159.17 353.966 2160.95 352.276 Q2162.73 350.587 2162.73 347.462 Q2162.73 344.36 2160.95 342.67 Q2159.17 340.98 2155.91 340.98 L2150.03 340.98 M2145.35 337.138 L2155.91 337.138 Q2161.72 337.138 2164.68 339.776 Q2167.67 342.392 2167.67 347.462 Q2167.67 352.577 2164.68 355.193 Q2161.72 357.809 2155.91 357.809 L2150.03 357.809 L2150.03 371.698 L2145.35 371.698 L2145.35 337.138 Z" fill="#000000" fill-rule="nonzero" fill-opacity="1" /><path clip-path="url(#clip000)" d="M2173.17 337.138 L2195.4 337.138 L2195.4 339.128 L2182.85 371.698 L2177.97 371.698 L2189.77 341.073 L2173.17 341.073 L2173.17 337.138 Z" fill="#000000" fill-rule="nonzero" fill-opacity="1" /><path clip-path="url(#clip000)" d="M2204.56 337.138 L2222.92 337.138 L2222.92 341.073 L2208.85 341.073 L2208.85 349.545 Q2209.86 349.198 2210.88 349.036 Q2211.9 348.85 2212.92 348.85 Q2218.71 348.85 2222.09 352.022 Q2225.47 355.193 2225.47 360.61 Q2225.47 366.188 2221.99 369.29 Q2218.52 372.369 2212.2 372.369 Q2210.03 372.369 2207.76 371.998 Q2205.51 371.628 2203.1 370.887 L2203.1 366.188 Q2205.19 367.323 2207.41 367.878 Q2209.63 368.434 2212.11 368.434 Q2216.11 368.434 2218.45 366.327 Q2220.79 364.221 2220.79 360.61 Q2220.79 356.999 2218.45 354.892 Q2216.11 352.786 2212.11 352.786 Q2210.23 352.786 2208.36 353.202 Q2206.51 353.619 2204.56 354.499 L2204.56 337.138 Z" fill="#000000" fill-rule="nonzero" fill-opacity="1" /></svg>
