<?xml version="1.0" encoding="utf-8"?>
<svg xmlns="http://www.w3.org/2000/svg" xmlns:xlink="http://www.w3.org/1999/xlink" width="600" height="400" viewBox="0 0 2400 1600">
<defs>
  <clipPath id="clip810">
    <rect x="0" y="0" width="2400" height="1600"/>
  </clipPath>
</defs>
<path clip-path="url(#clip810)" d="M0 1600 L2400 1600 L2400 0 L0 0  Z" fill="#ffffff" fill-rule="evenodd" fill-opacity="1"/>
<defs>
  <clipPath id="clip811">
    <rect x="480" y="0" width="1681" height="1600"/>
  </clipPath>
</defs>
<path clip-path="url(#clip810)" d="M193.936 1486.45 L2352.76 1486.45 L2352.76 47.2441 L193.936 47.2441  Z" fill="#ffffff" fill-rule="evenodd" fill-opacity="1"/>
<defs>
  <clipPath id="clip812">
    <rect x="193" y="47" width="2160" height="1440"/>
  </clipPath>
</defs>
<polyline clip-path="url(#clip812)" style="stroke:#000000; stroke-linecap:round; stroke-linejoin:round; stroke-width:2; stroke-opacity:0.1; fill:none" points="255.035,1486.45 255.035,47.2441 "/>
<polyline clip-path="url(#clip812)" style="stroke:#000000; stroke-linecap:round; stroke-linejoin:round; stroke-width:2; stroke-opacity:0.1; fill:none" points="579.173,1486.45 579.173,47.2441 "/>
<polyline clip-path="url(#clip812)" style="stroke:#000000; stroke-linecap:round; stroke-linejoin:round; stroke-width:2; stroke-opacity:0.1; fill:none" points="903.312,1486.45 903.312,47.2441 "/>
<polyline clip-path="url(#clip812)" style="stroke:#000000; stroke-linecap:round; stroke-linejoin:round; stroke-width:2; stroke-opacity:0.1; fill:none" points="1227.45,1486.45 1227.45,47.2441 "/>
<polyline clip-path="url(#clip812)" style="stroke:#000000; stroke-linecap:round; stroke-linejoin:round; stroke-width:2; stroke-opacity:0.1; fill:none" points="1551.59,1486.45 1551.59,47.2441 "/>
<polyline clip-path="url(#clip812)" style="stroke:#000000; stroke-linecap:round; stroke-linejoin:round; stroke-width:2; stroke-opacity:0.1; fill:none" points="1875.73,1486.45 1875.73,47.2441 "/>
<polyline clip-path="url(#clip812)" style="stroke:#000000; stroke-linecap:round; stroke-linejoin:round; stroke-width:2; stroke-opacity:0.1; fill:none" points="2199.87,1486.45 2199.87,47.2441 "/>
<polyline clip-path="url(#clip812)" style="stroke:#000000; stroke-linecap:round; stroke-linejoin:round; stroke-width:2; stroke-opacity:0.1; fill:none" points="193.936,1257.84 2352.76,1257.84 "/>
<polyline clip-path="url(#clip812)" style="stroke:#000000; stroke-linecap:round; stroke-linejoin:round; stroke-width:2; stroke-opacity:0.1; fill:none" points="193.936,1005.05 2352.76,1005.05 "/>
<polyline clip-path="url(#clip812)" style="stroke:#000000; stroke-linecap:round; stroke-linejoin:round; stroke-width:2; stroke-opacity:0.1; fill:none" points="193.936,752.257 2352.76,752.257 "/>
<polyline clip-path="url(#clip812)" style="stroke:#000000; stroke-linecap:round; stroke-linejoin:round; stroke-width:2; stroke-opacity:0.1; fill:none" points="193.936,499.465 2352.76,499.465 "/>
<polyline clip-path="url(#clip812)" style="stroke:#000000; stroke-linecap:round; stroke-linejoin:round; stroke-width:2; stroke-opacity:0.1; fill:none" points="193.936,246.673 2352.76,246.673 "/>
<polyline clip-path="url(#clip810)" style="stroke:#000000; stroke-linecap:round; stroke-linejoin:round; stroke-width:4; stroke-opacity:1; fill:none" points="193.936,1486.45 2352.76,1486.45 "/>
<polyline clip-path="url(#clip810)" style="stroke:#000000; stroke-linecap:round; stroke-linejoin:round; stroke-width:4; stroke-opacity:1; fill:none" points="255.035,1486.45 255.035,1467.55 "/>
<polyline clip-path="url(#clip810)" style="stroke:#000000; stroke-linecap:round; stroke-linejoin:round; stroke-width:4; stroke-opacity:1; fill:none" points="579.173,1486.45 579.173,1467.55 "/>
<polyline clip-path="url(#clip810)" style="stroke:#000000; stroke-linecap:round; stroke-linejoin:round; stroke-width:4; stroke-opacity:1; fill:none" points="903.312,1486.45 903.312,1467.55 "/>
<polyline clip-path="url(#clip810)" style="stroke:#000000; stroke-linecap:round; stroke-linejoin:round; stroke-width:4; stroke-opacity:1; fill:none" points="1227.45,1486.45 1227.45,1467.55 "/>
<polyline clip-path="url(#clip810)" style="stroke:#000000; stroke-linecap:round; stroke-linejoin:round; stroke-width:4; stroke-opacity:1; fill:none" points="1551.59,1486.45 1551.59,1467.55 "/>
<polyline clip-path="url(#clip810)" style="stroke:#000000; stroke-linecap:round; stroke-linejoin:round; stroke-width:4; stroke-opacity:1; fill:none" points="1875.73,1486.45 1875.73,1467.55 "/>
<polyline clip-path="url(#clip810)" style="stroke:#000000; stroke-linecap:round; stroke-linejoin:round; stroke-width:4; stroke-opacity:1; fill:none" points="2199.87,1486.45 2199.87,1467.55 "/>
<path clip-path="url(#clip810)" d="M255.035 1517.37 Q251.424 1517.37 249.595 1520.93 Q247.789 1524.47 247.789 1531.6 Q247.789 1538.71 249.595 1542.27 Q251.424 1545.82 255.035 1545.82 Q258.669 1545.82 260.474 1542.27 Q262.303 1538.71 262.303 1531.6 Q262.303 1524.47 260.474 1520.93 Q258.669 1517.37 255.035 1517.37 M255.035 1513.66 Q260.845 1513.66 263.9 1518.27 Q266.979 1522.85 266.979 1531.6 Q266.979 1540.33 263.9 1544.94 Q260.845 1549.52 255.035 1549.52 Q249.225 1549.52 246.146 1544.94 Q243.09 1540.33 243.09 1531.6 Q243.09 1522.85 246.146 1518.27 Q249.225 1513.66 255.035 1513.66 Z" fill="#000000" fill-rule="nonzero" fill-opacity="1" /><path clip-path="url(#clip810)" d="M569.555 1544.91 L577.194 1544.91 L577.194 1518.55 L568.884 1520.21 L568.884 1515.95 L577.148 1514.29 L581.824 1514.29 L581.824 1544.91 L589.463 1544.91 L589.463 1548.85 L569.555 1548.85 L569.555 1544.91 Z" fill="#000000" fill-rule="nonzero" fill-opacity="1" /><path clip-path="url(#clip810)" d="M897.965 1544.91 L914.284 1544.91 L914.284 1548.85 L892.34 1548.85 L892.34 1544.91 Q895.002 1542.16 899.585 1537.53 Q904.191 1532.88 905.372 1531.53 Q907.617 1529.01 908.497 1527.27 Q909.4 1525.51 909.4 1523.82 Q909.4 1521.07 907.455 1519.33 Q905.534 1517.6 902.432 1517.6 Q900.233 1517.6 897.779 1518.36 Q895.349 1519.13 892.571 1520.68 L892.571 1515.95 Q895.395 1514.82 897.849 1514.24 Q900.303 1513.66 902.34 1513.66 Q907.71 1513.66 910.904 1516.35 Q914.099 1519.03 914.099 1523.52 Q914.099 1525.65 913.289 1527.57 Q912.502 1529.47 910.395 1532.07 Q909.816 1532.74 906.715 1535.95 Q903.613 1539.15 897.965 1544.91 Z" fill="#000000" fill-rule="nonzero" fill-opacity="1" /><path clip-path="url(#clip810)" d="M1231.7 1530.21 Q1235.05 1530.93 1236.93 1533.2 Q1238.83 1535.47 1238.83 1538.8 Q1238.83 1543.92 1235.31 1546.72 Q1231.79 1549.52 1225.31 1549.52 Q1223.13 1549.52 1220.82 1549.08 Q1218.53 1548.66 1216.07 1547.81 L1216.07 1543.29 Q1218.02 1544.43 1220.33 1545.01 Q1222.65 1545.58 1225.17 1545.58 Q1229.57 1545.58 1231.86 1543.85 Q1234.17 1542.11 1234.17 1538.8 Q1234.17 1535.75 1232.02 1534.03 Q1229.89 1532.3 1226.07 1532.3 L1222.05 1532.3 L1222.05 1528.45 L1226.26 1528.45 Q1229.71 1528.45 1231.54 1527.09 Q1233.36 1525.7 1233.36 1523.11 Q1233.36 1520.45 1231.47 1519.03 Q1229.59 1517.6 1226.07 1517.6 Q1224.15 1517.6 1221.95 1518.01 Q1219.75 1518.43 1217.11 1519.31 L1217.11 1515.14 Q1219.78 1514.4 1222.09 1514.03 Q1224.43 1513.66 1226.49 1513.66 Q1231.81 1513.66 1234.92 1516.09 Q1238.02 1518.5 1238.02 1522.62 Q1238.02 1525.49 1236.37 1527.48 Q1234.73 1529.45 1231.7 1530.21 Z" fill="#000000" fill-rule="nonzero" fill-opacity="1" /><path clip-path="url(#clip810)" d="M1554.6 1518.36 L1542.79 1536.81 L1554.6 1536.81 L1554.6 1518.36 M1553.37 1514.29 L1559.25 1514.29 L1559.25 1536.81 L1564.18 1536.81 L1564.18 1540.7 L1559.25 1540.7 L1559.25 1548.85 L1554.6 1548.85 L1554.6 1540.7 L1539 1540.7 L1539 1536.19 L1553.37 1514.29 Z" fill="#000000" fill-rule="nonzero" fill-opacity="1" /><path clip-path="url(#clip810)" d="M1866.01 1514.29 L1884.36 1514.29 L1884.36 1518.22 L1870.29 1518.22 L1870.29 1526.7 Q1871.31 1526.35 1872.32 1526.19 Q1873.34 1526 1874.36 1526 Q1880.15 1526 1883.53 1529.17 Q1886.91 1532.34 1886.91 1537.76 Q1886.91 1543.34 1883.44 1546.44 Q1879.96 1549.52 1873.64 1549.52 Q1871.47 1549.52 1869.2 1549.15 Q1866.95 1548.78 1864.55 1548.04 L1864.55 1543.34 Q1866.63 1544.47 1868.85 1545.03 Q1871.07 1545.58 1873.55 1545.58 Q1877.56 1545.58 1879.89 1543.48 Q1882.23 1541.37 1882.23 1537.76 Q1882.23 1534.15 1879.89 1532.04 Q1877.56 1529.94 1873.55 1529.94 Q1871.68 1529.94 1869.8 1530.35 Q1867.95 1530.77 1866.01 1531.65 L1866.01 1514.29 Z" fill="#000000" fill-rule="nonzero" fill-opacity="1" /><path clip-path="url(#clip810)" d="M2200.27 1529.7 Q2197.12 1529.7 2195.27 1531.86 Q2193.44 1534.01 2193.44 1537.76 Q2193.44 1541.49 2195.27 1543.66 Q2197.12 1545.82 2200.27 1545.82 Q2203.42 1545.82 2205.25 1543.66 Q2207.1 1541.49 2207.1 1537.76 Q2207.1 1534.01 2205.25 1531.86 Q2203.42 1529.7 2200.27 1529.7 M2209.55 1515.05 L2209.55 1519.31 Q2207.79 1518.48 2205.99 1518.04 Q2204.21 1517.6 2202.45 1517.6 Q2197.82 1517.6 2195.36 1520.72 Q2192.93 1523.85 2192.59 1530.17 Q2193.95 1528.15 2196.01 1527.09 Q2198.07 1526 2200.55 1526 Q2205.76 1526 2208.77 1529.17 Q2211.8 1532.32 2211.8 1537.76 Q2211.8 1543.08 2208.65 1546.3 Q2205.5 1549.52 2200.27 1549.52 Q2194.28 1549.52 2191.1 1544.94 Q2187.93 1540.33 2187.93 1531.6 Q2187.93 1523.41 2191.82 1518.55 Q2195.71 1513.66 2202.26 1513.66 Q2204.02 1513.66 2205.8 1514.01 Q2207.61 1514.36 2209.55 1515.05 Z" fill="#000000" fill-rule="nonzero" fill-opacity="1" /><polyline clip-path="url(#clip810)" style="stroke:#000000; stroke-linecap:round; stroke-linejoin:round; stroke-width:4; stroke-opacity:1; fill:none" points="193.936,1486.45 193.936,47.2441 "/>
<polyline clip-path="url(#clip810)" style="stroke:#000000; stroke-linecap:round; stroke-linejoin:round; stroke-width:4; stroke-opacity:1; fill:none" points="193.936,1257.84 212.834,1257.84 "/>
<polyline clip-path="url(#clip810)" style="stroke:#000000; stroke-linecap:round; stroke-linejoin:round; stroke-width:4; stroke-opacity:1; fill:none" points="193.936,1005.05 212.834,1005.05 "/>
<polyline clip-path="url(#clip810)" style="stroke:#000000; stroke-linecap:round; stroke-linejoin:round; stroke-width:4; stroke-opacity:1; fill:none" points="193.936,752.257 212.834,752.257 "/>
<polyline clip-path="url(#clip810)" style="stroke:#000000; stroke-linecap:round; stroke-linejoin:round; stroke-width:4; stroke-opacity:1; fill:none" points="193.936,499.465 212.834,499.465 "/>
<polyline clip-path="url(#clip810)" style="stroke:#000000; stroke-linecap:round; stroke-linejoin:round; stroke-width:4; stroke-opacity:1; fill:none" points="193.936,246.673 212.834,246.673 "/>
<path clip-path="url(#clip810)" d="M50.9921 1258.29 L80.6679 1258.29 L80.6679 1262.23 L50.9921 1262.23 L50.9921 1258.29 Z" fill="#000000" fill-rule="nonzero" fill-opacity="1" /><path clip-path="url(#clip810)" d="M91.5706 1271.19 L99.2095 1271.19 L99.2095 1244.82 L90.8993 1246.49 L90.8993 1242.23 L99.1632 1240.56 L103.839 1240.56 L103.839 1271.19 L111.478 1271.19 L111.478 1275.12 L91.5706 1275.12 L91.5706 1271.19 Z" fill="#000000" fill-rule="nonzero" fill-opacity="1" /><path clip-path="url(#clip810)" d="M120.922 1269.24 L125.807 1269.24 L125.807 1275.12 L120.922 1275.12 L120.922 1269.24 Z" fill="#000000" fill-rule="nonzero" fill-opacity="1" /><path clip-path="url(#clip810)" d="M145.992 1243.64 Q142.381 1243.64 140.552 1247.2 Q138.746 1250.75 138.746 1257.87 Q138.746 1264.98 140.552 1268.55 Q142.381 1272.09 145.992 1272.09 Q149.626 1272.09 151.431 1268.55 Q153.26 1264.98 153.26 1257.87 Q153.26 1250.75 151.431 1247.2 Q149.626 1243.64 145.992 1243.64 M145.992 1239.94 Q151.802 1239.94 154.857 1244.54 Q157.936 1249.12 157.936 1257.87 Q157.936 1266.6 154.857 1271.21 Q151.802 1275.79 145.992 1275.79 Q140.181 1275.79 137.103 1271.21 Q134.047 1266.6 134.047 1257.87 Q134.047 1249.12 137.103 1244.54 Q140.181 1239.94 145.992 1239.94 Z" fill="#000000" fill-rule="nonzero" fill-opacity="1" /><path clip-path="url(#clip810)" d="M51.9875 1005.5 L81.6633 1005.5 L81.6633 1009.43 L51.9875 1009.43 L51.9875 1005.5 Z" fill="#000000" fill-rule="nonzero" fill-opacity="1" /><path clip-path="url(#clip810)" d="M101.756 990.847 Q98.1447 990.847 96.316 994.412 Q94.5104 997.954 94.5104 1005.08 Q94.5104 1012.19 96.316 1015.75 Q98.1447 1019.3 101.756 1019.3 Q105.39 1019.3 107.196 1015.75 Q109.024 1012.19 109.024 1005.08 Q109.024 997.954 107.196 994.412 Q105.39 990.847 101.756 990.847 M101.756 987.143 Q107.566 987.143 110.621 991.75 Q113.7 996.333 113.7 1005.08 Q113.7 1013.81 110.621 1018.42 Q107.566 1023 101.756 1023 Q95.9456 1023 92.8669 1018.42 Q89.8114 1013.81 89.8114 1005.08 Q89.8114 996.333 92.8669 991.75 Q95.9456 987.143 101.756 987.143 Z" fill="#000000" fill-rule="nonzero" fill-opacity="1" /><path clip-path="url(#clip810)" d="M121.918 1016.45 L126.802 1016.45 L126.802 1022.33 L121.918 1022.33 L121.918 1016.45 Z" fill="#000000" fill-rule="nonzero" fill-opacity="1" /><path clip-path="url(#clip810)" d="M137.033 987.768 L155.39 987.768 L155.39 991.704 L141.316 991.704 L141.316 1000.18 Q142.334 999.829 143.353 999.667 Q144.371 999.481 145.39 999.481 Q151.177 999.481 154.556 1002.65 Q157.936 1005.82 157.936 1011.24 Q157.936 1016.82 154.464 1019.92 Q150.992 1023 144.672 1023 Q142.496 1023 140.228 1022.63 Q137.982 1022.26 135.575 1021.52 L135.575 1016.82 Q137.658 1017.95 139.881 1018.51 Q142.103 1019.06 144.58 1019.06 Q148.584 1019.06 150.922 1016.96 Q153.26 1014.85 153.26 1011.24 Q153.26 1007.63 150.922 1005.52 Q148.584 1003.42 144.58 1003.42 Q142.705 1003.42 140.83 1003.83 Q138.978 1004.25 137.033 1005.13 L137.033 987.768 Z" fill="#000000" fill-rule="nonzero" fill-opacity="1" /><path clip-path="url(#clip810)" d="M100.76 738.055 Q97.1493 738.055 95.3206 741.62 Q93.515 745.162 93.515 752.291 Q93.515 759.398 95.3206 762.963 Q97.1493 766.504 100.76 766.504 Q104.395 766.504 106.2 762.963 Q108.029 759.398 108.029 752.291 Q108.029 745.162 106.2 741.62 Q104.395 738.055 100.76 738.055 M100.76 734.352 Q106.571 734.352 109.626 738.958 Q112.705 743.541 112.705 752.291 Q112.705 761.018 109.626 765.625 Q106.571 770.208 100.76 770.208 Q94.9502 770.208 91.8715 765.625 Q88.816 761.018 88.816 752.291 Q88.816 743.541 91.8715 738.958 Q94.9502 734.352 100.76 734.352 Z" fill="#000000" fill-rule="nonzero" fill-opacity="1" /><path clip-path="url(#clip810)" d="M120.922 763.657 L125.807 763.657 L125.807 769.537 L120.922 769.537 L120.922 763.657 Z" fill="#000000" fill-rule="nonzero" fill-opacity="1" /><path clip-path="url(#clip810)" d="M145.992 738.055 Q142.381 738.055 140.552 741.62 Q138.746 745.162 138.746 752.291 Q138.746 759.398 140.552 762.963 Q142.381 766.504 145.992 766.504 Q149.626 766.504 151.431 762.963 Q153.26 759.398 153.26 752.291 Q153.26 745.162 151.431 741.62 Q149.626 738.055 145.992 738.055 M145.992 734.352 Q151.802 734.352 154.857 738.958 Q157.936 743.541 157.936 752.291 Q157.936 761.018 154.857 765.625 Q151.802 770.208 145.992 770.208 Q140.181 770.208 137.103 765.625 Q134.047 761.018 134.047 752.291 Q134.047 743.541 137.103 738.958 Q140.181 734.352 145.992 734.352 Z" fill="#000000" fill-rule="nonzero" fill-opacity="1" /><path clip-path="url(#clip810)" d="M101.756 485.264 Q98.1447 485.264 96.316 488.828 Q94.5104 492.37 94.5104 499.5 Q94.5104 506.606 96.316 510.171 Q98.1447 513.713 101.756 513.713 Q105.39 513.713 107.196 510.171 Q109.024 506.606 109.024 499.5 Q109.024 492.37 107.196 488.828 Q105.39 485.264 101.756 485.264 M101.756 481.56 Q107.566 481.56 110.621 486.166 Q113.7 490.75 113.7 499.5 Q113.7 508.227 110.621 512.833 Q107.566 517.416 101.756 517.416 Q95.9456 517.416 92.8669 512.833 Q89.8114 508.227 89.8114 499.5 Q89.8114 490.75 92.8669 486.166 Q95.9456 481.56 101.756 481.56 Z" fill="#000000" fill-rule="nonzero" fill-opacity="1" /><path clip-path="url(#clip810)" d="M121.918 510.865 L126.802 510.865 L126.802 516.745 L121.918 516.745 L121.918 510.865 Z" fill="#000000" fill-rule="nonzero" fill-opacity="1" /><path clip-path="url(#clip810)" d="M137.033 482.185 L155.39 482.185 L155.39 486.12 L141.316 486.12 L141.316 494.592 Q142.334 494.245 143.353 494.083 Q144.371 493.898 145.39 493.898 Q151.177 493.898 154.556 497.069 Q157.936 500.24 157.936 505.657 Q157.936 511.236 154.464 514.338 Q150.992 517.416 144.672 517.416 Q142.496 517.416 140.228 517.046 Q137.982 516.676 135.575 515.935 L135.575 511.236 Q137.658 512.37 139.881 512.926 Q142.103 513.481 144.58 513.481 Q148.584 513.481 150.922 511.375 Q153.26 509.268 153.26 505.657 Q153.26 502.046 150.922 499.94 Q148.584 497.833 144.58 497.833 Q142.705 497.833 140.83 498.25 Q138.978 498.666 137.033 499.546 L137.033 482.185 Z" fill="#000000" fill-rule="nonzero" fill-opacity="1" /><path clip-path="url(#clip810)" d="M91.5706 260.018 L99.2095 260.018 L99.2095 233.652 L90.8993 235.319 L90.8993 231.06 L99.1632 229.393 L103.839 229.393 L103.839 260.018 L111.478 260.018 L111.478 263.953 L91.5706 263.953 L91.5706 260.018 Z" fill="#000000" fill-rule="nonzero" fill-opacity="1" /><path clip-path="url(#clip810)" d="M120.922 258.074 L125.807 258.074 L125.807 263.953 L120.922 263.953 L120.922 258.074 Z" fill="#000000" fill-rule="nonzero" fill-opacity="1" /><path clip-path="url(#clip810)" d="M145.992 232.472 Q142.381 232.472 140.552 236.037 Q138.746 239.578 138.746 246.708 Q138.746 253.814 140.552 257.379 Q142.381 260.921 145.992 260.921 Q149.626 260.921 151.431 257.379 Q153.26 253.814 153.26 246.708 Q153.26 239.578 151.431 236.037 Q149.626 232.472 145.992 232.472 M145.992 228.768 Q151.802 228.768 154.857 233.375 Q157.936 237.958 157.936 246.708 Q157.936 255.435 154.857 260.041 Q151.802 264.625 145.992 264.625 Q140.181 264.625 137.103 260.041 Q134.047 255.435 134.047 246.708 Q134.047 237.958 137.103 233.375 Q140.181 228.768 145.992 228.768 Z" fill="#000000" fill-rule="nonzero" fill-opacity="1" /><polyline clip-path="url(#clip812)" style="stroke:#009af9; stroke-linecap:round; stroke-linejoin:round; stroke-width:4; stroke-opacity:1; fill:none" points="255.035,752.257 258.276,747.201 261.517,742.146 264.759,737.091 268,732.039 271.242,726.988 274.483,721.94 277.724,716.895 280.966,711.853 284.207,706.816 287.449,701.783 290.69,696.755 293.931,691.732 297.173,686.716 300.414,681.706 303.655,676.703 306.897,671.708 310.138,666.721 313.38,661.742 316.621,656.773 319.862,651.813 323.104,646.863 326.345,641.923 329.587,636.995 332.828,632.078 336.069,627.173 339.311,622.281 342.552,617.402 345.793,612.536 349.035,607.684 352.276,602.847 355.518,598.024 358.759,593.217 362,588.426 365.242,583.651 368.483,578.893 371.725,574.153 374.966,569.43 378.207,564.725 381.449,560.04 384.69,555.373 387.931,550.726 391.173,546.1 394.414,541.494 397.656,536.909 400.897,532.345 404.138,527.804 407.38,523.285 410.621,518.789 413.863,514.316 417.104,509.867 420.345,505.442 423.587,501.042 426.828,496.667 430.069,492.318 433.311,487.995 436.552,483.698 439.794,479.428 443.035,475.185 446.276,470.97 449.518,466.783 452.759,462.624 456.001,458.495 459.242,454.395 462.483,450.325 465.725,446.284 468.966,442.275 472.208,438.296 475.449,434.349 478.69,430.434 481.932,426.551 485.173,422.7 488.414,418.883 491.656,415.098 494.897,411.348 498.139,407.631 501.38,403.949 504.621,400.302 507.863,396.69 511.104,393.114 514.346,389.573 517.587,386.069 520.828,382.601 524.07,379.171 527.311,375.777 530.552,372.422 533.794,369.104 537.035,365.825 540.277,362.584 543.518,359.382 546.759,356.22 550.001,353.097 553.242,350.014 556.484,346.971 559.725,343.969 562.966,341.007 566.208,338.087 569.449,335.208 572.69,332.371 575.932,329.576 579.173,326.823 582.415,324.113 585.656,321.445 588.897,318.821 592.139,316.239 595.38,313.702 598.622,311.208 601.863,308.759 605.104,306.353 608.346,303.993 611.587,301.677 614.828,299.406 618.07,297.181 621.311,295.001 624.553,292.867 627.794,290.778 631.035,288.736 634.277,286.74 637.518,284.791 640.76,282.889 644.001,281.033 647.242,279.225 650.484,277.464 653.725,275.75 656.966,274.084 660.208,272.466 663.449,270.896 666.691,269.374 669.932,267.9 673.173,266.474 676.415,265.098 679.656,263.77 682.898,262.49 686.139,261.26 689.38,260.079 692.622,258.947 695.863,257.865 699.104,256.831 702.346,255.848 705.587,254.914 708.829,254.03 712.07,253.195 715.311,252.411 718.553,251.676 721.794,250.992 725.036,250.357 728.277,249.773 731.518,249.239 734.76,248.756 738.001,248.323 741.242,247.94 744.484,247.607 747.725,247.325 750.967,247.094 754.208,246.913 757.449,246.783 760.691,246.703 763.932,246.673 767.174,246.695 770.415,246.766 773.656,246.889 776.898,247.062 780.139,247.285 783.381,247.559 786.622,247.883 789.863,248.258 793.105,248.683 796.346,249.159 799.587,249.685 802.829,250.261 806.07,250.887 809.312,251.564 812.553,252.29 815.794,253.067 819.036,253.893 822.277,254.77 825.519,255.696 828.76,256.671 832.001,257.697 835.243,258.771 838.484,259.895 841.725,261.069 844.967,262.291 848.208,263.563 851.45,264.883 854.691,266.252 857.932,267.669 861.174,269.136 864.415,270.65 867.657,272.212 870.898,273.823 874.139,275.481 877.381,277.188 880.622,278.941 883.863,280.742 887.105,282.59 890.346,284.485 893.588,286.427 896.829,288.415 900.07,290.45 903.312,292.531 906.553,294.658 909.795,296.831 913.036,299.049 916.277,301.312 919.519,303.621 922.76,305.974 926.001,308.373 929.243,310.815 932.484,313.302 935.726,315.832 938.967,318.407 942.208,321.024 945.45,323.685 948.691,326.388 951.933,329.135 955.174,331.923 958.415,334.753 961.657,337.626 964.898,340.539 968.139,343.494 971.381,346.49 974.622,349.526 977.864,352.603 981.105,355.72 984.346,358.876 987.588,362.071 990.829,365.306 994.071,368.579 997.312,371.891 1000.55,375.24 1003.79,378.628 1007.04,382.053 1010.28,385.514 1013.52,389.013 1016.76,392.548 1020,396.118 1023.24,399.725 1026.48,403.366 1029.73,407.043 1032.97,410.754 1036.21,414.499 1039.45,418.278 1042.69,422.09 1045.93,425.935 1049.17,429.813 1052.42,433.724 1055.66,437.666 1058.9,441.639 1062.14,445.644 1065.38,449.679 1068.62,453.745 1071.86,457.84 1075.11,461.965 1078.35,466.119 1081.59,470.301 1084.83,474.512 1088.07,478.75 1091.31,483.016 1094.55,487.309 1097.79,491.628 1101.04,495.973 1104.28,500.344 1107.52,504.74 1110.76,509.161 1114,513.606 1117.24,518.075 1120.48,522.567 1123.73,527.083 1126.97,531.621 1130.21,536.181 1133.45,540.762 1136.69,545.365 1139.93,549.988 1143.17,554.632 1146.42,559.295 1149.66,563.978 1152.9,568.679 1156.14,573.399 1159.38,578.137 1162.62,582.892 1165.86,587.664 1169.11,592.453 1172.35,597.257 1175.59,602.078 1178.83,606.913 1182.07,611.762 1185.31,616.626 1188.55,621.503 1191.8,626.393 1195.04,631.296 1198.28,636.211 1201.52,641.138 1204.76,646.075 1208,651.024 1211.24,655.982 1214.48,660.95 1217.73,665.927 1220.97,670.913 1224.21,675.907 1227.45,680.909 1230.69,685.917 1233.93,690.933 1237.17,695.954 1240.42,700.981 1243.66,706.014 1246.9,711.051 1250.14,716.092 1253.38,721.136 1256.62,726.184 1259.86,731.234 1263.11,736.287 1266.35,741.341 1269.59,746.396 1272.83,751.451 1276.07,756.507 1279.31,761.563 1282.55,766.617 1285.8,771.67 1289.04,776.721 1292.28,781.77 1295.52,786.815 1298.76,791.858 1302,796.896 1305.24,801.93 1308.48,806.958 1311.73,811.982 1314.97,816.999 1318.21,822.01 1321.45,827.014 1324.69,832.01 1327.93,836.999 1331.17,841.979 1334.42,846.95 1337.66,851.911 1340.9,856.863 1344.14,861.804 1347.38,866.734 1350.62,871.653 1353.86,876.56 1357.11,881.454 1360.35,886.335 1363.59,891.204 1366.83,896.058 1370.07,900.897 1373.31,905.722 1376.55,910.532 1379.8,915.326 1383.04,920.103 1386.28,924.864 1389.52,929.607 1392.76,934.333 1396,939.04 1399.24,943.729 1402.49,948.398 1405.73,953.048 1408.97,957.678 1412.21,962.288 1415.45,966.876 1418.69,971.443 1421.93,975.988 1425.17,980.51 1428.42,985.01 1431.66,989.487 1434.9,993.939 1438.14,998.368 1441.38,1002.77 1444.62,1007.15 1447.86,1011.5 1451.11,1015.83 1454.35,1020.13 1457.59,1024.41 1460.83,1028.65 1464.07,1032.87 1467.31,1037.07 1470.55,1041.23 1473.8,1045.36 1477.04,1049.47 1480.28,1053.54 1483.52,1057.59 1486.76,1061.6 1490,1065.59 1493.24,1069.54 1496.49,1073.46 1499.73,1077.35 1502.97,1081.2 1506.21,1085.02 1509.45,1088.81 1512.69,1092.57 1515.93,1096.29 1519.18,1099.98 1522.42,1103.63 1525.66,1107.25 1528.9,1110.83 1532.14,1114.38 1535.38,1117.89 1538.62,1121.36 1541.86,1124.8 1545.11,1128.2 1548.35,1131.56 1551.59,1134.88 1554.83,1138.17 1558.07,1141.42 1561.31,1144.62 1564.55,1147.79 1567.8,1150.92 1571.04,1154.01 1574.28,1157.06 1577.52,1160.07 1580.76,1163.04 1584,1165.96 1587.24,1168.85 1590.49,1171.69 1593.73,1174.5 1596.97,1177.25 1600.21,1179.97 1603.45,1182.65 1606.69,1185.28 1609.93,1187.87 1613.18,1190.41 1616.42,1192.91 1619.66,1195.37 1622.9,1197.78 1626.14,1200.15 1629.38,1202.47 1632.62,1204.75 1635.86,1206.98 1639.11,1209.17 1642.35,1211.31 1645.59,1213.41 1648.83,1215.46 1652.07,1217.46 1655.31,1219.41 1658.55,1221.32 1661.8,1223.19 1665.04,1225 1668.28,1226.77 1671.52,1228.49 1674.76,1230.17 1678,1231.79 1681.24,1233.37 1684.49,1234.9 1687.73,1236.38 1690.97,1237.82 1694.21,1239.2 1697.45,1240.54 1700.69,1241.82 1703.93,1243.06 1707.18,1244.25 1710.42,1245.39 1713.66,1246.48 1716.9,1247.52 1720.14,1248.51 1723.38,1249.45 1726.62,1250.35 1729.87,1251.19 1733.11,1251.98 1736.35,1252.72 1739.59,1253.42 1742.83,1254.06 1746.07,1254.65 1749.31,1255.19 1752.55,1255.68 1755.8,1256.13 1759.04,1256.52 1762.28,1256.86 1765.52,1257.15 1768.76,1257.39 1772,1257.58 1775.24,1257.71 1778.49,1257.8 1781.73,1257.84 1784.97,1257.83 1788.21,1257.76 1791.45,1257.65 1794.69,1257.48 1797.93,1257.27 1801.18,1257 1804.42,1256.69 1807.66,1256.32 1810.9,1255.9 1814.14,1255.43 1817.38,1254.92 1820.62,1254.35 1823.87,1253.73 1827.11,1253.06 1830.35,1252.34 1833.59,1251.57 1836.83,1250.75 1840.07,1249.89 1843.31,1248.97 1846.55,1248 1849.8,1246.98 1853.04,1245.92 1856.28,1244.8 1859.52,1243.63 1862.76,1242.42 1866,1241.16 1869.24,1239.84 1872.49,1238.48 1875.73,1237.07 1878.97,1235.61 1882.21,1234.11 1885.45,1232.55 1888.69,1230.95 1891.93,1229.3 1895.18,1227.6 1898.42,1225.85 1901.66,1224.06 1904.9,1222.22 1908.14,1220.33 1911.38,1218.4 1914.62,1216.42 1917.87,1214.39 1921.11,1212.32 1924.35,1210.2 1927.59,1208.03 1930.83,1205.82 1934.07,1203.56 1937.31,1201.26 1940.56,1198.92 1943.8,1196.53 1947.04,1194.09 1950.28,1191.61 1953.52,1189.09 1956.76,1186.52 1960,1183.91 1963.24,1181.26 1966.49,1178.56 1969.73,1175.82 1972.97,1173.04 1976.21,1170.21 1979.45,1167.35 1982.69,1164.44 1985.93,1161.49 1989.18,1158.5 1992.42,1155.47 1995.66,1152.4 1998.9,1149.29 2002.14,1146.14 2005.38,1142.95 2008.62,1139.73 2011.87,1136.46 2015.11,1133.15 2018.35,1129.81 2021.59,1126.43 2024.83,1123.01 2028.07,1119.55 2031.31,1116.06 2034.56,1112.53 2037.8,1108.97 2041.04,1105.37 2044.28,1101.73 2047.52,1098.06 2050.76,1094.35 2054,1090.61 2057.24,1086.84 2060.49,1083.03 2063.73,1079.19 2066.97,1075.32 2070.21,1071.41 2073.45,1067.48 2076.69,1063.51 2079.93,1059.51 2083.18,1055.48 2086.42,1051.42 2089.66,1047.33 2092.9,1043.21 2096.14,1039.06 2099.38,1034.88 2102.62,1030.67 2105.87,1026.44 2109.11,1022.18 2112.35,1017.89 2115.59,1013.58 2118.83,1009.23 2122.07,1004.87 2125.31,1000.48 2128.56,996.058 2131.8,991.617 2135.04,987.152 2138.28,982.663 2141.52,978.151 2144.76,973.617 2148,969.061 2151.25,964.482 2154.49,959.883 2157.73,955.263 2160.97,950.622 2164.21,945.962 2167.45,941.283 2170.69,936.584 2173.93,931.867 2177.18,927.132 2180.42,922.38 2183.66,917.61 2186.9,912.824 2190.14,908.022 2193.38,903.205 2196.62,898.372 2199.87,893.525 2203.11,888.663 2206.35,883.788 2209.59,878.9 2212.83,873.999 2216.07,869.086 2219.31,864.161 2222.56,859.225 2225.8,854.278 2229.04,849.322 2232.28,844.355 2235.52,839.379 2238.76,834.395 2242,829.402 2245.25,824.402 2248.49,819.394 2251.73,814.38 2254.97,809.359 2258.21,804.333 2261.45,799.302 2264.69,794.265 2267.94,789.225 2271.18,784.181 2274.42,779.134 2277.66,774.084 2280.9,769.032 2284.14,763.978 2287.38,758.923 2290.62,753.867 "/>
<circle clip-path="url(#clip812)" cx="381.449" cy="588.739" r="14.4" fill="#e26f46" fill-rule="evenodd" fill-opacity="1" stroke="#000000" stroke-opacity="1" stroke-width="3.2"/>
<circle clip-path="url(#clip812)" cx="981.105" cy="421.856" r="14.4" fill="#e26f46" fill-rule="evenodd" fill-opacity="1" stroke="#000000" stroke-opacity="1" stroke-width="3.2"/>
<circle clip-path="url(#clip812)" cx="1211.24" cy="712.822" r="14.4" fill="#e26f46" fill-rule="evenodd" fill-opacity="1" stroke="#000000" stroke-opacity="1" stroke-width="3.2"/>
<circle clip-path="url(#clip812)" cx="682.898" cy="175.243" r="14.4" fill="#e26f46" fill-rule="evenodd" fill-opacity="1" stroke="#000000" stroke-opacity="1" stroke-width="3.2"/>
<circle clip-path="url(#clip812)" cx="1820.62" cy="1320.23" r="14.4" fill="#e26f46" fill-rule="evenodd" fill-opacity="1" stroke="#000000" stroke-opacity="1" stroke-width="3.2"/>
<circle clip-path="url(#clip812)" cx="1898.42" cy="1322.34" r="14.4" fill="#e26f46" fill-rule="evenodd" fill-opacity="1" stroke="#000000" stroke-opacity="1" stroke-width="3.2"/>
<circle clip-path="url(#clip812)" cx="2018.35" cy="1069.14" r="14.4" fill="#e26f46" fill-rule="evenodd" fill-opacity="1" stroke="#000000" stroke-opacity="1" stroke-width="3.2"/>
<circle clip-path="url(#clip812)" cx="2028.07" cy="1221.09" r="14.4" fill="#e26f46" fill-rule="evenodd" fill-opacity="1" stroke="#000000" stroke-opacity="1" stroke-width="3.2"/>
<circle clip-path="url(#clip812)" cx="1250.14" cy="717.952" r="14.4" fill="#e26f46" fill-rule="evenodd" fill-opacity="1" stroke="#000000" stroke-opacity="1" stroke-width="3.2"/>
<circle clip-path="url(#clip812)" cx="964.898" cy="215.172" r="14.4" fill="#e26f46" fill-rule="evenodd" fill-opacity="1" stroke="#000000" stroke-opacity="1" stroke-width="3.2"/>
<circle clip-path="url(#clip812)" cx="488.414" cy="451.803" r="14.4" fill="#e26f46" fill-rule="evenodd" fill-opacity="1" stroke="#000000" stroke-opacity="1" stroke-width="3.2"/>
<circle clip-path="url(#clip812)" cx="1609.93" cy="1248.46" r="14.4" fill="#e26f46" fill-rule="evenodd" fill-opacity="1" stroke="#000000" stroke-opacity="1" stroke-width="3.2"/>
<circle clip-path="url(#clip812)" cx="815.794" cy="369.115" r="14.4" fill="#e26f46" fill-rule="evenodd" fill-opacity="1" stroke="#000000" stroke-opacity="1" stroke-width="3.2"/>
<circle clip-path="url(#clip812)" cx="1966.49" cy="1252.41" r="14.4" fill="#e26f46" fill-rule="evenodd" fill-opacity="1" stroke="#000000" stroke-opacity="1" stroke-width="3.2"/>
<circle clip-path="url(#clip812)" cx="1859.52" cy="1132.58" r="14.4" fill="#e26f46" fill-rule="evenodd" fill-opacity="1" stroke="#000000" stroke-opacity="1" stroke-width="3.2"/>
<circle clip-path="url(#clip812)" cx="1295.52" cy="856.571" r="14.4" fill="#e26f46" fill-rule="evenodd" fill-opacity="1" stroke="#000000" stroke-opacity="1" stroke-width="3.2"/>
<circle clip-path="url(#clip812)" cx="731.518" cy="156.567" r="14.4" fill="#e26f46" fill-rule="evenodd" fill-opacity="1" stroke="#000000" stroke-opacity="1" stroke-width="3.2"/>
<circle clip-path="url(#clip812)" cx="1097.79" cy="444.377" r="14.4" fill="#e26f46" fill-rule="evenodd" fill-opacity="1" stroke="#000000" stroke-opacity="1" stroke-width="3.2"/>
<circle clip-path="url(#clip812)" cx="1389.52" cy="983.753" r="14.4" fill="#e26f46" fill-rule="evenodd" fill-opacity="1" stroke="#000000" stroke-opacity="1" stroke-width="3.2"/>
<circle clip-path="url(#clip812)" cx="2031.31" cy="1073.46" r="14.4" fill="#e26f46" fill-rule="evenodd" fill-opacity="1" stroke="#000000" stroke-opacity="1" stroke-width="3.2"/>
<path clip-path="url(#clip812)" d="M255.035 990.454 L258.276 985.962 L261.517 981.419 L264.759 976.824 L268 972.178 L271.242 967.483 L274.483 962.738 L277.724 957.946 L280.966 953.108 L284.207 948.223 L287.449 943.295 L290.69 938.325 L293.931 933.314 L297.173 928.264 L300.414 923.177 L303.655 918.056 L306.897 912.902 L310.138 907.719 L313.38 902.509 L316.621 897.275 L319.862 892.02 L323.104 886.748 L326.345 881.462 L329.587 876.166 L332.828 870.865 L336.069 865.562 L339.311 860.262 L342.552 854.971 L345.793 849.692 L349.035 844.432 L352.276 839.197 L355.518 833.991 L358.759 828.822 L362 823.694 L365.242 818.616 L368.483 813.592 L371.725 808.631 L374.966 803.738 L378.207 798.92 L381.449 794.185 L384.69 789.536 L387.931 784.971 L391.173 780.487 L394.414 776.078 L397.656 771.739 L400.897 767.467 L404.138 763.258 L407.38 759.106 L410.621 755.008 L413.863 750.96 L417.104 746.959 L420.345 743 L423.587 739.082 L426.828 735.201 L430.069 731.355 L433.311 727.543 L436.552 723.762 L439.794 720.013 L443.035 716.293 L446.276 712.603 L449.518 708.943 L452.759 705.313 L456.001 701.715 L459.242 698.149 L462.483 694.618 L465.725 691.124 L468.966 687.668 L472.208 684.254 L475.449 680.885 L478.69 677.563 L481.932 674.292 L485.173 671.076 L488.414 667.917 L491.656 664.819 L494.897 661.774 L498.139 658.776 L501.38 655.816 L504.621 652.888 L507.863 649.985 L511.104 647.098 L514.346 644.223 L517.587 641.351 L520.828 638.478 L524.07 635.597 L527.311 632.704 L530.552 629.792 L533.794 626.858 L537.035 623.897 L540.277 620.904 L543.518 617.878 L546.759 614.813 L550.001 611.708 L553.242 608.56 L556.484 605.366 L559.725 602.126 L562.966 598.837 L566.208 595.498 L569.449 592.11 L572.69 588.67 L575.932 585.18 L579.173 581.64 L582.415 578.05 L585.656 574.411 L588.897 570.725 L592.139 566.993 L595.38 563.217 L598.622 559.4 L601.863 555.544 L605.104 551.653 L608.346 547.73 L611.587 543.778 L614.828 539.803 L618.07 535.808 L621.311 531.798 L624.553 527.779 L627.794 523.757 L631.035 519.737 L634.277 515.727 L637.518 511.734 L640.76 507.765 L644.001 503.827 L647.242 499.931 L650.484 496.084 L653.725 492.295 L656.966 488.576 L660.208 484.935 L663.449 481.384 L666.691 477.935 L669.932 474.598 L673.173 471.385 L676.415 468.311 L679.656 465.386 L682.898 462.624 L686.139 460.035 L689.38 457.622 L692.622 455.381 L695.863 453.313 L699.104 451.415 L702.346 449.689 L705.587 448.132 L708.829 446.745 L712.07 445.529 L715.311 444.483 L718.553 443.61 L721.794 442.91 L725.036 442.385 L728.277 442.037 L731.518 441.868 L734.76 441.878 L738.001 442.056 L741.242 442.392 L744.484 442.873 L747.725 443.488 L750.967 444.225 L754.208 445.076 L757.449 446.028 L760.691 447.074 L763.932 448.203 L767.174 449.409 L770.415 450.682 L773.656 452.017 L776.898 453.406 L780.139 454.844 L783.381 456.325 L786.622 457.844 L789.863 459.397 L793.105 460.981 L796.346 462.592 L799.587 464.226 L802.829 465.883 L806.07 467.56 L809.312 469.254 L812.553 470.966 L815.794 472.692 L819.036 474.433 L822.277 476.182 L825.519 477.932 L828.76 479.68 L832.001 481.417 L835.243 483.141 L838.484 484.844 L841.725 486.524 L844.967 488.175 L848.208 489.794 L851.45 491.377 L854.691 492.922 L857.932 494.426 L861.174 495.887 L864.415 497.302 L867.657 498.672 L870.898 499.995 L874.139 501.271 L877.381 502.501 L880.622 503.685 L883.863 504.824 L887.105 505.92 L890.346 506.975 L893.588 507.992 L896.829 508.974 L900.07 509.925 L903.312 510.85 L906.553 511.752 L909.795 512.638 L913.036 513.512 L916.277 514.383 L919.519 515.256 L922.76 516.139 L926.001 517.041 L929.243 517.97 L932.484 518.935 L935.726 519.947 L938.967 521.015 L942.208 522.15 L945.45 523.364 L948.691 524.669 L951.933 526.077 L955.174 527.6 L958.415 529.252 L961.657 531.045 L964.898 532.993 L968.139 535.106 L971.381 537.384 L974.622 539.823 L977.864 542.419 L981.105 545.169 L984.346 548.068 L987.588 551.107 L990.829 554.276 L994.071 557.564 L997.312 560.961 L1000.55 564.458 L1003.79 568.045 L1007.04 571.714 L1010.28 575.456 L1013.52 579.262 L1016.76 583.126 L1020 587.04 L1023.24 590.999 L1026.48 594.995 L1029.73 599.025 L1032.97 603.084 L1036.21 607.167 L1039.45 611.271 L1042.69 615.395 L1045.93 619.535 L1049.17 623.69 L1052.42 627.858 L1055.66 632.041 L1058.9 636.238 L1062.14 640.449 L1065.38 644.675 L1068.62 648.919 L1071.86 653.183 L1075.11 657.468 L1078.35 661.779 L1081.59 666.119 L1084.83 670.491 L1088.07 674.899 L1091.31 679.349 L1094.55 683.845 L1097.79 688.391 L1101.04 692.991 L1104.28 697.639 L1107.52 702.328 L1110.76 707.052 L1114 711.802 L1117.24 716.572 L1120.48 721.357 L1123.73 726.15 L1126.97 730.945 L1130.21 735.738 L1133.45 740.524 L1136.69 745.298 L1139.93 750.056 L1143.17 754.796 L1146.42 759.515 L1149.66 764.209 L1152.9 768.877 L1156.14 773.518 L1159.38 778.13 L1162.62 782.714 L1165.86 787.27 L1169.11 791.799 L1172.35 796.301 L1175.59 800.779 L1178.83 805.236 L1182.07 809.674 L1185.31 814.097 L1188.55 818.51 L1191.8 822.916 L1195.04 827.322 L1198.28 831.733 L1201.52 836.156 L1204.76 840.597 L1208 845.064 L1211.24 849.564 L1214.48 854.104 L1217.73 858.686 L1220.97 863.311 L1224.21 867.982 L1227.45 872.7 L1230.69 877.467 L1233.93 882.285 L1237.17 887.159 L1240.42 892.091 L1243.66 897.085 L1246.9 902.145 L1250.14 907.275 L1253.38 912.478 L1256.62 917.751 L1259.86 923.088 L1263.11 928.485 L1266.35 933.938 L1269.59 939.442 L1272.83 944.994 L1276.07 950.591 L1279.31 956.229 L1282.55 961.908 L1285.8 967.624 L1289.04 973.376 L1292.28 979.163 L1295.52 984.985 L1298.76 990.838 L1302 996.719 L1305.24 1002.62 L1308.48 1008.53 L1311.73 1014.45 L1314.97 1020.38 L1318.21 1026.3 L1321.45 1032.21 L1324.69 1038.11 L1327.93 1043.99 L1331.17 1049.86 L1334.42 1055.71 L1337.66 1061.53 L1340.9 1067.33 L1344.14 1073.11 L1347.38 1078.86 L1350.62 1084.59 L1353.86 1090.29 L1357.11 1095.97 L1360.35 1101.63 L1363.59 1107.27 L1366.83 1112.89 L1370.07 1118.5 L1373.31 1124.09 L1376.55 1129.68 L1379.8 1135.26 L1383.04 1140.83 L1386.28 1146.41 L1389.52 1151.99 L1392.76 1157.58 L1396 1163.17 L1399.24 1168.76 L1402.49 1174.33 L1405.73 1179.9 L1408.97 1185.44 L1412.21 1190.96 L1415.45 1196.45 L1418.69 1201.9 L1421.93 1207.32 L1425.17 1212.69 L1428.42 1218.01 L1431.66 1223.28 L1434.9 1228.5 L1438.14 1233.66 L1441.38 1238.75 L1444.62 1243.78 L1447.86 1248.74 L1451.11 1253.63 L1454.35 1258.44 L1457.59 1263.18 L1460.83 1267.84 L1464.07 1272.42 L1467.31 1276.92 L1470.55 1281.34 L1473.8 1285.67 L1477.04 1289.91 L1480.28 1294.07 L1483.52 1298.14 L1486.76 1302.13 L1490 1306.02 L1493.24 1309.83 L1496.49 1313.55 L1499.73 1317.18 L1502.97 1320.72 L1506.21 1324.17 L1509.45 1327.54 L1512.69 1330.82 L1515.93 1334.01 L1519.18 1337.12 L1522.42 1340.15 L1525.66 1343.1 L1528.9 1345.97 L1532.14 1348.76 L1535.38 1351.47 L1538.62 1354.11 L1541.86 1356.68 L1545.11 1359.18 L1548.35 1361.61 L1551.59 1363.98 L1554.83 1366.29 L1558.07 1368.55 L1561.31 1370.75 L1564.55 1372.9 L1567.8 1375.01 L1571.04 1377.08 L1574.28 1379.1 L1577.52 1381.1 L1580.76 1383.06 L1584 1385.01 L1587.24 1386.93 L1590.49 1388.84 L1593.73 1390.73 L1596.97 1392.62 L1600.21 1394.51 L1603.45 1396.4 L1606.69 1398.3 L1609.93 1400.22 L1613.18 1402.14 L1616.42 1404.08 L1619.66 1406.03 L1622.9 1407.97 L1626.14 1409.92 L1629.38 1411.85 L1632.62 1413.78 L1635.86 1415.69 L1639.11 1417.57 L1642.35 1419.43 L1645.59 1421.25 L1648.83 1423.04 L1652.07 1424.79 L1655.31 1426.49 L1658.55 1428.15 L1661.8 1429.75 L1665.04 1431.29 L1668.28 1432.77 L1671.52 1434.18 L1674.76 1435.52 L1678 1436.8 L1681.24 1437.99 L1684.49 1439.11 L1687.73 1440.15 L1690.97 1441.11 L1694.21 1441.98 L1697.45 1442.76 L1700.69 1443.46 L1703.93 1444.06 L1707.18 1444.58 L1710.42 1444.99 L1713.66 1445.32 L1716.9 1445.55 L1720.14 1445.68 L1723.38 1445.72 L1726.62 1445.65 L1729.87 1445.5 L1733.11 1445.24 L1736.35 1444.89 L1739.59 1444.44 L1742.83 1443.89 L1746.07 1443.25 L1749.31 1442.52 L1752.55 1441.69 L1755.8 1440.77 L1759.04 1439.76 L1762.28 1438.67 L1765.52 1437.49 L1768.76 1436.23 L1772 1434.89 L1775.24 1433.47 L1778.49 1431.98 L1781.73 1430.42 L1784.97 1428.79 L1788.21 1427.1 L1791.45 1425.36 L1794.69 1423.57 L1797.93 1421.73 L1801.18 1419.85 L1804.42 1417.94 L1807.66 1416 L1810.9 1414.04 L1814.14 1412.07 L1817.38 1410.08 L1820.62 1408.1 L1823.87 1406.13 L1827.11 1404.16 L1830.35 1402.21 L1833.59 1400.28 L1836.83 1398.36 L1840.07 1396.47 L1843.31 1394.6 L1846.55 1392.77 L1849.8 1390.96 L1853.04 1389.2 L1856.28 1387.47 L1859.52 1385.79 L1862.76 1384.16 L1866 1382.58 L1869.24 1381.02 L1872.49 1379.49 L1875.73 1377.98 L1878.97 1376.48 L1882.21 1374.98 L1885.45 1373.48 L1888.69 1371.97 L1891.93 1370.44 L1895.18 1368.89 L1898.42 1367.31 L1901.66 1365.7 L1904.9 1364.05 L1908.14 1362.36 L1911.38 1360.62 L1914.62 1358.82 L1917.87 1356.96 L1921.11 1355.03 L1924.35 1353.04 L1927.59 1350.99 L1930.83 1348.86 L1934.07 1346.66 L1937.31 1344.4 L1940.56 1342.06 L1943.8 1339.66 L1947.04 1337.2 L1950.28 1334.68 L1953.52 1332.12 L1956.76 1329.5 L1960 1326.85 L1963.24 1324.17 L1966.49 1321.48 L1969.73 1318.77 L1972.97 1316.06 L1976.21 1313.36 L1979.45 1310.67 L1982.69 1308.02 L1985.93 1305.39 L1989.18 1302.82 L1992.42 1300.31 L1995.66 1297.88 L1998.9 1295.53 L2002.14 1293.29 L2005.38 1291.18 L2008.62 1289.19 L2011.87 1287.36 L2015.11 1285.7 L2018.35 1284.22 L2021.59 1282.94 L2024.83 1281.86 L2028.07 1280.99 L2031.31 1280.33 L2034.56 1279.87 L2037.8 1279.6 L2041.04 1279.51 L2044.28 1279.59 L2047.52 1279.82 L2050.76 1280.19 L2054 1280.68 L2057.24 1281.29 L2060.49 1282 L2063.73 1282.81 L2066.97 1283.69 L2070.21 1284.65 L2073.45 1285.66 L2076.69 1286.74 L2079.93 1287.85 L2083.18 1289.01 L2086.42 1290.2 L2089.66 1291.41 L2092.9 1292.64 L2096.14 1293.89 L2099.38 1295.15 L2102.62 1296.42 L2105.87 1297.69 L2109.11 1298.95 L2112.35 1300.21 L2115.59 1301.47 L2118.83 1302.71 L2122.07 1303.94 L2125.31 1305.16 L2128.56 1306.36 L2131.8 1307.54 L2135.04 1308.7 L2138.28 1309.84 L2141.52 1310.96 L2144.76 1312.06 L2148 1313.12 L2151.25 1314.17 L2154.49 1315.19 L2157.73 1316.18 L2160.97 1317.14 L2164.21 1318.07 L2167.45 1318.98 L2170.69 1319.86 L2173.93 1320.71 L2177.18 1321.53 L2180.42 1322.32 L2183.66 1323.08 L2186.9 1323.82 L2190.14 1324.52 L2193.38 1325.2 L2196.62 1325.85 L2199.87 1326.47 L2203.11 1327.06 L2206.35 1327.62 L2209.59 1328.15 L2212.83 1328.66 L2216.07 1329.14 L2219.31 1329.59 L2222.56 1330.02 L2225.8 1330.41 L2229.04 1330.79 L2232.28 1331.14 L2235.52 1331.46 L2238.76 1331.76 L2242 1332.03 L2245.25 1332.28 L2248.49 1332.5 L2251.73 1332.71 L2254.97 1332.89 L2258.21 1333.04 L2261.45 1333.18 L2264.69 1333.29 L2267.94 1333.39 L2271.18 1333.46 L2274.42 1333.51 L2277.66 1333.55 L2280.9 1333.56 L2284.14 1333.56 L2287.38 1333.53 L2290.62 1333.49 L2290.62 495.84 L2287.38 499.712 L2284.14 503.639 L2280.9 507.623 L2277.66 511.662 L2274.42 515.759 L2271.18 519.914 L2267.94 524.126 L2264.69 528.397 L2261.45 532.728 L2258.21 537.118 L2254.97 541.568 L2251.73 546.079 L2248.49 550.651 L2245.25 555.284 L2242 559.98 L2238.76 564.738 L2235.52 569.558 L2232.28 574.442 L2229.04 579.39 L2225.8 584.401 L2222.56 589.477 L2219.31 594.617 L2216.07 599.822 L2212.83 605.092 L2209.59 610.427 L2206.35 615.828 L2203.11 621.293 L2199.87 626.825 L2196.62 632.422 L2193.38 638.084 L2190.14 643.812 L2186.9 649.605 L2183.66 655.464 L2180.42 661.387 L2177.18 667.375 L2173.93 673.428 L2170.69 679.544 L2167.45 685.723 L2164.21 691.965 L2160.97 698.27 L2157.73 704.635 L2154.49 711.06 L2151.25 717.545 L2148 724.088 L2144.76 730.687 L2141.52 737.342 L2138.28 744.051 L2135.04 750.812 L2131.8 757.622 L2128.56 764.481 L2125.31 771.386 L2122.07 778.333 L2118.83 785.321 L2115.59 792.347 L2112.35 799.406 L2109.11 806.496 L2105.87 813.613 L2102.62 820.752 L2099.38 827.908 L2096.14 835.078 L2092.9 842.254 L2089.66 849.432 L2086.42 856.605 L2083.18 863.766 L2079.93 870.908 L2076.69 878.022 L2073.45 885.101 L2070.21 892.134 L2066.97 899.112 L2063.73 906.023 L2060.49 912.858 L2057.24 919.603 L2054 926.245 L2050.76 932.772 L2047.52 939.168 L2044.28 945.42 L2041.04 951.512 L2037.8 957.428 L2034.56 963.153 L2031.31 968.671 L2028.07 973.967 L2024.83 979.034 L2021.59 983.872 L2018.35 988.487 L2015.11 992.885 L2011.87 997.075 L2008.62 1001.07 L2005.38 1004.87 L2002.14 1008.5 L1998.9 1011.96 L1995.66 1015.27 L1992.42 1018.43 L1989.18 1021.44 L1985.93 1024.33 L1982.69 1027.09 L1979.45 1029.74 L1976.21 1032.26 L1972.97 1034.68 L1969.73 1036.99 L1966.49 1039.19 L1963.24 1041.28 L1960 1043.28 L1956.76 1045.19 L1953.52 1047.03 L1950.28 1048.79 L1947.04 1050.49 L1943.8 1052.14 L1940.56 1053.72 L1937.31 1055.26 L1934.07 1056.74 L1930.83 1058.18 L1927.59 1059.57 L1924.35 1060.9 L1921.11 1062.18 L1917.87 1063.41 L1914.62 1064.57 L1911.38 1065.67 L1908.14 1066.69 L1904.9 1067.63 L1901.66 1068.48 L1898.42 1069.23 L1895.18 1069.88 L1891.93 1070.42 L1888.69 1070.86 L1885.45 1071.2 L1882.21 1071.44 L1878.97 1071.59 L1875.73 1071.64 L1872.49 1071.59 L1869.24 1071.45 L1866 1071.21 L1862.76 1070.86 L1859.52 1070.42 L1856.28 1069.87 L1853.04 1069.21 L1849.8 1068.46 L1846.55 1067.6 L1843.31 1066.64 L1840.07 1065.57 L1836.83 1064.41 L1833.59 1063.13 L1830.35 1061.76 L1827.11 1060.27 L1823.87 1058.68 L1820.62 1056.97 L1817.38 1055.16 L1814.14 1053.24 L1810.9 1051.23 L1807.66 1049.13 L1804.42 1046.97 L1801.18 1044.75 L1797.93 1042.48 L1794.69 1040.16 L1791.45 1037.81 L1788.21 1035.43 L1784.97 1033.04 L1781.73 1030.64 L1778.49 1028.23 L1775.24 1025.82 L1772 1023.42 L1768.76 1021.04 L1765.52 1018.67 L1762.28 1016.33 L1759.04 1014.01 L1755.8 1011.73 L1752.55 1009.48 L1749.31 1007.26 L1746.07 1005.09 L1742.83 1002.96 L1739.59 1000.87 L1736.35 998.832 L1733.11 996.838 L1729.87 994.893 L1726.62 992.996 L1723.38 991.148 L1720.14 989.35 L1716.9 987.6 L1713.66 985.899 L1710.42 984.246 L1707.18 982.638 L1703.93 981.076 L1700.69 979.556 L1697.45 978.078 L1694.21 976.638 L1690.97 975.234 L1687.73 973.862 L1684.49 972.521 L1681.24 971.206 L1678 969.912 L1674.76 968.637 L1671.52 967.375 L1668.28 966.122 L1665.04 964.872 L1661.8 963.62 L1658.55 962.361 L1655.31 961.087 L1652.07 959.794 L1648.83 958.474 L1645.59 957.12 L1642.35 955.726 L1639.11 954.283 L1635.86 952.784 L1632.62 951.222 L1629.38 949.588 L1626.14 947.875 L1622.9 946.073 L1619.66 944.175 L1616.42 942.171 L1613.18 940.054 L1609.93 937.816 L1606.69 935.45 L1603.45 932.962 L1600.21 930.36 L1596.97 927.652 L1593.73 924.847 L1590.49 921.952 L1587.24 918.975 L1584 915.925 L1580.76 912.809 L1577.52 909.634 L1574.28 906.409 L1571.04 903.14 L1567.8 899.834 L1564.55 896.498 L1561.31 893.138 L1558.07 889.761 L1554.83 886.372 L1551.59 882.977 L1548.35 879.581 L1545.11 876.189 L1541.86 872.807 L1538.62 869.437 L1535.38 866.086 L1532.14 862.756 L1528.9 859.451 L1525.66 856.175 L1522.42 852.93 L1519.18 849.719 L1515.93 846.546 L1512.69 843.411 L1509.45 840.318 L1506.21 837.268 L1502.97 834.262 L1499.73 831.301 L1496.49 828.388 L1493.24 825.521 L1490 822.703 L1486.76 819.932 L1483.52 817.21 L1480.28 814.535 L1477.04 811.907 L1473.8 809.326 L1470.55 806.79 L1467.31 804.298 L1464.07 801.849 L1460.83 799.441 L1457.59 797.071 L1454.35 794.737 L1451.11 792.436 L1447.86 790.167 L1444.62 787.925 L1441.38 785.706 L1438.14 783.508 L1434.9 781.326 L1431.66 779.155 L1428.42 776.992 L1425.17 774.83 L1421.93 772.665 L1418.69 770.492 L1415.45 768.304 L1412.21 766.095 L1408.97 763.859 L1405.73 761.589 L1402.49 759.279 L1399.24 756.921 L1396 754.508 L1392.76 752.033 L1389.52 749.489 L1386.28 746.869 L1383.04 744.177 L1379.8 741.417 L1376.55 738.594 L1373.31 735.712 L1370.07 732.775 L1366.83 729.787 L1363.59 726.751 L1360.35 723.671 L1357.11 720.551 L1353.86 717.391 L1350.62 714.195 L1347.38 710.964 L1344.14 707.698 L1340.9 704.4 L1337.66 701.067 L1334.42 697.701 L1331.17 694.3 L1327.93 690.862 L1324.69 687.385 L1321.45 683.866 L1318.21 680.302 L1314.97 676.689 L1311.73 673.021 L1308.48 669.295 L1305.24 665.503 L1302 661.64 L1298.76 657.699 L1295.52 653.673 L1292.28 649.557 L1289.04 645.351 L1285.8 641.058 L1282.55 636.68 L1279.31 632.219 L1276.07 627.676 L1272.83 623.052 L1269.59 618.347 L1266.35 613.562 L1263.11 608.696 L1259.86 603.748 L1256.62 598.718 L1253.38 593.602 L1250.14 588.4 L1246.9 583.11 L1243.66 577.736 L1240.42 572.282 L1237.17 566.752 L1233.93 561.149 L1230.69 555.477 L1227.45 549.739 L1224.21 543.937 L1220.97 538.074 L1217.73 532.151 L1214.48 526.169 L1211.24 520.131 L1208 514.039 L1204.76 507.901 L1201.52 501.728 L1198.28 495.531 L1195.04 489.318 L1191.8 483.1 L1188.55 476.885 L1185.31 470.681 L1182.07 464.495 L1178.83 458.336 L1175.59 452.21 L1172.35 446.122 L1169.11 440.078 L1165.86 434.084 L1162.62 428.144 L1159.38 422.262 L1156.14 416.44 L1152.9 410.683 L1149.66 404.993 L1146.42 399.371 L1143.17 393.819 L1139.93 388.339 L1136.69 382.93 L1133.45 377.594 L1130.21 372.329 L1126.97 367.136 L1123.73 362.014 L1120.48 356.96 L1117.24 351.974 L1114 347.054 L1110.76 342.198 L1107.52 337.403 L1104.28 332.666 L1101.04 327.985 L1097.79 323.358 L1094.55 318.782 L1091.31 314.259 L1088.07 309.794 L1084.83 305.389 L1081.59 301.047 L1078.35 296.772 L1075.11 292.566 L1071.86 288.432 L1068.62 284.372 L1065.38 280.387 L1062.14 276.479 L1058.9 272.649 L1055.66 268.898 L1052.42 265.226 L1049.17 261.634 L1045.93 258.12 L1042.69 254.683 L1039.45 251.323 L1036.21 248.037 L1032.97 244.822 L1029.73 241.677 L1026.48 238.597 L1023.24 235.579 L1020 232.618 L1016.76 229.71 L1013.52 226.848 L1010.28 224.028 L1007.04 221.243 L1003.79 218.487 L1000.55 215.752 L997.312 213.031 L994.071 210.316 L990.829 207.6 L987.588 204.875 L984.346 202.133 L981.105 199.365 L977.864 196.567 L974.622 193.739 L971.381 190.886 L968.139 188.012 L964.898 185.123 L961.657 182.223 L958.415 179.319 L955.174 176.418 L951.933 173.526 L948.691 170.652 L945.45 167.8 L942.208 164.979 L938.967 162.194 L935.726 159.451 L932.484 156.756 L929.243 154.114 L926.001 151.53 L922.76 149.008 L919.519 146.553 L916.277 144.168 L913.036 141.855 L909.795 139.618 L906.553 137.459 L903.312 135.38 L900.07 133.381 L896.829 131.465 L893.588 129.63 L890.346 127.878 L887.105 126.208 L883.863 124.62 L880.622 123.111 L877.381 121.681 L874.139 120.328 L870.898 119.049 L867.657 117.841 L864.415 116.702 L861.174 115.628 L857.932 114.615 L854.691 113.659 L851.45 112.756 L848.208 111.899 L844.967 111.085 L841.725 110.307 L838.484 109.56 L835.243 108.837 L832.001 108.131 L828.76 107.436 L825.519 106.744 L822.277 106.048 L819.036 105.341 L815.794 104.615 L812.553 103.865 L809.312 103.093 L806.07 102.306 L802.829 101.51 L799.587 100.709 L796.346 99.91 L793.105 99.1168 L789.863 98.3344 L786.622 97.5671 L783.381 96.8188 L780.139 96.0929 L776.898 95.3926 L773.656 94.7206 L770.415 94.079 L767.174 93.4698 L763.932 92.8942 L760.691 92.3531 L757.449 91.8471 L754.208 91.376 L750.967 90.9396 L747.725 90.5372 L744.484 90.1677 L741.242 89.8297 L738.001 89.5216 L734.76 89.2418 L731.518 88.9882 L728.277 88.7597 L725.036 88.5572 L721.794 88.3824 L718.553 88.2368 L715.311 88.122 L712.07 88.0395 L708.829 87.9905 L705.587 87.9763 L702.346 87.9978 L699.104 88.0562 L695.863 88.1521 L692.622 88.2863 L689.38 88.4595 L686.139 88.6724 L682.898 88.9255 L679.656 89.2203 L676.415 89.5612 L673.173 89.9536 L669.932 90.4024 L666.691 90.9129 L663.449 91.4898 L660.208 92.1379 L656.966 92.8615 L653.725 93.665 L650.484 94.5521 L647.242 95.5265 L644.001 96.5914 L640.76 97.7499 L637.518 99.0047 L634.277 100.358 L631.035 101.812 L627.794 103.369 L624.553 105.03 L621.311 106.796 L618.07 108.668 L614.828 110.646 L611.587 112.732 L608.346 114.925 L605.104 117.225 L601.863 119.632 L598.622 122.145 L595.38 124.763 L592.139 127.485 L588.897 130.309 L585.656 133.234 L582.415 136.258 L579.173 139.38 L575.932 142.595 L572.69 145.903 L569.449 149.3 L566.208 152.783 L562.966 156.348 L559.725 159.993 L556.484 163.712 L553.242 167.503 L550.001 171.36 L546.759 175.28 L543.518 179.256 L540.277 183.284 L537.035 187.357 L533.794 191.472 L530.552 195.62 L527.311 199.796 L524.07 203.993 L520.828 208.203 L517.587 212.421 L514.346 216.637 L511.104 220.844 L507.863 225.033 L504.621 229.198 L501.38 233.328 L498.139 237.415 L494.897 241.45 L491.656 245.424 L488.414 249.328 L485.173 253.155 L481.932 256.904 L478.69 260.577 L475.449 264.175 L472.208 267.7 L468.966 271.153 L465.725 274.534 L462.483 277.846 L459.242 281.087 L456.001 284.259 L452.759 287.361 L449.518 290.393 L446.276 293.353 L443.035 296.242 L439.794 299.057 L436.552 301.797 L433.311 304.458 L430.069 307.039 L426.828 309.536 L423.587 311.946 L420.345 314.264 L417.104 316.486 L413.863 318.608 L410.621 320.625 L407.38 322.532 L404.138 324.323 L400.897 325.993 L397.656 327.535 L394.414 328.944 L391.173 330.214 L387.931 331.339 L384.69 332.312 L381.449 333.127 L378.207 333.781 L374.966 334.28 L371.725 334.63 L368.483 334.84 L365.242 334.916 L362 334.868 L358.759 334.701 L355.518 334.424 L352.276 334.043 L349.035 333.565 L345.793 332.998 L342.552 332.347 L339.311 331.619 L336.069 330.82 L332.828 329.955 L329.587 329.03 L326.345 328.05 L323.104 327.02 L319.862 325.944 L316.621 324.828 L313.38 323.674 L310.138 322.487 L306.897 321.272 L303.655 320.03 L300.414 318.767 L297.173 317.483 L293.931 316.184 L290.69 314.871 L287.449 313.546 L284.207 312.213 L280.966 310.874 L277.724 309.53 L274.483 308.183 L271.242 306.836 L268 305.49 L264.759 304.147 L261.517 302.808 L258.276 301.474 L255.035 300.147  Z" fill="#3da44d" fill-rule="evenodd" fill-opacity="0.1"/>
<polyline clip-path="url(#clip812)" style="stroke:#3da44d; stroke-linecap:round; stroke-linejoin:round; stroke-width:8; stroke-opacity:1; fill:none" points="255.035,645.3 258.276,643.718 261.517,642.113 264.759,640.485 268,638.834 271.242,637.159 274.483,635.461 277.724,633.738 280.966,631.991 284.207,630.218 287.449,628.421 290.69,626.598 293.931,624.749 297.173,622.874 300.414,620.972 303.655,619.043 306.897,617.087 310.138,615.103 313.38,613.091 316.621,611.051 319.862,608.982 323.104,606.884 326.345,604.756 329.587,602.598 332.828,600.41 336.069,598.191 339.311,595.941 342.552,593.659 345.793,591.345 349.035,588.999 352.276,586.62 355.518,584.207 358.759,581.761 362,579.281 365.242,576.766 368.483,574.216 371.725,571.63 374.966,569.009 378.207,566.351 381.449,563.656 384.69,560.924 387.931,558.155 391.173,555.351 394.414,552.511 397.656,549.637 400.897,546.73 404.138,543.791 407.38,540.819 410.621,537.817 413.863,534.784 417.104,531.722 420.345,528.632 423.587,525.514 426.828,522.369 430.069,519.197 433.311,516.001 436.552,512.78 439.794,509.535 443.035,506.268 446.276,502.978 449.518,499.668 452.759,496.337 456.001,492.987 459.242,489.618 462.483,486.232 465.725,482.829 468.966,479.41 472.208,475.977 475.449,472.53 478.69,469.07 481.932,465.598 485.173,462.115 488.414,458.623 491.656,455.121 494.897,451.612 498.139,448.095 501.38,444.572 504.621,441.043 507.863,437.509 511.104,433.971 514.346,430.43 517.587,426.886 520.828,423.341 524.07,419.795 527.311,416.25 530.552,412.706 533.794,409.165 537.035,405.627 540.277,402.094 543.518,398.567 546.759,395.046 550.001,391.534 553.242,388.031 556.484,384.539 559.725,381.059 562.966,377.593 566.208,374.141 569.449,370.705 572.69,367.287 575.932,363.888 579.173,360.51 582.415,357.154 585.656,353.823 588.897,350.517 592.139,347.239 595.38,343.99 598.622,340.772 601.863,337.588 605.104,334.439 608.346,331.328 611.587,328.255 614.828,325.224 618.07,322.238 621.311,319.297 624.553,316.404 627.794,313.563 631.035,310.775 634.277,308.043 637.518,305.369 640.76,302.757 644.001,300.209 647.242,297.729 650.484,295.318 653.725,292.98 656.966,290.719 660.208,288.536 663.449,286.437 666.691,284.424 669.932,282.5 673.173,280.67 676.415,278.936 679.656,277.303 682.898,275.775 686.139,274.354 689.38,273.041 692.622,271.834 695.863,270.732 699.104,269.736 702.346,268.843 705.587,268.054 708.829,267.368 712.07,266.784 715.311,266.303 718.553,265.923 721.794,265.646 725.036,265.471 728.277,265.398 731.518,265.428 734.76,265.56 738.001,265.789 741.242,266.111 744.484,266.52 747.725,267.012 750.967,267.583 754.208,268.226 757.449,268.938 760.691,269.713 763.932,270.549 767.174,271.439 770.415,272.381 773.656,273.369 776.898,274.399 780.139,275.468 783.381,276.572 786.622,277.706 789.863,278.866 793.105,280.049 796.346,281.251 799.587,282.468 802.829,283.696 806.07,284.933 809.312,286.174 812.553,287.415 815.794,288.654 819.036,289.887 822.277,291.115 825.519,292.338 828.76,293.558 832.001,294.774 835.243,295.989 838.484,297.202 841.725,298.416 844.967,299.63 848.208,300.847 851.45,302.067 854.691,303.291 857.932,304.521 861.174,305.757 864.415,307.002 867.657,308.257 870.898,309.522 874.139,310.8 877.381,312.091 880.622,313.398 883.863,314.722 887.105,316.064 890.346,317.427 893.588,318.811 896.829,320.219 900.07,321.653 903.312,323.115 906.553,324.606 909.795,326.128 913.036,327.684 916.277,329.275 919.519,330.905 922.76,332.574 926.001,334.286 929.243,336.042 932.484,337.846 935.726,339.699 938.967,341.604 942.208,343.565 945.45,345.582 948.691,347.66 951.933,349.802 955.174,352.009 958.415,354.286 961.657,356.634 964.898,359.058 968.139,361.559 971.381,364.135 974.622,366.781 977.864,369.493 981.105,372.267 984.346,375.101 987.588,377.991 990.829,380.938 994.071,383.94 997.312,386.996 1000.55,390.105 1003.79,393.266 1007.04,396.479 1010.28,399.742 1013.52,403.055 1016.76,406.418 1020,409.829 1023.24,413.289 1026.48,416.796 1029.73,420.351 1032.97,423.953 1036.21,427.602 1039.45,431.297 1042.69,435.039 1045.93,438.827 1049.17,442.662 1052.42,446.542 1055.66,450.47 1058.9,454.443 1062.14,458.464 1065.38,462.531 1068.62,466.645 1071.86,470.807 1075.11,475.017 1078.35,479.276 1081.59,483.583 1084.83,487.94 1088.07,492.347 1091.31,496.804 1094.55,501.313 1097.79,505.874 1101.04,510.488 1104.28,515.153 1107.52,519.865 1110.76,524.625 1114,529.428 1117.24,534.273 1120.48,539.159 1123.73,544.082 1126.97,549.041 1130.21,554.034 1133.45,559.059 1136.69,564.114 1139.93,569.198 1143.17,574.308 1146.42,579.443 1149.66,584.601 1152.9,589.78 1156.14,594.979 1159.38,600.196 1162.62,605.429 1165.86,610.677 1169.11,615.939 1172.35,621.212 1175.59,626.495 1178.83,631.786 1182.07,637.085 1185.31,642.389 1188.55,647.697 1191.8,653.008 1195.04,658.32 1198.28,663.632 1201.52,668.942 1204.76,674.249 1208,679.551 1211.24,684.847 1214.48,690.137 1217.73,695.418 1220.97,700.693 1224.21,705.96 1227.45,711.219 1230.69,716.472 1233.93,721.717 1237.17,726.956 1240.42,732.187 1243.66,737.411 1246.9,742.628 1250.14,747.838 1253.38,753.04 1256.62,758.234 1259.86,763.418 1263.11,768.591 1266.35,773.75 1269.59,778.895 1272.83,784.023 1276.07,789.133 1279.31,794.224 1282.55,799.294 1285.8,804.341 1289.04,809.363 1292.28,814.36 1295.52,819.329 1298.76,824.269 1302,829.179 1305.24,834.061 1308.48,838.913 1311.73,843.737 1314.97,848.532 1318.21,853.299 1321.45,858.037 1324.69,862.747 1327.93,867.428 1331.17,872.08 1334.42,876.704 1337.66,881.299 1340.9,885.866 1344.14,890.403 1347.38,894.912 1350.62,899.391 1353.86,903.841 1357.11,908.261 1360.35,912.65 1363.59,917.01 1366.83,921.338 1370.07,925.636 1373.31,929.902 1376.55,934.136 1379.8,938.337 1383.04,942.506 1386.28,946.641 1389.52,950.741 1392.76,954.807 1396,958.839 1399.24,962.839 1402.49,966.806 1405.73,970.743 1408.97,974.649 1412.21,978.526 1415.45,982.375 1418.69,986.197 1421.93,989.991 1425.17,993.759 1428.42,997.502 1431.66,1001.22 1434.9,1004.91 1438.14,1008.58 1441.38,1012.23 1444.62,1015.85 1447.86,1019.45 1451.11,1023.03 1454.35,1026.59 1457.59,1030.13 1460.83,1033.64 1464.07,1037.14 1467.31,1040.61 1470.55,1044.06 1473.8,1047.5 1477.04,1050.91 1480.28,1054.3 1483.52,1057.68 1486.76,1061.03 1490,1064.36 1493.24,1067.67 1496.49,1070.97 1499.73,1074.24 1502.97,1077.49 1506.21,1080.72 1509.45,1083.93 1512.69,1087.11 1515.93,1090.28 1519.18,1093.42 1522.42,1096.54 1525.66,1099.64 1528.9,1102.71 1532.14,1105.76 1535.38,1108.78 1538.62,1111.77 1541.86,1114.74 1545.11,1117.68 1548.35,1120.6 1551.59,1123.48 1554.83,1126.33 1558.07,1129.16 1561.31,1131.94 1564.55,1134.7 1567.8,1137.42 1571.04,1140.11 1574.28,1142.76 1577.52,1145.37 1580.76,1147.94 1584,1150.47 1587.24,1152.95 1590.49,1155.39 1593.73,1157.79 1596.97,1160.14 1600.21,1162.44 1603.45,1164.68 1606.69,1166.88 1609.93,1169.02 1613.18,1171.1 1616.42,1173.13 1619.66,1175.1 1622.9,1177.02 1626.14,1178.9 1629.38,1180.72 1632.62,1182.5 1635.86,1184.24 1639.11,1185.93 1642.35,1187.58 1645.59,1189.19 1648.83,1190.76 1652.07,1192.29 1655.31,1193.79 1658.55,1195.25 1661.8,1196.68 1665.04,1198.08 1668.28,1199.44 1671.52,1200.78 1674.76,1202.08 1678,1203.35 1681.24,1204.6 1684.49,1205.82 1687.73,1207.01 1690.97,1208.17 1694.21,1209.31 1697.45,1210.42 1700.69,1211.51 1703.93,1212.57 1707.18,1213.61 1710.42,1214.62 1713.66,1215.61 1716.9,1216.57 1720.14,1217.51 1723.38,1218.43 1726.62,1219.33 1729.87,1220.19 1733.11,1221.04 1736.35,1221.86 1739.59,1222.66 1742.83,1223.43 1746.07,1224.17 1749.31,1224.89 1752.55,1225.58 1755.8,1226.25 1759.04,1226.89 1762.28,1227.5 1765.52,1228.08 1768.76,1228.63 1772,1229.15 1775.24,1229.64 1778.49,1230.1 1781.73,1230.53 1784.97,1230.92 1788.21,1231.27 1791.45,1231.59 1794.69,1231.86 1797.93,1232.1 1801.18,1232.3 1804.42,1232.46 1807.66,1232.57 1810.9,1232.63 1814.14,1232.65 1817.38,1232.62 1820.62,1232.54 1823.87,1232.4 1827.11,1232.22 1830.35,1231.98 1833.59,1231.71 1836.83,1231.38 1840.07,1231.02 1843.31,1230.62 1846.55,1230.18 1849.8,1229.71 1853.04,1229.2 1856.28,1228.67 1859.52,1228.1 1862.76,1227.51 1866,1226.89 1869.24,1226.24 1872.49,1225.54 1875.73,1224.81 1878.97,1224.04 1882.21,1223.21 1885.45,1222.34 1888.69,1221.41 1891.93,1220.43 1895.18,1219.38 1898.42,1218.27 1901.66,1217.09 1904.9,1215.84 1908.14,1214.52 1911.38,1213.14 1914.62,1211.69 1917.87,1210.18 1921.11,1208.61 1924.35,1206.97 1927.59,1205.28 1930.83,1203.52 1934.07,1201.7 1937.31,1199.83 1940.56,1197.89 1943.8,1195.9 1947.04,1193.85 1950.28,1191.74 1953.52,1189.57 1956.76,1187.35 1960,1185.07 1963.24,1182.73 1966.49,1180.33 1969.73,1177.88 1972.97,1175.37 1976.21,1172.81 1979.45,1170.21 1982.69,1167.55 1985.93,1164.86 1989.18,1162.13 1992.42,1159.37 1995.66,1156.57 1998.9,1153.75 2002.14,1150.9 2005.38,1148.02 2008.62,1145.13 2011.87,1142.22 2015.11,1139.29 2018.35,1136.35 2021.59,1133.41 2024.83,1130.45 2028.07,1127.48 2031.31,1124.5 2034.56,1121.51 2037.8,1118.51 2041.04,1115.51 2044.28,1112.5 2047.52,1109.49 2050.76,1106.48 2054,1103.46 2057.24,1100.45 2060.49,1097.43 2063.73,1094.42 2066.97,1091.4 2070.21,1088.39 2073.45,1085.38 2076.69,1082.38 2079.93,1079.38 2083.18,1076.39 2086.42,1073.4 2089.66,1070.42 2092.9,1067.45 2096.14,1064.49 2099.38,1061.53 2102.62,1058.58 2105.87,1055.65 2109.11,1052.72 2112.35,1049.81 2115.59,1046.91 2118.83,1044.02 2122.07,1041.14 2125.31,1038.27 2128.56,1035.42 2131.8,1032.58 2135.04,1029.76 2138.28,1026.95 2141.52,1024.15 2144.76,1021.37 2148,1018.61 2151.25,1015.86 2154.49,1013.12 2157.73,1010.41 2160.97,1007.7 2164.21,1005.02 2167.45,1002.35 2170.69,999.702 2173.93,997.068 2177.18,994.453 2180.42,991.855 2183.66,989.274 2186.9,986.712 2190.14,984.168 2193.38,981.642 2196.62,979.134 2199.87,976.645 2203.11,974.174 2206.35,971.723 2209.59,969.29 2212.83,966.875 2216.07,964.48 2219.31,962.104 2222.56,959.746 2225.8,957.408 2229.04,955.089 2232.28,952.789 2235.52,950.508 2238.76,948.247 2242,946.004 2245.25,943.781 2248.49,941.577 2251.73,939.393 2254.97,937.227 2258.21,935.081 2261.45,932.954 2264.69,930.846 2267.94,928.757 2271.18,926.687 2274.42,924.636 2277.66,922.604 2280.9,920.592 2284.14,918.598 2287.38,916.623 2290.62,914.666 "/>
<polyline clip-path="url(#clip812)" style="stroke:#c271d2; stroke-linecap:round; stroke-linejoin:round; stroke-width:12; stroke-opacity:1; fill:none" points="255.035,878.103 362.225,743.84 469.416,619.402 576.607,512.424 683.797,401.174 790.988,401.134 898.179,447.996 1005.37,512.855 1112.56,650.313 1219.75,808.559 1326.94,984.841 1434.13,1154.61 1541.32,1277.48 1648.51,1347.27 1755.7,1370.96 1862.89,1333.12 1970.09,1272.62 2077.28,1220.17 2184.47,1214.34 2291.66,1196.95 "/>
<polyline clip-path="url(#clip812)" style="stroke:#ac8d18; stroke-linecap:round; stroke-linejoin:round; stroke-width:12; stroke-opacity:1; fill:none" points="255.035,412.498 362.225,414.375 469.416,338.467 576.607,213.942 683.797,149.564 790.988,157.414 898.179,193.631 1005.37,276.786 1112.56,404.259 1219.75,588.868 1326.94,747.155 1434.13,853.474 1541.32,951.017 1648.51,1033.95 1755.7,1081.51 1862.89,1121.86 1970.09,1082.59 2077.28,943.506 2184.47,762.925 2291.66,631.147 "/>
<path clip-path="url(#clip810)" d="M1953.46 406.258 L2280.8 406.258 L2280.8 95.2176 L1953.46 95.2176  Z" fill="#ffffff" fill-rule="evenodd" fill-opacity="1"/>
<polyline clip-path="url(#clip810)" style="stroke:#000000; stroke-linecap:round; stroke-linejoin:round; stroke-width:4; stroke-opacity:1; fill:none" points="1953.46,406.258 2280.8,406.258 2280.8,95.2176 1953.46,95.2176 1953.46,406.258 "/>
<polyline clip-path="url(#clip810)" style="stroke:#009af9; stroke-linecap:round; stroke-linejoin:round; stroke-width:4; stroke-opacity:1; fill:none" points="1977.44,147.058 2121.36,147.058 "/>
<path clip-path="url(#clip810)" d="M2152.76 131.051 L2152.76 138.412 L2161.53 138.412 L2161.53 141.722 L2152.76 141.722 L2152.76 155.796 Q2152.76 158.967 2153.61 159.87 Q2154.49 160.773 2157.16 160.773 L2161.53 160.773 L2161.53 164.338 L2157.16 164.338 Q2152.23 164.338 2150.35 162.509 Q2148.48 160.657 2148.48 155.796 L2148.48 141.722 L2145.35 141.722 L2145.35 138.412 L2148.48 138.412 L2148.48 131.051 L2152.76 131.051 Z" fill="#000000" fill-rule="nonzero" fill-opacity="1" /><path clip-path="url(#clip810)" d="M2182.16 142.393 Q2181.44 141.977 2180.58 141.791 Q2179.75 141.583 2178.73 141.583 Q2175.12 141.583 2173.17 143.944 Q2171.25 146.282 2171.25 150.68 L2171.25 164.338 L2166.97 164.338 L2166.97 138.412 L2171.25 138.412 L2171.25 142.44 Q2172.6 140.078 2174.75 138.944 Q2176.9 137.787 2179.98 137.787 Q2180.42 137.787 2180.95 137.856 Q2181.48 137.903 2182.13 138.018 L2182.16 142.393 Z" fill="#000000" fill-rule="nonzero" fill-opacity="1" /><path clip-path="url(#clip810)" d="M2186.18 154.106 L2186.18 138.412 L2190.44 138.412 L2190.44 153.944 Q2190.44 157.625 2191.88 159.476 Q2193.31 161.305 2196.18 161.305 Q2199.63 161.305 2201.62 159.106 Q2203.64 156.907 2203.64 153.111 L2203.64 138.412 L2207.9 138.412 L2207.9 164.338 L2203.64 164.338 L2203.64 160.356 Q2202.09 162.717 2200.03 163.875 Q2197.99 165.009 2195.28 165.009 Q2190.81 165.009 2188.5 162.231 Q2186.18 159.453 2186.18 154.106 M2196.9 137.787 L2196.9 137.787 Z" fill="#000000" fill-rule="nonzero" fill-opacity="1" /><path clip-path="url(#clip810)" d="M2220.88 131.051 L2220.88 138.412 L2229.66 138.412 L2229.66 141.722 L2220.88 141.722 L2220.88 155.796 Q2220.88 158.967 2221.74 159.87 Q2222.62 160.773 2225.28 160.773 L2229.66 160.773 L2229.66 164.338 L2225.28 164.338 Q2220.35 164.338 2218.48 162.509 Q2216.6 160.657 2216.6 155.796 L2216.6 141.722 L2213.48 141.722 L2213.48 138.412 L2216.6 138.412 L2216.6 131.051 L2220.88 131.051 Z" fill="#000000" fill-rule="nonzero" fill-opacity="1" /><path clip-path="url(#clip810)" d="M2256.81 148.689 L2256.81 164.338 L2252.55 164.338 L2252.55 148.828 Q2252.55 145.148 2251.11 143.319 Q2249.68 141.49 2246.81 141.49 Q2243.36 141.49 2241.37 143.69 Q2239.38 145.889 2239.38 149.685 L2239.38 164.338 L2235.1 164.338 L2235.1 128.319 L2239.38 128.319 L2239.38 142.44 Q2240.91 140.102 2242.97 138.944 Q2245.05 137.787 2247.76 137.787 Q2252.23 137.787 2254.52 140.565 Q2256.81 143.319 2256.81 148.689 Z" fill="#000000" fill-rule="nonzero" fill-opacity="1" /><circle clip-path="url(#clip810)" cx="2049.4" cy="198.898" r="20.48" fill="#e26f46" fill-rule="evenodd" fill-opacity="1" stroke="#000000" stroke-opacity="1" stroke-width="4.55111"/>
<path clip-path="url(#clip810)" d="M2164.26 194.187 L2164.26 180.159 L2168.52 180.159 L2168.52 216.178 L2164.26 216.178 L2164.26 212.289 Q2162.92 214.603 2160.86 215.738 Q2158.82 216.849 2155.95 216.849 Q2151.25 216.849 2148.29 213.099 Q2145.35 209.349 2145.35 203.238 Q2145.35 197.127 2148.29 193.377 Q2151.25 189.627 2155.95 189.627 Q2158.82 189.627 2160.86 190.761 Q2162.92 191.872 2164.26 194.187 M2149.75 203.238 Q2149.75 207.937 2151.67 210.622 Q2153.61 213.284 2156.99 213.284 Q2160.37 213.284 2162.32 210.622 Q2164.26 207.937 2164.26 203.238 Q2164.26 198.539 2162.32 195.877 Q2160.37 193.192 2156.99 193.192 Q2153.61 193.192 2151.67 195.877 Q2149.75 198.539 2149.75 203.238 Z" fill="#000000" fill-rule="nonzero" fill-opacity="1" /><path clip-path="url(#clip810)" d="M2189.08 203.145 Q2183.92 203.145 2181.92 204.326 Q2179.93 205.506 2179.93 208.354 Q2179.93 210.622 2181.42 211.965 Q2182.92 213.284 2185.49 213.284 Q2189.03 213.284 2191.16 210.784 Q2193.31 208.261 2193.31 204.094 L2193.31 203.145 L2189.08 203.145 M2197.57 201.386 L2197.57 216.178 L2193.31 216.178 L2193.31 212.242 Q2191.85 214.603 2189.68 215.738 Q2187.5 216.849 2184.36 216.849 Q2180.37 216.849 2178.01 214.627 Q2175.67 212.381 2175.67 208.631 Q2175.67 204.256 2178.59 202.034 Q2181.53 199.812 2187.34 199.812 L2193.31 199.812 L2193.31 199.395 Q2193.31 196.455 2191.37 194.858 Q2189.45 193.238 2185.95 193.238 Q2183.73 193.238 2181.62 193.77 Q2179.52 194.303 2177.57 195.367 L2177.57 191.432 Q2179.91 190.53 2182.11 190.09 Q2184.31 189.627 2186.39 189.627 Q2192.02 189.627 2194.79 192.543 Q2197.57 195.46 2197.57 201.386 Z" fill="#000000" fill-rule="nonzero" fill-opacity="1" /><path clip-path="url(#clip810)" d="M2210.56 182.891 L2210.56 190.252 L2219.33 190.252 L2219.33 193.562 L2210.56 193.562 L2210.56 207.636 Q2210.56 210.807 2211.42 211.71 Q2212.29 212.613 2214.96 212.613 L2219.33 212.613 L2219.33 216.178 L2214.96 216.178 Q2210.03 216.178 2208.15 214.349 Q2206.28 212.497 2206.28 207.636 L2206.28 193.562 L2203.15 193.562 L2203.15 190.252 L2206.28 190.252 L2206.28 182.891 L2210.56 182.891 Z" fill="#000000" fill-rule="nonzero" fill-opacity="1" /><path clip-path="url(#clip810)" d="M2236.72 203.145 Q2231.55 203.145 2229.56 204.326 Q2227.57 205.506 2227.57 208.354 Q2227.57 210.622 2229.05 211.965 Q2230.56 213.284 2233.13 213.284 Q2236.67 213.284 2238.8 210.784 Q2240.95 208.261 2240.95 204.094 L2240.95 203.145 L2236.72 203.145 M2245.21 201.386 L2245.21 216.178 L2240.95 216.178 L2240.95 212.242 Q2239.49 214.603 2237.32 215.738 Q2235.14 216.849 2231.99 216.849 Q2228.01 216.849 2225.65 214.627 Q2223.31 212.381 2223.31 208.631 Q2223.31 204.256 2226.23 202.034 Q2229.17 199.812 2234.98 199.812 L2240.95 199.812 L2240.95 199.395 Q2240.95 196.455 2239.01 194.858 Q2237.09 193.238 2233.59 193.238 Q2231.37 193.238 2229.26 193.77 Q2227.16 194.303 2225.21 195.367 L2225.21 191.432 Q2227.55 190.53 2229.75 190.09 Q2231.95 189.627 2234.03 189.627 Q2239.66 189.627 2242.43 192.543 Q2245.21 195.46 2245.21 201.386 Z" fill="#000000" fill-rule="nonzero" fill-opacity="1" /><polyline clip-path="url(#clip810)" style="stroke:#3da44d; stroke-linecap:round; stroke-linejoin:round; stroke-width:8; stroke-opacity:1; fill:none" points="1977.44,250.738 2121.36,250.738 "/>
<path clip-path="url(#clip810)" d="M2170.91 263.087 L2170.91 253.805 L2163.27 253.805 L2163.27 249.962 L2175.54 249.962 L2175.54 264.8 Q2172.83 266.721 2169.56 267.717 Q2166.3 268.689 2162.6 268.689 Q2154.49 268.689 2149.91 263.967 Q2145.35 259.221 2145.35 250.772 Q2145.35 242.3 2149.91 237.578 Q2154.49 232.833 2162.6 232.833 Q2165.98 232.833 2169.01 233.666 Q2172.06 234.499 2174.63 236.12 L2174.63 241.096 Q2172.04 238.897 2169.12 237.786 Q2166.21 236.675 2162.99 236.675 Q2156.65 236.675 2153.45 240.217 Q2150.28 243.758 2150.28 250.772 Q2150.28 257.763 2153.45 261.305 Q2156.65 264.846 2162.99 264.846 Q2165.47 264.846 2167.41 264.43 Q2169.36 263.99 2170.91 263.087 Z" fill="#000000" fill-rule="nonzero" fill-opacity="1" /><path clip-path="url(#clip810)" d="M2188.75 237.3 L2188.75 250.286 L2194.63 250.286 Q2197.9 250.286 2199.68 248.596 Q2201.46 246.907 2201.46 243.782 Q2201.46 240.68 2199.68 238.99 Q2197.9 237.3 2194.63 237.3 L2188.75 237.3 M2184.08 233.458 L2194.63 233.458 Q2200.44 233.458 2203.41 236.096 Q2206.39 238.712 2206.39 243.782 Q2206.39 248.897 2203.41 251.513 Q2200.44 254.129 2194.63 254.129 L2188.75 254.129 L2188.75 268.018 L2184.08 268.018 L2184.08 233.458 Z" fill="#000000" fill-rule="nonzero" fill-opacity="1" /><polyline clip-path="url(#clip810)" style="stroke:#c271d2; stroke-linecap:round; stroke-linejoin:round; stroke-width:12; stroke-opacity:1; fill:none" points="1977.44,302.578 2121.36,302.578 "/>
<path clip-path="url(#clip810)" d="M2150.03 289.14 L2150.03 302.126 L2155.91 302.126 Q2159.17 302.126 2160.95 300.436 Q2162.73 298.747 2162.73 295.622 Q2162.73 292.52 2160.95 290.83 Q2159.17 289.14 2155.91 289.14 L2150.03 289.14 M2145.35 285.298 L2155.91 285.298 Q2161.72 285.298 2164.68 287.936 Q2167.67 290.552 2167.67 295.622 Q2167.67 300.737 2164.68 303.353 Q2161.72 305.969 2155.91 305.969 L2150.03 305.969 L2150.03 319.858 L2145.35 319.858 L2145.35 285.298 Z" fill="#000000" fill-rule="nonzero" fill-opacity="1" /><path clip-path="url(#clip810)" d="M2178.38 315.922 L2194.7 315.922 L2194.7 319.858 L2172.76 319.858 L2172.76 315.922 Q2175.42 313.168 2180 308.538 Q2184.61 303.885 2185.79 302.543 Q2188.04 300.02 2188.92 298.284 Q2189.82 296.524 2189.82 294.835 Q2189.82 292.08 2187.87 290.344 Q2185.95 288.608 2182.85 288.608 Q2180.65 288.608 2178.2 289.372 Q2175.77 290.135 2172.99 291.686 L2172.99 286.964 Q2175.81 285.83 2178.27 285.251 Q2180.72 284.673 2182.76 284.673 Q2188.13 284.673 2191.32 287.358 Q2194.52 290.043 2194.52 294.534 Q2194.52 296.663 2193.71 298.585 Q2192.92 300.483 2190.81 303.075 Q2190.23 303.747 2187.13 306.964 Q2184.03 310.159 2178.38 315.922 Z" fill="#000000" fill-rule="nonzero" fill-opacity="1" /><path clip-path="url(#clip810)" d="M2204.56 285.298 L2222.92 285.298 L2222.92 289.233 L2208.85 289.233 L2208.85 297.705 Q2209.86 297.358 2210.88 297.196 Q2211.9 297.01 2212.92 297.01 Q2218.71 297.01 2222.09 300.182 Q2225.47 303.353 2225.47 308.77 Q2225.47 314.348 2221.99 317.45 Q2218.52 320.529 2212.2 320.529 Q2210.03 320.529 2207.76 320.158 Q2205.51 319.788 2203.1 319.047 L2203.1 314.348 Q2205.19 315.483 2207.41 316.038 Q2209.63 316.594 2212.11 316.594 Q2216.11 316.594 2218.45 314.487 Q2220.79 312.381 2220.79 308.77 Q2220.79 305.159 2218.45 303.052 Q2216.11 300.946 2212.11 300.946 Q2210.23 300.946 2208.36 301.362 Q2206.51 301.779 2204.56 302.659 L2204.56 285.298 Z" fill="#000000" fill-rule="nonzero" fill-opacity="1" /><polyline clip-path="url(#clip810)" style="stroke:#ac8d18; stroke-linecap:round; stroke-linejoin:round; stroke-width:12; stroke-opacity:1; fill:none" points="1977.44,354.418 2121.36,354.418 "/>
<path clip-path="url(#clip810)" d="M2150.03 340.98 L2150.03 353.966 L2155.91 353.966 Q2159.17 353.966 2160.95 352.276 Q2162.73 350.587 2162.73 347.462 Q2162.73 344.36 2160.95 342.67 Q2159.17 340.98 2155.91 340.98 L2150.03 340.98 M2145.35 337.138 L2155.91 337.138 Q2161.72 337.138 2164.68 339.776 Q2167.67 342.392 2167.67 347.462 Q2167.67 352.577 2164.68 355.193 Q2161.72 357.809 2155.91 357.809 L2150.03 357.809 L2150.03 371.698 L2145.35 371.698 L2145.35 337.138 Z" fill="#000000" fill-rule="nonzero" fill-opacity="1" /><path clip-path="url(#clip810)" d="M2173.17 337.138 L2195.4 337.138 L2195.4 339.128 L2182.85 371.698 L2177.97 371.698 L2189.77 341.073 L2173.17 341.073 L2173.17 337.138 Z" fill="#000000" fill-rule="nonzero" fill-opacity="1" /><path clip-path="url(#clip810)" d="M2204.56 337.138 L2222.92 337.138 L2222.92 341.073 L2208.85 341.073 L2208.85 349.545 Q2209.86 349.198 2210.88 349.036 Q2211.9 348.85 2212.92 348.85 Q2218.71 348.85 2222.09 352.022 Q2225.47 355.193 2225.47 360.61 Q2225.47 366.188 2221.99 369.29 Q2218.52 372.369 2212.2 372.369 Q2210.03 372.369 2207.76 371.998 Q2205.51 371.628 2203.1 370.887 L2203.1 366.188 Q2205.19 367.323 2207.41 367.878 Q2209.63 368.434 2212.11 368.434 Q2216.11 368.434 2218.45 366.327 Q2220.79 364.221 2220.79 360.61 Q2220.79 356.999 2218.45 354.892 Q2216.11 352.786 2212.11 352.786 Q2210.23 352.786 2208.36 353.202 Q2206.51 353.619 2204.56 354.499 L2204.56 337.138 Z" fill="#000000" fill-rule="nonzero" fill-opacity="1" /></svg>
