<?xml version="1.0" encoding="utf-8"?>
<svg xmlns="http://www.w3.org/2000/svg" xmlns:xlink="http://www.w3.org/1999/xlink" width="600" height="400" viewBox="0 0 2400 1600">
<defs>
  <clipPath id="clip260">
    <rect x="0" y="0" width="2400" height="1600"/>
  </clipPath>
</defs>
<path clip-path="url(#clip260)" d="M0 1600 L2400 1600 L2400 0 L0 0  Z" fill="#ffffff" fill-rule="evenodd" fill-opacity="1"/>
<defs>
  <clipPath id="clip261">
    <rect x="480" y="0" width="1681" height="1600"/>
  </clipPath>
</defs>
<path clip-path="url(#clip260)" d="M193.936 1486.45 L2352.76 1486.45 L2352.76 47.2441 L193.936 47.2441  Z" fill="#ffffff" fill-rule="evenodd" fill-opacity="1"/>
<defs>
  <clipPath id="clip262">
    <rect x="193" y="47" width="2160" height="1440"/>
  </clipPath>
</defs>
<polyline clip-path="url(#clip262)" style="stroke:#000000; stroke-linecap:round; stroke-linejoin:round; stroke-width:2; stroke-opacity:0.1; fill:none" points="255.035,1486.45 255.035,47.2441 "/>
<polyline clip-path="url(#clip262)" style="stroke:#000000; stroke-linecap:round; stroke-linejoin:round; stroke-width:2; stroke-opacity:0.1; fill:none" points="579.173,1486.45 579.173,47.2441 "/>
<polyline clip-path="url(#clip262)" style="stroke:#000000; stroke-linecap:round; stroke-linejoin:round; stroke-width:2; stroke-opacity:0.1; fill:none" points="903.312,1486.45 903.312,47.2441 "/>
<polyline clip-path="url(#clip262)" style="stroke:#000000; stroke-linecap:round; stroke-linejoin:round; stroke-width:2; stroke-opacity:0.1; fill:none" points="1227.45,1486.45 1227.45,47.2441 "/>
<polyline clip-path="url(#clip262)" style="stroke:#000000; stroke-linecap:round; stroke-linejoin:round; stroke-width:2; stroke-opacity:0.1; fill:none" points="1551.59,1486.45 1551.59,47.2441 "/>
<polyline clip-path="url(#clip262)" style="stroke:#000000; stroke-linecap:round; stroke-linejoin:round; stroke-width:2; stroke-opacity:0.1; fill:none" points="1875.73,1486.45 1875.73,47.2441 "/>
<polyline clip-path="url(#clip262)" style="stroke:#000000; stroke-linecap:round; stroke-linejoin:round; stroke-width:2; stroke-opacity:0.1; fill:none" points="2199.87,1486.45 2199.87,47.2441 "/>
<polyline clip-path="url(#clip262)" style="stroke:#000000; stroke-linecap:round; stroke-linejoin:round; stroke-width:2; stroke-opacity:0.1; fill:none" points="193.936,1259.1 2352.76,1259.1 "/>
<polyline clip-path="url(#clip262)" style="stroke:#000000; stroke-linecap:round; stroke-linejoin:round; stroke-width:2; stroke-opacity:0.1; fill:none" points="193.936,994.345 2352.76,994.345 "/>
<polyline clip-path="url(#clip262)" style="stroke:#000000; stroke-linecap:round; stroke-linejoin:round; stroke-width:2; stroke-opacity:0.1; fill:none" points="193.936,729.587 2352.76,729.587 "/>
<polyline clip-path="url(#clip262)" style="stroke:#000000; stroke-linecap:round; stroke-linejoin:round; stroke-width:2; stroke-opacity:0.1; fill:none" points="193.936,464.829 2352.76,464.829 "/>
<polyline clip-path="url(#clip262)" style="stroke:#000000; stroke-linecap:round; stroke-linejoin:round; stroke-width:2; stroke-opacity:0.1; fill:none" points="193.936,200.071 2352.76,200.071 "/>
<polyline clip-path="url(#clip260)" style="stroke:#000000; stroke-linecap:round; stroke-linejoin:round; stroke-width:4; stroke-opacity:1; fill:none" points="193.936,1486.45 2352.76,1486.45 "/>
<polyline clip-path="url(#clip260)" style="stroke:#000000; stroke-linecap:round; stroke-linejoin:round; stroke-width:4; stroke-opacity:1; fill:none" points="255.035,1486.45 255.035,1467.55 "/>
<polyline clip-path="url(#clip260)" style="stroke:#000000; stroke-linecap:round; stroke-linejoin:round; stroke-width:4; stroke-opacity:1; fill:none" points="579.173,1486.45 579.173,1467.55 "/>
<polyline clip-path="url(#clip260)" style="stroke:#000000; stroke-linecap:round; stroke-linejoin:round; stroke-width:4; stroke-opacity:1; fill:none" points="903.312,1486.45 903.312,1467.55 "/>
<polyline clip-path="url(#clip260)" style="stroke:#000000; stroke-linecap:round; stroke-linejoin:round; stroke-width:4; stroke-opacity:1; fill:none" points="1227.45,1486.45 1227.45,1467.55 "/>
<polyline clip-path="url(#clip260)" style="stroke:#000000; stroke-linecap:round; stroke-linejoin:round; stroke-width:4; stroke-opacity:1; fill:none" points="1551.59,1486.45 1551.59,1467.55 "/>
<polyline clip-path="url(#clip260)" style="stroke:#000000; stroke-linecap:round; stroke-linejoin:round; stroke-width:4; stroke-opacity:1; fill:none" points="1875.73,1486.45 1875.73,1467.55 "/>
<polyline clip-path="url(#clip260)" style="stroke:#000000; stroke-linecap:round; stroke-linejoin:round; stroke-width:4; stroke-opacity:1; fill:none" points="2199.87,1486.45 2199.87,1467.55 "/>
<path clip-path="url(#clip260)" d="M255.035 1517.37 Q251.424 1517.37 249.595 1520.93 Q247.789 1524.47 247.789 1531.6 Q247.789 1538.71 249.595 1542.27 Q251.424 1545.82 255.035 1545.82 Q258.669 1545.82 260.474 1542.27 Q262.303 1538.71 262.303 1531.6 Q262.303 1524.47 260.474 1520.93 Q258.669 1517.37 255.035 1517.37 M255.035 1513.66 Q260.845 1513.66 263.9 1518.27 Q266.979 1522.85 266.979 1531.6 Q266.979 1540.33 263.9 1544.94 Q260.845 1549.52 255.035 1549.52 Q249.225 1549.52 246.146 1544.94 Q243.09 1540.33 243.09 1531.6 Q243.09 1522.85 246.146 1518.27 Q249.225 1513.66 255.035 1513.66 Z" fill="#000000" fill-rule="nonzero" fill-opacity="1" /><path clip-path="url(#clip260)" d="M569.555 1544.91 L577.194 1544.91 L577.194 1518.55 L568.884 1520.21 L568.884 1515.95 L577.148 1514.29 L581.824 1514.29 L581.824 1544.91 L589.463 1544.91 L589.463 1548.85 L569.555 1548.85 L569.555 1544.91 Z" fill="#000000" fill-rule="nonzero" fill-opacity="1" /><path clip-path="url(#clip260)" d="M897.965 1544.91 L914.284 1544.91 L914.284 1548.85 L892.34 1548.85 L892.34 1544.91 Q895.002 1542.16 899.585 1537.53 Q904.191 1532.88 905.372 1531.53 Q907.617 1529.01 908.497 1527.27 Q909.4 1525.51 909.4 1523.82 Q909.4 1521.07 907.455 1519.33 Q905.534 1517.6 902.432 1517.6 Q900.233 1517.6 897.779 1518.36 Q895.349 1519.13 892.571 1520.68 L892.571 1515.95 Q895.395 1514.82 897.849 1514.24 Q900.303 1513.66 902.34 1513.66 Q907.71 1513.66 910.904 1516.35 Q914.099 1519.03 914.099 1523.52 Q914.099 1525.65 913.289 1527.57 Q912.502 1529.47 910.395 1532.07 Q909.816 1532.74 906.715 1535.95 Q903.613 1539.15 897.965 1544.91 Z" fill="#000000" fill-rule="nonzero" fill-opacity="1" /><path clip-path="url(#clip260)" d="M1231.7 1530.21 Q1235.05 1530.93 1236.93 1533.2 Q1238.83 1535.47 1238.83 1538.8 Q1238.83 1543.92 1235.31 1546.72 Q1231.79 1549.52 1225.31 1549.52 Q1223.13 1549.52 1220.82 1549.08 Q1218.53 1548.66 1216.07 1547.81 L1216.07 1543.29 Q1218.02 1544.43 1220.33 1545.01 Q1222.65 1545.58 1225.17 1545.58 Q1229.57 1545.58 1231.86 1543.85 Q1234.17 1542.11 1234.17 1538.8 Q1234.17 1535.75 1232.02 1534.03 Q1229.89 1532.3 1226.07 1532.3 L1222.05 1532.3 L1222.05 1528.45 L1226.26 1528.45 Q1229.71 1528.45 1231.54 1527.09 Q1233.36 1525.7 1233.36 1523.11 Q1233.36 1520.45 1231.47 1519.03 Q1229.59 1517.6 1226.07 1517.6 Q1224.15 1517.6 1221.95 1518.01 Q1219.75 1518.43 1217.11 1519.31 L1217.11 1515.14 Q1219.78 1514.4 1222.09 1514.03 Q1224.43 1513.66 1226.49 1513.66 Q1231.81 1513.66 1234.92 1516.09 Q1238.02 1518.5 1238.02 1522.62 Q1238.02 1525.49 1236.37 1527.48 Q1234.73 1529.45 1231.7 1530.21 Z" fill="#000000" fill-rule="nonzero" fill-opacity="1" /><path clip-path="url(#clip260)" d="M1554.6 1518.36 L1542.79 1536.81 L1554.6 1536.81 L1554.6 1518.36 M1553.37 1514.29 L1559.25 1514.29 L1559.25 1536.81 L1564.18 1536.81 L1564.18 1540.7 L1559.25 1540.7 L1559.25 1548.85 L1554.6 1548.85 L1554.6 1540.7 L1539 1540.7 L1539 1536.19 L1553.37 1514.29 Z" fill="#000000" fill-rule="nonzero" fill-opacity="1" /><path clip-path="url(#clip260)" d="M1866.01 1514.29 L1884.36 1514.29 L1884.36 1518.22 L1870.29 1518.22 L1870.29 1526.7 Q1871.31 1526.35 1872.32 1526.19 Q1873.34 1526 1874.36 1526 Q1880.15 1526 1883.53 1529.17 Q1886.91 1532.34 1886.91 1537.76 Q1886.91 1543.34 1883.44 1546.44 Q1879.96 1549.52 1873.64 1549.52 Q1871.47 1549.52 1869.2 1549.15 Q1866.95 1548.78 1864.55 1548.04 L1864.55 1543.34 Q1866.63 1544.47 1868.85 1545.03 Q1871.07 1545.58 1873.55 1545.58 Q1877.56 1545.58 1879.89 1543.48 Q1882.23 1541.37 1882.23 1537.76 Q1882.23 1534.15 1879.89 1532.04 Q1877.56 1529.94 1873.55 1529.94 Q1871.68 1529.94 1869.8 1530.35 Q1867.95 1530.77 1866.01 1531.65 L1866.01 1514.29 Z" fill="#000000" fill-rule="nonzero" fill-opacity="1" /><path clip-path="url(#clip260)" d="M2200.27 1529.7 Q2197.12 1529.7 2195.27 1531.86 Q2193.44 1534.01 2193.44 1537.76 Q2193.44 1541.49 2195.27 1543.66 Q2197.12 1545.82 2200.27 1545.82 Q2203.42 1545.82 2205.25 1543.66 Q2207.1 1541.49 2207.1 1537.76 Q2207.1 1534.01 2205.25 1531.86 Q2203.42 1529.7 2200.27 1529.7 M2209.55 1515.05 L2209.55 1519.31 Q2207.79 1518.48 2205.99 1518.04 Q2204.21 1517.6 2202.45 1517.6 Q2197.82 1517.6 2195.36 1520.72 Q2192.93 1523.85 2192.59 1530.17 Q2193.95 1528.15 2196.01 1527.09 Q2198.07 1526 2200.55 1526 Q2205.76 1526 2208.77 1529.17 Q2211.8 1532.32 2211.8 1537.76 Q2211.8 1543.08 2208.65 1546.3 Q2205.5 1549.52 2200.27 1549.52 Q2194.28 1549.52 2191.1 1544.94 Q2187.93 1540.33 2187.93 1531.6 Q2187.93 1523.41 2191.82 1518.55 Q2195.71 1513.66 2202.26 1513.66 Q2204.02 1513.66 2205.8 1514.01 Q2207.61 1514.36 2209.55 1515.05 Z" fill="#000000" fill-rule="nonzero" fill-opacity="1" /><polyline clip-path="url(#clip260)" style="stroke:#000000; stroke-linecap:round; stroke-linejoin:round; stroke-width:4; stroke-opacity:1; fill:none" points="193.936,1486.45 193.936,47.2441 "/>
<polyline clip-path="url(#clip260)" style="stroke:#000000; stroke-linecap:round; stroke-linejoin:round; stroke-width:4; stroke-opacity:1; fill:none" points="193.936,1259.1 212.834,1259.1 "/>
<polyline clip-path="url(#clip260)" style="stroke:#000000; stroke-linecap:round; stroke-linejoin:round; stroke-width:4; stroke-opacity:1; fill:none" points="193.936,994.345 212.834,994.345 "/>
<polyline clip-path="url(#clip260)" style="stroke:#000000; stroke-linecap:round; stroke-linejoin:round; stroke-width:4; stroke-opacity:1; fill:none" points="193.936,729.587 212.834,729.587 "/>
<polyline clip-path="url(#clip260)" style="stroke:#000000; stroke-linecap:round; stroke-linejoin:round; stroke-width:4; stroke-opacity:1; fill:none" points="193.936,464.829 212.834,464.829 "/>
<polyline clip-path="url(#clip260)" style="stroke:#000000; stroke-linecap:round; stroke-linejoin:round; stroke-width:4; stroke-opacity:1; fill:none" points="193.936,200.071 212.834,200.071 "/>
<path clip-path="url(#clip260)" d="M50.9921 1259.55 L80.6679 1259.55 L80.6679 1263.49 L50.9921 1263.49 L50.9921 1259.55 Z" fill="#000000" fill-rule="nonzero" fill-opacity="1" /><path clip-path="url(#clip260)" d="M91.5706 1272.45 L99.2095 1272.45 L99.2095 1246.08 L90.8993 1247.75 L90.8993 1243.49 L99.1632 1241.82 L103.839 1241.82 L103.839 1272.45 L111.478 1272.45 L111.478 1276.38 L91.5706 1276.38 L91.5706 1272.45 Z" fill="#000000" fill-rule="nonzero" fill-opacity="1" /><path clip-path="url(#clip260)" d="M120.922 1270.5 L125.807 1270.5 L125.807 1276.38 L120.922 1276.38 L120.922 1270.5 Z" fill="#000000" fill-rule="nonzero" fill-opacity="1" /><path clip-path="url(#clip260)" d="M145.992 1244.9 Q142.381 1244.9 140.552 1248.47 Q138.746 1252.01 138.746 1259.14 Q138.746 1266.24 140.552 1269.81 Q142.381 1273.35 145.992 1273.35 Q149.626 1273.35 151.431 1269.81 Q153.26 1266.24 153.26 1259.14 Q153.26 1252.01 151.431 1248.47 Q149.626 1244.9 145.992 1244.9 M145.992 1241.2 Q151.802 1241.2 154.857 1245.8 Q157.936 1250.39 157.936 1259.14 Q157.936 1267.86 154.857 1272.47 Q151.802 1277.05 145.992 1277.05 Q140.181 1277.05 137.103 1272.47 Q134.047 1267.86 134.047 1259.14 Q134.047 1250.39 137.103 1245.8 Q140.181 1241.2 145.992 1241.2 Z" fill="#000000" fill-rule="nonzero" fill-opacity="1" /><path clip-path="url(#clip260)" d="M51.9875 994.796 L81.6633 994.796 L81.6633 998.731 L51.9875 998.731 L51.9875 994.796 Z" fill="#000000" fill-rule="nonzero" fill-opacity="1" /><path clip-path="url(#clip260)" d="M101.756 980.143 Q98.1447 980.143 96.316 983.708 Q94.5104 987.25 94.5104 994.379 Q94.5104 1001.49 96.316 1005.05 Q98.1447 1008.59 101.756 1008.59 Q105.39 1008.59 107.196 1005.05 Q109.024 1001.49 109.024 994.379 Q109.024 987.25 107.196 983.708 Q105.39 980.143 101.756 980.143 M101.756 976.44 Q107.566 976.44 110.621 981.046 Q113.7 985.629 113.7 994.379 Q113.7 1003.11 110.621 1007.71 Q107.566 1012.3 101.756 1012.3 Q95.9456 1012.3 92.8669 1007.71 Q89.8114 1003.11 89.8114 994.379 Q89.8114 985.629 92.8669 981.046 Q95.9456 976.44 101.756 976.44 Z" fill="#000000" fill-rule="nonzero" fill-opacity="1" /><path clip-path="url(#clip260)" d="M121.918 1005.75 L126.802 1005.75 L126.802 1011.62 L121.918 1011.62 L121.918 1005.75 Z" fill="#000000" fill-rule="nonzero" fill-opacity="1" /><path clip-path="url(#clip260)" d="M137.033 977.065 L155.39 977.065 L155.39 981 L141.316 981 L141.316 989.472 Q142.334 989.125 143.353 988.963 Q144.371 988.778 145.39 988.778 Q151.177 988.778 154.556 991.949 Q157.936 995.12 157.936 1000.54 Q157.936 1006.12 154.464 1009.22 Q150.992 1012.3 144.672 1012.3 Q142.496 1012.3 140.228 1011.93 Q137.982 1011.56 135.575 1010.81 L135.575 1006.12 Q137.658 1007.25 139.881 1007.81 Q142.103 1008.36 144.58 1008.36 Q148.584 1008.36 150.922 1006.25 Q153.26 1004.15 153.26 1000.54 Q153.26 996.926 150.922 994.819 Q148.584 992.713 144.58 992.713 Q142.705 992.713 140.83 993.129 Q138.978 993.546 137.033 994.426 L137.033 977.065 Z" fill="#000000" fill-rule="nonzero" fill-opacity="1" /><path clip-path="url(#clip260)" d="M100.76 715.385 Q97.1493 715.385 95.3206 718.95 Q93.515 722.492 93.515 729.621 Q93.515 736.728 95.3206 740.293 Q97.1493 743.834 100.76 743.834 Q104.395 743.834 106.2 740.293 Q108.029 736.728 108.029 729.621 Q108.029 722.492 106.2 718.95 Q104.395 715.385 100.76 715.385 M100.76 711.682 Q106.571 711.682 109.626 716.288 Q112.705 720.871 112.705 729.621 Q112.705 738.348 109.626 742.955 Q106.571 747.538 100.76 747.538 Q94.9502 747.538 91.8715 742.955 Q88.816 738.348 88.816 729.621 Q88.816 720.871 91.8715 716.288 Q94.9502 711.682 100.76 711.682 Z" fill="#000000" fill-rule="nonzero" fill-opacity="1" /><path clip-path="url(#clip260)" d="M120.922 740.987 L125.807 740.987 L125.807 746.867 L120.922 746.867 L120.922 740.987 Z" fill="#000000" fill-rule="nonzero" fill-opacity="1" /><path clip-path="url(#clip260)" d="M145.992 715.385 Q142.381 715.385 140.552 718.95 Q138.746 722.492 138.746 729.621 Q138.746 736.728 140.552 740.293 Q142.381 743.834 145.992 743.834 Q149.626 743.834 151.431 740.293 Q153.26 736.728 153.26 729.621 Q153.26 722.492 151.431 718.95 Q149.626 715.385 145.992 715.385 M145.992 711.682 Q151.802 711.682 154.857 716.288 Q157.936 720.871 157.936 729.621 Q157.936 738.348 154.857 742.955 Q151.802 747.538 145.992 747.538 Q140.181 747.538 137.103 742.955 Q134.047 738.348 134.047 729.621 Q134.047 720.871 137.103 716.288 Q140.181 711.682 145.992 711.682 Z" fill="#000000" fill-rule="nonzero" fill-opacity="1" /><path clip-path="url(#clip260)" d="M101.756 450.627 Q98.1447 450.627 96.316 454.192 Q94.5104 457.734 94.5104 464.863 Q94.5104 471.97 96.316 475.535 Q98.1447 479.076 101.756 479.076 Q105.39 479.076 107.196 475.535 Q109.024 471.97 109.024 464.863 Q109.024 457.734 107.196 454.192 Q105.39 450.627 101.756 450.627 M101.756 446.924 Q107.566 446.924 110.621 451.53 Q113.7 456.114 113.7 464.863 Q113.7 473.59 110.621 478.197 Q107.566 482.78 101.756 482.78 Q95.9456 482.78 92.8669 478.197 Q89.8114 473.59 89.8114 464.863 Q89.8114 456.114 92.8669 451.53 Q95.9456 446.924 101.756 446.924 Z" fill="#000000" fill-rule="nonzero" fill-opacity="1" /><path clip-path="url(#clip260)" d="M121.918 476.229 L126.802 476.229 L126.802 482.109 L121.918 482.109 L121.918 476.229 Z" fill="#000000" fill-rule="nonzero" fill-opacity="1" /><path clip-path="url(#clip260)" d="M137.033 447.549 L155.39 447.549 L155.39 451.484 L141.316 451.484 L141.316 459.956 Q142.334 459.609 143.353 459.447 Q144.371 459.262 145.39 459.262 Q151.177 459.262 154.556 462.433 Q157.936 465.604 157.936 471.021 Q157.936 476.6 154.464 479.701 Q150.992 482.78 144.672 482.78 Q142.496 482.78 140.228 482.41 Q137.982 482.039 135.575 481.299 L135.575 476.6 Q137.658 477.734 139.881 478.289 Q142.103 478.845 144.58 478.845 Q148.584 478.845 150.922 476.738 Q153.26 474.632 153.26 471.021 Q153.26 467.41 150.922 465.303 Q148.584 463.197 144.58 463.197 Q142.705 463.197 140.83 463.613 Q138.978 464.03 137.033 464.91 L137.033 447.549 Z" fill="#000000" fill-rule="nonzero" fill-opacity="1" /><path clip-path="url(#clip260)" d="M91.5706 213.416 L99.2095 213.416 L99.2095 187.05 L90.8993 188.717 L90.8993 184.457 L99.1632 182.791 L103.839 182.791 L103.839 213.416 L111.478 213.416 L111.478 217.351 L91.5706 217.351 L91.5706 213.416 Z" fill="#000000" fill-rule="nonzero" fill-opacity="1" /><path clip-path="url(#clip260)" d="M120.922 211.471 L125.807 211.471 L125.807 217.351 L120.922 217.351 L120.922 211.471 Z" fill="#000000" fill-rule="nonzero" fill-opacity="1" /><path clip-path="url(#clip260)" d="M145.992 185.87 Q142.381 185.87 140.552 189.434 Q138.746 192.976 138.746 200.106 Q138.746 207.212 140.552 210.777 Q142.381 214.318 145.992 214.318 Q149.626 214.318 151.431 210.777 Q153.26 207.212 153.26 200.106 Q153.26 192.976 151.431 189.434 Q149.626 185.87 145.992 185.87 M145.992 182.166 Q151.802 182.166 154.857 186.772 Q157.936 191.356 157.936 200.106 Q157.936 208.832 154.857 213.439 Q151.802 218.022 145.992 218.022 Q140.181 218.022 137.103 213.439 Q134.047 208.832 134.047 200.106 Q134.047 191.356 137.103 186.772 Q140.181 182.166 145.992 182.166 Z" fill="#000000" fill-rule="nonzero" fill-opacity="1" /><polyline clip-path="url(#clip262)" style="stroke:#009af9; stroke-linecap:round; stroke-linejoin:round; stroke-width:4; stroke-opacity:1; fill:none" points="255.035,729.587 258.276,724.292 261.517,718.997 264.759,713.704 268,708.412 271.242,703.122 274.483,697.835 277.724,692.551 280.966,687.271 284.207,681.995 287.449,676.723 290.69,671.457 293.931,666.197 297.173,660.943 300.414,655.696 303.655,650.457 306.897,645.225 310.138,640.002 313.38,634.788 316.621,629.583 319.862,624.388 323.104,619.204 326.345,614.031 329.587,608.869 332.828,603.719 336.069,598.582 339.311,593.458 342.552,588.348 345.793,583.252 349.035,578.17 352.276,573.104 355.518,568.053 358.759,563.019 362,558.001 365.242,553 368.483,548.017 371.725,543.052 374.966,538.106 378.207,533.178 381.449,528.271 384.69,523.383 387.931,518.517 391.173,513.671 394.414,508.847 397.656,504.045 400.897,499.266 404.138,494.509 407.38,489.776 410.621,485.067 413.863,480.383 417.104,475.723 420.345,471.089 423.587,466.481 426.828,461.899 430.069,457.344 433.311,452.816 436.552,448.315 439.794,443.843 443.035,439.399 446.276,434.985 449.518,430.6 452.759,426.244 456.001,421.919 459.242,417.625 462.483,413.362 465.725,409.131 468.966,404.932 472.208,400.765 475.449,396.631 478.69,392.53 481.932,388.463 485.173,384.43 488.414,380.432 491.656,376.469 494.897,372.541 498.139,368.648 501.38,364.792 504.621,360.972 507.863,357.189 511.104,353.443 514.346,349.735 517.587,346.065 520.828,342.433 524.07,338.84 527.311,335.286 530.552,331.772 533.794,328.297 537.035,324.862 540.277,321.468 543.518,318.115 546.759,314.803 550.001,311.532 553.242,308.303 556.484,305.116 559.725,301.972 562.966,298.87 566.208,295.812 569.449,292.797 572.69,289.825 575.932,286.898 579.173,284.014 582.415,281.176 585.656,278.382 588.897,275.633 592.139,272.93 595.38,270.272 598.622,267.661 601.863,265.095 605.104,262.576 608.346,260.104 611.587,257.678 614.828,255.3 618.07,252.969 621.311,250.686 624.553,248.451 627.794,246.264 631.035,244.125 634.277,242.035 637.518,239.993 640.76,238.001 644.001,236.057 647.242,234.163 650.484,232.319 653.725,230.524 656.966,228.779 660.208,227.084 663.449,225.44 666.691,223.846 669.932,222.302 673.173,220.809 676.415,219.367 679.656,217.976 682.898,216.637 686.139,215.348 689.38,214.111 692.622,212.926 695.863,211.792 699.104,210.71 702.346,209.68 705.587,208.702 708.829,207.775 712.07,206.902 715.311,206.08 718.553,205.311 721.794,204.594 725.036,203.929 728.277,203.318 731.518,202.758 734.76,202.252 738.001,201.798 741.242,201.397 744.484,201.049 747.725,200.754 750.967,200.511 754.208,200.322 757.449,200.185 760.691,200.102 763.932,200.071 767.174,200.093 770.415,200.168 773.656,200.297 776.898,200.478 780.139,200.712 783.381,200.999 786.622,201.338 789.863,201.731 793.105,202.176 796.346,202.674 799.587,203.225 802.829,203.828 806.07,204.484 809.312,205.193 812.553,205.954 815.794,206.767 819.036,207.633 822.277,208.551 825.519,209.52 828.76,210.542 832.001,211.616 835.243,212.742 838.484,213.919 841.725,215.148 844.967,216.428 848.208,217.76 851.45,219.142 854.691,220.576 857.932,222.061 861.174,223.596 864.415,225.182 867.657,226.819 870.898,228.506 874.139,230.243 877.381,232.03 880.622,233.866 883.863,235.752 887.105,237.688 890.346,239.673 893.588,241.706 896.829,243.789 900.07,245.92 903.312,248.099 906.553,250.327 909.795,252.602 913.036,254.926 916.277,257.296 919.519,259.714 922.76,262.179 926.001,264.691 929.243,267.249 932.484,269.853 935.726,272.504 938.967,275.2 942.208,277.941 945.45,280.728 948.691,283.559 951.933,286.436 955.174,289.356 958.415,292.32 961.657,295.329 964.898,298.38 968.139,301.475 971.381,304.613 974.622,307.793 977.864,311.015 981.105,314.279 984.346,317.585 987.588,320.931 990.829,324.319 994.071,327.747 997.312,331.216 1000.55,334.724 1003.79,338.272 1007.04,341.859 1010.28,345.484 1013.52,349.148 1016.76,352.85 1020,356.59 1023.24,360.367 1026.48,364.181 1029.73,368.032 1032.97,371.918 1036.21,375.841 1039.45,379.798 1042.69,383.791 1045.93,387.819 1049.17,391.88 1052.42,395.975 1055.66,400.104 1058.9,404.266 1062.14,408.46 1065.38,412.686 1068.62,416.944 1071.86,421.233 1075.11,425.553 1078.35,429.904 1081.59,434.284 1084.83,438.694 1088.07,443.133 1091.31,447.601 1094.55,452.097 1097.79,456.621 1101.04,461.171 1104.28,465.749 1107.52,470.353 1110.76,474.983 1114,479.639 1117.24,484.32 1120.48,489.025 1123.73,493.754 1126.97,498.506 1130.21,503.282 1133.45,508.081 1136.69,512.901 1139.93,517.744 1143.17,522.607 1146.42,527.491 1149.66,532.395 1152.9,537.32 1156.14,542.263 1159.38,547.225 1162.62,552.205 1165.86,557.203 1169.11,562.218 1172.35,567.25 1175.59,572.299 1178.83,577.363 1182.07,582.442 1185.31,587.536 1188.55,592.644 1191.8,597.765 1195.04,602.9 1198.28,608.048 1201.52,613.208 1204.76,618.379 1208,623.562 1211.24,628.755 1214.48,633.958 1217.73,639.171 1220.97,644.393 1224.21,649.623 1227.45,654.861 1230.69,660.107 1233.93,665.36 1237.17,670.619 1240.42,675.884 1243.66,681.155 1246.9,686.43 1250.14,691.71 1253.38,696.993 1256.62,702.28 1259.86,707.569 1263.11,712.861 1266.35,718.154 1269.59,723.448 1272.83,728.743 1276.07,734.038 1279.31,739.333 1282.55,744.627 1285.8,749.919 1289.04,755.209 1292.28,760.497 1295.52,765.781 1298.76,771.062 1302,776.339 1305.24,781.611 1308.48,786.878 1311.73,792.139 1314.97,797.394 1318.21,802.642 1321.45,807.883 1324.69,813.116 1327.93,818.34 1331.17,823.556 1334.42,828.762 1337.66,833.959 1340.9,839.145 1344.14,844.32 1347.38,849.483 1350.62,854.635 1353.86,859.774 1357.11,864.9 1360.35,870.012 1363.59,875.111 1366.83,880.195 1370.07,885.263 1373.31,890.317 1376.55,895.354 1379.8,900.375 1383.04,905.378 1386.28,910.364 1389.52,915.332 1392.76,920.281 1396,925.212 1399.24,930.122 1402.49,935.013 1405.73,939.883 1408.97,944.732 1412.21,949.56 1415.45,954.365 1418.69,959.148 1421.93,963.908 1425.17,968.645 1428.42,973.358 1431.66,978.046 1434.9,982.71 1438.14,987.348 1441.38,991.96 1444.62,996.547 1447.86,1001.11 1451.11,1005.64 1454.35,1010.14 1457.59,1014.62 1460.83,1019.07 1464.07,1023.49 1467.31,1027.88 1470.55,1032.24 1473.8,1036.57 1477.04,1040.87 1480.28,1045.13 1483.52,1049.37 1486.76,1053.58 1490,1057.75 1493.24,1061.89 1496.49,1065.99 1499.73,1070.06 1502.97,1074.1 1506.21,1078.11 1509.45,1082.08 1512.69,1086.01 1515.93,1089.91 1519.18,1093.77 1522.42,1097.6 1525.66,1101.38 1528.9,1105.14 1532.14,1108.85 1535.38,1112.53 1538.62,1116.16 1541.86,1119.76 1545.11,1123.32 1548.35,1126.84 1551.59,1130.33 1554.83,1133.77 1558.07,1137.17 1561.31,1140.53 1564.55,1143.85 1567.8,1147.12 1571.04,1150.36 1574.28,1153.55 1577.52,1156.7 1580.76,1159.81 1584,1162.88 1587.24,1165.9 1590.49,1168.88 1593.73,1171.81 1596.97,1174.7 1600.21,1177.55 1603.45,1180.35 1606.69,1183.11 1609.93,1185.82 1613.18,1188.48 1616.42,1191.1 1619.66,1193.67 1622.9,1196.2 1626.14,1198.68 1629.38,1201.11 1632.62,1203.5 1635.86,1205.84 1639.11,1208.13 1642.35,1210.37 1645.59,1212.56 1648.83,1214.71 1652.07,1216.81 1655.31,1218.86 1658.55,1220.86 1661.8,1222.81 1665.04,1224.71 1668.28,1226.56 1671.52,1228.37 1674.76,1230.12 1678,1231.82 1681.24,1233.48 1684.49,1235.08 1687.73,1236.63 1690.97,1238.13 1694.21,1239.58 1697.45,1240.98 1700.69,1242.33 1703.93,1243.62 1707.18,1244.87 1710.42,1246.06 1713.66,1247.2 1716.9,1248.29 1720.14,1249.33 1723.38,1250.32 1726.62,1251.25 1729.87,1252.14 1733.11,1252.97 1736.35,1253.74 1739.59,1254.47 1742.83,1255.14 1746.07,1255.76 1749.31,1256.33 1752.55,1256.84 1755.8,1257.31 1759.04,1257.72 1762.28,1258.07 1765.52,1258.38 1768.76,1258.63 1772,1258.82 1775.24,1258.97 1778.49,1259.06 1781.73,1259.1 1784.97,1259.09 1788.21,1259.02 1791.45,1258.9 1794.69,1258.73 1797.93,1258.5 1801.18,1258.22 1804.42,1257.89 1807.66,1257.51 1810.9,1257.07 1814.14,1256.58 1817.38,1256.04 1820.62,1255.44 1823.87,1254.8 1827.11,1254.1 1830.35,1253.34 1833.59,1252.54 1836.83,1251.68 1840.07,1250.77 1843.31,1249.81 1846.55,1248.8 1849.8,1247.73 1853.04,1246.61 1856.28,1245.45 1859.52,1244.22 1862.76,1242.95 1866,1241.63 1869.24,1240.25 1872.49,1238.83 1875.73,1237.35 1878.97,1235.82 1882.21,1234.25 1885.45,1232.62 1888.69,1230.94 1891.93,1229.21 1895.18,1227.43 1898.42,1225.6 1901.66,1223.72 1904.9,1221.8 1908.14,1219.82 1911.38,1217.79 1914.62,1215.72 1917.87,1213.6 1921.11,1211.42 1924.35,1209.2 1927.59,1206.94 1930.83,1204.62 1934.07,1202.26 1937.31,1199.85 1940.56,1197.39 1943.8,1194.89 1947.04,1192.33 1950.28,1189.74 1953.52,1187.09 1956.76,1184.41 1960,1181.67 1963.24,1178.89 1966.49,1176.07 1969.73,1173.2 1972.97,1170.29 1976.21,1167.33 1979.45,1164.33 1982.69,1161.28 1985.93,1158.19 1989.18,1155.06 1992.42,1151.89 1995.66,1148.67 1998.9,1145.42 2002.14,1142.12 2005.38,1138.78 2008.62,1135.4 2011.87,1131.97 2015.11,1128.51 2018.35,1125.01 2021.59,1121.47 2024.83,1117.89 2028.07,1114.27 2031.31,1110.61 2034.56,1106.92 2037.8,1103.18 2041.04,1099.41 2044.28,1095.6 2047.52,1091.76 2050.76,1087.88 2054,1083.96 2057.24,1080.01 2060.49,1076.02 2063.73,1072 2066.97,1067.94 2070.21,1063.85 2073.45,1059.73 2076.69,1055.57 2079.93,1051.38 2083.18,1047.16 2086.42,1042.91 2089.66,1038.63 2092.9,1034.31 2096.14,1029.96 2099.38,1025.59 2102.62,1021.18 2105.87,1016.75 2109.11,1012.29 2112.35,1007.79 2115.59,1003.28 2118.83,998.729 2122.07,994.155 2125.31,989.555 2128.56,984.929 2131.8,980.277 2135.04,975.601 2138.28,970.9 2141.52,966.174 2144.76,961.425 2148,956.653 2151.25,951.858 2154.49,947.041 2157.73,942.202 2160.97,937.342 2164.21,932.461 2167.45,927.56 2170.69,922.639 2173.93,917.699 2177.18,912.74 2180.42,907.763 2183.66,902.767 2186.9,897.755 2190.14,892.726 2193.38,887.68 2196.62,882.618 2199.87,877.542 2203.11,872.45 2206.35,867.344 2209.59,862.225 2212.83,857.092 2216.07,851.946 2219.31,846.788 2222.56,841.619 2225.8,836.438 2229.04,831.246 2232.28,826.045 2235.52,820.833 2238.76,815.613 2242,810.384 2245.25,805.147 2248.49,799.902 2251.73,794.65 2254.97,789.392 2258.21,784.128 2261.45,778.858 2264.69,773.584 2267.94,768.305 2271.18,763.022 2274.42,757.736 2277.66,752.447 2280.9,747.156 2284.14,741.863 2287.38,736.568 2290.62,731.273 "/>
<circle clip-path="url(#clip262)" cx="255.035" cy="712.825" r="14.4" fill="#e26f46" fill-rule="evenodd" fill-opacity="1" stroke="#000000" stroke-opacity="1" stroke-width="3.2"/>
<circle clip-path="url(#clip262)" cx="475.449" cy="478.344" r="14.4" fill="#e26f46" fill-rule="evenodd" fill-opacity="1" stroke="#000000" stroke-opacity="1" stroke-width="3.2"/>
<circle clip-path="url(#clip262)" cx="1713.66" cy="1129" r="14.4" fill="#e26f46" fill-rule="evenodd" fill-opacity="1" stroke="#000000" stroke-opacity="1" stroke-width="3.2"/>
<circle clip-path="url(#clip262)" cx="1972.97" cy="1225.35" r="14.4" fill="#e26f46" fill-rule="evenodd" fill-opacity="1" stroke="#000000" stroke-opacity="1" stroke-width="3.2"/>
<circle clip-path="url(#clip262)" cx="916.277" cy="149.108" r="14.4" fill="#e26f46" fill-rule="evenodd" fill-opacity="1" stroke="#000000" stroke-opacity="1" stroke-width="3.2"/>
<circle clip-path="url(#clip262)" cx="819.036" cy="255.819" r="14.4" fill="#e26f46" fill-rule="evenodd" fill-opacity="1" stroke="#000000" stroke-opacity="1" stroke-width="3.2"/>
<circle clip-path="url(#clip262)" cx="780.139" cy="317.175" r="14.4" fill="#e26f46" fill-rule="evenodd" fill-opacity="1" stroke="#000000" stroke-opacity="1" stroke-width="3.2"/>
<circle clip-path="url(#clip262)" cx="799.587" cy="222.296" r="14.4" fill="#e26f46" fill-rule="evenodd" fill-opacity="1" stroke="#000000" stroke-opacity="1" stroke-width="3.2"/>
<circle clip-path="url(#clip262)" cx="796.346" cy="109.327" r="14.4" fill="#e26f46" fill-rule="evenodd" fill-opacity="1" stroke="#000000" stroke-opacity="1" stroke-width="3.2"/>
<circle clip-path="url(#clip262)" cx="2232.28" cy="886.992" r="14.4" fill="#e26f46" fill-rule="evenodd" fill-opacity="1" stroke="#000000" stroke-opacity="1" stroke-width="3.2"/>
<circle clip-path="url(#clip262)" cx="1023.24" cy="347.834" r="14.4" fill="#e26f46" fill-rule="evenodd" fill-opacity="1" stroke="#000000" stroke-opacity="1" stroke-width="3.2"/>
<circle clip-path="url(#clip262)" cx="1130.21" cy="619.323" r="14.4" fill="#e26f46" fill-rule="evenodd" fill-opacity="1" stroke="#000000" stroke-opacity="1" stroke-width="3.2"/>
<circle clip-path="url(#clip262)" cx="1412.21" cy="895.656" r="14.4" fill="#e26f46" fill-rule="evenodd" fill-opacity="1" stroke="#000000" stroke-opacity="1" stroke-width="3.2"/>
<circle clip-path="url(#clip262)" cx="2287.38" cy="739.724" r="14.4" fill="#e26f46" fill-rule="evenodd" fill-opacity="1" stroke="#000000" stroke-opacity="1" stroke-width="3.2"/>
<circle clip-path="url(#clip262)" cx="718.553" cy="199.9" r="14.4" fill="#e26f46" fill-rule="evenodd" fill-opacity="1" stroke="#000000" stroke-opacity="1" stroke-width="3.2"/>
<circle clip-path="url(#clip262)" cx="258.276" cy="739.712" r="14.4" fill="#e26f46" fill-rule="evenodd" fill-opacity="1" stroke="#000000" stroke-opacity="1" stroke-width="3.2"/>
<circle clip-path="url(#clip262)" cx="1723.38" cy="1367.61" r="14.4" fill="#e26f46" fill-rule="evenodd" fill-opacity="1" stroke="#000000" stroke-opacity="1" stroke-width="3.2"/>
<circle clip-path="url(#clip262)" cx="1156.14" cy="464.708" r="14.4" fill="#e26f46" fill-rule="evenodd" fill-opacity="1" stroke="#000000" stroke-opacity="1" stroke-width="3.2"/>
<circle clip-path="url(#clip262)" cx="530.552" cy="391.975" r="14.4" fill="#e26f46" fill-rule="evenodd" fill-opacity="1" stroke="#000000" stroke-opacity="1" stroke-width="3.2"/>
<circle clip-path="url(#clip262)" cx="932.484" cy="304.388" r="14.4" fill="#e26f46" fill-rule="evenodd" fill-opacity="1" stroke="#000000" stroke-opacity="1" stroke-width="3.2"/>
<path clip-path="url(#clip262)" d="M255.035 907.926 L258.276 904.961 L261.517 902.174 L264.759 899.554 L268 897.09 L271.242 894.767 L274.483 892.573 L277.724 890.493 L280.966 888.513 L284.207 886.62 L287.449 884.8 L290.69 883.039 L293.931 881.323 L297.173 879.641 L300.414 877.98 L303.655 876.328 L306.897 874.674 L310.138 873.008 L313.38 871.32 L316.621 869.6 L319.862 867.84 L323.104 866.033 L326.345 864.17 L329.587 862.245 L332.828 860.252 L336.069 858.186 L339.311 856.041 L342.552 853.812 L345.793 851.497 L349.035 849.091 L352.276 846.591 L355.518 843.995 L358.759 841.301 L362 838.507 L365.242 835.611 L368.483 832.613 L371.725 829.512 L374.966 826.309 L378.207 823.002 L381.449 819.594 L384.69 816.084 L387.931 812.475 L391.173 808.767 L394.414 804.964 L397.656 801.066 L400.897 797.078 L404.138 793.001 L407.38 788.84 L410.621 784.598 L413.863 780.28 L417.104 775.89 L420.345 771.433 L423.587 766.915 L426.828 762.34 L430.069 757.716 L433.311 753.049 L436.552 748.346 L439.794 743.614 L443.035 738.862 L446.276 734.097 L449.518 729.328 L452.759 724.564 L456.001 719.815 L459.242 715.089 L462.483 710.399 L465.725 705.753 L468.966 701.162 L472.208 696.637 L475.449 692.189 L478.69 687.827 L481.932 683.553 L485.173 679.367 L488.414 675.267 L491.656 671.255 L494.897 667.331 L498.139 663.494 L501.38 659.745 L504.621 656.085 L507.863 652.513 L511.104 649.032 L514.346 645.642 L517.587 642.345 L520.828 639.142 L524.07 636.033 L527.311 633.022 L530.552 630.11 L533.794 627.296 L537.035 624.572 L540.277 621.927 L543.518 619.35 L546.759 616.832 L550.001 614.363 L553.242 611.933 L556.484 609.532 L559.725 607.151 L562.966 604.782 L566.208 602.418 L569.449 600.049 L572.69 597.669 L575.932 595.271 L579.173 592.848 L582.415 590.395 L585.656 587.905 L588.897 585.375 L592.139 582.798 L595.38 580.171 L598.622 577.491 L601.863 574.752 L605.104 571.953 L608.346 569.09 L611.587 566.162 L614.828 563.166 L618.07 560.1 L621.311 556.964 L624.553 553.757 L627.794 550.477 L631.035 547.125 L634.277 543.7 L637.518 540.204 L640.76 536.638 L644.001 533.001 L647.242 529.296 L650.484 525.525 L653.725 521.69 L656.966 517.793 L660.208 513.838 L663.449 509.827 L666.691 505.765 L669.932 501.655 L673.173 497.503 L676.415 493.313 L679.656 489.09 L682.898 484.84 L686.139 480.57 L689.38 476.286 L692.622 471.996 L695.863 467.706 L699.104 463.426 L702.346 459.164 L705.587 454.929 L708.829 450.73 L712.07 446.578 L715.311 442.483 L718.553 438.457 L721.794 434.508 L725.036 430.639 L728.277 426.848 L731.518 423.137 L734.76 419.507 L738.001 415.958 L741.242 412.494 L744.484 409.117 L747.725 405.831 L750.967 402.642 L754.208 399.554 L757.449 396.576 L760.691 393.713 L763.932 390.976 L767.174 388.373 L770.415 385.915 L773.656 383.613 L776.898 381.478 L780.139 379.525 L783.381 377.764 L786.622 376.206 L789.863 374.861 L793.105 373.739 L796.346 372.851 L799.587 372.203 L802.829 371.793 L806.07 371.61 L809.312 371.641 L812.553 371.876 L815.794 372.301 L819.036 372.905 L822.277 373.677 L825.519 374.6 L828.76 375.66 L832.001 376.84 L835.243 378.128 L838.484 379.51 L841.725 380.974 L844.967 382.51 L848.208 384.109 L851.45 385.762 L854.691 387.463 L857.932 389.207 L861.174 390.988 L864.415 392.804 L867.657 394.652 L870.898 396.532 L874.139 398.443 L877.381 400.388 L880.622 402.368 L883.863 404.387 L887.105 406.448 L890.346 408.557 L893.588 410.72 L896.829 412.944 L900.07 415.237 L903.312 417.606 L906.553 420.061 L909.795 422.611 L913.036 425.268 L916.277 428.04 L919.519 430.937 L922.76 433.957 L926.001 437.097 L929.243 440.354 L932.484 443.725 L935.726 447.207 L938.967 450.79 L942.208 454.466 L945.45 458.224 L948.691 462.056 L951.933 465.953 L955.174 469.908 L958.415 473.913 L961.657 477.962 L964.898 482.049 L968.139 486.167 L971.381 490.312 L974.622 494.479 L977.864 498.666 L981.105 502.868 L984.346 507.085 L987.588 511.313 L990.829 515.552 L994.071 519.802 L997.312 524.062 L1000.55 528.334 L1003.79 532.618 L1007.04 536.917 L1010.28 541.231 L1013.52 545.565 L1016.76 549.922 L1020 554.304 L1023.24 558.716 L1026.48 563.159 L1029.73 567.629 L1032.97 572.121 L1036.21 576.626 L1039.45 581.141 L1042.69 585.659 L1045.93 590.176 L1049.17 594.687 L1052.42 599.189 L1055.66 603.679 L1058.9 608.153 L1062.14 612.61 L1065.38 617.048 L1068.62 621.466 L1071.86 625.864 L1075.11 630.243 L1078.35 634.603 L1081.59 638.947 L1084.83 643.277 L1088.07 647.595 L1091.31 651.906 L1094.55 656.214 L1097.79 660.524 L1101.04 664.842 L1104.28 669.174 L1107.52 673.526 L1110.76 677.907 L1114 682.324 L1117.24 686.785 L1120.48 691.299 L1123.73 695.875 L1126.97 700.522 L1130.21 705.249 L1133.45 710.064 L1136.69 714.973 L1139.93 719.98 L1143.17 725.089 L1146.42 730.304 L1149.66 735.63 L1152.9 741.07 L1156.14 746.629 L1159.38 752.307 L1162.62 758.095 L1165.86 763.984 L1169.11 769.962 L1172.35 776.018 L1175.59 782.141 L1178.83 788.321 L1182.07 794.549 L1185.31 800.814 L1188.55 807.108 L1191.8 813.421 L1195.04 819.746 L1198.28 826.074 L1201.52 832.397 L1204.76 838.71 L1208 845.004 L1211.24 851.274 L1214.48 857.515 L1217.73 863.72 L1220.97 869.884 L1224.21 876.004 L1227.45 882.074 L1230.69 888.09 L1233.93 894.049 L1237.17 899.948 L1240.42 905.783 L1243.66 911.552 L1246.9 917.252 L1250.14 922.881 L1253.38 928.437 L1256.62 933.918 L1259.86 939.323 L1263.11 944.651 L1266.35 949.899 L1269.59 955.069 L1272.83 960.158 L1276.07 965.167 L1279.31 970.096 L1282.55 974.944 L1285.8 979.711 L1289.04 984.399 L1292.28 989.007 L1295.52 993.537 L1298.76 997.99 L1302 1002.37 L1305.24 1006.67 L1308.48 1010.9 L1311.73 1015.05 L1314.97 1019.14 L1318.21 1023.16 L1321.45 1027.12 L1324.69 1031.01 L1327.93 1034.85 L1331.17 1038.62 L1334.42 1042.35 L1337.66 1046.03 L1340.9 1049.66 L1344.14 1053.25 L1347.38 1056.81 L1350.62 1060.33 L1353.86 1063.83 L1357.11 1067.3 L1360.35 1070.75 L1363.59 1074.2 L1366.83 1077.64 L1370.07 1081.07 L1373.31 1084.52 L1376.55 1087.98 L1379.8 1091.45 L1383.04 1094.95 L1386.28 1098.49 L1389.52 1102.06 L1392.76 1105.69 L1396 1109.36 L1399.24 1113.1 L1402.49 1116.9 L1405.73 1120.78 L1408.97 1124.74 L1412.21 1128.79 L1415.45 1132.93 L1418.69 1137.16 L1421.93 1141.47 L1425.17 1145.86 L1428.42 1150.32 L1431.66 1154.84 L1434.9 1159.41 L1438.14 1164.04 L1441.38 1168.71 L1444.62 1173.41 L1447.86 1178.14 L1451.11 1182.89 L1454.35 1187.67 L1457.59 1192.45 L1460.83 1197.23 L1464.07 1202.02 L1467.31 1206.79 L1470.55 1211.56 L1473.8 1216.3 L1477.04 1221.03 L1480.28 1225.72 L1483.52 1230.39 L1486.76 1235.02 L1490 1239.61 L1493.24 1244.15 L1496.49 1248.65 L1499.73 1253.1 L1502.97 1257.49 L1506.21 1261.82 L1509.45 1266.09 L1512.69 1270.3 L1515.93 1274.45 L1519.18 1278.52 L1522.42 1282.52 L1525.66 1286.45 L1528.9 1290.3 L1532.14 1294.07 L1535.38 1297.77 L1538.62 1301.38 L1541.86 1304.91 L1545.11 1308.36 L1548.35 1311.72 L1551.59 1314.99 L1554.83 1318.18 L1558.07 1321.28 L1561.31 1324.28 L1564.55 1327.2 L1567.8 1330.03 L1571.04 1332.76 L1574.28 1335.4 L1577.52 1337.95 L1580.76 1340.4 L1584 1342.76 L1587.24 1345.03 L1590.49 1347.21 L1593.73 1349.29 L1596.97 1351.29 L1600.21 1353.19 L1603.45 1355 L1606.69 1356.72 L1609.93 1358.35 L1613.18 1359.9 L1616.42 1361.36 L1619.66 1362.74 L1622.9 1364.04 L1626.14 1365.25 L1629.38 1366.39 L1632.62 1367.46 L1635.86 1368.45 L1639.11 1369.38 L1642.35 1370.25 L1645.59 1371.05 L1648.83 1371.8 L1652.07 1372.5 L1655.31 1373.16 L1658.55 1373.77 L1661.8 1374.35 L1665.04 1374.91 L1668.28 1375.44 L1671.52 1375.96 L1674.76 1376.48 L1678 1377.01 L1681.24 1377.54 L1684.49 1378.1 L1687.73 1378.69 L1690.97 1379.32 L1694.21 1380 L1697.45 1380.74 L1700.69 1381.56 L1703.93 1382.45 L1707.18 1383.45 L1710.42 1384.54 L1713.66 1385.74 L1716.9 1387.07 L1720.14 1388.5 L1723.38 1390.05 L1726.62 1391.7 L1729.87 1393.45 L1733.11 1395.27 L1736.35 1397.17 L1739.59 1399.14 L1742.83 1401.15 L1746.07 1403.21 L1749.31 1405.3 L1752.55 1407.42 L1755.8 1409.54 L1759.04 1411.67 L1762.28 1413.78 L1765.52 1415.89 L1768.76 1417.96 L1772 1420 L1775.24 1422.01 L1778.49 1423.96 L1781.73 1425.86 L1784.97 1427.69 L1788.21 1429.47 L1791.45 1431.16 L1794.69 1432.79 L1797.93 1434.33 L1801.18 1435.78 L1804.42 1437.15 L1807.66 1438.42 L1810.9 1439.6 L1814.14 1440.68 L1817.38 1441.66 L1820.62 1442.53 L1823.87 1443.31 L1827.11 1443.98 L1830.35 1444.54 L1833.59 1444.99 L1836.83 1445.34 L1840.07 1445.57 L1843.31 1445.7 L1846.55 1445.72 L1849.8 1445.62 L1853.04 1445.42 L1856.28 1445.11 L1859.52 1444.7 L1862.76 1444.17 L1866 1443.54 L1869.24 1442.81 L1872.49 1441.97 L1875.73 1441.03 L1878.97 1440 L1882.21 1438.86 L1885.45 1437.63 L1888.69 1436.3 L1891.93 1434.89 L1895.18 1433.38 L1898.42 1431.79 L1901.66 1430.12 L1904.9 1428.37 L1908.14 1426.54 L1911.38 1424.65 L1914.62 1422.68 L1917.87 1420.65 L1921.11 1418.56 L1924.35 1416.42 L1927.59 1414.23 L1930.83 1411.99 L1934.07 1409.71 L1937.31 1407.39 L1940.56 1405.05 L1943.8 1402.67 L1947.04 1400.28 L1950.28 1397.88 L1953.52 1395.47 L1956.76 1393.05 L1960 1390.64 L1963.24 1388.24 L1966.49 1385.84 L1969.73 1383.47 L1972.97 1381.12 L1976.21 1378.8 L1979.45 1376.5 L1982.69 1374.23 L1985.93 1371.96 L1989.18 1369.71 L1992.42 1367.47 L1995.66 1365.23 L1998.9 1362.99 L2002.14 1360.73 L2005.38 1358.47 L2008.62 1356.19 L2011.87 1353.89 L2015.11 1351.57 L2018.35 1349.21 L2021.59 1346.82 L2024.83 1344.39 L2028.07 1341.93 L2031.31 1339.41 L2034.56 1336.85 L2037.8 1334.24 L2041.04 1331.57 L2044.28 1328.84 L2047.52 1326.05 L2050.76 1323.2 L2054 1320.29 L2057.24 1317.31 L2060.49 1314.26 L2063.73 1311.13 L2066.97 1307.94 L2070.21 1304.67 L2073.45 1301.33 L2076.69 1297.91 L2079.93 1294.42 L2083.18 1290.84 L2086.42 1287.19 L2089.66 1283.47 L2092.9 1279.66 L2096.14 1275.77 L2099.38 1271.81 L2102.62 1267.77 L2105.87 1263.65 L2109.11 1259.45 L2112.35 1255.18 L2115.59 1250.84 L2118.83 1246.42 L2122.07 1241.92 L2125.31 1237.36 L2128.56 1232.73 L2131.8 1228.03 L2135.04 1223.27 L2138.28 1218.44 L2141.52 1213.55 L2144.76 1208.61 L2148 1203.62 L2151.25 1198.57 L2154.49 1193.48 L2157.73 1188.34 L2160.97 1183.17 L2164.21 1177.96 L2167.45 1172.73 L2170.69 1167.47 L2173.93 1162.2 L2177.18 1156.92 L2180.42 1151.63 L2183.66 1146.35 L2186.9 1141.07 L2190.14 1135.82 L2193.38 1130.59 L2196.62 1125.4 L2199.87 1120.25 L2203.11 1115.16 L2206.35 1110.14 L2209.59 1105.19 L2212.83 1100.34 L2216.07 1095.58 L2219.31 1090.94 L2222.56 1086.42 L2225.8 1082.04 L2229.04 1077.81 L2232.28 1073.75 L2235.52 1069.87 L2238.76 1066.16 L2242 1062.65 L2245.25 1059.32 L2248.49 1056.18 L2251.73 1053.24 L2254.97 1050.5 L2258.21 1047.96 L2261.45 1045.63 L2264.69 1043.5 L2267.94 1041.59 L2271.18 1039.9 L2274.42 1038.42 L2277.66 1037.17 L2280.9 1036.15 L2284.14 1035.35 L2287.38 1034.79 L2290.62 1034.47 L2290.62 580.406 L2287.38 584.884 L2284.14 589.246 L2280.9 593.49 L2277.66 597.615 L2274.42 601.62 L2271.18 605.504 L2267.94 609.265 L2264.69 612.905 L2261.45 616.42 L2258.21 619.812 L2254.97 623.079 L2251.73 626.22 L2248.49 629.235 L2245.25 632.124 L2242 634.884 L2238.76 637.516 L2235.52 640.019 L2232.28 642.393 L2229.04 644.638 L2225.8 646.766 L2222.56 648.788 L2219.31 650.716 L2216.07 652.563 L2212.83 654.34 L2209.59 656.058 L2206.35 657.728 L2203.11 659.361 L2199.87 660.967 L2196.62 662.555 L2193.38 664.134 L2190.14 665.712 L2186.9 667.298 L2183.66 668.899 L2180.42 670.522 L2177.18 672.174 L2173.93 673.86 L2170.69 675.586 L2167.45 677.357 L2164.21 679.178 L2160.97 681.053 L2157.73 682.986 L2154.49 684.98 L2151.25 687.039 L2148 689.165 L2144.76 691.361 L2141.52 693.628 L2138.28 695.97 L2135.04 698.387 L2131.8 700.881 L2128.56 703.452 L2125.31 706.102 L2122.07 708.83 L2118.83 711.638 L2115.59 714.525 L2112.35 717.49 L2109.11 720.534 L2105.87 723.656 L2102.62 726.854 L2099.38 730.128 L2096.14 733.476 L2092.9 736.897 L2089.66 740.389 L2086.42 743.95 L2083.18 747.577 L2079.93 751.268 L2076.69 755.021 L2073.45 758.832 L2070.21 762.699 L2066.97 766.618 L2063.73 770.585 L2060.49 774.596 L2057.24 778.648 L2054 782.735 L2050.76 786.854 L2047.52 791 L2044.28 795.166 L2041.04 799.348 L2037.8 803.54 L2034.56 807.736 L2031.31 811.93 L2028.07 816.115 L2024.83 820.284 L2021.59 824.43 L2018.35 828.546 L2015.11 832.624 L2011.87 836.656 L2008.62 840.634 L2005.38 844.548 L2002.14 848.392 L1998.9 852.155 L1995.66 855.828 L1992.42 859.403 L1989.18 862.87 L1985.93 866.219 L1982.69 869.44 L1979.45 872.525 L1976.21 875.463 L1972.97 878.245 L1969.73 880.865 L1966.49 883.328 L1963.24 885.644 L1960 887.822 L1956.76 889.87 L1953.52 891.798 L1950.28 893.615 L1947.04 895.33 L1943.8 896.951 L1940.56 898.488 L1937.31 899.947 L1934.07 901.339 L1930.83 902.67 L1927.59 903.948 L1924.35 905.181 L1921.11 906.375 L1917.87 907.538 L1914.62 908.675 L1911.38 909.794 L1908.14 910.899 L1904.9 911.996 L1901.66 913.091 L1898.42 914.188 L1895.18 915.292 L1891.93 916.407 L1888.69 917.537 L1885.45 918.685 L1882.21 919.855 L1878.97 921.05 L1875.73 922.271 L1872.49 923.523 L1869.24 924.806 L1866 926.123 L1862.76 927.474 L1859.52 928.861 L1856.28 930.285 L1853.04 931.746 L1849.8 933.244 L1846.55 934.78 L1843.31 936.352 L1840.07 937.961 L1836.83 939.604 L1833.59 941.281 L1830.35 942.99 L1827.11 944.728 L1823.87 946.493 L1820.62 948.283 L1817.38 950.094 L1814.14 951.922 L1810.9 953.763 L1807.66 955.613 L1804.42 957.467 L1801.18 959.319 L1797.93 961.164 L1794.69 962.994 L1791.45 964.804 L1788.21 966.586 L1784.97 968.331 L1781.73 970.031 L1778.49 971.677 L1775.24 973.259 L1772 974.767 L1768.76 976.188 L1765.52 977.513 L1762.28 978.728 L1759.04 979.82 L1755.8 980.775 L1752.55 981.58 L1749.31 982.22 L1746.07 982.68 L1742.83 982.943 L1739.59 982.994 L1736.35 982.817 L1733.11 982.395 L1729.87 981.711 L1726.62 980.751 L1723.38 979.497 L1720.14 977.937 L1716.9 976.074 L1713.66 973.913 L1710.42 971.462 L1707.18 968.735 L1703.93 965.746 L1700.69 962.513 L1697.45 959.05 L1694.21 955.374 L1690.97 951.501 L1687.73 947.445 L1684.49 943.223 L1681.24 938.849 L1678 934.338 L1674.76 929.702 L1671.52 924.957 L1668.28 920.114 L1665.04 915.185 L1661.8 910.183 L1658.55 905.118 L1655.31 900 L1652.07 894.84 L1648.83 889.646 L1645.59 884.428 L1642.35 879.193 L1639.11 873.95 L1635.86 868.705 L1632.62 863.465 L1629.38 858.237 L1626.14 853.026 L1622.9 847.839 L1619.66 842.679 L1616.42 837.553 L1613.18 832.464 L1609.93 827.416 L1606.69 822.414 L1603.45 817.461 L1600.21 812.559 L1596.97 807.713 L1593.73 802.924 L1590.49 798.195 L1587.24 793.528 L1584 788.926 L1580.76 784.39 L1577.52 779.922 L1574.28 775.522 L1571.04 771.193 L1567.8 766.934 L1564.55 762.748 L1561.31 758.634 L1558.07 754.592 L1554.83 750.624 L1551.59 746.729 L1548.35 742.906 L1545.11 739.156 L1541.86 735.479 L1538.62 731.872 L1535.38 728.337 L1532.14 724.87 L1528.9 721.472 L1525.66 718.141 L1522.42 714.876 L1519.18 711.674 L1515.93 708.533 L1512.69 705.452 L1509.45 702.428 L1506.21 699.458 L1502.97 696.54 L1499.73 693.671 L1496.49 690.847 L1493.24 688.065 L1490 685.322 L1486.76 682.612 L1483.52 679.933 L1480.28 677.28 L1477.04 674.648 L1473.8 672.033 L1470.55 669.428 L1467.31 666.829 L1464.07 664.231 L1460.83 661.626 L1457.59 659.01 L1454.35 656.375 L1451.11 653.715 L1447.86 651.023 L1444.62 648.292 L1441.38 645.515 L1438.14 642.684 L1434.9 639.793 L1431.66 636.832 L1428.42 633.795 L1425.17 630.673 L1421.93 627.46 L1418.69 624.146 L1415.45 620.726 L1412.21 617.19 L1408.97 613.534 L1405.73 609.763 L1402.49 605.885 L1399.24 601.908 L1396 597.839 L1392.76 593.687 L1389.52 589.459 L1386.28 585.164 L1383.04 580.809 L1379.8 576.402 L1376.55 571.95 L1373.31 567.461 L1370.07 562.943 L1366.83 558.402 L1363.59 553.845 L1360.35 549.278 L1357.11 544.709 L1353.86 540.142 L1350.62 535.585 L1347.38 531.041 L1344.14 526.518 L1340.9 522.019 L1337.66 517.549 L1334.42 513.114 L1331.17 508.717 L1327.93 504.362 L1324.69 500.053 L1321.45 495.793 L1318.21 491.587 L1314.97 487.436 L1311.73 483.344 L1308.48 479.313 L1305.24 475.345 L1302 471.444 L1298.76 467.61 L1295.52 463.846 L1292.28 460.152 L1289.04 456.531 L1285.8 452.983 L1282.55 449.51 L1279.31 446.112 L1276.07 442.789 L1272.83 439.543 L1269.59 436.372 L1266.35 433.278 L1263.11 430.259 L1259.86 427.315 L1256.62 424.446 L1253.38 421.65 L1250.14 418.927 L1246.9 416.274 L1243.66 413.692 L1240.42 411.176 L1237.17 408.726 L1233.93 406.339 L1230.69 404.012 L1227.45 401.743 L1224.21 399.528 L1220.97 397.363 L1217.73 395.245 L1214.48 393.17 L1211.24 391.133 L1208 389.128 L1204.76 387.152 L1201.52 385.197 L1198.28 383.259 L1195.04 381.33 L1191.8 379.404 L1188.55 377.473 L1185.31 375.53 L1182.07 373.567 L1178.83 371.575 L1175.59 369.546 L1172.35 367.47 L1169.11 365.337 L1165.86 363.139 L1162.62 360.865 L1159.38 358.505 L1156.14 356.05 L1152.9 353.489 L1149.66 350.819 L1146.42 348.034 L1143.17 345.132 L1139.93 342.107 L1136.69 338.958 L1133.45 335.679 L1130.21 332.268 L1126.97 328.725 L1123.73 325.057 L1120.48 321.278 L1117.24 317.399 L1114 313.431 L1110.76 309.387 L1107.52 305.276 L1104.28 301.11 L1101.04 296.899 L1097.79 292.653 L1094.55 288.381 L1091.31 284.092 L1088.07 279.793 L1084.83 275.492 L1081.59 271.196 L1078.35 266.911 L1075.11 262.643 L1071.86 258.396 L1068.62 254.175 L1065.38 249.984 L1062.14 245.826 L1058.9 241.704 L1055.66 237.619 L1052.42 233.573 L1049.17 229.566 L1045.93 225.601 L1042.69 221.675 L1039.45 217.79 L1036.21 213.944 L1032.97 210.136 L1029.73 206.364 L1026.48 202.626 L1023.24 198.921 L1020 195.248 L1016.76 191.61 L1013.52 188.012 L1010.28 184.461 L1007.04 180.96 L1003.79 177.513 L1000.55 174.126 L997.312 170.801 L994.071 167.543 L990.829 164.352 L987.588 161.234 L984.346 158.188 L981.105 155.216 L977.864 152.32 L974.622 149.5 L971.381 146.756 L968.139 144.087 L964.898 141.492 L961.657 138.97 L958.415 136.518 L955.174 134.134 L951.933 131.814 L948.691 129.556 L945.45 127.356 L942.208 125.208 L938.967 123.109 L935.726 121.054 L932.484 119.038 L929.243 117.058 L926.001 115.116 L922.76 113.217 L919.519 111.366 L916.277 109.568 L913.036 107.826 L909.795 106.149 L906.553 104.542 L903.312 103.011 L900.07 101.563 L896.829 100.203 L893.588 98.9362 L890.346 97.7674 L887.105 96.7006 L883.863 95.739 L880.622 94.8854 L877.381 94.1415 L874.139 93.5085 L870.898 92.9868 L867.657 92.5757 L864.415 92.2737 L861.174 92.0785 L857.932 91.9868 L854.691 91.9941 L851.45 92.0952 L848.208 92.2838 L844.967 92.5522 L841.725 92.8922 L838.484 93.2941 L835.243 93.7472 L832.001 94.24 L828.76 94.7598 L825.519 95.293 L822.277 95.8253 L819.036 96.3416 L815.794 96.8275 L812.553 97.2741 L809.312 97.6732 L806.07 98.0168 L802.829 98.2966 L799.587 98.5044 L796.346 98.6334 L793.105 98.6815 L789.863 98.6486 L786.622 98.5349 L783.381 98.3408 L780.139 98.0669 L776.898 97.7158 L773.656 97.2973 L770.415 96.8232 L767.174 96.3046 L763.932 95.7524 L760.691 95.1765 L757.449 94.5864 L754.208 93.9905 L750.967 93.3966 L747.725 92.8117 L744.484 92.242 L741.242 91.6929 L738.001 91.169 L734.76 90.6745 L731.518 90.2127 L728.277 89.7864 L725.036 89.3979 L721.794 89.049 L718.553 88.7414 L715.311 88.4772 L712.07 88.2622 L708.829 88.103 L705.587 88.0057 L702.346 87.9763 L699.104 88.0203 L695.863 88.1431 L692.622 88.3494 L689.38 88.6438 L686.139 89.0305 L682.898 89.5133 L679.656 90.0957 L676.415 90.7808 L673.173 91.5715 L669.932 92.4703 L666.691 93.4792 L663.449 94.6004 L660.208 95.8353 L656.966 97.1854 L653.725 98.6516 L650.484 100.235 L647.242 101.935 L644.001 103.754 L640.76 105.69 L637.518 107.744 L634.277 109.915 L631.035 112.202 L627.794 114.605 L624.553 117.122 L621.311 119.751 L618.07 122.492 L614.828 125.342 L611.587 128.299 L608.346 131.36 L605.104 134.522 L601.863 137.783 L598.622 141.14 L595.38 144.588 L592.139 148.124 L588.897 151.743 L585.656 155.441 L582.415 159.213 L579.173 163.054 L575.932 166.959 L572.69 170.921 L569.449 174.933 L566.208 178.991 L562.966 183.086 L559.725 187.211 L556.484 191.358 L553.242 195.521 L550.001 199.689 L546.759 203.855 L543.518 208.01 L540.277 212.144 L537.035 216.249 L533.794 220.314 L530.552 224.331 L527.311 228.292 L524.07 232.194 L520.828 236.037 L517.587 239.819 L514.346 243.542 L511.104 247.203 L507.863 250.803 L504.621 254.34 L501.38 257.813 L498.139 261.221 L494.897 264.563 L491.656 267.838 L488.414 271.045 L485.173 274.181 L481.932 277.245 L478.69 280.237 L475.449 283.153 L472.208 285.994 L468.966 288.768 L465.725 291.482 L462.483 294.146 L459.242 296.768 L456.001 299.356 L452.759 301.919 L449.518 304.463 L446.276 306.997 L443.035 309.528 L439.794 312.061 L436.552 314.605 L433.311 317.164 L430.069 319.744 L426.828 322.35 L423.587 324.988 L420.345 327.662 L417.104 330.375 L413.863 333.132 L410.621 335.936 L407.38 338.789 L404.138 341.694 L400.897 344.654 L397.656 347.67 L394.414 350.743 L391.173 353.876 L387.931 357.068 L384.69 360.32 L381.449 363.632 L378.207 367.003 L374.966 370.434 L371.725 373.923 L368.483 377.469 L365.242 381.07 L362 384.724 L358.759 388.428 L355.518 392.179 L352.276 395.975 L349.035 399.811 L345.793 403.683 L342.552 407.586 L339.311 411.516 L336.069 415.466 L332.828 419.431 L329.587 423.402 L326.345 427.375 L323.104 431.339 L319.862 435.287 L316.621 439.21 L313.38 443.097 L310.138 446.938 L306.897 450.723 L303.655 454.438 L300.414 458.073 L297.173 461.612 L293.931 465.044 L290.69 468.353 L287.449 471.524 L284.207 474.542 L280.966 477.391 L277.724 480.056 L274.483 482.519 L271.242 484.764 L268 486.775 L264.759 488.535 L261.517 490.03 L258.276 491.243 L255.035 492.163  Z" fill="#3da44d" fill-rule="evenodd" fill-opacity="0.1"/>
<polyline clip-path="url(#clip262)" style="stroke:#3da44d; stroke-linecap:round; stroke-linejoin:round; stroke-width:8; stroke-opacity:1; fill:none" points="255.035,700.045 258.276,698.102 261.517,696.102 264.759,694.045 268,691.932 271.242,689.765 274.483,687.546 277.724,685.274 280.966,682.952 284.207,680.581 287.449,678.162 290.69,675.696 293.931,673.184 297.173,670.627 300.414,668.026 303.655,665.383 306.897,662.699 310.138,659.973 313.38,657.208 316.621,654.405 319.862,651.564 323.104,648.686 326.345,645.772 329.587,642.824 332.828,639.841 336.069,636.826 339.311,633.778 342.552,630.699 345.793,627.59 349.035,624.451 352.276,621.283 355.518,618.087 358.759,614.864 362,611.615 365.242,608.34 368.483,605.041 371.725,601.718 374.966,598.371 378.207,595.003 381.449,591.613 384.69,588.202 387.931,584.771 391.173,581.322 394.414,577.854 397.656,574.368 400.897,570.866 404.138,567.348 407.38,563.814 410.621,560.267 413.863,556.706 417.104,553.133 420.345,549.548 423.587,545.951 426.828,542.345 430.069,538.73 433.311,535.106 436.552,531.475 439.794,527.838 443.035,524.195 446.276,520.547 449.518,516.896 452.759,513.241 456.001,509.585 459.242,505.929 462.483,502.272 465.725,498.617 468.966,494.965 472.208,491.316 475.449,487.671 478.69,484.032 481.932,480.399 485.173,476.774 488.414,473.156 491.656,469.547 494.897,465.947 498.139,462.357 501.38,458.779 504.621,455.212 507.863,451.658 511.104,448.118 514.346,444.592 517.587,441.082 520.828,437.589 524.07,434.114 527.311,430.657 530.552,427.221 533.794,423.805 537.035,420.41 540.277,417.035 543.518,413.68 546.759,410.344 550.001,407.026 553.242,403.727 556.484,400.445 559.725,397.181 562.966,393.934 566.208,390.704 569.449,387.491 572.69,384.295 575.932,381.115 579.173,377.951 582.415,374.804 585.656,371.673 588.897,368.559 592.139,365.461 595.38,362.38 598.622,359.315 601.863,356.268 605.104,353.238 608.346,350.225 611.587,347.23 614.828,344.254 618.07,341.296 621.311,338.358 624.553,335.439 627.794,332.541 631.035,329.663 634.277,326.808 637.518,323.974 640.76,321.164 644.001,318.377 647.242,315.616 650.484,312.88 653.725,310.171 656.966,307.489 660.208,304.836 663.449,302.214 666.691,299.622 669.932,297.063 673.173,294.537 676.415,292.047 679.656,289.593 682.898,287.177 686.139,284.8 689.38,282.465 692.622,280.173 695.863,277.925 699.104,275.723 702.346,273.57 705.587,271.467 708.829,269.416 712.07,267.42 715.311,265.48 718.553,263.599 721.794,261.779 725.036,260.018 728.277,258.317 731.518,256.675 734.76,255.091 738.001,253.563 741.242,252.093 744.484,250.679 747.725,249.321 750.967,248.019 754.208,246.772 757.449,245.581 760.691,244.445 763.932,243.364 767.174,242.339 770.415,241.369 773.656,240.455 776.898,239.597 780.139,238.796 783.381,238.052 786.622,237.37 789.863,236.755 793.105,236.21 796.346,235.742 799.587,235.354 802.829,235.045 806.07,234.813 809.312,234.657 812.553,234.575 815.794,234.564 819.036,234.623 822.277,234.751 825.519,234.947 828.76,235.21 832.001,235.54 835.243,235.937 838.484,236.402 841.725,236.933 844.967,237.531 848.208,238.196 851.45,238.929 854.691,239.729 857.932,240.597 861.174,241.533 864.415,242.539 867.657,243.614 870.898,244.759 874.139,245.976 877.381,247.265 880.622,248.627 883.863,250.063 887.105,251.574 890.346,253.162 893.588,254.828 896.829,256.573 900.07,258.4 903.312,260.308 906.553,262.301 909.795,264.38 913.036,266.547 916.277,268.804 919.519,271.151 922.76,273.587 926.001,276.106 929.243,278.706 932.484,281.382 935.726,284.131 938.967,286.95 942.208,289.837 945.45,292.79 948.691,295.806 951.933,298.884 955.174,302.021 958.415,305.216 961.657,308.466 964.898,311.77 968.139,315.127 971.381,318.534 974.622,321.99 977.864,325.493 981.105,329.042 984.346,332.636 987.588,336.273 990.829,339.952 994.071,343.672 997.312,347.432 1000.55,351.23 1003.79,355.066 1007.04,358.938 1010.28,362.846 1013.52,366.789 1016.76,370.766 1020,374.776 1023.24,378.818 1026.48,382.893 1029.73,386.997 1032.97,391.128 1036.21,395.285 1039.45,399.465 1042.69,403.667 1045.93,407.888 1049.17,412.127 1052.42,416.381 1055.66,420.649 1058.9,424.928 1062.14,429.218 1065.38,433.516 1068.62,437.821 1071.86,442.13 1075.11,446.443 1078.35,450.757 1081.59,455.072 1084.83,459.384 1088.07,463.694 1091.31,467.999 1094.55,472.298 1097.79,476.589 1101.04,480.871 1104.28,485.142 1107.52,489.401 1110.76,493.647 1114,497.878 1117.24,502.092 1120.48,506.289 1123.73,510.466 1126.97,514.624 1130.21,518.759 1133.45,522.872 1136.69,526.965 1139.93,531.044 1143.17,535.11 1146.42,539.169 1149.66,543.224 1152.9,547.28 1156.14,551.339 1159.38,555.406 1162.62,559.48 1165.86,563.562 1169.11,567.65 1172.35,571.744 1175.59,575.843 1178.83,579.948 1182.07,584.058 1185.31,588.172 1188.55,592.291 1191.8,596.413 1195.04,600.538 1198.28,604.666 1201.52,608.797 1204.76,612.931 1208,617.066 1211.24,621.203 1214.48,625.342 1217.73,629.483 1220.97,633.624 1224.21,637.766 1227.45,641.908 1230.69,646.051 1233.93,650.194 1237.17,654.337 1240.42,658.48 1243.66,662.622 1246.9,666.763 1250.14,670.904 1253.38,675.044 1256.62,679.182 1259.86,683.319 1263.11,687.455 1266.35,691.589 1269.59,695.721 1272.83,699.85 1276.07,703.978 1279.31,708.104 1282.55,712.227 1285.8,716.347 1289.04,720.465 1292.28,724.58 1295.52,728.691 1298.76,732.8 1302,736.905 1305.24,741.006 1308.48,745.104 1311.73,749.198 1314.97,753.288 1318.21,757.374 1321.45,761.455 1324.69,765.532 1327.93,769.604 1331.17,773.671 1334.42,777.733 1337.66,781.789 1340.9,785.84 1344.14,789.886 1347.38,793.925 1350.62,797.958 1353.86,801.984 1357.11,806.004 1360.35,810.016 1363.59,814.021 1366.83,818.019 1370.07,822.009 1373.31,825.99 1376.55,829.963 1379.8,833.927 1383.04,837.882 1386.28,841.827 1389.52,845.762 1392.76,849.686 1396,853.6 1399.24,857.502 1402.49,861.393 1405.73,865.271 1408.97,869.137 1412.21,872.989 1415.45,876.828 1418.69,880.653 1421.93,884.466 1425.17,888.267 1428.42,892.056 1431.66,895.835 1434.9,899.603 1438.14,903.361 1441.38,907.11 1444.62,910.85 1447.86,914.581 1451.11,918.304 1454.35,922.02 1457.59,925.728 1460.83,929.429 1464.07,933.123 1467.31,936.811 1470.55,940.492 1473.8,944.168 1477.04,947.838 1480.28,951.503 1483.52,955.162 1486.76,958.816 1490,962.465 1493.24,966.11 1496.49,969.749 1499.73,973.384 1502.97,977.015 1506.21,980.64 1509.45,984.261 1512.69,987.878 1515.93,991.489 1519.18,995.096 1522.42,998.698 1525.66,1002.29 1528.9,1005.89 1532.14,1009.47 1535.38,1013.05 1538.62,1016.63 1541.86,1020.2 1545.11,1023.76 1548.35,1027.31 1551.59,1030.86 1554.83,1034.4 1558.07,1037.93 1561.31,1041.46 1564.55,1044.97 1567.8,1048.48 1571.04,1051.98 1574.28,1055.46 1577.52,1058.93 1580.76,1062.4 1584,1065.84 1587.24,1069.28 1590.49,1072.7 1593.73,1076.11 1596.97,1079.5 1600.21,1082.87 1603.45,1086.23 1606.69,1089.57 1609.93,1092.88 1613.18,1096.18 1616.42,1099.46 1619.66,1102.71 1622.9,1105.94 1626.14,1109.14 1629.38,1112.31 1632.62,1115.46 1635.86,1118.58 1639.11,1121.67 1642.35,1124.72 1645.59,1127.74 1648.83,1130.72 1652.07,1133.67 1655.31,1136.58 1658.55,1139.44 1661.8,1142.27 1665.04,1145.05 1668.28,1147.78 1671.52,1150.46 1674.76,1153.09 1678,1155.67 1681.24,1158.19 1684.49,1160.66 1687.73,1163.07 1690.97,1165.41 1694.21,1167.69 1697.45,1169.9 1700.69,1172.03 1703.93,1174.1 1707.18,1176.09 1710.42,1178 1713.66,1179.83 1716.9,1181.57 1720.14,1183.22 1723.38,1184.77 1726.62,1186.23 1729.87,1187.58 1733.11,1188.83 1736.35,1189.99 1739.59,1191.07 1742.83,1192.05 1746.07,1192.95 1749.31,1193.76 1752.55,1194.5 1755.8,1195.16 1759.04,1195.74 1762.28,1196.26 1765.52,1196.7 1768.76,1197.08 1772,1197.39 1775.24,1197.63 1778.49,1197.82 1781.73,1197.94 1784.97,1198.01 1788.21,1198.03 1791.45,1197.98 1794.69,1197.89 1797.93,1197.74 1801.18,1197.55 1804.42,1197.31 1807.66,1197.02 1810.9,1196.68 1814.14,1196.3 1817.38,1195.88 1820.62,1195.41 1823.87,1194.9 1827.11,1194.35 1830.35,1193.76 1833.59,1193.14 1836.83,1192.47 1840.07,1191.77 1843.31,1191.03 1846.55,1190.25 1849.8,1189.43 1853.04,1188.58 1856.28,1187.7 1859.52,1186.78 1862.76,1185.82 1866,1184.83 1869.24,1183.81 1872.49,1182.75 1875.73,1181.65 1878.97,1180.52 1882.21,1179.36 1885.45,1178.16 1888.69,1176.92 1891.93,1175.65 1895.18,1174.34 1898.42,1172.99 1901.66,1171.61 1904.9,1170.18 1908.14,1168.72 1911.38,1167.22 1914.62,1165.68 1917.87,1164.1 1921.11,1162.47 1924.35,1160.8 1927.59,1159.09 1930.83,1157.33 1934.07,1155.52 1937.31,1153.67 1940.56,1151.77 1943.8,1149.81 1947.04,1147.81 1950.28,1145.75 1953.52,1143.63 1956.76,1141.46 1960,1139.23 1963.24,1136.94 1966.49,1134.59 1969.73,1132.17 1972.97,1129.68 1976.21,1127.13 1979.45,1124.51 1982.69,1121.83 1985.93,1119.09 1989.18,1116.29 1992.42,1113.44 1995.66,1110.53 1998.9,1107.57 2002.14,1104.56 2005.38,1101.51 2008.62,1098.41 2011.87,1095.27 2015.11,1092.1 2018.35,1088.88 2021.59,1085.63 2024.83,1082.34 2028.07,1079.02 2031.31,1075.67 2034.56,1072.29 2037.8,1068.89 2041.04,1065.46 2044.28,1062 2047.52,1058.53 2050.76,1055.03 2054,1051.51 2057.24,1047.98 2060.49,1044.43 2063.73,1040.86 2066.97,1037.28 2070.21,1033.69 2073.45,1030.08 2076.69,1026.47 2079.93,1022.84 2083.18,1019.21 2086.42,1015.57 2089.66,1011.93 2092.9,1008.28 2096.14,1004.63 2099.38,1000.97 2102.62,997.312 2105.87,993.653 2109.11,989.995 2112.35,986.337 2115.59,982.681 2118.83,979.027 2122.07,975.377 2125.31,971.732 2128.56,968.091 2131.8,964.456 2135.04,960.827 2138.28,957.205 2141.52,953.591 2144.76,949.986 2148,946.39 2151.25,942.804 2154.49,939.229 2157.73,935.664 2160.97,932.112 2164.21,928.571 2167.45,925.044 2170.69,921.53 2173.93,918.031 2177.18,914.546 2180.42,911.076 2183.66,907.622 2186.9,904.185 2190.14,900.764 2193.38,897.361 2196.62,893.976 2199.87,890.609 2203.11,887.261 2206.35,883.933 2209.59,880.625 2212.83,877.338 2216.07,874.071 2219.31,870.826 2222.56,867.603 2225.8,864.403 2229.04,861.226 2232.28,858.072 2235.52,854.943 2238.76,851.84 2242,848.765 2245.25,845.721 2248.49,842.709 2251.73,839.731 2254.97,836.789 2258.21,833.886 2261.45,831.023 2264.69,828.203 2267.94,825.428 2271.18,822.7 2274.42,820.02 2277.66,817.392 2280.9,814.818 2284.14,812.299 2287.38,809.838 2290.62,807.436 "/>
<path clip-path="url(#clip260)" d="M1953.46 406.258 L2280.8 406.258 L2280.8 95.2176 L1953.46 95.2176  Z" fill="#ffffff" fill-rule="evenodd" fill-opacity="1"/>
<polyline clip-path="url(#clip260)" style="stroke:#000000; stroke-linecap:round; stroke-linejoin:round; stroke-width:4; stroke-opacity:1; fill:none" points="1953.46,406.258 2280.8,406.258 2280.8,95.2176 1953.46,95.2176 1953.46,406.258 "/>
<polyline clip-path="url(#clip260)" style="stroke:#009af9; stroke-linecap:round; stroke-linejoin:round; stroke-width:4; stroke-opacity:1; fill:none" points="1977.44,147.058 2121.36,147.058 "/>
<path clip-path="url(#clip260)" d="M2152.76 131.051 L2152.76 138.412 L2161.53 138.412 L2161.53 141.722 L2152.76 141.722 L2152.76 155.796 Q2152.76 158.967 2153.61 159.87 Q2154.49 160.773 2157.16 160.773 L2161.53 160.773 L2161.53 164.338 L2157.16 164.338 Q2152.23 164.338 2150.35 162.509 Q2148.48 160.657 2148.48 155.796 L2148.48 141.722 L2145.35 141.722 L2145.35 138.412 L2148.48 138.412 L2148.48 131.051 L2152.76 131.051 Z" fill="#000000" fill-rule="nonzero" fill-opacity="1" /><path clip-path="url(#clip260)" d="M2182.16 142.393 Q2181.44 141.977 2180.58 141.791 Q2179.75 141.583 2178.73 141.583 Q2175.12 141.583 2173.17 143.944 Q2171.25 146.282 2171.25 150.68 L2171.25 164.338 L2166.97 164.338 L2166.97 138.412 L2171.25 138.412 L2171.25 142.44 Q2172.6 140.078 2174.75 138.944 Q2176.9 137.787 2179.98 137.787 Q2180.42 137.787 2180.95 137.856 Q2181.48 137.903 2182.13 138.018 L2182.16 142.393 Z" fill="#000000" fill-rule="nonzero" fill-opacity="1" /><path clip-path="url(#clip260)" d="M2186.18 154.106 L2186.18 138.412 L2190.44 138.412 L2190.44 153.944 Q2190.44 157.625 2191.88 159.476 Q2193.31 161.305 2196.18 161.305 Q2199.63 161.305 2201.62 159.106 Q2203.64 156.907 2203.64 153.111 L2203.64 138.412 L2207.9 138.412 L2207.9 164.338 L2203.64 164.338 L2203.64 160.356 Q2202.09 162.717 2200.03 163.875 Q2197.99 165.009 2195.28 165.009 Q2190.81 165.009 2188.5 162.231 Q2186.18 159.453 2186.18 154.106 M2196.9 137.787 L2196.9 137.787 Z" fill="#000000" fill-rule="nonzero" fill-opacity="1" /><path clip-path="url(#clip260)" d="M2220.88 131.051 L2220.88 138.412 L2229.66 138.412 L2229.66 141.722 L2220.88 141.722 L2220.88 155.796 Q2220.88 158.967 2221.74 159.87 Q2222.62 160.773 2225.28 160.773 L2229.66 160.773 L2229.66 164.338 L2225.28 164.338 Q2220.35 164.338 2218.48 162.509 Q2216.6 160.657 2216.6 155.796 L2216.6 141.722 L2213.48 141.722 L2213.48 138.412 L2216.6 138.412 L2216.6 131.051 L2220.88 131.051 Z" fill="#000000" fill-rule="nonzero" fill-opacity="1" /><path clip-path="url(#clip260)" d="M2256.81 148.689 L2256.81 164.338 L2252.55 164.338 L2252.55 148.828 Q2252.55 145.148 2251.11 143.319 Q2249.68 141.49 2246.81 141.49 Q2243.36 141.49 2241.37 143.69 Q2239.38 145.889 2239.38 149.685 L2239.38 164.338 L2235.1 164.338 L2235.1 128.319 L2239.38 128.319 L2239.38 142.44 Q2240.91 140.102 2242.97 138.944 Q2245.05 137.787 2247.76 137.787 Q2252.23 137.787 2254.52 140.565 Q2256.81 143.319 2256.81 148.689 Z" fill="#000000" fill-rule="nonzero" fill-opacity="1" /><circle clip-path="url(#clip260)" cx="2049.4" cy="198.898" r="20.48" fill="#e26f46" fill-rule="evenodd" fill-opacity="1" stroke="#000000" stroke-opacity="1" stroke-width="4.55111"/>
<path clip-path="url(#clip260)" d="M2164.26 194.187 L2164.26 180.159 L2168.52 180.159 L2168.52 216.178 L2164.26 216.178 L2164.26 212.289 Q2162.92 214.603 2160.86 215.738 Q2158.82 216.849 2155.95 216.849 Q2151.25 216.849 2148.29 213.099 Q2145.35 209.349 2145.35 203.238 Q2145.35 197.127 2148.29 193.377 Q2151.25 189.627 2155.95 189.627 Q2158.82 189.627 2160.86 190.761 Q2162.92 191.872 2164.26 194.187 M2149.75 203.238 Q2149.75 207.937 2151.67 210.622 Q2153.61 213.284 2156.99 213.284 Q2160.37 213.284 2162.32 210.622 Q2164.26 207.937 2164.26 203.238 Q2164.26 198.539 2162.32 195.877 Q2160.37 193.192 2156.99 193.192 Q2153.61 193.192 2151.67 195.877 Q2149.75 198.539 2149.75 203.238 Z" fill="#000000" fill-rule="nonzero" fill-opacity="1" /><path clip-path="url(#clip260)" d="M2189.08 203.145 Q2183.92 203.145 2181.92 204.326 Q2179.93 205.506 2179.93 208.354 Q2179.93 210.622 2181.42 211.965 Q2182.92 213.284 2185.49 213.284 Q2189.03 213.284 2191.16 210.784 Q2193.31 208.261 2193.31 204.094 L2193.31 203.145 L2189.08 203.145 M2197.57 201.386 L2197.57 216.178 L2193.31 216.178 L2193.31 212.242 Q2191.85 214.603 2189.68 215.738 Q2187.5 216.849 2184.36 216.849 Q2180.37 216.849 2178.01 214.627 Q2175.67 212.381 2175.67 208.631 Q2175.67 204.256 2178.59 202.034 Q2181.53 199.812 2187.34 199.812 L2193.31 199.812 L2193.31 199.395 Q2193.31 196.455 2191.37 194.858 Q2189.45 193.238 2185.95 193.238 Q2183.73 193.238 2181.62 193.77 Q2179.52 194.303 2177.57 195.367 L2177.57 191.432 Q2179.91 190.53 2182.11 190.09 Q2184.31 189.627 2186.39 189.627 Q2192.02 189.627 2194.79 192.543 Q2197.57 195.46 2197.57 201.386 Z" fill="#000000" fill-rule="nonzero" fill-opacity="1" /><path clip-path="url(#clip260)" d="M2210.56 182.891 L2210.56 190.252 L2219.33 190.252 L2219.33 193.562 L2210.56 193.562 L2210.56 207.636 Q2210.56 210.807 2211.42 211.71 Q2212.29 212.613 2214.96 212.613 L2219.33 212.613 L2219.33 216.178 L2214.96 216.178 Q2210.03 216.178 2208.15 214.349 Q2206.28 212.497 2206.28 207.636 L2206.28 193.562 L2203.15 193.562 L2203.15 190.252 L2206.28 190.252 L2206.28 182.891 L2210.56 182.891 Z" fill="#000000" fill-rule="nonzero" fill-opacity="1" /><path clip-path="url(#clip260)" d="M2236.72 203.145 Q2231.55 203.145 2229.56 204.326 Q2227.57 205.506 2227.57 208.354 Q2227.57 210.622 2229.05 211.965 Q2230.56 213.284 2233.13 213.284 Q2236.67 213.284 2238.8 210.784 Q2240.95 208.261 2240.95 204.094 L2240.95 203.145 L2236.72 203.145 M2245.21 201.386 L2245.21 216.178 L2240.95 216.178 L2240.95 212.242 Q2239.49 214.603 2237.32 215.738 Q2235.14 216.849 2231.99 216.849 Q2228.01 216.849 2225.65 214.627 Q2223.31 212.381 2223.31 208.631 Q2223.31 204.256 2226.23 202.034 Q2229.17 199.812 2234.98 199.812 L2240.95 199.812 L2240.95 199.395 Q2240.95 196.455 2239.01 194.858 Q2237.09 193.238 2233.59 193.238 Q2231.37 193.238 2229.26 193.77 Q2227.16 194.303 2225.21 195.367 L2225.21 191.432 Q2227.55 190.53 2229.75 190.09 Q2231.95 189.627 2234.03 189.627 Q2239.66 189.627 2242.43 192.543 Q2245.21 195.46 2245.21 201.386 Z" fill="#000000" fill-rule="nonzero" fill-opacity="1" /><polyline clip-path="url(#clip260)" style="stroke:#3da44d; stroke-linecap:round; stroke-linejoin:round; stroke-width:8; stroke-opacity:1; fill:none" points="1977.44,250.738 2121.36,250.738 "/>
<path clip-path="url(#clip260)" d="M2170.91 263.087 L2170.91 253.805 L2163.27 253.805 L2163.27 249.962 L2175.54 249.962 L2175.54 264.8 Q2172.83 266.721 2169.56 267.717 Q2166.3 268.689 2162.6 268.689 Q2154.49 268.689 2149.91 263.967 Q2145.35 259.221 2145.35 250.772 Q2145.35 242.3 2149.91 237.578 Q2154.49 232.833 2162.6 232.833 Q2165.98 232.833 2169.01 233.666 Q2172.06 234.499 2174.63 236.12 L2174.63 241.096 Q2172.04 238.897 2169.12 237.786 Q2166.21 236.675 2162.99 236.675 Q2156.65 236.675 2153.45 240.217 Q2150.28 243.758 2150.28 250.772 Q2150.28 257.763 2153.45 261.305 Q2156.65 264.846 2162.99 264.846 Q2165.47 264.846 2167.41 264.43 Q2169.36 263.99 2170.91 263.087 Z" fill="#000000" fill-rule="nonzero" fill-opacity="1" /><path clip-path="url(#clip260)" d="M2188.75 237.3 L2188.75 250.286 L2194.63 250.286 Q2197.9 250.286 2199.68 248.596 Q2201.46 246.907 2201.46 243.782 Q2201.46 240.68 2199.68 238.99 Q2197.9 237.3 2194.63 237.3 L2188.75 237.3 M2184.08 233.458 L2194.63 233.458 Q2200.44 233.458 2203.41 236.096 Q2206.39 238.712 2206.39 243.782 Q2206.39 248.897 2203.41 251.513 Q2200.44 254.129 2194.63 254.129 L2188.75 254.129 L2188.75 268.018 L2184.08 268.018 L2184.08 233.458 Z" fill="#000000" fill-rule="nonzero" fill-opacity="1" /><polyline clip-path="url(#clip260)" style="stroke:#c271d2; stroke-linecap:round; stroke-linejoin:round; stroke-width:12; stroke-opacity:1; fill:none" points="1977.44,302.578 2121.36,302.578 "/>
<path clip-path="url(#clip260)" d="M2150.03 289.14 L2150.03 302.126 L2155.91 302.126 Q2159.17 302.126 2160.95 300.436 Q2162.73 298.747 2162.73 295.622 Q2162.73 292.52 2160.95 290.83 Q2159.17 289.14 2155.91 289.14 L2150.03 289.14 M2145.35 285.298 L2155.91 285.298 Q2161.72 285.298 2164.68 287.936 Q2167.67 290.552 2167.67 295.622 Q2167.67 300.737 2164.68 303.353 Q2161.72 305.969 2155.91 305.969 L2150.03 305.969 L2150.03 319.858 L2145.35 319.858 L2145.35 285.298 Z" fill="#000000" fill-rule="nonzero" fill-opacity="1" /><path clip-path="url(#clip260)" d="M2178.38 315.922 L2194.7 315.922 L2194.7 319.858 L2172.76 319.858 L2172.76 315.922 Q2175.42 313.168 2180 308.538 Q2184.61 303.885 2185.79 302.543 Q2188.04 300.02 2188.92 298.284 Q2189.82 296.524 2189.82 294.835 Q2189.82 292.08 2187.87 290.344 Q2185.95 288.608 2182.85 288.608 Q2180.65 288.608 2178.2 289.372 Q2175.77 290.135 2172.99 291.686 L2172.99 286.964 Q2175.81 285.83 2178.27 285.251 Q2180.72 284.673 2182.76 284.673 Q2188.13 284.673 2191.32 287.358 Q2194.52 290.043 2194.52 294.534 Q2194.52 296.663 2193.71 298.585 Q2192.92 300.483 2190.81 303.075 Q2190.23 303.747 2187.13 306.964 Q2184.03 310.159 2178.38 315.922 Z" fill="#000000" fill-rule="nonzero" fill-opacity="1" /><path clip-path="url(#clip260)" d="M2204.56 285.298 L2222.92 285.298 L2222.92 289.233 L2208.85 289.233 L2208.85 297.705 Q2209.86 297.358 2210.88 297.196 Q2211.9 297.01 2212.92 297.01 Q2218.71 297.01 2222.09 300.182 Q2225.47 303.353 2225.47 308.77 Q2225.47 314.348 2221.99 317.45 Q2218.52 320.529 2212.2 320.529 Q2210.03 320.529 2207.76 320.158 Q2205.51 319.788 2203.1 319.047 L2203.1 314.348 Q2205.19 315.483 2207.41 316.038 Q2209.63 316.594 2212.11 316.594 Q2216.11 316.594 2218.45 314.487 Q2220.79 312.381 2220.79 308.77 Q2220.79 305.159 2218.45 303.052 Q2216.11 300.946 2212.11 300.946 Q2210.23 300.946 2208.36 301.362 Q2206.51 301.779 2204.56 302.659 L2204.56 285.298 Z" fill="#000000" fill-rule="nonzero" fill-opacity="1" /><polyline clip-path="url(#clip260)" style="stroke:#ac8d18; stroke-linecap:round; stroke-linejoin:round; stroke-width:12; stroke-opacity:1; fill:none" points="1977.44,354.418 2121.36,354.418 "/>
<path clip-path="url(#clip260)" d="M2150.03 340.98 L2150.03 353.966 L2155.91 353.966 Q2159.17 353.966 2160.95 352.276 Q2162.73 350.587 2162.73 347.462 Q2162.73 344.36 2160.95 342.67 Q2159.17 340.98 2155.91 340.98 L2150.03 340.98 M2145.35 337.138 L2155.91 337.138 Q2161.72 337.138 2164.68 339.776 Q2167.67 342.392 2167.67 347.462 Q2167.67 352.577 2164.68 355.193 Q2161.72 357.809 2155.91 357.809 L2150.03 357.809 L2150.03 371.698 L2145.35 371.698 L2145.35 337.138 Z" fill="#000000" fill-rule="nonzero" fill-opacity="1" /><path clip-path="url(#clip260)" d="M2173.17 337.138 L2195.4 337.138 L2195.4 339.128 L2182.85 371.698 L2177.97 371.698 L2189.77 341.073 L2173.17 341.073 L2173.17 337.138 Z" fill="#000000" fill-rule="nonzero" fill-opacity="1" /><path clip-path="url(#clip260)" d="M2204.56 337.138 L2222.92 337.138 L2222.92 341.073 L2208.85 341.073 L2208.85 349.545 Q2209.86 349.198 2210.88 349.036 Q2211.9 348.85 2212.92 348.85 Q2218.71 348.85 2222.09 352.022 Q2225.47 355.193 2225.47 360.61 Q2225.47 366.188 2221.99 369.29 Q2218.52 372.369 2212.2 372.369 Q2210.03 372.369 2207.76 371.998 Q2205.51 371.628 2203.1 370.887 L2203.1 366.188 Q2205.19 367.323 2207.41 367.878 Q2209.63 368.434 2212.11 368.434 Q2216.11 368.434 2218.45 366.327 Q2220.79 364.221 2220.79 360.61 Q2220.79 356.999 2218.45 354.892 Q2216.11 352.786 2212.11 352.786 Q2210.23 352.786 2208.36 353.202 Q2206.51 353.619 2204.56 354.499 L2204.56 337.138 Z" fill="#000000" fill-rule="nonzero" fill-opacity="1" /></svg>
