<?xml version="1.0" encoding="utf-8"?>
<svg xmlns="http://www.w3.org/2000/svg" xmlns:xlink="http://www.w3.org/1999/xlink" width="600" height="400" viewBox="0 0 2400 1600">
<defs>
  <clipPath id="clip850">
    <rect x="0" y="0" width="2400" height="1600"/>
  </clipPath>
</defs>
<path clip-path="url(#clip850)" d="M0 1600 L2400 1600 L2400 0 L0 0  Z" fill="#ffffff" fill-rule="evenodd" fill-opacity="1"/>
<defs>
  <clipPath id="clip851">
    <rect x="480" y="0" width="1681" height="1600"/>
  </clipPath>
</defs>
<path clip-path="url(#clip850)" d="M193.936 1486.45 L2352.76 1486.45 L2352.76 47.2441 L193.936 47.2441  Z" fill="#ffffff" fill-rule="evenodd" fill-opacity="1"/>
<defs>
  <clipPath id="clip852">
    <rect x="193" y="47" width="2160" height="1440"/>
  </clipPath>
</defs>
<polyline clip-path="url(#clip852)" style="stroke:#000000; stroke-linecap:round; stroke-linejoin:round; stroke-width:2; stroke-opacity:0.1; fill:none" points="255.035,1486.45 255.035,47.2441 "/>
<polyline clip-path="url(#clip852)" style="stroke:#000000; stroke-linecap:round; stroke-linejoin:round; stroke-width:2; stroke-opacity:0.1; fill:none" points="579.173,1486.45 579.173,47.2441 "/>
<polyline clip-path="url(#clip852)" style="stroke:#000000; stroke-linecap:round; stroke-linejoin:round; stroke-width:2; stroke-opacity:0.1; fill:none" points="903.312,1486.45 903.312,47.2441 "/>
<polyline clip-path="url(#clip852)" style="stroke:#000000; stroke-linecap:round; stroke-linejoin:round; stroke-width:2; stroke-opacity:0.1; fill:none" points="1227.45,1486.45 1227.45,47.2441 "/>
<polyline clip-path="url(#clip852)" style="stroke:#000000; stroke-linecap:round; stroke-linejoin:round; stroke-width:2; stroke-opacity:0.1; fill:none" points="1551.59,1486.45 1551.59,47.2441 "/>
<polyline clip-path="url(#clip852)" style="stroke:#000000; stroke-linecap:round; stroke-linejoin:round; stroke-width:2; stroke-opacity:0.1; fill:none" points="1875.73,1486.45 1875.73,47.2441 "/>
<polyline clip-path="url(#clip852)" style="stroke:#000000; stroke-linecap:round; stroke-linejoin:round; stroke-width:2; stroke-opacity:0.1; fill:none" points="2199.87,1486.45 2199.87,47.2441 "/>
<polyline clip-path="url(#clip852)" style="stroke:#000000; stroke-linecap:round; stroke-linejoin:round; stroke-width:2; stroke-opacity:0.1; fill:none" points="193.936,1267.38 2352.76,1267.38 "/>
<polyline clip-path="url(#clip852)" style="stroke:#000000; stroke-linecap:round; stroke-linejoin:round; stroke-width:2; stroke-opacity:0.1; fill:none" points="193.936,1004.56 2352.76,1004.56 "/>
<polyline clip-path="url(#clip852)" style="stroke:#000000; stroke-linecap:round; stroke-linejoin:round; stroke-width:2; stroke-opacity:0.1; fill:none" points="193.936,741.747 2352.76,741.747 "/>
<polyline clip-path="url(#clip852)" style="stroke:#000000; stroke-linecap:round; stroke-linejoin:round; stroke-width:2; stroke-opacity:0.1; fill:none" points="193.936,478.933 2352.76,478.933 "/>
<polyline clip-path="url(#clip852)" style="stroke:#000000; stroke-linecap:round; stroke-linejoin:round; stroke-width:2; stroke-opacity:0.1; fill:none" points="193.936,216.118 2352.76,216.118 "/>
<polyline clip-path="url(#clip850)" style="stroke:#000000; stroke-linecap:round; stroke-linejoin:round; stroke-width:4; stroke-opacity:1; fill:none" points="193.936,1486.45 2352.76,1486.45 "/>
<polyline clip-path="url(#clip850)" style="stroke:#000000; stroke-linecap:round; stroke-linejoin:round; stroke-width:4; stroke-opacity:1; fill:none" points="255.035,1486.45 255.035,1467.55 "/>
<polyline clip-path="url(#clip850)" style="stroke:#000000; stroke-linecap:round; stroke-linejoin:round; stroke-width:4; stroke-opacity:1; fill:none" points="579.173,1486.45 579.173,1467.55 "/>
<polyline clip-path="url(#clip850)" style="stroke:#000000; stroke-linecap:round; stroke-linejoin:round; stroke-width:4; stroke-opacity:1; fill:none" points="903.312,1486.45 903.312,1467.55 "/>
<polyline clip-path="url(#clip850)" style="stroke:#000000; stroke-linecap:round; stroke-linejoin:round; stroke-width:4; stroke-opacity:1; fill:none" points="1227.45,1486.45 1227.45,1467.55 "/>
<polyline clip-path="url(#clip850)" style="stroke:#000000; stroke-linecap:round; stroke-linejoin:round; stroke-width:4; stroke-opacity:1; fill:none" points="1551.59,1486.45 1551.59,1467.55 "/>
<polyline clip-path="url(#clip850)" style="stroke:#000000; stroke-linecap:round; stroke-linejoin:round; stroke-width:4; stroke-opacity:1; fill:none" points="1875.73,1486.45 1875.73,1467.55 "/>
<polyline clip-path="url(#clip850)" style="stroke:#000000; stroke-linecap:round; stroke-linejoin:round; stroke-width:4; stroke-opacity:1; fill:none" points="2199.87,1486.45 2199.87,1467.55 "/>
<path clip-path="url(#clip850)" d="M255.035 1517.37 Q251.424 1517.37 249.595 1520.93 Q247.789 1524.47 247.789 1531.6 Q247.789 1538.71 249.595 1542.27 Q251.424 1545.82 255.035 1545.82 Q258.669 1545.82 260.474 1542.27 Q262.303 1538.71 262.303 1531.6 Q262.303 1524.47 260.474 1520.93 Q258.669 1517.37 255.035 1517.37 M255.035 1513.66 Q260.845 1513.66 263.9 1518.27 Q266.979 1522.85 266.979 1531.6 Q266.979 1540.33 263.9 1544.94 Q260.845 1549.52 255.035 1549.52 Q249.225 1549.52 246.146 1544.94 Q243.09 1540.33 243.09 1531.6 Q243.09 1522.85 246.146 1518.27 Q249.225 1513.66 255.035 1513.66 Z" fill="#000000" fill-rule="nonzero" fill-opacity="1" /><path clip-path="url(#clip850)" d="M569.555 1544.91 L577.194 1544.91 L577.194 1518.55 L568.884 1520.21 L568.884 1515.95 L577.148 1514.29 L581.824 1514.29 L581.824 1544.91 L589.463 1544.91 L589.463 1548.85 L569.555 1548.85 L569.555 1544.91 Z" fill="#000000" fill-rule="nonzero" fill-opacity="1" /><path clip-path="url(#clip850)" d="M897.965 1544.91 L914.284 1544.91 L914.284 1548.85 L892.34 1548.85 L892.34 1544.91 Q895.002 1542.16 899.585 1537.53 Q904.191 1532.88 905.372 1531.53 Q907.617 1529.01 908.497 1527.27 Q909.4 1525.51 909.4 1523.82 Q909.4 1521.07 907.455 1519.33 Q905.534 1517.6 902.432 1517.6 Q900.233 1517.6 897.779 1518.36 Q895.349 1519.13 892.571 1520.68 L892.571 1515.95 Q895.395 1514.82 897.849 1514.24 Q900.303 1513.66 902.34 1513.66 Q907.71 1513.66 910.904 1516.35 Q914.099 1519.03 914.099 1523.52 Q914.099 1525.65 913.289 1527.57 Q912.502 1529.47 910.395 1532.07 Q909.816 1532.74 906.715 1535.95 Q903.613 1539.15 897.965 1544.91 Z" fill="#000000" fill-rule="nonzero" fill-opacity="1" /><path clip-path="url(#clip850)" d="M1231.7 1530.21 Q1235.05 1530.93 1236.93 1533.2 Q1238.83 1535.47 1238.83 1538.8 Q1238.83 1543.92 1235.31 1546.72 Q1231.79 1549.52 1225.31 1549.52 Q1223.13 1549.52 1220.82 1549.08 Q1218.53 1548.66 1216.07 1547.81 L1216.07 1543.29 Q1218.02 1544.43 1220.33 1545.01 Q1222.65 1545.58 1225.17 1545.58 Q1229.57 1545.58 1231.86 1543.85 Q1234.17 1542.11 1234.17 1538.8 Q1234.17 1535.75 1232.02 1534.03 Q1229.89 1532.3 1226.07 1532.3 L1222.05 1532.3 L1222.05 1528.45 L1226.26 1528.45 Q1229.71 1528.45 1231.54 1527.09 Q1233.36 1525.7 1233.36 1523.11 Q1233.36 1520.45 1231.47 1519.03 Q1229.59 1517.6 1226.07 1517.6 Q1224.15 1517.6 1221.95 1518.01 Q1219.75 1518.43 1217.11 1519.31 L1217.11 1515.14 Q1219.78 1514.4 1222.09 1514.03 Q1224.43 1513.66 1226.49 1513.66 Q1231.81 1513.66 1234.92 1516.09 Q1238.02 1518.5 1238.02 1522.62 Q1238.02 1525.49 1236.37 1527.48 Q1234.73 1529.45 1231.7 1530.21 Z" fill="#000000" fill-rule="nonzero" fill-opacity="1" /><path clip-path="url(#clip850)" d="M1554.6 1518.36 L1542.79 1536.81 L1554.6 1536.81 L1554.6 1518.36 M1553.37 1514.29 L1559.25 1514.29 L1559.25 1536.81 L1564.18 1536.81 L1564.18 1540.7 L1559.25 1540.7 L1559.25 1548.85 L1554.6 1548.85 L1554.6 1540.7 L1539 1540.7 L1539 1536.19 L1553.37 1514.29 Z" fill="#000000" fill-rule="nonzero" fill-opacity="1" /><path clip-path="url(#clip850)" d="M1866.01 1514.29 L1884.36 1514.29 L1884.36 1518.22 L1870.29 1518.22 L1870.29 1526.7 Q1871.31 1526.35 1872.32 1526.19 Q1873.34 1526 1874.36 1526 Q1880.15 1526 1883.53 1529.17 Q1886.91 1532.34 1886.91 1537.76 Q1886.91 1543.34 1883.44 1546.44 Q1879.96 1549.52 1873.64 1549.52 Q1871.47 1549.52 1869.2 1549.15 Q1866.95 1548.78 1864.55 1548.04 L1864.55 1543.34 Q1866.63 1544.47 1868.85 1545.03 Q1871.07 1545.58 1873.55 1545.58 Q1877.56 1545.58 1879.89 1543.48 Q1882.23 1541.37 1882.23 1537.76 Q1882.23 1534.15 1879.89 1532.04 Q1877.56 1529.94 1873.55 1529.94 Q1871.68 1529.94 1869.8 1530.35 Q1867.95 1530.77 1866.01 1531.65 L1866.01 1514.29 Z" fill="#000000" fill-rule="nonzero" fill-opacity="1" /><path clip-path="url(#clip850)" d="M2200.27 1529.7 Q2197.12 1529.7 2195.27 1531.86 Q2193.44 1534.01 2193.44 1537.76 Q2193.44 1541.49 2195.27 1543.66 Q2197.12 1545.82 2200.27 1545.82 Q2203.42 1545.82 2205.25 1543.66 Q2207.1 1541.49 2207.1 1537.76 Q2207.1 1534.01 2205.25 1531.86 Q2203.42 1529.7 2200.27 1529.7 M2209.55 1515.05 L2209.55 1519.31 Q2207.79 1518.48 2205.99 1518.04 Q2204.21 1517.6 2202.45 1517.6 Q2197.82 1517.6 2195.36 1520.72 Q2192.93 1523.85 2192.59 1530.17 Q2193.95 1528.15 2196.01 1527.09 Q2198.07 1526 2200.55 1526 Q2205.76 1526 2208.77 1529.17 Q2211.8 1532.32 2211.8 1537.76 Q2211.8 1543.08 2208.65 1546.3 Q2205.5 1549.52 2200.27 1549.52 Q2194.28 1549.52 2191.1 1544.94 Q2187.93 1540.33 2187.93 1531.6 Q2187.93 1523.41 2191.82 1518.55 Q2195.71 1513.66 2202.26 1513.66 Q2204.02 1513.66 2205.8 1514.01 Q2207.61 1514.36 2209.55 1515.05 Z" fill="#000000" fill-rule="nonzero" fill-opacity="1" /><polyline clip-path="url(#clip850)" style="stroke:#000000; stroke-linecap:round; stroke-linejoin:round; stroke-width:4; stroke-opacity:1; fill:none" points="193.936,1486.45 193.936,47.2441 "/>
<polyline clip-path="url(#clip850)" style="stroke:#000000; stroke-linecap:round; stroke-linejoin:round; stroke-width:4; stroke-opacity:1; fill:none" points="193.936,1267.38 212.834,1267.38 "/>
<polyline clip-path="url(#clip850)" style="stroke:#000000; stroke-linecap:round; stroke-linejoin:round; stroke-width:4; stroke-opacity:1; fill:none" points="193.936,1004.56 212.834,1004.56 "/>
<polyline clip-path="url(#clip850)" style="stroke:#000000; stroke-linecap:round; stroke-linejoin:round; stroke-width:4; stroke-opacity:1; fill:none" points="193.936,741.747 212.834,741.747 "/>
<polyline clip-path="url(#clip850)" style="stroke:#000000; stroke-linecap:round; stroke-linejoin:round; stroke-width:4; stroke-opacity:1; fill:none" points="193.936,478.933 212.834,478.933 "/>
<polyline clip-path="url(#clip850)" style="stroke:#000000; stroke-linecap:round; stroke-linejoin:round; stroke-width:4; stroke-opacity:1; fill:none" points="193.936,216.118 212.834,216.118 "/>
<path clip-path="url(#clip850)" d="M50.9921 1267.83 L80.6679 1267.83 L80.6679 1271.76 L50.9921 1271.76 L50.9921 1267.83 Z" fill="#000000" fill-rule="nonzero" fill-opacity="1" /><path clip-path="url(#clip850)" d="M91.5706 1280.72 L99.2095 1280.72 L99.2095 1254.36 L90.8993 1256.02 L90.8993 1251.76 L99.1632 1250.1 L103.839 1250.1 L103.839 1280.72 L111.478 1280.72 L111.478 1284.66 L91.5706 1284.66 L91.5706 1280.72 Z" fill="#000000" fill-rule="nonzero" fill-opacity="1" /><path clip-path="url(#clip850)" d="M120.922 1278.78 L125.807 1278.78 L125.807 1284.66 L120.922 1284.66 L120.922 1278.78 Z" fill="#000000" fill-rule="nonzero" fill-opacity="1" /><path clip-path="url(#clip850)" d="M145.992 1253.17 Q142.381 1253.17 140.552 1256.74 Q138.746 1260.28 138.746 1267.41 Q138.746 1274.52 140.552 1278.08 Q142.381 1281.62 145.992 1281.62 Q149.626 1281.62 151.431 1278.08 Q153.26 1274.52 153.26 1267.41 Q153.26 1260.28 151.431 1256.74 Q149.626 1253.17 145.992 1253.17 M145.992 1249.47 Q151.802 1249.47 154.857 1254.08 Q157.936 1258.66 157.936 1267.41 Q157.936 1276.14 154.857 1280.74 Q151.802 1285.33 145.992 1285.33 Q140.181 1285.33 137.103 1280.74 Q134.047 1276.14 134.047 1267.41 Q134.047 1258.66 137.103 1254.08 Q140.181 1249.47 145.992 1249.47 Z" fill="#000000" fill-rule="nonzero" fill-opacity="1" /><path clip-path="url(#clip850)" d="M51.9875 1005.01 L81.6633 1005.01 L81.6633 1008.95 L51.9875 1008.95 L51.9875 1005.01 Z" fill="#000000" fill-rule="nonzero" fill-opacity="1" /><path clip-path="url(#clip850)" d="M101.756 990.36 Q98.1447 990.36 96.316 993.925 Q94.5104 997.467 94.5104 1004.6 Q94.5104 1011.7 96.316 1015.27 Q98.1447 1018.81 101.756 1018.81 Q105.39 1018.81 107.196 1015.27 Q109.024 1011.7 109.024 1004.6 Q109.024 997.467 107.196 993.925 Q105.39 990.36 101.756 990.36 M101.756 986.657 Q107.566 986.657 110.621 991.263 Q113.7 995.847 113.7 1004.6 Q113.7 1013.32 110.621 1017.93 Q107.566 1022.51 101.756 1022.51 Q95.9456 1022.51 92.8669 1017.93 Q89.8114 1013.32 89.8114 1004.6 Q89.8114 995.847 92.8669 991.263 Q95.9456 986.657 101.756 986.657 Z" fill="#000000" fill-rule="nonzero" fill-opacity="1" /><path clip-path="url(#clip850)" d="M121.918 1015.96 L126.802 1015.96 L126.802 1021.84 L121.918 1021.84 L121.918 1015.96 Z" fill="#000000" fill-rule="nonzero" fill-opacity="1" /><path clip-path="url(#clip850)" d="M137.033 987.282 L155.39 987.282 L155.39 991.217 L141.316 991.217 L141.316 999.689 Q142.334 999.342 143.353 999.18 Q144.371 998.995 145.39 998.995 Q151.177 998.995 154.556 1002.17 Q157.936 1005.34 157.936 1010.75 Q157.936 1016.33 154.464 1019.43 Q150.992 1022.51 144.672 1022.51 Q142.496 1022.51 140.228 1022.14 Q137.982 1021.77 135.575 1021.03 L135.575 1016.33 Q137.658 1017.47 139.881 1018.02 Q142.103 1018.58 144.58 1018.58 Q148.584 1018.58 150.922 1016.47 Q153.26 1014.36 153.26 1010.75 Q153.26 1007.14 150.922 1005.04 Q148.584 1002.93 144.58 1002.93 Q142.705 1002.93 140.83 1003.35 Q138.978 1003.76 137.033 1004.64 L137.033 987.282 Z" fill="#000000" fill-rule="nonzero" fill-opacity="1" /><path clip-path="url(#clip850)" d="M100.76 727.546 Q97.1493 727.546 95.3206 731.111 Q93.515 734.652 93.515 741.782 Q93.515 748.888 95.3206 752.453 Q97.1493 755.995 100.76 755.995 Q104.395 755.995 106.2 752.453 Q108.029 748.888 108.029 741.782 Q108.029 734.652 106.2 731.111 Q104.395 727.546 100.76 727.546 M100.76 723.842 Q106.571 723.842 109.626 728.449 Q112.705 733.032 112.705 741.782 Q112.705 750.509 109.626 755.115 Q106.571 759.699 100.76 759.699 Q94.9502 759.699 91.8715 755.115 Q88.816 750.509 88.816 741.782 Q88.816 733.032 91.8715 728.449 Q94.9502 723.842 100.76 723.842 Z" fill="#000000" fill-rule="nonzero" fill-opacity="1" /><path clip-path="url(#clip850)" d="M120.922 753.148 L125.807 753.148 L125.807 759.027 L120.922 759.027 L120.922 753.148 Z" fill="#000000" fill-rule="nonzero" fill-opacity="1" /><path clip-path="url(#clip850)" d="M145.992 727.546 Q142.381 727.546 140.552 731.111 Q138.746 734.652 138.746 741.782 Q138.746 748.888 140.552 752.453 Q142.381 755.995 145.992 755.995 Q149.626 755.995 151.431 752.453 Q153.26 748.888 153.26 741.782 Q153.26 734.652 151.431 731.111 Q149.626 727.546 145.992 727.546 M145.992 723.842 Q151.802 723.842 154.857 728.449 Q157.936 733.032 157.936 741.782 Q157.936 750.509 154.857 755.115 Q151.802 759.699 145.992 759.699 Q140.181 759.699 137.103 755.115 Q134.047 750.509 134.047 741.782 Q134.047 733.032 137.103 728.449 Q140.181 723.842 145.992 723.842 Z" fill="#000000" fill-rule="nonzero" fill-opacity="1" /><path clip-path="url(#clip850)" d="M101.756 464.732 Q98.1447 464.732 96.316 468.296 Q94.5104 471.838 94.5104 478.968 Q94.5104 486.074 96.316 489.639 Q98.1447 493.18 101.756 493.18 Q105.39 493.18 107.196 489.639 Q109.024 486.074 109.024 478.968 Q109.024 471.838 107.196 468.296 Q105.39 464.732 101.756 464.732 M101.756 461.028 Q107.566 461.028 110.621 465.634 Q113.7 470.218 113.7 478.968 Q113.7 487.694 110.621 492.301 Q107.566 496.884 101.756 496.884 Q95.9456 496.884 92.8669 492.301 Q89.8114 487.694 89.8114 478.968 Q89.8114 470.218 92.8669 465.634 Q95.9456 461.028 101.756 461.028 Z" fill="#000000" fill-rule="nonzero" fill-opacity="1" /><path clip-path="url(#clip850)" d="M121.918 490.333 L126.802 490.333 L126.802 496.213 L121.918 496.213 L121.918 490.333 Z" fill="#000000" fill-rule="nonzero" fill-opacity="1" /><path clip-path="url(#clip850)" d="M137.033 461.653 L155.39 461.653 L155.39 465.588 L141.316 465.588 L141.316 474.06 Q142.334 473.713 143.353 473.551 Q144.371 473.366 145.39 473.366 Q151.177 473.366 154.556 476.537 Q157.936 479.708 157.936 485.125 Q157.936 490.704 154.464 493.805 Q150.992 496.884 144.672 496.884 Q142.496 496.884 140.228 496.514 Q137.982 496.143 135.575 495.403 L135.575 490.704 Q137.658 491.838 139.881 492.393 Q142.103 492.949 144.58 492.949 Q148.584 492.949 150.922 490.842 Q153.26 488.736 153.26 485.125 Q153.26 481.514 150.922 479.407 Q148.584 477.301 144.58 477.301 Q142.705 477.301 140.83 477.718 Q138.978 478.134 137.033 479.014 L137.033 461.653 Z" fill="#000000" fill-rule="nonzero" fill-opacity="1" /><path clip-path="url(#clip850)" d="M91.5706 229.463 L99.2095 229.463 L99.2095 203.098 L90.8993 204.764 L90.8993 200.505 L99.1632 198.838 L103.839 198.838 L103.839 229.463 L111.478 229.463 L111.478 233.398 L91.5706 233.398 L91.5706 229.463 Z" fill="#000000" fill-rule="nonzero" fill-opacity="1" /><path clip-path="url(#clip850)" d="M120.922 227.519 L125.807 227.519 L125.807 233.398 L120.922 233.398 L120.922 227.519 Z" fill="#000000" fill-rule="nonzero" fill-opacity="1" /><path clip-path="url(#clip850)" d="M145.992 201.917 Q142.381 201.917 140.552 205.482 Q138.746 209.023 138.746 216.153 Q138.746 223.26 140.552 226.824 Q142.381 230.366 145.992 230.366 Q149.626 230.366 151.431 226.824 Q153.26 223.26 153.26 216.153 Q153.26 209.023 151.431 205.482 Q149.626 201.917 145.992 201.917 M145.992 198.213 Q151.802 198.213 154.857 202.82 Q157.936 207.403 157.936 216.153 Q157.936 224.88 154.857 229.486 Q151.802 234.07 145.992 234.07 Q140.181 234.07 137.103 229.486 Q134.047 224.88 134.047 216.153 Q134.047 207.403 137.103 202.82 Q140.181 198.213 145.992 198.213 Z" fill="#000000" fill-rule="nonzero" fill-opacity="1" /><polyline clip-path="url(#clip852)" style="stroke:#009af9; stroke-linecap:round; stroke-linejoin:round; stroke-width:4; stroke-opacity:1; fill:none" points="255.035,741.747 258.276,736.491 261.517,731.235 264.759,725.981 268,720.728 271.242,715.477 274.483,710.228 277.724,704.983 280.966,699.742 284.207,694.505 287.449,689.272 290.69,684.045 293.931,678.823 297.173,673.608 300.414,668.399 303.655,663.198 306.897,658.005 310.138,652.82 313.38,647.644 316.621,642.478 319.862,637.321 323.104,632.175 326.345,627.039 329.587,621.916 332.828,616.804 336.069,611.705 339.311,606.618 342.552,601.546 345.793,596.487 349.035,591.443 352.276,586.413 355.518,581.4 358.759,576.402 362,571.421 365.242,566.457 368.483,561.51 371.725,556.582 374.966,551.672 378.207,546.781 381.449,541.909 384.69,537.058 387.931,532.227 391.173,527.417 394.414,522.628 397.656,517.861 400.897,513.117 404.138,508.395 407.38,503.697 410.621,499.023 413.863,494.373 417.104,489.747 420.345,485.147 423.587,480.573 426.828,476.024 430.069,471.503 433.311,467.008 436.552,462.54 439.794,458.101 443.035,453.69 446.276,449.308 449.518,444.955 452.759,440.632 456.001,436.338 459.242,432.076 462.483,427.844 465.725,423.644 468.966,419.475 472.208,415.339 475.449,411.235 478.69,407.165 481.932,403.128 485.173,399.125 488.414,395.156 491.656,391.221 494.897,387.322 498.139,383.458 501.38,379.63 504.621,375.838 507.863,372.083 511.104,368.365 514.346,364.684 517.587,361.041 520.828,357.436 524.07,353.869 527.311,350.341 530.552,346.853 533.794,343.403 537.035,339.994 540.277,336.625 543.518,333.296 546.759,330.008 550.001,326.761 553.242,323.556 556.484,320.393 559.725,317.271 562.966,314.193 566.208,311.156 569.449,308.163 572.69,305.214 575.932,302.308 579.173,299.446 582.415,296.628 585.656,293.855 588.897,291.126 592.139,288.443 595.38,285.805 598.622,283.212 601.863,280.665 605.104,278.165 608.346,275.711 611.587,273.303 614.828,270.942 618.07,268.628 621.311,266.362 624.553,264.143 627.794,261.972 631.035,259.849 634.277,257.774 637.518,255.748 640.76,253.77 644.001,251.841 647.242,249.96 650.484,248.129 653.725,246.348 656.966,244.616 660.208,242.934 663.449,241.301 666.691,239.719 669.932,238.186 673.173,236.705 676.415,235.273 679.656,233.893 682.898,232.563 686.139,231.284 689.38,230.056 692.622,228.879 695.863,227.753 699.104,226.679 702.346,225.657 705.587,224.686 708.829,223.766 712.07,222.899 715.311,222.083 718.553,221.32 721.794,220.608 725.036,219.949 728.277,219.341 731.518,218.786 734.76,218.283 738.001,217.833 741.242,217.435 744.484,217.089 747.725,216.796 750.967,216.556 754.208,216.368 757.449,216.232 760.691,216.149 763.932,216.119 767.174,216.141 770.415,216.215 773.656,216.342 776.898,216.522 780.139,216.754 783.381,217.039 786.622,217.376 789.863,217.766 793.105,218.208 796.346,218.703 799.587,219.249 802.829,219.848 806.07,220.5 809.312,221.203 812.553,221.958 815.794,222.766 819.036,223.625 822.277,224.536 825.519,225.499 828.76,226.513 832.001,227.579 835.243,228.696 838.484,229.865 841.725,231.085 844.967,232.355 848.208,233.677 851.45,235.05 854.691,236.473 857.932,237.947 861.174,239.471 864.415,241.046 867.657,242.67 870.898,244.345 874.139,246.069 877.381,247.842 880.622,249.666 883.863,251.538 887.105,253.459 890.346,255.429 893.588,257.448 896.829,259.515 900.07,261.631 903.312,263.794 906.553,266.005 909.795,268.264 913.036,270.57 916.277,272.924 919.519,275.324 922.76,277.771 926.001,280.264 929.243,282.803 932.484,285.389 935.726,288.019 938.967,290.696 942.208,293.417 945.45,296.183 948.691,298.994 951.933,301.849 955.174,304.748 958.415,307.691 961.657,310.677 964.898,313.706 968.139,316.778 971.381,319.893 974.622,323.049 977.864,326.248 981.105,329.488 984.346,332.769 987.588,336.092 990.829,339.455 994.071,342.858 997.312,346.301 1000.55,349.783 1003.79,353.305 1007.04,356.865 1010.28,360.464 1013.52,364.101 1016.76,367.776 1020,371.489 1023.24,375.238 1026.48,379.024 1029.73,382.846 1032.97,386.704 1036.21,390.598 1039.45,394.527 1042.69,398.49 1045.93,402.488 1049.17,406.52 1052.42,410.585 1055.66,414.683 1058.9,418.814 1062.14,422.978 1065.38,427.173 1068.62,431.4 1071.86,435.657 1075.11,439.946 1078.35,444.264 1081.59,448.613 1084.83,452.99 1088.07,457.397 1091.31,461.832 1094.55,466.294 1097.79,470.785 1101.04,475.302 1104.28,479.847 1107.52,484.417 1110.76,489.013 1114,493.634 1117.24,498.281 1120.48,502.951 1123.73,507.645 1126.97,512.363 1130.21,517.104 1133.45,521.867 1136.69,526.652 1139.93,531.459 1143.17,536.287 1146.42,541.135 1149.66,546.004 1152.9,550.892 1156.14,555.799 1159.38,560.724 1162.62,565.668 1165.86,570.629 1169.11,575.608 1172.35,580.603 1175.59,585.614 1178.83,590.641 1182.07,595.682 1185.31,600.739 1188.55,605.809 1191.8,610.894 1195.04,615.991 1198.28,621.101 1201.52,626.223 1204.76,631.356 1208,636.501 1211.24,641.656 1214.48,646.821 1217.73,651.995 1220.97,657.179 1224.21,662.371 1227.45,667.571 1230.69,672.778 1233.93,677.992 1237.17,683.213 1240.42,688.439 1243.66,693.671 1246.9,698.907 1250.14,704.148 1253.38,709.393 1256.62,714.641 1259.86,719.891 1263.11,725.144 1266.35,730.398 1269.59,735.654 1272.83,740.91 1276.07,746.166 1279.31,751.422 1282.55,756.677 1285.8,761.93 1289.04,767.182 1292.28,772.43 1295.52,777.676 1298.76,782.918 1302,788.156 1305.24,793.39 1308.48,798.618 1311.73,803.84 1314.97,809.057 1318.21,814.266 1321.45,819.468 1324.69,824.663 1327.93,829.849 1331.17,835.027 1334.42,840.195 1337.66,845.353 1340.9,850.501 1344.14,855.638 1347.38,860.764 1350.62,865.877 1353.86,870.979 1357.11,876.067 1360.35,881.142 1363.59,886.203 1366.83,891.25 1370.07,896.281 1373.31,901.298 1376.55,906.298 1379.8,911.282 1383.04,916.248 1386.28,921.198 1389.52,926.129 1392.76,931.042 1396,935.936 1399.24,940.811 1402.49,945.666 1405.73,950.5 1408.97,955.313 1412.21,960.105 1415.45,964.876 1418.69,969.624 1421.93,974.349 1425.17,979.051 1428.42,983.729 1431.66,988.383 1434.9,993.012 1438.14,997.616 1441.38,1002.2 1444.62,1006.75 1447.86,1011.27 1451.11,1015.77 1454.35,1020.24 1457.59,1024.69 1460.83,1029.1 1464.07,1033.49 1467.31,1037.85 1470.55,1042.18 1473.8,1046.47 1477.04,1050.74 1480.28,1054.98 1483.52,1059.18 1486.76,1063.36 1490,1067.5 1493.24,1071.61 1496.49,1075.68 1499.73,1079.73 1502.97,1083.73 1506.21,1087.71 1509.45,1091.65 1512.69,1095.55 1515.93,1099.42 1519.18,1103.26 1522.42,1107.05 1525.66,1110.82 1528.9,1114.54 1532.14,1118.23 1535.38,1121.88 1538.62,1125.49 1541.86,1129.06 1545.11,1132.59 1548.35,1136.09 1551.59,1139.54 1554.83,1142.96 1558.07,1146.34 1561.31,1149.67 1564.55,1152.97 1567.8,1156.22 1571.04,1159.43 1574.28,1162.6 1577.52,1165.73 1580.76,1168.81 1584,1171.86 1587.24,1174.86 1590.49,1177.81 1593.73,1180.73 1596.97,1183.6 1600.21,1186.42 1603.45,1189.2 1606.69,1191.94 1609.93,1194.63 1613.18,1197.27 1616.42,1199.87 1619.66,1202.43 1622.9,1204.93 1626.14,1207.4 1629.38,1209.81 1632.62,1212.18 1635.86,1214.5 1639.11,1216.77 1642.35,1219 1645.59,1221.18 1648.83,1223.31 1652.07,1225.39 1655.31,1227.43 1658.55,1229.41 1661.8,1231.35 1665.04,1233.24 1668.28,1235.08 1671.52,1236.87 1674.76,1238.61 1678,1240.3 1681.24,1241.94 1684.49,1243.53 1687.73,1245.07 1690.97,1246.56 1694.21,1248 1697.45,1249.39 1700.69,1250.72 1703.93,1252.01 1707.18,1253.25 1710.42,1254.43 1713.66,1255.57 1716.9,1256.65 1720.14,1257.68 1723.38,1258.66 1726.62,1259.59 1729.87,1260.46 1733.11,1261.28 1736.35,1262.06 1739.59,1262.78 1742.83,1263.44 1746.07,1264.06 1749.31,1264.62 1752.55,1265.13 1755.8,1265.59 1759.04,1266 1762.28,1266.35 1765.52,1266.66 1768.76,1266.9 1772,1267.1 1775.24,1267.24 1778.49,1267.34 1781.73,1267.37 1784.97,1267.36 1788.21,1267.29 1791.45,1267.18 1794.69,1267 1797.93,1266.78 1801.18,1266.5 1804.42,1266.18 1807.66,1265.79 1810.9,1265.36 1814.14,1264.87 1817.38,1264.34 1820.62,1263.75 1823.87,1263.1 1827.11,1262.41 1830.35,1261.66 1833.59,1260.86 1836.83,1260.01 1840.07,1259.11 1843.31,1258.15 1846.55,1257.15 1849.8,1256.09 1853.04,1254.98 1856.28,1253.82 1859.52,1252.61 1862.76,1251.34 1866,1250.03 1869.24,1248.67 1872.49,1247.25 1875.73,1245.79 1878.97,1244.27 1882.21,1242.7 1885.45,1241.09 1888.69,1239.42 1891.93,1237.7 1895.18,1235.94 1898.42,1234.12 1901.66,1232.26 1904.9,1230.34 1908.14,1228.38 1911.38,1226.37 1914.62,1224.31 1917.87,1222.2 1921.11,1220.05 1924.35,1217.84 1927.59,1215.59 1930.83,1213.29 1934.07,1210.95 1937.31,1208.56 1940.56,1206.12 1943.8,1203.63 1947.04,1201.1 1950.28,1198.52 1953.52,1195.9 1956.76,1193.23 1960,1190.51 1963.24,1187.75 1966.49,1184.95 1969.73,1182.1 1972.97,1179.21 1976.21,1176.28 1979.45,1173.3 1982.69,1170.27 1985.93,1167.21 1989.18,1164.1 1992.42,1160.95 1995.66,1157.76 1998.9,1154.53 2002.14,1151.25 2005.38,1147.93 2008.62,1144.58 2011.87,1141.18 2015.11,1137.75 2018.35,1134.27 2021.59,1130.75 2024.83,1127.2 2028.07,1123.61 2031.31,1119.98 2034.56,1116.31 2037.8,1112.6 2041.04,1108.86 2044.28,1105.08 2047.52,1101.26 2050.76,1097.41 2054,1093.52 2057.24,1089.6 2060.49,1085.64 2063.73,1081.65 2066.97,1077.62 2070.21,1073.56 2073.45,1069.47 2076.69,1065.34 2079.93,1061.18 2083.18,1056.99 2086.42,1052.77 2089.66,1048.52 2092.9,1044.23 2096.14,1039.92 2099.38,1035.58 2102.62,1031.2 2105.87,1026.8 2109.11,1022.37 2112.35,1017.91 2115.59,1013.43 2118.83,1008.91 2122.07,1004.37 2125.31,999.807 2128.56,995.215 2131.8,990.598 2135.04,985.956 2138.28,981.289 2141.52,976.598 2144.76,971.884 2148,967.147 2151.25,962.387 2154.49,957.606 2157.73,952.802 2160.97,947.978 2164.21,943.133 2167.45,938.268 2170.69,933.383 2173.93,928.479 2177.18,923.556 2180.42,918.615 2183.66,913.657 2186.9,908.681 2190.14,903.689 2193.38,898.68 2196.62,893.656 2199.87,888.616 2203.11,883.562 2206.35,878.494 2209.59,873.412 2212.83,868.316 2216.07,863.208 2219.31,858.088 2222.56,852.957 2225.8,847.814 2229.04,842.661 2232.28,837.497 2235.52,832.324 2238.76,827.142 2242,821.951 2245.25,816.753 2248.49,811.547 2251.73,806.333 2254.97,801.114 2258.21,795.888 2261.45,790.657 2264.69,785.421 2267.94,780.181 2271.18,774.937 2274.42,769.69 2277.66,764.44 2280.9,759.187 2284.14,753.933 2287.38,748.678 2290.62,743.422 "/>
<circle clip-path="url(#clip852)" cx="1110.76" cy="537.78" r="14.4" fill="#e26f46" fill-rule="evenodd" fill-opacity="1" stroke="#000000" stroke-opacity="1" stroke-width="3.2"/>
<circle clip-path="url(#clip852)" cx="786.622" cy="335.582" r="14.4" fill="#e26f46" fill-rule="evenodd" fill-opacity="1" stroke="#000000" stroke-opacity="1" stroke-width="3.2"/>
<circle clip-path="url(#clip852)" cx="955.174" cy="381.611" r="14.4" fill="#e26f46" fill-rule="evenodd" fill-opacity="1" stroke="#000000" stroke-opacity="1" stroke-width="3.2"/>
<circle clip-path="url(#clip852)" cx="773.656" cy="165.206" r="14.4" fill="#e26f46" fill-rule="evenodd" fill-opacity="1" stroke="#000000" stroke-opacity="1" stroke-width="3.2"/>
<circle clip-path="url(#clip852)" cx="935.726" cy="170.331" r="14.4" fill="#e26f46" fill-rule="evenodd" fill-opacity="1" stroke="#000000" stroke-opacity="1" stroke-width="3.2"/>
<circle clip-path="url(#clip852)" cx="1736.35" cy="1351.25" r="14.4" fill="#e26f46" fill-rule="evenodd" fill-opacity="1" stroke="#000000" stroke-opacity="1" stroke-width="3.2"/>
<circle clip-path="url(#clip852)" cx="2164.21" cy="830.427" r="14.4" fill="#e26f46" fill-rule="evenodd" fill-opacity="1" stroke="#000000" stroke-opacity="1" stroke-width="3.2"/>
<circle clip-path="url(#clip852)" cx="1068.62" cy="522.289" r="14.4" fill="#e26f46" fill-rule="evenodd" fill-opacity="1" stroke="#000000" stroke-opacity="1" stroke-width="3.2"/>
<circle clip-path="url(#clip852)" cx="938.967" cy="408.115" r="14.4" fill="#e26f46" fill-rule="evenodd" fill-opacity="1" stroke="#000000" stroke-opacity="1" stroke-width="3.2"/>
<circle clip-path="url(#clip852)" cx="1710.42" cy="1329.93" r="14.4" fill="#e26f46" fill-rule="evenodd" fill-opacity="1" stroke="#000000" stroke-opacity="1" stroke-width="3.2"/>
<circle clip-path="url(#clip852)" cx="1032.97" cy="398.547" r="14.4" fill="#e26f46" fill-rule="evenodd" fill-opacity="1" stroke="#000000" stroke-opacity="1" stroke-width="3.2"/>
<circle clip-path="url(#clip852)" cx="2128.56" cy="1054.25" r="14.4" fill="#e26f46" fill-rule="evenodd" fill-opacity="1" stroke="#000000" stroke-opacity="1" stroke-width="3.2"/>
<circle clip-path="url(#clip852)" cx="339.311" cy="549.076" r="14.4" fill="#e26f46" fill-rule="evenodd" fill-opacity="1" stroke="#000000" stroke-opacity="1" stroke-width="3.2"/>
<circle clip-path="url(#clip852)" cx="1794.69" cy="1140.54" r="14.4" fill="#e26f46" fill-rule="evenodd" fill-opacity="1" stroke="#000000" stroke-opacity="1" stroke-width="3.2"/>
<circle clip-path="url(#clip852)" cx="1687.73" cy="1325.38" r="14.4" fill="#e26f46" fill-rule="evenodd" fill-opacity="1" stroke="#000000" stroke-opacity="1" stroke-width="3.2"/>
<circle clip-path="url(#clip852)" cx="1058.9" cy="485.927" r="14.4" fill="#e26f46" fill-rule="evenodd" fill-opacity="1" stroke="#000000" stroke-opacity="1" stroke-width="3.2"/>
<circle clip-path="url(#clip852)" cx="1924.35" cy="1239.84" r="14.4" fill="#e26f46" fill-rule="evenodd" fill-opacity="1" stroke="#000000" stroke-opacity="1" stroke-width="3.2"/>
<circle clip-path="url(#clip852)" cx="527.311" cy="378.869" r="14.4" fill="#e26f46" fill-rule="evenodd" fill-opacity="1" stroke="#000000" stroke-opacity="1" stroke-width="3.2"/>
<circle clip-path="url(#clip852)" cx="656.966" cy="222.558" r="14.4" fill="#e26f46" fill-rule="evenodd" fill-opacity="1" stroke="#000000" stroke-opacity="1" stroke-width="3.2"/>
<circle clip-path="url(#clip852)" cx="1295.52" cy="808.48" r="14.4" fill="#e26f46" fill-rule="evenodd" fill-opacity="1" stroke="#000000" stroke-opacity="1" stroke-width="3.2"/>
<path clip-path="url(#clip852)" d="M255.035 923.647 L258.276 918.858 L261.517 914.055 L264.759 909.241 L268 904.418 L271.242 899.591 L274.483 894.763 L277.724 889.937 L280.966 885.119 L284.207 880.313 L287.449 875.523 L290.69 870.754 L293.931 866.011 L297.173 861.3 L300.414 856.627 L303.655 851.996 L306.897 847.413 L310.138 842.886 L313.38 838.42 L316.621 834.022 L319.862 829.698 L323.104 825.455 L326.345 821.299 L329.587 817.238 L332.828 813.277 L336.069 809.423 L339.311 805.683 L342.552 802.06 L345.793 798.549 L349.035 795.143 L352.276 791.833 L355.518 788.611 L358.759 785.47 L362 782.401 L365.242 779.395 L368.483 776.446 L371.725 773.545 L374.966 770.685 L378.207 767.857 L381.449 765.056 L384.69 762.273 L387.931 759.502 L391.173 756.738 L394.414 753.973 L397.656 751.202 L400.897 748.42 L404.138 745.622 L407.38 742.802 L410.621 739.958 L413.863 737.084 L417.104 734.179 L420.345 731.237 L423.587 728.257 L426.828 725.236 L430.069 722.173 L433.311 719.065 L436.552 715.911 L439.794 712.711 L443.035 709.464 L446.276 706.171 L449.518 702.83 L452.759 699.443 L456.001 696.011 L459.242 692.535 L462.483 689.016 L465.725 685.458 L468.966 681.862 L472.208 678.231 L475.449 674.569 L478.69 670.879 L481.932 667.164 L485.173 663.429 L488.414 659.678 L491.656 655.917 L494.897 652.15 L498.139 648.383 L501.38 644.623 L504.621 640.873 L507.863 637.142 L511.104 633.436 L514.346 629.761 L517.587 626.125 L520.828 622.533 L524.07 618.994 L527.311 615.515 L530.552 612.1 L533.794 608.746 L537.035 605.449 L540.277 602.201 L543.518 599 L546.759 595.839 L550.001 592.713 L553.242 589.618 L556.484 586.55 L559.725 583.504 L562.966 580.476 L566.208 577.463 L569.449 574.461 L572.69 571.468 L575.932 568.481 L579.173 565.499 L582.415 562.52 L585.656 559.541 L588.897 556.564 L592.139 553.587 L595.38 550.61 L598.622 547.635 L601.863 544.661 L605.104 541.692 L608.346 538.727 L611.587 535.771 L614.828 532.825 L618.07 529.894 L621.311 526.98 L624.553 524.088 L627.794 521.222 L631.035 518.389 L634.277 515.592 L637.518 512.838 L640.76 510.132 L644.001 507.483 L647.242 504.895 L650.484 502.377 L653.725 499.935 L656.966 497.578 L660.208 495.31 L663.449 493.127 L666.691 491.023 L669.932 488.992 L673.173 487.027 L676.415 485.123 L679.656 483.275 L682.898 481.477 L686.139 479.726 L689.38 478.017 L692.622 476.346 L695.863 474.711 L699.104 473.108 L702.346 471.537 L705.587 469.994 L708.829 468.48 L712.07 466.994 L715.311 465.536 L718.553 464.107 L721.794 462.71 L725.036 461.345 L728.277 460.016 L731.518 458.726 L734.76 457.479 L738.001 456.28 L741.242 455.134 L744.484 454.048 L747.725 453.027 L750.967 452.079 L754.208 451.211 L757.449 450.432 L760.691 449.749 L763.932 449.172 L767.174 448.71 L770.415 448.372 L773.656 448.168 L776.898 448.105 L780.139 448.18 L783.381 448.387 L786.622 448.721 L789.863 449.176 L793.105 449.741 L796.346 450.404 L799.587 451.154 L802.829 451.979 L806.07 452.87 L809.312 453.815 L812.553 454.805 L815.794 455.83 L819.036 456.88 L822.277 457.948 L825.519 459.026 L828.76 460.106 L832.001 461.182 L835.243 462.249 L838.484 463.3 L841.725 464.332 L844.967 465.339 L848.208 466.32 L851.45 467.272 L854.691 468.192 L857.932 469.08 L861.174 469.934 L864.415 470.756 L867.657 471.545 L870.898 472.304 L874.139 473.033 L877.381 473.738 L880.622 474.42 L883.863 475.084 L887.105 475.736 L890.346 476.38 L893.588 477.024 L896.829 477.676 L900.07 478.342 L903.312 479.032 L906.553 479.755 L909.795 480.523 L913.036 481.345 L916.277 482.235 L919.519 483.204 L922.76 484.266 L926.001 485.435 L929.243 486.726 L932.484 488.152 L935.726 489.729 L938.967 491.469 L942.208 493.373 L945.45 495.435 L948.691 497.649 L951.933 500.009 L955.174 502.51 L958.415 505.143 L961.657 507.899 L964.898 510.765 L968.139 513.73 L971.381 516.783 L974.622 519.915 L977.864 523.117 L981.105 526.38 L984.346 529.698 L987.588 533.064 L990.829 536.474 L994.071 539.924 L997.312 543.411 L1000.55 546.934 L1003.79 550.494 L1007.04 554.091 L1010.28 557.728 L1013.52 561.408 L1016.76 565.137 L1020 568.92 L1023.24 572.765 L1026.48 576.679 L1029.73 580.674 L1032.97 584.757 L1036.21 588.939 L1039.45 593.224 L1042.69 597.613 L1045.93 602.11 L1049.17 606.719 L1052.42 611.444 L1055.66 616.289 L1058.9 621.26 L1062.14 626.36 L1065.38 631.588 L1068.62 636.944 L1071.86 642.425 L1075.11 648.023 L1078.35 653.732 L1081.59 659.545 L1084.83 665.455 L1088.07 671.456 L1091.31 677.542 L1094.55 683.708 L1097.79 689.95 L1101.04 696.263 L1104.28 702.644 L1107.52 709.09 L1110.76 715.599 L1114 722.166 L1117.24 728.782 L1120.48 735.437 L1123.73 742.12 L1126.97 748.821 L1130.21 755.532 L1133.45 762.243 L1136.69 768.946 L1139.93 775.635 L1143.17 782.301 L1146.42 788.938 L1149.66 795.542 L1152.9 802.105 L1156.14 808.623 L1159.38 815.093 L1162.62 821.508 L1165.86 827.868 L1169.11 834.167 L1172.35 840.405 L1175.59 846.577 L1178.83 852.684 L1182.07 858.723 L1185.31 864.693 L1188.55 870.594 L1191.8 876.426 L1195.04 882.188 L1198.28 887.881 L1201.52 893.506 L1204.76 899.065 L1208 904.558 L1211.24 909.988 L1214.48 915.356 L1217.73 920.666 L1220.97 925.921 L1224.21 931.122 L1227.45 936.275 L1230.69 941.382 L1233.93 946.449 L1237.17 951.479 L1240.42 956.478 L1243.66 961.45 L1246.9 966.401 L1250.14 971.337 L1253.38 976.264 L1256.62 981.188 L1259.86 986.116 L1263.11 991.054 L1266.35 996.009 L1269.59 1000.99 L1272.83 1006 L1276.07 1011.05 L1279.31 1016.15 L1282.55 1021.3 L1285.8 1026.51 L1289.04 1031.8 L1292.28 1037.15 L1295.52 1042.6 L1298.76 1048.13 L1302 1053.74 L1305.24 1059.44 L1308.48 1065.21 L1311.73 1071.05 L1314.97 1076.95 L1318.21 1082.9 L1321.45 1088.91 L1324.69 1094.96 L1327.93 1101.05 L1331.17 1107.17 L1334.42 1113.32 L1337.66 1119.49 L1340.9 1125.67 L1344.14 1131.87 L1347.38 1138.07 L1350.62 1144.28 L1353.86 1150.48 L1357.11 1156.68 L1360.35 1162.86 L1363.59 1169.03 L1366.83 1175.18 L1370.07 1181.31 L1373.31 1187.41 L1376.55 1193.48 L1379.8 1199.51 L1383.04 1205.52 L1386.28 1211.48 L1389.52 1217.4 L1392.76 1223.28 L1396 1229.11 L1399.24 1234.9 L1402.49 1240.63 L1405.73 1246.31 L1408.97 1251.94 L1412.21 1257.51 L1415.45 1263.02 L1418.69 1268.47 L1421.93 1273.86 L1425.17 1279.18 L1428.42 1284.44 L1431.66 1289.64 L1434.9 1294.76 L1438.14 1299.82 L1441.38 1304.81 L1444.62 1309.72 L1447.86 1314.57 L1451.11 1319.34 L1454.35 1324.03 L1457.59 1328.65 L1460.83 1333.2 L1464.07 1337.66 L1467.31 1342.05 L1470.55 1346.36 L1473.8 1350.58 L1477.04 1354.73 L1480.28 1358.79 L1483.52 1362.77 L1486.76 1366.67 L1490 1370.48 L1493.24 1374.2 L1496.49 1377.84 L1499.73 1381.4 L1502.97 1384.86 L1506.21 1388.24 L1509.45 1391.52 L1512.69 1394.72 L1515.93 1397.82 L1519.18 1400.84 L1522.42 1403.76 L1525.66 1406.59 L1528.9 1409.32 L1532.14 1411.96 L1535.38 1414.51 L1538.62 1416.95 L1541.86 1419.31 L1545.11 1421.56 L1548.35 1423.72 L1551.59 1425.77 L1554.83 1427.73 L1558.07 1429.59 L1561.31 1431.35 L1564.55 1433.01 L1567.8 1434.57 L1571.04 1436.03 L1574.28 1437.38 L1577.52 1438.63 L1580.76 1439.78 L1584 1440.83 L1587.24 1441.78 L1590.49 1442.62 L1593.73 1443.36 L1596.97 1444 L1600.21 1444.54 L1603.45 1444.97 L1606.69 1445.31 L1609.93 1445.54 L1613.18 1445.68 L1616.42 1445.72 L1619.66 1445.66 L1622.9 1445.5 L1626.14 1445.26 L1629.38 1444.92 L1632.62 1444.49 L1635.86 1443.98 L1639.11 1443.38 L1642.35 1442.71 L1645.59 1441.96 L1648.83 1441.14 L1652.07 1440.25 L1655.31 1439.3 L1658.55 1438.29 L1661.8 1437.23 L1665.04 1436.13 L1668.28 1435 L1671.52 1433.83 L1674.76 1432.65 L1678 1431.45 L1681.24 1430.26 L1684.49 1429.06 L1687.73 1427.89 L1690.97 1426.74 L1694.21 1425.62 L1697.45 1424.54 L1700.69 1423.5 L1703.93 1422.5 L1707.18 1421.56 L1710.42 1420.66 L1713.66 1419.82 L1716.9 1419.04 L1720.14 1418.31 L1723.38 1417.63 L1726.62 1417.01 L1729.87 1416.43 L1733.11 1415.9 L1736.35 1415.42 L1739.59 1414.97 L1742.83 1414.57 L1746.07 1414.19 L1749.31 1413.84 L1752.55 1413.52 L1755.8 1413.21 L1759.04 1412.92 L1762.28 1412.64 L1765.52 1412.38 L1768.76 1412.12 L1772 1411.87 L1775.24 1411.63 L1778.49 1411.4 L1781.73 1411.19 L1784.97 1410.98 L1788.21 1410.8 L1791.45 1410.64 L1794.69 1410.5 L1797.93 1410.39 L1801.18 1410.3 L1804.42 1410.22 L1807.66 1410.15 L1810.9 1410.07 L1814.14 1409.98 L1817.38 1409.87 L1820.62 1409.74 L1823.87 1409.57 L1827.11 1409.37 L1830.35 1409.12 L1833.59 1408.83 L1836.83 1408.5 L1840.07 1408.1 L1843.31 1407.66 L1846.55 1407.15 L1849.8 1406.58 L1853.04 1405.96 L1856.28 1405.26 L1859.52 1404.51 L1862.76 1403.69 L1866 1402.81 L1869.24 1401.87 L1872.49 1400.86 L1875.73 1399.79 L1878.97 1398.66 L1882.21 1397.48 L1885.45 1396.23 L1888.69 1394.94 L1891.93 1393.59 L1895.18 1392.2 L1898.42 1390.76 L1901.66 1389.28 L1904.9 1387.77 L1908.14 1386.22 L1911.38 1384.64 L1914.62 1383.03 L1917.87 1381.4 L1921.11 1379.75 L1924.35 1378.08 L1927.59 1376.4 L1930.83 1374.71 L1934.07 1372.99 L1937.31 1371.25 L1940.56 1369.48 L1943.8 1367.68 L1947.04 1365.85 L1950.28 1363.97 L1953.52 1362.05 L1956.76 1360.08 L1960 1358.06 L1963.24 1355.98 L1966.49 1353.84 L1969.73 1351.64 L1972.97 1349.38 L1976.21 1347.05 L1979.45 1344.64 L1982.69 1342.17 L1985.93 1339.62 L1989.18 1336.99 L1992.42 1334.29 L1995.66 1331.5 L1998.9 1328.64 L2002.14 1325.69 L2005.38 1322.66 L2008.62 1319.55 L2011.87 1316.35 L2015.11 1313.07 L2018.35 1309.71 L2021.59 1306.26 L2024.83 1302.73 L2028.07 1299.13 L2031.31 1295.44 L2034.56 1291.68 L2037.8 1287.84 L2041.04 1283.93 L2044.28 1279.94 L2047.52 1275.89 L2050.76 1271.78 L2054 1267.61 L2057.24 1263.38 L2060.49 1259.09 L2063.73 1254.76 L2066.97 1250.39 L2070.21 1245.99 L2073.45 1241.55 L2076.69 1237.1 L2079.93 1232.63 L2083.18 1228.15 L2086.42 1223.67 L2089.66 1219.21 L2092.9 1214.76 L2096.14 1210.35 L2099.38 1205.97 L2102.62 1201.65 L2105.87 1197.39 L2109.11 1193.21 L2112.35 1189.12 L2115.59 1185.13 L2118.83 1181.26 L2122.07 1177.51 L2125.31 1173.91 L2128.56 1170.47 L2131.8 1167.19 L2135.04 1164.09 L2138.28 1161.18 L2141.52 1158.46 L2144.76 1155.93 L2148 1153.61 L2151.25 1151.5 L2154.49 1149.6 L2157.73 1147.93 L2160.97 1146.48 L2164.21 1145.26 L2167.45 1144.28 L2170.69 1143.52 L2173.93 1142.97 L2177.18 1142.63 L2180.42 1142.47 L2183.66 1142.49 L2186.9 1142.67 L2190.14 1143.01 L2193.38 1143.49 L2196.62 1144.1 L2199.87 1144.83 L2203.11 1145.68 L2206.35 1146.63 L2209.59 1147.67 L2212.83 1148.8 L2216.07 1150.01 L2219.31 1151.29 L2222.56 1152.64 L2225.8 1154.04 L2229.04 1155.5 L2232.28 1157 L2235.52 1158.55 L2238.76 1160.13 L2242 1161.74 L2245.25 1163.38 L2248.49 1165.04 L2251.73 1166.72 L2254.97 1168.42 L2258.21 1170.12 L2261.45 1171.84 L2264.69 1173.57 L2267.94 1175.3 L2271.18 1177.03 L2274.42 1178.76 L2277.66 1180.49 L2280.9 1182.22 L2284.14 1183.93 L2287.38 1185.64 L2290.62 1187.34 L2290.62 497.729 L2287.38 502.687 L2284.14 507.707 L2280.9 512.788 L2277.66 517.929 L2274.42 523.13 L2271.18 528.388 L2267.94 533.704 L2264.69 539.075 L2261.45 544.501 L2258.21 549.979 L2254.97 555.507 L2251.73 561.085 L2248.49 566.708 L2245.25 572.376 L2242 578.085 L2238.76 583.831 L2235.52 589.613 L2232.28 595.425 L2229.04 601.266 L2225.8 607.129 L2222.56 613.01 L2219.31 618.906 L2216.07 624.809 L2212.83 630.715 L2209.59 636.617 L2206.35 642.509 L2203.11 648.384 L2199.87 654.235 L2196.62 660.053 L2193.38 665.829 L2190.14 671.557 L2186.9 677.225 L2183.66 682.825 L2180.42 688.347 L2177.18 693.781 L2173.93 699.115 L2170.69 704.34 L2167.45 709.445 L2164.21 714.419 L2160.97 719.254 L2157.73 723.943 L2154.49 728.483 L2151.25 732.871 L2148 737.103 L2144.76 741.176 L2141.52 745.088 L2138.28 748.836 L2135.04 752.417 L2131.8 755.83 L2128.56 759.072 L2125.31 762.145 L2122.07 765.059 L2118.83 767.83 L2115.59 770.47 L2112.35 772.994 L2109.11 775.415 L2105.87 777.746 L2102.62 780.001 L2099.38 782.191 L2096.14 784.328 L2092.9 786.423 L2089.66 788.488 L2086.42 790.531 L2083.18 792.563 L2079.93 794.593 L2076.69 796.627 L2073.45 798.675 L2070.21 800.743 L2066.97 802.837 L2063.73 804.964 L2060.49 807.128 L2057.24 809.335 L2054 811.589 L2050.76 813.893 L2047.52 816.251 L2044.28 818.667 L2041.04 821.141 L2037.8 823.678 L2034.56 826.277 L2031.31 828.94 L2028.07 831.669 L2024.83 834.464 L2021.59 837.324 L2018.35 840.25 L2015.11 843.241 L2011.87 846.297 L2008.62 849.415 L2005.38 852.594 L2002.14 855.834 L1998.9 859.13 L1995.66 862.481 L1992.42 865.884 L1989.18 869.335 L1985.93 872.832 L1982.69 876.369 L1979.45 879.944 L1976.21 883.552 L1972.97 887.188 L1969.73 890.846 L1966.49 894.522 L1963.24 898.21 L1960 901.903 L1956.76 905.597 L1953.52 909.283 L1950.28 912.955 L1947.04 916.606 L1943.8 920.229 L1940.56 923.817 L1937.31 927.361 L1934.07 930.853 L1930.83 934.287 L1927.59 937.653 L1924.35 940.943 L1921.11 944.153 L1917.87 947.287 L1914.62 950.352 L1911.38 953.357 L1908.14 956.307 L1904.9 959.212 L1901.66 962.077 L1898.42 964.909 L1895.18 967.716 L1891.93 970.504 L1888.69 973.278 L1885.45 976.044 L1882.21 978.808 L1878.97 981.575 L1875.73 984.348 L1872.49 987.133 L1869.24 989.934 L1866 992.752 L1862.76 995.592 L1859.52 998.456 L1856.28 1001.34 L1853.04 1004.26 L1849.8 1007.2 L1846.55 1010.18 L1843.31 1013.18 L1840.07 1016.2 L1836.83 1019.26 L1833.59 1022.34 L1830.35 1025.44 L1827.11 1028.55 L1823.87 1031.69 L1820.62 1034.83 L1817.38 1037.99 L1814.14 1041.14 L1810.9 1044.29 L1807.66 1047.42 L1804.42 1050.54 L1801.18 1053.63 L1797.93 1056.68 L1794.69 1059.69 L1791.45 1062.65 L1788.21 1065.55 L1784.97 1068.38 L1781.73 1071.14 L1778.49 1073.82 L1775.24 1076.41 L1772 1078.91 L1768.76 1081.29 L1765.52 1083.56 L1762.28 1085.7 L1759.04 1087.7 L1755.8 1089.54 L1752.55 1091.21 L1749.31 1092.69 L1746.07 1093.98 L1742.83 1095.04 L1739.59 1095.87 L1736.35 1096.44 L1733.11 1096.75 L1729.87 1096.78 L1726.62 1096.52 L1723.38 1095.98 L1720.14 1095.14 L1716.9 1094 L1713.66 1092.56 L1710.42 1090.8 L1707.18 1088.72 L1703.93 1086.33 L1700.69 1083.63 L1697.45 1080.63 L1694.21 1077.34 L1690.97 1073.76 L1687.73 1069.9 L1684.49 1065.76 L1681.24 1061.36 L1678 1056.73 L1674.76 1051.87 L1671.52 1046.8 L1668.28 1041.55 L1665.04 1036.12 L1661.8 1030.54 L1658.55 1024.81 L1655.31 1018.95 L1652.07 1012.97 L1648.83 1006.89 L1645.59 1000.72 L1642.35 994.464 L1639.11 988.135 L1635.86 981.745 L1632.62 975.3 L1629.38 968.811 L1626.14 962.285 L1622.9 955.73 L1619.66 949.153 L1616.42 942.561 L1613.18 935.96 L1609.93 929.355 L1606.69 922.753 L1603.45 916.159 L1600.21 909.578 L1596.97 903.015 L1593.73 896.473 L1590.49 889.957 L1587.24 883.471 L1584 877.019 L1580.76 870.604 L1577.52 864.229 L1574.28 857.898 L1571.04 851.613 L1567.8 845.377 L1564.55 839.193 L1561.31 833.062 L1558.07 826.988 L1554.83 820.972 L1551.59 815.017 L1548.35 809.123 L1545.11 803.294 L1541.86 797.531 L1538.62 791.834 L1535.38 786.206 L1532.14 780.648 L1528.9 775.161 L1525.66 769.747 L1522.42 764.406 L1519.18 759.139 L1515.93 753.947 L1512.69 748.831 L1509.45 743.792 L1506.21 738.831 L1502.97 733.947 L1499.73 729.142 L1496.49 724.415 L1493.24 719.768 L1490 715.2 L1486.76 710.712 L1483.52 706.304 L1480.28 701.976 L1477.04 697.728 L1473.8 693.56 L1470.55 689.472 L1467.31 685.463 L1464.07 681.533 L1460.83 677.683 L1457.59 673.911 L1454.35 670.217 L1451.11 666.601 L1447.86 663.062 L1444.62 659.599 L1441.38 656.212 L1438.14 652.899 L1434.9 649.66 L1431.66 646.493 L1428.42 643.398 L1425.17 640.373 L1421.93 637.417 L1418.69 634.528 L1415.45 631.705 L1412.21 628.947 L1408.97 626.251 L1405.73 623.615 L1402.49 621.039 L1399.24 618.518 L1396 616.052 L1392.76 613.638 L1389.52 611.272 L1386.28 608.954 L1383.04 606.679 L1379.8 604.444 L1376.55 602.247 L1373.31 600.084 L1370.07 597.952 L1366.83 595.846 L1363.59 593.763 L1360.35 591.698 L1357.11 589.648 L1353.86 587.607 L1350.62 585.572 L1347.38 583.536 L1344.14 581.496 L1340.9 579.445 L1337.66 577.377 L1334.42 575.288 L1331.17 573.171 L1327.93 571.02 L1324.69 568.829 L1321.45 566.591 L1318.21 564.299 L1314.97 561.947 L1311.73 559.529 L1308.48 557.036 L1305.24 554.463 L1302 551.803 L1298.76 549.048 L1295.52 546.193 L1292.28 543.232 L1289.04 540.172 L1285.8 537.02 L1282.55 533.784 L1279.31 530.471 L1276.07 527.09 L1272.83 523.648 L1269.59 520.154 L1266.35 516.615 L1263.11 513.039 L1259.86 509.432 L1256.62 505.804 L1253.38 502.16 L1250.14 498.507 L1246.9 494.853 L1243.66 491.203 L1240.42 487.564 L1237.17 483.941 L1233.93 480.339 L1230.69 476.765 L1227.45 473.221 L1224.21 469.715 L1220.97 466.248 L1217.73 462.826 L1214.48 459.451 L1211.24 456.127 L1208 452.857 L1204.76 449.643 L1201.52 446.488 L1198.28 443.393 L1195.04 440.36 L1191.8 437.39 L1188.55 434.485 L1185.31 431.643 L1182.07 428.866 L1178.83 426.154 L1175.59 423.506 L1172.35 420.92 L1169.11 418.396 L1165.86 415.932 L1162.62 413.526 L1159.38 411.175 L1156.14 408.876 L1152.9 406.626 L1149.66 404.421 L1146.42 402.257 L1143.17 400.13 L1139.93 398.032 L1136.69 395.96 L1133.45 393.906 L1130.21 391.865 L1126.97 389.827 L1123.73 387.787 L1120.48 385.735 L1117.24 383.662 L1114 381.559 L1110.76 379.417 L1107.52 377.227 L1104.28 374.984 L1101.04 372.688 L1097.79 370.334 L1094.55 367.919 L1091.31 365.44 L1088.07 362.892 L1084.83 360.27 L1081.59 357.57 L1078.35 354.784 L1075.11 351.908 L1071.86 348.934 L1068.62 345.856 L1065.38 342.669 L1062.14 339.373 L1058.9 335.97 L1055.66 332.464 L1052.42 328.864 L1049.17 325.179 L1045.93 321.418 L1042.69 317.592 L1039.45 313.709 L1036.21 309.777 L1032.97 305.804 L1029.73 301.798 L1026.48 297.77 L1023.24 293.731 L1020 289.69 L1016.76 285.657 L1013.52 281.64 L1010.28 277.646 L1007.04 273.681 L1003.79 269.75 L1000.55 265.857 L997.312 262.005 L994.071 258.195 L990.829 254.428 L987.588 250.703 L984.346 247.017 L981.105 243.37 L977.864 239.755 L974.622 236.169 L971.381 232.606 L968.139 229.06 L964.898 225.523 L961.657 221.987 L958.415 218.444 L955.174 214.885 L951.933 211.303 L948.691 207.696 L945.45 204.063 L942.208 200.406 L938.967 196.722 L935.726 193.016 L932.484 189.295 L929.243 185.571 L926.001 181.855 L922.76 178.156 L919.519 174.484 L916.277 170.851 L913.036 167.265 L909.795 163.736 L906.553 160.271 L903.312 156.879 L900.07 153.566 L896.829 150.34 L893.588 147.207 L890.346 144.171 L887.105 141.237 L883.863 138.41 L880.622 135.693 L877.381 133.088 L874.139 130.599 L870.898 128.226 L867.657 125.97 L864.415 123.833 L861.174 121.814 L857.932 119.912 L854.691 118.126 L851.45 116.455 L848.208 114.896 L844.967 113.447 L841.725 112.104 L838.484 110.863 L835.243 109.719 L832.001 108.669 L828.76 107.706 L825.519 106.825 L822.277 106.018 L819.036 105.279 L815.794 104.6 L812.553 103.974 L809.312 103.391 L806.07 102.843 L802.829 102.321 L799.587 101.815 L796.346 101.315 L793.105 100.811 L789.863 100.294 L786.622 99.7527 L783.381 99.1795 L780.139 98.5749 L776.898 97.9418 L773.656 97.283 L770.415 96.6025 L767.174 95.9067 L763.932 95.2026 L760.691 94.4975 L757.449 93.7985 L754.208 93.1127 L750.967 92.4468 L747.725 91.8072 L744.484 91.2003 L741.242 90.6317 L738.001 90.1068 L734.76 89.6306 L731.518 89.2076 L728.277 88.8418 L725.036 88.5366 L721.794 88.2952 L718.553 88.1201 L715.311 88.0132 L712.07 87.9763 L708.829 88.0103 L705.587 88.1159 L702.346 88.2932 L699.104 88.5419 L695.863 88.8613 L692.622 89.2503 L689.38 89.7072 L686.139 90.2302 L682.898 90.8169 L679.656 91.4648 L676.415 92.1709 L673.173 92.932 L669.932 93.7449 L666.691 94.6057 L663.449 95.5108 L660.208 96.4564 L656.966 97.4386 L653.725 98.4545 L650.484 99.5057 L647.242 100.595 L644.001 101.725 L640.76 102.898 L637.518 104.117 L634.277 105.384 L631.035 106.701 L627.794 108.069 L624.553 109.491 L621.311 110.968 L618.07 112.5 L614.828 114.089 L611.587 115.734 L608.346 117.436 L605.104 119.195 L601.863 121.01 L598.622 122.88 L595.38 124.803 L592.139 126.779 L588.897 128.804 L585.656 130.878 L582.415 132.996 L579.173 135.156 L575.932 137.355 L572.69 139.589 L569.449 141.854 L566.208 144.146 L562.966 146.459 L559.725 148.789 L556.484 151.132 L553.242 153.481 L550.001 155.83 L546.759 158.175 L543.518 160.509 L540.277 162.826 L537.035 165.119 L533.794 167.383 L530.552 169.611 L527.311 171.798 L524.07 173.938 L520.828 176.034 L517.587 178.093 L514.346 180.117 L511.104 182.114 L507.863 184.086 L504.621 186.04 L501.38 187.98 L498.139 189.91 L494.897 191.834 L491.656 193.757 L488.414 195.683 L485.173 197.614 L481.932 199.555 L478.69 201.509 L475.449 203.478 L472.208 205.464 L468.966 207.471 L465.725 209.499 L462.483 211.551 L459.242 213.627 L456.001 215.728 L452.759 217.856 L449.518 220.01 L446.276 222.19 L443.035 224.397 L439.794 226.628 L436.552 228.884 L433.311 231.163 L430.069 233.462 L426.828 235.781 L423.587 238.117 L420.345 240.466 L417.104 242.826 L413.863 245.194 L410.621 247.565 L407.38 249.936 L404.138 252.301 L400.897 254.657 L397.656 256.998 L394.414 259.318 L391.173 261.612 L387.931 263.873 L384.69 266.095 L381.449 268.271 L378.207 270.393 L374.966 272.456 L371.725 274.45 L368.483 276.369 L365.242 278.204 L362 279.946 L358.759 281.588 L355.518 283.122 L352.276 284.538 L349.035 285.829 L345.793 286.986 L342.552 288.001 L339.311 288.866 L336.069 289.575 L332.828 290.133 L329.587 290.546 L326.345 290.819 L323.104 290.961 L319.862 290.977 L316.621 290.874 L313.38 290.659 L310.138 290.338 L306.897 289.918 L303.655 289.405 L300.414 288.806 L297.173 288.127 L293.931 287.372 L290.69 286.549 L287.449 285.662 L284.207 284.717 L280.966 283.719 L277.724 282.672 L274.483 281.581 L271.242 280.451 L268 279.285 L264.759 278.087 L261.517 276.861 L258.276 275.612 L255.035 274.341  Z" fill="#3da44d" fill-rule="evenodd" fill-opacity="0.1"/>
<polyline clip-path="url(#clip852)" style="stroke:#3da44d; stroke-linecap:round; stroke-linejoin:round; stroke-width:8; stroke-opacity:1; fill:none" points="255.035,598.994 258.276,597.235 261.517,595.458 264.759,593.664 268,591.851 271.242,590.021 274.483,588.172 277.724,586.305 280.966,584.419 284.207,582.515 287.449,580.593 290.69,578.652 293.931,576.692 297.173,574.714 300.414,572.716 303.655,570.701 306.897,568.666 310.138,566.612 313.38,564.54 316.621,562.448 319.862,560.337 323.104,558.208 326.345,556.059 329.587,553.892 332.828,551.705 336.069,549.499 339.311,547.274 342.552,545.03 345.793,542.768 349.035,540.486 352.276,538.186 355.518,535.867 358.759,533.529 362,531.173 365.242,528.799 368.483,526.408 371.725,523.998 374.966,521.57 378.207,519.125 381.449,516.663 384.69,514.184 387.931,511.688 391.173,509.175 394.414,506.645 397.656,504.1 400.897,501.538 404.138,498.961 407.38,496.369 410.621,493.761 413.863,491.139 417.104,488.502 420.345,485.851 423.587,483.187 426.828,480.509 430.069,477.818 433.311,475.114 436.552,472.398 439.794,469.67 443.035,466.931 446.276,464.18 449.518,461.42 452.759,458.649 456.001,455.869 459.242,453.081 462.483,450.283 465.725,447.479 468.966,444.666 472.208,441.848 475.449,439.023 478.69,436.194 481.932,433.36 485.173,430.522 488.414,427.68 491.656,424.837 494.897,421.992 498.139,419.147 501.38,416.301 504.621,413.457 507.863,410.614 511.104,407.775 514.346,404.939 517.587,402.109 520.828,399.284 524.07,396.466 527.311,393.656 530.552,390.856 533.794,388.065 537.035,385.284 540.277,382.514 543.518,379.754 546.759,377.007 550.001,374.272 553.242,371.55 556.484,368.841 559.725,366.147 562.966,363.467 566.208,360.804 569.449,358.158 572.69,355.529 575.932,352.918 579.173,350.328 582.415,347.758 585.656,345.21 588.897,342.684 592.139,340.183 595.38,337.707 598.622,335.257 601.863,332.836 605.104,330.443 608.346,328.082 611.587,325.752 614.828,323.457 618.07,321.197 621.311,318.974 624.553,316.789 627.794,314.646 631.035,312.545 634.277,310.488 637.518,308.477 640.76,306.515 644.001,304.604 647.242,302.745 650.484,300.941 653.725,299.195 656.966,297.508 660.208,295.883 663.449,294.319 666.691,292.814 669.932,291.368 673.173,289.979 676.415,288.647 679.656,287.37 682.898,286.147 686.139,284.978 689.38,283.862 692.622,282.798 695.863,281.786 699.104,280.825 702.346,279.915 705.587,279.055 708.829,278.245 712.07,277.485 715.311,276.775 718.553,276.114 721.794,275.502 725.036,274.941 728.277,274.429 731.518,273.967 734.76,273.555 738.001,273.193 741.242,272.883 744.484,272.624 747.725,272.417 750.967,272.263 754.208,272.162 757.449,272.115 760.691,272.123 763.932,272.187 767.174,272.308 770.415,272.487 773.656,272.726 776.898,273.023 780.139,273.377 783.381,273.783 786.622,274.237 789.863,274.735 793.105,275.276 796.346,275.859 799.587,276.484 802.829,277.15 806.07,277.857 809.312,278.603 812.553,279.39 815.794,280.215 819.036,281.08 822.277,281.983 825.519,282.925 828.76,283.906 832.001,284.926 835.243,285.984 838.484,287.081 841.725,288.218 844.967,289.393 848.208,290.608 851.45,291.863 854.691,293.159 857.932,294.496 861.174,295.874 864.415,297.294 867.657,298.758 870.898,300.265 874.139,301.816 877.381,303.413 880.622,305.056 883.863,306.747 887.105,308.486 890.346,310.276 893.588,312.116 896.829,314.008 900.07,315.954 903.312,317.955 906.553,320.013 909.795,322.129 913.036,324.305 916.277,326.543 919.519,328.844 922.76,331.211 926.001,333.645 929.243,336.148 932.484,338.723 935.726,341.372 938.967,344.096 942.208,346.889 945.45,349.749 948.691,352.672 951.933,355.656 955.174,358.697 958.415,361.793 961.657,364.943 964.898,368.144 968.139,371.395 971.381,374.695 974.622,378.042 977.864,381.436 981.105,384.875 984.346,388.358 987.588,391.884 990.829,395.451 994.071,399.06 997.312,402.708 1000.55,406.396 1003.79,410.122 1007.04,413.886 1010.28,417.687 1013.52,421.524 1016.76,425.397 1020,429.305 1023.24,433.248 1026.48,437.225 1029.73,441.236 1032.97,445.281 1036.21,449.358 1039.45,453.466 1042.69,457.603 1045.93,461.764 1049.17,465.949 1052.42,470.154 1055.66,474.377 1058.9,478.615 1062.14,482.866 1065.38,487.129 1068.62,491.4 1071.86,495.68 1075.11,499.966 1078.35,504.258 1081.59,508.557 1084.83,512.862 1088.07,517.174 1091.31,521.491 1094.55,525.813 1097.79,530.142 1101.04,534.475 1104.28,538.814 1107.52,543.158 1110.76,547.508 1114,551.863 1117.24,556.222 1120.48,560.586 1123.73,564.953 1126.97,569.324 1130.21,573.698 1133.45,578.075 1136.69,582.453 1139.93,586.833 1143.17,591.215 1146.42,595.598 1149.66,599.982 1152.9,604.366 1156.14,608.75 1159.38,613.134 1162.62,617.517 1165.86,621.9 1169.11,626.282 1172.35,630.662 1175.59,635.042 1178.83,639.419 1182.07,643.795 1185.31,648.168 1188.55,652.539 1191.8,656.908 1195.04,661.274 1198.28,665.637 1201.52,669.997 1204.76,674.354 1208,678.708 1211.24,683.057 1214.48,687.404 1217.73,691.746 1220.97,696.084 1224.21,700.418 1227.45,704.748 1230.69,709.073 1233.93,713.394 1237.17,717.71 1240.42,722.021 1243.66,726.327 1246.9,730.627 1250.14,734.922 1253.38,739.212 1256.62,743.496 1259.86,747.774 1263.11,752.046 1266.35,756.312 1269.59,760.571 1272.83,764.824 1276.07,769.071 1279.31,773.31 1282.55,777.542 1285.8,781.767 1289.04,785.984 1292.28,790.193 1295.52,794.395 1298.76,798.588 1302,802.774 1305.24,806.952 1308.48,811.124 1311.73,815.289 1314.97,819.448 1318.21,823.602 1321.45,827.75 1324.69,831.894 1327.93,836.034 1331.17,840.17 1334.42,844.303 1337.66,848.432 1340.9,852.559 1344.14,856.683 1347.38,860.805 1350.62,864.925 1353.86,869.044 1357.11,873.162 1360.35,877.28 1363.59,881.396 1366.83,885.512 1370.07,889.629 1373.31,893.745 1376.55,897.862 1379.8,901.979 1383.04,906.098 1386.28,910.217 1389.52,914.338 1392.76,918.46 1396,922.583 1399.24,926.708 1402.49,930.835 1405.73,934.964 1408.97,939.094 1412.21,943.227 1415.45,947.361 1418.69,951.498 1421.93,955.636 1425.17,959.777 1428.42,963.92 1431.66,968.064 1434.9,972.211 1438.14,976.359 1441.38,980.51 1444.62,984.661 1447.86,988.815 1451.11,992.969 1454.35,997.125 1457.59,1001.28 1460.83,1005.44 1464.07,1009.6 1467.31,1013.76 1470.55,1017.91 1473.8,1022.07 1477.04,1026.23 1480.28,1030.38 1483.52,1034.54 1486.76,1038.69 1490,1042.84 1493.24,1046.99 1496.49,1051.13 1499.73,1055.27 1502.97,1059.4 1506.21,1063.53 1509.45,1067.66 1512.69,1071.78 1515.93,1075.89 1519.18,1079.99 1522.42,1084.08 1525.66,1088.17 1528.9,1092.24 1532.14,1096.3 1535.38,1100.36 1538.62,1104.39 1541.86,1108.42 1545.11,1112.43 1548.35,1116.42 1551.59,1120.4 1554.83,1124.35 1558.07,1128.29 1561.31,1132.21 1564.55,1136.1 1567.8,1139.97 1571.04,1143.82 1574.28,1147.64 1577.52,1151.43 1580.76,1155.19 1584,1158.93 1587.24,1162.62 1590.49,1166.29 1593.73,1169.92 1596.97,1173.51 1600.21,1177.06 1603.45,1180.57 1606.69,1184.03 1609.93,1187.45 1613.18,1190.82 1616.42,1194.14 1619.66,1197.41 1622.9,1200.62 1626.14,1203.77 1629.38,1206.86 1632.62,1209.9 1635.86,1212.86 1639.11,1215.76 1642.35,1218.59 1645.59,1221.34 1648.83,1224.02 1652.07,1226.61 1655.31,1229.12 1658.55,1231.55 1661.8,1233.89 1665.04,1236.13 1668.28,1238.27 1671.52,1240.32 1674.76,1242.26 1678,1244.09 1681.24,1245.81 1684.49,1247.41 1687.73,1248.89 1690.97,1250.25 1694.21,1251.48 1697.45,1252.59 1700.69,1253.57 1703.93,1254.42 1707.18,1255.14 1710.42,1255.73 1713.66,1256.19 1716.9,1256.52 1720.14,1256.73 1723.38,1256.81 1726.62,1256.77 1729.87,1256.61 1733.11,1256.33 1736.35,1255.93 1739.59,1255.42 1742.83,1254.8 1746.07,1254.08 1749.31,1253.27 1752.55,1252.36 1755.8,1251.37 1759.04,1250.31 1762.28,1249.17 1765.52,1247.97 1768.76,1246.71 1772,1245.39 1775.24,1244.02 1778.49,1242.61 1781.73,1241.16 1784.97,1239.68 1788.21,1238.17 1791.45,1236.64 1794.69,1235.1 1797.93,1233.54 1801.18,1231.97 1804.42,1230.38 1807.66,1228.79 1810.9,1227.18 1814.14,1225.56 1817.38,1223.93 1820.62,1222.29 1823.87,1220.63 1827.11,1218.96 1830.35,1217.28 1833.59,1215.59 1836.83,1213.88 1840.07,1212.15 1843.31,1210.42 1846.55,1208.66 1849.8,1206.89 1853.04,1205.11 1856.28,1203.3 1859.52,1201.48 1862.76,1199.64 1866,1197.78 1869.24,1195.9 1872.49,1194 1875.73,1192.07 1878.97,1190.12 1882.21,1188.14 1885.45,1186.14 1888.69,1184.11 1891.93,1182.05 1895.18,1179.96 1898.42,1177.84 1901.66,1175.68 1904.9,1173.49 1908.14,1171.26 1911.38,1169 1914.62,1166.69 1917.87,1164.34 1921.11,1161.95 1924.35,1159.51 1927.59,1157.03 1930.83,1154.5 1934.07,1151.92 1937.31,1149.31 1940.56,1146.65 1943.8,1143.96 1947.04,1141.23 1950.28,1138.46 1953.52,1135.67 1956.76,1132.84 1960,1129.98 1963.24,1127.09 1966.49,1124.18 1969.73,1121.24 1972.97,1118.28 1976.21,1115.3 1979.45,1112.29 1982.69,1109.27 1985.93,1106.23 1989.18,1103.16 1992.42,1100.09 1995.66,1096.99 1998.9,1093.88 2002.14,1090.76 2005.38,1087.63 2008.62,1084.48 2011.87,1081.32 2015.11,1078.16 2018.35,1074.98 2021.59,1071.79 2024.83,1068.6 2028.07,1065.4 2031.31,1062.19 2034.56,1058.98 2037.8,1055.76 2041.04,1052.53 2044.28,1049.31 2047.52,1046.07 2050.76,1042.84 2054,1039.6 2057.24,1036.36 2060.49,1033.11 2063.73,1029.86 2066.97,1026.62 2070.21,1023.37 2073.45,1020.11 2076.69,1016.86 2079.93,1013.61 2083.18,1010.36 2086.42,1007.1 2089.66,1003.85 2092.9,1000.59 2096.14,997.337 2099.38,994.082 2102.62,990.826 2105.87,987.57 2109.11,984.314 2112.35,981.058 2115.59,977.801 2118.83,974.544 2122.07,971.287 2125.31,968.029 2128.56,964.77 2131.8,961.511 2135.04,958.255 2138.28,955.007 2141.52,951.772 2144.76,948.553 2148,945.356 2151.25,942.184 2154.49,939.042 2157.73,935.935 2160.97,932.866 2164.21,929.84 2167.45,926.862 2170.69,923.93 2173.93,921.044 2177.18,918.203 2180.42,915.407 2183.66,912.656 2186.9,909.947 2190.14,907.281 2193.38,904.657 2196.62,902.075 2199.87,899.533 2203.11,897.031 2206.35,894.568 2209.59,892.144 2212.83,889.759 2216.07,887.411 2219.31,885.1 2222.56,882.825 2225.8,880.586 2229.04,878.383 2232.28,876.214 2235.52,874.08 2238.76,871.979 2242,869.911 2245.25,867.876 2248.49,865.873 2251.73,863.902 2254.97,861.961 2258.21,860.052 2261.45,858.172 2264.69,856.322 2267.94,854.501 2271.18,852.709 2274.42,850.946 2277.66,849.21 2280.9,847.502 2284.14,845.82 2287.38,844.165 2290.62,842.537 "/>
<polyline clip-path="url(#clip852)" style="stroke:#c271d2; stroke-linecap:round; stroke-linejoin:round; stroke-width:12; stroke-opacity:1; fill:none" points="255.035,817.969 362.225,700.428 469.416,604.187 576.607,497.719 683.797,417.458 790.988,392.578 898.179,424.848 1005.37,506.571 1112.56,664.126 1219.75,849.251 1326.94,1013.11 1434.13,1188.64 1541.32,1317.63 1648.51,1370.43 1755.7,1360.55 1862.89,1337.22 1970.09,1276.37 2077.28,1164.68 2184.47,1067.47 2291.66,1075.3 "/>
<polyline clip-path="url(#clip852)" style="stroke:#ac8d18; stroke-linecap:round; stroke-linejoin:round; stroke-width:12; stroke-opacity:1; fill:none" points="255.035,380.018 362.225,361.59 469.416,284.364 576.607,207.036 683.797,154.177 790.988,157.258 898.179,204.776 1005.37,317.321 1112.56,435.724 1219.75,539.661 1326.94,656.423 1434.13,753.824 1541.32,897.863 1648.51,1077.08 1755.7,1142.26 1862.89,1061.91 1970.09,965.464 2077.28,867.878 2184.47,756.48 2291.66,608.743 "/>
<path clip-path="url(#clip850)" d="M1953.46 406.258 L2280.8 406.258 L2280.8 95.2176 L1953.46 95.2176  Z" fill="#ffffff" fill-rule="evenodd" fill-opacity="1"/>
<polyline clip-path="url(#clip850)" style="stroke:#000000; stroke-linecap:round; stroke-linejoin:round; stroke-width:4; stroke-opacity:1; fill:none" points="1953.46,406.258 2280.8,406.258 2280.8,95.2176 1953.46,95.2176 1953.46,406.258 "/>
<polyline clip-path="url(#clip850)" style="stroke:#009af9; stroke-linecap:round; stroke-linejoin:round; stroke-width:4; stroke-opacity:1; fill:none" points="1977.44,147.058 2121.36,147.058 "/>
<path clip-path="url(#clip850)" d="M2152.76 131.051 L2152.76 138.412 L2161.53 138.412 L2161.53 141.722 L2152.76 141.722 L2152.76 155.796 Q2152.76 158.967 2153.61 159.87 Q2154.49 160.773 2157.16 160.773 L2161.53 160.773 L2161.53 164.338 L2157.16 164.338 Q2152.23 164.338 2150.35 162.509 Q2148.48 160.657 2148.48 155.796 L2148.48 141.722 L2145.35 141.722 L2145.35 138.412 L2148.48 138.412 L2148.48 131.051 L2152.76 131.051 Z" fill="#000000" fill-rule="nonzero" fill-opacity="1" /><path clip-path="url(#clip850)" d="M2182.16 142.393 Q2181.44 141.977 2180.58 141.791 Q2179.75 141.583 2178.73 141.583 Q2175.12 141.583 2173.17 143.944 Q2171.25 146.282 2171.25 150.68 L2171.25 164.338 L2166.97 164.338 L2166.97 138.412 L2171.25 138.412 L2171.25 142.44 Q2172.6 140.078 2174.75 138.944 Q2176.9 137.787 2179.98 137.787 Q2180.42 137.787 2180.95 137.856 Q2181.48 137.903 2182.13 138.018 L2182.16 142.393 Z" fill="#000000" fill-rule="nonzero" fill-opacity="1" /><path clip-path="url(#clip850)" d="M2186.18 154.106 L2186.18 138.412 L2190.44 138.412 L2190.44 153.944 Q2190.44 157.625 2191.88 159.476 Q2193.31 161.305 2196.18 161.305 Q2199.63 161.305 2201.62 159.106 Q2203.64 156.907 2203.64 153.111 L2203.64 138.412 L2207.9 138.412 L2207.9 164.338 L2203.64 164.338 L2203.64 160.356 Q2202.09 162.717 2200.03 163.875 Q2197.99 165.009 2195.28 165.009 Q2190.81 165.009 2188.5 162.231 Q2186.18 159.453 2186.18 154.106 M2196.9 137.787 L2196.9 137.787 Z" fill="#000000" fill-rule="nonzero" fill-opacity="1" /><path clip-path="url(#clip850)" d="M2220.88 131.051 L2220.88 138.412 L2229.66 138.412 L2229.66 141.722 L2220.88 141.722 L2220.88 155.796 Q2220.88 158.967 2221.74 159.87 Q2222.62 160.773 2225.28 160.773 L2229.66 160.773 L2229.66 164.338 L2225.28 164.338 Q2220.35 164.338 2218.48 162.509 Q2216.6 160.657 2216.6 155.796 L2216.6 141.722 L2213.48 141.722 L2213.48 138.412 L2216.6 138.412 L2216.6 131.051 L2220.88 131.051 Z" fill="#000000" fill-rule="nonzero" fill-opacity="1" /><path clip-path="url(#clip850)" d="M2256.81 148.689 L2256.81 164.338 L2252.55 164.338 L2252.55 148.828 Q2252.55 145.148 2251.11 143.319 Q2249.68 141.49 2246.81 141.49 Q2243.36 141.49 2241.37 143.69 Q2239.38 145.889 2239.38 149.685 L2239.38 164.338 L2235.1 164.338 L2235.1 128.319 L2239.38 128.319 L2239.38 142.44 Q2240.91 140.102 2242.97 138.944 Q2245.05 137.787 2247.76 137.787 Q2252.23 137.787 2254.52 140.565 Q2256.81 143.319 2256.81 148.689 Z" fill="#000000" fill-rule="nonzero" fill-opacity="1" /><circle clip-path="url(#clip850)" cx="2049.4" cy="198.898" r="20.48" fill="#e26f46" fill-rule="evenodd" fill-opacity="1" stroke="#000000" stroke-opacity="1" stroke-width="4.55111"/>
<path clip-path="url(#clip850)" d="M2164.26 194.187 L2164.26 180.159 L2168.52 180.159 L2168.52 216.178 L2164.26 216.178 L2164.26 212.289 Q2162.92 214.603 2160.86 215.738 Q2158.82 216.849 2155.95 216.849 Q2151.25 216.849 2148.29 213.099 Q2145.35 209.349 2145.35 203.238 Q2145.35 197.127 2148.29 193.377 Q2151.25 189.627 2155.95 189.627 Q2158.82 189.627 2160.86 190.761 Q2162.92 191.872 2164.26 194.187 M2149.75 203.238 Q2149.75 207.937 2151.67 210.622 Q2153.61 213.284 2156.99 213.284 Q2160.37 213.284 2162.32 210.622 Q2164.26 207.937 2164.26 203.238 Q2164.26 198.539 2162.32 195.877 Q2160.37 193.192 2156.99 193.192 Q2153.61 193.192 2151.67 195.877 Q2149.75 198.539 2149.75 203.238 Z" fill="#000000" fill-rule="nonzero" fill-opacity="1" /><path clip-path="url(#clip850)" d="M2189.08 203.145 Q2183.92 203.145 2181.92 204.326 Q2179.93 205.506 2179.93 208.354 Q2179.93 210.622 2181.42 211.965 Q2182.92 213.284 2185.49 213.284 Q2189.03 213.284 2191.16 210.784 Q2193.31 208.261 2193.31 204.094 L2193.31 203.145 L2189.08 203.145 M2197.57 201.386 L2197.57 216.178 L2193.31 216.178 L2193.31 212.242 Q2191.85 214.603 2189.68 215.738 Q2187.5 216.849 2184.36 216.849 Q2180.37 216.849 2178.01 214.627 Q2175.67 212.381 2175.67 208.631 Q2175.67 204.256 2178.59 202.034 Q2181.53 199.812 2187.34 199.812 L2193.31 199.812 L2193.31 199.395 Q2193.31 196.455 2191.37 194.858 Q2189.45 193.238 2185.95 193.238 Q2183.73 193.238 2181.62 193.77 Q2179.52 194.303 2177.57 195.367 L2177.57 191.432 Q2179.91 190.53 2182.11 190.09 Q2184.31 189.627 2186.39 189.627 Q2192.02 189.627 2194.79 192.543 Q2197.57 195.46 2197.57 201.386 Z" fill="#000000" fill-rule="nonzero" fill-opacity="1" /><path clip-path="url(#clip850)" d="M2210.56 182.891 L2210.56 190.252 L2219.33 190.252 L2219.33 193.562 L2210.56 193.562 L2210.56 207.636 Q2210.56 210.807 2211.42 211.71 Q2212.29 212.613 2214.96 212.613 L2219.33 212.613 L2219.33 216.178 L2214.96 216.178 Q2210.03 216.178 2208.15 214.349 Q2206.28 212.497 2206.28 207.636 L2206.28 193.562 L2203.15 193.562 L2203.15 190.252 L2206.28 190.252 L2206.28 182.891 L2210.56 182.891 Z" fill="#000000" fill-rule="nonzero" fill-opacity="1" /><path clip-path="url(#clip850)" d="M2236.72 203.145 Q2231.55 203.145 2229.56 204.326 Q2227.57 205.506 2227.57 208.354 Q2227.57 210.622 2229.05 211.965 Q2230.56 213.284 2233.13 213.284 Q2236.67 213.284 2238.8 210.784 Q2240.95 208.261 2240.95 204.094 L2240.95 203.145 L2236.72 203.145 M2245.21 201.386 L2245.21 216.178 L2240.95 216.178 L2240.95 212.242 Q2239.49 214.603 2237.32 215.738 Q2235.14 216.849 2231.99 216.849 Q2228.01 216.849 2225.65 214.627 Q2223.31 212.381 2223.31 208.631 Q2223.31 204.256 2226.23 202.034 Q2229.17 199.812 2234.98 199.812 L2240.95 199.812 L2240.95 199.395 Q2240.95 196.455 2239.01 194.858 Q2237.09 193.238 2233.59 193.238 Q2231.37 193.238 2229.26 193.77 Q2227.16 194.303 2225.21 195.367 L2225.21 191.432 Q2227.55 190.53 2229.75 190.09 Q2231.95 189.627 2234.03 189.627 Q2239.66 189.627 2242.43 192.543 Q2245.21 195.46 2245.21 201.386 Z" fill="#000000" fill-rule="nonzero" fill-opacity="1" /><polyline clip-path="url(#clip850)" style="stroke:#3da44d; stroke-linecap:round; stroke-linejoin:round; stroke-width:8; stroke-opacity:1; fill:none" points="1977.44,250.738 2121.36,250.738 "/>
<path clip-path="url(#clip850)" d="M2170.91 263.087 L2170.91 253.805 L2163.27 253.805 L2163.27 249.962 L2175.54 249.962 L2175.54 264.8 Q2172.83 266.721 2169.56 267.717 Q2166.3 268.689 2162.6 268.689 Q2154.49 268.689 2149.91 263.967 Q2145.35 259.221 2145.35 250.772 Q2145.35 242.3 2149.91 237.578 Q2154.49 232.833 2162.6 232.833 Q2165.98 232.833 2169.01 233.666 Q2172.06 234.499 2174.63 236.12 L2174.63 241.096 Q2172.04 238.897 2169.12 237.786 Q2166.21 236.675 2162.99 236.675 Q2156.65 236.675 2153.45 240.217 Q2150.28 243.758 2150.28 250.772 Q2150.28 257.763 2153.45 261.305 Q2156.65 264.846 2162.99 264.846 Q2165.47 264.846 2167.41 264.43 Q2169.36 263.99 2170.91 263.087 Z" fill="#000000" fill-rule="nonzero" fill-opacity="1" /><path clip-path="url(#clip850)" d="M2188.75 237.3 L2188.75 250.286 L2194.63 250.286 Q2197.9 250.286 2199.68 248.596 Q2201.46 246.907 2201.46 243.782 Q2201.46 240.68 2199.68 238.99 Q2197.9 237.3 2194.63 237.3 L2188.75 237.3 M2184.08 233.458 L2194.63 233.458 Q2200.44 233.458 2203.41 236.096 Q2206.39 238.712 2206.39 243.782 Q2206.39 248.897 2203.41 251.513 Q2200.44 254.129 2194.63 254.129 L2188.75 254.129 L2188.75 268.018 L2184.08 268.018 L2184.08 233.458 Z" fill="#000000" fill-rule="nonzero" fill-opacity="1" /><polyline clip-path="url(#clip850)" style="stroke:#c271d2; stroke-linecap:round; stroke-linejoin:round; stroke-width:12; stroke-opacity:1; fill:none" points="1977.44,302.578 2121.36,302.578 "/>
<path clip-path="url(#clip850)" d="M2150.03 289.14 L2150.03 302.126 L2155.91 302.126 Q2159.17 302.126 2160.95 300.436 Q2162.73 298.747 2162.73 295.622 Q2162.73 292.52 2160.95 290.83 Q2159.17 289.14 2155.91 289.14 L2150.03 289.14 M2145.35 285.298 L2155.91 285.298 Q2161.72 285.298 2164.68 287.936 Q2167.67 290.552 2167.67 295.622 Q2167.67 300.737 2164.68 303.353 Q2161.72 305.969 2155.91 305.969 L2150.03 305.969 L2150.03 319.858 L2145.35 319.858 L2145.35 285.298 Z" fill="#000000" fill-rule="nonzero" fill-opacity="1" /><path clip-path="url(#clip850)" d="M2178.38 315.922 L2194.7 315.922 L2194.7 319.858 L2172.76 319.858 L2172.76 315.922 Q2175.42 313.168 2180 308.538 Q2184.61 303.885 2185.79 302.543 Q2188.04 300.02 2188.92 298.284 Q2189.82 296.524 2189.82 294.835 Q2189.82 292.08 2187.87 290.344 Q2185.95 288.608 2182.85 288.608 Q2180.65 288.608 2178.2 289.372 Q2175.77 290.135 2172.99 291.686 L2172.99 286.964 Q2175.81 285.83 2178.27 285.251 Q2180.72 284.673 2182.76 284.673 Q2188.13 284.673 2191.32 287.358 Q2194.52 290.043 2194.52 294.534 Q2194.52 296.663 2193.71 298.585 Q2192.92 300.483 2190.81 303.075 Q2190.23 303.747 2187.13 306.964 Q2184.03 310.159 2178.38 315.922 Z" fill="#000000" fill-rule="nonzero" fill-opacity="1" /><path clip-path="url(#clip850)" d="M2204.56 285.298 L2222.92 285.298 L2222.92 289.233 L2208.85 289.233 L2208.85 297.705 Q2209.86 297.358 2210.88 297.196 Q2211.9 297.01 2212.92 297.01 Q2218.71 297.01 2222.09 300.182 Q2225.47 303.353 2225.47 308.77 Q2225.47 314.348 2221.99 317.45 Q2218.52 320.529 2212.2 320.529 Q2210.03 320.529 2207.76 320.158 Q2205.51 319.788 2203.1 319.047 L2203.1 314.348 Q2205.19 315.483 2207.41 316.038 Q2209.63 316.594 2212.11 316.594 Q2216.11 316.594 2218.45 314.487 Q2220.79 312.381 2220.79 308.77 Q2220.79 305.159 2218.45 303.052 Q2216.11 300.946 2212.11 300.946 Q2210.23 300.946 2208.36 301.362 Q2206.51 301.779 2204.56 302.659 L2204.56 285.298 Z" fill="#000000" fill-rule="nonzero" fill-opacity="1" /><polyline clip-path="url(#clip850)" style="stroke:#ac8d18; stroke-linecap:round; stroke-linejoin:round; stroke-width:12; stroke-opacity:1; fill:none" points="1977.44,354.418 2121.36,354.418 "/>
<path clip-path="url(#clip850)" d="M2150.03 340.98 L2150.03 353.966 L2155.91 353.966 Q2159.17 353.966 2160.95 352.276 Q2162.73 350.587 2162.73 347.462 Q2162.73 344.36 2160.95 342.67 Q2159.17 340.98 2155.91 340.98 L2150.03 340.98 M2145.35 337.138 L2155.91 337.138 Q2161.72 337.138 2164.68 339.776 Q2167.67 342.392 2167.67 347.462 Q2167.67 352.577 2164.68 355.193 Q2161.72 357.809 2155.91 357.809 L2150.03 357.809 L2150.03 371.698 L2145.35 371.698 L2145.35 337.138 Z" fill="#000000" fill-rule="nonzero" fill-opacity="1" /><path clip-path="url(#clip850)" d="M2173.17 337.138 L2195.4 337.138 L2195.4 339.128 L2182.85 371.698 L2177.97 371.698 L2189.77 341.073 L2173.17 341.073 L2173.17 337.138 Z" fill="#000000" fill-rule="nonzero" fill-opacity="1" /><path clip-path="url(#clip850)" d="M2204.56 337.138 L2222.92 337.138 L2222.92 341.073 L2208.85 341.073 L2208.85 349.545 Q2209.86 349.198 2210.88 349.036 Q2211.9 348.85 2212.92 348.85 Q2218.71 348.85 2222.09 352.022 Q2225.47 355.193 2225.47 360.61 Q2225.47 366.188 2221.99 369.29 Q2218.52 372.369 2212.2 372.369 Q2210.03 372.369 2207.76 371.998 Q2205.51 371.628 2203.1 370.887 L2203.1 366.188 Q2205.19 367.323 2207.41 367.878 Q2209.63 368.434 2212.11 368.434 Q2216.11 368.434 2218.45 366.327 Q2220.79 364.221 2220.79 360.61 Q2220.79 356.999 2218.45 354.892 Q2216.11 352.786 2212.11 352.786 Q2210.23 352.786 2208.36 353.202 Q2206.51 353.619 2204.56 354.499 L2204.56 337.138 Z" fill="#000000" fill-rule="nonzero" fill-opacity="1" /></svg>
