<?xml version="1.0" encoding="utf-8"?>
<svg xmlns="http://www.w3.org/2000/svg" xmlns:xlink="http://www.w3.org/1999/xlink" width="600" height="400" viewBox="0 0 2400 1600">
<defs>
  <clipPath id="clip040">
    <rect x="0" y="0" width="2400" height="1600"/>
  </clipPath>
</defs>
<path clip-path="url(#clip040)" d="M0 1600 L2400 1600 L2400 0 L0 0  Z" fill="#ffffff" fill-rule="evenodd" fill-opacity="1"/>
<defs>
  <clipPath id="clip041">
    <rect x="480" y="0" width="1681" height="1600"/>
  </clipPath>
</defs>
<path clip-path="url(#clip040)" d="M193.936 1486.45 L2352.76 1486.45 L2352.76 47.2441 L193.936 47.2441  Z" fill="#ffffff" fill-rule="evenodd" fill-opacity="1"/>
<defs>
  <clipPath id="clip042">
    <rect x="193" y="47" width="2160" height="1440"/>
  </clipPath>
</defs>
<polyline clip-path="url(#clip042)" style="stroke:#000000; stroke-linecap:round; stroke-linejoin:round; stroke-width:2; stroke-opacity:0.1; fill:none" points="255.035,1486.45 255.035,47.2441 "/>
<polyline clip-path="url(#clip042)" style="stroke:#000000; stroke-linecap:round; stroke-linejoin:round; stroke-width:2; stroke-opacity:0.1; fill:none" points="579.173,1486.45 579.173,47.2441 "/>
<polyline clip-path="url(#clip042)" style="stroke:#000000; stroke-linecap:round; stroke-linejoin:round; stroke-width:2; stroke-opacity:0.1; fill:none" points="903.312,1486.45 903.312,47.2441 "/>
<polyline clip-path="url(#clip042)" style="stroke:#000000; stroke-linecap:round; stroke-linejoin:round; stroke-width:2; stroke-opacity:0.1; fill:none" points="1227.45,1486.45 1227.45,47.2441 "/>
<polyline clip-path="url(#clip042)" style="stroke:#000000; stroke-linecap:round; stroke-linejoin:round; stroke-width:2; stroke-opacity:0.1; fill:none" points="1551.59,1486.45 1551.59,47.2441 "/>
<polyline clip-path="url(#clip042)" style="stroke:#000000; stroke-linecap:round; stroke-linejoin:round; stroke-width:2; stroke-opacity:0.1; fill:none" points="1875.73,1486.45 1875.73,47.2441 "/>
<polyline clip-path="url(#clip042)" style="stroke:#000000; stroke-linecap:round; stroke-linejoin:round; stroke-width:2; stroke-opacity:0.1; fill:none" points="2199.87,1486.45 2199.87,47.2441 "/>
<polyline clip-path="url(#clip042)" style="stroke:#000000; stroke-linecap:round; stroke-linejoin:round; stroke-width:2; stroke-opacity:0.1; fill:none" points="193.936,1482.58 2352.76,1482.58 "/>
<polyline clip-path="url(#clip042)" style="stroke:#000000; stroke-linecap:round; stroke-linejoin:round; stroke-width:2; stroke-opacity:0.1; fill:none" points="193.936,1240.91 2352.76,1240.91 "/>
<polyline clip-path="url(#clip042)" style="stroke:#000000; stroke-linecap:round; stroke-linejoin:round; stroke-width:2; stroke-opacity:0.1; fill:none" points="193.936,999.234 2352.76,999.234 "/>
<polyline clip-path="url(#clip042)" style="stroke:#000000; stroke-linecap:round; stroke-linejoin:round; stroke-width:2; stroke-opacity:0.1; fill:none" points="193.936,757.561 2352.76,757.561 "/>
<polyline clip-path="url(#clip042)" style="stroke:#000000; stroke-linecap:round; stroke-linejoin:round; stroke-width:2; stroke-opacity:0.1; fill:none" points="193.936,515.887 2352.76,515.887 "/>
<polyline clip-path="url(#clip042)" style="stroke:#000000; stroke-linecap:round; stroke-linejoin:round; stroke-width:2; stroke-opacity:0.1; fill:none" points="193.936,274.213 2352.76,274.213 "/>
<polyline clip-path="url(#clip040)" style="stroke:#000000; stroke-linecap:round; stroke-linejoin:round; stroke-width:4; stroke-opacity:1; fill:none" points="193.936,1486.45 2352.76,1486.45 "/>
<polyline clip-path="url(#clip040)" style="stroke:#000000; stroke-linecap:round; stroke-linejoin:round; stroke-width:4; stroke-opacity:1; fill:none" points="255.035,1486.45 255.035,1467.55 "/>
<polyline clip-path="url(#clip040)" style="stroke:#000000; stroke-linecap:round; stroke-linejoin:round; stroke-width:4; stroke-opacity:1; fill:none" points="579.173,1486.45 579.173,1467.55 "/>
<polyline clip-path="url(#clip040)" style="stroke:#000000; stroke-linecap:round; stroke-linejoin:round; stroke-width:4; stroke-opacity:1; fill:none" points="903.312,1486.45 903.312,1467.55 "/>
<polyline clip-path="url(#clip040)" style="stroke:#000000; stroke-linecap:round; stroke-linejoin:round; stroke-width:4; stroke-opacity:1; fill:none" points="1227.45,1486.45 1227.45,1467.55 "/>
<polyline clip-path="url(#clip040)" style="stroke:#000000; stroke-linecap:round; stroke-linejoin:round; stroke-width:4; stroke-opacity:1; fill:none" points="1551.59,1486.45 1551.59,1467.55 "/>
<polyline clip-path="url(#clip040)" style="stroke:#000000; stroke-linecap:round; stroke-linejoin:round; stroke-width:4; stroke-opacity:1; fill:none" points="1875.73,1486.45 1875.73,1467.55 "/>
<polyline clip-path="url(#clip040)" style="stroke:#000000; stroke-linecap:round; stroke-linejoin:round; stroke-width:4; stroke-opacity:1; fill:none" points="2199.87,1486.45 2199.87,1467.55 "/>
<path clip-path="url(#clip040)" d="M255.035 1517.37 Q251.424 1517.37 249.595 1520.93 Q247.789 1524.47 247.789 1531.6 Q247.789 1538.71 249.595 1542.27 Q251.424 1545.82 255.035 1545.82 Q258.669 1545.82 260.474 1542.27 Q262.303 1538.71 262.303 1531.6 Q262.303 1524.47 260.474 1520.93 Q258.669 1517.37 255.035 1517.37 M255.035 1513.66 Q260.845 1513.66 263.9 1518.27 Q266.979 1522.85 266.979 1531.6 Q266.979 1540.33 263.9 1544.94 Q260.845 1549.52 255.035 1549.52 Q249.225 1549.52 246.146 1544.94 Q243.09 1540.33 243.09 1531.6 Q243.09 1522.85 246.146 1518.27 Q249.225 1513.66 255.035 1513.66 Z" fill="#000000" fill-rule="nonzero" fill-opacity="1" /><path clip-path="url(#clip040)" d="M569.555 1544.91 L577.194 1544.91 L577.194 1518.55 L568.884 1520.21 L568.884 1515.95 L577.148 1514.29 L581.824 1514.29 L581.824 1544.91 L589.463 1544.91 L589.463 1548.85 L569.555 1548.85 L569.555 1544.91 Z" fill="#000000" fill-rule="nonzero" fill-opacity="1" /><path clip-path="url(#clip040)" d="M897.965 1544.91 L914.284 1544.91 L914.284 1548.85 L892.34 1548.85 L892.34 1544.91 Q895.002 1542.16 899.585 1537.53 Q904.191 1532.88 905.372 1531.53 Q907.617 1529.01 908.497 1527.27 Q909.4 1525.51 909.4 1523.82 Q909.4 1521.07 907.455 1519.33 Q905.534 1517.6 902.432 1517.6 Q900.233 1517.6 897.779 1518.36 Q895.349 1519.13 892.571 1520.68 L892.571 1515.95 Q895.395 1514.82 897.849 1514.24 Q900.303 1513.66 902.34 1513.66 Q907.71 1513.66 910.904 1516.35 Q914.099 1519.03 914.099 1523.52 Q914.099 1525.65 913.289 1527.57 Q912.502 1529.47 910.395 1532.07 Q909.816 1532.74 906.715 1535.95 Q903.613 1539.15 897.965 1544.91 Z" fill="#000000" fill-rule="nonzero" fill-opacity="1" /><path clip-path="url(#clip040)" d="M1231.7 1530.21 Q1235.05 1530.93 1236.93 1533.2 Q1238.83 1535.47 1238.83 1538.8 Q1238.83 1543.92 1235.31 1546.72 Q1231.79 1549.52 1225.31 1549.52 Q1223.13 1549.52 1220.82 1549.08 Q1218.53 1548.66 1216.07 1547.81 L1216.07 1543.29 Q1218.02 1544.43 1220.33 1545.01 Q1222.65 1545.58 1225.17 1545.58 Q1229.57 1545.58 1231.86 1543.85 Q1234.17 1542.11 1234.17 1538.8 Q1234.17 1535.75 1232.02 1534.03 Q1229.89 1532.3 1226.07 1532.3 L1222.05 1532.3 L1222.05 1528.45 L1226.26 1528.45 Q1229.71 1528.45 1231.54 1527.09 Q1233.36 1525.7 1233.36 1523.11 Q1233.36 1520.45 1231.47 1519.03 Q1229.59 1517.6 1226.07 1517.6 Q1224.15 1517.6 1221.95 1518.01 Q1219.75 1518.43 1217.11 1519.31 L1217.11 1515.14 Q1219.78 1514.4 1222.09 1514.03 Q1224.43 1513.66 1226.49 1513.66 Q1231.81 1513.66 1234.92 1516.09 Q1238.02 1518.5 1238.02 1522.62 Q1238.02 1525.49 1236.37 1527.48 Q1234.73 1529.45 1231.7 1530.21 Z" fill="#000000" fill-rule="nonzero" fill-opacity="1" /><path clip-path="url(#clip040)" d="M1554.6 1518.36 L1542.79 1536.81 L1554.6 1536.81 L1554.6 1518.36 M1553.37 1514.29 L1559.25 1514.29 L1559.25 1536.81 L1564.18 1536.81 L1564.18 1540.7 L1559.25 1540.7 L1559.25 1548.85 L1554.6 1548.85 L1554.6 1540.7 L1539 1540.7 L1539 1536.19 L1553.37 1514.29 Z" fill="#000000" fill-rule="nonzero" fill-opacity="1" /><path clip-path="url(#clip040)" d="M1866.01 1514.29 L1884.36 1514.29 L1884.36 1518.22 L1870.29 1518.22 L1870.29 1526.7 Q1871.31 1526.35 1872.32 1526.19 Q1873.34 1526 1874.36 1526 Q1880.15 1526 1883.53 1529.17 Q1886.91 1532.34 1886.91 1537.76 Q1886.91 1543.34 1883.44 1546.44 Q1879.96 1549.52 1873.64 1549.52 Q1871.47 1549.52 1869.2 1549.15 Q1866.95 1548.78 1864.55 1548.04 L1864.55 1543.34 Q1866.63 1544.47 1868.85 1545.03 Q1871.07 1545.58 1873.55 1545.58 Q1877.56 1545.58 1879.89 1543.48 Q1882.23 1541.37 1882.23 1537.76 Q1882.23 1534.15 1879.89 1532.04 Q1877.56 1529.94 1873.55 1529.94 Q1871.68 1529.94 1869.8 1530.35 Q1867.95 1530.77 1866.01 1531.65 L1866.01 1514.29 Z" fill="#000000" fill-rule="nonzero" fill-opacity="1" /><path clip-path="url(#clip040)" d="M2200.27 1529.7 Q2197.12 1529.7 2195.27 1531.86 Q2193.44 1534.01 2193.44 1537.76 Q2193.44 1541.49 2195.27 1543.66 Q2197.12 1545.82 2200.27 1545.82 Q2203.42 1545.82 2205.25 1543.66 Q2207.1 1541.49 2207.1 1537.76 Q2207.1 1534.01 2205.25 1531.86 Q2203.42 1529.7 2200.27 1529.7 M2209.55 1515.05 L2209.55 1519.31 Q2207.79 1518.48 2205.99 1518.04 Q2204.21 1517.6 2202.45 1517.6 Q2197.82 1517.6 2195.36 1520.72 Q2192.93 1523.85 2192.59 1530.17 Q2193.95 1528.15 2196.01 1527.09 Q2198.07 1526 2200.55 1526 Q2205.76 1526 2208.77 1529.17 Q2211.8 1532.32 2211.8 1537.76 Q2211.8 1543.08 2208.65 1546.3 Q2205.5 1549.52 2200.27 1549.52 Q2194.28 1549.52 2191.1 1544.94 Q2187.93 1540.33 2187.93 1531.6 Q2187.93 1523.41 2191.82 1518.55 Q2195.71 1513.66 2202.26 1513.66 Q2204.02 1513.66 2205.8 1514.01 Q2207.61 1514.36 2209.55 1515.05 Z" fill="#000000" fill-rule="nonzero" fill-opacity="1" /><polyline clip-path="url(#clip040)" style="stroke:#000000; stroke-linecap:round; stroke-linejoin:round; stroke-width:4; stroke-opacity:1; fill:none" points="193.936,1486.45 193.936,47.2441 "/>
<polyline clip-path="url(#clip040)" style="stroke:#000000; stroke-linecap:round; stroke-linejoin:round; stroke-width:4; stroke-opacity:1; fill:none" points="193.936,1482.58 212.834,1482.58 "/>
<polyline clip-path="url(#clip040)" style="stroke:#000000; stroke-linecap:round; stroke-linejoin:round; stroke-width:4; stroke-opacity:1; fill:none" points="193.936,1240.91 212.834,1240.91 "/>
<polyline clip-path="url(#clip040)" style="stroke:#000000; stroke-linecap:round; stroke-linejoin:round; stroke-width:4; stroke-opacity:1; fill:none" points="193.936,999.234 212.834,999.234 "/>
<polyline clip-path="url(#clip040)" style="stroke:#000000; stroke-linecap:round; stroke-linejoin:round; stroke-width:4; stroke-opacity:1; fill:none" points="193.936,757.561 212.834,757.561 "/>
<polyline clip-path="url(#clip040)" style="stroke:#000000; stroke-linecap:round; stroke-linejoin:round; stroke-width:4; stroke-opacity:1; fill:none" points="193.936,515.887 212.834,515.887 "/>
<polyline clip-path="url(#clip040)" style="stroke:#000000; stroke-linecap:round; stroke-linejoin:round; stroke-width:4; stroke-opacity:1; fill:none" points="193.936,274.213 212.834,274.213 "/>
<path clip-path="url(#clip040)" d="M51.9875 1483.03 L81.6633 1483.03 L81.6633 1486.97 L51.9875 1486.97 L51.9875 1483.03 Z" fill="#000000" fill-rule="nonzero" fill-opacity="1" /><path clip-path="url(#clip040)" d="M92.566 1495.93 L100.205 1495.93 L100.205 1469.56 L91.8947 1471.23 L91.8947 1466.97 L100.159 1465.3 L104.834 1465.3 L104.834 1495.93 L112.473 1495.93 L112.473 1499.86 L92.566 1499.86 L92.566 1495.93 Z" fill="#000000" fill-rule="nonzero" fill-opacity="1" /><path clip-path="url(#clip040)" d="M121.918 1493.98 L126.802 1493.98 L126.802 1499.86 L121.918 1499.86 L121.918 1493.98 Z" fill="#000000" fill-rule="nonzero" fill-opacity="1" /><path clip-path="url(#clip040)" d="M137.033 1465.3 L155.39 1465.3 L155.39 1469.24 L141.316 1469.24 L141.316 1477.71 Q142.334 1477.36 143.353 1477.2 Q144.371 1477.01 145.39 1477.01 Q151.177 1477.01 154.556 1480.19 Q157.936 1483.36 157.936 1488.77 Q157.936 1494.35 154.464 1497.45 Q150.992 1500.53 144.672 1500.53 Q142.496 1500.53 140.228 1500.16 Q137.982 1499.79 135.575 1499.05 L135.575 1494.35 Q137.658 1495.49 139.881 1496.04 Q142.103 1496.6 144.58 1496.6 Q148.584 1496.6 150.922 1494.49 Q153.26 1492.39 153.26 1488.77 Q153.26 1485.16 150.922 1483.06 Q148.584 1480.95 144.58 1480.95 Q142.705 1480.95 140.83 1481.37 Q138.978 1481.78 137.033 1482.66 L137.033 1465.3 Z" fill="#000000" fill-rule="nonzero" fill-opacity="1" /><path clip-path="url(#clip040)" d="M50.9921 1241.36 L80.6679 1241.36 L80.6679 1245.29 L50.9921 1245.29 L50.9921 1241.36 Z" fill="#000000" fill-rule="nonzero" fill-opacity="1" /><path clip-path="url(#clip040)" d="M91.5706 1254.25 L99.2095 1254.25 L99.2095 1227.89 L90.8993 1229.55 L90.8993 1225.29 L99.1632 1223.63 L103.839 1223.63 L103.839 1254.25 L111.478 1254.25 L111.478 1258.19 L91.5706 1258.19 L91.5706 1254.25 Z" fill="#000000" fill-rule="nonzero" fill-opacity="1" /><path clip-path="url(#clip040)" d="M120.922 1252.31 L125.807 1252.31 L125.807 1258.19 L120.922 1258.19 L120.922 1252.31 Z" fill="#000000" fill-rule="nonzero" fill-opacity="1" /><path clip-path="url(#clip040)" d="M145.992 1226.71 Q142.381 1226.71 140.552 1230.27 Q138.746 1233.81 138.746 1240.94 Q138.746 1248.05 140.552 1251.61 Q142.381 1255.16 145.992 1255.16 Q149.626 1255.16 151.431 1251.61 Q153.26 1248.05 153.26 1240.94 Q153.26 1233.81 151.431 1230.27 Q149.626 1226.71 145.992 1226.71 M145.992 1223 Q151.802 1223 154.857 1227.61 Q157.936 1232.19 157.936 1240.94 Q157.936 1249.67 154.857 1254.28 Q151.802 1258.86 145.992 1258.86 Q140.181 1258.86 137.103 1254.28 Q134.047 1249.67 134.047 1240.94 Q134.047 1232.19 137.103 1227.61 Q140.181 1223 145.992 1223 Z" fill="#000000" fill-rule="nonzero" fill-opacity="1" /><path clip-path="url(#clip040)" d="M51.9875 999.686 L81.6633 999.686 L81.6633 1003.62 L51.9875 1003.62 L51.9875 999.686 Z" fill="#000000" fill-rule="nonzero" fill-opacity="1" /><path clip-path="url(#clip040)" d="M101.756 985.033 Q98.1447 985.033 96.316 988.598 Q94.5104 992.139 94.5104 999.269 Q94.5104 1006.38 96.316 1009.94 Q98.1447 1013.48 101.756 1013.48 Q105.39 1013.48 107.196 1009.94 Q109.024 1006.38 109.024 999.269 Q109.024 992.139 107.196 988.598 Q105.39 985.033 101.756 985.033 M101.756 981.329 Q107.566 981.329 110.621 985.936 Q113.7 990.519 113.7 999.269 Q113.7 1008 110.621 1012.6 Q107.566 1017.19 101.756 1017.19 Q95.9456 1017.19 92.8669 1012.6 Q89.8114 1008 89.8114 999.269 Q89.8114 990.519 92.8669 985.936 Q95.9456 981.329 101.756 981.329 Z" fill="#000000" fill-rule="nonzero" fill-opacity="1" /><path clip-path="url(#clip040)" d="M121.918 1010.63 L126.802 1010.63 L126.802 1016.51 L121.918 1016.51 L121.918 1010.63 Z" fill="#000000" fill-rule="nonzero" fill-opacity="1" /><path clip-path="url(#clip040)" d="M137.033 981.954 L155.39 981.954 L155.39 985.89 L141.316 985.89 L141.316 994.362 Q142.334 994.014 143.353 993.852 Q144.371 993.667 145.39 993.667 Q151.177 993.667 154.556 996.839 Q157.936 1000.01 157.936 1005.43 Q157.936 1011.01 154.464 1014.11 Q150.992 1017.19 144.672 1017.19 Q142.496 1017.19 140.228 1016.82 Q137.982 1016.44 135.575 1015.7 L135.575 1011.01 Q137.658 1012.14 139.881 1012.69 Q142.103 1013.25 144.58 1013.25 Q148.584 1013.25 150.922 1011.14 Q153.26 1009.04 153.26 1005.43 Q153.26 1001.82 150.922 999.709 Q148.584 997.602 144.58 997.602 Q142.705 997.602 140.83 998.019 Q138.978 998.436 137.033 999.315 L137.033 981.954 Z" fill="#000000" fill-rule="nonzero" fill-opacity="1" /><path clip-path="url(#clip040)" d="M100.76 743.359 Q97.1493 743.359 95.3206 746.924 Q93.515 750.466 93.515 757.595 Q93.515 764.702 95.3206 768.267 Q97.1493 771.808 100.76 771.808 Q104.395 771.808 106.2 768.267 Q108.029 764.702 108.029 757.595 Q108.029 750.466 106.2 746.924 Q104.395 743.359 100.76 743.359 M100.76 739.656 Q106.571 739.656 109.626 744.262 Q112.705 748.845 112.705 757.595 Q112.705 766.322 109.626 770.929 Q106.571 775.512 100.76 775.512 Q94.9502 775.512 91.8715 770.929 Q88.816 766.322 88.816 757.595 Q88.816 748.845 91.8715 744.262 Q94.9502 739.656 100.76 739.656 Z" fill="#000000" fill-rule="nonzero" fill-opacity="1" /><path clip-path="url(#clip040)" d="M120.922 768.961 L125.807 768.961 L125.807 774.841 L120.922 774.841 L120.922 768.961 Z" fill="#000000" fill-rule="nonzero" fill-opacity="1" /><path clip-path="url(#clip040)" d="M145.992 743.359 Q142.381 743.359 140.552 746.924 Q138.746 750.466 138.746 757.595 Q138.746 764.702 140.552 768.267 Q142.381 771.808 145.992 771.808 Q149.626 771.808 151.431 768.267 Q153.26 764.702 153.26 757.595 Q153.26 750.466 151.431 746.924 Q149.626 743.359 145.992 743.359 M145.992 739.656 Q151.802 739.656 154.857 744.262 Q157.936 748.845 157.936 757.595 Q157.936 766.322 154.857 770.929 Q151.802 775.512 145.992 775.512 Q140.181 775.512 137.103 770.929 Q134.047 766.322 134.047 757.595 Q134.047 748.845 137.103 744.262 Q140.181 739.656 145.992 739.656 Z" fill="#000000" fill-rule="nonzero" fill-opacity="1" /><path clip-path="url(#clip040)" d="M101.756 501.686 Q98.1447 501.686 96.316 505.25 Q94.5104 508.792 94.5104 515.922 Q94.5104 523.028 96.316 526.593 Q98.1447 530.134 101.756 530.134 Q105.39 530.134 107.196 526.593 Q109.024 523.028 109.024 515.922 Q109.024 508.792 107.196 505.25 Q105.39 501.686 101.756 501.686 M101.756 497.982 Q107.566 497.982 110.621 502.588 Q113.7 507.172 113.7 515.922 Q113.7 524.648 110.621 529.255 Q107.566 533.838 101.756 533.838 Q95.9456 533.838 92.8669 529.255 Q89.8114 524.648 89.8114 515.922 Q89.8114 507.172 92.8669 502.588 Q95.9456 497.982 101.756 497.982 Z" fill="#000000" fill-rule="nonzero" fill-opacity="1" /><path clip-path="url(#clip040)" d="M121.918 527.287 L126.802 527.287 L126.802 533.167 L121.918 533.167 L121.918 527.287 Z" fill="#000000" fill-rule="nonzero" fill-opacity="1" /><path clip-path="url(#clip040)" d="M137.033 498.607 L155.39 498.607 L155.39 502.542 L141.316 502.542 L141.316 511.014 Q142.334 510.667 143.353 510.505 Q144.371 510.32 145.39 510.32 Q151.177 510.32 154.556 513.491 Q157.936 516.662 157.936 522.079 Q157.936 527.658 154.464 530.759 Q150.992 533.838 144.672 533.838 Q142.496 533.838 140.228 533.468 Q137.982 533.097 135.575 532.357 L135.575 527.658 Q137.658 528.792 139.881 529.347 Q142.103 529.903 144.58 529.903 Q148.584 529.903 150.922 527.796 Q153.26 525.69 153.26 522.079 Q153.26 518.468 150.922 516.361 Q148.584 514.255 144.58 514.255 Q142.705 514.255 140.83 514.672 Q138.978 515.088 137.033 515.968 L137.033 498.607 Z" fill="#000000" fill-rule="nonzero" fill-opacity="1" /><path clip-path="url(#clip040)" d="M91.5706 287.558 L99.2095 287.558 L99.2095 261.192 L90.8993 262.859 L90.8993 258.6 L99.1632 256.933 L103.839 256.933 L103.839 287.558 L111.478 287.558 L111.478 291.493 L91.5706 291.493 L91.5706 287.558 Z" fill="#000000" fill-rule="nonzero" fill-opacity="1" /><path clip-path="url(#clip040)" d="M120.922 285.613 L125.807 285.613 L125.807 291.493 L120.922 291.493 L120.922 285.613 Z" fill="#000000" fill-rule="nonzero" fill-opacity="1" /><path clip-path="url(#clip040)" d="M145.992 260.012 Q142.381 260.012 140.552 263.577 Q138.746 267.118 138.746 274.248 Q138.746 281.354 140.552 284.919 Q142.381 288.461 145.992 288.461 Q149.626 288.461 151.431 284.919 Q153.26 281.354 153.26 274.248 Q153.26 267.118 151.431 263.577 Q149.626 260.012 145.992 260.012 M145.992 256.308 Q151.802 256.308 154.857 260.915 Q157.936 265.498 157.936 274.248 Q157.936 282.975 154.857 287.581 Q151.802 292.164 145.992 292.164 Q140.181 292.164 137.103 287.581 Q134.047 282.975 134.047 274.248 Q134.047 265.498 137.103 260.915 Q140.181 256.308 145.992 256.308 Z" fill="#000000" fill-rule="nonzero" fill-opacity="1" /><polyline clip-path="url(#clip042)" style="stroke:#009af9; stroke-linecap:round; stroke-linejoin:round; stroke-width:4; stroke-opacity:1; fill:none" points="255.035,757.561 258.276,752.727 261.517,747.894 264.759,743.062 268,738.232 271.242,733.403 274.483,728.577 277.724,723.754 280.966,718.934 284.207,714.118 287.449,709.306 290.69,704.5 293.931,699.698 297.173,694.902 300.414,690.113 303.655,685.33 306.897,680.555 310.138,675.787 313.38,671.027 316.621,666.276 319.862,661.534 323.104,656.802 326.345,652.08 329.587,647.368 332.828,642.668 336.069,637.978 339.311,633.301 342.552,628.637 345.793,623.985 349.035,619.346 352.276,614.722 355.518,610.111 358.759,605.516 362,600.935 365.242,596.37 368.483,591.822 371.725,587.29 374.966,582.775 378.207,578.277 381.449,573.797 384.69,569.336 387.931,564.894 391.173,560.471 394.414,556.067 397.656,551.684 400.897,547.321 404.138,542.979 407.38,538.659 410.621,534.361 413.863,530.085 417.104,525.831 420.345,521.601 423.587,517.395 426.828,513.212 430.069,509.054 433.311,504.921 436.552,500.813 439.794,496.731 443.035,492.675 446.276,488.645 449.518,484.642 452.759,480.667 456.001,476.719 459.242,472.799 462.483,468.908 465.725,465.045 468.966,461.212 472.208,457.409 475.449,453.635 478.69,449.892 481.932,446.18 485.173,442.498 488.414,438.849 491.656,435.231 494.897,431.645 498.139,428.092 501.38,424.572 504.621,421.085 507.863,417.632 511.104,414.213 514.346,410.828 517.587,407.478 520.828,404.163 524.07,400.883 527.311,397.639 530.552,394.431 533.794,391.259 537.035,388.124 540.277,385.026 543.518,381.965 546.759,378.941 550.001,375.956 553.242,373.009 556.484,370.1 559.725,367.229 562.966,364.398 566.208,361.606 569.449,358.854 572.69,356.142 575.932,353.469 579.173,350.838 582.415,348.247 585.656,345.696 588.897,343.187 592.139,340.72 595.38,338.294 598.622,335.91 601.863,333.568 605.104,331.268 608.346,329.012 611.587,326.798 614.828,324.627 618.07,322.499 621.311,320.415 624.553,318.375 627.794,316.378 631.035,314.426 634.277,312.518 637.518,310.655 640.76,308.836 644.001,307.062 647.242,305.333 650.484,303.649 653.725,302.011 656.966,300.418 660.208,298.871 663.449,297.37 666.691,295.915 669.932,294.506 673.173,293.143 676.415,291.827 679.656,290.557 682.898,289.335 686.139,288.158 689.38,287.029 692.622,285.947 695.863,284.912 699.104,283.924 702.346,282.984 705.587,282.091 708.829,281.246 712.07,280.448 715.311,279.698 718.553,278.996 721.794,278.342 725.036,277.735 728.277,277.177 731.518,276.666 734.76,276.204 738.001,275.79 741.242,275.424 744.484,275.106 747.725,274.837 750.967,274.615 754.208,274.442 757.449,274.318 760.691,274.241 763.932,274.213 767.174,274.234 770.415,274.302 773.656,274.419 776.898,274.584 780.139,274.798 783.381,275.06 786.622,275.37 789.863,275.728 793.105,276.135 796.346,276.59 799.587,277.092 802.829,277.643 806.07,278.242 809.312,278.889 812.553,279.583 815.794,280.326 819.036,281.116 822.277,281.953 825.519,282.839 828.76,283.772 832.001,284.752 835.243,285.779 838.484,286.854 841.725,287.975 844.967,289.144 848.208,290.36 851.45,291.622 854.691,292.931 857.932,294.286 861.174,295.687 864.415,297.135 867.657,298.629 870.898,300.169 874.139,301.754 877.381,303.385 880.622,305.062 883.863,306.783 887.105,308.55 890.346,310.362 893.588,312.218 896.829,314.119 900.07,316.064 903.312,318.054 906.553,320.087 909.795,322.164 913.036,324.285 916.277,326.449 919.519,328.656 922.76,330.906 926.001,333.199 929.243,335.534 932.484,337.911 935.726,340.33 938.967,342.791 942.208,345.294 945.45,347.838 948.691,350.422 951.933,353.048 955.174,355.713 958.415,358.419 961.657,361.165 964.898,363.951 968.139,366.776 971.381,369.64 974.622,372.543 977.864,375.484 981.105,378.463 984.346,381.481 987.588,384.536 990.829,387.628 994.071,390.757 997.312,393.923 1000.55,397.126 1003.79,400.364 1007.04,403.638 1010.28,406.948 1013.52,410.292 1016.76,413.672 1020,417.085 1023.24,420.533 1026.48,424.015 1029.73,427.529 1032.97,431.077 1036.21,434.658 1039.45,438.27 1042.69,441.915 1045.93,445.591 1049.17,449.299 1052.42,453.037 1055.66,456.806 1058.9,460.604 1062.14,464.433 1065.38,468.291 1068.62,472.177 1071.86,476.093 1075.11,480.036 1078.35,484.007 1081.59,488.006 1084.83,492.031 1088.07,496.083 1091.31,500.161 1094.55,504.265 1097.79,508.394 1101.04,512.548 1104.28,516.727 1107.52,520.93 1110.76,525.156 1114,529.406 1117.24,533.678 1120.48,537.973 1123.73,542.29 1126.97,546.628 1130.21,550.988 1133.45,555.368 1136.69,559.768 1139.93,564.188 1143.17,568.627 1146.42,573.086 1149.66,577.562 1152.9,582.057 1156.14,586.569 1159.38,591.099 1162.62,595.645 1165.86,600.207 1169.11,604.785 1172.35,609.378 1175.59,613.986 1178.83,618.609 1182.07,623.245 1185.31,627.895 1188.55,632.558 1191.8,637.233 1195.04,641.92 1198.28,646.619 1201.52,651.329 1204.76,656.049 1208,660.78 1211.24,665.52 1214.48,670.27 1217.73,675.028 1220.97,679.795 1224.21,684.569 1227.45,689.351 1230.69,694.139 1233.93,698.934 1237.17,703.734 1240.42,708.54 1243.66,713.351 1246.9,718.167 1250.14,722.986 1253.38,727.809 1256.62,732.634 1259.86,737.463 1263.11,742.293 1266.35,747.125 1269.59,751.957 1272.83,756.791 1276.07,761.624 1279.31,766.457 1282.55,771.289 1285.8,776.12 1289.04,780.949 1292.28,785.776 1295.52,790.599 1298.76,795.42 1302,800.236 1305.24,805.049 1308.48,809.856 1311.73,814.659 1314.97,819.456 1318.21,824.246 1321.45,829.03 1324.69,833.807 1327.93,838.576 1331.17,843.337 1334.42,848.089 1337.66,852.832 1340.9,857.566 1344.14,862.29 1347.38,867.003 1350.62,871.706 1353.86,876.397 1357.11,881.076 1360.35,885.742 1363.59,890.396 1366.83,895.037 1370.07,899.664 1373.31,904.277 1376.55,908.875 1379.8,913.458 1383.04,918.025 1386.28,922.576 1389.52,927.111 1392.76,931.629 1396,936.129 1399.24,940.611 1402.49,945.076 1405.73,949.521 1408.97,953.947 1412.21,958.354 1415.45,962.741 1418.69,967.107 1421.93,971.452 1425.17,975.775 1428.42,980.077 1431.66,984.357 1434.9,988.614 1438.14,992.848 1441.38,997.058 1444.62,1001.24 1447.86,1005.41 1451.11,1009.54 1454.35,1013.66 1457.59,1017.74 1460.83,1021.8 1464.07,1025.84 1467.31,1029.84 1470.55,1033.82 1473.8,1037.78 1477.04,1041.7 1480.28,1045.6 1483.52,1049.46 1486.76,1053.3 1490,1057.11 1493.24,1060.89 1496.49,1064.64 1499.73,1068.35 1502.97,1072.04 1506.21,1075.69 1509.45,1079.32 1512.69,1082.91 1515.93,1086.47 1519.18,1089.99 1522.42,1093.48 1525.66,1096.94 1528.9,1100.37 1532.14,1103.76 1535.38,1107.11 1538.62,1110.43 1541.86,1113.72 1545.11,1116.97 1548.35,1120.18 1551.59,1123.36 1554.83,1126.5 1558.07,1129.6 1561.31,1132.67 1564.55,1135.7 1567.8,1138.69 1571.04,1141.65 1574.28,1144.56 1577.52,1147.44 1580.76,1150.27 1584,1153.07 1587.24,1155.83 1590.49,1158.55 1593.73,1161.23 1596.97,1163.87 1600.21,1166.46 1603.45,1169.02 1606.69,1171.54 1609.93,1174.01 1613.18,1176.44 1616.42,1178.83 1619.66,1181.18 1622.9,1183.49 1626.14,1185.75 1629.38,1187.97 1632.62,1190.15 1635.86,1192.29 1639.11,1194.38 1642.35,1196.42 1645.59,1198.43 1648.83,1200.39 1652.07,1202.3 1655.31,1204.17 1658.55,1206 1661.8,1207.78 1665.04,1209.52 1668.28,1211.21 1671.52,1212.85 1674.76,1214.45 1678,1216.01 1681.24,1217.52 1684.49,1218.98 1687.73,1220.39 1690.97,1221.76 1694.21,1223.09 1697.45,1224.36 1700.69,1225.59 1703.93,1226.78 1707.18,1227.92 1710.42,1229 1713.66,1230.05 1716.9,1231.04 1720.14,1231.99 1723.38,1232.89 1726.62,1233.74 1729.87,1234.55 1733.11,1235.31 1736.35,1236.02 1739.59,1236.68 1742.83,1237.29 1746.07,1237.86 1749.31,1238.38 1752.55,1238.85 1755.8,1239.27 1759.04,1239.64 1762.28,1239.97 1765.52,1240.24 1768.76,1240.47 1772,1240.65 1775.24,1240.79 1778.49,1240.87 1781.73,1240.91 1784.97,1240.89 1788.21,1240.83 1791.45,1240.72 1794.69,1240.57 1797.93,1240.36 1801.18,1240.11 1804.42,1239.8 1807.66,1239.45 1810.9,1239.05 1814.14,1238.61 1817.38,1238.11 1820.62,1237.57 1823.87,1236.98 1827.11,1236.34 1830.35,1235.65 1833.59,1234.92 1836.83,1234.13 1840.07,1233.3 1843.31,1232.43 1846.55,1231.5 1849.8,1230.53 1853.04,1229.51 1856.28,1228.44 1859.52,1227.33 1862.76,1226.17 1866,1224.96 1869.24,1223.7 1872.49,1222.4 1875.73,1221.05 1878.97,1219.66 1882.21,1218.22 1885.45,1216.73 1888.69,1215.2 1891.93,1213.62 1895.18,1212 1898.42,1210.33 1901.66,1208.61 1904.9,1206.86 1908.14,1205.05 1911.38,1203.2 1914.62,1201.31 1917.87,1199.37 1921.11,1197.39 1924.35,1195.36 1927.59,1193.29 1930.83,1191.18 1934.07,1189.02 1937.31,1186.82 1940.56,1184.58 1943.8,1182.29 1947.04,1179.96 1950.28,1177.59 1953.52,1175.18 1956.76,1172.72 1960,1170.23 1963.24,1167.69 1966.49,1165.11 1969.73,1162.49 1972.97,1159.83 1976.21,1157.14 1979.45,1154.4 1982.69,1151.62 1985.93,1148.8 1989.18,1145.94 1992.42,1143.04 1995.66,1140.11 1998.9,1137.13 2002.14,1134.12 2005.38,1131.07 2008.62,1127.99 2011.87,1124.86 2015.11,1121.7 2018.35,1118.51 2021.59,1115.28 2024.83,1112.01 2028.07,1108.7 2031.31,1105.36 2034.56,1101.99 2037.8,1098.58 2041.04,1095.14 2044.28,1091.66 2047.52,1088.15 2050.76,1084.61 2054,1081.04 2057.24,1077.43 2060.49,1073.79 2063.73,1070.12 2066.97,1066.42 2070.21,1062.68 2073.45,1058.92 2076.69,1055.12 2079.93,1051.3 2083.18,1047.45 2086.42,1043.56 2089.66,1039.65 2092.9,1035.72 2096.14,1031.75 2099.38,1027.75 2102.62,1023.73 2105.87,1019.69 2109.11,1015.61 2112.35,1011.51 2115.59,1007.39 2118.83,1003.24 2122.07,999.061 2125.31,994.862 2128.56,990.64 2131.8,986.394 2135.04,982.125 2138.28,977.834 2141.52,973.52 2144.76,969.185 2148,964.829 2151.25,960.452 2154.49,956.055 2157.73,951.638 2160.97,947.202 2164.21,942.747 2167.45,938.273 2170.69,933.781 2173.93,929.272 2177.18,924.745 2180.42,920.201 2183.66,915.642 2186.9,911.066 2190.14,906.475 2193.38,901.87 2196.62,897.249 2199.87,892.615 2203.11,887.968 2206.35,883.307 2209.59,878.634 2212.83,873.948 2216.07,869.251 2219.31,864.543 2222.56,859.824 2225.8,855.095 2229.04,850.356 2232.28,845.608 2235.52,840.851 2238.76,836.086 2242,831.313 2245.25,826.533 2248.49,821.745 2251.73,816.951 2254.97,812.152 2258.21,807.346 2261.45,802.536 2264.69,797.722 2267.94,792.903 2271.18,788.081 2274.42,783.255 2277.66,778.428 2280.9,773.598 2284.14,768.766 2287.38,763.933 2290.62,759.1 "/>
<circle clip-path="url(#clip042)" cx="844.967" cy="179.683" r="14.4" fill="#e26f46" fill-rule="evenodd" fill-opacity="1" stroke="#000000" stroke-opacity="1" stroke-width="3.2"/>
<circle clip-path="url(#clip042)" cx="1490" cy="1150.49" r="14.4" fill="#e26f46" fill-rule="evenodd" fill-opacity="1" stroke="#000000" stroke-opacity="1" stroke-width="3.2"/>
<circle clip-path="url(#clip042)" cx="2044.28" cy="1196.56" r="14.4" fill="#e26f46" fill-rule="evenodd" fill-opacity="1" stroke="#000000" stroke-opacity="1" stroke-width="3.2"/>
<circle clip-path="url(#clip042)" cx="728.277" cy="293.631" r="14.4" fill="#e26f46" fill-rule="evenodd" fill-opacity="1" stroke="#000000" stroke-opacity="1" stroke-width="3.2"/>
<circle clip-path="url(#clip042)" cx="1408.97" cy="842.776" r="14.4" fill="#e26f46" fill-rule="evenodd" fill-opacity="1" stroke="#000000" stroke-opacity="1" stroke-width="3.2"/>
<circle clip-path="url(#clip042)" cx="1493.24" cy="978.45" r="14.4" fill="#e26f46" fill-rule="evenodd" fill-opacity="1" stroke="#000000" stroke-opacity="1" stroke-width="3.2"/>
<circle clip-path="url(#clip042)" cx="1195.04" cy="719.958" r="14.4" fill="#e26f46" fill-rule="evenodd" fill-opacity="1" stroke="#000000" stroke-opacity="1" stroke-width="3.2"/>
<circle clip-path="url(#clip042)" cx="971.381" cy="304.91" r="14.4" fill="#e26f46" fill-rule="evenodd" fill-opacity="1" stroke="#000000" stroke-opacity="1" stroke-width="3.2"/>
<circle clip-path="url(#clip042)" cx="1075.11" cy="459.122" r="14.4" fill="#e26f46" fill-rule="evenodd" fill-opacity="1" stroke="#000000" stroke-opacity="1" stroke-width="3.2"/>
<circle clip-path="url(#clip042)" cx="1671.52" cy="1238.42" r="14.4" fill="#e26f46" fill-rule="evenodd" fill-opacity="1" stroke="#000000" stroke-opacity="1" stroke-width="3.2"/>
<circle clip-path="url(#clip042)" cx="1302" cy="829.932" r="14.4" fill="#e26f46" fill-rule="evenodd" fill-opacity="1" stroke="#000000" stroke-opacity="1" stroke-width="3.2"/>
<circle clip-path="url(#clip042)" cx="864.415" cy="187.906" r="14.4" fill="#e26f46" fill-rule="evenodd" fill-opacity="1" stroke="#000000" stroke-opacity="1" stroke-width="3.2"/>
<circle clip-path="url(#clip042)" cx="2193.38" cy="798.385" r="14.4" fill="#e26f46" fill-rule="evenodd" fill-opacity="1" stroke="#000000" stroke-opacity="1" stroke-width="3.2"/>
<circle clip-path="url(#clip042)" cx="468.966" cy="354.42" r="14.4" fill="#e26f46" fill-rule="evenodd" fill-opacity="1" stroke="#000000" stroke-opacity="1" stroke-width="3.2"/>
<circle clip-path="url(#clip042)" cx="1182.07" cy="738.79" r="14.4" fill="#e26f46" fill-rule="evenodd" fill-opacity="1" stroke="#000000" stroke-opacity="1" stroke-width="3.2"/>
<circle clip-path="url(#clip042)" cx="1551.59" cy="1127.02" r="14.4" fill="#e26f46" fill-rule="evenodd" fill-opacity="1" stroke="#000000" stroke-opacity="1" stroke-width="3.2"/>
<circle clip-path="url(#clip042)" cx="1532.14" cy="1218.84" r="14.4" fill="#e26f46" fill-rule="evenodd" fill-opacity="1" stroke="#000000" stroke-opacity="1" stroke-width="3.2"/>
<circle clip-path="url(#clip042)" cx="867.657" cy="341.574" r="14.4" fill="#e26f46" fill-rule="evenodd" fill-opacity="1" stroke="#000000" stroke-opacity="1" stroke-width="3.2"/>
<circle clip-path="url(#clip042)" cx="504.621" cy="302.747" r="14.4" fill="#e26f46" fill-rule="evenodd" fill-opacity="1" stroke="#000000" stroke-opacity="1" stroke-width="3.2"/>
<circle clip-path="url(#clip042)" cx="738.001" cy="197.003" r="14.4" fill="#e26f46" fill-rule="evenodd" fill-opacity="1" stroke="#000000" stroke-opacity="1" stroke-width="3.2"/>
<path clip-path="url(#clip042)" d="M255.035 935.758 L258.276 931.417 L261.517 927.023 L264.759 922.578 L268 918.08 L271.242 913.53 L274.483 908.927 L277.724 904.272 L280.966 899.564 L284.207 894.804 L287.449 889.991 L290.69 885.126 L293.931 880.209 L297.173 875.239 L300.414 870.218 L303.655 865.144 L306.897 860.02 L310.138 854.844 L313.38 849.618 L316.621 844.342 L319.862 839.016 L323.104 833.642 L326.345 828.219 L329.587 822.749 L332.828 817.232 L336.069 811.67 L339.311 806.063 L342.552 800.412 L345.793 794.72 L349.035 788.987 L352.276 783.214 L355.518 777.404 L358.759 771.558 L362 765.679 L365.242 759.767 L368.483 753.826 L371.725 747.858 L374.966 741.865 L378.207 735.85 L381.449 729.817 L384.69 723.769 L387.931 717.708 L391.173 711.64 L394.414 705.567 L397.656 699.495 L400.897 693.427 L404.138 687.369 L407.38 681.327 L410.621 675.305 L413.863 669.31 L417.104 663.348 L420.345 657.426 L423.587 651.552 L426.828 645.732 L430.069 639.975 L433.311 634.289 L436.552 628.684 L439.794 623.169 L443.035 617.754 L446.276 612.448 L449.518 607.264 L452.759 602.21 L456.001 597.3 L459.242 592.545 L462.483 587.955 L465.725 583.544 L468.966 579.323 L472.208 575.301 L475.449 571.482 L478.69 567.863 L481.932 564.446 L485.173 561.228 L488.414 558.21 L491.656 555.39 L494.897 552.768 L498.139 550.34 L501.38 548.107 L504.621 546.067 L507.863 544.215 L511.104 542.539 L514.346 541.025 L517.587 539.658 L520.828 538.423 L524.07 537.307 L527.311 536.295 L530.552 535.375 L533.794 534.533 L537.035 533.757 L540.277 533.035 L543.518 532.356 L546.759 531.71 L550.001 531.085 L553.242 530.473 L556.484 529.865 L559.725 529.251 L562.966 528.625 L566.208 527.979 L569.449 527.307 L572.69 526.6 L575.932 525.855 L579.173 525.066 L582.415 524.228 L585.656 523.335 L588.897 522.386 L592.139 521.374 L595.38 520.299 L598.622 519.155 L601.863 517.942 L605.104 516.657 L608.346 515.297 L611.587 513.863 L614.828 512.352 L618.07 510.763 L621.311 509.097 L624.553 507.352 L627.794 505.53 L631.035 503.63 L634.277 501.654 L637.518 499.602 L640.76 497.476 L644.001 495.277 L647.242 493.008 L650.484 490.671 L653.725 488.269 L656.966 485.804 L660.208 483.281 L663.449 480.702 L666.691 478.072 L669.932 475.396 L673.173 472.679 L676.415 469.925 L679.656 467.141 L682.898 464.333 L686.139 461.507 L689.38 458.671 L692.622 455.831 L695.863 452.997 L699.104 450.175 L702.346 447.376 L705.587 444.608 L708.829 441.88 L712.07 439.204 L715.311 436.588 L718.553 434.045 L721.794 431.584 L725.036 429.217 L728.277 426.954 L731.518 424.807 L734.76 422.779 L738.001 420.874 L741.242 419.096 L744.484 417.436 L747.725 415.888 L750.967 414.444 L754.208 413.094 L757.449 411.833 L760.691 410.653 L763.932 409.548 L767.174 408.51 L770.415 407.535 L773.656 406.618 L776.898 405.755 L780.139 404.941 L783.381 404.175 L786.622 403.455 L789.863 402.779 L793.105 402.149 L796.346 401.563 L799.587 401.024 L802.829 400.536 L806.07 400.1 L809.312 399.723 L812.553 399.408 L815.794 399.164 L819.036 398.997 L822.277 398.915 L825.519 398.929 L828.76 399.047 L832.001 399.281 L835.243 399.642 L838.484 400.143 L841.725 400.797 L844.967 401.617 L848.208 402.615 L851.45 403.795 L854.691 405.159 L857.932 406.711 L861.174 408.453 L864.415 410.388 L867.657 412.515 L870.898 414.828 L874.139 417.314 L877.381 419.959 L880.622 422.752 L883.863 425.68 L887.105 428.73 L890.346 431.892 L893.588 435.154 L896.829 438.507 L900.07 441.941 L903.312 445.447 L906.553 449.019 L909.795 452.648 L913.036 456.33 L916.277 460.058 L919.519 463.828 L922.76 467.635 L926.001 471.479 L929.243 475.355 L932.484 479.262 L935.726 483.2 L938.967 487.168 L942.208 491.166 L945.45 495.196 L948.691 499.26 L951.933 503.359 L955.174 507.496 L958.415 511.674 L961.657 515.896 L964.898 520.168 L968.139 524.492 L971.381 528.874 L974.622 533.315 L977.864 537.813 L981.105 542.359 L984.346 546.948 L987.588 551.575 L990.829 556.232 L994.071 560.916 L997.312 565.621 L1000.55 570.343 L1003.79 575.078 L1007.04 579.821 L1010.28 584.571 L1013.52 589.324 L1016.76 594.078 L1020 598.831 L1023.24 603.582 L1026.48 608.329 L1029.73 613.072 L1032.97 617.811 L1036.21 622.547 L1039.45 627.279 L1042.69 632.01 L1045.93 636.74 L1049.17 641.473 L1052.42 646.21 L1055.66 650.953 L1058.9 655.707 L1062.14 660.475 L1065.38 665.26 L1068.62 670.066 L1071.86 674.898 L1075.11 679.76 L1078.35 684.655 L1081.59 689.578 L1084.83 694.523 L1088.07 699.482 L1091.31 704.451 L1094.55 709.422 L1097.79 714.391 L1101.04 719.353 L1104.28 724.302 L1107.52 729.234 L1110.76 734.145 L1114 739.033 L1117.24 743.893 L1120.48 748.723 L1123.73 753.523 L1126.97 758.289 L1130.21 763.021 L1133.45 767.719 L1136.69 772.382 L1139.93 777.013 L1143.17 781.611 L1146.42 786.179 L1149.66 790.72 L1152.9 795.236 L1156.14 799.73 L1159.38 804.207 L1162.62 808.67 L1165.86 813.126 L1169.11 817.578 L1172.35 822.033 L1175.59 826.496 L1178.83 830.973 L1182.07 835.469 L1185.31 839.991 L1188.55 844.539 L1191.8 849.114 L1195.04 853.716 L1198.28 858.345 L1201.52 862.995 L1204.76 867.659 L1208 872.329 L1211.24 877.001 L1214.48 881.666 L1217.73 886.319 L1220.97 890.954 L1224.21 895.566 L1227.45 900.15 L1230.69 904.701 L1233.93 909.215 L1237.17 913.689 L1240.42 918.12 L1243.66 922.505 L1246.9 926.842 L1250.14 931.131 L1253.38 935.37 L1256.62 939.559 L1259.86 943.698 L1263.11 947.788 L1266.35 951.83 L1269.59 955.826 L1272.83 959.777 L1276.07 963.686 L1279.31 967.557 L1282.55 971.391 L1285.8 975.193 L1289.04 978.967 L1292.28 982.717 L1295.52 986.447 L1298.76 990.161 L1302 993.866 L1305.24 997.563 L1308.48 1001.25 L1311.73 1004.93 L1314.97 1008.59 L1318.21 1012.23 L1321.45 1015.85 L1324.69 1019.44 L1327.93 1023.01 L1331.17 1026.54 L1334.42 1030.05 L1337.66 1033.52 L1340.9 1036.96 L1344.14 1040.36 L1347.38 1043.73 L1350.62 1047.07 L1353.86 1050.37 L1357.11 1053.63 L1360.35 1056.86 L1363.59 1060.07 L1366.83 1063.24 L1370.07 1066.39 L1373.31 1069.51 L1376.55 1072.61 L1379.8 1075.7 L1383.04 1078.77 L1386.28 1081.83 L1389.52 1084.89 L1392.76 1087.96 L1396 1091.03 L1399.24 1094.11 L1402.49 1097.21 L1405.73 1100.35 L1408.97 1103.51 L1412.21 1106.71 L1415.45 1109.95 L1418.69 1113.22 L1421.93 1116.51 L1425.17 1119.82 L1428.42 1123.14 L1431.66 1126.47 L1434.9 1129.81 L1438.14 1133.15 L1441.38 1136.5 L1444.62 1139.84 L1447.86 1143.17 L1451.11 1146.51 L1454.35 1149.84 L1457.59 1153.17 L1460.83 1156.5 L1464.07 1159.84 L1467.31 1163.18 L1470.55 1166.53 L1473.8 1169.9 L1477.04 1173.29 L1480.28 1176.71 L1483.52 1180.16 L1486.76 1183.65 L1490 1187.2 L1493.24 1190.8 L1496.49 1194.46 L1499.73 1198.18 L1502.97 1201.96 L1506.21 1205.78 L1509.45 1209.65 L1512.69 1213.56 L1515.93 1217.5 L1519.18 1221.47 L1522.42 1225.48 L1525.66 1229.51 L1528.9 1233.56 L1532.14 1237.63 L1535.38 1241.72 L1538.62 1245.82 L1541.86 1249.93 L1545.11 1254.05 L1548.35 1258.18 L1551.59 1262.31 L1554.83 1266.44 L1558.07 1270.56 L1561.31 1274.66 L1564.55 1278.74 L1567.8 1282.78 L1571.04 1286.79 L1574.28 1290.75 L1577.52 1294.66 L1580.76 1298.51 L1584 1302.3 L1587.24 1306.02 L1590.49 1309.67 L1593.73 1313.26 L1596.97 1316.77 L1600.21 1320.21 L1603.45 1323.57 L1606.69 1326.85 L1609.93 1330.06 L1613.18 1333.19 L1616.42 1336.26 L1619.66 1339.24 L1622.9 1342.16 L1626.14 1345.02 L1629.38 1347.8 L1632.62 1350.53 L1635.86 1353.2 L1639.11 1355.81 L1642.35 1358.38 L1645.59 1360.9 L1648.83 1363.38 L1652.07 1365.82 L1655.31 1368.24 L1658.55 1370.62 L1661.8 1372.99 L1665.04 1375.34 L1668.28 1377.68 L1671.52 1380.02 L1674.76 1382.35 L1678 1384.68 L1681.24 1387 L1684.49 1389.31 L1687.73 1391.61 L1690.97 1393.89 L1694.21 1396.15 L1697.45 1398.39 L1700.69 1400.6 L1703.93 1402.79 L1707.18 1404.94 L1710.42 1407.06 L1713.66 1409.14 L1716.9 1411.18 L1720.14 1413.18 L1723.38 1415.13 L1726.62 1417.04 L1729.87 1418.9 L1733.11 1420.7 L1736.35 1422.46 L1739.59 1424.16 L1742.83 1425.8 L1746.07 1427.39 L1749.31 1428.92 L1752.55 1430.38 L1755.8 1431.79 L1759.04 1433.13 L1762.28 1434.41 L1765.52 1435.63 L1768.76 1436.77 L1772 1437.86 L1775.24 1438.87 L1778.49 1439.82 L1781.73 1440.7 L1784.97 1441.51 L1788.21 1442.25 L1791.45 1442.92 L1794.69 1443.52 L1797.93 1444.04 L1801.18 1444.5 L1804.42 1444.88 L1807.66 1445.2 L1810.9 1445.44 L1814.14 1445.6 L1817.38 1445.7 L1820.62 1445.72 L1823.87 1445.66 L1827.11 1445.53 L1830.35 1445.33 L1833.59 1445.06 L1836.83 1444.71 L1840.07 1444.28 L1843.31 1443.78 L1846.55 1443.21 L1849.8 1442.56 L1853.04 1441.83 L1856.28 1441.03 L1859.52 1440.16 L1862.76 1439.21 L1866 1438.18 L1869.24 1437.08 L1872.49 1435.9 L1875.73 1434.64 L1878.97 1433.32 L1882.21 1431.91 L1885.45 1430.43 L1888.69 1428.87 L1891.93 1427.24 L1895.18 1425.53 L1898.42 1423.75 L1901.66 1421.89 L1904.9 1419.95 L1908.14 1417.94 L1911.38 1415.85 L1914.62 1413.69 L1917.87 1411.46 L1921.11 1409.15 L1924.35 1406.77 L1927.59 1404.31 L1930.83 1401.78 L1934.07 1399.18 L1937.31 1396.5 L1940.56 1393.76 L1943.8 1390.94 L1947.04 1388.05 L1950.28 1385.1 L1953.52 1382.07 L1956.76 1378.98 L1960 1375.83 L1963.24 1372.61 L1966.49 1369.33 L1969.73 1365.98 L1972.97 1362.58 L1976.21 1359.12 L1979.45 1355.6 L1982.69 1352.03 L1985.93 1348.41 L1989.18 1344.74 L1992.42 1341.03 L1995.66 1337.27 L1998.9 1333.47 L2002.14 1329.63 L2005.38 1325.76 L2008.62 1321.85 L2011.87 1317.92 L2015.11 1313.97 L2018.35 1310 L2021.59 1306.01 L2024.83 1302.01 L2028.07 1298.01 L2031.31 1294 L2034.56 1289.99 L2037.8 1285.98 L2041.04 1281.99 L2044.28 1278.01 L2047.52 1274.04 L2050.76 1270.09 L2054 1266.15 L2057.24 1262.23 L2060.49 1258.32 L2063.73 1254.42 L2066.97 1250.53 L2070.21 1246.65 L2073.45 1242.77 L2076.69 1238.9 L2079.93 1235.04 L2083.18 1231.18 L2086.42 1227.32 L2089.66 1223.47 L2092.9 1219.62 L2096.14 1215.78 L2099.38 1211.94 L2102.62 1208.1 L2105.87 1204.28 L2109.11 1200.46 L2112.35 1196.66 L2115.59 1192.87 L2118.83 1189.09 L2122.07 1185.34 L2125.31 1181.62 L2128.56 1177.92 L2131.8 1174.25 L2135.04 1170.63 L2138.28 1167.05 L2141.52 1163.52 L2144.76 1160.05 L2148 1156.64 L2151.25 1153.3 L2154.49 1150.04 L2157.73 1146.87 L2160.97 1143.79 L2164.21 1140.81 L2167.45 1137.95 L2170.69 1135.2 L2173.93 1132.59 L2177.18 1130.11 L2180.42 1127.78 L2183.66 1125.61 L2186.9 1123.61 L2190.14 1121.78 L2193.38 1120.14 L2196.62 1118.69 L2199.87 1117.42 L2203.11 1116.34 L2206.35 1115.42 L2209.59 1114.67 L2212.83 1114.08 L2216.07 1113.63 L2219.31 1113.32 L2222.56 1113.15 L2225.8 1113.1 L2229.04 1113.17 L2232.28 1113.35 L2235.52 1113.63 L2238.76 1114.01 L2242 1114.48 L2245.25 1115.04 L2248.49 1115.67 L2251.73 1116.38 L2254.97 1117.16 L2258.21 1118.01 L2261.45 1118.91 L2264.69 1119.86 L2267.94 1120.87 L2271.18 1121.92 L2274.42 1123.02 L2277.66 1124.15 L2280.9 1125.32 L2284.14 1126.52 L2287.38 1127.75 L2290.62 1129 L2290.62 513.173 L2287.38 517.65 L2284.14 522.175 L2280.9 526.747 L2277.66 531.364 L2274.42 536.025 L2271.18 540.728 L2267.94 545.471 L2264.69 550.252 L2261.45 555.069 L2258.21 559.918 L2254.97 564.799 L2251.73 569.707 L2248.49 574.639 L2245.25 579.593 L2242 584.564 L2238.76 589.55 L2235.52 594.546 L2232.28 599.548 L2229.04 604.552 L2225.8 609.553 L2222.56 614.548 L2219.31 619.53 L2216.07 624.495 L2212.83 629.438 L2209.59 634.354 L2206.35 639.237 L2203.11 644.083 L2199.87 648.885 L2196.62 653.639 L2193.38 658.339 L2190.14 662.983 L2186.9 667.571 L2183.66 672.106 L2180.42 676.592 L2177.18 681.03 L2173.93 685.425 L2170.69 689.779 L2167.45 694.094 L2164.21 698.375 L2160.97 702.624 L2157.73 706.843 L2154.49 711.033 L2151.25 715.199 L2148 719.339 L2144.76 723.457 L2141.52 727.553 L2138.28 731.628 L2135.04 735.681 L2131.8 739.713 L2128.56 743.722 L2125.31 747.708 L2122.07 751.669 L2118.83 755.603 L2115.59 759.508 L2112.35 763.38 L2109.11 767.216 L2105.87 771.012 L2102.62 774.765 L2099.38 778.468 L2096.14 782.117 L2092.9 785.707 L2089.66 789.231 L2086.42 792.682 L2083.18 796.054 L2079.93 799.339 L2076.69 802.53 L2073.45 805.619 L2070.21 808.596 L2066.97 811.455 L2063.73 814.186 L2060.49 816.779 L2057.24 819.226 L2054 821.517 L2050.76 823.643 L2047.52 825.594 L2044.28 827.36 L2041.04 828.936 L2037.8 830.328 L2034.56 831.546 L2031.31 832.6 L2028.07 833.499 L2024.83 834.253 L2021.59 834.873 L2018.35 835.366 L2015.11 835.743 L2011.87 836.012 L2008.62 836.183 L2005.38 836.263 L2002.14 836.26 L1998.9 836.184 L1995.66 836.04 L1992.42 835.838 L1989.18 835.583 L1985.93 835.283 L1982.69 834.944 L1979.45 834.572 L1976.21 834.173 L1972.97 833.753 L1969.73 833.318 L1966.49 832.872 L1963.24 832.421 L1960 831.968 L1956.76 831.52 L1953.52 831.079 L1950.28 830.651 L1947.04 830.238 L1943.8 829.845 L1940.56 829.474 L1937.31 829.13 L1934.07 828.816 L1930.83 828.533 L1927.59 828.286 L1924.35 828.077 L1921.11 827.908 L1917.87 827.781 L1914.62 827.699 L1911.38 827.665 L1908.14 827.679 L1904.9 827.743 L1901.66 827.861 L1898.42 828.032 L1895.18 828.259 L1891.93 828.543 L1888.69 828.885 L1885.45 829.286 L1882.21 829.748 L1878.97 830.272 L1875.73 830.858 L1872.49 831.507 L1869.24 832.22 L1866 832.998 L1862.76 833.841 L1859.52 834.749 L1856.28 835.724 L1853.04 836.765 L1849.8 837.872 L1846.55 839.046 L1843.31 840.287 L1840.07 841.595 L1836.83 842.968 L1833.59 844.409 L1830.35 845.915 L1827.11 847.487 L1823.87 849.124 L1820.62 850.826 L1817.38 852.592 L1814.14 854.421 L1810.9 856.312 L1807.66 858.265 L1804.42 860.279 L1801.18 862.352 L1797.93 864.483 L1794.69 866.67 L1791.45 868.913 L1788.21 871.21 L1784.97 873.559 L1781.73 875.958 L1778.49 878.405 L1775.24 880.898 L1772 883.436 L1768.76 886.015 L1765.52 888.633 L1762.28 891.288 L1759.04 893.977 L1755.8 896.696 L1752.55 899.443 L1749.31 902.215 L1746.07 905.007 L1742.83 907.816 L1739.59 910.638 L1736.35 913.469 L1733.11 916.306 L1729.87 919.142 L1726.62 921.974 L1723.38 924.797 L1720.14 927.605 L1716.9 930.393 L1713.66 933.156 L1710.42 935.887 L1707.18 938.58 L1703.93 941.229 L1700.69 943.827 L1697.45 946.368 L1694.21 948.844 L1690.97 951.249 L1687.73 953.574 L1684.49 955.812 L1681.24 957.956 L1678 959.997 L1674.76 961.928 L1671.52 963.74 L1668.28 965.428 L1665.04 966.996 L1661.8 968.45 L1658.55 969.796 L1655.31 971.041 L1652.07 972.191 L1648.83 973.252 L1645.59 974.228 L1642.35 975.126 L1639.11 975.951 L1635.86 976.706 L1632.62 977.398 L1629.38 978.028 L1626.14 978.602 L1622.9 979.121 L1619.66 979.589 L1616.42 980.007 L1613.18 980.376 L1609.93 980.699 L1606.69 980.973 L1603.45 981.2 L1600.21 981.378 L1596.97 981.505 L1593.73 981.58 L1590.49 981.598 L1587.24 981.556 L1584 981.449 L1580.76 981.272 L1577.52 981.019 L1574.28 980.683 L1571.04 980.255 L1567.8 979.727 L1564.55 979.09 L1561.31 978.334 L1558.07 977.448 L1554.83 976.42 L1551.59 975.239 L1548.35 973.892 L1545.11 972.373 L1541.86 970.677 L1538.62 968.797 L1535.38 966.727 L1532.14 964.46 L1528.9 961.992 L1525.66 959.325 L1522.42 956.465 L1519.18 953.417 L1515.93 950.185 L1512.69 946.774 L1509.45 943.187 L1506.21 939.427 L1502.97 935.497 L1499.73 931.4 L1496.49 927.137 L1493.24 922.71 L1490 918.121 L1486.76 913.376 L1483.52 908.489 L1480.28 903.477 L1477.04 898.354 L1473.8 893.136 L1470.55 887.837 L1467.31 882.47 L1464.07 877.049 L1460.83 871.586 L1457.59 866.091 L1454.35 860.575 L1451.11 855.047 L1447.86 849.517 L1444.62 843.992 L1441.38 838.478 L1438.14 832.983 L1434.9 827.511 L1431.66 822.068 L1428.42 816.658 L1425.17 811.284 L1421.93 805.95 L1418.69 800.659 L1415.45 795.411 L1412.21 790.21 L1408.97 785.057 L1405.73 779.953 L1402.49 774.902 L1399.24 769.908 L1396 764.974 L1392.76 760.104 L1389.52 755.301 L1386.28 750.566 L1383.04 745.902 L1379.8 741.312 L1376.55 736.796 L1373.31 732.355 L1370.07 727.99 L1366.83 723.701 L1363.59 719.488 L1360.35 715.351 L1357.11 711.288 L1353.86 707.298 L1350.62 703.379 L1347.38 699.528 L1344.14 695.744 L1340.9 692.022 L1337.66 688.36 L1334.42 684.754 L1331.17 681.2 L1327.93 677.692 L1324.69 674.227 L1321.45 670.799 L1318.21 667.402 L1314.97 664.03 L1311.73 660.678 L1308.48 657.34 L1305.24 654.007 L1302 650.675 L1298.76 647.338 L1295.52 643.996 L1292.28 640.653 L1289.04 637.309 L1285.8 633.968 L1282.55 630.63 L1279.31 627.297 L1276.07 623.971 L1272.83 620.652 L1269.59 617.339 L1266.35 614.034 L1263.11 610.735 L1259.86 607.442 L1256.62 604.152 L1253.38 600.864 L1250.14 597.575 L1246.9 594.283 L1243.66 590.982 L1240.42 587.67 L1237.17 584.341 L1233.93 580.99 L1230.69 577.611 L1227.45 574.198 L1224.21 570.743 L1220.97 567.239 L1217.73 563.679 L1214.48 560.052 L1211.24 556.351 L1208 552.565 L1204.76 548.686 L1201.52 544.703 L1198.28 540.606 L1195.04 536.384 L1191.8 532.029 L1188.55 527.539 L1185.31 522.912 L1182.07 518.148 L1178.83 513.25 L1175.59 508.225 L1172.35 503.086 L1169.11 497.843 L1165.86 492.507 L1162.62 487.088 L1159.38 481.597 L1156.14 476.044 L1152.9 470.438 L1149.66 464.787 L1146.42 459.101 L1143.17 453.388 L1139.93 447.653 L1136.69 441.905 L1133.45 436.15 L1130.21 430.393 L1126.97 424.64 L1123.73 418.894 L1120.48 413.16 L1117.24 407.442 L1114 401.743 L1110.76 396.065 L1107.52 390.411 L1104.28 384.781 L1101.04 379.177 L1097.79 373.601 L1094.55 368.052 L1091.31 362.53 L1088.07 357.036 L1084.83 351.569 L1081.59 346.127 L1078.35 340.712 L1075.11 335.32 L1071.86 329.953 L1068.62 324.615 L1065.38 319.31 L1062.14 314.045 L1058.9 308.823 L1055.66 303.65 L1052.42 298.531 L1049.17 293.469 L1045.93 288.469 L1042.69 283.535 L1039.45 278.67 L1036.21 273.878 L1032.97 269.16 L1029.73 264.521 L1026.48 259.961 L1023.24 255.484 L1020 251.089 L1016.76 246.78 L1013.52 242.556 L1010.28 238.418 L1007.04 234.367 L1003.79 230.402 L1000.55 226.522 L997.312 222.728 L994.071 219.018 L990.829 215.39 L987.588 211.844 L984.346 208.377 L981.105 204.988 L977.864 201.673 L974.622 198.431 L971.381 195.26 L968.139 192.157 L964.898 189.124 L961.657 186.166 L958.415 183.284 L955.174 180.481 L951.933 177.76 L948.691 175.123 L945.45 172.572 L942.208 170.108 L938.967 167.732 L935.726 165.445 L932.484 163.248 L929.243 161.139 L926.001 159.119 L922.76 157.185 L919.519 155.337 L916.277 153.571 L913.036 151.884 L909.795 150.273 L906.553 148.734 L903.312 147.261 L900.07 145.849 L896.829 144.491 L893.588 143.181 L890.346 141.912 L887.105 140.674 L883.863 139.46 L880.622 138.26 L877.381 137.065 L874.139 135.865 L870.898 134.65 L867.657 133.41 L864.415 132.138 L861.174 130.832 L857.932 129.498 L854.691 128.139 L851.45 126.761 L848.208 125.369 L844.967 123.969 L841.725 122.566 L838.484 121.167 L835.243 119.781 L832.001 118.416 L828.76 117.079 L825.519 115.776 L822.277 114.515 L819.036 113.301 L815.794 112.139 L812.553 111.034 L809.312 109.988 L806.07 109.004 L802.829 108.085 L799.587 107.232 L796.346 106.444 L793.105 105.722 L789.863 105.065 L786.622 104.469 L783.381 103.934 L780.139 103.455 L776.898 103.028 L773.656 102.649 L770.415 102.311 L767.174 102.01 L763.932 101.737 L760.691 101.488 L757.449 101.252 L754.208 101.024 L750.967 100.795 L747.725 100.555 L744.484 100.297 L741.242 100.012 L738.001 99.6912 L734.76 99.327 L731.518 98.9156 L728.277 98.454 L725.036 97.9414 L721.794 97.3839 L718.553 96.7894 L715.311 96.166 L712.07 95.5217 L708.829 94.8642 L705.587 94.2014 L702.346 93.5407 L699.104 92.8893 L695.863 92.2541 L692.622 91.6418 L689.38 91.0586 L686.139 90.5106 L682.898 90.0033 L679.656 89.542 L676.415 89.1316 L673.173 88.7769 L669.932 88.482 L666.691 88.251 L663.449 88.0875 L660.208 87.9949 L656.966 87.9763 L653.725 88.0345 L650.484 88.1721 L647.242 88.3914 L644.001 88.6944 L640.76 89.0828 L637.518 89.5583 L634.277 90.1221 L631.035 90.7754 L627.794 91.5191 L624.553 92.3536 L621.311 93.2796 L618.07 94.297 L614.828 95.4061 L611.587 96.6064 L608.346 97.8975 L605.104 99.2786 L601.863 100.749 L598.622 102.307 L595.38 103.952 L592.139 105.681 L588.897 107.493 L585.656 109.385 L582.415 111.356 L579.173 113.401 L575.932 115.518 L572.69 117.703 L569.449 119.952 L566.208 122.261 L562.966 124.626 L559.725 127.04 L556.484 129.5 L553.242 131.997 L550.001 134.527 L546.759 137.083 L543.518 139.656 L540.277 142.239 L537.035 144.824 L533.794 147.403 L530.552 149.964 L527.311 152.501 L524.07 155.001 L520.828 157.454 L517.587 159.851 L514.346 162.179 L511.104 164.428 L507.863 166.587 L504.621 168.643 L501.38 170.589 L498.139 172.418 L494.897 174.127 L491.656 175.712 L488.414 177.172 L485.173 178.503 L481.932 179.703 L478.69 180.769 L475.449 181.7 L472.208 182.494 L468.966 183.15 L465.725 183.668 L462.483 184.056 L459.242 184.321 L456.001 184.472 L452.759 184.518 L449.518 184.466 L446.276 184.327 L443.035 184.106 L439.794 183.813 L436.552 183.455 L433.311 183.038 L430.069 182.57 L426.828 182.057 L423.587 181.505 L420.345 180.921 L417.104 180.308 L413.863 179.673 L410.621 179.019 L407.38 178.352 L404.138 177.675 L400.897 176.992 L397.656 176.306 L394.414 175.62 L391.173 174.938 L387.931 174.261 L384.69 173.593 L381.449 172.936 L378.207 172.29 L374.966 171.659 L371.725 171.044 L368.483 170.446 L365.242 169.866 L362 169.306 L358.759 168.767 L355.518 168.249 L352.276 167.754 L349.035 167.282 L345.793 166.833 L342.552 166.408 L339.311 166.008 L336.069 165.632 L332.828 165.282 L329.587 164.956 L326.345 164.656 L323.104 164.381 L319.862 164.132 L316.621 163.908 L313.38 163.709 L310.138 163.536 L306.897 163.387 L303.655 163.264 L300.414 163.165 L297.173 163.09 L293.931 163.039 L290.69 163.012 L287.449 163.009 L284.207 163.029 L280.966 163.071 L277.724 163.136 L274.483 163.223 L271.242 163.332 L268 163.462 L264.759 163.613 L261.517 163.784 L258.276 163.976 L255.035 164.187  Z" fill="#3da44d" fill-rule="evenodd" fill-opacity="0.1"/>
<polyline clip-path="url(#clip042)" style="stroke:#3da44d; stroke-linecap:round; stroke-linejoin:round; stroke-width:8; stroke-opacity:1; fill:none" points="255.035,549.972 258.276,547.696 261.517,545.404 264.759,543.095 268,540.771 271.242,538.431 274.483,536.075 277.724,533.704 280.966,531.318 284.207,528.916 287.449,526.5 290.69,524.069 293.931,521.624 297.173,519.165 300.414,516.691 303.655,514.204 306.897,511.704 310.138,509.19 313.38,506.664 316.621,504.125 319.862,501.574 323.104,499.012 326.345,496.438 329.587,493.852 332.828,491.257 336.069,488.651 339.311,486.035 342.552,483.41 345.793,480.776 349.035,478.134 352.276,475.484 355.518,472.827 358.759,470.163 362,467.492 365.242,464.817 368.483,462.136 371.725,459.451 374.966,456.762 378.207,454.07 381.449,451.376 384.69,448.681 387.931,445.985 391.173,443.289 394.414,440.593 397.656,437.9 400.897,435.209 404.138,432.522 407.38,429.839 410.621,427.162 413.863,424.491 417.104,421.828 420.345,419.173 423.587,416.528 426.828,413.894 430.069,411.272 433.311,408.664 436.552,406.07 439.794,403.491 443.035,400.93 446.276,398.388 449.518,395.865 452.759,393.364 456.001,390.886 459.242,388.433 462.483,386.005 465.725,383.606 468.966,381.236 472.208,378.898 475.449,376.591 478.69,374.316 481.932,372.074 485.173,369.866 488.414,367.691 491.656,365.551 494.897,363.447 498.139,361.379 501.38,359.348 504.621,357.355 507.863,355.401 511.104,353.484 514.346,351.602 517.587,349.754 520.828,347.939 524.07,346.154 527.311,344.398 530.552,342.67 533.794,340.968 537.035,339.291 540.277,337.637 543.518,336.006 546.759,334.396 550.001,332.806 553.242,331.235 556.484,329.682 559.725,328.146 562.966,326.626 566.208,325.12 569.449,323.629 572.69,322.152 575.932,320.687 579.173,319.234 582.415,317.792 585.656,316.36 588.897,314.939 592.139,313.528 595.38,312.125 598.622,310.731 601.863,309.345 605.104,307.968 608.346,306.597 611.587,305.235 614.828,303.879 618.07,302.53 621.311,301.188 624.553,299.853 627.794,298.525 631.035,297.203 634.277,295.888 637.518,294.58 640.76,293.279 644.001,291.986 647.242,290.7 650.484,289.422 653.725,288.152 656.966,286.89 660.208,285.638 663.449,284.395 666.691,283.162 669.932,281.939 673.173,280.728 676.415,279.529 679.656,278.342 682.898,277.168 686.139,276.009 689.38,274.865 692.622,273.737 695.863,272.625 699.104,271.532 702.346,270.458 705.587,269.404 708.829,268.372 712.07,267.363 715.311,266.377 718.553,265.417 721.794,264.484 725.036,263.579 728.277,262.704 731.518,261.861 734.76,261.053 738.001,260.283 741.242,259.554 744.484,258.867 747.725,258.222 750.967,257.619 754.208,257.059 757.449,256.543 760.691,256.071 763.932,255.643 767.174,255.26 770.415,254.923 773.656,254.633 776.898,254.391 780.139,254.198 783.381,254.055 786.622,253.962 789.863,253.922 793.105,253.935 796.346,254.003 799.587,254.128 802.829,254.31 806.07,254.552 809.312,254.855 812.553,255.221 815.794,255.652 819.036,256.149 822.277,256.715 825.519,257.353 828.76,258.063 832.001,258.848 835.243,259.711 838.484,260.655 841.725,261.681 844.967,262.793 848.208,263.992 851.45,265.278 854.691,266.649 857.932,268.105 861.174,269.643 864.415,271.263 867.657,272.963 870.898,274.739 874.139,276.589 877.381,278.512 880.622,280.506 883.863,282.57 887.105,284.702 890.346,286.902 893.588,289.168 896.829,291.499 900.07,293.895 903.312,296.354 906.553,298.876 909.795,301.461 913.036,304.107 916.277,306.814 919.519,309.582 922.76,312.41 926.001,315.299 929.243,318.247 932.484,321.255 935.726,324.322 938.967,327.45 942.208,330.637 945.45,333.884 948.691,337.191 951.933,340.559 955.174,343.988 958.415,347.479 961.657,351.031 964.898,354.646 968.139,358.324 971.381,362.067 974.622,365.873 977.864,369.743 981.105,373.673 984.346,377.663 987.588,381.709 990.829,385.811 994.071,389.967 997.312,394.175 1000.55,398.433 1003.79,402.74 1007.04,407.094 1010.28,411.495 1013.52,415.94 1016.76,420.429 1020,424.96 1023.24,429.533 1026.48,434.145 1029.73,438.796 1032.97,443.486 1036.21,448.212 1039.45,452.975 1042.69,457.773 1045.93,462.605 1049.17,467.471 1052.42,472.37 1055.66,477.302 1058.9,482.265 1062.14,487.26 1065.38,492.285 1068.62,497.34 1071.86,502.426 1075.11,507.54 1078.35,512.683 1081.59,517.853 1084.83,523.046 1088.07,528.259 1091.31,533.49 1094.55,538.737 1097.79,543.996 1101.04,549.265 1104.28,554.541 1107.52,559.822 1110.76,565.105 1114,570.388 1117.24,575.668 1120.48,580.942 1123.73,586.208 1126.97,591.464 1130.21,596.707 1133.45,601.934 1136.69,607.144 1139.93,612.333 1143.17,617.499 1146.42,622.64 1149.66,627.754 1152.9,632.837 1156.14,637.887 1159.38,642.902 1162.62,647.879 1165.86,652.816 1169.11,657.711 1172.35,662.56 1175.59,667.361 1178.83,672.111 1182.07,676.809 1185.31,681.451 1188.55,686.039 1191.8,690.571 1195.04,695.05 1198.28,699.476 1201.52,703.849 1204.76,708.172 1208,712.447 1211.24,716.676 1214.48,720.859 1217.73,724.999 1220.97,729.097 1224.21,733.155 1227.45,737.174 1230.69,741.156 1233.93,745.103 1237.17,749.015 1240.42,752.895 1243.66,756.743 1246.9,760.562 1250.14,764.353 1253.38,768.117 1256.62,771.856 1259.86,775.57 1263.11,779.262 1266.35,782.932 1269.59,786.583 1272.83,790.214 1276.07,793.829 1279.31,797.427 1282.55,801.01 1285.8,804.58 1289.04,808.138 1292.28,811.685 1295.52,815.221 1298.76,818.75 1302,822.271 1305.24,825.785 1308.48,829.296 1311.73,832.803 1314.97,836.309 1318.21,839.814 1321.45,843.322 1324.69,846.833 1327.93,850.349 1331.17,853.871 1334.42,857.401 1337.66,860.94 1340.9,864.491 1344.14,868.053 1347.38,871.63 1350.62,875.223 1353.86,878.832 1357.11,882.46 1360.35,886.108 1363.59,889.778 1366.83,893.47 1370.07,897.188 1373.31,900.932 1376.55,904.703 1379.8,908.504 1383.04,912.335 1386.28,916.199 1389.52,920.097 1392.76,924.03 1396,928 1399.24,932.009 1402.49,936.058 1405.73,940.149 1408.97,944.283 1412.21,948.462 1415.45,952.681 1418.69,956.938 1421.93,961.23 1425.17,965.551 1428.42,969.9 1431.66,974.271 1434.9,978.662 1438.14,983.068 1441.38,987.487 1444.62,991.914 1447.86,996.346 1451.11,1000.78 1454.35,1005.21 1457.59,1009.63 1460.83,1014.05 1464.07,1018.44 1467.31,1022.83 1470.55,1027.18 1473.8,1031.52 1477.04,1035.82 1480.28,1040.09 1483.52,1044.32 1486.76,1048.51 1490,1052.66 1493.24,1056.75 1496.49,1060.8 1499.73,1064.79 1502.97,1068.73 1506.21,1072.6 1509.45,1076.42 1512.69,1080.17 1515.93,1083.84 1519.18,1087.45 1522.42,1090.97 1525.66,1094.42 1528.9,1097.77 1532.14,1101.04 1535.38,1104.22 1538.62,1107.31 1541.86,1110.3 1545.11,1113.21 1548.35,1116.04 1551.59,1118.77 1554.83,1121.43 1558.07,1124 1561.31,1126.5 1564.55,1128.91 1567.8,1131.25 1571.04,1133.52 1574.28,1135.72 1577.52,1137.84 1580.76,1139.89 1584,1141.87 1587.24,1143.79 1590.49,1145.64 1593.73,1147.42 1596.97,1149.14 1600.21,1150.79 1603.45,1152.38 1606.69,1153.91 1609.93,1155.38 1613.18,1156.79 1616.42,1158.13 1619.66,1159.42 1622.9,1160.64 1626.14,1161.81 1629.38,1162.92 1632.62,1163.96 1635.86,1164.95 1639.11,1165.88 1642.35,1166.75 1645.59,1167.56 1648.83,1168.32 1652.07,1169.01 1655.31,1169.64 1658.55,1170.21 1661.8,1170.72 1665.04,1171.17 1668.28,1171.56 1671.52,1171.88 1674.76,1172.14 1678,1172.34 1681.24,1172.48 1684.49,1172.56 1687.73,1172.59 1690.97,1172.57 1694.21,1172.5 1697.45,1172.38 1700.69,1172.21 1703.93,1172.01 1707.18,1171.76 1710.42,1171.47 1713.66,1171.15 1716.9,1170.79 1720.14,1170.39 1723.38,1169.96 1726.62,1169.51 1729.87,1169.02 1733.11,1168.5 1736.35,1167.96 1739.59,1167.4 1742.83,1166.81 1746.07,1166.2 1749.31,1165.57 1752.55,1164.91 1755.8,1164.24 1759.04,1163.55 1762.28,1162.85 1765.52,1162.13 1768.76,1161.39 1772,1160.65 1775.24,1159.89 1778.49,1159.11 1781.73,1158.33 1784.97,1157.53 1788.21,1156.73 1791.45,1155.92 1794.69,1155.09 1797.93,1154.26 1801.18,1153.43 1804.42,1152.58 1807.66,1151.73 1810.9,1150.87 1814.14,1150.01 1817.38,1149.14 1820.62,1148.27 1823.87,1147.39 1827.11,1146.51 1830.35,1145.62 1833.59,1144.73 1836.83,1143.84 1840.07,1142.94 1843.31,1142.03 1846.55,1141.13 1849.8,1140.21 1853.04,1139.3 1856.28,1138.38 1859.52,1137.45 1862.76,1136.52 1866,1135.59 1869.24,1134.65 1872.49,1133.7 1875.73,1132.75 1878.97,1131.79 1882.21,1130.83 1885.45,1129.86 1888.69,1128.88 1891.93,1127.89 1895.18,1126.89 1898.42,1125.89 1901.66,1124.87 1904.9,1123.85 1908.14,1122.81 1911.38,1121.76 1914.62,1120.7 1917.87,1119.62 1921.11,1118.53 1924.35,1117.42 1927.59,1116.3 1930.83,1115.16 1934.07,1114 1937.31,1112.82 1940.56,1111.61 1943.8,1110.39 1947.04,1109.15 1950.28,1107.87 1953.52,1106.58 1956.76,1105.25 1960,1103.9 1963.24,1102.51 1966.49,1101.1 1969.73,1099.65 1972.97,1098.17 1976.21,1096.65 1979.45,1095.09 1982.69,1093.49 1985.93,1091.85 1989.18,1090.16 1992.42,1088.43 1995.66,1086.65 1998.9,1084.82 2002.14,1082.94 2005.38,1081.01 2008.62,1079.02 2011.87,1076.97 2015.11,1074.86 2018.35,1072.68 2021.59,1070.44 2024.83,1068.13 2028.07,1065.75 2031.31,1063.3 2034.56,1060.77 2037.8,1058.16 2041.04,1055.46 2044.28,1052.68 2047.52,1049.82 2050.76,1046.87 2054,1043.83 2057.24,1040.73 2060.49,1037.55 2063.73,1034.3 2066.97,1030.99 2070.21,1027.62 2073.45,1024.2 2076.69,1020.72 2079.93,1017.19 2083.18,1013.62 2086.42,1010 2089.66,1006.35 2092.9,1002.66 2096.14,998.947 2099.38,995.203 2102.62,991.434 2105.87,987.645 2109.11,983.839 2112.35,980.018 2115.59,976.187 2118.83,972.349 2122.07,968.506 2125.31,964.662 2128.56,960.82 2131.8,956.984 2135.04,953.155 2138.28,949.339 2141.52,945.537 2144.76,941.753 2148,937.989 2151.25,934.25 2154.49,930.538 2157.73,926.855 2160.97,923.207 2164.21,919.594 2167.45,916.021 2170.69,912.491 2173.93,909.007 2177.18,905.571 2180.42,902.187 2183.66,898.859 2186.9,895.589 2190.14,892.381 2193.38,889.238 2196.62,886.162 2199.87,883.153 2203.11,880.21 2206.35,877.331 2209.59,874.514 2212.83,871.758 2216.07,869.063 2219.31,866.427 2222.56,863.848 2225.8,861.326 2229.04,858.859 2232.28,856.447 2235.52,854.087 2238.76,851.779 2242,849.522 2245.25,847.315 2248.49,845.156 2251.73,843.045 2254.97,840.981 2258.21,838.962 2261.45,836.988 2264.69,835.058 2267.94,833.171 2271.18,831.325 2274.42,829.521 2277.66,827.757 2280.9,826.033 2284.14,824.346 2287.38,822.698 2290.62,821.087 "/>
<polyline clip-path="url(#clip042)" style="stroke:#c271d2; stroke-linecap:round; stroke-linejoin:round; stroke-width:12; stroke-opacity:1; fill:none" points="255.035,810.181 362.225,668.28 469.416,514.353 576.607,458.864 683.797,402.776 790.988,354.174 898.179,391.935 1005.37,521.221 1112.56,681.908 1219.75,836.597 1326.94,965.72 1434.13,1079.74 1541.32,1203.86 1648.51,1299.7 1755.7,1344.68 1862.89,1340.64 1970.09,1278.99 2077.28,1167.21 2184.47,1051.19 2291.66,1028.88 "/>
<polyline clip-path="url(#clip042)" style="stroke:#ac8d18; stroke-linecap:round; stroke-linejoin:round; stroke-width:12; stroke-opacity:1; fill:none" points="255.035,289.764 362.225,266.334 469.416,247.467 576.607,181.902 683.797,150.914 790.988,153.667 898.179,193.042 1005.37,288.478 1112.56,454.168 1219.75,618.529 1326.94,732.825 1434.13,875.502 1541.32,1015.76 1648.51,1036.79 1755.7,983.844 1862.89,932.33 1970.09,919.992 2077.28,872.964 2184.47,744.89 2291.66,612.283 "/>
<path clip-path="url(#clip040)" d="M1953.46 406.258 L2280.8 406.258 L2280.8 95.2176 L1953.46 95.2176  Z" fill="#ffffff" fill-rule="evenodd" fill-opacity="1"/>
<polyline clip-path="url(#clip040)" style="stroke:#000000; stroke-linecap:round; stroke-linejoin:round; stroke-width:4; stroke-opacity:1; fill:none" points="1953.46,406.258 2280.8,406.258 2280.8,95.2176 1953.46,95.2176 1953.46,406.258 "/>
<polyline clip-path="url(#clip040)" style="stroke:#009af9; stroke-linecap:round; stroke-linejoin:round; stroke-width:4; stroke-opacity:1; fill:none" points="1977.44,147.058 2121.36,147.058 "/>
<path clip-path="url(#clip040)" d="M2152.76 131.051 L2152.76 138.412 L2161.53 138.412 L2161.53 141.722 L2152.76 141.722 L2152.76 155.796 Q2152.76 158.967 2153.61 159.87 Q2154.49 160.773 2157.16 160.773 L2161.53 160.773 L2161.53 164.338 L2157.16 164.338 Q2152.23 164.338 2150.35 162.509 Q2148.48 160.657 2148.48 155.796 L2148.48 141.722 L2145.35 141.722 L2145.35 138.412 L2148.48 138.412 L2148.48 131.051 L2152.76 131.051 Z" fill="#000000" fill-rule="nonzero" fill-opacity="1" /><path clip-path="url(#clip040)" d="M2182.16 142.393 Q2181.44 141.977 2180.58 141.791 Q2179.75 141.583 2178.73 141.583 Q2175.12 141.583 2173.17 143.944 Q2171.25 146.282 2171.25 150.68 L2171.25 164.338 L2166.97 164.338 L2166.97 138.412 L2171.25 138.412 L2171.25 142.44 Q2172.6 140.078 2174.75 138.944 Q2176.9 137.787 2179.98 137.787 Q2180.42 137.787 2180.95 137.856 Q2181.48 137.903 2182.13 138.018 L2182.16 142.393 Z" fill="#000000" fill-rule="nonzero" fill-opacity="1" /><path clip-path="url(#clip040)" d="M2186.18 154.106 L2186.18 138.412 L2190.44 138.412 L2190.44 153.944 Q2190.44 157.625 2191.88 159.476 Q2193.31 161.305 2196.18 161.305 Q2199.63 161.305 2201.62 159.106 Q2203.64 156.907 2203.64 153.111 L2203.64 138.412 L2207.9 138.412 L2207.9 164.338 L2203.64 164.338 L2203.64 160.356 Q2202.09 162.717 2200.03 163.875 Q2197.99 165.009 2195.28 165.009 Q2190.81 165.009 2188.5 162.231 Q2186.18 159.453 2186.18 154.106 M2196.9 137.787 L2196.9 137.787 Z" fill="#000000" fill-rule="nonzero" fill-opacity="1" /><path clip-path="url(#clip040)" d="M2220.88 131.051 L2220.88 138.412 L2229.66 138.412 L2229.66 141.722 L2220.88 141.722 L2220.88 155.796 Q2220.88 158.967 2221.74 159.87 Q2222.62 160.773 2225.28 160.773 L2229.66 160.773 L2229.66 164.338 L2225.28 164.338 Q2220.35 164.338 2218.48 162.509 Q2216.6 160.657 2216.6 155.796 L2216.6 141.722 L2213.48 141.722 L2213.48 138.412 L2216.6 138.412 L2216.6 131.051 L2220.88 131.051 Z" fill="#000000" fill-rule="nonzero" fill-opacity="1" /><path clip-path="url(#clip040)" d="M2256.81 148.689 L2256.81 164.338 L2252.55 164.338 L2252.55 148.828 Q2252.55 145.148 2251.11 143.319 Q2249.68 141.49 2246.81 141.49 Q2243.36 141.49 2241.37 143.69 Q2239.38 145.889 2239.38 149.685 L2239.38 164.338 L2235.1 164.338 L2235.1 128.319 L2239.38 128.319 L2239.38 142.44 Q2240.91 140.102 2242.97 138.944 Q2245.05 137.787 2247.76 137.787 Q2252.23 137.787 2254.52 140.565 Q2256.81 143.319 2256.81 148.689 Z" fill="#000000" fill-rule="nonzero" fill-opacity="1" /><circle clip-path="url(#clip040)" cx="2049.4" cy="198.898" r="20.48" fill="#e26f46" fill-rule="evenodd" fill-opacity="1" stroke="#000000" stroke-opacity="1" stroke-width="4.55111"/>
<path clip-path="url(#clip040)" d="M2164.26 194.187 L2164.26 180.159 L2168.52 180.159 L2168.52 216.178 L2164.26 216.178 L2164.26 212.289 Q2162.92 214.603 2160.86 215.738 Q2158.82 216.849 2155.95 216.849 Q2151.25 216.849 2148.29 213.099 Q2145.35 209.349 2145.35 203.238 Q2145.35 197.127 2148.29 193.377 Q2151.25 189.627 2155.95 189.627 Q2158.82 189.627 2160.86 190.761 Q2162.92 191.872 2164.26 194.187 M2149.75 203.238 Q2149.75 207.937 2151.67 210.622 Q2153.61 213.284 2156.99 213.284 Q2160.37 213.284 2162.32 210.622 Q2164.26 207.937 2164.26 203.238 Q2164.26 198.539 2162.32 195.877 Q2160.37 193.192 2156.99 193.192 Q2153.61 193.192 2151.67 195.877 Q2149.75 198.539 2149.75 203.238 Z" fill="#000000" fill-rule="nonzero" fill-opacity="1" /><path clip-path="url(#clip040)" d="M2189.08 203.145 Q2183.92 203.145 2181.92 204.326 Q2179.93 205.506 2179.93 208.354 Q2179.93 210.622 2181.42 211.965 Q2182.92 213.284 2185.49 213.284 Q2189.03 213.284 2191.16 210.784 Q2193.31 208.261 2193.31 204.094 L2193.31 203.145 L2189.08 203.145 M2197.57 201.386 L2197.57 216.178 L2193.31 216.178 L2193.31 212.242 Q2191.85 214.603 2189.68 215.738 Q2187.5 216.849 2184.36 216.849 Q2180.37 216.849 2178.01 214.627 Q2175.67 212.381 2175.67 208.631 Q2175.67 204.256 2178.59 202.034 Q2181.53 199.812 2187.34 199.812 L2193.31 199.812 L2193.31 199.395 Q2193.31 196.455 2191.37 194.858 Q2189.45 193.238 2185.95 193.238 Q2183.73 193.238 2181.62 193.77 Q2179.52 194.303 2177.57 195.367 L2177.57 191.432 Q2179.91 190.53 2182.11 190.09 Q2184.31 189.627 2186.39 189.627 Q2192.02 189.627 2194.79 192.543 Q2197.57 195.46 2197.57 201.386 Z" fill="#000000" fill-rule="nonzero" fill-opacity="1" /><path clip-path="url(#clip040)" d="M2210.56 182.891 L2210.56 190.252 L2219.33 190.252 L2219.33 193.562 L2210.56 193.562 L2210.56 207.636 Q2210.56 210.807 2211.42 211.71 Q2212.29 212.613 2214.96 212.613 L2219.33 212.613 L2219.33 216.178 L2214.96 216.178 Q2210.03 216.178 2208.15 214.349 Q2206.28 212.497 2206.28 207.636 L2206.28 193.562 L2203.15 193.562 L2203.15 190.252 L2206.28 190.252 L2206.28 182.891 L2210.56 182.891 Z" fill="#000000" fill-rule="nonzero" fill-opacity="1" /><path clip-path="url(#clip040)" d="M2236.72 203.145 Q2231.55 203.145 2229.56 204.326 Q2227.57 205.506 2227.57 208.354 Q2227.57 210.622 2229.05 211.965 Q2230.56 213.284 2233.13 213.284 Q2236.67 213.284 2238.8 210.784 Q2240.95 208.261 2240.95 204.094 L2240.95 203.145 L2236.72 203.145 M2245.21 201.386 L2245.21 216.178 L2240.95 216.178 L2240.95 212.242 Q2239.49 214.603 2237.32 215.738 Q2235.14 216.849 2231.99 216.849 Q2228.01 216.849 2225.65 214.627 Q2223.31 212.381 2223.31 208.631 Q2223.31 204.256 2226.23 202.034 Q2229.17 199.812 2234.98 199.812 L2240.95 199.812 L2240.95 199.395 Q2240.95 196.455 2239.01 194.858 Q2237.09 193.238 2233.59 193.238 Q2231.37 193.238 2229.26 193.77 Q2227.16 194.303 2225.21 195.367 L2225.21 191.432 Q2227.55 190.53 2229.75 190.09 Q2231.95 189.627 2234.03 189.627 Q2239.66 189.627 2242.43 192.543 Q2245.21 195.46 2245.21 201.386 Z" fill="#000000" fill-rule="nonzero" fill-opacity="1" /><polyline clip-path="url(#clip040)" style="stroke:#3da44d; stroke-linecap:round; stroke-linejoin:round; stroke-width:8; stroke-opacity:1; fill:none" points="1977.44,250.738 2121.36,250.738 "/>
<path clip-path="url(#clip040)" d="M2170.91 263.087 L2170.91 253.805 L2163.27 253.805 L2163.27 249.962 L2175.54 249.962 L2175.54 264.8 Q2172.83 266.721 2169.56 267.717 Q2166.3 268.689 2162.6 268.689 Q2154.49 268.689 2149.91 263.967 Q2145.35 259.221 2145.35 250.772 Q2145.35 242.3 2149.91 237.578 Q2154.49 232.833 2162.6 232.833 Q2165.98 232.833 2169.01 233.666 Q2172.06 234.499 2174.63 236.12 L2174.63 241.096 Q2172.04 238.897 2169.12 237.786 Q2166.21 236.675 2162.99 236.675 Q2156.65 236.675 2153.45 240.217 Q2150.28 243.758 2150.28 250.772 Q2150.28 257.763 2153.45 261.305 Q2156.65 264.846 2162.99 264.846 Q2165.47 264.846 2167.41 264.43 Q2169.36 263.99 2170.91 263.087 Z" fill="#000000" fill-rule="nonzero" fill-opacity="1" /><path clip-path="url(#clip040)" d="M2188.75 237.3 L2188.75 250.286 L2194.63 250.286 Q2197.9 250.286 2199.68 248.596 Q2201.46 246.907 2201.46 243.782 Q2201.46 240.68 2199.68 238.99 Q2197.9 237.3 2194.63 237.3 L2188.75 237.3 M2184.08 233.458 L2194.63 233.458 Q2200.44 233.458 2203.41 236.096 Q2206.39 238.712 2206.39 243.782 Q2206.39 248.897 2203.41 251.513 Q2200.44 254.129 2194.63 254.129 L2188.75 254.129 L2188.75 268.018 L2184.08 268.018 L2184.08 233.458 Z" fill="#000000" fill-rule="nonzero" fill-opacity="1" /><polyline clip-path="url(#clip040)" style="stroke:#c271d2; stroke-linecap:round; stroke-linejoin:round; stroke-width:12; stroke-opacity:1; fill:none" points="1977.44,302.578 2121.36,302.578 "/>
<path clip-path="url(#clip040)" d="M2150.03 289.14 L2150.03 302.126 L2155.91 302.126 Q2159.17 302.126 2160.95 300.436 Q2162.73 298.747 2162.73 295.622 Q2162.73 292.52 2160.95 290.83 Q2159.17 289.14 2155.91 289.14 L2150.03 289.14 M2145.35 285.298 L2155.91 285.298 Q2161.72 285.298 2164.68 287.936 Q2167.67 290.552 2167.67 295.622 Q2167.67 300.737 2164.68 303.353 Q2161.72 305.969 2155.91 305.969 L2150.03 305.969 L2150.03 319.858 L2145.35 319.858 L2145.35 285.298 Z" fill="#000000" fill-rule="nonzero" fill-opacity="1" /><path clip-path="url(#clip040)" d="M2178.38 315.922 L2194.7 315.922 L2194.7 319.858 L2172.76 319.858 L2172.76 315.922 Q2175.42 313.168 2180 308.538 Q2184.61 303.885 2185.79 302.543 Q2188.04 300.02 2188.92 298.284 Q2189.82 296.524 2189.82 294.835 Q2189.82 292.08 2187.87 290.344 Q2185.95 288.608 2182.85 288.608 Q2180.65 288.608 2178.2 289.372 Q2175.77 290.135 2172.99 291.686 L2172.99 286.964 Q2175.81 285.83 2178.27 285.251 Q2180.72 284.673 2182.76 284.673 Q2188.13 284.673 2191.32 287.358 Q2194.52 290.043 2194.52 294.534 Q2194.52 296.663 2193.71 298.585 Q2192.92 300.483 2190.81 303.075 Q2190.23 303.747 2187.13 306.964 Q2184.03 310.159 2178.38 315.922 Z" fill="#000000" fill-rule="nonzero" fill-opacity="1" /><path clip-path="url(#clip040)" d="M2204.56 285.298 L2222.92 285.298 L2222.92 289.233 L2208.85 289.233 L2208.85 297.705 Q2209.86 297.358 2210.88 297.196 Q2211.9 297.01 2212.92 297.01 Q2218.71 297.01 2222.09 300.182 Q2225.47 303.353 2225.47 308.77 Q2225.47 314.348 2221.99 317.45 Q2218.52 320.529 2212.2 320.529 Q2210.03 320.529 2207.76 320.158 Q2205.51 319.788 2203.1 319.047 L2203.1 314.348 Q2205.19 315.483 2207.41 316.038 Q2209.63 316.594 2212.11 316.594 Q2216.11 316.594 2218.45 314.487 Q2220.79 312.381 2220.79 308.77 Q2220.79 305.159 2218.45 303.052 Q2216.11 300.946 2212.11 300.946 Q2210.23 300.946 2208.36 301.362 Q2206.51 301.779 2204.56 302.659 L2204.56 285.298 Z" fill="#000000" fill-rule="nonzero" fill-opacity="1" /><polyline clip-path="url(#clip040)" style="stroke:#ac8d18; stroke-linecap:round; stroke-linejoin:round; stroke-width:12; stroke-opacity:1; fill:none" points="1977.44,354.418 2121.36,354.418 "/>
<path clip-path="url(#clip040)" d="M2150.03 340.98 L2150.03 353.966 L2155.91 353.966 Q2159.17 353.966 2160.95 352.276 Q2162.73 350.587 2162.73 347.462 Q2162.73 344.36 2160.95 342.67 Q2159.17 340.98 2155.91 340.98 L2150.03 340.98 M2145.35 337.138 L2155.91 337.138 Q2161.72 337.138 2164.68 339.776 Q2167.67 342.392 2167.67 347.462 Q2167.67 352.577 2164.68 355.193 Q2161.72 357.809 2155.91 357.809 L2150.03 357.809 L2150.03 371.698 L2145.35 371.698 L2145.35 337.138 Z" fill="#000000" fill-rule="nonzero" fill-opacity="1" /><path clip-path="url(#clip040)" d="M2173.17 337.138 L2195.4 337.138 L2195.4 339.128 L2182.85 371.698 L2177.97 371.698 L2189.77 341.073 L2173.17 341.073 L2173.17 337.138 Z" fill="#000000" fill-rule="nonzero" fill-opacity="1" /><path clip-path="url(#clip040)" d="M2204.56 337.138 L2222.92 337.138 L2222.92 341.073 L2208.85 341.073 L2208.85 349.545 Q2209.86 349.198 2210.88 349.036 Q2211.9 348.85 2212.92 348.85 Q2218.71 348.85 2222.09 352.022 Q2225.47 355.193 2225.47 360.61 Q2225.47 366.188 2221.99 369.29 Q2218.52 372.369 2212.2 372.369 Q2210.03 372.369 2207.76 371.998 Q2205.51 371.628 2203.1 370.887 L2203.1 366.188 Q2205.19 367.323 2207.41 367.878 Q2209.63 368.434 2212.11 368.434 Q2216.11 368.434 2218.45 366.327 Q2220.79 364.221 2220.79 360.61 Q2220.79 356.999 2218.45 354.892 Q2216.11 352.786 2212.11 352.786 Q2210.23 352.786 2208.36 353.202 Q2206.51 353.619 2204.56 354.499 L2204.56 337.138 Z" fill="#000000" fill-rule="nonzero" fill-opacity="1" /></svg>
