<?xml version="1.0" encoding="utf-8"?>
<svg xmlns="http://www.w3.org/2000/svg" xmlns:xlink="http://www.w3.org/1999/xlink" width="600" height="400" viewBox="0 0 2400 1600">
<defs>
  <clipPath id="clip520">
    <rect x="0" y="0" width="2400" height="1600"/>
  </clipPath>
</defs>
<path clip-path="url(#clip520)" d="M0 1600 L2400 1600 L2400 0 L0 0  Z" fill="#ffffff" fill-rule="evenodd" fill-opacity="1"/>
<defs>
  <clipPath id="clip521">
    <rect x="480" y="0" width="1681" height="1600"/>
  </clipPath>
</defs>
<path clip-path="url(#clip520)" d="M193.936 1486.45 L2352.76 1486.45 L2352.76 47.2441 L193.936 47.2441  Z" fill="#ffffff" fill-rule="evenodd" fill-opacity="1"/>
<defs>
  <clipPath id="clip522">
    <rect x="193" y="47" width="2160" height="1440"/>
  </clipPath>
</defs>
<polyline clip-path="url(#clip522)" style="stroke:#000000; stroke-linecap:round; stroke-linejoin:round; stroke-width:2; stroke-opacity:0.1; fill:none" points="255.035,1486.45 255.035,47.2441 "/>
<polyline clip-path="url(#clip522)" style="stroke:#000000; stroke-linecap:round; stroke-linejoin:round; stroke-width:2; stroke-opacity:0.1; fill:none" points="579.173,1486.45 579.173,47.2441 "/>
<polyline clip-path="url(#clip522)" style="stroke:#000000; stroke-linecap:round; stroke-linejoin:round; stroke-width:2; stroke-opacity:0.1; fill:none" points="903.312,1486.45 903.312,47.2441 "/>
<polyline clip-path="url(#clip522)" style="stroke:#000000; stroke-linecap:round; stroke-linejoin:round; stroke-width:2; stroke-opacity:0.1; fill:none" points="1227.45,1486.45 1227.45,47.2441 "/>
<polyline clip-path="url(#clip522)" style="stroke:#000000; stroke-linecap:round; stroke-linejoin:round; stroke-width:2; stroke-opacity:0.1; fill:none" points="1551.59,1486.45 1551.59,47.2441 "/>
<polyline clip-path="url(#clip522)" style="stroke:#000000; stroke-linecap:round; stroke-linejoin:round; stroke-width:2; stroke-opacity:0.1; fill:none" points="1875.73,1486.45 1875.73,47.2441 "/>
<polyline clip-path="url(#clip522)" style="stroke:#000000; stroke-linecap:round; stroke-linejoin:round; stroke-width:2; stroke-opacity:0.1; fill:none" points="2199.87,1486.45 2199.87,47.2441 "/>
<polyline clip-path="url(#clip522)" style="stroke:#000000; stroke-linecap:round; stroke-linejoin:round; stroke-width:2; stroke-opacity:0.1; fill:none" points="193.936,1287.4 2352.76,1287.4 "/>
<polyline clip-path="url(#clip522)" style="stroke:#000000; stroke-linecap:round; stroke-linejoin:round; stroke-width:2; stroke-opacity:0.1; fill:none" points="193.936,1016.88 2352.76,1016.88 "/>
<polyline clip-path="url(#clip522)" style="stroke:#000000; stroke-linecap:round; stroke-linejoin:round; stroke-width:2; stroke-opacity:0.1; fill:none" points="193.936,746.362 2352.76,746.362 "/>
<polyline clip-path="url(#clip522)" style="stroke:#000000; stroke-linecap:round; stroke-linejoin:round; stroke-width:2; stroke-opacity:0.1; fill:none" points="193.936,475.845 2352.76,475.845 "/>
<polyline clip-path="url(#clip522)" style="stroke:#000000; stroke-linecap:round; stroke-linejoin:round; stroke-width:2; stroke-opacity:0.1; fill:none" points="193.936,205.327 2352.76,205.327 "/>
<polyline clip-path="url(#clip520)" style="stroke:#000000; stroke-linecap:round; stroke-linejoin:round; stroke-width:4; stroke-opacity:1; fill:none" points="193.936,1486.45 2352.76,1486.45 "/>
<polyline clip-path="url(#clip520)" style="stroke:#000000; stroke-linecap:round; stroke-linejoin:round; stroke-width:4; stroke-opacity:1; fill:none" points="255.035,1486.45 255.035,1467.55 "/>
<polyline clip-path="url(#clip520)" style="stroke:#000000; stroke-linecap:round; stroke-linejoin:round; stroke-width:4; stroke-opacity:1; fill:none" points="579.173,1486.45 579.173,1467.55 "/>
<polyline clip-path="url(#clip520)" style="stroke:#000000; stroke-linecap:round; stroke-linejoin:round; stroke-width:4; stroke-opacity:1; fill:none" points="903.312,1486.45 903.312,1467.55 "/>
<polyline clip-path="url(#clip520)" style="stroke:#000000; stroke-linecap:round; stroke-linejoin:round; stroke-width:4; stroke-opacity:1; fill:none" points="1227.45,1486.45 1227.45,1467.55 "/>
<polyline clip-path="url(#clip520)" style="stroke:#000000; stroke-linecap:round; stroke-linejoin:round; stroke-width:4; stroke-opacity:1; fill:none" points="1551.59,1486.45 1551.59,1467.55 "/>
<polyline clip-path="url(#clip520)" style="stroke:#000000; stroke-linecap:round; stroke-linejoin:round; stroke-width:4; stroke-opacity:1; fill:none" points="1875.73,1486.45 1875.73,1467.55 "/>
<polyline clip-path="url(#clip520)" style="stroke:#000000; stroke-linecap:round; stroke-linejoin:round; stroke-width:4; stroke-opacity:1; fill:none" points="2199.87,1486.45 2199.87,1467.55 "/>
<path clip-path="url(#clip520)" d="M255.035 1517.37 Q251.424 1517.37 249.595 1520.93 Q247.789 1524.47 247.789 1531.6 Q247.789 1538.71 249.595 1542.27 Q251.424 1545.82 255.035 1545.82 Q258.669 1545.82 260.474 1542.27 Q262.303 1538.71 262.303 1531.6 Q262.303 1524.47 260.474 1520.93 Q258.669 1517.37 255.035 1517.37 M255.035 1513.66 Q260.845 1513.66 263.9 1518.27 Q266.979 1522.85 266.979 1531.6 Q266.979 1540.33 263.9 1544.94 Q260.845 1549.52 255.035 1549.52 Q249.225 1549.52 246.146 1544.94 Q243.09 1540.33 243.09 1531.6 Q243.09 1522.85 246.146 1518.27 Q249.225 1513.66 255.035 1513.66 Z" fill="#000000" fill-rule="nonzero" fill-opacity="1" /><path clip-path="url(#clip520)" d="M569.555 1544.91 L577.194 1544.91 L577.194 1518.55 L568.884 1520.21 L568.884 1515.95 L577.148 1514.29 L581.824 1514.29 L581.824 1544.91 L589.463 1544.91 L589.463 1548.85 L569.555 1548.85 L569.555 1544.91 Z" fill="#000000" fill-rule="nonzero" fill-opacity="1" /><path clip-path="url(#clip520)" d="M897.965 1544.91 L914.284 1544.91 L914.284 1548.85 L892.34 1548.85 L892.34 1544.91 Q895.002 1542.16 899.585 1537.53 Q904.191 1532.88 905.372 1531.53 Q907.617 1529.01 908.497 1527.27 Q909.4 1525.51 909.4 1523.82 Q909.4 1521.07 907.455 1519.33 Q905.534 1517.6 902.432 1517.6 Q900.233 1517.6 897.779 1518.36 Q895.349 1519.13 892.571 1520.68 L892.571 1515.95 Q895.395 1514.82 897.849 1514.24 Q900.303 1513.66 902.34 1513.66 Q907.71 1513.66 910.904 1516.35 Q914.099 1519.03 914.099 1523.52 Q914.099 1525.65 913.289 1527.57 Q912.502 1529.47 910.395 1532.07 Q909.816 1532.74 906.715 1535.95 Q903.613 1539.15 897.965 1544.91 Z" fill="#000000" fill-rule="nonzero" fill-opacity="1" /><path clip-path="url(#clip520)" d="M1231.7 1530.21 Q1235.05 1530.93 1236.93 1533.2 Q1238.83 1535.47 1238.83 1538.8 Q1238.83 1543.92 1235.31 1546.72 Q1231.79 1549.52 1225.31 1549.52 Q1223.13 1549.52 1220.82 1549.08 Q1218.53 1548.66 1216.07 1547.81 L1216.07 1543.29 Q1218.02 1544.43 1220.33 1545.01 Q1222.65 1545.58 1225.17 1545.58 Q1229.57 1545.58 1231.86 1543.85 Q1234.17 1542.11 1234.17 1538.8 Q1234.17 1535.75 1232.02 1534.03 Q1229.89 1532.3 1226.07 1532.3 L1222.05 1532.3 L1222.05 1528.45 L1226.26 1528.45 Q1229.71 1528.45 1231.54 1527.09 Q1233.36 1525.7 1233.36 1523.11 Q1233.36 1520.45 1231.47 1519.03 Q1229.59 1517.6 1226.07 1517.6 Q1224.15 1517.6 1221.95 1518.01 Q1219.75 1518.43 1217.11 1519.31 L1217.11 1515.14 Q1219.78 1514.4 1222.09 1514.03 Q1224.43 1513.66 1226.49 1513.66 Q1231.81 1513.66 1234.92 1516.09 Q1238.02 1518.5 1238.02 1522.62 Q1238.02 1525.49 1236.37 1527.48 Q1234.73 1529.45 1231.7 1530.21 Z" fill="#000000" fill-rule="nonzero" fill-opacity="1" /><path clip-path="url(#clip520)" d="M1554.6 1518.36 L1542.79 1536.81 L1554.6 1536.81 L1554.6 1518.36 M1553.37 1514.29 L1559.25 1514.29 L1559.25 1536.81 L1564.18 1536.81 L1564.18 1540.7 L1559.25 1540.7 L1559.25 1548.85 L1554.6 1548.85 L1554.6 1540.7 L1539 1540.7 L1539 1536.19 L1553.37 1514.29 Z" fill="#000000" fill-rule="nonzero" fill-opacity="1" /><path clip-path="url(#clip520)" d="M1866.01 1514.29 L1884.36 1514.29 L1884.36 1518.22 L1870.29 1518.22 L1870.29 1526.7 Q1871.31 1526.35 1872.32 1526.19 Q1873.34 1526 1874.36 1526 Q1880.15 1526 1883.53 1529.17 Q1886.91 1532.34 1886.91 1537.76 Q1886.91 1543.34 1883.44 1546.44 Q1879.96 1549.52 1873.64 1549.52 Q1871.47 1549.52 1869.2 1549.15 Q1866.95 1548.78 1864.55 1548.04 L1864.55 1543.34 Q1866.63 1544.47 1868.85 1545.03 Q1871.07 1545.58 1873.55 1545.58 Q1877.56 1545.58 1879.89 1543.48 Q1882.23 1541.37 1882.23 1537.76 Q1882.23 1534.15 1879.89 1532.04 Q1877.56 1529.94 1873.55 1529.94 Q1871.68 1529.94 1869.8 1530.35 Q1867.95 1530.77 1866.01 1531.65 L1866.01 1514.29 Z" fill="#000000" fill-rule="nonzero" fill-opacity="1" /><path clip-path="url(#clip520)" d="M2200.27 1529.7 Q2197.12 1529.7 2195.27 1531.86 Q2193.44 1534.01 2193.44 1537.76 Q2193.44 1541.49 2195.27 1543.66 Q2197.12 1545.82 2200.27 1545.82 Q2203.42 1545.82 2205.25 1543.66 Q2207.1 1541.49 2207.1 1537.76 Q2207.1 1534.01 2205.25 1531.86 Q2203.42 1529.7 2200.27 1529.7 M2209.55 1515.05 L2209.55 1519.31 Q2207.79 1518.48 2205.99 1518.04 Q2204.21 1517.6 2202.45 1517.6 Q2197.82 1517.6 2195.36 1520.72 Q2192.93 1523.85 2192.59 1530.17 Q2193.95 1528.15 2196.01 1527.09 Q2198.07 1526 2200.55 1526 Q2205.76 1526 2208.77 1529.17 Q2211.8 1532.32 2211.8 1537.76 Q2211.8 1543.08 2208.65 1546.3 Q2205.5 1549.52 2200.27 1549.52 Q2194.28 1549.52 2191.1 1544.94 Q2187.93 1540.33 2187.93 1531.6 Q2187.93 1523.41 2191.82 1518.55 Q2195.71 1513.66 2202.26 1513.66 Q2204.02 1513.66 2205.8 1514.01 Q2207.61 1514.36 2209.55 1515.05 Z" fill="#000000" fill-rule="nonzero" fill-opacity="1" /><polyline clip-path="url(#clip520)" style="stroke:#000000; stroke-linecap:round; stroke-linejoin:round; stroke-width:4; stroke-opacity:1; fill:none" points="193.936,1486.45 193.936,47.2441 "/>
<polyline clip-path="url(#clip520)" style="stroke:#000000; stroke-linecap:round; stroke-linejoin:round; stroke-width:4; stroke-opacity:1; fill:none" points="193.936,1287.4 212.834,1287.4 "/>
<polyline clip-path="url(#clip520)" style="stroke:#000000; stroke-linecap:round; stroke-linejoin:round; stroke-width:4; stroke-opacity:1; fill:none" points="193.936,1016.88 212.834,1016.88 "/>
<polyline clip-path="url(#clip520)" style="stroke:#000000; stroke-linecap:round; stroke-linejoin:round; stroke-width:4; stroke-opacity:1; fill:none" points="193.936,746.362 212.834,746.362 "/>
<polyline clip-path="url(#clip520)" style="stroke:#000000; stroke-linecap:round; stroke-linejoin:round; stroke-width:4; stroke-opacity:1; fill:none" points="193.936,475.845 212.834,475.845 "/>
<polyline clip-path="url(#clip520)" style="stroke:#000000; stroke-linecap:round; stroke-linejoin:round; stroke-width:4; stroke-opacity:1; fill:none" points="193.936,205.327 212.834,205.327 "/>
<path clip-path="url(#clip520)" d="M50.9921 1287.85 L80.6679 1287.85 L80.6679 1291.78 L50.9921 1291.78 L50.9921 1287.85 Z" fill="#000000" fill-rule="nonzero" fill-opacity="1" /><path clip-path="url(#clip520)" d="M91.5706 1300.74 L99.2095 1300.74 L99.2095 1274.38 L90.8993 1276.04 L90.8993 1271.78 L99.1632 1270.12 L103.839 1270.12 L103.839 1300.74 L111.478 1300.74 L111.478 1304.68 L91.5706 1304.68 L91.5706 1300.74 Z" fill="#000000" fill-rule="nonzero" fill-opacity="1" /><path clip-path="url(#clip520)" d="M120.922 1298.8 L125.807 1298.8 L125.807 1304.68 L120.922 1304.68 L120.922 1298.8 Z" fill="#000000" fill-rule="nonzero" fill-opacity="1" /><path clip-path="url(#clip520)" d="M145.992 1273.2 Q142.381 1273.2 140.552 1276.76 Q138.746 1280.3 138.746 1287.43 Q138.746 1294.54 140.552 1298.1 Q142.381 1301.64 145.992 1301.64 Q149.626 1301.64 151.431 1298.1 Q153.26 1294.54 153.26 1287.43 Q153.26 1280.3 151.431 1276.76 Q149.626 1273.2 145.992 1273.2 M145.992 1269.49 Q151.802 1269.49 154.857 1274.1 Q157.936 1278.68 157.936 1287.43 Q157.936 1296.16 154.857 1300.77 Q151.802 1305.35 145.992 1305.35 Q140.181 1305.35 137.103 1300.77 Q134.047 1296.16 134.047 1287.43 Q134.047 1278.68 137.103 1274.1 Q140.181 1269.49 145.992 1269.49 Z" fill="#000000" fill-rule="nonzero" fill-opacity="1" /><path clip-path="url(#clip520)" d="M51.9875 1017.33 L81.6633 1017.33 L81.6633 1021.27 L51.9875 1021.27 L51.9875 1017.33 Z" fill="#000000" fill-rule="nonzero" fill-opacity="1" /><path clip-path="url(#clip520)" d="M101.756 1002.68 Q98.1447 1002.68 96.316 1006.24 Q94.5104 1009.78 94.5104 1016.91 Q94.5104 1024.02 96.316 1027.59 Q98.1447 1031.13 101.756 1031.13 Q105.39 1031.13 107.196 1027.59 Q109.024 1024.02 109.024 1016.91 Q109.024 1009.78 107.196 1006.24 Q105.39 1002.68 101.756 1002.68 M101.756 998.975 Q107.566 998.975 110.621 1003.58 Q113.7 1008.16 113.7 1016.91 Q113.7 1025.64 110.621 1030.25 Q107.566 1034.83 101.756 1034.83 Q95.9456 1034.83 92.8669 1030.25 Q89.8114 1025.64 89.8114 1016.91 Q89.8114 1008.16 92.8669 1003.58 Q95.9456 998.975 101.756 998.975 Z" fill="#000000" fill-rule="nonzero" fill-opacity="1" /><path clip-path="url(#clip520)" d="M121.918 1028.28 L126.802 1028.28 L126.802 1034.16 L121.918 1034.16 L121.918 1028.28 Z" fill="#000000" fill-rule="nonzero" fill-opacity="1" /><path clip-path="url(#clip520)" d="M137.033 999.6 L155.39 999.6 L155.39 1003.53 L141.316 1003.53 L141.316 1012.01 Q142.334 1011.66 143.353 1011.5 Q144.371 1011.31 145.39 1011.31 Q151.177 1011.31 154.556 1014.48 Q157.936 1017.66 157.936 1023.07 Q157.936 1028.65 154.464 1031.75 Q150.992 1034.83 144.672 1034.83 Q142.496 1034.83 140.228 1034.46 Q137.982 1034.09 135.575 1033.35 L135.575 1028.65 Q137.658 1029.78 139.881 1030.34 Q142.103 1030.9 144.58 1030.9 Q148.584 1030.9 150.922 1028.79 Q153.26 1026.68 153.26 1023.07 Q153.26 1019.46 150.922 1017.35 Q148.584 1015.25 144.58 1015.25 Q142.705 1015.25 140.83 1015.66 Q138.978 1016.08 137.033 1016.96 L137.033 999.6 Z" fill="#000000" fill-rule="nonzero" fill-opacity="1" /><path clip-path="url(#clip520)" d="M100.76 732.161 Q97.1493 732.161 95.3206 735.726 Q93.515 739.267 93.515 746.397 Q93.515 753.503 95.3206 757.068 Q97.1493 760.61 100.76 760.61 Q104.395 760.61 106.2 757.068 Q108.029 753.503 108.029 746.397 Q108.029 739.267 106.2 735.726 Q104.395 732.161 100.76 732.161 M100.76 728.457 Q106.571 728.457 109.626 733.064 Q112.705 737.647 112.705 746.397 Q112.705 755.124 109.626 759.73 Q106.571 764.314 100.76 764.314 Q94.9502 764.314 91.8715 759.73 Q88.816 755.124 88.816 746.397 Q88.816 737.647 91.8715 733.064 Q94.9502 728.457 100.76 728.457 Z" fill="#000000" fill-rule="nonzero" fill-opacity="1" /><path clip-path="url(#clip520)" d="M120.922 757.763 L125.807 757.763 L125.807 763.642 L120.922 763.642 L120.922 757.763 Z" fill="#000000" fill-rule="nonzero" fill-opacity="1" /><path clip-path="url(#clip520)" d="M145.992 732.161 Q142.381 732.161 140.552 735.726 Q138.746 739.267 138.746 746.397 Q138.746 753.503 140.552 757.068 Q142.381 760.61 145.992 760.61 Q149.626 760.61 151.431 757.068 Q153.26 753.503 153.26 746.397 Q153.26 739.267 151.431 735.726 Q149.626 732.161 145.992 732.161 M145.992 728.457 Q151.802 728.457 154.857 733.064 Q157.936 737.647 157.936 746.397 Q157.936 755.124 154.857 759.73 Q151.802 764.314 145.992 764.314 Q140.181 764.314 137.103 759.73 Q134.047 755.124 134.047 746.397 Q134.047 737.647 137.103 733.064 Q140.181 728.457 145.992 728.457 Z" fill="#000000" fill-rule="nonzero" fill-opacity="1" /><path clip-path="url(#clip520)" d="M101.756 461.643 Q98.1447 461.643 96.316 465.208 Q94.5104 468.75 94.5104 475.879 Q94.5104 482.986 96.316 486.551 Q98.1447 490.092 101.756 490.092 Q105.39 490.092 107.196 486.551 Q109.024 482.986 109.024 475.879 Q109.024 468.75 107.196 465.208 Q105.39 461.643 101.756 461.643 M101.756 457.94 Q107.566 457.94 110.621 462.546 Q113.7 467.129 113.7 475.879 Q113.7 484.606 110.621 489.213 Q107.566 493.796 101.756 493.796 Q95.9456 493.796 92.8669 489.213 Q89.8114 484.606 89.8114 475.879 Q89.8114 467.129 92.8669 462.546 Q95.9456 457.94 101.756 457.94 Z" fill="#000000" fill-rule="nonzero" fill-opacity="1" /><path clip-path="url(#clip520)" d="M121.918 487.245 L126.802 487.245 L126.802 493.125 L121.918 493.125 L121.918 487.245 Z" fill="#000000" fill-rule="nonzero" fill-opacity="1" /><path clip-path="url(#clip520)" d="M137.033 458.565 L155.39 458.565 L155.39 462.5 L141.316 462.5 L141.316 470.972 Q142.334 470.625 143.353 470.463 Q144.371 470.278 145.39 470.278 Q151.177 470.278 154.556 473.449 Q157.936 476.62 157.936 482.037 Q157.936 487.615 154.464 490.717 Q150.992 493.796 144.672 493.796 Q142.496 493.796 140.228 493.426 Q137.982 493.055 135.575 492.315 L135.575 487.615 Q137.658 488.75 139.881 489.305 Q142.103 489.861 144.58 489.861 Q148.584 489.861 150.922 487.754 Q153.26 485.648 153.26 482.037 Q153.26 478.426 150.922 476.319 Q148.584 474.213 144.58 474.213 Q142.705 474.213 140.83 474.629 Q138.978 475.046 137.033 475.926 L137.033 458.565 Z" fill="#000000" fill-rule="nonzero" fill-opacity="1" /><path clip-path="url(#clip520)" d="M91.5706 218.672 L99.2095 218.672 L99.2095 192.306 L90.8993 193.973 L90.8993 189.714 L99.1632 188.047 L103.839 188.047 L103.839 218.672 L111.478 218.672 L111.478 222.607 L91.5706 222.607 L91.5706 218.672 Z" fill="#000000" fill-rule="nonzero" fill-opacity="1" /><path clip-path="url(#clip520)" d="M120.922 216.728 L125.807 216.728 L125.807 222.607 L120.922 222.607 L120.922 216.728 Z" fill="#000000" fill-rule="nonzero" fill-opacity="1" /><path clip-path="url(#clip520)" d="M145.992 191.126 Q142.381 191.126 140.552 194.691 Q138.746 198.232 138.746 205.362 Q138.746 212.468 140.552 216.033 Q142.381 219.575 145.992 219.575 Q149.626 219.575 151.431 216.033 Q153.26 212.468 153.26 205.362 Q153.26 198.232 151.431 194.691 Q149.626 191.126 145.992 191.126 M145.992 187.422 Q151.802 187.422 154.857 192.029 Q157.936 196.612 157.936 205.362 Q157.936 214.089 154.857 218.695 Q151.802 223.278 145.992 223.278 Q140.181 223.278 137.103 218.695 Q134.047 214.089 134.047 205.362 Q134.047 196.612 137.103 192.029 Q140.181 187.422 145.992 187.422 Z" fill="#000000" fill-rule="nonzero" fill-opacity="1" /><polyline clip-path="url(#clip522)" style="stroke:#009af9; stroke-linecap:round; stroke-linejoin:round; stroke-width:4; stroke-opacity:1; fill:none" points="255.035,746.362 258.276,740.952 261.517,735.542 264.759,730.134 268,724.727 271.242,719.322 274.483,713.92 277.724,708.521 280.966,703.126 284.207,697.735 287.449,692.349 290.69,686.968 293.931,681.594 297.173,676.226 300.414,670.865 303.655,665.511 306.897,660.166 310.138,654.829 313.38,649.501 316.621,644.183 319.862,638.875 323.104,633.578 326.345,628.292 329.587,623.018 332.828,617.757 336.069,612.508 339.311,607.273 342.552,602.051 345.793,596.844 349.035,591.652 352.276,586.475 355.518,581.315 358.759,576.171 362,571.044 365.242,565.934 368.483,560.843 371.725,555.77 374.966,550.716 378.207,545.681 381.449,540.667 384.69,535.673 387.931,530.701 391.173,525.75 394.414,520.821 397.656,515.914 400.897,511.031 404.138,506.171 407.38,501.335 410.621,496.524 413.863,491.737 417.104,486.976 420.345,482.241 423.587,477.533 426.828,472.851 430.069,468.197 433.311,463.57 436.552,458.972 439.794,454.402 443.035,449.862 446.276,445.351 449.518,440.871 452.759,436.421 456.001,432.002 459.242,427.614 462.483,423.259 465.725,418.935 468.966,414.645 472.208,410.387 475.449,406.163 478.69,401.973 481.932,397.818 485.173,393.697 488.414,389.612 491.656,385.562 494.897,381.549 498.139,377.572 501.38,373.632 504.621,369.729 507.863,365.863 511.104,362.036 514.346,358.247 517.587,354.497 520.828,350.787 524.07,347.115 527.311,343.484 530.552,339.893 533.794,336.343 537.035,332.833 540.277,329.365 543.518,325.939 546.759,322.555 550.001,319.213 553.242,315.914 556.484,312.658 559.725,309.445 562.966,306.276 566.208,303.151 569.449,300.07 572.69,297.034 575.932,294.043 579.173,291.097 582.415,288.197 585.656,285.342 588.897,282.533 592.139,279.771 595.38,277.056 598.622,274.387 601.863,271.766 605.104,269.192 608.346,266.666 611.587,264.188 614.828,261.758 618.07,259.376 621.311,257.044 624.553,254.76 627.794,252.525 631.035,250.34 634.277,248.204 637.518,246.118 640.76,244.082 644.001,242.096 647.242,240.161 650.484,238.277 653.725,236.443 656.966,234.66 660.208,232.928 663.449,231.248 666.691,229.619 669.932,228.042 673.173,226.517 676.415,225.043 679.656,223.622 682.898,222.253 686.139,220.937 689.38,219.673 692.622,218.462 695.863,217.303 699.104,216.198 702.346,215.145 705.587,214.146 708.829,213.199 712.07,212.306 715.311,211.467 718.553,210.681 721.794,209.949 725.036,209.27 728.277,208.645 731.518,208.073 734.76,207.556 738.001,207.092 741.242,206.682 744.484,206.327 747.725,206.025 750.967,205.777 754.208,205.584 757.449,205.444 760.691,205.359 763.932,205.327 767.174,205.35 770.415,205.427 773.656,205.558 776.898,205.743 780.139,205.982 783.381,206.275 786.622,206.622 789.863,207.023 793.105,207.478 796.346,207.987 799.587,208.55 802.829,209.167 806.07,209.837 809.312,210.561 812.553,211.338 815.794,212.169 819.036,213.054 822.277,213.991 825.519,214.982 828.76,216.026 832.001,217.124 835.243,218.274 838.484,219.477 841.725,220.732 844.967,222.04 848.208,223.401 851.45,224.814 854.691,226.279 857.932,227.796 861.174,229.365 864.415,230.985 867.657,232.657 870.898,234.381 874.139,236.155 877.381,237.981 880.622,239.858 883.863,241.785 887.105,243.762 890.346,245.79 893.588,247.868 896.829,249.996 900.07,252.174 903.312,254.4 906.553,256.677 909.795,259.002 913.036,261.375 916.277,263.798 919.519,266.268 922.76,268.787 926.001,271.353 929.243,273.967 932.484,276.628 935.726,279.336 938.967,282.09 942.208,284.892 945.45,287.739 948.691,290.632 951.933,293.571 955.174,296.555 958.415,299.584 961.657,302.657 964.898,305.775 968.139,308.937 971.381,312.143 974.622,315.392 977.864,318.685 981.105,322.02 984.346,325.397 987.588,328.817 990.829,332.278 994.071,335.781 997.312,339.325 1000.55,342.91 1003.79,346.534 1007.04,350.199 1010.28,353.904 1013.52,357.648 1016.76,361.43 1020,365.251 1023.24,369.111 1026.48,373.007 1029.73,376.942 1032.97,380.913 1036.21,384.921 1039.45,388.965 1042.69,393.044 1045.93,397.159 1049.17,401.309 1052.42,405.494 1055.66,409.712 1058.9,413.964 1062.14,418.25 1065.38,422.568 1068.62,426.918 1071.86,431.301 1075.11,435.715 1078.35,440.16 1081.59,444.636 1084.83,449.142 1088.07,453.677 1091.31,458.242 1094.55,462.836 1097.79,467.458 1101.04,472.108 1104.28,476.785 1107.52,481.49 1110.76,486.22 1114,490.977 1117.24,495.76 1120.48,500.567 1123.73,505.399 1126.97,510.255 1130.21,515.135 1133.45,520.038 1136.69,524.963 1139.93,529.911 1143.17,534.88 1146.42,539.87 1149.66,544.881 1152.9,549.913 1156.14,554.963 1159.38,560.033 1162.62,565.122 1165.86,570.229 1169.11,575.353 1172.35,580.494 1175.59,585.652 1178.83,590.827 1182.07,596.016 1185.31,601.221 1188.55,606.44 1191.8,611.673 1195.04,616.92 1198.28,622.18 1201.52,627.452 1204.76,632.736 1208,638.031 1211.24,643.337 1214.48,648.653 1217.73,653.98 1220.97,659.315 1224.21,664.659 1227.45,670.011 1230.69,675.371 1233.93,680.738 1237.17,686.112 1240.42,691.492 1243.66,696.877 1246.9,702.267 1250.14,707.661 1253.38,713.06 1256.62,718.461 1259.86,723.866 1263.11,729.272 1266.35,734.681 1269.59,740.09 1272.83,745.501 1276.07,750.911 1279.31,756.321 1282.55,761.73 1285.8,767.137 1289.04,772.542 1292.28,777.945 1295.52,783.344 1298.76,788.74 1302,794.131 1305.24,799.518 1308.48,804.9 1311.73,810.275 1314.97,815.644 1318.21,821.007 1321.45,826.361 1324.69,831.708 1327.93,837.046 1331.17,842.376 1334.42,847.695 1337.66,853.005 1340.9,858.304 1344.14,863.591 1347.38,868.867 1350.62,874.131 1353.86,879.381 1357.11,884.619 1360.35,889.843 1363.59,895.052 1366.83,900.247 1370.07,905.426 1373.31,910.589 1376.55,915.736 1379.8,920.866 1383.04,925.978 1386.28,931.072 1389.52,936.148 1392.76,941.205 1396,946.243 1399.24,951.26 1402.49,956.257 1405.73,961.233 1408.97,966.188 1412.21,971.12 1415.45,976.031 1418.69,980.918 1421.93,985.781 1425.17,990.621 1428.42,995.436 1431.66,1000.23 1434.9,1004.99 1438.14,1009.73 1441.38,1014.44 1444.62,1019.13 1447.86,1023.79 1451.11,1028.42 1454.35,1033.02 1457.59,1037.6 1460.83,1042.14 1464.07,1046.66 1467.31,1051.14 1470.55,1055.6 1473.8,1060.02 1477.04,1064.41 1480.28,1068.77 1483.52,1073.1 1486.76,1077.4 1490,1081.66 1493.24,1085.89 1496.49,1090.09 1499.73,1094.25 1502.97,1098.37 1506.21,1102.46 1509.45,1106.52 1512.69,1110.54 1515.93,1114.52 1519.18,1118.47 1522.42,1122.38 1525.66,1126.25 1528.9,1130.08 1532.14,1133.88 1535.38,1137.63 1538.62,1141.35 1541.86,1145.03 1545.11,1148.66 1548.35,1152.26 1551.59,1155.82 1554.83,1159.33 1558.07,1162.81 1561.31,1166.24 1564.55,1169.63 1567.8,1172.98 1571.04,1176.29 1574.28,1179.55 1577.52,1182.77 1580.76,1185.95 1584,1189.08 1587.24,1192.17 1590.49,1195.21 1593.73,1198.21 1596.97,1201.16 1600.21,1204.07 1603.45,1206.93 1606.69,1209.75 1609.93,1212.52 1613.18,1215.24 1616.42,1217.92 1619.66,1220.54 1622.9,1223.13 1626.14,1225.66 1629.38,1228.15 1632.62,1230.58 1635.86,1232.97 1639.11,1235.31 1642.35,1237.6 1645.59,1239.85 1648.83,1242.04 1652.07,1244.18 1655.31,1246.28 1658.55,1248.32 1661.8,1250.32 1665.04,1252.26 1668.28,1254.15 1671.52,1255.99 1674.76,1257.78 1678,1259.52 1681.24,1261.21 1684.49,1262.85 1687.73,1264.43 1690.97,1265.97 1694.21,1267.45 1697.45,1268.88 1700.69,1270.26 1703.93,1271.58 1707.18,1272.85 1710.42,1274.07 1713.66,1275.24 1716.9,1276.35 1720.14,1277.42 1723.38,1278.42 1726.62,1279.38 1729.87,1280.28 1733.11,1281.13 1736.35,1281.92 1739.59,1282.66 1742.83,1283.35 1746.07,1283.98 1749.31,1284.56 1752.55,1285.09 1755.8,1285.56 1759.04,1285.98 1762.28,1286.34 1765.52,1286.66 1768.76,1286.91 1772,1287.11 1775.24,1287.26 1778.49,1287.36 1781.73,1287.4 1784.97,1287.38 1788.21,1287.31 1791.45,1287.19 1794.69,1287.01 1797.93,1286.78 1801.18,1286.5 1804.42,1286.16 1807.66,1285.77 1810.9,1285.32 1814.14,1284.82 1817.38,1284.27 1820.62,1283.66 1823.87,1283 1827.11,1282.28 1830.35,1281.51 1833.59,1280.69 1836.83,1279.82 1840.07,1278.89 1843.31,1277.9 1846.55,1276.87 1849.8,1275.78 1853.04,1274.64 1856.28,1273.44 1859.52,1272.2 1862.76,1270.9 1866,1269.54 1869.24,1268.14 1872.49,1266.68 1875.73,1265.17 1878.97,1263.61 1882.21,1262 1885.45,1260.34 1888.69,1258.62 1891.93,1256.86 1895.18,1255.04 1898.42,1253.17 1901.66,1251.25 1904.9,1249.28 1908.14,1247.26 1911.38,1245.19 1914.62,1243.07 1917.87,1240.9 1921.11,1238.68 1924.35,1236.41 1927.59,1234.1 1930.83,1231.73 1934.07,1229.32 1937.31,1226.85 1940.56,1224.34 1943.8,1221.78 1947.04,1219.18 1950.28,1216.52 1953.52,1213.82 1956.76,1211.08 1960,1208.28 1963.24,1205.44 1966.49,1202.56 1969.73,1199.62 1972.97,1196.65 1976.21,1193.63 1979.45,1190.56 1982.69,1187.45 1985.93,1184.29 1989.18,1181.09 1992.42,1177.85 1995.66,1174.57 1998.9,1171.24 2002.14,1167.87 2005.38,1164.45 2008.62,1161 2011.87,1157.5 2015.11,1153.97 2018.35,1150.39 2021.59,1146.77 2024.83,1143.11 2028.07,1139.41 2031.31,1135.68 2034.56,1131.9 2037.8,1128.08 2041.04,1124.23 2044.28,1120.34 2047.52,1116.41 2050.76,1112.45 2054,1108.44 2057.24,1104.41 2060.49,1100.33 2063.73,1096.22 2066.97,1092.08 2070.21,1087.9 2073.45,1083.69 2076.69,1079.44 2079.93,1075.16 2083.18,1070.85 2086.42,1066.5 2089.66,1062.12 2092.9,1057.71 2096.14,1053.27 2099.38,1048.8 2102.62,1044.3 2105.87,1039.77 2109.11,1035.21 2112.35,1030.62 2115.59,1026 2118.83,1021.36 2122.07,1016.69 2125.31,1011.99 2128.56,1007.26 2131.8,1002.51 2135.04,997.728 2138.28,992.925 2141.52,988.097 2144.76,983.244 2148,978.369 2151.25,973.469 2154.49,968.547 2157.73,963.603 2160.97,958.638 2164.21,953.65 2167.45,948.643 2170.69,943.615 2173.93,938.567 2177.18,933.5 2180.42,928.414 2183.66,923.31 2186.9,918.189 2190.14,913.05 2193.38,907.895 2196.62,902.723 2199.87,897.536 2203.11,892.334 2206.35,887.117 2209.59,881.886 2212.83,876.641 2216.07,871.383 2219.31,866.113 2222.56,860.831 2225.8,855.538 2229.04,850.233 2232.28,844.919 2235.52,839.594 2238.76,834.26 2242,828.917 2245.25,823.566 2248.49,818.207 2251.73,812.841 2254.97,807.469 2258.21,802.09 2261.45,796.706 2264.69,791.317 2267.94,785.923 2271.18,780.525 2274.42,775.124 2277.66,769.72 2280.9,764.313 2284.14,758.905 2287.38,753.496 2290.62,748.086 "/>
<circle clip-path="url(#clip522)" cx="614.828" cy="290.737" r="14.4" fill="#e26f46" fill-rule="evenodd" fill-opacity="1" stroke="#000000" stroke-opacity="1" stroke-width="3.2"/>
<circle clip-path="url(#clip522)" cx="1710.42" cy="1341.78" r="14.4" fill="#e26f46" fill-rule="evenodd" fill-opacity="1" stroke="#000000" stroke-opacity="1" stroke-width="3.2"/>
<circle clip-path="url(#clip522)" cx="1856.28" cy="1308.87" r="14.4" fill="#e26f46" fill-rule="evenodd" fill-opacity="1" stroke="#000000" stroke-opacity="1" stroke-width="3.2"/>
<circle clip-path="url(#clip522)" cx="2060.49" cy="1013.84" r="14.4" fill="#e26f46" fill-rule="evenodd" fill-opacity="1" stroke="#000000" stroke-opacity="1" stroke-width="3.2"/>
<circle clip-path="url(#clip522)" cx="1859.52" cy="1139.32" r="14.4" fill="#e26f46" fill-rule="evenodd" fill-opacity="1" stroke="#000000" stroke-opacity="1" stroke-width="3.2"/>
<circle clip-path="url(#clip522)" cx="1846.55" cy="1177.98" r="14.4" fill="#e26f46" fill-rule="evenodd" fill-opacity="1" stroke="#000000" stroke-opacity="1" stroke-width="3.2"/>
<circle clip-path="url(#clip522)" cx="1914.62" cy="1373.31" r="14.4" fill="#e26f46" fill-rule="evenodd" fill-opacity="1" stroke="#000000" stroke-opacity="1" stroke-width="3.2"/>
<circle clip-path="url(#clip522)" cx="789.863" cy="336.077" r="14.4" fill="#e26f46" fill-rule="evenodd" fill-opacity="1" stroke="#000000" stroke-opacity="1" stroke-width="3.2"/>
<circle clip-path="url(#clip522)" cx="517.587" cy="390.046" r="14.4" fill="#e26f46" fill-rule="evenodd" fill-opacity="1" stroke="#000000" stroke-opacity="1" stroke-width="3.2"/>
<circle clip-path="url(#clip522)" cx="2079.93" cy="1079.51" r="14.4" fill="#e26f46" fill-rule="evenodd" fill-opacity="1" stroke="#000000" stroke-opacity="1" stroke-width="3.2"/>
<circle clip-path="url(#clip522)" cx="1963.24" cy="1091.55" r="14.4" fill="#e26f46" fill-rule="evenodd" fill-opacity="1" stroke="#000000" stroke-opacity="1" stroke-width="3.2"/>
<circle clip-path="url(#clip522)" cx="481.932" cy="334.153" r="14.4" fill="#e26f46" fill-rule="evenodd" fill-opacity="1" stroke="#000000" stroke-opacity="1" stroke-width="3.2"/>
<circle clip-path="url(#clip522)" cx="595.38" cy="393.634" r="14.4" fill="#e26f46" fill-rule="evenodd" fill-opacity="1" stroke="#000000" stroke-opacity="1" stroke-width="3.2"/>
<circle clip-path="url(#clip522)" cx="2245.25" cy="953.06" r="14.4" fill="#e26f46" fill-rule="evenodd" fill-opacity="1" stroke="#000000" stroke-opacity="1" stroke-width="3.2"/>
<circle clip-path="url(#clip522)" cx="1139.93" cy="575.719" r="14.4" fill="#e26f46" fill-rule="evenodd" fill-opacity="1" stroke="#000000" stroke-opacity="1" stroke-width="3.2"/>
<circle clip-path="url(#clip522)" cx="793.105" cy="144.26" r="14.4" fill="#e26f46" fill-rule="evenodd" fill-opacity="1" stroke="#000000" stroke-opacity="1" stroke-width="3.2"/>
<circle clip-path="url(#clip522)" cx="906.553" cy="229.158" r="14.4" fill="#e26f46" fill-rule="evenodd" fill-opacity="1" stroke="#000000" stroke-opacity="1" stroke-width="3.2"/>
<circle clip-path="url(#clip522)" cx="527.311" cy="389.727" r="14.4" fill="#e26f46" fill-rule="evenodd" fill-opacity="1" stroke="#000000" stroke-opacity="1" stroke-width="3.2"/>
<circle clip-path="url(#clip522)" cx="611.587" cy="252.031" r="14.4" fill="#e26f46" fill-rule="evenodd" fill-opacity="1" stroke="#000000" stroke-opacity="1" stroke-width="3.2"/>
<circle clip-path="url(#clip522)" cx="1217.73" cy="566.108" r="14.4" fill="#e26f46" fill-rule="evenodd" fill-opacity="1" stroke="#000000" stroke-opacity="1" stroke-width="3.2"/>
<path clip-path="url(#clip522)" d="M255.035 1003.89 L258.276 999.649 L261.517 995.347 L264.759 990.989 L268 986.573 L271.242 982.1 L274.483 977.569 L277.724 972.98 L280.966 968.332 L284.207 963.626 L287.449 958.86 L290.69 954.036 L293.931 949.151 L297.173 944.207 L300.414 939.203 L303.655 934.139 L306.897 929.014 L310.138 923.83 L313.38 918.584 L316.621 913.279 L319.862 907.913 L323.104 902.487 L326.345 897.001 L329.587 891.454 L332.828 885.848 L336.069 880.183 L339.311 874.458 L342.552 868.674 L345.793 862.832 L349.035 856.933 L352.276 850.976 L355.518 844.963 L358.759 838.894 L362 832.77 L365.242 826.592 L368.483 820.362 L371.725 814.079 L374.966 807.747 L378.207 801.366 L381.449 794.937 L384.69 788.462 L387.931 781.944 L391.173 775.384 L394.414 768.785 L397.656 762.148 L400.897 755.476 L404.138 748.773 L407.38 742.04 L410.621 735.282 L413.863 728.502 L417.104 721.703 L420.345 714.889 L423.587 708.066 L426.828 701.237 L430.069 694.408 L433.311 687.583 L436.552 680.77 L439.794 673.973 L443.035 667.2 L446.276 660.458 L449.518 653.754 L452.759 647.097 L456.001 640.494 L459.242 633.955 L462.483 627.49 L465.725 621.11 L468.966 614.824 L472.208 608.644 L475.449 602.582 L478.69 596.651 L481.932 590.863 L485.173 585.229 L488.414 579.751 L491.656 574.431 L494.897 569.268 L498.139 564.264 L501.38 559.421 L504.621 554.739 L507.863 550.223 L511.104 545.874 L514.346 541.695 L517.587 537.69 L520.828 533.86 L524.07 530.202 L527.311 526.712 L530.552 523.385 L533.794 520.21 L537.035 517.178 L540.277 514.276 L543.518 511.497 L546.759 508.83 L550.001 506.269 L553.242 503.807 L556.484 501.437 L559.725 499.156 L562.966 496.961 L566.208 494.849 L569.449 492.821 L572.69 490.877 L575.932 489.02 L579.173 487.252 L582.415 485.579 L585.656 484.005 L588.897 482.537 L592.139 481.182 L595.38 479.947 L598.622 478.842 L601.863 477.869 L605.104 477.033 L608.346 476.339 L611.587 475.792 L614.828 475.393 L618.07 475.136 L621.311 475.007 L624.553 474.989 L627.794 475.065 L631.035 475.222 L634.277 475.443 L637.518 475.714 L640.76 476.024 L644.001 476.358 L647.242 476.706 L650.484 477.056 L653.725 477.399 L656.966 477.725 L660.208 478.026 L663.449 478.295 L666.691 478.525 L669.932 478.709 L673.173 478.842 L676.415 478.921 L679.656 478.94 L682.898 478.896 L686.139 478.787 L689.38 478.611 L692.622 478.366 L695.863 478.052 L699.104 477.668 L702.346 477.215 L705.587 476.693 L708.829 476.104 L712.07 475.45 L715.311 474.735 L718.553 473.96 L721.794 473.13 L725.036 472.25 L728.277 471.325 L731.518 470.359 L734.76 469.36 L738.001 468.335 L741.242 467.291 L744.484 466.235 L747.725 465.178 L750.967 464.129 L754.208 463.097 L757.449 462.094 L760.691 461.13 L763.932 460.219 L767.174 459.372 L770.415 458.602 L773.656 457.923 L776.898 457.349 L780.139 456.893 L783.381 456.572 L786.622 456.398 L789.863 456.386 L793.105 456.55 L796.346 456.895 L799.587 457.416 L802.829 458.103 L806.07 458.948 L809.312 459.941 L812.553 461.073 L815.794 462.337 L819.036 463.723 L822.277 465.223 L825.519 466.832 L828.76 468.54 L832.001 470.344 L835.243 472.236 L838.484 474.211 L841.725 476.266 L844.967 478.397 L848.208 480.6 L851.45 482.874 L854.691 485.216 L857.932 487.626 L861.174 490.103 L864.415 492.648 L867.657 495.261 L870.898 497.943 L874.139 500.698 L877.381 503.526 L880.622 506.432 L883.863 509.419 L887.105 512.49 L890.346 515.65 L893.588 518.903 L896.829 522.255 L900.07 525.711 L903.312 529.276 L906.553 532.955 L909.795 536.752 L913.036 540.659 L916.277 544.665 L919.519 548.762 L922.76 552.939 L926.001 557.186 L929.243 561.495 L932.484 565.857 L935.726 570.261 L938.967 574.701 L942.208 579.167 L945.45 583.653 L948.691 588.15 L951.933 592.651 L955.174 597.15 L958.415 601.639 L961.657 606.113 L964.898 610.566 L968.139 614.992 L971.381 619.386 L974.622 623.743 L977.864 628.058 L981.105 632.327 L984.346 636.546 L987.588 640.71 L990.829 644.817 L994.071 648.863 L997.312 652.845 L1000.55 656.76 L1003.79 660.606 L1007.04 664.38 L1010.28 668.081 L1013.52 671.706 L1016.76 675.254 L1020 678.724 L1023.24 682.115 L1026.48 685.425 L1029.73 688.655 L1032.97 691.804 L1036.21 694.872 L1039.45 697.859 L1042.69 700.766 L1045.93 703.593 L1049.17 706.341 L1052.42 709.011 L1055.66 711.606 L1058.9 714.126 L1062.14 716.574 L1065.38 718.952 L1068.62 721.264 L1071.86 723.511 L1075.11 725.698 L1078.35 727.828 L1081.59 729.905 L1084.83 731.934 L1088.07 733.92 L1091.31 735.867 L1094.55 737.782 L1097.79 739.67 L1101.04 741.539 L1104.28 743.394 L1107.52 745.244 L1110.76 747.095 L1114 748.957 L1117.24 750.837 L1120.48 752.745 L1123.73 754.69 L1126.97 756.682 L1130.21 758.73 L1133.45 760.844 L1136.69 763.036 L1139.93 765.316 L1143.17 767.692 L1146.42 770.167 L1149.66 772.741 L1152.9 775.416 L1156.14 778.193 L1159.38 781.071 L1162.62 784.054 L1165.86 787.142 L1169.11 790.336 L1172.35 793.64 L1175.59 797.055 L1178.83 800.583 L1182.07 804.228 L1185.31 807.994 L1188.55 811.882 L1191.8 815.898 L1195.04 820.044 L1198.28 824.326 L1201.52 828.748 L1204.76 833.313 L1208 838.028 L1211.24 842.897 L1214.48 847.924 L1217.73 853.115 L1220.97 858.471 L1224.21 863.986 L1227.45 869.648 L1230.69 875.448 L1233.93 881.376 L1237.17 887.421 L1240.42 893.574 L1243.66 899.827 L1246.9 906.168 L1250.14 912.591 L1253.38 919.087 L1256.62 925.647 L1259.86 932.264 L1263.11 938.93 L1266.35 945.64 L1269.59 952.385 L1272.83 959.16 L1276.07 965.96 L1279.31 972.777 L1282.55 979.608 L1285.8 986.447 L1289.04 993.29 L1292.28 1000.13 L1295.52 1006.97 L1298.76 1013.8 L1302 1020.61 L1305.24 1027.41 L1308.48 1034.2 L1311.73 1040.96 L1314.97 1047.69 L1318.21 1054.4 L1321.45 1061.08 L1324.69 1067.72 L1327.93 1074.34 L1331.17 1080.91 L1334.42 1087.45 L1337.66 1093.95 L1340.9 1100.41 L1344.14 1106.83 L1347.38 1113.2 L1350.62 1119.53 L1353.86 1125.81 L1357.11 1132.05 L1360.35 1138.24 L1363.59 1144.37 L1366.83 1150.46 L1370.07 1156.5 L1373.31 1162.48 L1376.55 1168.41 L1379.8 1174.29 L1383.04 1180.12 L1386.28 1185.89 L1389.52 1191.6 L1392.76 1197.26 L1396 1202.87 L1399.24 1208.42 L1402.49 1213.91 L1405.73 1219.34 L1408.97 1224.72 L1412.21 1230.04 L1415.45 1235.3 L1418.69 1240.51 L1421.93 1245.65 L1425.17 1250.74 L1428.42 1255.76 L1431.66 1260.73 L1434.9 1265.64 L1438.14 1270.48 L1441.38 1275.27 L1444.62 1280 L1447.86 1284.66 L1451.11 1289.27 L1454.35 1293.81 L1457.59 1298.3 L1460.83 1302.72 L1464.07 1307.08 L1467.31 1311.37 L1470.55 1315.61 L1473.8 1319.78 L1477.04 1323.89 L1480.28 1327.94 L1483.52 1331.92 L1486.76 1335.84 L1490 1339.69 L1493.24 1343.49 L1496.49 1347.21 L1499.73 1350.88 L1502.97 1354.47 L1506.21 1358 L1509.45 1361.47 L1512.69 1364.87 L1515.93 1368.2 L1519.18 1371.47 L1522.42 1374.67 L1525.66 1377.8 L1528.9 1380.87 L1532.14 1383.87 L1535.38 1386.8 L1538.62 1389.66 L1541.86 1392.45 L1545.11 1395.17 L1548.35 1397.82 L1551.59 1400.4 L1554.83 1402.92 L1558.07 1405.36 L1561.31 1407.73 L1564.55 1410.03 L1567.8 1412.25 L1571.04 1414.41 L1574.28 1416.49 L1577.52 1418.5 L1580.76 1420.44 L1584 1422.31 L1587.24 1424.1 L1590.49 1425.82 L1593.73 1427.47 L1596.97 1429.04 L1600.21 1430.54 L1603.45 1431.97 L1606.69 1433.32 L1609.93 1434.6 L1613.18 1435.81 L1616.42 1436.94 L1619.66 1438.01 L1622.9 1439 L1626.14 1439.92 L1629.38 1440.76 L1632.62 1441.54 L1635.86 1442.25 L1639.11 1442.88 L1642.35 1443.45 L1645.59 1443.96 L1648.83 1444.39 L1652.07 1444.76 L1655.31 1445.07 L1658.55 1445.32 L1661.8 1445.5 L1665.04 1445.63 L1668.28 1445.7 L1671.52 1445.72 L1674.76 1445.68 L1678 1445.59 L1681.24 1445.45 L1684.49 1445.27 L1687.73 1445.04 L1690.97 1444.77 L1694.21 1444.46 L1697.45 1444.12 L1700.69 1443.74 L1703.93 1443.33 L1707.18 1442.89 L1710.42 1442.43 L1713.66 1441.94 L1716.9 1441.42 L1720.14 1440.87 L1723.38 1440.28 L1726.62 1439.65 L1729.87 1438.98 L1733.11 1438.26 L1736.35 1437.49 L1739.59 1436.66 L1742.83 1435.77 L1746.07 1434.82 L1749.31 1433.8 L1752.55 1432.71 L1755.8 1431.55 L1759.04 1430.32 L1762.28 1429.01 L1765.52 1427.62 L1768.76 1426.15 L1772 1424.6 L1775.24 1422.97 L1778.49 1421.26 L1781.73 1419.47 L1784.97 1417.6 L1788.21 1415.65 L1791.45 1413.64 L1794.69 1411.55 L1797.93 1409.4 L1801.18 1407.18 L1804.42 1404.91 L1807.66 1402.59 L1810.9 1400.23 L1814.14 1397.83 L1817.38 1395.41 L1820.62 1392.97 L1823.87 1390.52 L1827.11 1388.08 L1830.35 1385.66 L1833.59 1383.26 L1836.83 1380.9 L1840.07 1378.6 L1843.31 1376.37 L1846.55 1374.22 L1849.8 1372.17 L1853.04 1370.22 L1856.28 1368.37 L1859.52 1366.63 L1862.76 1365 L1866 1363.46 L1869.24 1362.01 L1872.49 1360.62 L1875.73 1359.29 L1878.97 1358 L1882.21 1356.75 L1885.45 1355.51 L1888.69 1354.29 L1891.93 1353.06 L1895.18 1351.82 L1898.42 1350.56 L1901.66 1349.28 L1904.9 1347.96 L1908.14 1346.6 L1911.38 1345.2 L1914.62 1343.75 L1917.87 1342.25 L1921.11 1340.69 L1924.35 1339.07 L1927.59 1337.39 L1930.83 1335.66 L1934.07 1333.87 L1937.31 1332.02 L1940.56 1330.12 L1943.8 1328.17 L1947.04 1326.18 L1950.28 1324.13 L1953.52 1322.06 L1956.76 1319.94 L1960 1317.81 L1963.24 1315.65 L1966.49 1313.47 L1969.73 1311.28 L1972.97 1309.07 L1976.21 1306.83 L1979.45 1304.56 L1982.69 1302.26 L1985.93 1299.93 L1989.18 1297.56 L1992.42 1295.16 L1995.66 1292.72 L1998.9 1290.25 L2002.14 1287.75 L2005.38 1285.22 L2008.62 1282.66 L2011.87 1280.07 L2015.11 1277.47 L2018.35 1274.85 L2021.59 1272.22 L2024.83 1269.58 L2028.07 1266.95 L2031.31 1264.33 L2034.56 1261.73 L2037.8 1259.15 L2041.04 1256.62 L2044.28 1254.13 L2047.52 1251.69 L2050.76 1249.32 L2054 1247.04 L2057.24 1244.84 L2060.49 1242.74 L2063.73 1240.75 L2066.97 1238.87 L2070.21 1237.1 L2073.45 1235.44 L2076.69 1233.89 L2079.93 1232.45 L2083.18 1231.11 L2086.42 1229.87 L2089.66 1228.71 L2092.9 1227.64 L2096.14 1226.63 L2099.38 1225.68 L2102.62 1224.79 L2105.87 1223.94 L2109.11 1223.12 L2112.35 1222.34 L2115.59 1221.58 L2118.83 1220.83 L2122.07 1220.09 L2125.31 1219.37 L2128.56 1218.64 L2131.8 1217.9 L2135.04 1217.17 L2138.28 1216.42 L2141.52 1215.66 L2144.76 1214.88 L2148 1214.09 L2151.25 1213.28 L2154.49 1212.45 L2157.73 1211.6 L2160.97 1210.74 L2164.21 1209.85 L2167.45 1208.96 L2170.69 1208.04 L2173.93 1207.12 L2177.18 1206.18 L2180.42 1205.24 L2183.66 1204.3 L2186.9 1203.35 L2190.14 1202.41 L2193.38 1201.48 L2196.62 1200.56 L2199.87 1199.67 L2203.11 1198.8 L2206.35 1197.96 L2209.59 1197.16 L2212.83 1196.4 L2216.07 1195.7 L2219.31 1195.05 L2222.56 1194.48 L2225.8 1193.97 L2229.04 1193.55 L2232.28 1193.22 L2235.52 1192.98 L2238.76 1192.85 L2242 1192.83 L2245.25 1192.93 L2248.49 1193.15 L2251.73 1193.5 L2254.97 1193.96 L2258.21 1194.53 L2261.45 1195.2 L2264.69 1195.97 L2267.94 1196.84 L2271.18 1197.79 L2274.42 1198.82 L2277.66 1199.92 L2280.9 1201.09 L2284.14 1202.33 L2287.38 1203.62 L2290.62 1204.97 L2290.62 618.128 L2287.38 622.917 L2284.14 627.673 L2280.9 632.391 L2277.66 637.064 L2274.42 641.686 L2271.18 646.252 L2267.94 650.756 L2264.69 655.191 L2261.45 659.551 L2258.21 663.829 L2254.97 668.018 L2251.73 672.113 L2248.49 676.106 L2245.25 679.992 L2242 683.766 L2238.76 687.435 L2235.52 691.007 L2232.28 694.49 L2229.04 697.894 L2225.8 701.226 L2222.56 704.496 L2219.31 707.712 L2216.07 710.882 L2212.83 714.015 L2209.59 717.119 L2206.35 720.201 L2203.11 723.269 L2199.87 726.33 L2196.62 729.39 L2193.38 732.458 L2190.14 735.538 L2186.9 738.636 L2183.66 741.757 L2180.42 744.907 L2177.18 748.09 L2173.93 751.31 L2170.69 754.57 L2167.45 757.874 L2164.21 761.224 L2160.97 764.622 L2157.73 768.071 L2154.49 771.57 L2151.25 775.122 L2148 778.725 L2144.76 782.38 L2141.52 786.087 L2138.28 789.843 L2135.04 793.647 L2131.8 797.497 L2128.56 801.389 L2125.31 805.32 L2122.07 809.286 L2118.83 813.283 L2115.59 817.306 L2112.35 821.349 L2109.11 825.405 L2105.87 829.469 L2102.62 833.533 L2099.38 837.59 L2096.14 841.631 L2092.9 845.647 L2089.66 849.631 L2086.42 853.574 L2083.18 857.464 L2079.93 861.295 L2076.69 865.057 L2073.45 868.751 L2070.21 872.378 L2066.97 875.942 L2063.73 879.444 L2060.49 882.885 L2057.24 886.271 L2054 889.608 L2050.76 892.906 L2047.52 896.173 L2044.28 899.418 L2041.04 902.65 L2037.8 905.877 L2034.56 909.105 L2031.31 912.342 L2028.07 915.595 L2024.83 918.868 L2021.59 922.168 L2018.35 925.497 L2015.11 928.861 L2011.87 932.261 L2008.62 935.701 L2005.38 939.181 L2002.14 942.702 L1998.9 946.264 L1995.66 949.866 L1992.42 953.508 L1989.18 957.185 L1985.93 960.896 L1982.69 964.637 L1979.45 968.402 L1976.21 972.188 L1972.97 975.988 L1969.73 979.796 L1966.49 983.604 L1963.24 987.405 L1960 991.193 L1956.76 994.962 L1953.52 998.709 L1950.28 1002.43 L1947.04 1006.12 L1943.8 1009.77 L1940.56 1013.38 L1937.31 1016.94 L1934.07 1020.44 L1930.83 1023.87 L1927.59 1027.23 L1924.35 1030.5 L1921.11 1033.67 L1917.87 1036.73 L1914.62 1039.66 L1911.38 1042.46 L1908.14 1045.12 L1904.9 1047.65 L1901.66 1050.04 L1898.42 1052.3 L1895.18 1054.43 L1891.93 1056.42 L1888.69 1058.27 L1885.45 1059.98 L1882.21 1061.54 L1878.97 1062.95 L1875.73 1064.19 L1872.49 1065.27 L1869.24 1066.18 L1866 1066.9 L1862.76 1067.42 L1859.52 1067.75 L1856.28 1067.86 L1853.04 1067.76 L1849.8 1067.46 L1846.55 1066.96 L1843.31 1066.27 L1840.07 1065.4 L1836.83 1064.37 L1833.59 1063.19 L1830.35 1061.88 L1827.11 1060.45 L1823.87 1058.91 L1820.62 1057.27 L1817.38 1055.54 L1814.14 1053.73 L1810.9 1051.85 L1807.66 1049.91 L1804.42 1047.91 L1801.18 1045.86 L1797.93 1043.76 L1794.69 1041.62 L1791.45 1039.43 L1788.21 1037.21 L1784.97 1034.95 L1781.73 1032.65 L1778.49 1030.31 L1775.24 1027.94 L1772 1025.52 L1768.76 1023.05 L1765.52 1020.54 L1762.28 1017.98 L1759.04 1015.36 L1755.8 1012.67 L1752.55 1009.92 L1749.31 1007.1 L1746.07 1004.19 L1742.83 1001.19 L1739.59 998.098 L1736.35 994.899 L1733.11 991.586 L1729.87 988.15 L1726.62 984.581 L1723.38 980.87 L1720.14 977.007 L1716.9 972.983 L1713.66 968.786 L1710.42 964.408 L1707.18 959.841 L1703.93 955.091 L1700.69 950.168 L1697.45 945.082 L1694.21 939.842 L1690.97 934.458 L1687.73 928.938 L1684.49 923.292 L1681.24 917.528 L1678 911.654 L1674.76 905.68 L1671.52 899.613 L1668.28 893.46 L1665.04 887.23 L1661.8 880.93 L1658.55 874.566 L1655.31 868.145 L1652.07 861.673 L1648.83 855.157 L1645.59 848.603 L1642.35 842.015 L1639.11 835.401 L1635.86 828.763 L1632.62 822.109 L1629.38 815.441 L1626.14 808.766 L1622.9 802.086 L1619.66 795.406 L1616.42 788.73 L1613.18 782.062 L1609.93 775.405 L1606.69 768.763 L1603.45 762.138 L1600.21 755.534 L1596.97 748.954 L1593.73 742.4 L1590.49 735.875 L1587.24 729.381 L1584 722.922 L1580.76 716.499 L1577.52 710.113 L1574.28 703.769 L1571.04 697.466 L1567.8 691.208 L1564.55 684.995 L1561.31 678.831 L1558.07 672.715 L1554.83 666.65 L1551.59 660.637 L1548.35 654.677 L1545.11 648.772 L1541.86 642.923 L1538.62 637.131 L1535.38 631.397 L1532.14 625.723 L1528.9 620.109 L1525.66 614.556 L1522.42 609.065 L1519.18 603.637 L1515.93 598.273 L1512.69 592.974 L1509.45 587.74 L1506.21 582.572 L1502.97 577.47 L1499.73 572.436 L1496.49 567.469 L1493.24 562.571 L1490 557.742 L1486.76 552.982 L1483.52 548.293 L1480.28 543.673 L1477.04 539.125 L1473.8 534.647 L1470.55 530.241 L1467.31 525.907 L1464.07 521.646 L1460.83 517.457 L1457.59 513.34 L1454.35 509.297 L1451.11 505.327 L1447.86 501.431 L1444.62 497.609 L1441.38 493.86 L1438.14 490.186 L1434.9 486.586 L1431.66 483.061 L1428.42 479.61 L1425.17 476.233 L1421.93 472.932 L1418.69 469.705 L1415.45 466.553 L1412.21 463.476 L1408.97 460.474 L1405.73 457.546 L1402.49 454.694 L1399.24 451.916 L1396 449.212 L1392.76 446.583 L1389.52 444.028 L1386.28 441.547 L1383.04 439.139 L1379.8 436.805 L1376.55 434.545 L1373.31 432.357 L1370.07 430.241 L1366.83 428.197 L1363.59 426.225 L1360.35 424.324 L1357.11 422.493 L1353.86 420.731 L1350.62 419.039 L1347.38 417.414 L1344.14 415.857 L1340.9 414.366 L1337.66 412.94 L1334.42 411.578 L1331.17 410.279 L1327.93 409.041 L1324.69 407.863 L1321.45 406.744 L1318.21 405.682 L1314.97 404.674 L1311.73 403.72 L1308.48 402.817 L1305.24 401.962 L1302 401.153 L1298.76 400.388 L1295.52 399.663 L1292.28 398.977 L1289.04 398.325 L1285.8 397.703 L1282.55 397.109 L1279.31 396.539 L1276.07 395.987 L1272.83 395.45 L1269.59 394.923 L1266.35 394.401 L1263.11 393.878 L1259.86 393.348 L1256.62 392.806 L1253.38 392.246 L1250.14 391.66 L1246.9 391.041 L1243.66 390.383 L1240.42 389.677 L1237.17 388.917 L1233.93 388.092 L1230.69 387.196 L1227.45 386.22 L1224.21 385.154 L1220.97 383.991 L1217.73 382.721 L1214.48 381.338 L1211.24 379.84 L1208 378.228 L1204.76 376.505 L1201.52 374.67 L1198.28 372.725 L1195.04 370.672 L1191.8 368.51 L1188.55 366.241 L1185.31 363.864 L1182.07 361.382 L1178.83 358.793 L1175.59 356.097 L1172.35 353.294 L1169.11 350.383 L1165.86 347.364 L1162.62 344.235 L1159.38 340.995 L1156.14 337.642 L1152.9 334.173 L1149.66 330.589 L1146.42 326.885 L1143.17 323.06 L1139.93 319.111 L1136.69 315.039 L1133.45 310.852 L1130.21 306.562 L1126.97 302.179 L1123.73 297.714 L1120.48 293.177 L1117.24 288.58 L1114 283.931 L1110.76 279.241 L1107.52 274.519 L1104.28 269.773 L1101.04 265.012 L1097.79 260.245 L1094.55 255.479 L1091.31 250.72 L1088.07 245.978 L1084.83 241.256 L1081.59 236.563 L1078.35 231.904 L1075.11 227.284 L1071.86 222.709 L1068.62 218.183 L1065.38 213.711 L1062.14 209.298 L1058.9 204.946 L1055.66 200.661 L1052.42 196.444 L1049.17 192.301 L1045.93 188.232 L1042.69 184.243 L1039.45 180.333 L1036.21 176.507 L1032.97 172.766 L1029.73 169.112 L1026.48 165.547 L1023.24 162.073 L1020 158.689 L1016.76 155.399 L1013.52 152.202 L1010.28 149.1 L1007.04 146.094 L1003.79 143.182 L1000.55 140.367 L997.312 137.648 L994.071 135.026 L990.829 132.499 L987.588 130.067 L984.346 127.731 L981.105 125.488 L977.864 123.339 L974.622 121.283 L971.381 119.317 L968.139 117.44 L964.898 115.651 L961.657 113.948 L958.415 112.328 L955.174 110.79 L951.933 109.331 L948.691 107.948 L945.45 106.638 L942.208 105.399 L938.967 104.226 L935.726 103.117 L932.484 102.066 L929.243 101.072 L926.001 100.129 L922.76 99.2335 L919.519 98.3808 L916.277 97.5666 L913.036 96.7864 L909.795 96.0357 L906.553 95.31 L903.312 94.6059 L900.07 93.9251 L896.829 93.2702 L893.588 92.6439 L890.346 92.0491 L887.105 91.4883 L883.863 90.9641 L880.622 90.4787 L877.381 90.0341 L874.139 89.6323 L870.898 89.2746 L867.657 88.9622 L864.415 88.6959 L861.174 88.476 L857.932 88.3025 L854.691 88.1747 L851.45 88.0917 L848.208 88.052 L844.967 88.0536 L841.725 88.0939 L838.484 88.1699 L835.243 88.278 L832.001 88.4141 L828.76 88.5738 L825.519 88.7519 L822.277 88.9428 L819.036 89.1408 L815.794 89.3394 L812.553 89.532 L809.312 89.7116 L806.07 89.8713 L802.829 90.0037 L799.587 90.1017 L796.346 90.1582 L793.105 90.1663 L789.863 90.1199 L786.622 90.0176 L783.381 89.867 L780.139 89.6787 L776.898 89.463 L773.656 89.2305 L770.415 88.9918 L767.174 88.7572 L763.932 88.5367 L760.691 88.3403 L757.449 88.1772 L754.208 88.0566 L750.967 87.9869 L747.725 87.9763 L744.484 88.0322 L741.242 88.1617 L738.001 88.3714 L734.76 88.6673 L731.518 89.0548 L728.277 89.539 L725.036 90.1244 L721.794 90.8148 L718.553 91.6139 L715.311 92.5245 L712.07 93.5492 L708.829 94.6901 L705.587 95.9487 L702.346 97.3261 L699.104 98.8229 L695.863 100.439 L692.622 102.175 L689.38 104.029 L686.139 106.001 L682.898 108.088 L679.656 110.288 L676.415 112.599 L673.173 115.017 L669.932 117.539 L666.691 120.159 L663.449 122.873 L660.208 125.676 L656.966 128.561 L653.725 131.521 L650.484 134.548 L647.242 137.635 L644.001 140.772 L640.76 143.95 L637.518 147.158 L634.277 150.385 L631.035 153.619 L627.794 156.848 L624.553 160.058 L621.311 163.237 L618.07 166.37 L614.828 169.442 L611.587 172.44 L608.346 175.356 L605.104 178.186 L601.863 180.925 L598.622 183.57 L595.38 186.117 L592.139 188.563 L588.897 190.914 L585.656 193.175 L582.415 195.353 L579.173 197.452 L575.932 199.477 L572.69 201.431 L569.449 203.315 L566.208 205.132 L562.966 206.881 L559.725 208.56 L556.484 210.168 L553.242 211.699 L550.001 213.151 L546.759 214.516 L543.518 215.787 L540.277 216.956 L537.035 218.014 L533.794 218.951 L530.552 219.756 L527.311 220.419 L524.07 220.93 L520.828 221.285 L517.587 221.482 L514.346 221.519 L511.104 221.401 L507.863 221.135 L504.621 220.726 L501.38 220.182 L498.139 219.506 L494.897 218.705 L491.656 217.784 L488.414 216.747 L485.173 215.6 L481.932 214.345 L478.69 212.989 L475.449 211.541 L472.208 210.009 L468.966 208.404 L465.725 206.734 L462.483 205.008 L459.242 203.235 L456.001 201.421 L452.759 199.574 L449.518 197.701 L446.276 195.807 L443.035 193.9 L439.794 191.983 L436.552 190.062 L433.311 188.141 L430.069 186.225 L426.828 184.317 L423.587 182.422 L420.345 180.541 L417.104 178.678 L413.863 176.836 L410.621 175.016 L407.38 173.222 L404.138 171.455 L400.897 169.716 L397.656 168.008 L394.414 166.331 L391.173 164.687 L387.931 163.077 L384.69 161.501 L381.449 159.962 L378.207 158.458 L374.966 156.991 L371.725 155.562 L368.483 154.17 L365.242 152.816 L362 151.5 L358.759 150.222 L355.518 148.983 L352.276 147.782 L349.035 146.619 L345.793 145.495 L342.552 144.408 L339.311 143.36 L336.069 142.348 L332.828 141.375 L329.587 140.438 L326.345 139.538 L323.104 138.674 L319.862 137.846 L316.621 137.054 L313.38 136.297 L310.138 135.574 L306.897 134.886 L303.655 134.231 L300.414 133.609 L297.173 133.02 L293.931 132.463 L290.69 131.938 L287.449 131.444 L284.207 130.981 L280.966 130.547 L277.724 130.143 L274.483 129.768 L271.242 129.421 L268 129.101 L264.759 128.81 L261.517 128.544 L258.276 128.305 L255.035 128.091  Z" fill="#3da44d" fill-rule="evenodd" fill-opacity="0.1"/>
<polyline clip-path="url(#clip522)" style="stroke:#3da44d; stroke-linecap:round; stroke-linejoin:round; stroke-width:8; stroke-opacity:1; fill:none" points="255.035,565.993 258.276,563.977 261.517,561.946 264.759,559.899 268,557.837 271.242,555.76 274.483,553.668 277.724,551.561 280.966,549.44 284.207,547.303 287.449,545.152 290.69,542.987 293.931,540.807 297.173,538.614 300.414,536.406 303.655,534.185 306.897,531.95 310.138,529.702 313.38,527.441 316.621,525.166 319.862,522.88 323.104,520.58 326.345,518.269 329.587,515.946 332.828,513.611 336.069,511.265 339.311,508.909 342.552,506.541 345.793,504.163 349.035,501.776 352.276,499.379 355.518,496.973 358.759,494.558 362,492.135 365.242,489.704 368.483,487.266 371.725,484.821 374.966,482.369 378.207,479.912 381.449,477.449 384.69,474.982 387.931,472.511 391.173,470.036 394.414,467.558 397.656,465.078 400.897,462.596 404.138,460.114 407.38,457.631 410.621,455.149 413.863,452.669 417.104,450.19 420.345,447.715 423.587,445.244 426.828,442.777 430.069,440.316 433.311,437.862 436.552,435.416 439.794,432.978 443.035,430.55 446.276,428.133 449.518,425.727 452.759,423.335 456.001,420.957 459.242,418.595 462.483,416.249 465.725,413.922 468.966,411.614 472.208,409.326 475.449,407.061 478.69,404.82 481.932,402.604 485.173,400.414 488.414,398.249 491.656,396.107 494.897,393.987 498.139,391.885 501.38,389.801 504.621,387.733 507.863,385.679 511.104,383.638 514.346,381.607 517.587,379.586 520.828,377.572 524.07,375.566 527.311,373.566 530.552,371.571 533.794,369.58 537.035,367.596 540.277,365.616 543.518,363.642 546.759,361.673 550.001,359.71 553.242,357.753 556.484,355.802 559.725,353.858 562.966,351.921 566.208,349.991 569.449,348.068 572.69,346.154 575.932,344.249 579.173,342.352 582.415,340.466 585.656,338.59 588.897,336.725 592.139,334.872 595.38,333.032 598.622,331.206 601.863,329.397 605.104,327.61 608.346,325.848 611.587,324.116 614.828,322.417 618.07,320.753 621.311,319.122 624.553,317.524 627.794,315.957 631.035,314.42 634.277,312.914 637.518,311.436 640.76,309.987 644.001,308.565 647.242,307.17 650.484,305.802 653.725,304.46 656.966,303.143 660.208,301.851 663.449,300.584 666.691,299.342 669.932,298.124 673.173,296.93 676.415,295.76 679.656,294.614 682.898,293.492 686.139,292.394 689.38,291.32 692.622,290.271 695.863,289.246 699.104,288.245 702.346,287.27 705.587,286.321 708.829,285.397 712.07,284.5 715.311,283.63 718.553,282.787 721.794,281.973 725.036,281.187 728.277,280.432 731.518,279.707 734.76,279.014 738.001,278.353 741.242,277.726 744.484,277.134 747.725,276.577 750.967,276.058 754.208,275.577 757.449,275.136 760.691,274.735 763.932,274.378 767.174,274.064 770.415,273.797 773.656,273.577 776.898,273.406 780.139,273.286 783.381,273.219 786.622,273.208 789.863,273.253 793.105,273.358 796.346,273.527 799.587,273.759 802.829,274.053 806.07,274.41 809.312,274.826 812.553,275.303 815.794,275.838 819.036,276.432 822.277,277.083 825.519,277.792 828.76,278.557 832.001,279.379 835.243,280.257 838.484,281.191 841.725,282.18 844.967,283.225 848.208,284.326 851.45,285.483 854.691,286.696 857.932,287.964 861.174,289.29 864.415,290.672 867.657,292.112 870.898,293.609 874.139,295.165 877.381,296.78 880.622,298.455 883.863,300.191 887.105,301.989 890.346,303.849 893.588,305.774 896.829,307.763 900.07,309.818 903.312,311.941 906.553,314.132 909.795,316.394 913.036,318.722 916.277,321.116 919.519,323.571 922.76,326.086 926.001,328.658 929.243,331.284 932.484,333.961 935.726,336.689 938.967,339.463 942.208,342.283 945.45,345.146 948.691,348.049 951.933,350.991 955.174,353.97 958.415,356.984 961.657,360.031 964.898,363.109 968.139,366.216 971.381,369.351 974.622,372.513 977.864,375.699 981.105,378.908 984.346,382.138 987.588,385.389 990.829,388.658 994.071,391.944 997.312,395.247 1000.55,398.564 1003.79,401.894 1007.04,405.237 1010.28,408.59 1013.52,411.954 1016.76,415.326 1020,418.707 1023.24,422.094 1026.48,425.486 1029.73,428.884 1032.97,432.285 1036.21,435.69 1039.45,439.096 1042.69,442.504 1045.93,445.913 1049.17,449.321 1052.42,452.728 1055.66,456.133 1058.9,459.536 1062.14,462.936 1065.38,466.332 1068.62,469.723 1071.86,473.11 1075.11,476.491 1078.35,479.866 1081.59,483.234 1084.83,486.595 1088.07,489.949 1091.31,493.294 1094.55,496.63 1097.79,499.958 1101.04,503.276 1104.28,506.584 1107.52,509.881 1110.76,513.168 1114,516.444 1117.24,519.709 1120.48,522.961 1123.73,526.202 1126.97,529.43 1130.21,532.646 1133.45,535.848 1136.69,539.038 1139.93,542.213 1143.17,545.376 1146.42,548.526 1149.66,551.665 1152.9,554.795 1156.14,557.917 1159.38,561.033 1162.62,564.145 1165.86,567.253 1169.11,570.36 1172.35,573.467 1175.59,576.576 1178.83,579.688 1182.07,582.805 1185.31,585.929 1188.55,589.061 1191.8,592.204 1195.04,595.358 1198.28,598.526 1201.52,601.709 1204.76,604.909 1208,608.128 1211.24,611.368 1214.48,614.631 1217.73,617.918 1220.97,621.231 1224.21,624.57 1227.45,627.934 1230.69,631.322 1233.93,634.734 1237.17,638.169 1240.42,641.626 1243.66,645.105 1246.9,648.605 1250.14,652.126 1253.38,655.666 1256.62,659.227 1259.86,662.806 1263.11,666.404 1266.35,670.02 1269.59,673.654 1272.83,677.305 1276.07,680.973 1279.31,684.658 1282.55,688.359 1285.8,692.075 1289.04,695.807 1292.28,699.554 1295.52,703.316 1298.76,707.093 1302,710.883 1305.24,714.688 1308.48,718.506 1311.73,722.338 1314.97,726.182 1318.21,730.04 1321.45,733.911 1324.69,737.794 1327.93,741.689 1331.17,745.596 1334.42,749.516 1337.66,753.447 1340.9,757.39 1344.14,761.344 1347.38,765.309 1350.62,769.285 1353.86,773.273 1357.11,777.271 1360.35,781.28 1363.59,785.299 1366.83,789.328 1370.07,793.368 1373.31,797.418 1376.55,801.478 1379.8,805.548 1383.04,809.627 1386.28,813.716 1389.52,817.815 1392.76,821.923 1396,826.04 1399.24,830.166 1402.49,834.301 1405.73,838.445 1408.97,842.597 1412.21,846.758 1415.45,850.927 1418.69,855.105 1421.93,859.291 1425.17,863.485 1428.42,867.686 1431.66,871.895 1434.9,876.111 1438.14,880.335 1441.38,884.566 1444.62,888.804 1447.86,893.048 1451.11,897.299 1454.35,901.556 1457.59,905.819 1460.83,910.087 1464.07,914.361 1467.31,918.641 1470.55,922.925 1473.8,927.214 1477.04,931.508 1480.28,935.805 1483.52,940.106 1486.76,944.411 1490,948.719 1493.24,953.029 1496.49,957.341 1499.73,961.655 1502.97,965.971 1506.21,970.288 1509.45,974.605 1512.69,978.922 1515.93,983.238 1519.18,987.554 1522.42,991.868 1525.66,996.18 1528.9,1000.49 1532.14,1004.79 1535.38,1009.1 1538.62,1013.39 1541.86,1017.68 1545.11,1021.97 1548.35,1026.25 1551.59,1030.52 1554.83,1034.78 1558.07,1039.04 1561.31,1043.28 1564.55,1047.51 1567.8,1051.73 1571.04,1055.94 1574.28,1060.13 1577.52,1064.31 1580.76,1068.47 1584,1072.62 1587.24,1076.74 1590.49,1080.85 1593.73,1084.93 1596.97,1089 1600.21,1093.04 1603.45,1097.05 1606.69,1101.04 1609.93,1105 1613.18,1108.94 1616.42,1112.84 1619.66,1116.71 1622.9,1120.54 1626.14,1124.34 1629.38,1128.1 1632.62,1131.82 1635.86,1135.5 1639.11,1139.14 1642.35,1142.73 1645.59,1146.28 1648.83,1149.78 1652.07,1153.22 1655.31,1156.61 1658.55,1159.94 1661.8,1163.22 1665.04,1166.43 1668.28,1169.58 1671.52,1172.66 1674.76,1175.68 1678,1178.62 1681.24,1181.49 1684.49,1184.28 1687.73,1186.99 1690.97,1189.61 1694.21,1192.15 1697.45,1194.6 1700.69,1196.95 1703.93,1199.21 1707.18,1201.37 1710.42,1203.42 1713.66,1205.36 1716.9,1207.2 1720.14,1208.94 1723.38,1210.57 1726.62,1212.12 1729.87,1213.56 1733.11,1214.92 1736.35,1216.19 1739.59,1217.38 1742.83,1218.48 1746.07,1219.5 1749.31,1220.45 1752.55,1221.32 1755.8,1222.11 1759.04,1222.84 1762.28,1223.49 1765.52,1224.08 1768.76,1224.6 1772,1225.06 1775.24,1225.45 1778.49,1225.78 1781.73,1226.06 1784.97,1226.27 1788.21,1226.43 1791.45,1226.53 1794.69,1226.58 1797.93,1226.58 1801.18,1226.52 1804.42,1226.41 1807.66,1226.25 1810.9,1226.04 1814.14,1225.78 1817.38,1225.47 1820.62,1225.12 1823.87,1224.72 1827.11,1224.27 1830.35,1223.77 1833.59,1223.23 1836.83,1222.64 1840.07,1222 1843.31,1221.32 1846.55,1220.59 1849.8,1219.82 1853.04,1218.99 1856.28,1218.12 1859.52,1217.19 1862.76,1216.21 1866,1215.18 1869.24,1214.09 1872.49,1212.95 1875.73,1211.74 1878.97,1210.48 1882.21,1209.14 1885.45,1207.75 1888.69,1206.28 1891.93,1204.74 1895.18,1203.12 1898.42,1201.43 1901.66,1199.66 1904.9,1197.8 1908.14,1195.86 1911.38,1193.83 1914.62,1191.7 1917.87,1189.49 1921.11,1187.18 1924.35,1184.78 1927.59,1182.31 1930.83,1179.77 1934.07,1177.15 1937.31,1174.48 1940.56,1171.75 1943.8,1168.97 1947.04,1166.15 1950.28,1163.28 1953.52,1160.38 1956.76,1157.45 1960,1154.5 1963.24,1151.53 1966.49,1148.54 1969.73,1145.54 1972.97,1142.53 1976.21,1139.51 1979.45,1136.48 1982.69,1133.45 1985.93,1130.41 1989.18,1127.37 1992.42,1124.33 1995.66,1121.3 1998.9,1118.26 2002.14,1115.23 2005.38,1112.2 2008.62,1109.18 2011.87,1106.17 2015.11,1103.16 2018.35,1100.17 2021.59,1097.19 2024.83,1094.22 2028.07,1091.27 2031.31,1088.34 2034.56,1085.42 2037.8,1082.52 2041.04,1079.63 2044.28,1076.77 2047.52,1073.93 2050.76,1071.12 2054,1068.32 2057.24,1065.55 2060.49,1062.81 2063.73,1060.1 2066.97,1057.41 2070.21,1054.74 2073.45,1052.1 2076.69,1049.48 2079.93,1046.87 2083.18,1044.29 2086.42,1041.72 2089.66,1039.17 2092.9,1036.64 2096.14,1034.13 2099.38,1031.64 2102.62,1029.16 2105.87,1026.7 2109.11,1024.26 2112.35,1021.84 2115.59,1019.44 2118.83,1017.06 2122.07,1014.69 2125.31,1012.34 2128.56,1010.01 2131.8,1007.7 2135.04,1005.41 2138.28,1003.13 2141.52,1000.87 2144.76,998.63 2148,996.406 2151.25,994.199 2154.49,992.009 2157.73,989.836 2160.97,987.68 2164.21,985.539 2167.45,983.415 2170.69,981.307 2173.93,979.214 2177.18,977.136 2180.42,975.074 2183.66,973.026 2186.9,970.993 2190.14,968.974 2193.38,966.969 2196.62,964.977 2199.87,962.999 2203.11,961.033 2206.35,959.08 2209.59,957.139 2212.83,955.209 2216.07,953.291 2219.31,951.383 2222.56,949.486 2225.8,947.599 2229.04,945.721 2232.28,943.853 2235.52,941.993 2238.76,940.141 2242,938.296 2245.25,936.459 2248.49,934.628 2251.73,932.804 2254.97,930.987 2258.21,929.178 2261.45,927.376 2264.69,925.582 2267.94,923.797 2271.18,922.02 2274.42,920.252 2277.66,918.492 2280.9,916.742 2284.14,915.001 2287.38,913.27 2290.62,911.548 "/>
<polyline clip-path="url(#clip522)" style="stroke:#c271d2; stroke-linecap:round; stroke-linejoin:round; stroke-width:12; stroke-opacity:1; fill:none" points="255.035,861.353 362.225,721.547 469.416,547.99 576.607,441.514 683.797,418.43 790.988,396.809 898.179,453.674 1005.37,578.164 1112.56,672.239 1219.75,779.473 1326.94,964.306 1434.13,1137.74 1541.32,1269.91 1648.51,1348.36 1755.7,1363.4 1862.89,1316.51 1970.09,1257.06 2077.28,1173.53 2184.47,1128.69 2291.66,1109.58 "/>
<polyline clip-path="url(#clip522)" style="stroke:#ac8d18; stroke-linecap:round; stroke-linejoin:round; stroke-width:12; stroke-opacity:1; fill:none" points="255.035,270.632 362.225,262.386 469.416,274.599 576.607,246.192 683.797,167.94 790.988,149.756 898.179,163.547 1005.37,228.869 1112.56,357.738 1219.75,460.496 1326.94,516.685 1434.13,612.488 1541.32,764.022 1648.51,950.516 1755.7,1080.79 1862.89,1115.83 1970.09,1033.35 2077.28,924.481 2184.47,816.346 2291.66,712.428 "/>
<path clip-path="url(#clip520)" d="M1953.46 406.258 L2280.8 406.258 L2280.8 95.2176 L1953.46 95.2176  Z" fill="#ffffff" fill-rule="evenodd" fill-opacity="1"/>
<polyline clip-path="url(#clip520)" style="stroke:#000000; stroke-linecap:round; stroke-linejoin:round; stroke-width:4; stroke-opacity:1; fill:none" points="1953.46,406.258 2280.8,406.258 2280.8,95.2176 1953.46,95.2176 1953.46,406.258 "/>
<polyline clip-path="url(#clip520)" style="stroke:#009af9; stroke-linecap:round; stroke-linejoin:round; stroke-width:4; stroke-opacity:1; fill:none" points="1977.44,147.058 2121.36,147.058 "/>
<path clip-path="url(#clip520)" d="M2152.76 131.051 L2152.76 138.412 L2161.53 138.412 L2161.53 141.722 L2152.76 141.722 L2152.76 155.796 Q2152.76 158.967 2153.61 159.87 Q2154.49 160.773 2157.16 160.773 L2161.53 160.773 L2161.53 164.338 L2157.16 164.338 Q2152.23 164.338 2150.35 162.509 Q2148.48 160.657 2148.48 155.796 L2148.48 141.722 L2145.35 141.722 L2145.35 138.412 L2148.48 138.412 L2148.48 131.051 L2152.76 131.051 Z" fill="#000000" fill-rule="nonzero" fill-opacity="1" /><path clip-path="url(#clip520)" d="M2182.16 142.393 Q2181.44 141.977 2180.58 141.791 Q2179.75 141.583 2178.73 141.583 Q2175.12 141.583 2173.17 143.944 Q2171.25 146.282 2171.25 150.68 L2171.25 164.338 L2166.97 164.338 L2166.97 138.412 L2171.25 138.412 L2171.25 142.44 Q2172.6 140.078 2174.75 138.944 Q2176.9 137.787 2179.98 137.787 Q2180.42 137.787 2180.95 137.856 Q2181.48 137.903 2182.13 138.018 L2182.16 142.393 Z" fill="#000000" fill-rule="nonzero" fill-opacity="1" /><path clip-path="url(#clip520)" d="M2186.18 154.106 L2186.18 138.412 L2190.44 138.412 L2190.44 153.944 Q2190.44 157.625 2191.88 159.476 Q2193.31 161.305 2196.18 161.305 Q2199.63 161.305 2201.62 159.106 Q2203.64 156.907 2203.64 153.111 L2203.64 138.412 L2207.9 138.412 L2207.9 164.338 L2203.64 164.338 L2203.64 160.356 Q2202.09 162.717 2200.03 163.875 Q2197.99 165.009 2195.28 165.009 Q2190.81 165.009 2188.5 162.231 Q2186.18 159.453 2186.18 154.106 M2196.9 137.787 L2196.9 137.787 Z" fill="#000000" fill-rule="nonzero" fill-opacity="1" /><path clip-path="url(#clip520)" d="M2220.88 131.051 L2220.88 138.412 L2229.66 138.412 L2229.66 141.722 L2220.88 141.722 L2220.88 155.796 Q2220.88 158.967 2221.74 159.87 Q2222.62 160.773 2225.28 160.773 L2229.66 160.773 L2229.66 164.338 L2225.28 164.338 Q2220.35 164.338 2218.48 162.509 Q2216.6 160.657 2216.6 155.796 L2216.6 141.722 L2213.48 141.722 L2213.48 138.412 L2216.6 138.412 L2216.6 131.051 L2220.88 131.051 Z" fill="#000000" fill-rule="nonzero" fill-opacity="1" /><path clip-path="url(#clip520)" d="M2256.81 148.689 L2256.81 164.338 L2252.55 164.338 L2252.55 148.828 Q2252.55 145.148 2251.11 143.319 Q2249.68 141.49 2246.81 141.49 Q2243.36 141.49 2241.37 143.69 Q2239.38 145.889 2239.38 149.685 L2239.38 164.338 L2235.1 164.338 L2235.1 128.319 L2239.38 128.319 L2239.38 142.44 Q2240.91 140.102 2242.97 138.944 Q2245.05 137.787 2247.76 137.787 Q2252.23 137.787 2254.52 140.565 Q2256.81 143.319 2256.81 148.689 Z" fill="#000000" fill-rule="nonzero" fill-opacity="1" /><circle clip-path="url(#clip520)" cx="2049.4" cy="198.898" r="20.48" fill="#e26f46" fill-rule="evenodd" fill-opacity="1" stroke="#000000" stroke-opacity="1" stroke-width="4.55111"/>
<path clip-path="url(#clip520)" d="M2164.26 194.187 L2164.26 180.159 L2168.52 180.159 L2168.52 216.178 L2164.26 216.178 L2164.26 212.289 Q2162.92 214.603 2160.86 215.738 Q2158.82 216.849 2155.95 216.849 Q2151.25 216.849 2148.29 213.099 Q2145.35 209.349 2145.35 203.238 Q2145.35 197.127 2148.29 193.377 Q2151.25 189.627 2155.95 189.627 Q2158.82 189.627 2160.86 190.761 Q2162.92 191.872 2164.26 194.187 M2149.75 203.238 Q2149.75 207.937 2151.67 210.622 Q2153.61 213.284 2156.99 213.284 Q2160.37 213.284 2162.32 210.622 Q2164.26 207.937 2164.26 203.238 Q2164.26 198.539 2162.32 195.877 Q2160.37 193.192 2156.99 193.192 Q2153.61 193.192 2151.67 195.877 Q2149.75 198.539 2149.75 203.238 Z" fill="#000000" fill-rule="nonzero" fill-opacity="1" /><path clip-path="url(#clip520)" d="M2189.08 203.145 Q2183.92 203.145 2181.92 204.326 Q2179.93 205.506 2179.93 208.354 Q2179.93 210.622 2181.42 211.965 Q2182.92 213.284 2185.49 213.284 Q2189.03 213.284 2191.16 210.784 Q2193.31 208.261 2193.31 204.094 L2193.31 203.145 L2189.08 203.145 M2197.57 201.386 L2197.57 216.178 L2193.31 216.178 L2193.31 212.242 Q2191.85 214.603 2189.68 215.738 Q2187.5 216.849 2184.36 216.849 Q2180.37 216.849 2178.01 214.627 Q2175.67 212.381 2175.67 208.631 Q2175.67 204.256 2178.59 202.034 Q2181.53 199.812 2187.34 199.812 L2193.31 199.812 L2193.31 199.395 Q2193.31 196.455 2191.37 194.858 Q2189.45 193.238 2185.95 193.238 Q2183.73 193.238 2181.62 193.77 Q2179.52 194.303 2177.57 195.367 L2177.57 191.432 Q2179.91 190.53 2182.11 190.09 Q2184.31 189.627 2186.39 189.627 Q2192.02 189.627 2194.79 192.543 Q2197.57 195.46 2197.57 201.386 Z" fill="#000000" fill-rule="nonzero" fill-opacity="1" /><path clip-path="url(#clip520)" d="M2210.56 182.891 L2210.56 190.252 L2219.33 190.252 L2219.33 193.562 L2210.56 193.562 L2210.56 207.636 Q2210.56 210.807 2211.42 211.71 Q2212.29 212.613 2214.96 212.613 L2219.33 212.613 L2219.33 216.178 L2214.96 216.178 Q2210.03 216.178 2208.15 214.349 Q2206.28 212.497 2206.28 207.636 L2206.28 193.562 L2203.15 193.562 L2203.15 190.252 L2206.28 190.252 L2206.28 182.891 L2210.56 182.891 Z" fill="#000000" fill-rule="nonzero" fill-opacity="1" /><path clip-path="url(#clip520)" d="M2236.72 203.145 Q2231.55 203.145 2229.56 204.326 Q2227.57 205.506 2227.57 208.354 Q2227.57 210.622 2229.05 211.965 Q2230.56 213.284 2233.13 213.284 Q2236.67 213.284 2238.8 210.784 Q2240.95 208.261 2240.95 204.094 L2240.95 203.145 L2236.72 203.145 M2245.21 201.386 L2245.21 216.178 L2240.95 216.178 L2240.95 212.242 Q2239.49 214.603 2237.32 215.738 Q2235.14 216.849 2231.99 216.849 Q2228.01 216.849 2225.65 214.627 Q2223.31 212.381 2223.31 208.631 Q2223.31 204.256 2226.23 202.034 Q2229.17 199.812 2234.98 199.812 L2240.95 199.812 L2240.95 199.395 Q2240.95 196.455 2239.01 194.858 Q2237.09 193.238 2233.59 193.238 Q2231.37 193.238 2229.26 193.77 Q2227.16 194.303 2225.21 195.367 L2225.21 191.432 Q2227.55 190.53 2229.75 190.09 Q2231.95 189.627 2234.03 189.627 Q2239.66 189.627 2242.43 192.543 Q2245.21 195.46 2245.21 201.386 Z" fill="#000000" fill-rule="nonzero" fill-opacity="1" /><polyline clip-path="url(#clip520)" style="stroke:#3da44d; stroke-linecap:round; stroke-linejoin:round; stroke-width:8; stroke-opacity:1; fill:none" points="1977.44,250.738 2121.36,250.738 "/>
<path clip-path="url(#clip520)" d="M2170.91 263.087 L2170.91 253.805 L2163.27 253.805 L2163.27 249.962 L2175.54 249.962 L2175.54 264.8 Q2172.83 266.721 2169.56 267.717 Q2166.3 268.689 2162.6 268.689 Q2154.49 268.689 2149.91 263.967 Q2145.35 259.221 2145.35 250.772 Q2145.35 242.3 2149.91 237.578 Q2154.49 232.833 2162.6 232.833 Q2165.98 232.833 2169.01 233.666 Q2172.06 234.499 2174.63 236.12 L2174.63 241.096 Q2172.04 238.897 2169.12 237.786 Q2166.21 236.675 2162.99 236.675 Q2156.65 236.675 2153.45 240.217 Q2150.28 243.758 2150.28 250.772 Q2150.28 257.763 2153.45 261.305 Q2156.65 264.846 2162.99 264.846 Q2165.47 264.846 2167.41 264.43 Q2169.36 263.99 2170.91 263.087 Z" fill="#000000" fill-rule="nonzero" fill-opacity="1" /><path clip-path="url(#clip520)" d="M2188.75 237.3 L2188.75 250.286 L2194.63 250.286 Q2197.9 250.286 2199.68 248.596 Q2201.46 246.907 2201.46 243.782 Q2201.46 240.68 2199.68 238.99 Q2197.9 237.3 2194.63 237.3 L2188.75 237.3 M2184.08 233.458 L2194.63 233.458 Q2200.44 233.458 2203.41 236.096 Q2206.39 238.712 2206.39 243.782 Q2206.39 248.897 2203.41 251.513 Q2200.44 254.129 2194.63 254.129 L2188.75 254.129 L2188.75 268.018 L2184.08 268.018 L2184.08 233.458 Z" fill="#000000" fill-rule="nonzero" fill-opacity="1" /><polyline clip-path="url(#clip520)" style="stroke:#c271d2; stroke-linecap:round; stroke-linejoin:round; stroke-width:12; stroke-opacity:1; fill:none" points="1977.44,302.578 2121.36,302.578 "/>
<path clip-path="url(#clip520)" d="M2150.03 289.14 L2150.03 302.126 L2155.91 302.126 Q2159.17 302.126 2160.95 300.436 Q2162.73 298.747 2162.73 295.622 Q2162.73 292.52 2160.95 290.83 Q2159.17 289.14 2155.91 289.14 L2150.03 289.14 M2145.35 285.298 L2155.91 285.298 Q2161.72 285.298 2164.68 287.936 Q2167.67 290.552 2167.67 295.622 Q2167.67 300.737 2164.68 303.353 Q2161.72 305.969 2155.91 305.969 L2150.03 305.969 L2150.03 319.858 L2145.35 319.858 L2145.35 285.298 Z" fill="#000000" fill-rule="nonzero" fill-opacity="1" /><path clip-path="url(#clip520)" d="M2178.38 315.922 L2194.7 315.922 L2194.7 319.858 L2172.76 319.858 L2172.76 315.922 Q2175.42 313.168 2180 308.538 Q2184.61 303.885 2185.79 302.543 Q2188.04 300.02 2188.92 298.284 Q2189.82 296.524 2189.82 294.835 Q2189.82 292.08 2187.87 290.344 Q2185.95 288.608 2182.85 288.608 Q2180.65 288.608 2178.2 289.372 Q2175.77 290.135 2172.99 291.686 L2172.99 286.964 Q2175.81 285.83 2178.27 285.251 Q2180.72 284.673 2182.76 284.673 Q2188.13 284.673 2191.32 287.358 Q2194.52 290.043 2194.52 294.534 Q2194.52 296.663 2193.71 298.585 Q2192.92 300.483 2190.81 303.075 Q2190.23 303.747 2187.13 306.964 Q2184.03 310.159 2178.38 315.922 Z" fill="#000000" fill-rule="nonzero" fill-opacity="1" /><path clip-path="url(#clip520)" d="M2204.56 285.298 L2222.92 285.298 L2222.92 289.233 L2208.85 289.233 L2208.85 297.705 Q2209.86 297.358 2210.88 297.196 Q2211.9 297.01 2212.92 297.01 Q2218.71 297.01 2222.09 300.182 Q2225.47 303.353 2225.47 308.77 Q2225.47 314.348 2221.99 317.45 Q2218.52 320.529 2212.2 320.529 Q2210.03 320.529 2207.76 320.158 Q2205.51 319.788 2203.1 319.047 L2203.1 314.348 Q2205.19 315.483 2207.41 316.038 Q2209.63 316.594 2212.11 316.594 Q2216.11 316.594 2218.45 314.487 Q2220.79 312.381 2220.79 308.77 Q2220.79 305.159 2218.45 303.052 Q2216.11 300.946 2212.11 300.946 Q2210.23 300.946 2208.36 301.362 Q2206.51 301.779 2204.56 302.659 L2204.56 285.298 Z" fill="#000000" fill-rule="nonzero" fill-opacity="1" /><polyline clip-path="url(#clip520)" style="stroke:#ac8d18; stroke-linecap:round; stroke-linejoin:round; stroke-width:12; stroke-opacity:1; fill:none" points="1977.44,354.418 2121.36,354.418 "/>
<path clip-path="url(#clip520)" d="M2150.03 340.98 L2150.03 353.966 L2155.91 353.966 Q2159.17 353.966 2160.95 352.276 Q2162.73 350.587 2162.73 347.462 Q2162.73 344.36 2160.95 342.67 Q2159.17 340.98 2155.91 340.98 L2150.03 340.98 M2145.35 337.138 L2155.91 337.138 Q2161.72 337.138 2164.68 339.776 Q2167.67 342.392 2167.67 347.462 Q2167.67 352.577 2164.68 355.193 Q2161.72 357.809 2155.91 357.809 L2150.03 357.809 L2150.03 371.698 L2145.35 371.698 L2145.35 337.138 Z" fill="#000000" fill-rule="nonzero" fill-opacity="1" /><path clip-path="url(#clip520)" d="M2173.17 337.138 L2195.4 337.138 L2195.4 339.128 L2182.85 371.698 L2177.97 371.698 L2189.77 341.073 L2173.17 341.073 L2173.17 337.138 Z" fill="#000000" fill-rule="nonzero" fill-opacity="1" /><path clip-path="url(#clip520)" d="M2204.56 337.138 L2222.92 337.138 L2222.92 341.073 L2208.85 341.073 L2208.85 349.545 Q2209.86 349.198 2210.88 349.036 Q2211.9 348.85 2212.92 348.85 Q2218.71 348.85 2222.09 352.022 Q2225.47 355.193 2225.47 360.61 Q2225.47 366.188 2221.99 369.29 Q2218.52 372.369 2212.2 372.369 Q2210.03 372.369 2207.76 371.998 Q2205.51 371.628 2203.1 370.887 L2203.1 366.188 Q2205.19 367.323 2207.41 367.878 Q2209.63 368.434 2212.11 368.434 Q2216.11 368.434 2218.45 366.327 Q2220.79 364.221 2220.79 360.61 Q2220.79 356.999 2218.45 354.892 Q2216.11 352.786 2212.11 352.786 Q2210.23 352.786 2208.36 353.202 Q2206.51 353.619 2204.56 354.499 L2204.56 337.138 Z" fill="#000000" fill-rule="nonzero" fill-opacity="1" /></svg>
