<?xml version="1.0" encoding="utf-8"?>
<svg xmlns="http://www.w3.org/2000/svg" xmlns:xlink="http://www.w3.org/1999/xlink" width="600" height="400" viewBox="0 0 2400 1600">
<defs>
  <clipPath id="clip000">
    <rect x="0" y="0" width="2400" height="1600"/>
  </clipPath>
</defs>
<path clip-path="url(#clip000)" d="M0 1600 L2400 1600 L2400 0 L0 0  Z" fill="#ffffff" fill-rule="evenodd" fill-opacity="1"/>
<defs>
  <clipPath id="clip001">
    <rect x="480" y="0" width="1681" height="1600"/>
  </clipPath>
</defs>
<path clip-path="url(#clip000)" d="M193.936 1486.45 L2352.76 1486.45 L2352.76 47.2441 L193.936 47.2441  Z" fill="#ffffff" fill-rule="evenodd" fill-opacity="1"/>
<defs>
  <clipPath id="clip002">
    <rect x="193" y="47" width="2160" height="1440"/>
  </clipPath>
</defs>
<polyline clip-path="url(#clip002)" style="stroke:#000000; stroke-linecap:round; stroke-linejoin:round; stroke-width:2; stroke-opacity:0.1; fill:none" points="255.035,1486.45 255.035,47.2441 "/>
<polyline clip-path="url(#clip002)" style="stroke:#000000; stroke-linecap:round; stroke-linejoin:round; stroke-width:2; stroke-opacity:0.1; fill:none" points="579.338,1486.45 579.338,47.2441 "/>
<polyline clip-path="url(#clip002)" style="stroke:#000000; stroke-linecap:round; stroke-linejoin:round; stroke-width:2; stroke-opacity:0.1; fill:none" points="903.641,1486.45 903.641,47.2441 "/>
<polyline clip-path="url(#clip002)" style="stroke:#000000; stroke-linecap:round; stroke-linejoin:round; stroke-width:2; stroke-opacity:0.1; fill:none" points="1227.94,1486.45 1227.94,47.2441 "/>
<polyline clip-path="url(#clip002)" style="stroke:#000000; stroke-linecap:round; stroke-linejoin:round; stroke-width:2; stroke-opacity:0.1; fill:none" points="1552.25,1486.45 1552.25,47.2441 "/>
<polyline clip-path="url(#clip002)" style="stroke:#000000; stroke-linecap:round; stroke-linejoin:round; stroke-width:2; stroke-opacity:0.1; fill:none" points="1876.55,1486.45 1876.55,47.2441 "/>
<polyline clip-path="url(#clip002)" style="stroke:#000000; stroke-linecap:round; stroke-linejoin:round; stroke-width:2; stroke-opacity:0.1; fill:none" points="2200.85,1486.45 2200.85,47.2441 "/>
<polyline clip-path="url(#clip002)" style="stroke:#000000; stroke-linecap:round; stroke-linejoin:round; stroke-width:2; stroke-opacity:0.1; fill:none" points="193.936,1317.79 2352.76,1317.79 "/>
<polyline clip-path="url(#clip002)" style="stroke:#000000; stroke-linecap:round; stroke-linejoin:round; stroke-width:2; stroke-opacity:0.1; fill:none" points="193.936,1022.74 2352.76,1022.74 "/>
<polyline clip-path="url(#clip002)" style="stroke:#000000; stroke-linecap:round; stroke-linejoin:round; stroke-width:2; stroke-opacity:0.1; fill:none" points="193.936,727.684 2352.76,727.684 "/>
<polyline clip-path="url(#clip002)" style="stroke:#000000; stroke-linecap:round; stroke-linejoin:round; stroke-width:2; stroke-opacity:0.1; fill:none" points="193.936,432.631 2352.76,432.631 "/>
<polyline clip-path="url(#clip002)" style="stroke:#000000; stroke-linecap:round; stroke-linejoin:round; stroke-width:2; stroke-opacity:0.1; fill:none" points="193.936,137.578 2352.76,137.578 "/>
<polyline clip-path="url(#clip000)" style="stroke:#000000; stroke-linecap:round; stroke-linejoin:round; stroke-width:4; stroke-opacity:1; fill:none" points="193.936,1486.45 2352.76,1486.45 "/>
<polyline clip-path="url(#clip000)" style="stroke:#000000; stroke-linecap:round; stroke-linejoin:round; stroke-width:4; stroke-opacity:1; fill:none" points="255.035,1486.45 255.035,1467.55 "/>
<polyline clip-path="url(#clip000)" style="stroke:#000000; stroke-linecap:round; stroke-linejoin:round; stroke-width:4; stroke-opacity:1; fill:none" points="579.338,1486.45 579.338,1467.55 "/>
<polyline clip-path="url(#clip000)" style="stroke:#000000; stroke-linecap:round; stroke-linejoin:round; stroke-width:4; stroke-opacity:1; fill:none" points="903.641,1486.45 903.641,1467.55 "/>
<polyline clip-path="url(#clip000)" style="stroke:#000000; stroke-linecap:round; stroke-linejoin:round; stroke-width:4; stroke-opacity:1; fill:none" points="1227.94,1486.45 1227.94,1467.55 "/>
<polyline clip-path="url(#clip000)" style="stroke:#000000; stroke-linecap:round; stroke-linejoin:round; stroke-width:4; stroke-opacity:1; fill:none" points="1552.25,1486.45 1552.25,1467.55 "/>
<polyline clip-path="url(#clip000)" style="stroke:#000000; stroke-linecap:round; stroke-linejoin:round; stroke-width:4; stroke-opacity:1; fill:none" points="1876.55,1486.45 1876.55,1467.55 "/>
<polyline clip-path="url(#clip000)" style="stroke:#000000; stroke-linecap:round; stroke-linejoin:round; stroke-width:4; stroke-opacity:1; fill:none" points="2200.85,1486.45 2200.85,1467.55 "/>
<path clip-path="url(#clip000)" d="M255.035 1517.37 Q251.424 1517.37 249.595 1520.93 Q247.789 1524.47 247.789 1531.6 Q247.789 1538.71 249.595 1542.27 Q251.424 1545.82 255.035 1545.82 Q258.669 1545.82 260.474 1542.27 Q262.303 1538.71 262.303 1531.6 Q262.303 1524.47 260.474 1520.93 Q258.669 1517.37 255.035 1517.37 M255.035 1513.66 Q260.845 1513.66 263.9 1518.27 Q266.979 1522.85 266.979 1531.6 Q266.979 1540.33 263.9 1544.94 Q260.845 1549.52 255.035 1549.52 Q249.225 1549.52 246.146 1544.94 Q243.09 1540.33 243.09 1531.6 Q243.09 1522.85 246.146 1518.27 Q249.225 1513.66 255.035 1513.66 Z" fill="#000000" fill-rule="nonzero" fill-opacity="1" /><path clip-path="url(#clip000)" d="M569.72 1544.91 L577.358 1544.91 L577.358 1518.55 L569.048 1520.21 L569.048 1515.95 L577.312 1514.29 L581.988 1514.29 L581.988 1544.91 L589.627 1544.91 L589.627 1548.85 L569.72 1548.85 L569.72 1544.91 Z" fill="#000000" fill-rule="nonzero" fill-opacity="1" /><path clip-path="url(#clip000)" d="M898.293 1544.91 L914.613 1544.91 L914.613 1548.85 L892.668 1548.85 L892.668 1544.91 Q895.33 1542.16 899.914 1537.53 Q904.52 1532.88 905.701 1531.53 Q907.946 1529.01 908.826 1527.27 Q909.729 1525.51 909.729 1523.82 Q909.729 1521.07 907.784 1519.33 Q905.863 1517.6 902.761 1517.6 Q900.562 1517.6 898.108 1518.36 Q895.678 1519.13 892.9 1520.68 L892.9 1515.95 Q895.724 1514.82 898.178 1514.24 Q900.631 1513.66 902.668 1513.66 Q908.039 1513.66 911.233 1516.35 Q914.428 1519.03 914.428 1523.52 Q914.428 1525.65 913.617 1527.57 Q912.83 1529.47 910.724 1532.07 Q910.145 1532.74 907.043 1535.95 Q903.942 1539.15 898.293 1544.91 Z" fill="#000000" fill-rule="nonzero" fill-opacity="1" /><path clip-path="url(#clip000)" d="M1232.19 1530.21 Q1235.55 1530.93 1237.42 1533.2 Q1239.32 1535.47 1239.32 1538.8 Q1239.32 1543.92 1235.8 1546.72 Q1232.28 1549.52 1225.8 1549.52 Q1223.63 1549.52 1221.31 1549.08 Q1219.02 1548.66 1216.57 1547.81 L1216.57 1543.29 Q1218.51 1544.43 1220.83 1545.01 Q1223.14 1545.58 1225.66 1545.58 Q1230.06 1545.58 1232.35 1543.85 Q1234.67 1542.11 1234.67 1538.8 Q1234.67 1535.75 1232.52 1534.03 Q1230.39 1532.3 1226.57 1532.3 L1222.54 1532.3 L1222.54 1528.45 L1226.75 1528.45 Q1230.2 1528.45 1232.03 1527.09 Q1233.86 1525.7 1233.86 1523.11 Q1233.86 1520.45 1231.96 1519.03 Q1230.08 1517.6 1226.57 1517.6 Q1224.64 1517.6 1222.45 1518.01 Q1220.25 1518.43 1217.61 1519.31 L1217.61 1515.14 Q1220.27 1514.4 1222.58 1514.03 Q1224.92 1513.66 1226.98 1513.66 Q1232.31 1513.66 1235.41 1516.09 Q1238.51 1518.5 1238.51 1522.62 Q1238.51 1525.49 1236.87 1527.48 Q1235.22 1529.45 1232.19 1530.21 Z" fill="#000000" fill-rule="nonzero" fill-opacity="1" /><path clip-path="url(#clip000)" d="M1555.26 1518.36 L1543.45 1536.81 L1555.26 1536.81 L1555.26 1518.36 M1554.03 1514.29 L1559.91 1514.29 L1559.91 1536.81 L1564.84 1536.81 L1564.84 1540.7 L1559.91 1540.7 L1559.91 1548.85 L1555.26 1548.85 L1555.26 1540.7 L1539.65 1540.7 L1539.65 1536.19 L1554.03 1514.29 Z" fill="#000000" fill-rule="nonzero" fill-opacity="1" /><path clip-path="url(#clip000)" d="M1866.83 1514.29 L1885.18 1514.29 L1885.18 1518.22 L1871.11 1518.22 L1871.11 1526.7 Q1872.13 1526.35 1873.15 1526.19 Q1874.17 1526 1875.18 1526 Q1880.97 1526 1884.35 1529.17 Q1887.73 1532.34 1887.73 1537.76 Q1887.73 1543.34 1884.26 1546.44 Q1880.79 1549.52 1874.47 1549.52 Q1872.29 1549.52 1870.02 1549.15 Q1867.78 1548.78 1865.37 1548.04 L1865.37 1543.34 Q1867.45 1544.47 1869.67 1545.03 Q1871.9 1545.58 1874.37 1545.58 Q1878.38 1545.58 1880.72 1543.48 Q1883.05 1541.37 1883.05 1537.76 Q1883.05 1534.15 1880.72 1532.04 Q1878.38 1529.94 1874.37 1529.94 Q1872.5 1529.94 1870.62 1530.35 Q1868.77 1530.77 1866.83 1531.65 L1866.83 1514.29 Z" fill="#000000" fill-rule="nonzero" fill-opacity="1" /><path clip-path="url(#clip000)" d="M2201.26 1529.7 Q2198.11 1529.7 2196.26 1531.86 Q2194.43 1534.01 2194.43 1537.76 Q2194.43 1541.49 2196.26 1543.66 Q2198.11 1545.82 2201.26 1545.82 Q2204.41 1545.82 2206.23 1543.66 Q2208.09 1541.49 2208.09 1537.76 Q2208.09 1534.01 2206.23 1531.86 Q2204.41 1529.7 2201.26 1529.7 M2210.54 1515.05 L2210.54 1519.31 Q2208.78 1518.48 2206.98 1518.04 Q2205.19 1517.6 2203.43 1517.6 Q2198.8 1517.6 2196.35 1520.72 Q2193.92 1523.85 2193.57 1530.17 Q2194.94 1528.15 2197 1527.09 Q2199.06 1526 2201.54 1526 Q2206.74 1526 2209.75 1529.17 Q2212.79 1532.32 2212.79 1537.76 Q2212.79 1543.08 2209.64 1546.3 Q2206.49 1549.52 2201.26 1549.52 Q2195.26 1549.52 2192.09 1544.94 Q2188.92 1540.33 2188.92 1531.6 Q2188.92 1523.41 2192.81 1518.55 Q2196.7 1513.66 2203.25 1513.66 Q2205.01 1513.66 2206.79 1514.01 Q2208.6 1514.36 2210.54 1515.05 Z" fill="#000000" fill-rule="nonzero" fill-opacity="1" /><polyline clip-path="url(#clip000)" style="stroke:#000000; stroke-linecap:round; stroke-linejoin:round; stroke-width:4; stroke-opacity:1; fill:none" points="193.936,1486.45 193.936,47.2441 "/>
<polyline clip-path="url(#clip000)" style="stroke:#000000; stroke-linecap:round; stroke-linejoin:round; stroke-width:4; stroke-opacity:1; fill:none" points="193.936,1317.79 212.834,1317.79 "/>
<polyline clip-path="url(#clip000)" style="stroke:#000000; stroke-linecap:round; stroke-linejoin:round; stroke-width:4; stroke-opacity:1; fill:none" points="193.936,1022.74 212.834,1022.74 "/>
<polyline clip-path="url(#clip000)" style="stroke:#000000; stroke-linecap:round; stroke-linejoin:round; stroke-width:4; stroke-opacity:1; fill:none" points="193.936,727.684 212.834,727.684 "/>
<polyline clip-path="url(#clip000)" style="stroke:#000000; stroke-linecap:round; stroke-linejoin:round; stroke-width:4; stroke-opacity:1; fill:none" points="193.936,432.631 212.834,432.631 "/>
<polyline clip-path="url(#clip000)" style="stroke:#000000; stroke-linecap:round; stroke-linejoin:round; stroke-width:4; stroke-opacity:1; fill:none" points="193.936,137.578 212.834,137.578 "/>
<path clip-path="url(#clip000)" d="M50.9921 1318.24 L80.6679 1318.24 L80.6679 1322.18 L50.9921 1322.18 L50.9921 1318.24 Z" fill="#000000" fill-rule="nonzero" fill-opacity="1" /><path clip-path="url(#clip000)" d="M91.5706 1331.14 L99.2095 1331.14 L99.2095 1304.77 L90.8993 1306.44 L90.8993 1302.18 L99.1632 1300.51 L103.839 1300.51 L103.839 1331.14 L111.478 1331.14 L111.478 1335.07 L91.5706 1335.07 L91.5706 1331.14 Z" fill="#000000" fill-rule="nonzero" fill-opacity="1" /><path clip-path="url(#clip000)" d="M120.922 1329.19 L125.807 1329.19 L125.807 1335.07 L120.922 1335.07 L120.922 1329.19 Z" fill="#000000" fill-rule="nonzero" fill-opacity="1" /><path clip-path="url(#clip000)" d="M145.992 1303.59 Q142.381 1303.59 140.552 1307.15 Q138.746 1310.7 138.746 1317.83 Q138.746 1324.93 140.552 1328.5 Q142.381 1332.04 145.992 1332.04 Q149.626 1332.04 151.431 1328.5 Q153.26 1324.93 153.26 1317.83 Q153.26 1310.7 151.431 1307.15 Q149.626 1303.59 145.992 1303.59 M145.992 1299.89 Q151.802 1299.89 154.857 1304.49 Q157.936 1309.08 157.936 1317.83 Q157.936 1326.55 154.857 1331.16 Q151.802 1335.74 145.992 1335.74 Q140.181 1335.74 137.103 1331.16 Q134.047 1326.55 134.047 1317.83 Q134.047 1309.08 137.103 1304.49 Q140.181 1299.89 145.992 1299.89 Z" fill="#000000" fill-rule="nonzero" fill-opacity="1" /><path clip-path="url(#clip000)" d="M51.9875 1023.19 L81.6633 1023.19 L81.6633 1027.12 L51.9875 1027.12 L51.9875 1023.19 Z" fill="#000000" fill-rule="nonzero" fill-opacity="1" /><path clip-path="url(#clip000)" d="M101.756 1008.54 Q98.1447 1008.54 96.316 1012.1 Q94.5104 1015.64 94.5104 1022.77 Q94.5104 1029.88 96.316 1033.44 Q98.1447 1036.99 101.756 1036.99 Q105.39 1036.99 107.196 1033.44 Q109.024 1029.88 109.024 1022.77 Q109.024 1015.64 107.196 1012.1 Q105.39 1008.54 101.756 1008.54 M101.756 1004.83 Q107.566 1004.83 110.621 1009.44 Q113.7 1014.02 113.7 1022.77 Q113.7 1031.5 110.621 1036.11 Q107.566 1040.69 101.756 1040.69 Q95.9456 1040.69 92.8669 1036.11 Q89.8114 1031.5 89.8114 1022.77 Q89.8114 1014.02 92.8669 1009.44 Q95.9456 1004.83 101.756 1004.83 Z" fill="#000000" fill-rule="nonzero" fill-opacity="1" /><path clip-path="url(#clip000)" d="M121.918 1034.14 L126.802 1034.14 L126.802 1040.02 L121.918 1040.02 L121.918 1034.14 Z" fill="#000000" fill-rule="nonzero" fill-opacity="1" /><path clip-path="url(#clip000)" d="M137.033 1005.46 L155.39 1005.46 L155.39 1009.39 L141.316 1009.39 L141.316 1017.86 Q142.334 1017.52 143.353 1017.36 Q144.371 1017.17 145.39 1017.17 Q151.177 1017.17 154.556 1020.34 Q157.936 1023.51 157.936 1028.93 Q157.936 1034.51 154.464 1037.61 Q150.992 1040.69 144.672 1040.69 Q142.496 1040.69 140.228 1040.32 Q137.982 1039.95 135.575 1039.21 L135.575 1034.51 Q137.658 1035.64 139.881 1036.2 Q142.103 1036.75 144.58 1036.75 Q148.584 1036.75 150.922 1034.65 Q153.26 1032.54 153.26 1028.93 Q153.26 1025.32 150.922 1023.21 Q148.584 1021.11 144.58 1021.11 Q142.705 1021.11 140.83 1021.52 Q138.978 1021.94 137.033 1022.82 L137.033 1005.46 Z" fill="#000000" fill-rule="nonzero" fill-opacity="1" /><path clip-path="url(#clip000)" d="M100.76 713.483 Q97.1493 713.483 95.3206 717.048 Q93.515 720.589 93.515 727.719 Q93.515 734.825 95.3206 738.39 Q97.1493 741.932 100.76 741.932 Q104.395 741.932 106.2 738.39 Q108.029 734.825 108.029 727.719 Q108.029 720.589 106.2 717.048 Q104.395 713.483 100.76 713.483 M100.76 709.779 Q106.571 709.779 109.626 714.386 Q112.705 718.969 112.705 727.719 Q112.705 736.446 109.626 741.052 Q106.571 745.636 100.76 745.636 Q94.9502 745.636 91.8715 741.052 Q88.816 736.446 88.816 727.719 Q88.816 718.969 91.8715 714.386 Q94.9502 709.779 100.76 709.779 Z" fill="#000000" fill-rule="nonzero" fill-opacity="1" /><path clip-path="url(#clip000)" d="M120.922 739.085 L125.807 739.085 L125.807 744.964 L120.922 744.964 L120.922 739.085 Z" fill="#000000" fill-rule="nonzero" fill-opacity="1" /><path clip-path="url(#clip000)" d="M145.992 713.483 Q142.381 713.483 140.552 717.048 Q138.746 720.589 138.746 727.719 Q138.746 734.825 140.552 738.39 Q142.381 741.932 145.992 741.932 Q149.626 741.932 151.431 738.39 Q153.26 734.825 153.26 727.719 Q153.26 720.589 151.431 717.048 Q149.626 713.483 145.992 713.483 M145.992 709.779 Q151.802 709.779 154.857 714.386 Q157.936 718.969 157.936 727.719 Q157.936 736.446 154.857 741.052 Q151.802 745.636 145.992 745.636 Q140.181 745.636 137.103 741.052 Q134.047 736.446 134.047 727.719 Q134.047 718.969 137.103 714.386 Q140.181 709.779 145.992 709.779 Z" fill="#000000" fill-rule="nonzero" fill-opacity="1" /><path clip-path="url(#clip000)" d="M101.756 418.43 Q98.1447 418.43 96.316 421.995 Q94.5104 425.536 94.5104 432.666 Q94.5104 439.772 96.316 443.337 Q98.1447 446.879 101.756 446.879 Q105.39 446.879 107.196 443.337 Q109.024 439.772 109.024 432.666 Q109.024 425.536 107.196 421.995 Q105.39 418.43 101.756 418.43 M101.756 414.726 Q107.566 414.726 110.621 419.333 Q113.7 423.916 113.7 432.666 Q113.7 441.393 110.621 445.999 Q107.566 450.582 101.756 450.582 Q95.9456 450.582 92.8669 445.999 Q89.8114 441.393 89.8114 432.666 Q89.8114 423.916 92.8669 419.333 Q95.9456 414.726 101.756 414.726 Z" fill="#000000" fill-rule="nonzero" fill-opacity="1" /><path clip-path="url(#clip000)" d="M121.918 444.032 L126.802 444.032 L126.802 449.911 L121.918 449.911 L121.918 444.032 Z" fill="#000000" fill-rule="nonzero" fill-opacity="1" /><path clip-path="url(#clip000)" d="M137.033 415.351 L155.39 415.351 L155.39 419.286 L141.316 419.286 L141.316 427.758 Q142.334 427.411 143.353 427.249 Q144.371 427.064 145.39 427.064 Q151.177 427.064 154.556 430.235 Q157.936 433.407 157.936 438.823 Q157.936 444.402 154.464 447.504 Q150.992 450.582 144.672 450.582 Q142.496 450.582 140.228 450.212 Q137.982 449.842 135.575 449.101 L135.575 444.402 Q137.658 445.536 139.881 446.092 Q142.103 446.647 144.58 446.647 Q148.584 446.647 150.922 444.541 Q153.26 442.434 153.26 438.823 Q153.26 435.212 150.922 433.106 Q148.584 430.999 144.58 430.999 Q142.705 430.999 140.83 431.416 Q138.978 431.833 137.033 432.712 L137.033 415.351 Z" fill="#000000" fill-rule="nonzero" fill-opacity="1" /><path clip-path="url(#clip000)" d="M91.5706 150.923 L99.2095 150.923 L99.2095 124.557 L90.8993 126.224 L90.8993 121.965 L99.1632 120.298 L103.839 120.298 L103.839 150.923 L111.478 150.923 L111.478 154.858 L91.5706 154.858 L91.5706 150.923 Z" fill="#000000" fill-rule="nonzero" fill-opacity="1" /><path clip-path="url(#clip000)" d="M120.922 148.978 L125.807 148.978 L125.807 154.858 L120.922 154.858 L120.922 148.978 Z" fill="#000000" fill-rule="nonzero" fill-opacity="1" /><path clip-path="url(#clip000)" d="M145.992 123.377 Q142.381 123.377 140.552 126.941 Q138.746 130.483 138.746 137.613 Q138.746 144.719 140.552 148.284 Q142.381 151.826 145.992 151.826 Q149.626 151.826 151.431 148.284 Q153.26 144.719 153.26 137.613 Q153.26 130.483 151.431 126.941 Q149.626 123.377 145.992 123.377 M145.992 119.673 Q151.802 119.673 154.857 124.279 Q157.936 128.863 157.936 137.613 Q157.936 146.339 154.857 150.946 Q151.802 155.529 145.992 155.529 Q140.181 155.529 137.103 150.946 Q134.047 146.339 134.047 137.613 Q134.047 128.863 137.103 124.279 Q140.181 119.673 145.992 119.673 Z" fill="#000000" fill-rule="nonzero" fill-opacity="1" /><polyline clip-path="url(#clip002)" style="stroke:#009af9; stroke-linecap:round; stroke-linejoin:round; stroke-width:4; stroke-opacity:1; fill:none" points="255.035,727.684 258.278,721.783 261.521,715.883 264.764,709.984 268.007,704.086 271.25,698.191 274.493,692.299 277.736,686.411 280.979,680.526 284.222,674.646 287.465,668.772 290.708,662.903 293.951,657.041 297.194,651.186 300.437,645.339 303.68,639.5 306.923,633.67 310.166,627.849 313.409,622.038 316.652,616.237 319.895,610.448 323.138,604.671 326.381,598.906 329.624,593.153 332.867,587.414 336.11,581.69 339.353,575.979 342.596,570.284 345.84,564.605 349.083,558.942 352.326,553.296 355.569,547.667 358.812,542.057 362.055,536.464 365.298,530.891 368.541,525.338 371.784,519.805 375.027,514.293 378.27,508.802 381.513,503.333 384.756,497.886 387.999,492.462 391.242,487.062 394.485,481.686 397.728,476.335 400.971,471.008 404.214,465.708 407.457,460.433 410.7,455.185 413.943,449.965 417.186,444.772 420.429,439.608 423.672,434.472 426.915,429.366 430.158,424.289 433.401,419.243 436.644,414.228 439.887,409.244 443.13,404.292 446.373,399.372 449.616,394.485 452.859,389.632 456.103,384.812 459.346,380.026 462.589,375.275 465.832,370.56 469.075,365.88 472.318,361.237 475.561,356.63 478.804,352.06 482.047,347.527 485.29,343.033 488.533,338.577 491.776,334.16 495.019,329.783 498.262,325.445 501.505,321.147 504.748,316.89 507.991,312.675 511.234,308.5 514.477,304.368 517.72,300.278 520.963,296.23 524.206,292.226 527.449,288.266 530.692,284.349 533.935,280.477 537.178,276.649 540.421,272.866 543.664,269.129 546.907,265.438 550.15,261.793 553.393,258.195 556.636,254.643 559.879,251.139 563.122,247.683 566.366,244.274 569.609,240.914 572.852,237.603 576.095,234.34 579.338,231.127 582.581,227.963 585.824,224.85 589.067,221.787 592.31,218.774 595.553,215.812 598.796,212.902 602.039,210.043 605.282,207.235 608.525,204.48 611.768,201.777 615.011,199.127 618.254,196.529 621.497,193.985 624.74,191.494 627.983,189.056 631.226,186.673 634.469,184.344 637.712,182.068 640.955,179.848 644.198,177.682 647.441,175.571 650.684,173.516 653.927,171.516 657.17,169.571 660.413,167.682 663.656,165.85 666.899,164.073 670.142,162.353 673.385,160.689 676.629,159.082 679.872,157.532 683.115,156.039 686.358,154.603 689.601,153.225 692.844,151.904 696.087,150.64 699.33,149.434 702.573,148.286 705.816,147.196 709.059,146.164 712.302,145.19 715.545,144.275 718.788,143.417 722.031,142.618 725.274,141.878 728.517,141.196 731.76,140.573 735.003,140.009 738.246,139.503 741.489,139.056 744.732,138.668 747.975,138.339 751.218,138.069 754.461,137.858 757.704,137.706 760.947,137.612 764.19,137.578 767.433,137.603 770.676,137.687 773.919,137.83 777.162,138.031 780.405,138.292 783.648,138.612 786.892,138.99 790.135,139.428 793.378,139.924 796.621,140.479 799.864,141.093 803.107,141.766 806.35,142.497 809.593,143.286 812.836,144.134 816.079,145.041 819.322,146.005 822.565,147.028 825.808,148.109 829.051,149.248 832.294,150.444 835.537,151.699 838.78,153.011 842.023,154.38 845.266,155.807 848.509,157.291 851.752,158.832 854.995,160.43 858.238,162.084 861.481,163.795 864.724,165.563 867.967,167.387 871.21,169.267 874.453,171.202 877.696,173.194 880.939,175.24 884.182,177.342 887.425,179.499 890.668,181.711 893.911,183.978 897.155,186.298 900.398,188.673 903.641,191.102 906.884,193.585 910.127,196.121 913.37,198.71 916.613,201.352 919.856,204.046 923.099,206.793 926.342,209.592 929.585,212.443 932.828,215.345 936.071,218.299 939.314,221.304 942.557,224.359 945.8,227.464 949.043,230.62 952.286,233.825 955.529,237.08 958.772,240.383 962.015,243.736 965.258,247.137 968.501,250.585 971.744,254.082 974.987,257.626 978.23,261.217 981.473,264.854 984.716,268.538 987.959,272.268 991.202,276.043 994.445,279.864 997.688,283.729 1000.93,287.639 1004.17,291.593 1007.42,295.59 1010.66,299.63 1013.9,303.714 1017.15,307.839 1020.39,312.007 1023.63,316.216 1026.88,320.467 1030.12,324.758 1033.36,329.089 1036.6,333.46 1039.85,337.871 1043.09,342.321 1046.33,346.809 1049.58,351.335 1052.82,355.899 1056.06,360.5 1059.31,365.138 1062.55,369.812 1065.79,374.522 1069.04,379.267 1072.28,384.047 1075.52,388.862 1078.76,393.71 1082.01,398.592 1085.25,403.506 1088.49,408.453 1091.74,413.432 1094.98,418.442 1098.22,423.484 1101.47,428.555 1104.71,433.657 1107.95,438.788 1111.19,443.948 1114.44,449.136 1117.68,454.352 1120.92,459.596 1124.17,464.866 1127.41,470.162 1130.65,475.485 1133.9,480.832 1137.14,486.204 1140.38,491.601 1143.62,497.021 1146.87,502.464 1150.11,507.929 1153.35,513.417 1156.6,518.926 1159.84,524.456 1163.08,530.006 1166.33,535.576 1169.57,541.165 1172.81,546.772 1176.06,552.398 1179.3,558.042 1182.54,563.702 1185.78,569.379 1189.03,575.071 1192.27,580.779 1195.51,586.502 1198.76,592.238 1202,597.989 1205.24,603.752 1208.49,609.527 1211.73,615.315 1214.97,621.113 1218.21,626.923 1221.46,632.742 1224.7,638.571 1227.94,644.408 1231.19,650.255 1234.43,656.108 1237.67,661.969 1240.92,667.837 1244.16,673.71 1247.4,679.589 1250.64,685.473 1253.89,691.361 1257.13,697.253 1260.37,703.147 1263.62,709.044 1266.86,714.943 1270.1,720.844 1273.35,726.744 1276.59,732.645 1279.83,738.546 1283.08,744.445 1286.32,750.343 1289.56,756.239 1292.8,762.131 1296.05,768.02 1299.29,773.906 1302.53,779.786 1305.78,785.661 1309.02,791.531 1312.26,797.394 1315.51,803.25 1318.75,809.099 1321.99,814.939 1325.23,820.771 1328.48,826.593 1331.72,832.406 1334.96,838.208 1338.21,843.999 1341.45,849.778 1344.69,855.546 1347.94,861.3 1351.18,867.041 1354.42,872.768 1357.66,878.481 1360.91,884.178 1364.15,889.86 1367.39,895.526 1370.64,901.175 1373.88,906.806 1377.12,912.42 1380.37,918.015 1383.61,923.591 1386.85,929.147 1390.1,934.684 1393.34,940.199 1396.58,945.694 1399.82,951.166 1403.07,956.617 1406.31,962.044 1409.55,967.448 1412.8,972.828 1416.04,978.183 1419.28,983.514 1422.53,988.818 1425.77,994.097 1429.01,999.349 1432.25,1004.57 1435.5,1009.77 1438.74,1014.94 1441.98,1020.08 1445.23,1025.19 1448.47,1030.27 1451.71,1035.32 1454.96,1040.34 1458.2,1045.33 1461.44,1050.29 1464.68,1055.22 1467.93,1060.11 1471.17,1064.97 1474.41,1069.79 1477.66,1074.58 1480.9,1079.34 1484.14,1084.06 1487.39,1088.75 1490.63,1093.39 1493.87,1098.01 1497.11,1102.58 1500.36,1107.12 1503.6,1111.62 1506.84,1116.08 1510.09,1120.51 1513.33,1124.89 1516.57,1129.24 1519.82,1133.54 1523.06,1137.8 1526.3,1142.03 1529.55,1146.21 1532.79,1150.35 1536.03,1154.44 1539.27,1158.5 1542.52,1162.51 1545.76,1166.48 1549,1170.4 1552.25,1174.28 1555.49,1178.11 1558.73,1181.9 1561.98,1185.65 1565.22,1189.35 1568.46,1193 1571.7,1196.6 1574.95,1200.16 1578.19,1203.67 1581.43,1207.14 1584.68,1210.55 1587.92,1213.92 1591.16,1217.24 1594.41,1220.51 1597.65,1223.73 1600.89,1226.9 1604.13,1230.03 1607.38,1233.1 1610.62,1236.12 1613.86,1239.09 1617.11,1242.01 1620.35,1244.87 1623.59,1247.69 1626.84,1250.45 1630.08,1253.16 1633.32,1255.82 1636.57,1258.43 1639.81,1260.98 1643.05,1263.48 1646.29,1265.93 1649.54,1268.32 1652.78,1270.66 1656.02,1272.94 1659.27,1275.17 1662.51,1277.35 1665.75,1279.46 1669,1281.53 1672.24,1283.54 1675.48,1285.49 1678.72,1287.39 1681.97,1289.23 1685.21,1291.02 1688.45,1292.75 1691.7,1294.42 1694.94,1296.03 1698.18,1297.59 1701.43,1299.1 1704.67,1300.54 1707.91,1301.93 1711.15,1303.26 1714.4,1304.53 1717.64,1305.75 1720.88,1306.9 1724.13,1308 1727.37,1309.04 1730.61,1310.03 1733.86,1310.95 1737.1,1311.82 1740.34,1312.63 1743.59,1313.38 1746.83,1314.07 1750.07,1314.7 1753.31,1315.27 1756.56,1315.79 1759.8,1316.25 1763.04,1316.64 1766.29,1316.98 1769.53,1317.26 1772.77,1317.48 1776.02,1317.64 1779.26,1317.75 1782.5,1317.79 1785.74,1317.77 1788.99,1317.7 1792.23,1317.57 1795.47,1317.37 1798.72,1317.12 1801.96,1316.81 1805.2,1316.44 1808.45,1316.01 1811.69,1315.53 1814.93,1314.98 1818.17,1314.38 1821.42,1313.71 1824.66,1312.99 1827.9,1312.21 1831.15,1311.37 1834.39,1310.48 1837.63,1309.52 1840.88,1308.51 1844.12,1307.44 1847.36,1306.31 1850.61,1305.12 1853.85,1303.87 1857.09,1302.57 1860.33,1301.21 1863.58,1299.79 1866.82,1298.32 1870.06,1296.79 1873.31,1295.2 1876.55,1293.55 1879.79,1291.85 1883.04,1290.09 1886.28,1288.28 1889.52,1286.41 1892.76,1284.48 1896.01,1282.5 1899.25,1280.46 1902.49,1278.36 1905.74,1276.22 1908.98,1274.01 1912.22,1271.76 1915.47,1269.44 1918.71,1267.08 1921.95,1264.66 1925.19,1262.18 1928.44,1259.66 1931.68,1257.07 1934.92,1254.44 1938.17,1251.76 1941.41,1249.02 1944.65,1246.23 1947.9,1243.38 1951.14,1240.49 1954.38,1237.54 1957.63,1234.55 1960.87,1231.5 1964.11,1228.4 1967.35,1225.25 1970.6,1222.06 1973.84,1218.81 1977.08,1215.51 1980.33,1212.17 1983.57,1208.78 1986.81,1205.34 1990.06,1201.85 1993.3,1198.31 1996.54,1194.73 1999.78,1191.1 2003.03,1187.42 2006.27,1183.7 2009.51,1179.93 2012.76,1176.12 2016,1172.26 2019.24,1168.36 2022.49,1164.41 2025.73,1160.42 2028.97,1156.38 2032.21,1152.31 2035.46,1148.19 2038.7,1144.03 2041.94,1139.83 2045.19,1135.58 2048.43,1131.3 2051.67,1126.97 2054.92,1122.61 2058.16,1118.2 2061.4,1113.76 2064.65,1109.28 2067.89,1104.76 2071.13,1100.2 2074.37,1095.6 2077.62,1090.97 2080.86,1086.3 2084.1,1081.6 2087.35,1076.86 2090.59,1072.08 2093.83,1067.28 2097.08,1062.43 2100.32,1057.56 2103.56,1052.65 2106.8,1047.71 2110.05,1042.73 2113.29,1037.73 2116.53,1032.69 2119.78,1027.62 2123.02,1022.53 2126.26,1017.4 2129.51,1012.24 2132.75,1007.06 2135.99,1001.85 2139.23,996.61 2142.48,991.344 2145.72,986.051 2148.96,980.733 2152.21,975.39 2155.45,970.021 2158.69,964.629 2161.94,959.213 2165.18,953.773 2168.42,948.311 2171.67,942.827 2174.91,937.322 2178.15,931.795 2181.39,926.248 2184.64,920.681 2187.88,915.095 2191.12,909.491 2194.37,903.867 2197.61,898.227 2200.85,892.569 2204.1,886.895 2207.34,881.205 2210.58,875.499 2213.82,869.779 2217.07,864.045 2220.31,858.297 2223.55,852.536 2226.8,846.762 2230.04,840.976 2233.28,835.18 2236.53,829.372 2239.77,823.554 2243.01,817.727 2246.25,811.89 2249.5,806.046 2252.74,800.193 2255.98,794.333 2259.23,788.467 2262.47,782.594 2265.71,776.716 2268.96,770.833 2272.2,764.946 2275.44,759.055 2278.69,753.16 2281.93,747.264 2285.17,741.365 2288.41,735.465 2291.66,729.564 "/>
<circle clip-path="url(#clip002)" cx="1918.71" cy="1385.55" r="14.4" fill="#e26f46" fill-rule="evenodd" fill-opacity="1" stroke="#000000" stroke-opacity="1" stroke-width="3.2"/>
<circle clip-path="url(#clip002)" cx="2268.96" cy="742.194" r="14.4" fill="#e26f46" fill-rule="evenodd" fill-opacity="1" stroke="#000000" stroke-opacity="1" stroke-width="3.2"/>
<circle clip-path="url(#clip002)" cx="939.314" cy="87.9763" r="14.4" fill="#e26f46" fill-rule="evenodd" fill-opacity="1" stroke="#000000" stroke-opacity="1" stroke-width="3.2"/>
<circle clip-path="url(#clip002)" cx="1788.99" cy="1333.71" r="14.4" fill="#e26f46" fill-rule="evenodd" fill-opacity="1" stroke="#000000" stroke-opacity="1" stroke-width="3.2"/>
<circle clip-path="url(#clip002)" cx="1493.87" cy="964.26" r="14.4" fill="#e26f46" fill-rule="evenodd" fill-opacity="1" stroke="#000000" stroke-opacity="1" stroke-width="3.2"/>
<circle clip-path="url(#clip002)" cx="1840.88" cy="1445.72" r="14.4" fill="#e26f46" fill-rule="evenodd" fill-opacity="1" stroke="#000000" stroke-opacity="1" stroke-width="3.2"/>
<circle clip-path="url(#clip002)" cx="1571.7" cy="1145.71" r="14.4" fill="#e26f46" fill-rule="evenodd" fill-opacity="1" stroke="#000000" stroke-opacity="1" stroke-width="3.2"/>
<circle clip-path="url(#clip002)" cx="1523.06" cy="1170.25" r="14.4" fill="#e26f46" fill-rule="evenodd" fill-opacity="1" stroke="#000000" stroke-opacity="1" stroke-width="3.2"/>
<circle clip-path="url(#clip002)" cx="1866.82" cy="1401.03" r="14.4" fill="#e26f46" fill-rule="evenodd" fill-opacity="1" stroke="#000000" stroke-opacity="1" stroke-width="3.2"/>
<circle clip-path="url(#clip002)" cx="1574.95" cy="1075.71" r="14.4" fill="#e26f46" fill-rule="evenodd" fill-opacity="1" stroke="#000000" stroke-opacity="1" stroke-width="3.2"/>
<circle clip-path="url(#clip002)" cx="2233.28" cy="700.583" r="14.4" fill="#e26f46" fill-rule="evenodd" fill-opacity="1" stroke="#000000" stroke-opacity="1" stroke-width="3.2"/>
<circle clip-path="url(#clip002)" cx="1276.59" cy="804.009" r="14.4" fill="#e26f46" fill-rule="evenodd" fill-opacity="1" stroke="#000000" stroke-opacity="1" stroke-width="3.2"/>
<circle clip-path="url(#clip002)" cx="268.007" cy="673.14" r="14.4" fill="#e26f46" fill-rule="evenodd" fill-opacity="1" stroke="#000000" stroke-opacity="1" stroke-width="3.2"/>
<circle clip-path="url(#clip002)" cx="2077.62" cy="1227.82" r="14.4" fill="#e26f46" fill-rule="evenodd" fill-opacity="1" stroke="#000000" stroke-opacity="1" stroke-width="3.2"/>
<circle clip-path="url(#clip002)" cx="1876.55" cy="1333.49" r="14.4" fill="#e26f46" fill-rule="evenodd" fill-opacity="1" stroke="#000000" stroke-opacity="1" stroke-width="3.2"/>
<circle clip-path="url(#clip002)" cx="1046.33" cy="421.872" r="14.4" fill="#e26f46" fill-rule="evenodd" fill-opacity="1" stroke="#000000" stroke-opacity="1" stroke-width="3.2"/>
<circle clip-path="url(#clip002)" cx="2161.94" cy="992.089" r="14.4" fill="#e26f46" fill-rule="evenodd" fill-opacity="1" stroke="#000000" stroke-opacity="1" stroke-width="3.2"/>
<circle clip-path="url(#clip002)" cx="569.609" cy="140.865" r="14.4" fill="#e26f46" fill-rule="evenodd" fill-opacity="1" stroke="#000000" stroke-opacity="1" stroke-width="3.2"/>
<circle clip-path="url(#clip002)" cx="777.162" cy="174.056" r="14.4" fill="#e26f46" fill-rule="evenodd" fill-opacity="1" stroke="#000000" stroke-opacity="1" stroke-width="3.2"/>
<circle clip-path="url(#clip002)" cx="1931.68" cy="1150.88" r="14.4" fill="#e26f46" fill-rule="evenodd" fill-opacity="1" stroke="#000000" stroke-opacity="1" stroke-width="3.2"/>
<path clip-path="url(#clip000)" d="M1953.46 250.738 L2280.8 250.738 L2280.8 95.2176 L1953.46 95.2176  Z" fill="#ffffff" fill-rule="evenodd" fill-opacity="1"/>
<polyline clip-path="url(#clip000)" style="stroke:#000000; stroke-linecap:round; stroke-linejoin:round; stroke-width:4; stroke-opacity:1; fill:none" points="1953.46,250.738 2280.8,250.738 2280.8,95.2176 1953.46,95.2176 1953.46,250.738 "/>
<polyline clip-path="url(#clip000)" style="stroke:#009af9; stroke-linecap:round; stroke-linejoin:round; stroke-width:4; stroke-opacity:1; fill:none" points="1977.44,147.058 2121.36,147.058 "/>
<path clip-path="url(#clip000)" d="M2152.76 131.051 L2152.76 138.412 L2161.53 138.412 L2161.53 141.722 L2152.76 141.722 L2152.76 155.796 Q2152.76 158.967 2153.61 159.87 Q2154.49 160.773 2157.16 160.773 L2161.53 160.773 L2161.53 164.338 L2157.16 164.338 Q2152.23 164.338 2150.35 162.509 Q2148.48 160.657 2148.48 155.796 L2148.48 141.722 L2145.35 141.722 L2145.35 138.412 L2148.48 138.412 L2148.48 131.051 L2152.76 131.051 Z" fill="#000000" fill-rule="nonzero" fill-opacity="1" /><path clip-path="url(#clip000)" d="M2182.16 142.393 Q2181.44 141.977 2180.58 141.791 Q2179.75 141.583 2178.73 141.583 Q2175.12 141.583 2173.17 143.944 Q2171.25 146.282 2171.25 150.68 L2171.25 164.338 L2166.97 164.338 L2166.97 138.412 L2171.25 138.412 L2171.25 142.44 Q2172.6 140.078 2174.75 138.944 Q2176.9 137.787 2179.98 137.787 Q2180.42 137.787 2180.95 137.856 Q2181.48 137.903 2182.13 138.018 L2182.16 142.393 Z" fill="#000000" fill-rule="nonzero" fill-opacity="1" /><path clip-path="url(#clip000)" d="M2186.18 154.106 L2186.18 138.412 L2190.44 138.412 L2190.44 153.944 Q2190.44 157.625 2191.88 159.476 Q2193.31 161.305 2196.18 161.305 Q2199.63 161.305 2201.62 159.106 Q2203.64 156.907 2203.64 153.111 L2203.64 138.412 L2207.9 138.412 L2207.9 164.338 L2203.64 164.338 L2203.64 160.356 Q2202.09 162.717 2200.03 163.875 Q2197.99 165.009 2195.28 165.009 Q2190.81 165.009 2188.5 162.231 Q2186.18 159.453 2186.18 154.106 M2196.9 137.787 L2196.9 137.787 Z" fill="#000000" fill-rule="nonzero" fill-opacity="1" /><path clip-path="url(#clip000)" d="M2220.88 131.051 L2220.88 138.412 L2229.66 138.412 L2229.66 141.722 L2220.88 141.722 L2220.88 155.796 Q2220.88 158.967 2221.74 159.87 Q2222.62 160.773 2225.28 160.773 L2229.66 160.773 L2229.66 164.338 L2225.28 164.338 Q2220.35 164.338 2218.48 162.509 Q2216.6 160.657 2216.6 155.796 L2216.6 141.722 L2213.48 141.722 L2213.48 138.412 L2216.6 138.412 L2216.6 131.051 L2220.88 131.051 Z" fill="#000000" fill-rule="nonzero" fill-opacity="1" /><path clip-path="url(#clip000)" d="M2256.81 148.689 L2256.81 164.338 L2252.55 164.338 L2252.55 148.828 Q2252.55 145.148 2251.11 143.319 Q2249.68 141.49 2246.81 141.49 Q2243.36 141.49 2241.37 143.69 Q2239.38 145.889 2239.38 149.685 L2239.38 164.338 L2235.1 164.338 L2235.1 128.319 L2239.38 128.319 L2239.38 142.44 Q2240.91 140.102 2242.97 138.944 Q2245.05 137.787 2247.76 137.787 Q2252.23 137.787 2254.52 140.565 Q2256.81 143.319 2256.81 148.689 Z" fill="#000000" fill-rule="nonzero" fill-opacity="1" /><circle clip-path="url(#clip000)" cx="2049.4" cy="198.898" r="20.48" fill="#e26f46" fill-rule="evenodd" fill-opacity="1" stroke="#000000" stroke-opacity="1" stroke-width="4.55111"/>
<path clip-path="url(#clip000)" d="M2164.26 194.187 L2164.26 180.159 L2168.52 180.159 L2168.52 216.178 L2164.26 216.178 L2164.26 212.289 Q2162.92 214.603 2160.86 215.738 Q2158.82 216.849 2155.95 216.849 Q2151.25 216.849 2148.29 213.099 Q2145.35 209.349 2145.35 203.238 Q2145.35 197.127 2148.29 193.377 Q2151.25 189.627 2155.95 189.627 Q2158.82 189.627 2160.86 190.761 Q2162.92 191.872 2164.26 194.187 M2149.75 203.238 Q2149.75 207.937 2151.67 210.622 Q2153.61 213.284 2156.99 213.284 Q2160.37 213.284 2162.32 210.622 Q2164.26 207.937 2164.26 203.238 Q2164.26 198.539 2162.32 195.877 Q2160.37 193.192 2156.99 193.192 Q2153.61 193.192 2151.67 195.877 Q2149.75 198.539 2149.75 203.238 Z" fill="#000000" fill-rule="nonzero" fill-opacity="1" /><path clip-path="url(#clip000)" d="M2189.08 203.145 Q2183.92 203.145 2181.92 204.326 Q2179.93 205.506 2179.93 208.354 Q2179.93 210.622 2181.42 211.965 Q2182.92 213.284 2185.49 213.284 Q2189.03 213.284 2191.16 210.784 Q2193.31 208.261 2193.31 204.094 L2193.31 203.145 L2189.08 203.145 M2197.57 201.386 L2197.57 216.178 L2193.31 216.178 L2193.31 212.242 Q2191.85 214.603 2189.68 215.738 Q2187.5 216.849 2184.36 216.849 Q2180.37 216.849 2178.01 214.627 Q2175.67 212.381 2175.67 208.631 Q2175.67 204.256 2178.59 202.034 Q2181.53 199.812 2187.34 199.812 L2193.31 199.812 L2193.31 199.395 Q2193.31 196.455 2191.37 194.858 Q2189.45 193.238 2185.95 193.238 Q2183.73 193.238 2181.62 193.77 Q2179.52 194.303 2177.57 195.367 L2177.57 191.432 Q2179.91 190.53 2182.11 190.09 Q2184.31 189.627 2186.39 189.627 Q2192.02 189.627 2194.79 192.543 Q2197.57 195.46 2197.57 201.386 Z" fill="#000000" fill-rule="nonzero" fill-opacity="1" /><path clip-path="url(#clip000)" d="M2210.56 182.891 L2210.56 190.252 L2219.33 190.252 L2219.33 193.562 L2210.56 193.562 L2210.56 207.636 Q2210.56 210.807 2211.42 211.71 Q2212.29 212.613 2214.96 212.613 L2219.33 212.613 L2219.33 216.178 L2214.96 216.178 Q2210.03 216.178 2208.15 214.349 Q2206.28 212.497 2206.28 207.636 L2206.28 193.562 L2203.15 193.562 L2203.15 190.252 L2206.28 190.252 L2206.28 182.891 L2210.56 182.891 Z" fill="#000000" fill-rule="nonzero" fill-opacity="1" /><path clip-path="url(#clip000)" d="M2236.72 203.145 Q2231.55 203.145 2229.56 204.326 Q2227.57 205.506 2227.57 208.354 Q2227.57 210.622 2229.05 211.965 Q2230.56 213.284 2233.13 213.284 Q2236.67 213.284 2238.8 210.784 Q2240.95 208.261 2240.95 204.094 L2240.95 203.145 L2236.72 203.145 M2245.21 201.386 L2245.21 216.178 L2240.95 216.178 L2240.95 212.242 Q2239.49 214.603 2237.32 215.738 Q2235.14 216.849 2231.99 216.849 Q2228.01 216.849 2225.65 214.627 Q2223.31 212.381 2223.31 208.631 Q2223.31 204.256 2226.23 202.034 Q2229.17 199.812 2234.98 199.812 L2240.95 199.812 L2240.95 199.395 Q2240.95 196.455 2239.01 194.858 Q2237.09 193.238 2233.59 193.238 Q2231.37 193.238 2229.26 193.77 Q2227.16 194.303 2225.21 195.367 L2225.21 191.432 Q2227.55 190.53 2229.75 190.09 Q2231.95 189.627 2234.03 189.627 Q2239.66 189.627 2242.43 192.543 Q2245.21 195.46 2245.21 201.386 Z" fill="#000000" fill-rule="nonzero" fill-opacity="1" /></svg>
