<?xml version="1.0" encoding="utf-8"?>
<svg xmlns="http://www.w3.org/2000/svg" xmlns:xlink="http://www.w3.org/1999/xlink" width="600" height="400" viewBox="0 0 2400 1600">
<defs>
  <clipPath id="clip160">
    <rect x="0" y="0" width="2400" height="1600"/>
  </clipPath>
</defs>
<path clip-path="url(#clip160)" d="M0 1600 L2400 1600 L2400 0 L0 0  Z" fill="#ffffff" fill-rule="evenodd" fill-opacity="1"/>
<defs>
  <clipPath id="clip161">
    <rect x="480" y="0" width="1681" height="1600"/>
  </clipPath>
</defs>
<path clip-path="url(#clip160)" d="M193.936 1486.45 L2352.76 1486.45 L2352.76 47.2441 L193.936 47.2441  Z" fill="#ffffff" fill-rule="evenodd" fill-opacity="1"/>
<defs>
  <clipPath id="clip162">
    <rect x="193" y="47" width="2160" height="1440"/>
  </clipPath>
</defs>
<polyline clip-path="url(#clip162)" style="stroke:#000000; stroke-linecap:round; stroke-linejoin:round; stroke-width:2; stroke-opacity:0.1; fill:none" points="255.035,1486.45 255.035,47.2441 "/>
<polyline clip-path="url(#clip162)" style="stroke:#000000; stroke-linecap:round; stroke-linejoin:round; stroke-width:2; stroke-opacity:0.1; fill:none" points="579.338,1486.45 579.338,47.2441 "/>
<polyline clip-path="url(#clip162)" style="stroke:#000000; stroke-linecap:round; stroke-linejoin:round; stroke-width:2; stroke-opacity:0.1; fill:none" points="903.641,1486.45 903.641,47.2441 "/>
<polyline clip-path="url(#clip162)" style="stroke:#000000; stroke-linecap:round; stroke-linejoin:round; stroke-width:2; stroke-opacity:0.1; fill:none" points="1227.94,1486.45 1227.94,47.2441 "/>
<polyline clip-path="url(#clip162)" style="stroke:#000000; stroke-linecap:round; stroke-linejoin:round; stroke-width:2; stroke-opacity:0.1; fill:none" points="1552.25,1486.45 1552.25,47.2441 "/>
<polyline clip-path="url(#clip162)" style="stroke:#000000; stroke-linecap:round; stroke-linejoin:round; stroke-width:2; stroke-opacity:0.1; fill:none" points="1876.55,1486.45 1876.55,47.2441 "/>
<polyline clip-path="url(#clip162)" style="stroke:#000000; stroke-linecap:round; stroke-linejoin:round; stroke-width:2; stroke-opacity:0.1; fill:none" points="2200.85,1486.45 2200.85,47.2441 "/>
<polyline clip-path="url(#clip162)" style="stroke:#000000; stroke-linecap:round; stroke-linejoin:round; stroke-width:2; stroke-opacity:0.1; fill:none" points="193.936,1259.81 2352.76,1259.81 "/>
<polyline clip-path="url(#clip162)" style="stroke:#000000; stroke-linecap:round; stroke-linejoin:round; stroke-width:2; stroke-opacity:0.1; fill:none" points="193.936,1001 2352.76,1001 "/>
<polyline clip-path="url(#clip162)" style="stroke:#000000; stroke-linecap:round; stroke-linejoin:round; stroke-width:2; stroke-opacity:0.1; fill:none" points="193.936,742.18 2352.76,742.18 "/>
<polyline clip-path="url(#clip162)" style="stroke:#000000; stroke-linecap:round; stroke-linejoin:round; stroke-width:2; stroke-opacity:0.1; fill:none" points="193.936,483.365 2352.76,483.365 "/>
<polyline clip-path="url(#clip162)" style="stroke:#000000; stroke-linecap:round; stroke-linejoin:round; stroke-width:2; stroke-opacity:0.1; fill:none" points="193.936,224.549 2352.76,224.549 "/>
<polyline clip-path="url(#clip160)" style="stroke:#000000; stroke-linecap:round; stroke-linejoin:round; stroke-width:4; stroke-opacity:1; fill:none" points="193.936,1486.45 2352.76,1486.45 "/>
<polyline clip-path="url(#clip160)" style="stroke:#000000; stroke-linecap:round; stroke-linejoin:round; stroke-width:4; stroke-opacity:1; fill:none" points="255.035,1486.45 255.035,1467.55 "/>
<polyline clip-path="url(#clip160)" style="stroke:#000000; stroke-linecap:round; stroke-linejoin:round; stroke-width:4; stroke-opacity:1; fill:none" points="579.338,1486.45 579.338,1467.55 "/>
<polyline clip-path="url(#clip160)" style="stroke:#000000; stroke-linecap:round; stroke-linejoin:round; stroke-width:4; stroke-opacity:1; fill:none" points="903.641,1486.45 903.641,1467.55 "/>
<polyline clip-path="url(#clip160)" style="stroke:#000000; stroke-linecap:round; stroke-linejoin:round; stroke-width:4; stroke-opacity:1; fill:none" points="1227.94,1486.45 1227.94,1467.55 "/>
<polyline clip-path="url(#clip160)" style="stroke:#000000; stroke-linecap:round; stroke-linejoin:round; stroke-width:4; stroke-opacity:1; fill:none" points="1552.25,1486.45 1552.25,1467.55 "/>
<polyline clip-path="url(#clip160)" style="stroke:#000000; stroke-linecap:round; stroke-linejoin:round; stroke-width:4; stroke-opacity:1; fill:none" points="1876.55,1486.45 1876.55,1467.55 "/>
<polyline clip-path="url(#clip160)" style="stroke:#000000; stroke-linecap:round; stroke-linejoin:round; stroke-width:4; stroke-opacity:1; fill:none" points="2200.85,1486.45 2200.85,1467.55 "/>
<path clip-path="url(#clip160)" d="M255.035 1517.37 Q251.424 1517.37 249.595 1520.93 Q247.789 1524.47 247.789 1531.6 Q247.789 1538.71 249.595 1542.27 Q251.424 1545.82 255.035 1545.82 Q258.669 1545.82 260.474 1542.27 Q262.303 1538.71 262.303 1531.6 Q262.303 1524.47 260.474 1520.93 Q258.669 1517.37 255.035 1517.37 M255.035 1513.66 Q260.845 1513.66 263.9 1518.27 Q266.979 1522.85 266.979 1531.6 Q266.979 1540.33 263.9 1544.94 Q260.845 1549.52 255.035 1549.52 Q249.225 1549.52 246.146 1544.94 Q243.09 1540.33 243.09 1531.6 Q243.09 1522.85 246.146 1518.27 Q249.225 1513.66 255.035 1513.66 Z" fill="#000000" fill-rule="nonzero" fill-opacity="1" /><path clip-path="url(#clip160)" d="M569.72 1544.91 L577.358 1544.91 L577.358 1518.55 L569.048 1520.21 L569.048 1515.95 L577.312 1514.29 L581.988 1514.29 L581.988 1544.91 L589.627 1544.91 L589.627 1548.85 L569.72 1548.85 L569.72 1544.91 Z" fill="#000000" fill-rule="nonzero" fill-opacity="1" /><path clip-path="url(#clip160)" d="M898.293 1544.91 L914.613 1544.91 L914.613 1548.85 L892.668 1548.85 L892.668 1544.91 Q895.33 1542.16 899.914 1537.53 Q904.52 1532.88 905.701 1531.53 Q907.946 1529.01 908.826 1527.27 Q909.729 1525.51 909.729 1523.82 Q909.729 1521.07 907.784 1519.33 Q905.863 1517.6 902.761 1517.6 Q900.562 1517.6 898.108 1518.36 Q895.678 1519.13 892.9 1520.68 L892.9 1515.95 Q895.724 1514.82 898.178 1514.24 Q900.631 1513.66 902.668 1513.66 Q908.039 1513.66 911.233 1516.35 Q914.428 1519.03 914.428 1523.52 Q914.428 1525.65 913.617 1527.57 Q912.83 1529.47 910.724 1532.07 Q910.145 1532.74 907.043 1535.95 Q903.942 1539.15 898.293 1544.91 Z" fill="#000000" fill-rule="nonzero" fill-opacity="1" /><path clip-path="url(#clip160)" d="M1232.19 1530.21 Q1235.55 1530.93 1237.42 1533.2 Q1239.32 1535.47 1239.32 1538.8 Q1239.32 1543.92 1235.8 1546.72 Q1232.28 1549.52 1225.8 1549.52 Q1223.63 1549.52 1221.31 1549.08 Q1219.02 1548.66 1216.57 1547.81 L1216.57 1543.29 Q1218.51 1544.43 1220.83 1545.01 Q1223.14 1545.58 1225.66 1545.58 Q1230.06 1545.58 1232.35 1543.85 Q1234.67 1542.11 1234.67 1538.8 Q1234.67 1535.75 1232.52 1534.03 Q1230.39 1532.3 1226.57 1532.3 L1222.54 1532.3 L1222.54 1528.45 L1226.75 1528.45 Q1230.2 1528.45 1232.03 1527.09 Q1233.86 1525.7 1233.86 1523.11 Q1233.86 1520.45 1231.96 1519.03 Q1230.08 1517.6 1226.57 1517.6 Q1224.64 1517.6 1222.45 1518.01 Q1220.25 1518.43 1217.61 1519.31 L1217.61 1515.14 Q1220.27 1514.4 1222.58 1514.03 Q1224.92 1513.66 1226.98 1513.66 Q1232.31 1513.66 1235.41 1516.09 Q1238.51 1518.5 1238.51 1522.62 Q1238.51 1525.49 1236.87 1527.48 Q1235.22 1529.45 1232.19 1530.21 Z" fill="#000000" fill-rule="nonzero" fill-opacity="1" /><path clip-path="url(#clip160)" d="M1555.26 1518.36 L1543.45 1536.81 L1555.26 1536.81 L1555.26 1518.36 M1554.03 1514.29 L1559.91 1514.29 L1559.91 1536.81 L1564.84 1536.81 L1564.84 1540.7 L1559.91 1540.7 L1559.91 1548.85 L1555.26 1548.85 L1555.26 1540.7 L1539.65 1540.7 L1539.65 1536.19 L1554.03 1514.29 Z" fill="#000000" fill-rule="nonzero" fill-opacity="1" /><path clip-path="url(#clip160)" d="M1866.83 1514.29 L1885.18 1514.29 L1885.18 1518.22 L1871.11 1518.22 L1871.11 1526.7 Q1872.13 1526.35 1873.15 1526.19 Q1874.17 1526 1875.18 1526 Q1880.97 1526 1884.35 1529.17 Q1887.73 1532.34 1887.73 1537.76 Q1887.73 1543.34 1884.26 1546.44 Q1880.79 1549.52 1874.47 1549.52 Q1872.29 1549.52 1870.02 1549.15 Q1867.78 1548.78 1865.37 1548.04 L1865.37 1543.34 Q1867.45 1544.47 1869.67 1545.03 Q1871.9 1545.58 1874.37 1545.58 Q1878.38 1545.58 1880.72 1543.48 Q1883.05 1541.37 1883.05 1537.76 Q1883.05 1534.15 1880.72 1532.04 Q1878.38 1529.94 1874.37 1529.94 Q1872.5 1529.94 1870.62 1530.35 Q1868.77 1530.77 1866.83 1531.65 L1866.83 1514.29 Z" fill="#000000" fill-rule="nonzero" fill-opacity="1" /><path clip-path="url(#clip160)" d="M2201.26 1529.7 Q2198.11 1529.7 2196.26 1531.86 Q2194.43 1534.01 2194.43 1537.76 Q2194.43 1541.49 2196.26 1543.66 Q2198.11 1545.82 2201.26 1545.82 Q2204.41 1545.82 2206.23 1543.66 Q2208.09 1541.49 2208.09 1537.76 Q2208.09 1534.01 2206.23 1531.86 Q2204.41 1529.7 2201.26 1529.7 M2210.54 1515.05 L2210.54 1519.31 Q2208.78 1518.48 2206.98 1518.04 Q2205.19 1517.6 2203.43 1517.6 Q2198.8 1517.6 2196.35 1520.72 Q2193.92 1523.85 2193.57 1530.17 Q2194.94 1528.15 2197 1527.09 Q2199.06 1526 2201.54 1526 Q2206.74 1526 2209.75 1529.17 Q2212.79 1532.32 2212.79 1537.76 Q2212.79 1543.08 2209.64 1546.3 Q2206.49 1549.52 2201.26 1549.52 Q2195.26 1549.52 2192.09 1544.94 Q2188.92 1540.33 2188.92 1531.6 Q2188.92 1523.41 2192.81 1518.55 Q2196.7 1513.66 2203.25 1513.66 Q2205.01 1513.66 2206.79 1514.01 Q2208.6 1514.36 2210.54 1515.05 Z" fill="#000000" fill-rule="nonzero" fill-opacity="1" /><polyline clip-path="url(#clip160)" style="stroke:#000000; stroke-linecap:round; stroke-linejoin:round; stroke-width:4; stroke-opacity:1; fill:none" points="193.936,1486.45 193.936,47.2441 "/>
<polyline clip-path="url(#clip160)" style="stroke:#000000; stroke-linecap:round; stroke-linejoin:round; stroke-width:4; stroke-opacity:1; fill:none" points="193.936,1259.81 212.834,1259.81 "/>
<polyline clip-path="url(#clip160)" style="stroke:#000000; stroke-linecap:round; stroke-linejoin:round; stroke-width:4; stroke-opacity:1; fill:none" points="193.936,1001 212.834,1001 "/>
<polyline clip-path="url(#clip160)" style="stroke:#000000; stroke-linecap:round; stroke-linejoin:round; stroke-width:4; stroke-opacity:1; fill:none" points="193.936,742.18 212.834,742.18 "/>
<polyline clip-path="url(#clip160)" style="stroke:#000000; stroke-linecap:round; stroke-linejoin:round; stroke-width:4; stroke-opacity:1; fill:none" points="193.936,483.365 212.834,483.365 "/>
<polyline clip-path="url(#clip160)" style="stroke:#000000; stroke-linecap:round; stroke-linejoin:round; stroke-width:4; stroke-opacity:1; fill:none" points="193.936,224.549 212.834,224.549 "/>
<path clip-path="url(#clip160)" d="M50.9921 1260.26 L80.6679 1260.26 L80.6679 1264.2 L50.9921 1264.2 L50.9921 1260.26 Z" fill="#000000" fill-rule="nonzero" fill-opacity="1" /><path clip-path="url(#clip160)" d="M91.5706 1273.16 L99.2095 1273.16 L99.2095 1246.79 L90.8993 1248.46 L90.8993 1244.2 L99.1632 1242.53 L103.839 1242.53 L103.839 1273.16 L111.478 1273.16 L111.478 1277.09 L91.5706 1277.09 L91.5706 1273.16 Z" fill="#000000" fill-rule="nonzero" fill-opacity="1" /><path clip-path="url(#clip160)" d="M120.922 1271.21 L125.807 1271.21 L125.807 1277.09 L120.922 1277.09 L120.922 1271.21 Z" fill="#000000" fill-rule="nonzero" fill-opacity="1" /><path clip-path="url(#clip160)" d="M145.992 1245.61 Q142.381 1245.61 140.552 1249.18 Q138.746 1252.72 138.746 1259.85 Q138.746 1266.95 140.552 1270.52 Q142.381 1274.06 145.992 1274.06 Q149.626 1274.06 151.431 1270.52 Q153.26 1266.95 153.26 1259.85 Q153.26 1252.72 151.431 1249.18 Q149.626 1245.61 145.992 1245.61 M145.992 1241.91 Q151.802 1241.91 154.857 1246.51 Q157.936 1251.1 157.936 1259.85 Q157.936 1268.57 154.857 1273.18 Q151.802 1277.76 145.992 1277.76 Q140.181 1277.76 137.103 1273.18 Q134.047 1268.57 134.047 1259.85 Q134.047 1251.1 137.103 1246.51 Q140.181 1241.91 145.992 1241.91 Z" fill="#000000" fill-rule="nonzero" fill-opacity="1" /><path clip-path="url(#clip160)" d="M51.9875 1001.45 L81.6633 1001.45 L81.6633 1005.38 L51.9875 1005.38 L51.9875 1001.45 Z" fill="#000000" fill-rule="nonzero" fill-opacity="1" /><path clip-path="url(#clip160)" d="M101.756 986.795 Q98.1447 986.795 96.316 990.359 Q94.5104 993.901 94.5104 1001.03 Q94.5104 1008.14 96.316 1011.7 Q98.1447 1015.24 101.756 1015.24 Q105.39 1015.24 107.196 1011.7 Q109.024 1008.14 109.024 1001.03 Q109.024 993.901 107.196 990.359 Q105.39 986.795 101.756 986.795 M101.756 983.091 Q107.566 983.091 110.621 987.697 Q113.7 992.281 113.7 1001.03 Q113.7 1009.76 110.621 1014.36 Q107.566 1018.95 101.756 1018.95 Q95.9456 1018.95 92.8669 1014.36 Q89.8114 1009.76 89.8114 1001.03 Q89.8114 992.281 92.8669 987.697 Q95.9456 983.091 101.756 983.091 Z" fill="#000000" fill-rule="nonzero" fill-opacity="1" /><path clip-path="url(#clip160)" d="M121.918 1012.4 L126.802 1012.4 L126.802 1018.28 L121.918 1018.28 L121.918 1012.4 Z" fill="#000000" fill-rule="nonzero" fill-opacity="1" /><path clip-path="url(#clip160)" d="M137.033 983.716 L155.39 983.716 L155.39 987.651 L141.316 987.651 L141.316 996.123 Q142.334 995.776 143.353 995.614 Q144.371 995.429 145.39 995.429 Q151.177 995.429 154.556 998.6 Q157.936 1001.77 157.936 1007.19 Q157.936 1012.77 154.464 1015.87 Q150.992 1018.95 144.672 1018.95 Q142.496 1018.95 140.228 1018.58 Q137.982 1018.21 135.575 1017.47 L135.575 1012.77 Q137.658 1013.9 139.881 1014.46 Q142.103 1015.01 144.58 1015.01 Q148.584 1015.01 150.922 1012.91 Q153.26 1010.8 153.26 1007.19 Q153.26 1003.58 150.922 1001.47 Q148.584 999.364 144.58 999.364 Q142.705 999.364 140.83 999.781 Q138.978 1000.2 137.033 1001.08 L137.033 983.716 Z" fill="#000000" fill-rule="nonzero" fill-opacity="1" /><path clip-path="url(#clip160)" d="M100.76 727.979 Q97.1493 727.979 95.3206 731.544 Q93.515 735.085 93.515 742.215 Q93.515 749.321 95.3206 752.886 Q97.1493 756.428 100.76 756.428 Q104.395 756.428 106.2 752.886 Q108.029 749.321 108.029 742.215 Q108.029 735.085 106.2 731.544 Q104.395 727.979 100.76 727.979 M100.76 724.275 Q106.571 724.275 109.626 728.882 Q112.705 733.465 112.705 742.215 Q112.705 750.942 109.626 755.548 Q106.571 760.132 100.76 760.132 Q94.9502 760.132 91.8715 755.548 Q88.816 750.942 88.816 742.215 Q88.816 733.465 91.8715 728.882 Q94.9502 724.275 100.76 724.275 Z" fill="#000000" fill-rule="nonzero" fill-opacity="1" /><path clip-path="url(#clip160)" d="M120.922 753.581 L125.807 753.581 L125.807 759.46 L120.922 759.46 L120.922 753.581 Z" fill="#000000" fill-rule="nonzero" fill-opacity="1" /><path clip-path="url(#clip160)" d="M145.992 727.979 Q142.381 727.979 140.552 731.544 Q138.746 735.085 138.746 742.215 Q138.746 749.321 140.552 752.886 Q142.381 756.428 145.992 756.428 Q149.626 756.428 151.431 752.886 Q153.26 749.321 153.26 742.215 Q153.26 735.085 151.431 731.544 Q149.626 727.979 145.992 727.979 M145.992 724.275 Q151.802 724.275 154.857 728.882 Q157.936 733.465 157.936 742.215 Q157.936 750.942 154.857 755.548 Q151.802 760.132 145.992 760.132 Q140.181 760.132 137.103 755.548 Q134.047 750.942 134.047 742.215 Q134.047 733.465 137.103 728.882 Q140.181 724.275 145.992 724.275 Z" fill="#000000" fill-rule="nonzero" fill-opacity="1" /><path clip-path="url(#clip160)" d="M101.756 469.163 Q98.1447 469.163 96.316 472.728 Q94.5104 476.27 94.5104 483.399 Q94.5104 490.506 96.316 494.071 Q98.1447 497.612 101.756 497.612 Q105.39 497.612 107.196 494.071 Q109.024 490.506 109.024 483.399 Q109.024 476.27 107.196 472.728 Q105.39 469.163 101.756 469.163 M101.756 465.46 Q107.566 465.46 110.621 470.066 Q113.7 474.649 113.7 483.399 Q113.7 492.126 110.621 496.733 Q107.566 501.316 101.756 501.316 Q95.9456 501.316 92.8669 496.733 Q89.8114 492.126 89.8114 483.399 Q89.8114 474.649 92.8669 470.066 Q95.9456 465.46 101.756 465.46 Z" fill="#000000" fill-rule="nonzero" fill-opacity="1" /><path clip-path="url(#clip160)" d="M121.918 494.765 L126.802 494.765 L126.802 500.645 L121.918 500.645 L121.918 494.765 Z" fill="#000000" fill-rule="nonzero" fill-opacity="1" /><path clip-path="url(#clip160)" d="M137.033 466.085 L155.39 466.085 L155.39 470.02 L141.316 470.02 L141.316 478.492 Q142.334 478.145 143.353 477.983 Q144.371 477.798 145.39 477.798 Q151.177 477.798 154.556 480.969 Q157.936 484.14 157.936 489.557 Q157.936 495.135 154.464 498.237 Q150.992 501.316 144.672 501.316 Q142.496 501.316 140.228 500.946 Q137.982 500.575 135.575 499.834 L135.575 495.135 Q137.658 496.27 139.881 496.825 Q142.103 497.381 144.58 497.381 Q148.584 497.381 150.922 495.274 Q153.26 493.168 153.26 489.557 Q153.26 485.946 150.922 483.839 Q148.584 481.733 144.58 481.733 Q142.705 481.733 140.83 482.149 Q138.978 482.566 137.033 483.446 L137.033 466.085 Z" fill="#000000" fill-rule="nonzero" fill-opacity="1" /><path clip-path="url(#clip160)" d="M91.5706 237.894 L99.2095 237.894 L99.2095 211.528 L90.8993 213.195 L90.8993 208.936 L99.1632 207.269 L103.839 207.269 L103.839 237.894 L111.478 237.894 L111.478 241.829 L91.5706 241.829 L91.5706 237.894 Z" fill="#000000" fill-rule="nonzero" fill-opacity="1" /><path clip-path="url(#clip160)" d="M120.922 235.949 L125.807 235.949 L125.807 241.829 L120.922 241.829 L120.922 235.949 Z" fill="#000000" fill-rule="nonzero" fill-opacity="1" /><path clip-path="url(#clip160)" d="M145.992 210.348 Q142.381 210.348 140.552 213.912 Q138.746 217.454 138.746 224.584 Q138.746 231.69 140.552 235.255 Q142.381 238.797 145.992 238.797 Q149.626 238.797 151.431 235.255 Q153.26 231.69 153.26 224.584 Q153.26 217.454 151.431 213.912 Q149.626 210.348 145.992 210.348 M145.992 206.644 Q151.802 206.644 154.857 211.25 Q157.936 215.834 157.936 224.584 Q157.936 233.31 154.857 237.917 Q151.802 242.5 145.992 242.5 Q140.181 242.5 137.103 237.917 Q134.047 233.31 134.047 224.584 Q134.047 215.834 137.103 211.25 Q140.181 206.644 145.992 206.644 Z" fill="#000000" fill-rule="nonzero" fill-opacity="1" /><polyline clip-path="url(#clip162)" style="stroke:#009af9; stroke-linecap:round; stroke-linejoin:round; stroke-width:4; stroke-opacity:1; fill:none" points="255.035,742.18 258.278,737.004 261.521,731.828 264.764,726.654 268.007,721.481 271.25,716.31 274.493,711.141 277.736,705.976 280.979,700.814 284.222,695.656 287.465,690.503 290.708,685.356 293.951,680.214 297.194,675.078 300.437,669.948 303.68,664.826 306.923,659.712 310.166,654.606 313.409,649.509 316.652,644.421 319.895,639.343 323.138,634.275 326.381,629.218 329.624,624.172 332.867,619.138 336.11,614.116 339.353,609.107 342.596,604.112 345.84,599.13 349.083,594.162 352.326,589.21 355.569,584.272 358.812,579.351 362.055,574.445 365.298,569.557 368.541,564.686 371.784,559.832 375.027,554.997 378.27,550.18 381.513,545.383 384.756,540.605 387.999,535.848 391.242,531.111 394.485,526.395 397.728,521.701 400.971,517.029 404.214,512.379 407.457,507.752 410.7,503.149 413.943,498.57 417.186,494.015 420.429,489.484 423.672,484.98 426.915,480.5 430.158,476.047 433.401,471.621 436.644,467.222 439.887,462.85 443.13,458.506 446.373,454.19 449.616,449.904 452.859,445.646 456.103,441.418 459.346,437.221 462.589,433.053 465.832,428.917 469.075,424.812 472.318,420.738 475.561,416.697 478.804,412.689 482.047,408.713 485.29,404.771 488.533,400.862 491.776,396.988 495.019,393.148 498.262,389.343 501.505,385.573 504.748,381.839 507.991,378.141 511.234,374.479 514.477,370.854 517.72,367.267 520.963,363.716 524.206,360.204 527.449,356.73 530.692,353.294 533.935,349.897 537.178,346.54 540.421,343.222 543.664,339.944 546.907,336.706 550.15,333.508 553.393,330.352 556.636,327.237 559.879,324.163 563.122,321.131 566.366,318.141 569.609,315.194 572.852,312.289 576.095,309.427 579.338,306.609 582.581,303.834 585.824,301.102 589.067,298.415 592.31,295.773 595.553,293.175 598.796,290.622 602.039,288.114 605.282,285.651 608.525,283.234 611.768,280.863 615.011,278.539 618.254,276.26 621.497,274.028 624.74,271.843 627.983,269.705 631.226,267.614 634.469,265.571 637.712,263.575 640.955,261.627 644.198,259.728 647.441,257.876 650.684,256.073 653.927,254.319 657.17,252.613 660.413,250.956 663.656,249.348 666.899,247.79 670.142,246.281 673.385,244.822 676.629,243.412 679.872,242.053 683.115,240.743 686.358,239.483 689.601,238.274 692.844,237.115 696.087,236.007 699.33,234.949 702.573,233.942 705.816,232.986 709.059,232.081 712.302,231.226 715.545,230.423 718.788,229.671 722.031,228.97 725.274,228.321 728.517,227.723 731.76,227.176 735.003,226.681 738.246,226.238 741.489,225.846 744.732,225.505 747.975,225.217 751.218,224.98 754.461,224.794 757.704,224.661 760.947,224.579 764.19,224.549 767.433,224.571 770.676,224.644 773.919,224.77 777.162,224.947 780.405,225.175 783.648,225.456 786.892,225.788 790.135,226.172 793.378,226.607 796.621,227.094 799.864,227.632 803.107,228.222 806.35,228.863 809.593,229.556 812.836,230.3 816.079,231.095 819.322,231.941 822.565,232.838 825.808,233.786 829.051,234.785 832.294,235.835 835.537,236.935 838.78,238.086 842.023,239.287 845.266,240.539 848.509,241.841 851.752,243.192 854.995,244.594 858.238,246.045 861.481,247.547 864.724,249.097 867.967,250.697 871.21,252.346 874.453,254.044 877.696,255.79 880.939,257.586 884.182,259.43 887.425,261.322 890.668,263.262 893.911,265.25 897.155,267.286 900.398,269.369 903.641,271.499 906.884,273.677 910.127,275.901 913.37,278.173 916.613,280.49 919.856,282.854 923.099,285.263 926.342,287.719 929.585,290.219 932.828,292.765 936.071,295.356 939.314,297.992 942.557,300.672 945.8,303.396 949.043,306.164 952.286,308.975 955.529,311.83 958.772,314.728 962.015,317.669 965.258,320.652 968.501,323.677 971.744,326.744 974.987,329.853 978.23,333.003 981.473,336.194 984.716,339.425 987.959,342.697 991.202,346.009 994.445,349.36 997.688,352.75 1000.93,356.18 1004.17,359.648 1007.42,363.154 1010.66,366.699 1013.9,370.28 1017.15,373.899 1020.39,377.555 1023.63,381.247 1026.88,384.976 1030.12,388.74 1033.36,392.539 1036.6,396.374 1039.85,400.243 1043.09,404.146 1046.33,408.083 1049.58,412.053 1052.82,416.057 1056.06,420.093 1059.31,424.161 1062.55,428.261 1065.79,432.392 1069.04,436.555 1072.28,440.748 1075.52,444.971 1078.76,449.224 1082.01,453.506 1085.25,457.817 1088.49,462.156 1091.74,466.524 1094.98,470.919 1098.22,475.341 1101.47,479.789 1104.71,484.264 1107.95,488.765 1111.19,493.291 1114.44,497.842 1117.68,502.418 1120.92,507.017 1124.17,511.64 1127.41,516.286 1130.65,520.955 1133.9,525.646 1137.14,530.358 1140.38,535.092 1143.62,539.846 1146.87,544.621 1150.11,549.415 1153.35,554.228 1156.6,559.061 1159.84,563.911 1163.08,568.78 1166.33,573.666 1169.57,578.568 1172.81,583.487 1176.06,588.422 1179.3,593.373 1182.54,598.338 1185.78,603.317 1189.03,608.311 1192.27,613.318 1195.51,618.337 1198.76,623.369 1202,628.413 1205.24,633.469 1208.49,638.535 1211.73,643.612 1214.97,648.698 1218.21,653.794 1221.46,658.898 1224.7,664.011 1227.94,669.132 1231.19,674.26 1234.43,679.395 1237.67,684.536 1240.92,689.683 1244.16,694.835 1247.4,699.992 1250.64,705.153 1253.89,710.318 1257.13,715.486 1260.37,720.657 1263.62,725.83 1266.86,731.004 1270.1,736.18 1273.35,741.356 1276.59,746.532 1279.83,751.708 1283.08,756.883 1286.32,762.056 1289.56,767.228 1292.8,772.397 1296.05,777.562 1299.29,782.725 1302.53,787.883 1305.78,793.037 1309.02,798.186 1312.26,803.329 1315.51,808.465 1318.75,813.596 1321.99,818.719 1325.23,823.834 1328.48,828.942 1331.72,834.04 1334.96,839.13 1338.21,844.21 1341.45,849.279 1344.69,854.338 1347.94,859.386 1351.18,864.422 1354.42,869.445 1357.66,874.456 1360.91,879.454 1364.15,884.438 1367.39,889.408 1370.64,894.363 1373.88,899.303 1377.12,904.227 1380.37,909.135 1383.61,914.026 1386.85,918.9 1390.1,923.757 1393.34,928.595 1396.58,933.415 1399.82,938.215 1403.07,942.996 1406.31,947.757 1409.55,952.497 1412.8,957.216 1416.04,961.914 1419.28,966.59 1422.53,971.243 1425.77,975.873 1429.01,980.48 1432.25,985.063 1435.5,989.622 1438.74,994.156 1441.98,998.665 1445.23,1003.15 1448.47,1007.61 1451.71,1012.04 1454.96,1016.44 1458.2,1020.82 1461.44,1025.16 1464.68,1029.48 1467.93,1033.78 1471.17,1038.04 1474.41,1042.27 1477.66,1046.47 1480.9,1050.65 1484.14,1054.79 1487.39,1058.9 1490.63,1062.98 1493.87,1067.02 1497.11,1071.04 1500.36,1075.02 1503.6,1078.96 1506.84,1082.88 1510.09,1086.76 1513.33,1090.6 1516.57,1094.41 1519.82,1098.19 1523.06,1101.93 1526.3,1105.63 1529.55,1109.3 1532.79,1112.93 1536.03,1116.53 1539.27,1120.08 1542.52,1123.6 1545.76,1127.08 1549,1130.52 1552.25,1133.93 1555.49,1137.29 1558.73,1140.61 1561.98,1143.9 1565.22,1147.14 1568.46,1150.35 1571.7,1153.51 1574.95,1156.63 1578.19,1159.71 1581.43,1162.75 1584.68,1165.75 1587.92,1168.7 1591.16,1171.61 1594.41,1174.48 1597.65,1177.31 1600.89,1180.09 1604.13,1182.83 1607.38,1185.52 1610.62,1188.17 1613.86,1190.78 1617.11,1193.34 1620.35,1195.85 1623.59,1198.32 1626.84,1200.74 1630.08,1203.12 1633.32,1205.45 1636.57,1207.74 1639.81,1209.98 1643.05,1212.17 1646.29,1214.32 1649.54,1216.42 1652.78,1218.47 1656.02,1220.47 1659.27,1222.43 1662.51,1224.33 1665.75,1226.19 1669,1228 1672.24,1229.77 1675.48,1231.48 1678.72,1233.14 1681.97,1234.76 1685.21,1236.33 1688.45,1237.84 1691.7,1239.31 1694.94,1240.73 1698.18,1242.09 1701.43,1243.41 1704.67,1244.68 1707.91,1245.9 1711.15,1247.06 1714.4,1248.18 1717.64,1249.25 1720.88,1250.26 1724.13,1251.23 1727.37,1252.14 1730.61,1253 1733.86,1253.81 1737.1,1254.57 1740.34,1255.28 1743.59,1255.94 1746.83,1256.55 1750.07,1257.1 1753.31,1257.6 1756.56,1258.06 1759.8,1258.46 1763.04,1258.8 1766.29,1259.1 1769.53,1259.35 1772.77,1259.54 1776.02,1259.68 1779.26,1259.77 1782.5,1259.81 1785.74,1259.8 1788.99,1259.73 1792.23,1259.61 1795.47,1259.45 1798.72,1259.23 1801.96,1258.95 1805.2,1258.63 1808.45,1258.25 1811.69,1257.83 1814.93,1257.35 1818.17,1256.82 1821.42,1256.24 1824.66,1255.6 1827.9,1254.92 1831.15,1254.18 1834.39,1253.4 1837.63,1252.56 1840.88,1251.67 1844.12,1250.73 1847.36,1249.74 1850.61,1248.7 1853.85,1247.6 1857.09,1246.46 1860.33,1245.27 1863.58,1244.02 1866.82,1242.73 1870.06,1241.39 1873.31,1239.99 1876.55,1238.55 1879.79,1237.06 1883.04,1235.51 1886.28,1233.92 1889.52,1232.28 1892.76,1230.59 1896.01,1228.85 1899.25,1227.06 1902.49,1225.23 1905.74,1223.34 1908.98,1221.41 1912.22,1219.43 1915.47,1217.4 1918.71,1215.33 1921.95,1213.2 1925.19,1211.03 1928.44,1208.82 1931.68,1206.55 1934.92,1204.24 1938.17,1201.89 1941.41,1199.48 1944.65,1197.04 1947.9,1194.54 1951.14,1192 1954.38,1189.42 1957.63,1186.79 1960.87,1184.12 1964.11,1181.4 1967.35,1178.64 1970.6,1175.84 1973.84,1172.99 1977.08,1170.1 1980.33,1167.16 1983.57,1164.19 1986.81,1161.17 1990.06,1158.11 1993.3,1155.01 1996.54,1151.86 1999.78,1148.68 2003.03,1145.45 2006.27,1142.19 2009.51,1138.88 2012.76,1135.54 2016,1132.15 2019.24,1128.73 2022.49,1125.27 2025.73,1121.77 2028.97,1118.23 2032.21,1114.65 2035.46,1111.04 2038.7,1107.39 2041.94,1103.7 2045.19,1099.98 2048.43,1096.22 2051.67,1092.43 2054.92,1088.6 2058.16,1084.74 2061.4,1080.84 2064.65,1076.91 2067.89,1072.94 2071.13,1068.94 2074.37,1064.91 2077.62,1060.85 2080.86,1056.75 2084.1,1052.63 2087.35,1048.47 2090.59,1044.28 2093.83,1040.06 2097.08,1035.82 2100.32,1031.54 2103.56,1027.23 2106.8,1022.9 2110.05,1018.53 2113.29,1014.14 2116.53,1009.73 2119.78,1005.28 2123.02,1000.81 2126.26,996.314 2129.51,991.792 2132.75,987.245 2135.99,982.673 2139.23,978.077 2142.48,973.458 2145.72,968.816 2148.96,964.151 2152.21,959.463 2155.45,954.754 2158.69,950.024 2161.94,945.273 2165.18,940.502 2168.42,935.711 2171.67,930.9 2174.91,926.071 2178.15,921.223 2181.39,916.357 2184.64,911.474 2187.88,906.574 2191.12,901.658 2194.37,896.725 2197.61,891.777 2200.85,886.815 2204.1,881.837 2207.34,876.846 2210.58,871.841 2213.82,866.824 2217.07,861.793 2220.31,856.751 2223.55,851.698 2226.8,846.633 2230.04,841.558 2233.28,836.473 2236.53,831.379 2239.77,826.276 2243.01,821.164 2246.25,816.045 2249.5,810.918 2252.74,805.784 2255.98,800.644 2259.23,795.498 2262.47,790.346 2265.71,785.19 2268.96,780.03 2272.2,774.865 2275.44,769.698 2278.69,764.527 2281.93,759.355 2285.17,754.181 2288.41,749.005 2291.66,743.829 "/>
<circle clip-path="url(#clip162)" cx="566.366" cy="294.521" r="14.4" fill="#e26f46" fill-rule="evenodd" fill-opacity="1" stroke="#000000" stroke-opacity="1" stroke-width="3.2"/>
<circle clip-path="url(#clip162)" cx="378.27" cy="460.948" r="14.4" fill="#e26f46" fill-rule="evenodd" fill-opacity="1" stroke="#000000" stroke-opacity="1" stroke-width="3.2"/>
<circle clip-path="url(#clip162)" cx="501.505" cy="373.712" r="14.4" fill="#e26f46" fill-rule="evenodd" fill-opacity="1" stroke="#000000" stroke-opacity="1" stroke-width="3.2"/>
<circle clip-path="url(#clip162)" cx="608.525" cy="352.174" r="14.4" fill="#e26f46" fill-rule="evenodd" fill-opacity="1" stroke="#000000" stroke-opacity="1" stroke-width="3.2"/>
<circle clip-path="url(#clip162)" cx="1464.68" cy="1061.46" r="14.4" fill="#e26f46" fill-rule="evenodd" fill-opacity="1" stroke="#000000" stroke-opacity="1" stroke-width="3.2"/>
<circle clip-path="url(#clip162)" cx="1954.38" cy="1243.84" r="14.4" fill="#e26f46" fill-rule="evenodd" fill-opacity="1" stroke="#000000" stroke-opacity="1" stroke-width="3.2"/>
<circle clip-path="url(#clip162)" cx="1422.53" cy="925.471" r="14.4" fill="#e26f46" fill-rule="evenodd" fill-opacity="1" stroke="#000000" stroke-opacity="1" stroke-width="3.2"/>
<circle clip-path="url(#clip162)" cx="790.135" cy="301.854" r="14.4" fill="#e26f46" fill-rule="evenodd" fill-opacity="1" stroke="#000000" stroke-opacity="1" stroke-width="3.2"/>
<circle clip-path="url(#clip162)" cx="1451.71" cy="1119.64" r="14.4" fill="#e26f46" fill-rule="evenodd" fill-opacity="1" stroke="#000000" stroke-opacity="1" stroke-width="3.2"/>
<circle clip-path="url(#clip162)" cx="1685.21" cy="1241.94" r="14.4" fill="#e26f46" fill-rule="evenodd" fill-opacity="1" stroke="#000000" stroke-opacity="1" stroke-width="3.2"/>
<circle clip-path="url(#clip162)" cx="1558.73" cy="1038.99" r="14.4" fill="#e26f46" fill-rule="evenodd" fill-opacity="1" stroke="#000000" stroke-opacity="1" stroke-width="3.2"/>
<circle clip-path="url(#clip162)" cx="533.935" cy="232.158" r="14.4" fill="#e26f46" fill-rule="evenodd" fill-opacity="1" stroke="#000000" stroke-opacity="1" stroke-width="3.2"/>
<circle clip-path="url(#clip162)" cx="378.27" cy="491.394" r="14.4" fill="#e26f46" fill-rule="evenodd" fill-opacity="1" stroke="#000000" stroke-opacity="1" stroke-width="3.2"/>
<circle clip-path="url(#clip162)" cx="916.613" cy="205.398" r="14.4" fill="#e26f46" fill-rule="evenodd" fill-opacity="1" stroke="#000000" stroke-opacity="1" stroke-width="3.2"/>
<circle clip-path="url(#clip162)" cx="1662.51" cy="1226.49" r="14.4" fill="#e26f46" fill-rule="evenodd" fill-opacity="1" stroke="#000000" stroke-opacity="1" stroke-width="3.2"/>
<circle clip-path="url(#clip162)" cx="572.852" cy="292.449" r="14.4" fill="#e26f46" fill-rule="evenodd" fill-opacity="1" stroke="#000000" stroke-opacity="1" stroke-width="3.2"/>
<circle clip-path="url(#clip162)" cx="543.664" cy="298.056" r="14.4" fill="#e26f46" fill-rule="evenodd" fill-opacity="1" stroke="#000000" stroke-opacity="1" stroke-width="3.2"/>
<circle clip-path="url(#clip162)" cx="2009.51" cy="1153.69" r="14.4" fill="#e26f46" fill-rule="evenodd" fill-opacity="1" stroke="#000000" stroke-opacity="1" stroke-width="3.2"/>
<circle clip-path="url(#clip162)" cx="368.541" cy="602.567" r="14.4" fill="#e26f46" fill-rule="evenodd" fill-opacity="1" stroke="#000000" stroke-opacity="1" stroke-width="3.2"/>
<circle clip-path="url(#clip162)" cx="1069.04" cy="507.125" r="14.4" fill="#e26f46" fill-rule="evenodd" fill-opacity="1" stroke="#000000" stroke-opacity="1" stroke-width="3.2"/>
<path clip-path="url(#clip162)" d="M255.035 900.699 L258.278 894.757 L261.521 888.75 L264.764 882.68 L268.007 876.547 L271.25 870.353 L274.493 864.101 L277.736 857.792 L280.979 851.428 L284.222 845.012 L287.465 838.547 L290.708 832.035 L293.951 825.48 L297.194 818.886 L300.437 812.256 L303.68 805.595 L306.923 798.907 L310.166 792.199 L313.409 785.475 L316.652 778.742 L319.895 772.006 L323.138 765.274 L326.381 758.555 L329.624 751.857 L332.867 745.187 L336.11 738.557 L339.353 731.976 L342.596 725.455 L345.84 719.004 L349.083 712.637 L352.326 706.364 L355.569 700.199 L358.812 694.154 L362.055 688.243 L365.298 682.477 L368.541 676.871 L371.784 671.434 L375.027 666.175 L378.27 661.102 L381.513 656.215 L384.756 651.505 L387.999 646.955 L391.242 642.55 L394.485 638.273 L397.728 634.108 L400.971 630.039 L404.214 626.051 L407.457 622.127 L410.7 618.254 L413.943 614.418 L417.186 610.606 L420.429 606.806 L423.672 603.007 L426.915 599.199 L430.158 595.375 L433.401 591.525 L436.644 587.645 L439.887 583.728 L443.13 579.771 L446.373 575.77 L449.616 571.723 L452.859 567.629 L456.103 563.489 L459.346 559.302 L462.589 555.073 L465.832 550.803 L469.075 546.497 L472.318 542.16 L475.561 537.799 L478.804 533.421 L482.047 529.034 L485.29 524.649 L488.533 520.274 L491.776 515.923 L495.019 511.608 L498.262 507.343 L501.505 503.141 L504.748 499.019 L507.991 494.987 L511.234 491.056 L514.477 487.238 L517.72 483.545 L520.963 479.992 L524.206 476.595 L527.449 473.368 L530.692 470.329 L533.935 467.495 L537.178 464.884 L540.421 462.503 L543.664 460.359 L546.907 458.459 L550.15 456.803 L553.393 455.391 L556.636 454.221 L559.879 453.295 L563.122 452.611 L566.366 452.17 L569.609 451.972 L572.852 452.01 L576.095 452.274 L579.338 452.751 L582.581 453.425 L585.824 454.28 L589.067 455.304 L592.31 456.481 L595.553 457.799 L598.796 459.246 L602.039 460.81 L605.282 462.482 L608.525 464.25 L611.768 466.106 L615.011 468.035 L618.254 470.023 L621.497 472.059 L624.74 474.128 L627.983 476.221 L631.226 478.325 L634.469 480.432 L637.712 482.531 L640.955 484.614 L644.198 486.674 L647.441 488.701 L650.684 490.691 L653.927 492.636 L657.17 494.531 L660.413 496.371 L663.656 498.152 L666.899 499.869 L670.142 501.519 L673.385 503.098 L676.629 504.604 L679.872 506.036 L683.115 507.39 L686.358 508.665 L689.601 509.86 L692.844 510.975 L696.087 512.009 L699.33 512.963 L702.573 513.835 L705.816 514.628 L709.059 515.342 L712.302 515.979 L715.545 516.54 L718.788 517.027 L722.031 517.442 L725.274 517.789 L728.517 518.071 L731.76 518.29 L735.003 518.451 L738.246 518.557 L741.489 518.614 L744.732 518.625 L747.975 518.595 L751.218 518.531 L754.461 518.437 L757.704 518.32 L760.947 518.186 L764.19 518.041 L767.433 517.893 L770.676 517.749 L773.919 517.615 L777.162 517.499 L780.405 517.41 L783.648 517.354 L786.892 517.341 L790.135 517.377 L793.378 517.469 L796.621 517.615 L799.864 517.813 L803.107 518.059 L806.35 518.349 L809.593 518.682 L812.836 519.054 L816.079 519.462 L819.322 519.905 L822.565 520.38 L825.808 520.886 L829.051 521.421 L832.294 521.984 L835.537 522.575 L838.78 523.193 L842.023 523.839 L845.266 524.513 L848.509 525.217 L851.752 525.952 L854.995 526.719 L858.238 527.521 L861.481 528.362 L864.724 529.244 L867.967 530.171 L871.21 531.147 L874.453 532.178 L877.696 533.267 L880.939 534.422 L884.182 535.647 L887.425 536.949 L890.668 538.335 L893.911 539.812 L897.155 541.388 L900.398 543.07 L903.641 544.867 L906.884 546.786 L910.127 548.837 L913.37 551.029 L916.613 553.37 L919.856 555.866 L923.099 558.511 L926.342 561.296 L929.585 564.213 L932.828 567.253 L936.071 570.407 L939.314 573.667 L942.557 577.026 L945.8 580.475 L949.043 584.007 L952.286 587.616 L955.529 591.296 L958.772 595.04 L962.015 598.842 L965.258 602.697 L968.501 606.602 L971.744 610.55 L974.987 614.54 L978.23 618.566 L981.473 622.627 L984.716 626.72 L987.959 630.842 L991.202 634.993 L994.445 639.171 L997.688 643.376 L1000.93 647.607 L1004.17 651.864 L1007.42 656.149 L1010.66 660.463 L1013.9 664.807 L1017.15 669.182 L1020.39 673.592 L1023.63 678.04 L1026.88 682.527 L1030.12 687.059 L1033.36 691.638 L1036.6 696.27 L1039.85 700.957 L1043.09 705.706 L1046.33 710.521 L1049.58 715.407 L1052.82 720.37 L1056.06 725.415 L1059.31 730.548 L1062.55 735.773 L1065.79 741.098 L1069.04 746.526 L1072.28 752.062 L1075.52 757.7 L1078.76 763.433 L1082.01 769.253 L1085.25 775.152 L1088.49 781.124 L1091.74 787.161 L1094.98 793.255 L1098.22 799.399 L1101.47 805.586 L1104.71 811.809 L1107.95 818.062 L1111.19 824.338 L1114.44 830.63 L1117.68 836.934 L1120.92 843.242 L1124.17 849.55 L1127.41 855.852 L1130.65 862.142 L1133.9 868.417 L1137.14 874.671 L1140.38 880.899 L1143.62 887.099 L1146.87 893.265 L1150.11 899.394 L1153.35 905.482 L1156.6 911.527 L1159.84 917.523 L1163.08 923.469 L1166.33 929.362 L1169.57 935.199 L1172.81 940.976 L1176.06 946.693 L1179.3 952.346 L1182.54 957.933 L1185.78 963.453 L1189.03 968.903 L1192.27 974.281 L1195.51 979.586 L1198.76 984.816 L1202 989.97 L1205.24 995.046 L1208.49 1000.04 L1211.73 1004.96 L1214.97 1009.79 L1218.21 1014.55 L1221.46 1019.22 L1224.7 1023.8 L1227.94 1028.3 L1231.19 1032.71 L1234.43 1037.04 L1237.67 1041.28 L1240.92 1045.43 L1244.16 1049.49 L1247.4 1053.46 L1250.64 1057.35 L1253.89 1061.14 L1257.13 1064.84 L1260.37 1068.45 L1263.62 1071.98 L1266.86 1075.41 L1270.1 1078.75 L1273.35 1082 L1276.59 1085.15 L1279.83 1088.22 L1283.08 1091.2 L1286.32 1094.09 L1289.56 1096.88 L1292.8 1099.59 L1296.05 1102.21 L1299.29 1104.74 L1302.53 1107.18 L1305.78 1109.54 L1309.02 1111.8 L1312.26 1113.99 L1315.51 1116.09 L1318.75 1118.1 L1321.99 1120.03 L1325.23 1121.89 L1328.48 1123.66 L1331.72 1125.36 L1334.96 1126.98 L1338.21 1128.53 L1341.45 1130.01 L1344.69 1131.42 L1347.94 1132.76 L1351.18 1134.04 L1354.42 1135.26 L1357.66 1136.42 L1360.91 1137.54 L1364.15 1138.6 L1367.39 1139.62 L1370.64 1140.6 L1373.88 1141.54 L1377.12 1142.46 L1380.37 1143.35 L1383.61 1144.23 L1386.85 1145.09 L1390.1 1145.96 L1393.34 1146.83 L1396.58 1147.71 L1399.82 1148.62 L1403.07 1149.56 L1406.31 1150.54 L1409.55 1151.58 L1412.8 1152.68 L1416.04 1153.85 L1419.28 1155.12 L1422.53 1156.48 L1425.77 1157.95 L1429.01 1159.53 L1432.25 1161.23 L1435.5 1163.04 L1438.74 1164.96 L1441.98 1166.99 L1445.23 1169.13 L1448.47 1171.39 L1451.71 1173.76 L1454.96 1176.25 L1458.2 1178.84 L1461.44 1181.53 L1464.68 1184.32 L1467.93 1187.2 L1471.17 1190.17 L1474.41 1193.2 L1477.66 1196.3 L1480.9 1199.44 L1484.14 1202.62 L1487.39 1205.82 L1490.63 1209.05 L1493.87 1212.28 L1497.11 1215.51 L1500.36 1218.74 L1503.6 1221.95 L1506.84 1225.15 L1510.09 1228.32 L1513.33 1231.47 L1516.57 1234.59 L1519.82 1237.68 L1523.06 1240.74 L1526.3 1243.77 L1529.55 1246.76 L1532.79 1249.73 L1536.03 1252.66 L1539.27 1255.57 L1542.52 1258.46 L1545.76 1261.33 L1549 1264.18 L1552.25 1267.02 L1555.49 1269.86 L1558.73 1272.69 L1561.98 1275.53 L1565.22 1278.37 L1568.46 1281.21 L1571.7 1284.03 L1574.95 1286.84 L1578.19 1289.62 L1581.43 1292.38 L1584.68 1295.11 L1587.92 1297.81 L1591.16 1300.47 L1594.41 1303.09 L1597.65 1305.68 L1600.89 1308.22 L1604.13 1310.72 L1607.38 1313.19 L1610.62 1315.61 L1613.86 1317.99 L1617.11 1320.34 L1620.35 1322.65 L1623.59 1324.93 L1626.84 1327.18 L1630.08 1329.41 L1633.32 1331.62 L1636.57 1333.81 L1639.81 1336 L1643.05 1338.19 L1646.29 1340.38 L1649.54 1342.58 L1652.78 1344.8 L1656.02 1347.05 L1659.27 1349.33 L1662.51 1351.65 L1665.75 1354.02 L1669 1356.43 L1672.24 1358.9 L1675.48 1361.41 L1678.72 1363.97 L1681.97 1366.57 L1685.21 1369.23 L1688.45 1371.92 L1691.7 1374.66 L1694.94 1377.42 L1698.18 1380.21 L1701.43 1383 L1704.67 1385.81 L1707.91 1388.61 L1711.15 1391.4 L1714.4 1394.17 L1717.64 1396.92 L1720.88 1399.64 L1724.13 1402.31 L1727.37 1404.95 L1730.61 1407.54 L1733.86 1410.07 L1737.1 1412.54 L1740.34 1414.95 L1743.59 1417.29 L1746.83 1419.55 L1750.07 1421.74 L1753.31 1423.85 L1756.56 1425.88 L1759.8 1427.81 L1763.04 1429.66 L1766.29 1431.42 L1769.53 1433.09 L1772.77 1434.66 L1776.02 1436.12 L1779.26 1437.49 L1782.5 1438.76 L1785.74 1439.93 L1788.99 1440.99 L1792.23 1441.95 L1795.47 1442.8 L1798.72 1443.54 L1801.96 1444.17 L1805.2 1444.7 L1808.45 1445.12 L1811.69 1445.43 L1814.93 1445.63 L1818.17 1445.72 L1821.42 1445.7 L1824.66 1445.57 L1827.9 1445.33 L1831.15 1444.98 L1834.39 1444.53 L1837.63 1443.96 L1840.88 1443.29 L1844.12 1442.52 L1847.36 1441.64 L1850.61 1440.65 L1853.85 1439.56 L1857.09 1438.38 L1860.33 1437.09 L1863.58 1435.7 L1866.82 1434.22 L1870.06 1432.64 L1873.31 1430.98 L1876.55 1429.22 L1879.79 1427.38 L1883.04 1425.46 L1886.28 1423.46 L1889.52 1421.38 L1892.76 1419.24 L1896.01 1417.02 L1899.25 1414.75 L1902.49 1412.41 L1905.74 1410.03 L1908.98 1407.59 L1912.22 1405.12 L1915.47 1402.62 L1918.71 1400.09 L1921.95 1397.54 L1925.19 1394.97 L1928.44 1392.41 L1931.68 1389.85 L1934.92 1387.31 L1938.17 1384.79 L1941.41 1382.31 L1944.65 1379.86 L1947.9 1377.48 L1951.14 1375.16 L1954.38 1372.91 L1957.63 1370.75 L1960.87 1368.68 L1964.11 1366.69 L1967.35 1364.81 L1970.6 1363.02 L1973.84 1361.34 L1977.08 1359.75 L1980.33 1358.28 L1983.57 1356.92 L1986.81 1355.67 L1990.06 1354.53 L1993.3 1353.52 L1996.54 1352.63 L1999.78 1351.86 L2003.03 1351.22 L2006.27 1350.7 L2009.51 1350.32 L2012.76 1350.07 L2016 1349.94 L2019.24 1349.93 L2022.49 1350.03 L2025.73 1350.22 L2028.97 1350.51 L2032.21 1350.87 L2035.46 1351.31 L2038.7 1351.82 L2041.94 1352.39 L2045.19 1353.01 L2048.43 1353.67 L2051.67 1354.37 L2054.92 1355.1 L2058.16 1355.87 L2061.4 1356.65 L2064.65 1357.45 L2067.89 1358.26 L2071.13 1359.09 L2074.37 1359.91 L2077.62 1360.74 L2080.86 1361.57 L2084.1 1362.39 L2087.35 1363.2 L2090.59 1364 L2093.83 1364.79 L2097.08 1365.57 L2100.32 1366.32 L2103.56 1367.06 L2106.8 1367.78 L2110.05 1368.48 L2113.29 1369.16 L2116.53 1369.81 L2119.78 1370.44 L2123.02 1371.04 L2126.26 1371.61 L2129.51 1372.16 L2132.75 1372.69 L2135.99 1373.18 L2139.23 1373.65 L2142.48 1374.09 L2145.72 1374.5 L2148.96 1374.88 L2152.21 1375.23 L2155.45 1375.56 L2158.69 1375.85 L2161.94 1376.12 L2165.18 1376.36 L2168.42 1376.57 L2171.67 1376.76 L2174.91 1376.92 L2178.15 1377.05 L2181.39 1377.15 L2184.64 1377.23 L2187.88 1377.28 L2191.12 1377.3 L2194.37 1377.3 L2197.61 1377.27 L2200.85 1377.22 L2204.1 1377.15 L2207.34 1377.05 L2210.58 1376.93 L2213.82 1376.78 L2217.07 1376.62 L2220.31 1376.43 L2223.55 1376.22 L2226.8 1375.99 L2230.04 1375.74 L2233.28 1375.46 L2236.53 1375.17 L2239.77 1374.86 L2243.01 1374.54 L2246.25 1374.19 L2249.5 1373.82 L2252.74 1373.44 L2255.98 1373.05 L2259.23 1372.63 L2262.47 1372.2 L2265.71 1371.76 L2268.96 1371.3 L2272.2 1370.83 L2275.44 1370.34 L2278.69 1369.84 L2281.93 1369.33 L2285.17 1368.8 L2288.41 1368.27 L2291.66 1367.72 L2291.66 460.387 L2288.41 463.836 L2285.17 467.332 L2281.93 470.875 L2278.69 474.464 L2275.44 478.101 L2272.2 481.787 L2268.96 485.52 L2265.71 489.302 L2262.47 493.134 L2259.23 497.015 L2255.98 500.945 L2252.74 504.926 L2249.5 508.958 L2246.25 513.041 L2243.01 517.174 L2239.77 521.36 L2236.53 525.597 L2233.28 529.886 L2230.04 534.228 L2226.8 538.622 L2223.55 543.069 L2220.31 547.57 L2217.07 552.123 L2213.82 556.73 L2210.58 561.391 L2207.34 566.105 L2204.1 570.872 L2200.85 575.694 L2197.61 580.569 L2194.37 585.498 L2191.12 590.48 L2187.88 595.516 L2184.64 600.606 L2181.39 605.749 L2178.15 610.944 L2174.91 616.192 L2171.67 621.493 L2168.42 626.845 L2165.18 632.249 L2161.94 637.704 L2158.69 643.209 L2155.45 648.764 L2152.21 654.368 L2148.96 660.02 L2145.72 665.719 L2142.48 671.464 L2139.23 677.254 L2135.99 683.087 L2132.75 688.964 L2129.51 694.881 L2126.26 700.838 L2123.02 706.832 L2119.78 712.862 L2116.53 718.926 L2113.29 725.022 L2110.05 731.147 L2106.8 737.299 L2103.56 743.475 L2100.32 749.672 L2097.08 755.887 L2093.83 762.117 L2090.59 768.358 L2087.35 774.606 L2084.1 780.857 L2080.86 787.106 L2077.62 793.349 L2074.37 799.581 L2071.13 805.797 L2067.89 811.99 L2064.65 818.154 L2061.4 824.283 L2058.16 830.371 L2054.92 836.409 L2051.67 842.389 L2048.43 848.304 L2045.19 854.145 L2041.94 859.903 L2038.7 865.568 L2035.46 871.13 L2032.21 876.579 L2028.97 881.904 L2025.73 887.093 L2022.49 892.135 L2019.24 897.018 L2016 901.73 L2012.76 906.258 L2009.51 910.59 L2006.27 914.715 L2003.03 918.633 L1999.78 922.343 L1996.54 925.846 L1993.3 929.141 L1990.06 932.231 L1986.81 935.114 L1983.57 937.793 L1980.33 940.266 L1977.08 942.534 L1973.84 944.597 L1970.6 946.456 L1967.35 948.11 L1964.11 949.56 L1960.87 950.804 L1957.63 951.844 L1954.38 952.679 L1951.14 953.311 L1947.9 953.752 L1944.65 954.017 L1941.41 954.122 L1938.17 954.079 L1934.92 953.904 L1931.68 953.61 L1928.44 953.21 L1925.19 952.717 L1921.95 952.143 L1918.71 951.499 L1915.47 950.796 L1912.22 950.046 L1908.98 949.258 L1905.74 948.441 L1902.49 947.605 L1899.25 946.758 L1896.01 945.908 L1892.76 945.061 L1889.52 944.226 L1886.28 943.408 L1883.04 942.614 L1879.79 941.85 L1876.55 941.119 L1873.31 940.429 L1870.06 939.782 L1866.82 939.183 L1863.58 938.636 L1860.33 938.144 L1857.09 937.711 L1853.85 937.34 L1850.61 937.032 L1847.36 936.792 L1844.12 936.619 L1840.88 936.517 L1837.63 936.487 L1834.39 936.53 L1831.15 936.648 L1827.9 936.841 L1824.66 937.11 L1821.42 937.456 L1818.17 937.878 L1814.93 938.377 L1811.69 938.952 L1808.45 939.603 L1805.2 940.329 L1801.96 941.13 L1798.72 942.005 L1795.47 942.951 L1792.23 943.968 L1788.99 945.054 L1785.74 946.207 L1782.5 947.424 L1779.26 948.703 L1776.02 950.041 L1772.77 951.435 L1769.53 952.882 L1766.29 954.378 L1763.04 955.92 L1759.8 957.503 L1756.56 959.122 L1753.31 960.773 L1750.07 962.45 L1746.83 964.148 L1743.59 965.86 L1740.34 967.581 L1737.1 969.304 L1733.86 971.021 L1730.61 972.725 L1727.37 974.407 L1724.13 976.06 L1720.88 977.674 L1717.64 979.239 L1714.4 980.746 L1711.15 982.184 L1707.91 983.542 L1704.67 984.81 L1701.43 985.974 L1698.18 987.024 L1694.94 987.947 L1691.7 988.73 L1688.45 989.361 L1685.21 989.826 L1681.97 990.114 L1678.72 990.225 L1675.48 990.157 L1672.24 989.912 L1669 989.489 L1665.75 988.891 L1662.51 988.116 L1659.27 987.168 L1656.02 986.058 L1652.78 984.799 L1649.54 983.405 L1646.29 981.888 L1643.05 980.261 L1639.81 978.535 L1636.57 976.724 L1633.32 974.838 L1630.08 972.888 L1626.84 970.884 L1623.59 968.835 L1620.35 966.751 L1617.11 964.64 L1613.86 962.508 L1610.62 960.363 L1607.38 958.211 L1604.13 956.058 L1600.89 953.907 L1597.65 951.764 L1594.41 949.631 L1591.16 947.51 L1587.92 945.405 L1584.68 943.317 L1581.43 941.245 L1578.19 939.191 L1574.95 937.154 L1571.7 935.132 L1568.46 933.125 L1565.22 931.131 L1561.98 929.146 L1558.73 927.169 L1555.49 925.196 L1552.25 923.23 L1549 921.272 L1545.76 919.324 L1542.52 917.387 L1539.27 915.461 L1536.03 913.547 L1532.79 911.643 L1529.55 909.748 L1526.3 907.86 L1523.06 905.976 L1519.82 904.092 L1516.57 902.205 L1513.33 900.308 L1510.09 898.395 L1506.84 896.46 L1503.6 894.493 L1500.36 892.486 L1497.11 890.428 L1493.87 888.31 L1490.63 886.118 L1487.39 883.84 L1484.14 881.462 L1480.9 878.97 L1477.66 876.347 L1474.41 873.579 L1471.17 870.647 L1467.93 867.536 L1464.68 864.227 L1461.44 860.705 L1458.2 856.962 L1454.96 852.989 L1451.71 848.781 L1448.47 844.334 L1445.23 839.652 L1441.98 834.744 L1438.74 829.618 L1435.5 824.282 L1432.25 818.745 L1429.01 813.015 L1425.77 807.101 L1422.53 801.01 L1419.28 794.751 L1416.04 788.338 L1412.8 781.786 L1409.55 775.107 L1406.31 768.316 L1403.07 761.424 L1399.82 754.446 L1396.58 747.391 L1393.34 740.272 L1390.1 733.099 L1386.85 725.883 L1383.61 718.632 L1380.37 711.355 L1377.12 704.061 L1373.88 696.757 L1370.64 689.451 L1367.39 682.149 L1364.15 674.859 L1360.91 667.585 L1357.66 660.333 L1354.42 653.108 L1351.18 645.916 L1347.94 638.76 L1344.69 631.644 L1341.45 624.573 L1338.21 617.55 L1334.96 610.578 L1331.72 603.661 L1328.48 596.8 L1325.23 589.999 L1321.99 583.261 L1318.75 576.586 L1315.51 569.978 L1312.26 563.439 L1309.02 556.969 L1305.78 550.571 L1302.53 544.246 L1299.29 537.996 L1296.05 531.821 L1292.8 525.722 L1289.56 519.702 L1286.32 513.76 L1283.08 507.898 L1279.83 502.115 L1276.59 496.414 L1273.35 490.793 L1270.1 485.255 L1266.86 479.798 L1263.62 474.424 L1260.37 469.133 L1257.13 463.924 L1253.89 458.799 L1250.64 453.756 L1247.4 448.796 L1244.16 443.919 L1240.92 439.125 L1237.67 434.413 L1234.43 429.783 L1231.19 425.235 L1227.94 420.768 L1224.7 416.382 L1221.46 412.077 L1218.21 407.851 L1214.97 403.704 L1211.73 399.635 L1208.49 395.644 L1205.24 391.729 L1202 387.89 L1198.76 384.125 L1195.51 380.433 L1192.27 376.814 L1189.03 373.265 L1185.78 369.786 L1182.54 366.375 L1179.3 363.03 L1176.06 359.749 L1172.81 356.531 L1169.57 353.374 L1166.33 350.276 L1163.08 347.234 L1159.84 344.246 L1156.6 341.31 L1153.35 338.423 L1150.11 335.582 L1146.87 332.785 L1143.62 330.028 L1140.38 327.308 L1137.14 324.622 L1133.9 321.965 L1130.65 319.335 L1127.41 316.728 L1124.17 314.138 L1120.92 311.562 L1117.68 308.995 L1114.44 306.432 L1111.19 303.869 L1107.95 301.299 L1104.71 298.719 L1101.47 296.122 L1098.22 293.502 L1094.98 290.854 L1091.74 288.172 L1088.49 285.45 L1085.25 282.681 L1082.01 279.859 L1078.76 276.978 L1075.52 274.033 L1072.28 271.015 L1069.04 267.921 L1065.79 264.745 L1062.55 261.493 L1059.31 258.172 L1056.06 254.789 L1052.82 251.351 L1049.58 247.866 L1046.33 244.34 L1043.09 240.782 L1039.85 237.197 L1036.6 233.594 L1033.36 229.98 L1030.12 226.36 L1026.88 222.741 L1023.63 219.13 L1020.39 215.532 L1017.15 211.954 L1013.9 208.4 L1010.66 204.876 L1007.42 201.387 L1004.17 197.936 L1000.93 194.529 L997.688 191.169 L994.445 187.859 L991.202 184.602 L987.959 181.402 L984.716 178.261 L981.473 175.181 L978.23 172.163 L974.987 169.209 L971.744 166.321 L968.501 163.498 L965.258 160.742 L962.015 158.052 L958.772 155.428 L955.529 152.87 L952.286 150.376 L949.043 147.947 L945.8 145.579 L942.557 143.273 L939.314 141.025 L936.071 138.835 L932.828 136.699 L929.585 134.616 L926.342 132.582 L923.099 130.597 L919.856 128.656 L916.613 126.759 L913.37 124.902 L910.127 123.089 L906.884 121.319 L903.641 119.596 L900.398 117.923 L897.155 116.299 L893.911 114.729 L890.668 113.214 L887.425 111.755 L884.182 110.354 L880.939 109.013 L877.696 107.732 L874.453 106.512 L871.21 105.354 L867.967 104.257 L864.724 103.223 L861.481 102.251 L858.238 101.339 L854.995 100.488 L851.752 99.6951 L848.509 98.9594 L845.266 98.2788 L842.023 97.651 L838.78 97.0735 L835.537 96.5434 L832.294 96.0576 L829.051 95.6124 L825.808 95.2042 L822.565 94.8289 L819.322 94.4823 L816.079 94.1599 L812.836 93.857 L809.593 93.5687 L806.35 93.2899 L803.107 93.0156 L799.864 92.7404 L796.621 92.4592 L793.378 92.1667 L790.135 91.8576 L786.892 91.5287 L783.648 91.184 L780.405 90.8298 L777.162 90.4719 L773.919 90.1166 L770.676 89.7698 L767.433 89.4377 L764.19 89.1259 L760.947 88.8404 L757.704 88.5867 L754.461 88.3701 L751.218 88.1959 L747.975 88.069 L744.732 87.9943 L741.489 87.9763 L738.246 88.0192 L735.003 88.1272 L731.76 88.3041 L728.517 88.5534 L725.274 88.8786 L722.031 89.2826 L718.788 89.7684 L715.545 90.3385 L712.302 90.9953 L709.059 91.7409 L705.816 92.5772 L702.573 93.5056 L699.33 94.5277 L696.087 95.6444 L692.844 96.8567 L689.601 98.165 L686.358 99.5698 L683.115 101.071 L679.872 102.668 L676.629 104.361 L673.385 106.149 L670.142 108.03 L666.899 110.004 L663.656 112.067 L660.413 114.219 L657.17 116.457 L653.927 118.777 L650.684 121.176 L647.441 123.65 L644.198 126.196 L640.955 128.807 L637.712 131.48 L634.469 134.208 L631.226 136.985 L627.983 139.803 L624.74 142.655 L621.497 145.534 L618.254 148.429 L615.011 151.332 L611.768 154.233 L608.525 157.12 L605.282 159.984 L602.039 162.822 L598.796 165.632 L595.553 168.411 L592.31 171.155 L589.067 173.861 L585.824 176.523 L582.581 179.136 L579.338 181.696 L576.095 184.194 L572.852 186.625 L569.609 188.982 L566.366 191.264 L563.122 193.47 L559.879 195.604 L556.636 197.669 L553.393 199.67 L550.15 201.612 L546.907 203.498 L543.664 205.333 L540.421 207.121 L537.178 208.871 L533.935 210.592 L530.692 212.291 L527.449 213.979 L524.206 215.665 L520.963 217.356 L517.72 219.06 L514.477 220.785 L511.234 222.535 L507.991 224.316 L504.748 226.133 L501.505 227.988 L498.262 229.885 L495.019 231.832 L491.776 233.837 L488.533 235.909 L485.29 238.053 L482.047 240.276 L478.804 242.581 L475.561 244.974 L472.318 247.456 L469.075 250.029 L465.832 252.695 L462.589 255.454 L459.346 258.303 L456.103 261.242 L452.859 264.268 L449.616 267.376 L446.373 270.563 L443.13 273.821 L439.887 277.145 L436.644 280.526 L433.401 283.956 L430.158 287.425 L426.915 290.922 L423.672 294.434 L420.429 297.95 L417.186 301.455 L413.943 304.933 L410.7 308.369 L407.457 311.746 L404.214 315.046 L400.971 318.25 L397.728 321.339 L394.485 324.293 L391.242 327.091 L387.999 329.715 L384.756 332.143 L381.513 334.355 L378.27 336.333 L375.027 338.059 L371.784 339.53 L368.541 340.741 L365.298 341.696 L362.055 342.404 L358.812 342.88 L355.569 343.137 L352.326 343.188 L349.083 343.049 L345.84 342.733 L342.596 342.252 L339.353 341.62 L336.11 340.849 L332.867 339.95 L329.624 338.935 L326.381 337.814 L323.138 336.597 L319.895 335.293 L316.652 333.911 L313.409 332.458 L310.166 330.944 L306.923 329.374 L303.68 327.755 L300.437 326.094 L297.194 324.395 L293.951 322.665 L290.708 320.907 L287.465 319.127 L284.222 317.329 L280.979 315.516 L277.736 313.692 L274.493 311.861 L271.25 310.025 L268.007 308.187 L264.764 306.35 L261.521 304.516 L258.278 302.687 L255.035 300.865  Z" fill="#3da44d" fill-rule="evenodd" fill-opacity="0.1"/>
<polyline clip-path="url(#clip162)" style="stroke:#3da44d; stroke-linecap:round; stroke-linejoin:round; stroke-width:8; stroke-opacity:1; fill:none" points="255.035,600.782 258.278,598.722 261.521,596.633 264.764,594.515 268.007,592.367 271.25,590.189 274.493,587.981 277.736,585.742 280.979,583.472 284.222,581.171 287.465,578.837 290.708,576.471 293.951,574.072 297.194,571.64 300.437,569.175 303.68,566.675 306.923,564.141 310.166,561.571 313.409,558.967 316.652,556.326 319.895,553.649 323.138,550.935 326.381,548.184 329.624,545.396 332.867,542.569 336.11,539.703 339.353,536.798 342.596,533.853 345.84,530.869 349.083,527.843 352.326,524.776 355.569,521.668 358.812,518.517 362.055,515.324 365.298,512.087 368.541,508.806 371.784,505.482 375.027,502.117 378.27,498.717 381.513,495.285 384.756,491.824 387.999,488.335 391.242,484.821 394.485,481.283 397.728,477.723 400.971,474.145 404.214,470.548 407.457,466.937 410.7,463.312 413.943,459.676 417.186,456.03 420.429,452.378 423.672,448.721 426.915,445.06 430.158,441.4 433.401,437.741 436.644,434.086 439.887,430.437 443.13,426.796 446.373,423.166 449.616,419.55 452.859,415.949 456.103,412.365 459.346,408.803 462.589,405.263 465.832,401.749 469.075,398.263 472.318,394.808 475.561,391.386 478.804,388.001 482.047,384.655 485.29,381.351 488.533,378.092 491.776,374.88 495.019,371.72 498.262,368.614 501.505,365.565 504.748,362.576 507.991,359.652 511.234,356.795 514.477,354.011 517.72,351.303 520.963,348.674 524.206,346.13 527.449,343.674 530.692,341.31 533.935,339.043 537.178,336.877 540.421,334.812 543.664,332.846 546.907,330.978 550.15,329.207 553.393,327.53 556.636,325.945 559.879,324.449 563.122,323.041 566.366,321.717 569.609,320.477 572.852,319.317 576.095,318.234 579.338,317.223 582.581,316.281 585.824,315.402 589.067,314.582 592.31,313.818 595.553,313.105 598.796,312.439 602.039,311.816 605.282,311.233 608.525,310.685 611.768,310.169 615.011,309.683 618.254,309.226 621.497,308.796 624.74,308.392 627.983,308.012 631.226,307.655 634.469,307.32 637.712,307.006 640.955,306.711 644.198,306.435 647.441,306.176 650.684,305.933 653.927,305.706 657.17,305.494 660.413,305.295 663.656,305.11 666.899,304.936 670.142,304.774 673.385,304.623 676.629,304.483 679.872,304.352 683.115,304.23 686.358,304.117 689.601,304.013 692.844,303.916 696.087,303.827 699.33,303.745 702.573,303.671 705.816,303.603 709.059,303.542 712.302,303.487 715.545,303.439 718.788,303.398 722.031,303.362 725.274,303.334 728.517,303.312 731.76,303.297 735.003,303.289 738.246,303.288 741.489,303.295 744.732,303.309 747.975,303.332 751.218,303.363 754.461,303.404 757.704,303.453 760.947,303.513 764.19,303.584 767.433,303.665 770.676,303.759 773.919,303.866 777.162,303.986 780.405,304.12 783.648,304.269 786.892,304.435 790.135,304.617 793.378,304.818 796.621,305.037 799.864,305.277 803.107,305.537 806.35,305.82 809.593,306.125 812.836,306.455 816.079,306.811 819.322,307.194 822.565,307.605 825.808,308.045 829.051,308.517 832.294,309.021 835.537,309.559 838.78,310.133 842.023,310.745 845.266,311.396 848.509,312.088 851.752,312.823 854.995,313.603 858.238,314.43 861.481,315.306 864.724,316.234 867.967,317.214 871.21,318.25 874.453,319.345 877.696,320.499 880.939,321.717 884.182,323.001 887.425,324.352 890.668,325.774 893.911,327.271 897.155,328.844 900.398,330.496 903.641,332.231 906.884,334.053 910.127,335.963 913.37,337.966 916.613,340.064 919.856,342.261 923.099,344.554 926.342,346.939 929.585,349.415 932.828,351.976 936.071,354.621 939.314,357.346 942.557,360.149 945.8,363.027 949.043,365.977 952.286,368.996 955.529,372.083 958.772,375.234 962.015,378.447 965.258,381.72 968.501,385.05 971.744,388.436 974.987,391.875 978.23,395.365 981.473,398.904 984.716,402.491 987.959,406.122 991.202,409.798 994.445,413.515 997.688,417.272 1000.93,421.068 1004.17,424.9 1007.42,428.768 1010.66,432.67 1013.9,436.603 1017.15,440.568 1020.39,444.562 1023.63,448.585 1026.88,452.634 1030.12,456.709 1033.36,460.809 1036.6,464.932 1039.85,469.077 1043.09,473.244 1046.33,477.431 1049.58,481.637 1052.82,485.861 1056.06,490.102 1059.31,494.36 1062.55,498.633 1065.79,502.921 1069.04,507.224 1072.28,511.539 1075.52,515.866 1078.76,520.206 1082.01,524.556 1085.25,528.917 1088.49,533.287 1091.74,537.666 1094.98,542.054 1098.22,546.45 1101.47,550.854 1104.71,555.264 1107.95,559.681 1111.19,564.103 1114.44,568.531 1117.68,572.964 1120.92,577.402 1124.17,581.844 1127.41,586.29 1130.65,590.739 1133.9,595.191 1137.14,599.646 1140.38,604.104 1143.62,608.563 1146.87,613.025 1150.11,617.488 1153.35,621.953 1156.6,626.418 1159.84,630.885 1163.08,635.351 1166.33,639.819 1169.57,644.286 1172.81,648.754 1176.06,653.221 1179.3,657.688 1182.54,662.154 1185.78,666.62 1189.03,671.084 1192.27,675.547 1195.51,680.01 1198.76,684.471 1202,688.93 1205.24,693.388 1208.49,697.843 1211.73,702.297 1214.97,706.749 1218.21,711.199 1221.46,715.646 1224.7,720.092 1227.94,724.534 1231.19,728.974 1234.43,733.411 1237.67,737.845 1240.92,742.276 1244.16,746.704 1247.4,751.129 1250.64,755.551 1253.89,759.969 1257.13,764.383 1260.37,768.793 1263.62,773.2 1266.86,777.602 1270.1,782.001 1273.35,786.394 1276.59,790.784 1279.83,795.168 1283.08,799.548 1286.32,803.923 1289.56,808.292 1292.8,812.656 1296.05,817.014 1299.29,821.367 1302.53,825.713 1305.78,830.053 1309.02,834.386 1312.26,838.713 1315.51,843.032 1318.75,847.344 1321.99,851.648 1325.23,855.944 1328.48,860.231 1331.72,864.51 1334.96,868.78 1338.21,873.04 1341.45,877.29 1344.69,881.53 1347.94,885.76 1351.18,889.978 1354.42,894.184 1357.66,898.378 1360.91,902.56 1364.15,906.728 1367.39,910.883 1370.64,915.023 1373.88,919.149 1377.12,923.259 1380.37,927.352 1383.61,931.429 1386.85,935.488 1390.1,939.529 1393.34,943.55 1396.58,947.552 1399.82,951.533 1403.07,955.492 1406.31,959.429 1409.55,963.343 1412.8,967.232 1416.04,971.096 1419.28,974.934 1422.53,978.744 1425.77,982.525 1429.01,986.274 1432.25,989.987 1435.5,993.659 1438.74,997.287 1441.98,1000.87 1445.23,1004.39 1448.47,1007.86 1451.71,1011.27 1454.96,1014.62 1458.2,1017.9 1461.44,1021.12 1464.68,1024.27 1467.93,1027.37 1471.17,1030.41 1474.41,1033.39 1477.66,1036.32 1480.9,1039.2 1484.14,1042.04 1487.39,1044.83 1490.63,1047.58 1493.87,1050.29 1497.11,1052.97 1500.36,1055.61 1503.6,1058.22 1506.84,1060.8 1510.09,1063.36 1513.33,1065.89 1516.57,1068.4 1519.82,1070.89 1523.06,1073.36 1526.3,1075.81 1529.55,1078.25 1532.79,1080.68 1536.03,1083.1 1539.27,1085.52 1542.52,1087.92 1545.76,1090.32 1549,1092.73 1552.25,1095.13 1555.49,1097.53 1558.73,1099.93 1561.98,1102.34 1565.22,1104.75 1568.46,1107.17 1571.7,1109.58 1574.95,1112 1578.19,1114.41 1581.43,1116.81 1584.68,1119.21 1587.92,1121.61 1591.16,1123.99 1594.41,1126.36 1597.65,1128.72 1600.89,1131.06 1604.13,1133.39 1607.38,1135.7 1610.62,1137.99 1613.86,1140.25 1617.11,1142.49 1620.35,1144.7 1623.59,1146.88 1626.84,1149.03 1630.08,1151.15 1633.32,1153.23 1636.57,1155.27 1639.81,1157.27 1643.05,1159.22 1646.29,1161.13 1649.54,1162.99 1652.78,1164.8 1656.02,1166.55 1659.27,1168.25 1662.51,1169.88 1665.75,1171.45 1669,1172.96 1672.24,1174.4 1675.48,1175.78 1678.72,1177.1 1681.97,1178.34 1685.21,1179.53 1688.45,1180.64 1691.7,1181.69 1694.94,1182.68 1698.18,1183.62 1701.43,1184.49 1704.67,1185.31 1707.91,1186.07 1711.15,1186.79 1714.4,1187.46 1717.64,1188.08 1720.88,1188.65 1724.13,1189.19 1727.37,1189.68 1730.61,1190.13 1733.86,1190.54 1737.1,1190.92 1740.34,1191.26 1743.59,1191.57 1746.83,1191.85 1750.07,1192.1 1753.31,1192.31 1756.56,1192.5 1759.8,1192.66 1763.04,1192.79 1766.29,1192.9 1769.53,1192.98 1772.77,1193.05 1776.02,1193.08 1779.26,1193.1 1782.5,1193.09 1785.74,1193.07 1788.99,1193.02 1792.23,1192.96 1795.47,1192.87 1798.72,1192.77 1801.96,1192.65 1805.2,1192.51 1808.45,1192.36 1811.69,1192.19 1814.93,1192 1818.17,1191.8 1821.42,1191.58 1824.66,1191.34 1827.9,1191.08 1831.15,1190.81 1834.39,1190.53 1837.63,1190.23 1840.88,1189.91 1844.12,1189.57 1847.36,1189.21 1850.61,1188.84 1853.85,1188.45 1857.09,1188.04 1860.33,1187.62 1863.58,1187.17 1866.82,1186.7 1870.06,1186.21 1873.31,1185.7 1876.55,1185.17 1879.79,1184.62 1883.04,1184.04 1886.28,1183.43 1889.52,1182.81 1892.76,1182.15 1896.01,1181.47 1899.25,1180.75 1902.49,1180.01 1905.74,1179.23 1908.98,1178.43 1912.22,1177.58 1915.47,1176.71 1918.71,1175.79 1921.95,1174.84 1925.19,1173.85 1928.44,1172.81 1931.68,1171.73 1934.92,1170.61 1938.17,1169.43 1941.41,1168.21 1944.65,1166.94 1947.9,1165.62 1951.14,1164.23 1954.38,1162.79 1957.63,1161.3 1960.87,1159.74 1964.11,1158.13 1967.35,1156.46 1970.6,1154.74 1973.84,1152.97 1977.08,1151.14 1980.33,1149.27 1983.57,1147.36 1986.81,1145.39 1990.06,1143.38 1993.3,1141.33 1996.54,1139.24 1999.78,1137.1 2003.03,1134.92 2006.27,1132.71 2009.51,1130.45 2012.76,1128.16 2016,1125.84 2019.24,1123.47 2022.49,1121.08 2025.73,1118.66 2028.97,1116.21 2032.21,1113.73 2035.46,1111.22 2038.7,1108.69 2041.94,1106.15 2045.19,1103.58 2048.43,1100.99 2051.67,1098.38 2054.92,1095.76 2058.16,1093.12 2061.4,1090.47 2064.65,1087.8 2067.89,1085.13 2071.13,1082.44 2074.37,1079.75 2077.62,1077.05 2080.86,1074.34 2084.1,1071.62 2087.35,1068.9 2090.59,1066.18 2093.83,1063.45 2097.08,1060.73 2100.32,1058 2103.56,1055.27 2106.8,1052.54 2110.05,1049.81 2113.29,1047.09 2116.53,1044.37 2119.78,1041.65 2123.02,1038.93 2126.26,1036.23 2129.51,1033.52 2132.75,1030.82 2135.99,1028.13 2139.23,1025.45 2142.48,1022.77 2145.72,1020.11 2148.96,1017.45 2152.21,1014.8 2155.45,1012.16 2158.69,1009.53 2161.94,1006.91 2165.18,1004.31 2168.42,1001.71 2171.67,999.126 2174.91,996.555 2178.15,993.996 2181.39,991.449 2184.64,988.916 2187.88,986.397 2191.12,983.891 2194.37,981.399 2197.61,978.922 2200.85,976.459 2204.1,974.011 2207.34,971.578 2210.58,969.16 2213.82,966.757 2217.07,964.37 2220.31,961.999 2223.55,959.644 2226.8,957.305 2230.04,954.982 2233.28,952.675 2236.53,950.385 2239.77,948.112 2243.01,945.855 2246.25,943.615 2249.5,941.391 2252.74,939.185 2255.98,936.996 2259.23,934.824 2262.47,932.669 2265.71,930.531 2268.96,928.411 2272.2,926.307 2275.44,924.221 2278.69,922.153 2281.93,920.102 2285.17,918.068 2288.41,916.051 2291.66,914.052 "/>
<path clip-path="url(#clip160)" d="M1953.46 302.578 L2280.8 302.578 L2280.8 95.2176 L1953.46 95.2176  Z" fill="#ffffff" fill-rule="evenodd" fill-opacity="1"/>
<polyline clip-path="url(#clip160)" style="stroke:#000000; stroke-linecap:round; stroke-linejoin:round; stroke-width:4; stroke-opacity:1; fill:none" points="1953.46,302.578 2280.8,302.578 2280.8,95.2176 1953.46,95.2176 1953.46,302.578 "/>
<polyline clip-path="url(#clip160)" style="stroke:#009af9; stroke-linecap:round; stroke-linejoin:round; stroke-width:4; stroke-opacity:1; fill:none" points="1977.44,147.058 2121.36,147.058 "/>
<path clip-path="url(#clip160)" d="M2152.76 131.051 L2152.76 138.412 L2161.53 138.412 L2161.53 141.722 L2152.76 141.722 L2152.76 155.796 Q2152.76 158.967 2153.61 159.87 Q2154.49 160.773 2157.16 160.773 L2161.53 160.773 L2161.53 164.338 L2157.16 164.338 Q2152.23 164.338 2150.35 162.509 Q2148.48 160.657 2148.48 155.796 L2148.48 141.722 L2145.35 141.722 L2145.35 138.412 L2148.48 138.412 L2148.48 131.051 L2152.76 131.051 Z" fill="#000000" fill-rule="nonzero" fill-opacity="1" /><path clip-path="url(#clip160)" d="M2182.16 142.393 Q2181.44 141.977 2180.58 141.791 Q2179.75 141.583 2178.73 141.583 Q2175.12 141.583 2173.17 143.944 Q2171.25 146.282 2171.25 150.68 L2171.25 164.338 L2166.97 164.338 L2166.97 138.412 L2171.25 138.412 L2171.25 142.44 Q2172.6 140.078 2174.75 138.944 Q2176.9 137.787 2179.98 137.787 Q2180.42 137.787 2180.95 137.856 Q2181.48 137.903 2182.13 138.018 L2182.16 142.393 Z" fill="#000000" fill-rule="nonzero" fill-opacity="1" /><path clip-path="url(#clip160)" d="M2186.18 154.106 L2186.18 138.412 L2190.44 138.412 L2190.44 153.944 Q2190.44 157.625 2191.88 159.476 Q2193.31 161.305 2196.18 161.305 Q2199.63 161.305 2201.62 159.106 Q2203.64 156.907 2203.64 153.111 L2203.64 138.412 L2207.9 138.412 L2207.9 164.338 L2203.64 164.338 L2203.64 160.356 Q2202.09 162.717 2200.03 163.875 Q2197.99 165.009 2195.28 165.009 Q2190.81 165.009 2188.5 162.231 Q2186.18 159.453 2186.18 154.106 M2196.9 137.787 L2196.9 137.787 Z" fill="#000000" fill-rule="nonzero" fill-opacity="1" /><path clip-path="url(#clip160)" d="M2220.88 131.051 L2220.88 138.412 L2229.66 138.412 L2229.66 141.722 L2220.88 141.722 L2220.88 155.796 Q2220.88 158.967 2221.74 159.87 Q2222.62 160.773 2225.28 160.773 L2229.66 160.773 L2229.66 164.338 L2225.28 164.338 Q2220.35 164.338 2218.48 162.509 Q2216.6 160.657 2216.6 155.796 L2216.6 141.722 L2213.48 141.722 L2213.48 138.412 L2216.6 138.412 L2216.6 131.051 L2220.88 131.051 Z" fill="#000000" fill-rule="nonzero" fill-opacity="1" /><path clip-path="url(#clip160)" d="M2256.81 148.689 L2256.81 164.338 L2252.55 164.338 L2252.55 148.828 Q2252.55 145.148 2251.11 143.319 Q2249.68 141.49 2246.81 141.49 Q2243.36 141.49 2241.37 143.69 Q2239.38 145.889 2239.38 149.685 L2239.38 164.338 L2235.1 164.338 L2235.1 128.319 L2239.38 128.319 L2239.38 142.44 Q2240.91 140.102 2242.97 138.944 Q2245.05 137.787 2247.76 137.787 Q2252.23 137.787 2254.52 140.565 Q2256.81 143.319 2256.81 148.689 Z" fill="#000000" fill-rule="nonzero" fill-opacity="1" /><circle clip-path="url(#clip160)" cx="2049.4" cy="198.898" r="20.48" fill="#e26f46" fill-rule="evenodd" fill-opacity="1" stroke="#000000" stroke-opacity="1" stroke-width="4.55111"/>
<path clip-path="url(#clip160)" d="M2164.26 194.187 L2164.26 180.159 L2168.52 180.159 L2168.52 216.178 L2164.26 216.178 L2164.26 212.289 Q2162.92 214.603 2160.86 215.738 Q2158.82 216.849 2155.95 216.849 Q2151.25 216.849 2148.29 213.099 Q2145.35 209.349 2145.35 203.238 Q2145.35 197.127 2148.29 193.377 Q2151.25 189.627 2155.95 189.627 Q2158.82 189.627 2160.86 190.761 Q2162.92 191.872 2164.26 194.187 M2149.75 203.238 Q2149.75 207.937 2151.67 210.622 Q2153.61 213.284 2156.99 213.284 Q2160.37 213.284 2162.32 210.622 Q2164.26 207.937 2164.26 203.238 Q2164.26 198.539 2162.32 195.877 Q2160.37 193.192 2156.99 193.192 Q2153.61 193.192 2151.67 195.877 Q2149.75 198.539 2149.75 203.238 Z" fill="#000000" fill-rule="nonzero" fill-opacity="1" /><path clip-path="url(#clip160)" d="M2189.08 203.145 Q2183.92 203.145 2181.92 204.326 Q2179.93 205.506 2179.93 208.354 Q2179.93 210.622 2181.42 211.965 Q2182.92 213.284 2185.49 213.284 Q2189.03 213.284 2191.16 210.784 Q2193.31 208.261 2193.31 204.094 L2193.31 203.145 L2189.08 203.145 M2197.57 201.386 L2197.57 216.178 L2193.31 216.178 L2193.31 212.242 Q2191.85 214.603 2189.68 215.738 Q2187.5 216.849 2184.36 216.849 Q2180.37 216.849 2178.01 214.627 Q2175.67 212.381 2175.67 208.631 Q2175.67 204.256 2178.59 202.034 Q2181.53 199.812 2187.34 199.812 L2193.31 199.812 L2193.31 199.395 Q2193.31 196.455 2191.37 194.858 Q2189.45 193.238 2185.95 193.238 Q2183.73 193.238 2181.62 193.77 Q2179.52 194.303 2177.57 195.367 L2177.57 191.432 Q2179.91 190.53 2182.11 190.09 Q2184.31 189.627 2186.39 189.627 Q2192.02 189.627 2194.79 192.543 Q2197.57 195.46 2197.57 201.386 Z" fill="#000000" fill-rule="nonzero" fill-opacity="1" /><path clip-path="url(#clip160)" d="M2210.56 182.891 L2210.56 190.252 L2219.33 190.252 L2219.33 193.562 L2210.56 193.562 L2210.56 207.636 Q2210.56 210.807 2211.42 211.71 Q2212.29 212.613 2214.96 212.613 L2219.33 212.613 L2219.33 216.178 L2214.96 216.178 Q2210.03 216.178 2208.15 214.349 Q2206.28 212.497 2206.28 207.636 L2206.28 193.562 L2203.15 193.562 L2203.15 190.252 L2206.28 190.252 L2206.28 182.891 L2210.56 182.891 Z" fill="#000000" fill-rule="nonzero" fill-opacity="1" /><path clip-path="url(#clip160)" d="M2236.72 203.145 Q2231.55 203.145 2229.56 204.326 Q2227.57 205.506 2227.57 208.354 Q2227.57 210.622 2229.05 211.965 Q2230.56 213.284 2233.13 213.284 Q2236.67 213.284 2238.8 210.784 Q2240.95 208.261 2240.95 204.094 L2240.95 203.145 L2236.72 203.145 M2245.21 201.386 L2245.21 216.178 L2240.95 216.178 L2240.95 212.242 Q2239.49 214.603 2237.32 215.738 Q2235.14 216.849 2231.99 216.849 Q2228.01 216.849 2225.65 214.627 Q2223.31 212.381 2223.31 208.631 Q2223.31 204.256 2226.23 202.034 Q2229.17 199.812 2234.98 199.812 L2240.95 199.812 L2240.95 199.395 Q2240.95 196.455 2239.01 194.858 Q2237.09 193.238 2233.59 193.238 Q2231.37 193.238 2229.26 193.77 Q2227.16 194.303 2225.21 195.367 L2225.21 191.432 Q2227.55 190.53 2229.75 190.09 Q2231.95 189.627 2234.03 189.627 Q2239.66 189.627 2242.43 192.543 Q2245.21 195.46 2245.21 201.386 Z" fill="#000000" fill-rule="nonzero" fill-opacity="1" /><polyline clip-path="url(#clip160)" style="stroke:#3da44d; stroke-linecap:round; stroke-linejoin:round; stroke-width:8; stroke-opacity:1; fill:none" points="1977.44,250.738 2121.36,250.738 "/>
<path clip-path="url(#clip160)" d="M2170.91 263.087 L2170.91 253.805 L2163.27 253.805 L2163.27 249.962 L2175.54 249.962 L2175.54 264.8 Q2172.83 266.721 2169.56 267.717 Q2166.3 268.689 2162.6 268.689 Q2154.49 268.689 2149.91 263.967 Q2145.35 259.221 2145.35 250.772 Q2145.35 242.3 2149.91 237.578 Q2154.49 232.833 2162.6 232.833 Q2165.98 232.833 2169.01 233.666 Q2172.06 234.499 2174.63 236.12 L2174.63 241.096 Q2172.04 238.897 2169.12 237.786 Q2166.21 236.675 2162.99 236.675 Q2156.65 236.675 2153.45 240.217 Q2150.28 243.758 2150.28 250.772 Q2150.28 257.763 2153.45 261.305 Q2156.65 264.846 2162.99 264.846 Q2165.47 264.846 2167.41 264.43 Q2169.36 263.99 2170.91 263.087 Z" fill="#000000" fill-rule="nonzero" fill-opacity="1" /><path clip-path="url(#clip160)" d="M2188.75 237.3 L2188.75 250.286 L2194.63 250.286 Q2197.9 250.286 2199.68 248.596 Q2201.46 246.907 2201.46 243.782 Q2201.46 240.68 2199.68 238.99 Q2197.9 237.3 2194.63 237.3 L2188.75 237.3 M2184.08 233.458 L2194.63 233.458 Q2200.44 233.458 2203.41 236.096 Q2206.39 238.712 2206.39 243.782 Q2206.39 248.897 2203.41 251.513 Q2200.44 254.129 2194.63 254.129 L2188.75 254.129 L2188.75 268.018 L2184.08 268.018 L2184.08 233.458 Z" fill="#000000" fill-rule="nonzero" fill-opacity="1" /></svg>
