<?xml version="1.0" encoding="utf-8"?>
<svg xmlns="http://www.w3.org/2000/svg" xmlns:xlink="http://www.w3.org/1999/xlink" width="600" height="400" viewBox="0 0 2400 1600">
<defs>
  <clipPath id="clip370">
    <rect x="0" y="0" width="2400" height="1600"/>
  </clipPath>
</defs>
<path clip-path="url(#clip370)" d="M0 1600 L2400 1600 L2400 0 L0 0  Z" fill="#ffffff" fill-rule="evenodd" fill-opacity="1"/>
<defs>
  <clipPath id="clip371">
    <rect x="193" y="47" width="2160" height="1440"/>
  </clipPath>
</defs>
<path clip-path="url(#clip370)" d="M193.936 1486.45 L2352.76 1486.45 L2352.76 47.2441 L193.936 47.2441  Z" fill="#ffffff" fill-rule="evenodd" fill-opacity="1"/>
<polyline clip-path="url(#clip371)" style="stroke:#000000; stroke-linecap:round; stroke-linejoin:round; stroke-width:2; stroke-opacity:0.1; fill:none" points="255.035,1486.45 255.035,47.2441 "/>
<polyline clip-path="url(#clip371)" style="stroke:#000000; stroke-linecap:round; stroke-linejoin:round; stroke-width:2; stroke-opacity:0.1; fill:none" points="579.173,1486.45 579.173,47.2441 "/>
<polyline clip-path="url(#clip371)" style="stroke:#000000; stroke-linecap:round; stroke-linejoin:round; stroke-width:2; stroke-opacity:0.1; fill:none" points="903.312,1486.45 903.312,47.2441 "/>
<polyline clip-path="url(#clip371)" style="stroke:#000000; stroke-linecap:round; stroke-linejoin:round; stroke-width:2; stroke-opacity:0.1; fill:none" points="1227.45,1486.45 1227.45,47.2441 "/>
<polyline clip-path="url(#clip371)" style="stroke:#000000; stroke-linecap:round; stroke-linejoin:round; stroke-width:2; stroke-opacity:0.1; fill:none" points="1551.59,1486.45 1551.59,47.2441 "/>
<polyline clip-path="url(#clip371)" style="stroke:#000000; stroke-linecap:round; stroke-linejoin:round; stroke-width:2; stroke-opacity:0.1; fill:none" points="1875.73,1486.45 1875.73,47.2441 "/>
<polyline clip-path="url(#clip371)" style="stroke:#000000; stroke-linecap:round; stroke-linejoin:round; stroke-width:2; stroke-opacity:0.1; fill:none" points="2199.87,1486.45 2199.87,47.2441 "/>
<polyline clip-path="url(#clip371)" style="stroke:#000000; stroke-linecap:round; stroke-linejoin:round; stroke-width:2; stroke-opacity:0.1; fill:none" points="193.936,1281.24 2352.76,1281.24 "/>
<polyline clip-path="url(#clip371)" style="stroke:#000000; stroke-linecap:round; stroke-linejoin:round; stroke-width:2; stroke-opacity:0.1; fill:none" points="193.936,1020.16 2352.76,1020.16 "/>
<polyline clip-path="url(#clip371)" style="stroke:#000000; stroke-linecap:round; stroke-linejoin:round; stroke-width:2; stroke-opacity:0.1; fill:none" points="193.936,759.084 2352.76,759.084 "/>
<polyline clip-path="url(#clip371)" style="stroke:#000000; stroke-linecap:round; stroke-linejoin:round; stroke-width:2; stroke-opacity:0.1; fill:none" points="193.936,498.007 2352.76,498.007 "/>
<polyline clip-path="url(#clip371)" style="stroke:#000000; stroke-linecap:round; stroke-linejoin:round; stroke-width:2; stroke-opacity:0.1; fill:none" points="193.936,236.93 2352.76,236.93 "/>
<polyline clip-path="url(#clip370)" style="stroke:#000000; stroke-linecap:round; stroke-linejoin:round; stroke-width:4; stroke-opacity:1; fill:none" points="193.936,1486.45 2352.76,1486.45 "/>
<polyline clip-path="url(#clip370)" style="stroke:#000000; stroke-linecap:round; stroke-linejoin:round; stroke-width:4; stroke-opacity:1; fill:none" points="255.035,1486.45 255.035,1467.55 "/>
<polyline clip-path="url(#clip370)" style="stroke:#000000; stroke-linecap:round; stroke-linejoin:round; stroke-width:4; stroke-opacity:1; fill:none" points="579.173,1486.45 579.173,1467.55 "/>
<polyline clip-path="url(#clip370)" style="stroke:#000000; stroke-linecap:round; stroke-linejoin:round; stroke-width:4; stroke-opacity:1; fill:none" points="903.312,1486.45 903.312,1467.55 "/>
<polyline clip-path="url(#clip370)" style="stroke:#000000; stroke-linecap:round; stroke-linejoin:round; stroke-width:4; stroke-opacity:1; fill:none" points="1227.45,1486.45 1227.45,1467.55 "/>
<polyline clip-path="url(#clip370)" style="stroke:#000000; stroke-linecap:round; stroke-linejoin:round; stroke-width:4; stroke-opacity:1; fill:none" points="1551.59,1486.45 1551.59,1467.55 "/>
<polyline clip-path="url(#clip370)" style="stroke:#000000; stroke-linecap:round; stroke-linejoin:round; stroke-width:4; stroke-opacity:1; fill:none" points="1875.73,1486.45 1875.73,1467.55 "/>
<polyline clip-path="url(#clip370)" style="stroke:#000000; stroke-linecap:round; stroke-linejoin:round; stroke-width:4; stroke-opacity:1; fill:none" points="2199.87,1486.45 2199.87,1467.55 "/>
<path clip-path="url(#clip370)" d="M255.035 1517.37 Q251.424 1517.37 249.595 1520.93 Q247.789 1524.47 247.789 1531.6 Q247.789 1538.71 249.595 1542.27 Q251.424 1545.82 255.035 1545.82 Q258.669 1545.82 260.474 1542.27 Q262.303 1538.71 262.303 1531.6 Q262.303 1524.47 260.474 1520.93 Q258.669 1517.37 255.035 1517.37 M255.035 1513.66 Q260.845 1513.66 263.9 1518.27 Q266.979 1522.85 266.979 1531.6 Q266.979 1540.33 263.9 1544.94 Q260.845 1549.52 255.035 1549.52 Q249.225 1549.52 246.146 1544.94 Q243.09 1540.33 243.09 1531.6 Q243.09 1522.85 246.146 1518.27 Q249.225 1513.66 255.035 1513.66 Z" fill="#000000" fill-rule="nonzero" fill-opacity="1" /><path clip-path="url(#clip370)" d="M569.555 1544.91 L577.194 1544.91 L577.194 1518.55 L568.884 1520.21 L568.884 1515.95 L577.148 1514.29 L581.824 1514.29 L581.824 1544.91 L589.463 1544.91 L589.463 1548.85 L569.555 1548.85 L569.555 1544.91 Z" fill="#000000" fill-rule="nonzero" fill-opacity="1" /><path clip-path="url(#clip370)" d="M897.965 1544.91 L914.284 1544.91 L914.284 1548.85 L892.34 1548.85 L892.34 1544.91 Q895.002 1542.16 899.585 1537.53 Q904.191 1532.88 905.372 1531.53 Q907.617 1529.01 908.497 1527.27 Q909.4 1525.51 909.4 1523.82 Q909.4 1521.07 907.455 1519.33 Q905.534 1517.6 902.432 1517.6 Q900.233 1517.6 897.779 1518.36 Q895.349 1519.13 892.571 1520.68 L892.571 1515.95 Q895.395 1514.82 897.849 1514.24 Q900.303 1513.66 902.34 1513.66 Q907.71 1513.66 910.904 1516.35 Q914.099 1519.03 914.099 1523.52 Q914.099 1525.65 913.289 1527.57 Q912.502 1529.47 910.395 1532.07 Q909.816 1532.74 906.715 1535.95 Q903.613 1539.15 897.965 1544.91 Z" fill="#000000" fill-rule="nonzero" fill-opacity="1" /><path clip-path="url(#clip370)" d="M1231.7 1530.21 Q1235.05 1530.93 1236.93 1533.2 Q1238.83 1535.47 1238.83 1538.8 Q1238.83 1543.92 1235.31 1546.72 Q1231.79 1549.52 1225.31 1549.52 Q1223.13 1549.52 1220.82 1549.08 Q1218.53 1548.66 1216.07 1547.81 L1216.07 1543.29 Q1218.02 1544.43 1220.33 1545.01 Q1222.65 1545.58 1225.17 1545.58 Q1229.57 1545.58 1231.86 1543.85 Q1234.17 1542.11 1234.17 1538.8 Q1234.17 1535.75 1232.02 1534.03 Q1229.89 1532.3 1226.07 1532.3 L1222.05 1532.3 L1222.05 1528.45 L1226.26 1528.45 Q1229.71 1528.45 1231.54 1527.09 Q1233.36 1525.7 1233.36 1523.11 Q1233.36 1520.45 1231.47 1519.03 Q1229.59 1517.6 1226.07 1517.6 Q1224.15 1517.6 1221.95 1518.01 Q1219.75 1518.43 1217.11 1519.31 L1217.11 1515.14 Q1219.78 1514.4 1222.09 1514.03 Q1224.43 1513.66 1226.49 1513.66 Q1231.81 1513.66 1234.92 1516.09 Q1238.02 1518.5 1238.02 1522.62 Q1238.02 1525.49 1236.37 1527.48 Q1234.73 1529.45 1231.7 1530.21 Z" fill="#000000" fill-rule="nonzero" fill-opacity="1" /><path clip-path="url(#clip370)" d="M1554.6 1518.36 L1542.79 1536.81 L1554.6 1536.81 L1554.6 1518.36 M1553.37 1514.29 L1559.25 1514.29 L1559.25 1536.81 L1564.18 1536.81 L1564.18 1540.7 L1559.25 1540.7 L1559.25 1548.85 L1554.6 1548.85 L1554.6 1540.7 L1539 1540.7 L1539 1536.19 L1553.37 1514.29 Z" fill="#000000" fill-rule="nonzero" fill-opacity="1" /><path clip-path="url(#clip370)" d="M1866.01 1514.29 L1884.36 1514.29 L1884.36 1518.22 L1870.29 1518.22 L1870.29 1526.7 Q1871.31 1526.35 1872.32 1526.19 Q1873.34 1526 1874.36 1526 Q1880.15 1526 1883.53 1529.17 Q1886.91 1532.34 1886.91 1537.76 Q1886.91 1543.34 1883.44 1546.44 Q1879.96 1549.52 1873.64 1549.52 Q1871.47 1549.52 1869.2 1549.15 Q1866.95 1548.78 1864.55 1548.04 L1864.55 1543.34 Q1866.63 1544.47 1868.85 1545.03 Q1871.07 1545.58 1873.55 1545.58 Q1877.56 1545.58 1879.89 1543.48 Q1882.23 1541.37 1882.23 1537.76 Q1882.23 1534.15 1879.89 1532.04 Q1877.56 1529.94 1873.55 1529.94 Q1871.68 1529.94 1869.8 1530.35 Q1867.95 1530.77 1866.01 1531.65 L1866.01 1514.29 Z" fill="#000000" fill-rule="nonzero" fill-opacity="1" /><path clip-path="url(#clip370)" d="M2200.27 1529.7 Q2197.12 1529.7 2195.27 1531.86 Q2193.44 1534.01 2193.44 1537.76 Q2193.44 1541.49 2195.27 1543.66 Q2197.12 1545.82 2200.27 1545.82 Q2203.42 1545.82 2205.25 1543.66 Q2207.1 1541.49 2207.1 1537.76 Q2207.1 1534.01 2205.25 1531.86 Q2203.42 1529.7 2200.27 1529.7 M2209.55 1515.05 L2209.55 1519.31 Q2207.79 1518.48 2205.99 1518.04 Q2204.21 1517.6 2202.45 1517.6 Q2197.82 1517.6 2195.36 1520.72 Q2192.93 1523.85 2192.59 1530.17 Q2193.95 1528.15 2196.01 1527.09 Q2198.07 1526 2200.55 1526 Q2205.76 1526 2208.77 1529.17 Q2211.8 1532.32 2211.8 1537.76 Q2211.8 1543.08 2208.65 1546.3 Q2205.5 1549.52 2200.27 1549.52 Q2194.28 1549.52 2191.1 1544.94 Q2187.93 1540.33 2187.93 1531.6 Q2187.93 1523.41 2191.82 1518.55 Q2195.71 1513.66 2202.26 1513.66 Q2204.02 1513.66 2205.8 1514.01 Q2207.61 1514.36 2209.55 1515.05 Z" fill="#000000" fill-rule="nonzero" fill-opacity="1" /><polyline clip-path="url(#clip370)" style="stroke:#000000; stroke-linecap:round; stroke-linejoin:round; stroke-width:4; stroke-opacity:1; fill:none" points="193.936,1486.45 193.936,47.2441 "/>
<polyline clip-path="url(#clip370)" style="stroke:#000000; stroke-linecap:round; stroke-linejoin:round; stroke-width:4; stroke-opacity:1; fill:none" points="193.936,1281.24 212.834,1281.24 "/>
<polyline clip-path="url(#clip370)" style="stroke:#000000; stroke-linecap:round; stroke-linejoin:round; stroke-width:4; stroke-opacity:1; fill:none" points="193.936,1020.16 212.834,1020.16 "/>
<polyline clip-path="url(#clip370)" style="stroke:#000000; stroke-linecap:round; stroke-linejoin:round; stroke-width:4; stroke-opacity:1; fill:none" points="193.936,759.084 212.834,759.084 "/>
<polyline clip-path="url(#clip370)" style="stroke:#000000; stroke-linecap:round; stroke-linejoin:round; stroke-width:4; stroke-opacity:1; fill:none" points="193.936,498.007 212.834,498.007 "/>
<polyline clip-path="url(#clip370)" style="stroke:#000000; stroke-linecap:round; stroke-linejoin:round; stroke-width:4; stroke-opacity:1; fill:none" points="193.936,236.93 212.834,236.93 "/>
<path clip-path="url(#clip370)" d="M50.9921 1281.69 L80.6679 1281.69 L80.6679 1285.62 L50.9921 1285.62 L50.9921 1281.69 Z" fill="#000000" fill-rule="nonzero" fill-opacity="1" /><path clip-path="url(#clip370)" d="M91.5706 1294.58 L99.2095 1294.58 L99.2095 1268.22 L90.8993 1269.88 L90.8993 1265.62 L99.1632 1263.96 L103.839 1263.96 L103.839 1294.58 L111.478 1294.58 L111.478 1298.52 L91.5706 1298.52 L91.5706 1294.58 Z" fill="#000000" fill-rule="nonzero" fill-opacity="1" /><path clip-path="url(#clip370)" d="M120.922 1292.64 L125.807 1292.64 L125.807 1298.52 L120.922 1298.52 L120.922 1292.64 Z" fill="#000000" fill-rule="nonzero" fill-opacity="1" /><path clip-path="url(#clip370)" d="M145.992 1267.04 Q142.381 1267.04 140.552 1270.6 Q138.746 1274.14 138.746 1281.27 Q138.746 1288.38 140.552 1291.94 Q142.381 1295.49 145.992 1295.49 Q149.626 1295.49 151.431 1291.94 Q153.26 1288.38 153.26 1281.27 Q153.26 1274.14 151.431 1270.6 Q149.626 1267.04 145.992 1267.04 M145.992 1263.33 Q151.802 1263.33 154.857 1267.94 Q157.936 1272.52 157.936 1281.27 Q157.936 1290 154.857 1294.61 Q151.802 1299.19 145.992 1299.19 Q140.181 1299.19 137.103 1294.61 Q134.047 1290 134.047 1281.27 Q134.047 1272.52 137.103 1267.94 Q140.181 1263.33 145.992 1263.33 Z" fill="#000000" fill-rule="nonzero" fill-opacity="1" /><path clip-path="url(#clip370)" d="M51.9875 1020.61 L81.6633 1020.61 L81.6633 1024.55 L51.9875 1024.55 L51.9875 1020.61 Z" fill="#000000" fill-rule="nonzero" fill-opacity="1" /><path clip-path="url(#clip370)" d="M101.756 1005.96 Q98.1447 1005.96 96.316 1009.52 Q94.5104 1013.07 94.5104 1020.2 Q94.5104 1027.3 96.316 1030.87 Q98.1447 1034.41 101.756 1034.41 Q105.39 1034.41 107.196 1030.87 Q109.024 1027.3 109.024 1020.2 Q109.024 1013.07 107.196 1009.52 Q105.39 1005.96 101.756 1005.96 M101.756 1002.26 Q107.566 1002.26 110.621 1006.86 Q113.7 1011.45 113.7 1020.2 Q113.7 1028.92 110.621 1033.53 Q107.566 1038.11 101.756 1038.11 Q95.9456 1038.11 92.8669 1033.53 Q89.8114 1028.92 89.8114 1020.2 Q89.8114 1011.45 92.8669 1006.86 Q95.9456 1002.26 101.756 1002.26 Z" fill="#000000" fill-rule="nonzero" fill-opacity="1" /><path clip-path="url(#clip370)" d="M121.918 1031.56 L126.802 1031.56 L126.802 1037.44 L121.918 1037.44 L121.918 1031.56 Z" fill="#000000" fill-rule="nonzero" fill-opacity="1" /><path clip-path="url(#clip370)" d="M137.033 1002.88 L155.39 1002.88 L155.39 1006.82 L141.316 1006.82 L141.316 1015.29 Q142.334 1014.94 143.353 1014.78 Q144.371 1014.59 145.39 1014.59 Q151.177 1014.59 154.556 1017.76 Q157.936 1020.94 157.936 1026.35 Q157.936 1031.93 154.464 1035.03 Q150.992 1038.11 144.672 1038.11 Q142.496 1038.11 140.228 1037.74 Q137.982 1037.37 135.575 1036.63 L135.575 1031.93 Q137.658 1033.07 139.881 1033.62 Q142.103 1034.18 144.58 1034.18 Q148.584 1034.18 150.922 1032.07 Q153.26 1029.96 153.26 1026.35 Q153.26 1022.74 150.922 1020.64 Q148.584 1018.53 144.58 1018.53 Q142.705 1018.53 140.83 1018.95 Q138.978 1019.36 137.033 1020.24 L137.033 1002.88 Z" fill="#000000" fill-rule="nonzero" fill-opacity="1" /><path clip-path="url(#clip370)" d="M100.76 744.883 Q97.1493 744.883 95.3206 748.447 Q93.515 751.989 93.515 759.119 Q93.515 766.225 95.3206 769.79 Q97.1493 773.332 100.76 773.332 Q104.395 773.332 106.2 769.79 Q108.029 766.225 108.029 759.119 Q108.029 751.989 106.2 748.447 Q104.395 744.883 100.76 744.883 M100.76 741.179 Q106.571 741.179 109.626 745.785 Q112.705 750.369 112.705 759.119 Q112.705 767.845 109.626 772.452 Q106.571 777.035 100.76 777.035 Q94.9502 777.035 91.8715 772.452 Q88.816 767.845 88.816 759.119 Q88.816 750.369 91.8715 745.785 Q94.9502 741.179 100.76 741.179 Z" fill="#000000" fill-rule="nonzero" fill-opacity="1" /><path clip-path="url(#clip370)" d="M120.922 770.484 L125.807 770.484 L125.807 776.364 L120.922 776.364 L120.922 770.484 Z" fill="#000000" fill-rule="nonzero" fill-opacity="1" /><path clip-path="url(#clip370)" d="M145.992 744.883 Q142.381 744.883 140.552 748.447 Q138.746 751.989 138.746 759.119 Q138.746 766.225 140.552 769.79 Q142.381 773.332 145.992 773.332 Q149.626 773.332 151.431 769.79 Q153.26 766.225 153.26 759.119 Q153.26 751.989 151.431 748.447 Q149.626 744.883 145.992 744.883 M145.992 741.179 Q151.802 741.179 154.857 745.785 Q157.936 750.369 157.936 759.119 Q157.936 767.845 154.857 772.452 Q151.802 777.035 145.992 777.035 Q140.181 777.035 137.103 772.452 Q134.047 767.845 134.047 759.119 Q134.047 750.369 137.103 745.785 Q140.181 741.179 145.992 741.179 Z" fill="#000000" fill-rule="nonzero" fill-opacity="1" /><path clip-path="url(#clip370)" d="M101.756 483.806 Q98.1447 483.806 96.316 487.371 Q94.5104 490.912 94.5104 498.042 Q94.5104 505.148 96.316 508.713 Q98.1447 512.255 101.756 512.255 Q105.39 512.255 107.196 508.713 Q109.024 505.148 109.024 498.042 Q109.024 490.912 107.196 487.371 Q105.39 483.806 101.756 483.806 M101.756 480.102 Q107.566 480.102 110.621 484.709 Q113.7 489.292 113.7 498.042 Q113.7 506.769 110.621 511.375 Q107.566 515.958 101.756 515.958 Q95.9456 515.958 92.8669 511.375 Q89.8114 506.769 89.8114 498.042 Q89.8114 489.292 92.8669 484.709 Q95.9456 480.102 101.756 480.102 Z" fill="#000000" fill-rule="nonzero" fill-opacity="1" /><path clip-path="url(#clip370)" d="M121.918 509.407 L126.802 509.407 L126.802 515.287 L121.918 515.287 L121.918 509.407 Z" fill="#000000" fill-rule="nonzero" fill-opacity="1" /><path clip-path="url(#clip370)" d="M137.033 480.727 L155.39 480.727 L155.39 484.662 L141.316 484.662 L141.316 493.134 Q142.334 492.787 143.353 492.625 Q144.371 492.44 145.39 492.44 Q151.177 492.44 154.556 495.611 Q157.936 498.783 157.936 504.199 Q157.936 509.778 154.464 512.88 Q150.992 515.958 144.672 515.958 Q142.496 515.958 140.228 515.588 Q137.982 515.218 135.575 514.477 L135.575 509.778 Q137.658 510.912 139.881 511.468 Q142.103 512.023 144.58 512.023 Q148.584 512.023 150.922 509.917 Q153.26 507.81 153.26 504.199 Q153.26 500.588 150.922 498.482 Q148.584 496.375 144.58 496.375 Q142.705 496.375 140.83 496.792 Q138.978 497.208 137.033 498.088 L137.033 480.727 Z" fill="#000000" fill-rule="nonzero" fill-opacity="1" /><path clip-path="url(#clip370)" d="M91.5706 250.275 L99.2095 250.275 L99.2095 223.909 L90.8993 225.576 L90.8993 221.317 L99.1632 219.65 L103.839 219.65 L103.839 250.275 L111.478 250.275 L111.478 254.21 L91.5706 254.21 L91.5706 250.275 Z" fill="#000000" fill-rule="nonzero" fill-opacity="1" /><path clip-path="url(#clip370)" d="M120.922 248.331 L125.807 248.331 L125.807 254.21 L120.922 254.21 L120.922 248.331 Z" fill="#000000" fill-rule="nonzero" fill-opacity="1" /><path clip-path="url(#clip370)" d="M145.992 222.729 Q142.381 222.729 140.552 226.294 Q138.746 229.835 138.746 236.965 Q138.746 244.071 140.552 247.636 Q142.381 251.178 145.992 251.178 Q149.626 251.178 151.431 247.636 Q153.26 244.071 153.26 236.965 Q153.26 229.835 151.431 226.294 Q149.626 222.729 145.992 222.729 M145.992 219.025 Q151.802 219.025 154.857 223.632 Q157.936 228.215 157.936 236.965 Q157.936 245.692 154.857 250.298 Q151.802 254.882 145.992 254.882 Q140.181 254.882 137.103 250.298 Q134.047 245.692 134.047 236.965 Q134.047 228.215 137.103 223.632 Q140.181 219.025 145.992 219.025 Z" fill="#000000" fill-rule="nonzero" fill-opacity="1" /><polyline clip-path="url(#clip371)" style="stroke:#009af9; stroke-linecap:round; stroke-linejoin:round; stroke-width:4; stroke-opacity:1; fill:none" points="255.035,759.084 258.276,753.862 261.517,748.642 264.759,743.422 268,738.203 271.242,732.987 274.483,727.773 277.724,722.563 280.966,717.356 284.207,712.153 287.449,706.956 290.69,701.763 293.931,696.576 297.173,691.395 300.414,686.221 303.655,681.054 306.897,675.895 310.138,670.745 313.38,665.603 316.621,660.471 319.862,655.348 323.104,650.236 326.345,645.135 329.587,640.045 332.828,634.967 336.069,629.901 339.311,624.848 342.552,619.809 345.793,614.784 349.035,609.773 352.276,604.777 355.518,599.796 358.759,594.832 362,589.884 365.242,584.952 368.483,580.039 371.725,575.143 374.966,570.265 378.207,565.406 381.449,560.567 384.69,555.748 387.931,550.949 391.173,546.17 394.414,541.413 397.656,536.678 400.897,531.965 404.138,527.275 407.38,522.608 410.621,517.964 413.863,513.345 417.104,508.75 420.345,504.18 423.587,499.636 426.828,495.118 430.069,490.626 433.311,486.161 436.552,481.723 439.794,477.313 443.035,472.931 446.276,468.578 449.518,464.254 452.759,459.959 456.001,455.694 459.242,451.46 462.483,447.256 465.725,443.084 468.966,438.943 472.208,434.834 475.449,430.757 478.69,426.714 481.932,422.703 485.173,418.727 488.414,414.784 491.656,410.875 494.897,407.002 498.139,403.164 501.38,399.361 504.621,395.594 507.863,391.864 511.104,388.17 514.346,384.514 517.587,380.895 520.828,377.313 524.07,373.77 527.311,370.266 530.552,366.8 533.794,363.374 537.035,359.987 540.277,356.64 543.518,353.333 546.759,350.067 550.001,346.842 553.242,343.658 556.484,340.515 559.725,337.414 562.966,334.356 566.208,331.34 569.449,328.367 572.69,325.437 575.932,322.55 579.173,319.707 582.415,316.908 585.656,314.153 588.897,311.442 592.139,308.776 595.38,306.156 598.622,303.58 601.863,301.05 605.104,298.566 608.346,296.128 611.587,293.737 614.828,291.392 618.07,289.093 621.311,286.842 624.553,284.638 627.794,282.481 631.035,280.372 634.277,278.311 637.518,276.297 640.76,274.333 644.001,272.416 647.242,270.549 650.484,268.73 653.725,266.96 656.966,265.239 660.208,263.568 663.449,261.946 666.691,260.374 669.932,258.852 673.173,257.38 676.415,255.958 679.656,254.587 682.898,253.266 686.139,251.995 689.38,250.775 692.622,249.606 695.863,248.488 699.104,247.421 702.346,246.405 705.587,245.441 708.829,244.528 712.07,243.666 715.311,242.856 718.553,242.097 721.794,241.39 725.036,240.735 728.277,240.132 731.518,239.58 734.76,239.081 738.001,238.634 741.242,238.238 744.484,237.895 747.725,237.604 750.967,237.365 754.208,237.178 757.449,237.043 760.691,236.961 763.932,236.93 767.174,236.952 770.415,237.026 773.656,237.153 776.898,237.331 780.139,237.562 783.381,237.845 786.622,238.18 789.863,238.567 793.105,239.006 796.346,239.497 799.587,240.041 802.829,240.636 806.07,241.282 809.312,241.981 812.553,242.731 815.794,243.533 819.036,244.387 822.277,245.292 825.519,246.248 828.76,247.256 832.001,248.315 835.243,249.425 838.484,250.586 841.725,251.798 844.967,253.06 848.208,254.373 851.45,255.737 854.691,257.151 857.932,258.615 861.174,260.129 864.415,261.693 867.657,263.306 870.898,264.97 874.139,266.683 877.381,268.445 880.622,270.256 883.863,272.116 887.105,274.024 890.346,275.981 893.588,277.987 896.829,280.04 900.07,282.142 903.312,284.291 906.553,286.488 909.795,288.731 913.036,291.022 916.277,293.36 919.519,295.744 922.76,298.175 926.001,300.652 929.243,303.174 932.484,305.742 935.726,308.356 938.967,311.015 942.208,313.718 945.45,316.466 948.691,319.258 951.933,322.094 955.174,324.974 958.415,327.897 961.657,330.864 964.898,333.873 968.139,336.925 971.381,340.018 974.622,343.154 977.864,346.332 981.105,349.55 984.346,352.81 987.588,356.11 990.829,359.451 994.071,362.832 997.312,366.252 1000.55,369.711 1003.79,373.21 1007.04,376.747 1010.28,380.322 1013.52,383.935 1016.76,387.585 1020,391.273 1023.24,394.998 1026.48,398.759 1029.73,402.556 1032.97,406.388 1036.21,410.256 1039.45,414.159 1042.69,418.096 1045.93,422.068 1049.17,426.073 1052.42,430.111 1055.66,434.182 1058.9,438.286 1062.14,442.422 1065.38,446.589 1068.62,450.788 1071.86,455.018 1075.11,459.278 1078.35,463.568 1081.59,467.887 1084.83,472.236 1088.07,476.613 1091.31,481.019 1094.55,485.452 1097.79,489.913 1101.04,494.401 1104.28,498.915 1107.52,503.455 1110.76,508.021 1114,512.611 1117.24,517.227 1120.48,521.867 1123.73,526.53 1126.97,531.217 1130.21,535.926 1133.45,540.658 1136.69,545.411 1139.93,550.186 1143.17,554.982 1146.42,559.798 1149.66,564.634 1152.9,569.49 1156.14,574.365 1159.38,579.258 1162.62,584.169 1165.86,589.097 1169.11,594.043 1172.35,599.005 1175.59,603.983 1178.83,608.976 1182.07,613.985 1185.31,619.008 1188.55,624.045 1191.8,629.095 1195.04,634.159 1198.28,639.235 1201.52,644.323 1204.76,649.423 1208,654.533 1211.24,659.654 1214.48,664.785 1217.73,669.925 1220.97,675.074 1224.21,680.232 1227.45,685.398 1230.69,690.57 1233.93,695.75 1237.17,700.936 1240.42,706.128 1243.66,711.325 1246.9,716.527 1250.14,721.733 1253.38,726.943 1256.62,732.157 1259.86,737.372 1263.11,742.59 1266.35,747.81 1269.59,753.031 1272.83,758.252 1276.07,763.474 1279.31,768.695 1282.55,773.915 1285.8,779.134 1289.04,784.35 1292.28,789.564 1295.52,794.775 1298.76,799.983 1302,805.186 1305.24,810.385 1308.48,815.578 1311.73,820.766 1314.97,825.948 1318.21,831.123 1321.45,836.291 1324.69,841.451 1327.93,846.603 1331.17,851.747 1334.42,856.881 1337.66,862.005 1340.9,867.119 1344.14,872.222 1347.38,877.313 1350.62,882.393 1353.86,887.461 1357.11,892.516 1360.35,897.557 1363.59,902.585 1366.83,907.598 1370.07,912.596 1373.31,917.579 1376.55,922.546 1379.8,927.497 1383.04,932.431 1386.28,937.348 1389.52,942.247 1392.76,947.127 1396,951.989 1399.24,956.831 1402.49,961.654 1405.73,966.456 1408.97,971.238 1412.21,975.998 1415.45,980.737 1418.69,985.454 1421.93,990.148 1425.17,994.818 1428.42,999.466 1431.66,1004.09 1434.9,1008.69 1438.14,1013.26 1441.38,1017.81 1444.62,1022.33 1447.86,1026.83 1451.11,1031.3 1454.35,1035.74 1457.59,1040.15 1460.83,1044.54 1464.07,1048.9 1467.31,1053.23 1470.55,1057.53 1473.8,1061.8 1477.04,1066.04 1480.28,1070.24 1483.52,1074.42 1486.76,1078.57 1490,1082.68 1493.24,1086.76 1496.49,1090.81 1499.73,1094.83 1502.97,1098.81 1506.21,1102.76 1509.45,1106.67 1512.69,1110.55 1515.93,1114.4 1519.18,1118.2 1522.42,1121.98 1525.66,1125.71 1528.9,1129.41 1532.14,1133.07 1535.38,1136.7 1538.62,1140.29 1541.86,1143.84 1545.11,1147.35 1548.35,1150.82 1551.59,1154.25 1554.83,1157.64 1558.07,1161 1561.31,1164.31 1564.55,1167.58 1567.8,1170.82 1571.04,1174.01 1574.28,1177.16 1577.52,1180.26 1580.76,1183.33 1584,1186.35 1587.24,1189.33 1590.49,1192.27 1593.73,1195.16 1596.97,1198.01 1600.21,1200.82 1603.45,1203.58 1606.69,1206.3 1609.93,1208.97 1613.18,1211.6 1616.42,1214.18 1619.66,1216.72 1622.9,1219.21 1626.14,1221.65 1629.38,1224.05 1632.62,1226.41 1635.86,1228.71 1639.11,1230.97 1642.35,1233.18 1645.59,1235.35 1648.83,1237.46 1652.07,1239.53 1655.31,1241.55 1658.55,1243.53 1661.8,1245.45 1665.04,1247.33 1668.28,1249.15 1671.52,1250.93 1674.76,1252.66 1678,1254.34 1681.24,1255.97 1684.49,1257.55 1687.73,1259.08 1690.97,1260.56 1694.21,1261.99 1697.45,1263.37 1700.69,1264.7 1703.93,1265.97 1707.18,1267.2 1710.42,1268.38 1713.66,1269.5 1716.9,1270.58 1720.14,1271.6 1723.38,1272.58 1726.62,1273.5 1729.87,1274.37 1733.11,1275.19 1736.35,1275.95 1739.59,1276.67 1742.83,1277.33 1746.07,1277.94 1749.31,1278.5 1752.55,1279.01 1755.8,1279.47 1759.04,1279.87 1762.28,1280.22 1765.52,1280.52 1768.76,1280.77 1772,1280.96 1775.24,1281.11 1778.49,1281.2 1781.73,1281.24 1784.97,1281.22 1788.21,1281.16 1791.45,1281.04 1794.69,1280.87 1797.93,1280.65 1801.18,1280.37 1804.42,1280.04 1807.66,1279.67 1810.9,1279.23 1814.14,1278.75 1817.38,1278.22 1820.62,1277.63 1823.87,1276.99 1827.11,1276.3 1830.35,1275.56 1833.59,1274.77 1836.83,1273.92 1840.07,1273.02 1843.31,1272.08 1846.55,1271.08 1849.8,1270.02 1853.04,1268.92 1856.28,1267.77 1859.52,1266.57 1862.76,1265.31 1866,1264.01 1869.24,1262.65 1872.49,1261.25 1875.73,1259.79 1878.97,1258.28 1882.21,1256.73 1885.45,1255.12 1888.69,1253.47 1891.93,1251.76 1895.18,1250.01 1898.42,1248.2 1901.66,1246.35 1904.9,1244.45 1908.14,1242.5 1911.38,1240.5 1914.62,1238.46 1917.87,1236.36 1921.11,1234.22 1924.35,1232.03 1927.59,1229.8 1930.83,1227.51 1934.07,1225.18 1937.31,1222.81 1940.56,1220.38 1943.8,1217.91 1947.04,1215.4 1950.28,1212.84 1953.52,1210.23 1956.76,1207.58 1960,1204.88 1963.24,1202.14 1966.49,1199.36 1969.73,1196.53 1972.97,1193.66 1976.21,1190.74 1979.45,1187.78 1982.69,1184.78 1985.93,1181.73 1989.18,1178.64 1992.42,1175.52 1995.66,1172.34 1998.9,1169.13 2002.14,1165.88 2005.38,1162.59 2008.62,1159.25 2011.87,1155.88 2015.11,1152.46 2018.35,1149.01 2021.59,1145.52 2024.83,1141.99 2028.07,1138.42 2031.31,1134.81 2034.56,1131.17 2037.8,1127.48 2041.04,1123.77 2044.28,1120.01 2047.52,1116.22 2050.76,1112.39 2054,1108.53 2057.24,1104.63 2060.49,1100.7 2063.73,1096.73 2066.97,1092.74 2070.21,1088.7 2073.45,1084.64 2076.69,1080.54 2079.93,1076.41 2083.18,1072.24 2086.42,1068.05 2089.66,1063.83 2092.9,1059.57 2096.14,1055.29 2099.38,1050.97 2102.62,1046.63 2105.87,1042.25 2109.11,1037.85 2112.35,1033.42 2115.59,1028.97 2118.83,1024.48 2122.07,1019.97 2125.31,1015.44 2128.56,1010.88 2131.8,1006.29 2135.04,1001.68 2138.28,997.042 2141.52,992.382 2144.76,987.699 2148,982.993 2151.25,978.265 2154.49,973.515 2157.73,968.744 2160.97,963.951 2164.21,959.138 2167.45,954.305 2170.69,949.452 2173.93,944.581 2177.18,939.691 2180.42,934.783 2183.66,929.857 2186.9,924.914 2190.14,919.955 2193.38,914.979 2196.62,909.988 2199.87,904.982 2203.11,899.961 2206.35,894.926 2209.59,889.878 2212.83,884.816 2216.07,879.742 2219.31,874.656 2222.56,869.558 2225.8,864.449 2229.04,859.33 2232.28,854.201 2235.52,849.062 2238.76,843.914 2242,838.758 2245.25,833.593 2248.49,828.422 2251.73,823.243 2254.97,818.058 2258.21,812.867 2261.45,807.671 2264.69,802.469 2267.94,797.264 2271.18,792.054 2274.42,786.842 2277.66,781.626 2280.9,776.409 2284.14,771.189 2287.38,765.968 2290.62,760.747 "/>
<circle clip-path="url(#clip371)" cx="809.312" cy="339.643" r="14.4" fill="#e26f46" fill-rule="evenodd" fill-opacity="1" stroke="#000000" stroke-opacity="1" stroke-width="3.2"/>
<circle clip-path="url(#clip371)" cx="2258.21" cy="772.145" r="14.4" fill="#e26f46" fill-rule="evenodd" fill-opacity="1" stroke="#000000" stroke-opacity="1" stroke-width="3.2"/>
<circle clip-path="url(#clip371)" cx="637.518" cy="250.926" r="14.4" fill="#e26f46" fill-rule="evenodd" fill-opacity="1" stroke="#000000" stroke-opacity="1" stroke-width="3.2"/>
<circle clip-path="url(#clip371)" cx="1460.83" cy="1016.78" r="14.4" fill="#e26f46" fill-rule="evenodd" fill-opacity="1" stroke="#000000" stroke-opacity="1" stroke-width="3.2"/>
<circle clip-path="url(#clip371)" cx="384.69" cy="516.544" r="14.4" fill="#e26f46" fill-rule="evenodd" fill-opacity="1" stroke="#000000" stroke-opacity="1" stroke-width="3.2"/>
<circle clip-path="url(#clip371)" cx="750.967" cy="179.315" r="14.4" fill="#e26f46" fill-rule="evenodd" fill-opacity="1" stroke="#000000" stroke-opacity="1" stroke-width="3.2"/>
<circle clip-path="url(#clip371)" cx="1156.14" cy="657.633" r="14.4" fill="#e26f46" fill-rule="evenodd" fill-opacity="1" stroke="#000000" stroke-opacity="1" stroke-width="3.2"/>
<circle clip-path="url(#clip371)" cx="926.001" cy="173.659" r="14.4" fill="#e26f46" fill-rule="evenodd" fill-opacity="1" stroke="#000000" stroke-opacity="1" stroke-width="3.2"/>
<circle clip-path="url(#clip371)" cx="1642.35" cy="1308.14" r="14.4" fill="#e26f46" fill-rule="evenodd" fill-opacity="1" stroke="#000000" stroke-opacity="1" stroke-width="3.2"/>
<circle clip-path="url(#clip371)" cx="1791.45" cy="1364.9" r="14.4" fill="#e26f46" fill-rule="evenodd" fill-opacity="1" stroke="#000000" stroke-opacity="1" stroke-width="3.2"/>
<circle clip-path="url(#clip371)" cx="692.622" cy="208.697" r="14.4" fill="#e26f46" fill-rule="evenodd" fill-opacity="1" stroke="#000000" stroke-opacity="1" stroke-width="3.2"/>
<circle clip-path="url(#clip371)" cx="1600.21" cy="1307.32" r="14.4" fill="#e26f46" fill-rule="evenodd" fill-opacity="1" stroke="#000000" stroke-opacity="1" stroke-width="3.2"/>
<circle clip-path="url(#clip371)" cx="1178.83" cy="634.007" r="14.4" fill="#e26f46" fill-rule="evenodd" fill-opacity="1" stroke="#000000" stroke-opacity="1" stroke-width="3.2"/>
<circle clip-path="url(#clip371)" cx="828.76" cy="232.575" r="14.4" fill="#e26f46" fill-rule="evenodd" fill-opacity="1" stroke="#000000" stroke-opacity="1" stroke-width="3.2"/>
<circle clip-path="url(#clip371)" cx="2041.04" cy="1022.6" r="14.4" fill="#e26f46" fill-rule="evenodd" fill-opacity="1" stroke="#000000" stroke-opacity="1" stroke-width="3.2"/>
<circle clip-path="url(#clip371)" cx="1690.97" cy="1328.44" r="14.4" fill="#e26f46" fill-rule="evenodd" fill-opacity="1" stroke="#000000" stroke-opacity="1" stroke-width="3.2"/>
<circle clip-path="url(#clip371)" cx="517.587" cy="417.766" r="14.4" fill="#e26f46" fill-rule="evenodd" fill-opacity="1" stroke="#000000" stroke-opacity="1" stroke-width="3.2"/>
<circle clip-path="url(#clip371)" cx="1781.73" cy="1228.65" r="14.4" fill="#e26f46" fill-rule="evenodd" fill-opacity="1" stroke="#000000" stroke-opacity="1" stroke-width="3.2"/>
<circle clip-path="url(#clip371)" cx="546.759" cy="231.432" r="14.4" fill="#e26f46" fill-rule="evenodd" fill-opacity="1" stroke="#000000" stroke-opacity="1" stroke-width="3.2"/>
<circle clip-path="url(#clip371)" cx="926.001" cy="330.099" r="14.4" fill="#e26f46" fill-rule="evenodd" fill-opacity="1" stroke="#000000" stroke-opacity="1" stroke-width="3.2"/>
<path clip-path="url(#clip371)" d="M255.035 963.608 L258.276 958.675 L261.517 953.69 L264.759 948.651 L268 943.561 L271.242 938.421 L274.483 933.23 L277.724 927.991 L280.966 922.704 L284.207 917.371 L287.449 911.992 L290.69 906.57 L293.931 901.106 L297.173 895.602 L300.414 890.06 L303.655 884.481 L306.897 878.868 L310.138 873.224 L313.38 867.551 L316.621 861.851 L319.862 856.128 L323.104 850.384 L326.345 844.624 L329.587 838.85 L332.828 833.066 L336.069 827.276 L339.311 821.485 L342.552 815.696 L345.793 809.914 L349.035 804.145 L352.276 798.392 L355.518 792.661 L358.759 786.958 L362 781.288 L365.242 775.656 L368.483 770.069 L371.725 764.532 L374.966 759.052 L378.207 753.634 L381.449 748.284 L384.69 743.009 L387.931 737.811 L391.173 732.688 L394.414 727.632 L397.656 722.637 L400.897 717.698 L404.138 712.806 L407.38 707.957 L410.621 703.144 L413.863 698.361 L417.104 693.603 L420.345 688.864 L423.587 684.138 L426.828 679.421 L430.069 674.709 L433.311 669.998 L436.552 665.283 L439.794 660.562 L443.035 655.832 L446.276 651.091 L449.518 646.337 L452.759 641.569 L456.001 636.786 L459.242 631.988 L462.483 627.176 L465.725 622.35 L468.966 617.513 L472.208 612.666 L475.449 607.812 L478.69 602.955 L481.932 598.099 L485.173 593.248 L488.414 588.407 L491.656 583.583 L494.897 578.781 L498.139 574.008 L501.38 569.273 L504.621 564.582 L507.863 559.945 L511.104 555.369 L514.346 550.864 L517.587 546.44 L520.828 542.105 L524.07 537.862 L527.311 533.715 L530.552 529.668 L533.794 525.723 L537.035 521.884 L540.277 518.156 L543.518 514.541 L546.759 511.045 L550.001 507.669 L553.242 504.405 L556.484 501.245 L559.725 498.178 L562.966 495.195 L566.208 492.288 L569.449 489.448 L572.69 486.67 L575.932 483.944 L579.173 481.266 L582.415 478.63 L585.656 476.032 L588.897 473.466 L592.139 470.93 L595.38 468.422 L598.622 465.939 L601.863 463.481 L605.104 461.046 L608.346 458.637 L611.587 456.253 L614.828 453.896 L618.07 451.569 L621.311 449.275 L624.553 447.018 L627.794 444.802 L631.035 442.632 L634.277 440.513 L637.518 438.451 L640.76 436.451 L644.001 434.51 L647.242 432.627 L650.484 430.799 L653.725 429.024 L656.966 427.3 L660.208 425.627 L663.449 424.004 L666.691 422.432 L669.932 420.91 L673.173 419.442 L676.415 418.028 L679.656 416.672 L682.898 415.376 L686.139 414.144 L689.38 412.98 L692.622 411.888 L695.863 410.873 L699.104 409.931 L702.346 409.056 L705.587 408.244 L708.829 407.493 L712.07 406.798 L715.311 406.157 L718.553 405.568 L721.794 405.03 L725.036 404.542 L728.277 404.104 L731.518 403.718 L734.76 403.384 L738.001 403.105 L741.242 402.883 L744.484 402.723 L747.725 402.628 L750.967 402.603 L754.208 402.651 L757.449 402.768 L760.691 402.948 L763.932 403.188 L767.174 403.481 L770.415 403.826 L773.656 404.219 L776.898 404.658 L780.139 405.141 L783.381 405.668 L786.622 406.239 L789.863 406.855 L793.105 407.517 L796.346 408.227 L799.587 408.989 L802.829 409.806 L806.07 410.682 L809.312 411.621 L812.553 412.628 L815.794 413.705 L819.036 414.854 L822.277 416.077 L825.519 417.375 L828.76 418.753 L832.001 420.211 L835.243 421.745 L838.484 423.349 L841.725 425.018 L844.967 426.747 L848.208 428.533 L851.45 430.371 L854.691 432.26 L857.932 434.198 L861.174 436.183 L864.415 438.217 L867.657 440.299 L870.898 442.432 L874.139 444.618 L877.381 446.861 L880.622 449.165 L883.863 451.536 L887.105 453.979 L890.346 456.502 L893.588 459.112 L896.829 461.817 L900.07 464.628 L903.312 467.552 L906.553 470.601 L909.795 473.786 L913.036 477.116 L916.277 480.605 L919.519 484.263 L922.76 488.102 L926.001 492.133 L929.243 496.365 L932.484 500.786 L935.726 505.384 L938.967 510.143 L942.208 515.051 L945.45 520.093 L948.691 525.257 L951.933 530.528 L955.174 535.894 L958.415 541.342 L961.657 546.862 L964.898 552.442 L968.139 558.07 L971.381 563.736 L974.622 569.431 L977.864 575.146 L981.105 580.871 L984.346 586.598 L987.588 592.319 L990.829 598.028 L994.071 603.717 L997.312 609.379 L1000.55 615.01 L1003.79 620.602 L1007.04 626.151 L1010.28 631.653 L1013.52 637.102 L1016.76 642.495 L1020 647.827 L1023.24 653.097 L1026.48 658.3 L1029.73 663.434 L1032.97 668.497 L1036.21 673.487 L1039.45 678.402 L1042.69 683.24 L1045.93 688.002 L1049.17 692.685 L1052.42 697.29 L1055.66 701.817 L1058.9 706.265 L1062.14 710.637 L1065.38 714.932 L1068.62 719.152 L1071.86 723.299 L1075.11 727.375 L1078.35 731.382 L1081.59 735.323 L1084.83 739.202 L1088.07 743.022 L1091.31 746.787 L1094.55 750.503 L1097.79 754.173 L1101.04 757.805 L1104.28 761.403 L1107.52 764.975 L1110.76 768.528 L1114 772.068 L1117.24 775.605 L1120.48 779.147 L1123.73 782.704 L1126.97 786.284 L1130.21 789.899 L1133.45 793.558 L1136.69 797.274 L1139.93 801.057 L1143.17 804.919 L1146.42 808.872 L1149.66 812.928 L1152.9 817.1 L1156.14 821.398 L1159.38 825.834 L1162.62 830.412 L1165.86 835.134 L1169.11 840.002 L1172.35 845.019 L1175.59 850.185 L1178.83 855.503 L1182.07 860.97 L1185.31 866.577 L1188.55 872.314 L1191.8 878.168 L1195.04 884.128 L1198.28 890.184 L1201.52 896.323 L1204.76 902.535 L1208 908.81 L1211.24 915.136 L1214.48 921.505 L1217.73 927.907 L1220.97 934.332 L1224.21 940.774 L1227.45 947.222 L1230.69 953.67 L1233.93 960.111 L1237.17 966.538 L1240.42 972.945 L1243.66 979.325 L1246.9 985.674 L1250.14 991.986 L1253.38 998.257 L1256.62 1004.48 L1259.86 1010.66 L1263.11 1016.78 L1266.35 1022.85 L1269.59 1028.85 L1272.83 1034.79 L1276.07 1040.67 L1279.31 1046.48 L1282.55 1052.22 L1285.8 1057.89 L1289.04 1063.48 L1292.28 1069 L1295.52 1074.44 L1298.76 1079.81 L1302 1085.1 L1305.24 1090.31 L1308.48 1095.44 L1311.73 1100.49 L1314.97 1105.46 L1318.21 1110.35 L1321.45 1115.16 L1324.69 1119.89 L1327.93 1124.53 L1331.17 1129.1 L1334.42 1133.6 L1337.66 1138.01 L1340.9 1142.34 L1344.14 1146.6 L1347.38 1150.79 L1350.62 1154.9 L1353.86 1158.94 L1357.11 1162.9 L1360.35 1166.8 L1363.59 1170.63 L1366.83 1174.39 L1370.07 1178.1 L1373.31 1181.73 L1376.55 1185.32 L1379.8 1188.84 L1383.04 1192.31 L1386.28 1195.73 L1389.52 1199.11 L1392.76 1202.44 L1396 1205.72 L1399.24 1208.98 L1402.49 1212.19 L1405.73 1215.38 L1408.97 1218.55 L1412.21 1221.69 L1415.45 1224.82 L1418.69 1227.94 L1421.93 1231.05 L1425.17 1234.16 L1428.42 1237.27 L1431.66 1240.4 L1434.9 1243.54 L1438.14 1246.7 L1441.38 1249.89 L1444.62 1253.11 L1447.86 1256.38 L1451.11 1259.69 L1454.35 1263.05 L1457.59 1266.47 L1460.83 1269.96 L1464.07 1273.51 L1467.31 1277.13 L1470.55 1280.8 L1473.8 1284.52 L1477.04 1288.28 L1480.28 1292.07 L1483.52 1295.89 L1486.76 1299.72 L1490 1303.57 L1493.24 1307.41 L1496.49 1311.26 L1499.73 1315.09 L1502.97 1318.9 L1506.21 1322.69 L1509.45 1326.45 L1512.69 1330.17 L1515.93 1333.85 L1519.18 1337.49 L1522.42 1341.07 L1525.66 1344.6 L1528.9 1348.07 L1532.14 1351.47 L1535.38 1354.81 L1538.62 1358.07 L1541.86 1361.27 L1545.11 1364.39 L1548.35 1367.43 L1551.59 1370.4 L1554.83 1373.29 L1558.07 1376.1 L1561.31 1378.83 L1564.55 1381.48 L1567.8 1384.05 L1571.04 1386.55 L1574.28 1388.98 L1577.52 1391.33 L1580.76 1393.61 L1584 1395.82 L1587.24 1397.97 L1590.49 1400.06 L1593.73 1402.1 L1596.97 1404.08 L1600.21 1406.02 L1603.45 1407.91 L1606.69 1409.76 L1609.93 1411.56 L1613.18 1413.33 L1616.42 1415.04 L1619.66 1416.72 L1622.9 1418.35 L1626.14 1419.94 L1629.38 1421.49 L1632.62 1423 L1635.86 1424.47 L1639.11 1425.91 L1642.35 1427.3 L1645.59 1428.67 L1648.83 1430 L1652.07 1431.29 L1655.31 1432.54 L1658.55 1433.74 L1661.8 1434.89 L1665.04 1435.98 L1668.28 1437.03 L1671.52 1438.01 L1674.76 1438.95 L1678 1439.82 L1681.24 1440.63 L1684.49 1441.39 L1687.73 1442.09 L1690.97 1442.74 L1694.21 1443.33 L1697.45 1443.87 L1700.69 1444.34 L1703.93 1444.74 L1707.18 1445.08 L1710.42 1445.35 L1713.66 1445.54 L1716.9 1445.67 L1720.14 1445.72 L1723.38 1445.69 L1726.62 1445.59 L1729.87 1445.43 L1733.11 1445.19 L1736.35 1444.89 L1739.59 1444.53 L1742.83 1444.11 L1746.07 1443.64 L1749.31 1443.12 L1752.55 1442.56 L1755.8 1441.97 L1759.04 1441.36 L1762.28 1440.73 L1765.52 1440.09 L1768.76 1439.45 L1772 1438.82 L1775.24 1438.2 L1778.49 1437.61 L1781.73 1437.06 L1784.97 1436.55 L1788.21 1436.08 L1791.45 1435.65 L1794.69 1435.25 L1797.93 1434.88 L1801.18 1434.53 L1804.42 1434.19 L1807.66 1433.86 L1810.9 1433.52 L1814.14 1433.17 L1817.38 1432.81 L1820.62 1432.42 L1823.87 1432 L1827.11 1431.54 L1830.35 1431.03 L1833.59 1430.48 L1836.83 1429.87 L1840.07 1429.21 L1843.31 1428.48 L1846.55 1427.68 L1849.8 1426.81 L1853.04 1425.87 L1856.28 1424.85 L1859.52 1423.75 L1862.76 1422.57 L1866 1421.3 L1869.24 1419.94 L1872.49 1418.5 L1875.73 1416.96 L1878.97 1415.34 L1882.21 1413.62 L1885.45 1411.81 L1888.69 1409.9 L1891.93 1407.9 L1895.18 1405.81 L1898.42 1403.62 L1901.66 1401.34 L1904.9 1398.97 L1908.14 1396.51 L1911.38 1393.95 L1914.62 1391.3 L1917.87 1388.57 L1921.11 1385.74 L1924.35 1382.83 L1927.59 1379.83 L1930.83 1376.75 L1934.07 1373.59 L1937.31 1370.35 L1940.56 1367.03 L1943.8 1363.64 L1947.04 1360.17 L1950.28 1356.64 L1953.52 1353.04 L1956.76 1349.37 L1960 1345.65 L1963.24 1341.87 L1966.49 1338.04 L1969.73 1334.16 L1972.97 1330.24 L1976.21 1326.28 L1979.45 1322.28 L1982.69 1318.25 L1985.93 1314.2 L1989.18 1310.13 L1992.42 1306.04 L1995.66 1301.95 L1998.9 1297.85 L2002.14 1293.76 L2005.38 1289.67 L2008.62 1285.61 L2011.87 1281.56 L2015.11 1277.55 L2018.35 1273.57 L2021.59 1269.64 L2024.83 1265.76 L2028.07 1261.94 L2031.31 1258.18 L2034.56 1254.49 L2037.8 1250.89 L2041.04 1247.37 L2044.28 1243.94 L2047.52 1240.6 L2050.76 1237.34 L2054 1234.16 L2057.24 1231.06 L2060.49 1228.01 L2063.73 1225.03 L2066.97 1222.1 L2070.21 1219.22 L2073.45 1216.38 L2076.69 1213.58 L2079.93 1210.81 L2083.18 1208.07 L2086.42 1205.35 L2089.66 1202.65 L2092.9 1199.96 L2096.14 1197.28 L2099.38 1194.61 L2102.62 1191.94 L2105.87 1189.27 L2109.11 1186.6 L2112.35 1183.92 L2115.59 1181.23 L2118.83 1178.53 L2122.07 1175.82 L2125.31 1173.1 L2128.56 1170.36 L2131.8 1167.6 L2135.04 1164.82 L2138.28 1162.03 L2141.52 1159.23 L2144.76 1156.4 L2148 1153.56 L2151.25 1150.7 L2154.49 1147.83 L2157.73 1144.95 L2160.97 1142.06 L2164.21 1139.16 L2167.45 1136.25 L2170.69 1133.34 L2173.93 1130.43 L2177.18 1127.52 L2180.42 1124.62 L2183.66 1121.74 L2186.9 1118.86 L2190.14 1116.01 L2193.38 1113.19 L2196.62 1110.4 L2199.87 1107.65 L2203.11 1104.94 L2206.35 1102.28 L2209.59 1099.68 L2212.83 1097.14 L2216.07 1094.67 L2219.31 1092.29 L2222.56 1090 L2225.8 1087.8 L2229.04 1085.71 L2232.28 1083.73 L2235.52 1081.87 L2238.76 1080.15 L2242 1078.57 L2245.25 1077.14 L2248.49 1075.87 L2251.73 1074.77 L2254.97 1073.85 L2258.21 1073.12 L2261.45 1072.58 L2264.69 1072.23 L2267.94 1072.06 L2271.18 1072.06 L2274.42 1072.23 L2277.66 1072.56 L2280.9 1073.03 L2284.14 1073.65 L2287.38 1074.41 L2290.62 1075.29 L2290.62 515.979 L2287.38 519.692 L2284.14 523.355 L2280.9 526.962 L2277.66 530.507 L2274.42 533.984 L2271.18 537.388 L2267.94 540.712 L2264.69 543.95 L2261.45 547.098 L2258.21 550.149 L2254.97 553.101 L2251.73 555.958 L2248.49 558.727 L2245.25 561.416 L2242 564.031 L2238.76 566.581 L2235.52 569.072 L2232.28 571.514 L2229.04 573.912 L2225.8 576.275 L2222.56 578.609 L2219.31 580.923 L2216.07 583.222 L2212.83 585.515 L2209.59 587.806 L2206.35 590.102 L2203.11 592.41 L2199.87 594.734 L2196.62 597.081 L2193.38 599.454 L2190.14 601.86 L2186.9 604.301 L2183.66 606.782 L2180.42 609.308 L2177.18 611.88 L2173.93 614.503 L2170.69 617.178 L2167.45 619.909 L2164.21 622.696 L2160.97 625.543 L2157.73 628.45 L2154.49 631.418 L2151.25 634.449 L2148 637.542 L2144.76 640.698 L2141.52 643.917 L2138.28 647.198 L2135.04 650.54 L2131.8 653.943 L2128.56 657.405 L2125.31 660.924 L2122.07 664.499 L2118.83 668.126 L2115.59 671.805 L2112.35 675.53 L2109.11 679.301 L2105.87 683.112 L2102.62 686.961 L2099.38 690.842 L2096.14 694.752 L2092.9 698.687 L2089.66 702.64 L2086.42 706.608 L2083.18 710.584 L2079.93 714.562 L2076.69 718.537 L2073.45 722.502 L2070.21 726.452 L2066.97 730.378 L2063.73 734.274 L2060.49 738.134 L2057.24 741.951 L2054 745.716 L2050.76 749.423 L2047.52 753.065 L2044.28 756.634 L2041.04 760.124 L2037.8 763.529 L2034.56 766.856 L2031.31 770.11 L2028.07 773.298 L2024.83 776.43 L2021.59 779.51 L2018.35 782.548 L2015.11 785.549 L2011.87 788.522 L2008.62 791.473 L2005.38 794.408 L2002.14 797.335 L1998.9 800.26 L1995.66 803.188 L1992.42 806.126 L1989.18 809.079 L1985.93 812.053 L1982.69 815.053 L1979.45 818.083 L1976.21 821.149 L1972.97 824.254 L1969.73 827.402 L1966.49 830.598 L1963.24 833.844 L1960 837.145 L1956.76 840.502 L1953.52 843.918 L1950.28 847.397 L1947.04 850.94 L1943.8 854.548 L1940.56 858.225 L1937.31 861.97 L1934.07 865.786 L1930.83 869.673 L1927.59 873.632 L1924.35 877.663 L1921.11 881.767 L1917.87 885.943 L1914.62 890.192 L1911.38 894.512 L1908.14 898.904 L1904.9 903.365 L1901.66 907.895 L1898.42 912.493 L1895.18 917.155 L1891.93 921.881 L1888.69 926.669 L1885.45 931.515 L1882.21 936.416 L1878.97 941.37 L1875.73 946.373 L1872.49 951.421 L1869.24 956.509 L1866 961.635 L1862.76 966.792 L1859.52 971.976 L1856.28 977.18 L1853.04 982.4 L1849.8 987.628 L1846.55 992.857 L1843.31 998.081 L1840.07 1003.29 L1836.83 1008.48 L1833.59 1013.64 L1830.35 1018.76 L1827.11 1023.83 L1823.87 1028.84 L1820.62 1033.77 L1817.38 1038.63 L1814.14 1043.4 L1810.9 1048.05 L1807.66 1052.59 L1804.42 1057 L1801.18 1061.27 L1797.93 1065.37 L1794.69 1069.31 L1791.45 1073.05 L1788.21 1076.6 L1784.97 1079.95 L1781.73 1083.1 L1778.49 1086.06 L1775.24 1088.84 L1772 1091.43 L1768.76 1093.86 L1765.52 1096.14 L1762.28 1098.26 L1759.04 1100.24 L1755.8 1102.1 L1752.55 1103.83 L1749.31 1105.44 L1746.07 1106.94 L1742.83 1108.33 L1739.59 1109.63 L1736.35 1110.83 L1733.11 1111.93 L1729.87 1112.94 L1726.62 1113.87 L1723.38 1114.7 L1720.14 1115.45 L1716.9 1116.1 L1713.66 1116.66 L1710.42 1117.12 L1707.18 1117.49 L1703.93 1117.74 L1700.69 1117.89 L1697.45 1117.92 L1694.21 1117.82 L1690.97 1117.59 L1687.73 1117.23 L1684.49 1116.72 L1681.24 1116.08 L1678 1115.3 L1674.76 1114.38 L1671.52 1113.33 L1668.28 1112.15 L1665.04 1110.82 L1661.8 1109.35 L1658.55 1107.74 L1655.31 1105.98 L1652.07 1104.07 L1648.83 1102 L1645.59 1099.77 L1642.35 1097.38 L1639.11 1094.81 L1635.86 1092.06 L1632.62 1089.16 L1629.38 1086.09 L1626.14 1082.86 L1622.9 1079.48 L1619.66 1075.94 L1616.42 1072.25 L1613.18 1068.4 L1609.93 1064.41 L1606.69 1060.27 L1603.45 1055.97 L1600.21 1051.53 L1596.97 1046.94 L1593.73 1042.21 L1590.49 1037.35 L1587.24 1032.38 L1584 1027.3 L1580.76 1022.13 L1577.52 1016.88 L1574.28 1011.55 L1571.04 1006.16 L1567.8 1000.72 L1564.55 995.224 L1561.31 989.689 L1558.07 984.12 L1554.83 978.523 L1551.59 972.903 L1548.35 967.267 L1545.11 961.617 L1541.86 955.958 L1538.62 950.294 L1535.38 944.627 L1532.14 938.959 L1528.9 933.293 L1525.66 927.629 L1522.42 921.968 L1519.18 916.311 L1515.93 910.658 L1512.69 905.007 L1509.45 899.359 L1506.21 893.711 L1502.97 888.062 L1499.73 882.409 L1496.49 876.75 L1493.24 871.082 L1490 865.402 L1486.76 859.706 L1483.52 853.99 L1480.28 848.251 L1477.04 842.485 L1473.8 836.686 L1470.55 830.851 L1467.31 824.975 L1464.07 819.054 L1460.83 813.083 L1457.59 807.06 L1454.35 800.989 L1451.11 794.876 L1447.86 788.729 L1444.62 782.554 L1441.38 776.356 L1438.14 770.144 L1434.9 763.923 L1431.66 757.699 L1428.42 751.478 L1425.17 745.266 L1421.93 739.069 L1418.69 732.892 L1415.45 726.74 L1412.21 720.619 L1408.97 714.533 L1405.73 708.487 L1402.49 702.485 L1399.24 696.532 L1396 690.631 L1392.76 684.785 L1389.52 678.999 L1386.28 673.276 L1383.04 667.619 L1379.8 662.03 L1376.55 656.513 L1373.31 651.069 L1370.07 645.702 L1366.83 640.413 L1363.59 635.204 L1360.35 630.077 L1357.11 625.034 L1353.86 620.076 L1350.62 615.204 L1347.38 610.42 L1344.14 605.724 L1340.9 601.117 L1337.66 596.601 L1334.42 592.175 L1331.17 587.839 L1327.93 583.595 L1324.69 579.442 L1321.45 575.381 L1318.21 571.41 L1314.97 567.53 L1311.73 563.74 L1308.48 560.039 L1305.24 556.428 L1302 552.903 L1298.76 549.466 L1295.52 546.113 L1292.28 542.845 L1289.04 539.658 L1285.8 536.552 L1282.55 533.524 L1279.31 530.572 L1276.07 527.694 L1272.83 524.886 L1269.59 522.146 L1266.35 519.471 L1263.11 516.858 L1259.86 514.302 L1256.62 511.8 L1253.38 509.347 L1250.14 506.938 L1246.9 504.57 L1243.66 502.236 L1240.42 499.931 L1237.17 497.648 L1233.93 495.382 L1230.69 493.126 L1227.45 490.871 L1224.21 488.612 L1220.97 486.338 L1217.73 484.042 L1214.48 481.715 L1211.24 479.348 L1208 476.929 L1204.76 474.449 L1201.52 471.898 L1198.28 469.263 L1195.04 466.534 L1191.8 463.699 L1188.55 460.746 L1185.31 457.663 L1182.07 454.438 L1178.83 451.06 L1175.59 447.518 L1172.35 443.809 L1169.11 439.932 L1165.86 435.885 L1162.62 431.669 L1159.38 427.283 L1156.14 422.726 L1152.9 418.002 L1149.66 413.122 L1146.42 408.098 L1143.17 402.945 L1139.93 397.675 L1136.69 392.301 L1133.45 386.838 L1130.21 381.297 L1126.97 375.691 L1123.73 370.033 L1120.48 364.333 L1117.24 358.603 L1114 352.853 L1110.76 347.094 L1107.52 341.336 L1104.28 335.588 L1101.04 329.858 L1097.79 324.154 L1094.55 318.485 L1091.31 312.857 L1088.07 307.278 L1084.83 301.754 L1081.59 296.29 L1078.35 290.893 L1075.11 285.567 L1071.86 280.318 L1068.62 275.15 L1065.38 270.066 L1062.14 265.072 L1058.9 260.17 L1055.66 255.364 L1052.42 250.656 L1049.17 246.049 L1045.93 241.546 L1042.69 237.149 L1039.45 232.859 L1036.21 228.679 L1032.97 224.609 L1029.73 220.65 L1026.48 216.804 L1023.24 213.071 L1020 209.452 L1016.76 205.946 L1013.52 202.554 L1010.28 199.274 L1007.04 196.107 L1003.79 193.052 L1000.55 190.107 L997.312 187.27 L994.071 184.54 L990.829 181.915 L987.588 179.392 L984.346 176.969 L981.105 174.643 L977.864 172.409 L974.622 170.264 L971.381 168.205 L968.139 166.226 L964.898 164.323 L961.657 162.489 L958.415 160.721 L955.174 159.011 L951.933 157.353 L948.691 155.74 L945.45 154.166 L942.208 152.624 L938.967 151.105 L935.726 149.603 L932.484 148.11 L929.243 146.619 L926.001 145.122 L922.76 143.614 L919.519 142.1 L916.277 140.582 L913.036 139.068 L909.795 137.561 L906.553 136.069 L903.312 134.596 L900.07 133.147 L896.829 131.727 L893.588 130.341 L890.346 128.992 L887.105 127.684 L883.863 126.421 L880.622 125.203 L877.381 124.034 L874.139 122.914 L870.898 121.844 L867.657 120.822 L864.415 119.848 L861.174 118.919 L857.932 118.034 L854.691 117.189 L851.45 116.38 L848.208 115.601 L844.967 114.848 L841.725 114.114 L838.484 113.393 L835.243 112.677 L832.001 111.959 L828.76 111.231 L825.519 110.484 L822.277 109.717 L819.036 108.926 L815.794 108.108 L812.553 107.262 L809.312 106.382 L806.07 105.469 L802.829 104.529 L799.587 103.569 L796.346 102.598 L793.105 101.624 L789.863 100.653 L786.622 99.6915 L783.381 98.7458 L780.139 97.8212 L776.898 96.9223 L773.656 96.0532 L770.415 95.2175 L767.174 94.4178 L763.932 93.6566 L760.691 92.9356 L757.449 92.256 L754.208 91.6185 L750.967 91.0234 L747.725 90.4715 L744.484 89.9663 L741.242 89.5115 L738.001 89.1108 L734.76 88.7672 L731.518 88.4831 L728.277 88.2607 L725.036 88.1016 L721.794 88.0066 L718.553 87.9763 L715.311 88.0106 L712.07 88.1089 L708.829 88.2702 L705.587 88.4929 L702.346 88.7749 L699.104 89.1139 L695.863 89.5071 L692.622 89.9513 L689.38 90.4443 L686.139 90.9876 L682.898 91.5835 L679.656 92.2343 L676.415 92.9415 L673.173 93.7067 L669.932 94.5306 L666.691 95.414 L663.449 96.357 L660.208 97.3592 L656.966 98.42 L653.725 99.5382 L650.484 100.712 L647.242 101.94 L644.001 103.22 L640.76 104.549 L637.518 105.924 L634.277 107.344 L631.035 108.811 L627.794 110.329 L624.553 111.903 L621.311 113.535 L618.07 115.229 L614.828 116.987 L611.587 118.811 L608.346 120.703 L605.104 122.663 L601.863 124.693 L598.622 126.791 L595.38 128.958 L592.139 131.192 L588.897 133.491 L585.656 135.853 L582.415 138.274 L579.173 140.751 L575.932 143.28 L572.69 145.856 L569.449 148.474 L566.208 151.126 L562.966 153.808 L559.725 156.512 L556.484 159.231 L553.242 161.958 L550.001 164.684 L546.759 167.401 L543.518 170.102 L540.277 172.782 L537.035 175.435 L533.794 178.056 L530.552 180.642 L527.311 183.185 L524.07 185.682 L520.828 188.127 L517.587 190.515 L514.346 192.842 L511.104 195.113 L507.863 197.334 L504.621 199.511 L501.38 201.65 L498.139 203.757 L494.897 205.837 L491.656 207.895 L488.414 209.934 L485.173 211.96 L481.932 213.975 L478.69 215.981 L475.449 217.983 L472.208 219.98 L468.966 221.974 L465.725 223.967 L462.483 225.957 L459.242 227.945 L456.001 229.93 L452.759 231.91 L449.518 233.884 L446.276 235.848 L443.035 237.8 L439.794 239.737 L436.552 241.654 L433.311 243.547 L430.069 245.411 L426.828 247.241 L423.587 249.032 L420.345 250.777 L417.104 252.47 L413.863 254.105 L410.621 255.674 L407.38 257.171 L404.138 258.587 L400.897 259.916 L397.656 261.151 L394.414 262.282 L391.173 263.303 L387.931 264.206 L384.69 264.984 L381.449 265.63 L378.207 266.15 L374.966 266.548 L371.725 266.831 L368.483 267.005 L365.242 267.076 L362 267.05 L358.759 266.933 L355.518 266.731 L352.276 266.449 L349.035 266.093 L345.793 265.669 L342.552 265.182 L339.311 264.635 L336.069 264.036 L332.828 263.387 L329.587 262.693 L326.345 261.958 L323.104 261.187 L319.862 260.383 L316.621 259.549 L313.38 258.69 L310.138 257.807 L306.897 256.905 L303.655 255.985 L300.414 255.052 L297.173 254.106 L293.931 253.15 L290.69 252.188 L287.449 251.219 L284.207 250.248 L280.966 249.275 L277.724 248.302 L274.483 247.33 L271.242 246.362 L268 245.398 L264.759 244.439 L261.517 243.488 L258.276 242.544 L255.035 241.609  Z" fill="#3da44d" fill-rule="evenodd" fill-opacity="0.1"/>
<polyline clip-path="url(#clip371)" style="stroke:#3da44d; stroke-linecap:round; stroke-linejoin:round; stroke-width:8; stroke-opacity:1; fill:none" points="255.035,602.609 258.276,600.61 261.517,598.589 264.759,596.545 268,594.48 271.242,592.391 274.483,590.28 277.724,588.146 280.966,585.989 284.207,583.809 287.449,581.606 290.69,579.379 293.931,577.128 297.173,574.854 300.414,572.556 303.655,570.233 306.897,567.887 310.138,565.516 313.38,563.12 316.621,560.7 319.862,558.255 323.104,555.786 326.345,553.291 329.587,550.771 332.828,548.226 336.069,545.656 339.311,543.06 342.552,540.439 345.793,537.792 349.035,535.119 352.276,532.42 355.518,529.696 358.759,526.945 362,524.169 365.242,521.366 368.483,518.537 371.725,515.681 374.966,512.8 378.207,509.892 381.449,506.957 384.69,503.996 387.931,501.009 391.173,497.996 394.414,494.957 397.656,491.894 400.897,488.807 404.138,485.697 407.38,482.564 410.621,479.409 413.863,476.233 417.104,473.037 420.345,469.82 423.587,466.585 426.828,463.331 430.069,460.06 433.311,456.772 436.552,453.468 439.794,450.15 443.035,446.816 446.276,443.47 449.518,440.11 452.759,436.74 456.001,433.358 459.242,429.967 462.483,426.566 465.725,423.158 468.966,419.743 472.208,416.323 475.449,412.897 478.69,409.468 481.932,406.037 485.173,402.604 488.414,399.171 491.656,395.739 494.897,392.309 498.139,388.883 501.38,385.462 504.621,382.047 507.863,378.639 511.104,375.241 514.346,371.853 517.587,368.478 520.828,365.116 524.07,361.772 527.311,358.45 530.552,355.155 533.794,351.89 537.035,348.659 540.277,345.469 543.518,342.322 546.759,339.223 550.001,336.176 553.242,333.182 556.484,330.238 559.725,327.345 562.966,324.501 566.208,321.707 569.449,318.961 572.69,316.263 575.932,313.612 579.173,311.009 582.415,308.452 585.656,305.942 588.897,303.478 592.139,301.061 595.38,298.69 598.622,296.365 601.863,294.087 605.104,291.855 608.346,289.67 611.587,287.532 614.828,285.441 618.07,283.399 621.311,281.405 624.553,279.461 627.794,277.566 631.035,275.721 634.277,273.928 637.518,272.187 640.76,270.5 644.001,268.865 647.242,267.284 650.484,265.756 653.725,264.281 656.966,262.86 660.208,261.493 663.449,260.18 666.691,258.923 669.932,257.721 673.173,256.574 676.415,255.485 679.656,254.453 682.898,253.48 686.139,252.566 689.38,251.712 692.622,250.92 695.863,250.19 699.104,249.522 702.346,248.915 705.587,248.369 708.829,247.882 712.07,247.453 715.311,247.084 718.553,246.772 721.794,246.518 725.036,246.322 728.277,246.182 731.518,246.1 734.76,246.076 738.001,246.108 741.242,246.197 744.484,246.345 747.725,246.55 750.967,246.813 754.208,247.135 757.449,247.512 760.691,247.942 763.932,248.422 767.174,248.95 770.415,249.522 773.656,250.136 776.898,250.79 780.139,251.481 783.381,252.207 786.622,252.965 789.863,253.754 793.105,254.57 796.346,255.413 799.587,256.279 802.829,257.167 806.07,258.076 809.312,259.002 812.553,259.945 815.794,260.907 819.036,261.89 822.277,262.897 825.519,263.93 828.76,264.992 832.001,266.085 835.243,267.211 838.484,268.371 841.725,269.566 844.967,270.798 848.208,272.067 851.45,273.375 854.691,274.725 857.932,276.116 861.174,277.551 864.415,279.032 867.657,280.56 870.898,282.138 874.139,283.766 877.381,285.448 880.622,287.184 883.863,288.978 887.105,290.832 890.346,292.747 893.588,294.726 896.829,296.772 900.07,298.887 903.312,301.074 906.553,303.335 909.795,305.674 913.036,308.092 916.277,310.594 919.519,313.181 922.76,315.858 926.001,318.628 929.243,321.492 932.484,324.448 935.726,327.493 938.967,330.624 942.208,333.837 945.45,337.13 948.691,340.498 951.933,343.94 955.174,347.452 958.415,351.032 961.657,354.676 964.898,358.382 968.139,362.148 971.381,365.971 974.622,369.848 977.864,373.777 981.105,377.757 984.346,381.784 987.588,385.856 990.829,389.972 994.071,394.129 997.312,398.325 1000.55,402.558 1003.79,406.827 1007.04,411.129 1010.28,415.464 1013.52,419.828 1016.76,424.22 1020,428.64 1023.24,433.084 1026.48,437.552 1029.73,442.042 1032.97,446.553 1036.21,451.083 1039.45,455.631 1042.69,460.195 1045.93,464.774 1049.17,469.367 1052.42,473.973 1055.66,478.59 1058.9,483.218 1062.14,487.854 1065.38,492.499 1068.62,497.151 1071.86,501.808 1075.11,506.471 1078.35,511.137 1081.59,515.806 1084.83,520.478 1088.07,525.15 1091.31,529.822 1094.55,534.494 1097.79,539.164 1101.04,543.831 1104.28,548.496 1107.52,553.156 1110.76,557.811 1114,562.461 1117.24,567.104 1120.48,571.74 1123.73,576.368 1126.97,580.988 1130.21,585.598 1133.45,590.198 1136.69,594.788 1139.93,599.366 1143.17,603.932 1146.42,608.485 1149.66,613.025 1152.9,617.551 1156.14,622.062 1159.38,626.558 1162.62,631.041 1165.86,635.51 1169.11,639.967 1172.35,644.414 1175.59,648.852 1178.83,653.281 1182.07,657.704 1185.31,662.12 1188.55,666.53 1191.8,670.933 1195.04,675.331 1198.28,679.724 1201.52,684.11 1204.76,688.492 1208,692.869 1211.24,697.242 1214.48,701.61 1217.73,705.975 1220.97,710.335 1224.21,714.693 1227.45,719.047 1230.69,723.398 1233.93,727.747 1237.17,732.093 1240.42,736.438 1243.66,740.781 1246.9,745.122 1250.14,749.462 1253.38,753.802 1256.62,758.141 1259.86,762.48 1263.11,766.819 1266.35,771.158 1269.59,775.498 1272.83,779.839 1276.07,784.182 1279.31,788.526 1282.55,792.871 1285.8,797.219 1289.04,801.57 1292.28,805.923 1295.52,810.279 1298.76,814.638 1302,819.001 1305.24,823.368 1308.48,827.739 1311.73,832.114 1314.97,836.494 1318.21,840.879 1321.45,845.268 1324.69,849.664 1327.93,854.065 1331.17,858.472 1334.42,862.885 1337.66,867.305 1340.9,871.731 1344.14,876.164 1347.38,880.604 1350.62,885.051 1353.86,889.506 1357.11,893.968 1360.35,898.439 1363.59,902.917 1366.83,907.404 1370.07,911.899 1373.31,916.402 1376.55,920.914 1379.8,925.435 1383.04,929.965 1386.28,934.504 1389.52,939.053 1392.76,943.61 1396,948.177 1399.24,952.754 1402.49,957.34 1405.73,961.935 1408.97,966.54 1412.21,971.155 1415.45,975.78 1418.69,980.414 1421.93,985.058 1425.17,989.712 1428.42,994.375 1431.66,999.048 1434.9,1003.73 1438.14,1008.42 1441.38,1013.12 1444.62,1017.83 1447.86,1022.55 1451.11,1027.28 1454.35,1032.02 1457.59,1036.77 1460.83,1041.52 1464.07,1046.28 1467.31,1051.05 1470.55,1055.82 1473.8,1060.6 1477.04,1065.38 1480.28,1070.16 1483.52,1074.94 1486.76,1079.71 1490,1084.48 1493.24,1089.25 1496.49,1094 1499.73,1098.75 1502.97,1103.48 1506.21,1108.2 1509.45,1112.9 1512.69,1117.59 1515.93,1122.26 1519.18,1126.9 1522.42,1131.52 1525.66,1136.11 1528.9,1140.68 1532.14,1145.21 1535.38,1149.72 1538.62,1154.18 1541.86,1158.61 1545.11,1163 1548.35,1167.35 1551.59,1171.65 1554.83,1175.91 1558.07,1180.11 1561.31,1184.26 1564.55,1188.35 1567.8,1192.39 1571.04,1196.36 1574.28,1200.26 1577.52,1204.1 1580.76,1207.87 1584,1211.56 1587.24,1215.18 1590.49,1218.71 1593.73,1222.15 1596.97,1225.51 1600.21,1228.77 1603.45,1231.94 1606.69,1235.01 1609.93,1237.99 1613.18,1240.86 1616.42,1243.65 1619.66,1246.33 1622.9,1248.91 1626.14,1251.4 1629.38,1253.79 1632.62,1256.08 1635.86,1258.27 1639.11,1260.36 1642.35,1262.34 1645.59,1264.22 1648.83,1266 1652.07,1267.68 1655.31,1269.26 1658.55,1270.74 1661.8,1272.12 1665.04,1273.4 1668.28,1274.59 1671.52,1275.67 1674.76,1276.67 1678,1277.56 1681.24,1278.36 1684.49,1279.06 1687.73,1279.66 1690.97,1280.17 1694.21,1280.58 1697.45,1280.89 1700.69,1281.11 1703.93,1281.24 1707.18,1281.28 1710.42,1281.24 1713.66,1281.1 1716.9,1280.88 1720.14,1280.58 1723.38,1280.2 1726.62,1279.73 1729.87,1279.19 1733.11,1278.56 1736.35,1277.86 1739.59,1277.08 1742.83,1276.22 1746.07,1275.29 1749.31,1274.28 1752.55,1273.19 1755.8,1272.03 1759.04,1270.8 1762.28,1269.49 1765.52,1268.11 1768.76,1266.66 1772,1265.13 1775.24,1263.52 1778.49,1261.84 1781.73,1260.08 1784.97,1258.25 1788.21,1256.34 1791.45,1254.35 1794.69,1252.28 1797.93,1250.13 1801.18,1247.9 1804.42,1245.6 1807.66,1243.23 1810.9,1240.79 1814.14,1238.29 1817.38,1235.72 1820.62,1233.1 1823.87,1230.42 1827.11,1227.68 1830.35,1224.9 1833.59,1222.06 1836.83,1219.18 1840.07,1216.25 1843.31,1213.28 1846.55,1210.27 1849.8,1207.22 1853.04,1204.14 1856.28,1201.02 1859.52,1197.86 1862.76,1194.68 1866,1191.47 1869.24,1188.23 1872.49,1184.96 1875.73,1181.67 1878.97,1178.35 1882.21,1175.02 1885.45,1171.66 1888.69,1168.28 1891.93,1164.89 1895.18,1161.48 1898.42,1158.06 1901.66,1154.62 1904.9,1151.17 1908.14,1147.7 1911.38,1144.23 1914.62,1140.75 1917.87,1137.25 1921.11,1133.75 1924.35,1130.25 1927.59,1126.73 1930.83,1123.21 1934.07,1119.69 1937.31,1116.16 1940.56,1112.63 1943.8,1109.09 1947.04,1105.56 1950.28,1102.02 1953.52,1098.48 1956.76,1094.94 1960,1091.4 1963.24,1087.86 1966.49,1084.32 1969.73,1080.78 1972.97,1077.25 1976.21,1073.71 1979.45,1070.18 1982.69,1066.65 1985.93,1063.13 1989.18,1059.6 1992.42,1056.08 1995.66,1052.57 1998.9,1049.06 2002.14,1045.55 2005.38,1042.04 2008.62,1038.54 2011.87,1035.04 2015.11,1031.55 2018.35,1028.06 2021.59,1024.58 2024.83,1021.09 2028.07,1017.62 2031.31,1014.14 2034.56,1010.67 2037.8,1007.21 2041.04,1003.75 2044.28,1000.29 2047.52,996.833 2050.76,993.384 2054,989.94 2057.24,986.503 2060.49,983.073 2063.73,979.651 2066.97,976.238 2070.21,972.834 2073.45,969.44 2076.69,966.057 2079.93,962.685 2083.18,959.325 2086.42,955.978 2089.66,952.644 2092.9,949.324 2096.14,946.018 2099.38,942.727 2102.62,939.452 2105.87,936.193 2109.11,932.951 2112.35,929.726 2115.59,926.519 2118.83,923.33 2122.07,920.161 2125.31,917.011 2128.56,913.881 2131.8,910.771 2135.04,907.683 2138.28,904.616 2141.52,901.571 2144.76,898.55 2148,895.551 2151.25,892.576 2154.49,889.626 2157.73,886.7 2160.97,883.8 2164.21,880.926 2167.45,878.079 2170.69,875.258 2173.93,872.466 2177.18,869.701 2180.42,866.965 2183.66,864.259 2186.9,861.583 2190.14,858.937 2193.38,856.323 2196.62,853.74 2199.87,851.19 2203.11,848.673 2206.35,846.189 2209.59,843.74 2212.83,841.327 2216.07,838.948 2219.31,836.607 2222.56,834.303 2225.8,832.036 2229.04,829.809 2232.28,827.62 2235.52,825.472 2238.76,823.365 2242,821.3 2245.25,819.278 2248.49,817.3 2251.73,815.365 2254.97,813.476 2258.21,811.634 2261.45,809.838 2264.69,808.089 2267.94,806.384 2271.18,804.724 2274.42,803.107 2277.66,801.532 2280.9,799.998 2284.14,798.504 2287.38,797.05 2290.62,795.633 "/>
<polyline clip-path="url(#clip371)" style="stroke:#c271d2; stroke-linecap:round; stroke-linejoin:round; stroke-width:12; stroke-opacity:1; fill:none" points="255.035,846.1 362.225,697.266 469.416,552.529 576.607,427.944 683.797,362.358 790.988,357.262 898.179,409.158 1005.37,553.517 1112.56,702.105 1219.75,859.258 1326.94,1035.1 1434.13,1164.62 1541.32,1294.71 1648.51,1376.48 1755.7,1386.68 1862.89,1348.31 1970.09,1251.27 2077.28,1132.47 2184.47,1037.22 2291.66,984.319 "/>
<polyline clip-path="url(#clip371)" style="stroke:#ac8d18; stroke-linecap:round; stroke-linejoin:round; stroke-width:12; stroke-opacity:1; fill:none" points="255.035,359.118 362.225,350.684 469.416,286.009 576.607,198.189 683.797,144.082 790.988,150.806 898.179,186.13 1005.37,264.308 1112.56,418.682 1219.75,558.139 1326.94,670.333 1434.13,840.628 1541.32,1021.05 1648.51,1155.19 1755.7,1157.46 1862.89,1040.79 1970.09,909.517 2077.28,798.428 2184.47,689.956 2291.66,606.061 "/>
<path clip-path="url(#clip370)" d="M1953.46 406.258 L2280.8 406.258 L2280.8 95.2176 L1953.46 95.2176  Z" fill="#ffffff" fill-rule="evenodd" fill-opacity="1"/>
<polyline clip-path="url(#clip370)" style="stroke:#000000; stroke-linecap:round; stroke-linejoin:round; stroke-width:4; stroke-opacity:1; fill:none" points="1953.46,406.258 2280.8,406.258 2280.8,95.2176 1953.46,95.2176 1953.46,406.258 "/>
<polyline clip-path="url(#clip370)" style="stroke:#009af9; stroke-linecap:round; stroke-linejoin:round; stroke-width:4; stroke-opacity:1; fill:none" points="1977.44,147.058 2121.36,147.058 "/>
<path clip-path="url(#clip370)" d="M2152.76 131.051 L2152.76 138.412 L2161.53 138.412 L2161.53 141.722 L2152.76 141.722 L2152.76 155.796 Q2152.76 158.967 2153.61 159.87 Q2154.49 160.773 2157.16 160.773 L2161.53 160.773 L2161.53 164.338 L2157.16 164.338 Q2152.23 164.338 2150.35 162.509 Q2148.48 160.657 2148.48 155.796 L2148.48 141.722 L2145.35 141.722 L2145.35 138.412 L2148.48 138.412 L2148.48 131.051 L2152.76 131.051 Z" fill="#000000" fill-rule="nonzero" fill-opacity="1" /><path clip-path="url(#clip370)" d="M2182.16 142.393 Q2181.44 141.977 2180.58 141.791 Q2179.75 141.583 2178.73 141.583 Q2175.12 141.583 2173.17 143.944 Q2171.25 146.282 2171.25 150.68 L2171.25 164.338 L2166.97 164.338 L2166.97 138.412 L2171.25 138.412 L2171.25 142.44 Q2172.6 140.078 2174.75 138.944 Q2176.9 137.787 2179.98 137.787 Q2180.42 137.787 2180.95 137.856 Q2181.48 137.903 2182.13 138.018 L2182.16 142.393 Z" fill="#000000" fill-rule="nonzero" fill-opacity="1" /><path clip-path="url(#clip370)" d="M2186.18 154.106 L2186.18 138.412 L2190.44 138.412 L2190.44 153.944 Q2190.44 157.625 2191.88 159.476 Q2193.31 161.305 2196.18 161.305 Q2199.63 161.305 2201.62 159.106 Q2203.64 156.907 2203.64 153.111 L2203.64 138.412 L2207.9 138.412 L2207.9 164.338 L2203.64 164.338 L2203.64 160.356 Q2202.09 162.717 2200.03 163.875 Q2197.99 165.009 2195.28 165.009 Q2190.81 165.009 2188.5 162.231 Q2186.18 159.453 2186.18 154.106 M2196.9 137.787 L2196.9 137.787 Z" fill="#000000" fill-rule="nonzero" fill-opacity="1" /><path clip-path="url(#clip370)" d="M2220.88 131.051 L2220.88 138.412 L2229.66 138.412 L2229.66 141.722 L2220.88 141.722 L2220.88 155.796 Q2220.88 158.967 2221.74 159.87 Q2222.62 160.773 2225.28 160.773 L2229.66 160.773 L2229.66 164.338 L2225.28 164.338 Q2220.35 164.338 2218.48 162.509 Q2216.6 160.657 2216.6 155.796 L2216.6 141.722 L2213.48 141.722 L2213.48 138.412 L2216.6 138.412 L2216.6 131.051 L2220.88 131.051 Z" fill="#000000" fill-rule="nonzero" fill-opacity="1" /><path clip-path="url(#clip370)" d="M2256.81 148.689 L2256.81 164.338 L2252.55 164.338 L2252.55 148.828 Q2252.55 145.148 2251.11 143.319 Q2249.68 141.49 2246.81 141.49 Q2243.36 141.49 2241.37 143.69 Q2239.38 145.889 2239.38 149.685 L2239.38 164.338 L2235.1 164.338 L2235.1 128.319 L2239.38 128.319 L2239.38 142.44 Q2240.91 140.102 2242.97 138.944 Q2245.05 137.787 2247.76 137.787 Q2252.23 137.787 2254.52 140.565 Q2256.81 143.319 2256.81 148.689 Z" fill="#000000" fill-rule="nonzero" fill-opacity="1" /><circle clip-path="url(#clip370)" cx="2049.4" cy="198.898" r="20.48" fill="#e26f46" fill-rule="evenodd" fill-opacity="1" stroke="#000000" stroke-opacity="1" stroke-width="4.55111"/>
<path clip-path="url(#clip370)" d="M2164.26 194.187 L2164.26 180.159 L2168.52 180.159 L2168.52 216.178 L2164.26 216.178 L2164.26 212.289 Q2162.92 214.603 2160.86 215.738 Q2158.82 216.849 2155.95 216.849 Q2151.25 216.849 2148.29 213.099 Q2145.35 209.349 2145.35 203.238 Q2145.35 197.127 2148.29 193.377 Q2151.25 189.627 2155.95 189.627 Q2158.82 189.627 2160.86 190.761 Q2162.92 191.872 2164.26 194.187 M2149.75 203.238 Q2149.75 207.937 2151.67 210.622 Q2153.61 213.284 2156.99 213.284 Q2160.37 213.284 2162.32 210.622 Q2164.26 207.937 2164.26 203.238 Q2164.26 198.539 2162.32 195.877 Q2160.37 193.192 2156.99 193.192 Q2153.61 193.192 2151.67 195.877 Q2149.75 198.539 2149.75 203.238 Z" fill="#000000" fill-rule="nonzero" fill-opacity="1" /><path clip-path="url(#clip370)" d="M2189.08 203.145 Q2183.92 203.145 2181.92 204.326 Q2179.93 205.506 2179.93 208.354 Q2179.93 210.622 2181.42 211.965 Q2182.92 213.284 2185.49 213.284 Q2189.03 213.284 2191.16 210.784 Q2193.31 208.261 2193.31 204.094 L2193.31 203.145 L2189.08 203.145 M2197.57 201.386 L2197.57 216.178 L2193.31 216.178 L2193.31 212.242 Q2191.85 214.603 2189.68 215.738 Q2187.5 216.849 2184.36 216.849 Q2180.37 216.849 2178.01 214.627 Q2175.67 212.381 2175.67 208.631 Q2175.67 204.256 2178.59 202.034 Q2181.53 199.812 2187.34 199.812 L2193.31 199.812 L2193.31 199.395 Q2193.31 196.455 2191.37 194.858 Q2189.45 193.238 2185.95 193.238 Q2183.73 193.238 2181.62 193.77 Q2179.52 194.303 2177.57 195.367 L2177.57 191.432 Q2179.91 190.53 2182.11 190.09 Q2184.31 189.627 2186.39 189.627 Q2192.02 189.627 2194.79 192.543 Q2197.57 195.46 2197.57 201.386 Z" fill="#000000" fill-rule="nonzero" fill-opacity="1" /><path clip-path="url(#clip370)" d="M2210.56 182.891 L2210.56 190.252 L2219.33 190.252 L2219.33 193.562 L2210.56 193.562 L2210.56 207.636 Q2210.56 210.807 2211.42 211.71 Q2212.29 212.613 2214.96 212.613 L2219.33 212.613 L2219.33 216.178 L2214.96 216.178 Q2210.03 216.178 2208.15 214.349 Q2206.28 212.497 2206.28 207.636 L2206.28 193.562 L2203.15 193.562 L2203.15 190.252 L2206.28 190.252 L2206.28 182.891 L2210.56 182.891 Z" fill="#000000" fill-rule="nonzero" fill-opacity="1" /><path clip-path="url(#clip370)" d="M2236.72 203.145 Q2231.55 203.145 2229.56 204.326 Q2227.57 205.506 2227.57 208.354 Q2227.57 210.622 2229.05 211.965 Q2230.56 213.284 2233.13 213.284 Q2236.67 213.284 2238.8 210.784 Q2240.95 208.261 2240.95 204.094 L2240.95 203.145 L2236.72 203.145 M2245.21 201.386 L2245.21 216.178 L2240.95 216.178 L2240.95 212.242 Q2239.49 214.603 2237.32 215.738 Q2235.14 216.849 2231.99 216.849 Q2228.01 216.849 2225.65 214.627 Q2223.31 212.381 2223.31 208.631 Q2223.31 204.256 2226.23 202.034 Q2229.17 199.812 2234.98 199.812 L2240.95 199.812 L2240.95 199.395 Q2240.95 196.455 2239.01 194.858 Q2237.09 193.238 2233.59 193.238 Q2231.37 193.238 2229.26 193.77 Q2227.16 194.303 2225.21 195.367 L2225.21 191.432 Q2227.55 190.53 2229.75 190.09 Q2231.95 189.627 2234.03 189.627 Q2239.66 189.627 2242.43 192.543 Q2245.21 195.46 2245.21 201.386 Z" fill="#000000" fill-rule="nonzero" fill-opacity="1" /><polyline clip-path="url(#clip370)" style="stroke:#3da44d; stroke-linecap:round; stroke-linejoin:round; stroke-width:8; stroke-opacity:1; fill:none" points="1977.44,250.738 2121.36,250.738 "/>
<path clip-path="url(#clip370)" d="M2170.91 263.087 L2170.91 253.805 L2163.27 253.805 L2163.27 249.962 L2175.54 249.962 L2175.54 264.8 Q2172.83 266.721 2169.56 267.717 Q2166.3 268.689 2162.6 268.689 Q2154.49 268.689 2149.91 263.967 Q2145.35 259.221 2145.35 250.772 Q2145.35 242.3 2149.91 237.578 Q2154.49 232.833 2162.6 232.833 Q2165.98 232.833 2169.01 233.666 Q2172.06 234.499 2174.63 236.12 L2174.63 241.096 Q2172.04 238.897 2169.12 237.786 Q2166.21 236.675 2162.99 236.675 Q2156.65 236.675 2153.45 240.217 Q2150.28 243.758 2150.28 250.772 Q2150.28 257.763 2153.45 261.305 Q2156.65 264.846 2162.99 264.846 Q2165.47 264.846 2167.41 264.43 Q2169.36 263.99 2170.91 263.087 Z" fill="#000000" fill-rule="nonzero" fill-opacity="1" /><path clip-path="url(#clip370)" d="M2188.75 237.3 L2188.75 250.286 L2194.63 250.286 Q2197.9 250.286 2199.68 248.596 Q2201.46 246.907 2201.46 243.782 Q2201.46 240.68 2199.68 238.99 Q2197.9 237.3 2194.63 237.3 L2188.75 237.3 M2184.08 233.458 L2194.63 233.458 Q2200.44 233.458 2203.41 236.096 Q2206.39 238.712 2206.39 243.782 Q2206.39 248.897 2203.41 251.513 Q2200.44 254.129 2194.63 254.129 L2188.75 254.129 L2188.75 268.018 L2184.08 268.018 L2184.08 233.458 Z" fill="#000000" fill-rule="nonzero" fill-opacity="1" /><polyline clip-path="url(#clip370)" style="stroke:#c271d2; stroke-linecap:round; stroke-linejoin:round; stroke-width:12; stroke-opacity:1; fill:none" points="1977.44,302.578 2121.36,302.578 "/>
<path clip-path="url(#clip370)" d="M2150.03 289.14 L2150.03 302.126 L2155.91 302.126 Q2159.17 302.126 2160.95 300.436 Q2162.73 298.747 2162.73 295.622 Q2162.73 292.52 2160.95 290.83 Q2159.17 289.14 2155.91 289.14 L2150.03 289.14 M2145.35 285.298 L2155.91 285.298 Q2161.72 285.298 2164.68 287.936 Q2167.67 290.552 2167.67 295.622 Q2167.67 300.737 2164.68 303.353 Q2161.72 305.969 2155.91 305.969 L2150.03 305.969 L2150.03 319.858 L2145.35 319.858 L2145.35 285.298 Z" fill="#000000" fill-rule="nonzero" fill-opacity="1" /><path clip-path="url(#clip370)" d="M2178.38 315.922 L2194.7 315.922 L2194.7 319.858 L2172.76 319.858 L2172.76 315.922 Q2175.42 313.168 2180 308.538 Q2184.61 303.885 2185.79 302.543 Q2188.04 300.02 2188.92 298.284 Q2189.82 296.524 2189.82 294.835 Q2189.82 292.08 2187.87 290.344 Q2185.95 288.608 2182.85 288.608 Q2180.65 288.608 2178.2 289.372 Q2175.77 290.135 2172.99 291.686 L2172.99 286.964 Q2175.81 285.83 2178.27 285.251 Q2180.72 284.673 2182.76 284.673 Q2188.13 284.673 2191.32 287.358 Q2194.52 290.043 2194.52 294.534 Q2194.52 296.663 2193.71 298.585 Q2192.92 300.483 2190.81 303.075 Q2190.23 303.747 2187.13 306.964 Q2184.03 310.159 2178.38 315.922 Z" fill="#000000" fill-rule="nonzero" fill-opacity="1" /><path clip-path="url(#clip370)" d="M2204.56 285.298 L2222.92 285.298 L2222.92 289.233 L2208.85 289.233 L2208.85 297.705 Q2209.86 297.358 2210.88 297.196 Q2211.9 297.01 2212.92 297.01 Q2218.71 297.01 2222.09 300.182 Q2225.47 303.353 2225.47 308.77 Q2225.47 314.348 2221.99 317.45 Q2218.52 320.529 2212.2 320.529 Q2210.03 320.529 2207.76 320.158 Q2205.51 319.788 2203.1 319.047 L2203.1 314.348 Q2205.19 315.483 2207.41 316.038 Q2209.63 316.594 2212.11 316.594 Q2216.11 316.594 2218.45 314.487 Q2220.79 312.381 2220.79 308.77 Q2220.79 305.159 2218.45 303.052 Q2216.11 300.946 2212.11 300.946 Q2210.23 300.946 2208.36 301.362 Q2206.51 301.779 2204.56 302.659 L2204.56 285.298 Z" fill="#000000" fill-rule="nonzero" fill-opacity="1" /><polyline clip-path="url(#clip370)" style="stroke:#ac8d18; stroke-linecap:round; stroke-linejoin:round; stroke-width:12; stroke-opacity:1; fill:none" points="1977.44,354.418 2121.36,354.418 "/>
<path clip-path="url(#clip370)" d="M2150.03 340.98 L2150.03 353.966 L2155.91 353.966 Q2159.17 353.966 2160.95 352.276 Q2162.73 350.587 2162.73 347.462 Q2162.73 344.36 2160.95 342.67 Q2159.17 340.98 2155.91 340.98 L2150.03 340.98 M2145.35 337.138 L2155.91 337.138 Q2161.72 337.138 2164.68 339.776 Q2167.67 342.392 2167.67 347.462 Q2167.67 352.577 2164.68 355.193 Q2161.72 357.809 2155.91 357.809 L2150.03 357.809 L2150.03 371.698 L2145.35 371.698 L2145.35 337.138 Z" fill="#000000" fill-rule="nonzero" fill-opacity="1" /><path clip-path="url(#clip370)" d="M2173.17 337.138 L2195.4 337.138 L2195.4 339.128 L2182.85 371.698 L2177.97 371.698 L2189.77 341.073 L2173.17 341.073 L2173.17 337.138 Z" fill="#000000" fill-rule="nonzero" fill-opacity="1" /><path clip-path="url(#clip370)" d="M2204.56 337.138 L2222.92 337.138 L2222.92 341.073 L2208.85 341.073 L2208.85 349.545 Q2209.86 349.198 2210.88 349.036 Q2211.9 348.85 2212.92 348.85 Q2218.71 348.85 2222.09 352.022 Q2225.47 355.193 2225.47 360.61 Q2225.47 366.188 2221.99 369.29 Q2218.52 372.369 2212.2 372.369 Q2210.03 372.369 2207.76 371.998 Q2205.51 371.628 2203.1 370.887 L2203.1 366.188 Q2205.19 367.323 2207.41 367.878 Q2209.63 368.434 2212.11 368.434 Q2216.11 368.434 2218.45 366.327 Q2220.79 364.221 2220.79 360.61 Q2220.79 356.999 2218.45 354.892 Q2216.11 352.786 2212.11 352.786 Q2210.23 352.786 2208.36 353.202 Q2206.51 353.619 2204.56 354.499 L2204.56 337.138 Z" fill="#000000" fill-rule="nonzero" fill-opacity="1" /></svg>
