<?xml version="1.0" encoding="utf-8"?>
<svg xmlns="http://www.w3.org/2000/svg" xmlns:xlink="http://www.w3.org/1999/xlink" width="600" height="400" viewBox="0 0 2400 1600">
<defs>
  <clipPath id="clip120">
    <rect x="0" y="0" width="2400" height="1600"/>
  </clipPath>
</defs>
<path clip-path="url(#clip120)" d="M0 1600 L2400 1600 L2400 0 L0 0  Z" fill="#ffffff" fill-rule="evenodd" fill-opacity="1"/>
<defs>
  <clipPath id="clip121">
    <rect x="193" y="47" width="2160" height="1440"/>
  </clipPath>
</defs>
<path clip-path="url(#clip120)" d="M193.936 1486.45 L2352.76 1486.45 L2352.76 47.2441 L193.936 47.2441  Z" fill="#ffffff" fill-rule="evenodd" fill-opacity="1"/>
<polyline clip-path="url(#clip121)" style="stroke:#000000; stroke-linecap:round; stroke-linejoin:round; stroke-width:2; stroke-opacity:0.1; fill:none" points="255.035,1486.45 255.035,47.2441 "/>
<polyline clip-path="url(#clip121)" style="stroke:#000000; stroke-linecap:round; stroke-linejoin:round; stroke-width:2; stroke-opacity:0.1; fill:none" points="579.338,1486.45 579.338,47.2441 "/>
<polyline clip-path="url(#clip121)" style="stroke:#000000; stroke-linecap:round; stroke-linejoin:round; stroke-width:2; stroke-opacity:0.1; fill:none" points="903.641,1486.45 903.641,47.2441 "/>
<polyline clip-path="url(#clip121)" style="stroke:#000000; stroke-linecap:round; stroke-linejoin:round; stroke-width:2; stroke-opacity:0.1; fill:none" points="1227.94,1486.45 1227.94,47.2441 "/>
<polyline clip-path="url(#clip121)" style="stroke:#000000; stroke-linecap:round; stroke-linejoin:round; stroke-width:2; stroke-opacity:0.1; fill:none" points="1552.25,1486.45 1552.25,47.2441 "/>
<polyline clip-path="url(#clip121)" style="stroke:#000000; stroke-linecap:round; stroke-linejoin:round; stroke-width:2; stroke-opacity:0.1; fill:none" points="1876.55,1486.45 1876.55,47.2441 "/>
<polyline clip-path="url(#clip121)" style="stroke:#000000; stroke-linecap:round; stroke-linejoin:round; stroke-width:2; stroke-opacity:0.1; fill:none" points="2200.85,1486.45 2200.85,47.2441 "/>
<polyline clip-path="url(#clip121)" style="stroke:#000000; stroke-linecap:round; stroke-linejoin:round; stroke-width:2; stroke-opacity:0.1; fill:none" points="193.936,1302.82 2352.76,1302.82 "/>
<polyline clip-path="url(#clip121)" style="stroke:#000000; stroke-linecap:round; stroke-linejoin:round; stroke-width:2; stroke-opacity:0.1; fill:none" points="193.936,1028.2 2352.76,1028.2 "/>
<polyline clip-path="url(#clip121)" style="stroke:#000000; stroke-linecap:round; stroke-linejoin:round; stroke-width:2; stroke-opacity:0.1; fill:none" points="193.936,753.576 2352.76,753.576 "/>
<polyline clip-path="url(#clip121)" style="stroke:#000000; stroke-linecap:round; stroke-linejoin:round; stroke-width:2; stroke-opacity:0.1; fill:none" points="193.936,478.954 2352.76,478.954 "/>
<polyline clip-path="url(#clip121)" style="stroke:#000000; stroke-linecap:round; stroke-linejoin:round; stroke-width:2; stroke-opacity:0.1; fill:none" points="193.936,204.331 2352.76,204.331 "/>
<polyline clip-path="url(#clip120)" style="stroke:#000000; stroke-linecap:round; stroke-linejoin:round; stroke-width:4; stroke-opacity:1; fill:none" points="193.936,1486.45 2352.76,1486.45 "/>
<polyline clip-path="url(#clip120)" style="stroke:#000000; stroke-linecap:round; stroke-linejoin:round; stroke-width:4; stroke-opacity:1; fill:none" points="255.035,1486.45 255.035,1467.55 "/>
<polyline clip-path="url(#clip120)" style="stroke:#000000; stroke-linecap:round; stroke-linejoin:round; stroke-width:4; stroke-opacity:1; fill:none" points="579.338,1486.45 579.338,1467.55 "/>
<polyline clip-path="url(#clip120)" style="stroke:#000000; stroke-linecap:round; stroke-linejoin:round; stroke-width:4; stroke-opacity:1; fill:none" points="903.641,1486.45 903.641,1467.55 "/>
<polyline clip-path="url(#clip120)" style="stroke:#000000; stroke-linecap:round; stroke-linejoin:round; stroke-width:4; stroke-opacity:1; fill:none" points="1227.94,1486.45 1227.94,1467.55 "/>
<polyline clip-path="url(#clip120)" style="stroke:#000000; stroke-linecap:round; stroke-linejoin:round; stroke-width:4; stroke-opacity:1; fill:none" points="1552.25,1486.45 1552.25,1467.55 "/>
<polyline clip-path="url(#clip120)" style="stroke:#000000; stroke-linecap:round; stroke-linejoin:round; stroke-width:4; stroke-opacity:1; fill:none" points="1876.55,1486.45 1876.55,1467.55 "/>
<polyline clip-path="url(#clip120)" style="stroke:#000000; stroke-linecap:round; stroke-linejoin:round; stroke-width:4; stroke-opacity:1; fill:none" points="2200.85,1486.45 2200.85,1467.55 "/>
<path clip-path="url(#clip120)" d="M255.035 1517.37 Q251.424 1517.37 249.595 1520.93 Q247.789 1524.47 247.789 1531.6 Q247.789 1538.71 249.595 1542.27 Q251.424 1545.82 255.035 1545.82 Q258.669 1545.82 260.474 1542.27 Q262.303 1538.71 262.303 1531.6 Q262.303 1524.47 260.474 1520.93 Q258.669 1517.37 255.035 1517.37 M255.035 1513.66 Q260.845 1513.66 263.9 1518.27 Q266.979 1522.85 266.979 1531.6 Q266.979 1540.33 263.9 1544.94 Q260.845 1549.52 255.035 1549.52 Q249.225 1549.52 246.146 1544.94 Q243.09 1540.33 243.09 1531.6 Q243.09 1522.85 246.146 1518.27 Q249.225 1513.66 255.035 1513.66 Z" fill="#000000" fill-rule="nonzero" fill-opacity="1" /><path clip-path="url(#clip120)" d="M569.72 1544.91 L577.358 1544.91 L577.358 1518.55 L569.048 1520.21 L569.048 1515.95 L577.312 1514.29 L581.988 1514.29 L581.988 1544.91 L589.627 1544.91 L589.627 1548.85 L569.72 1548.85 L569.72 1544.91 Z" fill="#000000" fill-rule="nonzero" fill-opacity="1" /><path clip-path="url(#clip120)" d="M898.293 1544.91 L914.613 1544.91 L914.613 1548.85 L892.668 1548.85 L892.668 1544.91 Q895.33 1542.16 899.914 1537.53 Q904.52 1532.88 905.701 1531.53 Q907.946 1529.01 908.826 1527.27 Q909.729 1525.51 909.729 1523.82 Q909.729 1521.07 907.784 1519.33 Q905.863 1517.6 902.761 1517.6 Q900.562 1517.6 898.108 1518.36 Q895.678 1519.13 892.9 1520.68 L892.9 1515.95 Q895.724 1514.82 898.178 1514.24 Q900.631 1513.66 902.668 1513.66 Q908.039 1513.66 911.233 1516.35 Q914.428 1519.03 914.428 1523.52 Q914.428 1525.65 913.617 1527.57 Q912.83 1529.47 910.724 1532.07 Q910.145 1532.74 907.043 1535.95 Q903.942 1539.15 898.293 1544.91 Z" fill="#000000" fill-rule="nonzero" fill-opacity="1" /><path clip-path="url(#clip120)" d="M1232.19 1530.21 Q1235.55 1530.93 1237.42 1533.2 Q1239.32 1535.47 1239.32 1538.8 Q1239.32 1543.92 1235.8 1546.72 Q1232.28 1549.52 1225.8 1549.52 Q1223.63 1549.52 1221.31 1549.08 Q1219.02 1548.66 1216.57 1547.81 L1216.57 1543.29 Q1218.51 1544.43 1220.83 1545.01 Q1223.14 1545.58 1225.66 1545.58 Q1230.06 1545.58 1232.35 1543.85 Q1234.67 1542.11 1234.67 1538.8 Q1234.67 1535.75 1232.52 1534.03 Q1230.39 1532.3 1226.57 1532.3 L1222.54 1532.3 L1222.54 1528.45 L1226.75 1528.45 Q1230.2 1528.45 1232.03 1527.09 Q1233.86 1525.7 1233.86 1523.11 Q1233.86 1520.45 1231.96 1519.03 Q1230.08 1517.6 1226.57 1517.6 Q1224.64 1517.6 1222.45 1518.01 Q1220.25 1518.43 1217.61 1519.31 L1217.61 1515.14 Q1220.27 1514.4 1222.58 1514.03 Q1224.92 1513.66 1226.98 1513.66 Q1232.31 1513.66 1235.41 1516.09 Q1238.51 1518.5 1238.51 1522.62 Q1238.51 1525.49 1236.87 1527.48 Q1235.22 1529.45 1232.19 1530.21 Z" fill="#000000" fill-rule="nonzero" fill-opacity="1" /><path clip-path="url(#clip120)" d="M1555.26 1518.36 L1543.45 1536.81 L1555.26 1536.81 L1555.26 1518.36 M1554.03 1514.29 L1559.91 1514.29 L1559.91 1536.81 L1564.84 1536.81 L1564.84 1540.7 L1559.91 1540.7 L1559.91 1548.85 L1555.26 1548.85 L1555.26 1540.7 L1539.65 1540.7 L1539.65 1536.19 L1554.03 1514.29 Z" fill="#000000" fill-rule="nonzero" fill-opacity="1" /><path clip-path="url(#clip120)" d="M1866.83 1514.29 L1885.18 1514.29 L1885.18 1518.22 L1871.11 1518.22 L1871.11 1526.7 Q1872.13 1526.35 1873.15 1526.19 Q1874.17 1526 1875.18 1526 Q1880.97 1526 1884.35 1529.17 Q1887.73 1532.34 1887.73 1537.76 Q1887.73 1543.34 1884.26 1546.44 Q1880.79 1549.52 1874.47 1549.52 Q1872.29 1549.52 1870.02 1549.15 Q1867.78 1548.78 1865.37 1548.04 L1865.37 1543.34 Q1867.45 1544.47 1869.67 1545.03 Q1871.9 1545.58 1874.37 1545.58 Q1878.38 1545.58 1880.72 1543.48 Q1883.05 1541.37 1883.05 1537.76 Q1883.05 1534.15 1880.72 1532.04 Q1878.38 1529.94 1874.37 1529.94 Q1872.5 1529.94 1870.62 1530.35 Q1868.77 1530.77 1866.83 1531.65 L1866.83 1514.29 Z" fill="#000000" fill-rule="nonzero" fill-opacity="1" /><path clip-path="url(#clip120)" d="M2201.26 1529.7 Q2198.11 1529.7 2196.26 1531.86 Q2194.43 1534.01 2194.43 1537.76 Q2194.43 1541.49 2196.26 1543.66 Q2198.11 1545.82 2201.26 1545.82 Q2204.41 1545.82 2206.23 1543.66 Q2208.09 1541.49 2208.09 1537.76 Q2208.09 1534.01 2206.23 1531.86 Q2204.41 1529.7 2201.26 1529.7 M2210.54 1515.05 L2210.54 1519.31 Q2208.78 1518.48 2206.98 1518.04 Q2205.19 1517.6 2203.43 1517.6 Q2198.8 1517.6 2196.35 1520.72 Q2193.92 1523.85 2193.57 1530.17 Q2194.94 1528.15 2197 1527.09 Q2199.06 1526 2201.54 1526 Q2206.74 1526 2209.75 1529.17 Q2212.79 1532.32 2212.79 1537.76 Q2212.79 1543.08 2209.64 1546.3 Q2206.49 1549.52 2201.26 1549.52 Q2195.26 1549.52 2192.09 1544.94 Q2188.92 1540.33 2188.92 1531.6 Q2188.92 1523.41 2192.81 1518.55 Q2196.7 1513.66 2203.25 1513.66 Q2205.01 1513.66 2206.79 1514.01 Q2208.6 1514.36 2210.54 1515.05 Z" fill="#000000" fill-rule="nonzero" fill-opacity="1" /><polyline clip-path="url(#clip120)" style="stroke:#000000; stroke-linecap:round; stroke-linejoin:round; stroke-width:4; stroke-opacity:1; fill:none" points="193.936,1486.45 193.936,47.2441 "/>
<polyline clip-path="url(#clip120)" style="stroke:#000000; stroke-linecap:round; stroke-linejoin:round; stroke-width:4; stroke-opacity:1; fill:none" points="193.936,1302.82 212.834,1302.82 "/>
<polyline clip-path="url(#clip120)" style="stroke:#000000; stroke-linecap:round; stroke-linejoin:round; stroke-width:4; stroke-opacity:1; fill:none" points="193.936,1028.2 212.834,1028.2 "/>
<polyline clip-path="url(#clip120)" style="stroke:#000000; stroke-linecap:round; stroke-linejoin:round; stroke-width:4; stroke-opacity:1; fill:none" points="193.936,753.576 212.834,753.576 "/>
<polyline clip-path="url(#clip120)" style="stroke:#000000; stroke-linecap:round; stroke-linejoin:round; stroke-width:4; stroke-opacity:1; fill:none" points="193.936,478.954 212.834,478.954 "/>
<polyline clip-path="url(#clip120)" style="stroke:#000000; stroke-linecap:round; stroke-linejoin:round; stroke-width:4; stroke-opacity:1; fill:none" points="193.936,204.331 212.834,204.331 "/>
<path clip-path="url(#clip120)" d="M50.9921 1303.27 L80.6679 1303.27 L80.6679 1307.21 L50.9921 1307.21 L50.9921 1303.27 Z" fill="#000000" fill-rule="nonzero" fill-opacity="1" /><path clip-path="url(#clip120)" d="M91.5706 1316.17 L99.2095 1316.17 L99.2095 1289.8 L90.8993 1291.47 L90.8993 1287.21 L99.1632 1285.54 L103.839 1285.54 L103.839 1316.17 L111.478 1316.17 L111.478 1320.1 L91.5706 1320.1 L91.5706 1316.17 Z" fill="#000000" fill-rule="nonzero" fill-opacity="1" /><path clip-path="url(#clip120)" d="M120.922 1314.22 L125.807 1314.22 L125.807 1320.1 L120.922 1320.1 L120.922 1314.22 Z" fill="#000000" fill-rule="nonzero" fill-opacity="1" /><path clip-path="url(#clip120)" d="M145.992 1288.62 Q142.381 1288.62 140.552 1292.19 Q138.746 1295.73 138.746 1302.86 Q138.746 1309.96 140.552 1313.53 Q142.381 1317.07 145.992 1317.07 Q149.626 1317.07 151.431 1313.53 Q153.26 1309.96 153.26 1302.86 Q153.26 1295.73 151.431 1292.19 Q149.626 1288.62 145.992 1288.62 M145.992 1284.92 Q151.802 1284.92 154.857 1289.52 Q157.936 1294.11 157.936 1302.86 Q157.936 1311.58 154.857 1316.19 Q151.802 1320.77 145.992 1320.77 Q140.181 1320.77 137.103 1316.19 Q134.047 1311.58 134.047 1302.86 Q134.047 1294.11 137.103 1289.52 Q140.181 1284.92 145.992 1284.92 Z" fill="#000000" fill-rule="nonzero" fill-opacity="1" /><path clip-path="url(#clip120)" d="M51.9875 1028.65 L81.6633 1028.65 L81.6633 1032.59 L51.9875 1032.59 L51.9875 1028.65 Z" fill="#000000" fill-rule="nonzero" fill-opacity="1" /><path clip-path="url(#clip120)" d="M101.756 1014 Q98.1447 1014 96.316 1017.56 Q94.5104 1021.1 94.5104 1028.23 Q94.5104 1035.34 96.316 1038.9 Q98.1447 1042.45 101.756 1042.45 Q105.39 1042.45 107.196 1038.9 Q109.024 1035.34 109.024 1028.23 Q109.024 1021.1 107.196 1017.56 Q105.39 1014 101.756 1014 M101.756 1010.29 Q107.566 1010.29 110.621 1014.9 Q113.7 1019.48 113.7 1028.23 Q113.7 1036.96 110.621 1041.57 Q107.566 1046.15 101.756 1046.15 Q95.9456 1046.15 92.8669 1041.57 Q89.8114 1036.96 89.8114 1028.23 Q89.8114 1019.48 92.8669 1014.9 Q95.9456 1010.29 101.756 1010.29 Z" fill="#000000" fill-rule="nonzero" fill-opacity="1" /><path clip-path="url(#clip120)" d="M121.918 1039.6 L126.802 1039.6 L126.802 1045.48 L121.918 1045.48 L121.918 1039.6 Z" fill="#000000" fill-rule="nonzero" fill-opacity="1" /><path clip-path="url(#clip120)" d="M137.033 1010.92 L155.39 1010.92 L155.39 1014.85 L141.316 1014.85 L141.316 1023.33 Q142.334 1022.98 143.353 1022.82 Q144.371 1022.63 145.39 1022.63 Q151.177 1022.63 154.556 1025.8 Q157.936 1028.97 157.936 1034.39 Q157.936 1039.97 154.464 1043.07 Q150.992 1046.15 144.672 1046.15 Q142.496 1046.15 140.228 1045.78 Q137.982 1045.41 135.575 1044.67 L135.575 1039.97 Q137.658 1041.1 139.881 1041.66 Q142.103 1042.22 144.58 1042.22 Q148.584 1042.22 150.922 1040.11 Q153.26 1038 153.26 1034.39 Q153.26 1030.78 150.922 1028.67 Q148.584 1026.57 144.58 1026.57 Q142.705 1026.57 140.83 1026.98 Q138.978 1027.4 137.033 1028.28 L137.033 1010.92 Z" fill="#000000" fill-rule="nonzero" fill-opacity="1" /><path clip-path="url(#clip120)" d="M100.76 739.375 Q97.1493 739.375 95.3206 742.94 Q93.515 746.482 93.515 753.611 Q93.515 760.718 95.3206 764.282 Q97.1493 767.824 100.76 767.824 Q104.395 767.824 106.2 764.282 Q108.029 760.718 108.029 753.611 Q108.029 746.482 106.2 742.94 Q104.395 739.375 100.76 739.375 M100.76 735.671 Q106.571 735.671 109.626 740.278 Q112.705 744.861 112.705 753.611 Q112.705 762.338 109.626 766.944 Q106.571 771.528 100.76 771.528 Q94.9502 771.528 91.8715 766.944 Q88.816 762.338 88.816 753.611 Q88.816 744.861 91.8715 740.278 Q94.9502 735.671 100.76 735.671 Z" fill="#000000" fill-rule="nonzero" fill-opacity="1" /><path clip-path="url(#clip120)" d="M120.922 764.977 L125.807 764.977 L125.807 770.856 L120.922 770.856 L120.922 764.977 Z" fill="#000000" fill-rule="nonzero" fill-opacity="1" /><path clip-path="url(#clip120)" d="M145.992 739.375 Q142.381 739.375 140.552 742.94 Q138.746 746.482 138.746 753.611 Q138.746 760.718 140.552 764.282 Q142.381 767.824 145.992 767.824 Q149.626 767.824 151.431 764.282 Q153.26 760.718 153.26 753.611 Q153.26 746.482 151.431 742.94 Q149.626 739.375 145.992 739.375 M145.992 735.671 Q151.802 735.671 154.857 740.278 Q157.936 744.861 157.936 753.611 Q157.936 762.338 154.857 766.944 Q151.802 771.528 145.992 771.528 Q140.181 771.528 137.103 766.944 Q134.047 762.338 134.047 753.611 Q134.047 744.861 137.103 740.278 Q140.181 735.671 145.992 735.671 Z" fill="#000000" fill-rule="nonzero" fill-opacity="1" /><path clip-path="url(#clip120)" d="M101.756 464.753 Q98.1447 464.753 96.316 468.317 Q94.5104 471.859 94.5104 478.989 Q94.5104 486.095 96.316 489.66 Q98.1447 493.201 101.756 493.201 Q105.39 493.201 107.196 489.66 Q109.024 486.095 109.024 478.989 Q109.024 471.859 107.196 468.317 Q105.39 464.753 101.756 464.753 M101.756 461.049 Q107.566 461.049 110.621 465.655 Q113.7 470.239 113.7 478.989 Q113.7 487.715 110.621 492.322 Q107.566 496.905 101.756 496.905 Q95.9456 496.905 92.8669 492.322 Q89.8114 487.715 89.8114 478.989 Q89.8114 470.239 92.8669 465.655 Q95.9456 461.049 101.756 461.049 Z" fill="#000000" fill-rule="nonzero" fill-opacity="1" /><path clip-path="url(#clip120)" d="M121.918 490.354 L126.802 490.354 L126.802 496.234 L121.918 496.234 L121.918 490.354 Z" fill="#000000" fill-rule="nonzero" fill-opacity="1" /><path clip-path="url(#clip120)" d="M137.033 461.674 L155.39 461.674 L155.39 465.609 L141.316 465.609 L141.316 474.081 Q142.334 473.734 143.353 473.572 Q144.371 473.387 145.39 473.387 Q151.177 473.387 154.556 476.558 Q157.936 479.729 157.936 485.146 Q157.936 490.725 154.464 493.826 Q150.992 496.905 144.672 496.905 Q142.496 496.905 140.228 496.535 Q137.982 496.164 135.575 495.424 L135.575 490.725 Q137.658 491.859 139.881 492.414 Q142.103 492.97 144.58 492.97 Q148.584 492.97 150.922 490.863 Q153.26 488.757 153.26 485.146 Q153.26 481.535 150.922 479.428 Q148.584 477.322 144.58 477.322 Q142.705 477.322 140.83 477.739 Q138.978 478.155 137.033 479.035 L137.033 461.674 Z" fill="#000000" fill-rule="nonzero" fill-opacity="1" /><path clip-path="url(#clip120)" d="M91.5706 217.676 L99.2095 217.676 L99.2095 191.31 L90.8993 192.977 L90.8993 188.718 L99.1632 187.051 L103.839 187.051 L103.839 217.676 L111.478 217.676 L111.478 221.611 L91.5706 221.611 L91.5706 217.676 Z" fill="#000000" fill-rule="nonzero" fill-opacity="1" /><path clip-path="url(#clip120)" d="M120.922 215.732 L125.807 215.732 L125.807 221.611 L120.922 221.611 L120.922 215.732 Z" fill="#000000" fill-rule="nonzero" fill-opacity="1" /><path clip-path="url(#clip120)" d="M145.992 190.13 Q142.381 190.13 140.552 193.695 Q138.746 197.236 138.746 204.366 Q138.746 211.472 140.552 215.037 Q142.381 218.579 145.992 218.579 Q149.626 218.579 151.431 215.037 Q153.26 211.472 153.26 204.366 Q153.26 197.236 151.431 193.695 Q149.626 190.13 145.992 190.13 M145.992 186.426 Q151.802 186.426 154.857 191.033 Q157.936 195.616 157.936 204.366 Q157.936 213.093 154.857 217.699 Q151.802 222.283 145.992 222.283 Q140.181 222.283 137.103 217.699 Q134.047 213.093 134.047 204.366 Q134.047 195.616 137.103 191.033 Q140.181 186.426 145.992 186.426 Z" fill="#000000" fill-rule="nonzero" fill-opacity="1" /><polyline clip-path="url(#clip121)" style="stroke:#009af9; stroke-linecap:round; stroke-linejoin:round; stroke-width:4; stroke-opacity:1; fill:none" points="255.035,753.576 258.278,748.084 261.521,742.592 264.764,737.102 268.007,731.612 271.25,726.126 274.493,720.641 277.736,715.161 280.979,709.684 284.222,704.211 287.465,698.743 290.708,693.281 293.951,687.825 297.194,682.375 300.437,676.933 303.68,671.498 306.923,666.072 310.166,660.654 313.409,655.245 316.652,649.847 319.895,644.458 323.138,639.081 326.381,633.715 329.624,628.361 332.867,623.019 336.11,617.691 339.353,612.376 342.596,607.075 345.84,601.789 349.083,596.519 352.326,591.263 355.569,586.024 358.812,580.802 362.055,575.597 365.298,570.41 368.541,565.241 371.784,560.091 375.027,554.961 378.27,549.85 381.513,544.76 384.756,539.69 387.999,534.642 391.242,529.616 394.485,524.612 397.728,519.631 400.971,514.674 404.214,509.74 407.457,504.831 410.7,499.946 413.943,495.087 417.186,490.254 420.429,485.447 423.672,480.667 426.915,475.915 430.158,471.19 433.401,466.493 436.644,461.825 439.887,457.186 443.13,452.577 446.373,447.998 449.616,443.449 452.859,438.932 456.103,434.446 459.346,429.991 462.589,425.57 465.832,421.181 469.075,416.825 472.318,412.503 475.561,408.215 478.804,403.961 482.047,399.743 485.29,395.56 488.533,391.413 491.776,387.301 495.019,383.227 498.262,379.19 501.505,375.19 504.748,371.227 507.991,367.304 511.234,363.418 514.477,359.572 517.72,355.765 520.963,351.998 524.206,348.271 527.449,344.585 530.692,340.939 533.935,337.335 537.178,333.772 540.421,330.252 543.664,326.774 546.907,323.338 550.15,319.945 553.393,316.596 556.636,313.291 559.879,310.029 563.122,306.812 566.366,303.639 569.609,300.512 572.852,297.43 576.095,294.393 579.338,291.403 582.581,288.458 585.824,285.56 589.067,282.709 592.31,279.905 595.553,277.148 598.796,274.439 602.039,271.778 605.282,269.165 608.525,266.601 611.768,264.085 615.011,261.618 618.254,259.201 621.497,256.832 624.74,254.514 627.983,252.245 631.226,250.027 634.469,247.859 637.712,245.741 640.955,243.674 644.198,241.658 647.441,239.694 650.684,237.781 653.927,235.919 657.17,234.109 660.413,232.351 663.656,230.645 666.899,228.992 670.142,227.391 673.385,225.842 676.629,224.347 679.872,222.904 683.115,221.514 686.358,220.178 689.601,218.895 692.844,217.665 696.087,216.489 699.33,215.367 702.573,214.298 705.816,213.283 709.059,212.323 712.302,211.416 715.545,210.564 718.788,209.766 722.031,209.023 725.274,208.334 728.517,207.699 731.76,207.119 735.003,206.594 738.246,206.123 741.489,205.707 744.732,205.346 747.975,205.04 751.218,204.788 754.461,204.592 757.704,204.45 760.947,204.363 764.19,204.331 767.433,204.354 770.676,204.433 773.919,204.565 777.162,204.753 780.405,204.996 783.648,205.294 786.892,205.646 790.135,206.053 793.378,206.515 796.621,207.032 799.864,207.603 803.107,208.229 806.35,208.909 809.593,209.644 812.836,210.433 816.079,211.277 819.322,212.175 822.565,213.127 825.808,214.133 829.051,215.193 832.294,216.307 835.537,217.474 838.78,218.695 842.023,219.97 845.266,221.298 848.509,222.679 851.752,224.113 854.995,225.601 858.238,227.141 861.481,228.733 864.724,230.379 867.967,232.076 871.21,233.826 874.453,235.627 877.696,237.481 880.939,239.386 884.182,241.342 887.425,243.35 890.668,245.408 893.911,247.518 897.155,249.678 900.398,251.889 903.641,254.149 906.884,256.46 910.127,258.82 913.37,261.23 916.613,263.689 919.856,266.197 923.099,268.754 926.342,271.359 929.585,274.012 932.828,276.714 936.071,279.463 939.314,282.259 942.557,285.103 945.8,287.993 949.043,290.93 952.286,293.914 955.529,296.943 958.772,300.018 962.015,303.138 965.258,306.304 968.501,309.514 971.744,312.768 974.987,316.067 978.23,319.409 981.473,322.795 984.716,326.223 987.959,329.695 991.202,333.209 994.445,336.765 997.688,340.362 1000.93,344.001 1004.17,347.681 1007.42,351.402 1010.66,355.163 1013.9,358.963 1017.15,362.803 1020.39,366.682 1023.63,370.6 1026.88,374.556 1030.12,378.55 1033.36,382.582 1036.6,386.65 1039.85,390.755 1043.09,394.897 1046.33,399.074 1049.58,403.287 1052.82,407.535 1056.06,411.818 1059.31,416.134 1062.55,420.485 1065.79,424.868 1069.04,429.285 1072.28,433.734 1075.52,438.215 1078.76,442.728 1082.01,447.271 1085.25,451.846 1088.49,456.45 1091.74,461.084 1094.98,465.748 1098.22,470.44 1101.47,475.16 1104.71,479.909 1107.95,484.684 1111.19,489.487 1114.44,494.316 1117.68,499.171 1120.92,504.051 1124.17,508.957 1127.41,513.886 1130.65,518.84 1133.9,523.817 1137.14,528.818 1140.38,533.84 1143.62,538.885 1146.87,543.951 1150.11,549.038 1153.35,554.146 1156.6,559.273 1159.84,564.42 1163.08,569.586 1166.33,574.77 1169.57,579.972 1172.81,585.192 1176.06,590.428 1179.3,595.681 1182.54,600.949 1185.78,606.233 1189.03,611.531 1192.27,616.844 1195.51,622.17 1198.76,627.509 1202,632.861 1205.24,638.225 1208.49,643.601 1211.73,648.988 1214.97,654.385 1218.21,659.792 1221.46,665.208 1224.7,670.633 1227.94,676.067 1231.19,681.508 1234.43,686.957 1237.67,692.412 1240.92,697.873 1244.16,703.34 1247.4,708.812 1250.64,714.288 1253.89,719.768 1257.13,725.252 1260.37,730.738 1263.62,736.227 1266.86,741.718 1270.1,747.209 1273.35,752.702 1276.59,758.194 1279.83,763.686 1283.08,769.177 1286.32,774.666 1289.56,780.154 1292.8,785.638 1296.05,791.12 1299.29,796.597 1302.53,802.07 1305.78,807.539 1309.02,813.002 1312.26,818.459 1315.51,823.91 1318.75,829.354 1321.99,834.79 1325.23,840.217 1328.48,845.637 1331.72,851.047 1334.96,856.447 1338.21,861.837 1341.45,867.216 1344.69,872.584 1347.94,877.94 1351.18,883.284 1354.42,888.614 1357.66,893.931 1360.91,899.234 1364.15,904.523 1367.39,909.796 1370.64,915.054 1373.88,920.295 1377.12,925.52 1380.37,930.728 1383.61,935.918 1386.85,941.089 1390.1,946.242 1393.34,951.376 1396.58,956.49 1399.82,961.584 1403.07,966.657 1406.31,971.708 1409.55,976.738 1412.8,981.745 1416.04,986.73 1419.28,991.691 1422.53,996.629 1425.77,1001.54 1429.01,1006.43 1432.25,1011.29 1435.5,1016.13 1438.74,1020.94 1441.98,1025.73 1445.23,1030.48 1448.47,1035.21 1451.71,1039.91 1454.96,1044.59 1458.2,1049.23 1461.44,1053.84 1464.68,1058.43 1467.93,1062.98 1471.17,1067.5 1474.41,1071.99 1477.66,1076.45 1480.9,1080.88 1484.14,1085.28 1487.39,1089.64 1490.63,1093.96 1493.87,1098.26 1497.11,1102.52 1500.36,1106.74 1503.6,1110.93 1506.84,1115.08 1510.09,1119.2 1513.33,1123.28 1516.57,1127.32 1519.82,1131.33 1523.06,1135.3 1526.3,1139.23 1529.55,1143.12 1532.79,1146.97 1536.03,1150.78 1539.27,1154.56 1542.52,1158.29 1545.76,1161.98 1549,1165.64 1552.25,1169.25 1555.49,1172.82 1558.73,1176.34 1561.98,1179.83 1565.22,1183.27 1568.46,1186.67 1571.7,1190.03 1574.95,1193.34 1578.19,1196.61 1581.43,1199.83 1584.68,1203.01 1587.92,1206.15 1591.16,1209.24 1594.41,1212.28 1597.65,1215.28 1600.89,1218.23 1604.13,1221.13 1607.38,1223.99 1610.62,1226.8 1613.86,1229.57 1617.11,1232.29 1620.35,1234.95 1623.59,1237.57 1626.84,1240.15 1630.08,1242.67 1633.32,1245.15 1636.57,1247.57 1639.81,1249.95 1643.05,1252.27 1646.29,1254.55 1649.54,1256.78 1652.78,1258.95 1656.02,1261.08 1659.27,1263.15 1662.51,1265.18 1665.75,1267.15 1669,1269.07 1672.24,1270.94 1675.48,1272.76 1678.72,1274.53 1681.97,1276.24 1685.21,1277.9 1688.45,1279.51 1691.7,1281.07 1694.94,1282.57 1698.18,1284.02 1701.43,1285.42 1704.67,1286.77 1707.91,1288.06 1711.15,1289.3 1714.4,1290.48 1717.64,1291.61 1720.88,1292.69 1724.13,1293.71 1727.37,1294.68 1730.61,1295.6 1733.86,1296.46 1737.1,1297.26 1740.34,1298.02 1743.59,1298.71 1746.83,1299.36 1750.07,1299.95 1753.31,1300.48 1756.56,1300.96 1759.8,1301.38 1763.04,1301.75 1766.29,1302.07 1769.53,1302.33 1772.77,1302.53 1776.02,1302.68 1779.26,1302.78 1782.5,1302.82 1785.74,1302.81 1788.99,1302.74 1792.23,1302.61 1795.47,1302.43 1798.72,1302.2 1801.96,1301.91 1805.2,1301.57 1808.45,1301.17 1811.69,1300.72 1814.93,1300.21 1818.17,1299.64 1821.42,1299.03 1824.66,1298.36 1827.9,1297.63 1831.15,1296.85 1834.39,1296.01 1837.63,1295.12 1840.88,1294.18 1844.12,1293.18 1847.36,1292.13 1850.61,1291.03 1853.85,1289.87 1857.09,1288.66 1860.33,1287.39 1863.58,1286.07 1866.82,1284.7 1870.06,1283.27 1873.31,1281.79 1876.55,1280.26 1879.79,1278.68 1883.04,1277.04 1886.28,1275.35 1889.52,1273.61 1892.76,1271.82 1896.01,1269.97 1899.25,1268.07 1902.49,1266.13 1905.74,1264.13 1908.98,1262.08 1912.22,1259.97 1915.47,1257.82 1918.71,1255.62 1921.95,1253.37 1925.19,1251.06 1928.44,1248.71 1931.68,1246.31 1934.92,1243.86 1938.17,1241.36 1941.41,1238.81 1944.65,1236.21 1947.9,1233.57 1951.14,1230.87 1954.38,1228.13 1957.63,1225.34 1960.87,1222.51 1964.11,1219.62 1967.35,1216.69 1970.6,1213.72 1973.84,1210.7 1977.08,1207.63 1980.33,1204.51 1983.57,1201.36 1986.81,1198.15 1990.06,1194.91 1993.3,1191.61 1996.54,1188.28 1999.78,1184.9 2003.03,1181.48 2006.27,1178.01 2009.51,1174.51 2012.76,1170.96 2016,1167.37 2019.24,1163.73 2022.49,1160.06 2025.73,1156.35 2028.97,1152.59 2032.21,1148.8 2035.46,1144.96 2038.7,1141.09 2041.94,1137.18 2045.19,1133.23 2048.43,1129.24 2051.67,1125.22 2054.92,1121.15 2058.16,1117.05 2061.4,1112.92 2064.65,1108.75 2067.89,1104.54 2071.13,1100.3 2074.37,1096.02 2077.62,1091.71 2080.86,1087.36 2084.1,1082.98 2087.35,1078.57 2090.59,1074.13 2093.83,1069.65 2097.08,1065.15 2100.32,1060.61 2103.56,1056.04 2106.8,1051.44 2110.05,1046.81 2113.29,1042.15 2116.53,1037.46 2119.78,1032.75 2123.02,1028 2126.26,1023.23 2129.51,1018.43 2132.75,1013.61 2135.99,1008.76 2139.23,1003.88 2142.48,998.979 2145.72,994.053 2148.96,989.103 2152.21,984.13 2155.45,979.133 2158.69,974.114 2161.94,969.073 2165.18,964.01 2168.42,958.926 2171.67,953.822 2174.91,948.698 2178.15,943.554 2181.39,938.391 2184.64,933.21 2187.88,928.01 2191.12,922.794 2194.37,917.56 2197.61,912.31 2200.85,907.044 2204.1,901.763 2207.34,896.467 2210.58,891.156 2213.82,885.832 2217.07,880.495 2220.31,875.145 2223.55,869.783 2226.8,864.409 2230.04,859.024 2233.28,853.628 2236.53,848.223 2239.77,842.808 2243.01,837.384 2246.25,831.952 2249.5,826.512 2252.74,821.064 2255.98,815.61 2259.23,810.15 2262.47,804.684 2265.71,799.213 2268.96,793.737 2272.2,788.258 2275.44,782.774 2278.69,777.288 2281.93,771.8 2285.17,766.31 2288.41,760.818 2291.66,755.326 "/>
<circle clip-path="url(#clip121)" cx="1328.48" cy="819.502" r="14.4" fill="#e26f46" fill-rule="evenodd" fill-opacity="1" stroke="#000000" stroke-opacity="1" stroke-width="3.2"/>
<circle clip-path="url(#clip121)" cx="1305.78" cy="936.799" r="14.4" fill="#e26f46" fill-rule="evenodd" fill-opacity="1" stroke="#000000" stroke-opacity="1" stroke-width="3.2"/>
<circle clip-path="url(#clip121)" cx="446.373" cy="435.718" r="14.4" fill="#e26f46" fill-rule="evenodd" fill-opacity="1" stroke="#000000" stroke-opacity="1" stroke-width="3.2"/>
<circle clip-path="url(#clip121)" cx="978.23" cy="350.329" r="14.4" fill="#e26f46" fill-rule="evenodd" fill-opacity="1" stroke="#000000" stroke-opacity="1" stroke-width="3.2"/>
<circle clip-path="url(#clip121)" cx="1665.75" cy="1249.32" r="14.4" fill="#e26f46" fill-rule="evenodd" fill-opacity="1" stroke="#000000" stroke-opacity="1" stroke-width="3.2"/>
<circle clip-path="url(#clip121)" cx="799.864" cy="340.515" r="14.4" fill="#e26f46" fill-rule="evenodd" fill-opacity="1" stroke="#000000" stroke-opacity="1" stroke-width="3.2"/>
<circle clip-path="url(#clip121)" cx="1694.94" cy="1149.17" r="14.4" fill="#e26f46" fill-rule="evenodd" fill-opacity="1" stroke="#000000" stroke-opacity="1" stroke-width="3.2"/>
<circle clip-path="url(#clip121)" cx="443.13" cy="391.198" r="14.4" fill="#e26f46" fill-rule="evenodd" fill-opacity="1" stroke="#000000" stroke-opacity="1" stroke-width="3.2"/>
<circle clip-path="url(#clip121)" cx="602.039" cy="225.147" r="14.4" fill="#e26f46" fill-rule="evenodd" fill-opacity="1" stroke="#000000" stroke-opacity="1" stroke-width="3.2"/>
<circle clip-path="url(#clip121)" cx="1396.58" cy="944.765" r="14.4" fill="#e26f46" fill-rule="evenodd" fill-opacity="1" stroke="#000000" stroke-opacity="1" stroke-width="3.2"/>
<circle clip-path="url(#clip121)" cx="2268.96" cy="702.838" r="14.4" fill="#e26f46" fill-rule="evenodd" fill-opacity="1" stroke="#000000" stroke-opacity="1" stroke-width="3.2"/>
<circle clip-path="url(#clip121)" cx="1529.55" cy="1235.32" r="14.4" fill="#e26f46" fill-rule="evenodd" fill-opacity="1" stroke="#000000" stroke-opacity="1" stroke-width="3.2"/>
<circle clip-path="url(#clip121)" cx="1185.78" cy="506.592" r="14.4" fill="#e26f46" fill-rule="evenodd" fill-opacity="1" stroke="#000000" stroke-opacity="1" stroke-width="3.2"/>
<circle clip-path="url(#clip121)" cx="1088.49" cy="547.504" r="14.4" fill="#e26f46" fill-rule="evenodd" fill-opacity="1" stroke="#000000" stroke-opacity="1" stroke-width="3.2"/>
<circle clip-path="url(#clip121)" cx="527.449" cy="386.579" r="14.4" fill="#e26f46" fill-rule="evenodd" fill-opacity="1" stroke="#000000" stroke-opacity="1" stroke-width="3.2"/>
<circle clip-path="url(#clip121)" cx="417.186" cy="572.243" r="14.4" fill="#e26f46" fill-rule="evenodd" fill-opacity="1" stroke="#000000" stroke-opacity="1" stroke-width="3.2"/>
<circle clip-path="url(#clip121)" cx="1568.46" cy="1296.38" r="14.4" fill="#e26f46" fill-rule="evenodd" fill-opacity="1" stroke="#000000" stroke-opacity="1" stroke-width="3.2"/>
<circle clip-path="url(#clip121)" cx="2171.67" cy="1028.81" r="14.4" fill="#e26f46" fill-rule="evenodd" fill-opacity="1" stroke="#000000" stroke-opacity="1" stroke-width="3.2"/>
<circle clip-path="url(#clip121)" cx="391.242" cy="395.018" r="14.4" fill="#e26f46" fill-rule="evenodd" fill-opacity="1" stroke="#000000" stroke-opacity="1" stroke-width="3.2"/>
<circle clip-path="url(#clip121)" cx="1740.34" cy="1286.14" r="14.4" fill="#e26f46" fill-rule="evenodd" fill-opacity="1" stroke="#000000" stroke-opacity="1" stroke-width="3.2"/>
<path clip-path="url(#clip121)" d="M255.035 927.286 L258.278 921.63 L261.521 915.911 L264.764 910.129 L268.007 904.285 L271.25 898.379 L274.493 892.413 L277.736 886.387 L280.979 880.301 L284.222 874.158 L287.465 867.958 L290.708 861.702 L293.951 855.393 L297.194 849.031 L300.437 842.619 L303.68 836.158 L306.923 829.651 L310.166 823.099 L313.409 816.507 L316.652 809.876 L319.895 803.209 L323.138 796.511 L326.381 789.784 L329.624 783.034 L332.867 776.263 L336.11 769.478 L339.353 762.683 L342.596 755.884 L345.84 749.087 L349.083 742.299 L352.326 735.526 L355.569 728.778 L358.812 722.061 L362.055 715.385 L365.298 708.76 L368.541 702.196 L371.784 695.704 L375.027 689.297 L378.27 682.985 L381.513 676.784 L384.756 670.707 L387.999 664.769 L391.242 658.985 L394.485 653.368 L397.728 647.924 L400.971 642.655 L404.214 637.565 L407.457 632.658 L410.7 627.936 L413.943 623.405 L417.186 619.069 L420.429 614.931 L423.672 610.993 L426.915 607.257 L430.158 603.725 L433.401 600.397 L436.644 597.275 L439.887 594.36 L443.13 591.652 L446.373 589.152 L449.616 586.848 L452.859 584.725 L456.103 582.765 L459.346 580.951 L462.589 579.265 L465.832 577.693 L469.075 576.22 L472.318 574.832 L475.561 573.516 L478.804 572.263 L482.047 571.063 L485.29 569.907 L488.533 568.789 L491.776 567.702 L495.019 566.644 L498.262 565.61 L501.505 564.599 L504.748 563.61 L507.991 562.643 L511.234 561.7 L514.477 560.783 L517.72 559.895 L520.963 559.04 L524.206 558.223 L527.449 557.448 L530.692 556.719 L533.935 556.037 L537.178 555.397 L540.421 554.799 L543.664 554.242 L546.907 553.724 L550.15 553.245 L553.393 552.806 L556.636 552.409 L559.879 552.054 L563.122 551.745 L566.366 551.482 L569.609 551.271 L572.852 551.115 L576.095 551.018 L579.338 550.985 L582.581 551.021 L585.824 551.132 L589.067 551.324 L592.31 551.603 L595.553 551.975 L598.796 552.448 L602.039 553.029 L605.282 553.721 L608.525 554.518 L611.768 555.411 L615.011 556.388 L618.254 557.442 L621.497 558.562 L624.74 559.741 L627.983 560.97 L631.226 562.239 L634.469 563.543 L637.712 564.872 L640.955 566.22 L644.198 567.58 L647.441 568.946 L650.684 570.312 L653.927 571.671 L657.17 573.019 L660.413 574.351 L663.656 575.661 L666.899 576.947 L670.142 578.203 L673.385 579.427 L676.629 580.615 L679.872 581.765 L683.115 582.873 L686.358 583.938 L689.601 584.958 L692.844 585.931 L696.087 586.856 L699.33 587.733 L702.573 588.56 L705.816 589.337 L709.059 590.065 L712.302 590.744 L715.545 591.374 L718.788 591.958 L722.031 592.495 L725.274 592.988 L728.517 593.439 L731.76 593.85 L735.003 594.223 L738.246 594.563 L741.489 594.871 L744.732 595.152 L747.975 595.41 L751.218 595.648 L754.461 595.873 L757.704 596.087 L760.947 596.297 L764.19 596.508 L767.433 596.726 L770.676 596.957 L773.919 597.207 L777.162 597.482 L780.405 597.79 L783.648 598.137 L786.892 598.531 L790.135 598.977 L793.378 599.484 L796.621 600.059 L799.864 600.708 L803.107 601.437 L806.35 602.24 L809.593 603.112 L812.836 604.046 L816.079 605.034 L819.322 606.07 L822.565 607.147 L825.808 608.259 L829.051 609.399 L832.294 610.562 L835.537 611.74 L838.78 612.93 L842.023 614.125 L845.266 615.32 L848.509 616.51 L851.752 617.691 L854.995 618.859 L858.238 620.011 L861.481 621.142 L864.724 622.249 L867.967 623.33 L871.21 624.383 L874.453 625.405 L877.696 626.394 L880.939 627.351 L884.182 628.273 L887.425 629.159 L890.668 630.011 L893.911 630.828 L897.155 631.61 L900.398 632.359 L903.641 633.076 L906.884 633.763 L910.127 634.421 L913.37 635.053 L916.613 635.662 L919.856 636.252 L923.099 636.825 L926.342 637.386 L929.585 637.938 L932.828 638.488 L936.071 639.04 L939.314 639.599 L942.557 640.172 L945.8 640.764 L949.043 641.382 L952.286 642.034 L955.529 642.726 L958.772 643.465 L962.015 644.261 L965.258 645.121 L968.501 646.052 L971.744 647.065 L974.987 648.167 L978.23 649.367 L981.473 650.672 L984.716 652.076 L987.959 653.574 L991.202 655.159 L994.445 656.824 L997.688 658.563 L1000.93 660.37 L1004.17 662.239 L1007.42 664.164 L1010.66 666.141 L1013.9 668.165 L1017.15 670.23 L1020.39 672.334 L1023.63 674.472 L1026.88 676.642 L1030.12 678.841 L1033.36 681.067 L1036.6 683.318 L1039.85 685.593 L1043.09 687.891 L1046.33 690.212 L1049.58 692.556 L1052.82 694.925 L1056.06 697.319 L1059.31 699.74 L1062.55 702.19 L1065.79 704.673 L1069.04 707.19 L1072.28 709.745 L1075.52 712.343 L1078.76 714.986 L1082.01 717.68 L1085.25 720.429 L1088.49 723.238 L1091.74 726.11 L1094.98 729.042 L1098.22 732.03 L1101.47 735.071 L1104.71 738.161 L1107.95 741.296 L1111.19 744.473 L1114.44 747.69 L1117.68 750.943 L1120.92 754.232 L1124.17 757.555 L1127.41 760.91 L1130.65 764.298 L1133.9 767.717 L1137.14 771.169 L1140.38 774.654 L1143.62 778.174 L1146.87 781.73 L1150.11 785.326 L1153.35 788.963 L1156.6 792.646 L1159.84 796.378 L1163.08 800.163 L1166.33 804.007 L1169.57 807.914 L1172.81 811.889 L1176.06 815.94 L1179.3 820.071 L1182.54 824.289 L1185.78 828.601 L1189.03 833.012 L1192.27 837.513 L1195.51 842.095 L1198.76 846.749 L1202 851.466 L1205.24 856.237 L1208.49 861.054 L1211.73 865.908 L1214.97 870.792 L1218.21 875.698 L1221.46 880.621 L1224.7 885.553 L1227.94 890.489 L1231.19 895.424 L1234.43 900.354 L1237.67 905.274 L1240.92 910.18 L1244.16 915.071 L1247.4 919.943 L1250.64 924.795 L1253.89 929.626 L1257.13 934.435 L1260.37 939.223 L1263.62 943.99 L1266.86 948.739 L1270.1 953.47 L1273.35 958.187 L1276.59 962.893 L1279.83 967.592 L1283.08 972.289 L1286.32 976.988 L1289.56 981.696 L1292.8 986.419 L1296.05 991.164 L1299.29 995.937 L1302.53 1000.75 L1305.78 1005.6 L1309.02 1010.5 L1312.26 1015.46 L1315.51 1020.48 L1318.75 1025.57 L1321.99 1030.72 L1325.23 1035.95 L1328.48 1041.25 L1331.72 1046.64 L1334.96 1052.1 L1338.21 1057.63 L1341.45 1063.22 L1344.69 1068.87 L1347.94 1074.57 L1351.18 1080.31 L1354.42 1086.09 L1357.66 1091.91 L1360.91 1097.75 L1364.15 1103.62 L1367.39 1109.52 L1370.64 1115.43 L1373.88 1121.36 L1377.12 1127.31 L1380.37 1133.27 L1383.61 1139.25 L1386.85 1145.25 L1390.1 1151.25 L1393.34 1157.28 L1396.58 1163.32 L1399.82 1169.37 L1403.07 1175.44 L1406.31 1181.5 L1409.55 1187.54 L1412.8 1193.57 L1416.04 1199.56 L1419.28 1205.52 L1422.53 1211.43 L1425.77 1217.28 L1429.01 1223.07 L1432.25 1228.79 L1435.5 1234.44 L1438.74 1240 L1441.98 1245.47 L1445.23 1250.85 L1448.47 1256.14 L1451.71 1261.32 L1454.96 1266.4 L1458.2 1271.37 L1461.44 1276.23 L1464.68 1280.97 L1467.93 1285.6 L1471.17 1290.11 L1474.41 1294.5 L1477.66 1298.77 L1480.9 1302.92 L1484.14 1306.96 L1487.39 1310.87 L1490.63 1314.67 L1493.87 1318.35 L1497.11 1321.92 L1500.36 1325.37 L1503.6 1328.72 L1506.84 1331.96 L1510.09 1335.09 L1513.33 1338.13 L1516.57 1341.08 L1519.82 1343.93 L1523.06 1346.7 L1526.3 1349.38 L1529.55 1351.99 L1532.79 1354.53 L1536.03 1357 L1539.27 1359.39 L1542.52 1361.71 L1545.76 1363.96 L1549 1366.13 L1552.25 1368.22 L1555.49 1370.24 L1558.73 1372.18 L1561.98 1374.04 L1565.22 1375.82 L1568.46 1377.53 L1571.7 1379.16 L1574.95 1380.71 L1578.19 1382.17 L1581.43 1383.54 L1584.68 1384.82 L1587.92 1386.01 L1591.16 1387.1 L1594.41 1388.08 L1597.65 1388.97 L1600.89 1389.75 L1604.13 1390.42 L1607.38 1391 L1610.62 1391.47 L1613.86 1391.84 L1617.11 1392.11 L1620.35 1392.29 L1623.59 1392.37 L1626.84 1392.37 L1630.08 1392.29 L1633.32 1392.13 L1636.57 1391.9 L1639.81 1391.61 L1643.05 1391.27 L1646.29 1390.89 L1649.54 1390.47 L1652.78 1390.04 L1656.02 1389.59 L1659.27 1389.15 L1662.51 1388.72 L1665.75 1388.32 L1669 1387.97 L1672.24 1387.66 L1675.48 1387.41 L1678.72 1387.22 L1681.97 1387.1 L1685.21 1387.06 L1688.45 1387.1 L1691.7 1387.24 L1694.94 1387.48 L1698.18 1387.83 L1701.43 1388.29 L1704.67 1388.84 L1707.91 1389.49 L1711.15 1390.23 L1714.4 1391.06 L1717.64 1391.98 L1720.88 1392.97 L1724.13 1394.04 L1727.37 1395.19 L1730.61 1396.41 L1733.86 1397.69 L1737.1 1399.04 L1740.34 1400.46 L1743.59 1401.93 L1746.83 1403.45 L1750.07 1405.02 L1753.31 1406.63 L1756.56 1408.26 L1759.8 1409.91 L1763.04 1411.58 L1766.29 1413.25 L1769.53 1414.92 L1772.77 1416.59 L1776.02 1418.24 L1779.26 1419.88 L1782.5 1421.49 L1785.74 1423.08 L1788.99 1424.64 L1792.23 1426.16 L1795.47 1427.64 L1798.72 1429.08 L1801.96 1430.47 L1805.2 1431.81 L1808.45 1433.11 L1811.69 1434.35 L1814.93 1435.53 L1818.17 1436.65 L1821.42 1437.72 L1824.66 1438.72 L1827.9 1439.67 L1831.15 1440.54 L1834.39 1441.35 L1837.63 1442.1 L1840.88 1442.78 L1844.12 1443.39 L1847.36 1443.92 L1850.61 1444.39 L1853.85 1444.79 L1857.09 1445.12 L1860.33 1445.38 L1863.58 1445.56 L1866.82 1445.68 L1870.06 1445.72 L1873.31 1445.68 L1876.55 1445.58 L1879.79 1445.4 L1883.04 1445.14 L1886.28 1444.82 L1889.52 1444.42 L1892.76 1443.94 L1896.01 1443.4 L1899.25 1442.77 L1902.49 1442.08 L1905.74 1441.31 L1908.98 1440.47 L1912.22 1439.55 L1915.47 1438.56 L1918.71 1437.49 L1921.95 1436.36 L1925.19 1435.14 L1928.44 1433.86 L1931.68 1432.5 L1934.92 1431.06 L1938.17 1429.56 L1941.41 1427.98 L1944.65 1426.32 L1947.9 1424.59 L1951.14 1422.79 L1954.38 1420.92 L1957.63 1418.97 L1960.87 1416.95 L1964.11 1414.85 L1967.35 1412.68 L1970.6 1410.44 L1973.84 1408.12 L1977.08 1405.74 L1980.33 1403.27 L1983.57 1400.74 L1986.81 1398.13 L1990.06 1395.45 L1993.3 1392.69 L1996.54 1389.87 L1999.78 1386.97 L2003.03 1383.99 L2006.27 1380.95 L2009.51 1377.83 L2012.76 1374.63 L2016 1371.37 L2019.24 1368.04 L2022.49 1364.63 L2025.73 1361.15 L2028.97 1357.6 L2032.21 1353.98 L2035.46 1350.28 L2038.7 1346.52 L2041.94 1342.69 L2045.19 1338.79 L2048.43 1334.82 L2051.67 1330.78 L2054.92 1326.68 L2058.16 1322.51 L2061.4 1318.27 L2064.65 1313.97 L2067.89 1309.61 L2071.13 1305.18 L2074.37 1300.69 L2077.62 1296.15 L2080.86 1291.54 L2084.1 1286.88 L2087.35 1282.17 L2090.59 1277.41 L2093.83 1272.59 L2097.08 1267.73 L2100.32 1262.82 L2103.56 1257.88 L2106.8 1252.89 L2110.05 1247.87 L2113.29 1242.82 L2116.53 1237.74 L2119.78 1232.63 L2123.02 1227.51 L2126.26 1222.38 L2129.51 1217.23 L2132.75 1212.08 L2135.99 1206.93 L2139.23 1201.79 L2142.48 1196.67 L2145.72 1191.56 L2148.96 1186.48 L2152.21 1181.44 L2155.45 1176.44 L2158.69 1171.49 L2161.94 1166.59 L2165.18 1161.76 L2168.42 1157.01 L2171.67 1152.33 L2174.91 1147.75 L2178.15 1143.25 L2181.39 1138.85 L2184.64 1134.54 L2187.88 1130.33 L2191.12 1126.21 L2194.37 1122.19 L2197.61 1118.27 L2200.85 1114.45 L2204.1 1110.73 L2207.34 1107.12 L2210.58 1103.62 L2213.82 1100.23 L2217.07 1096.95 L2220.31 1093.8 L2223.55 1090.77 L2226.8 1087.86 L2230.04 1085.09 L2233.28 1082.47 L2236.53 1079.98 L2239.77 1077.65 L2243.01 1075.47 L2246.25 1073.46 L2249.5 1071.63 L2252.74 1069.97 L2255.98 1068.5 L2259.23 1067.22 L2262.47 1066.15 L2265.71 1065.29 L2268.96 1064.65 L2272.2 1064.23 L2275.44 1064.03 L2278.69 1064.03 L2281.93 1064.23 L2285.17 1064.61 L2288.41 1065.16 L2291.66 1065.88 L2291.66 534.161 L2288.41 539.22 L2285.17 544.239 L2281.93 549.212 L2278.69 554.131 L2275.44 558.988 L2272.2 563.776 L2268.96 568.487 L2265.71 573.115 L2262.47 577.657 L2259.23 582.114 L2255.98 586.485 L2252.74 590.769 L2249.5 594.968 L2246.25 599.079 L2243.01 603.103 L2239.77 607.038 L2236.53 610.884 L2233.28 614.639 L2230.04 618.302 L2226.8 621.87 L2223.55 625.341 L2220.31 628.712 L2217.07 631.98 L2213.82 635.142 L2210.58 638.193 L2207.34 641.129 L2204.1 643.946 L2200.85 646.637 L2197.61 649.197 L2194.37 651.622 L2191.12 653.903 L2187.88 656.035 L2184.64 658.011 L2181.39 659.824 L2178.15 661.468 L2174.91 662.934 L2171.67 664.215 L2168.42 665.309 L2165.18 666.222 L2161.94 666.968 L2158.69 667.557 L2155.45 668.001 L2152.21 668.312 L2148.96 668.5 L2145.72 668.576 L2142.48 668.551 L2139.23 668.434 L2135.99 668.235 L2132.75 667.964 L2129.51 667.63 L2126.26 667.241 L2123.02 666.805 L2119.78 666.329 L2116.53 665.822 L2113.29 665.291 L2110.05 664.742 L2106.8 664.181 L2103.56 663.614 L2100.32 663.048 L2097.08 662.487 L2093.83 661.937 L2090.59 661.403 L2087.35 660.888 L2084.1 660.399 L2080.86 659.937 L2077.62 659.509 L2074.37 659.116 L2071.13 658.763 L2067.89 658.453 L2064.65 658.188 L2061.4 657.973 L2058.16 657.809 L2054.92 657.7 L2051.67 657.647 L2048.43 657.653 L2045.19 657.72 L2041.94 657.851 L2038.7 658.047 L2035.46 658.309 L2032.21 658.641 L2028.97 659.043 L2025.73 659.517 L2022.49 660.065 L2019.24 660.687 L2016 661.385 L2012.76 662.161 L2009.51 663.015 L2006.27 663.949 L2003.03 664.963 L1999.78 666.059 L1996.54 667.237 L1993.3 668.498 L1990.06 669.843 L1986.81 671.273 L1983.57 672.788 L1980.33 674.389 L1977.08 676.076 L1973.84 677.85 L1970.6 679.712 L1967.35 681.661 L1964.11 683.699 L1960.87 685.825 L1957.63 688.039 L1954.38 690.343 L1951.14 692.736 L1947.9 695.218 L1944.65 697.789 L1941.41 700.45 L1938.17 703.201 L1934.92 706.04 L1931.68 708.97 L1928.44 711.988 L1925.19 715.095 L1921.95 718.291 L1918.71 721.575 L1915.47 724.948 L1912.22 728.408 L1908.98 731.956 L1905.74 735.59 L1902.49 739.311 L1899.25 743.117 L1896.01 747.008 L1892.76 750.984 L1889.52 755.042 L1886.28 759.184 L1883.04 763.406 L1879.79 767.71 L1876.55 772.092 L1873.31 776.553 L1870.06 781.09 L1866.82 785.703 L1863.58 790.389 L1860.33 795.148 L1857.09 799.977 L1853.85 804.875 L1850.61 809.839 L1847.36 814.868 L1844.12 819.959 L1840.88 825.109 L1837.63 830.317 L1834.39 835.579 L1831.15 840.893 L1827.9 846.255 L1824.66 851.661 L1821.42 857.11 L1818.17 862.595 L1814.93 868.115 L1811.69 873.663 L1808.45 879.237 L1805.2 884.83 L1801.96 890.438 L1798.72 896.055 L1795.47 901.676 L1792.23 907.294 L1788.99 912.903 L1785.74 918.495 L1782.5 924.064 L1779.26 929.602 L1776.02 935.1 L1772.77 940.55 L1769.53 945.943 L1766.29 951.268 L1763.04 956.516 L1759.8 961.677 L1756.56 966.738 L1753.31 971.689 L1750.07 976.517 L1746.83 981.21 L1743.59 985.756 L1740.34 990.14 L1737.1 994.351 L1733.86 998.39 L1730.61 1002.26 L1727.37 1005.96 L1724.13 1009.48 L1720.88 1012.84 L1717.64 1016.04 L1714.4 1019.06 L1711.15 1021.91 L1707.91 1024.6 L1704.67 1027.11 L1701.43 1029.46 L1698.18 1031.63 L1694.94 1033.62 L1691.7 1035.44 L1688.45 1037.08 L1685.21 1038.56 L1681.97 1039.87 L1678.72 1041.01 L1675.48 1042 L1672.24 1042.83 L1669 1043.5 L1665.75 1044.02 L1662.51 1044.39 L1659.27 1044.62 L1656.02 1044.73 L1652.78 1044.71 L1649.54 1044.59 L1646.29 1044.37 L1643.05 1044.06 L1639.81 1043.66 L1636.57 1043.19 L1633.32 1042.65 L1630.08 1042.05 L1626.84 1041.38 L1623.59 1040.65 L1620.35 1039.87 L1617.11 1039.02 L1613.86 1038.12 L1610.62 1037.17 L1607.38 1036.15 L1604.13 1035.07 L1600.89 1033.92 L1597.65 1032.69 L1594.41 1031.4 L1591.16 1030.01 L1587.92 1028.54 L1584.68 1026.96 L1581.43 1025.28 L1578.19 1023.48 L1574.95 1021.55 L1571.7 1019.49 L1568.46 1017.28 L1565.22 1014.91 L1561.98 1012.39 L1558.73 1009.71 L1555.49 1006.88 L1552.25 1003.9 L1549 1000.78 L1545.76 997.514 L1542.52 994.102 L1539.27 990.548 L1536.03 986.851 L1532.79 983.012 L1529.55 979.03 L1526.3 974.908 L1523.06 970.656 L1519.82 966.286 L1516.57 961.812 L1513.33 957.244 L1510.09 952.594 L1506.84 947.874 L1503.6 943.093 L1500.36 938.263 L1497.11 933.391 L1493.87 928.488 L1490.63 923.561 L1487.39 918.619 L1484.14 913.669 L1480.9 908.716 L1477.66 903.768 L1474.41 898.831 L1471.17 893.908 L1467.93 889.004 L1464.68 884.124 L1461.44 879.27 L1458.2 874.446 L1454.96 869.654 L1451.71 864.894 L1448.47 860.169 L1445.23 855.479 L1441.98 850.824 L1438.74 846.203 L1435.5 841.616 L1432.25 837.061 L1429.01 832.536 L1425.77 828.038 L1422.53 823.563 L1419.28 819.11 L1416.04 814.672 L1412.8 810.246 L1409.55 805.826 L1406.31 801.407 L1403.07 796.983 L1399.82 792.547 L1396.58 788.093 L1393.34 783.616 L1390.1 779.114 L1386.85 774.589 L1383.61 770.041 L1380.37 765.47 L1377.12 760.876 L1373.88 756.257 L1370.64 751.613 L1367.39 746.941 L1364.15 742.24 L1360.91 737.505 L1357.66 732.734 L1354.42 727.922 L1351.18 723.064 L1347.94 718.155 L1344.69 713.19 L1341.45 708.162 L1338.21 703.064 L1334.96 697.89 L1331.72 692.631 L1328.48 687.28 L1325.23 681.831 L1321.99 676.282 L1318.75 670.631 L1315.51 664.877 L1312.26 659.02 L1309.02 653.058 L1305.78 646.991 L1302.53 640.818 L1299.29 634.551 L1296.05 628.204 L1292.8 621.789 L1289.56 615.32 L1286.32 608.808 L1283.08 602.266 L1279.83 595.705 L1276.59 589.135 L1273.35 582.567 L1270.1 576.009 L1266.86 569.472 L1263.62 562.964 L1260.37 556.491 L1257.13 550.061 L1253.89 543.68 L1250.64 537.355 L1247.4 531.09 L1244.16 524.889 L1240.92 518.757 L1237.67 512.697 L1234.43 506.712 L1231.19 500.805 L1227.94 494.976 L1224.7 489.228 L1221.46 483.561 L1218.21 477.976 L1214.97 472.472 L1211.73 467.048 L1208.49 461.705 L1205.24 456.44 L1202 451.251 L1198.76 446.138 L1195.51 441.097 L1192.27 436.127 L1189.03 431.224 L1185.78 426.385 L1182.54 421.61 L1179.3 416.898 L1176.06 412.251 L1172.81 407.669 L1169.57 403.155 L1166.33 398.709 L1163.08 394.331 L1159.84 390.022 L1156.6 385.782 L1153.35 381.61 L1150.11 377.507 L1146.87 373.471 L1143.62 369.501 L1140.38 365.594 L1137.14 361.75 L1133.9 357.964 L1130.65 354.235 L1127.41 350.558 L1124.17 346.931 L1120.92 343.348 L1117.68 339.806 L1114.44 336.299 L1111.19 332.821 L1107.95 329.368 L1104.71 325.933 L1101.47 322.511 L1098.22 319.093 L1094.98 315.675 L1091.74 312.248 L1088.49 308.806 L1085.25 305.345 L1082.01 301.867 L1078.76 298.377 L1075.52 294.882 L1072.28 291.385 L1069.04 287.892 L1065.79 284.408 L1062.55 280.937 L1059.31 277.483 L1056.06 274.049 L1052.82 270.639 L1049.58 267.257 L1046.33 263.904 L1043.09 260.583 L1039.85 257.295 L1036.6 254.043 L1033.36 250.827 L1030.12 247.647 L1026.88 244.504 L1023.63 241.398 L1020.39 238.328 L1017.15 235.292 L1013.9 232.291 L1010.66 229.322 L1007.42 226.383 L1004.17 223.472 L1000.93 220.587 L997.688 217.724 L994.445 214.881 L991.202 212.054 L987.959 209.241 L984.716 206.437 L981.473 203.64 L978.23 200.847 L974.987 198.055 L971.744 195.267 L968.501 192.489 L965.258 189.726 L962.015 186.981 L958.772 184.26 L955.529 181.567 L952.286 178.907 L949.043 176.284 L945.8 173.702 L942.557 171.165 L939.314 168.677 L936.071 166.24 L932.828 163.859 L929.585 161.535 L926.342 159.271 L923.099 157.07 L919.856 154.934 L916.613 152.864 L913.37 150.862 L910.127 148.928 L906.884 147.065 L903.641 145.271 L900.398 143.548 L897.155 141.895 L893.911 140.312 L890.668 138.799 L887.425 137.354 L884.182 135.976 L880.939 134.665 L877.696 133.417 L874.453 132.232 L871.21 131.106 L867.967 130.037 L864.724 129.023 L861.481 128.06 L858.238 127.144 L854.995 126.272 L851.752 125.441 L848.509 124.645 L845.266 123.88 L842.023 123.141 L838.78 122.424 L835.537 121.723 L832.294 121.033 L829.051 120.349 L825.808 119.663 L822.565 118.971 L819.322 118.266 L816.079 117.543 L812.836 116.794 L809.593 116.014 L806.35 115.197 L803.107 114.336 L799.864 113.426 L796.621 112.463 L793.378 111.45 L790.135 110.395 L786.892 109.303 L783.648 108.182 L780.405 107.039 L777.162 105.879 L773.919 104.71 L770.676 103.538 L767.433 102.37 L764.19 101.211 L760.947 100.068 L757.704 98.9477 L754.461 97.8546 L751.218 96.7948 L747.975 95.7735 L744.732 94.7959 L741.489 93.8669 L738.246 92.9912 L735.003 92.1731 L731.76 91.417 L728.517 90.7268 L725.274 90.1061 L722.031 89.5586 L718.788 89.0875 L715.545 88.6958 L712.302 88.3864 L709.059 88.1617 L705.816 88.0243 L702.573 87.9763 L699.33 88.0195 L696.087 88.1557 L692.844 88.3863 L689.601 88.7127 L686.358 89.1358 L683.115 89.6565 L679.872 90.2754 L676.629 90.9928 L673.385 91.809 L670.142 92.7239 L666.899 93.7371 L663.656 94.8482 L660.413 96.0563 L657.17 97.3606 L653.927 98.7597 L650.684 100.252 L647.441 101.837 L644.198 103.511 L640.955 105.272 L637.712 107.119 L634.469 109.048 L631.226 111.057 L627.983 113.143 L624.74 115.302 L621.497 117.53 L618.254 119.824 L615.011 122.181 L611.768 124.596 L608.525 127.065 L605.282 129.584 L602.039 132.148 L598.796 134.756 L595.553 137.406 L592.31 140.1 L589.067 142.838 L585.824 145.621 L582.581 148.45 L579.338 151.326 L576.095 154.248 L572.852 157.217 L569.609 160.233 L566.366 163.295 L563.122 166.401 L559.879 169.551 L556.636 172.744 L553.393 175.975 L550.15 179.244 L546.907 182.547 L543.664 185.88 L540.421 189.239 L537.178 192.621 L533.935 196.019 L530.692 199.429 L527.449 202.844 L524.206 206.261 L520.963 209.68 L517.72 213.104 L514.477 216.536 L511.234 219.976 L507.991 223.426 L504.748 226.885 L501.505 230.353 L498.262 233.828 L495.019 237.307 L491.776 240.786 L488.533 244.262 L485.29 247.727 L482.047 251.174 L478.804 254.596 L475.561 257.981 L472.318 261.32 L469.075 264.601 L465.832 267.808 L462.589 270.929 L459.346 273.947 L456.103 276.846 L452.859 279.607 L449.616 282.213 L446.373 284.644 L443.13 286.884 L439.887 288.922 L436.644 290.75 L433.401 292.365 L430.158 293.761 L426.915 294.934 L423.672 295.88 L420.429 296.595 L417.186 297.074 L413.943 297.316 L410.7 297.329 L407.457 297.124 L404.214 296.711 L400.971 296.101 L397.728 295.304 L394.485 294.329 L391.242 293.187 L387.999 291.887 L384.756 290.442 L381.513 288.867 L378.27 287.174 L375.027 285.376 L371.784 283.484 L368.541 281.511 L365.298 279.466 L362.055 277.359 L358.812 275.199 L355.569 272.994 L352.326 270.753 L349.083 268.483 L345.84 266.19 L342.596 263.88 L339.353 261.558 L336.11 259.231 L332.867 256.903 L329.624 254.577 L326.381 252.258 L323.138 249.95 L319.895 247.655 L316.652 245.377 L313.409 243.118 L310.166 240.88 L306.923 238.667 L303.68 236.479 L300.437 234.318 L297.194 232.186 L293.951 230.085 L290.708 228.016 L287.465 225.979 L284.222 223.975 L280.979 222.006 L277.736 220.073 L274.493 218.175 L271.25 216.314 L268.007 214.489 L264.764 212.701 L261.521 210.951 L258.278 209.238 L255.035 207.563  Z" fill="#3da44d" fill-rule="evenodd" fill-opacity="0.1"/>
<polyline clip-path="url(#clip121)" style="stroke:#3da44d; stroke-linecap:round; stroke-linejoin:round; stroke-width:8; stroke-opacity:1; fill:none" points="255.035,567.425 258.278,565.434 261.521,563.431 264.764,561.415 268.007,559.387 271.25,557.346 274.493,555.294 277.736,553.23 280.979,551.154 284.222,549.067 287.465,546.968 290.708,544.859 293.951,542.739 297.194,540.609 300.437,538.468 303.68,536.318 306.923,534.159 310.166,531.99 313.409,529.812 316.652,527.626 319.895,525.432 323.138,523.23 326.381,521.021 329.624,518.805 332.867,516.583 336.11,514.355 339.353,512.121 342.596,509.882 345.84,507.638 349.083,505.391 352.326,503.14 355.569,500.886 358.812,498.63 362.055,496.372 365.298,494.113 368.541,491.853 371.784,489.594 375.027,487.336 378.27,485.08 381.513,482.826 384.756,480.575 387.999,478.328 391.242,476.086 394.485,473.849 397.728,471.614 400.971,469.378 404.214,467.138 407.457,464.891 410.7,462.633 413.943,460.361 417.186,458.071 420.429,455.763 423.672,453.437 426.915,451.096 430.158,448.743 433.401,446.381 436.644,444.012 439.887,441.641 443.13,439.268 446.373,436.898 449.616,434.53 452.859,432.166 456.103,429.806 459.346,427.449 462.589,425.097 465.832,422.751 469.075,420.41 472.318,418.076 475.561,415.749 478.804,413.429 482.047,411.118 485.29,408.817 488.533,406.525 491.776,404.244 495.019,401.975 498.262,399.719 501.505,397.476 504.748,395.247 507.991,393.034 511.234,390.838 514.477,388.659 517.72,386.5 520.963,384.36 524.206,382.242 527.449,380.146 530.692,378.074 533.935,376.028 537.178,374.009 540.421,372.019 543.664,370.061 546.907,368.135 550.15,366.245 553.393,364.391 556.636,362.576 559.879,360.803 563.122,359.073 566.366,357.389 569.609,355.752 572.852,354.166 576.095,352.633 579.338,351.155 582.581,349.736 585.824,348.376 589.067,347.081 592.31,345.851 595.553,344.691 598.796,343.602 602.039,342.589 605.282,341.652 608.525,340.792 611.768,340.003 615.011,339.285 618.254,338.633 621.497,338.046 624.74,337.521 627.983,337.056 631.226,336.648 634.469,336.295 637.712,335.995 640.955,335.746 644.198,335.545 647.441,335.391 650.684,335.282 653.927,335.215 657.17,335.19 660.413,335.204 663.656,335.255 666.899,335.342 670.142,335.464 673.385,335.618 676.629,335.804 679.872,336.02 683.115,336.265 686.358,336.537 689.601,336.835 692.844,337.159 696.087,337.506 699.33,337.876 702.573,338.268 705.816,338.681 709.059,339.113 712.302,339.565 715.545,340.035 718.788,340.523 722.031,341.027 725.274,341.547 728.517,342.083 731.76,342.633 735.003,343.198 738.246,343.777 741.489,344.369 744.732,344.974 747.975,345.592 751.218,346.222 754.461,346.864 757.704,347.517 760.947,348.183 764.19,348.86 767.433,349.548 770.676,350.248 773.919,350.958 777.162,351.681 780.405,352.415 783.648,353.16 786.892,353.917 790.135,354.686 793.378,355.467 796.621,356.261 799.864,357.067 803.107,357.887 806.35,358.719 809.593,359.563 812.836,360.42 816.079,361.288 819.322,362.168 822.565,363.059 825.808,363.961 829.051,364.874 832.294,365.797 835.537,366.732 838.78,367.677 842.023,368.633 845.266,369.6 848.509,370.577 851.752,371.566 854.995,372.566 858.238,373.577 861.481,374.601 864.724,375.636 867.967,376.684 871.21,377.744 874.453,378.818 877.696,379.906 880.939,381.008 884.182,382.124 887.425,383.257 890.668,384.405 893.911,385.57 897.155,386.753 900.398,387.954 903.641,389.174 906.884,390.414 910.127,391.675 913.37,392.958 916.613,394.263 919.856,395.593 923.099,396.948 926.342,398.328 929.585,399.737 932.828,401.173 936.071,402.64 939.314,404.138 942.557,405.669 945.8,407.233 949.043,408.833 952.286,410.471 955.529,412.146 958.772,413.863 962.015,415.621 965.258,417.423 968.501,419.271 971.744,421.166 974.987,423.111 978.23,425.107 981.473,427.156 984.716,429.257 987.959,431.407 991.202,433.607 994.445,435.852 997.688,438.144 1000.93,440.478 1004.17,442.856 1007.42,445.274 1010.66,447.732 1013.9,450.228 1017.15,452.761 1020.39,455.331 1023.63,457.935 1026.88,460.573 1030.12,463.244 1033.36,465.947 1036.6,468.68 1039.85,471.444 1043.09,474.237 1046.33,477.058 1049.58,479.907 1052.82,482.782 1056.06,485.684 1059.31,488.611 1062.55,491.564 1065.79,494.54 1069.04,497.541 1072.28,500.565 1075.52,503.612 1078.76,506.682 1082.01,509.773 1085.25,512.887 1088.49,516.022 1091.74,519.179 1094.98,522.358 1098.22,525.562 1101.47,528.791 1104.71,532.047 1107.95,535.332 1111.19,538.647 1114.44,541.994 1117.68,545.375 1120.92,548.79 1124.17,552.243 1127.41,555.734 1130.65,559.266 1133.9,562.841 1137.14,566.459 1140.38,570.124 1143.62,573.837 1146.87,577.601 1150.11,581.417 1153.35,585.287 1156.6,589.214 1159.84,593.2 1163.08,597.247 1166.33,601.358 1169.57,605.534 1172.81,609.779 1176.06,614.095 1179.3,618.484 1182.54,622.95 1185.78,627.493 1189.03,632.118 1192.27,636.82 1195.51,641.596 1198.76,646.444 1202,651.359 1205.24,656.339 1208.49,661.379 1211.73,666.478 1214.97,671.632 1218.21,676.837 1221.46,682.091 1224.7,687.391 1227.94,692.733 1231.19,698.115 1234.43,703.533 1237.67,708.985 1240.92,714.469 1244.16,719.98 1247.4,725.516 1250.64,731.075 1253.89,736.653 1257.13,742.248 1260.37,747.857 1263.62,753.477 1266.86,759.106 1270.1,764.74 1273.35,770.377 1276.59,776.014 1279.83,781.648 1283.08,787.277 1286.32,792.898 1289.56,798.508 1292.8,804.104 1296.05,809.684 1299.29,815.244 1302.53,820.782 1305.78,826.295 1309.02,831.781 1312.26,837.241 1315.51,842.68 1318.75,848.099 1321.99,853.501 1325.23,858.889 1328.48,864.267 1331.72,869.635 1334.96,874.995 1338.21,880.348 1341.45,885.693 1344.69,891.031 1347.94,896.363 1351.18,901.688 1354.42,907.007 1357.66,912.321 1360.91,917.628 1364.15,922.931 1367.39,928.229 1370.64,933.521 1373.88,938.809 1377.12,944.093 1380.37,949.372 1383.61,954.647 1386.85,959.917 1390.1,965.184 1393.34,970.447 1396.58,975.706 1399.82,980.96 1403.07,986.209 1406.31,991.451 1409.55,996.685 1412.8,1001.91 1416.04,1007.12 1419.28,1012.31 1422.53,1017.5 1425.77,1022.66 1429.01,1027.8 1432.25,1032.93 1435.5,1038.03 1438.74,1043.1 1441.98,1048.15 1445.23,1053.17 1448.47,1058.15 1451.71,1063.11 1454.96,1068.03 1458.2,1072.91 1461.44,1077.75 1464.68,1082.55 1467.93,1087.3 1471.17,1092.01 1474.41,1096.67 1477.66,1101.27 1480.9,1105.82 1484.14,1110.31 1487.39,1114.75 1490.63,1119.12 1493.87,1123.42 1497.11,1127.65 1500.36,1131.82 1503.6,1135.91 1506.84,1139.92 1510.09,1143.84 1513.33,1147.69 1516.57,1151.44 1519.82,1155.11 1523.06,1158.68 1526.3,1162.14 1529.55,1165.51 1532.79,1168.77 1536.03,1171.92 1539.27,1174.97 1542.52,1177.91 1545.76,1180.74 1549,1183.45 1552.25,1186.06 1555.49,1188.56 1558.73,1190.94 1561.98,1193.21 1565.22,1195.37 1568.46,1197.4 1571.7,1199.32 1574.95,1201.13 1578.19,1202.82 1581.43,1204.41 1584.68,1205.89 1587.92,1207.27 1591.16,1208.55 1594.41,1209.74 1597.65,1210.83 1600.89,1211.83 1604.13,1212.75 1607.38,1213.57 1610.62,1214.32 1613.86,1214.98 1617.11,1215.57 1620.35,1216.08 1623.59,1216.51 1626.84,1216.87 1630.08,1217.17 1633.32,1217.39 1636.57,1217.55 1639.81,1217.64 1643.05,1217.66 1646.29,1217.63 1649.54,1217.53 1652.78,1217.37 1656.02,1217.16 1659.27,1216.89 1662.51,1216.56 1665.75,1216.17 1669,1215.73 1672.24,1215.24 1675.48,1214.7 1678.72,1214.11 1681.97,1213.48 1685.21,1212.81 1688.45,1212.09 1691.7,1211.34 1694.94,1210.55 1698.18,1209.73 1701.43,1208.87 1704.67,1207.98 1707.91,1207.04 1711.15,1206.07 1714.4,1205.06 1717.64,1204.01 1720.88,1202.91 1724.13,1201.76 1727.37,1200.57 1730.61,1199.33 1733.86,1198.04 1737.1,1196.7 1740.34,1195.3 1743.59,1193.84 1746.83,1192.33 1750.07,1190.77 1753.31,1189.16 1756.56,1187.5 1759.8,1185.79 1763.04,1184.05 1766.29,1182.26 1769.53,1180.43 1772.77,1178.57 1776.02,1176.67 1779.26,1174.74 1782.5,1172.78 1785.74,1170.79 1788.99,1168.77 1792.23,1166.73 1795.47,1164.66 1798.72,1162.57 1801.96,1160.45 1805.2,1158.32 1808.45,1156.17 1811.69,1154 1814.93,1151.82 1818.17,1149.62 1821.42,1147.41 1824.66,1145.19 1827.9,1142.96 1831.15,1140.72 1834.39,1138.47 1837.63,1136.21 1840.88,1133.94 1844.12,1131.67 1847.36,1129.4 1850.61,1127.12 1853.85,1124.83 1857.09,1122.55 1860.33,1120.26 1863.58,1117.98 1866.82,1115.69 1870.06,1113.4 1873.31,1111.12 1876.55,1108.83 1879.79,1106.55 1883.04,1104.28 1886.28,1102 1889.52,1099.73 1892.76,1097.46 1896.01,1095.2 1899.25,1092.95 1902.49,1090.69 1905.74,1088.45 1908.98,1086.21 1912.22,1083.98 1915.47,1081.75 1918.71,1079.53 1921.95,1077.32 1925.19,1075.12 1928.44,1072.92 1931.68,1070.73 1934.92,1068.55 1938.17,1066.38 1941.41,1064.21 1944.65,1062.06 1947.9,1059.91 1951.14,1057.76 1954.38,1055.63 1957.63,1053.5 1960.87,1051.39 1964.11,1049.27 1967.35,1047.17 1970.6,1045.08 1973.84,1042.99 1977.08,1040.91 1980.33,1038.83 1983.57,1036.76 1986.81,1034.7 1990.06,1032.65 1993.3,1030.6 1996.54,1028.55 1999.78,1026.51 2003.03,1024.48 2006.27,1022.45 2009.51,1020.42 2012.76,1018.4 2016,1016.38 2019.24,1014.36 2022.49,1012.35 2025.73,1010.33 2028.97,1008.32 2032.21,1006.31 2035.46,1004.3 2038.7,1002.28 2041.94,1000.27 2045.19,998.255 2048.43,996.236 2051.67,994.215 2054.92,992.189 2058.16,990.158 2061.4,988.122 2064.65,986.079 2067.89,984.029 2071.13,981.971 2074.37,979.905 2077.62,977.828 2080.86,975.741 2084.1,973.642 2087.35,971.53 2090.59,969.405 2093.83,967.265 2097.08,965.109 2100.32,962.936 2103.56,960.746 2106.8,958.536 2110.05,956.306 2113.29,954.055 2116.53,951.78 2119.78,949.482 2123.02,947.159 2126.26,944.808 2129.51,942.43 2132.75,940.022 2135.99,937.584 2139.23,935.113 2142.48,932.608 2145.72,930.068 2148.96,927.491 2152.21,924.875 2155.45,922.219 2158.69,919.521 2161.94,916.78 2165.18,913.993 2168.42,911.158 2171.67,908.275 2174.91,905.341 2178.15,902.361 2181.39,899.338 2184.64,896.276 2187.88,893.181 2191.12,890.056 2194.37,886.905 2197.61,883.732 2200.85,880.541 2204.1,877.338 2207.34,874.124 2210.58,870.905 2213.82,867.684 2217.07,864.466 2220.31,861.255 2223.55,858.054 2226.8,854.867 2230.04,851.698 2233.28,848.552 2236.53,845.432 2239.77,842.343 2243.01,839.288 2246.25,836.271 2249.5,833.297 2252.74,830.369 2255.98,827.491 2259.23,824.668 2262.47,821.904 2265.71,819.202 2268.96,816.567 2272.2,814.003 2275.44,811.508 2278.69,809.081 2281.93,806.72 2285.17,804.424 2288.41,802.191 2291.66,800.019 "/>
<path clip-path="url(#clip120)" d="M1953.46 302.578 L2280.8 302.578 L2280.8 95.2176 L1953.46 95.2176  Z" fill="#ffffff" fill-rule="evenodd" fill-opacity="1"/>
<polyline clip-path="url(#clip120)" style="stroke:#000000; stroke-linecap:round; stroke-linejoin:round; stroke-width:4; stroke-opacity:1; fill:none" points="1953.46,302.578 2280.8,302.578 2280.8,95.2176 1953.46,95.2176 1953.46,302.578 "/>
<polyline clip-path="url(#clip120)" style="stroke:#009af9; stroke-linecap:round; stroke-linejoin:round; stroke-width:4; stroke-opacity:1; fill:none" points="1977.44,147.058 2121.36,147.058 "/>
<path clip-path="url(#clip120)" d="M2152.76 131.051 L2152.76 138.412 L2161.53 138.412 L2161.53 141.722 L2152.76 141.722 L2152.76 155.796 Q2152.76 158.967 2153.61 159.87 Q2154.49 160.773 2157.16 160.773 L2161.53 160.773 L2161.53 164.338 L2157.16 164.338 Q2152.23 164.338 2150.35 162.509 Q2148.48 160.657 2148.48 155.796 L2148.48 141.722 L2145.35 141.722 L2145.35 138.412 L2148.48 138.412 L2148.48 131.051 L2152.76 131.051 Z" fill="#000000" fill-rule="nonzero" fill-opacity="1" /><path clip-path="url(#clip120)" d="M2182.16 142.393 Q2181.44 141.977 2180.58 141.791 Q2179.75 141.583 2178.73 141.583 Q2175.12 141.583 2173.17 143.944 Q2171.25 146.282 2171.25 150.68 L2171.25 164.338 L2166.97 164.338 L2166.97 138.412 L2171.25 138.412 L2171.25 142.44 Q2172.6 140.078 2174.75 138.944 Q2176.9 137.787 2179.98 137.787 Q2180.42 137.787 2180.95 137.856 Q2181.48 137.903 2182.13 138.018 L2182.16 142.393 Z" fill="#000000" fill-rule="nonzero" fill-opacity="1" /><path clip-path="url(#clip120)" d="M2186.18 154.106 L2186.18 138.412 L2190.44 138.412 L2190.44 153.944 Q2190.44 157.625 2191.88 159.476 Q2193.31 161.305 2196.18 161.305 Q2199.63 161.305 2201.62 159.106 Q2203.64 156.907 2203.64 153.111 L2203.64 138.412 L2207.9 138.412 L2207.9 164.338 L2203.64 164.338 L2203.64 160.356 Q2202.09 162.717 2200.03 163.875 Q2197.99 165.009 2195.28 165.009 Q2190.81 165.009 2188.5 162.231 Q2186.18 159.453 2186.18 154.106 M2196.9 137.787 L2196.9 137.787 Z" fill="#000000" fill-rule="nonzero" fill-opacity="1" /><path clip-path="url(#clip120)" d="M2220.88 131.051 L2220.88 138.412 L2229.66 138.412 L2229.66 141.722 L2220.88 141.722 L2220.88 155.796 Q2220.88 158.967 2221.74 159.87 Q2222.62 160.773 2225.28 160.773 L2229.66 160.773 L2229.66 164.338 L2225.28 164.338 Q2220.35 164.338 2218.48 162.509 Q2216.6 160.657 2216.6 155.796 L2216.6 141.722 L2213.48 141.722 L2213.48 138.412 L2216.6 138.412 L2216.6 131.051 L2220.88 131.051 Z" fill="#000000" fill-rule="nonzero" fill-opacity="1" /><path clip-path="url(#clip120)" d="M2256.81 148.689 L2256.81 164.338 L2252.55 164.338 L2252.55 148.828 Q2252.55 145.148 2251.11 143.319 Q2249.68 141.49 2246.81 141.49 Q2243.36 141.49 2241.37 143.69 Q2239.38 145.889 2239.38 149.685 L2239.38 164.338 L2235.1 164.338 L2235.1 128.319 L2239.38 128.319 L2239.38 142.44 Q2240.91 140.102 2242.97 138.944 Q2245.05 137.787 2247.76 137.787 Q2252.23 137.787 2254.52 140.565 Q2256.81 143.319 2256.81 148.689 Z" fill="#000000" fill-rule="nonzero" fill-opacity="1" /><circle clip-path="url(#clip120)" cx="2049.4" cy="198.898" r="20.48" fill="#e26f46" fill-rule="evenodd" fill-opacity="1" stroke="#000000" stroke-opacity="1" stroke-width="4.55111"/>
<path clip-path="url(#clip120)" d="M2164.26 194.187 L2164.26 180.159 L2168.52 180.159 L2168.52 216.178 L2164.26 216.178 L2164.26 212.289 Q2162.92 214.603 2160.86 215.738 Q2158.82 216.849 2155.95 216.849 Q2151.25 216.849 2148.29 213.099 Q2145.35 209.349 2145.35 203.238 Q2145.35 197.127 2148.29 193.377 Q2151.25 189.627 2155.95 189.627 Q2158.82 189.627 2160.86 190.761 Q2162.92 191.872 2164.26 194.187 M2149.75 203.238 Q2149.75 207.937 2151.67 210.622 Q2153.61 213.284 2156.99 213.284 Q2160.37 213.284 2162.32 210.622 Q2164.26 207.937 2164.26 203.238 Q2164.26 198.539 2162.32 195.877 Q2160.37 193.192 2156.99 193.192 Q2153.61 193.192 2151.67 195.877 Q2149.75 198.539 2149.75 203.238 Z" fill="#000000" fill-rule="nonzero" fill-opacity="1" /><path clip-path="url(#clip120)" d="M2189.08 203.145 Q2183.92 203.145 2181.92 204.326 Q2179.93 205.506 2179.93 208.354 Q2179.93 210.622 2181.42 211.965 Q2182.92 213.284 2185.49 213.284 Q2189.03 213.284 2191.16 210.784 Q2193.31 208.261 2193.31 204.094 L2193.31 203.145 L2189.08 203.145 M2197.57 201.386 L2197.57 216.178 L2193.31 216.178 L2193.31 212.242 Q2191.85 214.603 2189.68 215.738 Q2187.5 216.849 2184.36 216.849 Q2180.37 216.849 2178.01 214.627 Q2175.67 212.381 2175.67 208.631 Q2175.67 204.256 2178.59 202.034 Q2181.53 199.812 2187.34 199.812 L2193.31 199.812 L2193.31 199.395 Q2193.31 196.455 2191.37 194.858 Q2189.45 193.238 2185.95 193.238 Q2183.73 193.238 2181.62 193.77 Q2179.52 194.303 2177.57 195.367 L2177.57 191.432 Q2179.91 190.53 2182.11 190.09 Q2184.31 189.627 2186.39 189.627 Q2192.02 189.627 2194.79 192.543 Q2197.57 195.46 2197.57 201.386 Z" fill="#000000" fill-rule="nonzero" fill-opacity="1" /><path clip-path="url(#clip120)" d="M2210.56 182.891 L2210.56 190.252 L2219.33 190.252 L2219.33 193.562 L2210.56 193.562 L2210.56 207.636 Q2210.56 210.807 2211.42 211.71 Q2212.29 212.613 2214.96 212.613 L2219.33 212.613 L2219.33 216.178 L2214.96 216.178 Q2210.03 216.178 2208.15 214.349 Q2206.28 212.497 2206.28 207.636 L2206.28 193.562 L2203.15 193.562 L2203.15 190.252 L2206.28 190.252 L2206.28 182.891 L2210.56 182.891 Z" fill="#000000" fill-rule="nonzero" fill-opacity="1" /><path clip-path="url(#clip120)" d="M2236.72 203.145 Q2231.55 203.145 2229.56 204.326 Q2227.57 205.506 2227.57 208.354 Q2227.57 210.622 2229.05 211.965 Q2230.56 213.284 2233.13 213.284 Q2236.67 213.284 2238.8 210.784 Q2240.95 208.261 2240.95 204.094 L2240.95 203.145 L2236.72 203.145 M2245.21 201.386 L2245.21 216.178 L2240.95 216.178 L2240.95 212.242 Q2239.49 214.603 2237.32 215.738 Q2235.14 216.849 2231.99 216.849 Q2228.01 216.849 2225.65 214.627 Q2223.31 212.381 2223.31 208.631 Q2223.31 204.256 2226.23 202.034 Q2229.17 199.812 2234.98 199.812 L2240.95 199.812 L2240.95 199.395 Q2240.95 196.455 2239.01 194.858 Q2237.09 193.238 2233.59 193.238 Q2231.37 193.238 2229.26 193.77 Q2227.16 194.303 2225.21 195.367 L2225.21 191.432 Q2227.55 190.53 2229.75 190.09 Q2231.95 189.627 2234.03 189.627 Q2239.66 189.627 2242.43 192.543 Q2245.21 195.46 2245.21 201.386 Z" fill="#000000" fill-rule="nonzero" fill-opacity="1" /><polyline clip-path="url(#clip120)" style="stroke:#3da44d; stroke-linecap:round; stroke-linejoin:round; stroke-width:8; stroke-opacity:1; fill:none" points="1977.44,250.738 2121.36,250.738 "/>
<path clip-path="url(#clip120)" d="M2170.91 263.087 L2170.91 253.805 L2163.27 253.805 L2163.27 249.962 L2175.54 249.962 L2175.54 264.8 Q2172.83 266.721 2169.56 267.717 Q2166.3 268.689 2162.6 268.689 Q2154.49 268.689 2149.91 263.967 Q2145.35 259.221 2145.35 250.772 Q2145.35 242.3 2149.91 237.578 Q2154.49 232.833 2162.6 232.833 Q2165.98 232.833 2169.01 233.666 Q2172.06 234.499 2174.63 236.12 L2174.63 241.096 Q2172.04 238.897 2169.12 237.786 Q2166.21 236.675 2162.99 236.675 Q2156.65 236.675 2153.45 240.217 Q2150.28 243.758 2150.28 250.772 Q2150.28 257.763 2153.45 261.305 Q2156.65 264.846 2162.99 264.846 Q2165.47 264.846 2167.41 264.43 Q2169.36 263.99 2170.91 263.087 Z" fill="#000000" fill-rule="nonzero" fill-opacity="1" /><path clip-path="url(#clip120)" d="M2188.75 237.3 L2188.75 250.286 L2194.63 250.286 Q2197.9 250.286 2199.68 248.596 Q2201.46 246.907 2201.46 243.782 Q2201.46 240.68 2199.68 238.99 Q2197.9 237.3 2194.63 237.3 L2188.75 237.3 M2184.08 233.458 L2194.63 233.458 Q2200.44 233.458 2203.41 236.096 Q2206.39 238.712 2206.39 243.782 Q2206.39 248.897 2203.41 251.513 Q2200.44 254.129 2194.63 254.129 L2188.75 254.129 L2188.75 268.018 L2184.08 268.018 L2184.08 233.458 Z" fill="#000000" fill-rule="nonzero" fill-opacity="1" /></svg>
