<?xml version="1.0" encoding="utf-8"?>
<svg xmlns="http://www.w3.org/2000/svg" xmlns:xlink="http://www.w3.org/1999/xlink" width="600" height="400" viewBox="0 0 2400 1600">
<defs>
  <clipPath id="clip100">
    <rect x="0" y="0" width="2400" height="1600"/>
  </clipPath>
</defs>
<path clip-path="url(#clip100)" d="M0 1600 L2400 1600 L2400 0 L0 0  Z" fill="#ffffff" fill-rule="evenodd" fill-opacity="1"/>
<defs>
  <clipPath id="clip101">
    <rect x="480" y="0" width="1681" height="1600"/>
  </clipPath>
</defs>
<path clip-path="url(#clip100)" d="M193.936 1486.45 L2352.76 1486.45 L2352.76 47.2441 L193.936 47.2441  Z" fill="#ffffff" fill-rule="evenodd" fill-opacity="1"/>
<defs>
  <clipPath id="clip102">
    <rect x="193" y="47" width="2160" height="1440"/>
  </clipPath>
</defs>
<polyline clip-path="url(#clip102)" style="stroke:#000000; stroke-linecap:round; stroke-linejoin:round; stroke-width:2; stroke-opacity:0.1; fill:none" points="255.035,1486.45 255.035,47.2441 "/>
<polyline clip-path="url(#clip102)" style="stroke:#000000; stroke-linecap:round; stroke-linejoin:round; stroke-width:2; stroke-opacity:0.1; fill:none" points="579.338,1486.45 579.338,47.2441 "/>
<polyline clip-path="url(#clip102)" style="stroke:#000000; stroke-linecap:round; stroke-linejoin:round; stroke-width:2; stroke-opacity:0.1; fill:none" points="903.641,1486.45 903.641,47.2441 "/>
<polyline clip-path="url(#clip102)" style="stroke:#000000; stroke-linecap:round; stroke-linejoin:round; stroke-width:2; stroke-opacity:0.1; fill:none" points="1227.94,1486.45 1227.94,47.2441 "/>
<polyline clip-path="url(#clip102)" style="stroke:#000000; stroke-linecap:round; stroke-linejoin:round; stroke-width:2; stroke-opacity:0.1; fill:none" points="1552.25,1486.45 1552.25,47.2441 "/>
<polyline clip-path="url(#clip102)" style="stroke:#000000; stroke-linecap:round; stroke-linejoin:round; stroke-width:2; stroke-opacity:0.1; fill:none" points="1876.55,1486.45 1876.55,47.2441 "/>
<polyline clip-path="url(#clip102)" style="stroke:#000000; stroke-linecap:round; stroke-linejoin:round; stroke-width:2; stroke-opacity:0.1; fill:none" points="2200.85,1486.45 2200.85,47.2441 "/>
<polyline clip-path="url(#clip102)" style="stroke:#000000; stroke-linecap:round; stroke-linejoin:round; stroke-width:2; stroke-opacity:0.1; fill:none" points="193.936,1250.87 2352.76,1250.87 "/>
<polyline clip-path="url(#clip102)" style="stroke:#000000; stroke-linecap:round; stroke-linejoin:round; stroke-width:2; stroke-opacity:0.1; fill:none" points="193.936,1001.89 2352.76,1001.89 "/>
<polyline clip-path="url(#clip102)" style="stroke:#000000; stroke-linecap:round; stroke-linejoin:round; stroke-width:2; stroke-opacity:0.1; fill:none" points="193.936,752.911 2352.76,752.911 "/>
<polyline clip-path="url(#clip102)" style="stroke:#000000; stroke-linecap:round; stroke-linejoin:round; stroke-width:2; stroke-opacity:0.1; fill:none" points="193.936,503.933 2352.76,503.933 "/>
<polyline clip-path="url(#clip102)" style="stroke:#000000; stroke-linecap:round; stroke-linejoin:round; stroke-width:2; stroke-opacity:0.1; fill:none" points="193.936,254.955 2352.76,254.955 "/>
<polyline clip-path="url(#clip100)" style="stroke:#000000; stroke-linecap:round; stroke-linejoin:round; stroke-width:4; stroke-opacity:1; fill:none" points="193.936,1486.45 2352.76,1486.45 "/>
<polyline clip-path="url(#clip100)" style="stroke:#000000; stroke-linecap:round; stroke-linejoin:round; stroke-width:4; stroke-opacity:1; fill:none" points="255.035,1486.45 255.035,1467.55 "/>
<polyline clip-path="url(#clip100)" style="stroke:#000000; stroke-linecap:round; stroke-linejoin:round; stroke-width:4; stroke-opacity:1; fill:none" points="579.338,1486.45 579.338,1467.55 "/>
<polyline clip-path="url(#clip100)" style="stroke:#000000; stroke-linecap:round; stroke-linejoin:round; stroke-width:4; stroke-opacity:1; fill:none" points="903.641,1486.45 903.641,1467.55 "/>
<polyline clip-path="url(#clip100)" style="stroke:#000000; stroke-linecap:round; stroke-linejoin:round; stroke-width:4; stroke-opacity:1; fill:none" points="1227.94,1486.45 1227.94,1467.55 "/>
<polyline clip-path="url(#clip100)" style="stroke:#000000; stroke-linecap:round; stroke-linejoin:round; stroke-width:4; stroke-opacity:1; fill:none" points="1552.25,1486.45 1552.25,1467.55 "/>
<polyline clip-path="url(#clip100)" style="stroke:#000000; stroke-linecap:round; stroke-linejoin:round; stroke-width:4; stroke-opacity:1; fill:none" points="1876.55,1486.45 1876.55,1467.55 "/>
<polyline clip-path="url(#clip100)" style="stroke:#000000; stroke-linecap:round; stroke-linejoin:round; stroke-width:4; stroke-opacity:1; fill:none" points="2200.85,1486.45 2200.85,1467.55 "/>
<path clip-path="url(#clip100)" d="M255.035 1517.37 Q251.424 1517.37 249.595 1520.93 Q247.789 1524.47 247.789 1531.6 Q247.789 1538.71 249.595 1542.27 Q251.424 1545.82 255.035 1545.82 Q258.669 1545.82 260.474 1542.27 Q262.303 1538.71 262.303 1531.6 Q262.303 1524.47 260.474 1520.93 Q258.669 1517.37 255.035 1517.37 M255.035 1513.66 Q260.845 1513.66 263.9 1518.27 Q266.979 1522.85 266.979 1531.6 Q266.979 1540.33 263.9 1544.94 Q260.845 1549.52 255.035 1549.52 Q249.225 1549.52 246.146 1544.94 Q243.09 1540.33 243.09 1531.6 Q243.09 1522.85 246.146 1518.27 Q249.225 1513.66 255.035 1513.66 Z" fill="#000000" fill-rule="nonzero" fill-opacity="1" /><path clip-path="url(#clip100)" d="M569.72 1544.91 L577.358 1544.91 L577.358 1518.55 L569.048 1520.21 L569.048 1515.95 L577.312 1514.29 L581.988 1514.29 L581.988 1544.91 L589.627 1544.91 L589.627 1548.85 L569.72 1548.85 L569.72 1544.91 Z" fill="#000000" fill-rule="nonzero" fill-opacity="1" /><path clip-path="url(#clip100)" d="M898.293 1544.91 L914.613 1544.91 L914.613 1548.85 L892.668 1548.85 L892.668 1544.91 Q895.33 1542.16 899.914 1537.53 Q904.52 1532.88 905.701 1531.53 Q907.946 1529.01 908.826 1527.27 Q909.729 1525.51 909.729 1523.82 Q909.729 1521.07 907.784 1519.33 Q905.863 1517.6 902.761 1517.6 Q900.562 1517.6 898.108 1518.36 Q895.678 1519.13 892.9 1520.68 L892.9 1515.95 Q895.724 1514.82 898.178 1514.24 Q900.631 1513.66 902.668 1513.66 Q908.039 1513.66 911.233 1516.35 Q914.428 1519.03 914.428 1523.52 Q914.428 1525.65 913.617 1527.57 Q912.83 1529.47 910.724 1532.07 Q910.145 1532.74 907.043 1535.95 Q903.942 1539.15 898.293 1544.91 Z" fill="#000000" fill-rule="nonzero" fill-opacity="1" /><path clip-path="url(#clip100)" d="M1232.19 1530.21 Q1235.55 1530.93 1237.42 1533.2 Q1239.32 1535.47 1239.32 1538.8 Q1239.32 1543.92 1235.8 1546.72 Q1232.28 1549.52 1225.8 1549.52 Q1223.63 1549.52 1221.31 1549.08 Q1219.02 1548.66 1216.57 1547.81 L1216.57 1543.29 Q1218.51 1544.43 1220.83 1545.01 Q1223.14 1545.58 1225.66 1545.58 Q1230.06 1545.58 1232.35 1543.85 Q1234.67 1542.11 1234.67 1538.8 Q1234.67 1535.75 1232.52 1534.03 Q1230.39 1532.3 1226.57 1532.3 L1222.54 1532.3 L1222.54 1528.45 L1226.75 1528.45 Q1230.2 1528.45 1232.03 1527.09 Q1233.86 1525.7 1233.86 1523.11 Q1233.86 1520.45 1231.96 1519.03 Q1230.08 1517.6 1226.57 1517.6 Q1224.64 1517.6 1222.45 1518.01 Q1220.25 1518.43 1217.61 1519.31 L1217.61 1515.14 Q1220.27 1514.4 1222.58 1514.03 Q1224.92 1513.66 1226.98 1513.66 Q1232.31 1513.66 1235.41 1516.09 Q1238.51 1518.5 1238.51 1522.62 Q1238.51 1525.49 1236.87 1527.48 Q1235.22 1529.45 1232.19 1530.21 Z" fill="#000000" fill-rule="nonzero" fill-opacity="1" /><path clip-path="url(#clip100)" d="M1555.26 1518.36 L1543.45 1536.81 L1555.26 1536.81 L1555.26 1518.36 M1554.03 1514.29 L1559.91 1514.29 L1559.91 1536.81 L1564.84 1536.81 L1564.84 1540.7 L1559.91 1540.7 L1559.91 1548.85 L1555.26 1548.85 L1555.26 1540.7 L1539.65 1540.7 L1539.65 1536.19 L1554.03 1514.29 Z" fill="#000000" fill-rule="nonzero" fill-opacity="1" /><path clip-path="url(#clip100)" d="M1866.83 1514.29 L1885.18 1514.29 L1885.18 1518.22 L1871.11 1518.22 L1871.11 1526.7 Q1872.13 1526.35 1873.15 1526.19 Q1874.17 1526 1875.18 1526 Q1880.97 1526 1884.35 1529.17 Q1887.73 1532.34 1887.73 1537.76 Q1887.73 1543.34 1884.26 1546.44 Q1880.79 1549.52 1874.47 1549.52 Q1872.29 1549.52 1870.02 1549.15 Q1867.78 1548.78 1865.37 1548.04 L1865.37 1543.34 Q1867.45 1544.47 1869.67 1545.03 Q1871.9 1545.58 1874.37 1545.58 Q1878.38 1545.58 1880.72 1543.48 Q1883.05 1541.37 1883.05 1537.76 Q1883.05 1534.15 1880.72 1532.04 Q1878.38 1529.94 1874.37 1529.94 Q1872.5 1529.94 1870.62 1530.35 Q1868.77 1530.77 1866.83 1531.65 L1866.83 1514.29 Z" fill="#000000" fill-rule="nonzero" fill-opacity="1" /><path clip-path="url(#clip100)" d="M2201.26 1529.7 Q2198.11 1529.7 2196.26 1531.86 Q2194.43 1534.01 2194.43 1537.76 Q2194.43 1541.49 2196.26 1543.66 Q2198.11 1545.82 2201.26 1545.82 Q2204.41 1545.82 2206.23 1543.66 Q2208.09 1541.49 2208.09 1537.76 Q2208.09 1534.01 2206.23 1531.86 Q2204.41 1529.7 2201.26 1529.7 M2210.54 1515.05 L2210.54 1519.31 Q2208.78 1518.48 2206.98 1518.04 Q2205.19 1517.6 2203.43 1517.6 Q2198.8 1517.6 2196.35 1520.72 Q2193.92 1523.85 2193.57 1530.17 Q2194.94 1528.15 2197 1527.09 Q2199.06 1526 2201.54 1526 Q2206.74 1526 2209.75 1529.17 Q2212.79 1532.32 2212.79 1537.76 Q2212.79 1543.08 2209.64 1546.3 Q2206.49 1549.52 2201.26 1549.52 Q2195.26 1549.52 2192.09 1544.94 Q2188.92 1540.33 2188.92 1531.6 Q2188.92 1523.41 2192.81 1518.55 Q2196.7 1513.66 2203.25 1513.66 Q2205.01 1513.66 2206.79 1514.01 Q2208.6 1514.36 2210.54 1515.05 Z" fill="#000000" fill-rule="nonzero" fill-opacity="1" /><polyline clip-path="url(#clip100)" style="stroke:#000000; stroke-linecap:round; stroke-linejoin:round; stroke-width:4; stroke-opacity:1; fill:none" points="193.936,1486.45 193.936,47.2441 "/>
<polyline clip-path="url(#clip100)" style="stroke:#000000; stroke-linecap:round; stroke-linejoin:round; stroke-width:4; stroke-opacity:1; fill:none" points="193.936,1250.87 212.834,1250.87 "/>
<polyline clip-path="url(#clip100)" style="stroke:#000000; stroke-linecap:round; stroke-linejoin:round; stroke-width:4; stroke-opacity:1; fill:none" points="193.936,1001.89 212.834,1001.89 "/>
<polyline clip-path="url(#clip100)" style="stroke:#000000; stroke-linecap:round; stroke-linejoin:round; stroke-width:4; stroke-opacity:1; fill:none" points="193.936,752.911 212.834,752.911 "/>
<polyline clip-path="url(#clip100)" style="stroke:#000000; stroke-linecap:round; stroke-linejoin:round; stroke-width:4; stroke-opacity:1; fill:none" points="193.936,503.933 212.834,503.933 "/>
<polyline clip-path="url(#clip100)" style="stroke:#000000; stroke-linecap:round; stroke-linejoin:round; stroke-width:4; stroke-opacity:1; fill:none" points="193.936,254.955 212.834,254.955 "/>
<path clip-path="url(#clip100)" d="M50.9921 1251.32 L80.6679 1251.32 L80.6679 1255.25 L50.9921 1255.25 L50.9921 1251.32 Z" fill="#000000" fill-rule="nonzero" fill-opacity="1" /><path clip-path="url(#clip100)" d="M91.5706 1264.21 L99.2095 1264.21 L99.2095 1237.85 L90.8993 1239.51 L90.8993 1235.25 L99.1632 1233.59 L103.839 1233.59 L103.839 1264.21 L111.478 1264.21 L111.478 1268.15 L91.5706 1268.15 L91.5706 1264.21 Z" fill="#000000" fill-rule="nonzero" fill-opacity="1" /><path clip-path="url(#clip100)" d="M120.922 1262.27 L125.807 1262.27 L125.807 1268.15 L120.922 1268.15 L120.922 1262.27 Z" fill="#000000" fill-rule="nonzero" fill-opacity="1" /><path clip-path="url(#clip100)" d="M145.992 1236.67 Q142.381 1236.67 140.552 1240.23 Q138.746 1243.77 138.746 1250.9 Q138.746 1258.01 140.552 1261.57 Q142.381 1265.11 145.992 1265.11 Q149.626 1265.11 151.431 1261.57 Q153.26 1258.01 153.26 1250.9 Q153.26 1243.77 151.431 1240.23 Q149.626 1236.67 145.992 1236.67 M145.992 1232.96 Q151.802 1232.96 154.857 1237.57 Q157.936 1242.15 157.936 1250.9 Q157.936 1259.63 154.857 1264.23 Q151.802 1268.82 145.992 1268.82 Q140.181 1268.82 137.103 1264.23 Q134.047 1259.63 134.047 1250.9 Q134.047 1242.15 137.103 1237.57 Q140.181 1232.96 145.992 1232.96 Z" fill="#000000" fill-rule="nonzero" fill-opacity="1" /><path clip-path="url(#clip100)" d="M51.9875 1002.34 L81.6633 1002.34 L81.6633 1006.28 L51.9875 1006.28 L51.9875 1002.34 Z" fill="#000000" fill-rule="nonzero" fill-opacity="1" /><path clip-path="url(#clip100)" d="M101.756 987.688 Q98.1447 987.688 96.316 991.252 Q94.5104 994.794 94.5104 1001.92 Q94.5104 1009.03 96.316 1012.59 Q98.1447 1016.14 101.756 1016.14 Q105.39 1016.14 107.196 1012.59 Q109.024 1009.03 109.024 1001.92 Q109.024 994.794 107.196 991.252 Q105.39 987.688 101.756 987.688 M101.756 983.984 Q107.566 983.984 110.621 988.59 Q113.7 993.174 113.7 1001.92 Q113.7 1010.65 110.621 1015.26 Q107.566 1019.84 101.756 1019.84 Q95.9456 1019.84 92.8669 1015.26 Q89.8114 1010.65 89.8114 1001.92 Q89.8114 993.174 92.8669 988.59 Q95.9456 983.984 101.756 983.984 Z" fill="#000000" fill-rule="nonzero" fill-opacity="1" /><path clip-path="url(#clip100)" d="M121.918 1013.29 L126.802 1013.29 L126.802 1019.17 L121.918 1019.17 L121.918 1013.29 Z" fill="#000000" fill-rule="nonzero" fill-opacity="1" /><path clip-path="url(#clip100)" d="M137.033 984.609 L155.39 984.609 L155.39 988.544 L141.316 988.544 L141.316 997.016 Q142.334 996.669 143.353 996.507 Q144.371 996.322 145.39 996.322 Q151.177 996.322 154.556 999.493 Q157.936 1002.66 157.936 1008.08 Q157.936 1013.66 154.464 1016.76 Q150.992 1019.84 144.672 1019.84 Q142.496 1019.84 140.228 1019.47 Q137.982 1019.1 135.575 1018.36 L135.575 1013.66 Q137.658 1014.79 139.881 1015.35 Q142.103 1015.91 144.58 1015.91 Q148.584 1015.91 150.922 1013.8 Q153.26 1011.69 153.26 1008.08 Q153.26 1004.47 150.922 1002.36 Q148.584 1000.26 144.58 1000.26 Q142.705 1000.26 140.83 1000.67 Q138.978 1001.09 137.033 1001.97 L137.033 984.609 Z" fill="#000000" fill-rule="nonzero" fill-opacity="1" /><path clip-path="url(#clip100)" d="M100.76 738.71 Q97.1493 738.71 95.3206 742.274 Q93.515 745.816 93.515 752.946 Q93.515 760.052 95.3206 763.617 Q97.1493 767.159 100.76 767.159 Q104.395 767.159 106.2 763.617 Q108.029 760.052 108.029 752.946 Q108.029 745.816 106.2 742.274 Q104.395 738.71 100.76 738.71 M100.76 735.006 Q106.571 735.006 109.626 739.612 Q112.705 744.196 112.705 752.946 Q112.705 761.673 109.626 766.279 Q106.571 770.862 100.76 770.862 Q94.9502 770.862 91.8715 766.279 Q88.816 761.673 88.816 752.946 Q88.816 744.196 91.8715 739.612 Q94.9502 735.006 100.76 735.006 Z" fill="#000000" fill-rule="nonzero" fill-opacity="1" /><path clip-path="url(#clip100)" d="M120.922 764.311 L125.807 764.311 L125.807 770.191 L120.922 770.191 L120.922 764.311 Z" fill="#000000" fill-rule="nonzero" fill-opacity="1" /><path clip-path="url(#clip100)" d="M145.992 738.71 Q142.381 738.71 140.552 742.274 Q138.746 745.816 138.746 752.946 Q138.746 760.052 140.552 763.617 Q142.381 767.159 145.992 767.159 Q149.626 767.159 151.431 763.617 Q153.26 760.052 153.26 752.946 Q153.26 745.816 151.431 742.274 Q149.626 738.71 145.992 738.71 M145.992 735.006 Q151.802 735.006 154.857 739.612 Q157.936 744.196 157.936 752.946 Q157.936 761.673 154.857 766.279 Q151.802 770.862 145.992 770.862 Q140.181 770.862 137.103 766.279 Q134.047 761.673 134.047 752.946 Q134.047 744.196 137.103 739.612 Q140.181 735.006 145.992 735.006 Z" fill="#000000" fill-rule="nonzero" fill-opacity="1" /><path clip-path="url(#clip100)" d="M101.756 489.732 Q98.1447 489.732 96.316 493.297 Q94.5104 496.838 94.5104 503.968 Q94.5104 511.074 96.316 514.639 Q98.1447 518.181 101.756 518.181 Q105.39 518.181 107.196 514.639 Q109.024 511.074 109.024 503.968 Q109.024 496.838 107.196 493.297 Q105.39 489.732 101.756 489.732 M101.756 486.028 Q107.566 486.028 110.621 490.635 Q113.7 495.218 113.7 503.968 Q113.7 512.695 110.621 517.301 Q107.566 521.884 101.756 521.884 Q95.9456 521.884 92.8669 517.301 Q89.8114 512.695 89.8114 503.968 Q89.8114 495.218 92.8669 490.635 Q95.9456 486.028 101.756 486.028 Z" fill="#000000" fill-rule="nonzero" fill-opacity="1" /><path clip-path="url(#clip100)" d="M121.918 515.333 L126.802 515.333 L126.802 521.213 L121.918 521.213 L121.918 515.333 Z" fill="#000000" fill-rule="nonzero" fill-opacity="1" /><path clip-path="url(#clip100)" d="M137.033 486.653 L155.39 486.653 L155.39 490.588 L141.316 490.588 L141.316 499.06 Q142.334 498.713 143.353 498.551 Q144.371 498.366 145.39 498.366 Q151.177 498.366 154.556 501.537 Q157.936 504.709 157.936 510.125 Q157.936 515.704 154.464 518.806 Q150.992 521.884 144.672 521.884 Q142.496 521.884 140.228 521.514 Q137.982 521.144 135.575 520.403 L135.575 515.704 Q137.658 516.838 139.881 517.394 Q142.103 517.949 144.58 517.949 Q148.584 517.949 150.922 515.843 Q153.26 513.736 153.26 510.125 Q153.26 506.514 150.922 504.408 Q148.584 502.301 144.58 502.301 Q142.705 502.301 140.83 502.718 Q138.978 503.134 137.033 504.014 L137.033 486.653 Z" fill="#000000" fill-rule="nonzero" fill-opacity="1" /><path clip-path="url(#clip100)" d="M91.5706 268.3 L99.2095 268.3 L99.2095 241.934 L90.8993 243.601 L90.8993 239.342 L99.1632 237.675 L103.839 237.675 L103.839 268.3 L111.478 268.3 L111.478 272.235 L91.5706 272.235 L91.5706 268.3 Z" fill="#000000" fill-rule="nonzero" fill-opacity="1" /><path clip-path="url(#clip100)" d="M120.922 266.356 L125.807 266.356 L125.807 272.235 L120.922 272.235 L120.922 266.356 Z" fill="#000000" fill-rule="nonzero" fill-opacity="1" /><path clip-path="url(#clip100)" d="M145.992 240.754 Q142.381 240.754 140.552 244.319 Q138.746 247.86 138.746 254.99 Q138.746 262.096 140.552 265.661 Q142.381 269.203 145.992 269.203 Q149.626 269.203 151.431 265.661 Q153.26 262.096 153.26 254.99 Q153.26 247.86 151.431 244.319 Q149.626 240.754 145.992 240.754 M145.992 237.05 Q151.802 237.05 154.857 241.657 Q157.936 246.24 157.936 254.99 Q157.936 263.717 154.857 268.323 Q151.802 272.906 145.992 272.906 Q140.181 272.906 137.103 268.323 Q134.047 263.717 134.047 254.99 Q134.047 246.24 137.103 241.657 Q140.181 237.05 145.992 237.05 Z" fill="#000000" fill-rule="nonzero" fill-opacity="1" /><polyline clip-path="url(#clip102)" style="stroke:#009af9; stroke-linecap:round; stroke-linejoin:round; stroke-width:4; stroke-opacity:1; fill:none" points="255.035,752.911 258.278,747.932 261.521,742.953 264.764,737.975 268.007,732.998 271.25,728.024 274.493,723.052 277.736,718.083 280.979,713.117 284.222,708.155 287.465,703.198 290.708,698.246 293.951,693.3 297.194,688.359 300.437,683.425 303.68,678.497 306.923,673.578 310.166,668.666 313.409,663.762 316.652,658.868 319.895,653.982 323.138,649.107 326.381,644.242 329.624,639.388 332.867,634.546 336.11,629.715 339.353,624.896 342.596,620.091 345.84,615.298 349.083,610.519 352.326,605.755 355.569,601.005 358.812,596.271 362.055,591.552 365.298,586.849 368.541,582.163 371.784,577.494 375.027,572.842 378.27,568.209 381.513,563.594 384.756,558.998 387.999,554.421 391.242,549.864 394.485,545.328 397.728,540.812 400.971,536.317 404.214,531.844 407.457,527.394 410.7,522.965 413.943,518.56 417.186,514.178 420.429,509.82 423.672,505.487 426.915,501.178 430.158,496.894 433.401,492.636 436.644,488.404 439.887,484.198 443.13,480.019 446.373,475.868 449.616,471.744 452.859,467.648 456.103,463.581 459.346,459.543 462.589,455.534 465.832,451.555 469.075,447.606 472.318,443.687 475.561,439.8 478.804,435.944 482.047,432.119 485.29,428.327 488.533,424.567 491.776,420.839 495.019,417.145 498.262,413.485 501.505,409.859 504.748,406.266 507.991,402.709 511.234,399.186 514.477,395.699 517.72,392.248 520.963,388.833 524.206,385.454 527.449,382.112 530.692,378.807 533.935,375.539 537.178,372.309 540.421,369.117 543.664,365.964 546.907,362.849 550.15,359.773 553.393,356.736 556.636,353.74 559.879,350.783 563.122,347.866 566.366,344.99 569.609,342.154 572.852,339.36 576.095,336.607 579.338,333.896 582.581,331.226 585.824,328.599 589.067,326.014 592.31,323.472 595.553,320.973 598.796,318.516 602.039,316.104 605.282,313.735 608.525,311.41 611.768,309.129 615.011,306.893 618.254,304.701 621.497,302.554 624.74,300.452 627.983,298.395 631.226,296.384 634.469,294.418 637.712,292.498 640.955,290.624 644.198,288.797 647.441,287.016 650.684,285.281 653.927,283.593 657.17,281.952 660.413,280.359 663.656,278.812 666.899,277.313 670.142,275.861 673.385,274.458 676.629,273.102 679.872,271.794 683.115,270.534 686.358,269.322 689.601,268.159 692.844,267.044 696.087,265.978 699.33,264.96 702.573,263.991 705.816,263.071 709.059,262.201 712.302,261.379 715.545,260.606 718.788,259.883 722.031,259.208 725.274,258.584 728.517,258.008 731.76,257.483 735.003,257.006 738.246,256.58 741.489,256.203 744.732,255.875 747.975,255.597 751.218,255.369 754.461,255.191 757.704,255.063 760.947,254.984 764.19,254.955 767.433,254.976 770.676,255.047 773.919,255.167 777.162,255.338 780.405,255.558 783.648,255.828 786.892,256.147 790.135,256.516 793.378,256.935 796.621,257.403 799.864,257.921 803.107,258.489 806.35,259.106 809.593,259.772 812.836,260.488 816.079,261.252 819.322,262.066 822.565,262.929 825.808,263.841 829.051,264.802 832.294,265.812 835.537,266.871 838.78,267.978 842.023,269.133 845.266,270.337 848.509,271.59 851.752,272.89 854.995,274.238 858.238,275.635 861.481,277.079 864.724,278.57 867.967,280.109 871.21,281.695 874.453,283.329 877.696,285.009 880.939,286.736 884.182,288.51 887.425,290.33 890.668,292.196 893.911,294.109 897.155,296.067 900.398,298.071 903.641,300.121 906.884,302.216 910.127,304.356 913.37,306.54 916.613,308.77 919.856,311.044 923.099,313.362 926.342,315.724 929.585,318.129 932.828,320.578 936.071,323.071 939.314,325.606 942.557,328.184 945.8,330.805 949.043,333.468 952.286,336.172 955.529,338.919 958.772,341.707 962.015,344.535 965.258,347.405 968.501,350.315 971.744,353.266 974.987,356.257 978.23,359.287 981.473,362.356 984.716,365.465 987.959,368.612 991.202,371.798 994.445,375.022 997.688,378.284 1000.93,381.583 1004.17,384.919 1007.42,388.292 1010.66,391.702 1013.9,395.147 1017.15,398.629 1020.39,402.146 1023.63,405.697 1026.88,409.284 1030.12,412.905 1033.36,416.56 1036.6,420.249 1039.85,423.971 1043.09,427.726 1046.33,431.513 1049.58,435.332 1052.82,439.184 1056.06,443.066 1059.31,446.98 1062.55,450.924 1065.79,454.898 1069.04,458.902 1072.28,462.936 1075.52,466.999 1078.76,471.09 1082.01,475.209 1085.25,479.356 1088.49,483.531 1091.74,487.732 1094.98,491.96 1098.22,496.214 1101.47,500.494 1104.71,504.799 1107.95,509.128 1111.19,513.483 1114.44,517.861 1117.68,522.262 1120.92,526.687 1124.17,531.134 1127.41,535.604 1130.65,540.095 1133.9,544.607 1137.14,549.14 1140.38,553.694 1143.62,558.268 1146.87,562.861 1150.11,567.473 1153.35,572.103 1156.6,576.752 1159.84,581.418 1163.08,586.102 1166.33,590.802 1169.57,595.518 1172.81,600.25 1176.06,604.998 1179.3,609.76 1182.54,614.536 1185.78,619.326 1189.03,624.13 1192.27,628.946 1195.51,633.775 1198.76,638.616 1202,643.468 1205.24,648.332 1208.49,653.205 1211.73,658.089 1214.97,662.982 1218.21,667.884 1221.46,672.795 1224.7,677.713 1227.94,682.639 1231.19,687.573 1234.43,692.512 1237.67,697.458 1240.92,702.409 1244.16,707.366 1247.4,712.327 1250.64,717.291 1253.89,722.26 1257.13,727.232 1260.37,732.206 1263.62,737.182 1266.86,742.16 1270.1,747.138 1273.35,752.118 1276.59,757.097 1279.83,762.077 1283.08,767.055 1286.32,772.031 1289.56,777.006 1292.8,781.979 1296.05,786.948 1299.29,791.914 1302.53,796.877 1305.78,801.834 1309.02,806.787 1312.26,811.735 1315.51,816.677 1318.75,821.612 1321.99,826.54 1325.23,831.461 1328.48,836.375 1331.72,841.279 1334.96,846.175 1338.21,851.062 1341.45,855.939 1344.69,860.806 1347.94,865.661 1351.18,870.506 1354.42,875.339 1357.66,880.159 1360.91,884.967 1364.15,889.762 1367.39,894.542 1370.64,899.309 1373.88,904.061 1377.12,908.798 1380.37,913.52 1383.61,918.225 1386.85,922.914 1390.1,927.586 1393.34,932.24 1396.58,936.876 1399.82,941.494 1403.07,946.093 1406.31,950.673 1409.55,955.233 1412.8,959.773 1416.04,964.292 1419.28,968.79 1422.53,973.267 1425.77,977.721 1429.01,982.153 1432.25,986.562 1435.5,990.947 1438.74,995.309 1441.98,999.647 1445.23,1003.96 1448.47,1008.25 1451.71,1012.51 1454.96,1016.75 1458.2,1020.96 1461.44,1025.14 1464.68,1029.29 1467.93,1033.42 1471.17,1037.52 1474.41,1041.6 1477.66,1045.64 1480.9,1049.65 1484.14,1053.64 1487.39,1057.59 1490.63,1061.51 1493.87,1065.41 1497.11,1069.27 1500.36,1073.1 1503.6,1076.89 1506.84,1080.66 1510.09,1084.39 1513.33,1088.09 1516.57,1091.76 1519.82,1095.39 1523.06,1098.99 1526.3,1102.55 1529.55,1106.08 1532.79,1109.57 1536.03,1113.03 1539.27,1116.45 1542.52,1119.83 1545.76,1123.18 1549,1126.49 1552.25,1129.77 1555.49,1133 1558.73,1136.2 1561.98,1139.36 1565.22,1142.48 1568.46,1145.56 1571.7,1148.6 1574.95,1151.61 1578.19,1154.57 1581.43,1157.49 1584.68,1160.38 1587.92,1163.22 1591.16,1166.02 1594.41,1168.78 1597.65,1171.5 1600.89,1174.17 1604.13,1176.81 1607.38,1179.4 1610.62,1181.95 1613.86,1184.45 1617.11,1186.92 1620.35,1189.34 1623.59,1191.71 1626.84,1194.04 1630.08,1196.33 1633.32,1198.58 1636.57,1200.78 1639.81,1202.93 1643.05,1205.04 1646.29,1207.1 1649.54,1209.12 1652.78,1211.09 1656.02,1213.02 1659.27,1214.9 1662.51,1216.74 1665.75,1218.53 1669,1220.27 1672.24,1221.96 1675.48,1223.61 1678.72,1225.21 1681.97,1226.77 1685.21,1228.27 1688.45,1229.73 1691.7,1231.14 1694.94,1232.51 1698.18,1233.82 1701.43,1235.09 1704.67,1236.31 1707.91,1237.48 1711.15,1238.6 1714.4,1239.68 1717.64,1240.7 1720.88,1241.68 1724.13,1242.61 1727.37,1243.49 1730.61,1244.32 1733.86,1245.1 1737.1,1245.83 1740.34,1246.51 1743.59,1247.14 1746.83,1247.73 1750.07,1248.26 1753.31,1248.74 1756.56,1249.18 1759.8,1249.56 1763.04,1249.9 1766.29,1250.18 1769.53,1250.42 1772.77,1250.61 1776.02,1250.74 1779.26,1250.83 1782.5,1250.87 1785.74,1250.85 1788.99,1250.79 1792.23,1250.68 1795.47,1250.51 1798.72,1250.3 1801.96,1250.04 1805.2,1249.73 1808.45,1249.37 1811.69,1248.96 1814.93,1248.5 1818.17,1247.99 1821.42,1247.43 1824.66,1246.82 1827.9,1246.16 1831.15,1245.45 1834.39,1244.69 1837.63,1243.89 1840.88,1243.03 1844.12,1242.13 1847.36,1241.18 1850.61,1240.17 1853.85,1239.12 1857.09,1238.02 1860.33,1236.88 1863.58,1235.68 1866.82,1234.44 1870.06,1233.14 1873.31,1231.8 1876.55,1230.41 1879.79,1228.98 1883.04,1227.49 1886.28,1225.96 1889.52,1224.38 1892.76,1222.76 1896.01,1221.08 1899.25,1219.36 1902.49,1217.6 1905.74,1215.78 1908.98,1213.93 1912.22,1212.02 1915.47,1210.07 1918.71,1208.07 1921.95,1206.03 1925.19,1203.94 1928.44,1201.81 1931.68,1199.63 1934.92,1197.41 1938.17,1195.14 1941.41,1192.83 1944.65,1190.48 1947.9,1188.08 1951.14,1185.64 1954.38,1183.15 1957.63,1180.62 1960.87,1178.05 1964.11,1175.44 1967.35,1172.78 1970.6,1170.08 1973.84,1167.34 1977.08,1164.56 1980.33,1161.74 1983.57,1158.88 1986.81,1155.97 1990.06,1153.03 1993.3,1150.04 1996.54,1147.02 1999.78,1143.96 2003.03,1140.85 2006.27,1137.71 2009.51,1134.53 2012.76,1131.32 2016,1128.06 2019.24,1124.77 2022.49,1121.44 2025.73,1118.07 2028.97,1114.67 2032.21,1111.23 2035.46,1107.75 2038.7,1104.24 2041.94,1100.69 2045.19,1097.11 2048.43,1093.5 2051.67,1089.85 2054.92,1086.16 2058.16,1082.45 2061.4,1078.7 2064.65,1074.91 2067.89,1071.1 2071.13,1067.25 2074.37,1063.38 2077.62,1059.47 2080.86,1055.53 2084.1,1051.56 2087.35,1047.56 2090.59,1043.53 2093.83,1039.47 2097.08,1035.39 2100.32,1031.27 2103.56,1027.13 2106.8,1022.96 2110.05,1018.76 2113.29,1014.54 2116.53,1010.29 2119.78,1006.01 2123.02,1001.71 2126.26,997.385 2129.51,993.035 2132.75,988.66 2135.99,984.262 2139.23,979.841 2142.48,975.398 2145.72,970.932 2148.96,966.444 2152.21,961.935 2155.45,957.405 2158.69,952.855 2161.94,948.284 2165.18,943.694 2168.42,939.085 2171.67,934.457 2174.91,929.812 2178.15,925.148 2181.39,920.467 2184.64,915.77 2187.88,911.056 2191.12,906.327 2194.37,901.582 2197.61,896.822 2200.85,892.048 2204.1,887.259 2207.34,882.458 2210.58,877.643 2213.82,872.816 2217.07,867.978 2220.31,863.127 2223.55,858.266 2226.8,853.394 2230.04,848.512 2233.28,843.62 2236.53,838.719 2239.77,833.81 2243.01,828.893 2246.25,823.968 2249.5,819.036 2252.74,814.097 2255.98,809.152 2259.23,804.202 2262.47,799.246 2265.71,794.286 2268.96,789.322 2272.2,784.354 2275.44,779.382 2278.69,774.409 2281.93,769.433 2285.17,764.455 2288.41,759.477 2291.66,754.497 "/>
<circle clip-path="url(#clip102)" cx="1691.7" cy="1339.2" r="14.4" fill="#e26f46" fill-rule="evenodd" fill-opacity="1" stroke="#000000" stroke-opacity="1" stroke-width="3.2"/>
<circle clip-path="url(#clip102)" cx="2255.98" cy="919.304" r="14.4" fill="#e26f46" fill-rule="evenodd" fill-opacity="1" stroke="#000000" stroke-opacity="1" stroke-width="3.2"/>
<circle clip-path="url(#clip102)" cx="436.644" cy="540.972" r="14.4" fill="#e26f46" fill-rule="evenodd" fill-opacity="1" stroke="#000000" stroke-opacity="1" stroke-width="3.2"/>
<circle clip-path="url(#clip102)" cx="1847.36" cy="1308.79" r="14.4" fill="#e26f46" fill-rule="evenodd" fill-opacity="1" stroke="#000000" stroke-opacity="1" stroke-width="3.2"/>
<circle clip-path="url(#clip102)" cx="1610.62" cy="1067.2" r="14.4" fill="#e26f46" fill-rule="evenodd" fill-opacity="1" stroke="#000000" stroke-opacity="1" stroke-width="3.2"/>
<circle clip-path="url(#clip102)" cx="731.76" cy="190.01" r="14.4" fill="#e26f46" fill-rule="evenodd" fill-opacity="1" stroke="#000000" stroke-opacity="1" stroke-width="3.2"/>
<circle clip-path="url(#clip102)" cx="1101.47" cy="423.204" r="14.4" fill="#e26f46" fill-rule="evenodd" fill-opacity="1" stroke="#000000" stroke-opacity="1" stroke-width="3.2"/>
<circle clip-path="url(#clip102)" cx="1179.3" cy="674.811" r="14.4" fill="#e26f46" fill-rule="evenodd" fill-opacity="1" stroke="#000000" stroke-opacity="1" stroke-width="3.2"/>
<circle clip-path="url(#clip102)" cx="1814.93" cy="1315.24" r="14.4" fill="#e26f46" fill-rule="evenodd" fill-opacity="1" stroke="#000000" stroke-opacity="1" stroke-width="3.2"/>
<circle clip-path="url(#clip102)" cx="679.872" cy="193.173" r="14.4" fill="#e26f46" fill-rule="evenodd" fill-opacity="1" stroke="#000000" stroke-opacity="1" stroke-width="3.2"/>
<circle clip-path="url(#clip102)" cx="997.688" cy="355.591" r="14.4" fill="#e26f46" fill-rule="evenodd" fill-opacity="1" stroke="#000000" stroke-opacity="1" stroke-width="3.2"/>
<circle clip-path="url(#clip102)" cx="799.864" cy="272.88" r="14.4" fill="#e26f46" fill-rule="evenodd" fill-opacity="1" stroke="#000000" stroke-opacity="1" stroke-width="3.2"/>
<circle clip-path="url(#clip102)" cx="1886.28" cy="1333" r="14.4" fill="#e26f46" fill-rule="evenodd" fill-opacity="1" stroke="#000000" stroke-opacity="1" stroke-width="3.2"/>
<circle clip-path="url(#clip102)" cx="1600.89" cy="1219.94" r="14.4" fill="#e26f46" fill-rule="evenodd" fill-opacity="1" stroke="#000000" stroke-opacity="1" stroke-width="3.2"/>
<circle clip-path="url(#clip102)" cx="478.804" cy="362.104" r="14.4" fill="#e26f46" fill-rule="evenodd" fill-opacity="1" stroke="#000000" stroke-opacity="1" stroke-width="3.2"/>
<circle clip-path="url(#clip102)" cx="1597.65" cy="1227.9" r="14.4" fill="#e26f46" fill-rule="evenodd" fill-opacity="1" stroke="#000000" stroke-opacity="1" stroke-width="3.2"/>
<circle clip-path="url(#clip102)" cx="1360.91" cy="857.053" r="14.4" fill="#e26f46" fill-rule="evenodd" fill-opacity="1" stroke="#000000" stroke-opacity="1" stroke-width="3.2"/>
<circle clip-path="url(#clip102)" cx="1403.07" cy="961.293" r="14.4" fill="#e26f46" fill-rule="evenodd" fill-opacity="1" stroke="#000000" stroke-opacity="1" stroke-width="3.2"/>
<circle clip-path="url(#clip102)" cx="1082.01" cy="597.703" r="14.4" fill="#e26f46" fill-rule="evenodd" fill-opacity="1" stroke="#000000" stroke-opacity="1" stroke-width="3.2"/>
<circle clip-path="url(#clip102)" cx="1899.25" cy="1230.39" r="14.4" fill="#e26f46" fill-rule="evenodd" fill-opacity="1" stroke="#000000" stroke-opacity="1" stroke-width="3.2"/>
<path clip-path="url(#clip102)" d="M255.035 991.995 L258.278 987.718 L261.521 983.381 L264.764 978.984 L268.007 974.528 L271.25 970.01 L274.493 965.432 L277.736 960.793 L280.979 956.094 L284.222 951.334 L287.465 946.513 L290.708 941.631 L293.951 936.688 L297.194 931.685 L300.437 926.622 L303.68 921.5 L306.923 916.317 L310.166 911.076 L313.409 905.777 L316.652 900.42 L319.895 895.006 L323.138 889.536 L326.381 884.012 L329.624 878.433 L332.867 872.802 L336.11 867.121 L339.353 861.389 L342.596 855.61 L345.84 849.785 L349.083 843.916 L352.326 838.006 L355.569 832.057 L358.812 826.072 L362.055 820.053 L365.298 814.005 L368.541 807.93 L371.784 801.832 L375.027 795.716 L378.27 789.586 L381.513 783.446 L384.756 777.302 L387.999 771.159 L391.242 765.022 L394.485 758.899 L397.728 752.796 L400.971 746.719 L404.214 740.676 L407.457 734.675 L410.7 728.725 L413.943 722.832 L417.186 717.008 L420.429 711.26 L423.672 705.598 L426.915 700.032 L430.158 694.572 L433.401 689.229 L436.644 684.011 L439.887 678.928 L443.13 673.983 L446.373 669.178 L449.616 664.515 L452.859 659.997 L456.103 655.624 L459.346 651.399 L462.589 647.322 L465.832 643.395 L469.075 639.62 L472.318 635.998 L475.561 632.529 L478.804 629.216 L482.047 626.056 L485.29 623.038 L488.533 620.151 L491.776 617.381 L495.019 614.716 L498.262 612.142 L501.505 609.648 L504.748 607.223 L507.991 604.855 L511.234 602.534 L514.477 600.25 L517.72 597.993 L520.963 595.754 L524.206 593.525 L527.449 591.299 L530.692 589.067 L533.935 586.823 L537.178 584.561 L540.421 582.276 L543.664 579.963 L546.907 577.616 L550.15 575.232 L553.393 572.807 L556.636 570.338 L559.879 567.823 L563.122 565.258 L566.366 562.643 L569.609 559.976 L572.852 557.256 L576.095 554.481 L579.338 551.653 L582.581 548.771 L585.824 545.835 L589.067 542.847 L592.31 539.808 L595.553 536.719 L598.796 533.583 L602.039 530.401 L605.282 527.177 L608.525 523.914 L611.768 520.614 L615.011 517.283 L618.254 513.925 L621.497 510.544 L624.74 507.144 L627.983 503.733 L631.226 500.316 L634.469 496.899 L637.712 493.489 L640.955 490.093 L644.198 486.72 L647.441 483.377 L650.684 480.074 L653.927 476.819 L657.17 473.623 L660.413 470.495 L663.656 467.445 L666.899 464.486 L670.142 461.629 L673.385 458.885 L676.629 456.267 L679.872 453.787 L683.115 451.456 L686.358 449.275 L689.601 447.245 L692.844 445.364 L696.087 443.634 L699.33 442.054 L702.573 440.626 L705.816 439.351 L709.059 438.231 L712.302 437.267 L715.545 436.462 L718.788 435.819 L722.031 435.341 L725.274 435.032 L728.517 434.896 L731.76 434.936 L735.003 435.155 L738.246 435.547 L741.489 436.104 L744.732 436.818 L747.975 437.682 L751.218 438.689 L754.461 439.832 L757.704 441.105 L760.947 442.504 L764.19 444.022 L767.433 445.655 L770.676 447.4 L773.919 449.253 L777.162 451.21 L780.405 453.27 L783.648 455.429 L786.892 457.688 L790.135 460.043 L793.378 462.495 L796.621 465.042 L799.864 467.684 L803.107 470.42 L806.35 473.24 L809.593 476.135 L812.836 479.094 L816.079 482.109 L819.322 485.17 L822.565 488.269 L825.808 491.396 L829.051 494.544 L832.294 497.705 L835.537 500.872 L838.78 504.037 L842.023 507.196 L845.266 510.34 L848.509 513.465 L851.752 516.565 L854.995 519.636 L858.238 522.672 L861.481 525.67 L864.724 528.625 L867.967 531.535 L871.21 534.396 L874.453 537.205 L877.696 539.959 L880.939 542.657 L884.182 545.297 L887.425 547.877 L890.668 550.395 L893.911 552.852 L897.155 555.245 L900.398 557.575 L903.641 559.842 L906.884 562.046 L910.127 564.187 L913.37 566.266 L916.613 568.284 L919.856 570.242 L923.099 572.143 L926.342 573.987 L929.585 575.778 L932.828 577.518 L936.071 579.209 L939.314 580.854 L942.557 582.458 L945.8 584.024 L949.043 585.555 L952.286 587.057 L955.529 588.535 L958.772 589.992 L962.015 591.435 L965.258 592.87 L968.501 594.303 L971.744 595.739 L974.987 597.187 L978.23 598.653 L981.473 600.144 L984.716 601.669 L987.959 603.236 L991.202 604.852 L994.445 606.527 L997.688 608.269 L1000.93 610.085 L1004.17 611.974 L1007.42 613.93 L1010.66 615.952 L1013.9 618.034 L1017.15 620.175 L1020.39 622.372 L1023.63 624.621 L1026.88 626.922 L1030.12 629.273 L1033.36 631.673 L1036.6 634.123 L1039.85 636.621 L1043.09 639.17 L1046.33 641.771 L1049.58 644.426 L1052.82 647.137 L1056.06 649.909 L1059.31 652.746 L1062.55 655.651 L1065.79 658.631 L1069.04 661.691 L1072.28 664.837 L1075.52 668.077 L1078.76 671.417 L1082.01 674.865 L1085.25 678.427 L1088.49 682.108 L1091.74 685.911 L1094.98 689.841 L1098.22 693.9 L1101.47 698.093 L1104.71 702.422 L1107.95 706.878 L1111.19 711.452 L1114.44 716.134 L1117.68 720.914 L1120.92 725.784 L1124.17 730.734 L1127.41 735.757 L1130.65 740.846 L1133.9 745.993 L1137.14 751.192 L1140.38 756.438 L1143.62 761.726 L1146.87 767.051 L1150.11 772.409 L1153.35 777.797 L1156.6 783.212 L1159.84 788.652 L1163.08 794.115 L1166.33 799.601 L1169.57 805.107 L1172.81 810.633 L1176.06 816.179 L1179.3 821.745 L1182.54 827.329 L1185.78 832.925 L1189.03 838.526 L1192.27 844.125 L1195.51 849.715 L1198.76 855.289 L1202 860.84 L1205.24 866.364 L1208.49 871.853 L1211.73 877.303 L1214.97 882.709 L1218.21 888.065 L1221.46 893.368 L1224.7 898.614 L1227.94 903.798 L1231.19 908.918 L1234.43 913.97 L1237.67 918.952 L1240.92 923.862 L1244.16 928.697 L1247.4 933.455 L1250.64 938.136 L1253.89 942.738 L1257.13 947.261 L1260.37 951.703 L1263.62 956.066 L1266.86 960.348 L1270.1 964.551 L1273.35 968.675 L1276.59 972.721 L1279.83 976.69 L1283.08 980.585 L1286.32 984.408 L1289.56 988.16 L1292.8 991.845 L1296.05 995.465 L1299.29 999.024 L1302.53 1002.53 L1305.78 1005.97 L1309.02 1009.37 L1312.26 1012.73 L1315.51 1016.04 L1318.75 1019.33 L1321.99 1022.58 L1325.23 1025.82 L1328.48 1029.04 L1331.72 1032.25 L1334.96 1035.47 L1338.21 1038.69 L1341.45 1041.93 L1344.69 1045.19 L1347.94 1048.49 L1351.18 1051.83 L1354.42 1055.23 L1357.66 1058.68 L1360.91 1062.21 L1364.15 1065.81 L1367.39 1069.5 L1370.64 1073.26 L1373.88 1077.1 L1377.12 1081.01 L1380.37 1085 L1383.61 1089.06 L1386.85 1093.19 L1390.1 1097.39 L1393.34 1101.66 L1396.58 1106 L1399.82 1110.4 L1403.07 1114.87 L1406.31 1119.4 L1409.55 1123.98 L1412.8 1128.61 L1416.04 1133.27 L1419.28 1137.96 L1422.53 1142.66 L1425.77 1147.37 L1429.01 1152.09 L1432.25 1156.79 L1435.5 1161.48 L1438.74 1166.14 L1441.98 1170.78 L1445.23 1175.37 L1448.47 1179.93 L1451.71 1184.43 L1454.96 1188.88 L1458.2 1193.26 L1461.44 1197.58 L1464.68 1201.84 L1467.93 1206.02 L1471.17 1210.12 L1474.41 1214.14 L1477.66 1218.08 L1480.9 1221.93 L1484.14 1225.69 L1487.39 1229.37 L1490.63 1232.95 L1493.87 1236.44 L1497.11 1239.83 L1500.36 1243.14 L1503.6 1246.35 L1506.84 1249.46 L1510.09 1252.48 L1513.33 1255.41 L1516.57 1258.25 L1519.82 1261 L1523.06 1263.66 L1526.3 1266.24 L1529.55 1268.74 L1532.79 1271.16 L1536.03 1273.51 L1539.27 1275.78 L1542.52 1277.99 L1545.76 1280.15 L1549 1282.25 L1552.25 1284.3 L1555.49 1286.31 L1558.73 1288.3 L1561.98 1290.26 L1565.22 1292.21 L1568.46 1294.15 L1571.7 1296.1 L1574.95 1298.07 L1578.19 1300.07 L1581.43 1302.12 L1584.68 1304.21 L1587.92 1306.38 L1591.16 1308.62 L1594.41 1310.96 L1597.65 1313.41 L1600.89 1315.97 L1604.13 1318.67 L1607.38 1321.49 L1610.62 1324.44 L1613.86 1327.52 L1617.11 1330.72 L1620.35 1334.02 L1623.59 1337.41 L1626.84 1340.88 L1630.08 1344.41 L1633.32 1348 L1636.57 1351.62 L1639.81 1355.27 L1643.05 1358.93 L1646.29 1362.59 L1649.54 1366.25 L1652.78 1369.89 L1656.02 1373.51 L1659.27 1377.09 L1662.51 1380.63 L1665.75 1384.13 L1669 1387.57 L1672.24 1390.95 L1675.48 1394.27 L1678.72 1397.52 L1681.97 1400.7 L1685.21 1403.81 L1688.45 1406.83 L1691.7 1409.78 L1694.94 1412.64 L1698.18 1415.41 L1701.43 1418.09 L1704.67 1420.67 L1707.91 1423.14 L1711.15 1425.5 L1714.4 1427.74 L1717.64 1429.87 L1720.88 1431.87 L1724.13 1433.74 L1727.37 1435.49 L1730.61 1437.1 L1733.86 1438.58 L1737.1 1439.92 L1740.34 1441.12 L1743.59 1442.18 L1746.83 1443.1 L1750.07 1443.89 L1753.31 1444.53 L1756.56 1445.03 L1759.8 1445.4 L1763.04 1445.62 L1766.29 1445.72 L1769.53 1445.68 L1772.77 1445.51 L1776.02 1445.21 L1779.26 1444.8 L1782.5 1444.27 L1785.74 1443.62 L1788.99 1442.88 L1792.23 1442.03 L1795.47 1441.09 L1798.72 1440.06 L1801.96 1438.96 L1805.2 1437.79 L1808.45 1436.57 L1811.69 1435.29 L1814.93 1433.98 L1818.17 1432.65 L1821.42 1431.29 L1824.66 1429.91 L1827.9 1428.53 L1831.15 1427.14 L1834.39 1425.75 L1837.63 1424.38 L1840.88 1423.03 L1844.12 1421.7 L1847.36 1420.41 L1850.61 1419.16 L1853.85 1417.96 L1857.09 1416.81 L1860.33 1415.71 L1863.58 1414.67 L1866.82 1413.69 L1870.06 1412.78 L1873.31 1411.93 L1876.55 1411.15 L1879.79 1410.45 L1883.04 1409.83 L1886.28 1409.29 L1889.52 1408.84 L1892.76 1408.47 L1896.01 1408.19 L1899.25 1408 L1902.49 1407.88 L1905.74 1407.83 L1908.98 1407.85 L1912.22 1407.92 L1915.47 1408.03 L1918.71 1408.17 L1921.95 1408.34 L1925.19 1408.51 L1928.44 1408.7 L1931.68 1408.88 L1934.92 1409.05 L1938.17 1409.2 L1941.41 1409.34 L1944.65 1409.44 L1947.9 1409.51 L1951.14 1409.55 L1954.38 1409.54 L1957.63 1409.48 L1960.87 1409.38 L1964.11 1409.22 L1967.35 1409.01 L1970.6 1408.73 L1973.84 1408.4 L1977.08 1408 L1980.33 1407.54 L1983.57 1407.01 L1986.81 1406.42 L1990.06 1405.75 L1993.3 1405.01 L1996.54 1404.2 L1999.78 1403.32 L2003.03 1402.37 L2006.27 1401.34 L2009.51 1400.24 L2012.76 1399.06 L2016 1397.81 L2019.24 1396.48 L2022.49 1395.08 L2025.73 1393.6 L2028.97 1392.05 L2032.21 1390.43 L2035.46 1388.73 L2038.7 1386.95 L2041.94 1385.1 L2045.19 1383.18 L2048.43 1381.19 L2051.67 1379.12 L2054.92 1376.98 L2058.16 1374.77 L2061.4 1372.49 L2064.65 1370.14 L2067.89 1367.72 L2071.13 1365.23 L2074.37 1362.67 L2077.62 1360.05 L2080.86 1357.36 L2084.1 1354.61 L2087.35 1351.79 L2090.59 1348.92 L2093.83 1345.98 L2097.08 1342.98 L2100.32 1339.92 L2103.56 1336.8 L2106.8 1333.63 L2110.05 1330.4 L2113.29 1327.12 L2116.53 1323.79 L2119.78 1320.42 L2123.02 1316.99 L2126.26 1313.52 L2129.51 1310 L2132.75 1306.45 L2135.99 1302.85 L2139.23 1299.22 L2142.48 1295.56 L2145.72 1291.86 L2148.96 1288.14 L2152.21 1284.39 L2155.45 1280.62 L2158.69 1276.84 L2161.94 1273.03 L2165.18 1269.22 L2168.42 1265.4 L2171.67 1261.58 L2174.91 1257.76 L2178.15 1253.94 L2181.39 1250.14 L2184.64 1246.35 L2187.88 1242.59 L2191.12 1238.85 L2194.37 1235.15 L2197.61 1231.48 L2200.85 1227.86 L2204.1 1224.3 L2207.34 1220.79 L2210.58 1217.35 L2213.82 1213.99 L2217.07 1210.7 L2220.31 1207.51 L2223.55 1204.42 L2226.8 1201.43 L2230.04 1198.55 L2233.28 1195.8 L2236.53 1193.19 L2239.77 1190.71 L2243.01 1188.38 L2246.25 1186.21 L2249.5 1184.21 L2252.74 1182.38 L2255.98 1180.73 L2259.23 1179.27 L2262.47 1177.99 L2265.71 1176.89 L2268.96 1175.96 L2272.2 1175.19 L2275.44 1174.57 L2278.69 1174.11 L2281.93 1173.78 L2285.17 1173.59 L2288.41 1173.52 L2291.66 1173.58 L2291.66 625.505 L2288.41 629.295 L2285.17 633.008 L2281.93 636.636 L2278.69 640.173 L2275.44 643.612 L2272.2 646.945 L2268.96 650.165 L2265.71 653.265 L2262.47 656.239 L2259.23 659.08 L2255.98 661.781 L2252.74 664.339 L2249.5 666.759 L2246.25 669.048 L2243.01 671.216 L2239.77 673.27 L2236.53 675.219 L2233.28 677.072 L2230.04 678.837 L2226.8 680.523 L2223.55 682.139 L2220.31 683.692 L2217.07 685.192 L2213.82 686.646 L2210.58 688.062 L2207.34 689.448 L2204.1 690.811 L2200.85 692.159 L2197.61 693.498 L2194.37 694.835 L2191.12 696.177 L2187.88 697.529 L2184.64 698.897 L2181.39 700.288 L2178.15 701.705 L2174.91 703.155 L2171.67 704.642 L2168.42 706.17 L2165.18 707.743 L2161.94 709.367 L2158.69 711.044 L2155.45 712.777 L2152.21 714.571 L2148.96 716.429 L2145.72 718.352 L2142.48 720.345 L2139.23 722.41 L2135.99 724.549 L2132.75 726.764 L2129.51 729.057 L2126.26 731.431 L2123.02 733.886 L2119.78 736.426 L2116.53 739.05 L2113.29 741.761 L2110.05 744.56 L2106.8 747.448 L2103.56 750.426 L2100.32 753.494 L2097.08 756.654 L2093.83 759.907 L2090.59 763.252 L2087.35 766.691 L2084.1 770.223 L2080.86 773.85 L2077.62 777.57 L2074.37 781.385 L2071.13 785.294 L2067.89 789.298 L2064.65 793.395 L2061.4 797.586 L2058.16 801.871 L2054.92 806.248 L2051.67 810.718 L2048.43 815.28 L2045.19 819.932 L2041.94 824.675 L2038.7 829.506 L2035.46 834.426 L2032.21 839.432 L2028.97 844.525 L2025.73 849.701 L2022.49 854.959 L2019.24 860.299 L2016 865.718 L2012.76 871.214 L2009.51 876.784 L2006.27 882.428 L2003.03 888.142 L1999.78 893.923 L1996.54 899.769 L1993.3 905.677 L1990.06 911.644 L1986.81 917.666 L1983.57 923.739 L1980.33 929.86 L1977.08 936.025 L1973.84 942.228 L1970.6 948.465 L1967.35 954.73 L1964.11 961.02 L1960.87 967.326 L1957.63 973.644 L1954.38 979.967 L1951.14 986.287 L1947.9 992.597 L1944.65 998.889 L1941.41 1005.15 L1938.17 1011.38 L1934.92 1017.57 L1931.68 1023.69 L1928.44 1029.75 L1925.19 1035.73 L1921.95 1041.62 L1918.71 1047.41 L1915.47 1053.08 L1912.22 1058.61 L1908.98 1064 L1905.74 1069.23 L1902.49 1074.28 L1899.25 1079.14 L1896.01 1083.78 L1892.76 1088.21 L1889.52 1092.41 L1886.28 1096.38 L1883.04 1100.1 L1879.79 1103.58 L1876.55 1106.82 L1873.31 1109.83 L1870.06 1112.61 L1866.82 1115.17 L1863.58 1117.5 L1860.33 1119.61 L1857.09 1121.51 L1853.85 1123.19 L1850.61 1124.65 L1847.36 1125.9 L1844.12 1126.95 L1840.88 1127.79 L1837.63 1128.44 L1834.39 1128.92 L1831.15 1129.22 L1827.9 1129.35 L1824.66 1129.33 L1821.42 1129.16 L1818.17 1128.85 L1814.93 1128.4 L1811.69 1127.83 L1808.45 1127.13 L1805.2 1126.33 L1801.96 1125.45 L1798.72 1124.48 L1795.47 1123.45 L1792.23 1122.36 L1788.99 1121.22 L1785.74 1120.05 L1782.5 1118.85 L1779.26 1117.63 L1776.02 1116.39 L1772.77 1115.15 L1769.53 1113.9 L1766.29 1112.66 L1763.04 1111.42 L1759.8 1110.19 L1756.56 1108.98 L1753.31 1107.77 L1750.07 1106.58 L1746.83 1105.41 L1743.59 1104.26 L1740.34 1103.11 L1737.1 1101.99 L1733.86 1100.87 L1730.61 1099.77 L1727.37 1098.67 L1724.13 1097.58 L1720.88 1096.49 L1717.64 1095.39 L1714.4 1094.28 L1711.15 1093.16 L1707.91 1092.01 L1704.67 1090.84 L1701.43 1089.63 L1698.18 1088.38 L1694.94 1087.07 L1691.7 1085.71 L1688.45 1084.28 L1685.21 1082.78 L1681.97 1081.22 L1678.72 1079.6 L1675.48 1077.92 L1672.24 1076.19 L1669 1074.41 L1665.75 1072.57 L1662.51 1070.68 L1659.27 1068.73 L1656.02 1066.72 L1652.78 1064.66 L1649.54 1062.53 L1646.29 1060.33 L1643.05 1058.06 L1639.81 1055.72 L1636.57 1053.28 L1633.32 1050.76 L1630.08 1048.13 L1626.84 1045.39 L1623.59 1042.53 L1620.35 1039.54 L1617.11 1036.41 L1613.86 1033.13 L1610.62 1029.68 L1607.38 1026.07 L1604.13 1022.28 L1600.89 1018.29 L1597.65 1014.12 L1594.41 1009.76 L1591.16 1005.22 L1587.92 1000.53 L1584.68 995.694 L1581.43 990.733 L1578.19 985.662 L1574.95 980.497 L1571.7 975.25 L1568.46 969.938 L1565.22 964.574 L1561.98 959.169 L1558.73 953.736 L1555.49 948.287 L1552.25 942.832 L1549 937.381 L1545.76 931.942 L1542.52 926.524 L1539.27 921.135 L1536.03 915.783 L1532.79 910.472 L1529.55 905.21 L1526.3 900.001 L1523.06 894.85 L1519.82 889.762 L1516.57 884.74 L1513.33 879.787 L1510.09 874.905 L1506.84 870.098 L1503.6 865.366 L1500.36 860.712 L1497.11 856.136 L1493.87 851.638 L1490.63 847.219 L1487.39 842.878 L1484.14 838.615 L1480.9 834.429 L1477.66 830.317 L1474.41 826.279 L1471.17 822.311 L1467.93 818.411 L1464.68 814.575 L1461.44 810.801 L1458.2 807.084 L1454.96 803.42 L1451.71 799.803 L1448.47 796.229 L1445.23 792.692 L1441.98 789.186 L1438.74 785.703 L1435.5 782.237 L1432.25 778.781 L1429.01 775.326 L1425.77 771.865 L1422.53 768.387 L1419.28 764.885 L1416.04 761.349 L1412.8 757.769 L1409.55 754.136 L1406.31 750.438 L1403.07 746.666 L1399.82 742.812 L1396.58 738.874 L1393.34 734.853 L1390.1 730.751 L1386.85 726.568 L1383.61 722.305 L1380.37 717.962 L1377.12 713.541 L1373.88 709.041 L1370.64 704.465 L1367.39 699.811 L1364.15 695.082 L1360.91 690.276 L1357.66 685.396 L1354.42 680.451 L1351.18 675.449 L1347.94 670.399 L1344.69 665.311 L1341.45 660.194 L1338.21 655.055 L1334.96 649.904 L1331.72 644.747 L1328.48 639.594 L1325.23 634.45 L1321.99 629.324 L1318.75 624.22 L1315.51 619.146 L1312.26 614.107 L1309.02 609.108 L1305.78 604.155 L1302.53 599.25 L1299.29 594.4 L1296.05 589.606 L1292.8 584.874 L1289.56 580.205 L1286.32 575.602 L1283.08 571.068 L1279.83 566.604 L1276.59 562.212 L1273.35 557.894 L1270.1 553.65 L1266.86 549.481 L1263.62 545.387 L1260.37 541.368 L1257.13 537.425 L1253.89 533.555 L1250.64 529.759 L1247.4 526.036 L1244.16 522.383 L1240.92 518.798 L1237.67 515.281 L1234.43 511.827 L1231.19 508.435 L1227.94 505.101 L1224.7 501.822 L1221.46 498.593 L1218.21 495.412 L1214.97 492.273 L1211.73 489.172 L1208.49 486.103 L1205.24 483.06 L1202 480.04 L1198.76 477.034 L1195.51 474.037 L1192.27 471.041 L1189.03 468.041 L1185.78 465.028 L1182.54 461.995 L1179.3 458.934 L1176.06 455.84 L1172.81 452.713 L1169.57 449.557 L1166.33 446.375 L1163.08 443.169 L1159.84 439.942 L1156.6 436.696 L1153.35 433.432 L1150.11 430.151 L1146.87 426.854 L1143.62 423.541 L1140.38 420.213 L1137.14 416.867 L1133.9 413.503 L1130.65 410.118 L1127.41 406.71 L1124.17 403.276 L1120.92 399.812 L1117.68 396.315 L1114.44 392.778 L1111.19 389.198 L1107.95 385.569 L1104.71 381.885 L1101.47 378.141 L1098.22 374.33 L1094.98 370.45 L1091.74 366.496 L1088.49 362.464 L1085.25 358.352 L1082.01 354.155 L1078.76 349.872 L1075.52 345.51 L1072.28 341.077 L1069.04 336.583 L1065.79 332.035 L1062.55 327.442 L1059.31 322.812 L1056.06 318.151 L1052.82 313.466 L1049.58 308.763 L1046.33 304.048 L1043.09 299.325 L1039.85 294.6 L1036.6 289.876 L1033.36 285.156 L1030.12 280.443 L1026.88 275.739 L1023.63 271.047 L1020.39 266.368 L1017.15 261.702 L1013.9 257.051 L1010.66 252.414 L1007.42 247.793 L1004.17 243.185 L1000.93 238.593 L997.688 234.014 L994.445 229.449 L991.202 224.904 L987.959 220.383 L984.716 215.893 L981.473 211.44 L978.23 207.028 L974.987 202.663 L971.744 198.349 L968.501 194.092 L965.258 189.897 L962.015 185.767 L958.772 181.706 L955.529 177.719 L952.286 173.809 L949.043 169.979 L945.8 166.232 L942.557 162.572 L939.314 159.001 L936.071 155.521 L932.828 152.134 L929.585 148.843 L926.342 145.649 L923.099 142.554 L919.856 139.559 L916.613 136.666 L913.37 133.875 L910.127 131.186 L906.884 128.601 L903.641 126.12 L900.398 123.743 L897.155 121.471 L893.911 119.302 L890.668 117.237 L887.425 115.274 L884.182 113.414 L880.939 111.655 L877.696 109.996 L874.453 108.436 L871.21 106.973 L867.967 105.605 L864.724 104.331 L861.481 103.147 L858.238 102.053 L854.995 101.044 L851.752 100.118 L848.509 99.272 L845.266 98.5021 L842.023 97.8048 L838.78 97.176 L835.537 96.6114 L832.294 96.1064 L829.051 95.6562 L825.808 95.2556 L822.565 94.8992 L819.322 94.5814 L816.079 94.2961 L812.836 94.0371 L809.593 93.7982 L806.35 93.5725 L803.107 93.3535 L799.864 93.1343 L796.621 92.9094 L793.378 92.6798 L790.135 92.4478 L786.892 92.2157 L783.648 91.9855 L780.405 91.7593 L777.162 91.5386 L773.919 91.325 L770.676 91.1196 L767.433 90.9231 L764.19 90.7362 L760.947 90.5589 L757.704 90.391 L754.461 90.2319 L751.218 90.0809 L747.975 89.9366 L744.732 89.7975 L741.489 89.662 L738.246 89.5279 L735.003 89.3932 L731.76 89.2556 L728.517 89.1136 L725.274 88.9694 L722.031 88.8258 L718.788 88.6858 L715.545 88.552 L712.302 88.427 L709.059 88.3132 L705.816 88.2129 L702.573 88.128 L699.33 88.0605 L696.087 88.0117 L692.844 87.9832 L689.601 87.9763 L686.358 87.9919 L683.115 88.0311 L679.872 88.0949 L676.629 88.185 L673.385 88.3068 L670.142 88.4667 L666.899 88.6709 L663.656 88.9253 L660.413 89.2358 L657.17 89.608 L653.927 90.047 L650.684 90.558 L647.441 91.1456 L644.198 91.8142 L640.955 92.5678 L637.712 93.4101 L634.469 94.3446 L631.226 95.3743 L627.983 96.502 L624.74 97.7302 L621.497 99.061 L618.254 100.496 L615.011 102.038 L611.768 103.686 L608.525 105.443 L605.282 107.309 L602.039 109.285 L598.796 111.37 L595.553 113.565 L592.31 115.869 L589.067 118.282 L585.824 120.803 L582.581 123.431 L579.338 126.165 L576.095 129.002 L572.852 131.941 L569.609 134.98 L566.366 138.116 L563.122 141.347 L559.879 144.669 L556.636 148.079 L553.393 151.574 L550.15 155.149 L546.907 158.8 L543.664 162.522 L540.421 166.31 L537.178 170.159 L533.935 174.061 L530.692 178.012 L527.449 182.004 L524.206 186.03 L520.963 190.082 L517.72 194.151 L514.477 198.23 L511.234 202.308 L507.991 206.376 L504.748 210.424 L501.505 214.441 L498.262 218.416 L495.019 222.337 L491.776 226.192 L488.533 229.971 L485.29 233.659 L482.047 237.244 L478.804 240.715 L475.561 244.059 L472.318 247.269 L469.075 250.34 L465.832 253.267 L462.589 256.042 L459.346 258.662 L456.103 261.12 L452.859 263.412 L449.616 265.532 L446.373 267.476 L443.13 269.239 L439.887 270.816 L436.644 272.203 L433.401 273.399 L430.158 274.41 L426.915 275.247 L423.672 275.92 L420.429 276.44 L417.186 276.815 L413.943 277.056 L410.7 277.173 L407.457 277.173 L404.214 277.067 L400.971 276.862 L397.728 276.566 L394.485 276.187 L391.242 275.733 L387.999 275.209 L384.756 274.623 L381.513 273.981 L378.27 273.288 L375.027 272.549 L371.784 271.77 L368.541 270.955 L365.298 270.11 L362.055 269.236 L358.812 268.34 L355.569 267.423 L352.326 266.49 L349.083 265.544 L345.84 264.586 L342.596 263.621 L339.353 262.65 L336.11 261.675 L332.867 260.7 L329.624 259.725 L326.381 258.752 L323.138 257.783 L319.895 256.82 L316.652 255.864 L313.409 254.915 L310.166 253.976 L306.923 253.048 L303.68 252.13 L300.437 251.225 L297.194 250.333 L293.951 249.454 L290.708 248.589 L287.465 247.74 L284.222 246.905 L280.979 246.087 L277.736 245.284 L274.493 244.498 L271.25 243.729 L268.007 242.977 L264.764 242.242 L261.521 241.524 L258.278 240.824 L255.035 240.142  Z" fill="#3da44d" fill-rule="evenodd" fill-opacity="0.1"/>
<polyline clip-path="url(#clip102)" style="stroke:#3da44d; stroke-linecap:round; stroke-linejoin:round; stroke-width:8; stroke-opacity:1; fill:none" points="255.035,616.068 258.278,614.271 261.521,612.453 264.764,610.613 268.007,608.752 271.25,606.87 274.493,604.965 277.736,603.039 280.979,601.09 284.222,599.119 287.465,597.126 290.708,595.11 293.951,593.071 297.194,591.009 300.437,588.924 303.68,586.815 306.923,584.682 310.166,582.526 313.409,580.346 316.652,578.142 319.895,575.913 323.138,573.66 326.381,571.382 329.624,569.079 332.867,566.751 336.11,564.398 339.353,562.019 342.596,559.615 345.84,557.186 349.083,554.73 352.326,552.248 355.569,549.74 358.812,547.206 362.055,544.645 365.298,542.057 368.541,539.443 371.784,536.801 375.027,534.133 378.27,531.437 381.513,528.713 384.756,525.962 387.999,523.184 391.242,520.378 394.485,517.543 397.728,514.681 400.971,511.79 404.214,508.872 407.457,505.924 410.7,502.949 413.943,499.944 417.186,496.911 420.429,493.85 423.672,490.759 426.915,487.64 430.158,484.491 433.401,481.314 436.644,478.107 439.887,474.872 443.13,471.611 446.373,468.327 449.616,465.024 452.859,461.704 456.103,458.372 459.346,455.03 462.589,451.682 465.832,448.331 469.075,444.98 472.318,441.634 475.561,438.294 478.804,434.965 482.047,431.65 485.29,428.349 488.533,425.061 491.776,421.787 495.019,418.526 498.262,415.279 501.505,412.045 504.748,408.824 507.991,405.616 511.234,402.421 514.477,399.24 517.72,396.072 520.963,392.918 524.206,389.778 527.449,386.651 530.692,383.539 533.935,380.442 537.178,377.36 540.421,374.293 543.664,371.242 546.907,368.208 550.15,365.19 553.393,362.191 556.636,359.209 559.879,356.246 563.122,353.303 566.366,350.38 569.609,347.478 572.852,344.598 576.095,341.742 579.338,338.909 582.581,336.101 585.824,333.319 589.067,330.565 592.31,327.839 595.553,325.142 598.796,322.476 602.039,319.843 605.282,317.243 608.525,314.678 611.768,312.15 615.011,309.66 618.254,307.211 621.497,304.802 624.74,302.437 627.983,300.118 631.226,297.845 634.469,295.622 637.712,293.449 640.955,291.331 644.198,289.267 647.441,287.262 650.684,285.316 653.927,283.433 657.17,281.615 660.413,279.865 663.656,278.185 666.899,276.579 670.142,275.048 673.385,273.596 676.629,272.226 679.872,270.941 683.115,269.743 686.358,268.634 689.601,267.61 692.844,266.674 696.087,265.823 699.33,265.057 702.573,264.377 705.816,263.782 709.059,263.272 712.302,262.847 715.545,262.507 718.788,262.252 722.031,262.084 725.274,262.001 728.517,262.005 731.76,262.096 735.003,262.274 738.246,262.538 741.489,262.883 744.732,263.308 747.975,263.809 751.218,264.385 754.461,265.032 757.704,265.748 760.947,266.531 764.19,267.379 767.433,268.289 770.676,269.26 773.919,270.289 777.162,271.374 780.405,272.514 783.648,273.707 786.892,274.952 790.135,276.245 793.378,277.587 796.621,278.976 799.864,280.409 803.107,281.887 806.35,283.406 809.593,284.966 812.836,286.566 816.079,288.203 819.322,289.876 822.565,291.584 825.808,293.326 829.051,295.1 832.294,296.906 835.537,298.742 838.78,300.607 842.023,302.5 845.266,304.421 848.509,306.368 851.752,308.342 854.995,310.34 858.238,312.362 861.481,314.409 864.724,316.478 867.967,318.57 871.21,320.684 874.453,322.82 877.696,324.978 880.939,327.156 884.182,329.355 887.425,331.575 890.668,333.816 893.911,336.077 897.155,338.358 900.398,340.659 903.641,342.981 906.884,345.324 910.127,347.686 913.37,350.07 916.613,352.475 919.856,354.901 923.099,357.349 926.342,359.818 929.585,362.311 932.828,364.826 936.071,367.365 939.314,369.927 942.557,372.515 945.8,375.128 949.043,377.767 952.286,380.433 955.529,383.127 958.772,385.849 962.015,388.601 965.258,391.384 968.501,394.198 971.744,397.044 974.987,399.925 978.23,402.84 981.473,405.792 984.716,408.781 987.959,411.809 991.202,414.878 994.445,417.988 997.688,421.141 1000.93,424.339 1004.17,427.579 1007.42,430.861 1010.66,434.183 1013.9,437.543 1017.15,440.939 1020.39,444.37 1023.63,447.834 1026.88,451.331 1030.12,454.858 1033.36,458.415 1036.6,461.999 1039.85,465.611 1043.09,469.248 1046.33,472.909 1049.58,476.594 1052.82,480.302 1056.06,484.03 1059.31,487.779 1062.55,491.547 1065.79,495.333 1069.04,499.137 1072.28,502.957 1075.52,506.793 1078.76,510.645 1082.01,514.51 1085.25,518.389 1088.49,522.286 1091.74,526.203 1094.98,530.145 1098.22,534.115 1101.47,538.117 1104.71,542.154 1107.95,546.224 1111.19,550.325 1114.44,554.456 1117.68,558.614 1120.92,562.798 1124.17,567.005 1127.41,571.234 1130.65,575.482 1133.9,579.748 1137.14,584.03 1140.38,588.326 1143.62,592.634 1146.87,596.952 1150.11,601.28 1153.35,605.614 1156.6,609.954 1159.84,614.297 1163.08,618.642 1166.33,622.988 1169.57,627.332 1172.81,631.673 1176.06,636.009 1179.3,640.339 1182.54,644.662 1185.78,648.977 1189.03,653.284 1192.27,657.583 1195.51,661.876 1198.76,666.161 1202,670.44 1205.24,674.712 1208.49,678.978 1211.73,683.237 1214.97,687.491 1218.21,691.739 1221.46,695.981 1224.7,700.218 1227.94,704.449 1231.19,708.676 1234.43,712.899 1237.67,717.116 1240.92,721.33 1244.16,725.54 1247.4,729.745 1250.64,733.948 1253.89,738.147 1257.13,742.343 1260.37,746.536 1263.62,750.726 1266.86,754.914 1270.1,759.1 1273.35,763.284 1276.59,767.466 1279.83,771.647 1283.08,775.827 1286.32,780.005 1289.56,784.182 1292.8,788.359 1296.05,792.536 1299.29,796.712 1302.53,800.888 1305.78,805.064 1309.02,809.24 1312.26,813.417 1315.51,817.595 1318.75,821.774 1321.99,825.953 1325.23,830.134 1328.48,834.316 1331.72,838.5 1334.96,842.685 1338.21,846.872 1341.45,851.061 1344.69,855.252 1347.94,859.446 1351.18,863.641 1354.42,867.839 1357.66,872.04 1360.91,876.243 1364.15,880.448 1367.39,884.655 1370.64,888.863 1373.88,893.071 1377.12,897.277 1380.37,901.482 1383.61,905.683 1386.85,909.88 1390.1,914.072 1393.34,918.257 1396.58,922.436 1399.82,926.606 1403.07,930.767 1406.31,934.917 1409.55,939.057 1412.8,943.187 1416.04,947.309 1419.28,951.421 1422.53,955.524 1425.77,959.62 1429.01,963.707 1432.25,967.787 1435.5,971.859 1438.74,975.924 1441.98,979.982 1445.23,984.033 1448.47,988.078 1451.71,992.116 1454.96,996.148 1458.2,1000.17 1461.44,1004.19 1464.68,1008.21 1467.93,1012.21 1471.17,1016.21 1474.41,1020.21 1477.66,1024.2 1480.9,1028.18 1484.14,1032.15 1487.39,1036.12 1490.63,1040.08 1493.87,1044.04 1497.11,1047.99 1500.36,1051.92 1503.6,1055.86 1506.84,1059.78 1510.09,1063.69 1513.33,1067.6 1516.57,1071.5 1519.82,1075.38 1523.06,1079.26 1526.3,1083.12 1529.55,1086.98 1532.79,1090.82 1536.03,1094.64 1539.27,1098.46 1542.52,1102.26 1545.76,1106.04 1549,1109.81 1552.25,1113.57 1555.49,1117.3 1558.73,1121.02 1561.98,1124.71 1565.22,1128.39 1568.46,1132.04 1571.7,1135.68 1574.95,1139.29 1578.19,1142.87 1581.43,1146.42 1584.68,1149.95 1587.92,1153.45 1591.16,1156.92 1594.41,1160.36 1597.65,1163.76 1600.89,1167.13 1604.13,1170.47 1607.38,1173.78 1610.62,1177.06 1613.86,1180.32 1617.11,1183.56 1620.35,1186.78 1623.59,1189.97 1626.84,1193.13 1630.08,1196.27 1633.32,1199.38 1636.57,1202.45 1639.81,1205.49 1643.05,1208.5 1646.29,1211.46 1649.54,1214.39 1652.78,1217.27 1656.02,1220.11 1659.27,1222.91 1662.51,1225.65 1665.75,1228.35 1669,1230.99 1672.24,1233.57 1675.48,1236.1 1678.72,1238.56 1681.97,1240.96 1685.21,1243.29 1688.45,1245.56 1691.7,1247.74 1694.94,1249.86 1698.18,1251.9 1701.43,1253.86 1704.67,1255.75 1707.91,1257.58 1711.15,1259.33 1714.4,1261.01 1717.64,1262.63 1720.88,1264.18 1724.13,1265.66 1727.37,1267.08 1730.61,1268.43 1733.86,1269.73 1737.1,1270.95 1740.34,1272.12 1743.59,1273.22 1746.83,1274.26 1750.07,1275.24 1753.31,1276.15 1756.56,1277 1759.8,1277.79 1763.04,1278.52 1766.29,1279.19 1769.53,1279.79 1772.77,1280.33 1776.02,1280.8 1779.26,1281.21 1782.5,1281.56 1785.74,1281.84 1788.99,1282.05 1792.23,1282.19 1795.47,1282.27 1798.72,1282.27 1801.96,1282.2 1805.2,1282.06 1808.45,1281.85 1811.69,1281.56 1814.93,1281.19 1818.17,1280.75 1821.42,1280.22 1824.66,1279.62 1827.9,1278.94 1831.15,1278.18 1834.39,1277.33 1837.63,1276.41 1840.88,1275.41 1844.12,1274.32 1847.36,1273.16 1850.61,1271.91 1853.85,1270.57 1857.09,1269.16 1860.33,1267.66 1863.58,1266.09 1866.82,1264.43 1870.06,1262.7 1873.31,1260.88 1876.55,1258.99 1879.79,1257.01 1883.04,1254.96 1886.28,1252.83 1889.52,1250.63 1892.76,1248.34 1896.01,1245.99 1899.25,1243.57 1902.49,1241.08 1905.74,1238.53 1908.98,1235.93 1912.22,1233.27 1915.47,1230.55 1918.71,1227.79 1921.95,1224.98 1925.19,1222.12 1928.44,1219.22 1931.68,1216.28 1934.92,1213.31 1938.17,1210.29 1941.41,1207.24 1944.65,1204.16 1947.9,1201.05 1951.14,1197.92 1954.38,1194.75 1957.63,1191.56 1960.87,1188.35 1964.11,1185.12 1967.35,1181.87 1970.6,1178.6 1973.84,1175.31 1977.08,1172.01 1980.33,1168.7 1983.57,1165.38 1986.81,1162.04 1990.06,1158.7 1993.3,1155.34 1996.54,1151.99 1999.78,1148.62 2003.03,1145.25 2006.27,1141.88 2009.51,1138.51 2012.76,1135.14 2016,1131.76 2019.24,1128.39 2022.49,1125.02 2025.73,1121.65 2028.97,1118.29 2032.21,1114.93 2035.46,1111.58 2038.7,1108.23 2041.94,1104.89 2045.19,1101.56 2048.43,1098.23 2051.67,1094.92 2054.92,1091.61 2058.16,1088.32 2061.4,1085.04 2064.65,1081.77 2067.89,1078.51 2071.13,1075.26 2074.37,1072.03 2077.62,1068.81 2080.86,1065.61 2084.1,1062.42 2087.35,1059.24 2090.59,1056.08 2093.83,1052.94 2097.08,1049.82 2100.32,1046.71 2103.56,1043.61 2106.8,1040.54 2110.05,1037.48 2113.29,1034.44 2116.53,1031.42 2119.78,1028.42 2123.02,1025.44 2126.26,1022.47 2129.51,1019.53 2132.75,1016.61 2135.99,1013.7 2139.23,1010.82 2142.48,1007.95 2145.72,1005.11 2148.96,1002.28 2152.21,999.482 2155.45,996.701 2158.69,993.94 2161.94,991.2 2165.18,988.482 2168.42,985.785 2171.67,983.11 2174.91,980.456 2178.15,977.824 2181.39,975.213 2184.64,972.625 2187.88,970.058 2191.12,967.513 2194.37,964.99 2197.61,962.489 2200.85,960.01 2204.1,957.553 2207.34,955.119 2210.58,952.706 2213.82,950.316 2217.07,947.947 2220.31,945.601 2223.55,943.277 2226.8,940.975 2230.04,938.696 2233.28,936.438 2236.53,934.203 2239.77,931.99 2243.01,929.798 2246.25,927.629 2249.5,925.482 2252.74,923.357 2255.98,921.254 2259.23,919.173 2262.47,917.114 2265.71,915.076 2268.96,913.06 2272.2,911.066 2275.44,909.093 2278.69,907.14 2281.93,905.209 2285.17,903.299 2288.41,901.409 2291.66,899.54 "/>
<path clip-path="url(#clip100)" d="M1953.46 302.578 L2280.8 302.578 L2280.8 95.2176 L1953.46 95.2176  Z" fill="#ffffff" fill-rule="evenodd" fill-opacity="1"/>
<polyline clip-path="url(#clip100)" style="stroke:#000000; stroke-linecap:round; stroke-linejoin:round; stroke-width:4; stroke-opacity:1; fill:none" points="1953.46,302.578 2280.8,302.578 2280.8,95.2176 1953.46,95.2176 1953.46,302.578 "/>
<polyline clip-path="url(#clip100)" style="stroke:#009af9; stroke-linecap:round; stroke-linejoin:round; stroke-width:4; stroke-opacity:1; fill:none" points="1977.44,147.058 2121.36,147.058 "/>
<path clip-path="url(#clip100)" d="M2152.76 131.051 L2152.76 138.412 L2161.53 138.412 L2161.53 141.722 L2152.76 141.722 L2152.76 155.796 Q2152.76 158.967 2153.61 159.87 Q2154.49 160.773 2157.16 160.773 L2161.53 160.773 L2161.53 164.338 L2157.16 164.338 Q2152.23 164.338 2150.35 162.509 Q2148.48 160.657 2148.48 155.796 L2148.48 141.722 L2145.35 141.722 L2145.35 138.412 L2148.48 138.412 L2148.48 131.051 L2152.76 131.051 Z" fill="#000000" fill-rule="nonzero" fill-opacity="1" /><path clip-path="url(#clip100)" d="M2182.16 142.393 Q2181.44 141.977 2180.58 141.791 Q2179.75 141.583 2178.73 141.583 Q2175.12 141.583 2173.17 143.944 Q2171.25 146.282 2171.25 150.68 L2171.25 164.338 L2166.97 164.338 L2166.97 138.412 L2171.25 138.412 L2171.25 142.44 Q2172.6 140.078 2174.75 138.944 Q2176.9 137.787 2179.98 137.787 Q2180.42 137.787 2180.95 137.856 Q2181.48 137.903 2182.13 138.018 L2182.16 142.393 Z" fill="#000000" fill-rule="nonzero" fill-opacity="1" /><path clip-path="url(#clip100)" d="M2186.18 154.106 L2186.18 138.412 L2190.44 138.412 L2190.44 153.944 Q2190.44 157.625 2191.88 159.476 Q2193.31 161.305 2196.18 161.305 Q2199.63 161.305 2201.62 159.106 Q2203.64 156.907 2203.64 153.111 L2203.64 138.412 L2207.9 138.412 L2207.9 164.338 L2203.64 164.338 L2203.64 160.356 Q2202.09 162.717 2200.03 163.875 Q2197.99 165.009 2195.28 165.009 Q2190.81 165.009 2188.5 162.231 Q2186.18 159.453 2186.18 154.106 M2196.9 137.787 L2196.9 137.787 Z" fill="#000000" fill-rule="nonzero" fill-opacity="1" /><path clip-path="url(#clip100)" d="M2220.88 131.051 L2220.88 138.412 L2229.66 138.412 L2229.66 141.722 L2220.88 141.722 L2220.88 155.796 Q2220.88 158.967 2221.74 159.87 Q2222.62 160.773 2225.28 160.773 L2229.66 160.773 L2229.66 164.338 L2225.28 164.338 Q2220.35 164.338 2218.48 162.509 Q2216.6 160.657 2216.6 155.796 L2216.6 141.722 L2213.48 141.722 L2213.48 138.412 L2216.6 138.412 L2216.6 131.051 L2220.88 131.051 Z" fill="#000000" fill-rule="nonzero" fill-opacity="1" /><path clip-path="url(#clip100)" d="M2256.81 148.689 L2256.81 164.338 L2252.55 164.338 L2252.55 148.828 Q2252.55 145.148 2251.11 143.319 Q2249.68 141.49 2246.81 141.49 Q2243.36 141.49 2241.37 143.69 Q2239.38 145.889 2239.38 149.685 L2239.38 164.338 L2235.1 164.338 L2235.1 128.319 L2239.38 128.319 L2239.38 142.44 Q2240.91 140.102 2242.97 138.944 Q2245.05 137.787 2247.76 137.787 Q2252.23 137.787 2254.52 140.565 Q2256.81 143.319 2256.81 148.689 Z" fill="#000000" fill-rule="nonzero" fill-opacity="1" /><circle clip-path="url(#clip100)" cx="2049.4" cy="198.898" r="20.48" fill="#e26f46" fill-rule="evenodd" fill-opacity="1" stroke="#000000" stroke-opacity="1" stroke-width="4.55111"/>
<path clip-path="url(#clip100)" d="M2164.26 194.187 L2164.26 180.159 L2168.52 180.159 L2168.52 216.178 L2164.26 216.178 L2164.26 212.289 Q2162.92 214.603 2160.86 215.738 Q2158.82 216.849 2155.95 216.849 Q2151.25 216.849 2148.29 213.099 Q2145.35 209.349 2145.35 203.238 Q2145.35 197.127 2148.29 193.377 Q2151.25 189.627 2155.95 189.627 Q2158.82 189.627 2160.86 190.761 Q2162.92 191.872 2164.26 194.187 M2149.75 203.238 Q2149.75 207.937 2151.67 210.622 Q2153.61 213.284 2156.99 213.284 Q2160.37 213.284 2162.32 210.622 Q2164.26 207.937 2164.26 203.238 Q2164.26 198.539 2162.32 195.877 Q2160.37 193.192 2156.99 193.192 Q2153.61 193.192 2151.67 195.877 Q2149.75 198.539 2149.75 203.238 Z" fill="#000000" fill-rule="nonzero" fill-opacity="1" /><path clip-path="url(#clip100)" d="M2189.08 203.145 Q2183.92 203.145 2181.92 204.326 Q2179.93 205.506 2179.93 208.354 Q2179.93 210.622 2181.42 211.965 Q2182.92 213.284 2185.49 213.284 Q2189.03 213.284 2191.16 210.784 Q2193.31 208.261 2193.31 204.094 L2193.31 203.145 L2189.08 203.145 M2197.57 201.386 L2197.57 216.178 L2193.31 216.178 L2193.31 212.242 Q2191.85 214.603 2189.68 215.738 Q2187.5 216.849 2184.36 216.849 Q2180.37 216.849 2178.01 214.627 Q2175.67 212.381 2175.67 208.631 Q2175.67 204.256 2178.59 202.034 Q2181.53 199.812 2187.34 199.812 L2193.31 199.812 L2193.31 199.395 Q2193.31 196.455 2191.37 194.858 Q2189.45 193.238 2185.95 193.238 Q2183.73 193.238 2181.62 193.77 Q2179.52 194.303 2177.57 195.367 L2177.57 191.432 Q2179.91 190.53 2182.11 190.09 Q2184.31 189.627 2186.39 189.627 Q2192.02 189.627 2194.79 192.543 Q2197.57 195.46 2197.57 201.386 Z" fill="#000000" fill-rule="nonzero" fill-opacity="1" /><path clip-path="url(#clip100)" d="M2210.56 182.891 L2210.56 190.252 L2219.33 190.252 L2219.33 193.562 L2210.56 193.562 L2210.56 207.636 Q2210.56 210.807 2211.42 211.71 Q2212.29 212.613 2214.96 212.613 L2219.33 212.613 L2219.33 216.178 L2214.96 216.178 Q2210.03 216.178 2208.15 214.349 Q2206.28 212.497 2206.28 207.636 L2206.28 193.562 L2203.15 193.562 L2203.15 190.252 L2206.28 190.252 L2206.28 182.891 L2210.56 182.891 Z" fill="#000000" fill-rule="nonzero" fill-opacity="1" /><path clip-path="url(#clip100)" d="M2236.72 203.145 Q2231.55 203.145 2229.56 204.326 Q2227.57 205.506 2227.57 208.354 Q2227.57 210.622 2229.05 211.965 Q2230.56 213.284 2233.13 213.284 Q2236.67 213.284 2238.8 210.784 Q2240.95 208.261 2240.95 204.094 L2240.95 203.145 L2236.72 203.145 M2245.21 201.386 L2245.21 216.178 L2240.95 216.178 L2240.95 212.242 Q2239.49 214.603 2237.32 215.738 Q2235.14 216.849 2231.99 216.849 Q2228.01 216.849 2225.65 214.627 Q2223.31 212.381 2223.31 208.631 Q2223.31 204.256 2226.23 202.034 Q2229.17 199.812 2234.98 199.812 L2240.95 199.812 L2240.95 199.395 Q2240.95 196.455 2239.01 194.858 Q2237.09 193.238 2233.59 193.238 Q2231.37 193.238 2229.26 193.77 Q2227.16 194.303 2225.21 195.367 L2225.21 191.432 Q2227.55 190.53 2229.75 190.09 Q2231.95 189.627 2234.03 189.627 Q2239.66 189.627 2242.43 192.543 Q2245.21 195.46 2245.21 201.386 Z" fill="#000000" fill-rule="nonzero" fill-opacity="1" /><polyline clip-path="url(#clip100)" style="stroke:#3da44d; stroke-linecap:round; stroke-linejoin:round; stroke-width:8; stroke-opacity:1; fill:none" points="1977.44,250.738 2121.36,250.738 "/>
<path clip-path="url(#clip100)" d="M2170.91 263.087 L2170.91 253.805 L2163.27 253.805 L2163.27 249.962 L2175.54 249.962 L2175.54 264.8 Q2172.83 266.721 2169.56 267.717 Q2166.3 268.689 2162.6 268.689 Q2154.49 268.689 2149.91 263.967 Q2145.35 259.221 2145.35 250.772 Q2145.35 242.3 2149.91 237.578 Q2154.49 232.833 2162.6 232.833 Q2165.98 232.833 2169.01 233.666 Q2172.06 234.499 2174.63 236.12 L2174.63 241.096 Q2172.04 238.897 2169.12 237.786 Q2166.21 236.675 2162.99 236.675 Q2156.65 236.675 2153.45 240.217 Q2150.28 243.758 2150.28 250.772 Q2150.28 257.763 2153.45 261.305 Q2156.65 264.846 2162.99 264.846 Q2165.47 264.846 2167.41 264.43 Q2169.36 263.99 2170.91 263.087 Z" fill="#000000" fill-rule="nonzero" fill-opacity="1" /><path clip-path="url(#clip100)" d="M2188.75 237.3 L2188.75 250.286 L2194.63 250.286 Q2197.9 250.286 2199.68 248.596 Q2201.46 246.907 2201.46 243.782 Q2201.46 240.68 2199.68 238.99 Q2197.9 237.3 2194.63 237.3 L2188.75 237.3 M2184.08 233.458 L2194.63 233.458 Q2200.44 233.458 2203.41 236.096 Q2206.39 238.712 2206.39 243.782 Q2206.39 248.897 2203.41 251.513 Q2200.44 254.129 2194.63 254.129 L2188.75 254.129 L2188.75 268.018 L2184.08 268.018 L2184.08 233.458 Z" fill="#000000" fill-rule="nonzero" fill-opacity="1" /></svg>
