<?xml version="1.0" encoding="utf-8"?>
<svg xmlns="http://www.w3.org/2000/svg" xmlns:xlink="http://www.w3.org/1999/xlink" width="600" height="400" viewBox="0 0 2400 1600">
<defs>
  <clipPath id="clip070">
    <rect x="0" y="0" width="2400" height="1600"/>
  </clipPath>
</defs>
<path clip-path="url(#clip070)" d="M0 1600 L2400 1600 L2400 0 L0 0  Z" fill="#ffffff" fill-rule="evenodd" fill-opacity="1"/>
<defs>
  <clipPath id="clip071">
    <rect x="480" y="0" width="1681" height="1600"/>
  </clipPath>
</defs>
<path clip-path="url(#clip070)" d="M193.936 1486.45 L2352.76 1486.45 L2352.76 47.2441 L193.936 47.2441  Z" fill="#ffffff" fill-rule="evenodd" fill-opacity="1"/>
<defs>
  <clipPath id="clip072">
    <rect x="193" y="47" width="2160" height="1440"/>
  </clipPath>
</defs>
<polyline clip-path="url(#clip072)" style="stroke:#000000; stroke-linecap:round; stroke-linejoin:round; stroke-width:2; stroke-opacity:0.1; fill:none" points="255.035,1486.45 255.035,47.2441 "/>
<polyline clip-path="url(#clip072)" style="stroke:#000000; stroke-linecap:round; stroke-linejoin:round; stroke-width:2; stroke-opacity:0.1; fill:none" points="579.338,1486.45 579.338,47.2441 "/>
<polyline clip-path="url(#clip072)" style="stroke:#000000; stroke-linecap:round; stroke-linejoin:round; stroke-width:2; stroke-opacity:0.1; fill:none" points="903.641,1486.45 903.641,47.2441 "/>
<polyline clip-path="url(#clip072)" style="stroke:#000000; stroke-linecap:round; stroke-linejoin:round; stroke-width:2; stroke-opacity:0.1; fill:none" points="1227.94,1486.45 1227.94,47.2441 "/>
<polyline clip-path="url(#clip072)" style="stroke:#000000; stroke-linecap:round; stroke-linejoin:round; stroke-width:2; stroke-opacity:0.1; fill:none" points="1552.25,1486.45 1552.25,47.2441 "/>
<polyline clip-path="url(#clip072)" style="stroke:#000000; stroke-linecap:round; stroke-linejoin:round; stroke-width:2; stroke-opacity:0.1; fill:none" points="1876.55,1486.45 1876.55,47.2441 "/>
<polyline clip-path="url(#clip072)" style="stroke:#000000; stroke-linecap:round; stroke-linejoin:round; stroke-width:2; stroke-opacity:0.1; fill:none" points="2200.85,1486.45 2200.85,47.2441 "/>
<polyline clip-path="url(#clip072)" style="stroke:#000000; stroke-linecap:round; stroke-linejoin:round; stroke-width:2; stroke-opacity:0.1; fill:none" points="193.936,1341.35 2352.76,1341.35 "/>
<polyline clip-path="url(#clip072)" style="stroke:#000000; stroke-linecap:round; stroke-linejoin:round; stroke-width:2; stroke-opacity:0.1; fill:none" points="193.936,1047.19 2352.76,1047.19 "/>
<polyline clip-path="url(#clip072)" style="stroke:#000000; stroke-linecap:round; stroke-linejoin:round; stroke-width:2; stroke-opacity:0.1; fill:none" points="193.936,753.031 2352.76,753.031 "/>
<polyline clip-path="url(#clip072)" style="stroke:#000000; stroke-linecap:round; stroke-linejoin:round; stroke-width:2; stroke-opacity:0.1; fill:none" points="193.936,458.869 2352.76,458.869 "/>
<polyline clip-path="url(#clip072)" style="stroke:#000000; stroke-linecap:round; stroke-linejoin:round; stroke-width:2; stroke-opacity:0.1; fill:none" points="193.936,164.707 2352.76,164.707 "/>
<polyline clip-path="url(#clip070)" style="stroke:#000000; stroke-linecap:round; stroke-linejoin:round; stroke-width:4; stroke-opacity:1; fill:none" points="193.936,1486.45 2352.76,1486.45 "/>
<polyline clip-path="url(#clip070)" style="stroke:#000000; stroke-linecap:round; stroke-linejoin:round; stroke-width:4; stroke-opacity:1; fill:none" points="255.035,1486.45 255.035,1467.55 "/>
<polyline clip-path="url(#clip070)" style="stroke:#000000; stroke-linecap:round; stroke-linejoin:round; stroke-width:4; stroke-opacity:1; fill:none" points="579.338,1486.45 579.338,1467.55 "/>
<polyline clip-path="url(#clip070)" style="stroke:#000000; stroke-linecap:round; stroke-linejoin:round; stroke-width:4; stroke-opacity:1; fill:none" points="903.641,1486.45 903.641,1467.55 "/>
<polyline clip-path="url(#clip070)" style="stroke:#000000; stroke-linecap:round; stroke-linejoin:round; stroke-width:4; stroke-opacity:1; fill:none" points="1227.94,1486.45 1227.94,1467.55 "/>
<polyline clip-path="url(#clip070)" style="stroke:#000000; stroke-linecap:round; stroke-linejoin:round; stroke-width:4; stroke-opacity:1; fill:none" points="1552.25,1486.45 1552.25,1467.55 "/>
<polyline clip-path="url(#clip070)" style="stroke:#000000; stroke-linecap:round; stroke-linejoin:round; stroke-width:4; stroke-opacity:1; fill:none" points="1876.55,1486.45 1876.55,1467.55 "/>
<polyline clip-path="url(#clip070)" style="stroke:#000000; stroke-linecap:round; stroke-linejoin:round; stroke-width:4; stroke-opacity:1; fill:none" points="2200.85,1486.45 2200.85,1467.55 "/>
<path clip-path="url(#clip070)" d="M255.035 1517.37 Q251.424 1517.37 249.595 1520.93 Q247.789 1524.47 247.789 1531.6 Q247.789 1538.71 249.595 1542.27 Q251.424 1545.82 255.035 1545.82 Q258.669 1545.82 260.474 1542.27 Q262.303 1538.71 262.303 1531.6 Q262.303 1524.47 260.474 1520.93 Q258.669 1517.37 255.035 1517.37 M255.035 1513.66 Q260.845 1513.66 263.9 1518.27 Q266.979 1522.85 266.979 1531.6 Q266.979 1540.33 263.9 1544.94 Q260.845 1549.52 255.035 1549.52 Q249.225 1549.52 246.146 1544.94 Q243.09 1540.33 243.09 1531.6 Q243.09 1522.85 246.146 1518.27 Q249.225 1513.66 255.035 1513.66 Z" fill="#000000" fill-rule="nonzero" fill-opacity="1" /><path clip-path="url(#clip070)" d="M569.72 1544.91 L577.358 1544.91 L577.358 1518.55 L569.048 1520.21 L569.048 1515.95 L577.312 1514.29 L581.988 1514.29 L581.988 1544.91 L589.627 1544.91 L589.627 1548.85 L569.72 1548.85 L569.72 1544.91 Z" fill="#000000" fill-rule="nonzero" fill-opacity="1" /><path clip-path="url(#clip070)" d="M898.293 1544.91 L914.613 1544.91 L914.613 1548.85 L892.668 1548.85 L892.668 1544.91 Q895.33 1542.16 899.914 1537.53 Q904.52 1532.88 905.701 1531.53 Q907.946 1529.01 908.826 1527.27 Q909.729 1525.51 909.729 1523.82 Q909.729 1521.07 907.784 1519.33 Q905.863 1517.6 902.761 1517.6 Q900.562 1517.6 898.108 1518.36 Q895.678 1519.13 892.9 1520.68 L892.9 1515.95 Q895.724 1514.82 898.178 1514.24 Q900.631 1513.66 902.668 1513.66 Q908.039 1513.66 911.233 1516.35 Q914.428 1519.03 914.428 1523.52 Q914.428 1525.65 913.617 1527.57 Q912.83 1529.47 910.724 1532.07 Q910.145 1532.74 907.043 1535.95 Q903.942 1539.15 898.293 1544.91 Z" fill="#000000" fill-rule="nonzero" fill-opacity="1" /><path clip-path="url(#clip070)" d="M1232.19 1530.21 Q1235.55 1530.93 1237.42 1533.2 Q1239.32 1535.47 1239.32 1538.8 Q1239.32 1543.92 1235.8 1546.72 Q1232.28 1549.52 1225.8 1549.52 Q1223.63 1549.52 1221.31 1549.08 Q1219.02 1548.66 1216.57 1547.81 L1216.57 1543.29 Q1218.51 1544.43 1220.83 1545.01 Q1223.14 1545.58 1225.66 1545.58 Q1230.06 1545.58 1232.35 1543.85 Q1234.67 1542.11 1234.67 1538.8 Q1234.67 1535.75 1232.52 1534.03 Q1230.39 1532.3 1226.57 1532.3 L1222.54 1532.3 L1222.54 1528.45 L1226.75 1528.45 Q1230.2 1528.45 1232.03 1527.09 Q1233.86 1525.7 1233.86 1523.11 Q1233.86 1520.45 1231.96 1519.03 Q1230.08 1517.6 1226.57 1517.6 Q1224.64 1517.6 1222.45 1518.01 Q1220.25 1518.43 1217.61 1519.31 L1217.61 1515.14 Q1220.27 1514.4 1222.58 1514.03 Q1224.92 1513.66 1226.98 1513.66 Q1232.31 1513.66 1235.41 1516.09 Q1238.51 1518.5 1238.51 1522.62 Q1238.51 1525.49 1236.87 1527.48 Q1235.22 1529.45 1232.19 1530.21 Z" fill="#000000" fill-rule="nonzero" fill-opacity="1" /><path clip-path="url(#clip070)" d="M1555.26 1518.36 L1543.45 1536.81 L1555.26 1536.81 L1555.26 1518.36 M1554.03 1514.29 L1559.91 1514.29 L1559.91 1536.81 L1564.84 1536.81 L1564.84 1540.7 L1559.91 1540.7 L1559.91 1548.85 L1555.26 1548.85 L1555.26 1540.7 L1539.65 1540.7 L1539.65 1536.19 L1554.03 1514.29 Z" fill="#000000" fill-rule="nonzero" fill-opacity="1" /><path clip-path="url(#clip070)" d="M1866.83 1514.29 L1885.18 1514.29 L1885.18 1518.22 L1871.11 1518.22 L1871.11 1526.7 Q1872.13 1526.35 1873.15 1526.19 Q1874.17 1526 1875.18 1526 Q1880.97 1526 1884.35 1529.17 Q1887.73 1532.34 1887.73 1537.76 Q1887.73 1543.34 1884.26 1546.44 Q1880.79 1549.52 1874.47 1549.52 Q1872.29 1549.52 1870.02 1549.15 Q1867.78 1548.78 1865.37 1548.04 L1865.37 1543.34 Q1867.45 1544.47 1869.67 1545.03 Q1871.9 1545.58 1874.37 1545.58 Q1878.38 1545.58 1880.72 1543.48 Q1883.05 1541.37 1883.05 1537.76 Q1883.05 1534.15 1880.72 1532.04 Q1878.38 1529.94 1874.37 1529.94 Q1872.5 1529.94 1870.62 1530.35 Q1868.77 1530.77 1866.83 1531.65 L1866.83 1514.29 Z" fill="#000000" fill-rule="nonzero" fill-opacity="1" /><path clip-path="url(#clip070)" d="M2201.26 1529.7 Q2198.11 1529.7 2196.26 1531.86 Q2194.43 1534.01 2194.43 1537.76 Q2194.43 1541.49 2196.26 1543.66 Q2198.11 1545.82 2201.26 1545.82 Q2204.41 1545.82 2206.23 1543.66 Q2208.09 1541.49 2208.09 1537.76 Q2208.09 1534.01 2206.23 1531.86 Q2204.41 1529.7 2201.26 1529.7 M2210.54 1515.05 L2210.54 1519.31 Q2208.78 1518.48 2206.98 1518.04 Q2205.19 1517.6 2203.43 1517.6 Q2198.8 1517.6 2196.35 1520.72 Q2193.92 1523.85 2193.57 1530.17 Q2194.94 1528.15 2197 1527.09 Q2199.06 1526 2201.54 1526 Q2206.74 1526 2209.75 1529.17 Q2212.79 1532.32 2212.79 1537.76 Q2212.79 1543.08 2209.64 1546.3 Q2206.49 1549.52 2201.26 1549.52 Q2195.26 1549.52 2192.09 1544.94 Q2188.92 1540.33 2188.92 1531.6 Q2188.92 1523.41 2192.81 1518.55 Q2196.7 1513.66 2203.25 1513.66 Q2205.01 1513.66 2206.79 1514.01 Q2208.6 1514.36 2210.54 1515.05 Z" fill="#000000" fill-rule="nonzero" fill-opacity="1" /><polyline clip-path="url(#clip070)" style="stroke:#000000; stroke-linecap:round; stroke-linejoin:round; stroke-width:4; stroke-opacity:1; fill:none" points="193.936,1486.45 193.936,47.2441 "/>
<polyline clip-path="url(#clip070)" style="stroke:#000000; stroke-linecap:round; stroke-linejoin:round; stroke-width:4; stroke-opacity:1; fill:none" points="193.936,1341.35 212.834,1341.35 "/>
<polyline clip-path="url(#clip070)" style="stroke:#000000; stroke-linecap:round; stroke-linejoin:round; stroke-width:4; stroke-opacity:1; fill:none" points="193.936,1047.19 212.834,1047.19 "/>
<polyline clip-path="url(#clip070)" style="stroke:#000000; stroke-linecap:round; stroke-linejoin:round; stroke-width:4; stroke-opacity:1; fill:none" points="193.936,753.031 212.834,753.031 "/>
<polyline clip-path="url(#clip070)" style="stroke:#000000; stroke-linecap:round; stroke-linejoin:round; stroke-width:4; stroke-opacity:1; fill:none" points="193.936,458.869 212.834,458.869 "/>
<polyline clip-path="url(#clip070)" style="stroke:#000000; stroke-linecap:round; stroke-linejoin:round; stroke-width:4; stroke-opacity:1; fill:none" points="193.936,164.707 212.834,164.707 "/>
<path clip-path="url(#clip070)" d="M50.9921 1341.81 L80.6679 1341.81 L80.6679 1345.74 L50.9921 1345.74 L50.9921 1341.81 Z" fill="#000000" fill-rule="nonzero" fill-opacity="1" /><path clip-path="url(#clip070)" d="M91.5706 1354.7 L99.2095 1354.7 L99.2095 1328.33 L90.8993 1330 L90.8993 1325.74 L99.1632 1324.07 L103.839 1324.07 L103.839 1354.7 L111.478 1354.7 L111.478 1358.63 L91.5706 1358.63 L91.5706 1354.7 Z" fill="#000000" fill-rule="nonzero" fill-opacity="1" /><path clip-path="url(#clip070)" d="M120.922 1352.75 L125.807 1352.75 L125.807 1358.63 L120.922 1358.63 L120.922 1352.75 Z" fill="#000000" fill-rule="nonzero" fill-opacity="1" /><path clip-path="url(#clip070)" d="M145.992 1327.15 Q142.381 1327.15 140.552 1330.72 Q138.746 1334.26 138.746 1341.39 Q138.746 1348.5 140.552 1352.06 Q142.381 1355.6 145.992 1355.6 Q149.626 1355.6 151.431 1352.06 Q153.26 1348.5 153.26 1341.39 Q153.26 1334.26 151.431 1330.72 Q149.626 1327.15 145.992 1327.15 M145.992 1323.45 Q151.802 1323.45 154.857 1328.06 Q157.936 1332.64 157.936 1341.39 Q157.936 1350.12 154.857 1354.72 Q151.802 1359.31 145.992 1359.31 Q140.181 1359.31 137.103 1354.72 Q134.047 1350.12 134.047 1341.39 Q134.047 1332.64 137.103 1328.06 Q140.181 1323.45 145.992 1323.45 Z" fill="#000000" fill-rule="nonzero" fill-opacity="1" /><path clip-path="url(#clip070)" d="M51.9875 1047.64 L81.6633 1047.64 L81.6633 1051.58 L51.9875 1051.58 L51.9875 1047.64 Z" fill="#000000" fill-rule="nonzero" fill-opacity="1" /><path clip-path="url(#clip070)" d="M101.756 1032.99 Q98.1447 1032.99 96.316 1036.56 Q94.5104 1040.1 94.5104 1047.23 Q94.5104 1054.33 96.316 1057.9 Q98.1447 1061.44 101.756 1061.44 Q105.39 1061.44 107.196 1057.9 Q109.024 1054.33 109.024 1047.23 Q109.024 1040.1 107.196 1036.56 Q105.39 1032.99 101.756 1032.99 M101.756 1029.29 Q107.566 1029.29 110.621 1033.89 Q113.7 1038.48 113.7 1047.23 Q113.7 1055.95 110.621 1060.56 Q107.566 1065.14 101.756 1065.14 Q95.9456 1065.14 92.8669 1060.56 Q89.8114 1055.95 89.8114 1047.23 Q89.8114 1038.48 92.8669 1033.89 Q95.9456 1029.29 101.756 1029.29 Z" fill="#000000" fill-rule="nonzero" fill-opacity="1" /><path clip-path="url(#clip070)" d="M121.918 1058.59 L126.802 1058.59 L126.802 1064.47 L121.918 1064.47 L121.918 1058.59 Z" fill="#000000" fill-rule="nonzero" fill-opacity="1" /><path clip-path="url(#clip070)" d="M137.033 1029.91 L155.39 1029.91 L155.39 1033.85 L141.316 1033.85 L141.316 1042.32 Q142.334 1041.97 143.353 1041.81 Q144.371 1041.63 145.39 1041.63 Q151.177 1041.63 154.556 1044.8 Q157.936 1047.97 157.936 1053.38 Q157.936 1058.96 154.464 1062.06 Q150.992 1065.14 144.672 1065.14 Q142.496 1065.14 140.228 1064.77 Q137.982 1064.4 135.575 1063.66 L135.575 1058.96 Q137.658 1060.1 139.881 1060.65 Q142.103 1061.21 144.58 1061.21 Q148.584 1061.21 150.922 1059.1 Q153.26 1057 153.26 1053.38 Q153.26 1049.77 150.922 1047.67 Q148.584 1045.56 144.58 1045.56 Q142.705 1045.56 140.83 1045.98 Q138.978 1046.39 137.033 1047.27 L137.033 1029.91 Z" fill="#000000" fill-rule="nonzero" fill-opacity="1" /><path clip-path="url(#clip070)" d="M100.76 738.829 Q97.1493 738.829 95.3206 742.394 Q93.515 745.936 93.515 753.065 Q93.515 760.172 95.3206 763.737 Q97.1493 767.278 100.76 767.278 Q104.395 767.278 106.2 763.737 Q108.029 760.172 108.029 753.065 Q108.029 745.936 106.2 742.394 Q104.395 738.829 100.76 738.829 M100.76 735.126 Q106.571 735.126 109.626 739.732 Q112.705 744.315 112.705 753.065 Q112.705 761.792 109.626 766.399 Q106.571 770.982 100.76 770.982 Q94.9502 770.982 91.8715 766.399 Q88.816 761.792 88.816 753.065 Q88.816 744.315 91.8715 739.732 Q94.9502 735.126 100.76 735.126 Z" fill="#000000" fill-rule="nonzero" fill-opacity="1" /><path clip-path="url(#clip070)" d="M120.922 764.431 L125.807 764.431 L125.807 770.311 L120.922 770.311 L120.922 764.431 Z" fill="#000000" fill-rule="nonzero" fill-opacity="1" /><path clip-path="url(#clip070)" d="M145.992 738.829 Q142.381 738.829 140.552 742.394 Q138.746 745.936 138.746 753.065 Q138.746 760.172 140.552 763.737 Q142.381 767.278 145.992 767.278 Q149.626 767.278 151.431 763.737 Q153.26 760.172 153.26 753.065 Q153.26 745.936 151.431 742.394 Q149.626 738.829 145.992 738.829 M145.992 735.126 Q151.802 735.126 154.857 739.732 Q157.936 744.315 157.936 753.065 Q157.936 761.792 154.857 766.399 Q151.802 770.982 145.992 770.982 Q140.181 770.982 137.103 766.399 Q134.047 761.792 134.047 753.065 Q134.047 744.315 137.103 739.732 Q140.181 735.126 145.992 735.126 Z" fill="#000000" fill-rule="nonzero" fill-opacity="1" /><path clip-path="url(#clip070)" d="M101.756 444.667 Q98.1447 444.667 96.316 448.232 Q94.5104 451.774 94.5104 458.904 Q94.5104 466.01 96.316 469.575 Q98.1447 473.116 101.756 473.116 Q105.39 473.116 107.196 469.575 Q109.024 466.01 109.024 458.904 Q109.024 451.774 107.196 448.232 Q105.39 444.667 101.756 444.667 M101.756 440.964 Q107.566 440.964 110.621 445.57 Q113.7 450.154 113.7 458.904 Q113.7 467.63 110.621 472.237 Q107.566 476.82 101.756 476.82 Q95.9456 476.82 92.8669 472.237 Q89.8114 467.63 89.8114 458.904 Q89.8114 450.154 92.8669 445.57 Q95.9456 440.964 101.756 440.964 Z" fill="#000000" fill-rule="nonzero" fill-opacity="1" /><path clip-path="url(#clip070)" d="M121.918 470.269 L126.802 470.269 L126.802 476.149 L121.918 476.149 L121.918 470.269 Z" fill="#000000" fill-rule="nonzero" fill-opacity="1" /><path clip-path="url(#clip070)" d="M137.033 441.589 L155.39 441.589 L155.39 445.524 L141.316 445.524 L141.316 453.996 Q142.334 453.649 143.353 453.487 Q144.371 453.302 145.39 453.302 Q151.177 453.302 154.556 456.473 Q157.936 459.644 157.936 465.061 Q157.936 470.64 154.464 473.741 Q150.992 476.82 144.672 476.82 Q142.496 476.82 140.228 476.45 Q137.982 476.079 135.575 475.339 L135.575 470.64 Q137.658 471.774 139.881 472.329 Q142.103 472.885 144.58 472.885 Q148.584 472.885 150.922 470.778 Q153.26 468.672 153.26 465.061 Q153.26 461.45 150.922 459.343 Q148.584 457.237 144.58 457.237 Q142.705 457.237 140.83 457.654 Q138.978 458.07 137.033 458.95 L137.033 441.589 Z" fill="#000000" fill-rule="nonzero" fill-opacity="1" /><path clip-path="url(#clip070)" d="M91.5706 178.052 L99.2095 178.052 L99.2095 151.686 L90.8993 153.353 L90.8993 149.094 L99.1632 147.427 L103.839 147.427 L103.839 178.052 L111.478 178.052 L111.478 181.987 L91.5706 181.987 L91.5706 178.052 Z" fill="#000000" fill-rule="nonzero" fill-opacity="1" /><path clip-path="url(#clip070)" d="M120.922 176.107 L125.807 176.107 L125.807 181.987 L120.922 181.987 L120.922 176.107 Z" fill="#000000" fill-rule="nonzero" fill-opacity="1" /><path clip-path="url(#clip070)" d="M145.992 150.506 Q142.381 150.506 140.552 154.07 Q138.746 157.612 138.746 164.742 Q138.746 171.848 140.552 175.413 Q142.381 178.955 145.992 178.955 Q149.626 178.955 151.431 175.413 Q153.26 171.848 153.26 164.742 Q153.26 157.612 151.431 154.07 Q149.626 150.506 145.992 150.506 M145.992 146.802 Q151.802 146.802 154.857 151.408 Q157.936 155.992 157.936 164.742 Q157.936 173.469 154.857 178.075 Q151.802 182.658 145.992 182.658 Q140.181 182.658 137.103 178.075 Q134.047 173.469 134.047 164.742 Q134.047 155.992 137.103 151.408 Q140.181 146.802 145.992 146.802 Z" fill="#000000" fill-rule="nonzero" fill-opacity="1" /><polyline clip-path="url(#clip072)" style="stroke:#009af9; stroke-linecap:round; stroke-linejoin:round; stroke-width:4; stroke-opacity:1; fill:none" points="255.035,753.031 258.278,747.147 261.521,741.265 264.764,735.384 268.007,729.504 271.25,723.627 274.493,717.752 277.736,711.882 280.979,706.015 284.222,700.153 287.465,694.296 290.708,688.445 293.951,682.601 297.194,676.764 300.437,670.934 303.68,665.113 306.923,659.3 310.166,653.497 313.409,647.703 316.652,641.92 319.895,636.149 323.138,630.389 326.381,624.641 329.624,618.906 332.867,613.185 336.11,607.477 339.353,601.784 342.596,596.106 345.84,590.444 349.083,584.798 352.326,579.169 355.569,573.557 358.812,567.964 362.055,562.388 365.298,556.832 368.541,551.296 371.784,545.779 375.027,540.284 378.27,534.809 381.513,529.357 384.756,523.927 387.999,518.519 391.242,513.135 394.485,507.776 397.728,502.44 400.971,497.13 404.214,491.845 407.457,486.587 410.7,481.355 413.943,476.15 417.186,470.973 420.429,465.824 423.672,460.704 426.915,455.613 430.158,450.552 433.401,445.521 436.644,440.521 439.887,435.552 443.13,430.615 446.373,425.71 449.616,420.838 452.859,415.999 456.103,411.194 459.346,406.423 462.589,401.686 465.832,396.985 469.075,392.319 472.318,387.69 475.561,383.097 478.804,378.541 482.047,374.022 485.29,369.541 488.533,365.099 491.776,360.695 495.019,356.331 498.262,352.006 501.505,347.722 504.748,343.478 507.991,339.275 511.234,335.113 514.477,330.993 517.72,326.915 520.963,322.88 524.206,318.888 527.449,314.939 530.692,311.035 533.935,307.174 537.178,303.358 540.421,299.587 543.664,295.861 546.907,292.181 550.15,288.547 553.393,284.959 556.636,281.419 559.879,277.925 563.122,274.479 566.366,271.081 569.609,267.731 572.852,264.429 576.095,261.177 579.338,257.973 582.581,254.819 585.824,251.715 589.067,248.661 592.31,245.658 595.553,242.705 598.796,239.803 602.039,236.953 605.282,234.154 608.525,231.407 611.768,228.712 615.011,226.07 618.254,223.48 621.497,220.944 624.74,218.46 627.983,216.03 631.226,213.654 634.469,211.331 637.712,209.063 640.955,206.849 644.198,204.69 647.441,202.586 650.684,200.536 653.927,198.542 657.17,196.604 660.413,194.721 663.656,192.893 666.899,191.122 670.142,189.407 673.385,187.749 676.629,186.147 679.872,184.601 683.115,183.113 686.358,181.681 689.601,180.307 692.844,178.99 696.087,177.73 699.33,176.528 702.573,175.383 705.816,174.296 709.059,173.267 712.302,172.296 715.545,171.383 718.788,170.529 722.031,169.732 725.274,168.994 728.517,168.314 731.76,167.693 735.003,167.13 738.246,166.626 741.489,166.181 744.732,165.794 747.975,165.466 751.218,165.197 754.461,164.986 757.704,164.834 760.947,164.741 764.19,164.707 767.433,164.732 770.676,164.815 773.919,164.958 777.162,165.159 780.405,165.419 783.648,165.738 786.892,166.115 790.135,166.551 793.378,167.046 796.621,167.6 799.864,168.212 803.107,168.882 806.35,169.611 809.593,170.398 812.836,171.243 816.079,172.147 819.322,173.109 822.565,174.128 825.808,175.206 829.051,176.341 832.294,177.534 835.537,178.785 838.78,180.093 842.023,181.458 845.266,182.881 848.509,184.36 851.752,185.897 854.995,187.49 858.238,189.139 861.481,190.845 864.724,192.608 867.967,194.426 871.21,196.3 874.453,198.23 877.696,200.215 880.939,202.256 884.182,204.351 887.425,206.502 890.668,208.707 893.911,210.966 897.155,213.28 900.398,215.648 903.641,218.069 906.884,220.544 910.127,223.073 913.37,225.654 916.613,228.288 919.856,230.974 923.099,233.713 926.342,236.504 929.585,239.346 932.828,242.239 936.071,245.184 939.314,248.18 942.557,251.226 945.8,254.322 949.043,257.468 952.286,260.663 955.529,263.908 958.772,267.202 962.015,270.544 965.258,273.935 968.501,277.373 971.744,280.859 974.987,284.392 978.23,287.972 981.473,291.599 984.716,295.272 987.959,298.99 991.202,302.754 994.445,306.563 997.688,310.417 1000.93,314.315 1004.17,318.256 1007.42,322.242 1010.66,326.27 1013.9,330.341 1017.15,334.454 1020.39,338.609 1023.63,342.806 1026.88,347.043 1030.12,351.321 1033.36,355.64 1036.6,359.998 1039.85,364.395 1043.09,368.831 1046.33,373.306 1049.58,377.819 1052.82,382.369 1056.06,386.956 1059.31,391.58 1062.55,396.24 1065.79,400.935 1069.04,405.666 1072.28,410.432 1075.52,415.232 1078.76,420.065 1082.01,424.932 1085.25,429.832 1088.49,434.764 1091.74,439.728 1094.98,444.723 1098.22,449.749 1101.47,454.805 1104.71,459.892 1107.95,465.007 1111.19,470.151 1114.44,475.324 1117.68,480.524 1120.92,485.752 1124.17,491.006 1127.41,496.287 1130.65,501.593 1133.9,506.924 1137.14,512.28 1140.38,517.66 1143.62,523.064 1146.87,528.49 1150.11,533.939 1153.35,539.41 1156.6,544.903 1159.84,550.416 1163.08,555.949 1166.33,561.502 1169.57,567.074 1172.81,572.665 1176.06,578.274 1179.3,583.9 1182.54,589.544 1185.78,595.203 1189.03,600.879 1192.27,606.569 1195.51,612.275 1198.76,617.994 1202,623.727 1205.24,629.472 1208.49,635.231 1211.73,641 1214.97,646.782 1218.21,652.573 1221.46,658.375 1224.7,664.186 1227.94,670.006 1231.19,675.835 1234.43,681.671 1237.67,687.514 1240.92,693.364 1244.16,699.22 1247.4,705.081 1250.64,710.947 1253.89,716.817 1257.13,722.691 1260.37,728.568 1263.62,734.447 1266.86,740.328 1270.1,746.211 1273.35,752.094 1276.59,757.977 1279.83,763.859 1283.08,769.741 1286.32,775.621 1289.56,781.499 1292.8,787.373 1296.05,793.245 1299.29,799.112 1302.53,804.975 1305.78,810.833 1309.02,816.684 1312.26,822.53 1315.51,828.368 1318.75,834.199 1321.99,840.022 1325.23,845.836 1328.48,851.641 1331.72,857.436 1334.96,863.22 1338.21,868.994 1341.45,874.756 1344.69,880.506 1347.94,886.243 1351.18,891.966 1354.42,897.676 1357.66,903.371 1360.91,909.052 1364.15,914.716 1367.39,920.365 1370.64,925.997 1373.88,931.611 1377.12,937.208 1380.37,942.786 1383.61,948.345 1386.85,953.885 1390.1,959.405 1393.34,964.904 1396.58,970.381 1399.82,975.837 1403.07,981.271 1406.31,986.682 1409.55,992.07 1412.8,997.434 1416.04,1002.77 1419.28,1008.09 1422.53,1013.38 1425.77,1018.64 1429.01,1023.87 1432.25,1029.08 1435.5,1034.27 1438.74,1039.42 1441.98,1044.54 1445.23,1049.64 1448.47,1054.7 1451.71,1059.74 1454.96,1064.75 1458.2,1069.72 1461.44,1074.66 1464.68,1079.57 1467.93,1084.45 1471.17,1089.29 1474.41,1094.1 1477.66,1098.88 1480.9,1103.62 1484.14,1108.33 1487.39,1113 1490.63,1117.64 1493.87,1122.24 1497.11,1126.8 1500.36,1131.32 1503.6,1135.81 1506.84,1140.26 1510.09,1144.67 1513.33,1149.04 1516.57,1153.37 1519.82,1157.66 1523.06,1161.91 1526.3,1166.12 1529.55,1170.29 1532.79,1174.41 1536.03,1178.5 1539.27,1182.54 1542.52,1186.54 1545.76,1190.5 1549,1194.41 1552.25,1198.28 1555.49,1202.1 1558.73,1205.88 1561.98,1209.61 1565.22,1213.3 1568.46,1216.94 1571.7,1220.53 1574.95,1224.08 1578.19,1227.58 1581.43,1231.04 1584.68,1234.44 1587.92,1237.8 1591.16,1241.11 1594.41,1244.37 1597.65,1247.58 1600.89,1250.74 1604.13,1253.85 1607.38,1256.92 1610.62,1259.93 1613.86,1262.89 1617.11,1265.8 1620.35,1268.66 1623.59,1271.46 1626.84,1274.22 1630.08,1276.92 1633.32,1279.57 1636.57,1282.17 1639.81,1284.72 1643.05,1287.21 1646.29,1289.65 1649.54,1292.03 1652.78,1294.36 1656.02,1296.64 1659.27,1298.86 1662.51,1301.03 1665.75,1303.14 1669,1305.2 1672.24,1307.21 1675.48,1309.15 1678.72,1311.04 1681.97,1312.88 1685.21,1314.66 1688.45,1316.38 1691.7,1318.05 1694.94,1319.66 1698.18,1321.22 1701.43,1322.72 1704.67,1324.16 1707.91,1325.54 1711.15,1326.87 1714.4,1328.13 1717.64,1329.35 1720.88,1330.5 1724.13,1331.6 1727.37,1332.63 1730.61,1333.61 1733.86,1334.54 1737.1,1335.4 1740.34,1336.21 1743.59,1336.95 1746.83,1337.64 1750.07,1338.27 1753.31,1338.85 1756.56,1339.36 1759.8,1339.81 1763.04,1340.21 1766.29,1340.55 1769.53,1340.83 1772.77,1341.05 1776.02,1341.21 1779.26,1341.31 1782.5,1341.35 1785.74,1341.34 1788.99,1341.26 1792.23,1341.13 1795.47,1340.94 1798.72,1340.69 1801.96,1340.38 1805.2,1340.01 1808.45,1339.58 1811.69,1339.1 1814.93,1338.55 1818.17,1337.95 1821.42,1337.29 1824.66,1336.57 1827.9,1335.79 1831.15,1334.96 1834.39,1334.06 1837.63,1333.11 1840.88,1332.1 1844.12,1331.03 1847.36,1329.9 1850.61,1328.72 1853.85,1327.48 1857.09,1326.18 1860.33,1324.82 1863.58,1323.41 1866.82,1321.94 1870.06,1320.41 1873.31,1318.83 1876.55,1317.19 1879.79,1315.49 1883.04,1313.74 1886.28,1311.93 1889.52,1310.06 1892.76,1308.14 1896.01,1306.17 1899.25,1304.13 1902.49,1302.05 1905.74,1299.91 1908.98,1297.71 1912.22,1295.46 1915.47,1293.15 1918.71,1290.79 1921.95,1288.38 1925.19,1285.91 1928.44,1283.39 1931.68,1280.82 1934.92,1278.2 1938.17,1275.52 1941.41,1272.79 1944.65,1270.01 1947.9,1267.17 1951.14,1264.29 1954.38,1261.35 1957.63,1258.36 1960.87,1255.32 1964.11,1252.24 1967.35,1249.1 1970.6,1245.91 1973.84,1242.67 1977.08,1239.39 1980.33,1236.05 1983.57,1232.67 1986.81,1229.24 1990.06,1225.76 1993.3,1222.23 1996.54,1218.66 1999.78,1215.04 2003.03,1211.38 2006.27,1207.67 2009.51,1203.91 2012.76,1200.11 2016,1196.26 2019.24,1192.37 2022.49,1188.44 2025.73,1184.46 2028.97,1180.44 2032.21,1176.37 2035.46,1172.27 2038.7,1168.12 2041.94,1163.93 2045.19,1159.7 2048.43,1155.42 2051.67,1151.11 2054.92,1146.76 2058.16,1142.37 2061.4,1137.94 2064.65,1133.47 2067.89,1128.96 2071.13,1124.42 2074.37,1119.84 2077.62,1115.22 2080.86,1110.57 2084.1,1105.88 2087.35,1101.15 2090.59,1096.39 2093.83,1091.6 2097.08,1086.77 2100.32,1081.91 2103.56,1077.01 2106.8,1072.08 2110.05,1067.13 2113.29,1062.14 2116.53,1057.11 2119.78,1052.06 2123.02,1046.98 2126.26,1041.87 2129.51,1036.73 2132.75,1031.56 2135.99,1026.37 2139.23,1021.14 2142.48,1015.89 2145.72,1010.62 2148.96,1005.32 2152.21,999.988 2155.45,994.636 2158.69,989.259 2161.94,983.859 2165.18,978.437 2168.42,972.991 2171.67,967.524 2174.91,962.035 2178.15,956.525 2181.39,950.995 2184.64,945.445 2187.88,939.875 2191.12,934.288 2194.37,928.682 2197.61,923.058 2200.85,917.417 2204.1,911.76 2207.34,906.087 2210.58,900.399 2213.82,894.696 2217.07,888.979 2220.31,883.248 2223.55,877.505 2226.8,871.748 2230.04,865.98 2233.28,860.201 2236.53,854.411 2239.77,848.611 2243.01,842.801 2246.25,836.982 2249.5,831.155 2252.74,825.32 2255.98,819.478 2259.23,813.629 2262.47,807.774 2265.71,801.914 2268.96,796.049 2272.2,790.179 2275.44,784.306 2278.69,778.43 2281.93,772.551 2285.17,766.67 2288.41,760.788 2291.66,754.905 "/>
<circle clip-path="url(#clip072)" cx="1691.7" cy="1445.72" r="14.4" fill="#e26f46" fill-rule="evenodd" fill-opacity="1" stroke="#000000" stroke-opacity="1" stroke-width="3.2"/>
<circle clip-path="url(#clip072)" cx="2255.98" cy="949.62" r="14.4" fill="#e26f46" fill-rule="evenodd" fill-opacity="1" stroke="#000000" stroke-opacity="1" stroke-width="3.2"/>
<circle clip-path="url(#clip072)" cx="436.644" cy="502.629" r="14.4" fill="#e26f46" fill-rule="evenodd" fill-opacity="1" stroke="#000000" stroke-opacity="1" stroke-width="3.2"/>
<circle clip-path="url(#clip072)" cx="1847.36" cy="1409.78" r="14.4" fill="#e26f46" fill-rule="evenodd" fill-opacity="1" stroke="#000000" stroke-opacity="1" stroke-width="3.2"/>
<circle clip-path="url(#clip072)" cx="1610.62" cy="1124.36" r="14.4" fill="#e26f46" fill-rule="evenodd" fill-opacity="1" stroke="#000000" stroke-opacity="1" stroke-width="3.2"/>
<circle clip-path="url(#clip072)" cx="731.76" cy="87.9763" r="14.4" fill="#e26f46" fill-rule="evenodd" fill-opacity="1" stroke="#000000" stroke-opacity="1" stroke-width="3.2"/>
<circle clip-path="url(#clip072)" cx="1101.47" cy="363.489" r="14.4" fill="#e26f46" fill-rule="evenodd" fill-opacity="1" stroke="#000000" stroke-opacity="1" stroke-width="3.2"/>
<circle clip-path="url(#clip072)" cx="1179.3" cy="660.758" r="14.4" fill="#e26f46" fill-rule="evenodd" fill-opacity="1" stroke="#000000" stroke-opacity="1" stroke-width="3.2"/>
<circle clip-path="url(#clip072)" cx="1814.93" cy="1417.41" r="14.4" fill="#e26f46" fill-rule="evenodd" fill-opacity="1" stroke="#000000" stroke-opacity="1" stroke-width="3.2"/>
<circle clip-path="url(#clip072)" cx="679.872" cy="91.7131" r="14.4" fill="#e26f46" fill-rule="evenodd" fill-opacity="1" stroke="#000000" stroke-opacity="1" stroke-width="3.2"/>
<circle clip-path="url(#clip072)" cx="997.688" cy="283.606" r="14.4" fill="#e26f46" fill-rule="evenodd" fill-opacity="1" stroke="#000000" stroke-opacity="1" stroke-width="3.2"/>
<circle clip-path="url(#clip072)" cx="799.864" cy="185.885" r="14.4" fill="#e26f46" fill-rule="evenodd" fill-opacity="1" stroke="#000000" stroke-opacity="1" stroke-width="3.2"/>
<circle clip-path="url(#clip072)" cx="1886.28" cy="1438.39" r="14.4" fill="#e26f46" fill-rule="evenodd" fill-opacity="1" stroke="#000000" stroke-opacity="1" stroke-width="3.2"/>
<circle clip-path="url(#clip072)" cx="1600.89" cy="1304.82" r="14.4" fill="#e26f46" fill-rule="evenodd" fill-opacity="1" stroke="#000000" stroke-opacity="1" stroke-width="3.2"/>
<circle clip-path="url(#clip072)" cx="478.804" cy="291.301" r="14.4" fill="#e26f46" fill-rule="evenodd" fill-opacity="1" stroke="#000000" stroke-opacity="1" stroke-width="3.2"/>
<circle clip-path="url(#clip072)" cx="1597.65" cy="1314.21" r="14.4" fill="#e26f46" fill-rule="evenodd" fill-opacity="1" stroke="#000000" stroke-opacity="1" stroke-width="3.2"/>
<circle clip-path="url(#clip072)" cx="1360.91" cy="876.072" r="14.4" fill="#e26f46" fill-rule="evenodd" fill-opacity="1" stroke="#000000" stroke-opacity="1" stroke-width="3.2"/>
<circle clip-path="url(#clip072)" cx="1403.07" cy="999.23" r="14.4" fill="#e26f46" fill-rule="evenodd" fill-opacity="1" stroke="#000000" stroke-opacity="1" stroke-width="3.2"/>
<circle clip-path="url(#clip072)" cx="1082.01" cy="569.656" r="14.4" fill="#e26f46" fill-rule="evenodd" fill-opacity="1" stroke="#000000" stroke-opacity="1" stroke-width="3.2"/>
<circle clip-path="url(#clip072)" cx="1899.25" cy="1317.16" r="14.4" fill="#e26f46" fill-rule="evenodd" fill-opacity="1" stroke="#000000" stroke-opacity="1" stroke-width="3.2"/>
<path clip-path="url(#clip070)" d="M1953.46 250.738 L2280.8 250.738 L2280.8 95.2176 L1953.46 95.2176  Z" fill="#ffffff" fill-rule="evenodd" fill-opacity="1"/>
<polyline clip-path="url(#clip070)" style="stroke:#000000; stroke-linecap:round; stroke-linejoin:round; stroke-width:4; stroke-opacity:1; fill:none" points="1953.46,250.738 2280.8,250.738 2280.8,95.2176 1953.46,95.2176 1953.46,250.738 "/>
<polyline clip-path="url(#clip070)" style="stroke:#009af9; stroke-linecap:round; stroke-linejoin:round; stroke-width:4; stroke-opacity:1; fill:none" points="1977.44,147.058 2121.36,147.058 "/>
<path clip-path="url(#clip070)" d="M2152.76 131.051 L2152.76 138.412 L2161.53 138.412 L2161.53 141.722 L2152.76 141.722 L2152.76 155.796 Q2152.76 158.967 2153.61 159.87 Q2154.49 160.773 2157.16 160.773 L2161.53 160.773 L2161.53 164.338 L2157.16 164.338 Q2152.23 164.338 2150.35 162.509 Q2148.48 160.657 2148.48 155.796 L2148.48 141.722 L2145.35 141.722 L2145.35 138.412 L2148.48 138.412 L2148.48 131.051 L2152.76 131.051 Z" fill="#000000" fill-rule="nonzero" fill-opacity="1" /><path clip-path="url(#clip070)" d="M2182.16 142.393 Q2181.44 141.977 2180.58 141.791 Q2179.75 141.583 2178.73 141.583 Q2175.12 141.583 2173.17 143.944 Q2171.25 146.282 2171.25 150.68 L2171.25 164.338 L2166.97 164.338 L2166.97 138.412 L2171.25 138.412 L2171.25 142.44 Q2172.6 140.078 2174.75 138.944 Q2176.9 137.787 2179.98 137.787 Q2180.42 137.787 2180.95 137.856 Q2181.48 137.903 2182.13 138.018 L2182.16 142.393 Z" fill="#000000" fill-rule="nonzero" fill-opacity="1" /><path clip-path="url(#clip070)" d="M2186.18 154.106 L2186.18 138.412 L2190.44 138.412 L2190.44 153.944 Q2190.44 157.625 2191.88 159.476 Q2193.31 161.305 2196.18 161.305 Q2199.63 161.305 2201.62 159.106 Q2203.64 156.907 2203.64 153.111 L2203.64 138.412 L2207.9 138.412 L2207.9 164.338 L2203.64 164.338 L2203.64 160.356 Q2202.09 162.717 2200.03 163.875 Q2197.99 165.009 2195.28 165.009 Q2190.81 165.009 2188.5 162.231 Q2186.18 159.453 2186.18 154.106 M2196.9 137.787 L2196.9 137.787 Z" fill="#000000" fill-rule="nonzero" fill-opacity="1" /><path clip-path="url(#clip070)" d="M2220.88 131.051 L2220.88 138.412 L2229.66 138.412 L2229.66 141.722 L2220.88 141.722 L2220.88 155.796 Q2220.88 158.967 2221.74 159.87 Q2222.62 160.773 2225.28 160.773 L2229.66 160.773 L2229.66 164.338 L2225.28 164.338 Q2220.35 164.338 2218.48 162.509 Q2216.6 160.657 2216.6 155.796 L2216.6 141.722 L2213.48 141.722 L2213.48 138.412 L2216.6 138.412 L2216.6 131.051 L2220.88 131.051 Z" fill="#000000" fill-rule="nonzero" fill-opacity="1" /><path clip-path="url(#clip070)" d="M2256.81 148.689 L2256.81 164.338 L2252.55 164.338 L2252.55 148.828 Q2252.55 145.148 2251.11 143.319 Q2249.68 141.49 2246.81 141.49 Q2243.36 141.49 2241.37 143.69 Q2239.38 145.889 2239.38 149.685 L2239.38 164.338 L2235.1 164.338 L2235.1 128.319 L2239.38 128.319 L2239.38 142.44 Q2240.91 140.102 2242.97 138.944 Q2245.05 137.787 2247.76 137.787 Q2252.23 137.787 2254.52 140.565 Q2256.81 143.319 2256.81 148.689 Z" fill="#000000" fill-rule="nonzero" fill-opacity="1" /><circle clip-path="url(#clip070)" cx="2049.4" cy="198.898" r="20.48" fill="#e26f46" fill-rule="evenodd" fill-opacity="1" stroke="#000000" stroke-opacity="1" stroke-width="4.55111"/>
<path clip-path="url(#clip070)" d="M2164.26 194.187 L2164.26 180.159 L2168.52 180.159 L2168.52 216.178 L2164.26 216.178 L2164.26 212.289 Q2162.92 214.603 2160.86 215.738 Q2158.82 216.849 2155.95 216.849 Q2151.25 216.849 2148.29 213.099 Q2145.35 209.349 2145.35 203.238 Q2145.35 197.127 2148.29 193.377 Q2151.25 189.627 2155.95 189.627 Q2158.82 189.627 2160.86 190.761 Q2162.92 191.872 2164.26 194.187 M2149.75 203.238 Q2149.75 207.937 2151.67 210.622 Q2153.61 213.284 2156.99 213.284 Q2160.37 213.284 2162.32 210.622 Q2164.26 207.937 2164.26 203.238 Q2164.26 198.539 2162.32 195.877 Q2160.37 193.192 2156.99 193.192 Q2153.61 193.192 2151.67 195.877 Q2149.75 198.539 2149.75 203.238 Z" fill="#000000" fill-rule="nonzero" fill-opacity="1" /><path clip-path="url(#clip070)" d="M2189.08 203.145 Q2183.92 203.145 2181.92 204.326 Q2179.93 205.506 2179.93 208.354 Q2179.93 210.622 2181.42 211.965 Q2182.92 213.284 2185.49 213.284 Q2189.03 213.284 2191.16 210.784 Q2193.31 208.261 2193.31 204.094 L2193.31 203.145 L2189.08 203.145 M2197.57 201.386 L2197.57 216.178 L2193.31 216.178 L2193.31 212.242 Q2191.85 214.603 2189.68 215.738 Q2187.5 216.849 2184.36 216.849 Q2180.37 216.849 2178.01 214.627 Q2175.67 212.381 2175.67 208.631 Q2175.67 204.256 2178.59 202.034 Q2181.53 199.812 2187.34 199.812 L2193.31 199.812 L2193.31 199.395 Q2193.31 196.455 2191.37 194.858 Q2189.45 193.238 2185.95 193.238 Q2183.73 193.238 2181.62 193.77 Q2179.52 194.303 2177.57 195.367 L2177.57 191.432 Q2179.91 190.53 2182.11 190.09 Q2184.31 189.627 2186.39 189.627 Q2192.02 189.627 2194.79 192.543 Q2197.57 195.46 2197.57 201.386 Z" fill="#000000" fill-rule="nonzero" fill-opacity="1" /><path clip-path="url(#clip070)" d="M2210.56 182.891 L2210.56 190.252 L2219.33 190.252 L2219.33 193.562 L2210.56 193.562 L2210.56 207.636 Q2210.56 210.807 2211.42 211.71 Q2212.29 212.613 2214.96 212.613 L2219.33 212.613 L2219.33 216.178 L2214.96 216.178 Q2210.03 216.178 2208.15 214.349 Q2206.28 212.497 2206.28 207.636 L2206.28 193.562 L2203.15 193.562 L2203.15 190.252 L2206.28 190.252 L2206.28 182.891 L2210.56 182.891 Z" fill="#000000" fill-rule="nonzero" fill-opacity="1" /><path clip-path="url(#clip070)" d="M2236.72 203.145 Q2231.55 203.145 2229.56 204.326 Q2227.57 205.506 2227.57 208.354 Q2227.57 210.622 2229.05 211.965 Q2230.56 213.284 2233.13 213.284 Q2236.67 213.284 2238.8 210.784 Q2240.95 208.261 2240.95 204.094 L2240.95 203.145 L2236.72 203.145 M2245.21 201.386 L2245.21 216.178 L2240.95 216.178 L2240.95 212.242 Q2239.49 214.603 2237.32 215.738 Q2235.14 216.849 2231.99 216.849 Q2228.01 216.849 2225.65 214.627 Q2223.31 212.381 2223.31 208.631 Q2223.31 204.256 2226.23 202.034 Q2229.17 199.812 2234.98 199.812 L2240.95 199.812 L2240.95 199.395 Q2240.95 196.455 2239.01 194.858 Q2237.09 193.238 2233.59 193.238 Q2231.37 193.238 2229.26 193.77 Q2227.16 194.303 2225.21 195.367 L2225.21 191.432 Q2227.55 190.53 2229.75 190.09 Q2231.95 189.627 2234.03 189.627 Q2239.66 189.627 2242.43 192.543 Q2245.21 195.46 2245.21 201.386 Z" fill="#000000" fill-rule="nonzero" fill-opacity="1" /></svg>
