<?xml version="1.0" encoding="utf-8"?>
<svg xmlns="http://www.w3.org/2000/svg" xmlns:xlink="http://www.w3.org/1999/xlink" width="600" height="400" viewBox="0 0 2400 1600">
<defs>
  <clipPath id="clip980">
    <rect x="0" y="0" width="2400" height="1600"/>
  </clipPath>
</defs>
<path clip-path="url(#clip980)" d="M0 1600 L2400 1600 L2400 0 L0 0  Z" fill="#ffffff" fill-rule="evenodd" fill-opacity="1"/>
<defs>
  <clipPath id="clip981">
    <rect x="480" y="0" width="1681" height="1600"/>
  </clipPath>
</defs>
<path clip-path="url(#clip980)" d="M193.936 1486.45 L2352.76 1486.45 L2352.76 47.2441 L193.936 47.2441  Z" fill="#ffffff" fill-rule="evenodd" fill-opacity="1"/>
<defs>
  <clipPath id="clip982">
    <rect x="193" y="47" width="2160" height="1440"/>
  </clipPath>
</defs>
<polyline clip-path="url(#clip982)" style="stroke:#000000; stroke-linecap:round; stroke-linejoin:round; stroke-width:2; stroke-opacity:0.1; fill:none" points="255.035,1486.45 255.035,47.2441 "/>
<polyline clip-path="url(#clip982)" style="stroke:#000000; stroke-linecap:round; stroke-linejoin:round; stroke-width:2; stroke-opacity:0.1; fill:none" points="579.173,1486.45 579.173,47.2441 "/>
<polyline clip-path="url(#clip982)" style="stroke:#000000; stroke-linecap:round; stroke-linejoin:round; stroke-width:2; stroke-opacity:0.1; fill:none" points="903.312,1486.45 903.312,47.2441 "/>
<polyline clip-path="url(#clip982)" style="stroke:#000000; stroke-linecap:round; stroke-linejoin:round; stroke-width:2; stroke-opacity:0.1; fill:none" points="1227.45,1486.45 1227.45,47.2441 "/>
<polyline clip-path="url(#clip982)" style="stroke:#000000; stroke-linecap:round; stroke-linejoin:round; stroke-width:2; stroke-opacity:0.1; fill:none" points="1551.59,1486.45 1551.59,47.2441 "/>
<polyline clip-path="url(#clip982)" style="stroke:#000000; stroke-linecap:round; stroke-linejoin:round; stroke-width:2; stroke-opacity:0.1; fill:none" points="1875.73,1486.45 1875.73,47.2441 "/>
<polyline clip-path="url(#clip982)" style="stroke:#000000; stroke-linecap:round; stroke-linejoin:round; stroke-width:2; stroke-opacity:0.1; fill:none" points="2199.87,1486.45 2199.87,47.2441 "/>
<polyline clip-path="url(#clip982)" style="stroke:#000000; stroke-linecap:round; stroke-linejoin:round; stroke-width:2; stroke-opacity:0.1; fill:none" points="193.936,1278.83 2352.76,1278.83 "/>
<polyline clip-path="url(#clip982)" style="stroke:#000000; stroke-linecap:round; stroke-linejoin:round; stroke-width:2; stroke-opacity:0.1; fill:none" points="193.936,1014.96 2352.76,1014.96 "/>
<polyline clip-path="url(#clip982)" style="stroke:#000000; stroke-linecap:round; stroke-linejoin:round; stroke-width:2; stroke-opacity:0.1; fill:none" points="193.936,751.101 2352.76,751.101 "/>
<polyline clip-path="url(#clip982)" style="stroke:#000000; stroke-linecap:round; stroke-linejoin:round; stroke-width:2; stroke-opacity:0.1; fill:none" points="193.936,487.238 2352.76,487.238 "/>
<polyline clip-path="url(#clip982)" style="stroke:#000000; stroke-linecap:round; stroke-linejoin:round; stroke-width:2; stroke-opacity:0.1; fill:none" points="193.936,223.374 2352.76,223.374 "/>
<polyline clip-path="url(#clip980)" style="stroke:#000000; stroke-linecap:round; stroke-linejoin:round; stroke-width:4; stroke-opacity:1; fill:none" points="193.936,1486.45 2352.76,1486.45 "/>
<polyline clip-path="url(#clip980)" style="stroke:#000000; stroke-linecap:round; stroke-linejoin:round; stroke-width:4; stroke-opacity:1; fill:none" points="255.035,1486.45 255.035,1467.55 "/>
<polyline clip-path="url(#clip980)" style="stroke:#000000; stroke-linecap:round; stroke-linejoin:round; stroke-width:4; stroke-opacity:1; fill:none" points="579.173,1486.45 579.173,1467.55 "/>
<polyline clip-path="url(#clip980)" style="stroke:#000000; stroke-linecap:round; stroke-linejoin:round; stroke-width:4; stroke-opacity:1; fill:none" points="903.312,1486.45 903.312,1467.55 "/>
<polyline clip-path="url(#clip980)" style="stroke:#000000; stroke-linecap:round; stroke-linejoin:round; stroke-width:4; stroke-opacity:1; fill:none" points="1227.45,1486.45 1227.45,1467.55 "/>
<polyline clip-path="url(#clip980)" style="stroke:#000000; stroke-linecap:round; stroke-linejoin:round; stroke-width:4; stroke-opacity:1; fill:none" points="1551.59,1486.45 1551.59,1467.55 "/>
<polyline clip-path="url(#clip980)" style="stroke:#000000; stroke-linecap:round; stroke-linejoin:round; stroke-width:4; stroke-opacity:1; fill:none" points="1875.73,1486.45 1875.73,1467.55 "/>
<polyline clip-path="url(#clip980)" style="stroke:#000000; stroke-linecap:round; stroke-linejoin:round; stroke-width:4; stroke-opacity:1; fill:none" points="2199.87,1486.45 2199.87,1467.55 "/>
<path clip-path="url(#clip980)" d="M255.035 1517.37 Q251.424 1517.37 249.595 1520.93 Q247.789 1524.47 247.789 1531.6 Q247.789 1538.71 249.595 1542.27 Q251.424 1545.82 255.035 1545.82 Q258.669 1545.82 260.474 1542.27 Q262.303 1538.71 262.303 1531.6 Q262.303 1524.47 260.474 1520.93 Q258.669 1517.37 255.035 1517.37 M255.035 1513.66 Q260.845 1513.66 263.9 1518.27 Q266.979 1522.85 266.979 1531.6 Q266.979 1540.33 263.9 1544.94 Q260.845 1549.52 255.035 1549.52 Q249.225 1549.52 246.146 1544.94 Q243.09 1540.33 243.09 1531.6 Q243.09 1522.85 246.146 1518.27 Q249.225 1513.66 255.035 1513.66 Z" fill="#000000" fill-rule="nonzero" fill-opacity="1" /><path clip-path="url(#clip980)" d="M569.555 1544.91 L577.194 1544.91 L577.194 1518.55 L568.884 1520.21 L568.884 1515.95 L577.148 1514.29 L581.824 1514.29 L581.824 1544.91 L589.463 1544.91 L589.463 1548.85 L569.555 1548.85 L569.555 1544.91 Z" fill="#000000" fill-rule="nonzero" fill-opacity="1" /><path clip-path="url(#clip980)" d="M897.965 1544.91 L914.284 1544.91 L914.284 1548.85 L892.34 1548.85 L892.34 1544.91 Q895.002 1542.16 899.585 1537.53 Q904.191 1532.88 905.372 1531.53 Q907.617 1529.01 908.497 1527.27 Q909.4 1525.51 909.4 1523.82 Q909.4 1521.07 907.455 1519.33 Q905.534 1517.6 902.432 1517.6 Q900.233 1517.6 897.779 1518.36 Q895.349 1519.13 892.571 1520.68 L892.571 1515.95 Q895.395 1514.82 897.849 1514.24 Q900.303 1513.66 902.34 1513.66 Q907.71 1513.66 910.904 1516.35 Q914.099 1519.03 914.099 1523.52 Q914.099 1525.65 913.289 1527.57 Q912.502 1529.47 910.395 1532.07 Q909.816 1532.74 906.715 1535.95 Q903.613 1539.15 897.965 1544.91 Z" fill="#000000" fill-rule="nonzero" fill-opacity="1" /><path clip-path="url(#clip980)" d="M1231.7 1530.21 Q1235.05 1530.93 1236.93 1533.2 Q1238.83 1535.47 1238.83 1538.8 Q1238.83 1543.92 1235.31 1546.72 Q1231.79 1549.52 1225.31 1549.52 Q1223.13 1549.52 1220.82 1549.08 Q1218.53 1548.66 1216.07 1547.81 L1216.07 1543.29 Q1218.02 1544.43 1220.33 1545.01 Q1222.65 1545.58 1225.17 1545.58 Q1229.57 1545.58 1231.86 1543.85 Q1234.17 1542.11 1234.17 1538.8 Q1234.17 1535.75 1232.02 1534.03 Q1229.89 1532.3 1226.07 1532.3 L1222.05 1532.3 L1222.05 1528.45 L1226.26 1528.45 Q1229.71 1528.45 1231.54 1527.09 Q1233.36 1525.7 1233.36 1523.11 Q1233.36 1520.45 1231.47 1519.03 Q1229.59 1517.6 1226.07 1517.6 Q1224.15 1517.6 1221.95 1518.01 Q1219.75 1518.43 1217.11 1519.31 L1217.11 1515.14 Q1219.78 1514.4 1222.09 1514.03 Q1224.43 1513.66 1226.49 1513.66 Q1231.81 1513.66 1234.92 1516.09 Q1238.02 1518.5 1238.02 1522.62 Q1238.02 1525.49 1236.37 1527.48 Q1234.73 1529.45 1231.7 1530.21 Z" fill="#000000" fill-rule="nonzero" fill-opacity="1" /><path clip-path="url(#clip980)" d="M1554.6 1518.36 L1542.79 1536.81 L1554.6 1536.81 L1554.6 1518.36 M1553.37 1514.29 L1559.25 1514.29 L1559.25 1536.81 L1564.18 1536.81 L1564.18 1540.7 L1559.25 1540.7 L1559.25 1548.85 L1554.6 1548.85 L1554.6 1540.7 L1539 1540.7 L1539 1536.19 L1553.37 1514.29 Z" fill="#000000" fill-rule="nonzero" fill-opacity="1" /><path clip-path="url(#clip980)" d="M1866.01 1514.29 L1884.36 1514.29 L1884.36 1518.22 L1870.29 1518.22 L1870.29 1526.7 Q1871.31 1526.35 1872.32 1526.19 Q1873.34 1526 1874.36 1526 Q1880.15 1526 1883.53 1529.17 Q1886.91 1532.34 1886.91 1537.76 Q1886.91 1543.34 1883.44 1546.44 Q1879.96 1549.52 1873.64 1549.52 Q1871.47 1549.52 1869.2 1549.15 Q1866.95 1548.78 1864.55 1548.04 L1864.55 1543.34 Q1866.63 1544.47 1868.85 1545.03 Q1871.07 1545.58 1873.55 1545.58 Q1877.56 1545.58 1879.89 1543.48 Q1882.23 1541.37 1882.23 1537.76 Q1882.23 1534.15 1879.89 1532.04 Q1877.56 1529.94 1873.55 1529.94 Q1871.68 1529.94 1869.8 1530.35 Q1867.95 1530.77 1866.01 1531.65 L1866.01 1514.29 Z" fill="#000000" fill-rule="nonzero" fill-opacity="1" /><path clip-path="url(#clip980)" d="M2200.27 1529.7 Q2197.12 1529.7 2195.27 1531.86 Q2193.44 1534.01 2193.44 1537.76 Q2193.44 1541.49 2195.27 1543.66 Q2197.12 1545.82 2200.27 1545.82 Q2203.42 1545.82 2205.25 1543.66 Q2207.1 1541.49 2207.1 1537.76 Q2207.1 1534.01 2205.25 1531.86 Q2203.42 1529.7 2200.27 1529.7 M2209.55 1515.05 L2209.55 1519.31 Q2207.79 1518.48 2205.99 1518.04 Q2204.21 1517.6 2202.45 1517.6 Q2197.82 1517.6 2195.36 1520.72 Q2192.93 1523.85 2192.59 1530.17 Q2193.95 1528.15 2196.01 1527.09 Q2198.07 1526 2200.55 1526 Q2205.76 1526 2208.77 1529.17 Q2211.8 1532.32 2211.8 1537.76 Q2211.8 1543.08 2208.65 1546.3 Q2205.5 1549.52 2200.27 1549.52 Q2194.28 1549.52 2191.1 1544.94 Q2187.93 1540.33 2187.93 1531.6 Q2187.93 1523.41 2191.82 1518.55 Q2195.71 1513.66 2202.26 1513.66 Q2204.02 1513.66 2205.8 1514.01 Q2207.61 1514.36 2209.55 1515.05 Z" fill="#000000" fill-rule="nonzero" fill-opacity="1" /><polyline clip-path="url(#clip980)" style="stroke:#000000; stroke-linecap:round; stroke-linejoin:round; stroke-width:4; stroke-opacity:1; fill:none" points="193.936,1486.45 193.936,47.2441 "/>
<polyline clip-path="url(#clip980)" style="stroke:#000000; stroke-linecap:round; stroke-linejoin:round; stroke-width:4; stroke-opacity:1; fill:none" points="193.936,1278.83 212.834,1278.83 "/>
<polyline clip-path="url(#clip980)" style="stroke:#000000; stroke-linecap:round; stroke-linejoin:round; stroke-width:4; stroke-opacity:1; fill:none" points="193.936,1014.96 212.834,1014.96 "/>
<polyline clip-path="url(#clip980)" style="stroke:#000000; stroke-linecap:round; stroke-linejoin:round; stroke-width:4; stroke-opacity:1; fill:none" points="193.936,751.101 212.834,751.101 "/>
<polyline clip-path="url(#clip980)" style="stroke:#000000; stroke-linecap:round; stroke-linejoin:round; stroke-width:4; stroke-opacity:1; fill:none" points="193.936,487.238 212.834,487.238 "/>
<polyline clip-path="url(#clip980)" style="stroke:#000000; stroke-linecap:round; stroke-linejoin:round; stroke-width:4; stroke-opacity:1; fill:none" points="193.936,223.374 212.834,223.374 "/>
<path clip-path="url(#clip980)" d="M50.9921 1279.28 L80.6679 1279.28 L80.6679 1283.21 L50.9921 1283.21 L50.9921 1279.28 Z" fill="#000000" fill-rule="nonzero" fill-opacity="1" /><path clip-path="url(#clip980)" d="M91.5706 1292.17 L99.2095 1292.17 L99.2095 1265.81 L90.8993 1267.47 L90.8993 1263.21 L99.1632 1261.55 L103.839 1261.55 L103.839 1292.17 L111.478 1292.17 L111.478 1296.11 L91.5706 1296.11 L91.5706 1292.17 Z" fill="#000000" fill-rule="nonzero" fill-opacity="1" /><path clip-path="url(#clip980)" d="M120.922 1290.23 L125.807 1290.23 L125.807 1296.11 L120.922 1296.11 L120.922 1290.23 Z" fill="#000000" fill-rule="nonzero" fill-opacity="1" /><path clip-path="url(#clip980)" d="M145.992 1264.63 Q142.381 1264.63 140.552 1268.19 Q138.746 1271.73 138.746 1278.86 Q138.746 1285.97 140.552 1289.53 Q142.381 1293.08 145.992 1293.08 Q149.626 1293.08 151.431 1289.53 Q153.26 1285.97 153.26 1278.86 Q153.26 1271.73 151.431 1268.19 Q149.626 1264.63 145.992 1264.63 M145.992 1260.92 Q151.802 1260.92 154.857 1265.53 Q157.936 1270.11 157.936 1278.86 Q157.936 1287.59 154.857 1292.2 Q151.802 1296.78 145.992 1296.78 Q140.181 1296.78 137.103 1292.2 Q134.047 1287.59 134.047 1278.86 Q134.047 1270.11 137.103 1265.53 Q140.181 1260.92 145.992 1260.92 Z" fill="#000000" fill-rule="nonzero" fill-opacity="1" /><path clip-path="url(#clip980)" d="M51.9875 1015.42 L81.6633 1015.42 L81.6633 1019.35 L51.9875 1019.35 L51.9875 1015.42 Z" fill="#000000" fill-rule="nonzero" fill-opacity="1" /><path clip-path="url(#clip980)" d="M101.756 1000.76 Q98.1447 1000.76 96.316 1004.33 Q94.5104 1007.87 94.5104 1015 Q94.5104 1022.11 96.316 1025.67 Q98.1447 1029.21 101.756 1029.21 Q105.39 1029.21 107.196 1025.67 Q109.024 1022.11 109.024 1015 Q109.024 1007.87 107.196 1004.33 Q105.39 1000.76 101.756 1000.76 M101.756 997.059 Q107.566 997.059 110.621 1001.67 Q113.7 1006.25 113.7 1015 Q113.7 1023.73 110.621 1028.33 Q107.566 1032.92 101.756 1032.92 Q95.9456 1032.92 92.8669 1028.33 Q89.8114 1023.73 89.8114 1015 Q89.8114 1006.25 92.8669 1001.67 Q95.9456 997.059 101.756 997.059 Z" fill="#000000" fill-rule="nonzero" fill-opacity="1" /><path clip-path="url(#clip980)" d="M121.918 1026.36 L126.802 1026.36 L126.802 1032.24 L121.918 1032.24 L121.918 1026.36 Z" fill="#000000" fill-rule="nonzero" fill-opacity="1" /><path clip-path="url(#clip980)" d="M137.033 997.684 L155.39 997.684 L155.39 1001.62 L141.316 1001.62 L141.316 1010.09 Q142.334 1009.74 143.353 1009.58 Q144.371 1009.4 145.39 1009.4 Q151.177 1009.4 154.556 1012.57 Q157.936 1015.74 157.936 1021.16 Q157.936 1026.74 154.464 1029.84 Q150.992 1032.92 144.672 1032.92 Q142.496 1032.92 140.228 1032.55 Q137.982 1032.17 135.575 1031.43 L135.575 1026.74 Q137.658 1027.87 139.881 1028.43 Q142.103 1028.98 144.58 1028.98 Q148.584 1028.98 150.922 1026.87 Q153.26 1024.77 153.26 1021.16 Q153.26 1017.55 150.922 1015.44 Q148.584 1013.33 144.58 1013.33 Q142.705 1013.33 140.83 1013.75 Q138.978 1014.17 137.033 1015.05 L137.033 997.684 Z" fill="#000000" fill-rule="nonzero" fill-opacity="1" /><path clip-path="url(#clip980)" d="M100.76 736.9 Q97.1493 736.9 95.3206 740.465 Q93.515 744.006 93.515 751.136 Q93.515 758.242 95.3206 761.807 Q97.1493 765.349 100.76 765.349 Q104.395 765.349 106.2 761.807 Q108.029 758.242 108.029 751.136 Q108.029 744.006 106.2 740.465 Q104.395 736.9 100.76 736.9 M100.76 733.196 Q106.571 733.196 109.626 737.802 Q112.705 742.386 112.705 751.136 Q112.705 759.863 109.626 764.469 Q106.571 769.052 100.76 769.052 Q94.9502 769.052 91.8715 764.469 Q88.816 759.863 88.816 751.136 Q88.816 742.386 91.8715 737.802 Q94.9502 733.196 100.76 733.196 Z" fill="#000000" fill-rule="nonzero" fill-opacity="1" /><path clip-path="url(#clip980)" d="M120.922 762.501 L125.807 762.501 L125.807 768.381 L120.922 768.381 L120.922 762.501 Z" fill="#000000" fill-rule="nonzero" fill-opacity="1" /><path clip-path="url(#clip980)" d="M145.992 736.9 Q142.381 736.9 140.552 740.465 Q138.746 744.006 138.746 751.136 Q138.746 758.242 140.552 761.807 Q142.381 765.349 145.992 765.349 Q149.626 765.349 151.431 761.807 Q153.26 758.242 153.26 751.136 Q153.26 744.006 151.431 740.465 Q149.626 736.9 145.992 736.9 M145.992 733.196 Q151.802 733.196 154.857 737.802 Q157.936 742.386 157.936 751.136 Q157.936 759.863 154.857 764.469 Q151.802 769.052 145.992 769.052 Q140.181 769.052 137.103 764.469 Q134.047 759.863 134.047 751.136 Q134.047 742.386 137.103 737.802 Q140.181 733.196 145.992 733.196 Z" fill="#000000" fill-rule="nonzero" fill-opacity="1" /><path clip-path="url(#clip980)" d="M101.756 473.036 Q98.1447 473.036 96.316 476.601 Q94.5104 480.143 94.5104 487.272 Q94.5104 494.379 96.316 497.944 Q98.1447 501.485 101.756 501.485 Q105.39 501.485 107.196 497.944 Q109.024 494.379 109.024 487.272 Q109.024 480.143 107.196 476.601 Q105.39 473.036 101.756 473.036 M101.756 469.333 Q107.566 469.333 110.621 473.939 Q113.7 478.522 113.7 487.272 Q113.7 495.999 110.621 500.606 Q107.566 505.189 101.756 505.189 Q95.9456 505.189 92.8669 500.606 Q89.8114 495.999 89.8114 487.272 Q89.8114 478.522 92.8669 473.939 Q95.9456 469.333 101.756 469.333 Z" fill="#000000" fill-rule="nonzero" fill-opacity="1" /><path clip-path="url(#clip980)" d="M121.918 498.638 L126.802 498.638 L126.802 504.518 L121.918 504.518 L121.918 498.638 Z" fill="#000000" fill-rule="nonzero" fill-opacity="1" /><path clip-path="url(#clip980)" d="M137.033 469.958 L155.39 469.958 L155.39 473.893 L141.316 473.893 L141.316 482.365 Q142.334 482.018 143.353 481.856 Q144.371 481.671 145.39 481.671 Q151.177 481.671 154.556 484.842 Q157.936 488.013 157.936 493.43 Q157.936 499.008 154.464 502.11 Q150.992 505.189 144.672 505.189 Q142.496 505.189 140.228 504.819 Q137.982 504.448 135.575 503.707 L135.575 499.008 Q137.658 500.143 139.881 500.698 Q142.103 501.254 144.58 501.254 Q148.584 501.254 150.922 499.147 Q153.26 497.041 153.26 493.43 Q153.26 489.819 150.922 487.712 Q148.584 485.606 144.58 485.606 Q142.705 485.606 140.83 486.022 Q138.978 486.439 137.033 487.319 L137.033 469.958 Z" fill="#000000" fill-rule="nonzero" fill-opacity="1" /><path clip-path="url(#clip980)" d="M91.5706 236.719 L99.2095 236.719 L99.2095 210.353 L90.8993 212.02 L90.8993 207.761 L99.1632 206.094 L103.839 206.094 L103.839 236.719 L111.478 236.719 L111.478 240.654 L91.5706 240.654 L91.5706 236.719 Z" fill="#000000" fill-rule="nonzero" fill-opacity="1" /><path clip-path="url(#clip980)" d="M120.922 234.775 L125.807 234.775 L125.807 240.654 L120.922 240.654 L120.922 234.775 Z" fill="#000000" fill-rule="nonzero" fill-opacity="1" /><path clip-path="url(#clip980)" d="M145.992 209.173 Q142.381 209.173 140.552 212.738 Q138.746 216.279 138.746 223.409 Q138.746 230.515 140.552 234.08 Q142.381 237.622 145.992 237.622 Q149.626 237.622 151.431 234.08 Q153.26 230.515 153.26 223.409 Q153.26 216.279 151.431 212.738 Q149.626 209.173 145.992 209.173 M145.992 205.469 Q151.802 205.469 154.857 210.076 Q157.936 214.659 157.936 223.409 Q157.936 232.136 154.857 236.742 Q151.802 241.326 145.992 241.326 Q140.181 241.326 137.103 236.742 Q134.047 232.136 134.047 223.409 Q134.047 214.659 137.103 210.076 Q140.181 205.469 145.992 205.469 Z" fill="#000000" fill-rule="nonzero" fill-opacity="1" /><polyline clip-path="url(#clip982)" style="stroke:#009af9; stroke-linecap:round; stroke-linejoin:round; stroke-width:4; stroke-opacity:1; fill:none" points="255.035,751.101 258.276,745.824 261.517,740.547 264.759,735.272 268,729.998 271.242,724.726 274.483,719.456 277.724,714.19 280.966,708.928 284.207,703.67 287.449,698.416 290.69,693.168 293.931,687.926 297.173,682.69 300.414,677.46 303.655,672.239 306.897,667.025 310.138,661.819 313.38,656.622 316.621,651.435 319.862,646.258 323.104,641.091 326.345,635.935 329.587,630.791 332.828,625.659 336.069,620.539 339.311,615.433 342.552,610.34 345.793,605.261 349.035,600.196 352.276,595.147 355.518,590.113 358.759,585.096 362,580.095 365.242,575.111 368.483,570.145 371.725,565.196 374.966,560.267 378.207,555.356 381.449,550.465 384.69,545.595 387.931,540.744 391.173,535.915 394.414,531.107 397.656,526.321 400.897,521.558 404.138,516.818 407.38,512.101 410.621,507.408 413.863,502.739 417.104,498.095 420.345,493.477 423.587,488.884 426.828,484.318 430.069,479.778 433.311,475.265 436.552,470.78 439.794,466.323 443.035,461.894 446.276,457.494 449.518,453.124 452.759,448.784 456.001,444.473 459.242,440.194 462.483,435.945 465.725,431.728 468.966,427.543 472.208,423.39 475.449,419.27 478.69,415.183 481.932,411.13 485.173,407.111 488.414,403.126 491.656,399.176 494.897,395.261 498.139,391.382 501.38,387.539 504.621,383.732 507.863,379.962 511.104,376.229 514.346,372.533 517.587,368.875 520.828,365.256 524.07,361.675 527.311,358.133 530.552,354.63 533.794,351.167 537.035,347.744 540.277,344.361 543.518,341.019 546.759,337.718 550.001,334.459 553.242,331.241 556.484,328.065 559.725,324.931 562.966,321.84 566.208,318.792 569.449,315.787 572.69,312.825 575.932,309.908 579.173,307.034 582.415,304.205 585.656,301.421 588.897,298.681 592.139,295.987 595.38,293.339 598.622,290.736 601.863,288.179 605.104,285.668 608.346,283.204 611.587,280.787 614.828,278.417 618.07,276.094 621.311,273.818 624.553,271.591 627.794,269.411 631.035,267.279 634.277,265.196 637.518,263.162 640.76,261.176 644.001,259.239 647.242,257.351 650.484,255.513 653.725,253.724 656.966,251.985 660.208,250.296 663.449,248.657 666.691,247.069 669.932,245.53 673.173,244.043 676.415,242.606 679.656,241.219 682.898,239.884 686.139,238.6 689.38,237.367 692.622,236.186 695.863,235.056 699.104,233.977 702.346,232.951 705.587,231.976 708.829,231.053 712.07,230.182 715.311,229.363 718.553,228.596 721.794,227.882 725.036,227.22 728.277,226.61 731.518,226.053 734.76,225.548 738.001,225.096 741.242,224.696 744.484,224.349 747.725,224.055 750.967,223.813 754.208,223.624 757.449,223.488 760.691,223.405 763.932,223.374 767.174,223.397 770.415,223.472 773.656,223.599 776.898,223.78 780.139,224.013 783.381,224.299 786.622,224.637 789.863,225.029 793.105,225.472 796.346,225.969 799.587,226.518 802.829,227.119 806.07,227.773 809.312,228.479 812.553,229.237 815.794,230.048 819.036,230.911 822.277,231.825 825.519,232.792 828.76,233.81 832.001,234.88 835.243,236.002 838.484,237.176 841.725,238.4 844.967,239.676 848.208,241.003 851.45,242.381 854.691,243.81 857.932,245.29 861.174,246.82 864.415,248.401 867.657,250.032 870.898,251.713 874.139,253.444 877.381,255.225 880.622,257.055 883.863,258.935 887.105,260.864 890.346,262.842 893.588,264.869 896.829,266.944 900.07,269.068 903.312,271.24 906.553,273.46 909.795,275.728 913.036,278.044 916.277,280.406 919.519,282.816 922.76,285.273 926.001,287.776 929.243,290.325 932.484,292.921 935.726,295.562 938.967,298.249 942.208,300.981 945.45,303.759 948.691,306.581 951.933,309.447 955.174,312.358 958.415,315.312 961.657,318.31 964.898,321.352 968.139,324.436 971.381,327.563 974.622,330.732 977.864,333.943 981.105,337.197 984.346,340.491 987.588,343.826 990.829,347.203 994.071,350.619 997.312,354.076 1000.55,357.572 1003.79,361.108 1007.04,364.683 1010.28,368.296 1013.52,371.948 1016.76,375.637 1020,379.365 1023.24,383.129 1026.48,386.93 1029.73,390.767 1032.97,394.641 1036.21,398.55 1039.45,402.495 1042.69,406.474 1045.93,410.488 1049.17,414.536 1052.42,418.617 1055.66,422.732 1058.9,426.879 1062.14,431.059 1065.38,435.271 1068.62,439.515 1071.86,443.79 1075.11,448.095 1078.35,452.431 1081.59,456.796 1084.83,461.191 1088.07,465.616 1091.31,470.068 1094.55,474.549 1097.79,479.057 1101.04,483.593 1104.28,488.155 1107.52,492.744 1110.76,497.358 1114,501.998 1117.24,506.663 1120.48,511.352 1123.73,516.065 1126.97,520.802 1130.21,525.561 1133.45,530.343 1136.69,535.148 1139.93,539.974 1143.17,544.821 1146.42,549.688 1149.66,554.576 1152.9,559.484 1156.14,564.41 1159.38,569.355 1162.62,574.319 1165.86,579.3 1169.11,584.298 1172.35,589.313 1175.59,594.344 1178.83,599.391 1182.07,604.453 1185.31,609.53 1188.55,614.621 1191.8,619.725 1195.04,624.843 1198.28,629.973 1201.52,635.115 1204.76,640.269 1208,645.434 1211.24,650.61 1214.48,655.796 1217.73,660.991 1220.97,666.195 1224.21,671.408 1227.45,676.628 1230.69,681.856 1233.93,687.091 1237.17,692.333 1240.42,697.58 1243.66,702.833 1246.9,708.09 1250.14,713.352 1253.38,718.617 1256.62,723.886 1259.86,729.158 1263.11,734.432 1266.35,739.707 1269.59,744.983 1272.83,750.261 1276.07,755.538 1279.31,760.815 1282.55,766.09 1285.8,771.365 1289.04,776.637 1292.28,781.907 1295.52,787.173 1298.76,792.436 1302,797.695 1305.24,802.949 1308.48,808.199 1311.73,813.442 1314.97,818.679 1318.21,823.909 1321.45,829.132 1324.69,834.348 1327.93,839.555 1331.17,844.753 1334.42,849.941 1337.66,855.12 1340.9,860.289 1344.14,865.446 1347.38,870.592 1350.62,875.727 1353.86,880.848 1357.11,885.957 1360.35,891.052 1363.59,896.133 1366.83,901.2 1370.07,906.252 1373.31,911.288 1376.55,916.308 1379.8,921.312 1383.04,926.299 1386.28,931.268 1389.52,936.219 1392.76,941.151 1396,946.065 1399.24,950.959 1402.49,955.833 1405.73,960.687 1408.97,965.519 1412.21,970.331 1415.45,975.12 1418.69,979.887 1421.93,984.631 1425.17,989.352 1428.42,994.048 1431.66,998.721 1434.9,1003.37 1438.14,1007.99 1441.38,1012.59 1444.62,1017.16 1447.86,1021.7 1451.11,1026.22 1454.35,1030.71 1457.59,1035.17 1460.83,1039.6 1464.07,1044.01 1467.31,1048.38 1470.55,1052.73 1473.8,1057.04 1477.04,1061.33 1480.28,1065.58 1483.52,1069.8 1486.76,1073.99 1490,1078.15 1493.24,1082.28 1496.49,1086.37 1499.73,1090.43 1502.97,1094.45 1506.21,1098.44 1509.45,1102.4 1512.69,1106.32 1515.93,1110.2 1519.18,1114.05 1522.42,1117.87 1525.66,1121.64 1528.9,1125.38 1532.14,1129.08 1535.38,1132.75 1538.62,1136.37 1541.86,1139.96 1545.11,1143.51 1548.35,1147.02 1551.59,1150.49 1554.83,1153.92 1558.07,1157.3 1561.31,1160.65 1564.55,1163.96 1567.8,1167.23 1571.04,1170.45 1574.28,1173.63 1577.52,1176.77 1580.76,1179.87 1584,1182.93 1587.24,1185.94 1590.49,1188.91 1593.73,1191.83 1596.97,1194.71 1600.21,1197.55 1603.45,1200.34 1606.69,1203.09 1609.93,1205.79 1613.18,1208.44 1616.42,1211.05 1619.66,1213.62 1622.9,1216.14 1626.14,1218.61 1629.38,1221.03 1632.62,1223.41 1635.86,1225.74 1639.11,1228.02 1642.35,1230.26 1645.59,1232.45 1648.83,1234.59 1652.07,1236.68 1655.31,1238.72 1658.55,1240.71 1661.8,1242.66 1665.04,1244.55 1668.28,1246.4 1671.52,1248.2 1674.76,1249.94 1678,1251.64 1681.24,1253.29 1684.49,1254.88 1687.73,1256.43 1690.97,1257.93 1694.21,1259.37 1697.45,1260.77 1700.69,1262.11 1703.93,1263.4 1707.18,1264.64 1710.42,1265.83 1713.66,1266.97 1716.9,1268.06 1720.14,1269.09 1723.38,1270.07 1726.62,1271.01 1729.87,1271.88 1733.11,1272.71 1736.35,1273.49 1739.59,1274.21 1742.83,1274.88 1746.07,1275.5 1749.31,1276.06 1752.55,1276.58 1755.8,1277.04 1759.04,1277.45 1762.28,1277.8 1765.52,1278.1 1768.76,1278.35 1772,1278.55 1775.24,1278.7 1778.49,1278.79 1781.73,1278.83 1784.97,1278.81 1788.21,1278.75 1791.45,1278.63 1794.69,1278.45 1797.93,1278.23 1801.18,1277.95 1804.42,1277.62 1807.66,1277.24 1810.9,1276.8 1814.14,1276.32 1817.38,1275.78 1820.62,1275.18 1823.87,1274.54 1827.11,1273.84 1830.35,1273.09 1833.59,1272.29 1836.83,1271.43 1840.07,1270.53 1843.31,1269.57 1846.55,1268.56 1849.8,1267.5 1853.04,1266.38 1856.28,1265.22 1859.52,1264 1862.76,1262.73 1866,1261.41 1869.24,1260.04 1872.49,1258.62 1875.73,1257.15 1878.97,1255.63 1882.21,1254.06 1885.45,1252.43 1888.69,1250.76 1891.93,1249.04 1895.18,1247.26 1898.42,1245.44 1901.66,1243.57 1904.9,1241.65 1908.14,1239.68 1911.38,1237.66 1914.62,1235.59 1917.87,1233.48 1921.11,1231.31 1924.35,1229.1 1927.59,1226.84 1930.83,1224.53 1934.07,1222.18 1937.31,1219.77 1940.56,1217.32 1943.8,1214.83 1947.04,1212.29 1950.28,1209.7 1953.52,1207.06 1956.76,1204.38 1960,1201.66 1963.24,1198.89 1966.49,1196.07 1969.73,1193.21 1972.97,1190.31 1976.21,1187.36 1979.45,1184.37 1982.69,1181.34 1985.93,1178.26 1989.18,1175.14 1992.42,1171.98 1995.66,1168.77 1998.9,1165.53 2002.14,1162.24 2005.38,1158.91 2008.62,1155.54 2011.87,1152.13 2015.11,1148.68 2018.35,1145.19 2021.59,1141.66 2024.83,1138.09 2028.07,1134.48 2031.31,1130.84 2034.56,1127.15 2037.8,1123.43 2041.04,1119.68 2044.28,1115.88 2047.52,1112.05 2050.76,1108.18 2054,1104.28 2057.24,1100.34 2060.49,1096.36 2063.73,1092.36 2066.97,1088.31 2070.21,1084.24 2073.45,1080.13 2076.69,1075.99 2079.93,1071.81 2083.18,1067.6 2086.42,1063.37 2089.66,1059.1 2092.9,1054.79 2096.14,1050.46 2099.38,1046.1 2102.62,1041.71 2105.87,1037.29 2109.11,1032.85 2112.35,1028.37 2115.59,1023.86 2118.83,1019.33 2122.07,1014.78 2125.31,1010.19 2128.56,1005.58 2131.8,1000.94 2135.04,996.284 2138.28,991.599 2141.52,986.889 2144.76,982.156 2148,977.4 2151.25,972.622 2154.49,967.821 2157.73,962.998 2160.97,958.155 2164.21,953.29 2167.45,948.406 2170.69,943.501 2173.93,938.578 2177.18,933.636 2180.42,928.675 2183.66,923.697 2186.9,918.701 2190.14,913.689 2193.38,908.66 2196.62,903.616 2199.87,898.556 2203.11,893.482 2206.35,888.393 2209.59,883.291 2212.83,878.175 2216.07,873.047 2219.31,867.907 2222.56,862.754 2225.8,857.591 2229.04,852.417 2232.28,847.233 2235.52,842.039 2238.76,836.837 2242,831.625 2245.25,826.406 2248.49,821.179 2251.73,815.945 2254.97,810.704 2258.21,805.458 2261.45,800.206 2264.69,794.95 2267.94,789.688 2271.18,784.423 2274.42,779.155 2277.66,773.884 2280.9,768.611 2284.14,763.335 2287.38,758.059 2290.62,752.782 "/>
<circle clip-path="url(#clip982)" cx="1490" cy="1129.67" r="14.4" fill="#e26f46" fill-rule="evenodd" fill-opacity="1" stroke="#000000" stroke-opacity="1" stroke-width="3.2"/>
<circle clip-path="url(#clip982)" cx="1337.66" cy="907.175" r="14.4" fill="#e26f46" fill-rule="evenodd" fill-opacity="1" stroke="#000000" stroke-opacity="1" stroke-width="3.2"/>
<circle clip-path="url(#clip982)" cx="1866" cy="1130.35" r="14.4" fill="#e26f46" fill-rule="evenodd" fill-opacity="1" stroke="#000000" stroke-opacity="1" stroke-width="3.2"/>
<circle clip-path="url(#clip982)" cx="569.449" cy="407.652" r="14.4" fill="#e26f46" fill-rule="evenodd" fill-opacity="1" stroke="#000000" stroke-opacity="1" stroke-width="3.2"/>
<circle clip-path="url(#clip982)" cx="420.345" cy="419.53" r="14.4" fill="#e26f46" fill-rule="evenodd" fill-opacity="1" stroke="#000000" stroke-opacity="1" stroke-width="3.2"/>
<circle clip-path="url(#clip982)" cx="605.104" cy="405.477" r="14.4" fill="#e26f46" fill-rule="evenodd" fill-opacity="1" stroke="#000000" stroke-opacity="1" stroke-width="3.2"/>
<circle clip-path="url(#clip982)" cx="1464.07" cy="1055.93" r="14.4" fill="#e26f46" fill-rule="evenodd" fill-opacity="1" stroke="#000000" stroke-opacity="1" stroke-width="3.2"/>
<circle clip-path="url(#clip982)" cx="313.38" cy="763.917" r="14.4" fill="#e26f46" fill-rule="evenodd" fill-opacity="1" stroke="#000000" stroke-opacity="1" stroke-width="3.2"/>
<circle clip-path="url(#clip982)" cx="1097.79" cy="383.633" r="14.4" fill="#e26f46" fill-rule="evenodd" fill-opacity="1" stroke="#000000" stroke-opacity="1" stroke-width="3.2"/>
<circle clip-path="url(#clip982)" cx="2151.25" cy="1029.03" r="14.4" fill="#e26f46" fill-rule="evenodd" fill-opacity="1" stroke="#000000" stroke-opacity="1" stroke-width="3.2"/>
<circle clip-path="url(#clip982)" cx="2054" cy="1077.78" r="14.4" fill="#e26f46" fill-rule="evenodd" fill-opacity="1" stroke="#000000" stroke-opacity="1" stroke-width="3.2"/>
<circle clip-path="url(#clip982)" cx="481.932" cy="325.629" r="14.4" fill="#e26f46" fill-rule="evenodd" fill-opacity="1" stroke="#000000" stroke-opacity="1" stroke-width="3.2"/>
<circle clip-path="url(#clip982)" cx="2238.76" cy="850.273" r="14.4" fill="#e26f46" fill-rule="evenodd" fill-opacity="1" stroke="#000000" stroke-opacity="1" stroke-width="3.2"/>
<circle clip-path="url(#clip982)" cx="1872.49" cy="1365.56" r="14.4" fill="#e26f46" fill-rule="evenodd" fill-opacity="1" stroke="#000000" stroke-opacity="1" stroke-width="3.2"/>
<circle clip-path="url(#clip982)" cx="507.863" cy="290.957" r="14.4" fill="#e26f46" fill-rule="evenodd" fill-opacity="1" stroke="#000000" stroke-opacity="1" stroke-width="3.2"/>
<circle clip-path="url(#clip982)" cx="1042.69" cy="440.483" r="14.4" fill="#e26f46" fill-rule="evenodd" fill-opacity="1" stroke="#000000" stroke-opacity="1" stroke-width="3.2"/>
<circle clip-path="url(#clip982)" cx="1671.52" cy="1304.4" r="14.4" fill="#e26f46" fill-rule="evenodd" fill-opacity="1" stroke="#000000" stroke-opacity="1" stroke-width="3.2"/>
<circle clip-path="url(#clip982)" cx="2277.66" cy="828.835" r="14.4" fill="#e26f46" fill-rule="evenodd" fill-opacity="1" stroke="#000000" stroke-opacity="1" stroke-width="3.2"/>
<circle clip-path="url(#clip982)" cx="1866" cy="1183.85" r="14.4" fill="#e26f46" fill-rule="evenodd" fill-opacity="1" stroke="#000000" stroke-opacity="1" stroke-width="3.2"/>
<circle clip-path="url(#clip982)" cx="2115.59" cy="1120.15" r="14.4" fill="#e26f46" fill-rule="evenodd" fill-opacity="1" stroke="#000000" stroke-opacity="1" stroke-width="3.2"/>
<path clip-path="url(#clip982)" d="M255.035 971.195 L258.276 965.335 L261.517 959.422 L264.759 953.458 L268 947.447 L271.242 941.39 L274.483 935.291 L277.724 929.154 L280.966 922.98 L284.207 916.775 L287.449 910.541 L290.69 904.282 L293.931 898.003 L297.173 891.708 L300.414 885.4 L303.655 879.083 L306.897 872.763 L310.138 866.443 L313.38 860.127 L316.621 853.818 L319.862 847.516 L323.104 841.22 L326.345 834.927 L329.587 828.637 L332.828 822.348 L336.069 816.058 L339.311 809.767 L342.552 803.472 L345.793 797.174 L349.035 790.871 L352.276 784.563 L355.518 778.25 L358.759 771.933 L362 765.613 L365.242 759.29 L368.483 752.967 L371.725 746.645 L374.966 740.328 L378.207 734.019 L381.449 727.721 L384.69 721.439 L387.931 715.179 L391.173 708.945 L394.414 702.744 L397.656 696.582 L400.897 690.467 L404.138 684.407 L407.38 678.41 L410.621 672.486 L413.863 666.643 L417.104 660.892 L420.345 655.243 L423.587 649.706 L426.828 644.281 L430.069 638.967 L433.311 633.766 L436.552 628.676 L439.794 623.699 L443.035 618.838 L446.276 614.093 L449.518 609.469 L452.759 604.97 L456.001 600.6 L459.242 596.364 L462.483 592.27 L465.725 588.324 L468.966 584.534 L472.208 580.909 L475.449 577.459 L478.69 574.193 L481.932 571.123 L485.173 568.259 L488.414 565.6 L491.656 563.148 L494.897 560.902 L498.139 558.863 L501.38 557.034 L504.621 555.415 L507.863 554.01 L511.104 552.819 L514.346 551.836 L517.587 551.05 L520.828 550.453 L524.07 550.037 L527.311 549.796 L530.552 549.723 L533.794 549.812 L537.035 550.06 L540.277 550.464 L543.518 551.02 L546.759 551.726 L550.001 552.584 L553.242 553.591 L556.484 554.749 L559.725 556.06 L562.966 557.525 L566.208 559.148 L569.449 560.93 L572.69 562.875 L575.932 564.979 L579.173 567.238 L582.415 569.648 L585.656 572.205 L588.897 574.907 L592.139 577.749 L595.38 580.73 L598.622 583.847 L601.863 587.097 L605.104 590.478 L608.346 593.987 L611.587 597.615 L614.828 601.348 L618.07 605.177 L621.311 609.092 L624.553 613.08 L627.794 617.133 L631.035 621.241 L634.277 625.394 L637.518 629.584 L640.76 633.803 L644.001 638.042 L647.242 642.295 L650.484 646.554 L653.725 650.812 L656.966 655.063 L660.208 659.301 L663.449 663.521 L666.691 667.717 L669.932 671.884 L673.173 676.018 L676.415 680.114 L679.656 684.168 L682.898 688.177 L686.139 692.136 L689.38 696.043 L692.622 699.893 L695.863 703.685 L699.104 707.415 L702.346 711.081 L705.587 714.68 L708.829 718.211 L712.07 721.67 L715.311 725.056 L718.553 728.368 L721.794 731.603 L725.036 734.759 L728.277 737.837 L731.518 740.833 L734.76 743.746 L738.001 746.577 L741.242 749.323 L744.484 751.983 L747.725 754.557 L750.967 757.043 L754.208 759.441 L757.449 761.751 L760.691 763.971 L763.932 766.101 L767.174 768.14 L770.415 770.089 L773.656 771.946 L776.898 773.711 L780.139 775.384 L783.381 776.965 L786.622 778.454 L789.863 779.85 L793.105 781.153 L796.346 782.363 L799.587 783.481 L802.829 784.506 L806.07 785.437 L809.312 786.277 L812.553 787.024 L815.794 787.678 L819.036 788.241 L822.277 788.711 L825.519 789.09 L828.76 789.378 L832.001 789.575 L835.243 789.682 L838.484 789.699 L841.725 789.626 L844.967 789.464 L848.208 789.214 L851.45 788.877 L854.691 788.452 L857.932 787.941 L861.174 787.345 L864.415 786.664 L867.657 785.9 L870.898 785.052 L874.139 784.123 L877.381 783.113 L880.622 782.023 L883.863 780.855 L887.105 779.61 L890.346 778.289 L893.588 776.893 L896.829 775.425 L900.07 773.885 L903.312 772.275 L906.553 770.598 L909.795 768.854 L913.036 767.046 L916.277 765.176 L919.519 763.247 L922.76 761.259 L926.001 759.217 L929.243 757.122 L932.484 754.978 L935.726 752.786 L938.967 750.551 L942.208 748.275 L945.45 745.963 L948.691 743.616 L951.933 741.241 L955.174 738.839 L958.415 736.417 L961.657 733.978 L964.898 731.526 L968.139 729.069 L971.381 726.609 L974.622 724.154 L977.864 721.71 L981.105 719.282 L984.346 716.878 L987.588 714.504 L990.829 712.169 L994.071 709.879 L997.312 707.644 L1000.55 705.472 L1003.79 703.372 L1007.04 701.355 L1010.28 699.429 L1013.52 697.607 L1016.76 695.898 L1020 694.314 L1023.24 692.868 L1026.48 691.571 L1029.73 690.436 L1032.97 689.476 L1036.21 688.705 L1039.45 688.136 L1042.69 687.782 L1045.93 687.655 L1049.17 687.758 L1052.42 688.091 L1055.66 688.655 L1058.9 689.451 L1062.14 690.479 L1065.38 691.74 L1068.62 693.235 L1071.86 694.965 L1075.11 696.931 L1078.35 699.133 L1081.59 701.575 L1084.83 704.256 L1088.07 707.178 L1091.31 710.344 L1094.55 713.755 L1097.79 717.412 L1101.04 721.314 L1104.28 725.449 L1107.52 729.802 L1110.76 734.357 L1114 739.099 L1117.24 744.013 L1120.48 749.086 L1123.73 754.303 L1126.97 759.651 L1130.21 765.117 L1133.45 770.689 L1136.69 776.356 L1139.93 782.105 L1143.17 787.926 L1146.42 793.809 L1149.66 799.745 L1152.9 805.724 L1156.14 811.737 L1159.38 817.776 L1162.62 823.834 L1165.86 829.904 L1169.11 835.977 L1172.35 842.049 L1175.59 848.113 L1178.83 854.163 L1182.07 860.194 L1185.31 866.201 L1188.55 872.18 L1191.8 878.126 L1195.04 884.035 L1198.28 889.903 L1201.52 895.728 L1204.76 901.505 L1208 907.233 L1211.24 912.908 L1214.48 918.528 L1217.73 924.091 L1220.97 929.595 L1224.21 935.039 L1227.45 940.42 L1230.69 945.738 L1233.93 950.992 L1237.17 956.181 L1240.42 961.304 L1243.66 966.362 L1246.9 971.353 L1250.14 976.278 L1253.38 981.137 L1256.62 985.931 L1259.86 990.661 L1263.11 995.327 L1266.35 999.931 L1269.59 1004.47 L1272.83 1008.96 L1276.07 1013.38 L1279.31 1017.75 L1282.55 1022.07 L1285.8 1026.34 L1289.04 1030.56 L1292.28 1034.73 L1295.52 1038.86 L1298.76 1042.96 L1302 1047.02 L1305.24 1051.05 L1308.48 1055.05 L1311.73 1059.03 L1314.97 1063 L1318.21 1066.95 L1321.45 1070.9 L1324.69 1074.84 L1327.93 1078.78 L1331.17 1082.73 L1334.42 1086.7 L1337.66 1090.68 L1340.9 1094.69 L1344.14 1098.71 L1347.38 1102.75 L1350.62 1106.79 L1353.86 1110.84 L1357.11 1114.9 L1360.35 1118.94 L1363.59 1122.98 L1366.83 1127 L1370.07 1131.01 L1373.31 1135 L1376.55 1138.97 L1379.8 1142.9 L1383.04 1146.81 L1386.28 1150.69 L1389.52 1154.54 L1392.76 1158.35 L1396 1162.13 L1399.24 1165.87 L1402.49 1169.58 L1405.73 1173.25 L1408.97 1176.89 L1412.21 1180.5 L1415.45 1184.09 L1418.69 1187.64 L1421.93 1191.18 L1425.17 1194.69 L1428.42 1198.2 L1431.66 1201.69 L1434.9 1205.18 L1438.14 1208.68 L1441.38 1212.18 L1444.62 1215.7 L1447.86 1219.25 L1451.11 1222.83 L1454.35 1226.44 L1457.59 1230.11 L1460.83 1233.84 L1464.07 1237.63 L1467.31 1241.49 L1470.55 1245.43 L1473.8 1249.43 L1477.04 1253.51 L1480.28 1257.66 L1483.52 1261.87 L1486.76 1266.14 L1490 1270.48 L1493.24 1274.88 L1496.49 1279.33 L1499.73 1283.81 L1502.97 1288.33 L1506.21 1292.87 L1509.45 1297.42 L1512.69 1301.97 L1515.93 1306.51 L1519.18 1311.04 L1522.42 1315.55 L1525.66 1320.02 L1528.9 1324.45 L1532.14 1328.84 L1535.38 1333.18 L1538.62 1337.46 L1541.86 1341.67 L1545.11 1345.81 L1548.35 1349.88 L1551.59 1353.88 L1554.83 1357.79 L1558.07 1361.61 L1561.31 1365.35 L1564.55 1368.99 L1567.8 1372.54 L1571.04 1376 L1574.28 1379.35 L1577.52 1382.61 L1580.76 1385.77 L1584 1388.82 L1587.24 1391.78 L1590.49 1394.63 L1593.73 1397.38 L1596.97 1400.03 L1600.21 1402.58 L1603.45 1405.04 L1606.69 1407.39 L1609.93 1409.64 L1613.18 1411.8 L1616.42 1413.87 L1619.66 1415.84 L1622.9 1417.73 L1626.14 1419.53 L1629.38 1421.24 L1632.62 1422.88 L1635.86 1424.43 L1639.11 1425.92 L1642.35 1427.33 L1645.59 1428.67 L1648.83 1429.96 L1652.07 1431.18 L1655.31 1432.35 L1658.55 1433.47 L1661.8 1434.54 L1665.04 1435.56 L1668.28 1436.55 L1671.52 1437.5 L1674.76 1438.42 L1678 1439.3 L1681.24 1440.14 L1684.49 1440.94 L1687.73 1441.69 L1690.97 1442.39 L1694.21 1443.03 L1697.45 1443.62 L1700.69 1444.14 L1703.93 1444.59 L1707.18 1444.97 L1710.42 1445.28 L1713.66 1445.51 L1716.9 1445.65 L1720.14 1445.72 L1723.38 1445.69 L1726.62 1445.58 L1729.87 1445.37 L1733.11 1445.07 L1736.35 1444.67 L1739.59 1444.18 L1742.83 1443.58 L1746.07 1442.89 L1749.31 1442.09 L1752.55 1441.19 L1755.8 1440.19 L1759.04 1439.09 L1762.28 1437.89 L1765.52 1436.59 L1768.76 1435.18 L1772 1433.68 L1775.24 1432.09 L1778.49 1430.39 L1781.73 1428.61 L1784.97 1426.74 L1788.21 1424.78 L1791.45 1422.74 L1794.69 1420.63 L1797.93 1418.44 L1801.18 1416.18 L1804.42 1413.87 L1807.66 1411.49 L1810.9 1409.08 L1814.14 1406.62 L1817.38 1404.13 L1820.62 1401.62 L1823.87 1399.1 L1827.11 1396.58 L1830.35 1394.07 L1833.59 1391.58 L1836.83 1389.12 L1840.07 1386.72 L1843.31 1384.37 L1846.55 1382.1 L1849.8 1379.92 L1853.04 1377.85 L1856.28 1375.89 L1859.52 1374.07 L1862.76 1372.4 L1866 1370.89 L1869.24 1369.55 L1872.49 1368.37 L1875.73 1367.34 L1878.97 1366.46 L1882.21 1365.69 L1885.45 1365.03 L1888.69 1364.47 L1891.93 1363.99 L1895.18 1363.58 L1898.42 1363.21 L1901.66 1362.88 L1904.9 1362.58 L1908.14 1362.29 L1911.38 1361.99 L1914.62 1361.68 L1917.87 1361.35 L1921.11 1360.99 L1924.35 1360.58 L1927.59 1360.12 L1930.83 1359.61 L1934.07 1359.02 L1937.31 1358.37 L1940.56 1357.64 L1943.8 1356.82 L1947.04 1355.91 L1950.28 1354.91 L1953.52 1353.82 L1956.76 1352.63 L1960 1351.34 L1963.24 1349.94 L1966.49 1348.44 L1969.73 1346.83 L1972.97 1345.11 L1976.21 1343.29 L1979.45 1341.36 L1982.69 1339.32 L1985.93 1337.18 L1989.18 1334.93 L1992.42 1332.57 L1995.66 1330.12 L1998.9 1327.56 L2002.14 1324.91 L2005.38 1322.16 L2008.62 1319.32 L2011.87 1316.4 L2015.11 1313.39 L2018.35 1310.3 L2021.59 1307.14 L2024.83 1303.9 L2028.07 1300.61 L2031.31 1297.25 L2034.56 1293.85 L2037.8 1290.4 L2041.04 1286.91 L2044.28 1283.38 L2047.52 1279.84 L2050.76 1276.27 L2054 1272.7 L2057.24 1269.13 L2060.49 1265.55 L2063.73 1261.97 L2066.97 1258.37 L2070.21 1254.78 L2073.45 1251.17 L2076.69 1247.55 L2079.93 1243.92 L2083.18 1240.27 L2086.42 1236.62 L2089.66 1232.95 L2092.9 1229.28 L2096.14 1225.6 L2099.38 1221.91 L2102.62 1218.22 L2105.87 1214.53 L2109.11 1210.84 L2112.35 1207.16 L2115.59 1203.48 L2118.83 1199.83 L2122.07 1196.18 L2125.31 1192.55 L2128.56 1188.94 L2131.8 1185.34 L2135.04 1181.75 L2138.28 1178.19 L2141.52 1174.64 L2144.76 1171.11 L2148 1167.61 L2151.25 1164.14 L2154.49 1160.69 L2157.73 1157.27 L2160.97 1153.87 L2164.21 1150.5 L2167.45 1147.13 L2170.69 1143.79 L2173.93 1140.46 L2177.18 1137.14 L2180.42 1133.84 L2183.66 1130.56 L2186.9 1127.29 L2190.14 1124.04 L2193.38 1120.82 L2196.62 1117.63 L2199.87 1114.47 L2203.11 1111.35 L2206.35 1108.28 L2209.59 1105.26 L2212.83 1102.31 L2216.07 1099.43 L2219.31 1096.63 L2222.56 1093.92 L2225.8 1091.32 L2229.04 1088.84 L2232.28 1086.49 L2235.52 1084.28 L2238.76 1082.22 L2242 1080.33 L2245.25 1078.61 L2248.49 1077.06 L2251.73 1075.68 L2254.97 1074.47 L2258.21 1073.44 L2261.45 1072.58 L2264.69 1071.91 L2267.94 1071.41 L2271.18 1071.09 L2274.42 1070.96 L2277.66 1071.02 L2280.9 1071.27 L2284.14 1071.69 L2287.38 1072.28 L2290.62 1073.02 L2290.62 635.657 L2287.38 641.308 L2284.14 646.91 L2280.9 652.454 L2277.66 657.933 L2274.42 663.34 L2271.18 668.675 L2267.94 673.937 L2264.69 679.129 L2261.45 684.251 L2258.21 689.304 L2254.97 694.289 L2251.73 699.207 L2248.49 704.058 L2245.25 708.843 L2242 713.562 L2238.76 718.216 L2235.52 722.806 L2232.28 727.338 L2229.04 731.819 L2225.8 736.257 L2222.56 740.657 L2219.31 745.025 L2216.07 749.367 L2212.83 753.687 L2209.59 757.991 L2206.35 762.281 L2203.11 766.559 L2199.87 770.829 L2196.62 775.092 L2193.38 779.346 L2190.14 783.593 L2186.9 787.829 L2183.66 792.054 L2180.42 796.264 L2177.18 800.455 L2173.93 804.622 L2170.69 808.759 L2167.45 812.859 L2164.21 816.916 L2160.97 820.922 L2157.73 824.868 L2154.49 828.744 L2151.25 832.541 L2148 836.25 L2144.76 839.87 L2141.52 843.399 L2138.28 846.836 L2135.04 850.18 L2131.8 853.429 L2128.56 856.58 L2125.31 859.629 L2122.07 862.575 L2118.83 865.412 L2115.59 868.137 L2112.35 870.747 L2109.11 873.249 L2105.87 875.651 L2102.62 877.96 L2099.38 880.183 L2096.14 882.327 L2092.9 884.399 L2089.66 886.403 L2086.42 888.346 L2083.18 890.231 L2079.93 892.063 L2076.69 893.845 L2073.45 895.581 L2070.21 897.272 L2066.97 898.921 L2063.73 900.528 L2060.49 902.097 L2057.24 903.627 L2054 905.119 L2050.76 906.574 L2047.52 908.002 L2044.28 909.41 L2041.04 910.807 L2037.8 912.201 L2034.56 913.602 L2031.31 915.015 L2028.07 916.449 L2024.83 917.911 L2021.59 919.406 L2018.35 920.941 L2015.11 922.521 L2011.87 924.151 L2008.62 925.837 L2005.38 927.581 L2002.14 929.389 L1998.9 931.263 L1995.66 933.205 L1992.42 935.22 L1989.18 937.307 L1985.93 939.47 L1982.69 941.709 L1979.45 944.025 L1976.21 946.417 L1972.97 948.886 L1969.73 951.431 L1966.49 954.051 L1963.24 956.743 L1960 959.506 L1956.76 962.337 L1953.52 965.233 L1950.28 968.189 L1947.04 971.201 L1943.8 974.265 L1940.56 977.374 L1937.31 980.522 L1934.07 983.703 L1930.83 986.908 L1927.59 990.129 L1924.35 993.357 L1921.11 996.582 L1917.87 999.793 L1914.62 1002.98 L1911.38 1006.12 L1908.14 1009.22 L1904.9 1012.25 L1901.66 1015.2 L1898.42 1018.05 L1895.18 1020.79 L1891.93 1023.4 L1888.69 1025.86 L1885.45 1028.15 L1882.21 1030.26 L1878.97 1032.17 L1875.73 1033.85 L1872.49 1035.3 L1869.24 1036.49 L1866 1037.42 L1862.76 1038.11 L1859.52 1038.55 L1856.28 1038.77 L1853.04 1038.78 L1849.8 1038.6 L1846.55 1038.24 L1843.31 1037.73 L1840.07 1037.08 L1836.83 1036.31 L1833.59 1035.42 L1830.35 1034.44 L1827.11 1033.37 L1823.87 1032.24 L1820.62 1031.06 L1817.38 1029.83 L1814.14 1028.57 L1810.9 1027.28 L1807.66 1025.98 L1804.42 1024.67 L1801.18 1023.37 L1797.93 1022.08 L1794.69 1020.8 L1791.45 1019.54 L1788.21 1018.31 L1784.97 1017.11 L1781.73 1015.94 L1778.49 1014.81 L1775.24 1013.71 L1772 1012.66 L1768.76 1011.65 L1765.52 1010.68 L1762.28 1009.76 L1759.04 1008.88 L1755.8 1008.04 L1752.55 1007.25 L1749.31 1006.5 L1746.07 1005.78 L1742.83 1005.11 L1739.59 1004.47 L1736.35 1003.86 L1733.11 1003.27 L1729.87 1002.72 L1726.62 1002.18 L1723.38 1001.65 L1720.14 1001.14 L1716.9 1000.64 L1713.66 1000.13 L1710.42 999.614 L1707.18 999.088 L1703.93 998.542 L1700.69 997.97 L1697.45 997.364 L1694.21 996.718 L1690.97 996.022 L1687.73 995.27 L1684.49 994.452 L1681.24 993.561 L1678 992.589 L1674.76 991.526 L1671.52 990.364 L1668.28 989.097 L1665.04 987.731 L1661.8 986.273 L1658.55 984.731 L1655.31 983.114 L1652.07 981.427 L1648.83 979.68 L1645.59 977.88 L1642.35 976.033 L1639.11 974.146 L1635.86 972.226 L1632.62 970.28 L1629.38 968.313 L1626.14 966.331 L1622.9 964.339 L1619.66 962.343 L1616.42 960.347 L1613.18 958.355 L1609.93 956.371 L1606.69 954.4 L1603.45 952.444 L1600.21 950.506 L1596.97 948.588 L1593.73 946.694 L1590.49 944.823 L1587.24 942.979 L1584 941.161 L1580.76 939.37 L1577.52 937.606 L1574.28 935.87 L1571.04 934.16 L1567.8 932.475 L1564.55 930.813 L1561.31 929.173 L1558.07 927.552 L1554.83 925.947 L1551.59 924.354 L1548.35 922.77 L1545.11 921.19 L1541.86 919.609 L1538.62 918.021 L1535.38 916.421 L1532.14 914.802 L1528.9 913.157 L1525.66 911.478 L1522.42 909.757 L1519.18 907.985 L1515.93 906.152 L1512.69 904.249 L1509.45 902.266 L1506.21 900.191 L1502.97 898.013 L1499.73 895.72 L1496.49 893.301 L1493.24 890.743 L1490 888.034 L1486.76 885.164 L1483.52 882.129 L1480.28 878.932 L1477.04 875.572 L1473.8 872.048 L1470.55 868.363 L1467.31 864.515 L1464.07 860.505 L1460.83 856.336 L1457.59 852.017 L1454.35 847.557 L1451.11 842.968 L1447.86 838.26 L1444.62 833.443 L1441.38 828.526 L1438.14 823.52 L1434.9 818.431 L1431.66 813.27 L1428.42 808.042 L1425.17 802.756 L1421.93 797.417 L1418.69 792.031 L1415.45 786.604 L1412.21 781.14 L1408.97 775.642 L1405.73 770.114 L1402.49 764.558 L1399.24 758.977 L1396 753.371 L1392.76 747.742 L1389.52 742.09 L1386.28 736.413 L1383.04 730.712 L1379.8 724.985 L1376.55 719.23 L1373.31 713.445 L1370.07 707.626 L1366.83 701.771 L1363.59 695.876 L1360.35 689.937 L1357.11 683.95 L1353.86 677.91 L1350.62 671.813 L1347.38 665.653 L1344.14 659.425 L1340.9 653.125 L1337.66 646.747 L1334.42 640.288 L1331.17 633.754 L1327.93 627.154 L1324.69 620.496 L1321.45 613.789 L1318.21 607.04 L1314.97 600.258 L1311.73 593.451 L1308.48 586.626 L1305.24 579.791 L1302 572.954 L1298.76 566.121 L1295.52 559.3 L1292.28 552.496 L1289.04 545.716 L1285.8 538.967 L1282.55 532.254 L1279.31 525.582 L1276.07 518.958 L1272.83 512.385 L1269.59 505.87 L1266.35 499.416 L1263.11 493.028 L1259.86 486.711 L1256.62 480.467 L1253.38 474.302 L1250.14 468.218 L1246.9 462.218 L1243.66 456.306 L1240.42 450.486 L1237.17 444.758 L1233.93 439.127 L1230.69 433.594 L1227.45 428.162 L1224.21 422.833 L1220.97 417.608 L1217.73 412.489 L1214.48 407.477 L1211.24 402.574 L1208 397.781 L1204.76 393.099 L1201.52 388.528 L1198.28 384.068 L1195.04 379.721 L1191.8 375.487 L1188.55 371.364 L1185.31 367.352 L1182.07 363.452 L1178.83 359.662 L1175.59 355.981 L1172.35 352.408 L1169.11 348.94 L1165.86 345.577 L1162.62 342.315 L1159.38 339.153 L1156.14 336.087 L1152.9 333.113 L1149.66 330.23 L1146.42 327.431 L1143.17 324.714 L1139.93 322.072 L1136.69 319.502 L1133.45 316.997 L1130.21 314.552 L1126.97 312.16 L1123.73 309.814 L1120.48 307.507 L1117.24 305.232 L1114 302.98 L1110.76 300.744 L1107.52 298.515 L1104.28 296.284 L1101.04 294.044 L1097.79 291.784 L1094.55 289.498 L1091.31 287.18 L1088.07 284.828 L1084.83 282.438 L1081.59 280.006 L1078.35 277.53 L1075.11 275.005 L1071.86 272.429 L1068.62 269.8 L1065.38 267.113 L1062.14 264.365 L1058.9 261.554 L1055.66 258.677 L1052.42 255.731 L1049.17 252.712 L1045.93 249.619 L1042.69 246.449 L1039.45 243.202 L1036.21 239.883 L1032.97 236.5 L1029.73 233.063 L1026.48 229.578 L1023.24 226.054 L1020 222.499 L1016.76 218.92 L1013.52 215.323 L1010.28 211.718 L1007.04 208.108 L1003.79 204.502 L1000.55 200.905 L997.312 197.322 L994.071 193.759 L990.829 190.22 L987.588 186.71 L984.346 183.233 L981.105 179.794 L977.864 176.394 L974.622 173.039 L971.381 169.731 L968.139 166.472 L964.898 163.266 L961.657 160.114 L958.415 157.019 L955.174 153.982 L951.933 151.006 L948.691 148.091 L945.45 145.24 L942.208 142.453 L938.967 139.731 L935.726 137.076 L932.484 134.488 L929.243 131.968 L926.001 129.517 L922.76 127.135 L919.519 124.823 L916.277 122.581 L913.036 120.409 L909.795 118.308 L906.553 116.278 L903.312 114.319 L900.07 112.431 L896.829 110.614 L893.588 108.869 L890.346 107.194 L887.105 105.591 L883.863 104.058 L880.622 102.597 L877.381 101.206 L874.139 99.8863 L870.898 98.6369 L867.657 97.4578 L864.415 96.3489 L861.174 95.31 L857.932 94.3408 L854.691 93.4411 L851.45 92.6109 L848.208 91.8497 L844.967 91.1575 L841.725 90.5339 L838.484 89.9788 L835.243 89.492 L832.001 89.0731 L828.76 88.7221 L825.519 88.4387 L822.277 88.2226 L819.036 88.0736 L815.794 87.9916 L812.553 87.9763 L809.312 88.0275 L806.07 88.145 L802.829 88.3286 L799.587 88.578 L796.346 88.8932 L793.105 89.2738 L789.863 89.7196 L786.622 90.2306 L783.381 90.8063 L780.139 91.4466 L776.898 92.1514 L773.656 92.9202 L770.415 93.753 L767.174 94.6495 L763.932 95.6093 L760.691 96.6323 L757.449 97.7181 L754.208 98.8663 L750.967 100.077 L747.725 101.349 L744.484 102.683 L741.242 104.077 L738.001 105.533 L734.76 107.048 L731.518 108.623 L728.277 110.256 L725.036 111.948 L721.794 113.698 L718.553 115.505 L715.311 117.367 L712.07 119.285 L708.829 121.257 L705.587 123.282 L702.346 125.36 L699.104 127.488 L695.863 129.665 L692.622 131.891 L689.38 134.163 L686.139 136.479 L682.898 138.839 L679.656 141.239 L676.415 143.677 L673.173 146.152 L669.932 148.66 L666.691 151.199 L663.449 153.766 L660.208 156.357 L656.966 158.969 L653.725 161.598 L650.484 164.24 L647.242 166.89 L644.001 169.545 L640.76 172.199 L637.518 174.846 L634.277 177.481 L631.035 180.098 L627.794 182.691 L624.553 185.252 L621.311 187.775 L618.07 190.253 L614.828 192.677 L611.587 195.039 L608.346 197.332 L605.104 199.548 L601.863 201.678 L598.622 203.724 L595.38 205.689 L592.139 207.573 L588.897 209.38 L585.656 211.11 L582.415 212.766 L579.173 214.349 L575.932 215.86 L572.69 217.3 L569.449 218.671 L566.208 219.975 L562.966 221.22 L559.725 222.418 L556.484 223.578 L553.242 224.71 L550.001 225.823 L546.759 226.926 L543.518 228.027 L540.277 229.133 L537.035 230.251 L533.794 231.388 L530.552 232.548 L527.311 233.736 L524.07 234.955 L520.828 236.21 L517.587 237.501 L514.346 238.832 L511.104 240.203 L507.863 241.616 L504.621 243.07 L501.38 244.568 L498.139 246.112 L494.897 247.705 L491.656 249.347 L488.414 251.04 L485.173 252.785 L481.932 254.581 L478.69 256.431 L475.449 258.336 L472.208 260.299 L468.966 262.324 L465.725 264.412 L462.483 266.566 L459.242 268.786 L456.001 271.072 L452.759 273.425 L449.518 275.843 L446.276 278.325 L443.035 280.869 L439.794 283.472 L436.552 286.13 L433.311 288.841 L430.069 291.599 L426.828 294.399 L423.587 297.237 L420.345 300.107 L417.104 303.004 L413.863 305.927 L410.621 308.876 L407.38 311.85 L404.138 314.849 L400.897 317.871 L397.656 320.915 L394.414 323.977 L391.173 327.057 L387.931 330.149 L384.69 333.251 L381.449 336.358 L378.207 339.466 L374.966 342.569 L371.725 345.66 L368.483 348.735 L365.242 351.786 L362 354.805 L358.759 357.785 L355.518 360.718 L352.276 363.594 L349.035 366.404 L345.793 369.14 L342.552 371.791 L339.311 374.346 L336.069 376.796 L332.828 379.128 L329.587 381.333 L326.345 383.399 L323.104 385.315 L319.862 387.069 L316.621 388.65 L313.38 390.045 L310.138 391.248 L306.897 392.263 L303.655 393.098 L300.414 393.761 L297.173 394.26 L293.931 394.604 L290.69 394.8 L287.449 394.856 L284.207 394.78 L280.966 394.578 L277.724 394.259 L274.483 393.829 L271.242 393.295 L268 392.662 L264.759 391.938 L261.517 391.128 L258.276 390.238 L255.035 389.273  Z" fill="#3da44d" fill-rule="evenodd" fill-opacity="0.1"/>
<polyline clip-path="url(#clip982)" style="stroke:#3da44d; stroke-linecap:round; stroke-linejoin:round; stroke-width:8; stroke-opacity:1; fill:none" points="255.035,680.234 258.276,677.786 261.517,675.275 264.759,672.698 268,670.054 271.242,667.342 274.483,664.56 277.724,661.706 280.966,658.779 284.207,655.777 287.449,652.698 290.69,649.541 293.931,646.304 297.173,642.984 300.414,639.58 303.655,636.09 306.897,632.513 310.138,628.845 313.38,625.086 316.621,621.234 319.862,617.293 323.104,613.267 326.345,609.163 329.587,604.985 332.828,600.738 336.069,596.427 339.311,592.056 342.552,587.631 345.793,583.157 349.035,578.638 352.276,574.078 355.518,569.484 358.759,564.859 362,560.209 365.242,555.538 368.483,550.851 371.725,546.153 374.966,541.448 378.207,536.742 381.449,532.04 384.69,527.345 387.931,522.664 391.173,518.001 394.414,513.36 397.656,508.748 400.897,504.169 404.138,499.628 407.38,495.13 410.621,490.681 413.863,486.285 417.104,481.948 420.345,477.675 423.587,473.472 426.828,469.34 430.069,465.283 433.311,461.303 436.552,457.403 439.794,453.585 443.035,449.853 446.276,446.209 449.518,442.656 452.759,439.197 456.001,435.836 459.242,432.575 462.483,429.418 465.725,426.368 468.966,423.429 472.208,420.604 475.449,417.897 478.69,415.312 481.932,412.852 485.173,410.522 488.414,408.32 491.656,406.248 494.897,404.303 498.139,402.488 501.38,400.801 504.621,399.242 507.863,397.813 511.104,396.511 514.346,395.334 517.587,394.276 520.828,393.331 524.07,392.496 527.311,391.766 530.552,391.135 533.794,390.6 537.035,390.156 540.277,389.798 543.518,389.523 546.759,389.326 550.001,389.203 553.242,389.15 556.484,389.164 559.725,389.239 562.966,389.373 566.208,389.561 569.449,389.801 572.69,390.088 575.932,390.419 579.173,390.793 582.415,391.207 585.656,391.658 588.897,392.143 592.139,392.661 595.38,393.209 598.622,393.786 601.863,394.387 605.104,395.013 608.346,395.66 611.587,396.327 614.828,397.012 618.07,397.715 621.311,398.433 624.553,399.166 627.794,399.912 631.035,400.669 634.277,401.438 637.518,402.215 640.76,403.001 644.001,403.794 647.242,404.593 650.484,405.397 653.725,406.205 656.966,407.016 660.208,407.829 663.449,408.643 666.691,409.458 669.932,410.272 673.173,411.085 676.415,411.896 679.656,412.704 682.898,413.508 686.139,414.308 689.38,415.103 692.622,415.892 695.863,416.675 699.104,417.451 702.346,418.22 705.587,418.981 708.829,419.734 712.07,420.478 715.311,421.212 718.553,421.936 721.794,422.65 725.036,423.354 728.277,424.046 731.518,424.728 734.76,425.397 738.001,426.055 741.242,426.7 744.484,427.333 747.725,427.953 750.967,428.56 754.208,429.154 757.449,429.734 760.691,430.301 763.932,430.855 767.174,431.395 770.415,431.921 773.656,432.433 776.898,432.931 780.139,433.415 783.381,433.886 786.622,434.342 789.863,434.785 793.105,435.213 796.346,435.628 799.587,436.029 802.829,436.417 806.07,436.791 809.312,437.152 812.553,437.5 815.794,437.835 819.036,438.157 822.277,438.467 825.519,438.764 828.76,439.05 832.001,439.324 835.243,439.587 838.484,439.839 841.725,440.08 844.967,440.311 848.208,440.532 851.45,440.744 854.691,440.947 857.932,441.141 861.174,441.328 864.415,441.507 867.657,441.679 870.898,441.845 874.139,442.005 877.381,442.16 880.622,442.31 883.863,442.457 887.105,442.6 890.346,442.741 893.588,442.881 896.829,443.02 900.07,443.158 903.312,443.297 906.553,443.438 909.795,443.581 913.036,443.728 916.277,443.879 919.519,444.035 922.76,444.197 926.001,444.367 929.243,444.545 932.484,444.733 935.726,444.931 938.967,445.141 942.208,445.364 945.45,445.601 948.691,445.854 951.933,446.123 955.174,446.411 958.415,446.718 961.657,447.046 964.898,447.396 968.139,447.771 971.381,448.17 974.622,448.597 977.864,449.052 981.105,449.538 984.346,450.056 987.588,450.607 990.829,451.194 994.071,451.819 997.312,452.483 1000.55,453.189 1003.79,453.937 1007.04,454.732 1010.28,455.573 1013.52,456.465 1016.76,457.409 1020,458.406 1023.24,459.461 1026.48,460.574 1029.73,461.749 1032.97,462.988 1036.21,464.294 1039.45,465.669 1042.69,467.116 1045.93,468.637 1049.17,470.235 1052.42,471.911 1055.66,473.666 1058.9,475.503 1062.14,477.422 1065.38,479.426 1068.62,481.517 1071.86,483.697 1075.11,485.968 1078.35,488.331 1081.59,490.79 1084.83,493.347 1088.07,496.003 1091.31,498.762 1094.55,501.626 1097.79,504.598 1101.04,507.679 1104.28,510.867 1107.52,514.159 1110.76,517.55 1114,521.039 1117.24,524.622 1120.48,528.296 1123.73,532.058 1126.97,535.905 1130.21,539.835 1133.45,543.843 1136.69,547.929 1139.93,552.089 1143.17,556.32 1146.42,560.62 1149.66,564.987 1152.9,569.418 1156.14,573.912 1159.38,578.465 1162.62,583.075 1165.86,587.74 1169.11,592.459 1172.35,597.228 1175.59,602.047 1178.83,606.913 1182.07,611.823 1185.31,616.777 1188.55,621.772 1191.8,626.806 1195.04,631.878 1198.28,636.986 1201.52,642.128 1204.76,647.302 1208,652.507 1211.24,657.741 1214.48,663.003 1217.73,668.29 1220.97,673.601 1224.21,678.936 1227.45,684.291 1230.69,689.666 1233.93,695.06 1237.17,700.47 1240.42,705.895 1243.66,711.334 1246.9,716.785 1250.14,722.248 1253.38,727.719 1256.62,733.199 1259.86,738.686 1263.11,744.178 1266.35,749.673 1269.59,755.172 1272.83,760.671 1276.07,766.17 1279.31,771.667 1282.55,777.162 1285.8,782.652 1289.04,788.136 1292.28,793.613 1295.52,799.081 1298.76,804.539 1302,809.986 1305.24,815.419 1308.48,820.839 1311.73,826.242 1314.97,831.628 1318.21,836.995 1321.45,842.342 1324.69,847.667 1327.93,852.968 1331.17,858.244 1334.42,863.494 1337.66,868.715 1340.9,873.906 1344.14,879.068 1347.38,884.2 1350.62,889.303 1353.86,894.377 1357.11,899.423 1360.35,904.44 1363.59,909.428 1366.83,914.388 1370.07,919.319 1373.31,924.223 1376.55,929.098 1379.8,933.944 1383.04,938.763 1386.28,943.552 1389.52,948.314 1392.76,953.046 1396,957.749 1399.24,962.424 1402.49,967.068 1405.73,971.683 1408.97,976.268 1412.21,980.822 1415.45,985.346 1418.69,989.837 1421.93,994.297 1425.17,998.725 1428.42,1003.12 1431.66,1007.48 1434.9,1011.81 1438.14,1016.1 1441.38,1020.35 1444.62,1024.57 1447.86,1028.75 1451.11,1032.9 1454.35,1037 1457.59,1041.06 1460.83,1045.09 1464.07,1049.07 1467.31,1053 1470.55,1056.89 1473.8,1060.74 1477.04,1064.54 1480.28,1068.29 1483.52,1072 1486.76,1075.65 1490,1079.26 1493.24,1082.81 1496.49,1086.31 1499.73,1089.77 1502.97,1093.17 1506.21,1096.53 1509.45,1099.84 1512.69,1103.11 1515.93,1106.33 1519.18,1109.51 1522.42,1112.65 1525.66,1115.75 1528.9,1118.81 1532.14,1121.82 1535.38,1124.8 1538.62,1127.74 1541.86,1130.64 1545.11,1133.5 1548.35,1136.33 1551.59,1139.12 1554.83,1141.87 1558.07,1144.58 1561.31,1147.26 1564.55,1149.9 1567.8,1152.51 1571.04,1155.08 1574.28,1157.61 1577.52,1160.11 1580.76,1162.57 1584,1164.99 1587.24,1167.38 1590.49,1169.73 1593.73,1172.04 1596.97,1174.31 1600.21,1176.55 1603.45,1178.74 1606.69,1180.89 1609.93,1183.01 1613.18,1185.08 1616.42,1187.11 1619.66,1189.09 1622.9,1191.03 1626.14,1192.93 1629.38,1194.78 1632.62,1196.58 1635.86,1198.33 1639.11,1200.03 1642.35,1201.68 1645.59,1203.28 1648.83,1204.82 1652.07,1206.3 1655.31,1207.73 1658.55,1209.1 1661.8,1210.4 1665.04,1211.65 1668.28,1212.82 1671.52,1213.93 1674.76,1214.97 1678,1215.94 1681.24,1216.85 1684.49,1217.7 1687.73,1218.48 1690.97,1219.21 1694.21,1219.88 1697.45,1220.49 1700.69,1221.05 1703.93,1221.57 1707.18,1222.03 1710.42,1222.45 1713.66,1222.82 1716.9,1223.14 1720.14,1223.43 1723.38,1223.67 1726.62,1223.88 1729.87,1224.04 1733.11,1224.17 1736.35,1224.26 1739.59,1224.32 1742.83,1224.34 1746.07,1224.34 1749.31,1224.29 1752.55,1224.22 1755.8,1224.12 1759.04,1223.99 1762.28,1223.82 1765.52,1223.63 1768.76,1223.42 1772,1223.17 1775.24,1222.9 1778.49,1222.6 1781.73,1222.27 1784.97,1221.92 1788.21,1221.54 1791.45,1221.14 1794.69,1220.71 1797.93,1220.26 1801.18,1219.78 1804.42,1219.27 1807.66,1218.74 1810.9,1218.18 1814.14,1217.59 1817.38,1216.98 1820.62,1216.34 1823.87,1215.67 1827.11,1214.98 1830.35,1214.25 1833.59,1213.5 1836.83,1212.71 1840.07,1211.9 1843.31,1211.05 1846.55,1210.17 1849.8,1209.26 1853.04,1208.31 1856.28,1207.33 1859.52,1206.31 1862.76,1205.25 1866,1204.16 1869.24,1203.02 1872.49,1201.83 1875.73,1200.6 1878.97,1199.31 1882.21,1197.98 1885.45,1196.59 1888.69,1195.17 1891.93,1193.7 1895.18,1192.18 1898.42,1190.63 1901.66,1189.04 1904.9,1187.41 1908.14,1185.75 1911.38,1184.06 1914.62,1182.33 1917.87,1180.57 1921.11,1178.79 1924.35,1176.97 1927.59,1175.13 1930.83,1173.26 1934.07,1171.36 1937.31,1169.45 1940.56,1167.5 1943.8,1165.54 1947.04,1163.56 1950.28,1161.55 1953.52,1159.53 1956.76,1157.48 1960,1155.42 1963.24,1153.34 1966.49,1151.24 1969.73,1149.13 1972.97,1147 1976.21,1144.85 1979.45,1142.69 1982.69,1140.51 1985.93,1138.32 1989.18,1136.12 1992.42,1133.9 1995.66,1131.66 1998.9,1129.41 2002.14,1127.15 2005.38,1124.87 2008.62,1122.58 2011.87,1120.27 2015.11,1117.95 2018.35,1115.62 2021.59,1113.27 2024.83,1110.91 2028.07,1108.53 2031.31,1106.13 2034.56,1103.72 2037.8,1101.3 2041.04,1098.86 2044.28,1096.4 2047.52,1093.92 2050.76,1091.42 2054,1088.91 2057.24,1086.38 2060.49,1083.82 2063.73,1081.25 2066.97,1078.65 2070.21,1076.02 2073.45,1073.37 2076.69,1070.7 2079.93,1067.99 2083.18,1065.25 2086.42,1062.48 2089.66,1059.68 2092.9,1056.84 2096.14,1053.96 2099.38,1051.05 2102.62,1048.09 2105.87,1045.09 2109.11,1042.04 2112.35,1038.95 2115.59,1035.81 2118.83,1032.62 2122.07,1029.38 2125.31,1026.09 2128.56,1022.76 2131.8,1019.38 2135.04,1015.97 2138.28,1012.51 2141.52,1009.02 2144.76,1005.49 2148,1001.93 2151.25,998.339 2154.49,994.718 2157.73,991.069 2160.97,987.398 2164.21,983.706 2167.45,979.997 2170.69,976.274 2173.93,972.541 2177.18,968.799 2180.42,965.054 2183.66,961.306 2186.9,957.56 2190.14,953.818 2193.38,950.084 2196.62,946.36 2199.87,942.649 2203.11,938.954 2206.35,935.279 2209.59,931.625 2212.83,927.997 2216.07,924.396 2219.31,920.826 2222.56,917.29 2225.8,913.79 2229.04,910.331 2232.28,906.913 2235.52,903.542 2238.76,900.218 2242,896.946 2245.25,893.726 2248.49,890.557 2251.73,887.442 2254.97,884.38 2258.21,881.371 2261.45,878.417 2264.69,875.518 2267.94,872.673 2271.18,869.885 2274.42,867.153 2277.66,864.478 2280.9,861.86 2284.14,859.299 2287.38,856.793 2290.62,854.341 "/>
<polyline clip-path="url(#clip982)" style="stroke:#c271d2; stroke-linecap:round; stroke-linejoin:round; stroke-width:12; stroke-opacity:1; fill:none" points="255.035,876.484 362.225,698.351 469.416,531.617 576.607,508.492 683.797,599.587 790.988,667.889 898.179,666.816 1005.37,621.634 1112.56,666.172 1219.75,844.228 1326.94,1003.94 1434.13,1141.35 1541.32,1272.35 1648.51,1356.54 1755.7,1369.88 1862.89,1317.93 1970.09,1282.27 2077.28,1189.38 2184.47,1074.61 2291.66,1001.77 "/>
<polyline clip-path="url(#clip982)" style="stroke:#ac8d18; stroke-linecap:round; stroke-linejoin:round; stroke-width:12; stroke-opacity:1; fill:none" points="255.035,483.983 362.225,421.42 469.416,314.443 576.607,272.496 683.797,227.874 790.988,201.981 898.179,219.338 1005.37,287 1112.56,372.779 1219.75,498.981 1326.94,698.761 1434.13,880.225 1541.32,987.965 1648.51,1052.8 1755.7,1078.36 1862.89,1092.48 1970.09,1015.52 2077.28,951.04 2184.47,846.134 2291.66,705.369 "/>
<path clip-path="url(#clip980)" d="M1953.46 406.258 L2280.8 406.258 L2280.8 95.2176 L1953.46 95.2176  Z" fill="#ffffff" fill-rule="evenodd" fill-opacity="1"/>
<polyline clip-path="url(#clip980)" style="stroke:#000000; stroke-linecap:round; stroke-linejoin:round; stroke-width:4; stroke-opacity:1; fill:none" points="1953.46,406.258 2280.8,406.258 2280.8,95.2176 1953.46,95.2176 1953.46,406.258 "/>
<polyline clip-path="url(#clip980)" style="stroke:#009af9; stroke-linecap:round; stroke-linejoin:round; stroke-width:4; stroke-opacity:1; fill:none" points="1977.44,147.058 2121.36,147.058 "/>
<path clip-path="url(#clip980)" d="M2152.76 131.051 L2152.76 138.412 L2161.53 138.412 L2161.53 141.722 L2152.76 141.722 L2152.76 155.796 Q2152.76 158.967 2153.61 159.87 Q2154.49 160.773 2157.16 160.773 L2161.53 160.773 L2161.53 164.338 L2157.16 164.338 Q2152.23 164.338 2150.35 162.509 Q2148.48 160.657 2148.48 155.796 L2148.48 141.722 L2145.35 141.722 L2145.35 138.412 L2148.48 138.412 L2148.48 131.051 L2152.76 131.051 Z" fill="#000000" fill-rule="nonzero" fill-opacity="1" /><path clip-path="url(#clip980)" d="M2182.16 142.393 Q2181.44 141.977 2180.58 141.791 Q2179.75 141.583 2178.73 141.583 Q2175.12 141.583 2173.17 143.944 Q2171.25 146.282 2171.25 150.68 L2171.25 164.338 L2166.97 164.338 L2166.97 138.412 L2171.25 138.412 L2171.25 142.44 Q2172.6 140.078 2174.75 138.944 Q2176.9 137.787 2179.98 137.787 Q2180.42 137.787 2180.95 137.856 Q2181.48 137.903 2182.13 138.018 L2182.16 142.393 Z" fill="#000000" fill-rule="nonzero" fill-opacity="1" /><path clip-path="url(#clip980)" d="M2186.18 154.106 L2186.18 138.412 L2190.44 138.412 L2190.44 153.944 Q2190.44 157.625 2191.88 159.476 Q2193.31 161.305 2196.18 161.305 Q2199.63 161.305 2201.62 159.106 Q2203.64 156.907 2203.64 153.111 L2203.64 138.412 L2207.9 138.412 L2207.9 164.338 L2203.64 164.338 L2203.64 160.356 Q2202.09 162.717 2200.03 163.875 Q2197.99 165.009 2195.28 165.009 Q2190.81 165.009 2188.5 162.231 Q2186.18 159.453 2186.18 154.106 M2196.9 137.787 L2196.9 137.787 Z" fill="#000000" fill-rule="nonzero" fill-opacity="1" /><path clip-path="url(#clip980)" d="M2220.88 131.051 L2220.88 138.412 L2229.66 138.412 L2229.66 141.722 L2220.88 141.722 L2220.88 155.796 Q2220.88 158.967 2221.74 159.87 Q2222.62 160.773 2225.28 160.773 L2229.66 160.773 L2229.66 164.338 L2225.28 164.338 Q2220.35 164.338 2218.48 162.509 Q2216.6 160.657 2216.6 155.796 L2216.6 141.722 L2213.48 141.722 L2213.48 138.412 L2216.6 138.412 L2216.6 131.051 L2220.88 131.051 Z" fill="#000000" fill-rule="nonzero" fill-opacity="1" /><path clip-path="url(#clip980)" d="M2256.81 148.689 L2256.81 164.338 L2252.55 164.338 L2252.55 148.828 Q2252.55 145.148 2251.11 143.319 Q2249.68 141.49 2246.81 141.49 Q2243.36 141.49 2241.37 143.69 Q2239.38 145.889 2239.38 149.685 L2239.38 164.338 L2235.1 164.338 L2235.1 128.319 L2239.38 128.319 L2239.38 142.44 Q2240.91 140.102 2242.97 138.944 Q2245.05 137.787 2247.76 137.787 Q2252.23 137.787 2254.52 140.565 Q2256.81 143.319 2256.81 148.689 Z" fill="#000000" fill-rule="nonzero" fill-opacity="1" /><circle clip-path="url(#clip980)" cx="2049.4" cy="198.898" r="20.48" fill="#e26f46" fill-rule="evenodd" fill-opacity="1" stroke="#000000" stroke-opacity="1" stroke-width="4.55111"/>
<path clip-path="url(#clip980)" d="M2164.26 194.187 L2164.26 180.159 L2168.52 180.159 L2168.52 216.178 L2164.26 216.178 L2164.26 212.289 Q2162.92 214.603 2160.86 215.738 Q2158.82 216.849 2155.95 216.849 Q2151.25 216.849 2148.29 213.099 Q2145.35 209.349 2145.35 203.238 Q2145.35 197.127 2148.29 193.377 Q2151.25 189.627 2155.95 189.627 Q2158.82 189.627 2160.86 190.761 Q2162.92 191.872 2164.26 194.187 M2149.75 203.238 Q2149.75 207.937 2151.67 210.622 Q2153.61 213.284 2156.99 213.284 Q2160.37 213.284 2162.32 210.622 Q2164.26 207.937 2164.26 203.238 Q2164.26 198.539 2162.32 195.877 Q2160.37 193.192 2156.99 193.192 Q2153.61 193.192 2151.67 195.877 Q2149.75 198.539 2149.75 203.238 Z" fill="#000000" fill-rule="nonzero" fill-opacity="1" /><path clip-path="url(#clip980)" d="M2189.08 203.145 Q2183.92 203.145 2181.92 204.326 Q2179.93 205.506 2179.93 208.354 Q2179.93 210.622 2181.42 211.965 Q2182.92 213.284 2185.49 213.284 Q2189.03 213.284 2191.16 210.784 Q2193.31 208.261 2193.31 204.094 L2193.31 203.145 L2189.08 203.145 M2197.57 201.386 L2197.57 216.178 L2193.31 216.178 L2193.31 212.242 Q2191.85 214.603 2189.68 215.738 Q2187.5 216.849 2184.36 216.849 Q2180.37 216.849 2178.01 214.627 Q2175.67 212.381 2175.67 208.631 Q2175.67 204.256 2178.59 202.034 Q2181.53 199.812 2187.34 199.812 L2193.31 199.812 L2193.31 199.395 Q2193.31 196.455 2191.37 194.858 Q2189.45 193.238 2185.95 193.238 Q2183.73 193.238 2181.62 193.77 Q2179.52 194.303 2177.57 195.367 L2177.57 191.432 Q2179.91 190.53 2182.11 190.09 Q2184.31 189.627 2186.39 189.627 Q2192.02 189.627 2194.79 192.543 Q2197.57 195.46 2197.57 201.386 Z" fill="#000000" fill-rule="nonzero" fill-opacity="1" /><path clip-path="url(#clip980)" d="M2210.56 182.891 L2210.56 190.252 L2219.33 190.252 L2219.33 193.562 L2210.56 193.562 L2210.56 207.636 Q2210.56 210.807 2211.42 211.71 Q2212.29 212.613 2214.96 212.613 L2219.33 212.613 L2219.33 216.178 L2214.96 216.178 Q2210.03 216.178 2208.15 214.349 Q2206.28 212.497 2206.28 207.636 L2206.28 193.562 L2203.15 193.562 L2203.15 190.252 L2206.28 190.252 L2206.28 182.891 L2210.56 182.891 Z" fill="#000000" fill-rule="nonzero" fill-opacity="1" /><path clip-path="url(#clip980)" d="M2236.72 203.145 Q2231.55 203.145 2229.56 204.326 Q2227.57 205.506 2227.57 208.354 Q2227.57 210.622 2229.05 211.965 Q2230.56 213.284 2233.13 213.284 Q2236.67 213.284 2238.8 210.784 Q2240.95 208.261 2240.95 204.094 L2240.95 203.145 L2236.72 203.145 M2245.21 201.386 L2245.21 216.178 L2240.95 216.178 L2240.95 212.242 Q2239.49 214.603 2237.32 215.738 Q2235.14 216.849 2231.99 216.849 Q2228.01 216.849 2225.65 214.627 Q2223.31 212.381 2223.31 208.631 Q2223.31 204.256 2226.23 202.034 Q2229.17 199.812 2234.98 199.812 L2240.95 199.812 L2240.95 199.395 Q2240.95 196.455 2239.01 194.858 Q2237.09 193.238 2233.59 193.238 Q2231.37 193.238 2229.26 193.77 Q2227.16 194.303 2225.21 195.367 L2225.21 191.432 Q2227.55 190.53 2229.75 190.09 Q2231.95 189.627 2234.03 189.627 Q2239.66 189.627 2242.43 192.543 Q2245.21 195.46 2245.21 201.386 Z" fill="#000000" fill-rule="nonzero" fill-opacity="1" /><polyline clip-path="url(#clip980)" style="stroke:#3da44d; stroke-linecap:round; stroke-linejoin:round; stroke-width:8; stroke-opacity:1; fill:none" points="1977.44,250.738 2121.36,250.738 "/>
<path clip-path="url(#clip980)" d="M2170.91 263.087 L2170.91 253.805 L2163.27 253.805 L2163.27 249.962 L2175.54 249.962 L2175.54 264.8 Q2172.83 266.721 2169.56 267.717 Q2166.3 268.689 2162.6 268.689 Q2154.49 268.689 2149.91 263.967 Q2145.35 259.221 2145.35 250.772 Q2145.35 242.3 2149.91 237.578 Q2154.49 232.833 2162.6 232.833 Q2165.98 232.833 2169.01 233.666 Q2172.06 234.499 2174.63 236.12 L2174.63 241.096 Q2172.04 238.897 2169.12 237.786 Q2166.21 236.675 2162.99 236.675 Q2156.65 236.675 2153.45 240.217 Q2150.28 243.758 2150.28 250.772 Q2150.28 257.763 2153.45 261.305 Q2156.65 264.846 2162.99 264.846 Q2165.47 264.846 2167.41 264.43 Q2169.36 263.99 2170.91 263.087 Z" fill="#000000" fill-rule="nonzero" fill-opacity="1" /><path clip-path="url(#clip980)" d="M2188.75 237.3 L2188.75 250.286 L2194.63 250.286 Q2197.9 250.286 2199.68 248.596 Q2201.46 246.907 2201.46 243.782 Q2201.46 240.68 2199.68 238.99 Q2197.9 237.3 2194.63 237.3 L2188.75 237.3 M2184.08 233.458 L2194.63 233.458 Q2200.44 233.458 2203.41 236.096 Q2206.39 238.712 2206.39 243.782 Q2206.39 248.897 2203.41 251.513 Q2200.44 254.129 2194.63 254.129 L2188.75 254.129 L2188.75 268.018 L2184.08 268.018 L2184.08 233.458 Z" fill="#000000" fill-rule="nonzero" fill-opacity="1" /><polyline clip-path="url(#clip980)" style="stroke:#c271d2; stroke-linecap:round; stroke-linejoin:round; stroke-width:12; stroke-opacity:1; fill:none" points="1977.44,302.578 2121.36,302.578 "/>
<path clip-path="url(#clip980)" d="M2150.03 289.14 L2150.03 302.126 L2155.91 302.126 Q2159.17 302.126 2160.95 300.436 Q2162.73 298.747 2162.73 295.622 Q2162.73 292.52 2160.95 290.83 Q2159.17 289.14 2155.91 289.14 L2150.03 289.14 M2145.35 285.298 L2155.91 285.298 Q2161.72 285.298 2164.68 287.936 Q2167.67 290.552 2167.67 295.622 Q2167.67 300.737 2164.68 303.353 Q2161.72 305.969 2155.91 305.969 L2150.03 305.969 L2150.03 319.858 L2145.35 319.858 L2145.35 285.298 Z" fill="#000000" fill-rule="nonzero" fill-opacity="1" /><path clip-path="url(#clip980)" d="M2178.38 315.922 L2194.7 315.922 L2194.7 319.858 L2172.76 319.858 L2172.76 315.922 Q2175.42 313.168 2180 308.538 Q2184.61 303.885 2185.79 302.543 Q2188.04 300.02 2188.92 298.284 Q2189.82 296.524 2189.82 294.835 Q2189.82 292.08 2187.87 290.344 Q2185.95 288.608 2182.85 288.608 Q2180.65 288.608 2178.2 289.372 Q2175.77 290.135 2172.99 291.686 L2172.99 286.964 Q2175.81 285.83 2178.27 285.251 Q2180.72 284.673 2182.76 284.673 Q2188.13 284.673 2191.32 287.358 Q2194.52 290.043 2194.52 294.534 Q2194.52 296.663 2193.71 298.585 Q2192.92 300.483 2190.81 303.075 Q2190.23 303.747 2187.13 306.964 Q2184.03 310.159 2178.38 315.922 Z" fill="#000000" fill-rule="nonzero" fill-opacity="1" /><path clip-path="url(#clip980)" d="M2204.56 285.298 L2222.92 285.298 L2222.92 289.233 L2208.85 289.233 L2208.85 297.705 Q2209.86 297.358 2210.88 297.196 Q2211.9 297.01 2212.92 297.01 Q2218.71 297.01 2222.09 300.182 Q2225.47 303.353 2225.47 308.77 Q2225.47 314.348 2221.99 317.45 Q2218.52 320.529 2212.2 320.529 Q2210.03 320.529 2207.76 320.158 Q2205.51 319.788 2203.1 319.047 L2203.1 314.348 Q2205.19 315.483 2207.41 316.038 Q2209.63 316.594 2212.11 316.594 Q2216.11 316.594 2218.45 314.487 Q2220.79 312.381 2220.79 308.77 Q2220.79 305.159 2218.45 303.052 Q2216.11 300.946 2212.11 300.946 Q2210.23 300.946 2208.36 301.362 Q2206.51 301.779 2204.56 302.659 L2204.56 285.298 Z" fill="#000000" fill-rule="nonzero" fill-opacity="1" /><polyline clip-path="url(#clip980)" style="stroke:#ac8d18; stroke-linecap:round; stroke-linejoin:round; stroke-width:12; stroke-opacity:1; fill:none" points="1977.44,354.418 2121.36,354.418 "/>
<path clip-path="url(#clip980)" d="M2150.03 340.98 L2150.03 353.966 L2155.91 353.966 Q2159.17 353.966 2160.95 352.276 Q2162.73 350.587 2162.73 347.462 Q2162.73 344.36 2160.95 342.67 Q2159.17 340.98 2155.91 340.98 L2150.03 340.98 M2145.35 337.138 L2155.91 337.138 Q2161.72 337.138 2164.68 339.776 Q2167.67 342.392 2167.67 347.462 Q2167.67 352.577 2164.68 355.193 Q2161.72 357.809 2155.91 357.809 L2150.03 357.809 L2150.03 371.698 L2145.35 371.698 L2145.35 337.138 Z" fill="#000000" fill-rule="nonzero" fill-opacity="1" /><path clip-path="url(#clip980)" d="M2173.17 337.138 L2195.4 337.138 L2195.4 339.128 L2182.85 371.698 L2177.97 371.698 L2189.77 341.073 L2173.17 341.073 L2173.17 337.138 Z" fill="#000000" fill-rule="nonzero" fill-opacity="1" /><path clip-path="url(#clip980)" d="M2204.56 337.138 L2222.92 337.138 L2222.92 341.073 L2208.85 341.073 L2208.85 349.545 Q2209.86 349.198 2210.88 349.036 Q2211.9 348.85 2212.92 348.85 Q2218.71 348.85 2222.09 352.022 Q2225.47 355.193 2225.47 360.61 Q2225.47 366.188 2221.99 369.29 Q2218.52 372.369 2212.2 372.369 Q2210.03 372.369 2207.76 371.998 Q2205.51 371.628 2203.1 370.887 L2203.1 366.188 Q2205.19 367.323 2207.41 367.878 Q2209.63 368.434 2212.11 368.434 Q2216.11 368.434 2218.45 366.327 Q2220.79 364.221 2220.79 360.61 Q2220.79 356.999 2218.45 354.892 Q2216.11 352.786 2212.11 352.786 Q2210.23 352.786 2208.36 353.202 Q2206.51 353.619 2204.56 354.499 L2204.56 337.138 Z" fill="#000000" fill-rule="nonzero" fill-opacity="1" /></svg>
