<?xml version="1.0" encoding="utf-8"?>
<svg xmlns="http://www.w3.org/2000/svg" xmlns:xlink="http://www.w3.org/1999/xlink" width="600" height="400" viewBox="0 0 2400 1600">
<defs>
  <clipPath id="clip170">
    <rect x="0" y="0" width="2400" height="1600"/>
  </clipPath>
</defs>
<path clip-path="url(#clip170)" d="M0 1600 L2400 1600 L2400 0 L0 0  Z" fill="#ffffff" fill-rule="evenodd" fill-opacity="1"/>
<defs>
  <clipPath id="clip171">
    <rect x="193" y="47" width="2160" height="1440"/>
  </clipPath>
</defs>
<path clip-path="url(#clip170)" d="M193.936 1486.45 L2352.76 1486.45 L2352.76 47.2441 L193.936 47.2441  Z" fill="#ffffff" fill-rule="evenodd" fill-opacity="1"/>
<polyline clip-path="url(#clip171)" style="stroke:#000000; stroke-linecap:round; stroke-linejoin:round; stroke-width:2; stroke-opacity:0.1; fill:none" points="255.035,1486.45 255.035,47.2441 "/>
<polyline clip-path="url(#clip171)" style="stroke:#000000; stroke-linecap:round; stroke-linejoin:round; stroke-width:2; stroke-opacity:0.1; fill:none" points="579.173,1486.45 579.173,47.2441 "/>
<polyline clip-path="url(#clip171)" style="stroke:#000000; stroke-linecap:round; stroke-linejoin:round; stroke-width:2; stroke-opacity:0.1; fill:none" points="903.312,1486.45 903.312,47.2441 "/>
<polyline clip-path="url(#clip171)" style="stroke:#000000; stroke-linecap:round; stroke-linejoin:round; stroke-width:2; stroke-opacity:0.1; fill:none" points="1227.45,1486.45 1227.45,47.2441 "/>
<polyline clip-path="url(#clip171)" style="stroke:#000000; stroke-linecap:round; stroke-linejoin:round; stroke-width:2; stroke-opacity:0.1; fill:none" points="1551.59,1486.45 1551.59,47.2441 "/>
<polyline clip-path="url(#clip171)" style="stroke:#000000; stroke-linecap:round; stroke-linejoin:round; stroke-width:2; stroke-opacity:0.1; fill:none" points="1875.73,1486.45 1875.73,47.2441 "/>
<polyline clip-path="url(#clip171)" style="stroke:#000000; stroke-linecap:round; stroke-linejoin:round; stroke-width:2; stroke-opacity:0.1; fill:none" points="2199.87,1486.45 2199.87,47.2441 "/>
<polyline clip-path="url(#clip171)" style="stroke:#000000; stroke-linecap:round; stroke-linejoin:round; stroke-width:2; stroke-opacity:0.1; fill:none" points="193.936,1486.14 2352.76,1486.14 "/>
<polyline clip-path="url(#clip171)" style="stroke:#000000; stroke-linecap:round; stroke-linejoin:round; stroke-width:2; stroke-opacity:0.1; fill:none" points="193.936,1249.57 2352.76,1249.57 "/>
<polyline clip-path="url(#clip171)" style="stroke:#000000; stroke-linecap:round; stroke-linejoin:round; stroke-width:2; stroke-opacity:0.1; fill:none" points="193.936,1012.99 2352.76,1012.99 "/>
<polyline clip-path="url(#clip171)" style="stroke:#000000; stroke-linecap:round; stroke-linejoin:round; stroke-width:2; stroke-opacity:0.1; fill:none" points="193.936,776.42 2352.76,776.42 "/>
<polyline clip-path="url(#clip171)" style="stroke:#000000; stroke-linecap:round; stroke-linejoin:round; stroke-width:2; stroke-opacity:0.1; fill:none" points="193.936,539.845 2352.76,539.845 "/>
<polyline clip-path="url(#clip171)" style="stroke:#000000; stroke-linecap:round; stroke-linejoin:round; stroke-width:2; stroke-opacity:0.1; fill:none" points="193.936,303.271 2352.76,303.271 "/>
<polyline clip-path="url(#clip171)" style="stroke:#000000; stroke-linecap:round; stroke-linejoin:round; stroke-width:2; stroke-opacity:0.1; fill:none" points="193.936,66.6958 2352.76,66.6958 "/>
<polyline clip-path="url(#clip170)" style="stroke:#000000; stroke-linecap:round; stroke-linejoin:round; stroke-width:4; stroke-opacity:1; fill:none" points="193.936,1486.45 2352.76,1486.45 "/>
<polyline clip-path="url(#clip170)" style="stroke:#000000; stroke-linecap:round; stroke-linejoin:round; stroke-width:4; stroke-opacity:1; fill:none" points="255.035,1486.45 255.035,1467.55 "/>
<polyline clip-path="url(#clip170)" style="stroke:#000000; stroke-linecap:round; stroke-linejoin:round; stroke-width:4; stroke-opacity:1; fill:none" points="579.173,1486.45 579.173,1467.55 "/>
<polyline clip-path="url(#clip170)" style="stroke:#000000; stroke-linecap:round; stroke-linejoin:round; stroke-width:4; stroke-opacity:1; fill:none" points="903.312,1486.45 903.312,1467.55 "/>
<polyline clip-path="url(#clip170)" style="stroke:#000000; stroke-linecap:round; stroke-linejoin:round; stroke-width:4; stroke-opacity:1; fill:none" points="1227.45,1486.45 1227.45,1467.55 "/>
<polyline clip-path="url(#clip170)" style="stroke:#000000; stroke-linecap:round; stroke-linejoin:round; stroke-width:4; stroke-opacity:1; fill:none" points="1551.59,1486.45 1551.59,1467.55 "/>
<polyline clip-path="url(#clip170)" style="stroke:#000000; stroke-linecap:round; stroke-linejoin:round; stroke-width:4; stroke-opacity:1; fill:none" points="1875.73,1486.45 1875.73,1467.55 "/>
<polyline clip-path="url(#clip170)" style="stroke:#000000; stroke-linecap:round; stroke-linejoin:round; stroke-width:4; stroke-opacity:1; fill:none" points="2199.87,1486.45 2199.87,1467.55 "/>
<path clip-path="url(#clip170)" d="M255.035 1517.37 Q251.424 1517.37 249.595 1520.93 Q247.789 1524.47 247.789 1531.6 Q247.789 1538.71 249.595 1542.27 Q251.424 1545.82 255.035 1545.82 Q258.669 1545.82 260.474 1542.27 Q262.303 1538.71 262.303 1531.6 Q262.303 1524.47 260.474 1520.93 Q258.669 1517.37 255.035 1517.37 M255.035 1513.66 Q260.845 1513.66 263.9 1518.27 Q266.979 1522.85 266.979 1531.6 Q266.979 1540.33 263.9 1544.94 Q260.845 1549.52 255.035 1549.52 Q249.225 1549.52 246.146 1544.94 Q243.09 1540.33 243.09 1531.6 Q243.09 1522.85 246.146 1518.27 Q249.225 1513.66 255.035 1513.66 Z" fill="#000000" fill-rule="nonzero" fill-opacity="1" /><path clip-path="url(#clip170)" d="M569.555 1544.91 L577.194 1544.91 L577.194 1518.55 L568.884 1520.21 L568.884 1515.95 L577.148 1514.29 L581.824 1514.29 L581.824 1544.91 L589.463 1544.91 L589.463 1548.85 L569.555 1548.85 L569.555 1544.91 Z" fill="#000000" fill-rule="nonzero" fill-opacity="1" /><path clip-path="url(#clip170)" d="M897.965 1544.91 L914.284 1544.91 L914.284 1548.85 L892.34 1548.85 L892.34 1544.91 Q895.002 1542.16 899.585 1537.53 Q904.191 1532.88 905.372 1531.53 Q907.617 1529.01 908.497 1527.27 Q909.4 1525.51 909.4 1523.82 Q909.4 1521.07 907.455 1519.33 Q905.534 1517.6 902.432 1517.6 Q900.233 1517.6 897.779 1518.36 Q895.349 1519.13 892.571 1520.68 L892.571 1515.95 Q895.395 1514.82 897.849 1514.24 Q900.303 1513.66 902.34 1513.66 Q907.71 1513.66 910.904 1516.35 Q914.099 1519.03 914.099 1523.52 Q914.099 1525.65 913.289 1527.57 Q912.502 1529.47 910.395 1532.07 Q909.816 1532.74 906.715 1535.95 Q903.613 1539.15 897.965 1544.91 Z" fill="#000000" fill-rule="nonzero" fill-opacity="1" /><path clip-path="url(#clip170)" d="M1231.7 1530.21 Q1235.05 1530.93 1236.93 1533.2 Q1238.83 1535.47 1238.83 1538.8 Q1238.83 1543.92 1235.31 1546.72 Q1231.79 1549.52 1225.31 1549.52 Q1223.13 1549.52 1220.82 1549.08 Q1218.53 1548.66 1216.07 1547.81 L1216.07 1543.29 Q1218.02 1544.43 1220.33 1545.01 Q1222.65 1545.58 1225.17 1545.58 Q1229.57 1545.58 1231.86 1543.85 Q1234.17 1542.11 1234.17 1538.8 Q1234.17 1535.75 1232.02 1534.03 Q1229.89 1532.3 1226.07 1532.3 L1222.05 1532.3 L1222.05 1528.45 L1226.26 1528.45 Q1229.71 1528.45 1231.54 1527.09 Q1233.36 1525.7 1233.36 1523.11 Q1233.36 1520.45 1231.47 1519.03 Q1229.59 1517.6 1226.07 1517.6 Q1224.15 1517.6 1221.95 1518.01 Q1219.75 1518.43 1217.11 1519.31 L1217.11 1515.14 Q1219.78 1514.4 1222.09 1514.03 Q1224.43 1513.66 1226.49 1513.66 Q1231.81 1513.66 1234.92 1516.09 Q1238.02 1518.5 1238.02 1522.62 Q1238.02 1525.49 1236.37 1527.48 Q1234.73 1529.45 1231.7 1530.21 Z" fill="#000000" fill-rule="nonzero" fill-opacity="1" /><path clip-path="url(#clip170)" d="M1554.6 1518.36 L1542.79 1536.81 L1554.6 1536.81 L1554.6 1518.36 M1553.37 1514.29 L1559.25 1514.29 L1559.25 1536.81 L1564.18 1536.81 L1564.18 1540.7 L1559.25 1540.7 L1559.25 1548.85 L1554.6 1548.85 L1554.6 1540.7 L1539 1540.7 L1539 1536.19 L1553.37 1514.29 Z" fill="#000000" fill-rule="nonzero" fill-opacity="1" /><path clip-path="url(#clip170)" d="M1866.01 1514.29 L1884.36 1514.29 L1884.36 1518.22 L1870.29 1518.22 L1870.29 1526.7 Q1871.31 1526.35 1872.32 1526.19 Q1873.34 1526 1874.36 1526 Q1880.15 1526 1883.53 1529.17 Q1886.91 1532.34 1886.91 1537.76 Q1886.91 1543.34 1883.44 1546.44 Q1879.96 1549.52 1873.64 1549.52 Q1871.47 1549.52 1869.2 1549.15 Q1866.95 1548.78 1864.55 1548.04 L1864.55 1543.34 Q1866.63 1544.47 1868.85 1545.03 Q1871.07 1545.58 1873.55 1545.58 Q1877.56 1545.58 1879.89 1543.48 Q1882.23 1541.37 1882.23 1537.76 Q1882.23 1534.15 1879.89 1532.04 Q1877.56 1529.94 1873.55 1529.94 Q1871.68 1529.94 1869.8 1530.35 Q1867.95 1530.77 1866.01 1531.65 L1866.01 1514.29 Z" fill="#000000" fill-rule="nonzero" fill-opacity="1" /><path clip-path="url(#clip170)" d="M2200.27 1529.7 Q2197.12 1529.7 2195.27 1531.86 Q2193.44 1534.01 2193.44 1537.76 Q2193.44 1541.49 2195.27 1543.66 Q2197.12 1545.82 2200.27 1545.82 Q2203.42 1545.82 2205.25 1543.66 Q2207.1 1541.49 2207.1 1537.76 Q2207.1 1534.01 2205.25 1531.86 Q2203.42 1529.7 2200.27 1529.7 M2209.55 1515.05 L2209.55 1519.31 Q2207.79 1518.48 2205.99 1518.04 Q2204.21 1517.6 2202.45 1517.6 Q2197.82 1517.6 2195.36 1520.72 Q2192.93 1523.85 2192.59 1530.17 Q2193.95 1528.15 2196.01 1527.09 Q2198.07 1526 2200.55 1526 Q2205.76 1526 2208.77 1529.17 Q2211.8 1532.32 2211.8 1537.76 Q2211.8 1543.08 2208.65 1546.3 Q2205.5 1549.52 2200.27 1549.52 Q2194.28 1549.52 2191.1 1544.94 Q2187.93 1540.33 2187.93 1531.6 Q2187.93 1523.41 2191.82 1518.55 Q2195.71 1513.66 2202.26 1513.66 Q2204.02 1513.66 2205.8 1514.01 Q2207.61 1514.36 2209.55 1515.05 Z" fill="#000000" fill-rule="nonzero" fill-opacity="1" /><polyline clip-path="url(#clip170)" style="stroke:#000000; stroke-linecap:round; stroke-linejoin:round; stroke-width:4; stroke-opacity:1; fill:none" points="193.936,1486.45 193.936,47.2441 "/>
<polyline clip-path="url(#clip170)" style="stroke:#000000; stroke-linecap:round; stroke-linejoin:round; stroke-width:4; stroke-opacity:1; fill:none" points="193.936,1486.14 212.834,1486.14 "/>
<polyline clip-path="url(#clip170)" style="stroke:#000000; stroke-linecap:round; stroke-linejoin:round; stroke-width:4; stroke-opacity:1; fill:none" points="193.936,1249.57 212.834,1249.57 "/>
<polyline clip-path="url(#clip170)" style="stroke:#000000; stroke-linecap:round; stroke-linejoin:round; stroke-width:4; stroke-opacity:1; fill:none" points="193.936,1012.99 212.834,1012.99 "/>
<polyline clip-path="url(#clip170)" style="stroke:#000000; stroke-linecap:round; stroke-linejoin:round; stroke-width:4; stroke-opacity:1; fill:none" points="193.936,776.42 212.834,776.42 "/>
<polyline clip-path="url(#clip170)" style="stroke:#000000; stroke-linecap:round; stroke-linejoin:round; stroke-width:4; stroke-opacity:1; fill:none" points="193.936,539.845 212.834,539.845 "/>
<polyline clip-path="url(#clip170)" style="stroke:#000000; stroke-linecap:round; stroke-linejoin:round; stroke-width:4; stroke-opacity:1; fill:none" points="193.936,303.271 212.834,303.271 "/>
<polyline clip-path="url(#clip170)" style="stroke:#000000; stroke-linecap:round; stroke-linejoin:round; stroke-width:4; stroke-opacity:1; fill:none" points="193.936,66.6958 212.834,66.6958 "/>
<path clip-path="url(#clip170)" d="M51.9875 1486.6 L81.6633 1486.6 L81.6633 1490.53 L51.9875 1490.53 L51.9875 1486.6 Z" fill="#000000" fill-rule="nonzero" fill-opacity="1" /><path clip-path="url(#clip170)" d="M92.566 1499.49 L100.205 1499.49 L100.205 1473.12 L91.8947 1474.79 L91.8947 1470.53 L100.159 1468.86 L104.834 1468.86 L104.834 1499.49 L112.473 1499.49 L112.473 1503.42 L92.566 1503.42 L92.566 1499.49 Z" fill="#000000" fill-rule="nonzero" fill-opacity="1" /><path clip-path="url(#clip170)" d="M121.918 1497.54 L126.802 1497.54 L126.802 1503.42 L121.918 1503.42 L121.918 1497.54 Z" fill="#000000" fill-rule="nonzero" fill-opacity="1" /><path clip-path="url(#clip170)" d="M137.033 1468.86 L155.39 1468.86 L155.39 1472.8 L141.316 1472.8 L141.316 1481.27 Q142.334 1480.92 143.353 1480.76 Q144.371 1480.58 145.39 1480.58 Q151.177 1480.58 154.556 1483.75 Q157.936 1486.92 157.936 1492.34 Q157.936 1497.92 154.464 1501.02 Q150.992 1504.1 144.672 1504.1 Q142.496 1504.1 140.228 1503.73 Q137.982 1503.36 135.575 1502.61 L135.575 1497.92 Q137.658 1499.05 139.881 1499.61 Q142.103 1500.16 144.58 1500.16 Q148.584 1500.16 150.922 1498.05 Q153.26 1495.95 153.26 1492.34 Q153.26 1488.73 150.922 1486.62 Q148.584 1484.51 144.58 1484.51 Q142.705 1484.51 140.83 1484.93 Q138.978 1485.35 137.033 1486.23 L137.033 1468.86 Z" fill="#000000" fill-rule="nonzero" fill-opacity="1" /><path clip-path="url(#clip170)" d="M50.9921 1250.02 L80.6679 1250.02 L80.6679 1253.96 L50.9921 1253.96 L50.9921 1250.02 Z" fill="#000000" fill-rule="nonzero" fill-opacity="1" /><path clip-path="url(#clip170)" d="M91.5706 1262.91 L99.2095 1262.91 L99.2095 1236.55 L90.8993 1238.22 L90.8993 1233.96 L99.1632 1232.29 L103.839 1232.29 L103.839 1262.91 L111.478 1262.91 L111.478 1266.85 L91.5706 1266.85 L91.5706 1262.91 Z" fill="#000000" fill-rule="nonzero" fill-opacity="1" /><path clip-path="url(#clip170)" d="M120.922 1260.97 L125.807 1260.97 L125.807 1266.85 L120.922 1266.85 L120.922 1260.97 Z" fill="#000000" fill-rule="nonzero" fill-opacity="1" /><path clip-path="url(#clip170)" d="M145.992 1235.37 Q142.381 1235.37 140.552 1238.93 Q138.746 1242.47 138.746 1249.6 Q138.746 1256.71 140.552 1260.28 Q142.381 1263.82 145.992 1263.82 Q149.626 1263.82 151.431 1260.28 Q153.26 1256.71 153.26 1249.6 Q153.26 1242.47 151.431 1238.93 Q149.626 1235.37 145.992 1235.37 M145.992 1231.66 Q151.802 1231.66 154.857 1236.27 Q157.936 1240.85 157.936 1249.6 Q157.936 1258.33 154.857 1262.94 Q151.802 1267.52 145.992 1267.52 Q140.181 1267.52 137.103 1262.94 Q134.047 1258.33 134.047 1249.6 Q134.047 1240.85 137.103 1236.27 Q140.181 1231.66 145.992 1231.66 Z" fill="#000000" fill-rule="nonzero" fill-opacity="1" /><path clip-path="url(#clip170)" d="M51.9875 1013.45 L81.6633 1013.45 L81.6633 1017.38 L51.9875 1017.38 L51.9875 1013.45 Z" fill="#000000" fill-rule="nonzero" fill-opacity="1" /><path clip-path="url(#clip170)" d="M101.756 998.794 Q98.1447 998.794 96.316 1002.36 Q94.5104 1005.9 94.5104 1013.03 Q94.5104 1020.14 96.316 1023.7 Q98.1447 1027.24 101.756 1027.24 Q105.39 1027.24 107.196 1023.7 Q109.024 1020.14 109.024 1013.03 Q109.024 1005.9 107.196 1002.36 Q105.39 998.794 101.756 998.794 M101.756 995.09 Q107.566 995.09 110.621 999.696 Q113.7 1004.28 113.7 1013.03 Q113.7 1021.76 110.621 1026.36 Q107.566 1030.95 101.756 1030.95 Q95.9456 1030.95 92.8669 1026.36 Q89.8114 1021.76 89.8114 1013.03 Q89.8114 1004.28 92.8669 999.696 Q95.9456 995.09 101.756 995.09 Z" fill="#000000" fill-rule="nonzero" fill-opacity="1" /><path clip-path="url(#clip170)" d="M121.918 1024.4 L126.802 1024.4 L126.802 1030.27 L121.918 1030.27 L121.918 1024.4 Z" fill="#000000" fill-rule="nonzero" fill-opacity="1" /><path clip-path="url(#clip170)" d="M137.033 995.715 L155.39 995.715 L155.39 999.65 L141.316 999.65 L141.316 1008.12 Q142.334 1007.78 143.353 1007.61 Q144.371 1007.43 145.39 1007.43 Q151.177 1007.43 154.556 1010.6 Q157.936 1013.77 157.936 1019.19 Q157.936 1024.77 154.464 1027.87 Q150.992 1030.95 144.672 1030.95 Q142.496 1030.95 140.228 1030.58 Q137.982 1030.21 135.575 1029.46 L135.575 1024.77 Q137.658 1025.9 139.881 1026.46 Q142.103 1027.01 144.58 1027.01 Q148.584 1027.01 150.922 1024.9 Q153.26 1022.8 153.26 1019.19 Q153.26 1015.58 150.922 1013.47 Q148.584 1011.36 144.58 1011.36 Q142.705 1011.36 140.83 1011.78 Q138.978 1012.2 137.033 1013.08 L137.033 995.715 Z" fill="#000000" fill-rule="nonzero" fill-opacity="1" /><path clip-path="url(#clip170)" d="M100.76 762.219 Q97.1493 762.219 95.3206 765.784 Q93.515 769.325 93.515 776.455 Q93.515 783.561 95.3206 787.126 Q97.1493 790.668 100.76 790.668 Q104.395 790.668 106.2 787.126 Q108.029 783.561 108.029 776.455 Q108.029 769.325 106.2 765.784 Q104.395 762.219 100.76 762.219 M100.76 758.515 Q106.571 758.515 109.626 763.122 Q112.705 767.705 112.705 776.455 Q112.705 785.182 109.626 789.788 Q106.571 794.371 100.76 794.371 Q94.9502 794.371 91.8715 789.788 Q88.816 785.182 88.816 776.455 Q88.816 767.705 91.8715 763.122 Q94.9502 758.515 100.76 758.515 Z" fill="#000000" fill-rule="nonzero" fill-opacity="1" /><path clip-path="url(#clip170)" d="M120.922 787.821 L125.807 787.821 L125.807 793.7 L120.922 793.7 L120.922 787.821 Z" fill="#000000" fill-rule="nonzero" fill-opacity="1" /><path clip-path="url(#clip170)" d="M145.992 762.219 Q142.381 762.219 140.552 765.784 Q138.746 769.325 138.746 776.455 Q138.746 783.561 140.552 787.126 Q142.381 790.668 145.992 790.668 Q149.626 790.668 151.431 787.126 Q153.26 783.561 153.26 776.455 Q153.26 769.325 151.431 765.784 Q149.626 762.219 145.992 762.219 M145.992 758.515 Q151.802 758.515 154.857 763.122 Q157.936 767.705 157.936 776.455 Q157.936 785.182 154.857 789.788 Q151.802 794.371 145.992 794.371 Q140.181 794.371 137.103 789.788 Q134.047 785.182 134.047 776.455 Q134.047 767.705 137.103 763.122 Q140.181 758.515 145.992 758.515 Z" fill="#000000" fill-rule="nonzero" fill-opacity="1" /><path clip-path="url(#clip170)" d="M101.756 525.644 Q98.1447 525.644 96.316 529.209 Q94.5104 532.751 94.5104 539.88 Q94.5104 546.987 96.316 550.551 Q98.1447 554.093 101.756 554.093 Q105.39 554.093 107.196 550.551 Q109.024 546.987 109.024 539.88 Q109.024 532.751 107.196 529.209 Q105.39 525.644 101.756 525.644 M101.756 521.94 Q107.566 521.94 110.621 526.547 Q113.7 531.13 113.7 539.88 Q113.7 548.607 110.621 553.213 Q107.566 557.797 101.756 557.797 Q95.9456 557.797 92.8669 553.213 Q89.8114 548.607 89.8114 539.88 Q89.8114 531.13 92.8669 526.547 Q95.9456 521.94 101.756 521.94 Z" fill="#000000" fill-rule="nonzero" fill-opacity="1" /><path clip-path="url(#clip170)" d="M121.918 551.246 L126.802 551.246 L126.802 557.125 L121.918 557.125 L121.918 551.246 Z" fill="#000000" fill-rule="nonzero" fill-opacity="1" /><path clip-path="url(#clip170)" d="M137.033 522.565 L155.39 522.565 L155.39 526.501 L141.316 526.501 L141.316 534.973 Q142.334 534.626 143.353 534.463 Q144.371 534.278 145.39 534.278 Q151.177 534.278 154.556 537.45 Q157.936 540.621 157.936 546.037 Q157.936 551.616 154.464 554.718 Q150.992 557.797 144.672 557.797 Q142.496 557.797 140.228 557.426 Q137.982 557.056 135.575 556.315 L135.575 551.616 Q137.658 552.75 139.881 553.306 Q142.103 553.862 144.58 553.862 Q148.584 553.862 150.922 551.755 Q153.26 549.649 153.26 546.037 Q153.26 542.426 150.922 540.32 Q148.584 538.213 144.58 538.213 Q142.705 538.213 140.83 538.63 Q138.978 539.047 137.033 539.926 L137.033 522.565 Z" fill="#000000" fill-rule="nonzero" fill-opacity="1" /><path clip-path="url(#clip170)" d="M91.5706 316.615 L99.2095 316.615 L99.2095 290.25 L90.8993 291.917 L90.8993 287.657 L99.1632 285.991 L103.839 285.991 L103.839 316.615 L111.478 316.615 L111.478 320.551 L91.5706 320.551 L91.5706 316.615 Z" fill="#000000" fill-rule="nonzero" fill-opacity="1" /><path clip-path="url(#clip170)" d="M120.922 314.671 L125.807 314.671 L125.807 320.551 L120.922 320.551 L120.922 314.671 Z" fill="#000000" fill-rule="nonzero" fill-opacity="1" /><path clip-path="url(#clip170)" d="M145.992 289.069 Q142.381 289.069 140.552 292.634 Q138.746 296.176 138.746 303.305 Q138.746 310.412 140.552 313.977 Q142.381 317.518 145.992 317.518 Q149.626 317.518 151.431 313.977 Q153.26 310.412 153.26 303.305 Q153.26 296.176 151.431 292.634 Q149.626 289.069 145.992 289.069 M145.992 285.366 Q151.802 285.366 154.857 289.972 Q157.936 294.555 157.936 303.305 Q157.936 312.032 154.857 316.639 Q151.802 321.222 145.992 321.222 Q140.181 321.222 137.103 316.639 Q134.047 312.032 134.047 303.305 Q134.047 294.555 137.103 289.972 Q140.181 285.366 145.992 285.366 Z" fill="#000000" fill-rule="nonzero" fill-opacity="1" /><path clip-path="url(#clip170)" d="M92.566 80.0407 L100.205 80.0407 L100.205 53.6751 L91.8947 55.3417 L91.8947 51.0825 L100.159 49.4158 L104.834 49.4158 L104.834 80.0407 L112.473 80.0407 L112.473 83.9758 L92.566 83.9758 L92.566 80.0407 Z" fill="#000000" fill-rule="nonzero" fill-opacity="1" /><path clip-path="url(#clip170)" d="M121.918 78.0962 L126.802 78.0962 L126.802 83.9758 L121.918 83.9758 L121.918 78.0962 Z" fill="#000000" fill-rule="nonzero" fill-opacity="1" /><path clip-path="url(#clip170)" d="M137.033 49.4158 L155.39 49.4158 L155.39 53.351 L141.316 53.351 L141.316 61.8232 Q142.334 61.476 143.353 61.3139 Q144.371 61.1287 145.39 61.1287 Q151.177 61.1287 154.556 64.3 Q157.936 67.4713 157.936 72.8879 Q157.936 78.4666 154.464 81.5684 Q150.992 84.6471 144.672 84.6471 Q142.496 84.6471 140.228 84.2768 Q137.982 83.9064 135.575 83.1656 L135.575 78.4666 Q137.658 79.6009 139.881 80.1564 Q142.103 80.712 144.58 80.712 Q148.584 80.712 150.922 78.6055 Q153.26 76.499 153.26 72.8879 Q153.26 69.2768 150.922 67.1704 Q148.584 65.0639 144.58 65.0639 Q142.705 65.0639 140.83 65.4806 Q138.978 65.8972 137.033 66.7768 L137.033 49.4158 Z" fill="#000000" fill-rule="nonzero" fill-opacity="1" /><polyline clip-path="url(#clip171)" style="stroke:#009af9; stroke-linecap:round; stroke-linejoin:round; stroke-width:4; stroke-opacity:1; fill:none" points="255.035,776.42 258.276,771.689 261.517,766.958 264.759,762.228 268,757.499 271.242,752.773 274.483,748.048 277.724,743.327 280.966,738.609 284.207,733.894 287.449,729.184 290.69,724.479 293.931,719.778 297.173,715.084 300.414,710.395 303.655,705.714 306.897,701.039 310.138,696.372 313.38,691.712 316.621,687.062 319.862,682.42 323.104,677.787 326.345,673.165 329.587,668.553 332.828,663.951 336.069,659.361 339.311,654.783 342.552,650.216 345.793,645.663 349.035,641.122 352.276,636.595 355.518,632.082 358.759,627.583 362,623.099 365.242,618.631 368.483,614.178 371.725,609.742 374.966,605.322 378.207,600.919 381.449,596.534 384.69,592.167 387.931,587.818 391.173,583.488 394.414,579.178 397.656,574.887 400.897,570.616 404.138,566.366 407.38,562.137 410.621,557.93 413.863,553.744 417.104,549.58 420.345,545.439 423.587,541.322 426.828,537.227 430.069,533.157 433.311,529.111 436.552,525.09 439.794,521.094 443.035,517.123 446.276,513.178 449.518,509.26 452.759,505.368 456.001,501.504 459.242,497.667 462.483,493.857 465.725,490.076 468.966,486.324 472.208,482.601 475.449,478.907 478.69,475.243 481.932,471.609 485.173,468.005 488.414,464.433 491.656,460.891 494.897,457.381 498.139,453.903 501.38,450.457 504.621,447.044 507.863,443.664 511.104,440.317 514.346,437.003 517.587,433.724 520.828,430.479 524.07,427.268 527.311,424.093 530.552,420.952 533.794,417.847 537.035,414.778 540.277,411.745 543.518,408.749 546.759,405.789 550.001,402.867 553.242,399.982 556.484,397.134 559.725,394.324 562.966,391.553 566.208,388.82 569.449,386.126 572.69,383.471 575.932,380.855 579.173,378.279 582.415,375.742 585.656,373.246 588.897,370.79 592.139,368.374 595.38,365.999 598.622,363.666 601.863,361.373 605.104,359.122 608.346,356.913 611.587,354.746 614.828,352.621 618.07,350.538 621.311,348.498 624.553,346.501 627.794,344.546 631.035,342.635 634.277,340.767 637.518,338.943 640.76,337.163 644.001,335.426 647.242,333.734 650.484,332.086 653.725,330.482 656.966,328.923 660.208,327.409 663.449,325.939 666.691,324.515 669.932,323.135 673.173,321.801 676.415,320.513 679.656,319.27 682.898,318.073 686.139,316.922 689.38,315.816 692.622,314.757 695.863,313.744 699.104,312.777 702.346,311.857 705.587,310.983 708.829,310.155 712.07,309.374 715.311,308.64 718.553,307.953 721.794,307.312 725.036,306.718 728.277,306.172 731.518,305.672 734.76,305.22 738.001,304.814 741.242,304.456 744.484,304.145 747.725,303.881 750.967,303.664 754.208,303.495 757.449,303.373 760.691,303.298 763.932,303.271 767.174,303.291 770.415,303.358 773.656,303.472 776.898,303.634 780.139,303.843 783.381,304.1 786.622,304.403 789.863,304.754 793.105,305.152 796.346,305.597 799.587,306.089 802.829,306.628 806.07,307.214 809.312,307.847 812.553,308.527 815.794,309.254 819.036,310.028 822.277,310.848 825.519,311.714 828.76,312.627 832.001,313.587 835.243,314.593 838.484,315.645 841.725,316.743 844.967,317.887 848.208,319.076 851.45,320.312 854.691,321.593 857.932,322.92 861.174,324.292 864.415,325.709 867.657,327.171 870.898,328.679 874.139,330.231 877.381,331.827 880.622,333.468 883.863,335.154 887.105,336.883 890.346,338.657 893.588,340.474 896.829,342.335 900.07,344.239 903.312,346.186 906.553,348.177 909.795,350.21 913.036,352.286 916.277,354.405 919.519,356.565 922.76,358.768 926.001,361.012 929.243,363.298 932.484,365.625 935.726,367.993 938.967,370.402 942.208,372.852 945.45,375.342 948.691,377.872 951.933,380.442 955.174,383.051 958.415,385.7 961.657,388.388 964.898,391.115 968.139,393.88 971.381,396.684 974.622,399.526 977.864,402.405 981.105,405.321 984.346,408.275 987.588,411.266 990.829,414.293 994.071,417.356 997.312,420.455 1000.55,423.59 1003.79,426.76 1007.04,429.965 1010.28,433.205 1013.52,436.479 1016.76,439.787 1020,443.129 1023.24,446.504 1026.48,449.911 1029.73,453.352 1032.97,456.825 1036.21,460.33 1039.45,463.866 1042.69,467.434 1045.93,471.033 1049.17,474.662 1052.42,478.321 1055.66,482.011 1058.9,485.729 1062.14,489.477 1065.38,493.253 1068.62,497.058 1071.86,500.891 1075.11,504.751 1078.35,508.638 1081.59,512.552 1084.83,516.493 1088.07,520.459 1091.31,524.452 1094.55,528.469 1097.79,532.511 1101.04,536.577 1104.28,540.668 1107.52,544.782 1110.76,548.919 1114,553.079 1117.24,557.261 1120.48,561.466 1123.73,565.691 1126.97,569.938 1130.21,574.206 1133.45,578.493 1136.69,582.801 1139.93,587.127 1143.17,591.473 1146.42,595.837 1149.66,600.22 1152.9,604.62 1156.14,609.037 1159.38,613.471 1162.62,617.921 1165.86,622.387 1169.11,626.868 1172.35,631.364 1175.59,635.875 1178.83,640.4 1182.07,644.939 1185.31,649.49 1188.55,654.055 1191.8,658.631 1195.04,663.219 1198.28,667.819 1201.52,672.43 1204.76,677.051 1208,681.681 1211.24,686.322 1214.48,690.971 1217.73,695.629 1220.97,700.295 1224.21,704.969 1227.45,709.649 1230.69,714.337 1233.93,719.03 1237.17,723.73 1240.42,728.434 1243.66,733.144 1246.9,737.857 1250.14,742.575 1253.38,747.296 1256.62,752.02 1259.86,756.746 1263.11,761.475 1266.35,766.204 1269.59,770.935 1272.83,775.667 1276.07,780.398 1279.31,785.129 1282.55,789.859 1285.8,794.588 1289.04,799.315 1292.28,804.04 1295.52,808.762 1298.76,813.481 1302,818.196 1305.24,822.906 1308.48,827.613 1311.73,832.314 1314.97,837.009 1318.21,841.699 1321.45,846.382 1324.69,851.057 1327.93,855.726 1331.17,860.386 1334.42,865.039 1337.66,869.682 1340.9,874.316 1344.14,878.94 1347.38,883.554 1350.62,888.157 1353.86,892.749 1357.11,897.329 1360.35,901.898 1363.59,906.453 1366.83,910.996 1370.07,915.525 1373.31,920.041 1376.55,924.542 1379.8,929.028 1383.04,933.499 1386.28,937.954 1389.52,942.393 1392.76,946.816 1396,951.221 1399.24,955.609 1402.49,959.979 1405.73,964.331 1408.97,968.664 1412.21,972.977 1415.45,977.271 1418.69,981.545 1421.93,985.799 1425.17,990.031 1428.42,994.242 1431.66,998.431 1434.9,1002.6 1438.14,1006.74 1441.38,1010.86 1444.62,1014.96 1447.86,1019.04 1451.11,1023.09 1454.35,1027.11 1457.59,1031.11 1460.83,1035.09 1464.07,1039.04 1467.31,1042.96 1470.55,1046.85 1473.8,1050.72 1477.04,1054.56 1480.28,1058.38 1483.52,1062.16 1486.76,1065.92 1490,1069.65 1493.24,1073.35 1496.49,1077.02 1499.73,1080.65 1502.97,1084.26 1506.21,1087.84 1509.45,1091.39 1512.69,1094.9 1515.93,1098.39 1519.18,1101.84 1522.42,1105.25 1525.66,1108.64 1528.9,1111.99 1532.14,1115.31 1535.38,1118.6 1538.62,1121.85 1541.86,1125.06 1545.11,1128.24 1548.35,1131.39 1551.59,1134.5 1554.83,1137.58 1558.07,1140.61 1561.31,1143.62 1564.55,1146.58 1567.8,1149.51 1571.04,1152.4 1574.28,1155.26 1577.52,1158.07 1580.76,1160.85 1584,1163.59 1587.24,1166.29 1590.49,1168.95 1593.73,1171.57 1596.97,1174.15 1600.21,1176.7 1603.45,1179.2 1606.69,1181.66 1609.93,1184.08 1613.18,1186.47 1616.42,1188.81 1619.66,1191.1 1622.9,1193.36 1626.14,1195.58 1629.38,1197.75 1632.62,1199.88 1635.86,1201.97 1639.11,1204.02 1642.35,1206.02 1645.59,1207.99 1648.83,1209.9 1652.07,1211.78 1655.31,1213.61 1658.55,1215.4 1661.8,1217.14 1665.04,1218.84 1668.28,1220.5 1671.52,1222.11 1674.76,1223.67 1678,1225.19 1681.24,1226.67 1684.49,1228.1 1687.73,1229.49 1690.97,1230.83 1694.21,1232.13 1697.45,1233.38 1700.69,1234.58 1703.93,1235.74 1707.18,1236.85 1710.42,1237.92 1713.66,1238.94 1716.9,1239.91 1720.14,1240.84 1723.38,1241.72 1726.62,1242.56 1729.87,1243.34 1733.11,1244.09 1736.35,1244.78 1739.59,1245.43 1742.83,1246.03 1746.07,1246.58 1749.31,1247.09 1752.55,1247.55 1755.8,1247.96 1759.04,1248.33 1762.28,1248.65 1765.52,1248.92 1768.76,1249.14 1772,1249.32 1775.24,1249.45 1778.49,1249.53 1781.73,1249.57 1784.97,1249.56 1788.21,1249.5 1791.45,1249.39 1794.69,1249.24 1797.93,1249.03 1801.18,1248.78 1804.42,1248.49 1807.66,1248.15 1810.9,1247.76 1814.14,1247.32 1817.38,1246.83 1820.62,1246.3 1823.87,1245.72 1827.11,1245.1 1830.35,1244.42 1833.59,1243.71 1836.83,1242.94 1840.07,1242.13 1843.31,1241.27 1846.55,1240.36 1849.8,1239.41 1853.04,1238.41 1856.28,1237.37 1859.52,1236.28 1862.76,1235.14 1866,1233.96 1869.24,1232.73 1872.49,1231.45 1875.73,1230.13 1878.97,1228.77 1882.21,1227.36 1885.45,1225.9 1888.69,1224.4 1891.93,1222.86 1895.18,1221.27 1898.42,1219.64 1901.66,1217.96 1904.9,1216.24 1908.14,1214.47 1911.38,1212.66 1914.62,1210.8 1917.87,1208.91 1921.11,1206.97 1924.35,1204.98 1927.59,1202.96 1930.83,1200.89 1934.07,1198.78 1937.31,1196.62 1940.56,1194.43 1943.8,1192.19 1947.04,1189.91 1950.28,1187.59 1953.52,1185.23 1956.76,1182.82 1960,1180.38 1963.24,1177.9 1966.49,1175.37 1969.73,1172.81 1972.97,1170.21 1976.21,1167.56 1979.45,1164.88 1982.69,1162.16 1985.93,1159.4 1989.18,1156.61 1992.42,1153.77 1995.66,1150.9 1998.9,1147.99 2002.14,1145.04 2005.38,1142.05 2008.62,1139.03 2011.87,1135.97 2015.11,1132.88 2018.35,1129.75 2021.59,1126.59 2024.83,1123.39 2028.07,1120.15 2031.31,1116.89 2034.56,1113.58 2037.8,1110.25 2041.04,1106.88 2044.28,1103.47 2047.52,1100.04 2050.76,1096.57 2054,1093.07 2057.24,1089.54 2060.49,1085.98 2063.73,1082.38 2066.97,1078.76 2070.21,1075.1 2073.45,1071.42 2076.69,1067.71 2079.93,1063.96 2083.18,1060.19 2086.42,1056.39 2089.66,1052.56 2092.9,1048.71 2096.14,1044.82 2099.38,1040.91 2102.62,1036.98 2105.87,1033.01 2109.11,1029.03 2112.35,1025.01 2115.59,1020.97 2118.83,1016.91 2122.07,1012.83 2125.31,1008.72 2128.56,1004.58 2131.8,1000.43 2135.04,996.246 2138.28,992.046 2141.52,987.823 2144.76,983.58 2148,979.316 2151.25,975.031 2154.49,970.727 2157.73,966.403 2160.97,962.061 2164.21,957.699 2167.45,953.32 2170.69,948.923 2173.93,944.508 2177.18,940.077 2180.42,935.629 2183.66,931.166 2186.9,926.687 2190.14,922.193 2193.38,917.685 2196.62,913.162 2199.87,908.625 2203.11,904.076 2206.35,899.514 2209.59,894.939 2212.83,890.352 2216.07,885.755 2219.31,881.146 2222.56,876.526 2225.8,871.897 2229.04,867.258 2232.28,862.61 2235.52,857.954 2238.76,853.289 2242,848.617 2245.25,843.937 2248.49,839.251 2251.73,834.558 2254.97,829.859 2258.21,825.156 2261.45,820.447 2264.69,815.734 2267.94,811.017 2271.18,806.296 2274.42,801.573 2277.66,796.847 2280.9,792.119 2284.14,787.389 2287.38,782.659 2290.62,777.927 "/>
<circle clip-path="url(#clip171)" cx="1869.24" cy="1321.22" r="14.4" fill="#e26f46" fill-rule="evenodd" fill-opacity="1" stroke="#000000" stroke-opacity="1" stroke-width="3.2"/>
<circle clip-path="url(#clip171)" cx="1340.9" cy="818.745" r="14.4" fill="#e26f46" fill-rule="evenodd" fill-opacity="1" stroke="#000000" stroke-opacity="1" stroke-width="3.2"/>
<circle clip-path="url(#clip171)" cx="410.621" cy="655.017" r="14.4" fill="#e26f46" fill-rule="evenodd" fill-opacity="1" stroke="#000000" stroke-opacity="1" stroke-width="3.2"/>
<circle clip-path="url(#clip171)" cx="1292.28" cy="789.313" r="14.4" fill="#e26f46" fill-rule="evenodd" fill-opacity="1" stroke="#000000" stroke-opacity="1" stroke-width="3.2"/>
<circle clip-path="url(#clip171)" cx="566.208" cy="319.68" r="14.4" fill="#e26f46" fill-rule="evenodd" fill-opacity="1" stroke="#000000" stroke-opacity="1" stroke-width="3.2"/>
<circle clip-path="url(#clip171)" cx="362" cy="548.244" r="14.4" fill="#e26f46" fill-rule="evenodd" fill-opacity="1" stroke="#000000" stroke-opacity="1" stroke-width="3.2"/>
<circle clip-path="url(#clip171)" cx="1950.28" cy="1231.15" r="14.4" fill="#e26f46" fill-rule="evenodd" fill-opacity="1" stroke="#000000" stroke-opacity="1" stroke-width="3.2"/>
<circle clip-path="url(#clip171)" cx="1256.62" cy="702.461" r="14.4" fill="#e26f46" fill-rule="evenodd" fill-opacity="1" stroke="#000000" stroke-opacity="1" stroke-width="3.2"/>
<circle clip-path="url(#clip171)" cx="896.829" cy="322.437" r="14.4" fill="#e26f46" fill-rule="evenodd" fill-opacity="1" stroke="#000000" stroke-opacity="1" stroke-width="3.2"/>
<circle clip-path="url(#clip171)" cx="1107.52" cy="550.383" r="14.4" fill="#e26f46" fill-rule="evenodd" fill-opacity="1" stroke="#000000" stroke-opacity="1" stroke-width="3.2"/>
<circle clip-path="url(#clip171)" cx="1746.07" cy="1348.93" r="14.4" fill="#e26f46" fill-rule="evenodd" fill-opacity="1" stroke="#000000" stroke-opacity="1" stroke-width="3.2"/>
<circle clip-path="url(#clip171)" cx="2280.9" cy="712.298" r="14.4" fill="#e26f46" fill-rule="evenodd" fill-opacity="1" stroke="#000000" stroke-opacity="1" stroke-width="3.2"/>
<circle clip-path="url(#clip171)" cx="1441.38" cy="910.364" r="14.4" fill="#e26f46" fill-rule="evenodd" fill-opacity="1" stroke="#000000" stroke-opacity="1" stroke-width="3.2"/>
<circle clip-path="url(#clip171)" cx="2034.56" cy="1064.38" r="14.4" fill="#e26f46" fill-rule="evenodd" fill-opacity="1" stroke="#000000" stroke-opacity="1" stroke-width="3.2"/>
<circle clip-path="url(#clip171)" cx="1169.11" cy="693.338" r="14.4" fill="#e26f46" fill-rule="evenodd" fill-opacity="1" stroke="#000000" stroke-opacity="1" stroke-width="3.2"/>
<circle clip-path="url(#clip171)" cx="1204.76" cy="611.304" r="14.4" fill="#e26f46" fill-rule="evenodd" fill-opacity="1" stroke="#000000" stroke-opacity="1" stroke-width="3.2"/>
<circle clip-path="url(#clip171)" cx="1515.93" cy="991.661" r="14.4" fill="#e26f46" fill-rule="evenodd" fill-opacity="1" stroke="#000000" stroke-opacity="1" stroke-width="3.2"/>
<circle clip-path="url(#clip171)" cx="2148" cy="1042.18" r="14.4" fill="#e26f46" fill-rule="evenodd" fill-opacity="1" stroke="#000000" stroke-opacity="1" stroke-width="3.2"/>
<circle clip-path="url(#clip171)" cx="264.759" cy="812.832" r="14.4" fill="#e26f46" fill-rule="evenodd" fill-opacity="1" stroke="#000000" stroke-opacity="1" stroke-width="3.2"/>
<circle clip-path="url(#clip171)" cx="906.553" cy="232.496" r="14.4" fill="#e26f46" fill-rule="evenodd" fill-opacity="1" stroke="#000000" stroke-opacity="1" stroke-width="3.2"/>
<path clip-path="url(#clip171)" d="M255.035 949.011 L258.276 944.277 L261.517 939.565 L264.759 934.88 L268 930.224 L271.242 925.597 L274.483 920.998 L277.724 916.425 L280.966 911.875 L284.207 907.347 L287.449 902.84 L290.69 898.352 L293.931 893.881 L297.173 889.428 L300.414 884.991 L303.655 880.571 L306.897 876.166 L310.138 871.779 L313.38 867.41 L316.621 863.06 L319.862 858.732 L323.104 854.427 L326.345 850.15 L329.587 845.903 L332.828 841.691 L336.069 837.518 L339.311 833.389 L342.552 829.311 L345.793 825.288 L349.035 821.327 L352.276 817.437 L355.518 813.623 L358.759 809.893 L362 806.256 L365.242 802.717 L368.483 799.273 L371.725 795.92 L374.966 792.652 L378.207 789.464 L381.449 786.354 L384.69 783.315 L387.931 780.346 L391.173 777.441 L394.414 774.599 L397.656 771.816 L400.897 769.09 L404.138 766.418 L407.38 763.798 L410.621 761.228 L413.863 758.706 L417.104 756.226 L420.345 753.779 L423.587 751.361 L426.828 748.963 L430.069 746.58 L433.311 744.206 L436.552 741.837 L439.794 739.466 L443.035 737.089 L446.276 734.703 L449.518 732.304 L452.759 729.889 L456.001 727.456 L459.242 725.001 L462.483 722.525 L465.725 720.025 L468.966 717.5 L472.208 714.952 L475.449 712.38 L478.69 709.784 L481.932 707.166 L485.173 704.528 L488.414 701.871 L491.656 699.199 L494.897 696.513 L498.139 693.818 L501.38 691.117 L504.621 688.414 L507.863 685.713 L511.104 683.021 L514.346 680.341 L517.587 677.68 L520.828 675.044 L524.07 672.439 L527.311 669.872 L530.552 667.35 L533.794 664.88 L537.035 662.471 L540.277 660.129 L543.518 657.864 L546.759 655.683 L550.001 653.595 L553.242 651.609 L556.484 649.734 L559.725 647.978 L562.966 646.351 L566.208 644.86 L569.449 643.513 L572.69 642.304 L575.932 641.224 L579.173 640.266 L582.415 639.421 L585.656 638.68 L588.897 638.037 L592.139 637.482 L595.38 637.008 L598.622 636.608 L601.863 636.273 L605.104 635.997 L608.346 635.773 L611.587 635.594 L614.828 635.454 L618.07 635.346 L621.311 635.264 L624.553 635.202 L627.794 635.155 L631.035 635.117 L634.277 635.084 L637.518 635.051 L640.76 635.012 L644.001 634.964 L647.242 634.903 L650.484 634.824 L653.725 634.723 L656.966 634.598 L660.208 634.445 L663.449 634.26 L666.691 634.041 L669.932 633.785 L673.173 633.489 L676.415 633.152 L679.656 632.769 L682.898 632.34 L686.139 631.863 L689.38 631.336 L692.622 630.756 L695.863 630.123 L699.104 629.435 L702.346 628.691 L705.587 627.89 L708.829 627.031 L712.07 626.113 L715.311 625.135 L718.553 624.098 L721.794 622.999 L725.036 621.84 L728.277 620.62 L731.518 619.339 L734.76 617.997 L738.001 616.594 L741.242 615.131 L744.484 613.609 L747.725 612.027 L750.967 610.387 L754.208 608.689 L757.449 606.936 L760.691 605.127 L763.932 603.264 L767.174 601.35 L770.415 599.385 L773.656 597.372 L776.898 595.312 L780.139 593.209 L783.381 591.064 L786.622 588.88 L789.863 586.66 L793.105 584.407 L796.346 582.125 L799.587 579.817 L802.829 577.487 L806.07 575.139 L809.312 572.778 L812.553 570.408 L815.794 568.034 L819.036 565.662 L822.277 563.298 L825.519 560.947 L828.76 558.616 L832.001 556.313 L835.243 554.043 L838.484 551.815 L841.725 549.638 L844.967 547.52 L848.208 545.469 L851.45 543.496 L854.691 541.61 L857.932 539.823 L861.174 538.145 L864.415 536.589 L867.657 535.165 L870.898 533.886 L874.139 532.766 L877.381 531.817 L880.622 531.053 L883.863 530.488 L887.105 530.136 L890.346 530.01 L893.588 530.125 L896.829 530.494 L900.07 531.129 L903.312 532.033 L906.553 533.209 L909.795 534.654 L913.036 536.357 L916.277 538.302 L919.519 540.474 L922.76 542.857 L926.001 545.437 L929.243 548.196 L932.484 551.122 L935.726 554.198 L938.967 557.41 L942.208 560.745 L945.45 564.189 L948.691 567.729 L951.933 571.353 L955.174 575.049 L958.415 578.805 L961.657 582.612 L964.898 586.459 L968.139 590.337 L971.381 594.237 L974.622 598.15 L977.864 602.069 L981.105 605.986 L984.346 609.894 L987.588 613.788 L990.829 617.661 L994.071 621.508 L997.312 625.325 L1000.55 629.105 L1003.79 632.846 L1007.04 636.543 L1010.28 640.194 L1013.52 643.795 L1016.76 647.344 L1020 650.838 L1023.24 654.276 L1026.48 657.656 L1029.73 660.976 L1032.97 664.237 L1036.21 667.437 L1039.45 670.576 L1042.69 673.654 L1045.93 676.672 L1049.17 679.631 L1052.42 682.531 L1055.66 685.375 L1058.9 688.163 L1062.14 690.899 L1065.38 693.583 L1068.62 696.22 L1071.86 698.813 L1075.11 701.364 L1078.35 703.878 L1081.59 706.359 L1084.83 708.811 L1088.07 711.239 L1091.31 713.649 L1094.55 716.046 L1097.79 718.435 L1101.04 720.822 L1104.28 723.215 L1107.52 725.619 L1110.76 728.039 L1114 730.474 L1117.24 732.923 L1120.48 735.382 L1123.73 737.851 L1126.97 740.328 L1130.21 742.811 L1133.45 745.3 L1136.69 747.794 L1139.93 750.294 L1143.17 752.799 L1146.42 755.31 L1149.66 757.83 L1152.9 760.359 L1156.14 762.901 L1159.38 765.457 L1162.62 768.031 L1165.86 770.627 L1169.11 773.248 L1172.35 775.898 L1175.59 778.578 L1178.83 781.289 L1182.07 784.032 L1185.31 786.807 L1188.55 789.617 L1191.8 792.464 L1195.04 795.352 L1198.28 798.281 L1201.52 801.258 L1204.76 804.285 L1208 807.366 L1211.24 810.496 L1214.48 813.672 L1217.73 816.888 L1220.97 820.142 L1224.21 823.43 L1227.45 826.749 L1230.69 830.099 L1233.93 833.478 L1237.17 836.886 L1240.42 840.323 L1243.66 843.79 L1246.9 847.29 L1250.14 850.824 L1253.38 854.395 L1256.62 858.008 L1259.86 861.664 L1263.11 865.361 L1266.35 869.097 L1269.59 872.868 L1272.83 876.673 L1276.07 880.508 L1279.31 884.374 L1282.55 888.27 L1285.8 892.195 L1289.04 896.149 L1292.28 900.133 L1295.52 904.147 L1298.76 908.188 L1302 912.251 L1305.24 916.333 L1308.48 920.431 L1311.73 924.54 L1314.97 928.661 L1318.21 932.789 L1321.45 936.925 L1324.69 941.068 L1327.93 945.216 L1331.17 949.371 L1334.42 953.532 L1337.66 957.7 L1340.9 961.878 L1344.14 966.065 L1347.38 970.256 L1350.62 974.447 L1353.86 978.632 L1357.11 982.807 L1360.35 986.968 L1363.59 991.111 L1366.83 995.232 L1370.07 999.329 L1373.31 1003.4 L1376.55 1007.44 L1379.8 1011.46 L1383.04 1015.44 L1386.28 1019.39 L1389.52 1023.32 L1392.76 1027.21 L1396 1031.08 L1399.24 1034.92 L1402.49 1038.74 L1405.73 1042.54 L1408.97 1046.32 L1412.21 1050.09 L1415.45 1053.85 L1418.69 1057.6 L1421.93 1061.36 L1425.17 1065.13 L1428.42 1068.9 L1431.66 1072.7 L1434.9 1076.53 L1438.14 1080.38 L1441.38 1084.28 L1444.62 1088.22 L1447.86 1092.21 L1451.11 1096.24 L1454.35 1100.31 L1457.59 1104.43 L1460.83 1108.58 L1464.07 1112.78 L1467.31 1117.01 L1470.55 1121.28 L1473.8 1125.59 L1477.04 1129.93 L1480.28 1134.32 L1483.52 1138.75 L1486.76 1143.22 L1490 1147.73 L1493.24 1152.29 L1496.49 1156.9 L1499.73 1161.55 L1502.97 1166.26 L1506.21 1171.02 L1509.45 1175.84 L1512.69 1180.72 L1515.93 1185.66 L1519.18 1190.66 L1522.42 1195.73 L1525.66 1200.84 L1528.9 1206 L1532.14 1211.2 L1535.38 1216.42 L1538.62 1221.67 L1541.86 1226.93 L1545.11 1232.21 L1548.35 1237.48 L1551.59 1242.75 L1554.83 1248.02 L1558.07 1253.26 L1561.31 1258.49 L1564.55 1263.69 L1567.8 1268.86 L1571.04 1274 L1574.28 1279.09 L1577.52 1284.14 L1580.76 1289.14 L1584 1294.09 L1587.24 1298.99 L1590.49 1303.82 L1593.73 1308.6 L1596.97 1313.31 L1600.21 1317.94 L1603.45 1322.51 L1606.69 1327.01 L1609.93 1331.43 L1613.18 1335.77 L1616.42 1340.03 L1619.66 1344.21 L1622.9 1348.3 L1626.14 1352.31 L1629.38 1356.24 L1632.62 1360.07 L1635.86 1363.82 L1639.11 1367.47 L1642.35 1371.03 L1645.59 1374.51 L1648.83 1377.88 L1652.07 1381.17 L1655.31 1384.36 L1658.55 1387.46 L1661.8 1390.46 L1665.04 1393.37 L1668.28 1396.19 L1671.52 1398.91 L1674.76 1401.54 L1678 1404.07 L1681.24 1406.52 L1684.49 1408.87 L1687.73 1411.13 L1690.97 1413.31 L1694.21 1415.39 L1697.45 1417.39 L1700.69 1419.31 L1703.93 1421.14 L1707.18 1422.9 L1710.42 1424.57 L1713.66 1426.17 L1716.9 1427.69 L1720.14 1429.15 L1723.38 1430.53 L1726.62 1431.85 L1729.87 1433.1 L1733.11 1434.29 L1736.35 1435.43 L1739.59 1436.5 L1742.83 1437.53 L1746.07 1438.5 L1749.31 1439.42 L1752.55 1440.3 L1755.8 1441.12 L1759.04 1441.88 L1762.28 1442.58 L1765.52 1443.22 L1768.76 1443.79 L1772 1444.3 L1775.24 1444.73 L1778.49 1445.08 L1781.73 1445.36 L1784.97 1445.56 L1788.21 1445.68 L1791.45 1445.72 L1794.69 1445.66 L1797.93 1445.52 L1801.18 1445.29 L1804.42 1444.97 L1807.66 1444.56 L1810.9 1444.06 L1814.14 1443.46 L1817.38 1442.78 L1820.62 1442 L1823.87 1441.13 L1827.11 1440.17 L1830.35 1439.12 L1833.59 1437.99 L1836.83 1436.77 L1840.07 1435.46 L1843.31 1434.08 L1846.55 1432.62 L1849.8 1431.08 L1853.04 1429.47 L1856.28 1427.79 L1859.52 1426.05 L1862.76 1424.25 L1866 1422.39 L1869.24 1420.48 L1872.49 1418.52 L1875.73 1416.51 L1878.97 1414.44 L1882.21 1412.33 L1885.45 1410.16 L1888.69 1407.93 L1891.93 1405.65 L1895.18 1403.32 L1898.42 1400.92 L1901.66 1398.48 L1904.9 1395.97 L1908.14 1393.41 L1911.38 1390.8 L1914.62 1388.14 L1917.87 1385.42 L1921.11 1382.66 L1924.35 1379.85 L1927.59 1376.99 L1930.83 1374.1 L1934.07 1371.17 L1937.31 1368.2 L1940.56 1365.21 L1943.8 1362.19 L1947.04 1359.15 L1950.28 1356.09 L1953.52 1353.02 L1956.76 1349.93 L1960 1346.83 L1963.24 1343.71 L1966.49 1340.57 L1969.73 1337.41 L1972.97 1334.23 L1976.21 1331.03 L1979.45 1327.81 L1982.69 1324.56 L1985.93 1321.3 L1989.18 1318.01 L1992.42 1314.7 L1995.66 1311.37 L1998.9 1308.03 L2002.14 1304.67 L2005.38 1301.3 L2008.62 1297.92 L2011.87 1294.54 L2015.11 1291.15 L2018.35 1287.77 L2021.59 1284.4 L2024.83 1281.03 L2028.07 1277.69 L2031.31 1274.36 L2034.56 1271.07 L2037.8 1267.8 L2041.04 1264.56 L2044.28 1261.34 L2047.52 1258.14 L2050.76 1254.94 L2054 1251.76 L2057.24 1248.57 L2060.49 1245.38 L2063.73 1242.19 L2066.97 1238.98 L2070.21 1235.76 L2073.45 1232.53 L2076.69 1229.27 L2079.93 1225.99 L2083.18 1222.69 L2086.42 1219.37 L2089.66 1216.02 L2092.9 1212.64 L2096.14 1209.24 L2099.38 1205.81 L2102.62 1202.36 L2105.87 1198.88 L2109.11 1195.38 L2112.35 1191.85 L2115.59 1188.31 L2118.83 1184.74 L2122.07 1181.17 L2125.31 1177.58 L2128.56 1173.98 L2131.8 1170.38 L2135.04 1166.78 L2138.28 1163.18 L2141.52 1159.59 L2144.76 1156.01 L2148 1152.44 L2151.25 1148.9 L2154.49 1145.37 L2157.73 1141.86 L2160.97 1138.36 L2164.21 1134.88 L2167.45 1131.41 L2170.69 1127.95 L2173.93 1124.51 L2177.18 1121.07 L2180.42 1117.65 L2183.66 1114.24 L2186.9 1110.84 L2190.14 1107.46 L2193.38 1104.09 L2196.62 1100.73 L2199.87 1097.39 L2203.11 1094.08 L2206.35 1090.78 L2209.59 1087.52 L2212.83 1084.28 L2216.07 1081.08 L2219.31 1077.91 L2222.56 1074.79 L2225.8 1071.72 L2229.04 1068.71 L2232.28 1065.75 L2235.52 1062.86 L2238.76 1060.05 L2242 1057.32 L2245.25 1054.68 L2248.49 1052.13 L2251.73 1049.69 L2254.97 1047.36 L2258.21 1045.16 L2261.45 1043.09 L2264.69 1041.15 L2267.94 1039.37 L2271.18 1037.74 L2274.42 1036.29 L2277.66 1035.01 L2280.9 1033.91 L2284.14 1033.01 L2287.38 1032.3 L2290.62 1031.77 L2290.62 577.476 L2287.38 582.074 L2284.14 586.655 L2280.9 591.214 L2277.66 595.749 L2274.42 600.262 L2271.18 604.756 L2267.94 609.234 L2264.69 613.701 L2261.45 618.158 L2258.21 622.61 L2254.97 627.06 L2251.73 631.512 L2248.49 635.968 L2245.25 640.432 L2242 644.905 L2238.76 649.392 L2235.52 653.893 L2232.28 658.412 L2229.04 662.949 L2225.8 667.507 L2222.56 672.085 L2219.31 676.685 L2216.07 681.306 L2212.83 685.95 L2209.59 690.614 L2206.35 695.299 L2203.11 700.002 L2199.87 704.723 L2196.62 709.458 L2193.38 714.206 L2190.14 718.963 L2186.9 723.727 L2183.66 728.492 L2180.42 733.256 L2177.18 738.013 L2173.93 742.759 L2170.69 747.488 L2167.45 752.195 L2164.21 756.874 L2160.97 761.52 L2157.73 766.124 L2154.49 770.682 L2151.25 775.186 L2148 779.63 L2144.76 784.008 L2141.52 788.325 L2138.28 792.588 L2135.04 796.803 L2131.8 800.976 L2128.56 805.114 L2125.31 809.222 L2122.07 813.305 L2118.83 817.37 L2115.59 821.421 L2112.35 825.462 L2109.11 829.497 L2105.87 833.53 L2102.62 837.566 L2099.38 841.605 L2096.14 845.652 L2092.9 849.707 L2089.66 853.773 L2086.42 857.851 L2083.18 861.941 L2079.93 866.044 L2076.69 870.159 L2073.45 874.286 L2070.21 878.423 L2066.97 882.57 L2063.73 886.724 L2060.49 890.883 L2057.24 895.044 L2054 899.204 L2050.76 903.359 L2047.52 907.506 L2044.28 911.64 L2041.04 915.757 L2037.8 919.852 L2034.56 923.92 L2031.31 927.958 L2028.07 931.966 L2024.83 935.947 L2021.59 939.902 L2018.35 943.832 L2015.11 947.74 L2011.87 951.625 L2008.62 955.489 L2005.38 959.332 L2002.14 963.153 L1998.9 966.952 L1995.66 970.728 L1992.42 974.479 L1989.18 978.203 L1985.93 981.898 L1982.69 985.56 L1979.45 989.186 L1976.21 992.772 L1972.97 996.314 L1969.73 999.807 L1966.49 1003.24 L1963.24 1006.62 L1960 1009.93 L1956.76 1013.17 L1953.52 1016.33 L1950.28 1019.4 L1947.04 1022.38 L1943.8 1025.26 L1940.56 1028.06 L1937.31 1030.77 L1934.07 1033.41 L1930.83 1035.96 L1927.59 1038.43 L1924.35 1040.83 L1921.11 1043.15 L1917.87 1045.39 L1914.62 1047.56 L1911.38 1049.66 L1908.14 1051.68 L1904.9 1053.62 L1901.66 1055.48 L1898.42 1057.25 L1895.18 1058.94 L1891.93 1060.55 L1888.69 1062.06 L1885.45 1063.47 L1882.21 1064.78 L1878.97 1065.98 L1875.73 1067.07 L1872.49 1068.05 L1869.24 1068.89 L1866 1069.61 L1862.76 1070.21 L1859.52 1070.69 L1856.28 1071.06 L1853.04 1071.32 L1849.8 1071.49 L1846.55 1071.56 L1843.31 1071.55 L1840.07 1071.44 L1836.83 1071.26 L1833.59 1071.01 L1830.35 1070.68 L1827.11 1070.28 L1823.87 1069.81 L1820.62 1069.27 L1817.38 1068.67 L1814.14 1068 L1810.9 1067.27 L1807.66 1066.48 L1804.42 1065.62 L1801.18 1064.69 L1797.93 1063.69 L1794.69 1062.63 L1791.45 1061.49 L1788.21 1060.27 L1784.97 1058.98 L1781.73 1057.6 L1778.49 1056.14 L1775.24 1054.58 L1772 1052.92 L1768.76 1051.17 L1765.52 1049.3 L1762.28 1047.32 L1759.04 1045.23 L1755.8 1043 L1752.55 1040.64 L1749.31 1038.15 L1746.07 1035.5 L1742.83 1032.71 L1739.59 1029.78 L1736.35 1026.71 L1733.11 1023.52 L1729.87 1020.21 L1726.62 1016.8 L1723.38 1013.29 L1720.14 1009.7 L1716.9 1006.02 L1713.66 1002.28 L1710.42 998.478 L1707.18 994.62 L1703.93 990.716 L1700.69 986.773 L1697.45 982.799 L1694.21 978.8 L1690.97 974.782 L1687.73 970.752 L1684.49 966.716 L1681.24 962.679 L1678 958.647 L1674.76 954.624 L1671.52 950.616 L1668.28 946.627 L1665.04 942.661 L1661.8 938.723 L1658.55 934.816 L1655.31 930.943 L1652.07 927.108 L1648.83 923.314 L1645.59 919.564 L1642.35 915.86 L1639.11 912.205 L1635.86 908.6 L1632.62 905.048 L1629.38 901.551 L1626.14 898.109 L1622.9 894.724 L1619.66 891.397 L1616.42 888.129 L1613.18 884.921 L1609.93 881.772 L1606.69 878.683 L1603.45 875.654 L1600.21 872.684 L1596.97 869.774 L1593.73 866.921 L1590.49 864.126 L1587.24 861.386 L1584 858.701 L1580.76 856.069 L1577.52 853.487 L1574.28 850.953 L1571.04 848.465 L1567.8 846.02 L1564.55 843.615 L1561.31 841.246 L1558.07 838.91 L1554.83 836.603 L1551.59 834.321 L1548.35 832.059 L1545.11 829.812 L1541.86 827.576 L1538.62 825.345 L1535.38 823.113 L1532.14 820.875 L1528.9 818.624 L1525.66 816.355 L1522.42 814.062 L1519.18 811.737 L1515.93 809.374 L1512.69 806.968 L1509.45 804.521 L1506.21 802.036 L1502.97 799.515 L1499.73 796.962 L1496.49 794.379 L1493.24 791.768 L1490 789.132 L1486.76 786.473 L1483.52 783.792 L1480.28 781.092 L1477.04 778.374 L1473.8 775.638 L1470.55 772.884 L1467.31 770.115 L1464.07 767.328 L1460.83 764.524 L1457.59 761.702 L1454.35 758.862 L1451.11 756.001 L1447.86 753.119 L1444.62 750.213 L1441.38 747.282 L1438.14 744.326 L1434.9 741.349 L1431.66 738.357 L1428.42 735.356 L1425.17 732.352 L1421.93 729.351 L1418.69 726.358 L1415.45 723.377 L1412.21 720.412 L1408.97 717.468 L1405.73 714.548 L1402.49 711.655 L1399.24 708.791 L1396 705.959 L1392.76 703.159 L1389.52 700.393 L1386.28 697.661 L1383.04 694.963 L1379.8 692.298 L1376.55 689.665 L1373.31 687.062 L1370.07 684.487 L1366.83 681.937 L1363.59 679.409 L1360.35 676.898 L1357.11 674.402 L1353.86 671.913 L1350.62 669.428 L1347.38 666.941 L1344.14 664.445 L1340.9 661.933 L1337.66 659.401 L1334.42 656.848 L1331.17 654.275 L1327.93 651.682 L1324.69 649.069 L1321.45 646.435 L1318.21 643.78 L1314.97 641.103 L1311.73 638.4 L1308.48 635.671 L1305.24 632.912 L1302 630.119 L1298.76 627.29 L1295.52 624.418 L1292.28 621.5 L1289.04 618.532 L1285.8 615.515 L1282.55 612.453 L1279.31 609.348 L1276.07 606.202 L1272.83 603.017 L1269.59 599.793 L1266.35 596.531 L1263.11 593.231 L1259.86 589.893 L1256.62 586.516 L1253.38 583.099 L1250.14 579.646 L1246.9 576.16 L1243.66 572.644 L1240.42 569.102 L1237.17 565.536 L1233.93 561.947 L1230.69 558.335 L1227.45 554.701 L1224.21 551.043 L1220.97 547.362 L1217.73 543.655 L1214.48 539.918 L1211.24 536.15 L1208 532.346 L1204.76 528.502 L1201.52 524.614 L1198.28 520.681 L1195.04 516.702 L1191.8 512.674 L1188.55 508.597 L1185.31 504.467 L1182.07 500.282 L1178.83 496.039 L1175.59 491.734 L1172.35 487.363 L1169.11 482.922 L1165.86 478.407 L1162.62 473.823 L1159.38 469.176 L1156.14 464.47 L1152.9 459.711 L1149.66 454.903 L1146.42 450.051 L1143.17 445.157 L1139.93 440.226 L1136.69 435.259 L1133.45 430.259 L1130.21 425.228 L1126.97 420.167 L1123.73 415.077 L1120.48 409.959 L1117.24 404.814 L1114 399.64 L1110.76 394.44 L1107.52 389.211 L1104.28 383.955 L1101.04 378.679 L1097.79 373.39 L1094.55 368.096 L1091.31 362.805 L1088.07 357.524 L1084.83 352.259 L1081.59 347.017 L1078.35 341.806 L1075.11 336.63 L1071.86 331.496 L1068.62 326.41 L1065.38 321.376 L1062.14 316.4 L1058.9 311.487 L1055.66 306.64 L1052.42 301.864 L1049.17 297.163 L1045.93 292.541 L1042.69 288 L1039.45 283.544 L1036.21 279.176 L1032.97 274.897 L1029.73 270.711 L1026.48 266.62 L1023.24 262.624 L1020 258.726 L1016.76 254.927 L1013.52 251.228 L1010.28 247.63 L1007.04 244.132 L1003.79 240.736 L1000.55 237.441 L997.312 234.247 L994.071 231.152 L990.829 228.157 L987.588 225.259 L984.346 222.458 L981.105 219.75 L977.864 217.134 L974.622 214.607 L971.381 212.166 L968.139 209.807 L964.898 207.527 L961.657 205.32 L958.415 203.183 L955.174 201.11 L951.933 199.096 L948.691 197.133 L945.45 195.217 L942.208 193.339 L938.967 191.494 L935.726 189.672 L932.484 187.866 L929.243 186.067 L926.001 184.267 L922.76 182.458 L919.519 180.63 L916.277 178.775 L913.036 176.885 L909.795 174.95 L906.553 172.963 L903.312 170.917 L900.07 168.808 L896.829 166.633 L893.588 164.391 L890.346 162.087 L887.105 159.729 L883.863 157.322 L880.622 154.875 L877.381 152.396 L874.139 149.892 L870.898 147.371 L867.657 144.84 L864.415 142.308 L861.174 139.78 L857.932 137.264 L854.691 134.767 L851.45 132.294 L848.208 129.852 L844.967 127.446 L841.725 125.081 L838.484 122.763 L835.243 120.494 L832.001 118.281 L828.76 116.127 L825.519 114.035 L822.277 112.008 L819.036 110.05 L815.794 108.164 L812.553 106.351 L809.312 104.615 L806.07 102.957 L802.829 101.38 L799.587 99.8844 L796.346 98.4724 L793.105 97.1453 L789.863 95.9045 L786.622 94.7509 L783.381 93.6856 L780.139 92.7095 L776.898 91.8233 L773.656 91.0277 L770.415 90.3233 L767.174 89.7105 L763.932 89.1897 L760.691 88.7613 L757.449 88.4256 L754.208 88.1828 L750.967 88.033 L747.725 87.9763 L744.484 88.0127 L741.242 88.1423 L738.001 88.3651 L734.76 88.6808 L731.518 89.0894 L728.277 89.5907 L725.036 90.1846 L721.794 90.8706 L718.553 91.6487 L715.311 92.5184 L712.07 93.4793 L708.829 94.5311 L705.587 95.6734 L702.346 96.9056 L699.104 98.2273 L695.863 99.6378 L692.622 101.137 L689.38 102.723 L686.139 104.396 L682.898 106.156 L679.656 108.001 L676.415 109.93 L673.173 111.943 L669.932 114.039 L666.691 116.216 L663.449 118.473 L660.208 120.81 L656.966 123.224 L653.725 125.715 L650.484 128.281 L647.242 130.92 L644.001 133.632 L640.76 136.413 L637.518 139.262 L634.277 142.178 L631.035 145.158 L627.794 148.199 L624.553 151.3 L621.311 154.458 L618.07 157.67 L614.828 160.934 L611.587 164.247 L608.346 167.605 L605.104 171.006 L601.863 174.446 L598.622 177.923 L595.38 181.432 L592.139 184.97 L588.897 188.534 L585.656 192.119 L582.415 195.723 L579.173 199.341 L575.932 202.97 L572.69 206.606 L569.449 210.246 L566.208 213.887 L562.966 217.526 L559.725 221.165 L556.484 224.807 L553.242 228.455 L550.001 232.113 L546.759 235.783 L543.518 239.469 L540.277 243.174 L537.035 246.901 L533.794 250.653 L530.552 254.433 L527.311 258.244 L524.07 262.089 L520.828 265.971 L517.587 269.89 L514.346 273.849 L511.104 277.851 L507.863 281.896 L504.621 285.985 L501.38 290.12 L498.139 294.3 L494.897 298.527 L491.656 302.799 L488.414 307.118 L485.173 311.48 L481.932 315.887 L478.69 320.335 L475.449 324.823 L472.208 329.349 L468.966 333.91 L465.725 338.503 L462.483 343.125 L459.242 347.771 L456.001 352.437 L452.759 357.119 L449.518 361.811 L446.276 366.507 L443.035 371.202 L439.794 375.888 L436.552 380.56 L433.311 385.208 L430.069 389.827 L426.828 394.407 L423.587 398.939 L420.345 403.415 L417.104 407.825 L413.863 412.159 L410.621 416.408 L407.38 420.564 L404.138 424.627 L400.897 428.599 L397.656 432.481 L394.414 436.277 L391.173 439.986 L387.931 443.611 L384.69 447.152 L381.449 450.61 L378.207 453.986 L374.966 457.279 L371.725 460.489 L368.483 463.617 L365.242 466.66 L362 469.62 L358.759 472.495 L355.518 475.287 L352.276 478.001 L349.035 480.638 L345.793 483.201 L342.552 485.692 L339.311 488.113 L336.069 490.465 L332.828 492.748 L329.587 494.964 L326.345 497.111 L323.104 499.189 L319.862 501.197 L316.621 503.132 L313.38 504.993 L310.138 506.777 L306.897 508.479 L303.655 510.097 L300.414 511.626 L297.173 513.061 L293.931 514.397 L290.69 515.628 L287.449 516.749 L284.207 517.752 L280.966 518.632 L277.724 519.382 L274.483 519.994 L271.242 520.462 L268 520.778 L264.759 520.935 L261.517 520.928 L258.276 520.763 L255.035 520.447  Z" fill="#3da44d" fill-rule="evenodd" fill-opacity="0.1"/>
<polyline clip-path="url(#clip171)" style="stroke:#3da44d; stroke-linecap:round; stroke-linejoin:round; stroke-width:8; stroke-opacity:1; fill:none" points="255.035,734.729 258.276,732.52 261.517,730.246 264.759,727.907 268,725.501 271.242,723.029 274.483,720.496 277.724,717.903 280.966,715.254 284.207,712.55 287.449,709.794 290.69,706.99 293.931,704.139 297.173,701.245 300.414,698.309 303.655,695.334 306.897,692.323 310.138,689.278 313.38,686.201 316.621,683.096 319.862,679.964 323.104,676.808 326.345,673.63 329.587,670.433 332.828,667.22 336.069,663.991 339.311,660.751 342.552,657.501 345.793,654.244 349.035,650.983 352.276,647.719 355.518,644.455 358.759,641.194 362,637.938 365.242,634.689 368.483,631.445 371.725,628.204 374.966,624.965 378.207,621.725 381.449,618.482 384.69,615.234 387.931,611.978 391.173,608.714 394.414,605.438 397.656,602.149 400.897,598.844 404.138,595.522 407.38,592.181 410.621,588.818 413.863,585.433 417.104,582.025 420.345,578.597 423.587,575.15 426.828,571.685 430.069,568.203 433.311,564.707 436.552,561.198 439.794,557.677 443.035,554.145 446.276,550.605 449.518,547.057 452.759,543.504 456.001,539.946 459.242,536.386 462.483,532.825 465.725,529.264 468.966,525.705 472.208,522.151 475.449,518.601 478.69,515.059 481.932,511.526 485.173,508.004 488.414,504.495 491.656,500.999 494.897,497.52 498.139,494.059 501.38,490.618 504.621,487.199 507.863,483.805 511.104,480.436 514.346,477.095 517.587,473.785 520.828,470.507 524.07,467.264 527.311,464.058 530.552,460.892 533.794,457.767 537.035,454.686 540.277,451.652 543.518,448.666 546.759,445.733 550.001,442.854 553.242,440.032 556.484,437.271 559.725,434.571 562.966,431.938 566.208,429.373 569.449,426.88 572.69,424.455 575.932,422.097 579.173,419.803 582.415,417.572 585.656,415.4 588.897,413.285 592.139,411.226 595.38,409.22 598.622,407.265 601.863,405.36 605.104,403.502 608.346,401.689 611.587,399.921 614.828,398.194 618.07,396.508 621.311,394.861 624.553,393.251 627.794,391.677 631.035,390.137 634.277,388.631 637.518,387.157 640.76,385.713 644.001,384.298 647.242,382.912 650.484,381.552 653.725,380.219 656.966,378.911 660.208,377.627 663.449,376.367 666.691,375.128 669.932,373.912 673.173,372.716 676.415,371.541 679.656,370.385 682.898,369.248 686.139,368.13 689.38,367.029 692.622,365.946 695.863,364.88 699.104,363.831 702.346,362.798 705.587,361.782 708.829,360.781 712.07,359.796 715.311,358.827 718.553,357.873 721.794,356.935 725.036,356.012 728.277,355.105 731.518,354.214 734.76,353.339 738.001,352.48 741.242,351.637 744.484,350.811 747.725,350.002 750.967,349.21 754.208,348.436 757.449,347.681 760.691,346.944 763.932,346.227 767.174,345.53 770.415,344.854 773.656,344.2 776.898,343.568 780.139,342.959 783.381,342.375 786.622,341.815 789.863,341.282 793.105,340.776 796.346,340.299 799.587,339.851 802.829,339.433 806.07,339.048 809.312,338.697 812.553,338.38 815.794,338.099 819.036,337.856 822.277,337.653 825.519,337.491 828.76,337.372 832.001,337.297 835.243,337.269 838.484,337.289 841.725,337.36 844.967,337.483 848.208,337.66 851.45,337.895 854.691,338.189 857.932,338.544 861.174,338.963 864.415,339.448 867.657,340.002 870.898,340.628 874.139,341.329 877.381,342.106 880.622,342.964 883.863,343.905 887.105,344.932 890.346,346.049 893.588,347.258 896.829,348.564 900.07,349.968 903.312,351.475 906.553,353.086 909.795,354.802 913.036,356.621 916.277,358.539 919.519,360.552 922.76,362.658 926.001,364.852 929.243,367.132 932.484,369.494 935.726,371.935 938.967,374.452 942.208,377.042 945.45,379.703 948.691,382.431 951.933,385.224 955.174,388.079 958.415,390.994 961.657,393.966 964.898,396.993 968.139,400.072 971.381,403.201 974.622,406.379 977.864,409.601 981.105,412.868 984.346,416.176 987.588,419.524 990.829,422.909 994.071,426.33 997.312,429.786 1000.55,433.273 1003.79,436.791 1007.04,440.338 1010.28,443.912 1013.52,447.512 1016.76,451.136 1020,454.782 1023.24,458.45 1026.48,462.138 1029.73,465.844 1032.97,469.567 1036.21,473.306 1039.45,477.06 1042.69,480.827 1045.93,484.607 1049.17,488.397 1052.42,492.198 1055.66,496.008 1058.9,499.825 1062.14,503.649 1065.38,507.48 1068.62,511.315 1071.86,515.155 1075.11,518.997 1078.35,522.842 1081.59,526.688 1084.83,530.535 1088.07,534.382 1091.31,538.227 1094.55,542.071 1097.79,545.912 1101.04,549.751 1104.28,553.585 1107.52,557.415 1110.76,561.239 1114,565.057 1117.24,568.868 1120.48,572.671 1123.73,576.464 1126.97,580.247 1130.21,584.019 1133.45,587.779 1136.69,591.527 1139.93,595.26 1143.17,598.978 1146.42,602.681 1149.66,606.367 1152.9,610.035 1156.14,613.685 1159.38,617.316 1162.62,620.927 1165.86,624.517 1169.11,628.085 1172.35,631.631 1175.59,635.156 1178.83,638.664 1182.07,642.157 1185.31,645.637 1188.55,649.107 1191.8,652.569 1195.04,656.027 1198.28,659.481 1201.52,662.936 1204.76,666.394 1208,669.856 1211.24,673.323 1214.48,676.795 1217.73,680.271 1220.97,683.752 1224.21,687.237 1227.45,690.725 1230.69,694.217 1233.93,697.712 1237.17,701.211 1240.42,704.713 1243.66,708.217 1246.9,711.725 1250.14,715.235 1253.38,718.747 1256.62,722.262 1259.86,725.778 1263.11,729.296 1266.35,732.814 1269.59,736.33 1272.83,739.845 1276.07,743.355 1279.31,746.861 1282.55,750.362 1285.8,753.855 1289.04,757.34 1292.28,760.817 1295.52,764.283 1298.76,767.739 1302,771.185 1305.24,774.623 1308.48,778.051 1311.73,781.47 1314.97,784.882 1318.21,788.285 1321.45,791.68 1324.69,795.068 1327.93,798.449 1331.17,801.823 1334.42,805.19 1337.66,808.551 1340.9,811.906 1344.14,815.255 1347.38,818.599 1350.62,821.938 1353.86,825.273 1357.11,828.604 1360.35,831.933 1363.59,835.26 1366.83,838.584 1370.07,841.908 1373.31,845.231 1376.55,848.554 1379.8,851.877 1383.04,855.201 1386.28,858.527 1389.52,861.855 1392.76,865.185 1396,868.519 1399.24,871.856 1402.49,875.197 1405.73,878.543 1408.97,881.894 1412.21,885.25 1415.45,888.612 1418.69,891.981 1421.93,895.357 1425.17,898.74 1428.42,902.13 1431.66,905.53 1434.9,908.937 1438.14,912.354 1441.38,915.781 1444.62,919.217 1447.86,922.664 1451.11,926.121 1454.35,929.588 1457.59,933.065 1460.83,936.553 1464.07,940.052 1467.31,943.561 1470.55,947.081 1473.8,950.612 1477.04,954.154 1480.28,957.707 1483.52,961.271 1486.76,964.846 1490,968.432 1493.24,972.029 1496.49,975.637 1499.73,979.256 1502.97,982.886 1506.21,986.528 1509.45,990.18 1512.69,993.842 1515.93,997.516 1519.18,1001.2 1522.42,1004.9 1525.66,1008.6 1528.9,1012.31 1532.14,1016.04 1535.38,1019.77 1538.62,1023.51 1541.86,1027.26 1545.11,1031.01 1548.35,1034.77 1551.59,1038.54 1554.83,1042.31 1558.07,1046.09 1561.31,1049.87 1564.55,1053.65 1567.8,1057.44 1571.04,1061.23 1574.28,1065.02 1577.52,1068.81 1580.76,1072.61 1584,1076.4 1587.24,1080.19 1590.49,1083.97 1593.73,1087.76 1596.97,1091.54 1600.21,1095.31 1603.45,1099.08 1606.69,1102.85 1609.93,1106.6 1613.18,1110.34 1616.42,1114.08 1619.66,1117.8 1622.9,1121.51 1626.14,1125.21 1629.38,1128.89 1632.62,1132.56 1635.86,1136.21 1639.11,1139.84 1642.35,1143.45 1645.59,1147.03 1648.83,1150.6 1652.07,1154.14 1655.31,1157.65 1658.55,1161.14 1661.8,1164.59 1665.04,1168.02 1668.28,1171.41 1671.52,1174.76 1674.76,1178.08 1678,1181.36 1681.24,1184.6 1684.49,1187.79 1687.73,1190.94 1690.97,1194.04 1694.21,1197.1 1697.45,1200.1 1700.69,1203.04 1703.93,1205.93 1707.18,1208.76 1710.42,1211.52 1713.66,1214.23 1716.9,1216.86 1720.14,1219.42 1723.38,1221.91 1726.62,1224.32 1729.87,1226.65 1733.11,1228.9 1736.35,1231.07 1739.59,1233.14 1742.83,1235.12 1746.07,1237 1749.31,1238.79 1752.55,1240.47 1755.8,1242.06 1759.04,1243.55 1762.28,1244.95 1765.52,1246.26 1768.76,1247.48 1772,1248.61 1775.24,1249.65 1778.49,1250.61 1781.73,1251.48 1784.97,1252.27 1788.21,1252.98 1791.45,1253.6 1794.69,1254.15 1797.93,1254.61 1801.18,1254.99 1804.42,1255.29 1807.66,1255.52 1810.9,1255.67 1814.14,1255.73 1817.38,1255.72 1820.62,1255.63 1823.87,1255.47 1827.11,1255.22 1830.35,1254.9 1833.59,1254.5 1836.83,1254.01 1840.07,1253.45 1843.31,1252.81 1846.55,1252.09 1849.8,1251.28 1853.04,1250.4 1856.28,1249.43 1859.52,1248.37 1862.76,1247.23 1866,1246 1869.24,1244.69 1872.49,1243.28 1875.73,1241.79 1878.97,1240.21 1882.21,1238.55 1885.45,1236.81 1888.69,1234.99 1891.93,1233.1 1895.18,1231.13 1898.42,1229.09 1901.66,1226.98 1904.9,1224.79 1908.14,1222.55 1911.38,1220.23 1914.62,1217.85 1917.87,1215.41 1921.11,1212.9 1924.35,1210.34 1927.59,1207.71 1930.83,1205.03 1934.07,1202.29 1937.31,1199.49 1940.56,1196.63 1943.8,1193.73 1947.04,1190.76 1950.28,1187.74 1953.52,1184.67 1956.76,1181.55 1960,1178.38 1963.24,1175.17 1966.49,1171.91 1969.73,1168.61 1972.97,1165.27 1976.21,1161.9 1979.45,1158.5 1982.69,1155.06 1985.93,1151.6 1989.18,1148.1 1992.42,1144.59 1995.66,1141.05 1998.9,1137.49 2002.14,1133.91 2005.38,1130.32 2008.62,1126.7 2011.87,1123.08 2015.11,1119.45 2018.35,1115.8 2021.59,1112.15 2024.83,1108.49 2028.07,1104.83 2031.31,1101.16 2034.56,1097.49 2037.8,1093.83 2041.04,1090.16 2044.28,1086.49 2047.52,1082.82 2050.76,1079.15 2054,1075.48 2057.24,1071.81 2060.49,1068.13 2063.73,1064.46 2066.97,1060.78 2070.21,1057.09 2073.45,1053.41 2076.69,1049.71 2079.93,1046.02 2083.18,1042.32 2086.42,1038.61 2089.66,1034.9 2092.9,1031.18 2096.14,1027.45 2099.38,1023.71 2102.62,1019.96 2105.87,1016.2 2109.11,1012.44 2112.35,1008.66 2115.59,1004.86 2118.83,1001.06 2122.07,997.237 2125.31,993.401 2128.56,989.549 2131.8,985.679 2135.04,981.792 2138.28,977.885 2141.52,973.957 2144.76,970.008 2148,966.036 2151.25,962.041 2154.49,958.024 2157.73,953.99 2160.97,949.939 2164.21,945.876 2167.45,941.802 2170.69,937.72 2173.93,933.633 2177.18,929.544 2180.42,925.454 2183.66,921.367 2186.9,917.285 2190.14,913.211 2193.38,909.147 2196.62,905.095 2199.87,901.059 2203.11,897.04 2206.35,893.041 2209.59,889.065 2212.83,885.115 2216.07,881.192 2219.31,877.299 2222.56,873.439 2225.8,869.614 2229.04,865.828 2232.28,862.082 2235.52,858.379 2238.76,854.721 2242,851.112 2245.25,847.554 2248.49,844.049 2251.73,840.601 2254.97,837.212 2258.21,833.885 2261.45,830.622 2264.69,827.427 2267.94,824.302 2271.18,821.25 2274.42,818.275 2277.66,815.378 2280.9,812.564 2284.14,809.834 2287.38,807.187 2290.62,804.621 "/>
<polyline clip-path="url(#clip171)" style="stroke:#c271d2; stroke-linecap:round; stroke-linejoin:round; stroke-width:12; stroke-opacity:1; fill:none" points="255.035,879.26 362.225,751.226 469.416,654.671 576.607,569.598 683.797,546.514 790.988,506.204 898.179,471.617 1005.37,570.803 1112.56,675.345 1219.75,774.494 1326.94,896.249 1434.13,1021.1 1541.32,1161.14 1648.51,1303.57 1755.7,1376.29 1862.89,1366.56 1970.09,1282.11 2077.28,1170.21 2184.47,1050.56 2291.66,957.478 "/>
<polyline clip-path="url(#clip171)" style="stroke:#ac8d18; stroke-linecap:round; stroke-linejoin:round; stroke-width:12; stroke-opacity:1; fill:none" points="255.035,590.198 362.225,524.198 469.416,395.752 576.607,273.63 683.797,191.358 790.988,176.003 898.179,226.656 1005.37,306.218 1112.56,451.374 1219.75,590.396 1326.94,698.581 1434.13,795.16 1541.32,892.117 1648.51,996.935 1755.7,1107.74 1862.89,1127.8 1970.09,1054.38 2077.28,927.89 2184.47,790.143 2291.66,650.163 "/>
<path clip-path="url(#clip170)" d="M1953.46 406.258 L2280.8 406.258 L2280.8 95.2176 L1953.46 95.2176  Z" fill="#ffffff" fill-rule="evenodd" fill-opacity="1"/>
<polyline clip-path="url(#clip170)" style="stroke:#000000; stroke-linecap:round; stroke-linejoin:round; stroke-width:4; stroke-opacity:1; fill:none" points="1953.46,406.258 2280.8,406.258 2280.8,95.2176 1953.46,95.2176 1953.46,406.258 "/>
<polyline clip-path="url(#clip170)" style="stroke:#009af9; stroke-linecap:round; stroke-linejoin:round; stroke-width:4; stroke-opacity:1; fill:none" points="1977.44,147.058 2121.36,147.058 "/>
<path clip-path="url(#clip170)" d="M2152.76 131.051 L2152.76 138.412 L2161.53 138.412 L2161.53 141.722 L2152.76 141.722 L2152.76 155.796 Q2152.76 158.967 2153.61 159.87 Q2154.49 160.773 2157.16 160.773 L2161.53 160.773 L2161.53 164.338 L2157.16 164.338 Q2152.23 164.338 2150.35 162.509 Q2148.48 160.657 2148.48 155.796 L2148.48 141.722 L2145.35 141.722 L2145.35 138.412 L2148.48 138.412 L2148.48 131.051 L2152.76 131.051 Z" fill="#000000" fill-rule="nonzero" fill-opacity="1" /><path clip-path="url(#clip170)" d="M2182.16 142.393 Q2181.44 141.977 2180.58 141.791 Q2179.75 141.583 2178.73 141.583 Q2175.12 141.583 2173.17 143.944 Q2171.25 146.282 2171.25 150.68 L2171.25 164.338 L2166.97 164.338 L2166.97 138.412 L2171.25 138.412 L2171.25 142.44 Q2172.6 140.078 2174.75 138.944 Q2176.9 137.787 2179.98 137.787 Q2180.42 137.787 2180.95 137.856 Q2181.48 137.903 2182.13 138.018 L2182.16 142.393 Z" fill="#000000" fill-rule="nonzero" fill-opacity="1" /><path clip-path="url(#clip170)" d="M2186.18 154.106 L2186.18 138.412 L2190.44 138.412 L2190.44 153.944 Q2190.44 157.625 2191.88 159.476 Q2193.31 161.305 2196.18 161.305 Q2199.63 161.305 2201.62 159.106 Q2203.64 156.907 2203.64 153.111 L2203.64 138.412 L2207.9 138.412 L2207.9 164.338 L2203.64 164.338 L2203.64 160.356 Q2202.09 162.717 2200.03 163.875 Q2197.99 165.009 2195.28 165.009 Q2190.81 165.009 2188.5 162.231 Q2186.18 159.453 2186.18 154.106 M2196.9 137.787 L2196.9 137.787 Z" fill="#000000" fill-rule="nonzero" fill-opacity="1" /><path clip-path="url(#clip170)" d="M2220.88 131.051 L2220.88 138.412 L2229.66 138.412 L2229.66 141.722 L2220.88 141.722 L2220.88 155.796 Q2220.88 158.967 2221.74 159.87 Q2222.62 160.773 2225.28 160.773 L2229.66 160.773 L2229.66 164.338 L2225.28 164.338 Q2220.35 164.338 2218.48 162.509 Q2216.6 160.657 2216.6 155.796 L2216.6 141.722 L2213.48 141.722 L2213.48 138.412 L2216.6 138.412 L2216.6 131.051 L2220.88 131.051 Z" fill="#000000" fill-rule="nonzero" fill-opacity="1" /><path clip-path="url(#clip170)" d="M2256.81 148.689 L2256.81 164.338 L2252.55 164.338 L2252.55 148.828 Q2252.55 145.148 2251.11 143.319 Q2249.68 141.49 2246.81 141.49 Q2243.36 141.49 2241.37 143.69 Q2239.38 145.889 2239.38 149.685 L2239.38 164.338 L2235.1 164.338 L2235.1 128.319 L2239.38 128.319 L2239.38 142.44 Q2240.91 140.102 2242.97 138.944 Q2245.05 137.787 2247.76 137.787 Q2252.23 137.787 2254.52 140.565 Q2256.81 143.319 2256.81 148.689 Z" fill="#000000" fill-rule="nonzero" fill-opacity="1" /><circle clip-path="url(#clip170)" cx="2049.4" cy="198.898" r="20.48" fill="#e26f46" fill-rule="evenodd" fill-opacity="1" stroke="#000000" stroke-opacity="1" stroke-width="4.55111"/>
<path clip-path="url(#clip170)" d="M2164.26 194.187 L2164.26 180.159 L2168.52 180.159 L2168.52 216.178 L2164.26 216.178 L2164.26 212.289 Q2162.92 214.603 2160.86 215.738 Q2158.82 216.849 2155.95 216.849 Q2151.25 216.849 2148.29 213.099 Q2145.35 209.349 2145.35 203.238 Q2145.35 197.127 2148.29 193.377 Q2151.25 189.627 2155.95 189.627 Q2158.82 189.627 2160.86 190.761 Q2162.92 191.872 2164.26 194.187 M2149.75 203.238 Q2149.75 207.937 2151.67 210.622 Q2153.61 213.284 2156.99 213.284 Q2160.37 213.284 2162.32 210.622 Q2164.26 207.937 2164.26 203.238 Q2164.26 198.539 2162.32 195.877 Q2160.37 193.192 2156.99 193.192 Q2153.61 193.192 2151.67 195.877 Q2149.75 198.539 2149.75 203.238 Z" fill="#000000" fill-rule="nonzero" fill-opacity="1" /><path clip-path="url(#clip170)" d="M2189.08 203.145 Q2183.92 203.145 2181.92 204.326 Q2179.93 205.506 2179.93 208.354 Q2179.93 210.622 2181.42 211.965 Q2182.92 213.284 2185.49 213.284 Q2189.03 213.284 2191.16 210.784 Q2193.31 208.261 2193.31 204.094 L2193.31 203.145 L2189.08 203.145 M2197.57 201.386 L2197.57 216.178 L2193.31 216.178 L2193.31 212.242 Q2191.85 214.603 2189.68 215.738 Q2187.5 216.849 2184.36 216.849 Q2180.37 216.849 2178.01 214.627 Q2175.67 212.381 2175.67 208.631 Q2175.67 204.256 2178.59 202.034 Q2181.53 199.812 2187.34 199.812 L2193.31 199.812 L2193.31 199.395 Q2193.31 196.455 2191.37 194.858 Q2189.45 193.238 2185.95 193.238 Q2183.73 193.238 2181.62 193.77 Q2179.52 194.303 2177.57 195.367 L2177.57 191.432 Q2179.91 190.53 2182.11 190.09 Q2184.31 189.627 2186.39 189.627 Q2192.02 189.627 2194.79 192.543 Q2197.57 195.46 2197.57 201.386 Z" fill="#000000" fill-rule="nonzero" fill-opacity="1" /><path clip-path="url(#clip170)" d="M2210.56 182.891 L2210.56 190.252 L2219.33 190.252 L2219.33 193.562 L2210.56 193.562 L2210.56 207.636 Q2210.56 210.807 2211.42 211.71 Q2212.29 212.613 2214.96 212.613 L2219.33 212.613 L2219.33 216.178 L2214.96 216.178 Q2210.03 216.178 2208.15 214.349 Q2206.28 212.497 2206.28 207.636 L2206.28 193.562 L2203.15 193.562 L2203.15 190.252 L2206.28 190.252 L2206.28 182.891 L2210.56 182.891 Z" fill="#000000" fill-rule="nonzero" fill-opacity="1" /><path clip-path="url(#clip170)" d="M2236.72 203.145 Q2231.55 203.145 2229.56 204.326 Q2227.57 205.506 2227.57 208.354 Q2227.57 210.622 2229.05 211.965 Q2230.56 213.284 2233.13 213.284 Q2236.67 213.284 2238.8 210.784 Q2240.95 208.261 2240.95 204.094 L2240.95 203.145 L2236.72 203.145 M2245.21 201.386 L2245.21 216.178 L2240.95 216.178 L2240.95 212.242 Q2239.49 214.603 2237.32 215.738 Q2235.14 216.849 2231.99 216.849 Q2228.01 216.849 2225.65 214.627 Q2223.31 212.381 2223.31 208.631 Q2223.31 204.256 2226.23 202.034 Q2229.17 199.812 2234.98 199.812 L2240.95 199.812 L2240.95 199.395 Q2240.95 196.455 2239.01 194.858 Q2237.09 193.238 2233.59 193.238 Q2231.37 193.238 2229.26 193.77 Q2227.16 194.303 2225.21 195.367 L2225.21 191.432 Q2227.55 190.53 2229.75 190.09 Q2231.95 189.627 2234.03 189.627 Q2239.66 189.627 2242.43 192.543 Q2245.21 195.46 2245.21 201.386 Z" fill="#000000" fill-rule="nonzero" fill-opacity="1" /><polyline clip-path="url(#clip170)" style="stroke:#3da44d; stroke-linecap:round; stroke-linejoin:round; stroke-width:8; stroke-opacity:1; fill:none" points="1977.44,250.738 2121.36,250.738 "/>
<path clip-path="url(#clip170)" d="M2170.91 263.087 L2170.91 253.805 L2163.27 253.805 L2163.27 249.962 L2175.54 249.962 L2175.54 264.8 Q2172.83 266.721 2169.56 267.717 Q2166.3 268.689 2162.6 268.689 Q2154.49 268.689 2149.91 263.967 Q2145.35 259.221 2145.35 250.772 Q2145.35 242.3 2149.91 237.578 Q2154.49 232.833 2162.6 232.833 Q2165.98 232.833 2169.01 233.666 Q2172.06 234.499 2174.63 236.12 L2174.63 241.096 Q2172.04 238.897 2169.12 237.786 Q2166.21 236.675 2162.99 236.675 Q2156.65 236.675 2153.45 240.217 Q2150.28 243.758 2150.28 250.772 Q2150.28 257.763 2153.45 261.305 Q2156.65 264.846 2162.99 264.846 Q2165.47 264.846 2167.41 264.43 Q2169.36 263.99 2170.91 263.087 Z" fill="#000000" fill-rule="nonzero" fill-opacity="1" /><path clip-path="url(#clip170)" d="M2188.75 237.3 L2188.75 250.286 L2194.63 250.286 Q2197.9 250.286 2199.68 248.596 Q2201.46 246.907 2201.46 243.782 Q2201.46 240.68 2199.68 238.99 Q2197.9 237.3 2194.63 237.3 L2188.75 237.3 M2184.08 233.458 L2194.63 233.458 Q2200.44 233.458 2203.41 236.096 Q2206.39 238.712 2206.39 243.782 Q2206.39 248.897 2203.41 251.513 Q2200.44 254.129 2194.63 254.129 L2188.75 254.129 L2188.75 268.018 L2184.08 268.018 L2184.08 233.458 Z" fill="#000000" fill-rule="nonzero" fill-opacity="1" /><polyline clip-path="url(#clip170)" style="stroke:#c271d2; stroke-linecap:round; stroke-linejoin:round; stroke-width:12; stroke-opacity:1; fill:none" points="1977.44,302.578 2121.36,302.578 "/>
<path clip-path="url(#clip170)" d="M2150.03 289.14 L2150.03 302.126 L2155.91 302.126 Q2159.17 302.126 2160.95 300.436 Q2162.73 298.747 2162.73 295.622 Q2162.73 292.52 2160.95 290.83 Q2159.17 289.14 2155.91 289.14 L2150.03 289.14 M2145.35 285.298 L2155.91 285.298 Q2161.72 285.298 2164.68 287.936 Q2167.67 290.552 2167.67 295.622 Q2167.67 300.737 2164.68 303.353 Q2161.72 305.969 2155.91 305.969 L2150.03 305.969 L2150.03 319.858 L2145.35 319.858 L2145.35 285.298 Z" fill="#000000" fill-rule="nonzero" fill-opacity="1" /><path clip-path="url(#clip170)" d="M2178.38 315.922 L2194.7 315.922 L2194.7 319.858 L2172.76 319.858 L2172.76 315.922 Q2175.42 313.168 2180 308.538 Q2184.61 303.885 2185.79 302.543 Q2188.04 300.02 2188.92 298.284 Q2189.82 296.524 2189.82 294.835 Q2189.82 292.08 2187.87 290.344 Q2185.95 288.608 2182.85 288.608 Q2180.65 288.608 2178.2 289.372 Q2175.77 290.135 2172.99 291.686 L2172.99 286.964 Q2175.81 285.83 2178.27 285.251 Q2180.72 284.673 2182.76 284.673 Q2188.13 284.673 2191.32 287.358 Q2194.52 290.043 2194.52 294.534 Q2194.52 296.663 2193.71 298.585 Q2192.92 300.483 2190.81 303.075 Q2190.23 303.747 2187.13 306.964 Q2184.03 310.159 2178.38 315.922 Z" fill="#000000" fill-rule="nonzero" fill-opacity="1" /><path clip-path="url(#clip170)" d="M2204.56 285.298 L2222.92 285.298 L2222.92 289.233 L2208.85 289.233 L2208.85 297.705 Q2209.86 297.358 2210.88 297.196 Q2211.9 297.01 2212.92 297.01 Q2218.71 297.01 2222.09 300.182 Q2225.47 303.353 2225.47 308.77 Q2225.47 314.348 2221.99 317.45 Q2218.52 320.529 2212.2 320.529 Q2210.03 320.529 2207.76 320.158 Q2205.51 319.788 2203.1 319.047 L2203.1 314.348 Q2205.19 315.483 2207.41 316.038 Q2209.63 316.594 2212.11 316.594 Q2216.11 316.594 2218.45 314.487 Q2220.79 312.381 2220.79 308.77 Q2220.79 305.159 2218.45 303.052 Q2216.11 300.946 2212.11 300.946 Q2210.23 300.946 2208.36 301.362 Q2206.51 301.779 2204.56 302.659 L2204.56 285.298 Z" fill="#000000" fill-rule="nonzero" fill-opacity="1" /><polyline clip-path="url(#clip170)" style="stroke:#ac8d18; stroke-linecap:round; stroke-linejoin:round; stroke-width:12; stroke-opacity:1; fill:none" points="1977.44,354.418 2121.36,354.418 "/>
<path clip-path="url(#clip170)" d="M2150.03 340.98 L2150.03 353.966 L2155.91 353.966 Q2159.17 353.966 2160.95 352.276 Q2162.73 350.587 2162.73 347.462 Q2162.73 344.36 2160.95 342.67 Q2159.17 340.98 2155.91 340.98 L2150.03 340.98 M2145.35 337.138 L2155.91 337.138 Q2161.72 337.138 2164.68 339.776 Q2167.67 342.392 2167.67 347.462 Q2167.67 352.577 2164.68 355.193 Q2161.72 357.809 2155.91 357.809 L2150.03 357.809 L2150.03 371.698 L2145.35 371.698 L2145.35 337.138 Z" fill="#000000" fill-rule="nonzero" fill-opacity="1" /><path clip-path="url(#clip170)" d="M2173.17 337.138 L2195.4 337.138 L2195.4 339.128 L2182.85 371.698 L2177.97 371.698 L2189.77 341.073 L2173.17 341.073 L2173.17 337.138 Z" fill="#000000" fill-rule="nonzero" fill-opacity="1" /><path clip-path="url(#clip170)" d="M2204.56 337.138 L2222.92 337.138 L2222.92 341.073 L2208.85 341.073 L2208.85 349.545 Q2209.86 349.198 2210.88 349.036 Q2211.9 348.85 2212.92 348.85 Q2218.71 348.85 2222.09 352.022 Q2225.47 355.193 2225.47 360.61 Q2225.47 366.188 2221.99 369.29 Q2218.52 372.369 2212.2 372.369 Q2210.03 372.369 2207.76 371.998 Q2205.51 371.628 2203.1 370.887 L2203.1 366.188 Q2205.19 367.323 2207.41 367.878 Q2209.63 368.434 2212.11 368.434 Q2216.11 368.434 2218.45 366.327 Q2220.79 364.221 2220.79 360.61 Q2220.79 356.999 2218.45 354.892 Q2216.11 352.786 2212.11 352.786 Q2210.23 352.786 2208.36 353.202 Q2206.51 353.619 2204.56 354.499 L2204.56 337.138 Z" fill="#000000" fill-rule="nonzero" fill-opacity="1" /></svg>
