<?xml version="1.0" encoding="utf-8"?>
<svg xmlns="http://www.w3.org/2000/svg" xmlns:xlink="http://www.w3.org/1999/xlink" width="600" height="400" viewBox="0 0 2400 1600">
<defs>
  <clipPath id="clip110">
    <rect x="0" y="0" width="2400" height="1600"/>
  </clipPath>
</defs>
<path clip-path="url(#clip110)" d="M0 1600 L2400 1600 L2400 0 L0 0  Z" fill="#ffffff" fill-rule="evenodd" fill-opacity="1"/>
<defs>
  <clipPath id="clip111">
    <rect x="193" y="47" width="2160" height="1440"/>
  </clipPath>
</defs>
<path clip-path="url(#clip110)" d="M193.936 1486.45 L2352.76 1486.45 L2352.76 47.2441 L193.936 47.2441  Z" fill="#ffffff" fill-rule="evenodd" fill-opacity="1"/>
<polyline clip-path="url(#clip111)" style="stroke:#000000; stroke-linecap:round; stroke-linejoin:round; stroke-width:2; stroke-opacity:0.1; fill:none" points="255.035,1486.45 255.035,47.2441 "/>
<polyline clip-path="url(#clip111)" style="stroke:#000000; stroke-linecap:round; stroke-linejoin:round; stroke-width:2; stroke-opacity:0.1; fill:none" points="579.338,1486.45 579.338,47.2441 "/>
<polyline clip-path="url(#clip111)" style="stroke:#000000; stroke-linecap:round; stroke-linejoin:round; stroke-width:2; stroke-opacity:0.1; fill:none" points="903.641,1486.45 903.641,47.2441 "/>
<polyline clip-path="url(#clip111)" style="stroke:#000000; stroke-linecap:round; stroke-linejoin:round; stroke-width:2; stroke-opacity:0.1; fill:none" points="1227.94,1486.45 1227.94,47.2441 "/>
<polyline clip-path="url(#clip111)" style="stroke:#000000; stroke-linecap:round; stroke-linejoin:round; stroke-width:2; stroke-opacity:0.1; fill:none" points="1552.25,1486.45 1552.25,47.2441 "/>
<polyline clip-path="url(#clip111)" style="stroke:#000000; stroke-linecap:round; stroke-linejoin:round; stroke-width:2; stroke-opacity:0.1; fill:none" points="1876.55,1486.45 1876.55,47.2441 "/>
<polyline clip-path="url(#clip111)" style="stroke:#000000; stroke-linecap:round; stroke-linejoin:round; stroke-width:2; stroke-opacity:0.1; fill:none" points="2200.85,1486.45 2200.85,47.2441 "/>
<polyline clip-path="url(#clip111)" style="stroke:#000000; stroke-linecap:round; stroke-linejoin:round; stroke-width:2; stroke-opacity:0.1; fill:none" points="193.936,1324.88 2352.76,1324.88 "/>
<polyline clip-path="url(#clip111)" style="stroke:#000000; stroke-linecap:round; stroke-linejoin:round; stroke-width:2; stroke-opacity:0.1; fill:none" points="193.936,1037.17 2352.76,1037.17 "/>
<polyline clip-path="url(#clip111)" style="stroke:#000000; stroke-linecap:round; stroke-linejoin:round; stroke-width:2; stroke-opacity:0.1; fill:none" points="193.936,749.464 2352.76,749.464 "/>
<polyline clip-path="url(#clip111)" style="stroke:#000000; stroke-linecap:round; stroke-linejoin:round; stroke-width:2; stroke-opacity:0.1; fill:none" points="193.936,461.756 2352.76,461.756 "/>
<polyline clip-path="url(#clip111)" style="stroke:#000000; stroke-linecap:round; stroke-linejoin:round; stroke-width:2; stroke-opacity:0.1; fill:none" points="193.936,174.048 2352.76,174.048 "/>
<polyline clip-path="url(#clip110)" style="stroke:#000000; stroke-linecap:round; stroke-linejoin:round; stroke-width:4; stroke-opacity:1; fill:none" points="193.936,1486.45 2352.76,1486.45 "/>
<polyline clip-path="url(#clip110)" style="stroke:#000000; stroke-linecap:round; stroke-linejoin:round; stroke-width:4; stroke-opacity:1; fill:none" points="255.035,1486.45 255.035,1467.55 "/>
<polyline clip-path="url(#clip110)" style="stroke:#000000; stroke-linecap:round; stroke-linejoin:round; stroke-width:4; stroke-opacity:1; fill:none" points="579.338,1486.45 579.338,1467.55 "/>
<polyline clip-path="url(#clip110)" style="stroke:#000000; stroke-linecap:round; stroke-linejoin:round; stroke-width:4; stroke-opacity:1; fill:none" points="903.641,1486.45 903.641,1467.55 "/>
<polyline clip-path="url(#clip110)" style="stroke:#000000; stroke-linecap:round; stroke-linejoin:round; stroke-width:4; stroke-opacity:1; fill:none" points="1227.94,1486.45 1227.94,1467.55 "/>
<polyline clip-path="url(#clip110)" style="stroke:#000000; stroke-linecap:round; stroke-linejoin:round; stroke-width:4; stroke-opacity:1; fill:none" points="1552.25,1486.45 1552.25,1467.55 "/>
<polyline clip-path="url(#clip110)" style="stroke:#000000; stroke-linecap:round; stroke-linejoin:round; stroke-width:4; stroke-opacity:1; fill:none" points="1876.55,1486.45 1876.55,1467.55 "/>
<polyline clip-path="url(#clip110)" style="stroke:#000000; stroke-linecap:round; stroke-linejoin:round; stroke-width:4; stroke-opacity:1; fill:none" points="2200.85,1486.45 2200.85,1467.55 "/>
<path clip-path="url(#clip110)" d="M255.035 1517.37 Q251.424 1517.37 249.595 1520.93 Q247.789 1524.47 247.789 1531.6 Q247.789 1538.71 249.595 1542.27 Q251.424 1545.82 255.035 1545.82 Q258.669 1545.82 260.474 1542.27 Q262.303 1538.71 262.303 1531.6 Q262.303 1524.47 260.474 1520.93 Q258.669 1517.37 255.035 1517.37 M255.035 1513.66 Q260.845 1513.66 263.9 1518.27 Q266.979 1522.85 266.979 1531.6 Q266.979 1540.33 263.9 1544.94 Q260.845 1549.52 255.035 1549.52 Q249.225 1549.52 246.146 1544.94 Q243.09 1540.33 243.09 1531.6 Q243.09 1522.85 246.146 1518.27 Q249.225 1513.66 255.035 1513.66 Z" fill="#000000" fill-rule="nonzero" fill-opacity="1" /><path clip-path="url(#clip110)" d="M569.72 1544.91 L577.358 1544.91 L577.358 1518.55 L569.048 1520.21 L569.048 1515.95 L577.312 1514.29 L581.988 1514.29 L581.988 1544.91 L589.627 1544.91 L589.627 1548.85 L569.72 1548.85 L569.72 1544.91 Z" fill="#000000" fill-rule="nonzero" fill-opacity="1" /><path clip-path="url(#clip110)" d="M898.293 1544.91 L914.613 1544.91 L914.613 1548.85 L892.668 1548.85 L892.668 1544.91 Q895.33 1542.16 899.914 1537.53 Q904.52 1532.88 905.701 1531.53 Q907.946 1529.01 908.826 1527.27 Q909.729 1525.51 909.729 1523.82 Q909.729 1521.07 907.784 1519.33 Q905.863 1517.6 902.761 1517.6 Q900.562 1517.6 898.108 1518.36 Q895.678 1519.13 892.9 1520.68 L892.9 1515.95 Q895.724 1514.82 898.178 1514.24 Q900.631 1513.66 902.668 1513.66 Q908.039 1513.66 911.233 1516.35 Q914.428 1519.03 914.428 1523.52 Q914.428 1525.65 913.617 1527.57 Q912.83 1529.47 910.724 1532.07 Q910.145 1532.74 907.043 1535.95 Q903.942 1539.15 898.293 1544.91 Z" fill="#000000" fill-rule="nonzero" fill-opacity="1" /><path clip-path="url(#clip110)" d="M1232.19 1530.21 Q1235.55 1530.93 1237.42 1533.2 Q1239.32 1535.47 1239.32 1538.8 Q1239.32 1543.92 1235.8 1546.72 Q1232.28 1549.52 1225.8 1549.52 Q1223.63 1549.52 1221.31 1549.08 Q1219.02 1548.66 1216.57 1547.81 L1216.57 1543.29 Q1218.51 1544.43 1220.83 1545.01 Q1223.14 1545.58 1225.66 1545.58 Q1230.06 1545.58 1232.35 1543.85 Q1234.67 1542.11 1234.67 1538.8 Q1234.67 1535.75 1232.52 1534.03 Q1230.39 1532.3 1226.57 1532.3 L1222.54 1532.3 L1222.54 1528.45 L1226.75 1528.45 Q1230.2 1528.45 1232.03 1527.09 Q1233.86 1525.7 1233.86 1523.11 Q1233.86 1520.45 1231.96 1519.03 Q1230.08 1517.6 1226.57 1517.6 Q1224.64 1517.6 1222.45 1518.01 Q1220.25 1518.43 1217.61 1519.31 L1217.61 1515.14 Q1220.27 1514.4 1222.58 1514.03 Q1224.92 1513.66 1226.98 1513.66 Q1232.31 1513.66 1235.41 1516.09 Q1238.51 1518.5 1238.51 1522.62 Q1238.51 1525.49 1236.87 1527.48 Q1235.22 1529.45 1232.19 1530.21 Z" fill="#000000" fill-rule="nonzero" fill-opacity="1" /><path clip-path="url(#clip110)" d="M1555.26 1518.36 L1543.45 1536.81 L1555.26 1536.81 L1555.26 1518.36 M1554.03 1514.29 L1559.91 1514.29 L1559.91 1536.81 L1564.84 1536.81 L1564.84 1540.7 L1559.91 1540.7 L1559.91 1548.85 L1555.26 1548.85 L1555.26 1540.7 L1539.65 1540.7 L1539.65 1536.19 L1554.03 1514.29 Z" fill="#000000" fill-rule="nonzero" fill-opacity="1" /><path clip-path="url(#clip110)" d="M1866.83 1514.29 L1885.18 1514.29 L1885.18 1518.22 L1871.11 1518.22 L1871.11 1526.7 Q1872.13 1526.35 1873.15 1526.19 Q1874.17 1526 1875.18 1526 Q1880.97 1526 1884.35 1529.17 Q1887.73 1532.34 1887.73 1537.76 Q1887.73 1543.34 1884.26 1546.44 Q1880.79 1549.52 1874.47 1549.52 Q1872.29 1549.52 1870.02 1549.15 Q1867.78 1548.78 1865.37 1548.04 L1865.37 1543.34 Q1867.45 1544.47 1869.67 1545.03 Q1871.9 1545.58 1874.37 1545.58 Q1878.38 1545.58 1880.72 1543.48 Q1883.05 1541.37 1883.05 1537.76 Q1883.05 1534.15 1880.72 1532.04 Q1878.38 1529.94 1874.37 1529.94 Q1872.5 1529.94 1870.62 1530.35 Q1868.77 1530.77 1866.83 1531.65 L1866.83 1514.29 Z" fill="#000000" fill-rule="nonzero" fill-opacity="1" /><path clip-path="url(#clip110)" d="M2201.26 1529.7 Q2198.11 1529.7 2196.26 1531.86 Q2194.43 1534.01 2194.43 1537.76 Q2194.43 1541.49 2196.26 1543.66 Q2198.11 1545.82 2201.26 1545.82 Q2204.41 1545.82 2206.23 1543.66 Q2208.09 1541.49 2208.09 1537.76 Q2208.09 1534.01 2206.23 1531.86 Q2204.41 1529.7 2201.26 1529.7 M2210.54 1515.05 L2210.54 1519.31 Q2208.78 1518.48 2206.98 1518.04 Q2205.19 1517.6 2203.43 1517.6 Q2198.8 1517.6 2196.35 1520.72 Q2193.92 1523.85 2193.57 1530.17 Q2194.94 1528.15 2197 1527.09 Q2199.06 1526 2201.54 1526 Q2206.74 1526 2209.75 1529.17 Q2212.79 1532.32 2212.79 1537.76 Q2212.79 1543.08 2209.64 1546.3 Q2206.49 1549.52 2201.26 1549.52 Q2195.26 1549.52 2192.09 1544.94 Q2188.92 1540.33 2188.92 1531.6 Q2188.92 1523.41 2192.81 1518.55 Q2196.7 1513.66 2203.25 1513.66 Q2205.01 1513.66 2206.79 1514.01 Q2208.6 1514.36 2210.54 1515.05 Z" fill="#000000" fill-rule="nonzero" fill-opacity="1" /><polyline clip-path="url(#clip110)" style="stroke:#000000; stroke-linecap:round; stroke-linejoin:round; stroke-width:4; stroke-opacity:1; fill:none" points="193.936,1486.45 193.936,47.2441 "/>
<polyline clip-path="url(#clip110)" style="stroke:#000000; stroke-linecap:round; stroke-linejoin:round; stroke-width:4; stroke-opacity:1; fill:none" points="193.936,1324.88 212.834,1324.88 "/>
<polyline clip-path="url(#clip110)" style="stroke:#000000; stroke-linecap:round; stroke-linejoin:round; stroke-width:4; stroke-opacity:1; fill:none" points="193.936,1037.17 212.834,1037.17 "/>
<polyline clip-path="url(#clip110)" style="stroke:#000000; stroke-linecap:round; stroke-linejoin:round; stroke-width:4; stroke-opacity:1; fill:none" points="193.936,749.464 212.834,749.464 "/>
<polyline clip-path="url(#clip110)" style="stroke:#000000; stroke-linecap:round; stroke-linejoin:round; stroke-width:4; stroke-opacity:1; fill:none" points="193.936,461.756 212.834,461.756 "/>
<polyline clip-path="url(#clip110)" style="stroke:#000000; stroke-linecap:round; stroke-linejoin:round; stroke-width:4; stroke-opacity:1; fill:none" points="193.936,174.048 212.834,174.048 "/>
<path clip-path="url(#clip110)" d="M50.9921 1325.33 L80.6679 1325.33 L80.6679 1329.27 L50.9921 1329.27 L50.9921 1325.33 Z" fill="#000000" fill-rule="nonzero" fill-opacity="1" /><path clip-path="url(#clip110)" d="M91.5706 1338.22 L99.2095 1338.22 L99.2095 1311.86 L90.8993 1313.53 L90.8993 1309.27 L99.1632 1307.6 L103.839 1307.6 L103.839 1338.22 L111.478 1338.22 L111.478 1342.16 L91.5706 1342.16 L91.5706 1338.22 Z" fill="#000000" fill-rule="nonzero" fill-opacity="1" /><path clip-path="url(#clip110)" d="M120.922 1336.28 L125.807 1336.28 L125.807 1342.16 L120.922 1342.16 L120.922 1336.28 Z" fill="#000000" fill-rule="nonzero" fill-opacity="1" /><path clip-path="url(#clip110)" d="M145.992 1310.68 Q142.381 1310.68 140.552 1314.24 Q138.746 1317.78 138.746 1324.91 Q138.746 1332.02 140.552 1335.59 Q142.381 1339.13 145.992 1339.13 Q149.626 1339.13 151.431 1335.59 Q153.26 1332.02 153.26 1324.91 Q153.26 1317.78 151.431 1314.24 Q149.626 1310.68 145.992 1310.68 M145.992 1306.97 Q151.802 1306.97 154.857 1311.58 Q157.936 1316.16 157.936 1324.91 Q157.936 1333.64 154.857 1338.25 Q151.802 1342.83 145.992 1342.83 Q140.181 1342.83 137.103 1338.25 Q134.047 1333.64 134.047 1324.91 Q134.047 1316.16 137.103 1311.58 Q140.181 1306.97 145.992 1306.97 Z" fill="#000000" fill-rule="nonzero" fill-opacity="1" /><path clip-path="url(#clip110)" d="M51.9875 1037.62 L81.6633 1037.62 L81.6633 1041.56 L51.9875 1041.56 L51.9875 1037.62 Z" fill="#000000" fill-rule="nonzero" fill-opacity="1" /><path clip-path="url(#clip110)" d="M101.756 1022.97 Q98.1447 1022.97 96.316 1026.53 Q94.5104 1030.08 94.5104 1037.21 Q94.5104 1044.31 96.316 1047.88 Q98.1447 1051.42 101.756 1051.42 Q105.39 1051.42 107.196 1047.88 Q109.024 1044.31 109.024 1037.21 Q109.024 1030.08 107.196 1026.53 Q105.39 1022.97 101.756 1022.97 M101.756 1019.27 Q107.566 1019.27 110.621 1023.87 Q113.7 1028.46 113.7 1037.21 Q113.7 1045.93 110.621 1050.54 Q107.566 1055.12 101.756 1055.12 Q95.9456 1055.12 92.8669 1050.54 Q89.8114 1045.93 89.8114 1037.21 Q89.8114 1028.46 92.8669 1023.87 Q95.9456 1019.27 101.756 1019.27 Z" fill="#000000" fill-rule="nonzero" fill-opacity="1" /><path clip-path="url(#clip110)" d="M121.918 1048.57 L126.802 1048.57 L126.802 1054.45 L121.918 1054.45 L121.918 1048.57 Z" fill="#000000" fill-rule="nonzero" fill-opacity="1" /><path clip-path="url(#clip110)" d="M137.033 1019.89 L155.39 1019.89 L155.39 1023.83 L141.316 1023.83 L141.316 1032.3 Q142.334 1031.95 143.353 1031.79 Q144.371 1031.6 145.39 1031.6 Q151.177 1031.6 154.556 1034.78 Q157.936 1037.95 157.936 1043.36 Q157.936 1048.94 154.464 1052.04 Q150.992 1055.12 144.672 1055.12 Q142.496 1055.12 140.228 1054.75 Q137.982 1054.38 135.575 1053.64 L135.575 1048.94 Q137.658 1050.08 139.881 1050.63 Q142.103 1051.19 144.58 1051.19 Q148.584 1051.19 150.922 1049.08 Q153.26 1046.97 153.26 1043.36 Q153.26 1039.75 150.922 1037.65 Q148.584 1035.54 144.58 1035.54 Q142.705 1035.54 140.83 1035.96 Q138.978 1036.37 137.033 1037.25 L137.033 1019.89 Z" fill="#000000" fill-rule="nonzero" fill-opacity="1" /><path clip-path="url(#clip110)" d="M100.76 735.262 Q97.1493 735.262 95.3206 738.827 Q93.515 742.369 93.515 749.498 Q93.515 756.605 95.3206 760.17 Q97.1493 763.711 100.76 763.711 Q104.395 763.711 106.2 760.17 Q108.029 756.605 108.029 749.498 Q108.029 742.369 106.2 738.827 Q104.395 735.262 100.76 735.262 M100.76 731.559 Q106.571 731.559 109.626 736.165 Q112.705 740.748 112.705 749.498 Q112.705 758.225 109.626 762.832 Q106.571 767.415 100.76 767.415 Q94.9502 767.415 91.8715 762.832 Q88.816 758.225 88.816 749.498 Q88.816 740.748 91.8715 736.165 Q94.9502 731.559 100.76 731.559 Z" fill="#000000" fill-rule="nonzero" fill-opacity="1" /><path clip-path="url(#clip110)" d="M120.922 760.864 L125.807 760.864 L125.807 766.744 L120.922 766.744 L120.922 760.864 Z" fill="#000000" fill-rule="nonzero" fill-opacity="1" /><path clip-path="url(#clip110)" d="M145.992 735.262 Q142.381 735.262 140.552 738.827 Q138.746 742.369 138.746 749.498 Q138.746 756.605 140.552 760.17 Q142.381 763.711 145.992 763.711 Q149.626 763.711 151.431 760.17 Q153.26 756.605 153.26 749.498 Q153.26 742.369 151.431 738.827 Q149.626 735.262 145.992 735.262 M145.992 731.559 Q151.802 731.559 154.857 736.165 Q157.936 740.748 157.936 749.498 Q157.936 758.225 154.857 762.832 Q151.802 767.415 145.992 767.415 Q140.181 767.415 137.103 762.832 Q134.047 758.225 134.047 749.498 Q134.047 740.748 137.103 736.165 Q140.181 731.559 145.992 731.559 Z" fill="#000000" fill-rule="nonzero" fill-opacity="1" /><path clip-path="url(#clip110)" d="M101.756 447.554 Q98.1447 447.554 96.316 451.119 Q94.5104 454.661 94.5104 461.79 Q94.5104 468.897 96.316 472.462 Q98.1447 476.003 101.756 476.003 Q105.39 476.003 107.196 472.462 Q109.024 468.897 109.024 461.79 Q109.024 454.661 107.196 451.119 Q105.39 447.554 101.756 447.554 M101.756 443.851 Q107.566 443.851 110.621 448.457 Q113.7 453.04 113.7 461.79 Q113.7 470.517 110.621 475.124 Q107.566 479.707 101.756 479.707 Q95.9456 479.707 92.8669 475.124 Q89.8114 470.517 89.8114 461.79 Q89.8114 453.04 92.8669 448.457 Q95.9456 443.851 101.756 443.851 Z" fill="#000000" fill-rule="nonzero" fill-opacity="1" /><path clip-path="url(#clip110)" d="M121.918 473.156 L126.802 473.156 L126.802 479.036 L121.918 479.036 L121.918 473.156 Z" fill="#000000" fill-rule="nonzero" fill-opacity="1" /><path clip-path="url(#clip110)" d="M137.033 444.476 L155.39 444.476 L155.39 448.411 L141.316 448.411 L141.316 456.883 Q142.334 456.536 143.353 456.374 Q144.371 456.189 145.39 456.189 Q151.177 456.189 154.556 459.36 Q157.936 462.531 157.936 467.948 Q157.936 473.526 154.464 476.628 Q150.992 479.707 144.672 479.707 Q142.496 479.707 140.228 479.337 Q137.982 478.966 135.575 478.226 L135.575 473.526 Q137.658 474.661 139.881 475.216 Q142.103 475.772 144.58 475.772 Q148.584 475.772 150.922 473.665 Q153.26 471.559 153.26 467.948 Q153.26 464.337 150.922 462.23 Q148.584 460.124 144.58 460.124 Q142.705 460.124 140.83 460.54 Q138.978 460.957 137.033 461.837 L137.033 444.476 Z" fill="#000000" fill-rule="nonzero" fill-opacity="1" /><path clip-path="url(#clip110)" d="M91.5706 187.393 L99.2095 187.393 L99.2095 161.027 L90.8993 162.694 L90.8993 158.434 L99.1632 156.768 L103.839 156.768 L103.839 187.393 L111.478 187.393 L111.478 191.328 L91.5706 191.328 L91.5706 187.393 Z" fill="#000000" fill-rule="nonzero" fill-opacity="1" /><path clip-path="url(#clip110)" d="M120.922 185.448 L125.807 185.448 L125.807 191.328 L120.922 191.328 L120.922 185.448 Z" fill="#000000" fill-rule="nonzero" fill-opacity="1" /><path clip-path="url(#clip110)" d="M145.992 159.847 Q142.381 159.847 140.552 163.411 Q138.746 166.953 138.746 174.083 Q138.746 181.189 140.552 184.754 Q142.381 188.295 145.992 188.295 Q149.626 188.295 151.431 184.754 Q153.26 181.189 153.26 174.083 Q153.26 166.953 151.431 163.411 Q149.626 159.847 145.992 159.847 M145.992 156.143 Q151.802 156.143 154.857 160.749 Q157.936 165.333 157.936 174.083 Q157.936 182.809 154.857 187.416 Q151.802 191.999 145.992 191.999 Q140.181 191.999 137.103 187.416 Q134.047 182.809 134.047 174.083 Q134.047 165.333 137.103 160.749 Q140.181 156.143 145.992 156.143 Z" fill="#000000" fill-rule="nonzero" fill-opacity="1" /><polyline clip-path="url(#clip111)" style="stroke:#009af9; stroke-linecap:round; stroke-linejoin:round; stroke-width:4; stroke-opacity:1; fill:none" points="255.035,749.464 258.278,743.71 261.521,737.956 264.764,732.204 268.007,726.453 271.25,720.705 274.493,714.959 277.736,709.217 280.979,703.479 284.222,697.746 287.465,692.018 290.708,686.295 293.951,680.579 297.194,674.87 300.437,669.168 303.68,663.475 306.923,657.789 310.166,652.113 313.409,646.447 316.652,640.791 319.895,635.146 323.138,629.512 326.381,623.891 329.624,618.282 332.867,612.686 336.11,607.103 339.353,601.535 342.596,595.982 345.84,590.444 349.083,584.922 352.326,579.417 355.569,573.928 358.812,568.457 362.055,563.004 365.298,557.57 368.541,552.155 371.784,546.759 375.027,541.384 378.27,536.03 381.513,530.697 384.756,525.386 387.999,520.097 391.242,514.832 394.485,509.59 397.728,504.371 400.971,499.178 404.214,494.009 407.457,488.866 410.7,483.749 413.943,478.658 417.186,473.595 420.429,468.559 423.672,463.551 426.915,458.572 430.158,453.622 433.401,448.701 436.644,443.811 439.887,438.951 443.13,434.122 446.373,429.325 449.616,424.559 452.859,419.827 456.103,415.127 459.346,410.46 462.589,405.828 465.832,401.23 469.075,396.666 472.318,392.138 475.561,387.646 478.804,383.19 482.047,378.771 485.29,374.388 488.533,370.043 491.776,365.736 495.019,361.468 498.262,357.238 501.505,353.047 504.748,348.896 507.991,344.786 511.234,340.715 514.477,336.686 517.72,332.697 520.963,328.751 524.206,324.846 527.449,320.984 530.692,317.165 533.935,313.389 537.178,309.657 540.421,305.968 543.664,302.324 546.907,298.725 550.15,295.171 553.393,291.662 556.636,288.199 559.879,284.782 563.122,281.411 566.366,278.088 569.609,274.811 572.852,271.582 576.095,268.401 579.338,265.268 582.581,262.183 585.824,259.147 589.067,256.16 592.31,253.223 595.553,250.335 598.796,247.496 602.039,244.709 605.282,241.971 608.525,239.284 611.768,236.649 615.011,234.064 618.254,231.532 621.497,229.051 624.74,226.622 627.983,224.245 631.226,221.921 634.469,219.649 637.712,217.431 640.955,215.265 644.198,213.154 647.441,211.095 650.684,209.091 653.927,207.141 657.17,205.245 660.413,203.403 663.656,201.616 666.899,199.884 670.142,198.206 673.385,196.584 676.629,195.017 679.872,193.506 683.115,192.05 686.358,190.65 689.601,189.305 692.844,188.017 696.087,186.785 699.33,185.609 702.573,184.49 705.816,183.427 709.059,182.42 712.302,181.471 715.545,180.578 718.788,179.742 722.031,178.963 725.274,178.241 728.517,177.576 731.76,176.968 735.003,176.418 738.246,175.925 741.489,175.489 744.732,175.111 747.975,174.79 751.218,174.527 754.461,174.321 757.704,174.172 760.947,174.081 764.19,174.048 767.433,174.072 770.676,174.154 773.919,174.293 777.162,174.49 780.405,174.744 783.648,175.056 786.892,175.425 790.135,175.852 793.378,176.336 796.621,176.877 799.864,177.475 803.107,178.131 806.35,178.844 809.593,179.614 812.836,180.441 816.079,181.325 819.322,182.265 822.565,183.263 825.808,184.317 829.051,185.427 832.294,186.594 835.537,187.817 838.78,189.096 842.023,190.432 845.266,191.823 848.509,193.27 851.752,194.773 854.995,196.331 858.238,197.944 861.481,199.613 864.724,201.336 867.967,203.115 871.21,204.948 874.453,206.835 877.696,208.777 880.939,210.773 884.182,212.822 887.425,214.926 890.668,217.082 893.911,219.292 897.155,221.555 900.398,223.871 903.641,226.24 906.884,228.66 910.127,231.133 913.37,233.658 916.613,236.234 919.856,238.861 923.099,241.54 926.342,244.269 929.585,247.049 932.828,249.879 936.071,252.759 939.314,255.689 942.557,258.668 945.8,261.696 949.043,264.773 952.286,267.899 955.529,271.072 958.772,274.294 962.015,277.563 965.258,280.879 968.501,284.242 971.744,287.652 974.987,291.107 978.23,294.609 981.473,298.156 984.716,301.748 987.959,305.385 991.202,309.066 994.445,312.792 997.688,316.561 1000.93,320.373 1004.17,324.228 1007.42,328.126 1010.66,332.066 1013.9,336.048 1017.15,340.071 1020.39,344.135 1023.63,348.239 1026.88,352.384 1030.12,356.568 1033.36,360.791 1036.6,365.054 1039.85,369.355 1043.09,373.694 1046.33,378.07 1049.58,382.484 1052.82,386.934 1056.06,391.421 1059.31,395.943 1062.55,400.501 1065.79,405.093 1069.04,409.72 1072.28,414.381 1075.52,419.076 1078.76,423.803 1082.01,428.564 1085.25,433.356 1088.49,438.18 1091.74,443.035 1094.98,447.92 1098.22,452.836 1101.47,457.781 1104.71,462.756 1107.95,467.759 1111.19,472.791 1114.44,477.85 1117.68,482.936 1120.92,488.049 1124.17,493.188 1127.41,498.353 1130.65,503.542 1133.9,508.757 1137.14,513.995 1140.38,519.257 1143.62,524.542 1146.87,529.85 1150.11,535.179 1153.35,540.53 1156.6,545.902 1159.84,551.294 1163.08,556.706 1166.33,562.137 1169.57,567.587 1172.81,573.055 1176.06,578.541 1179.3,584.044 1182.54,589.564 1185.78,595.099 1189.03,600.65 1192.27,606.216 1195.51,611.796 1198.76,617.39 1202,622.997 1205.24,628.616 1208.49,634.248 1211.73,639.891 1214.97,645.546 1218.21,651.21 1221.46,656.885 1224.7,662.568 1227.94,668.261 1231.19,673.961 1234.43,679.67 1237.67,685.385 1240.92,691.106 1244.16,696.833 1247.4,702.566 1250.64,708.303 1253.89,714.045 1257.13,719.79 1260.37,725.537 1263.62,731.288 1266.86,737.04 1270.1,742.793 1273.35,748.547 1276.59,754.301 1279.83,760.055 1283.08,765.807 1286.32,771.558 1289.56,777.307 1292.8,783.053 1296.05,788.796 1299.29,794.534 1302.53,800.268 1305.78,805.997 1309.02,811.721 1312.26,817.438 1315.51,823.148 1318.75,828.851 1321.99,834.546 1325.23,840.233 1328.48,845.91 1331.72,851.578 1334.96,857.236 1338.21,862.883 1341.45,868.518 1344.69,874.142 1347.94,879.753 1351.18,885.351 1354.42,890.936 1357.66,896.506 1360.91,902.062 1364.15,907.602 1367.39,913.127 1370.64,918.635 1373.88,924.126 1377.12,929.6 1380.37,935.056 1383.61,940.493 1386.85,945.911 1390.1,951.31 1393.34,956.688 1396.58,962.046 1399.82,967.382 1403.07,972.697 1406.31,977.989 1409.55,983.258 1412.8,988.504 1416.04,993.726 1419.28,998.924 1422.53,1004.1 1425.77,1009.24 1429.01,1014.37 1432.25,1019.46 1435.5,1024.53 1438.74,1029.57 1441.98,1034.58 1445.23,1039.56 1448.47,1044.52 1451.71,1049.44 1454.96,1054.34 1458.2,1059.2 1461.44,1064.04 1464.68,1068.84 1467.93,1073.61 1471.17,1078.35 1474.41,1083.05 1477.66,1087.73 1480.9,1092.36 1484.14,1096.97 1487.39,1101.54 1490.63,1106.07 1493.87,1110.57 1497.11,1115.03 1500.36,1119.46 1503.6,1123.84 1506.84,1128.19 1510.09,1132.51 1513.33,1136.78 1516.57,1141.02 1519.82,1145.22 1523.06,1149.37 1526.3,1153.49 1529.55,1157.57 1532.79,1161.6 1536.03,1165.6 1539.27,1169.55 1542.52,1173.46 1545.76,1177.33 1549,1181.16 1552.25,1184.94 1555.49,1188.68 1558.73,1192.37 1561.98,1196.03 1565.22,1199.63 1568.46,1203.19 1571.7,1206.71 1574.95,1210.18 1578.19,1213.6 1581.43,1216.98 1584.68,1220.31 1587.92,1223.6 1591.16,1226.83 1594.41,1230.02 1597.65,1233.16 1600.89,1236.26 1604.13,1239.3 1607.38,1242.29 1610.62,1245.24 1613.86,1248.14 1617.11,1250.98 1620.35,1253.78 1623.59,1256.52 1626.84,1259.22 1630.08,1261.86 1633.32,1264.45 1636.57,1267 1639.81,1269.48 1643.05,1271.92 1646.29,1274.31 1649.54,1276.64 1652.78,1278.92 1656.02,1281.15 1659.27,1283.32 1662.51,1285.44 1665.75,1287.51 1669,1289.52 1672.24,1291.48 1675.48,1293.38 1678.72,1295.23 1681.97,1297.03 1685.21,1298.77 1688.45,1300.46 1691.7,1302.09 1694.94,1303.66 1698.18,1305.18 1701.43,1306.65 1704.67,1308.06 1707.91,1309.41 1711.15,1310.71 1714.4,1311.95 1717.64,1313.13 1720.88,1314.26 1724.13,1315.33 1727.37,1316.35 1730.61,1317.31 1733.86,1318.21 1737.1,1319.06 1740.34,1319.84 1743.59,1320.58 1746.83,1321.25 1750.07,1321.87 1753.31,1322.43 1756.56,1322.93 1759.8,1323.37 1763.04,1323.76 1766.29,1324.09 1769.53,1324.36 1772.77,1324.58 1776.02,1324.74 1779.26,1324.84 1782.5,1324.88 1785.74,1324.86 1788.99,1324.79 1792.23,1324.66 1795.47,1324.47 1798.72,1324.23 1801.96,1323.92 1805.2,1323.56 1808.45,1323.15 1811.69,1322.67 1814.93,1322.14 1818.17,1321.55 1821.42,1320.9 1824.66,1320.2 1827.9,1319.44 1831.15,1318.62 1834.39,1317.75 1837.63,1316.82 1840.88,1315.83 1844.12,1314.78 1847.36,1313.68 1850.61,1312.52 1853.85,1311.31 1857.09,1310.04 1860.33,1308.71 1863.58,1307.33 1866.82,1305.89 1870.06,1304.4 1873.31,1302.85 1876.55,1301.24 1879.79,1299.58 1883.04,1297.87 1886.28,1296.1 1889.52,1294.28 1892.76,1292.4 1896.01,1290.46 1899.25,1288.48 1902.49,1286.43 1905.74,1284.34 1908.98,1282.19 1912.22,1279.99 1915.47,1277.74 1918.71,1275.43 1921.95,1273.07 1925.19,1270.66 1928.44,1268.19 1931.68,1265.68 1934.92,1263.11 1938.17,1260.49 1941.41,1257.82 1944.65,1255.1 1947.9,1252.32 1951.14,1249.5 1954.38,1246.63 1957.63,1243.71 1960.87,1240.74 1964.11,1237.72 1967.35,1234.65 1970.6,1231.53 1973.84,1228.36 1977.08,1225.15 1980.33,1221.89 1983.57,1218.58 1986.81,1215.22 1990.06,1211.82 1993.3,1208.37 1996.54,1204.88 1999.78,1201.34 2003.03,1197.75 2006.27,1194.12 2009.51,1190.45 2012.76,1186.73 2016,1182.97 2019.24,1179.16 2022.49,1175.32 2025.73,1171.42 2028.97,1167.49 2032.21,1163.52 2035.46,1159.5 2038.7,1155.44 2041.94,1151.34 2045.19,1147.21 2048.43,1143.03 2051.67,1138.81 2054.92,1134.55 2058.16,1130.26 2061.4,1125.93 2064.65,1121.56 2067.89,1117.15 2071.13,1112.7 2074.37,1108.22 2077.62,1103.71 2080.86,1099.15 2084.1,1094.57 2087.35,1089.95 2090.59,1085.29 2093.83,1080.6 2097.08,1075.88 2100.32,1071.12 2103.56,1066.34 2106.8,1061.52 2110.05,1056.67 2113.29,1051.79 2116.53,1046.88 2119.78,1041.94 2123.02,1036.97 2126.26,1031.97 2129.51,1026.94 2132.75,1021.88 2135.99,1016.8 2139.23,1011.69 2142.48,1006.56 2145.72,1001.4 2148.96,996.213 2152.21,991.002 2155.45,985.768 2158.69,980.509 2161.94,975.228 2165.18,969.924 2168.42,964.598 2171.67,959.251 2174.91,953.882 2178.15,948.493 2181.39,943.084 2184.64,937.656 2187.88,932.209 2191.12,926.744 2194.37,921.261 2197.61,915.76 2200.85,910.244 2204.1,904.711 2207.34,899.162 2210.58,893.599 2213.82,888.021 2217.07,882.429 2220.31,876.824 2223.55,871.207 2226.8,865.577 2230.04,859.935 2233.28,854.283 2236.53,848.62 2239.77,842.947 2243.01,837.264 2246.25,831.573 2249.5,825.874 2252.74,820.167 2255.98,814.453 2259.23,808.733 2262.47,803.006 2265.71,797.275 2268.96,791.538 2272.2,785.797 2275.44,780.053 2278.69,774.305 2281.93,768.555 2285.17,762.804 2288.41,757.05 2291.66,751.296 "/>
<circle clip-path="url(#clip111)" cx="1870.06" cy="1412.02" r="14.4" fill="#e26f46" fill-rule="evenodd" fill-opacity="1" stroke="#000000" stroke-opacity="1" stroke-width="3.2"/>
<circle clip-path="url(#clip111)" cx="1341.45" cy="800.936" r="14.4" fill="#e26f46" fill-rule="evenodd" fill-opacity="1" stroke="#000000" stroke-opacity="1" stroke-width="3.2"/>
<circle clip-path="url(#clip111)" cx="410.7" cy="601.82" r="14.4" fill="#e26f46" fill-rule="evenodd" fill-opacity="1" stroke="#000000" stroke-opacity="1" stroke-width="3.2"/>
<circle clip-path="url(#clip111)" cx="1292.8" cy="765.143" r="14.4" fill="#e26f46" fill-rule="evenodd" fill-opacity="1" stroke="#000000" stroke-opacity="1" stroke-width="3.2"/>
<circle clip-path="url(#clip111)" cx="566.366" cy="194.004" r="14.4" fill="#e26f46" fill-rule="evenodd" fill-opacity="1" stroke="#000000" stroke-opacity="1" stroke-width="3.2"/>
<circle clip-path="url(#clip111)" cx="362.055" cy="471.97" r="14.4" fill="#e26f46" fill-rule="evenodd" fill-opacity="1" stroke="#000000" stroke-opacity="1" stroke-width="3.2"/>
<circle clip-path="url(#clip111)" cx="1951.14" cy="1302.48" r="14.4" fill="#e26f46" fill-rule="evenodd" fill-opacity="1" stroke="#000000" stroke-opacity="1" stroke-width="3.2"/>
<circle clip-path="url(#clip111)" cx="1257.13" cy="659.519" r="14.4" fill="#e26f46" fill-rule="evenodd" fill-opacity="1" stroke="#000000" stroke-opacity="1" stroke-width="3.2"/>
<circle clip-path="url(#clip111)" cx="897.155" cy="197.357" r="14.4" fill="#e26f46" fill-rule="evenodd" fill-opacity="1" stroke="#000000" stroke-opacity="1" stroke-width="3.2"/>
<circle clip-path="url(#clip111)" cx="1107.95" cy="474.571" r="14.4" fill="#e26f46" fill-rule="evenodd" fill-opacity="1" stroke="#000000" stroke-opacity="1" stroke-width="3.2"/>
<circle clip-path="url(#clip111)" cx="1746.83" cy="1445.72" r="14.4" fill="#e26f46" fill-rule="evenodd" fill-opacity="1" stroke="#000000" stroke-opacity="1" stroke-width="3.2"/>
<circle clip-path="url(#clip111)" cx="2281.93" cy="671.482" r="14.4" fill="#e26f46" fill-rule="evenodd" fill-opacity="1" stroke="#000000" stroke-opacity="1" stroke-width="3.2"/>
<circle clip-path="url(#clip111)" cx="1441.98" cy="912.358" r="14.4" fill="#e26f46" fill-rule="evenodd" fill-opacity="1" stroke="#000000" stroke-opacity="1" stroke-width="3.2"/>
<circle clip-path="url(#clip111)" cx="2035.46" cy="1099.66" r="14.4" fill="#e26f46" fill-rule="evenodd" fill-opacity="1" stroke="#000000" stroke-opacity="1" stroke-width="3.2"/>
<circle clip-path="url(#clip111)" cx="1169.57" cy="648.425" r="14.4" fill="#e26f46" fill-rule="evenodd" fill-opacity="1" stroke="#000000" stroke-opacity="1" stroke-width="3.2"/>
<circle clip-path="url(#clip111)" cx="1205.24" cy="548.659" r="14.4" fill="#e26f46" fill-rule="evenodd" fill-opacity="1" stroke="#000000" stroke-opacity="1" stroke-width="3.2"/>
<circle clip-path="url(#clip111)" cx="1516.57" cy="1011.23" r="14.4" fill="#e26f46" fill-rule="evenodd" fill-opacity="1" stroke="#000000" stroke-opacity="1" stroke-width="3.2"/>
<circle clip-path="url(#clip111)" cx="2148.96" cy="1072.66" r="14.4" fill="#e26f46" fill-rule="evenodd" fill-opacity="1" stroke="#000000" stroke-opacity="1" stroke-width="3.2"/>
<circle clip-path="url(#clip111)" cx="264.764" cy="793.745" r="14.4" fill="#e26f46" fill-rule="evenodd" fill-opacity="1" stroke="#000000" stroke-opacity="1" stroke-width="3.2"/>
<circle clip-path="url(#clip111)" cx="906.884" cy="87.9763" r="14.4" fill="#e26f46" fill-rule="evenodd" fill-opacity="1" stroke="#000000" stroke-opacity="1" stroke-width="3.2"/>
<path clip-path="url(#clip110)" d="M1953.46 250.738 L2280.8 250.738 L2280.8 95.2176 L1953.46 95.2176  Z" fill="#ffffff" fill-rule="evenodd" fill-opacity="1"/>
<polyline clip-path="url(#clip110)" style="stroke:#000000; stroke-linecap:round; stroke-linejoin:round; stroke-width:4; stroke-opacity:1; fill:none" points="1953.46,250.738 2280.8,250.738 2280.8,95.2176 1953.46,95.2176 1953.46,250.738 "/>
<polyline clip-path="url(#clip110)" style="stroke:#009af9; stroke-linecap:round; stroke-linejoin:round; stroke-width:4; stroke-opacity:1; fill:none" points="1977.44,147.058 2121.36,147.058 "/>
<path clip-path="url(#clip110)" d="M2152.76 131.051 L2152.76 138.412 L2161.53 138.412 L2161.53 141.722 L2152.76 141.722 L2152.76 155.796 Q2152.76 158.967 2153.61 159.87 Q2154.49 160.773 2157.16 160.773 L2161.53 160.773 L2161.53 164.338 L2157.16 164.338 Q2152.23 164.338 2150.35 162.509 Q2148.48 160.657 2148.48 155.796 L2148.48 141.722 L2145.35 141.722 L2145.35 138.412 L2148.48 138.412 L2148.48 131.051 L2152.76 131.051 Z" fill="#000000" fill-rule="nonzero" fill-opacity="1" /><path clip-path="url(#clip110)" d="M2182.16 142.393 Q2181.44 141.977 2180.58 141.791 Q2179.75 141.583 2178.73 141.583 Q2175.12 141.583 2173.17 143.944 Q2171.25 146.282 2171.25 150.68 L2171.25 164.338 L2166.97 164.338 L2166.97 138.412 L2171.25 138.412 L2171.25 142.44 Q2172.6 140.078 2174.75 138.944 Q2176.9 137.787 2179.98 137.787 Q2180.42 137.787 2180.95 137.856 Q2181.48 137.903 2182.13 138.018 L2182.16 142.393 Z" fill="#000000" fill-rule="nonzero" fill-opacity="1" /><path clip-path="url(#clip110)" d="M2186.18 154.106 L2186.18 138.412 L2190.44 138.412 L2190.44 153.944 Q2190.44 157.625 2191.88 159.476 Q2193.31 161.305 2196.18 161.305 Q2199.63 161.305 2201.62 159.106 Q2203.64 156.907 2203.64 153.111 L2203.64 138.412 L2207.9 138.412 L2207.9 164.338 L2203.64 164.338 L2203.64 160.356 Q2202.09 162.717 2200.03 163.875 Q2197.99 165.009 2195.28 165.009 Q2190.81 165.009 2188.5 162.231 Q2186.18 159.453 2186.18 154.106 M2196.9 137.787 L2196.9 137.787 Z" fill="#000000" fill-rule="nonzero" fill-opacity="1" /><path clip-path="url(#clip110)" d="M2220.88 131.051 L2220.88 138.412 L2229.66 138.412 L2229.66 141.722 L2220.88 141.722 L2220.88 155.796 Q2220.88 158.967 2221.74 159.87 Q2222.62 160.773 2225.28 160.773 L2229.66 160.773 L2229.66 164.338 L2225.28 164.338 Q2220.35 164.338 2218.48 162.509 Q2216.6 160.657 2216.6 155.796 L2216.6 141.722 L2213.48 141.722 L2213.48 138.412 L2216.6 138.412 L2216.6 131.051 L2220.88 131.051 Z" fill="#000000" fill-rule="nonzero" fill-opacity="1" /><path clip-path="url(#clip110)" d="M2256.81 148.689 L2256.81 164.338 L2252.55 164.338 L2252.55 148.828 Q2252.55 145.148 2251.11 143.319 Q2249.68 141.49 2246.81 141.49 Q2243.36 141.49 2241.37 143.69 Q2239.38 145.889 2239.38 149.685 L2239.38 164.338 L2235.1 164.338 L2235.1 128.319 L2239.38 128.319 L2239.38 142.44 Q2240.91 140.102 2242.97 138.944 Q2245.05 137.787 2247.76 137.787 Q2252.23 137.787 2254.52 140.565 Q2256.81 143.319 2256.81 148.689 Z" fill="#000000" fill-rule="nonzero" fill-opacity="1" /><circle clip-path="url(#clip110)" cx="2049.4" cy="198.898" r="20.48" fill="#e26f46" fill-rule="evenodd" fill-opacity="1" stroke="#000000" stroke-opacity="1" stroke-width="4.55111"/>
<path clip-path="url(#clip110)" d="M2164.26 194.187 L2164.26 180.159 L2168.52 180.159 L2168.52 216.178 L2164.26 216.178 L2164.26 212.289 Q2162.92 214.603 2160.86 215.738 Q2158.82 216.849 2155.95 216.849 Q2151.25 216.849 2148.29 213.099 Q2145.35 209.349 2145.35 203.238 Q2145.35 197.127 2148.29 193.377 Q2151.25 189.627 2155.95 189.627 Q2158.82 189.627 2160.86 190.761 Q2162.92 191.872 2164.26 194.187 M2149.75 203.238 Q2149.75 207.937 2151.67 210.622 Q2153.61 213.284 2156.99 213.284 Q2160.37 213.284 2162.32 210.622 Q2164.26 207.937 2164.26 203.238 Q2164.26 198.539 2162.32 195.877 Q2160.37 193.192 2156.99 193.192 Q2153.61 193.192 2151.67 195.877 Q2149.75 198.539 2149.75 203.238 Z" fill="#000000" fill-rule="nonzero" fill-opacity="1" /><path clip-path="url(#clip110)" d="M2189.08 203.145 Q2183.92 203.145 2181.92 204.326 Q2179.93 205.506 2179.93 208.354 Q2179.93 210.622 2181.42 211.965 Q2182.92 213.284 2185.49 213.284 Q2189.03 213.284 2191.16 210.784 Q2193.31 208.261 2193.31 204.094 L2193.31 203.145 L2189.08 203.145 M2197.57 201.386 L2197.57 216.178 L2193.31 216.178 L2193.31 212.242 Q2191.85 214.603 2189.68 215.738 Q2187.5 216.849 2184.36 216.849 Q2180.37 216.849 2178.01 214.627 Q2175.67 212.381 2175.67 208.631 Q2175.67 204.256 2178.59 202.034 Q2181.53 199.812 2187.34 199.812 L2193.31 199.812 L2193.31 199.395 Q2193.31 196.455 2191.37 194.858 Q2189.45 193.238 2185.95 193.238 Q2183.73 193.238 2181.62 193.77 Q2179.52 194.303 2177.57 195.367 L2177.57 191.432 Q2179.91 190.53 2182.11 190.09 Q2184.31 189.627 2186.39 189.627 Q2192.02 189.627 2194.79 192.543 Q2197.57 195.46 2197.57 201.386 Z" fill="#000000" fill-rule="nonzero" fill-opacity="1" /><path clip-path="url(#clip110)" d="M2210.56 182.891 L2210.56 190.252 L2219.33 190.252 L2219.33 193.562 L2210.56 193.562 L2210.56 207.636 Q2210.56 210.807 2211.42 211.71 Q2212.29 212.613 2214.96 212.613 L2219.33 212.613 L2219.33 216.178 L2214.96 216.178 Q2210.03 216.178 2208.15 214.349 Q2206.28 212.497 2206.28 207.636 L2206.28 193.562 L2203.15 193.562 L2203.15 190.252 L2206.28 190.252 L2206.28 182.891 L2210.56 182.891 Z" fill="#000000" fill-rule="nonzero" fill-opacity="1" /><path clip-path="url(#clip110)" d="M2236.72 203.145 Q2231.55 203.145 2229.56 204.326 Q2227.57 205.506 2227.57 208.354 Q2227.57 210.622 2229.05 211.965 Q2230.56 213.284 2233.13 213.284 Q2236.67 213.284 2238.8 210.784 Q2240.95 208.261 2240.95 204.094 L2240.95 203.145 L2236.72 203.145 M2245.21 201.386 L2245.21 216.178 L2240.95 216.178 L2240.95 212.242 Q2239.49 214.603 2237.32 215.738 Q2235.14 216.849 2231.99 216.849 Q2228.01 216.849 2225.65 214.627 Q2223.31 212.381 2223.31 208.631 Q2223.31 204.256 2226.23 202.034 Q2229.17 199.812 2234.98 199.812 L2240.95 199.812 L2240.95 199.395 Q2240.95 196.455 2239.01 194.858 Q2237.09 193.238 2233.59 193.238 Q2231.37 193.238 2229.26 193.77 Q2227.16 194.303 2225.21 195.367 L2225.21 191.432 Q2227.55 190.53 2229.75 190.09 Q2231.95 189.627 2234.03 189.627 Q2239.66 189.627 2242.43 192.543 Q2245.21 195.46 2245.21 201.386 Z" fill="#000000" fill-rule="nonzero" fill-opacity="1" /></svg>
