<?xml version="1.0" encoding="utf-8"?>
<svg xmlns="http://www.w3.org/2000/svg" xmlns:xlink="http://www.w3.org/1999/xlink" width="600" height="400" viewBox="0 0 2400 1600">
<defs>
  <clipPath id="clip140">
    <rect x="0" y="0" width="2400" height="1600"/>
  </clipPath>
</defs>
<path clip-path="url(#clip140)" d="M0 1600 L2400 1600 L2400 0 L0 0  Z" fill="#ffffff" fill-rule="evenodd" fill-opacity="1"/>
<defs>
  <clipPath id="clip141">
    <rect x="193" y="47" width="2160" height="1440"/>
  </clipPath>
</defs>
<path clip-path="url(#clip140)" d="M193.936 1486.45 L2352.76 1486.45 L2352.76 47.2441 L193.936 47.2441  Z" fill="#ffffff" fill-rule="evenodd" fill-opacity="1"/>
<polyline clip-path="url(#clip141)" style="stroke:#000000; stroke-linecap:round; stroke-linejoin:round; stroke-width:2; stroke-opacity:0.1; fill:none" points="255.035,1486.45 255.035,47.2441 "/>
<polyline clip-path="url(#clip141)" style="stroke:#000000; stroke-linecap:round; stroke-linejoin:round; stroke-width:2; stroke-opacity:0.1; fill:none" points="579.338,1486.45 579.338,47.2441 "/>
<polyline clip-path="url(#clip141)" style="stroke:#000000; stroke-linecap:round; stroke-linejoin:round; stroke-width:2; stroke-opacity:0.1; fill:none" points="903.641,1486.45 903.641,47.2441 "/>
<polyline clip-path="url(#clip141)" style="stroke:#000000; stroke-linecap:round; stroke-linejoin:round; stroke-width:2; stroke-opacity:0.1; fill:none" points="1227.94,1486.45 1227.94,47.2441 "/>
<polyline clip-path="url(#clip141)" style="stroke:#000000; stroke-linecap:round; stroke-linejoin:round; stroke-width:2; stroke-opacity:0.1; fill:none" points="1552.25,1486.45 1552.25,47.2441 "/>
<polyline clip-path="url(#clip141)" style="stroke:#000000; stroke-linecap:round; stroke-linejoin:round; stroke-width:2; stroke-opacity:0.1; fill:none" points="1876.55,1486.45 1876.55,47.2441 "/>
<polyline clip-path="url(#clip141)" style="stroke:#000000; stroke-linecap:round; stroke-linejoin:round; stroke-width:2; stroke-opacity:0.1; fill:none" points="2200.85,1486.45 2200.85,47.2441 "/>
<polyline clip-path="url(#clip141)" style="stroke:#000000; stroke-linecap:round; stroke-linejoin:round; stroke-width:2; stroke-opacity:0.1; fill:none" points="193.936,1486.14 2352.76,1486.14 "/>
<polyline clip-path="url(#clip141)" style="stroke:#000000; stroke-linecap:round; stroke-linejoin:round; stroke-width:2; stroke-opacity:0.1; fill:none" points="193.936,1249.57 2352.76,1249.57 "/>
<polyline clip-path="url(#clip141)" style="stroke:#000000; stroke-linecap:round; stroke-linejoin:round; stroke-width:2; stroke-opacity:0.1; fill:none" points="193.936,1012.99 2352.76,1012.99 "/>
<polyline clip-path="url(#clip141)" style="stroke:#000000; stroke-linecap:round; stroke-linejoin:round; stroke-width:2; stroke-opacity:0.1; fill:none" points="193.936,776.42 2352.76,776.42 "/>
<polyline clip-path="url(#clip141)" style="stroke:#000000; stroke-linecap:round; stroke-linejoin:round; stroke-width:2; stroke-opacity:0.1; fill:none" points="193.936,539.845 2352.76,539.845 "/>
<polyline clip-path="url(#clip141)" style="stroke:#000000; stroke-linecap:round; stroke-linejoin:round; stroke-width:2; stroke-opacity:0.1; fill:none" points="193.936,303.271 2352.76,303.271 "/>
<polyline clip-path="url(#clip141)" style="stroke:#000000; stroke-linecap:round; stroke-linejoin:round; stroke-width:2; stroke-opacity:0.1; fill:none" points="193.936,66.6958 2352.76,66.6958 "/>
<polyline clip-path="url(#clip140)" style="stroke:#000000; stroke-linecap:round; stroke-linejoin:round; stroke-width:4; stroke-opacity:1; fill:none" points="193.936,1486.45 2352.76,1486.45 "/>
<polyline clip-path="url(#clip140)" style="stroke:#000000; stroke-linecap:round; stroke-linejoin:round; stroke-width:4; stroke-opacity:1; fill:none" points="255.035,1486.45 255.035,1467.55 "/>
<polyline clip-path="url(#clip140)" style="stroke:#000000; stroke-linecap:round; stroke-linejoin:round; stroke-width:4; stroke-opacity:1; fill:none" points="579.338,1486.45 579.338,1467.55 "/>
<polyline clip-path="url(#clip140)" style="stroke:#000000; stroke-linecap:round; stroke-linejoin:round; stroke-width:4; stroke-opacity:1; fill:none" points="903.641,1486.45 903.641,1467.55 "/>
<polyline clip-path="url(#clip140)" style="stroke:#000000; stroke-linecap:round; stroke-linejoin:round; stroke-width:4; stroke-opacity:1; fill:none" points="1227.94,1486.45 1227.94,1467.55 "/>
<polyline clip-path="url(#clip140)" style="stroke:#000000; stroke-linecap:round; stroke-linejoin:round; stroke-width:4; stroke-opacity:1; fill:none" points="1552.25,1486.45 1552.25,1467.55 "/>
<polyline clip-path="url(#clip140)" style="stroke:#000000; stroke-linecap:round; stroke-linejoin:round; stroke-width:4; stroke-opacity:1; fill:none" points="1876.55,1486.45 1876.55,1467.55 "/>
<polyline clip-path="url(#clip140)" style="stroke:#000000; stroke-linecap:round; stroke-linejoin:round; stroke-width:4; stroke-opacity:1; fill:none" points="2200.85,1486.45 2200.85,1467.55 "/>
<path clip-path="url(#clip140)" d="M255.035 1517.37 Q251.424 1517.37 249.595 1520.93 Q247.789 1524.47 247.789 1531.6 Q247.789 1538.71 249.595 1542.27 Q251.424 1545.82 255.035 1545.82 Q258.669 1545.82 260.474 1542.27 Q262.303 1538.71 262.303 1531.6 Q262.303 1524.47 260.474 1520.93 Q258.669 1517.37 255.035 1517.37 M255.035 1513.66 Q260.845 1513.66 263.9 1518.27 Q266.979 1522.85 266.979 1531.6 Q266.979 1540.33 263.9 1544.94 Q260.845 1549.52 255.035 1549.52 Q249.225 1549.52 246.146 1544.94 Q243.09 1540.33 243.09 1531.6 Q243.09 1522.85 246.146 1518.27 Q249.225 1513.66 255.035 1513.66 Z" fill="#000000" fill-rule="nonzero" fill-opacity="1" /><path clip-path="url(#clip140)" d="M569.72 1544.91 L577.358 1544.91 L577.358 1518.55 L569.048 1520.21 L569.048 1515.95 L577.312 1514.29 L581.988 1514.29 L581.988 1544.91 L589.627 1544.91 L589.627 1548.85 L569.72 1548.85 L569.72 1544.91 Z" fill="#000000" fill-rule="nonzero" fill-opacity="1" /><path clip-path="url(#clip140)" d="M898.293 1544.91 L914.613 1544.91 L914.613 1548.85 L892.668 1548.85 L892.668 1544.91 Q895.33 1542.16 899.914 1537.53 Q904.52 1532.88 905.701 1531.53 Q907.946 1529.01 908.826 1527.27 Q909.729 1525.51 909.729 1523.82 Q909.729 1521.07 907.784 1519.33 Q905.863 1517.6 902.761 1517.6 Q900.562 1517.6 898.108 1518.36 Q895.678 1519.13 892.9 1520.68 L892.9 1515.95 Q895.724 1514.82 898.178 1514.24 Q900.631 1513.66 902.668 1513.66 Q908.039 1513.66 911.233 1516.35 Q914.428 1519.03 914.428 1523.52 Q914.428 1525.65 913.617 1527.57 Q912.83 1529.47 910.724 1532.07 Q910.145 1532.74 907.043 1535.95 Q903.942 1539.15 898.293 1544.91 Z" fill="#000000" fill-rule="nonzero" fill-opacity="1" /><path clip-path="url(#clip140)" d="M1232.19 1530.21 Q1235.55 1530.93 1237.42 1533.2 Q1239.32 1535.47 1239.32 1538.8 Q1239.32 1543.92 1235.8 1546.72 Q1232.28 1549.52 1225.8 1549.52 Q1223.63 1549.52 1221.31 1549.08 Q1219.02 1548.66 1216.57 1547.81 L1216.57 1543.29 Q1218.51 1544.43 1220.83 1545.01 Q1223.14 1545.58 1225.66 1545.58 Q1230.06 1545.58 1232.35 1543.85 Q1234.67 1542.11 1234.67 1538.8 Q1234.67 1535.75 1232.52 1534.03 Q1230.39 1532.3 1226.57 1532.3 L1222.54 1532.3 L1222.54 1528.45 L1226.75 1528.45 Q1230.2 1528.45 1232.03 1527.09 Q1233.86 1525.7 1233.86 1523.11 Q1233.86 1520.45 1231.96 1519.03 Q1230.08 1517.6 1226.57 1517.6 Q1224.64 1517.6 1222.45 1518.01 Q1220.25 1518.43 1217.61 1519.31 L1217.61 1515.14 Q1220.27 1514.4 1222.58 1514.03 Q1224.92 1513.66 1226.98 1513.66 Q1232.31 1513.66 1235.41 1516.09 Q1238.51 1518.5 1238.51 1522.62 Q1238.51 1525.49 1236.87 1527.48 Q1235.22 1529.45 1232.19 1530.21 Z" fill="#000000" fill-rule="nonzero" fill-opacity="1" /><path clip-path="url(#clip140)" d="M1555.26 1518.36 L1543.45 1536.81 L1555.26 1536.81 L1555.26 1518.36 M1554.03 1514.29 L1559.91 1514.29 L1559.91 1536.81 L1564.84 1536.81 L1564.84 1540.7 L1559.91 1540.7 L1559.91 1548.85 L1555.26 1548.85 L1555.26 1540.7 L1539.65 1540.7 L1539.65 1536.19 L1554.03 1514.29 Z" fill="#000000" fill-rule="nonzero" fill-opacity="1" /><path clip-path="url(#clip140)" d="M1866.83 1514.29 L1885.18 1514.29 L1885.18 1518.22 L1871.11 1518.22 L1871.11 1526.7 Q1872.13 1526.35 1873.15 1526.19 Q1874.17 1526 1875.18 1526 Q1880.97 1526 1884.35 1529.17 Q1887.73 1532.34 1887.73 1537.76 Q1887.73 1543.34 1884.26 1546.44 Q1880.79 1549.52 1874.47 1549.52 Q1872.29 1549.52 1870.02 1549.15 Q1867.78 1548.78 1865.37 1548.04 L1865.37 1543.34 Q1867.45 1544.47 1869.67 1545.03 Q1871.9 1545.58 1874.37 1545.58 Q1878.38 1545.58 1880.72 1543.48 Q1883.05 1541.37 1883.05 1537.76 Q1883.05 1534.15 1880.72 1532.04 Q1878.38 1529.94 1874.37 1529.94 Q1872.5 1529.94 1870.62 1530.35 Q1868.77 1530.77 1866.83 1531.65 L1866.83 1514.29 Z" fill="#000000" fill-rule="nonzero" fill-opacity="1" /><path clip-path="url(#clip140)" d="M2201.26 1529.7 Q2198.11 1529.7 2196.26 1531.86 Q2194.43 1534.01 2194.43 1537.76 Q2194.43 1541.49 2196.26 1543.66 Q2198.11 1545.82 2201.26 1545.82 Q2204.41 1545.82 2206.23 1543.66 Q2208.09 1541.49 2208.09 1537.76 Q2208.09 1534.01 2206.23 1531.86 Q2204.41 1529.7 2201.26 1529.7 M2210.54 1515.05 L2210.54 1519.31 Q2208.78 1518.48 2206.98 1518.04 Q2205.19 1517.6 2203.43 1517.6 Q2198.8 1517.6 2196.35 1520.72 Q2193.92 1523.85 2193.57 1530.17 Q2194.94 1528.15 2197 1527.09 Q2199.06 1526 2201.54 1526 Q2206.74 1526 2209.75 1529.17 Q2212.79 1532.32 2212.79 1537.76 Q2212.79 1543.08 2209.64 1546.3 Q2206.49 1549.52 2201.26 1549.52 Q2195.26 1549.52 2192.09 1544.94 Q2188.92 1540.33 2188.92 1531.6 Q2188.92 1523.41 2192.81 1518.55 Q2196.7 1513.66 2203.25 1513.66 Q2205.01 1513.66 2206.79 1514.01 Q2208.6 1514.36 2210.54 1515.05 Z" fill="#000000" fill-rule="nonzero" fill-opacity="1" /><polyline clip-path="url(#clip140)" style="stroke:#000000; stroke-linecap:round; stroke-linejoin:round; stroke-width:4; stroke-opacity:1; fill:none" points="193.936,1486.45 193.936,47.2441 "/>
<polyline clip-path="url(#clip140)" style="stroke:#000000; stroke-linecap:round; stroke-linejoin:round; stroke-width:4; stroke-opacity:1; fill:none" points="193.936,1486.14 212.834,1486.14 "/>
<polyline clip-path="url(#clip140)" style="stroke:#000000; stroke-linecap:round; stroke-linejoin:round; stroke-width:4; stroke-opacity:1; fill:none" points="193.936,1249.57 212.834,1249.57 "/>
<polyline clip-path="url(#clip140)" style="stroke:#000000; stroke-linecap:round; stroke-linejoin:round; stroke-width:4; stroke-opacity:1; fill:none" points="193.936,1012.99 212.834,1012.99 "/>
<polyline clip-path="url(#clip140)" style="stroke:#000000; stroke-linecap:round; stroke-linejoin:round; stroke-width:4; stroke-opacity:1; fill:none" points="193.936,776.42 212.834,776.42 "/>
<polyline clip-path="url(#clip140)" style="stroke:#000000; stroke-linecap:round; stroke-linejoin:round; stroke-width:4; stroke-opacity:1; fill:none" points="193.936,539.845 212.834,539.845 "/>
<polyline clip-path="url(#clip140)" style="stroke:#000000; stroke-linecap:round; stroke-linejoin:round; stroke-width:4; stroke-opacity:1; fill:none" points="193.936,303.271 212.834,303.271 "/>
<polyline clip-path="url(#clip140)" style="stroke:#000000; stroke-linecap:round; stroke-linejoin:round; stroke-width:4; stroke-opacity:1; fill:none" points="193.936,66.6958 212.834,66.6958 "/>
<path clip-path="url(#clip140)" d="M51.9875 1486.6 L81.6633 1486.6 L81.6633 1490.53 L51.9875 1490.53 L51.9875 1486.6 Z" fill="#000000" fill-rule="nonzero" fill-opacity="1" /><path clip-path="url(#clip140)" d="M92.566 1499.49 L100.205 1499.49 L100.205 1473.12 L91.8947 1474.79 L91.8947 1470.53 L100.159 1468.86 L104.834 1468.86 L104.834 1499.49 L112.473 1499.49 L112.473 1503.42 L92.566 1503.42 L92.566 1499.49 Z" fill="#000000" fill-rule="nonzero" fill-opacity="1" /><path clip-path="url(#clip140)" d="M121.918 1497.54 L126.802 1497.54 L126.802 1503.42 L121.918 1503.42 L121.918 1497.54 Z" fill="#000000" fill-rule="nonzero" fill-opacity="1" /><path clip-path="url(#clip140)" d="M137.033 1468.86 L155.39 1468.86 L155.39 1472.8 L141.316 1472.8 L141.316 1481.27 Q142.334 1480.92 143.353 1480.76 Q144.371 1480.58 145.39 1480.58 Q151.177 1480.58 154.556 1483.75 Q157.936 1486.92 157.936 1492.34 Q157.936 1497.92 154.464 1501.02 Q150.992 1504.1 144.672 1504.1 Q142.496 1504.1 140.228 1503.73 Q137.982 1503.36 135.575 1502.61 L135.575 1497.92 Q137.658 1499.05 139.881 1499.61 Q142.103 1500.16 144.58 1500.16 Q148.584 1500.16 150.922 1498.05 Q153.26 1495.95 153.26 1492.34 Q153.26 1488.73 150.922 1486.62 Q148.584 1484.51 144.58 1484.51 Q142.705 1484.51 140.83 1484.93 Q138.978 1485.35 137.033 1486.23 L137.033 1468.86 Z" fill="#000000" fill-rule="nonzero" fill-opacity="1" /><path clip-path="url(#clip140)" d="M50.9921 1250.02 L80.6679 1250.02 L80.6679 1253.96 L50.9921 1253.96 L50.9921 1250.02 Z" fill="#000000" fill-rule="nonzero" fill-opacity="1" /><path clip-path="url(#clip140)" d="M91.5706 1262.91 L99.2095 1262.91 L99.2095 1236.55 L90.8993 1238.22 L90.8993 1233.96 L99.1632 1232.29 L103.839 1232.29 L103.839 1262.91 L111.478 1262.91 L111.478 1266.85 L91.5706 1266.85 L91.5706 1262.91 Z" fill="#000000" fill-rule="nonzero" fill-opacity="1" /><path clip-path="url(#clip140)" d="M120.922 1260.97 L125.807 1260.97 L125.807 1266.85 L120.922 1266.85 L120.922 1260.97 Z" fill="#000000" fill-rule="nonzero" fill-opacity="1" /><path clip-path="url(#clip140)" d="M145.992 1235.37 Q142.381 1235.37 140.552 1238.93 Q138.746 1242.47 138.746 1249.6 Q138.746 1256.71 140.552 1260.28 Q142.381 1263.82 145.992 1263.82 Q149.626 1263.82 151.431 1260.28 Q153.26 1256.71 153.26 1249.6 Q153.26 1242.47 151.431 1238.93 Q149.626 1235.37 145.992 1235.37 M145.992 1231.66 Q151.802 1231.66 154.857 1236.27 Q157.936 1240.85 157.936 1249.6 Q157.936 1258.33 154.857 1262.94 Q151.802 1267.52 145.992 1267.52 Q140.181 1267.52 137.103 1262.94 Q134.047 1258.33 134.047 1249.6 Q134.047 1240.85 137.103 1236.27 Q140.181 1231.66 145.992 1231.66 Z" fill="#000000" fill-rule="nonzero" fill-opacity="1" /><path clip-path="url(#clip140)" d="M51.9875 1013.45 L81.6633 1013.45 L81.6633 1017.38 L51.9875 1017.38 L51.9875 1013.45 Z" fill="#000000" fill-rule="nonzero" fill-opacity="1" /><path clip-path="url(#clip140)" d="M101.756 998.794 Q98.1447 998.794 96.316 1002.36 Q94.5104 1005.9 94.5104 1013.03 Q94.5104 1020.14 96.316 1023.7 Q98.1447 1027.24 101.756 1027.24 Q105.39 1027.24 107.196 1023.7 Q109.024 1020.14 109.024 1013.03 Q109.024 1005.9 107.196 1002.36 Q105.39 998.794 101.756 998.794 M101.756 995.09 Q107.566 995.09 110.621 999.696 Q113.7 1004.28 113.7 1013.03 Q113.7 1021.76 110.621 1026.36 Q107.566 1030.95 101.756 1030.95 Q95.9456 1030.95 92.8669 1026.36 Q89.8114 1021.76 89.8114 1013.03 Q89.8114 1004.28 92.8669 999.696 Q95.9456 995.09 101.756 995.09 Z" fill="#000000" fill-rule="nonzero" fill-opacity="1" /><path clip-path="url(#clip140)" d="M121.918 1024.4 L126.802 1024.4 L126.802 1030.27 L121.918 1030.27 L121.918 1024.4 Z" fill="#000000" fill-rule="nonzero" fill-opacity="1" /><path clip-path="url(#clip140)" d="M137.033 995.715 L155.39 995.715 L155.39 999.65 L141.316 999.65 L141.316 1008.12 Q142.334 1007.78 143.353 1007.61 Q144.371 1007.43 145.39 1007.43 Q151.177 1007.43 154.556 1010.6 Q157.936 1013.77 157.936 1019.19 Q157.936 1024.77 154.464 1027.87 Q150.992 1030.95 144.672 1030.95 Q142.496 1030.95 140.228 1030.58 Q137.982 1030.21 135.575 1029.46 L135.575 1024.77 Q137.658 1025.9 139.881 1026.46 Q142.103 1027.01 144.58 1027.01 Q148.584 1027.01 150.922 1024.9 Q153.26 1022.8 153.26 1019.19 Q153.26 1015.58 150.922 1013.47 Q148.584 1011.36 144.58 1011.36 Q142.705 1011.36 140.83 1011.78 Q138.978 1012.2 137.033 1013.08 L137.033 995.715 Z" fill="#000000" fill-rule="nonzero" fill-opacity="1" /><path clip-path="url(#clip140)" d="M100.76 762.219 Q97.1493 762.219 95.3206 765.784 Q93.515 769.325 93.515 776.455 Q93.515 783.561 95.3206 787.126 Q97.1493 790.668 100.76 790.668 Q104.395 790.668 106.2 787.126 Q108.029 783.561 108.029 776.455 Q108.029 769.325 106.2 765.784 Q104.395 762.219 100.76 762.219 M100.76 758.515 Q106.571 758.515 109.626 763.122 Q112.705 767.705 112.705 776.455 Q112.705 785.182 109.626 789.788 Q106.571 794.371 100.76 794.371 Q94.9502 794.371 91.8715 789.788 Q88.816 785.182 88.816 776.455 Q88.816 767.705 91.8715 763.122 Q94.9502 758.515 100.76 758.515 Z" fill="#000000" fill-rule="nonzero" fill-opacity="1" /><path clip-path="url(#clip140)" d="M120.922 787.821 L125.807 787.821 L125.807 793.7 L120.922 793.7 L120.922 787.821 Z" fill="#000000" fill-rule="nonzero" fill-opacity="1" /><path clip-path="url(#clip140)" d="M145.992 762.219 Q142.381 762.219 140.552 765.784 Q138.746 769.325 138.746 776.455 Q138.746 783.561 140.552 787.126 Q142.381 790.668 145.992 790.668 Q149.626 790.668 151.431 787.126 Q153.26 783.561 153.26 776.455 Q153.26 769.325 151.431 765.784 Q149.626 762.219 145.992 762.219 M145.992 758.515 Q151.802 758.515 154.857 763.122 Q157.936 767.705 157.936 776.455 Q157.936 785.182 154.857 789.788 Q151.802 794.371 145.992 794.371 Q140.181 794.371 137.103 789.788 Q134.047 785.182 134.047 776.455 Q134.047 767.705 137.103 763.122 Q140.181 758.515 145.992 758.515 Z" fill="#000000" fill-rule="nonzero" fill-opacity="1" /><path clip-path="url(#clip140)" d="M101.756 525.644 Q98.1447 525.644 96.316 529.209 Q94.5104 532.751 94.5104 539.88 Q94.5104 546.987 96.316 550.551 Q98.1447 554.093 101.756 554.093 Q105.39 554.093 107.196 550.551 Q109.024 546.987 109.024 539.88 Q109.024 532.751 107.196 529.209 Q105.39 525.644 101.756 525.644 M101.756 521.94 Q107.566 521.94 110.621 526.547 Q113.7 531.13 113.7 539.88 Q113.7 548.607 110.621 553.213 Q107.566 557.797 101.756 557.797 Q95.9456 557.797 92.8669 553.213 Q89.8114 548.607 89.8114 539.88 Q89.8114 531.13 92.8669 526.547 Q95.9456 521.94 101.756 521.94 Z" fill="#000000" fill-rule="nonzero" fill-opacity="1" /><path clip-path="url(#clip140)" d="M121.918 551.246 L126.802 551.246 L126.802 557.125 L121.918 557.125 L121.918 551.246 Z" fill="#000000" fill-rule="nonzero" fill-opacity="1" /><path clip-path="url(#clip140)" d="M137.033 522.565 L155.39 522.565 L155.39 526.501 L141.316 526.501 L141.316 534.973 Q142.334 534.626 143.353 534.463 Q144.371 534.278 145.39 534.278 Q151.177 534.278 154.556 537.45 Q157.936 540.621 157.936 546.037 Q157.936 551.616 154.464 554.718 Q150.992 557.797 144.672 557.797 Q142.496 557.797 140.228 557.426 Q137.982 557.056 135.575 556.315 L135.575 551.616 Q137.658 552.75 139.881 553.306 Q142.103 553.862 144.58 553.862 Q148.584 553.862 150.922 551.755 Q153.26 549.649 153.26 546.037 Q153.26 542.426 150.922 540.32 Q148.584 538.213 144.58 538.213 Q142.705 538.213 140.83 538.63 Q138.978 539.047 137.033 539.926 L137.033 522.565 Z" fill="#000000" fill-rule="nonzero" fill-opacity="1" /><path clip-path="url(#clip140)" d="M91.5706 316.615 L99.2095 316.615 L99.2095 290.25 L90.8993 291.917 L90.8993 287.657 L99.1632 285.991 L103.839 285.991 L103.839 316.615 L111.478 316.615 L111.478 320.551 L91.5706 320.551 L91.5706 316.615 Z" fill="#000000" fill-rule="nonzero" fill-opacity="1" /><path clip-path="url(#clip140)" d="M120.922 314.671 L125.807 314.671 L125.807 320.551 L120.922 320.551 L120.922 314.671 Z" fill="#000000" fill-rule="nonzero" fill-opacity="1" /><path clip-path="url(#clip140)" d="M145.992 289.069 Q142.381 289.069 140.552 292.634 Q138.746 296.176 138.746 303.305 Q138.746 310.412 140.552 313.977 Q142.381 317.518 145.992 317.518 Q149.626 317.518 151.431 313.977 Q153.26 310.412 153.26 303.305 Q153.26 296.176 151.431 292.634 Q149.626 289.069 145.992 289.069 M145.992 285.366 Q151.802 285.366 154.857 289.972 Q157.936 294.555 157.936 303.305 Q157.936 312.032 154.857 316.639 Q151.802 321.222 145.992 321.222 Q140.181 321.222 137.103 316.639 Q134.047 312.032 134.047 303.305 Q134.047 294.555 137.103 289.972 Q140.181 285.366 145.992 285.366 Z" fill="#000000" fill-rule="nonzero" fill-opacity="1" /><path clip-path="url(#clip140)" d="M92.566 80.0407 L100.205 80.0407 L100.205 53.6751 L91.8947 55.3417 L91.8947 51.0825 L100.159 49.4158 L104.834 49.4158 L104.834 80.0407 L112.473 80.0407 L112.473 83.9758 L92.566 83.9758 L92.566 80.0407 Z" fill="#000000" fill-rule="nonzero" fill-opacity="1" /><path clip-path="url(#clip140)" d="M121.918 78.0962 L126.802 78.0962 L126.802 83.9758 L121.918 83.9758 L121.918 78.0962 Z" fill="#000000" fill-rule="nonzero" fill-opacity="1" /><path clip-path="url(#clip140)" d="M137.033 49.4158 L155.39 49.4158 L155.39 53.351 L141.316 53.351 L141.316 61.8232 Q142.334 61.476 143.353 61.3139 Q144.371 61.1287 145.39 61.1287 Q151.177 61.1287 154.556 64.3 Q157.936 67.4713 157.936 72.8879 Q157.936 78.4666 154.464 81.5684 Q150.992 84.6471 144.672 84.6471 Q142.496 84.6471 140.228 84.2768 Q137.982 83.9064 135.575 83.1656 L135.575 78.4666 Q137.658 79.6009 139.881 80.1564 Q142.103 80.712 144.58 80.712 Q148.584 80.712 150.922 78.6055 Q153.26 76.499 153.26 72.8879 Q153.26 69.2768 150.922 67.1704 Q148.584 65.0639 144.58 65.0639 Q142.705 65.0639 140.83 65.4806 Q138.978 65.8972 137.033 66.7768 L137.033 49.4158 Z" fill="#000000" fill-rule="nonzero" fill-opacity="1" /><polyline clip-path="url(#clip141)" style="stroke:#009af9; stroke-linecap:round; stroke-linejoin:round; stroke-width:4; stroke-opacity:1; fill:none" points="255.035,776.42 258.278,771.689 261.521,766.958 264.764,762.228 268.007,757.499 271.25,752.773 274.493,748.048 277.736,743.327 280.979,738.609 284.222,733.894 287.465,729.184 290.708,724.479 293.951,719.778 297.194,715.084 300.437,710.395 303.68,705.714 306.923,701.039 310.166,696.372 313.409,691.712 316.652,687.062 319.895,682.42 323.138,677.787 326.381,673.165 329.624,668.553 332.867,663.951 336.11,659.361 339.353,654.783 342.596,650.216 345.84,645.663 349.083,641.122 352.326,636.595 355.569,632.082 358.812,627.583 362.055,623.099 365.298,618.631 368.541,614.178 371.784,609.742 375.027,605.322 378.27,600.919 381.513,596.534 384.756,592.167 387.999,587.818 391.242,583.488 394.485,579.178 397.728,574.887 400.971,570.616 404.214,566.366 407.457,562.137 410.7,557.93 413.943,553.744 417.186,549.58 420.429,545.439 423.672,541.322 426.915,537.227 430.158,533.157 433.401,529.111 436.644,525.09 439.887,521.094 443.13,517.123 446.373,513.178 449.616,509.26 452.859,505.368 456.103,501.504 459.346,497.667 462.589,493.857 465.832,490.076 469.075,486.324 472.318,482.601 475.561,478.907 478.804,475.243 482.047,471.609 485.29,468.005 488.533,464.433 491.776,460.891 495.019,457.381 498.262,453.903 501.505,450.457 504.748,447.044 507.991,443.664 511.234,440.317 514.477,437.003 517.72,433.724 520.963,430.479 524.206,427.268 527.449,424.093 530.692,420.952 533.935,417.847 537.178,414.778 540.421,411.745 543.664,408.749 546.907,405.789 550.15,402.867 553.393,399.982 556.636,397.134 559.879,394.324 563.122,391.553 566.366,388.82 569.609,386.126 572.852,383.471 576.095,380.855 579.338,378.279 582.581,375.742 585.824,373.246 589.067,370.79 592.31,368.374 595.553,365.999 598.796,363.666 602.039,361.373 605.282,359.122 608.525,356.913 611.768,354.746 615.011,352.621 618.254,350.538 621.497,348.498 624.74,346.501 627.983,344.546 631.226,342.635 634.469,340.767 637.712,338.943 640.955,337.163 644.198,335.426 647.441,333.734 650.684,332.086 653.927,330.482 657.17,328.923 660.413,327.409 663.656,325.939 666.899,324.515 670.142,323.135 673.385,321.801 676.629,320.513 679.872,319.27 683.115,318.073 686.358,316.922 689.601,315.816 692.844,314.757 696.087,313.744 699.33,312.777 702.573,311.857 705.816,310.983 709.059,310.155 712.302,309.374 715.545,308.64 718.788,307.953 722.031,307.312 725.274,306.718 728.517,306.172 731.76,305.672 735.003,305.22 738.246,304.814 741.489,304.456 744.732,304.145 747.975,303.881 751.218,303.664 754.461,303.495 757.704,303.373 760.947,303.298 764.19,303.271 767.433,303.291 770.676,303.358 773.919,303.472 777.162,303.634 780.405,303.843 783.648,304.1 786.892,304.403 790.135,304.754 793.378,305.152 796.621,305.597 799.864,306.089 803.107,306.628 806.35,307.214 809.593,307.847 812.836,308.527 816.079,309.254 819.322,310.028 822.565,310.848 825.808,311.714 829.051,312.627 832.294,313.587 835.537,314.593 838.78,315.645 842.023,316.743 845.266,317.887 848.509,319.076 851.752,320.312 854.995,321.593 858.238,322.92 861.481,324.292 864.724,325.709 867.967,327.171 871.21,328.679 874.453,330.231 877.696,331.827 880.939,333.468 884.182,335.154 887.425,336.883 890.668,338.657 893.911,340.474 897.155,342.335 900.398,344.239 903.641,346.186 906.884,348.177 910.127,350.21 913.37,352.286 916.613,354.405 919.856,356.565 923.099,358.768 926.342,361.012 929.585,363.298 932.828,365.625 936.071,367.993 939.314,370.402 942.557,372.852 945.8,375.342 949.043,377.872 952.286,380.442 955.529,383.051 958.772,385.7 962.015,388.388 965.258,391.115 968.501,393.88 971.744,396.684 974.987,399.526 978.23,402.405 981.473,405.321 984.716,408.275 987.959,411.266 991.202,414.293 994.445,417.356 997.688,420.455 1000.93,423.59 1004.17,426.76 1007.42,429.965 1010.66,433.205 1013.9,436.479 1017.15,439.787 1020.39,443.129 1023.63,446.504 1026.88,449.911 1030.12,453.352 1033.36,456.825 1036.6,460.33 1039.85,463.866 1043.09,467.434 1046.33,471.033 1049.58,474.662 1052.82,478.321 1056.06,482.011 1059.31,485.729 1062.55,489.477 1065.79,493.253 1069.04,497.058 1072.28,500.891 1075.52,504.751 1078.76,508.638 1082.01,512.552 1085.25,516.493 1088.49,520.459 1091.74,524.452 1094.98,528.469 1098.22,532.511 1101.47,536.577 1104.71,540.668 1107.95,544.782 1111.19,548.919 1114.44,553.079 1117.68,557.261 1120.92,561.466 1124.17,565.691 1127.41,569.938 1130.65,574.206 1133.9,578.493 1137.14,582.801 1140.38,587.127 1143.62,591.473 1146.87,595.837 1150.11,600.22 1153.35,604.62 1156.6,609.037 1159.84,613.471 1163.08,617.921 1166.33,622.387 1169.57,626.868 1172.81,631.364 1176.06,635.875 1179.3,640.4 1182.54,644.939 1185.78,649.49 1189.03,654.055 1192.27,658.631 1195.51,663.219 1198.76,667.819 1202,672.43 1205.24,677.051 1208.49,681.681 1211.73,686.322 1214.97,690.971 1218.21,695.629 1221.46,700.295 1224.7,704.969 1227.94,709.649 1231.19,714.337 1234.43,719.03 1237.67,723.73 1240.92,728.434 1244.16,733.144 1247.4,737.857 1250.64,742.575 1253.89,747.296 1257.13,752.02 1260.37,756.746 1263.62,761.475 1266.86,766.204 1270.1,770.935 1273.35,775.667 1276.59,780.398 1279.83,785.129 1283.08,789.859 1286.32,794.588 1289.56,799.315 1292.8,804.04 1296.05,808.762 1299.29,813.481 1302.53,818.196 1305.78,822.906 1309.02,827.613 1312.26,832.314 1315.51,837.009 1318.75,841.699 1321.99,846.382 1325.23,851.057 1328.48,855.726 1331.72,860.386 1334.96,865.039 1338.21,869.682 1341.45,874.316 1344.69,878.94 1347.94,883.554 1351.18,888.157 1354.42,892.749 1357.66,897.329 1360.91,901.898 1364.15,906.453 1367.39,910.996 1370.64,915.525 1373.88,920.041 1377.12,924.542 1380.37,929.028 1383.61,933.499 1386.85,937.954 1390.1,942.393 1393.34,946.816 1396.58,951.221 1399.82,955.609 1403.07,959.979 1406.31,964.331 1409.55,968.664 1412.8,972.977 1416.04,977.271 1419.28,981.545 1422.53,985.799 1425.77,990.031 1429.01,994.242 1432.25,998.431 1435.5,1002.6 1438.74,1006.74 1441.98,1010.86 1445.23,1014.96 1448.47,1019.04 1451.71,1023.09 1454.96,1027.11 1458.2,1031.11 1461.44,1035.09 1464.68,1039.04 1467.93,1042.96 1471.17,1046.85 1474.41,1050.72 1477.66,1054.56 1480.9,1058.38 1484.14,1062.16 1487.39,1065.92 1490.63,1069.65 1493.87,1073.35 1497.11,1077.02 1500.36,1080.65 1503.6,1084.26 1506.84,1087.84 1510.09,1091.39 1513.33,1094.9 1516.57,1098.39 1519.82,1101.84 1523.06,1105.25 1526.3,1108.64 1529.55,1111.99 1532.79,1115.31 1536.03,1118.6 1539.27,1121.85 1542.52,1125.06 1545.76,1128.24 1549,1131.39 1552.25,1134.5 1555.49,1137.58 1558.73,1140.61 1561.98,1143.62 1565.22,1146.58 1568.46,1149.51 1571.7,1152.4 1574.95,1155.26 1578.19,1158.07 1581.43,1160.85 1584.68,1163.59 1587.92,1166.29 1591.16,1168.95 1594.41,1171.57 1597.65,1174.15 1600.89,1176.7 1604.13,1179.2 1607.38,1181.66 1610.62,1184.08 1613.86,1186.47 1617.11,1188.81 1620.35,1191.1 1623.59,1193.36 1626.84,1195.58 1630.08,1197.75 1633.32,1199.88 1636.57,1201.97 1639.81,1204.02 1643.05,1206.02 1646.29,1207.99 1649.54,1209.9 1652.78,1211.78 1656.02,1213.61 1659.27,1215.4 1662.51,1217.14 1665.75,1218.84 1669,1220.5 1672.24,1222.11 1675.48,1223.67 1678.72,1225.19 1681.97,1226.67 1685.21,1228.1 1688.45,1229.49 1691.7,1230.83 1694.94,1232.13 1698.18,1233.38 1701.43,1234.58 1704.67,1235.74 1707.91,1236.85 1711.15,1237.92 1714.4,1238.94 1717.64,1239.91 1720.88,1240.84 1724.13,1241.72 1727.37,1242.56 1730.61,1243.34 1733.86,1244.09 1737.1,1244.78 1740.34,1245.43 1743.59,1246.03 1746.83,1246.58 1750.07,1247.09 1753.31,1247.55 1756.56,1247.96 1759.8,1248.33 1763.04,1248.65 1766.29,1248.92 1769.53,1249.14 1772.77,1249.32 1776.02,1249.45 1779.26,1249.53 1782.5,1249.57 1785.74,1249.56 1788.99,1249.5 1792.23,1249.39 1795.47,1249.24 1798.72,1249.03 1801.96,1248.78 1805.2,1248.49 1808.45,1248.15 1811.69,1247.76 1814.93,1247.32 1818.17,1246.83 1821.42,1246.3 1824.66,1245.72 1827.9,1245.1 1831.15,1244.42 1834.39,1243.71 1837.63,1242.94 1840.88,1242.13 1844.12,1241.27 1847.36,1240.36 1850.61,1239.41 1853.85,1238.41 1857.09,1237.37 1860.33,1236.28 1863.58,1235.14 1866.82,1233.96 1870.06,1232.73 1873.31,1231.45 1876.55,1230.13 1879.79,1228.77 1883.04,1227.36 1886.28,1225.9 1889.52,1224.4 1892.76,1222.86 1896.01,1221.27 1899.25,1219.64 1902.49,1217.96 1905.74,1216.24 1908.98,1214.47 1912.22,1212.66 1915.47,1210.8 1918.71,1208.91 1921.95,1206.97 1925.19,1204.98 1928.44,1202.96 1931.68,1200.89 1934.92,1198.78 1938.17,1196.62 1941.41,1194.43 1944.65,1192.19 1947.9,1189.91 1951.14,1187.59 1954.38,1185.23 1957.63,1182.82 1960.87,1180.38 1964.11,1177.9 1967.35,1175.37 1970.6,1172.81 1973.84,1170.21 1977.08,1167.56 1980.33,1164.88 1983.57,1162.16 1986.81,1159.4 1990.06,1156.61 1993.3,1153.77 1996.54,1150.9 1999.78,1147.99 2003.03,1145.04 2006.27,1142.05 2009.51,1139.03 2012.76,1135.97 2016,1132.88 2019.24,1129.75 2022.49,1126.59 2025.73,1123.39 2028.97,1120.15 2032.21,1116.89 2035.46,1113.58 2038.7,1110.25 2041.94,1106.88 2045.19,1103.47 2048.43,1100.04 2051.67,1096.57 2054.92,1093.07 2058.16,1089.54 2061.4,1085.98 2064.65,1082.38 2067.89,1078.76 2071.13,1075.1 2074.37,1071.42 2077.62,1067.71 2080.86,1063.96 2084.1,1060.19 2087.35,1056.39 2090.59,1052.56 2093.83,1048.71 2097.08,1044.82 2100.32,1040.91 2103.56,1036.98 2106.8,1033.01 2110.05,1029.03 2113.29,1025.01 2116.53,1020.97 2119.78,1016.91 2123.02,1012.83 2126.26,1008.72 2129.51,1004.58 2132.75,1000.43 2135.99,996.246 2139.23,992.046 2142.48,987.823 2145.72,983.58 2148.96,979.316 2152.21,975.031 2155.45,970.727 2158.69,966.403 2161.94,962.061 2165.18,957.699 2168.42,953.32 2171.67,948.923 2174.91,944.508 2178.15,940.077 2181.39,935.629 2184.64,931.166 2187.88,926.687 2191.12,922.193 2194.37,917.685 2197.61,913.162 2200.85,908.625 2204.1,904.076 2207.34,899.514 2210.58,894.939 2213.82,890.352 2217.07,885.755 2220.31,881.146 2223.55,876.526 2226.8,871.897 2230.04,867.258 2233.28,862.61 2236.53,857.954 2239.77,853.289 2243.01,848.617 2246.25,843.937 2249.5,839.251 2252.74,834.558 2255.98,829.859 2259.23,825.156 2262.47,820.447 2265.71,815.734 2268.96,811.017 2272.2,806.296 2275.44,801.573 2278.69,796.847 2281.93,792.119 2285.17,787.389 2288.41,782.659 2291.66,777.927 "/>
<circle clip-path="url(#clip141)" cx="1870.06" cy="1321.22" r="14.4" fill="#e26f46" fill-rule="evenodd" fill-opacity="1" stroke="#000000" stroke-opacity="1" stroke-width="3.2"/>
<circle clip-path="url(#clip141)" cx="1341.45" cy="818.745" r="14.4" fill="#e26f46" fill-rule="evenodd" fill-opacity="1" stroke="#000000" stroke-opacity="1" stroke-width="3.2"/>
<circle clip-path="url(#clip141)" cx="410.7" cy="655.017" r="14.4" fill="#e26f46" fill-rule="evenodd" fill-opacity="1" stroke="#000000" stroke-opacity="1" stroke-width="3.2"/>
<circle clip-path="url(#clip141)" cx="1292.8" cy="789.313" r="14.4" fill="#e26f46" fill-rule="evenodd" fill-opacity="1" stroke="#000000" stroke-opacity="1" stroke-width="3.2"/>
<circle clip-path="url(#clip141)" cx="566.366" cy="319.68" r="14.4" fill="#e26f46" fill-rule="evenodd" fill-opacity="1" stroke="#000000" stroke-opacity="1" stroke-width="3.2"/>
<circle clip-path="url(#clip141)" cx="362.055" cy="548.244" r="14.4" fill="#e26f46" fill-rule="evenodd" fill-opacity="1" stroke="#000000" stroke-opacity="1" stroke-width="3.2"/>
<circle clip-path="url(#clip141)" cx="1951.14" cy="1231.15" r="14.4" fill="#e26f46" fill-rule="evenodd" fill-opacity="1" stroke="#000000" stroke-opacity="1" stroke-width="3.2"/>
<circle clip-path="url(#clip141)" cx="1257.13" cy="702.461" r="14.4" fill="#e26f46" fill-rule="evenodd" fill-opacity="1" stroke="#000000" stroke-opacity="1" stroke-width="3.2"/>
<circle clip-path="url(#clip141)" cx="897.155" cy="322.437" r="14.4" fill="#e26f46" fill-rule="evenodd" fill-opacity="1" stroke="#000000" stroke-opacity="1" stroke-width="3.2"/>
<circle clip-path="url(#clip141)" cx="1107.95" cy="550.383" r="14.4" fill="#e26f46" fill-rule="evenodd" fill-opacity="1" stroke="#000000" stroke-opacity="1" stroke-width="3.2"/>
<circle clip-path="url(#clip141)" cx="1746.83" cy="1348.93" r="14.4" fill="#e26f46" fill-rule="evenodd" fill-opacity="1" stroke="#000000" stroke-opacity="1" stroke-width="3.2"/>
<circle clip-path="url(#clip141)" cx="2281.93" cy="712.298" r="14.4" fill="#e26f46" fill-rule="evenodd" fill-opacity="1" stroke="#000000" stroke-opacity="1" stroke-width="3.2"/>
<circle clip-path="url(#clip141)" cx="1441.98" cy="910.364" r="14.4" fill="#e26f46" fill-rule="evenodd" fill-opacity="1" stroke="#000000" stroke-opacity="1" stroke-width="3.2"/>
<circle clip-path="url(#clip141)" cx="2035.46" cy="1064.38" r="14.4" fill="#e26f46" fill-rule="evenodd" fill-opacity="1" stroke="#000000" stroke-opacity="1" stroke-width="3.2"/>
<circle clip-path="url(#clip141)" cx="1169.57" cy="693.338" r="14.4" fill="#e26f46" fill-rule="evenodd" fill-opacity="1" stroke="#000000" stroke-opacity="1" stroke-width="3.2"/>
<circle clip-path="url(#clip141)" cx="1205.24" cy="611.304" r="14.4" fill="#e26f46" fill-rule="evenodd" fill-opacity="1" stroke="#000000" stroke-opacity="1" stroke-width="3.2"/>
<circle clip-path="url(#clip141)" cx="1516.57" cy="991.661" r="14.4" fill="#e26f46" fill-rule="evenodd" fill-opacity="1" stroke="#000000" stroke-opacity="1" stroke-width="3.2"/>
<circle clip-path="url(#clip141)" cx="2148.96" cy="1042.18" r="14.4" fill="#e26f46" fill-rule="evenodd" fill-opacity="1" stroke="#000000" stroke-opacity="1" stroke-width="3.2"/>
<circle clip-path="url(#clip141)" cx="264.764" cy="812.832" r="14.4" fill="#e26f46" fill-rule="evenodd" fill-opacity="1" stroke="#000000" stroke-opacity="1" stroke-width="3.2"/>
<circle clip-path="url(#clip141)" cx="906.884" cy="232.496" r="14.4" fill="#e26f46" fill-rule="evenodd" fill-opacity="1" stroke="#000000" stroke-opacity="1" stroke-width="3.2"/>
<path clip-path="url(#clip141)" d="M255.035 949.011 L258.278 944.277 L261.521 939.565 L264.764 934.88 L268.007 930.224 L271.25 925.597 L274.493 920.998 L277.736 916.425 L280.979 911.875 L284.222 907.347 L287.465 902.84 L290.708 898.352 L293.951 893.881 L297.194 889.428 L300.437 884.991 L303.68 880.571 L306.923 876.166 L310.166 871.779 L313.409 867.41 L316.652 863.06 L319.895 858.732 L323.138 854.427 L326.381 850.15 L329.624 845.903 L332.867 841.691 L336.11 837.518 L339.353 833.389 L342.596 829.311 L345.84 825.288 L349.083 821.327 L352.326 817.437 L355.569 813.623 L358.812 809.893 L362.055 806.256 L365.298 802.717 L368.541 799.273 L371.784 795.92 L375.027 792.652 L378.27 789.464 L381.513 786.354 L384.756 783.315 L387.999 780.346 L391.242 777.441 L394.485 774.599 L397.728 771.816 L400.971 769.09 L404.214 766.418 L407.457 763.798 L410.7 761.228 L413.943 758.706 L417.186 756.226 L420.429 753.779 L423.672 751.361 L426.915 748.963 L430.158 746.58 L433.401 744.206 L436.644 741.837 L439.887 739.466 L443.13 737.089 L446.373 734.703 L449.616 732.304 L452.859 729.889 L456.103 727.456 L459.346 725.001 L462.589 722.525 L465.832 720.025 L469.075 717.5 L472.318 714.952 L475.561 712.38 L478.804 709.784 L482.047 707.166 L485.29 704.528 L488.533 701.871 L491.776 699.199 L495.019 696.513 L498.262 693.818 L501.505 691.117 L504.748 688.414 L507.991 685.713 L511.234 683.021 L514.477 680.341 L517.72 677.68 L520.963 675.044 L524.206 672.439 L527.449 669.872 L530.692 667.35 L533.935 664.88 L537.178 662.471 L540.421 660.129 L543.664 657.864 L546.907 655.683 L550.15 653.595 L553.393 651.609 L556.636 649.734 L559.879 647.978 L563.122 646.351 L566.366 644.86 L569.609 643.513 L572.852 642.304 L576.095 641.224 L579.338 640.266 L582.581 639.421 L585.824 638.68 L589.067 638.037 L592.31 637.482 L595.553 637.008 L598.796 636.608 L602.039 636.273 L605.282 635.997 L608.525 635.773 L611.768 635.594 L615.011 635.454 L618.254 635.346 L621.497 635.264 L624.74 635.202 L627.983 635.155 L631.226 635.117 L634.469 635.084 L637.712 635.051 L640.955 635.012 L644.198 634.964 L647.441 634.903 L650.684 634.824 L653.927 634.723 L657.17 634.598 L660.413 634.445 L663.656 634.26 L666.899 634.041 L670.142 633.785 L673.385 633.489 L676.629 633.152 L679.872 632.769 L683.115 632.34 L686.358 631.863 L689.601 631.336 L692.844 630.756 L696.087 630.123 L699.33 629.435 L702.573 628.691 L705.816 627.89 L709.059 627.031 L712.302 626.113 L715.545 625.135 L718.788 624.098 L722.031 622.999 L725.274 621.84 L728.517 620.62 L731.76 619.339 L735.003 617.997 L738.246 616.594 L741.489 615.131 L744.732 613.609 L747.975 612.027 L751.218 610.387 L754.461 608.689 L757.704 606.936 L760.947 605.127 L764.19 603.264 L767.433 601.35 L770.676 599.385 L773.919 597.372 L777.162 595.312 L780.405 593.209 L783.648 591.064 L786.892 588.88 L790.135 586.66 L793.378 584.407 L796.621 582.125 L799.864 579.817 L803.107 577.487 L806.35 575.139 L809.593 572.778 L812.836 570.408 L816.079 568.034 L819.322 565.662 L822.565 563.298 L825.808 560.947 L829.051 558.616 L832.294 556.313 L835.537 554.043 L838.78 551.815 L842.023 549.638 L845.266 547.52 L848.509 545.469 L851.752 543.496 L854.995 541.61 L858.238 539.823 L861.481 538.145 L864.724 536.589 L867.967 535.165 L871.21 533.886 L874.453 532.766 L877.696 531.817 L880.939 531.053 L884.182 530.488 L887.425 530.136 L890.668 530.01 L893.911 530.125 L897.155 530.494 L900.398 531.129 L903.641 532.033 L906.884 533.209 L910.127 534.654 L913.37 536.357 L916.613 538.302 L919.856 540.474 L923.099 542.857 L926.342 545.437 L929.585 548.196 L932.828 551.122 L936.071 554.198 L939.314 557.41 L942.557 560.745 L945.8 564.189 L949.043 567.729 L952.286 571.353 L955.529 575.049 L958.772 578.805 L962.015 582.612 L965.258 586.459 L968.501 590.337 L971.744 594.237 L974.987 598.15 L978.23 602.069 L981.473 605.986 L984.716 609.894 L987.959 613.788 L991.202 617.661 L994.445 621.508 L997.688 625.325 L1000.93 629.105 L1004.17 632.846 L1007.42 636.543 L1010.66 640.194 L1013.9 643.795 L1017.15 647.344 L1020.39 650.838 L1023.63 654.276 L1026.88 657.656 L1030.12 660.976 L1033.36 664.237 L1036.6 667.437 L1039.85 670.576 L1043.09 673.654 L1046.33 676.672 L1049.58 679.631 L1052.82 682.531 L1056.06 685.375 L1059.31 688.163 L1062.55 690.899 L1065.79 693.583 L1069.04 696.22 L1072.28 698.813 L1075.52 701.364 L1078.76 703.878 L1082.01 706.359 L1085.25 708.811 L1088.49 711.239 L1091.74 713.649 L1094.98 716.046 L1098.22 718.435 L1101.47 720.822 L1104.71 723.215 L1107.95 725.619 L1111.19 728.039 L1114.44 730.474 L1117.68 732.923 L1120.92 735.382 L1124.17 737.851 L1127.41 740.328 L1130.65 742.811 L1133.9 745.3 L1137.14 747.794 L1140.38 750.294 L1143.62 752.799 L1146.87 755.31 L1150.11 757.83 L1153.35 760.359 L1156.6 762.901 L1159.84 765.457 L1163.08 768.031 L1166.33 770.627 L1169.57 773.248 L1172.81 775.898 L1176.06 778.578 L1179.3 781.289 L1182.54 784.032 L1185.78 786.807 L1189.03 789.617 L1192.27 792.464 L1195.51 795.352 L1198.76 798.281 L1202 801.258 L1205.24 804.285 L1208.49 807.366 L1211.73 810.496 L1214.97 813.672 L1218.21 816.888 L1221.46 820.142 L1224.7 823.43 L1227.94 826.749 L1231.19 830.099 L1234.43 833.478 L1237.67 836.886 L1240.92 840.323 L1244.16 843.79 L1247.4 847.29 L1250.64 850.824 L1253.89 854.395 L1257.13 858.008 L1260.37 861.664 L1263.62 865.361 L1266.86 869.097 L1270.1 872.868 L1273.35 876.673 L1276.59 880.508 L1279.83 884.374 L1283.08 888.27 L1286.32 892.195 L1289.56 896.149 L1292.8 900.133 L1296.05 904.147 L1299.29 908.188 L1302.53 912.251 L1305.78 916.333 L1309.02 920.431 L1312.26 924.54 L1315.51 928.661 L1318.75 932.789 L1321.99 936.925 L1325.23 941.068 L1328.48 945.216 L1331.72 949.371 L1334.96 953.532 L1338.21 957.7 L1341.45 961.878 L1344.69 966.065 L1347.94 970.256 L1351.18 974.447 L1354.42 978.632 L1357.66 982.807 L1360.91 986.968 L1364.15 991.111 L1367.39 995.232 L1370.64 999.329 L1373.88 1003.4 L1377.12 1007.44 L1380.37 1011.46 L1383.61 1015.44 L1386.85 1019.39 L1390.1 1023.32 L1393.34 1027.21 L1396.58 1031.08 L1399.82 1034.92 L1403.07 1038.74 L1406.31 1042.54 L1409.55 1046.32 L1412.8 1050.09 L1416.04 1053.85 L1419.28 1057.6 L1422.53 1061.36 L1425.77 1065.13 L1429.01 1068.9 L1432.25 1072.7 L1435.5 1076.53 L1438.74 1080.38 L1441.98 1084.28 L1445.23 1088.22 L1448.47 1092.21 L1451.71 1096.24 L1454.96 1100.31 L1458.2 1104.43 L1461.44 1108.58 L1464.68 1112.78 L1467.93 1117.01 L1471.17 1121.28 L1474.41 1125.59 L1477.66 1129.93 L1480.9 1134.32 L1484.14 1138.75 L1487.39 1143.22 L1490.63 1147.73 L1493.87 1152.29 L1497.11 1156.9 L1500.36 1161.55 L1503.6 1166.26 L1506.84 1171.02 L1510.09 1175.84 L1513.33 1180.72 L1516.57 1185.66 L1519.82 1190.66 L1523.06 1195.73 L1526.3 1200.84 L1529.55 1206 L1532.79 1211.2 L1536.03 1216.42 L1539.27 1221.67 L1542.52 1226.93 L1545.76 1232.21 L1549 1237.48 L1552.25 1242.75 L1555.49 1248.02 L1558.73 1253.26 L1561.98 1258.49 L1565.22 1263.69 L1568.46 1268.86 L1571.7 1274 L1574.95 1279.09 L1578.19 1284.14 L1581.43 1289.14 L1584.68 1294.09 L1587.92 1298.99 L1591.16 1303.82 L1594.41 1308.6 L1597.65 1313.31 L1600.89 1317.94 L1604.13 1322.51 L1607.38 1327.01 L1610.62 1331.43 L1613.86 1335.77 L1617.11 1340.03 L1620.35 1344.21 L1623.59 1348.3 L1626.84 1352.31 L1630.08 1356.24 L1633.32 1360.07 L1636.57 1363.82 L1639.81 1367.47 L1643.05 1371.03 L1646.29 1374.51 L1649.54 1377.88 L1652.78 1381.17 L1656.02 1384.36 L1659.27 1387.46 L1662.51 1390.46 L1665.75 1393.37 L1669 1396.19 L1672.24 1398.91 L1675.48 1401.54 L1678.72 1404.07 L1681.97 1406.52 L1685.21 1408.87 L1688.45 1411.13 L1691.7 1413.31 L1694.94 1415.39 L1698.18 1417.39 L1701.43 1419.31 L1704.67 1421.14 L1707.91 1422.9 L1711.15 1424.57 L1714.4 1426.17 L1717.64 1427.69 L1720.88 1429.15 L1724.13 1430.53 L1727.37 1431.85 L1730.61 1433.1 L1733.86 1434.29 L1737.1 1435.43 L1740.34 1436.5 L1743.59 1437.53 L1746.83 1438.5 L1750.07 1439.42 L1753.31 1440.3 L1756.56 1441.12 L1759.8 1441.88 L1763.04 1442.58 L1766.29 1443.22 L1769.53 1443.79 L1772.77 1444.3 L1776.02 1444.73 L1779.26 1445.08 L1782.5 1445.36 L1785.74 1445.56 L1788.99 1445.68 L1792.23 1445.72 L1795.47 1445.66 L1798.72 1445.52 L1801.96 1445.29 L1805.2 1444.97 L1808.45 1444.56 L1811.69 1444.06 L1814.93 1443.46 L1818.17 1442.78 L1821.42 1442 L1824.66 1441.13 L1827.9 1440.17 L1831.15 1439.12 L1834.39 1437.99 L1837.63 1436.77 L1840.88 1435.46 L1844.12 1434.08 L1847.36 1432.62 L1850.61 1431.08 L1853.85 1429.47 L1857.09 1427.79 L1860.33 1426.05 L1863.58 1424.25 L1866.82 1422.39 L1870.06 1420.48 L1873.31 1418.52 L1876.55 1416.51 L1879.79 1414.44 L1883.04 1412.33 L1886.28 1410.16 L1889.52 1407.93 L1892.76 1405.65 L1896.01 1403.32 L1899.25 1400.92 L1902.49 1398.48 L1905.74 1395.97 L1908.98 1393.41 L1912.22 1390.8 L1915.47 1388.14 L1918.71 1385.42 L1921.95 1382.66 L1925.19 1379.85 L1928.44 1376.99 L1931.68 1374.1 L1934.92 1371.17 L1938.17 1368.2 L1941.41 1365.21 L1944.65 1362.19 L1947.9 1359.15 L1951.14 1356.09 L1954.38 1353.02 L1957.63 1349.93 L1960.87 1346.83 L1964.11 1343.71 L1967.35 1340.57 L1970.6 1337.41 L1973.84 1334.23 L1977.08 1331.03 L1980.33 1327.81 L1983.57 1324.56 L1986.81 1321.3 L1990.06 1318.01 L1993.3 1314.7 L1996.54 1311.37 L1999.78 1308.03 L2003.03 1304.67 L2006.27 1301.3 L2009.51 1297.92 L2012.76 1294.54 L2016 1291.15 L2019.24 1287.77 L2022.49 1284.4 L2025.73 1281.03 L2028.97 1277.69 L2032.21 1274.36 L2035.46 1271.07 L2038.7 1267.8 L2041.94 1264.56 L2045.19 1261.34 L2048.43 1258.14 L2051.67 1254.94 L2054.92 1251.76 L2058.16 1248.57 L2061.4 1245.38 L2064.65 1242.19 L2067.89 1238.98 L2071.13 1235.76 L2074.37 1232.53 L2077.62 1229.27 L2080.86 1225.99 L2084.1 1222.69 L2087.35 1219.37 L2090.59 1216.02 L2093.83 1212.64 L2097.08 1209.24 L2100.32 1205.81 L2103.56 1202.36 L2106.8 1198.88 L2110.05 1195.38 L2113.29 1191.85 L2116.53 1188.31 L2119.78 1184.74 L2123.02 1181.17 L2126.26 1177.58 L2129.51 1173.98 L2132.75 1170.38 L2135.99 1166.78 L2139.23 1163.18 L2142.48 1159.59 L2145.72 1156.01 L2148.96 1152.44 L2152.21 1148.9 L2155.45 1145.37 L2158.69 1141.86 L2161.94 1138.36 L2165.18 1134.88 L2168.42 1131.41 L2171.67 1127.95 L2174.91 1124.51 L2178.15 1121.07 L2181.39 1117.65 L2184.64 1114.24 L2187.88 1110.84 L2191.12 1107.46 L2194.37 1104.09 L2197.61 1100.73 L2200.85 1097.39 L2204.1 1094.08 L2207.34 1090.78 L2210.58 1087.52 L2213.82 1084.28 L2217.07 1081.08 L2220.31 1077.91 L2223.55 1074.79 L2226.8 1071.72 L2230.04 1068.71 L2233.28 1065.75 L2236.53 1062.86 L2239.77 1060.05 L2243.01 1057.32 L2246.25 1054.68 L2249.5 1052.13 L2252.74 1049.69 L2255.98 1047.36 L2259.23 1045.16 L2262.47 1043.09 L2265.71 1041.15 L2268.96 1039.37 L2272.2 1037.74 L2275.44 1036.29 L2278.69 1035.01 L2281.93 1033.91 L2285.17 1033.01 L2288.41 1032.3 L2291.66 1031.77 L2291.66 577.476 L2288.41 582.074 L2285.17 586.655 L2281.93 591.214 L2278.69 595.749 L2275.44 600.262 L2272.2 604.756 L2268.96 609.234 L2265.71 613.701 L2262.47 618.158 L2259.23 622.61 L2255.98 627.06 L2252.74 631.512 L2249.5 635.968 L2246.25 640.432 L2243.01 644.905 L2239.77 649.392 L2236.53 653.893 L2233.28 658.412 L2230.04 662.949 L2226.8 667.507 L2223.55 672.085 L2220.31 676.685 L2217.07 681.306 L2213.82 685.95 L2210.58 690.614 L2207.34 695.299 L2204.1 700.002 L2200.85 704.723 L2197.61 709.458 L2194.37 714.206 L2191.12 718.963 L2187.88 723.727 L2184.64 728.492 L2181.39 733.256 L2178.15 738.013 L2174.91 742.759 L2171.67 747.488 L2168.42 752.195 L2165.18 756.874 L2161.94 761.52 L2158.69 766.124 L2155.45 770.682 L2152.21 775.186 L2148.96 779.63 L2145.72 784.008 L2142.48 788.325 L2139.23 792.588 L2135.99 796.803 L2132.75 800.976 L2129.51 805.114 L2126.26 809.222 L2123.02 813.305 L2119.78 817.37 L2116.53 821.421 L2113.29 825.462 L2110.05 829.497 L2106.8 833.53 L2103.56 837.566 L2100.32 841.605 L2097.08 845.652 L2093.83 849.707 L2090.59 853.773 L2087.35 857.851 L2084.1 861.941 L2080.86 866.044 L2077.62 870.159 L2074.37 874.286 L2071.13 878.423 L2067.89 882.57 L2064.65 886.724 L2061.4 890.883 L2058.16 895.044 L2054.92 899.204 L2051.67 903.359 L2048.43 907.506 L2045.19 911.64 L2041.94 915.757 L2038.7 919.852 L2035.46 923.92 L2032.21 927.958 L2028.97 931.966 L2025.73 935.947 L2022.49 939.902 L2019.24 943.832 L2016 947.74 L2012.76 951.625 L2009.51 955.489 L2006.27 959.332 L2003.03 963.153 L1999.78 966.952 L1996.54 970.728 L1993.3 974.479 L1990.06 978.203 L1986.81 981.898 L1983.57 985.56 L1980.33 989.186 L1977.08 992.772 L1973.84 996.314 L1970.6 999.807 L1967.35 1003.24 L1964.11 1006.62 L1960.87 1009.93 L1957.63 1013.17 L1954.38 1016.33 L1951.14 1019.4 L1947.9 1022.38 L1944.65 1025.26 L1941.41 1028.06 L1938.17 1030.77 L1934.92 1033.41 L1931.68 1035.96 L1928.44 1038.43 L1925.19 1040.83 L1921.95 1043.15 L1918.71 1045.39 L1915.47 1047.56 L1912.22 1049.66 L1908.98 1051.68 L1905.74 1053.62 L1902.49 1055.48 L1899.25 1057.25 L1896.01 1058.94 L1892.76 1060.55 L1889.52 1062.06 L1886.28 1063.47 L1883.04 1064.78 L1879.79 1065.98 L1876.55 1067.07 L1873.31 1068.05 L1870.06 1068.89 L1866.82 1069.61 L1863.58 1070.21 L1860.33 1070.69 L1857.09 1071.06 L1853.85 1071.32 L1850.61 1071.49 L1847.36 1071.56 L1844.12 1071.55 L1840.88 1071.44 L1837.63 1071.26 L1834.39 1071.01 L1831.15 1070.68 L1827.9 1070.28 L1824.66 1069.81 L1821.42 1069.27 L1818.17 1068.67 L1814.93 1068 L1811.69 1067.27 L1808.45 1066.48 L1805.2 1065.62 L1801.96 1064.69 L1798.72 1063.69 L1795.47 1062.63 L1792.23 1061.49 L1788.99 1060.27 L1785.74 1058.98 L1782.5 1057.6 L1779.26 1056.14 L1776.02 1054.58 L1772.77 1052.92 L1769.53 1051.17 L1766.29 1049.3 L1763.04 1047.32 L1759.8 1045.23 L1756.56 1043 L1753.31 1040.64 L1750.07 1038.15 L1746.83 1035.5 L1743.59 1032.71 L1740.34 1029.78 L1737.1 1026.71 L1733.86 1023.52 L1730.61 1020.21 L1727.37 1016.8 L1724.13 1013.29 L1720.88 1009.7 L1717.64 1006.02 L1714.4 1002.28 L1711.15 998.478 L1707.91 994.62 L1704.67 990.716 L1701.43 986.773 L1698.18 982.799 L1694.94 978.8 L1691.7 974.782 L1688.45 970.752 L1685.21 966.716 L1681.97 962.679 L1678.72 958.647 L1675.48 954.624 L1672.24 950.616 L1669 946.627 L1665.75 942.661 L1662.51 938.723 L1659.27 934.816 L1656.02 930.943 L1652.78 927.108 L1649.54 923.314 L1646.29 919.564 L1643.05 915.86 L1639.81 912.205 L1636.57 908.6 L1633.32 905.048 L1630.08 901.551 L1626.84 898.109 L1623.59 894.724 L1620.35 891.397 L1617.11 888.129 L1613.86 884.921 L1610.62 881.772 L1607.38 878.683 L1604.13 875.654 L1600.89 872.684 L1597.65 869.774 L1594.41 866.921 L1591.16 864.126 L1587.92 861.386 L1584.68 858.701 L1581.43 856.069 L1578.19 853.487 L1574.95 850.953 L1571.7 848.465 L1568.46 846.02 L1565.22 843.615 L1561.98 841.246 L1558.73 838.91 L1555.49 836.603 L1552.25 834.321 L1549 832.059 L1545.76 829.812 L1542.52 827.576 L1539.27 825.345 L1536.03 823.113 L1532.79 820.875 L1529.55 818.624 L1526.3 816.355 L1523.06 814.062 L1519.82 811.737 L1516.57 809.374 L1513.33 806.968 L1510.09 804.521 L1506.84 802.036 L1503.6 799.515 L1500.36 796.962 L1497.11 794.379 L1493.87 791.768 L1490.63 789.132 L1487.39 786.473 L1484.14 783.792 L1480.9 781.092 L1477.66 778.374 L1474.41 775.638 L1471.17 772.884 L1467.93 770.115 L1464.68 767.328 L1461.44 764.524 L1458.2 761.702 L1454.96 758.862 L1451.71 756.001 L1448.47 753.119 L1445.23 750.213 L1441.98 747.282 L1438.74 744.326 L1435.5 741.349 L1432.25 738.357 L1429.01 735.356 L1425.77 732.352 L1422.53 729.351 L1419.28 726.358 L1416.04 723.377 L1412.8 720.412 L1409.55 717.468 L1406.31 714.548 L1403.07 711.655 L1399.82 708.791 L1396.58 705.959 L1393.34 703.159 L1390.1 700.393 L1386.85 697.661 L1383.61 694.963 L1380.37 692.298 L1377.12 689.665 L1373.88 687.062 L1370.64 684.487 L1367.39 681.937 L1364.15 679.409 L1360.91 676.898 L1357.66 674.402 L1354.42 671.913 L1351.18 669.428 L1347.94 666.941 L1344.69 664.445 L1341.45 661.933 L1338.21 659.401 L1334.96 656.848 L1331.72 654.275 L1328.48 651.682 L1325.23 649.069 L1321.99 646.435 L1318.75 643.78 L1315.51 641.103 L1312.26 638.4 L1309.02 635.671 L1305.78 632.912 L1302.53 630.119 L1299.29 627.29 L1296.05 624.418 L1292.8 621.5 L1289.56 618.532 L1286.32 615.515 L1283.08 612.453 L1279.83 609.348 L1276.59 606.202 L1273.35 603.017 L1270.1 599.793 L1266.86 596.531 L1263.62 593.231 L1260.37 589.893 L1257.13 586.516 L1253.89 583.099 L1250.64 579.646 L1247.4 576.16 L1244.16 572.644 L1240.92 569.102 L1237.67 565.536 L1234.43 561.947 L1231.19 558.335 L1227.94 554.701 L1224.7 551.043 L1221.46 547.362 L1218.21 543.655 L1214.97 539.918 L1211.73 536.15 L1208.49 532.346 L1205.24 528.502 L1202 524.614 L1198.76 520.681 L1195.51 516.702 L1192.27 512.674 L1189.03 508.597 L1185.78 504.467 L1182.54 500.282 L1179.3 496.039 L1176.06 491.734 L1172.81 487.363 L1169.57 482.922 L1166.33 478.407 L1163.08 473.823 L1159.84 469.176 L1156.6 464.47 L1153.35 459.711 L1150.11 454.903 L1146.87 450.051 L1143.62 445.157 L1140.38 440.226 L1137.14 435.259 L1133.9 430.259 L1130.65 425.228 L1127.41 420.167 L1124.17 415.077 L1120.92 409.959 L1117.68 404.814 L1114.44 399.64 L1111.19 394.44 L1107.95 389.211 L1104.71 383.955 L1101.47 378.679 L1098.22 373.39 L1094.98 368.096 L1091.74 362.805 L1088.49 357.524 L1085.25 352.259 L1082.01 347.017 L1078.76 341.806 L1075.52 336.63 L1072.28 331.496 L1069.04 326.41 L1065.79 321.376 L1062.55 316.4 L1059.31 311.487 L1056.06 306.64 L1052.82 301.864 L1049.58 297.163 L1046.33 292.541 L1043.09 288 L1039.85 283.544 L1036.6 279.176 L1033.36 274.897 L1030.12 270.711 L1026.88 266.62 L1023.63 262.624 L1020.39 258.726 L1017.15 254.927 L1013.9 251.228 L1010.66 247.63 L1007.42 244.132 L1004.17 240.736 L1000.93 237.441 L997.688 234.247 L994.445 231.152 L991.202 228.157 L987.959 225.259 L984.716 222.458 L981.473 219.75 L978.23 217.134 L974.987 214.607 L971.744 212.166 L968.501 209.807 L965.258 207.527 L962.015 205.32 L958.772 203.183 L955.529 201.11 L952.286 199.096 L949.043 197.133 L945.8 195.217 L942.557 193.339 L939.314 191.494 L936.071 189.672 L932.828 187.866 L929.585 186.067 L926.342 184.267 L923.099 182.458 L919.856 180.63 L916.613 178.775 L913.37 176.885 L910.127 174.95 L906.884 172.963 L903.641 170.917 L900.398 168.808 L897.155 166.633 L893.911 164.391 L890.668 162.087 L887.425 159.729 L884.182 157.322 L880.939 154.875 L877.696 152.396 L874.453 149.892 L871.21 147.371 L867.967 144.84 L864.724 142.308 L861.481 139.78 L858.238 137.264 L854.995 134.767 L851.752 132.294 L848.509 129.852 L845.266 127.446 L842.023 125.081 L838.78 122.763 L835.537 120.494 L832.294 118.281 L829.051 116.127 L825.808 114.035 L822.565 112.008 L819.322 110.05 L816.079 108.164 L812.836 106.351 L809.593 104.615 L806.35 102.957 L803.107 101.38 L799.864 99.8844 L796.621 98.4724 L793.378 97.1453 L790.135 95.9045 L786.892 94.7509 L783.648 93.6856 L780.405 92.7095 L777.162 91.8233 L773.919 91.0277 L770.676 90.3233 L767.433 89.7105 L764.19 89.1897 L760.947 88.7613 L757.704 88.4256 L754.461 88.1828 L751.218 88.033 L747.975 87.9763 L744.732 88.0127 L741.489 88.1423 L738.246 88.3651 L735.003 88.6808 L731.76 89.0894 L728.517 89.5907 L725.274 90.1846 L722.031 90.8706 L718.788 91.6487 L715.545 92.5184 L712.302 93.4793 L709.059 94.5311 L705.816 95.6734 L702.573 96.9056 L699.33 98.2273 L696.087 99.6378 L692.844 101.137 L689.601 102.723 L686.358 104.396 L683.115 106.156 L679.872 108.001 L676.629 109.93 L673.385 111.943 L670.142 114.039 L666.899 116.216 L663.656 118.473 L660.413 120.81 L657.17 123.224 L653.927 125.715 L650.684 128.281 L647.441 130.92 L644.198 133.632 L640.955 136.413 L637.712 139.262 L634.469 142.178 L631.226 145.158 L627.983 148.199 L624.74 151.3 L621.497 154.458 L618.254 157.67 L615.011 160.934 L611.768 164.247 L608.525 167.605 L605.282 171.006 L602.039 174.446 L598.796 177.923 L595.553 181.432 L592.31 184.97 L589.067 188.534 L585.824 192.119 L582.581 195.723 L579.338 199.341 L576.095 202.97 L572.852 206.606 L569.609 210.246 L566.366 213.887 L563.122 217.526 L559.879 221.165 L556.636 224.807 L553.393 228.455 L550.15 232.113 L546.907 235.783 L543.664 239.469 L540.421 243.174 L537.178 246.901 L533.935 250.653 L530.692 254.433 L527.449 258.244 L524.206 262.089 L520.963 265.971 L517.72 269.89 L514.477 273.849 L511.234 277.851 L507.991 281.896 L504.748 285.985 L501.505 290.12 L498.262 294.3 L495.019 298.527 L491.776 302.799 L488.533 307.118 L485.29 311.48 L482.047 315.887 L478.804 320.335 L475.561 324.823 L472.318 329.349 L469.075 333.91 L465.832 338.503 L462.589 343.125 L459.346 347.771 L456.103 352.437 L452.859 357.119 L449.616 361.811 L446.373 366.507 L443.13 371.202 L439.887 375.888 L436.644 380.56 L433.401 385.208 L430.158 389.827 L426.915 394.407 L423.672 398.939 L420.429 403.415 L417.186 407.825 L413.943 412.159 L410.7 416.408 L407.457 420.564 L404.214 424.627 L400.971 428.599 L397.728 432.481 L394.485 436.277 L391.242 439.986 L387.999 443.611 L384.756 447.152 L381.513 450.61 L378.27 453.986 L375.027 457.279 L371.784 460.489 L368.541 463.617 L365.298 466.66 L362.055 469.62 L358.812 472.495 L355.569 475.287 L352.326 478.001 L349.083 480.638 L345.84 483.201 L342.596 485.692 L339.353 488.113 L336.11 490.465 L332.867 492.748 L329.624 494.964 L326.381 497.111 L323.138 499.189 L319.895 501.197 L316.652 503.132 L313.409 504.993 L310.166 506.777 L306.923 508.479 L303.68 510.097 L300.437 511.626 L297.194 513.061 L293.951 514.397 L290.708 515.628 L287.465 516.749 L284.222 517.752 L280.979 518.632 L277.736 519.382 L274.493 519.994 L271.25 520.462 L268.007 520.778 L264.764 520.935 L261.521 520.928 L258.278 520.763 L255.035 520.447  Z" fill="#3da44d" fill-rule="evenodd" fill-opacity="0.1"/>
<polyline clip-path="url(#clip141)" style="stroke:#3da44d; stroke-linecap:round; stroke-linejoin:round; stroke-width:8; stroke-opacity:1; fill:none" points="255.035,734.729 258.278,732.52 261.521,730.246 264.764,727.907 268.007,725.501 271.25,723.029 274.493,720.496 277.736,717.903 280.979,715.254 284.222,712.55 287.465,709.794 290.708,706.99 293.951,704.139 297.194,701.245 300.437,698.309 303.68,695.334 306.923,692.323 310.166,689.278 313.409,686.201 316.652,683.096 319.895,679.964 323.138,676.808 326.381,673.63 329.624,670.433 332.867,667.22 336.11,663.991 339.353,660.751 342.596,657.501 345.84,654.244 349.083,650.983 352.326,647.719 355.569,644.455 358.812,641.194 362.055,637.938 365.298,634.689 368.541,631.445 371.784,628.204 375.027,624.965 378.27,621.725 381.513,618.482 384.756,615.234 387.999,611.978 391.242,608.714 394.485,605.438 397.728,602.149 400.971,598.844 404.214,595.522 407.457,592.181 410.7,588.818 413.943,585.433 417.186,582.025 420.429,578.597 423.672,575.15 426.915,571.685 430.158,568.203 433.401,564.707 436.644,561.198 439.887,557.677 443.13,554.145 446.373,550.605 449.616,547.057 452.859,543.504 456.103,539.946 459.346,536.386 462.589,532.825 465.832,529.264 469.075,525.705 472.318,522.151 475.561,518.601 478.804,515.059 482.047,511.526 485.29,508.004 488.533,504.495 491.776,500.999 495.019,497.52 498.262,494.059 501.505,490.618 504.748,487.199 507.991,483.805 511.234,480.436 514.477,477.095 517.72,473.785 520.963,470.507 524.206,467.264 527.449,464.058 530.692,460.892 533.935,457.767 537.178,454.686 540.421,451.652 543.664,448.666 546.907,445.733 550.15,442.854 553.393,440.032 556.636,437.271 559.879,434.571 563.122,431.938 566.366,429.373 569.609,426.88 572.852,424.455 576.095,422.097 579.338,419.803 582.581,417.572 585.824,415.4 589.067,413.285 592.31,411.226 595.553,409.22 598.796,407.265 602.039,405.36 605.282,403.502 608.525,401.689 611.768,399.921 615.011,398.194 618.254,396.508 621.497,394.861 624.74,393.251 627.983,391.677 631.226,390.137 634.469,388.631 637.712,387.157 640.955,385.713 644.198,384.298 647.441,382.912 650.684,381.552 653.927,380.219 657.17,378.911 660.413,377.627 663.656,376.367 666.899,375.128 670.142,373.912 673.385,372.716 676.629,371.541 679.872,370.385 683.115,369.248 686.358,368.13 689.601,367.029 692.844,365.946 696.087,364.88 699.33,363.831 702.573,362.798 705.816,361.782 709.059,360.781 712.302,359.796 715.545,358.827 718.788,357.873 722.031,356.935 725.274,356.012 728.517,355.105 731.76,354.214 735.003,353.339 738.246,352.48 741.489,351.637 744.732,350.811 747.975,350.002 751.218,349.21 754.461,348.436 757.704,347.681 760.947,346.944 764.19,346.227 767.433,345.53 770.676,344.854 773.919,344.2 777.162,343.568 780.405,342.959 783.648,342.375 786.892,341.815 790.135,341.282 793.378,340.776 796.621,340.299 799.864,339.851 803.107,339.433 806.35,339.048 809.593,338.697 812.836,338.38 816.079,338.099 819.322,337.856 822.565,337.653 825.808,337.491 829.051,337.372 832.294,337.297 835.537,337.269 838.78,337.289 842.023,337.36 845.266,337.483 848.509,337.66 851.752,337.895 854.995,338.189 858.238,338.544 861.481,338.963 864.724,339.448 867.967,340.002 871.21,340.628 874.453,341.329 877.696,342.106 880.939,342.964 884.182,343.905 887.425,344.932 890.668,346.049 893.911,347.258 897.155,348.564 900.398,349.968 903.641,351.475 906.884,353.086 910.127,354.802 913.37,356.621 916.613,358.539 919.856,360.552 923.099,362.658 926.342,364.852 929.585,367.132 932.828,369.494 936.071,371.935 939.314,374.452 942.557,377.042 945.8,379.703 949.043,382.431 952.286,385.224 955.529,388.079 958.772,390.994 962.015,393.966 965.258,396.993 968.501,400.072 971.744,403.201 974.987,406.379 978.23,409.601 981.473,412.868 984.716,416.176 987.959,419.524 991.202,422.909 994.445,426.33 997.688,429.786 1000.93,433.273 1004.17,436.791 1007.42,440.338 1010.66,443.912 1013.9,447.512 1017.15,451.136 1020.39,454.782 1023.63,458.45 1026.88,462.138 1030.12,465.844 1033.36,469.567 1036.6,473.306 1039.85,477.06 1043.09,480.827 1046.33,484.607 1049.58,488.397 1052.82,492.198 1056.06,496.008 1059.31,499.825 1062.55,503.649 1065.79,507.48 1069.04,511.315 1072.28,515.155 1075.52,518.997 1078.76,522.842 1082.01,526.688 1085.25,530.535 1088.49,534.382 1091.74,538.227 1094.98,542.071 1098.22,545.912 1101.47,549.751 1104.71,553.585 1107.95,557.415 1111.19,561.239 1114.44,565.057 1117.68,568.868 1120.92,572.671 1124.17,576.464 1127.41,580.247 1130.65,584.019 1133.9,587.779 1137.14,591.527 1140.38,595.26 1143.62,598.978 1146.87,602.681 1150.11,606.367 1153.35,610.035 1156.6,613.685 1159.84,617.316 1163.08,620.927 1166.33,624.517 1169.57,628.085 1172.81,631.631 1176.06,635.156 1179.3,638.664 1182.54,642.157 1185.78,645.637 1189.03,649.107 1192.27,652.569 1195.51,656.027 1198.76,659.481 1202,662.936 1205.24,666.394 1208.49,669.856 1211.73,673.323 1214.97,676.795 1218.21,680.271 1221.46,683.752 1224.7,687.237 1227.94,690.725 1231.19,694.217 1234.43,697.712 1237.67,701.211 1240.92,704.713 1244.16,708.217 1247.4,711.725 1250.64,715.235 1253.89,718.747 1257.13,722.262 1260.37,725.778 1263.62,729.296 1266.86,732.814 1270.1,736.33 1273.35,739.845 1276.59,743.355 1279.83,746.861 1283.08,750.362 1286.32,753.855 1289.56,757.34 1292.8,760.817 1296.05,764.283 1299.29,767.739 1302.53,771.185 1305.78,774.623 1309.02,778.051 1312.26,781.47 1315.51,784.882 1318.75,788.285 1321.99,791.68 1325.23,795.068 1328.48,798.449 1331.72,801.823 1334.96,805.19 1338.21,808.551 1341.45,811.906 1344.69,815.255 1347.94,818.599 1351.18,821.938 1354.42,825.273 1357.66,828.604 1360.91,831.933 1364.15,835.26 1367.39,838.584 1370.64,841.908 1373.88,845.231 1377.12,848.554 1380.37,851.877 1383.61,855.201 1386.85,858.527 1390.1,861.855 1393.34,865.185 1396.58,868.519 1399.82,871.856 1403.07,875.197 1406.31,878.543 1409.55,881.894 1412.8,885.25 1416.04,888.612 1419.28,891.981 1422.53,895.357 1425.77,898.74 1429.01,902.13 1432.25,905.53 1435.5,908.937 1438.74,912.354 1441.98,915.781 1445.23,919.217 1448.47,922.664 1451.71,926.121 1454.96,929.588 1458.2,933.065 1461.44,936.553 1464.68,940.052 1467.93,943.561 1471.17,947.081 1474.41,950.612 1477.66,954.154 1480.9,957.707 1484.14,961.271 1487.39,964.846 1490.63,968.432 1493.87,972.029 1497.11,975.637 1500.36,979.256 1503.6,982.886 1506.84,986.528 1510.09,990.18 1513.33,993.842 1516.57,997.516 1519.82,1001.2 1523.06,1004.9 1526.3,1008.6 1529.55,1012.31 1532.79,1016.04 1536.03,1019.77 1539.27,1023.51 1542.52,1027.26 1545.76,1031.01 1549,1034.77 1552.25,1038.54 1555.49,1042.31 1558.73,1046.09 1561.98,1049.87 1565.22,1053.65 1568.46,1057.44 1571.7,1061.23 1574.95,1065.02 1578.19,1068.81 1581.43,1072.61 1584.68,1076.4 1587.92,1080.19 1591.16,1083.97 1594.41,1087.76 1597.65,1091.54 1600.89,1095.31 1604.13,1099.08 1607.38,1102.85 1610.62,1106.6 1613.86,1110.34 1617.11,1114.08 1620.35,1117.8 1623.59,1121.51 1626.84,1125.21 1630.08,1128.89 1633.32,1132.56 1636.57,1136.21 1639.81,1139.84 1643.05,1143.45 1646.29,1147.03 1649.54,1150.6 1652.78,1154.14 1656.02,1157.65 1659.27,1161.14 1662.51,1164.59 1665.75,1168.02 1669,1171.41 1672.24,1174.76 1675.48,1178.08 1678.72,1181.36 1681.97,1184.6 1685.21,1187.79 1688.45,1190.94 1691.7,1194.04 1694.94,1197.1 1698.18,1200.1 1701.43,1203.04 1704.67,1205.93 1707.91,1208.76 1711.15,1211.52 1714.4,1214.23 1717.64,1216.86 1720.88,1219.42 1724.13,1221.91 1727.37,1224.32 1730.61,1226.65 1733.86,1228.9 1737.1,1231.07 1740.34,1233.14 1743.59,1235.12 1746.83,1237 1750.07,1238.79 1753.31,1240.47 1756.56,1242.06 1759.8,1243.55 1763.04,1244.95 1766.29,1246.26 1769.53,1247.48 1772.77,1248.61 1776.02,1249.65 1779.26,1250.61 1782.5,1251.48 1785.74,1252.27 1788.99,1252.98 1792.23,1253.6 1795.47,1254.15 1798.72,1254.61 1801.96,1254.99 1805.2,1255.29 1808.45,1255.52 1811.69,1255.67 1814.93,1255.73 1818.17,1255.72 1821.42,1255.63 1824.66,1255.47 1827.9,1255.22 1831.15,1254.9 1834.39,1254.5 1837.63,1254.01 1840.88,1253.45 1844.12,1252.81 1847.36,1252.09 1850.61,1251.28 1853.85,1250.4 1857.09,1249.43 1860.33,1248.37 1863.58,1247.23 1866.82,1246 1870.06,1244.69 1873.31,1243.28 1876.55,1241.79 1879.79,1240.21 1883.04,1238.55 1886.28,1236.81 1889.52,1234.99 1892.76,1233.1 1896.01,1231.13 1899.25,1229.09 1902.49,1226.98 1905.74,1224.79 1908.98,1222.55 1912.22,1220.23 1915.47,1217.85 1918.71,1215.41 1921.95,1212.9 1925.19,1210.34 1928.44,1207.71 1931.68,1205.03 1934.92,1202.29 1938.17,1199.49 1941.41,1196.63 1944.65,1193.73 1947.9,1190.76 1951.14,1187.74 1954.38,1184.67 1957.63,1181.55 1960.87,1178.38 1964.11,1175.17 1967.35,1171.91 1970.6,1168.61 1973.84,1165.27 1977.08,1161.9 1980.33,1158.5 1983.57,1155.06 1986.81,1151.6 1990.06,1148.1 1993.3,1144.59 1996.54,1141.05 1999.78,1137.49 2003.03,1133.91 2006.27,1130.32 2009.51,1126.7 2012.76,1123.08 2016,1119.45 2019.24,1115.8 2022.49,1112.15 2025.73,1108.49 2028.97,1104.83 2032.21,1101.16 2035.46,1097.49 2038.7,1093.83 2041.94,1090.16 2045.19,1086.49 2048.43,1082.82 2051.67,1079.15 2054.92,1075.48 2058.16,1071.81 2061.4,1068.13 2064.65,1064.46 2067.89,1060.78 2071.13,1057.09 2074.37,1053.41 2077.62,1049.71 2080.86,1046.02 2084.1,1042.32 2087.35,1038.61 2090.59,1034.9 2093.83,1031.18 2097.08,1027.45 2100.32,1023.71 2103.56,1019.96 2106.8,1016.2 2110.05,1012.44 2113.29,1008.66 2116.53,1004.86 2119.78,1001.06 2123.02,997.237 2126.26,993.401 2129.51,989.549 2132.75,985.679 2135.99,981.792 2139.23,977.885 2142.48,973.957 2145.72,970.008 2148.96,966.036 2152.21,962.041 2155.45,958.024 2158.69,953.99 2161.94,949.939 2165.18,945.876 2168.42,941.802 2171.67,937.72 2174.91,933.633 2178.15,929.544 2181.39,925.454 2184.64,921.367 2187.88,917.285 2191.12,913.211 2194.37,909.147 2197.61,905.095 2200.85,901.059 2204.1,897.04 2207.34,893.041 2210.58,889.065 2213.82,885.115 2217.07,881.192 2220.31,877.299 2223.55,873.439 2226.8,869.614 2230.04,865.828 2233.28,862.082 2236.53,858.379 2239.77,854.721 2243.01,851.112 2246.25,847.554 2249.5,844.049 2252.74,840.601 2255.98,837.212 2259.23,833.885 2262.47,830.622 2265.71,827.427 2268.96,824.302 2272.2,821.25 2275.44,818.275 2278.69,815.378 2281.93,812.564 2285.17,809.834 2288.41,807.187 2291.66,804.621 "/>
<path clip-path="url(#clip140)" d="M1953.46 302.578 L2280.8 302.578 L2280.8 95.2176 L1953.46 95.2176  Z" fill="#ffffff" fill-rule="evenodd" fill-opacity="1"/>
<polyline clip-path="url(#clip140)" style="stroke:#000000; stroke-linecap:round; stroke-linejoin:round; stroke-width:4; stroke-opacity:1; fill:none" points="1953.46,302.578 2280.8,302.578 2280.8,95.2176 1953.46,95.2176 1953.46,302.578 "/>
<polyline clip-path="url(#clip140)" style="stroke:#009af9; stroke-linecap:round; stroke-linejoin:round; stroke-width:4; stroke-opacity:1; fill:none" points="1977.44,147.058 2121.36,147.058 "/>
<path clip-path="url(#clip140)" d="M2152.76 131.051 L2152.76 138.412 L2161.53 138.412 L2161.53 141.722 L2152.76 141.722 L2152.76 155.796 Q2152.76 158.967 2153.61 159.87 Q2154.49 160.773 2157.16 160.773 L2161.53 160.773 L2161.53 164.338 L2157.16 164.338 Q2152.23 164.338 2150.35 162.509 Q2148.48 160.657 2148.48 155.796 L2148.48 141.722 L2145.35 141.722 L2145.35 138.412 L2148.48 138.412 L2148.48 131.051 L2152.76 131.051 Z" fill="#000000" fill-rule="nonzero" fill-opacity="1" /><path clip-path="url(#clip140)" d="M2182.16 142.393 Q2181.44 141.977 2180.58 141.791 Q2179.75 141.583 2178.73 141.583 Q2175.12 141.583 2173.17 143.944 Q2171.25 146.282 2171.25 150.68 L2171.25 164.338 L2166.97 164.338 L2166.97 138.412 L2171.25 138.412 L2171.25 142.44 Q2172.6 140.078 2174.75 138.944 Q2176.9 137.787 2179.98 137.787 Q2180.42 137.787 2180.95 137.856 Q2181.48 137.903 2182.13 138.018 L2182.16 142.393 Z" fill="#000000" fill-rule="nonzero" fill-opacity="1" /><path clip-path="url(#clip140)" d="M2186.18 154.106 L2186.18 138.412 L2190.44 138.412 L2190.44 153.944 Q2190.44 157.625 2191.88 159.476 Q2193.31 161.305 2196.18 161.305 Q2199.63 161.305 2201.62 159.106 Q2203.64 156.907 2203.64 153.111 L2203.64 138.412 L2207.9 138.412 L2207.9 164.338 L2203.64 164.338 L2203.64 160.356 Q2202.09 162.717 2200.03 163.875 Q2197.99 165.009 2195.28 165.009 Q2190.81 165.009 2188.5 162.231 Q2186.18 159.453 2186.18 154.106 M2196.9 137.787 L2196.9 137.787 Z" fill="#000000" fill-rule="nonzero" fill-opacity="1" /><path clip-path="url(#clip140)" d="M2220.88 131.051 L2220.88 138.412 L2229.66 138.412 L2229.66 141.722 L2220.88 141.722 L2220.88 155.796 Q2220.88 158.967 2221.74 159.87 Q2222.62 160.773 2225.28 160.773 L2229.66 160.773 L2229.66 164.338 L2225.28 164.338 Q2220.35 164.338 2218.48 162.509 Q2216.6 160.657 2216.6 155.796 L2216.6 141.722 L2213.48 141.722 L2213.48 138.412 L2216.6 138.412 L2216.6 131.051 L2220.88 131.051 Z" fill="#000000" fill-rule="nonzero" fill-opacity="1" /><path clip-path="url(#clip140)" d="M2256.81 148.689 L2256.81 164.338 L2252.55 164.338 L2252.55 148.828 Q2252.55 145.148 2251.11 143.319 Q2249.68 141.49 2246.81 141.49 Q2243.36 141.49 2241.37 143.69 Q2239.38 145.889 2239.38 149.685 L2239.38 164.338 L2235.1 164.338 L2235.1 128.319 L2239.38 128.319 L2239.38 142.44 Q2240.91 140.102 2242.97 138.944 Q2245.05 137.787 2247.76 137.787 Q2252.23 137.787 2254.52 140.565 Q2256.81 143.319 2256.81 148.689 Z" fill="#000000" fill-rule="nonzero" fill-opacity="1" /><circle clip-path="url(#clip140)" cx="2049.4" cy="198.898" r="20.48" fill="#e26f46" fill-rule="evenodd" fill-opacity="1" stroke="#000000" stroke-opacity="1" stroke-width="4.55111"/>
<path clip-path="url(#clip140)" d="M2164.26 194.187 L2164.26 180.159 L2168.52 180.159 L2168.52 216.178 L2164.26 216.178 L2164.26 212.289 Q2162.92 214.603 2160.86 215.738 Q2158.82 216.849 2155.95 216.849 Q2151.25 216.849 2148.29 213.099 Q2145.35 209.349 2145.35 203.238 Q2145.35 197.127 2148.29 193.377 Q2151.25 189.627 2155.95 189.627 Q2158.82 189.627 2160.86 190.761 Q2162.92 191.872 2164.26 194.187 M2149.75 203.238 Q2149.75 207.937 2151.67 210.622 Q2153.61 213.284 2156.99 213.284 Q2160.37 213.284 2162.32 210.622 Q2164.26 207.937 2164.26 203.238 Q2164.26 198.539 2162.32 195.877 Q2160.37 193.192 2156.99 193.192 Q2153.61 193.192 2151.67 195.877 Q2149.75 198.539 2149.75 203.238 Z" fill="#000000" fill-rule="nonzero" fill-opacity="1" /><path clip-path="url(#clip140)" d="M2189.08 203.145 Q2183.92 203.145 2181.92 204.326 Q2179.93 205.506 2179.93 208.354 Q2179.93 210.622 2181.42 211.965 Q2182.92 213.284 2185.49 213.284 Q2189.03 213.284 2191.16 210.784 Q2193.31 208.261 2193.31 204.094 L2193.31 203.145 L2189.08 203.145 M2197.57 201.386 L2197.57 216.178 L2193.31 216.178 L2193.31 212.242 Q2191.85 214.603 2189.68 215.738 Q2187.5 216.849 2184.36 216.849 Q2180.37 216.849 2178.01 214.627 Q2175.67 212.381 2175.67 208.631 Q2175.67 204.256 2178.59 202.034 Q2181.53 199.812 2187.34 199.812 L2193.31 199.812 L2193.31 199.395 Q2193.31 196.455 2191.37 194.858 Q2189.45 193.238 2185.95 193.238 Q2183.73 193.238 2181.62 193.77 Q2179.52 194.303 2177.57 195.367 L2177.57 191.432 Q2179.91 190.53 2182.11 190.09 Q2184.31 189.627 2186.39 189.627 Q2192.02 189.627 2194.79 192.543 Q2197.57 195.46 2197.57 201.386 Z" fill="#000000" fill-rule="nonzero" fill-opacity="1" /><path clip-path="url(#clip140)" d="M2210.56 182.891 L2210.56 190.252 L2219.33 190.252 L2219.33 193.562 L2210.56 193.562 L2210.56 207.636 Q2210.56 210.807 2211.42 211.71 Q2212.29 212.613 2214.96 212.613 L2219.33 212.613 L2219.33 216.178 L2214.96 216.178 Q2210.03 216.178 2208.15 214.349 Q2206.28 212.497 2206.28 207.636 L2206.28 193.562 L2203.15 193.562 L2203.15 190.252 L2206.28 190.252 L2206.28 182.891 L2210.56 182.891 Z" fill="#000000" fill-rule="nonzero" fill-opacity="1" /><path clip-path="url(#clip140)" d="M2236.72 203.145 Q2231.55 203.145 2229.56 204.326 Q2227.57 205.506 2227.57 208.354 Q2227.57 210.622 2229.05 211.965 Q2230.56 213.284 2233.13 213.284 Q2236.67 213.284 2238.8 210.784 Q2240.95 208.261 2240.95 204.094 L2240.95 203.145 L2236.72 203.145 M2245.21 201.386 L2245.21 216.178 L2240.95 216.178 L2240.95 212.242 Q2239.49 214.603 2237.32 215.738 Q2235.14 216.849 2231.99 216.849 Q2228.01 216.849 2225.65 214.627 Q2223.31 212.381 2223.31 208.631 Q2223.31 204.256 2226.23 202.034 Q2229.17 199.812 2234.98 199.812 L2240.95 199.812 L2240.95 199.395 Q2240.95 196.455 2239.01 194.858 Q2237.09 193.238 2233.59 193.238 Q2231.37 193.238 2229.26 193.77 Q2227.16 194.303 2225.21 195.367 L2225.21 191.432 Q2227.55 190.53 2229.75 190.09 Q2231.95 189.627 2234.03 189.627 Q2239.66 189.627 2242.43 192.543 Q2245.21 195.46 2245.21 201.386 Z" fill="#000000" fill-rule="nonzero" fill-opacity="1" /><polyline clip-path="url(#clip140)" style="stroke:#3da44d; stroke-linecap:round; stroke-linejoin:round; stroke-width:8; stroke-opacity:1; fill:none" points="1977.44,250.738 2121.36,250.738 "/>
<path clip-path="url(#clip140)" d="M2170.91 263.087 L2170.91 253.805 L2163.27 253.805 L2163.27 249.962 L2175.54 249.962 L2175.54 264.8 Q2172.83 266.721 2169.56 267.717 Q2166.3 268.689 2162.6 268.689 Q2154.49 268.689 2149.91 263.967 Q2145.35 259.221 2145.35 250.772 Q2145.35 242.3 2149.91 237.578 Q2154.49 232.833 2162.6 232.833 Q2165.98 232.833 2169.01 233.666 Q2172.06 234.499 2174.63 236.12 L2174.63 241.096 Q2172.04 238.897 2169.12 237.786 Q2166.21 236.675 2162.99 236.675 Q2156.65 236.675 2153.45 240.217 Q2150.28 243.758 2150.28 250.772 Q2150.28 257.763 2153.45 261.305 Q2156.65 264.846 2162.99 264.846 Q2165.47 264.846 2167.41 264.43 Q2169.36 263.99 2170.91 263.087 Z" fill="#000000" fill-rule="nonzero" fill-opacity="1" /><path clip-path="url(#clip140)" d="M2188.75 237.3 L2188.75 250.286 L2194.63 250.286 Q2197.9 250.286 2199.68 248.596 Q2201.46 246.907 2201.46 243.782 Q2201.46 240.68 2199.68 238.99 Q2197.9 237.3 2194.63 237.3 L2188.75 237.3 M2184.08 233.458 L2194.63 233.458 Q2200.44 233.458 2203.41 236.096 Q2206.39 238.712 2206.39 243.782 Q2206.39 248.897 2203.41 251.513 Q2200.44 254.129 2194.63 254.129 L2188.75 254.129 L2188.75 268.018 L2184.08 268.018 L2184.08 233.458 Z" fill="#000000" fill-rule="nonzero" fill-opacity="1" /></svg>
