<?xml version="1.0" encoding="utf-8"?>
<svg xmlns="http://www.w3.org/2000/svg" xmlns:xlink="http://www.w3.org/1999/xlink" width="600" height="400" viewBox="0 0 2400 1600">
<defs>
  <clipPath id="clip870">
    <rect x="0" y="0" width="2400" height="1600"/>
  </clipPath>
</defs>
<path clip-path="url(#clip870)" d="M0 1600 L2400 1600 L2400 0 L0 0  Z" fill="#ffffff" fill-rule="evenodd" fill-opacity="1"/>
<defs>
  <clipPath id="clip871">
    <rect x="193" y="47" width="2160" height="1440"/>
  </clipPath>
</defs>
<path clip-path="url(#clip870)" d="M193.936 1486.45 L2352.76 1486.45 L2352.76 47.2441 L193.936 47.2441  Z" fill="#ffffff" fill-rule="evenodd" fill-opacity="1"/>
<polyline clip-path="url(#clip871)" style="stroke:#000000; stroke-linecap:round; stroke-linejoin:round; stroke-width:2; stroke-opacity:0.1; fill:none" points="255.035,1486.45 255.035,47.2441 "/>
<polyline clip-path="url(#clip871)" style="stroke:#000000; stroke-linecap:round; stroke-linejoin:round; stroke-width:2; stroke-opacity:0.1; fill:none" points="579.338,1486.45 579.338,47.2441 "/>
<polyline clip-path="url(#clip871)" style="stroke:#000000; stroke-linecap:round; stroke-linejoin:round; stroke-width:2; stroke-opacity:0.1; fill:none" points="903.641,1486.45 903.641,47.2441 "/>
<polyline clip-path="url(#clip871)" style="stroke:#000000; stroke-linecap:round; stroke-linejoin:round; stroke-width:2; stroke-opacity:0.1; fill:none" points="1227.94,1486.45 1227.94,47.2441 "/>
<polyline clip-path="url(#clip871)" style="stroke:#000000; stroke-linecap:round; stroke-linejoin:round; stroke-width:2; stroke-opacity:0.1; fill:none" points="1552.25,1486.45 1552.25,47.2441 "/>
<polyline clip-path="url(#clip871)" style="stroke:#000000; stroke-linecap:round; stroke-linejoin:round; stroke-width:2; stroke-opacity:0.1; fill:none" points="1876.55,1486.45 1876.55,47.2441 "/>
<polyline clip-path="url(#clip871)" style="stroke:#000000; stroke-linecap:round; stroke-linejoin:round; stroke-width:2; stroke-opacity:0.1; fill:none" points="2200.85,1486.45 2200.85,47.2441 "/>
<polyline clip-path="url(#clip871)" style="stroke:#000000; stroke-linecap:round; stroke-linejoin:round; stroke-width:2; stroke-opacity:0.1; fill:none" points="193.936,1329.99 2352.76,1329.99 "/>
<polyline clip-path="url(#clip871)" style="stroke:#000000; stroke-linecap:round; stroke-linejoin:round; stroke-width:2; stroke-opacity:0.1; fill:none" points="193.936,1068.87 2352.76,1068.87 "/>
<polyline clip-path="url(#clip871)" style="stroke:#000000; stroke-linecap:round; stroke-linejoin:round; stroke-width:2; stroke-opacity:0.1; fill:none" points="193.936,807.745 2352.76,807.745 "/>
<polyline clip-path="url(#clip871)" style="stroke:#000000; stroke-linecap:round; stroke-linejoin:round; stroke-width:2; stroke-opacity:0.1; fill:none" points="193.936,546.622 2352.76,546.622 "/>
<polyline clip-path="url(#clip871)" style="stroke:#000000; stroke-linecap:round; stroke-linejoin:round; stroke-width:2; stroke-opacity:0.1; fill:none" points="193.936,285.499 2352.76,285.499 "/>
<polyline clip-path="url(#clip870)" style="stroke:#000000; stroke-linecap:round; stroke-linejoin:round; stroke-width:4; stroke-opacity:1; fill:none" points="193.936,1486.45 2352.76,1486.45 "/>
<polyline clip-path="url(#clip870)" style="stroke:#000000; stroke-linecap:round; stroke-linejoin:round; stroke-width:4; stroke-opacity:1; fill:none" points="255.035,1486.45 255.035,1467.55 "/>
<polyline clip-path="url(#clip870)" style="stroke:#000000; stroke-linecap:round; stroke-linejoin:round; stroke-width:4; stroke-opacity:1; fill:none" points="579.338,1486.45 579.338,1467.55 "/>
<polyline clip-path="url(#clip870)" style="stroke:#000000; stroke-linecap:round; stroke-linejoin:round; stroke-width:4; stroke-opacity:1; fill:none" points="903.641,1486.45 903.641,1467.55 "/>
<polyline clip-path="url(#clip870)" style="stroke:#000000; stroke-linecap:round; stroke-linejoin:round; stroke-width:4; stroke-opacity:1; fill:none" points="1227.94,1486.45 1227.94,1467.55 "/>
<polyline clip-path="url(#clip870)" style="stroke:#000000; stroke-linecap:round; stroke-linejoin:round; stroke-width:4; stroke-opacity:1; fill:none" points="1552.25,1486.45 1552.25,1467.55 "/>
<polyline clip-path="url(#clip870)" style="stroke:#000000; stroke-linecap:round; stroke-linejoin:round; stroke-width:4; stroke-opacity:1; fill:none" points="1876.55,1486.45 1876.55,1467.55 "/>
<polyline clip-path="url(#clip870)" style="stroke:#000000; stroke-linecap:round; stroke-linejoin:round; stroke-width:4; stroke-opacity:1; fill:none" points="2200.85,1486.45 2200.85,1467.55 "/>
<path clip-path="url(#clip870)" d="M255.035 1517.37 Q251.424 1517.37 249.595 1520.93 Q247.789 1524.47 247.789 1531.6 Q247.789 1538.71 249.595 1542.27 Q251.424 1545.82 255.035 1545.82 Q258.669 1545.82 260.474 1542.27 Q262.303 1538.71 262.303 1531.6 Q262.303 1524.47 260.474 1520.93 Q258.669 1517.37 255.035 1517.37 M255.035 1513.66 Q260.845 1513.66 263.9 1518.27 Q266.979 1522.85 266.979 1531.6 Q266.979 1540.33 263.9 1544.94 Q260.845 1549.52 255.035 1549.52 Q249.225 1549.52 246.146 1544.94 Q243.09 1540.33 243.09 1531.6 Q243.09 1522.85 246.146 1518.27 Q249.225 1513.66 255.035 1513.66 Z" fill="#000000" fill-rule="nonzero" fill-opacity="1" /><path clip-path="url(#clip870)" d="M569.72 1544.91 L577.358 1544.91 L577.358 1518.55 L569.048 1520.21 L569.048 1515.95 L577.312 1514.29 L581.988 1514.29 L581.988 1544.91 L589.627 1544.91 L589.627 1548.85 L569.72 1548.85 L569.72 1544.91 Z" fill="#000000" fill-rule="nonzero" fill-opacity="1" /><path clip-path="url(#clip870)" d="M898.293 1544.91 L914.613 1544.91 L914.613 1548.85 L892.668 1548.85 L892.668 1544.91 Q895.33 1542.16 899.914 1537.53 Q904.52 1532.88 905.701 1531.53 Q907.946 1529.01 908.826 1527.27 Q909.729 1525.51 909.729 1523.82 Q909.729 1521.07 907.784 1519.33 Q905.863 1517.6 902.761 1517.6 Q900.562 1517.6 898.108 1518.36 Q895.678 1519.13 892.9 1520.68 L892.9 1515.95 Q895.724 1514.82 898.178 1514.24 Q900.631 1513.66 902.668 1513.66 Q908.039 1513.66 911.233 1516.35 Q914.428 1519.03 914.428 1523.52 Q914.428 1525.65 913.617 1527.57 Q912.83 1529.47 910.724 1532.07 Q910.145 1532.74 907.043 1535.95 Q903.942 1539.15 898.293 1544.91 Z" fill="#000000" fill-rule="nonzero" fill-opacity="1" /><path clip-path="url(#clip870)" d="M1232.19 1530.21 Q1235.55 1530.93 1237.42 1533.2 Q1239.32 1535.47 1239.32 1538.8 Q1239.32 1543.92 1235.8 1546.72 Q1232.28 1549.52 1225.8 1549.52 Q1223.63 1549.52 1221.31 1549.08 Q1219.02 1548.66 1216.57 1547.81 L1216.57 1543.29 Q1218.51 1544.43 1220.83 1545.01 Q1223.14 1545.58 1225.66 1545.58 Q1230.06 1545.58 1232.35 1543.85 Q1234.67 1542.11 1234.67 1538.8 Q1234.67 1535.75 1232.52 1534.03 Q1230.39 1532.3 1226.57 1532.3 L1222.54 1532.3 L1222.54 1528.45 L1226.75 1528.45 Q1230.2 1528.45 1232.03 1527.09 Q1233.86 1525.7 1233.86 1523.11 Q1233.86 1520.45 1231.96 1519.03 Q1230.08 1517.6 1226.57 1517.6 Q1224.64 1517.6 1222.45 1518.01 Q1220.25 1518.43 1217.61 1519.31 L1217.61 1515.14 Q1220.27 1514.4 1222.58 1514.03 Q1224.92 1513.66 1226.98 1513.66 Q1232.31 1513.66 1235.41 1516.09 Q1238.51 1518.5 1238.51 1522.62 Q1238.51 1525.49 1236.87 1527.48 Q1235.22 1529.45 1232.19 1530.21 Z" fill="#000000" fill-rule="nonzero" fill-opacity="1" /><path clip-path="url(#clip870)" d="M1555.26 1518.36 L1543.45 1536.81 L1555.26 1536.81 L1555.26 1518.36 M1554.03 1514.29 L1559.91 1514.29 L1559.91 1536.81 L1564.84 1536.81 L1564.84 1540.7 L1559.91 1540.7 L1559.91 1548.85 L1555.26 1548.85 L1555.26 1540.7 L1539.65 1540.7 L1539.65 1536.19 L1554.03 1514.29 Z" fill="#000000" fill-rule="nonzero" fill-opacity="1" /><path clip-path="url(#clip870)" d="M1866.83 1514.29 L1885.18 1514.29 L1885.18 1518.22 L1871.11 1518.22 L1871.11 1526.7 Q1872.13 1526.35 1873.15 1526.19 Q1874.17 1526 1875.18 1526 Q1880.97 1526 1884.35 1529.17 Q1887.73 1532.34 1887.73 1537.76 Q1887.73 1543.34 1884.26 1546.44 Q1880.79 1549.52 1874.47 1549.52 Q1872.29 1549.52 1870.02 1549.15 Q1867.78 1548.78 1865.37 1548.04 L1865.37 1543.34 Q1867.45 1544.47 1869.67 1545.03 Q1871.9 1545.58 1874.37 1545.58 Q1878.38 1545.58 1880.72 1543.48 Q1883.05 1541.37 1883.05 1537.76 Q1883.05 1534.15 1880.72 1532.04 Q1878.38 1529.94 1874.37 1529.94 Q1872.5 1529.94 1870.62 1530.35 Q1868.77 1530.77 1866.83 1531.65 L1866.83 1514.29 Z" fill="#000000" fill-rule="nonzero" fill-opacity="1" /><path clip-path="url(#clip870)" d="M2201.26 1529.7 Q2198.11 1529.7 2196.26 1531.86 Q2194.43 1534.01 2194.43 1537.76 Q2194.43 1541.49 2196.26 1543.66 Q2198.11 1545.82 2201.26 1545.82 Q2204.41 1545.82 2206.23 1543.66 Q2208.09 1541.49 2208.09 1537.76 Q2208.09 1534.01 2206.23 1531.86 Q2204.41 1529.7 2201.26 1529.7 M2210.54 1515.05 L2210.54 1519.31 Q2208.78 1518.48 2206.98 1518.04 Q2205.19 1517.6 2203.43 1517.6 Q2198.8 1517.6 2196.35 1520.72 Q2193.92 1523.85 2193.57 1530.17 Q2194.94 1528.15 2197 1527.09 Q2199.06 1526 2201.54 1526 Q2206.74 1526 2209.75 1529.17 Q2212.79 1532.32 2212.79 1537.76 Q2212.79 1543.08 2209.64 1546.3 Q2206.49 1549.52 2201.26 1549.52 Q2195.26 1549.52 2192.09 1544.94 Q2188.92 1540.33 2188.92 1531.6 Q2188.92 1523.41 2192.81 1518.55 Q2196.7 1513.66 2203.25 1513.66 Q2205.01 1513.66 2206.79 1514.01 Q2208.6 1514.36 2210.54 1515.05 Z" fill="#000000" fill-rule="nonzero" fill-opacity="1" /><polyline clip-path="url(#clip870)" style="stroke:#000000; stroke-linecap:round; stroke-linejoin:round; stroke-width:4; stroke-opacity:1; fill:none" points="193.936,1486.45 193.936,47.2441 "/>
<polyline clip-path="url(#clip870)" style="stroke:#000000; stroke-linecap:round; stroke-linejoin:round; stroke-width:4; stroke-opacity:1; fill:none" points="193.936,1329.99 212.834,1329.99 "/>
<polyline clip-path="url(#clip870)" style="stroke:#000000; stroke-linecap:round; stroke-linejoin:round; stroke-width:4; stroke-opacity:1; fill:none" points="193.936,1068.87 212.834,1068.87 "/>
<polyline clip-path="url(#clip870)" style="stroke:#000000; stroke-linecap:round; stroke-linejoin:round; stroke-width:4; stroke-opacity:1; fill:none" points="193.936,807.745 212.834,807.745 "/>
<polyline clip-path="url(#clip870)" style="stroke:#000000; stroke-linecap:round; stroke-linejoin:round; stroke-width:4; stroke-opacity:1; fill:none" points="193.936,546.622 212.834,546.622 "/>
<polyline clip-path="url(#clip870)" style="stroke:#000000; stroke-linecap:round; stroke-linejoin:round; stroke-width:4; stroke-opacity:1; fill:none" points="193.936,285.499 212.834,285.499 "/>
<path clip-path="url(#clip870)" d="M50.9921 1330.44 L80.6679 1330.44 L80.6679 1334.38 L50.9921 1334.38 L50.9921 1330.44 Z" fill="#000000" fill-rule="nonzero" fill-opacity="1" /><path clip-path="url(#clip870)" d="M91.5706 1343.34 L99.2095 1343.34 L99.2095 1316.97 L90.8993 1318.64 L90.8993 1314.38 L99.1632 1312.71 L103.839 1312.71 L103.839 1343.34 L111.478 1343.34 L111.478 1347.27 L91.5706 1347.27 L91.5706 1343.34 Z" fill="#000000" fill-rule="nonzero" fill-opacity="1" /><path clip-path="url(#clip870)" d="M120.922 1341.39 L125.807 1341.39 L125.807 1347.27 L120.922 1347.27 L120.922 1341.39 Z" fill="#000000" fill-rule="nonzero" fill-opacity="1" /><path clip-path="url(#clip870)" d="M145.992 1315.79 Q142.381 1315.79 140.552 1319.35 Q138.746 1322.9 138.746 1330.02 Q138.746 1337.13 140.552 1340.7 Q142.381 1344.24 145.992 1344.24 Q149.626 1344.24 151.431 1340.7 Q153.26 1337.13 153.26 1330.02 Q153.26 1322.9 151.431 1319.35 Q149.626 1315.79 145.992 1315.79 M145.992 1312.09 Q151.802 1312.09 154.857 1316.69 Q157.936 1321.28 157.936 1330.02 Q157.936 1338.75 154.857 1343.36 Q151.802 1347.94 145.992 1347.94 Q140.181 1347.94 137.103 1343.36 Q134.047 1338.75 134.047 1330.02 Q134.047 1321.28 137.103 1316.69 Q140.181 1312.09 145.992 1312.09 Z" fill="#000000" fill-rule="nonzero" fill-opacity="1" /><path clip-path="url(#clip870)" d="M51.9875 1069.32 L81.6633 1069.32 L81.6633 1073.25 L51.9875 1073.25 L51.9875 1069.32 Z" fill="#000000" fill-rule="nonzero" fill-opacity="1" /><path clip-path="url(#clip870)" d="M101.756 1054.67 Q98.1447 1054.67 96.316 1058.23 Q94.5104 1061.77 94.5104 1068.9 Q94.5104 1076.01 96.316 1079.57 Q98.1447 1083.12 101.756 1083.12 Q105.39 1083.12 107.196 1079.57 Q109.024 1076.01 109.024 1068.9 Q109.024 1061.77 107.196 1058.23 Q105.39 1054.67 101.756 1054.67 M101.756 1050.96 Q107.566 1050.96 110.621 1055.57 Q113.7 1060.15 113.7 1068.9 Q113.7 1077.63 110.621 1082.24 Q107.566 1086.82 101.756 1086.82 Q95.9456 1086.82 92.8669 1082.24 Q89.8114 1077.63 89.8114 1068.9 Q89.8114 1060.15 92.8669 1055.57 Q95.9456 1050.96 101.756 1050.96 Z" fill="#000000" fill-rule="nonzero" fill-opacity="1" /><path clip-path="url(#clip870)" d="M121.918 1080.27 L126.802 1080.27 L126.802 1086.15 L121.918 1086.15 L121.918 1080.27 Z" fill="#000000" fill-rule="nonzero" fill-opacity="1" /><path clip-path="url(#clip870)" d="M137.033 1051.59 L155.39 1051.59 L155.39 1055.52 L141.316 1055.52 L141.316 1063.99 Q142.334 1063.65 143.353 1063.49 Q144.371 1063.3 145.39 1063.3 Q151.177 1063.3 154.556 1066.47 Q157.936 1069.64 157.936 1075.06 Q157.936 1080.64 154.464 1083.74 Q150.992 1086.82 144.672 1086.82 Q142.496 1086.82 140.228 1086.45 Q137.982 1086.08 135.575 1085.34 L135.575 1080.64 Q137.658 1081.77 139.881 1082.33 Q142.103 1082.88 144.58 1082.88 Q148.584 1082.88 150.922 1080.78 Q153.26 1078.67 153.26 1075.06 Q153.26 1071.45 150.922 1069.34 Q148.584 1067.24 144.58 1067.24 Q142.705 1067.24 140.83 1067.65 Q138.978 1068.07 137.033 1068.95 L137.033 1051.59 Z" fill="#000000" fill-rule="nonzero" fill-opacity="1" /><path clip-path="url(#clip870)" d="M100.76 793.543 Q97.1493 793.543 95.3206 797.108 Q93.515 800.65 93.515 807.779 Q93.515 814.886 95.3206 818.451 Q97.1493 821.992 100.76 821.992 Q104.395 821.992 106.2 818.451 Q108.029 814.886 108.029 807.779 Q108.029 800.65 106.2 797.108 Q104.395 793.543 100.76 793.543 M100.76 789.84 Q106.571 789.84 109.626 794.446 Q112.705 799.029 112.705 807.779 Q112.705 816.506 109.626 821.113 Q106.571 825.696 100.76 825.696 Q94.9502 825.696 91.8715 821.113 Q88.816 816.506 88.816 807.779 Q88.816 799.029 91.8715 794.446 Q94.9502 789.84 100.76 789.84 Z" fill="#000000" fill-rule="nonzero" fill-opacity="1" /><path clip-path="url(#clip870)" d="M120.922 819.145 L125.807 819.145 L125.807 825.025 L120.922 825.025 L120.922 819.145 Z" fill="#000000" fill-rule="nonzero" fill-opacity="1" /><path clip-path="url(#clip870)" d="M145.992 793.543 Q142.381 793.543 140.552 797.108 Q138.746 800.65 138.746 807.779 Q138.746 814.886 140.552 818.451 Q142.381 821.992 145.992 821.992 Q149.626 821.992 151.431 818.451 Q153.26 814.886 153.26 807.779 Q153.26 800.65 151.431 797.108 Q149.626 793.543 145.992 793.543 M145.992 789.84 Q151.802 789.84 154.857 794.446 Q157.936 799.029 157.936 807.779 Q157.936 816.506 154.857 821.113 Q151.802 825.696 145.992 825.696 Q140.181 825.696 137.103 821.113 Q134.047 816.506 134.047 807.779 Q134.047 799.029 137.103 794.446 Q140.181 789.84 145.992 789.84 Z" fill="#000000" fill-rule="nonzero" fill-opacity="1" /><path clip-path="url(#clip870)" d="M101.756 532.421 Q98.1447 532.421 96.316 535.985 Q94.5104 539.527 94.5104 546.657 Q94.5104 553.763 96.316 557.328 Q98.1447 560.869 101.756 560.869 Q105.39 560.869 107.196 557.328 Q109.024 553.763 109.024 546.657 Q109.024 539.527 107.196 535.985 Q105.39 532.421 101.756 532.421 M101.756 528.717 Q107.566 528.717 110.621 533.323 Q113.7 537.907 113.7 546.657 Q113.7 555.383 110.621 559.99 Q107.566 564.573 101.756 564.573 Q95.9456 564.573 92.8669 559.99 Q89.8114 555.383 89.8114 546.657 Q89.8114 537.907 92.8669 533.323 Q95.9456 528.717 101.756 528.717 Z" fill="#000000" fill-rule="nonzero" fill-opacity="1" /><path clip-path="url(#clip870)" d="M121.918 558.022 L126.802 558.022 L126.802 563.902 L121.918 563.902 L121.918 558.022 Z" fill="#000000" fill-rule="nonzero" fill-opacity="1" /><path clip-path="url(#clip870)" d="M137.033 529.342 L155.39 529.342 L155.39 533.277 L141.316 533.277 L141.316 541.749 Q142.334 541.402 143.353 541.24 Q144.371 541.055 145.39 541.055 Q151.177 541.055 154.556 544.226 Q157.936 547.397 157.936 552.814 Q157.936 558.393 154.464 561.494 Q150.992 564.573 144.672 564.573 Q142.496 564.573 140.228 564.203 Q137.982 563.832 135.575 563.092 L135.575 558.393 Q137.658 559.527 139.881 560.082 Q142.103 560.638 144.58 560.638 Q148.584 560.638 150.922 558.531 Q153.26 556.425 153.26 552.814 Q153.26 549.203 150.922 547.096 Q148.584 544.99 144.58 544.99 Q142.705 544.99 140.83 545.407 Q138.978 545.823 137.033 546.703 L137.033 529.342 Z" fill="#000000" fill-rule="nonzero" fill-opacity="1" /><path clip-path="url(#clip870)" d="M91.5706 298.844 L99.2095 298.844 L99.2095 272.478 L90.8993 274.145 L90.8993 269.886 L99.1632 268.219 L103.839 268.219 L103.839 298.844 L111.478 298.844 L111.478 302.779 L91.5706 302.779 L91.5706 298.844 Z" fill="#000000" fill-rule="nonzero" fill-opacity="1" /><path clip-path="url(#clip870)" d="M120.922 296.899 L125.807 296.899 L125.807 302.779 L120.922 302.779 L120.922 296.899 Z" fill="#000000" fill-rule="nonzero" fill-opacity="1" /><path clip-path="url(#clip870)" d="M145.992 271.298 Q142.381 271.298 140.552 274.862 Q138.746 278.404 138.746 285.534 Q138.746 292.64 140.552 296.205 Q142.381 299.747 145.992 299.747 Q149.626 299.747 151.431 296.205 Q153.26 292.64 153.26 285.534 Q153.26 278.404 151.431 274.862 Q149.626 271.298 145.992 271.298 M145.992 267.594 Q151.802 267.594 154.857 272.2 Q157.936 276.784 157.936 285.534 Q157.936 294.261 154.857 298.867 Q151.802 303.45 145.992 303.45 Q140.181 303.45 137.103 298.867 Q134.047 294.261 134.047 285.534 Q134.047 276.784 137.103 272.2 Q140.181 267.594 145.992 267.594 Z" fill="#000000" fill-rule="nonzero" fill-opacity="1" /><polyline clip-path="url(#clip871)" style="stroke:#009af9; stroke-linecap:round; stroke-linejoin:round; stroke-width:4; stroke-opacity:1; fill:none" points="255.035,807.745 258.278,802.522 261.521,797.3 264.764,792.08 268.007,786.86 271.25,781.643 274.493,776.429 277.736,771.217 280.979,766.01 284.222,760.806 287.465,755.607 290.708,750.413 293.951,745.225 297.194,740.044 300.437,734.869 303.68,729.701 306.923,724.541 310.166,719.39 313.409,714.247 316.652,709.114 319.895,703.99 323.138,698.877 326.381,693.775 329.624,688.684 332.867,683.605 336.11,678.539 339.353,673.485 342.596,668.445 345.84,663.419 349.083,658.407 352.326,653.411 355.569,648.429 358.812,643.464 362.055,638.515 365.298,633.582 368.541,628.668 371.784,623.771 375.027,618.893 378.27,614.033 381.513,609.193 384.756,604.373 387.999,599.573 391.242,594.794 394.485,590.036 397.728,585.3 400.971,580.586 404.214,575.895 407.457,571.227 410.7,566.582 413.943,561.962 417.186,557.367 420.429,552.796 423.672,548.251 426.915,543.732 430.158,539.239 433.401,534.774 436.644,530.335 439.887,525.924 443.13,521.542 446.373,517.188 449.616,512.863 452.859,508.567 456.103,504.302 459.346,500.066 462.589,495.862 465.832,491.689 469.075,487.547 472.318,483.437 475.561,479.36 478.804,475.316 482.047,471.305 485.29,467.327 488.533,463.384 491.776,459.475 495.019,455.601 498.262,451.762 501.505,447.958 504.748,444.191 507.991,440.46 511.234,436.766 514.477,433.109 517.72,429.489 520.963,425.907 524.206,422.363 527.449,418.858 530.692,415.392 533.935,411.965 537.178,408.577 540.421,405.23 543.664,401.922 546.907,398.656 550.15,395.43 553.393,392.245 556.636,389.102 559.879,386.001 563.122,382.942 566.366,379.925 569.609,376.952 572.852,374.021 576.095,371.134 579.338,368.29 582.581,365.49 585.824,362.735 589.067,360.024 592.31,357.358 595.553,354.737 598.796,352.161 602.039,349.631 605.282,347.146 608.525,344.708 611.768,342.315 615.011,339.97 618.254,337.671 621.497,335.419 624.74,333.215 627.983,331.058 631.226,328.948 634.469,326.887 637.712,324.873 640.955,322.908 644.198,320.991 647.441,319.123 650.684,317.304 653.927,315.534 657.17,313.813 660.413,312.142 663.656,310.52 666.899,308.947 670.142,307.425 673.385,305.953 676.629,304.531 679.872,303.159 683.115,301.837 686.358,300.567 689.601,299.347 692.844,298.177 696.087,297.059 699.33,295.992 702.573,294.976 705.816,294.011 709.059,293.098 712.302,292.236 715.545,291.426 718.788,290.667 722.031,289.96 725.274,289.305 728.517,288.701 731.76,288.15 735.003,287.65 738.246,287.203 741.489,286.807 744.732,286.464 747.975,286.173 751.218,285.934 754.461,285.747 757.704,285.612 760.947,285.529 764.19,285.499 767.433,285.521 770.676,285.595 773.919,285.722 777.162,285.9 780.405,286.131 783.648,286.414 786.892,286.749 790.135,287.136 793.378,287.575 796.621,288.067 799.864,288.61 803.107,289.205 806.35,289.852 809.593,290.551 812.836,291.301 816.079,292.103 819.322,292.957 822.565,293.862 825.808,294.819 829.051,295.827 832.294,296.886 835.537,297.996 838.78,299.157 842.023,300.369 845.266,301.632 848.509,302.945 851.752,304.309 854.995,305.723 858.238,307.187 861.481,308.702 864.724,310.266 867.967,311.88 871.21,313.544 874.453,315.257 877.696,317.019 880.939,318.83 884.182,320.691 887.425,322.599 890.668,324.557 893.911,326.563 897.155,328.617 900.398,330.719 903.641,332.868 906.884,335.065 910.127,337.309 913.37,339.601 916.613,341.939 919.856,344.324 923.099,346.755 926.342,349.232 929.585,351.755 932.828,354.323 936.071,356.937 939.314,359.596 942.557,362.3 945.8,365.049 949.043,367.841 952.286,370.678 955.529,373.558 958.772,376.482 962.015,379.449 965.258,382.459 968.501,385.511 971.744,388.605 974.987,391.742 978.23,394.92 981.473,398.139 984.716,401.399 987.959,404.7 991.202,408.041 994.445,411.423 997.688,414.843 1000.93,418.303 1004.17,421.802 1007.42,425.34 1010.66,428.916 1013.9,432.53 1017.15,436.181 1020.39,439.869 1023.63,443.594 1026.88,447.356 1030.12,451.154 1033.36,454.987 1036.6,458.856 1039.85,462.759 1043.09,466.697 1046.33,470.669 1049.58,474.675 1052.82,478.714 1056.06,482.786 1059.31,486.89 1062.55,491.027 1065.79,495.195 1069.04,499.395 1072.28,503.625 1075.52,507.886 1078.76,512.176 1082.01,516.497 1085.25,520.846 1088.49,525.224 1091.74,529.631 1094.98,534.065 1098.22,538.526 1101.47,543.015 1104.71,547.53 1107.95,552.071 1111.19,556.637 1114.44,561.229 1117.68,565.845 1120.92,570.485 1124.17,575.15 1127.41,579.837 1130.65,584.547 1133.9,589.28 1137.14,594.034 1140.38,598.81 1143.62,603.607 1146.87,608.424 1150.11,613.261 1153.35,618.117 1156.6,622.993 1159.84,627.887 1163.08,632.799 1166.33,637.728 1169.57,642.674 1172.81,647.637 1176.06,652.616 1179.3,657.611 1182.54,662.62 1185.78,667.644 1189.03,672.682 1192.27,677.733 1195.51,682.798 1198.76,687.875 1202,692.964 1205.24,698.064 1208.49,703.175 1211.73,708.297 1214.97,713.429 1218.21,718.57 1221.46,723.72 1224.7,728.879 1227.94,734.045 1231.19,739.219 1234.43,744.4 1237.67,749.587 1240.92,754.78 1244.16,759.978 1247.4,765.18 1250.64,770.388 1253.89,775.598 1257.13,780.813 1260.37,786.029 1263.62,791.248 1266.86,796.469 1270.1,801.691 1273.35,806.913 1276.59,812.135 1279.83,817.357 1283.08,822.578 1286.32,827.798 1289.56,833.015 1292.8,838.23 1296.05,843.442 1299.29,848.651 1302.53,853.855 1305.78,859.055 1309.02,864.249 1312.26,869.438 1315.51,874.621 1318.75,879.797 1321.99,884.966 1325.23,890.127 1328.48,895.28 1331.72,900.424 1334.96,905.558 1338.21,910.684 1341.45,915.798 1344.69,920.902 1347.94,925.995 1351.18,931.076 1354.42,936.144 1357.66,941.2 1360.91,946.242 1364.15,951.271 1367.39,956.285 1370.64,961.284 1373.88,966.268 1377.12,971.236 1380.37,976.188 1383.61,981.122 1386.85,986.04 1390.1,990.94 1393.34,995.821 1396.58,1000.68 1399.82,1005.53 1403.07,1010.35 1406.31,1015.15 1409.55,1019.94 1412.8,1024.7 1416.04,1029.44 1419.28,1034.15 1422.53,1038.85 1425.77,1043.52 1429.01,1048.17 1432.25,1052.79 1435.5,1057.39 1438.74,1061.97 1441.98,1066.52 1445.23,1071.04 1448.47,1075.54 1451.71,1080.01 1454.96,1084.45 1458.2,1088.86 1461.44,1093.25 1464.68,1097.61 1467.93,1101.94 1471.17,1106.24 1474.41,1110.51 1477.66,1114.75 1480.9,1118.96 1484.14,1123.14 1487.39,1127.28 1490.63,1131.4 1493.87,1135.48 1497.11,1139.53 1500.36,1143.55 1503.6,1147.53 1506.84,1151.48 1510.09,1155.39 1513.33,1159.27 1516.57,1163.12 1519.82,1166.93 1523.06,1170.7 1526.3,1174.44 1529.55,1178.14 1532.79,1181.8 1536.03,1185.43 1539.27,1189.01 1542.52,1192.56 1545.76,1196.08 1549,1199.55 1552.25,1202.98 1555.49,1206.38 1558.73,1209.73 1561.98,1213.04 1565.22,1216.32 1568.46,1219.55 1571.7,1222.74 1574.95,1225.89 1578.19,1229 1581.43,1232.06 1584.68,1235.09 1587.92,1238.07 1591.16,1241 1594.41,1243.9 1597.65,1246.75 1600.89,1249.56 1604.13,1252.32 1607.38,1255.04 1610.62,1257.71 1613.86,1260.34 1617.11,1262.92 1620.35,1265.46 1623.59,1267.95 1626.84,1270.4 1630.08,1272.8 1633.32,1275.15 1636.57,1277.46 1639.81,1279.71 1643.05,1281.93 1646.29,1284.09 1649.54,1286.21 1652.78,1288.28 1656.02,1290.3 1659.27,1292.27 1662.51,1294.2 1665.75,1296.07 1669,1297.9 1672.24,1299.68 1675.48,1301.41 1678.72,1303.08 1681.97,1304.71 1685.21,1306.29 1688.45,1307.83 1691.7,1309.31 1694.94,1310.74 1698.18,1312.12 1701.43,1313.44 1704.67,1314.72 1707.91,1315.95 1711.15,1317.13 1714.4,1318.26 1717.64,1319.33 1720.88,1320.35 1724.13,1321.33 1727.37,1322.25 1730.61,1323.12 1733.86,1323.94 1737.1,1324.71 1740.34,1325.42 1743.59,1326.08 1746.83,1326.7 1750.07,1327.26 1753.31,1327.76 1756.56,1328.22 1759.8,1328.62 1763.04,1328.97 1766.29,1329.27 1769.53,1329.52 1772.77,1329.72 1776.02,1329.86 1779.26,1329.95 1782.5,1329.99 1785.74,1329.98 1788.99,1329.91 1792.23,1329.79 1795.47,1329.62 1798.72,1329.4 1801.96,1329.12 1805.2,1328.8 1808.45,1328.42 1811.69,1327.99 1814.93,1327.5 1818.17,1326.97 1821.42,1326.38 1824.66,1325.74 1827.9,1325.05 1831.15,1324.31 1834.39,1323.52 1837.63,1322.67 1840.88,1321.77 1844.12,1320.83 1847.36,1319.83 1850.61,1318.78 1853.85,1317.67 1857.09,1316.52 1860.33,1315.32 1863.58,1314.06 1866.82,1312.76 1870.06,1311.4 1873.31,1310 1876.55,1308.54 1879.79,1307.03 1883.04,1305.48 1886.28,1303.87 1889.52,1302.21 1892.76,1300.51 1896.01,1298.75 1899.25,1296.95 1902.49,1295.1 1905.74,1293.2 1908.98,1291.25 1912.22,1289.25 1915.47,1287.2 1918.71,1285.11 1921.95,1282.97 1925.19,1280.78 1928.44,1278.54 1931.68,1276.26 1934.92,1273.93 1938.17,1271.55 1941.41,1269.12 1944.65,1266.66 1947.9,1264.14 1951.14,1261.58 1954.38,1258.97 1957.63,1256.32 1960.87,1253.62 1964.11,1250.88 1967.35,1248.1 1970.6,1245.27 1973.84,1242.39 1977.08,1239.48 1980.33,1236.52 1983.57,1233.51 1986.81,1230.47 1990.06,1227.38 1993.3,1224.25 1996.54,1221.08 1999.78,1217.87 2003.03,1214.61 2006.27,1211.32 2009.51,1207.98 2012.76,1204.61 2016,1201.19 2019.24,1197.74 2022.49,1194.25 2025.73,1190.72 2028.97,1187.15 2032.21,1183.54 2035.46,1179.89 2038.7,1176.21 2041.94,1172.49 2045.19,1168.73 2048.43,1164.94 2051.67,1161.12 2054.92,1157.25 2058.16,1153.35 2061.4,1149.42 2064.65,1145.46 2067.89,1141.45 2071.13,1137.42 2074.37,1133.35 2077.62,1129.25 2080.86,1125.12 2084.1,1120.96 2087.35,1116.77 2090.59,1112.54 2093.83,1108.28 2097.08,1104 2100.32,1099.68 2103.56,1095.34 2106.8,1090.96 2110.05,1086.56 2113.29,1082.13 2116.53,1077.68 2119.78,1073.19 2123.02,1068.68 2126.26,1064.14 2129.51,1059.58 2132.75,1054.99 2135.99,1050.38 2139.23,1045.74 2142.48,1041.08 2145.72,1036.4 2148.96,1031.69 2152.21,1026.96 2155.45,1022.21 2158.69,1017.44 2161.94,1012.65 2165.18,1007.83 2168.42,1003 2171.67,998.147 2174.91,993.274 2178.15,988.383 2181.39,983.474 2184.64,978.548 2187.88,973.604 2191.12,968.644 2194.37,963.667 2197.61,958.675 2200.85,953.668 2204.1,948.647 2207.34,943.611 2210.58,938.561 2213.82,933.499 2217.07,928.424 2220.31,923.337 2223.55,918.238 2226.8,913.129 2230.04,908.008 2233.28,902.878 2236.53,897.738 2239.77,892.59 2243.01,887.432 2246.25,882.267 2249.5,877.095 2252.74,871.915 2255.98,866.729 2259.23,861.537 2262.47,856.34 2265.71,851.138 2268.96,845.931 2272.2,840.721 2275.44,835.507 2278.69,830.291 2281.93,825.072 2285.17,819.852 2288.41,814.63 2291.66,809.408 "/>
<circle clip-path="url(#clip871)" cx="1380.37" cy="893.29" r="14.4" fill="#e26f46" fill-rule="evenodd" fill-opacity="1" stroke="#000000" stroke-opacity="1" stroke-width="3.2"/>
<circle clip-path="url(#clip871)" cx="452.859" cy="556.944" r="14.4" fill="#e26f46" fill-rule="evenodd" fill-opacity="1" stroke="#000000" stroke-opacity="1" stroke-width="3.2"/>
<circle clip-path="url(#clip871)" cx="1772.77" cy="1389.34" r="14.4" fill="#e26f46" fill-rule="evenodd" fill-opacity="1" stroke="#000000" stroke-opacity="1" stroke-width="3.2"/>
<circle clip-path="url(#clip871)" cx="1782.5" cy="1295.76" r="14.4" fill="#e26f46" fill-rule="evenodd" fill-opacity="1" stroke="#000000" stroke-opacity="1" stroke-width="3.2"/>
<circle clip-path="url(#clip871)" cx="1315.51" cy="836.414" r="14.4" fill="#e26f46" fill-rule="evenodd" fill-opacity="1" stroke="#000000" stroke-opacity="1" stroke-width="3.2"/>
<circle clip-path="url(#clip871)" cx="1688.45" cy="1256.37" r="14.4" fill="#e26f46" fill-rule="evenodd" fill-opacity="1" stroke="#000000" stroke-opacity="1" stroke-width="3.2"/>
<circle clip-path="url(#clip871)" cx="452.859" cy="450.728" r="14.4" fill="#e26f46" fill-rule="evenodd" fill-opacity="1" stroke="#000000" stroke-opacity="1" stroke-width="3.2"/>
<circle clip-path="url(#clip871)" cx="1247.4" cy="783.068" r="14.4" fill="#e26f46" fill-rule="evenodd" fill-opacity="1" stroke="#000000" stroke-opacity="1" stroke-width="3.2"/>
<circle clip-path="url(#clip871)" cx="404.214" cy="521.009" r="14.4" fill="#e26f46" fill-rule="evenodd" fill-opacity="1" stroke="#000000" stroke-opacity="1" stroke-width="3.2"/>
<circle clip-path="url(#clip871)" cx="1331.72" cy="794.757" r="14.4" fill="#e26f46" fill-rule="evenodd" fill-opacity="1" stroke="#000000" stroke-opacity="1" stroke-width="3.2"/>
<circle clip-path="url(#clip871)" cx="2259.23" cy="888.128" r="14.4" fill="#e26f46" fill-rule="evenodd" fill-opacity="1" stroke="#000000" stroke-opacity="1" stroke-width="3.2"/>
<circle clip-path="url(#clip871)" cx="981.473" cy="287.975" r="14.4" fill="#e26f46" fill-rule="evenodd" fill-opacity="1" stroke="#000000" stroke-opacity="1" stroke-width="3.2"/>
<circle clip-path="url(#clip871)" cx="1043.09" cy="539.563" r="14.4" fill="#e26f46" fill-rule="evenodd" fill-opacity="1" stroke="#000000" stroke-opacity="1" stroke-width="3.2"/>
<circle clip-path="url(#clip871)" cx="491.776" cy="572.724" r="14.4" fill="#e26f46" fill-rule="evenodd" fill-opacity="1" stroke="#000000" stroke-opacity="1" stroke-width="3.2"/>
<circle clip-path="url(#clip871)" cx="462.589" cy="585.579" r="14.4" fill="#e26f46" fill-rule="evenodd" fill-opacity="1" stroke="#000000" stroke-opacity="1" stroke-width="3.2"/>
<circle clip-path="url(#clip871)" cx="624.74" cy="298.111" r="14.4" fill="#e26f46" fill-rule="evenodd" fill-opacity="1" stroke="#000000" stroke-opacity="1" stroke-width="3.2"/>
<circle clip-path="url(#clip871)" cx="556.636" cy="477.325" r="14.4" fill="#e26f46" fill-rule="evenodd" fill-opacity="1" stroke="#000000" stroke-opacity="1" stroke-width="3.2"/>
<circle clip-path="url(#clip871)" cx="1192.27" cy="777.668" r="14.4" fill="#e26f46" fill-rule="evenodd" fill-opacity="1" stroke="#000000" stroke-opacity="1" stroke-width="3.2"/>
<circle clip-path="url(#clip871)" cx="1717.64" cy="1338.48" r="14.4" fill="#e26f46" fill-rule="evenodd" fill-opacity="1" stroke="#000000" stroke-opacity="1" stroke-width="3.2"/>
<circle clip-path="url(#clip871)" cx="1889.52" cy="1236.97" r="14.4" fill="#e26f46" fill-rule="evenodd" fill-opacity="1" stroke="#000000" stroke-opacity="1" stroke-width="3.2"/>
<path clip-path="url(#clip871)" d="M255.035 1007.74 L258.278 1002.82 L261.521 997.849 L264.764 992.815 L268.007 987.723 L271.25 982.573 L274.493 977.365 L277.736 972.099 L280.979 966.776 L284.222 961.396 L287.465 955.96 L290.708 950.469 L293.951 944.922 L297.194 939.322 L300.437 933.668 L303.68 927.963 L306.923 922.206 L310.166 916.4 L313.409 910.546 L316.652 904.646 L319.895 898.7 L323.138 892.712 L326.381 886.683 L329.624 880.615 L332.867 874.512 L336.11 868.375 L339.353 862.207 L342.596 856.012 L345.84 849.794 L349.083 843.555 L352.326 837.301 L355.569 831.035 L358.812 824.762 L362.055 818.488 L365.298 812.219 L368.541 805.959 L371.784 799.716 L375.027 793.496 L378.27 787.308 L381.513 781.159 L384.756 775.059 L387.999 769.015 L391.242 763.039 L394.485 757.141 L397.728 751.332 L400.971 745.625 L404.214 740.03 L407.457 734.561 L410.7 729.22 L413.943 724.011 L417.186 718.937 L420.429 714.002 L423.672 709.212 L426.915 704.572 L430.158 700.089 L433.401 695.769 L436.644 691.622 L439.887 687.654 L443.13 683.877 L446.373 680.298 L449.616 676.928 L452.859 673.777 L456.103 670.85 L459.346 668.142 L462.589 665.642 L465.832 663.341 L469.075 661.225 L472.318 659.278 L475.561 657.486 L478.804 655.836 L482.047 654.313 L485.29 652.906 L488.533 651.601 L491.776 650.388 L495.019 649.256 L498.262 648.192 L501.505 647.184 L504.748 646.222 L507.991 645.296 L511.234 644.398 L514.477 643.52 L517.72 642.657 L520.963 641.806 L524.206 640.962 L527.449 640.125 L530.692 639.294 L533.935 638.47 L537.178 637.654 L540.421 636.85 L543.664 636.061 L546.907 635.291 L550.15 634.546 L553.393 633.833 L556.636 633.158 L559.879 632.526 L563.122 631.94 L566.366 631.398 L569.609 630.902 L572.852 630.453 L576.095 630.053 L579.338 629.703 L582.581 629.407 L585.824 629.168 L589.067 628.989 L592.31 628.876 L595.553 628.832 L598.796 628.864 L602.039 628.977 L605.282 629.176 L608.525 629.47 L611.768 629.864 L615.011 630.365 L618.254 630.981 L621.497 631.719 L624.74 632.588 L627.983 633.591 L631.226 634.722 L634.469 635.972 L637.712 637.331 L640.955 638.79 L644.198 640.34 L647.441 641.971 L650.684 643.677 L653.927 645.447 L657.17 647.275 L660.413 649.153 L663.656 651.073 L666.899 653.028 L670.142 655.012 L673.385 657.017 L676.629 659.039 L679.872 661.071 L683.115 663.107 L686.358 665.142 L689.601 667.171 L692.844 669.189 L696.087 671.192 L699.33 673.176 L702.573 675.136 L705.816 677.068 L709.059 678.969 L712.302 680.835 L715.545 682.663 L718.788 684.451 L722.031 686.194 L725.274 687.891 L728.517 689.539 L731.76 691.135 L735.003 692.678 L738.246 694.165 L741.489 695.594 L744.732 696.964 L747.975 698.272 L751.218 699.518 L754.461 700.7 L757.704 701.817 L760.947 702.867 L764.19 703.85 L767.433 704.764 L770.676 705.609 L773.919 706.384 L777.162 707.088 L780.405 707.721 L783.648 708.283 L786.892 708.773 L790.135 709.191 L793.378 709.536 L796.621 709.81 L799.864 710.012 L803.107 710.142 L806.35 710.2 L809.593 710.187 L812.836 710.103 L816.079 709.95 L819.322 709.726 L822.565 709.435 L825.808 709.075 L829.051 708.649 L832.294 708.157 L835.537 707.601 L838.78 706.982 L842.023 706.301 L845.266 705.56 L848.509 704.76 L851.752 703.905 L854.995 702.994 L858.238 702.031 L861.481 701.018 L864.724 699.957 L867.967 698.851 L871.21 697.702 L874.453 696.513 L877.696 695.288 L880.939 694.029 L884.182 692.74 L887.425 691.425 L890.668 690.087 L893.911 688.731 L897.155 687.361 L900.398 685.98 L903.641 684.595 L906.884 683.21 L910.127 681.831 L913.37 680.463 L916.613 679.111 L919.856 677.783 L923.099 676.484 L926.342 675.223 L929.585 674.005 L932.828 672.838 L936.071 671.731 L939.314 670.692 L942.557 669.729 L945.8 668.852 L949.043 668.07 L952.286 667.393 L955.529 666.832 L958.772 666.397 L962.015 666.1 L965.258 665.951 L968.501 665.962 L971.744 666.147 L974.987 666.516 L978.23 667.083 L981.473 667.86 L984.716 668.857 L987.959 670.07 L991.202 671.491 L994.445 673.115 L997.688 674.935 L1000.93 676.943 L1004.17 679.133 L1007.42 681.5 L1010.66 684.037 L1013.9 686.739 L1017.15 689.6 L1020.39 692.614 L1023.63 695.778 L1026.88 699.085 L1030.12 702.533 L1033.36 706.116 L1036.6 709.831 L1039.85 713.674 L1043.09 717.641 L1046.33 721.727 L1049.58 725.921 L1052.82 730.21 L1056.06 734.582 L1059.31 739.025 L1062.55 743.526 L1065.79 748.075 L1069.04 752.659 L1072.28 757.27 L1075.52 761.896 L1078.76 766.528 L1082.01 771.157 L1085.25 775.774 L1088.49 780.371 L1091.74 784.941 L1094.98 789.475 L1098.22 793.969 L1101.47 798.415 L1104.71 802.808 L1107.95 807.144 L1111.19 811.417 L1114.44 815.623 L1117.68 819.759 L1120.92 823.822 L1124.17 827.808 L1127.41 831.717 L1130.65 835.545 L1133.9 839.291 L1137.14 842.956 L1140.38 846.537 L1143.62 850.036 L1146.87 853.453 L1150.11 856.788 L1153.35 860.043 L1156.6 863.219 L1159.84 866.32 L1163.08 869.346 L1166.33 872.302 L1169.57 875.191 L1172.81 878.016 L1176.06 880.782 L1179.3 883.492 L1182.54 886.153 L1185.78 888.769 L1189.03 891.346 L1192.27 893.889 L1195.51 896.402 L1198.76 898.888 L1202 901.345 L1205.24 903.775 L1208.49 906.177 L1211.73 908.553 L1214.97 910.903 L1218.21 913.23 L1221.46 915.535 L1224.7 917.821 L1227.94 920.09 L1231.19 922.347 L1234.43 924.594 L1237.67 926.837 L1240.92 929.08 L1244.16 931.329 L1247.4 933.589 L1250.64 935.866 L1253.89 938.158 L1257.13 940.466 L1260.37 942.789 L1263.62 945.126 L1266.86 947.48 L1270.1 949.852 L1273.35 952.243 L1276.59 954.657 L1279.83 957.098 L1283.08 959.57 L1286.32 962.08 L1289.56 964.634 L1292.8 967.239 L1296.05 969.903 L1299.29 972.635 L1302.53 975.446 L1305.78 978.345 L1309.02 981.344 L1312.26 984.454 L1315.51 987.688 L1318.75 991.055 L1321.99 994.563 L1325.23 998.215 L1328.48 1002.02 L1331.72 1005.97 L1334.96 1010.09 L1338.21 1014.35 L1341.45 1018.77 L1344.69 1023.33 L1347.94 1028.02 L1351.18 1032.84 L1354.42 1037.79 L1357.66 1042.87 L1360.91 1048.06 L1364.15 1053.37 L1367.39 1058.79 L1370.64 1064.31 L1373.88 1069.95 L1377.12 1075.69 L1380.37 1081.54 L1383.61 1087.49 L1386.85 1093.53 L1390.1 1099.65 L1393.34 1105.84 L1396.58 1112.09 L1399.82 1118.39 L1403.07 1124.73 L1406.31 1131.11 L1409.55 1137.51 L1412.8 1143.93 L1416.04 1150.36 L1419.28 1156.78 L1422.53 1163.21 L1425.77 1169.62 L1429.01 1176.01 L1432.25 1182.38 L1435.5 1188.73 L1438.74 1195.04 L1441.98 1201.31 L1445.23 1207.54 L1448.47 1213.72 L1451.71 1219.85 L1454.96 1225.92 L1458.2 1231.94 L1461.44 1237.9 L1464.68 1243.79 L1467.93 1249.62 L1471.17 1255.38 L1474.41 1261.06 L1477.66 1266.67 L1480.9 1272.2 L1484.14 1277.66 L1487.39 1283.03 L1490.63 1288.32 L1493.87 1293.53 L1497.11 1298.64 L1500.36 1303.67 L1503.6 1308.62 L1506.84 1313.47 L1510.09 1318.22 L1513.33 1322.89 L1516.57 1327.46 L1519.82 1331.93 L1523.06 1336.31 L1526.3 1340.59 L1529.55 1344.77 L1532.79 1348.85 L1536.03 1352.83 L1539.27 1356.71 L1542.52 1360.48 L1545.76 1364.16 L1549 1367.73 L1552.25 1371.2 L1555.49 1374.56 L1558.73 1377.82 L1561.98 1380.98 L1565.22 1384.03 L1568.46 1386.97 L1571.7 1389.81 L1574.95 1392.55 L1578.19 1395.17 L1581.43 1397.7 L1584.68 1400.11 L1587.92 1402.43 L1591.16 1404.64 L1594.41 1406.74 L1597.65 1408.74 L1600.89 1410.64 L1604.13 1412.43 L1607.38 1414.13 L1610.62 1415.72 L1613.86 1417.22 L1617.11 1418.62 L1620.35 1419.92 L1623.59 1421.13 L1626.84 1422.25 L1630.08 1423.28 L1633.32 1424.22 L1636.57 1425.08 L1639.81 1425.86 L1643.05 1426.56 L1646.29 1427.19 L1649.54 1427.74 L1652.78 1428.24 L1656.02 1428.67 L1659.27 1429.04 L1662.51 1429.37 L1665.75 1429.65 L1669 1429.89 L1672.24 1430.1 L1675.48 1430.29 L1678.72 1430.47 L1681.97 1430.63 L1685.21 1430.8 L1688.45 1430.97 L1691.7 1431.16 L1694.94 1431.37 L1698.18 1431.6 L1701.43 1431.84 L1704.67 1432.1 L1707.91 1432.37 L1711.15 1432.67 L1714.4 1432.98 L1717.64 1433.32 L1720.88 1433.67 L1724.13 1434.05 L1727.37 1434.43 L1730.61 1434.83 L1733.86 1435.23 L1737.1 1435.64 L1740.34 1436.05 L1743.59 1436.47 L1746.83 1436.88 L1750.07 1437.29 L1753.31 1437.7 L1756.56 1438.11 L1759.8 1438.52 L1763.04 1438.93 L1766.29 1439.34 L1769.53 1439.76 L1772.77 1440.19 L1776.02 1440.63 L1779.26 1441.07 L1782.5 1441.53 L1785.74 1441.99 L1788.99 1442.45 L1792.23 1442.91 L1795.47 1443.35 L1798.72 1443.77 L1801.96 1444.16 L1805.2 1444.51 L1808.45 1444.83 L1811.69 1445.11 L1814.93 1445.33 L1818.17 1445.51 L1821.42 1445.63 L1824.66 1445.7 L1827.9 1445.72 L1831.15 1445.67 L1834.39 1445.58 L1837.63 1445.42 L1840.88 1445.22 L1844.12 1444.96 L1847.36 1444.66 L1850.61 1444.32 L1853.85 1443.93 L1857.09 1443.51 L1860.33 1443.05 L1863.58 1442.57 L1866.82 1442.07 L1870.06 1441.55 L1873.31 1441.03 L1876.55 1440.5 L1879.79 1439.97 L1883.04 1439.46 L1886.28 1438.96 L1889.52 1438.48 L1892.76 1438.03 L1896.01 1437.6 L1899.25 1437.19 L1902.49 1436.8 L1905.74 1436.42 L1908.98 1436.04 L1912.22 1435.67 L1915.47 1435.29 L1918.71 1434.91 L1921.95 1434.51 L1925.19 1434.11 L1928.44 1433.68 L1931.68 1433.24 L1934.92 1432.77 L1938.17 1432.27 L1941.41 1431.74 L1944.65 1431.18 L1947.9 1430.58 L1951.14 1429.94 L1954.38 1429.26 L1957.63 1428.54 L1960.87 1427.77 L1964.11 1426.96 L1967.35 1426.1 L1970.6 1425.19 L1973.84 1424.23 L1977.08 1423.21 L1980.33 1422.14 L1983.57 1421.01 L1986.81 1419.83 L1990.06 1418.59 L1993.3 1417.3 L1996.54 1415.94 L1999.78 1414.53 L2003.03 1413.05 L2006.27 1411.52 L2009.51 1409.92 L2012.76 1408.26 L2016 1406.54 L2019.24 1404.76 L2022.49 1402.92 L2025.73 1401.01 L2028.97 1399.04 L2032.21 1397.01 L2035.46 1394.92 L2038.7 1392.76 L2041.94 1390.55 L2045.19 1388.27 L2048.43 1385.93 L2051.67 1383.52 L2054.92 1381.06 L2058.16 1378.54 L2061.4 1375.95 L2064.65 1373.31 L2067.89 1370.6 L2071.13 1367.84 L2074.37 1365.02 L2077.62 1362.14 L2080.86 1359.21 L2084.1 1356.22 L2087.35 1353.17 L2090.59 1350.07 L2093.83 1346.92 L2097.08 1343.72 L2100.32 1340.46 L2103.56 1337.15 L2106.8 1333.8 L2110.05 1330.4 L2113.29 1326.95 L2116.53 1323.46 L2119.78 1319.92 L2123.02 1316.35 L2126.26 1312.73 L2129.51 1309.08 L2132.75 1305.39 L2135.99 1301.67 L2139.23 1297.92 L2142.48 1294.14 L2145.72 1290.34 L2148.96 1286.51 L2152.21 1282.66 L2155.45 1278.8 L2158.69 1274.92 L2161.94 1271.03 L2165.18 1267.14 L2168.42 1263.25 L2171.67 1259.35 L2174.91 1255.47 L2178.15 1251.59 L2181.39 1247.73 L2184.64 1243.89 L2187.88 1240.08 L2191.12 1236.3 L2194.37 1232.56 L2197.61 1228.86 L2200.85 1225.21 L2204.1 1221.63 L2207.34 1218.1 L2210.58 1214.65 L2213.82 1211.28 L2217.07 1208 L2220.31 1204.81 L2223.55 1201.73 L2226.8 1198.76 L2230.04 1195.92 L2233.28 1193.2 L2236.53 1190.63 L2239.77 1188.21 L2243.01 1185.94 L2246.25 1183.85 L2249.5 1181.93 L2252.74 1180.2 L2255.98 1178.66 L2259.23 1177.33 L2262.47 1176.2 L2265.71 1175.29 L2268.96 1174.56 L2272.2 1174.03 L2275.44 1173.68 L2278.69 1173.5 L2281.93 1173.49 L2285.17 1173.63 L2288.41 1173.92 L2291.66 1174.35 L2291.66 602.225 L2288.41 605.49 L2285.17 608.665 L2281.93 611.742 L2278.69 614.714 L2275.44 617.574 L2272.2 620.315 L2268.96 622.928 L2265.71 625.408 L2262.47 627.747 L2259.23 629.939 L2255.98 631.979 L2252.74 633.873 L2249.5 635.629 L2246.25 637.256 L2243.01 638.761 L2239.77 640.153 L2236.53 641.441 L2233.28 642.634 L2230.04 643.741 L2226.8 644.769 L2223.55 645.729 L2220.31 646.627 L2217.07 647.473 L2213.82 648.274 L2210.58 649.039 L2207.34 649.774 L2204.1 650.487 L2200.85 651.186 L2197.61 651.877 L2194.37 652.566 L2191.12 653.259 L2187.88 653.964 L2184.64 654.684 L2181.39 655.426 L2178.15 656.194 L2174.91 656.994 L2171.67 657.83 L2168.42 658.706 L2165.18 659.627 L2161.94 660.595 L2158.69 661.615 L2155.45 662.69 L2152.21 663.824 L2148.96 665.019 L2145.72 666.277 L2142.48 667.603 L2139.23 668.997 L2135.99 670.463 L2132.75 672.002 L2129.51 673.616 L2126.26 675.307 L2123.02 677.078 L2119.78 678.928 L2116.53 680.861 L2113.29 682.876 L2110.05 684.976 L2106.8 687.161 L2103.56 689.433 L2100.32 691.791 L2097.08 694.238 L2093.83 696.773 L2090.59 699.398 L2087.35 702.112 L2084.1 704.916 L2080.86 707.811 L2077.62 710.797 L2074.37 713.873 L2071.13 717.041 L2067.89 720.3 L2064.65 723.649 L2061.4 727.09 L2058.16 730.621 L2054.92 734.243 L2051.67 737.955 L2048.43 741.756 L2045.19 745.647 L2041.94 749.626 L2038.7 753.693 L2035.46 757.847 L2032.21 762.088 L2028.97 766.414 L2025.73 770.825 L2022.49 775.319 L2019.24 779.895 L2016 784.552 L2012.76 789.289 L2009.51 794.104 L2006.27 798.996 L2003.03 803.963 L1999.78 809.002 L1996.54 814.113 L1993.3 819.294 L1990.06 824.541 L1986.81 829.854 L1983.57 835.228 L1980.33 840.663 L1977.08 846.154 L1973.84 851.7 L1970.6 857.297 L1967.35 862.942 L1964.11 868.632 L1960.87 874.362 L1957.63 880.13 L1954.38 885.931 L1951.14 891.761 L1947.9 897.615 L1944.65 903.49 L1941.41 909.379 L1938.17 915.278 L1934.92 921.182 L1931.68 927.085 L1928.44 932.981 L1925.19 938.864 L1921.95 944.728 L1918.71 950.565 L1915.47 956.369 L1912.22 962.134 L1908.98 967.85 L1905.74 973.512 L1902.49 979.11 L1899.25 984.638 L1896.01 990.086 L1892.76 995.446 L1889.52 1000.71 L1886.28 1005.87 L1883.04 1010.94 L1879.79 1015.9 L1876.55 1020.78 L1873.31 1025.56 L1870.06 1030.26 L1866.82 1034.87 L1863.58 1039.41 L1860.33 1043.87 L1857.09 1048.25 L1853.85 1052.56 L1850.61 1056.79 L1847.36 1060.95 L1844.12 1065.04 L1840.88 1069.06 L1837.63 1073 L1834.39 1076.87 L1831.15 1080.65 L1827.9 1084.35 L1824.66 1087.97 L1821.42 1091.49 L1818.17 1094.9 L1814.93 1098.22 L1811.69 1101.42 L1808.45 1104.49 L1805.2 1107.43 L1801.96 1110.23 L1798.72 1112.87 L1795.47 1115.34 L1792.23 1117.63 L1788.99 1119.73 L1785.74 1121.62 L1782.5 1123.28 L1779.26 1124.7 L1776.02 1125.87 L1772.77 1126.79 L1769.53 1127.46 L1766.29 1127.86 L1763.04 1128.01 L1759.8 1127.92 L1756.56 1127.59 L1753.31 1127.03 L1750.07 1126.23 L1746.83 1125.2 L1743.59 1123.95 L1740.34 1122.47 L1737.1 1120.76 L1733.86 1118.83 L1730.61 1116.68 L1727.37 1114.29 L1724.13 1111.68 L1720.88 1108.84 L1717.64 1105.76 L1714.4 1102.44 L1711.15 1098.89 L1707.91 1095.12 L1704.67 1091.13 L1701.43 1086.94 L1698.18 1082.55 L1694.94 1077.96 L1691.7 1073.18 L1688.45 1068.22 L1685.21 1063.09 L1681.97 1057.79 L1678.72 1052.35 L1675.48 1046.77 L1672.24 1041.07 L1669 1035.26 L1665.75 1029.36 L1662.51 1023.38 L1659.27 1017.33 L1656.02 1011.22 L1652.78 1005.06 L1649.54 998.858 L1646.29 992.627 L1643.05 986.374 L1639.81 980.109 L1636.57 973.838 L1633.32 967.57 L1630.08 961.311 L1626.84 955.067 L1623.59 948.846 L1620.35 942.652 L1617.11 936.492 L1613.86 930.371 L1610.62 924.293 L1607.38 918.263 L1604.13 912.286 L1600.89 906.366 L1597.65 900.506 L1594.41 894.711 L1591.16 888.983 L1587.92 883.326 L1584.68 877.743 L1581.43 872.236 L1578.19 866.809 L1574.95 861.464 L1571.7 856.203 L1568.46 851.029 L1565.22 845.943 L1561.98 840.947 L1558.73 836.044 L1555.49 831.235 L1552.25 826.521 L1549 821.904 L1545.76 817.385 L1542.52 812.965 L1539.27 808.646 L1536.03 804.428 L1532.79 800.312 L1529.55 796.3 L1526.3 792.39 L1523.06 788.585 L1519.82 784.885 L1516.57 781.289 L1513.33 777.799 L1510.09 774.413 L1506.84 771.134 L1503.6 767.959 L1500.36 764.889 L1497.11 761.924 L1493.87 759.064 L1490.63 756.307 L1487.39 753.653 L1484.14 751.101 L1480.9 748.651 L1477.66 746.3 L1474.41 744.049 L1471.17 741.896 L1467.93 739.838 L1464.68 737.875 L1461.44 736.005 L1458.2 734.225 L1454.96 732.533 L1451.71 730.926 L1448.47 729.403 L1445.23 727.96 L1441.98 726.593 L1438.74 725.3 L1435.5 724.077 L1432.25 722.919 L1429.01 721.823 L1425.77 720.784 L1422.53 719.796 L1419.28 718.854 L1416.04 717.954 L1412.8 717.088 L1409.55 716.25 L1406.31 715.433 L1403.07 714.63 L1399.82 713.834 L1396.58 713.035 L1393.34 712.226 L1390.1 711.398 L1386.85 710.54 L1383.61 709.645 L1380.37 708.701 L1377.12 707.699 L1373.88 706.639 L1370.64 705.517 L1367.39 704.334 L1364.15 703.087 L1360.91 701.775 L1357.66 700.395 L1354.42 698.945 L1351.18 697.421 L1347.94 695.819 L1344.69 694.136 L1341.45 692.367 L1338.21 690.508 L1334.96 688.554 L1331.72 686.499 L1328.48 684.34 L1325.23 682.076 L1321.99 679.707 L1318.75 677.233 L1315.51 674.655 L1312.26 671.975 L1309.02 669.198 L1305.78 666.334 L1302.53 663.39 L1299.29 660.374 L1296.05 657.291 L1292.8 654.148 L1289.56 650.95 L1286.32 647.701 L1283.08 644.405 L1279.83 641.065 L1276.59 637.682 L1273.35 634.257 L1270.1 630.79 L1266.86 627.282 L1263.62 623.729 L1260.37 620.129 L1257.13 616.481 L1253.89 612.779 L1250.64 609.02 L1247.4 605.199 L1244.16 601.311 L1240.92 597.36 L1237.67 593.348 L1234.43 589.278 L1231.19 585.152 L1227.94 580.971 L1224.7 576.738 L1221.46 572.452 L1218.21 568.115 L1214.97 563.724 L1211.73 559.281 L1208.49 554.783 L1205.24 550.228 L1202 545.616 L1198.76 540.942 L1195.51 536.205 L1192.27 531.401 L1189.03 526.53 L1185.78 521.598 L1182.54 516.615 L1179.3 511.59 L1176.06 506.531 L1172.81 501.447 L1169.57 496.346 L1166.33 491.235 L1163.08 486.122 L1159.84 481.013 L1156.6 475.915 L1153.35 470.833 L1150.11 465.774 L1146.87 460.742 L1143.62 455.742 L1140.38 450.778 L1137.14 445.854 L1133.9 440.973 L1130.65 436.138 L1127.41 431.352 L1124.17 426.617 L1120.92 421.934 L1117.68 417.304 L1114.44 412.728 L1111.19 408.207 L1107.95 403.74 L1104.71 399.327 L1101.47 394.966 L1098.22 390.656 L1094.98 386.396 L1091.74 382.182 L1088.49 378.012 L1085.25 373.883 L1082.01 369.79 L1078.76 365.729 L1075.52 361.696 L1072.28 357.686 L1069.04 353.692 L1065.79 349.709 L1062.55 345.73 L1059.31 341.749 L1056.06 337.757 L1052.82 333.749 L1049.58 329.715 L1046.33 325.648 L1043.09 321.541 L1039.85 317.386 L1036.6 313.186 L1033.36 308.943 L1030.12 304.661 L1026.88 300.343 L1023.63 295.992 L1020.39 291.611 L1017.15 287.203 L1013.9 282.771 L1010.66 278.318 L1007.42 273.845 L1004.17 269.356 L1000.93 264.852 L997.688 260.335 L994.445 255.809 L991.202 251.274 L987.959 246.734 L984.716 242.19 L981.473 237.645 L978.23 233.101 L974.987 228.564 L971.744 224.039 L968.501 219.531 L965.258 215.046 L962.015 210.589 L958.772 206.166 L955.529 201.781 L952.286 197.44 L949.043 193.147 L945.8 188.906 L942.557 184.723 L939.314 180.6 L936.071 176.543 L932.828 172.553 L929.585 168.635 L926.342 164.792 L923.099 161.026 L919.856 157.34 L916.613 153.737 L913.37 150.218 L910.127 146.786 L906.884 143.443 L903.641 140.189 L900.398 137.028 L897.155 133.959 L893.911 130.985 L890.668 128.106 L887.425 125.323 L884.182 122.637 L880.939 120.049 L877.696 117.56 L874.453 115.17 L871.21 112.879 L867.967 110.688 L864.724 108.597 L861.481 106.607 L858.238 104.718 L854.995 102.93 L851.752 101.243 L848.509 99.6568 L845.266 98.172 L842.023 96.7884 L838.78 95.5061 L835.537 94.3249 L832.294 93.2448 L829.051 92.2656 L825.808 91.3874 L822.565 90.61 L819.322 89.9332 L816.079 89.3569 L812.836 88.8808 L809.593 88.505 L806.35 88.229 L803.107 88.0529 L799.864 87.9763 L796.621 87.999 L793.378 88.1209 L790.135 88.3417 L786.892 88.6611 L783.648 89.079 L780.405 89.5951 L777.162 90.209 L773.919 90.9206 L770.676 91.7296 L767.433 92.6356 L764.19 93.6384 L760.947 94.7376 L757.704 95.9329 L754.461 97.2238 L751.218 98.6101 L747.975 100.091 L744.732 101.667 L741.489 103.336 L738.246 105.099 L735.003 106.955 L731.76 108.903 L728.517 110.943 L725.274 113.073 L722.031 115.294 L718.788 117.604 L715.545 120.002 L712.302 122.488 L709.059 125.06 L705.816 127.717 L702.573 130.458 L699.33 133.282 L696.087 136.188 L692.844 139.173 L689.601 142.235 L686.358 145.374 L683.115 148.588 L679.872 151.873 L676.629 155.229 L673.385 158.652 L670.142 162.14 L666.899 165.69 L663.656 169.299 L660.413 172.965 L657.17 176.684 L653.927 180.453 L650.684 184.268 L647.441 188.125 L644.198 192.02 L640.955 195.95 L637.712 199.911 L634.469 203.897 L631.226 207.904 L627.983 211.93 L624.74 215.968 L621.497 220.015 L618.254 224.072 L615.011 228.137 L611.768 232.212 L608.525 236.296 L605.282 240.389 L602.039 244.493 L598.796 248.605 L595.553 252.726 L592.31 256.855 L589.067 260.991 L585.824 265.132 L582.581 269.277 L579.338 273.423 L576.095 277.568 L572.852 281.709 L569.609 285.842 L566.366 289.963 L563.122 294.068 L559.879 298.152 L556.636 302.209 L553.393 306.235 L550.15 310.232 L546.907 314.202 L543.664 318.148 L540.421 322.07 L537.178 325.969 L533.935 329.845 L530.692 333.697 L527.449 337.522 L524.206 341.317 L520.963 345.079 L517.72 348.801 L514.477 352.478 L511.234 356.101 L507.991 359.66 L504.748 363.146 L501.505 366.547 L498.262 369.849 L495.019 373.038 L491.776 376.098 L488.533 379.015 L485.29 381.779 L482.047 384.381 L478.804 386.813 L475.561 389.065 L472.318 391.125 L469.075 392.982 L465.832 394.624 L462.589 396.04 L459.346 397.22 L456.103 398.161 L452.859 398.86 L449.616 399.321 L446.373 399.552 L443.13 399.565 L439.887 399.371 L436.644 398.983 L433.401 398.41 L430.158 397.664 L426.915 396.756 L423.672 395.694 L420.429 394.487 L417.186 393.143 L413.943 391.67 L410.7 390.075 L407.457 388.363 L404.214 386.539 L400.971 384.61 L397.728 382.586 L394.485 380.477 L391.242 378.294 L387.999 376.047 L384.756 373.744 L381.513 371.393 L378.27 369.004 L375.027 366.582 L371.784 364.136 L368.541 361.67 L365.298 359.191 L362.055 356.704 L358.812 354.214 L355.569 351.725 L352.326 349.242 L349.083 346.768 L345.84 344.307 L342.596 341.861 L339.353 339.434 L336.11 337.027 L332.867 334.644 L329.624 332.286 L326.381 329.956 L323.138 327.654 L319.895 325.383 L316.652 323.143 L313.409 320.937 L310.166 318.764 L306.923 316.627 L303.68 314.525 L300.437 312.459 L297.194 310.431 L293.951 308.44 L290.708 306.487 L287.465 304.572 L284.222 302.695 L280.979 300.857 L277.736 299.058 L274.493 297.298 L271.25 295.576 L268.007 293.894 L264.764 292.25 L261.521 290.644 L258.278 289.077 L255.035 287.548  Z" fill="#3da44d" fill-rule="evenodd" fill-opacity="0.1"/>
<polyline clip-path="url(#clip871)" style="stroke:#3da44d; stroke-linecap:round; stroke-linejoin:round; stroke-width:8; stroke-opacity:1; fill:none" points="255.035,647.644 258.278,645.95 261.521,644.246 264.764,642.532 268.007,640.809 271.25,639.075 274.493,637.332 277.736,635.579 280.979,633.817 284.222,632.046 287.465,630.266 290.708,628.478 293.951,626.681 297.194,624.876 300.437,623.064 303.68,621.244 306.923,619.417 310.166,617.582 313.409,615.742 316.652,613.895 319.895,612.042 323.138,610.183 326.381,608.319 329.624,606.451 332.867,604.578 336.11,602.701 339.353,600.82 342.596,598.937 345.84,597.05 349.083,595.162 352.326,593.272 355.569,591.38 358.812,589.488 362.055,587.596 365.298,585.705 368.541,583.814 371.784,581.926 375.027,580.039 378.27,578.156 381.513,576.276 384.756,574.401 387.999,572.531 391.242,570.667 394.485,568.809 397.728,566.959 400.971,565.117 404.214,563.285 407.457,561.462 410.7,559.647 413.943,557.841 417.186,556.04 420.429,554.245 423.672,552.453 426.915,550.664 430.158,548.877 433.401,547.09 436.644,545.302 439.887,543.513 443.13,541.721 446.373,539.925 449.616,538.125 452.859,536.319 456.103,534.505 459.346,532.681 462.589,530.841 465.832,528.983 469.075,527.103 472.318,525.201 475.561,523.276 478.804,521.325 482.047,519.347 485.29,517.342 488.533,515.308 491.776,513.243 495.019,511.147 498.262,509.02 501.505,506.866 504.748,504.684 507.991,502.478 511.234,500.249 514.477,497.999 517.72,495.729 520.963,493.442 524.206,491.14 527.449,488.824 530.692,486.496 533.935,484.158 537.178,481.812 540.421,479.46 543.664,477.104 546.907,474.747 550.15,472.389 553.393,470.034 556.636,467.683 559.879,465.339 563.122,463.004 566.366,460.681 569.609,458.372 572.852,456.081 576.095,453.811 579.338,451.563 582.581,449.342 585.824,447.15 589.067,444.99 592.31,442.865 595.553,440.779 598.796,438.734 602.039,436.735 605.282,434.783 608.525,432.883 611.768,431.038 615.011,429.251 618.254,427.526 621.497,425.867 624.74,424.278 627.983,422.76 631.226,421.313 634.469,419.934 637.712,418.621 640.955,417.37 644.198,416.18 647.441,415.048 650.684,413.972 653.927,412.95 657.17,411.98 660.413,411.059 663.656,410.186 666.899,409.359 670.142,408.576 673.385,407.834 676.629,407.134 679.872,406.472 683.115,405.847 686.358,405.258 689.601,404.703 692.844,404.181 696.087,403.69 699.33,403.229 702.573,402.797 705.816,402.392 709.059,402.014 712.302,401.661 715.545,401.333 718.788,401.027 722.031,400.744 725.274,400.482 728.517,400.241 731.76,400.019 735.003,399.816 738.246,399.632 741.489,399.465 744.732,399.315 747.975,399.182 751.218,399.064 754.461,398.962 757.704,398.875 760.947,398.802 764.19,398.744 767.433,398.7 770.676,398.669 773.919,398.652 777.162,398.648 780.405,398.658 783.648,398.681 786.892,398.717 790.135,398.766 793.378,398.829 796.621,398.905 799.864,398.994 803.107,399.097 806.35,399.214 809.593,399.346 812.836,399.492 816.079,399.653 819.322,399.83 822.565,400.022 825.808,400.231 829.051,400.457 832.294,400.701 835.537,400.963 838.78,401.244 842.023,401.545 845.266,401.866 848.509,402.209 851.752,402.574 854.995,402.962 858.238,403.375 861.481,403.813 864.724,404.277 867.967,404.769 871.21,405.29 874.453,405.841 877.696,406.424 880.939,407.039 884.182,407.689 887.425,408.374 890.668,409.097 893.911,409.858 897.155,410.66 900.398,411.504 903.641,412.392 906.884,413.327 910.127,414.309 913.37,415.34 916.613,416.424 919.856,417.562 923.099,418.755 926.342,420.007 929.585,421.32 932.828,422.696 936.071,424.137 939.314,425.646 942.557,427.226 945.8,428.879 949.043,430.608 952.286,432.417 955.529,434.307 958.772,436.282 962.015,438.344 965.258,440.498 968.501,442.747 971.744,445.093 974.987,447.54 978.23,450.092 981.473,452.752 984.716,455.523 987.959,458.402 991.202,461.383 994.445,464.462 997.688,467.635 1000.93,470.897 1004.17,474.244 1007.42,477.673 1010.66,481.178 1013.9,484.755 1017.15,488.402 1020.39,492.113 1023.63,495.885 1026.88,499.714 1030.12,503.597 1033.36,507.529 1036.6,511.508 1039.85,515.53 1043.09,519.591 1046.33,523.688 1049.58,527.818 1052.82,531.979 1056.06,536.17 1059.31,540.387 1062.55,544.628 1065.79,548.892 1069.04,553.176 1072.28,557.478 1075.52,561.796 1078.76,566.129 1082.01,570.474 1085.25,574.828 1088.49,579.192 1091.74,583.561 1094.98,587.936 1098.22,592.313 1101.47,596.69 1104.71,601.068 1107.95,605.442 1111.19,609.812 1114.44,614.176 1117.68,618.531 1120.92,622.878 1124.17,627.213 1127.41,631.534 1130.65,635.842 1133.9,640.132 1137.14,644.405 1140.38,648.658 1143.62,652.889 1146.87,657.097 1150.11,661.281 1153.35,665.438 1156.6,669.567 1159.84,673.666 1163.08,677.734 1166.33,681.769 1169.57,685.768 1172.81,689.731 1176.06,693.656 1179.3,697.541 1182.54,701.384 1185.78,705.184 1189.03,708.938 1192.27,712.645 1195.51,716.304 1198.76,719.915 1202,723.48 1205.24,727.002 1208.49,730.48 1211.73,733.917 1214.97,737.314 1218.21,740.672 1221.46,743.994 1224.7,747.279 1227.94,750.531 1231.19,753.749 1234.43,756.936 1237.67,760.093 1240.92,763.22 1244.16,766.32 1247.4,769.394 1250.64,772.443 1253.89,775.469 1257.13,778.473 1260.37,781.459 1263.62,784.428 1266.86,787.381 1270.1,790.321 1273.35,793.25 1276.59,796.169 1279.83,799.081 1283.08,801.988 1286.32,804.891 1289.56,807.792 1292.8,810.693 1296.05,813.597 1299.29,816.504 1302.53,819.418 1305.78,822.34 1309.02,825.271 1312.26,828.214 1315.51,831.171 1318.75,834.144 1321.99,837.135 1325.23,840.146 1328.48,843.179 1331.72,846.236 1334.96,849.321 1338.21,852.431 1341.45,855.568 1344.69,858.731 1347.94,861.919 1351.18,865.131 1354.42,868.369 1357.66,871.631 1360.91,874.917 1364.15,878.227 1367.39,881.56 1370.64,884.916 1373.88,888.295 1377.12,891.697 1380.37,895.12 1383.61,898.566 1386.85,902.034 1390.1,905.522 1393.34,909.032 1396.58,912.562 1399.82,916.112 1403.07,919.682 1406.31,923.272 1409.55,926.881 1412.8,930.509 1416.04,934.155 1419.28,937.819 1422.53,941.502 1425.77,945.201 1429.01,948.918 1432.25,952.652 1435.5,956.402 1438.74,960.168 1441.98,963.95 1445.23,967.748 1448.47,971.56 1451.71,975.387 1454.96,979.229 1458.2,983.084 1461.44,986.953 1464.68,990.835 1467.93,994.73 1471.17,998.637 1474.41,1002.56 1477.66,1006.49 1480.9,1010.43 1484.14,1014.38 1487.39,1018.34 1490.63,1022.31 1493.87,1026.29 1497.11,1030.28 1500.36,1034.28 1503.6,1038.29 1506.84,1042.3 1510.09,1046.32 1513.33,1050.34 1516.57,1054.37 1519.82,1058.41 1523.06,1062.45 1526.3,1066.49 1529.55,1070.53 1532.79,1074.58 1536.03,1078.63 1539.27,1082.68 1542.52,1086.72 1545.76,1090.77 1549,1094.82 1552.25,1098.86 1555.49,1102.9 1558.73,1106.93 1561.98,1110.96 1565.22,1114.99 1568.46,1119 1571.7,1123.01 1574.95,1127 1578.19,1130.99 1581.43,1134.97 1584.68,1138.93 1587.92,1142.88 1591.16,1146.81 1594.41,1150.73 1597.65,1154.62 1600.89,1158.5 1604.13,1162.36 1607.38,1166.2 1610.62,1170.01 1613.86,1173.8 1617.11,1177.56 1620.35,1181.29 1623.59,1184.99 1626.84,1188.66 1630.08,1192.3 1633.32,1195.9 1636.57,1199.46 1639.81,1202.99 1643.05,1206.47 1646.29,1209.91 1649.54,1213.3 1652.78,1216.65 1656.02,1219.94 1659.27,1223.19 1662.51,1226.38 1665.75,1229.51 1669,1232.58 1672.24,1235.59 1675.48,1238.53 1678.72,1241.41 1681.97,1244.21 1685.21,1246.94 1688.45,1249.6 1691.7,1252.17 1694.94,1254.67 1698.18,1257.07 1701.43,1259.39 1704.67,1261.62 1707.91,1263.75 1711.15,1265.78 1714.4,1267.71 1717.64,1269.54 1720.88,1271.26 1724.13,1272.86 1727.37,1274.36 1730.61,1275.75 1733.86,1277.03 1737.1,1278.2 1740.34,1279.26 1743.59,1280.21 1746.83,1281.04 1750.07,1281.76 1753.31,1282.36 1756.56,1282.85 1759.8,1283.22 1763.04,1283.47 1766.29,1283.6 1769.53,1283.61 1772.77,1283.49 1776.02,1283.25 1779.26,1282.89 1782.5,1282.4 1785.74,1281.8 1788.99,1281.09 1792.23,1280.27 1795.47,1279.35 1798.72,1278.32 1801.96,1277.19 1805.2,1275.97 1808.45,1274.66 1811.69,1273.26 1814.93,1271.78 1818.17,1270.21 1821.42,1268.56 1824.66,1266.83 1827.9,1265.03 1831.15,1263.16 1834.39,1261.22 1837.63,1259.21 1840.88,1257.14 1844.12,1255 1847.36,1252.81 1850.61,1250.55 1853.85,1248.24 1857.09,1245.88 1860.33,1243.46 1863.58,1240.99 1866.82,1238.47 1870.06,1235.91 1873.31,1233.29 1876.55,1230.64 1879.79,1227.94 1883.04,1225.2 1886.28,1222.42 1889.52,1219.6 1892.76,1216.74 1896.01,1213.84 1899.25,1210.91 1902.49,1207.95 1905.74,1204.96 1908.98,1201.95 1912.22,1198.9 1915.47,1195.83 1918.71,1192.74 1921.95,1189.62 1925.19,1186.49 1928.44,1183.33 1931.68,1180.16 1934.92,1176.97 1938.17,1173.77 1941.41,1170.56 1944.65,1167.33 1947.9,1164.1 1951.14,1160.85 1954.38,1157.6 1957.63,1154.34 1960.87,1151.07 1964.11,1147.8 1967.35,1144.52 1970.6,1141.24 1973.84,1137.96 1977.08,1134.68 1980.33,1131.4 1983.57,1128.12 1986.81,1124.84 1990.06,1121.57 1993.3,1118.3 1996.54,1115.03 1999.78,1111.76 2003.03,1108.51 2006.27,1105.26 2009.51,1102.01 2012.76,1098.78 2016,1095.55 2019.24,1092.33 2022.49,1089.12 2025.73,1085.92 2028.97,1082.73 2032.21,1079.55 2035.46,1076.38 2038.7,1073.23 2041.94,1070.09 2045.19,1066.96 2048.43,1063.84 2051.67,1060.74 2054.92,1057.65 2058.16,1054.58 2061.4,1051.52 2064.65,1048.48 2067.89,1045.45 2071.13,1042.44 2074.37,1039.45 2077.62,1036.47 2080.86,1033.51 2084.1,1030.57 2087.35,1027.64 2090.59,1024.74 2093.83,1021.85 2097.08,1018.98 2100.32,1016.13 2103.56,1013.29 2106.8,1010.48 2110.05,1007.69 2113.29,1004.91 2116.53,1002.16 2119.78,999.426 2123.02,996.712 2126.26,994.02 2129.51,991.348 2132.75,988.697 2135.99,986.067 2139.23,983.459 2142.48,980.872 2145.72,978.307 2148.96,975.764 2152.21,973.243 2155.45,970.744 2158.69,968.268 2161.94,965.815 2165.18,963.384 2168.42,960.976 2171.67,958.591 2174.91,956.23 2178.15,953.892 2181.39,951.578 2184.64,949.288 2187.88,947.021 2191.12,944.779 2194.37,942.561 2197.61,940.368 2200.85,938.2 2204.1,936.056 2207.34,933.938 2210.58,931.845 2213.82,929.777 2217.07,927.736 2220.31,925.72 2223.55,923.73 2226.8,921.766 2230.04,919.83 2233.28,917.92 2236.53,916.037 2239.77,914.181 2243.01,912.353 2246.25,910.552 2249.5,908.78 2252.74,907.036 2255.98,905.32 2259.23,903.633 2262.47,901.976 2265.71,900.347 2268.96,898.746 2272.2,897.173 2275.44,895.627 2278.69,894.108 2281.93,892.615 2285.17,891.148 2288.41,889.706 2291.66,888.289 "/>
<path clip-path="url(#clip870)" d="M1953.46 302.578 L2280.8 302.578 L2280.8 95.2176 L1953.46 95.2176  Z" fill="#ffffff" fill-rule="evenodd" fill-opacity="1"/>
<polyline clip-path="url(#clip870)" style="stroke:#000000; stroke-linecap:round; stroke-linejoin:round; stroke-width:4; stroke-opacity:1; fill:none" points="1953.46,302.578 2280.8,302.578 2280.8,95.2176 1953.46,95.2176 1953.46,302.578 "/>
<polyline clip-path="url(#clip870)" style="stroke:#009af9; stroke-linecap:round; stroke-linejoin:round; stroke-width:4; stroke-opacity:1; fill:none" points="1977.44,147.058 2121.36,147.058 "/>
<path clip-path="url(#clip870)" d="M2152.76 131.051 L2152.76 138.412 L2161.53 138.412 L2161.53 141.722 L2152.76 141.722 L2152.76 155.796 Q2152.76 158.967 2153.61 159.87 Q2154.49 160.773 2157.16 160.773 L2161.53 160.773 L2161.53 164.338 L2157.16 164.338 Q2152.23 164.338 2150.35 162.509 Q2148.48 160.657 2148.48 155.796 L2148.48 141.722 L2145.35 141.722 L2145.35 138.412 L2148.48 138.412 L2148.48 131.051 L2152.76 131.051 Z" fill="#000000" fill-rule="nonzero" fill-opacity="1" /><path clip-path="url(#clip870)" d="M2182.16 142.393 Q2181.44 141.977 2180.58 141.791 Q2179.75 141.583 2178.73 141.583 Q2175.12 141.583 2173.17 143.944 Q2171.25 146.282 2171.25 150.68 L2171.25 164.338 L2166.97 164.338 L2166.97 138.412 L2171.25 138.412 L2171.25 142.44 Q2172.6 140.078 2174.75 138.944 Q2176.9 137.787 2179.98 137.787 Q2180.42 137.787 2180.95 137.856 Q2181.48 137.903 2182.13 138.018 L2182.16 142.393 Z" fill="#000000" fill-rule="nonzero" fill-opacity="1" /><path clip-path="url(#clip870)" d="M2186.18 154.106 L2186.18 138.412 L2190.44 138.412 L2190.44 153.944 Q2190.44 157.625 2191.88 159.476 Q2193.31 161.305 2196.18 161.305 Q2199.63 161.305 2201.62 159.106 Q2203.64 156.907 2203.64 153.111 L2203.64 138.412 L2207.9 138.412 L2207.9 164.338 L2203.64 164.338 L2203.64 160.356 Q2202.09 162.717 2200.03 163.875 Q2197.99 165.009 2195.28 165.009 Q2190.81 165.009 2188.5 162.231 Q2186.18 159.453 2186.18 154.106 M2196.9 137.787 L2196.9 137.787 Z" fill="#000000" fill-rule="nonzero" fill-opacity="1" /><path clip-path="url(#clip870)" d="M2220.88 131.051 L2220.88 138.412 L2229.66 138.412 L2229.66 141.722 L2220.88 141.722 L2220.88 155.796 Q2220.88 158.967 2221.74 159.87 Q2222.62 160.773 2225.28 160.773 L2229.66 160.773 L2229.66 164.338 L2225.28 164.338 Q2220.35 164.338 2218.48 162.509 Q2216.6 160.657 2216.6 155.796 L2216.6 141.722 L2213.48 141.722 L2213.48 138.412 L2216.6 138.412 L2216.6 131.051 L2220.88 131.051 Z" fill="#000000" fill-rule="nonzero" fill-opacity="1" /><path clip-path="url(#clip870)" d="M2256.81 148.689 L2256.81 164.338 L2252.55 164.338 L2252.55 148.828 Q2252.55 145.148 2251.11 143.319 Q2249.68 141.49 2246.81 141.49 Q2243.36 141.49 2241.37 143.69 Q2239.38 145.889 2239.38 149.685 L2239.38 164.338 L2235.1 164.338 L2235.1 128.319 L2239.38 128.319 L2239.38 142.44 Q2240.91 140.102 2242.97 138.944 Q2245.05 137.787 2247.76 137.787 Q2252.23 137.787 2254.52 140.565 Q2256.81 143.319 2256.81 148.689 Z" fill="#000000" fill-rule="nonzero" fill-opacity="1" /><circle clip-path="url(#clip870)" cx="2049.4" cy="198.898" r="20.48" fill="#e26f46" fill-rule="evenodd" fill-opacity="1" stroke="#000000" stroke-opacity="1" stroke-width="4.55111"/>
<path clip-path="url(#clip870)" d="M2164.26 194.187 L2164.26 180.159 L2168.52 180.159 L2168.52 216.178 L2164.26 216.178 L2164.26 212.289 Q2162.92 214.603 2160.86 215.738 Q2158.82 216.849 2155.95 216.849 Q2151.25 216.849 2148.29 213.099 Q2145.35 209.349 2145.35 203.238 Q2145.35 197.127 2148.29 193.377 Q2151.25 189.627 2155.95 189.627 Q2158.82 189.627 2160.86 190.761 Q2162.92 191.872 2164.26 194.187 M2149.75 203.238 Q2149.75 207.937 2151.67 210.622 Q2153.61 213.284 2156.99 213.284 Q2160.37 213.284 2162.32 210.622 Q2164.26 207.937 2164.26 203.238 Q2164.26 198.539 2162.32 195.877 Q2160.37 193.192 2156.99 193.192 Q2153.61 193.192 2151.67 195.877 Q2149.75 198.539 2149.75 203.238 Z" fill="#000000" fill-rule="nonzero" fill-opacity="1" /><path clip-path="url(#clip870)" d="M2189.08 203.145 Q2183.92 203.145 2181.92 204.326 Q2179.93 205.506 2179.93 208.354 Q2179.93 210.622 2181.42 211.965 Q2182.92 213.284 2185.49 213.284 Q2189.03 213.284 2191.16 210.784 Q2193.31 208.261 2193.31 204.094 L2193.31 203.145 L2189.08 203.145 M2197.57 201.386 L2197.57 216.178 L2193.31 216.178 L2193.31 212.242 Q2191.85 214.603 2189.68 215.738 Q2187.5 216.849 2184.36 216.849 Q2180.37 216.849 2178.01 214.627 Q2175.67 212.381 2175.67 208.631 Q2175.67 204.256 2178.59 202.034 Q2181.53 199.812 2187.34 199.812 L2193.31 199.812 L2193.31 199.395 Q2193.31 196.455 2191.37 194.858 Q2189.45 193.238 2185.95 193.238 Q2183.73 193.238 2181.62 193.77 Q2179.52 194.303 2177.57 195.367 L2177.57 191.432 Q2179.91 190.53 2182.11 190.09 Q2184.31 189.627 2186.39 189.627 Q2192.02 189.627 2194.79 192.543 Q2197.57 195.46 2197.57 201.386 Z" fill="#000000" fill-rule="nonzero" fill-opacity="1" /><path clip-path="url(#clip870)" d="M2210.56 182.891 L2210.56 190.252 L2219.33 190.252 L2219.33 193.562 L2210.56 193.562 L2210.56 207.636 Q2210.56 210.807 2211.42 211.71 Q2212.29 212.613 2214.96 212.613 L2219.33 212.613 L2219.33 216.178 L2214.96 216.178 Q2210.03 216.178 2208.15 214.349 Q2206.28 212.497 2206.28 207.636 L2206.28 193.562 L2203.15 193.562 L2203.15 190.252 L2206.28 190.252 L2206.28 182.891 L2210.56 182.891 Z" fill="#000000" fill-rule="nonzero" fill-opacity="1" /><path clip-path="url(#clip870)" d="M2236.72 203.145 Q2231.55 203.145 2229.56 204.326 Q2227.57 205.506 2227.57 208.354 Q2227.57 210.622 2229.05 211.965 Q2230.56 213.284 2233.13 213.284 Q2236.67 213.284 2238.8 210.784 Q2240.95 208.261 2240.95 204.094 L2240.95 203.145 L2236.72 203.145 M2245.21 201.386 L2245.21 216.178 L2240.95 216.178 L2240.95 212.242 Q2239.49 214.603 2237.32 215.738 Q2235.14 216.849 2231.99 216.849 Q2228.01 216.849 2225.65 214.627 Q2223.31 212.381 2223.31 208.631 Q2223.31 204.256 2226.23 202.034 Q2229.17 199.812 2234.98 199.812 L2240.95 199.812 L2240.95 199.395 Q2240.95 196.455 2239.01 194.858 Q2237.09 193.238 2233.59 193.238 Q2231.37 193.238 2229.26 193.77 Q2227.16 194.303 2225.21 195.367 L2225.21 191.432 Q2227.55 190.53 2229.75 190.09 Q2231.95 189.627 2234.03 189.627 Q2239.66 189.627 2242.43 192.543 Q2245.21 195.46 2245.21 201.386 Z" fill="#000000" fill-rule="nonzero" fill-opacity="1" /><polyline clip-path="url(#clip870)" style="stroke:#3da44d; stroke-linecap:round; stroke-linejoin:round; stroke-width:8; stroke-opacity:1; fill:none" points="1977.44,250.738 2121.36,250.738 "/>
<path clip-path="url(#clip870)" d="M2170.91 263.087 L2170.91 253.805 L2163.27 253.805 L2163.27 249.962 L2175.54 249.962 L2175.54 264.8 Q2172.83 266.721 2169.56 267.717 Q2166.3 268.689 2162.6 268.689 Q2154.49 268.689 2149.91 263.967 Q2145.35 259.221 2145.35 250.772 Q2145.35 242.3 2149.91 237.578 Q2154.49 232.833 2162.6 232.833 Q2165.98 232.833 2169.01 233.666 Q2172.06 234.499 2174.63 236.12 L2174.63 241.096 Q2172.04 238.897 2169.12 237.786 Q2166.21 236.675 2162.99 236.675 Q2156.65 236.675 2153.45 240.217 Q2150.28 243.758 2150.28 250.772 Q2150.28 257.763 2153.45 261.305 Q2156.65 264.846 2162.99 264.846 Q2165.47 264.846 2167.41 264.43 Q2169.36 263.99 2170.91 263.087 Z" fill="#000000" fill-rule="nonzero" fill-opacity="1" /><path clip-path="url(#clip870)" d="M2188.75 237.3 L2188.75 250.286 L2194.63 250.286 Q2197.9 250.286 2199.68 248.596 Q2201.46 246.907 2201.46 243.782 Q2201.46 240.68 2199.68 238.99 Q2197.9 237.3 2194.63 237.3 L2188.75 237.3 M2184.08 233.458 L2194.63 233.458 Q2200.44 233.458 2203.41 236.096 Q2206.39 238.712 2206.39 243.782 Q2206.39 248.897 2203.41 251.513 Q2200.44 254.129 2194.63 254.129 L2188.75 254.129 L2188.75 268.018 L2184.08 268.018 L2184.08 233.458 Z" fill="#000000" fill-rule="nonzero" fill-opacity="1" /></svg>
