<?xml version="1.0" encoding="utf-8"?>
<svg xmlns="http://www.w3.org/2000/svg" xmlns:xlink="http://www.w3.org/1999/xlink" width="600" height="400" viewBox="0 0 2400 1600">
<defs>
  <clipPath id="clip840">
    <rect x="0" y="0" width="2400" height="1600"/>
  </clipPath>
</defs>
<path clip-path="url(#clip840)" d="M0 1600 L2400 1600 L2400 0 L0 0  Z" fill="#ffffff" fill-rule="evenodd" fill-opacity="1"/>
<defs>
  <clipPath id="clip841">
    <rect x="193" y="47" width="2160" height="1440"/>
  </clipPath>
</defs>
<path clip-path="url(#clip840)" d="M193.936 1486.45 L2352.76 1486.45 L2352.76 47.2441 L193.936 47.2441  Z" fill="#ffffff" fill-rule="evenodd" fill-opacity="1"/>
<polyline clip-path="url(#clip841)" style="stroke:#000000; stroke-linecap:round; stroke-linejoin:round; stroke-width:2; stroke-opacity:0.1; fill:none" points="255.035,1486.45 255.035,47.2441 "/>
<polyline clip-path="url(#clip841)" style="stroke:#000000; stroke-linecap:round; stroke-linejoin:round; stroke-width:2; stroke-opacity:0.1; fill:none" points="579.338,1486.45 579.338,47.2441 "/>
<polyline clip-path="url(#clip841)" style="stroke:#000000; stroke-linecap:round; stroke-linejoin:round; stroke-width:2; stroke-opacity:0.1; fill:none" points="903.641,1486.45 903.641,47.2441 "/>
<polyline clip-path="url(#clip841)" style="stroke:#000000; stroke-linecap:round; stroke-linejoin:round; stroke-width:2; stroke-opacity:0.1; fill:none" points="1227.94,1486.45 1227.94,47.2441 "/>
<polyline clip-path="url(#clip841)" style="stroke:#000000; stroke-linecap:round; stroke-linejoin:round; stroke-width:2; stroke-opacity:0.1; fill:none" points="1552.25,1486.45 1552.25,47.2441 "/>
<polyline clip-path="url(#clip841)" style="stroke:#000000; stroke-linecap:round; stroke-linejoin:round; stroke-width:2; stroke-opacity:0.1; fill:none" points="1876.55,1486.45 1876.55,47.2441 "/>
<polyline clip-path="url(#clip841)" style="stroke:#000000; stroke-linecap:round; stroke-linejoin:round; stroke-width:2; stroke-opacity:0.1; fill:none" points="2200.85,1486.45 2200.85,47.2441 "/>
<polyline clip-path="url(#clip841)" style="stroke:#000000; stroke-linecap:round; stroke-linejoin:round; stroke-width:2; stroke-opacity:0.1; fill:none" points="193.936,1372.72 2352.76,1372.72 "/>
<polyline clip-path="url(#clip841)" style="stroke:#000000; stroke-linecap:round; stroke-linejoin:round; stroke-width:2; stroke-opacity:0.1; fill:none" points="193.936,1051.53 2352.76,1051.53 "/>
<polyline clip-path="url(#clip841)" style="stroke:#000000; stroke-linecap:round; stroke-linejoin:round; stroke-width:2; stroke-opacity:0.1; fill:none" points="193.936,730.347 2352.76,730.347 "/>
<polyline clip-path="url(#clip841)" style="stroke:#000000; stroke-linecap:round; stroke-linejoin:round; stroke-width:2; stroke-opacity:0.1; fill:none" points="193.936,409.161 2352.76,409.161 "/>
<polyline clip-path="url(#clip841)" style="stroke:#000000; stroke-linecap:round; stroke-linejoin:round; stroke-width:2; stroke-opacity:0.1; fill:none" points="193.936,87.9761 2352.76,87.9761 "/>
<polyline clip-path="url(#clip840)" style="stroke:#000000; stroke-linecap:round; stroke-linejoin:round; stroke-width:4; stroke-opacity:1; fill:none" points="193.936,1486.45 2352.76,1486.45 "/>
<polyline clip-path="url(#clip840)" style="stroke:#000000; stroke-linecap:round; stroke-linejoin:round; stroke-width:4; stroke-opacity:1; fill:none" points="255.035,1486.45 255.035,1467.55 "/>
<polyline clip-path="url(#clip840)" style="stroke:#000000; stroke-linecap:round; stroke-linejoin:round; stroke-width:4; stroke-opacity:1; fill:none" points="579.338,1486.45 579.338,1467.55 "/>
<polyline clip-path="url(#clip840)" style="stroke:#000000; stroke-linecap:round; stroke-linejoin:round; stroke-width:4; stroke-opacity:1; fill:none" points="903.641,1486.45 903.641,1467.55 "/>
<polyline clip-path="url(#clip840)" style="stroke:#000000; stroke-linecap:round; stroke-linejoin:round; stroke-width:4; stroke-opacity:1; fill:none" points="1227.94,1486.45 1227.94,1467.55 "/>
<polyline clip-path="url(#clip840)" style="stroke:#000000; stroke-linecap:round; stroke-linejoin:round; stroke-width:4; stroke-opacity:1; fill:none" points="1552.25,1486.45 1552.25,1467.55 "/>
<polyline clip-path="url(#clip840)" style="stroke:#000000; stroke-linecap:round; stroke-linejoin:round; stroke-width:4; stroke-opacity:1; fill:none" points="1876.55,1486.45 1876.55,1467.55 "/>
<polyline clip-path="url(#clip840)" style="stroke:#000000; stroke-linecap:round; stroke-linejoin:round; stroke-width:4; stroke-opacity:1; fill:none" points="2200.85,1486.45 2200.85,1467.55 "/>
<path clip-path="url(#clip840)" d="M255.035 1517.37 Q251.424 1517.37 249.595 1520.93 Q247.789 1524.47 247.789 1531.6 Q247.789 1538.71 249.595 1542.27 Q251.424 1545.82 255.035 1545.82 Q258.669 1545.82 260.474 1542.27 Q262.303 1538.71 262.303 1531.6 Q262.303 1524.47 260.474 1520.93 Q258.669 1517.37 255.035 1517.37 M255.035 1513.66 Q260.845 1513.66 263.9 1518.27 Q266.979 1522.85 266.979 1531.6 Q266.979 1540.33 263.9 1544.94 Q260.845 1549.52 255.035 1549.52 Q249.225 1549.52 246.146 1544.94 Q243.09 1540.33 243.09 1531.6 Q243.09 1522.85 246.146 1518.27 Q249.225 1513.66 255.035 1513.66 Z" fill="#000000" fill-rule="nonzero" fill-opacity="1" /><path clip-path="url(#clip840)" d="M569.72 1544.91 L577.358 1544.91 L577.358 1518.55 L569.048 1520.21 L569.048 1515.95 L577.312 1514.29 L581.988 1514.29 L581.988 1544.91 L589.627 1544.91 L589.627 1548.85 L569.72 1548.85 L569.72 1544.91 Z" fill="#000000" fill-rule="nonzero" fill-opacity="1" /><path clip-path="url(#clip840)" d="M898.293 1544.91 L914.613 1544.91 L914.613 1548.85 L892.668 1548.85 L892.668 1544.91 Q895.33 1542.16 899.914 1537.53 Q904.52 1532.88 905.701 1531.53 Q907.946 1529.01 908.826 1527.27 Q909.729 1525.51 909.729 1523.82 Q909.729 1521.07 907.784 1519.33 Q905.863 1517.6 902.761 1517.6 Q900.562 1517.6 898.108 1518.36 Q895.678 1519.13 892.9 1520.68 L892.9 1515.95 Q895.724 1514.82 898.178 1514.24 Q900.631 1513.66 902.668 1513.66 Q908.039 1513.66 911.233 1516.35 Q914.428 1519.03 914.428 1523.52 Q914.428 1525.65 913.617 1527.57 Q912.83 1529.47 910.724 1532.07 Q910.145 1532.74 907.043 1535.95 Q903.942 1539.15 898.293 1544.91 Z" fill="#000000" fill-rule="nonzero" fill-opacity="1" /><path clip-path="url(#clip840)" d="M1232.19 1530.21 Q1235.55 1530.93 1237.42 1533.2 Q1239.32 1535.47 1239.32 1538.8 Q1239.32 1543.92 1235.8 1546.72 Q1232.28 1549.52 1225.8 1549.52 Q1223.63 1549.52 1221.31 1549.08 Q1219.02 1548.66 1216.57 1547.81 L1216.57 1543.29 Q1218.51 1544.43 1220.83 1545.01 Q1223.14 1545.58 1225.66 1545.58 Q1230.06 1545.58 1232.35 1543.85 Q1234.67 1542.11 1234.67 1538.8 Q1234.67 1535.75 1232.52 1534.03 Q1230.39 1532.3 1226.57 1532.3 L1222.54 1532.3 L1222.54 1528.45 L1226.75 1528.45 Q1230.2 1528.45 1232.03 1527.09 Q1233.86 1525.7 1233.86 1523.11 Q1233.86 1520.45 1231.96 1519.03 Q1230.08 1517.6 1226.57 1517.6 Q1224.64 1517.6 1222.45 1518.01 Q1220.25 1518.43 1217.61 1519.31 L1217.61 1515.14 Q1220.27 1514.4 1222.58 1514.03 Q1224.92 1513.66 1226.98 1513.66 Q1232.31 1513.66 1235.41 1516.09 Q1238.51 1518.5 1238.51 1522.62 Q1238.51 1525.49 1236.87 1527.48 Q1235.22 1529.45 1232.19 1530.21 Z" fill="#000000" fill-rule="nonzero" fill-opacity="1" /><path clip-path="url(#clip840)" d="M1555.26 1518.36 L1543.45 1536.81 L1555.26 1536.81 L1555.26 1518.36 M1554.03 1514.29 L1559.91 1514.29 L1559.91 1536.81 L1564.84 1536.81 L1564.84 1540.7 L1559.91 1540.7 L1559.91 1548.85 L1555.26 1548.85 L1555.26 1540.7 L1539.65 1540.7 L1539.65 1536.19 L1554.03 1514.29 Z" fill="#000000" fill-rule="nonzero" fill-opacity="1" /><path clip-path="url(#clip840)" d="M1866.83 1514.29 L1885.18 1514.29 L1885.18 1518.22 L1871.11 1518.22 L1871.11 1526.7 Q1872.13 1526.35 1873.15 1526.19 Q1874.17 1526 1875.18 1526 Q1880.97 1526 1884.35 1529.17 Q1887.73 1532.34 1887.73 1537.76 Q1887.73 1543.34 1884.26 1546.44 Q1880.79 1549.52 1874.47 1549.52 Q1872.29 1549.52 1870.02 1549.15 Q1867.78 1548.78 1865.37 1548.04 L1865.37 1543.34 Q1867.45 1544.47 1869.67 1545.03 Q1871.9 1545.58 1874.37 1545.58 Q1878.38 1545.58 1880.72 1543.48 Q1883.05 1541.37 1883.05 1537.76 Q1883.05 1534.15 1880.72 1532.04 Q1878.38 1529.94 1874.37 1529.94 Q1872.5 1529.94 1870.62 1530.35 Q1868.77 1530.77 1866.83 1531.65 L1866.83 1514.29 Z" fill="#000000" fill-rule="nonzero" fill-opacity="1" /><path clip-path="url(#clip840)" d="M2201.26 1529.7 Q2198.11 1529.7 2196.26 1531.86 Q2194.43 1534.01 2194.43 1537.76 Q2194.43 1541.49 2196.26 1543.66 Q2198.11 1545.82 2201.26 1545.82 Q2204.41 1545.82 2206.23 1543.66 Q2208.09 1541.49 2208.09 1537.76 Q2208.09 1534.01 2206.23 1531.86 Q2204.41 1529.7 2201.26 1529.7 M2210.54 1515.05 L2210.54 1519.31 Q2208.78 1518.48 2206.98 1518.04 Q2205.19 1517.6 2203.43 1517.6 Q2198.8 1517.6 2196.35 1520.72 Q2193.92 1523.85 2193.57 1530.17 Q2194.94 1528.15 2197 1527.09 Q2199.06 1526 2201.54 1526 Q2206.74 1526 2209.75 1529.17 Q2212.79 1532.32 2212.79 1537.76 Q2212.79 1543.08 2209.64 1546.3 Q2206.49 1549.52 2201.26 1549.52 Q2195.26 1549.52 2192.09 1544.94 Q2188.92 1540.33 2188.92 1531.6 Q2188.92 1523.41 2192.81 1518.55 Q2196.7 1513.66 2203.25 1513.66 Q2205.01 1513.66 2206.79 1514.01 Q2208.6 1514.36 2210.54 1515.05 Z" fill="#000000" fill-rule="nonzero" fill-opacity="1" /><polyline clip-path="url(#clip840)" style="stroke:#000000; stroke-linecap:round; stroke-linejoin:round; stroke-width:4; stroke-opacity:1; fill:none" points="193.936,1486.45 193.936,47.2441 "/>
<polyline clip-path="url(#clip840)" style="stroke:#000000; stroke-linecap:round; stroke-linejoin:round; stroke-width:4; stroke-opacity:1; fill:none" points="193.936,1372.72 212.834,1372.72 "/>
<polyline clip-path="url(#clip840)" style="stroke:#000000; stroke-linecap:round; stroke-linejoin:round; stroke-width:4; stroke-opacity:1; fill:none" points="193.936,1051.53 212.834,1051.53 "/>
<polyline clip-path="url(#clip840)" style="stroke:#000000; stroke-linecap:round; stroke-linejoin:round; stroke-width:4; stroke-opacity:1; fill:none" points="193.936,730.347 212.834,730.347 "/>
<polyline clip-path="url(#clip840)" style="stroke:#000000; stroke-linecap:round; stroke-linejoin:round; stroke-width:4; stroke-opacity:1; fill:none" points="193.936,409.161 212.834,409.161 "/>
<polyline clip-path="url(#clip840)" style="stroke:#000000; stroke-linecap:round; stroke-linejoin:round; stroke-width:4; stroke-opacity:1; fill:none" points="193.936,87.9761 212.834,87.9761 "/>
<path clip-path="url(#clip840)" d="M50.9921 1373.17 L80.6679 1373.17 L80.6679 1377.1 L50.9921 1377.1 L50.9921 1373.17 Z" fill="#000000" fill-rule="nonzero" fill-opacity="1" /><path clip-path="url(#clip840)" d="M91.5706 1386.06 L99.2095 1386.06 L99.2095 1359.7 L90.8993 1361.36 L90.8993 1357.1 L99.1632 1355.44 L103.839 1355.44 L103.839 1386.06 L111.478 1386.06 L111.478 1390 L91.5706 1390 L91.5706 1386.06 Z" fill="#000000" fill-rule="nonzero" fill-opacity="1" /><path clip-path="url(#clip840)" d="M120.922 1384.12 L125.807 1384.12 L125.807 1390 L120.922 1390 L120.922 1384.12 Z" fill="#000000" fill-rule="nonzero" fill-opacity="1" /><path clip-path="url(#clip840)" d="M145.992 1358.52 Q142.381 1358.52 140.552 1362.08 Q138.746 1365.62 138.746 1372.75 Q138.746 1379.86 140.552 1383.42 Q142.381 1386.96 145.992 1386.96 Q149.626 1386.96 151.431 1383.42 Q153.26 1379.86 153.26 1372.75 Q153.26 1365.62 151.431 1362.08 Q149.626 1358.52 145.992 1358.52 M145.992 1354.81 Q151.802 1354.81 154.857 1359.42 Q157.936 1364 157.936 1372.75 Q157.936 1381.48 154.857 1386.09 Q151.802 1390.67 145.992 1390.67 Q140.181 1390.67 137.103 1386.09 Q134.047 1381.48 134.047 1372.75 Q134.047 1364 137.103 1359.42 Q140.181 1354.81 145.992 1354.81 Z" fill="#000000" fill-rule="nonzero" fill-opacity="1" /><path clip-path="url(#clip840)" d="M51.9875 1051.98 L81.6633 1051.98 L81.6633 1055.92 L51.9875 1055.92 L51.9875 1051.98 Z" fill="#000000" fill-rule="nonzero" fill-opacity="1" /><path clip-path="url(#clip840)" d="M101.756 1037.33 Q98.1447 1037.33 96.316 1040.9 Q94.5104 1044.44 94.5104 1051.57 Q94.5104 1058.67 96.316 1062.24 Q98.1447 1065.78 101.756 1065.78 Q105.39 1065.78 107.196 1062.24 Q109.024 1058.67 109.024 1051.57 Q109.024 1044.44 107.196 1040.9 Q105.39 1037.33 101.756 1037.33 M101.756 1033.63 Q107.566 1033.63 110.621 1038.23 Q113.7 1042.82 113.7 1051.57 Q113.7 1060.29 110.621 1064.9 Q107.566 1069.48 101.756 1069.48 Q95.9456 1069.48 92.8669 1064.9 Q89.8114 1060.29 89.8114 1051.57 Q89.8114 1042.82 92.8669 1038.23 Q95.9456 1033.63 101.756 1033.63 Z" fill="#000000" fill-rule="nonzero" fill-opacity="1" /><path clip-path="url(#clip840)" d="M121.918 1062.93 L126.802 1062.93 L126.802 1068.81 L121.918 1068.81 L121.918 1062.93 Z" fill="#000000" fill-rule="nonzero" fill-opacity="1" /><path clip-path="url(#clip840)" d="M137.033 1034.25 L155.39 1034.25 L155.39 1038.19 L141.316 1038.19 L141.316 1046.66 Q142.334 1046.31 143.353 1046.15 Q144.371 1045.96 145.39 1045.96 Q151.177 1045.96 154.556 1049.14 Q157.936 1052.31 157.936 1057.72 Q157.936 1063.3 154.464 1066.4 Q150.992 1069.48 144.672 1069.48 Q142.496 1069.48 140.228 1069.11 Q137.982 1068.74 135.575 1068 L135.575 1063.3 Q137.658 1064.44 139.881 1064.99 Q142.103 1065.55 144.58 1065.55 Q148.584 1065.55 150.922 1063.44 Q153.26 1061.34 153.26 1057.72 Q153.26 1054.11 150.922 1052.01 Q148.584 1049.9 144.58 1049.9 Q142.705 1049.9 140.83 1050.32 Q138.978 1050.73 137.033 1051.61 L137.033 1034.25 Z" fill="#000000" fill-rule="nonzero" fill-opacity="1" /><path clip-path="url(#clip840)" d="M100.76 716.145 Q97.1493 716.145 95.3206 719.71 Q93.515 723.252 93.515 730.381 Q93.515 737.488 95.3206 741.053 Q97.1493 744.594 100.76 744.594 Q104.395 744.594 106.2 741.053 Q108.029 737.488 108.029 730.381 Q108.029 723.252 106.2 719.71 Q104.395 716.145 100.76 716.145 M100.76 712.442 Q106.571 712.442 109.626 717.048 Q112.705 721.631 112.705 730.381 Q112.705 739.108 109.626 743.715 Q106.571 748.298 100.76 748.298 Q94.9502 748.298 91.8715 743.715 Q88.816 739.108 88.816 730.381 Q88.816 721.631 91.8715 717.048 Q94.9502 712.442 100.76 712.442 Z" fill="#000000" fill-rule="nonzero" fill-opacity="1" /><path clip-path="url(#clip840)" d="M120.922 741.747 L125.807 741.747 L125.807 747.627 L120.922 747.627 L120.922 741.747 Z" fill="#000000" fill-rule="nonzero" fill-opacity="1" /><path clip-path="url(#clip840)" d="M145.992 716.145 Q142.381 716.145 140.552 719.71 Q138.746 723.252 138.746 730.381 Q138.746 737.488 140.552 741.053 Q142.381 744.594 145.992 744.594 Q149.626 744.594 151.431 741.053 Q153.26 737.488 153.26 730.381 Q153.26 723.252 151.431 719.71 Q149.626 716.145 145.992 716.145 M145.992 712.442 Q151.802 712.442 154.857 717.048 Q157.936 721.631 157.936 730.381 Q157.936 739.108 154.857 743.715 Q151.802 748.298 145.992 748.298 Q140.181 748.298 137.103 743.715 Q134.047 739.108 134.047 730.381 Q134.047 721.631 137.103 717.048 Q140.181 712.442 145.992 712.442 Z" fill="#000000" fill-rule="nonzero" fill-opacity="1" /><path clip-path="url(#clip840)" d="M101.756 394.96 Q98.1447 394.96 96.316 398.525 Q94.5104 402.066 94.5104 409.196 Q94.5104 416.303 96.316 419.867 Q98.1447 423.409 101.756 423.409 Q105.39 423.409 107.196 419.867 Q109.024 416.303 109.024 409.196 Q109.024 402.066 107.196 398.525 Q105.39 394.96 101.756 394.96 M101.756 391.256 Q107.566 391.256 110.621 395.863 Q113.7 400.446 113.7 409.196 Q113.7 417.923 110.621 422.529 Q107.566 427.113 101.756 427.113 Q95.9456 427.113 92.8669 422.529 Q89.8114 417.923 89.8114 409.196 Q89.8114 400.446 92.8669 395.863 Q95.9456 391.256 101.756 391.256 Z" fill="#000000" fill-rule="nonzero" fill-opacity="1" /><path clip-path="url(#clip840)" d="M121.918 420.562 L126.802 420.562 L126.802 426.441 L121.918 426.441 L121.918 420.562 Z" fill="#000000" fill-rule="nonzero" fill-opacity="1" /><path clip-path="url(#clip840)" d="M137.033 391.881 L155.39 391.881 L155.39 395.816 L141.316 395.816 L141.316 404.289 Q142.334 403.941 143.353 403.779 Q144.371 403.594 145.39 403.594 Q151.177 403.594 154.556 406.766 Q157.936 409.937 157.936 415.353 Q157.936 420.932 154.464 424.034 Q150.992 427.113 144.672 427.113 Q142.496 427.113 140.228 426.742 Q137.982 426.372 135.575 425.631 L135.575 420.932 Q137.658 422.066 139.881 422.622 Q142.103 423.177 144.58 423.177 Q148.584 423.177 150.922 421.071 Q153.26 418.965 153.26 415.353 Q153.26 411.742 150.922 409.636 Q148.584 407.529 144.58 407.529 Q142.705 407.529 140.83 407.946 Q138.978 408.363 137.033 409.242 L137.033 391.881 Z" fill="#000000" fill-rule="nonzero" fill-opacity="1" /><path clip-path="url(#clip840)" d="M91.5706 101.321 L99.2095 101.321 L99.2095 74.9553 L90.8993 76.622 L90.8993 72.3627 L99.1632 70.6961 L103.839 70.6961 L103.839 101.321 L111.478 101.321 L111.478 105.256 L91.5706 105.256 L91.5706 101.321 Z" fill="#000000" fill-rule="nonzero" fill-opacity="1" /><path clip-path="url(#clip840)" d="M120.922 99.3765 L125.807 99.3765 L125.807 105.256 L120.922 105.256 L120.922 99.3765 Z" fill="#000000" fill-rule="nonzero" fill-opacity="1" /><path clip-path="url(#clip840)" d="M145.992 73.7748 Q142.381 73.7748 140.552 77.3396 Q138.746 80.8812 138.746 88.0108 Q138.746 95.1172 140.552 98.682 Q142.381 102.224 145.992 102.224 Q149.626 102.224 151.431 98.682 Q153.26 95.1172 153.26 88.0108 Q153.26 80.8812 151.431 77.3396 Q149.626 73.7748 145.992 73.7748 M145.992 70.0711 Q151.802 70.0711 154.857 74.6775 Q157.936 79.2608 157.936 88.0108 Q157.936 96.7376 154.857 101.344 Q151.802 105.927 145.992 105.927 Q140.181 105.927 137.103 101.344 Q134.047 96.7376 134.047 88.0108 Q134.047 79.2608 137.103 74.6775 Q140.181 70.0711 145.992 70.0711 Z" fill="#000000" fill-rule="nonzero" fill-opacity="1" /><polyline clip-path="url(#clip841)" style="stroke:#009af9; stroke-linecap:round; stroke-linejoin:round; stroke-width:4; stroke-opacity:1; fill:none" points="255.035,730.347 258.278,723.923 261.521,717.5 264.764,711.078 268.007,704.659 271.25,698.241 274.493,691.827 277.736,685.417 280.979,679.012 284.222,672.611 287.465,666.217 290.708,659.828 293.951,653.447 297.194,647.073 300.437,640.708 303.68,634.352 306.923,628.005 310.166,621.669 313.409,615.343 316.652,609.029 319.895,602.727 323.138,596.438 326.381,590.162 329.624,583.901 332.867,577.653 336.11,571.422 339.353,565.206 342.596,559.006 345.84,552.824 349.083,546.659 352.326,540.513 355.569,534.386 358.812,528.278 362.055,522.191 365.298,516.124 368.541,510.079 371.784,504.056 375.027,498.056 378.27,492.078 381.513,486.125 384.756,480.196 387.999,474.292 391.242,468.413 394.485,462.561 397.728,456.736 400.971,450.938 404.214,445.167 407.457,439.426 410.7,433.713 413.943,428.03 417.186,422.378 420.429,416.756 423.672,411.165 426.915,405.607 430.158,400.081 433.401,394.588 436.644,389.128 439.887,383.703 443.13,378.312 446.373,372.957 449.616,367.637 452.859,362.353 456.103,357.107 459.346,351.897 462.589,346.726 465.832,341.593 469.075,336.498 472.318,331.444 475.561,326.428 478.804,321.454 482.047,316.52 485.29,311.628 488.533,306.777 491.776,301.969 495.019,297.204 498.262,292.482 501.505,287.804 504.748,283.17 507.991,278.581 511.234,274.037 514.477,269.538 517.72,265.086 520.963,260.68 524.206,256.321 527.449,252.01 530.692,247.746 533.935,243.531 537.178,239.364 540.421,235.247 543.664,231.179 546.907,227.16 550.15,223.193 553.393,219.276 556.636,215.41 559.879,211.595 563.122,207.832 566.366,204.122 569.609,200.464 572.852,196.86 576.095,193.308 579.338,189.81 582.581,186.367 585.824,182.978 589.067,179.643 592.31,176.364 595.553,173.139 598.796,169.971 602.039,166.859 605.282,163.803 608.525,160.804 611.768,157.861 615.011,154.976 618.254,152.149 621.497,149.379 624.74,146.667 627.983,144.014 631.226,141.419 634.469,138.884 637.712,136.407 640.955,133.99 644.198,131.632 647.441,129.334 650.684,127.097 653.927,124.92 657.17,122.803 660.413,120.747 663.656,118.752 666.899,116.818 670.142,114.945 673.385,113.134 676.629,111.385 679.872,109.698 683.115,108.073 686.358,106.51 689.601,105.009 692.844,103.571 696.087,102.195 699.33,100.883 702.573,99.6328 705.816,98.4462 709.059,97.3227 712.302,96.2626 715.545,95.2658 718.788,94.3326 722.031,93.463 725.274,92.657 728.517,91.9149 731.76,91.2365 735.003,90.6221 738.246,90.0716 741.489,89.5852 744.732,89.1629 747.975,88.8046 751.218,88.5106 754.461,88.2807 757.704,88.115 760.947,88.0135 764.19,87.9763 767.433,88.0033 770.676,88.0945 773.919,88.25 777.162,88.4696 780.405,88.7535 783.648,89.1015 786.892,89.5137 790.135,89.9899 793.378,90.5301 796.621,91.1344 799.864,91.8025 803.107,92.5346 806.35,93.3304 809.593,94.1898 812.836,95.113 816.079,96.0996 819.322,97.1497 822.565,98.263 825.808,99.4396 829.051,100.679 832.294,101.982 835.537,103.347 838.78,104.776 842.023,106.266 845.266,107.819 848.509,109.435 851.752,111.112 854.995,112.852 858.238,114.653 861.481,116.516 864.724,118.44 867.967,120.425 871.21,122.471 874.453,124.578 877.696,126.746 880.939,128.974 884.182,131.262 887.425,133.61 890.668,136.018 893.911,138.485 897.155,141.011 900.398,143.597 903.641,146.241 906.884,148.943 910.127,151.704 913.37,154.522 916.613,157.398 919.856,160.331 923.099,163.321 926.342,166.368 929.585,169.472 932.828,172.631 936.071,175.846 939.314,179.117 942.557,182.443 945.8,185.823 949.043,189.258 952.286,192.747 955.529,196.29 958.772,199.887 962.015,203.536 965.258,207.238 968.501,210.992 971.744,214.799 974.987,218.656 978.23,222.565 981.473,226.525 984.716,230.535 987.959,234.595 991.202,238.705 994.445,242.864 997.688,247.072 1000.93,251.328 1004.17,255.631 1007.42,259.983 1010.66,264.381 1013.9,268.826 1017.15,273.317 1020.39,277.854 1023.63,282.436 1026.88,287.063 1030.12,291.734 1033.36,296.449 1036.6,301.207 1039.85,306.009 1043.09,310.852 1046.33,315.738 1049.58,320.665 1052.82,325.633 1056.06,330.642 1059.31,335.691 1062.55,340.779 1065.79,345.906 1069.04,351.071 1072.28,356.275 1075.52,361.515 1078.76,366.793 1082.01,372.107 1085.25,377.457 1088.49,382.842 1091.74,388.262 1094.98,393.716 1098.22,399.204 1101.47,404.725 1104.71,410.278 1107.95,415.863 1111.19,421.48 1114.44,427.128 1117.68,432.806 1120.92,438.514 1124.17,444.251 1127.41,450.017 1130.65,455.81 1133.9,461.631 1137.14,467.479 1140.38,473.354 1143.62,479.254 1146.87,485.179 1150.11,491.128 1153.35,497.102 1156.6,503.099 1159.84,509.118 1163.08,515.16 1166.33,521.223 1169.57,527.307 1172.81,533.412 1176.06,539.536 1179.3,545.679 1182.54,551.841 1185.78,558.02 1189.03,564.217 1192.27,570.431 1195.51,576.66 1198.76,582.905 1202,589.164 1205.24,595.438 1208.49,601.725 1211.73,608.025 1214.97,614.337 1218.21,620.661 1221.46,626.995 1224.7,633.34 1227.94,639.695 1231.19,646.059 1234.43,652.431 1237.67,658.811 1240.92,665.199 1244.16,671.592 1247.4,677.992 1250.64,684.397 1253.89,690.806 1257.13,697.22 1260.37,703.636 1263.62,710.056 1266.86,716.477 1270.1,722.9 1273.35,729.324 1276.59,735.747 1279.83,742.17 1283.08,748.592 1286.32,755.012 1289.56,761.43 1292.8,767.844 1296.05,774.255 1299.29,780.662 1302.53,787.063 1305.78,793.459 1309.02,799.848 1312.26,806.23 1315.51,812.605 1318.75,818.972 1321.99,825.33 1325.23,831.678 1328.48,838.016 1331.72,844.343 1334.96,850.659 1338.21,856.963 1341.45,863.254 1344.69,869.532 1347.94,875.796 1351.18,882.046 1354.42,888.28 1357.66,894.499 1360.91,900.701 1364.15,906.886 1367.39,913.053 1370.64,919.202 1373.88,925.333 1377.12,931.443 1380.37,937.534 1383.61,943.604 1386.85,949.653 1390.1,955.679 1393.34,961.684 1396.58,967.665 1399.82,973.622 1403.07,979.555 1406.31,985.463 1409.55,991.345 1412.8,997.202 1416.04,1003.03 1419.28,1008.83 1422.53,1014.61 1425.77,1020.35 1429.01,1026.07 1432.25,1031.76 1435.5,1037.42 1438.74,1043.04 1441.98,1048.64 1445.23,1054.2 1448.47,1059.73 1451.71,1065.23 1454.96,1070.7 1458.2,1076.13 1461.44,1081.52 1464.68,1086.89 1467.93,1092.21 1471.17,1097.5 1474.41,1102.75 1477.66,1107.97 1480.9,1113.15 1484.14,1118.29 1487.39,1123.39 1490.63,1128.45 1493.87,1133.47 1497.11,1138.45 1500.36,1143.39 1503.6,1148.29 1506.84,1153.15 1510.09,1157.96 1513.33,1162.73 1516.57,1167.46 1519.82,1172.15 1523.06,1176.79 1526.3,1181.38 1529.55,1185.94 1532.79,1190.44 1536.03,1194.9 1539.27,1199.31 1542.52,1203.68 1545.76,1208 1549,1212.27 1552.25,1216.49 1555.49,1220.67 1558.73,1224.79 1561.98,1228.87 1565.22,1232.9 1568.46,1236.87 1571.7,1240.8 1574.95,1244.67 1578.19,1248.49 1581.43,1252.26 1584.68,1255.98 1587.92,1259.65 1591.16,1263.26 1594.41,1266.82 1597.65,1270.33 1600.89,1273.78 1604.13,1277.18 1607.38,1280.52 1610.62,1283.81 1613.86,1287.04 1617.11,1290.22 1620.35,1293.34 1623.59,1296.41 1626.84,1299.42 1630.08,1302.37 1633.32,1305.26 1636.57,1308.1 1639.81,1310.88 1643.05,1313.6 1646.29,1316.26 1649.54,1318.86 1652.78,1321.41 1656.02,1323.9 1659.27,1326.32 1662.51,1328.69 1665.75,1331 1669,1333.24 1672.24,1335.43 1675.48,1337.56 1678.72,1339.62 1681.97,1341.63 1685.21,1343.57 1688.45,1345.45 1691.7,1347.27 1694.94,1349.03 1698.18,1350.73 1701.43,1352.37 1704.67,1353.94 1707.91,1355.45 1711.15,1356.9 1714.4,1358.28 1717.64,1359.61 1720.88,1360.87 1724.13,1362.06 1727.37,1363.2 1730.61,1364.27 1733.86,1365.27 1737.1,1366.22 1740.34,1367.1 1743.59,1367.91 1746.83,1368.66 1750.07,1369.35 1753.31,1369.98 1756.56,1370.54 1759.8,1371.03 1763.04,1371.47 1766.29,1371.84 1769.53,1372.14 1772.77,1372.38 1776.02,1372.56 1779.26,1372.67 1782.5,1372.72 1785.74,1372.7 1788.99,1372.62 1792.23,1372.47 1795.47,1372.26 1798.72,1371.99 1801.96,1371.65 1805.2,1371.25 1808.45,1370.78 1811.69,1370.25 1814.93,1369.66 1818.17,1369 1821.42,1368.28 1824.66,1367.49 1827.9,1366.64 1831.15,1365.73 1834.39,1364.75 1837.63,1363.72 1840.88,1362.61 1844.12,1361.45 1847.36,1360.22 1850.61,1358.92 1853.85,1357.57 1857.09,1356.15 1860.33,1354.67 1863.58,1353.13 1866.82,1351.52 1870.06,1349.85 1873.31,1348.12 1876.55,1346.33 1879.79,1344.48 1883.04,1342.56 1886.28,1340.59 1889.52,1338.55 1892.76,1336.45 1896.01,1334.3 1899.25,1332.08 1902.49,1329.8 1905.74,1327.46 1908.98,1325.06 1912.22,1322.6 1915.47,1320.09 1918.71,1317.51 1921.95,1314.88 1925.19,1312.18 1928.44,1309.43 1931.68,1306.62 1934.92,1303.76 1938.17,1300.83 1941.41,1297.85 1944.65,1294.81 1947.9,1291.72 1951.14,1288.57 1954.38,1285.36 1957.63,1282.1 1960.87,1278.78 1964.11,1275.41 1967.35,1271.99 1970.6,1268.51 1973.84,1264.97 1977.08,1261.38 1980.33,1257.74 1983.57,1254.05 1986.81,1250.3 1990.06,1246.5 1993.3,1242.65 1996.54,1238.75 1999.78,1234.8 2003.03,1230.8 2006.27,1226.75 2009.51,1222.65 2012.76,1218.49 2016,1214.29 2019.24,1210.05 2022.49,1205.75 2025.73,1201.41 2028.97,1197.02 2032.21,1192.58 2035.46,1188.09 2038.7,1183.56 2041.94,1178.99 2045.19,1174.37 2048.43,1169.71 2051.67,1165 2054.92,1160.25 2058.16,1155.45 2061.4,1150.61 2064.65,1145.74 2067.89,1140.82 2071.13,1135.85 2074.37,1130.85 2077.62,1125.81 2080.86,1120.73 2084.1,1115.61 2087.35,1110.45 2090.59,1105.25 2093.83,1100.02 2097.08,1094.74 2100.32,1089.43 2103.56,1084.09 2106.8,1078.71 2110.05,1073.3 2113.29,1067.85 2116.53,1062.37 2119.78,1056.85 2123.02,1051.3 2126.26,1045.72 2129.51,1040.11 2132.75,1034.47 2135.99,1028.79 2139.23,1023.09 2142.48,1017.36 2145.72,1011.6 2148.96,1005.81 2152.21,999.991 2155.45,994.147 2158.69,988.277 2161.94,982.381 2165.18,976.46 2168.42,970.514 2171.67,964.544 2174.91,958.551 2178.15,952.535 2181.39,946.497 2184.64,940.437 2187.88,934.356 2191.12,928.255 2194.37,922.134 2197.61,915.994 2200.85,909.835 2204.1,903.658 2207.34,897.464 2210.58,891.253 2213.82,885.026 2217.07,878.784 2220.31,872.527 2223.55,866.256 2226.8,859.971 2230.04,853.673 2233.28,847.362 2236.53,841.04 2239.77,834.707 2243.01,828.364 2246.25,822.011 2249.5,815.648 2252.74,809.277 2255.98,802.898 2259.23,796.512 2262.47,790.119 2265.71,783.721 2268.96,777.317 2272.2,770.908 2275.44,764.495 2278.69,758.079 2281.93,751.66 2285.17,745.239 2288.41,738.816 2291.66,732.393 "/>
<circle clip-path="url(#clip841)" cx="1380.37" cy="835.569" r="14.4" fill="#e26f46" fill-rule="evenodd" fill-opacity="1" stroke="#000000" stroke-opacity="1" stroke-width="3.2"/>
<circle clip-path="url(#clip841)" cx="452.859" cy="421.857" r="14.4" fill="#e26f46" fill-rule="evenodd" fill-opacity="1" stroke="#000000" stroke-opacity="1" stroke-width="3.2"/>
<circle clip-path="url(#clip841)" cx="1772.77" cy="1445.72" r="14.4" fill="#e26f46" fill-rule="evenodd" fill-opacity="1" stroke="#000000" stroke-opacity="1" stroke-width="3.2"/>
<circle clip-path="url(#clip841)" cx="1782.5" cy="1330.61" r="14.4" fill="#e26f46" fill-rule="evenodd" fill-opacity="1" stroke="#000000" stroke-opacity="1" stroke-width="3.2"/>
<circle clip-path="url(#clip841)" cx="1315.51" cy="765.611" r="14.4" fill="#e26f46" fill-rule="evenodd" fill-opacity="1" stroke="#000000" stroke-opacity="1" stroke-width="3.2"/>
<circle clip-path="url(#clip841)" cx="1688.45" cy="1282.16" r="14.4" fill="#e26f46" fill-rule="evenodd" fill-opacity="1" stroke="#000000" stroke-opacity="1" stroke-width="3.2"/>
<circle clip-path="url(#clip841)" cx="452.859" cy="291.21" r="14.4" fill="#e26f46" fill-rule="evenodd" fill-opacity="1" stroke="#000000" stroke-opacity="1" stroke-width="3.2"/>
<circle clip-path="url(#clip841)" cx="1247.4" cy="699.995" r="14.4" fill="#e26f46" fill-rule="evenodd" fill-opacity="1" stroke="#000000" stroke-opacity="1" stroke-width="3.2"/>
<circle clip-path="url(#clip841)" cx="404.214" cy="377.657" r="14.4" fill="#e26f46" fill-rule="evenodd" fill-opacity="1" stroke="#000000" stroke-opacity="1" stroke-width="3.2"/>
<circle clip-path="url(#clip841)" cx="1331.72" cy="714.372" r="14.4" fill="#e26f46" fill-rule="evenodd" fill-opacity="1" stroke="#000000" stroke-opacity="1" stroke-width="3.2"/>
<circle clip-path="url(#clip841)" cx="2259.23" cy="829.219" r="14.4" fill="#e26f46" fill-rule="evenodd" fill-opacity="1" stroke="#000000" stroke-opacity="1" stroke-width="3.2"/>
<circle clip-path="url(#clip841)" cx="981.473" cy="91.021" r="14.4" fill="#e26f46" fill-rule="evenodd" fill-opacity="1" stroke="#000000" stroke-opacity="1" stroke-width="3.2"/>
<circle clip-path="url(#clip841)" cx="1043.09" cy="400.479" r="14.4" fill="#e26f46" fill-rule="evenodd" fill-opacity="1" stroke="#000000" stroke-opacity="1" stroke-width="3.2"/>
<circle clip-path="url(#clip841)" cx="491.776" cy="441.268" r="14.4" fill="#e26f46" fill-rule="evenodd" fill-opacity="1" stroke="#000000" stroke-opacity="1" stroke-width="3.2"/>
<circle clip-path="url(#clip841)" cx="462.589" cy="457.079" r="14.4" fill="#e26f46" fill-rule="evenodd" fill-opacity="1" stroke="#000000" stroke-opacity="1" stroke-width="3.2"/>
<circle clip-path="url(#clip841)" cx="624.74" cy="103.489" r="14.4" fill="#e26f46" fill-rule="evenodd" fill-opacity="1" stroke="#000000" stroke-opacity="1" stroke-width="3.2"/>
<circle clip-path="url(#clip841)" cx="556.636" cy="323.925" r="14.4" fill="#e26f46" fill-rule="evenodd" fill-opacity="1" stroke="#000000" stroke-opacity="1" stroke-width="3.2"/>
<circle clip-path="url(#clip841)" cx="1192.27" cy="693.351" r="14.4" fill="#e26f46" fill-rule="evenodd" fill-opacity="1" stroke="#000000" stroke-opacity="1" stroke-width="3.2"/>
<circle clip-path="url(#clip841)" cx="1717.64" cy="1383.16" r="14.4" fill="#e26f46" fill-rule="evenodd" fill-opacity="1" stroke="#000000" stroke-opacity="1" stroke-width="3.2"/>
<circle clip-path="url(#clip841)" cx="1889.52" cy="1258.3" r="14.4" fill="#e26f46" fill-rule="evenodd" fill-opacity="1" stroke="#000000" stroke-opacity="1" stroke-width="3.2"/>
<path clip-path="url(#clip840)" d="M1953.46 250.738 L2280.8 250.738 L2280.8 95.2176 L1953.46 95.2176  Z" fill="#ffffff" fill-rule="evenodd" fill-opacity="1"/>
<polyline clip-path="url(#clip840)" style="stroke:#000000; stroke-linecap:round; stroke-linejoin:round; stroke-width:4; stroke-opacity:1; fill:none" points="1953.46,250.738 2280.8,250.738 2280.8,95.2176 1953.46,95.2176 1953.46,250.738 "/>
<polyline clip-path="url(#clip840)" style="stroke:#009af9; stroke-linecap:round; stroke-linejoin:round; stroke-width:4; stroke-opacity:1; fill:none" points="1977.44,147.058 2121.36,147.058 "/>
<path clip-path="url(#clip840)" d="M2152.76 131.051 L2152.76 138.412 L2161.53 138.412 L2161.53 141.722 L2152.76 141.722 L2152.76 155.796 Q2152.76 158.967 2153.61 159.87 Q2154.49 160.773 2157.16 160.773 L2161.53 160.773 L2161.53 164.338 L2157.16 164.338 Q2152.23 164.338 2150.35 162.509 Q2148.48 160.657 2148.48 155.796 L2148.48 141.722 L2145.35 141.722 L2145.35 138.412 L2148.48 138.412 L2148.48 131.051 L2152.76 131.051 Z" fill="#000000" fill-rule="nonzero" fill-opacity="1" /><path clip-path="url(#clip840)" d="M2182.16 142.393 Q2181.44 141.977 2180.58 141.791 Q2179.75 141.583 2178.73 141.583 Q2175.12 141.583 2173.17 143.944 Q2171.25 146.282 2171.25 150.68 L2171.25 164.338 L2166.97 164.338 L2166.97 138.412 L2171.25 138.412 L2171.25 142.44 Q2172.6 140.078 2174.75 138.944 Q2176.9 137.787 2179.98 137.787 Q2180.42 137.787 2180.95 137.856 Q2181.48 137.903 2182.13 138.018 L2182.16 142.393 Z" fill="#000000" fill-rule="nonzero" fill-opacity="1" /><path clip-path="url(#clip840)" d="M2186.18 154.106 L2186.18 138.412 L2190.44 138.412 L2190.44 153.944 Q2190.44 157.625 2191.88 159.476 Q2193.31 161.305 2196.18 161.305 Q2199.63 161.305 2201.62 159.106 Q2203.64 156.907 2203.64 153.111 L2203.64 138.412 L2207.9 138.412 L2207.9 164.338 L2203.64 164.338 L2203.64 160.356 Q2202.09 162.717 2200.03 163.875 Q2197.99 165.009 2195.28 165.009 Q2190.81 165.009 2188.5 162.231 Q2186.18 159.453 2186.18 154.106 M2196.9 137.787 L2196.9 137.787 Z" fill="#000000" fill-rule="nonzero" fill-opacity="1" /><path clip-path="url(#clip840)" d="M2220.88 131.051 L2220.88 138.412 L2229.66 138.412 L2229.66 141.722 L2220.88 141.722 L2220.88 155.796 Q2220.88 158.967 2221.74 159.87 Q2222.62 160.773 2225.28 160.773 L2229.66 160.773 L2229.66 164.338 L2225.28 164.338 Q2220.35 164.338 2218.48 162.509 Q2216.6 160.657 2216.6 155.796 L2216.6 141.722 L2213.48 141.722 L2213.48 138.412 L2216.6 138.412 L2216.6 131.051 L2220.88 131.051 Z" fill="#000000" fill-rule="nonzero" fill-opacity="1" /><path clip-path="url(#clip840)" d="M2256.81 148.689 L2256.81 164.338 L2252.55 164.338 L2252.55 148.828 Q2252.55 145.148 2251.11 143.319 Q2249.68 141.49 2246.81 141.49 Q2243.36 141.49 2241.37 143.69 Q2239.38 145.889 2239.38 149.685 L2239.38 164.338 L2235.1 164.338 L2235.1 128.319 L2239.38 128.319 L2239.38 142.44 Q2240.91 140.102 2242.97 138.944 Q2245.05 137.787 2247.76 137.787 Q2252.23 137.787 2254.52 140.565 Q2256.81 143.319 2256.81 148.689 Z" fill="#000000" fill-rule="nonzero" fill-opacity="1" /><circle clip-path="url(#clip840)" cx="2049.4" cy="198.898" r="20.48" fill="#e26f46" fill-rule="evenodd" fill-opacity="1" stroke="#000000" stroke-opacity="1" stroke-width="4.55111"/>
<path clip-path="url(#clip840)" d="M2164.26 194.187 L2164.26 180.159 L2168.52 180.159 L2168.52 216.178 L2164.26 216.178 L2164.26 212.289 Q2162.92 214.603 2160.86 215.738 Q2158.82 216.849 2155.95 216.849 Q2151.25 216.849 2148.29 213.099 Q2145.35 209.349 2145.35 203.238 Q2145.35 197.127 2148.29 193.377 Q2151.25 189.627 2155.95 189.627 Q2158.82 189.627 2160.86 190.761 Q2162.92 191.872 2164.26 194.187 M2149.75 203.238 Q2149.75 207.937 2151.67 210.622 Q2153.61 213.284 2156.99 213.284 Q2160.37 213.284 2162.32 210.622 Q2164.26 207.937 2164.26 203.238 Q2164.26 198.539 2162.32 195.877 Q2160.37 193.192 2156.99 193.192 Q2153.61 193.192 2151.67 195.877 Q2149.75 198.539 2149.75 203.238 Z" fill="#000000" fill-rule="nonzero" fill-opacity="1" /><path clip-path="url(#clip840)" d="M2189.08 203.145 Q2183.92 203.145 2181.92 204.326 Q2179.93 205.506 2179.93 208.354 Q2179.93 210.622 2181.42 211.965 Q2182.92 213.284 2185.49 213.284 Q2189.03 213.284 2191.16 210.784 Q2193.31 208.261 2193.31 204.094 L2193.31 203.145 L2189.08 203.145 M2197.57 201.386 L2197.57 216.178 L2193.31 216.178 L2193.31 212.242 Q2191.85 214.603 2189.68 215.738 Q2187.5 216.849 2184.36 216.849 Q2180.37 216.849 2178.01 214.627 Q2175.67 212.381 2175.67 208.631 Q2175.67 204.256 2178.59 202.034 Q2181.53 199.812 2187.34 199.812 L2193.31 199.812 L2193.31 199.395 Q2193.31 196.455 2191.37 194.858 Q2189.45 193.238 2185.95 193.238 Q2183.73 193.238 2181.62 193.77 Q2179.52 194.303 2177.57 195.367 L2177.57 191.432 Q2179.91 190.53 2182.11 190.09 Q2184.31 189.627 2186.39 189.627 Q2192.02 189.627 2194.79 192.543 Q2197.57 195.46 2197.57 201.386 Z" fill="#000000" fill-rule="nonzero" fill-opacity="1" /><path clip-path="url(#clip840)" d="M2210.56 182.891 L2210.56 190.252 L2219.33 190.252 L2219.33 193.562 L2210.56 193.562 L2210.56 207.636 Q2210.56 210.807 2211.42 211.71 Q2212.29 212.613 2214.96 212.613 L2219.33 212.613 L2219.33 216.178 L2214.96 216.178 Q2210.03 216.178 2208.15 214.349 Q2206.28 212.497 2206.28 207.636 L2206.28 193.562 L2203.15 193.562 L2203.15 190.252 L2206.28 190.252 L2206.28 182.891 L2210.56 182.891 Z" fill="#000000" fill-rule="nonzero" fill-opacity="1" /><path clip-path="url(#clip840)" d="M2236.72 203.145 Q2231.55 203.145 2229.56 204.326 Q2227.57 205.506 2227.57 208.354 Q2227.57 210.622 2229.05 211.965 Q2230.56 213.284 2233.13 213.284 Q2236.67 213.284 2238.8 210.784 Q2240.95 208.261 2240.95 204.094 L2240.95 203.145 L2236.72 203.145 M2245.21 201.386 L2245.21 216.178 L2240.95 216.178 L2240.95 212.242 Q2239.49 214.603 2237.32 215.738 Q2235.14 216.849 2231.99 216.849 Q2228.01 216.849 2225.65 214.627 Q2223.31 212.381 2223.31 208.631 Q2223.31 204.256 2226.23 202.034 Q2229.17 199.812 2234.98 199.812 L2240.95 199.812 L2240.95 199.395 Q2240.95 196.455 2239.01 194.858 Q2237.09 193.238 2233.59 193.238 Q2231.37 193.238 2229.26 193.77 Q2227.16 194.303 2225.21 195.367 L2225.21 191.432 Q2227.55 190.53 2229.75 190.09 Q2231.95 189.627 2234.03 189.627 Q2239.66 189.627 2242.43 192.543 Q2245.21 195.46 2245.21 201.386 Z" fill="#000000" fill-rule="nonzero" fill-opacity="1" /></svg>
