<?xml version="1.0" encoding="utf-8"?>
<svg xmlns="http://www.w3.org/2000/svg" xmlns:xlink="http://www.w3.org/1999/xlink" width="600" height="400" viewBox="0 0 2400 1600">
<defs>
  <clipPath id="clip900">
    <rect x="0" y="0" width="2400" height="1600"/>
  </clipPath>
</defs>
<path clip-path="url(#clip900)" d="M0 1600 L2400 1600 L2400 0 L0 0  Z" fill="#ffffff" fill-rule="evenodd" fill-opacity="1"/>
<defs>
  <clipPath id="clip901">
    <rect x="193" y="47" width="2160" height="1440"/>
  </clipPath>
</defs>
<path clip-path="url(#clip900)" d="M193.936 1486.45 L2352.76 1486.45 L2352.76 47.2441 L193.936 47.2441  Z" fill="#ffffff" fill-rule="evenodd" fill-opacity="1"/>
<polyline clip-path="url(#clip901)" style="stroke:#000000; stroke-linecap:round; stroke-linejoin:round; stroke-width:2; stroke-opacity:0.1; fill:none" points="255.035,1486.45 255.035,47.2441 "/>
<polyline clip-path="url(#clip901)" style="stroke:#000000; stroke-linecap:round; stroke-linejoin:round; stroke-width:2; stroke-opacity:0.1; fill:none" points="579.173,1486.45 579.173,47.2441 "/>
<polyline clip-path="url(#clip901)" style="stroke:#000000; stroke-linecap:round; stroke-linejoin:round; stroke-width:2; stroke-opacity:0.1; fill:none" points="903.312,1486.45 903.312,47.2441 "/>
<polyline clip-path="url(#clip901)" style="stroke:#000000; stroke-linecap:round; stroke-linejoin:round; stroke-width:2; stroke-opacity:0.1; fill:none" points="1227.45,1486.45 1227.45,47.2441 "/>
<polyline clip-path="url(#clip901)" style="stroke:#000000; stroke-linecap:round; stroke-linejoin:round; stroke-width:2; stroke-opacity:0.1; fill:none" points="1551.59,1486.45 1551.59,47.2441 "/>
<polyline clip-path="url(#clip901)" style="stroke:#000000; stroke-linecap:round; stroke-linejoin:round; stroke-width:2; stroke-opacity:0.1; fill:none" points="1875.73,1486.45 1875.73,47.2441 "/>
<polyline clip-path="url(#clip901)" style="stroke:#000000; stroke-linecap:round; stroke-linejoin:round; stroke-width:2; stroke-opacity:0.1; fill:none" points="2199.87,1486.45 2199.87,47.2441 "/>
<polyline clip-path="url(#clip901)" style="stroke:#000000; stroke-linecap:round; stroke-linejoin:round; stroke-width:2; stroke-opacity:0.1; fill:none" points="193.936,1329.99 2352.76,1329.99 "/>
<polyline clip-path="url(#clip901)" style="stroke:#000000; stroke-linecap:round; stroke-linejoin:round; stroke-width:2; stroke-opacity:0.1; fill:none" points="193.936,1068.87 2352.76,1068.87 "/>
<polyline clip-path="url(#clip901)" style="stroke:#000000; stroke-linecap:round; stroke-linejoin:round; stroke-width:2; stroke-opacity:0.1; fill:none" points="193.936,807.745 2352.76,807.745 "/>
<polyline clip-path="url(#clip901)" style="stroke:#000000; stroke-linecap:round; stroke-linejoin:round; stroke-width:2; stroke-opacity:0.1; fill:none" points="193.936,546.622 2352.76,546.622 "/>
<polyline clip-path="url(#clip901)" style="stroke:#000000; stroke-linecap:round; stroke-linejoin:round; stroke-width:2; stroke-opacity:0.1; fill:none" points="193.936,285.499 2352.76,285.499 "/>
<polyline clip-path="url(#clip900)" style="stroke:#000000; stroke-linecap:round; stroke-linejoin:round; stroke-width:4; stroke-opacity:1; fill:none" points="193.936,1486.45 2352.76,1486.45 "/>
<polyline clip-path="url(#clip900)" style="stroke:#000000; stroke-linecap:round; stroke-linejoin:round; stroke-width:4; stroke-opacity:1; fill:none" points="255.035,1486.45 255.035,1467.55 "/>
<polyline clip-path="url(#clip900)" style="stroke:#000000; stroke-linecap:round; stroke-linejoin:round; stroke-width:4; stroke-opacity:1; fill:none" points="579.173,1486.45 579.173,1467.55 "/>
<polyline clip-path="url(#clip900)" style="stroke:#000000; stroke-linecap:round; stroke-linejoin:round; stroke-width:4; stroke-opacity:1; fill:none" points="903.312,1486.45 903.312,1467.55 "/>
<polyline clip-path="url(#clip900)" style="stroke:#000000; stroke-linecap:round; stroke-linejoin:round; stroke-width:4; stroke-opacity:1; fill:none" points="1227.45,1486.45 1227.45,1467.55 "/>
<polyline clip-path="url(#clip900)" style="stroke:#000000; stroke-linecap:round; stroke-linejoin:round; stroke-width:4; stroke-opacity:1; fill:none" points="1551.59,1486.45 1551.59,1467.55 "/>
<polyline clip-path="url(#clip900)" style="stroke:#000000; stroke-linecap:round; stroke-linejoin:round; stroke-width:4; stroke-opacity:1; fill:none" points="1875.73,1486.45 1875.73,1467.55 "/>
<polyline clip-path="url(#clip900)" style="stroke:#000000; stroke-linecap:round; stroke-linejoin:round; stroke-width:4; stroke-opacity:1; fill:none" points="2199.87,1486.45 2199.87,1467.55 "/>
<path clip-path="url(#clip900)" d="M255.035 1517.37 Q251.424 1517.37 249.595 1520.93 Q247.789 1524.47 247.789 1531.6 Q247.789 1538.71 249.595 1542.27 Q251.424 1545.82 255.035 1545.82 Q258.669 1545.82 260.474 1542.27 Q262.303 1538.71 262.303 1531.6 Q262.303 1524.47 260.474 1520.93 Q258.669 1517.37 255.035 1517.37 M255.035 1513.66 Q260.845 1513.66 263.9 1518.27 Q266.979 1522.85 266.979 1531.6 Q266.979 1540.33 263.9 1544.94 Q260.845 1549.52 255.035 1549.52 Q249.225 1549.52 246.146 1544.94 Q243.09 1540.33 243.09 1531.6 Q243.09 1522.85 246.146 1518.27 Q249.225 1513.66 255.035 1513.66 Z" fill="#000000" fill-rule="nonzero" fill-opacity="1" /><path clip-path="url(#clip900)" d="M569.555 1544.91 L577.194 1544.91 L577.194 1518.55 L568.884 1520.21 L568.884 1515.95 L577.148 1514.29 L581.824 1514.29 L581.824 1544.91 L589.463 1544.91 L589.463 1548.85 L569.555 1548.85 L569.555 1544.91 Z" fill="#000000" fill-rule="nonzero" fill-opacity="1" /><path clip-path="url(#clip900)" d="M897.965 1544.91 L914.284 1544.91 L914.284 1548.85 L892.34 1548.85 L892.34 1544.91 Q895.002 1542.16 899.585 1537.53 Q904.191 1532.88 905.372 1531.53 Q907.617 1529.01 908.497 1527.27 Q909.4 1525.51 909.4 1523.82 Q909.4 1521.07 907.455 1519.33 Q905.534 1517.6 902.432 1517.6 Q900.233 1517.6 897.779 1518.36 Q895.349 1519.13 892.571 1520.68 L892.571 1515.95 Q895.395 1514.82 897.849 1514.24 Q900.303 1513.66 902.34 1513.66 Q907.71 1513.66 910.904 1516.35 Q914.099 1519.03 914.099 1523.52 Q914.099 1525.65 913.289 1527.57 Q912.502 1529.47 910.395 1532.07 Q909.816 1532.74 906.715 1535.95 Q903.613 1539.15 897.965 1544.91 Z" fill="#000000" fill-rule="nonzero" fill-opacity="1" /><path clip-path="url(#clip900)" d="M1231.7 1530.21 Q1235.05 1530.93 1236.93 1533.2 Q1238.83 1535.47 1238.83 1538.8 Q1238.83 1543.92 1235.31 1546.72 Q1231.79 1549.52 1225.31 1549.52 Q1223.13 1549.52 1220.82 1549.08 Q1218.53 1548.66 1216.07 1547.81 L1216.07 1543.29 Q1218.02 1544.43 1220.33 1545.01 Q1222.65 1545.58 1225.17 1545.58 Q1229.57 1545.58 1231.86 1543.85 Q1234.17 1542.11 1234.17 1538.8 Q1234.17 1535.75 1232.02 1534.03 Q1229.89 1532.3 1226.07 1532.3 L1222.05 1532.3 L1222.05 1528.45 L1226.26 1528.45 Q1229.71 1528.45 1231.54 1527.09 Q1233.36 1525.7 1233.36 1523.11 Q1233.36 1520.45 1231.47 1519.03 Q1229.59 1517.6 1226.07 1517.6 Q1224.15 1517.6 1221.95 1518.01 Q1219.75 1518.43 1217.11 1519.31 L1217.11 1515.14 Q1219.78 1514.4 1222.09 1514.03 Q1224.43 1513.66 1226.49 1513.66 Q1231.81 1513.66 1234.92 1516.09 Q1238.02 1518.5 1238.02 1522.62 Q1238.02 1525.49 1236.37 1527.48 Q1234.73 1529.45 1231.7 1530.21 Z" fill="#000000" fill-rule="nonzero" fill-opacity="1" /><path clip-path="url(#clip900)" d="M1554.6 1518.36 L1542.79 1536.81 L1554.6 1536.81 L1554.6 1518.36 M1553.37 1514.29 L1559.25 1514.29 L1559.25 1536.81 L1564.18 1536.81 L1564.18 1540.7 L1559.25 1540.7 L1559.25 1548.85 L1554.6 1548.85 L1554.6 1540.7 L1539 1540.7 L1539 1536.19 L1553.37 1514.29 Z" fill="#000000" fill-rule="nonzero" fill-opacity="1" /><path clip-path="url(#clip900)" d="M1866.01 1514.29 L1884.36 1514.29 L1884.36 1518.22 L1870.29 1518.22 L1870.29 1526.7 Q1871.31 1526.35 1872.32 1526.19 Q1873.34 1526 1874.36 1526 Q1880.15 1526 1883.53 1529.17 Q1886.91 1532.34 1886.91 1537.76 Q1886.91 1543.34 1883.44 1546.44 Q1879.96 1549.52 1873.64 1549.52 Q1871.47 1549.52 1869.2 1549.15 Q1866.95 1548.78 1864.55 1548.04 L1864.55 1543.34 Q1866.63 1544.47 1868.85 1545.03 Q1871.07 1545.58 1873.55 1545.58 Q1877.56 1545.58 1879.89 1543.48 Q1882.23 1541.37 1882.23 1537.76 Q1882.23 1534.15 1879.89 1532.04 Q1877.56 1529.94 1873.55 1529.94 Q1871.68 1529.94 1869.8 1530.35 Q1867.95 1530.77 1866.01 1531.65 L1866.01 1514.29 Z" fill="#000000" fill-rule="nonzero" fill-opacity="1" /><path clip-path="url(#clip900)" d="M2200.27 1529.7 Q2197.12 1529.7 2195.27 1531.86 Q2193.44 1534.01 2193.44 1537.76 Q2193.44 1541.49 2195.27 1543.66 Q2197.12 1545.82 2200.27 1545.82 Q2203.42 1545.82 2205.25 1543.66 Q2207.1 1541.49 2207.1 1537.76 Q2207.1 1534.01 2205.25 1531.86 Q2203.42 1529.7 2200.27 1529.7 M2209.55 1515.05 L2209.55 1519.31 Q2207.79 1518.48 2205.99 1518.04 Q2204.21 1517.6 2202.45 1517.6 Q2197.82 1517.6 2195.36 1520.72 Q2192.93 1523.85 2192.59 1530.17 Q2193.95 1528.15 2196.01 1527.09 Q2198.07 1526 2200.55 1526 Q2205.76 1526 2208.77 1529.17 Q2211.8 1532.32 2211.8 1537.76 Q2211.8 1543.08 2208.65 1546.3 Q2205.5 1549.52 2200.27 1549.52 Q2194.28 1549.52 2191.1 1544.94 Q2187.93 1540.33 2187.93 1531.6 Q2187.93 1523.41 2191.82 1518.55 Q2195.71 1513.66 2202.26 1513.66 Q2204.02 1513.66 2205.8 1514.01 Q2207.61 1514.36 2209.55 1515.05 Z" fill="#000000" fill-rule="nonzero" fill-opacity="1" /><polyline clip-path="url(#clip900)" style="stroke:#000000; stroke-linecap:round; stroke-linejoin:round; stroke-width:4; stroke-opacity:1; fill:none" points="193.936,1486.45 193.936,47.2441 "/>
<polyline clip-path="url(#clip900)" style="stroke:#000000; stroke-linecap:round; stroke-linejoin:round; stroke-width:4; stroke-opacity:1; fill:none" points="193.936,1329.99 212.834,1329.99 "/>
<polyline clip-path="url(#clip900)" style="stroke:#000000; stroke-linecap:round; stroke-linejoin:round; stroke-width:4; stroke-opacity:1; fill:none" points="193.936,1068.87 212.834,1068.87 "/>
<polyline clip-path="url(#clip900)" style="stroke:#000000; stroke-linecap:round; stroke-linejoin:round; stroke-width:4; stroke-opacity:1; fill:none" points="193.936,807.745 212.834,807.745 "/>
<polyline clip-path="url(#clip900)" style="stroke:#000000; stroke-linecap:round; stroke-linejoin:round; stroke-width:4; stroke-opacity:1; fill:none" points="193.936,546.622 212.834,546.622 "/>
<polyline clip-path="url(#clip900)" style="stroke:#000000; stroke-linecap:round; stroke-linejoin:round; stroke-width:4; stroke-opacity:1; fill:none" points="193.936,285.499 212.834,285.499 "/>
<path clip-path="url(#clip900)" d="M50.9921 1330.44 L80.6679 1330.44 L80.6679 1334.38 L50.9921 1334.38 L50.9921 1330.44 Z" fill="#000000" fill-rule="nonzero" fill-opacity="1" /><path clip-path="url(#clip900)" d="M91.5706 1343.34 L99.2095 1343.34 L99.2095 1316.97 L90.8993 1318.64 L90.8993 1314.38 L99.1632 1312.71 L103.839 1312.71 L103.839 1343.34 L111.478 1343.34 L111.478 1347.27 L91.5706 1347.27 L91.5706 1343.34 Z" fill="#000000" fill-rule="nonzero" fill-opacity="1" /><path clip-path="url(#clip900)" d="M120.922 1341.39 L125.807 1341.39 L125.807 1347.27 L120.922 1347.27 L120.922 1341.39 Z" fill="#000000" fill-rule="nonzero" fill-opacity="1" /><path clip-path="url(#clip900)" d="M145.992 1315.79 Q142.381 1315.79 140.552 1319.35 Q138.746 1322.9 138.746 1330.02 Q138.746 1337.13 140.552 1340.7 Q142.381 1344.24 145.992 1344.24 Q149.626 1344.24 151.431 1340.7 Q153.26 1337.13 153.26 1330.02 Q153.26 1322.9 151.431 1319.35 Q149.626 1315.79 145.992 1315.79 M145.992 1312.09 Q151.802 1312.09 154.857 1316.69 Q157.936 1321.28 157.936 1330.02 Q157.936 1338.75 154.857 1343.36 Q151.802 1347.94 145.992 1347.94 Q140.181 1347.94 137.103 1343.36 Q134.047 1338.75 134.047 1330.02 Q134.047 1321.28 137.103 1316.69 Q140.181 1312.09 145.992 1312.09 Z" fill="#000000" fill-rule="nonzero" fill-opacity="1" /><path clip-path="url(#clip900)" d="M51.9875 1069.32 L81.6633 1069.32 L81.6633 1073.25 L51.9875 1073.25 L51.9875 1069.32 Z" fill="#000000" fill-rule="nonzero" fill-opacity="1" /><path clip-path="url(#clip900)" d="M101.756 1054.67 Q98.1447 1054.67 96.316 1058.23 Q94.5104 1061.77 94.5104 1068.9 Q94.5104 1076.01 96.316 1079.57 Q98.1447 1083.12 101.756 1083.12 Q105.39 1083.12 107.196 1079.57 Q109.024 1076.01 109.024 1068.9 Q109.024 1061.77 107.196 1058.23 Q105.39 1054.67 101.756 1054.67 M101.756 1050.96 Q107.566 1050.96 110.621 1055.57 Q113.7 1060.15 113.7 1068.9 Q113.7 1077.63 110.621 1082.24 Q107.566 1086.82 101.756 1086.82 Q95.9456 1086.82 92.8669 1082.24 Q89.8114 1077.63 89.8114 1068.9 Q89.8114 1060.15 92.8669 1055.57 Q95.9456 1050.96 101.756 1050.96 Z" fill="#000000" fill-rule="nonzero" fill-opacity="1" /><path clip-path="url(#clip900)" d="M121.918 1080.27 L126.802 1080.27 L126.802 1086.15 L121.918 1086.15 L121.918 1080.27 Z" fill="#000000" fill-rule="nonzero" fill-opacity="1" /><path clip-path="url(#clip900)" d="M137.033 1051.59 L155.39 1051.59 L155.39 1055.52 L141.316 1055.52 L141.316 1063.99 Q142.334 1063.65 143.353 1063.49 Q144.371 1063.3 145.39 1063.3 Q151.177 1063.3 154.556 1066.47 Q157.936 1069.64 157.936 1075.06 Q157.936 1080.64 154.464 1083.74 Q150.992 1086.82 144.672 1086.82 Q142.496 1086.82 140.228 1086.45 Q137.982 1086.08 135.575 1085.34 L135.575 1080.64 Q137.658 1081.77 139.881 1082.33 Q142.103 1082.88 144.58 1082.88 Q148.584 1082.88 150.922 1080.78 Q153.26 1078.67 153.26 1075.06 Q153.26 1071.45 150.922 1069.34 Q148.584 1067.24 144.58 1067.24 Q142.705 1067.24 140.83 1067.65 Q138.978 1068.07 137.033 1068.95 L137.033 1051.59 Z" fill="#000000" fill-rule="nonzero" fill-opacity="1" /><path clip-path="url(#clip900)" d="M100.76 793.543 Q97.1493 793.543 95.3206 797.108 Q93.515 800.65 93.515 807.779 Q93.515 814.886 95.3206 818.451 Q97.1493 821.992 100.76 821.992 Q104.395 821.992 106.2 818.451 Q108.029 814.886 108.029 807.779 Q108.029 800.65 106.2 797.108 Q104.395 793.543 100.76 793.543 M100.76 789.84 Q106.571 789.84 109.626 794.446 Q112.705 799.029 112.705 807.779 Q112.705 816.506 109.626 821.113 Q106.571 825.696 100.76 825.696 Q94.9502 825.696 91.8715 821.113 Q88.816 816.506 88.816 807.779 Q88.816 799.029 91.8715 794.446 Q94.9502 789.84 100.76 789.84 Z" fill="#000000" fill-rule="nonzero" fill-opacity="1" /><path clip-path="url(#clip900)" d="M120.922 819.145 L125.807 819.145 L125.807 825.025 L120.922 825.025 L120.922 819.145 Z" fill="#000000" fill-rule="nonzero" fill-opacity="1" /><path clip-path="url(#clip900)" d="M145.992 793.543 Q142.381 793.543 140.552 797.108 Q138.746 800.65 138.746 807.779 Q138.746 814.886 140.552 818.451 Q142.381 821.992 145.992 821.992 Q149.626 821.992 151.431 818.451 Q153.26 814.886 153.26 807.779 Q153.26 800.65 151.431 797.108 Q149.626 793.543 145.992 793.543 M145.992 789.84 Q151.802 789.84 154.857 794.446 Q157.936 799.029 157.936 807.779 Q157.936 816.506 154.857 821.113 Q151.802 825.696 145.992 825.696 Q140.181 825.696 137.103 821.113 Q134.047 816.506 134.047 807.779 Q134.047 799.029 137.103 794.446 Q140.181 789.84 145.992 789.84 Z" fill="#000000" fill-rule="nonzero" fill-opacity="1" /><path clip-path="url(#clip900)" d="M101.756 532.421 Q98.1447 532.421 96.316 535.985 Q94.5104 539.527 94.5104 546.657 Q94.5104 553.763 96.316 557.328 Q98.1447 560.869 101.756 560.869 Q105.39 560.869 107.196 557.328 Q109.024 553.763 109.024 546.657 Q109.024 539.527 107.196 535.985 Q105.39 532.421 101.756 532.421 M101.756 528.717 Q107.566 528.717 110.621 533.323 Q113.7 537.907 113.7 546.657 Q113.7 555.383 110.621 559.99 Q107.566 564.573 101.756 564.573 Q95.9456 564.573 92.8669 559.99 Q89.8114 555.383 89.8114 546.657 Q89.8114 537.907 92.8669 533.323 Q95.9456 528.717 101.756 528.717 Z" fill="#000000" fill-rule="nonzero" fill-opacity="1" /><path clip-path="url(#clip900)" d="M121.918 558.022 L126.802 558.022 L126.802 563.902 L121.918 563.902 L121.918 558.022 Z" fill="#000000" fill-rule="nonzero" fill-opacity="1" /><path clip-path="url(#clip900)" d="M137.033 529.342 L155.39 529.342 L155.39 533.277 L141.316 533.277 L141.316 541.749 Q142.334 541.402 143.353 541.24 Q144.371 541.055 145.39 541.055 Q151.177 541.055 154.556 544.226 Q157.936 547.397 157.936 552.814 Q157.936 558.393 154.464 561.494 Q150.992 564.573 144.672 564.573 Q142.496 564.573 140.228 564.203 Q137.982 563.832 135.575 563.092 L135.575 558.393 Q137.658 559.527 139.881 560.082 Q142.103 560.638 144.58 560.638 Q148.584 560.638 150.922 558.531 Q153.26 556.425 153.26 552.814 Q153.26 549.203 150.922 547.096 Q148.584 544.99 144.58 544.99 Q142.705 544.99 140.83 545.407 Q138.978 545.823 137.033 546.703 L137.033 529.342 Z" fill="#000000" fill-rule="nonzero" fill-opacity="1" /><path clip-path="url(#clip900)" d="M91.5706 298.844 L99.2095 298.844 L99.2095 272.478 L90.8993 274.145 L90.8993 269.886 L99.1632 268.219 L103.839 268.219 L103.839 298.844 L111.478 298.844 L111.478 302.779 L91.5706 302.779 L91.5706 298.844 Z" fill="#000000" fill-rule="nonzero" fill-opacity="1" /><path clip-path="url(#clip900)" d="M120.922 296.899 L125.807 296.899 L125.807 302.779 L120.922 302.779 L120.922 296.899 Z" fill="#000000" fill-rule="nonzero" fill-opacity="1" /><path clip-path="url(#clip900)" d="M145.992 271.298 Q142.381 271.298 140.552 274.862 Q138.746 278.404 138.746 285.534 Q138.746 292.64 140.552 296.205 Q142.381 299.747 145.992 299.747 Q149.626 299.747 151.431 296.205 Q153.26 292.64 153.26 285.534 Q153.26 278.404 151.431 274.862 Q149.626 271.298 145.992 271.298 M145.992 267.594 Q151.802 267.594 154.857 272.2 Q157.936 276.784 157.936 285.534 Q157.936 294.261 154.857 298.867 Q151.802 303.45 145.992 303.45 Q140.181 303.45 137.103 298.867 Q134.047 294.261 134.047 285.534 Q134.047 276.784 137.103 272.2 Q140.181 267.594 145.992 267.594 Z" fill="#000000" fill-rule="nonzero" fill-opacity="1" /><polyline clip-path="url(#clip901)" style="stroke:#009af9; stroke-linecap:round; stroke-linejoin:round; stroke-width:4; stroke-opacity:1; fill:none" points="255.035,807.745 258.276,802.522 261.517,797.3 264.759,792.08 268,786.86 271.242,781.643 274.483,776.429 277.724,771.217 280.966,766.01 284.207,760.806 287.449,755.607 290.69,750.413 293.931,745.225 297.173,740.044 300.414,734.869 303.655,729.701 306.897,724.541 310.138,719.39 313.38,714.247 316.621,709.114 319.862,703.99 323.104,698.877 326.345,693.775 329.587,688.684 332.828,683.605 336.069,678.539 339.311,673.485 342.552,668.445 345.793,663.419 349.035,658.407 352.276,653.411 355.518,648.429 358.759,643.464 362,638.515 365.242,633.582 368.483,628.668 371.725,623.771 374.966,618.893 378.207,614.033 381.449,609.193 384.69,604.373 387.931,599.573 391.173,594.794 394.414,590.036 397.656,585.3 400.897,580.586 404.138,575.895 407.38,571.227 410.621,566.582 413.863,561.962 417.104,557.367 420.345,552.796 423.587,548.251 426.828,543.732 430.069,539.239 433.311,534.774 436.552,530.335 439.794,525.924 443.035,521.542 446.276,517.188 449.518,512.863 452.759,508.567 456.001,504.302 459.242,500.066 462.483,495.862 465.725,491.689 468.966,487.547 472.208,483.437 475.449,479.36 478.69,475.316 481.932,471.305 485.173,467.327 488.414,463.384 491.656,459.475 494.897,455.601 498.139,451.762 501.38,447.958 504.621,444.191 507.863,440.46 511.104,436.766 514.346,433.109 517.587,429.489 520.828,425.907 524.07,422.363 527.311,418.858 530.552,415.392 533.794,411.965 537.035,408.577 540.277,405.23 543.518,401.922 546.759,398.656 550.001,395.43 553.242,392.245 556.484,389.102 559.725,386.001 562.966,382.942 566.208,379.925 569.449,376.952 572.69,374.021 575.932,371.134 579.173,368.29 582.415,365.49 585.656,362.735 588.897,360.024 592.139,357.358 595.38,354.737 598.622,352.161 601.863,349.631 605.104,347.146 608.346,344.708 611.587,342.315 614.828,339.97 618.07,337.671 621.311,335.419 624.553,333.215 627.794,331.058 631.035,328.948 634.277,326.887 637.518,324.873 640.76,322.908 644.001,320.991 647.242,319.123 650.484,317.304 653.725,315.534 656.966,313.813 660.208,312.142 663.449,310.52 666.691,308.947 669.932,307.425 673.173,305.953 676.415,304.531 679.656,303.159 682.898,301.837 686.139,300.567 689.38,299.347 692.622,298.177 695.863,297.059 699.104,295.992 702.346,294.976 705.587,294.011 708.829,293.098 712.07,292.236 715.311,291.426 718.553,290.667 721.794,289.96 725.036,289.305 728.277,288.701 731.518,288.15 734.76,287.65 738.001,287.203 741.242,286.807 744.484,286.464 747.725,286.173 750.967,285.934 754.208,285.747 757.449,285.612 760.691,285.529 763.932,285.499 767.174,285.521 770.415,285.595 773.656,285.722 776.898,285.9 780.139,286.131 783.381,286.414 786.622,286.749 789.863,287.136 793.105,287.575 796.346,288.067 799.587,288.61 802.829,289.205 806.07,289.852 809.312,290.551 812.553,291.301 815.794,292.103 819.036,292.957 822.277,293.862 825.519,294.819 828.76,295.827 832.001,296.886 835.243,297.996 838.484,299.157 841.725,300.369 844.967,301.632 848.208,302.945 851.45,304.309 854.691,305.723 857.932,307.187 861.174,308.702 864.415,310.266 867.657,311.88 870.898,313.544 874.139,315.257 877.381,317.019 880.622,318.83 883.863,320.691 887.105,322.599 890.346,324.557 893.588,326.563 896.829,328.617 900.07,330.719 903.312,332.868 906.553,335.065 909.795,337.309 913.036,339.601 916.277,341.939 919.519,344.324 922.76,346.755 926.001,349.232 929.243,351.755 932.484,354.323 935.726,356.937 938.967,359.596 942.208,362.3 945.45,365.049 948.691,367.841 951.933,370.678 955.174,373.558 958.415,376.482 961.657,379.449 964.898,382.459 968.139,385.511 971.381,388.605 974.622,391.742 977.864,394.92 981.105,398.139 984.346,401.399 987.588,404.7 990.829,408.041 994.071,411.423 997.312,414.843 1000.55,418.303 1003.79,421.802 1007.04,425.34 1010.28,428.916 1013.52,432.53 1016.76,436.181 1020,439.869 1023.24,443.594 1026.48,447.356 1029.73,451.154 1032.97,454.987 1036.21,458.856 1039.45,462.759 1042.69,466.697 1045.93,470.669 1049.17,474.675 1052.42,478.714 1055.66,482.786 1058.9,486.89 1062.14,491.027 1065.38,495.195 1068.62,499.395 1071.86,503.625 1075.11,507.886 1078.35,512.176 1081.59,516.497 1084.83,520.846 1088.07,525.224 1091.31,529.631 1094.55,534.065 1097.79,538.526 1101.04,543.015 1104.28,547.53 1107.52,552.071 1110.76,556.637 1114,561.229 1117.24,565.845 1120.48,570.485 1123.73,575.15 1126.97,579.837 1130.21,584.547 1133.45,589.28 1136.69,594.034 1139.93,598.81 1143.17,603.607 1146.42,608.424 1149.66,613.261 1152.9,618.117 1156.14,622.993 1159.38,627.887 1162.62,632.799 1165.86,637.728 1169.11,642.674 1172.35,647.637 1175.59,652.616 1178.83,657.611 1182.07,662.62 1185.31,667.644 1188.55,672.682 1191.8,677.733 1195.04,682.798 1198.28,687.875 1201.52,692.964 1204.76,698.064 1208,703.175 1211.24,708.297 1214.48,713.429 1217.73,718.57 1220.97,723.72 1224.21,728.879 1227.45,734.045 1230.69,739.219 1233.93,744.4 1237.17,749.587 1240.42,754.78 1243.66,759.978 1246.9,765.18 1250.14,770.388 1253.38,775.598 1256.62,780.813 1259.86,786.029 1263.11,791.248 1266.35,796.469 1269.59,801.691 1272.83,806.913 1276.07,812.135 1279.31,817.357 1282.55,822.578 1285.8,827.798 1289.04,833.015 1292.28,838.23 1295.52,843.442 1298.76,848.651 1302,853.855 1305.24,859.055 1308.48,864.249 1311.73,869.438 1314.97,874.621 1318.21,879.797 1321.45,884.966 1324.69,890.127 1327.93,895.28 1331.17,900.424 1334.42,905.558 1337.66,910.684 1340.9,915.798 1344.14,920.902 1347.38,925.995 1350.62,931.076 1353.86,936.144 1357.11,941.2 1360.35,946.242 1363.59,951.271 1366.83,956.285 1370.07,961.284 1373.31,966.268 1376.55,971.236 1379.8,976.188 1383.04,981.122 1386.28,986.04 1389.52,990.94 1392.76,995.821 1396,1000.68 1399.24,1005.53 1402.49,1010.35 1405.73,1015.15 1408.97,1019.94 1412.21,1024.7 1415.45,1029.44 1418.69,1034.15 1421.93,1038.85 1425.17,1043.52 1428.42,1048.17 1431.66,1052.79 1434.9,1057.39 1438.14,1061.97 1441.38,1066.52 1444.62,1071.04 1447.86,1075.54 1451.11,1080.01 1454.35,1084.45 1457.59,1088.86 1460.83,1093.25 1464.07,1097.61 1467.31,1101.94 1470.55,1106.24 1473.8,1110.51 1477.04,1114.75 1480.28,1118.96 1483.52,1123.14 1486.76,1127.28 1490,1131.4 1493.24,1135.48 1496.49,1139.53 1499.73,1143.55 1502.97,1147.53 1506.21,1151.48 1509.45,1155.39 1512.69,1159.27 1515.93,1163.12 1519.18,1166.93 1522.42,1170.7 1525.66,1174.44 1528.9,1178.14 1532.14,1181.8 1535.38,1185.43 1538.62,1189.01 1541.86,1192.56 1545.11,1196.08 1548.35,1199.55 1551.59,1202.98 1554.83,1206.38 1558.07,1209.73 1561.31,1213.04 1564.55,1216.32 1567.8,1219.55 1571.04,1222.74 1574.28,1225.89 1577.52,1229 1580.76,1232.06 1584,1235.09 1587.24,1238.07 1590.49,1241 1593.73,1243.9 1596.97,1246.75 1600.21,1249.56 1603.45,1252.32 1606.69,1255.04 1609.93,1257.71 1613.18,1260.34 1616.42,1262.92 1619.66,1265.46 1622.9,1267.95 1626.14,1270.4 1629.38,1272.8 1632.62,1275.15 1635.86,1277.46 1639.11,1279.71 1642.35,1281.93 1645.59,1284.09 1648.83,1286.21 1652.07,1288.28 1655.31,1290.3 1658.55,1292.27 1661.8,1294.2 1665.04,1296.07 1668.28,1297.9 1671.52,1299.68 1674.76,1301.41 1678,1303.08 1681.24,1304.71 1684.49,1306.29 1687.73,1307.83 1690.97,1309.31 1694.21,1310.74 1697.45,1312.12 1700.69,1313.44 1703.93,1314.72 1707.18,1315.95 1710.42,1317.13 1713.66,1318.26 1716.9,1319.33 1720.14,1320.35 1723.38,1321.33 1726.62,1322.25 1729.87,1323.12 1733.11,1323.94 1736.35,1324.71 1739.59,1325.42 1742.83,1326.08 1746.07,1326.7 1749.31,1327.26 1752.55,1327.76 1755.8,1328.22 1759.04,1328.62 1762.28,1328.97 1765.52,1329.27 1768.76,1329.52 1772,1329.72 1775.24,1329.86 1778.49,1329.95 1781.73,1329.99 1784.97,1329.98 1788.21,1329.91 1791.45,1329.79 1794.69,1329.62 1797.93,1329.4 1801.18,1329.12 1804.42,1328.8 1807.66,1328.42 1810.9,1327.99 1814.14,1327.5 1817.38,1326.97 1820.62,1326.38 1823.87,1325.74 1827.11,1325.05 1830.35,1324.31 1833.59,1323.52 1836.83,1322.67 1840.07,1321.77 1843.31,1320.83 1846.55,1319.83 1849.8,1318.78 1853.04,1317.67 1856.28,1316.52 1859.52,1315.32 1862.76,1314.06 1866,1312.76 1869.24,1311.4 1872.49,1310 1875.73,1308.54 1878.97,1307.03 1882.21,1305.48 1885.45,1303.87 1888.69,1302.21 1891.93,1300.51 1895.18,1298.75 1898.42,1296.95 1901.66,1295.1 1904.9,1293.2 1908.14,1291.25 1911.38,1289.25 1914.62,1287.2 1917.87,1285.11 1921.11,1282.97 1924.35,1280.78 1927.59,1278.54 1930.83,1276.26 1934.07,1273.93 1937.31,1271.55 1940.56,1269.12 1943.8,1266.66 1947.04,1264.14 1950.28,1261.58 1953.52,1258.97 1956.76,1256.32 1960,1253.62 1963.24,1250.88 1966.49,1248.1 1969.73,1245.27 1972.97,1242.39 1976.21,1239.48 1979.45,1236.52 1982.69,1233.51 1985.93,1230.47 1989.18,1227.38 1992.42,1224.25 1995.66,1221.08 1998.9,1217.87 2002.14,1214.61 2005.38,1211.32 2008.62,1207.98 2011.87,1204.61 2015.11,1201.19 2018.35,1197.74 2021.59,1194.25 2024.83,1190.72 2028.07,1187.15 2031.31,1183.54 2034.56,1179.89 2037.8,1176.21 2041.04,1172.49 2044.28,1168.73 2047.52,1164.94 2050.76,1161.12 2054,1157.25 2057.24,1153.35 2060.49,1149.42 2063.73,1145.46 2066.97,1141.45 2070.21,1137.42 2073.45,1133.35 2076.69,1129.25 2079.93,1125.12 2083.18,1120.96 2086.42,1116.77 2089.66,1112.54 2092.9,1108.28 2096.14,1104 2099.38,1099.68 2102.62,1095.34 2105.87,1090.96 2109.11,1086.56 2112.35,1082.13 2115.59,1077.68 2118.83,1073.19 2122.07,1068.68 2125.31,1064.14 2128.56,1059.58 2131.8,1054.99 2135.04,1050.38 2138.28,1045.74 2141.52,1041.08 2144.76,1036.4 2148,1031.69 2151.25,1026.96 2154.49,1022.21 2157.73,1017.44 2160.97,1012.65 2164.21,1007.83 2167.45,1003 2170.69,998.147 2173.93,993.274 2177.18,988.383 2180.42,983.474 2183.66,978.548 2186.9,973.604 2190.14,968.644 2193.38,963.667 2196.62,958.675 2199.87,953.668 2203.11,948.647 2206.35,943.611 2209.59,938.561 2212.83,933.499 2216.07,928.424 2219.31,923.337 2222.56,918.238 2225.8,913.129 2229.04,908.008 2232.28,902.878 2235.52,897.738 2238.76,892.59 2242,887.432 2245.25,882.267 2248.49,877.095 2251.73,871.915 2254.97,866.729 2258.21,861.537 2261.45,856.34 2264.69,851.138 2267.94,845.931 2271.18,840.721 2274.42,835.507 2277.66,830.291 2280.9,825.072 2284.14,819.852 2287.38,814.63 2290.62,809.408 "/>
<circle clip-path="url(#clip901)" cx="1379.8" cy="893.29" r="14.4" fill="#e26f46" fill-rule="evenodd" fill-opacity="1" stroke="#000000" stroke-opacity="1" stroke-width="3.2"/>
<circle clip-path="url(#clip901)" cx="452.759" cy="556.944" r="14.4" fill="#e26f46" fill-rule="evenodd" fill-opacity="1" stroke="#000000" stroke-opacity="1" stroke-width="3.2"/>
<circle clip-path="url(#clip901)" cx="1772" cy="1389.34" r="14.4" fill="#e26f46" fill-rule="evenodd" fill-opacity="1" stroke="#000000" stroke-opacity="1" stroke-width="3.2"/>
<circle clip-path="url(#clip901)" cx="1781.73" cy="1295.76" r="14.4" fill="#e26f46" fill-rule="evenodd" fill-opacity="1" stroke="#000000" stroke-opacity="1" stroke-width="3.2"/>
<circle clip-path="url(#clip901)" cx="1314.97" cy="836.414" r="14.4" fill="#e26f46" fill-rule="evenodd" fill-opacity="1" stroke="#000000" stroke-opacity="1" stroke-width="3.2"/>
<circle clip-path="url(#clip901)" cx="1687.73" cy="1256.37" r="14.4" fill="#e26f46" fill-rule="evenodd" fill-opacity="1" stroke="#000000" stroke-opacity="1" stroke-width="3.2"/>
<circle clip-path="url(#clip901)" cx="452.759" cy="450.728" r="14.4" fill="#e26f46" fill-rule="evenodd" fill-opacity="1" stroke="#000000" stroke-opacity="1" stroke-width="3.2"/>
<circle clip-path="url(#clip901)" cx="1246.9" cy="783.068" r="14.4" fill="#e26f46" fill-rule="evenodd" fill-opacity="1" stroke="#000000" stroke-opacity="1" stroke-width="3.2"/>
<circle clip-path="url(#clip901)" cx="404.138" cy="521.009" r="14.4" fill="#e26f46" fill-rule="evenodd" fill-opacity="1" stroke="#000000" stroke-opacity="1" stroke-width="3.2"/>
<circle clip-path="url(#clip901)" cx="1331.17" cy="794.757" r="14.4" fill="#e26f46" fill-rule="evenodd" fill-opacity="1" stroke="#000000" stroke-opacity="1" stroke-width="3.2"/>
<circle clip-path="url(#clip901)" cx="2258.21" cy="888.128" r="14.4" fill="#e26f46" fill-rule="evenodd" fill-opacity="1" stroke="#000000" stroke-opacity="1" stroke-width="3.2"/>
<circle clip-path="url(#clip901)" cx="981.105" cy="287.975" r="14.4" fill="#e26f46" fill-rule="evenodd" fill-opacity="1" stroke="#000000" stroke-opacity="1" stroke-width="3.2"/>
<circle clip-path="url(#clip901)" cx="1042.69" cy="539.563" r="14.4" fill="#e26f46" fill-rule="evenodd" fill-opacity="1" stroke="#000000" stroke-opacity="1" stroke-width="3.2"/>
<circle clip-path="url(#clip901)" cx="491.656" cy="572.724" r="14.4" fill="#e26f46" fill-rule="evenodd" fill-opacity="1" stroke="#000000" stroke-opacity="1" stroke-width="3.2"/>
<circle clip-path="url(#clip901)" cx="462.483" cy="585.579" r="14.4" fill="#e26f46" fill-rule="evenodd" fill-opacity="1" stroke="#000000" stroke-opacity="1" stroke-width="3.2"/>
<circle clip-path="url(#clip901)" cx="624.553" cy="298.111" r="14.4" fill="#e26f46" fill-rule="evenodd" fill-opacity="1" stroke="#000000" stroke-opacity="1" stroke-width="3.2"/>
<circle clip-path="url(#clip901)" cx="556.484" cy="477.325" r="14.4" fill="#e26f46" fill-rule="evenodd" fill-opacity="1" stroke="#000000" stroke-opacity="1" stroke-width="3.2"/>
<circle clip-path="url(#clip901)" cx="1191.8" cy="777.668" r="14.4" fill="#e26f46" fill-rule="evenodd" fill-opacity="1" stroke="#000000" stroke-opacity="1" stroke-width="3.2"/>
<circle clip-path="url(#clip901)" cx="1716.9" cy="1338.48" r="14.4" fill="#e26f46" fill-rule="evenodd" fill-opacity="1" stroke="#000000" stroke-opacity="1" stroke-width="3.2"/>
<circle clip-path="url(#clip901)" cx="1888.69" cy="1236.97" r="14.4" fill="#e26f46" fill-rule="evenodd" fill-opacity="1" stroke="#000000" stroke-opacity="1" stroke-width="3.2"/>
<path clip-path="url(#clip901)" d="M255.035 1007.74 L258.276 1002.82 L261.517 997.849 L264.759 992.815 L268 987.723 L271.242 982.573 L274.483 977.365 L277.724 972.099 L280.966 966.776 L284.207 961.396 L287.449 955.96 L290.69 950.469 L293.931 944.922 L297.173 939.322 L300.414 933.668 L303.655 927.963 L306.897 922.206 L310.138 916.4 L313.38 910.546 L316.621 904.646 L319.862 898.7 L323.104 892.712 L326.345 886.683 L329.587 880.615 L332.828 874.512 L336.069 868.375 L339.311 862.207 L342.552 856.012 L345.793 849.794 L349.035 843.555 L352.276 837.301 L355.518 831.035 L358.759 824.762 L362 818.488 L365.242 812.219 L368.483 805.959 L371.725 799.716 L374.966 793.496 L378.207 787.308 L381.449 781.159 L384.69 775.059 L387.931 769.015 L391.173 763.039 L394.414 757.141 L397.656 751.332 L400.897 745.625 L404.138 740.03 L407.38 734.561 L410.621 729.22 L413.863 724.011 L417.104 718.937 L420.345 714.002 L423.587 709.212 L426.828 704.572 L430.069 700.089 L433.311 695.769 L436.552 691.622 L439.794 687.654 L443.035 683.877 L446.276 680.298 L449.518 676.928 L452.759 673.777 L456.001 670.85 L459.242 668.142 L462.483 665.642 L465.725 663.341 L468.966 661.225 L472.208 659.278 L475.449 657.486 L478.69 655.836 L481.932 654.313 L485.173 652.906 L488.414 651.601 L491.656 650.388 L494.897 649.256 L498.139 648.192 L501.38 647.184 L504.621 646.222 L507.863 645.296 L511.104 644.398 L514.346 643.52 L517.587 642.657 L520.828 641.806 L524.07 640.962 L527.311 640.125 L530.552 639.294 L533.794 638.47 L537.035 637.654 L540.277 636.85 L543.518 636.061 L546.759 635.291 L550.001 634.546 L553.242 633.833 L556.484 633.158 L559.725 632.526 L562.966 631.94 L566.208 631.398 L569.449 630.902 L572.69 630.453 L575.932 630.053 L579.173 629.703 L582.415 629.407 L585.656 629.168 L588.897 628.989 L592.139 628.876 L595.38 628.832 L598.622 628.864 L601.863 628.977 L605.104 629.176 L608.346 629.47 L611.587 629.864 L614.828 630.365 L618.07 630.981 L621.311 631.719 L624.553 632.588 L627.794 633.591 L631.035 634.722 L634.277 635.972 L637.518 637.331 L640.76 638.79 L644.001 640.34 L647.242 641.971 L650.484 643.677 L653.725 645.447 L656.966 647.275 L660.208 649.153 L663.449 651.073 L666.691 653.028 L669.932 655.012 L673.173 657.017 L676.415 659.039 L679.656 661.071 L682.898 663.107 L686.139 665.142 L689.38 667.171 L692.622 669.189 L695.863 671.192 L699.104 673.176 L702.346 675.136 L705.587 677.068 L708.829 678.969 L712.07 680.835 L715.311 682.663 L718.553 684.451 L721.794 686.194 L725.036 687.891 L728.277 689.539 L731.518 691.135 L734.76 692.678 L738.001 694.165 L741.242 695.594 L744.484 696.964 L747.725 698.272 L750.967 699.518 L754.208 700.7 L757.449 701.817 L760.691 702.867 L763.932 703.85 L767.174 704.764 L770.415 705.609 L773.656 706.384 L776.898 707.088 L780.139 707.721 L783.381 708.283 L786.622 708.773 L789.863 709.191 L793.105 709.536 L796.346 709.81 L799.587 710.012 L802.829 710.142 L806.07 710.2 L809.312 710.187 L812.553 710.103 L815.794 709.95 L819.036 709.726 L822.277 709.435 L825.519 709.075 L828.76 708.649 L832.001 708.157 L835.243 707.601 L838.484 706.982 L841.725 706.301 L844.967 705.56 L848.208 704.76 L851.45 703.905 L854.691 702.994 L857.932 702.031 L861.174 701.018 L864.415 699.957 L867.657 698.851 L870.898 697.702 L874.139 696.513 L877.381 695.288 L880.622 694.029 L883.863 692.74 L887.105 691.425 L890.346 690.087 L893.588 688.731 L896.829 687.361 L900.07 685.98 L903.312 684.595 L906.553 683.21 L909.795 681.831 L913.036 680.463 L916.277 679.111 L919.519 677.783 L922.76 676.484 L926.001 675.223 L929.243 674.005 L932.484 672.838 L935.726 671.731 L938.967 670.692 L942.208 669.729 L945.45 668.852 L948.691 668.07 L951.933 667.393 L955.174 666.832 L958.415 666.397 L961.657 666.1 L964.898 665.951 L968.139 665.962 L971.381 666.147 L974.622 666.516 L977.864 667.083 L981.105 667.86 L984.346 668.857 L987.588 670.07 L990.829 671.491 L994.071 673.115 L997.312 674.935 L1000.55 676.943 L1003.79 679.133 L1007.04 681.5 L1010.28 684.037 L1013.52 686.739 L1016.76 689.6 L1020 692.614 L1023.24 695.778 L1026.48 699.085 L1029.73 702.533 L1032.97 706.116 L1036.21 709.831 L1039.45 713.674 L1042.69 717.641 L1045.93 721.727 L1049.17 725.921 L1052.42 730.21 L1055.66 734.582 L1058.9 739.025 L1062.14 743.526 L1065.38 748.075 L1068.62 752.659 L1071.86 757.27 L1075.11 761.896 L1078.35 766.528 L1081.59 771.157 L1084.83 775.774 L1088.07 780.371 L1091.31 784.941 L1094.55 789.475 L1097.79 793.969 L1101.04 798.415 L1104.28 802.808 L1107.52 807.144 L1110.76 811.417 L1114 815.623 L1117.24 819.759 L1120.48 823.822 L1123.73 827.808 L1126.97 831.717 L1130.21 835.545 L1133.45 839.291 L1136.69 842.956 L1139.93 846.537 L1143.17 850.036 L1146.42 853.453 L1149.66 856.788 L1152.9 860.043 L1156.14 863.219 L1159.38 866.32 L1162.62 869.346 L1165.86 872.302 L1169.11 875.191 L1172.35 878.016 L1175.59 880.782 L1178.83 883.492 L1182.07 886.153 L1185.31 888.769 L1188.55 891.346 L1191.8 893.889 L1195.04 896.402 L1198.28 898.888 L1201.52 901.345 L1204.76 903.775 L1208 906.177 L1211.24 908.553 L1214.48 910.903 L1217.73 913.23 L1220.97 915.535 L1224.21 917.821 L1227.45 920.09 L1230.69 922.347 L1233.93 924.594 L1237.17 926.837 L1240.42 929.08 L1243.66 931.329 L1246.9 933.589 L1250.14 935.866 L1253.38 938.158 L1256.62 940.466 L1259.86 942.789 L1263.11 945.126 L1266.35 947.48 L1269.59 949.852 L1272.83 952.243 L1276.07 954.657 L1279.31 957.098 L1282.55 959.57 L1285.8 962.08 L1289.04 964.634 L1292.28 967.239 L1295.52 969.903 L1298.76 972.635 L1302 975.446 L1305.24 978.345 L1308.48 981.344 L1311.73 984.454 L1314.97 987.688 L1318.21 991.055 L1321.45 994.563 L1324.69 998.215 L1327.93 1002.02 L1331.17 1005.97 L1334.42 1010.09 L1337.66 1014.35 L1340.9 1018.77 L1344.14 1023.33 L1347.38 1028.02 L1350.62 1032.84 L1353.86 1037.79 L1357.11 1042.87 L1360.35 1048.06 L1363.59 1053.37 L1366.83 1058.79 L1370.07 1064.31 L1373.31 1069.95 L1376.55 1075.69 L1379.8 1081.54 L1383.04 1087.49 L1386.28 1093.53 L1389.52 1099.65 L1392.76 1105.84 L1396 1112.09 L1399.24 1118.39 L1402.49 1124.73 L1405.73 1131.11 L1408.97 1137.51 L1412.21 1143.93 L1415.45 1150.36 L1418.69 1156.78 L1421.93 1163.21 L1425.17 1169.62 L1428.42 1176.01 L1431.66 1182.38 L1434.9 1188.73 L1438.14 1195.04 L1441.38 1201.31 L1444.62 1207.54 L1447.86 1213.72 L1451.11 1219.85 L1454.35 1225.92 L1457.59 1231.94 L1460.83 1237.9 L1464.07 1243.79 L1467.31 1249.62 L1470.55 1255.38 L1473.8 1261.06 L1477.04 1266.67 L1480.28 1272.2 L1483.52 1277.66 L1486.76 1283.03 L1490 1288.32 L1493.24 1293.53 L1496.49 1298.64 L1499.73 1303.67 L1502.97 1308.62 L1506.21 1313.47 L1509.45 1318.22 L1512.69 1322.89 L1515.93 1327.46 L1519.18 1331.93 L1522.42 1336.31 L1525.66 1340.59 L1528.9 1344.77 L1532.14 1348.85 L1535.38 1352.83 L1538.62 1356.71 L1541.86 1360.48 L1545.11 1364.16 L1548.35 1367.73 L1551.59 1371.2 L1554.83 1374.56 L1558.07 1377.82 L1561.31 1380.98 L1564.55 1384.03 L1567.8 1386.97 L1571.04 1389.81 L1574.28 1392.55 L1577.52 1395.17 L1580.76 1397.7 L1584 1400.11 L1587.24 1402.43 L1590.49 1404.64 L1593.73 1406.74 L1596.97 1408.74 L1600.21 1410.64 L1603.45 1412.43 L1606.69 1414.13 L1609.93 1415.72 L1613.18 1417.22 L1616.42 1418.62 L1619.66 1419.92 L1622.9 1421.13 L1626.14 1422.25 L1629.38 1423.28 L1632.62 1424.22 L1635.86 1425.08 L1639.11 1425.86 L1642.35 1426.56 L1645.59 1427.19 L1648.83 1427.74 L1652.07 1428.24 L1655.31 1428.67 L1658.55 1429.04 L1661.8 1429.37 L1665.04 1429.65 L1668.28 1429.89 L1671.52 1430.1 L1674.76 1430.29 L1678 1430.47 L1681.24 1430.63 L1684.49 1430.8 L1687.73 1430.97 L1690.97 1431.16 L1694.21 1431.37 L1697.45 1431.6 L1700.69 1431.84 L1703.93 1432.1 L1707.18 1432.37 L1710.42 1432.67 L1713.66 1432.98 L1716.9 1433.32 L1720.14 1433.67 L1723.38 1434.05 L1726.62 1434.43 L1729.87 1434.83 L1733.11 1435.23 L1736.35 1435.64 L1739.59 1436.05 L1742.83 1436.47 L1746.07 1436.88 L1749.31 1437.29 L1752.55 1437.7 L1755.8 1438.11 L1759.04 1438.52 L1762.28 1438.93 L1765.52 1439.34 L1768.76 1439.76 L1772 1440.19 L1775.24 1440.63 L1778.49 1441.07 L1781.73 1441.53 L1784.97 1441.99 L1788.21 1442.45 L1791.45 1442.91 L1794.69 1443.35 L1797.93 1443.77 L1801.18 1444.16 L1804.42 1444.51 L1807.66 1444.83 L1810.9 1445.11 L1814.14 1445.33 L1817.38 1445.51 L1820.62 1445.63 L1823.87 1445.7 L1827.11 1445.72 L1830.35 1445.67 L1833.59 1445.58 L1836.83 1445.42 L1840.07 1445.22 L1843.31 1444.96 L1846.55 1444.66 L1849.8 1444.32 L1853.04 1443.93 L1856.28 1443.51 L1859.52 1443.05 L1862.76 1442.57 L1866 1442.07 L1869.24 1441.55 L1872.49 1441.03 L1875.73 1440.5 L1878.97 1439.97 L1882.21 1439.46 L1885.45 1438.96 L1888.69 1438.48 L1891.93 1438.03 L1895.18 1437.6 L1898.42 1437.19 L1901.66 1436.8 L1904.9 1436.42 L1908.14 1436.04 L1911.38 1435.67 L1914.62 1435.29 L1917.87 1434.91 L1921.11 1434.51 L1924.35 1434.11 L1927.59 1433.68 L1930.83 1433.24 L1934.07 1432.77 L1937.31 1432.27 L1940.56 1431.74 L1943.8 1431.18 L1947.04 1430.58 L1950.28 1429.94 L1953.52 1429.26 L1956.76 1428.54 L1960 1427.77 L1963.24 1426.96 L1966.49 1426.1 L1969.73 1425.19 L1972.97 1424.23 L1976.21 1423.21 L1979.45 1422.14 L1982.69 1421.01 L1985.93 1419.83 L1989.18 1418.59 L1992.42 1417.3 L1995.66 1415.94 L1998.9 1414.53 L2002.14 1413.05 L2005.38 1411.52 L2008.62 1409.92 L2011.87 1408.26 L2015.11 1406.54 L2018.35 1404.76 L2021.59 1402.92 L2024.83 1401.01 L2028.07 1399.04 L2031.31 1397.01 L2034.56 1394.92 L2037.8 1392.76 L2041.04 1390.55 L2044.28 1388.27 L2047.52 1385.93 L2050.76 1383.52 L2054 1381.06 L2057.24 1378.54 L2060.49 1375.95 L2063.73 1373.31 L2066.97 1370.6 L2070.21 1367.84 L2073.45 1365.02 L2076.69 1362.14 L2079.93 1359.21 L2083.18 1356.22 L2086.42 1353.17 L2089.66 1350.07 L2092.9 1346.92 L2096.14 1343.72 L2099.38 1340.46 L2102.62 1337.15 L2105.87 1333.8 L2109.11 1330.4 L2112.35 1326.95 L2115.59 1323.46 L2118.83 1319.92 L2122.07 1316.35 L2125.31 1312.73 L2128.56 1309.08 L2131.8 1305.39 L2135.04 1301.67 L2138.28 1297.92 L2141.52 1294.14 L2144.76 1290.34 L2148 1286.51 L2151.25 1282.66 L2154.49 1278.8 L2157.73 1274.92 L2160.97 1271.03 L2164.21 1267.14 L2167.45 1263.25 L2170.69 1259.35 L2173.93 1255.47 L2177.18 1251.59 L2180.42 1247.73 L2183.66 1243.89 L2186.9 1240.08 L2190.14 1236.3 L2193.38 1232.56 L2196.62 1228.86 L2199.87 1225.21 L2203.11 1221.63 L2206.35 1218.1 L2209.59 1214.65 L2212.83 1211.28 L2216.07 1208 L2219.31 1204.81 L2222.56 1201.73 L2225.8 1198.76 L2229.04 1195.92 L2232.28 1193.2 L2235.52 1190.63 L2238.76 1188.21 L2242 1185.94 L2245.25 1183.85 L2248.49 1181.93 L2251.73 1180.2 L2254.97 1178.66 L2258.21 1177.33 L2261.45 1176.2 L2264.69 1175.29 L2267.94 1174.56 L2271.18 1174.03 L2274.42 1173.68 L2277.66 1173.5 L2280.9 1173.49 L2284.14 1173.63 L2287.38 1173.92 L2290.62 1174.35 L2290.62 602.225 L2287.38 605.49 L2284.14 608.665 L2280.9 611.742 L2277.66 614.714 L2274.42 617.574 L2271.18 620.315 L2267.94 622.928 L2264.69 625.408 L2261.45 627.747 L2258.21 629.939 L2254.97 631.979 L2251.73 633.873 L2248.49 635.629 L2245.25 637.256 L2242 638.761 L2238.76 640.153 L2235.52 641.441 L2232.28 642.634 L2229.04 643.741 L2225.8 644.769 L2222.56 645.729 L2219.31 646.627 L2216.07 647.473 L2212.83 648.274 L2209.59 649.039 L2206.35 649.774 L2203.11 650.487 L2199.87 651.186 L2196.62 651.877 L2193.38 652.566 L2190.14 653.259 L2186.9 653.964 L2183.66 654.684 L2180.42 655.426 L2177.18 656.194 L2173.93 656.994 L2170.69 657.83 L2167.45 658.706 L2164.21 659.627 L2160.97 660.595 L2157.73 661.615 L2154.49 662.69 L2151.25 663.824 L2148 665.019 L2144.76 666.277 L2141.52 667.603 L2138.28 668.997 L2135.04 670.463 L2131.8 672.002 L2128.56 673.616 L2125.31 675.307 L2122.07 677.078 L2118.83 678.928 L2115.59 680.861 L2112.35 682.876 L2109.11 684.976 L2105.87 687.161 L2102.62 689.433 L2099.38 691.791 L2096.14 694.238 L2092.9 696.773 L2089.66 699.398 L2086.42 702.112 L2083.18 704.916 L2079.93 707.811 L2076.69 710.797 L2073.45 713.873 L2070.21 717.041 L2066.97 720.3 L2063.73 723.649 L2060.49 727.09 L2057.24 730.621 L2054 734.243 L2050.76 737.955 L2047.52 741.756 L2044.28 745.647 L2041.04 749.626 L2037.8 753.693 L2034.56 757.847 L2031.31 762.088 L2028.07 766.414 L2024.83 770.825 L2021.59 775.319 L2018.35 779.895 L2015.11 784.552 L2011.87 789.289 L2008.62 794.104 L2005.38 798.996 L2002.14 803.963 L1998.9 809.002 L1995.66 814.113 L1992.42 819.294 L1989.18 824.541 L1985.93 829.854 L1982.69 835.228 L1979.45 840.663 L1976.21 846.154 L1972.97 851.7 L1969.73 857.297 L1966.49 862.942 L1963.24 868.632 L1960 874.362 L1956.76 880.13 L1953.52 885.931 L1950.28 891.761 L1947.04 897.615 L1943.8 903.49 L1940.56 909.379 L1937.31 915.278 L1934.07 921.182 L1930.83 927.085 L1927.59 932.981 L1924.35 938.864 L1921.11 944.728 L1917.87 950.565 L1914.62 956.369 L1911.38 962.134 L1908.14 967.85 L1904.9 973.512 L1901.66 979.11 L1898.42 984.638 L1895.18 990.086 L1891.93 995.446 L1888.69 1000.71 L1885.45 1005.87 L1882.21 1010.94 L1878.97 1015.9 L1875.73 1020.78 L1872.49 1025.56 L1869.24 1030.26 L1866 1034.87 L1862.76 1039.41 L1859.52 1043.87 L1856.28 1048.25 L1853.04 1052.56 L1849.8 1056.79 L1846.55 1060.95 L1843.31 1065.04 L1840.07 1069.06 L1836.83 1073 L1833.59 1076.87 L1830.35 1080.65 L1827.11 1084.35 L1823.87 1087.97 L1820.62 1091.49 L1817.38 1094.9 L1814.14 1098.22 L1810.9 1101.42 L1807.66 1104.49 L1804.42 1107.43 L1801.18 1110.23 L1797.93 1112.87 L1794.69 1115.34 L1791.45 1117.63 L1788.21 1119.73 L1784.97 1121.62 L1781.73 1123.28 L1778.49 1124.7 L1775.24 1125.87 L1772 1126.79 L1768.76 1127.46 L1765.52 1127.86 L1762.28 1128.01 L1759.04 1127.92 L1755.8 1127.59 L1752.55 1127.03 L1749.31 1126.23 L1746.07 1125.2 L1742.83 1123.95 L1739.59 1122.47 L1736.35 1120.76 L1733.11 1118.83 L1729.87 1116.68 L1726.62 1114.29 L1723.38 1111.68 L1720.14 1108.84 L1716.9 1105.76 L1713.66 1102.44 L1710.42 1098.89 L1707.18 1095.12 L1703.93 1091.13 L1700.69 1086.94 L1697.45 1082.55 L1694.21 1077.96 L1690.97 1073.18 L1687.73 1068.22 L1684.49 1063.09 L1681.24 1057.79 L1678 1052.35 L1674.76 1046.77 L1671.52 1041.07 L1668.28 1035.26 L1665.04 1029.36 L1661.8 1023.38 L1658.55 1017.33 L1655.31 1011.22 L1652.07 1005.06 L1648.83 998.858 L1645.59 992.627 L1642.35 986.374 L1639.11 980.109 L1635.86 973.838 L1632.62 967.57 L1629.38 961.311 L1626.14 955.067 L1622.9 948.846 L1619.66 942.652 L1616.42 936.492 L1613.18 930.371 L1609.93 924.293 L1606.69 918.263 L1603.45 912.286 L1600.21 906.366 L1596.97 900.506 L1593.73 894.711 L1590.49 888.983 L1587.24 883.326 L1584 877.743 L1580.76 872.236 L1577.52 866.809 L1574.28 861.464 L1571.04 856.203 L1567.8 851.029 L1564.55 845.943 L1561.31 840.947 L1558.07 836.044 L1554.83 831.235 L1551.59 826.521 L1548.35 821.904 L1545.11 817.385 L1541.86 812.965 L1538.62 808.646 L1535.38 804.428 L1532.14 800.312 L1528.9 796.3 L1525.66 792.39 L1522.42 788.585 L1519.18 784.885 L1515.93 781.289 L1512.69 777.799 L1509.45 774.413 L1506.21 771.134 L1502.97 767.959 L1499.73 764.889 L1496.49 761.924 L1493.24 759.064 L1490 756.307 L1486.76 753.653 L1483.52 751.101 L1480.28 748.651 L1477.04 746.3 L1473.8 744.049 L1470.55 741.896 L1467.31 739.838 L1464.07 737.875 L1460.83 736.005 L1457.59 734.225 L1454.35 732.533 L1451.11 730.926 L1447.86 729.403 L1444.62 727.96 L1441.38 726.593 L1438.14 725.3 L1434.9 724.077 L1431.66 722.919 L1428.42 721.823 L1425.17 720.784 L1421.93 719.796 L1418.69 718.854 L1415.45 717.954 L1412.21 717.088 L1408.97 716.25 L1405.73 715.433 L1402.49 714.63 L1399.24 713.834 L1396 713.035 L1392.76 712.226 L1389.52 711.398 L1386.28 710.54 L1383.04 709.645 L1379.8 708.701 L1376.55 707.699 L1373.31 706.639 L1370.07 705.517 L1366.83 704.334 L1363.59 703.087 L1360.35 701.775 L1357.11 700.395 L1353.86 698.945 L1350.62 697.421 L1347.38 695.819 L1344.14 694.136 L1340.9 692.367 L1337.66 690.508 L1334.42 688.554 L1331.17 686.499 L1327.93 684.34 L1324.69 682.076 L1321.45 679.707 L1318.21 677.233 L1314.97 674.655 L1311.73 671.975 L1308.48 669.198 L1305.24 666.334 L1302 663.39 L1298.76 660.374 L1295.52 657.291 L1292.28 654.148 L1289.04 650.95 L1285.8 647.701 L1282.55 644.405 L1279.31 641.065 L1276.07 637.682 L1272.83 634.257 L1269.59 630.79 L1266.35 627.282 L1263.11 623.729 L1259.86 620.129 L1256.62 616.481 L1253.38 612.779 L1250.14 609.02 L1246.9 605.199 L1243.66 601.311 L1240.42 597.36 L1237.17 593.348 L1233.93 589.278 L1230.69 585.152 L1227.45 580.971 L1224.21 576.738 L1220.97 572.452 L1217.73 568.115 L1214.48 563.724 L1211.24 559.281 L1208 554.783 L1204.76 550.228 L1201.52 545.616 L1198.28 540.942 L1195.04 536.205 L1191.8 531.401 L1188.55 526.53 L1185.31 521.598 L1182.07 516.615 L1178.83 511.59 L1175.59 506.531 L1172.35 501.447 L1169.11 496.346 L1165.86 491.235 L1162.62 486.122 L1159.38 481.013 L1156.14 475.915 L1152.9 470.833 L1149.66 465.774 L1146.42 460.742 L1143.17 455.742 L1139.93 450.778 L1136.69 445.854 L1133.45 440.973 L1130.21 436.138 L1126.97 431.352 L1123.73 426.617 L1120.48 421.934 L1117.24 417.304 L1114 412.728 L1110.76 408.207 L1107.52 403.74 L1104.28 399.327 L1101.04 394.966 L1097.79 390.656 L1094.55 386.396 L1091.31 382.182 L1088.07 378.012 L1084.83 373.883 L1081.59 369.79 L1078.35 365.729 L1075.11 361.696 L1071.86 357.686 L1068.62 353.692 L1065.38 349.709 L1062.14 345.73 L1058.9 341.749 L1055.66 337.757 L1052.42 333.749 L1049.17 329.715 L1045.93 325.648 L1042.69 321.541 L1039.45 317.386 L1036.21 313.186 L1032.97 308.943 L1029.73 304.661 L1026.48 300.343 L1023.24 295.992 L1020 291.611 L1016.76 287.203 L1013.52 282.771 L1010.28 278.318 L1007.04 273.845 L1003.79 269.356 L1000.55 264.852 L997.312 260.335 L994.071 255.809 L990.829 251.274 L987.588 246.734 L984.346 242.19 L981.105 237.645 L977.864 233.101 L974.622 228.564 L971.381 224.039 L968.139 219.531 L964.898 215.046 L961.657 210.589 L958.415 206.166 L955.174 201.781 L951.933 197.44 L948.691 193.147 L945.45 188.906 L942.208 184.723 L938.967 180.6 L935.726 176.543 L932.484 172.553 L929.243 168.635 L926.001 164.792 L922.76 161.026 L919.519 157.34 L916.277 153.737 L913.036 150.218 L909.795 146.786 L906.553 143.443 L903.312 140.189 L900.07 137.028 L896.829 133.959 L893.588 130.985 L890.346 128.106 L887.105 125.323 L883.863 122.637 L880.622 120.049 L877.381 117.56 L874.139 115.17 L870.898 112.879 L867.657 110.688 L864.415 108.597 L861.174 106.607 L857.932 104.718 L854.691 102.93 L851.45 101.243 L848.208 99.6568 L844.967 98.172 L841.725 96.7884 L838.484 95.5061 L835.243 94.3249 L832.001 93.2448 L828.76 92.2656 L825.519 91.3874 L822.277 90.61 L819.036 89.9332 L815.794 89.3569 L812.553 88.8808 L809.312 88.505 L806.07 88.229 L802.829 88.0529 L799.587 87.9763 L796.346 87.999 L793.105 88.1209 L789.863 88.3417 L786.622 88.6611 L783.381 89.079 L780.139 89.5951 L776.898 90.209 L773.656 90.9206 L770.415 91.7296 L767.174 92.6356 L763.932 93.6384 L760.691 94.7376 L757.449 95.9329 L754.208 97.2238 L750.967 98.6101 L747.725 100.091 L744.484 101.667 L741.242 103.336 L738.001 105.099 L734.76 106.955 L731.518 108.903 L728.277 110.943 L725.036 113.073 L721.794 115.294 L718.553 117.604 L715.311 120.002 L712.07 122.488 L708.829 125.06 L705.587 127.717 L702.346 130.458 L699.104 133.282 L695.863 136.188 L692.622 139.173 L689.38 142.235 L686.139 145.374 L682.898 148.588 L679.656 151.873 L676.415 155.229 L673.173 158.652 L669.932 162.14 L666.691 165.69 L663.449 169.299 L660.208 172.965 L656.966 176.684 L653.725 180.453 L650.484 184.268 L647.242 188.125 L644.001 192.02 L640.76 195.95 L637.518 199.911 L634.277 203.897 L631.035 207.904 L627.794 211.93 L624.553 215.968 L621.311 220.015 L618.07 224.072 L614.828 228.137 L611.587 232.212 L608.346 236.296 L605.104 240.389 L601.863 244.493 L598.622 248.605 L595.38 252.726 L592.139 256.855 L588.897 260.991 L585.656 265.132 L582.415 269.277 L579.173 273.423 L575.932 277.568 L572.69 281.709 L569.449 285.842 L566.208 289.963 L562.966 294.068 L559.725 298.152 L556.484 302.209 L553.242 306.235 L550.001 310.232 L546.759 314.202 L543.518 318.148 L540.277 322.07 L537.035 325.969 L533.794 329.845 L530.552 333.697 L527.311 337.522 L524.07 341.317 L520.828 345.079 L517.587 348.801 L514.346 352.478 L511.104 356.101 L507.863 359.66 L504.621 363.146 L501.38 366.547 L498.139 369.849 L494.897 373.038 L491.656 376.098 L488.414 379.015 L485.173 381.779 L481.932 384.381 L478.69 386.813 L475.449 389.065 L472.208 391.125 L468.966 392.982 L465.725 394.624 L462.483 396.04 L459.242 397.22 L456.001 398.161 L452.759 398.86 L449.518 399.321 L446.276 399.552 L443.035 399.565 L439.794 399.371 L436.552 398.983 L433.311 398.41 L430.069 397.664 L426.828 396.756 L423.587 395.694 L420.345 394.487 L417.104 393.143 L413.863 391.67 L410.621 390.075 L407.38 388.363 L404.138 386.539 L400.897 384.61 L397.656 382.586 L394.414 380.477 L391.173 378.294 L387.931 376.047 L384.69 373.744 L381.449 371.393 L378.207 369.004 L374.966 366.582 L371.725 364.136 L368.483 361.67 L365.242 359.191 L362 356.704 L358.759 354.214 L355.518 351.725 L352.276 349.242 L349.035 346.768 L345.793 344.307 L342.552 341.861 L339.311 339.434 L336.069 337.027 L332.828 334.644 L329.587 332.286 L326.345 329.956 L323.104 327.654 L319.862 325.383 L316.621 323.143 L313.38 320.937 L310.138 318.764 L306.897 316.627 L303.655 314.525 L300.414 312.459 L297.173 310.431 L293.931 308.44 L290.69 306.487 L287.449 304.572 L284.207 302.695 L280.966 300.857 L277.724 299.058 L274.483 297.298 L271.242 295.576 L268 293.894 L264.759 292.25 L261.517 290.644 L258.276 289.077 L255.035 287.548  Z" fill="#3da44d" fill-rule="evenodd" fill-opacity="0.1"/>
<polyline clip-path="url(#clip901)" style="stroke:#3da44d; stroke-linecap:round; stroke-linejoin:round; stroke-width:8; stroke-opacity:1; fill:none" points="255.035,647.644 258.276,645.95 261.517,644.246 264.759,642.532 268,640.809 271.242,639.075 274.483,637.332 277.724,635.579 280.966,633.817 284.207,632.046 287.449,630.266 290.69,628.478 293.931,626.681 297.173,624.876 300.414,623.064 303.655,621.244 306.897,619.417 310.138,617.582 313.38,615.742 316.621,613.895 319.862,612.042 323.104,610.183 326.345,608.319 329.587,606.451 332.828,604.578 336.069,602.701 339.311,600.82 342.552,598.937 345.793,597.05 349.035,595.162 352.276,593.272 355.518,591.38 358.759,589.488 362,587.596 365.242,585.705 368.483,583.814 371.725,581.926 374.966,580.039 378.207,578.156 381.449,576.276 384.69,574.401 387.931,572.531 391.173,570.667 394.414,568.809 397.656,566.959 400.897,565.117 404.138,563.285 407.38,561.462 410.621,559.647 413.863,557.841 417.104,556.04 420.345,554.245 423.587,552.453 426.828,550.664 430.069,548.877 433.311,547.09 436.552,545.302 439.794,543.513 443.035,541.721 446.276,539.925 449.518,538.125 452.759,536.319 456.001,534.505 459.242,532.681 462.483,530.841 465.725,528.983 468.966,527.103 472.208,525.201 475.449,523.276 478.69,521.325 481.932,519.347 485.173,517.342 488.414,515.308 491.656,513.243 494.897,511.147 498.139,509.02 501.38,506.866 504.621,504.684 507.863,502.478 511.104,500.249 514.346,497.999 517.587,495.729 520.828,493.442 524.07,491.14 527.311,488.824 530.552,486.496 533.794,484.158 537.035,481.812 540.277,479.46 543.518,477.104 546.759,474.747 550.001,472.389 553.242,470.034 556.484,467.683 559.725,465.339 562.966,463.004 566.208,460.681 569.449,458.372 572.69,456.081 575.932,453.811 579.173,451.563 582.415,449.342 585.656,447.15 588.897,444.99 592.139,442.865 595.38,440.779 598.622,438.734 601.863,436.735 605.104,434.783 608.346,432.883 611.587,431.038 614.828,429.251 618.07,427.526 621.311,425.867 624.553,424.278 627.794,422.76 631.035,421.313 634.277,419.934 637.518,418.621 640.76,417.37 644.001,416.18 647.242,415.048 650.484,413.972 653.725,412.95 656.966,411.98 660.208,411.059 663.449,410.186 666.691,409.359 669.932,408.576 673.173,407.834 676.415,407.134 679.656,406.472 682.898,405.847 686.139,405.258 689.38,404.703 692.622,404.181 695.863,403.69 699.104,403.229 702.346,402.797 705.587,402.392 708.829,402.014 712.07,401.661 715.311,401.333 718.553,401.027 721.794,400.744 725.036,400.482 728.277,400.241 731.518,400.019 734.76,399.816 738.001,399.632 741.242,399.465 744.484,399.315 747.725,399.182 750.967,399.064 754.208,398.962 757.449,398.875 760.691,398.802 763.932,398.744 767.174,398.7 770.415,398.669 773.656,398.652 776.898,398.648 780.139,398.658 783.381,398.681 786.622,398.717 789.863,398.766 793.105,398.829 796.346,398.905 799.587,398.994 802.829,399.097 806.07,399.214 809.312,399.346 812.553,399.492 815.794,399.653 819.036,399.83 822.277,400.022 825.519,400.231 828.76,400.457 832.001,400.701 835.243,400.963 838.484,401.244 841.725,401.545 844.967,401.866 848.208,402.209 851.45,402.574 854.691,402.962 857.932,403.375 861.174,403.813 864.415,404.277 867.657,404.769 870.898,405.29 874.139,405.841 877.381,406.424 880.622,407.039 883.863,407.689 887.105,408.374 890.346,409.097 893.588,409.858 896.829,410.66 900.07,411.504 903.312,412.392 906.553,413.327 909.795,414.309 913.036,415.34 916.277,416.424 919.519,417.562 922.76,418.755 926.001,420.007 929.243,421.32 932.484,422.696 935.726,424.137 938.967,425.646 942.208,427.226 945.45,428.879 948.691,430.608 951.933,432.417 955.174,434.307 958.415,436.282 961.657,438.344 964.898,440.498 968.139,442.747 971.381,445.093 974.622,447.54 977.864,450.092 981.105,452.752 984.346,455.523 987.588,458.402 990.829,461.383 994.071,464.462 997.312,467.635 1000.55,470.897 1003.79,474.244 1007.04,477.673 1010.28,481.178 1013.52,484.755 1016.76,488.402 1020,492.113 1023.24,495.885 1026.48,499.714 1029.73,503.597 1032.97,507.529 1036.21,511.508 1039.45,515.53 1042.69,519.591 1045.93,523.688 1049.17,527.818 1052.42,531.979 1055.66,536.17 1058.9,540.387 1062.14,544.628 1065.38,548.892 1068.62,553.176 1071.86,557.478 1075.11,561.796 1078.35,566.129 1081.59,570.474 1084.83,574.828 1088.07,579.192 1091.31,583.561 1094.55,587.936 1097.79,592.313 1101.04,596.69 1104.28,601.068 1107.52,605.442 1110.76,609.812 1114,614.176 1117.24,618.531 1120.48,622.878 1123.73,627.213 1126.97,631.534 1130.21,635.842 1133.45,640.132 1136.69,644.405 1139.93,648.658 1143.17,652.889 1146.42,657.097 1149.66,661.281 1152.9,665.438 1156.14,669.567 1159.38,673.666 1162.62,677.734 1165.86,681.769 1169.11,685.768 1172.35,689.731 1175.59,693.656 1178.83,697.541 1182.07,701.384 1185.31,705.184 1188.55,708.938 1191.8,712.645 1195.04,716.304 1198.28,719.915 1201.52,723.48 1204.76,727.002 1208,730.48 1211.24,733.917 1214.48,737.314 1217.73,740.672 1220.97,743.994 1224.21,747.279 1227.45,750.531 1230.69,753.749 1233.93,756.936 1237.17,760.093 1240.42,763.22 1243.66,766.32 1246.9,769.394 1250.14,772.443 1253.38,775.469 1256.62,778.473 1259.86,781.459 1263.11,784.428 1266.35,787.381 1269.59,790.321 1272.83,793.25 1276.07,796.169 1279.31,799.081 1282.55,801.988 1285.8,804.891 1289.04,807.792 1292.28,810.693 1295.52,813.597 1298.76,816.504 1302,819.418 1305.24,822.34 1308.48,825.271 1311.73,828.214 1314.97,831.171 1318.21,834.144 1321.45,837.135 1324.69,840.146 1327.93,843.179 1331.17,846.236 1334.42,849.321 1337.66,852.431 1340.9,855.568 1344.14,858.731 1347.38,861.919 1350.62,865.131 1353.86,868.369 1357.11,871.631 1360.35,874.917 1363.59,878.227 1366.83,881.56 1370.07,884.916 1373.31,888.295 1376.55,891.697 1379.8,895.12 1383.04,898.566 1386.28,902.034 1389.52,905.522 1392.76,909.032 1396,912.562 1399.24,916.112 1402.49,919.682 1405.73,923.272 1408.97,926.881 1412.21,930.509 1415.45,934.155 1418.69,937.819 1421.93,941.502 1425.17,945.201 1428.42,948.918 1431.66,952.652 1434.9,956.402 1438.14,960.168 1441.38,963.95 1444.62,967.748 1447.86,971.56 1451.11,975.387 1454.35,979.229 1457.59,983.084 1460.83,986.953 1464.07,990.835 1467.31,994.73 1470.55,998.637 1473.8,1002.56 1477.04,1006.49 1480.28,1010.43 1483.52,1014.38 1486.76,1018.34 1490,1022.31 1493.24,1026.29 1496.49,1030.28 1499.73,1034.28 1502.97,1038.29 1506.21,1042.3 1509.45,1046.32 1512.69,1050.34 1515.93,1054.37 1519.18,1058.41 1522.42,1062.45 1525.66,1066.49 1528.9,1070.53 1532.14,1074.58 1535.38,1078.63 1538.62,1082.68 1541.86,1086.72 1545.11,1090.77 1548.35,1094.82 1551.59,1098.86 1554.83,1102.9 1558.07,1106.93 1561.31,1110.96 1564.55,1114.99 1567.8,1119 1571.04,1123.01 1574.28,1127 1577.52,1130.99 1580.76,1134.97 1584,1138.93 1587.24,1142.88 1590.49,1146.81 1593.73,1150.73 1596.97,1154.62 1600.21,1158.5 1603.45,1162.36 1606.69,1166.2 1609.93,1170.01 1613.18,1173.8 1616.42,1177.56 1619.66,1181.29 1622.9,1184.99 1626.14,1188.66 1629.38,1192.3 1632.62,1195.9 1635.86,1199.46 1639.11,1202.99 1642.35,1206.47 1645.59,1209.91 1648.83,1213.3 1652.07,1216.65 1655.31,1219.94 1658.55,1223.19 1661.8,1226.38 1665.04,1229.51 1668.28,1232.58 1671.52,1235.59 1674.76,1238.53 1678,1241.41 1681.24,1244.21 1684.49,1246.94 1687.73,1249.6 1690.97,1252.17 1694.21,1254.67 1697.45,1257.07 1700.69,1259.39 1703.93,1261.62 1707.18,1263.75 1710.42,1265.78 1713.66,1267.71 1716.9,1269.54 1720.14,1271.26 1723.38,1272.86 1726.62,1274.36 1729.87,1275.75 1733.11,1277.03 1736.35,1278.2 1739.59,1279.26 1742.83,1280.21 1746.07,1281.04 1749.31,1281.76 1752.55,1282.36 1755.8,1282.85 1759.04,1283.22 1762.28,1283.47 1765.52,1283.6 1768.76,1283.61 1772,1283.49 1775.24,1283.25 1778.49,1282.89 1781.73,1282.4 1784.97,1281.8 1788.21,1281.09 1791.45,1280.27 1794.69,1279.35 1797.93,1278.32 1801.18,1277.19 1804.42,1275.97 1807.66,1274.66 1810.9,1273.26 1814.14,1271.78 1817.38,1270.21 1820.62,1268.56 1823.87,1266.83 1827.11,1265.03 1830.35,1263.16 1833.59,1261.22 1836.83,1259.21 1840.07,1257.14 1843.31,1255 1846.55,1252.81 1849.8,1250.55 1853.04,1248.24 1856.28,1245.88 1859.52,1243.46 1862.76,1240.99 1866,1238.47 1869.24,1235.91 1872.49,1233.29 1875.73,1230.64 1878.97,1227.94 1882.21,1225.2 1885.45,1222.42 1888.69,1219.6 1891.93,1216.74 1895.18,1213.84 1898.42,1210.91 1901.66,1207.95 1904.9,1204.96 1908.14,1201.95 1911.38,1198.9 1914.62,1195.83 1917.87,1192.74 1921.11,1189.62 1924.35,1186.49 1927.59,1183.33 1930.83,1180.16 1934.07,1176.97 1937.31,1173.77 1940.56,1170.56 1943.8,1167.33 1947.04,1164.1 1950.28,1160.85 1953.52,1157.6 1956.76,1154.34 1960,1151.07 1963.24,1147.8 1966.49,1144.52 1969.73,1141.24 1972.97,1137.96 1976.21,1134.68 1979.45,1131.4 1982.69,1128.12 1985.93,1124.84 1989.18,1121.57 1992.42,1118.3 1995.66,1115.03 1998.9,1111.76 2002.14,1108.51 2005.38,1105.26 2008.62,1102.01 2011.87,1098.78 2015.11,1095.55 2018.35,1092.33 2021.59,1089.12 2024.83,1085.92 2028.07,1082.73 2031.31,1079.55 2034.56,1076.38 2037.8,1073.23 2041.04,1070.09 2044.28,1066.96 2047.52,1063.84 2050.76,1060.74 2054,1057.65 2057.24,1054.58 2060.49,1051.52 2063.73,1048.48 2066.97,1045.45 2070.21,1042.44 2073.45,1039.45 2076.69,1036.47 2079.93,1033.51 2083.18,1030.57 2086.42,1027.64 2089.66,1024.74 2092.9,1021.85 2096.14,1018.98 2099.38,1016.13 2102.62,1013.29 2105.87,1010.48 2109.11,1007.69 2112.35,1004.91 2115.59,1002.16 2118.83,999.426 2122.07,996.712 2125.31,994.02 2128.56,991.348 2131.8,988.697 2135.04,986.067 2138.28,983.459 2141.52,980.872 2144.76,978.307 2148,975.764 2151.25,973.243 2154.49,970.744 2157.73,968.268 2160.97,965.815 2164.21,963.384 2167.45,960.976 2170.69,958.591 2173.93,956.23 2177.18,953.892 2180.42,951.578 2183.66,949.288 2186.9,947.021 2190.14,944.779 2193.38,942.561 2196.62,940.368 2199.87,938.2 2203.11,936.056 2206.35,933.938 2209.59,931.845 2212.83,929.777 2216.07,927.736 2219.31,925.72 2222.56,923.73 2225.8,921.766 2229.04,919.83 2232.28,917.92 2235.52,916.037 2238.76,914.181 2242,912.353 2245.25,910.552 2248.49,908.78 2251.73,907.036 2254.97,905.32 2258.21,903.633 2261.45,901.976 2264.69,900.347 2267.94,898.746 2271.18,897.173 2274.42,895.627 2277.66,894.108 2280.9,892.615 2284.14,891.148 2287.38,889.706 2290.62,888.289 "/>
<polyline clip-path="url(#clip901)" style="stroke:#c271d2; stroke-linecap:round; stroke-linejoin:round; stroke-width:12; stroke-opacity:1; fill:none" points="255.035,890.525 362.225,742.995 469.416,617.293 576.607,572.48 683.797,579.693 790.988,608.238 898.179,597.018 1005.37,613.74 1112.56,748.162 1219.75,858.71 1326.94,949.216 1434.13,1111.8 1541.32,1270.73 1648.51,1357.8 1755.7,1387.56 1862.89,1376.91 1970.09,1332.57 2077.28,1255.61 2184.47,1147.17 2291.66,1081.2 "/>
<polyline clip-path="url(#clip901)" style="stroke:#ac8d18; stroke-linecap:round; stroke-linejoin:round; stroke-width:12; stroke-opacity:1; fill:none" points="255.035,404.763 362.225,431.935 469.416,436.388 576.607,334.202 683.797,231.667 790.988,189.335 898.179,224.995 1005.37,338.06 1112.56,476.308 1219.75,626.791 1326.94,735.28 1434.13,799.223 1541.32,901.364 1648.51,1068.14 1755.7,1178.12 1862.89,1104.87 1970.09,949.188 2077.28,816.266 2184.47,750.273 2291.66,694.483 "/>
<path clip-path="url(#clip900)" d="M1953.46 406.258 L2280.8 406.258 L2280.8 95.2176 L1953.46 95.2176  Z" fill="#ffffff" fill-rule="evenodd" fill-opacity="1"/>
<polyline clip-path="url(#clip900)" style="stroke:#000000; stroke-linecap:round; stroke-linejoin:round; stroke-width:4; stroke-opacity:1; fill:none" points="1953.46,406.258 2280.8,406.258 2280.8,95.2176 1953.46,95.2176 1953.46,406.258 "/>
<polyline clip-path="url(#clip900)" style="stroke:#009af9; stroke-linecap:round; stroke-linejoin:round; stroke-width:4; stroke-opacity:1; fill:none" points="1977.44,147.058 2121.36,147.058 "/>
<path clip-path="url(#clip900)" d="M2152.76 131.051 L2152.76 138.412 L2161.53 138.412 L2161.53 141.722 L2152.76 141.722 L2152.76 155.796 Q2152.76 158.967 2153.61 159.87 Q2154.49 160.773 2157.16 160.773 L2161.53 160.773 L2161.53 164.338 L2157.16 164.338 Q2152.23 164.338 2150.35 162.509 Q2148.48 160.657 2148.48 155.796 L2148.48 141.722 L2145.35 141.722 L2145.35 138.412 L2148.48 138.412 L2148.48 131.051 L2152.76 131.051 Z" fill="#000000" fill-rule="nonzero" fill-opacity="1" /><path clip-path="url(#clip900)" d="M2182.16 142.393 Q2181.44 141.977 2180.58 141.791 Q2179.75 141.583 2178.73 141.583 Q2175.12 141.583 2173.17 143.944 Q2171.25 146.282 2171.25 150.68 L2171.25 164.338 L2166.97 164.338 L2166.97 138.412 L2171.25 138.412 L2171.25 142.44 Q2172.6 140.078 2174.75 138.944 Q2176.9 137.787 2179.98 137.787 Q2180.42 137.787 2180.95 137.856 Q2181.48 137.903 2182.13 138.018 L2182.16 142.393 Z" fill="#000000" fill-rule="nonzero" fill-opacity="1" /><path clip-path="url(#clip900)" d="M2186.18 154.106 L2186.18 138.412 L2190.44 138.412 L2190.44 153.944 Q2190.44 157.625 2191.88 159.476 Q2193.31 161.305 2196.18 161.305 Q2199.63 161.305 2201.62 159.106 Q2203.64 156.907 2203.64 153.111 L2203.64 138.412 L2207.9 138.412 L2207.9 164.338 L2203.64 164.338 L2203.64 160.356 Q2202.09 162.717 2200.03 163.875 Q2197.99 165.009 2195.28 165.009 Q2190.81 165.009 2188.5 162.231 Q2186.18 159.453 2186.18 154.106 M2196.9 137.787 L2196.9 137.787 Z" fill="#000000" fill-rule="nonzero" fill-opacity="1" /><path clip-path="url(#clip900)" d="M2220.88 131.051 L2220.88 138.412 L2229.66 138.412 L2229.66 141.722 L2220.88 141.722 L2220.88 155.796 Q2220.88 158.967 2221.74 159.87 Q2222.62 160.773 2225.28 160.773 L2229.66 160.773 L2229.66 164.338 L2225.28 164.338 Q2220.35 164.338 2218.48 162.509 Q2216.6 160.657 2216.6 155.796 L2216.6 141.722 L2213.48 141.722 L2213.48 138.412 L2216.6 138.412 L2216.6 131.051 L2220.88 131.051 Z" fill="#000000" fill-rule="nonzero" fill-opacity="1" /><path clip-path="url(#clip900)" d="M2256.81 148.689 L2256.81 164.338 L2252.55 164.338 L2252.55 148.828 Q2252.55 145.148 2251.11 143.319 Q2249.68 141.49 2246.81 141.49 Q2243.36 141.49 2241.37 143.69 Q2239.38 145.889 2239.38 149.685 L2239.38 164.338 L2235.1 164.338 L2235.1 128.319 L2239.38 128.319 L2239.38 142.44 Q2240.91 140.102 2242.97 138.944 Q2245.05 137.787 2247.76 137.787 Q2252.23 137.787 2254.52 140.565 Q2256.81 143.319 2256.81 148.689 Z" fill="#000000" fill-rule="nonzero" fill-opacity="1" /><circle clip-path="url(#clip900)" cx="2049.4" cy="198.898" r="20.48" fill="#e26f46" fill-rule="evenodd" fill-opacity="1" stroke="#000000" stroke-opacity="1" stroke-width="4.55111"/>
<path clip-path="url(#clip900)" d="M2164.26 194.187 L2164.26 180.159 L2168.52 180.159 L2168.52 216.178 L2164.26 216.178 L2164.26 212.289 Q2162.92 214.603 2160.86 215.738 Q2158.82 216.849 2155.95 216.849 Q2151.25 216.849 2148.29 213.099 Q2145.35 209.349 2145.35 203.238 Q2145.35 197.127 2148.29 193.377 Q2151.25 189.627 2155.95 189.627 Q2158.82 189.627 2160.86 190.761 Q2162.92 191.872 2164.26 194.187 M2149.75 203.238 Q2149.75 207.937 2151.67 210.622 Q2153.61 213.284 2156.99 213.284 Q2160.37 213.284 2162.32 210.622 Q2164.26 207.937 2164.26 203.238 Q2164.26 198.539 2162.32 195.877 Q2160.37 193.192 2156.99 193.192 Q2153.61 193.192 2151.67 195.877 Q2149.75 198.539 2149.75 203.238 Z" fill="#000000" fill-rule="nonzero" fill-opacity="1" /><path clip-path="url(#clip900)" d="M2189.08 203.145 Q2183.92 203.145 2181.92 204.326 Q2179.93 205.506 2179.93 208.354 Q2179.93 210.622 2181.42 211.965 Q2182.92 213.284 2185.49 213.284 Q2189.03 213.284 2191.16 210.784 Q2193.31 208.261 2193.31 204.094 L2193.31 203.145 L2189.08 203.145 M2197.57 201.386 L2197.57 216.178 L2193.31 216.178 L2193.31 212.242 Q2191.85 214.603 2189.68 215.738 Q2187.5 216.849 2184.36 216.849 Q2180.37 216.849 2178.01 214.627 Q2175.67 212.381 2175.67 208.631 Q2175.67 204.256 2178.59 202.034 Q2181.53 199.812 2187.34 199.812 L2193.31 199.812 L2193.31 199.395 Q2193.31 196.455 2191.37 194.858 Q2189.45 193.238 2185.95 193.238 Q2183.73 193.238 2181.62 193.77 Q2179.52 194.303 2177.57 195.367 L2177.57 191.432 Q2179.91 190.53 2182.11 190.09 Q2184.31 189.627 2186.39 189.627 Q2192.02 189.627 2194.79 192.543 Q2197.57 195.46 2197.57 201.386 Z" fill="#000000" fill-rule="nonzero" fill-opacity="1" /><path clip-path="url(#clip900)" d="M2210.56 182.891 L2210.56 190.252 L2219.33 190.252 L2219.33 193.562 L2210.56 193.562 L2210.56 207.636 Q2210.56 210.807 2211.42 211.71 Q2212.29 212.613 2214.96 212.613 L2219.33 212.613 L2219.33 216.178 L2214.96 216.178 Q2210.03 216.178 2208.15 214.349 Q2206.28 212.497 2206.28 207.636 L2206.28 193.562 L2203.15 193.562 L2203.15 190.252 L2206.28 190.252 L2206.28 182.891 L2210.56 182.891 Z" fill="#000000" fill-rule="nonzero" fill-opacity="1" /><path clip-path="url(#clip900)" d="M2236.72 203.145 Q2231.55 203.145 2229.56 204.326 Q2227.57 205.506 2227.57 208.354 Q2227.57 210.622 2229.05 211.965 Q2230.56 213.284 2233.13 213.284 Q2236.67 213.284 2238.8 210.784 Q2240.95 208.261 2240.95 204.094 L2240.95 203.145 L2236.72 203.145 M2245.21 201.386 L2245.21 216.178 L2240.95 216.178 L2240.95 212.242 Q2239.49 214.603 2237.32 215.738 Q2235.14 216.849 2231.99 216.849 Q2228.01 216.849 2225.65 214.627 Q2223.31 212.381 2223.31 208.631 Q2223.31 204.256 2226.23 202.034 Q2229.17 199.812 2234.98 199.812 L2240.95 199.812 L2240.95 199.395 Q2240.95 196.455 2239.01 194.858 Q2237.09 193.238 2233.59 193.238 Q2231.37 193.238 2229.26 193.77 Q2227.16 194.303 2225.21 195.367 L2225.21 191.432 Q2227.55 190.53 2229.75 190.09 Q2231.95 189.627 2234.03 189.627 Q2239.66 189.627 2242.43 192.543 Q2245.21 195.46 2245.21 201.386 Z" fill="#000000" fill-rule="nonzero" fill-opacity="1" /><polyline clip-path="url(#clip900)" style="stroke:#3da44d; stroke-linecap:round; stroke-linejoin:round; stroke-width:8; stroke-opacity:1; fill:none" points="1977.44,250.738 2121.36,250.738 "/>
<path clip-path="url(#clip900)" d="M2170.91 263.087 L2170.91 253.805 L2163.27 253.805 L2163.27 249.962 L2175.54 249.962 L2175.54 264.8 Q2172.83 266.721 2169.56 267.717 Q2166.3 268.689 2162.6 268.689 Q2154.49 268.689 2149.91 263.967 Q2145.35 259.221 2145.35 250.772 Q2145.35 242.3 2149.91 237.578 Q2154.49 232.833 2162.6 232.833 Q2165.98 232.833 2169.01 233.666 Q2172.06 234.499 2174.63 236.12 L2174.63 241.096 Q2172.04 238.897 2169.12 237.786 Q2166.21 236.675 2162.99 236.675 Q2156.65 236.675 2153.45 240.217 Q2150.28 243.758 2150.28 250.772 Q2150.28 257.763 2153.45 261.305 Q2156.65 264.846 2162.99 264.846 Q2165.47 264.846 2167.41 264.43 Q2169.36 263.99 2170.91 263.087 Z" fill="#000000" fill-rule="nonzero" fill-opacity="1" /><path clip-path="url(#clip900)" d="M2188.75 237.3 L2188.75 250.286 L2194.63 250.286 Q2197.9 250.286 2199.68 248.596 Q2201.46 246.907 2201.46 243.782 Q2201.46 240.68 2199.68 238.99 Q2197.9 237.3 2194.63 237.3 L2188.75 237.3 M2184.08 233.458 L2194.63 233.458 Q2200.44 233.458 2203.41 236.096 Q2206.39 238.712 2206.39 243.782 Q2206.39 248.897 2203.41 251.513 Q2200.44 254.129 2194.63 254.129 L2188.75 254.129 L2188.75 268.018 L2184.08 268.018 L2184.08 233.458 Z" fill="#000000" fill-rule="nonzero" fill-opacity="1" /><polyline clip-path="url(#clip900)" style="stroke:#c271d2; stroke-linecap:round; stroke-linejoin:round; stroke-width:12; stroke-opacity:1; fill:none" points="1977.44,302.578 2121.36,302.578 "/>
<path clip-path="url(#clip900)" d="M2150.03 289.14 L2150.03 302.126 L2155.91 302.126 Q2159.17 302.126 2160.95 300.436 Q2162.73 298.747 2162.73 295.622 Q2162.73 292.52 2160.95 290.83 Q2159.17 289.14 2155.91 289.14 L2150.03 289.14 M2145.35 285.298 L2155.91 285.298 Q2161.72 285.298 2164.68 287.936 Q2167.67 290.552 2167.67 295.622 Q2167.67 300.737 2164.68 303.353 Q2161.72 305.969 2155.91 305.969 L2150.03 305.969 L2150.03 319.858 L2145.35 319.858 L2145.35 285.298 Z" fill="#000000" fill-rule="nonzero" fill-opacity="1" /><path clip-path="url(#clip900)" d="M2178.38 315.922 L2194.7 315.922 L2194.7 319.858 L2172.76 319.858 L2172.76 315.922 Q2175.42 313.168 2180 308.538 Q2184.61 303.885 2185.79 302.543 Q2188.04 300.02 2188.92 298.284 Q2189.82 296.524 2189.82 294.835 Q2189.82 292.08 2187.87 290.344 Q2185.95 288.608 2182.85 288.608 Q2180.65 288.608 2178.2 289.372 Q2175.77 290.135 2172.99 291.686 L2172.99 286.964 Q2175.81 285.83 2178.27 285.251 Q2180.72 284.673 2182.76 284.673 Q2188.13 284.673 2191.32 287.358 Q2194.52 290.043 2194.52 294.534 Q2194.52 296.663 2193.71 298.585 Q2192.92 300.483 2190.81 303.075 Q2190.23 303.747 2187.13 306.964 Q2184.03 310.159 2178.38 315.922 Z" fill="#000000" fill-rule="nonzero" fill-opacity="1" /><path clip-path="url(#clip900)" d="M2204.56 285.298 L2222.92 285.298 L2222.92 289.233 L2208.85 289.233 L2208.85 297.705 Q2209.86 297.358 2210.88 297.196 Q2211.9 297.01 2212.92 297.01 Q2218.71 297.01 2222.09 300.182 Q2225.47 303.353 2225.47 308.77 Q2225.47 314.348 2221.99 317.45 Q2218.52 320.529 2212.2 320.529 Q2210.03 320.529 2207.76 320.158 Q2205.51 319.788 2203.1 319.047 L2203.1 314.348 Q2205.19 315.483 2207.41 316.038 Q2209.63 316.594 2212.11 316.594 Q2216.11 316.594 2218.45 314.487 Q2220.79 312.381 2220.79 308.77 Q2220.79 305.159 2218.45 303.052 Q2216.11 300.946 2212.11 300.946 Q2210.23 300.946 2208.36 301.362 Q2206.51 301.779 2204.56 302.659 L2204.56 285.298 Z" fill="#000000" fill-rule="nonzero" fill-opacity="1" /><polyline clip-path="url(#clip900)" style="stroke:#ac8d18; stroke-linecap:round; stroke-linejoin:round; stroke-width:12; stroke-opacity:1; fill:none" points="1977.44,354.418 2121.36,354.418 "/>
<path clip-path="url(#clip900)" d="M2150.03 340.98 L2150.03 353.966 L2155.91 353.966 Q2159.17 353.966 2160.95 352.276 Q2162.73 350.587 2162.73 347.462 Q2162.73 344.36 2160.95 342.67 Q2159.17 340.98 2155.91 340.98 L2150.03 340.98 M2145.35 337.138 L2155.91 337.138 Q2161.72 337.138 2164.68 339.776 Q2167.67 342.392 2167.67 347.462 Q2167.67 352.577 2164.68 355.193 Q2161.72 357.809 2155.91 357.809 L2150.03 357.809 L2150.03 371.698 L2145.35 371.698 L2145.35 337.138 Z" fill="#000000" fill-rule="nonzero" fill-opacity="1" /><path clip-path="url(#clip900)" d="M2173.17 337.138 L2195.4 337.138 L2195.4 339.128 L2182.85 371.698 L2177.97 371.698 L2189.77 341.073 L2173.17 341.073 L2173.17 337.138 Z" fill="#000000" fill-rule="nonzero" fill-opacity="1" /><path clip-path="url(#clip900)" d="M2204.56 337.138 L2222.92 337.138 L2222.92 341.073 L2208.85 341.073 L2208.85 349.545 Q2209.86 349.198 2210.88 349.036 Q2211.9 348.85 2212.92 348.85 Q2218.71 348.85 2222.09 352.022 Q2225.47 355.193 2225.47 360.61 Q2225.47 366.188 2221.99 369.29 Q2218.52 372.369 2212.2 372.369 Q2210.03 372.369 2207.76 371.998 Q2205.51 371.628 2203.1 370.887 L2203.1 366.188 Q2205.19 367.323 2207.41 367.878 Q2209.63 368.434 2212.11 368.434 Q2216.11 368.434 2218.45 366.327 Q2220.79 364.221 2220.79 360.61 Q2220.79 356.999 2218.45 354.892 Q2216.11 352.786 2212.11 352.786 Q2210.23 352.786 2208.36 353.202 Q2206.51 353.619 2204.56 354.499 L2204.56 337.138 Z" fill="#000000" fill-rule="nonzero" fill-opacity="1" /></svg>
