<?xml version="1.0" encoding="utf-8"?>
<svg xmlns="http://www.w3.org/2000/svg" xmlns:xlink="http://www.w3.org/1999/xlink" width="600" height="400" viewBox="0 0 2400 1600">
<defs>
  <clipPath id="clip580">
    <rect x="0" y="0" width="2400" height="1600"/>
  </clipPath>
</defs>
<path clip-path="url(#clip580)" d="M0 1600 L2400 1600 L2400 0 L0 0  Z" fill="#ffffff" fill-rule="evenodd" fill-opacity="1"/>
<defs>
  <clipPath id="clip581">
    <rect x="480" y="0" width="1681" height="1600"/>
  </clipPath>
</defs>
<path clip-path="url(#clip580)" d="M193.936 1486.45 L2352.76 1486.45 L2352.76 47.2441 L193.936 47.2441  Z" fill="#ffffff" fill-rule="evenodd" fill-opacity="1"/>
<defs>
  <clipPath id="clip582">
    <rect x="193" y="47" width="2160" height="1440"/>
  </clipPath>
</defs>
<polyline clip-path="url(#clip582)" style="stroke:#000000; stroke-linecap:round; stroke-linejoin:round; stroke-width:2; stroke-opacity:0.1; fill:none" points="255.035,1486.45 255.035,47.2441 "/>
<polyline clip-path="url(#clip582)" style="stroke:#000000; stroke-linecap:round; stroke-linejoin:round; stroke-width:2; stroke-opacity:0.1; fill:none" points="579.338,1486.45 579.338,47.2441 "/>
<polyline clip-path="url(#clip582)" style="stroke:#000000; stroke-linecap:round; stroke-linejoin:round; stroke-width:2; stroke-opacity:0.1; fill:none" points="903.641,1486.45 903.641,47.2441 "/>
<polyline clip-path="url(#clip582)" style="stroke:#000000; stroke-linecap:round; stroke-linejoin:round; stroke-width:2; stroke-opacity:0.1; fill:none" points="1227.94,1486.45 1227.94,47.2441 "/>
<polyline clip-path="url(#clip582)" style="stroke:#000000; stroke-linecap:round; stroke-linejoin:round; stroke-width:2; stroke-opacity:0.1; fill:none" points="1552.25,1486.45 1552.25,47.2441 "/>
<polyline clip-path="url(#clip582)" style="stroke:#000000; stroke-linecap:round; stroke-linejoin:round; stroke-width:2; stroke-opacity:0.1; fill:none" points="1876.55,1486.45 1876.55,47.2441 "/>
<polyline clip-path="url(#clip582)" style="stroke:#000000; stroke-linecap:round; stroke-linejoin:round; stroke-width:2; stroke-opacity:0.1; fill:none" points="2200.85,1486.45 2200.85,47.2441 "/>
<polyline clip-path="url(#clip582)" style="stroke:#000000; stroke-linecap:round; stroke-linejoin:round; stroke-width:2; stroke-opacity:0.1; fill:none" points="193.936,1420.44 2352.76,1420.44 "/>
<polyline clip-path="url(#clip582)" style="stroke:#000000; stroke-linecap:round; stroke-linejoin:round; stroke-width:2; stroke-opacity:0.1; fill:none" points="193.936,1105.19 2352.76,1105.19 "/>
<polyline clip-path="url(#clip582)" style="stroke:#000000; stroke-linecap:round; stroke-linejoin:round; stroke-width:2; stroke-opacity:0.1; fill:none" points="193.936,789.946 2352.76,789.946 "/>
<polyline clip-path="url(#clip582)" style="stroke:#000000; stroke-linecap:round; stroke-linejoin:round; stroke-width:2; stroke-opacity:0.1; fill:none" points="193.936,474.697 2352.76,474.697 "/>
<polyline clip-path="url(#clip582)" style="stroke:#000000; stroke-linecap:round; stroke-linejoin:round; stroke-width:2; stroke-opacity:0.1; fill:none" points="193.936,159.449 2352.76,159.449 "/>
<polyline clip-path="url(#clip580)" style="stroke:#000000; stroke-linecap:round; stroke-linejoin:round; stroke-width:4; stroke-opacity:1; fill:none" points="193.936,1486.45 2352.76,1486.45 "/>
<polyline clip-path="url(#clip580)" style="stroke:#000000; stroke-linecap:round; stroke-linejoin:round; stroke-width:4; stroke-opacity:1; fill:none" points="255.035,1486.45 255.035,1467.55 "/>
<polyline clip-path="url(#clip580)" style="stroke:#000000; stroke-linecap:round; stroke-linejoin:round; stroke-width:4; stroke-opacity:1; fill:none" points="579.338,1486.45 579.338,1467.55 "/>
<polyline clip-path="url(#clip580)" style="stroke:#000000; stroke-linecap:round; stroke-linejoin:round; stroke-width:4; stroke-opacity:1; fill:none" points="903.641,1486.45 903.641,1467.55 "/>
<polyline clip-path="url(#clip580)" style="stroke:#000000; stroke-linecap:round; stroke-linejoin:round; stroke-width:4; stroke-opacity:1; fill:none" points="1227.94,1486.45 1227.94,1467.55 "/>
<polyline clip-path="url(#clip580)" style="stroke:#000000; stroke-linecap:round; stroke-linejoin:round; stroke-width:4; stroke-opacity:1; fill:none" points="1552.25,1486.45 1552.25,1467.55 "/>
<polyline clip-path="url(#clip580)" style="stroke:#000000; stroke-linecap:round; stroke-linejoin:round; stroke-width:4; stroke-opacity:1; fill:none" points="1876.55,1486.45 1876.55,1467.55 "/>
<polyline clip-path="url(#clip580)" style="stroke:#000000; stroke-linecap:round; stroke-linejoin:round; stroke-width:4; stroke-opacity:1; fill:none" points="2200.85,1486.45 2200.85,1467.55 "/>
<path clip-path="url(#clip580)" d="M255.035 1517.37 Q251.424 1517.37 249.595 1520.93 Q247.789 1524.47 247.789 1531.6 Q247.789 1538.71 249.595 1542.27 Q251.424 1545.82 255.035 1545.82 Q258.669 1545.82 260.474 1542.27 Q262.303 1538.71 262.303 1531.6 Q262.303 1524.47 260.474 1520.93 Q258.669 1517.37 255.035 1517.37 M255.035 1513.66 Q260.845 1513.66 263.9 1518.27 Q266.979 1522.85 266.979 1531.6 Q266.979 1540.33 263.9 1544.94 Q260.845 1549.52 255.035 1549.52 Q249.225 1549.52 246.146 1544.94 Q243.09 1540.33 243.09 1531.6 Q243.09 1522.85 246.146 1518.27 Q249.225 1513.66 255.035 1513.66 Z" fill="#000000" fill-rule="nonzero" fill-opacity="1" /><path clip-path="url(#clip580)" d="M569.72 1544.91 L577.358 1544.91 L577.358 1518.55 L569.048 1520.21 L569.048 1515.95 L577.312 1514.29 L581.988 1514.29 L581.988 1544.91 L589.627 1544.91 L589.627 1548.85 L569.72 1548.85 L569.72 1544.91 Z" fill="#000000" fill-rule="nonzero" fill-opacity="1" /><path clip-path="url(#clip580)" d="M898.293 1544.91 L914.613 1544.91 L914.613 1548.85 L892.668 1548.85 L892.668 1544.91 Q895.33 1542.16 899.914 1537.53 Q904.52 1532.88 905.701 1531.53 Q907.946 1529.01 908.826 1527.27 Q909.729 1525.51 909.729 1523.82 Q909.729 1521.07 907.784 1519.33 Q905.863 1517.6 902.761 1517.6 Q900.562 1517.6 898.108 1518.36 Q895.678 1519.13 892.9 1520.68 L892.9 1515.95 Q895.724 1514.82 898.178 1514.24 Q900.631 1513.66 902.668 1513.66 Q908.039 1513.66 911.233 1516.35 Q914.428 1519.03 914.428 1523.52 Q914.428 1525.65 913.617 1527.57 Q912.83 1529.47 910.724 1532.07 Q910.145 1532.74 907.043 1535.95 Q903.942 1539.15 898.293 1544.91 Z" fill="#000000" fill-rule="nonzero" fill-opacity="1" /><path clip-path="url(#clip580)" d="M1232.19 1530.21 Q1235.55 1530.93 1237.42 1533.2 Q1239.32 1535.47 1239.32 1538.8 Q1239.32 1543.92 1235.8 1546.72 Q1232.28 1549.52 1225.8 1549.52 Q1223.63 1549.52 1221.31 1549.08 Q1219.02 1548.66 1216.57 1547.81 L1216.57 1543.29 Q1218.51 1544.43 1220.83 1545.01 Q1223.14 1545.58 1225.66 1545.58 Q1230.06 1545.58 1232.35 1543.85 Q1234.67 1542.11 1234.67 1538.8 Q1234.67 1535.75 1232.52 1534.03 Q1230.39 1532.3 1226.57 1532.3 L1222.54 1532.3 L1222.54 1528.45 L1226.75 1528.45 Q1230.2 1528.45 1232.03 1527.09 Q1233.86 1525.7 1233.86 1523.11 Q1233.86 1520.45 1231.96 1519.03 Q1230.08 1517.6 1226.57 1517.6 Q1224.64 1517.6 1222.45 1518.01 Q1220.25 1518.43 1217.61 1519.31 L1217.61 1515.14 Q1220.27 1514.4 1222.58 1514.03 Q1224.92 1513.66 1226.98 1513.66 Q1232.31 1513.66 1235.41 1516.09 Q1238.51 1518.5 1238.51 1522.62 Q1238.51 1525.49 1236.87 1527.48 Q1235.22 1529.45 1232.19 1530.21 Z" fill="#000000" fill-rule="nonzero" fill-opacity="1" /><path clip-path="url(#clip580)" d="M1555.26 1518.36 L1543.45 1536.81 L1555.26 1536.81 L1555.26 1518.36 M1554.03 1514.29 L1559.91 1514.29 L1559.91 1536.81 L1564.84 1536.81 L1564.84 1540.7 L1559.91 1540.7 L1559.91 1548.85 L1555.26 1548.85 L1555.26 1540.7 L1539.65 1540.7 L1539.65 1536.19 L1554.03 1514.29 Z" fill="#000000" fill-rule="nonzero" fill-opacity="1" /><path clip-path="url(#clip580)" d="M1866.83 1514.29 L1885.18 1514.29 L1885.18 1518.22 L1871.11 1518.22 L1871.11 1526.7 Q1872.13 1526.35 1873.15 1526.19 Q1874.17 1526 1875.18 1526 Q1880.97 1526 1884.35 1529.17 Q1887.73 1532.34 1887.73 1537.76 Q1887.73 1543.34 1884.26 1546.44 Q1880.79 1549.52 1874.47 1549.52 Q1872.29 1549.52 1870.02 1549.15 Q1867.78 1548.78 1865.37 1548.04 L1865.37 1543.34 Q1867.45 1544.47 1869.67 1545.03 Q1871.9 1545.58 1874.37 1545.58 Q1878.38 1545.58 1880.72 1543.48 Q1883.05 1541.37 1883.05 1537.76 Q1883.05 1534.15 1880.72 1532.04 Q1878.38 1529.94 1874.37 1529.94 Q1872.5 1529.94 1870.62 1530.35 Q1868.77 1530.77 1866.83 1531.65 L1866.83 1514.29 Z" fill="#000000" fill-rule="nonzero" fill-opacity="1" /><path clip-path="url(#clip580)" d="M2201.26 1529.7 Q2198.11 1529.7 2196.26 1531.86 Q2194.43 1534.01 2194.43 1537.76 Q2194.43 1541.49 2196.26 1543.66 Q2198.11 1545.82 2201.26 1545.82 Q2204.41 1545.82 2206.23 1543.66 Q2208.09 1541.49 2208.09 1537.76 Q2208.09 1534.01 2206.23 1531.86 Q2204.41 1529.7 2201.26 1529.7 M2210.54 1515.05 L2210.54 1519.31 Q2208.78 1518.48 2206.98 1518.04 Q2205.19 1517.6 2203.43 1517.6 Q2198.8 1517.6 2196.35 1520.72 Q2193.92 1523.85 2193.57 1530.17 Q2194.94 1528.15 2197 1527.09 Q2199.06 1526 2201.54 1526 Q2206.74 1526 2209.75 1529.17 Q2212.79 1532.32 2212.79 1537.76 Q2212.79 1543.08 2209.64 1546.3 Q2206.49 1549.52 2201.26 1549.52 Q2195.26 1549.52 2192.09 1544.94 Q2188.92 1540.33 2188.92 1531.6 Q2188.92 1523.41 2192.81 1518.55 Q2196.7 1513.66 2203.25 1513.66 Q2205.01 1513.66 2206.79 1514.01 Q2208.6 1514.36 2210.54 1515.05 Z" fill="#000000" fill-rule="nonzero" fill-opacity="1" /><polyline clip-path="url(#clip580)" style="stroke:#000000; stroke-linecap:round; stroke-linejoin:round; stroke-width:4; stroke-opacity:1; fill:none" points="193.936,1486.45 193.936,47.2441 "/>
<polyline clip-path="url(#clip580)" style="stroke:#000000; stroke-linecap:round; stroke-linejoin:round; stroke-width:4; stroke-opacity:1; fill:none" points="193.936,1420.44 212.834,1420.44 "/>
<polyline clip-path="url(#clip580)" style="stroke:#000000; stroke-linecap:round; stroke-linejoin:round; stroke-width:4; stroke-opacity:1; fill:none" points="193.936,1105.19 212.834,1105.19 "/>
<polyline clip-path="url(#clip580)" style="stroke:#000000; stroke-linecap:round; stroke-linejoin:round; stroke-width:4; stroke-opacity:1; fill:none" points="193.936,789.946 212.834,789.946 "/>
<polyline clip-path="url(#clip580)" style="stroke:#000000; stroke-linecap:round; stroke-linejoin:round; stroke-width:4; stroke-opacity:1; fill:none" points="193.936,474.697 212.834,474.697 "/>
<polyline clip-path="url(#clip580)" style="stroke:#000000; stroke-linecap:round; stroke-linejoin:round; stroke-width:4; stroke-opacity:1; fill:none" points="193.936,159.449 212.834,159.449 "/>
<path clip-path="url(#clip580)" d="M50.9921 1420.89 L80.6679 1420.89 L80.6679 1424.83 L50.9921 1424.83 L50.9921 1420.89 Z" fill="#000000" fill-rule="nonzero" fill-opacity="1" /><path clip-path="url(#clip580)" d="M91.5706 1433.79 L99.2095 1433.79 L99.2095 1407.42 L90.8993 1409.09 L90.8993 1404.83 L99.1632 1403.16 L103.839 1403.16 L103.839 1433.79 L111.478 1433.79 L111.478 1437.72 L91.5706 1437.72 L91.5706 1433.79 Z" fill="#000000" fill-rule="nonzero" fill-opacity="1" /><path clip-path="url(#clip580)" d="M120.922 1431.84 L125.807 1431.84 L125.807 1437.72 L120.922 1437.72 L120.922 1431.84 Z" fill="#000000" fill-rule="nonzero" fill-opacity="1" /><path clip-path="url(#clip580)" d="M145.992 1406.24 Q142.381 1406.24 140.552 1409.81 Q138.746 1413.35 138.746 1420.48 Q138.746 1427.58 140.552 1431.15 Q142.381 1434.69 145.992 1434.69 Q149.626 1434.69 151.431 1431.15 Q153.26 1427.58 153.26 1420.48 Q153.26 1413.35 151.431 1409.81 Q149.626 1406.24 145.992 1406.24 M145.992 1402.54 Q151.802 1402.54 154.857 1407.14 Q157.936 1411.73 157.936 1420.48 Q157.936 1429.2 154.857 1433.81 Q151.802 1438.39 145.992 1438.39 Q140.181 1438.39 137.103 1433.81 Q134.047 1429.2 134.047 1420.48 Q134.047 1411.73 137.103 1407.14 Q140.181 1402.54 145.992 1402.54 Z" fill="#000000" fill-rule="nonzero" fill-opacity="1" /><path clip-path="url(#clip580)" d="M51.9875 1105.65 L81.6633 1105.65 L81.6633 1109.58 L51.9875 1109.58 L51.9875 1105.65 Z" fill="#000000" fill-rule="nonzero" fill-opacity="1" /><path clip-path="url(#clip580)" d="M101.756 1090.99 Q98.1447 1090.99 96.316 1094.56 Q94.5104 1098.1 94.5104 1105.23 Q94.5104 1112.34 96.316 1115.9 Q98.1447 1119.44 101.756 1119.44 Q105.39 1119.44 107.196 1115.9 Q109.024 1112.34 109.024 1105.23 Q109.024 1098.1 107.196 1094.56 Q105.39 1090.99 101.756 1090.99 M101.756 1087.29 Q107.566 1087.29 110.621 1091.9 Q113.7 1096.48 113.7 1105.23 Q113.7 1113.96 110.621 1118.56 Q107.566 1123.15 101.756 1123.15 Q95.9456 1123.15 92.8669 1118.56 Q89.8114 1113.96 89.8114 1105.23 Q89.8114 1096.48 92.8669 1091.9 Q95.9456 1087.29 101.756 1087.29 Z" fill="#000000" fill-rule="nonzero" fill-opacity="1" /><path clip-path="url(#clip580)" d="M121.918 1116.59 L126.802 1116.59 L126.802 1122.47 L121.918 1122.47 L121.918 1116.59 Z" fill="#000000" fill-rule="nonzero" fill-opacity="1" /><path clip-path="url(#clip580)" d="M137.033 1087.91 L155.39 1087.91 L155.39 1091.85 L141.316 1091.85 L141.316 1100.32 Q142.334 1099.97 143.353 1099.81 Q144.371 1099.63 145.39 1099.63 Q151.177 1099.63 154.556 1102.8 Q157.936 1105.97 157.936 1111.39 Q157.936 1116.97 154.464 1120.07 Q150.992 1123.15 144.672 1123.15 Q142.496 1123.15 140.228 1122.78 Q137.982 1122.41 135.575 1121.66 L135.575 1116.97 Q137.658 1118.1 139.881 1118.66 Q142.103 1119.21 144.58 1119.21 Q148.584 1119.21 150.922 1117.1 Q153.26 1115 153.26 1111.39 Q153.26 1107.78 150.922 1105.67 Q148.584 1103.56 144.58 1103.56 Q142.705 1103.56 140.83 1103.98 Q138.978 1104.4 137.033 1105.28 L137.033 1087.91 Z" fill="#000000" fill-rule="nonzero" fill-opacity="1" /><path clip-path="url(#clip580)" d="M100.76 775.745 Q97.1493 775.745 95.3206 779.309 Q93.515 782.851 93.515 789.981 Q93.515 797.087 95.3206 800.652 Q97.1493 804.194 100.76 804.194 Q104.395 804.194 106.2 800.652 Q108.029 797.087 108.029 789.981 Q108.029 782.851 106.2 779.309 Q104.395 775.745 100.76 775.745 M100.76 772.041 Q106.571 772.041 109.626 776.647 Q112.705 781.231 112.705 789.981 Q112.705 798.708 109.626 803.314 Q106.571 807.897 100.76 807.897 Q94.9502 807.897 91.8715 803.314 Q88.816 798.708 88.816 789.981 Q88.816 781.231 91.8715 776.647 Q94.9502 772.041 100.76 772.041 Z" fill="#000000" fill-rule="nonzero" fill-opacity="1" /><path clip-path="url(#clip580)" d="M120.922 801.346 L125.807 801.346 L125.807 807.226 L120.922 807.226 L120.922 801.346 Z" fill="#000000" fill-rule="nonzero" fill-opacity="1" /><path clip-path="url(#clip580)" d="M145.992 775.745 Q142.381 775.745 140.552 779.309 Q138.746 782.851 138.746 789.981 Q138.746 797.087 140.552 800.652 Q142.381 804.194 145.992 804.194 Q149.626 804.194 151.431 800.652 Q153.26 797.087 153.26 789.981 Q153.26 782.851 151.431 779.309 Q149.626 775.745 145.992 775.745 M145.992 772.041 Q151.802 772.041 154.857 776.647 Q157.936 781.231 157.936 789.981 Q157.936 798.708 154.857 803.314 Q151.802 807.897 145.992 807.897 Q140.181 807.897 137.103 803.314 Q134.047 798.708 134.047 789.981 Q134.047 781.231 137.103 776.647 Q140.181 772.041 145.992 772.041 Z" fill="#000000" fill-rule="nonzero" fill-opacity="1" /><path clip-path="url(#clip580)" d="M101.756 460.496 Q98.1447 460.496 96.316 464.061 Q94.5104 467.603 94.5104 474.732 Q94.5104 481.839 96.316 485.403 Q98.1447 488.945 101.756 488.945 Q105.39 488.945 107.196 485.403 Q109.024 481.839 109.024 474.732 Q109.024 467.603 107.196 464.061 Q105.39 460.496 101.756 460.496 M101.756 456.792 Q107.566 456.792 110.621 461.399 Q113.7 465.982 113.7 474.732 Q113.7 483.459 110.621 488.065 Q107.566 492.649 101.756 492.649 Q95.9456 492.649 92.8669 488.065 Q89.8114 483.459 89.8114 474.732 Q89.8114 465.982 92.8669 461.399 Q95.9456 456.792 101.756 456.792 Z" fill="#000000" fill-rule="nonzero" fill-opacity="1" /><path clip-path="url(#clip580)" d="M121.918 486.098 L126.802 486.098 L126.802 491.977 L121.918 491.977 L121.918 486.098 Z" fill="#000000" fill-rule="nonzero" fill-opacity="1" /><path clip-path="url(#clip580)" d="M137.033 457.417 L155.39 457.417 L155.39 461.353 L141.316 461.353 L141.316 469.825 Q142.334 469.478 143.353 469.316 Q144.371 469.13 145.39 469.13 Q151.177 469.13 154.556 472.302 Q157.936 475.473 157.936 480.89 Q157.936 486.468 154.464 489.57 Q150.992 492.649 144.672 492.649 Q142.496 492.649 140.228 492.278 Q137.982 491.908 135.575 491.167 L135.575 486.468 Q137.658 487.602 139.881 488.158 Q142.103 488.714 144.58 488.714 Q148.584 488.714 150.922 486.607 Q153.26 484.501 153.26 480.89 Q153.26 477.278 150.922 475.172 Q148.584 473.066 144.58 473.066 Q142.705 473.066 140.83 473.482 Q138.978 473.899 137.033 474.778 L137.033 457.417 Z" fill="#000000" fill-rule="nonzero" fill-opacity="1" /><path clip-path="url(#clip580)" d="M91.5706 172.794 L99.2095 172.794 L99.2095 146.428 L90.8993 148.095 L90.8993 143.836 L99.1632 142.169 L103.839 142.169 L103.839 172.794 L111.478 172.794 L111.478 176.729 L91.5706 176.729 L91.5706 172.794 Z" fill="#000000" fill-rule="nonzero" fill-opacity="1" /><path clip-path="url(#clip580)" d="M120.922 170.849 L125.807 170.849 L125.807 176.729 L120.922 176.729 L120.922 170.849 Z" fill="#000000" fill-rule="nonzero" fill-opacity="1" /><path clip-path="url(#clip580)" d="M145.992 145.248 Q142.381 145.248 140.552 148.812 Q138.746 152.354 138.746 159.484 Q138.746 166.59 140.552 170.155 Q142.381 173.697 145.992 173.697 Q149.626 173.697 151.431 170.155 Q153.26 166.59 153.26 159.484 Q153.26 152.354 151.431 148.812 Q149.626 145.248 145.992 145.248 M145.992 141.544 Q151.802 141.544 154.857 146.15 Q157.936 150.734 157.936 159.484 Q157.936 168.21 154.857 172.817 Q151.802 177.4 145.992 177.4 Q140.181 177.4 137.103 172.817 Q134.047 168.21 134.047 159.484 Q134.047 150.734 137.103 146.15 Q140.181 141.544 145.992 141.544 Z" fill="#000000" fill-rule="nonzero" fill-opacity="1" /><polyline clip-path="url(#clip582)" style="stroke:#009af9; stroke-linecap:round; stroke-linejoin:round; stroke-width:4; stroke-opacity:1; fill:none" points="255.035,789.946 258.278,783.641 261.521,777.337 264.764,771.034 268.007,764.733 271.25,758.434 274.493,752.139 277.736,745.847 280.979,739.56 284.222,733.278 287.465,727.001 290.708,720.731 293.951,714.468 297.194,708.212 300.437,701.964 303.68,695.726 306.923,689.496 310.166,683.277 313.409,677.068 316.652,670.871 319.895,664.686 323.138,658.513 326.381,652.353 329.624,646.207 332.867,640.075 336.11,633.959 339.353,627.857 342.596,621.773 345.84,615.705 349.083,609.654 352.326,603.621 355.569,597.607 358.812,591.613 362.055,585.638 365.298,579.683 368.541,573.75 371.784,567.838 375.027,561.949 378.27,556.082 381.513,550.238 384.756,544.419 387.999,538.624 391.242,532.854 394.485,527.11 397.728,521.392 400.971,515.701 404.214,510.038 407.457,504.403 410.7,498.796 413.943,493.218 417.186,487.67 420.429,482.152 423.672,476.665 426.915,471.209 430.158,465.785 433.401,460.393 436.644,455.035 439.887,449.71 443.13,444.418 446.373,439.162 449.616,433.941 452.859,428.755 456.103,423.605 459.346,418.492 462.589,413.416 465.832,408.378 469.075,403.378 472.318,398.416 475.561,393.494 478.804,388.611 482.047,383.769 485.29,378.967 488.533,374.206 491.776,369.487 495.019,364.809 498.262,360.175 501.505,355.583 504.748,351.035 507.991,346.53 511.234,342.07 514.477,337.655 517.72,333.285 520.963,328.961 524.206,324.682 527.449,320.451 530.692,316.266 533.935,312.128 537.178,308.039 540.421,303.997 543.664,300.005 546.907,296.061 550.15,292.166 553.393,288.321 556.636,284.527 559.879,280.783 563.122,277.09 566.366,273.448 569.609,269.858 572.852,266.32 576.095,262.834 579.338,259.401 582.581,256.021 585.824,252.694 589.067,249.421 592.31,246.203 595.553,243.038 598.796,239.928 602.039,236.874 605.282,233.874 608.525,230.93 611.768,228.042 615.011,225.211 618.254,222.435 621.497,219.717 624.74,217.055 627.983,214.451 631.226,211.904 634.469,209.415 637.712,206.985 640.955,204.612 644.198,202.298 647.441,200.043 650.684,197.847 653.927,195.71 657.17,193.632 660.413,191.614 663.656,189.656 666.899,187.758 670.142,185.92 673.385,184.142 676.629,182.425 679.872,180.769 683.115,179.174 686.358,177.64 689.601,176.167 692.844,174.755 696.087,173.405 699.33,172.117 702.573,170.89 705.816,169.725 709.059,168.623 712.302,167.582 715.545,166.604 718.788,165.688 722.031,164.834 725.274,164.043 728.517,163.315 731.76,162.649 735.003,162.046 738.246,161.506 741.489,161.028 744.732,160.614 747.975,160.262 751.218,159.974 754.461,159.748 757.704,159.585 760.947,159.486 764.19,159.449 767.433,159.476 770.676,159.565 773.919,159.718 777.162,159.933 780.405,160.212 783.648,160.554 786.892,160.958 790.135,161.425 793.378,161.956 796.621,162.549 799.864,163.205 803.107,163.923 806.35,164.704 809.593,165.548 812.836,166.454 816.079,167.422 819.322,168.453 822.565,169.546 825.808,170.701 829.051,171.917 832.294,173.196 835.537,174.536 838.78,175.938 842.023,177.401 845.266,178.926 848.509,180.511 851.752,182.158 854.995,183.865 858.238,185.633 861.481,187.461 864.724,189.349 867.967,191.298 871.21,193.307 874.453,195.375 877.696,197.502 880.939,199.689 884.182,201.935 887.425,204.24 890.668,206.603 893.911,209.024 897.155,211.504 900.398,214.042 903.641,216.637 906.884,219.289 910.127,221.999 913.37,224.765 916.613,227.588 919.856,230.467 923.099,233.402 926.342,236.392 929.585,239.438 932.828,242.539 936.071,245.695 939.314,248.905 942.557,252.17 945.8,255.488 949.043,258.859 952.286,262.284 955.529,265.761 958.772,269.291 962.015,272.873 965.258,276.506 968.501,280.191 971.744,283.927 974.987,287.714 978.23,291.551 981.473,295.437 984.716,299.373 987.959,303.358 991.202,307.392 994.445,311.474 997.688,315.604 1000.93,319.781 1004.17,324.005 1007.42,328.276 1010.66,332.593 1013.9,336.956 1017.15,341.364 1020.39,345.817 1023.63,350.314 1026.88,354.856 1030.12,359.441 1033.36,364.068 1036.6,368.739 1039.85,373.451 1043.09,378.206 1046.33,383.001 1049.58,387.837 1052.82,392.714 1056.06,397.63 1059.31,402.585 1062.55,407.579 1065.79,412.611 1069.04,417.681 1072.28,422.788 1075.52,427.932 1078.76,433.112 1082.01,438.328 1085.25,443.579 1088.49,448.865 1091.74,454.184 1094.98,459.538 1098.22,464.924 1101.47,470.343 1104.71,475.793 1107.95,481.276 1111.19,486.789 1114.44,492.332 1117.68,497.905 1120.92,503.508 1124.17,509.139 1127.41,514.798 1130.65,520.484 1133.9,526.198 1137.14,531.938 1140.38,537.703 1143.62,543.494 1146.87,549.31 1150.11,555.149 1153.35,561.013 1156.6,566.899 1159.84,572.807 1163.08,578.737 1166.33,584.688 1169.57,590.66 1172.81,596.651 1176.06,602.662 1179.3,608.692 1182.54,614.74 1185.78,620.805 1189.03,626.887 1192.27,632.986 1195.51,639.1 1198.76,645.229 1202,651.373 1205.24,657.531 1208.49,663.702 1211.73,669.885 1214.97,676.081 1218.21,682.287 1221.46,688.505 1224.7,694.733 1227.94,700.97 1231.19,707.216 1234.43,713.471 1237.67,719.733 1240.92,726.002 1244.16,732.278 1247.4,738.559 1250.64,744.846 1253.89,751.137 1257.13,757.431 1260.37,763.73 1263.62,770.03 1266.86,776.333 1270.1,782.637 1273.35,788.942 1276.59,795.247 1279.83,801.551 1283.08,807.854 1286.32,814.156 1289.56,820.455 1292.8,826.751 1296.05,833.043 1299.29,839.331 1302.53,845.614 1305.78,851.891 1309.02,858.163 1312.26,864.427 1315.51,870.684 1318.75,876.933 1321.99,883.173 1325.23,889.404 1328.48,895.625 1331.72,901.836 1334.96,908.035 1338.21,914.222 1341.45,920.397 1344.69,926.559 1347.94,932.707 1351.18,938.841 1354.42,944.96 1357.66,951.064 1360.91,957.151 1364.15,963.222 1367.39,969.276 1370.64,975.311 1373.88,981.328 1377.12,987.326 1380.37,993.304 1383.61,999.262 1386.85,1005.2 1390.1,1011.11 1393.34,1017.01 1396.58,1022.88 1399.82,1028.72 1403.07,1034.55 1406.31,1040.35 1409.55,1046.12 1412.8,1051.87 1416.04,1057.59 1419.28,1063.29 1422.53,1068.95 1425.77,1074.59 1429.01,1080.21 1432.25,1085.79 1435.5,1091.34 1438.74,1096.86 1441.98,1102.36 1445.23,1107.82 1448.47,1113.25 1451.71,1118.64 1454.96,1124.01 1458.2,1129.34 1461.44,1134.63 1464.68,1139.9 1467.93,1145.12 1471.17,1150.31 1474.41,1155.47 1477.66,1160.59 1480.9,1165.67 1484.14,1170.71 1487.39,1175.72 1490.63,1180.69 1493.87,1185.62 1497.11,1190.51 1500.36,1195.35 1503.6,1200.16 1506.84,1204.93 1510.09,1209.66 1513.33,1214.34 1516.57,1218.98 1519.82,1223.58 1523.06,1228.14 1526.3,1232.65 1529.55,1237.11 1532.79,1241.54 1536.03,1245.91 1539.27,1250.25 1542.52,1254.53 1545.76,1258.77 1549,1262.96 1552.25,1267.11 1555.49,1271.21 1558.73,1275.25 1561.98,1279.25 1565.22,1283.21 1568.46,1287.11 1571.7,1290.96 1574.95,1294.76 1578.19,1298.52 1581.43,1302.22 1584.68,1305.87 1587.92,1309.47 1591.16,1313.01 1594.41,1316.51 1597.65,1319.95 1600.89,1323.34 1604.13,1326.67 1607.38,1329.95 1610.62,1333.18 1613.86,1336.35 1617.11,1339.47 1620.35,1342.54 1623.59,1345.54 1626.84,1348.5 1630.08,1351.39 1633.32,1354.23 1636.57,1357.02 1639.81,1359.75 1643.05,1362.42 1646.29,1365.03 1649.54,1367.59 1652.78,1370.08 1656.02,1372.52 1659.27,1374.91 1662.51,1377.23 1665.75,1379.49 1669,1381.7 1672.24,1383.85 1675.48,1385.93 1678.72,1387.96 1681.97,1389.93 1685.21,1391.84 1688.45,1393.68 1691.7,1395.47 1694.94,1397.2 1698.18,1398.86 1701.43,1400.47 1704.67,1402.01 1707.91,1403.49 1711.15,1404.92 1714.4,1406.28 1717.64,1407.57 1720.88,1408.81 1724.13,1409.99 1727.37,1411.1 1730.61,1412.15 1733.86,1413.14 1737.1,1414.06 1740.34,1414.93 1743.59,1415.73 1746.83,1416.47 1750.07,1417.14 1753.31,1417.75 1756.56,1418.3 1759.8,1418.79 1763.04,1419.22 1766.29,1419.58 1769.53,1419.88 1772.77,1420.11 1776.02,1420.29 1779.26,1420.39 1782.5,1420.44 1785.74,1420.42 1788.99,1420.35 1792.23,1420.2 1795.47,1420 1798.72,1419.73 1801.96,1419.4 1805.2,1419 1808.45,1418.55 1811.69,1418.02 1814.93,1417.44 1818.17,1416.8 1821.42,1416.09 1824.66,1415.32 1827.9,1414.48 1831.15,1413.59 1834.39,1412.63 1837.63,1411.61 1840.88,1410.52 1844.12,1409.38 1847.36,1408.17 1850.61,1406.9 1853.85,1405.57 1857.09,1404.18 1860.33,1402.73 1863.58,1401.21 1866.82,1399.64 1870.06,1398 1873.31,1396.3 1876.55,1394.54 1879.79,1392.73 1883.04,1390.85 1886.28,1388.91 1889.52,1386.91 1892.76,1384.85 1896.01,1382.73 1899.25,1380.56 1902.49,1378.32 1905.74,1376.02 1908.98,1373.67 1912.22,1371.26 1915.47,1368.79 1918.71,1366.26 1921.95,1363.67 1925.19,1361.03 1928.44,1358.33 1931.68,1355.57 1934.92,1352.76 1938.17,1349.89 1941.41,1346.96 1944.65,1343.98 1947.9,1340.94 1951.14,1337.85 1954.38,1334.7 1957.63,1331.5 1960.87,1328.25 1964.11,1324.94 1967.35,1321.57 1970.6,1318.16 1973.84,1314.69 1977.08,1311.17 1980.33,1307.59 1983.57,1303.97 1986.81,1300.29 1990.06,1296.56 1993.3,1292.78 1996.54,1288.96 1999.78,1285.08 2003.03,1281.15 2006.27,1277.17 2009.51,1273.15 2012.76,1269.07 2016,1264.95 2019.24,1260.78 2022.49,1256.56 2025.73,1252.3 2028.97,1247.99 2032.21,1243.63 2035.46,1239.23 2038.7,1234.79 2041.94,1230.3 2045.19,1225.76 2048.43,1221.18 2051.67,1216.56 2054.92,1211.9 2058.16,1207.19 2061.4,1202.45 2064.65,1197.66 2067.89,1192.83 2071.13,1187.96 2074.37,1183.05 2077.62,1178.1 2080.86,1173.11 2084.1,1168.08 2087.35,1163.02 2090.59,1157.92 2093.83,1152.78 2097.08,1147.61 2100.32,1142.4 2103.56,1137.15 2106.8,1131.87 2110.05,1126.56 2113.29,1121.21 2116.53,1115.83 2119.78,1110.41 2123.02,1104.97 2126.26,1099.49 2129.51,1093.98 2132.75,1088.44 2135.99,1082.88 2139.23,1077.28 2142.48,1071.65 2145.72,1066 2148.96,1060.32 2152.21,1054.61 2155.45,1048.87 2158.69,1043.11 2161.94,1037.32 2165.18,1031.51 2168.42,1025.67 2171.67,1019.81 2174.91,1013.93 2178.15,1008.03 2181.39,1002.1 2184.64,996.153 2187.88,990.185 2191.12,984.196 2194.37,978.188 2197.61,972.162 2200.85,966.117 2204.1,960.054 2207.34,953.975 2210.58,947.879 2213.82,941.767 2217.07,935.64 2220.31,929.498 2223.55,923.343 2226.8,917.174 2230.04,910.993 2233.28,904.799 2236.53,898.594 2239.77,892.378 2243.01,886.152 2246.25,879.916 2249.5,873.671 2252.74,867.418 2255.98,861.157 2259.23,854.889 2262.47,848.614 2265.71,842.334 2268.96,836.048 2272.2,829.758 2275.44,823.463 2278.69,817.166 2281.93,810.865 2285.17,804.563 2288.41,798.259 2291.66,791.954 "/>
<circle clip-path="url(#clip582)" cx="1837.63" cy="1445.72" r="14.4" fill="#e26f46" fill-rule="evenodd" fill-opacity="1" stroke="#000000" stroke-opacity="1" stroke-width="3.2"/>
<circle clip-path="url(#clip582)" cx="1698.18" cy="1338.46" r="14.4" fill="#e26f46" fill-rule="evenodd" fill-opacity="1" stroke="#000000" stroke-opacity="1" stroke-width="3.2"/>
<circle clip-path="url(#clip582)" cx="316.652" cy="672.59" r="14.4" fill="#e26f46" fill-rule="evenodd" fill-opacity="1" stroke="#000000" stroke-opacity="1" stroke-width="3.2"/>
<circle clip-path="url(#clip582)" cx="1082.01" cy="456.749" r="14.4" fill="#e26f46" fill-rule="evenodd" fill-opacity="1" stroke="#000000" stroke-opacity="1" stroke-width="3.2"/>
<circle clip-path="url(#clip582)" cx="326.381" cy="602.591" r="14.4" fill="#e26f46" fill-rule="evenodd" fill-opacity="1" stroke="#000000" stroke-opacity="1" stroke-width="3.2"/>
<circle clip-path="url(#clip582)" cx="1377.12" cy="859.824" r="14.4" fill="#e26f46" fill-rule="evenodd" fill-opacity="1" stroke="#000000" stroke-opacity="1" stroke-width="3.2"/>
<circle clip-path="url(#clip582)" cx="511.234" cy="281.743" r="14.4" fill="#e26f46" fill-rule="evenodd" fill-opacity="1" stroke="#000000" stroke-opacity="1" stroke-width="3.2"/>
<circle clip-path="url(#clip582)" cx="1480.9" cy="1122.17" r="14.4" fill="#e26f46" fill-rule="evenodd" fill-opacity="1" stroke="#000000" stroke-opacity="1" stroke-width="3.2"/>
<circle clip-path="url(#clip582)" cx="1523.06" cy="1072.56" r="14.4" fill="#e26f46" fill-rule="evenodd" fill-opacity="1" stroke="#000000" stroke-opacity="1" stroke-width="3.2"/>
<circle clip-path="url(#clip582)" cx="893.911" cy="163.717" r="14.4" fill="#e26f46" fill-rule="evenodd" fill-opacity="1" stroke="#000000" stroke-opacity="1" stroke-width="3.2"/>
<circle clip-path="url(#clip582)" cx="1373.88" cy="956.179" r="14.4" fill="#e26f46" fill-rule="evenodd" fill-opacity="1" stroke="#000000" stroke-opacity="1" stroke-width="3.2"/>
<circle clip-path="url(#clip582)" cx="874.453" cy="87.9763" r="14.4" fill="#e26f46" fill-rule="evenodd" fill-opacity="1" stroke="#000000" stroke-opacity="1" stroke-width="3.2"/>
<circle clip-path="url(#clip582)" cx="1552.25" cy="1276.38" r="14.4" fill="#e26f46" fill-rule="evenodd" fill-opacity="1" stroke="#000000" stroke-opacity="1" stroke-width="3.2"/>
<circle clip-path="url(#clip582)" cx="1853.85" cy="1349.38" r="14.4" fill="#e26f46" fill-rule="evenodd" fill-opacity="1" stroke="#000000" stroke-opacity="1" stroke-width="3.2"/>
<circle clip-path="url(#clip582)" cx="2233.28" cy="959.23" r="14.4" fill="#e26f46" fill-rule="evenodd" fill-opacity="1" stroke="#000000" stroke-opacity="1" stroke-width="3.2"/>
<circle clip-path="url(#clip582)" cx="2071.13" cy="1217.74" r="14.4" fill="#e26f46" fill-rule="evenodd" fill-opacity="1" stroke="#000000" stroke-opacity="1" stroke-width="3.2"/>
<circle clip-path="url(#clip582)" cx="336.11" cy="587.23" r="14.4" fill="#e26f46" fill-rule="evenodd" fill-opacity="1" stroke="#000000" stroke-opacity="1" stroke-width="3.2"/>
<circle clip-path="url(#clip582)" cx="371.784" cy="483.864" r="14.4" fill="#e26f46" fill-rule="evenodd" fill-opacity="1" stroke="#000000" stroke-opacity="1" stroke-width="3.2"/>
<circle clip-path="url(#clip582)" cx="1954.38" cy="1431.24" r="14.4" fill="#e26f46" fill-rule="evenodd" fill-opacity="1" stroke="#000000" stroke-opacity="1" stroke-width="3.2"/>
<circle clip-path="url(#clip582)" cx="280.979" cy="680.858" r="14.4" fill="#e26f46" fill-rule="evenodd" fill-opacity="1" stroke="#000000" stroke-opacity="1" stroke-width="3.2"/>
<path clip-path="url(#clip580)" d="M1953.46 250.738 L2280.8 250.738 L2280.8 95.2176 L1953.46 95.2176  Z" fill="#ffffff" fill-rule="evenodd" fill-opacity="1"/>
<polyline clip-path="url(#clip580)" style="stroke:#000000; stroke-linecap:round; stroke-linejoin:round; stroke-width:4; stroke-opacity:1; fill:none" points="1953.46,250.738 2280.8,250.738 2280.8,95.2176 1953.46,95.2176 1953.46,250.738 "/>
<polyline clip-path="url(#clip580)" style="stroke:#009af9; stroke-linecap:round; stroke-linejoin:round; stroke-width:4; stroke-opacity:1; fill:none" points="1977.44,147.058 2121.36,147.058 "/>
<path clip-path="url(#clip580)" d="M2152.76 131.051 L2152.76 138.412 L2161.53 138.412 L2161.53 141.722 L2152.76 141.722 L2152.76 155.796 Q2152.76 158.967 2153.61 159.87 Q2154.49 160.773 2157.16 160.773 L2161.53 160.773 L2161.53 164.338 L2157.16 164.338 Q2152.23 164.338 2150.35 162.509 Q2148.48 160.657 2148.48 155.796 L2148.48 141.722 L2145.35 141.722 L2145.35 138.412 L2148.48 138.412 L2148.48 131.051 L2152.76 131.051 Z" fill="#000000" fill-rule="nonzero" fill-opacity="1" /><path clip-path="url(#clip580)" d="M2182.16 142.393 Q2181.44 141.977 2180.58 141.791 Q2179.75 141.583 2178.73 141.583 Q2175.12 141.583 2173.17 143.944 Q2171.25 146.282 2171.25 150.68 L2171.25 164.338 L2166.97 164.338 L2166.97 138.412 L2171.25 138.412 L2171.25 142.44 Q2172.6 140.078 2174.75 138.944 Q2176.9 137.787 2179.98 137.787 Q2180.42 137.787 2180.95 137.856 Q2181.48 137.903 2182.13 138.018 L2182.16 142.393 Z" fill="#000000" fill-rule="nonzero" fill-opacity="1" /><path clip-path="url(#clip580)" d="M2186.18 154.106 L2186.18 138.412 L2190.44 138.412 L2190.44 153.944 Q2190.44 157.625 2191.88 159.476 Q2193.31 161.305 2196.18 161.305 Q2199.63 161.305 2201.62 159.106 Q2203.64 156.907 2203.64 153.111 L2203.64 138.412 L2207.9 138.412 L2207.9 164.338 L2203.64 164.338 L2203.64 160.356 Q2202.09 162.717 2200.03 163.875 Q2197.99 165.009 2195.28 165.009 Q2190.81 165.009 2188.5 162.231 Q2186.18 159.453 2186.18 154.106 M2196.9 137.787 L2196.9 137.787 Z" fill="#000000" fill-rule="nonzero" fill-opacity="1" /><path clip-path="url(#clip580)" d="M2220.88 131.051 L2220.88 138.412 L2229.66 138.412 L2229.66 141.722 L2220.88 141.722 L2220.88 155.796 Q2220.88 158.967 2221.74 159.87 Q2222.62 160.773 2225.28 160.773 L2229.66 160.773 L2229.66 164.338 L2225.28 164.338 Q2220.35 164.338 2218.48 162.509 Q2216.6 160.657 2216.6 155.796 L2216.6 141.722 L2213.48 141.722 L2213.48 138.412 L2216.6 138.412 L2216.6 131.051 L2220.88 131.051 Z" fill="#000000" fill-rule="nonzero" fill-opacity="1" /><path clip-path="url(#clip580)" d="M2256.81 148.689 L2256.81 164.338 L2252.55 164.338 L2252.55 148.828 Q2252.55 145.148 2251.11 143.319 Q2249.68 141.49 2246.81 141.49 Q2243.36 141.49 2241.37 143.69 Q2239.38 145.889 2239.38 149.685 L2239.38 164.338 L2235.1 164.338 L2235.1 128.319 L2239.38 128.319 L2239.38 142.44 Q2240.91 140.102 2242.97 138.944 Q2245.05 137.787 2247.76 137.787 Q2252.23 137.787 2254.52 140.565 Q2256.81 143.319 2256.81 148.689 Z" fill="#000000" fill-rule="nonzero" fill-opacity="1" /><circle clip-path="url(#clip580)" cx="2049.4" cy="198.898" r="20.48" fill="#e26f46" fill-rule="evenodd" fill-opacity="1" stroke="#000000" stroke-opacity="1" stroke-width="4.55111"/>
<path clip-path="url(#clip580)" d="M2164.26 194.187 L2164.26 180.159 L2168.52 180.159 L2168.52 216.178 L2164.26 216.178 L2164.26 212.289 Q2162.92 214.603 2160.86 215.738 Q2158.82 216.849 2155.95 216.849 Q2151.25 216.849 2148.29 213.099 Q2145.35 209.349 2145.35 203.238 Q2145.35 197.127 2148.29 193.377 Q2151.25 189.627 2155.95 189.627 Q2158.82 189.627 2160.86 190.761 Q2162.92 191.872 2164.26 194.187 M2149.75 203.238 Q2149.75 207.937 2151.67 210.622 Q2153.61 213.284 2156.99 213.284 Q2160.37 213.284 2162.32 210.622 Q2164.26 207.937 2164.26 203.238 Q2164.26 198.539 2162.32 195.877 Q2160.37 193.192 2156.99 193.192 Q2153.61 193.192 2151.67 195.877 Q2149.75 198.539 2149.75 203.238 Z" fill="#000000" fill-rule="nonzero" fill-opacity="1" /><path clip-path="url(#clip580)" d="M2189.08 203.145 Q2183.92 203.145 2181.92 204.326 Q2179.93 205.506 2179.93 208.354 Q2179.93 210.622 2181.42 211.965 Q2182.92 213.284 2185.49 213.284 Q2189.03 213.284 2191.16 210.784 Q2193.31 208.261 2193.31 204.094 L2193.31 203.145 L2189.08 203.145 M2197.57 201.386 L2197.57 216.178 L2193.31 216.178 L2193.31 212.242 Q2191.85 214.603 2189.68 215.738 Q2187.5 216.849 2184.36 216.849 Q2180.37 216.849 2178.01 214.627 Q2175.67 212.381 2175.67 208.631 Q2175.67 204.256 2178.59 202.034 Q2181.53 199.812 2187.34 199.812 L2193.31 199.812 L2193.31 199.395 Q2193.31 196.455 2191.37 194.858 Q2189.45 193.238 2185.95 193.238 Q2183.73 193.238 2181.62 193.77 Q2179.52 194.303 2177.57 195.367 L2177.57 191.432 Q2179.91 190.53 2182.11 190.09 Q2184.31 189.627 2186.39 189.627 Q2192.02 189.627 2194.79 192.543 Q2197.57 195.46 2197.57 201.386 Z" fill="#000000" fill-rule="nonzero" fill-opacity="1" /><path clip-path="url(#clip580)" d="M2210.56 182.891 L2210.56 190.252 L2219.33 190.252 L2219.33 193.562 L2210.56 193.562 L2210.56 207.636 Q2210.56 210.807 2211.42 211.71 Q2212.29 212.613 2214.96 212.613 L2219.33 212.613 L2219.33 216.178 L2214.96 216.178 Q2210.03 216.178 2208.15 214.349 Q2206.28 212.497 2206.28 207.636 L2206.28 193.562 L2203.15 193.562 L2203.15 190.252 L2206.28 190.252 L2206.28 182.891 L2210.56 182.891 Z" fill="#000000" fill-rule="nonzero" fill-opacity="1" /><path clip-path="url(#clip580)" d="M2236.72 203.145 Q2231.55 203.145 2229.56 204.326 Q2227.57 205.506 2227.57 208.354 Q2227.57 210.622 2229.05 211.965 Q2230.56 213.284 2233.13 213.284 Q2236.67 213.284 2238.8 210.784 Q2240.95 208.261 2240.95 204.094 L2240.95 203.145 L2236.72 203.145 M2245.21 201.386 L2245.21 216.178 L2240.95 216.178 L2240.95 212.242 Q2239.49 214.603 2237.32 215.738 Q2235.14 216.849 2231.99 216.849 Q2228.01 216.849 2225.65 214.627 Q2223.31 212.381 2223.31 208.631 Q2223.31 204.256 2226.23 202.034 Q2229.17 199.812 2234.98 199.812 L2240.95 199.812 L2240.95 199.395 Q2240.95 196.455 2239.01 194.858 Q2237.09 193.238 2233.59 193.238 Q2231.37 193.238 2229.26 193.77 Q2227.16 194.303 2225.21 195.367 L2225.21 191.432 Q2227.55 190.53 2229.75 190.09 Q2231.95 189.627 2234.03 189.627 Q2239.66 189.627 2242.43 192.543 Q2245.21 195.46 2245.21 201.386 Z" fill="#000000" fill-rule="nonzero" fill-opacity="1" /></svg>
