<?xml version="1.0" encoding="utf-8"?>
<svg xmlns="http://www.w3.org/2000/svg" xmlns:xlink="http://www.w3.org/1999/xlink" width="600" height="400" viewBox="0 0 2400 1600">
<defs>
  <clipPath id="clip030">
    <rect x="0" y="0" width="2400" height="1600"/>
  </clipPath>
</defs>
<path clip-path="url(#clip030)" d="M0 1600 L2400 1600 L2400 0 L0 0  Z" fill="#ffffff" fill-rule="evenodd" fill-opacity="1"/>
<defs>
  <clipPath id="clip031">
    <rect x="480" y="0" width="1681" height="1600"/>
  </clipPath>
</defs>
<path clip-path="url(#clip030)" d="M193.936 1486.45 L2352.76 1486.45 L2352.76 47.2441 L193.936 47.2441  Z" fill="#ffffff" fill-rule="evenodd" fill-opacity="1"/>
<defs>
  <clipPath id="clip032">
    <rect x="193" y="47" width="2160" height="1440"/>
  </clipPath>
</defs>
<polyline clip-path="url(#clip032)" style="stroke:#000000; stroke-linecap:round; stroke-linejoin:round; stroke-width:2; stroke-opacity:0.1; fill:none" points="255.035,1486.45 255.035,47.2441 "/>
<polyline clip-path="url(#clip032)" style="stroke:#000000; stroke-linecap:round; stroke-linejoin:round; stroke-width:2; stroke-opacity:0.1; fill:none" points="579.173,1486.45 579.173,47.2441 "/>
<polyline clip-path="url(#clip032)" style="stroke:#000000; stroke-linecap:round; stroke-linejoin:round; stroke-width:2; stroke-opacity:0.1; fill:none" points="903.312,1486.45 903.312,47.2441 "/>
<polyline clip-path="url(#clip032)" style="stroke:#000000; stroke-linecap:round; stroke-linejoin:round; stroke-width:2; stroke-opacity:0.1; fill:none" points="1227.45,1486.45 1227.45,47.2441 "/>
<polyline clip-path="url(#clip032)" style="stroke:#000000; stroke-linecap:round; stroke-linejoin:round; stroke-width:2; stroke-opacity:0.1; fill:none" points="1551.59,1486.45 1551.59,47.2441 "/>
<polyline clip-path="url(#clip032)" style="stroke:#000000; stroke-linecap:round; stroke-linejoin:round; stroke-width:2; stroke-opacity:0.1; fill:none" points="1875.73,1486.45 1875.73,47.2441 "/>
<polyline clip-path="url(#clip032)" style="stroke:#000000; stroke-linecap:round; stroke-linejoin:round; stroke-width:2; stroke-opacity:0.1; fill:none" points="2199.87,1486.45 2199.87,47.2441 "/>
<polyline clip-path="url(#clip032)" style="stroke:#000000; stroke-linecap:round; stroke-linejoin:round; stroke-width:2; stroke-opacity:0.1; fill:none" points="193.936,1308.38 2352.76,1308.38 "/>
<polyline clip-path="url(#clip032)" style="stroke:#000000; stroke-linecap:round; stroke-linejoin:round; stroke-width:2; stroke-opacity:0.1; fill:none" points="193.936,1039.57 2352.76,1039.57 "/>
<polyline clip-path="url(#clip032)" style="stroke:#000000; stroke-linecap:round; stroke-linejoin:round; stroke-width:2; stroke-opacity:0.1; fill:none" points="193.936,770.762 2352.76,770.762 "/>
<polyline clip-path="url(#clip032)" style="stroke:#000000; stroke-linecap:round; stroke-linejoin:round; stroke-width:2; stroke-opacity:0.1; fill:none" points="193.936,501.955 2352.76,501.955 "/>
<polyline clip-path="url(#clip032)" style="stroke:#000000; stroke-linecap:round; stroke-linejoin:round; stroke-width:2; stroke-opacity:0.1; fill:none" points="193.936,233.148 2352.76,233.148 "/>
<polyline clip-path="url(#clip030)" style="stroke:#000000; stroke-linecap:round; stroke-linejoin:round; stroke-width:4; stroke-opacity:1; fill:none" points="193.936,1486.45 2352.76,1486.45 "/>
<polyline clip-path="url(#clip030)" style="stroke:#000000; stroke-linecap:round; stroke-linejoin:round; stroke-width:4; stroke-opacity:1; fill:none" points="255.035,1486.45 255.035,1467.55 "/>
<polyline clip-path="url(#clip030)" style="stroke:#000000; stroke-linecap:round; stroke-linejoin:round; stroke-width:4; stroke-opacity:1; fill:none" points="579.173,1486.45 579.173,1467.55 "/>
<polyline clip-path="url(#clip030)" style="stroke:#000000; stroke-linecap:round; stroke-linejoin:round; stroke-width:4; stroke-opacity:1; fill:none" points="903.312,1486.45 903.312,1467.55 "/>
<polyline clip-path="url(#clip030)" style="stroke:#000000; stroke-linecap:round; stroke-linejoin:round; stroke-width:4; stroke-opacity:1; fill:none" points="1227.45,1486.45 1227.45,1467.55 "/>
<polyline clip-path="url(#clip030)" style="stroke:#000000; stroke-linecap:round; stroke-linejoin:round; stroke-width:4; stroke-opacity:1; fill:none" points="1551.59,1486.45 1551.59,1467.55 "/>
<polyline clip-path="url(#clip030)" style="stroke:#000000; stroke-linecap:round; stroke-linejoin:round; stroke-width:4; stroke-opacity:1; fill:none" points="1875.73,1486.45 1875.73,1467.55 "/>
<polyline clip-path="url(#clip030)" style="stroke:#000000; stroke-linecap:round; stroke-linejoin:round; stroke-width:4; stroke-opacity:1; fill:none" points="2199.87,1486.45 2199.87,1467.55 "/>
<path clip-path="url(#clip030)" d="M255.035 1517.37 Q251.424 1517.37 249.595 1520.93 Q247.789 1524.47 247.789 1531.6 Q247.789 1538.71 249.595 1542.27 Q251.424 1545.82 255.035 1545.82 Q258.669 1545.82 260.474 1542.27 Q262.303 1538.71 262.303 1531.6 Q262.303 1524.47 260.474 1520.93 Q258.669 1517.37 255.035 1517.37 M255.035 1513.66 Q260.845 1513.66 263.9 1518.27 Q266.979 1522.85 266.979 1531.6 Q266.979 1540.33 263.9 1544.94 Q260.845 1549.52 255.035 1549.52 Q249.225 1549.52 246.146 1544.94 Q243.09 1540.33 243.09 1531.6 Q243.09 1522.85 246.146 1518.27 Q249.225 1513.66 255.035 1513.66 Z" fill="#000000" fill-rule="nonzero" fill-opacity="1" /><path clip-path="url(#clip030)" d="M569.555 1544.91 L577.194 1544.91 L577.194 1518.55 L568.884 1520.21 L568.884 1515.95 L577.148 1514.29 L581.824 1514.29 L581.824 1544.91 L589.463 1544.91 L589.463 1548.85 L569.555 1548.85 L569.555 1544.91 Z" fill="#000000" fill-rule="nonzero" fill-opacity="1" /><path clip-path="url(#clip030)" d="M897.965 1544.91 L914.284 1544.91 L914.284 1548.85 L892.34 1548.85 L892.34 1544.91 Q895.002 1542.16 899.585 1537.53 Q904.191 1532.88 905.372 1531.53 Q907.617 1529.01 908.497 1527.27 Q909.4 1525.51 909.4 1523.82 Q909.4 1521.07 907.455 1519.33 Q905.534 1517.6 902.432 1517.6 Q900.233 1517.6 897.779 1518.36 Q895.349 1519.13 892.571 1520.68 L892.571 1515.95 Q895.395 1514.82 897.849 1514.24 Q900.303 1513.66 902.34 1513.66 Q907.71 1513.66 910.904 1516.35 Q914.099 1519.03 914.099 1523.52 Q914.099 1525.65 913.289 1527.57 Q912.502 1529.47 910.395 1532.07 Q909.816 1532.74 906.715 1535.95 Q903.613 1539.15 897.965 1544.91 Z" fill="#000000" fill-rule="nonzero" fill-opacity="1" /><path clip-path="url(#clip030)" d="M1231.7 1530.21 Q1235.05 1530.93 1236.93 1533.2 Q1238.83 1535.47 1238.83 1538.8 Q1238.83 1543.92 1235.31 1546.72 Q1231.79 1549.52 1225.31 1549.52 Q1223.13 1549.52 1220.82 1549.08 Q1218.53 1548.66 1216.07 1547.81 L1216.07 1543.29 Q1218.02 1544.43 1220.33 1545.01 Q1222.65 1545.58 1225.17 1545.58 Q1229.57 1545.58 1231.86 1543.85 Q1234.17 1542.11 1234.17 1538.8 Q1234.17 1535.75 1232.02 1534.03 Q1229.89 1532.3 1226.07 1532.3 L1222.05 1532.3 L1222.05 1528.45 L1226.26 1528.45 Q1229.71 1528.45 1231.54 1527.09 Q1233.36 1525.7 1233.36 1523.11 Q1233.36 1520.45 1231.47 1519.03 Q1229.59 1517.6 1226.07 1517.6 Q1224.15 1517.6 1221.95 1518.01 Q1219.75 1518.43 1217.11 1519.31 L1217.11 1515.14 Q1219.78 1514.4 1222.09 1514.03 Q1224.43 1513.66 1226.49 1513.66 Q1231.81 1513.66 1234.92 1516.09 Q1238.02 1518.5 1238.02 1522.62 Q1238.02 1525.49 1236.37 1527.48 Q1234.73 1529.45 1231.7 1530.21 Z" fill="#000000" fill-rule="nonzero" fill-opacity="1" /><path clip-path="url(#clip030)" d="M1554.6 1518.36 L1542.79 1536.81 L1554.6 1536.81 L1554.6 1518.36 M1553.37 1514.29 L1559.25 1514.29 L1559.25 1536.81 L1564.18 1536.81 L1564.18 1540.7 L1559.25 1540.7 L1559.25 1548.85 L1554.6 1548.85 L1554.6 1540.7 L1539 1540.7 L1539 1536.19 L1553.37 1514.29 Z" fill="#000000" fill-rule="nonzero" fill-opacity="1" /><path clip-path="url(#clip030)" d="M1866.01 1514.29 L1884.36 1514.29 L1884.36 1518.22 L1870.29 1518.22 L1870.29 1526.7 Q1871.31 1526.35 1872.32 1526.19 Q1873.34 1526 1874.36 1526 Q1880.15 1526 1883.53 1529.17 Q1886.91 1532.34 1886.91 1537.76 Q1886.91 1543.34 1883.44 1546.44 Q1879.96 1549.52 1873.64 1549.52 Q1871.47 1549.52 1869.2 1549.15 Q1866.95 1548.78 1864.55 1548.04 L1864.55 1543.34 Q1866.63 1544.47 1868.85 1545.03 Q1871.07 1545.58 1873.55 1545.58 Q1877.56 1545.58 1879.89 1543.48 Q1882.23 1541.37 1882.23 1537.76 Q1882.23 1534.15 1879.89 1532.04 Q1877.56 1529.94 1873.55 1529.94 Q1871.68 1529.94 1869.8 1530.35 Q1867.95 1530.77 1866.01 1531.65 L1866.01 1514.29 Z" fill="#000000" fill-rule="nonzero" fill-opacity="1" /><path clip-path="url(#clip030)" d="M2200.27 1529.7 Q2197.12 1529.7 2195.27 1531.86 Q2193.44 1534.01 2193.44 1537.76 Q2193.44 1541.49 2195.27 1543.66 Q2197.12 1545.82 2200.27 1545.82 Q2203.42 1545.82 2205.25 1543.66 Q2207.1 1541.49 2207.1 1537.76 Q2207.1 1534.01 2205.25 1531.86 Q2203.42 1529.7 2200.27 1529.7 M2209.55 1515.05 L2209.55 1519.31 Q2207.79 1518.48 2205.99 1518.04 Q2204.21 1517.6 2202.45 1517.6 Q2197.82 1517.6 2195.36 1520.72 Q2192.93 1523.85 2192.59 1530.17 Q2193.95 1528.15 2196.01 1527.09 Q2198.07 1526 2200.55 1526 Q2205.76 1526 2208.77 1529.17 Q2211.8 1532.32 2211.8 1537.76 Q2211.8 1543.08 2208.65 1546.3 Q2205.5 1549.52 2200.27 1549.52 Q2194.28 1549.52 2191.1 1544.94 Q2187.93 1540.33 2187.93 1531.6 Q2187.93 1523.41 2191.82 1518.55 Q2195.71 1513.66 2202.26 1513.66 Q2204.02 1513.66 2205.8 1514.01 Q2207.61 1514.36 2209.55 1515.05 Z" fill="#000000" fill-rule="nonzero" fill-opacity="1" /><polyline clip-path="url(#clip030)" style="stroke:#000000; stroke-linecap:round; stroke-linejoin:round; stroke-width:4; stroke-opacity:1; fill:none" points="193.936,1486.45 193.936,47.2441 "/>
<polyline clip-path="url(#clip030)" style="stroke:#000000; stroke-linecap:round; stroke-linejoin:round; stroke-width:4; stroke-opacity:1; fill:none" points="193.936,1308.38 212.834,1308.38 "/>
<polyline clip-path="url(#clip030)" style="stroke:#000000; stroke-linecap:round; stroke-linejoin:round; stroke-width:4; stroke-opacity:1; fill:none" points="193.936,1039.57 212.834,1039.57 "/>
<polyline clip-path="url(#clip030)" style="stroke:#000000; stroke-linecap:round; stroke-linejoin:round; stroke-width:4; stroke-opacity:1; fill:none" points="193.936,770.762 212.834,770.762 "/>
<polyline clip-path="url(#clip030)" style="stroke:#000000; stroke-linecap:round; stroke-linejoin:round; stroke-width:4; stroke-opacity:1; fill:none" points="193.936,501.955 212.834,501.955 "/>
<polyline clip-path="url(#clip030)" style="stroke:#000000; stroke-linecap:round; stroke-linejoin:round; stroke-width:4; stroke-opacity:1; fill:none" points="193.936,233.148 212.834,233.148 "/>
<path clip-path="url(#clip030)" d="M50.9921 1308.83 L80.6679 1308.83 L80.6679 1312.76 L50.9921 1312.76 L50.9921 1308.83 Z" fill="#000000" fill-rule="nonzero" fill-opacity="1" /><path clip-path="url(#clip030)" d="M91.5706 1321.72 L99.2095 1321.72 L99.2095 1295.36 L90.8993 1297.02 L90.8993 1292.76 L99.1632 1291.1 L103.839 1291.1 L103.839 1321.72 L111.478 1321.72 L111.478 1325.66 L91.5706 1325.66 L91.5706 1321.72 Z" fill="#000000" fill-rule="nonzero" fill-opacity="1" /><path clip-path="url(#clip030)" d="M120.922 1319.78 L125.807 1319.78 L125.807 1325.66 L120.922 1325.66 L120.922 1319.78 Z" fill="#000000" fill-rule="nonzero" fill-opacity="1" /><path clip-path="url(#clip030)" d="M145.992 1294.17 Q142.381 1294.17 140.552 1297.74 Q138.746 1301.28 138.746 1308.41 Q138.746 1315.52 140.552 1319.08 Q142.381 1322.62 145.992 1322.62 Q149.626 1322.62 151.431 1319.08 Q153.26 1315.52 153.26 1308.41 Q153.26 1301.28 151.431 1297.74 Q149.626 1294.17 145.992 1294.17 M145.992 1290.47 Q151.802 1290.47 154.857 1295.08 Q157.936 1299.66 157.936 1308.41 Q157.936 1317.14 154.857 1321.74 Q151.802 1326.33 145.992 1326.33 Q140.181 1326.33 137.103 1321.74 Q134.047 1317.14 134.047 1308.41 Q134.047 1299.66 137.103 1295.08 Q140.181 1290.47 145.992 1290.47 Z" fill="#000000" fill-rule="nonzero" fill-opacity="1" /><path clip-path="url(#clip030)" d="M51.9875 1040.02 L81.6633 1040.02 L81.6633 1043.96 L51.9875 1043.96 L51.9875 1040.02 Z" fill="#000000" fill-rule="nonzero" fill-opacity="1" /><path clip-path="url(#clip030)" d="M101.756 1025.37 Q98.1447 1025.37 96.316 1028.93 Q94.5104 1032.47 94.5104 1039.6 Q94.5104 1046.71 96.316 1050.27 Q98.1447 1053.82 101.756 1053.82 Q105.39 1053.82 107.196 1050.27 Q109.024 1046.71 109.024 1039.6 Q109.024 1032.47 107.196 1028.93 Q105.39 1025.37 101.756 1025.37 M101.756 1021.66 Q107.566 1021.66 110.621 1026.27 Q113.7 1030.85 113.7 1039.6 Q113.7 1048.33 110.621 1052.94 Q107.566 1057.52 101.756 1057.52 Q95.9456 1057.52 92.8669 1052.94 Q89.8114 1048.33 89.8114 1039.6 Q89.8114 1030.85 92.8669 1026.27 Q95.9456 1021.66 101.756 1021.66 Z" fill="#000000" fill-rule="nonzero" fill-opacity="1" /><path clip-path="url(#clip030)" d="M121.918 1050.97 L126.802 1050.97 L126.802 1056.85 L121.918 1056.85 L121.918 1050.97 Z" fill="#000000" fill-rule="nonzero" fill-opacity="1" /><path clip-path="url(#clip030)" d="M137.033 1022.29 L155.39 1022.29 L155.39 1026.22 L141.316 1026.22 L141.316 1034.7 Q142.334 1034.35 143.353 1034.19 Q144.371 1034 145.39 1034 Q151.177 1034 154.556 1037.17 Q157.936 1040.34 157.936 1045.76 Q157.936 1051.34 154.464 1054.44 Q150.992 1057.52 144.672 1057.52 Q142.496 1057.52 140.228 1057.15 Q137.982 1056.78 135.575 1056.04 L135.575 1051.34 Q137.658 1052.47 139.881 1053.03 Q142.103 1053.58 144.58 1053.58 Q148.584 1053.58 150.922 1051.48 Q153.26 1049.37 153.26 1045.76 Q153.26 1042.15 150.922 1040.04 Q148.584 1037.94 144.58 1037.94 Q142.705 1037.94 140.83 1038.35 Q138.978 1038.77 137.033 1039.65 L137.033 1022.29 Z" fill="#000000" fill-rule="nonzero" fill-opacity="1" /><path clip-path="url(#clip030)" d="M100.76 756.56 Q97.1493 756.56 95.3206 760.125 Q93.515 763.667 93.515 770.796 Q93.515 777.903 95.3206 781.468 Q97.1493 785.009 100.76 785.009 Q104.395 785.009 106.2 781.468 Q108.029 777.903 108.029 770.796 Q108.029 763.667 106.2 760.125 Q104.395 756.56 100.76 756.56 M100.76 752.857 Q106.571 752.857 109.626 757.463 Q112.705 762.047 112.705 770.796 Q112.705 779.523 109.626 784.13 Q106.571 788.713 100.76 788.713 Q94.9502 788.713 91.8715 784.13 Q88.816 779.523 88.816 770.796 Q88.816 762.047 91.8715 757.463 Q94.9502 752.857 100.76 752.857 Z" fill="#000000" fill-rule="nonzero" fill-opacity="1" /><path clip-path="url(#clip030)" d="M120.922 782.162 L125.807 782.162 L125.807 788.042 L120.922 788.042 L120.922 782.162 Z" fill="#000000" fill-rule="nonzero" fill-opacity="1" /><path clip-path="url(#clip030)" d="M145.992 756.56 Q142.381 756.56 140.552 760.125 Q138.746 763.667 138.746 770.796 Q138.746 777.903 140.552 781.468 Q142.381 785.009 145.992 785.009 Q149.626 785.009 151.431 781.468 Q153.26 777.903 153.26 770.796 Q153.26 763.667 151.431 760.125 Q149.626 756.56 145.992 756.56 M145.992 752.857 Q151.802 752.857 154.857 757.463 Q157.936 762.047 157.936 770.796 Q157.936 779.523 154.857 784.13 Q151.802 788.713 145.992 788.713 Q140.181 788.713 137.103 784.13 Q134.047 779.523 134.047 770.796 Q134.047 762.047 137.103 757.463 Q140.181 752.857 145.992 752.857 Z" fill="#000000" fill-rule="nonzero" fill-opacity="1" /><path clip-path="url(#clip030)" d="M101.756 487.753 Q98.1447 487.753 96.316 491.318 Q94.5104 494.86 94.5104 501.989 Q94.5104 509.096 96.316 512.661 Q98.1447 516.202 101.756 516.202 Q105.39 516.202 107.196 512.661 Q109.024 509.096 109.024 501.989 Q109.024 494.86 107.196 491.318 Q105.39 487.753 101.756 487.753 M101.756 484.05 Q107.566 484.05 110.621 488.656 Q113.7 493.239 113.7 501.989 Q113.7 510.716 110.621 515.323 Q107.566 519.906 101.756 519.906 Q95.9456 519.906 92.8669 515.323 Q89.8114 510.716 89.8114 501.989 Q89.8114 493.239 92.8669 488.656 Q95.9456 484.05 101.756 484.05 Z" fill="#000000" fill-rule="nonzero" fill-opacity="1" /><path clip-path="url(#clip030)" d="M121.918 513.355 L126.802 513.355 L126.802 519.235 L121.918 519.235 L121.918 513.355 Z" fill="#000000" fill-rule="nonzero" fill-opacity="1" /><path clip-path="url(#clip030)" d="M137.033 484.675 L155.39 484.675 L155.39 488.61 L141.316 488.61 L141.316 497.082 Q142.334 496.735 143.353 496.573 Q144.371 496.388 145.39 496.388 Q151.177 496.388 154.556 499.559 Q157.936 502.73 157.936 508.147 Q157.936 513.725 154.464 516.827 Q150.992 519.906 144.672 519.906 Q142.496 519.906 140.228 519.536 Q137.982 519.165 135.575 518.425 L135.575 513.725 Q137.658 514.86 139.881 515.415 Q142.103 515.971 144.58 515.971 Q148.584 515.971 150.922 513.864 Q153.26 511.758 153.26 508.147 Q153.26 504.536 150.922 502.429 Q148.584 500.323 144.58 500.323 Q142.705 500.323 140.83 500.739 Q138.978 501.156 137.033 502.036 L137.033 484.675 Z" fill="#000000" fill-rule="nonzero" fill-opacity="1" /><path clip-path="url(#clip030)" d="M91.5706 246.493 L99.2095 246.493 L99.2095 220.127 L90.8993 221.794 L90.8993 217.534 L99.1632 215.868 L103.839 215.868 L103.839 246.493 L111.478 246.493 L111.478 250.428 L91.5706 250.428 L91.5706 246.493 Z" fill="#000000" fill-rule="nonzero" fill-opacity="1" /><path clip-path="url(#clip030)" d="M120.922 244.548 L125.807 244.548 L125.807 250.428 L120.922 250.428 L120.922 244.548 Z" fill="#000000" fill-rule="nonzero" fill-opacity="1" /><path clip-path="url(#clip030)" d="M145.992 218.946 Q142.381 218.946 140.552 222.511 Q138.746 226.053 138.746 233.182 Q138.746 240.289 140.552 243.854 Q142.381 247.395 145.992 247.395 Q149.626 247.395 151.431 243.854 Q153.26 240.289 153.26 233.182 Q153.26 226.053 151.431 222.511 Q149.626 218.946 145.992 218.946 M145.992 215.243 Q151.802 215.243 154.857 219.849 Q157.936 224.432 157.936 233.182 Q157.936 241.909 154.857 246.516 Q151.802 251.099 145.992 251.099 Q140.181 251.099 137.103 246.516 Q134.047 241.909 134.047 233.182 Q134.047 224.432 137.103 219.849 Q140.181 215.243 145.992 215.243 Z" fill="#000000" fill-rule="nonzero" fill-opacity="1" /><polyline clip-path="url(#clip032)" style="stroke:#009af9; stroke-linecap:round; stroke-linejoin:round; stroke-width:4; stroke-opacity:1; fill:none" points="255.035,770.762 258.276,765.386 261.517,760.01 264.759,754.636 268,749.263 271.242,743.892 274.483,738.524 277.724,733.16 280.966,727.799 284.207,722.442 287.449,717.09 290.69,711.743 293.931,706.403 297.173,701.069 300.414,695.741 303.655,690.422 306.897,685.11 310.138,679.807 313.38,674.513 316.621,669.229 319.862,663.954 323.104,658.691 326.345,653.438 329.587,648.198 332.828,642.969 336.069,637.754 339.311,632.552 342.552,627.363 345.793,622.189 349.035,617.03 352.276,611.886 355.518,606.758 358.759,601.646 362,596.552 365.242,591.474 368.483,586.415 371.725,581.374 374.966,576.352 378.207,571.35 381.449,566.367 384.69,561.405 387.931,556.464 391.173,551.544 394.414,546.646 397.656,541.771 400.897,536.918 404.138,532.089 407.38,527.284 410.621,522.503 413.863,517.747 417.104,513.016 420.345,508.311 423.587,503.632 426.828,498.98 430.069,494.355 433.311,489.758 436.552,485.189 439.794,480.648 443.035,476.136 446.276,471.654 449.518,467.202 452.759,462.78 456.001,458.389 459.242,454.029 462.483,449.701 465.725,445.405 468.966,441.142 472.208,436.911 475.449,432.714 478.69,428.55 481.932,424.421 485.173,420.327 488.414,416.267 491.656,412.243 494.897,408.255 498.139,404.303 501.38,400.388 504.621,396.51 507.863,392.669 511.104,388.866 514.346,385.101 517.587,381.375 520.828,377.687 524.07,374.039 527.311,370.431 530.552,366.863 533.794,363.335 537.035,359.848 540.277,356.402 543.518,352.997 546.759,349.634 550.001,346.313 553.242,343.035 556.484,339.8 559.725,336.607 562.966,333.458 566.208,330.353 569.449,327.292 572.69,324.275 575.932,321.302 579.173,318.375 582.415,315.493 585.656,312.656 588.897,309.866 592.139,307.121 595.38,304.423 598.622,301.771 601.863,299.166 605.104,296.609 608.346,294.099 611.587,291.636 614.828,289.222 618.07,286.855 621.311,284.537 624.553,282.268 627.794,280.047 631.035,277.876 634.277,275.753 637.518,273.681 640.76,271.658 644.001,269.684 647.242,267.761 650.484,265.889 653.725,264.067 656.966,262.295 660.208,260.574 663.449,258.905 666.691,257.286 669.932,255.719 673.173,254.203 676.415,252.739 679.656,251.327 682.898,249.967 686.139,248.659 689.38,247.403 692.622,246.199 695.863,245.048 699.104,243.949 702.346,242.903 705.587,241.91 708.829,240.97 712.07,240.083 715.311,239.249 718.553,238.468 721.794,237.74 725.036,237.065 728.277,236.444 731.518,235.876 734.76,235.362 738.001,234.902 741.242,234.494 744.484,234.141 747.725,233.841 750.967,233.595 754.208,233.403 757.449,233.264 760.691,233.179 763.932,233.148 767.174,233.17 770.415,233.247 773.656,233.377 776.898,233.561 780.139,233.798 783.381,234.09 786.622,234.435 789.863,234.833 793.105,235.285 796.346,235.791 799.587,236.35 802.829,236.963 806.07,237.629 809.312,238.348 812.553,239.121 815.794,239.946 819.036,240.825 822.277,241.757 825.519,242.742 828.76,243.779 832.001,244.869 835.243,246.012 838.484,247.208 841.725,248.455 844.967,249.755 848.208,251.107 851.45,252.511 854.691,253.967 857.932,255.474 861.174,257.033 864.415,258.643 867.657,260.305 870.898,262.018 874.139,263.781 877.381,265.595 880.622,267.46 883.863,269.375 887.105,271.34 890.346,273.355 893.588,275.42 896.829,277.534 900.07,279.698 903.312,281.911 906.553,284.172 909.795,286.483 913.036,288.841 916.277,291.248 919.519,293.703 922.76,296.206 926.001,298.756 929.243,301.353 932.484,303.997 935.726,306.688 938.967,309.426 942.208,312.209 945.45,315.038 948.691,317.913 951.933,320.833 955.174,323.798 958.415,326.808 961.657,329.862 964.898,332.961 968.139,336.103 971.381,339.288 974.622,342.517 977.864,345.788 981.105,349.102 984.346,352.459 987.588,355.857 990.829,359.296 994.071,362.777 997.312,366.298 1000.55,369.86 1003.79,373.462 1007.04,377.104 1010.28,380.785 1013.52,384.505 1016.76,388.264 1020,392.061 1023.24,395.895 1026.48,399.768 1029.73,403.677 1032.97,407.623 1036.21,411.606 1039.45,415.624 1042.69,419.678 1045.93,423.767 1049.17,427.89 1052.42,432.048 1055.66,436.24 1058.9,440.466 1062.14,444.724 1065.38,449.015 1068.62,453.338 1071.86,457.693 1075.11,462.079 1078.35,466.496 1081.59,470.943 1084.83,475.421 1088.07,479.927 1091.31,484.464 1094.55,489.028 1097.79,493.621 1101.04,498.242 1104.28,502.889 1107.52,507.564 1110.76,512.265 1114,516.992 1117.24,521.744 1120.48,526.521 1123.73,531.322 1126.97,536.147 1130.21,540.996 1133.45,545.868 1136.69,550.762 1139.93,555.679 1143.17,560.617 1146.42,565.575 1149.66,570.555 1152.9,575.554 1156.14,580.573 1159.38,585.611 1162.62,590.667 1165.86,595.742 1169.11,600.834 1172.35,605.943 1175.59,611.068 1178.83,616.21 1182.07,621.366 1185.31,626.538 1188.55,631.724 1191.8,636.924 1195.04,642.138 1198.28,647.364 1201.52,652.603 1204.76,657.854 1208,663.115 1211.24,668.388 1214.48,673.671 1217.73,678.963 1220.97,684.265 1224.21,689.575 1227.45,694.894 1230.69,700.22 1233.93,705.553 1237.17,710.892 1240.42,716.238 1243.66,721.589 1246.9,726.945 1250.14,732.305 1253.38,737.67 1256.62,743.037 1259.86,748.407 1263.11,753.78 1266.35,759.154 1269.59,764.53 1272.83,769.906 1276.07,775.282 1279.31,780.657 1282.55,786.032 1285.8,791.405 1289.04,796.776 1292.28,802.145 1295.52,807.51 1298.76,812.871 1302,818.229 1305.24,823.582 1308.48,828.929 1311.73,834.271 1314.97,839.606 1318.21,844.934 1321.45,850.255 1324.69,855.568 1327.93,860.873 1331.17,866.168 1334.42,871.454 1337.66,876.73 1340.9,881.995 1344.14,887.249 1347.38,892.492 1350.62,897.722 1353.86,902.94 1357.11,908.144 1360.35,913.335 1363.59,918.511 1366.83,923.673 1370.07,928.819 1373.31,933.95 1376.55,939.064 1379.8,944.162 1383.04,949.242 1386.28,954.304 1389.52,959.348 1392.76,964.373 1396,969.378 1399.24,974.364 1402.49,979.33 1405.73,984.274 1408.97,989.197 1412.21,994.099 1415.45,998.978 1418.69,1003.83 1421.93,1008.67 1425.17,1013.48 1428.42,1018.26 1431.66,1023.02 1434.9,1027.76 1438.14,1032.47 1441.38,1037.15 1444.62,1041.8 1447.86,1046.43 1451.11,1051.04 1454.35,1055.61 1457.59,1060.15 1460.83,1064.67 1464.07,1069.16 1467.31,1073.61 1470.55,1078.04 1473.8,1082.44 1477.04,1086.8 1480.28,1091.14 1483.52,1095.44 1486.76,1099.71 1490,1103.94 1493.24,1108.14 1496.49,1112.31 1499.73,1116.45 1502.97,1120.55 1506.21,1124.61 1509.45,1128.64 1512.69,1132.64 1515.93,1136.59 1519.18,1140.51 1522.42,1144.4 1525.66,1148.25 1528.9,1152.05 1532.14,1155.83 1535.38,1159.56 1538.62,1163.25 1541.86,1166.91 1545.11,1170.52 1548.35,1174.1 1551.59,1177.63 1554.83,1181.12 1558.07,1184.58 1561.31,1187.99 1564.55,1191.36 1567.8,1194.68 1571.04,1197.97 1574.28,1201.21 1577.52,1204.41 1580.76,1207.57 1584,1210.68 1587.24,1213.75 1590.49,1216.77 1593.73,1219.75 1596.97,1222.69 1600.21,1225.57 1603.45,1228.42 1606.69,1231.22 1609.93,1233.97 1613.18,1236.67 1616.42,1239.33 1619.66,1241.95 1622.9,1244.51 1626.14,1247.03 1629.38,1249.5 1632.62,1251.92 1635.86,1254.29 1639.11,1256.62 1642.35,1258.9 1645.59,1261.13 1648.83,1263.31 1652.07,1265.44 1655.31,1267.52 1658.55,1269.55 1661.8,1271.53 1665.04,1273.46 1668.28,1275.34 1671.52,1277.17 1674.76,1278.95 1678,1280.68 1681.24,1282.36 1684.49,1283.98 1687.73,1285.56 1690.97,1287.08 1694.21,1288.55 1697.45,1289.97 1700.69,1291.34 1703.93,1292.66 1707.18,1293.92 1710.42,1295.14 1713.66,1296.3 1716.9,1297.4 1720.14,1298.46 1723.38,1299.46 1726.62,1300.41 1729.87,1301.3 1733.11,1302.15 1736.35,1302.94 1739.59,1303.67 1742.83,1304.35 1746.07,1304.98 1749.31,1305.56 1752.55,1306.08 1755.8,1306.55 1759.04,1306.97 1762.28,1307.33 1765.52,1307.64 1768.76,1307.89 1772,1308.09 1775.24,1308.24 1778.49,1308.33 1781.73,1308.37 1784.97,1308.36 1788.21,1308.29 1791.45,1308.17 1794.69,1308 1797.93,1307.77 1801.18,1307.48 1804.42,1307.15 1807.66,1306.76 1810.9,1306.31 1814.14,1305.82 1817.38,1305.27 1820.62,1304.66 1823.87,1304 1827.11,1303.29 1830.35,1302.53 1833.59,1301.71 1836.83,1300.84 1840.07,1299.92 1843.31,1298.94 1846.55,1297.91 1849.8,1296.83 1853.04,1295.7 1856.28,1294.51 1859.52,1293.27 1862.76,1291.98 1866,1290.64 1869.24,1289.24 1872.49,1287.79 1875.73,1286.29 1878.97,1284.74 1882.21,1283.14 1885.45,1281.49 1888.69,1279.78 1891.93,1278.03 1895.18,1276.22 1898.42,1274.36 1901.66,1272.46 1904.9,1270.5 1908.14,1268.49 1911.38,1266.44 1914.62,1264.33 1917.87,1262.17 1921.11,1259.97 1924.35,1257.71 1927.59,1255.41 1930.83,1253.06 1934.07,1250.66 1937.31,1248.21 1940.56,1245.72 1943.8,1243.18 1947.04,1240.59 1950.28,1237.95 1953.52,1235.27 1956.76,1232.54 1960,1229.76 1963.24,1226.94 1966.49,1224.07 1969.73,1221.16 1972.97,1218.2 1976.21,1215.2 1979.45,1212.15 1982.69,1209.06 1985.93,1205.92 1989.18,1202.75 1992.42,1199.52 1995.66,1196.26 1998.9,1192.95 2002.14,1189.6 2005.38,1186.21 2008.62,1182.78 2011.87,1179.3 2015.11,1175.79 2018.35,1172.23 2021.59,1168.64 2024.83,1165 2028.07,1161.33 2031.31,1157.61 2034.56,1153.86 2037.8,1150.07 2041.04,1146.24 2044.28,1142.38 2047.52,1138.47 2050.76,1134.53 2054,1130.55 2057.24,1126.54 2060.49,1122.49 2063.73,1118.41 2066.97,1114.29 2070.21,1110.14 2073.45,1105.95 2076.69,1101.73 2079.93,1097.48 2083.18,1093.19 2086.42,1088.88 2089.66,1084.53 2092.9,1080.15 2096.14,1075.73 2099.38,1071.29 2102.62,1066.82 2105.87,1062.32 2109.11,1057.78 2112.35,1053.22 2115.59,1048.64 2118.83,1044.02 2122.07,1039.38 2125.31,1034.71 2128.56,1030.01 2131.8,1025.29 2135.04,1020.54 2138.28,1015.77 2141.52,1010.97 2144.76,1006.15 2148,1001.3 2151.25,996.433 2154.49,991.542 2157.73,986.629 2160.97,981.695 2164.21,976.739 2167.45,971.763 2170.69,966.767 2173.93,961.751 2177.18,956.716 2180.42,951.663 2183.66,946.591 2186.9,941.502 2190.14,936.396 2193.38,931.273 2196.62,926.134 2199.87,920.979 2203.11,915.81 2206.35,910.626 2209.59,905.428 2212.83,900.217 2216.07,894.992 2219.31,889.756 2222.56,884.507 2225.8,879.247 2229.04,873.976 2232.28,868.695 2235.52,863.404 2238.76,858.104 2242,852.795 2245.25,847.477 2248.49,842.153 2251.73,836.821 2254.97,831.482 2258.21,826.137 2261.45,820.787 2264.69,815.432 2267.94,810.072 2271.18,804.708 2274.42,799.341 2277.66,793.972 2280.9,788.599 2284.14,783.225 2287.38,777.85 2290.62,772.474 "/>
<circle clip-path="url(#clip032)" cx="1538.62" cy="1097.7" r="14.4" fill="#e26f46" fill-rule="evenodd" fill-opacity="1" stroke="#000000" stroke-opacity="1" stroke-width="3.2"/>
<circle clip-path="url(#clip032)" cx="2005.38" cy="1113.36" r="14.4" fill="#e26f46" fill-rule="evenodd" fill-opacity="1" stroke="#000000" stroke-opacity="1" stroke-width="3.2"/>
<circle clip-path="url(#clip032)" cx="1833.59" cy="1193.32" r="14.4" fill="#e26f46" fill-rule="evenodd" fill-opacity="1" stroke="#000000" stroke-opacity="1" stroke-width="3.2"/>
<circle clip-path="url(#clip032)" cx="588.897" cy="297.087" r="14.4" fill="#e26f46" fill-rule="evenodd" fill-opacity="1" stroke="#000000" stroke-opacity="1" stroke-width="3.2"/>
<circle clip-path="url(#clip032)" cx="1551.59" cy="1265.92" r="14.4" fill="#e26f46" fill-rule="evenodd" fill-opacity="1" stroke="#000000" stroke-opacity="1" stroke-width="3.2"/>
<circle clip-path="url(#clip032)" cx="1846.55" cy="1342.53" r="14.4" fill="#e26f46" fill-rule="evenodd" fill-opacity="1" stroke="#000000" stroke-opacity="1" stroke-width="3.2"/>
<circle clip-path="url(#clip032)" cx="1788.21" cy="1248.97" r="14.4" fill="#e26f46" fill-rule="evenodd" fill-opacity="1" stroke="#000000" stroke-opacity="1" stroke-width="3.2"/>
<circle clip-path="url(#clip032)" cx="621.311" cy="383.749" r="14.4" fill="#e26f46" fill-rule="evenodd" fill-opacity="1" stroke="#000000" stroke-opacity="1" stroke-width="3.2"/>
<circle clip-path="url(#clip032)" cx="562.966" cy="242.508" r="14.4" fill="#e26f46" fill-rule="evenodd" fill-opacity="1" stroke="#000000" stroke-opacity="1" stroke-width="3.2"/>
<circle clip-path="url(#clip032)" cx="456.001" cy="497.277" r="14.4" fill="#e26f46" fill-rule="evenodd" fill-opacity="1" stroke="#000000" stroke-opacity="1" stroke-width="3.2"/>
<circle clip-path="url(#clip032)" cx="1447.86" cy="927.888" r="14.4" fill="#e26f46" fill-rule="evenodd" fill-opacity="1" stroke="#000000" stroke-opacity="1" stroke-width="3.2"/>
<circle clip-path="url(#clip032)" cx="1010.28" cy="354.176" r="14.4" fill="#e26f46" fill-rule="evenodd" fill-opacity="1" stroke="#000000" stroke-opacity="1" stroke-width="3.2"/>
<circle clip-path="url(#clip032)" cx="757.449" cy="264.172" r="14.4" fill="#e26f46" fill-rule="evenodd" fill-opacity="1" stroke="#000000" stroke-opacity="1" stroke-width="3.2"/>
<circle clip-path="url(#clip032)" cx="686.139" cy="292.912" r="14.4" fill="#e26f46" fill-rule="evenodd" fill-opacity="1" stroke="#000000" stroke-opacity="1" stroke-width="3.2"/>
<circle clip-path="url(#clip032)" cx="896.829" cy="252.618" r="14.4" fill="#e26f46" fill-rule="evenodd" fill-opacity="1" stroke="#000000" stroke-opacity="1" stroke-width="3.2"/>
<circle clip-path="url(#clip032)" cx="2160.97" cy="865.073" r="14.4" fill="#e26f46" fill-rule="evenodd" fill-opacity="1" stroke="#000000" stroke-opacity="1" stroke-width="3.2"/>
<circle clip-path="url(#clip032)" cx="1412.21" cy="1117.18" r="14.4" fill="#e26f46" fill-rule="evenodd" fill-opacity="1" stroke="#000000" stroke-opacity="1" stroke-width="3.2"/>
<circle clip-path="url(#clip032)" cx="2044.28" cy="1198.69" r="14.4" fill="#e26f46" fill-rule="evenodd" fill-opacity="1" stroke="#000000" stroke-opacity="1" stroke-width="3.2"/>
<circle clip-path="url(#clip032)" cx="1878.97" cy="1259.31" r="14.4" fill="#e26f46" fill-rule="evenodd" fill-opacity="1" stroke="#000000" stroke-opacity="1" stroke-width="3.2"/>
<circle clip-path="url(#clip032)" cx="582.415" cy="261.157" r="14.4" fill="#e26f46" fill-rule="evenodd" fill-opacity="1" stroke="#000000" stroke-opacity="1" stroke-width="3.2"/>
<path clip-path="url(#clip032)" d="M255.035 1042.49 L258.276 1038.24 L261.517 1033.93 L264.759 1029.56 L268 1025.13 L271.242 1020.64 L274.483 1016.09 L277.724 1011.48 L280.966 1006.81 L284.207 1002.07 L287.449 997.274 L290.69 992.415 L293.931 987.493 L297.173 982.509 L300.414 977.462 L303.655 972.353 L306.897 967.181 L310.138 961.946 L313.38 956.649 L316.621 951.289 L319.862 945.867 L323.104 940.383 L326.345 934.838 L329.587 929.231 L332.828 923.563 L336.069 917.834 L339.311 912.046 L342.552 906.198 L345.793 900.292 L349.035 894.328 L352.276 888.308 L355.518 882.232 L358.759 876.101 L362 869.918 L365.242 863.682 L368.483 857.396 L371.725 851.061 L374.966 844.68 L378.207 838.253 L381.449 831.783 L384.69 825.273 L387.931 818.724 L391.173 812.14 L394.414 805.523 L397.656 798.876 L400.897 792.202 L404.138 785.504 L407.38 778.787 L410.621 772.054 L413.863 765.308 L417.104 758.555 L420.345 751.798 L423.587 745.043 L426.828 738.293 L430.069 731.555 L433.311 724.834 L436.552 718.135 L439.794 711.463 L443.035 704.825 L446.276 698.227 L449.518 691.675 L452.759 685.174 L456.001 678.732 L459.242 672.352 L462.483 666.034 L465.725 659.773 L468.966 653.566 L472.208 647.411 L475.449 641.304 L478.69 635.242 L481.932 629.223 L485.173 623.244 L488.414 617.304 L491.656 611.401 L494.897 605.535 L498.139 599.705 L501.38 593.91 L504.621 588.154 L507.863 582.435 L511.104 576.758 L514.346 571.124 L517.587 565.539 L520.828 560.005 L524.07 554.53 L527.311 549.119 L530.552 543.78 L533.794 538.521 L537.035 533.351 L540.277 528.281 L543.518 523.323 L546.759 518.488 L550.001 513.791 L553.242 509.245 L556.484 504.865 L559.725 500.669 L562.966 496.672 L566.208 492.891 L569.449 489.331 L572.69 485.998 L575.932 482.897 L579.173 480.034 L582.415 477.416 L585.656 475.045 L588.897 472.918 L592.139 471.029 L595.38 469.364 L598.622 467.91 L601.863 466.651 L605.104 465.575 L608.346 464.667 L611.587 463.917 L614.828 463.311 L618.07 462.84 L621.311 462.492 L624.553 462.257 L627.794 462.124 L631.035 462.079 L634.277 462.113 L637.518 462.214 L640.76 462.374 L644.001 462.585 L647.242 462.839 L650.484 463.131 L653.725 463.456 L656.966 463.809 L660.208 464.188 L663.449 464.592 L666.691 465.018 L669.932 465.468 L673.173 465.941 L676.415 466.439 L679.656 466.965 L682.898 467.521 L686.139 468.11 L689.38 468.735 L692.622 469.392 L695.863 470.078 L699.104 470.787 L702.346 471.517 L705.587 472.265 L708.829 473.029 L712.07 473.806 L715.311 474.596 L718.553 475.398 L721.794 476.212 L725.036 477.039 L728.277 477.879 L731.518 478.734 L734.76 479.606 L738.001 480.497 L741.242 481.412 L744.484 482.352 L747.725 483.322 L750.967 484.326 L754.208 485.368 L757.449 486.452 L760.691 487.582 L763.932 488.753 L767.174 489.958 L770.415 491.191 L773.656 492.445 L776.898 493.715 L780.139 494.996 L783.381 496.283 L786.622 497.57 L789.863 498.855 L793.105 500.132 L796.346 501.398 L799.587 502.651 L802.829 503.888 L806.07 505.106 L809.312 506.305 L812.553 507.484 L815.794 508.641 L819.036 509.776 L822.277 510.89 L825.519 511.983 L828.76 513.057 L832.001 514.113 L835.243 515.154 L838.484 516.182 L841.725 517.201 L844.967 518.213 L848.208 519.224 L851.45 520.238 L854.691 521.259 L857.932 522.293 L861.174 523.347 L864.415 524.426 L867.657 525.538 L870.898 526.69 L874.139 527.889 L877.381 529.145 L880.622 530.464 L883.863 531.856 L887.105 533.331 L890.346 534.897 L893.588 536.564 L896.829 538.342 L900.07 540.238 L903.312 542.251 L906.553 544.374 L909.795 546.604 L913.036 548.937 L916.277 551.367 L919.519 553.892 L922.76 556.508 L926.001 559.211 L929.243 562 L932.484 564.871 L935.726 567.824 L938.967 570.856 L942.208 573.967 L945.45 577.157 L948.691 580.425 L951.933 583.773 L955.174 587.202 L958.415 590.712 L961.657 594.307 L964.898 597.988 L968.139 601.759 L971.381 605.624 L974.622 609.587 L977.864 613.651 L981.105 617.822 L984.346 622.105 L987.588 626.505 L990.829 631.027 L994.071 635.679 L997.312 640.466 L1000.55 645.395 L1003.79 650.471 L1007.04 655.702 L1010.28 661.094 L1013.52 666.651 L1016.76 672.366 L1020 678.229 L1023.24 684.231 L1026.48 690.363 L1029.73 696.613 L1032.97 702.975 L1036.21 709.438 L1039.45 715.993 L1042.69 722.632 L1045.93 729.347 L1049.17 736.13 L1052.42 742.972 L1055.66 749.866 L1058.9 756.806 L1062.14 763.783 L1065.38 770.792 L1068.62 777.825 L1071.86 784.878 L1075.11 791.943 L1078.35 799.017 L1081.59 806.092 L1084.83 813.165 L1088.07 820.23 L1091.31 827.284 L1094.55 834.32 L1097.79 841.337 L1101.04 848.329 L1104.28 855.293 L1107.52 862.225 L1110.76 869.122 L1114 875.981 L1117.24 882.799 L1120.48 889.573 L1123.73 896.301 L1126.97 902.979 L1130.21 909.605 L1133.45 916.178 L1136.69 922.694 L1139.93 929.153 L1143.17 935.55 L1146.42 941.886 L1149.66 948.158 L1152.9 954.365 L1156.14 960.505 L1159.38 966.576 L1162.62 972.577 L1165.86 978.506 L1169.11 984.363 L1172.35 990.146 L1175.59 995.854 L1178.83 1001.49 L1182.07 1007.04 L1185.31 1012.52 L1188.55 1017.92 L1191.8 1023.23 L1195.04 1028.47 L1198.28 1033.63 L1201.52 1038.7 L1204.76 1043.69 L1208 1048.6 L1211.24 1053.42 L1214.48 1058.16 L1217.73 1062.81 L1220.97 1067.38 L1224.21 1071.86 L1227.45 1076.25 L1230.69 1080.56 L1233.93 1084.78 L1237.17 1088.91 L1240.42 1092.96 L1243.66 1096.91 L1246.9 1100.78 L1250.14 1104.56 L1253.38 1108.25 L1256.62 1111.85 L1259.86 1115.36 L1263.11 1118.79 L1266.35 1122.12 L1269.59 1125.37 L1272.83 1128.53 L1276.07 1131.6 L1279.31 1134.58 L1282.55 1137.47 L1285.8 1140.28 L1289.04 1143 L1292.28 1145.63 L1295.52 1148.18 L1298.76 1150.64 L1302 1153.02 L1305.24 1155.31 L1308.48 1157.53 L1311.73 1159.66 L1314.97 1161.71 L1318.21 1163.68 L1321.45 1165.57 L1324.69 1167.39 L1327.93 1169.14 L1331.17 1170.81 L1334.42 1172.41 L1337.66 1173.94 L1340.9 1175.41 L1344.14 1176.82 L1347.38 1178.16 L1350.62 1179.45 L1353.86 1180.68 L1357.11 1181.87 L1360.35 1183.01 L1363.59 1184.1 L1366.83 1185.16 L1370.07 1186.19 L1373.31 1187.19 L1376.55 1188.17 L1379.8 1189.13 L1383.04 1190.08 L1386.28 1191.03 L1389.52 1191.98 L1392.76 1192.94 L1396 1193.92 L1399.24 1194.93 L1402.49 1195.97 L1405.73 1197.06 L1408.97 1198.2 L1412.21 1199.4 L1415.45 1200.67 L1418.69 1202.01 L1421.93 1203.43 L1425.17 1204.93 L1428.42 1206.53 L1431.66 1208.21 L1434.9 1210 L1438.14 1211.88 L1441.38 1213.88 L1444.62 1215.98 L1447.86 1218.2 L1451.11 1220.55 L1454.35 1223.01 L1457.59 1225.57 L1460.83 1228.22 L1464.07 1230.96 L1467.31 1233.78 L1470.55 1236.67 L1473.8 1239.62 L1477.04 1242.62 L1480.28 1245.68 L1483.52 1248.77 L1486.76 1251.91 L1490 1255.08 L1493.24 1258.29 L1496.49 1261.53 L1499.73 1264.79 L1502.97 1268.09 L1506.21 1271.41 L1509.45 1274.77 L1512.69 1278.16 L1515.93 1281.59 L1519.18 1285.05 L1522.42 1288.56 L1525.66 1292.12 L1528.9 1295.72 L1532.14 1299.38 L1535.38 1303.11 L1538.62 1306.9 L1541.86 1310.76 L1545.11 1314.68 L1548.35 1318.66 L1551.59 1322.7 L1554.83 1326.78 L1558.07 1330.89 L1561.31 1335.03 L1564.55 1339.19 L1567.8 1343.35 L1571.04 1347.51 L1574.28 1351.66 L1577.52 1355.78 L1580.76 1359.87 L1584 1363.92 L1587.24 1367.93 L1590.49 1371.89 L1593.73 1375.78 L1596.97 1379.61 L1600.21 1383.36 L1603.45 1387.04 L1606.69 1390.63 L1609.93 1394.13 L1613.18 1397.54 L1616.42 1400.85 L1619.66 1404.07 L1622.9 1407.17 L1626.14 1410.17 L1629.38 1413.06 L1632.62 1415.84 L1635.86 1418.5 L1639.11 1421.05 L1642.35 1423.47 L1645.59 1425.78 L1648.83 1427.96 L1652.07 1430.02 L1655.31 1431.95 L1658.55 1433.76 L1661.8 1435.44 L1665.04 1436.99 L1668.28 1438.41 L1671.52 1439.71 L1674.76 1440.88 L1678 1441.92 L1681.24 1442.84 L1684.49 1443.63 L1687.73 1444.29 L1690.97 1444.82 L1694.21 1445.23 L1697.45 1445.51 L1700.69 1445.68 L1703.93 1445.72 L1707.18 1445.64 L1710.42 1445.44 L1713.66 1445.12 L1716.9 1444.69 L1720.14 1444.15 L1723.38 1443.5 L1726.62 1442.74 L1729.87 1441.88 L1733.11 1440.92 L1736.35 1439.86 L1739.59 1438.71 L1742.83 1437.47 L1746.07 1436.15 L1749.31 1434.75 L1752.55 1433.28 L1755.8 1431.74 L1759.04 1430.13 L1762.28 1428.48 L1765.52 1426.77 L1768.76 1425.03 L1772 1423.26 L1775.24 1421.46 L1778.49 1419.65 L1781.73 1417.83 L1784.97 1416.02 L1788.21 1414.22 L1791.45 1412.45 L1794.69 1410.71 L1797.93 1409 L1801.18 1407.32 L1804.42 1405.68 L1807.66 1404.08 L1810.9 1402.52 L1814.14 1401.02 L1817.38 1399.56 L1820.62 1398.17 L1823.87 1396.84 L1827.11 1395.58 L1830.35 1394.4 L1833.59 1393.3 L1836.83 1392.29 L1840.07 1391.37 L1843.31 1390.52 L1846.55 1389.75 L1849.8 1389.05 L1853.04 1388.41 L1856.28 1387.82 L1859.52 1387.28 L1862.76 1386.78 L1866 1386.32 L1869.24 1385.87 L1872.49 1385.45 L1875.73 1385.04 L1878.97 1384.63 L1882.21 1384.23 L1885.45 1383.81 L1888.69 1383.37 L1891.93 1382.89 L1895.18 1382.37 L1898.42 1381.8 L1901.66 1381.17 L1904.9 1380.47 L1908.14 1379.69 L1911.38 1378.83 L1914.62 1377.88 L1917.87 1376.84 L1921.11 1375.7 L1924.35 1374.46 L1927.59 1373.11 L1930.83 1371.66 L1934.07 1370.1 L1937.31 1368.43 L1940.56 1366.65 L1943.8 1364.77 L1947.04 1362.77 L1950.28 1360.67 L1953.52 1358.47 L1956.76 1356.17 L1960 1353.77 L1963.24 1351.27 L1966.49 1348.69 L1969.73 1346.03 L1972.97 1343.28 L1976.21 1340.47 L1979.45 1337.59 L1982.69 1334.65 L1985.93 1331.67 L1989.18 1328.64 L1992.42 1325.59 L1995.66 1322.5 L1998.9 1319.41 L2002.14 1316.31 L2005.38 1313.22 L2008.62 1310.14 L2011.87 1307.08 L2015.11 1304.03 L2018.35 1301.01 L2021.59 1297.99 L2024.83 1295 L2028.07 1292.02 L2031.31 1289.05 L2034.56 1286.11 L2037.8 1283.19 L2041.04 1280.29 L2044.28 1277.41 L2047.52 1274.55 L2050.76 1271.71 L2054 1268.89 L2057.24 1266.08 L2060.49 1263.29 L2063.73 1260.51 L2066.97 1257.74 L2070.21 1254.97 L2073.45 1252.21 L2076.69 1249.46 L2079.93 1246.71 L2083.18 1243.98 L2086.42 1241.25 L2089.66 1238.53 L2092.9 1235.82 L2096.14 1233.13 L2099.38 1230.46 L2102.62 1227.81 L2105.87 1225.19 L2109.11 1222.6 L2112.35 1220.05 L2115.59 1217.55 L2118.83 1215.09 L2122.07 1212.69 L2125.31 1210.36 L2128.56 1208.1 L2131.8 1205.92 L2135.04 1203.83 L2138.28 1201.84 L2141.52 1199.95 L2144.76 1198.18 L2148 1196.54 L2151.25 1195.03 L2154.49 1193.67 L2157.73 1192.46 L2160.97 1191.42 L2164.21 1190.55 L2167.45 1189.84 L2170.69 1189.3 L2173.93 1188.9 L2177.18 1188.65 L2180.42 1188.53 L2183.66 1188.54 L2186.9 1188.68 L2190.14 1188.92 L2193.38 1189.28 L2196.62 1189.73 L2199.87 1190.28 L2203.11 1190.92 L2206.35 1191.63 L2209.59 1192.43 L2212.83 1193.29 L2216.07 1194.22 L2219.31 1195.21 L2222.56 1196.25 L2225.8 1197.35 L2229.04 1198.49 L2232.28 1199.67 L2235.52 1200.9 L2238.76 1202.15 L2242 1203.44 L2245.25 1204.76 L2248.49 1206.1 L2251.73 1207.46 L2254.97 1208.84 L2258.21 1210.24 L2261.45 1211.65 L2264.69 1213.07 L2267.94 1214.51 L2271.18 1215.95 L2274.42 1217.39 L2277.66 1218.84 L2280.9 1220.29 L2284.14 1221.75 L2287.38 1223.2 L2290.62 1224.65 L2290.62 483.679 L2287.38 488.355 L2284.14 493.094 L2280.9 497.898 L2277.66 502.765 L2274.42 507.696 L2271.18 512.689 L2267.94 517.745 L2264.69 522.863 L2261.45 528.042 L2258.21 533.281 L2254.97 538.579 L2251.73 543.936 L2248.49 549.349 L2245.25 554.818 L2242 560.342 L2238.76 565.917 L2235.52 571.544 L2232.28 577.22 L2229.04 582.942 L2225.8 588.709 L2222.56 594.518 L2219.31 600.366 L2216.07 606.251 L2212.83 612.169 L2209.59 618.118 L2206.35 624.093 L2203.11 630.091 L2199.87 636.109 L2196.62 642.141 L2193.38 648.185 L2190.14 654.234 L2186.9 660.286 L2183.66 666.334 L2180.42 672.373 L2177.18 678.4 L2173.93 684.407 L2170.69 690.39 L2167.45 696.344 L2164.21 702.263 L2160.97 708.142 L2157.73 713.978 L2154.49 719.771 L2151.25 725.525 L2148 731.244 L2144.76 736.931 L2141.52 742.589 L2138.28 748.221 L2135.04 753.832 L2131.8 759.422 L2128.56 764.996 L2125.31 770.555 L2122.07 776.102 L2118.83 781.638 L2115.59 787.164 L2112.35 792.681 L2109.11 798.189 L2105.87 803.689 L2102.62 809.179 L2099.38 814.658 L2096.14 820.124 L2092.9 825.576 L2089.66 831.009 L2086.42 836.42 L2083.18 841.806 L2079.93 847.162 L2076.69 852.481 L2073.45 857.758 L2070.21 862.987 L2066.97 868.16 L2063.73 873.269 L2060.49 878.307 L2057.24 883.265 L2054 888.132 L2050.76 892.901 L2047.52 897.56 L2044.28 902.1 L2041.04 906.512 L2037.8 910.8 L2034.56 914.966 L2031.31 919.017 L2028.07 922.956 L2024.83 926.787 L2021.59 930.514 L2018.35 934.14 L2015.11 937.668 L2011.87 941.101 L2008.62 944.442 L2005.38 947.693 L2002.14 950.858 L1998.9 953.945 L1995.66 956.966 L1992.42 959.929 L1989.18 962.845 L1985.93 965.723 L1982.69 968.572 L1979.45 971.399 L1976.21 974.212 L1972.97 977.018 L1969.73 979.824 L1966.49 982.634 L1963.24 985.454 L1960 988.289 L1956.76 991.141 L1953.52 994.014 L1950.28 996.91 L1947.04 999.83 L1943.8 1002.78 L1940.56 1005.75 L1937.31 1008.74 L1934.07 1011.76 L1930.83 1014.8 L1927.59 1017.86 L1924.35 1020.93 L1921.11 1024.01 L1917.87 1027.1 L1914.62 1030.18 L1911.38 1033.26 L1908.14 1036.32 L1904.9 1039.35 L1901.66 1042.35 L1898.42 1045.31 L1895.18 1048.21 L1891.93 1051.03 L1888.69 1053.78 L1885.45 1056.43 L1882.21 1058.97 L1878.97 1061.38 L1875.73 1063.65 L1872.49 1065.77 L1869.24 1067.73 L1866 1069.53 L1862.76 1071.16 L1859.52 1072.61 L1856.28 1073.87 L1853.04 1074.93 L1849.8 1075.79 L1846.55 1076.42 L1843.31 1076.83 L1840.07 1077.01 L1836.83 1076.98 L1833.59 1076.72 L1830.35 1076.26 L1827.11 1075.59 L1823.87 1074.72 L1820.62 1073.68 L1817.38 1072.45 L1814.14 1071.07 L1810.9 1069.52 L1807.66 1067.83 L1804.42 1065.99 L1801.18 1064.02 L1797.93 1061.92 L1794.69 1059.69 L1791.45 1057.35 L1788.21 1054.89 L1784.97 1052.32 L1781.73 1049.65 L1778.49 1046.91 L1775.24 1044.09 L1772 1041.22 L1768.76 1038.3 L1765.52 1035.34 L1762.28 1032.36 L1759.04 1029.37 L1755.8 1026.37 L1752.55 1023.38 L1749.31 1020.4 L1746.07 1017.44 L1742.83 1014.51 L1739.59 1011.61 L1736.35 1008.75 L1733.11 1005.94 L1729.87 1003.18 L1726.62 1000.48 L1723.38 997.844 L1720.14 995.269 L1716.9 992.765 L1713.66 990.333 L1710.42 987.977 L1707.18 985.7 L1703.93 983.504 L1700.69 981.392 L1697.45 979.366 L1694.21 977.426 L1690.97 975.574 L1687.73 973.812 L1684.49 972.14 L1681.24 970.559 L1678 969.069 L1674.76 967.67 L1671.52 966.361 L1668.28 965.142 L1665.04 964.014 L1661.8 962.973 L1658.55 962.02 L1655.31 961.152 L1652.07 960.368 L1648.83 959.667 L1645.59 959.044 L1642.35 958.498 L1639.11 958.026 L1635.86 957.625 L1632.62 957.291 L1629.38 957.02 L1626.14 956.807 L1622.9 956.649 L1619.66 956.54 L1616.42 956.475 L1613.18 956.449 L1609.93 956.454 L1606.69 956.484 L1603.45 956.532 L1600.21 956.591 L1596.97 956.652 L1593.73 956.708 L1590.49 956.747 L1587.24 956.762 L1584 956.742 L1580.76 956.676 L1577.52 956.552 L1574.28 956.36 L1571.04 956.085 L1567.8 955.717 L1564.55 955.24 L1561.31 954.642 L1558.07 953.908 L1554.83 953.023 L1551.59 951.974 L1548.35 950.748 L1545.11 949.343 L1541.86 947.762 L1538.62 946.007 L1535.38 944.08 L1532.14 941.99 L1528.9 939.747 L1525.66 937.36 L1522.42 934.838 L1519.18 932.192 L1515.93 929.428 L1512.69 926.555 L1509.45 923.58 L1506.21 920.51 L1502.97 917.351 L1499.73 914.107 L1496.49 910.783 L1493.24 907.382 L1490 903.906 L1486.76 900.357 L1483.52 896.736 L1480.28 893.041 L1477.04 889.273 L1473.8 885.429 L1470.55 881.505 L1467.31 877.499 L1464.07 873.405 L1460.83 869.22 L1457.59 864.936 L1454.35 860.548 L1451.11 856.049 L1447.86 851.433 L1444.62 846.693 L1441.38 841.825 L1438.14 836.825 L1434.9 831.69 L1431.66 826.417 L1428.42 821.001 L1425.17 815.439 L1421.93 809.725 L1418.69 803.857 L1415.45 797.828 L1412.21 791.635 L1408.97 785.276 L1405.73 778.759 L1402.49 772.097 L1399.24 765.302 L1396 758.385 L1392.76 751.357 L1389.52 744.229 L1386.28 737.011 L1383.04 729.714 L1379.8 722.346 L1376.55 714.917 L1373.31 707.435 L1370.07 699.908 L1366.83 692.345 L1363.59 684.752 L1360.35 677.137 L1357.11 669.506 L1353.86 661.864 L1350.62 654.219 L1347.38 646.575 L1344.14 638.938 L1340.9 631.312 L1337.66 623.703 L1334.42 616.113 L1331.17 608.548 L1327.93 601.01 L1324.69 593.504 L1321.45 586.033 L1318.21 578.6 L1314.97 571.208 L1311.73 563.86 L1308.48 556.558 L1305.24 549.305 L1302 542.102 L1298.76 534.953 L1295.52 527.859 L1292.28 520.822 L1289.04 513.843 L1285.8 506.925 L1282.55 500.069 L1279.31 493.276 L1276.07 486.548 L1272.83 479.886 L1269.59 473.291 L1266.35 466.765 L1263.11 460.308 L1259.86 453.921 L1256.62 447.606 L1253.38 441.362 L1250.14 435.192 L1246.9 429.096 L1243.66 423.073 L1240.42 417.126 L1237.17 411.255 L1233.93 405.46 L1230.69 399.742 L1227.45 394.101 L1224.21 388.538 L1220.97 383.053 L1217.73 377.646 L1214.48 372.319 L1211.24 367.07 L1208 361.901 L1204.76 356.812 L1201.52 351.803 L1198.28 346.874 L1195.04 342.026 L1191.8 337.258 L1188.55 332.571 L1185.31 327.964 L1182.07 323.438 L1178.83 318.993 L1175.59 314.628 L1172.35 310.345 L1169.11 306.141 L1165.86 302.019 L1162.62 297.976 L1159.38 294.014 L1156.14 290.132 L1152.9 286.329 L1149.66 282.606 L1146.42 278.962 L1143.17 275.396 L1139.93 271.908 L1136.69 268.498 L1133.45 265.165 L1130.21 261.908 L1126.97 258.726 L1123.73 255.62 L1120.48 252.587 L1117.24 249.627 L1114 246.739 L1110.76 243.921 L1107.52 241.173 L1104.28 238.493 L1101.04 235.88 L1097.79 233.332 L1094.55 230.847 L1091.31 228.424 L1088.07 226.061 L1084.83 223.755 L1081.59 221.504 L1078.35 219.305 L1075.11 217.157 L1071.86 215.057 L1068.62 213 L1065.38 210.985 L1062.14 209.008 L1058.9 207.066 L1055.66 205.154 L1052.42 203.269 L1049.17 201.407 L1045.93 199.563 L1042.69 197.733 L1039.45 195.913 L1036.21 194.097 L1032.97 192.28 L1029.73 190.458 L1026.48 188.625 L1023.24 186.775 L1020 184.905 L1016.76 183.008 L1013.52 181.078 L1010.28 179.112 L1007.04 177.105 L1003.79 175.061 L1000.55 172.984 L997.312 170.878 L994.071 168.749 L990.829 166.601 L987.588 164.439 L984.346 162.268 L981.105 160.093 L977.864 157.917 L974.622 155.746 L971.381 153.583 L968.139 151.433 L964.898 149.297 L961.657 147.181 L958.415 145.087 L955.174 143.016 L951.933 140.973 L948.691 138.958 L945.45 136.973 L942.208 135.019 L938.967 133.097 L935.726 131.207 L932.484 129.35 L929.243 127.525 L926.001 125.732 L922.76 123.97 L919.519 122.238 L916.277 120.533 L913.036 118.856 L909.795 117.203 L906.553 115.573 L903.312 113.964 L900.07 112.373 L896.829 110.799 L893.588 109.241 L890.346 107.702 L887.105 106.188 L883.863 104.704 L880.622 103.256 L877.381 101.849 L874.139 100.488 L870.898 99.1772 L867.657 97.922 L864.415 96.7265 L861.174 95.5948 L857.932 94.5307 L854.691 93.5376 L851.45 92.6188 L848.208 91.7772 L844.967 91.0152 L841.725 90.335 L838.484 89.7385 L835.243 89.2272 L832.001 88.8022 L828.76 88.4644 L825.519 88.2141 L822.277 88.0515 L819.036 87.9763 L815.794 87.9879 L812.553 88.0853 L809.312 88.2674 L806.07 88.5323 L802.829 88.8781 L799.587 89.3025 L796.346 89.8028 L793.105 90.376 L789.863 91.0187 L786.622 91.7273 L783.381 92.4978 L780.139 93.3258 L776.898 94.207 L773.656 95.1363 L770.415 96.1088 L767.174 97.1192 L763.932 98.1619 L760.691 99.2315 L757.449 100.322 L754.208 101.429 L750.967 102.555 L747.725 103.701 L744.484 104.871 L741.242 106.066 L738.001 107.289 L734.76 108.543 L731.518 109.828 L728.277 111.147 L725.036 112.5 L721.794 113.888 L718.553 115.311 L715.311 116.769 L712.07 118.261 L708.829 119.787 L705.587 121.345 L702.346 122.932 L699.104 124.547 L695.863 126.187 L692.622 127.848 L689.38 129.526 L686.139 131.218 L682.898 132.921 L679.656 134.637 L676.415 136.369 L673.173 138.12 L669.932 139.893 L666.691 141.688 L663.449 143.509 L660.208 145.354 L656.966 147.223 L653.725 149.116 L650.484 151.031 L647.242 152.964 L644.001 154.911 L640.76 156.869 L637.518 158.831 L634.277 160.791 L631.035 162.74 L627.794 164.672 L624.553 166.576 L621.311 168.442 L618.07 170.261 L614.828 172.032 L611.587 173.752 L608.346 175.421 L605.104 177.037 L601.863 178.597 L598.622 180.097 L595.38 181.535 L592.139 182.906 L588.897 184.206 L585.656 185.433 L582.415 186.588 L579.173 187.673 L575.932 188.694 L572.69 189.658 L569.449 190.572 L566.208 191.442 L562.966 192.274 L559.725 193.075 L556.484 193.853 L553.242 194.616 L550.001 195.371 L546.759 196.125 L543.518 196.886 L540.277 197.657 L537.035 198.443 L533.794 199.248 L530.552 200.075 L527.311 200.925 L524.07 201.799 L520.828 202.699 L517.587 203.622 L514.346 204.567 L511.104 205.533 L507.863 206.516 L504.621 207.513 L501.38 208.519 L498.139 209.529 L494.897 210.538 L491.656 211.54 L488.414 212.528 L485.173 213.495 L481.932 214.434 L478.69 215.336 L475.449 216.194 L472.208 217 L468.966 217.744 L465.725 218.417 L462.483 219.012 L459.242 219.519 L456.001 219.928 L452.759 220.235 L449.518 220.44 L446.276 220.551 L443.035 220.573 L439.794 220.512 L436.552 220.372 L433.311 220.161 L430.069 219.882 L426.828 219.541 L423.587 219.143 L420.345 218.693 L417.104 218.196 L413.863 217.655 L410.621 217.075 L407.38 216.461 L404.138 215.815 L400.897 215.141 L397.656 214.444 L394.414 213.725 L391.173 212.989 L387.931 212.238 L384.69 211.474 L381.449 210.7 L378.207 209.919 L374.966 209.133 L371.725 208.343 L368.483 207.552 L365.242 206.762 L362 205.974 L358.759 205.189 L355.518 204.409 L352.276 203.636 L349.035 202.871 L345.793 202.114 L342.552 201.368 L339.311 200.632 L336.069 199.907 L332.828 199.195 L329.587 198.496 L326.345 197.811 L323.104 197.141 L319.862 196.485 L316.621 195.844 L313.38 195.219 L310.138 194.611 L306.897 194.019 L303.655 193.443 L300.414 192.885 L297.173 192.343 L293.931 191.819 L290.69 191.313 L287.449 190.824 L284.207 190.352 L280.966 189.898 L277.724 189.462 L274.483 189.043 L271.242 188.641 L268 188.258 L264.759 187.891 L261.517 187.542 L258.276 187.21 L255.035 186.895  Z" fill="#3da44d" fill-rule="evenodd" fill-opacity="0.1"/>
<polyline clip-path="url(#clip032)" style="stroke:#3da44d; stroke-linecap:round; stroke-linejoin:round; stroke-width:8; stroke-opacity:1; fill:none" points="255.035,614.694 258.276,612.726 261.517,610.737 264.759,608.727 268,606.695 271.242,604.642 274.483,602.567 277.724,600.471 280.966,598.352 284.207,596.211 287.449,594.049 290.69,591.864 293.931,589.656 297.173,587.426 300.414,585.173 303.655,582.898 306.897,580.6 310.138,578.279 313.38,575.934 316.621,573.567 319.862,571.176 323.104,568.762 326.345,566.324 329.587,563.863 332.828,561.379 336.069,558.871 339.311,556.339 342.552,553.783 345.793,551.203 349.035,548.6 352.276,545.972 355.518,543.321 358.759,540.645 362,537.946 365.242,535.222 368.483,532.474 371.725,529.702 374.966,526.906 378.207,524.086 381.449,521.242 384.69,518.373 387.931,515.481 391.173,512.565 394.414,509.624 397.656,506.66 400.897,503.672 404.138,500.66 407.38,497.624 410.621,494.565 413.863,491.482 417.104,488.375 420.345,485.246 423.587,482.093 426.828,478.917 430.069,475.719 433.311,472.497 436.552,469.253 439.794,465.987 443.035,462.699 446.276,459.389 449.518,456.057 452.759,452.704 456.001,449.33 459.242,445.936 462.483,442.523 465.725,439.095 468.966,435.655 472.208,432.205 475.449,428.749 478.69,425.289 481.932,421.828 485.173,418.369 488.414,414.916 491.656,411.471 494.897,408.036 498.139,404.617 501.38,401.215 504.621,397.833 507.863,394.476 511.104,391.146 514.346,387.846 517.587,384.58 520.828,381.352 524.07,378.165 527.311,375.022 530.552,371.927 533.794,368.884 537.035,365.897 540.277,362.969 543.518,360.104 546.759,357.307 550.001,354.581 553.242,351.93 556.484,349.359 559.725,346.872 562.966,344.473 566.208,342.166 569.449,339.951 572.69,337.828 575.932,335.796 579.173,333.854 582.415,332.002 585.656,330.239 588.897,328.562 592.139,326.967 595.38,325.45 598.622,324.004 601.863,322.624 605.104,321.306 608.346,320.044 611.587,318.835 614.828,317.672 618.07,316.551 621.311,315.467 624.553,314.417 627.794,313.398 631.035,312.41 634.277,311.452 637.518,310.523 640.76,309.622 644.001,308.748 647.242,307.901 650.484,307.081 653.725,306.286 656.966,305.516 660.208,304.771 663.449,304.05 666.691,303.353 669.932,302.68 673.173,302.03 676.415,301.404 679.656,300.801 682.898,300.221 686.139,299.664 689.38,299.13 692.622,298.62 695.863,298.132 699.104,297.667 702.346,297.225 705.587,296.805 708.829,296.408 712.07,296.034 715.311,295.683 718.553,295.355 721.794,295.05 725.036,294.769 728.277,294.513 731.518,294.281 734.76,294.074 738.001,293.893 741.242,293.739 744.484,293.611 747.725,293.512 750.967,293.44 754.208,293.399 757.449,293.387 760.691,293.407 763.932,293.458 767.174,293.539 770.415,293.65 773.656,293.791 776.898,293.961 780.139,294.161 783.381,294.39 786.622,294.649 789.863,294.937 793.105,295.254 796.346,295.6 799.587,295.977 802.829,296.383 806.07,296.819 809.312,297.286 812.553,297.785 815.794,298.314 819.036,298.876 822.277,299.471 825.519,300.099 828.76,300.761 832.001,301.458 835.243,302.191 838.484,302.96 841.725,303.768 844.967,304.614 848.208,305.501 851.45,306.428 854.691,307.398 857.932,308.412 861.174,309.471 864.415,310.576 867.657,311.73 870.898,312.934 874.139,314.189 877.381,315.497 880.622,316.86 883.863,318.28 887.105,319.759 890.346,321.299 893.588,322.902 896.829,324.571 900.07,326.306 903.312,328.107 906.553,329.974 909.795,331.904 913.036,333.896 916.277,335.95 919.519,338.065 922.76,340.239 926.001,342.472 929.243,344.763 932.484,347.111 935.726,349.515 938.967,351.976 942.208,354.493 945.45,357.065 948.691,359.692 951.933,362.373 955.174,365.109 958.415,367.899 961.657,370.744 964.898,373.643 968.139,376.596 971.381,379.604 974.622,382.667 977.864,385.784 981.105,388.957 984.346,392.186 987.588,395.472 990.829,398.814 994.071,402.214 997.312,405.672 1000.55,409.189 1003.79,412.766 1007.04,416.404 1010.28,420.103 1013.52,423.865 1016.76,427.687 1020,431.567 1023.24,435.503 1026.48,439.494 1029.73,443.536 1032.97,447.627 1036.21,451.767 1039.45,455.953 1042.69,460.183 1045.93,464.455 1049.17,468.768 1052.42,473.121 1055.66,477.51 1058.9,481.936 1062.14,486.396 1065.38,490.889 1068.62,495.413 1071.86,499.967 1075.11,504.55 1078.35,509.161 1081.59,513.798 1084.83,518.46 1088.07,523.146 1091.31,527.854 1094.55,532.584 1097.79,537.334 1101.04,542.105 1104.28,546.893 1107.52,551.699 1110.76,556.522 1114,561.36 1117.24,566.213 1120.48,571.08 1123.73,575.96 1126.97,580.853 1130.21,585.757 1133.45,590.671 1136.69,595.596 1139.93,600.53 1143.17,605.473 1146.42,610.424 1149.66,615.382 1152.9,620.347 1156.14,625.318 1159.38,630.295 1162.62,635.276 1165.86,640.262 1169.11,645.252 1172.35,650.245 1175.59,655.241 1178.83,660.24 1182.07,665.24 1185.31,670.241 1188.55,675.243 1191.8,680.246 1195.04,685.249 1198.28,690.251 1201.52,695.252 1204.76,700.252 1208,705.25 1211.24,710.246 1214.48,715.239 1217.73,720.229 1220.97,725.216 1224.21,730.199 1227.45,735.177 1230.69,740.151 1233.93,745.12 1237.17,750.084 1240.42,755.042 1243.66,759.993 1246.9,764.938 1250.14,769.876 1253.38,774.806 1256.62,779.728 1259.86,784.642 1263.11,789.548 1266.35,794.444 1269.59,799.33 1272.83,804.206 1276.07,809.072 1279.31,813.927 1282.55,818.77 1285.8,823.602 1289.04,828.421 1292.28,833.227 1295.52,838.019 1298.76,842.797 1302,847.561 1305.24,852.31 1308.48,857.042 1311.73,861.759 1314.97,866.458 1318.21,871.14 1321.45,875.804 1324.69,880.448 1327.93,885.073 1331.17,889.678 1334.42,894.261 1337.66,898.823 1340.9,903.362 1344.14,907.877 1347.38,912.368 1350.62,916.834 1353.86,921.274 1357.11,925.687 1360.35,930.072 1363.59,934.428 1366.83,938.754 1370.07,943.048 1373.31,947.311 1376.55,951.541 1379.8,955.736 1383.04,959.896 1386.28,964.019 1389.52,968.103 1392.76,972.149 1396,976.154 1399.24,980.116 1402.49,984.035 1405.73,987.909 1408.97,991.737 1412.21,995.516 1415.45,999.247 1418.69,1002.93 1421.93,1006.58 1425.17,1010.19 1428.42,1013.76 1431.66,1017.32 1434.9,1020.84 1438.14,1024.35 1441.38,1027.85 1444.62,1031.34 1447.86,1034.82 1451.11,1038.3 1454.35,1041.78 1457.59,1045.25 1460.83,1048.72 1464.07,1052.18 1467.31,1055.64 1470.55,1059.09 1473.8,1062.52 1477.04,1065.95 1480.28,1069.36 1483.52,1072.75 1486.76,1076.13 1490,1079.49 1493.24,1082.83 1496.49,1086.15 1499.73,1089.45 1502.97,1092.72 1506.21,1095.96 1509.45,1099.18 1512.69,1102.36 1515.93,1105.51 1519.18,1108.62 1522.42,1111.7 1525.66,1114.74 1528.9,1117.73 1532.14,1120.69 1535.38,1123.59 1538.62,1126.45 1541.86,1129.26 1545.11,1132.01 1548.35,1134.71 1551.59,1137.34 1554.83,1139.9 1558.07,1142.4 1561.31,1144.84 1564.55,1147.22 1567.8,1149.53 1571.04,1151.8 1574.28,1154.01 1577.52,1156.17 1580.76,1158.27 1584,1160.33 1587.24,1162.35 1590.49,1164.32 1593.73,1166.24 1596.97,1168.13 1600.21,1169.98 1603.45,1171.78 1606.69,1173.56 1609.93,1175.29 1613.18,1176.99 1616.42,1178.66 1619.66,1180.3 1622.9,1181.91 1626.14,1183.49 1629.38,1185.04 1632.62,1186.57 1635.86,1188.06 1639.11,1189.54 1642.35,1190.99 1645.59,1192.41 1648.83,1193.81 1652.07,1195.19 1655.31,1196.55 1658.55,1197.89 1661.8,1199.2 1665.04,1200.5 1668.28,1201.78 1671.52,1203.04 1674.76,1204.28 1678,1205.5 1681.24,1206.7 1684.49,1207.88 1687.73,1209.05 1690.97,1210.2 1694.21,1211.33 1697.45,1212.44 1700.69,1213.53 1703.93,1214.61 1707.18,1215.67 1710.42,1216.71 1713.66,1217.73 1716.9,1218.73 1720.14,1219.71 1723.38,1220.67 1726.62,1221.61 1729.87,1222.53 1733.11,1223.43 1736.35,1224.31 1739.59,1225.16 1742.83,1225.99 1746.07,1226.8 1749.31,1227.57 1752.55,1228.33 1755.8,1229.05 1759.04,1229.75 1762.28,1230.42 1765.52,1231.06 1768.76,1231.66 1772,1232.24 1775.24,1232.77 1778.49,1233.28 1781.73,1233.74 1784.97,1234.17 1788.21,1234.56 1791.45,1234.9 1794.69,1235.2 1797.93,1235.46 1801.18,1235.67 1804.42,1235.84 1807.66,1235.95 1810.9,1236.02 1814.14,1236.04 1817.38,1236.01 1820.62,1235.92 1823.87,1235.78 1827.11,1235.58 1830.35,1235.33 1833.59,1235.01 1836.83,1234.63 1840.07,1234.19 1843.31,1233.67 1846.55,1233.08 1849.8,1232.42 1853.04,1231.67 1856.28,1230.85 1859.52,1229.95 1862.76,1228.97 1866,1227.93 1869.24,1226.8 1872.49,1225.61 1875.73,1224.34 1878.97,1223 1882.21,1221.6 1885.45,1220.12 1888.69,1218.57 1891.93,1216.96 1895.18,1215.29 1898.42,1213.56 1901.66,1211.76 1904.9,1209.91 1908.14,1208.01 1911.38,1206.05 1914.62,1204.03 1917.87,1201.97 1921.11,1199.86 1924.35,1197.7 1927.59,1195.49 1930.83,1193.23 1934.07,1190.93 1937.31,1188.59 1940.56,1186.2 1943.8,1183.77 1947.04,1181.3 1950.28,1178.79 1953.52,1176.24 1956.76,1173.65 1960,1171.03 1963.24,1168.36 1966.49,1165.66 1969.73,1162.92 1972.97,1160.15 1976.21,1157.34 1979.45,1154.49 1982.69,1151.61 1985.93,1148.7 1989.18,1145.74 1992.42,1142.76 1995.66,1139.74 1998.9,1136.68 2002.14,1133.58 2005.38,1130.46 2008.62,1127.29 2011.87,1124.09 2015.11,1120.85 2018.35,1117.57 2021.59,1114.25 2024.83,1110.89 2028.07,1107.49 2031.31,1104.04 2034.56,1100.54 2037.8,1096.99 2041.04,1093.4 2044.28,1089.75 2047.52,1086.05 2050.76,1082.31 2054,1078.51 2057.24,1074.67 2060.49,1070.8 2063.73,1066.89 2066.97,1062.95 2070.21,1058.98 2073.45,1054.98 2076.69,1050.97 2079.93,1046.94 2083.18,1042.89 2086.42,1038.83 2089.66,1034.77 2092.9,1030.7 2096.14,1026.63 2099.38,1022.56 2102.62,1018.5 2105.87,1014.44 2109.11,1010.4 2112.35,1006.37 2115.59,1002.36 2118.83,998.364 2122.07,994.397 2125.31,990.457 2128.56,986.548 2131.8,982.671 2135.04,978.83 2138.28,975.029 2141.52,971.27 2144.76,967.557 2148,963.892 2151.25,960.279 2154.49,956.72 2157.73,953.22 2160.97,949.781 2164.21,946.405 2167.45,943.093 2170.69,939.843 2173.93,936.653 2177.18,933.523 2180.42,930.452 2183.66,927.438 2186.9,924.481 2190.14,921.578 2193.38,918.731 2196.62,915.936 2199.87,913.194 2203.11,910.504 2206.35,907.863 2209.59,905.273 2212.83,902.73 2216.07,900.236 2219.31,897.788 2222.56,895.386 2225.8,893.029 2229.04,890.716 2232.28,888.447 2235.52,886.22 2238.76,884.035 2242,881.891 2245.25,879.787 2248.49,877.723 2251.73,875.697 2254.97,873.71 2258.21,871.76 2261.45,869.846 2264.69,867.968 2267.94,866.126 2271.18,864.318 2274.42,862.544 2277.66,860.804 2280.9,859.096 2284.14,857.42 2287.38,855.776 2290.62,854.163 "/>
<polyline clip-path="url(#clip032)" style="stroke:#c271d2; stroke-linecap:round; stroke-linejoin:round; stroke-width:12; stroke-opacity:1; fill:none" points="255.035,903.24 362.225,761.506 469.416,581.901 576.607,434.465 683.797,413.12 790.988,432.812 898.179,469.513 1005.37,575.37 1112.56,770.813 1219.75,954.243 1326.94,1075.86 1434.13,1147.86 1541.32,1251.09 1648.51,1351.56 1755.7,1365.78 1862.89,1335.39 1970.09,1286.12 2077.28,1184.28 2184.47,1103.32 2291.66,1104.2 "/>
<polyline clip-path="url(#clip032)" style="stroke:#ac8d18; stroke-linecap:round; stroke-linejoin:round; stroke-width:12; stroke-opacity:1; fill:none" points="255.035,326.148 362.225,314.009 469.416,288.453 576.607,236.302 683.797,187.008 790.988,157.275 898.179,181.057 1005.37,253.682 1112.56,347.599 1219.75,492.445 1326.94,691.464 1434.13,892.157 1541.32,1006.5 1648.51,1035.8 1755.7,1092.28 1862.89,1122.48 1970.09,1039.12 2077.28,916.212 2184.47,750.068 2291.66,603.115 "/>
<path clip-path="url(#clip030)" d="M1953.46 406.258 L2280.8 406.258 L2280.8 95.2176 L1953.46 95.2176  Z" fill="#ffffff" fill-rule="evenodd" fill-opacity="1"/>
<polyline clip-path="url(#clip030)" style="stroke:#000000; stroke-linecap:round; stroke-linejoin:round; stroke-width:4; stroke-opacity:1; fill:none" points="1953.46,406.258 2280.8,406.258 2280.8,95.2176 1953.46,95.2176 1953.46,406.258 "/>
<polyline clip-path="url(#clip030)" style="stroke:#009af9; stroke-linecap:round; stroke-linejoin:round; stroke-width:4; stroke-opacity:1; fill:none" points="1977.44,147.058 2121.36,147.058 "/>
<path clip-path="url(#clip030)" d="M2152.76 131.051 L2152.76 138.412 L2161.53 138.412 L2161.53 141.722 L2152.76 141.722 L2152.76 155.796 Q2152.76 158.967 2153.61 159.87 Q2154.49 160.773 2157.16 160.773 L2161.53 160.773 L2161.53 164.338 L2157.16 164.338 Q2152.23 164.338 2150.35 162.509 Q2148.48 160.657 2148.48 155.796 L2148.48 141.722 L2145.35 141.722 L2145.35 138.412 L2148.48 138.412 L2148.48 131.051 L2152.76 131.051 Z" fill="#000000" fill-rule="nonzero" fill-opacity="1" /><path clip-path="url(#clip030)" d="M2182.16 142.393 Q2181.44 141.977 2180.58 141.791 Q2179.75 141.583 2178.73 141.583 Q2175.12 141.583 2173.17 143.944 Q2171.25 146.282 2171.25 150.68 L2171.25 164.338 L2166.97 164.338 L2166.97 138.412 L2171.25 138.412 L2171.25 142.44 Q2172.6 140.078 2174.75 138.944 Q2176.9 137.787 2179.98 137.787 Q2180.42 137.787 2180.95 137.856 Q2181.48 137.903 2182.13 138.018 L2182.16 142.393 Z" fill="#000000" fill-rule="nonzero" fill-opacity="1" /><path clip-path="url(#clip030)" d="M2186.18 154.106 L2186.18 138.412 L2190.44 138.412 L2190.44 153.944 Q2190.44 157.625 2191.88 159.476 Q2193.31 161.305 2196.18 161.305 Q2199.63 161.305 2201.62 159.106 Q2203.64 156.907 2203.64 153.111 L2203.64 138.412 L2207.9 138.412 L2207.9 164.338 L2203.64 164.338 L2203.64 160.356 Q2202.09 162.717 2200.03 163.875 Q2197.99 165.009 2195.28 165.009 Q2190.81 165.009 2188.5 162.231 Q2186.18 159.453 2186.18 154.106 M2196.9 137.787 L2196.9 137.787 Z" fill="#000000" fill-rule="nonzero" fill-opacity="1" /><path clip-path="url(#clip030)" d="M2220.88 131.051 L2220.88 138.412 L2229.66 138.412 L2229.66 141.722 L2220.88 141.722 L2220.88 155.796 Q2220.88 158.967 2221.74 159.87 Q2222.62 160.773 2225.28 160.773 L2229.66 160.773 L2229.66 164.338 L2225.28 164.338 Q2220.35 164.338 2218.48 162.509 Q2216.6 160.657 2216.6 155.796 L2216.6 141.722 L2213.48 141.722 L2213.48 138.412 L2216.6 138.412 L2216.6 131.051 L2220.88 131.051 Z" fill="#000000" fill-rule="nonzero" fill-opacity="1" /><path clip-path="url(#clip030)" d="M2256.81 148.689 L2256.81 164.338 L2252.55 164.338 L2252.55 148.828 Q2252.55 145.148 2251.11 143.319 Q2249.68 141.49 2246.81 141.49 Q2243.36 141.49 2241.37 143.69 Q2239.38 145.889 2239.38 149.685 L2239.38 164.338 L2235.1 164.338 L2235.1 128.319 L2239.38 128.319 L2239.38 142.44 Q2240.91 140.102 2242.97 138.944 Q2245.05 137.787 2247.76 137.787 Q2252.23 137.787 2254.52 140.565 Q2256.81 143.319 2256.81 148.689 Z" fill="#000000" fill-rule="nonzero" fill-opacity="1" /><circle clip-path="url(#clip030)" cx="2049.4" cy="198.898" r="20.48" fill="#e26f46" fill-rule="evenodd" fill-opacity="1" stroke="#000000" stroke-opacity="1" stroke-width="4.55111"/>
<path clip-path="url(#clip030)" d="M2164.26 194.187 L2164.26 180.159 L2168.52 180.159 L2168.52 216.178 L2164.26 216.178 L2164.26 212.289 Q2162.92 214.603 2160.86 215.738 Q2158.82 216.849 2155.95 216.849 Q2151.25 216.849 2148.29 213.099 Q2145.35 209.349 2145.35 203.238 Q2145.35 197.127 2148.29 193.377 Q2151.25 189.627 2155.95 189.627 Q2158.82 189.627 2160.86 190.761 Q2162.92 191.872 2164.26 194.187 M2149.75 203.238 Q2149.75 207.937 2151.67 210.622 Q2153.61 213.284 2156.99 213.284 Q2160.37 213.284 2162.32 210.622 Q2164.26 207.937 2164.26 203.238 Q2164.26 198.539 2162.32 195.877 Q2160.37 193.192 2156.99 193.192 Q2153.61 193.192 2151.67 195.877 Q2149.75 198.539 2149.75 203.238 Z" fill="#000000" fill-rule="nonzero" fill-opacity="1" /><path clip-path="url(#clip030)" d="M2189.08 203.145 Q2183.92 203.145 2181.92 204.326 Q2179.93 205.506 2179.93 208.354 Q2179.93 210.622 2181.42 211.965 Q2182.92 213.284 2185.49 213.284 Q2189.03 213.284 2191.16 210.784 Q2193.31 208.261 2193.31 204.094 L2193.31 203.145 L2189.08 203.145 M2197.57 201.386 L2197.57 216.178 L2193.31 216.178 L2193.31 212.242 Q2191.85 214.603 2189.68 215.738 Q2187.5 216.849 2184.36 216.849 Q2180.37 216.849 2178.01 214.627 Q2175.67 212.381 2175.67 208.631 Q2175.67 204.256 2178.59 202.034 Q2181.53 199.812 2187.34 199.812 L2193.31 199.812 L2193.31 199.395 Q2193.31 196.455 2191.37 194.858 Q2189.45 193.238 2185.95 193.238 Q2183.73 193.238 2181.62 193.77 Q2179.52 194.303 2177.57 195.367 L2177.57 191.432 Q2179.91 190.53 2182.11 190.09 Q2184.31 189.627 2186.39 189.627 Q2192.02 189.627 2194.79 192.543 Q2197.57 195.46 2197.57 201.386 Z" fill="#000000" fill-rule="nonzero" fill-opacity="1" /><path clip-path="url(#clip030)" d="M2210.56 182.891 L2210.56 190.252 L2219.33 190.252 L2219.33 193.562 L2210.56 193.562 L2210.56 207.636 Q2210.56 210.807 2211.42 211.71 Q2212.29 212.613 2214.96 212.613 L2219.33 212.613 L2219.33 216.178 L2214.96 216.178 Q2210.03 216.178 2208.15 214.349 Q2206.28 212.497 2206.28 207.636 L2206.28 193.562 L2203.15 193.562 L2203.15 190.252 L2206.28 190.252 L2206.28 182.891 L2210.56 182.891 Z" fill="#000000" fill-rule="nonzero" fill-opacity="1" /><path clip-path="url(#clip030)" d="M2236.72 203.145 Q2231.55 203.145 2229.56 204.326 Q2227.57 205.506 2227.57 208.354 Q2227.57 210.622 2229.05 211.965 Q2230.56 213.284 2233.13 213.284 Q2236.67 213.284 2238.8 210.784 Q2240.95 208.261 2240.95 204.094 L2240.95 203.145 L2236.72 203.145 M2245.21 201.386 L2245.21 216.178 L2240.95 216.178 L2240.95 212.242 Q2239.49 214.603 2237.32 215.738 Q2235.14 216.849 2231.99 216.849 Q2228.01 216.849 2225.65 214.627 Q2223.31 212.381 2223.31 208.631 Q2223.31 204.256 2226.23 202.034 Q2229.17 199.812 2234.98 199.812 L2240.95 199.812 L2240.95 199.395 Q2240.95 196.455 2239.01 194.858 Q2237.09 193.238 2233.59 193.238 Q2231.37 193.238 2229.26 193.77 Q2227.16 194.303 2225.21 195.367 L2225.21 191.432 Q2227.55 190.53 2229.75 190.09 Q2231.95 189.627 2234.03 189.627 Q2239.66 189.627 2242.43 192.543 Q2245.21 195.46 2245.21 201.386 Z" fill="#000000" fill-rule="nonzero" fill-opacity="1" /><polyline clip-path="url(#clip030)" style="stroke:#3da44d; stroke-linecap:round; stroke-linejoin:round; stroke-width:8; stroke-opacity:1; fill:none" points="1977.44,250.738 2121.36,250.738 "/>
<path clip-path="url(#clip030)" d="M2170.91 263.087 L2170.91 253.805 L2163.27 253.805 L2163.27 249.962 L2175.54 249.962 L2175.54 264.8 Q2172.83 266.721 2169.56 267.717 Q2166.3 268.689 2162.6 268.689 Q2154.49 268.689 2149.91 263.967 Q2145.35 259.221 2145.35 250.772 Q2145.35 242.3 2149.91 237.578 Q2154.49 232.833 2162.6 232.833 Q2165.98 232.833 2169.01 233.666 Q2172.06 234.499 2174.63 236.12 L2174.63 241.096 Q2172.04 238.897 2169.12 237.786 Q2166.21 236.675 2162.99 236.675 Q2156.65 236.675 2153.45 240.217 Q2150.28 243.758 2150.28 250.772 Q2150.28 257.763 2153.45 261.305 Q2156.65 264.846 2162.99 264.846 Q2165.47 264.846 2167.41 264.43 Q2169.36 263.99 2170.91 263.087 Z" fill="#000000" fill-rule="nonzero" fill-opacity="1" /><path clip-path="url(#clip030)" d="M2188.75 237.3 L2188.75 250.286 L2194.63 250.286 Q2197.9 250.286 2199.68 248.596 Q2201.46 246.907 2201.46 243.782 Q2201.46 240.68 2199.68 238.99 Q2197.9 237.3 2194.63 237.3 L2188.75 237.3 M2184.08 233.458 L2194.63 233.458 Q2200.44 233.458 2203.41 236.096 Q2206.39 238.712 2206.39 243.782 Q2206.39 248.897 2203.41 251.513 Q2200.44 254.129 2194.63 254.129 L2188.75 254.129 L2188.75 268.018 L2184.08 268.018 L2184.08 233.458 Z" fill="#000000" fill-rule="nonzero" fill-opacity="1" /><polyline clip-path="url(#clip030)" style="stroke:#c271d2; stroke-linecap:round; stroke-linejoin:round; stroke-width:12; stroke-opacity:1; fill:none" points="1977.44,302.578 2121.36,302.578 "/>
<path clip-path="url(#clip030)" d="M2150.03 289.14 L2150.03 302.126 L2155.91 302.126 Q2159.17 302.126 2160.95 300.436 Q2162.73 298.747 2162.73 295.622 Q2162.73 292.52 2160.95 290.83 Q2159.17 289.14 2155.91 289.14 L2150.03 289.14 M2145.35 285.298 L2155.91 285.298 Q2161.72 285.298 2164.68 287.936 Q2167.67 290.552 2167.67 295.622 Q2167.67 300.737 2164.68 303.353 Q2161.72 305.969 2155.91 305.969 L2150.03 305.969 L2150.03 319.858 L2145.35 319.858 L2145.35 285.298 Z" fill="#000000" fill-rule="nonzero" fill-opacity="1" /><path clip-path="url(#clip030)" d="M2178.38 315.922 L2194.7 315.922 L2194.7 319.858 L2172.76 319.858 L2172.76 315.922 Q2175.42 313.168 2180 308.538 Q2184.61 303.885 2185.79 302.543 Q2188.04 300.02 2188.92 298.284 Q2189.82 296.524 2189.82 294.835 Q2189.82 292.08 2187.87 290.344 Q2185.95 288.608 2182.85 288.608 Q2180.65 288.608 2178.2 289.372 Q2175.77 290.135 2172.99 291.686 L2172.99 286.964 Q2175.81 285.83 2178.27 285.251 Q2180.72 284.673 2182.76 284.673 Q2188.13 284.673 2191.32 287.358 Q2194.52 290.043 2194.52 294.534 Q2194.52 296.663 2193.71 298.585 Q2192.92 300.483 2190.81 303.075 Q2190.23 303.747 2187.13 306.964 Q2184.03 310.159 2178.38 315.922 Z" fill="#000000" fill-rule="nonzero" fill-opacity="1" /><path clip-path="url(#clip030)" d="M2204.56 285.298 L2222.92 285.298 L2222.92 289.233 L2208.85 289.233 L2208.85 297.705 Q2209.86 297.358 2210.88 297.196 Q2211.9 297.01 2212.92 297.01 Q2218.71 297.01 2222.09 300.182 Q2225.47 303.353 2225.47 308.77 Q2225.47 314.348 2221.99 317.45 Q2218.52 320.529 2212.2 320.529 Q2210.03 320.529 2207.76 320.158 Q2205.51 319.788 2203.1 319.047 L2203.1 314.348 Q2205.19 315.483 2207.41 316.038 Q2209.63 316.594 2212.11 316.594 Q2216.11 316.594 2218.45 314.487 Q2220.79 312.381 2220.79 308.77 Q2220.79 305.159 2218.45 303.052 Q2216.11 300.946 2212.11 300.946 Q2210.23 300.946 2208.36 301.362 Q2206.51 301.779 2204.56 302.659 L2204.56 285.298 Z" fill="#000000" fill-rule="nonzero" fill-opacity="1" /><polyline clip-path="url(#clip030)" style="stroke:#ac8d18; stroke-linecap:round; stroke-linejoin:round; stroke-width:12; stroke-opacity:1; fill:none" points="1977.44,354.418 2121.36,354.418 "/>
<path clip-path="url(#clip030)" d="M2150.03 340.98 L2150.03 353.966 L2155.91 353.966 Q2159.17 353.966 2160.95 352.276 Q2162.73 350.587 2162.73 347.462 Q2162.73 344.36 2160.95 342.67 Q2159.17 340.98 2155.91 340.98 L2150.03 340.98 M2145.35 337.138 L2155.91 337.138 Q2161.72 337.138 2164.68 339.776 Q2167.67 342.392 2167.67 347.462 Q2167.67 352.577 2164.68 355.193 Q2161.72 357.809 2155.91 357.809 L2150.03 357.809 L2150.03 371.698 L2145.35 371.698 L2145.35 337.138 Z" fill="#000000" fill-rule="nonzero" fill-opacity="1" /><path clip-path="url(#clip030)" d="M2173.17 337.138 L2195.4 337.138 L2195.4 339.128 L2182.85 371.698 L2177.97 371.698 L2189.77 341.073 L2173.17 341.073 L2173.17 337.138 Z" fill="#000000" fill-rule="nonzero" fill-opacity="1" /><path clip-path="url(#clip030)" d="M2204.56 337.138 L2222.92 337.138 L2222.92 341.073 L2208.85 341.073 L2208.85 349.545 Q2209.86 349.198 2210.88 349.036 Q2211.9 348.85 2212.92 348.85 Q2218.71 348.85 2222.09 352.022 Q2225.47 355.193 2225.47 360.61 Q2225.47 366.188 2221.99 369.29 Q2218.52 372.369 2212.2 372.369 Q2210.03 372.369 2207.76 371.998 Q2205.51 371.628 2203.1 370.887 L2203.1 366.188 Q2205.19 367.323 2207.41 367.878 Q2209.63 368.434 2212.11 368.434 Q2216.11 368.434 2218.45 366.327 Q2220.79 364.221 2220.79 360.61 Q2220.79 356.999 2218.45 354.892 Q2216.11 352.786 2212.11 352.786 Q2210.23 352.786 2208.36 353.202 Q2206.51 353.619 2204.56 354.499 L2204.56 337.138 Z" fill="#000000" fill-rule="nonzero" fill-opacity="1" /></svg>
