<?xml version="1.0" encoding="utf-8"?>
<svg xmlns="http://www.w3.org/2000/svg" xmlns:xlink="http://www.w3.org/1999/xlink" width="600" height="400" viewBox="0 0 2400 1600">
<defs>
  <clipPath id="clip700">
    <rect x="0" y="0" width="2400" height="1600"/>
  </clipPath>
</defs>
<path clip-path="url(#clip700)" d="M0 1600 L2400 1600 L2400 0 L0 0  Z" fill="#ffffff" fill-rule="evenodd" fill-opacity="1"/>
<defs>
  <clipPath id="clip701">
    <rect x="480" y="0" width="1681" height="1600"/>
  </clipPath>
</defs>
<path clip-path="url(#clip700)" d="M193.936 1486.45 L2352.76 1486.45 L2352.76 47.2441 L193.936 47.2441  Z" fill="#ffffff" fill-rule="evenodd" fill-opacity="1"/>
<defs>
  <clipPath id="clip702">
    <rect x="193" y="47" width="2160" height="1440"/>
  </clipPath>
</defs>
<polyline clip-path="url(#clip702)" style="stroke:#000000; stroke-linecap:round; stroke-linejoin:round; stroke-width:2; stroke-opacity:0.1; fill:none" points="255.035,1486.45 255.035,47.2441 "/>
<polyline clip-path="url(#clip702)" style="stroke:#000000; stroke-linecap:round; stroke-linejoin:round; stroke-width:2; stroke-opacity:0.1; fill:none" points="579.173,1486.45 579.173,47.2441 "/>
<polyline clip-path="url(#clip702)" style="stroke:#000000; stroke-linecap:round; stroke-linejoin:round; stroke-width:2; stroke-opacity:0.1; fill:none" points="903.312,1486.45 903.312,47.2441 "/>
<polyline clip-path="url(#clip702)" style="stroke:#000000; stroke-linecap:round; stroke-linejoin:round; stroke-width:2; stroke-opacity:0.1; fill:none" points="1227.45,1486.45 1227.45,47.2441 "/>
<polyline clip-path="url(#clip702)" style="stroke:#000000; stroke-linecap:round; stroke-linejoin:round; stroke-width:2; stroke-opacity:0.1; fill:none" points="1551.59,1486.45 1551.59,47.2441 "/>
<polyline clip-path="url(#clip702)" style="stroke:#000000; stroke-linecap:round; stroke-linejoin:round; stroke-width:2; stroke-opacity:0.1; fill:none" points="1875.73,1486.45 1875.73,47.2441 "/>
<polyline clip-path="url(#clip702)" style="stroke:#000000; stroke-linecap:round; stroke-linejoin:round; stroke-width:2; stroke-opacity:0.1; fill:none" points="2199.87,1486.45 2199.87,47.2441 "/>
<polyline clip-path="url(#clip702)" style="stroke:#000000; stroke-linecap:round; stroke-linejoin:round; stroke-width:2; stroke-opacity:0.1; fill:none" points="193.936,1316.69 2352.76,1316.69 "/>
<polyline clip-path="url(#clip702)" style="stroke:#000000; stroke-linecap:round; stroke-linejoin:round; stroke-width:2; stroke-opacity:0.1; fill:none" points="193.936,1064.64 2352.76,1064.64 "/>
<polyline clip-path="url(#clip702)" style="stroke:#000000; stroke-linecap:round; stroke-linejoin:round; stroke-width:2; stroke-opacity:0.1; fill:none" points="193.936,812.585 2352.76,812.585 "/>
<polyline clip-path="url(#clip702)" style="stroke:#000000; stroke-linecap:round; stroke-linejoin:round; stroke-width:2; stroke-opacity:0.1; fill:none" points="193.936,560.533 2352.76,560.533 "/>
<polyline clip-path="url(#clip702)" style="stroke:#000000; stroke-linecap:round; stroke-linejoin:round; stroke-width:2; stroke-opacity:0.1; fill:none" points="193.936,308.482 2352.76,308.482 "/>
<polyline clip-path="url(#clip702)" style="stroke:#000000; stroke-linecap:round; stroke-linejoin:round; stroke-width:2; stroke-opacity:0.1; fill:none" points="193.936,56.4299 2352.76,56.4299 "/>
<polyline clip-path="url(#clip700)" style="stroke:#000000; stroke-linecap:round; stroke-linejoin:round; stroke-width:4; stroke-opacity:1; fill:none" points="193.936,1486.45 2352.76,1486.45 "/>
<polyline clip-path="url(#clip700)" style="stroke:#000000; stroke-linecap:round; stroke-linejoin:round; stroke-width:4; stroke-opacity:1; fill:none" points="255.035,1486.45 255.035,1467.55 "/>
<polyline clip-path="url(#clip700)" style="stroke:#000000; stroke-linecap:round; stroke-linejoin:round; stroke-width:4; stroke-opacity:1; fill:none" points="579.173,1486.45 579.173,1467.55 "/>
<polyline clip-path="url(#clip700)" style="stroke:#000000; stroke-linecap:round; stroke-linejoin:round; stroke-width:4; stroke-opacity:1; fill:none" points="903.312,1486.45 903.312,1467.55 "/>
<polyline clip-path="url(#clip700)" style="stroke:#000000; stroke-linecap:round; stroke-linejoin:round; stroke-width:4; stroke-opacity:1; fill:none" points="1227.45,1486.45 1227.45,1467.55 "/>
<polyline clip-path="url(#clip700)" style="stroke:#000000; stroke-linecap:round; stroke-linejoin:round; stroke-width:4; stroke-opacity:1; fill:none" points="1551.59,1486.45 1551.59,1467.55 "/>
<polyline clip-path="url(#clip700)" style="stroke:#000000; stroke-linecap:round; stroke-linejoin:round; stroke-width:4; stroke-opacity:1; fill:none" points="1875.73,1486.45 1875.73,1467.55 "/>
<polyline clip-path="url(#clip700)" style="stroke:#000000; stroke-linecap:round; stroke-linejoin:round; stroke-width:4; stroke-opacity:1; fill:none" points="2199.87,1486.45 2199.87,1467.55 "/>
<path clip-path="url(#clip700)" d="M255.035 1517.37 Q251.424 1517.37 249.595 1520.93 Q247.789 1524.47 247.789 1531.6 Q247.789 1538.71 249.595 1542.27 Q251.424 1545.82 255.035 1545.82 Q258.669 1545.82 260.474 1542.27 Q262.303 1538.71 262.303 1531.6 Q262.303 1524.47 260.474 1520.93 Q258.669 1517.37 255.035 1517.37 M255.035 1513.66 Q260.845 1513.66 263.9 1518.27 Q266.979 1522.85 266.979 1531.6 Q266.979 1540.33 263.9 1544.94 Q260.845 1549.52 255.035 1549.52 Q249.225 1549.52 246.146 1544.94 Q243.09 1540.33 243.09 1531.6 Q243.09 1522.85 246.146 1518.27 Q249.225 1513.66 255.035 1513.66 Z" fill="#000000" fill-rule="nonzero" fill-opacity="1" /><path clip-path="url(#clip700)" d="M569.555 1544.91 L577.194 1544.91 L577.194 1518.55 L568.884 1520.21 L568.884 1515.95 L577.148 1514.29 L581.824 1514.29 L581.824 1544.91 L589.463 1544.91 L589.463 1548.85 L569.555 1548.85 L569.555 1544.91 Z" fill="#000000" fill-rule="nonzero" fill-opacity="1" /><path clip-path="url(#clip700)" d="M897.965 1544.91 L914.284 1544.91 L914.284 1548.85 L892.34 1548.85 L892.34 1544.91 Q895.002 1542.16 899.585 1537.53 Q904.191 1532.88 905.372 1531.53 Q907.617 1529.01 908.497 1527.27 Q909.4 1525.51 909.4 1523.82 Q909.4 1521.07 907.455 1519.33 Q905.534 1517.6 902.432 1517.6 Q900.233 1517.6 897.779 1518.36 Q895.349 1519.13 892.571 1520.68 L892.571 1515.95 Q895.395 1514.82 897.849 1514.24 Q900.303 1513.66 902.34 1513.66 Q907.71 1513.66 910.904 1516.35 Q914.099 1519.03 914.099 1523.52 Q914.099 1525.65 913.289 1527.57 Q912.502 1529.47 910.395 1532.07 Q909.816 1532.74 906.715 1535.95 Q903.613 1539.15 897.965 1544.91 Z" fill="#000000" fill-rule="nonzero" fill-opacity="1" /><path clip-path="url(#clip700)" d="M1231.7 1530.21 Q1235.05 1530.93 1236.93 1533.2 Q1238.83 1535.47 1238.83 1538.8 Q1238.83 1543.92 1235.31 1546.72 Q1231.79 1549.52 1225.31 1549.52 Q1223.13 1549.52 1220.82 1549.08 Q1218.53 1548.66 1216.07 1547.81 L1216.07 1543.29 Q1218.02 1544.43 1220.33 1545.01 Q1222.65 1545.58 1225.17 1545.58 Q1229.57 1545.58 1231.86 1543.85 Q1234.17 1542.11 1234.17 1538.8 Q1234.17 1535.75 1232.02 1534.03 Q1229.89 1532.3 1226.07 1532.3 L1222.05 1532.3 L1222.05 1528.45 L1226.26 1528.45 Q1229.71 1528.45 1231.54 1527.09 Q1233.36 1525.7 1233.36 1523.11 Q1233.36 1520.45 1231.47 1519.03 Q1229.59 1517.6 1226.07 1517.6 Q1224.15 1517.6 1221.95 1518.01 Q1219.75 1518.43 1217.11 1519.31 L1217.11 1515.14 Q1219.78 1514.4 1222.09 1514.03 Q1224.43 1513.66 1226.49 1513.66 Q1231.81 1513.66 1234.92 1516.09 Q1238.02 1518.5 1238.02 1522.62 Q1238.02 1525.49 1236.37 1527.48 Q1234.73 1529.45 1231.7 1530.21 Z" fill="#000000" fill-rule="nonzero" fill-opacity="1" /><path clip-path="url(#clip700)" d="M1554.6 1518.36 L1542.79 1536.81 L1554.6 1536.81 L1554.6 1518.36 M1553.37 1514.29 L1559.25 1514.29 L1559.25 1536.81 L1564.18 1536.81 L1564.18 1540.7 L1559.25 1540.7 L1559.25 1548.85 L1554.6 1548.85 L1554.6 1540.7 L1539 1540.7 L1539 1536.19 L1553.37 1514.29 Z" fill="#000000" fill-rule="nonzero" fill-opacity="1" /><path clip-path="url(#clip700)" d="M1866.01 1514.29 L1884.36 1514.29 L1884.36 1518.22 L1870.29 1518.22 L1870.29 1526.7 Q1871.31 1526.35 1872.32 1526.19 Q1873.34 1526 1874.36 1526 Q1880.15 1526 1883.53 1529.17 Q1886.91 1532.34 1886.91 1537.76 Q1886.91 1543.34 1883.44 1546.44 Q1879.96 1549.52 1873.64 1549.52 Q1871.47 1549.52 1869.2 1549.15 Q1866.95 1548.78 1864.55 1548.04 L1864.55 1543.34 Q1866.63 1544.47 1868.85 1545.03 Q1871.07 1545.58 1873.55 1545.58 Q1877.56 1545.58 1879.89 1543.48 Q1882.23 1541.37 1882.23 1537.76 Q1882.23 1534.15 1879.89 1532.04 Q1877.56 1529.94 1873.55 1529.94 Q1871.68 1529.94 1869.8 1530.35 Q1867.95 1530.77 1866.01 1531.65 L1866.01 1514.29 Z" fill="#000000" fill-rule="nonzero" fill-opacity="1" /><path clip-path="url(#clip700)" d="M2200.27 1529.7 Q2197.12 1529.7 2195.27 1531.86 Q2193.44 1534.01 2193.44 1537.76 Q2193.44 1541.49 2195.27 1543.66 Q2197.12 1545.82 2200.27 1545.82 Q2203.42 1545.82 2205.25 1543.66 Q2207.1 1541.49 2207.1 1537.76 Q2207.1 1534.01 2205.25 1531.86 Q2203.42 1529.7 2200.27 1529.7 M2209.55 1515.05 L2209.55 1519.31 Q2207.79 1518.48 2205.99 1518.04 Q2204.21 1517.6 2202.45 1517.6 Q2197.82 1517.6 2195.36 1520.72 Q2192.93 1523.85 2192.59 1530.17 Q2193.95 1528.15 2196.01 1527.09 Q2198.07 1526 2200.55 1526 Q2205.76 1526 2208.77 1529.17 Q2211.8 1532.32 2211.8 1537.76 Q2211.8 1543.08 2208.65 1546.3 Q2205.5 1549.52 2200.27 1549.52 Q2194.28 1549.52 2191.1 1544.94 Q2187.93 1540.33 2187.93 1531.6 Q2187.93 1523.41 2191.82 1518.55 Q2195.71 1513.66 2202.26 1513.66 Q2204.02 1513.66 2205.8 1514.01 Q2207.61 1514.36 2209.55 1515.05 Z" fill="#000000" fill-rule="nonzero" fill-opacity="1" /><polyline clip-path="url(#clip700)" style="stroke:#000000; stroke-linecap:round; stroke-linejoin:round; stroke-width:4; stroke-opacity:1; fill:none" points="193.936,1486.45 193.936,47.2441 "/>
<polyline clip-path="url(#clip700)" style="stroke:#000000; stroke-linecap:round; stroke-linejoin:round; stroke-width:4; stroke-opacity:1; fill:none" points="193.936,1316.69 212.834,1316.69 "/>
<polyline clip-path="url(#clip700)" style="stroke:#000000; stroke-linecap:round; stroke-linejoin:round; stroke-width:4; stroke-opacity:1; fill:none" points="193.936,1064.64 212.834,1064.64 "/>
<polyline clip-path="url(#clip700)" style="stroke:#000000; stroke-linecap:round; stroke-linejoin:round; stroke-width:4; stroke-opacity:1; fill:none" points="193.936,812.585 212.834,812.585 "/>
<polyline clip-path="url(#clip700)" style="stroke:#000000; stroke-linecap:round; stroke-linejoin:round; stroke-width:4; stroke-opacity:1; fill:none" points="193.936,560.533 212.834,560.533 "/>
<polyline clip-path="url(#clip700)" style="stroke:#000000; stroke-linecap:round; stroke-linejoin:round; stroke-width:4; stroke-opacity:1; fill:none" points="193.936,308.482 212.834,308.482 "/>
<polyline clip-path="url(#clip700)" style="stroke:#000000; stroke-linecap:round; stroke-linejoin:round; stroke-width:4; stroke-opacity:1; fill:none" points="193.936,56.4299 212.834,56.4299 "/>
<path clip-path="url(#clip700)" d="M50.9921 1317.14 L80.6679 1317.14 L80.6679 1321.07 L50.9921 1321.07 L50.9921 1317.14 Z" fill="#000000" fill-rule="nonzero" fill-opacity="1" /><path clip-path="url(#clip700)" d="M91.5706 1330.03 L99.2095 1330.03 L99.2095 1303.67 L90.8993 1305.33 L90.8993 1301.08 L99.1632 1299.41 L103.839 1299.41 L103.839 1330.03 L111.478 1330.03 L111.478 1333.97 L91.5706 1333.97 L91.5706 1330.03 Z" fill="#000000" fill-rule="nonzero" fill-opacity="1" /><path clip-path="url(#clip700)" d="M120.922 1328.09 L125.807 1328.09 L125.807 1333.97 L120.922 1333.97 L120.922 1328.09 Z" fill="#000000" fill-rule="nonzero" fill-opacity="1" /><path clip-path="url(#clip700)" d="M145.992 1302.49 Q142.381 1302.49 140.552 1306.05 Q138.746 1309.59 138.746 1316.72 Q138.746 1323.83 140.552 1327.39 Q142.381 1330.94 145.992 1330.94 Q149.626 1330.94 151.431 1327.39 Q153.26 1323.83 153.26 1316.72 Q153.26 1309.59 151.431 1306.05 Q149.626 1302.49 145.992 1302.49 M145.992 1298.78 Q151.802 1298.78 154.857 1303.39 Q157.936 1307.97 157.936 1316.72 Q157.936 1325.45 154.857 1330.06 Q151.802 1334.64 145.992 1334.64 Q140.181 1334.64 137.103 1330.06 Q134.047 1325.45 134.047 1316.72 Q134.047 1307.97 137.103 1303.39 Q140.181 1298.78 145.992 1298.78 Z" fill="#000000" fill-rule="nonzero" fill-opacity="1" /><path clip-path="url(#clip700)" d="M51.9875 1065.09 L81.6633 1065.09 L81.6633 1069.02 L51.9875 1069.02 L51.9875 1065.09 Z" fill="#000000" fill-rule="nonzero" fill-opacity="1" /><path clip-path="url(#clip700)" d="M101.756 1050.44 Q98.1447 1050.44 96.316 1054 Q94.5104 1057.54 94.5104 1064.67 Q94.5104 1071.78 96.316 1075.34 Q98.1447 1078.88 101.756 1078.88 Q105.39 1078.88 107.196 1075.34 Q109.024 1071.78 109.024 1064.67 Q109.024 1057.54 107.196 1054 Q105.39 1050.44 101.756 1050.44 M101.756 1046.73 Q107.566 1046.73 110.621 1051.34 Q113.7 1055.92 113.7 1064.67 Q113.7 1073.4 110.621 1078 Q107.566 1082.59 101.756 1082.59 Q95.9456 1082.59 92.8669 1078 Q89.8114 1073.4 89.8114 1064.67 Q89.8114 1055.92 92.8669 1051.34 Q95.9456 1046.73 101.756 1046.73 Z" fill="#000000" fill-rule="nonzero" fill-opacity="1" /><path clip-path="url(#clip700)" d="M121.918 1076.04 L126.802 1076.04 L126.802 1081.92 L121.918 1081.92 L121.918 1076.04 Z" fill="#000000" fill-rule="nonzero" fill-opacity="1" /><path clip-path="url(#clip700)" d="M137.033 1047.36 L155.39 1047.36 L155.39 1051.29 L141.316 1051.29 L141.316 1059.76 Q142.334 1059.42 143.353 1059.25 Q144.371 1059.07 145.39 1059.07 Q151.177 1059.07 154.556 1062.24 Q157.936 1065.41 157.936 1070.83 Q157.936 1076.41 154.464 1079.51 Q150.992 1082.59 144.672 1082.59 Q142.496 1082.59 140.228 1082.22 Q137.982 1081.85 135.575 1081.11 L135.575 1076.41 Q137.658 1077.54 139.881 1078.1 Q142.103 1078.65 144.58 1078.65 Q148.584 1078.65 150.922 1076.55 Q153.26 1074.44 153.26 1070.83 Q153.26 1067.22 150.922 1065.11 Q148.584 1063 144.58 1063 Q142.705 1063 140.83 1063.42 Q138.978 1063.84 137.033 1064.72 L137.033 1047.36 Z" fill="#000000" fill-rule="nonzero" fill-opacity="1" /><path clip-path="url(#clip700)" d="M100.76 798.384 Q97.1493 798.384 95.3206 801.949 Q93.515 805.49 93.515 812.62 Q93.515 819.726 95.3206 823.291 Q97.1493 826.833 100.76 826.833 Q104.395 826.833 106.2 823.291 Q108.029 819.726 108.029 812.62 Q108.029 805.49 106.2 801.949 Q104.395 798.384 100.76 798.384 M100.76 794.68 Q106.571 794.68 109.626 799.286 Q112.705 803.87 112.705 812.62 Q112.705 821.347 109.626 825.953 Q106.571 830.536 100.76 830.536 Q94.9502 830.536 91.8715 825.953 Q88.816 821.347 88.816 812.62 Q88.816 803.87 91.8715 799.286 Q94.9502 794.68 100.76 794.68 Z" fill="#000000" fill-rule="nonzero" fill-opacity="1" /><path clip-path="url(#clip700)" d="M120.922 823.985 L125.807 823.985 L125.807 829.865 L120.922 829.865 L120.922 823.985 Z" fill="#000000" fill-rule="nonzero" fill-opacity="1" /><path clip-path="url(#clip700)" d="M145.992 798.384 Q142.381 798.384 140.552 801.949 Q138.746 805.49 138.746 812.62 Q138.746 819.726 140.552 823.291 Q142.381 826.833 145.992 826.833 Q149.626 826.833 151.431 823.291 Q153.26 819.726 153.26 812.62 Q153.26 805.49 151.431 801.949 Q149.626 798.384 145.992 798.384 M145.992 794.68 Q151.802 794.68 154.857 799.286 Q157.936 803.87 157.936 812.62 Q157.936 821.347 154.857 825.953 Q151.802 830.536 145.992 830.536 Q140.181 830.536 137.103 825.953 Q134.047 821.347 134.047 812.62 Q134.047 803.87 137.103 799.286 Q140.181 794.68 145.992 794.68 Z" fill="#000000" fill-rule="nonzero" fill-opacity="1" /><path clip-path="url(#clip700)" d="M101.756 546.332 Q98.1447 546.332 96.316 549.897 Q94.5104 553.438 94.5104 560.568 Q94.5104 567.674 96.316 571.239 Q98.1447 574.781 101.756 574.781 Q105.39 574.781 107.196 571.239 Q109.024 567.674 109.024 560.568 Q109.024 553.438 107.196 549.897 Q105.39 546.332 101.756 546.332 M101.756 542.628 Q107.566 542.628 110.621 547.235 Q113.7 551.818 113.7 560.568 Q113.7 569.295 110.621 573.901 Q107.566 578.485 101.756 578.485 Q95.9456 578.485 92.8669 573.901 Q89.8114 569.295 89.8114 560.568 Q89.8114 551.818 92.8669 547.235 Q95.9456 542.628 101.756 542.628 Z" fill="#000000" fill-rule="nonzero" fill-opacity="1" /><path clip-path="url(#clip700)" d="M121.918 571.934 L126.802 571.934 L126.802 577.813 L121.918 577.813 L121.918 571.934 Z" fill="#000000" fill-rule="nonzero" fill-opacity="1" /><path clip-path="url(#clip700)" d="M137.033 543.253 L155.39 543.253 L155.39 547.188 L141.316 547.188 L141.316 555.661 Q142.334 555.313 143.353 555.151 Q144.371 554.966 145.39 554.966 Q151.177 554.966 154.556 558.138 Q157.936 561.309 157.936 566.725 Q157.936 572.304 154.464 575.406 Q150.992 578.485 144.672 578.485 Q142.496 578.485 140.228 578.114 Q137.982 577.744 135.575 577.003 L135.575 572.304 Q137.658 573.438 139.881 573.994 Q142.103 574.549 144.58 574.549 Q148.584 574.549 150.922 572.443 Q153.26 570.337 153.26 566.725 Q153.26 563.114 150.922 561.008 Q148.584 558.901 144.58 558.901 Q142.705 558.901 140.83 559.318 Q138.978 559.735 137.033 560.614 L137.033 543.253 Z" fill="#000000" fill-rule="nonzero" fill-opacity="1" /><path clip-path="url(#clip700)" d="M91.5706 321.826 L99.2095 321.826 L99.2095 295.461 L90.8993 297.128 L90.8993 292.868 L99.1632 291.202 L103.839 291.202 L103.839 321.826 L111.478 321.826 L111.478 325.762 L91.5706 325.762 L91.5706 321.826 Z" fill="#000000" fill-rule="nonzero" fill-opacity="1" /><path clip-path="url(#clip700)" d="M120.922 319.882 L125.807 319.882 L125.807 325.762 L120.922 325.762 L120.922 319.882 Z" fill="#000000" fill-rule="nonzero" fill-opacity="1" /><path clip-path="url(#clip700)" d="M145.992 294.28 Q142.381 294.28 140.552 297.845 Q138.746 301.387 138.746 308.516 Q138.746 315.623 140.552 319.188 Q142.381 322.729 145.992 322.729 Q149.626 322.729 151.431 319.188 Q153.26 315.623 153.26 308.516 Q153.26 301.387 151.431 297.845 Q149.626 294.28 145.992 294.28 M145.992 290.577 Q151.802 290.577 154.857 295.183 Q157.936 299.766 157.936 308.516 Q157.936 317.243 154.857 321.85 Q151.802 326.433 145.992 326.433 Q140.181 326.433 137.103 321.85 Q134.047 317.243 134.047 308.516 Q134.047 299.766 137.103 295.183 Q140.181 290.577 145.992 290.577 Z" fill="#000000" fill-rule="nonzero" fill-opacity="1" /><path clip-path="url(#clip700)" d="M92.566 69.7748 L100.205 69.7748 L100.205 43.4092 L91.8947 45.0758 L91.8947 40.8166 L100.159 39.1499 L104.834 39.1499 L104.834 69.7748 L112.473 69.7748 L112.473 73.7099 L92.566 73.7099 L92.566 69.7748 Z" fill="#000000" fill-rule="nonzero" fill-opacity="1" /><path clip-path="url(#clip700)" d="M121.918 67.8303 L126.802 67.8303 L126.802 73.7099 L121.918 73.7099 L121.918 67.8303 Z" fill="#000000" fill-rule="nonzero" fill-opacity="1" /><path clip-path="url(#clip700)" d="M137.033 39.1499 L155.39 39.1499 L155.39 43.0851 L141.316 43.0851 L141.316 51.5573 Q142.334 51.21 143.353 51.048 Q144.371 50.8628 145.39 50.8628 Q151.177 50.8628 154.556 54.0341 Q157.936 57.2054 157.936 62.622 Q157.936 68.2007 154.464 71.3025 Q150.992 74.3812 144.672 74.3812 Q142.496 74.3812 140.228 74.0109 Q137.982 73.6405 135.575 72.8997 L135.575 68.2007 Q137.658 69.335 139.881 69.8905 Q142.103 70.4461 144.58 70.4461 Q148.584 70.4461 150.922 68.3396 Q153.26 66.2331 153.26 62.622 Q153.26 59.0109 150.922 56.9045 Q148.584 54.798 144.58 54.798 Q142.705 54.798 140.83 55.2147 Q138.978 55.6313 137.033 56.5109 L137.033 39.1499 Z" fill="#000000" fill-rule="nonzero" fill-opacity="1" /><polyline clip-path="url(#clip702)" style="stroke:#009af9; stroke-linecap:round; stroke-linejoin:round; stroke-width:4; stroke-opacity:1; fill:none" points="255.035,812.585 258.276,807.544 261.517,802.504 264.759,797.464 268,792.426 271.242,787.39 274.483,782.357 277.724,777.327 280.966,772.3 284.207,767.277 287.449,762.259 290.69,757.245 293.931,752.238 297.173,747.236 300.414,742.241 303.655,737.253 306.897,732.272 310.138,727.3 313.38,722.336 316.621,717.381 319.862,712.435 323.104,707.5 326.345,702.575 329.587,697.661 332.828,692.758 336.069,687.868 339.311,682.99 342.552,678.125 345.793,673.273 349.035,668.436 352.276,663.612 355.518,658.804 358.759,654.011 362,649.234 365.242,644.473 368.483,639.729 371.725,635.002 374.966,630.293 378.207,625.603 381.449,620.931 384.69,616.278 387.931,611.645 391.173,607.032 394.414,602.439 397.656,597.868 400.897,593.317 404.138,588.789 407.38,584.284 410.621,579.801 413.863,575.341 417.104,570.905 420.345,566.493 423.587,562.106 426.828,557.744 430.069,553.407 433.311,549.097 436.552,544.812 439.794,540.555 443.035,536.324 446.276,532.122 449.518,527.947 452.759,523.801 456.001,519.683 459.242,515.595 462.483,511.537 465.725,507.509 468.966,503.511 472.208,499.544 475.449,495.608 478.69,491.704 481.932,487.833 485.173,483.993 488.414,480.187 491.656,476.414 494.897,472.674 498.139,468.969 501.38,465.297 504.621,461.661 507.863,458.059 511.104,454.494 514.346,450.963 517.587,447.469 520.828,444.012 524.07,440.591 527.311,437.208 530.552,433.862 533.794,430.554 537.035,427.284 540.277,424.053 543.518,420.861 546.759,417.707 550.001,414.594 553.242,411.52 556.484,408.486 559.725,405.492 562.966,402.54 566.208,399.628 569.449,396.757 572.69,393.928 575.932,391.141 579.173,388.397 582.415,385.694 585.656,383.034 588.897,380.418 592.139,377.844 595.38,375.314 598.622,372.828 601.863,370.385 605.104,367.987 608.346,365.633 611.587,363.324 614.828,361.06 618.07,358.841 621.311,356.668 624.553,354.54 627.794,352.458 631.035,350.421 634.277,348.432 637.518,346.488 640.76,344.591 644.001,342.741 647.242,340.938 650.484,339.182 653.725,337.473 656.966,335.812 660.208,334.199 663.449,332.633 666.691,331.115 669.932,329.646 673.173,328.225 676.415,326.852 679.656,325.528 682.898,324.252 686.139,323.026 689.38,321.848 692.622,320.72 695.863,319.64 699.104,318.61 702.346,317.629 705.587,316.698 708.829,315.816 712.07,314.985 715.311,314.202 718.553,313.47 721.794,312.788 725.036,312.155 728.277,311.573 731.518,311.04 734.76,310.558 738.001,310.126 741.242,309.744 744.484,309.413 747.725,309.132 750.967,308.901 754.208,308.721 757.449,308.591 760.691,308.511 763.932,308.482 767.174,308.503 770.415,308.575 773.656,308.697 776.898,308.869 780.139,309.092 783.381,309.365 786.622,309.688 789.863,310.062 793.105,310.486 796.346,310.96 799.587,311.484 802.829,312.059 806.07,312.683 809.312,313.358 812.553,314.082 815.794,314.857 819.036,315.681 822.277,316.554 825.519,317.478 828.76,318.451 832.001,319.473 835.243,320.544 838.484,321.665 841.725,322.835 844.967,324.054 848.208,325.322 851.45,326.638 854.691,328.003 857.932,329.416 861.174,330.878 864.415,332.388 867.657,333.946 870.898,335.552 874.139,337.205 877.381,338.907 880.622,340.655 883.863,342.451 887.105,344.293 890.346,346.183 893.588,348.119 896.829,350.101 900.07,352.13 903.312,354.205 906.553,356.326 909.795,358.492 913.036,360.704 916.277,362.961 919.519,365.263 922.76,367.609 926.001,370 929.243,372.436 932.484,374.915 935.726,377.438 938.967,380.005 942.208,382.615 945.45,385.268 948.691,387.963 951.933,390.702 955.174,393.482 958.415,396.304 961.657,399.168 964.898,402.073 968.139,405.019 971.381,408.006 974.622,411.034 977.864,414.101 981.105,417.209 984.346,420.356 987.588,423.542 990.829,426.767 994.071,430.031 997.312,433.333 1000.55,436.672 1003.79,440.05 1007.04,443.465 1010.28,446.916 1013.52,450.404 1016.76,453.929 1020,457.489 1023.24,461.085 1026.48,464.716 1029.73,468.382 1032.97,472.082 1036.21,475.816 1039.45,479.584 1042.69,483.385 1045.93,487.219 1049.17,491.086 1052.42,494.984 1055.66,498.915 1058.9,502.877 1062.14,506.87 1065.38,510.893 1068.62,514.947 1071.86,519.03 1075.11,523.143 1078.35,527.285 1081.59,531.455 1084.83,535.653 1088.07,539.879 1091.31,544.132 1094.55,548.412 1097.79,552.719 1101.04,557.052 1104.28,561.41 1107.52,565.793 1110.76,570.201 1114,574.633 1117.24,579.089 1120.48,583.568 1123.73,588.07 1126.97,592.595 1130.21,597.141 1133.45,601.71 1136.69,606.299 1139.93,610.909 1143.17,615.539 1146.42,620.188 1149.66,624.857 1152.9,629.545 1156.14,634.251 1159.38,638.975 1162.62,643.716 1165.86,648.475 1169.11,653.249 1172.35,658.04 1175.59,662.845 1178.83,667.666 1182.07,672.502 1185.31,677.351 1188.55,682.214 1191.8,687.09 1195.04,691.979 1198.28,696.879 1201.52,701.791 1204.76,706.715 1208,711.648 1211.24,716.592 1214.48,721.546 1217.73,726.508 1220.97,731.48 1224.21,736.459 1227.45,741.446 1230.69,746.44 1233.93,751.441 1237.17,756.447 1240.42,761.46 1243.66,766.477 1246.9,771.5 1250.14,776.526 1253.38,781.556 1256.62,786.589 1259.86,791.624 1263.11,796.662 1266.35,801.701 1269.59,806.741 1272.83,811.782 1276.07,816.823 1279.31,821.864 1282.55,826.903 1285.8,831.942 1289.04,836.978 1292.28,842.012 1295.52,847.043 1298.76,852.07 1302,857.093 1305.24,862.112 1308.48,867.127 1311.73,872.135 1314.97,877.138 1318.21,882.134 1321.45,887.123 1324.69,892.105 1327.93,897.079 1331.17,902.044 1334.42,907.001 1337.66,911.948 1340.9,916.885 1344.14,921.812 1347.38,926.727 1350.62,931.632 1353.86,936.524 1357.11,941.404 1360.35,946.271 1363.59,951.125 1366.83,955.965 1370.07,960.791 1373.31,965.601 1376.55,970.397 1379.8,975.176 1383.04,979.94 1386.28,984.687 1389.52,989.416 1392.76,994.128 1396,998.821 1399.24,1003.5 1402.49,1008.15 1405.73,1012.79 1408.97,1017.41 1412.21,1022 1415.45,1026.58 1418.69,1031.13 1421.93,1035.66 1425.17,1040.17 1428.42,1044.66 1431.66,1049.12 1434.9,1053.56 1438.14,1057.98 1441.38,1062.37 1444.62,1066.73 1447.86,1071.07 1451.11,1075.39 1454.35,1079.68 1457.59,1083.94 1460.83,1088.17 1464.07,1092.38 1467.31,1096.56 1470.55,1100.71 1473.8,1104.83 1477.04,1108.93 1480.28,1112.99 1483.52,1117.02 1486.76,1121.02 1490,1125 1493.24,1128.94 1496.49,1132.85 1499.73,1136.72 1502.97,1140.57 1506.21,1144.38 1509.45,1148.16 1512.69,1151.9 1515.93,1155.61 1519.18,1159.29 1522.42,1162.93 1525.66,1166.54 1528.9,1170.11 1532.14,1173.65 1535.38,1177.15 1538.62,1180.61 1541.86,1184.04 1545.11,1187.43 1548.35,1190.78 1551.59,1194.09 1554.83,1197.37 1558.07,1200.61 1561.31,1203.8 1564.55,1206.96 1567.8,1210.08 1571.04,1213.16 1574.28,1216.2 1577.52,1219.2 1580.76,1222.16 1584,1225.08 1587.24,1227.96 1590.49,1230.79 1593.73,1233.59 1596.97,1236.34 1600.21,1239.05 1603.45,1241.71 1606.69,1244.34 1609.93,1246.92 1613.18,1249.46 1616.42,1251.95 1619.66,1254.4 1622.9,1256.8 1626.14,1259.16 1629.38,1261.48 1632.62,1263.75 1635.86,1265.98 1639.11,1268.16 1642.35,1270.29 1645.59,1272.38 1648.83,1274.43 1652.07,1276.42 1655.31,1278.38 1658.55,1280.28 1661.8,1282.14 1665.04,1283.95 1668.28,1285.71 1671.52,1287.43 1674.76,1289.1 1678,1290.72 1681.24,1292.29 1684.49,1293.82 1687.73,1295.29 1690.97,1296.72 1694.21,1298.1 1697.45,1299.43 1700.69,1300.72 1703.93,1301.95 1707.18,1303.14 1710.42,1304.27 1713.66,1305.36 1716.9,1306.4 1720.14,1307.39 1723.38,1308.33 1726.62,1309.22 1729.87,1310.06 1733.11,1310.85 1736.35,1311.59 1739.59,1312.28 1742.83,1312.92 1746.07,1313.51 1749.31,1314.05 1752.55,1314.54 1755.8,1314.98 1759.04,1315.37 1762.28,1315.71 1765.52,1316 1768.76,1316.24 1772,1316.42 1775.24,1316.56 1778.49,1316.65 1781.73,1316.69 1784.97,1316.67 1788.21,1316.61 1791.45,1316.5 1794.69,1316.33 1797.93,1316.12 1801.18,1315.85 1804.42,1315.54 1807.66,1315.17 1810.9,1314.76 1814.14,1314.29 1817.38,1313.77 1820.62,1313.21 1823.87,1312.59 1827.11,1311.92 1830.35,1311.21 1833.59,1310.44 1836.83,1309.62 1840.07,1308.76 1843.31,1307.84 1846.55,1306.88 1849.8,1305.86 1853.04,1304.8 1856.28,1303.69 1859.52,1302.52 1862.76,1301.31 1866,1300.05 1869.24,1298.75 1872.49,1297.39 1875.73,1295.98 1878.97,1294.53 1882.21,1293.03 1885.45,1291.48 1888.69,1289.88 1891.93,1288.23 1895.18,1286.54 1898.42,1284.8 1901.66,1283.01 1904.9,1281.17 1908.14,1279.29 1911.38,1277.36 1914.62,1275.39 1917.87,1273.37 1921.11,1271.3 1924.35,1269.19 1927.59,1267.03 1930.83,1264.82 1934.07,1262.57 1937.31,1260.28 1940.56,1257.94 1943.8,1255.55 1947.04,1253.13 1950.28,1250.65 1953.52,1248.14 1956.76,1245.58 1960,1242.97 1963.24,1240.33 1966.49,1237.64 1969.73,1234.91 1972.97,1232.13 1976.21,1229.32 1979.45,1226.46 1982.69,1223.56 1985.93,1220.62 1989.18,1217.64 1992.42,1214.62 1995.66,1211.56 1998.9,1208.46 2002.14,1205.32 2005.38,1202.14 2008.62,1198.92 2011.87,1195.66 2015.11,1192.37 2018.35,1189.03 2021.59,1185.66 2024.83,1182.25 2028.07,1178.81 2031.31,1175.32 2034.56,1171.8 2037.8,1168.25 2041.04,1164.66 2044.28,1161.03 2047.52,1157.37 2050.76,1153.68 2054,1149.95 2057.24,1146.19 2060.49,1142.39 2063.73,1138.56 2066.97,1134.7 2070.21,1130.81 2073.45,1126.88 2076.69,1122.93 2079.93,1118.94 2083.18,1114.92 2086.42,1110.87 2089.66,1106.79 2092.9,1102.68 2096.14,1098.55 2099.38,1094.38 2102.62,1090.19 2105.87,1085.97 2109.11,1081.72 2112.35,1077.44 2115.59,1073.14 2118.83,1068.81 2122.07,1064.46 2125.31,1060.08 2128.56,1055.67 2131.8,1051.24 2135.04,1046.79 2138.28,1042.32 2141.52,1037.82 2144.76,1033.3 2148,1028.75 2151.25,1024.19 2154.49,1019.6 2157.73,1015 2160.97,1010.37 2164.21,1005.72 2167.45,1001.06 2170.69,996.373 2173.93,991.67 2177.18,986.948 2180.42,982.21 2183.66,977.454 2186.9,972.683 2190.14,967.895 2193.38,963.091 2196.62,958.272 2199.87,953.439 2203.11,948.592 2206.35,943.731 2209.59,938.857 2212.83,933.971 2216.07,929.072 2219.31,924.162 2222.56,919.24 2225.8,914.308 2229.04,909.366 2232.28,904.414 2235.52,899.453 2238.76,894.483 2242,889.505 2245.25,884.519 2248.49,879.526 2251.73,874.526 2254.97,869.52 2258.21,864.509 2261.45,859.492 2264.69,854.471 2267.94,849.445 2271.18,844.416 2274.42,839.383 2277.66,834.348 2280.9,829.311 2284.14,824.272 2287.38,819.232 2290.62,814.191 "/>
<circle clip-path="url(#clip702)" cx="1836.83" cy="1336.89" r="14.4" fill="#e26f46" fill-rule="evenodd" fill-opacity="1" stroke="#000000" stroke-opacity="1" stroke-width="3.2"/>
<circle clip-path="url(#clip702)" cx="1697.45" cy="1251.14" r="14.4" fill="#e26f46" fill-rule="evenodd" fill-opacity="1" stroke="#000000" stroke-opacity="1" stroke-width="3.2"/>
<circle clip-path="url(#clip702)" cx="316.621" cy="718.755" r="14.4" fill="#e26f46" fill-rule="evenodd" fill-opacity="1" stroke="#000000" stroke-opacity="1" stroke-width="3.2"/>
<circle clip-path="url(#clip702)" cx="1081.59" cy="546.183" r="14.4" fill="#e26f46" fill-rule="evenodd" fill-opacity="1" stroke="#000000" stroke-opacity="1" stroke-width="3.2"/>
<circle clip-path="url(#clip702)" cx="326.345" cy="662.789" r="14.4" fill="#e26f46" fill-rule="evenodd" fill-opacity="1" stroke="#000000" stroke-opacity="1" stroke-width="3.2"/>
<circle clip-path="url(#clip702)" cx="1376.55" cy="868.455" r="14.4" fill="#e26f46" fill-rule="evenodd" fill-opacity="1" stroke="#000000" stroke-opacity="1" stroke-width="3.2"/>
<circle clip-path="url(#clip702)" cx="511.104" cy="406.26" r="14.4" fill="#e26f46" fill-rule="evenodd" fill-opacity="1" stroke="#000000" stroke-opacity="1" stroke-width="3.2"/>
<circle clip-path="url(#clip702)" cx="1480.28" cy="1078.21" r="14.4" fill="#e26f46" fill-rule="evenodd" fill-opacity="1" stroke="#000000" stroke-opacity="1" stroke-width="3.2"/>
<circle clip-path="url(#clip702)" cx="1522.42" cy="1038.54" r="14.4" fill="#e26f46" fill-rule="evenodd" fill-opacity="1" stroke="#000000" stroke-opacity="1" stroke-width="3.2"/>
<circle clip-path="url(#clip702)" cx="893.588" cy="311.894" r="14.4" fill="#e26f46" fill-rule="evenodd" fill-opacity="1" stroke="#000000" stroke-opacity="1" stroke-width="3.2"/>
<circle clip-path="url(#clip702)" cx="1373.31" cy="945.494" r="14.4" fill="#e26f46" fill-rule="evenodd" fill-opacity="1" stroke="#000000" stroke-opacity="1" stroke-width="3.2"/>
<circle clip-path="url(#clip702)" cx="874.139" cy="251.337" r="14.4" fill="#e26f46" fill-rule="evenodd" fill-opacity="1" stroke="#000000" stroke-opacity="1" stroke-width="3.2"/>
<circle clip-path="url(#clip702)" cx="1551.59" cy="1201.5" r="14.4" fill="#e26f46" fill-rule="evenodd" fill-opacity="1" stroke="#000000" stroke-opacity="1" stroke-width="3.2"/>
<circle clip-path="url(#clip702)" cx="1853.04" cy="1259.87" r="14.4" fill="#e26f46" fill-rule="evenodd" fill-opacity="1" stroke="#000000" stroke-opacity="1" stroke-width="3.2"/>
<circle clip-path="url(#clip702)" cx="2232.28" cy="947.933" r="14.4" fill="#e26f46" fill-rule="evenodd" fill-opacity="1" stroke="#000000" stroke-opacity="1" stroke-width="3.2"/>
<circle clip-path="url(#clip702)" cx="2070.21" cy="1154.62" r="14.4" fill="#e26f46" fill-rule="evenodd" fill-opacity="1" stroke="#000000" stroke-opacity="1" stroke-width="3.2"/>
<circle clip-path="url(#clip702)" cx="336.069" cy="650.507" r="14.4" fill="#e26f46" fill-rule="evenodd" fill-opacity="1" stroke="#000000" stroke-opacity="1" stroke-width="3.2"/>
<circle clip-path="url(#clip702)" cx="371.725" cy="567.863" r="14.4" fill="#e26f46" fill-rule="evenodd" fill-opacity="1" stroke="#000000" stroke-opacity="1" stroke-width="3.2"/>
<circle clip-path="url(#clip702)" cx="1953.52" cy="1325.32" r="14.4" fill="#e26f46" fill-rule="evenodd" fill-opacity="1" stroke="#000000" stroke-opacity="1" stroke-width="3.2"/>
<circle clip-path="url(#clip702)" cx="280.966" cy="725.366" r="14.4" fill="#e26f46" fill-rule="evenodd" fill-opacity="1" stroke="#000000" stroke-opacity="1" stroke-width="3.2"/>
<path clip-path="url(#clip702)" d="M255.035 913.462 L258.276 907.293 L261.517 901.137 L264.759 895.006 L268 888.907 L271.242 882.854 L274.483 876.856 L277.724 870.926 L280.966 865.078 L284.207 859.324 L287.449 853.673 L290.69 848.131 L293.931 842.707 L297.173 837.41 L300.414 832.25 L303.655 827.236 L306.897 822.379 L310.138 817.691 L313.38 813.18 L316.621 808.86 L319.862 804.739 L323.104 800.824 L326.345 797.119 L329.587 793.627 L332.828 790.346 L336.069 787.273 L339.311 784.399 L342.552 781.716 L345.793 779.21 L349.035 776.869 L352.276 774.681 L355.518 772.636 L358.759 770.722 L362 768.93 L365.242 767.253 L368.483 765.681 L371.725 764.208 L374.966 762.828 L378.207 761.526 L381.449 760.289 L384.69 759.103 L387.931 757.957 L391.173 756.839 L394.414 755.741 L397.656 754.653 L400.897 753.567 L404.138 752.477 L407.38 751.376 L410.621 750.26 L413.863 749.124 L417.104 747.966 L420.345 746.782 L423.587 745.571 L426.828 744.331 L430.069 743.062 L433.311 741.765 L436.552 740.439 L439.794 739.087 L443.035 737.71 L446.276 736.311 L449.518 734.893 L452.759 733.459 L456.001 732.014 L459.242 730.561 L462.483 729.106 L465.725 727.654 L468.966 726.211 L472.208 724.783 L475.449 723.377 L478.69 721.999 L481.932 720.656 L485.173 719.357 L488.414 718.109 L491.656 716.92 L494.897 715.798 L498.139 714.752 L501.38 713.789 L504.621 712.919 L507.863 712.15 L511.104 711.491 L514.346 710.947 L517.587 710.513 L520.828 710.183 L524.07 709.948 L527.311 709.801 L530.552 709.734 L533.794 709.74 L537.035 709.812 L540.277 709.942 L543.518 710.123 L546.759 710.349 L550.001 710.613 L553.242 710.909 L556.484 711.23 L559.725 711.571 L562.966 711.926 L566.208 712.289 L569.449 712.654 L572.69 713.018 L575.932 713.375 L579.173 713.72 L582.415 714.049 L585.656 714.358 L588.897 714.643 L592.139 714.899 L595.38 715.124 L598.622 715.314 L601.863 715.466 L605.104 715.576 L608.346 715.641 L611.587 715.66 L614.828 715.629 L618.07 715.545 L621.311 715.407 L624.553 715.213 L627.794 714.959 L631.035 714.646 L634.277 714.27 L637.518 713.83 L640.76 713.324 L644.001 712.752 L647.242 712.112 L650.484 711.402 L653.725 710.622 L656.966 709.771 L660.208 708.848 L663.449 707.852 L666.691 706.783 L669.932 705.639 L673.173 704.421 L676.415 703.129 L679.656 701.761 L682.898 700.318 L686.139 698.8 L689.38 697.207 L692.622 695.54 L695.863 693.797 L699.104 691.98 L702.346 690.089 L705.587 688.125 L708.829 686.088 L712.07 683.979 L715.311 681.799 L718.553 679.549 L721.794 677.23 L725.036 674.843 L728.277 672.39 L731.518 669.872 L734.76 667.29 L738.001 664.647 L741.242 661.945 L744.484 659.184 L747.725 656.368 L750.967 653.499 L754.208 650.579 L757.449 647.611 L760.691 644.597 L763.932 641.542 L767.174 638.448 L770.415 635.318 L773.656 632.157 L776.898 628.968 L780.139 625.756 L783.381 622.525 L786.622 619.279 L789.863 616.024 L793.105 612.765 L796.346 609.508 L799.587 606.259 L802.829 603.025 L806.07 599.811 L809.312 596.626 L812.553 593.477 L815.794 590.371 L819.036 587.318 L822.277 584.327 L825.519 581.407 L828.76 578.568 L832.001 575.821 L835.243 573.177 L838.484 570.647 L841.725 568.243 L844.967 565.979 L848.208 563.868 L851.45 561.923 L854.691 560.158 L857.932 558.589 L861.174 557.229 L864.415 556.095 L867.657 555.201 L870.898 554.563 L874.139 554.197 L877.381 554.114 L880.622 554.318 L883.863 554.806 L887.105 555.577 L890.346 556.63 L893.588 557.963 L896.829 559.57 L900.07 561.439 L903.312 563.553 L906.553 565.898 L909.795 568.457 L913.036 571.214 L916.277 574.155 L919.519 577.264 L922.76 580.528 L926.001 583.931 L929.243 587.462 L932.484 591.106 L935.726 594.852 L938.967 598.688 L942.208 602.603 L945.45 606.587 L948.691 610.63 L951.933 614.724 L955.174 618.86 L958.415 623.031 L961.657 627.228 L964.898 631.447 L968.139 635.681 L971.381 639.924 L974.622 644.173 L977.864 648.423 L981.105 652.669 L984.346 656.91 L987.588 661.142 L990.829 665.363 L994.071 669.571 L997.312 673.766 L1000.55 677.946 L1003.79 682.112 L1007.04 686.262 L1010.28 690.398 L1013.52 694.521 L1016.76 698.632 L1020 702.732 L1023.24 706.824 L1026.48 710.91 L1029.73 714.994 L1032.97 719.077 L1036.21 723.165 L1039.45 727.261 L1042.69 731.368 L1045.93 735.492 L1049.17 739.638 L1052.42 743.81 L1055.66 748.013 L1058.9 752.254 L1062.14 756.538 L1065.38 760.871 L1068.62 765.259 L1071.86 769.707 L1075.11 774.222 L1078.35 778.81 L1081.59 783.476 L1084.83 788.225 L1088.07 793.052 L1091.31 797.95 L1094.55 802.911 L1097.79 807.93 L1101.04 812.999 L1104.28 818.111 L1107.52 823.259 L1110.76 828.438 L1114 833.639 L1117.24 838.857 L1120.48 844.085 L1123.73 849.318 L1126.97 854.55 L1130.21 859.774 L1133.45 864.986 L1136.69 870.18 L1139.93 875.352 L1143.17 880.496 L1146.42 885.609 L1149.66 890.685 L1152.9 895.721 L1156.14 900.712 L1159.38 905.656 L1162.62 910.549 L1165.86 915.386 L1169.11 920.166 L1172.35 924.886 L1175.59 929.542 L1178.83 934.133 L1182.07 938.655 L1185.31 943.107 L1188.55 947.487 L1191.8 951.792 L1195.04 956.022 L1198.28 960.174 L1201.52 964.248 L1204.76 968.241 L1208 972.154 L1211.24 975.984 L1214.48 979.731 L1217.73 983.395 L1220.97 986.974 L1224.21 990.469 L1227.45 993.879 L1230.69 997.204 L1233.93 1000.44 L1237.17 1003.6 L1240.42 1006.67 L1243.66 1009.66 L1246.9 1012.56 L1250.14 1015.38 L1253.38 1018.11 L1256.62 1020.77 L1259.86 1023.35 L1263.11 1025.84 L1266.35 1028.26 L1269.59 1030.61 L1272.83 1032.87 L1276.07 1035.07 L1279.31 1037.2 L1282.55 1039.26 L1285.8 1041.26 L1289.04 1043.19 L1292.28 1045.07 L1295.52 1046.89 L1298.76 1048.66 L1302 1050.38 L1305.24 1052.06 L1308.48 1053.69 L1311.73 1055.3 L1314.97 1056.87 L1318.21 1058.43 L1321.45 1059.96 L1324.69 1061.48 L1327.93 1063 L1331.17 1064.52 L1334.42 1066.05 L1337.66 1067.6 L1340.9 1069.17 L1344.14 1070.78 L1347.38 1072.44 L1350.62 1074.14 L1353.86 1075.91 L1357.11 1077.75 L1360.35 1079.67 L1363.59 1081.69 L1366.83 1083.81 L1370.07 1086.04 L1373.31 1088.4 L1376.55 1090.89 L1379.8 1093.52 L1383.04 1096.27 L1386.28 1099.14 L1389.52 1102.12 L1392.76 1105.19 L1396 1108.34 L1399.24 1111.57 L1402.49 1114.86 L1405.73 1118.21 L1408.97 1121.61 L1412.21 1125.04 L1415.45 1128.5 L1418.69 1131.98 L1421.93 1135.48 L1425.17 1138.98 L1428.42 1142.49 L1431.66 1145.99 L1434.9 1149.49 L1438.14 1152.98 L1441.38 1156.46 L1444.62 1159.92 L1447.86 1163.37 L1451.11 1166.8 L1454.35 1170.23 L1457.59 1173.64 L1460.83 1177.04 L1464.07 1180.43 L1467.31 1183.83 L1470.55 1187.22 L1473.8 1190.62 L1477.04 1194.03 L1480.28 1197.46 L1483.52 1200.92 L1486.76 1204.4 L1490 1207.91 L1493.24 1211.44 L1496.49 1215.01 L1499.73 1218.6 L1502.97 1222.23 L1506.21 1225.9 L1509.45 1229.62 L1512.69 1233.37 L1515.93 1237.18 L1519.18 1241.04 L1522.42 1244.96 L1525.66 1248.94 L1528.9 1252.98 L1532.14 1257.07 L1535.38 1261.21 L1538.62 1265.38 L1541.86 1269.6 L1545.11 1273.84 L1548.35 1278.11 L1551.59 1282.41 L1554.83 1286.71 L1558.07 1291.03 L1561.31 1295.34 L1564.55 1299.65 L1567.8 1303.93 L1571.04 1308.2 L1574.28 1312.42 L1577.52 1316.61 L1580.76 1320.76 L1584 1324.85 L1587.24 1328.89 L1590.49 1332.86 L1593.73 1336.76 L1596.97 1340.6 L1600.21 1344.36 L1603.45 1348.04 L1606.69 1351.64 L1609.93 1355.16 L1613.18 1358.59 L1616.42 1361.94 L1619.66 1365.2 L1622.9 1368.37 L1626.14 1371.46 L1629.38 1374.45 L1632.62 1377.36 L1635.86 1380.18 L1639.11 1382.91 L1642.35 1385.55 L1645.59 1388.12 L1648.83 1390.6 L1652.07 1393 L1655.31 1395.32 L1658.55 1397.57 L1661.8 1399.75 L1665.04 1401.86 L1668.28 1403.91 L1671.52 1405.9 L1674.76 1407.83 L1678 1409.71 L1681.24 1411.54 L1684.49 1413.33 L1687.73 1415.08 L1690.97 1416.79 L1694.21 1418.48 L1697.45 1420.14 L1700.69 1421.78 L1703.93 1423.4 L1707.18 1424.99 L1710.42 1426.54 L1713.66 1428.06 L1716.9 1429.54 L1720.14 1430.97 L1723.38 1432.35 L1726.62 1433.68 L1729.87 1434.95 L1733.11 1436.16 L1736.35 1437.31 L1739.59 1438.39 L1742.83 1439.4 L1746.07 1440.34 L1749.31 1441.21 L1752.55 1442 L1755.8 1442.72 L1759.04 1443.36 L1762.28 1443.92 L1765.52 1444.41 L1768.76 1444.81 L1772 1445.14 L1775.24 1445.4 L1778.49 1445.57 L1781.73 1445.68 L1784.97 1445.72 L1788.21 1445.68 L1791.45 1445.59 L1794.69 1445.43 L1797.93 1445.21 L1801.18 1444.95 L1804.42 1444.64 L1807.66 1444.28 L1810.9 1443.89 L1814.14 1443.47 L1817.38 1443.03 L1820.62 1442.57 L1823.87 1442.11 L1827.11 1441.65 L1830.35 1441.19 L1833.59 1440.75 L1836.83 1440.34 L1840.07 1439.95 L1843.31 1439.6 L1846.55 1439.29 L1849.8 1439.02 L1853.04 1438.78 L1856.28 1438.59 L1859.52 1438.43 L1862.76 1438.3 L1866 1438.18 L1869.24 1438.08 L1872.49 1437.98 L1875.73 1437.88 L1878.97 1437.76 L1882.21 1437.62 L1885.45 1437.46 L1888.69 1437.27 L1891.93 1437.05 L1895.18 1436.78 L1898.42 1436.47 L1901.66 1436.1 L1904.9 1435.69 L1908.14 1435.22 L1911.38 1434.69 L1914.62 1434.11 L1917.87 1433.46 L1921.11 1432.76 L1924.35 1431.99 L1927.59 1431.16 L1930.83 1430.27 L1934.07 1429.32 L1937.31 1428.31 L1940.56 1427.25 L1943.8 1426.13 L1947.04 1424.96 L1950.28 1423.73 L1953.52 1422.46 L1956.76 1421.15 L1960 1419.78 L1963.24 1418.36 L1966.49 1416.89 L1969.73 1415.37 L1972.97 1413.78 L1976.21 1412.14 L1979.45 1410.44 L1982.69 1408.67 L1985.93 1406.84 L1989.18 1404.95 L1992.42 1402.99 L1995.66 1400.96 L1998.9 1398.88 L2002.14 1396.72 L2005.38 1394.51 L2008.62 1392.24 L2011.87 1389.9 L2015.11 1387.51 L2018.35 1385.07 L2021.59 1382.57 L2024.83 1380.02 L2028.07 1377.43 L2031.31 1374.8 L2034.56 1372.13 L2037.8 1369.43 L2041.04 1366.7 L2044.28 1363.94 L2047.52 1361.17 L2050.76 1358.39 L2054 1355.6 L2057.24 1352.82 L2060.49 1350.03 L2063.73 1347.26 L2066.97 1344.51 L2070.21 1341.79 L2073.45 1339.09 L2076.69 1336.42 L2079.93 1333.77 L2083.18 1331.14 L2086.42 1328.53 L2089.66 1325.93 L2092.9 1323.34 L2096.14 1320.76 L2099.38 1318.18 L2102.62 1315.6 L2105.87 1313.01 L2109.11 1310.43 L2112.35 1307.83 L2115.59 1305.23 L2118.83 1302.62 L2122.07 1299.99 L2125.31 1297.36 L2128.56 1294.71 L2131.8 1292.05 L2135.04 1289.39 L2138.28 1286.71 L2141.52 1284.02 L2144.76 1281.32 L2148 1278.62 L2151.25 1275.92 L2154.49 1273.21 L2157.73 1270.51 L2160.97 1267.81 L2164.21 1265.12 L2167.45 1262.44 L2170.69 1259.79 L2173.93 1257.15 L2177.18 1254.54 L2180.42 1251.97 L2183.66 1249.44 L2186.9 1246.95 L2190.14 1244.51 L2193.38 1242.14 L2196.62 1239.83 L2199.87 1237.59 L2203.11 1235.44 L2206.35 1233.37 L2209.59 1231.41 L2212.83 1229.55 L2216.07 1227.8 L2219.31 1226.18 L2222.56 1224.69 L2225.8 1223.34 L2229.04 1222.14 L2232.28 1221.1 L2235.52 1220.21 L2238.76 1219.49 L2242 1218.91 L2245.25 1218.49 L2248.49 1218.2 L2251.73 1218.04 L2254.97 1218 L2258.21 1218.08 L2261.45 1218.28 L2264.69 1218.57 L2267.94 1218.97 L2271.18 1219.46 L2274.42 1220.03 L2277.66 1220.68 L2280.9 1221.41 L2284.14 1222.21 L2287.38 1223.06 L2290.62 1223.98 L2290.62 651.401 L2287.38 656.264 L2284.14 661.129 L2280.9 665.994 L2277.66 670.853 L2274.42 675.702 L2271.18 680.536 L2267.94 685.351 L2264.69 690.142 L2261.45 694.903 L2258.21 699.63 L2254.97 704.315 L2251.73 708.955 L2248.49 713.543 L2245.25 718.074 L2242 722.542 L2238.76 726.941 L2235.52 731.266 L2232.28 735.511 L2229.04 739.673 L2225.8 743.756 L2222.56 747.767 L2219.31 751.711 L2216.07 755.596 L2212.83 759.427 L2209.59 763.212 L2206.35 766.957 L2203.11 770.669 L2199.87 774.353 L2196.62 778.016 L2193.38 781.664 L2190.14 785.301 L2186.9 788.935 L2183.66 792.569 L2180.42 796.209 L2177.18 799.859 L2173.93 803.523 L2170.69 807.205 L2167.45 810.908 L2164.21 814.635 L2160.97 818.389 L2157.73 822.171 L2154.49 825.985 L2151.25 829.83 L2148 833.709 L2144.76 837.621 L2141.52 841.567 L2138.28 845.547 L2135.04 849.56 L2131.8 853.605 L2128.56 857.681 L2125.31 861.786 L2122.07 865.917 L2118.83 870.072 L2115.59 874.249 L2112.35 878.443 L2109.11 882.651 L2105.87 886.869 L2102.62 891.092 L2099.38 895.316 L2096.14 899.535 L2092.9 903.745 L2089.66 907.938 L2086.42 912.11 L2083.18 916.254 L2079.93 920.363 L2076.69 924.432 L2073.45 928.452 L2070.21 932.418 L2066.97 936.324 L2063.73 940.174 L2060.49 943.971 L2057.24 947.721 L2054 951.428 L2050.76 955.096 L2047.52 958.729 L2044.28 962.332 L2041.04 965.907 L2037.8 969.458 L2034.56 972.987 L2031.31 976.498 L2028.07 979.992 L2024.83 983.471 L2021.59 986.936 L2018.35 990.388 L2015.11 993.827 L2011.87 997.254 L2008.62 1000.67 L2005.38 1004.07 L2002.14 1007.45 L1998.9 1010.82 L1995.66 1014.16 L1992.42 1017.49 L1989.18 1020.78 L1985.93 1024.05 L1982.69 1027.28 L1979.45 1030.47 L1976.21 1033.62 L1972.97 1036.72 L1969.73 1039.76 L1966.49 1042.74 L1963.24 1045.64 L1960 1048.48 L1956.76 1051.22 L1953.52 1053.87 L1950.28 1056.43 L1947.04 1058.89 L1943.8 1061.26 L1940.56 1063.55 L1937.31 1065.76 L1934.07 1067.89 L1930.83 1069.96 L1927.59 1071.96 L1924.35 1073.89 L1921.11 1075.77 L1917.87 1077.59 L1914.62 1079.35 L1911.38 1081.06 L1908.14 1082.71 L1904.9 1084.31 L1901.66 1085.85 L1898.42 1087.34 L1895.18 1088.76 L1891.93 1090.12 L1888.69 1091.42 L1885.45 1092.64 L1882.21 1093.79 L1878.97 1094.86 L1875.73 1095.84 L1872.49 1096.72 L1869.24 1097.5 L1866 1098.18 L1862.76 1098.74 L1859.52 1099.17 L1856.28 1099.46 L1853.04 1099.62 L1849.8 1099.62 L1846.55 1099.47 L1843.31 1099.16 L1840.07 1098.7 L1836.83 1098.09 L1833.59 1097.32 L1830.35 1096.42 L1827.11 1095.38 L1823.87 1094.22 L1820.62 1092.96 L1817.38 1091.59 L1814.14 1090.15 L1810.9 1088.63 L1807.66 1087.04 L1804.42 1085.4 L1801.18 1083.72 L1797.93 1081.99 L1794.69 1080.23 L1791.45 1078.45 L1788.21 1076.66 L1784.97 1074.85 L1781.73 1073.03 L1778.49 1071.21 L1775.24 1069.4 L1772 1067.59 L1768.76 1065.79 L1765.52 1064 L1762.28 1062.23 L1759.04 1060.47 L1755.8 1058.72 L1752.55 1056.99 L1749.31 1055.28 L1746.07 1053.58 L1742.83 1051.9 L1739.59 1050.23 L1736.35 1048.57 L1733.11 1046.92 L1729.87 1045.27 L1726.62 1043.63 L1723.38 1041.98 L1720.14 1040.33 L1716.9 1038.68 L1713.66 1037.01 L1710.42 1035.32 L1707.18 1033.61 L1703.93 1031.87 L1700.69 1030.09 L1697.45 1028.28 L1694.21 1026.43 L1690.97 1024.54 L1687.73 1022.62 L1684.49 1020.68 L1681.24 1018.71 L1678 1016.73 L1674.76 1014.75 L1671.52 1012.76 L1668.28 1010.78 L1665.04 1008.8 L1661.8 1006.83 L1658.55 1004.88 L1655.31 1002.95 L1652.07 1001.04 L1648.83 999.162 L1645.59 997.31 L1642.35 995.49 L1639.11 993.703 L1635.86 991.95 L1632.62 990.234 L1629.38 988.554 L1626.14 986.91 L1622.9 985.304 L1619.66 983.733 L1616.42 982.197 L1613.18 980.694 L1609.93 979.222 L1606.69 977.778 L1603.45 976.36 L1600.21 974.965 L1596.97 973.587 L1593.73 972.222 L1590.49 970.865 L1587.24 969.51 L1584 968.152 L1580.76 966.783 L1577.52 965.396 L1574.28 963.982 L1571.04 962.534 L1567.8 961.042 L1564.55 959.497 L1561.31 957.888 L1558.07 956.205 L1554.83 954.437 L1551.59 952.572 L1548.35 950.601 L1545.11 948.524 L1541.86 946.34 L1538.62 944.05 L1535.38 941.655 L1532.14 939.155 L1528.9 936.55 L1525.66 933.839 L1522.42 931.021 L1519.18 928.097 L1515.93 925.071 L1512.69 921.947 L1509.45 918.728 L1506.21 915.42 L1502.97 912.025 L1499.73 908.546 L1496.49 904.986 L1493.24 901.347 L1490 897.63 L1486.76 893.837 L1483.52 889.967 L1480.28 886.021 L1477.04 882 L1473.8 877.911 L1470.55 873.764 L1467.31 869.566 L1464.07 865.325 L1460.83 861.047 L1457.59 856.738 L1454.35 852.405 L1451.11 848.05 L1447.86 843.679 L1444.62 839.294 L1441.38 834.897 L1438.14 830.488 L1434.9 826.07 L1431.66 821.64 L1428.42 817.198 L1425.17 812.741 L1421.93 808.267 L1418.69 803.772 L1415.45 799.251 L1412.21 794.698 L1408.97 790.109 L1405.73 785.477 L1402.49 780.793 L1399.24 776.051 L1396 771.243 L1392.76 766.359 L1389.52 761.392 L1386.28 756.332 L1383.04 751.169 L1379.8 745.896 L1376.55 740.503 L1373.31 734.983 L1370.07 729.335 L1366.83 723.567 L1363.59 717.69 L1360.35 711.713 L1357.11 705.647 L1353.86 699.503 L1350.62 693.289 L1347.38 687.017 L1344.14 680.695 L1340.9 674.333 L1337.66 667.94 L1334.42 661.525 L1331.17 655.094 L1327.93 648.657 L1324.69 642.22 L1321.45 635.79 L1318.21 629.374 L1314.97 622.977 L1311.73 616.606 L1308.48 610.266 L1305.24 603.961 L1302 597.696 L1298.76 591.476 L1295.52 585.304 L1292.28 579.184 L1289.04 573.12 L1285.8 567.115 L1282.55 561.171 L1279.31 555.292 L1276.07 549.479 L1272.83 543.735 L1269.59 538.062 L1266.35 532.462 L1263.11 526.936 L1259.86 521.485 L1256.62 516.112 L1253.38 510.816 L1250.14 505.6 L1246.9 500.464 L1243.66 495.408 L1240.42 490.433 L1237.17 485.539 L1233.93 480.727 L1230.69 475.997 L1227.45 471.349 L1224.21 466.782 L1220.97 462.297 L1217.73 457.893 L1214.48 453.569 L1211.24 449.325 L1208 445.16 L1204.76 441.074 L1201.52 437.065 L1198.28 433.132 L1195.04 429.275 L1191.8 425.491 L1188.55 421.779 L1185.31 418.138 L1182.07 414.566 L1178.83 411.061 L1175.59 407.621 L1172.35 404.244 L1169.11 400.927 L1165.86 397.668 L1162.62 394.465 L1159.38 391.314 L1156.14 388.213 L1152.9 385.158 L1149.66 382.147 L1146.42 379.175 L1143.17 376.239 L1139.93 373.336 L1136.69 370.46 L1133.45 367.609 L1130.21 364.777 L1126.97 361.959 L1123.73 359.152 L1120.48 356.35 L1117.24 353.548 L1114 350.741 L1110.76 347.923 L1107.52 345.088 L1104.28 342.232 L1101.04 339.347 L1097.79 336.43 L1094.55 333.472 L1091.31 330.469 L1088.07 327.415 L1084.83 324.304 L1081.59 321.131 L1078.35 317.891 L1075.11 314.59 L1071.86 311.235 L1068.62 307.831 L1065.38 304.386 L1062.14 300.907 L1058.9 297.4 L1055.66 293.874 L1052.42 290.334 L1049.17 286.787 L1045.93 283.24 L1042.69 279.7 L1039.45 276.171 L1036.21 272.662 L1032.97 269.176 L1029.73 265.721 L1026.48 262.3 L1023.24 258.92 L1020 255.584 L1016.76 252.298 L1013.52 249.065 L1010.28 245.889 L1007.04 242.774 L1003.79 239.724 L1000.55 236.74 L997.312 233.826 L994.071 230.984 L990.829 228.215 L987.588 225.522 L984.346 222.905 L981.105 220.365 L977.864 217.903 L974.622 215.519 L971.381 213.212 L968.139 210.982 L964.898 208.827 L961.657 206.746 L958.415 204.737 L955.174 202.797 L951.933 200.924 L948.691 199.113 L945.45 197.362 L942.208 195.664 L938.967 194.016 L935.726 192.412 L932.484 190.846 L929.243 189.312 L926.001 187.802 L922.76 186.309 L919.519 184.825 L916.277 183.342 L913.036 181.851 L909.795 180.344 L906.553 178.811 L903.312 177.244 L900.07 175.632 L896.829 173.968 L893.588 172.242 L890.346 170.448 L887.105 168.583 L883.863 166.648 L880.622 164.642 L877.381 162.568 L874.139 160.426 L870.898 158.22 L867.657 155.957 L864.415 153.643 L861.174 151.286 L857.932 148.896 L854.691 146.48 L851.45 144.046 L848.208 141.602 L844.967 139.156 L841.725 136.714 L838.484 134.285 L835.243 131.875 L832.001 129.489 L828.76 127.135 L825.519 124.818 L822.277 122.543 L819.036 120.315 L815.794 118.139 L812.553 116.018 L809.312 113.957 L806.07 111.959 L802.829 110.027 L799.587 108.164 L796.346 106.373 L793.105 104.656 L789.863 103.016 L786.622 101.454 L783.381 99.9719 L780.139 98.5716 L776.898 97.2543 L773.656 96.0211 L770.415 94.8732 L767.174 93.8115 L763.932 92.8368 L760.691 91.9498 L757.449 91.1509 L754.208 90.4408 L750.967 89.8197 L747.725 89.2881 L744.484 88.846 L741.242 88.4937 L738.001 88.2313 L734.76 88.0588 L731.518 87.9763 L728.277 87.9836 L725.036 88.0806 L721.794 88.2673 L718.553 88.5435 L715.311 88.909 L712.07 89.3635 L708.829 89.9067 L705.587 90.5385 L702.346 91.2585 L699.104 92.0665 L695.863 92.9619 L692.622 93.9446 L689.38 95.0141 L686.139 96.17 L682.898 97.4119 L679.656 98.7395 L676.415 100.152 L673.173 101.65 L669.932 103.231 L666.691 104.896 L663.449 106.645 L660.208 108.476 L656.966 110.389 L653.725 112.384 L650.484 114.46 L647.242 116.616 L644.001 118.852 L640.76 121.166 L637.518 123.559 L634.277 126.03 L631.035 128.576 L627.794 131.199 L624.553 133.897 L621.311 136.668 L618.07 139.513 L614.828 142.429 L611.587 145.416 L608.346 148.472 L605.104 151.597 L601.863 154.789 L598.622 158.046 L595.38 161.368 L592.139 164.751 L588.897 168.196 L585.656 171.699 L582.415 175.26 L579.173 178.875 L575.932 182.543 L572.69 186.262 L569.449 190.029 L566.208 193.842 L562.966 197.699 L559.725 201.595 L556.484 205.529 L553.242 209.498 L550.001 213.498 L546.759 217.526 L543.518 221.579 L540.277 225.653 L537.035 229.745 L533.794 233.851 L530.552 237.967 L527.311 242.09 L524.07 246.216 L520.828 250.34 L517.587 254.46 L514.346 258.572 L511.104 262.672 L507.863 266.758 L504.621 270.833 L501.38 274.903 L498.139 278.971 L494.897 283.042 L491.656 287.122 L488.414 291.216 L485.173 295.327 L481.932 299.461 L478.69 303.622 L475.449 307.815 L472.208 312.044 L468.966 316.313 L465.725 320.625 L462.483 324.985 L459.242 329.394 L456.001 333.857 L452.759 338.375 L449.518 342.95 L446.276 347.585 L443.035 352.28 L439.794 357.036 L436.552 361.854 L433.311 366.734 L430.069 371.674 L426.828 376.674 L423.587 381.733 L420.345 386.847 L417.104 392.014 L413.863 397.231 L410.621 402.493 L407.38 407.796 L404.138 413.133 L400.897 418.499 L397.656 423.886 L394.414 429.285 L391.173 434.689 L387.931 440.086 L384.69 445.467 L381.449 450.818 L378.207 456.126 L374.966 461.379 L371.725 466.56 L368.483 471.655 L365.242 476.651 L362 481.535 L358.759 486.295 L355.518 490.915 L352.276 495.381 L349.035 499.677 L345.793 503.784 L342.552 507.687 L339.311 511.367 L336.069 514.806 L332.828 517.987 L329.587 520.899 L326.345 523.531 L323.104 525.875 L319.862 527.93 L316.621 529.693 L313.38 531.166 L310.138 532.359 L306.897 533.281 L303.655 533.942 L300.414 534.353 L297.173 534.525 L293.931 534.465 L290.69 534.183 L287.449 533.687 L284.207 532.985 L280.966 532.084 L277.724 530.991 L274.483 529.721 L271.242 528.288 L268 526.707 L264.759 524.991 L261.517 523.152 L258.276 521.204 L255.035 519.156  Z" fill="#3da44d" fill-rule="evenodd" fill-opacity="0.1"/>
<polyline clip-path="url(#clip702)" style="stroke:#3da44d; stroke-linecap:round; stroke-linejoin:round; stroke-width:8; stroke-opacity:1; fill:none" points="255.035,716.309 258.276,714.248 261.517,712.145 264.759,709.998 268,707.807 271.242,705.571 274.483,703.288 277.724,700.959 280.966,698.581 284.207,696.155 287.449,693.68 290.69,691.157 293.931,688.586 297.173,685.967 300.414,683.302 303.655,680.589 306.897,677.83 310.138,675.025 313.38,672.173 316.621,669.276 319.862,666.334 323.104,663.349 326.345,660.325 329.587,657.263 332.828,654.167 336.069,651.039 339.311,647.883 342.552,644.701 345.793,641.497 349.035,638.273 352.276,635.031 355.518,631.775 358.759,628.508 362,625.233 365.242,621.952 368.483,618.668 371.725,615.384 374.966,612.103 378.207,608.826 381.449,605.553 384.69,602.285 387.931,599.022 391.173,595.764 394.414,592.513 397.656,589.269 400.897,586.033 404.138,582.805 407.38,579.586 410.621,576.377 413.863,573.178 417.104,569.99 420.345,566.814 423.587,563.652 426.828,560.503 430.069,557.368 433.311,554.249 436.552,551.147 439.794,548.062 443.035,544.995 446.276,541.948 449.518,538.922 452.759,535.917 456.001,532.935 459.242,529.978 462.483,527.045 465.725,524.14 468.966,521.262 472.208,518.414 475.449,515.596 478.69,512.81 481.932,510.059 485.173,507.342 488.414,504.663 491.656,502.021 494.897,499.42 498.139,496.861 501.38,494.346 504.621,491.876 507.863,489.454 511.104,487.081 514.346,484.759 517.587,482.487 520.828,480.262 524.07,478.082 527.311,475.945 530.552,473.851 533.794,471.795 537.035,469.778 540.277,467.797 543.518,465.851 546.759,463.938 550.001,462.056 553.242,460.204 556.484,458.38 559.725,456.583 562.966,454.812 566.208,453.066 569.449,451.342 572.69,449.64 575.932,447.959 579.173,446.297 582.415,444.654 585.656,443.029 588.897,441.419 592.139,439.825 595.38,438.246 598.622,436.68 601.863,435.127 605.104,433.586 608.346,432.057 611.587,430.538 614.828,429.029 618.07,427.529 621.311,426.038 624.553,424.555 627.794,423.079 631.035,421.611 634.277,420.15 637.518,418.694 640.76,417.245 644.001,415.802 647.242,414.364 650.484,412.931 653.725,411.503 656.966,410.08 660.208,408.662 663.449,407.248 666.691,405.84 669.932,404.435 673.173,403.035 676.415,401.64 679.656,400.25 682.898,398.865 686.139,397.485 689.38,396.111 692.622,394.742 695.863,393.379 699.104,392.023 702.346,390.674 705.587,389.332 708.829,387.997 712.07,386.671 715.311,385.354 718.553,384.046 721.794,382.749 725.036,381.462 728.277,380.187 731.518,378.924 734.76,377.675 738.001,376.439 741.242,375.219 744.484,374.015 747.725,372.828 750.967,371.659 754.208,370.51 757.449,369.381 760.691,368.274 763.932,367.189 767.174,366.13 770.415,365.096 773.656,364.089 776.898,363.111 780.139,362.164 783.381,361.248 786.622,360.366 789.863,359.52 793.105,358.711 796.346,357.941 799.587,357.212 802.829,356.526 806.07,355.885 809.312,355.291 812.553,354.747 815.794,354.255 819.036,353.817 822.277,353.435 825.519,353.113 828.76,352.852 832.001,352.655 835.243,352.526 838.484,352.466 841.725,352.479 844.967,352.567 848.208,352.735 851.45,352.985 854.691,353.319 857.932,353.743 861.174,354.258 864.415,354.869 867.657,355.579 870.898,356.392 874.139,357.312 877.381,358.341 880.622,359.48 883.863,360.727 887.105,362.08 890.346,363.539 893.588,365.102 896.829,366.769 900.07,368.535 903.312,370.398 906.553,372.354 909.795,374.4 913.036,376.533 916.277,378.748 919.519,381.045 922.76,383.418 926.001,385.867 929.243,388.387 932.484,390.976 935.726,393.632 938.967,396.352 942.208,399.133 945.45,401.974 948.691,404.872 951.933,407.824 955.174,410.829 958.415,413.884 961.657,416.987 964.898,420.137 968.139,423.331 971.381,426.568 974.622,429.846 977.864,433.163 981.105,436.517 984.346,439.907 987.588,443.332 990.829,446.789 994.071,450.278 997.312,453.796 1000.55,457.343 1003.79,460.918 1007.04,464.518 1010.28,468.144 1013.52,471.793 1016.76,475.465 1020,479.158 1023.24,482.872 1026.48,486.605 1029.73,490.357 1032.97,494.127 1036.21,497.913 1039.45,501.716 1042.69,505.534 1045.93,509.366 1049.17,513.212 1052.42,517.072 1055.66,520.944 1058.9,524.827 1062.14,528.723 1065.38,532.629 1068.62,536.545 1071.86,540.471 1075.11,544.406 1078.35,548.351 1081.59,552.304 1084.83,556.265 1088.07,560.234 1091.31,564.21 1094.55,568.192 1097.79,572.18 1101.04,576.173 1104.28,580.171 1107.52,584.174 1110.76,588.18 1114,592.19 1117.24,596.202 1120.48,600.218 1123.73,604.235 1126.97,608.255 1130.21,612.275 1133.45,616.297 1136.69,620.32 1139.93,624.344 1143.17,628.368 1146.42,632.392 1149.66,636.416 1152.9,640.44 1156.14,644.463 1159.38,648.485 1162.62,652.507 1165.86,656.527 1169.11,660.547 1172.35,664.565 1175.59,668.582 1178.83,672.597 1182.07,676.611 1185.31,680.623 1188.55,684.633 1191.8,688.642 1195.04,692.648 1198.28,696.653 1201.52,700.656 1204.76,704.658 1208,708.657 1211.24,712.654 1214.48,716.65 1217.73,720.644 1220.97,724.636 1224.21,728.626 1227.45,732.614 1230.69,736.601 1233.93,740.586 1237.17,744.569 1240.42,748.551 1243.66,752.532 1246.9,756.511 1250.14,760.489 1253.38,764.465 1256.62,768.441 1259.86,772.415 1263.11,776.389 1266.35,780.362 1269.59,784.334 1272.83,788.305 1276.07,792.276 1279.31,796.246 1282.55,800.216 1285.8,804.186 1289.04,808.156 1292.28,812.126 1295.52,816.096 1298.76,820.067 1302,824.037 1305.24,828.008 1308.48,831.98 1311.73,835.953 1314.97,839.926 1318.21,843.9 1321.45,847.875 1324.69,851.852 1327.93,855.829 1331.17,859.808 1334.42,863.789 1337.66,867.77 1340.9,871.754 1344.14,875.739 1347.38,879.726 1350.62,883.715 1353.86,887.705 1357.11,891.698 1360.35,895.693 1363.59,899.69 1366.83,903.689 1370.07,907.69 1373.31,911.693 1376.55,915.699 1379.8,919.708 1383.04,923.721 1386.28,927.737 1389.52,931.754 1392.76,935.772 1396,939.792 1399.24,943.81 1402.49,947.828 1405.73,951.844 1408.97,955.858 1412.21,959.868 1415.45,963.875 1418.69,967.876 1421.93,971.872 1425.17,975.861 1428.42,979.842 1431.66,983.815 1434.9,987.779 1438.14,991.733 1441.38,995.676 1444.62,999.607 1447.86,1003.52 1451.11,1007.43 1454.35,1011.32 1457.59,1015.19 1460.83,1019.04 1464.07,1022.88 1467.31,1026.7 1470.55,1030.49 1473.8,1034.27 1477.04,1038.02 1480.28,1041.74 1483.52,1045.44 1486.76,1049.12 1490,1052.77 1493.24,1056.39 1496.49,1060 1499.73,1063.57 1502.97,1067.13 1506.21,1070.66 1509.45,1074.17 1512.69,1077.66 1515.93,1081.12 1519.18,1084.57 1522.42,1087.99 1525.66,1091.39 1528.9,1094.76 1532.14,1098.11 1535.38,1101.43 1538.62,1104.72 1541.86,1107.97 1545.11,1111.18 1548.35,1114.36 1551.59,1117.49 1554.83,1120.58 1558.07,1123.62 1561.31,1126.62 1564.55,1129.57 1567.8,1132.49 1571.04,1135.36 1574.28,1138.2 1577.52,1141.01 1580.76,1143.77 1584,1146.5 1587.24,1149.2 1590.49,1151.86 1593.73,1154.49 1596.97,1157.09 1600.21,1159.66 1603.45,1162.2 1606.69,1164.71 1609.93,1167.19 1613.18,1169.64 1616.42,1172.07 1619.66,1174.47 1622.9,1176.84 1626.14,1179.18 1629.38,1181.5 1632.62,1183.8 1635.86,1186.06 1639.11,1188.31 1642.35,1190.52 1645.59,1192.71 1648.83,1194.88 1652.07,1197.02 1655.31,1199.14 1658.55,1201.23 1661.8,1203.29 1665.04,1205.33 1668.28,1207.34 1671.52,1209.33 1674.76,1211.29 1678,1213.22 1681.24,1215.13 1684.49,1217 1687.73,1218.85 1690.97,1220.67 1694.21,1222.46 1697.45,1224.21 1700.69,1225.94 1703.93,1227.63 1707.18,1229.3 1710.42,1230.93 1713.66,1232.53 1716.9,1234.11 1720.14,1235.65 1723.38,1237.17 1726.62,1238.65 1729.87,1240.11 1733.11,1241.54 1736.35,1242.94 1739.59,1244.31 1742.83,1245.65 1746.07,1246.96 1749.31,1248.25 1752.55,1249.5 1755.8,1250.72 1759.04,1251.91 1762.28,1253.07 1765.52,1254.2 1768.76,1255.3 1772,1256.37 1775.24,1257.4 1778.49,1258.39 1781.73,1259.36 1784.97,1260.28 1788.21,1261.17 1791.45,1262.02 1794.69,1262.83 1797.93,1263.6 1801.18,1264.33 1804.42,1265.02 1807.66,1265.66 1810.9,1266.26 1814.14,1266.81 1817.38,1267.31 1820.62,1267.76 1823.87,1268.17 1827.11,1268.51 1830.35,1268.8 1833.59,1269.04 1836.83,1269.21 1840.07,1269.33 1843.31,1269.38 1846.55,1269.38 1849.8,1269.32 1853.04,1269.2 1856.28,1269.03 1859.52,1268.8 1862.76,1268.52 1866,1268.18 1869.24,1267.79 1872.49,1267.35 1875.73,1266.86 1878.97,1266.31 1882.21,1265.71 1885.45,1265.05 1888.69,1264.34 1891.93,1263.58 1895.18,1262.77 1898.42,1261.9 1901.66,1260.98 1904.9,1260 1908.14,1258.97 1911.38,1257.88 1914.62,1256.73 1917.87,1255.53 1921.11,1254.26 1924.35,1252.94 1927.59,1251.56 1930.83,1250.11 1934.07,1248.61 1937.31,1247.03 1940.56,1245.4 1943.8,1243.69 1947.04,1241.92 1950.28,1240.08 1953.52,1238.17 1956.76,1236.18 1960,1234.13 1963.24,1232 1966.49,1229.81 1969.73,1227.56 1972.97,1225.25 1976.21,1222.88 1979.45,1220.45 1982.69,1217.98 1985.93,1215.44 1989.18,1212.86 1992.42,1210.24 1995.66,1207.56 1998.9,1204.85 2002.14,1202.09 2005.38,1199.29 2008.62,1196.45 2011.87,1193.58 2015.11,1190.67 2018.35,1187.73 2021.59,1184.75 2024.83,1181.75 2028.07,1178.71 2031.31,1175.65 2034.56,1172.56 2037.8,1169.44 2041.04,1166.3 2044.28,1163.14 2047.52,1159.95 2050.76,1156.74 2054,1153.52 2057.24,1150.27 2060.49,1147 2063.73,1143.72 2066.97,1140.42 2070.21,1137.1 2073.45,1133.77 2076.69,1130.42 2079.93,1127.07 2083.18,1123.7 2086.42,1120.32 2089.66,1116.94 2092.9,1113.54 2096.14,1110.15 2099.38,1106.75 2102.62,1103.34 2105.87,1099.94 2109.11,1096.54 2112.35,1093.14 2115.59,1089.74 2118.83,1086.34 2122.07,1082.95 2125.31,1079.57 2128.56,1076.2 2131.8,1072.83 2135.04,1069.47 2138.28,1066.13 2141.52,1062.79 2144.76,1059.47 2148,1056.17 2151.25,1052.87 2154.49,1049.6 2157.73,1046.34 2160.97,1043.1 2164.21,1039.88 2167.45,1036.68 2170.69,1033.5 2173.93,1030.34 2177.18,1027.2 2180.42,1024.09 2183.66,1021 2186.9,1017.94 2190.14,1014.91 2193.38,1011.9 2196.62,1008.92 2199.87,1005.97 2203.11,1003.05 2206.35,1000.17 2209.59,997.31 2212.83,994.488 2216.07,991.7 2219.31,988.947 2222.56,986.23 2225.8,983.549 2229.04,980.907 2232.28,978.304 2235.52,975.74 2238.76,973.215 2242,970.728 2245.25,968.28 2248.49,965.87 2251.73,963.496 2254.97,961.158 2258.21,958.856 2261.45,956.59 2264.69,954.358 2267.94,952.16 2271.18,949.997 2274.42,947.866 2277.66,945.768 2280.9,943.702 2284.14,941.667 2287.38,939.664 2290.62,937.692 "/>
<polyline clip-path="url(#clip702)" style="stroke:#c271d2; stroke-linecap:round; stroke-linejoin:round; stroke-width:12; stroke-opacity:1; fill:none" points="255.035,849.287 362.225,722.001 469.416,659.235 576.607,626.916 683.797,601.789 790.988,531.674 898.179,497.551 1005.37,612.041 1112.56,752.902 1219.75,900.193 1326.94,994.856 1434.13,1095.99 1541.32,1216.33 1648.51,1326.66 1755.7,1380.2 1862.89,1383.03 1970.09,1354.04 2077.28,1268.85 2184.47,1174.41 2291.66,1130.8 "/>
<polyline clip-path="url(#clip702)" style="stroke:#ac8d18; stroke-linecap:round; stroke-linejoin:round; stroke-width:12; stroke-opacity:1; fill:none" points="255.035,583.33 362.225,528.01 469.416,382.495 576.607,268.307 683.797,195.175 790.988,186.795 898.179,237.434 1005.37,313.287 1112.56,427.909 1219.75,546.081 1326.94,714.368 1434.13,877.696 1541.32,998.522 1648.51,1062.68 1755.7,1121.17 1862.89,1153.98 1970.09,1100.58 2077.28,990.797 2184.47,866.066 2291.66,743.345 "/>
<path clip-path="url(#clip700)" d="M1953.46 406.258 L2280.8 406.258 L2280.8 95.2176 L1953.46 95.2176  Z" fill="#ffffff" fill-rule="evenodd" fill-opacity="1"/>
<polyline clip-path="url(#clip700)" style="stroke:#000000; stroke-linecap:round; stroke-linejoin:round; stroke-width:4; stroke-opacity:1; fill:none" points="1953.46,406.258 2280.8,406.258 2280.8,95.2176 1953.46,95.2176 1953.46,406.258 "/>
<polyline clip-path="url(#clip700)" style="stroke:#009af9; stroke-linecap:round; stroke-linejoin:round; stroke-width:4; stroke-opacity:1; fill:none" points="1977.44,147.058 2121.36,147.058 "/>
<path clip-path="url(#clip700)" d="M2152.76 131.051 L2152.76 138.412 L2161.53 138.412 L2161.53 141.722 L2152.76 141.722 L2152.76 155.796 Q2152.76 158.967 2153.61 159.87 Q2154.49 160.773 2157.16 160.773 L2161.53 160.773 L2161.53 164.338 L2157.16 164.338 Q2152.23 164.338 2150.35 162.509 Q2148.48 160.657 2148.48 155.796 L2148.48 141.722 L2145.35 141.722 L2145.35 138.412 L2148.48 138.412 L2148.48 131.051 L2152.76 131.051 Z" fill="#000000" fill-rule="nonzero" fill-opacity="1" /><path clip-path="url(#clip700)" d="M2182.16 142.393 Q2181.44 141.977 2180.58 141.791 Q2179.75 141.583 2178.73 141.583 Q2175.12 141.583 2173.17 143.944 Q2171.25 146.282 2171.25 150.68 L2171.25 164.338 L2166.97 164.338 L2166.97 138.412 L2171.25 138.412 L2171.25 142.44 Q2172.6 140.078 2174.75 138.944 Q2176.9 137.787 2179.98 137.787 Q2180.42 137.787 2180.95 137.856 Q2181.48 137.903 2182.13 138.018 L2182.16 142.393 Z" fill="#000000" fill-rule="nonzero" fill-opacity="1" /><path clip-path="url(#clip700)" d="M2186.18 154.106 L2186.18 138.412 L2190.44 138.412 L2190.44 153.944 Q2190.44 157.625 2191.88 159.476 Q2193.31 161.305 2196.18 161.305 Q2199.63 161.305 2201.62 159.106 Q2203.64 156.907 2203.64 153.111 L2203.64 138.412 L2207.9 138.412 L2207.9 164.338 L2203.64 164.338 L2203.64 160.356 Q2202.09 162.717 2200.03 163.875 Q2197.99 165.009 2195.28 165.009 Q2190.81 165.009 2188.5 162.231 Q2186.18 159.453 2186.18 154.106 M2196.9 137.787 L2196.9 137.787 Z" fill="#000000" fill-rule="nonzero" fill-opacity="1" /><path clip-path="url(#clip700)" d="M2220.88 131.051 L2220.88 138.412 L2229.66 138.412 L2229.66 141.722 L2220.88 141.722 L2220.88 155.796 Q2220.88 158.967 2221.74 159.87 Q2222.62 160.773 2225.28 160.773 L2229.66 160.773 L2229.66 164.338 L2225.28 164.338 Q2220.35 164.338 2218.48 162.509 Q2216.6 160.657 2216.6 155.796 L2216.6 141.722 L2213.48 141.722 L2213.48 138.412 L2216.6 138.412 L2216.6 131.051 L2220.88 131.051 Z" fill="#000000" fill-rule="nonzero" fill-opacity="1" /><path clip-path="url(#clip700)" d="M2256.81 148.689 L2256.81 164.338 L2252.55 164.338 L2252.55 148.828 Q2252.55 145.148 2251.11 143.319 Q2249.68 141.49 2246.81 141.49 Q2243.36 141.49 2241.37 143.69 Q2239.38 145.889 2239.38 149.685 L2239.38 164.338 L2235.1 164.338 L2235.1 128.319 L2239.38 128.319 L2239.38 142.44 Q2240.91 140.102 2242.97 138.944 Q2245.05 137.787 2247.76 137.787 Q2252.23 137.787 2254.52 140.565 Q2256.81 143.319 2256.81 148.689 Z" fill="#000000" fill-rule="nonzero" fill-opacity="1" /><circle clip-path="url(#clip700)" cx="2049.4" cy="198.898" r="20.48" fill="#e26f46" fill-rule="evenodd" fill-opacity="1" stroke="#000000" stroke-opacity="1" stroke-width="4.55111"/>
<path clip-path="url(#clip700)" d="M2164.26 194.187 L2164.26 180.159 L2168.52 180.159 L2168.52 216.178 L2164.26 216.178 L2164.26 212.289 Q2162.92 214.603 2160.86 215.738 Q2158.82 216.849 2155.95 216.849 Q2151.25 216.849 2148.29 213.099 Q2145.35 209.349 2145.35 203.238 Q2145.35 197.127 2148.29 193.377 Q2151.25 189.627 2155.95 189.627 Q2158.82 189.627 2160.86 190.761 Q2162.92 191.872 2164.26 194.187 M2149.75 203.238 Q2149.75 207.937 2151.67 210.622 Q2153.61 213.284 2156.99 213.284 Q2160.37 213.284 2162.32 210.622 Q2164.26 207.937 2164.26 203.238 Q2164.26 198.539 2162.32 195.877 Q2160.37 193.192 2156.99 193.192 Q2153.61 193.192 2151.67 195.877 Q2149.75 198.539 2149.75 203.238 Z" fill="#000000" fill-rule="nonzero" fill-opacity="1" /><path clip-path="url(#clip700)" d="M2189.08 203.145 Q2183.92 203.145 2181.92 204.326 Q2179.93 205.506 2179.93 208.354 Q2179.93 210.622 2181.42 211.965 Q2182.92 213.284 2185.49 213.284 Q2189.03 213.284 2191.16 210.784 Q2193.31 208.261 2193.31 204.094 L2193.31 203.145 L2189.08 203.145 M2197.57 201.386 L2197.57 216.178 L2193.31 216.178 L2193.31 212.242 Q2191.85 214.603 2189.68 215.738 Q2187.5 216.849 2184.36 216.849 Q2180.37 216.849 2178.01 214.627 Q2175.67 212.381 2175.67 208.631 Q2175.67 204.256 2178.59 202.034 Q2181.53 199.812 2187.34 199.812 L2193.31 199.812 L2193.31 199.395 Q2193.31 196.455 2191.37 194.858 Q2189.45 193.238 2185.95 193.238 Q2183.73 193.238 2181.62 193.77 Q2179.52 194.303 2177.57 195.367 L2177.57 191.432 Q2179.91 190.53 2182.11 190.09 Q2184.31 189.627 2186.39 189.627 Q2192.02 189.627 2194.79 192.543 Q2197.57 195.46 2197.57 201.386 Z" fill="#000000" fill-rule="nonzero" fill-opacity="1" /><path clip-path="url(#clip700)" d="M2210.56 182.891 L2210.56 190.252 L2219.33 190.252 L2219.33 193.562 L2210.56 193.562 L2210.56 207.636 Q2210.56 210.807 2211.42 211.71 Q2212.29 212.613 2214.96 212.613 L2219.33 212.613 L2219.33 216.178 L2214.96 216.178 Q2210.03 216.178 2208.15 214.349 Q2206.28 212.497 2206.28 207.636 L2206.28 193.562 L2203.15 193.562 L2203.15 190.252 L2206.28 190.252 L2206.28 182.891 L2210.56 182.891 Z" fill="#000000" fill-rule="nonzero" fill-opacity="1" /><path clip-path="url(#clip700)" d="M2236.72 203.145 Q2231.55 203.145 2229.56 204.326 Q2227.57 205.506 2227.57 208.354 Q2227.57 210.622 2229.05 211.965 Q2230.56 213.284 2233.13 213.284 Q2236.67 213.284 2238.8 210.784 Q2240.95 208.261 2240.95 204.094 L2240.95 203.145 L2236.72 203.145 M2245.21 201.386 L2245.21 216.178 L2240.95 216.178 L2240.95 212.242 Q2239.49 214.603 2237.32 215.738 Q2235.14 216.849 2231.99 216.849 Q2228.01 216.849 2225.65 214.627 Q2223.31 212.381 2223.31 208.631 Q2223.31 204.256 2226.23 202.034 Q2229.17 199.812 2234.98 199.812 L2240.95 199.812 L2240.95 199.395 Q2240.95 196.455 2239.01 194.858 Q2237.09 193.238 2233.59 193.238 Q2231.37 193.238 2229.26 193.77 Q2227.16 194.303 2225.21 195.367 L2225.21 191.432 Q2227.55 190.53 2229.75 190.09 Q2231.95 189.627 2234.03 189.627 Q2239.66 189.627 2242.43 192.543 Q2245.21 195.46 2245.21 201.386 Z" fill="#000000" fill-rule="nonzero" fill-opacity="1" /><polyline clip-path="url(#clip700)" style="stroke:#3da44d; stroke-linecap:round; stroke-linejoin:round; stroke-width:8; stroke-opacity:1; fill:none" points="1977.44,250.738 2121.36,250.738 "/>
<path clip-path="url(#clip700)" d="M2170.91 263.087 L2170.91 253.805 L2163.27 253.805 L2163.27 249.962 L2175.54 249.962 L2175.54 264.8 Q2172.83 266.721 2169.56 267.717 Q2166.3 268.689 2162.6 268.689 Q2154.49 268.689 2149.91 263.967 Q2145.35 259.221 2145.35 250.772 Q2145.35 242.3 2149.91 237.578 Q2154.49 232.833 2162.6 232.833 Q2165.98 232.833 2169.01 233.666 Q2172.06 234.499 2174.63 236.12 L2174.63 241.096 Q2172.04 238.897 2169.12 237.786 Q2166.21 236.675 2162.99 236.675 Q2156.65 236.675 2153.45 240.217 Q2150.28 243.758 2150.28 250.772 Q2150.28 257.763 2153.45 261.305 Q2156.65 264.846 2162.99 264.846 Q2165.47 264.846 2167.41 264.43 Q2169.36 263.99 2170.91 263.087 Z" fill="#000000" fill-rule="nonzero" fill-opacity="1" /><path clip-path="url(#clip700)" d="M2188.75 237.3 L2188.75 250.286 L2194.63 250.286 Q2197.9 250.286 2199.68 248.596 Q2201.46 246.907 2201.46 243.782 Q2201.46 240.68 2199.68 238.99 Q2197.9 237.3 2194.63 237.3 L2188.75 237.3 M2184.08 233.458 L2194.63 233.458 Q2200.44 233.458 2203.41 236.096 Q2206.39 238.712 2206.39 243.782 Q2206.39 248.897 2203.41 251.513 Q2200.44 254.129 2194.63 254.129 L2188.75 254.129 L2188.75 268.018 L2184.08 268.018 L2184.08 233.458 Z" fill="#000000" fill-rule="nonzero" fill-opacity="1" /><polyline clip-path="url(#clip700)" style="stroke:#c271d2; stroke-linecap:round; stroke-linejoin:round; stroke-width:12; stroke-opacity:1; fill:none" points="1977.44,302.578 2121.36,302.578 "/>
<path clip-path="url(#clip700)" d="M2150.03 289.14 L2150.03 302.126 L2155.91 302.126 Q2159.17 302.126 2160.95 300.436 Q2162.73 298.747 2162.73 295.622 Q2162.73 292.52 2160.95 290.83 Q2159.17 289.14 2155.91 289.14 L2150.03 289.14 M2145.35 285.298 L2155.91 285.298 Q2161.72 285.298 2164.68 287.936 Q2167.67 290.552 2167.67 295.622 Q2167.67 300.737 2164.68 303.353 Q2161.72 305.969 2155.91 305.969 L2150.03 305.969 L2150.03 319.858 L2145.35 319.858 L2145.35 285.298 Z" fill="#000000" fill-rule="nonzero" fill-opacity="1" /><path clip-path="url(#clip700)" d="M2178.38 315.922 L2194.7 315.922 L2194.7 319.858 L2172.76 319.858 L2172.76 315.922 Q2175.42 313.168 2180 308.538 Q2184.61 303.885 2185.79 302.543 Q2188.04 300.02 2188.92 298.284 Q2189.82 296.524 2189.82 294.835 Q2189.82 292.08 2187.87 290.344 Q2185.95 288.608 2182.85 288.608 Q2180.65 288.608 2178.2 289.372 Q2175.77 290.135 2172.99 291.686 L2172.99 286.964 Q2175.81 285.83 2178.27 285.251 Q2180.72 284.673 2182.76 284.673 Q2188.13 284.673 2191.32 287.358 Q2194.52 290.043 2194.52 294.534 Q2194.52 296.663 2193.71 298.585 Q2192.92 300.483 2190.81 303.075 Q2190.23 303.747 2187.13 306.964 Q2184.03 310.159 2178.38 315.922 Z" fill="#000000" fill-rule="nonzero" fill-opacity="1" /><path clip-path="url(#clip700)" d="M2204.56 285.298 L2222.92 285.298 L2222.92 289.233 L2208.85 289.233 L2208.85 297.705 Q2209.86 297.358 2210.88 297.196 Q2211.9 297.01 2212.92 297.01 Q2218.71 297.01 2222.09 300.182 Q2225.47 303.353 2225.47 308.77 Q2225.47 314.348 2221.99 317.45 Q2218.52 320.529 2212.2 320.529 Q2210.03 320.529 2207.76 320.158 Q2205.51 319.788 2203.1 319.047 L2203.1 314.348 Q2205.19 315.483 2207.41 316.038 Q2209.63 316.594 2212.11 316.594 Q2216.11 316.594 2218.45 314.487 Q2220.79 312.381 2220.79 308.77 Q2220.79 305.159 2218.45 303.052 Q2216.11 300.946 2212.11 300.946 Q2210.23 300.946 2208.36 301.362 Q2206.51 301.779 2204.56 302.659 L2204.56 285.298 Z" fill="#000000" fill-rule="nonzero" fill-opacity="1" /><polyline clip-path="url(#clip700)" style="stroke:#ac8d18; stroke-linecap:round; stroke-linejoin:round; stroke-width:12; stroke-opacity:1; fill:none" points="1977.44,354.418 2121.36,354.418 "/>
<path clip-path="url(#clip700)" d="M2150.03 340.98 L2150.03 353.966 L2155.91 353.966 Q2159.17 353.966 2160.95 352.276 Q2162.73 350.587 2162.73 347.462 Q2162.73 344.36 2160.95 342.67 Q2159.17 340.98 2155.91 340.98 L2150.03 340.98 M2145.35 337.138 L2155.91 337.138 Q2161.72 337.138 2164.68 339.776 Q2167.67 342.392 2167.67 347.462 Q2167.67 352.577 2164.68 355.193 Q2161.72 357.809 2155.91 357.809 L2150.03 357.809 L2150.03 371.698 L2145.35 371.698 L2145.35 337.138 Z" fill="#000000" fill-rule="nonzero" fill-opacity="1" /><path clip-path="url(#clip700)" d="M2173.17 337.138 L2195.4 337.138 L2195.4 339.128 L2182.85 371.698 L2177.97 371.698 L2189.77 341.073 L2173.17 341.073 L2173.17 337.138 Z" fill="#000000" fill-rule="nonzero" fill-opacity="1" /><path clip-path="url(#clip700)" d="M2204.56 337.138 L2222.92 337.138 L2222.92 341.073 L2208.85 341.073 L2208.85 349.545 Q2209.86 349.198 2210.88 349.036 Q2211.9 348.85 2212.92 348.85 Q2218.71 348.85 2222.09 352.022 Q2225.47 355.193 2225.47 360.61 Q2225.47 366.188 2221.99 369.29 Q2218.52 372.369 2212.2 372.369 Q2210.03 372.369 2207.76 371.998 Q2205.51 371.628 2203.1 370.887 L2203.1 366.188 Q2205.19 367.323 2207.41 367.878 Q2209.63 368.434 2212.11 368.434 Q2216.11 368.434 2218.45 366.327 Q2220.79 364.221 2220.79 360.61 Q2220.79 356.999 2218.45 354.892 Q2216.11 352.786 2212.11 352.786 Q2210.23 352.786 2208.36 353.202 Q2206.51 353.619 2204.56 354.499 L2204.56 337.138 Z" fill="#000000" fill-rule="nonzero" fill-opacity="1" /></svg>
