<?xml version="1.0" encoding="utf-8"?>
<svg xmlns="http://www.w3.org/2000/svg" xmlns:xlink="http://www.w3.org/1999/xlink" width="600" height="400" viewBox="0 0 2400 1600">
<defs>
  <clipPath id="clip970">
    <rect x="0" y="0" width="2400" height="1600"/>
  </clipPath>
</defs>
<path clip-path="url(#clip970)" d="M0 1600 L2400 1600 L2400 0 L0 0  Z" fill="#ffffff" fill-rule="evenodd" fill-opacity="1"/>
<defs>
  <clipPath id="clip971">
    <rect x="480" y="0" width="1681" height="1600"/>
  </clipPath>
</defs>
<path clip-path="url(#clip970)" d="M193.936 1486.45 L2352.76 1486.45 L2352.76 47.2441 L193.936 47.2441  Z" fill="#ffffff" fill-rule="evenodd" fill-opacity="1"/>
<defs>
  <clipPath id="clip972">
    <rect x="193" y="47" width="2160" height="1440"/>
  </clipPath>
</defs>
<polyline clip-path="url(#clip972)" style="stroke:#000000; stroke-linecap:round; stroke-linejoin:round; stroke-width:2; stroke-opacity:0.1; fill:none" points="255.035,1486.45 255.035,47.2441 "/>
<polyline clip-path="url(#clip972)" style="stroke:#000000; stroke-linecap:round; stroke-linejoin:round; stroke-width:2; stroke-opacity:0.1; fill:none" points="579.338,1486.45 579.338,47.2441 "/>
<polyline clip-path="url(#clip972)" style="stroke:#000000; stroke-linecap:round; stroke-linejoin:round; stroke-width:2; stroke-opacity:0.1; fill:none" points="903.641,1486.45 903.641,47.2441 "/>
<polyline clip-path="url(#clip972)" style="stroke:#000000; stroke-linecap:round; stroke-linejoin:round; stroke-width:2; stroke-opacity:0.1; fill:none" points="1227.94,1486.45 1227.94,47.2441 "/>
<polyline clip-path="url(#clip972)" style="stroke:#000000; stroke-linecap:round; stroke-linejoin:round; stroke-width:2; stroke-opacity:0.1; fill:none" points="1552.25,1486.45 1552.25,47.2441 "/>
<polyline clip-path="url(#clip972)" style="stroke:#000000; stroke-linecap:round; stroke-linejoin:round; stroke-width:2; stroke-opacity:0.1; fill:none" points="1876.55,1486.45 1876.55,47.2441 "/>
<polyline clip-path="url(#clip972)" style="stroke:#000000; stroke-linecap:round; stroke-linejoin:round; stroke-width:2; stroke-opacity:0.1; fill:none" points="2200.85,1486.45 2200.85,47.2441 "/>
<polyline clip-path="url(#clip972)" style="stroke:#000000; stroke-linecap:round; stroke-linejoin:round; stroke-width:2; stroke-opacity:0.1; fill:none" points="193.936,1308.38 2352.76,1308.38 "/>
<polyline clip-path="url(#clip972)" style="stroke:#000000; stroke-linecap:round; stroke-linejoin:round; stroke-width:2; stroke-opacity:0.1; fill:none" points="193.936,1039.57 2352.76,1039.57 "/>
<polyline clip-path="url(#clip972)" style="stroke:#000000; stroke-linecap:round; stroke-linejoin:round; stroke-width:2; stroke-opacity:0.1; fill:none" points="193.936,770.762 2352.76,770.762 "/>
<polyline clip-path="url(#clip972)" style="stroke:#000000; stroke-linecap:round; stroke-linejoin:round; stroke-width:2; stroke-opacity:0.1; fill:none" points="193.936,501.955 2352.76,501.955 "/>
<polyline clip-path="url(#clip972)" style="stroke:#000000; stroke-linecap:round; stroke-linejoin:round; stroke-width:2; stroke-opacity:0.1; fill:none" points="193.936,233.148 2352.76,233.148 "/>
<polyline clip-path="url(#clip970)" style="stroke:#000000; stroke-linecap:round; stroke-linejoin:round; stroke-width:4; stroke-opacity:1; fill:none" points="193.936,1486.45 2352.76,1486.45 "/>
<polyline clip-path="url(#clip970)" style="stroke:#000000; stroke-linecap:round; stroke-linejoin:round; stroke-width:4; stroke-opacity:1; fill:none" points="255.035,1486.45 255.035,1467.55 "/>
<polyline clip-path="url(#clip970)" style="stroke:#000000; stroke-linecap:round; stroke-linejoin:round; stroke-width:4; stroke-opacity:1; fill:none" points="579.338,1486.45 579.338,1467.55 "/>
<polyline clip-path="url(#clip970)" style="stroke:#000000; stroke-linecap:round; stroke-linejoin:round; stroke-width:4; stroke-opacity:1; fill:none" points="903.641,1486.45 903.641,1467.55 "/>
<polyline clip-path="url(#clip970)" style="stroke:#000000; stroke-linecap:round; stroke-linejoin:round; stroke-width:4; stroke-opacity:1; fill:none" points="1227.94,1486.45 1227.94,1467.55 "/>
<polyline clip-path="url(#clip970)" style="stroke:#000000; stroke-linecap:round; stroke-linejoin:round; stroke-width:4; stroke-opacity:1; fill:none" points="1552.25,1486.45 1552.25,1467.55 "/>
<polyline clip-path="url(#clip970)" style="stroke:#000000; stroke-linecap:round; stroke-linejoin:round; stroke-width:4; stroke-opacity:1; fill:none" points="1876.55,1486.45 1876.55,1467.55 "/>
<polyline clip-path="url(#clip970)" style="stroke:#000000; stroke-linecap:round; stroke-linejoin:round; stroke-width:4; stroke-opacity:1; fill:none" points="2200.85,1486.45 2200.85,1467.55 "/>
<path clip-path="url(#clip970)" d="M255.035 1517.37 Q251.424 1517.37 249.595 1520.93 Q247.789 1524.47 247.789 1531.6 Q247.789 1538.71 249.595 1542.27 Q251.424 1545.82 255.035 1545.82 Q258.669 1545.82 260.474 1542.27 Q262.303 1538.71 262.303 1531.6 Q262.303 1524.47 260.474 1520.93 Q258.669 1517.37 255.035 1517.37 M255.035 1513.66 Q260.845 1513.66 263.9 1518.27 Q266.979 1522.85 266.979 1531.6 Q266.979 1540.33 263.9 1544.94 Q260.845 1549.52 255.035 1549.52 Q249.225 1549.52 246.146 1544.94 Q243.09 1540.33 243.09 1531.6 Q243.09 1522.85 246.146 1518.27 Q249.225 1513.66 255.035 1513.66 Z" fill="#000000" fill-rule="nonzero" fill-opacity="1" /><path clip-path="url(#clip970)" d="M569.72 1544.91 L577.358 1544.91 L577.358 1518.55 L569.048 1520.21 L569.048 1515.95 L577.312 1514.29 L581.988 1514.29 L581.988 1544.91 L589.627 1544.91 L589.627 1548.85 L569.72 1548.85 L569.72 1544.91 Z" fill="#000000" fill-rule="nonzero" fill-opacity="1" /><path clip-path="url(#clip970)" d="M898.293 1544.91 L914.613 1544.91 L914.613 1548.85 L892.668 1548.85 L892.668 1544.91 Q895.33 1542.16 899.914 1537.53 Q904.52 1532.88 905.701 1531.53 Q907.946 1529.01 908.826 1527.27 Q909.729 1525.51 909.729 1523.82 Q909.729 1521.07 907.784 1519.33 Q905.863 1517.6 902.761 1517.6 Q900.562 1517.6 898.108 1518.36 Q895.678 1519.13 892.9 1520.68 L892.9 1515.95 Q895.724 1514.82 898.178 1514.24 Q900.631 1513.66 902.668 1513.66 Q908.039 1513.66 911.233 1516.35 Q914.428 1519.03 914.428 1523.52 Q914.428 1525.65 913.617 1527.57 Q912.83 1529.47 910.724 1532.07 Q910.145 1532.74 907.043 1535.95 Q903.942 1539.15 898.293 1544.91 Z" fill="#000000" fill-rule="nonzero" fill-opacity="1" /><path clip-path="url(#clip970)" d="M1232.19 1530.21 Q1235.55 1530.93 1237.42 1533.2 Q1239.32 1535.47 1239.32 1538.8 Q1239.32 1543.92 1235.8 1546.72 Q1232.28 1549.52 1225.8 1549.52 Q1223.63 1549.52 1221.31 1549.08 Q1219.02 1548.66 1216.57 1547.81 L1216.57 1543.29 Q1218.51 1544.43 1220.83 1545.01 Q1223.14 1545.58 1225.66 1545.58 Q1230.06 1545.58 1232.35 1543.85 Q1234.67 1542.11 1234.67 1538.8 Q1234.67 1535.75 1232.52 1534.03 Q1230.39 1532.3 1226.57 1532.3 L1222.54 1532.3 L1222.54 1528.45 L1226.75 1528.45 Q1230.2 1528.45 1232.03 1527.09 Q1233.86 1525.7 1233.86 1523.11 Q1233.86 1520.45 1231.96 1519.03 Q1230.08 1517.6 1226.57 1517.6 Q1224.64 1517.6 1222.45 1518.01 Q1220.25 1518.43 1217.61 1519.31 L1217.61 1515.14 Q1220.27 1514.4 1222.58 1514.03 Q1224.92 1513.66 1226.98 1513.66 Q1232.31 1513.66 1235.41 1516.09 Q1238.51 1518.5 1238.51 1522.62 Q1238.51 1525.49 1236.87 1527.48 Q1235.22 1529.45 1232.19 1530.21 Z" fill="#000000" fill-rule="nonzero" fill-opacity="1" /><path clip-path="url(#clip970)" d="M1555.26 1518.36 L1543.45 1536.81 L1555.26 1536.81 L1555.26 1518.36 M1554.03 1514.29 L1559.91 1514.29 L1559.91 1536.81 L1564.84 1536.81 L1564.84 1540.7 L1559.91 1540.7 L1559.91 1548.85 L1555.26 1548.85 L1555.26 1540.7 L1539.65 1540.7 L1539.65 1536.19 L1554.03 1514.29 Z" fill="#000000" fill-rule="nonzero" fill-opacity="1" /><path clip-path="url(#clip970)" d="M1866.83 1514.29 L1885.18 1514.29 L1885.18 1518.22 L1871.11 1518.22 L1871.11 1526.7 Q1872.13 1526.35 1873.15 1526.19 Q1874.17 1526 1875.18 1526 Q1880.97 1526 1884.35 1529.17 Q1887.73 1532.34 1887.73 1537.76 Q1887.73 1543.34 1884.26 1546.44 Q1880.79 1549.52 1874.47 1549.52 Q1872.29 1549.52 1870.02 1549.15 Q1867.78 1548.78 1865.37 1548.04 L1865.37 1543.34 Q1867.45 1544.47 1869.67 1545.03 Q1871.9 1545.58 1874.37 1545.58 Q1878.38 1545.58 1880.72 1543.48 Q1883.05 1541.37 1883.05 1537.76 Q1883.05 1534.15 1880.72 1532.04 Q1878.38 1529.94 1874.37 1529.94 Q1872.5 1529.94 1870.62 1530.35 Q1868.77 1530.77 1866.83 1531.65 L1866.83 1514.29 Z" fill="#000000" fill-rule="nonzero" fill-opacity="1" /><path clip-path="url(#clip970)" d="M2201.26 1529.7 Q2198.11 1529.7 2196.26 1531.86 Q2194.43 1534.01 2194.43 1537.76 Q2194.43 1541.49 2196.26 1543.66 Q2198.11 1545.82 2201.26 1545.82 Q2204.41 1545.82 2206.23 1543.66 Q2208.09 1541.49 2208.09 1537.76 Q2208.09 1534.01 2206.23 1531.86 Q2204.41 1529.7 2201.26 1529.7 M2210.54 1515.05 L2210.54 1519.31 Q2208.78 1518.48 2206.98 1518.04 Q2205.19 1517.6 2203.43 1517.6 Q2198.8 1517.6 2196.35 1520.72 Q2193.92 1523.85 2193.57 1530.17 Q2194.94 1528.15 2197 1527.09 Q2199.06 1526 2201.54 1526 Q2206.74 1526 2209.75 1529.17 Q2212.79 1532.32 2212.79 1537.76 Q2212.79 1543.08 2209.64 1546.3 Q2206.49 1549.52 2201.26 1549.52 Q2195.26 1549.52 2192.09 1544.94 Q2188.92 1540.33 2188.92 1531.6 Q2188.92 1523.41 2192.81 1518.55 Q2196.7 1513.66 2203.25 1513.66 Q2205.01 1513.66 2206.79 1514.01 Q2208.6 1514.36 2210.54 1515.05 Z" fill="#000000" fill-rule="nonzero" fill-opacity="1" /><polyline clip-path="url(#clip970)" style="stroke:#000000; stroke-linecap:round; stroke-linejoin:round; stroke-width:4; stroke-opacity:1; fill:none" points="193.936,1486.45 193.936,47.2441 "/>
<polyline clip-path="url(#clip970)" style="stroke:#000000; stroke-linecap:round; stroke-linejoin:round; stroke-width:4; stroke-opacity:1; fill:none" points="193.936,1308.38 212.834,1308.38 "/>
<polyline clip-path="url(#clip970)" style="stroke:#000000; stroke-linecap:round; stroke-linejoin:round; stroke-width:4; stroke-opacity:1; fill:none" points="193.936,1039.57 212.834,1039.57 "/>
<polyline clip-path="url(#clip970)" style="stroke:#000000; stroke-linecap:round; stroke-linejoin:round; stroke-width:4; stroke-opacity:1; fill:none" points="193.936,770.762 212.834,770.762 "/>
<polyline clip-path="url(#clip970)" style="stroke:#000000; stroke-linecap:round; stroke-linejoin:round; stroke-width:4; stroke-opacity:1; fill:none" points="193.936,501.955 212.834,501.955 "/>
<polyline clip-path="url(#clip970)" style="stroke:#000000; stroke-linecap:round; stroke-linejoin:round; stroke-width:4; stroke-opacity:1; fill:none" points="193.936,233.148 212.834,233.148 "/>
<path clip-path="url(#clip970)" d="M50.9921 1308.83 L80.6679 1308.83 L80.6679 1312.76 L50.9921 1312.76 L50.9921 1308.83 Z" fill="#000000" fill-rule="nonzero" fill-opacity="1" /><path clip-path="url(#clip970)" d="M91.5706 1321.72 L99.2095 1321.72 L99.2095 1295.36 L90.8993 1297.02 L90.8993 1292.76 L99.1632 1291.1 L103.839 1291.1 L103.839 1321.72 L111.478 1321.72 L111.478 1325.66 L91.5706 1325.66 L91.5706 1321.72 Z" fill="#000000" fill-rule="nonzero" fill-opacity="1" /><path clip-path="url(#clip970)" d="M120.922 1319.78 L125.807 1319.78 L125.807 1325.66 L120.922 1325.66 L120.922 1319.78 Z" fill="#000000" fill-rule="nonzero" fill-opacity="1" /><path clip-path="url(#clip970)" d="M145.992 1294.17 Q142.381 1294.17 140.552 1297.74 Q138.746 1301.28 138.746 1308.41 Q138.746 1315.52 140.552 1319.08 Q142.381 1322.62 145.992 1322.62 Q149.626 1322.62 151.431 1319.08 Q153.26 1315.52 153.26 1308.41 Q153.26 1301.28 151.431 1297.74 Q149.626 1294.17 145.992 1294.17 M145.992 1290.47 Q151.802 1290.47 154.857 1295.08 Q157.936 1299.66 157.936 1308.41 Q157.936 1317.14 154.857 1321.74 Q151.802 1326.33 145.992 1326.33 Q140.181 1326.33 137.103 1321.74 Q134.047 1317.14 134.047 1308.41 Q134.047 1299.66 137.103 1295.08 Q140.181 1290.47 145.992 1290.47 Z" fill="#000000" fill-rule="nonzero" fill-opacity="1" /><path clip-path="url(#clip970)" d="M51.9875 1040.02 L81.6633 1040.02 L81.6633 1043.96 L51.9875 1043.96 L51.9875 1040.02 Z" fill="#000000" fill-rule="nonzero" fill-opacity="1" /><path clip-path="url(#clip970)" d="M101.756 1025.37 Q98.1447 1025.37 96.316 1028.93 Q94.5104 1032.47 94.5104 1039.6 Q94.5104 1046.71 96.316 1050.27 Q98.1447 1053.82 101.756 1053.82 Q105.39 1053.82 107.196 1050.27 Q109.024 1046.71 109.024 1039.6 Q109.024 1032.47 107.196 1028.93 Q105.39 1025.37 101.756 1025.37 M101.756 1021.66 Q107.566 1021.66 110.621 1026.27 Q113.7 1030.85 113.7 1039.6 Q113.7 1048.33 110.621 1052.94 Q107.566 1057.52 101.756 1057.52 Q95.9456 1057.52 92.8669 1052.94 Q89.8114 1048.33 89.8114 1039.6 Q89.8114 1030.85 92.8669 1026.27 Q95.9456 1021.66 101.756 1021.66 Z" fill="#000000" fill-rule="nonzero" fill-opacity="1" /><path clip-path="url(#clip970)" d="M121.918 1050.97 L126.802 1050.97 L126.802 1056.85 L121.918 1056.85 L121.918 1050.97 Z" fill="#000000" fill-rule="nonzero" fill-opacity="1" /><path clip-path="url(#clip970)" d="M137.033 1022.29 L155.39 1022.29 L155.39 1026.22 L141.316 1026.22 L141.316 1034.7 Q142.334 1034.35 143.353 1034.19 Q144.371 1034 145.39 1034 Q151.177 1034 154.556 1037.17 Q157.936 1040.34 157.936 1045.76 Q157.936 1051.34 154.464 1054.44 Q150.992 1057.52 144.672 1057.52 Q142.496 1057.52 140.228 1057.15 Q137.982 1056.78 135.575 1056.04 L135.575 1051.34 Q137.658 1052.47 139.881 1053.03 Q142.103 1053.58 144.58 1053.58 Q148.584 1053.58 150.922 1051.48 Q153.26 1049.37 153.26 1045.76 Q153.26 1042.15 150.922 1040.04 Q148.584 1037.94 144.58 1037.94 Q142.705 1037.94 140.83 1038.35 Q138.978 1038.77 137.033 1039.65 L137.033 1022.29 Z" fill="#000000" fill-rule="nonzero" fill-opacity="1" /><path clip-path="url(#clip970)" d="M100.76 756.56 Q97.1493 756.56 95.3206 760.125 Q93.515 763.667 93.515 770.796 Q93.515 777.903 95.3206 781.468 Q97.1493 785.009 100.76 785.009 Q104.395 785.009 106.2 781.468 Q108.029 777.903 108.029 770.796 Q108.029 763.667 106.2 760.125 Q104.395 756.56 100.76 756.56 M100.76 752.857 Q106.571 752.857 109.626 757.463 Q112.705 762.047 112.705 770.796 Q112.705 779.523 109.626 784.13 Q106.571 788.713 100.76 788.713 Q94.9502 788.713 91.8715 784.13 Q88.816 779.523 88.816 770.796 Q88.816 762.047 91.8715 757.463 Q94.9502 752.857 100.76 752.857 Z" fill="#000000" fill-rule="nonzero" fill-opacity="1" /><path clip-path="url(#clip970)" d="M120.922 782.162 L125.807 782.162 L125.807 788.042 L120.922 788.042 L120.922 782.162 Z" fill="#000000" fill-rule="nonzero" fill-opacity="1" /><path clip-path="url(#clip970)" d="M145.992 756.56 Q142.381 756.56 140.552 760.125 Q138.746 763.667 138.746 770.796 Q138.746 777.903 140.552 781.468 Q142.381 785.009 145.992 785.009 Q149.626 785.009 151.431 781.468 Q153.26 777.903 153.26 770.796 Q153.26 763.667 151.431 760.125 Q149.626 756.56 145.992 756.56 M145.992 752.857 Q151.802 752.857 154.857 757.463 Q157.936 762.047 157.936 770.796 Q157.936 779.523 154.857 784.13 Q151.802 788.713 145.992 788.713 Q140.181 788.713 137.103 784.13 Q134.047 779.523 134.047 770.796 Q134.047 762.047 137.103 757.463 Q140.181 752.857 145.992 752.857 Z" fill="#000000" fill-rule="nonzero" fill-opacity="1" /><path clip-path="url(#clip970)" d="M101.756 487.753 Q98.1447 487.753 96.316 491.318 Q94.5104 494.86 94.5104 501.989 Q94.5104 509.096 96.316 512.661 Q98.1447 516.202 101.756 516.202 Q105.39 516.202 107.196 512.661 Q109.024 509.096 109.024 501.989 Q109.024 494.86 107.196 491.318 Q105.39 487.753 101.756 487.753 M101.756 484.05 Q107.566 484.05 110.621 488.656 Q113.7 493.239 113.7 501.989 Q113.7 510.716 110.621 515.323 Q107.566 519.906 101.756 519.906 Q95.9456 519.906 92.8669 515.323 Q89.8114 510.716 89.8114 501.989 Q89.8114 493.239 92.8669 488.656 Q95.9456 484.05 101.756 484.05 Z" fill="#000000" fill-rule="nonzero" fill-opacity="1" /><path clip-path="url(#clip970)" d="M121.918 513.355 L126.802 513.355 L126.802 519.235 L121.918 519.235 L121.918 513.355 Z" fill="#000000" fill-rule="nonzero" fill-opacity="1" /><path clip-path="url(#clip970)" d="M137.033 484.675 L155.39 484.675 L155.39 488.61 L141.316 488.61 L141.316 497.082 Q142.334 496.735 143.353 496.573 Q144.371 496.388 145.39 496.388 Q151.177 496.388 154.556 499.559 Q157.936 502.73 157.936 508.147 Q157.936 513.725 154.464 516.827 Q150.992 519.906 144.672 519.906 Q142.496 519.906 140.228 519.536 Q137.982 519.165 135.575 518.425 L135.575 513.725 Q137.658 514.86 139.881 515.415 Q142.103 515.971 144.58 515.971 Q148.584 515.971 150.922 513.864 Q153.26 511.758 153.26 508.147 Q153.26 504.536 150.922 502.429 Q148.584 500.323 144.58 500.323 Q142.705 500.323 140.83 500.739 Q138.978 501.156 137.033 502.036 L137.033 484.675 Z" fill="#000000" fill-rule="nonzero" fill-opacity="1" /><path clip-path="url(#clip970)" d="M91.5706 246.493 L99.2095 246.493 L99.2095 220.127 L90.8993 221.794 L90.8993 217.534 L99.1632 215.868 L103.839 215.868 L103.839 246.493 L111.478 246.493 L111.478 250.428 L91.5706 250.428 L91.5706 246.493 Z" fill="#000000" fill-rule="nonzero" fill-opacity="1" /><path clip-path="url(#clip970)" d="M120.922 244.548 L125.807 244.548 L125.807 250.428 L120.922 250.428 L120.922 244.548 Z" fill="#000000" fill-rule="nonzero" fill-opacity="1" /><path clip-path="url(#clip970)" d="M145.992 218.946 Q142.381 218.946 140.552 222.511 Q138.746 226.053 138.746 233.182 Q138.746 240.289 140.552 243.854 Q142.381 247.395 145.992 247.395 Q149.626 247.395 151.431 243.854 Q153.26 240.289 153.26 233.182 Q153.26 226.053 151.431 222.511 Q149.626 218.946 145.992 218.946 M145.992 215.243 Q151.802 215.243 154.857 219.849 Q157.936 224.432 157.936 233.182 Q157.936 241.909 154.857 246.516 Q151.802 251.099 145.992 251.099 Q140.181 251.099 137.103 246.516 Q134.047 241.909 134.047 233.182 Q134.047 224.432 137.103 219.849 Q140.181 215.243 145.992 215.243 Z" fill="#000000" fill-rule="nonzero" fill-opacity="1" /><polyline clip-path="url(#clip972)" style="stroke:#009af9; stroke-linecap:round; stroke-linejoin:round; stroke-width:4; stroke-opacity:1; fill:none" points="255.035,770.762 258.278,765.386 261.521,760.01 264.764,754.636 268.007,749.263 271.25,743.892 274.493,738.524 277.736,733.16 280.979,727.799 284.222,722.442 287.465,717.09 290.708,711.743 293.951,706.403 297.194,701.069 300.437,695.741 303.68,690.422 306.923,685.11 310.166,679.807 313.409,674.513 316.652,669.229 319.895,663.954 323.138,658.691 326.381,653.438 329.624,648.198 332.867,642.969 336.11,637.754 339.353,632.552 342.596,627.363 345.84,622.189 349.083,617.03 352.326,611.886 355.569,606.758 358.812,601.646 362.055,596.552 365.298,591.474 368.541,586.415 371.784,581.374 375.027,576.352 378.27,571.35 381.513,566.367 384.756,561.405 387.999,556.464 391.242,551.544 394.485,546.646 397.728,541.771 400.971,536.918 404.214,532.089 407.457,527.284 410.7,522.503 413.943,517.747 417.186,513.016 420.429,508.311 423.672,503.632 426.915,498.98 430.158,494.355 433.401,489.758 436.644,485.189 439.887,480.648 443.13,476.136 446.373,471.654 449.616,467.202 452.859,462.78 456.103,458.389 459.346,454.029 462.589,449.701 465.832,445.405 469.075,441.142 472.318,436.911 475.561,432.714 478.804,428.55 482.047,424.421 485.29,420.327 488.533,416.267 491.776,412.243 495.019,408.255 498.262,404.303 501.505,400.388 504.748,396.51 507.991,392.669 511.234,388.866 514.477,385.101 517.72,381.375 520.963,377.687 524.206,374.039 527.449,370.431 530.692,366.863 533.935,363.335 537.178,359.848 540.421,356.402 543.664,352.997 546.907,349.634 550.15,346.313 553.393,343.035 556.636,339.8 559.879,336.607 563.122,333.458 566.366,330.353 569.609,327.292 572.852,324.275 576.095,321.302 579.338,318.375 582.581,315.493 585.824,312.656 589.067,309.866 592.31,307.121 595.553,304.423 598.796,301.771 602.039,299.166 605.282,296.609 608.525,294.099 611.768,291.636 615.011,289.222 618.254,286.855 621.497,284.537 624.74,282.268 627.983,280.047 631.226,277.876 634.469,275.753 637.712,273.681 640.955,271.658 644.198,269.684 647.441,267.761 650.684,265.889 653.927,264.067 657.17,262.295 660.413,260.574 663.656,258.905 666.899,257.286 670.142,255.719 673.385,254.203 676.629,252.739 679.872,251.327 683.115,249.967 686.358,248.659 689.601,247.403 692.844,246.199 696.087,245.048 699.33,243.949 702.573,242.903 705.816,241.91 709.059,240.97 712.302,240.083 715.545,239.249 718.788,238.468 722.031,237.74 725.274,237.065 728.517,236.444 731.76,235.876 735.003,235.362 738.246,234.902 741.489,234.494 744.732,234.141 747.975,233.841 751.218,233.595 754.461,233.403 757.704,233.264 760.947,233.179 764.19,233.148 767.433,233.17 770.676,233.247 773.919,233.377 777.162,233.561 780.405,233.798 783.648,234.09 786.892,234.435 790.135,234.833 793.378,235.285 796.621,235.791 799.864,236.35 803.107,236.963 806.35,237.629 809.593,238.348 812.836,239.121 816.079,239.946 819.322,240.825 822.565,241.757 825.808,242.742 829.051,243.779 832.294,244.869 835.537,246.012 838.78,247.208 842.023,248.455 845.266,249.755 848.509,251.107 851.752,252.511 854.995,253.967 858.238,255.474 861.481,257.033 864.724,258.643 867.967,260.305 871.21,262.018 874.453,263.781 877.696,265.595 880.939,267.46 884.182,269.375 887.425,271.34 890.668,273.355 893.911,275.42 897.155,277.534 900.398,279.698 903.641,281.911 906.884,284.172 910.127,286.483 913.37,288.841 916.613,291.248 919.856,293.703 923.099,296.206 926.342,298.756 929.585,301.353 932.828,303.997 936.071,306.688 939.314,309.426 942.557,312.209 945.8,315.038 949.043,317.913 952.286,320.833 955.529,323.798 958.772,326.808 962.015,329.862 965.258,332.961 968.501,336.103 971.744,339.288 974.987,342.517 978.23,345.788 981.473,349.102 984.716,352.459 987.959,355.857 991.202,359.296 994.445,362.777 997.688,366.298 1000.93,369.86 1004.17,373.462 1007.42,377.104 1010.66,380.785 1013.9,384.505 1017.15,388.264 1020.39,392.061 1023.63,395.895 1026.88,399.768 1030.12,403.677 1033.36,407.623 1036.6,411.606 1039.85,415.624 1043.09,419.678 1046.33,423.767 1049.58,427.89 1052.82,432.048 1056.06,436.24 1059.31,440.466 1062.55,444.724 1065.79,449.015 1069.04,453.338 1072.28,457.693 1075.52,462.079 1078.76,466.496 1082.01,470.943 1085.25,475.421 1088.49,479.927 1091.74,484.464 1094.98,489.028 1098.22,493.621 1101.47,498.242 1104.71,502.889 1107.95,507.564 1111.19,512.265 1114.44,516.992 1117.68,521.744 1120.92,526.521 1124.17,531.322 1127.41,536.147 1130.65,540.996 1133.9,545.868 1137.14,550.762 1140.38,555.679 1143.62,560.617 1146.87,565.575 1150.11,570.555 1153.35,575.554 1156.6,580.573 1159.84,585.611 1163.08,590.667 1166.33,595.742 1169.57,600.834 1172.81,605.943 1176.06,611.068 1179.3,616.21 1182.54,621.366 1185.78,626.538 1189.03,631.724 1192.27,636.924 1195.51,642.138 1198.76,647.364 1202,652.603 1205.24,657.854 1208.49,663.115 1211.73,668.388 1214.97,673.671 1218.21,678.963 1221.46,684.265 1224.7,689.575 1227.94,694.894 1231.19,700.22 1234.43,705.553 1237.67,710.892 1240.92,716.238 1244.16,721.589 1247.4,726.945 1250.64,732.305 1253.89,737.67 1257.13,743.037 1260.37,748.407 1263.62,753.78 1266.86,759.154 1270.1,764.53 1273.35,769.906 1276.59,775.282 1279.83,780.657 1283.08,786.032 1286.32,791.405 1289.56,796.776 1292.8,802.145 1296.05,807.51 1299.29,812.871 1302.53,818.229 1305.78,823.582 1309.02,828.929 1312.26,834.271 1315.51,839.606 1318.75,844.934 1321.99,850.255 1325.23,855.568 1328.48,860.873 1331.72,866.168 1334.96,871.454 1338.21,876.73 1341.45,881.995 1344.69,887.249 1347.94,892.492 1351.18,897.722 1354.42,902.94 1357.66,908.144 1360.91,913.335 1364.15,918.511 1367.39,923.673 1370.64,928.819 1373.88,933.95 1377.12,939.064 1380.37,944.162 1383.61,949.242 1386.85,954.304 1390.1,959.348 1393.34,964.373 1396.58,969.378 1399.82,974.364 1403.07,979.33 1406.31,984.274 1409.55,989.197 1412.8,994.099 1416.04,998.978 1419.28,1003.83 1422.53,1008.67 1425.77,1013.48 1429.01,1018.26 1432.25,1023.02 1435.5,1027.76 1438.74,1032.47 1441.98,1037.15 1445.23,1041.8 1448.47,1046.43 1451.71,1051.04 1454.96,1055.61 1458.2,1060.15 1461.44,1064.67 1464.68,1069.16 1467.93,1073.61 1471.17,1078.04 1474.41,1082.44 1477.66,1086.8 1480.9,1091.14 1484.14,1095.44 1487.39,1099.71 1490.63,1103.94 1493.87,1108.14 1497.11,1112.31 1500.36,1116.45 1503.6,1120.55 1506.84,1124.61 1510.09,1128.64 1513.33,1132.64 1516.57,1136.59 1519.82,1140.51 1523.06,1144.4 1526.3,1148.25 1529.55,1152.05 1532.79,1155.83 1536.03,1159.56 1539.27,1163.25 1542.52,1166.91 1545.76,1170.52 1549,1174.1 1552.25,1177.63 1555.49,1181.12 1558.73,1184.58 1561.98,1187.99 1565.22,1191.36 1568.46,1194.68 1571.7,1197.97 1574.95,1201.21 1578.19,1204.41 1581.43,1207.57 1584.68,1210.68 1587.92,1213.75 1591.16,1216.77 1594.41,1219.75 1597.65,1222.69 1600.89,1225.57 1604.13,1228.42 1607.38,1231.22 1610.62,1233.97 1613.86,1236.67 1617.11,1239.33 1620.35,1241.95 1623.59,1244.51 1626.84,1247.03 1630.08,1249.5 1633.32,1251.92 1636.57,1254.29 1639.81,1256.62 1643.05,1258.9 1646.29,1261.13 1649.54,1263.31 1652.78,1265.44 1656.02,1267.52 1659.27,1269.55 1662.51,1271.53 1665.75,1273.46 1669,1275.34 1672.24,1277.17 1675.48,1278.95 1678.72,1280.68 1681.97,1282.36 1685.21,1283.98 1688.45,1285.56 1691.7,1287.08 1694.94,1288.55 1698.18,1289.97 1701.43,1291.34 1704.67,1292.66 1707.91,1293.92 1711.15,1295.14 1714.4,1296.3 1717.64,1297.4 1720.88,1298.46 1724.13,1299.46 1727.37,1300.41 1730.61,1301.3 1733.86,1302.15 1737.1,1302.94 1740.34,1303.67 1743.59,1304.35 1746.83,1304.98 1750.07,1305.56 1753.31,1306.08 1756.56,1306.55 1759.8,1306.97 1763.04,1307.33 1766.29,1307.64 1769.53,1307.89 1772.77,1308.09 1776.02,1308.24 1779.26,1308.33 1782.5,1308.37 1785.74,1308.36 1788.99,1308.29 1792.23,1308.17 1795.47,1308 1798.72,1307.77 1801.96,1307.48 1805.2,1307.15 1808.45,1306.76 1811.69,1306.31 1814.93,1305.82 1818.17,1305.27 1821.42,1304.66 1824.66,1304 1827.9,1303.29 1831.15,1302.53 1834.39,1301.71 1837.63,1300.84 1840.88,1299.92 1844.12,1298.94 1847.36,1297.91 1850.61,1296.83 1853.85,1295.7 1857.09,1294.51 1860.33,1293.27 1863.58,1291.98 1866.82,1290.64 1870.06,1289.24 1873.31,1287.79 1876.55,1286.29 1879.79,1284.74 1883.04,1283.14 1886.28,1281.49 1889.52,1279.78 1892.76,1278.03 1896.01,1276.22 1899.25,1274.36 1902.49,1272.46 1905.74,1270.5 1908.98,1268.49 1912.22,1266.44 1915.47,1264.33 1918.71,1262.17 1921.95,1259.97 1925.19,1257.71 1928.44,1255.41 1931.68,1253.06 1934.92,1250.66 1938.17,1248.21 1941.41,1245.72 1944.65,1243.18 1947.9,1240.59 1951.14,1237.95 1954.38,1235.27 1957.63,1232.54 1960.87,1229.76 1964.11,1226.94 1967.35,1224.07 1970.6,1221.16 1973.84,1218.2 1977.08,1215.2 1980.33,1212.15 1983.57,1209.06 1986.81,1205.92 1990.06,1202.75 1993.3,1199.52 1996.54,1196.26 1999.78,1192.95 2003.03,1189.6 2006.27,1186.21 2009.51,1182.78 2012.76,1179.3 2016,1175.79 2019.24,1172.23 2022.49,1168.64 2025.73,1165 2028.97,1161.33 2032.21,1157.61 2035.46,1153.86 2038.7,1150.07 2041.94,1146.24 2045.19,1142.38 2048.43,1138.47 2051.67,1134.53 2054.92,1130.55 2058.16,1126.54 2061.4,1122.49 2064.65,1118.41 2067.89,1114.29 2071.13,1110.14 2074.37,1105.95 2077.62,1101.73 2080.86,1097.48 2084.1,1093.19 2087.35,1088.88 2090.59,1084.53 2093.83,1080.15 2097.08,1075.73 2100.32,1071.29 2103.56,1066.82 2106.8,1062.32 2110.05,1057.78 2113.29,1053.22 2116.53,1048.64 2119.78,1044.02 2123.02,1039.38 2126.26,1034.71 2129.51,1030.01 2132.75,1025.29 2135.99,1020.54 2139.23,1015.77 2142.48,1010.97 2145.72,1006.15 2148.96,1001.3 2152.21,996.433 2155.45,991.542 2158.69,986.629 2161.94,981.695 2165.18,976.739 2168.42,971.763 2171.67,966.767 2174.91,961.751 2178.15,956.716 2181.39,951.663 2184.64,946.591 2187.88,941.502 2191.12,936.396 2194.37,931.273 2197.61,926.134 2200.85,920.979 2204.1,915.81 2207.34,910.626 2210.58,905.428 2213.82,900.217 2217.07,894.992 2220.31,889.756 2223.55,884.507 2226.8,879.247 2230.04,873.976 2233.28,868.695 2236.53,863.404 2239.77,858.104 2243.01,852.795 2246.25,847.477 2249.5,842.153 2252.74,836.821 2255.98,831.482 2259.23,826.137 2262.47,820.787 2265.71,815.432 2268.96,810.072 2272.2,804.708 2275.44,799.341 2278.69,793.972 2281.93,788.599 2285.17,783.225 2288.41,777.85 2291.66,772.474 "/>
<circle clip-path="url(#clip972)" cx="1539.27" cy="1097.7" r="14.4" fill="#e26f46" fill-rule="evenodd" fill-opacity="1" stroke="#000000" stroke-opacity="1" stroke-width="3.2"/>
<circle clip-path="url(#clip972)" cx="2006.27" cy="1113.36" r="14.4" fill="#e26f46" fill-rule="evenodd" fill-opacity="1" stroke="#000000" stroke-opacity="1" stroke-width="3.2"/>
<circle clip-path="url(#clip972)" cx="1834.39" cy="1193.32" r="14.4" fill="#e26f46" fill-rule="evenodd" fill-opacity="1" stroke="#000000" stroke-opacity="1" stroke-width="3.2"/>
<circle clip-path="url(#clip972)" cx="589.067" cy="297.087" r="14.4" fill="#e26f46" fill-rule="evenodd" fill-opacity="1" stroke="#000000" stroke-opacity="1" stroke-width="3.2"/>
<circle clip-path="url(#clip972)" cx="1552.25" cy="1265.92" r="14.4" fill="#e26f46" fill-rule="evenodd" fill-opacity="1" stroke="#000000" stroke-opacity="1" stroke-width="3.2"/>
<circle clip-path="url(#clip972)" cx="1847.36" cy="1342.53" r="14.4" fill="#e26f46" fill-rule="evenodd" fill-opacity="1" stroke="#000000" stroke-opacity="1" stroke-width="3.2"/>
<circle clip-path="url(#clip972)" cx="1788.99" cy="1248.97" r="14.4" fill="#e26f46" fill-rule="evenodd" fill-opacity="1" stroke="#000000" stroke-opacity="1" stroke-width="3.2"/>
<circle clip-path="url(#clip972)" cx="621.497" cy="383.749" r="14.4" fill="#e26f46" fill-rule="evenodd" fill-opacity="1" stroke="#000000" stroke-opacity="1" stroke-width="3.2"/>
<circle clip-path="url(#clip972)" cx="563.122" cy="242.508" r="14.4" fill="#e26f46" fill-rule="evenodd" fill-opacity="1" stroke="#000000" stroke-opacity="1" stroke-width="3.2"/>
<circle clip-path="url(#clip972)" cx="456.103" cy="497.277" r="14.4" fill="#e26f46" fill-rule="evenodd" fill-opacity="1" stroke="#000000" stroke-opacity="1" stroke-width="3.2"/>
<circle clip-path="url(#clip972)" cx="1448.47" cy="927.888" r="14.4" fill="#e26f46" fill-rule="evenodd" fill-opacity="1" stroke="#000000" stroke-opacity="1" stroke-width="3.2"/>
<circle clip-path="url(#clip972)" cx="1010.66" cy="354.176" r="14.4" fill="#e26f46" fill-rule="evenodd" fill-opacity="1" stroke="#000000" stroke-opacity="1" stroke-width="3.2"/>
<circle clip-path="url(#clip972)" cx="757.704" cy="264.172" r="14.4" fill="#e26f46" fill-rule="evenodd" fill-opacity="1" stroke="#000000" stroke-opacity="1" stroke-width="3.2"/>
<circle clip-path="url(#clip972)" cx="686.358" cy="292.912" r="14.4" fill="#e26f46" fill-rule="evenodd" fill-opacity="1" stroke="#000000" stroke-opacity="1" stroke-width="3.2"/>
<circle clip-path="url(#clip972)" cx="897.155" cy="252.618" r="14.4" fill="#e26f46" fill-rule="evenodd" fill-opacity="1" stroke="#000000" stroke-opacity="1" stroke-width="3.2"/>
<circle clip-path="url(#clip972)" cx="2161.94" cy="865.073" r="14.4" fill="#e26f46" fill-rule="evenodd" fill-opacity="1" stroke="#000000" stroke-opacity="1" stroke-width="3.2"/>
<circle clip-path="url(#clip972)" cx="1412.8" cy="1117.18" r="14.4" fill="#e26f46" fill-rule="evenodd" fill-opacity="1" stroke="#000000" stroke-opacity="1" stroke-width="3.2"/>
<circle clip-path="url(#clip972)" cx="2045.19" cy="1198.69" r="14.4" fill="#e26f46" fill-rule="evenodd" fill-opacity="1" stroke="#000000" stroke-opacity="1" stroke-width="3.2"/>
<circle clip-path="url(#clip972)" cx="1879.79" cy="1259.31" r="14.4" fill="#e26f46" fill-rule="evenodd" fill-opacity="1" stroke="#000000" stroke-opacity="1" stroke-width="3.2"/>
<circle clip-path="url(#clip972)" cx="582.581" cy="261.157" r="14.4" fill="#e26f46" fill-rule="evenodd" fill-opacity="1" stroke="#000000" stroke-opacity="1" stroke-width="3.2"/>
<path clip-path="url(#clip972)" d="M255.035 1042.49 L258.278 1038.24 L261.521 1033.93 L264.764 1029.56 L268.007 1025.13 L271.25 1020.64 L274.493 1016.09 L277.736 1011.48 L280.979 1006.81 L284.222 1002.07 L287.465 997.274 L290.708 992.415 L293.951 987.493 L297.194 982.509 L300.437 977.462 L303.68 972.353 L306.923 967.181 L310.166 961.946 L313.409 956.649 L316.652 951.289 L319.895 945.867 L323.138 940.383 L326.381 934.838 L329.624 929.231 L332.867 923.563 L336.11 917.834 L339.353 912.046 L342.596 906.198 L345.84 900.292 L349.083 894.328 L352.326 888.308 L355.569 882.232 L358.812 876.101 L362.055 869.918 L365.298 863.682 L368.541 857.396 L371.784 851.061 L375.027 844.68 L378.27 838.253 L381.513 831.783 L384.756 825.273 L387.999 818.724 L391.242 812.14 L394.485 805.523 L397.728 798.876 L400.971 792.202 L404.214 785.504 L407.457 778.787 L410.7 772.054 L413.943 765.308 L417.186 758.555 L420.429 751.798 L423.672 745.043 L426.915 738.293 L430.158 731.555 L433.401 724.834 L436.644 718.135 L439.887 711.463 L443.13 704.825 L446.373 698.227 L449.616 691.675 L452.859 685.174 L456.103 678.732 L459.346 672.352 L462.589 666.034 L465.832 659.773 L469.075 653.566 L472.318 647.411 L475.561 641.304 L478.804 635.242 L482.047 629.223 L485.29 623.244 L488.533 617.304 L491.776 611.401 L495.019 605.535 L498.262 599.705 L501.505 593.91 L504.748 588.154 L507.991 582.435 L511.234 576.758 L514.477 571.124 L517.72 565.539 L520.963 560.005 L524.206 554.53 L527.449 549.119 L530.692 543.78 L533.935 538.521 L537.178 533.351 L540.421 528.281 L543.664 523.323 L546.907 518.488 L550.15 513.791 L553.393 509.245 L556.636 504.865 L559.879 500.669 L563.122 496.672 L566.366 492.891 L569.609 489.331 L572.852 485.998 L576.095 482.897 L579.338 480.034 L582.581 477.416 L585.824 475.045 L589.067 472.918 L592.31 471.029 L595.553 469.364 L598.796 467.91 L602.039 466.651 L605.282 465.575 L608.525 464.667 L611.768 463.917 L615.011 463.311 L618.254 462.84 L621.497 462.492 L624.74 462.257 L627.983 462.124 L631.226 462.079 L634.469 462.113 L637.712 462.214 L640.955 462.374 L644.198 462.585 L647.441 462.839 L650.684 463.131 L653.927 463.456 L657.17 463.809 L660.413 464.188 L663.656 464.592 L666.899 465.018 L670.142 465.468 L673.385 465.941 L676.629 466.439 L679.872 466.965 L683.115 467.521 L686.358 468.11 L689.601 468.735 L692.844 469.392 L696.087 470.078 L699.33 470.787 L702.573 471.517 L705.816 472.265 L709.059 473.029 L712.302 473.806 L715.545 474.596 L718.788 475.398 L722.031 476.212 L725.274 477.039 L728.517 477.879 L731.76 478.734 L735.003 479.606 L738.246 480.497 L741.489 481.412 L744.732 482.352 L747.975 483.322 L751.218 484.326 L754.461 485.368 L757.704 486.452 L760.947 487.582 L764.19 488.753 L767.433 489.958 L770.676 491.191 L773.919 492.445 L777.162 493.715 L780.405 494.996 L783.648 496.283 L786.892 497.57 L790.135 498.855 L793.378 500.132 L796.621 501.398 L799.864 502.651 L803.107 503.888 L806.35 505.106 L809.593 506.305 L812.836 507.484 L816.079 508.641 L819.322 509.776 L822.565 510.89 L825.808 511.983 L829.051 513.057 L832.294 514.113 L835.537 515.154 L838.78 516.182 L842.023 517.201 L845.266 518.213 L848.509 519.224 L851.752 520.238 L854.995 521.259 L858.238 522.293 L861.481 523.347 L864.724 524.426 L867.967 525.538 L871.21 526.69 L874.453 527.889 L877.696 529.145 L880.939 530.464 L884.182 531.856 L887.425 533.331 L890.668 534.897 L893.911 536.564 L897.155 538.342 L900.398 540.238 L903.641 542.251 L906.884 544.374 L910.127 546.604 L913.37 548.937 L916.613 551.367 L919.856 553.892 L923.099 556.508 L926.342 559.211 L929.585 562 L932.828 564.871 L936.071 567.824 L939.314 570.856 L942.557 573.967 L945.8 577.157 L949.043 580.425 L952.286 583.773 L955.529 587.202 L958.772 590.712 L962.015 594.307 L965.258 597.988 L968.501 601.759 L971.744 605.624 L974.987 609.587 L978.23 613.651 L981.473 617.822 L984.716 622.105 L987.959 626.505 L991.202 631.027 L994.445 635.679 L997.688 640.466 L1000.93 645.395 L1004.17 650.471 L1007.42 655.702 L1010.66 661.094 L1013.9 666.651 L1017.15 672.366 L1020.39 678.229 L1023.63 684.231 L1026.88 690.363 L1030.12 696.613 L1033.36 702.975 L1036.6 709.438 L1039.85 715.993 L1043.09 722.632 L1046.33 729.347 L1049.58 736.13 L1052.82 742.972 L1056.06 749.866 L1059.31 756.806 L1062.55 763.783 L1065.79 770.792 L1069.04 777.825 L1072.28 784.878 L1075.52 791.943 L1078.76 799.017 L1082.01 806.092 L1085.25 813.165 L1088.49 820.23 L1091.74 827.284 L1094.98 834.32 L1098.22 841.337 L1101.47 848.329 L1104.71 855.293 L1107.95 862.225 L1111.19 869.122 L1114.44 875.981 L1117.68 882.799 L1120.92 889.573 L1124.17 896.301 L1127.41 902.979 L1130.65 909.605 L1133.9 916.178 L1137.14 922.694 L1140.38 929.153 L1143.62 935.55 L1146.87 941.886 L1150.11 948.158 L1153.35 954.365 L1156.6 960.505 L1159.84 966.576 L1163.08 972.577 L1166.33 978.506 L1169.57 984.363 L1172.81 990.146 L1176.06 995.854 L1179.3 1001.49 L1182.54 1007.04 L1185.78 1012.52 L1189.03 1017.92 L1192.27 1023.23 L1195.51 1028.47 L1198.76 1033.63 L1202 1038.7 L1205.24 1043.69 L1208.49 1048.6 L1211.73 1053.42 L1214.97 1058.16 L1218.21 1062.81 L1221.46 1067.38 L1224.7 1071.86 L1227.94 1076.25 L1231.19 1080.56 L1234.43 1084.78 L1237.67 1088.91 L1240.92 1092.96 L1244.16 1096.91 L1247.4 1100.78 L1250.64 1104.56 L1253.89 1108.25 L1257.13 1111.85 L1260.37 1115.36 L1263.62 1118.79 L1266.86 1122.12 L1270.1 1125.37 L1273.35 1128.53 L1276.59 1131.6 L1279.83 1134.58 L1283.08 1137.47 L1286.32 1140.28 L1289.56 1143 L1292.8 1145.63 L1296.05 1148.18 L1299.29 1150.64 L1302.53 1153.02 L1305.78 1155.31 L1309.02 1157.53 L1312.26 1159.66 L1315.51 1161.71 L1318.75 1163.68 L1321.99 1165.57 L1325.23 1167.39 L1328.48 1169.14 L1331.72 1170.81 L1334.96 1172.41 L1338.21 1173.94 L1341.45 1175.41 L1344.69 1176.82 L1347.94 1178.16 L1351.18 1179.45 L1354.42 1180.68 L1357.66 1181.87 L1360.91 1183.01 L1364.15 1184.1 L1367.39 1185.16 L1370.64 1186.19 L1373.88 1187.19 L1377.12 1188.17 L1380.37 1189.13 L1383.61 1190.08 L1386.85 1191.03 L1390.1 1191.98 L1393.34 1192.94 L1396.58 1193.92 L1399.82 1194.93 L1403.07 1195.97 L1406.31 1197.06 L1409.55 1198.2 L1412.8 1199.4 L1416.04 1200.67 L1419.28 1202.01 L1422.53 1203.43 L1425.77 1204.93 L1429.01 1206.53 L1432.25 1208.21 L1435.5 1210 L1438.74 1211.88 L1441.98 1213.88 L1445.23 1215.98 L1448.47 1218.2 L1451.71 1220.55 L1454.96 1223.01 L1458.2 1225.57 L1461.44 1228.22 L1464.68 1230.96 L1467.93 1233.78 L1471.17 1236.67 L1474.41 1239.62 L1477.66 1242.62 L1480.9 1245.68 L1484.14 1248.77 L1487.39 1251.91 L1490.63 1255.08 L1493.87 1258.29 L1497.11 1261.53 L1500.36 1264.79 L1503.6 1268.09 L1506.84 1271.41 L1510.09 1274.77 L1513.33 1278.16 L1516.57 1281.59 L1519.82 1285.05 L1523.06 1288.56 L1526.3 1292.12 L1529.55 1295.72 L1532.79 1299.38 L1536.03 1303.11 L1539.27 1306.9 L1542.52 1310.76 L1545.76 1314.68 L1549 1318.66 L1552.25 1322.7 L1555.49 1326.78 L1558.73 1330.89 L1561.98 1335.03 L1565.22 1339.19 L1568.46 1343.35 L1571.7 1347.51 L1574.95 1351.66 L1578.19 1355.78 L1581.43 1359.87 L1584.68 1363.92 L1587.92 1367.93 L1591.16 1371.89 L1594.41 1375.78 L1597.65 1379.61 L1600.89 1383.36 L1604.13 1387.04 L1607.38 1390.63 L1610.62 1394.13 L1613.86 1397.54 L1617.11 1400.85 L1620.35 1404.07 L1623.59 1407.17 L1626.84 1410.17 L1630.08 1413.06 L1633.32 1415.84 L1636.57 1418.5 L1639.81 1421.05 L1643.05 1423.47 L1646.29 1425.78 L1649.54 1427.96 L1652.78 1430.02 L1656.02 1431.95 L1659.27 1433.76 L1662.51 1435.44 L1665.75 1436.99 L1669 1438.41 L1672.24 1439.71 L1675.48 1440.88 L1678.72 1441.92 L1681.97 1442.84 L1685.21 1443.63 L1688.45 1444.29 L1691.7 1444.82 L1694.94 1445.23 L1698.18 1445.51 L1701.43 1445.68 L1704.67 1445.72 L1707.91 1445.64 L1711.15 1445.44 L1714.4 1445.12 L1717.64 1444.69 L1720.88 1444.15 L1724.13 1443.5 L1727.37 1442.74 L1730.61 1441.88 L1733.86 1440.92 L1737.1 1439.86 L1740.34 1438.71 L1743.59 1437.47 L1746.83 1436.15 L1750.07 1434.75 L1753.31 1433.28 L1756.56 1431.74 L1759.8 1430.13 L1763.04 1428.48 L1766.29 1426.77 L1769.53 1425.03 L1772.77 1423.26 L1776.02 1421.46 L1779.26 1419.65 L1782.5 1417.83 L1785.74 1416.02 L1788.99 1414.22 L1792.23 1412.45 L1795.47 1410.71 L1798.72 1409 L1801.96 1407.32 L1805.2 1405.68 L1808.45 1404.08 L1811.69 1402.52 L1814.93 1401.02 L1818.17 1399.56 L1821.42 1398.17 L1824.66 1396.84 L1827.9 1395.58 L1831.15 1394.4 L1834.39 1393.3 L1837.63 1392.29 L1840.88 1391.37 L1844.12 1390.52 L1847.36 1389.75 L1850.61 1389.05 L1853.85 1388.41 L1857.09 1387.82 L1860.33 1387.28 L1863.58 1386.78 L1866.82 1386.32 L1870.06 1385.87 L1873.31 1385.45 L1876.55 1385.04 L1879.79 1384.63 L1883.04 1384.23 L1886.28 1383.81 L1889.52 1383.37 L1892.76 1382.89 L1896.01 1382.37 L1899.25 1381.8 L1902.49 1381.17 L1905.74 1380.47 L1908.98 1379.69 L1912.22 1378.83 L1915.47 1377.88 L1918.71 1376.84 L1921.95 1375.7 L1925.19 1374.46 L1928.44 1373.11 L1931.68 1371.66 L1934.92 1370.1 L1938.17 1368.43 L1941.41 1366.65 L1944.65 1364.77 L1947.9 1362.77 L1951.14 1360.67 L1954.38 1358.47 L1957.63 1356.17 L1960.87 1353.77 L1964.11 1351.27 L1967.35 1348.69 L1970.6 1346.03 L1973.84 1343.28 L1977.08 1340.47 L1980.33 1337.59 L1983.57 1334.65 L1986.81 1331.67 L1990.06 1328.64 L1993.3 1325.59 L1996.54 1322.5 L1999.78 1319.41 L2003.03 1316.31 L2006.27 1313.22 L2009.51 1310.14 L2012.76 1307.08 L2016 1304.03 L2019.24 1301.01 L2022.49 1297.99 L2025.73 1295 L2028.97 1292.02 L2032.21 1289.05 L2035.46 1286.11 L2038.7 1283.19 L2041.94 1280.29 L2045.19 1277.41 L2048.43 1274.55 L2051.67 1271.71 L2054.92 1268.89 L2058.16 1266.08 L2061.4 1263.29 L2064.65 1260.51 L2067.89 1257.74 L2071.13 1254.97 L2074.37 1252.21 L2077.62 1249.46 L2080.86 1246.71 L2084.1 1243.98 L2087.35 1241.25 L2090.59 1238.53 L2093.83 1235.82 L2097.08 1233.13 L2100.32 1230.46 L2103.56 1227.81 L2106.8 1225.19 L2110.05 1222.6 L2113.29 1220.05 L2116.53 1217.55 L2119.78 1215.09 L2123.02 1212.69 L2126.26 1210.36 L2129.51 1208.1 L2132.75 1205.92 L2135.99 1203.83 L2139.23 1201.84 L2142.48 1199.95 L2145.72 1198.18 L2148.96 1196.54 L2152.21 1195.03 L2155.45 1193.67 L2158.69 1192.46 L2161.94 1191.42 L2165.18 1190.55 L2168.42 1189.84 L2171.67 1189.3 L2174.91 1188.9 L2178.15 1188.65 L2181.39 1188.53 L2184.64 1188.54 L2187.88 1188.68 L2191.12 1188.92 L2194.37 1189.28 L2197.61 1189.73 L2200.85 1190.28 L2204.1 1190.92 L2207.34 1191.63 L2210.58 1192.43 L2213.82 1193.29 L2217.07 1194.22 L2220.31 1195.21 L2223.55 1196.25 L2226.8 1197.35 L2230.04 1198.49 L2233.28 1199.67 L2236.53 1200.9 L2239.77 1202.15 L2243.01 1203.44 L2246.25 1204.76 L2249.5 1206.1 L2252.74 1207.46 L2255.98 1208.84 L2259.23 1210.24 L2262.47 1211.65 L2265.71 1213.07 L2268.96 1214.51 L2272.2 1215.95 L2275.44 1217.39 L2278.69 1218.84 L2281.93 1220.29 L2285.17 1221.75 L2288.41 1223.2 L2291.66 1224.65 L2291.66 483.679 L2288.41 488.355 L2285.17 493.094 L2281.93 497.898 L2278.69 502.765 L2275.44 507.696 L2272.2 512.689 L2268.96 517.745 L2265.71 522.863 L2262.47 528.042 L2259.23 533.281 L2255.98 538.579 L2252.74 543.936 L2249.5 549.349 L2246.25 554.818 L2243.01 560.342 L2239.77 565.917 L2236.53 571.544 L2233.28 577.22 L2230.04 582.942 L2226.8 588.709 L2223.55 594.518 L2220.31 600.366 L2217.07 606.251 L2213.82 612.169 L2210.58 618.118 L2207.34 624.093 L2204.1 630.091 L2200.85 636.109 L2197.61 642.141 L2194.37 648.185 L2191.12 654.234 L2187.88 660.286 L2184.64 666.334 L2181.39 672.373 L2178.15 678.4 L2174.91 684.407 L2171.67 690.39 L2168.42 696.344 L2165.18 702.263 L2161.94 708.142 L2158.69 713.978 L2155.45 719.771 L2152.21 725.525 L2148.96 731.244 L2145.72 736.931 L2142.48 742.589 L2139.23 748.221 L2135.99 753.832 L2132.75 759.422 L2129.51 764.996 L2126.26 770.555 L2123.02 776.102 L2119.78 781.638 L2116.53 787.164 L2113.29 792.681 L2110.05 798.189 L2106.8 803.689 L2103.56 809.179 L2100.32 814.658 L2097.08 820.124 L2093.83 825.576 L2090.59 831.009 L2087.35 836.42 L2084.1 841.806 L2080.86 847.162 L2077.62 852.481 L2074.37 857.758 L2071.13 862.987 L2067.89 868.16 L2064.65 873.269 L2061.4 878.307 L2058.16 883.265 L2054.92 888.132 L2051.67 892.901 L2048.43 897.56 L2045.19 902.1 L2041.94 906.512 L2038.7 910.8 L2035.46 914.966 L2032.21 919.017 L2028.97 922.956 L2025.73 926.787 L2022.49 930.514 L2019.24 934.14 L2016 937.668 L2012.76 941.101 L2009.51 944.442 L2006.27 947.693 L2003.03 950.858 L1999.78 953.945 L1996.54 956.966 L1993.3 959.929 L1990.06 962.845 L1986.81 965.723 L1983.57 968.572 L1980.33 971.399 L1977.08 974.212 L1973.84 977.018 L1970.6 979.824 L1967.35 982.634 L1964.11 985.454 L1960.87 988.289 L1957.63 991.141 L1954.38 994.014 L1951.14 996.91 L1947.9 999.83 L1944.65 1002.78 L1941.41 1005.75 L1938.17 1008.74 L1934.92 1011.76 L1931.68 1014.8 L1928.44 1017.86 L1925.19 1020.93 L1921.95 1024.01 L1918.71 1027.1 L1915.47 1030.18 L1912.22 1033.26 L1908.98 1036.32 L1905.74 1039.35 L1902.49 1042.35 L1899.25 1045.31 L1896.01 1048.21 L1892.76 1051.03 L1889.52 1053.78 L1886.28 1056.43 L1883.04 1058.97 L1879.79 1061.38 L1876.55 1063.65 L1873.31 1065.77 L1870.06 1067.73 L1866.82 1069.53 L1863.58 1071.16 L1860.33 1072.61 L1857.09 1073.87 L1853.85 1074.93 L1850.61 1075.79 L1847.36 1076.42 L1844.12 1076.83 L1840.88 1077.01 L1837.63 1076.98 L1834.39 1076.72 L1831.15 1076.26 L1827.9 1075.59 L1824.66 1074.72 L1821.42 1073.68 L1818.17 1072.45 L1814.93 1071.07 L1811.69 1069.52 L1808.45 1067.83 L1805.2 1065.99 L1801.96 1064.02 L1798.72 1061.92 L1795.47 1059.69 L1792.23 1057.35 L1788.99 1054.89 L1785.74 1052.32 L1782.5 1049.65 L1779.26 1046.91 L1776.02 1044.09 L1772.77 1041.22 L1769.53 1038.3 L1766.29 1035.34 L1763.04 1032.36 L1759.8 1029.37 L1756.56 1026.37 L1753.31 1023.38 L1750.07 1020.4 L1746.83 1017.44 L1743.59 1014.51 L1740.34 1011.61 L1737.1 1008.75 L1733.86 1005.94 L1730.61 1003.18 L1727.37 1000.48 L1724.13 997.844 L1720.88 995.269 L1717.64 992.765 L1714.4 990.333 L1711.15 987.977 L1707.91 985.7 L1704.67 983.504 L1701.43 981.392 L1698.18 979.366 L1694.94 977.426 L1691.7 975.574 L1688.45 973.812 L1685.21 972.14 L1681.97 970.559 L1678.72 969.069 L1675.48 967.67 L1672.24 966.361 L1669 965.142 L1665.75 964.014 L1662.51 962.973 L1659.27 962.02 L1656.02 961.152 L1652.78 960.368 L1649.54 959.667 L1646.29 959.044 L1643.05 958.498 L1639.81 958.026 L1636.57 957.625 L1633.32 957.291 L1630.08 957.02 L1626.84 956.807 L1623.59 956.649 L1620.35 956.54 L1617.11 956.475 L1613.86 956.449 L1610.62 956.454 L1607.38 956.484 L1604.13 956.532 L1600.89 956.591 L1597.65 956.652 L1594.41 956.708 L1591.16 956.747 L1587.92 956.762 L1584.68 956.742 L1581.43 956.676 L1578.19 956.552 L1574.95 956.36 L1571.7 956.085 L1568.46 955.717 L1565.22 955.24 L1561.98 954.642 L1558.73 953.908 L1555.49 953.023 L1552.25 951.974 L1549 950.748 L1545.76 949.343 L1542.52 947.762 L1539.27 946.007 L1536.03 944.08 L1532.79 941.99 L1529.55 939.747 L1526.3 937.36 L1523.06 934.838 L1519.82 932.192 L1516.57 929.428 L1513.33 926.555 L1510.09 923.58 L1506.84 920.51 L1503.6 917.351 L1500.36 914.107 L1497.11 910.783 L1493.87 907.382 L1490.63 903.906 L1487.39 900.357 L1484.14 896.736 L1480.9 893.041 L1477.66 889.273 L1474.41 885.429 L1471.17 881.505 L1467.93 877.499 L1464.68 873.405 L1461.44 869.22 L1458.2 864.936 L1454.96 860.548 L1451.71 856.049 L1448.47 851.433 L1445.23 846.693 L1441.98 841.825 L1438.74 836.825 L1435.5 831.69 L1432.25 826.417 L1429.01 821.001 L1425.77 815.439 L1422.53 809.725 L1419.28 803.857 L1416.04 797.828 L1412.8 791.635 L1409.55 785.276 L1406.31 778.759 L1403.07 772.097 L1399.82 765.302 L1396.58 758.385 L1393.34 751.357 L1390.1 744.229 L1386.85 737.011 L1383.61 729.714 L1380.37 722.346 L1377.12 714.917 L1373.88 707.435 L1370.64 699.908 L1367.39 692.345 L1364.15 684.752 L1360.91 677.137 L1357.66 669.506 L1354.42 661.864 L1351.18 654.219 L1347.94 646.575 L1344.69 638.938 L1341.45 631.312 L1338.21 623.703 L1334.96 616.113 L1331.72 608.548 L1328.48 601.01 L1325.23 593.504 L1321.99 586.033 L1318.75 578.6 L1315.51 571.208 L1312.26 563.86 L1309.02 556.558 L1305.78 549.305 L1302.53 542.102 L1299.29 534.953 L1296.05 527.859 L1292.8 520.822 L1289.56 513.843 L1286.32 506.925 L1283.08 500.069 L1279.83 493.276 L1276.59 486.548 L1273.35 479.886 L1270.1 473.291 L1266.86 466.765 L1263.62 460.308 L1260.37 453.921 L1257.13 447.606 L1253.89 441.362 L1250.64 435.192 L1247.4 429.096 L1244.16 423.073 L1240.92 417.126 L1237.67 411.255 L1234.43 405.46 L1231.19 399.742 L1227.94 394.101 L1224.7 388.538 L1221.46 383.053 L1218.21 377.646 L1214.97 372.319 L1211.73 367.07 L1208.49 361.901 L1205.24 356.812 L1202 351.803 L1198.76 346.874 L1195.51 342.026 L1192.27 337.258 L1189.03 332.571 L1185.78 327.964 L1182.54 323.438 L1179.3 318.993 L1176.06 314.628 L1172.81 310.345 L1169.57 306.141 L1166.33 302.019 L1163.08 297.976 L1159.84 294.014 L1156.6 290.132 L1153.35 286.329 L1150.11 282.606 L1146.87 278.962 L1143.62 275.396 L1140.38 271.908 L1137.14 268.498 L1133.9 265.165 L1130.65 261.908 L1127.41 258.726 L1124.17 255.62 L1120.92 252.587 L1117.68 249.627 L1114.44 246.739 L1111.19 243.921 L1107.95 241.173 L1104.71 238.493 L1101.47 235.88 L1098.22 233.332 L1094.98 230.847 L1091.74 228.424 L1088.49 226.061 L1085.25 223.755 L1082.01 221.504 L1078.76 219.305 L1075.52 217.157 L1072.28 215.057 L1069.04 213 L1065.79 210.985 L1062.55 209.008 L1059.31 207.066 L1056.06 205.154 L1052.82 203.269 L1049.58 201.407 L1046.33 199.563 L1043.09 197.733 L1039.85 195.913 L1036.6 194.097 L1033.36 192.28 L1030.12 190.458 L1026.88 188.625 L1023.63 186.775 L1020.39 184.905 L1017.15 183.008 L1013.9 181.078 L1010.66 179.112 L1007.42 177.105 L1004.17 175.061 L1000.93 172.984 L997.688 170.878 L994.445 168.749 L991.202 166.601 L987.959 164.439 L984.716 162.268 L981.473 160.093 L978.23 157.917 L974.987 155.746 L971.744 153.583 L968.501 151.433 L965.258 149.297 L962.015 147.181 L958.772 145.087 L955.529 143.016 L952.286 140.973 L949.043 138.958 L945.8 136.973 L942.557 135.019 L939.314 133.097 L936.071 131.207 L932.828 129.35 L929.585 127.525 L926.342 125.732 L923.099 123.97 L919.856 122.238 L916.613 120.533 L913.37 118.856 L910.127 117.203 L906.884 115.573 L903.641 113.964 L900.398 112.373 L897.155 110.799 L893.911 109.241 L890.668 107.702 L887.425 106.188 L884.182 104.704 L880.939 103.256 L877.696 101.849 L874.453 100.488 L871.21 99.1772 L867.967 97.922 L864.724 96.7265 L861.481 95.5948 L858.238 94.5307 L854.995 93.5376 L851.752 92.6188 L848.509 91.7772 L845.266 91.0152 L842.023 90.335 L838.78 89.7385 L835.537 89.2272 L832.294 88.8022 L829.051 88.4644 L825.808 88.2141 L822.565 88.0515 L819.322 87.9763 L816.079 87.9879 L812.836 88.0853 L809.593 88.2674 L806.35 88.5323 L803.107 88.8781 L799.864 89.3025 L796.621 89.8028 L793.378 90.376 L790.135 91.0187 L786.892 91.7273 L783.648 92.4978 L780.405 93.3258 L777.162 94.207 L773.919 95.1363 L770.676 96.1088 L767.433 97.1192 L764.19 98.1619 L760.947 99.2315 L757.704 100.322 L754.461 101.429 L751.218 102.555 L747.975 103.701 L744.732 104.871 L741.489 106.066 L738.246 107.289 L735.003 108.543 L731.76 109.828 L728.517 111.147 L725.274 112.5 L722.031 113.888 L718.788 115.311 L715.545 116.769 L712.302 118.261 L709.059 119.787 L705.816 121.345 L702.573 122.932 L699.33 124.547 L696.087 126.187 L692.844 127.848 L689.601 129.526 L686.358 131.218 L683.115 132.921 L679.872 134.637 L676.629 136.369 L673.385 138.12 L670.142 139.893 L666.899 141.688 L663.656 143.509 L660.413 145.354 L657.17 147.223 L653.927 149.116 L650.684 151.031 L647.441 152.964 L644.198 154.911 L640.955 156.869 L637.712 158.831 L634.469 160.791 L631.226 162.74 L627.983 164.672 L624.74 166.576 L621.497 168.442 L618.254 170.261 L615.011 172.032 L611.768 173.752 L608.525 175.421 L605.282 177.037 L602.039 178.597 L598.796 180.097 L595.553 181.535 L592.31 182.906 L589.067 184.206 L585.824 185.433 L582.581 186.588 L579.338 187.673 L576.095 188.694 L572.852 189.658 L569.609 190.572 L566.366 191.442 L563.122 192.274 L559.879 193.075 L556.636 193.853 L553.393 194.616 L550.15 195.371 L546.907 196.125 L543.664 196.886 L540.421 197.657 L537.178 198.443 L533.935 199.248 L530.692 200.075 L527.449 200.925 L524.206 201.799 L520.963 202.699 L517.72 203.622 L514.477 204.567 L511.234 205.533 L507.991 206.516 L504.748 207.513 L501.505 208.519 L498.262 209.529 L495.019 210.538 L491.776 211.54 L488.533 212.528 L485.29 213.495 L482.047 214.434 L478.804 215.336 L475.561 216.194 L472.318 217 L469.075 217.744 L465.832 218.417 L462.589 219.012 L459.346 219.519 L456.103 219.928 L452.859 220.235 L449.616 220.44 L446.373 220.551 L443.13 220.573 L439.887 220.512 L436.644 220.372 L433.401 220.161 L430.158 219.882 L426.915 219.541 L423.672 219.143 L420.429 218.693 L417.186 218.196 L413.943 217.655 L410.7 217.075 L407.457 216.461 L404.214 215.815 L400.971 215.141 L397.728 214.444 L394.485 213.725 L391.242 212.989 L387.999 212.238 L384.756 211.474 L381.513 210.7 L378.27 209.919 L375.027 209.133 L371.784 208.343 L368.541 207.552 L365.298 206.762 L362.055 205.974 L358.812 205.189 L355.569 204.409 L352.326 203.636 L349.083 202.871 L345.84 202.114 L342.596 201.368 L339.353 200.632 L336.11 199.907 L332.867 199.195 L329.624 198.496 L326.381 197.811 L323.138 197.141 L319.895 196.485 L316.652 195.844 L313.409 195.219 L310.166 194.611 L306.923 194.019 L303.68 193.443 L300.437 192.885 L297.194 192.343 L293.951 191.819 L290.708 191.313 L287.465 190.824 L284.222 190.352 L280.979 189.898 L277.736 189.462 L274.493 189.043 L271.25 188.641 L268.007 188.258 L264.764 187.891 L261.521 187.542 L258.278 187.21 L255.035 186.895  Z" fill="#3da44d" fill-rule="evenodd" fill-opacity="0.1"/>
<polyline clip-path="url(#clip972)" style="stroke:#3da44d; stroke-linecap:round; stroke-linejoin:round; stroke-width:8; stroke-opacity:1; fill:none" points="255.035,614.694 258.278,612.726 261.521,610.737 264.764,608.727 268.007,606.695 271.25,604.642 274.493,602.567 277.736,600.471 280.979,598.352 284.222,596.211 287.465,594.049 290.708,591.864 293.951,589.656 297.194,587.426 300.437,585.173 303.68,582.898 306.923,580.6 310.166,578.279 313.409,575.934 316.652,573.567 319.895,571.176 323.138,568.762 326.381,566.324 329.624,563.863 332.867,561.379 336.11,558.871 339.353,556.339 342.596,553.783 345.84,551.203 349.083,548.6 352.326,545.972 355.569,543.321 358.812,540.645 362.055,537.946 365.298,535.222 368.541,532.474 371.784,529.702 375.027,526.906 378.27,524.086 381.513,521.242 384.756,518.373 387.999,515.481 391.242,512.565 394.485,509.624 397.728,506.66 400.971,503.672 404.214,500.66 407.457,497.624 410.7,494.565 413.943,491.482 417.186,488.375 420.429,485.246 423.672,482.093 426.915,478.917 430.158,475.719 433.401,472.497 436.644,469.253 439.887,465.987 443.13,462.699 446.373,459.389 449.616,456.057 452.859,452.704 456.103,449.33 459.346,445.936 462.589,442.523 465.832,439.095 469.075,435.655 472.318,432.205 475.561,428.749 478.804,425.289 482.047,421.828 485.29,418.369 488.533,414.916 491.776,411.471 495.019,408.036 498.262,404.617 501.505,401.215 504.748,397.833 507.991,394.476 511.234,391.146 514.477,387.846 517.72,384.58 520.963,381.352 524.206,378.165 527.449,375.022 530.692,371.927 533.935,368.884 537.178,365.897 540.421,362.969 543.664,360.104 546.907,357.307 550.15,354.581 553.393,351.93 556.636,349.359 559.879,346.872 563.122,344.473 566.366,342.166 569.609,339.951 572.852,337.828 576.095,335.796 579.338,333.854 582.581,332.002 585.824,330.239 589.067,328.562 592.31,326.967 595.553,325.45 598.796,324.004 602.039,322.624 605.282,321.306 608.525,320.044 611.768,318.835 615.011,317.672 618.254,316.551 621.497,315.467 624.74,314.417 627.983,313.398 631.226,312.41 634.469,311.452 637.712,310.523 640.955,309.622 644.198,308.748 647.441,307.901 650.684,307.081 653.927,306.286 657.17,305.516 660.413,304.771 663.656,304.05 666.899,303.353 670.142,302.68 673.385,302.03 676.629,301.404 679.872,300.801 683.115,300.221 686.358,299.664 689.601,299.13 692.844,298.62 696.087,298.132 699.33,297.667 702.573,297.225 705.816,296.805 709.059,296.408 712.302,296.034 715.545,295.683 718.788,295.355 722.031,295.05 725.274,294.769 728.517,294.513 731.76,294.281 735.003,294.074 738.246,293.893 741.489,293.739 744.732,293.611 747.975,293.512 751.218,293.44 754.461,293.399 757.704,293.387 760.947,293.407 764.19,293.458 767.433,293.539 770.676,293.65 773.919,293.791 777.162,293.961 780.405,294.161 783.648,294.39 786.892,294.649 790.135,294.937 793.378,295.254 796.621,295.6 799.864,295.977 803.107,296.383 806.35,296.819 809.593,297.286 812.836,297.785 816.079,298.314 819.322,298.876 822.565,299.471 825.808,300.099 829.051,300.761 832.294,301.458 835.537,302.191 838.78,302.96 842.023,303.768 845.266,304.614 848.509,305.501 851.752,306.428 854.995,307.398 858.238,308.412 861.481,309.471 864.724,310.576 867.967,311.73 871.21,312.934 874.453,314.189 877.696,315.497 880.939,316.86 884.182,318.28 887.425,319.759 890.668,321.299 893.911,322.902 897.155,324.571 900.398,326.306 903.641,328.107 906.884,329.974 910.127,331.904 913.37,333.896 916.613,335.95 919.856,338.065 923.099,340.239 926.342,342.472 929.585,344.763 932.828,347.111 936.071,349.515 939.314,351.976 942.557,354.493 945.8,357.065 949.043,359.692 952.286,362.373 955.529,365.109 958.772,367.899 962.015,370.744 965.258,373.643 968.501,376.596 971.744,379.604 974.987,382.667 978.23,385.784 981.473,388.957 984.716,392.186 987.959,395.472 991.202,398.814 994.445,402.214 997.688,405.672 1000.93,409.189 1004.17,412.766 1007.42,416.404 1010.66,420.103 1013.9,423.865 1017.15,427.687 1020.39,431.567 1023.63,435.503 1026.88,439.494 1030.12,443.536 1033.36,447.627 1036.6,451.767 1039.85,455.953 1043.09,460.183 1046.33,464.455 1049.58,468.768 1052.82,473.121 1056.06,477.51 1059.31,481.936 1062.55,486.396 1065.79,490.889 1069.04,495.413 1072.28,499.967 1075.52,504.55 1078.76,509.161 1082.01,513.798 1085.25,518.46 1088.49,523.146 1091.74,527.854 1094.98,532.584 1098.22,537.334 1101.47,542.105 1104.71,546.893 1107.95,551.699 1111.19,556.522 1114.44,561.36 1117.68,566.213 1120.92,571.08 1124.17,575.96 1127.41,580.853 1130.65,585.757 1133.9,590.671 1137.14,595.596 1140.38,600.53 1143.62,605.473 1146.87,610.424 1150.11,615.382 1153.35,620.347 1156.6,625.318 1159.84,630.295 1163.08,635.276 1166.33,640.262 1169.57,645.252 1172.81,650.245 1176.06,655.241 1179.3,660.24 1182.54,665.24 1185.78,670.241 1189.03,675.243 1192.27,680.246 1195.51,685.249 1198.76,690.251 1202,695.252 1205.24,700.252 1208.49,705.25 1211.73,710.246 1214.97,715.239 1218.21,720.229 1221.46,725.216 1224.7,730.199 1227.94,735.177 1231.19,740.151 1234.43,745.12 1237.67,750.084 1240.92,755.042 1244.16,759.993 1247.4,764.938 1250.64,769.876 1253.89,774.806 1257.13,779.728 1260.37,784.642 1263.62,789.548 1266.86,794.444 1270.1,799.33 1273.35,804.206 1276.59,809.072 1279.83,813.927 1283.08,818.77 1286.32,823.602 1289.56,828.421 1292.8,833.227 1296.05,838.019 1299.29,842.797 1302.53,847.561 1305.78,852.31 1309.02,857.042 1312.26,861.759 1315.51,866.458 1318.75,871.14 1321.99,875.804 1325.23,880.448 1328.48,885.073 1331.72,889.678 1334.96,894.261 1338.21,898.823 1341.45,903.362 1344.69,907.877 1347.94,912.368 1351.18,916.834 1354.42,921.274 1357.66,925.687 1360.91,930.072 1364.15,934.428 1367.39,938.754 1370.64,943.048 1373.88,947.311 1377.12,951.541 1380.37,955.736 1383.61,959.896 1386.85,964.019 1390.1,968.103 1393.34,972.149 1396.58,976.154 1399.82,980.116 1403.07,984.035 1406.31,987.909 1409.55,991.737 1412.8,995.516 1416.04,999.247 1419.28,1002.93 1422.53,1006.58 1425.77,1010.19 1429.01,1013.76 1432.25,1017.32 1435.5,1020.84 1438.74,1024.35 1441.98,1027.85 1445.23,1031.34 1448.47,1034.82 1451.71,1038.3 1454.96,1041.78 1458.2,1045.25 1461.44,1048.72 1464.68,1052.18 1467.93,1055.64 1471.17,1059.09 1474.41,1062.52 1477.66,1065.95 1480.9,1069.36 1484.14,1072.75 1487.39,1076.13 1490.63,1079.49 1493.87,1082.83 1497.11,1086.15 1500.36,1089.45 1503.6,1092.72 1506.84,1095.96 1510.09,1099.18 1513.33,1102.36 1516.57,1105.51 1519.82,1108.62 1523.06,1111.7 1526.3,1114.74 1529.55,1117.73 1532.79,1120.69 1536.03,1123.59 1539.27,1126.45 1542.52,1129.26 1545.76,1132.01 1549,1134.71 1552.25,1137.34 1555.49,1139.9 1558.73,1142.4 1561.98,1144.84 1565.22,1147.22 1568.46,1149.53 1571.7,1151.8 1574.95,1154.01 1578.19,1156.17 1581.43,1158.27 1584.68,1160.33 1587.92,1162.35 1591.16,1164.32 1594.41,1166.24 1597.65,1168.13 1600.89,1169.98 1604.13,1171.78 1607.38,1173.56 1610.62,1175.29 1613.86,1176.99 1617.11,1178.66 1620.35,1180.3 1623.59,1181.91 1626.84,1183.49 1630.08,1185.04 1633.32,1186.57 1636.57,1188.06 1639.81,1189.54 1643.05,1190.99 1646.29,1192.41 1649.54,1193.81 1652.78,1195.19 1656.02,1196.55 1659.27,1197.89 1662.51,1199.2 1665.75,1200.5 1669,1201.78 1672.24,1203.04 1675.48,1204.28 1678.72,1205.5 1681.97,1206.7 1685.21,1207.88 1688.45,1209.05 1691.7,1210.2 1694.94,1211.33 1698.18,1212.44 1701.43,1213.53 1704.67,1214.61 1707.91,1215.67 1711.15,1216.71 1714.4,1217.73 1717.64,1218.73 1720.88,1219.71 1724.13,1220.67 1727.37,1221.61 1730.61,1222.53 1733.86,1223.43 1737.1,1224.31 1740.34,1225.16 1743.59,1225.99 1746.83,1226.8 1750.07,1227.57 1753.31,1228.33 1756.56,1229.05 1759.8,1229.75 1763.04,1230.42 1766.29,1231.06 1769.53,1231.66 1772.77,1232.24 1776.02,1232.77 1779.26,1233.28 1782.5,1233.74 1785.74,1234.17 1788.99,1234.56 1792.23,1234.9 1795.47,1235.2 1798.72,1235.46 1801.96,1235.67 1805.2,1235.84 1808.45,1235.95 1811.69,1236.02 1814.93,1236.04 1818.17,1236.01 1821.42,1235.92 1824.66,1235.78 1827.9,1235.58 1831.15,1235.33 1834.39,1235.01 1837.63,1234.63 1840.88,1234.19 1844.12,1233.67 1847.36,1233.08 1850.61,1232.42 1853.85,1231.67 1857.09,1230.85 1860.33,1229.95 1863.58,1228.97 1866.82,1227.93 1870.06,1226.8 1873.31,1225.61 1876.55,1224.34 1879.79,1223 1883.04,1221.6 1886.28,1220.12 1889.52,1218.57 1892.76,1216.96 1896.01,1215.29 1899.25,1213.56 1902.49,1211.76 1905.74,1209.91 1908.98,1208.01 1912.22,1206.05 1915.47,1204.03 1918.71,1201.97 1921.95,1199.86 1925.19,1197.7 1928.44,1195.49 1931.68,1193.23 1934.92,1190.93 1938.17,1188.59 1941.41,1186.2 1944.65,1183.77 1947.9,1181.3 1951.14,1178.79 1954.38,1176.24 1957.63,1173.65 1960.87,1171.03 1964.11,1168.36 1967.35,1165.66 1970.6,1162.92 1973.84,1160.15 1977.08,1157.34 1980.33,1154.49 1983.57,1151.61 1986.81,1148.7 1990.06,1145.74 1993.3,1142.76 1996.54,1139.74 1999.78,1136.68 2003.03,1133.58 2006.27,1130.46 2009.51,1127.29 2012.76,1124.09 2016,1120.85 2019.24,1117.57 2022.49,1114.25 2025.73,1110.89 2028.97,1107.49 2032.21,1104.04 2035.46,1100.54 2038.7,1096.99 2041.94,1093.4 2045.19,1089.75 2048.43,1086.05 2051.67,1082.31 2054.92,1078.51 2058.16,1074.67 2061.4,1070.8 2064.65,1066.89 2067.89,1062.95 2071.13,1058.98 2074.37,1054.98 2077.62,1050.97 2080.86,1046.94 2084.1,1042.89 2087.35,1038.83 2090.59,1034.77 2093.83,1030.7 2097.08,1026.63 2100.32,1022.56 2103.56,1018.5 2106.8,1014.44 2110.05,1010.4 2113.29,1006.37 2116.53,1002.36 2119.78,998.364 2123.02,994.397 2126.26,990.457 2129.51,986.548 2132.75,982.671 2135.99,978.83 2139.23,975.029 2142.48,971.27 2145.72,967.557 2148.96,963.892 2152.21,960.279 2155.45,956.72 2158.69,953.22 2161.94,949.781 2165.18,946.405 2168.42,943.093 2171.67,939.843 2174.91,936.653 2178.15,933.523 2181.39,930.452 2184.64,927.438 2187.88,924.481 2191.12,921.578 2194.37,918.731 2197.61,915.936 2200.85,913.194 2204.1,910.504 2207.34,907.863 2210.58,905.273 2213.82,902.73 2217.07,900.236 2220.31,897.788 2223.55,895.386 2226.8,893.029 2230.04,890.716 2233.28,888.447 2236.53,886.22 2239.77,884.035 2243.01,881.891 2246.25,879.787 2249.5,877.723 2252.74,875.697 2255.98,873.71 2259.23,871.76 2262.47,869.846 2265.71,867.968 2268.96,866.126 2272.2,864.318 2275.44,862.544 2278.69,860.804 2281.93,859.096 2285.17,857.42 2288.41,855.776 2291.66,854.163 "/>
<path clip-path="url(#clip970)" d="M1953.46 302.578 L2280.8 302.578 L2280.8 95.2176 L1953.46 95.2176  Z" fill="#ffffff" fill-rule="evenodd" fill-opacity="1"/>
<polyline clip-path="url(#clip970)" style="stroke:#000000; stroke-linecap:round; stroke-linejoin:round; stroke-width:4; stroke-opacity:1; fill:none" points="1953.46,302.578 2280.8,302.578 2280.8,95.2176 1953.46,95.2176 1953.46,302.578 "/>
<polyline clip-path="url(#clip970)" style="stroke:#009af9; stroke-linecap:round; stroke-linejoin:round; stroke-width:4; stroke-opacity:1; fill:none" points="1977.44,147.058 2121.36,147.058 "/>
<path clip-path="url(#clip970)" d="M2152.76 131.051 L2152.76 138.412 L2161.53 138.412 L2161.53 141.722 L2152.76 141.722 L2152.76 155.796 Q2152.76 158.967 2153.61 159.87 Q2154.49 160.773 2157.16 160.773 L2161.53 160.773 L2161.53 164.338 L2157.16 164.338 Q2152.23 164.338 2150.35 162.509 Q2148.48 160.657 2148.48 155.796 L2148.48 141.722 L2145.35 141.722 L2145.35 138.412 L2148.48 138.412 L2148.48 131.051 L2152.76 131.051 Z" fill="#000000" fill-rule="nonzero" fill-opacity="1" /><path clip-path="url(#clip970)" d="M2182.16 142.393 Q2181.44 141.977 2180.58 141.791 Q2179.75 141.583 2178.73 141.583 Q2175.12 141.583 2173.17 143.944 Q2171.25 146.282 2171.25 150.68 L2171.25 164.338 L2166.97 164.338 L2166.97 138.412 L2171.25 138.412 L2171.25 142.44 Q2172.6 140.078 2174.75 138.944 Q2176.9 137.787 2179.98 137.787 Q2180.42 137.787 2180.95 137.856 Q2181.48 137.903 2182.13 138.018 L2182.16 142.393 Z" fill="#000000" fill-rule="nonzero" fill-opacity="1" /><path clip-path="url(#clip970)" d="M2186.18 154.106 L2186.18 138.412 L2190.44 138.412 L2190.44 153.944 Q2190.44 157.625 2191.88 159.476 Q2193.31 161.305 2196.18 161.305 Q2199.63 161.305 2201.62 159.106 Q2203.64 156.907 2203.64 153.111 L2203.64 138.412 L2207.9 138.412 L2207.9 164.338 L2203.64 164.338 L2203.64 160.356 Q2202.09 162.717 2200.03 163.875 Q2197.99 165.009 2195.28 165.009 Q2190.81 165.009 2188.5 162.231 Q2186.18 159.453 2186.18 154.106 M2196.9 137.787 L2196.9 137.787 Z" fill="#000000" fill-rule="nonzero" fill-opacity="1" /><path clip-path="url(#clip970)" d="M2220.88 131.051 L2220.88 138.412 L2229.66 138.412 L2229.66 141.722 L2220.88 141.722 L2220.88 155.796 Q2220.88 158.967 2221.74 159.87 Q2222.62 160.773 2225.28 160.773 L2229.66 160.773 L2229.66 164.338 L2225.28 164.338 Q2220.35 164.338 2218.48 162.509 Q2216.6 160.657 2216.6 155.796 L2216.6 141.722 L2213.48 141.722 L2213.48 138.412 L2216.6 138.412 L2216.6 131.051 L2220.88 131.051 Z" fill="#000000" fill-rule="nonzero" fill-opacity="1" /><path clip-path="url(#clip970)" d="M2256.81 148.689 L2256.81 164.338 L2252.55 164.338 L2252.55 148.828 Q2252.55 145.148 2251.11 143.319 Q2249.68 141.49 2246.81 141.49 Q2243.36 141.49 2241.37 143.69 Q2239.38 145.889 2239.38 149.685 L2239.38 164.338 L2235.1 164.338 L2235.1 128.319 L2239.38 128.319 L2239.38 142.44 Q2240.91 140.102 2242.97 138.944 Q2245.05 137.787 2247.76 137.787 Q2252.23 137.787 2254.52 140.565 Q2256.81 143.319 2256.81 148.689 Z" fill="#000000" fill-rule="nonzero" fill-opacity="1" /><circle clip-path="url(#clip970)" cx="2049.4" cy="198.898" r="20.48" fill="#e26f46" fill-rule="evenodd" fill-opacity="1" stroke="#000000" stroke-opacity="1" stroke-width="4.55111"/>
<path clip-path="url(#clip970)" d="M2164.26 194.187 L2164.26 180.159 L2168.52 180.159 L2168.52 216.178 L2164.26 216.178 L2164.26 212.289 Q2162.92 214.603 2160.86 215.738 Q2158.82 216.849 2155.95 216.849 Q2151.25 216.849 2148.29 213.099 Q2145.35 209.349 2145.35 203.238 Q2145.35 197.127 2148.29 193.377 Q2151.25 189.627 2155.95 189.627 Q2158.82 189.627 2160.86 190.761 Q2162.92 191.872 2164.26 194.187 M2149.75 203.238 Q2149.75 207.937 2151.67 210.622 Q2153.61 213.284 2156.99 213.284 Q2160.37 213.284 2162.32 210.622 Q2164.26 207.937 2164.26 203.238 Q2164.26 198.539 2162.32 195.877 Q2160.37 193.192 2156.99 193.192 Q2153.61 193.192 2151.67 195.877 Q2149.75 198.539 2149.75 203.238 Z" fill="#000000" fill-rule="nonzero" fill-opacity="1" /><path clip-path="url(#clip970)" d="M2189.08 203.145 Q2183.92 203.145 2181.92 204.326 Q2179.93 205.506 2179.93 208.354 Q2179.93 210.622 2181.42 211.965 Q2182.92 213.284 2185.49 213.284 Q2189.03 213.284 2191.16 210.784 Q2193.31 208.261 2193.31 204.094 L2193.31 203.145 L2189.08 203.145 M2197.57 201.386 L2197.57 216.178 L2193.31 216.178 L2193.31 212.242 Q2191.85 214.603 2189.68 215.738 Q2187.5 216.849 2184.36 216.849 Q2180.37 216.849 2178.01 214.627 Q2175.67 212.381 2175.67 208.631 Q2175.67 204.256 2178.59 202.034 Q2181.53 199.812 2187.34 199.812 L2193.31 199.812 L2193.31 199.395 Q2193.31 196.455 2191.37 194.858 Q2189.45 193.238 2185.95 193.238 Q2183.73 193.238 2181.62 193.77 Q2179.52 194.303 2177.57 195.367 L2177.57 191.432 Q2179.91 190.53 2182.11 190.09 Q2184.31 189.627 2186.39 189.627 Q2192.02 189.627 2194.79 192.543 Q2197.57 195.46 2197.57 201.386 Z" fill="#000000" fill-rule="nonzero" fill-opacity="1" /><path clip-path="url(#clip970)" d="M2210.56 182.891 L2210.56 190.252 L2219.33 190.252 L2219.33 193.562 L2210.56 193.562 L2210.56 207.636 Q2210.56 210.807 2211.42 211.71 Q2212.29 212.613 2214.96 212.613 L2219.33 212.613 L2219.33 216.178 L2214.96 216.178 Q2210.03 216.178 2208.15 214.349 Q2206.28 212.497 2206.28 207.636 L2206.28 193.562 L2203.15 193.562 L2203.15 190.252 L2206.28 190.252 L2206.28 182.891 L2210.56 182.891 Z" fill="#000000" fill-rule="nonzero" fill-opacity="1" /><path clip-path="url(#clip970)" d="M2236.72 203.145 Q2231.55 203.145 2229.56 204.326 Q2227.57 205.506 2227.57 208.354 Q2227.57 210.622 2229.05 211.965 Q2230.56 213.284 2233.13 213.284 Q2236.67 213.284 2238.8 210.784 Q2240.95 208.261 2240.95 204.094 L2240.95 203.145 L2236.72 203.145 M2245.21 201.386 L2245.21 216.178 L2240.95 216.178 L2240.95 212.242 Q2239.49 214.603 2237.32 215.738 Q2235.14 216.849 2231.99 216.849 Q2228.01 216.849 2225.65 214.627 Q2223.31 212.381 2223.31 208.631 Q2223.31 204.256 2226.23 202.034 Q2229.17 199.812 2234.98 199.812 L2240.95 199.812 L2240.95 199.395 Q2240.95 196.455 2239.01 194.858 Q2237.09 193.238 2233.59 193.238 Q2231.37 193.238 2229.26 193.77 Q2227.16 194.303 2225.21 195.367 L2225.21 191.432 Q2227.55 190.53 2229.75 190.09 Q2231.95 189.627 2234.03 189.627 Q2239.66 189.627 2242.43 192.543 Q2245.21 195.46 2245.21 201.386 Z" fill="#000000" fill-rule="nonzero" fill-opacity="1" /><polyline clip-path="url(#clip970)" style="stroke:#3da44d; stroke-linecap:round; stroke-linejoin:round; stroke-width:8; stroke-opacity:1; fill:none" points="1977.44,250.738 2121.36,250.738 "/>
<path clip-path="url(#clip970)" d="M2170.91 263.087 L2170.91 253.805 L2163.27 253.805 L2163.27 249.962 L2175.54 249.962 L2175.54 264.8 Q2172.83 266.721 2169.56 267.717 Q2166.3 268.689 2162.6 268.689 Q2154.49 268.689 2149.91 263.967 Q2145.35 259.221 2145.35 250.772 Q2145.35 242.3 2149.91 237.578 Q2154.49 232.833 2162.6 232.833 Q2165.98 232.833 2169.01 233.666 Q2172.06 234.499 2174.63 236.12 L2174.63 241.096 Q2172.04 238.897 2169.12 237.786 Q2166.21 236.675 2162.99 236.675 Q2156.65 236.675 2153.45 240.217 Q2150.28 243.758 2150.28 250.772 Q2150.28 257.763 2153.45 261.305 Q2156.65 264.846 2162.99 264.846 Q2165.47 264.846 2167.41 264.43 Q2169.36 263.99 2170.91 263.087 Z" fill="#000000" fill-rule="nonzero" fill-opacity="1" /><path clip-path="url(#clip970)" d="M2188.75 237.3 L2188.75 250.286 L2194.63 250.286 Q2197.9 250.286 2199.68 248.596 Q2201.46 246.907 2201.46 243.782 Q2201.46 240.68 2199.68 238.99 Q2197.9 237.3 2194.63 237.3 L2188.75 237.3 M2184.08 233.458 L2194.63 233.458 Q2200.44 233.458 2203.41 236.096 Q2206.39 238.712 2206.39 243.782 Q2206.39 248.897 2203.41 251.513 Q2200.44 254.129 2194.63 254.129 L2188.75 254.129 L2188.75 268.018 L2184.08 268.018 L2184.08 233.458 Z" fill="#000000" fill-rule="nonzero" fill-opacity="1" /></svg>
