<?xml version="1.0" encoding="utf-8"?>
<svg xmlns="http://www.w3.org/2000/svg" xmlns:xlink="http://www.w3.org/1999/xlink" width="600" height="400" viewBox="0 0 2400 1600">
<defs>
  <clipPath id="clip640">
    <rect x="0" y="0" width="2400" height="1600"/>
  </clipPath>
</defs>
<path clip-path="url(#clip640)" d="M0 1600 L2400 1600 L2400 0 L0 0  Z" fill="#ffffff" fill-rule="evenodd" fill-opacity="1"/>
<defs>
  <clipPath id="clip641">
    <rect x="480" y="0" width="1681" height="1600"/>
  </clipPath>
</defs>
<path clip-path="url(#clip640)" d="M193.936 1486.45 L2352.76 1486.45 L2352.76 47.2441 L193.936 47.2441  Z" fill="#ffffff" fill-rule="evenodd" fill-opacity="1"/>
<defs>
  <clipPath id="clip642">
    <rect x="193" y="47" width="2160" height="1440"/>
  </clipPath>
</defs>
<polyline clip-path="url(#clip642)" style="stroke:#000000; stroke-linecap:round; stroke-linejoin:round; stroke-width:2; stroke-opacity:0.1; fill:none" points="255.035,1486.45 255.035,47.2441 "/>
<polyline clip-path="url(#clip642)" style="stroke:#000000; stroke-linecap:round; stroke-linejoin:round; stroke-width:2; stroke-opacity:0.1; fill:none" points="579.338,1486.45 579.338,47.2441 "/>
<polyline clip-path="url(#clip642)" style="stroke:#000000; stroke-linecap:round; stroke-linejoin:round; stroke-width:2; stroke-opacity:0.1; fill:none" points="903.641,1486.45 903.641,47.2441 "/>
<polyline clip-path="url(#clip642)" style="stroke:#000000; stroke-linecap:round; stroke-linejoin:round; stroke-width:2; stroke-opacity:0.1; fill:none" points="1227.94,1486.45 1227.94,47.2441 "/>
<polyline clip-path="url(#clip642)" style="stroke:#000000; stroke-linecap:round; stroke-linejoin:round; stroke-width:2; stroke-opacity:0.1; fill:none" points="1552.25,1486.45 1552.25,47.2441 "/>
<polyline clip-path="url(#clip642)" style="stroke:#000000; stroke-linecap:round; stroke-linejoin:round; stroke-width:2; stroke-opacity:0.1; fill:none" points="1876.55,1486.45 1876.55,47.2441 "/>
<polyline clip-path="url(#clip642)" style="stroke:#000000; stroke-linecap:round; stroke-linejoin:round; stroke-width:2; stroke-opacity:0.1; fill:none" points="2200.85,1486.45 2200.85,47.2441 "/>
<polyline clip-path="url(#clip642)" style="stroke:#000000; stroke-linecap:round; stroke-linejoin:round; stroke-width:2; stroke-opacity:0.1; fill:none" points="193.936,1316.69 2352.76,1316.69 "/>
<polyline clip-path="url(#clip642)" style="stroke:#000000; stroke-linecap:round; stroke-linejoin:round; stroke-width:2; stroke-opacity:0.1; fill:none" points="193.936,1064.64 2352.76,1064.64 "/>
<polyline clip-path="url(#clip642)" style="stroke:#000000; stroke-linecap:round; stroke-linejoin:round; stroke-width:2; stroke-opacity:0.1; fill:none" points="193.936,812.585 2352.76,812.585 "/>
<polyline clip-path="url(#clip642)" style="stroke:#000000; stroke-linecap:round; stroke-linejoin:round; stroke-width:2; stroke-opacity:0.1; fill:none" points="193.936,560.533 2352.76,560.533 "/>
<polyline clip-path="url(#clip642)" style="stroke:#000000; stroke-linecap:round; stroke-linejoin:round; stroke-width:2; stroke-opacity:0.1; fill:none" points="193.936,308.482 2352.76,308.482 "/>
<polyline clip-path="url(#clip642)" style="stroke:#000000; stroke-linecap:round; stroke-linejoin:round; stroke-width:2; stroke-opacity:0.1; fill:none" points="193.936,56.4299 2352.76,56.4299 "/>
<polyline clip-path="url(#clip640)" style="stroke:#000000; stroke-linecap:round; stroke-linejoin:round; stroke-width:4; stroke-opacity:1; fill:none" points="193.936,1486.45 2352.76,1486.45 "/>
<polyline clip-path="url(#clip640)" style="stroke:#000000; stroke-linecap:round; stroke-linejoin:round; stroke-width:4; stroke-opacity:1; fill:none" points="255.035,1486.45 255.035,1467.55 "/>
<polyline clip-path="url(#clip640)" style="stroke:#000000; stroke-linecap:round; stroke-linejoin:round; stroke-width:4; stroke-opacity:1; fill:none" points="579.338,1486.45 579.338,1467.55 "/>
<polyline clip-path="url(#clip640)" style="stroke:#000000; stroke-linecap:round; stroke-linejoin:round; stroke-width:4; stroke-opacity:1; fill:none" points="903.641,1486.45 903.641,1467.55 "/>
<polyline clip-path="url(#clip640)" style="stroke:#000000; stroke-linecap:round; stroke-linejoin:round; stroke-width:4; stroke-opacity:1; fill:none" points="1227.94,1486.45 1227.94,1467.55 "/>
<polyline clip-path="url(#clip640)" style="stroke:#000000; stroke-linecap:round; stroke-linejoin:round; stroke-width:4; stroke-opacity:1; fill:none" points="1552.25,1486.45 1552.25,1467.55 "/>
<polyline clip-path="url(#clip640)" style="stroke:#000000; stroke-linecap:round; stroke-linejoin:round; stroke-width:4; stroke-opacity:1; fill:none" points="1876.55,1486.45 1876.55,1467.55 "/>
<polyline clip-path="url(#clip640)" style="stroke:#000000; stroke-linecap:round; stroke-linejoin:round; stroke-width:4; stroke-opacity:1; fill:none" points="2200.85,1486.45 2200.85,1467.55 "/>
<path clip-path="url(#clip640)" d="M255.035 1517.37 Q251.424 1517.37 249.595 1520.93 Q247.789 1524.47 247.789 1531.6 Q247.789 1538.71 249.595 1542.27 Q251.424 1545.82 255.035 1545.82 Q258.669 1545.82 260.474 1542.27 Q262.303 1538.71 262.303 1531.6 Q262.303 1524.47 260.474 1520.93 Q258.669 1517.37 255.035 1517.37 M255.035 1513.66 Q260.845 1513.66 263.9 1518.27 Q266.979 1522.85 266.979 1531.6 Q266.979 1540.33 263.9 1544.94 Q260.845 1549.52 255.035 1549.52 Q249.225 1549.52 246.146 1544.94 Q243.09 1540.33 243.09 1531.6 Q243.09 1522.85 246.146 1518.27 Q249.225 1513.66 255.035 1513.66 Z" fill="#000000" fill-rule="nonzero" fill-opacity="1" /><path clip-path="url(#clip640)" d="M569.72 1544.91 L577.358 1544.91 L577.358 1518.55 L569.048 1520.21 L569.048 1515.95 L577.312 1514.29 L581.988 1514.29 L581.988 1544.91 L589.627 1544.91 L589.627 1548.85 L569.72 1548.85 L569.72 1544.91 Z" fill="#000000" fill-rule="nonzero" fill-opacity="1" /><path clip-path="url(#clip640)" d="M898.293 1544.91 L914.613 1544.91 L914.613 1548.85 L892.668 1548.85 L892.668 1544.91 Q895.33 1542.16 899.914 1537.53 Q904.52 1532.88 905.701 1531.53 Q907.946 1529.01 908.826 1527.27 Q909.729 1525.51 909.729 1523.82 Q909.729 1521.07 907.784 1519.33 Q905.863 1517.6 902.761 1517.6 Q900.562 1517.6 898.108 1518.36 Q895.678 1519.13 892.9 1520.68 L892.9 1515.95 Q895.724 1514.82 898.178 1514.24 Q900.631 1513.66 902.668 1513.66 Q908.039 1513.66 911.233 1516.35 Q914.428 1519.03 914.428 1523.52 Q914.428 1525.65 913.617 1527.57 Q912.83 1529.47 910.724 1532.07 Q910.145 1532.74 907.043 1535.95 Q903.942 1539.15 898.293 1544.91 Z" fill="#000000" fill-rule="nonzero" fill-opacity="1" /><path clip-path="url(#clip640)" d="M1232.19 1530.21 Q1235.55 1530.93 1237.42 1533.2 Q1239.32 1535.47 1239.32 1538.8 Q1239.32 1543.92 1235.8 1546.72 Q1232.28 1549.52 1225.8 1549.52 Q1223.63 1549.52 1221.31 1549.08 Q1219.02 1548.66 1216.57 1547.81 L1216.57 1543.29 Q1218.51 1544.43 1220.83 1545.01 Q1223.14 1545.58 1225.66 1545.58 Q1230.06 1545.58 1232.35 1543.85 Q1234.67 1542.11 1234.67 1538.8 Q1234.67 1535.75 1232.52 1534.03 Q1230.39 1532.3 1226.57 1532.3 L1222.54 1532.3 L1222.54 1528.45 L1226.75 1528.45 Q1230.2 1528.45 1232.03 1527.09 Q1233.86 1525.7 1233.86 1523.11 Q1233.86 1520.45 1231.96 1519.03 Q1230.08 1517.6 1226.57 1517.6 Q1224.64 1517.6 1222.45 1518.01 Q1220.25 1518.43 1217.61 1519.31 L1217.61 1515.14 Q1220.27 1514.4 1222.58 1514.03 Q1224.92 1513.66 1226.98 1513.66 Q1232.31 1513.66 1235.41 1516.09 Q1238.51 1518.5 1238.51 1522.62 Q1238.51 1525.49 1236.87 1527.48 Q1235.22 1529.45 1232.19 1530.21 Z" fill="#000000" fill-rule="nonzero" fill-opacity="1" /><path clip-path="url(#clip640)" d="M1555.26 1518.36 L1543.45 1536.81 L1555.26 1536.81 L1555.26 1518.36 M1554.03 1514.29 L1559.91 1514.29 L1559.91 1536.81 L1564.84 1536.81 L1564.84 1540.7 L1559.91 1540.7 L1559.91 1548.85 L1555.26 1548.85 L1555.26 1540.7 L1539.65 1540.7 L1539.65 1536.19 L1554.03 1514.29 Z" fill="#000000" fill-rule="nonzero" fill-opacity="1" /><path clip-path="url(#clip640)" d="M1866.83 1514.29 L1885.18 1514.29 L1885.18 1518.22 L1871.11 1518.22 L1871.11 1526.7 Q1872.13 1526.35 1873.15 1526.19 Q1874.17 1526 1875.18 1526 Q1880.97 1526 1884.35 1529.17 Q1887.73 1532.34 1887.73 1537.76 Q1887.73 1543.34 1884.26 1546.44 Q1880.79 1549.52 1874.47 1549.52 Q1872.29 1549.52 1870.02 1549.15 Q1867.78 1548.78 1865.37 1548.04 L1865.37 1543.34 Q1867.45 1544.47 1869.67 1545.03 Q1871.9 1545.58 1874.37 1545.58 Q1878.38 1545.58 1880.72 1543.48 Q1883.05 1541.37 1883.05 1537.76 Q1883.05 1534.15 1880.72 1532.04 Q1878.38 1529.94 1874.37 1529.94 Q1872.5 1529.94 1870.62 1530.35 Q1868.77 1530.77 1866.83 1531.65 L1866.83 1514.29 Z" fill="#000000" fill-rule="nonzero" fill-opacity="1" /><path clip-path="url(#clip640)" d="M2201.26 1529.7 Q2198.11 1529.7 2196.26 1531.86 Q2194.43 1534.01 2194.43 1537.76 Q2194.43 1541.49 2196.26 1543.66 Q2198.11 1545.82 2201.26 1545.82 Q2204.41 1545.82 2206.23 1543.66 Q2208.09 1541.49 2208.09 1537.76 Q2208.09 1534.01 2206.23 1531.86 Q2204.41 1529.7 2201.26 1529.7 M2210.54 1515.05 L2210.54 1519.31 Q2208.78 1518.48 2206.98 1518.04 Q2205.19 1517.6 2203.43 1517.6 Q2198.8 1517.6 2196.35 1520.72 Q2193.92 1523.85 2193.57 1530.17 Q2194.94 1528.15 2197 1527.09 Q2199.06 1526 2201.54 1526 Q2206.74 1526 2209.75 1529.17 Q2212.79 1532.32 2212.79 1537.76 Q2212.79 1543.08 2209.64 1546.3 Q2206.49 1549.52 2201.26 1549.52 Q2195.26 1549.52 2192.09 1544.94 Q2188.92 1540.33 2188.92 1531.6 Q2188.92 1523.41 2192.81 1518.55 Q2196.7 1513.66 2203.25 1513.66 Q2205.01 1513.66 2206.79 1514.01 Q2208.6 1514.36 2210.54 1515.05 Z" fill="#000000" fill-rule="nonzero" fill-opacity="1" /><polyline clip-path="url(#clip640)" style="stroke:#000000; stroke-linecap:round; stroke-linejoin:round; stroke-width:4; stroke-opacity:1; fill:none" points="193.936,1486.45 193.936,47.2441 "/>
<polyline clip-path="url(#clip640)" style="stroke:#000000; stroke-linecap:round; stroke-linejoin:round; stroke-width:4; stroke-opacity:1; fill:none" points="193.936,1316.69 212.834,1316.69 "/>
<polyline clip-path="url(#clip640)" style="stroke:#000000; stroke-linecap:round; stroke-linejoin:round; stroke-width:4; stroke-opacity:1; fill:none" points="193.936,1064.64 212.834,1064.64 "/>
<polyline clip-path="url(#clip640)" style="stroke:#000000; stroke-linecap:round; stroke-linejoin:round; stroke-width:4; stroke-opacity:1; fill:none" points="193.936,812.585 212.834,812.585 "/>
<polyline clip-path="url(#clip640)" style="stroke:#000000; stroke-linecap:round; stroke-linejoin:round; stroke-width:4; stroke-opacity:1; fill:none" points="193.936,560.533 212.834,560.533 "/>
<polyline clip-path="url(#clip640)" style="stroke:#000000; stroke-linecap:round; stroke-linejoin:round; stroke-width:4; stroke-opacity:1; fill:none" points="193.936,308.482 212.834,308.482 "/>
<polyline clip-path="url(#clip640)" style="stroke:#000000; stroke-linecap:round; stroke-linejoin:round; stroke-width:4; stroke-opacity:1; fill:none" points="193.936,56.4299 212.834,56.4299 "/>
<path clip-path="url(#clip640)" d="M50.9921 1317.14 L80.6679 1317.14 L80.6679 1321.07 L50.9921 1321.07 L50.9921 1317.14 Z" fill="#000000" fill-rule="nonzero" fill-opacity="1" /><path clip-path="url(#clip640)" d="M91.5706 1330.03 L99.2095 1330.03 L99.2095 1303.67 L90.8993 1305.33 L90.8993 1301.08 L99.1632 1299.41 L103.839 1299.41 L103.839 1330.03 L111.478 1330.03 L111.478 1333.97 L91.5706 1333.97 L91.5706 1330.03 Z" fill="#000000" fill-rule="nonzero" fill-opacity="1" /><path clip-path="url(#clip640)" d="M120.922 1328.09 L125.807 1328.09 L125.807 1333.97 L120.922 1333.97 L120.922 1328.09 Z" fill="#000000" fill-rule="nonzero" fill-opacity="1" /><path clip-path="url(#clip640)" d="M145.992 1302.49 Q142.381 1302.49 140.552 1306.05 Q138.746 1309.59 138.746 1316.72 Q138.746 1323.83 140.552 1327.39 Q142.381 1330.94 145.992 1330.94 Q149.626 1330.94 151.431 1327.39 Q153.26 1323.83 153.26 1316.72 Q153.26 1309.59 151.431 1306.05 Q149.626 1302.49 145.992 1302.49 M145.992 1298.78 Q151.802 1298.78 154.857 1303.39 Q157.936 1307.97 157.936 1316.72 Q157.936 1325.45 154.857 1330.06 Q151.802 1334.64 145.992 1334.64 Q140.181 1334.64 137.103 1330.06 Q134.047 1325.45 134.047 1316.72 Q134.047 1307.97 137.103 1303.39 Q140.181 1298.78 145.992 1298.78 Z" fill="#000000" fill-rule="nonzero" fill-opacity="1" /><path clip-path="url(#clip640)" d="M51.9875 1065.09 L81.6633 1065.09 L81.6633 1069.02 L51.9875 1069.02 L51.9875 1065.09 Z" fill="#000000" fill-rule="nonzero" fill-opacity="1" /><path clip-path="url(#clip640)" d="M101.756 1050.44 Q98.1447 1050.44 96.316 1054 Q94.5104 1057.54 94.5104 1064.67 Q94.5104 1071.78 96.316 1075.34 Q98.1447 1078.88 101.756 1078.88 Q105.39 1078.88 107.196 1075.34 Q109.024 1071.78 109.024 1064.67 Q109.024 1057.54 107.196 1054 Q105.39 1050.44 101.756 1050.44 M101.756 1046.73 Q107.566 1046.73 110.621 1051.34 Q113.7 1055.92 113.7 1064.67 Q113.7 1073.4 110.621 1078 Q107.566 1082.59 101.756 1082.59 Q95.9456 1082.59 92.8669 1078 Q89.8114 1073.4 89.8114 1064.67 Q89.8114 1055.92 92.8669 1051.34 Q95.9456 1046.73 101.756 1046.73 Z" fill="#000000" fill-rule="nonzero" fill-opacity="1" /><path clip-path="url(#clip640)" d="M121.918 1076.04 L126.802 1076.04 L126.802 1081.92 L121.918 1081.92 L121.918 1076.04 Z" fill="#000000" fill-rule="nonzero" fill-opacity="1" /><path clip-path="url(#clip640)" d="M137.033 1047.36 L155.39 1047.36 L155.39 1051.29 L141.316 1051.29 L141.316 1059.76 Q142.334 1059.42 143.353 1059.25 Q144.371 1059.07 145.39 1059.07 Q151.177 1059.07 154.556 1062.24 Q157.936 1065.41 157.936 1070.83 Q157.936 1076.41 154.464 1079.51 Q150.992 1082.59 144.672 1082.59 Q142.496 1082.59 140.228 1082.22 Q137.982 1081.85 135.575 1081.11 L135.575 1076.41 Q137.658 1077.54 139.881 1078.1 Q142.103 1078.65 144.58 1078.65 Q148.584 1078.65 150.922 1076.55 Q153.26 1074.44 153.26 1070.83 Q153.26 1067.22 150.922 1065.11 Q148.584 1063 144.58 1063 Q142.705 1063 140.83 1063.42 Q138.978 1063.84 137.033 1064.72 L137.033 1047.36 Z" fill="#000000" fill-rule="nonzero" fill-opacity="1" /><path clip-path="url(#clip640)" d="M100.76 798.384 Q97.1493 798.384 95.3206 801.949 Q93.515 805.49 93.515 812.62 Q93.515 819.726 95.3206 823.291 Q97.1493 826.833 100.76 826.833 Q104.395 826.833 106.2 823.291 Q108.029 819.726 108.029 812.62 Q108.029 805.49 106.2 801.949 Q104.395 798.384 100.76 798.384 M100.76 794.68 Q106.571 794.68 109.626 799.286 Q112.705 803.87 112.705 812.62 Q112.705 821.347 109.626 825.953 Q106.571 830.536 100.76 830.536 Q94.9502 830.536 91.8715 825.953 Q88.816 821.347 88.816 812.62 Q88.816 803.87 91.8715 799.286 Q94.9502 794.68 100.76 794.68 Z" fill="#000000" fill-rule="nonzero" fill-opacity="1" /><path clip-path="url(#clip640)" d="M120.922 823.985 L125.807 823.985 L125.807 829.865 L120.922 829.865 L120.922 823.985 Z" fill="#000000" fill-rule="nonzero" fill-opacity="1" /><path clip-path="url(#clip640)" d="M145.992 798.384 Q142.381 798.384 140.552 801.949 Q138.746 805.49 138.746 812.62 Q138.746 819.726 140.552 823.291 Q142.381 826.833 145.992 826.833 Q149.626 826.833 151.431 823.291 Q153.26 819.726 153.26 812.62 Q153.26 805.49 151.431 801.949 Q149.626 798.384 145.992 798.384 M145.992 794.68 Q151.802 794.68 154.857 799.286 Q157.936 803.87 157.936 812.62 Q157.936 821.347 154.857 825.953 Q151.802 830.536 145.992 830.536 Q140.181 830.536 137.103 825.953 Q134.047 821.347 134.047 812.62 Q134.047 803.87 137.103 799.286 Q140.181 794.68 145.992 794.68 Z" fill="#000000" fill-rule="nonzero" fill-opacity="1" /><path clip-path="url(#clip640)" d="M101.756 546.332 Q98.1447 546.332 96.316 549.897 Q94.5104 553.438 94.5104 560.568 Q94.5104 567.674 96.316 571.239 Q98.1447 574.781 101.756 574.781 Q105.39 574.781 107.196 571.239 Q109.024 567.674 109.024 560.568 Q109.024 553.438 107.196 549.897 Q105.39 546.332 101.756 546.332 M101.756 542.628 Q107.566 542.628 110.621 547.235 Q113.7 551.818 113.7 560.568 Q113.7 569.295 110.621 573.901 Q107.566 578.485 101.756 578.485 Q95.9456 578.485 92.8669 573.901 Q89.8114 569.295 89.8114 560.568 Q89.8114 551.818 92.8669 547.235 Q95.9456 542.628 101.756 542.628 Z" fill="#000000" fill-rule="nonzero" fill-opacity="1" /><path clip-path="url(#clip640)" d="M121.918 571.934 L126.802 571.934 L126.802 577.813 L121.918 577.813 L121.918 571.934 Z" fill="#000000" fill-rule="nonzero" fill-opacity="1" /><path clip-path="url(#clip640)" d="M137.033 543.253 L155.39 543.253 L155.39 547.188 L141.316 547.188 L141.316 555.661 Q142.334 555.313 143.353 555.151 Q144.371 554.966 145.39 554.966 Q151.177 554.966 154.556 558.138 Q157.936 561.309 157.936 566.725 Q157.936 572.304 154.464 575.406 Q150.992 578.485 144.672 578.485 Q142.496 578.485 140.228 578.114 Q137.982 577.744 135.575 577.003 L135.575 572.304 Q137.658 573.438 139.881 573.994 Q142.103 574.549 144.58 574.549 Q148.584 574.549 150.922 572.443 Q153.26 570.337 153.26 566.725 Q153.26 563.114 150.922 561.008 Q148.584 558.901 144.58 558.901 Q142.705 558.901 140.83 559.318 Q138.978 559.735 137.033 560.614 L137.033 543.253 Z" fill="#000000" fill-rule="nonzero" fill-opacity="1" /><path clip-path="url(#clip640)" d="M91.5706 321.826 L99.2095 321.826 L99.2095 295.461 L90.8993 297.128 L90.8993 292.868 L99.1632 291.202 L103.839 291.202 L103.839 321.826 L111.478 321.826 L111.478 325.762 L91.5706 325.762 L91.5706 321.826 Z" fill="#000000" fill-rule="nonzero" fill-opacity="1" /><path clip-path="url(#clip640)" d="M120.922 319.882 L125.807 319.882 L125.807 325.762 L120.922 325.762 L120.922 319.882 Z" fill="#000000" fill-rule="nonzero" fill-opacity="1" /><path clip-path="url(#clip640)" d="M145.992 294.28 Q142.381 294.28 140.552 297.845 Q138.746 301.387 138.746 308.516 Q138.746 315.623 140.552 319.188 Q142.381 322.729 145.992 322.729 Q149.626 322.729 151.431 319.188 Q153.26 315.623 153.26 308.516 Q153.26 301.387 151.431 297.845 Q149.626 294.28 145.992 294.28 M145.992 290.577 Q151.802 290.577 154.857 295.183 Q157.936 299.766 157.936 308.516 Q157.936 317.243 154.857 321.85 Q151.802 326.433 145.992 326.433 Q140.181 326.433 137.103 321.85 Q134.047 317.243 134.047 308.516 Q134.047 299.766 137.103 295.183 Q140.181 290.577 145.992 290.577 Z" fill="#000000" fill-rule="nonzero" fill-opacity="1" /><path clip-path="url(#clip640)" d="M92.566 69.7748 L100.205 69.7748 L100.205 43.4092 L91.8947 45.0758 L91.8947 40.8166 L100.159 39.1499 L104.834 39.1499 L104.834 69.7748 L112.473 69.7748 L112.473 73.7099 L92.566 73.7099 L92.566 69.7748 Z" fill="#000000" fill-rule="nonzero" fill-opacity="1" /><path clip-path="url(#clip640)" d="M121.918 67.8303 L126.802 67.8303 L126.802 73.7099 L121.918 73.7099 L121.918 67.8303 Z" fill="#000000" fill-rule="nonzero" fill-opacity="1" /><path clip-path="url(#clip640)" d="M137.033 39.1499 L155.39 39.1499 L155.39 43.0851 L141.316 43.0851 L141.316 51.5573 Q142.334 51.21 143.353 51.048 Q144.371 50.8628 145.39 50.8628 Q151.177 50.8628 154.556 54.0341 Q157.936 57.2054 157.936 62.622 Q157.936 68.2007 154.464 71.3025 Q150.992 74.3812 144.672 74.3812 Q142.496 74.3812 140.228 74.0109 Q137.982 73.6405 135.575 72.8997 L135.575 68.2007 Q137.658 69.335 139.881 69.8905 Q142.103 70.4461 144.58 70.4461 Q148.584 70.4461 150.922 68.3396 Q153.26 66.2331 153.26 62.622 Q153.26 59.0109 150.922 56.9045 Q148.584 54.798 144.58 54.798 Q142.705 54.798 140.83 55.2147 Q138.978 55.6313 137.033 56.5109 L137.033 39.1499 Z" fill="#000000" fill-rule="nonzero" fill-opacity="1" /><polyline clip-path="url(#clip642)" style="stroke:#009af9; stroke-linecap:round; stroke-linejoin:round; stroke-width:4; stroke-opacity:1; fill:none" points="255.035,812.585 258.278,807.544 261.521,802.504 264.764,797.464 268.007,792.426 271.25,787.39 274.493,782.357 277.736,777.327 280.979,772.3 284.222,767.277 287.465,762.259 290.708,757.245 293.951,752.238 297.194,747.236 300.437,742.241 303.68,737.253 306.923,732.272 310.166,727.3 313.409,722.336 316.652,717.381 319.895,712.435 323.138,707.5 326.381,702.575 329.624,697.661 332.867,692.758 336.11,687.868 339.353,682.99 342.596,678.125 345.84,673.273 349.083,668.436 352.326,663.612 355.569,658.804 358.812,654.011 362.055,649.234 365.298,644.473 368.541,639.729 371.784,635.002 375.027,630.293 378.27,625.603 381.513,620.931 384.756,616.278 387.999,611.645 391.242,607.032 394.485,602.439 397.728,597.868 400.971,593.317 404.214,588.789 407.457,584.284 410.7,579.801 413.943,575.341 417.186,570.905 420.429,566.493 423.672,562.106 426.915,557.744 430.158,553.407 433.401,549.097 436.644,544.812 439.887,540.555 443.13,536.324 446.373,532.122 449.616,527.947 452.859,523.801 456.103,519.683 459.346,515.595 462.589,511.537 465.832,507.509 469.075,503.511 472.318,499.544 475.561,495.608 478.804,491.704 482.047,487.833 485.29,483.993 488.533,480.187 491.776,476.414 495.019,472.674 498.262,468.969 501.505,465.297 504.748,461.661 507.991,458.059 511.234,454.494 514.477,450.963 517.72,447.469 520.963,444.012 524.206,440.591 527.449,437.208 530.692,433.862 533.935,430.554 537.178,427.284 540.421,424.053 543.664,420.861 546.907,417.707 550.15,414.594 553.393,411.52 556.636,408.486 559.879,405.492 563.122,402.54 566.366,399.628 569.609,396.757 572.852,393.928 576.095,391.141 579.338,388.397 582.581,385.694 585.824,383.034 589.067,380.418 592.31,377.844 595.553,375.314 598.796,372.828 602.039,370.385 605.282,367.987 608.525,365.633 611.768,363.324 615.011,361.06 618.254,358.841 621.497,356.668 624.74,354.54 627.983,352.458 631.226,350.421 634.469,348.432 637.712,346.488 640.955,344.591 644.198,342.741 647.441,340.938 650.684,339.182 653.927,337.473 657.17,335.812 660.413,334.199 663.656,332.633 666.899,331.115 670.142,329.646 673.385,328.225 676.629,326.852 679.872,325.528 683.115,324.252 686.358,323.026 689.601,321.848 692.844,320.72 696.087,319.64 699.33,318.61 702.573,317.629 705.816,316.698 709.059,315.816 712.302,314.985 715.545,314.202 718.788,313.47 722.031,312.788 725.274,312.155 728.517,311.573 731.76,311.04 735.003,310.558 738.246,310.126 741.489,309.744 744.732,309.413 747.975,309.132 751.218,308.901 754.461,308.721 757.704,308.591 760.947,308.511 764.19,308.482 767.433,308.503 770.676,308.575 773.919,308.697 777.162,308.869 780.405,309.092 783.648,309.365 786.892,309.688 790.135,310.062 793.378,310.486 796.621,310.96 799.864,311.484 803.107,312.059 806.35,312.683 809.593,313.358 812.836,314.082 816.079,314.857 819.322,315.681 822.565,316.554 825.808,317.478 829.051,318.451 832.294,319.473 835.537,320.544 838.78,321.665 842.023,322.835 845.266,324.054 848.509,325.322 851.752,326.638 854.995,328.003 858.238,329.416 861.481,330.878 864.724,332.388 867.967,333.946 871.21,335.552 874.453,337.205 877.696,338.907 880.939,340.655 884.182,342.451 887.425,344.293 890.668,346.183 893.911,348.119 897.155,350.101 900.398,352.13 903.641,354.205 906.884,356.326 910.127,358.492 913.37,360.704 916.613,362.961 919.856,365.263 923.099,367.609 926.342,370 929.585,372.436 932.828,374.915 936.071,377.438 939.314,380.005 942.557,382.615 945.8,385.268 949.043,387.963 952.286,390.702 955.529,393.482 958.772,396.304 962.015,399.168 965.258,402.073 968.501,405.019 971.744,408.006 974.987,411.034 978.23,414.101 981.473,417.209 984.716,420.356 987.959,423.542 991.202,426.767 994.445,430.031 997.688,433.333 1000.93,436.672 1004.17,440.05 1007.42,443.465 1010.66,446.916 1013.9,450.404 1017.15,453.929 1020.39,457.489 1023.63,461.085 1026.88,464.716 1030.12,468.382 1033.36,472.082 1036.6,475.816 1039.85,479.584 1043.09,483.385 1046.33,487.219 1049.58,491.086 1052.82,494.984 1056.06,498.915 1059.31,502.877 1062.55,506.87 1065.79,510.893 1069.04,514.947 1072.28,519.03 1075.52,523.143 1078.76,527.285 1082.01,531.455 1085.25,535.653 1088.49,539.879 1091.74,544.132 1094.98,548.412 1098.22,552.719 1101.47,557.052 1104.71,561.41 1107.95,565.793 1111.19,570.201 1114.44,574.633 1117.68,579.089 1120.92,583.568 1124.17,588.07 1127.41,592.595 1130.65,597.141 1133.9,601.71 1137.14,606.299 1140.38,610.909 1143.62,615.539 1146.87,620.188 1150.11,624.857 1153.35,629.545 1156.6,634.251 1159.84,638.975 1163.08,643.716 1166.33,648.475 1169.57,653.249 1172.81,658.04 1176.06,662.845 1179.3,667.666 1182.54,672.502 1185.78,677.351 1189.03,682.214 1192.27,687.09 1195.51,691.979 1198.76,696.879 1202,701.791 1205.24,706.715 1208.49,711.648 1211.73,716.592 1214.97,721.546 1218.21,726.508 1221.46,731.48 1224.7,736.459 1227.94,741.446 1231.19,746.44 1234.43,751.441 1237.67,756.447 1240.92,761.46 1244.16,766.477 1247.4,771.5 1250.64,776.526 1253.89,781.556 1257.13,786.589 1260.37,791.624 1263.62,796.662 1266.86,801.701 1270.1,806.741 1273.35,811.782 1276.59,816.823 1279.83,821.864 1283.08,826.903 1286.32,831.942 1289.56,836.978 1292.8,842.012 1296.05,847.043 1299.29,852.07 1302.53,857.093 1305.78,862.112 1309.02,867.127 1312.26,872.135 1315.51,877.138 1318.75,882.134 1321.99,887.123 1325.23,892.105 1328.48,897.079 1331.72,902.044 1334.96,907.001 1338.21,911.948 1341.45,916.885 1344.69,921.812 1347.94,926.727 1351.18,931.632 1354.42,936.524 1357.66,941.404 1360.91,946.271 1364.15,951.125 1367.39,955.965 1370.64,960.791 1373.88,965.601 1377.12,970.397 1380.37,975.176 1383.61,979.94 1386.85,984.687 1390.1,989.416 1393.34,994.128 1396.58,998.821 1399.82,1003.5 1403.07,1008.15 1406.31,1012.79 1409.55,1017.41 1412.8,1022 1416.04,1026.58 1419.28,1031.13 1422.53,1035.66 1425.77,1040.17 1429.01,1044.66 1432.25,1049.12 1435.5,1053.56 1438.74,1057.98 1441.98,1062.37 1445.23,1066.73 1448.47,1071.07 1451.71,1075.39 1454.96,1079.68 1458.2,1083.94 1461.44,1088.17 1464.68,1092.38 1467.93,1096.56 1471.17,1100.71 1474.41,1104.83 1477.66,1108.93 1480.9,1112.99 1484.14,1117.02 1487.39,1121.02 1490.63,1125 1493.87,1128.94 1497.11,1132.85 1500.36,1136.72 1503.6,1140.57 1506.84,1144.38 1510.09,1148.16 1513.33,1151.9 1516.57,1155.61 1519.82,1159.29 1523.06,1162.93 1526.3,1166.54 1529.55,1170.11 1532.79,1173.65 1536.03,1177.15 1539.27,1180.61 1542.52,1184.04 1545.76,1187.43 1549,1190.78 1552.25,1194.09 1555.49,1197.37 1558.73,1200.61 1561.98,1203.8 1565.22,1206.96 1568.46,1210.08 1571.7,1213.16 1574.95,1216.2 1578.19,1219.2 1581.43,1222.16 1584.68,1225.08 1587.92,1227.96 1591.16,1230.79 1594.41,1233.59 1597.65,1236.34 1600.89,1239.05 1604.13,1241.71 1607.38,1244.34 1610.62,1246.92 1613.86,1249.46 1617.11,1251.95 1620.35,1254.4 1623.59,1256.8 1626.84,1259.16 1630.08,1261.48 1633.32,1263.75 1636.57,1265.98 1639.81,1268.16 1643.05,1270.29 1646.29,1272.38 1649.54,1274.43 1652.78,1276.42 1656.02,1278.38 1659.27,1280.28 1662.51,1282.14 1665.75,1283.95 1669,1285.71 1672.24,1287.43 1675.48,1289.1 1678.72,1290.72 1681.97,1292.29 1685.21,1293.82 1688.45,1295.29 1691.7,1296.72 1694.94,1298.1 1698.18,1299.43 1701.43,1300.72 1704.67,1301.95 1707.91,1303.14 1711.15,1304.27 1714.4,1305.36 1717.64,1306.4 1720.88,1307.39 1724.13,1308.33 1727.37,1309.22 1730.61,1310.06 1733.86,1310.85 1737.1,1311.59 1740.34,1312.28 1743.59,1312.92 1746.83,1313.51 1750.07,1314.05 1753.31,1314.54 1756.56,1314.98 1759.8,1315.37 1763.04,1315.71 1766.29,1316 1769.53,1316.24 1772.77,1316.42 1776.02,1316.56 1779.26,1316.65 1782.5,1316.69 1785.74,1316.67 1788.99,1316.61 1792.23,1316.5 1795.47,1316.33 1798.72,1316.12 1801.96,1315.85 1805.2,1315.54 1808.45,1315.17 1811.69,1314.76 1814.93,1314.29 1818.17,1313.77 1821.42,1313.21 1824.66,1312.59 1827.9,1311.92 1831.15,1311.21 1834.39,1310.44 1837.63,1309.62 1840.88,1308.76 1844.12,1307.84 1847.36,1306.88 1850.61,1305.86 1853.85,1304.8 1857.09,1303.69 1860.33,1302.52 1863.58,1301.31 1866.82,1300.05 1870.06,1298.75 1873.31,1297.39 1876.55,1295.98 1879.79,1294.53 1883.04,1293.03 1886.28,1291.48 1889.52,1289.88 1892.76,1288.23 1896.01,1286.54 1899.25,1284.8 1902.49,1283.01 1905.74,1281.17 1908.98,1279.29 1912.22,1277.36 1915.47,1275.39 1918.71,1273.37 1921.95,1271.3 1925.19,1269.19 1928.44,1267.03 1931.68,1264.82 1934.92,1262.57 1938.17,1260.28 1941.41,1257.94 1944.65,1255.55 1947.9,1253.13 1951.14,1250.65 1954.38,1248.14 1957.63,1245.58 1960.87,1242.97 1964.11,1240.33 1967.35,1237.64 1970.6,1234.91 1973.84,1232.13 1977.08,1229.32 1980.33,1226.46 1983.57,1223.56 1986.81,1220.62 1990.06,1217.64 1993.3,1214.62 1996.54,1211.56 1999.78,1208.46 2003.03,1205.32 2006.27,1202.14 2009.51,1198.92 2012.76,1195.66 2016,1192.37 2019.24,1189.03 2022.49,1185.66 2025.73,1182.25 2028.97,1178.81 2032.21,1175.32 2035.46,1171.8 2038.7,1168.25 2041.94,1164.66 2045.19,1161.03 2048.43,1157.37 2051.67,1153.68 2054.92,1149.95 2058.16,1146.19 2061.4,1142.39 2064.65,1138.56 2067.89,1134.7 2071.13,1130.81 2074.37,1126.88 2077.62,1122.93 2080.86,1118.94 2084.1,1114.92 2087.35,1110.87 2090.59,1106.79 2093.83,1102.68 2097.08,1098.55 2100.32,1094.38 2103.56,1090.19 2106.8,1085.97 2110.05,1081.72 2113.29,1077.44 2116.53,1073.14 2119.78,1068.81 2123.02,1064.46 2126.26,1060.08 2129.51,1055.67 2132.75,1051.24 2135.99,1046.79 2139.23,1042.32 2142.48,1037.82 2145.72,1033.3 2148.96,1028.75 2152.21,1024.19 2155.45,1019.6 2158.69,1015 2161.94,1010.37 2165.18,1005.72 2168.42,1001.06 2171.67,996.373 2174.91,991.67 2178.15,986.948 2181.39,982.21 2184.64,977.454 2187.88,972.683 2191.12,967.895 2194.37,963.091 2197.61,958.272 2200.85,953.439 2204.1,948.592 2207.34,943.731 2210.58,938.857 2213.82,933.971 2217.07,929.072 2220.31,924.162 2223.55,919.24 2226.8,914.308 2230.04,909.366 2233.28,904.414 2236.53,899.453 2239.77,894.483 2243.01,889.505 2246.25,884.519 2249.5,879.526 2252.74,874.526 2255.98,869.52 2259.23,864.509 2262.47,859.492 2265.71,854.471 2268.96,849.445 2272.2,844.416 2275.44,839.383 2278.69,834.348 2281.93,829.311 2285.17,824.272 2288.41,819.232 2291.66,814.191 "/>
<circle clip-path="url(#clip642)" cx="1837.63" cy="1336.89" r="14.4" fill="#e26f46" fill-rule="evenodd" fill-opacity="1" stroke="#000000" stroke-opacity="1" stroke-width="3.2"/>
<circle clip-path="url(#clip642)" cx="1698.18" cy="1251.14" r="14.4" fill="#e26f46" fill-rule="evenodd" fill-opacity="1" stroke="#000000" stroke-opacity="1" stroke-width="3.2"/>
<circle clip-path="url(#clip642)" cx="316.652" cy="718.755" r="14.4" fill="#e26f46" fill-rule="evenodd" fill-opacity="1" stroke="#000000" stroke-opacity="1" stroke-width="3.2"/>
<circle clip-path="url(#clip642)" cx="1082.01" cy="546.183" r="14.4" fill="#e26f46" fill-rule="evenodd" fill-opacity="1" stroke="#000000" stroke-opacity="1" stroke-width="3.2"/>
<circle clip-path="url(#clip642)" cx="326.381" cy="662.789" r="14.4" fill="#e26f46" fill-rule="evenodd" fill-opacity="1" stroke="#000000" stroke-opacity="1" stroke-width="3.2"/>
<circle clip-path="url(#clip642)" cx="1377.12" cy="868.455" r="14.4" fill="#e26f46" fill-rule="evenodd" fill-opacity="1" stroke="#000000" stroke-opacity="1" stroke-width="3.2"/>
<circle clip-path="url(#clip642)" cx="511.234" cy="406.26" r="14.4" fill="#e26f46" fill-rule="evenodd" fill-opacity="1" stroke="#000000" stroke-opacity="1" stroke-width="3.2"/>
<circle clip-path="url(#clip642)" cx="1480.9" cy="1078.21" r="14.4" fill="#e26f46" fill-rule="evenodd" fill-opacity="1" stroke="#000000" stroke-opacity="1" stroke-width="3.2"/>
<circle clip-path="url(#clip642)" cx="1523.06" cy="1038.54" r="14.4" fill="#e26f46" fill-rule="evenodd" fill-opacity="1" stroke="#000000" stroke-opacity="1" stroke-width="3.2"/>
<circle clip-path="url(#clip642)" cx="893.911" cy="311.894" r="14.4" fill="#e26f46" fill-rule="evenodd" fill-opacity="1" stroke="#000000" stroke-opacity="1" stroke-width="3.2"/>
<circle clip-path="url(#clip642)" cx="1373.88" cy="945.494" r="14.4" fill="#e26f46" fill-rule="evenodd" fill-opacity="1" stroke="#000000" stroke-opacity="1" stroke-width="3.2"/>
<circle clip-path="url(#clip642)" cx="874.453" cy="251.337" r="14.4" fill="#e26f46" fill-rule="evenodd" fill-opacity="1" stroke="#000000" stroke-opacity="1" stroke-width="3.2"/>
<circle clip-path="url(#clip642)" cx="1552.25" cy="1201.5" r="14.4" fill="#e26f46" fill-rule="evenodd" fill-opacity="1" stroke="#000000" stroke-opacity="1" stroke-width="3.2"/>
<circle clip-path="url(#clip642)" cx="1853.85" cy="1259.87" r="14.4" fill="#e26f46" fill-rule="evenodd" fill-opacity="1" stroke="#000000" stroke-opacity="1" stroke-width="3.2"/>
<circle clip-path="url(#clip642)" cx="2233.28" cy="947.933" r="14.4" fill="#e26f46" fill-rule="evenodd" fill-opacity="1" stroke="#000000" stroke-opacity="1" stroke-width="3.2"/>
<circle clip-path="url(#clip642)" cx="2071.13" cy="1154.62" r="14.4" fill="#e26f46" fill-rule="evenodd" fill-opacity="1" stroke="#000000" stroke-opacity="1" stroke-width="3.2"/>
<circle clip-path="url(#clip642)" cx="336.11" cy="650.507" r="14.4" fill="#e26f46" fill-rule="evenodd" fill-opacity="1" stroke="#000000" stroke-opacity="1" stroke-width="3.2"/>
<circle clip-path="url(#clip642)" cx="371.784" cy="567.863" r="14.4" fill="#e26f46" fill-rule="evenodd" fill-opacity="1" stroke="#000000" stroke-opacity="1" stroke-width="3.2"/>
<circle clip-path="url(#clip642)" cx="1954.38" cy="1325.32" r="14.4" fill="#e26f46" fill-rule="evenodd" fill-opacity="1" stroke="#000000" stroke-opacity="1" stroke-width="3.2"/>
<circle clip-path="url(#clip642)" cx="280.979" cy="725.366" r="14.4" fill="#e26f46" fill-rule="evenodd" fill-opacity="1" stroke="#000000" stroke-opacity="1" stroke-width="3.2"/>
<path clip-path="url(#clip642)" d="M255.035 913.462 L258.278 907.293 L261.521 901.137 L264.764 895.006 L268.007 888.907 L271.25 882.854 L274.493 876.856 L277.736 870.926 L280.979 865.078 L284.222 859.324 L287.465 853.673 L290.708 848.131 L293.951 842.707 L297.194 837.41 L300.437 832.25 L303.68 827.236 L306.923 822.379 L310.166 817.691 L313.409 813.18 L316.652 808.86 L319.895 804.739 L323.138 800.824 L326.381 797.119 L329.624 793.627 L332.867 790.346 L336.11 787.273 L339.353 784.399 L342.596 781.716 L345.84 779.21 L349.083 776.869 L352.326 774.681 L355.569 772.636 L358.812 770.722 L362.055 768.93 L365.298 767.253 L368.541 765.681 L371.784 764.208 L375.027 762.828 L378.27 761.526 L381.513 760.289 L384.756 759.103 L387.999 757.957 L391.242 756.839 L394.485 755.741 L397.728 754.653 L400.971 753.567 L404.214 752.477 L407.457 751.376 L410.7 750.26 L413.943 749.124 L417.186 747.966 L420.429 746.782 L423.672 745.571 L426.915 744.331 L430.158 743.062 L433.401 741.765 L436.644 740.439 L439.887 739.087 L443.13 737.71 L446.373 736.311 L449.616 734.893 L452.859 733.459 L456.103 732.014 L459.346 730.561 L462.589 729.106 L465.832 727.654 L469.075 726.211 L472.318 724.783 L475.561 723.377 L478.804 721.999 L482.047 720.656 L485.29 719.357 L488.533 718.109 L491.776 716.92 L495.019 715.798 L498.262 714.752 L501.505 713.789 L504.748 712.919 L507.991 712.15 L511.234 711.491 L514.477 710.947 L517.72 710.513 L520.963 710.183 L524.206 709.948 L527.449 709.801 L530.692 709.734 L533.935 709.74 L537.178 709.812 L540.421 709.942 L543.664 710.123 L546.907 710.349 L550.15 710.613 L553.393 710.909 L556.636 711.23 L559.879 711.571 L563.122 711.926 L566.366 712.289 L569.609 712.654 L572.852 713.018 L576.095 713.375 L579.338 713.72 L582.581 714.049 L585.824 714.358 L589.067 714.643 L592.31 714.899 L595.553 715.124 L598.796 715.314 L602.039 715.466 L605.282 715.576 L608.525 715.641 L611.768 715.66 L615.011 715.629 L618.254 715.545 L621.497 715.407 L624.74 715.213 L627.983 714.959 L631.226 714.646 L634.469 714.27 L637.712 713.83 L640.955 713.324 L644.198 712.752 L647.441 712.112 L650.684 711.402 L653.927 710.622 L657.17 709.771 L660.413 708.848 L663.656 707.852 L666.899 706.783 L670.142 705.639 L673.385 704.421 L676.629 703.129 L679.872 701.761 L683.115 700.318 L686.358 698.8 L689.601 697.207 L692.844 695.54 L696.087 693.797 L699.33 691.98 L702.573 690.089 L705.816 688.125 L709.059 686.088 L712.302 683.979 L715.545 681.799 L718.788 679.549 L722.031 677.23 L725.274 674.843 L728.517 672.39 L731.76 669.872 L735.003 667.29 L738.246 664.647 L741.489 661.945 L744.732 659.184 L747.975 656.368 L751.218 653.499 L754.461 650.579 L757.704 647.611 L760.947 644.597 L764.19 641.542 L767.433 638.448 L770.676 635.318 L773.919 632.157 L777.162 628.968 L780.405 625.756 L783.648 622.525 L786.892 619.279 L790.135 616.024 L793.378 612.765 L796.621 609.508 L799.864 606.259 L803.107 603.025 L806.35 599.811 L809.593 596.626 L812.836 593.477 L816.079 590.371 L819.322 587.318 L822.565 584.327 L825.808 581.407 L829.051 578.568 L832.294 575.821 L835.537 573.177 L838.78 570.647 L842.023 568.243 L845.266 565.979 L848.509 563.868 L851.752 561.923 L854.995 560.158 L858.238 558.589 L861.481 557.229 L864.724 556.095 L867.967 555.201 L871.21 554.563 L874.453 554.197 L877.696 554.114 L880.939 554.318 L884.182 554.806 L887.425 555.577 L890.668 556.63 L893.911 557.963 L897.155 559.57 L900.398 561.439 L903.641 563.553 L906.884 565.898 L910.127 568.457 L913.37 571.214 L916.613 574.155 L919.856 577.264 L923.099 580.528 L926.342 583.931 L929.585 587.462 L932.828 591.106 L936.071 594.852 L939.314 598.688 L942.557 602.603 L945.8 606.587 L949.043 610.63 L952.286 614.724 L955.529 618.86 L958.772 623.031 L962.015 627.228 L965.258 631.447 L968.501 635.681 L971.744 639.924 L974.987 644.173 L978.23 648.423 L981.473 652.669 L984.716 656.91 L987.959 661.142 L991.202 665.363 L994.445 669.571 L997.688 673.766 L1000.93 677.946 L1004.17 682.112 L1007.42 686.262 L1010.66 690.398 L1013.9 694.521 L1017.15 698.632 L1020.39 702.732 L1023.63 706.824 L1026.88 710.91 L1030.12 714.994 L1033.36 719.077 L1036.6 723.165 L1039.85 727.261 L1043.09 731.368 L1046.33 735.492 L1049.58 739.638 L1052.82 743.81 L1056.06 748.013 L1059.31 752.254 L1062.55 756.538 L1065.79 760.871 L1069.04 765.259 L1072.28 769.707 L1075.52 774.222 L1078.76 778.81 L1082.01 783.476 L1085.25 788.225 L1088.49 793.052 L1091.74 797.95 L1094.98 802.911 L1098.22 807.93 L1101.47 812.999 L1104.71 818.111 L1107.95 823.259 L1111.19 828.438 L1114.44 833.639 L1117.68 838.857 L1120.92 844.085 L1124.17 849.318 L1127.41 854.55 L1130.65 859.774 L1133.9 864.986 L1137.14 870.18 L1140.38 875.352 L1143.62 880.496 L1146.87 885.609 L1150.11 890.685 L1153.35 895.721 L1156.6 900.712 L1159.84 905.656 L1163.08 910.549 L1166.33 915.386 L1169.57 920.166 L1172.81 924.886 L1176.06 929.542 L1179.3 934.133 L1182.54 938.655 L1185.78 943.107 L1189.03 947.487 L1192.27 951.792 L1195.51 956.022 L1198.76 960.174 L1202 964.248 L1205.24 968.241 L1208.49 972.154 L1211.73 975.984 L1214.97 979.731 L1218.21 983.395 L1221.46 986.974 L1224.7 990.469 L1227.94 993.879 L1231.19 997.204 L1234.43 1000.44 L1237.67 1003.6 L1240.92 1006.67 L1244.16 1009.66 L1247.4 1012.56 L1250.64 1015.38 L1253.89 1018.11 L1257.13 1020.77 L1260.37 1023.35 L1263.62 1025.84 L1266.86 1028.26 L1270.1 1030.61 L1273.35 1032.87 L1276.59 1035.07 L1279.83 1037.2 L1283.08 1039.26 L1286.32 1041.26 L1289.56 1043.19 L1292.8 1045.07 L1296.05 1046.89 L1299.29 1048.66 L1302.53 1050.38 L1305.78 1052.06 L1309.02 1053.69 L1312.26 1055.3 L1315.51 1056.87 L1318.75 1058.43 L1321.99 1059.96 L1325.23 1061.48 L1328.48 1063 L1331.72 1064.52 L1334.96 1066.05 L1338.21 1067.6 L1341.45 1069.17 L1344.69 1070.78 L1347.94 1072.44 L1351.18 1074.14 L1354.42 1075.91 L1357.66 1077.75 L1360.91 1079.67 L1364.15 1081.69 L1367.39 1083.81 L1370.64 1086.04 L1373.88 1088.4 L1377.12 1090.89 L1380.37 1093.52 L1383.61 1096.27 L1386.85 1099.14 L1390.1 1102.12 L1393.34 1105.19 L1396.58 1108.34 L1399.82 1111.57 L1403.07 1114.86 L1406.31 1118.21 L1409.55 1121.61 L1412.8 1125.04 L1416.04 1128.5 L1419.28 1131.98 L1422.53 1135.48 L1425.77 1138.98 L1429.01 1142.49 L1432.25 1145.99 L1435.5 1149.49 L1438.74 1152.98 L1441.98 1156.46 L1445.23 1159.92 L1448.47 1163.37 L1451.71 1166.8 L1454.96 1170.23 L1458.2 1173.64 L1461.44 1177.04 L1464.68 1180.43 L1467.93 1183.83 L1471.17 1187.22 L1474.41 1190.62 L1477.66 1194.03 L1480.9 1197.46 L1484.14 1200.92 L1487.39 1204.4 L1490.63 1207.91 L1493.87 1211.44 L1497.11 1215.01 L1500.36 1218.6 L1503.6 1222.23 L1506.84 1225.9 L1510.09 1229.62 L1513.33 1233.37 L1516.57 1237.18 L1519.82 1241.04 L1523.06 1244.96 L1526.3 1248.94 L1529.55 1252.98 L1532.79 1257.07 L1536.03 1261.21 L1539.27 1265.38 L1542.52 1269.6 L1545.76 1273.84 L1549 1278.11 L1552.25 1282.41 L1555.49 1286.71 L1558.73 1291.03 L1561.98 1295.34 L1565.22 1299.65 L1568.46 1303.93 L1571.7 1308.2 L1574.95 1312.42 L1578.19 1316.61 L1581.43 1320.76 L1584.68 1324.85 L1587.92 1328.89 L1591.16 1332.86 L1594.41 1336.76 L1597.65 1340.6 L1600.89 1344.36 L1604.13 1348.04 L1607.38 1351.64 L1610.62 1355.16 L1613.86 1358.59 L1617.11 1361.94 L1620.35 1365.2 L1623.59 1368.37 L1626.84 1371.46 L1630.08 1374.45 L1633.32 1377.36 L1636.57 1380.18 L1639.81 1382.91 L1643.05 1385.55 L1646.29 1388.12 L1649.54 1390.6 L1652.78 1393 L1656.02 1395.32 L1659.27 1397.57 L1662.51 1399.75 L1665.75 1401.86 L1669 1403.91 L1672.24 1405.9 L1675.48 1407.83 L1678.72 1409.71 L1681.97 1411.54 L1685.21 1413.33 L1688.45 1415.08 L1691.7 1416.79 L1694.94 1418.48 L1698.18 1420.14 L1701.43 1421.78 L1704.67 1423.4 L1707.91 1424.99 L1711.15 1426.54 L1714.4 1428.06 L1717.64 1429.54 L1720.88 1430.97 L1724.13 1432.35 L1727.37 1433.68 L1730.61 1434.95 L1733.86 1436.16 L1737.1 1437.31 L1740.34 1438.39 L1743.59 1439.4 L1746.83 1440.34 L1750.07 1441.21 L1753.31 1442 L1756.56 1442.72 L1759.8 1443.36 L1763.04 1443.92 L1766.29 1444.41 L1769.53 1444.81 L1772.77 1445.14 L1776.02 1445.4 L1779.26 1445.57 L1782.5 1445.68 L1785.74 1445.72 L1788.99 1445.68 L1792.23 1445.59 L1795.47 1445.43 L1798.72 1445.21 L1801.96 1444.95 L1805.2 1444.64 L1808.45 1444.28 L1811.69 1443.89 L1814.93 1443.47 L1818.17 1443.03 L1821.42 1442.57 L1824.66 1442.11 L1827.9 1441.65 L1831.15 1441.19 L1834.39 1440.75 L1837.63 1440.34 L1840.88 1439.95 L1844.12 1439.6 L1847.36 1439.29 L1850.61 1439.02 L1853.85 1438.78 L1857.09 1438.59 L1860.33 1438.43 L1863.58 1438.3 L1866.82 1438.18 L1870.06 1438.08 L1873.31 1437.98 L1876.55 1437.88 L1879.79 1437.76 L1883.04 1437.62 L1886.28 1437.46 L1889.52 1437.27 L1892.76 1437.05 L1896.01 1436.78 L1899.25 1436.47 L1902.49 1436.1 L1905.74 1435.69 L1908.98 1435.22 L1912.22 1434.69 L1915.47 1434.11 L1918.71 1433.46 L1921.95 1432.76 L1925.19 1431.99 L1928.44 1431.16 L1931.68 1430.27 L1934.92 1429.32 L1938.17 1428.31 L1941.41 1427.25 L1944.65 1426.13 L1947.9 1424.96 L1951.14 1423.73 L1954.38 1422.46 L1957.63 1421.15 L1960.87 1419.78 L1964.11 1418.36 L1967.35 1416.89 L1970.6 1415.37 L1973.84 1413.78 L1977.08 1412.14 L1980.33 1410.44 L1983.57 1408.67 L1986.81 1406.84 L1990.06 1404.95 L1993.3 1402.99 L1996.54 1400.96 L1999.78 1398.88 L2003.03 1396.72 L2006.27 1394.51 L2009.51 1392.24 L2012.76 1389.9 L2016 1387.51 L2019.24 1385.07 L2022.49 1382.57 L2025.73 1380.02 L2028.97 1377.43 L2032.21 1374.8 L2035.46 1372.13 L2038.7 1369.43 L2041.94 1366.7 L2045.19 1363.94 L2048.43 1361.17 L2051.67 1358.39 L2054.92 1355.6 L2058.16 1352.82 L2061.4 1350.03 L2064.65 1347.26 L2067.89 1344.51 L2071.13 1341.79 L2074.37 1339.09 L2077.62 1336.42 L2080.86 1333.77 L2084.1 1331.14 L2087.35 1328.53 L2090.59 1325.93 L2093.83 1323.34 L2097.08 1320.76 L2100.32 1318.18 L2103.56 1315.6 L2106.8 1313.01 L2110.05 1310.43 L2113.29 1307.83 L2116.53 1305.23 L2119.78 1302.62 L2123.02 1299.99 L2126.26 1297.36 L2129.51 1294.71 L2132.75 1292.05 L2135.99 1289.39 L2139.23 1286.71 L2142.48 1284.02 L2145.72 1281.32 L2148.96 1278.62 L2152.21 1275.92 L2155.45 1273.21 L2158.69 1270.51 L2161.94 1267.81 L2165.18 1265.12 L2168.42 1262.44 L2171.67 1259.79 L2174.91 1257.15 L2178.15 1254.54 L2181.39 1251.97 L2184.64 1249.44 L2187.88 1246.95 L2191.12 1244.51 L2194.37 1242.14 L2197.61 1239.83 L2200.85 1237.59 L2204.1 1235.44 L2207.34 1233.37 L2210.58 1231.41 L2213.82 1229.55 L2217.07 1227.8 L2220.31 1226.18 L2223.55 1224.69 L2226.8 1223.34 L2230.04 1222.14 L2233.28 1221.1 L2236.53 1220.21 L2239.77 1219.49 L2243.01 1218.91 L2246.25 1218.49 L2249.5 1218.2 L2252.74 1218.04 L2255.98 1218 L2259.23 1218.08 L2262.47 1218.28 L2265.71 1218.57 L2268.96 1218.97 L2272.2 1219.46 L2275.44 1220.03 L2278.69 1220.68 L2281.93 1221.41 L2285.17 1222.21 L2288.41 1223.06 L2291.66 1223.98 L2291.66 651.401 L2288.41 656.264 L2285.17 661.129 L2281.93 665.994 L2278.69 670.853 L2275.44 675.702 L2272.2 680.536 L2268.96 685.351 L2265.71 690.142 L2262.47 694.903 L2259.23 699.63 L2255.98 704.315 L2252.74 708.955 L2249.5 713.543 L2246.25 718.074 L2243.01 722.542 L2239.77 726.941 L2236.53 731.266 L2233.28 735.511 L2230.04 739.673 L2226.8 743.756 L2223.55 747.767 L2220.31 751.711 L2217.07 755.596 L2213.82 759.427 L2210.58 763.212 L2207.34 766.957 L2204.1 770.669 L2200.85 774.353 L2197.61 778.016 L2194.37 781.664 L2191.12 785.301 L2187.88 788.935 L2184.64 792.569 L2181.39 796.209 L2178.15 799.859 L2174.91 803.523 L2171.67 807.205 L2168.42 810.908 L2165.18 814.635 L2161.94 818.389 L2158.69 822.171 L2155.45 825.985 L2152.21 829.83 L2148.96 833.709 L2145.72 837.621 L2142.48 841.567 L2139.23 845.547 L2135.99 849.56 L2132.75 853.605 L2129.51 857.681 L2126.26 861.786 L2123.02 865.917 L2119.78 870.072 L2116.53 874.249 L2113.29 878.443 L2110.05 882.651 L2106.8 886.869 L2103.56 891.092 L2100.32 895.316 L2097.08 899.535 L2093.83 903.745 L2090.59 907.938 L2087.35 912.11 L2084.1 916.254 L2080.86 920.363 L2077.62 924.432 L2074.37 928.452 L2071.13 932.418 L2067.89 936.324 L2064.65 940.174 L2061.4 943.971 L2058.16 947.721 L2054.92 951.428 L2051.67 955.096 L2048.43 958.729 L2045.19 962.332 L2041.94 965.907 L2038.7 969.458 L2035.46 972.987 L2032.21 976.498 L2028.97 979.992 L2025.73 983.471 L2022.49 986.936 L2019.24 990.388 L2016 993.827 L2012.76 997.254 L2009.51 1000.67 L2006.27 1004.07 L2003.03 1007.45 L1999.78 1010.82 L1996.54 1014.16 L1993.3 1017.49 L1990.06 1020.78 L1986.81 1024.05 L1983.57 1027.28 L1980.33 1030.47 L1977.08 1033.62 L1973.84 1036.72 L1970.6 1039.76 L1967.35 1042.74 L1964.11 1045.64 L1960.87 1048.48 L1957.63 1051.22 L1954.38 1053.87 L1951.14 1056.43 L1947.9 1058.89 L1944.65 1061.26 L1941.41 1063.55 L1938.17 1065.76 L1934.92 1067.89 L1931.68 1069.96 L1928.44 1071.96 L1925.19 1073.89 L1921.95 1075.77 L1918.71 1077.59 L1915.47 1079.35 L1912.22 1081.06 L1908.98 1082.71 L1905.74 1084.31 L1902.49 1085.85 L1899.25 1087.34 L1896.01 1088.76 L1892.76 1090.12 L1889.52 1091.42 L1886.28 1092.64 L1883.04 1093.79 L1879.79 1094.86 L1876.55 1095.84 L1873.31 1096.72 L1870.06 1097.5 L1866.82 1098.18 L1863.58 1098.74 L1860.33 1099.17 L1857.09 1099.46 L1853.85 1099.62 L1850.61 1099.62 L1847.36 1099.47 L1844.12 1099.16 L1840.88 1098.7 L1837.63 1098.09 L1834.39 1097.32 L1831.15 1096.42 L1827.9 1095.38 L1824.66 1094.22 L1821.42 1092.96 L1818.17 1091.59 L1814.93 1090.15 L1811.69 1088.63 L1808.45 1087.04 L1805.2 1085.4 L1801.96 1083.72 L1798.72 1081.99 L1795.47 1080.23 L1792.23 1078.45 L1788.99 1076.66 L1785.74 1074.85 L1782.5 1073.03 L1779.26 1071.21 L1776.02 1069.4 L1772.77 1067.59 L1769.53 1065.79 L1766.29 1064 L1763.04 1062.23 L1759.8 1060.47 L1756.56 1058.72 L1753.31 1056.99 L1750.07 1055.28 L1746.83 1053.58 L1743.59 1051.9 L1740.34 1050.23 L1737.1 1048.57 L1733.86 1046.92 L1730.61 1045.27 L1727.37 1043.63 L1724.13 1041.98 L1720.88 1040.33 L1717.64 1038.68 L1714.4 1037.01 L1711.15 1035.32 L1707.91 1033.61 L1704.67 1031.87 L1701.43 1030.09 L1698.18 1028.28 L1694.94 1026.43 L1691.7 1024.54 L1688.45 1022.62 L1685.21 1020.68 L1681.97 1018.71 L1678.72 1016.73 L1675.48 1014.75 L1672.24 1012.76 L1669 1010.78 L1665.75 1008.8 L1662.51 1006.83 L1659.27 1004.88 L1656.02 1002.95 L1652.78 1001.04 L1649.54 999.162 L1646.29 997.31 L1643.05 995.49 L1639.81 993.703 L1636.57 991.95 L1633.32 990.234 L1630.08 988.554 L1626.84 986.91 L1623.59 985.304 L1620.35 983.733 L1617.11 982.197 L1613.86 980.694 L1610.62 979.222 L1607.38 977.778 L1604.13 976.36 L1600.89 974.965 L1597.65 973.587 L1594.41 972.222 L1591.16 970.865 L1587.92 969.51 L1584.68 968.152 L1581.43 966.783 L1578.19 965.396 L1574.95 963.982 L1571.7 962.534 L1568.46 961.042 L1565.22 959.497 L1561.98 957.888 L1558.73 956.205 L1555.49 954.437 L1552.25 952.572 L1549 950.601 L1545.76 948.524 L1542.52 946.34 L1539.27 944.05 L1536.03 941.655 L1532.79 939.155 L1529.55 936.55 L1526.3 933.839 L1523.06 931.021 L1519.82 928.097 L1516.57 925.071 L1513.33 921.947 L1510.09 918.728 L1506.84 915.42 L1503.6 912.025 L1500.36 908.546 L1497.11 904.986 L1493.87 901.347 L1490.63 897.63 L1487.39 893.837 L1484.14 889.967 L1480.9 886.021 L1477.66 882 L1474.41 877.911 L1471.17 873.764 L1467.93 869.566 L1464.68 865.325 L1461.44 861.047 L1458.2 856.738 L1454.96 852.405 L1451.71 848.05 L1448.47 843.679 L1445.23 839.294 L1441.98 834.897 L1438.74 830.488 L1435.5 826.07 L1432.25 821.64 L1429.01 817.198 L1425.77 812.741 L1422.53 808.267 L1419.28 803.772 L1416.04 799.251 L1412.8 794.698 L1409.55 790.109 L1406.31 785.477 L1403.07 780.793 L1399.82 776.051 L1396.58 771.243 L1393.34 766.359 L1390.1 761.392 L1386.85 756.332 L1383.61 751.169 L1380.37 745.896 L1377.12 740.503 L1373.88 734.983 L1370.64 729.335 L1367.39 723.567 L1364.15 717.69 L1360.91 711.713 L1357.66 705.647 L1354.42 699.503 L1351.18 693.289 L1347.94 687.017 L1344.69 680.695 L1341.45 674.333 L1338.21 667.94 L1334.96 661.525 L1331.72 655.094 L1328.48 648.657 L1325.23 642.22 L1321.99 635.79 L1318.75 629.374 L1315.51 622.977 L1312.26 616.606 L1309.02 610.266 L1305.78 603.961 L1302.53 597.696 L1299.29 591.476 L1296.05 585.304 L1292.8 579.184 L1289.56 573.12 L1286.32 567.115 L1283.08 561.171 L1279.83 555.292 L1276.59 549.479 L1273.35 543.735 L1270.1 538.062 L1266.86 532.462 L1263.62 526.936 L1260.37 521.485 L1257.13 516.112 L1253.89 510.816 L1250.64 505.6 L1247.4 500.464 L1244.16 495.408 L1240.92 490.433 L1237.67 485.539 L1234.43 480.727 L1231.19 475.997 L1227.94 471.349 L1224.7 466.782 L1221.46 462.297 L1218.21 457.893 L1214.97 453.569 L1211.73 449.325 L1208.49 445.16 L1205.24 441.074 L1202 437.065 L1198.76 433.132 L1195.51 429.275 L1192.27 425.491 L1189.03 421.779 L1185.78 418.138 L1182.54 414.566 L1179.3 411.061 L1176.06 407.621 L1172.81 404.244 L1169.57 400.927 L1166.33 397.668 L1163.08 394.465 L1159.84 391.314 L1156.6 388.213 L1153.35 385.158 L1150.11 382.147 L1146.87 379.175 L1143.62 376.239 L1140.38 373.336 L1137.14 370.46 L1133.9 367.609 L1130.65 364.777 L1127.41 361.959 L1124.17 359.152 L1120.92 356.35 L1117.68 353.548 L1114.44 350.741 L1111.19 347.923 L1107.95 345.088 L1104.71 342.232 L1101.47 339.347 L1098.22 336.43 L1094.98 333.472 L1091.74 330.469 L1088.49 327.415 L1085.25 324.304 L1082.01 321.131 L1078.76 317.891 L1075.52 314.59 L1072.28 311.235 L1069.04 307.831 L1065.79 304.386 L1062.55 300.907 L1059.31 297.4 L1056.06 293.874 L1052.82 290.334 L1049.58 286.787 L1046.33 283.24 L1043.09 279.7 L1039.85 276.171 L1036.6 272.662 L1033.36 269.176 L1030.12 265.721 L1026.88 262.3 L1023.63 258.92 L1020.39 255.584 L1017.15 252.298 L1013.9 249.065 L1010.66 245.889 L1007.42 242.774 L1004.17 239.724 L1000.93 236.74 L997.688 233.826 L994.445 230.984 L991.202 228.215 L987.959 225.522 L984.716 222.905 L981.473 220.365 L978.23 217.903 L974.987 215.519 L971.744 213.212 L968.501 210.982 L965.258 208.827 L962.015 206.746 L958.772 204.737 L955.529 202.797 L952.286 200.924 L949.043 199.113 L945.8 197.362 L942.557 195.664 L939.314 194.016 L936.071 192.412 L932.828 190.846 L929.585 189.312 L926.342 187.802 L923.099 186.309 L919.856 184.825 L916.613 183.342 L913.37 181.851 L910.127 180.344 L906.884 178.811 L903.641 177.244 L900.398 175.632 L897.155 173.968 L893.911 172.242 L890.668 170.448 L887.425 168.583 L884.182 166.648 L880.939 164.642 L877.696 162.568 L874.453 160.426 L871.21 158.22 L867.967 155.957 L864.724 153.643 L861.481 151.286 L858.238 148.896 L854.995 146.48 L851.752 144.046 L848.509 141.602 L845.266 139.156 L842.023 136.714 L838.78 134.285 L835.537 131.875 L832.294 129.489 L829.051 127.135 L825.808 124.818 L822.565 122.543 L819.322 120.315 L816.079 118.139 L812.836 116.018 L809.593 113.957 L806.35 111.959 L803.107 110.027 L799.864 108.164 L796.621 106.373 L793.378 104.656 L790.135 103.016 L786.892 101.454 L783.648 99.9719 L780.405 98.5716 L777.162 97.2543 L773.919 96.0211 L770.676 94.8732 L767.433 93.8115 L764.19 92.8368 L760.947 91.9498 L757.704 91.1509 L754.461 90.4408 L751.218 89.8197 L747.975 89.2881 L744.732 88.846 L741.489 88.4937 L738.246 88.2313 L735.003 88.0588 L731.76 87.9763 L728.517 87.9836 L725.274 88.0806 L722.031 88.2673 L718.788 88.5435 L715.545 88.909 L712.302 89.3635 L709.059 89.9067 L705.816 90.5385 L702.573 91.2585 L699.33 92.0665 L696.087 92.9619 L692.844 93.9446 L689.601 95.0141 L686.358 96.17 L683.115 97.4119 L679.872 98.7395 L676.629 100.152 L673.385 101.65 L670.142 103.231 L666.899 104.896 L663.656 106.645 L660.413 108.476 L657.17 110.389 L653.927 112.384 L650.684 114.46 L647.441 116.616 L644.198 118.852 L640.955 121.166 L637.712 123.559 L634.469 126.03 L631.226 128.576 L627.983 131.199 L624.74 133.897 L621.497 136.668 L618.254 139.513 L615.011 142.429 L611.768 145.416 L608.525 148.472 L605.282 151.597 L602.039 154.789 L598.796 158.046 L595.553 161.368 L592.31 164.751 L589.067 168.196 L585.824 171.699 L582.581 175.26 L579.338 178.875 L576.095 182.543 L572.852 186.262 L569.609 190.029 L566.366 193.842 L563.122 197.699 L559.879 201.595 L556.636 205.529 L553.393 209.498 L550.15 213.498 L546.907 217.526 L543.664 221.579 L540.421 225.653 L537.178 229.745 L533.935 233.851 L530.692 237.967 L527.449 242.09 L524.206 246.216 L520.963 250.34 L517.72 254.46 L514.477 258.572 L511.234 262.672 L507.991 266.758 L504.748 270.833 L501.505 274.903 L498.262 278.971 L495.019 283.042 L491.776 287.122 L488.533 291.216 L485.29 295.327 L482.047 299.461 L478.804 303.622 L475.561 307.815 L472.318 312.044 L469.075 316.313 L465.832 320.625 L462.589 324.985 L459.346 329.394 L456.103 333.857 L452.859 338.375 L449.616 342.95 L446.373 347.585 L443.13 352.28 L439.887 357.036 L436.644 361.854 L433.401 366.734 L430.158 371.674 L426.915 376.674 L423.672 381.733 L420.429 386.847 L417.186 392.014 L413.943 397.231 L410.7 402.493 L407.457 407.796 L404.214 413.133 L400.971 418.499 L397.728 423.886 L394.485 429.285 L391.242 434.689 L387.999 440.086 L384.756 445.467 L381.513 450.818 L378.27 456.126 L375.027 461.379 L371.784 466.56 L368.541 471.655 L365.298 476.651 L362.055 481.535 L358.812 486.295 L355.569 490.915 L352.326 495.381 L349.083 499.677 L345.84 503.784 L342.596 507.687 L339.353 511.367 L336.11 514.806 L332.867 517.987 L329.624 520.899 L326.381 523.531 L323.138 525.875 L319.895 527.93 L316.652 529.693 L313.409 531.166 L310.166 532.359 L306.923 533.281 L303.68 533.942 L300.437 534.353 L297.194 534.525 L293.951 534.465 L290.708 534.183 L287.465 533.687 L284.222 532.985 L280.979 532.084 L277.736 530.991 L274.493 529.721 L271.25 528.288 L268.007 526.707 L264.764 524.991 L261.521 523.152 L258.278 521.204 L255.035 519.156  Z" fill="#3da44d" fill-rule="evenodd" fill-opacity="0.1"/>
<polyline clip-path="url(#clip642)" style="stroke:#3da44d; stroke-linecap:round; stroke-linejoin:round; stroke-width:8; stroke-opacity:1; fill:none" points="255.035,716.309 258.278,714.248 261.521,712.145 264.764,709.998 268.007,707.807 271.25,705.571 274.493,703.288 277.736,700.959 280.979,698.581 284.222,696.155 287.465,693.68 290.708,691.157 293.951,688.586 297.194,685.967 300.437,683.302 303.68,680.589 306.923,677.83 310.166,675.025 313.409,672.173 316.652,669.276 319.895,666.334 323.138,663.349 326.381,660.325 329.624,657.263 332.867,654.167 336.11,651.039 339.353,647.883 342.596,644.701 345.84,641.497 349.083,638.273 352.326,635.031 355.569,631.775 358.812,628.508 362.055,625.233 365.298,621.952 368.541,618.668 371.784,615.384 375.027,612.103 378.27,608.826 381.513,605.553 384.756,602.285 387.999,599.022 391.242,595.764 394.485,592.513 397.728,589.269 400.971,586.033 404.214,582.805 407.457,579.586 410.7,576.377 413.943,573.178 417.186,569.99 420.429,566.814 423.672,563.652 426.915,560.503 430.158,557.368 433.401,554.249 436.644,551.147 439.887,548.062 443.13,544.995 446.373,541.948 449.616,538.922 452.859,535.917 456.103,532.935 459.346,529.978 462.589,527.045 465.832,524.14 469.075,521.262 472.318,518.414 475.561,515.596 478.804,512.81 482.047,510.059 485.29,507.342 488.533,504.663 491.776,502.021 495.019,499.42 498.262,496.861 501.505,494.346 504.748,491.876 507.991,489.454 511.234,487.081 514.477,484.759 517.72,482.487 520.963,480.262 524.206,478.082 527.449,475.945 530.692,473.851 533.935,471.795 537.178,469.778 540.421,467.797 543.664,465.851 546.907,463.938 550.15,462.056 553.393,460.204 556.636,458.38 559.879,456.583 563.122,454.812 566.366,453.066 569.609,451.342 572.852,449.64 576.095,447.959 579.338,446.297 582.581,444.654 585.824,443.029 589.067,441.419 592.31,439.825 595.553,438.246 598.796,436.68 602.039,435.127 605.282,433.586 608.525,432.057 611.768,430.538 615.011,429.029 618.254,427.529 621.497,426.038 624.74,424.555 627.983,423.079 631.226,421.611 634.469,420.15 637.712,418.694 640.955,417.245 644.198,415.802 647.441,414.364 650.684,412.931 653.927,411.503 657.17,410.08 660.413,408.662 663.656,407.248 666.899,405.84 670.142,404.435 673.385,403.035 676.629,401.64 679.872,400.25 683.115,398.865 686.358,397.485 689.601,396.111 692.844,394.742 696.087,393.379 699.33,392.023 702.573,390.674 705.816,389.332 709.059,387.997 712.302,386.671 715.545,385.354 718.788,384.046 722.031,382.749 725.274,381.462 728.517,380.187 731.76,378.924 735.003,377.675 738.246,376.439 741.489,375.219 744.732,374.015 747.975,372.828 751.218,371.659 754.461,370.51 757.704,369.381 760.947,368.274 764.19,367.189 767.433,366.13 770.676,365.096 773.919,364.089 777.162,363.111 780.405,362.164 783.648,361.248 786.892,360.366 790.135,359.52 793.378,358.711 796.621,357.941 799.864,357.212 803.107,356.526 806.35,355.885 809.593,355.291 812.836,354.747 816.079,354.255 819.322,353.817 822.565,353.435 825.808,353.113 829.051,352.852 832.294,352.655 835.537,352.526 838.78,352.466 842.023,352.479 845.266,352.567 848.509,352.735 851.752,352.985 854.995,353.319 858.238,353.743 861.481,354.258 864.724,354.869 867.967,355.579 871.21,356.392 874.453,357.312 877.696,358.341 880.939,359.48 884.182,360.727 887.425,362.08 890.668,363.539 893.911,365.102 897.155,366.769 900.398,368.535 903.641,370.398 906.884,372.354 910.127,374.4 913.37,376.533 916.613,378.748 919.856,381.045 923.099,383.418 926.342,385.867 929.585,388.387 932.828,390.976 936.071,393.632 939.314,396.352 942.557,399.133 945.8,401.974 949.043,404.872 952.286,407.824 955.529,410.829 958.772,413.884 962.015,416.987 965.258,420.137 968.501,423.331 971.744,426.568 974.987,429.846 978.23,433.163 981.473,436.517 984.716,439.907 987.959,443.332 991.202,446.789 994.445,450.278 997.688,453.796 1000.93,457.343 1004.17,460.918 1007.42,464.518 1010.66,468.144 1013.9,471.793 1017.15,475.465 1020.39,479.158 1023.63,482.872 1026.88,486.605 1030.12,490.357 1033.36,494.127 1036.6,497.913 1039.85,501.716 1043.09,505.534 1046.33,509.366 1049.58,513.212 1052.82,517.072 1056.06,520.944 1059.31,524.827 1062.55,528.723 1065.79,532.629 1069.04,536.545 1072.28,540.471 1075.52,544.406 1078.76,548.351 1082.01,552.304 1085.25,556.265 1088.49,560.234 1091.74,564.21 1094.98,568.192 1098.22,572.18 1101.47,576.173 1104.71,580.171 1107.95,584.174 1111.19,588.18 1114.44,592.19 1117.68,596.202 1120.92,600.218 1124.17,604.235 1127.41,608.255 1130.65,612.275 1133.9,616.297 1137.14,620.32 1140.38,624.344 1143.62,628.368 1146.87,632.392 1150.11,636.416 1153.35,640.44 1156.6,644.463 1159.84,648.485 1163.08,652.507 1166.33,656.527 1169.57,660.547 1172.81,664.565 1176.06,668.582 1179.3,672.597 1182.54,676.611 1185.78,680.623 1189.03,684.633 1192.27,688.642 1195.51,692.648 1198.76,696.653 1202,700.656 1205.24,704.658 1208.49,708.657 1211.73,712.654 1214.97,716.65 1218.21,720.644 1221.46,724.636 1224.7,728.626 1227.94,732.614 1231.19,736.601 1234.43,740.586 1237.67,744.569 1240.92,748.551 1244.16,752.532 1247.4,756.511 1250.64,760.489 1253.89,764.465 1257.13,768.441 1260.37,772.415 1263.62,776.389 1266.86,780.362 1270.1,784.334 1273.35,788.305 1276.59,792.276 1279.83,796.246 1283.08,800.216 1286.32,804.186 1289.56,808.156 1292.8,812.126 1296.05,816.096 1299.29,820.067 1302.53,824.037 1305.78,828.008 1309.02,831.98 1312.26,835.953 1315.51,839.926 1318.75,843.9 1321.99,847.875 1325.23,851.852 1328.48,855.829 1331.72,859.808 1334.96,863.789 1338.21,867.77 1341.45,871.754 1344.69,875.739 1347.94,879.726 1351.18,883.715 1354.42,887.705 1357.66,891.698 1360.91,895.693 1364.15,899.69 1367.39,903.689 1370.64,907.69 1373.88,911.693 1377.12,915.699 1380.37,919.708 1383.61,923.721 1386.85,927.737 1390.1,931.754 1393.34,935.772 1396.58,939.792 1399.82,943.81 1403.07,947.828 1406.31,951.844 1409.55,955.858 1412.8,959.868 1416.04,963.875 1419.28,967.876 1422.53,971.872 1425.77,975.861 1429.01,979.842 1432.25,983.815 1435.5,987.779 1438.74,991.733 1441.98,995.676 1445.23,999.607 1448.47,1003.52 1451.71,1007.43 1454.96,1011.32 1458.2,1015.19 1461.44,1019.04 1464.68,1022.88 1467.93,1026.7 1471.17,1030.49 1474.41,1034.27 1477.66,1038.02 1480.9,1041.74 1484.14,1045.44 1487.39,1049.12 1490.63,1052.77 1493.87,1056.39 1497.11,1060 1500.36,1063.57 1503.6,1067.13 1506.84,1070.66 1510.09,1074.17 1513.33,1077.66 1516.57,1081.12 1519.82,1084.57 1523.06,1087.99 1526.3,1091.39 1529.55,1094.76 1532.79,1098.11 1536.03,1101.43 1539.27,1104.72 1542.52,1107.97 1545.76,1111.18 1549,1114.36 1552.25,1117.49 1555.49,1120.58 1558.73,1123.62 1561.98,1126.62 1565.22,1129.57 1568.46,1132.49 1571.7,1135.36 1574.95,1138.2 1578.19,1141.01 1581.43,1143.77 1584.68,1146.5 1587.92,1149.2 1591.16,1151.86 1594.41,1154.49 1597.65,1157.09 1600.89,1159.66 1604.13,1162.2 1607.38,1164.71 1610.62,1167.19 1613.86,1169.64 1617.11,1172.07 1620.35,1174.47 1623.59,1176.84 1626.84,1179.18 1630.08,1181.5 1633.32,1183.8 1636.57,1186.06 1639.81,1188.31 1643.05,1190.52 1646.29,1192.71 1649.54,1194.88 1652.78,1197.02 1656.02,1199.14 1659.27,1201.23 1662.51,1203.29 1665.75,1205.33 1669,1207.34 1672.24,1209.33 1675.48,1211.29 1678.72,1213.22 1681.97,1215.13 1685.21,1217 1688.45,1218.85 1691.7,1220.67 1694.94,1222.46 1698.18,1224.21 1701.43,1225.94 1704.67,1227.63 1707.91,1229.3 1711.15,1230.93 1714.4,1232.53 1717.64,1234.11 1720.88,1235.65 1724.13,1237.17 1727.37,1238.65 1730.61,1240.11 1733.86,1241.54 1737.1,1242.94 1740.34,1244.31 1743.59,1245.65 1746.83,1246.96 1750.07,1248.25 1753.31,1249.5 1756.56,1250.72 1759.8,1251.91 1763.04,1253.07 1766.29,1254.2 1769.53,1255.3 1772.77,1256.37 1776.02,1257.4 1779.26,1258.39 1782.5,1259.36 1785.74,1260.28 1788.99,1261.17 1792.23,1262.02 1795.47,1262.83 1798.72,1263.6 1801.96,1264.33 1805.2,1265.02 1808.45,1265.66 1811.69,1266.26 1814.93,1266.81 1818.17,1267.31 1821.42,1267.76 1824.66,1268.17 1827.9,1268.51 1831.15,1268.8 1834.39,1269.04 1837.63,1269.21 1840.88,1269.33 1844.12,1269.38 1847.36,1269.38 1850.61,1269.32 1853.85,1269.2 1857.09,1269.03 1860.33,1268.8 1863.58,1268.52 1866.82,1268.18 1870.06,1267.79 1873.31,1267.35 1876.55,1266.86 1879.79,1266.31 1883.04,1265.71 1886.28,1265.05 1889.52,1264.34 1892.76,1263.58 1896.01,1262.77 1899.25,1261.9 1902.49,1260.98 1905.74,1260 1908.98,1258.97 1912.22,1257.88 1915.47,1256.73 1918.71,1255.53 1921.95,1254.26 1925.19,1252.94 1928.44,1251.56 1931.68,1250.11 1934.92,1248.61 1938.17,1247.03 1941.41,1245.4 1944.65,1243.69 1947.9,1241.92 1951.14,1240.08 1954.38,1238.17 1957.63,1236.18 1960.87,1234.13 1964.11,1232 1967.35,1229.81 1970.6,1227.56 1973.84,1225.25 1977.08,1222.88 1980.33,1220.45 1983.57,1217.98 1986.81,1215.44 1990.06,1212.86 1993.3,1210.24 1996.54,1207.56 1999.78,1204.85 2003.03,1202.09 2006.27,1199.29 2009.51,1196.45 2012.76,1193.58 2016,1190.67 2019.24,1187.73 2022.49,1184.75 2025.73,1181.75 2028.97,1178.71 2032.21,1175.65 2035.46,1172.56 2038.7,1169.44 2041.94,1166.3 2045.19,1163.14 2048.43,1159.95 2051.67,1156.74 2054.92,1153.52 2058.16,1150.27 2061.4,1147 2064.65,1143.72 2067.89,1140.42 2071.13,1137.1 2074.37,1133.77 2077.62,1130.42 2080.86,1127.07 2084.1,1123.7 2087.35,1120.32 2090.59,1116.94 2093.83,1113.54 2097.08,1110.15 2100.32,1106.75 2103.56,1103.34 2106.8,1099.94 2110.05,1096.54 2113.29,1093.14 2116.53,1089.74 2119.78,1086.34 2123.02,1082.95 2126.26,1079.57 2129.51,1076.2 2132.75,1072.83 2135.99,1069.47 2139.23,1066.13 2142.48,1062.79 2145.72,1059.47 2148.96,1056.17 2152.21,1052.87 2155.45,1049.6 2158.69,1046.34 2161.94,1043.1 2165.18,1039.88 2168.42,1036.68 2171.67,1033.5 2174.91,1030.34 2178.15,1027.2 2181.39,1024.09 2184.64,1021 2187.88,1017.94 2191.12,1014.91 2194.37,1011.9 2197.61,1008.92 2200.85,1005.97 2204.1,1003.05 2207.34,1000.17 2210.58,997.31 2213.82,994.488 2217.07,991.7 2220.31,988.947 2223.55,986.23 2226.8,983.549 2230.04,980.907 2233.28,978.304 2236.53,975.74 2239.77,973.215 2243.01,970.728 2246.25,968.28 2249.5,965.87 2252.74,963.496 2255.98,961.158 2259.23,958.856 2262.47,956.59 2265.71,954.358 2268.96,952.16 2272.2,949.997 2275.44,947.866 2278.69,945.768 2281.93,943.702 2285.17,941.667 2288.41,939.664 2291.66,937.692 "/>
<path clip-path="url(#clip640)" d="M1953.46 302.578 L2280.8 302.578 L2280.8 95.2176 L1953.46 95.2176  Z" fill="#ffffff" fill-rule="evenodd" fill-opacity="1"/>
<polyline clip-path="url(#clip640)" style="stroke:#000000; stroke-linecap:round; stroke-linejoin:round; stroke-width:4; stroke-opacity:1; fill:none" points="1953.46,302.578 2280.8,302.578 2280.8,95.2176 1953.46,95.2176 1953.46,302.578 "/>
<polyline clip-path="url(#clip640)" style="stroke:#009af9; stroke-linecap:round; stroke-linejoin:round; stroke-width:4; stroke-opacity:1; fill:none" points="1977.44,147.058 2121.36,147.058 "/>
<path clip-path="url(#clip640)" d="M2152.76 131.051 L2152.76 138.412 L2161.53 138.412 L2161.53 141.722 L2152.76 141.722 L2152.76 155.796 Q2152.76 158.967 2153.61 159.87 Q2154.49 160.773 2157.16 160.773 L2161.53 160.773 L2161.53 164.338 L2157.16 164.338 Q2152.23 164.338 2150.35 162.509 Q2148.48 160.657 2148.48 155.796 L2148.48 141.722 L2145.35 141.722 L2145.35 138.412 L2148.48 138.412 L2148.48 131.051 L2152.76 131.051 Z" fill="#000000" fill-rule="nonzero" fill-opacity="1" /><path clip-path="url(#clip640)" d="M2182.16 142.393 Q2181.44 141.977 2180.58 141.791 Q2179.75 141.583 2178.73 141.583 Q2175.12 141.583 2173.17 143.944 Q2171.25 146.282 2171.25 150.68 L2171.25 164.338 L2166.97 164.338 L2166.97 138.412 L2171.25 138.412 L2171.25 142.44 Q2172.6 140.078 2174.75 138.944 Q2176.9 137.787 2179.98 137.787 Q2180.42 137.787 2180.95 137.856 Q2181.48 137.903 2182.13 138.018 L2182.16 142.393 Z" fill="#000000" fill-rule="nonzero" fill-opacity="1" /><path clip-path="url(#clip640)" d="M2186.18 154.106 L2186.18 138.412 L2190.44 138.412 L2190.44 153.944 Q2190.44 157.625 2191.88 159.476 Q2193.31 161.305 2196.18 161.305 Q2199.63 161.305 2201.62 159.106 Q2203.64 156.907 2203.64 153.111 L2203.64 138.412 L2207.9 138.412 L2207.9 164.338 L2203.64 164.338 L2203.64 160.356 Q2202.09 162.717 2200.03 163.875 Q2197.99 165.009 2195.28 165.009 Q2190.81 165.009 2188.5 162.231 Q2186.18 159.453 2186.18 154.106 M2196.9 137.787 L2196.9 137.787 Z" fill="#000000" fill-rule="nonzero" fill-opacity="1" /><path clip-path="url(#clip640)" d="M2220.88 131.051 L2220.88 138.412 L2229.66 138.412 L2229.66 141.722 L2220.88 141.722 L2220.88 155.796 Q2220.88 158.967 2221.74 159.87 Q2222.62 160.773 2225.28 160.773 L2229.66 160.773 L2229.66 164.338 L2225.28 164.338 Q2220.35 164.338 2218.48 162.509 Q2216.6 160.657 2216.6 155.796 L2216.6 141.722 L2213.48 141.722 L2213.48 138.412 L2216.6 138.412 L2216.6 131.051 L2220.88 131.051 Z" fill="#000000" fill-rule="nonzero" fill-opacity="1" /><path clip-path="url(#clip640)" d="M2256.81 148.689 L2256.81 164.338 L2252.55 164.338 L2252.55 148.828 Q2252.55 145.148 2251.11 143.319 Q2249.68 141.49 2246.81 141.49 Q2243.36 141.49 2241.37 143.69 Q2239.38 145.889 2239.38 149.685 L2239.38 164.338 L2235.1 164.338 L2235.1 128.319 L2239.38 128.319 L2239.38 142.44 Q2240.91 140.102 2242.97 138.944 Q2245.05 137.787 2247.76 137.787 Q2252.23 137.787 2254.52 140.565 Q2256.81 143.319 2256.81 148.689 Z" fill="#000000" fill-rule="nonzero" fill-opacity="1" /><circle clip-path="url(#clip640)" cx="2049.4" cy="198.898" r="20.48" fill="#e26f46" fill-rule="evenodd" fill-opacity="1" stroke="#000000" stroke-opacity="1" stroke-width="4.55111"/>
<path clip-path="url(#clip640)" d="M2164.26 194.187 L2164.26 180.159 L2168.52 180.159 L2168.52 216.178 L2164.26 216.178 L2164.26 212.289 Q2162.92 214.603 2160.86 215.738 Q2158.82 216.849 2155.95 216.849 Q2151.25 216.849 2148.29 213.099 Q2145.35 209.349 2145.35 203.238 Q2145.35 197.127 2148.29 193.377 Q2151.25 189.627 2155.95 189.627 Q2158.82 189.627 2160.86 190.761 Q2162.92 191.872 2164.26 194.187 M2149.75 203.238 Q2149.75 207.937 2151.67 210.622 Q2153.61 213.284 2156.99 213.284 Q2160.37 213.284 2162.32 210.622 Q2164.26 207.937 2164.26 203.238 Q2164.26 198.539 2162.32 195.877 Q2160.37 193.192 2156.99 193.192 Q2153.61 193.192 2151.67 195.877 Q2149.75 198.539 2149.75 203.238 Z" fill="#000000" fill-rule="nonzero" fill-opacity="1" /><path clip-path="url(#clip640)" d="M2189.08 203.145 Q2183.92 203.145 2181.92 204.326 Q2179.93 205.506 2179.93 208.354 Q2179.93 210.622 2181.42 211.965 Q2182.92 213.284 2185.49 213.284 Q2189.03 213.284 2191.16 210.784 Q2193.31 208.261 2193.31 204.094 L2193.31 203.145 L2189.08 203.145 M2197.57 201.386 L2197.57 216.178 L2193.31 216.178 L2193.31 212.242 Q2191.85 214.603 2189.68 215.738 Q2187.5 216.849 2184.36 216.849 Q2180.37 216.849 2178.01 214.627 Q2175.67 212.381 2175.67 208.631 Q2175.67 204.256 2178.59 202.034 Q2181.53 199.812 2187.34 199.812 L2193.31 199.812 L2193.31 199.395 Q2193.31 196.455 2191.37 194.858 Q2189.45 193.238 2185.95 193.238 Q2183.73 193.238 2181.62 193.77 Q2179.52 194.303 2177.57 195.367 L2177.57 191.432 Q2179.91 190.53 2182.11 190.09 Q2184.31 189.627 2186.39 189.627 Q2192.02 189.627 2194.79 192.543 Q2197.57 195.46 2197.57 201.386 Z" fill="#000000" fill-rule="nonzero" fill-opacity="1" /><path clip-path="url(#clip640)" d="M2210.56 182.891 L2210.56 190.252 L2219.33 190.252 L2219.33 193.562 L2210.56 193.562 L2210.56 207.636 Q2210.56 210.807 2211.42 211.71 Q2212.29 212.613 2214.96 212.613 L2219.33 212.613 L2219.33 216.178 L2214.96 216.178 Q2210.03 216.178 2208.15 214.349 Q2206.28 212.497 2206.28 207.636 L2206.28 193.562 L2203.15 193.562 L2203.15 190.252 L2206.28 190.252 L2206.28 182.891 L2210.56 182.891 Z" fill="#000000" fill-rule="nonzero" fill-opacity="1" /><path clip-path="url(#clip640)" d="M2236.72 203.145 Q2231.55 203.145 2229.56 204.326 Q2227.57 205.506 2227.57 208.354 Q2227.57 210.622 2229.05 211.965 Q2230.56 213.284 2233.13 213.284 Q2236.67 213.284 2238.8 210.784 Q2240.95 208.261 2240.95 204.094 L2240.95 203.145 L2236.72 203.145 M2245.21 201.386 L2245.21 216.178 L2240.95 216.178 L2240.95 212.242 Q2239.49 214.603 2237.32 215.738 Q2235.14 216.849 2231.99 216.849 Q2228.01 216.849 2225.65 214.627 Q2223.31 212.381 2223.31 208.631 Q2223.31 204.256 2226.23 202.034 Q2229.17 199.812 2234.98 199.812 L2240.95 199.812 L2240.95 199.395 Q2240.95 196.455 2239.01 194.858 Q2237.09 193.238 2233.59 193.238 Q2231.37 193.238 2229.26 193.77 Q2227.16 194.303 2225.21 195.367 L2225.21 191.432 Q2227.55 190.53 2229.75 190.09 Q2231.95 189.627 2234.03 189.627 Q2239.66 189.627 2242.43 192.543 Q2245.21 195.46 2245.21 201.386 Z" fill="#000000" fill-rule="nonzero" fill-opacity="1" /><polyline clip-path="url(#clip640)" style="stroke:#3da44d; stroke-linecap:round; stroke-linejoin:round; stroke-width:8; stroke-opacity:1; fill:none" points="1977.44,250.738 2121.36,250.738 "/>
<path clip-path="url(#clip640)" d="M2170.91 263.087 L2170.91 253.805 L2163.27 253.805 L2163.27 249.962 L2175.54 249.962 L2175.54 264.8 Q2172.83 266.721 2169.56 267.717 Q2166.3 268.689 2162.6 268.689 Q2154.49 268.689 2149.91 263.967 Q2145.35 259.221 2145.35 250.772 Q2145.35 242.3 2149.91 237.578 Q2154.49 232.833 2162.6 232.833 Q2165.98 232.833 2169.01 233.666 Q2172.06 234.499 2174.63 236.12 L2174.63 241.096 Q2172.04 238.897 2169.12 237.786 Q2166.21 236.675 2162.99 236.675 Q2156.65 236.675 2153.45 240.217 Q2150.28 243.758 2150.28 250.772 Q2150.28 257.763 2153.45 261.305 Q2156.65 264.846 2162.99 264.846 Q2165.47 264.846 2167.41 264.43 Q2169.36 263.99 2170.91 263.087 Z" fill="#000000" fill-rule="nonzero" fill-opacity="1" /><path clip-path="url(#clip640)" d="M2188.75 237.3 L2188.75 250.286 L2194.63 250.286 Q2197.9 250.286 2199.68 248.596 Q2201.46 246.907 2201.46 243.782 Q2201.46 240.68 2199.68 238.99 Q2197.9 237.3 2194.63 237.3 L2188.75 237.3 M2184.08 233.458 L2194.63 233.458 Q2200.44 233.458 2203.41 236.096 Q2206.39 238.712 2206.39 243.782 Q2206.39 248.897 2203.41 251.513 Q2200.44 254.129 2194.63 254.129 L2188.75 254.129 L2188.75 268.018 L2184.08 268.018 L2184.08 233.458 Z" fill="#000000" fill-rule="nonzero" fill-opacity="1" /></svg>
